  0
SECTION
  2
HEADER
  9
$ANGBASE
  50
0.0
  9
$ANGDIR
  70
1
  9
$MEASUREMENT
  70
0
  0
ENDSEC
  0
SECTION
  2
TABLES
  0
TABLE
  2
LTYPE
  70
4
  0
LTYPE
  5
40F
  2
CONTINUOUS
  70
0
  3
Solid line
  72
65
  73
0
  40
0.0
  0
LTYPE
  5
410
  2
DASHDOT
 70
0
  3
Dash Dot ____ _ ____ _
 72
65
 73
4
 40
2.0
 49
1.25
 49
-0.25
 49
0.25
 49
-0.25
  0
LTYPE
  5
411
  2
DASHED
 70
0
  3
Dashed __ __ __ __ __
 72
65
 73
2
 40
0.75
 49
0.5
 49
-0.25
  0
LTYPE
  5
43B
  2
DOTTED
 70
0
  3
Dotted .  .  .  .
 72
65
 73
2
 40
0.2
 49
0.0
 49
-0.2
  0
ENDTAB
  0
TABLE
  2
STYLE
  70
4
  0
STYLE
  2
KICAD
  70
0
  40
0
  41
1
  42
1
  50
0
  71
0
  3
isocp.shx
  0
STYLE
  2
KICADB
  70
0
  40
0
  41
1
  42
1
  50
0
  71
0
  3
isocp.shx
  0
STYLE
  2
KICADI
  70
0
  40
0
  41
1
  42
1
  50
15
  71
0
  3
isocp.shx
  0
STYLE
  2
KICADBI
  70
0
  40
0
  41
1
  42
1
  50
15
  71
0
  3
isocp.shx
  0
ENDTAB
  0
TABLE
  2
LAYER
  70
1
  0
LAYER
  2
BLACK
  70
0
  62
7
  6
CONTINUOUS
  0
ENDTAB
  0
ENDSEC
  0
SECTION
  2
ENTITIES
0
LINE
8
BLACK
6
CONTINUOUS
10
0.959173
20
0.0724016
11
0.917441
21
0.0724016
0
LINE
8
BLACK
6
CONTINUOUS
10
0.917441
20
0.0724016
11
0.917441
21
0.0979921
0
LINE
8
BLACK
6
CONTINUOUS
10
0.917441
20
0.0979921
11
0.959173
21
0.0979921
0
LINE
8
BLACK
6
CONTINUOUS
10
0.959173
20
0.0979921
11
0.959173
21
0.0724016
0
LINE
8
BLACK
6
CONTINUOUS
10
0.872559
20
0.0724016
11
0.830827
21
0.0724016
0
LINE
8
BLACK
6
CONTINUOUS
10
0.830827
20
0.0724016
11
0.830827
21
0.0979921
0
LINE
8
BLACK
6
CONTINUOUS
10
0.830827
20
0.0979921
11
0.872559
21
0.0979921
0
LINE
8
BLACK
6
CONTINUOUS
10
0.872559
20
0.0979921
11
0.872559
21
0.0724016
0
LINE
8
BLACK
6
CONTINUOUS
10
0.637008
20
0.0775591
11
0.609449
21
0.0775591
0
LINE
8
BLACK
6
CONTINUOUS
10
0.609449
20
0.0775591
11
0.609449
21
0.148425
0
LINE
8
BLACK
6
CONTINUOUS
10
0.609449
20
0.148425
11
0.637008
21
0.148425
0
LINE
8
BLACK
6
CONTINUOUS
10
0.637008
20
0.148425
11
0.637008
21
0.0775591
0
LINE
8
BLACK
6
CONTINUOUS
10
0.595669
20
0.0775591
11
0.564173
21
0.0775591
0
LINE
8
BLACK
6
CONTINUOUS
10
0.564173
20
0.0775591
11
0.564173
21
0.148425
0
LINE
8
BLACK
6
CONTINUOUS
10
0.564173
20
0.148425
11
0.595669
21
0.148425
0
LINE
8
BLACK
6
CONTINUOUS
10
0.595669
20
0.148425
11
0.595669
21
0.0775591
0
LINE
8
BLACK
6
CONTINUOUS
10
0.552362
20
0.0775591
11
0.520866
21
0.0775591
0
LINE
8
BLACK
6
CONTINUOUS
10
0.520866
20
0.0775591
11
0.520866
21
0.148425
0
LINE
8
BLACK
6
CONTINUOUS
10
0.520866
20
0.148425
11
0.552362
21
0.148425
0
LINE
8
BLACK
6
CONTINUOUS
10
0.552362
20
0.148425
11
0.552362
21
0.0775591
0
LINE
8
BLACK
6
CONTINUOUS
10
0.509055
20
0.0775591
11
0.477559
21
0.0775591
0
LINE
8
BLACK
6
CONTINUOUS
10
0.477559
20
0.0775591
11
0.477559
21
0.148425
0
LINE
8
BLACK
6
CONTINUOUS
10
0.477559
20
0.148425
11
0.509055
21
0.148425
0
LINE
8
BLACK
6
CONTINUOUS
10
0.509055
20
0.148425
11
0.509055
21
0.0775591
0
LINE
8
BLACK
6
CONTINUOUS
10
0.465748
20
0.0775591
11
0.434252
21
0.0775591
0
LINE
8
BLACK
6
CONTINUOUS
10
0.434252
20
0.0775591
11
0.434252
21
0.148425
0
LINE
8
BLACK
6
CONTINUOUS
10
0.434252
20
0.148425
11
0.465748
21
0.148425
0
LINE
8
BLACK
6
CONTINUOUS
10
0.465748
20
0.148425
11
0.465748
21
0.0775591
0
LINE
8
BLACK
6
CONTINUOUS
10
0.422441
20
0.0775591
11
0.390945
21
0.0775591
0
LINE
8
BLACK
6
CONTINUOUS
10
0.390945
20
0.0775591
11
0.390945
21
0.148425
0
LINE
8
BLACK
6
CONTINUOUS
10
0.390945
20
0.148425
11
0.422441
21
0.148425
0
LINE
8
BLACK
6
CONTINUOUS
10
0.422441
20
0.148425
11
0.422441
21
0.0775591
0
LINE
8
BLACK
6
CONTINUOUS
10
0.379134
20
0.0775591
11
0.347638
21
0.0775591
0
LINE
8
BLACK
6
CONTINUOUS
10
0.347638
20
0.0775591
11
0.347638
21
0.148425
0
LINE
8
BLACK
6
CONTINUOUS
10
0.347638
20
0.148425
11
0.379134
21
0.148425
0
LINE
8
BLACK
6
CONTINUOUS
10
0.379134
20
0.148425
11
0.379134
21
0.0775591
0
LINE
8
BLACK
6
CONTINUOUS
10
0.335827
20
0.0775591
11
0.304331
21
0.0775591
0
LINE
8
BLACK
6
CONTINUOUS
10
0.304331
20
0.0775591
11
0.304331
21
0.148425
0
LINE
8
BLACK
6
CONTINUOUS
10
0.304331
20
0.148425
11
0.335827
21
0.148425
0
LINE
8
BLACK
6
CONTINUOUS
10
0.335827
20
0.148425
11
0.335827
21
0.0775591
0
LINE
8
BLACK
6
CONTINUOUS
10
0.290551
20
0.0775591
11
0.262992
21
0.0775591
0
LINE
8
BLACK
6
CONTINUOUS
10
0.262992
20
0.0775591
11
0.262992
21
0.148425
0
LINE
8
BLACK
6
CONTINUOUS
10
0.262992
20
0.148425
11
0.290551
21
0.148425
0
LINE
8
BLACK
6
CONTINUOUS
10
0.290551
20
0.148425
11
0.290551
21
0.0775591
0
LINE
8
BLACK
6
CONTINUOUS
10
0.796769
20
0.115051
11
0.798384
21
0.114561
0
LINE
8
BLACK
6
CONTINUOUS
10
0.798384
20
0.114561
11
0.799873
21
0.113765
0
LINE
8
BLACK
6
CONTINUOUS
10
0.799873
20
0.113765
11
0.801178
21
0.112694
0
LINE
8
BLACK
6
CONTINUOUS
10
0.801178
20
0.112694
11
0.802249
21
0.111389
0
LINE
8
BLACK
6
CONTINUOUS
10
0.802249
20
0.111389
11
0.803045
21
0.1099
0
LINE
8
BLACK
6
CONTINUOUS
10
0.803045
20
0.1099
11
0.803535
21
0.108284
0
LINE
8
BLACK
6
CONTINUOUS
10
0.803535
20
0.108284
11
0.803701
21
0.106604
0
LINE
8
BLACK
6
CONTINUOUS
10
0.803701
20
0.106604
11
0.803701
21
0.0893799
0
LINE
8
BLACK
6
CONTINUOUS
10
0.803701
20
0.0893799
11
0.803535
21
0.0876998
0
LINE
8
BLACK
6
CONTINUOUS
10
0.803535
20
0.0876998
11
0.803045
21
0.0860842
0
LINE
8
BLACK
6
CONTINUOUS
10
0.803045
20
0.0860842
11
0.802249
21
0.0845952
0
LINE
8
BLACK
6
CONTINUOUS
10
0.802249
20
0.0845952
11
0.801178
21
0.0832902
0
LINE
8
BLACK
6
CONTINUOUS
10
0.801178
20
0.0832902
11
0.799873
21
0.0822191
0
LINE
8
BLACK
6
CONTINUOUS
10
0.799873
20
0.0822191
11
0.798384
21
0.0814233
0
LINE
8
BLACK
6
CONTINUOUS
10
0.798384
20
0.0814233
11
0.796769
21
0.0809332
0
LINE
8
BLACK
6
CONTINUOUS
10
0.796769
20
0.0809332
11
0.795089
21
0.0807677
0
LINE
8
BLACK
6
CONTINUOUS
10
0.795089
20
0.0807677
11
0.774911
21
0.0807677
0
LINE
8
BLACK
6
CONTINUOUS
10
0.774911
20
0.0807677
11
0.773231
21
0.0809332
0
LINE
8
BLACK
6
CONTINUOUS
10
0.773231
20
0.0809332
11
0.771616
21
0.0814233
0
LINE
8
BLACK
6
CONTINUOUS
10
0.771616
20
0.0814233
11
0.770127
21
0.0822191
0
LINE
8
BLACK
6
CONTINUOUS
10
0.770127
20
0.0822191
11
0.768822
21
0.0832902
0
LINE
8
BLACK
6
CONTINUOUS
10
0.768822
20
0.0832902
11
0.767751
21
0.0845952
0
LINE
8
BLACK
6
CONTINUOUS
10
0.767751
20
0.0845952
11
0.766955
21
0.0860842
0
LINE
8
BLACK
6
CONTINUOUS
10
0.766955
20
0.0860842
11
0.766465
21
0.0876998
0
LINE
8
BLACK
6
CONTINUOUS
10
0.766465
20
0.0876998
11
0.766299
21
0.0893799
0
LINE
8
BLACK
6
CONTINUOUS
10
0.766299
20
0.0893799
11
0.766299
21
0.106604
0
LINE
8
BLACK
6
CONTINUOUS
10
0.766299
20
0.106604
11
0.766465
21
0.108284
0
LINE
8
BLACK
6
CONTINUOUS
10
0.766465
20
0.108284
11
0.766955
21
0.1099
0
LINE
8
BLACK
6
CONTINUOUS
10
0.766955
20
0.1099
11
0.767751
21
0.111389
0
LINE
8
BLACK
6
CONTINUOUS
10
0.767751
20
0.111389
11
0.768822
21
0.112694
0
LINE
8
BLACK
6
CONTINUOUS
10
0.768822
20
0.112694
11
0.770127
21
0.113765
0
LINE
8
BLACK
6
CONTINUOUS
10
0.770127
20
0.113765
11
0.771616
21
0.114561
0
LINE
8
BLACK
6
CONTINUOUS
10
0.771616
20
0.114561
11
0.773231
21
0.115051
0
LINE
8
BLACK
6
CONTINUOUS
10
0.773231
20
0.115051
11
0.774911
21
0.115217
0
LINE
8
BLACK
6
CONTINUOUS
10
0.774911
20
0.115217
11
0.795089
21
0.115217
0
LINE
8
BLACK
6
CONTINUOUS
10
0.795089
20
0.115217
11
0.796769
21
0.115051
0
LINE
8
BLACK
6
CONTINUOUS
10
1.0913
20
0.118535
11
1.09291
21
0.118045
0
LINE
8
BLACK
6
CONTINUOUS
10
1.09291
20
0.118045
11
1.0944
21
0.117249
0
LINE
8
BLACK
6
CONTINUOUS
10
1.0944
20
0.117249
11
1.09571
21
0.116178
0
LINE
8
BLACK
6
CONTINUOUS
10
1.09571
20
0.116178
11
1.09678
21
0.114873
0
LINE
8
BLACK
6
CONTINUOUS
10
1.09678
20
0.114873
11
1.09757
21
0.113384
0
LINE
8
BLACK
6
CONTINUOUS
10
1.09757
20
0.113384
11
1.09806
21
0.111769
0
LINE
8
BLACK
6
CONTINUOUS
10
1.09806
20
0.111769
11
1.09823
21
0.110089
0
LINE
8
BLACK
6
CONTINUOUS
10
1.09823
20
0.110089
11
1.09823
21
0.0899114
0
LINE
8
BLACK
6
CONTINUOUS
10
1.09823
20
0.0899114
11
1.09806
21
0.0882313
0
LINE
8
BLACK
6
CONTINUOUS
10
1.09806
20
0.0882313
11
1.09757
21
0.0866157
0
LINE
8
BLACK
6
CONTINUOUS
10
1.09757
20
0.0866157
11
1.09678
21
0.0851267
0
LINE
8
BLACK
6
CONTINUOUS
10
1.09678
20
0.0851267
11
1.09571
21
0.0838217
0
LINE
8
BLACK
6
CONTINUOUS
10
1.09571
20
0.0838217
11
1.0944
21
0.0827506
0
LINE
8
BLACK
6
CONTINUOUS
10
1.0944
20
0.0827506
11
1.09291
21
0.0819548
0
LINE
8
BLACK
6
CONTINUOUS
10
1.09291
20
0.0819548
11
1.0913
21
0.0814647
0
LINE
8
BLACK
6
CONTINUOUS
10
1.0913
20
0.0814647
11
1.08962
21
0.0812992
0
LINE
8
BLACK
6
CONTINUOUS
10
1.08962
20
0.0812992
11
1.07239
21
0.0812992
0
LINE
8
BLACK
6
CONTINUOUS
10
1.07239
20
0.0812992
11
1.07071
21
0.0814647
0
LINE
8
BLACK
6
CONTINUOUS
10
1.07071
20
0.0814647
11
1.0691
21
0.0819548
0
LINE
8
BLACK
6
CONTINUOUS
10
1.0691
20
0.0819548
11
1.06761
21
0.0827506
0
LINE
8
BLACK
6
CONTINUOUS
10
1.06761
20
0.0827506
11
1.0663
21
0.0838217
0
LINE
8
BLACK
6
CONTINUOUS
10
1.0663
20
0.0838217
11
1.06523
21
0.0851267
0
LINE
8
BLACK
6
CONTINUOUS
10
1.06523
20
0.0851267
11
1.06444
21
0.0866157
0
LINE
8
BLACK
6
CONTINUOUS
10
1.06444
20
0.0866157
11
1.06394
21
0.0882313
0
LINE
8
BLACK
6
CONTINUOUS
10
1.06394
20
0.0882313
11
1.06378
21
0.0899114
0
LINE
8
BLACK
6
CONTINUOUS
10
1.06378
20
0.0899114
11
1.06378
21
0.110089
0
LINE
8
BLACK
6
CONTINUOUS
10
1.06378
20
0.110089
11
1.06394
21
0.111769
0
LINE
8
BLACK
6
CONTINUOUS
10
1.06394
20
0.111769
11
1.06444
21
0.113384
0
LINE
8
BLACK
6
CONTINUOUS
10
1.06444
20
0.113384
11
1.06523
21
0.114873
0
LINE
8
BLACK
6
CONTINUOUS
10
1.06523
20
0.114873
11
1.0663
21
0.116178
0
LINE
8
BLACK
6
CONTINUOUS
10
1.0663
20
0.116178
11
1.06761
21
0.117249
0
LINE
8
BLACK
6
CONTINUOUS
10
1.06761
20
0.117249
11
1.0691
21
0.118045
0
LINE
8
BLACK
6
CONTINUOUS
10
1.0691
20
0.118045
11
1.07071
21
0.118535
0
LINE
8
BLACK
6
CONTINUOUS
10
1.07071
20
0.118535
11
1.07239
21
0.118701
0
LINE
8
BLACK
6
CONTINUOUS
10
1.07239
20
0.118701
11
1.08962
21
0.118701
0
LINE
8
BLACK
6
CONTINUOUS
10
1.08962
20
0.118701
11
1.0913
21
0.118535
0
LINE
8
BLACK
6
CONTINUOUS
10
1.02929
20
0.118535
11
1.0309
21
0.118045
0
LINE
8
BLACK
6
CONTINUOUS
10
1.0309
20
0.118045
11
1.03239
21
0.117249
0
LINE
8
BLACK
6
CONTINUOUS
10
1.03239
20
0.117249
11
1.0337
21
0.116178
0
LINE
8
BLACK
6
CONTINUOUS
10
1.0337
20
0.116178
11
1.03477
21
0.114873
0
LINE
8
BLACK
6
CONTINUOUS
10
1.03477
20
0.114873
11
1.03556
21
0.113384
0
LINE
8
BLACK
6
CONTINUOUS
10
1.03556
20
0.113384
11
1.03605
21
0.111769
0
LINE
8
BLACK
6
CONTINUOUS
10
1.03605
20
0.111769
11
1.03622
21
0.110089
0
LINE
8
BLACK
6
CONTINUOUS
10
1.03622
20
0.110089
11
1.03622
21
0.0899114
0
LINE
8
BLACK
6
CONTINUOUS
10
1.03622
20
0.0899114
11
1.03605
21
0.0882313
0
LINE
8
BLACK
6
CONTINUOUS
10
1.03605
20
0.0882313
11
1.03556
21
0.0866157
0
LINE
8
BLACK
6
CONTINUOUS
10
1.03556
20
0.0866157
11
1.03477
21
0.0851267
0
LINE
8
BLACK
6
CONTINUOUS
10
1.03477
20
0.0851267
11
1.0337
21
0.0838217
0
LINE
8
BLACK
6
CONTINUOUS
10
1.0337
20
0.0838217
11
1.03239
21
0.0827506
0
LINE
8
BLACK
6
CONTINUOUS
10
1.03239
20
0.0827506
11
1.0309
21
0.0819548
0
LINE
8
BLACK
6
CONTINUOUS
10
1.0309
20
0.0819548
11
1.02929
21
0.0814647
0
LINE
8
BLACK
6
CONTINUOUS
10
1.02929
20
0.0814647
11
1.02761
21
0.0812992
0
LINE
8
BLACK
6
CONTINUOUS
10
1.02761
20
0.0812992
11
1.01038
21
0.0812992
0
LINE
8
BLACK
6
CONTINUOUS
10
1.01038
20
0.0812992
11
1.0087
21
0.0814647
0
LINE
8
BLACK
6
CONTINUOUS
10
1.0087
20
0.0814647
11
1.00709
21
0.0819548
0
LINE
8
BLACK
6
CONTINUOUS
10
1.00709
20
0.0819548
11
1.0056
21
0.0827506
0
LINE
8
BLACK
6
CONTINUOUS
10
1.0056
20
0.0827506
11
1.00429
21
0.0838217
0
LINE
8
BLACK
6
CONTINUOUS
10
1.00429
20
0.0838217
11
1.00322
21
0.0851267
0
LINE
8
BLACK
6
CONTINUOUS
10
1.00322
20
0.0851267
11
1.00243
21
0.0866157
0
LINE
8
BLACK
6
CONTINUOUS
10
1.00243
20
0.0866157
11
1.00194
21
0.0882313
0
LINE
8
BLACK
6
CONTINUOUS
10
1.00194
20
0.0882313
11
1.00177
21
0.0899114
0
LINE
8
BLACK
6
CONTINUOUS
10
1.00177
20
0.0899114
11
1.00177
21
0.110089
0
LINE
8
BLACK
6
CONTINUOUS
10
1.00177
20
0.110089
11
1.00194
21
0.111769
0
LINE
8
BLACK
6
CONTINUOUS
10
1.00194
20
0.111769
11
1.00243
21
0.113384
0
LINE
8
BLACK
6
CONTINUOUS
10
1.00243
20
0.113384
11
1.00322
21
0.114873
0
LINE
8
BLACK
6
CONTINUOUS
10
1.00322
20
0.114873
11
1.00429
21
0.116178
0
LINE
8
BLACK
6
CONTINUOUS
10
1.00429
20
0.116178
11
1.0056
21
0.117249
0
LINE
8
BLACK
6
CONTINUOUS
10
1.0056
20
0.117249
11
1.00709
21
0.118045
0
LINE
8
BLACK
6
CONTINUOUS
10
1.00709
20
0.118045
11
1.0087
21
0.118535
0
LINE
8
BLACK
6
CONTINUOUS
10
1.0087
20
0.118535
11
1.01038
21
0.118701
0
LINE
8
BLACK
6
CONTINUOUS
10
1.01038
20
0.118701
11
1.02761
21
0.118701
0
LINE
8
BLACK
6
CONTINUOUS
10
1.02761
20
0.118701
11
1.02929
21
0.118535
0
LINE
8
BLACK
6
CONTINUOUS
10
0.872559
20
0.109803
11
0.830827
21
0.109803
0
LINE
8
BLACK
6
CONTINUOUS
10
0.830827
20
0.109803
11
0.830827
21
0.135394
0
LINE
8
BLACK
6
CONTINUOUS
10
0.830827
20
0.135394
11
0.872559
21
0.135394
0
LINE
8
BLACK
6
CONTINUOUS
10
0.872559
20
0.135394
11
0.872559
21
0.109803
0
LINE
8
BLACK
6
CONTINUOUS
10
0.796769
20
0.177059
11
0.798384
21
0.176569
0
LINE
8
BLACK
6
CONTINUOUS
10
0.798384
20
0.176569
11
0.799873
21
0.175773
0
LINE
8
BLACK
6
CONTINUOUS
10
0.799873
20
0.175773
11
0.801178
21
0.174702
0
LINE
8
BLACK
6
CONTINUOUS
10
0.801178
20
0.174702
11
0.802249
21
0.173397
0
LINE
8
BLACK
6
CONTINUOUS
10
0.802249
20
0.173397
11
0.803045
21
0.171908
0
LINE
8
BLACK
6
CONTINUOUS
10
0.803045
20
0.171908
11
0.803535
21
0.170292
0
LINE
8
BLACK
6
CONTINUOUS
10
0.803535
20
0.170292
11
0.803701
21
0.168612
0
LINE
8
BLACK
6
CONTINUOUS
10
0.803701
20
0.168612
11
0.803701
21
0.151388
0
LINE
8
BLACK
6
CONTINUOUS
10
0.803701
20
0.151388
11
0.803535
21
0.149708
0
LINE
8
BLACK
6
CONTINUOUS
10
0.803535
20
0.149708
11
0.803045
21
0.148092
0
LINE
8
BLACK
6
CONTINUOUS
10
0.803045
20
0.148092
11
0.802249
21
0.146603
0
LINE
8
BLACK
6
CONTINUOUS
10
0.802249
20
0.146603
11
0.801178
21
0.145298
0
LINE
8
BLACK
6
CONTINUOUS
10
0.801178
20
0.145298
11
0.799873
21
0.144227
0
LINE
8
BLACK
6
CONTINUOUS
10
0.799873
20
0.144227
11
0.798384
21
0.143431
0
LINE
8
BLACK
6
CONTINUOUS
10
0.798384
20
0.143431
11
0.796769
21
0.142941
0
LINE
8
BLACK
6
CONTINUOUS
10
0.796769
20
0.142941
11
0.795089
21
0.142776
0
LINE
8
BLACK
6
CONTINUOUS
10
0.795089
20
0.142776
11
0.774911
21
0.142776
0
LINE
8
BLACK
6
CONTINUOUS
10
0.774911
20
0.142776
11
0.773231
21
0.142941
0
LINE
8
BLACK
6
CONTINUOUS
10
0.773231
20
0.142941
11
0.771616
21
0.143431
0
LINE
8
BLACK
6
CONTINUOUS
10
0.771616
20
0.143431
11
0.770127
21
0.144227
0
LINE
8
BLACK
6
CONTINUOUS
10
0.770127
20
0.144227
11
0.768822
21
0.145298
0
LINE
8
BLACK
6
CONTINUOUS
10
0.768822
20
0.145298
11
0.767751
21
0.146603
0
LINE
8
BLACK
6
CONTINUOUS
10
0.767751
20
0.146603
11
0.766955
21
0.148092
0
LINE
8
BLACK
6
CONTINUOUS
10
0.766955
20
0.148092
11
0.766465
21
0.149708
0
LINE
8
BLACK
6
CONTINUOUS
10
0.766465
20
0.149708
11
0.766299
21
0.151388
0
LINE
8
BLACK
6
CONTINUOUS
10
0.766299
20
0.151388
11
0.766299
21
0.168612
0
LINE
8
BLACK
6
CONTINUOUS
10
0.766299
20
0.168612
11
0.766465
21
0.170292
0
LINE
8
BLACK
6
CONTINUOUS
10
0.766465
20
0.170292
11
0.766955
21
0.171908
0
LINE
8
BLACK
6
CONTINUOUS
10
0.766955
20
0.171908
11
0.767751
21
0.173397
0
LINE
8
BLACK
6
CONTINUOUS
10
0.767751
20
0.173397
11
0.768822
21
0.174702
0
LINE
8
BLACK
6
CONTINUOUS
10
0.768822
20
0.174702
11
0.770127
21
0.175773
0
LINE
8
BLACK
6
CONTINUOUS
10
0.770127
20
0.175773
11
0.771616
21
0.176569
0
LINE
8
BLACK
6
CONTINUOUS
10
0.771616
20
0.176569
11
0.773231
21
0.177059
0
LINE
8
BLACK
6
CONTINUOUS
10
0.773231
20
0.177059
11
0.774911
21
0.177224
0
LINE
8
BLACK
6
CONTINUOUS
10
0.774911
20
0.177224
11
0.795089
21
0.177224
0
LINE
8
BLACK
6
CONTINUOUS
10
0.795089
20
0.177224
11
0.796769
21
0.177059
0
LINE
8
BLACK
6
CONTINUOUS
10
0.872559
20
0.147205
11
0.830827
21
0.147205
0
LINE
8
BLACK
6
CONTINUOUS
10
0.830827
20
0.147205
11
0.830827
21
0.172795
0
LINE
8
BLACK
6
CONTINUOUS
10
0.830827
20
0.172795
11
0.872559
21
0.172795
0
LINE
8
BLACK
6
CONTINUOUS
10
0.872559
20
0.172795
11
0.872559
21
0.147205
0
LINE
8
BLACK
6
CONTINUOUS
10
0.959173
20
0.147205
11
0.917441
21
0.147205
0
LINE
8
BLACK
6
CONTINUOUS
10
0.917441
20
0.147205
11
0.917441
21
0.172795
0
LINE
8
BLACK
6
CONTINUOUS
10
0.917441
20
0.172795
11
0.959173
21
0.172795
0
LINE
8
BLACK
6
CONTINUOUS
10
0.959173
20
0.172795
11
0.959173
21
0.147205
0
LINE
8
BLACK
6
CONTINUOUS
10
0.107677
20
0.162205
11
-0.0576772
21
0.162205
0
LINE
8
BLACK
6
CONTINUOUS
10
-0.0576772
20
0.162205
11
-0.0576772
21
0.215354
0
LINE
8
BLACK
6
CONTINUOUS
10
-0.0576772
20
0.215354
11
0.107677
21
0.215354
0
LINE
8
BLACK
6
CONTINUOUS
10
0.107677
20
0.215354
11
0.107677
21
0.162205
0
LINE
8
BLACK
6
CONTINUOUS
10
0.221769
20
0.201055
11
0.223384
21
0.200565
0
LINE
8
BLACK
6
CONTINUOUS
10
0.223384
20
0.200565
11
0.224873
21
0.199769
0
LINE
8
BLACK
6
CONTINUOUS
10
0.224873
20
0.199769
11
0.226178
21
0.198698
0
LINE
8
BLACK
6
CONTINUOUS
10
0.226178
20
0.198698
11
0.227249
21
0.197393
0
LINE
8
BLACK
6
CONTINUOUS
10
0.227249
20
0.197393
11
0.228045
21
0.195904
0
LINE
8
BLACK
6
CONTINUOUS
10
0.228045
20
0.195904
11
0.228535
21
0.194288
0
LINE
8
BLACK
6
CONTINUOUS
10
0.228535
20
0.194288
11
0.228701
21
0.192608
0
LINE
8
BLACK
6
CONTINUOUS
10
0.228701
20
0.192608
11
0.228701
21
0.175384
0
LINE
8
BLACK
6
CONTINUOUS
10
0.228701
20
0.175384
11
0.228535
21
0.173704
0
LINE
8
BLACK
6
CONTINUOUS
10
0.228535
20
0.173704
11
0.228045
21
0.172088
0
LINE
8
BLACK
6
CONTINUOUS
10
0.228045
20
0.172088
11
0.227249
21
0.170599
0
LINE
8
BLACK
6
CONTINUOUS
10
0.227249
20
0.170599
11
0.226178
21
0.169294
0
LINE
8
BLACK
6
CONTINUOUS
10
0.226178
20
0.169294
11
0.224873
21
0.168223
0
LINE
8
BLACK
6
CONTINUOUS
10
0.224873
20
0.168223
11
0.223384
21
0.167427
0
LINE
8
BLACK
6
CONTINUOUS
10
0.223384
20
0.167427
11
0.221769
21
0.166937
0
LINE
8
BLACK
6
CONTINUOUS
10
0.221769
20
0.166937
11
0.220089
21
0.166772
0
LINE
8
BLACK
6
CONTINUOUS
10
0.220089
20
0.166772
11
0.199911
21
0.166772
0
LINE
8
BLACK
6
CONTINUOUS
10
0.199911
20
0.166772
11
0.198231
21
0.166937
0
LINE
8
BLACK
6
CONTINUOUS
10
0.198231
20
0.166937
11
0.196616
21
0.167427
0
LINE
8
BLACK
6
CONTINUOUS
10
0.196616
20
0.167427
11
0.195127
21
0.168223
0
LINE
8
BLACK
6
CONTINUOUS
10
0.195127
20
0.168223
11
0.193822
21
0.169294
0
LINE
8
BLACK
6
CONTINUOUS
10
0.193822
20
0.169294
11
0.192751
21
0.170599
0
LINE
8
BLACK
6
CONTINUOUS
10
0.192751
20
0.170599
11
0.191955
21
0.172088
0
LINE
8
BLACK
6
CONTINUOUS
10
0.191955
20
0.172088
11
0.191465
21
0.173704
0
LINE
8
BLACK
6
CONTINUOUS
10
0.191465
20
0.173704
11
0.191299
21
0.175384
0
LINE
8
BLACK
6
CONTINUOUS
10
0.191299
20
0.175384
11
0.191299
21
0.192608
0
LINE
8
BLACK
6
CONTINUOUS
10
0.191299
20
0.192608
11
0.191465
21
0.194288
0
LINE
8
BLACK
6
CONTINUOUS
10
0.191465
20
0.194288
11
0.191955
21
0.195904
0
LINE
8
BLACK
6
CONTINUOUS
10
0.191955
20
0.195904
11
0.192751
21
0.197393
0
LINE
8
BLACK
6
CONTINUOUS
10
0.192751
20
0.197393
11
0.193822
21
0.198698
0
LINE
8
BLACK
6
CONTINUOUS
10
0.193822
20
0.198698
11
0.195127
21
0.199769
0
LINE
8
BLACK
6
CONTINUOUS
10
0.195127
20
0.199769
11
0.196616
21
0.200565
0
LINE
8
BLACK
6
CONTINUOUS
10
0.196616
20
0.200565
11
0.198231
21
0.201055
0
LINE
8
BLACK
6
CONTINUOUS
10
0.198231
20
0.201055
11
0.199911
21
0.20122
0
LINE
8
BLACK
6
CONTINUOUS
10
0.199911
20
0.20122
11
0.220089
21
0.20122
0
LINE
8
BLACK
6
CONTINUOUS
10
0.220089
20
0.20122
11
0.221769
21
0.201055
0
LINE
8
BLACK
6
CONTINUOUS
10
0.166769
20
0.201055
11
0.168384
21
0.200565
0
LINE
8
BLACK
6
CONTINUOUS
10
0.168384
20
0.200565
11
0.169873
21
0.199769
0
LINE
8
BLACK
6
CONTINUOUS
10
0.169873
20
0.199769
11
0.171178
21
0.198698
0
LINE
8
BLACK
6
CONTINUOUS
10
0.171178
20
0.198698
11
0.172249
21
0.197393
0
LINE
8
BLACK
6
CONTINUOUS
10
0.172249
20
0.197393
11
0.173045
21
0.195904
0
LINE
8
BLACK
6
CONTINUOUS
10
0.173045
20
0.195904
11
0.173535
21
0.194288
0
LINE
8
BLACK
6
CONTINUOUS
10
0.173535
20
0.194288
11
0.173701
21
0.192608
0
LINE
8
BLACK
6
CONTINUOUS
10
0.173701
20
0.192608
11
0.173701
21
0.175384
0
LINE
8
BLACK
6
CONTINUOUS
10
0.173701
20
0.175384
11
0.173535
21
0.173704
0
LINE
8
BLACK
6
CONTINUOUS
10
0.173535
20
0.173704
11
0.173045
21
0.172088
0
LINE
8
BLACK
6
CONTINUOUS
10
0.173045
20
0.172088
11
0.172249
21
0.170599
0
LINE
8
BLACK
6
CONTINUOUS
10
0.172249
20
0.170599
11
0.171178
21
0.169294
0
LINE
8
BLACK
6
CONTINUOUS
10
0.171178
20
0.169294
11
0.169873
21
0.168223
0
LINE
8
BLACK
6
CONTINUOUS
10
0.169873
20
0.168223
11
0.168384
21
0.167427
0
LINE
8
BLACK
6
CONTINUOUS
10
0.168384
20
0.167427
11
0.166769
21
0.166937
0
LINE
8
BLACK
6
CONTINUOUS
10
0.166769
20
0.166937
11
0.165089
21
0.166772
0
LINE
8
BLACK
6
CONTINUOUS
10
0.165089
20
0.166772
11
0.144911
21
0.166772
0
LINE
8
BLACK
6
CONTINUOUS
10
0.144911
20
0.166772
11
0.143231
21
0.166937
0
LINE
8
BLACK
6
CONTINUOUS
10
0.143231
20
0.166937
11
0.141616
21
0.167427
0
LINE
8
BLACK
6
CONTINUOUS
10
0.141616
20
0.167427
11
0.140127
21
0.168223
0
LINE
8
BLACK
6
CONTINUOUS
10
0.140127
20
0.168223
11
0.138822
21
0.169294
0
LINE
8
BLACK
6
CONTINUOUS
10
0.138822
20
0.169294
11
0.137751
21
0.170599
0
LINE
8
BLACK
6
CONTINUOUS
10
0.137751
20
0.170599
11
0.136955
21
0.172088
0
LINE
8
BLACK
6
CONTINUOUS
10
0.136955
20
0.172088
11
0.136465
21
0.173704
0
LINE
8
BLACK
6
CONTINUOUS
10
0.136465
20
0.173704
11
0.136299
21
0.175384
0
LINE
8
BLACK
6
CONTINUOUS
10
0.136299
20
0.175384
11
0.136299
21
0.192608
0
LINE
8
BLACK
6
CONTINUOUS
10
0.136299
20
0.192608
11
0.136465
21
0.194288
0
LINE
8
BLACK
6
CONTINUOUS
10
0.136465
20
0.194288
11
0.136955
21
0.195904
0
LINE
8
BLACK
6
CONTINUOUS
10
0.136955
20
0.195904
11
0.137751
21
0.197393
0
LINE
8
BLACK
6
CONTINUOUS
10
0.137751
20
0.197393
11
0.138822
21
0.198698
0
LINE
8
BLACK
6
CONTINUOUS
10
0.138822
20
0.198698
11
0.140127
21
0.199769
0
LINE
8
BLACK
6
CONTINUOUS
10
0.140127
20
0.199769
11
0.141616
21
0.200565
0
LINE
8
BLACK
6
CONTINUOUS
10
0.141616
20
0.200565
11
0.143231
21
0.201055
0
LINE
8
BLACK
6
CONTINUOUS
10
0.143231
20
0.201055
11
0.144911
21
0.20122
0
LINE
8
BLACK
6
CONTINUOUS
10
0.144911
20
0.20122
11
0.165089
21
0.20122
0
LINE
8
BLACK
6
CONTINUOUS
10
0.165089
20
0.20122
11
0.166769
21
0.201055
0
LINE
8
BLACK
6
CONTINUOUS
10
0.699288
20
0.238535
11
0.700904
21
0.238045
0
LINE
8
BLACK
6
CONTINUOUS
10
0.700904
20
0.238045
11
0.702393
21
0.237249
0
LINE
8
BLACK
6
CONTINUOUS
10
0.702393
20
0.237249
11
0.703698
21
0.236178
0
LINE
8
BLACK
6
CONTINUOUS
10
0.703698
20
0.236178
11
0.704769
21
0.234873
0
LINE
8
BLACK
6
CONTINUOUS
10
0.704769
20
0.234873
11
0.705565
21
0.233384
0
LINE
8
BLACK
6
CONTINUOUS
10
0.705565
20
0.233384
11
0.706055
21
0.231769
0
LINE
8
BLACK
6
CONTINUOUS
10
0.706055
20
0.231769
11
0.70622
21
0.230089
0
LINE
8
BLACK
6
CONTINUOUS
10
0.70622
20
0.230089
11
0.70622
21
0.209911
0
LINE
8
BLACK
6
CONTINUOUS
10
0.70622
20
0.209911
11
0.706055
21
0.208231
0
LINE
8
BLACK
6
CONTINUOUS
10
0.706055
20
0.208231
11
0.705565
21
0.206616
0
LINE
8
BLACK
6
CONTINUOUS
10
0.705565
20
0.206616
11
0.704769
21
0.205127
0
LINE
8
BLACK
6
CONTINUOUS
10
0.704769
20
0.205127
11
0.703698
21
0.203822
0
LINE
8
BLACK
6
CONTINUOUS
10
0.703698
20
0.203822
11
0.702393
21
0.202751
0
LINE
8
BLACK
6
CONTINUOUS
10
0.702393
20
0.202751
11
0.700904
21
0.201955
0
LINE
8
BLACK
6
CONTINUOUS
10
0.700904
20
0.201955
11
0.699288
21
0.201465
0
LINE
8
BLACK
6
CONTINUOUS
10
0.699288
20
0.201465
11
0.697608
21
0.201299
0
LINE
8
BLACK
6
CONTINUOUS
10
0.697608
20
0.201299
11
0.680384
21
0.201299
0
LINE
8
BLACK
6
CONTINUOUS
10
0.680384
20
0.201299
11
0.678704
21
0.201465
0
LINE
8
BLACK
6
CONTINUOUS
10
0.678704
20
0.201465
11
0.677088
21
0.201955
0
LINE
8
BLACK
6
CONTINUOUS
10
0.677088
20
0.201955
11
0.675599
21
0.202751
0
LINE
8
BLACK
6
CONTINUOUS
10
0.675599
20
0.202751
11
0.674294
21
0.203822
0
LINE
8
BLACK
6
CONTINUOUS
10
0.674294
20
0.203822
11
0.673223
21
0.205127
0
LINE
8
BLACK
6
CONTINUOUS
10
0.673223
20
0.205127
11
0.672427
21
0.206616
0
LINE
8
BLACK
6
CONTINUOUS
10
0.672427
20
0.206616
11
0.671937
21
0.208231
0
LINE
8
BLACK
6
CONTINUOUS
10
0.671937
20
0.208231
11
0.671772
21
0.209911
0
LINE
8
BLACK
6
CONTINUOUS
10
0.671772
20
0.209911
11
0.671772
21
0.230089
0
LINE
8
BLACK
6
CONTINUOUS
10
0.671772
20
0.230089
11
0.671937
21
0.231769
0
LINE
8
BLACK
6
CONTINUOUS
10
0.671937
20
0.231769
11
0.672427
21
0.233384
0
LINE
8
BLACK
6
CONTINUOUS
10
0.672427
20
0.233384
11
0.673223
21
0.234873
0
LINE
8
BLACK
6
CONTINUOUS
10
0.673223
20
0.234873
11
0.674294
21
0.236178
0
LINE
8
BLACK
6
CONTINUOUS
10
0.674294
20
0.236178
11
0.675599
21
0.237249
0
LINE
8
BLACK
6
CONTINUOUS
10
0.675599
20
0.237249
11
0.677088
21
0.238045
0
LINE
8
BLACK
6
CONTINUOUS
10
0.677088
20
0.238045
11
0.678704
21
0.238535
0
LINE
8
BLACK
6
CONTINUOUS
10
0.678704
20
0.238535
11
0.680384
21
0.238701
0
LINE
8
BLACK
6
CONTINUOUS
10
0.680384
20
0.238701
11
0.697608
21
0.238701
0
LINE
8
BLACK
6
CONTINUOUS
10
0.697608
20
0.238701
11
0.699288
21
0.238535
0
LINE
8
BLACK
6
CONTINUOUS
10
0.761296
20
0.238535
11
0.762912
21
0.238045
0
LINE
8
BLACK
6
CONTINUOUS
10
0.762912
20
0.238045
11
0.764401
21
0.237249
0
LINE
8
BLACK
6
CONTINUOUS
10
0.764401
20
0.237249
11
0.765706
21
0.236178
0
LINE
8
BLACK
6
CONTINUOUS
10
0.765706
20
0.236178
11
0.766777
21
0.234873
0
LINE
8
BLACK
6
CONTINUOUS
10
0.766777
20
0.234873
11
0.767573
21
0.233384
0
LINE
8
BLACK
6
CONTINUOUS
10
0.767573
20
0.233384
11
0.768063
21
0.231769
0
LINE
8
BLACK
6
CONTINUOUS
10
0.768063
20
0.231769
11
0.768228
21
0.230089
0
LINE
8
BLACK
6
CONTINUOUS
10
0.768228
20
0.230089
11
0.768228
21
0.209911
0
LINE
8
BLACK
6
CONTINUOUS
10
0.768228
20
0.209911
11
0.768063
21
0.208231
0
LINE
8
BLACK
6
CONTINUOUS
10
0.768063
20
0.208231
11
0.767573
21
0.206616
0
LINE
8
BLACK
6
CONTINUOUS
10
0.767573
20
0.206616
11
0.766777
21
0.205127
0
LINE
8
BLACK
6
CONTINUOUS
10
0.766777
20
0.205127
11
0.765706
21
0.203822
0
LINE
8
BLACK
6
CONTINUOUS
10
0.765706
20
0.203822
11
0.764401
21
0.202751
0
LINE
8
BLACK
6
CONTINUOUS
10
0.764401
20
0.202751
11
0.762912
21
0.201955
0
LINE
8
BLACK
6
CONTINUOUS
10
0.762912
20
0.201955
11
0.761296
21
0.201465
0
LINE
8
BLACK
6
CONTINUOUS
10
0.761296
20
0.201465
11
0.759616
21
0.201299
0
LINE
8
BLACK
6
CONTINUOUS
10
0.759616
20
0.201299
11
0.742392
21
0.201299
0
LINE
8
BLACK
6
CONTINUOUS
10
0.742392
20
0.201299
11
0.740712
21
0.201465
0
LINE
8
BLACK
6
CONTINUOUS
10
0.740712
20
0.201465
11
0.739096
21
0.201955
0
LINE
8
BLACK
6
CONTINUOUS
10
0.739096
20
0.201955
11
0.737607
21
0.202751
0
LINE
8
BLACK
6
CONTINUOUS
10
0.737607
20
0.202751
11
0.736302
21
0.203822
0
LINE
8
BLACK
6
CONTINUOUS
10
0.736302
20
0.203822
11
0.735231
21
0.205127
0
LINE
8
BLACK
6
CONTINUOUS
10
0.735231
20
0.205127
11
0.734435
21
0.206616
0
LINE
8
BLACK
6
CONTINUOUS
10
0.734435
20
0.206616
11
0.733945
21
0.208231
0
LINE
8
BLACK
6
CONTINUOUS
10
0.733945
20
0.208231
11
0.73378
21
0.209911
0
LINE
8
BLACK
6
CONTINUOUS
10
0.73378
20
0.209911
11
0.73378
21
0.230089
0
LINE
8
BLACK
6
CONTINUOUS
10
0.73378
20
0.230089
11
0.733945
21
0.231769
0
LINE
8
BLACK
6
CONTINUOUS
10
0.733945
20
0.231769
11
0.734435
21
0.233384
0
LINE
8
BLACK
6
CONTINUOUS
10
0.734435
20
0.233384
11
0.735231
21
0.234873
0
LINE
8
BLACK
6
CONTINUOUS
10
0.735231
20
0.234873
11
0.736302
21
0.236178
0
LINE
8
BLACK
6
CONTINUOUS
10
0.736302
20
0.236178
11
0.737607
21
0.237249
0
LINE
8
BLACK
6
CONTINUOUS
10
0.737607
20
0.237249
11
0.739096
21
0.238045
0
LINE
8
BLACK
6
CONTINUOUS
10
0.739096
20
0.238045
11
0.740712
21
0.238535
0
LINE
8
BLACK
6
CONTINUOUS
10
0.740712
20
0.238535
11
0.742392
21
0.238701
0
LINE
8
BLACK
6
CONTINUOUS
10
0.742392
20
0.238701
11
0.759616
21
0.238701
0
LINE
8
BLACK
6
CONTINUOUS
10
0.759616
20
0.238701
11
0.761296
21
0.238535
0
LINE
8
BLACK
6
CONTINUOUS
10
0.0496063
20
0.22126
11
-0.0370079
21
0.22126
0
LINE
8
BLACK
6
CONTINUOUS
10
-0.0370079
20
0.22126
11
-0.0370079
21
0.262598
0
LINE
8
BLACK
6
CONTINUOUS
10
-0.0370079
20
0.262598
11
0.0496063
21
0.262598
0
LINE
8
BLACK
6
CONTINUOUS
10
0.0496063
20
0.262598
11
0.0496063
21
0.22126
0
LINE
8
BLACK
6
CONTINUOUS
10
0.166769
20
0.263063
11
0.168384
21
0.262573
0
LINE
8
BLACK
6
CONTINUOUS
10
0.168384
20
0.262573
11
0.169873
21
0.261777
0
LINE
8
BLACK
6
CONTINUOUS
10
0.169873
20
0.261777
11
0.171178
21
0.260706
0
LINE
8
BLACK
6
CONTINUOUS
10
0.171178
20
0.260706
11
0.172249
21
0.259401
0
LINE
8
BLACK
6
CONTINUOUS
10
0.172249
20
0.259401
11
0.173045
21
0.257912
0
LINE
8
BLACK
6
CONTINUOUS
10
0.173045
20
0.257912
11
0.173535
21
0.256296
0
LINE
8
BLACK
6
CONTINUOUS
10
0.173535
20
0.256296
11
0.173701
21
0.254616
0
LINE
8
BLACK
6
CONTINUOUS
10
0.173701
20
0.254616
11
0.173701
21
0.237392
0
LINE
8
BLACK
6
CONTINUOUS
10
0.173701
20
0.237392
11
0.173535
21
0.235712
0
LINE
8
BLACK
6
CONTINUOUS
10
0.173535
20
0.235712
11
0.173045
21
0.234096
0
LINE
8
BLACK
6
CONTINUOUS
10
0.173045
20
0.234096
11
0.172249
21
0.232607
0
LINE
8
BLACK
6
CONTINUOUS
10
0.172249
20
0.232607
11
0.171178
21
0.231302
0
LINE
8
BLACK
6
CONTINUOUS
10
0.171178
20
0.231302
11
0.169873
21
0.230231
0
LINE
8
BLACK
6
CONTINUOUS
10
0.169873
20
0.230231
11
0.168384
21
0.229435
0
LINE
8
BLACK
6
CONTINUOUS
10
0.168384
20
0.229435
11
0.166769
21
0.228945
0
LINE
8
BLACK
6
CONTINUOUS
10
0.166769
20
0.228945
11
0.165089
21
0.22878
0
LINE
8
BLACK
6
CONTINUOUS
10
0.165089
20
0.22878
11
0.144911
21
0.22878
0
LINE
8
BLACK
6
CONTINUOUS
10
0.144911
20
0.22878
11
0.143231
21
0.228945
0
LINE
8
BLACK
6
CONTINUOUS
10
0.143231
20
0.228945
11
0.141616
21
0.229435
0
LINE
8
BLACK
6
CONTINUOUS
10
0.141616
20
0.229435
11
0.140127
21
0.230231
0
LINE
8
BLACK
6
CONTINUOUS
10
0.140127
20
0.230231
11
0.138822
21
0.231302
0
LINE
8
BLACK
6
CONTINUOUS
10
0.138822
20
0.231302
11
0.137751
21
0.232607
0
LINE
8
BLACK
6
CONTINUOUS
10
0.137751
20
0.232607
11
0.136955
21
0.234096
0
LINE
8
BLACK
6
CONTINUOUS
10
0.136955
20
0.234096
11
0.136465
21
0.235712
0
LINE
8
BLACK
6
CONTINUOUS
10
0.136465
20
0.235712
11
0.136299
21
0.237392
0
LINE
8
BLACK
6
CONTINUOUS
10
0.136299
20
0.237392
11
0.136299
21
0.254616
0
LINE
8
BLACK
6
CONTINUOUS
10
0.136299
20
0.254616
11
0.136465
21
0.256296
0
LINE
8
BLACK
6
CONTINUOUS
10
0.136465
20
0.256296
11
0.136955
21
0.257912
0
LINE
8
BLACK
6
CONTINUOUS
10
0.136955
20
0.257912
11
0.137751
21
0.259401
0
LINE
8
BLACK
6
CONTINUOUS
10
0.137751
20
0.259401
11
0.138822
21
0.260706
0
LINE
8
BLACK
6
CONTINUOUS
10
0.138822
20
0.260706
11
0.140127
21
0.261777
0
LINE
8
BLACK
6
CONTINUOUS
10
0.140127
20
0.261777
11
0.141616
21
0.262573
0
LINE
8
BLACK
6
CONTINUOUS
10
0.141616
20
0.262573
11
0.143231
21
0.263063
0
LINE
8
BLACK
6
CONTINUOUS
10
0.143231
20
0.263063
11
0.144911
21
0.263228
0
LINE
8
BLACK
6
CONTINUOUS
10
0.144911
20
0.263228
11
0.165089
21
0.263228
0
LINE
8
BLACK
6
CONTINUOUS
10
0.165089
20
0.263228
11
0.166769
21
0.263063
0
LINE
8
BLACK
6
CONTINUOUS
10
0.221769
20
0.263063
11
0.223384
21
0.262573
0
LINE
8
BLACK
6
CONTINUOUS
10
0.223384
20
0.262573
11
0.224873
21
0.261777
0
LINE
8
BLACK
6
CONTINUOUS
10
0.224873
20
0.261777
11
0.226178
21
0.260706
0
LINE
8
BLACK
6
CONTINUOUS
10
0.226178
20
0.260706
11
0.227249
21
0.259401
0
LINE
8
BLACK
6
CONTINUOUS
10
0.227249
20
0.259401
11
0.228045
21
0.257912
0
LINE
8
BLACK
6
CONTINUOUS
10
0.228045
20
0.257912
11
0.228535
21
0.256296
0
LINE
8
BLACK
6
CONTINUOUS
10
0.228535
20
0.256296
11
0.228701
21
0.254616
0
LINE
8
BLACK
6
CONTINUOUS
10
0.228701
20
0.254616
11
0.228701
21
0.237392
0
LINE
8
BLACK
6
CONTINUOUS
10
0.228701
20
0.237392
11
0.228535
21
0.235712
0
LINE
8
BLACK
6
CONTINUOUS
10
0.228535
20
0.235712
11
0.228045
21
0.234096
0
LINE
8
BLACK
6
CONTINUOUS
10
0.228045
20
0.234096
11
0.227249
21
0.232607
0
LINE
8
BLACK
6
CONTINUOUS
10
0.227249
20
0.232607
11
0.226178
21
0.231302
0
LINE
8
BLACK
6
CONTINUOUS
10
0.226178
20
0.231302
11
0.224873
21
0.230231
0
LINE
8
BLACK
6
CONTINUOUS
10
0.224873
20
0.230231
11
0.223384
21
0.229435
0
LINE
8
BLACK
6
CONTINUOUS
10
0.223384
20
0.229435
11
0.221769
21
0.228945
0
LINE
8
BLACK
6
CONTINUOUS
10
0.221769
20
0.228945
11
0.220089
21
0.22878
0
LINE
8
BLACK
6
CONTINUOUS
10
0.220089
20
0.22878
11
0.199911
21
0.22878
0
LINE
8
BLACK
6
CONTINUOUS
10
0.199911
20
0.22878
11
0.198231
21
0.228945
0
LINE
8
BLACK
6
CONTINUOUS
10
0.198231
20
0.228945
11
0.196616
21
0.229435
0
LINE
8
BLACK
6
CONTINUOUS
10
0.196616
20
0.229435
11
0.195127
21
0.230231
0
LINE
8
BLACK
6
CONTINUOUS
10
0.195127
20
0.230231
11
0.193822
21
0.231302
0
LINE
8
BLACK
6
CONTINUOUS
10
0.193822
20
0.231302
11
0.192751
21
0.232607
0
LINE
8
BLACK
6
CONTINUOUS
10
0.192751
20
0.232607
11
0.191955
21
0.234096
0
LINE
8
BLACK
6
CONTINUOUS
10
0.191955
20
0.234096
11
0.191465
21
0.235712
0
LINE
8
BLACK
6
CONTINUOUS
10
0.191465
20
0.235712
11
0.191299
21
0.237392
0
LINE
8
BLACK
6
CONTINUOUS
10
0.191299
20
0.237392
11
0.191299
21
0.254616
0
LINE
8
BLACK
6
CONTINUOUS
10
0.191299
20
0.254616
11
0.191465
21
0.256296
0
LINE
8
BLACK
6
CONTINUOUS
10
0.191465
20
0.256296
11
0.191955
21
0.257912
0
LINE
8
BLACK
6
CONTINUOUS
10
0.191955
20
0.257912
11
0.192751
21
0.259401
0
LINE
8
BLACK
6
CONTINUOUS
10
0.192751
20
0.259401
11
0.193822
21
0.260706
0
LINE
8
BLACK
6
CONTINUOUS
10
0.193822
20
0.260706
11
0.195127
21
0.261777
0
LINE
8
BLACK
6
CONTINUOUS
10
0.195127
20
0.261777
11
0.196616
21
0.262573
0
LINE
8
BLACK
6
CONTINUOUS
10
0.196616
20
0.262573
11
0.198231
21
0.263063
0
LINE
8
BLACK
6
CONTINUOUS
10
0.198231
20
0.263063
11
0.199911
21
0.263228
0
LINE
8
BLACK
6
CONTINUOUS
10
0.199911
20
0.263228
11
0.220089
21
0.263228
0
LINE
8
BLACK
6
CONTINUOUS
10
0.220089
20
0.263228
11
0.221769
21
0.263063
0
LINE
8
BLACK
6
CONTINUOUS
10
0.832982
20
0.251734
11
0.833352
21
0.251622
0
LINE
8
BLACK
6
CONTINUOUS
10
0.833352
20
0.251622
11
0.833692
21
0.25144
0
LINE
8
BLACK
6
CONTINUOUS
10
0.833692
20
0.25144
11
0.83399
21
0.251195
0
LINE
8
BLACK
6
CONTINUOUS
10
0.83399
20
0.251195
11
0.834235
21
0.250897
0
LINE
8
BLACK
6
CONTINUOUS
10
0.834235
20
0.250897
11
0.834417
21
0.250556
0
LINE
8
BLACK
6
CONTINUOUS
10
0.834417
20
0.250556
11
0.834529
21
0.250187
0
LINE
8
BLACK
6
CONTINUOUS
10
0.834529
20
0.250187
11
0.834567
21
0.249803
0
LINE
8
BLACK
6
CONTINUOUS
10
0.834567
20
0.249803
11
0.834567
21
0.232087
0
LINE
8
BLACK
6
CONTINUOUS
10
0.834567
20
0.232087
11
0.834529
21
0.231703
0
LINE
8
BLACK
6
CONTINUOUS
10
0.834529
20
0.231703
11
0.834417
21
0.231333
0
LINE
8
BLACK
6
CONTINUOUS
10
0.834417
20
0.231333
11
0.834235
21
0.230993
0
LINE
8
BLACK
6
CONTINUOUS
10
0.834235
20
0.230993
11
0.83399
21
0.230695
0
LINE
8
BLACK
6
CONTINUOUS
10
0.83399
20
0.230695
11
0.833692
21
0.23045
0
LINE
8
BLACK
6
CONTINUOUS
10
0.833692
20
0.23045
11
0.833352
21
0.230268
0
LINE
8
BLACK
6
CONTINUOUS
10
0.833352
20
0.230268
11
0.832982
21
0.230156
0
LINE
8
BLACK
6
CONTINUOUS
10
0.832982
20
0.230156
11
0.832598
21
0.230118
0
LINE
8
BLACK
6
CONTINUOUS
10
0.832598
20
0.230118
11
0.828661
21
0.230118
0
LINE
8
BLACK
6
CONTINUOUS
10
0.828661
20
0.230118
11
0.828277
21
0.230156
0
LINE
8
BLACK
6
CONTINUOUS
10
0.828277
20
0.230156
11
0.827908
21
0.230268
0
LINE
8
BLACK
6
CONTINUOUS
10
0.827908
20
0.230268
11
0.827568
21
0.23045
0
LINE
8
BLACK
6
CONTINUOUS
10
0.827568
20
0.23045
11
0.827269
21
0.230695
0
LINE
8
BLACK
6
CONTINUOUS
10
0.827269
20
0.230695
11
0.827025
21
0.230993
0
LINE
8
BLACK
6
CONTINUOUS
10
0.827025
20
0.230993
11
0.826843
21
0.231333
0
LINE
8
BLACK
6
CONTINUOUS
10
0.826843
20
0.231333
11
0.826731
21
0.231703
0
LINE
8
BLACK
6
CONTINUOUS
10
0.826731
20
0.231703
11
0.826693
21
0.232087
0
LINE
8
BLACK
6
CONTINUOUS
10
0.826693
20
0.232087
11
0.826693
21
0.249803
0
LINE
8
BLACK
6
CONTINUOUS
10
0.826693
20
0.249803
11
0.826731
21
0.250187
0
LINE
8
BLACK
6
CONTINUOUS
10
0.826731
20
0.250187
11
0.826843
21
0.250556
0
LINE
8
BLACK
6
CONTINUOUS
10
0.826843
20
0.250556
11
0.827025
21
0.250897
0
LINE
8
BLACK
6
CONTINUOUS
10
0.827025
20
0.250897
11
0.827269
21
0.251195
0
LINE
8
BLACK
6
CONTINUOUS
10
0.827269
20
0.251195
11
0.827568
21
0.25144
0
LINE
8
BLACK
6
CONTINUOUS
10
0.827568
20
0.25144
11
0.827908
21
0.251622
0
LINE
8
BLACK
6
CONTINUOUS
10
0.827908
20
0.251622
11
0.828277
21
0.251734
0
LINE
8
BLACK
6
CONTINUOUS
10
0.828277
20
0.251734
11
0.828661
21
0.251772
0
LINE
8
BLACK
6
CONTINUOUS
10
0.828661
20
0.251772
11
0.832598
21
0.251772
0
LINE
8
BLACK
6
CONTINUOUS
10
0.832598
20
0.251772
11
0.832982
21
0.251734
0
LINE
8
BLACK
6
CONTINUOUS
10
0.911723
20
0.251734
11
0.912092
21
0.251622
0
LINE
8
BLACK
6
CONTINUOUS
10
0.912092
20
0.251622
11
0.912432
21
0.25144
0
LINE
8
BLACK
6
CONTINUOUS
10
0.912432
20
0.25144
11
0.912731
21
0.251195
0
LINE
8
BLACK
6
CONTINUOUS
10
0.912731
20
0.251195
11
0.912975
21
0.250897
0
LINE
8
BLACK
6
CONTINUOUS
10
0.912975
20
0.250897
11
0.913157
21
0.250556
0
LINE
8
BLACK
6
CONTINUOUS
10
0.913157
20
0.250556
11
0.913269
21
0.250187
0
LINE
8
BLACK
6
CONTINUOUS
10
0.913269
20
0.250187
11
0.913307
21
0.249803
0
LINE
8
BLACK
6
CONTINUOUS
10
0.913307
20
0.249803
11
0.913307
21
0.232087
0
LINE
8
BLACK
6
CONTINUOUS
10
0.913307
20
0.232087
11
0.913269
21
0.231703
0
LINE
8
BLACK
6
CONTINUOUS
10
0.913269
20
0.231703
11
0.913157
21
0.231333
0
LINE
8
BLACK
6
CONTINUOUS
10
0.913157
20
0.231333
11
0.912975
21
0.230993
0
LINE
8
BLACK
6
CONTINUOUS
10
0.912975
20
0.230993
11
0.912731
21
0.230695
0
LINE
8
BLACK
6
CONTINUOUS
10
0.912731
20
0.230695
11
0.912432
21
0.23045
0
LINE
8
BLACK
6
CONTINUOUS
10
0.912432
20
0.23045
11
0.912092
21
0.230268
0
LINE
8
BLACK
6
CONTINUOUS
10
0.912092
20
0.230268
11
0.911723
21
0.230156
0
LINE
8
BLACK
6
CONTINUOUS
10
0.911723
20
0.230156
11
0.911339
21
0.230118
0
LINE
8
BLACK
6
CONTINUOUS
10
0.911339
20
0.230118
11
0.907402
21
0.230118
0
LINE
8
BLACK
6
CONTINUOUS
10
0.907402
20
0.230118
11
0.907018
21
0.230156
0
LINE
8
BLACK
6
CONTINUOUS
10
0.907018
20
0.230156
11
0.906648
21
0.230268
0
LINE
8
BLACK
6
CONTINUOUS
10
0.906648
20
0.230268
11
0.906308
21
0.23045
0
LINE
8
BLACK
6
CONTINUOUS
10
0.906308
20
0.23045
11
0.90601
21
0.230695
0
LINE
8
BLACK
6
CONTINUOUS
10
0.90601
20
0.230695
11
0.905765
21
0.230993
0
LINE
8
BLACK
6
CONTINUOUS
10
0.905765
20
0.230993
11
0.905583
21
0.231333
0
LINE
8
BLACK
6
CONTINUOUS
10
0.905583
20
0.231333
11
0.905471
21
0.231703
0
LINE
8
BLACK
6
CONTINUOUS
10
0.905471
20
0.231703
11
0.905433
21
0.232087
0
LINE
8
BLACK
6
CONTINUOUS
10
0.905433
20
0.232087
11
0.905433
21
0.249803
0
LINE
8
BLACK
6
CONTINUOUS
10
0.905433
20
0.249803
11
0.905471
21
0.250187
0
LINE
8
BLACK
6
CONTINUOUS
10
0.905471
20
0.250187
11
0.905583
21
0.250556
0
LINE
8
BLACK
6
CONTINUOUS
10
0.905583
20
0.250556
11
0.905765
21
0.250897
0
LINE
8
BLACK
6
CONTINUOUS
10
0.905765
20
0.250897
11
0.90601
21
0.251195
0
LINE
8
BLACK
6
CONTINUOUS
10
0.90601
20
0.251195
11
0.906308
21
0.25144
0
LINE
8
BLACK
6
CONTINUOUS
10
0.906308
20
0.25144
11
0.906648
21
0.251622
0
LINE
8
BLACK
6
CONTINUOUS
10
0.906648
20
0.251622
11
0.907018
21
0.251734
0
LINE
8
BLACK
6
CONTINUOUS
10
0.907018
20
0.251734
11
0.907402
21
0.251772
0
LINE
8
BLACK
6
CONTINUOUS
10
0.907402
20
0.251772
11
0.911339
21
0.251772
0
LINE
8
BLACK
6
CONTINUOUS
10
0.911339
20
0.251772
11
0.911723
21
0.251734
0
LINE
8
BLACK
6
CONTINUOUS
10
0.895975
20
0.251734
11
0.896344
21
0.251622
0
LINE
8
BLACK
6
CONTINUOUS
10
0.896344
20
0.251622
11
0.896684
21
0.25144
0
LINE
8
BLACK
6
CONTINUOUS
10
0.896684
20
0.25144
11
0.896982
21
0.251195
0
LINE
8
BLACK
6
CONTINUOUS
10
0.896982
20
0.251195
11
0.897227
21
0.250897
0
LINE
8
BLACK
6
CONTINUOUS
10
0.897227
20
0.250897
11
0.897409
21
0.250556
0
LINE
8
BLACK
6
CONTINUOUS
10
0.897409
20
0.250556
11
0.897521
21
0.250187
0
LINE
8
BLACK
6
CONTINUOUS
10
0.897521
20
0.250187
11
0.897559
21
0.249803
0
LINE
8
BLACK
6
CONTINUOUS
10
0.897559
20
0.249803
11
0.897559
21
0.232087
0
LINE
8
BLACK
6
CONTINUOUS
10
0.897559
20
0.232087
11
0.897521
21
0.231703
0
LINE
8
BLACK
6
CONTINUOUS
10
0.897521
20
0.231703
11
0.897409
21
0.231333
0
LINE
8
BLACK
6
CONTINUOUS
10
0.897409
20
0.231333
11
0.897227
21
0.230993
0
LINE
8
BLACK
6
CONTINUOUS
10
0.897227
20
0.230993
11
0.896982
21
0.230695
0
LINE
8
BLACK
6
CONTINUOUS
10
0.896982
20
0.230695
11
0.896684
21
0.23045
0
LINE
8
BLACK
6
CONTINUOUS
10
0.896684
20
0.23045
11
0.896344
21
0.230268
0
LINE
8
BLACK
6
CONTINUOUS
10
0.896344
20
0.230268
11
0.895975
21
0.230156
0
LINE
8
BLACK
6
CONTINUOUS
10
0.895975
20
0.230156
11
0.895591
21
0.230118
0
LINE
8
BLACK
6
CONTINUOUS
10
0.895591
20
0.230118
11
0.891654
21
0.230118
0
LINE
8
BLACK
6
CONTINUOUS
10
0.891654
20
0.230118
11
0.891269
21
0.230156
0
LINE
8
BLACK
6
CONTINUOUS
10
0.891269
20
0.230156
11
0.8909
21
0.230268
0
LINE
8
BLACK
6
CONTINUOUS
10
0.8909
20
0.230268
11
0.89056
21
0.23045
0
LINE
8
BLACK
6
CONTINUOUS
10
0.89056
20
0.23045
11
0.890262
21
0.230695
0
LINE
8
BLACK
6
CONTINUOUS
10
0.890262
20
0.230695
11
0.890017
21
0.230993
0
LINE
8
BLACK
6
CONTINUOUS
10
0.890017
20
0.230993
11
0.889835
21
0.231333
0
LINE
8
BLACK
6
CONTINUOUS
10
0.889835
20
0.231333
11
0.889723
21
0.231703
0
LINE
8
BLACK
6
CONTINUOUS
10
0.889723
20
0.231703
11
0.889685
21
0.232087
0
LINE
8
BLACK
6
CONTINUOUS
10
0.889685
20
0.232087
11
0.889685
21
0.249803
0
LINE
8
BLACK
6
CONTINUOUS
10
0.889685
20
0.249803
11
0.889723
21
0.250187
0
LINE
8
BLACK
6
CONTINUOUS
10
0.889723
20
0.250187
11
0.889835
21
0.250556
0
LINE
8
BLACK
6
CONTINUOUS
10
0.889835
20
0.250556
11
0.890017
21
0.250897
0
LINE
8
BLACK
6
CONTINUOUS
10
0.890017
20
0.250897
11
0.890262
21
0.251195
0
LINE
8
BLACK
6
CONTINUOUS
10
0.890262
20
0.251195
11
0.89056
21
0.25144
0
LINE
8
BLACK
6
CONTINUOUS
10
0.89056
20
0.25144
11
0.8909
21
0.251622
0
LINE
8
BLACK
6
CONTINUOUS
10
0.8909
20
0.251622
11
0.891269
21
0.251734
0
LINE
8
BLACK
6
CONTINUOUS
10
0.891269
20
0.251734
11
0.891654
21
0.251772
0
LINE
8
BLACK
6
CONTINUOUS
10
0.891654
20
0.251772
11
0.895591
21
0.251772
0
LINE
8
BLACK
6
CONTINUOUS
10
0.895591
20
0.251772
11
0.895975
21
0.251734
0
LINE
8
BLACK
6
CONTINUOUS
10
0.880227
20
0.251734
11
0.880596
21
0.251622
0
LINE
8
BLACK
6
CONTINUOUS
10
0.880596
20
0.251622
11
0.880936
21
0.25144
0
LINE
8
BLACK
6
CONTINUOUS
10
0.880936
20
0.25144
11
0.881234
21
0.251195
0
LINE
8
BLACK
6
CONTINUOUS
10
0.881234
20
0.251195
11
0.881479
21
0.250897
0
LINE
8
BLACK
6
CONTINUOUS
10
0.881479
20
0.250897
11
0.881661
21
0.250556
0
LINE
8
BLACK
6
CONTINUOUS
10
0.881661
20
0.250556
11
0.881773
21
0.250187
0
LINE
8
BLACK
6
CONTINUOUS
10
0.881773
20
0.250187
11
0.881811
21
0.249803
0
LINE
8
BLACK
6
CONTINUOUS
10
0.881811
20
0.249803
11
0.881811
21
0.232087
0
LINE
8
BLACK
6
CONTINUOUS
10
0.881811
20
0.232087
11
0.881773
21
0.231703
0
LINE
8
BLACK
6
CONTINUOUS
10
0.881773
20
0.231703
11
0.881661
21
0.231333
0
LINE
8
BLACK
6
CONTINUOUS
10
0.881661
20
0.231333
11
0.881479
21
0.230993
0
LINE
8
BLACK
6
CONTINUOUS
10
0.881479
20
0.230993
11
0.881234
21
0.230695
0
LINE
8
BLACK
6
CONTINUOUS
10
0.881234
20
0.230695
11
0.880936
21
0.23045
0
LINE
8
BLACK
6
CONTINUOUS
10
0.880936
20
0.23045
11
0.880596
21
0.230268
0
LINE
8
BLACK
6
CONTINUOUS
10
0.880596
20
0.230268
11
0.880227
21
0.230156
0
LINE
8
BLACK
6
CONTINUOUS
10
0.880227
20
0.230156
11
0.879843
21
0.230118
0
LINE
8
BLACK
6
CONTINUOUS
10
0.879843
20
0.230118
11
0.875906
21
0.230118
0
LINE
8
BLACK
6
CONTINUOUS
10
0.875906
20
0.230118
11
0.875521
21
0.230156
0
LINE
8
BLACK
6
CONTINUOUS
10
0.875521
20
0.230156
11
0.875152
21
0.230268
0
LINE
8
BLACK
6
CONTINUOUS
10
0.875152
20
0.230268
11
0.874812
21
0.23045
0
LINE
8
BLACK
6
CONTINUOUS
10
0.874812
20
0.23045
11
0.874514
21
0.230695
0
LINE
8
BLACK
6
CONTINUOUS
10
0.874514
20
0.230695
11
0.874269
21
0.230993
0
LINE
8
BLACK
6
CONTINUOUS
10
0.874269
20
0.230993
11
0.874087
21
0.231333
0
LINE
8
BLACK
6
CONTINUOUS
10
0.874087
20
0.231333
11
0.873975
21
0.231703
0
LINE
8
BLACK
6
CONTINUOUS
10
0.873975
20
0.231703
11
0.873937
21
0.232087
0
LINE
8
BLACK
6
CONTINUOUS
10
0.873937
20
0.232087
11
0.873937
21
0.249803
0
LINE
8
BLACK
6
CONTINUOUS
10
0.873937
20
0.249803
11
0.873975
21
0.250187
0
LINE
8
BLACK
6
CONTINUOUS
10
0.873975
20
0.250187
11
0.874087
21
0.250556
0
LINE
8
BLACK
6
CONTINUOUS
10
0.874087
20
0.250556
11
0.874269
21
0.250897
0
LINE
8
BLACK
6
CONTINUOUS
10
0.874269
20
0.250897
11
0.874514
21
0.251195
0
LINE
8
BLACK
6
CONTINUOUS
10
0.874514
20
0.251195
11
0.874812
21
0.25144
0
LINE
8
BLACK
6
CONTINUOUS
10
0.874812
20
0.25144
11
0.875152
21
0.251622
0
LINE
8
BLACK
6
CONTINUOUS
10
0.875152
20
0.251622
11
0.875521
21
0.251734
0
LINE
8
BLACK
6
CONTINUOUS
10
0.875521
20
0.251734
11
0.875906
21
0.251772
0
LINE
8
BLACK
6
CONTINUOUS
10
0.875906
20
0.251772
11
0.879843
21
0.251772
0
LINE
8
BLACK
6
CONTINUOUS
10
0.879843
20
0.251772
11
0.880227
21
0.251734
0
LINE
8
BLACK
6
CONTINUOUS
10
0.864479
20
0.251734
11
0.864848
21
0.251622
0
LINE
8
BLACK
6
CONTINUOUS
10
0.864848
20
0.251622
11
0.865188
21
0.25144
0
LINE
8
BLACK
6
CONTINUOUS
10
0.865188
20
0.25144
11
0.865486
21
0.251195
0
LINE
8
BLACK
6
CONTINUOUS
10
0.865486
20
0.251195
11
0.865731
21
0.250897
0
LINE
8
BLACK
6
CONTINUOUS
10
0.865731
20
0.250897
11
0.865913
21
0.250556
0
LINE
8
BLACK
6
CONTINUOUS
10
0.865913
20
0.250556
11
0.866025
21
0.250187
0
LINE
8
BLACK
6
CONTINUOUS
10
0.866025
20
0.250187
11
0.866063
21
0.249803
0
LINE
8
BLACK
6
CONTINUOUS
10
0.866063
20
0.249803
11
0.866063
21
0.232087
0
LINE
8
BLACK
6
CONTINUOUS
10
0.866063
20
0.232087
11
0.866025
21
0.231703
0
LINE
8
BLACK
6
CONTINUOUS
10
0.866025
20
0.231703
11
0.865913
21
0.231333
0
LINE
8
BLACK
6
CONTINUOUS
10
0.865913
20
0.231333
11
0.865731
21
0.230993
0
LINE
8
BLACK
6
CONTINUOUS
10
0.865731
20
0.230993
11
0.865486
21
0.230695
0
LINE
8
BLACK
6
CONTINUOUS
10
0.865486
20
0.230695
11
0.865188
21
0.23045
0
LINE
8
BLACK
6
CONTINUOUS
10
0.865188
20
0.23045
11
0.864848
21
0.230268
0
LINE
8
BLACK
6
CONTINUOUS
10
0.864848
20
0.230268
11
0.864479
21
0.230156
0
LINE
8
BLACK
6
CONTINUOUS
10
0.864479
20
0.230156
11
0.864094
21
0.230118
0
LINE
8
BLACK
6
CONTINUOUS
10
0.864094
20
0.230118
11
0.860157
21
0.230118
0
LINE
8
BLACK
6
CONTINUOUS
10
0.860157
20
0.230118
11
0.859773
21
0.230156
0
LINE
8
BLACK
6
CONTINUOUS
10
0.859773
20
0.230156
11
0.859404
21
0.230268
0
LINE
8
BLACK
6
CONTINUOUS
10
0.859404
20
0.230268
11
0.859064
21
0.23045
0
LINE
8
BLACK
6
CONTINUOUS
10
0.859064
20
0.23045
11
0.858766
21
0.230695
0
LINE
8
BLACK
6
CONTINUOUS
10
0.858766
20
0.230695
11
0.858521
21
0.230993
0
LINE
8
BLACK
6
CONTINUOUS
10
0.858521
20
0.230993
11
0.858339
21
0.231333
0
LINE
8
BLACK
6
CONTINUOUS
10
0.858339
20
0.231333
11
0.858227
21
0.231703
0
LINE
8
BLACK
6
CONTINUOUS
10
0.858227
20
0.231703
11
0.858189
21
0.232087
0
LINE
8
BLACK
6
CONTINUOUS
10
0.858189
20
0.232087
11
0.858189
21
0.249803
0
LINE
8
BLACK
6
CONTINUOUS
10
0.858189
20
0.249803
11
0.858227
21
0.250187
0
LINE
8
BLACK
6
CONTINUOUS
10
0.858227
20
0.250187
11
0.858339
21
0.250556
0
LINE
8
BLACK
6
CONTINUOUS
10
0.858339
20
0.250556
11
0.858521
21
0.250897
0
LINE
8
BLACK
6
CONTINUOUS
10
0.858521
20
0.250897
11
0.858766
21
0.251195
0
LINE
8
BLACK
6
CONTINUOUS
10
0.858766
20
0.251195
11
0.859064
21
0.25144
0
LINE
8
BLACK
6
CONTINUOUS
10
0.859064
20
0.25144
11
0.859404
21
0.251622
0
LINE
8
BLACK
6
CONTINUOUS
10
0.859404
20
0.251622
11
0.859773
21
0.251734
0
LINE
8
BLACK
6
CONTINUOUS
10
0.859773
20
0.251734
11
0.860157
21
0.251772
0
LINE
8
BLACK
6
CONTINUOUS
10
0.860157
20
0.251772
11
0.864094
21
0.251772
0
LINE
8
BLACK
6
CONTINUOUS
10
0.864094
20
0.251772
11
0.864479
21
0.251734
0
LINE
8
BLACK
6
CONTINUOUS
10
0.848731
20
0.251734
11
0.8491
21
0.251622
0
LINE
8
BLACK
6
CONTINUOUS
10
0.8491
20
0.251622
11
0.84944
21
0.25144
0
LINE
8
BLACK
6
CONTINUOUS
10
0.84944
20
0.25144
11
0.849738
21
0.251195
0
LINE
8
BLACK
6
CONTINUOUS
10
0.849738
20
0.251195
11
0.849983
21
0.250897
0
LINE
8
BLACK
6
CONTINUOUS
10
0.849983
20
0.250897
11
0.850165
21
0.250556
0
LINE
8
BLACK
6
CONTINUOUS
10
0.850165
20
0.250556
11
0.850277
21
0.250187
0
LINE
8
BLACK
6
CONTINUOUS
10
0.850277
20
0.250187
11
0.850315
21
0.249803
0
LINE
8
BLACK
6
CONTINUOUS
10
0.850315
20
0.249803
11
0.850315
21
0.232087
0
LINE
8
BLACK
6
CONTINUOUS
10
0.850315
20
0.232087
11
0.850277
21
0.231703
0
LINE
8
BLACK
6
CONTINUOUS
10
0.850277
20
0.231703
11
0.850165
21
0.231333
0
LINE
8
BLACK
6
CONTINUOUS
10
0.850165
20
0.231333
11
0.849983
21
0.230993
0
LINE
8
BLACK
6
CONTINUOUS
10
0.849983
20
0.230993
11
0.849738
21
0.230695
0
LINE
8
BLACK
6
CONTINUOUS
10
0.849738
20
0.230695
11
0.84944
21
0.23045
0
LINE
8
BLACK
6
CONTINUOUS
10
0.84944
20
0.23045
11
0.8491
21
0.230268
0
LINE
8
BLACK
6
CONTINUOUS
10
0.8491
20
0.230268
11
0.848731
21
0.230156
0
LINE
8
BLACK
6
CONTINUOUS
10
0.848731
20
0.230156
11
0.848346
21
0.230118
0
LINE
8
BLACK
6
CONTINUOUS
10
0.848346
20
0.230118
11
0.844409
21
0.230118
0
LINE
8
BLACK
6
CONTINUOUS
10
0.844409
20
0.230118
11
0.844025
21
0.230156
0
LINE
8
BLACK
6
CONTINUOUS
10
0.844025
20
0.230156
11
0.843656
21
0.230268
0
LINE
8
BLACK
6
CONTINUOUS
10
0.843656
20
0.230268
11
0.843316
21
0.23045
0
LINE
8
BLACK
6
CONTINUOUS
10
0.843316
20
0.23045
11
0.843018
21
0.230695
0
LINE
8
BLACK
6
CONTINUOUS
10
0.843018
20
0.230695
11
0.842773
21
0.230993
0
LINE
8
BLACK
6
CONTINUOUS
10
0.842773
20
0.230993
11
0.842591
21
0.231333
0
LINE
8
BLACK
6
CONTINUOUS
10
0.842591
20
0.231333
11
0.842479
21
0.231703
0
LINE
8
BLACK
6
CONTINUOUS
10
0.842479
20
0.231703
11
0.842441
21
0.232087
0
LINE
8
BLACK
6
CONTINUOUS
10
0.842441
20
0.232087
11
0.842441
21
0.249803
0
LINE
8
BLACK
6
CONTINUOUS
10
0.842441
20
0.249803
11
0.842479
21
0.250187
0
LINE
8
BLACK
6
CONTINUOUS
10
0.842479
20
0.250187
11
0.842591
21
0.250556
0
LINE
8
BLACK
6
CONTINUOUS
10
0.842591
20
0.250556
11
0.842773
21
0.250897
0
LINE
8
BLACK
6
CONTINUOUS
10
0.842773
20
0.250897
11
0.843018
21
0.251195
0
LINE
8
BLACK
6
CONTINUOUS
10
0.843018
20
0.251195
11
0.843316
21
0.25144
0
LINE
8
BLACK
6
CONTINUOUS
10
0.843316
20
0.25144
11
0.843656
21
0.251622
0
LINE
8
BLACK
6
CONTINUOUS
10
0.843656
20
0.251622
11
0.844025
21
0.251734
0
LINE
8
BLACK
6
CONTINUOUS
10
0.844025
20
0.251734
11
0.844409
21
0.251772
0
LINE
8
BLACK
6
CONTINUOUS
10
0.844409
20
0.251772
11
0.848346
21
0.251772
0
LINE
8
BLACK
6
CONTINUOUS
10
0.848346
20
0.251772
11
0.848731
21
0.251734
0
LINE
8
BLACK
6
CONTINUOUS
10
0.938297
20
0.264529
11
0.938667
21
0.264417
0
LINE
8
BLACK
6
CONTINUOUS
10
0.938667
20
0.264417
11
0.939007
21
0.264235
0
LINE
8
BLACK
6
CONTINUOUS
10
0.939007
20
0.264235
11
0.939305
21
0.26399
0
LINE
8
BLACK
6
CONTINUOUS
10
0.939305
20
0.26399
11
0.93955
21
0.263692
0
LINE
8
BLACK
6
CONTINUOUS
10
0.93955
20
0.263692
11
0.939732
21
0.263352
0
LINE
8
BLACK
6
CONTINUOUS
10
0.939732
20
0.263352
11
0.939844
21
0.262982
0
LINE
8
BLACK
6
CONTINUOUS
10
0.939844
20
0.262982
11
0.939882
21
0.262598
0
LINE
8
BLACK
6
CONTINUOUS
10
0.939882
20
0.262598
11
0.939882
21
0.258661
0
LINE
8
BLACK
6
CONTINUOUS
10
0.939882
20
0.258661
11
0.939844
21
0.258277
0
LINE
8
BLACK
6
CONTINUOUS
10
0.939844
20
0.258277
11
0.939732
21
0.257908
0
LINE
8
BLACK
6
CONTINUOUS
10
0.939732
20
0.257908
11
0.93955
21
0.257568
0
LINE
8
BLACK
6
CONTINUOUS
10
0.93955
20
0.257568
11
0.939305
21
0.257269
0
LINE
8
BLACK
6
CONTINUOUS
10
0.939305
20
0.257269
11
0.939007
21
0.257025
0
LINE
8
BLACK
6
CONTINUOUS
10
0.939007
20
0.257025
11
0.938667
21
0.256843
0
LINE
8
BLACK
6
CONTINUOUS
10
0.938667
20
0.256843
11
0.938297
21
0.256731
0
LINE
8
BLACK
6
CONTINUOUS
10
0.938297
20
0.256731
11
0.937913
21
0.256693
0
LINE
8
BLACK
6
CONTINUOUS
10
0.937913
20
0.256693
11
0.920197
21
0.256693
0
LINE
8
BLACK
6
CONTINUOUS
10
0.920197
20
0.256693
11
0.919813
21
0.256731
0
LINE
8
BLACK
6
CONTINUOUS
10
0.919813
20
0.256731
11
0.919444
21
0.256843
0
LINE
8
BLACK
6
CONTINUOUS
10
0.919444
20
0.256843
11
0.919103
21
0.257025
0
LINE
8
BLACK
6
CONTINUOUS
10
0.919103
20
0.257025
11
0.918805
21
0.257269
0
LINE
8
BLACK
6
CONTINUOUS
10
0.918805
20
0.257269
11
0.91856
21
0.257568
0
LINE
8
BLACK
6
CONTINUOUS
10
0.91856
20
0.257568
11
0.918378
21
0.257908
0
LINE
8
BLACK
6
CONTINUOUS
10
0.918378
20
0.257908
11
0.918266
21
0.258277
0
LINE
8
BLACK
6
CONTINUOUS
10
0.918266
20
0.258277
11
0.918228
21
0.258661
0
LINE
8
BLACK
6
CONTINUOUS
10
0.918228
20
0.258661
11
0.918228
21
0.262598
0
LINE
8
BLACK
6
CONTINUOUS
10
0.918228
20
0.262598
11
0.918266
21
0.262982
0
LINE
8
BLACK
6
CONTINUOUS
10
0.918266
20
0.262982
11
0.918378
21
0.263352
0
LINE
8
BLACK
6
CONTINUOUS
10
0.918378
20
0.263352
11
0.91856
21
0.263692
0
LINE
8
BLACK
6
CONTINUOUS
10
0.91856
20
0.263692
11
0.918805
21
0.26399
0
LINE
8
BLACK
6
CONTINUOUS
10
0.918805
20
0.26399
11
0.919103
21
0.264235
0
LINE
8
BLACK
6
CONTINUOUS
10
0.919103
20
0.264235
11
0.919444
21
0.264417
0
LINE
8
BLACK
6
CONTINUOUS
10
0.919444
20
0.264417
11
0.919813
21
0.264529
0
LINE
8
BLACK
6
CONTINUOUS
10
0.919813
20
0.264529
11
0.920197
21
0.264567
0
LINE
8
BLACK
6
CONTINUOUS
10
0.920197
20
0.264567
11
0.937913
21
0.264567
0
LINE
8
BLACK
6
CONTINUOUS
10
0.937913
20
0.264567
11
0.938297
21
0.264529
0
LINE
8
BLACK
6
CONTINUOUS
10
0.820187
20
0.264529
11
0.820556
21
0.264417
0
LINE
8
BLACK
6
CONTINUOUS
10
0.820556
20
0.264417
11
0.820897
21
0.264235
0
LINE
8
BLACK
6
CONTINUOUS
10
0.820897
20
0.264235
11
0.821195
21
0.26399
0
LINE
8
BLACK
6
CONTINUOUS
10
0.821195
20
0.26399
11
0.82144
21
0.263692
0
LINE
8
BLACK
6
CONTINUOUS
10
0.82144
20
0.263692
11
0.821622
21
0.263352
0
LINE
8
BLACK
6
CONTINUOUS
10
0.821622
20
0.263352
11
0.821734
21
0.262982
0
LINE
8
BLACK
6
CONTINUOUS
10
0.821734
20
0.262982
11
0.821772
21
0.262598
0
LINE
8
BLACK
6
CONTINUOUS
10
0.821772
20
0.262598
11
0.821772
21
0.258661
0
LINE
8
BLACK
6
CONTINUOUS
10
0.821772
20
0.258661
11
0.821734
21
0.258277
0
LINE
8
BLACK
6
CONTINUOUS
10
0.821734
20
0.258277
11
0.821622
21
0.257908
0
LINE
8
BLACK
6
CONTINUOUS
10
0.821622
20
0.257908
11
0.82144
21
0.257568
0
LINE
8
BLACK
6
CONTINUOUS
10
0.82144
20
0.257568
11
0.821195
21
0.257269
0
LINE
8
BLACK
6
CONTINUOUS
10
0.821195
20
0.257269
11
0.820897
21
0.257025
0
LINE
8
BLACK
6
CONTINUOUS
10
0.820897
20
0.257025
11
0.820556
21
0.256843
0
LINE
8
BLACK
6
CONTINUOUS
10
0.820556
20
0.256843
11
0.820187
21
0.256731
0
LINE
8
BLACK
6
CONTINUOUS
10
0.820187
20
0.256731
11
0.819803
21
0.256693
0
LINE
8
BLACK
6
CONTINUOUS
10
0.819803
20
0.256693
11
0.802087
21
0.256693
0
LINE
8
BLACK
6
CONTINUOUS
10
0.802087
20
0.256693
11
0.801703
21
0.256731
0
LINE
8
BLACK
6
CONTINUOUS
10
0.801703
20
0.256731
11
0.801333
21
0.256843
0
LINE
8
BLACK
6
CONTINUOUS
10
0.801333
20
0.256843
11
0.800993
21
0.257025
0
LINE
8
BLACK
6
CONTINUOUS
10
0.800993
20
0.257025
11
0.800695
21
0.257269
0
LINE
8
BLACK
6
CONTINUOUS
10
0.800695
20
0.257269
11
0.80045
21
0.257568
0
LINE
8
BLACK
6
CONTINUOUS
10
0.80045
20
0.257568
11
0.800268
21
0.257908
0
LINE
8
BLACK
6
CONTINUOUS
10
0.800268
20
0.257908
11
0.800156
21
0.258277
0
LINE
8
BLACK
6
CONTINUOUS
10
0.800156
20
0.258277
11
0.800118
21
0.258661
0
LINE
8
BLACK
6
CONTINUOUS
10
0.800118
20
0.258661
11
0.800118
21
0.262598
0
LINE
8
BLACK
6
CONTINUOUS
10
0.800118
20
0.262598
11
0.800156
21
0.262982
0
LINE
8
BLACK
6
CONTINUOUS
10
0.800156
20
0.262982
11
0.800268
21
0.263352
0
LINE
8
BLACK
6
CONTINUOUS
10
0.800268
20
0.263352
11
0.80045
21
0.263692
0
LINE
8
BLACK
6
CONTINUOUS
10
0.80045
20
0.263692
11
0.800695
21
0.26399
0
LINE
8
BLACK
6
CONTINUOUS
10
0.800695
20
0.26399
11
0.800993
21
0.264235
0
LINE
8
BLACK
6
CONTINUOUS
10
0.800993
20
0.264235
11
0.801333
21
0.264417
0
LINE
8
BLACK
6
CONTINUOUS
10
0.801333
20
0.264417
11
0.801703
21
0.264529
0
LINE
8
BLACK
6
CONTINUOUS
10
0.801703
20
0.264529
11
0.802087
21
0.264567
0
LINE
8
BLACK
6
CONTINUOUS
10
0.802087
20
0.264567
11
0.819803
21
0.264567
0
LINE
8
BLACK
6
CONTINUOUS
10
0.819803
20
0.264567
11
0.820187
21
0.264529
0
LINE
8
BLACK
6
CONTINUOUS
10
0.699288
20
0.298535
11
0.700904
21
0.298045
0
LINE
8
BLACK
6
CONTINUOUS
10
0.700904
20
0.298045
11
0.702393
21
0.297249
0
LINE
8
BLACK
6
CONTINUOUS
10
0.702393
20
0.297249
11
0.703698
21
0.296178
0
LINE
8
BLACK
6
CONTINUOUS
10
0.703698
20
0.296178
11
0.704769
21
0.294873
0
LINE
8
BLACK
6
CONTINUOUS
10
0.704769
20
0.294873
11
0.705565
21
0.293384
0
LINE
8
BLACK
6
CONTINUOUS
10
0.705565
20
0.293384
11
0.706055
21
0.291769
0
LINE
8
BLACK
6
CONTINUOUS
10
0.706055
20
0.291769
11
0.70622
21
0.290089
0
LINE
8
BLACK
6
CONTINUOUS
10
0.70622
20
0.290089
11
0.70622
21
0.269911
0
LINE
8
BLACK
6
CONTINUOUS
10
0.70622
20
0.269911
11
0.706055
21
0.268231
0
LINE
8
BLACK
6
CONTINUOUS
10
0.706055
20
0.268231
11
0.705565
21
0.266616
0
LINE
8
BLACK
6
CONTINUOUS
10
0.705565
20
0.266616
11
0.704769
21
0.265127
0
LINE
8
BLACK
6
CONTINUOUS
10
0.704769
20
0.265127
11
0.703698
21
0.263822
0
LINE
8
BLACK
6
CONTINUOUS
10
0.703698
20
0.263822
11
0.702393
21
0.262751
0
LINE
8
BLACK
6
CONTINUOUS
10
0.702393
20
0.262751
11
0.700904
21
0.261955
0
LINE
8
BLACK
6
CONTINUOUS
10
0.700904
20
0.261955
11
0.699288
21
0.261465
0
LINE
8
BLACK
6
CONTINUOUS
10
0.699288
20
0.261465
11
0.697608
21
0.261299
0
LINE
8
BLACK
6
CONTINUOUS
10
0.697608
20
0.261299
11
0.680384
21
0.261299
0
LINE
8
BLACK
6
CONTINUOUS
10
0.680384
20
0.261299
11
0.678704
21
0.261465
0
LINE
8
BLACK
6
CONTINUOUS
10
0.678704
20
0.261465
11
0.677088
21
0.261955
0
LINE
8
BLACK
6
CONTINUOUS
10
0.677088
20
0.261955
11
0.675599
21
0.262751
0
LINE
8
BLACK
6
CONTINUOUS
10
0.675599
20
0.262751
11
0.674294
21
0.263822
0
LINE
8
BLACK
6
CONTINUOUS
10
0.674294
20
0.263822
11
0.673223
21
0.265127
0
LINE
8
BLACK
6
CONTINUOUS
10
0.673223
20
0.265127
11
0.672427
21
0.266616
0
LINE
8
BLACK
6
CONTINUOUS
10
0.672427
20
0.266616
11
0.671937
21
0.268231
0
LINE
8
BLACK
6
CONTINUOUS
10
0.671937
20
0.268231
11
0.671772
21
0.269911
0
LINE
8
BLACK
6
CONTINUOUS
10
0.671772
20
0.269911
11
0.671772
21
0.290089
0
LINE
8
BLACK
6
CONTINUOUS
10
0.671772
20
0.290089
11
0.671937
21
0.291769
0
LINE
8
BLACK
6
CONTINUOUS
10
0.671937
20
0.291769
11
0.672427
21
0.293384
0
LINE
8
BLACK
6
CONTINUOUS
10
0.672427
20
0.293384
11
0.673223
21
0.294873
0
LINE
8
BLACK
6
CONTINUOUS
10
0.673223
20
0.294873
11
0.674294
21
0.296178
0
LINE
8
BLACK
6
CONTINUOUS
10
0.674294
20
0.296178
11
0.675599
21
0.297249
0
LINE
8
BLACK
6
CONTINUOUS
10
0.675599
20
0.297249
11
0.677088
21
0.298045
0
LINE
8
BLACK
6
CONTINUOUS
10
0.677088
20
0.298045
11
0.678704
21
0.298535
0
LINE
8
BLACK
6
CONTINUOUS
10
0.678704
20
0.298535
11
0.680384
21
0.298701
0
LINE
8
BLACK
6
CONTINUOUS
10
0.680384
20
0.298701
11
0.697608
21
0.298701
0
LINE
8
BLACK
6
CONTINUOUS
10
0.697608
20
0.298701
11
0.699288
21
0.298535
0
LINE
8
BLACK
6
CONTINUOUS
10
0.761296
20
0.298535
11
0.762912
21
0.298045
0
LINE
8
BLACK
6
CONTINUOUS
10
0.762912
20
0.298045
11
0.764401
21
0.297249
0
LINE
8
BLACK
6
CONTINUOUS
10
0.764401
20
0.297249
11
0.765706
21
0.296178
0
LINE
8
BLACK
6
CONTINUOUS
10
0.765706
20
0.296178
11
0.766777
21
0.294873
0
LINE
8
BLACK
6
CONTINUOUS
10
0.766777
20
0.294873
11
0.767573
21
0.293384
0
LINE
8
BLACK
6
CONTINUOUS
10
0.767573
20
0.293384
11
0.768063
21
0.291769
0
LINE
8
BLACK
6
CONTINUOUS
10
0.768063
20
0.291769
11
0.768228
21
0.290089
0
LINE
8
BLACK
6
CONTINUOUS
10
0.768228
20
0.290089
11
0.768228
21
0.269911
0
LINE
8
BLACK
6
CONTINUOUS
10
0.768228
20
0.269911
11
0.768063
21
0.268231
0
LINE
8
BLACK
6
CONTINUOUS
10
0.768063
20
0.268231
11
0.767573
21
0.266616
0
LINE
8
BLACK
6
CONTINUOUS
10
0.767573
20
0.266616
11
0.766777
21
0.265127
0
LINE
8
BLACK
6
CONTINUOUS
10
0.766777
20
0.265127
11
0.765706
21
0.263822
0
LINE
8
BLACK
6
CONTINUOUS
10
0.765706
20
0.263822
11
0.764401
21
0.262751
0
LINE
8
BLACK
6
CONTINUOUS
10
0.764401
20
0.262751
11
0.762912
21
0.261955
0
LINE
8
BLACK
6
CONTINUOUS
10
0.762912
20
0.261955
11
0.761296
21
0.261465
0
LINE
8
BLACK
6
CONTINUOUS
10
0.761296
20
0.261465
11
0.759616
21
0.261299
0
LINE
8
BLACK
6
CONTINUOUS
10
0.759616
20
0.261299
11
0.742392
21
0.261299
0
LINE
8
BLACK
6
CONTINUOUS
10
0.742392
20
0.261299
11
0.740712
21
0.261465
0
LINE
8
BLACK
6
CONTINUOUS
10
0.740712
20
0.261465
11
0.739096
21
0.261955
0
LINE
8
BLACK
6
CONTINUOUS
10
0.739096
20
0.261955
11
0.737607
21
0.262751
0
LINE
8
BLACK
6
CONTINUOUS
10
0.737607
20
0.262751
11
0.736302
21
0.263822
0
LINE
8
BLACK
6
CONTINUOUS
10
0.736302
20
0.263822
11
0.735231
21
0.265127
0
LINE
8
BLACK
6
CONTINUOUS
10
0.735231
20
0.265127
11
0.734435
21
0.266616
0
LINE
8
BLACK
6
CONTINUOUS
10
0.734435
20
0.266616
11
0.733945
21
0.268231
0
LINE
8
BLACK
6
CONTINUOUS
10
0.733945
20
0.268231
11
0.73378
21
0.269911
0
LINE
8
BLACK
6
CONTINUOUS
10
0.73378
20
0.269911
11
0.73378
21
0.290089
0
LINE
8
BLACK
6
CONTINUOUS
10
0.73378
20
0.290089
11
0.733945
21
0.291769
0
LINE
8
BLACK
6
CONTINUOUS
10
0.733945
20
0.291769
11
0.734435
21
0.293384
0
LINE
8
BLACK
6
CONTINUOUS
10
0.734435
20
0.293384
11
0.735231
21
0.294873
0
LINE
8
BLACK
6
CONTINUOUS
10
0.735231
20
0.294873
11
0.736302
21
0.296178
0
LINE
8
BLACK
6
CONTINUOUS
10
0.736302
20
0.296178
11
0.737607
21
0.297249
0
LINE
8
BLACK
6
CONTINUOUS
10
0.737607
20
0.297249
11
0.739096
21
0.298045
0
LINE
8
BLACK
6
CONTINUOUS
10
0.739096
20
0.298045
11
0.740712
21
0.298535
0
LINE
8
BLACK
6
CONTINUOUS
10
0.740712
20
0.298535
11
0.742392
21
0.298701
0
LINE
8
BLACK
6
CONTINUOUS
10
0.742392
20
0.298701
11
0.759616
21
0.298701
0
LINE
8
BLACK
6
CONTINUOUS
10
0.759616
20
0.298701
11
0.761296
21
0.298535
0
LINE
8
BLACK
6
CONTINUOUS
10
0.938297
20
0.280277
11
0.938667
21
0.280165
0
LINE
8
BLACK
6
CONTINUOUS
10
0.938667
20
0.280165
11
0.939007
21
0.279983
0
LINE
8
BLACK
6
CONTINUOUS
10
0.939007
20
0.279983
11
0.939305
21
0.279738
0
LINE
8
BLACK
6
CONTINUOUS
10
0.939305
20
0.279738
11
0.93955
21
0.27944
0
LINE
8
BLACK
6
CONTINUOUS
10
0.93955
20
0.27944
11
0.939732
21
0.2791
0
LINE
8
BLACK
6
CONTINUOUS
10
0.939732
20
0.2791
11
0.939844
21
0.278731
0
LINE
8
BLACK
6
CONTINUOUS
10
0.939844
20
0.278731
11
0.939882
21
0.278346
0
LINE
8
BLACK
6
CONTINUOUS
10
0.939882
20
0.278346
11
0.939882
21
0.274409
0
LINE
8
BLACK
6
CONTINUOUS
10
0.939882
20
0.274409
11
0.939844
21
0.274025
0
LINE
8
BLACK
6
CONTINUOUS
10
0.939844
20
0.274025
11
0.939732
21
0.273656
0
LINE
8
BLACK
6
CONTINUOUS
10
0.939732
20
0.273656
11
0.93955
21
0.273316
0
LINE
8
BLACK
6
CONTINUOUS
10
0.93955
20
0.273316
11
0.939305
21
0.273018
0
LINE
8
BLACK
6
CONTINUOUS
10
0.939305
20
0.273018
11
0.939007
21
0.272773
0
LINE
8
BLACK
6
CONTINUOUS
10
0.939007
20
0.272773
11
0.938667
21
0.272591
0
LINE
8
BLACK
6
CONTINUOUS
10
0.938667
20
0.272591
11
0.938297
21
0.272479
0
LINE
8
BLACK
6
CONTINUOUS
10
0.938297
20
0.272479
11
0.937913
21
0.272441
0
LINE
8
BLACK
6
CONTINUOUS
10
0.937913
20
0.272441
11
0.920197
21
0.272441
0
LINE
8
BLACK
6
CONTINUOUS
10
0.920197
20
0.272441
11
0.919813
21
0.272479
0
LINE
8
BLACK
6
CONTINUOUS
10
0.919813
20
0.272479
11
0.919444
21
0.272591
0
LINE
8
BLACK
6
CONTINUOUS
10
0.919444
20
0.272591
11
0.919103
21
0.272773
0
LINE
8
BLACK
6
CONTINUOUS
10
0.919103
20
0.272773
11
0.918805
21
0.273018
0
LINE
8
BLACK
6
CONTINUOUS
10
0.918805
20
0.273018
11
0.91856
21
0.273316
0
LINE
8
BLACK
6
CONTINUOUS
10
0.91856
20
0.273316
11
0.918378
21
0.273656
0
LINE
8
BLACK
6
CONTINUOUS
10
0.918378
20
0.273656
11
0.918266
21
0.274025
0
LINE
8
BLACK
6
CONTINUOUS
10
0.918266
20
0.274025
11
0.918228
21
0.274409
0
LINE
8
BLACK
6
CONTINUOUS
10
0.918228
20
0.274409
11
0.918228
21
0.278346
0
LINE
8
BLACK
6
CONTINUOUS
10
0.918228
20
0.278346
11
0.918266
21
0.278731
0
LINE
8
BLACK
6
CONTINUOUS
10
0.918266
20
0.278731
11
0.918378
21
0.2791
0
LINE
8
BLACK
6
CONTINUOUS
10
0.918378
20
0.2791
11
0.91856
21
0.27944
0
LINE
8
BLACK
6
CONTINUOUS
10
0.91856
20
0.27944
11
0.918805
21
0.279738
0
LINE
8
BLACK
6
CONTINUOUS
10
0.918805
20
0.279738
11
0.919103
21
0.279983
0
LINE
8
BLACK
6
CONTINUOUS
10
0.919103
20
0.279983
11
0.919444
21
0.280165
0
LINE
8
BLACK
6
CONTINUOUS
10
0.919444
20
0.280165
11
0.919813
21
0.280277
0
LINE
8
BLACK
6
CONTINUOUS
10
0.919813
20
0.280277
11
0.920197
21
0.280315
0
LINE
8
BLACK
6
CONTINUOUS
10
0.920197
20
0.280315
11
0.937913
21
0.280315
0
LINE
8
BLACK
6
CONTINUOUS
10
0.937913
20
0.280315
11
0.938297
21
0.280277
0
LINE
8
BLACK
6
CONTINUOUS
10
0.820187
20
0.280277
11
0.820556
21
0.280165
0
LINE
8
BLACK
6
CONTINUOUS
10
0.820556
20
0.280165
11
0.820897
21
0.279983
0
LINE
8
BLACK
6
CONTINUOUS
10
0.820897
20
0.279983
11
0.821195
21
0.279738
0
LINE
8
BLACK
6
CONTINUOUS
10
0.821195
20
0.279738
11
0.82144
21
0.27944
0
LINE
8
BLACK
6
CONTINUOUS
10
0.82144
20
0.27944
11
0.821622
21
0.2791
0
LINE
8
BLACK
6
CONTINUOUS
10
0.821622
20
0.2791
11
0.821734
21
0.278731
0
LINE
8
BLACK
6
CONTINUOUS
10
0.821734
20
0.278731
11
0.821772
21
0.278346
0
LINE
8
BLACK
6
CONTINUOUS
10
0.821772
20
0.278346
11
0.821772
21
0.274409
0
LINE
8
BLACK
6
CONTINUOUS
10
0.821772
20
0.274409
11
0.821734
21
0.274025
0
LINE
8
BLACK
6
CONTINUOUS
10
0.821734
20
0.274025
11
0.821622
21
0.273656
0
LINE
8
BLACK
6
CONTINUOUS
10
0.821622
20
0.273656
11
0.82144
21
0.273316
0
LINE
8
BLACK
6
CONTINUOUS
10
0.82144
20
0.273316
11
0.821195
21
0.273018
0
LINE
8
BLACK
6
CONTINUOUS
10
0.821195
20
0.273018
11
0.820897
21
0.272773
0
LINE
8
BLACK
6
CONTINUOUS
10
0.820897
20
0.272773
11
0.820556
21
0.272591
0
LINE
8
BLACK
6
CONTINUOUS
10
0.820556
20
0.272591
11
0.820187
21
0.272479
0
LINE
8
BLACK
6
CONTINUOUS
10
0.820187
20
0.272479
11
0.819803
21
0.272441
0
LINE
8
BLACK
6
CONTINUOUS
10
0.819803
20
0.272441
11
0.802087
21
0.272441
0
LINE
8
BLACK
6
CONTINUOUS
10
0.802087
20
0.272441
11
0.801703
21
0.272479
0
LINE
8
BLACK
6
CONTINUOUS
10
0.801703
20
0.272479
11
0.801333
21
0.272591
0
LINE
8
BLACK
6
CONTINUOUS
10
0.801333
20
0.272591
11
0.800993
21
0.272773
0
LINE
8
BLACK
6
CONTINUOUS
10
0.800993
20
0.272773
11
0.800695
21
0.273018
0
LINE
8
BLACK
6
CONTINUOUS
10
0.800695
20
0.273018
11
0.80045
21
0.273316
0
LINE
8
BLACK
6
CONTINUOUS
10
0.80045
20
0.273316
11
0.800268
21
0.273656
0
LINE
8
BLACK
6
CONTINUOUS
10
0.800268
20
0.273656
11
0.800156
21
0.274025
0
LINE
8
BLACK
6
CONTINUOUS
10
0.800156
20
0.274025
11
0.800118
21
0.274409
0
LINE
8
BLACK
6
CONTINUOUS
10
0.800118
20
0.274409
11
0.800118
21
0.278346
0
LINE
8
BLACK
6
CONTINUOUS
10
0.800118
20
0.278346
11
0.800156
21
0.278731
0
LINE
8
BLACK
6
CONTINUOUS
10
0.800156
20
0.278731
11
0.800268
21
0.2791
0
LINE
8
BLACK
6
CONTINUOUS
10
0.800268
20
0.2791
11
0.80045
21
0.27944
0
LINE
8
BLACK
6
CONTINUOUS
10
0.80045
20
0.27944
11
0.800695
21
0.279738
0
LINE
8
BLACK
6
CONTINUOUS
10
0.800695
20
0.279738
11
0.800993
21
0.279983
0
LINE
8
BLACK
6
CONTINUOUS
10
0.800993
20
0.279983
11
0.801333
21
0.280165
0
LINE
8
BLACK
6
CONTINUOUS
10
0.801333
20
0.280165
11
0.801703
21
0.280277
0
LINE
8
BLACK
6
CONTINUOUS
10
0.801703
20
0.280277
11
0.802087
21
0.280315
0
LINE
8
BLACK
6
CONTINUOUS
10
0.802087
20
0.280315
11
0.819803
21
0.280315
0
LINE
8
BLACK
6
CONTINUOUS
10
0.819803
20
0.280315
11
0.820187
21
0.280277
0
LINE
8
BLACK
6
CONTINUOUS
10
0.0879921
20
0.275
11
-0.0537402
21
0.275
0
LINE
8
BLACK
6
CONTINUOUS
10
-0.0537402
20
0.275
11
-0.0537402
21
0.325
0
LINE
8
BLACK
6
CONTINUOUS
10
-0.0537402
20
0.325
11
0.0879921
21
0.325
0
LINE
8
BLACK
6
CONTINUOUS
10
0.0879921
20
0.325
11
0.0879921
21
0.275
0
LINE
8
BLACK
6
CONTINUOUS
10
0.159288
20
0.318535
11
0.160904
21
0.318045
0
LINE
8
BLACK
6
CONTINUOUS
10
0.160904
20
0.318045
11
0.162393
21
0.317249
0
LINE
8
BLACK
6
CONTINUOUS
10
0.162393
20
0.317249
11
0.163698
21
0.316178
0
LINE
8
BLACK
6
CONTINUOUS
10
0.163698
20
0.316178
11
0.164769
21
0.314873
0
LINE
8
BLACK
6
CONTINUOUS
10
0.164769
20
0.314873
11
0.165565
21
0.313384
0
LINE
8
BLACK
6
CONTINUOUS
10
0.165565
20
0.313384
11
0.166055
21
0.311769
0
LINE
8
BLACK
6
CONTINUOUS
10
0.166055
20
0.311769
11
0.16622
21
0.310089
0
LINE
8
BLACK
6
CONTINUOUS
10
0.16622
20
0.310089
11
0.16622
21
0.289911
0
LINE
8
BLACK
6
CONTINUOUS
10
0.16622
20
0.289911
11
0.166055
21
0.288231
0
LINE
8
BLACK
6
CONTINUOUS
10
0.166055
20
0.288231
11
0.165565
21
0.286616
0
LINE
8
BLACK
6
CONTINUOUS
10
0.165565
20
0.286616
11
0.164769
21
0.285127
0
LINE
8
BLACK
6
CONTINUOUS
10
0.164769
20
0.285127
11
0.163698
21
0.283822
0
LINE
8
BLACK
6
CONTINUOUS
10
0.163698
20
0.283822
11
0.162393
21
0.282751
0
LINE
8
BLACK
6
CONTINUOUS
10
0.162393
20
0.282751
11
0.160904
21
0.281955
0
LINE
8
BLACK
6
CONTINUOUS
10
0.160904
20
0.281955
11
0.159288
21
0.281465
0
LINE
8
BLACK
6
CONTINUOUS
10
0.159288
20
0.281465
11
0.157608
21
0.281299
0
LINE
8
BLACK
6
CONTINUOUS
10
0.157608
20
0.281299
11
0.140384
21
0.281299
0
LINE
8
BLACK
6
CONTINUOUS
10
0.140384
20
0.281299
11
0.138704
21
0.281465
0
LINE
8
BLACK
6
CONTINUOUS
10
0.138704
20
0.281465
11
0.137088
21
0.281955
0
LINE
8
BLACK
6
CONTINUOUS
10
0.137088
20
0.281955
11
0.135599
21
0.282751
0
LINE
8
BLACK
6
CONTINUOUS
10
0.135599
20
0.282751
11
0.134294
21
0.283822
0
LINE
8
BLACK
6
CONTINUOUS
10
0.134294
20
0.283822
11
0.133223
21
0.285127
0
LINE
8
BLACK
6
CONTINUOUS
10
0.133223
20
0.285127
11
0.132427
21
0.286616
0
LINE
8
BLACK
6
CONTINUOUS
10
0.132427
20
0.286616
11
0.131937
21
0.288231
0
LINE
8
BLACK
6
CONTINUOUS
10
0.131937
20
0.288231
11
0.131772
21
0.289911
0
LINE
8
BLACK
6
CONTINUOUS
10
0.131772
20
0.289911
11
0.131772
21
0.310089
0
LINE
8
BLACK
6
CONTINUOUS
10
0.131772
20
0.310089
11
0.131937
21
0.311769
0
LINE
8
BLACK
6
CONTINUOUS
10
0.131937
20
0.311769
11
0.132427
21
0.313384
0
LINE
8
BLACK
6
CONTINUOUS
10
0.132427
20
0.313384
11
0.133223
21
0.314873
0
LINE
8
BLACK
6
CONTINUOUS
10
0.133223
20
0.314873
11
0.134294
21
0.316178
0
LINE
8
BLACK
6
CONTINUOUS
10
0.134294
20
0.316178
11
0.135599
21
0.317249
0
LINE
8
BLACK
6
CONTINUOUS
10
0.135599
20
0.317249
11
0.137088
21
0.318045
0
LINE
8
BLACK
6
CONTINUOUS
10
0.137088
20
0.318045
11
0.138704
21
0.318535
0
LINE
8
BLACK
6
CONTINUOUS
10
0.138704
20
0.318535
11
0.140384
21
0.318701
0
LINE
8
BLACK
6
CONTINUOUS
10
0.140384
20
0.318701
11
0.157608
21
0.318701
0
LINE
8
BLACK
6
CONTINUOUS
10
0.157608
20
0.318701
11
0.159288
21
0.318535
0
LINE
8
BLACK
6
CONTINUOUS
10
0.221296
20
0.318535
11
0.222912
21
0.318045
0
LINE
8
BLACK
6
CONTINUOUS
10
0.222912
20
0.318045
11
0.224401
21
0.317249
0
LINE
8
BLACK
6
CONTINUOUS
10
0.224401
20
0.317249
11
0.225706
21
0.316178
0
LINE
8
BLACK
6
CONTINUOUS
10
0.225706
20
0.316178
11
0.226777
21
0.314873
0
LINE
8
BLACK
6
CONTINUOUS
10
0.226777
20
0.314873
11
0.227573
21
0.313384
0
LINE
8
BLACK
6
CONTINUOUS
10
0.227573
20
0.313384
11
0.228063
21
0.311769
0
LINE
8
BLACK
6
CONTINUOUS
10
0.228063
20
0.311769
11
0.228228
21
0.310089
0
LINE
8
BLACK
6
CONTINUOUS
10
0.228228
20
0.310089
11
0.228228
21
0.289911
0
LINE
8
BLACK
6
CONTINUOUS
10
0.228228
20
0.289911
11
0.228063
21
0.288231
0
LINE
8
BLACK
6
CONTINUOUS
10
0.228063
20
0.288231
11
0.227573
21
0.286616
0
LINE
8
BLACK
6
CONTINUOUS
10
0.227573
20
0.286616
11
0.226777
21
0.285127
0
LINE
8
BLACK
6
CONTINUOUS
10
0.226777
20
0.285127
11
0.225706
21
0.283822
0
LINE
8
BLACK
6
CONTINUOUS
10
0.225706
20
0.283822
11
0.224401
21
0.282751
0
LINE
8
BLACK
6
CONTINUOUS
10
0.224401
20
0.282751
11
0.222912
21
0.281955
0
LINE
8
BLACK
6
CONTINUOUS
10
0.222912
20
0.281955
11
0.221296
21
0.281465
0
LINE
8
BLACK
6
CONTINUOUS
10
0.221296
20
0.281465
11
0.219616
21
0.281299
0
LINE
8
BLACK
6
CONTINUOUS
10
0.219616
20
0.281299
11
0.202392
21
0.281299
0
LINE
8
BLACK
6
CONTINUOUS
10
0.202392
20
0.281299
11
0.200712
21
0.281465
0
LINE
8
BLACK
6
CONTINUOUS
10
0.200712
20
0.281465
11
0.199096
21
0.281955
0
LINE
8
BLACK
6
CONTINUOUS
10
0.199096
20
0.281955
11
0.197607
21
0.282751
0
LINE
8
BLACK
6
CONTINUOUS
10
0.197607
20
0.282751
11
0.196302
21
0.283822
0
LINE
8
BLACK
6
CONTINUOUS
10
0.196302
20
0.283822
11
0.195231
21
0.285127
0
LINE
8
BLACK
6
CONTINUOUS
10
0.195231
20
0.285127
11
0.194435
21
0.286616
0
LINE
8
BLACK
6
CONTINUOUS
10
0.194435
20
0.286616
11
0.193945
21
0.288231
0
LINE
8
BLACK
6
CONTINUOUS
10
0.193945
20
0.288231
11
0.19378
21
0.289911
0
LINE
8
BLACK
6
CONTINUOUS
10
0.19378
20
0.289911
11
0.19378
21
0.310089
0
LINE
8
BLACK
6
CONTINUOUS
10
0.19378
20
0.310089
11
0.193945
21
0.311769
0
LINE
8
BLACK
6
CONTINUOUS
10
0.193945
20
0.311769
11
0.194435
21
0.313384
0
LINE
8
BLACK
6
CONTINUOUS
10
0.194435
20
0.313384
11
0.195231
21
0.314873
0
LINE
8
BLACK
6
CONTINUOUS
10
0.195231
20
0.314873
11
0.196302
21
0.316178
0
LINE
8
BLACK
6
CONTINUOUS
10
0.196302
20
0.316178
11
0.197607
21
0.317249
0
LINE
8
BLACK
6
CONTINUOUS
10
0.197607
20
0.317249
11
0.199096
21
0.318045
0
LINE
8
BLACK
6
CONTINUOUS
10
0.199096
20
0.318045
11
0.200712
21
0.318535
0
LINE
8
BLACK
6
CONTINUOUS
10
0.200712
20
0.318535
11
0.202392
21
0.318701
0
LINE
8
BLACK
6
CONTINUOUS
10
0.202392
20
0.318701
11
0.219616
21
0.318701
0
LINE
8
BLACK
6
CONTINUOUS
10
0.219616
20
0.318701
11
0.221296
21
0.318535
0
LINE
8
BLACK
6
CONTINUOUS
10
0.938297
20
0.296025
11
0.938667
21
0.295913
0
LINE
8
BLACK
6
CONTINUOUS
10
0.938667
20
0.295913
11
0.939007
21
0.295731
0
LINE
8
BLACK
6
CONTINUOUS
10
0.939007
20
0.295731
11
0.939305
21
0.295486
0
LINE
8
BLACK
6
CONTINUOUS
10
0.939305
20
0.295486
11
0.93955
21
0.295188
0
LINE
8
BLACK
6
CONTINUOUS
10
0.93955
20
0.295188
11
0.939732
21
0.294848
0
LINE
8
BLACK
6
CONTINUOUS
10
0.939732
20
0.294848
11
0.939844
21
0.294479
0
LINE
8
BLACK
6
CONTINUOUS
10
0.939844
20
0.294479
11
0.939882
21
0.294094
0
LINE
8
BLACK
6
CONTINUOUS
10
0.939882
20
0.294094
11
0.939882
21
0.290157
0
LINE
8
BLACK
6
CONTINUOUS
10
0.939882
20
0.290157
11
0.939844
21
0.289773
0
LINE
8
BLACK
6
CONTINUOUS
10
0.939844
20
0.289773
11
0.939732
21
0.289404
0
LINE
8
BLACK
6
CONTINUOUS
10
0.939732
20
0.289404
11
0.93955
21
0.289064
0
LINE
8
BLACK
6
CONTINUOUS
10
0.93955
20
0.289064
11
0.939305
21
0.288766
0
LINE
8
BLACK
6
CONTINUOUS
10
0.939305
20
0.288766
11
0.939007
21
0.288521
0
LINE
8
BLACK
6
CONTINUOUS
10
0.939007
20
0.288521
11
0.938667
21
0.288339
0
LINE
8
BLACK
6
CONTINUOUS
10
0.938667
20
0.288339
11
0.938297
21
0.288227
0
LINE
8
BLACK
6
CONTINUOUS
10
0.938297
20
0.288227
11
0.937913
21
0.288189
0
LINE
8
BLACK
6
CONTINUOUS
10
0.937913
20
0.288189
11
0.920197
21
0.288189
0
LINE
8
BLACK
6
CONTINUOUS
10
0.920197
20
0.288189
11
0.919813
21
0.288227
0
LINE
8
BLACK
6
CONTINUOUS
10
0.919813
20
0.288227
11
0.919444
21
0.288339
0
LINE
8
BLACK
6
CONTINUOUS
10
0.919444
20
0.288339
11
0.919103
21
0.288521
0
LINE
8
BLACK
6
CONTINUOUS
10
0.919103
20
0.288521
11
0.918805
21
0.288766
0
LINE
8
BLACK
6
CONTINUOUS
10
0.918805
20
0.288766
11
0.91856
21
0.289064
0
LINE
8
BLACK
6
CONTINUOUS
10
0.91856
20
0.289064
11
0.918378
21
0.289404
0
LINE
8
BLACK
6
CONTINUOUS
10
0.918378
20
0.289404
11
0.918266
21
0.289773
0
LINE
8
BLACK
6
CONTINUOUS
10
0.918266
20
0.289773
11
0.918228
21
0.290157
0
LINE
8
BLACK
6
CONTINUOUS
10
0.918228
20
0.290157
11
0.918228
21
0.294094
0
LINE
8
BLACK
6
CONTINUOUS
10
0.918228
20
0.294094
11
0.918266
21
0.294479
0
LINE
8
BLACK
6
CONTINUOUS
10
0.918266
20
0.294479
11
0.918378
21
0.294848
0
LINE
8
BLACK
6
CONTINUOUS
10
0.918378
20
0.294848
11
0.91856
21
0.295188
0
LINE
8
BLACK
6
CONTINUOUS
10
0.91856
20
0.295188
11
0.918805
21
0.295486
0
LINE
8
BLACK
6
CONTINUOUS
10
0.918805
20
0.295486
11
0.919103
21
0.295731
0
LINE
8
BLACK
6
CONTINUOUS
10
0.919103
20
0.295731
11
0.919444
21
0.295913
0
LINE
8
BLACK
6
CONTINUOUS
10
0.919444
20
0.295913
11
0.919813
21
0.296025
0
LINE
8
BLACK
6
CONTINUOUS
10
0.919813
20
0.296025
11
0.920197
21
0.296063
0
LINE
8
BLACK
6
CONTINUOUS
10
0.920197
20
0.296063
11
0.937913
21
0.296063
0
LINE
8
BLACK
6
CONTINUOUS
10
0.937913
20
0.296063
11
0.938297
21
0.296025
0
LINE
8
BLACK
6
CONTINUOUS
10
0.820187
20
0.296025
11
0.820556
21
0.295913
0
LINE
8
BLACK
6
CONTINUOUS
10
0.820556
20
0.295913
11
0.820897
21
0.295731
0
LINE
8
BLACK
6
CONTINUOUS
10
0.820897
20
0.295731
11
0.821195
21
0.295486
0
LINE
8
BLACK
6
CONTINUOUS
10
0.821195
20
0.295486
11
0.82144
21
0.295188
0
LINE
8
BLACK
6
CONTINUOUS
10
0.82144
20
0.295188
11
0.821622
21
0.294848
0
LINE
8
BLACK
6
CONTINUOUS
10
0.821622
20
0.294848
11
0.821734
21
0.294479
0
LINE
8
BLACK
6
CONTINUOUS
10
0.821734
20
0.294479
11
0.821772
21
0.294094
0
LINE
8
BLACK
6
CONTINUOUS
10
0.821772
20
0.294094
11
0.821772
21
0.290157
0
LINE
8
BLACK
6
CONTINUOUS
10
0.821772
20
0.290157
11
0.821734
21
0.289773
0
LINE
8
BLACK
6
CONTINUOUS
10
0.821734
20
0.289773
11
0.821622
21
0.289404
0
LINE
8
BLACK
6
CONTINUOUS
10
0.821622
20
0.289404
11
0.82144
21
0.289064
0
LINE
8
BLACK
6
CONTINUOUS
10
0.82144
20
0.289064
11
0.821195
21
0.288766
0
LINE
8
BLACK
6
CONTINUOUS
10
0.821195
20
0.288766
11
0.820897
21
0.288521
0
LINE
8
BLACK
6
CONTINUOUS
10
0.820897
20
0.288521
11
0.820556
21
0.288339
0
LINE
8
BLACK
6
CONTINUOUS
10
0.820556
20
0.288339
11
0.820187
21
0.288227
0
LINE
8
BLACK
6
CONTINUOUS
10
0.820187
20
0.288227
11
0.819803
21
0.288189
0
LINE
8
BLACK
6
CONTINUOUS
10
0.819803
20
0.288189
11
0.802087
21
0.288189
0
LINE
8
BLACK
6
CONTINUOUS
10
0.802087
20
0.288189
11
0.801703
21
0.288227
0
LINE
8
BLACK
6
CONTINUOUS
10
0.801703
20
0.288227
11
0.801333
21
0.288339
0
LINE
8
BLACK
6
CONTINUOUS
10
0.801333
20
0.288339
11
0.800993
21
0.288521
0
LINE
8
BLACK
6
CONTINUOUS
10
0.800993
20
0.288521
11
0.800695
21
0.288766
0
LINE
8
BLACK
6
CONTINUOUS
10
0.800695
20
0.288766
11
0.80045
21
0.289064
0
LINE
8
BLACK
6
CONTINUOUS
10
0.80045
20
0.289064
11
0.800268
21
0.289404
0
LINE
8
BLACK
6
CONTINUOUS
10
0.800268
20
0.289404
11
0.800156
21
0.289773
0
LINE
8
BLACK
6
CONTINUOUS
10
0.800156
20
0.289773
11
0.800118
21
0.290157
0
LINE
8
BLACK
6
CONTINUOUS
10
0.800118
20
0.290157
11
0.800118
21
0.294094
0
LINE
8
BLACK
6
CONTINUOUS
10
0.800118
20
0.294094
11
0.800156
21
0.294479
0
LINE
8
BLACK
6
CONTINUOUS
10
0.800156
20
0.294479
11
0.800268
21
0.294848
0
LINE
8
BLACK
6
CONTINUOUS
10
0.800268
20
0.294848
11
0.80045
21
0.295188
0
LINE
8
BLACK
6
CONTINUOUS
10
0.80045
20
0.295188
11
0.800695
21
0.295486
0
LINE
8
BLACK
6
CONTINUOUS
10
0.800695
20
0.295486
11
0.800993
21
0.295731
0
LINE
8
BLACK
6
CONTINUOUS
10
0.800993
20
0.295731
11
0.801333
21
0.295913
0
LINE
8
BLACK
6
CONTINUOUS
10
0.801333
20
0.295913
11
0.801703
21
0.296025
0
LINE
8
BLACK
6
CONTINUOUS
10
0.801703
20
0.296025
11
0.802087
21
0.296063
0
LINE
8
BLACK
6
CONTINUOUS
10
0.802087
20
0.296063
11
0.819803
21
0.296063
0
LINE
8
BLACK
6
CONTINUOUS
10
0.819803
20
0.296063
11
0.820187
21
0.296025
0
LINE
8
BLACK
6
CONTINUOUS
10
0.820187
20
0.311773
11
0.820556
21
0.311661
0
LINE
8
BLACK
6
CONTINUOUS
10
0.820556
20
0.311661
11
0.820897
21
0.311479
0
LINE
8
BLACK
6
CONTINUOUS
10
0.820897
20
0.311479
11
0.821195
21
0.311234
0
LINE
8
BLACK
6
CONTINUOUS
10
0.821195
20
0.311234
11
0.82144
21
0.310936
0
LINE
8
BLACK
6
CONTINUOUS
10
0.82144
20
0.310936
11
0.821622
21
0.310596
0
LINE
8
BLACK
6
CONTINUOUS
10
0.821622
20
0.310596
11
0.821734
21
0.310227
0
LINE
8
BLACK
6
CONTINUOUS
10
0.821734
20
0.310227
11
0.821772
21
0.309843
0
LINE
8
BLACK
6
CONTINUOUS
10
0.821772
20
0.309843
11
0.821772
21
0.305906
0
LINE
8
BLACK
6
CONTINUOUS
10
0.821772
20
0.305906
11
0.821734
21
0.305521
0
LINE
8
BLACK
6
CONTINUOUS
10
0.821734
20
0.305521
11
0.821622
21
0.305152
0
LINE
8
BLACK
6
CONTINUOUS
10
0.821622
20
0.305152
11
0.82144
21
0.304812
0
LINE
8
BLACK
6
CONTINUOUS
10
0.82144
20
0.304812
11
0.821195
21
0.304514
0
LINE
8
BLACK
6
CONTINUOUS
10
0.821195
20
0.304514
11
0.820897
21
0.304269
0
LINE
8
BLACK
6
CONTINUOUS
10
0.820897
20
0.304269
11
0.820556
21
0.304087
0
LINE
8
BLACK
6
CONTINUOUS
10
0.820556
20
0.304087
11
0.820187
21
0.303975
0
LINE
8
BLACK
6
CONTINUOUS
10
0.820187
20
0.303975
11
0.819803
21
0.303937
0
LINE
8
BLACK
6
CONTINUOUS
10
0.819803
20
0.303937
11
0.802087
21
0.303937
0
LINE
8
BLACK
6
CONTINUOUS
10
0.802087
20
0.303937
11
0.801703
21
0.303975
0
LINE
8
BLACK
6
CONTINUOUS
10
0.801703
20
0.303975
11
0.801333
21
0.304087
0
LINE
8
BLACK
6
CONTINUOUS
10
0.801333
20
0.304087
11
0.800993
21
0.304269
0
LINE
8
BLACK
6
CONTINUOUS
10
0.800993
20
0.304269
11
0.800695
21
0.304514
0
LINE
8
BLACK
6
CONTINUOUS
10
0.800695
20
0.304514
11
0.80045
21
0.304812
0
LINE
8
BLACK
6
CONTINUOUS
10
0.80045
20
0.304812
11
0.800268
21
0.305152
0
LINE
8
BLACK
6
CONTINUOUS
10
0.800268
20
0.305152
11
0.800156
21
0.305521
0
LINE
8
BLACK
6
CONTINUOUS
10
0.800156
20
0.305521
11
0.800118
21
0.305906
0
LINE
8
BLACK
6
CONTINUOUS
10
0.800118
20
0.305906
11
0.800118
21
0.309843
0
LINE
8
BLACK
6
CONTINUOUS
10
0.800118
20
0.309843
11
0.800156
21
0.310227
0
LINE
8
BLACK
6
CONTINUOUS
10
0.800156
20
0.310227
11
0.800268
21
0.310596
0
LINE
8
BLACK
6
CONTINUOUS
10
0.800268
20
0.310596
11
0.80045
21
0.310936
0
LINE
8
BLACK
6
CONTINUOUS
10
0.80045
20
0.310936
11
0.800695
21
0.311234
0
LINE
8
BLACK
6
CONTINUOUS
10
0.800695
20
0.311234
11
0.800993
21
0.311479
0
LINE
8
BLACK
6
CONTINUOUS
10
0.800993
20
0.311479
11
0.801333
21
0.311661
0
LINE
8
BLACK
6
CONTINUOUS
10
0.801333
20
0.311661
11
0.801703
21
0.311773
0
LINE
8
BLACK
6
CONTINUOUS
10
0.801703
20
0.311773
11
0.802087
21
0.311811
0
LINE
8
BLACK
6
CONTINUOUS
10
0.802087
20
0.311811
11
0.819803
21
0.311811
0
LINE
8
BLACK
6
CONTINUOUS
10
0.819803
20
0.311811
11
0.820187
21
0.311773
0
LINE
8
BLACK
6
CONTINUOUS
10
0.938297
20
0.311773
11
0.938667
21
0.311661
0
LINE
8
BLACK
6
CONTINUOUS
10
0.938667
20
0.311661
11
0.939007
21
0.311479
0
LINE
8
BLACK
6
CONTINUOUS
10
0.939007
20
0.311479
11
0.939305
21
0.311234
0
LINE
8
BLACK
6
CONTINUOUS
10
0.939305
20
0.311234
11
0.93955
21
0.310936
0
LINE
8
BLACK
6
CONTINUOUS
10
0.93955
20
0.310936
11
0.939732
21
0.310596
0
LINE
8
BLACK
6
CONTINUOUS
10
0.939732
20
0.310596
11
0.939844
21
0.310227
0
LINE
8
BLACK
6
CONTINUOUS
10
0.939844
20
0.310227
11
0.939882
21
0.309843
0
LINE
8
BLACK
6
CONTINUOUS
10
0.939882
20
0.309843
11
0.939882
21
0.305906
0
LINE
8
BLACK
6
CONTINUOUS
10
0.939882
20
0.305906
11
0.939844
21
0.305521
0
LINE
8
BLACK
6
CONTINUOUS
10
0.939844
20
0.305521
11
0.939732
21
0.305152
0
LINE
8
BLACK
6
CONTINUOUS
10
0.939732
20
0.305152
11
0.93955
21
0.304812
0
LINE
8
BLACK
6
CONTINUOUS
10
0.93955
20
0.304812
11
0.939305
21
0.304514
0
LINE
8
BLACK
6
CONTINUOUS
10
0.939305
20
0.304514
11
0.939007
21
0.304269
0
LINE
8
BLACK
6
CONTINUOUS
10
0.939007
20
0.304269
11
0.938667
21
0.304087
0
LINE
8
BLACK
6
CONTINUOUS
10
0.938667
20
0.304087
11
0.938297
21
0.303975
0
LINE
8
BLACK
6
CONTINUOUS
10
0.938297
20
0.303975
11
0.937913
21
0.303937
0
LINE
8
BLACK
6
CONTINUOUS
10
0.937913
20
0.303937
11
0.920197
21
0.303937
0
LINE
8
BLACK
6
CONTINUOUS
10
0.920197
20
0.303937
11
0.919813
21
0.303975
0
LINE
8
BLACK
6
CONTINUOUS
10
0.919813
20
0.303975
11
0.919444
21
0.304087
0
LINE
8
BLACK
6
CONTINUOUS
10
0.919444
20
0.304087
11
0.919103
21
0.304269
0
LINE
8
BLACK
6
CONTINUOUS
10
0.919103
20
0.304269
11
0.918805
21
0.304514
0
LINE
8
BLACK
6
CONTINUOUS
10
0.918805
20
0.304514
11
0.91856
21
0.304812
0
LINE
8
BLACK
6
CONTINUOUS
10
0.91856
20
0.304812
11
0.918378
21
0.305152
0
LINE
8
BLACK
6
CONTINUOUS
10
0.918378
20
0.305152
11
0.918266
21
0.305521
0
LINE
8
BLACK
6
CONTINUOUS
10
0.918266
20
0.305521
11
0.918228
21
0.305906
0
LINE
8
BLACK
6
CONTINUOUS
10
0.918228
20
0.305906
11
0.918228
21
0.309843
0
LINE
8
BLACK
6
CONTINUOUS
10
0.918228
20
0.309843
11
0.918266
21
0.310227
0
LINE
8
BLACK
6
CONTINUOUS
10
0.918266
20
0.310227
11
0.918378
21
0.310596
0
LINE
8
BLACK
6
CONTINUOUS
10
0.918378
20
0.310596
11
0.91856
21
0.310936
0
LINE
8
BLACK
6
CONTINUOUS
10
0.91856
20
0.310936
11
0.918805
21
0.311234
0
LINE
8
BLACK
6
CONTINUOUS
10
0.918805
20
0.311234
11
0.919103
21
0.311479
0
LINE
8
BLACK
6
CONTINUOUS
10
0.919103
20
0.311479
11
0.919444
21
0.311661
0
LINE
8
BLACK
6
CONTINUOUS
10
0.919444
20
0.311661
11
0.919813
21
0.311773
0
LINE
8
BLACK
6
CONTINUOUS
10
0.919813
20
0.311773
11
0.920197
21
0.311811
0
LINE
8
BLACK
6
CONTINUOUS
10
0.920197
20
0.311811
11
0.937913
21
0.311811
0
LINE
8
BLACK
6
CONTINUOUS
10
0.937913
20
0.311811
11
0.938297
21
0.311773
0
LINE
8
BLACK
6
CONTINUOUS
10
0.820187
20
0.327521
11
0.820556
21
0.327409
0
LINE
8
BLACK
6
CONTINUOUS
10
0.820556
20
0.327409
11
0.820897
21
0.327227
0
LINE
8
BLACK
6
CONTINUOUS
10
0.820897
20
0.327227
11
0.821195
21
0.326982
0
LINE
8
BLACK
6
CONTINUOUS
10
0.821195
20
0.326982
11
0.82144
21
0.326684
0
LINE
8
BLACK
6
CONTINUOUS
10
0.82144
20
0.326684
11
0.821622
21
0.326344
0
LINE
8
BLACK
6
CONTINUOUS
10
0.821622
20
0.326344
11
0.821734
21
0.325975
0
LINE
8
BLACK
6
CONTINUOUS
10
0.821734
20
0.325975
11
0.821772
21
0.325591
0
LINE
8
BLACK
6
CONTINUOUS
10
0.821772
20
0.325591
11
0.821772
21
0.321654
0
LINE
8
BLACK
6
CONTINUOUS
10
0.821772
20
0.321654
11
0.821734
21
0.321269
0
LINE
8
BLACK
6
CONTINUOUS
10
0.821734
20
0.321269
11
0.821622
21
0.3209
0
LINE
8
BLACK
6
CONTINUOUS
10
0.821622
20
0.3209
11
0.82144
21
0.32056
0
LINE
8
BLACK
6
CONTINUOUS
10
0.82144
20
0.32056
11
0.821195
21
0.320262
0
LINE
8
BLACK
6
CONTINUOUS
10
0.821195
20
0.320262
11
0.820897
21
0.320017
0
LINE
8
BLACK
6
CONTINUOUS
10
0.820897
20
0.320017
11
0.820556
21
0.319835
0
LINE
8
BLACK
6
CONTINUOUS
10
0.820556
20
0.319835
11
0.820187
21
0.319723
0
LINE
8
BLACK
6
CONTINUOUS
10
0.820187
20
0.319723
11
0.819803
21
0.319685
0
LINE
8
BLACK
6
CONTINUOUS
10
0.819803
20
0.319685
11
0.802087
21
0.319685
0
LINE
8
BLACK
6
CONTINUOUS
10
0.802087
20
0.319685
11
0.801703
21
0.319723
0
LINE
8
BLACK
6
CONTINUOUS
10
0.801703
20
0.319723
11
0.801333
21
0.319835
0
LINE
8
BLACK
6
CONTINUOUS
10
0.801333
20
0.319835
11
0.800993
21
0.320017
0
LINE
8
BLACK
6
CONTINUOUS
10
0.800993
20
0.320017
11
0.800695
21
0.320262
0
LINE
8
BLACK
6
CONTINUOUS
10
0.800695
20
0.320262
11
0.80045
21
0.32056
0
LINE
8
BLACK
6
CONTINUOUS
10
0.80045
20
0.32056
11
0.800268
21
0.3209
0
LINE
8
BLACK
6
CONTINUOUS
10
0.800268
20
0.3209
11
0.800156
21
0.321269
0
LINE
8
BLACK
6
CONTINUOUS
10
0.800156
20
0.321269
11
0.800118
21
0.321654
0
LINE
8
BLACK
6
CONTINUOUS
10
0.800118
20
0.321654
11
0.800118
21
0.325591
0
LINE
8
BLACK
6
CONTINUOUS
10
0.800118
20
0.325591
11
0.800156
21
0.325975
0
LINE
8
BLACK
6
CONTINUOUS
10
0.800156
20
0.325975
11
0.800268
21
0.326344
0
LINE
8
BLACK
6
CONTINUOUS
10
0.800268
20
0.326344
11
0.80045
21
0.326684
0
LINE
8
BLACK
6
CONTINUOUS
10
0.80045
20
0.326684
11
0.800695
21
0.326982
0
LINE
8
BLACK
6
CONTINUOUS
10
0.800695
20
0.326982
11
0.800993
21
0.327227
0
LINE
8
BLACK
6
CONTINUOUS
10
0.800993
20
0.327227
11
0.801333
21
0.327409
0
LINE
8
BLACK
6
CONTINUOUS
10
0.801333
20
0.327409
11
0.801703
21
0.327521
0
LINE
8
BLACK
6
CONTINUOUS
10
0.801703
20
0.327521
11
0.802087
21
0.327559
0
LINE
8
BLACK
6
CONTINUOUS
10
0.802087
20
0.327559
11
0.819803
21
0.327559
0
LINE
8
BLACK
6
CONTINUOUS
10
0.819803
20
0.327559
11
0.820187
21
0.327521
0
LINE
8
BLACK
6
CONTINUOUS
10
0.938297
20
0.327521
11
0.938667
21
0.327409
0
LINE
8
BLACK
6
CONTINUOUS
10
0.938667
20
0.327409
11
0.939007
21
0.327227
0
LINE
8
BLACK
6
CONTINUOUS
10
0.939007
20
0.327227
11
0.939305
21
0.326982
0
LINE
8
BLACK
6
CONTINUOUS
10
0.939305
20
0.326982
11
0.93955
21
0.326684
0
LINE
8
BLACK
6
CONTINUOUS
10
0.93955
20
0.326684
11
0.939732
21
0.326344
0
LINE
8
BLACK
6
CONTINUOUS
10
0.939732
20
0.326344
11
0.939844
21
0.325975
0
LINE
8
BLACK
6
CONTINUOUS
10
0.939844
20
0.325975
11
0.939882
21
0.325591
0
LINE
8
BLACK
6
CONTINUOUS
10
0.939882
20
0.325591
11
0.939882
21
0.321654
0
LINE
8
BLACK
6
CONTINUOUS
10
0.939882
20
0.321654
11
0.939844
21
0.321269
0
LINE
8
BLACK
6
CONTINUOUS
10
0.939844
20
0.321269
11
0.939732
21
0.3209
0
LINE
8
BLACK
6
CONTINUOUS
10
0.939732
20
0.3209
11
0.93955
21
0.32056
0
LINE
8
BLACK
6
CONTINUOUS
10
0.93955
20
0.32056
11
0.939305
21
0.320262
0
LINE
8
BLACK
6
CONTINUOUS
10
0.939305
20
0.320262
11
0.939007
21
0.320017
0
LINE
8
BLACK
6
CONTINUOUS
10
0.939007
20
0.320017
11
0.938667
21
0.319835
0
LINE
8
BLACK
6
CONTINUOUS
10
0.938667
20
0.319835
11
0.938297
21
0.319723
0
LINE
8
BLACK
6
CONTINUOUS
10
0.938297
20
0.319723
11
0.937913
21
0.319685
0
LINE
8
BLACK
6
CONTINUOUS
10
0.937913
20
0.319685
11
0.920197
21
0.319685
0
LINE
8
BLACK
6
CONTINUOUS
10
0.920197
20
0.319685
11
0.919813
21
0.319723
0
LINE
8
BLACK
6
CONTINUOUS
10
0.919813
20
0.319723
11
0.919444
21
0.319835
0
LINE
8
BLACK
6
CONTINUOUS
10
0.919444
20
0.319835
11
0.919103
21
0.320017
0
LINE
8
BLACK
6
CONTINUOUS
10
0.919103
20
0.320017
11
0.918805
21
0.320262
0
LINE
8
BLACK
6
CONTINUOUS
10
0.918805
20
0.320262
11
0.91856
21
0.32056
0
LINE
8
BLACK
6
CONTINUOUS
10
0.91856
20
0.32056
11
0.918378
21
0.3209
0
LINE
8
BLACK
6
CONTINUOUS
10
0.918378
20
0.3209
11
0.918266
21
0.321269
0
LINE
8
BLACK
6
CONTINUOUS
10
0.918266
20
0.321269
11
0.918228
21
0.321654
0
LINE
8
BLACK
6
CONTINUOUS
10
0.918228
20
0.321654
11
0.918228
21
0.325591
0
LINE
8
BLACK
6
CONTINUOUS
10
0.918228
20
0.325591
11
0.918266
21
0.325975
0
LINE
8
BLACK
6
CONTINUOUS
10
0.918266
20
0.325975
11
0.918378
21
0.326344
0
LINE
8
BLACK
6
CONTINUOUS
10
0.918378
20
0.326344
11
0.91856
21
0.326684
0
LINE
8
BLACK
6
CONTINUOUS
10
0.91856
20
0.326684
11
0.918805
21
0.326982
0
LINE
8
BLACK
6
CONTINUOUS
10
0.918805
20
0.326982
11
0.919103
21
0.327227
0
LINE
8
BLACK
6
CONTINUOUS
10
0.919103
20
0.327227
11
0.919444
21
0.327409
0
LINE
8
BLACK
6
CONTINUOUS
10
0.919444
20
0.327409
11
0.919813
21
0.327521
0
LINE
8
BLACK
6
CONTINUOUS
10
0.919813
20
0.327521
11
0.920197
21
0.327559
0
LINE
8
BLACK
6
CONTINUOUS
10
0.920197
20
0.327559
11
0.937913
21
0.327559
0
LINE
8
BLACK
6
CONTINUOUS
10
0.937913
20
0.327559
11
0.938297
21
0.327521
0
LINE
8
BLACK
6
CONTINUOUS
10
0.699288
20
0.358535
11
0.700904
21
0.358045
0
LINE
8
BLACK
6
CONTINUOUS
10
0.700904
20
0.358045
11
0.702393
21
0.357249
0
LINE
8
BLACK
6
CONTINUOUS
10
0.702393
20
0.357249
11
0.703698
21
0.356178
0
LINE
8
BLACK
6
CONTINUOUS
10
0.703698
20
0.356178
11
0.704769
21
0.354873
0
LINE
8
BLACK
6
CONTINUOUS
10
0.704769
20
0.354873
11
0.705565
21
0.353384
0
LINE
8
BLACK
6
CONTINUOUS
10
0.705565
20
0.353384
11
0.706055
21
0.351769
0
LINE
8
BLACK
6
CONTINUOUS
10
0.706055
20
0.351769
11
0.70622
21
0.350089
0
LINE
8
BLACK
6
CONTINUOUS
10
0.70622
20
0.350089
11
0.70622
21
0.329911
0
LINE
8
BLACK
6
CONTINUOUS
10
0.70622
20
0.329911
11
0.706055
21
0.328231
0
LINE
8
BLACK
6
CONTINUOUS
10
0.706055
20
0.328231
11
0.705565
21
0.326616
0
LINE
8
BLACK
6
CONTINUOUS
10
0.705565
20
0.326616
11
0.704769
21
0.325127
0
LINE
8
BLACK
6
CONTINUOUS
10
0.704769
20
0.325127
11
0.703698
21
0.323822
0
LINE
8
BLACK
6
CONTINUOUS
10
0.703698
20
0.323822
11
0.702393
21
0.322751
0
LINE
8
BLACK
6
CONTINUOUS
10
0.702393
20
0.322751
11
0.700904
21
0.321955
0
LINE
8
BLACK
6
CONTINUOUS
10
0.700904
20
0.321955
11
0.699288
21
0.321465
0
LINE
8
BLACK
6
CONTINUOUS
10
0.699288
20
0.321465
11
0.697608
21
0.321299
0
LINE
8
BLACK
6
CONTINUOUS
10
0.697608
20
0.321299
11
0.680384
21
0.321299
0
LINE
8
BLACK
6
CONTINUOUS
10
0.680384
20
0.321299
11
0.678704
21
0.321465
0
LINE
8
BLACK
6
CONTINUOUS
10
0.678704
20
0.321465
11
0.677088
21
0.321955
0
LINE
8
BLACK
6
CONTINUOUS
10
0.677088
20
0.321955
11
0.675599
21
0.322751
0
LINE
8
BLACK
6
CONTINUOUS
10
0.675599
20
0.322751
11
0.674294
21
0.323822
0
LINE
8
BLACK
6
CONTINUOUS
10
0.674294
20
0.323822
11
0.673223
21
0.325127
0
LINE
8
BLACK
6
CONTINUOUS
10
0.673223
20
0.325127
11
0.672427
21
0.326616
0
LINE
8
BLACK
6
CONTINUOUS
10
0.672427
20
0.326616
11
0.671937
21
0.328231
0
LINE
8
BLACK
6
CONTINUOUS
10
0.671937
20
0.328231
11
0.671772
21
0.329911
0
LINE
8
BLACK
6
CONTINUOUS
10
0.671772
20
0.329911
11
0.671772
21
0.350089
0
LINE
8
BLACK
6
CONTINUOUS
10
0.671772
20
0.350089
11
0.671937
21
0.351769
0
LINE
8
BLACK
6
CONTINUOUS
10
0.671937
20
0.351769
11
0.672427
21
0.353384
0
LINE
8
BLACK
6
CONTINUOUS
10
0.672427
20
0.353384
11
0.673223
21
0.354873
0
LINE
8
BLACK
6
CONTINUOUS
10
0.673223
20
0.354873
11
0.674294
21
0.356178
0
LINE
8
BLACK
6
CONTINUOUS
10
0.674294
20
0.356178
11
0.675599
21
0.357249
0
LINE
8
BLACK
6
CONTINUOUS
10
0.675599
20
0.357249
11
0.677088
21
0.358045
0
LINE
8
BLACK
6
CONTINUOUS
10
0.677088
20
0.358045
11
0.678704
21
0.358535
0
LINE
8
BLACK
6
CONTINUOUS
10
0.678704
20
0.358535
11
0.680384
21
0.358701
0
LINE
8
BLACK
6
CONTINUOUS
10
0.680384
20
0.358701
11
0.697608
21
0.358701
0
LINE
8
BLACK
6
CONTINUOUS
10
0.697608
20
0.358701
11
0.699288
21
0.358535
0
LINE
8
BLACK
6
CONTINUOUS
10
0.761296
20
0.358535
11
0.762912
21
0.358045
0
LINE
8
BLACK
6
CONTINUOUS
10
0.762912
20
0.358045
11
0.764401
21
0.357249
0
LINE
8
BLACK
6
CONTINUOUS
10
0.764401
20
0.357249
11
0.765706
21
0.356178
0
LINE
8
BLACK
6
CONTINUOUS
10
0.765706
20
0.356178
11
0.766777
21
0.354873
0
LINE
8
BLACK
6
CONTINUOUS
10
0.766777
20
0.354873
11
0.767573
21
0.353384
0
LINE
8
BLACK
6
CONTINUOUS
10
0.767573
20
0.353384
11
0.768063
21
0.351769
0
LINE
8
BLACK
6
CONTINUOUS
10
0.768063
20
0.351769
11
0.768228
21
0.350089
0
LINE
8
BLACK
6
CONTINUOUS
10
0.768228
20
0.350089
11
0.768228
21
0.329911
0
LINE
8
BLACK
6
CONTINUOUS
10
0.768228
20
0.329911
11
0.768063
21
0.328231
0
LINE
8
BLACK
6
CONTINUOUS
10
0.768063
20
0.328231
11
0.767573
21
0.326616
0
LINE
8
BLACK
6
CONTINUOUS
10
0.767573
20
0.326616
11
0.766777
21
0.325127
0
LINE
8
BLACK
6
CONTINUOUS
10
0.766777
20
0.325127
11
0.765706
21
0.323822
0
LINE
8
BLACK
6
CONTINUOUS
10
0.765706
20
0.323822
11
0.764401
21
0.322751
0
LINE
8
BLACK
6
CONTINUOUS
10
0.764401
20
0.322751
11
0.762912
21
0.321955
0
LINE
8
BLACK
6
CONTINUOUS
10
0.762912
20
0.321955
11
0.761296
21
0.321465
0
LINE
8
BLACK
6
CONTINUOUS
10
0.761296
20
0.321465
11
0.759616
21
0.321299
0
LINE
8
BLACK
6
CONTINUOUS
10
0.759616
20
0.321299
11
0.742392
21
0.321299
0
LINE
8
BLACK
6
CONTINUOUS
10
0.742392
20
0.321299
11
0.740712
21
0.321465
0
LINE
8
BLACK
6
CONTINUOUS
10
0.740712
20
0.321465
11
0.739096
21
0.321955
0
LINE
8
BLACK
6
CONTINUOUS
10
0.739096
20
0.321955
11
0.737607
21
0.322751
0
LINE
8
BLACK
6
CONTINUOUS
10
0.737607
20
0.322751
11
0.736302
21
0.323822
0
LINE
8
BLACK
6
CONTINUOUS
10
0.736302
20
0.323822
11
0.735231
21
0.325127
0
LINE
8
BLACK
6
CONTINUOUS
10
0.735231
20
0.325127
11
0.734435
21
0.326616
0
LINE
8
BLACK
6
CONTINUOUS
10
0.734435
20
0.326616
11
0.733945
21
0.328231
0
LINE
8
BLACK
6
CONTINUOUS
10
0.733945
20
0.328231
11
0.73378
21
0.329911
0
LINE
8
BLACK
6
CONTINUOUS
10
0.73378
20
0.329911
11
0.73378
21
0.350089
0
LINE
8
BLACK
6
CONTINUOUS
10
0.73378
20
0.350089
11
0.733945
21
0.351769
0
LINE
8
BLACK
6
CONTINUOUS
10
0.733945
20
0.351769
11
0.734435
21
0.353384
0
LINE
8
BLACK
6
CONTINUOUS
10
0.734435
20
0.353384
11
0.735231
21
0.354873
0
LINE
8
BLACK
6
CONTINUOUS
10
0.735231
20
0.354873
11
0.736302
21
0.356178
0
LINE
8
BLACK
6
CONTINUOUS
10
0.736302
20
0.356178
11
0.737607
21
0.357249
0
LINE
8
BLACK
6
CONTINUOUS
10
0.737607
20
0.357249
11
0.739096
21
0.358045
0
LINE
8
BLACK
6
CONTINUOUS
10
0.739096
20
0.358045
11
0.740712
21
0.358535
0
LINE
8
BLACK
6
CONTINUOUS
10
0.740712
20
0.358535
11
0.742392
21
0.358701
0
LINE
8
BLACK
6
CONTINUOUS
10
0.742392
20
0.358701
11
0.759616
21
0.358701
0
LINE
8
BLACK
6
CONTINUOUS
10
0.759616
20
0.358701
11
0.761296
21
0.358535
0
LINE
8
BLACK
6
CONTINUOUS
10
0.820187
20
0.343269
11
0.820556
21
0.343157
0
LINE
8
BLACK
6
CONTINUOUS
10
0.820556
20
0.343157
11
0.820897
21
0.342975
0
LINE
8
BLACK
6
CONTINUOUS
10
0.820897
20
0.342975
11
0.821195
21
0.342731
0
LINE
8
BLACK
6
CONTINUOUS
10
0.821195
20
0.342731
11
0.82144
21
0.342432
0
LINE
8
BLACK
6
CONTINUOUS
10
0.82144
20
0.342432
11
0.821622
21
0.342092
0
LINE
8
BLACK
6
CONTINUOUS
10
0.821622
20
0.342092
11
0.821734
21
0.341723
0
LINE
8
BLACK
6
CONTINUOUS
10
0.821734
20
0.341723
11
0.821772
21
0.341339
0
LINE
8
BLACK
6
CONTINUOUS
10
0.821772
20
0.341339
11
0.821772
21
0.337402
0
LINE
8
BLACK
6
CONTINUOUS
10
0.821772
20
0.337402
11
0.821734
21
0.337018
0
LINE
8
BLACK
6
CONTINUOUS
10
0.821734
20
0.337018
11
0.821622
21
0.336648
0
LINE
8
BLACK
6
CONTINUOUS
10
0.821622
20
0.336648
11
0.82144
21
0.336308
0
LINE
8
BLACK
6
CONTINUOUS
10
0.82144
20
0.336308
11
0.821195
21
0.33601
0
LINE
8
BLACK
6
CONTINUOUS
10
0.821195
20
0.33601
11
0.820897
21
0.335765
0
LINE
8
BLACK
6
CONTINUOUS
10
0.820897
20
0.335765
11
0.820556
21
0.335583
0
LINE
8
BLACK
6
CONTINUOUS
10
0.820556
20
0.335583
11
0.820187
21
0.335471
0
LINE
8
BLACK
6
CONTINUOUS
10
0.820187
20
0.335471
11
0.819803
21
0.335433
0
LINE
8
BLACK
6
CONTINUOUS
10
0.819803
20
0.335433
11
0.802087
21
0.335433
0
LINE
8
BLACK
6
CONTINUOUS
10
0.802087
20
0.335433
11
0.801703
21
0.335471
0
LINE
8
BLACK
6
CONTINUOUS
10
0.801703
20
0.335471
11
0.801333
21
0.335583
0
LINE
8
BLACK
6
CONTINUOUS
10
0.801333
20
0.335583
11
0.800993
21
0.335765
0
LINE
8
BLACK
6
CONTINUOUS
10
0.800993
20
0.335765
11
0.800695
21
0.33601
0
LINE
8
BLACK
6
CONTINUOUS
10
0.800695
20
0.33601
11
0.80045
21
0.336308
0
LINE
8
BLACK
6
CONTINUOUS
10
0.80045
20
0.336308
11
0.800268
21
0.336648
0
LINE
8
BLACK
6
CONTINUOUS
10
0.800268
20
0.336648
11
0.800156
21
0.337018
0
LINE
8
BLACK
6
CONTINUOUS
10
0.800156
20
0.337018
11
0.800118
21
0.337402
0
LINE
8
BLACK
6
CONTINUOUS
10
0.800118
20
0.337402
11
0.800118
21
0.341339
0
LINE
8
BLACK
6
CONTINUOUS
10
0.800118
20
0.341339
11
0.800156
21
0.341723
0
LINE
8
BLACK
6
CONTINUOUS
10
0.800156
20
0.341723
11
0.800268
21
0.342092
0
LINE
8
BLACK
6
CONTINUOUS
10
0.800268
20
0.342092
11
0.80045
21
0.342432
0
LINE
8
BLACK
6
CONTINUOUS
10
0.80045
20
0.342432
11
0.800695
21
0.342731
0
LINE
8
BLACK
6
CONTINUOUS
10
0.800695
20
0.342731
11
0.800993
21
0.342975
0
LINE
8
BLACK
6
CONTINUOUS
10
0.800993
20
0.342975
11
0.801333
21
0.343157
0
LINE
8
BLACK
6
CONTINUOUS
10
0.801333
20
0.343157
11
0.801703
21
0.343269
0
LINE
8
BLACK
6
CONTINUOUS
10
0.801703
20
0.343269
11
0.802087
21
0.343307
0
LINE
8
BLACK
6
CONTINUOUS
10
0.802087
20
0.343307
11
0.819803
21
0.343307
0
LINE
8
BLACK
6
CONTINUOUS
10
0.819803
20
0.343307
11
0.820187
21
0.343269
0
LINE
8
BLACK
6
CONTINUOUS
10
0.938297
20
0.343269
11
0.938667
21
0.343157
0
LINE
8
BLACK
6
CONTINUOUS
10
0.938667
20
0.343157
11
0.939007
21
0.342975
0
LINE
8
BLACK
6
CONTINUOUS
10
0.939007
20
0.342975
11
0.939305
21
0.342731
0
LINE
8
BLACK
6
CONTINUOUS
10
0.939305
20
0.342731
11
0.93955
21
0.342432
0
LINE
8
BLACK
6
CONTINUOUS
10
0.93955
20
0.342432
11
0.939732
21
0.342092
0
LINE
8
BLACK
6
CONTINUOUS
10
0.939732
20
0.342092
11
0.939844
21
0.341723
0
LINE
8
BLACK
6
CONTINUOUS
10
0.939844
20
0.341723
11
0.939882
21
0.341339
0
LINE
8
BLACK
6
CONTINUOUS
10
0.939882
20
0.341339
11
0.939882
21
0.337402
0
LINE
8
BLACK
6
CONTINUOUS
10
0.939882
20
0.337402
11
0.939844
21
0.337018
0
LINE
8
BLACK
6
CONTINUOUS
10
0.939844
20
0.337018
11
0.939732
21
0.336648
0
LINE
8
BLACK
6
CONTINUOUS
10
0.939732
20
0.336648
11
0.93955
21
0.336308
0
LINE
8
BLACK
6
CONTINUOUS
10
0.93955
20
0.336308
11
0.939305
21
0.33601
0
LINE
8
BLACK
6
CONTINUOUS
10
0.939305
20
0.33601
11
0.939007
21
0.335765
0
LINE
8
BLACK
6
CONTINUOUS
10
0.939007
20
0.335765
11
0.938667
21
0.335583
0
LINE
8
BLACK
6
CONTINUOUS
10
0.938667
20
0.335583
11
0.938297
21
0.335471
0
LINE
8
BLACK
6
CONTINUOUS
10
0.938297
20
0.335471
11
0.937913
21
0.335433
0
LINE
8
BLACK
6
CONTINUOUS
10
0.937913
20
0.335433
11
0.920197
21
0.335433
0
LINE
8
BLACK
6
CONTINUOUS
10
0.920197
20
0.335433
11
0.919813
21
0.335471
0
LINE
8
BLACK
6
CONTINUOUS
10
0.919813
20
0.335471
11
0.919444
21
0.335583
0
LINE
8
BLACK
6
CONTINUOUS
10
0.919444
20
0.335583
11
0.919103
21
0.335765
0
LINE
8
BLACK
6
CONTINUOUS
10
0.919103
20
0.335765
11
0.918805
21
0.33601
0
LINE
8
BLACK
6
CONTINUOUS
10
0.918805
20
0.33601
11
0.91856
21
0.336308
0
LINE
8
BLACK
6
CONTINUOUS
10
0.91856
20
0.336308
11
0.918378
21
0.336648
0
LINE
8
BLACK
6
CONTINUOUS
10
0.918378
20
0.336648
11
0.918266
21
0.337018
0
LINE
8
BLACK
6
CONTINUOUS
10
0.918266
20
0.337018
11
0.918228
21
0.337402
0
LINE
8
BLACK
6
CONTINUOUS
10
0.918228
20
0.337402
11
0.918228
21
0.341339
0
LINE
8
BLACK
6
CONTINUOUS
10
0.918228
20
0.341339
11
0.918266
21
0.341723
0
LINE
8
BLACK
6
CONTINUOUS
10
0.918266
20
0.341723
11
0.918378
21
0.342092
0
LINE
8
BLACK
6
CONTINUOUS
10
0.918378
20
0.342092
11
0.91856
21
0.342432
0
LINE
8
BLACK
6
CONTINUOUS
10
0.91856
20
0.342432
11
0.918805
21
0.342731
0
LINE
8
BLACK
6
CONTINUOUS
10
0.918805
20
0.342731
11
0.919103
21
0.342975
0
LINE
8
BLACK
6
CONTINUOUS
10
0.919103
20
0.342975
11
0.919444
21
0.343157
0
LINE
8
BLACK
6
CONTINUOUS
10
0.919444
20
0.343157
11
0.919813
21
0.343269
0
LINE
8
BLACK
6
CONTINUOUS
10
0.919813
20
0.343269
11
0.920197
21
0.343307
0
LINE
8
BLACK
6
CONTINUOUS
10
0.920197
20
0.343307
11
0.937913
21
0.343307
0
LINE
8
BLACK
6
CONTINUOUS
10
0.937913
20
0.343307
11
0.938297
21
0.343269
0
LINE
8
BLACK
6
CONTINUOUS
10
0.226769
20
0.371055
11
0.228384
21
0.370565
0
LINE
8
BLACK
6
CONTINUOUS
10
0.228384
20
0.370565
11
0.229873
21
0.369769
0
LINE
8
BLACK
6
CONTINUOUS
10
0.229873
20
0.369769
11
0.231178
21
0.368698
0
LINE
8
BLACK
6
CONTINUOUS
10
0.231178
20
0.368698
11
0.232249
21
0.367393
0
LINE
8
BLACK
6
CONTINUOUS
10
0.232249
20
0.367393
11
0.233045
21
0.365904
0
LINE
8
BLACK
6
CONTINUOUS
10
0.233045
20
0.365904
11
0.233535
21
0.364288
0
LINE
8
BLACK
6
CONTINUOUS
10
0.233535
20
0.364288
11
0.233701
21
0.362608
0
LINE
8
BLACK
6
CONTINUOUS
10
0.233701
20
0.362608
11
0.233701
21
0.345384
0
LINE
8
BLACK
6
CONTINUOUS
10
0.233701
20
0.345384
11
0.233535
21
0.343704
0
LINE
8
BLACK
6
CONTINUOUS
10
0.233535
20
0.343704
11
0.233045
21
0.342088
0
LINE
8
BLACK
6
CONTINUOUS
10
0.233045
20
0.342088
11
0.232249
21
0.340599
0
LINE
8
BLACK
6
CONTINUOUS
10
0.232249
20
0.340599
11
0.231178
21
0.339294
0
LINE
8
BLACK
6
CONTINUOUS
10
0.231178
20
0.339294
11
0.229873
21
0.338223
0
LINE
8
BLACK
6
CONTINUOUS
10
0.229873
20
0.338223
11
0.228384
21
0.337427
0
LINE
8
BLACK
6
CONTINUOUS
10
0.228384
20
0.337427
11
0.226769
21
0.336937
0
LINE
8
BLACK
6
CONTINUOUS
10
0.226769
20
0.336937
11
0.225089
21
0.336772
0
LINE
8
BLACK
6
CONTINUOUS
10
0.225089
20
0.336772
11
0.204911
21
0.336772
0
LINE
8
BLACK
6
CONTINUOUS
10
0.204911
20
0.336772
11
0.203231
21
0.336937
0
LINE
8
BLACK
6
CONTINUOUS
10
0.203231
20
0.336937
11
0.201616
21
0.337427
0
LINE
8
BLACK
6
CONTINUOUS
10
0.201616
20
0.337427
11
0.200127
21
0.338223
0
LINE
8
BLACK
6
CONTINUOUS
10
0.200127
20
0.338223
11
0.198822
21
0.339294
0
LINE
8
BLACK
6
CONTINUOUS
10
0.198822
20
0.339294
11
0.197751
21
0.340599
0
LINE
8
BLACK
6
CONTINUOUS
10
0.197751
20
0.340599
11
0.196955
21
0.342088
0
LINE
8
BLACK
6
CONTINUOUS
10
0.196955
20
0.342088
11
0.196465
21
0.343704
0
LINE
8
BLACK
6
CONTINUOUS
10
0.196465
20
0.343704
11
0.196299
21
0.345384
0
LINE
8
BLACK
6
CONTINUOUS
10
0.196299
20
0.345384
11
0.196299
21
0.362608
0
LINE
8
BLACK
6
CONTINUOUS
10
0.196299
20
0.362608
11
0.196465
21
0.364288
0
LINE
8
BLACK
6
CONTINUOUS
10
0.196465
20
0.364288
11
0.196955
21
0.365904
0
LINE
8
BLACK
6
CONTINUOUS
10
0.196955
20
0.365904
11
0.197751
21
0.367393
0
LINE
8
BLACK
6
CONTINUOUS
10
0.197751
20
0.367393
11
0.198822
21
0.368698
0
LINE
8
BLACK
6
CONTINUOUS
10
0.198822
20
0.368698
11
0.200127
21
0.369769
0
LINE
8
BLACK
6
CONTINUOUS
10
0.200127
20
0.369769
11
0.201616
21
0.370565
0
LINE
8
BLACK
6
CONTINUOUS
10
0.201616
20
0.370565
11
0.203231
21
0.371055
0
LINE
8
BLACK
6
CONTINUOUS
10
0.203231
20
0.371055
11
0.204911
21
0.37122
0
LINE
8
BLACK
6
CONTINUOUS
10
0.204911
20
0.37122
11
0.225089
21
0.37122
0
LINE
8
BLACK
6
CONTINUOUS
10
0.225089
20
0.37122
11
0.226769
21
0.371055
0
LINE
8
BLACK
6
CONTINUOUS
10
0.166769
20
0.371055
11
0.168384
21
0.370565
0
LINE
8
BLACK
6
CONTINUOUS
10
0.168384
20
0.370565
11
0.169873
21
0.369769
0
LINE
8
BLACK
6
CONTINUOUS
10
0.169873
20
0.369769
11
0.171178
21
0.368698
0
LINE
8
BLACK
6
CONTINUOUS
10
0.171178
20
0.368698
11
0.172249
21
0.367393
0
LINE
8
BLACK
6
CONTINUOUS
10
0.172249
20
0.367393
11
0.173045
21
0.365904
0
LINE
8
BLACK
6
CONTINUOUS
10
0.173045
20
0.365904
11
0.173535
21
0.364288
0
LINE
8
BLACK
6
CONTINUOUS
10
0.173535
20
0.364288
11
0.173701
21
0.362608
0
LINE
8
BLACK
6
CONTINUOUS
10
0.173701
20
0.362608
11
0.173701
21
0.345384
0
LINE
8
BLACK
6
CONTINUOUS
10
0.173701
20
0.345384
11
0.173535
21
0.343704
0
LINE
8
BLACK
6
CONTINUOUS
10
0.173535
20
0.343704
11
0.173045
21
0.342088
0
LINE
8
BLACK
6
CONTINUOUS
10
0.173045
20
0.342088
11
0.172249
21
0.340599
0
LINE
8
BLACK
6
CONTINUOUS
10
0.172249
20
0.340599
11
0.171178
21
0.339294
0
LINE
8
BLACK
6
CONTINUOUS
10
0.171178
20
0.339294
11
0.169873
21
0.338223
0
LINE
8
BLACK
6
CONTINUOUS
10
0.169873
20
0.338223
11
0.168384
21
0.337427
0
LINE
8
BLACK
6
CONTINUOUS
10
0.168384
20
0.337427
11
0.166769
21
0.336937
0
LINE
8
BLACK
6
CONTINUOUS
10
0.166769
20
0.336937
11
0.165089
21
0.336772
0
LINE
8
BLACK
6
CONTINUOUS
10
0.165089
20
0.336772
11
0.144911
21
0.336772
0
LINE
8
BLACK
6
CONTINUOUS
10
0.144911
20
0.336772
11
0.143231
21
0.336937
0
LINE
8
BLACK
6
CONTINUOUS
10
0.143231
20
0.336937
11
0.141616
21
0.337427
0
LINE
8
BLACK
6
CONTINUOUS
10
0.141616
20
0.337427
11
0.140127
21
0.338223
0
LINE
8
BLACK
6
CONTINUOUS
10
0.140127
20
0.338223
11
0.138822
21
0.339294
0
LINE
8
BLACK
6
CONTINUOUS
10
0.138822
20
0.339294
11
0.137751
21
0.340599
0
LINE
8
BLACK
6
CONTINUOUS
10
0.137751
20
0.340599
11
0.136955
21
0.342088
0
LINE
8
BLACK
6
CONTINUOUS
10
0.136955
20
0.342088
11
0.136465
21
0.343704
0
LINE
8
BLACK
6
CONTINUOUS
10
0.136465
20
0.343704
11
0.136299
21
0.345384
0
LINE
8
BLACK
6
CONTINUOUS
10
0.136299
20
0.345384
11
0.136299
21
0.362608
0
LINE
8
BLACK
6
CONTINUOUS
10
0.136299
20
0.362608
11
0.136465
21
0.364288
0
LINE
8
BLACK
6
CONTINUOUS
10
0.136465
20
0.364288
11
0.136955
21
0.365904
0
LINE
8
BLACK
6
CONTINUOUS
10
0.136955
20
0.365904
11
0.137751
21
0.367393
0
LINE
8
BLACK
6
CONTINUOUS
10
0.137751
20
0.367393
11
0.138822
21
0.368698
0
LINE
8
BLACK
6
CONTINUOUS
10
0.138822
20
0.368698
11
0.140127
21
0.369769
0
LINE
8
BLACK
6
CONTINUOUS
10
0.140127
20
0.369769
11
0.141616
21
0.370565
0
LINE
8
BLACK
6
CONTINUOUS
10
0.141616
20
0.370565
11
0.143231
21
0.371055
0
LINE
8
BLACK
6
CONTINUOUS
10
0.143231
20
0.371055
11
0.144911
21
0.37122
0
LINE
8
BLACK
6
CONTINUOUS
10
0.144911
20
0.37122
11
0.165089
21
0.37122
0
LINE
8
BLACK
6
CONTINUOUS
10
0.165089
20
0.37122
11
0.166769
21
0.371055
0
LINE
8
BLACK
6
CONTINUOUS
10
0.0496063
20
0.337402
11
-0.0370079
21
0.337402
0
LINE
8
BLACK
6
CONTINUOUS
10
-0.0370079
20
0.337402
11
-0.0370079
21
0.37874
0
LINE
8
BLACK
6
CONTINUOUS
10
-0.0370079
20
0.37874
11
0.0496063
21
0.37874
0
LINE
8
BLACK
6
CONTINUOUS
10
0.0496063
20
0.37874
11
0.0496063
21
0.337402
0
LINE
8
BLACK
6
CONTINUOUS
10
0.895975
20
0.369844
11
0.896344
21
0.369732
0
LINE
8
BLACK
6
CONTINUOUS
10
0.896344
20
0.369732
11
0.896684
21
0.36955
0
LINE
8
BLACK
6
CONTINUOUS
10
0.896684
20
0.36955
11
0.896982
21
0.369305
0
LINE
8
BLACK
6
CONTINUOUS
10
0.896982
20
0.369305
11
0.897227
21
0.369007
0
LINE
8
BLACK
6
CONTINUOUS
10
0.897227
20
0.369007
11
0.897409
21
0.368667
0
LINE
8
BLACK
6
CONTINUOUS
10
0.897409
20
0.368667
11
0.897521
21
0.368297
0
LINE
8
BLACK
6
CONTINUOUS
10
0.897521
20
0.368297
11
0.897559
21
0.367913
0
LINE
8
BLACK
6
CONTINUOUS
10
0.897559
20
0.367913
11
0.897559
21
0.350197
0
LINE
8
BLACK
6
CONTINUOUS
10
0.897559
20
0.350197
11
0.897521
21
0.349813
0
LINE
8
BLACK
6
CONTINUOUS
10
0.897521
20
0.349813
11
0.897409
21
0.349444
0
LINE
8
BLACK
6
CONTINUOUS
10
0.897409
20
0.349444
11
0.897227
21
0.349103
0
LINE
8
BLACK
6
CONTINUOUS
10
0.897227
20
0.349103
11
0.896982
21
0.348805
0
LINE
8
BLACK
6
CONTINUOUS
10
0.896982
20
0.348805
11
0.896684
21
0.34856
0
LINE
8
BLACK
6
CONTINUOUS
10
0.896684
20
0.34856
11
0.896344
21
0.348378
0
LINE
8
BLACK
6
CONTINUOUS
10
0.896344
20
0.348378
11
0.895975
21
0.348266
0
LINE
8
BLACK
6
CONTINUOUS
10
0.895975
20
0.348266
11
0.895591
21
0.348228
0
LINE
8
BLACK
6
CONTINUOUS
10
0.895591
20
0.348228
11
0.891654
21
0.348228
0
LINE
8
BLACK
6
CONTINUOUS
10
0.891654
20
0.348228
11
0.891269
21
0.348266
0
LINE
8
BLACK
6
CONTINUOUS
10
0.891269
20
0.348266
11
0.8909
21
0.348378
0
LINE
8
BLACK
6
CONTINUOUS
10
0.8909
20
0.348378
11
0.89056
21
0.34856
0
LINE
8
BLACK
6
CONTINUOUS
10
0.89056
20
0.34856
11
0.890262
21
0.348805
0
LINE
8
BLACK
6
CONTINUOUS
10
0.890262
20
0.348805
11
0.890017
21
0.349103
0
LINE
8
BLACK
6
CONTINUOUS
10
0.890017
20
0.349103
11
0.889835
21
0.349444
0
LINE
8
BLACK
6
CONTINUOUS
10
0.889835
20
0.349444
11
0.889723
21
0.349813
0
LINE
8
BLACK
6
CONTINUOUS
10
0.889723
20
0.349813
11
0.889685
21
0.350197
0
LINE
8
BLACK
6
CONTINUOUS
10
0.889685
20
0.350197
11
0.889685
21
0.367913
0
LINE
8
BLACK
6
CONTINUOUS
10
0.889685
20
0.367913
11
0.889723
21
0.368297
0
LINE
8
BLACK
6
CONTINUOUS
10
0.889723
20
0.368297
11
0.889835
21
0.368667
0
LINE
8
BLACK
6
CONTINUOUS
10
0.889835
20
0.368667
11
0.890017
21
0.369007
0
LINE
8
BLACK
6
CONTINUOUS
10
0.890017
20
0.369007
11
0.890262
21
0.369305
0
LINE
8
BLACK
6
CONTINUOUS
10
0.890262
20
0.369305
11
0.89056
21
0.36955
0
LINE
8
BLACK
6
CONTINUOUS
10
0.89056
20
0.36955
11
0.8909
21
0.369732
0
LINE
8
BLACK
6
CONTINUOUS
10
0.8909
20
0.369732
11
0.891269
21
0.369844
0
LINE
8
BLACK
6
CONTINUOUS
10
0.891269
20
0.369844
11
0.891654
21
0.369882
0
LINE
8
BLACK
6
CONTINUOUS
10
0.891654
20
0.369882
11
0.895591
21
0.369882
0
LINE
8
BLACK
6
CONTINUOUS
10
0.895591
20
0.369882
11
0.895975
21
0.369844
0
LINE
8
BLACK
6
CONTINUOUS
10
0.864479
20
0.369844
11
0.864848
21
0.369732
0
LINE
8
BLACK
6
CONTINUOUS
10
0.864848
20
0.369732
11
0.865188
21
0.36955
0
LINE
8
BLACK
6
CONTINUOUS
10
0.865188
20
0.36955
11
0.865486
21
0.369305
0
LINE
8
BLACK
6
CONTINUOUS
10
0.865486
20
0.369305
11
0.865731
21
0.369007
0
LINE
8
BLACK
6
CONTINUOUS
10
0.865731
20
0.369007
11
0.865913
21
0.368667
0
LINE
8
BLACK
6
CONTINUOUS
10
0.865913
20
0.368667
11
0.866025
21
0.368297
0
LINE
8
BLACK
6
CONTINUOUS
10
0.866025
20
0.368297
11
0.866063
21
0.367913
0
LINE
8
BLACK
6
CONTINUOUS
10
0.866063
20
0.367913
11
0.866063
21
0.350197
0
LINE
8
BLACK
6
CONTINUOUS
10
0.866063
20
0.350197
11
0.866025
21
0.349813
0
LINE
8
BLACK
6
CONTINUOUS
10
0.866025
20
0.349813
11
0.865913
21
0.349444
0
LINE
8
BLACK
6
CONTINUOUS
10
0.865913
20
0.349444
11
0.865731
21
0.349103
0
LINE
8
BLACK
6
CONTINUOUS
10
0.865731
20
0.349103
11
0.865486
21
0.348805
0
LINE
8
BLACK
6
CONTINUOUS
10
0.865486
20
0.348805
11
0.865188
21
0.34856
0
LINE
8
BLACK
6
CONTINUOUS
10
0.865188
20
0.34856
11
0.864848
21
0.348378
0
LINE
8
BLACK
6
CONTINUOUS
10
0.864848
20
0.348378
11
0.864479
21
0.348266
0
LINE
8
BLACK
6
CONTINUOUS
10
0.864479
20
0.348266
11
0.864094
21
0.348228
0
LINE
8
BLACK
6
CONTINUOUS
10
0.864094
20
0.348228
11
0.860157
21
0.348228
0
LINE
8
BLACK
6
CONTINUOUS
10
0.860157
20
0.348228
11
0.859773
21
0.348266
0
LINE
8
BLACK
6
CONTINUOUS
10
0.859773
20
0.348266
11
0.859404
21
0.348378
0
LINE
8
BLACK
6
CONTINUOUS
10
0.859404
20
0.348378
11
0.859064
21
0.34856
0
LINE
8
BLACK
6
CONTINUOUS
10
0.859064
20
0.34856
11
0.858766
21
0.348805
0
LINE
8
BLACK
6
CONTINUOUS
10
0.858766
20
0.348805
11
0.858521
21
0.349103
0
LINE
8
BLACK
6
CONTINUOUS
10
0.858521
20
0.349103
11
0.858339
21
0.349444
0
LINE
8
BLACK
6
CONTINUOUS
10
0.858339
20
0.349444
11
0.858227
21
0.349813
0
LINE
8
BLACK
6
CONTINUOUS
10
0.858227
20
0.349813
11
0.858189
21
0.350197
0
LINE
8
BLACK
6
CONTINUOUS
10
0.858189
20
0.350197
11
0.858189
21
0.367913
0
LINE
8
BLACK
6
CONTINUOUS
10
0.858189
20
0.367913
11
0.858227
21
0.368297
0
LINE
8
BLACK
6
CONTINUOUS
10
0.858227
20
0.368297
11
0.858339
21
0.368667
0
LINE
8
BLACK
6
CONTINUOUS
10
0.858339
20
0.368667
11
0.858521
21
0.369007
0
LINE
8
BLACK
6
CONTINUOUS
10
0.858521
20
0.369007
11
0.858766
21
0.369305
0
LINE
8
BLACK
6
CONTINUOUS
10
0.858766
20
0.369305
11
0.859064
21
0.36955
0
LINE
8
BLACK
6
CONTINUOUS
10
0.859064
20
0.36955
11
0.859404
21
0.369732
0
LINE
8
BLACK
6
CONTINUOUS
10
0.859404
20
0.369732
11
0.859773
21
0.369844
0
LINE
8
BLACK
6
CONTINUOUS
10
0.859773
20
0.369844
11
0.860157
21
0.369882
0
LINE
8
BLACK
6
CONTINUOUS
10
0.860157
20
0.369882
11
0.864094
21
0.369882
0
LINE
8
BLACK
6
CONTINUOUS
10
0.864094
20
0.369882
11
0.864479
21
0.369844
0
LINE
8
BLACK
6
CONTINUOUS
10
0.832982
20
0.369844
11
0.833352
21
0.369732
0
LINE
8
BLACK
6
CONTINUOUS
10
0.833352
20
0.369732
11
0.833692
21
0.36955
0
LINE
8
BLACK
6
CONTINUOUS
10
0.833692
20
0.36955
11
0.83399
21
0.369305
0
LINE
8
BLACK
6
CONTINUOUS
10
0.83399
20
0.369305
11
0.834235
21
0.369007
0
LINE
8
BLACK
6
CONTINUOUS
10
0.834235
20
0.369007
11
0.834417
21
0.368667
0
LINE
8
BLACK
6
CONTINUOUS
10
0.834417
20
0.368667
11
0.834529
21
0.368297
0
LINE
8
BLACK
6
CONTINUOUS
10
0.834529
20
0.368297
11
0.834567
21
0.367913
0
LINE
8
BLACK
6
CONTINUOUS
10
0.834567
20
0.367913
11
0.834567
21
0.350197
0
LINE
8
BLACK
6
CONTINUOUS
10
0.834567
20
0.350197
11
0.834529
21
0.349813
0
LINE
8
BLACK
6
CONTINUOUS
10
0.834529
20
0.349813
11
0.834417
21
0.349444
0
LINE
8
BLACK
6
CONTINUOUS
10
0.834417
20
0.349444
11
0.834235
21
0.349103
0
LINE
8
BLACK
6
CONTINUOUS
10
0.834235
20
0.349103
11
0.83399
21
0.348805
0
LINE
8
BLACK
6
CONTINUOUS
10
0.83399
20
0.348805
11
0.833692
21
0.34856
0
LINE
8
BLACK
6
CONTINUOUS
10
0.833692
20
0.34856
11
0.833352
21
0.348378
0
LINE
8
BLACK
6
CONTINUOUS
10
0.833352
20
0.348378
11
0.832982
21
0.348266
0
LINE
8
BLACK
6
CONTINUOUS
10
0.832982
20
0.348266
11
0.832598
21
0.348228
0
LINE
8
BLACK
6
CONTINUOUS
10
0.832598
20
0.348228
11
0.828661
21
0.348228
0
LINE
8
BLACK
6
CONTINUOUS
10
0.828661
20
0.348228
11
0.828277
21
0.348266
0
LINE
8
BLACK
6
CONTINUOUS
10
0.828277
20
0.348266
11
0.827908
21
0.348378
0
LINE
8
BLACK
6
CONTINUOUS
10
0.827908
20
0.348378
11
0.827568
21
0.34856
0
LINE
8
BLACK
6
CONTINUOUS
10
0.827568
20
0.34856
11
0.827269
21
0.348805
0
LINE
8
BLACK
6
CONTINUOUS
10
0.827269
20
0.348805
11
0.827025
21
0.349103
0
LINE
8
BLACK
6
CONTINUOUS
10
0.827025
20
0.349103
11
0.826843
21
0.349444
0
LINE
8
BLACK
6
CONTINUOUS
10
0.826843
20
0.349444
11
0.826731
21
0.349813
0
LINE
8
BLACK
6
CONTINUOUS
10
0.826731
20
0.349813
11
0.826693
21
0.350197
0
LINE
8
BLACK
6
CONTINUOUS
10
0.826693
20
0.350197
11
0.826693
21
0.367913
0
LINE
8
BLACK
6
CONTINUOUS
10
0.826693
20
0.367913
11
0.826731
21
0.368297
0
LINE
8
BLACK
6
CONTINUOUS
10
0.826731
20
0.368297
11
0.826843
21
0.368667
0
LINE
8
BLACK
6
CONTINUOUS
10
0.826843
20
0.368667
11
0.827025
21
0.369007
0
LINE
8
BLACK
6
CONTINUOUS
10
0.827025
20
0.369007
11
0.827269
21
0.369305
0
LINE
8
BLACK
6
CONTINUOUS
10
0.827269
20
0.369305
11
0.827568
21
0.36955
0
LINE
8
BLACK
6
CONTINUOUS
10
0.827568
20
0.36955
11
0.827908
21
0.369732
0
LINE
8
BLACK
6
CONTINUOUS
10
0.827908
20
0.369732
11
0.828277
21
0.369844
0
LINE
8
BLACK
6
CONTINUOUS
10
0.828277
20
0.369844
11
0.828661
21
0.369882
0
LINE
8
BLACK
6
CONTINUOUS
10
0.828661
20
0.369882
11
0.832598
21
0.369882
0
LINE
8
BLACK
6
CONTINUOUS
10
0.832598
20
0.369882
11
0.832982
21
0.369844
0
LINE
8
BLACK
6
CONTINUOUS
10
0.880227
20
0.369844
11
0.880596
21
0.369732
0
LINE
8
BLACK
6
CONTINUOUS
10
0.880596
20
0.369732
11
0.880936
21
0.36955
0
LINE
8
BLACK
6
CONTINUOUS
10
0.880936
20
0.36955
11
0.881234
21
0.369305
0
LINE
8
BLACK
6
CONTINUOUS
10
0.881234
20
0.369305
11
0.881479
21
0.369007
0
LINE
8
BLACK
6
CONTINUOUS
10
0.881479
20
0.369007
11
0.881661
21
0.368667
0
LINE
8
BLACK
6
CONTINUOUS
10
0.881661
20
0.368667
11
0.881773
21
0.368297
0
LINE
8
BLACK
6
CONTINUOUS
10
0.881773
20
0.368297
11
0.881811
21
0.367913
0
LINE
8
BLACK
6
CONTINUOUS
10
0.881811
20
0.367913
11
0.881811
21
0.350197
0
LINE
8
BLACK
6
CONTINUOUS
10
0.881811
20
0.350197
11
0.881773
21
0.349813
0
LINE
8
BLACK
6
CONTINUOUS
10
0.881773
20
0.349813
11
0.881661
21
0.349444
0
LINE
8
BLACK
6
CONTINUOUS
10
0.881661
20
0.349444
11
0.881479
21
0.349103
0
LINE
8
BLACK
6
CONTINUOUS
10
0.881479
20
0.349103
11
0.881234
21
0.348805
0
LINE
8
BLACK
6
CONTINUOUS
10
0.881234
20
0.348805
11
0.880936
21
0.34856
0
LINE
8
BLACK
6
CONTINUOUS
10
0.880936
20
0.34856
11
0.880596
21
0.348378
0
LINE
8
BLACK
6
CONTINUOUS
10
0.880596
20
0.348378
11
0.880227
21
0.348266
0
LINE
8
BLACK
6
CONTINUOUS
10
0.880227
20
0.348266
11
0.879843
21
0.348228
0
LINE
8
BLACK
6
CONTINUOUS
10
0.879843
20
0.348228
11
0.875906
21
0.348228
0
LINE
8
BLACK
6
CONTINUOUS
10
0.875906
20
0.348228
11
0.875521
21
0.348266
0
LINE
8
BLACK
6
CONTINUOUS
10
0.875521
20
0.348266
11
0.875152
21
0.348378
0
LINE
8
BLACK
6
CONTINUOUS
10
0.875152
20
0.348378
11
0.874812
21
0.34856
0
LINE
8
BLACK
6
CONTINUOUS
10
0.874812
20
0.34856
11
0.874514
21
0.348805
0
LINE
8
BLACK
6
CONTINUOUS
10
0.874514
20
0.348805
11
0.874269
21
0.349103
0
LINE
8
BLACK
6
CONTINUOUS
10
0.874269
20
0.349103
11
0.874087
21
0.349444
0
LINE
8
BLACK
6
CONTINUOUS
10
0.874087
20
0.349444
11
0.873975
21
0.349813
0
LINE
8
BLACK
6
CONTINUOUS
10
0.873975
20
0.349813
11
0.873937
21
0.350197
0
LINE
8
BLACK
6
CONTINUOUS
10
0.873937
20
0.350197
11
0.873937
21
0.367913
0
LINE
8
BLACK
6
CONTINUOUS
10
0.873937
20
0.367913
11
0.873975
21
0.368297
0
LINE
8
BLACK
6
CONTINUOUS
10
0.873975
20
0.368297
11
0.874087
21
0.368667
0
LINE
8
BLACK
6
CONTINUOUS
10
0.874087
20
0.368667
11
0.874269
21
0.369007
0
LINE
8
BLACK
6
CONTINUOUS
10
0.874269
20
0.369007
11
0.874514
21
0.369305
0
LINE
8
BLACK
6
CONTINUOUS
10
0.874514
20
0.369305
11
0.874812
21
0.36955
0
LINE
8
BLACK
6
CONTINUOUS
10
0.874812
20
0.36955
11
0.875152
21
0.369732
0
LINE
8
BLACK
6
CONTINUOUS
10
0.875152
20
0.369732
11
0.875521
21
0.369844
0
LINE
8
BLACK
6
CONTINUOUS
10
0.875521
20
0.369844
11
0.875906
21
0.369882
0
LINE
8
BLACK
6
CONTINUOUS
10
0.875906
20
0.369882
11
0.879843
21
0.369882
0
LINE
8
BLACK
6
CONTINUOUS
10
0.879843
20
0.369882
11
0.880227
21
0.369844
0
LINE
8
BLACK
6
CONTINUOUS
10
0.911723
20
0.369844
11
0.912092
21
0.369732
0
LINE
8
BLACK
6
CONTINUOUS
10
0.912092
20
0.369732
11
0.912432
21
0.36955
0
LINE
8
BLACK
6
CONTINUOUS
10
0.912432
20
0.36955
11
0.912731
21
0.369305
0
LINE
8
BLACK
6
CONTINUOUS
10
0.912731
20
0.369305
11
0.912975
21
0.369007
0
LINE
8
BLACK
6
CONTINUOUS
10
0.912975
20
0.369007
11
0.913157
21
0.368667
0
LINE
8
BLACK
6
CONTINUOUS
10
0.913157
20
0.368667
11
0.913269
21
0.368297
0
LINE
8
BLACK
6
CONTINUOUS
10
0.913269
20
0.368297
11
0.913307
21
0.367913
0
LINE
8
BLACK
6
CONTINUOUS
10
0.913307
20
0.367913
11
0.913307
21
0.350197
0
LINE
8
BLACK
6
CONTINUOUS
10
0.913307
20
0.350197
11
0.913269
21
0.349813
0
LINE
8
BLACK
6
CONTINUOUS
10
0.913269
20
0.349813
11
0.913157
21
0.349444
0
LINE
8
BLACK
6
CONTINUOUS
10
0.913157
20
0.349444
11
0.912975
21
0.349103
0
LINE
8
BLACK
6
CONTINUOUS
10
0.912975
20
0.349103
11
0.912731
21
0.348805
0
LINE
8
BLACK
6
CONTINUOUS
10
0.912731
20
0.348805
11
0.912432
21
0.34856
0
LINE
8
BLACK
6
CONTINUOUS
10
0.912432
20
0.34856
11
0.912092
21
0.348378
0
LINE
8
BLACK
6
CONTINUOUS
10
0.912092
20
0.348378
11
0.911723
21
0.348266
0
LINE
8
BLACK
6
CONTINUOUS
10
0.911723
20
0.348266
11
0.911339
21
0.348228
0
LINE
8
BLACK
6
CONTINUOUS
10
0.911339
20
0.348228
11
0.907402
21
0.348228
0
LINE
8
BLACK
6
CONTINUOUS
10
0.907402
20
0.348228
11
0.907018
21
0.348266
0
LINE
8
BLACK
6
CONTINUOUS
10
0.907018
20
0.348266
11
0.906648
21
0.348378
0
LINE
8
BLACK
6
CONTINUOUS
10
0.906648
20
0.348378
11
0.906308
21
0.34856
0
LINE
8
BLACK
6
CONTINUOUS
10
0.906308
20
0.34856
11
0.90601
21
0.348805
0
LINE
8
BLACK
6
CONTINUOUS
10
0.90601
20
0.348805
11
0.905765
21
0.349103
0
LINE
8
BLACK
6
CONTINUOUS
10
0.905765
20
0.349103
11
0.905583
21
0.349444
0
LINE
8
BLACK
6
CONTINUOUS
10
0.905583
20
0.349444
11
0.905471
21
0.349813
0
LINE
8
BLACK
6
CONTINUOUS
10
0.905471
20
0.349813
11
0.905433
21
0.350197
0
LINE
8
BLACK
6
CONTINUOUS
10
0.905433
20
0.350197
11
0.905433
21
0.367913
0
LINE
8
BLACK
6
CONTINUOUS
10
0.905433
20
0.367913
11
0.905471
21
0.368297
0
LINE
8
BLACK
6
CONTINUOUS
10
0.905471
20
0.368297
11
0.905583
21
0.368667
0
LINE
8
BLACK
6
CONTINUOUS
10
0.905583
20
0.368667
11
0.905765
21
0.369007
0
LINE
8
BLACK
6
CONTINUOUS
10
0.905765
20
0.369007
11
0.90601
21
0.369305
0
LINE
8
BLACK
6
CONTINUOUS
10
0.90601
20
0.369305
11
0.906308
21
0.36955
0
LINE
8
BLACK
6
CONTINUOUS
10
0.906308
20
0.36955
11
0.906648
21
0.369732
0
LINE
8
BLACK
6
CONTINUOUS
10
0.906648
20
0.369732
11
0.907018
21
0.369844
0
LINE
8
BLACK
6
CONTINUOUS
10
0.907018
20
0.369844
11
0.907402
21
0.369882
0
LINE
8
BLACK
6
CONTINUOUS
10
0.907402
20
0.369882
11
0.911339
21
0.369882
0
LINE
8
BLACK
6
CONTINUOUS
10
0.911339
20
0.369882
11
0.911723
21
0.369844
0
LINE
8
BLACK
6
CONTINUOUS
10
0.848731
20
0.369844
11
0.8491
21
0.369732
0
LINE
8
BLACK
6
CONTINUOUS
10
0.8491
20
0.369732
11
0.84944
21
0.36955
0
LINE
8
BLACK
6
CONTINUOUS
10
0.84944
20
0.36955
11
0.849738
21
0.369305
0
LINE
8
BLACK
6
CONTINUOUS
10
0.849738
20
0.369305
11
0.849983
21
0.369007
0
LINE
8
BLACK
6
CONTINUOUS
10
0.849983
20
0.369007
11
0.850165
21
0.368667
0
LINE
8
BLACK
6
CONTINUOUS
10
0.850165
20
0.368667
11
0.850277
21
0.368297
0
LINE
8
BLACK
6
CONTINUOUS
10
0.850277
20
0.368297
11
0.850315
21
0.367913
0
LINE
8
BLACK
6
CONTINUOUS
10
0.850315
20
0.367913
11
0.850315
21
0.350197
0
LINE
8
BLACK
6
CONTINUOUS
10
0.850315
20
0.350197
11
0.850277
21
0.349813
0
LINE
8
BLACK
6
CONTINUOUS
10
0.850277
20
0.349813
11
0.850165
21
0.349444
0
LINE
8
BLACK
6
CONTINUOUS
10
0.850165
20
0.349444
11
0.849983
21
0.349103
0
LINE
8
BLACK
6
CONTINUOUS
10
0.849983
20
0.349103
11
0.849738
21
0.348805
0
LINE
8
BLACK
6
CONTINUOUS
10
0.849738
20
0.348805
11
0.84944
21
0.34856
0
LINE
8
BLACK
6
CONTINUOUS
10
0.84944
20
0.34856
11
0.8491
21
0.348378
0
LINE
8
BLACK
6
CONTINUOUS
10
0.8491
20
0.348378
11
0.848731
21
0.348266
0
LINE
8
BLACK
6
CONTINUOUS
10
0.848731
20
0.348266
11
0.848346
21
0.348228
0
LINE
8
BLACK
6
CONTINUOUS
10
0.848346
20
0.348228
11
0.844409
21
0.348228
0
LINE
8
BLACK
6
CONTINUOUS
10
0.844409
20
0.348228
11
0.844025
21
0.348266
0
LINE
8
BLACK
6
CONTINUOUS
10
0.844025
20
0.348266
11
0.843656
21
0.348378
0
LINE
8
BLACK
6
CONTINUOUS
10
0.843656
20
0.348378
11
0.843316
21
0.34856
0
LINE
8
BLACK
6
CONTINUOUS
10
0.843316
20
0.34856
11
0.843018
21
0.348805
0
LINE
8
BLACK
6
CONTINUOUS
10
0.843018
20
0.348805
11
0.842773
21
0.349103
0
LINE
8
BLACK
6
CONTINUOUS
10
0.842773
20
0.349103
11
0.842591
21
0.349444
0
LINE
8
BLACK
6
CONTINUOUS
10
0.842591
20
0.349444
11
0.842479
21
0.349813
0
LINE
8
BLACK
6
CONTINUOUS
10
0.842479
20
0.349813
11
0.842441
21
0.350197
0
LINE
8
BLACK
6
CONTINUOUS
10
0.842441
20
0.350197
11
0.842441
21
0.367913
0
LINE
8
BLACK
6
CONTINUOUS
10
0.842441
20
0.367913
11
0.842479
21
0.368297
0
LINE
8
BLACK
6
CONTINUOUS
10
0.842479
20
0.368297
11
0.842591
21
0.368667
0
LINE
8
BLACK
6
CONTINUOUS
10
0.842591
20
0.368667
11
0.842773
21
0.369007
0
LINE
8
BLACK
6
CONTINUOUS
10
0.842773
20
0.369007
11
0.843018
21
0.369305
0
LINE
8
BLACK
6
CONTINUOUS
10
0.843018
20
0.369305
11
0.843316
21
0.36955
0
LINE
8
BLACK
6
CONTINUOUS
10
0.843316
20
0.36955
11
0.843656
21
0.369732
0
LINE
8
BLACK
6
CONTINUOUS
10
0.843656
20
0.369732
11
0.844025
21
0.369844
0
LINE
8
BLACK
6
CONTINUOUS
10
0.844025
20
0.369844
11
0.844409
21
0.369882
0
LINE
8
BLACK
6
CONTINUOUS
10
0.844409
20
0.369882
11
0.848346
21
0.369882
0
LINE
8
BLACK
6
CONTINUOUS
10
0.848346
20
0.369882
11
0.848731
21
0.369844
0
LINE
8
BLACK
6
CONTINUOUS
10
0.761296
20
0.418535
11
0.762912
21
0.418045
0
LINE
8
BLACK
6
CONTINUOUS
10
0.762912
20
0.418045
11
0.764401
21
0.417249
0
LINE
8
BLACK
6
CONTINUOUS
10
0.764401
20
0.417249
11
0.765706
21
0.416178
0
LINE
8
BLACK
6
CONTINUOUS
10
0.765706
20
0.416178
11
0.766777
21
0.414873
0
LINE
8
BLACK
6
CONTINUOUS
10
0.766777
20
0.414873
11
0.767573
21
0.413384
0
LINE
8
BLACK
6
CONTINUOUS
10
0.767573
20
0.413384
11
0.768063
21
0.411769
0
LINE
8
BLACK
6
CONTINUOUS
10
0.768063
20
0.411769
11
0.768228
21
0.410089
0
LINE
8
BLACK
6
CONTINUOUS
10
0.768228
20
0.410089
11
0.768228
21
0.389911
0
LINE
8
BLACK
6
CONTINUOUS
10
0.768228
20
0.389911
11
0.768063
21
0.388231
0
LINE
8
BLACK
6
CONTINUOUS
10
0.768063
20
0.388231
11
0.767573
21
0.386616
0
LINE
8
BLACK
6
CONTINUOUS
10
0.767573
20
0.386616
11
0.766777
21
0.385127
0
LINE
8
BLACK
6
CONTINUOUS
10
0.766777
20
0.385127
11
0.765706
21
0.383822
0
LINE
8
BLACK
6
CONTINUOUS
10
0.765706
20
0.383822
11
0.764401
21
0.382751
0
LINE
8
BLACK
6
CONTINUOUS
10
0.764401
20
0.382751
11
0.762912
21
0.381955
0
LINE
8
BLACK
6
CONTINUOUS
10
0.762912
20
0.381955
11
0.761296
21
0.381465
0
LINE
8
BLACK
6
CONTINUOUS
10
0.761296
20
0.381465
11
0.759616
21
0.381299
0
LINE
8
BLACK
6
CONTINUOUS
10
0.759616
20
0.381299
11
0.742392
21
0.381299
0
LINE
8
BLACK
6
CONTINUOUS
10
0.742392
20
0.381299
11
0.740712
21
0.381465
0
LINE
8
BLACK
6
CONTINUOUS
10
0.740712
20
0.381465
11
0.739096
21
0.381955
0
LINE
8
BLACK
6
CONTINUOUS
10
0.739096
20
0.381955
11
0.737607
21
0.382751
0
LINE
8
BLACK
6
CONTINUOUS
10
0.737607
20
0.382751
11
0.736302
21
0.383822
0
LINE
8
BLACK
6
CONTINUOUS
10
0.736302
20
0.383822
11
0.735231
21
0.385127
0
LINE
8
BLACK
6
CONTINUOUS
10
0.735231
20
0.385127
11
0.734435
21
0.386616
0
LINE
8
BLACK
6
CONTINUOUS
10
0.734435
20
0.386616
11
0.733945
21
0.388231
0
LINE
8
BLACK
6
CONTINUOUS
10
0.733945
20
0.388231
11
0.73378
21
0.389911
0
LINE
8
BLACK
6
CONTINUOUS
10
0.73378
20
0.389911
11
0.73378
21
0.410089
0
LINE
8
BLACK
6
CONTINUOUS
10
0.73378
20
0.410089
11
0.733945
21
0.411769
0
LINE
8
BLACK
6
CONTINUOUS
10
0.733945
20
0.411769
11
0.734435
21
0.413384
0
LINE
8
BLACK
6
CONTINUOUS
10
0.734435
20
0.413384
11
0.735231
21
0.414873
0
LINE
8
BLACK
6
CONTINUOUS
10
0.735231
20
0.414873
11
0.736302
21
0.416178
0
LINE
8
BLACK
6
CONTINUOUS
10
0.736302
20
0.416178
11
0.737607
21
0.417249
0
LINE
8
BLACK
6
CONTINUOUS
10
0.737607
20
0.417249
11
0.739096
21
0.418045
0
LINE
8
BLACK
6
CONTINUOUS
10
0.739096
20
0.418045
11
0.740712
21
0.418535
0
LINE
8
BLACK
6
CONTINUOUS
10
0.740712
20
0.418535
11
0.742392
21
0.418701
0
LINE
8
BLACK
6
CONTINUOUS
10
0.742392
20
0.418701
11
0.759616
21
0.418701
0
LINE
8
BLACK
6
CONTINUOUS
10
0.759616
20
0.418701
11
0.761296
21
0.418535
0
LINE
8
BLACK
6
CONTINUOUS
10
0.699288
20
0.418535
11
0.700904
21
0.418045
0
LINE
8
BLACK
6
CONTINUOUS
10
0.700904
20
0.418045
11
0.702393
21
0.417249
0
LINE
8
BLACK
6
CONTINUOUS
10
0.702393
20
0.417249
11
0.703698
21
0.416178
0
LINE
8
BLACK
6
CONTINUOUS
10
0.703698
20
0.416178
11
0.704769
21
0.414873
0
LINE
8
BLACK
6
CONTINUOUS
10
0.704769
20
0.414873
11
0.705565
21
0.413384
0
LINE
8
BLACK
6
CONTINUOUS
10
0.705565
20
0.413384
11
0.706055
21
0.411769
0
LINE
8
BLACK
6
CONTINUOUS
10
0.706055
20
0.411769
11
0.70622
21
0.410089
0
LINE
8
BLACK
6
CONTINUOUS
10
0.70622
20
0.410089
11
0.70622
21
0.389911
0
LINE
8
BLACK
6
CONTINUOUS
10
0.70622
20
0.389911
11
0.706055
21
0.388231
0
LINE
8
BLACK
6
CONTINUOUS
10
0.706055
20
0.388231
11
0.705565
21
0.386616
0
LINE
8
BLACK
6
CONTINUOUS
10
0.705565
20
0.386616
11
0.704769
21
0.385127
0
LINE
8
BLACK
6
CONTINUOUS
10
0.704769
20
0.385127
11
0.703698
21
0.383822
0
LINE
8
BLACK
6
CONTINUOUS
10
0.703698
20
0.383822
11
0.702393
21
0.382751
0
LINE
8
BLACK
6
CONTINUOUS
10
0.702393
20
0.382751
11
0.700904
21
0.381955
0
LINE
8
BLACK
6
CONTINUOUS
10
0.700904
20
0.381955
11
0.699288
21
0.381465
0
LINE
8
BLACK
6
CONTINUOUS
10
0.699288
20
0.381465
11
0.697608
21
0.381299
0
LINE
8
BLACK
6
CONTINUOUS
10
0.697608
20
0.381299
11
0.680384
21
0.381299
0
LINE
8
BLACK
6
CONTINUOUS
10
0.680384
20
0.381299
11
0.678704
21
0.381465
0
LINE
8
BLACK
6
CONTINUOUS
10
0.678704
20
0.381465
11
0.677088
21
0.381955
0
LINE
8
BLACK
6
CONTINUOUS
10
0.677088
20
0.381955
11
0.675599
21
0.382751
0
LINE
8
BLACK
6
CONTINUOUS
10
0.675599
20
0.382751
11
0.674294
21
0.383822
0
LINE
8
BLACK
6
CONTINUOUS
10
0.674294
20
0.383822
11
0.673223
21
0.385127
0
LINE
8
BLACK
6
CONTINUOUS
10
0.673223
20
0.385127
11
0.672427
21
0.386616
0
LINE
8
BLACK
6
CONTINUOUS
10
0.672427
20
0.386616
11
0.671937
21
0.388231
0
LINE
8
BLACK
6
CONTINUOUS
10
0.671937
20
0.388231
11
0.671772
21
0.389911
0
LINE
8
BLACK
6
CONTINUOUS
10
0.671772
20
0.389911
11
0.671772
21
0.410089
0
LINE
8
BLACK
6
CONTINUOUS
10
0.671772
20
0.410089
11
0.671937
21
0.411769
0
LINE
8
BLACK
6
CONTINUOUS
10
0.671937
20
0.411769
11
0.672427
21
0.413384
0
LINE
8
BLACK
6
CONTINUOUS
10
0.672427
20
0.413384
11
0.673223
21
0.414873
0
LINE
8
BLACK
6
CONTINUOUS
10
0.673223
20
0.414873
11
0.674294
21
0.416178
0
LINE
8
BLACK
6
CONTINUOUS
10
0.674294
20
0.416178
11
0.675599
21
0.417249
0
LINE
8
BLACK
6
CONTINUOUS
10
0.675599
20
0.417249
11
0.677088
21
0.418045
0
LINE
8
BLACK
6
CONTINUOUS
10
0.677088
20
0.418045
11
0.678704
21
0.418535
0
LINE
8
BLACK
6
CONTINUOUS
10
0.678704
20
0.418535
11
0.680384
21
0.418701
0
LINE
8
BLACK
6
CONTINUOUS
10
0.680384
20
0.418701
11
0.697608
21
0.418701
0
LINE
8
BLACK
6
CONTINUOUS
10
0.697608
20
0.418701
11
0.699288
21
0.418535
0
LINE
8
BLACK
6
CONTINUOUS
10
0.107677
20
0.384646
11
-0.0576772
21
0.384646
0
LINE
8
BLACK
6
CONTINUOUS
10
-0.0576772
20
0.384646
11
-0.0576772
21
0.437795
0
LINE
8
BLACK
6
CONTINUOUS
10
-0.0576772
20
0.437795
11
0.107677
21
0.437795
0
LINE
8
BLACK
6
CONTINUOUS
10
0.107677
20
0.437795
11
0.107677
21
0.384646
0
LINE
8
BLACK
6
CONTINUOUS
10
0.966769
20
0.426055
11
0.968384
21
0.425565
0
LINE
8
BLACK
6
CONTINUOUS
10
0.968384
20
0.425565
11
0.969873
21
0.424769
0
LINE
8
BLACK
6
CONTINUOUS
10
0.969873
20
0.424769
11
0.971178
21
0.423698
0
LINE
8
BLACK
6
CONTINUOUS
10
0.971178
20
0.423698
11
0.972249
21
0.422393
0
LINE
8
BLACK
6
CONTINUOUS
10
0.972249
20
0.422393
11
0.973045
21
0.420904
0
LINE
8
BLACK
6
CONTINUOUS
10
0.973045
20
0.420904
11
0.973535
21
0.419288
0
LINE
8
BLACK
6
CONTINUOUS
10
0.973535
20
0.419288
11
0.973701
21
0.417608
0
LINE
8
BLACK
6
CONTINUOUS
10
0.973701
20
0.417608
11
0.973701
21
0.400384
0
LINE
8
BLACK
6
CONTINUOUS
10
0.973701
20
0.400384
11
0.973535
21
0.398704
0
LINE
8
BLACK
6
CONTINUOUS
10
0.973535
20
0.398704
11
0.973045
21
0.397088
0
LINE
8
BLACK
6
CONTINUOUS
10
0.973045
20
0.397088
11
0.972249
21
0.395599
0
LINE
8
BLACK
6
CONTINUOUS
10
0.972249
20
0.395599
11
0.971178
21
0.394294
0
LINE
8
BLACK
6
CONTINUOUS
10
0.971178
20
0.394294
11
0.969873
21
0.393223
0
LINE
8
BLACK
6
CONTINUOUS
10
0.969873
20
0.393223
11
0.968384
21
0.392427
0
LINE
8
BLACK
6
CONTINUOUS
10
0.968384
20
0.392427
11
0.966769
21
0.391937
0
LINE
8
BLACK
6
CONTINUOUS
10
0.966769
20
0.391937
11
0.965089
21
0.391772
0
LINE
8
BLACK
6
CONTINUOUS
10
0.965089
20
0.391772
11
0.944911
21
0.391772
0
LINE
8
BLACK
6
CONTINUOUS
10
0.944911
20
0.391772
11
0.943231
21
0.391937
0
LINE
8
BLACK
6
CONTINUOUS
10
0.943231
20
0.391937
11
0.941616
21
0.392427
0
LINE
8
BLACK
6
CONTINUOUS
10
0.941616
20
0.392427
11
0.940127
21
0.393223
0
LINE
8
BLACK
6
CONTINUOUS
10
0.940127
20
0.393223
11
0.938822
21
0.394294
0
LINE
8
BLACK
6
CONTINUOUS
10
0.938822
20
0.394294
11
0.937751
21
0.395599
0
LINE
8
BLACK
6
CONTINUOUS
10
0.937751
20
0.395599
11
0.936955
21
0.397088
0
LINE
8
BLACK
6
CONTINUOUS
10
0.936955
20
0.397088
11
0.936465
21
0.398704
0
LINE
8
BLACK
6
CONTINUOUS
10
0.936465
20
0.398704
11
0.936299
21
0.400384
0
LINE
8
BLACK
6
CONTINUOUS
10
0.936299
20
0.400384
11
0.936299
21
0.417608
0
LINE
8
BLACK
6
CONTINUOUS
10
0.936299
20
0.417608
11
0.936465
21
0.419288
0
LINE
8
BLACK
6
CONTINUOUS
10
0.936465
20
0.419288
11
0.936955
21
0.420904
0
LINE
8
BLACK
6
CONTINUOUS
10
0.936955
20
0.420904
11
0.937751
21
0.422393
0
LINE
8
BLACK
6
CONTINUOUS
10
0.937751
20
0.422393
11
0.938822
21
0.423698
0
LINE
8
BLACK
6
CONTINUOUS
10
0.938822
20
0.423698
11
0.940127
21
0.424769
0
LINE
8
BLACK
6
CONTINUOUS
10
0.940127
20
0.424769
11
0.941616
21
0.425565
0
LINE
8
BLACK
6
CONTINUOUS
10
0.941616
20
0.425565
11
0.943231
21
0.426055
0
LINE
8
BLACK
6
CONTINUOUS
10
0.943231
20
0.426055
11
0.944911
21
0.42622
0
LINE
8
BLACK
6
CONTINUOUS
10
0.944911
20
0.42622
11
0.965089
21
0.42622
0
LINE
8
BLACK
6
CONTINUOUS
10
0.965089
20
0.42622
11
0.966769
21
0.426055
0
LINE
8
BLACK
6
CONTINUOUS
10
0.166769
20
0.433063
11
0.168384
21
0.432573
0
LINE
8
BLACK
6
CONTINUOUS
10
0.168384
20
0.432573
11
0.169873
21
0.431777
0
LINE
8
BLACK
6
CONTINUOUS
10
0.169873
20
0.431777
11
0.171178
21
0.430706
0
LINE
8
BLACK
6
CONTINUOUS
10
0.171178
20
0.430706
11
0.172249
21
0.429401
0
LINE
8
BLACK
6
CONTINUOUS
10
0.172249
20
0.429401
11
0.173045
21
0.427912
0
LINE
8
BLACK
6
CONTINUOUS
10
0.173045
20
0.427912
11
0.173535
21
0.426296
0
LINE
8
BLACK
6
CONTINUOUS
10
0.173535
20
0.426296
11
0.173701
21
0.424616
0
LINE
8
BLACK
6
CONTINUOUS
10
0.173701
20
0.424616
11
0.173701
21
0.407392
0
LINE
8
BLACK
6
CONTINUOUS
10
0.173701
20
0.407392
11
0.173535
21
0.405712
0
LINE
8
BLACK
6
CONTINUOUS
10
0.173535
20
0.405712
11
0.173045
21
0.404096
0
LINE
8
BLACK
6
CONTINUOUS
10
0.173045
20
0.404096
11
0.172249
21
0.402607
0
LINE
8
BLACK
6
CONTINUOUS
10
0.172249
20
0.402607
11
0.171178
21
0.401302
0
LINE
8
BLACK
6
CONTINUOUS
10
0.171178
20
0.401302
11
0.169873
21
0.400231
0
LINE
8
BLACK
6
CONTINUOUS
10
0.169873
20
0.400231
11
0.168384
21
0.399435
0
LINE
8
BLACK
6
CONTINUOUS
10
0.168384
20
0.399435
11
0.166769
21
0.398945
0
LINE
8
BLACK
6
CONTINUOUS
10
0.166769
20
0.398945
11
0.165089
21
0.39878
0
LINE
8
BLACK
6
CONTINUOUS
10
0.165089
20
0.39878
11
0.144911
21
0.39878
0
LINE
8
BLACK
6
CONTINUOUS
10
0.144911
20
0.39878
11
0.143231
21
0.398945
0
LINE
8
BLACK
6
CONTINUOUS
10
0.143231
20
0.398945
11
0.141616
21
0.399435
0
LINE
8
BLACK
6
CONTINUOUS
10
0.141616
20
0.399435
11
0.140127
21
0.400231
0
LINE
8
BLACK
6
CONTINUOUS
10
0.140127
20
0.400231
11
0.138822
21
0.401302
0
LINE
8
BLACK
6
CONTINUOUS
10
0.138822
20
0.401302
11
0.137751
21
0.402607
0
LINE
8
BLACK
6
CONTINUOUS
10
0.137751
20
0.402607
11
0.136955
21
0.404096
0
LINE
8
BLACK
6
CONTINUOUS
10
0.136955
20
0.404096
11
0.136465
21
0.405712
0
LINE
8
BLACK
6
CONTINUOUS
10
0.136465
20
0.405712
11
0.136299
21
0.407392
0
LINE
8
BLACK
6
CONTINUOUS
10
0.136299
20
0.407392
11
0.136299
21
0.424616
0
LINE
8
BLACK
6
CONTINUOUS
10
0.136299
20
0.424616
11
0.136465
21
0.426296
0
LINE
8
BLACK
6
CONTINUOUS
10
0.136465
20
0.426296
11
0.136955
21
0.427912
0
LINE
8
BLACK
6
CONTINUOUS
10
0.136955
20
0.427912
11
0.137751
21
0.429401
0
LINE
8
BLACK
6
CONTINUOUS
10
0.137751
20
0.429401
11
0.138822
21
0.430706
0
LINE
8
BLACK
6
CONTINUOUS
10
0.138822
20
0.430706
11
0.140127
21
0.431777
0
LINE
8
BLACK
6
CONTINUOUS
10
0.140127
20
0.431777
11
0.141616
21
0.432573
0
LINE
8
BLACK
6
CONTINUOUS
10
0.141616
20
0.432573
11
0.143231
21
0.433063
0
LINE
8
BLACK
6
CONTINUOUS
10
0.143231
20
0.433063
11
0.144911
21
0.433228
0
LINE
8
BLACK
6
CONTINUOUS
10
0.144911
20
0.433228
11
0.165089
21
0.433228
0
LINE
8
BLACK
6
CONTINUOUS
10
0.165089
20
0.433228
11
0.166769
21
0.433063
0
LINE
8
BLACK
6
CONTINUOUS
10
0.226769
20
0.433063
11
0.228384
21
0.432573
0
LINE
8
BLACK
6
CONTINUOUS
10
0.228384
20
0.432573
11
0.229873
21
0.431777
0
LINE
8
BLACK
6
CONTINUOUS
10
0.229873
20
0.431777
11
0.231178
21
0.430706
0
LINE
8
BLACK
6
CONTINUOUS
10
0.231178
20
0.430706
11
0.232249
21
0.429401
0
LINE
8
BLACK
6
CONTINUOUS
10
0.232249
20
0.429401
11
0.233045
21
0.427912
0
LINE
8
BLACK
6
CONTINUOUS
10
0.233045
20
0.427912
11
0.233535
21
0.426296
0
LINE
8
BLACK
6
CONTINUOUS
10
0.233535
20
0.426296
11
0.233701
21
0.424616
0
LINE
8
BLACK
6
CONTINUOUS
10
0.233701
20
0.424616
11
0.233701
21
0.407392
0
LINE
8
BLACK
6
CONTINUOUS
10
0.233701
20
0.407392
11
0.233535
21
0.405712
0
LINE
8
BLACK
6
CONTINUOUS
10
0.233535
20
0.405712
11
0.233045
21
0.404096
0
LINE
8
BLACK
6
CONTINUOUS
10
0.233045
20
0.404096
11
0.232249
21
0.402607
0
LINE
8
BLACK
6
CONTINUOUS
10
0.232249
20
0.402607
11
0.231178
21
0.401302
0
LINE
8
BLACK
6
CONTINUOUS
10
0.231178
20
0.401302
11
0.229873
21
0.400231
0
LINE
8
BLACK
6
CONTINUOUS
10
0.229873
20
0.400231
11
0.228384
21
0.399435
0
LINE
8
BLACK
6
CONTINUOUS
10
0.228384
20
0.399435
11
0.226769
21
0.398945
0
LINE
8
BLACK
6
CONTINUOUS
10
0.226769
20
0.398945
11
0.225089
21
0.39878
0
LINE
8
BLACK
6
CONTINUOUS
10
0.225089
20
0.39878
11
0.204911
21
0.39878
0
LINE
8
BLACK
6
CONTINUOUS
10
0.204911
20
0.39878
11
0.203231
21
0.398945
0
LINE
8
BLACK
6
CONTINUOUS
10
0.203231
20
0.398945
11
0.201616
21
0.399435
0
LINE
8
BLACK
6
CONTINUOUS
10
0.201616
20
0.399435
11
0.200127
21
0.400231
0
LINE
8
BLACK
6
CONTINUOUS
10
0.200127
20
0.400231
11
0.198822
21
0.401302
0
LINE
8
BLACK
6
CONTINUOUS
10
0.198822
20
0.401302
11
0.197751
21
0.402607
0
LINE
8
BLACK
6
CONTINUOUS
10
0.197751
20
0.402607
11
0.196955
21
0.404096
0
LINE
8
BLACK
6
CONTINUOUS
10
0.196955
20
0.404096
11
0.196465
21
0.405712
0
LINE
8
BLACK
6
CONTINUOUS
10
0.196465
20
0.405712
11
0.196299
21
0.407392
0
LINE
8
BLACK
6
CONTINUOUS
10
0.196299
20
0.407392
11
0.196299
21
0.424616
0
LINE
8
BLACK
6
CONTINUOUS
10
0.196299
20
0.424616
11
0.196465
21
0.426296
0
LINE
8
BLACK
6
CONTINUOUS
10
0.196465
20
0.426296
11
0.196955
21
0.427912
0
LINE
8
BLACK
6
CONTINUOUS
10
0.196955
20
0.427912
11
0.197751
21
0.429401
0
LINE
8
BLACK
6
CONTINUOUS
10
0.197751
20
0.429401
11
0.198822
21
0.430706
0
LINE
8
BLACK
6
CONTINUOUS
10
0.198822
20
0.430706
11
0.200127
21
0.431777
0
LINE
8
BLACK
6
CONTINUOUS
10
0.200127
20
0.431777
11
0.201616
21
0.432573
0
LINE
8
BLACK
6
CONTINUOUS
10
0.201616
20
0.432573
11
0.203231
21
0.433063
0
LINE
8
BLACK
6
CONTINUOUS
10
0.203231
20
0.433063
11
0.204911
21
0.433228
0
LINE
8
BLACK
6
CONTINUOUS
10
0.204911
20
0.433228
11
0.225089
21
0.433228
0
LINE
8
BLACK
6
CONTINUOUS
10
0.225089
20
0.433228
11
0.226769
21
0.433063
0
LINE
8
BLACK
6
CONTINUOUS
10
0.891296
20
0.438535
11
0.892912
21
0.438045
0
LINE
8
BLACK
6
CONTINUOUS
10
0.892912
20
0.438045
11
0.894401
21
0.437249
0
LINE
8
BLACK
6
CONTINUOUS
10
0.894401
20
0.437249
11
0.895706
21
0.436178
0
LINE
8
BLACK
6
CONTINUOUS
10
0.895706
20
0.436178
11
0.896777
21
0.434873
0
LINE
8
BLACK
6
CONTINUOUS
10
0.896777
20
0.434873
11
0.897573
21
0.433384
0
LINE
8
BLACK
6
CONTINUOUS
10
0.897573
20
0.433384
11
0.898063
21
0.431769
0
LINE
8
BLACK
6
CONTINUOUS
10
0.898063
20
0.431769
11
0.898228
21
0.430089
0
LINE
8
BLACK
6
CONTINUOUS
10
0.898228
20
0.430089
11
0.898228
21
0.409911
0
LINE
8
BLACK
6
CONTINUOUS
10
0.898228
20
0.409911
11
0.898063
21
0.408231
0
LINE
8
BLACK
6
CONTINUOUS
10
0.898063
20
0.408231
11
0.897573
21
0.406616
0
LINE
8
BLACK
6
CONTINUOUS
10
0.897573
20
0.406616
11
0.896777
21
0.405127
0
LINE
8
BLACK
6
CONTINUOUS
10
0.896777
20
0.405127
11
0.895706
21
0.403822
0
LINE
8
BLACK
6
CONTINUOUS
10
0.895706
20
0.403822
11
0.894401
21
0.402751
0
LINE
8
BLACK
6
CONTINUOUS
10
0.894401
20
0.402751
11
0.892912
21
0.401955
0
LINE
8
BLACK
6
CONTINUOUS
10
0.892912
20
0.401955
11
0.891296
21
0.401465
0
LINE
8
BLACK
6
CONTINUOUS
10
0.891296
20
0.401465
11
0.889616
21
0.401299
0
LINE
8
BLACK
6
CONTINUOUS
10
0.889616
20
0.401299
11
0.872392
21
0.401299
0
LINE
8
BLACK
6
CONTINUOUS
10
0.872392
20
0.401299
11
0.870712
21
0.401465
0
LINE
8
BLACK
6
CONTINUOUS
10
0.870712
20
0.401465
11
0.869096
21
0.401955
0
LINE
8
BLACK
6
CONTINUOUS
10
0.869096
20
0.401955
11
0.867607
21
0.402751
0
LINE
8
BLACK
6
CONTINUOUS
10
0.867607
20
0.402751
11
0.866302
21
0.403822
0
LINE
8
BLACK
6
CONTINUOUS
10
0.866302
20
0.403822
11
0.865231
21
0.405127
0
LINE
8
BLACK
6
CONTINUOUS
10
0.865231
20
0.405127
11
0.864435
21
0.406616
0
LINE
8
BLACK
6
CONTINUOUS
10
0.864435
20
0.406616
11
0.863945
21
0.408231
0
LINE
8
BLACK
6
CONTINUOUS
10
0.863945
20
0.408231
11
0.86378
21
0.409911
0
LINE
8
BLACK
6
CONTINUOUS
10
0.86378
20
0.409911
11
0.86378
21
0.430089
0
LINE
8
BLACK
6
CONTINUOUS
10
0.86378
20
0.430089
11
0.863945
21
0.431769
0
LINE
8
BLACK
6
CONTINUOUS
10
0.863945
20
0.431769
11
0.864435
21
0.433384
0
LINE
8
BLACK
6
CONTINUOUS
10
0.864435
20
0.433384
11
0.865231
21
0.434873
0
LINE
8
BLACK
6
CONTINUOUS
10
0.865231
20
0.434873
11
0.866302
21
0.436178
0
LINE
8
BLACK
6
CONTINUOUS
10
0.866302
20
0.436178
11
0.867607
21
0.437249
0
LINE
8
BLACK
6
CONTINUOUS
10
0.867607
20
0.437249
11
0.869096
21
0.438045
0
LINE
8
BLACK
6
CONTINUOUS
10
0.869096
20
0.438045
11
0.870712
21
0.438535
0
LINE
8
BLACK
6
CONTINUOUS
10
0.870712
20
0.438535
11
0.872392
21
0.438701
0
LINE
8
BLACK
6
CONTINUOUS
10
0.872392
20
0.438701
11
0.889616
21
0.438701
0
LINE
8
BLACK
6
CONTINUOUS
10
0.889616
20
0.438701
11
0.891296
21
0.438535
0
LINE
8
BLACK
6
CONTINUOUS
10
0.829288
20
0.438535
11
0.830904
21
0.438045
0
LINE
8
BLACK
6
CONTINUOUS
10
0.830904
20
0.438045
11
0.832393
21
0.437249
0
LINE
8
BLACK
6
CONTINUOUS
10
0.832393
20
0.437249
11
0.833698
21
0.436178
0
LINE
8
BLACK
6
CONTINUOUS
10
0.833698
20
0.436178
11
0.834769
21
0.434873
0
LINE
8
BLACK
6
CONTINUOUS
10
0.834769
20
0.434873
11
0.835565
21
0.433384
0
LINE
8
BLACK
6
CONTINUOUS
10
0.835565
20
0.433384
11
0.836055
21
0.431769
0
LINE
8
BLACK
6
CONTINUOUS
10
0.836055
20
0.431769
11
0.83622
21
0.430089
0
LINE
8
BLACK
6
CONTINUOUS
10
0.83622
20
0.430089
11
0.83622
21
0.409911
0
LINE
8
BLACK
6
CONTINUOUS
10
0.83622
20
0.409911
11
0.836055
21
0.408231
0
LINE
8
BLACK
6
CONTINUOUS
10
0.836055
20
0.408231
11
0.835565
21
0.406616
0
LINE
8
BLACK
6
CONTINUOUS
10
0.835565
20
0.406616
11
0.834769
21
0.405127
0
LINE
8
BLACK
6
CONTINUOUS
10
0.834769
20
0.405127
11
0.833698
21
0.403822
0
LINE
8
BLACK
6
CONTINUOUS
10
0.833698
20
0.403822
11
0.832393
21
0.402751
0
LINE
8
BLACK
6
CONTINUOUS
10
0.832393
20
0.402751
11
0.830904
21
0.401955
0
LINE
8
BLACK
6
CONTINUOUS
10
0.830904
20
0.401955
11
0.829288
21
0.401465
0
LINE
8
BLACK
6
CONTINUOUS
10
0.829288
20
0.401465
11
0.827608
21
0.401299
0
LINE
8
BLACK
6
CONTINUOUS
10
0.827608
20
0.401299
11
0.810384
21
0.401299
0
LINE
8
BLACK
6
CONTINUOUS
10
0.810384
20
0.401299
11
0.808704
21
0.401465
0
LINE
8
BLACK
6
CONTINUOUS
10
0.808704
20
0.401465
11
0.807088
21
0.401955
0
LINE
8
BLACK
6
CONTINUOUS
10
0.807088
20
0.401955
11
0.805599
21
0.402751
0
LINE
8
BLACK
6
CONTINUOUS
10
0.805599
20
0.402751
11
0.804294
21
0.403822
0
LINE
8
BLACK
6
CONTINUOUS
10
0.804294
20
0.403822
11
0.803223
21
0.405127
0
LINE
8
BLACK
6
CONTINUOUS
10
0.803223
20
0.405127
11
0.802427
21
0.406616
0
LINE
8
BLACK
6
CONTINUOUS
10
0.802427
20
0.406616
11
0.801937
21
0.408231
0
LINE
8
BLACK
6
CONTINUOUS
10
0.801937
20
0.408231
11
0.801772
21
0.409911
0
LINE
8
BLACK
6
CONTINUOUS
10
0.801772
20
0.409911
11
0.801772
21
0.430089
0
LINE
8
BLACK
6
CONTINUOUS
10
0.801772
20
0.430089
11
0.801937
21
0.431769
0
LINE
8
BLACK
6
CONTINUOUS
10
0.801937
20
0.431769
11
0.802427
21
0.433384
0
LINE
8
BLACK
6
CONTINUOUS
10
0.802427
20
0.433384
11
0.803223
21
0.434873
0
LINE
8
BLACK
6
CONTINUOUS
10
0.803223
20
0.434873
11
0.804294
21
0.436178
0
LINE
8
BLACK
6
CONTINUOUS
10
0.804294
20
0.436178
11
0.805599
21
0.437249
0
LINE
8
BLACK
6
CONTINUOUS
10
0.805599
20
0.437249
11
0.807088
21
0.438045
0
LINE
8
BLACK
6
CONTINUOUS
10
0.807088
20
0.438045
11
0.808704
21
0.438535
0
LINE
8
BLACK
6
CONTINUOUS
10
0.808704
20
0.438535
11
0.810384
21
0.438701
0
LINE
8
BLACK
6
CONTINUOUS
10
0.810384
20
0.438701
11
0.827608
21
0.438701
0
LINE
8
BLACK
6
CONTINUOUS
10
0.827608
20
0.438701
11
0.829288
21
0.438535
0
LINE
8
BLACK
6
CONTINUOUS
10
0.761296
20
0.478535
11
0.762912
21
0.478045
0
LINE
8
BLACK
6
CONTINUOUS
10
0.762912
20
0.478045
11
0.764401
21
0.477249
0
LINE
8
BLACK
6
CONTINUOUS
10
0.764401
20
0.477249
11
0.765706
21
0.476178
0
LINE
8
BLACK
6
CONTINUOUS
10
0.765706
20
0.476178
11
0.766777
21
0.474873
0
LINE
8
BLACK
6
CONTINUOUS
10
0.766777
20
0.474873
11
0.767573
21
0.473384
0
LINE
8
BLACK
6
CONTINUOUS
10
0.767573
20
0.473384
11
0.768063
21
0.471769
0
LINE
8
BLACK
6
CONTINUOUS
10
0.768063
20
0.471769
11
0.768228
21
0.470089
0
LINE
8
BLACK
6
CONTINUOUS
10
0.768228
20
0.470089
11
0.768228
21
0.449911
0
LINE
8
BLACK
6
CONTINUOUS
10
0.768228
20
0.449911
11
0.768063
21
0.448231
0
LINE
8
BLACK
6
CONTINUOUS
10
0.768063
20
0.448231
11
0.767573
21
0.446616
0
LINE
8
BLACK
6
CONTINUOUS
10
0.767573
20
0.446616
11
0.766777
21
0.445127
0
LINE
8
BLACK
6
CONTINUOUS
10
0.766777
20
0.445127
11
0.765706
21
0.443822
0
LINE
8
BLACK
6
CONTINUOUS
10
0.765706
20
0.443822
11
0.764401
21
0.442751
0
LINE
8
BLACK
6
CONTINUOUS
10
0.764401
20
0.442751
11
0.762912
21
0.441955
0
LINE
8
BLACK
6
CONTINUOUS
10
0.762912
20
0.441955
11
0.761296
21
0.441465
0
LINE
8
BLACK
6
CONTINUOUS
10
0.761296
20
0.441465
11
0.759616
21
0.441299
0
LINE
8
BLACK
6
CONTINUOUS
10
0.759616
20
0.441299
11
0.742392
21
0.441299
0
LINE
8
BLACK
6
CONTINUOUS
10
0.742392
20
0.441299
11
0.740712
21
0.441465
0
LINE
8
BLACK
6
CONTINUOUS
10
0.740712
20
0.441465
11
0.739096
21
0.441955
0
LINE
8
BLACK
6
CONTINUOUS
10
0.739096
20
0.441955
11
0.737607
21
0.442751
0
LINE
8
BLACK
6
CONTINUOUS
10
0.737607
20
0.442751
11
0.736302
21
0.443822
0
LINE
8
BLACK
6
CONTINUOUS
10
0.736302
20
0.443822
11
0.735231
21
0.445127
0
LINE
8
BLACK
6
CONTINUOUS
10
0.735231
20
0.445127
11
0.734435
21
0.446616
0
LINE
8
BLACK
6
CONTINUOUS
10
0.734435
20
0.446616
11
0.733945
21
0.448231
0
LINE
8
BLACK
6
CONTINUOUS
10
0.733945
20
0.448231
11
0.73378
21
0.449911
0
LINE
8
BLACK
6
CONTINUOUS
10
0.73378
20
0.449911
11
0.73378
21
0.470089
0
LINE
8
BLACK
6
CONTINUOUS
10
0.73378
20
0.470089
11
0.733945
21
0.471769
0
LINE
8
BLACK
6
CONTINUOUS
10
0.733945
20
0.471769
11
0.734435
21
0.473384
0
LINE
8
BLACK
6
CONTINUOUS
10
0.734435
20
0.473384
11
0.735231
21
0.474873
0
LINE
8
BLACK
6
CONTINUOUS
10
0.735231
20
0.474873
11
0.736302
21
0.476178
0
LINE
8
BLACK
6
CONTINUOUS
10
0.736302
20
0.476178
11
0.737607
21
0.477249
0
LINE
8
BLACK
6
CONTINUOUS
10
0.737607
20
0.477249
11
0.739096
21
0.478045
0
LINE
8
BLACK
6
CONTINUOUS
10
0.739096
20
0.478045
11
0.740712
21
0.478535
0
LINE
8
BLACK
6
CONTINUOUS
10
0.740712
20
0.478535
11
0.742392
21
0.478701
0
LINE
8
BLACK
6
CONTINUOUS
10
0.742392
20
0.478701
11
0.759616
21
0.478701
0
LINE
8
BLACK
6
CONTINUOUS
10
0.759616
20
0.478701
11
0.761296
21
0.478535
0
LINE
8
BLACK
6
CONTINUOUS
10
0.699288
20
0.478535
11
0.700904
21
0.478045
0
LINE
8
BLACK
6
CONTINUOUS
10
0.700904
20
0.478045
11
0.702393
21
0.477249
0
LINE
8
BLACK
6
CONTINUOUS
10
0.702393
20
0.477249
11
0.703698
21
0.476178
0
LINE
8
BLACK
6
CONTINUOUS
10
0.703698
20
0.476178
11
0.704769
21
0.474873
0
LINE
8
BLACK
6
CONTINUOUS
10
0.704769
20
0.474873
11
0.705565
21
0.473384
0
LINE
8
BLACK
6
CONTINUOUS
10
0.705565
20
0.473384
11
0.706055
21
0.471769
0
LINE
8
BLACK
6
CONTINUOUS
10
0.706055
20
0.471769
11
0.70622
21
0.470089
0
LINE
8
BLACK
6
CONTINUOUS
10
0.70622
20
0.470089
11
0.70622
21
0.449911
0
LINE
8
BLACK
6
CONTINUOUS
10
0.70622
20
0.449911
11
0.706055
21
0.448231
0
LINE
8
BLACK
6
CONTINUOUS
10
0.706055
20
0.448231
11
0.705565
21
0.446616
0
LINE
8
BLACK
6
CONTINUOUS
10
0.705565
20
0.446616
11
0.704769
21
0.445127
0
LINE
8
BLACK
6
CONTINUOUS
10
0.704769
20
0.445127
11
0.703698
21
0.443822
0
LINE
8
BLACK
6
CONTINUOUS
10
0.703698
20
0.443822
11
0.702393
21
0.442751
0
LINE
8
BLACK
6
CONTINUOUS
10
0.702393
20
0.442751
11
0.700904
21
0.441955
0
LINE
8
BLACK
6
CONTINUOUS
10
0.700904
20
0.441955
11
0.699288
21
0.441465
0
LINE
8
BLACK
6
CONTINUOUS
10
0.699288
20
0.441465
11
0.697608
21
0.441299
0
LINE
8
BLACK
6
CONTINUOUS
10
0.697608
20
0.441299
11
0.680384
21
0.441299
0
LINE
8
BLACK
6
CONTINUOUS
10
0.680384
20
0.441299
11
0.678704
21
0.441465
0
LINE
8
BLACK
6
CONTINUOUS
10
0.678704
20
0.441465
11
0.677088
21
0.441955
0
LINE
8
BLACK
6
CONTINUOUS
10
0.677088
20
0.441955
11
0.675599
21
0.442751
0
LINE
8
BLACK
6
CONTINUOUS
10
0.675599
20
0.442751
11
0.674294
21
0.443822
0
LINE
8
BLACK
6
CONTINUOUS
10
0.674294
20
0.443822
11
0.673223
21
0.445127
0
LINE
8
BLACK
6
CONTINUOUS
10
0.673223
20
0.445127
11
0.672427
21
0.446616
0
LINE
8
BLACK
6
CONTINUOUS
10
0.672427
20
0.446616
11
0.671937
21
0.448231
0
LINE
8
BLACK
6
CONTINUOUS
10
0.671937
20
0.448231
11
0.671772
21
0.449911
0
LINE
8
BLACK
6
CONTINUOUS
10
0.671772
20
0.449911
11
0.671772
21
0.470089
0
LINE
8
BLACK
6
CONTINUOUS
10
0.671772
20
0.470089
11
0.671937
21
0.471769
0
LINE
8
BLACK
6
CONTINUOUS
10
0.671937
20
0.471769
11
0.672427
21
0.473384
0
LINE
8
BLACK
6
CONTINUOUS
10
0.672427
20
0.473384
11
0.673223
21
0.474873
0
LINE
8
BLACK
6
CONTINUOUS
10
0.673223
20
0.474873
11
0.674294
21
0.476178
0
LINE
8
BLACK
6
CONTINUOUS
10
0.674294
20
0.476178
11
0.675599
21
0.477249
0
LINE
8
BLACK
6
CONTINUOUS
10
0.675599
20
0.477249
11
0.677088
21
0.478045
0
LINE
8
BLACK
6
CONTINUOUS
10
0.677088
20
0.478045
11
0.678704
21
0.478535
0
LINE
8
BLACK
6
CONTINUOUS
10
0.678704
20
0.478535
11
0.680384
21
0.478701
0
LINE
8
BLACK
6
CONTINUOUS
10
0.680384
20
0.478701
11
0.697608
21
0.478701
0
LINE
8
BLACK
6
CONTINUOUS
10
0.697608
20
0.478701
11
0.699288
21
0.478535
0
LINE
8
BLACK
6
CONTINUOUS
10
0.509055
20
0.451575
11
0.477559
21
0.451575
0
LINE
8
BLACK
6
CONTINUOUS
10
0.477559
20
0.451575
11
0.477559
21
0.522441
0
LINE
8
BLACK
6
CONTINUOUS
10
0.477559
20
0.522441
11
0.509055
21
0.522441
0
LINE
8
BLACK
6
CONTINUOUS
10
0.509055
20
0.522441
11
0.509055
21
0.451575
0
LINE
8
BLACK
6
CONTINUOUS
10
0.290551
20
0.451575
11
0.262992
21
0.451575
0
LINE
8
BLACK
6
CONTINUOUS
10
0.262992
20
0.451575
11
0.262992
21
0.522441
0
LINE
8
BLACK
6
CONTINUOUS
10
0.262992
20
0.522441
11
0.290551
21
0.522441
0
LINE
8
BLACK
6
CONTINUOUS
10
0.290551
20
0.522441
11
0.290551
21
0.451575
0
LINE
8
BLACK
6
CONTINUOUS
10
0.335827
20
0.451575
11
0.304331
21
0.451575
0
LINE
8
BLACK
6
CONTINUOUS
10
0.304331
20
0.451575
11
0.304331
21
0.522441
0
LINE
8
BLACK
6
CONTINUOUS
10
0.304331
20
0.522441
11
0.335827
21
0.522441
0
LINE
8
BLACK
6
CONTINUOUS
10
0.335827
20
0.522441
11
0.335827
21
0.451575
0
LINE
8
BLACK
6
CONTINUOUS
10
0.379134
20
0.451575
11
0.347638
21
0.451575
0
LINE
8
BLACK
6
CONTINUOUS
10
0.347638
20
0.451575
11
0.347638
21
0.522441
0
LINE
8
BLACK
6
CONTINUOUS
10
0.347638
20
0.522441
11
0.379134
21
0.522441
0
LINE
8
BLACK
6
CONTINUOUS
10
0.379134
20
0.522441
11
0.379134
21
0.451575
0
LINE
8
BLACK
6
CONTINUOUS
10
0.422441
20
0.451575
11
0.390945
21
0.451575
0
LINE
8
BLACK
6
CONTINUOUS
10
0.390945
20
0.451575
11
0.390945
21
0.522441
0
LINE
8
BLACK
6
CONTINUOUS
10
0.390945
20
0.522441
11
0.422441
21
0.522441
0
LINE
8
BLACK
6
CONTINUOUS
10
0.422441
20
0.522441
11
0.422441
21
0.451575
0
LINE
8
BLACK
6
CONTINUOUS
10
0.465748
20
0.451575
11
0.434252
21
0.451575
0
LINE
8
BLACK
6
CONTINUOUS
10
0.434252
20
0.451575
11
0.434252
21
0.522441
0
LINE
8
BLACK
6
CONTINUOUS
10
0.434252
20
0.522441
11
0.465748
21
0.522441
0
LINE
8
BLACK
6
CONTINUOUS
10
0.465748
20
0.522441
11
0.465748
21
0.451575
0
LINE
8
BLACK
6
CONTINUOUS
10
0.552362
20
0.451575
11
0.520866
21
0.451575
0
LINE
8
BLACK
6
CONTINUOUS
10
0.520866
20
0.451575
11
0.520866
21
0.522441
0
LINE
8
BLACK
6
CONTINUOUS
10
0.520866
20
0.522441
11
0.552362
21
0.522441
0
LINE
8
BLACK
6
CONTINUOUS
10
0.552362
20
0.522441
11
0.552362
21
0.451575
0
LINE
8
BLACK
6
CONTINUOUS
10
0.595669
20
0.451575
11
0.564173
21
0.451575
0
LINE
8
BLACK
6
CONTINUOUS
10
0.564173
20
0.451575
11
0.564173
21
0.522441
0
LINE
8
BLACK
6
CONTINUOUS
10
0.564173
20
0.522441
11
0.595669
21
0.522441
0
LINE
8
BLACK
6
CONTINUOUS
10
0.595669
20
0.522441
11
0.595669
21
0.451575
0
LINE
8
BLACK
6
CONTINUOUS
10
0.637008
20
0.451575
11
0.609449
21
0.451575
0
LINE
8
BLACK
6
CONTINUOUS
10
0.609449
20
0.451575
11
0.609449
21
0.522441
0
LINE
8
BLACK
6
CONTINUOUS
10
0.609449
20
0.522441
11
0.637008
21
0.522441
0
LINE
8
BLACK
6
CONTINUOUS
10
0.637008
20
0.522441
11
0.637008
21
0.451575
0
LINE
8
BLACK
6
CONTINUOUS
10
0.966769
20
0.488063
11
0.968384
21
0.487573
0
LINE
8
BLACK
6
CONTINUOUS
10
0.968384
20
0.487573
11
0.969873
21
0.486777
0
LINE
8
BLACK
6
CONTINUOUS
10
0.969873
20
0.486777
11
0.971178
21
0.485706
0
LINE
8
BLACK
6
CONTINUOUS
10
0.971178
20
0.485706
11
0.972249
21
0.484401
0
LINE
8
BLACK
6
CONTINUOUS
10
0.972249
20
0.484401
11
0.973045
21
0.482912
0
LINE
8
BLACK
6
CONTINUOUS
10
0.973045
20
0.482912
11
0.973535
21
0.481296
0
LINE
8
BLACK
6
CONTINUOUS
10
0.973535
20
0.481296
11
0.973701
21
0.479616
0
LINE
8
BLACK
6
CONTINUOUS
10
0.973701
20
0.479616
11
0.973701
21
0.462392
0
LINE
8
BLACK
6
CONTINUOUS
10
0.973701
20
0.462392
11
0.973535
21
0.460712
0
LINE
8
BLACK
6
CONTINUOUS
10
0.973535
20
0.460712
11
0.973045
21
0.459096
0
LINE
8
BLACK
6
CONTINUOUS
10
0.973045
20
0.459096
11
0.972249
21
0.457607
0
LINE
8
BLACK
6
CONTINUOUS
10
0.972249
20
0.457607
11
0.971178
21
0.456302
0
LINE
8
BLACK
6
CONTINUOUS
10
0.971178
20
0.456302
11
0.969873
21
0.455231
0
LINE
8
BLACK
6
CONTINUOUS
10
0.969873
20
0.455231
11
0.968384
21
0.454435
0
LINE
8
BLACK
6
CONTINUOUS
10
0.968384
20
0.454435
11
0.966769
21
0.453945
0
LINE
8
BLACK
6
CONTINUOUS
10
0.966769
20
0.453945
11
0.965089
21
0.45378
0
LINE
8
BLACK
6
CONTINUOUS
10
0.965089
20
0.45378
11
0.944911
21
0.45378
0
LINE
8
BLACK
6
CONTINUOUS
10
0.944911
20
0.45378
11
0.943231
21
0.453945
0
LINE
8
BLACK
6
CONTINUOUS
10
0.943231
20
0.453945
11
0.941616
21
0.454435
0
LINE
8
BLACK
6
CONTINUOUS
10
0.941616
20
0.454435
11
0.940127
21
0.455231
0
LINE
8
BLACK
6
CONTINUOUS
10
0.940127
20
0.455231
11
0.938822
21
0.456302
0
LINE
8
BLACK
6
CONTINUOUS
10
0.938822
20
0.456302
11
0.937751
21
0.457607
0
LINE
8
BLACK
6
CONTINUOUS
10
0.937751
20
0.457607
11
0.936955
21
0.459096
0
LINE
8
BLACK
6
CONTINUOUS
10
0.936955
20
0.459096
11
0.936465
21
0.460712
0
LINE
8
BLACK
6
CONTINUOUS
10
0.936465
20
0.460712
11
0.936299
21
0.462392
0
LINE
8
BLACK
6
CONTINUOUS
10
0.936299
20
0.462392
11
0.936299
21
0.479616
0
LINE
8
BLACK
6
CONTINUOUS
10
0.936299
20
0.479616
11
0.936465
21
0.481296
0
LINE
8
BLACK
6
CONTINUOUS
10
0.936465
20
0.481296
11
0.936955
21
0.482912
0
LINE
8
BLACK
6
CONTINUOUS
10
0.936955
20
0.482912
11
0.937751
21
0.484401
0
LINE
8
BLACK
6
CONTINUOUS
10
0.937751
20
0.484401
11
0.938822
21
0.485706
0
LINE
8
BLACK
6
CONTINUOUS
10
0.938822
20
0.485706
11
0.940127
21
0.486777
0
LINE
8
BLACK
6
CONTINUOUS
10
0.940127
20
0.486777
11
0.941616
21
0.487573
0
LINE
8
BLACK
6
CONTINUOUS
10
0.941616
20
0.487573
11
0.943231
21
0.488063
0
LINE
8
BLACK
6
CONTINUOUS
10
0.943231
20
0.488063
11
0.944911
21
0.488228
0
LINE
8
BLACK
6
CONTINUOUS
10
0.944911
20
0.488228
11
0.965089
21
0.488228
0
LINE
8
BLACK
6
CONTINUOUS
10
0.965089
20
0.488228
11
0.966769
21
0.488063
0
LINE
8
BLACK
6
CONTINUOUS
10
0.222202
20
0.493535
11
0.223817
21
0.493045
0
LINE
8
BLACK
6
CONTINUOUS
10
0.223817
20
0.493045
11
0.225306
21
0.492249
0
LINE
8
BLACK
6
CONTINUOUS
10
0.225306
20
0.492249
11
0.226611
21
0.491178
0
LINE
8
BLACK
6
CONTINUOUS
10
0.226611
20
0.491178
11
0.227682
21
0.489873
0
LINE
8
BLACK
6
CONTINUOUS
10
0.227682
20
0.489873
11
0.228478
21
0.488384
0
LINE
8
BLACK
6
CONTINUOUS
10
0.228478
20
0.488384
11
0.228968
21
0.486769
0
LINE
8
BLACK
6
CONTINUOUS
10
0.228968
20
0.486769
11
0.229134
21
0.485089
0
LINE
8
BLACK
6
CONTINUOUS
10
0.229134
20
0.485089
11
0.229134
21
0.464911
0
LINE
8
BLACK
6
CONTINUOUS
10
0.229134
20
0.464911
11
0.228968
21
0.463231
0
LINE
8
BLACK
6
CONTINUOUS
10
0.228968
20
0.463231
11
0.228478
21
0.461616
0
LINE
8
BLACK
6
CONTINUOUS
10
0.228478
20
0.461616
11
0.227682
21
0.460127
0
LINE
8
BLACK
6
CONTINUOUS
10
0.227682
20
0.460127
11
0.226611
21
0.458822
0
LINE
8
BLACK
6
CONTINUOUS
10
0.226611
20
0.458822
11
0.225306
21
0.457751
0
LINE
8
BLACK
6
CONTINUOUS
10
0.225306
20
0.457751
11
0.223817
21
0.456955
0
LINE
8
BLACK
6
CONTINUOUS
10
0.223817
20
0.456955
11
0.222202
21
0.456465
0
LINE
8
BLACK
6
CONTINUOUS
10
0.222202
20
0.456465
11
0.220522
21
0.456299
0
LINE
8
BLACK
6
CONTINUOUS
10
0.220522
20
0.456299
11
0.203297
21
0.456299
0
LINE
8
BLACK
6
CONTINUOUS
10
0.203297
20
0.456299
11
0.201617
21
0.456465
0
LINE
8
BLACK
6
CONTINUOUS
10
0.201617
20
0.456465
11
0.200001
21
0.456955
0
LINE
8
BLACK
6
CONTINUOUS
10
0.200001
20
0.456955
11
0.198513
21
0.457751
0
LINE
8
BLACK
6
CONTINUOUS
10
0.198513
20
0.457751
11
0.197207
21
0.458822
0
LINE
8
BLACK
6
CONTINUOUS
10
0.197207
20
0.458822
11
0.196136
21
0.460127
0
LINE
8
BLACK
6
CONTINUOUS
10
0.196136
20
0.460127
11
0.195341
21
0.461616
0
LINE
8
BLACK
6
CONTINUOUS
10
0.195341
20
0.461616
11
0.194851
21
0.463231
0
LINE
8
BLACK
6
CONTINUOUS
10
0.194851
20
0.463231
11
0.194685
21
0.464911
0
LINE
8
BLACK
6
CONTINUOUS
10
0.194685
20
0.464911
11
0.194685
21
0.485089
0
LINE
8
BLACK
6
CONTINUOUS
10
0.194685
20
0.485089
11
0.194851
21
0.486769
0
LINE
8
BLACK
6
CONTINUOUS
10
0.194851
20
0.486769
11
0.195341
21
0.488384
0
LINE
8
BLACK
6
CONTINUOUS
10
0.195341
20
0.488384
11
0.196136
21
0.489873
0
LINE
8
BLACK
6
CONTINUOUS
10
0.196136
20
0.489873
11
0.197207
21
0.491178
0
LINE
8
BLACK
6
CONTINUOUS
10
0.197207
20
0.491178
11
0.198513
21
0.492249
0
LINE
8
BLACK
6
CONTINUOUS
10
0.198513
20
0.492249
11
0.200001
21
0.493045
0
LINE
8
BLACK
6
CONTINUOUS
10
0.200001
20
0.493045
11
0.201617
21
0.493535
0
LINE
8
BLACK
6
CONTINUOUS
10
0.201617
20
0.493535
11
0.203297
21
0.493701
0
LINE
8
BLACK
6
CONTINUOUS
10
0.203297
20
0.493701
11
0.220522
21
0.493701
0
LINE
8
BLACK
6
CONTINUOUS
10
0.220522
20
0.493701
11
0.222202
21
0.493535
0
LINE
8
BLACK
6
CONTINUOUS
10
0.160194
20
0.493535
11
0.16181
21
0.493045
0
LINE
8
BLACK
6
CONTINUOUS
10
0.16181
20
0.493045
11
0.163298
21
0.492249
0
LINE
8
BLACK
6
CONTINUOUS
10
0.163298
20
0.492249
11
0.164604
21
0.491178
0
LINE
8
BLACK
6
CONTINUOUS
10
0.164604
20
0.491178
11
0.165675
21
0.489873
0
LINE
8
BLACK
6
CONTINUOUS
10
0.165675
20
0.489873
11
0.16647
21
0.488384
0
LINE
8
BLACK
6
CONTINUOUS
10
0.16647
20
0.488384
11
0.166961
21
0.486769
0
LINE
8
BLACK
6
CONTINUOUS
10
0.166961
20
0.486769
11
0.167126
21
0.485089
0
LINE
8
BLACK
6
CONTINUOUS
10
0.167126
20
0.485089
11
0.167126
21
0.464911
0
LINE
8
BLACK
6
CONTINUOUS
10
0.167126
20
0.464911
11
0.166961
21
0.463231
0
LINE
8
BLACK
6
CONTINUOUS
10
0.166961
20
0.463231
11
0.16647
21
0.461616
0
LINE
8
BLACK
6
CONTINUOUS
10
0.16647
20
0.461616
11
0.165675
21
0.460127
0
LINE
8
BLACK
6
CONTINUOUS
10
0.165675
20
0.460127
11
0.164604
21
0.458822
0
LINE
8
BLACK
6
CONTINUOUS
10
0.164604
20
0.458822
11
0.163298
21
0.457751
0
LINE
8
BLACK
6
CONTINUOUS
10
0.163298
20
0.457751
11
0.16181
21
0.456955
0
LINE
8
BLACK
6
CONTINUOUS
10
0.16181
20
0.456955
11
0.160194
21
0.456465
0
LINE
8
BLACK
6
CONTINUOUS
10
0.160194
20
0.456465
11
0.158514
21
0.456299
0
LINE
8
BLACK
6
CONTINUOUS
10
0.158514
20
0.456299
11
0.141289
21
0.456299
0
LINE
8
BLACK
6
CONTINUOUS
10
0.141289
20
0.456299
11
0.139609
21
0.456465
0
LINE
8
BLACK
6
CONTINUOUS
10
0.139609
20
0.456465
11
0.137994
21
0.456955
0
LINE
8
BLACK
6
CONTINUOUS
10
0.137994
20
0.456955
11
0.136505
21
0.457751
0
LINE
8
BLACK
6
CONTINUOUS
10
0.136505
20
0.457751
11
0.1352
21
0.458822
0
LINE
8
BLACK
6
CONTINUOUS
10
0.1352
20
0.458822
11
0.134129
21
0.460127
0
LINE
8
BLACK
6
CONTINUOUS
10
0.134129
20
0.460127
11
0.133333
21
0.461616
0
LINE
8
BLACK
6
CONTINUOUS
10
0.133333
20
0.461616
11
0.132843
21
0.463231
0
LINE
8
BLACK
6
CONTINUOUS
10
0.132843
20
0.463231
11
0.132677
21
0.464911
0
LINE
8
BLACK
6
CONTINUOUS
10
0.132677
20
0.464911
11
0.132677
21
0.485089
0
LINE
8
BLACK
6
CONTINUOUS
10
0.132677
20
0.485089
11
0.132843
21
0.486769
0
LINE
8
BLACK
6
CONTINUOUS
10
0.132843
20
0.486769
11
0.133333
21
0.488384
0
LINE
8
BLACK
6
CONTINUOUS
10
0.133333
20
0.488384
11
0.134129
21
0.489873
0
LINE
8
BLACK
6
CONTINUOUS
10
0.134129
20
0.489873
11
0.1352
21
0.491178
0
LINE
8
BLACK
6
CONTINUOUS
10
0.1352
20
0.491178
11
0.136505
21
0.492249
0
LINE
8
BLACK
6
CONTINUOUS
10
0.136505
20
0.492249
11
0.137994
21
0.493045
0
LINE
8
BLACK
6
CONTINUOUS
10
0.137994
20
0.493045
11
0.139609
21
0.493535
0
LINE
8
BLACK
6
CONTINUOUS
10
0.139609
20
0.493535
11
0.141289
21
0.493701
0
LINE
8
BLACK
6
CONTINUOUS
10
0.141289
20
0.493701
11
0.158514
21
0.493701
0
LINE
8
BLACK
6
CONTINUOUS
10
0.158514
20
0.493701
11
0.160194
21
0.493535
0
LINE
8
BLACK
6
CONTINUOUS
10
0.699288
20
0.538535
11
0.700904
21
0.538045
0
LINE
8
BLACK
6
CONTINUOUS
10
0.700904
20
0.538045
11
0.702393
21
0.537249
0
LINE
8
BLACK
6
CONTINUOUS
10
0.702393
20
0.537249
11
0.703698
21
0.536178
0
LINE
8
BLACK
6
CONTINUOUS
10
0.703698
20
0.536178
11
0.704769
21
0.534873
0
LINE
8
BLACK
6
CONTINUOUS
10
0.704769
20
0.534873
11
0.705565
21
0.533384
0
LINE
8
BLACK
6
CONTINUOUS
10
0.705565
20
0.533384
11
0.706055
21
0.531769
0
LINE
8
BLACK
6
CONTINUOUS
10
0.706055
20
0.531769
11
0.70622
21
0.530089
0
LINE
8
BLACK
6
CONTINUOUS
10
0.70622
20
0.530089
11
0.70622
21
0.509911
0
LINE
8
BLACK
6
CONTINUOUS
10
0.70622
20
0.509911
11
0.706055
21
0.508231
0
LINE
8
BLACK
6
CONTINUOUS
10
0.706055
20
0.508231
11
0.705565
21
0.506616
0
LINE
8
BLACK
6
CONTINUOUS
10
0.705565
20
0.506616
11
0.704769
21
0.505127
0
LINE
8
BLACK
6
CONTINUOUS
10
0.704769
20
0.505127
11
0.703698
21
0.503822
0
LINE
8
BLACK
6
CONTINUOUS
10
0.703698
20
0.503822
11
0.702393
21
0.502751
0
LINE
8
BLACK
6
CONTINUOUS
10
0.702393
20
0.502751
11
0.700904
21
0.501955
0
LINE
8
BLACK
6
CONTINUOUS
10
0.700904
20
0.501955
11
0.699288
21
0.501465
0
LINE
8
BLACK
6
CONTINUOUS
10
0.699288
20
0.501465
11
0.697608
21
0.501299
0
LINE
8
BLACK
6
CONTINUOUS
10
0.697608
20
0.501299
11
0.680384
21
0.501299
0
LINE
8
BLACK
6
CONTINUOUS
10
0.680384
20
0.501299
11
0.678704
21
0.501465
0
LINE
8
BLACK
6
CONTINUOUS
10
0.678704
20
0.501465
11
0.677088
21
0.501955
0
LINE
8
BLACK
6
CONTINUOUS
10
0.677088
20
0.501955
11
0.675599
21
0.502751
0
LINE
8
BLACK
6
CONTINUOUS
10
0.675599
20
0.502751
11
0.674294
21
0.503822
0
LINE
8
BLACK
6
CONTINUOUS
10
0.674294
20
0.503822
11
0.673223
21
0.505127
0
LINE
8
BLACK
6
CONTINUOUS
10
0.673223
20
0.505127
11
0.672427
21
0.506616
0
LINE
8
BLACK
6
CONTINUOUS
10
0.672427
20
0.506616
11
0.671937
21
0.508231
0
LINE
8
BLACK
6
CONTINUOUS
10
0.671937
20
0.508231
11
0.671772
21
0.509911
0
LINE
8
BLACK
6
CONTINUOUS
10
0.671772
20
0.509911
11
0.671772
21
0.530089
0
LINE
8
BLACK
6
CONTINUOUS
10
0.671772
20
0.530089
11
0.671937
21
0.531769
0
LINE
8
BLACK
6
CONTINUOUS
10
0.671937
20
0.531769
11
0.672427
21
0.533384
0
LINE
8
BLACK
6
CONTINUOUS
10
0.672427
20
0.533384
11
0.673223
21
0.534873
0
LINE
8
BLACK
6
CONTINUOUS
10
0.673223
20
0.534873
11
0.674294
21
0.536178
0
LINE
8
BLACK
6
CONTINUOUS
10
0.674294
20
0.536178
11
0.675599
21
0.537249
0
LINE
8
BLACK
6
CONTINUOUS
10
0.675599
20
0.537249
11
0.677088
21
0.538045
0
LINE
8
BLACK
6
CONTINUOUS
10
0.677088
20
0.538045
11
0.678704
21
0.538535
0
LINE
8
BLACK
6
CONTINUOUS
10
0.678704
20
0.538535
11
0.680384
21
0.538701
0
LINE
8
BLACK
6
CONTINUOUS
10
0.680384
20
0.538701
11
0.697608
21
0.538701
0
LINE
8
BLACK
6
CONTINUOUS
10
0.697608
20
0.538701
11
0.699288
21
0.538535
0
LINE
8
BLACK
6
CONTINUOUS
10
0.761296
20
0.538535
11
0.762912
21
0.538045
0
LINE
8
BLACK
6
CONTINUOUS
10
0.762912
20
0.538045
11
0.764401
21
0.537249
0
LINE
8
BLACK
6
CONTINUOUS
10
0.764401
20
0.537249
11
0.765706
21
0.536178
0
LINE
8
BLACK
6
CONTINUOUS
10
0.765706
20
0.536178
11
0.766777
21
0.534873
0
LINE
8
BLACK
6
CONTINUOUS
10
0.766777
20
0.534873
11
0.767573
21
0.533384
0
LINE
8
BLACK
6
CONTINUOUS
10
0.767573
20
0.533384
11
0.768063
21
0.531769
0
LINE
8
BLACK
6
CONTINUOUS
10
0.768063
20
0.531769
11
0.768228
21
0.530089
0
LINE
8
BLACK
6
CONTINUOUS
10
0.768228
20
0.530089
11
0.768228
21
0.509911
0
LINE
8
BLACK
6
CONTINUOUS
10
0.768228
20
0.509911
11
0.768063
21
0.508231
0
LINE
8
BLACK
6
CONTINUOUS
10
0.768063
20
0.508231
11
0.767573
21
0.506616
0
LINE
8
BLACK
6
CONTINUOUS
10
0.767573
20
0.506616
11
0.766777
21
0.505127
0
LINE
8
BLACK
6
CONTINUOUS
10
0.766777
20
0.505127
11
0.765706
21
0.503822
0
LINE
8
BLACK
6
CONTINUOUS
10
0.765706
20
0.503822
11
0.764401
21
0.502751
0
LINE
8
BLACK
6
CONTINUOUS
10
0.764401
20
0.502751
11
0.762912
21
0.501955
0
LINE
8
BLACK
6
CONTINUOUS
10
0.762912
20
0.501955
11
0.761296
21
0.501465
0
LINE
8
BLACK
6
CONTINUOUS
10
0.761296
20
0.501465
11
0.759616
21
0.501299
0
LINE
8
BLACK
6
CONTINUOUS
10
0.759616
20
0.501299
11
0.742392
21
0.501299
0
LINE
8
BLACK
6
CONTINUOUS
10
0.742392
20
0.501299
11
0.740712
21
0.501465
0
LINE
8
BLACK
6
CONTINUOUS
10
0.740712
20
0.501465
11
0.739096
21
0.501955
0
LINE
8
BLACK
6
CONTINUOUS
10
0.739096
20
0.501955
11
0.737607
21
0.502751
0
LINE
8
BLACK
6
CONTINUOUS
10
0.737607
20
0.502751
11
0.736302
21
0.503822
0
LINE
8
BLACK
6
CONTINUOUS
10
0.736302
20
0.503822
11
0.735231
21
0.505127
0
LINE
8
BLACK
6
CONTINUOUS
10
0.735231
20
0.505127
11
0.734435
21
0.506616
0
LINE
8
BLACK
6
CONTINUOUS
10
0.734435
20
0.506616
11
0.733945
21
0.508231
0
LINE
8
BLACK
6
CONTINUOUS
10
0.733945
20
0.508231
11
0.73378
21
0.509911
0
LINE
8
BLACK
6
CONTINUOUS
10
0.73378
20
0.509911
11
0.73378
21
0.530089
0
LINE
8
BLACK
6
CONTINUOUS
10
0.73378
20
0.530089
11
0.733945
21
0.531769
0
LINE
8
BLACK
6
CONTINUOUS
10
0.733945
20
0.531769
11
0.734435
21
0.533384
0
LINE
8
BLACK
6
CONTINUOUS
10
0.734435
20
0.533384
11
0.735231
21
0.534873
0
LINE
8
BLACK
6
CONTINUOUS
10
0.735231
20
0.534873
11
0.736302
21
0.536178
0
LINE
8
BLACK
6
CONTINUOUS
10
0.736302
20
0.536178
11
0.737607
21
0.537249
0
LINE
8
BLACK
6
CONTINUOUS
10
0.737607
20
0.537249
11
0.739096
21
0.538045
0
LINE
8
BLACK
6
CONTINUOUS
10
0.739096
20
0.538045
11
0.740712
21
0.538535
0
LINE
8
BLACK
6
CONTINUOUS
10
0.740712
20
0.538535
11
0.742392
21
0.538701
0
LINE
8
BLACK
6
CONTINUOUS
10
0.742392
20
0.538701
11
0.759616
21
0.538701
0
LINE
8
BLACK
6
CONTINUOUS
10
0.759616
20
0.538701
11
0.761296
21
0.538535
  0
ENDSEC
  0
EOF
