  0
SECTION
  2
HEADER
  9
$ANGBASE
  50
0.0
  9
$ANGDIR
  70
1
  9
$MEASUREMENT
  70
0
  0
ENDSEC
  0
SECTION
  2
TABLES
  0
TABLE
  2
LTYPE
  70
4
  0
LTYPE
  5
40F
  2
CONTINUOUS
  70
0
  3
Solid line
  72
65
  73
0
  40
0.0
  0
LTYPE
  5
410
  2
DASHDOT
 70
0
  3
Dash Dot ____ _ ____ _
 72
65
 73
4
 40
2.0
 49
1.25
 49
-0.25
 49
0.25
 49
-0.25
  0
LTYPE
  5
411
  2
DASHED
 70
0
  3
Dashed __ __ __ __ __
 72
65
 73
2
 40
0.75
 49
0.5
 49
-0.25
  0
LTYPE
  5
43B
  2
DOTTED
 70
0
  3
Dotted .  .  .  .
 72
65
 73
2
 40
0.2
 49
0.0
 49
-0.2
  0
ENDTAB
  0
TABLE
  2
STYLE
  70
4
  0
STYLE
  2
KICAD
  70
0
  40
0
  41
1
  42
1
  50
0
  71
0
  3
isocp.shx
  0
STYLE
  2
KICADB
  70
0
  40
0
  41
1
  42
1
  50
0
  71
0
  3
isocp.shx
  0
STYLE
  2
KICADI
  70
0
  40
0
  41
1
  42
1
  50
15
  71
0
  3
isocp.shx
  0
STYLE
  2
KICADBI
  70
0
  40
0
  41
1
  42
1
  50
15
  71
0
  3
isocp.shx
  0
ENDTAB
  0
TABLE
  2
LAYER
  70
1
  0
LAYER
  2
BLACK
  70
0
  62
7
  6
CONTINUOUS
  0
ENDTAB
  0
ENDSEC
  0
SECTION
  2
ENTITIES
0
LINE
8
BLACK
6
CONTINUOUS
10
0.992304
20
0.325086
11
0.998787
21
0.340737
0
LINE
8
BLACK
6
CONTINUOUS
10
0.998787
20
0.340737
11
1.0082
21
0.354823
0
LINE
8
BLACK
6
CONTINUOUS
10
1.0082
20
0.354823
11
1.02018
21
0.366801
0
LINE
8
BLACK
6
CONTINUOUS
10
1.02018
20
0.366801
11
1.03426
21
0.376213
0
LINE
8
BLACK
6
CONTINUOUS
10
1.03426
20
0.376213
11
1.04991
21
0.382696
0
LINE
8
BLACK
6
CONTINUOUS
10
1.04991
20
0.382696
11
1.06653
21
0.386001
0
LINE
8
BLACK
6
CONTINUOUS
10
1.06653
20
0.386001
11
1.08347
21
0.386001
0
LINE
8
BLACK
6
CONTINUOUS
10
1.08347
20
0.386001
11
1.10009
21
0.382696
0
LINE
8
BLACK
6
CONTINUOUS
10
1.10009
20
0.382696
11
1.11574
21
0.376213
0
LINE
8
BLACK
6
CONTINUOUS
10
1.11574
20
0.376213
11
1.12982
21
0.366801
0
LINE
8
BLACK
6
CONTINUOUS
10
1.12982
20
0.366801
11
1.1418
21
0.354823
0
LINE
8
BLACK
6
CONTINUOUS
10
1.1418
20
0.354823
11
1.15121
21
0.340737
0
LINE
8
BLACK
6
CONTINUOUS
10
1.15121
20
0.340737
11
1.1577
21
0.325086
0
LINE
8
BLACK
6
CONTINUOUS
10
1.1577
20
0.325086
11
1.161
21
0.30847
0
LINE
8
BLACK
6
CONTINUOUS
10
1.161
20
0.30847
11
1.161
21
0.29153
0
LINE
8
BLACK
6
CONTINUOUS
10
1.161
20
0.29153
11
1.1577
21
0.274914
0
LINE
8
BLACK
6
CONTINUOUS
10
1.1577
20
0.274914
11
1.15121
21
0.259263
0
LINE
8
BLACK
6
CONTINUOUS
10
1.15121
20
0.259263
11
1.1418
21
0.245177
0
LINE
8
BLACK
6
CONTINUOUS
10
1.1418
20
0.245177
11
1.12982
21
0.233199
0
LINE
8
BLACK
6
CONTINUOUS
10
1.12982
20
0.233199
11
1.11574
21
0.223787
0
LINE
8
BLACK
6
CONTINUOUS
10
1.11574
20
0.223787
11
1.10009
21
0.217304
0
LINE
8
BLACK
6
CONTINUOUS
10
1.10009
20
0.217304
11
1.08347
21
0.213999
0
LINE
8
BLACK
6
CONTINUOUS
10
1.08347
20
0.213999
11
1.06653
21
0.213999
0
LINE
8
BLACK
6
CONTINUOUS
10
1.06653
20
0.213999
11
1.04991
21
0.217304
0
LINE
8
BLACK
6
CONTINUOUS
10
1.04991
20
0.217304
11
1.03426
21
0.223787
0
LINE
8
BLACK
6
CONTINUOUS
10
1.03426
20
0.223787
11
1.02018
21
0.233199
0
LINE
8
BLACK
6
CONTINUOUS
10
1.02018
20
0.233199
11
1.0082
21
0.245177
0
LINE
8
BLACK
6
CONTINUOUS
10
1.0082
20
0.245177
11
0.998787
21
0.259263
0
LINE
8
BLACK
6
CONTINUOUS
10
0.998787
20
0.259263
11
0.992304
21
0.274914
0
LINE
8
BLACK
6
CONTINUOUS
10
0.992304
20
0.274914
11
0.988999
21
0.29153
0
LINE
8
BLACK
6
CONTINUOUS
10
0.988999
20
0.29153
11
0.988999
21
0.30847
0
LINE
8
BLACK
6
CONTINUOUS
10
0.988999
20
0.30847
11
0.992304
21
0.325086
0
LINE
8
BLACK
6
CONTINUOUS
10
0.998709
20
0.276857
11
1.00469
21
0.262418
0
LINE
8
BLACK
6
CONTINUOUS
10
1.00469
20
0.262418
11
1.01337
21
0.249423
0
LINE
8
BLACK
6
CONTINUOUS
10
1.01337
20
0.249423
11
1.02442
21
0.238372
0
LINE
8
BLACK
6
CONTINUOUS
10
1.02442
20
0.238372
11
1.03742
21
0.229689
0
LINE
8
BLACK
6
CONTINUOUS
10
1.03742
20
0.229689
11
1.05186
21
0.223709
0
LINE
8
BLACK
6
CONTINUOUS
10
1.05186
20
0.223709
11
1.06719
21
0.220659
0
LINE
8
BLACK
6
CONTINUOUS
10
1.06719
20
0.220659
11
1.08281
21
0.220659
0
LINE
8
BLACK
6
CONTINUOUS
10
1.08281
20
0.220659
11
1.09814
21
0.223709
0
LINE
8
BLACK
6
CONTINUOUS
10
1.09814
20
0.223709
11
1.11258
21
0.229689
0
LINE
8
BLACK
6
CONTINUOUS
10
1.11258
20
0.229689
11
1.12558
21
0.238372
0
LINE
8
BLACK
6
CONTINUOUS
10
1.12558
20
0.238372
11
1.13663
21
0.249423
0
LINE
8
BLACK
6
CONTINUOUS
10
1.13663
20
0.249423
11
1.14531
21
0.262418
0
LINE
8
BLACK
6
CONTINUOUS
10
1.14531
20
0.262418
11
1.15129
21
0.276857
0
LINE
8
BLACK
6
CONTINUOUS
10
1.15129
20
0.276857
11
1.15434
21
0.292186
0
LINE
8
BLACK
6
CONTINUOUS
10
1.15434
20
0.292186
11
1.15434
21
0.307814
0
LINE
8
BLACK
6
CONTINUOUS
10
1.15434
20
0.307814
11
1.15129
21
0.323143
0
LINE
8
BLACK
6
CONTINUOUS
10
1.15129
20
0.323143
11
1.14531
21
0.337582
0
LINE
8
BLACK
6
CONTINUOUS
10
1.14531
20
0.337582
11
1.13663
21
0.350577
0
LINE
8
BLACK
6
CONTINUOUS
10
1.13663
20
0.350577
11
1.12558
21
0.361628
0
LINE
8
BLACK
6
CONTINUOUS
10
1.12558
20
0.361628
11
1.11258
21
0.370311
0
LINE
8
BLACK
6
CONTINUOUS
10
1.11258
20
0.370311
11
1.09814
21
0.376291
0
LINE
8
BLACK
6
CONTINUOUS
10
1.09814
20
0.376291
11
1.08281
21
0.379341
0
LINE
8
BLACK
6
CONTINUOUS
10
1.08281
20
0.379341
11
1.06719
21
0.379341
0
LINE
8
BLACK
6
CONTINUOUS
10
1.06719
20
0.379341
11
1.05186
21
0.376291
0
LINE
8
BLACK
6
CONTINUOUS
10
1.05186
20
0.376291
11
1.03742
21
0.370311
0
LINE
8
BLACK
6
CONTINUOUS
10
1.03742
20
0.370311
11
1.02442
21
0.361628
0
LINE
8
BLACK
6
CONTINUOUS
10
1.02442
20
0.361628
11
1.01337
21
0.350577
0
LINE
8
BLACK
6
CONTINUOUS
10
1.01337
20
0.350577
11
1.00469
21
0.337582
0
LINE
8
BLACK
6
CONTINUOUS
10
1.00469
20
0.337582
11
0.998709
21
0.323143
0
LINE
8
BLACK
6
CONTINUOUS
10
0.998709
20
0.323143
11
0.995659
21
0.307814
0
LINE
8
BLACK
6
CONTINUOUS
10
0.995659
20
0.307814
11
0.995659
21
0.292186
0
LINE
8
BLACK
6
CONTINUOUS
10
0.995659
20
0.292186
11
0.998709
21
0.276857
  0
ENDSEC
  0
EOF
