  0
SECTION
  2
HEADER
  9
$ANGBASE
  50
0.0
  9
$ANGDIR
  70
1
  9
$MEASUREMENT
  70
0
  0
ENDSEC
  0
SECTION
  2
TABLES
  0
TABLE
  2
LTYPE
  70
4
  0
LTYPE
  5
40F
  2
CONTINUOUS
  70
0
  3
Solid line
  72
65
  73
0
  40
0.0
  0
LTYPE
  5
410
  2
DASHDOT
 70
0
  3
Dash Dot ____ _ ____ _
 72
65
 73
4
 40
2.0
 49
1.25
 49
-0.25
 49
0.25
 49
-0.25
  0
LTYPE
  5
411
  2
DASHED
 70
0
  3
Dashed __ __ __ __ __
 72
65
 73
2
 40
0.75
 49
0.5
 49
-0.25
  0
LTYPE
  5
43B
  2
DOTTED
 70
0
  3
Dotted .  .  .  .
 72
65
 73
2
 40
0.2
 49
0.0
 49
-0.2
  0
ENDTAB
  0
TABLE
  2
STYLE
  70
4
  0
STYLE
  2
KICAD
  70
0
  40
0
  41
1
  42
1
  50
0
  71
0
  3
isocp.shx
  0
STYLE
  2
KICADB
  70
0
  40
0
  41
1
  42
1
  50
0
  71
0
  3
isocp.shx
  0
STYLE
  2
KICADI
  70
0
  40
0
  41
1
  42
1
  50
15
  71
0
  3
isocp.shx
  0
STYLE
  2
KICADBI
  70
0
  40
0
  41
1
  42
1
  50
15
  71
0
  3
isocp.shx
  0
ENDTAB
  0
TABLE
  2
LAYER
  70
1
  0
LAYER
  2
BLACK
  70
0
  62
7
  6
CONTINUOUS
  0
ENDTAB
  0
ENDSEC
  0
SECTION
  2
ENTITIES
0
LINE
8
BLACK
6
CONTINUOUS
10
0.112058
20
0.03975
11
0.119581
21
0.0366338
0
LINE
8
BLACK
6
CONTINUOUS
10
0.119581
20
0.0366338
11
0.126352
21
0.0321098
0
LINE
8
BLACK
6
CONTINUOUS
10
0.126352
20
0.0321098
11
0.13211
21
0.0263518
0
LINE
8
BLACK
6
CONTINUOUS
10
0.13211
20
0.0263518
11
0.136634
21
0.0195812
0
LINE
8
BLACK
6
CONTINUOUS
10
0.136634
20
0.0195812
11
0.13975
21
0.012058
0
LINE
8
BLACK
6
CONTINUOUS
10
0.13975
20
0.012058
11
0.141339
21
0.0040715
0
LINE
8
BLACK
6
CONTINUOUS
10
0.141339
20
0.0040715
11
0.141339
21
-0.0040715
0
LINE
8
BLACK
6
CONTINUOUS
10
0.141339
20
-0.0040715
11
0.13975
21
-0.012058
0
LINE
8
BLACK
6
CONTINUOUS
10
0.13975
20
-0.012058
11
0.136634
21
-0.0195812
0
LINE
8
BLACK
6
CONTINUOUS
10
0.136634
20
-0.0195812
11
0.13211
21
-0.0263518
0
LINE
8
BLACK
6
CONTINUOUS
10
0.13211
20
-0.0263518
11
0.126352
21
-0.0321098
0
LINE
8
BLACK
6
CONTINUOUS
10
0.126352
20
-0.0321098
11
0.119581
21
-0.0366338
0
LINE
8
BLACK
6
CONTINUOUS
10
0.119581
20
-0.0366338
11
0.112058
21
-0.03975
0
LINE
8
BLACK
6
CONTINUOUS
10
0.112058
20
-0.03975
11
0.104071
21
-0.0413386
0
LINE
8
BLACK
6
CONTINUOUS
10
0.104071
20
-0.0413386
11
0.0959285
21
-0.0413386
0
LINE
8
BLACK
6
CONTINUOUS
10
0.0959285
20
-0.0413386
11
0.087942
21
-0.03975
0
LINE
8
BLACK
6
CONTINUOUS
10
0.087942
20
-0.03975
11
0.0804188
21
-0.0366338
0
LINE
8
BLACK
6
CONTINUOUS
10
0.0804188
20
-0.0366338
11
0.0736482
21
-0.0321098
0
LINE
8
BLACK
6
CONTINUOUS
10
0.0736482
20
-0.0321098
11
0.0678902
21
-0.0263518
0
LINE
8
BLACK
6
CONTINUOUS
10
0.0678902
20
-0.0263518
11
0.0633662
21
-0.0195812
0
LINE
8
BLACK
6
CONTINUOUS
10
0.0633662
20
-0.0195812
11
0.06025
21
-0.012058
0
LINE
8
BLACK
6
CONTINUOUS
10
0.06025
20
-0.012058
11
0.0586614
21
-0.0040715
0
LINE
8
BLACK
6
CONTINUOUS
10
0.0586614
20
-0.0040715
11
0.0586614
21
0.0040715
0
LINE
8
BLACK
6
CONTINUOUS
10
0.0586614
20
0.0040715
11
0.06025
21
0.012058
0
LINE
8
BLACK
6
CONTINUOUS
10
0.06025
20
0.012058
11
0.0633662
21
0.0195812
0
LINE
8
BLACK
6
CONTINUOUS
10
0.0633662
20
0.0195812
11
0.0678902
21
0.0263518
0
LINE
8
BLACK
6
CONTINUOUS
10
0.0678902
20
0.0263518
11
0.0736482
21
0.0321098
0
LINE
8
BLACK
6
CONTINUOUS
10
0.0736482
20
0.0321098
11
0.0804188
21
0.0366338
0
LINE
8
BLACK
6
CONTINUOUS
10
0.0804188
20
0.0366338
11
0.087942
21
0.03975
0
LINE
8
BLACK
6
CONTINUOUS
10
0.087942
20
0.03975
11
0.0959285
21
0.0413386
0
LINE
8
BLACK
6
CONTINUOUS
10
0.0959285
20
0.0413386
11
0.104071
21
0.0413386
0
LINE
8
BLACK
6
CONTINUOUS
10
0.104071
20
0.0413386
11
0.112058
21
0.03975
0
LINE
8
BLACK
6
CONTINUOUS
10
0.212058
20
0.03975
11
0.219581
21
0.0366338
0
LINE
8
BLACK
6
CONTINUOUS
10
0.219581
20
0.0366338
11
0.226352
21
0.0321098
0
LINE
8
BLACK
6
CONTINUOUS
10
0.226352
20
0.0321098
11
0.23211
21
0.0263518
0
LINE
8
BLACK
6
CONTINUOUS
10
0.23211
20
0.0263518
11
0.236634
21
0.0195812
0
LINE
8
BLACK
6
CONTINUOUS
10
0.236634
20
0.0195812
11
0.23975
21
0.012058
0
LINE
8
BLACK
6
CONTINUOUS
10
0.23975
20
0.012058
11
0.241339
21
0.0040715
0
LINE
8
BLACK
6
CONTINUOUS
10
0.241339
20
0.0040715
11
0.241339
21
-0.0040715
0
LINE
8
BLACK
6
CONTINUOUS
10
0.241339
20
-0.0040715
11
0.23975
21
-0.012058
0
LINE
8
BLACK
6
CONTINUOUS
10
0.23975
20
-0.012058
11
0.236634
21
-0.0195812
0
LINE
8
BLACK
6
CONTINUOUS
10
0.236634
20
-0.0195812
11
0.23211
21
-0.0263518
0
LINE
8
BLACK
6
CONTINUOUS
10
0.23211
20
-0.0263518
11
0.226352
21
-0.0321098
0
LINE
8
BLACK
6
CONTINUOUS
10
0.226352
20
-0.0321098
11
0.219581
21
-0.0366338
0
LINE
8
BLACK
6
CONTINUOUS
10
0.219581
20
-0.0366338
11
0.212058
21
-0.03975
0
LINE
8
BLACK
6
CONTINUOUS
10
0.212058
20
-0.03975
11
0.204071
21
-0.0413386
0
LINE
8
BLACK
6
CONTINUOUS
10
0.204071
20
-0.0413386
11
0.195929
21
-0.0413386
0
LINE
8
BLACK
6
CONTINUOUS
10
0.195929
20
-0.0413386
11
0.187942
21
-0.03975
0
LINE
8
BLACK
6
CONTINUOUS
10
0.187942
20
-0.03975
11
0.180419
21
-0.0366338
0
LINE
8
BLACK
6
CONTINUOUS
10
0.180419
20
-0.0366338
11
0.173648
21
-0.0321098
0
LINE
8
BLACK
6
CONTINUOUS
10
0.173648
20
-0.0321098
11
0.16789
21
-0.0263518
0
LINE
8
BLACK
6
CONTINUOUS
10
0.16789
20
-0.0263518
11
0.163366
21
-0.0195812
0
LINE
8
BLACK
6
CONTINUOUS
10
0.163366
20
-0.0195812
11
0.16025
21
-0.012058
0
LINE
8
BLACK
6
CONTINUOUS
10
0.16025
20
-0.012058
11
0.158661
21
-0.0040715
0
LINE
8
BLACK
6
CONTINUOUS
10
0.158661
20
-0.0040715
11
0.158661
21
0.0040715
0
LINE
8
BLACK
6
CONTINUOUS
10
0.158661
20
0.0040715
11
0.16025
21
0.012058
0
LINE
8
BLACK
6
CONTINUOUS
10
0.16025
20
0.012058
11
0.163366
21
0.0195812
0
LINE
8
BLACK
6
CONTINUOUS
10
0.163366
20
0.0195812
11
0.16789
21
0.0263518
0
LINE
8
BLACK
6
CONTINUOUS
10
0.16789
20
0.0263518
11
0.173648
21
0.0321098
0
LINE
8
BLACK
6
CONTINUOUS
10
0.173648
20
0.0321098
11
0.180419
21
0.0366338
0
LINE
8
BLACK
6
CONTINUOUS
10
0.180419
20
0.0366338
11
0.187942
21
0.03975
0
LINE
8
BLACK
6
CONTINUOUS
10
0.187942
20
0.03975
11
0.195929
21
0.0413386
0
LINE
8
BLACK
6
CONTINUOUS
10
0.195929
20
0.0413386
11
0.204071
21
0.0413386
0
LINE
8
BLACK
6
CONTINUOUS
10
0.204071
20
0.0413386
11
0.212058
21
0.03975
0
LINE
8
BLACK
6
CONTINUOUS
10
0.0413386
20
-0.0413386
11
-0.0413386
21
-0.0413386
0
LINE
8
BLACK
6
CONTINUOUS
10
-0.0413386
20
-0.0413386
11
-0.0413386
21
0.0413386
0
LINE
8
BLACK
6
CONTINUOUS
10
-0.0413386
20
0.0413386
11
0.0413386
21
0.0413386
0
LINE
8
BLACK
6
CONTINUOUS
10
0.0413386
20
0.0413386
11
0.0413386
21
-0.0413386
0
LINE
8
BLACK
6
CONTINUOUS
10
0.312058
20
0.03975
11
0.319581
21
0.0366338
0
LINE
8
BLACK
6
CONTINUOUS
10
0.319581
20
0.0366338
11
0.326352
21
0.0321098
0
LINE
8
BLACK
6
CONTINUOUS
10
0.326352
20
0.0321098
11
0.33211
21
0.0263518
0
LINE
8
BLACK
6
CONTINUOUS
10
0.33211
20
0.0263518
11
0.336634
21
0.0195812
0
LINE
8
BLACK
6
CONTINUOUS
10
0.336634
20
0.0195812
11
0.33975
21
0.012058
0
LINE
8
BLACK
6
CONTINUOUS
10
0.33975
20
0.012058
11
0.341339
21
0.0040715
0
LINE
8
BLACK
6
CONTINUOUS
10
0.341339
20
0.0040715
11
0.341339
21
-0.0040715
0
LINE
8
BLACK
6
CONTINUOUS
10
0.341339
20
-0.0040715
11
0.33975
21
-0.012058
0
LINE
8
BLACK
6
CONTINUOUS
10
0.33975
20
-0.012058
11
0.336634
21
-0.0195812
0
LINE
8
BLACK
6
CONTINUOUS
10
0.336634
20
-0.0195812
11
0.33211
21
-0.0263518
0
LINE
8
BLACK
6
CONTINUOUS
10
0.33211
20
-0.0263518
11
0.326352
21
-0.0321098
0
LINE
8
BLACK
6
CONTINUOUS
10
0.326352
20
-0.0321098
11
0.319581
21
-0.0366338
0
LINE
8
BLACK
6
CONTINUOUS
10
0.319581
20
-0.0366338
11
0.312058
21
-0.03975
0
LINE
8
BLACK
6
CONTINUOUS
10
0.312058
20
-0.03975
11
0.304071
21
-0.0413386
0
LINE
8
BLACK
6
CONTINUOUS
10
0.304071
20
-0.0413386
11
0.295929
21
-0.0413386
0
LINE
8
BLACK
6
CONTINUOUS
10
0.295929
20
-0.0413386
11
0.287942
21
-0.03975
0
LINE
8
BLACK
6
CONTINUOUS
10
0.287942
20
-0.03975
11
0.280419
21
-0.0366338
0
LINE
8
BLACK
6
CONTINUOUS
10
0.280419
20
-0.0366338
11
0.273648
21
-0.0321098
0
LINE
8
BLACK
6
CONTINUOUS
10
0.273648
20
-0.0321098
11
0.26789
21
-0.0263518
0
LINE
8
BLACK
6
CONTINUOUS
10
0.26789
20
-0.0263518
11
0.263366
21
-0.0195812
0
LINE
8
BLACK
6
CONTINUOUS
10
0.263366
20
-0.0195812
11
0.26025
21
-0.012058
0
LINE
8
BLACK
6
CONTINUOUS
10
0.26025
20
-0.012058
11
0.258661
21
-0.0040715
0
LINE
8
BLACK
6
CONTINUOUS
10
0.258661
20
-0.0040715
11
0.258661
21
0.0040715
0
LINE
8
BLACK
6
CONTINUOUS
10
0.258661
20
0.0040715
11
0.26025
21
0.012058
0
LINE
8
BLACK
6
CONTINUOUS
10
0.26025
20
0.012058
11
0.263366
21
0.0195812
0
LINE
8
BLACK
6
CONTINUOUS
10
0.263366
20
0.0195812
11
0.26789
21
0.0263518
0
LINE
8
BLACK
6
CONTINUOUS
10
0.26789
20
0.0263518
11
0.273648
21
0.0321098
0
LINE
8
BLACK
6
CONTINUOUS
10
0.273648
20
0.0321098
11
0.280419
21
0.0366338
0
LINE
8
BLACK
6
CONTINUOUS
10
0.280419
20
0.0366338
11
0.287942
21
0.03975
0
LINE
8
BLACK
6
CONTINUOUS
10
0.287942
20
0.03975
11
0.295929
21
0.0413386
0
LINE
8
BLACK
6
CONTINUOUS
10
0.295929
20
0.0413386
11
0.304071
21
0.0413386
0
LINE
8
BLACK
6
CONTINUOUS
10
0.304071
20
0.0413386
11
0.312058
21
0.03975
0
LINE
8
BLACK
6
CONTINUOUS
10
0.412058
20
0.03975
11
0.419581
21
0.0366338
0
LINE
8
BLACK
6
CONTINUOUS
10
0.419581
20
0.0366338
11
0.426352
21
0.0321098
0
LINE
8
BLACK
6
CONTINUOUS
10
0.426352
20
0.0321098
11
0.43211
21
0.0263518
0
LINE
8
BLACK
6
CONTINUOUS
10
0.43211
20
0.0263518
11
0.436634
21
0.0195812
0
LINE
8
BLACK
6
CONTINUOUS
10
0.436634
20
0.0195812
11
0.43975
21
0.012058
0
LINE
8
BLACK
6
CONTINUOUS
10
0.43975
20
0.012058
11
0.441339
21
0.0040715
0
LINE
8
BLACK
6
CONTINUOUS
10
0.441339
20
0.0040715
11
0.441339
21
-0.0040715
0
LINE
8
BLACK
6
CONTINUOUS
10
0.441339
20
-0.0040715
11
0.43975
21
-0.012058
0
LINE
8
BLACK
6
CONTINUOUS
10
0.43975
20
-0.012058
11
0.436634
21
-0.0195812
0
LINE
8
BLACK
6
CONTINUOUS
10
0.436634
20
-0.0195812
11
0.43211
21
-0.0263518
0
LINE
8
BLACK
6
CONTINUOUS
10
0.43211
20
-0.0263518
11
0.426352
21
-0.0321098
0
LINE
8
BLACK
6
CONTINUOUS
10
0.426352
20
-0.0321098
11
0.419581
21
-0.0366338
0
LINE
8
BLACK
6
CONTINUOUS
10
0.419581
20
-0.0366338
11
0.412058
21
-0.03975
0
LINE
8
BLACK
6
CONTINUOUS
10
0.412058
20
-0.03975
11
0.404071
21
-0.0413386
0
LINE
8
BLACK
6
CONTINUOUS
10
0.404071
20
-0.0413386
11
0.395929
21
-0.0413386
0
LINE
8
BLACK
6
CONTINUOUS
10
0.395929
20
-0.0413386
11
0.387942
21
-0.03975
0
LINE
8
BLACK
6
CONTINUOUS
10
0.387942
20
-0.03975
11
0.380419
21
-0.0366338
0
LINE
8
BLACK
6
CONTINUOUS
10
0.380419
20
-0.0366338
11
0.373648
21
-0.0321098
0
LINE
8
BLACK
6
CONTINUOUS
10
0.373648
20
-0.0321098
11
0.36789
21
-0.0263518
0
LINE
8
BLACK
6
CONTINUOUS
10
0.36789
20
-0.0263518
11
0.363366
21
-0.0195812
0
LINE
8
BLACK
6
CONTINUOUS
10
0.363366
20
-0.0195812
11
0.36025
21
-0.012058
0
LINE
8
BLACK
6
CONTINUOUS
10
0.36025
20
-0.012058
11
0.358661
21
-0.0040715
0
LINE
8
BLACK
6
CONTINUOUS
10
0.358661
20
-0.0040715
11
0.358661
21
0.0040715
0
LINE
8
BLACK
6
CONTINUOUS
10
0.358661
20
0.0040715
11
0.36025
21
0.012058
0
LINE
8
BLACK
6
CONTINUOUS
10
0.36025
20
0.012058
11
0.363366
21
0.0195812
0
LINE
8
BLACK
6
CONTINUOUS
10
0.363366
20
0.0195812
11
0.36789
21
0.0263518
0
LINE
8
BLACK
6
CONTINUOUS
10
0.36789
20
0.0263518
11
0.373648
21
0.0321098
0
LINE
8
BLACK
6
CONTINUOUS
10
0.373648
20
0.0321098
11
0.380419
21
0.0366338
0
LINE
8
BLACK
6
CONTINUOUS
10
0.380419
20
0.0366338
11
0.387942
21
0.03975
0
LINE
8
BLACK
6
CONTINUOUS
10
0.387942
20
0.03975
11
0.395929
21
0.0413386
0
LINE
8
BLACK
6
CONTINUOUS
10
0.395929
20
0.0413386
11
0.404071
21
0.0413386
0
LINE
8
BLACK
6
CONTINUOUS
10
0.404071
20
0.0413386
11
0.412058
21
0.03975
0
LINE
8
BLACK
6
CONTINUOUS
10
0.512058
20
0.03975
11
0.519581
21
0.0366338
0
LINE
8
BLACK
6
CONTINUOUS
10
0.519581
20
0.0366338
11
0.526352
21
0.0321098
0
LINE
8
BLACK
6
CONTINUOUS
10
0.526352
20
0.0321098
11
0.53211
21
0.0263518
0
LINE
8
BLACK
6
CONTINUOUS
10
0.53211
20
0.0263518
11
0.536634
21
0.0195812
0
LINE
8
BLACK
6
CONTINUOUS
10
0.536634
20
0.0195812
11
0.53975
21
0.012058
0
LINE
8
BLACK
6
CONTINUOUS
10
0.53975
20
0.012058
11
0.541339
21
0.0040715
0
LINE
8
BLACK
6
CONTINUOUS
10
0.541339
20
0.0040715
11
0.541339
21
-0.0040715
0
LINE
8
BLACK
6
CONTINUOUS
10
0.541339
20
-0.0040715
11
0.53975
21
-0.012058
0
LINE
8
BLACK
6
CONTINUOUS
10
0.53975
20
-0.012058
11
0.536634
21
-0.0195812
0
LINE
8
BLACK
6
CONTINUOUS
10
0.536634
20
-0.0195812
11
0.53211
21
-0.0263518
0
LINE
8
BLACK
6
CONTINUOUS
10
0.53211
20
-0.0263518
11
0.526352
21
-0.0321098
0
LINE
8
BLACK
6
CONTINUOUS
10
0.526352
20
-0.0321098
11
0.519581
21
-0.0366338
0
LINE
8
BLACK
6
CONTINUOUS
10
0.519581
20
-0.0366338
11
0.512058
21
-0.03975
0
LINE
8
BLACK
6
CONTINUOUS
10
0.512058
20
-0.03975
11
0.504071
21
-0.0413386
0
LINE
8
BLACK
6
CONTINUOUS
10
0.504071
20
-0.0413386
11
0.495929
21
-0.0413386
0
LINE
8
BLACK
6
CONTINUOUS
10
0.495929
20
-0.0413386
11
0.487942
21
-0.03975
0
LINE
8
BLACK
6
CONTINUOUS
10
0.487942
20
-0.03975
11
0.480419
21
-0.0366338
0
LINE
8
BLACK
6
CONTINUOUS
10
0.480419
20
-0.0366338
11
0.473648
21
-0.0321098
0
LINE
8
BLACK
6
CONTINUOUS
10
0.473648
20
-0.0321098
11
0.46789
21
-0.0263518
0
LINE
8
BLACK
6
CONTINUOUS
10
0.46789
20
-0.0263518
11
0.463366
21
-0.0195812
0
LINE
8
BLACK
6
CONTINUOUS
10
0.463366
20
-0.0195812
11
0.46025
21
-0.012058
0
LINE
8
BLACK
6
CONTINUOUS
10
0.46025
20
-0.012058
11
0.458661
21
-0.0040715
0
LINE
8
BLACK
6
CONTINUOUS
10
0.458661
20
-0.0040715
11
0.458661
21
0.0040715
0
LINE
8
BLACK
6
CONTINUOUS
10
0.458661
20
0.0040715
11
0.46025
21
0.012058
0
LINE
8
BLACK
6
CONTINUOUS
10
0.46025
20
0.012058
11
0.463366
21
0.0195812
0
LINE
8
BLACK
6
CONTINUOUS
10
0.463366
20
0.0195812
11
0.46789
21
0.0263518
0
LINE
8
BLACK
6
CONTINUOUS
10
0.46789
20
0.0263518
11
0.473648
21
0.0321098
0
LINE
8
BLACK
6
CONTINUOUS
10
0.473648
20
0.0321098
11
0.480419
21
0.0366338
0
LINE
8
BLACK
6
CONTINUOUS
10
0.480419
20
0.0366338
11
0.487942
21
0.03975
0
LINE
8
BLACK
6
CONTINUOUS
10
0.487942
20
0.03975
11
0.495929
21
0.0413386
0
LINE
8
BLACK
6
CONTINUOUS
10
0.495929
20
0.0413386
11
0.504071
21
0.0413386
0
LINE
8
BLACK
6
CONTINUOUS
10
0.504071
20
0.0413386
11
0.512058
21
0.03975
0
LINE
8
BLACK
6
CONTINUOUS
10
1.11206
20
0.03975
11
1.11958
21
0.0366338
0
LINE
8
BLACK
6
CONTINUOUS
10
1.11958
20
0.0366338
11
1.12635
21
0.0321098
0
LINE
8
BLACK
6
CONTINUOUS
10
1.12635
20
0.0321098
11
1.13211
21
0.0263518
0
LINE
8
BLACK
6
CONTINUOUS
10
1.13211
20
0.0263518
11
1.13663
21
0.0195812
0
LINE
8
BLACK
6
CONTINUOUS
10
1.13663
20
0.0195812
11
1.13975
21
0.012058
0
LINE
8
BLACK
6
CONTINUOUS
10
1.13975
20
0.012058
11
1.14134
21
0.0040715
0
LINE
8
BLACK
6
CONTINUOUS
10
1.14134
20
0.0040715
11
1.14134
21
-0.0040715
0
LINE
8
BLACK
6
CONTINUOUS
10
1.14134
20
-0.0040715
11
1.13975
21
-0.012058
0
LINE
8
BLACK
6
CONTINUOUS
10
1.13975
20
-0.012058
11
1.13663
21
-0.0195812
0
LINE
8
BLACK
6
CONTINUOUS
10
1.13663
20
-0.0195812
11
1.13211
21
-0.0263518
0
LINE
8
BLACK
6
CONTINUOUS
10
1.13211
20
-0.0263518
11
1.12635
21
-0.0321098
0
LINE
8
BLACK
6
CONTINUOUS
10
1.12635
20
-0.0321098
11
1.11958
21
-0.0366338
0
LINE
8
BLACK
6
CONTINUOUS
10
1.11958
20
-0.0366338
11
1.11206
21
-0.03975
0
LINE
8
BLACK
6
CONTINUOUS
10
1.11206
20
-0.03975
11
1.10407
21
-0.0413386
0
LINE
8
BLACK
6
CONTINUOUS
10
1.10407
20
-0.0413386
11
1.09593
21
-0.0413386
0
LINE
8
BLACK
6
CONTINUOUS
10
1.09593
20
-0.0413386
11
1.08794
21
-0.03975
0
LINE
8
BLACK
6
CONTINUOUS
10
1.08794
20
-0.03975
11
1.08042
21
-0.0366338
0
LINE
8
BLACK
6
CONTINUOUS
10
1.08042
20
-0.0366338
11
1.07365
21
-0.0321098
0
LINE
8
BLACK
6
CONTINUOUS
10
1.07365
20
-0.0321098
11
1.06789
21
-0.0263518
0
LINE
8
BLACK
6
CONTINUOUS
10
1.06789
20
-0.0263518
11
1.06337
21
-0.0195812
0
LINE
8
BLACK
6
CONTINUOUS
10
1.06337
20
-0.0195812
11
1.06025
21
-0.012058
0
LINE
8
BLACK
6
CONTINUOUS
10
1.06025
20
-0.012058
11
1.05866
21
-0.0040715
0
LINE
8
BLACK
6
CONTINUOUS
10
1.05866
20
-0.0040715
11
1.05866
21
0.0040715
0
LINE
8
BLACK
6
CONTINUOUS
10
1.05866
20
0.0040715
11
1.06025
21
0.012058
0
LINE
8
BLACK
6
CONTINUOUS
10
1.06025
20
0.012058
11
1.06337
21
0.0195812
0
LINE
8
BLACK
6
CONTINUOUS
10
1.06337
20
0.0195812
11
1.06789
21
0.0263518
0
LINE
8
BLACK
6
CONTINUOUS
10
1.06789
20
0.0263518
11
1.07365
21
0.0321098
0
LINE
8
BLACK
6
CONTINUOUS
10
1.07365
20
0.0321098
11
1.08042
21
0.0366338
0
LINE
8
BLACK
6
CONTINUOUS
10
1.08042
20
0.0366338
11
1.08794
21
0.03975
0
LINE
8
BLACK
6
CONTINUOUS
10
1.08794
20
0.03975
11
1.09593
21
0.0413386
0
LINE
8
BLACK
6
CONTINUOUS
10
1.09593
20
0.0413386
11
1.10407
21
0.0413386
0
LINE
8
BLACK
6
CONTINUOUS
10
1.10407
20
0.0413386
11
1.11206
21
0.03975
0
LINE
8
BLACK
6
CONTINUOUS
10
0.612058
20
0.03975
11
0.619581
21
0.0366338
0
LINE
8
BLACK
6
CONTINUOUS
10
0.619581
20
0.0366338
11
0.626352
21
0.0321098
0
LINE
8
BLACK
6
CONTINUOUS
10
0.626352
20
0.0321098
11
0.63211
21
0.0263518
0
LINE
8
BLACK
6
CONTINUOUS
10
0.63211
20
0.0263518
11
0.636634
21
0.0195812
0
LINE
8
BLACK
6
CONTINUOUS
10
0.636634
20
0.0195812
11
0.63975
21
0.012058
0
LINE
8
BLACK
6
CONTINUOUS
10
0.63975
20
0.012058
11
0.641339
21
0.0040715
0
LINE
8
BLACK
6
CONTINUOUS
10
0.641339
20
0.0040715
11
0.641339
21
-0.0040715
0
LINE
8
BLACK
6
CONTINUOUS
10
0.641339
20
-0.0040715
11
0.63975
21
-0.012058
0
LINE
8
BLACK
6
CONTINUOUS
10
0.63975
20
-0.012058
11
0.636634
21
-0.0195812
0
LINE
8
BLACK
6
CONTINUOUS
10
0.636634
20
-0.0195812
11
0.63211
21
-0.0263518
0
LINE
8
BLACK
6
CONTINUOUS
10
0.63211
20
-0.0263518
11
0.626352
21
-0.0321098
0
LINE
8
BLACK
6
CONTINUOUS
10
0.626352
20
-0.0321098
11
0.619581
21
-0.0366338
0
LINE
8
BLACK
6
CONTINUOUS
10
0.619581
20
-0.0366338
11
0.612058
21
-0.03975
0
LINE
8
BLACK
6
CONTINUOUS
10
0.612058
20
-0.03975
11
0.604071
21
-0.0413386
0
LINE
8
BLACK
6
CONTINUOUS
10
0.604071
20
-0.0413386
11
0.595929
21
-0.0413386
0
LINE
8
BLACK
6
CONTINUOUS
10
0.595929
20
-0.0413386
11
0.587942
21
-0.03975
0
LINE
8
BLACK
6
CONTINUOUS
10
0.587942
20
-0.03975
11
0.580419
21
-0.0366338
0
LINE
8
BLACK
6
CONTINUOUS
10
0.580419
20
-0.0366338
11
0.573648
21
-0.0321098
0
LINE
8
BLACK
6
CONTINUOUS
10
0.573648
20
-0.0321098
11
0.56789
21
-0.0263518
0
LINE
8
BLACK
6
CONTINUOUS
10
0.56789
20
-0.0263518
11
0.563366
21
-0.0195812
0
LINE
8
BLACK
6
CONTINUOUS
10
0.563366
20
-0.0195812
11
0.56025
21
-0.012058
0
LINE
8
BLACK
6
CONTINUOUS
10
0.56025
20
-0.012058
11
0.558661
21
-0.0040715
0
LINE
8
BLACK
6
CONTINUOUS
10
0.558661
20
-0.0040715
11
0.558661
21
0.0040715
0
LINE
8
BLACK
6
CONTINUOUS
10
0.558661
20
0.0040715
11
0.56025
21
0.012058
0
LINE
8
BLACK
6
CONTINUOUS
10
0.56025
20
0.012058
11
0.563366
21
0.0195812
0
LINE
8
BLACK
6
CONTINUOUS
10
0.563366
20
0.0195812
11
0.56789
21
0.0263518
0
LINE
8
BLACK
6
CONTINUOUS
10
0.56789
20
0.0263518
11
0.573648
21
0.0321098
0
LINE
8
BLACK
6
CONTINUOUS
10
0.573648
20
0.0321098
11
0.580419
21
0.0366338
0
LINE
8
BLACK
6
CONTINUOUS
10
0.580419
20
0.0366338
11
0.587942
21
0.03975
0
LINE
8
BLACK
6
CONTINUOUS
10
0.587942
20
0.03975
11
0.595929
21
0.0413386
0
LINE
8
BLACK
6
CONTINUOUS
10
0.595929
20
0.0413386
11
0.604071
21
0.0413386
0
LINE
8
BLACK
6
CONTINUOUS
10
0.604071
20
0.0413386
11
0.612058
21
0.03975
0
LINE
8
BLACK
6
CONTINUOUS
10
1.01206
20
0.03975
11
1.01958
21
0.0366338
0
LINE
8
BLACK
6
CONTINUOUS
10
1.01958
20
0.0366338
11
1.02635
21
0.0321098
0
LINE
8
BLACK
6
CONTINUOUS
10
1.02635
20
0.0321098
11
1.03211
21
0.0263518
0
LINE
8
BLACK
6
CONTINUOUS
10
1.03211
20
0.0263518
11
1.03663
21
0.0195812
0
LINE
8
BLACK
6
CONTINUOUS
10
1.03663
20
0.0195812
11
1.03975
21
0.012058
0
LINE
8
BLACK
6
CONTINUOUS
10
1.03975
20
0.012058
11
1.04134
21
0.0040715
0
LINE
8
BLACK
6
CONTINUOUS
10
1.04134
20
0.0040715
11
1.04134
21
-0.0040715
0
LINE
8
BLACK
6
CONTINUOUS
10
1.04134
20
-0.0040715
11
1.03975
21
-0.012058
0
LINE
8
BLACK
6
CONTINUOUS
10
1.03975
20
-0.012058
11
1.03663
21
-0.0195812
0
LINE
8
BLACK
6
CONTINUOUS
10
1.03663
20
-0.0195812
11
1.03211
21
-0.0263518
0
LINE
8
BLACK
6
CONTINUOUS
10
1.03211
20
-0.0263518
11
1.02635
21
-0.0321098
0
LINE
8
BLACK
6
CONTINUOUS
10
1.02635
20
-0.0321098
11
1.01958
21
-0.0366338
0
LINE
8
BLACK
6
CONTINUOUS
10
1.01958
20
-0.0366338
11
1.01206
21
-0.03975
0
LINE
8
BLACK
6
CONTINUOUS
10
1.01206
20
-0.03975
11
1.00407
21
-0.0413386
0
LINE
8
BLACK
6
CONTINUOUS
10
1.00407
20
-0.0413386
11
0.995929
21
-0.0413386
0
LINE
8
BLACK
6
CONTINUOUS
10
0.995929
20
-0.0413386
11
0.987942
21
-0.03975
0
LINE
8
BLACK
6
CONTINUOUS
10
0.987942
20
-0.03975
11
0.980419
21
-0.0366338
0
LINE
8
BLACK
6
CONTINUOUS
10
0.980419
20
-0.0366338
11
0.973648
21
-0.0321098
0
LINE
8
BLACK
6
CONTINUOUS
10
0.973648
20
-0.0321098
11
0.96789
21
-0.0263518
0
LINE
8
BLACK
6
CONTINUOUS
10
0.96789
20
-0.0263518
11
0.963366
21
-0.0195812
0
LINE
8
BLACK
6
CONTINUOUS
10
0.963366
20
-0.0195812
11
0.96025
21
-0.012058
0
LINE
8
BLACK
6
CONTINUOUS
10
0.96025
20
-0.012058
11
0.958661
21
-0.0040715
0
LINE
8
BLACK
6
CONTINUOUS
10
0.958661
20
-0.0040715
11
0.958661
21
0.0040715
0
LINE
8
BLACK
6
CONTINUOUS
10
0.958661
20
0.0040715
11
0.96025
21
0.012058
0
LINE
8
BLACK
6
CONTINUOUS
10
0.96025
20
0.012058
11
0.963366
21
0.0195812
0
LINE
8
BLACK
6
CONTINUOUS
10
0.963366
20
0.0195812
11
0.96789
21
0.0263518
0
LINE
8
BLACK
6
CONTINUOUS
10
0.96789
20
0.0263518
11
0.973648
21
0.0321098
0
LINE
8
BLACK
6
CONTINUOUS
10
0.973648
20
0.0321098
11
0.980419
21
0.0366338
0
LINE
8
BLACK
6
CONTINUOUS
10
0.980419
20
0.0366338
11
0.987942
21
0.03975
0
LINE
8
BLACK
6
CONTINUOUS
10
0.987942
20
0.03975
11
0.995929
21
0.0413386
0
LINE
8
BLACK
6
CONTINUOUS
10
0.995929
20
0.0413386
11
1.00407
21
0.0413386
0
LINE
8
BLACK
6
CONTINUOUS
10
1.00407
20
0.0413386
11
1.01206
21
0.03975
0
LINE
8
BLACK
6
CONTINUOUS
10
0.712058
20
0.03975
11
0.719581
21
0.0366338
0
LINE
8
BLACK
6
CONTINUOUS
10
0.719581
20
0.0366338
11
0.726352
21
0.0321098
0
LINE
8
BLACK
6
CONTINUOUS
10
0.726352
20
0.0321098
11
0.73211
21
0.0263518
0
LINE
8
BLACK
6
CONTINUOUS
10
0.73211
20
0.0263518
11
0.736634
21
0.0195812
0
LINE
8
BLACK
6
CONTINUOUS
10
0.736634
20
0.0195812
11
0.73975
21
0.012058
0
LINE
8
BLACK
6
CONTINUOUS
10
0.73975
20
0.012058
11
0.741339
21
0.0040715
0
LINE
8
BLACK
6
CONTINUOUS
10
0.741339
20
0.0040715
11
0.741339
21
-0.0040715
0
LINE
8
BLACK
6
CONTINUOUS
10
0.741339
20
-0.0040715
11
0.73975
21
-0.012058
0
LINE
8
BLACK
6
CONTINUOUS
10
0.73975
20
-0.012058
11
0.736634
21
-0.0195812
0
LINE
8
BLACK
6
CONTINUOUS
10
0.736634
20
-0.0195812
11
0.73211
21
-0.0263518
0
LINE
8
BLACK
6
CONTINUOUS
10
0.73211
20
-0.0263518
11
0.726352
21
-0.0321098
0
LINE
8
BLACK
6
CONTINUOUS
10
0.726352
20
-0.0321098
11
0.719581
21
-0.0366338
0
LINE
8
BLACK
6
CONTINUOUS
10
0.719581
20
-0.0366338
11
0.712058
21
-0.03975
0
LINE
8
BLACK
6
CONTINUOUS
10
0.712058
20
-0.03975
11
0.704071
21
-0.0413386
0
LINE
8
BLACK
6
CONTINUOUS
10
0.704071
20
-0.0413386
11
0.695929
21
-0.0413386
0
LINE
8
BLACK
6
CONTINUOUS
10
0.695929
20
-0.0413386
11
0.687942
21
-0.03975
0
LINE
8
BLACK
6
CONTINUOUS
10
0.687942
20
-0.03975
11
0.680419
21
-0.0366338
0
LINE
8
BLACK
6
CONTINUOUS
10
0.680419
20
-0.0366338
11
0.673648
21
-0.0321098
0
LINE
8
BLACK
6
CONTINUOUS
10
0.673648
20
-0.0321098
11
0.66789
21
-0.0263518
0
LINE
8
BLACK
6
CONTINUOUS
10
0.66789
20
-0.0263518
11
0.663366
21
-0.0195812
0
LINE
8
BLACK
6
CONTINUOUS
10
0.663366
20
-0.0195812
11
0.66025
21
-0.012058
0
LINE
8
BLACK
6
CONTINUOUS
10
0.66025
20
-0.012058
11
0.658661
21
-0.0040715
0
LINE
8
BLACK
6
CONTINUOUS
10
0.658661
20
-0.0040715
11
0.658661
21
0.0040715
0
LINE
8
BLACK
6
CONTINUOUS
10
0.658661
20
0.0040715
11
0.66025
21
0.012058
0
LINE
8
BLACK
6
CONTINUOUS
10
0.66025
20
0.012058
11
0.663366
21
0.0195812
0
LINE
8
BLACK
6
CONTINUOUS
10
0.663366
20
0.0195812
11
0.66789
21
0.0263518
0
LINE
8
BLACK
6
CONTINUOUS
10
0.66789
20
0.0263518
11
0.673648
21
0.0321098
0
LINE
8
BLACK
6
CONTINUOUS
10
0.673648
20
0.0321098
11
0.680419
21
0.0366338
0
LINE
8
BLACK
6
CONTINUOUS
10
0.680419
20
0.0366338
11
0.687942
21
0.03975
0
LINE
8
BLACK
6
CONTINUOUS
10
0.687942
20
0.03975
11
0.695929
21
0.0413386
0
LINE
8
BLACK
6
CONTINUOUS
10
0.695929
20
0.0413386
11
0.704071
21
0.0413386
0
LINE
8
BLACK
6
CONTINUOUS
10
0.704071
20
0.0413386
11
0.712058
21
0.03975
0
LINE
8
BLACK
6
CONTINUOUS
10
0.912058
20
0.03975
11
0.919581
21
0.0366338
0
LINE
8
BLACK
6
CONTINUOUS
10
0.919581
20
0.0366338
11
0.926352
21
0.0321098
0
LINE
8
BLACK
6
CONTINUOUS
10
0.926352
20
0.0321098
11
0.93211
21
0.0263518
0
LINE
8
BLACK
6
CONTINUOUS
10
0.93211
20
0.0263518
11
0.936634
21
0.0195812
0
LINE
8
BLACK
6
CONTINUOUS
10
0.936634
20
0.0195812
11
0.93975
21
0.012058
0
LINE
8
BLACK
6
CONTINUOUS
10
0.93975
20
0.012058
11
0.941339
21
0.0040715
0
LINE
8
BLACK
6
CONTINUOUS
10
0.941339
20
0.0040715
11
0.941339
21
-0.0040715
0
LINE
8
BLACK
6
CONTINUOUS
10
0.941339
20
-0.0040715
11
0.93975
21
-0.012058
0
LINE
8
BLACK
6
CONTINUOUS
10
0.93975
20
-0.012058
11
0.936634
21
-0.0195812
0
LINE
8
BLACK
6
CONTINUOUS
10
0.936634
20
-0.0195812
11
0.93211
21
-0.0263518
0
LINE
8
BLACK
6
CONTINUOUS
10
0.93211
20
-0.0263518
11
0.926352
21
-0.0321098
0
LINE
8
BLACK
6
CONTINUOUS
10
0.926352
20
-0.0321098
11
0.919581
21
-0.0366338
0
LINE
8
BLACK
6
CONTINUOUS
10
0.919581
20
-0.0366338
11
0.912058
21
-0.03975
0
LINE
8
BLACK
6
CONTINUOUS
10
0.912058
20
-0.03975
11
0.904071
21
-0.0413386
0
LINE
8
BLACK
6
CONTINUOUS
10
0.904071
20
-0.0413386
11
0.895929
21
-0.0413386
0
LINE
8
BLACK
6
CONTINUOUS
10
0.895929
20
-0.0413386
11
0.887942
21
-0.03975
0
LINE
8
BLACK
6
CONTINUOUS
10
0.887942
20
-0.03975
11
0.880419
21
-0.0366338
0
LINE
8
BLACK
6
CONTINUOUS
10
0.880419
20
-0.0366338
11
0.873648
21
-0.0321098
0
LINE
8
BLACK
6
CONTINUOUS
10
0.873648
20
-0.0321098
11
0.86789
21
-0.0263518
0
LINE
8
BLACK
6
CONTINUOUS
10
0.86789
20
-0.0263518
11
0.863366
21
-0.0195812
0
LINE
8
BLACK
6
CONTINUOUS
10
0.863366
20
-0.0195812
11
0.86025
21
-0.012058
0
LINE
8
BLACK
6
CONTINUOUS
10
0.86025
20
-0.012058
11
0.858661
21
-0.0040715
0
LINE
8
BLACK
6
CONTINUOUS
10
0.858661
20
-0.0040715
11
0.858661
21
0.0040715
0
LINE
8
BLACK
6
CONTINUOUS
10
0.858661
20
0.0040715
11
0.86025
21
0.012058
0
LINE
8
BLACK
6
CONTINUOUS
10
0.86025
20
0.012058
11
0.863366
21
0.0195812
0
LINE
8
BLACK
6
CONTINUOUS
10
0.863366
20
0.0195812
11
0.86789
21
0.0263518
0
LINE
8
BLACK
6
CONTINUOUS
10
0.86789
20
0.0263518
11
0.873648
21
0.0321098
0
LINE
8
BLACK
6
CONTINUOUS
10
0.873648
20
0.0321098
11
0.880419
21
0.0366338
0
LINE
8
BLACK
6
CONTINUOUS
10
0.880419
20
0.0366338
11
0.887942
21
0.03975
0
LINE
8
BLACK
6
CONTINUOUS
10
0.887942
20
0.03975
11
0.895929
21
0.0413386
0
LINE
8
BLACK
6
CONTINUOUS
10
0.895929
20
0.0413386
11
0.904071
21
0.0413386
0
LINE
8
BLACK
6
CONTINUOUS
10
0.904071
20
0.0413386
11
0.912058
21
0.03975
0
LINE
8
BLACK
6
CONTINUOUS
10
0.812058
20
0.03975
11
0.819581
21
0.0366338
0
LINE
8
BLACK
6
CONTINUOUS
10
0.819581
20
0.0366338
11
0.826352
21
0.0321098
0
LINE
8
BLACK
6
CONTINUOUS
10
0.826352
20
0.0321098
11
0.83211
21
0.0263518
0
LINE
8
BLACK
6
CONTINUOUS
10
0.83211
20
0.0263518
11
0.836634
21
0.0195812
0
LINE
8
BLACK
6
CONTINUOUS
10
0.836634
20
0.0195812
11
0.83975
21
0.012058
0
LINE
8
BLACK
6
CONTINUOUS
10
0.83975
20
0.012058
11
0.841339
21
0.0040715
0
LINE
8
BLACK
6
CONTINUOUS
10
0.841339
20
0.0040715
11
0.841339
21
-0.0040715
0
LINE
8
BLACK
6
CONTINUOUS
10
0.841339
20
-0.0040715
11
0.83975
21
-0.012058
0
LINE
8
BLACK
6
CONTINUOUS
10
0.83975
20
-0.012058
11
0.836634
21
-0.0195812
0
LINE
8
BLACK
6
CONTINUOUS
10
0.836634
20
-0.0195812
11
0.83211
21
-0.0263518
0
LINE
8
BLACK
6
CONTINUOUS
10
0.83211
20
-0.0263518
11
0.826352
21
-0.0321098
0
LINE
8
BLACK
6
CONTINUOUS
10
0.826352
20
-0.0321098
11
0.819581
21
-0.0366338
0
LINE
8
BLACK
6
CONTINUOUS
10
0.819581
20
-0.0366338
11
0.812058
21
-0.03975
0
LINE
8
BLACK
6
CONTINUOUS
10
0.812058
20
-0.03975
11
0.804071
21
-0.0413386
0
LINE
8
BLACK
6
CONTINUOUS
10
0.804071
20
-0.0413386
11
0.795929
21
-0.0413386
0
LINE
8
BLACK
6
CONTINUOUS
10
0.795929
20
-0.0413386
11
0.787942
21
-0.03975
0
LINE
8
BLACK
6
CONTINUOUS
10
0.787942
20
-0.03975
11
0.780419
21
-0.0366338
0
LINE
8
BLACK
6
CONTINUOUS
10
0.780419
20
-0.0366338
11
0.773648
21
-0.0321098
0
LINE
8
BLACK
6
CONTINUOUS
10
0.773648
20
-0.0321098
11
0.76789
21
-0.0263518
0
LINE
8
BLACK
6
CONTINUOUS
10
0.76789
20
-0.0263518
11
0.763366
21
-0.0195812
0
LINE
8
BLACK
6
CONTINUOUS
10
0.763366
20
-0.0195812
11
0.76025
21
-0.012058
0
LINE
8
BLACK
6
CONTINUOUS
10
0.76025
20
-0.012058
11
0.758661
21
-0.0040715
0
LINE
8
BLACK
6
CONTINUOUS
10
0.758661
20
-0.0040715
11
0.758661
21
0.0040715
0
LINE
8
BLACK
6
CONTINUOUS
10
0.758661
20
0.0040715
11
0.76025
21
0.012058
0
LINE
8
BLACK
6
CONTINUOUS
10
0.76025
20
0.012058
11
0.763366
21
0.0195812
0
LINE
8
BLACK
6
CONTINUOUS
10
0.763366
20
0.0195812
11
0.76789
21
0.0263518
0
LINE
8
BLACK
6
CONTINUOUS
10
0.76789
20
0.0263518
11
0.773648
21
0.0321098
0
LINE
8
BLACK
6
CONTINUOUS
10
0.773648
20
0.0321098
11
0.780419
21
0.0366338
0
LINE
8
BLACK
6
CONTINUOUS
10
0.780419
20
0.0366338
11
0.787942
21
0.03975
0
LINE
8
BLACK
6
CONTINUOUS
10
0.787942
20
0.03975
11
0.795929
21
0.0413386
0
LINE
8
BLACK
6
CONTINUOUS
10
0.795929
20
0.0413386
11
0.804071
21
0.0413386
0
LINE
8
BLACK
6
CONTINUOUS
10
0.804071
20
0.0413386
11
0.812058
21
0.03975
0
LINE
8
BLACK
6
CONTINUOUS
10
0.107677
20
0.162205
11
-0.0576772
21
0.162205
0
LINE
8
BLACK
6
CONTINUOUS
10
-0.0576772
20
0.162205
11
-0.0576772
21
0.215354
0
LINE
8
BLACK
6
CONTINUOUS
10
-0.0576772
20
0.215354
11
0.107677
21
0.215354
0
LINE
8
BLACK
6
CONTINUOUS
10
0.107677
20
0.215354
11
0.107677
21
0.162205
0
LINE
8
BLACK
6
CONTINUOUS
10
1.07845
20
0.311357
11
1.08059
21
0.310467
0
LINE
8
BLACK
6
CONTINUOUS
10
1.08059
20
0.310467
11
1.08253
21
0.309174
0
LINE
8
BLACK
6
CONTINUOUS
10
1.08253
20
0.309174
11
1.08417
21
0.307529
0
LINE
8
BLACK
6
CONTINUOUS
10
1.08417
20
0.307529
11
1.08547
21
0.305595
0
LINE
8
BLACK
6
CONTINUOUS
10
1.08547
20
0.305595
11
1.08636
21
0.303445
0
LINE
8
BLACK
6
CONTINUOUS
10
1.08636
20
0.303445
11
1.08681
21
0.301163
0
LINE
8
BLACK
6
CONTINUOUS
10
1.08681
20
0.301163
11
1.08681
21
0.298837
0
LINE
8
BLACK
6
CONTINUOUS
10
1.08681
20
0.298837
11
1.08636
21
0.296555
0
LINE
8
BLACK
6
CONTINUOUS
10
1.08636
20
0.296555
11
1.08547
21
0.294405
0
LINE
8
BLACK
6
CONTINUOUS
10
1.08547
20
0.294405
11
1.08417
21
0.292471
0
LINE
8
BLACK
6
CONTINUOUS
10
1.08417
20
0.292471
11
1.08253
21
0.290826
0
LINE
8
BLACK
6
CONTINUOUS
10
1.08253
20
0.290826
11
1.08059
21
0.289533
0
LINE
8
BLACK
6
CONTINUOUS
10
1.08059
20
0.289533
11
1.07845
21
0.288643
0
LINE
8
BLACK
6
CONTINUOUS
10
1.07845
20
0.288643
11
1.07616
21
0.288189
0
LINE
8
BLACK
6
CONTINUOUS
10
1.07616
20
0.288189
11
1.07384
21
0.288189
0
LINE
8
BLACK
6
CONTINUOUS
10
1.07384
20
0.288189
11
1.07155
21
0.288643
0
LINE
8
BLACK
6
CONTINUOUS
10
1.07155
20
0.288643
11
1.06941
21
0.289533
0
LINE
8
BLACK
6
CONTINUOUS
10
1.06941
20
0.289533
11
1.06747
21
0.290826
0
LINE
8
BLACK
6
CONTINUOUS
10
1.06747
20
0.290826
11
1.06583
21
0.292471
0
LINE
8
BLACK
6
CONTINUOUS
10
1.06583
20
0.292471
11
1.06453
21
0.294405
0
LINE
8
BLACK
6
CONTINUOUS
10
1.06453
20
0.294405
11
1.06364
21
0.296555
0
LINE
8
BLACK
6
CONTINUOUS
10
1.06364
20
0.296555
11
1.06319
21
0.298837
0
LINE
8
BLACK
6
CONTINUOUS
10
1.06319
20
0.298837
11
1.06319
21
0.301163
0
LINE
8
BLACK
6
CONTINUOUS
10
1.06319
20
0.301163
11
1.06364
21
0.303445
0
LINE
8
BLACK
6
CONTINUOUS
10
1.06364
20
0.303445
11
1.06453
21
0.305595
0
LINE
8
BLACK
6
CONTINUOUS
10
1.06453
20
0.305595
11
1.06583
21
0.307529
0
LINE
8
BLACK
6
CONTINUOUS
10
1.06583
20
0.307529
11
1.06747
21
0.309174
0
LINE
8
BLACK
6
CONTINUOUS
10
1.06747
20
0.309174
11
1.06941
21
0.310467
0
LINE
8
BLACK
6
CONTINUOUS
10
1.06941
20
0.310467
11
1.07155
21
0.311357
0
LINE
8
BLACK
6
CONTINUOUS
10
1.07155
20
0.311357
11
1.07384
21
0.311811
0
LINE
8
BLACK
6
CONTINUOUS
10
1.07384
20
0.311811
11
1.07616
21
0.311811
0
LINE
8
BLACK
6
CONTINUOUS
10
1.07616
20
0.311811
11
1.07845
21
0.311357
0
LINE
8
BLACK
6
CONTINUOUS
10
0.107677
20
0.384646
11
-0.0576772
21
0.384646
0
LINE
8
BLACK
6
CONTINUOUS
10
-0.0576772
20
0.384646
11
-0.0576772
21
0.437795
0
LINE
8
BLACK
6
CONTINUOUS
10
-0.0576772
20
0.437795
11
0.107677
21
0.437795
0
LINE
8
BLACK
6
CONTINUOUS
10
0.107677
20
0.437795
11
0.107677
21
0.384646
0
LINE
8
BLACK
6
CONTINUOUS
10
0.862058
20
0.53975
11
0.869581
21
0.536634
0
LINE
8
BLACK
6
CONTINUOUS
10
0.869581
20
0.536634
11
0.876352
21
0.53211
0
LINE
8
BLACK
6
CONTINUOUS
10
0.876352
20
0.53211
11
0.88211
21
0.526352
0
LINE
8
BLACK
6
CONTINUOUS
10
0.88211
20
0.526352
11
0.886634
21
0.519581
0
LINE
8
BLACK
6
CONTINUOUS
10
0.886634
20
0.519581
11
0.88975
21
0.512058
0
LINE
8
BLACK
6
CONTINUOUS
10
0.88975
20
0.512058
11
0.891339
21
0.504071
0
LINE
8
BLACK
6
CONTINUOUS
10
0.891339
20
0.504071
11
0.891339
21
0.495929
0
LINE
8
BLACK
6
CONTINUOUS
10
0.891339
20
0.495929
11
0.88975
21
0.487942
0
LINE
8
BLACK
6
CONTINUOUS
10
0.88975
20
0.487942
11
0.886634
21
0.480419
0
LINE
8
BLACK
6
CONTINUOUS
10
0.886634
20
0.480419
11
0.88211
21
0.473648
0
LINE
8
BLACK
6
CONTINUOUS
10
0.88211
20
0.473648
11
0.876352
21
0.46789
0
LINE
8
BLACK
6
CONTINUOUS
10
0.876352
20
0.46789
11
0.869581
21
0.463366
0
LINE
8
BLACK
6
CONTINUOUS
10
0.869581
20
0.463366
11
0.862058
21
0.46025
0
LINE
8
BLACK
6
CONTINUOUS
10
0.862058
20
0.46025
11
0.854071
21
0.458661
0
LINE
8
BLACK
6
CONTINUOUS
10
0.854071
20
0.458661
11
0.845929
21
0.458661
0
LINE
8
BLACK
6
CONTINUOUS
10
0.845929
20
0.458661
11
0.837942
21
0.46025
0
LINE
8
BLACK
6
CONTINUOUS
10
0.837942
20
0.46025
11
0.830419
21
0.463366
0
LINE
8
BLACK
6
CONTINUOUS
10
0.830419
20
0.463366
11
0.823648
21
0.46789
0
LINE
8
BLACK
6
CONTINUOUS
10
0.823648
20
0.46789
11
0.81789
21
0.473648
0
LINE
8
BLACK
6
CONTINUOUS
10
0.81789
20
0.473648
11
0.813366
21
0.480419
0
LINE
8
BLACK
6
CONTINUOUS
10
0.813366
20
0.480419
11
0.81025
21
0.487942
0
LINE
8
BLACK
6
CONTINUOUS
10
0.81025
20
0.487942
11
0.808661
21
0.495929
0
LINE
8
BLACK
6
CONTINUOUS
10
0.808661
20
0.495929
11
0.808661
21
0.504071
0
LINE
8
BLACK
6
CONTINUOUS
10
0.808661
20
0.504071
11
0.81025
21
0.512058
0
LINE
8
BLACK
6
CONTINUOUS
10
0.81025
20
0.512058
11
0.813366
21
0.519581
0
LINE
8
BLACK
6
CONTINUOUS
10
0.813366
20
0.519581
11
0.81789
21
0.526352
0
LINE
8
BLACK
6
CONTINUOUS
10
0.81789
20
0.526352
11
0.823648
21
0.53211
0
LINE
8
BLACK
6
CONTINUOUS
10
0.823648
20
0.53211
11
0.830419
21
0.536634
0
LINE
8
BLACK
6
CONTINUOUS
10
0.830419
20
0.536634
11
0.837942
21
0.53975
0
LINE
8
BLACK
6
CONTINUOUS
10
0.837942
20
0.53975
11
0.845929
21
0.541339
0
LINE
8
BLACK
6
CONTINUOUS
10
0.845929
20
0.541339
11
0.854071
21
0.541339
0
LINE
8
BLACK
6
CONTINUOUS
10
0.854071
20
0.541339
11
0.862058
21
0.53975
0
LINE
8
BLACK
6
CONTINUOUS
10
0.358613
20
0.528393
11
0.363987
21
0.526167
0
LINE
8
BLACK
6
CONTINUOUS
10
0.363987
20
0.526167
11
0.368823
21
0.522936
0
LINE
8
BLACK
6
CONTINUOUS
10
0.368823
20
0.522936
11
0.372936
21
0.518823
0
LINE
8
BLACK
6
CONTINUOUS
10
0.372936
20
0.518823
11
0.376167
21
0.513987
0
LINE
8
BLACK
6
CONTINUOUS
10
0.376167
20
0.513987
11
0.378393
21
0.508613
0
LINE
8
BLACK
6
CONTINUOUS
10
0.378393
20
0.508613
11
0.379528
21
0.502908
0
LINE
8
BLACK
6
CONTINUOUS
10
0.379528
20
0.502908
11
0.379528
21
0.497092
0
LINE
8
BLACK
6
CONTINUOUS
10
0.379528
20
0.497092
11
0.378393
21
0.491387
0
LINE
8
BLACK
6
CONTINUOUS
10
0.378393
20
0.491387
11
0.376167
21
0.486013
0
LINE
8
BLACK
6
CONTINUOUS
10
0.376167
20
0.486013
11
0.372936
21
0.481177
0
LINE
8
BLACK
6
CONTINUOUS
10
0.372936
20
0.481177
11
0.368823
21
0.477064
0
LINE
8
BLACK
6
CONTINUOUS
10
0.368823
20
0.477064
11
0.363987
21
0.473833
0
LINE
8
BLACK
6
CONTINUOUS
10
0.363987
20
0.473833
11
0.358613
21
0.471607
0
LINE
8
BLACK
6
CONTINUOUS
10
0.358613
20
0.471607
11
0.352908
21
0.470472
0
LINE
8
BLACK
6
CONTINUOUS
10
0.352908
20
0.470472
11
0.347092
21
0.470472
0
LINE
8
BLACK
6
CONTINUOUS
10
0.347092
20
0.470472
11
0.341387
21
0.471607
0
LINE
8
BLACK
6
CONTINUOUS
10
0.341387
20
0.471607
11
0.336013
21
0.473833
0
LINE
8
BLACK
6
CONTINUOUS
10
0.336013
20
0.473833
11
0.331177
21
0.477064
0
LINE
8
BLACK
6
CONTINUOUS
10
0.331177
20
0.477064
11
0.327064
21
0.481177
0
LINE
8
BLACK
6
CONTINUOUS
10
0.327064
20
0.481177
11
0.323833
21
0.486013
0
LINE
8
BLACK
6
CONTINUOUS
10
0.323833
20
0.486013
11
0.321607
21
0.491387
0
LINE
8
BLACK
6
CONTINUOUS
10
0.321607
20
0.491387
11
0.320472
21
0.497092
0
LINE
8
BLACK
6
CONTINUOUS
10
0.320472
20
0.497092
11
0.320472
21
0.502908
0
LINE
8
BLACK
6
CONTINUOUS
10
0.320472
20
0.502908
11
0.321607
21
0.508613
0
LINE
8
BLACK
6
CONTINUOUS
10
0.321607
20
0.508613
11
0.323833
21
0.513987
0
LINE
8
BLACK
6
CONTINUOUS
10
0.323833
20
0.513987
11
0.327064
21
0.518823
0
LINE
8
BLACK
6
CONTINUOUS
10
0.327064
20
0.518823
11
0.331177
21
0.522936
0
LINE
8
BLACK
6
CONTINUOUS
10
0.331177
20
0.522936
11
0.336013
21
0.526167
0
LINE
8
BLACK
6
CONTINUOUS
10
0.336013
20
0.526167
11
0.341387
21
0.528393
0
LINE
8
BLACK
6
CONTINUOUS
10
0.341387
20
0.528393
11
0.347092
21
0.529528
0
LINE
8
BLACK
6
CONTINUOUS
10
0.347092
20
0.529528
11
0.352908
21
0.529528
0
LINE
8
BLACK
6
CONTINUOUS
10
0.352908
20
0.529528
11
0.358613
21
0.528393
0
LINE
8
BLACK
6
CONTINUOUS
10
0.458613
20
0.528393
11
0.463987
21
0.526167
0
LINE
8
BLACK
6
CONTINUOUS
10
0.463987
20
0.526167
11
0.468823
21
0.522936
0
LINE
8
BLACK
6
CONTINUOUS
10
0.468823
20
0.522936
11
0.472936
21
0.518823
0
LINE
8
BLACK
6
CONTINUOUS
10
0.472936
20
0.518823
11
0.476167
21
0.513987
0
LINE
8
BLACK
6
CONTINUOUS
10
0.476167
20
0.513987
11
0.478393
21
0.508613
0
LINE
8
BLACK
6
CONTINUOUS
10
0.478393
20
0.508613
11
0.479528
21
0.502908
0
LINE
8
BLACK
6
CONTINUOUS
10
0.479528
20
0.502908
11
0.479528
21
0.497092
0
LINE
8
BLACK
6
CONTINUOUS
10
0.479528
20
0.497092
11
0.478393
21
0.491387
0
LINE
8
BLACK
6
CONTINUOUS
10
0.478393
20
0.491387
11
0.476167
21
0.486013
0
LINE
8
BLACK
6
CONTINUOUS
10
0.476167
20
0.486013
11
0.472936
21
0.481177
0
LINE
8
BLACK
6
CONTINUOUS
10
0.472936
20
0.481177
11
0.468823
21
0.477064
0
LINE
8
BLACK
6
CONTINUOUS
10
0.468823
20
0.477064
11
0.463987
21
0.473833
0
LINE
8
BLACK
6
CONTINUOUS
10
0.463987
20
0.473833
11
0.458613
21
0.471607
0
LINE
8
BLACK
6
CONTINUOUS
10
0.458613
20
0.471607
11
0.452908
21
0.470472
0
LINE
8
BLACK
6
CONTINUOUS
10
0.452908
20
0.470472
11
0.447092
21
0.470472
0
LINE
8
BLACK
6
CONTINUOUS
10
0.447092
20
0.470472
11
0.441387
21
0.471607
0
LINE
8
BLACK
6
CONTINUOUS
10
0.441387
20
0.471607
11
0.436013
21
0.473833
0
LINE
8
BLACK
6
CONTINUOUS
10
0.436013
20
0.473833
11
0.431177
21
0.477064
0
LINE
8
BLACK
6
CONTINUOUS
10
0.431177
20
0.477064
11
0.427064
21
0.481177
0
LINE
8
BLACK
6
CONTINUOUS
10
0.427064
20
0.481177
11
0.423833
21
0.486013
0
LINE
8
BLACK
6
CONTINUOUS
10
0.423833
20
0.486013
11
0.421607
21
0.491387
0
LINE
8
BLACK
6
CONTINUOUS
10
0.421607
20
0.491387
11
0.420472
21
0.497092
0
LINE
8
BLACK
6
CONTINUOUS
10
0.420472
20
0.497092
11
0.420472
21
0.502908
0
LINE
8
BLACK
6
CONTINUOUS
10
0.420472
20
0.502908
11
0.421607
21
0.508613
0
LINE
8
BLACK
6
CONTINUOUS
10
0.421607
20
0.508613
11
0.423833
21
0.513987
0
LINE
8
BLACK
6
CONTINUOUS
10
0.423833
20
0.513987
11
0.427064
21
0.518823
0
LINE
8
BLACK
6
CONTINUOUS
10
0.427064
20
0.518823
11
0.431177
21
0.522936
0
LINE
8
BLACK
6
CONTINUOUS
10
0.431177
20
0.522936
11
0.436013
21
0.526167
0
LINE
8
BLACK
6
CONTINUOUS
10
0.436013
20
0.526167
11
0.441387
21
0.528393
0
LINE
8
BLACK
6
CONTINUOUS
10
0.441387
20
0.528393
11
0.447092
21
0.529528
0
LINE
8
BLACK
6
CONTINUOUS
10
0.447092
20
0.529528
11
0.452908
21
0.529528
0
LINE
8
BLACK
6
CONTINUOUS
10
0.452908
20
0.529528
11
0.458613
21
0.528393
0
LINE
8
BLACK
6
CONTINUOUS
10
0.758613
20
0.528393
11
0.763987
21
0.526167
0
LINE
8
BLACK
6
CONTINUOUS
10
0.763987
20
0.526167
11
0.768823
21
0.522936
0
LINE
8
BLACK
6
CONTINUOUS
10
0.768823
20
0.522936
11
0.772936
21
0.518823
0
LINE
8
BLACK
6
CONTINUOUS
10
0.772936
20
0.518823
11
0.776167
21
0.513987
0
LINE
8
BLACK
6
CONTINUOUS
10
0.776167
20
0.513987
11
0.778393
21
0.508613
0
LINE
8
BLACK
6
CONTINUOUS
10
0.778393
20
0.508613
11
0.779528
21
0.502908
0
LINE
8
BLACK
6
CONTINUOUS
10
0.779528
20
0.502908
11
0.779528
21
0.497092
0
LINE
8
BLACK
6
CONTINUOUS
10
0.779528
20
0.497092
11
0.778393
21
0.491387
0
LINE
8
BLACK
6
CONTINUOUS
10
0.778393
20
0.491387
11
0.776167
21
0.486013
0
LINE
8
BLACK
6
CONTINUOUS
10
0.776167
20
0.486013
11
0.772936
21
0.481177
0
LINE
8
BLACK
6
CONTINUOUS
10
0.772936
20
0.481177
11
0.768823
21
0.477064
0
LINE
8
BLACK
6
CONTINUOUS
10
0.768823
20
0.477064
11
0.763987
21
0.473833
0
LINE
8
BLACK
6
CONTINUOUS
10
0.763987
20
0.473833
11
0.758613
21
0.471607
0
LINE
8
BLACK
6
CONTINUOUS
10
0.758613
20
0.471607
11
0.752908
21
0.470472
0
LINE
8
BLACK
6
CONTINUOUS
10
0.752908
20
0.470472
11
0.747092
21
0.470472
0
LINE
8
BLACK
6
CONTINUOUS
10
0.747092
20
0.470472
11
0.741387
21
0.471607
0
LINE
8
BLACK
6
CONTINUOUS
10
0.741387
20
0.471607
11
0.736013
21
0.473833
0
LINE
8
BLACK
6
CONTINUOUS
10
0.736013
20
0.473833
11
0.731177
21
0.477064
0
LINE
8
BLACK
6
CONTINUOUS
10
0.731177
20
0.477064
11
0.727064
21
0.481177
0
LINE
8
BLACK
6
CONTINUOUS
10
0.727064
20
0.481177
11
0.723833
21
0.486013
0
LINE
8
BLACK
6
CONTINUOUS
10
0.723833
20
0.486013
11
0.721607
21
0.491387
0
LINE
8
BLACK
6
CONTINUOUS
10
0.721607
20
0.491387
11
0.720472
21
0.497092
0
LINE
8
BLACK
6
CONTINUOUS
10
0.720472
20
0.497092
11
0.720472
21
0.502908
0
LINE
8
BLACK
6
CONTINUOUS
10
0.720472
20
0.502908
11
0.721607
21
0.508613
0
LINE
8
BLACK
6
CONTINUOUS
10
0.721607
20
0.508613
11
0.723833
21
0.513987
0
LINE
8
BLACK
6
CONTINUOUS
10
0.723833
20
0.513987
11
0.727064
21
0.518823
0
LINE
8
BLACK
6
CONTINUOUS
10
0.727064
20
0.518823
11
0.731177
21
0.522936
0
LINE
8
BLACK
6
CONTINUOUS
10
0.731177
20
0.522936
11
0.736013
21
0.526167
0
LINE
8
BLACK
6
CONTINUOUS
10
0.736013
20
0.526167
11
0.741387
21
0.528393
0
LINE
8
BLACK
6
CONTINUOUS
10
0.741387
20
0.528393
11
0.747092
21
0.529528
0
LINE
8
BLACK
6
CONTINUOUS
10
0.747092
20
0.529528
11
0.752908
21
0.529528
0
LINE
8
BLACK
6
CONTINUOUS
10
0.752908
20
0.529528
11
0.758613
21
0.528393
0
LINE
8
BLACK
6
CONTINUOUS
10
0.512058
20
0.63975
11
0.519581
21
0.636634
0
LINE
8
BLACK
6
CONTINUOUS
10
0.519581
20
0.636634
11
0.526352
21
0.63211
0
LINE
8
BLACK
6
CONTINUOUS
10
0.526352
20
0.63211
11
0.53211
21
0.626352
0
LINE
8
BLACK
6
CONTINUOUS
10
0.53211
20
0.626352
11
0.536634
21
0.619581
0
LINE
8
BLACK
6
CONTINUOUS
10
0.536634
20
0.619581
11
0.53975
21
0.612058
0
LINE
8
BLACK
6
CONTINUOUS
10
0.53975
20
0.612058
11
0.541339
21
0.604071
0
LINE
8
BLACK
6
CONTINUOUS
10
0.541339
20
0.604071
11
0.541339
21
0.595929
0
LINE
8
BLACK
6
CONTINUOUS
10
0.541339
20
0.595929
11
0.53975
21
0.587942
0
LINE
8
BLACK
6
CONTINUOUS
10
0.53975
20
0.587942
11
0.536634
21
0.580419
0
LINE
8
BLACK
6
CONTINUOUS
10
0.536634
20
0.580419
11
0.53211
21
0.573648
0
LINE
8
BLACK
6
CONTINUOUS
10
0.53211
20
0.573648
11
0.526352
21
0.56789
0
LINE
8
BLACK
6
CONTINUOUS
10
0.526352
20
0.56789
11
0.519581
21
0.563366
0
LINE
8
BLACK
6
CONTINUOUS
10
0.519581
20
0.563366
11
0.512058
21
0.56025
0
LINE
8
BLACK
6
CONTINUOUS
10
0.512058
20
0.56025
11
0.504071
21
0.558661
0
LINE
8
BLACK
6
CONTINUOUS
10
0.504071
20
0.558661
11
0.495929
21
0.558661
0
LINE
8
BLACK
6
CONTINUOUS
10
0.495929
20
0.558661
11
0.487942
21
0.56025
0
LINE
8
BLACK
6
CONTINUOUS
10
0.487942
20
0.56025
11
0.480419
21
0.563366
0
LINE
8
BLACK
6
CONTINUOUS
10
0.480419
20
0.563366
11
0.473648
21
0.56789
0
LINE
8
BLACK
6
CONTINUOUS
10
0.473648
20
0.56789
11
0.46789
21
0.573648
0
LINE
8
BLACK
6
CONTINUOUS
10
0.46789
20
0.573648
11
0.463366
21
0.580419
0
LINE
8
BLACK
6
CONTINUOUS
10
0.463366
20
0.580419
11
0.46025
21
0.587942
0
LINE
8
BLACK
6
CONTINUOUS
10
0.46025
20
0.587942
11
0.458661
21
0.595929
0
LINE
8
BLACK
6
CONTINUOUS
10
0.458661
20
0.595929
11
0.458661
21
0.604071
0
LINE
8
BLACK
6
CONTINUOUS
10
0.458661
20
0.604071
11
0.46025
21
0.612058
0
LINE
8
BLACK
6
CONTINUOUS
10
0.46025
20
0.612058
11
0.463366
21
0.619581
0
LINE
8
BLACK
6
CONTINUOUS
10
0.463366
20
0.619581
11
0.46789
21
0.626352
0
LINE
8
BLACK
6
CONTINUOUS
10
0.46789
20
0.626352
11
0.473648
21
0.63211
0
LINE
8
BLACK
6
CONTINUOUS
10
0.473648
20
0.63211
11
0.480419
21
0.636634
0
LINE
8
BLACK
6
CONTINUOUS
10
0.480419
20
0.636634
11
0.487942
21
0.63975
0
LINE
8
BLACK
6
CONTINUOUS
10
0.487942
20
0.63975
11
0.495929
21
0.641339
0
LINE
8
BLACK
6
CONTINUOUS
10
0.495929
20
0.641339
11
0.504071
21
0.641339
0
LINE
8
BLACK
6
CONTINUOUS
10
0.504071
20
0.641339
11
0.512058
21
0.63975
0
LINE
8
BLACK
6
CONTINUOUS
10
0.612058
20
0.63975
11
0.619581
21
0.636634
0
LINE
8
BLACK
6
CONTINUOUS
10
0.619581
20
0.636634
11
0.626352
21
0.63211
0
LINE
8
BLACK
6
CONTINUOUS
10
0.626352
20
0.63211
11
0.63211
21
0.626352
0
LINE
8
BLACK
6
CONTINUOUS
10
0.63211
20
0.626352
11
0.636634
21
0.619581
0
LINE
8
BLACK
6
CONTINUOUS
10
0.636634
20
0.619581
11
0.63975
21
0.612058
0
LINE
8
BLACK
6
CONTINUOUS
10
0.63975
20
0.612058
11
0.641339
21
0.604071
0
LINE
8
BLACK
6
CONTINUOUS
10
0.641339
20
0.604071
11
0.641339
21
0.595929
0
LINE
8
BLACK
6
CONTINUOUS
10
0.641339
20
0.595929
11
0.63975
21
0.587942
0
LINE
8
BLACK
6
CONTINUOUS
10
0.63975
20
0.587942
11
0.636634
21
0.580419
0
LINE
8
BLACK
6
CONTINUOUS
10
0.636634
20
0.580419
11
0.63211
21
0.573648
0
LINE
8
BLACK
6
CONTINUOUS
10
0.63211
20
0.573648
11
0.626352
21
0.56789
0
LINE
8
BLACK
6
CONTINUOUS
10
0.626352
20
0.56789
11
0.619581
21
0.563366
0
LINE
8
BLACK
6
CONTINUOUS
10
0.619581
20
0.563366
11
0.612058
21
0.56025
0
LINE
8
BLACK
6
CONTINUOUS
10
0.612058
20
0.56025
11
0.604071
21
0.558661
0
LINE
8
BLACK
6
CONTINUOUS
10
0.604071
20
0.558661
11
0.595929
21
0.558661
0
LINE
8
BLACK
6
CONTINUOUS
10
0.595929
20
0.558661
11
0.587942
21
0.56025
0
LINE
8
BLACK
6
CONTINUOUS
10
0.587942
20
0.56025
11
0.580419
21
0.563366
0
LINE
8
BLACK
6
CONTINUOUS
10
0.580419
20
0.563366
11
0.573648
21
0.56789
0
LINE
8
BLACK
6
CONTINUOUS
10
0.573648
20
0.56789
11
0.56789
21
0.573648
0
LINE
8
BLACK
6
CONTINUOUS
10
0.56789
20
0.573648
11
0.563366
21
0.580419
0
LINE
8
BLACK
6
CONTINUOUS
10
0.563366
20
0.580419
11
0.56025
21
0.587942
0
LINE
8
BLACK
6
CONTINUOUS
10
0.56025
20
0.587942
11
0.558661
21
0.595929
0
LINE
8
BLACK
6
CONTINUOUS
10
0.558661
20
0.595929
11
0.558661
21
0.604071
0
LINE
8
BLACK
6
CONTINUOUS
10
0.558661
20
0.604071
11
0.56025
21
0.612058
0
LINE
8
BLACK
6
CONTINUOUS
10
0.56025
20
0.612058
11
0.563366
21
0.619581
0
LINE
8
BLACK
6
CONTINUOUS
10
0.563366
20
0.619581
11
0.56789
21
0.626352
0
LINE
8
BLACK
6
CONTINUOUS
10
0.56789
20
0.626352
11
0.573648
21
0.63211
0
LINE
8
BLACK
6
CONTINUOUS
10
0.573648
20
0.63211
11
0.580419
21
0.636634
0
LINE
8
BLACK
6
CONTINUOUS
10
0.580419
20
0.636634
11
0.587942
21
0.63975
0
LINE
8
BLACK
6
CONTINUOUS
10
0.587942
20
0.63975
11
0.595929
21
0.641339
0
LINE
8
BLACK
6
CONTINUOUS
10
0.595929
20
0.641339
11
0.604071
21
0.641339
0
LINE
8
BLACK
6
CONTINUOUS
10
0.604071
20
0.641339
11
0.612058
21
0.63975
0
LINE
8
BLACK
6
CONTINUOUS
10
0.412058
20
0.63975
11
0.419581
21
0.636634
0
LINE
8
BLACK
6
CONTINUOUS
10
0.419581
20
0.636634
11
0.426352
21
0.63211
0
LINE
8
BLACK
6
CONTINUOUS
10
0.426352
20
0.63211
11
0.43211
21
0.626352
0
LINE
8
BLACK
6
CONTINUOUS
10
0.43211
20
0.626352
11
0.436634
21
0.619581
0
LINE
8
BLACK
6
CONTINUOUS
10
0.436634
20
0.619581
11
0.43975
21
0.612058
0
LINE
8
BLACK
6
CONTINUOUS
10
0.43975
20
0.612058
11
0.441339
21
0.604071
0
LINE
8
BLACK
6
CONTINUOUS
10
0.441339
20
0.604071
11
0.441339
21
0.595929
0
LINE
8
BLACK
6
CONTINUOUS
10
0.441339
20
0.595929
11
0.43975
21
0.587942
0
LINE
8
BLACK
6
CONTINUOUS
10
0.43975
20
0.587942
11
0.436634
21
0.580419
0
LINE
8
BLACK
6
CONTINUOUS
10
0.436634
20
0.580419
11
0.43211
21
0.573648
0
LINE
8
BLACK
6
CONTINUOUS
10
0.43211
20
0.573648
11
0.426352
21
0.56789
0
LINE
8
BLACK
6
CONTINUOUS
10
0.426352
20
0.56789
11
0.419581
21
0.563366
0
LINE
8
BLACK
6
CONTINUOUS
10
0.419581
20
0.563366
11
0.412058
21
0.56025
0
LINE
8
BLACK
6
CONTINUOUS
10
0.412058
20
0.56025
11
0.404071
21
0.558661
0
LINE
8
BLACK
6
CONTINUOUS
10
0.404071
20
0.558661
11
0.395929
21
0.558661
0
LINE
8
BLACK
6
CONTINUOUS
10
0.395929
20
0.558661
11
0.387942
21
0.56025
0
LINE
8
BLACK
6
CONTINUOUS
10
0.387942
20
0.56025
11
0.380419
21
0.563366
0
LINE
8
BLACK
6
CONTINUOUS
10
0.380419
20
0.563366
11
0.373648
21
0.56789
0
LINE
8
BLACK
6
CONTINUOUS
10
0.373648
20
0.56789
11
0.36789
21
0.573648
0
LINE
8
BLACK
6
CONTINUOUS
10
0.36789
20
0.573648
11
0.363366
21
0.580419
0
LINE
8
BLACK
6
CONTINUOUS
10
0.363366
20
0.580419
11
0.36025
21
0.587942
0
LINE
8
BLACK
6
CONTINUOUS
10
0.36025
20
0.587942
11
0.358661
21
0.595929
0
LINE
8
BLACK
6
CONTINUOUS
10
0.358661
20
0.595929
11
0.358661
21
0.604071
0
LINE
8
BLACK
6
CONTINUOUS
10
0.358661
20
0.604071
11
0.36025
21
0.612058
0
LINE
8
BLACK
6
CONTINUOUS
10
0.36025
20
0.612058
11
0.363366
21
0.619581
0
LINE
8
BLACK
6
CONTINUOUS
10
0.363366
20
0.619581
11
0.36789
21
0.626352
0
LINE
8
BLACK
6
CONTINUOUS
10
0.36789
20
0.626352
11
0.373648
21
0.63211
0
LINE
8
BLACK
6
CONTINUOUS
10
0.373648
20
0.63211
11
0.380419
21
0.636634
0
LINE
8
BLACK
6
CONTINUOUS
10
0.380419
20
0.636634
11
0.387942
21
0.63975
0
LINE
8
BLACK
6
CONTINUOUS
10
0.387942
20
0.63975
11
0.395929
21
0.641339
0
LINE
8
BLACK
6
CONTINUOUS
10
0.395929
20
0.641339
11
0.404071
21
0.641339
0
LINE
8
BLACK
6
CONTINUOUS
10
0.404071
20
0.641339
11
0.412058
21
0.63975
0
LINE
8
BLACK
6
CONTINUOUS
10
0.712058
20
0.63975
11
0.719581
21
0.636634
0
LINE
8
BLACK
6
CONTINUOUS
10
0.719581
20
0.636634
11
0.726352
21
0.63211
0
LINE
8
BLACK
6
CONTINUOUS
10
0.726352
20
0.63211
11
0.73211
21
0.626352
0
LINE
8
BLACK
6
CONTINUOUS
10
0.73211
20
0.626352
11
0.736634
21
0.619581
0
LINE
8
BLACK
6
CONTINUOUS
10
0.736634
20
0.619581
11
0.73975
21
0.612058
0
LINE
8
BLACK
6
CONTINUOUS
10
0.73975
20
0.612058
11
0.741339
21
0.604071
0
LINE
8
BLACK
6
CONTINUOUS
10
0.741339
20
0.604071
11
0.741339
21
0.595929
0
LINE
8
BLACK
6
CONTINUOUS
10
0.741339
20
0.595929
11
0.73975
21
0.587942
0
LINE
8
BLACK
6
CONTINUOUS
10
0.73975
20
0.587942
11
0.736634
21
0.580419
0
LINE
8
BLACK
6
CONTINUOUS
10
0.736634
20
0.580419
11
0.73211
21
0.573648
0
LINE
8
BLACK
6
CONTINUOUS
10
0.73211
20
0.573648
11
0.726352
21
0.56789
0
LINE
8
BLACK
6
CONTINUOUS
10
0.726352
20
0.56789
11
0.719581
21
0.563366
0
LINE
8
BLACK
6
CONTINUOUS
10
0.719581
20
0.563366
11
0.712058
21
0.56025
0
LINE
8
BLACK
6
CONTINUOUS
10
0.712058
20
0.56025
11
0.704071
21
0.558661
0
LINE
8
BLACK
6
CONTINUOUS
10
0.704071
20
0.558661
11
0.695929
21
0.558661
0
LINE
8
BLACK
6
CONTINUOUS
10
0.695929
20
0.558661
11
0.687942
21
0.56025
0
LINE
8
BLACK
6
CONTINUOUS
10
0.687942
20
0.56025
11
0.680419
21
0.563366
0
LINE
8
BLACK
6
CONTINUOUS
10
0.680419
20
0.563366
11
0.673648
21
0.56789
0
LINE
8
BLACK
6
CONTINUOUS
10
0.673648
20
0.56789
11
0.66789
21
0.573648
0
LINE
8
BLACK
6
CONTINUOUS
10
0.66789
20
0.573648
11
0.663366
21
0.580419
0
LINE
8
BLACK
6
CONTINUOUS
10
0.663366
20
0.580419
11
0.66025
21
0.587942
0
LINE
8
BLACK
6
CONTINUOUS
10
0.66025
20
0.587942
11
0.658661
21
0.595929
0
LINE
8
BLACK
6
CONTINUOUS
10
0.658661
20
0.595929
11
0.658661
21
0.604071
0
LINE
8
BLACK
6
CONTINUOUS
10
0.658661
20
0.604071
11
0.66025
21
0.612058
0
LINE
8
BLACK
6
CONTINUOUS
10
0.66025
20
0.612058
11
0.663366
21
0.619581
0
LINE
8
BLACK
6
CONTINUOUS
10
0.663366
20
0.619581
11
0.66789
21
0.626352
0
LINE
8
BLACK
6
CONTINUOUS
10
0.66789
20
0.626352
11
0.673648
21
0.63211
0
LINE
8
BLACK
6
CONTINUOUS
10
0.673648
20
0.63211
11
0.680419
21
0.636634
0
LINE
8
BLACK
6
CONTINUOUS
10
0.680419
20
0.636634
11
0.687942
21
0.63975
0
LINE
8
BLACK
6
CONTINUOUS
10
0.687942
20
0.63975
11
0.695929
21
0.641339
0
LINE
8
BLACK
6
CONTINUOUS
10
0.695929
20
0.641339
11
0.704071
21
0.641339
0
LINE
8
BLACK
6
CONTINUOUS
10
0.704071
20
0.641339
11
0.712058
21
0.63975
0
LINE
8
BLACK
6
CONTINUOUS
10
0.312058
20
0.63975
11
0.319581
21
0.636634
0
LINE
8
BLACK
6
CONTINUOUS
10
0.319581
20
0.636634
11
0.326352
21
0.63211
0
LINE
8
BLACK
6
CONTINUOUS
10
0.326352
20
0.63211
11
0.33211
21
0.626352
0
LINE
8
BLACK
6
CONTINUOUS
10
0.33211
20
0.626352
11
0.336634
21
0.619581
0
LINE
8
BLACK
6
CONTINUOUS
10
0.336634
20
0.619581
11
0.33975
21
0.612058
0
LINE
8
BLACK
6
CONTINUOUS
10
0.33975
20
0.612058
11
0.341339
21
0.604071
0
LINE
8
BLACK
6
CONTINUOUS
10
0.341339
20
0.604071
11
0.341339
21
0.595929
0
LINE
8
BLACK
6
CONTINUOUS
10
0.341339
20
0.595929
11
0.33975
21
0.587942
0
LINE
8
BLACK
6
CONTINUOUS
10
0.33975
20
0.587942
11
0.336634
21
0.580419
0
LINE
8
BLACK
6
CONTINUOUS
10
0.336634
20
0.580419
11
0.33211
21
0.573648
0
LINE
8
BLACK
6
CONTINUOUS
10
0.33211
20
0.573648
11
0.326352
21
0.56789
0
LINE
8
BLACK
6
CONTINUOUS
10
0.326352
20
0.56789
11
0.319581
21
0.563366
0
LINE
8
BLACK
6
CONTINUOUS
10
0.319581
20
0.563366
11
0.312058
21
0.56025
0
LINE
8
BLACK
6
CONTINUOUS
10
0.312058
20
0.56025
11
0.304071
21
0.558661
0
LINE
8
BLACK
6
CONTINUOUS
10
0.304071
20
0.558661
11
0.295929
21
0.558661
0
LINE
8
BLACK
6
CONTINUOUS
10
0.295929
20
0.558661
11
0.287942
21
0.56025
0
LINE
8
BLACK
6
CONTINUOUS
10
0.287942
20
0.56025
11
0.280419
21
0.563366
0
LINE
8
BLACK
6
CONTINUOUS
10
0.280419
20
0.563366
11
0.273648
21
0.56789
0
LINE
8
BLACK
6
CONTINUOUS
10
0.273648
20
0.56789
11
0.26789
21
0.573648
0
LINE
8
BLACK
6
CONTINUOUS
10
0.26789
20
0.573648
11
0.263366
21
0.580419
0
LINE
8
BLACK
6
CONTINUOUS
10
0.263366
20
0.580419
11
0.26025
21
0.587942
0
LINE
8
BLACK
6
CONTINUOUS
10
0.26025
20
0.587942
11
0.258661
21
0.595929
0
LINE
8
BLACK
6
CONTINUOUS
10
0.258661
20
0.595929
11
0.258661
21
0.604071
0
LINE
8
BLACK
6
CONTINUOUS
10
0.258661
20
0.604071
11
0.26025
21
0.612058
0
LINE
8
BLACK
6
CONTINUOUS
10
0.26025
20
0.612058
11
0.263366
21
0.619581
0
LINE
8
BLACK
6
CONTINUOUS
10
0.263366
20
0.619581
11
0.26789
21
0.626352
0
LINE
8
BLACK
6
CONTINUOUS
10
0.26789
20
0.626352
11
0.273648
21
0.63211
0
LINE
8
BLACK
6
CONTINUOUS
10
0.273648
20
0.63211
11
0.280419
21
0.636634
0
LINE
8
BLACK
6
CONTINUOUS
10
0.280419
20
0.636634
11
0.287942
21
0.63975
0
LINE
8
BLACK
6
CONTINUOUS
10
0.287942
20
0.63975
11
0.295929
21
0.641339
0
LINE
8
BLACK
6
CONTINUOUS
10
0.295929
20
0.641339
11
0.304071
21
0.641339
0
LINE
8
BLACK
6
CONTINUOUS
10
0.304071
20
0.641339
11
0.312058
21
0.63975
0
LINE
8
BLACK
6
CONTINUOUS
10
0.812058
20
0.63975
11
0.819581
21
0.636634
0
LINE
8
BLACK
6
CONTINUOUS
10
0.819581
20
0.636634
11
0.826352
21
0.63211
0
LINE
8
BLACK
6
CONTINUOUS
10
0.826352
20
0.63211
11
0.83211
21
0.626352
0
LINE
8
BLACK
6
CONTINUOUS
10
0.83211
20
0.626352
11
0.836634
21
0.619581
0
LINE
8
BLACK
6
CONTINUOUS
10
0.836634
20
0.619581
11
0.83975
21
0.612058
0
LINE
8
BLACK
6
CONTINUOUS
10
0.83975
20
0.612058
11
0.841339
21
0.604071
0
LINE
8
BLACK
6
CONTINUOUS
10
0.841339
20
0.604071
11
0.841339
21
0.595929
0
LINE
8
BLACK
6
CONTINUOUS
10
0.841339
20
0.595929
11
0.83975
21
0.587942
0
LINE
8
BLACK
6
CONTINUOUS
10
0.83975
20
0.587942
11
0.836634
21
0.580419
0
LINE
8
BLACK
6
CONTINUOUS
10
0.836634
20
0.580419
11
0.83211
21
0.573648
0
LINE
8
BLACK
6
CONTINUOUS
10
0.83211
20
0.573648
11
0.826352
21
0.56789
0
LINE
8
BLACK
6
CONTINUOUS
10
0.826352
20
0.56789
11
0.819581
21
0.563366
0
LINE
8
BLACK
6
CONTINUOUS
10
0.819581
20
0.563366
11
0.812058
21
0.56025
0
LINE
8
BLACK
6
CONTINUOUS
10
0.812058
20
0.56025
11
0.804071
21
0.558661
0
LINE
8
BLACK
6
CONTINUOUS
10
0.804071
20
0.558661
11
0.795929
21
0.558661
0
LINE
8
BLACK
6
CONTINUOUS
10
0.795929
20
0.558661
11
0.787942
21
0.56025
0
LINE
8
BLACK
6
CONTINUOUS
10
0.787942
20
0.56025
11
0.780419
21
0.563366
0
LINE
8
BLACK
6
CONTINUOUS
10
0.780419
20
0.563366
11
0.773648
21
0.56789
0
LINE
8
BLACK
6
CONTINUOUS
10
0.773648
20
0.56789
11
0.76789
21
0.573648
0
LINE
8
BLACK
6
CONTINUOUS
10
0.76789
20
0.573648
11
0.763366
21
0.580419
0
LINE
8
BLACK
6
CONTINUOUS
10
0.763366
20
0.580419
11
0.76025
21
0.587942
0
LINE
8
BLACK
6
CONTINUOUS
10
0.76025
20
0.587942
11
0.758661
21
0.595929
0
LINE
8
BLACK
6
CONTINUOUS
10
0.758661
20
0.595929
11
0.758661
21
0.604071
0
LINE
8
BLACK
6
CONTINUOUS
10
0.758661
20
0.604071
11
0.76025
21
0.612058
0
LINE
8
BLACK
6
CONTINUOUS
10
0.76025
20
0.612058
11
0.763366
21
0.619581
0
LINE
8
BLACK
6
CONTINUOUS
10
0.763366
20
0.619581
11
0.76789
21
0.626352
0
LINE
8
BLACK
6
CONTINUOUS
10
0.76789
20
0.626352
11
0.773648
21
0.63211
0
LINE
8
BLACK
6
CONTINUOUS
10
0.773648
20
0.63211
11
0.780419
21
0.636634
0
LINE
8
BLACK
6
CONTINUOUS
10
0.780419
20
0.636634
11
0.787942
21
0.63975
0
LINE
8
BLACK
6
CONTINUOUS
10
0.787942
20
0.63975
11
0.795929
21
0.641339
0
LINE
8
BLACK
6
CONTINUOUS
10
0.795929
20
0.641339
11
0.804071
21
0.641339
0
LINE
8
BLACK
6
CONTINUOUS
10
0.804071
20
0.641339
11
0.812058
21
0.63975
0
LINE
8
BLACK
6
CONTINUOUS
10
0.212058
20
0.63975
11
0.219581
21
0.636634
0
LINE
8
BLACK
6
CONTINUOUS
10
0.219581
20
0.636634
11
0.226352
21
0.63211
0
LINE
8
BLACK
6
CONTINUOUS
10
0.226352
20
0.63211
11
0.23211
21
0.626352
0
LINE
8
BLACK
6
CONTINUOUS
10
0.23211
20
0.626352
11
0.236634
21
0.619581
0
LINE
8
BLACK
6
CONTINUOUS
10
0.236634
20
0.619581
11
0.23975
21
0.612058
0
LINE
8
BLACK
6
CONTINUOUS
10
0.23975
20
0.612058
11
0.241339
21
0.604071
0
LINE
8
BLACK
6
CONTINUOUS
10
0.241339
20
0.604071
11
0.241339
21
0.595929
0
LINE
8
BLACK
6
CONTINUOUS
10
0.241339
20
0.595929
11
0.23975
21
0.587942
0
LINE
8
BLACK
6
CONTINUOUS
10
0.23975
20
0.587942
11
0.236634
21
0.580419
0
LINE
8
BLACK
6
CONTINUOUS
10
0.236634
20
0.580419
11
0.23211
21
0.573648
0
LINE
8
BLACK
6
CONTINUOUS
10
0.23211
20
0.573648
11
0.226352
21
0.56789
0
LINE
8
BLACK
6
CONTINUOUS
10
0.226352
20
0.56789
11
0.219581
21
0.563366
0
LINE
8
BLACK
6
CONTINUOUS
10
0.219581
20
0.563366
11
0.212058
21
0.56025
0
LINE
8
BLACK
6
CONTINUOUS
10
0.212058
20
0.56025
11
0.204071
21
0.558661
0
LINE
8
BLACK
6
CONTINUOUS
10
0.204071
20
0.558661
11
0.195929
21
0.558661
0
LINE
8
BLACK
6
CONTINUOUS
10
0.195929
20
0.558661
11
0.187942
21
0.56025
0
LINE
8
BLACK
6
CONTINUOUS
10
0.187942
20
0.56025
11
0.180419
21
0.563366
0
LINE
8
BLACK
6
CONTINUOUS
10
0.180419
20
0.563366
11
0.173648
21
0.56789
0
LINE
8
BLACK
6
CONTINUOUS
10
0.173648
20
0.56789
11
0.16789
21
0.573648
0
LINE
8
BLACK
6
CONTINUOUS
10
0.16789
20
0.573648
11
0.163366
21
0.580419
0
LINE
8
BLACK
6
CONTINUOUS
10
0.163366
20
0.580419
11
0.16025
21
0.587942
0
LINE
8
BLACK
6
CONTINUOUS
10
0.16025
20
0.587942
11
0.158661
21
0.595929
0
LINE
8
BLACK
6
CONTINUOUS
10
0.158661
20
0.595929
11
0.158661
21
0.604071
0
LINE
8
BLACK
6
CONTINUOUS
10
0.158661
20
0.604071
11
0.16025
21
0.612058
0
LINE
8
BLACK
6
CONTINUOUS
10
0.16025
20
0.612058
11
0.163366
21
0.619581
0
LINE
8
BLACK
6
CONTINUOUS
10
0.163366
20
0.619581
11
0.16789
21
0.626352
0
LINE
8
BLACK
6
CONTINUOUS
10
0.16789
20
0.626352
11
0.173648
21
0.63211
0
LINE
8
BLACK
6
CONTINUOUS
10
0.173648
20
0.63211
11
0.180419
21
0.636634
0
LINE
8
BLACK
6
CONTINUOUS
10
0.180419
20
0.636634
11
0.187942
21
0.63975
0
LINE
8
BLACK
6
CONTINUOUS
10
0.187942
20
0.63975
11
0.195929
21
0.641339
0
LINE
8
BLACK
6
CONTINUOUS
10
0.195929
20
0.641339
11
0.204071
21
0.641339
0
LINE
8
BLACK
6
CONTINUOUS
10
0.204071
20
0.641339
11
0.212058
21
0.63975
0
LINE
8
BLACK
6
CONTINUOUS
10
0.112058
20
0.63975
11
0.119581
21
0.636634
0
LINE
8
BLACK
6
CONTINUOUS
10
0.119581
20
0.636634
11
0.126352
21
0.63211
0
LINE
8
BLACK
6
CONTINUOUS
10
0.126352
20
0.63211
11
0.13211
21
0.626352
0
LINE
8
BLACK
6
CONTINUOUS
10
0.13211
20
0.626352
11
0.136634
21
0.619581
0
LINE
8
BLACK
6
CONTINUOUS
10
0.136634
20
0.619581
11
0.13975
21
0.612058
0
LINE
8
BLACK
6
CONTINUOUS
10
0.13975
20
0.612058
11
0.141339
21
0.604071
0
LINE
8
BLACK
6
CONTINUOUS
10
0.141339
20
0.604071
11
0.141339
21
0.595929
0
LINE
8
BLACK
6
CONTINUOUS
10
0.141339
20
0.595929
11
0.13975
21
0.587942
0
LINE
8
BLACK
6
CONTINUOUS
10
0.13975
20
0.587942
11
0.136634
21
0.580419
0
LINE
8
BLACK
6
CONTINUOUS
10
0.136634
20
0.580419
11
0.13211
21
0.573648
0
LINE
8
BLACK
6
CONTINUOUS
10
0.13211
20
0.573648
11
0.126352
21
0.56789
0
LINE
8
BLACK
6
CONTINUOUS
10
0.126352
20
0.56789
11
0.119581
21
0.563366
0
LINE
8
BLACK
6
CONTINUOUS
10
0.119581
20
0.563366
11
0.112058
21
0.56025
0
LINE
8
BLACK
6
CONTINUOUS
10
0.112058
20
0.56025
11
0.104071
21
0.558661
0
LINE
8
BLACK
6
CONTINUOUS
10
0.104071
20
0.558661
11
0.0959285
21
0.558661
0
LINE
8
BLACK
6
CONTINUOUS
10
0.0959285
20
0.558661
11
0.087942
21
0.56025
0
LINE
8
BLACK
6
CONTINUOUS
10
0.087942
20
0.56025
11
0.0804188
21
0.563366
0
LINE
8
BLACK
6
CONTINUOUS
10
0.0804188
20
0.563366
11
0.0736482
21
0.56789
0
LINE
8
BLACK
6
CONTINUOUS
10
0.0736482
20
0.56789
11
0.0678902
21
0.573648
0
LINE
8
BLACK
6
CONTINUOUS
10
0.0678902
20
0.573648
11
0.0633662
21
0.580419
0
LINE
8
BLACK
6
CONTINUOUS
10
0.0633662
20
0.580419
11
0.06025
21
0.587942
0
LINE
8
BLACK
6
CONTINUOUS
10
0.06025
20
0.587942
11
0.0586614
21
0.595929
0
LINE
8
BLACK
6
CONTINUOUS
10
0.0586614
20
0.595929
11
0.0586614
21
0.604071
0
LINE
8
BLACK
6
CONTINUOUS
10
0.0586614
20
0.604071
11
0.06025
21
0.612058
0
LINE
8
BLACK
6
CONTINUOUS
10
0.06025
20
0.612058
11
0.0633662
21
0.619581
0
LINE
8
BLACK
6
CONTINUOUS
10
0.0633662
20
0.619581
11
0.0678902
21
0.626352
0
LINE
8
BLACK
6
CONTINUOUS
10
0.0678902
20
0.626352
11
0.0736482
21
0.63211
0
LINE
8
BLACK
6
CONTINUOUS
10
0.0736482
20
0.63211
11
0.0804188
21
0.636634
0
LINE
8
BLACK
6
CONTINUOUS
10
0.0804188
20
0.636634
11
0.087942
21
0.63975
0
LINE
8
BLACK
6
CONTINUOUS
10
0.087942
20
0.63975
11
0.0959285
21
0.641339
0
LINE
8
BLACK
6
CONTINUOUS
10
0.0959285
20
0.641339
11
0.104071
21
0.641339
0
LINE
8
BLACK
6
CONTINUOUS
10
0.104071
20
0.641339
11
0.112058
21
0.63975
0
LINE
8
BLACK
6
CONTINUOUS
10
0.012058
20
0.63975
11
0.0195812
21
0.636634
0
LINE
8
BLACK
6
CONTINUOUS
10
0.0195812
20
0.636634
11
0.0263518
21
0.63211
0
LINE
8
BLACK
6
CONTINUOUS
10
0.0263518
20
0.63211
11
0.0321098
21
0.626352
0
LINE
8
BLACK
6
CONTINUOUS
10
0.0321098
20
0.626352
11
0.0366338
21
0.619581
0
LINE
8
BLACK
6
CONTINUOUS
10
0.0366338
20
0.619581
11
0.03975
21
0.612058
0
LINE
8
BLACK
6
CONTINUOUS
10
0.03975
20
0.612058
11
0.0413386
21
0.604071
0
LINE
8
BLACK
6
CONTINUOUS
10
0.0413386
20
0.604071
11
0.0413386
21
0.595929
0
LINE
8
BLACK
6
CONTINUOUS
10
0.0413386
20
0.595929
11
0.03975
21
0.587942
0
LINE
8
BLACK
6
CONTINUOUS
10
0.03975
20
0.587942
11
0.0366338
21
0.580419
0
LINE
8
BLACK
6
CONTINUOUS
10
0.0366338
20
0.580419
11
0.0321098
21
0.573648
0
LINE
8
BLACK
6
CONTINUOUS
10
0.0321098
20
0.573648
11
0.0263518
21
0.56789
0
LINE
8
BLACK
6
CONTINUOUS
10
0.0263518
20
0.56789
11
0.0195812
21
0.563366
0
LINE
8
BLACK
6
CONTINUOUS
10
0.0195812
20
0.563366
11
0.012058
21
0.56025
0
LINE
8
BLACK
6
CONTINUOUS
10
0.012058
20
0.56025
11
0.0040715
21
0.558661
0
LINE
8
BLACK
6
CONTINUOUS
10
0.0040715
20
0.558661
11
-0.0040715
21
0.558661
0
LINE
8
BLACK
6
CONTINUOUS
10
-0.0040715
20
0.558661
11
-0.012058
21
0.56025
0
LINE
8
BLACK
6
CONTINUOUS
10
-0.012058
20
0.56025
11
-0.0195812
21
0.563366
0
LINE
8
BLACK
6
CONTINUOUS
10
-0.0195812
20
0.563366
11
-0.0263518
21
0.56789
0
LINE
8
BLACK
6
CONTINUOUS
10
-0.0263518
20
0.56789
11
-0.0321098
21
0.573648
0
LINE
8
BLACK
6
CONTINUOUS
10
-0.0321098
20
0.573648
11
-0.0366338
21
0.580419
0
LINE
8
BLACK
6
CONTINUOUS
10
-0.0366338
20
0.580419
11
-0.03975
21
0.587942
0
LINE
8
BLACK
6
CONTINUOUS
10
-0.03975
20
0.587942
11
-0.0413386
21
0.595929
0
LINE
8
BLACK
6
CONTINUOUS
10
-0.0413386
20
0.595929
11
-0.0413386
21
0.604071
0
LINE
8
BLACK
6
CONTINUOUS
10
-0.0413386
20
0.604071
11
-0.03975
21
0.612058
0
LINE
8
BLACK
6
CONTINUOUS
10
-0.03975
20
0.612058
11
-0.0366338
21
0.619581
0
LINE
8
BLACK
6
CONTINUOUS
10
-0.0366338
20
0.619581
11
-0.0321098
21
0.626352
0
LINE
8
BLACK
6
CONTINUOUS
10
-0.0321098
20
0.626352
11
-0.0263518
21
0.63211
0
LINE
8
BLACK
6
CONTINUOUS
10
-0.0263518
20
0.63211
11
-0.0195812
21
0.636634
0
LINE
8
BLACK
6
CONTINUOUS
10
-0.0195812
20
0.636634
11
-0.012058
21
0.63975
0
LINE
8
BLACK
6
CONTINUOUS
10
-0.012058
20
0.63975
11
-0.0040715
21
0.641339
0
LINE
8
BLACK
6
CONTINUOUS
10
-0.0040715
20
0.641339
11
0.0040715
21
0.641339
0
LINE
8
BLACK
6
CONTINUOUS
10
0.0040715
20
0.641339
11
0.012058
21
0.63975
0
LINE
8
BLACK
6
CONTINUOUS
10
0.912058
20
0.63975
11
0.919581
21
0.636634
0
LINE
8
BLACK
6
CONTINUOUS
10
0.919581
20
0.636634
11
0.926352
21
0.63211
0
LINE
8
BLACK
6
CONTINUOUS
10
0.926352
20
0.63211
11
0.93211
21
0.626352
0
LINE
8
BLACK
6
CONTINUOUS
10
0.93211
20
0.626352
11
0.936634
21
0.619581
0
LINE
8
BLACK
6
CONTINUOUS
10
0.936634
20
0.619581
11
0.93975
21
0.612058
0
LINE
8
BLACK
6
CONTINUOUS
10
0.93975
20
0.612058
11
0.941339
21
0.604071
0
LINE
8
BLACK
6
CONTINUOUS
10
0.941339
20
0.604071
11
0.941339
21
0.595929
0
LINE
8
BLACK
6
CONTINUOUS
10
0.941339
20
0.595929
11
0.93975
21
0.587942
0
LINE
8
BLACK
6
CONTINUOUS
10
0.93975
20
0.587942
11
0.936634
21
0.580419
0
LINE
8
BLACK
6
CONTINUOUS
10
0.936634
20
0.580419
11
0.93211
21
0.573648
0
LINE
8
BLACK
6
CONTINUOUS
10
0.93211
20
0.573648
11
0.926352
21
0.56789
0
LINE
8
BLACK
6
CONTINUOUS
10
0.926352
20
0.56789
11
0.919581
21
0.563366
0
LINE
8
BLACK
6
CONTINUOUS
10
0.919581
20
0.563366
11
0.912058
21
0.56025
0
LINE
8
BLACK
6
CONTINUOUS
10
0.912058
20
0.56025
11
0.904071
21
0.558661
0
LINE
8
BLACK
6
CONTINUOUS
10
0.904071
20
0.558661
11
0.895929
21
0.558661
0
LINE
8
BLACK
6
CONTINUOUS
10
0.895929
20
0.558661
11
0.887942
21
0.56025
0
LINE
8
BLACK
6
CONTINUOUS
10
0.887942
20
0.56025
11
0.880419
21
0.563366
0
LINE
8
BLACK
6
CONTINUOUS
10
0.880419
20
0.563366
11
0.873648
21
0.56789
0
LINE
8
BLACK
6
CONTINUOUS
10
0.873648
20
0.56789
11
0.86789
21
0.573648
0
LINE
8
BLACK
6
CONTINUOUS
10
0.86789
20
0.573648
11
0.863366
21
0.580419
0
LINE
8
BLACK
6
CONTINUOUS
10
0.863366
20
0.580419
11
0.86025
21
0.587942
0
LINE
8
BLACK
6
CONTINUOUS
10
0.86025
20
0.587942
11
0.858661
21
0.595929
0
LINE
8
BLACK
6
CONTINUOUS
10
0.858661
20
0.595929
11
0.858661
21
0.604071
0
LINE
8
BLACK
6
CONTINUOUS
10
0.858661
20
0.604071
11
0.86025
21
0.612058
0
LINE
8
BLACK
6
CONTINUOUS
10
0.86025
20
0.612058
11
0.863366
21
0.619581
0
LINE
8
BLACK
6
CONTINUOUS
10
0.863366
20
0.619581
11
0.86789
21
0.626352
0
LINE
8
BLACK
6
CONTINUOUS
10
0.86789
20
0.626352
11
0.873648
21
0.63211
0
LINE
8
BLACK
6
CONTINUOUS
10
0.873648
20
0.63211
11
0.880419
21
0.636634
0
LINE
8
BLACK
6
CONTINUOUS
10
0.880419
20
0.636634
11
0.887942
21
0.63975
0
LINE
8
BLACK
6
CONTINUOUS
10
0.887942
20
0.63975
11
0.895929
21
0.641339
0
LINE
8
BLACK
6
CONTINUOUS
10
0.895929
20
0.641339
11
0.904071
21
0.641339
0
LINE
8
BLACK
6
CONTINUOUS
10
0.904071
20
0.641339
11
0.912058
21
0.63975
0
LINE
8
BLACK
6
CONTINUOUS
10
1.01206
20
0.63975
11
1.01958
21
0.636634
0
LINE
8
BLACK
6
CONTINUOUS
10
1.01958
20
0.636634
11
1.02635
21
0.63211
0
LINE
8
BLACK
6
CONTINUOUS
10
1.02635
20
0.63211
11
1.03211
21
0.626352
0
LINE
8
BLACK
6
CONTINUOUS
10
1.03211
20
0.626352
11
1.03663
21
0.619581
0
LINE
8
BLACK
6
CONTINUOUS
10
1.03663
20
0.619581
11
1.03975
21
0.612058
0
LINE
8
BLACK
6
CONTINUOUS
10
1.03975
20
0.612058
11
1.04134
21
0.604071
0
LINE
8
BLACK
6
CONTINUOUS
10
1.04134
20
0.604071
11
1.04134
21
0.595929
0
LINE
8
BLACK
6
CONTINUOUS
10
1.04134
20
0.595929
11
1.03975
21
0.587942
0
LINE
8
BLACK
6
CONTINUOUS
10
1.03975
20
0.587942
11
1.03663
21
0.580419
0
LINE
8
BLACK
6
CONTINUOUS
10
1.03663
20
0.580419
11
1.03211
21
0.573648
0
LINE
8
BLACK
6
CONTINUOUS
10
1.03211
20
0.573648
11
1.02635
21
0.56789
0
LINE
8
BLACK
6
CONTINUOUS
10
1.02635
20
0.56789
11
1.01958
21
0.563366
0
LINE
8
BLACK
6
CONTINUOUS
10
1.01958
20
0.563366
11
1.01206
21
0.56025
0
LINE
8
BLACK
6
CONTINUOUS
10
1.01206
20
0.56025
11
1.00407
21
0.558661
0
LINE
8
BLACK
6
CONTINUOUS
10
1.00407
20
0.558661
11
0.995929
21
0.558661
0
LINE
8
BLACK
6
CONTINUOUS
10
0.995929
20
0.558661
11
0.987942
21
0.56025
0
LINE
8
BLACK
6
CONTINUOUS
10
0.987942
20
0.56025
11
0.980419
21
0.563366
0
LINE
8
BLACK
6
CONTINUOUS
10
0.980419
20
0.563366
11
0.973648
21
0.56789
0
LINE
8
BLACK
6
CONTINUOUS
10
0.973648
20
0.56789
11
0.96789
21
0.573648
0
LINE
8
BLACK
6
CONTINUOUS
10
0.96789
20
0.573648
11
0.963366
21
0.580419
0
LINE
8
BLACK
6
CONTINUOUS
10
0.963366
20
0.580419
11
0.96025
21
0.587942
0
LINE
8
BLACK
6
CONTINUOUS
10
0.96025
20
0.587942
11
0.958661
21
0.595929
0
LINE
8
BLACK
6
CONTINUOUS
10
0.958661
20
0.595929
11
0.958661
21
0.604071
0
LINE
8
BLACK
6
CONTINUOUS
10
0.958661
20
0.604071
11
0.96025
21
0.612058
0
LINE
8
BLACK
6
CONTINUOUS
10
0.96025
20
0.612058
11
0.963366
21
0.619581
0
LINE
8
BLACK
6
CONTINUOUS
10
0.963366
20
0.619581
11
0.96789
21
0.626352
0
LINE
8
BLACK
6
CONTINUOUS
10
0.96789
20
0.626352
11
0.973648
21
0.63211
0
LINE
8
BLACK
6
CONTINUOUS
10
0.973648
20
0.63211
11
0.980419
21
0.636634
0
LINE
8
BLACK
6
CONTINUOUS
10
0.980419
20
0.636634
11
0.987942
21
0.63975
0
LINE
8
BLACK
6
CONTINUOUS
10
0.987942
20
0.63975
11
0.995929
21
0.641339
0
LINE
8
BLACK
6
CONTINUOUS
10
0.995929
20
0.641339
11
1.00407
21
0.641339
0
LINE
8
BLACK
6
CONTINUOUS
10
1.00407
20
0.641339
11
1.01206
21
0.63975
0
LINE
8
BLACK
6
CONTINUOUS
10
1.11206
20
0.63975
11
1.11958
21
0.636634
0
LINE
8
BLACK
6
CONTINUOUS
10
1.11958
20
0.636634
11
1.12635
21
0.63211
0
LINE
8
BLACK
6
CONTINUOUS
10
1.12635
20
0.63211
11
1.13211
21
0.626352
0
LINE
8
BLACK
6
CONTINUOUS
10
1.13211
20
0.626352
11
1.13663
21
0.619581
0
LINE
8
BLACK
6
CONTINUOUS
10
1.13663
20
0.619581
11
1.13975
21
0.612058
0
LINE
8
BLACK
6
CONTINUOUS
10
1.13975
20
0.612058
11
1.14134
21
0.604071
0
LINE
8
BLACK
6
CONTINUOUS
10
1.14134
20
0.604071
11
1.14134
21
0.595929
0
LINE
8
BLACK
6
CONTINUOUS
10
1.14134
20
0.595929
11
1.13975
21
0.587942
0
LINE
8
BLACK
6
CONTINUOUS
10
1.13975
20
0.587942
11
1.13663
21
0.580419
0
LINE
8
BLACK
6
CONTINUOUS
10
1.13663
20
0.580419
11
1.13211
21
0.573648
0
LINE
8
BLACK
6
CONTINUOUS
10
1.13211
20
0.573648
11
1.12635
21
0.56789
0
LINE
8
BLACK
6
CONTINUOUS
10
1.12635
20
0.56789
11
1.11958
21
0.563366
0
LINE
8
BLACK
6
CONTINUOUS
10
1.11958
20
0.563366
11
1.11206
21
0.56025
0
LINE
8
BLACK
6
CONTINUOUS
10
1.11206
20
0.56025
11
1.10407
21
0.558661
0
LINE
8
BLACK
6
CONTINUOUS
10
1.10407
20
0.558661
11
1.09593
21
0.558661
0
LINE
8
BLACK
6
CONTINUOUS
10
1.09593
20
0.558661
11
1.08794
21
0.56025
0
LINE
8
BLACK
6
CONTINUOUS
10
1.08794
20
0.56025
11
1.08042
21
0.563366
0
LINE
8
BLACK
6
CONTINUOUS
10
1.08042
20
0.563366
11
1.07365
21
0.56789
0
LINE
8
BLACK
6
CONTINUOUS
10
1.07365
20
0.56789
11
1.06789
21
0.573648
0
LINE
8
BLACK
6
CONTINUOUS
10
1.06789
20
0.573648
11
1.06337
21
0.580419
0
LINE
8
BLACK
6
CONTINUOUS
10
1.06337
20
0.580419
11
1.06025
21
0.587942
0
LINE
8
BLACK
6
CONTINUOUS
10
1.06025
20
0.587942
11
1.05866
21
0.595929
0
LINE
8
BLACK
6
CONTINUOUS
10
1.05866
20
0.595929
11
1.05866
21
0.604071
0
LINE
8
BLACK
6
CONTINUOUS
10
1.05866
20
0.604071
11
1.06025
21
0.612058
0
LINE
8
BLACK
6
CONTINUOUS
10
1.06025
20
0.612058
11
1.06337
21
0.619581
0
LINE
8
BLACK
6
CONTINUOUS
10
1.06337
20
0.619581
11
1.06789
21
0.626352
0
LINE
8
BLACK
6
CONTINUOUS
10
1.06789
20
0.626352
11
1.07365
21
0.63211
0
LINE
8
BLACK
6
CONTINUOUS
10
1.07365
20
0.63211
11
1.08042
21
0.636634
0
LINE
8
BLACK
6
CONTINUOUS
10
1.08042
20
0.636634
11
1.08794
21
0.63975
0
LINE
8
BLACK
6
CONTINUOUS
10
1.08794
20
0.63975
11
1.09593
21
0.641339
0
LINE
8
BLACK
6
CONTINUOUS
10
1.09593
20
0.641339
11
1.10407
21
0.641339
0
LINE
8
BLACK
6
CONTINUOUS
10
1.10407
20
0.641339
11
1.11206
21
0.63975
  0
ENDSEC
  0
EOF
