  0
SECTION
  2
HEADER
  9
$ANGBASE
  50
0.0
  9
$ANGDIR
  70
1
  9
$MEASUREMENT
  70
0
  0
ENDSEC
  0
SECTION
  2
TABLES
  0
TABLE
  2
LTYPE
  70
4
  0
LTYPE
  5
40F
  2
CONTINUOUS
  70
0
  3
Solid line
  72
65
  73
0
  40
0.0
  0
LTYPE
  5
410
  2
DASHDOT
 70
0
  3
Dash Dot ____ _ ____ _
 72
65
 73
4
 40
2.0
 49
1.25
 49
-0.25
 49
0.25
 49
-0.25
  0
LTYPE
  5
411
  2
DASHED
 70
0
  3
Dashed __ __ __ __ __
 72
65
 73
2
 40
0.75
 49
0.5
 49
-0.25
  0
LTYPE
  5
43B
  2
DOTTED
 70
0
  3
Dotted .  .  .  .
 72
65
 73
2
 40
0.2
 49
0.0
 49
-0.2
  0
ENDTAB
  0
TABLE
  2
STYLE
  70
4
  0
STYLE
  2
KICAD
  70
0
  40
0
  41
1
  42
1
  50
0
  71
0
  3
isocp.shx
  0
STYLE
  2
KICADB
  70
0
  40
0
  41
1
  42
1
  50
0
  71
0
  3
isocp.shx
  0
STYLE
  2
KICADI
  70
0
  40
0
  41
1
  42
1
  50
15
  71
0
  3
isocp.shx
  0
STYLE
  2
KICADBI
  70
0
  40
0
  41
1
  42
1
  50
15
  71
0
  3
isocp.shx
  0
ENDTAB
  0
TABLE
  2
LAYER
  70
1
  0
LAYER
  2
BLACK
  70
0
  62
7
  6
CONTINUOUS
  0
ENDTAB
  0
ENDSEC
  0
SECTION
  2
ENTITIES
0
LINE
8
BLACK
6
CONTINUOUS
10
1.15989
20
0.660827
11
1.15989
21
0.660827
0
LINE
8
BLACK
6
CONTINUOUS
10
1.15989
20
0.660827
11
1.16004
21
0.660812
0
LINE
8
BLACK
6
CONTINUOUS
10
1.16004
20
0.660812
11
1.16022
21
0.660756
0
LINE
8
BLACK
6
CONTINUOUS
10
1.16022
20
0.660756
11
1.16039
21
0.660665
0
LINE
8
BLACK
6
CONTINUOUS
10
1.16039
20
0.660665
11
1.16054
21
0.660542
0
LINE
8
BLACK
6
CONTINUOUS
10
1.16054
20
0.660542
11
1.16066
21
0.660392
0
LINE
8
BLACK
6
CONTINUOUS
10
1.16066
20
0.660392
11
1.16076
21
0.660221
0
LINE
8
BLACK
6
CONTINUOUS
10
1.16076
20
0.660221
11
1.16081
21
0.660035
0
LINE
8
BLACK
6
CONTINUOUS
10
1.16081
20
0.660035
11
1.16083
21
0.659843
0
LINE
8
BLACK
6
CONTINUOUS
10
1.16083
20
0.659843
11
1.16083
21
0.659795
0
LINE
8
BLACK
6
CONTINUOUS
10
1.16083
20
0.659795
11
1.16083
21
0.338004
0
LINE
8
BLACK
6
CONTINUOUS
10
1.16083
20
0.338004
11
1.16523
21
0.327371
0
LINE
8
BLACK
6
CONTINUOUS
10
1.16523
20
0.327371
11
1.16884
21
0.309242
0
LINE
8
BLACK
6
CONTINUOUS
10
1.16884
20
0.309242
11
1.16884
21
0.290758
0
LINE
8
BLACK
6
CONTINUOUS
10
1.16884
20
0.290758
11
1.16523
21
0.272629
0
LINE
8
BLACK
6
CONTINUOUS
10
1.16523
20
0.272629
11
1.16083
21
0.261996
0
LINE
8
BLACK
6
CONTINUOUS
10
1.16083
20
0.261996
11
1.16083
21
-0.0597946
0
LINE
8
BLACK
6
CONTINUOUS
10
1.16083
20
-0.0597946
11
1.16083
21
-0.0598425
0
LINE
8
BLACK
6
CONTINUOUS
10
1.16083
20
-0.0598425
11
1.16083
21
-0.0598904
0
LINE
8
BLACK
6
CONTINUOUS
10
1.16083
20
-0.0598904
11
1.16083
21
-0.0598905
0
LINE
8
BLACK
6
CONTINUOUS
10
1.16083
20
-0.0598905
11
1.16081
21
-0.0600355
0
LINE
8
BLACK
6
CONTINUOUS
10
1.16081
20
-0.0600355
11
1.16076
21
-0.060221
0
LINE
8
BLACK
6
CONTINUOUS
10
1.16076
20
-0.060221
11
1.16066
21
-0.060392
0
LINE
8
BLACK
6
CONTINUOUS
10
1.16066
20
-0.060392
11
1.16054
21
-0.0605419
0
LINE
8
BLACK
6
CONTINUOUS
10
1.16054
20
-0.0605419
11
1.16039
21
-0.0606648
0
LINE
8
BLACK
6
CONTINUOUS
10
1.16039
20
-0.0606648
11
1.16022
21
-0.0607562
0
LINE
8
BLACK
6
CONTINUOUS
10
1.16022
20
-0.0607562
11
1.16004
21
-0.0608125
0
LINE
8
BLACK
6
CONTINUOUS
10
1.16004
20
-0.0608125
11
1.15984
21
-0.0608315
0
LINE
8
BLACK
6
CONTINUOUS
10
1.15984
20
-0.0608315
11
1.15979
21
-0.0608268
0
LINE
8
BLACK
6
CONTINUOUS
10
1.15979
20
-0.0608268
11
-0.159795
21
-0.0608268
0
LINE
8
BLACK
6
CONTINUOUS
10
-0.159795
20
-0.0608268
11
-0.159843
21
-0.0608315
0
LINE
8
BLACK
6
CONTINUOUS
10
-0.159843
20
-0.0608315
11
-0.160035
21
-0.0608125
0
LINE
8
BLACK
6
CONTINUOUS
10
-0.160035
20
-0.0608125
11
-0.160221
21
-0.0607562
0
LINE
8
BLACK
6
CONTINUOUS
10
-0.160221
20
-0.0607562
11
-0.160392
21
-0.0606648
0
LINE
8
BLACK
6
CONTINUOUS
10
-0.160392
20
-0.0606648
11
-0.160542
21
-0.0605419
0
LINE
8
BLACK
6
CONTINUOUS
10
-0.160542
20
-0.0605419
11
-0.160665
21
-0.060392
0
LINE
8
BLACK
6
CONTINUOUS
10
-0.160665
20
-0.060392
11
-0.160756
21
-0.060221
0
LINE
8
BLACK
6
CONTINUOUS
10
-0.160756
20
-0.060221
11
-0.160812
21
-0.0600355
0
LINE
8
BLACK
6
CONTINUOUS
10
-0.160812
20
-0.0600355
11
-0.160831
21
-0.0598425
0
LINE
8
BLACK
6
CONTINUOUS
10
-0.160831
20
-0.0598425
11
-0.160827
21
-0.0597946
0
LINE
8
BLACK
6
CONTINUOUS
10
-0.160827
20
-0.0597946
11
-0.160827
21
0.12185
0
LINE
8
BLACK
6
CONTINUOUS
10
-0.160827
20
0.12185
11
-0.452117
21
0.12185
0
LINE
8
BLACK
6
CONTINUOUS
10
-0.452117
20
0.12185
11
-0.452165
21
0.121846
0
LINE
8
BLACK
6
CONTINUOUS
10
-0.452165
20
0.121846
11
-0.452358
21
0.121865
0
LINE
8
BLACK
6
CONTINUOUS
10
-0.452358
20
0.121865
11
-0.452544
21
0.121921
0
LINE
8
BLACK
6
CONTINUOUS
10
-0.452544
20
0.121921
11
-0.452715
21
0.122012
0
LINE
8
BLACK
6
CONTINUOUS
10
-0.452715
20
0.122012
11
-0.452865
21
0.122135
0
LINE
8
BLACK
6
CONTINUOUS
10
-0.452865
20
0.122135
11
-0.452988
21
0.122285
0
LINE
8
BLACK
6
CONTINUOUS
10
-0.452988
20
0.122285
11
-0.453079
21
0.122456
0
LINE
8
BLACK
6
CONTINUOUS
10
-0.453079
20
0.122456
11
-0.453135
21
0.122642
0
LINE
8
BLACK
6
CONTINUOUS
10
-0.453135
20
0.122642
11
-0.453154
21
0.122835
0
LINE
8
BLACK
6
CONTINUOUS
10
-0.453154
20
0.122835
11
-0.45315
21
0.122883
0
LINE
8
BLACK
6
CONTINUOUS
10
-0.45315
20
0.122883
11
-0.45315
21
0.477117
0
LINE
8
BLACK
6
CONTINUOUS
10
-0.45315
20
0.477117
11
-0.453154
21
0.477165
0
LINE
8
BLACK
6
CONTINUOUS
10
-0.453154
20
0.477165
11
-0.453135
21
0.477358
0
LINE
8
BLACK
6
CONTINUOUS
10
-0.453135
20
0.477358
11
-0.453079
21
0.477544
0
LINE
8
BLACK
6
CONTINUOUS
10
-0.453079
20
0.477544
11
-0.452988
21
0.477715
0
LINE
8
BLACK
6
CONTINUOUS
10
-0.452988
20
0.477715
11
-0.452865
21
0.477865
0
LINE
8
BLACK
6
CONTINUOUS
10
-0.452865
20
0.477865
11
-0.452715
21
0.477988
0
LINE
8
BLACK
6
CONTINUOUS
10
-0.452715
20
0.477988
11
-0.452544
21
0.478079
0
LINE
8
BLACK
6
CONTINUOUS
10
-0.452544
20
0.478079
11
-0.452358
21
0.478135
0
LINE
8
BLACK
6
CONTINUOUS
10
-0.452358
20
0.478135
11
-0.452213
21
0.47815
0
LINE
8
BLACK
6
CONTINUOUS
10
-0.452213
20
0.47815
11
-0.452213
21
0.47815
0
LINE
8
BLACK
6
CONTINUOUS
10
-0.452213
20
0.47815
11
-0.452165
21
0.478154
0
LINE
8
BLACK
6
CONTINUOUS
10
-0.452165
20
0.478154
11
-0.452117
21
0.47815
0
LINE
8
BLACK
6
CONTINUOUS
10
-0.452117
20
0.47815
11
-0.160827
21
0.47815
0
LINE
8
BLACK
6
CONTINUOUS
10
-0.160827
20
0.47815
11
-0.160827
21
0.659794
0
LINE
8
BLACK
6
CONTINUOUS
10
-0.160827
20
0.659794
11
-0.160831
21
0.659843
0
LINE
8
BLACK
6
CONTINUOUS
10
-0.160831
20
0.659843
11
-0.160812
21
0.660035
0
LINE
8
BLACK
6
CONTINUOUS
10
-0.160812
20
0.660035
11
-0.160756
21
0.660221
0
LINE
8
BLACK
6
CONTINUOUS
10
-0.160756
20
0.660221
11
-0.160665
21
0.660392
0
LINE
8
BLACK
6
CONTINUOUS
10
-0.160665
20
0.660392
11
-0.160542
21
0.660542
0
LINE
8
BLACK
6
CONTINUOUS
10
-0.160542
20
0.660542
11
-0.160392
21
0.660665
0
LINE
8
BLACK
6
CONTINUOUS
10
-0.160392
20
0.660665
11
-0.160221
21
0.660756
0
LINE
8
BLACK
6
CONTINUOUS
10
-0.160221
20
0.660756
11
-0.160035
21
0.660812
0
LINE
8
BLACK
6
CONTINUOUS
10
-0.160035
20
0.660812
11
-0.15989
21
0.660827
0
LINE
8
BLACK
6
CONTINUOUS
10
-0.15989
20
0.660827
11
-0.15989
21
0.660827
0
LINE
8
BLACK
6
CONTINUOUS
10
-0.15989
20
0.660827
11
-0.159843
21
0.660831
0
LINE
8
BLACK
6
CONTINUOUS
10
-0.159843
20
0.660831
11
-0.159795
21
0.660827
0
LINE
8
BLACK
6
CONTINUOUS
10
-0.159795
20
0.660827
11
1.15979
21
0.660827
0
LINE
8
BLACK
6
CONTINUOUS
10
1.15979
20
0.660827
11
1.15984
21
0.660831
0
LINE
8
BLACK
6
CONTINUOUS
10
1.15984
20
0.660831
11
1.15989
21
0.660827
0
LINE
8
BLACK
6
CONTINUOUS
10
0.987406
20
0.273429
11
0.994273
21
0.256851
0
LINE
8
BLACK
6
CONTINUOUS
10
0.994273
20
0.256851
11
1.00424
21
0.241931
0
LINE
8
BLACK
6
CONTINUOUS
10
1.00424
20
0.241931
11
1.01693
21
0.229242
0
LINE
8
BLACK
6
CONTINUOUS
10
1.01693
20
0.229242
11
1.0298
21
0.220641
0
LINE
8
BLACK
6
CONTINUOUS
10
1.0298
20
0.220641
11
1.0298
21
0.239165
0
LINE
8
BLACK
6
CONTINUOUS
10
1.0298
20
0.239165
11
1.0298
21
0.239213
0
LINE
8
BLACK
6
CONTINUOUS
10
1.0298
20
0.239213
11
1.02982
21
0.239406
0
LINE
8
BLACK
6
CONTINUOUS
10
1.02982
20
0.239406
11
1.02987
21
0.239591
0
LINE
8
BLACK
6
CONTINUOUS
10
1.02987
20
0.239591
11
1.02997
21
0.239762
0
LINE
8
BLACK
6
CONTINUOUS
10
1.02997
20
0.239762
11
1.03009
21
0.239912
0
LINE
8
BLACK
6
CONTINUOUS
10
1.03009
20
0.239912
11
1.03024
21
0.240035
0
LINE
8
BLACK
6
CONTINUOUS
10
1.03024
20
0.240035
11
1.03041
21
0.240126
0
LINE
8
BLACK
6
CONTINUOUS
10
1.03041
20
0.240126
11
1.03059
21
0.240183
0
LINE
8
BLACK
6
CONTINUOUS
10
1.03059
20
0.240183
11
1.03074
21
0.240197
0
LINE
8
BLACK
6
CONTINUOUS
10
1.03074
20
0.240197
11
1.03079
21
0.240202
0
LINE
8
BLACK
6
CONTINUOUS
10
1.03079
20
0.240202
11
1.03084
21
0.240197
0
LINE
8
BLACK
6
CONTINUOUS
10
1.03084
20
0.240197
11
1.12916
21
0.240197
0
LINE
8
BLACK
6
CONTINUOUS
10
1.12916
20
0.240197
11
1.12921
21
0.240202
0
LINE
8
BLACK
6
CONTINUOUS
10
1.12921
20
0.240202
11
1.12926
21
0.240197
0
LINE
8
BLACK
6
CONTINUOUS
10
1.12926
20
0.240197
11
1.12941
21
0.240183
0
LINE
8
BLACK
6
CONTINUOUS
10
1.12941
20
0.240183
11
1.12959
21
0.240126
0
LINE
8
BLACK
6
CONTINUOUS
10
1.12959
20
0.240126
11
1.12976
21
0.240035
0
LINE
8
BLACK
6
CONTINUOUS
10
1.12976
20
0.240035
11
1.12991
21
0.239912
0
LINE
8
BLACK
6
CONTINUOUS
10
1.12991
20
0.239912
11
1.13003
21
0.239762
0
LINE
8
BLACK
6
CONTINUOUS
10
1.13003
20
0.239762
11
1.13013
21
0.239591
0
LINE
8
BLACK
6
CONTINUOUS
10
1.13013
20
0.239591
11
1.13018
21
0.239406
0
LINE
8
BLACK
6
CONTINUOUS
10
1.13018
20
0.239406
11
1.1302
21
0.239213
0
LINE
8
BLACK
6
CONTINUOUS
10
1.1302
20
0.239213
11
1.1302
21
0.239165
0
LINE
8
BLACK
6
CONTINUOUS
10
1.1302
20
0.239165
11
1.1302
21
0.227323
0
LINE
8
BLACK
6
CONTINUOUS
10
1.1302
20
0.227323
11
1.13307
21
0.229242
0
LINE
8
BLACK
6
CONTINUOUS
10
1.13307
20
0.229242
11
1.14576
21
0.241931
0
LINE
8
BLACK
6
CONTINUOUS
10
1.14576
20
0.241931
11
1.15573
21
0.256851
0
LINE
8
BLACK
6
CONTINUOUS
10
1.15573
20
0.256851
11
1.15886
21
0.26441
0
LINE
8
BLACK
6
CONTINUOUS
10
1.15886
20
0.26441
11
1.15886
21
0.33559
0
LINE
8
BLACK
6
CONTINUOUS
10
1.15886
20
0.33559
11
1.15573
21
0.343149
0
LINE
8
BLACK
6
CONTINUOUS
10
1.15573
20
0.343149
11
1.14576
21
0.358069
0
LINE
8
BLACK
6
CONTINUOUS
10
1.14576
20
0.358069
11
1.13307
21
0.370758
0
LINE
8
BLACK
6
CONTINUOUS
10
1.13307
20
0.370758
11
1.1252
21
0.376018
0
LINE
8
BLACK
6
CONTINUOUS
10
1.1252
20
0.376018
11
1.1252
21
0.375835
0
LINE
8
BLACK
6
CONTINUOUS
10
1.1252
20
0.375835
11
1.1252
21
0.375787
0
LINE
8
BLACK
6
CONTINUOUS
10
1.1252
20
0.375787
11
1.1252
21
0.375739
0
LINE
8
BLACK
6
CONTINUOUS
10
1.1252
20
0.375739
11
1.1252
21
0.375739
0
LINE
8
BLACK
6
CONTINUOUS
10
1.1252
20
0.375739
11
1.12518
21
0.375594
0
LINE
8
BLACK
6
CONTINUOUS
10
1.12518
20
0.375594
11
1.12513
21
0.375409
0
LINE
8
BLACK
6
CONTINUOUS
10
1.12513
20
0.375409
11
1.12503
21
0.375238
0
LINE
8
BLACK
6
CONTINUOUS
10
1.12503
20
0.375238
11
1.12491
21
0.375088
0
LINE
8
BLACK
6
CONTINUOUS
10
1.12491
20
0.375088
11
1.12476
21
0.374965
0
LINE
8
BLACK
6
CONTINUOUS
10
1.12476
20
0.374965
11
1.12459
21
0.374874
0
LINE
8
BLACK
6
CONTINUOUS
10
1.12459
20
0.374874
11
1.12441
21
0.374817
0
LINE
8
BLACK
6
CONTINUOUS
10
1.12441
20
0.374817
11
1.12421
21
0.374798
0
LINE
8
BLACK
6
CONTINUOUS
10
1.12421
20
0.374798
11
1.12416
21
0.374803
0
LINE
8
BLACK
6
CONTINUOUS
10
1.12416
20
0.374803
11
1.02584
21
0.374803
0
LINE
8
BLACK
6
CONTINUOUS
10
1.02584
20
0.374803
11
1.02579
21
0.374798
0
LINE
8
BLACK
6
CONTINUOUS
10
1.02579
20
0.374798
11
1.02559
21
0.374817
0
LINE
8
BLACK
6
CONTINUOUS
10
1.02559
20
0.374817
11
1.02541
21
0.374874
0
LINE
8
BLACK
6
CONTINUOUS
10
1.02541
20
0.374874
11
1.02524
21
0.374965
0
LINE
8
BLACK
6
CONTINUOUS
10
1.02524
20
0.374965
11
1.02509
21
0.375088
0
LINE
8
BLACK
6
CONTINUOUS
10
1.02509
20
0.375088
11
1.02497
21
0.375238
0
LINE
8
BLACK
6
CONTINUOUS
10
1.02497
20
0.375238
11
1.02487
21
0.375409
0
LINE
8
BLACK
6
CONTINUOUS
10
1.02487
20
0.375409
11
1.02482
21
0.375594
0
LINE
8
BLACK
6
CONTINUOUS
10
1.02482
20
0.375594
11
1.0248
21
0.375787
0
LINE
8
BLACK
6
CONTINUOUS
10
1.0248
20
0.375787
11
1.0248
21
0.375835
0
LINE
8
BLACK
6
CONTINUOUS
10
1.0248
20
0.375835
11
1.0248
21
0.376018
0
LINE
8
BLACK
6
CONTINUOUS
10
1.0248
20
0.376018
11
1.01693
21
0.370758
0
LINE
8
BLACK
6
CONTINUOUS
10
1.01693
20
0.370758
11
1.00424
21
0.358069
0
LINE
8
BLACK
6
CONTINUOUS
10
1.00424
20
0.358069
11
0.994273
21
0.343149
0
LINE
8
BLACK
6
CONTINUOUS
10
0.994273
20
0.343149
11
0.987406
21
0.326571
0
LINE
8
BLACK
6
CONTINUOUS
10
0.987406
20
0.326571
11
0.983905
21
0.308972
0
LINE
8
BLACK
6
CONTINUOUS
10
0.983905
20
0.308972
11
0.983905
21
0.291028
0
LINE
8
BLACK
6
CONTINUOUS
10
0.983905
20
0.291028
11
0.987406
21
0.273429
0
LINE
8
BLACK
6
CONTINUOUS
10
0.128346
20
0.148228
11
0.128346
21
0.142568
0
LINE
8
BLACK
6
CONTINUOUS
10
0.128346
20
0.142568
11
0.128351
21
0.14252
0
LINE
8
BLACK
6
CONTINUOUS
10
0.128351
20
0.14252
11
0.128346
21
0.142472
0
LINE
8
BLACK
6
CONTINUOUS
10
0.128346
20
0.142472
11
0.128332
21
0.142327
0
LINE
8
BLACK
6
CONTINUOUS
10
0.128332
20
0.142327
11
0.128276
21
0.142141
0
LINE
8
BLACK
6
CONTINUOUS
10
0.128276
20
0.142141
11
0.128185
21
0.14197
0
LINE
8
BLACK
6
CONTINUOUS
10
0.128185
20
0.14197
11
0.128062
21
0.14182
0
LINE
8
BLACK
6
CONTINUOUS
10
0.128062
20
0.14182
11
0.127912
21
0.141697
0
LINE
8
BLACK
6
CONTINUOUS
10
0.127912
20
0.141697
11
0.127741
21
0.141606
0
LINE
8
BLACK
6
CONTINUOUS
10
0.127741
20
0.141606
11
0.127555
21
0.14155
0
LINE
8
BLACK
6
CONTINUOUS
10
0.127555
20
0.14155
11
0.127362
21
0.141531
0
LINE
8
BLACK
6
CONTINUOUS
10
0.127362
20
0.141531
11
0.127314
21
0.141535
0
LINE
8
BLACK
6
CONTINUOUS
10
0.127314
20
0.141535
11
0.116024
21
0.141535
0
LINE
8
BLACK
6
CONTINUOUS
10
0.116024
20
0.141535
11
0.116024
21
0.0517717
0
LINE
8
BLACK
6
CONTINUOUS
10
0.116024
20
0.0517717
11
0.243976
21
0.0517717
0
LINE
8
BLACK
6
CONTINUOUS
10
0.243976
20
0.0517717
11
0.243976
21
0.0667323
0
LINE
8
BLACK
6
CONTINUOUS
10
0.243976
20
0.0667323
11
0.241387
21
0.0667323
0
LINE
8
BLACK
6
CONTINUOUS
10
0.241387
20
0.0667323
11
0.241339
21
0.0667276
0
LINE
8
BLACK
6
CONTINUOUS
10
0.241339
20
0.0667276
11
0.241291
21
0.0667323
0
LINE
8
BLACK
6
CONTINUOUS
10
0.241291
20
0.0667323
11
0.241291
21
0.0667323
0
LINE
8
BLACK
6
CONTINUOUS
10
0.241291
20
0.0667323
11
0.241146
21
0.0667466
0
LINE
8
BLACK
6
CONTINUOUS
10
0.241146
20
0.0667466
11
0.24096
21
0.0668028
0
LINE
8
BLACK
6
CONTINUOUS
10
0.24096
20
0.0668028
11
0.240789
21
0.0668942
0
LINE
8
BLACK
6
CONTINUOUS
10
0.240789
20
0.0668942
11
0.240639
21
0.0670172
0
LINE
8
BLACK
6
CONTINUOUS
10
0.240639
20
0.0670172
11
0.240516
21
0.0671671
0
LINE
8
BLACK
6
CONTINUOUS
10
0.240516
20
0.0671671
11
0.240425
21
0.0673381
0
LINE
8
BLACK
6
CONTINUOUS
10
0.240425
20
0.0673381
11
0.240369
21
0.0675236
0
LINE
8
BLACK
6
CONTINUOUS
10
0.240369
20
0.0675236
11
0.24035
21
0.0677165
0
LINE
8
BLACK
6
CONTINUOUS
10
0.24035
20
0.0677165
11
0.240354
21
0.0677649
0
LINE
8
BLACK
6
CONTINUOUS
10
0.240354
20
0.0677649
11
0.240354
21
0.148228
0
LINE
8
BLACK
6
CONTINUOUS
10
0.240354
20
0.148228
11
0.128346
21
0.148228
0
LINE
8
BLACK
6
CONTINUOUS
10
-0.0439764
20
0.141535
11
-0.0439764
21
0.0517717
0
LINE
8
BLACK
6
CONTINUOUS
10
-0.0439764
20
0.0517717
11
0.0839764
21
0.0517717
0
LINE
8
BLACK
6
CONTINUOUS
10
0.0839764
20
0.0517717
11
0.0839764
21
0.141535
0
LINE
8
BLACK
6
CONTINUOUS
10
0.0839764
20
0.141535
11
-0.0439764
21
0.141535
0
LINE
8
BLACK
6
CONTINUOUS
10
0.659646
20
0.188976
11
0.659646
21
0.0677645
0
LINE
8
BLACK
6
CONTINUOUS
10
0.659646
20
0.0677645
11
0.65965
21
0.0677165
0
LINE
8
BLACK
6
CONTINUOUS
10
0.65965
20
0.0677165
11
0.659646
21
0.0676686
0
LINE
8
BLACK
6
CONTINUOUS
10
0.659646
20
0.0676686
11
0.659631
21
0.0675236
0
LINE
8
BLACK
6
CONTINUOUS
10
0.659631
20
0.0675236
11
0.659575
21
0.0673381
0
LINE
8
BLACK
6
CONTINUOUS
10
0.659575
20
0.0673381
11
0.659484
21
0.0671671
0
LINE
8
BLACK
6
CONTINUOUS
10
0.659484
20
0.0671671
11
0.659361
21
0.0670172
0
LINE
8
BLACK
6
CONTINUOUS
10
0.659361
20
0.0670172
11
0.659211
21
0.0668942
0
LINE
8
BLACK
6
CONTINUOUS
10
0.659211
20
0.0668942
11
0.65904
21
0.0668028
0
LINE
8
BLACK
6
CONTINUOUS
10
0.65904
20
0.0668028
11
0.658854
21
0.0667466
0
LINE
8
BLACK
6
CONTINUOUS
10
0.658854
20
0.0667466
11
0.658661
21
0.0667276
0
LINE
8
BLACK
6
CONTINUOUS
10
0.658661
20
0.0667276
11
0.658614
21
0.0667323
0
LINE
8
BLACK
6
CONTINUOUS
10
0.658614
20
0.0667323
11
0.656772
21
0.0667323
0
LINE
8
BLACK
6
CONTINUOUS
10
0.656772
20
0.0667323
11
0.656772
21
0.0610236
0
LINE
8
BLACK
6
CONTINUOUS
10
0.656772
20
0.0610236
11
0.753228
21
0.0610236
0
LINE
8
BLACK
6
CONTINUOUS
10
0.753228
20
0.0610236
11
0.753228
21
0.188976
0
LINE
8
BLACK
6
CONTINUOUS
10
0.753228
20
0.188976
11
0.659646
21
0.188976
0
LINE
8
BLACK
6
CONTINUOUS
10
0.242323
20
0.148228
11
0.242323
21
0.0687008
0
LINE
8
BLACK
6
CONTINUOUS
10
0.242323
20
0.0687008
11
0.243976
21
0.0687008
0
LINE
8
BLACK
6
CONTINUOUS
10
0.243976
20
0.0687008
11
0.243976
21
0.148228
0
LINE
8
BLACK
6
CONTINUOUS
10
0.243976
20
0.148228
11
0.242323
21
0.148228
0
LINE
8
BLACK
6
CONTINUOUS
10
0.242323
20
0.531299
11
0.242323
21
0.444252
0
LINE
8
BLACK
6
CONTINUOUS
10
0.242323
20
0.444252
11
0.243692
21
0.444252
0
LINE
8
BLACK
6
CONTINUOUS
10
0.243692
20
0.444252
11
0.24374
21
0.444257
0
LINE
8
BLACK
6
CONTINUOUS
10
0.24374
20
0.444257
11
0.243788
21
0.444252
0
LINE
8
BLACK
6
CONTINUOUS
10
0.243788
20
0.444252
11
0.243788
21
0.444252
0
LINE
8
BLACK
6
CONTINUOUS
10
0.243788
20
0.444252
11
0.243933
21
0.444238
0
LINE
8
BLACK
6
CONTINUOUS
10
0.243933
20
0.444238
11
0.244119
21
0.444181
0
LINE
8
BLACK
6
CONTINUOUS
10
0.244119
20
0.444181
11
0.24429
21
0.44409
0
LINE
8
BLACK
6
CONTINUOUS
10
0.24429
20
0.44409
11
0.244439
21
0.443967
0
LINE
8
BLACK
6
CONTINUOUS
10
0.244439
20
0.443967
11
0.244562
21
0.443817
0
LINE
8
BLACK
6
CONTINUOUS
10
0.244562
20
0.443817
11
0.244654
21
0.443646
0
LINE
8
BLACK
6
CONTINUOUS
10
0.244654
20
0.443646
11
0.24471
21
0.443461
0
LINE
8
BLACK
6
CONTINUOUS
10
0.24471
20
0.443461
11
0.244729
21
0.443268
0
LINE
8
BLACK
6
CONTINUOUS
10
0.244729
20
0.443268
11
0.244724
21
0.44322
0
LINE
8
BLACK
6
CONTINUOUS
10
0.244724
20
0.44322
11
0.244724
21
0.32678
0
LINE
8
BLACK
6
CONTINUOUS
10
0.244724
20
0.32678
11
0.244729
21
0.326732
0
LINE
8
BLACK
6
CONTINUOUS
10
0.244729
20
0.326732
11
0.244724
21
0.326684
0
LINE
8
BLACK
6
CONTINUOUS
10
0.244724
20
0.326684
11
0.244724
21
0.326684
0
LINE
8
BLACK
6
CONTINUOUS
10
0.244724
20
0.326684
11
0.24471
21
0.326539
0
LINE
8
BLACK
6
CONTINUOUS
10
0.24471
20
0.326539
11
0.244654
21
0.326354
0
LINE
8
BLACK
6
CONTINUOUS
10
0.244654
20
0.326354
11
0.244562
21
0.326183
0
LINE
8
BLACK
6
CONTINUOUS
10
0.244562
20
0.326183
11
0.244439
21
0.326033
0
LINE
8
BLACK
6
CONTINUOUS
10
0.244439
20
0.326033
11
0.24429
21
0.32591
0
LINE
8
BLACK
6
CONTINUOUS
10
0.24429
20
0.32591
11
0.244119
21
0.325819
0
LINE
8
BLACK
6
CONTINUOUS
10
0.244119
20
0.325819
11
0.243933
21
0.325762
0
LINE
8
BLACK
6
CONTINUOUS
10
0.243933
20
0.325762
11
0.24374
21
0.325743
0
LINE
8
BLACK
6
CONTINUOUS
10
0.24374
20
0.325743
11
0.243692
21
0.325748
0
LINE
8
BLACK
6
CONTINUOUS
10
0.243692
20
0.325748
11
0.242323
21
0.325748
0
LINE
8
BLACK
6
CONTINUOUS
10
0.242323
20
0.325748
11
0.242323
21
0.150197
0
LINE
8
BLACK
6
CONTINUOUS
10
0.242323
20
0.150197
11
0.244913
21
0.150197
0
LINE
8
BLACK
6
CONTINUOUS
10
0.244913
20
0.150197
11
0.244961
21
0.150202
0
LINE
8
BLACK
6
CONTINUOUS
10
0.244961
20
0.150202
11
0.245009
21
0.150197
0
LINE
8
BLACK
6
CONTINUOUS
10
0.245009
20
0.150197
11
0.245154
21
0.150183
0
LINE
8
BLACK
6
CONTINUOUS
10
0.245154
20
0.150183
11
0.245339
21
0.150126
0
LINE
8
BLACK
6
CONTINUOUS
10
0.245339
20
0.150126
11
0.24551
21
0.150035
0
LINE
8
BLACK
6
CONTINUOUS
10
0.24551
20
0.150035
11
0.24566
21
0.149912
0
LINE
8
BLACK
6
CONTINUOUS
10
0.24566
20
0.149912
11
0.245783
21
0.149762
0
LINE
8
BLACK
6
CONTINUOUS
10
0.245783
20
0.149762
11
0.245874
21
0.149591
0
LINE
8
BLACK
6
CONTINUOUS
10
0.245874
20
0.149591
11
0.245931
21
0.149406
0
LINE
8
BLACK
6
CONTINUOUS
10
0.245931
20
0.149406
11
0.24595
21
0.149213
0
LINE
8
BLACK
6
CONTINUOUS
10
0.24595
20
0.149213
11
0.245945
21
0.149165
0
LINE
8
BLACK
6
CONTINUOUS
10
0.245945
20
0.149165
11
0.245945
21
0.0687008
0
LINE
8
BLACK
6
CONTINUOUS
10
0.245945
20
0.0687008
11
0.654803
21
0.0687008
0
LINE
8
BLACK
6
CONTINUOUS
10
0.654803
20
0.0687008
11
0.654803
21
0.189912
0
LINE
8
BLACK
6
CONTINUOUS
10
0.654803
20
0.189912
11
0.654798
21
0.189961
0
LINE
8
BLACK
6
CONTINUOUS
10
0.654798
20
0.189961
11
0.654817
21
0.190154
0
LINE
8
BLACK
6
CONTINUOUS
10
0.654817
20
0.190154
11
0.654874
21
0.190339
0
LINE
8
BLACK
6
CONTINUOUS
10
0.654874
20
0.190339
11
0.654965
21
0.19051
0
LINE
8
BLACK
6
CONTINUOUS
10
0.654965
20
0.19051
11
0.655088
21
0.19066
0
LINE
8
BLACK
6
CONTINUOUS
10
0.655088
20
0.19066
11
0.655238
21
0.190783
0
LINE
8
BLACK
6
CONTINUOUS
10
0.655238
20
0.190783
11
0.655409
21
0.190874
0
LINE
8
BLACK
6
CONTINUOUS
10
0.655409
20
0.190874
11
0.655594
21
0.190931
0
LINE
8
BLACK
6
CONTINUOUS
10
0.655594
20
0.190931
11
0.655739
21
0.190945
0
LINE
8
BLACK
6
CONTINUOUS
10
0.655739
20
0.190945
11
0.655739
21
0.190945
0
LINE
8
BLACK
6
CONTINUOUS
10
0.655739
20
0.190945
11
0.655787
21
0.19095
0
LINE
8
BLACK
6
CONTINUOUS
10
0.655787
20
0.19095
11
0.655835
21
0.190945
0
LINE
8
BLACK
6
CONTINUOUS
10
0.655835
20
0.190945
11
0.657677
21
0.190945
0
LINE
8
BLACK
6
CONTINUOUS
10
0.657677
20
0.190945
11
0.657677
21
0.531299
0
LINE
8
BLACK
6
CONTINUOUS
10
0.657677
20
0.531299
11
0.242323
21
0.531299
0
LINE
8
BLACK
6
CONTINUOUS
10
0.656772
20
0.188976
11
0.656772
21
0.0687008
0
LINE
8
BLACK
6
CONTINUOUS
10
0.656772
20
0.0687008
11
0.657677
21
0.0687008
0
LINE
8
BLACK
6
CONTINUOUS
10
0.657677
20
0.0687008
11
0.657677
21
0.188976
0
LINE
8
BLACK
6
CONTINUOUS
10
0.657677
20
0.188976
11
0.656772
21
0.188976
0
LINE
8
BLACK
6
CONTINUOUS
10
-0.451181
20
0.476181
11
-0.451181
21
0.123819
0
LINE
8
BLACK
6
CONTINUOUS
10
-0.451181
20
0.123819
11
-0.160827
21
0.123819
0
LINE
8
BLACK
6
CONTINUOUS
10
-0.160827
20
0.123819
11
-0.160827
21
0.476181
0
LINE
8
BLACK
6
CONTINUOUS
10
-0.160827
20
0.476181
11
-0.451181
21
0.476181
0
LINE
8
BLACK
6
CONTINUOUS
10
-0.158858
20
0.476181
11
-0.158858
21
0.123819
0
LINE
8
BLACK
6
CONTINUOUS
10
-0.158858
20
0.123819
11
-0.0940945
21
0.123819
0
LINE
8
BLACK
6
CONTINUOUS
10
-0.0940945
20
0.123819
11
-0.0940944
21
0.142471
0
LINE
8
BLACK
6
CONTINUOUS
10
-0.0940944
20
0.142471
11
-0.0940992
21
0.14252
0
LINE
8
BLACK
6
CONTINUOUS
10
-0.0940992
20
0.14252
11
-0.0940802
21
0.142713
0
LINE
8
BLACK
6
CONTINUOUS
10
-0.0940802
20
0.142713
11
-0.0940239
21
0.142898
0
LINE
8
BLACK
6
CONTINUOUS
10
-0.0940239
20
0.142898
11
-0.0939326
21
0.143069
0
LINE
8
BLACK
6
CONTINUOUS
10
-0.0939326
20
0.143069
11
-0.0938096
21
0.143219
0
LINE
8
BLACK
6
CONTINUOUS
10
-0.0938096
20
0.143219
11
-0.0936597
21
0.143342
0
LINE
8
BLACK
6
CONTINUOUS
10
-0.0936597
20
0.143342
11
-0.0934887
21
0.143433
0
LINE
8
BLACK
6
CONTINUOUS
10
-0.0934887
20
0.143433
11
-0.0933032
21
0.14349
0
LINE
8
BLACK
6
CONTINUOUS
10
-0.0933032
20
0.14349
11
-0.0931582
21
0.143504
0
LINE
8
BLACK
6
CONTINUOUS
10
-0.0931582
20
0.143504
11
-0.0931581
21
0.143504
0
LINE
8
BLACK
6
CONTINUOUS
10
-0.0931581
20
0.143504
11
-0.0931102
21
0.143509
0
LINE
8
BLACK
6
CONTINUOUS
10
-0.0931102
20
0.143509
11
-0.0930623
21
0.143504
0
LINE
8
BLACK
6
CONTINUOUS
10
-0.0930623
20
0.143504
11
-0.0459449
21
0.143504
0
LINE
8
BLACK
6
CONTINUOUS
10
-0.0459449
20
0.143504
11
-0.0459449
21
0.149165
0
LINE
8
BLACK
6
CONTINUOUS
10
-0.0459449
20
0.149165
11
-0.0459496
21
0.149213
0
LINE
8
BLACK
6
CONTINUOUS
10
-0.0459496
20
0.149213
11
-0.0459306
21
0.149406
0
LINE
8
BLACK
6
CONTINUOUS
10
-0.0459306
20
0.149406
11
-0.0458743
21
0.149591
0
LINE
8
BLACK
6
CONTINUOUS
10
-0.0458743
20
0.149591
11
-0.045783
21
0.149762
0
LINE
8
BLACK
6
CONTINUOUS
10
-0.045783
20
0.149762
11
-0.04566
21
0.149912
0
LINE
8
BLACK
6
CONTINUOUS
10
-0.04566
20
0.149912
11
-0.0455101
21
0.150035
0
LINE
8
BLACK
6
CONTINUOUS
10
-0.0455101
20
0.150035
11
-0.0453391
21
0.150126
0
LINE
8
BLACK
6
CONTINUOUS
10
-0.0453391
20
0.150126
11
-0.0451536
21
0.150183
0
LINE
8
BLACK
6
CONTINUOUS
10
-0.0451536
20
0.150183
11
-0.0450086
21
0.150197
0
LINE
8
BLACK
6
CONTINUOUS
10
-0.0450086
20
0.150197
11
-0.0449606
21
0.150202
0
LINE
8
BLACK
6
CONTINUOUS
10
-0.0449606
20
0.150202
11
-0.0449127
21
0.150197
0
LINE
8
BLACK
6
CONTINUOUS
10
-0.0449127
20
0.150197
11
0.0849127
21
0.150197
0
LINE
8
BLACK
6
CONTINUOUS
10
0.0849127
20
0.150197
11
0.0849606
21
0.150202
0
LINE
8
BLACK
6
CONTINUOUS
10
0.0849606
20
0.150202
11
0.0850086
21
0.150197
0
LINE
8
BLACK
6
CONTINUOUS
10
0.0850086
20
0.150197
11
0.0851536
21
0.150183
0
LINE
8
BLACK
6
CONTINUOUS
10
0.0851536
20
0.150183
11
0.0853391
21
0.150126
0
LINE
8
BLACK
6
CONTINUOUS
10
0.0853391
20
0.150126
11
0.0855101
21
0.150035
0
LINE
8
BLACK
6
CONTINUOUS
10
0.0855101
20
0.150035
11
0.08566
21
0.149912
0
LINE
8
BLACK
6
CONTINUOUS
10
0.08566
20
0.149912
11
0.085783
21
0.149762
0
LINE
8
BLACK
6
CONTINUOUS
10
0.085783
20
0.149762
11
0.0858743
21
0.149591
0
LINE
8
BLACK
6
CONTINUOUS
10
0.0858743
20
0.149591
11
0.0859306
21
0.149406
0
LINE
8
BLACK
6
CONTINUOUS
10
0.0859306
20
0.149406
11
0.0859496
21
0.149213
0
LINE
8
BLACK
6
CONTINUOUS
10
0.0859496
20
0.149213
11
0.0859449
21
0.149165
0
LINE
8
BLACK
6
CONTINUOUS
10
0.0859449
20
0.149165
11
0.0859449
21
0.143504
0
LINE
8
BLACK
6
CONTINUOUS
10
0.0859449
20
0.143504
11
0.114055
21
0.143504
0
LINE
8
BLACK
6
CONTINUOUS
10
0.114055
20
0.143504
11
0.114055
21
0.149165
0
LINE
8
BLACK
6
CONTINUOUS
10
0.114055
20
0.149165
11
0.11405
21
0.149213
0
LINE
8
BLACK
6
CONTINUOUS
10
0.11405
20
0.149213
11
0.114069
21
0.149406
0
LINE
8
BLACK
6
CONTINUOUS
10
0.114069
20
0.149406
11
0.114126
21
0.149591
0
LINE
8
BLACK
6
CONTINUOUS
10
0.114126
20
0.149591
11
0.114217
21
0.149762
0
LINE
8
BLACK
6
CONTINUOUS
10
0.114217
20
0.149762
11
0.11434
21
0.149912
0
LINE
8
BLACK
6
CONTINUOUS
10
0.11434
20
0.149912
11
0.11449
21
0.150035
0
LINE
8
BLACK
6
CONTINUOUS
10
0.11449
20
0.150035
11
0.114661
21
0.150126
0
LINE
8
BLACK
6
CONTINUOUS
10
0.114661
20
0.150126
11
0.114846
21
0.150183
0
LINE
8
BLACK
6
CONTINUOUS
10
0.114846
20
0.150183
11
0.114991
21
0.150197
0
LINE
8
BLACK
6
CONTINUOUS
10
0.114991
20
0.150197
11
0.115039
21
0.150202
0
LINE
8
BLACK
6
CONTINUOUS
10
0.115039
20
0.150202
11
0.115087
21
0.150197
0
LINE
8
BLACK
6
CONTINUOUS
10
0.115087
20
0.150197
11
0.126378
21
0.150197
0
LINE
8
BLACK
6
CONTINUOUS
10
0.126378
20
0.150197
11
0.126378
21
0.155748
0
LINE
8
BLACK
6
CONTINUOUS
10
0.126378
20
0.155748
11
0.126308
21
0.155748
0
LINE
8
BLACK
6
CONTINUOUS
10
0.126308
20
0.155748
11
0.12626
21
0.155743
0
LINE
8
BLACK
6
CONTINUOUS
10
0.12626
20
0.155743
11
0.126067
21
0.155762
0
LINE
8
BLACK
6
CONTINUOUS
10
0.126067
20
0.155762
11
0.125881
21
0.155819
0
LINE
8
BLACK
6
CONTINUOUS
10
0.125881
20
0.155819
11
0.12571
21
0.15591
0
LINE
8
BLACK
6
CONTINUOUS
10
0.12571
20
0.15591
11
0.125561
21
0.156033
0
LINE
8
BLACK
6
CONTINUOUS
10
0.125561
20
0.156033
11
0.125438
21
0.156183
0
LINE
8
BLACK
6
CONTINUOUS
10
0.125438
20
0.156183
11
0.125346
21
0.156354
0
LINE
8
BLACK
6
CONTINUOUS
10
0.125346
20
0.156354
11
0.12529
21
0.156539
0
LINE
8
BLACK
6
CONTINUOUS
10
0.12529
20
0.156539
11
0.125271
21
0.156732
0
LINE
8
BLACK
6
CONTINUOUS
10
0.125271
20
0.156732
11
0.125276
21
0.15678
0
LINE
8
BLACK
6
CONTINUOUS
10
0.125276
20
0.15678
11
0.125276
21
0.270276
0
LINE
8
BLACK
6
CONTINUOUS
10
0.125276
20
0.270276
11
0.12178
21
0.270276
0
LINE
8
BLACK
6
CONTINUOUS
10
0.12178
20
0.270276
11
0.121732
21
0.270271
0
LINE
8
BLACK
6
CONTINUOUS
10
0.121732
20
0.270271
11
0.121539
21
0.27029
0
LINE
8
BLACK
6
CONTINUOUS
10
0.121539
20
0.27029
11
0.121354
21
0.270346
0
LINE
8
BLACK
6
CONTINUOUS
10
0.121354
20
0.270346
11
0.121183
21
0.270438
0
LINE
8
BLACK
6
CONTINUOUS
10
0.121183
20
0.270438
11
0.121033
21
0.270561
0
LINE
8
BLACK
6
CONTINUOUS
10
0.121033
20
0.270561
11
0.12091
21
0.27071
0
LINE
8
BLACK
6
CONTINUOUS
10
0.12091
20
0.27071
11
0.120819
21
0.270881
0
LINE
8
BLACK
6
CONTINUOUS
10
0.120819
20
0.270881
11
0.120762
21
0.271067
0
LINE
8
BLACK
6
CONTINUOUS
10
0.120762
20
0.271067
11
0.120743
21
0.27126
0
LINE
8
BLACK
6
CONTINUOUS
10
0.120743
20
0.27126
11
0.120748
21
0.271308
0
LINE
8
BLACK
6
CONTINUOUS
10
0.120748
20
0.271308
11
0.120748
21
0.328692
0
LINE
8
BLACK
6
CONTINUOUS
10
0.120748
20
0.328692
11
0.120743
21
0.32874
0
LINE
8
BLACK
6
CONTINUOUS
10
0.120743
20
0.32874
11
0.120762
21
0.328933
0
LINE
8
BLACK
6
CONTINUOUS
10
0.120762
20
0.328933
11
0.120819
21
0.329119
0
LINE
8
BLACK
6
CONTINUOUS
10
0.120819
20
0.329119
11
0.12091
21
0.32929
0
LINE
8
BLACK
6
CONTINUOUS
10
0.12091
20
0.32929
11
0.121033
21
0.329439
0
LINE
8
BLACK
6
CONTINUOUS
10
0.121033
20
0.329439
11
0.121183
21
0.329562
0
LINE
8
BLACK
6
CONTINUOUS
10
0.121183
20
0.329562
11
0.121354
21
0.329654
0
LINE
8
BLACK
6
CONTINUOUS
10
0.121354
20
0.329654
11
0.121539
21
0.32971
0
LINE
8
BLACK
6
CONTINUOUS
10
0.121539
20
0.32971
11
0.121684
21
0.329724
0
LINE
8
BLACK
6
CONTINUOUS
10
0.121684
20
0.329724
11
0.121684
21
0.329724
0
LINE
8
BLACK
6
CONTINUOUS
10
0.121684
20
0.329724
11
0.121732
21
0.329729
0
LINE
8
BLACK
6
CONTINUOUS
10
0.121732
20
0.329729
11
0.12178
21
0.329724
0
LINE
8
BLACK
6
CONTINUOUS
10
0.12178
20
0.329724
11
0.125276
21
0.329724
0
LINE
8
BLACK
6
CONTINUOUS
10
0.125276
20
0.329724
11
0.125276
21
0.443219
0
LINE
8
BLACK
6
CONTINUOUS
10
0.125276
20
0.443219
11
0.125271
21
0.443268
0
LINE
8
BLACK
6
CONTINUOUS
10
0.125271
20
0.443268
11
0.12529
21
0.443461
0
LINE
8
BLACK
6
CONTINUOUS
10
0.12529
20
0.443461
11
0.125346
21
0.443646
0
LINE
8
BLACK
6
CONTINUOUS
10
0.125346
20
0.443646
11
0.125438
21
0.443817
0
LINE
8
BLACK
6
CONTINUOUS
10
0.125438
20
0.443817
11
0.125561
21
0.443967
0
LINE
8
BLACK
6
CONTINUOUS
10
0.125561
20
0.443967
11
0.12571
21
0.44409
0
LINE
8
BLACK
6
CONTINUOUS
10
0.12571
20
0.44409
11
0.125881
21
0.444181
0
LINE
8
BLACK
6
CONTINUOUS
10
0.125881
20
0.444181
11
0.126067
21
0.444238
0
LINE
8
BLACK
6
CONTINUOUS
10
0.126067
20
0.444238
11
0.126212
21
0.444252
0
LINE
8
BLACK
6
CONTINUOUS
10
0.126212
20
0.444252
11
0.126212
21
0.444252
0
LINE
8
BLACK
6
CONTINUOUS
10
0.126212
20
0.444252
11
0.12626
21
0.444257
0
LINE
8
BLACK
6
CONTINUOUS
10
0.12626
20
0.444257
11
0.126308
21
0.444252
0
LINE
8
BLACK
6
CONTINUOUS
10
0.126308
20
0.444252
11
0.126378
21
0.444252
0
LINE
8
BLACK
6
CONTINUOUS
10
0.126378
20
0.444252
11
0.126378
21
0.445276
0
LINE
8
BLACK
6
CONTINUOUS
10
0.126378
20
0.445276
11
0.122686
21
0.445276
0
LINE
8
BLACK
6
CONTINUOUS
10
0.122686
20
0.445276
11
0.122638
21
0.445271
0
LINE
8
BLACK
6
CONTINUOUS
10
0.122638
20
0.445271
11
0.122445
21
0.44529
0
LINE
8
BLACK
6
CONTINUOUS
10
0.122445
20
0.44529
11
0.122259
21
0.445346
0
LINE
8
BLACK
6
CONTINUOUS
10
0.122259
20
0.445346
11
0.122088
21
0.445438
0
LINE
8
BLACK
6
CONTINUOUS
10
0.122088
20
0.445438
11
0.121938
21
0.445561
0
LINE
8
BLACK
6
CONTINUOUS
10
0.121938
20
0.445561
11
0.121815
21
0.44571
0
LINE
8
BLACK
6
CONTINUOUS
10
0.121815
20
0.44571
11
0.121724
21
0.445881
0
LINE
8
BLACK
6
CONTINUOUS
10
0.121724
20
0.445881
11
0.121668
21
0.446067
0
LINE
8
BLACK
6
CONTINUOUS
10
0.121668
20
0.446067
11
0.121649
21
0.44626
0
LINE
8
BLACK
6
CONTINUOUS
10
0.121649
20
0.44626
11
0.121654
21
0.446308
0
LINE
8
BLACK
6
CONTINUOUS
10
0.121654
20
0.446308
11
0.121654
21
0.456496
0
LINE
8
BLACK
6
CONTINUOUS
10
0.121654
20
0.456496
11
-0.0930623
21
0.456496
0
LINE
8
BLACK
6
CONTINUOUS
10
-0.0930623
20
0.456496
11
-0.0931102
21
0.456491
0
LINE
8
BLACK
6
CONTINUOUS
10
-0.0931102
20
0.456491
11
-0.0931581
21
0.456496
0
LINE
8
BLACK
6
CONTINUOUS
10
-0.0931581
20
0.456496
11
-0.0931582
21
0.456496
0
LINE
8
BLACK
6
CONTINUOUS
10
-0.0931582
20
0.456496
11
-0.0933032
21
0.45651
0
LINE
8
BLACK
6
CONTINUOUS
10
-0.0933032
20
0.45651
11
-0.0934887
21
0.456567
0
LINE
8
BLACK
6
CONTINUOUS
10
-0.0934887
20
0.456567
11
-0.0936597
21
0.456658
0
LINE
8
BLACK
6
CONTINUOUS
10
-0.0936597
20
0.456658
11
-0.0938096
21
0.456781
0
LINE
8
BLACK
6
CONTINUOUS
10
-0.0938096
20
0.456781
11
-0.0939326
21
0.456931
0
LINE
8
BLACK
6
CONTINUOUS
10
-0.0939326
20
0.456931
11
-0.0940239
21
0.457102
0
LINE
8
BLACK
6
CONTINUOUS
10
-0.0940239
20
0.457102
11
-0.0940802
21
0.457287
0
LINE
8
BLACK
6
CONTINUOUS
10
-0.0940802
20
0.457287
11
-0.0940992
21
0.45748
0
LINE
8
BLACK
6
CONTINUOUS
10
-0.0940992
20
0.45748
11
-0.0940944
21
0.457529
0
LINE
8
BLACK
6
CONTINUOUS
10
-0.0940944
20
0.457529
11
-0.0940945
21
0.476181
0
LINE
8
BLACK
6
CONTINUOUS
10
-0.0940945
20
0.476181
11
-0.158858
21
0.476181
0
LINE
8
BLACK
6
CONTINUOUS
10
1.11945
20
0.216842
11
1.10237
21
0.209769
0
LINE
8
BLACK
6
CONTINUOUS
10
1.10237
20
0.209769
11
1.08424
21
0.206163
0
LINE
8
BLACK
6
CONTINUOUS
10
1.08424
20
0.206163
11
1.06576
21
0.206163
0
LINE
8
BLACK
6
CONTINUOUS
10
1.06576
20
0.206163
11
1.04763
21
0.209769
0
LINE
8
BLACK
6
CONTINUOUS
10
1.04763
20
0.209769
11
1.03177
21
0.216337
0
LINE
8
BLACK
6
CONTINUOUS
10
1.03177
20
0.216337
11
1.03177
21
0.141772
0
LINE
8
BLACK
6
CONTINUOUS
10
1.03177
20
0.141772
11
1.12823
21
0.141772
0
LINE
8
BLACK
6
CONTINUOUS
10
1.12823
20
0.141772
11
1.12823
21
0.222709
0
LINE
8
BLACK
6
CONTINUOUS
10
1.12823
20
0.222709
11
1.11945
21
0.216842
0
LINE
8
BLACK
6
CONTINUOUS
10
-0.0439764
20
0.148228
11
-0.0439764
21
0.143504
0
LINE
8
BLACK
6
CONTINUOUS
10
-0.0439764
20
0.143504
11
0.0839764
21
0.143504
0
LINE
8
BLACK
6
CONTINUOUS
10
0.0839764
20
0.143504
11
0.0839764
21
0.148228
0
LINE
8
BLACK
6
CONTINUOUS
10
0.0839764
20
0.148228
11
-0.0439764
21
0.148228
0
LINE
8
BLACK
6
CONTINUOUS
10
0.116024
20
0.148228
11
0.116024
21
0.143504
0
LINE
8
BLACK
6
CONTINUOUS
10
0.116024
20
0.143504
11
0.126378
21
0.143504
0
LINE
8
BLACK
6
CONTINUOUS
10
0.126378
20
0.143504
11
0.126378
21
0.148228
0
LINE
8
BLACK
6
CONTINUOUS
10
0.126378
20
0.148228
11
0.116024
21
0.148228
0
LINE
8
BLACK
6
CONTINUOUS
10
0.239252
20
0.325748
11
0.239252
21
0.27411
0
LINE
8
BLACK
6
CONTINUOUS
10
0.239252
20
0.27411
11
0.23929
21
0.27409
0
LINE
8
BLACK
6
CONTINUOUS
10
0.23929
20
0.27409
11
0.239439
21
0.273967
0
LINE
8
BLACK
6
CONTINUOUS
10
0.239439
20
0.273967
11
0.239562
21
0.273817
0
LINE
8
BLACK
6
CONTINUOUS
10
0.239562
20
0.273817
11
0.239654
21
0.273646
0
LINE
8
BLACK
6
CONTINUOUS
10
0.239654
20
0.273646
11
0.23971
21
0.273461
0
LINE
8
BLACK
6
CONTINUOUS
10
0.23971
20
0.273461
11
0.239729
21
0.273268
0
LINE
8
BLACK
6
CONTINUOUS
10
0.239729
20
0.273268
11
0.239724
21
0.27322
0
LINE
8
BLACK
6
CONTINUOUS
10
0.239724
20
0.27322
11
0.239724
21
0.15678
0
LINE
8
BLACK
6
CONTINUOUS
10
0.239724
20
0.15678
11
0.239729
21
0.156732
0
LINE
8
BLACK
6
CONTINUOUS
10
0.239729
20
0.156732
11
0.239724
21
0.156684
0
LINE
8
BLACK
6
CONTINUOUS
10
0.239724
20
0.156684
11
0.239724
21
0.156684
0
LINE
8
BLACK
6
CONTINUOUS
10
0.239724
20
0.156684
11
0.23971
21
0.156539
0
LINE
8
BLACK
6
CONTINUOUS
10
0.23971
20
0.156539
11
0.239654
21
0.156354
0
LINE
8
BLACK
6
CONTINUOUS
10
0.239654
20
0.156354
11
0.239562
21
0.156183
0
LINE
8
BLACK
6
CONTINUOUS
10
0.239562
20
0.156183
11
0.239439
21
0.156033
0
LINE
8
BLACK
6
CONTINUOUS
10
0.239439
20
0.156033
11
0.23929
21
0.15591
0
LINE
8
BLACK
6
CONTINUOUS
10
0.23929
20
0.15591
11
0.239119
21
0.155819
0
LINE
8
BLACK
6
CONTINUOUS
10
0.239119
20
0.155819
11
0.238933
21
0.155762
0
LINE
8
BLACK
6
CONTINUOUS
10
0.238933
20
0.155762
11
0.23874
21
0.155743
0
LINE
8
BLACK
6
CONTINUOUS
10
0.23874
20
0.155743
11
0.238692
21
0.155748
0
LINE
8
BLACK
6
CONTINUOUS
10
0.238692
20
0.155748
11
0.183788
21
0.155748
0
LINE
8
BLACK
6
CONTINUOUS
10
0.183788
20
0.155748
11
0.18374
21
0.155743
0
LINE
8
BLACK
6
CONTINUOUS
10
0.18374
20
0.155743
11
0.183692
21
0.155748
0
LINE
8
BLACK
6
CONTINUOUS
10
0.183692
20
0.155748
11
0.181308
21
0.155748
0
LINE
8
BLACK
6
CONTINUOUS
10
0.181308
20
0.155748
11
0.18126
21
0.155743
0
LINE
8
BLACK
6
CONTINUOUS
10
0.18126
20
0.155743
11
0.181212
21
0.155748
0
LINE
8
BLACK
6
CONTINUOUS
10
0.181212
20
0.155748
11
0.128346
21
0.155748
0
LINE
8
BLACK
6
CONTINUOUS
10
0.128346
20
0.155748
11
0.128346
21
0.150197
0
LINE
8
BLACK
6
CONTINUOUS
10
0.128346
20
0.150197
11
0.240354
21
0.150197
0
LINE
8
BLACK
6
CONTINUOUS
10
0.240354
20
0.150197
11
0.240354
21
0.325748
0
LINE
8
BLACK
6
CONTINUOUS
10
0.240354
20
0.325748
11
0.239252
21
0.325748
0
LINE
8
BLACK
6
CONTINUOUS
10
0.184724
20
0.270276
11
0.184724
21
0.157717
0
LINE
8
BLACK
6
CONTINUOUS
10
0.184724
20
0.157717
11
0.237756
21
0.157717
0
LINE
8
BLACK
6
CONTINUOUS
10
0.237756
20
0.157717
11
0.237756
21
0.270276
0
LINE
8
BLACK
6
CONTINUOUS
10
0.237756
20
0.270276
11
0.184724
21
0.270276
0
LINE
8
BLACK
6
CONTINUOUS
10
0.128346
20
0.270276
11
0.128346
21
0.157717
0
LINE
8
BLACK
6
CONTINUOUS
10
0.128346
20
0.157717
11
0.180276
21
0.157717
0
LINE
8
BLACK
6
CONTINUOUS
10
0.180276
20
0.157717
11
0.180276
21
0.270276
0
LINE
8
BLACK
6
CONTINUOUS
10
0.180276
20
0.270276
11
0.128346
21
0.270276
0
LINE
8
BLACK
6
CONTINUOUS
10
0.182244
20
0.270276
11
0.182244
21
0.157717
0
LINE
8
BLACK
6
CONTINUOUS
10
0.182244
20
0.157717
11
0.182756
21
0.157717
0
LINE
8
BLACK
6
CONTINUOUS
10
0.182756
20
0.157717
11
0.182756
21
0.270276
0
LINE
8
BLACK
6
CONTINUOUS
10
0.182756
20
0.270276
11
0.182244
21
0.270276
0
LINE
8
BLACK
6
CONTINUOUS
10
0.662717
20
0.247756
11
0.662717
21
0.192244
0
LINE
8
BLACK
6
CONTINUOUS
10
0.662717
20
0.192244
11
0.777284
21
0.192244
0
LINE
8
BLACK
6
CONTINUOUS
10
0.777284
20
0.192244
11
0.777283
21
0.247756
0
LINE
8
BLACK
6
CONTINUOUS
10
0.777283
20
0.247756
11
0.662717
21
0.247756
0
LINE
8
BLACK
6
CONTINUOUS
10
1.03177
20
0.238228
11
1.03177
21
0.219326
0
LINE
8
BLACK
6
CONTINUOUS
10
1.03177
20
0.219326
11
1.03185
21
0.219273
0
LINE
8
BLACK
6
CONTINUOUS
10
1.03185
20
0.219273
11
1.04843
21
0.212406
0
LINE
8
BLACK
6
CONTINUOUS
10
1.04843
20
0.212406
11
1.06603
21
0.208905
0
LINE
8
BLACK
6
CONTINUOUS
10
1.06603
20
0.208905
11
1.08397
21
0.208905
0
LINE
8
BLACK
6
CONTINUOUS
10
1.08397
20
0.208905
11
1.10157
21
0.212406
0
LINE
8
BLACK
6
CONTINUOUS
10
1.10157
20
0.212406
11
1.11815
21
0.219273
0
LINE
8
BLACK
6
CONTINUOUS
10
1.11815
20
0.219273
11
1.12823
21
0.226007
0
LINE
8
BLACK
6
CONTINUOUS
10
1.12823
20
0.226007
11
1.12823
21
0.238228
0
LINE
8
BLACK
6
CONTINUOUS
10
1.12823
20
0.238228
11
1.03177
21
0.238228
0
LINE
8
BLACK
6
CONTINUOUS
10
0.790276
20
0.379724
11
0.790276
21
0.220276
0
LINE
8
BLACK
6
CONTINUOUS
10
0.790276
20
0.220276
11
0.949724
21
0.220276
0
LINE
8
BLACK
6
CONTINUOUS
10
0.949724
20
0.220276
11
0.949724
21
0.379724
0
LINE
8
BLACK
6
CONTINUOUS
10
0.949724
20
0.379724
11
0.790276
21
0.379724
0
LINE
8
BLACK
6
CONTINUOUS
10
1.16083
20
0.269162
11
1.16259
21
0.273429
0
LINE
8
BLACK
6
CONTINUOUS
10
1.16259
20
0.273429
11
1.16609
21
0.291028
0
LINE
8
BLACK
6
CONTINUOUS
10
1.16609
20
0.291028
11
1.16609
21
0.308972
0
LINE
8
BLACK
6
CONTINUOUS
10
1.16609
20
0.308972
11
1.16259
21
0.326571
0
LINE
8
BLACK
6
CONTINUOUS
10
1.16259
20
0.326571
11
1.16083
21
0.330838
0
LINE
8
BLACK
6
CONTINUOUS
10
1.16083
20
0.330838
11
1.16083
21
0.269162
0
LINE
8
BLACK
6
CONTINUOUS
10
0.122717
20
0.327756
11
0.122717
21
0.272244
0
LINE
8
BLACK
6
CONTINUOUS
10
0.122717
20
0.272244
11
0.125276
21
0.272244
0
LINE
8
BLACK
6
CONTINUOUS
10
0.125276
20
0.272244
11
0.125276
21
0.273219
0
LINE
8
BLACK
6
CONTINUOUS
10
0.125276
20
0.273219
11
0.125271
21
0.273268
0
LINE
8
BLACK
6
CONTINUOUS
10
0.125271
20
0.273268
11
0.12529
21
0.273461
0
LINE
8
BLACK
6
CONTINUOUS
10
0.12529
20
0.273461
11
0.125346
21
0.273646
0
LINE
8
BLACK
6
CONTINUOUS
10
0.125346
20
0.273646
11
0.125438
21
0.273817
0
LINE
8
BLACK
6
CONTINUOUS
10
0.125438
20
0.273817
11
0.125561
21
0.273967
0
LINE
8
BLACK
6
CONTINUOUS
10
0.125561
20
0.273967
11
0.12571
21
0.27409
0
LINE
8
BLACK
6
CONTINUOUS
10
0.12571
20
0.27409
11
0.125881
21
0.274181
0
LINE
8
BLACK
6
CONTINUOUS
10
0.125881
20
0.274181
11
0.126067
21
0.274238
0
LINE
8
BLACK
6
CONTINUOUS
10
0.126067
20
0.274238
11
0.126212
21
0.274252
0
LINE
8
BLACK
6
CONTINUOUS
10
0.126212
20
0.274252
11
0.126212
21
0.274252
0
LINE
8
BLACK
6
CONTINUOUS
10
0.126212
20
0.274252
11
0.12626
21
0.274257
0
LINE
8
BLACK
6
CONTINUOUS
10
0.12626
20
0.274257
11
0.126308
21
0.274252
0
LINE
8
BLACK
6
CONTINUOUS
10
0.126308
20
0.274252
11
0.126378
21
0.274252
0
LINE
8
BLACK
6
CONTINUOUS
10
0.126378
20
0.274252
11
0.126378
21
0.325748
0
LINE
8
BLACK
6
CONTINUOUS
10
0.126378
20
0.325748
11
0.126308
21
0.325748
0
LINE
8
BLACK
6
CONTINUOUS
10
0.126308
20
0.325748
11
0.12626
21
0.325743
0
LINE
8
BLACK
6
CONTINUOUS
10
0.12626
20
0.325743
11
0.126067
21
0.325762
0
LINE
8
BLACK
6
CONTINUOUS
10
0.126067
20
0.325762
11
0.125881
21
0.325819
0
LINE
8
BLACK
6
CONTINUOUS
10
0.125881
20
0.325819
11
0.12571
21
0.32591
0
LINE
8
BLACK
6
CONTINUOUS
10
0.12571
20
0.32591
11
0.125561
21
0.326033
0
LINE
8
BLACK
6
CONTINUOUS
10
0.125561
20
0.326033
11
0.125438
21
0.326183
0
LINE
8
BLACK
6
CONTINUOUS
10
0.125438
20
0.326183
11
0.125346
21
0.326354
0
LINE
8
BLACK
6
CONTINUOUS
10
0.125346
20
0.326354
11
0.12529
21
0.326539
0
LINE
8
BLACK
6
CONTINUOUS
10
0.12529
20
0.326539
11
0.125271
21
0.326732
0
LINE
8
BLACK
6
CONTINUOUS
10
0.125271
20
0.326732
11
0.125276
21
0.32678
0
LINE
8
BLACK
6
CONTINUOUS
10
0.125276
20
0.32678
11
0.125276
21
0.327756
0
LINE
8
BLACK
6
CONTINUOUS
10
0.125276
20
0.327756
11
0.122717
21
0.327756
0
LINE
8
BLACK
6
CONTINUOUS
10
0.128346
20
0.272283
11
0.128346
21
0.272244
0
LINE
8
BLACK
6
CONTINUOUS
10
0.128346
20
0.272244
11
0.180276
21
0.272244
0
LINE
8
BLACK
6
CONTINUOUS
10
0.180276
20
0.272244
11
0.180276
21
0.272283
0
LINE
8
BLACK
6
CONTINUOUS
10
0.180276
20
0.272283
11
0.128346
21
0.272283
0
LINE
8
BLACK
6
CONTINUOUS
10
0.182244
20
0.272283
11
0.182244
21
0.272244
0
LINE
8
BLACK
6
CONTINUOUS
10
0.182244
20
0.272244
11
0.182756
21
0.272244
0
LINE
8
BLACK
6
CONTINUOUS
10
0.182756
20
0.272244
11
0.182756
21
0.272283
0
LINE
8
BLACK
6
CONTINUOUS
10
0.182756
20
0.272283
11
0.182244
21
0.272283
0
LINE
8
BLACK
6
CONTINUOUS
10
0.184724
20
0.272283
11
0.184724
21
0.272244
0
LINE
8
BLACK
6
CONTINUOUS
10
0.184724
20
0.272244
11
0.237284
21
0.272244
0
LINE
8
BLACK
6
CONTINUOUS
10
0.237284
20
0.272244
11
0.237284
21
0.272283
0
LINE
8
BLACK
6
CONTINUOUS
10
0.237284
20
0.272283
11
0.184724
21
0.272283
0
LINE
8
BLACK
6
CONTINUOUS
10
0.237283
20
0.325748
11
0.186308
21
0.325748
0
LINE
8
BLACK
6
CONTINUOUS
10
0.186308
20
0.325748
11
0.18626
21
0.325743
0
LINE
8
BLACK
6
CONTINUOUS
10
0.18626
20
0.325743
11
0.186067
21
0.325762
0
LINE
8
BLACK
6
CONTINUOUS
10
0.186067
20
0.325762
11
0.185881
21
0.325819
0
LINE
8
BLACK
6
CONTINUOUS
10
0.185881
20
0.325819
11
0.18571
21
0.32591
0
LINE
8
BLACK
6
CONTINUOUS
10
0.18571
20
0.32591
11
0.185561
21
0.326033
0
LINE
8
BLACK
6
CONTINUOUS
10
0.185561
20
0.326033
11
0.185438
21
0.326183
0
LINE
8
BLACK
6
CONTINUOUS
10
0.185438
20
0.326183
11
0.185346
21
0.326354
0
LINE
8
BLACK
6
CONTINUOUS
10
0.185346
20
0.326354
11
0.18529
21
0.326539
0
LINE
8
BLACK
6
CONTINUOUS
10
0.18529
20
0.326539
11
0.185271
21
0.326732
0
LINE
8
BLACK
6
CONTINUOUS
10
0.185271
20
0.326732
11
0.185276
21
0.32678
0
LINE
8
BLACK
6
CONTINUOUS
10
0.185276
20
0.32678
11
0.185276
21
0.327756
0
LINE
8
BLACK
6
CONTINUOUS
10
0.185276
20
0.327756
11
0.184724
21
0.327756
0
LINE
8
BLACK
6
CONTINUOUS
10
0.184724
20
0.327756
11
0.184724
21
0.32678
0
LINE
8
BLACK
6
CONTINUOUS
10
0.184724
20
0.32678
11
0.184729
21
0.326732
0
LINE
8
BLACK
6
CONTINUOUS
10
0.184729
20
0.326732
11
0.184724
21
0.326684
0
LINE
8
BLACK
6
CONTINUOUS
10
0.184724
20
0.326684
11
0.184724
21
0.326684
0
LINE
8
BLACK
6
CONTINUOUS
10
0.184724
20
0.326684
11
0.18471
21
0.326539
0
LINE
8
BLACK
6
CONTINUOUS
10
0.18471
20
0.326539
11
0.184654
21
0.326354
0
LINE
8
BLACK
6
CONTINUOUS
10
0.184654
20
0.326354
11
0.184562
21
0.326183
0
LINE
8
BLACK
6
CONTINUOUS
10
0.184562
20
0.326183
11
0.184439
21
0.326033
0
LINE
8
BLACK
6
CONTINUOUS
10
0.184439
20
0.326033
11
0.18429
21
0.32591
0
LINE
8
BLACK
6
CONTINUOUS
10
0.18429
20
0.32591
11
0.184119
21
0.325819
0
LINE
8
BLACK
6
CONTINUOUS
10
0.184119
20
0.325819
11
0.183933
21
0.325762
0
LINE
8
BLACK
6
CONTINUOUS
10
0.183933
20
0.325762
11
0.18374
21
0.325743
0
LINE
8
BLACK
6
CONTINUOUS
10
0.18374
20
0.325743
11
0.183692
21
0.325748
0
LINE
8
BLACK
6
CONTINUOUS
10
0.183692
20
0.325748
11
0.128346
21
0.325748
0
LINE
8
BLACK
6
CONTINUOUS
10
0.128346
20
0.325748
11
0.128346
21
0.274252
0
LINE
8
BLACK
6
CONTINUOUS
10
0.128346
20
0.274252
11
0.181212
21
0.274252
0
LINE
8
BLACK
6
CONTINUOUS
10
0.181212
20
0.274252
11
0.18126
21
0.274257
0
LINE
8
BLACK
6
CONTINUOUS
10
0.18126
20
0.274257
11
0.181308
21
0.274252
0
LINE
8
BLACK
6
CONTINUOUS
10
0.181308
20
0.274252
11
0.183692
21
0.274252
0
LINE
8
BLACK
6
CONTINUOUS
10
0.183692
20
0.274252
11
0.18374
21
0.274257
0
LINE
8
BLACK
6
CONTINUOUS
10
0.18374
20
0.274257
11
0.183788
21
0.274252
0
LINE
8
BLACK
6
CONTINUOUS
10
0.183788
20
0.274252
11
0.237284
21
0.274252
0
LINE
8
BLACK
6
CONTINUOUS
10
0.237284
20
0.274252
11
0.237283
21
0.325748
0
LINE
8
BLACK
6
CONTINUOUS
10
0.187244
20
0.327756
11
0.187244
21
0.327717
0
LINE
8
BLACK
6
CONTINUOUS
10
0.187244
20
0.327717
11
0.237283
21
0.327717
0
LINE
8
BLACK
6
CONTINUOUS
10
0.237283
20
0.327717
11
0.237283
21
0.327756
0
LINE
8
BLACK
6
CONTINUOUS
10
0.237283
20
0.327756
11
0.187244
21
0.327756
0
LINE
8
BLACK
6
CONTINUOUS
10
0.187244
20
0.442283
11
0.187244
21
0.329724
0
LINE
8
BLACK
6
CONTINUOUS
10
0.187244
20
0.329724
11
0.23822
21
0.329724
0
LINE
8
BLACK
6
CONTINUOUS
10
0.23822
20
0.329724
11
0.238268
21
0.329729
0
LINE
8
BLACK
6
CONTINUOUS
10
0.238268
20
0.329729
11
0.238316
21
0.329724
0
LINE
8
BLACK
6
CONTINUOUS
10
0.238316
20
0.329724
11
0.238316
21
0.329724
0
LINE
8
BLACK
6
CONTINUOUS
10
0.238316
20
0.329724
11
0.238461
21
0.32971
0
LINE
8
BLACK
6
CONTINUOUS
10
0.238461
20
0.32971
11
0.238646
21
0.329654
0
LINE
8
BLACK
6
CONTINUOUS
10
0.238646
20
0.329654
11
0.238817
21
0.329562
0
LINE
8
BLACK
6
CONTINUOUS
10
0.238817
20
0.329562
11
0.238967
21
0.329439
0
LINE
8
BLACK
6
CONTINUOUS
10
0.238967
20
0.329439
11
0.23909
21
0.32929
0
LINE
8
BLACK
6
CONTINUOUS
10
0.23909
20
0.32929
11
0.239181
21
0.329119
0
LINE
8
BLACK
6
CONTINUOUS
10
0.239181
20
0.329119
11
0.239238
21
0.328933
0
LINE
8
BLACK
6
CONTINUOUS
10
0.239238
20
0.328933
11
0.239257
21
0.32874
0
LINE
8
BLACK
6
CONTINUOUS
10
0.239257
20
0.32874
11
0.239252
21
0.328692
0
LINE
8
BLACK
6
CONTINUOUS
10
0.239252
20
0.328692
11
0.239252
21
0.327717
0
LINE
8
BLACK
6
CONTINUOUS
10
0.239252
20
0.327717
11
0.240354
21
0.327717
0
LINE
8
BLACK
6
CONTINUOUS
10
0.240354
20
0.327717
11
0.240354
21
0.442283
0
LINE
8
BLACK
6
CONTINUOUS
10
0.240354
20
0.442283
11
0.187244
21
0.442283
0
LINE
8
BLACK
6
CONTINUOUS
10
0.242323
20
0.442283
11
0.242323
21
0.327717
0
LINE
8
BLACK
6
CONTINUOUS
10
0.242323
20
0.327717
11
0.242756
21
0.327717
0
LINE
8
BLACK
6
CONTINUOUS
10
0.242756
20
0.327717
11
0.242756
21
0.442283
0
LINE
8
BLACK
6
CONTINUOUS
10
0.242756
20
0.442283
11
0.242323
21
0.442283
0
LINE
8
BLACK
6
CONTINUOUS
10
0.128346
20
0.327756
11
0.128346
21
0.327717
0
LINE
8
BLACK
6
CONTINUOUS
10
0.128346
20
0.327717
11
0.182756
21
0.327717
0
LINE
8
BLACK
6
CONTINUOUS
10
0.182756
20
0.327717
11
0.182756
21
0.327756
0
LINE
8
BLACK
6
CONTINUOUS
10
0.182756
20
0.327756
11
0.128346
21
0.327756
0
LINE
8
BLACK
6
CONTINUOUS
10
0.128346
20
0.442283
11
0.128346
21
0.329724
0
LINE
8
BLACK
6
CONTINUOUS
10
0.128346
20
0.329724
11
0.182756
21
0.329724
0
LINE
8
BLACK
6
CONTINUOUS
10
0.182756
20
0.329724
11
0.182756
21
0.442283
0
LINE
8
BLACK
6
CONTINUOUS
10
0.182756
20
0.442283
11
0.128346
21
0.442283
0
LINE
8
BLACK
6
CONTINUOUS
10
1.06603
20
0.391095
11
1.04843
21
0.387594
0
LINE
8
BLACK
6
CONTINUOUS
10
1.04843
20
0.387594
11
1.03185
21
0.380727
0
LINE
8
BLACK
6
CONTINUOUS
10
1.03185
20
0.380727
11
1.02677
21
0.377333
0
LINE
8
BLACK
6
CONTINUOUS
10
1.02677
20
0.377333
11
1.02677
21
0.376772
0
LINE
8
BLACK
6
CONTINUOUS
10
1.02677
20
0.376772
11
1.12323
21
0.376772
0
LINE
8
BLACK
6
CONTINUOUS
10
1.12323
20
0.376772
11
1.12323
21
0.377333
0
LINE
8
BLACK
6
CONTINUOUS
10
1.12323
20
0.377333
11
1.11815
21
0.380727
0
LINE
8
BLACK
6
CONTINUOUS
10
1.11815
20
0.380727
11
1.10157
21
0.387594
0
LINE
8
BLACK
6
CONTINUOUS
10
1.10157
20
0.387594
11
1.08397
21
0.391095
0
LINE
8
BLACK
6
CONTINUOUS
10
1.08397
20
0.391095
11
1.06603
21
0.391095
0
LINE
8
BLACK
6
CONTINUOUS
10
1.11594
20
0.473228
11
1.11594
21
0.460835
0
LINE
8
BLACK
6
CONTINUOUS
10
1.11594
20
0.460835
11
1.11595
21
0.460787
0
LINE
8
BLACK
6
CONTINUOUS
10
1.11595
20
0.460787
11
1.11593
21
0.460594
0
LINE
8
BLACK
6
CONTINUOUS
10
1.11593
20
0.460594
11
1.11587
21
0.460409
0
LINE
8
BLACK
6
CONTINUOUS
10
1.11587
20
0.460409
11
1.11578
21
0.460238
0
LINE
8
BLACK
6
CONTINUOUS
10
1.11578
20
0.460238
11
1.11566
21
0.460088
0
LINE
8
BLACK
6
CONTINUOUS
10
1.11566
20
0.460088
11
1.11551
21
0.459965
0
LINE
8
BLACK
6
CONTINUOUS
10
1.11551
20
0.459965
11
1.11534
21
0.459874
0
LINE
8
BLACK
6
CONTINUOUS
10
1.11534
20
0.459874
11
1.11515
21
0.459817
0
LINE
8
BLACK
6
CONTINUOUS
10
1.11515
20
0.459817
11
1.11501
21
0.459803
0
LINE
8
BLACK
6
CONTINUOUS
10
1.11501
20
0.459803
11
1.11501
21
0.459803
0
LINE
8
BLACK
6
CONTINUOUS
10
1.11501
20
0.459803
11
1.11496
21
0.459798
0
LINE
8
BLACK
6
CONTINUOUS
10
1.11496
20
0.459798
11
1.11491
21
0.459803
0
LINE
8
BLACK
6
CONTINUOUS
10
1.11491
20
0.459803
11
1.02677
21
0.459803
0
LINE
8
BLACK
6
CONTINUOUS
10
1.02677
20
0.459803
11
1.02677
21
0.380632
0
LINE
8
BLACK
6
CONTINUOUS
10
1.02677
20
0.380632
11
1.03055
21
0.383158
0
LINE
8
BLACK
6
CONTINUOUS
10
1.03055
20
0.383158
11
1.04763
21
0.390231
0
LINE
8
BLACK
6
CONTINUOUS
10
1.04763
20
0.390231
11
1.06576
21
0.393837
0
LINE
8
BLACK
6
CONTINUOUS
10
1.06576
20
0.393837
11
1.08424
21
0.393837
0
LINE
8
BLACK
6
CONTINUOUS
10
1.08424
20
0.393837
11
1.10237
21
0.390231
0
LINE
8
BLACK
6
CONTINUOUS
10
1.10237
20
0.390231
11
1.11945
21
0.383158
0
LINE
8
BLACK
6
CONTINUOUS
10
1.11945
20
0.383158
11
1.12323
21
0.380632
0
LINE
8
BLACK
6
CONTINUOUS
10
1.12323
20
0.380632
11
1.12323
21
0.473228
0
LINE
8
BLACK
6
CONTINUOUS
10
1.12323
20
0.473228
11
1.11594
21
0.473228
0
LINE
8
BLACK
6
CONTINUOUS
10
0.927244
20
0.497283
11
0.927244
21
0.382717
0
LINE
8
BLACK
6
CONTINUOUS
10
0.927244
20
0.382717
11
0.982756
21
0.382717
0
LINE
8
BLACK
6
CONTINUOUS
10
0.982756
20
0.382717
11
0.982756
21
0.497283
0
LINE
8
BLACK
6
CONTINUOUS
10
0.982756
20
0.497283
11
0.927244
21
0.497283
0
LINE
8
BLACK
6
CONTINUOUS
10
0.123622
20
0.456496
11
0.123622
21
0.447244
0
LINE
8
BLACK
6
CONTINUOUS
10
0.123622
20
0.447244
11
0.126378
21
0.447244
0
LINE
8
BLACK
6
CONTINUOUS
10
0.126378
20
0.447244
11
0.126378
21
0.456496
0
LINE
8
BLACK
6
CONTINUOUS
10
0.126378
20
0.456496
11
0.123622
21
0.456496
0
LINE
8
BLACK
6
CONTINUOUS
10
0.123622
20
0.502756
11
0.123622
21
0.458465
0
LINE
8
BLACK
6
CONTINUOUS
10
0.123622
20
0.458465
11
0.127314
21
0.458465
0
LINE
8
BLACK
6
CONTINUOUS
10
0.127314
20
0.458465
11
0.127362
21
0.458469
0
LINE
8
BLACK
6
CONTINUOUS
10
0.127362
20
0.458469
11
0.12741
21
0.458465
0
LINE
8
BLACK
6
CONTINUOUS
10
0.12741
20
0.458465
11
0.12741
21
0.458465
0
LINE
8
BLACK
6
CONTINUOUS
10
0.12741
20
0.458465
11
0.127555
21
0.45845
0
LINE
8
BLACK
6
CONTINUOUS
10
0.127555
20
0.45845
11
0.127741
21
0.458394
0
LINE
8
BLACK
6
CONTINUOUS
10
0.127741
20
0.458394
11
0.127912
21
0.458303
0
LINE
8
BLACK
6
CONTINUOUS
10
0.127912
20
0.458303
11
0.128062
21
0.45818
0
LINE
8
BLACK
6
CONTINUOUS
10
0.128062
20
0.45818
11
0.128185
21
0.45803
0
LINE
8
BLACK
6
CONTINUOUS
10
0.128185
20
0.45803
11
0.128276
21
0.457859
0
LINE
8
BLACK
6
CONTINUOUS
10
0.128276
20
0.457859
11
0.128332
21
0.457673
0
LINE
8
BLACK
6
CONTINUOUS
10
0.128332
20
0.457673
11
0.128351
21
0.45748
0
LINE
8
BLACK
6
CONTINUOUS
10
0.128351
20
0.45748
11
0.128346
21
0.457432
0
LINE
8
BLACK
6
CONTINUOUS
10
0.128346
20
0.457432
11
0.128346
21
0.447244
0
LINE
8
BLACK
6
CONTINUOUS
10
0.128346
20
0.447244
11
0.238189
21
0.447244
0
LINE
8
BLACK
6
CONTINUOUS
10
0.238189
20
0.447244
11
0.238189
21
0.502756
0
LINE
8
BLACK
6
CONTINUOUS
10
0.238189
20
0.502756
11
0.123622
21
0.502756
0
LINE
8
BLACK
6
CONTINUOUS
10
0.986024
20
0.558228
11
0.986024
21
0.461772
0
LINE
8
BLACK
6
CONTINUOUS
10
0.986024
20
0.461772
11
1.0248
21
0.461772
0
LINE
8
BLACK
6
CONTINUOUS
10
1.0248
20
0.461772
11
1.0248
21
0.474164
0
LINE
8
BLACK
6
CONTINUOUS
10
1.0248
20
0.474164
11
1.0248
21
0.474213
0
LINE
8
BLACK
6
CONTINUOUS
10
1.0248
20
0.474213
11
1.02482
21
0.474406
0
LINE
8
BLACK
6
CONTINUOUS
10
1.02482
20
0.474406
11
1.02487
21
0.474591
0
LINE
8
BLACK
6
CONTINUOUS
10
1.02487
20
0.474591
11
1.02497
21
0.474762
0
LINE
8
BLACK
6
CONTINUOUS
10
1.02497
20
0.474762
11
1.02509
21
0.474912
0
LINE
8
BLACK
6
CONTINUOUS
10
1.02509
20
0.474912
11
1.02524
21
0.475035
0
LINE
8
BLACK
6
CONTINUOUS
10
1.02524
20
0.475035
11
1.02541
21
0.475126
0
LINE
8
BLACK
6
CONTINUOUS
10
1.02541
20
0.475126
11
1.02559
21
0.475183
0
LINE
8
BLACK
6
CONTINUOUS
10
1.02559
20
0.475183
11
1.02574
21
0.475197
0
LINE
8
BLACK
6
CONTINUOUS
10
1.02574
20
0.475197
11
1.02574
21
0.475197
0
LINE
8
BLACK
6
CONTINUOUS
10
1.02574
20
0.475197
11
1.02579
21
0.475202
0
LINE
8
BLACK
6
CONTINUOUS
10
1.02579
20
0.475202
11
1.02584
21
0.475197
0
LINE
8
BLACK
6
CONTINUOUS
10
1.02584
20
0.475197
11
1.11398
21
0.475197
0
LINE
8
BLACK
6
CONTINUOUS
10
1.11398
20
0.475197
11
1.11398
21
0.558228
0
LINE
8
BLACK
6
CONTINUOUS
10
1.11398
20
0.558228
11
0.986024
21
0.558228
0
LINE
8
BLACK
6
CONTINUOUS
10
1.02677
20
0.473228
11
1.02677
21
0.461772
0
LINE
8
BLACK
6
CONTINUOUS
10
1.02677
20
0.461772
11
1.11398
21
0.461772
0
LINE
8
BLACK
6
CONTINUOUS
10
1.11398
20
0.461772
11
1.11398
21
0.473228
0
LINE
8
BLACK
6
CONTINUOUS
10
1.11398
20
0.473228
11
1.02677
21
0.473228
0
LINE
8
BLACK
6
CONTINUOUS
10
0.984769
20
0.327371
11
0.991842
21
0.344449
0
LINE
8
BLACK
6
CONTINUOUS
10
0.991842
20
0.344449
11
1.00211
21
0.359818
0
LINE
8
BLACK
6
CONTINUOUS
10
1.00211
20
0.359818
11
1.01518
21
0.372888
0
LINE
8
BLACK
6
CONTINUOUS
10
1.01518
20
0.372888
11
1.0248
21
0.379317
0
LINE
8
BLACK
6
CONTINUOUS
10
1.0248
20
0.379317
11
1.0248
21
0.459803
0
LINE
8
BLACK
6
CONTINUOUS
10
1.0248
20
0.459803
11
0.985087
21
0.459803
0
LINE
8
BLACK
6
CONTINUOUS
10
0.985087
20
0.459803
11
0.985039
21
0.459798
0
LINE
8
BLACK
6
CONTINUOUS
10
0.985039
20
0.459798
11
0.984991
21
0.459803
0
LINE
8
BLACK
6
CONTINUOUS
10
0.984991
20
0.459803
11
0.984991
21
0.459803
0
LINE
8
BLACK
6
CONTINUOUS
10
0.984991
20
0.459803
11
0.984846
21
0.459817
0
LINE
8
BLACK
6
CONTINUOUS
10
0.984846
20
0.459817
11
0.984724
21
0.459854
0
LINE
8
BLACK
6
CONTINUOUS
10
0.984724
20
0.459854
11
0.984724
21
0.38178
0
LINE
8
BLACK
6
CONTINUOUS
10
0.984724
20
0.38178
11
0.984729
21
0.381732
0
LINE
8
BLACK
6
CONTINUOUS
10
0.984729
20
0.381732
11
0.984724
21
0.381684
0
LINE
8
BLACK
6
CONTINUOUS
10
0.984724
20
0.381684
11
0.984724
21
0.381684
0
LINE
8
BLACK
6
CONTINUOUS
10
0.984724
20
0.381684
11
0.98471
21
0.381539
0
LINE
8
BLACK
6
CONTINUOUS
10
0.98471
20
0.381539
11
0.984654
21
0.381354
0
LINE
8
BLACK
6
CONTINUOUS
10
0.984654
20
0.381354
11
0.984562
21
0.381183
0
LINE
8
BLACK
6
CONTINUOUS
10
0.984562
20
0.381183
11
0.984439
21
0.381033
0
LINE
8
BLACK
6
CONTINUOUS
10
0.984439
20
0.381033
11
0.98429
21
0.38091
0
LINE
8
BLACK
6
CONTINUOUS
10
0.98429
20
0.38091
11
0.984119
21
0.380819
0
LINE
8
BLACK
6
CONTINUOUS
10
0.984119
20
0.380819
11
0.983933
21
0.380762
0
LINE
8
BLACK
6
CONTINUOUS
10
0.983933
20
0.380762
11
0.98374
21
0.380743
0
LINE
8
BLACK
6
CONTINUOUS
10
0.98374
20
0.380743
11
0.983692
21
0.380748
0
LINE
8
BLACK
6
CONTINUOUS
10
0.983692
20
0.380748
11
0.951694
21
0.380748
0
LINE
8
BLACK
6
CONTINUOUS
10
0.951694
20
0.380748
11
0.951698
21
0.380709
0
LINE
8
BLACK
6
CONTINUOUS
10
0.951698
20
0.380709
11
0.951693
21
0.380661
0
LINE
8
BLACK
6
CONTINUOUS
10
0.951693
20
0.380661
11
0.951693
21
0.219339
0
LINE
8
BLACK
6
CONTINUOUS
10
0.951693
20
0.219339
11
0.951698
21
0.219291
0
LINE
8
BLACK
6
CONTINUOUS
10
0.951698
20
0.219291
11
0.951693
21
0.219243
0
LINE
8
BLACK
6
CONTINUOUS
10
0.951693
20
0.219243
11
0.951693
21
0.219243
0
LINE
8
BLACK
6
CONTINUOUS
10
0.951693
20
0.219243
11
0.951679
21
0.219098
0
LINE
8
BLACK
6
CONTINUOUS
10
0.951679
20
0.219098
11
0.951622
21
0.218913
0
LINE
8
BLACK
6
CONTINUOUS
10
0.951622
20
0.218913
11
0.951531
21
0.218742
0
LINE
8
BLACK
6
CONTINUOUS
10
0.951531
20
0.218742
11
0.951408
21
0.218592
0
LINE
8
BLACK
6
CONTINUOUS
10
0.951408
20
0.218592
11
0.951258
21
0.218469
0
LINE
8
BLACK
6
CONTINUOUS
10
0.951258
20
0.218469
11
0.951087
21
0.218378
0
LINE
8
BLACK
6
CONTINUOUS
10
0.951087
20
0.218378
11
0.950902
21
0.218321
0
LINE
8
BLACK
6
CONTINUOUS
10
0.950902
20
0.218321
11
0.950709
21
0.218302
0
LINE
8
BLACK
6
CONTINUOUS
10
0.950709
20
0.218302
11
0.950661
21
0.218307
0
LINE
8
BLACK
6
CONTINUOUS
10
0.950661
20
0.218307
11
0.789339
21
0.218307
0
LINE
8
BLACK
6
CONTINUOUS
10
0.789339
20
0.218307
11
0.789291
21
0.218302
0
LINE
8
BLACK
6
CONTINUOUS
10
0.789291
20
0.218302
11
0.789098
21
0.218321
0
LINE
8
BLACK
6
CONTINUOUS
10
0.789098
20
0.218321
11
0.788913
21
0.218378
0
LINE
8
BLACK
6
CONTINUOUS
10
0.788913
20
0.218378
11
0.788742
21
0.218469
0
LINE
8
BLACK
6
CONTINUOUS
10
0.788742
20
0.218469
11
0.788592
21
0.218592
0
LINE
8
BLACK
6
CONTINUOUS
10
0.788592
20
0.218592
11
0.788469
21
0.218742
0
LINE
8
BLACK
6
CONTINUOUS
10
0.788469
20
0.218742
11
0.788378
21
0.218913
0
LINE
8
BLACK
6
CONTINUOUS
10
0.788378
20
0.218913
11
0.788321
21
0.219098
0
LINE
8
BLACK
6
CONTINUOUS
10
0.788321
20
0.219098
11
0.788302
21
0.219291
0
LINE
8
BLACK
6
CONTINUOUS
10
0.788302
20
0.219291
11
0.788307
21
0.219339
0
LINE
8
BLACK
6
CONTINUOUS
10
0.788307
20
0.219339
11
0.788307
21
0.38066
0
LINE
8
BLACK
6
CONTINUOUS
10
0.788307
20
0.38066
11
0.788302
21
0.380709
0
LINE
8
BLACK
6
CONTINUOUS
10
0.788302
20
0.380709
11
0.788321
21
0.380902
0
LINE
8
BLACK
6
CONTINUOUS
10
0.788321
20
0.380902
11
0.788378
21
0.381087
0
LINE
8
BLACK
6
CONTINUOUS
10
0.788378
20
0.381087
11
0.788469
21
0.381258
0
LINE
8
BLACK
6
CONTINUOUS
10
0.788469
20
0.381258
11
0.788592
21
0.381408
0
LINE
8
BLACK
6
CONTINUOUS
10
0.788592
20
0.381408
11
0.788742
21
0.381531
0
LINE
8
BLACK
6
CONTINUOUS
10
0.788742
20
0.381531
11
0.788913
21
0.381622
0
LINE
8
BLACK
6
CONTINUOUS
10
0.788913
20
0.381622
11
0.789098
21
0.381679
0
LINE
8
BLACK
6
CONTINUOUS
10
0.789098
20
0.381679
11
0.789243
21
0.381693
0
LINE
8
BLACK
6
CONTINUOUS
10
0.789243
20
0.381693
11
0.789243
21
0.381693
0
LINE
8
BLACK
6
CONTINUOUS
10
0.789243
20
0.381693
11
0.789291
21
0.381698
0
LINE
8
BLACK
6
CONTINUOUS
10
0.789291
20
0.381698
11
0.789339
21
0.381693
0
LINE
8
BLACK
6
CONTINUOUS
10
0.789339
20
0.381693
11
0.925275
21
0.381693
0
LINE
8
BLACK
6
CONTINUOUS
10
0.925275
20
0.381693
11
0.925271
21
0.381732
0
LINE
8
BLACK
6
CONTINUOUS
10
0.925271
20
0.381732
11
0.925276
21
0.38178
0
LINE
8
BLACK
6
CONTINUOUS
10
0.925276
20
0.38178
11
0.925276
21
0.498219
0
LINE
8
BLACK
6
CONTINUOUS
10
0.925276
20
0.498219
11
0.925271
21
0.498268
0
LINE
8
BLACK
6
CONTINUOUS
10
0.925271
20
0.498268
11
0.92529
21
0.498461
0
LINE
8
BLACK
6
CONTINUOUS
10
0.92529
20
0.498461
11
0.925346
21
0.498646
0
LINE
8
BLACK
6
CONTINUOUS
10
0.925346
20
0.498646
11
0.925438
21
0.498817
0
LINE
8
BLACK
6
CONTINUOUS
10
0.925438
20
0.498817
11
0.925561
21
0.498967
0
LINE
8
BLACK
6
CONTINUOUS
10
0.925561
20
0.498967
11
0.92571
21
0.49909
0
LINE
8
BLACK
6
CONTINUOUS
10
0.92571
20
0.49909
11
0.925881
21
0.499181
0
LINE
8
BLACK
6
CONTINUOUS
10
0.925881
20
0.499181
11
0.926067
21
0.499238
0
LINE
8
BLACK
6
CONTINUOUS
10
0.926067
20
0.499238
11
0.926212
21
0.499252
0
LINE
8
BLACK
6
CONTINUOUS
10
0.926212
20
0.499252
11
0.926212
21
0.499252
0
LINE
8
BLACK
6
CONTINUOUS
10
0.926212
20
0.499252
11
0.92626
21
0.499257
0
LINE
8
BLACK
6
CONTINUOUS
10
0.92626
20
0.499257
11
0.926308
21
0.499252
0
LINE
8
BLACK
6
CONTINUOUS
10
0.926308
20
0.499252
11
0.983692
21
0.499252
0
LINE
8
BLACK
6
CONTINUOUS
10
0.983692
20
0.499252
11
0.98374
21
0.499257
0
LINE
8
BLACK
6
CONTINUOUS
10
0.98374
20
0.499257
11
0.983788
21
0.499252
0
LINE
8
BLACK
6
CONTINUOUS
10
0.983788
20
0.499252
11
0.983788
21
0.499252
0
LINE
8
BLACK
6
CONTINUOUS
10
0.983788
20
0.499252
11
0.983933
21
0.499238
0
LINE
8
BLACK
6
CONTINUOUS
10
0.983933
20
0.499238
11
0.984055
21
0.499201
0
LINE
8
BLACK
6
CONTINUOUS
10
0.984055
20
0.499201
11
0.984055
21
0.559165
0
LINE
8
BLACK
6
CONTINUOUS
10
0.984055
20
0.559165
11
0.98405
21
0.559213
0
LINE
8
BLACK
6
CONTINUOUS
10
0.98405
20
0.559213
11
0.984069
21
0.559406
0
LINE
8
BLACK
6
CONTINUOUS
10
0.984069
20
0.559406
11
0.984126
21
0.559591
0
LINE
8
BLACK
6
CONTINUOUS
10
0.984126
20
0.559591
11
0.984217
21
0.559762
0
LINE
8
BLACK
6
CONTINUOUS
10
0.984217
20
0.559762
11
0.98434
21
0.559912
0
LINE
8
BLACK
6
CONTINUOUS
10
0.98434
20
0.559912
11
0.98449
21
0.560035
0
LINE
8
BLACK
6
CONTINUOUS
10
0.98449
20
0.560035
11
0.984661
21
0.560126
0
LINE
8
BLACK
6
CONTINUOUS
10
0.984661
20
0.560126
11
0.984846
21
0.560183
0
LINE
8
BLACK
6
CONTINUOUS
10
0.984846
20
0.560183
11
0.984991
21
0.560197
0
LINE
8
BLACK
6
CONTINUOUS
10
0.984991
20
0.560197
11
0.985039
21
0.560202
0
LINE
8
BLACK
6
CONTINUOUS
10
0.985039
20
0.560202
11
0.985087
21
0.560197
0
LINE
8
BLACK
6
CONTINUOUS
10
0.985087
20
0.560197
11
1.11491
21
0.560197
0
LINE
8
BLACK
6
CONTINUOUS
10
1.11491
20
0.560197
11
1.11496
21
0.560202
0
LINE
8
BLACK
6
CONTINUOUS
10
1.11496
20
0.560202
11
1.11501
21
0.560197
0
LINE
8
BLACK
6
CONTINUOUS
10
1.11501
20
0.560197
11
1.11515
21
0.560183
0
LINE
8
BLACK
6
CONTINUOUS
10
1.11515
20
0.560183
11
1.11534
21
0.560126
0
LINE
8
BLACK
6
CONTINUOUS
10
1.11534
20
0.560126
11
1.11551
21
0.560035
0
LINE
8
BLACK
6
CONTINUOUS
10
1.11551
20
0.560035
11
1.11566
21
0.559912
0
LINE
8
BLACK
6
CONTINUOUS
10
1.11566
20
0.559912
11
1.11578
21
0.559762
0
LINE
8
BLACK
6
CONTINUOUS
10
1.11578
20
0.559762
11
1.11587
21
0.559591
0
LINE
8
BLACK
6
CONTINUOUS
10
1.11587
20
0.559591
11
1.11593
21
0.559406
0
LINE
8
BLACK
6
CONTINUOUS
10
1.11593
20
0.559406
11
1.11595
21
0.559213
0
LINE
8
BLACK
6
CONTINUOUS
10
1.11595
20
0.559213
11
1.11594
21
0.559165
0
LINE
8
BLACK
6
CONTINUOUS
10
1.11594
20
0.559165
11
1.11594
21
0.475197
0
LINE
8
BLACK
6
CONTINUOUS
10
1.11594
20
0.475197
11
1.12416
21
0.475197
0
LINE
8
BLACK
6
CONTINUOUS
10
1.12416
20
0.475197
11
1.12421
21
0.475202
0
LINE
8
BLACK
6
CONTINUOUS
10
1.12421
20
0.475202
11
1.12426
21
0.475197
0
LINE
8
BLACK
6
CONTINUOUS
10
1.12426
20
0.475197
11
1.12426
21
0.475197
0
LINE
8
BLACK
6
CONTINUOUS
10
1.12426
20
0.475197
11
1.12441
21
0.475183
0
LINE
8
BLACK
6
CONTINUOUS
10
1.12441
20
0.475183
11
1.12459
21
0.475126
0
LINE
8
BLACK
6
CONTINUOUS
10
1.12459
20
0.475126
11
1.12476
21
0.475035
0
LINE
8
BLACK
6
CONTINUOUS
10
1.12476
20
0.475035
11
1.12491
21
0.474912
0
LINE
8
BLACK
6
CONTINUOUS
10
1.12491
20
0.474912
11
1.12503
21
0.474762
0
LINE
8
BLACK
6
CONTINUOUS
10
1.12503
20
0.474762
11
1.12513
21
0.474591
0
LINE
8
BLACK
6
CONTINUOUS
10
1.12513
20
0.474591
11
1.12518
21
0.474406
0
LINE
8
BLACK
6
CONTINUOUS
10
1.12518
20
0.474406
11
1.1252
21
0.474213
0
LINE
8
BLACK
6
CONTINUOUS
10
1.1252
20
0.474213
11
1.1252
21
0.474165
0
LINE
8
BLACK
6
CONTINUOUS
10
1.1252
20
0.474165
11
1.1252
21
0.379317
0
LINE
8
BLACK
6
CONTINUOUS
10
1.1252
20
0.379317
11
1.13482
21
0.372888
0
LINE
8
BLACK
6
CONTINUOUS
10
1.13482
20
0.372888
11
1.14789
21
0.359818
0
LINE
8
BLACK
6
CONTINUOUS
10
1.14789
20
0.359818
11
1.15816
21
0.344449
0
LINE
8
BLACK
6
CONTINUOUS
10
1.15816
20
0.344449
11
1.15886
21
0.342757
0
LINE
8
BLACK
6
CONTINUOUS
10
1.15886
20
0.342757
11
1.15886
21
0.658858
0
LINE
8
BLACK
6
CONTINUOUS
10
1.15886
20
0.658858
11
-0.158858
21
0.658858
0
LINE
8
BLACK
6
CONTINUOUS
10
-0.158858
20
0.658858
11
-0.158858
21
0.47815
0
LINE
8
BLACK
6
CONTINUOUS
10
-0.158858
20
0.47815
11
-0.0931582
21
0.47815
0
LINE
8
BLACK
6
CONTINUOUS
10
-0.0931582
20
0.47815
11
-0.0931102
21
0.478154
0
LINE
8
BLACK
6
CONTINUOUS
10
-0.0931102
20
0.478154
11
-0.0930623
21
0.47815
0
LINE
8
BLACK
6
CONTINUOUS
10
-0.0930623
20
0.47815
11
-0.0930623
21
0.47815
0
LINE
8
BLACK
6
CONTINUOUS
10
-0.0930623
20
0.47815
11
-0.0929173
21
0.478135
0
LINE
8
BLACK
6
CONTINUOUS
10
-0.0929173
20
0.478135
11
-0.0927318
21
0.478079
0
LINE
8
BLACK
6
CONTINUOUS
10
-0.0927318
20
0.478079
11
-0.0925608
21
0.477988
0
LINE
8
BLACK
6
CONTINUOUS
10
-0.0925608
20
0.477988
11
-0.0924109
21
0.477865
0
LINE
8
BLACK
6
CONTINUOUS
10
-0.0924109
20
0.477865
11
-0.0922879
21
0.477715
0
LINE
8
BLACK
6
CONTINUOUS
10
-0.0922879
20
0.477715
11
-0.0921965
21
0.477544
0
LINE
8
BLACK
6
CONTINUOUS
10
-0.0921965
20
0.477544
11
-0.0921403
21
0.477358
0
LINE
8
BLACK
6
CONTINUOUS
10
-0.0921403
20
0.477358
11
-0.0921213
21
0.477165
0
LINE
8
BLACK
6
CONTINUOUS
10
-0.0921213
20
0.477165
11
-0.092126
21
0.477117
0
LINE
8
BLACK
6
CONTINUOUS
10
-0.092126
20
0.477117
11
-0.092126
21
0.458465
0
LINE
8
BLACK
6
CONTINUOUS
10
-0.092126
20
0.458465
11
0.121654
21
0.458465
0
LINE
8
BLACK
6
CONTINUOUS
10
0.121654
20
0.458465
11
0.121654
21
0.503692
0
LINE
8
BLACK
6
CONTINUOUS
10
0.121654
20
0.503692
11
0.121649
21
0.50374
0
LINE
8
BLACK
6
CONTINUOUS
10
0.121649
20
0.50374
11
0.121668
21
0.503933
0
LINE
8
BLACK
6
CONTINUOUS
10
0.121668
20
0.503933
11
0.121724
21
0.504119
0
LINE
8
BLACK
6
CONTINUOUS
10
0.121724
20
0.504119
11
0.121815
21
0.50429
0
LINE
8
BLACK
6
CONTINUOUS
10
0.121815
20
0.50429
11
0.121938
21
0.504439
0
LINE
8
BLACK
6
CONTINUOUS
10
0.121938
20
0.504439
11
0.122088
21
0.504562
0
LINE
8
BLACK
6
CONTINUOUS
10
0.122088
20
0.504562
11
0.122259
21
0.504654
0
LINE
8
BLACK
6
CONTINUOUS
10
0.122259
20
0.504654
11
0.122445
21
0.50471
0
LINE
8
BLACK
6
CONTINUOUS
10
0.122445
20
0.50471
11
0.12259
21
0.504724
0
LINE
8
BLACK
6
CONTINUOUS
10
0.12259
20
0.504724
11
0.12259
21
0.504724
0
LINE
8
BLACK
6
CONTINUOUS
10
0.12259
20
0.504724
11
0.122638
21
0.504729
0
LINE
8
BLACK
6
CONTINUOUS
10
0.122638
20
0.504729
11
0.122686
21
0.504724
0
LINE
8
BLACK
6
CONTINUOUS
10
0.122686
20
0.504724
11
0.239125
21
0.504724
0
LINE
8
BLACK
6
CONTINUOUS
10
0.239125
20
0.504724
11
0.239173
21
0.504729
0
LINE
8
BLACK
6
CONTINUOUS
10
0.239173
20
0.504729
11
0.239221
21
0.504724
0
LINE
8
BLACK
6
CONTINUOUS
10
0.239221
20
0.504724
11
0.239221
21
0.504724
0
LINE
8
BLACK
6
CONTINUOUS
10
0.239221
20
0.504724
11
0.239366
21
0.50471
0
LINE
8
BLACK
6
CONTINUOUS
10
0.239366
20
0.50471
11
0.239552
21
0.504654
0
LINE
8
BLACK
6
CONTINUOUS
10
0.239552
20
0.504654
11
0.239723
21
0.504562
0
LINE
8
BLACK
6
CONTINUOUS
10
0.239723
20
0.504562
11
0.239873
21
0.504439
0
LINE
8
BLACK
6
CONTINUOUS
10
0.239873
20
0.504439
11
0.239996
21
0.50429
0
LINE
8
BLACK
6
CONTINUOUS
10
0.239996
20
0.50429
11
0.240087
21
0.504119
0
LINE
8
BLACK
6
CONTINUOUS
10
0.240087
20
0.504119
11
0.240143
21
0.503933
0
LINE
8
BLACK
6
CONTINUOUS
10
0.240143
20
0.503933
11
0.240162
21
0.50374
0
LINE
8
BLACK
6
CONTINUOUS
10
0.240162
20
0.50374
11
0.240157
21
0.503692
0
LINE
8
BLACK
6
CONTINUOUS
10
0.240157
20
0.503692
11
0.240157
21
0.446308
0
LINE
8
BLACK
6
CONTINUOUS
10
0.240157
20
0.446308
11
0.240162
21
0.44626
0
LINE
8
BLACK
6
CONTINUOUS
10
0.240162
20
0.44626
11
0.240157
21
0.446212
0
LINE
8
BLACK
6
CONTINUOUS
10
0.240157
20
0.446212
11
0.240157
21
0.446212
0
LINE
8
BLACK
6
CONTINUOUS
10
0.240157
20
0.446212
11
0.240143
21
0.446067
0
LINE
8
BLACK
6
CONTINUOUS
10
0.240143
20
0.446067
11
0.240087
21
0.445881
0
LINE
8
BLACK
6
CONTINUOUS
10
0.240087
20
0.445881
11
0.239996
21
0.44571
0
LINE
8
BLACK
6
CONTINUOUS
10
0.239996
20
0.44571
11
0.239873
21
0.445561
0
LINE
8
BLACK
6
CONTINUOUS
10
0.239873
20
0.445561
11
0.239723
21
0.445438
0
LINE
8
BLACK
6
CONTINUOUS
10
0.239723
20
0.445438
11
0.239552
21
0.445346
0
LINE
8
BLACK
6
CONTINUOUS
10
0.239552
20
0.445346
11
0.239366
21
0.44529
0
LINE
8
BLACK
6
CONTINUOUS
10
0.239366
20
0.44529
11
0.239173
21
0.445271
0
LINE
8
BLACK
6
CONTINUOUS
10
0.239173
20
0.445271
11
0.239125
21
0.445276
0
LINE
8
BLACK
6
CONTINUOUS
10
0.239125
20
0.445276
11
0.128346
21
0.445276
0
LINE
8
BLACK
6
CONTINUOUS
10
0.128346
20
0.445276
11
0.128346
21
0.444252
0
LINE
8
BLACK
6
CONTINUOUS
10
0.128346
20
0.444252
11
0.183692
21
0.444252
0
LINE
8
BLACK
6
CONTINUOUS
10
0.183692
20
0.444252
11
0.18374
21
0.444257
0
LINE
8
BLACK
6
CONTINUOUS
10
0.18374
20
0.444257
11
0.183788
21
0.444252
0
LINE
8
BLACK
6
CONTINUOUS
10
0.183788
20
0.444252
11
0.183788
21
0.444252
0
LINE
8
BLACK
6
CONTINUOUS
10
0.183788
20
0.444252
11
0.183933
21
0.444238
0
LINE
8
BLACK
6
CONTINUOUS
10
0.183933
20
0.444238
11
0.184119
21
0.444181
0
LINE
8
BLACK
6
CONTINUOUS
10
0.184119
20
0.444181
11
0.18429
21
0.44409
0
LINE
8
BLACK
6
CONTINUOUS
10
0.18429
20
0.44409
11
0.184439
21
0.443967
0
LINE
8
BLACK
6
CONTINUOUS
10
0.184439
20
0.443967
11
0.184562
21
0.443817
0
LINE
8
BLACK
6
CONTINUOUS
10
0.184562
20
0.443817
11
0.184654
21
0.443646
0
LINE
8
BLACK
6
CONTINUOUS
10
0.184654
20
0.443646
11
0.18471
21
0.443461
0
LINE
8
BLACK
6
CONTINUOUS
10
0.18471
20
0.443461
11
0.184729
21
0.443268
0
LINE
8
BLACK
6
CONTINUOUS
10
0.184729
20
0.443268
11
0.184724
21
0.44322
0
LINE
8
BLACK
6
CONTINUOUS
10
0.184724
20
0.44322
11
0.184724
21
0.329724
0
LINE
8
BLACK
6
CONTINUOUS
10
0.184724
20
0.329724
11
0.185276
21
0.329724
0
LINE
8
BLACK
6
CONTINUOUS
10
0.185276
20
0.329724
11
0.185276
21
0.443219
0
LINE
8
BLACK
6
CONTINUOUS
10
0.185276
20
0.443219
11
0.185271
21
0.443268
0
LINE
8
BLACK
6
CONTINUOUS
10
0.185271
20
0.443268
11
0.18529
21
0.443461
0
LINE
8
BLACK
6
CONTINUOUS
10
0.18529
20
0.443461
11
0.185346
21
0.443646
0
LINE
8
BLACK
6
CONTINUOUS
10
0.185346
20
0.443646
11
0.185438
21
0.443817
0
LINE
8
BLACK
6
CONTINUOUS
10
0.185438
20
0.443817
11
0.185561
21
0.443967
0
LINE
8
BLACK
6
CONTINUOUS
10
0.185561
20
0.443967
11
0.18571
21
0.44409
0
LINE
8
BLACK
6
CONTINUOUS
10
0.18571
20
0.44409
11
0.185881
21
0.444181
0
LINE
8
BLACK
6
CONTINUOUS
10
0.185881
20
0.444181
11
0.186067
21
0.444238
0
LINE
8
BLACK
6
CONTINUOUS
10
0.186067
20
0.444238
11
0.186212
21
0.444252
0
LINE
8
BLACK
6
CONTINUOUS
10
0.186212
20
0.444252
11
0.186212
21
0.444252
0
LINE
8
BLACK
6
CONTINUOUS
10
0.186212
20
0.444252
11
0.18626
21
0.444257
0
LINE
8
BLACK
6
CONTINUOUS
10
0.18626
20
0.444257
11
0.186308
21
0.444252
0
LINE
8
BLACK
6
CONTINUOUS
10
0.186308
20
0.444252
11
0.240354
21
0.444252
0
LINE
8
BLACK
6
CONTINUOUS
10
0.240354
20
0.444252
11
0.240354
21
0.532236
0
LINE
8
BLACK
6
CONTINUOUS
10
0.240354
20
0.532236
11
0.24035
21
0.532283
0
LINE
8
BLACK
6
CONTINUOUS
10
0.24035
20
0.532283
11
0.240369
21
0.532476
0
LINE
8
BLACK
6
CONTINUOUS
10
0.240369
20
0.532476
11
0.240425
21
0.532662
0
LINE
8
BLACK
6
CONTINUOUS
10
0.240425
20
0.532662
11
0.240516
21
0.532833
0
LINE
8
BLACK
6
CONTINUOUS
10
0.240516
20
0.532833
11
0.240639
21
0.532983
0
LINE
8
BLACK
6
CONTINUOUS
10
0.240639
20
0.532983
11
0.240789
21
0.533106
0
LINE
8
BLACK
6
CONTINUOUS
10
0.240789
20
0.533106
11
0.24096
21
0.533197
0
LINE
8
BLACK
6
CONTINUOUS
10
0.24096
20
0.533197
11
0.241146
21
0.533253
0
LINE
8
BLACK
6
CONTINUOUS
10
0.241146
20
0.533253
11
0.241291
21
0.533268
0
LINE
8
BLACK
6
CONTINUOUS
10
0.241291
20
0.533268
11
0.241339
21
0.533272
0
LINE
8
BLACK
6
CONTINUOUS
10
0.241339
20
0.533272
11
0.241386
21
0.533268
0
LINE
8
BLACK
6
CONTINUOUS
10
0.241386
20
0.533268
11
0.658613
21
0.533268
0
LINE
8
BLACK
6
CONTINUOUS
10
0.658613
20
0.533268
11
0.658661
21
0.533272
0
LINE
8
BLACK
6
CONTINUOUS
10
0.658661
20
0.533272
11
0.658709
21
0.533268
0
LINE
8
BLACK
6
CONTINUOUS
10
0.658709
20
0.533268
11
0.658709
21
0.533268
0
LINE
8
BLACK
6
CONTINUOUS
10
0.658709
20
0.533268
11
0.658854
21
0.533253
0
LINE
8
BLACK
6
CONTINUOUS
10
0.658854
20
0.533253
11
0.65904
21
0.533197
0
LINE
8
BLACK
6
CONTINUOUS
10
0.65904
20
0.533197
11
0.659211
21
0.533106
0
LINE
8
BLACK
6
CONTINUOUS
10
0.659211
20
0.533106
11
0.659361
21
0.532983
0
LINE
8
BLACK
6
CONTINUOUS
10
0.659361
20
0.532983
11
0.659484
21
0.532833
0
LINE
8
BLACK
6
CONTINUOUS
10
0.659484
20
0.532833
11
0.659575
21
0.532662
0
LINE
8
BLACK
6
CONTINUOUS
10
0.659575
20
0.532662
11
0.659631
21
0.532476
0
LINE
8
BLACK
6
CONTINUOUS
10
0.659631
20
0.532476
11
0.65965
21
0.532283
0
LINE
8
BLACK
6
CONTINUOUS
10
0.65965
20
0.532283
11
0.659646
21
0.532236
0
LINE
8
BLACK
6
CONTINUOUS
10
0.659646
20
0.532236
11
0.659646
21
0.190945
0
LINE
8
BLACK
6
CONTINUOUS
10
0.659646
20
0.190945
11
0.660799
21
0.190945
0
LINE
8
BLACK
6
CONTINUOUS
10
0.660799
20
0.190945
11
0.660762
21
0.191067
0
LINE
8
BLACK
6
CONTINUOUS
10
0.660762
20
0.191067
11
0.660743
21
0.19126
0
LINE
8
BLACK
6
CONTINUOUS
10
0.660743
20
0.19126
11
0.660748
21
0.191308
0
LINE
8
BLACK
6
CONTINUOUS
10
0.660748
20
0.191308
11
0.660748
21
0.248692
0
LINE
8
BLACK
6
CONTINUOUS
10
0.660748
20
0.248692
11
0.660743
21
0.24874
0
LINE
8
BLACK
6
CONTINUOUS
10
0.660743
20
0.24874
11
0.660762
21
0.248933
0
LINE
8
BLACK
6
CONTINUOUS
10
0.660762
20
0.248933
11
0.660819
21
0.249119
0
LINE
8
BLACK
6
CONTINUOUS
10
0.660819
20
0.249119
11
0.66091
21
0.24929
0
LINE
8
BLACK
6
CONTINUOUS
10
0.66091
20
0.24929
11
0.661033
21
0.249439
0
LINE
8
BLACK
6
CONTINUOUS
10
0.661033
20
0.249439
11
0.661183
21
0.249562
0
LINE
8
BLACK
6
CONTINUOUS
10
0.661183
20
0.249562
11
0.661354
21
0.249654
0
LINE
8
BLACK
6
CONTINUOUS
10
0.661354
20
0.249654
11
0.661539
21
0.24971
0
LINE
8
BLACK
6
CONTINUOUS
10
0.661539
20
0.24971
11
0.661684
21
0.249724
0
LINE
8
BLACK
6
CONTINUOUS
10
0.661684
20
0.249724
11
0.661684
21
0.249724
0
LINE
8
BLACK
6
CONTINUOUS
10
0.661684
20
0.249724
11
0.661732
21
0.249729
0
LINE
8
BLACK
6
CONTINUOUS
10
0.661732
20
0.249729
11
0.66178
21
0.249724
0
LINE
8
BLACK
6
CONTINUOUS
10
0.66178
20
0.249724
11
0.77822
21
0.249724
0
LINE
8
BLACK
6
CONTINUOUS
10
0.77822
20
0.249724
11
0.778268
21
0.249729
0
LINE
8
BLACK
6
CONTINUOUS
10
0.778268
20
0.249729
11
0.778316
21
0.249724
0
LINE
8
BLACK
6
CONTINUOUS
10
0.778316
20
0.249724
11
0.778316
21
0.249724
0
LINE
8
BLACK
6
CONTINUOUS
10
0.778316
20
0.249724
11
0.778461
21
0.24971
0
LINE
8
BLACK
6
CONTINUOUS
10
0.778461
20
0.24971
11
0.778646
21
0.249654
0
LINE
8
BLACK
6
CONTINUOUS
10
0.778646
20
0.249654
11
0.778817
21
0.249562
0
LINE
8
BLACK
6
CONTINUOUS
10
0.778817
20
0.249562
11
0.778967
21
0.249439
0
LINE
8
BLACK
6
CONTINUOUS
10
0.778967
20
0.249439
11
0.77909
21
0.24929
0
LINE
8
BLACK
6
CONTINUOUS
10
0.77909
20
0.24929
11
0.779181
21
0.249119
0
LINE
8
BLACK
6
CONTINUOUS
10
0.779181
20
0.249119
11
0.779238
21
0.248933
0
LINE
8
BLACK
6
CONTINUOUS
10
0.779238
20
0.248933
11
0.779257
21
0.24874
0
LINE
8
BLACK
6
CONTINUOUS
10
0.779257
20
0.24874
11
0.779252
21
0.248692
0
LINE
8
BLACK
6
CONTINUOUS
10
0.779252
20
0.248692
11
0.779252
21
0.191308
0
LINE
8
BLACK
6
CONTINUOUS
10
0.779252
20
0.191308
11
0.779257
21
0.19126
0
LINE
8
BLACK
6
CONTINUOUS
10
0.779257
20
0.19126
11
0.779252
21
0.191212
0
LINE
8
BLACK
6
CONTINUOUS
10
0.779252
20
0.191212
11
0.779252
21
0.191212
0
LINE
8
BLACK
6
CONTINUOUS
10
0.779252
20
0.191212
11
0.779238
21
0.191067
0
LINE
8
BLACK
6
CONTINUOUS
10
0.779238
20
0.191067
11
0.779181
21
0.190881
0
LINE
8
BLACK
6
CONTINUOUS
10
0.779181
20
0.190881
11
0.77909
21
0.19071
0
LINE
8
BLACK
6
CONTINUOUS
10
0.77909
20
0.19071
11
0.778967
21
0.190561
0
LINE
8
BLACK
6
CONTINUOUS
10
0.778967
20
0.190561
11
0.778817
21
0.190438
0
LINE
8
BLACK
6
CONTINUOUS
10
0.778817
20
0.190438
11
0.778646
21
0.190346
0
LINE
8
BLACK
6
CONTINUOUS
10
0.778646
20
0.190346
11
0.778461
21
0.19029
0
LINE
8
BLACK
6
CONTINUOUS
10
0.778461
20
0.19029
11
0.778268
21
0.190271
0
LINE
8
BLACK
6
CONTINUOUS
10
0.778268
20
0.190271
11
0.77822
21
0.190276
0
LINE
8
BLACK
6
CONTINUOUS
10
0.77822
20
0.190276
11
0.755146
21
0.190276
0
LINE
8
BLACK
6
CONTINUOUS
10
0.755146
20
0.190276
11
0.755183
21
0.190154
0
LINE
8
BLACK
6
CONTINUOUS
10
0.755183
20
0.190154
11
0.755202
21
0.189961
0
LINE
8
BLACK
6
CONTINUOUS
10
0.755202
20
0.189961
11
0.755197
21
0.189913
0
LINE
8
BLACK
6
CONTINUOUS
10
0.755197
20
0.189913
11
0.755197
21
0.0600873
0
LINE
8
BLACK
6
CONTINUOUS
10
0.755197
20
0.0600873
11
0.755202
21
0.0600394
0
LINE
8
BLACK
6
CONTINUOUS
10
0.755202
20
0.0600394
11
0.755197
21
0.0599915
0
LINE
8
BLACK
6
CONTINUOUS
10
0.755197
20
0.0599915
11
0.755197
21
0.0599914
0
LINE
8
BLACK
6
CONTINUOUS
10
0.755197
20
0.0599914
11
0.755183
21
0.0598464
0
LINE
8
BLACK
6
CONTINUOUS
10
0.755183
20
0.0598464
11
0.755126
21
0.0596609
0
LINE
8
BLACK
6
CONTINUOUS
10
0.755126
20
0.0596609
11
0.755035
21
0.0594899
0
LINE
8
BLACK
6
CONTINUOUS
10
0.755035
20
0.0594899
11
0.754912
21
0.05934
0
LINE
8
BLACK
6
CONTINUOUS
10
0.754912
20
0.05934
11
0.754762
21
0.059217
0
LINE
8
BLACK
6
CONTINUOUS
10
0.754762
20
0.059217
11
0.754591
21
0.0591257
0
LINE
8
BLACK
6
CONTINUOUS
10
0.754591
20
0.0591257
11
0.754406
21
0.0590694
0
LINE
8
BLACK
6
CONTINUOUS
10
0.754406
20
0.0590694
11
0.754213
21
0.0590504
0
LINE
8
BLACK
6
CONTINUOUS
10
0.754213
20
0.0590504
11
0.754165
21
0.0590551
0
LINE
8
BLACK
6
CONTINUOUS
10
0.754165
20
0.0590551
11
0.655835
21
0.0590551
0
LINE
8
BLACK
6
CONTINUOUS
10
0.655835
20
0.0590551
11
0.655787
21
0.0590504
0
LINE
8
BLACK
6
CONTINUOUS
10
0.655787
20
0.0590504
11
0.655594
21
0.0590694
0
LINE
8
BLACK
6
CONTINUOUS
10
0.655594
20
0.0590694
11
0.655409
21
0.0591257
0
LINE
8
BLACK
6
CONTINUOUS
10
0.655409
20
0.0591257
11
0.655238
21
0.059217
0
LINE
8
BLACK
6
CONTINUOUS
10
0.655238
20
0.059217
11
0.655088
21
0.05934
0
LINE
8
BLACK
6
CONTINUOUS
10
0.655088
20
0.05934
11
0.654965
21
0.0594899
0
LINE
8
BLACK
6
CONTINUOUS
10
0.654965
20
0.0594899
11
0.654874
21
0.0596609
0
LINE
8
BLACK
6
CONTINUOUS
10
0.654874
20
0.0596609
11
0.654817
21
0.0598464
0
LINE
8
BLACK
6
CONTINUOUS
10
0.654817
20
0.0598464
11
0.654798
21
0.0600394
0
LINE
8
BLACK
6
CONTINUOUS
10
0.654798
20
0.0600394
11
0.654803
21
0.0600873
0
LINE
8
BLACK
6
CONTINUOUS
10
0.654803
20
0.0600873
11
0.654803
21
0.0667323
0
LINE
8
BLACK
6
CONTINUOUS
10
0.654803
20
0.0667323
11
0.245945
21
0.0667323
0
LINE
8
BLACK
6
CONTINUOUS
10
0.245945
20
0.0667323
11
0.245945
21
0.0508354
0
LINE
8
BLACK
6
CONTINUOUS
10
0.245945
20
0.0508354
11
0.24595
21
0.0507874
0
LINE
8
BLACK
6
CONTINUOUS
10
0.24595
20
0.0507874
11
0.245931
21
0.0505944
0
LINE
8
BLACK
6
CONTINUOUS
10
0.245931
20
0.0505944
11
0.245874
21
0.0504089
0
LINE
8
BLACK
6
CONTINUOUS
10
0.245874
20
0.0504089
11
0.245783
21
0.050238
0
LINE
8
BLACK
6
CONTINUOUS
10
0.245783
20
0.050238
11
0.24566
21
0.0500881
0
LINE
8
BLACK
6
CONTINUOUS
10
0.24566
20
0.0500881
11
0.24551
21
0.0499651
0
LINE
8
BLACK
6
CONTINUOUS
10
0.24551
20
0.0499651
11
0.245339
21
0.0498737
0
LINE
8
BLACK
6
CONTINUOUS
10
0.245339
20
0.0498737
11
0.245154
21
0.0498174
0
LINE
8
BLACK
6
CONTINUOUS
10
0.245154
20
0.0498174
11
0.245009
21
0.0498031
0
LINE
8
BLACK
6
CONTINUOUS
10
0.245009
20
0.0498031
11
0.245009
21
0.0498031
0
LINE
8
BLACK
6
CONTINUOUS
10
0.245009
20
0.0498031
11
0.244961
21
0.0497984
0
LINE
8
BLACK
6
CONTINUOUS
10
0.244961
20
0.0497984
11
0.244913
21
0.0498031
0
LINE
8
BLACK
6
CONTINUOUS
10
0.244913
20
0.0498031
11
0.115087
21
0.0498031
0
LINE
8
BLACK
6
CONTINUOUS
10
0.115087
20
0.0498031
11
0.115039
21
0.0497984
0
LINE
8
BLACK
6
CONTINUOUS
10
0.115039
20
0.0497984
11
0.114991
21
0.0498031
0
LINE
8
BLACK
6
CONTINUOUS
10
0.114991
20
0.0498031
11
0.114991
21
0.0498031
0
LINE
8
BLACK
6
CONTINUOUS
10
0.114991
20
0.0498031
11
0.114846
21
0.0498174
0
LINE
8
BLACK
6
CONTINUOUS
10
0.114846
20
0.0498174
11
0.114661
21
0.0498737
0
LINE
8
BLACK
6
CONTINUOUS
10
0.114661
20
0.0498737
11
0.11449
21
0.0499651
0
LINE
8
BLACK
6
CONTINUOUS
10
0.11449
20
0.0499651
11
0.11434
21
0.0500881
0
LINE
8
BLACK
6
CONTINUOUS
10
0.11434
20
0.0500881
11
0.114217
21
0.050238
0
LINE
8
BLACK
6
CONTINUOUS
10
0.114217
20
0.050238
11
0.114126
21
0.0504089
0
LINE
8
BLACK
6
CONTINUOUS
10
0.114126
20
0.0504089
11
0.114069
21
0.0505944
0
LINE
8
BLACK
6
CONTINUOUS
10
0.114069
20
0.0505944
11
0.11405
21
0.0507874
0
LINE
8
BLACK
6
CONTINUOUS
10
0.11405
20
0.0507874
11
0.114055
21
0.0508357
0
LINE
8
BLACK
6
CONTINUOUS
10
0.114055
20
0.0508357
11
0.114055
21
0.141535
0
LINE
8
BLACK
6
CONTINUOUS
10
0.114055
20
0.141535
11
0.0859449
21
0.141535
0
LINE
8
BLACK
6
CONTINUOUS
10
0.0859449
20
0.141535
11
0.0859449
21
0.0508354
0
LINE
8
BLACK
6
CONTINUOUS
10
0.0859449
20
0.0508354
11
0.0859496
21
0.0507874
0
LINE
8
BLACK
6
CONTINUOUS
10
0.0859496
20
0.0507874
11
0.0859306
21
0.0505944
0
LINE
8
BLACK
6
CONTINUOUS
10
0.0859306
20
0.0505944
11
0.0858743
21
0.0504089
0
LINE
8
BLACK
6
CONTINUOUS
10
0.0858743
20
0.0504089
11
0.085783
21
0.050238
0
LINE
8
BLACK
6
CONTINUOUS
10
0.085783
20
0.050238
11
0.08566
21
0.0500881
0
LINE
8
BLACK
6
CONTINUOUS
10
0.08566
20
0.0500881
11
0.0855101
21
0.0499651
0
LINE
8
BLACK
6
CONTINUOUS
10
0.0855101
20
0.0499651
11
0.0853391
21
0.0498737
0
LINE
8
BLACK
6
CONTINUOUS
10
0.0853391
20
0.0498737
11
0.0851536
21
0.0498174
0
LINE
8
BLACK
6
CONTINUOUS
10
0.0851536
20
0.0498174
11
0.0850086
21
0.0498031
0
LINE
8
BLACK
6
CONTINUOUS
10
0.0850086
20
0.0498031
11
0.0850085
21
0.0498031
0
LINE
8
BLACK
6
CONTINUOUS
10
0.0850085
20
0.0498031
11
0.0849606
21
0.0497984
0
LINE
8
BLACK
6
CONTINUOUS
10
0.0849606
20
0.0497984
11
0.0849127
21
0.0498031
0
LINE
8
BLACK
6
CONTINUOUS
10
0.0849127
20
0.0498031
11
-0.0449127
21
0.0498031
0
LINE
8
BLACK
6
CONTINUOUS
10
-0.0449127
20
0.0498031
11
-0.0449606
21
0.0497984
0
LINE
8
BLACK
6
CONTINUOUS
10
-0.0449606
20
0.0497984
11
-0.0450085
21
0.0498031
0
LINE
8
BLACK
6
CONTINUOUS
10
-0.0450085
20
0.0498031
11
-0.0450086
21
0.0498031
0
LINE
8
BLACK
6
CONTINUOUS
10
-0.0450086
20
0.0498031
11
-0.0451536
21
0.0498174
0
LINE
8
BLACK
6
CONTINUOUS
10
-0.0451536
20
0.0498174
11
-0.0453391
21
0.0498737
0
LINE
8
BLACK
6
CONTINUOUS
10
-0.0453391
20
0.0498737
11
-0.0455101
21
0.0499651
0
LINE
8
BLACK
6
CONTINUOUS
10
-0.0455101
20
0.0499651
11
-0.04566
21
0.0500881
0
LINE
8
BLACK
6
CONTINUOUS
10
-0.04566
20
0.0500881
11
-0.045783
21
0.050238
0
LINE
8
BLACK
6
CONTINUOUS
10
-0.045783
20
0.050238
11
-0.0458743
21
0.0504089
0
LINE
8
BLACK
6
CONTINUOUS
10
-0.0458743
20
0.0504089
11
-0.0459306
21
0.0505944
0
LINE
8
BLACK
6
CONTINUOUS
10
-0.0459306
20
0.0505944
11
-0.0459496
21
0.0507874
0
LINE
8
BLACK
6
CONTINUOUS
10
-0.0459496
20
0.0507874
11
-0.0459448
21
0.0508357
0
LINE
8
BLACK
6
CONTINUOUS
10
-0.0459448
20
0.0508357
11
-0.0459449
21
0.141535
0
LINE
8
BLACK
6
CONTINUOUS
10
-0.0459449
20
0.141535
11
-0.092126
21
0.141535
0
LINE
8
BLACK
6
CONTINUOUS
10
-0.092126
20
0.141535
11
-0.092126
21
0.122883
0
LINE
8
BLACK
6
CONTINUOUS
10
-0.092126
20
0.122883
11
-0.0921213
21
0.122835
0
LINE
8
BLACK
6
CONTINUOUS
10
-0.0921213
20
0.122835
11
-0.0921403
21
0.122642
0
LINE
8
BLACK
6
CONTINUOUS
10
-0.0921403
20
0.122642
11
-0.0921965
21
0.122456
0
LINE
8
BLACK
6
CONTINUOUS
10
-0.0921965
20
0.122456
11
-0.0922879
21
0.122285
0
LINE
8
BLACK
6
CONTINUOUS
10
-0.0922879
20
0.122285
11
-0.0924109
21
0.122135
0
LINE
8
BLACK
6
CONTINUOUS
10
-0.0924109
20
0.122135
11
-0.0925608
21
0.122012
0
LINE
8
BLACK
6
CONTINUOUS
10
-0.0925608
20
0.122012
11
-0.0927318
21
0.121921
0
LINE
8
BLACK
6
CONTINUOUS
10
-0.0927318
20
0.121921
11
-0.0929173
21
0.121865
0
LINE
8
BLACK
6
CONTINUOUS
10
-0.0929173
20
0.121865
11
-0.0930623
21
0.12185
0
LINE
8
BLACK
6
CONTINUOUS
10
-0.0930623
20
0.12185
11
-0.0930623
21
0.12185
0
LINE
8
BLACK
6
CONTINUOUS
10
-0.0930623
20
0.12185
11
-0.0931102
21
0.121846
0
LINE
8
BLACK
6
CONTINUOUS
10
-0.0931102
20
0.121846
11
-0.0931582
21
0.12185
0
LINE
8
BLACK
6
CONTINUOUS
10
-0.0931582
20
0.12185
11
-0.158858
21
0.12185
0
LINE
8
BLACK
6
CONTINUOUS
10
-0.158858
20
0.12185
11
-0.158858
21
-0.0588583
0
LINE
8
BLACK
6
CONTINUOUS
10
-0.158858
20
-0.0588583
11
1.15886
21
-0.0588583
0
LINE
8
BLACK
6
CONTINUOUS
10
1.15886
20
-0.0588583
11
1.15886
21
0.257243
0
LINE
8
BLACK
6
CONTINUOUS
10
1.15886
20
0.257243
11
1.15816
21
0.255551
0
LINE
8
BLACK
6
CONTINUOUS
10
1.15816
20
0.255551
11
1.14789
21
0.240182
0
LINE
8
BLACK
6
CONTINUOUS
10
1.14789
20
0.240182
11
1.13482
21
0.227112
0
LINE
8
BLACK
6
CONTINUOUS
10
1.13482
20
0.227112
11
1.1302
21
0.224024
0
LINE
8
BLACK
6
CONTINUOUS
10
1.1302
20
0.224024
11
1.1302
21
0.140835
0
LINE
8
BLACK
6
CONTINUOUS
10
1.1302
20
0.140835
11
1.1302
21
0.140787
0
LINE
8
BLACK
6
CONTINUOUS
10
1.1302
20
0.140787
11
1.13018
21
0.140594
0
LINE
8
BLACK
6
CONTINUOUS
10
1.13018
20
0.140594
11
1.13013
21
0.140409
0
LINE
8
BLACK
6
CONTINUOUS
10
1.13013
20
0.140409
11
1.13003
21
0.140238
0
LINE
8
BLACK
6
CONTINUOUS
10
1.13003
20
0.140238
11
1.12991
21
0.140088
0
LINE
8
BLACK
6
CONTINUOUS
10
1.12991
20
0.140088
11
1.12976
21
0.139965
0
LINE
8
BLACK
6
CONTINUOUS
10
1.12976
20
0.139965
11
1.12959
21
0.139874
0
LINE
8
BLACK
6
CONTINUOUS
10
1.12959
20
0.139874
11
1.12941
21
0.139817
0
LINE
8
BLACK
6
CONTINUOUS
10
1.12941
20
0.139817
11
1.12926
21
0.139803
0
LINE
8
BLACK
6
CONTINUOUS
10
1.12926
20
0.139803
11
1.12926
21
0.139803
0
LINE
8
BLACK
6
CONTINUOUS
10
1.12926
20
0.139803
11
1.12921
21
0.139798
0
LINE
8
BLACK
6
CONTINUOUS
10
1.12921
20
0.139798
11
1.12916
21
0.139803
0
LINE
8
BLACK
6
CONTINUOUS
10
1.12916
20
0.139803
11
1.03084
21
0.139803
0
LINE
8
BLACK
6
CONTINUOUS
10
1.03084
20
0.139803
11
1.03079
21
0.139798
0
LINE
8
BLACK
6
CONTINUOUS
10
1.03079
20
0.139798
11
1.03074
21
0.139803
0
LINE
8
BLACK
6
CONTINUOUS
10
1.03074
20
0.139803
11
1.03074
21
0.139803
0
LINE
8
BLACK
6
CONTINUOUS
10
1.03074
20
0.139803
11
1.03059
21
0.139817
0
LINE
8
BLACK
6
CONTINUOUS
10
1.03059
20
0.139817
11
1.03041
21
0.139874
0
LINE
8
BLACK
6
CONTINUOUS
10
1.03041
20
0.139874
11
1.03024
21
0.139965
0
LINE
8
BLACK
6
CONTINUOUS
10
1.03024
20
0.139965
11
1.03009
21
0.140088
0
LINE
8
BLACK
6
CONTINUOUS
10
1.03009
20
0.140088
11
1.02997
21
0.140238
0
LINE
8
BLACK
6
CONTINUOUS
10
1.02997
20
0.140238
11
1.02987
21
0.140409
0
LINE
8
BLACK
6
CONTINUOUS
10
1.02987
20
0.140409
11
1.02982
21
0.140594
0
LINE
8
BLACK
6
CONTINUOUS
10
1.02982
20
0.140594
11
1.0298
21
0.140787
0
LINE
8
BLACK
6
CONTINUOUS
10
1.0298
20
0.140787
11
1.0298
21
0.140836
0
LINE
8
BLACK
6
CONTINUOUS
10
1.0298
20
0.140836
11
1.0298
21
0.217342
0
LINE
8
BLACK
6
CONTINUOUS
10
1.0298
20
0.217342
11
1.01518
21
0.227112
0
LINE
8
BLACK
6
CONTINUOUS
10
1.01518
20
0.227112
11
1.00211
21
0.240182
0
LINE
8
BLACK
6
CONTINUOUS
10
1.00211
20
0.240182
11
0.991842
21
0.255551
0
LINE
8
BLACK
6
CONTINUOUS
10
0.991842
20
0.255551
11
0.984769
21
0.272629
0
LINE
8
BLACK
6
CONTINUOUS
10
0.984769
20
0.272629
11
0.981163
21
0.290758
0
LINE
8
BLACK
6
CONTINUOUS
10
0.981163
20
0.290758
11
0.981163
21
0.309242
0
LINE
8
BLACK
6
CONTINUOUS
10
0.981163
20
0.309242
11
0.984769
21
0.327371
0
LINE
8
BLACK
6
CONTINUOUS
10
0.0691424
20
0.399409
11
0.0691424
21
0.399409
0
LINE
8
BLACK
6
CONTINUOUS
10
0.0691424
20
0.399409
11
0.0692874
21
0.399395
0
LINE
8
BLACK
6
CONTINUOUS
10
0.0692874
20
0.399395
11
0.069473
21
0.399339
0
LINE
8
BLACK
6
CONTINUOUS
10
0.069473
20
0.399339
11
0.0696439
21
0.399248
0
LINE
8
BLACK
6
CONTINUOUS
10
0.0696439
20
0.399248
11
0.0697938
21
0.399125
0
LINE
8
BLACK
6
CONTINUOUS
10
0.0697938
20
0.399125
11
0.0699168
21
0.398975
0
LINE
8
BLACK
6
CONTINUOUS
10
0.0699168
20
0.398975
11
0.0700082
21
0.398804
0
LINE
8
BLACK
6
CONTINUOUS
10
0.0700082
20
0.398804
11
0.0700644
21
0.398618
0
LINE
8
BLACK
6
CONTINUOUS
10
0.0700644
20
0.398618
11
0.0700835
21
0.398425
0
LINE
8
BLACK
6
CONTINUOUS
10
0.0700835
20
0.398425
11
0.0700787
21
0.398377
0
LINE
8
BLACK
6
CONTINUOUS
10
0.0700787
20
0.398377
11
0.0700787
21
0.37185
0
LINE
8
BLACK
6
CONTINUOUS
10
0.0700787
20
0.37185
11
0.0769206
21
0.37185
0
LINE
8
BLACK
6
CONTINUOUS
10
0.0769206
20
0.37185
11
0.0769685
21
0.371855
0
LINE
8
BLACK
6
CONTINUOUS
10
0.0769685
20
0.371855
11
0.0770164
21
0.37185
0
LINE
8
BLACK
6
CONTINUOUS
10
0.0770164
20
0.37185
11
0.0770165
21
0.37185
0
LINE
8
BLACK
6
CONTINUOUS
10
0.0770165
20
0.37185
11
0.0771615
21
0.371836
0
LINE
8
BLACK
6
CONTINUOUS
10
0.0771615
20
0.371836
11
0.077347
21
0.37178
0
LINE
8
BLACK
6
CONTINUOUS
10
0.077347
20
0.37178
11
0.077518
21
0.371688
0
LINE
8
BLACK
6
CONTINUOUS
10
0.077518
20
0.371688
11
0.0776678
21
0.371565
0
LINE
8
BLACK
6
CONTINUOUS
10
0.0776678
20
0.371565
11
0.0777908
21
0.371416
0
LINE
8
BLACK
6
CONTINUOUS
10
0.0777908
20
0.371416
11
0.0778822
21
0.371245
0
LINE
8
BLACK
6
CONTINUOUS
10
0.0778822
20
0.371245
11
0.0779385
21
0.371059
0
LINE
8
BLACK
6
CONTINUOUS
10
0.0779385
20
0.371059
11
0.0779575
21
0.370866
0
LINE
8
BLACK
6
CONTINUOUS
10
0.0779575
20
0.370866
11
0.0779528
21
0.370818
0
LINE
8
BLACK
6
CONTINUOUS
10
0.0779528
20
0.370818
11
0.0779528
21
0.340354
0
LINE
8
BLACK
6
CONTINUOUS
10
0.0779528
20
0.340354
11
0.10448
21
0.340354
0
LINE
8
BLACK
6
CONTINUOUS
10
0.10448
20
0.340354
11
0.104528
21
0.340359
0
LINE
8
BLACK
6
CONTINUOUS
10
0.104528
20
0.340359
11
0.104575
21
0.340354
0
LINE
8
BLACK
6
CONTINUOUS
10
0.104575
20
0.340354
11
0.104576
21
0.340354
0
LINE
8
BLACK
6
CONTINUOUS
10
0.104576
20
0.340354
11
0.104721
21
0.34034
0
LINE
8
BLACK
6
CONTINUOUS
10
0.104721
20
0.34034
11
0.104906
21
0.340284
0
LINE
8
BLACK
6
CONTINUOUS
10
0.104906
20
0.340284
11
0.105077
21
0.340192
0
LINE
8
BLACK
6
CONTINUOUS
10
0.105077
20
0.340192
11
0.105227
21
0.340069
0
LINE
8
BLACK
6
CONTINUOUS
10
0.105227
20
0.340069
11
0.10535
21
0.33992
0
LINE
8
BLACK
6
CONTINUOUS
10
0.10535
20
0.33992
11
0.105441
21
0.339749
0
LINE
8
BLACK
6
CONTINUOUS
10
0.105441
20
0.339749
11
0.105498
21
0.339563
0
LINE
8
BLACK
6
CONTINUOUS
10
0.105498
20
0.339563
11
0.105517
21
0.33937
0
LINE
8
BLACK
6
CONTINUOUS
10
0.105517
20
0.33937
11
0.105512
21
0.339322
0
LINE
8
BLACK
6
CONTINUOUS
10
0.105512
20
0.339322
11
0.105512
21
0.260678
0
LINE
8
BLACK
6
CONTINUOUS
10
0.105512
20
0.260678
11
0.105517
21
0.26063
0
LINE
8
BLACK
6
CONTINUOUS
10
0.105517
20
0.26063
11
0.105512
21
0.260582
0
LINE
8
BLACK
6
CONTINUOUS
10
0.105512
20
0.260582
11
0.105498
21
0.260437
0
LINE
8
BLACK
6
CONTINUOUS
10
0.105498
20
0.260437
11
0.105441
21
0.260251
0
LINE
8
BLACK
6
CONTINUOUS
10
0.105441
20
0.260251
11
0.10535
21
0.26008
0
LINE
8
BLACK
6
CONTINUOUS
10
0.10535
20
0.26008
11
0.105227
21
0.259931
0
LINE
8
BLACK
6
CONTINUOUS
10
0.105227
20
0.259931
11
0.105077
21
0.259808
0
LINE
8
BLACK
6
CONTINUOUS
10
0.105077
20
0.259808
11
0.104906
21
0.259716
0
LINE
8
BLACK
6
CONTINUOUS
10
0.104906
20
0.259716
11
0.104721
21
0.25966
0
LINE
8
BLACK
6
CONTINUOUS
10
0.104721
20
0.25966
11
0.104528
21
0.259641
0
LINE
8
BLACK
6
CONTINUOUS
10
0.104528
20
0.259641
11
0.10448
21
0.259646
0
LINE
8
BLACK
6
CONTINUOUS
10
0.10448
20
0.259646
11
0.0779528
21
0.259646
0
LINE
8
BLACK
6
CONTINUOUS
10
0.0779528
20
0.259646
11
0.0779528
21
0.229182
0
LINE
8
BLACK
6
CONTINUOUS
10
0.0779528
20
0.229182
11
0.0779575
21
0.229134
0
LINE
8
BLACK
6
CONTINUOUS
10
0.0779575
20
0.229134
11
0.0779528
21
0.229086
0
LINE
8
BLACK
6
CONTINUOUS
10
0.0779528
20
0.229086
11
0.0779385
21
0.228941
0
LINE
8
BLACK
6
CONTINUOUS
10
0.0779385
20
0.228941
11
0.0778822
21
0.228755
0
LINE
8
BLACK
6
CONTINUOUS
10
0.0778822
20
0.228755
11
0.0777908
21
0.228584
0
LINE
8
BLACK
6
CONTINUOUS
10
0.0777908
20
0.228584
11
0.0776678
21
0.228435
0
LINE
8
BLACK
6
CONTINUOUS
10
0.0776678
20
0.228435
11
0.077518
21
0.228312
0
LINE
8
BLACK
6
CONTINUOUS
10
0.077518
20
0.228312
11
0.077347
21
0.22822
0
LINE
8
BLACK
6
CONTINUOUS
10
0.077347
20
0.22822
11
0.0771615
21
0.228164
0
LINE
8
BLACK
6
CONTINUOUS
10
0.0771615
20
0.228164
11
0.0769685
21
0.228145
0
LINE
8
BLACK
6
CONTINUOUS
10
0.0769685
20
0.228145
11
0.0769206
21
0.22815
0
LINE
8
BLACK
6
CONTINUOUS
10
0.0769206
20
0.22815
11
0.0700787
21
0.22815
0
LINE
8
BLACK
6
CONTINUOUS
10
0.0700787
20
0.22815
11
0.0700787
21
0.201623
0
LINE
8
BLACK
6
CONTINUOUS
10
0.0700787
20
0.201623
11
0.0700835
21
0.201575
0
LINE
8
BLACK
6
CONTINUOUS
10
0.0700835
20
0.201575
11
0.0700787
21
0.201527
0
LINE
8
BLACK
6
CONTINUOUS
10
0.0700787
20
0.201527
11
0.0700644
21
0.201382
0
LINE
8
BLACK
6
CONTINUOUS
10
0.0700644
20
0.201382
11
0.0700082
21
0.201196
0
LINE
8
BLACK
6
CONTINUOUS
10
0.0700082
20
0.201196
11
0.0699168
21
0.201025
0
LINE
8
BLACK
6
CONTINUOUS
10
0.0699168
20
0.201025
11
0.0697938
21
0.200875
0
LINE
8
BLACK
6
CONTINUOUS
10
0.0697938
20
0.200875
11
0.0696439
21
0.200752
0
LINE
8
BLACK
6
CONTINUOUS
10
0.0696439
20
0.200752
11
0.069473
21
0.200661
0
LINE
8
BLACK
6
CONTINUOUS
10
0.069473
20
0.200661
11
0.0692874
21
0.200605
0
LINE
8
BLACK
6
CONTINUOUS
10
0.0692874
20
0.200605
11
0.0690945
21
0.200586
0
LINE
8
BLACK
6
CONTINUOUS
10
0.0690945
20
0.200586
11
0.0690466
21
0.200591
0
LINE
8
BLACK
6
CONTINUOUS
10
0.0690466
20
0.200591
11
-0.0568418
21
0.200591
0
LINE
8
BLACK
6
CONTINUOUS
10
-0.0568418
20
0.200591
11
-0.0568898
21
0.200586
0
LINE
8
BLACK
6
CONTINUOUS
10
-0.0568898
20
0.200586
11
-0.0569377
21
0.200591
0
LINE
8
BLACK
6
CONTINUOUS
10
-0.0569377
20
0.200591
11
-0.0569377
21
0.200591
0
LINE
8
BLACK
6
CONTINUOUS
10
-0.0569377
20
0.200591
11
-0.0570827
21
0.200605
0
LINE
8
BLACK
6
CONTINUOUS
10
-0.0570827
20
0.200605
11
-0.0572682
21
0.200661
0
LINE
8
BLACK
6
CONTINUOUS
10
-0.0572682
20
0.200661
11
-0.0574392
21
0.200752
0
LINE
8
BLACK
6
CONTINUOUS
10
-0.0574392
20
0.200752
11
-0.0575891
21
0.200875
0
LINE
8
BLACK
6
CONTINUOUS
10
-0.0575891
20
0.200875
11
-0.0577121
21
0.201025
0
LINE
8
BLACK
6
CONTINUOUS
10
-0.0577121
20
0.201025
11
-0.0578035
21
0.201196
0
LINE
8
BLACK
6
CONTINUOUS
10
-0.0578035
20
0.201196
11
-0.0578597
21
0.201382
0
LINE
8
BLACK
6
CONTINUOUS
10
-0.0578597
20
0.201382
11
-0.0578787
21
0.201575
0
LINE
8
BLACK
6
CONTINUOUS
10
-0.0578787
20
0.201575
11
-0.057874
21
0.201623
0
LINE
8
BLACK
6
CONTINUOUS
10
-0.057874
20
0.201623
11
-0.057874
21
0.22815
0
LINE
8
BLACK
6
CONTINUOUS
10
-0.057874
20
0.22815
11
-0.0647158
21
0.22815
0
LINE
8
BLACK
6
CONTINUOUS
10
-0.0647158
20
0.22815
11
-0.0647638
21
0.228145
0
LINE
8
BLACK
6
CONTINUOUS
10
-0.0647638
20
0.228145
11
-0.0648117
21
0.22815
0
LINE
8
BLACK
6
CONTINUOUS
10
-0.0648117
20
0.22815
11
-0.0648117
21
0.22815
0
LINE
8
BLACK
6
CONTINUOUS
10
-0.0648117
20
0.22815
11
-0.0649567
21
0.228164
0
LINE
8
BLACK
6
CONTINUOUS
10
-0.0649567
20
0.228164
11
-0.0651422
21
0.22822
0
LINE
8
BLACK
6
CONTINUOUS
10
-0.0651422
20
0.22822
11
-0.0653132
21
0.228312
0
LINE
8
BLACK
6
CONTINUOUS
10
-0.0653132
20
0.228312
11
-0.0654631
21
0.228435
0
LINE
8
BLACK
6
CONTINUOUS
10
-0.0654631
20
0.228435
11
-0.0655861
21
0.228584
0
LINE
8
BLACK
6
CONTINUOUS
10
-0.0655861
20
0.228584
11
-0.0656775
21
0.228755
0
LINE
8
BLACK
6
CONTINUOUS
10
-0.0656775
20
0.228755
11
-0.0657337
21
0.228941
0
LINE
8
BLACK
6
CONTINUOUS
10
-0.0657337
20
0.228941
11
-0.0657528
21
0.229134
0
LINE
8
BLACK
6
CONTINUOUS
10
-0.0657528
20
0.229134
11
-0.065748
21
0.229182
0
LINE
8
BLACK
6
CONTINUOUS
10
-0.065748
20
0.229182
11
-0.065748
21
0.370818
0
LINE
8
BLACK
6
CONTINUOUS
10
-0.065748
20
0.370818
11
-0.0657528
21
0.370866
0
LINE
8
BLACK
6
CONTINUOUS
10
-0.0657528
20
0.370866
11
-0.0657337
21
0.371059
0
LINE
8
BLACK
6
CONTINUOUS
10
-0.0657337
20
0.371059
11
-0.0656775
21
0.371245
0
LINE
8
BLACK
6
CONTINUOUS
10
-0.0656775
20
0.371245
11
-0.0655861
21
0.371416
0
LINE
8
BLACK
6
CONTINUOUS
10
-0.0655861
20
0.371416
11
-0.0654631
21
0.371565
0
LINE
8
BLACK
6
CONTINUOUS
10
-0.0654631
20
0.371565
11
-0.0653132
21
0.371688
0
LINE
8
BLACK
6
CONTINUOUS
10
-0.0653132
20
0.371688
11
-0.0651422
21
0.37178
0
LINE
8
BLACK
6
CONTINUOUS
10
-0.0651422
20
0.37178
11
-0.0649567
21
0.371836
0
LINE
8
BLACK
6
CONTINUOUS
10
-0.0649567
20
0.371836
11
-0.0648117
21
0.37185
0
LINE
8
BLACK
6
CONTINUOUS
10
-0.0648117
20
0.37185
11
-0.0647638
21
0.371855
0
LINE
8
BLACK
6
CONTINUOUS
10
-0.0647638
20
0.371855
11
-0.0647159
21
0.37185
0
LINE
8
BLACK
6
CONTINUOUS
10
-0.0647159
20
0.37185
11
-0.057874
21
0.37185
0
LINE
8
BLACK
6
CONTINUOUS
10
-0.057874
20
0.37185
11
-0.057874
21
0.398377
0
LINE
8
BLACK
6
CONTINUOUS
10
-0.057874
20
0.398377
11
-0.0578787
21
0.398425
0
LINE
8
BLACK
6
CONTINUOUS
10
-0.0578787
20
0.398425
11
-0.0578597
21
0.398618
0
LINE
8
BLACK
6
CONTINUOUS
10
-0.0578597
20
0.398618
11
-0.0578035
21
0.398804
0
LINE
8
BLACK
6
CONTINUOUS
10
-0.0578035
20
0.398804
11
-0.0577121
21
0.398975
0
LINE
8
BLACK
6
CONTINUOUS
10
-0.0577121
20
0.398975
11
-0.0575891
21
0.399125
0
LINE
8
BLACK
6
CONTINUOUS
10
-0.0575891
20
0.399125
11
-0.0574392
21
0.399248
0
LINE
8
BLACK
6
CONTINUOUS
10
-0.0574392
20
0.399248
11
-0.0572682
21
0.399339
0
LINE
8
BLACK
6
CONTINUOUS
10
-0.0572682
20
0.399339
11
-0.0570827
21
0.399395
0
LINE
8
BLACK
6
CONTINUOUS
10
-0.0570827
20
0.399395
11
-0.0569377
21
0.399409
0
LINE
8
BLACK
6
CONTINUOUS
10
-0.0569377
20
0.399409
11
-0.0568898
21
0.399414
0
LINE
8
BLACK
6
CONTINUOUS
10
-0.0568898
20
0.399414
11
-0.0568419
21
0.399409
0
LINE
8
BLACK
6
CONTINUOUS
10
-0.0568419
20
0.399409
11
0.0690465
21
0.399409
0
LINE
8
BLACK
6
CONTINUOUS
10
0.0690465
20
0.399409
11
0.0690945
21
0.399414
0
LINE
8
BLACK
6
CONTINUOUS
10
0.0690945
20
0.399414
11
0.0691424
21
0.399409
0
LINE
8
BLACK
6
CONTINUOUS
10
-0.0559055
20
0.397441
11
-0.0559055
21
0.370914
0
LINE
8
BLACK
6
CONTINUOUS
10
-0.0559055
20
0.370914
11
-0.0559008
21
0.370866
0
LINE
8
BLACK
6
CONTINUOUS
10
-0.0559008
20
0.370866
11
-0.0559055
21
0.370818
0
LINE
8
BLACK
6
CONTINUOUS
10
-0.0559055
20
0.370818
11
-0.0559198
21
0.370673
0
LINE
8
BLACK
6
CONTINUOUS
10
-0.0559198
20
0.370673
11
-0.0559761
21
0.370488
0
LINE
8
BLACK
6
CONTINUOUS
10
-0.0559761
20
0.370488
11
-0.0560674
21
0.370317
0
LINE
8
BLACK
6
CONTINUOUS
10
-0.0560674
20
0.370317
11
-0.0561904
21
0.370167
0
LINE
8
BLACK
6
CONTINUOUS
10
-0.0561904
20
0.370167
11
-0.0563403
21
0.370044
0
LINE
8
BLACK
6
CONTINUOUS
10
-0.0563403
20
0.370044
11
-0.0565113
21
0.369952
0
LINE
8
BLACK
6
CONTINUOUS
10
-0.0565113
20
0.369952
11
-0.0566968
21
0.369896
0
LINE
8
BLACK
6
CONTINUOUS
10
-0.0566968
20
0.369896
11
-0.0568898
21
0.369877
0
LINE
8
BLACK
6
CONTINUOUS
10
-0.0568898
20
0.369877
11
-0.0569377
21
0.369882
0
LINE
8
BLACK
6
CONTINUOUS
10
-0.0569377
20
0.369882
11
-0.0637795
21
0.369882
0
LINE
8
BLACK
6
CONTINUOUS
10
-0.0637795
20
0.369882
11
-0.0637795
21
0.230118
0
LINE
8
BLACK
6
CONTINUOUS
10
-0.0637795
20
0.230118
11
-0.0569377
21
0.230118
0
LINE
8
BLACK
6
CONTINUOUS
10
-0.0569377
20
0.230118
11
-0.0568898
21
0.230123
0
LINE
8
BLACK
6
CONTINUOUS
10
-0.0568898
20
0.230123
11
-0.0568419
21
0.230118
0
LINE
8
BLACK
6
CONTINUOUS
10
-0.0568419
20
0.230118
11
-0.0568418
21
0.230118
0
LINE
8
BLACK
6
CONTINUOUS
10
-0.0568418
20
0.230118
11
-0.0566968
21
0.230104
0
LINE
8
BLACK
6
CONTINUOUS
10
-0.0566968
20
0.230104
11
-0.0565113
21
0.230048
0
LINE
8
BLACK
6
CONTINUOUS
10
-0.0565113
20
0.230048
11
-0.0563403
21
0.229956
0
LINE
8
BLACK
6
CONTINUOUS
10
-0.0563403
20
0.229956
11
-0.0561904
21
0.229833
0
LINE
8
BLACK
6
CONTINUOUS
10
-0.0561904
20
0.229833
11
-0.0560674
21
0.229683
0
LINE
8
BLACK
6
CONTINUOUS
10
-0.0560674
20
0.229683
11
-0.0559761
21
0.229512
0
LINE
8
BLACK
6
CONTINUOUS
10
-0.0559761
20
0.229512
11
-0.0559198
21
0.229327
0
LINE
8
BLACK
6
CONTINUOUS
10
-0.0559198
20
0.229327
11
-0.0559008
21
0.229134
0
LINE
8
BLACK
6
CONTINUOUS
10
-0.0559008
20
0.229134
11
-0.0559055
21
0.229086
0
LINE
8
BLACK
6
CONTINUOUS
10
-0.0559055
20
0.229086
11
-0.0559055
21
0.202559
0
LINE
8
BLACK
6
CONTINUOUS
10
-0.0559055
20
0.202559
11
0.0681103
21
0.202559
0
LINE
8
BLACK
6
CONTINUOUS
10
0.0681103
20
0.202559
11
0.0681102
21
0.229086
0
LINE
8
BLACK
6
CONTINUOUS
10
0.0681102
20
0.229086
11
0.0681055
21
0.229134
0
LINE
8
BLACK
6
CONTINUOUS
10
0.0681055
20
0.229134
11
0.0681245
21
0.229327
0
LINE
8
BLACK
6
CONTINUOUS
10
0.0681245
20
0.229327
11
0.0681808
21
0.229512
0
LINE
8
BLACK
6
CONTINUOUS
10
0.0681808
20
0.229512
11
0.0682722
21
0.229683
0
LINE
8
BLACK
6
CONTINUOUS
10
0.0682722
20
0.229683
11
0.0683952
21
0.229833
0
LINE
8
BLACK
6
CONTINUOUS
10
0.0683952
20
0.229833
11
0.068545
21
0.229956
0
LINE
8
BLACK
6
CONTINUOUS
10
0.068545
20
0.229956
11
0.068716
21
0.230048
0
LINE
8
BLACK
6
CONTINUOUS
10
0.068716
20
0.230048
11
0.0689015
21
0.230104
0
LINE
8
BLACK
6
CONTINUOUS
10
0.0689015
20
0.230104
11
0.0690465
21
0.230118
0
LINE
8
BLACK
6
CONTINUOUS
10
0.0690465
20
0.230118
11
0.0690945
21
0.230123
0
LINE
8
BLACK
6
CONTINUOUS
10
0.0690945
20
0.230123
11
0.0691424
21
0.230118
0
LINE
8
BLACK
6
CONTINUOUS
10
0.0691424
20
0.230118
11
0.0759843
21
0.230118
0
LINE
8
BLACK
6
CONTINUOUS
10
0.0759843
20
0.230118
11
0.0759843
21
0.260582
0
LINE
8
BLACK
6
CONTINUOUS
10
0.0759843
20
0.260582
11
0.0759795
21
0.26063
0
LINE
8
BLACK
6
CONTINUOUS
10
0.0759795
20
0.26063
11
0.0759985
21
0.260823
0
LINE
8
BLACK
6
CONTINUOUS
10
0.0759985
20
0.260823
11
0.0760548
21
0.261008
0
LINE
8
BLACK
6
CONTINUOUS
10
0.0760548
20
0.261008
11
0.0761462
21
0.261179
0
LINE
8
BLACK
6
CONTINUOUS
10
0.0761462
20
0.261179
11
0.0762692
21
0.261329
0
LINE
8
BLACK
6
CONTINUOUS
10
0.0762692
20
0.261329
11
0.0764191
21
0.261452
0
LINE
8
BLACK
6
CONTINUOUS
10
0.0764191
20
0.261452
11
0.07659
21
0.261544
0
LINE
8
BLACK
6
CONTINUOUS
10
0.07659
20
0.261544
11
0.0767756
21
0.2616
0
LINE
8
BLACK
6
CONTINUOUS
10
0.0767756
20
0.2616
11
0.0769206
21
0.261614
0
LINE
8
BLACK
6
CONTINUOUS
10
0.0769206
20
0.261614
11
0.0769685
21
0.261619
0
LINE
8
BLACK
6
CONTINUOUS
10
0.0769685
20
0.261619
11
0.0770164
21
0.261614
0
LINE
8
BLACK
6
CONTINUOUS
10
0.0770164
20
0.261614
11
0.103543
21
0.261614
0
LINE
8
BLACK
6
CONTINUOUS
10
0.103543
20
0.261614
11
0.103543
21
0.338386
0
LINE
8
BLACK
6
CONTINUOUS
10
0.103543
20
0.338386
11
0.0770165
21
0.338386
0
LINE
8
BLACK
6
CONTINUOUS
10
0.0770165
20
0.338386
11
0.0769685
21
0.338381
0
LINE
8
BLACK
6
CONTINUOUS
10
0.0769685
20
0.338381
11
0.0769206
21
0.338386
0
LINE
8
BLACK
6
CONTINUOUS
10
0.0769206
20
0.338386
11
0.0769206
21
0.338386
0
LINE
8
BLACK
6
CONTINUOUS
10
0.0769206
20
0.338386
11
0.0767756
21
0.3384
0
LINE
8
BLACK
6
CONTINUOUS
10
0.0767756
20
0.3384
11
0.07659
21
0.338456
0
LINE
8
BLACK
6
CONTINUOUS
10
0.07659
20
0.338456
11
0.0764191
21
0.338548
0
LINE
8
BLACK
6
CONTINUOUS
10
0.0764191
20
0.338548
11
0.0762692
21
0.338671
0
LINE
8
BLACK
6
CONTINUOUS
10
0.0762692
20
0.338671
11
0.0761462
21
0.338821
0
LINE
8
BLACK
6
CONTINUOUS
10
0.0761462
20
0.338821
11
0.0760548
21
0.338992
0
LINE
8
BLACK
6
CONTINUOUS
10
0.0760548
20
0.338992
11
0.0759985
21
0.339177
0
LINE
8
BLACK
6
CONTINUOUS
10
0.0759985
20
0.339177
11
0.0759795
21
0.33937
0
LINE
8
BLACK
6
CONTINUOUS
10
0.0759795
20
0.33937
11
0.0759843
21
0.339418
0
LINE
8
BLACK
6
CONTINUOUS
10
0.0759843
20
0.339418
11
0.0759843
21
0.369882
0
LINE
8
BLACK
6
CONTINUOUS
10
0.0759843
20
0.369882
11
0.0691424
21
0.369882
0
LINE
8
BLACK
6
CONTINUOUS
10
0.0691424
20
0.369882
11
0.0690945
21
0.369877
0
LINE
8
BLACK
6
CONTINUOUS
10
0.0690945
20
0.369877
11
0.0690466
21
0.369882
0
LINE
8
BLACK
6
CONTINUOUS
10
0.0690466
20
0.369882
11
0.0690465
21
0.369882
0
LINE
8
BLACK
6
CONTINUOUS
10
0.0690465
20
0.369882
11
0.0689015
21
0.369896
0
LINE
8
BLACK
6
CONTINUOUS
10
0.0689015
20
0.369896
11
0.068716
21
0.369952
0
LINE
8
BLACK
6
CONTINUOUS
10
0.068716
20
0.369952
11
0.068545
21
0.370044
0
LINE
8
BLACK
6
CONTINUOUS
10
0.068545
20
0.370044
11
0.0683952
21
0.370167
0
LINE
8
BLACK
6
CONTINUOUS
10
0.0683952
20
0.370167
11
0.0682722
21
0.370317
0
LINE
8
BLACK
6
CONTINUOUS
10
0.0682722
20
0.370317
11
0.0681808
21
0.370488
0
LINE
8
BLACK
6
CONTINUOUS
10
0.0681808
20
0.370488
11
0.0681245
21
0.370673
0
LINE
8
BLACK
6
CONTINUOUS
10
0.0681245
20
0.370673
11
0.0681055
21
0.370866
0
LINE
8
BLACK
6
CONTINUOUS
10
0.0681055
20
0.370866
11
0.0681103
21
0.370914
0
LINE
8
BLACK
6
CONTINUOUS
10
0.0681103
20
0.370914
11
0.0681102
21
0.397441
0
LINE
8
BLACK
6
CONTINUOUS
10
0.0681102
20
0.397441
11
-0.0559055
21
0.397441
0
LINE
8
BLACK
6
CONTINUOUS
10
0.969851
20
0.194449
11
0.969851
21
0.194449
0
LINE
8
BLACK
6
CONTINUOUS
10
0.969851
20
0.194449
11
0.969996
21
0.194435
0
LINE
8
BLACK
6
CONTINUOUS
10
0.969996
20
0.194435
11
0.970182
21
0.194378
0
LINE
8
BLACK
6
CONTINUOUS
10
0.970182
20
0.194378
11
0.970353
21
0.194287
0
LINE
8
BLACK
6
CONTINUOUS
10
0.970353
20
0.194287
11
0.970502
21
0.194164
0
LINE
8
BLACK
6
CONTINUOUS
10
0.970502
20
0.194164
11
0.970625
21
0.194014
0
LINE
8
BLACK
6
CONTINUOUS
10
0.970625
20
0.194014
11
0.970717
21
0.193843
0
LINE
8
BLACK
6
CONTINUOUS
10
0.970717
20
0.193843
11
0.970773
21
0.193658
0
LINE
8
BLACK
6
CONTINUOUS
10
0.970773
20
0.193658
11
0.970792
21
0.193465
0
LINE
8
BLACK
6
CONTINUOUS
10
0.970792
20
0.193465
11
0.970787
21
0.193417
0
LINE
8
BLACK
6
CONTINUOUS
10
0.970787
20
0.193417
11
0.970787
21
0.0517802
0
LINE
8
BLACK
6
CONTINUOUS
10
0.970787
20
0.0517802
11
0.970792
21
0.0517323
0
LINE
8
BLACK
6
CONTINUOUS
10
0.970792
20
0.0517323
11
0.970787
21
0.0516844
0
LINE
8
BLACK
6
CONTINUOUS
10
0.970787
20
0.0516844
11
0.970787
21
0.0516843
0
LINE
8
BLACK
6
CONTINUOUS
10
0.970787
20
0.0516843
11
0.970773
21
0.0515393
0
LINE
8
BLACK
6
CONTINUOUS
10
0.970773
20
0.0515393
11
0.970717
21
0.0513538
0
LINE
8
BLACK
6
CONTINUOUS
10
0.970717
20
0.0513538
11
0.970625
21
0.0511828
0
LINE
8
BLACK
6
CONTINUOUS
10
0.970625
20
0.0511828
11
0.970502
21
0.051033
0
LINE
8
BLACK
6
CONTINUOUS
10
0.970502
20
0.051033
11
0.970353
21
0.05091
0
LINE
8
BLACK
6
CONTINUOUS
10
0.970353
20
0.05091
11
0.970182
21
0.0508186
0
LINE
8
BLACK
6
CONTINUOUS
10
0.970182
20
0.0508186
11
0.969996
21
0.0507623
0
LINE
8
BLACK
6
CONTINUOUS
10
0.969996
20
0.0507623
11
0.969803
21
0.0507433
0
LINE
8
BLACK
6
CONTINUOUS
10
0.969803
20
0.0507433
11
0.969755
21
0.050748
0
LINE
8
BLACK
6
CONTINUOUS
10
0.969755
20
0.050748
11
0.820245
21
0.050748
0
LINE
8
BLACK
6
CONTINUOUS
10
0.820245
20
0.050748
11
0.820197
21
0.0507433
0
LINE
8
BLACK
6
CONTINUOUS
10
0.820197
20
0.0507433
11
0.820004
21
0.0507623
0
LINE
8
BLACK
6
CONTINUOUS
10
0.820004
20
0.0507623
11
0.819818
21
0.0508186
0
LINE
8
BLACK
6
CONTINUOUS
10
0.819818
20
0.0508186
11
0.819647
21
0.05091
0
LINE
8
BLACK
6
CONTINUOUS
10
0.819647
20
0.05091
11
0.819498
21
0.051033
0
LINE
8
BLACK
6
CONTINUOUS
10
0.819498
20
0.051033
11
0.819388
21
0.0511659
0
LINE
8
BLACK
6
CONTINUOUS
10
0.819388
20
0.0511659
11
0.819375
21
0.0511828
0
LINE
8
BLACK
6
CONTINUOUS
10
0.819375
20
0.0511828
11
0.819283
21
0.0513538
0
LINE
8
BLACK
6
CONTINUOUS
10
0.819283
20
0.0513538
11
0.819227
21
0.0515393
0
LINE
8
BLACK
6
CONTINUOUS
10
0.819227
20
0.0515393
11
0.819208
21
0.0517323
0
LINE
8
BLACK
6
CONTINUOUS
10
0.819208
20
0.0517323
11
0.819213
21
0.0517802
0
LINE
8
BLACK
6
CONTINUOUS
10
0.819213
20
0.0517802
11
0.819213
21
0.193416
0
LINE
8
BLACK
6
CONTINUOUS
10
0.819213
20
0.193416
11
0.819208
21
0.193465
0
LINE
8
BLACK
6
CONTINUOUS
10
0.819208
20
0.193465
11
0.819227
21
0.193658
0
LINE
8
BLACK
6
CONTINUOUS
10
0.819227
20
0.193658
11
0.819283
21
0.193843
0
LINE
8
BLACK
6
CONTINUOUS
10
0.819283
20
0.193843
11
0.819375
21
0.194014
0
LINE
8
BLACK
6
CONTINUOUS
10
0.819375
20
0.194014
11
0.819498
21
0.194164
0
LINE
8
BLACK
6
CONTINUOUS
10
0.819498
20
0.194164
11
0.819647
21
0.194287
0
LINE
8
BLACK
6
CONTINUOUS
10
0.819647
20
0.194287
11
0.819818
21
0.194378
0
LINE
8
BLACK
6
CONTINUOUS
10
0.819818
20
0.194378
11
0.820004
21
0.194435
0
LINE
8
BLACK
6
CONTINUOUS
10
0.820004
20
0.194435
11
0.820149
21
0.194449
0
LINE
8
BLACK
6
CONTINUOUS
10
0.820149
20
0.194449
11
0.820149
21
0.194449
0
LINE
8
BLACK
6
CONTINUOUS
10
0.820149
20
0.194449
11
0.820197
21
0.194454
0
LINE
8
BLACK
6
CONTINUOUS
10
0.820197
20
0.194454
11
0.820245
21
0.194449
0
LINE
8
BLACK
6
CONTINUOUS
10
0.820245
20
0.194449
11
0.969755
21
0.194449
0
LINE
8
BLACK
6
CONTINUOUS
10
0.969755
20
0.194449
11
0.969803
21
0.194454
0
LINE
8
BLACK
6
CONTINUOUS
10
0.969803
20
0.194454
11
0.969851
21
0.194449
0
LINE
8
BLACK
6
CONTINUOUS
10
0.821181
20
0.19248
11
0.821181
21
0.0527165
0
LINE
8
BLACK
6
CONTINUOUS
10
0.821181
20
0.0527165
11
0.968819
21
0.0527165
0
LINE
8
BLACK
6
CONTINUOUS
10
0.968819
20
0.0527165
11
0.968819
21
0.19248
0
LINE
8
BLACK
6
CONTINUOUS
10
0.968819
20
0.19248
11
0.821181
21
0.19248
0
LINE
8
BLACK
6
CONTINUOUS
10
0.813788
20
0.188248
11
0.813788
21
0.188248
0
LINE
8
BLACK
6
CONTINUOUS
10
0.813788
20
0.188248
11
0.813933
21
0.188234
0
LINE
8
BLACK
6
CONTINUOUS
10
0.813933
20
0.188234
11
0.814119
21
0.188177
0
LINE
8
BLACK
6
CONTINUOUS
10
0.814119
20
0.188177
11
0.81429
21
0.188086
0
LINE
8
BLACK
6
CONTINUOUS
10
0.81429
20
0.188086
11
0.814439
21
0.187963
0
LINE
8
BLACK
6
CONTINUOUS
10
0.814439
20
0.187963
11
0.814562
21
0.187813
0
LINE
8
BLACK
6
CONTINUOUS
10
0.814562
20
0.187813
11
0.814654
21
0.187642
0
LINE
8
BLACK
6
CONTINUOUS
10
0.814654
20
0.187642
11
0.81471
21
0.187457
0
LINE
8
BLACK
6
CONTINUOUS
10
0.81471
20
0.187457
11
0.814729
21
0.187264
0
LINE
8
BLACK
6
CONTINUOUS
10
0.814729
20
0.187264
11
0.814724
21
0.187216
0
LINE
8
BLACK
6
CONTINUOUS
10
0.814724
20
0.187216
11
0.814724
21
0.0707763
0
LINE
8
BLACK
6
CONTINUOUS
10
0.814724
20
0.0707763
11
0.814729
21
0.0707283
0
LINE
8
BLACK
6
CONTINUOUS
10
0.814729
20
0.0707283
11
0.814724
21
0.0706804
0
LINE
8
BLACK
6
CONTINUOUS
10
0.814724
20
0.0706804
11
0.814724
21
0.0706804
0
LINE
8
BLACK
6
CONTINUOUS
10
0.814724
20
0.0706804
11
0.81471
21
0.0705354
0
LINE
8
BLACK
6
CONTINUOUS
10
0.81471
20
0.0705354
11
0.814654
21
0.0703499
0
LINE
8
BLACK
6
CONTINUOUS
10
0.814654
20
0.0703499
11
0.814562
21
0.0701789
0
LINE
8
BLACK
6
CONTINUOUS
10
0.814562
20
0.0701789
11
0.814439
21
0.070029
0
LINE
8
BLACK
6
CONTINUOUS
10
0.814439
20
0.070029
11
0.81429
21
0.069906
0
LINE
8
BLACK
6
CONTINUOUS
10
0.81429
20
0.069906
11
0.814119
21
0.0698146
0
LINE
8
BLACK
6
CONTINUOUS
10
0.814119
20
0.0698146
11
0.813933
21
0.0697584
0
LINE
8
BLACK
6
CONTINUOUS
10
0.813933
20
0.0697584
11
0.81374
21
0.0697394
0
LINE
8
BLACK
6
CONTINUOUS
10
0.81374
20
0.0697394
11
0.813692
21
0.0697441
0
LINE
8
BLACK
6
CONTINUOUS
10
0.813692
20
0.0697441
11
0.756308
21
0.0697441
0
LINE
8
BLACK
6
CONTINUOUS
10
0.756308
20
0.0697441
11
0.75626
21
0.0697394
0
LINE
8
BLACK
6
CONTINUOUS
10
0.75626
20
0.0697394
11
0.756067
21
0.0697584
0
LINE
8
BLACK
6
CONTINUOUS
10
0.756067
20
0.0697584
11
0.755881
21
0.0698146
0
LINE
8
BLACK
6
CONTINUOUS
10
0.755881
20
0.0698146
11
0.75571
21
0.069906
0
LINE
8
BLACK
6
CONTINUOUS
10
0.75571
20
0.069906
11
0.755561
21
0.070029
0
LINE
8
BLACK
6
CONTINUOUS
10
0.755561
20
0.070029
11
0.755438
21
0.0701789
0
LINE
8
BLACK
6
CONTINUOUS
10
0.755438
20
0.0701789
11
0.755346
21
0.0703499
0
LINE
8
BLACK
6
CONTINUOUS
10
0.755346
20
0.0703499
11
0.75529
21
0.0705354
0
LINE
8
BLACK
6
CONTINUOUS
10
0.75529
20
0.0705354
11
0.755271
21
0.0707283
0
LINE
8
BLACK
6
CONTINUOUS
10
0.755271
20
0.0707283
11
0.755276
21
0.0707763
0
LINE
8
BLACK
6
CONTINUOUS
10
0.755276
20
0.0707763
11
0.755276
21
0.187215
0
LINE
8
BLACK
6
CONTINUOUS
10
0.755276
20
0.187215
11
0.755271
21
0.187264
0
LINE
8
BLACK
6
CONTINUOUS
10
0.755271
20
0.187264
11
0.75529
21
0.187457
0
LINE
8
BLACK
6
CONTINUOUS
10
0.75529
20
0.187457
11
0.755346
21
0.187642
0
LINE
8
BLACK
6
CONTINUOUS
10
0.755346
20
0.187642
11
0.755438
21
0.187813
0
LINE
8
BLACK
6
CONTINUOUS
10
0.755438
20
0.187813
11
0.755561
21
0.187963
0
LINE
8
BLACK
6
CONTINUOUS
10
0.755561
20
0.187963
11
0.75571
21
0.188086
0
LINE
8
BLACK
6
CONTINUOUS
10
0.75571
20
0.188086
11
0.755881
21
0.188177
0
LINE
8
BLACK
6
CONTINUOUS
10
0.755881
20
0.188177
11
0.756067
21
0.188234
0
LINE
8
BLACK
6
CONTINUOUS
10
0.756067
20
0.188234
11
0.756212
21
0.188248
0
LINE
8
BLACK
6
CONTINUOUS
10
0.756212
20
0.188248
11
0.756212
21
0.188248
0
LINE
8
BLACK
6
CONTINUOUS
10
0.756212
20
0.188248
11
0.75626
21
0.188253
0
LINE
8
BLACK
6
CONTINUOUS
10
0.75626
20
0.188253
11
0.756308
21
0.188248
0
LINE
8
BLACK
6
CONTINUOUS
10
0.756308
20
0.188248
11
0.813692
21
0.188248
0
LINE
8
BLACK
6
CONTINUOUS
10
0.813692
20
0.188248
11
0.81374
21
0.188253
0
LINE
8
BLACK
6
CONTINUOUS
10
0.81374
20
0.188253
11
0.813788
21
0.188248
0
LINE
8
BLACK
6
CONTINUOUS
10
0.757244
20
0.18628
11
0.757244
21
0.0717126
0
LINE
8
BLACK
6
CONTINUOUS
10
0.757244
20
0.0717126
11
0.812756
21
0.0717126
0
LINE
8
BLACK
6
CONTINUOUS
10
0.812756
20
0.0717126
11
0.812756
21
0.18628
0
LINE
8
BLACK
6
CONTINUOUS
10
0.812756
20
0.18628
11
0.757244
21
0.18628
0
LINE
8
BLACK
6
CONTINUOUS
10
1.10832
20
0.129724
11
1.10832
21
0.129724
0
LINE
8
BLACK
6
CONTINUOUS
10
1.10832
20
0.129724
11
1.10846
21
0.12971
0
LINE
8
BLACK
6
CONTINUOUS
10
1.10846
20
0.12971
11
1.10865
21
0.129654
0
LINE
8
BLACK
6
CONTINUOUS
10
1.10865
20
0.129654
11
1.10882
21
0.129562
0
LINE
8
BLACK
6
CONTINUOUS
10
1.10882
20
0.129562
11
1.10897
21
0.129439
0
LINE
8
BLACK
6
CONTINUOUS
10
1.10897
20
0.129439
11
1.10909
21
0.12929
0
LINE
8
BLACK
6
CONTINUOUS
10
1.10909
20
0.12929
11
1.10918
21
0.129119
0
LINE
8
BLACK
6
CONTINUOUS
10
1.10918
20
0.129119
11
1.10924
21
0.128933
0
LINE
8
BLACK
6
CONTINUOUS
10
1.10924
20
0.128933
11
1.10926
21
0.12874
0
LINE
8
BLACK
6
CONTINUOUS
10
1.10926
20
0.12874
11
1.10925
21
0.128692
0
LINE
8
BLACK
6
CONTINUOUS
10
1.10925
20
0.128692
11
1.10925
21
0.0713078
0
LINE
8
BLACK
6
CONTINUOUS
10
1.10925
20
0.0713078
11
1.10926
21
0.0712598
0
LINE
8
BLACK
6
CONTINUOUS
10
1.10926
20
0.0712598
11
1.10925
21
0.0712119
0
LINE
8
BLACK
6
CONTINUOUS
10
1.10925
20
0.0712119
11
1.10925
21
0.0712119
0
LINE
8
BLACK
6
CONTINUOUS
10
1.10925
20
0.0712119
11
1.10924
21
0.0710669
0
LINE
8
BLACK
6
CONTINUOUS
10
1.10924
20
0.0710669
11
1.10918
21
0.0708814
0
LINE
8
BLACK
6
CONTINUOUS
10
1.10918
20
0.0708814
11
1.10909
21
0.0707104
0
LINE
8
BLACK
6
CONTINUOUS
10
1.10909
20
0.0707104
11
1.10897
21
0.0705605
0
LINE
8
BLACK
6
CONTINUOUS
10
1.10897
20
0.0705605
11
1.10882
21
0.0704375
0
LINE
8
BLACK
6
CONTINUOUS
10
1.10882
20
0.0704375
11
1.10865
21
0.0703461
0
LINE
8
BLACK
6
CONTINUOUS
10
1.10865
20
0.0703461
11
1.10846
21
0.0702899
0
LINE
8
BLACK
6
CONTINUOUS
10
1.10846
20
0.0702899
11
1.10827
21
0.0702709
0
LINE
8
BLACK
6
CONTINUOUS
10
1.10827
20
0.0702709
11
1.10822
21
0.0702756
0
LINE
8
BLACK
6
CONTINUOUS
10
1.10822
20
0.0702756
11
0.99178
21
0.0702756
0
LINE
8
BLACK
6
CONTINUOUS
10
0.99178
20
0.0702756
11
0.991732
21
0.0702709
0
LINE
8
BLACK
6
CONTINUOUS
10
0.991732
20
0.0702709
11
0.991539
21
0.0702899
0
LINE
8
BLACK
6
CONTINUOUS
10
0.991539
20
0.0702899
11
0.991354
21
0.0703461
0
LINE
8
BLACK
6
CONTINUOUS
10
0.991354
20
0.0703461
11
0.991183
21
0.0704375
0
LINE
8
BLACK
6
CONTINUOUS
10
0.991183
20
0.0704375
11
0.991033
21
0.0705605
0
LINE
8
BLACK
6
CONTINUOUS
10
0.991033
20
0.0705605
11
0.99091
21
0.0707104
0
LINE
8
BLACK
6
CONTINUOUS
10
0.99091
20
0.0707104
11
0.990819
21
0.0708814
0
LINE
8
BLACK
6
CONTINUOUS
10
0.990819
20
0.0708814
11
0.990762
21
0.0710669
0
LINE
8
BLACK
6
CONTINUOUS
10
0.990762
20
0.0710669
11
0.990743
21
0.0712598
0
LINE
8
BLACK
6
CONTINUOUS
10
0.990743
20
0.0712598
11
0.990748
21
0.0713078
0
LINE
8
BLACK
6
CONTINUOUS
10
0.990748
20
0.0713078
11
0.990748
21
0.128692
0
LINE
8
BLACK
6
CONTINUOUS
10
0.990748
20
0.128692
11
0.990743
21
0.12874
0
LINE
8
BLACK
6
CONTINUOUS
10
0.990743
20
0.12874
11
0.990762
21
0.128933
0
LINE
8
BLACK
6
CONTINUOUS
10
0.990762
20
0.128933
11
0.990819
21
0.129119
0
LINE
8
BLACK
6
CONTINUOUS
10
0.990819
20
0.129119
11
0.99091
21
0.12929
0
LINE
8
BLACK
6
CONTINUOUS
10
0.99091
20
0.12929
11
0.991033
21
0.129439
0
LINE
8
BLACK
6
CONTINUOUS
10
0.991033
20
0.129439
11
0.991183
21
0.129562
0
LINE
8
BLACK
6
CONTINUOUS
10
0.991183
20
0.129562
11
0.991354
21
0.129654
0
LINE
8
BLACK
6
CONTINUOUS
10
0.991354
20
0.129654
11
0.991539
21
0.12971
0
LINE
8
BLACK
6
CONTINUOUS
10
0.991539
20
0.12971
11
0.991684
21
0.129724
0
LINE
8
BLACK
6
CONTINUOUS
10
0.991684
20
0.129724
11
0.991684
21
0.129724
0
LINE
8
BLACK
6
CONTINUOUS
10
0.991684
20
0.129724
11
0.991732
21
0.129729
0
LINE
8
BLACK
6
CONTINUOUS
10
0.991732
20
0.129729
11
0.99178
21
0.129724
0
LINE
8
BLACK
6
CONTINUOUS
10
0.99178
20
0.129724
11
1.10822
21
0.129724
0
LINE
8
BLACK
6
CONTINUOUS
10
1.10822
20
0.129724
11
1.10827
21
0.129729
0
LINE
8
BLACK
6
CONTINUOUS
10
1.10827
20
0.129729
11
1.10832
21
0.129724
0
LINE
8
BLACK
6
CONTINUOUS
10
0.992717
20
0.127756
11
0.992717
21
0.0722441
0
LINE
8
BLACK
6
CONTINUOUS
10
0.992717
20
0.0722441
11
1.10728
21
0.0722441
0
LINE
8
BLACK
6
CONTINUOUS
10
1.10728
20
0.0722441
11
1.10728
21
0.127756
0
LINE
8
BLACK
6
CONTINUOUS
10
1.10728
20
0.127756
11
0.992717
21
0.127756
0
LINE
8
BLACK
6
CONTINUOUS
10
0.778316
20
0.309724
11
0.778316
21
0.309724
0
LINE
8
BLACK
6
CONTINUOUS
10
0.778316
20
0.309724
11
0.778461
21
0.30971
0
LINE
8
BLACK
6
CONTINUOUS
10
0.778461
20
0.30971
11
0.778646
21
0.309654
0
LINE
8
BLACK
6
CONTINUOUS
10
0.778646
20
0.309654
11
0.778817
21
0.309562
0
LINE
8
BLACK
6
CONTINUOUS
10
0.778817
20
0.309562
11
0.778967
21
0.309439
0
LINE
8
BLACK
6
CONTINUOUS
10
0.778967
20
0.309439
11
0.77909
21
0.30929
0
LINE
8
BLACK
6
CONTINUOUS
10
0.77909
20
0.30929
11
0.779181
21
0.309119
0
LINE
8
BLACK
6
CONTINUOUS
10
0.779181
20
0.309119
11
0.779238
21
0.308933
0
LINE
8
BLACK
6
CONTINUOUS
10
0.779238
20
0.308933
11
0.779257
21
0.30874
0
LINE
8
BLACK
6
CONTINUOUS
10
0.779257
20
0.30874
11
0.779252
21
0.308692
0
LINE
8
BLACK
6
CONTINUOUS
10
0.779252
20
0.308692
11
0.779252
21
0.251308
0
LINE
8
BLACK
6
CONTINUOUS
10
0.779252
20
0.251308
11
0.779257
21
0.25126
0
LINE
8
BLACK
6
CONTINUOUS
10
0.779257
20
0.25126
11
0.779252
21
0.251212
0
LINE
8
BLACK
6
CONTINUOUS
10
0.779252
20
0.251212
11
0.779252
21
0.251212
0
LINE
8
BLACK
6
CONTINUOUS
10
0.779252
20
0.251212
11
0.779238
21
0.251067
0
LINE
8
BLACK
6
CONTINUOUS
10
0.779238
20
0.251067
11
0.779181
21
0.250881
0
LINE
8
BLACK
6
CONTINUOUS
10
0.779181
20
0.250881
11
0.77909
21
0.25071
0
LINE
8
BLACK
6
CONTINUOUS
10
0.77909
20
0.25071
11
0.778967
21
0.250561
0
LINE
8
BLACK
6
CONTINUOUS
10
0.778967
20
0.250561
11
0.778817
21
0.250438
0
LINE
8
BLACK
6
CONTINUOUS
10
0.778817
20
0.250438
11
0.778646
21
0.250346
0
LINE
8
BLACK
6
CONTINUOUS
10
0.778646
20
0.250346
11
0.778461
21
0.25029
0
LINE
8
BLACK
6
CONTINUOUS
10
0.778461
20
0.25029
11
0.778268
21
0.250271
0
LINE
8
BLACK
6
CONTINUOUS
10
0.778268
20
0.250271
11
0.77822
21
0.250276
0
LINE
8
BLACK
6
CONTINUOUS
10
0.77822
20
0.250276
11
0.66178
21
0.250276
0
LINE
8
BLACK
6
CONTINUOUS
10
0.66178
20
0.250276
11
0.661732
21
0.250271
0
LINE
8
BLACK
6
CONTINUOUS
10
0.661732
20
0.250271
11
0.661539
21
0.25029
0
LINE
8
BLACK
6
CONTINUOUS
10
0.661539
20
0.25029
11
0.661354
21
0.250346
0
LINE
8
BLACK
6
CONTINUOUS
10
0.661354
20
0.250346
11
0.661183
21
0.250438
0
LINE
8
BLACK
6
CONTINUOUS
10
0.661183
20
0.250438
11
0.661033
21
0.250561
0
LINE
8
BLACK
6
CONTINUOUS
10
0.661033
20
0.250561
11
0.66091
21
0.25071
0
LINE
8
BLACK
6
CONTINUOUS
10
0.66091
20
0.25071
11
0.660819
21
0.250881
0
LINE
8
BLACK
6
CONTINUOUS
10
0.660819
20
0.250881
11
0.660762
21
0.251067
0
LINE
8
BLACK
6
CONTINUOUS
10
0.660762
20
0.251067
11
0.660743
21
0.25126
0
LINE
8
BLACK
6
CONTINUOUS
10
0.660743
20
0.25126
11
0.660748
21
0.251308
0
LINE
8
BLACK
6
CONTINUOUS
10
0.660748
20
0.251308
11
0.660748
21
0.308692
0
LINE
8
BLACK
6
CONTINUOUS
10
0.660748
20
0.308692
11
0.660743
21
0.30874
0
LINE
8
BLACK
6
CONTINUOUS
10
0.660743
20
0.30874
11
0.660762
21
0.308933
0
LINE
8
BLACK
6
CONTINUOUS
10
0.660762
20
0.308933
11
0.660819
21
0.309119
0
LINE
8
BLACK
6
CONTINUOUS
10
0.660819
20
0.309119
11
0.66091
21
0.30929
0
LINE
8
BLACK
6
CONTINUOUS
10
0.66091
20
0.30929
11
0.661033
21
0.309439
0
LINE
8
BLACK
6
CONTINUOUS
10
0.661033
20
0.309439
11
0.661183
21
0.309562
0
LINE
8
BLACK
6
CONTINUOUS
10
0.661183
20
0.309562
11
0.661354
21
0.309654
0
LINE
8
BLACK
6
CONTINUOUS
10
0.661354
20
0.309654
11
0.661539
21
0.30971
0
LINE
8
BLACK
6
CONTINUOUS
10
0.661539
20
0.30971
11
0.661684
21
0.309724
0
LINE
8
BLACK
6
CONTINUOUS
10
0.661684
20
0.309724
11
0.661684
21
0.309724
0
LINE
8
BLACK
6
CONTINUOUS
10
0.661684
20
0.309724
11
0.661732
21
0.309729
0
LINE
8
BLACK
6
CONTINUOUS
10
0.661732
20
0.309729
11
0.66178
21
0.309724
0
LINE
8
BLACK
6
CONTINUOUS
10
0.66178
20
0.309724
11
0.77822
21
0.309724
0
LINE
8
BLACK
6
CONTINUOUS
10
0.77822
20
0.309724
11
0.778268
21
0.309729
0
LINE
8
BLACK
6
CONTINUOUS
10
0.778268
20
0.309729
11
0.778316
21
0.309724
0
LINE
8
BLACK
6
CONTINUOUS
10
0.662717
20
0.307756
11
0.662717
21
0.252244
0
LINE
8
BLACK
6
CONTINUOUS
10
0.662717
20
0.252244
11
0.777284
21
0.252244
0
LINE
8
BLACK
6
CONTINUOUS
10
0.777284
20
0.252244
11
0.777283
21
0.307756
0
LINE
8
BLACK
6
CONTINUOUS
10
0.777283
20
0.307756
11
0.662717
21
0.307756
0
LINE
8
BLACK
6
CONTINUOUS
10
0.778316
20
0.369724
11
0.778316
21
0.369724
0
LINE
8
BLACK
6
CONTINUOUS
10
0.778316
20
0.369724
11
0.778461
21
0.36971
0
LINE
8
BLACK
6
CONTINUOUS
10
0.778461
20
0.36971
11
0.778646
21
0.369654
0
LINE
8
BLACK
6
CONTINUOUS
10
0.778646
20
0.369654
11
0.778817
21
0.369562
0
LINE
8
BLACK
6
CONTINUOUS
10
0.778817
20
0.369562
11
0.778967
21
0.369439
0
LINE
8
BLACK
6
CONTINUOUS
10
0.778967
20
0.369439
11
0.77909
21
0.36929
0
LINE
8
BLACK
6
CONTINUOUS
10
0.77909
20
0.36929
11
0.779181
21
0.369119
0
LINE
8
BLACK
6
CONTINUOUS
10
0.779181
20
0.369119
11
0.779238
21
0.368933
0
LINE
8
BLACK
6
CONTINUOUS
10
0.779238
20
0.368933
11
0.779257
21
0.36874
0
LINE
8
BLACK
6
CONTINUOUS
10
0.779257
20
0.36874
11
0.779252
21
0.368692
0
LINE
8
BLACK
6
CONTINUOUS
10
0.779252
20
0.368692
11
0.779252
21
0.311308
0
LINE
8
BLACK
6
CONTINUOUS
10
0.779252
20
0.311308
11
0.779257
21
0.31126
0
LINE
8
BLACK
6
CONTINUOUS
10
0.779257
20
0.31126
11
0.779252
21
0.311212
0
LINE
8
BLACK
6
CONTINUOUS
10
0.779252
20
0.311212
11
0.779252
21
0.311212
0
LINE
8
BLACK
6
CONTINUOUS
10
0.779252
20
0.311212
11
0.779238
21
0.311067
0
LINE
8
BLACK
6
CONTINUOUS
10
0.779238
20
0.311067
11
0.779181
21
0.310881
0
LINE
8
BLACK
6
CONTINUOUS
10
0.779181
20
0.310881
11
0.77909
21
0.31071
0
LINE
8
BLACK
6
CONTINUOUS
10
0.77909
20
0.31071
11
0.778967
21
0.310561
0
LINE
8
BLACK
6
CONTINUOUS
10
0.778967
20
0.310561
11
0.778817
21
0.310438
0
LINE
8
BLACK
6
CONTINUOUS
10
0.778817
20
0.310438
11
0.778646
21
0.310346
0
LINE
8
BLACK
6
CONTINUOUS
10
0.778646
20
0.310346
11
0.778461
21
0.31029
0
LINE
8
BLACK
6
CONTINUOUS
10
0.778461
20
0.31029
11
0.778268
21
0.310271
0
LINE
8
BLACK
6
CONTINUOUS
10
0.778268
20
0.310271
11
0.77822
21
0.310276
0
LINE
8
BLACK
6
CONTINUOUS
10
0.77822
20
0.310276
11
0.66178
21
0.310276
0
LINE
8
BLACK
6
CONTINUOUS
10
0.66178
20
0.310276
11
0.661732
21
0.310271
0
LINE
8
BLACK
6
CONTINUOUS
10
0.661732
20
0.310271
11
0.661539
21
0.31029
0
LINE
8
BLACK
6
CONTINUOUS
10
0.661539
20
0.31029
11
0.661354
21
0.310346
0
LINE
8
BLACK
6
CONTINUOUS
10
0.661354
20
0.310346
11
0.661183
21
0.310438
0
LINE
8
BLACK
6
CONTINUOUS
10
0.661183
20
0.310438
11
0.661033
21
0.310561
0
LINE
8
BLACK
6
CONTINUOUS
10
0.661033
20
0.310561
11
0.66091
21
0.31071
0
LINE
8
BLACK
6
CONTINUOUS
10
0.66091
20
0.31071
11
0.660819
21
0.310881
0
LINE
8
BLACK
6
CONTINUOUS
10
0.660819
20
0.310881
11
0.660762
21
0.311067
0
LINE
8
BLACK
6
CONTINUOUS
10
0.660762
20
0.311067
11
0.660743
21
0.31126
0
LINE
8
BLACK
6
CONTINUOUS
10
0.660743
20
0.31126
11
0.660748
21
0.311308
0
LINE
8
BLACK
6
CONTINUOUS
10
0.660748
20
0.311308
11
0.660748
21
0.368692
0
LINE
8
BLACK
6
CONTINUOUS
10
0.660748
20
0.368692
11
0.660743
21
0.36874
0
LINE
8
BLACK
6
CONTINUOUS
10
0.660743
20
0.36874
11
0.660762
21
0.368933
0
LINE
8
BLACK
6
CONTINUOUS
10
0.660762
20
0.368933
11
0.660819
21
0.369119
0
LINE
8
BLACK
6
CONTINUOUS
10
0.660819
20
0.369119
11
0.66091
21
0.36929
0
LINE
8
BLACK
6
CONTINUOUS
10
0.66091
20
0.36929
11
0.661033
21
0.369439
0
LINE
8
BLACK
6
CONTINUOUS
10
0.661033
20
0.369439
11
0.661183
21
0.369562
0
LINE
8
BLACK
6
CONTINUOUS
10
0.661183
20
0.369562
11
0.661354
21
0.369654
0
LINE
8
BLACK
6
CONTINUOUS
10
0.661354
20
0.369654
11
0.661539
21
0.36971
0
LINE
8
BLACK
6
CONTINUOUS
10
0.661539
20
0.36971
11
0.661684
21
0.369724
0
LINE
8
BLACK
6
CONTINUOUS
10
0.661684
20
0.369724
11
0.661684
21
0.369724
0
LINE
8
BLACK
6
CONTINUOUS
10
0.661684
20
0.369724
11
0.661732
21
0.369729
0
LINE
8
BLACK
6
CONTINUOUS
10
0.661732
20
0.369729
11
0.66178
21
0.369724
0
LINE
8
BLACK
6
CONTINUOUS
10
0.66178
20
0.369724
11
0.77822
21
0.369724
0
LINE
8
BLACK
6
CONTINUOUS
10
0.77822
20
0.369724
11
0.778268
21
0.369729
0
LINE
8
BLACK
6
CONTINUOUS
10
0.778268
20
0.369729
11
0.778316
21
0.369724
0
LINE
8
BLACK
6
CONTINUOUS
10
0.662717
20
0.367756
11
0.662717
21
0.312244
0
LINE
8
BLACK
6
CONTINUOUS
10
0.662717
20
0.312244
11
0.777284
21
0.312244
0
LINE
8
BLACK
6
CONTINUOUS
10
0.777284
20
0.312244
11
0.777283
21
0.367756
0
LINE
8
BLACK
6
CONTINUOUS
10
0.777283
20
0.367756
11
0.662717
21
0.367756
0
LINE
8
BLACK
6
CONTINUOUS
10
0.778316
20
0.429724
11
0.778316
21
0.429724
0
LINE
8
BLACK
6
CONTINUOUS
10
0.778316
20
0.429724
11
0.778461
21
0.42971
0
LINE
8
BLACK
6
CONTINUOUS
10
0.778461
20
0.42971
11
0.778646
21
0.429654
0
LINE
8
BLACK
6
CONTINUOUS
10
0.778646
20
0.429654
11
0.778817
21
0.429562
0
LINE
8
BLACK
6
CONTINUOUS
10
0.778817
20
0.429562
11
0.778967
21
0.429439
0
LINE
8
BLACK
6
CONTINUOUS
10
0.778967
20
0.429439
11
0.77909
21
0.42929
0
LINE
8
BLACK
6
CONTINUOUS
10
0.77909
20
0.42929
11
0.779181
21
0.429119
0
LINE
8
BLACK
6
CONTINUOUS
10
0.779181
20
0.429119
11
0.779238
21
0.428933
0
LINE
8
BLACK
6
CONTINUOUS
10
0.779238
20
0.428933
11
0.779257
21
0.42874
0
LINE
8
BLACK
6
CONTINUOUS
10
0.779257
20
0.42874
11
0.779252
21
0.428692
0
LINE
8
BLACK
6
CONTINUOUS
10
0.779252
20
0.428692
11
0.779252
21
0.371308
0
LINE
8
BLACK
6
CONTINUOUS
10
0.779252
20
0.371308
11
0.779257
21
0.37126
0
LINE
8
BLACK
6
CONTINUOUS
10
0.779257
20
0.37126
11
0.779252
21
0.371212
0
LINE
8
BLACK
6
CONTINUOUS
10
0.779252
20
0.371212
11
0.779252
21
0.371212
0
LINE
8
BLACK
6
CONTINUOUS
10
0.779252
20
0.371212
11
0.779238
21
0.371067
0
LINE
8
BLACK
6
CONTINUOUS
10
0.779238
20
0.371067
11
0.779181
21
0.370881
0
LINE
8
BLACK
6
CONTINUOUS
10
0.779181
20
0.370881
11
0.77909
21
0.37071
0
LINE
8
BLACK
6
CONTINUOUS
10
0.77909
20
0.37071
11
0.778967
21
0.370561
0
LINE
8
BLACK
6
CONTINUOUS
10
0.778967
20
0.370561
11
0.778817
21
0.370438
0
LINE
8
BLACK
6
CONTINUOUS
10
0.778817
20
0.370438
11
0.778646
21
0.370346
0
LINE
8
BLACK
6
CONTINUOUS
10
0.778646
20
0.370346
11
0.778461
21
0.37029
0
LINE
8
BLACK
6
CONTINUOUS
10
0.778461
20
0.37029
11
0.778268
21
0.370271
0
LINE
8
BLACK
6
CONTINUOUS
10
0.778268
20
0.370271
11
0.77822
21
0.370276
0
LINE
8
BLACK
6
CONTINUOUS
10
0.77822
20
0.370276
11
0.66178
21
0.370276
0
LINE
8
BLACK
6
CONTINUOUS
10
0.66178
20
0.370276
11
0.661732
21
0.370271
0
LINE
8
BLACK
6
CONTINUOUS
10
0.661732
20
0.370271
11
0.661539
21
0.37029
0
LINE
8
BLACK
6
CONTINUOUS
10
0.661539
20
0.37029
11
0.661354
21
0.370346
0
LINE
8
BLACK
6
CONTINUOUS
10
0.661354
20
0.370346
11
0.661183
21
0.370438
0
LINE
8
BLACK
6
CONTINUOUS
10
0.661183
20
0.370438
11
0.661033
21
0.370561
0
LINE
8
BLACK
6
CONTINUOUS
10
0.661033
20
0.370561
11
0.66091
21
0.37071
0
LINE
8
BLACK
6
CONTINUOUS
10
0.66091
20
0.37071
11
0.660819
21
0.370881
0
LINE
8
BLACK
6
CONTINUOUS
10
0.660819
20
0.370881
11
0.660762
21
0.371067
0
LINE
8
BLACK
6
CONTINUOUS
10
0.660762
20
0.371067
11
0.660743
21
0.37126
0
LINE
8
BLACK
6
CONTINUOUS
10
0.660743
20
0.37126
11
0.660748
21
0.371308
0
LINE
8
BLACK
6
CONTINUOUS
10
0.660748
20
0.371308
11
0.660748
21
0.428692
0
LINE
8
BLACK
6
CONTINUOUS
10
0.660748
20
0.428692
11
0.660743
21
0.42874
0
LINE
8
BLACK
6
CONTINUOUS
10
0.660743
20
0.42874
11
0.660762
21
0.428933
0
LINE
8
BLACK
6
CONTINUOUS
10
0.660762
20
0.428933
11
0.660819
21
0.429119
0
LINE
8
BLACK
6
CONTINUOUS
10
0.660819
20
0.429119
11
0.66091
21
0.42929
0
LINE
8
BLACK
6
CONTINUOUS
10
0.66091
20
0.42929
11
0.661033
21
0.429439
0
LINE
8
BLACK
6
CONTINUOUS
10
0.661033
20
0.429439
11
0.661183
21
0.429562
0
LINE
8
BLACK
6
CONTINUOUS
10
0.661183
20
0.429562
11
0.661354
21
0.429654
0
LINE
8
BLACK
6
CONTINUOUS
10
0.661354
20
0.429654
11
0.661539
21
0.42971
0
LINE
8
BLACK
6
CONTINUOUS
10
0.661539
20
0.42971
11
0.661684
21
0.429724
0
LINE
8
BLACK
6
CONTINUOUS
10
0.661684
20
0.429724
11
0.661684
21
0.429724
0
LINE
8
BLACK
6
CONTINUOUS
10
0.661684
20
0.429724
11
0.661732
21
0.429729
0
LINE
8
BLACK
6
CONTINUOUS
10
0.661732
20
0.429729
11
0.66178
21
0.429724
0
LINE
8
BLACK
6
CONTINUOUS
10
0.66178
20
0.429724
11
0.77822
21
0.429724
0
LINE
8
BLACK
6
CONTINUOUS
10
0.77822
20
0.429724
11
0.778268
21
0.429729
0
LINE
8
BLACK
6
CONTINUOUS
10
0.778268
20
0.429729
11
0.778316
21
0.429724
0
LINE
8
BLACK
6
CONTINUOUS
10
0.662717
20
0.427756
11
0.662717
21
0.372244
0
LINE
8
BLACK
6
CONTINUOUS
10
0.662717
20
0.372244
11
0.777284
21
0.372244
0
LINE
8
BLACK
6
CONTINUOUS
10
0.777284
20
0.372244
11
0.777283
21
0.427756
0
LINE
8
BLACK
6
CONTINUOUS
10
0.777283
20
0.427756
11
0.662717
21
0.427756
0
LINE
8
BLACK
6
CONTINUOUS
10
0.778316
20
0.489724
11
0.778316
21
0.489724
0
LINE
8
BLACK
6
CONTINUOUS
10
0.778316
20
0.489724
11
0.778461
21
0.48971
0
LINE
8
BLACK
6
CONTINUOUS
10
0.778461
20
0.48971
11
0.778646
21
0.489654
0
LINE
8
BLACK
6
CONTINUOUS
10
0.778646
20
0.489654
11
0.778817
21
0.489562
0
LINE
8
BLACK
6
CONTINUOUS
10
0.778817
20
0.489562
11
0.778967
21
0.489439
0
LINE
8
BLACK
6
CONTINUOUS
10
0.778967
20
0.489439
11
0.77909
21
0.48929
0
LINE
8
BLACK
6
CONTINUOUS
10
0.77909
20
0.48929
11
0.779181
21
0.489119
0
LINE
8
BLACK
6
CONTINUOUS
10
0.779181
20
0.489119
11
0.779238
21
0.488933
0
LINE
8
BLACK
6
CONTINUOUS
10
0.779238
20
0.488933
11
0.779257
21
0.48874
0
LINE
8
BLACK
6
CONTINUOUS
10
0.779257
20
0.48874
11
0.779252
21
0.488692
0
LINE
8
BLACK
6
CONTINUOUS
10
0.779252
20
0.488692
11
0.779252
21
0.431308
0
LINE
8
BLACK
6
CONTINUOUS
10
0.779252
20
0.431308
11
0.779257
21
0.43126
0
LINE
8
BLACK
6
CONTINUOUS
10
0.779257
20
0.43126
11
0.779252
21
0.431212
0
LINE
8
BLACK
6
CONTINUOUS
10
0.779252
20
0.431212
11
0.779252
21
0.431212
0
LINE
8
BLACK
6
CONTINUOUS
10
0.779252
20
0.431212
11
0.779238
21
0.431067
0
LINE
8
BLACK
6
CONTINUOUS
10
0.779238
20
0.431067
11
0.779181
21
0.430881
0
LINE
8
BLACK
6
CONTINUOUS
10
0.779181
20
0.430881
11
0.77909
21
0.43071
0
LINE
8
BLACK
6
CONTINUOUS
10
0.77909
20
0.43071
11
0.778967
21
0.430561
0
LINE
8
BLACK
6
CONTINUOUS
10
0.778967
20
0.430561
11
0.778817
21
0.430438
0
LINE
8
BLACK
6
CONTINUOUS
10
0.778817
20
0.430438
11
0.778646
21
0.430346
0
LINE
8
BLACK
6
CONTINUOUS
10
0.778646
20
0.430346
11
0.778461
21
0.43029
0
LINE
8
BLACK
6
CONTINUOUS
10
0.778461
20
0.43029
11
0.778268
21
0.430271
0
LINE
8
BLACK
6
CONTINUOUS
10
0.778268
20
0.430271
11
0.77822
21
0.430276
0
LINE
8
BLACK
6
CONTINUOUS
10
0.77822
20
0.430276
11
0.66178
21
0.430276
0
LINE
8
BLACK
6
CONTINUOUS
10
0.66178
20
0.430276
11
0.661732
21
0.430271
0
LINE
8
BLACK
6
CONTINUOUS
10
0.661732
20
0.430271
11
0.661539
21
0.43029
0
LINE
8
BLACK
6
CONTINUOUS
10
0.661539
20
0.43029
11
0.661354
21
0.430346
0
LINE
8
BLACK
6
CONTINUOUS
10
0.661354
20
0.430346
11
0.661183
21
0.430438
0
LINE
8
BLACK
6
CONTINUOUS
10
0.661183
20
0.430438
11
0.661033
21
0.430561
0
LINE
8
BLACK
6
CONTINUOUS
10
0.661033
20
0.430561
11
0.66091
21
0.43071
0
LINE
8
BLACK
6
CONTINUOUS
10
0.66091
20
0.43071
11
0.660819
21
0.430881
0
LINE
8
BLACK
6
CONTINUOUS
10
0.660819
20
0.430881
11
0.660762
21
0.431067
0
LINE
8
BLACK
6
CONTINUOUS
10
0.660762
20
0.431067
11
0.660743
21
0.43126
0
LINE
8
BLACK
6
CONTINUOUS
10
0.660743
20
0.43126
11
0.660748
21
0.431308
0
LINE
8
BLACK
6
CONTINUOUS
10
0.660748
20
0.431308
11
0.660748
21
0.488692
0
LINE
8
BLACK
6
CONTINUOUS
10
0.660748
20
0.488692
11
0.660743
21
0.48874
0
LINE
8
BLACK
6
CONTINUOUS
10
0.660743
20
0.48874
11
0.660762
21
0.488933
0
LINE
8
BLACK
6
CONTINUOUS
10
0.660762
20
0.488933
11
0.660819
21
0.489119
0
LINE
8
BLACK
6
CONTINUOUS
10
0.660819
20
0.489119
11
0.66091
21
0.48929
0
LINE
8
BLACK
6
CONTINUOUS
10
0.66091
20
0.48929
11
0.661033
21
0.489439
0
LINE
8
BLACK
6
CONTINUOUS
10
0.661033
20
0.489439
11
0.661183
21
0.489562
0
LINE
8
BLACK
6
CONTINUOUS
10
0.661183
20
0.489562
11
0.661354
21
0.489654
0
LINE
8
BLACK
6
CONTINUOUS
10
0.661354
20
0.489654
11
0.661539
21
0.48971
0
LINE
8
BLACK
6
CONTINUOUS
10
0.661539
20
0.48971
11
0.661684
21
0.489724
0
LINE
8
BLACK
6
CONTINUOUS
10
0.661684
20
0.489724
11
0.661684
21
0.489724
0
LINE
8
BLACK
6
CONTINUOUS
10
0.661684
20
0.489724
11
0.661732
21
0.489729
0
LINE
8
BLACK
6
CONTINUOUS
10
0.661732
20
0.489729
11
0.66178
21
0.489724
0
LINE
8
BLACK
6
CONTINUOUS
10
0.66178
20
0.489724
11
0.77822
21
0.489724
0
LINE
8
BLACK
6
CONTINUOUS
10
0.77822
20
0.489724
11
0.778268
21
0.489729
0
LINE
8
BLACK
6
CONTINUOUS
10
0.778268
20
0.489729
11
0.778316
21
0.489724
0
LINE
8
BLACK
6
CONTINUOUS
10
0.662717
20
0.487756
11
0.662717
21
0.432244
0
LINE
8
BLACK
6
CONTINUOUS
10
0.662717
20
0.432244
11
0.777284
21
0.432244
0
LINE
8
BLACK
6
CONTINUOUS
10
0.777284
20
0.432244
11
0.777283
21
0.487756
0
LINE
8
BLACK
6
CONTINUOUS
10
0.777283
20
0.487756
11
0.662717
21
0.487756
0
LINE
8
BLACK
6
CONTINUOUS
10
0.778316
20
0.549724
11
0.778316
21
0.549724
0
LINE
8
BLACK
6
CONTINUOUS
10
0.778316
20
0.549724
11
0.778461
21
0.54971
0
LINE
8
BLACK
6
CONTINUOUS
10
0.778461
20
0.54971
11
0.778646
21
0.549654
0
LINE
8
BLACK
6
CONTINUOUS
10
0.778646
20
0.549654
11
0.778817
21
0.549562
0
LINE
8
BLACK
6
CONTINUOUS
10
0.778817
20
0.549562
11
0.778967
21
0.549439
0
LINE
8
BLACK
6
CONTINUOUS
10
0.778967
20
0.549439
11
0.77909
21
0.54929
0
LINE
8
BLACK
6
CONTINUOUS
10
0.77909
20
0.54929
11
0.779181
21
0.549119
0
LINE
8
BLACK
6
CONTINUOUS
10
0.779181
20
0.549119
11
0.779238
21
0.548933
0
LINE
8
BLACK
6
CONTINUOUS
10
0.779238
20
0.548933
11
0.779257
21
0.54874
0
LINE
8
BLACK
6
CONTINUOUS
10
0.779257
20
0.54874
11
0.779252
21
0.548692
0
LINE
8
BLACK
6
CONTINUOUS
10
0.779252
20
0.548692
11
0.779252
21
0.491308
0
LINE
8
BLACK
6
CONTINUOUS
10
0.779252
20
0.491308
11
0.779257
21
0.49126
0
LINE
8
BLACK
6
CONTINUOUS
10
0.779257
20
0.49126
11
0.779252
21
0.491212
0
LINE
8
BLACK
6
CONTINUOUS
10
0.779252
20
0.491212
11
0.779252
21
0.491212
0
LINE
8
BLACK
6
CONTINUOUS
10
0.779252
20
0.491212
11
0.779238
21
0.491067
0
LINE
8
BLACK
6
CONTINUOUS
10
0.779238
20
0.491067
11
0.779181
21
0.490881
0
LINE
8
BLACK
6
CONTINUOUS
10
0.779181
20
0.490881
11
0.77909
21
0.49071
0
LINE
8
BLACK
6
CONTINUOUS
10
0.77909
20
0.49071
11
0.778967
21
0.490561
0
LINE
8
BLACK
6
CONTINUOUS
10
0.778967
20
0.490561
11
0.778817
21
0.490438
0
LINE
8
BLACK
6
CONTINUOUS
10
0.778817
20
0.490438
11
0.778646
21
0.490346
0
LINE
8
BLACK
6
CONTINUOUS
10
0.778646
20
0.490346
11
0.778461
21
0.49029
0
LINE
8
BLACK
6
CONTINUOUS
10
0.778461
20
0.49029
11
0.778268
21
0.490271
0
LINE
8
BLACK
6
CONTINUOUS
10
0.778268
20
0.490271
11
0.77822
21
0.490276
0
LINE
8
BLACK
6
CONTINUOUS
10
0.77822
20
0.490276
11
0.66178
21
0.490276
0
LINE
8
BLACK
6
CONTINUOUS
10
0.66178
20
0.490276
11
0.661732
21
0.490271
0
LINE
8
BLACK
6
CONTINUOUS
10
0.661732
20
0.490271
11
0.661539
21
0.49029
0
LINE
8
BLACK
6
CONTINUOUS
10
0.661539
20
0.49029
11
0.661354
21
0.490346
0
LINE
8
BLACK
6
CONTINUOUS
10
0.661354
20
0.490346
11
0.661183
21
0.490438
0
LINE
8
BLACK
6
CONTINUOUS
10
0.661183
20
0.490438
11
0.661033
21
0.490561
0
LINE
8
BLACK
6
CONTINUOUS
10
0.661033
20
0.490561
11
0.66091
21
0.49071
0
LINE
8
BLACK
6
CONTINUOUS
10
0.66091
20
0.49071
11
0.660819
21
0.490881
0
LINE
8
BLACK
6
CONTINUOUS
10
0.660819
20
0.490881
11
0.660762
21
0.491067
0
LINE
8
BLACK
6
CONTINUOUS
10
0.660762
20
0.491067
11
0.660743
21
0.49126
0
LINE
8
BLACK
6
CONTINUOUS
10
0.660743
20
0.49126
11
0.660748
21
0.491308
0
LINE
8
BLACK
6
CONTINUOUS
10
0.660748
20
0.491308
11
0.660748
21
0.548692
0
LINE
8
BLACK
6
CONTINUOUS
10
0.660748
20
0.548692
11
0.660743
21
0.54874
0
LINE
8
BLACK
6
CONTINUOUS
10
0.660743
20
0.54874
11
0.660762
21
0.548933
0
LINE
8
BLACK
6
CONTINUOUS
10
0.660762
20
0.548933
11
0.660819
21
0.549119
0
LINE
8
BLACK
6
CONTINUOUS
10
0.660819
20
0.549119
11
0.66091
21
0.54929
0
LINE
8
BLACK
6
CONTINUOUS
10
0.66091
20
0.54929
11
0.661033
21
0.549439
0
LINE
8
BLACK
6
CONTINUOUS
10
0.661033
20
0.549439
11
0.661183
21
0.549562
0
LINE
8
BLACK
6
CONTINUOUS
10
0.661183
20
0.549562
11
0.661354
21
0.549654
0
LINE
8
BLACK
6
CONTINUOUS
10
0.661354
20
0.549654
11
0.661539
21
0.54971
0
LINE
8
BLACK
6
CONTINUOUS
10
0.661539
20
0.54971
11
0.661684
21
0.549724
0
LINE
8
BLACK
6
CONTINUOUS
10
0.661684
20
0.549724
11
0.661684
21
0.549724
0
LINE
8
BLACK
6
CONTINUOUS
10
0.661684
20
0.549724
11
0.661732
21
0.549729
0
LINE
8
BLACK
6
CONTINUOUS
10
0.661732
20
0.549729
11
0.66178
21
0.549724
0
LINE
8
BLACK
6
CONTINUOUS
10
0.66178
20
0.549724
11
0.77822
21
0.549724
0
LINE
8
BLACK
6
CONTINUOUS
10
0.77822
20
0.549724
11
0.778268
21
0.549729
0
LINE
8
BLACK
6
CONTINUOUS
10
0.778268
20
0.549729
11
0.778316
21
0.549724
0
LINE
8
BLACK
6
CONTINUOUS
10
0.662717
20
0.547756
11
0.662717
21
0.492244
0
LINE
8
BLACK
6
CONTINUOUS
10
0.662717
20
0.492244
11
0.777284
21
0.492244
0
LINE
8
BLACK
6
CONTINUOUS
10
0.777284
20
0.492244
11
0.777283
21
0.547756
0
LINE
8
BLACK
6
CONTINUOUS
10
0.777283
20
0.547756
11
0.662717
21
0.547756
0
LINE
8
BLACK
6
CONTINUOUS
10
0.801211
20
0.5148
11
0.805036
21
0.524034
0
LINE
8
BLACK
6
CONTINUOUS
10
0.805036
20
0.524034
11
0.810589
21
0.532344
0
LINE
8
BLACK
6
CONTINUOUS
10
0.810589
20
0.532344
11
0.817656
21
0.539411
0
LINE
8
BLACK
6
CONTINUOUS
10
0.817656
20
0.539411
11
0.825966
21
0.544964
0
LINE
8
BLACK
6
CONTINUOUS
10
0.825966
20
0.544964
11
0.8352
21
0.548789
0
LINE
8
BLACK
6
CONTINUOUS
10
0.8352
20
0.548789
11
0.845003
21
0.550739
0
LINE
8
BLACK
6
CONTINUOUS
10
0.845003
20
0.550739
11
0.854997
21
0.550739
0
LINE
8
BLACK
6
CONTINUOUS
10
0.854997
20
0.550739
11
0.8648
21
0.548789
0
LINE
8
BLACK
6
CONTINUOUS
10
0.8648
20
0.548789
11
0.874034
21
0.544964
0
LINE
8
BLACK
6
CONTINUOUS
10
0.874034
20
0.544964
11
0.882344
21
0.539411
0
LINE
8
BLACK
6
CONTINUOUS
10
0.882344
20
0.539411
11
0.889411
21
0.532344
0
LINE
8
BLACK
6
CONTINUOUS
10
0.889411
20
0.532344
11
0.894964
21
0.524034
0
LINE
8
BLACK
6
CONTINUOUS
10
0.894964
20
0.524034
11
0.898789
21
0.5148
0
LINE
8
BLACK
6
CONTINUOUS
10
0.898789
20
0.5148
11
0.900739
21
0.504997
0
LINE
8
BLACK
6
CONTINUOUS
10
0.900739
20
0.504997
11
0.900739
21
0.495003
0
LINE
8
BLACK
6
CONTINUOUS
10
0.900739
20
0.495003
11
0.898789
21
0.4852
0
LINE
8
BLACK
6
CONTINUOUS
10
0.898789
20
0.4852
11
0.894964
21
0.475966
0
LINE
8
BLACK
6
CONTINUOUS
10
0.894964
20
0.475966
11
0.889411
21
0.467656
0
LINE
8
BLACK
6
CONTINUOUS
10
0.889411
20
0.467656
11
0.882344
21
0.460589
0
LINE
8
BLACK
6
CONTINUOUS
10
0.882344
20
0.460589
11
0.874034
21
0.455036
0
LINE
8
BLACK
6
CONTINUOUS
10
0.874034
20
0.455036
11
0.8648
21
0.451211
0
LINE
8
BLACK
6
CONTINUOUS
10
0.8648
20
0.451211
11
0.857326
21
0.449724
0
LINE
8
BLACK
6
CONTINUOUS
10
0.857326
20
0.449724
11
0.90822
21
0.449724
0
LINE
8
BLACK
6
CONTINUOUS
10
0.90822
20
0.449724
11
0.908268
21
0.449729
0
LINE
8
BLACK
6
CONTINUOUS
10
0.908268
20
0.449729
11
0.908316
21
0.449724
0
LINE
8
BLACK
6
CONTINUOUS
10
0.908316
20
0.449724
11
0.908316
21
0.449724
0
LINE
8
BLACK
6
CONTINUOUS
10
0.908316
20
0.449724
11
0.908461
21
0.44971
0
LINE
8
BLACK
6
CONTINUOUS
10
0.908461
20
0.44971
11
0.908646
21
0.449654
0
LINE
8
BLACK
6
CONTINUOUS
10
0.908646
20
0.449654
11
0.908817
21
0.449562
0
LINE
8
BLACK
6
CONTINUOUS
10
0.908817
20
0.449562
11
0.908967
21
0.449439
0
LINE
8
BLACK
6
CONTINUOUS
10
0.908967
20
0.449439
11
0.90909
21
0.44929
0
LINE
8
BLACK
6
CONTINUOUS
10
0.90909
20
0.44929
11
0.909181
21
0.449119
0
LINE
8
BLACK
6
CONTINUOUS
10
0.909181
20
0.449119
11
0.909238
21
0.448933
0
LINE
8
BLACK
6
CONTINUOUS
10
0.909238
20
0.448933
11
0.909257
21
0.44874
0
LINE
8
BLACK
6
CONTINUOUS
10
0.909257
20
0.44874
11
0.909252
21
0.448692
0
LINE
8
BLACK
6
CONTINUOUS
10
0.909252
20
0.448692
11
0.909252
21
0.391308
0
LINE
8
BLACK
6
CONTINUOUS
10
0.909252
20
0.391308
11
0.909257
21
0.39126
0
LINE
8
BLACK
6
CONTINUOUS
10
0.909257
20
0.39126
11
0.909252
21
0.391212
0
LINE
8
BLACK
6
CONTINUOUS
10
0.909252
20
0.391212
11
0.909252
21
0.391212
0
LINE
8
BLACK
6
CONTINUOUS
10
0.909252
20
0.391212
11
0.909238
21
0.391067
0
LINE
8
BLACK
6
CONTINUOUS
10
0.909238
20
0.391067
11
0.909181
21
0.390881
0
LINE
8
BLACK
6
CONTINUOUS
10
0.909181
20
0.390881
11
0.90909
21
0.39071
0
LINE
8
BLACK
6
CONTINUOUS
10
0.90909
20
0.39071
11
0.908967
21
0.390561
0
LINE
8
BLACK
6
CONTINUOUS
10
0.908967
20
0.390561
11
0.908817
21
0.390438
0
LINE
8
BLACK
6
CONTINUOUS
10
0.908817
20
0.390438
11
0.908646
21
0.390346
0
LINE
8
BLACK
6
CONTINUOUS
10
0.908646
20
0.390346
11
0.908461
21
0.39029
0
LINE
8
BLACK
6
CONTINUOUS
10
0.908461
20
0.39029
11
0.908268
21
0.390271
0
LINE
8
BLACK
6
CONTINUOUS
10
0.908268
20
0.390271
11
0.90822
21
0.390276
0
LINE
8
BLACK
6
CONTINUOUS
10
0.90822
20
0.390276
11
0.79178
21
0.390276
0
LINE
8
BLACK
6
CONTINUOUS
10
0.79178
20
0.390276
11
0.791732
21
0.390271
0
LINE
8
BLACK
6
CONTINUOUS
10
0.791732
20
0.390271
11
0.791539
21
0.39029
0
LINE
8
BLACK
6
CONTINUOUS
10
0.791539
20
0.39029
11
0.791354
21
0.390346
0
LINE
8
BLACK
6
CONTINUOUS
10
0.791354
20
0.390346
11
0.791183
21
0.390438
0
LINE
8
BLACK
6
CONTINUOUS
10
0.791183
20
0.390438
11
0.791033
21
0.390561
0
LINE
8
BLACK
6
CONTINUOUS
10
0.791033
20
0.390561
11
0.79091
21
0.39071
0
LINE
8
BLACK
6
CONTINUOUS
10
0.79091
20
0.39071
11
0.790819
21
0.390881
0
LINE
8
BLACK
6
CONTINUOUS
10
0.790819
20
0.390881
11
0.790762
21
0.391067
0
LINE
8
BLACK
6
CONTINUOUS
10
0.790762
20
0.391067
11
0.790743
21
0.39126
0
LINE
8
BLACK
6
CONTINUOUS
10
0.790743
20
0.39126
11
0.790748
21
0.391308
0
LINE
8
BLACK
6
CONTINUOUS
10
0.790748
20
0.391308
11
0.790748
21
0.448692
0
LINE
8
BLACK
6
CONTINUOUS
10
0.790748
20
0.448692
11
0.790743
21
0.44874
0
LINE
8
BLACK
6
CONTINUOUS
10
0.790743
20
0.44874
11
0.790762
21
0.448933
0
LINE
8
BLACK
6
CONTINUOUS
10
0.790762
20
0.448933
11
0.790819
21
0.449119
0
LINE
8
BLACK
6
CONTINUOUS
10
0.790819
20
0.449119
11
0.79091
21
0.44929
0
LINE
8
BLACK
6
CONTINUOUS
10
0.79091
20
0.44929
11
0.791033
21
0.449439
0
LINE
8
BLACK
6
CONTINUOUS
10
0.791033
20
0.449439
11
0.791183
21
0.449562
0
LINE
8
BLACK
6
CONTINUOUS
10
0.791183
20
0.449562
11
0.791354
21
0.449654
0
LINE
8
BLACK
6
CONTINUOUS
10
0.791354
20
0.449654
11
0.791539
21
0.44971
0
LINE
8
BLACK
6
CONTINUOUS
10
0.791539
20
0.44971
11
0.791684
21
0.449724
0
LINE
8
BLACK
6
CONTINUOUS
10
0.791684
20
0.449724
11
0.791684
21
0.449724
0
LINE
8
BLACK
6
CONTINUOUS
10
0.791684
20
0.449724
11
0.791732
21
0.449729
0
LINE
8
BLACK
6
CONTINUOUS
10
0.791732
20
0.449729
11
0.79178
21
0.449724
0
LINE
8
BLACK
6
CONTINUOUS
10
0.79178
20
0.449724
11
0.842674
21
0.449724
0
LINE
8
BLACK
6
CONTINUOUS
10
0.842674
20
0.449724
11
0.8352
21
0.451211
0
LINE
8
BLACK
6
CONTINUOUS
10
0.8352
20
0.451211
11
0.825966
21
0.455036
0
LINE
8
BLACK
6
CONTINUOUS
10
0.825966
20
0.455036
11
0.817656
21
0.460589
0
LINE
8
BLACK
6
CONTINUOUS
10
0.817656
20
0.460589
11
0.810589
21
0.467656
0
LINE
8
BLACK
6
CONTINUOUS
10
0.810589
20
0.467656
11
0.805036
21
0.475966
0
LINE
8
BLACK
6
CONTINUOUS
10
0.805036
20
0.475966
11
0.801211
21
0.4852
0
LINE
8
BLACK
6
CONTINUOUS
10
0.801211
20
0.4852
11
0.799261
21
0.495003
0
LINE
8
BLACK
6
CONTINUOUS
10
0.799261
20
0.495003
11
0.799261
21
0.504997
0
LINE
8
BLACK
6
CONTINUOUS
10
0.799261
20
0.504997
11
0.801211
21
0.5148
0
LINE
8
BLACK
6
CONTINUOUS
10
0.803848
20
0.486
11
0.807466
21
0.477265
0
LINE
8
BLACK
6
CONTINUOUS
10
0.807466
20
0.477265
11
0.812719
21
0.469404
0
LINE
8
BLACK
6
CONTINUOUS
10
0.812719
20
0.469404
11
0.819404
21
0.462719
0
LINE
8
BLACK
6
CONTINUOUS
10
0.819404
20
0.462719
11
0.827265
21
0.457466
0
LINE
8
BLACK
6
CONTINUOUS
10
0.827265
20
0.457466
11
0.836
21
0.453848
0
LINE
8
BLACK
6
CONTINUOUS
10
0.836
20
0.453848
11
0.845273
21
0.452004
0
LINE
8
BLACK
6
CONTINUOUS
10
0.845273
20
0.452004
11
0.854727
21
0.452004
0
LINE
8
BLACK
6
CONTINUOUS
10
0.854727
20
0.452004
11
0.864
21
0.453848
0
LINE
8
BLACK
6
CONTINUOUS
10
0.864
20
0.453848
11
0.872735
21
0.457466
0
LINE
8
BLACK
6
CONTINUOUS
10
0.872735
20
0.457466
11
0.880596
21
0.462719
0
LINE
8
BLACK
6
CONTINUOUS
10
0.880596
20
0.462719
11
0.887281
21
0.469404
0
LINE
8
BLACK
6
CONTINUOUS
10
0.887281
20
0.469404
11
0.892534
21
0.477265
0
LINE
8
BLACK
6
CONTINUOUS
10
0.892534
20
0.477265
11
0.896152
21
0.486
0
LINE
8
BLACK
6
CONTINUOUS
10
0.896152
20
0.486
11
0.897996
21
0.495273
0
LINE
8
BLACK
6
CONTINUOUS
10
0.897996
20
0.495273
11
0.897996
21
0.504727
0
LINE
8
BLACK
6
CONTINUOUS
10
0.897996
20
0.504727
11
0.896152
21
0.514
0
LINE
8
BLACK
6
CONTINUOUS
10
0.896152
20
0.514
11
0.892534
21
0.522735
0
LINE
8
BLACK
6
CONTINUOUS
10
0.892534
20
0.522735
11
0.887281
21
0.530596
0
LINE
8
BLACK
6
CONTINUOUS
10
0.887281
20
0.530596
11
0.880596
21
0.537281
0
LINE
8
BLACK
6
CONTINUOUS
10
0.880596
20
0.537281
11
0.872735
21
0.542534
0
LINE
8
BLACK
6
CONTINUOUS
10
0.872735
20
0.542534
11
0.864
21
0.546152
0
LINE
8
BLACK
6
CONTINUOUS
10
0.864
20
0.546152
11
0.854727
21
0.547996
0
LINE
8
BLACK
6
CONTINUOUS
10
0.854727
20
0.547996
11
0.845273
21
0.547996
0
LINE
8
BLACK
6
CONTINUOUS
10
0.845273
20
0.547996
11
0.836
21
0.546152
0
LINE
8
BLACK
6
CONTINUOUS
10
0.836
20
0.546152
11
0.827265
21
0.542534
0
LINE
8
BLACK
6
CONTINUOUS
10
0.827265
20
0.542534
11
0.819404
21
0.537281
0
LINE
8
BLACK
6
CONTINUOUS
10
0.819404
20
0.537281
11
0.812719
21
0.530596
0
LINE
8
BLACK
6
CONTINUOUS
10
0.812719
20
0.530596
11
0.807466
21
0.522735
0
LINE
8
BLACK
6
CONTINUOUS
10
0.807466
20
0.522735
11
0.803848
21
0.514
0
LINE
8
BLACK
6
CONTINUOUS
10
0.803848
20
0.514
11
0.802004
21
0.504727
0
LINE
8
BLACK
6
CONTINUOUS
10
0.802004
20
0.504727
11
0.802004
21
0.495273
0
LINE
8
BLACK
6
CONTINUOUS
10
0.802004
20
0.495273
11
0.803848
21
0.486
0
LINE
8
BLACK
6
CONTINUOUS
10
0.792717
20
0.447756
11
0.792717
21
0.392244
0
LINE
8
BLACK
6
CONTINUOUS
10
0.792717
20
0.392244
11
0.907284
21
0.392244
0
LINE
8
BLACK
6
CONTINUOUS
10
0.907284
20
0.392244
11
0.907283
21
0.447756
0
LINE
8
BLACK
6
CONTINUOUS
10
0.907283
20
0.447756
11
0.792717
21
0.447756
  0
ENDSEC
  0
EOF
