  0
SECTION
  2
HEADER
  9
$ANGBASE
  50
0.0
  9
$ANGDIR
  70
1
  9
$MEASUREMENT
  70
0
  0
ENDSEC
  0
SECTION
  2
TABLES
  0
TABLE
  2
LTYPE
  70
4
  0
LTYPE
  5
40F
  2
CONTINUOUS
  70
0
  3
Solid line
  72
65
  73
0
  40
0.0
  0
LTYPE
  5
410
  2
DASHDOT
 70
0
  3
Dash Dot ____ _ ____ _
 72
65
 73
4
 40
2.0
 49
1.25
 49
-0.25
 49
0.25
 49
-0.25
  0
LTYPE
  5
411
  2
DASHED
 70
0
  3
Dashed __ __ __ __ __
 72
65
 73
2
 40
0.75
 49
0.5
 49
-0.25
  0
LTYPE
  5
43B
  2
DOTTED
 70
0
  3
Dotted .  .  .  .
 72
65
 73
2
 40
0.2
 49
0.0
 49
-0.2
  0
ENDTAB
  0
TABLE
  2
STYLE
  70
4
  0
STYLE
  2
KICAD
  70
0
  40
0
  41
1
  42
1
  50
0
  71
0
  3
isocp.shx
  0
STYLE
  2
KICADB
  70
0
  40
0
  41
1
  42
1
  50
0
  71
0
  3
isocp.shx
  0
STYLE
  2
KICADI
  70
0
  40
0
  41
1
  42
1
  50
15
  71
0
  3
isocp.shx
  0
STYLE
  2
KICADBI
  70
0
  40
0
  41
1
  42
1
  50
15
  71
0
  3
isocp.shx
  0
ENDTAB
  0
TABLE
  2
LAYER
  70
1
  0
LAYER
  2
BLACK
  70
0
  62
7
  6
CONTINUOUS
  0
ENDTAB
  0
ENDSEC
  0
SECTION
  2
ENTITIES
0
LINE
8
BLACK
6
CONTINUOUS
10
-0.0930623
20
0.47815
11
-0.0930623
21
0.47815
0
LINE
8
BLACK
6
CONTINUOUS
10
-0.0930623
20
0.47815
11
-0.0929173
21
0.478135
0
LINE
8
BLACK
6
CONTINUOUS
10
-0.0929173
20
0.478135
11
-0.0927318
21
0.478079
0
LINE
8
BLACK
6
CONTINUOUS
10
-0.0927318
20
0.478079
11
-0.0925608
21
0.477988
0
LINE
8
BLACK
6
CONTINUOUS
10
-0.0925608
20
0.477988
11
-0.0924109
21
0.477865
0
LINE
8
BLACK
6
CONTINUOUS
10
-0.0924109
20
0.477865
11
-0.0922879
21
0.477715
0
LINE
8
BLACK
6
CONTINUOUS
10
-0.0922879
20
0.477715
11
-0.0921965
21
0.477544
0
LINE
8
BLACK
6
CONTINUOUS
10
-0.0921965
20
0.477544
11
-0.0921403
21
0.477358
0
LINE
8
BLACK
6
CONTINUOUS
10
-0.0921403
20
0.477358
11
-0.0921213
21
0.477165
0
LINE
8
BLACK
6
CONTINUOUS
10
-0.0921213
20
0.477165
11
-0.092126
21
0.477117
0
LINE
8
BLACK
6
CONTINUOUS
10
-0.092126
20
0.477117
11
-0.092126
21
0.458465
0
LINE
8
BLACK
6
CONTINUOUS
10
-0.092126
20
0.458465
11
0.127314
21
0.458465
0
LINE
8
BLACK
6
CONTINUOUS
10
0.127314
20
0.458465
11
0.127362
21
0.458469
0
LINE
8
BLACK
6
CONTINUOUS
10
0.127362
20
0.458469
11
0.12741
21
0.458465
0
LINE
8
BLACK
6
CONTINUOUS
10
0.12741
20
0.458465
11
0.12741
21
0.458465
0
LINE
8
BLACK
6
CONTINUOUS
10
0.12741
20
0.458465
11
0.127555
21
0.45845
0
LINE
8
BLACK
6
CONTINUOUS
10
0.127555
20
0.45845
11
0.127741
21
0.458394
0
LINE
8
BLACK
6
CONTINUOUS
10
0.127741
20
0.458394
11
0.127912
21
0.458303
0
LINE
8
BLACK
6
CONTINUOUS
10
0.127912
20
0.458303
11
0.128062
21
0.45818
0
LINE
8
BLACK
6
CONTINUOUS
10
0.128062
20
0.45818
11
0.128185
21
0.45803
0
LINE
8
BLACK
6
CONTINUOUS
10
0.128185
20
0.45803
11
0.128276
21
0.457859
0
LINE
8
BLACK
6
CONTINUOUS
10
0.128276
20
0.457859
11
0.128332
21
0.457673
0
LINE
8
BLACK
6
CONTINUOUS
10
0.128332
20
0.457673
11
0.128351
21
0.45748
0
LINE
8
BLACK
6
CONTINUOUS
10
0.128351
20
0.45748
11
0.128346
21
0.457432
0
LINE
8
BLACK
6
CONTINUOUS
10
0.128346
20
0.457432
11
0.128346
21
0.142568
0
LINE
8
BLACK
6
CONTINUOUS
10
0.128346
20
0.142568
11
0.128351
21
0.14252
0
LINE
8
BLACK
6
CONTINUOUS
10
0.128351
20
0.14252
11
0.128346
21
0.142472
0
LINE
8
BLACK
6
CONTINUOUS
10
0.128346
20
0.142472
11
0.128332
21
0.142327
0
LINE
8
BLACK
6
CONTINUOUS
10
0.128332
20
0.142327
11
0.128276
21
0.142141
0
LINE
8
BLACK
6
CONTINUOUS
10
0.128276
20
0.142141
11
0.128185
21
0.14197
0
LINE
8
BLACK
6
CONTINUOUS
10
0.128185
20
0.14197
11
0.128062
21
0.14182
0
LINE
8
BLACK
6
CONTINUOUS
10
0.128062
20
0.14182
11
0.127912
21
0.141697
0
LINE
8
BLACK
6
CONTINUOUS
10
0.127912
20
0.141697
11
0.127741
21
0.141606
0
LINE
8
BLACK
6
CONTINUOUS
10
0.127741
20
0.141606
11
0.127555
21
0.14155
0
LINE
8
BLACK
6
CONTINUOUS
10
0.127555
20
0.14155
11
0.127362
21
0.141531
0
LINE
8
BLACK
6
CONTINUOUS
10
0.127362
20
0.141531
11
0.127314
21
0.141535
0
LINE
8
BLACK
6
CONTINUOUS
10
0.127314
20
0.141535
11
-0.092126
21
0.141535
0
LINE
8
BLACK
6
CONTINUOUS
10
-0.092126
20
0.141535
11
-0.092126
21
0.122883
0
LINE
8
BLACK
6
CONTINUOUS
10
-0.092126
20
0.122883
11
-0.0921213
21
0.122835
0
LINE
8
BLACK
6
CONTINUOUS
10
-0.0921213
20
0.122835
11
-0.0921403
21
0.122642
0
LINE
8
BLACK
6
CONTINUOUS
10
-0.0921403
20
0.122642
11
-0.0921965
21
0.122456
0
LINE
8
BLACK
6
CONTINUOUS
10
-0.0921965
20
0.122456
11
-0.0922879
21
0.122285
0
LINE
8
BLACK
6
CONTINUOUS
10
-0.0922879
20
0.122285
11
-0.0924109
21
0.122135
0
LINE
8
BLACK
6
CONTINUOUS
10
-0.0924109
20
0.122135
11
-0.0925608
21
0.122012
0
LINE
8
BLACK
6
CONTINUOUS
10
-0.0925608
20
0.122012
11
-0.0927318
21
0.121921
0
LINE
8
BLACK
6
CONTINUOUS
10
-0.0927318
20
0.121921
11
-0.0929173
21
0.121865
0
LINE
8
BLACK
6
CONTINUOUS
10
-0.0929173
20
0.121865
11
-0.0930623
21
0.12185
0
LINE
8
BLACK
6
CONTINUOUS
10
-0.0930623
20
0.12185
11
-0.0930623
21
0.12185
0
LINE
8
BLACK
6
CONTINUOUS
10
-0.0930623
20
0.12185
11
-0.0931102
21
0.121846
0
LINE
8
BLACK
6
CONTINUOUS
10
-0.0931102
20
0.121846
11
-0.0931582
21
0.12185
0
LINE
8
BLACK
6
CONTINUOUS
10
-0.0931582
20
0.12185
11
-0.452117
21
0.12185
0
LINE
8
BLACK
6
CONTINUOUS
10
-0.452117
20
0.12185
11
-0.452165
21
0.121846
0
LINE
8
BLACK
6
CONTINUOUS
10
-0.452165
20
0.121846
11
-0.452358
21
0.121865
0
LINE
8
BLACK
6
CONTINUOUS
10
-0.452358
20
0.121865
11
-0.452544
21
0.121921
0
LINE
8
BLACK
6
CONTINUOUS
10
-0.452544
20
0.121921
11
-0.452715
21
0.122012
0
LINE
8
BLACK
6
CONTINUOUS
10
-0.452715
20
0.122012
11
-0.452865
21
0.122135
0
LINE
8
BLACK
6
CONTINUOUS
10
-0.452865
20
0.122135
11
-0.452988
21
0.122285
0
LINE
8
BLACK
6
CONTINUOUS
10
-0.452988
20
0.122285
11
-0.453079
21
0.122456
0
LINE
8
BLACK
6
CONTINUOUS
10
-0.453079
20
0.122456
11
-0.453135
21
0.122642
0
LINE
8
BLACK
6
CONTINUOUS
10
-0.453135
20
0.122642
11
-0.453154
21
0.122835
0
LINE
8
BLACK
6
CONTINUOUS
10
-0.453154
20
0.122835
11
-0.45315
21
0.122883
0
LINE
8
BLACK
6
CONTINUOUS
10
-0.45315
20
0.122883
11
-0.45315
21
0.477117
0
LINE
8
BLACK
6
CONTINUOUS
10
-0.45315
20
0.477117
11
-0.453154
21
0.477165
0
LINE
8
BLACK
6
CONTINUOUS
10
-0.453154
20
0.477165
11
-0.453135
21
0.477358
0
LINE
8
BLACK
6
CONTINUOUS
10
-0.453135
20
0.477358
11
-0.453079
21
0.477544
0
LINE
8
BLACK
6
CONTINUOUS
10
-0.453079
20
0.477544
11
-0.452988
21
0.477715
0
LINE
8
BLACK
6
CONTINUOUS
10
-0.452988
20
0.477715
11
-0.452865
21
0.477865
0
LINE
8
BLACK
6
CONTINUOUS
10
-0.452865
20
0.477865
11
-0.452715
21
0.477988
0
LINE
8
BLACK
6
CONTINUOUS
10
-0.452715
20
0.477988
11
-0.452544
21
0.478079
0
LINE
8
BLACK
6
CONTINUOUS
10
-0.452544
20
0.478079
11
-0.452358
21
0.478135
0
LINE
8
BLACK
6
CONTINUOUS
10
-0.452358
20
0.478135
11
-0.452213
21
0.47815
0
LINE
8
BLACK
6
CONTINUOUS
10
-0.452213
20
0.47815
11
-0.452213
21
0.47815
0
LINE
8
BLACK
6
CONTINUOUS
10
-0.452213
20
0.47815
11
-0.452165
21
0.478154
0
LINE
8
BLACK
6
CONTINUOUS
10
-0.452165
20
0.478154
11
-0.452117
21
0.47815
0
LINE
8
BLACK
6
CONTINUOUS
10
-0.452117
20
0.47815
11
-0.0931582
21
0.47815
0
LINE
8
BLACK
6
CONTINUOUS
10
-0.0931582
20
0.47815
11
-0.0931102
21
0.478154
0
LINE
8
BLACK
6
CONTINUOUS
10
-0.0931102
20
0.478154
11
-0.0930623
21
0.47815
0
LINE
8
BLACK
6
CONTINUOUS
10
-0.451181
20
0.476181
11
-0.451181
21
0.123819
0
LINE
8
BLACK
6
CONTINUOUS
10
-0.451181
20
0.123819
11
-0.0940945
21
0.123819
0
LINE
8
BLACK
6
CONTINUOUS
10
-0.0940945
20
0.123819
11
-0.0940944
21
0.142471
0
LINE
8
BLACK
6
CONTINUOUS
10
-0.0940944
20
0.142471
11
-0.0940992
21
0.14252
0
LINE
8
BLACK
6
CONTINUOUS
10
-0.0940992
20
0.14252
11
-0.0940802
21
0.142713
0
LINE
8
BLACK
6
CONTINUOUS
10
-0.0940802
20
0.142713
11
-0.0940239
21
0.142898
0
LINE
8
BLACK
6
CONTINUOUS
10
-0.0940239
20
0.142898
11
-0.0939326
21
0.143069
0
LINE
8
BLACK
6
CONTINUOUS
10
-0.0939326
20
0.143069
11
-0.0938096
21
0.143219
0
LINE
8
BLACK
6
CONTINUOUS
10
-0.0938096
20
0.143219
11
-0.0936597
21
0.143342
0
LINE
8
BLACK
6
CONTINUOUS
10
-0.0936597
20
0.143342
11
-0.0934887
21
0.143433
0
LINE
8
BLACK
6
CONTINUOUS
10
-0.0934887
20
0.143433
11
-0.0933032
21
0.14349
0
LINE
8
BLACK
6
CONTINUOUS
10
-0.0933032
20
0.14349
11
-0.0931582
21
0.143504
0
LINE
8
BLACK
6
CONTINUOUS
10
-0.0931582
20
0.143504
11
-0.0931581
21
0.143504
0
LINE
8
BLACK
6
CONTINUOUS
10
-0.0931581
20
0.143504
11
-0.0931102
21
0.143509
0
LINE
8
BLACK
6
CONTINUOUS
10
-0.0931102
20
0.143509
11
-0.0930623
21
0.143504
0
LINE
8
BLACK
6
CONTINUOUS
10
-0.0930623
20
0.143504
11
0.126378
21
0.143504
0
LINE
8
BLACK
6
CONTINUOUS
10
0.126378
20
0.143504
11
0.126378
21
0.456496
0
LINE
8
BLACK
6
CONTINUOUS
10
0.126378
20
0.456496
11
-0.0930623
21
0.456496
0
LINE
8
BLACK
6
CONTINUOUS
10
-0.0930623
20
0.456496
11
-0.0931102
21
0.456491
0
LINE
8
BLACK
6
CONTINUOUS
10
-0.0931102
20
0.456491
11
-0.0931581
21
0.456496
0
LINE
8
BLACK
6
CONTINUOUS
10
-0.0931581
20
0.456496
11
-0.0931582
21
0.456496
0
LINE
8
BLACK
6
CONTINUOUS
10
-0.0931582
20
0.456496
11
-0.0933032
21
0.45651
0
LINE
8
BLACK
6
CONTINUOUS
10
-0.0933032
20
0.45651
11
-0.0934887
21
0.456567
0
LINE
8
BLACK
6
CONTINUOUS
10
-0.0934887
20
0.456567
11
-0.0936597
21
0.456658
0
LINE
8
BLACK
6
CONTINUOUS
10
-0.0936597
20
0.456658
11
-0.0938096
21
0.456781
0
LINE
8
BLACK
6
CONTINUOUS
10
-0.0938096
20
0.456781
11
-0.0939326
21
0.456931
0
LINE
8
BLACK
6
CONTINUOUS
10
-0.0939326
20
0.456931
11
-0.0940239
21
0.457102
0
LINE
8
BLACK
6
CONTINUOUS
10
-0.0940239
20
0.457102
11
-0.0940802
21
0.457287
0
LINE
8
BLACK
6
CONTINUOUS
10
-0.0940802
20
0.457287
11
-0.0940992
21
0.45748
0
LINE
8
BLACK
6
CONTINUOUS
10
-0.0940992
20
0.45748
11
-0.0940944
21
0.457529
0
LINE
8
BLACK
6
CONTINUOUS
10
-0.0940944
20
0.457529
11
-0.0940945
21
0.476181
0
LINE
8
BLACK
6
CONTINUOUS
10
-0.0940945
20
0.476181
11
-0.451181
21
0.476181
0
LINE
8
BLACK
6
CONTINUOUS
10
0.701211
20
0.5148
11
0.705036
21
0.524034
0
LINE
8
BLACK
6
CONTINUOUS
10
0.705036
20
0.524034
11
0.710589
21
0.532344
0
LINE
8
BLACK
6
CONTINUOUS
10
0.710589
20
0.532344
11
0.717656
21
0.539411
0
LINE
8
BLACK
6
CONTINUOUS
10
0.717656
20
0.539411
11
0.725966
21
0.544964
0
LINE
8
BLACK
6
CONTINUOUS
10
0.725966
20
0.544964
11
0.7352
21
0.548789
0
LINE
8
BLACK
6
CONTINUOUS
10
0.7352
20
0.548789
11
0.745003
21
0.550739
0
LINE
8
BLACK
6
CONTINUOUS
10
0.745003
20
0.550739
11
0.754997
21
0.550739
0
LINE
8
BLACK
6
CONTINUOUS
10
0.754997
20
0.550739
11
0.7648
21
0.548789
0
LINE
8
BLACK
6
CONTINUOUS
10
0.7648
20
0.548789
11
0.774034
21
0.544964
0
LINE
8
BLACK
6
CONTINUOUS
10
0.774034
20
0.544964
11
0.782344
21
0.539411
0
LINE
8
BLACK
6
CONTINUOUS
10
0.782344
20
0.539411
11
0.789411
21
0.532344
0
LINE
8
BLACK
6
CONTINUOUS
10
0.789411
20
0.532344
11
0.794964
21
0.524034
0
LINE
8
BLACK
6
CONTINUOUS
10
0.794964
20
0.524034
11
0.798789
21
0.5148
0
LINE
8
BLACK
6
CONTINUOUS
10
0.798789
20
0.5148
11
0.800739
21
0.504997
0
LINE
8
BLACK
6
CONTINUOUS
10
0.800739
20
0.504997
11
0.800739
21
0.495003
0
LINE
8
BLACK
6
CONTINUOUS
10
0.800739
20
0.495003
11
0.798789
21
0.4852
0
LINE
8
BLACK
6
CONTINUOUS
10
0.798789
20
0.4852
11
0.794964
21
0.475966
0
LINE
8
BLACK
6
CONTINUOUS
10
0.794964
20
0.475966
11
0.789411
21
0.467656
0
LINE
8
BLACK
6
CONTINUOUS
10
0.789411
20
0.467656
11
0.782344
21
0.460589
0
LINE
8
BLACK
6
CONTINUOUS
10
0.782344
20
0.460589
11
0.774034
21
0.455036
0
LINE
8
BLACK
6
CONTINUOUS
10
0.774034
20
0.455036
11
0.7648
21
0.451211
0
LINE
8
BLACK
6
CONTINUOUS
10
0.7648
20
0.451211
11
0.754997
21
0.449261
0
LINE
8
BLACK
6
CONTINUOUS
10
0.754997
20
0.449261
11
0.745003
21
0.449261
0
LINE
8
BLACK
6
CONTINUOUS
10
0.745003
20
0.449261
11
0.7352
21
0.451211
0
LINE
8
BLACK
6
CONTINUOUS
10
0.7352
20
0.451211
11
0.725966
21
0.455036
0
LINE
8
BLACK
6
CONTINUOUS
10
0.725966
20
0.455036
11
0.717656
21
0.460589
0
LINE
8
BLACK
6
CONTINUOUS
10
0.717656
20
0.460589
11
0.710589
21
0.467656
0
LINE
8
BLACK
6
CONTINUOUS
10
0.710589
20
0.467656
11
0.705036
21
0.475966
0
LINE
8
BLACK
6
CONTINUOUS
10
0.705036
20
0.475966
11
0.701211
21
0.4852
0
LINE
8
BLACK
6
CONTINUOUS
10
0.701211
20
0.4852
11
0.699261
21
0.495003
0
LINE
8
BLACK
6
CONTINUOUS
10
0.699261
20
0.495003
11
0.699261
21
0.504997
0
LINE
8
BLACK
6
CONTINUOUS
10
0.699261
20
0.504997
11
0.701211
21
0.5148
0
LINE
8
BLACK
6
CONTINUOUS
10
0.703848
20
0.486
11
0.707466
21
0.477265
0
LINE
8
BLACK
6
CONTINUOUS
10
0.707466
20
0.477265
11
0.712719
21
0.469404
0
LINE
8
BLACK
6
CONTINUOUS
10
0.712719
20
0.469404
11
0.719404
21
0.462719
0
LINE
8
BLACK
6
CONTINUOUS
10
0.719404
20
0.462719
11
0.727265
21
0.457466
0
LINE
8
BLACK
6
CONTINUOUS
10
0.727265
20
0.457466
11
0.736
21
0.453848
0
LINE
8
BLACK
6
CONTINUOUS
10
0.736
20
0.453848
11
0.745273
21
0.452004
0
LINE
8
BLACK
6
CONTINUOUS
10
0.745273
20
0.452004
11
0.754727
21
0.452004
0
LINE
8
BLACK
6
CONTINUOUS
10
0.754727
20
0.452004
11
0.764
21
0.453848
0
LINE
8
BLACK
6
CONTINUOUS
10
0.764
20
0.453848
11
0.772735
21
0.457466
0
LINE
8
BLACK
6
CONTINUOUS
10
0.772735
20
0.457466
11
0.780596
21
0.462719
0
LINE
8
BLACK
6
CONTINUOUS
10
0.780596
20
0.462719
11
0.787281
21
0.469404
0
LINE
8
BLACK
6
CONTINUOUS
10
0.787281
20
0.469404
11
0.792534
21
0.477265
0
LINE
8
BLACK
6
CONTINUOUS
10
0.792534
20
0.477265
11
0.796152
21
0.486
0
LINE
8
BLACK
6
CONTINUOUS
10
0.796152
20
0.486
11
0.797996
21
0.495273
0
LINE
8
BLACK
6
CONTINUOUS
10
0.797996
20
0.495273
11
0.797996
21
0.504727
0
LINE
8
BLACK
6
CONTINUOUS
10
0.797996
20
0.504727
11
0.796152
21
0.514
0
LINE
8
BLACK
6
CONTINUOUS
10
0.796152
20
0.514
11
0.792534
21
0.522735
0
LINE
8
BLACK
6
CONTINUOUS
10
0.792534
20
0.522735
11
0.787281
21
0.530596
0
LINE
8
BLACK
6
CONTINUOUS
10
0.787281
20
0.530596
11
0.780596
21
0.537281
0
LINE
8
BLACK
6
CONTINUOUS
10
0.780596
20
0.537281
11
0.772735
21
0.542534
0
LINE
8
BLACK
6
CONTINUOUS
10
0.772735
20
0.542534
11
0.764
21
0.546152
0
LINE
8
BLACK
6
CONTINUOUS
10
0.764
20
0.546152
11
0.754727
21
0.547996
0
LINE
8
BLACK
6
CONTINUOUS
10
0.754727
20
0.547996
11
0.745273
21
0.547996
0
LINE
8
BLACK
6
CONTINUOUS
10
0.745273
20
0.547996
11
0.736
21
0.546152
0
LINE
8
BLACK
6
CONTINUOUS
10
0.736
20
0.546152
11
0.727265
21
0.542534
0
LINE
8
BLACK
6
CONTINUOUS
10
0.727265
20
0.542534
11
0.719404
21
0.537281
0
LINE
8
BLACK
6
CONTINUOUS
10
0.719404
20
0.537281
11
0.712719
21
0.530596
0
LINE
8
BLACK
6
CONTINUOUS
10
0.712719
20
0.530596
11
0.707466
21
0.522735
0
LINE
8
BLACK
6
CONTINUOUS
10
0.707466
20
0.522735
11
0.703848
21
0.514
0
LINE
8
BLACK
6
CONTINUOUS
10
0.703848
20
0.514
11
0.702004
21
0.504727
0
LINE
8
BLACK
6
CONTINUOUS
10
0.702004
20
0.504727
11
0.702004
21
0.495273
0
LINE
8
BLACK
6
CONTINUOUS
10
0.702004
20
0.495273
11
0.703848
21
0.486
0
LINE
8
BLACK
6
CONTINUOUS
10
0.301211
20
0.5148
11
0.305036
21
0.524034
0
LINE
8
BLACK
6
CONTINUOUS
10
0.305036
20
0.524034
11
0.310589
21
0.532344
0
LINE
8
BLACK
6
CONTINUOUS
10
0.310589
20
0.532344
11
0.317656
21
0.539411
0
LINE
8
BLACK
6
CONTINUOUS
10
0.317656
20
0.539411
11
0.325966
21
0.544964
0
LINE
8
BLACK
6
CONTINUOUS
10
0.325966
20
0.544964
11
0.3352
21
0.548789
0
LINE
8
BLACK
6
CONTINUOUS
10
0.3352
20
0.548789
11
0.345003
21
0.550739
0
LINE
8
BLACK
6
CONTINUOUS
10
0.345003
20
0.550739
11
0.354997
21
0.550739
0
LINE
8
BLACK
6
CONTINUOUS
10
0.354997
20
0.550739
11
0.3648
21
0.548789
0
LINE
8
BLACK
6
CONTINUOUS
10
0.3648
20
0.548789
11
0.374034
21
0.544964
0
LINE
8
BLACK
6
CONTINUOUS
10
0.374034
20
0.544964
11
0.382344
21
0.539411
0
LINE
8
BLACK
6
CONTINUOUS
10
0.382344
20
0.539411
11
0.389411
21
0.532344
0
LINE
8
BLACK
6
CONTINUOUS
10
0.389411
20
0.532344
11
0.394964
21
0.524034
0
LINE
8
BLACK
6
CONTINUOUS
10
0.394964
20
0.524034
11
0.398789
21
0.5148
0
LINE
8
BLACK
6
CONTINUOUS
10
0.398789
20
0.5148
11
0.4
21
0.508711
0
LINE
8
BLACK
6
CONTINUOUS
10
0.4
20
0.508711
11
0.401211
21
0.5148
0
LINE
8
BLACK
6
CONTINUOUS
10
0.401211
20
0.5148
11
0.405036
21
0.524034
0
LINE
8
BLACK
6
CONTINUOUS
10
0.405036
20
0.524034
11
0.410589
21
0.532344
0
LINE
8
BLACK
6
CONTINUOUS
10
0.410589
20
0.532344
11
0.417656
21
0.539411
0
LINE
8
BLACK
6
CONTINUOUS
10
0.417656
20
0.539411
11
0.425966
21
0.544964
0
LINE
8
BLACK
6
CONTINUOUS
10
0.425966
20
0.544964
11
0.4352
21
0.548789
0
LINE
8
BLACK
6
CONTINUOUS
10
0.4352
20
0.548789
11
0.445003
21
0.550739
0
LINE
8
BLACK
6
CONTINUOUS
10
0.445003
20
0.550739
11
0.454997
21
0.550739
0
LINE
8
BLACK
6
CONTINUOUS
10
0.454997
20
0.550739
11
0.4648
21
0.548789
0
LINE
8
BLACK
6
CONTINUOUS
10
0.4648
20
0.548789
11
0.474034
21
0.544964
0
LINE
8
BLACK
6
CONTINUOUS
10
0.474034
20
0.544964
11
0.482344
21
0.539411
0
LINE
8
BLACK
6
CONTINUOUS
10
0.482344
20
0.539411
11
0.489411
21
0.532344
0
LINE
8
BLACK
6
CONTINUOUS
10
0.489411
20
0.532344
11
0.494964
21
0.524034
0
LINE
8
BLACK
6
CONTINUOUS
10
0.494964
20
0.524034
11
0.498789
21
0.5148
0
LINE
8
BLACK
6
CONTINUOUS
10
0.498789
20
0.5148
11
0.500739
21
0.504997
0
LINE
8
BLACK
6
CONTINUOUS
10
0.500739
20
0.504997
11
0.500739
21
0.495003
0
LINE
8
BLACK
6
CONTINUOUS
10
0.500739
20
0.495003
11
0.498789
21
0.4852
0
LINE
8
BLACK
6
CONTINUOUS
10
0.498789
20
0.4852
11
0.494964
21
0.475966
0
LINE
8
BLACK
6
CONTINUOUS
10
0.494964
20
0.475966
11
0.489411
21
0.467656
0
LINE
8
BLACK
6
CONTINUOUS
10
0.489411
20
0.467656
11
0.482344
21
0.460589
0
LINE
8
BLACK
6
CONTINUOUS
10
0.482344
20
0.460589
11
0.474034
21
0.455036
0
LINE
8
BLACK
6
CONTINUOUS
10
0.474034
20
0.455036
11
0.4648
21
0.451211
0
LINE
8
BLACK
6
CONTINUOUS
10
0.4648
20
0.451211
11
0.454997
21
0.449261
0
LINE
8
BLACK
6
CONTINUOUS
10
0.454997
20
0.449261
11
0.445003
21
0.449261
0
LINE
8
BLACK
6
CONTINUOUS
10
0.445003
20
0.449261
11
0.4352
21
0.451211
0
LINE
8
BLACK
6
CONTINUOUS
10
0.4352
20
0.451211
11
0.425966
21
0.455036
0
LINE
8
BLACK
6
CONTINUOUS
10
0.425966
20
0.455036
11
0.417656
21
0.460589
0
LINE
8
BLACK
6
CONTINUOUS
10
0.417656
20
0.460589
11
0.410589
21
0.467656
0
LINE
8
BLACK
6
CONTINUOUS
10
0.410589
20
0.467656
11
0.405036
21
0.475966
0
LINE
8
BLACK
6
CONTINUOUS
10
0.405036
20
0.475966
11
0.401211
21
0.4852
0
LINE
8
BLACK
6
CONTINUOUS
10
0.401211
20
0.4852
11
0.4
21
0.491289
0
LINE
8
BLACK
6
CONTINUOUS
10
0.4
20
0.491289
11
0.398789
21
0.4852
0
LINE
8
BLACK
6
CONTINUOUS
10
0.398789
20
0.4852
11
0.394964
21
0.475966
0
LINE
8
BLACK
6
CONTINUOUS
10
0.394964
20
0.475966
11
0.389411
21
0.467656
0
LINE
8
BLACK
6
CONTINUOUS
10
0.389411
20
0.467656
11
0.382344
21
0.460589
0
LINE
8
BLACK
6
CONTINUOUS
10
0.382344
20
0.460589
11
0.374034
21
0.455036
0
LINE
8
BLACK
6
CONTINUOUS
10
0.374034
20
0.455036
11
0.3648
21
0.451211
0
LINE
8
BLACK
6
CONTINUOUS
10
0.3648
20
0.451211
11
0.354997
21
0.449261
0
LINE
8
BLACK
6
CONTINUOUS
10
0.354997
20
0.449261
11
0.345003
21
0.449261
0
LINE
8
BLACK
6
CONTINUOUS
10
0.345003
20
0.449261
11
0.3352
21
0.451211
0
LINE
8
BLACK
6
CONTINUOUS
10
0.3352
20
0.451211
11
0.325966
21
0.455036
0
LINE
8
BLACK
6
CONTINUOUS
10
0.325966
20
0.455036
11
0.317656
21
0.460589
0
LINE
8
BLACK
6
CONTINUOUS
10
0.317656
20
0.460589
11
0.310589
21
0.467656
0
LINE
8
BLACK
6
CONTINUOUS
10
0.310589
20
0.467656
11
0.305036
21
0.475966
0
LINE
8
BLACK
6
CONTINUOUS
10
0.305036
20
0.475966
11
0.301211
21
0.4852
0
LINE
8
BLACK
6
CONTINUOUS
10
0.301211
20
0.4852
11
0.299261
21
0.495003
0
LINE
8
BLACK
6
CONTINUOUS
10
0.299261
20
0.495003
11
0.299261
21
0.504997
0
LINE
8
BLACK
6
CONTINUOUS
10
0.299261
20
0.504997
11
0.301211
21
0.5148
0
LINE
8
BLACK
6
CONTINUOUS
10
0.303848
20
0.486
11
0.307466
21
0.477265
0
LINE
8
BLACK
6
CONTINUOUS
10
0.307466
20
0.477265
11
0.312719
21
0.469404
0
LINE
8
BLACK
6
CONTINUOUS
10
0.312719
20
0.469404
11
0.319404
21
0.462719
0
LINE
8
BLACK
6
CONTINUOUS
10
0.319404
20
0.462719
11
0.327265
21
0.457466
0
LINE
8
BLACK
6
CONTINUOUS
10
0.327265
20
0.457466
11
0.336
21
0.453848
0
LINE
8
BLACK
6
CONTINUOUS
10
0.336
20
0.453848
11
0.345273
21
0.452004
0
LINE
8
BLACK
6
CONTINUOUS
10
0.345273
20
0.452004
11
0.354727
21
0.452004
0
LINE
8
BLACK
6
CONTINUOUS
10
0.354727
20
0.452004
11
0.364
21
0.453848
0
LINE
8
BLACK
6
CONTINUOUS
10
0.364
20
0.453848
11
0.372735
21
0.457466
0
LINE
8
BLACK
6
CONTINUOUS
10
0.372735
20
0.457466
11
0.380596
21
0.462719
0
LINE
8
BLACK
6
CONTINUOUS
10
0.380596
20
0.462719
11
0.387281
21
0.469404
0
LINE
8
BLACK
6
CONTINUOUS
10
0.387281
20
0.469404
11
0.392534
21
0.477265
0
LINE
8
BLACK
6
CONTINUOUS
10
0.392534
20
0.477265
11
0.396152
21
0.486
0
LINE
8
BLACK
6
CONTINUOUS
10
0.396152
20
0.486
11
0.397996
21
0.495273
0
LINE
8
BLACK
6
CONTINUOUS
10
0.397996
20
0.495273
11
0.397996
21
0.504727
0
LINE
8
BLACK
6
CONTINUOUS
10
0.397996
20
0.504727
11
0.396152
21
0.514
0
LINE
8
BLACK
6
CONTINUOUS
10
0.396152
20
0.514
11
0.392534
21
0.522735
0
LINE
8
BLACK
6
CONTINUOUS
10
0.392534
20
0.522735
11
0.387281
21
0.530596
0
LINE
8
BLACK
6
CONTINUOUS
10
0.387281
20
0.530596
11
0.380596
21
0.537281
0
LINE
8
BLACK
6
CONTINUOUS
10
0.380596
20
0.537281
11
0.372735
21
0.542534
0
LINE
8
BLACK
6
CONTINUOUS
10
0.372735
20
0.542534
11
0.364
21
0.546152
0
LINE
8
BLACK
6
CONTINUOUS
10
0.364
20
0.546152
11
0.354727
21
0.547996
0
LINE
8
BLACK
6
CONTINUOUS
10
0.354727
20
0.547996
11
0.345273
21
0.547996
0
LINE
8
BLACK
6
CONTINUOUS
10
0.345273
20
0.547996
11
0.336
21
0.546152
0
LINE
8
BLACK
6
CONTINUOUS
10
0.336
20
0.546152
11
0.327265
21
0.542534
0
LINE
8
BLACK
6
CONTINUOUS
10
0.327265
20
0.542534
11
0.319404
21
0.537281
0
LINE
8
BLACK
6
CONTINUOUS
10
0.319404
20
0.537281
11
0.312719
21
0.530596
0
LINE
8
BLACK
6
CONTINUOUS
10
0.312719
20
0.530596
11
0.307466
21
0.522735
0
LINE
8
BLACK
6
CONTINUOUS
10
0.307466
20
0.522735
11
0.303848
21
0.514
0
LINE
8
BLACK
6
CONTINUOUS
10
0.303848
20
0.514
11
0.302004
21
0.504727
0
LINE
8
BLACK
6
CONTINUOUS
10
0.302004
20
0.504727
11
0.302004
21
0.495273
0
LINE
8
BLACK
6
CONTINUOUS
10
0.302004
20
0.495273
11
0.303848
21
0.486
0
LINE
8
BLACK
6
CONTINUOUS
10
0.403848
20
0.486
11
0.407466
21
0.477265
0
LINE
8
BLACK
6
CONTINUOUS
10
0.407466
20
0.477265
11
0.412719
21
0.469404
0
LINE
8
BLACK
6
CONTINUOUS
10
0.412719
20
0.469404
11
0.419404
21
0.462719
0
LINE
8
BLACK
6
CONTINUOUS
10
0.419404
20
0.462719
11
0.427265
21
0.457466
0
LINE
8
BLACK
6
CONTINUOUS
10
0.427265
20
0.457466
11
0.436
21
0.453848
0
LINE
8
BLACK
6
CONTINUOUS
10
0.436
20
0.453848
11
0.445273
21
0.452004
0
LINE
8
BLACK
6
CONTINUOUS
10
0.445273
20
0.452004
11
0.454727
21
0.452004
0
LINE
8
BLACK
6
CONTINUOUS
10
0.454727
20
0.452004
11
0.464
21
0.453848
0
LINE
8
BLACK
6
CONTINUOUS
10
0.464
20
0.453848
11
0.472735
21
0.457466
0
LINE
8
BLACK
6
CONTINUOUS
10
0.472735
20
0.457466
11
0.480596
21
0.462719
0
LINE
8
BLACK
6
CONTINUOUS
10
0.480596
20
0.462719
11
0.487281
21
0.469404
0
LINE
8
BLACK
6
CONTINUOUS
10
0.487281
20
0.469404
11
0.492534
21
0.477265
0
LINE
8
BLACK
6
CONTINUOUS
10
0.492534
20
0.477265
11
0.496152
21
0.486
0
LINE
8
BLACK
6
CONTINUOUS
10
0.496152
20
0.486
11
0.497996
21
0.495273
0
LINE
8
BLACK
6
CONTINUOUS
10
0.497996
20
0.495273
11
0.497996
21
0.504727
0
LINE
8
BLACK
6
CONTINUOUS
10
0.497996
20
0.504727
11
0.496152
21
0.514
0
LINE
8
BLACK
6
CONTINUOUS
10
0.496152
20
0.514
11
0.492534
21
0.522735
0
LINE
8
BLACK
6
CONTINUOUS
10
0.492534
20
0.522735
11
0.487281
21
0.530596
0
LINE
8
BLACK
6
CONTINUOUS
10
0.487281
20
0.530596
11
0.480596
21
0.537281
0
LINE
8
BLACK
6
CONTINUOUS
10
0.480596
20
0.537281
11
0.472735
21
0.542534
0
LINE
8
BLACK
6
CONTINUOUS
10
0.472735
20
0.542534
11
0.464
21
0.546152
0
LINE
8
BLACK
6
CONTINUOUS
10
0.464
20
0.546152
11
0.454727
21
0.547996
0
LINE
8
BLACK
6
CONTINUOUS
10
0.454727
20
0.547996
11
0.445273
21
0.547996
0
LINE
8
BLACK
6
CONTINUOUS
10
0.445273
20
0.547996
11
0.436
21
0.546152
0
LINE
8
BLACK
6
CONTINUOUS
10
0.436
20
0.546152
11
0.427265
21
0.542534
0
LINE
8
BLACK
6
CONTINUOUS
10
0.427265
20
0.542534
11
0.419404
21
0.537281
0
LINE
8
BLACK
6
CONTINUOUS
10
0.419404
20
0.537281
11
0.412719
21
0.530596
0
LINE
8
BLACK
6
CONTINUOUS
10
0.412719
20
0.530596
11
0.407466
21
0.522735
0
LINE
8
BLACK
6
CONTINUOUS
10
0.407466
20
0.522735
11
0.403848
21
0.514
0
LINE
8
BLACK
6
CONTINUOUS
10
0.403848
20
0.514
11
0.402004
21
0.504727
0
LINE
8
BLACK
6
CONTINUOUS
10
0.402004
20
0.504727
11
0.402004
21
0.495273
0
LINE
8
BLACK
6
CONTINUOUS
10
0.402004
20
0.495273
11
0.403848
21
0.486
  0
ENDSEC
  0
EOF
