  0
SECTION
  2
HEADER
  9
$ANGBASE
  50
0.0
  9
$ANGDIR
  70
1
  9
$MEASUREMENT
  70
0
  0
ENDSEC
  0
SECTION
  2
TABLES
  0
TABLE
  2
LTYPE
  70
4
  0
LTYPE
  5
40F
  2
CONTINUOUS
  70
0
  3
Solid line
  72
65
  73
0
  40
0.0
  0
LTYPE
  5
410
  2
DASHDOT
 70
0
  3
Dash Dot ____ _ ____ _
 72
65
 73
4
 40
2.0
 49
1.25
 49
-0.25
 49
0.25
 49
-0.25
  0
LTYPE
  5
411
  2
DASHED
 70
0
  3
Dashed __ __ __ __ __
 72
65
 73
2
 40
0.75
 49
0.5
 49
-0.25
  0
LTYPE
  5
43B
  2
DOTTED
 70
0
  3
Dotted .  .  .  .
 72
65
 73
2
 40
0.2
 49
0.0
 49
-0.2
  0
ENDTAB
  0
TABLE
  2
STYLE
  70
4
  0
STYLE
  2
KICAD
  70
0
  40
0
  41
1
  42
1
  50
0
  71
0
  3
isocp.shx
  0
STYLE
  2
KICADB
  70
0
  40
0
  41
1
  42
1
  50
0
  71
0
  3
isocp.shx
  0
STYLE
  2
KICADI
  70
0
  40
0
  41
1
  42
1
  50
15
  71
0
  3
isocp.shx
  0
STYLE
  2
KICADBI
  70
0
  40
0
  41
1
  42
1
  50
15
  71
0
  3
isocp.shx
  0
ENDTAB
  0
TABLE
  2
LAYER
  70
1
  0
LAYER
  2
BLACK
  70
0
  62
7
  6
CONTINUOUS
  0
ENDTAB
  0
ENDSEC
  0
SECTION
  2
ENTITIES
0
LINE
8
BLACK
6
CONTINUOUS
10
-0.0572913
20
0.439735
11
-0.0569202
21
0.439623
0
LINE
8
BLACK
6
CONTINUOUS
10
-0.0569202
20
0.439623
11
-0.0565783
21
0.43944
0
LINE
8
BLACK
6
CONTINUOUS
10
-0.0565783
20
0.43944
11
-0.0562785
21
0.439194
0
LINE
8
BLACK
6
CONTINUOUS
10
-0.0562785
20
0.439194
11
-0.0560325
21
0.438894
0
LINE
8
BLACK
6
CONTINUOUS
10
-0.0560325
20
0.438894
11
-0.0558497
21
0.438552
0
LINE
8
BLACK
6
CONTINUOUS
10
-0.0558497
20
0.438552
11
-0.0557372
21
0.438181
0
LINE
8
BLACK
6
CONTINUOUS
10
-0.0557372
20
0.438181
11
-0.0557087
21
0.437892
0
LINE
8
BLACK
6
CONTINUOUS
10
-0.0557087
20
0.437892
11
-0.0557087
21
0.162108
0
LINE
8
BLACK
6
CONTINUOUS
10
-0.0557087
20
0.162108
11
-0.0557372
21
0.161819
0
LINE
8
BLACK
6
CONTINUOUS
10
-0.0557372
20
0.161819
11
-0.0558497
21
0.161448
0
LINE
8
BLACK
6
CONTINUOUS
10
-0.0558497
20
0.161448
11
-0.0560325
21
0.161106
0
LINE
8
BLACK
6
CONTINUOUS
10
-0.0560325
20
0.161106
11
-0.0562785
21
0.160806
0
LINE
8
BLACK
6
CONTINUOUS
10
-0.0562785
20
0.160806
11
-0.0565783
21
0.16056
0
LINE
8
BLACK
6
CONTINUOUS
10
-0.0565783
20
0.16056
11
-0.0569203
21
0.160377
0
LINE
8
BLACK
6
CONTINUOUS
10
-0.0569203
20
0.160377
11
-0.0572913
21
0.160265
0
LINE
8
BLACK
6
CONTINUOUS
10
-0.0572913
20
0.160265
11
-0.0576772
21
0.160227
0
LINE
8
BLACK
6
CONTINUOUS
10
-0.0576772
20
0.160227
11
-0.0580631
21
0.160265
0
LINE
8
BLACK
6
CONTINUOUS
10
-0.0580631
20
0.160265
11
-0.0584341
21
0.160377
0
LINE
8
BLACK
6
CONTINUOUS
10
-0.0584341
20
0.160377
11
-0.0587761
21
0.16056
0
LINE
8
BLACK
6
CONTINUOUS
10
-0.0587761
20
0.16056
11
-0.0590758
21
0.160806
0
LINE
8
BLACK
6
CONTINUOUS
10
-0.0590758
20
0.160806
11
-0.0593218
21
0.161106
0
LINE
8
BLACK
6
CONTINUOUS
10
-0.0593218
20
0.161106
11
-0.0595046
21
0.161448
0
LINE
8
BLACK
6
CONTINUOUS
10
-0.0595046
20
0.161448
11
-0.0596172
21
0.161819
0
LINE
8
BLACK
6
CONTINUOUS
10
-0.0596172
20
0.161819
11
-0.0596457
21
0.162108
0
LINE
8
BLACK
6
CONTINUOUS
10
-0.0596457
20
0.162108
11
-0.0596456
21
0.437892
0
LINE
8
BLACK
6
CONTINUOUS
10
-0.0596456
20
0.437892
11
-0.0596171
21
0.438181
0
LINE
8
BLACK
6
CONTINUOUS
10
-0.0596171
20
0.438181
11
-0.0595046
21
0.438552
0
LINE
8
BLACK
6
CONTINUOUS
10
-0.0595046
20
0.438552
11
-0.0593218
21
0.438894
0
LINE
8
BLACK
6
CONTINUOUS
10
-0.0593218
20
0.438894
11
-0.0590758
21
0.439194
0
LINE
8
BLACK
6
CONTINUOUS
10
-0.0590758
20
0.439194
11
-0.058776
21
0.43944
0
LINE
8
BLACK
6
CONTINUOUS
10
-0.058776
20
0.43944
11
-0.0584341
21
0.439623
0
LINE
8
BLACK
6
CONTINUOUS
10
-0.0584341
20
0.439623
11
-0.058063
21
0.439735
0
LINE
8
BLACK
6
CONTINUOUS
10
-0.058063
20
0.439735
11
-0.0576772
21
0.439773
0
LINE
8
BLACK
6
CONTINUOUS
10
-0.0576772
20
0.439773
11
-0.0572913
21
0.439735
0
LINE
8
BLACK
6
CONTINUOUS
10
0.901347
20
0.335433
11
0.901492
21
0.335419
0
LINE
8
BLACK
6
CONTINUOUS
10
0.901492
20
0.335419
11
0.901678
21
0.335363
0
LINE
8
BLACK
6
CONTINUOUS
10
0.901678
20
0.335363
11
0.901849
21
0.335271
0
LINE
8
BLACK
6
CONTINUOUS
10
0.901849
20
0.335271
11
0.901999
21
0.335148
0
LINE
8
BLACK
6
CONTINUOUS
10
0.901999
20
0.335148
11
0.902122
21
0.334998
0
LINE
8
BLACK
6
CONTINUOUS
10
0.902122
20
0.334998
11
0.902213
21
0.334827
0
LINE
8
BLACK
6
CONTINUOUS
10
0.902213
20
0.334827
11
0.902269
21
0.334642
0
LINE
8
BLACK
6
CONTINUOUS
10
0.902269
20
0.334642
11
0.902288
21
0.334449
0
LINE
8
BLACK
6
CONTINUOUS
10
0.902288
20
0.334449
11
0.902283
21
0.334401
0
LINE
8
BLACK
6
CONTINUOUS
10
0.902283
20
0.334401
11
0.902283
21
0.314812
0
LINE
8
BLACK
6
CONTINUOUS
10
0.902283
20
0.314812
11
0.902288
21
0.314764
0
LINE
8
BLACK
6
CONTINUOUS
10
0.902288
20
0.314764
11
0.902283
21
0.314716
0
LINE
8
BLACK
6
CONTINUOUS
10
0.902283
20
0.314716
11
0.902283
21
0.295127
0
LINE
8
BLACK
6
CONTINUOUS
10
0.902283
20
0.295127
11
0.902288
21
0.295079
0
LINE
8
BLACK
6
CONTINUOUS
10
0.902288
20
0.295079
11
0.902283
21
0.295031
0
LINE
8
BLACK
6
CONTINUOUS
10
0.902283
20
0.295031
11
0.902283
21
0.275442
0
LINE
8
BLACK
6
CONTINUOUS
10
0.902283
20
0.275442
11
0.902288
21
0.275394
0
LINE
8
BLACK
6
CONTINUOUS
10
0.902288
20
0.275394
11
0.902283
21
0.275346
0
LINE
8
BLACK
6
CONTINUOUS
10
0.902283
20
0.275346
11
0.902283
21
0.265599
0
LINE
8
BLACK
6
CONTINUOUS
10
0.902283
20
0.265599
11
0.902288
21
0.265551
0
LINE
8
BLACK
6
CONTINUOUS
10
0.902288
20
0.265551
11
0.902269
21
0.265358
0
LINE
8
BLACK
6
CONTINUOUS
10
0.902269
20
0.265358
11
0.902213
21
0.265173
0
LINE
8
BLACK
6
CONTINUOUS
10
0.902213
20
0.265173
11
0.902122
21
0.265002
0
LINE
8
BLACK
6
CONTINUOUS
10
0.902122
20
0.265002
11
0.901999
21
0.264852
0
LINE
8
BLACK
6
CONTINUOUS
10
0.901999
20
0.264852
11
0.901849
21
0.264729
0
LINE
8
BLACK
6
CONTINUOUS
10
0.901849
20
0.264729
11
0.901678
21
0.264637
0
LINE
8
BLACK
6
CONTINUOUS
10
0.901678
20
0.264637
11
0.901492
21
0.264581
0
LINE
8
BLACK
6
CONTINUOUS
10
0.901492
20
0.264581
11
0.901347
21
0.264567
0
LINE
8
BLACK
6
CONTINUOUS
10
0.901347
20
0.264567
11
0.901347
21
0.264567
0
LINE
8
BLACK
6
CONTINUOUS
10
0.901347
20
0.264567
11
0.901299
21
0.264562
0
LINE
8
BLACK
6
CONTINUOUS
10
0.901299
20
0.264562
11
0.901251
21
0.264567
0
LINE
8
BLACK
6
CONTINUOUS
10
0.901251
20
0.264567
11
0.891505
21
0.264567
0
LINE
8
BLACK
6
CONTINUOUS
10
0.891505
20
0.264567
11
0.891457
21
0.264562
0
LINE
8
BLACK
6
CONTINUOUS
10
0.891457
20
0.264562
11
0.891409
21
0.264567
0
LINE
8
BLACK
6
CONTINUOUS
10
0.891409
20
0.264567
11
0.87182
21
0.264567
0
LINE
8
BLACK
6
CONTINUOUS
10
0.87182
20
0.264567
11
0.871772
21
0.264562
0
LINE
8
BLACK
6
CONTINUOUS
10
0.871772
20
0.264562
11
0.871724
21
0.264567
0
LINE
8
BLACK
6
CONTINUOUS
10
0.871724
20
0.264567
11
0.852135
21
0.264567
0
LINE
8
BLACK
6
CONTINUOUS
10
0.852135
20
0.264567
11
0.852087
21
0.264562
0
LINE
8
BLACK
6
CONTINUOUS
10
0.852087
20
0.264562
11
0.852039
21
0.264567
0
LINE
8
BLACK
6
CONTINUOUS
10
0.852039
20
0.264567
11
0.838749
21
0.264567
0
LINE
8
BLACK
6
CONTINUOUS
10
0.838749
20
0.264567
11
0.838701
21
0.264562
0
LINE
8
BLACK
6
CONTINUOUS
10
0.838701
20
0.264562
11
0.838508
21
0.264581
0
LINE
8
BLACK
6
CONTINUOUS
10
0.838508
20
0.264581
11
0.838322
21
0.264637
0
LINE
8
BLACK
6
CONTINUOUS
10
0.838322
20
0.264637
11
0.838151
21
0.264729
0
LINE
8
BLACK
6
CONTINUOUS
10
0.838151
20
0.264729
11
0.838001
21
0.264852
0
LINE
8
BLACK
6
CONTINUOUS
10
0.838001
20
0.264852
11
0.838001
21
0.264852
0
LINE
8
BLACK
6
CONTINUOUS
10
0.838001
20
0.264852
11
0.837878
21
0.265002
0
LINE
8
BLACK
6
CONTINUOUS
10
0.837878
20
0.265002
11
0.837787
21
0.265173
0
LINE
8
BLACK
6
CONTINUOUS
10
0.837787
20
0.265173
11
0.837731
21
0.265358
0
LINE
8
BLACK
6
CONTINUOUS
10
0.837731
20
0.265358
11
0.837712
21
0.265551
0
LINE
8
BLACK
6
CONTINUOUS
10
0.837712
20
0.265551
11
0.837717
21
0.265599
0
LINE
8
BLACK
6
CONTINUOUS
10
0.837717
20
0.265599
11
0.837717
21
0.278889
0
LINE
8
BLACK
6
CONTINUOUS
10
0.837717
20
0.278889
11
0.837712
21
0.278937
0
LINE
8
BLACK
6
CONTINUOUS
10
0.837712
20
0.278937
11
0.837717
21
0.278985
0
LINE
8
BLACK
6
CONTINUOUS
10
0.837717
20
0.278985
11
0.837717
21
0.298574
0
LINE
8
BLACK
6
CONTINUOUS
10
0.837717
20
0.298574
11
0.837712
21
0.298622
0
LINE
8
BLACK
6
CONTINUOUS
10
0.837712
20
0.298622
11
0.837717
21
0.29867
0
LINE
8
BLACK
6
CONTINUOUS
10
0.837717
20
0.29867
11
0.837717
21
0.318259
0
LINE
8
BLACK
6
CONTINUOUS
10
0.837717
20
0.318259
11
0.837712
21
0.318307
0
LINE
8
BLACK
6
CONTINUOUS
10
0.837712
20
0.318307
11
0.837717
21
0.318355
0
LINE
8
BLACK
6
CONTINUOUS
10
0.837717
20
0.318355
11
0.837717
21
0.3344
0
LINE
8
BLACK
6
CONTINUOUS
10
0.837717
20
0.3344
11
0.837712
21
0.334449
0
LINE
8
BLACK
6
CONTINUOUS
10
0.837712
20
0.334449
11
0.837731
21
0.334642
0
LINE
8
BLACK
6
CONTINUOUS
10
0.837731
20
0.334642
11
0.837787
21
0.334827
0
LINE
8
BLACK
6
CONTINUOUS
10
0.837787
20
0.334827
11
0.837878
21
0.334998
0
LINE
8
BLACK
6
CONTINUOUS
10
0.837878
20
0.334998
11
0.838001
21
0.335148
0
LINE
8
BLACK
6
CONTINUOUS
10
0.838001
20
0.335148
11
0.838151
21
0.335271
0
LINE
8
BLACK
6
CONTINUOUS
10
0.838151
20
0.335271
11
0.838322
21
0.335363
0
LINE
8
BLACK
6
CONTINUOUS
10
0.838322
20
0.335363
11
0.838508
21
0.335419
0
LINE
8
BLACK
6
CONTINUOUS
10
0.838508
20
0.335419
11
0.838653
21
0.335433
0
LINE
8
BLACK
6
CONTINUOUS
10
0.838653
20
0.335433
11
0.838653
21
0.335433
0
LINE
8
BLACK
6
CONTINUOUS
10
0.838653
20
0.335433
11
0.838701
21
0.335438
0
LINE
8
BLACK
6
CONTINUOUS
10
0.838701
20
0.335438
11
0.838749
21
0.335433
0
LINE
8
BLACK
6
CONTINUOUS
10
0.838749
20
0.335433
11
0.842196
21
0.335433
0
LINE
8
BLACK
6
CONTINUOUS
10
0.842196
20
0.335433
11
0.842244
21
0.335438
0
LINE
8
BLACK
6
CONTINUOUS
10
0.842244
20
0.335438
11
0.842292
21
0.335433
0
LINE
8
BLACK
6
CONTINUOUS
10
0.842292
20
0.335433
11
0.861881
21
0.335433
0
LINE
8
BLACK
6
CONTINUOUS
10
0.861881
20
0.335433
11
0.861929
21
0.335438
0
LINE
8
BLACK
6
CONTINUOUS
10
0.861929
20
0.335438
11
0.861977
21
0.335433
0
LINE
8
BLACK
6
CONTINUOUS
10
0.861977
20
0.335433
11
0.881566
21
0.335433
0
LINE
8
BLACK
6
CONTINUOUS
10
0.881566
20
0.335433
11
0.881614
21
0.335438
0
LINE
8
BLACK
6
CONTINUOUS
10
0.881614
20
0.335438
11
0.881662
21
0.335433
0
LINE
8
BLACK
6
CONTINUOUS
10
0.881662
20
0.335433
11
0.901251
21
0.335433
0
LINE
8
BLACK
6
CONTINUOUS
10
0.901251
20
0.335433
11
0.901299
21
0.335438
0
LINE
8
BLACK
6
CONTINUOUS
10
0.901299
20
0.335438
11
0.901347
21
0.335433
0
LINE
8
BLACK
6
CONTINUOUS
10
0.839685
20
0.266535
11
0.84971
21
0.266535
0
LINE
8
BLACK
6
CONTINUOUS
10
0.84971
20
0.266535
11
0.839685
21
0.276561
0
LINE
8
BLACK
6
CONTINUOUS
10
0.839685
20
0.276561
11
0.839685
21
0.266535
0
LINE
8
BLACK
6
CONTINUOUS
10
0.839685
20
0.279345
11
0.852494
21
0.266535
0
LINE
8
BLACK
6
CONTINUOUS
10
0.852494
20
0.266535
11
0.869395
21
0.266535
0
LINE
8
BLACK
6
CONTINUOUS
10
0.869395
20
0.266535
11
0.839685
21
0.296246
0
LINE
8
BLACK
6
CONTINUOUS
10
0.839685
20
0.296246
11
0.839685
21
0.279345
0
LINE
8
BLACK
6
CONTINUOUS
10
0.839685
20
0.29903
11
0.872179
21
0.266535
0
LINE
8
BLACK
6
CONTINUOUS
10
0.872179
20
0.266535
11
0.889081
21
0.266535
0
LINE
8
BLACK
6
CONTINUOUS
10
0.889081
20
0.266535
11
0.839685
21
0.315931
0
LINE
8
BLACK
6
CONTINUOUS
10
0.839685
20
0.315931
11
0.839685
21
0.29903
0
LINE
8
BLACK
6
CONTINUOUS
10
0.839685
20
0.333465
11
0.839685
21
0.318715
0
LINE
8
BLACK
6
CONTINUOUS
10
0.839685
20
0.318715
11
0.891864
21
0.266535
0
LINE
8
BLACK
6
CONTINUOUS
10
0.891864
20
0.266535
11
0.900315
21
0.266535
0
LINE
8
BLACK
6
CONTINUOUS
10
0.900315
20
0.266535
11
0.900315
21
0.274986
0
LINE
8
BLACK
6
CONTINUOUS
10
0.900315
20
0.274986
11
0.841836
21
0.333465
0
LINE
8
BLACK
6
CONTINUOUS
10
0.841836
20
0.333465
11
0.839685
21
0.333465
0
LINE
8
BLACK
6
CONTINUOUS
10
0.84462
20
0.333465
11
0.900315
21
0.27777
0
LINE
8
BLACK
6
CONTINUOUS
10
0.900315
20
0.27777
11
0.900315
21
0.294671
0
LINE
8
BLACK
6
CONTINUOUS
10
0.900315
20
0.294671
11
0.861521
21
0.333465
0
LINE
8
BLACK
6
CONTINUOUS
10
0.861521
20
0.333465
11
0.84462
21
0.333465
0
LINE
8
BLACK
6
CONTINUOUS
10
0.864305
20
0.333465
11
0.900315
21
0.297455
0
LINE
8
BLACK
6
CONTINUOUS
10
0.900315
20
0.297455
11
0.900315
21
0.314356
0
LINE
8
BLACK
6
CONTINUOUS
10
0.900315
20
0.314356
11
0.881207
21
0.333465
0
LINE
8
BLACK
6
CONTINUOUS
10
0.881207
20
0.333465
11
0.864305
21
0.333465
0
LINE
8
BLACK
6
CONTINUOUS
10
0.88399
20
0.333465
11
0.900315
21
0.31714
0
LINE
8
BLACK
6
CONTINUOUS
10
0.900315
20
0.31714
11
0.900315
21
0.333465
0
LINE
8
BLACK
6
CONTINUOUS
10
0.900315
20
0.333465
11
0.88399
21
0.333465
  0
ENDSEC
  0
EOF
