  0
SECTION
  2
HEADER
  9
$ANGBASE
  50
0.0
  9
$ANGDIR
  70
1
  9
$MEASUREMENT
  70
0
  0
ENDSEC
  0
SECTION
  2
TABLES
  0
TABLE
  2
LTYPE
  70
4
  0
LTYPE
  5
40F
  2
CONTINUOUS
  70
0
  3
Solid line
  72
65
  73
0
  40
0.0
  0
LTYPE
  5
410
  2
DASHDOT
 70
0
  3
Dash Dot ____ _ ____ _
 72
65
 73
4
 40
2.0
 49
1.25
 49
-0.25
 49
0.25
 49
-0.25
  0
LTYPE
  5
411
  2
DASHED
 70
0
  3
Dashed __ __ __ __ __
 72
65
 73
2
 40
0.75
 49
0.5
 49
-0.25
  0
LTYPE
  5
43B
  2
DOTTED
 70
0
  3
Dotted .  .  .  .
 72
65
 73
2
 40
0.2
 49
0.0
 49
-0.2
  0
ENDTAB
  0
TABLE
  2
STYLE
  70
4
  0
STYLE
  2
KICAD
  70
0
  40
0
  41
1
  42
1
  50
0
  71
0
  3
isocp.shx
  0
STYLE
  2
KICADB
  70
0
  40
0
  41
1
  42
1
  50
0
  71
0
  3
isocp.shx
  0
STYLE
  2
KICADI
  70
0
  40
0
  41
1
  42
1
  50
15
  71
0
  3
isocp.shx
  0
STYLE
  2
KICADBI
  70
0
  40
0
  41
1
  42
1
  50
15
  71
0
  3
isocp.shx
  0
ENDTAB
  0
TABLE
  2
LAYER
  70
1
  0
LAYER
  2
BLACK
  70
0
  62
7
  6
CONTINUOUS
  0
ENDTAB
  0
ENDSEC
  0
SECTION
  2
ENTITIES
0
LINE
8
BLACK
6
CONTINUOUS
10
1.13512
20
0.64999
11
1.13529
21
0.64992
0
LINE
8
BLACK
6
CONTINUOUS
10
1.13529
20
0.64992
11
1.13545
21
0.649852
0
LINE
8
BLACK
6
CONTINUOUS
10
1.13545
20
0.649852
11
1.13976
21
0.647561
0
LINE
8
BLACK
6
CONTINUOUS
10
1.13976
20
0.647561
11
1.13976
21
0.647561
0
LINE
8
BLACK
6
CONTINUOUS
10
1.13976
20
0.647561
11
1.13976
21
0.647561
0
LINE
8
BLACK
6
CONTINUOUS
10
1.13976
20
0.647561
11
1.13978
21
0.647548
0
LINE
8
BLACK
6
CONTINUOUS
10
1.13978
20
0.647548
11
1.13993
21
0.647449
0
LINE
8
BLACK
6
CONTINUOUS
10
1.13993
20
0.647449
11
1.14008
21
0.647349
0
LINE
8
BLACK
6
CONTINUOUS
10
1.14008
20
0.647349
11
1.14386
21
0.644265
0
LINE
8
BLACK
6
CONTINUOUS
10
1.14386
20
0.644265
11
1.14386
21
0.644265
0
LINE
8
BLACK
6
CONTINUOUS
10
1.14386
20
0.644265
11
1.14386
21
0.644264
0
LINE
8
BLACK
6
CONTINUOUS
10
1.14386
20
0.644264
11
1.14388
21
0.644247
0
LINE
8
BLACK
6
CONTINUOUS
10
1.14388
20
0.644247
11
1.144
21
0.644121
0
LINE
8
BLACK
6
CONTINUOUS
10
1.144
20
0.644121
11
1.14413
21
0.643994
0
LINE
8
BLACK
6
CONTINUOUS
10
1.14413
20
0.643994
11
1.14724
21
0.640235
0
LINE
8
BLACK
6
CONTINUOUS
10
1.14724
20
0.640235
11
1.14724
21
0.640235
0
LINE
8
BLACK
6
CONTINUOUS
10
1.14724
20
0.640235
11
1.14724
21
0.640234
0
LINE
8
BLACK
6
CONTINUOUS
10
1.14724
20
0.640234
11
1.14726
21
0.640213
0
LINE
8
BLACK
6
CONTINUOUS
10
1.14726
20
0.640213
11
1.14736
21
0.640065
0
LINE
8
BLACK
6
CONTINUOUS
10
1.14736
20
0.640065
11
1.14746
21
0.639916
0
LINE
8
BLACK
6
CONTINUOUS
10
1.14746
20
0.639916
11
1.14978
21
0.635624
0
LINE
8
BLACK
6
CONTINUOUS
10
1.14978
20
0.635624
11
1.14978
21
0.635624
0
LINE
8
BLACK
6
CONTINUOUS
10
1.14978
20
0.635624
11
1.14978
21
0.635624
0
LINE
8
BLACK
6
CONTINUOUS
10
1.14978
20
0.635624
11
1.14979
21
0.6356
0
LINE
8
BLACK
6
CONTINUOUS
10
1.14979
20
0.6356
11
1.14986
21
0.635435
0
LINE
8
BLACK
6
CONTINUOUS
10
1.14986
20
0.635435
11
1.14993
21
0.63527
0
LINE
8
BLACK
6
CONTINUOUS
10
1.14993
20
0.63527
11
1.15137
21
0.630609
0
LINE
8
BLACK
6
CONTINUOUS
10
1.15137
20
0.630609
11
1.15138
21
0.630583
0
LINE
8
BLACK
6
CONTINUOUS
10
1.15138
20
0.630583
11
1.15141
21
0.630409
0
LINE
8
BLACK
6
CONTINUOUS
10
1.15141
20
0.630409
11
1.15145
21
0.630233
0
LINE
8
BLACK
6
CONTINUOUS
10
1.15145
20
0.630233
11
1.15196
21
0.62538
0
LINE
8
BLACK
6
CONTINUOUS
10
1.15196
20
0.62538
11
1.15196
21
0.625353
0
LINE
8
BLACK
6
CONTINUOUS
10
1.15196
20
0.625353
11
1.15196
21
0.625267
0
LINE
8
BLACK
6
CONTINUOUS
10
1.15196
20
0.625267
11
1.15197
21
0.625181
0
LINE
8
BLACK
6
CONTINUOUS
10
1.15197
20
0.625181
11
1.15197
21
0.6251
0
LINE
8
BLACK
6
CONTINUOUS
10
1.15197
20
0.6251
11
1.15197
21
0.625096
0
LINE
8
BLACK
6
CONTINUOUS
10
1.15197
20
0.625096
11
1.15197
21
-0.0250964
0
LINE
8
BLACK
6
CONTINUOUS
10
1.15197
20
-0.0250964
11
1.15196
21
-0.025192
0
LINE
8
BLACK
6
CONTINUOUS
10
1.15196
20
-0.025192
11
1.15196
21
-0.0251921
0
LINE
8
BLACK
6
CONTINUOUS
10
1.15196
20
-0.0251921
11
1.15148
21
-0.0300476
0
LINE
8
BLACK
6
CONTINUOUS
10
1.15148
20
-0.0300476
11
1.15148
21
-0.030048
0
LINE
8
BLACK
6
CONTINUOUS
10
1.15148
20
-0.030048
11
1.15148
21
-0.0300484
0
LINE
8
BLACK
6
CONTINUOUS
10
1.15148
20
-0.0300484
11
1.15148
21
-0.0300753
0
LINE
8
BLACK
6
CONTINUOUS
10
1.15148
20
-0.0300753
11
1.15144
21
-0.0302476
0
LINE
8
BLACK
6
CONTINUOUS
10
1.15144
20
-0.0302476
11
1.15141
21
-0.0304248
0
LINE
8
BLACK
6
CONTINUOUS
10
1.15141
20
-0.0304248
11
1.15
21
-0.0350957
0
LINE
8
BLACK
6
CONTINUOUS
10
1.15
20
-0.0350957
11
1.14999
21
-0.035122
0
LINE
8
BLACK
6
CONTINUOUS
10
1.14999
20
-0.035122
11
1.14992
21
-0.0352848
0
LINE
8
BLACK
6
CONTINUOUS
10
1.14992
20
-0.0352848
11
1.14985
21
-0.0354509
0
LINE
8
BLACK
6
CONTINUOUS
10
1.14985
20
-0.0354509
11
1.14756
21
-0.039759
0
LINE
8
BLACK
6
CONTINUOUS
10
1.14756
20
-0.039759
11
1.14755
21
-0.0397831
0
LINE
8
BLACK
6
CONTINUOUS
10
1.14755
20
-0.0397831
11
1.14745
21
-0.0399304
0
LINE
8
BLACK
6
CONTINUOUS
10
1.14745
20
-0.0399304
11
1.14735
21
-0.040079
0
LINE
8
BLACK
6
CONTINUOUS
10
1.14735
20
-0.040079
11
1.14426
21
-0.04386
0
LINE
8
BLACK
6
CONTINUOUS
10
1.14426
20
-0.04386
11
1.14425
21
-0.0438812
0
LINE
8
BLACK
6
CONTINUOUS
10
1.14425
20
-0.0438812
11
1.14412
21
-0.0440052
0
LINE
8
BLACK
6
CONTINUOUS
10
1.14412
20
-0.0440052
11
1.14399
21
-0.0441326
0
LINE
8
BLACK
6
CONTINUOUS
10
1.14399
20
-0.0441326
11
1.14023
21
-0.0472427
0
LINE
8
BLACK
6
CONTINUOUS
10
1.14023
20
-0.0472427
11
1.14021
21
-0.0472601
0
LINE
8
BLACK
6
CONTINUOUS
10
1.14021
20
-0.0472601
11
1.14007
21
-0.0473569
0
LINE
8
BLACK
6
CONTINUOUS
10
1.14007
20
-0.0473569
11
1.13992
21
-0.0474576
0
LINE
8
BLACK
6
CONTINUOUS
10
1.13992
20
-0.0474576
11
1.13562
21
-0.049778
0
LINE
8
BLACK
6
CONTINUOUS
10
1.13562
20
-0.049778
11
1.13562
21
-0.0497782
0
LINE
8
BLACK
6
CONTINUOUS
10
1.13562
20
-0.0497782
11
1.13562
21
-0.0497783
0
LINE
8
BLACK
6
CONTINUOUS
10
1.13562
20
-0.0497783
11
1.1356
21
-0.0497911
0
LINE
8
BLACK
6
CONTINUOUS
10
1.1356
20
-0.0497911
11
1.13544
21
-0.0498576
0
LINE
8
BLACK
6
CONTINUOUS
10
1.13544
20
-0.0498576
11
1.13527
21
-0.049927
0
LINE
8
BLACK
6
CONTINUOUS
10
1.13527
20
-0.049927
11
1.13061
21
-0.0513698
0
LINE
8
BLACK
6
CONTINUOUS
10
1.13061
20
-0.0513698
11
1.13061
21
-0.0513699
0
LINE
8
BLACK
6
CONTINUOUS
10
1.13061
20
-0.0513699
11
1.13058
21
-0.0513778
0
LINE
8
BLACK
6
CONTINUOUS
10
1.13058
20
-0.0513778
11
1.13041
21
-0.0514111
0
LINE
8
BLACK
6
CONTINUOUS
10
1.13041
20
-0.0514111
11
1.13023
21
-0.0514471
0
LINE
8
BLACK
6
CONTINUOUS
10
1.13023
20
-0.0514471
11
1.12538
21
-0.0519571
0
LINE
8
BLACK
6
CONTINUOUS
10
1.12538
20
-0.0519571
11
1.12535
21
-0.0519598
0
LINE
8
BLACK
6
CONTINUOUS
10
1.12535
20
-0.0519598
11
1.12527
21
-0.0519592
0
LINE
8
BLACK
6
CONTINUOUS
10
1.12527
20
-0.0519592
11
1.12518
21
-0.0519679
0
LINE
8
BLACK
6
CONTINUOUS
10
1.12518
20
-0.0519679
11
1.1251
21
-0.0519682
0
LINE
8
BLACK
6
CONTINUOUS
10
1.1251
20
-0.0519682
11
1.1251
21
-0.0519685
0
LINE
8
BLACK
6
CONTINUOUS
10
1.1251
20
-0.0519685
11
-0.0250964
21
-0.0519685
0
LINE
8
BLACK
6
CONTINUOUS
10
-0.0250964
20
-0.0519685
11
-0.025192
21
-0.0519591
0
LINE
8
BLACK
6
CONTINUOUS
10
-0.025192
20
-0.0519591
11
-0.0251921
21
-0.0519591
0
LINE
8
BLACK
6
CONTINUOUS
10
-0.0251921
20
-0.0519591
11
-0.0300476
21
-0.051483
0
LINE
8
BLACK
6
CONTINUOUS
10
-0.0300476
20
-0.051483
11
-0.030048
21
-0.051483
0
LINE
8
BLACK
6
CONTINUOUS
10
-0.030048
20
-0.051483
11
-0.0300484
21
-0.051483
0
LINE
8
BLACK
6
CONTINUOUS
10
-0.0300484
20
-0.051483
11
-0.0300753
21
-0.0514801
0
LINE
8
BLACK
6
CONTINUOUS
10
-0.0300753
20
-0.0514801
11
-0.0302476
21
-0.0514435
0
LINE
8
BLACK
6
CONTINUOUS
10
-0.0302476
20
-0.0514435
11
-0.0304248
21
-0.0514084
0
LINE
8
BLACK
6
CONTINUOUS
10
-0.0304248
20
-0.0514084
11
-0.0350957
21
-0.0499981
0
LINE
8
BLACK
6
CONTINUOUS
10
-0.0350957
20
-0.0499981
11
-0.035122
21
-0.04999
0
LINE
8
BLACK
6
CONTINUOUS
10
-0.035122
20
-0.04999
11
-0.0352848
21
-0.0499202
0
LINE
8
BLACK
6
CONTINUOUS
10
-0.0352848
20
-0.0499202
11
-0.0354509
21
-0.0498517
0
LINE
8
BLACK
6
CONTINUOUS
10
-0.0354509
20
-0.0498517
11
-0.039759
21
-0.0475611
0
LINE
8
BLACK
6
CONTINUOUS
10
-0.039759
20
-0.0475611
11
-0.0397831
21
-0.047548
0
LINE
8
BLACK
6
CONTINUOUS
10
-0.0397831
20
-0.047548
11
-0.0399304
21
-0.0474472
0
LINE
8
BLACK
6
CONTINUOUS
10
-0.0399304
20
-0.0474472
11
-0.040079
21
-0.0473485
0
LINE
8
BLACK
6
CONTINUOUS
10
-0.040079
20
-0.0473485
11
-0.04386
21
-0.0442647
0
LINE
8
BLACK
6
CONTINUOUS
10
-0.04386
20
-0.0442647
11
-0.0438812
21
-0.0442472
0
LINE
8
BLACK
6
CONTINUOUS
10
-0.0438812
20
-0.0442472
11
-0.0440052
21
-0.0441206
0
LINE
8
BLACK
6
CONTINUOUS
10
-0.0440052
20
-0.0441206
11
-0.0441326
21
-0.043994
0
LINE
8
BLACK
6
CONTINUOUS
10
-0.0441326
20
-0.043994
11
-0.0472427
21
-0.0402346
0
LINE
8
BLACK
6
CONTINUOUS
10
-0.0472427
20
-0.0402346
11
-0.0472601
21
-0.0402133
0
LINE
8
BLACK
6
CONTINUOUS
10
-0.0472601
20
-0.0402133
11
-0.0473569
21
-0.0400653
0
LINE
8
BLACK
6
CONTINUOUS
10
-0.0473569
20
-0.0400653
11
-0.0474576
21
-0.0399161
0
LINE
8
BLACK
6
CONTINUOUS
10
-0.0474576
20
-0.0399161
11
-0.049778
21
-0.0356244
0
LINE
8
BLACK
6
CONTINUOUS
10
-0.049778
20
-0.0356244
11
-0.0497782
21
-0.0356241
0
LINE
8
BLACK
6
CONTINUOUS
10
-0.0497782
20
-0.0356241
11
-0.0497783
21
-0.0356238
0
LINE
8
BLACK
6
CONTINUOUS
10
-0.0497783
20
-0.0356238
11
-0.0497911
21
-0.0355999
0
LINE
8
BLACK
6
CONTINUOUS
10
-0.0497911
20
-0.0355999
11
-0.0498576
21
-0.0354352
0
LINE
8
BLACK
6
CONTINUOUS
10
-0.0498576
20
-0.0354352
11
-0.049927
21
-0.03527
0
LINE
8
BLACK
6
CONTINUOUS
10
-0.049927
20
-0.03527
11
-0.0513698
21
-0.030609
0
LINE
8
BLACK
6
CONTINUOUS
10
-0.0513698
20
-0.030609
11
-0.0513778
21
-0.0305827
0
LINE
8
BLACK
6
CONTINUOUS
10
-0.0513778
20
-0.0305827
11
-0.0514111
21
-0.0304078
0
LINE
8
BLACK
6
CONTINUOUS
10
-0.0514111
20
-0.0304078
11
-0.0514471
21
-0.0302327
0
LINE
8
BLACK
6
CONTINUOUS
10
-0.0514471
20
-0.0302327
11
-0.0519571
21
-0.0253803
0
LINE
8
BLACK
6
CONTINUOUS
10
-0.0519571
20
-0.0253803
11
-0.0519598
21
-0.025353
0
LINE
8
BLACK
6
CONTINUOUS
10
-0.0519598
20
-0.025353
11
-0.0519592
21
-0.025267
0
LINE
8
BLACK
6
CONTINUOUS
10
-0.0519592
20
-0.025267
11
-0.0519679
21
-0.0251812
0
LINE
8
BLACK
6
CONTINUOUS
10
-0.0519679
20
-0.0251812
11
-0.0519682
21
-0.0250995
0
LINE
8
BLACK
6
CONTINUOUS
10
-0.0519682
20
-0.0250995
11
-0.0519685
21
-0.0250963
0
LINE
8
BLACK
6
CONTINUOUS
10
-0.0519685
20
-0.0250963
11
-0.0519685
21
0.625096
0
LINE
8
BLACK
6
CONTINUOUS
10
-0.0519685
20
0.625096
11
-0.0519591
21
0.625192
0
LINE
8
BLACK
6
CONTINUOUS
10
-0.0519591
20
0.625192
11
-0.0519591
21
0.625192
0
LINE
8
BLACK
6
CONTINUOUS
10
-0.0519591
20
0.625192
11
-0.051483
21
0.630048
0
LINE
8
BLACK
6
CONTINUOUS
10
-0.051483
20
0.630048
11
-0.051483
21
0.630048
0
LINE
8
BLACK
6
CONTINUOUS
10
-0.051483
20
0.630048
11
-0.051483
21
0.630048
0
LINE
8
BLACK
6
CONTINUOUS
10
-0.051483
20
0.630048
11
-0.0514801
21
0.630075
0
LINE
8
BLACK
6
CONTINUOUS
10
-0.0514801
20
0.630075
11
-0.0514435
21
0.630247
0
LINE
8
BLACK
6
CONTINUOUS
10
-0.0514435
20
0.630247
11
-0.0514084
21
0.630425
0
LINE
8
BLACK
6
CONTINUOUS
10
-0.0514084
20
0.630425
11
-0.0499981
21
0.635096
0
LINE
8
BLACK
6
CONTINUOUS
10
-0.0499981
20
0.635096
11
-0.04999
21
0.635122
0
LINE
8
BLACK
6
CONTINUOUS
10
-0.04999
20
0.635122
11
-0.0499197
21
0.635286
0
LINE
8
BLACK
6
CONTINUOUS
10
-0.0499197
20
0.635286
11
-0.0498517
21
0.635451
0
LINE
8
BLACK
6
CONTINUOUS
10
-0.0498517
20
0.635451
11
-0.0475611
21
0.639759
0
LINE
8
BLACK
6
CONTINUOUS
10
-0.0475611
20
0.639759
11
-0.0475611
21
0.639759
0
LINE
8
BLACK
6
CONTINUOUS
10
-0.0475611
20
0.639759
11
-0.047561
21
0.639759
0
LINE
8
BLACK
6
CONTINUOUS
10
-0.047561
20
0.639759
11
-0.047548
21
0.639783
0
LINE
8
BLACK
6
CONTINUOUS
10
-0.047548
20
0.639783
11
-0.0474487
21
0.639928
0
LINE
8
BLACK
6
CONTINUOUS
10
-0.0474487
20
0.639928
11
-0.0473485
21
0.640079
0
LINE
8
BLACK
6
CONTINUOUS
10
-0.0473485
20
0.640079
11
-0.0442651
21
0.64386
0
LINE
8
BLACK
6
CONTINUOUS
10
-0.0442651
20
0.64386
11
-0.0442648
21
0.64386
0
LINE
8
BLACK
6
CONTINUOUS
10
-0.0442648
20
0.64386
11
-0.0442643
21
0.64386
0
LINE
8
BLACK
6
CONTINUOUS
10
-0.0442643
20
0.64386
11
-0.0442472
21
0.643881
0
LINE
8
BLACK
6
CONTINUOUS
10
-0.0442472
20
0.643881
11
-0.0441212
21
0.644005
0
LINE
8
BLACK
6
CONTINUOUS
10
-0.0441212
20
0.644005
11
-0.043994
21
0.644133
0
LINE
8
BLACK
6
CONTINUOUS
10
-0.043994
20
0.644133
11
-0.0402348
21
0.647243
0
LINE
8
BLACK
6
CONTINUOUS
10
-0.0402348
20
0.647243
11
-0.0402346
21
0.647243
0
LINE
8
BLACK
6
CONTINUOUS
10
-0.0402346
20
0.647243
11
-0.0402344
21
0.647243
0
LINE
8
BLACK
6
CONTINUOUS
10
-0.0402344
20
0.647243
11
-0.0402133
21
0.64726
0
LINE
8
BLACK
6
CONTINUOUS
10
-0.0402133
20
0.64726
11
-0.0400648
21
0.647357
0
LINE
8
BLACK
6
CONTINUOUS
10
-0.0400648
20
0.647357
11
-0.0399161
21
0.647458
0
LINE
8
BLACK
6
CONTINUOUS
10
-0.0399161
20
0.647458
11
-0.0356244
21
0.649778
0
LINE
8
BLACK
6
CONTINUOUS
10
-0.0356244
20
0.649778
11
-0.0356241
21
0.649778
0
LINE
8
BLACK
6
CONTINUOUS
10
-0.0356241
20
0.649778
11
-0.0356238
21
0.649778
0
LINE
8
BLACK
6
CONTINUOUS
10
-0.0356238
20
0.649778
11
-0.0355999
21
0.649791
0
LINE
8
BLACK
6
CONTINUOUS
10
-0.0355999
20
0.649791
11
-0.0354347
21
0.649858
0
LINE
8
BLACK
6
CONTINUOUS
10
-0.0354347
20
0.649858
11
-0.03527
21
0.649927
0
LINE
8
BLACK
6
CONTINUOUS
10
-0.03527
20
0.649927
11
-0.0306091
21
0.65137
0
LINE
8
BLACK
6
CONTINUOUS
10
-0.0306091
20
0.65137
11
-0.0305827
21
0.651378
0
LINE
8
BLACK
6
CONTINUOUS
10
-0.0305827
20
0.651378
11
-0.0304092
21
0.651411
0
LINE
8
BLACK
6
CONTINUOUS
10
-0.0304092
20
0.651411
11
-0.0302327
21
0.651447
0
LINE
8
BLACK
6
CONTINUOUS
10
-0.0302327
20
0.651447
11
-0.0253803
21
0.651957
0
LINE
8
BLACK
6
CONTINUOUS
10
-0.0253803
20
0.651957
11
-0.025353
21
0.65196
0
LINE
8
BLACK
6
CONTINUOUS
10
-0.025353
20
0.65196
11
-0.025267
21
0.651959
0
LINE
8
BLACK
6
CONTINUOUS
10
-0.025267
20
0.651959
11
-0.0251812
21
0.651968
0
LINE
8
BLACK
6
CONTINUOUS
10
-0.0251812
20
0.651968
11
-0.0250996
21
0.651968
0
LINE
8
BLACK
6
CONTINUOUS
10
-0.0250996
20
0.651968
11
-0.0250964
21
0.651969
0
LINE
8
BLACK
6
CONTINUOUS
10
-0.0250964
20
0.651969
11
1.1251
21
0.651969
0
LINE
8
BLACK
6
CONTINUOUS
10
1.1251
20
0.651969
11
1.12519
21
0.651959
0
LINE
8
BLACK
6
CONTINUOUS
10
1.12519
20
0.651959
11
1.12519
21
0.651959
0
LINE
8
BLACK
6
CONTINUOUS
10
1.12519
20
0.651959
11
1.13005
21
0.651483
0
LINE
8
BLACK
6
CONTINUOUS
10
1.13005
20
0.651483
11
1.13005
21
0.651483
0
LINE
8
BLACK
6
CONTINUOUS
10
1.13005
20
0.651483
11
1.13005
21
0.651483
0
LINE
8
BLACK
6
CONTINUOUS
10
1.13005
20
0.651483
11
1.13008
21
0.65148
0
LINE
8
BLACK
6
CONTINUOUS
10
1.13008
20
0.65148
11
1.13025
21
0.651444
0
LINE
8
BLACK
6
CONTINUOUS
10
1.13025
20
0.651444
11
1.13042
21
0.651408
0
LINE
8
BLACK
6
CONTINUOUS
10
1.13042
20
0.651408
11
1.1351
21
0.649998
0
LINE
8
BLACK
6
CONTINUOUS
10
1.1351
20
0.649998
11
1.1351
21
0.649998
0
LINE
8
BLACK
6
CONTINUOUS
10
1.1351
20
0.649998
11
1.13512
21
0.64999
0
LINE
8
BLACK
6
CONTINUOUS
10
-0.0249933
20
0.648031
11
-0.0250681
21
0.648031
0
LINE
8
BLACK
6
CONTINUOUS
10
-0.0250681
20
0.648031
11
-0.0296292
21
0.647552
0
LINE
8
BLACK
6
CONTINUOUS
10
-0.0296292
20
0.647552
11
-0.0339213
21
0.646223
0
LINE
8
BLACK
6
CONTINUOUS
10
-0.0339213
20
0.646223
11
-0.0378737
21
0.644086
0
LINE
8
BLACK
6
CONTINUOUS
10
-0.0378737
20
0.644086
11
-0.0413357
21
0.641222
0
LINE
8
BLACK
6
CONTINUOUS
10
-0.0413357
20
0.641222
11
-0.0441756
21
0.63774
0
LINE
8
BLACK
6
CONTINUOUS
10
-0.0441756
20
0.63774
11
-0.0462849
21
0.633773
0
LINE
8
BLACK
6
CONTINUOUS
10
-0.0462849
20
0.633773
11
-0.0475837
21
0.629472
0
LINE
8
BLACK
6
CONTINUOUS
10
-0.0475837
20
0.629472
11
-0.0480315
21
0.624904
0
LINE
8
BLACK
6
CONTINUOUS
10
-0.0480315
20
0.624904
11
-0.0480315
21
-0.0249933
0
LINE
8
BLACK
6
CONTINUOUS
10
-0.0480315
20
-0.0249933
11
-0.0480313
21
-0.0250681
0
LINE
8
BLACK
6
CONTINUOUS
10
-0.0480313
20
-0.0250681
11
-0.0475518
21
-0.0296292
0
LINE
8
BLACK
6
CONTINUOUS
10
-0.0475518
20
-0.0296292
11
-0.0462231
21
-0.0339215
0
LINE
8
BLACK
6
CONTINUOUS
10
-0.0462231
20
-0.0339215
11
-0.0440862
21
-0.0378737
0
LINE
8
BLACK
6
CONTINUOUS
10
-0.0440862
20
-0.0378737
11
-0.0412221
21
-0.0413357
0
LINE
8
BLACK
6
CONTINUOUS
10
-0.0412221
20
-0.0413357
11
-0.0377403
21
-0.0441756
0
LINE
8
BLACK
6
CONTINUOUS
10
-0.0377403
20
-0.0441756
11
-0.033773
21
-0.046285
0
LINE
8
BLACK
6
CONTINUOUS
10
-0.033773
20
-0.046285
11
-0.0294717
21
-0.0475837
0
LINE
8
BLACK
6
CONTINUOUS
10
-0.0294717
20
-0.0475837
11
-0.0249039
21
-0.0480315
0
LINE
8
BLACK
6
CONTINUOUS
10
-0.0249039
20
-0.0480315
11
1.12499
21
-0.0480315
0
LINE
8
BLACK
6
CONTINUOUS
10
1.12499
20
-0.0480315
11
1.12507
21
-0.0480313
0
LINE
8
BLACK
6
CONTINUOUS
10
1.12507
20
-0.0480313
11
1.12963
21
-0.0475518
0
LINE
8
BLACK
6
CONTINUOUS
10
1.12963
20
-0.0475518
11
1.13392
21
-0.0462231
0
LINE
8
BLACK
6
CONTINUOUS
10
1.13392
20
-0.0462231
11
1.13787
21
-0.0440862
0
LINE
8
BLACK
6
CONTINUOUS
10
1.13787
20
-0.0440862
11
1.14134
21
-0.0412221
0
LINE
8
BLACK
6
CONTINUOUS
10
1.14134
20
-0.0412221
11
1.14418
21
-0.0377403
0
LINE
8
BLACK
6
CONTINUOUS
10
1.14418
20
-0.0377403
11
1.14628
21
-0.033773
0
LINE
8
BLACK
6
CONTINUOUS
10
1.14628
20
-0.033773
11
1.14758
21
-0.0294717
0
LINE
8
BLACK
6
CONTINUOUS
10
1.14758
20
-0.0294717
11
1.14803
21
-0.0249035
0
LINE
8
BLACK
6
CONTINUOUS
10
1.14803
20
-0.0249035
11
1.14803
21
0.624993
0
LINE
8
BLACK
6
CONTINUOUS
10
1.14803
20
0.624993
11
1.14803
21
0.625068
0
LINE
8
BLACK
6
CONTINUOUS
10
1.14803
20
0.625068
11
1.14755
21
0.629629
0
LINE
8
BLACK
6
CONTINUOUS
10
1.14755
20
0.629629
11
1.14622
21
0.633921
0
LINE
8
BLACK
6
CONTINUOUS
10
1.14622
20
0.633921
11
1.14409
21
0.637874
0
LINE
8
BLACK
6
CONTINUOUS
10
1.14409
20
0.637874
11
1.14122
21
0.641336
0
LINE
8
BLACK
6
CONTINUOUS
10
1.14122
20
0.641336
11
1.13774
21
0.644176
0
LINE
8
BLACK
6
CONTINUOUS
10
1.13774
20
0.644176
11
1.13377
21
0.646285
0
LINE
8
BLACK
6
CONTINUOUS
10
1.13377
20
0.646285
11
1.12947
21
0.647584
0
LINE
8
BLACK
6
CONTINUOUS
10
1.12947
20
0.647584
11
1.1249
21
0.648031
0
LINE
8
BLACK
6
CONTINUOUS
10
1.1249
20
0.648031
11
-0.0249933
21
0.648031
  0
ENDSEC
  0
EOF
