%TF.GenerationSoftware,KiCad,Pcbnew,5.1.7+dfsg1-1~bpo10+1*%
%TF.CreationDate,Date%
%TF.ProjectId,ProMicro_CONN,50726f4d-6963-4726-9f5f-434f4e4e2e6b,v1.4*%
%TF.SameCoordinates,Original*%
%TF.FileFunction,Other,Fab,Bot*%
%FSLAX46Y46*%
G04 Gerber Fmt 4.6, Leading zero omitted, Abs format (unit mm)*
G04 Created by KiCad*
%MOMM*%
%LPD*%
G01*
G04 APERTURE LIST*
%ADD10C,0.100000*%
%ADD11C,0.150000*%
%ADD12C,0.200000*%
G04 APERTURE END LIST*
D10*
%TO.C,J1*%
X12045000Y4425000D02*
X12045000Y24785000D01*
X11495000Y4965000D02*
X11495000Y24225000D01*
X3195000Y4425000D02*
X3195000Y24785000D01*
X3745000Y4965000D02*
X3745000Y12355000D01*
X3745000Y16855000D02*
X3745000Y24225000D01*
X3745000Y12355000D02*
X3195000Y12355000D01*
X3745000Y16855000D02*
X3195000Y16855000D01*
X12045000Y4425000D02*
X3195000Y4425000D01*
X11495000Y4965000D02*
X3745000Y4965000D01*
X12045000Y24785000D02*
X3195000Y24785000D01*
X11495000Y24225000D02*
X3745000Y24225000D01*
X12045000Y4425000D02*
X11495000Y4965000D01*
X12045000Y24785000D02*
X11495000Y24225000D01*
X3195000Y4425000D02*
X3745000Y4965000D01*
X3195000Y24785000D02*
X3745000Y24225000D01*
%TO.C,A1*%
X16510000Y29210000D02*
X-1270000Y29210000D01*
X-1270000Y29210000D02*
X-1270000Y-2921000D01*
X-381000Y-3810000D02*
X-1270000Y-2921000D01*
X-381000Y-3810000D02*
X16510000Y-3810000D01*
X16510000Y-3810000D02*
X16510000Y29210000D01*
%TO.C,SW2*%
X6580000Y1250000D02*
X3580000Y1250000D01*
X3580000Y1250000D02*
X3580000Y-1250000D01*
X3580000Y-1250000D02*
X6580000Y-1250000D01*
X6580000Y-1250000D02*
X6580000Y1250000D01*
X5830000Y0D02*
G75*
G03*
X5830000Y0I-750000J0D01*
G01*
%TO.C,J2*%
X13970000Y25400000D02*
X13970000Y29210000D01*
X1270000Y25400000D02*
X1270000Y29210000D01*
X1270000Y29210000D02*
X13970000Y29210000D01*
X1270000Y25400000D02*
X13970000Y25400000D01*
%TO.C,SW1*%
X8660000Y-1313452D02*
X11660000Y-1313452D01*
X11660000Y-1313452D02*
X11660000Y1186548D01*
X11660000Y1186548D02*
X8660000Y1186548D01*
X8660000Y1186548D02*
X8660000Y-1313452D01*
X10910000Y-63452D02*
G75*
G03*
X10910000Y-63452I-750000J0D01*
G01*
%TO.C,J3*%
X3175000Y3810000D02*
X2540000Y3175000D01*
X12700000Y3810000D02*
X3175000Y3810000D01*
X12700000Y1270000D02*
X12700000Y3810000D01*
X2540000Y1270000D02*
X12700000Y1270000D01*
X2540000Y3175000D02*
X2540000Y1270000D01*
%TD*%
%TO.C,J1*%
D11*
X12667619Y26122334D02*
X12191428Y26122334D01*
X12762857Y25836620D02*
X12429523Y26836620D01*
X12096190Y25836620D01*
X11905714Y26836620D02*
X11572380Y25836620D01*
X11239047Y26836620D01*
X10334285Y25836620D02*
X10667619Y26312810D01*
X10905714Y25836620D02*
X10905714Y26836620D01*
X10524761Y26836620D01*
X10429523Y26789000D01*
X10381904Y26741381D01*
X10334285Y26646143D01*
X10334285Y26503286D01*
X10381904Y26408048D01*
X10429523Y26360429D01*
X10524761Y26312810D01*
X10905714Y26312810D01*
X9905714Y26217572D02*
X9143809Y26217572D01*
X8381904Y26836620D02*
X8381904Y26122334D01*
X8429523Y25979477D01*
X8524761Y25884239D01*
X8667619Y25836620D01*
X8762857Y25836620D01*
X8048571Y26836620D02*
X7477142Y26836620D01*
X7762857Y25836620D02*
X7762857Y26836620D01*
X7191428Y26122334D02*
X6715238Y26122334D01*
X7286666Y25836620D02*
X6953333Y26836620D01*
X6620000Y25836620D01*
X5762857Y26789000D02*
X5858095Y26836620D01*
X6000952Y26836620D01*
X6143809Y26789000D01*
X6239047Y26693762D01*
X6286666Y26598524D01*
X6334285Y26408048D01*
X6334285Y26265191D01*
X6286666Y26074715D01*
X6239047Y25979477D01*
X6143809Y25884239D01*
X6000952Y25836620D01*
X5905714Y25836620D01*
X5762857Y25884239D01*
X5715238Y25931858D01*
X5715238Y26265191D01*
X5905714Y26265191D01*
X5286666Y26217572D02*
X4524761Y26217572D01*
X3524761Y25836620D02*
X4096190Y25836620D01*
X3810476Y25836620D02*
X3810476Y26836620D01*
X3905714Y26693762D01*
X4000952Y26598524D01*
X4096190Y26550905D01*
X2905714Y26836620D02*
X2810476Y26836620D01*
X2715238Y26789000D01*
X2667619Y26741381D01*
X2620000Y26646143D01*
X2572380Y26455667D01*
X2572380Y26217572D01*
X2620000Y26027096D01*
X2667619Y25931858D01*
X2715238Y25884239D01*
X2810476Y25836620D01*
X2905714Y25836620D01*
X3000952Y25884239D01*
X3048571Y25931858D01*
X3096190Y26027096D01*
X3143809Y26217572D01*
X3143809Y26455667D01*
X3096190Y26646143D01*
X3048571Y26741381D01*
X3000952Y26789000D01*
X2905714Y26836620D01*
X7953333Y15152620D02*
X7953333Y14438334D01*
X8000952Y14295477D01*
X8096190Y14200239D01*
X8239047Y14152620D01*
X8334285Y14152620D01*
X6953333Y14152620D02*
X7524761Y14152620D01*
X7239047Y14152620D02*
X7239047Y15152620D01*
X7334285Y15009762D01*
X7429523Y14914524D01*
X7524761Y14866905D01*
%TO.C,A1*%
X8485238Y6850953D02*
X8437619Y6993810D01*
X8437619Y7231905D01*
X8485238Y7327143D01*
X8532857Y7374762D01*
X8628095Y7422381D01*
X8723333Y7422381D01*
X8818571Y7374762D01*
X8866190Y7327143D01*
X8913809Y7231905D01*
X8961428Y7041429D01*
X9009047Y6946191D01*
X9056666Y6898572D01*
X9151904Y6850953D01*
X9247142Y6850953D01*
X9342380Y6898572D01*
X9390000Y6946191D01*
X9437619Y7041429D01*
X9437619Y7279524D01*
X9390000Y7422381D01*
X9104285Y7850953D02*
X8104285Y7850953D01*
X9056666Y7850953D02*
X9104285Y7946191D01*
X9104285Y8136667D01*
X9056666Y8231905D01*
X9009047Y8279524D01*
X8913809Y8327143D01*
X8628095Y8327143D01*
X8532857Y8279524D01*
X8485238Y8231905D01*
X8437619Y8136667D01*
X8437619Y7946191D01*
X8485238Y7850953D01*
X8437619Y9184286D02*
X8961428Y9184286D01*
X9056666Y9136667D01*
X9104285Y9041429D01*
X9104285Y8850953D01*
X9056666Y8755715D01*
X8485238Y9184286D02*
X8437619Y9089048D01*
X8437619Y8850953D01*
X8485238Y8755715D01*
X8580476Y8708096D01*
X8675714Y8708096D01*
X8770952Y8755715D01*
X8818571Y8850953D01*
X8818571Y9089048D01*
X8866190Y9184286D01*
X8437619Y9660477D02*
X9104285Y9660477D01*
X8913809Y9660477D02*
X9009047Y9708096D01*
X9056666Y9755715D01*
X9104285Y9850953D01*
X9104285Y9946191D01*
X8437619Y10279524D02*
X9437619Y10279524D01*
X8818571Y10374762D02*
X8437619Y10660477D01*
X9104285Y10660477D02*
X8723333Y10279524D01*
X9104285Y10946191D02*
X9104285Y11327143D01*
X8437619Y11089048D02*
X9294761Y11089048D01*
X9390000Y11136667D01*
X9437619Y11231905D01*
X9437619Y11327143D01*
X9104285Y12089048D02*
X8437619Y12089048D01*
X9104285Y11660477D02*
X8580476Y11660477D01*
X8485238Y11708096D01*
X8437619Y11803334D01*
X8437619Y11946191D01*
X8485238Y12041429D01*
X8532857Y12089048D01*
X9104285Y12565239D02*
X8437619Y12565239D01*
X9009047Y12565239D02*
X9056666Y12612858D01*
X9104285Y12708096D01*
X9104285Y12850953D01*
X9056666Y12946191D01*
X8961428Y12993810D01*
X8437619Y12993810D01*
X8342380Y13231905D02*
X8342380Y13993810D01*
X8437619Y14231905D02*
X9437619Y14231905D01*
X9437619Y14612858D01*
X9390000Y14708096D01*
X9342380Y14755715D01*
X9247142Y14803334D01*
X9104285Y14803334D01*
X9009047Y14755715D01*
X8961428Y14708096D01*
X8913809Y14612858D01*
X8913809Y14231905D01*
X8437619Y15231905D02*
X9104285Y15231905D01*
X8913809Y15231905D02*
X9009047Y15279524D01*
X9056666Y15327143D01*
X9104285Y15422381D01*
X9104285Y15517620D01*
X8437619Y15993810D02*
X8485238Y15898572D01*
X8532857Y15850953D01*
X8628095Y15803334D01*
X8913809Y15803334D01*
X9009047Y15850953D01*
X9056666Y15898572D01*
X9104285Y15993810D01*
X9104285Y16136667D01*
X9056666Y16231905D01*
X9009047Y16279524D01*
X8913809Y16327143D01*
X8628095Y16327143D01*
X8532857Y16279524D01*
X8485238Y16231905D01*
X8437619Y16136667D01*
X8437619Y15993810D01*
X8342380Y16517620D02*
X8342380Y17279524D01*
X8437619Y17517620D02*
X9437619Y17517620D01*
X8723333Y17850953D01*
X9437619Y18184286D01*
X8437619Y18184286D01*
X8437619Y18660477D02*
X9104285Y18660477D01*
X9437619Y18660477D02*
X9390000Y18612858D01*
X9342380Y18660477D01*
X9390000Y18708096D01*
X9437619Y18660477D01*
X9342380Y18660477D01*
X8485238Y19565239D02*
X8437619Y19470000D01*
X8437619Y19279524D01*
X8485238Y19184286D01*
X8532857Y19136667D01*
X8628095Y19089048D01*
X8913809Y19089048D01*
X9009047Y19136667D01*
X9056666Y19184286D01*
X9104285Y19279524D01*
X9104285Y19470000D01*
X9056666Y19565239D01*
X8437619Y19993810D02*
X9104285Y19993810D01*
X8913809Y19993810D02*
X9009047Y20041429D01*
X9056666Y20089048D01*
X9104285Y20184286D01*
X9104285Y20279524D01*
X8437619Y20755715D02*
X8485238Y20660477D01*
X8532857Y20612858D01*
X8628095Y20565239D01*
X8913809Y20565239D01*
X9009047Y20612858D01*
X9056666Y20660477D01*
X9104285Y20755715D01*
X9104285Y20898572D01*
X9056666Y20993810D01*
X9009047Y21041429D01*
X8913809Y21089048D01*
X8628095Y21089048D01*
X8532857Y21041429D01*
X8485238Y20993810D01*
X8437619Y20898572D01*
X8437619Y20755715D01*
X5929333Y13255715D02*
X5929333Y13731905D01*
X5643619Y13160477D02*
X6643619Y13493810D01*
X5643619Y13827143D01*
X5643619Y14684286D02*
X5643619Y14112858D01*
X5643619Y14398572D02*
X6643619Y14398572D01*
X6500761Y14303334D01*
X6405523Y14208096D01*
X6357904Y14112858D01*
%TO.C,SW2*%
D12*
X2228809Y1066667D02*
X2266904Y952381D01*
X2266904Y761905D01*
X2228809Y685715D01*
X2190714Y647620D01*
X2114523Y609524D01*
X2038333Y609524D01*
X1962142Y647620D01*
X1924047Y685715D01*
X1885952Y761905D01*
X1847857Y914286D01*
X1809761Y990477D01*
X1771666Y1028572D01*
X1695476Y1066667D01*
X1619285Y1066667D01*
X1543095Y1028572D01*
X1505000Y990477D01*
X1466904Y914286D01*
X1466904Y723810D01*
X1505000Y609524D01*
X1466904Y342858D02*
X2266904Y152381D01*
X1695476Y0D01*
X2266904Y-152380D01*
X1466904Y-342857D01*
X1543095Y-609523D02*
X1505000Y-647619D01*
X1466904Y-723809D01*
X1466904Y-914285D01*
X1505000Y-990476D01*
X1543095Y-1028571D01*
X1619285Y-1066666D01*
X1695476Y-1066666D01*
X1809761Y-1028571D01*
X2266904Y-571428D01*
X2266904Y-1066666D01*
%TO.C,SW1*%
X13658809Y1066667D02*
X13696904Y952381D01*
X13696904Y761905D01*
X13658809Y685715D01*
X13620714Y647620D01*
X13544523Y609524D01*
X13468333Y609524D01*
X13392142Y647620D01*
X13354047Y685715D01*
X13315952Y761905D01*
X13277857Y914286D01*
X13239761Y990477D01*
X13201666Y1028572D01*
X13125476Y1066667D01*
X13049285Y1066667D01*
X12973095Y1028572D01*
X12935000Y990477D01*
X12896904Y914286D01*
X12896904Y723810D01*
X12935000Y609524D01*
X12896904Y342858D02*
X13696904Y152381D01*
X13125476Y0D01*
X13696904Y-152380D01*
X12896904Y-342857D01*
X13696904Y-1066666D02*
X13696904Y-609523D01*
X13696904Y-838095D02*
X12896904Y-838095D01*
X13011190Y-761904D01*
X13087380Y-685714D01*
X13125476Y-609523D01*
%TO.C,J3*%
X1466904Y2870119D02*
X2038333Y2870119D01*
X2152619Y2908214D01*
X2228809Y2984405D01*
X2266904Y3098691D01*
X2266904Y3174881D01*
X1466904Y2565357D02*
X1466904Y2070119D01*
X1771666Y2336786D01*
X1771666Y2222500D01*
X1809761Y2146310D01*
X1847857Y2108214D01*
X1924047Y2070119D01*
X2114523Y2070119D01*
X2190714Y2108214D01*
X2228809Y2146310D01*
X2266904Y2222500D01*
X2266904Y2451072D01*
X2228809Y2527262D01*
X2190714Y2565357D01*
%TD*%
M02*
