%TF.GenerationSoftware,KiCad,Pcbnew,5.1.7+dfsg1-1~bpo10+1*%
%TF.CreationDate,Date%
%TF.ProjectId,ProMicro_CONN,50726f4d-6963-4726-9f5f-434f4e4e2e6b,v1.4*%
%TF.SameCoordinates,Original*%
%TF.FileFunction,Copper,L1,Top*%
%TF.FilePolarity,Positive*%
%FSLAX46Y46*%
G04 Gerber Fmt 4.6, Leading zero omitted, Abs format (unit mm)*
G04 Created by KiCad*
%MOMM*%
%LPD*%
G01*
G04 APERTURE LIST*
%TA.AperFunction,ComponentPad*%
%ADD10O,1.727200X1.727200*%
%TD*%
%TA.AperFunction,ComponentPad*%
%ADD11R,1.727200X1.727200*%
%TD*%
%TA.AperFunction,ComponentPad*%
%ADD12R,2.100000X2.100000*%
%TD*%
%TA.AperFunction,ComponentPad*%
%ADD13C,2.100000*%
%TD*%
%TA.AperFunction,SMDPad,CuDef*%
%ADD14R,1.727200X3.454400*%
%TD*%
%TA.AperFunction,ComponentPad*%
%ADD15C,1.700000*%
%TD*%
%TA.AperFunction,ComponentPad*%
%ADD16R,1.700000X1.700000*%
%TD*%
%TA.AperFunction,ViaPad*%
%ADD17C,0.600000*%
%TD*%
%TA.AperFunction,ViaPad*%
%ADD18C,0.500000*%
%TD*%
%TA.AperFunction,Conductor*%
%ADD19C,0.400000*%
%TD*%
%TA.AperFunction,Conductor*%
%ADD20C,0.250000*%
%TD*%
%TA.AperFunction,Conductor*%
%ADD21C,0.125000*%
%TD*%
%TA.AperFunction,Conductor*%
%ADD22C,0.100000*%
%TD*%
%ADD23C,0.300000*%
%ADD24C,0.200000*%
%ADD25C,0.350000*%
G04 APERTURE END LIST*
D10*
%TO.P,J1,10*%
%TO.N,GND*%
X8890000Y19685000D03*
%TO.P,J1,9*%
%TO.N,TDI*%
X6350000Y19685000D03*
%TO.P,J1,8*%
%TO.N,Net-(J1-Pad8)*%
X8890000Y17145000D03*
%TO.P,J1,7*%
%TO.N,+3V3*%
X6350000Y17145000D03*
%TO.P,J1,6*%
%TO.N,~RST*%
X8890000Y14605000D03*
%TO.P,J1,5*%
%TO.N,TMS*%
X6350000Y14605000D03*
%TO.P,J1,4*%
%TO.N,+3V3*%
X8890000Y12065000D03*
%TO.P,J1,3*%
%TO.N,TDO*%
X6350000Y12065000D03*
%TO.P,J1,2*%
%TO.N,GND*%
X8890000Y9525000D03*
D11*
%TO.P,J1,1*%
%TO.N,TCK*%
X6350000Y9525000D03*
%TD*%
%TO.P,R4,2*%
%TO.N,+3V3*%
%TA.AperFunction,SMDPad,CuDef*%
G36*
G01*
X11686250Y6065000D02*
X11173750Y6065000D01*
G75*
G02*
X10955000Y6283750I0J218750D01*
G01*
X10955000Y6721250D01*
G75*
G02*
X11173750Y6940000I218750J0D01*
G01*
X11686250Y6940000D01*
G75*
G02*
X11905000Y6721250I0J-218750D01*
G01*
X11905000Y6283750D01*
G75*
G02*
X11686250Y6065000I-218750J0D01*
G01*
G37*
%TD.AperFunction*%
%TO.P,R4,1*%
%TO.N,SDA*%
%TA.AperFunction,SMDPad,CuDef*%
G36*
G01*
X11686250Y4490000D02*
X11173750Y4490000D01*
G75*
G02*
X10955000Y4708750I0J218750D01*
G01*
X10955000Y5146250D01*
G75*
G02*
X11173750Y5365000I218750J0D01*
G01*
X11686250Y5365000D01*
G75*
G02*
X11905000Y5146250I0J-218750D01*
G01*
X11905000Y4708750D01*
G75*
G02*
X11686250Y4490000I-218750J0D01*
G01*
G37*
%TD.AperFunction*%
%TD*%
D12*
%TO.P,A1,1*%
%TO.N,RXD*%
X0Y0D03*
D13*
%TO.P,A1,2*%
%TO.N,TXD*%
X0Y2540000D03*
%TO.P,A1,3*%
%TO.N,GND*%
X0Y5080000D03*
%TO.P,A1,13*%
%TO.N,Net-(A1-Pad13)*%
X15240000Y27940000D03*
%TO.P,A1,4*%
%TO.N,GND*%
X0Y7620000D03*
%TO.P,A1,14*%
%TO.N,COPI*%
X15240000Y25400000D03*
%TO.P,A1,5*%
%TO.N,SDA*%
X0Y10160000D03*
%TO.P,A1,15*%
%TO.N,CIPO*%
X15240000Y22860000D03*
%TO.P,A1,6*%
%TO.N,SCL*%
X0Y12700000D03*
%TO.P,A1,16*%
%TO.N,SCK*%
X15240000Y20320000D03*
%TO.P,A1,7*%
%TO.N,Net-(A1-Pad7)*%
X0Y15240000D03*
%TO.P,A1,17*%
%TO.N,TDI*%
X15240000Y17780000D03*
%TO.P,A1,8*%
%TO.N,Net-(A1-Pad8)*%
X0Y17780000D03*
%TO.P,A1,18*%
%TO.N,TDO*%
X15240000Y15240000D03*
%TO.P,A1,9*%
%TO.N,BTN*%
X0Y20320000D03*
%TO.P,A1,19*%
%TO.N,TMS*%
X15240000Y12700000D03*
%TO.P,A1,10*%
%TO.N,Net-(A1-Pad10)*%
X0Y22860000D03*
%TO.P,A1,20*%
%TO.N,TCK*%
X15240000Y10160000D03*
%TO.P,A1,11*%
%TO.N,Net-(A1-Pad11)*%
X0Y25400000D03*
%TO.P,A1,21*%
%TO.N,+3V3*%
X15240000Y7620000D03*
%TO.P,A1,12*%
%TO.N,CS1*%
X0Y27940000D03*
%TO.P,A1,22*%
%TO.N,~RST*%
X15240000Y5080000D03*
%TO.P,A1,23*%
%TO.N,GND*%
X15240000Y2540000D03*
%TO.P,A1,24*%
%TO.N,+5V*%
X15240000Y0D03*
%TD*%
%TO.P,R9,2*%
%TO.N,+3V3*%
%TA.AperFunction,SMDPad,CuDef*%
G36*
G01*
X4160000Y16888750D02*
X4160000Y17401250D01*
G75*
G02*
X4378750Y17620000I218750J0D01*
G01*
X4816250Y17620000D01*
G75*
G02*
X5035000Y17401250I0J-218750D01*
G01*
X5035000Y16888750D01*
G75*
G02*
X4816250Y16670000I-218750J0D01*
G01*
X4378750Y16670000D01*
G75*
G02*
X4160000Y16888750I0J218750D01*
G01*
G37*
%TD.AperFunction*%
%TO.P,R9,1*%
%TO.N,BTN*%
%TA.AperFunction,SMDPad,CuDef*%
G36*
G01*
X2585000Y16888750D02*
X2585000Y17401250D01*
G75*
G02*
X2803750Y17620000I218750J0D01*
G01*
X3241250Y17620000D01*
G75*
G02*
X3460000Y17401250I0J-218750D01*
G01*
X3460000Y16888750D01*
G75*
G02*
X3241250Y16670000I-218750J0D01*
G01*
X2803750Y16670000D01*
G75*
G02*
X2585000Y16888750I0J218750D01*
G01*
G37*
%TD.AperFunction*%
%TD*%
D14*
%TO.P,J2,8*%
%TO.N,COPI*%
X10160000Y27305000D03*
%TO.P,J2,10*%
%TO.N,CS1*%
X12700000Y27305000D03*
%TO.P,J2,6*%
%TO.N,SDA*%
X7620000Y27305000D03*
%TO.P,J2,4*%
%TO.N,RXD*%
X5080000Y27305000D03*
%TO.P,J2,2*%
%TO.N,GND*%
X2540000Y27305000D03*
%TD*%
%TO.P,R8,2*%
%TO.N,TCK*%
%TA.AperFunction,SMDPad,CuDef*%
G36*
G01*
X11780000Y-319702D02*
X11780000Y192798D01*
G75*
G02*
X11998750Y411548I218750J0D01*
G01*
X12436250Y411548D01*
G75*
G02*
X12655000Y192798I0J-218750D01*
G01*
X12655000Y-319702D01*
G75*
G02*
X12436250Y-538452I-218750J0D01*
G01*
X11998750Y-538452D01*
G75*
G02*
X11780000Y-319702I0J218750D01*
G01*
G37*
%TD.AperFunction*%
%TO.P,R8,1*%
%TO.N,Net-(D1-Pad2)*%
%TA.AperFunction,SMDPad,CuDef*%
G36*
G01*
X10205000Y-319702D02*
X10205000Y192798D01*
G75*
G02*
X10423750Y411548I218750J0D01*
G01*
X10861250Y411548D01*
G75*
G02*
X11080000Y192798I0J-218750D01*
G01*
X11080000Y-319702D01*
G75*
G02*
X10861250Y-538452I-218750J0D01*
G01*
X10423750Y-538452D01*
G75*
G02*
X10205000Y-319702I0J218750D01*
G01*
G37*
%TD.AperFunction*%
%TD*%
%TO.P,R7,2*%
%TO.N,+3V3*%
%TA.AperFunction,SMDPad,CuDef*%
G36*
G01*
X6093750Y5365000D02*
X6606250Y5365000D01*
G75*
G02*
X6825000Y5146250I0J-218750D01*
G01*
X6825000Y4708750D01*
G75*
G02*
X6606250Y4490000I-218750J0D01*
G01*
X6093750Y4490000D01*
G75*
G02*
X5875000Y4708750I0J218750D01*
G01*
X5875000Y5146250D01*
G75*
G02*
X6093750Y5365000I218750J0D01*
G01*
G37*
%TD.AperFunction*%
%TO.P,R7,1*%
%TO.N,~RST*%
%TA.AperFunction,SMDPad,CuDef*%
G36*
G01*
X6093750Y6940000D02*
X6606250Y6940000D01*
G75*
G02*
X6825000Y6721250I0J-218750D01*
G01*
X6825000Y6283750D01*
G75*
G02*
X6606250Y6065000I-218750J0D01*
G01*
X6093750Y6065000D01*
G75*
G02*
X5875000Y6283750I0J218750D01*
G01*
X5875000Y6721250D01*
G75*
G02*
X6093750Y6940000I218750J0D01*
G01*
G37*
%TD.AperFunction*%
%TD*%
%TO.P,R6,2*%
%TO.N,+3V3*%
%TA.AperFunction,SMDPad,CuDef*%
G36*
G01*
X3460000Y9781250D02*
X3460000Y9268750D01*
G75*
G02*
X3241250Y9050000I-218750J0D01*
G01*
X2803750Y9050000D01*
G75*
G02*
X2585000Y9268750I0J218750D01*
G01*
X2585000Y9781250D01*
G75*
G02*
X2803750Y10000000I218750J0D01*
G01*
X3241250Y10000000D01*
G75*
G02*
X3460000Y9781250I0J-218750D01*
G01*
G37*
%TD.AperFunction*%
%TO.P,R6,1*%
%TO.N,TCK*%
%TA.AperFunction,SMDPad,CuDef*%
G36*
G01*
X5035000Y9781250D02*
X5035000Y9268750D01*
G75*
G02*
X4816250Y9050000I-218750J0D01*
G01*
X4378750Y9050000D01*
G75*
G02*
X4160000Y9268750I0J218750D01*
G01*
X4160000Y9781250D01*
G75*
G02*
X4378750Y10000000I218750J0D01*
G01*
X4816250Y10000000D01*
G75*
G02*
X5035000Y9781250I0J-218750D01*
G01*
G37*
%TD.AperFunction*%
%TD*%
%TO.P,R5,2*%
%TO.N,+3V3*%
%TA.AperFunction,SMDPad,CuDef*%
G36*
G01*
X3460000Y14861250D02*
X3460000Y14348750D01*
G75*
G02*
X3241250Y14130000I-218750J0D01*
G01*
X2803750Y14130000D01*
G75*
G02*
X2585000Y14348750I0J218750D01*
G01*
X2585000Y14861250D01*
G75*
G02*
X2803750Y15080000I218750J0D01*
G01*
X3241250Y15080000D01*
G75*
G02*
X3460000Y14861250I0J-218750D01*
G01*
G37*
%TD.AperFunction*%
%TO.P,R5,1*%
%TO.N,TMS*%
%TA.AperFunction,SMDPad,CuDef*%
G36*
G01*
X5035000Y14861250D02*
X5035000Y14348750D01*
G75*
G02*
X4816250Y14130000I-218750J0D01*
G01*
X4378750Y14130000D01*
G75*
G02*
X4160000Y14348750I0J218750D01*
G01*
X4160000Y14861250D01*
G75*
G02*
X4378750Y15080000I218750J0D01*
G01*
X4816250Y15080000D01*
G75*
G02*
X5035000Y14861250I0J-218750D01*
G01*
G37*
%TD.AperFunction*%
%TD*%
%TO.P,R3,2*%
%TO.N,+3V3*%
%TA.AperFunction,SMDPad,CuDef*%
G36*
G01*
X9146250Y6065000D02*
X8633750Y6065000D01*
G75*
G02*
X8415000Y6283750I0J218750D01*
G01*
X8415000Y6721250D01*
G75*
G02*
X8633750Y6940000I218750J0D01*
G01*
X9146250Y6940000D01*
G75*
G02*
X9365000Y6721250I0J-218750D01*
G01*
X9365000Y6283750D01*
G75*
G02*
X9146250Y6065000I-218750J0D01*
G01*
G37*
%TD.AperFunction*%
%TO.P,R3,1*%
%TO.N,SCL*%
%TA.AperFunction,SMDPad,CuDef*%
G36*
G01*
X9146250Y4490000D02*
X8633750Y4490000D01*
G75*
G02*
X8415000Y4708750I0J218750D01*
G01*
X8415000Y5146250D01*
G75*
G02*
X8633750Y5365000I218750J0D01*
G01*
X9146250Y5365000D01*
G75*
G02*
X9365000Y5146250I0J-218750D01*
G01*
X9365000Y4708750D01*
G75*
G02*
X9146250Y4490000I-218750J0D01*
G01*
G37*
%TD.AperFunction*%
%TD*%
%TO.P,R2,2*%
%TO.N,+3V3*%
%TA.AperFunction,SMDPad,CuDef*%
G36*
G01*
X3460000Y12321250D02*
X3460000Y11808750D01*
G75*
G02*
X3241250Y11590000I-218750J0D01*
G01*
X2803750Y11590000D01*
G75*
G02*
X2585000Y11808750I0J218750D01*
G01*
X2585000Y12321250D01*
G75*
G02*
X2803750Y12540000I218750J0D01*
G01*
X3241250Y12540000D01*
G75*
G02*
X3460000Y12321250I0J-218750D01*
G01*
G37*
%TD.AperFunction*%
%TO.P,R2,1*%
%TO.N,TDO*%
%TA.AperFunction,SMDPad,CuDef*%
G36*
G01*
X5035000Y12321250D02*
X5035000Y11808750D01*
G75*
G02*
X4816250Y11590000I-218750J0D01*
G01*
X4378750Y11590000D01*
G75*
G02*
X4160000Y11808750I0J218750D01*
G01*
X4160000Y12321250D01*
G75*
G02*
X4378750Y12540000I218750J0D01*
G01*
X4816250Y12540000D01*
G75*
G02*
X5035000Y12321250I0J-218750D01*
G01*
G37*
%TD.AperFunction*%
%TD*%
%TO.P,R1,2*%
%TO.N,+3V3*%
%TA.AperFunction,SMDPad,CuDef*%
G36*
G01*
X3460000Y19941250D02*
X3460000Y19428750D01*
G75*
G02*
X3241250Y19210000I-218750J0D01*
G01*
X2803750Y19210000D01*
G75*
G02*
X2585000Y19428750I0J218750D01*
G01*
X2585000Y19941250D01*
G75*
G02*
X2803750Y20160000I218750J0D01*
G01*
X3241250Y20160000D01*
G75*
G02*
X3460000Y19941250I0J-218750D01*
G01*
G37*
%TD.AperFunction*%
%TO.P,R1,1*%
%TO.N,TDI*%
%TA.AperFunction,SMDPad,CuDef*%
G36*
G01*
X5035000Y19941250D02*
X5035000Y19428750D01*
G75*
G02*
X4816250Y19210000I-218750J0D01*
G01*
X4378750Y19210000D01*
G75*
G02*
X4160000Y19428750I0J218750D01*
G01*
X4160000Y19941250D01*
G75*
G02*
X4378750Y20160000I218750J0D01*
G01*
X4816250Y20160000D01*
G75*
G02*
X5035000Y19941250I0J-218750D01*
G01*
G37*
%TD.AperFunction*%
%TD*%
%TO.P,C3,2*%
%TO.N,GND*%
%TA.AperFunction,SMDPad,CuDef*%
G36*
G01*
X3460000Y192798D02*
X3460000Y-319702D01*
G75*
G02*
X3241250Y-538452I-218750J0D01*
G01*
X2803750Y-538452D01*
G75*
G02*
X2585000Y-319702I0J218750D01*
G01*
X2585000Y192798D01*
G75*
G02*
X2803750Y411548I218750J0D01*
G01*
X3241250Y411548D01*
G75*
G02*
X3460000Y192798I0J-218750D01*
G01*
G37*
%TD.AperFunction*%
%TO.P,C3,1*%
%TO.N,+3V3*%
%TA.AperFunction,SMDPad,CuDef*%
G36*
G01*
X5035000Y192798D02*
X5035000Y-319702D01*
G75*
G02*
X4816250Y-538452I-218750J0D01*
G01*
X4378750Y-538452D01*
G75*
G02*
X4160000Y-319702I0J218750D01*
G01*
X4160000Y192798D01*
G75*
G02*
X4378750Y411548I218750J0D01*
G01*
X4816250Y411548D01*
G75*
G02*
X5035000Y192798I0J-218750D01*
G01*
G37*
%TD.AperFunction*%
%TD*%
%TO.P,C2,2*%
%TO.N,GND*%
%TA.AperFunction,SMDPad,CuDef*%
G36*
G01*
X3553750Y5365000D02*
X4066250Y5365000D01*
G75*
G02*
X4285000Y5146250I0J-218750D01*
G01*
X4285000Y4708750D01*
G75*
G02*
X4066250Y4490000I-218750J0D01*
G01*
X3553750Y4490000D01*
G75*
G02*
X3335000Y4708750I0J218750D01*
G01*
X3335000Y5146250D01*
G75*
G02*
X3553750Y5365000I218750J0D01*
G01*
G37*
%TD.AperFunction*%
%TO.P,C2,1*%
%TO.N,~RST*%
%TA.AperFunction,SMDPad,CuDef*%
G36*
G01*
X3553750Y6940000D02*
X4066250Y6940000D01*
G75*
G02*
X4285000Y6721250I0J-218750D01*
G01*
X4285000Y6283750D01*
G75*
G02*
X4066250Y6065000I-218750J0D01*
G01*
X3553750Y6065000D01*
G75*
G02*
X3335000Y6283750I0J218750D01*
G01*
X3335000Y6721250D01*
G75*
G02*
X3553750Y6940000I218750J0D01*
G01*
G37*
%TD.AperFunction*%
%TD*%
%TO.P,D1,2*%
%TO.N,Net-(D1-Pad2)*%
%TA.AperFunction,SMDPad,CuDef*%
G36*
G01*
X7970000Y-319702D02*
X7970000Y192798D01*
G75*
G02*
X8188750Y411548I218750J0D01*
G01*
X8626250Y411548D01*
G75*
G02*
X8845000Y192798I0J-218750D01*
G01*
X8845000Y-319702D01*
G75*
G02*
X8626250Y-538452I-218750J0D01*
G01*
X8188750Y-538452D01*
G75*
G02*
X7970000Y-319702I0J218750D01*
G01*
G37*
%TD.AperFunction*%
%TO.P,D1,1*%
%TO.N,GND*%
%TA.AperFunction,SMDPad,CuDef*%
G36*
G01*
X6395000Y-319702D02*
X6395000Y192798D01*
G75*
G02*
X6613750Y411548I218750J0D01*
G01*
X7051250Y411548D01*
G75*
G02*
X7270000Y192798I0J-218750D01*
G01*
X7270000Y-319702D01*
G75*
G02*
X7051250Y-538452I-218750J0D01*
G01*
X6613750Y-538452D01*
G75*
G02*
X6395000Y-319702I0J218750D01*
G01*
G37*
%TD.AperFunction*%
%TD*%
D15*
%TO.P,J3,4*%
%TO.N,SDA*%
X11430000Y2540000D03*
%TO.P,J3,3*%
%TO.N,SCL*%
X8890000Y2540000D03*
%TO.P,J3,2*%
%TO.N,+3V3*%
X6350000Y2540000D03*
D16*
%TO.P,J3,1*%
%TO.N,GND*%
X3810000Y2540000D03*
%TD*%
D17*
%TO.N,GND*%
X12700000Y21590000D03*
X12700000Y19050000D03*
X12065000Y16446548D03*
X13970000Y16446548D03*
X13970000Y11366548D03*
X13970000Y13906548D03*
D18*
X10160000Y5080000D03*
D17*
X10033000Y21717000D03*
D18*
X6350000Y21590000D03*
X1270000Y21590000D03*
X5715000Y0D03*
X6350000Y7620000D03*
X11176000Y9525000D03*
X3810000Y25019000D03*
X10414000Y11811000D03*
X4064000Y10795000D03*
X4064000Y8382000D03*
X5080000Y5715000D03*
X13589000Y889000D03*
X9525000Y635000D03*
D17*
%TO.N,+3V3*%
X10287000Y7620000D03*
X2973596Y22908904D03*
D18*
%TO.N,RXD*%
X5080000Y7112000D03*
X7620012Y22225000D03*
%TO.N,TXD*%
X2540000Y13335000D03*
%TO.N,SDA*%
X12700000Y9525000D03*
X10795000Y19685000D03*
X10795000Y14859000D03*
%TO.N,CIPO*%
X10160000Y24511000D03*
%TO.N,BTN*%
X1270000Y6350000D03*
%TO.N,CS1*%
X12065001Y24764999D03*
X1905000Y24130000D03*
X6350000Y23241000D03*
%TO.N,~RST*%
X8890000Y7620000D03*
X12700000Y5715000D03*
%TD*%
D19*
%TO.N,+3V3*%
X11430000Y6439048D02*
X10324952Y6439048D01*
X4597500Y-63452D02*
X4597500Y724048D01*
X4597500Y724048D02*
X5080000Y1206548D01*
X6350000Y2476548D02*
X5080000Y1206548D01*
X10287000Y6477000D02*
X10287000Y7195736D01*
X10324952Y6439048D02*
X10287000Y6477000D01*
X10287000Y7195736D02*
X10287000Y7620000D01*
X3022500Y19685000D02*
X3022500Y20260000D01*
X3022500Y21015000D02*
X3022500Y20260000D01*
X3022500Y21590000D02*
X3022500Y21015000D01*
X3022500Y21590000D02*
X3022500Y22860000D01*
X3022500Y22860000D02*
X2973596Y22908904D01*
X4445000Y16027500D02*
X3022500Y14605000D01*
X4597500Y17145000D02*
X4597500Y16180000D01*
X4597500Y16180000D02*
X4445000Y16027500D01*
X3022500Y14122500D02*
X3810000Y13335000D01*
X3022500Y14541548D02*
X3022500Y14122500D01*
X10287000Y8044264D02*
X10287000Y7620000D01*
X3022500Y12547500D02*
X3810000Y13335000D01*
X3022500Y9461548D02*
X3022500Y12547500D01*
X3810000Y13335000D02*
X7556548Y13335000D01*
X7556548Y13335000D02*
X10287000Y10604548D01*
X10287000Y10604548D02*
X10287000Y8044264D01*
X8026500Y6439048D02*
X8890000Y6439048D01*
X6350000Y2476548D02*
X6350000Y4864048D01*
X7620000Y6032548D02*
X8026500Y6439048D01*
X6350000Y4864048D02*
X7213500Y4864048D01*
X7213500Y4864048D02*
X7620000Y5270548D01*
X7620000Y5270548D02*
X7620000Y6032548D01*
X8890000Y6439048D02*
X10324952Y6439048D01*
X3022500Y18821500D02*
X3022500Y19685000D01*
X3429000Y18415000D02*
X3022500Y18821500D01*
X4173750Y18415000D02*
X3429000Y18415000D01*
X4597500Y17991250D02*
X4173750Y18415000D01*
X4597500Y17145000D02*
X4597500Y17991250D01*
X6350000Y17145000D02*
X4953000Y17145000D01*
X4953000Y17145000D02*
X4597500Y17145000D01*
D20*
%TO.N,Net-(D1-Pad2)*%
X10642500Y-63452D02*
X9525000Y-63452D01*
X8407500Y-63452D02*
X9525000Y-63452D01*
%TO.N,RXD*%
X4699000Y7493000D02*
X5080000Y7112000D01*
X1050000Y0D02*
X2540000Y1490000D01*
X0Y0D02*
X1050000Y0D01*
X2540000Y1490000D02*
X2540000Y6762774D01*
X2540000Y6762774D02*
X3270226Y7493000D01*
X3270226Y7493000D02*
X4699000Y7493000D01*
X7620012Y22578553D02*
X7620012Y22225000D01*
X7620012Y24256988D02*
X7620012Y22578553D01*
X6858000Y25019000D02*
X7620012Y24256988D01*
X5388800Y25019000D02*
X6858000Y25019000D01*
X5080000Y25327800D02*
X5388800Y25019000D01*
X5080000Y27305000D02*
X5080000Y25327800D01*
%TO.N,TXD*%
X2290001Y13085001D02*
X2540000Y13335000D01*
X1974011Y4450559D02*
X1974011Y12769011D01*
X0Y2476548D02*
X1974011Y4450559D01*
X1974011Y12769011D02*
X2290001Y13085001D01*
%TO.N,COPI*%
X10160000Y25400000D02*
X10160000Y27241548D01*
X11430000Y24130000D02*
X10160000Y25400000D01*
X15240000Y25336548D02*
X14033452Y24130000D01*
X14033452Y24130000D02*
X11430000Y24130000D01*
D19*
%TO.N,SDA*%
X11430000Y4864048D02*
X11430000Y2476548D01*
D20*
X12700000Y9525000D02*
X12700000Y12954000D01*
X11044999Y14609001D02*
X10795000Y14859000D01*
X12700000Y12954000D02*
X11044999Y14609001D01*
X7620000Y25082500D02*
X7620000Y27305000D01*
X10795000Y19685000D02*
X10795000Y21907500D01*
X10795000Y21907500D02*
X7620000Y25082500D01*
%TO.N,CIPO*%
X10409999Y24261001D02*
X10160000Y24511000D01*
X15240000Y22796548D02*
X11874452Y22796548D01*
X11874452Y22796548D02*
X10409999Y24261001D01*
D19*
%TO.N,SCL*%
X8890000Y4864048D02*
X8890000Y2476548D01*
%TO.N,TDI*%
X4597500Y19685000D02*
X6350000Y19685000D01*
D20*
X11430000Y17780000D02*
X15240000Y17780000D01*
X10795000Y18415000D02*
X11430000Y17780000D01*
X6350000Y19685000D02*
X7620000Y18415000D01*
X7620000Y18415000D02*
X10795000Y18415000D01*
D19*
%TO.N,TDO*%
X4597500Y12065000D02*
X6350000Y12065000D01*
D20*
%TO.N,BTN*%
X2540000Y17145000D02*
X3022500Y17145000D01*
X1905000Y17145000D02*
X2540000Y17145000D01*
X1524000Y17145000D02*
X1905000Y17145000D01*
X1524000Y15710002D02*
X1524000Y17145000D01*
X1524000Y6604000D02*
X1524000Y15710002D01*
X1270000Y6350000D02*
X1524000Y6604000D01*
X1524000Y18796000D02*
X1524000Y17145000D01*
X0Y20320000D02*
X1524000Y18796000D01*
D19*
%TO.N,TMS*%
X4597500Y14605000D02*
X6350000Y14605000D01*
D20*
X14033452Y12636548D02*
X15240000Y12636548D01*
X6350000Y14541548D02*
X7683452Y15875000D01*
X10795000Y15875000D02*
X14033452Y12636548D01*
X7683452Y15875000D02*
X10795000Y15875000D01*
D19*
%TO.N,TCK*%
X4597500Y9525000D02*
X6350000Y9525000D01*
D20*
X13843000Y2540000D02*
X13843000Y8699548D01*
X12217500Y914500D02*
X13843000Y2540000D01*
X13843000Y8699548D02*
X15240000Y10096548D01*
X12217500Y-63452D02*
X12217500Y914500D01*
%TO.N,CS1*%
X12700000Y25327800D02*
X12137199Y24764999D01*
X12700000Y27305000D02*
X12700000Y25327800D01*
X12137199Y24764999D02*
X12065001Y24764999D01*
X5334000Y23241000D02*
X6350000Y23241000D01*
X1905000Y24130000D02*
X4445000Y24130000D01*
X4445000Y24130000D02*
X5334000Y23241000D01*
%TO.N,~RST*%
X3810000Y6502500D02*
X4927500Y6502500D01*
X6350000Y6502500D02*
X4927500Y6502500D01*
X7530952Y7620000D02*
X8536447Y7620000D01*
X8536447Y7620000D02*
X8890000Y7620000D01*
X6350000Y6439048D02*
X7530952Y7620000D01*
X12065000Y11366548D02*
X12065000Y8255000D01*
X12700000Y6068553D02*
X12700000Y5715000D01*
X8890000Y14541548D02*
X12065000Y11366548D01*
X12065000Y8255000D02*
X12700000Y7620000D01*
X12700000Y7620000D02*
X12700000Y6068553D01*
%TD*%
D21*
%TO.N,GND*%
X8172153Y15479699D02*
X8015301Y15322847D01*
X7892063Y15138409D01*
X7807175Y14933471D01*
X7763900Y14715911D01*
X7763900Y14494089D01*
X7807175Y14276529D01*
X7892063Y14071591D01*
X8015301Y13887153D01*
X8172153Y13730301D01*
X8356591Y13607063D01*
X8561529Y13522175D01*
X8779089Y13478900D01*
X9000911Y13478900D01*
X9218471Y13522175D01*
X9319513Y13564028D01*
X11677500Y11206040D01*
X11677501Y8274036D01*
X11675626Y8255000D01*
X11683108Y8179037D01*
X11697225Y8132500D01*
X11705266Y8105993D01*
X11741248Y8038675D01*
X11789672Y7979671D01*
X11804451Y7967542D01*
X12312500Y7459492D01*
X12312501Y6087588D01*
X12312500Y6087578D01*
X12312500Y6052285D01*
X12301915Y6041700D01*
X12245828Y5957760D01*
X12207195Y5864491D01*
X12187500Y5765477D01*
X12187500Y5664523D01*
X12207195Y5565509D01*
X12245828Y5472240D01*
X12301915Y5388300D01*
X12373300Y5316915D01*
X12457240Y5260828D01*
X12550509Y5222195D01*
X12649523Y5202500D01*
X12750477Y5202500D01*
X12849491Y5222195D01*
X12942760Y5260828D01*
X13026700Y5316915D01*
X13098085Y5388300D01*
X13154172Y5472240D01*
X13192805Y5565509D01*
X13212500Y5664523D01*
X13212500Y5765477D01*
X13192805Y5864491D01*
X13154172Y5957760D01*
X13098085Y6041700D01*
X13087500Y6052285D01*
X13087500Y7600971D01*
X13089374Y7620000D01*
X13081893Y7695963D01*
X13059735Y7769007D01*
X13051681Y7784075D01*
X13023753Y7836325D01*
X12975329Y7895329D01*
X12960551Y7907457D01*
X12452500Y8415507D01*
X12452500Y9073995D01*
X12457240Y9070828D01*
X12550509Y9032195D01*
X12649523Y9012500D01*
X12750477Y9012500D01*
X12849491Y9032195D01*
X12942760Y9070828D01*
X13026700Y9126915D01*
X13098085Y9198300D01*
X13154172Y9282240D01*
X13192805Y9375509D01*
X13212500Y9474523D01*
X13212500Y9575477D01*
X13192805Y9674491D01*
X13154172Y9767760D01*
X13098085Y9851700D01*
X13087500Y9862285D01*
X13087500Y12934974D01*
X13089374Y12954000D01*
X13081892Y13029963D01*
X13077478Y13044514D01*
X13745994Y12375998D01*
X13758123Y12361219D01*
X13817127Y12312795D01*
X13860996Y12289347D01*
X13884444Y12276813D01*
X13957489Y12254655D01*
X14005798Y12249897D01*
X14076877Y12078298D01*
X14220514Y11863330D01*
X14403330Y11680514D01*
X14618298Y11536877D01*
X14857158Y11437938D01*
X14897066Y11430000D01*
X14857158Y11422062D01*
X14618298Y11323123D01*
X14403330Y11179486D01*
X14220514Y10996670D01*
X14076877Y10781702D01*
X13977938Y10542842D01*
X13927500Y10289270D01*
X13927500Y10030730D01*
X13977938Y9777158D01*
X14076877Y9538298D01*
X14099654Y9504210D01*
X13582451Y8987006D01*
X13567672Y8974877D01*
X13519248Y8915873D01*
X13483266Y8848555D01*
X13461108Y8775511D01*
X13453626Y8699548D01*
X13455501Y8680512D01*
X13455500Y2700508D01*
X11956951Y1201958D01*
X11942172Y1189829D01*
X11893748Y1130825D01*
X11857766Y1063507D01*
X11835608Y990463D01*
X11828126Y914500D01*
X11830001Y895464D01*
X11830001Y643412D01*
X11814098Y638588D01*
X11730676Y593999D01*
X11657557Y533991D01*
X11597549Y460872D01*
X11552960Y377450D01*
X11525501Y286933D01*
X11516230Y192798D01*
X11516230Y-319702D01*
X11525501Y-413837D01*
X11552960Y-504354D01*
X11597549Y-587776D01*
X11657557Y-660895D01*
X11730676Y-720903D01*
X11814098Y-765492D01*
X11904615Y-792951D01*
X11998750Y-802222D01*
X12436250Y-802222D01*
X12530385Y-792951D01*
X12620902Y-765492D01*
X12704324Y-720903D01*
X12777443Y-660895D01*
X12837451Y-587776D01*
X12882040Y-504354D01*
X12909499Y-413837D01*
X12918770Y-319702D01*
X12918770Y192798D01*
X12909499Y286933D01*
X12882040Y377450D01*
X12837451Y460872D01*
X12777443Y533991D01*
X12704324Y593999D01*
X12620902Y638588D01*
X12605000Y643412D01*
X12605000Y753993D01*
X13990131Y2139123D01*
X14035677Y2002438D01*
X14123946Y1837296D01*
X14294126Y1717870D01*
X15116256Y2540000D01*
X14294126Y3362130D01*
X14230500Y3317480D01*
X14230500Y4233344D01*
X14403330Y4060514D01*
X14618298Y3916877D01*
X14857158Y3817938D01*
X14898613Y3809692D01*
X14702438Y3744323D01*
X14537296Y3656054D01*
X14417870Y3485874D01*
X15240000Y2663744D01*
X16062130Y3485874D01*
X15942704Y3656054D01*
X15711471Y3771699D01*
X15576407Y3808702D01*
X15622842Y3817938D01*
X15861702Y3916877D01*
X16076670Y4060514D01*
X16259486Y4243330D01*
X16272501Y4262808D01*
X16272501Y3301338D01*
X16185874Y3362130D01*
X15363744Y2540000D01*
X16185874Y1717870D01*
X16272501Y1778662D01*
X16272501Y817192D01*
X16259486Y836670D01*
X16076670Y1019486D01*
X15861702Y1163123D01*
X15622842Y1262062D01*
X15581387Y1270308D01*
X15777562Y1335677D01*
X15942704Y1423946D01*
X16062130Y1594126D01*
X15240000Y2416256D01*
X14417870Y1594126D01*
X14537296Y1423946D01*
X14768529Y1308301D01*
X14903593Y1271298D01*
X14857158Y1262062D01*
X14618298Y1163123D01*
X14403330Y1019486D01*
X14220514Y836670D01*
X14076877Y621702D01*
X13977938Y382842D01*
X13927500Y129270D01*
X13927500Y-129270D01*
X13977938Y-382842D01*
X14076877Y-621702D01*
X14220514Y-836670D01*
X14403330Y-1019486D01*
X14422807Y-1032500D01*
X1313770Y-1032500D01*
X1313770Y-538452D01*
X2321230Y-538452D01*
X2326298Y-589911D01*
X2341308Y-639392D01*
X2365683Y-684995D01*
X2398486Y-724966D01*
X2438457Y-757769D01*
X2484060Y-782144D01*
X2533541Y-797154D01*
X2585000Y-802222D01*
X2869375Y-800952D01*
X2935000Y-735327D01*
X2935000Y-150952D01*
X3110000Y-150952D01*
X3110000Y-735327D01*
X3175625Y-800952D01*
X3460000Y-802222D01*
X3511459Y-797154D01*
X3560940Y-782144D01*
X3606543Y-757769D01*
X3646514Y-724966D01*
X3679317Y-684995D01*
X3703692Y-639392D01*
X3718702Y-589911D01*
X3723770Y-538452D01*
X3722500Y-216577D01*
X3656875Y-150952D01*
X3110000Y-150952D01*
X2935000Y-150952D01*
X2388125Y-150952D01*
X2322500Y-216577D01*
X2321230Y-538452D01*
X1313770Y-538452D01*
X1313770Y-284815D01*
X1325329Y-275329D01*
X1337462Y-260545D01*
X2009555Y411548D01*
X2321230Y411548D01*
X2322500Y89673D01*
X2388125Y24048D01*
X2935000Y24048D01*
X2935000Y608423D01*
X3110000Y608423D01*
X3110000Y24048D01*
X3656875Y24048D01*
X3722500Y89673D01*
X3723770Y411548D01*
X3718702Y463007D01*
X3703692Y512488D01*
X3679317Y558091D01*
X3646514Y598062D01*
X3606543Y630865D01*
X3560940Y655240D01*
X3511459Y670250D01*
X3460000Y675318D01*
X3175625Y674048D01*
X3110000Y608423D01*
X2935000Y608423D01*
X2869375Y674048D01*
X2585000Y675318D01*
X2533541Y670250D01*
X2484060Y655240D01*
X2438457Y630865D01*
X2398486Y598062D01*
X2365683Y558091D01*
X2341308Y512488D01*
X2326298Y463007D01*
X2321230Y411548D01*
X2009555Y411548D01*
X2800551Y1202543D01*
X2815329Y1214671D01*
X2863753Y1273675D01*
X2899735Y1340993D01*
X2921892Y1414037D01*
X2923448Y1429830D01*
X2960000Y1426230D01*
X3656875Y1427500D01*
X3722500Y1493125D01*
X3722500Y2452500D01*
X3702500Y2452500D01*
X3702500Y2627500D01*
X3722500Y2627500D01*
X3722500Y3586875D01*
X3897500Y3586875D01*
X3897500Y2627500D01*
X4856875Y2627500D01*
X4922500Y2693125D01*
X4923770Y3390000D01*
X4918702Y3441459D01*
X4903692Y3490940D01*
X4879317Y3536543D01*
X4846514Y3576514D01*
X4806543Y3609317D01*
X4760940Y3633692D01*
X4711459Y3648702D01*
X4660000Y3653770D01*
X3963125Y3652500D01*
X3897500Y3586875D01*
X3722500Y3586875D01*
X3656875Y3652500D01*
X2960000Y3653770D01*
X2927500Y3650569D01*
X2927500Y4490000D01*
X3071230Y4490000D01*
X3076298Y4438541D01*
X3091308Y4389060D01*
X3115683Y4343457D01*
X3148486Y4303486D01*
X3188457Y4270683D01*
X3234060Y4246308D01*
X3283541Y4231298D01*
X3335000Y4226230D01*
X3656875Y4227500D01*
X3722500Y4293125D01*
X3722500Y4840000D01*
X3897500Y4840000D01*
X3897500Y4293125D01*
X3963125Y4227500D01*
X4285000Y4226230D01*
X4336459Y4231298D01*
X4385940Y4246308D01*
X4431543Y4270683D01*
X4471514Y4303486D01*
X4504317Y4343457D01*
X4528692Y4389060D01*
X4543702Y4438541D01*
X4548770Y4490000D01*
X4547500Y4774375D01*
X4481875Y4840000D01*
X3897500Y4840000D01*
X3722500Y4840000D01*
X3138125Y4840000D01*
X3072500Y4774375D01*
X3071230Y4490000D01*
X2927500Y4490000D01*
X2927500Y5365000D01*
X3071230Y5365000D01*
X3072500Y5080625D01*
X3138125Y5015000D01*
X3722500Y5015000D01*
X3722500Y5561875D01*
X3897500Y5561875D01*
X3897500Y5015000D01*
X4481875Y5015000D01*
X4547500Y5080625D01*
X4548770Y5365000D01*
X4543702Y5416459D01*
X4528692Y5465940D01*
X4504317Y5511543D01*
X4471514Y5551514D01*
X4431543Y5584317D01*
X4385940Y5608692D01*
X4336459Y5623702D01*
X4285000Y5628770D01*
X3963125Y5627500D01*
X3897500Y5561875D01*
X3722500Y5561875D01*
X3656875Y5627500D01*
X3335000Y5628770D01*
X3283541Y5623702D01*
X3234060Y5608692D01*
X3188457Y5584317D01*
X3148486Y5551514D01*
X3115683Y5511543D01*
X3091308Y5465940D01*
X3076298Y5416459D01*
X3071230Y5365000D01*
X2927500Y5365000D01*
X2927500Y6602267D01*
X3073933Y6748700D01*
X3071230Y6721250D01*
X3071230Y6283750D01*
X3080501Y6189615D01*
X3107960Y6099098D01*
X3152549Y6015676D01*
X3212557Y5942557D01*
X3285676Y5882549D01*
X3369098Y5837960D01*
X3459615Y5810501D01*
X3553750Y5801230D01*
X4066250Y5801230D01*
X4160385Y5810501D01*
X4250902Y5837960D01*
X4334324Y5882549D01*
X4407443Y5942557D01*
X4467451Y6015676D01*
X4512040Y6099098D01*
X4516864Y6115000D01*
X5643136Y6115000D01*
X5647960Y6099098D01*
X5692549Y6015676D01*
X5752557Y5942557D01*
X5825676Y5882549D01*
X5909098Y5837960D01*
X5999615Y5810501D01*
X6093750Y5801230D01*
X6606250Y5801230D01*
X6700385Y5810501D01*
X6790902Y5837960D01*
X6874324Y5882549D01*
X6947443Y5942557D01*
X7007451Y6015676D01*
X7052040Y6099098D01*
X7079499Y6189615D01*
X7088770Y6283750D01*
X7088770Y6629811D01*
X7691460Y7232500D01*
X8552715Y7232500D01*
X8563300Y7221915D01*
X8596017Y7200054D01*
X8539615Y7194499D01*
X8449098Y7167040D01*
X8365676Y7122451D01*
X8292557Y7062443D01*
X8232549Y6989324D01*
X8187960Y6905902D01*
X8186639Y6901548D01*
X8049212Y6901548D01*
X8026500Y6903785D01*
X7935834Y6894855D01*
X7848652Y6868409D01*
X7837102Y6862235D01*
X7768306Y6825463D01*
X7697881Y6767667D01*
X7683397Y6750018D01*
X7309026Y6375647D01*
X7291382Y6361167D01*
X7233586Y6290742D01*
X7190640Y6210395D01*
X7164193Y6123213D01*
X7155263Y6032548D01*
X7157501Y6009826D01*
X7157500Y5462121D01*
X7043068Y5347689D01*
X7007451Y5414324D01*
X6947443Y5487443D01*
X6874324Y5547451D01*
X6790902Y5592040D01*
X6700385Y5619499D01*
X6606250Y5628770D01*
X6093750Y5628770D01*
X5999615Y5619499D01*
X5909098Y5592040D01*
X5825676Y5547451D01*
X5752557Y5487443D01*
X5692549Y5414324D01*
X5647960Y5330902D01*
X5620501Y5240385D01*
X5611230Y5146250D01*
X5611230Y4708750D01*
X5620501Y4614615D01*
X5647960Y4524098D01*
X5692549Y4440676D01*
X5752557Y4367557D01*
X5825676Y4307549D01*
X5887501Y4274504D01*
X5887500Y3552588D01*
X5823034Y3525885D01*
X5640823Y3404135D01*
X5485865Y3249177D01*
X5364115Y3066966D01*
X5280253Y2864504D01*
X5237500Y2649572D01*
X5237500Y2430428D01*
X5280253Y2215496D01*
X5325540Y2106162D01*
X4923744Y1704365D01*
X4922500Y2386875D01*
X4856875Y2452500D01*
X3897500Y2452500D01*
X3897500Y1493125D01*
X3963125Y1427500D01*
X4645634Y1426256D01*
X4286526Y1067147D01*
X4268882Y1052667D01*
X4211086Y982242D01*
X4168140Y901895D01*
X4141693Y814713D01*
X4132763Y724048D01*
X4135001Y701326D01*
X4135001Y607001D01*
X4110676Y593999D01*
X4037557Y533991D01*
X3977549Y460872D01*
X3932960Y377450D01*
X3905501Y286933D01*
X3896230Y192798D01*
X3896230Y-319702D01*
X3905501Y-413837D01*
X3932960Y-504354D01*
X3977549Y-587776D01*
X4037557Y-660895D01*
X4110676Y-720903D01*
X4194098Y-765492D01*
X4284615Y-792951D01*
X4378750Y-802222D01*
X4816250Y-802222D01*
X4910385Y-792951D01*
X5000902Y-765492D01*
X5084324Y-720903D01*
X5157443Y-660895D01*
X5217451Y-587776D01*
X5243814Y-538452D01*
X6131230Y-538452D01*
X6136298Y-589911D01*
X6151308Y-639392D01*
X6175683Y-684995D01*
X6208486Y-724966D01*
X6248457Y-757769D01*
X6294060Y-782144D01*
X6343541Y-797154D01*
X6395000Y-802222D01*
X6679375Y-800952D01*
X6745000Y-735327D01*
X6745000Y-150952D01*
X6920000Y-150952D01*
X6920000Y-735327D01*
X6985625Y-800952D01*
X7270000Y-802222D01*
X7321459Y-797154D01*
X7370940Y-782144D01*
X7416543Y-757769D01*
X7456514Y-724966D01*
X7489317Y-684995D01*
X7513692Y-639392D01*
X7528702Y-589911D01*
X7533770Y-538452D01*
X7532500Y-216577D01*
X7466875Y-150952D01*
X6920000Y-150952D01*
X6745000Y-150952D01*
X6198125Y-150952D01*
X6132500Y-216577D01*
X6131230Y-538452D01*
X5243814Y-538452D01*
X5262040Y-504354D01*
X5289499Y-413837D01*
X5298770Y-319702D01*
X5298770Y192798D01*
X5289499Y286933D01*
X5262040Y377450D01*
X5243815Y411548D01*
X6131230Y411548D01*
X6132500Y89673D01*
X6198125Y24048D01*
X6745000Y24048D01*
X6745000Y608423D01*
X6920000Y608423D01*
X6920000Y24048D01*
X7466875Y24048D01*
X7532500Y89673D01*
X7532906Y192798D01*
X7706230Y192798D01*
X7706230Y-319702D01*
X7715501Y-413837D01*
X7742960Y-504354D01*
X7787549Y-587776D01*
X7847557Y-660895D01*
X7920676Y-720903D01*
X8004098Y-765492D01*
X8094615Y-792951D01*
X8188750Y-802222D01*
X8626250Y-802222D01*
X8720385Y-792951D01*
X8810902Y-765492D01*
X8894324Y-720903D01*
X8967443Y-660895D01*
X9027451Y-587776D01*
X9072040Y-504354D01*
X9088240Y-450952D01*
X9961760Y-450952D01*
X9977960Y-504354D01*
X10022549Y-587776D01*
X10082557Y-660895D01*
X10155676Y-720903D01*
X10239098Y-765492D01*
X10329615Y-792951D01*
X10423750Y-802222D01*
X10861250Y-802222D01*
X10955385Y-792951D01*
X11045902Y-765492D01*
X11129324Y-720903D01*
X11202443Y-660895D01*
X11262451Y-587776D01*
X11307040Y-504354D01*
X11334499Y-413837D01*
X11343770Y-319702D01*
X11343770Y192798D01*
X11334499Y286933D01*
X11307040Y377450D01*
X11262451Y460872D01*
X11202443Y533991D01*
X11129324Y593999D01*
X11045902Y638588D01*
X10955385Y666047D01*
X10861250Y675318D01*
X10423750Y675318D01*
X10329615Y666047D01*
X10239098Y638588D01*
X10155676Y593999D01*
X10082557Y533991D01*
X10022549Y460872D01*
X9977960Y377450D01*
X9961760Y324048D01*
X9088240Y324048D01*
X9072040Y377450D01*
X9027451Y460872D01*
X8967443Y533991D01*
X8894324Y593999D01*
X8810902Y638588D01*
X8720385Y666047D01*
X8626250Y675318D01*
X8188750Y675318D01*
X8094615Y666047D01*
X8004098Y638588D01*
X7920676Y593999D01*
X7847557Y533991D01*
X7787549Y460872D01*
X7742960Y377450D01*
X7715501Y286933D01*
X7706230Y192798D01*
X7532906Y192798D01*
X7533770Y411548D01*
X7528702Y463007D01*
X7513692Y512488D01*
X7489317Y558091D01*
X7456514Y598062D01*
X7416543Y630865D01*
X7370940Y655240D01*
X7321459Y670250D01*
X7270000Y675318D01*
X6985625Y674048D01*
X6920000Y608423D01*
X6745000Y608423D01*
X6679375Y674048D01*
X6395000Y675318D01*
X6343541Y670250D01*
X6294060Y655240D01*
X6248457Y630865D01*
X6208486Y598062D01*
X6175683Y558091D01*
X6151308Y512488D01*
X6136298Y463007D01*
X6131230Y411548D01*
X5243815Y411548D01*
X5217451Y460872D01*
X5157443Y533991D01*
X5104756Y577231D01*
X5423096Y895570D01*
X5423100Y895575D01*
X6005897Y1478371D01*
X6025496Y1470253D01*
X6240428Y1427500D01*
X6459572Y1427500D01*
X6674504Y1470253D01*
X6876966Y1554115D01*
X7059177Y1675865D01*
X7214135Y1830823D01*
X7335885Y2013034D01*
X7419747Y2215496D01*
X7462500Y2430428D01*
X7462500Y2649572D01*
X7777500Y2649572D01*
X7777500Y2430428D01*
X7820253Y2215496D01*
X7904115Y2013034D01*
X8025865Y1830823D01*
X8180823Y1675865D01*
X8363034Y1554115D01*
X8565496Y1470253D01*
X8780428Y1427500D01*
X8999572Y1427500D01*
X9214504Y1470253D01*
X9416966Y1554115D01*
X9599177Y1675865D01*
X9754135Y1830823D01*
X9875885Y2013034D01*
X9959747Y2215496D01*
X10002500Y2430428D01*
X10002500Y2649572D01*
X10317500Y2649572D01*
X10317500Y2430428D01*
X10360253Y2215496D01*
X10444115Y2013034D01*
X10565865Y1830823D01*
X10720823Y1675865D01*
X10903034Y1554115D01*
X11105496Y1470253D01*
X11320428Y1427500D01*
X11539572Y1427500D01*
X11754504Y1470253D01*
X11956966Y1554115D01*
X12139177Y1675865D01*
X12294135Y1830823D01*
X12415885Y2013034D01*
X12499747Y2215496D01*
X12542500Y2430428D01*
X12542500Y2649572D01*
X12499747Y2864504D01*
X12415885Y3066966D01*
X12294135Y3249177D01*
X12139177Y3404135D01*
X11956966Y3525885D01*
X11892500Y3552588D01*
X11892500Y4274504D01*
X11954324Y4307549D01*
X12027443Y4367557D01*
X12087451Y4440676D01*
X12132040Y4524098D01*
X12159499Y4614615D01*
X12168770Y4708750D01*
X12168770Y5146250D01*
X12159499Y5240385D01*
X12132040Y5330902D01*
X12087451Y5414324D01*
X12027443Y5487443D01*
X11954324Y5547451D01*
X11870902Y5592040D01*
X11780385Y5619499D01*
X11686250Y5628770D01*
X11173750Y5628770D01*
X11079615Y5619499D01*
X10989098Y5592040D01*
X10905676Y5547451D01*
X10832557Y5487443D01*
X10772549Y5414324D01*
X10727960Y5330902D01*
X10700501Y5240385D01*
X10691230Y5146250D01*
X10691230Y4708750D01*
X10700501Y4614615D01*
X10727960Y4524098D01*
X10772549Y4440676D01*
X10832557Y4367557D01*
X10905676Y4307549D01*
X10967500Y4274504D01*
X10967501Y3552588D01*
X10903034Y3525885D01*
X10720823Y3404135D01*
X10565865Y3249177D01*
X10444115Y3066966D01*
X10360253Y2864504D01*
X10317500Y2649572D01*
X10002500Y2649572D01*
X9959747Y2864504D01*
X9875885Y3066966D01*
X9754135Y3249177D01*
X9599177Y3404135D01*
X9416966Y3525885D01*
X9352500Y3552588D01*
X9352500Y4274504D01*
X9414324Y4307549D01*
X9487443Y4367557D01*
X9547451Y4440676D01*
X9592040Y4524098D01*
X9619499Y4614615D01*
X9628770Y4708750D01*
X9628770Y5146250D01*
X9619499Y5240385D01*
X9592040Y5330902D01*
X9547451Y5414324D01*
X9487443Y5487443D01*
X9414324Y5547451D01*
X9330902Y5592040D01*
X9240385Y5619499D01*
X9146250Y5628770D01*
X8633750Y5628770D01*
X8539615Y5619499D01*
X8449098Y5592040D01*
X8365676Y5547451D01*
X8292557Y5487443D01*
X8232549Y5414324D01*
X8187960Y5330902D01*
X8160501Y5240385D01*
X8151230Y5146250D01*
X8151230Y4708750D01*
X8160501Y4614615D01*
X8187960Y4524098D01*
X8232549Y4440676D01*
X8292557Y4367557D01*
X8365676Y4307549D01*
X8427500Y4274504D01*
X8427501Y3552588D01*
X8363034Y3525885D01*
X8180823Y3404135D01*
X8025865Y3249177D01*
X7904115Y3066966D01*
X7820253Y2864504D01*
X7777500Y2649572D01*
X7462500Y2649572D01*
X7419747Y2864504D01*
X7335885Y3066966D01*
X7214135Y3249177D01*
X7059177Y3404135D01*
X6876966Y3525885D01*
X6812500Y3552588D01*
X6812500Y4274504D01*
X6874324Y4307549D01*
X6947443Y4367557D01*
X6975339Y4401548D01*
X7190788Y4401548D01*
X7213500Y4399311D01*
X7236212Y4401548D01*
X7304166Y4408241D01*
X7391347Y4434687D01*
X7471694Y4477633D01*
X7542119Y4535429D01*
X7556603Y4553078D01*
X7930971Y4927446D01*
X7948619Y4941929D01*
X8006415Y5012354D01*
X8034401Y5064714D01*
X8049361Y5092700D01*
X8075807Y5179882D01*
X8084737Y5270548D01*
X8082500Y5293260D01*
X8082500Y5840975D01*
X8218073Y5976548D01*
X8264661Y5976548D01*
X8292557Y5942557D01*
X8365676Y5882549D01*
X8449098Y5837960D01*
X8539615Y5810501D01*
X8633750Y5801230D01*
X9146250Y5801230D01*
X9240385Y5810501D01*
X9330902Y5837960D01*
X9414324Y5882549D01*
X9487443Y5942557D01*
X9515339Y5976548D01*
X10302239Y5976548D01*
X10324951Y5974311D01*
X10347663Y5976548D01*
X10804661Y5976548D01*
X10832557Y5942557D01*
X10905676Y5882549D01*
X10989098Y5837960D01*
X11079615Y5810501D01*
X11173750Y5801230D01*
X11686250Y5801230D01*
X11780385Y5810501D01*
X11870902Y5837960D01*
X11954324Y5882549D01*
X12027443Y5942557D01*
X12087451Y6015676D01*
X12132040Y6099098D01*
X12159499Y6189615D01*
X12168770Y6283750D01*
X12168770Y6721250D01*
X12159499Y6815385D01*
X12132040Y6905902D01*
X12087451Y6989324D01*
X12027443Y7062443D01*
X11954324Y7122451D01*
X11870902Y7167040D01*
X11780385Y7194499D01*
X11686250Y7203770D01*
X11173750Y7203770D01*
X11079615Y7194499D01*
X10989098Y7167040D01*
X10905676Y7122451D01*
X10832557Y7062443D01*
X10772549Y6989324D01*
X10749500Y6946201D01*
X10749500Y7299706D01*
X10785481Y7353556D01*
X10827884Y7455925D01*
X10849500Y7564599D01*
X10849500Y7675401D01*
X10827884Y7784075D01*
X10785481Y7886444D01*
X10749500Y7940294D01*
X10749500Y10581837D01*
X10751737Y10604549D01*
X10742807Y10695215D01*
X10716361Y10782394D01*
X10716361Y10782395D01*
X10673415Y10862742D01*
X10615619Y10933167D01*
X10597976Y10947646D01*
X9924869Y11620753D01*
X9972825Y11736529D01*
X10016100Y11954089D01*
X10016100Y12175911D01*
X9972825Y12393471D01*
X9887937Y12598409D01*
X9764699Y12782847D01*
X9607847Y12939699D01*
X9423409Y13062937D01*
X9218471Y13147825D01*
X9000911Y13191100D01*
X8779089Y13191100D01*
X8561529Y13147825D01*
X8445752Y13099869D01*
X7899651Y13645970D01*
X7885167Y13663619D01*
X7814742Y13721415D01*
X7734395Y13764361D01*
X7647214Y13790807D01*
X7579260Y13797500D01*
X7556548Y13799737D01*
X7533836Y13797500D01*
X7135046Y13797500D01*
X7224699Y13887153D01*
X7347937Y14071591D01*
X7432825Y14276529D01*
X7476100Y14494089D01*
X7476100Y14715911D01*
X7432825Y14933471D01*
X7390972Y15034513D01*
X7843960Y15487500D01*
X8183828Y15487500D01*
X8172153Y15479699D01*
%TA.AperFunction,Conductor*%
D22*
G36*
X8172153Y15479699D02*
G01*
X8015301Y15322847D01*
X7892063Y15138409D01*
X7807175Y14933471D01*
X7763900Y14715911D01*
X7763900Y14494089D01*
X7807175Y14276529D01*
X7892063Y14071591D01*
X8015301Y13887153D01*
X8172153Y13730301D01*
X8356591Y13607063D01*
X8561529Y13522175D01*
X8779089Y13478900D01*
X9000911Y13478900D01*
X9218471Y13522175D01*
X9319513Y13564028D01*
X11677500Y11206040D01*
X11677501Y8274036D01*
X11675626Y8255000D01*
X11683108Y8179037D01*
X11697225Y8132500D01*
X11705266Y8105993D01*
X11741248Y8038675D01*
X11789672Y7979671D01*
X11804451Y7967542D01*
X12312500Y7459492D01*
X12312501Y6087588D01*
X12312500Y6087578D01*
X12312500Y6052285D01*
X12301915Y6041700D01*
X12245828Y5957760D01*
X12207195Y5864491D01*
X12187500Y5765477D01*
X12187500Y5664523D01*
X12207195Y5565509D01*
X12245828Y5472240D01*
X12301915Y5388300D01*
X12373300Y5316915D01*
X12457240Y5260828D01*
X12550509Y5222195D01*
X12649523Y5202500D01*
X12750477Y5202500D01*
X12849491Y5222195D01*
X12942760Y5260828D01*
X13026700Y5316915D01*
X13098085Y5388300D01*
X13154172Y5472240D01*
X13192805Y5565509D01*
X13212500Y5664523D01*
X13212500Y5765477D01*
X13192805Y5864491D01*
X13154172Y5957760D01*
X13098085Y6041700D01*
X13087500Y6052285D01*
X13087500Y7600971D01*
X13089374Y7620000D01*
X13081893Y7695963D01*
X13059735Y7769007D01*
X13051681Y7784075D01*
X13023753Y7836325D01*
X12975329Y7895329D01*
X12960551Y7907457D01*
X12452500Y8415507D01*
X12452500Y9073995D01*
X12457240Y9070828D01*
X12550509Y9032195D01*
X12649523Y9012500D01*
X12750477Y9012500D01*
X12849491Y9032195D01*
X12942760Y9070828D01*
X13026700Y9126915D01*
X13098085Y9198300D01*
X13154172Y9282240D01*
X13192805Y9375509D01*
X13212500Y9474523D01*
X13212500Y9575477D01*
X13192805Y9674491D01*
X13154172Y9767760D01*
X13098085Y9851700D01*
X13087500Y9862285D01*
X13087500Y12934974D01*
X13089374Y12954000D01*
X13081892Y13029963D01*
X13077478Y13044514D01*
X13745994Y12375998D01*
X13758123Y12361219D01*
X13817127Y12312795D01*
X13860996Y12289347D01*
X13884444Y12276813D01*
X13957489Y12254655D01*
X14005798Y12249897D01*
X14076877Y12078298D01*
X14220514Y11863330D01*
X14403330Y11680514D01*
X14618298Y11536877D01*
X14857158Y11437938D01*
X14897066Y11430000D01*
X14857158Y11422062D01*
X14618298Y11323123D01*
X14403330Y11179486D01*
X14220514Y10996670D01*
X14076877Y10781702D01*
X13977938Y10542842D01*
X13927500Y10289270D01*
X13927500Y10030730D01*
X13977938Y9777158D01*
X14076877Y9538298D01*
X14099654Y9504210D01*
X13582451Y8987006D01*
X13567672Y8974877D01*
X13519248Y8915873D01*
X13483266Y8848555D01*
X13461108Y8775511D01*
X13453626Y8699548D01*
X13455501Y8680512D01*
X13455500Y2700508D01*
X11956951Y1201958D01*
X11942172Y1189829D01*
X11893748Y1130825D01*
X11857766Y1063507D01*
X11835608Y990463D01*
X11828126Y914500D01*
X11830001Y895464D01*
X11830001Y643412D01*
X11814098Y638588D01*
X11730676Y593999D01*
X11657557Y533991D01*
X11597549Y460872D01*
X11552960Y377450D01*
X11525501Y286933D01*
X11516230Y192798D01*
X11516230Y-319702D01*
X11525501Y-413837D01*
X11552960Y-504354D01*
X11597549Y-587776D01*
X11657557Y-660895D01*
X11730676Y-720903D01*
X11814098Y-765492D01*
X11904615Y-792951D01*
X11998750Y-802222D01*
X12436250Y-802222D01*
X12530385Y-792951D01*
X12620902Y-765492D01*
X12704324Y-720903D01*
X12777443Y-660895D01*
X12837451Y-587776D01*
X12882040Y-504354D01*
X12909499Y-413837D01*
X12918770Y-319702D01*
X12918770Y192798D01*
X12909499Y286933D01*
X12882040Y377450D01*
X12837451Y460872D01*
X12777443Y533991D01*
X12704324Y593999D01*
X12620902Y638588D01*
X12605000Y643412D01*
X12605000Y753993D01*
X13990131Y2139123D01*
X14035677Y2002438D01*
X14123946Y1837296D01*
X14294126Y1717870D01*
X15116256Y2540000D01*
X14294126Y3362130D01*
X14230500Y3317480D01*
X14230500Y4233344D01*
X14403330Y4060514D01*
X14618298Y3916877D01*
X14857158Y3817938D01*
X14898613Y3809692D01*
X14702438Y3744323D01*
X14537296Y3656054D01*
X14417870Y3485874D01*
X15240000Y2663744D01*
X16062130Y3485874D01*
X15942704Y3656054D01*
X15711471Y3771699D01*
X15576407Y3808702D01*
X15622842Y3817938D01*
X15861702Y3916877D01*
X16076670Y4060514D01*
X16259486Y4243330D01*
X16272501Y4262808D01*
X16272501Y3301338D01*
X16185874Y3362130D01*
X15363744Y2540000D01*
X16185874Y1717870D01*
X16272501Y1778662D01*
X16272501Y817192D01*
X16259486Y836670D01*
X16076670Y1019486D01*
X15861702Y1163123D01*
X15622842Y1262062D01*
X15581387Y1270308D01*
X15777562Y1335677D01*
X15942704Y1423946D01*
X16062130Y1594126D01*
X15240000Y2416256D01*
X14417870Y1594126D01*
X14537296Y1423946D01*
X14768529Y1308301D01*
X14903593Y1271298D01*
X14857158Y1262062D01*
X14618298Y1163123D01*
X14403330Y1019486D01*
X14220514Y836670D01*
X14076877Y621702D01*
X13977938Y382842D01*
X13927500Y129270D01*
X13927500Y-129270D01*
X13977938Y-382842D01*
X14076877Y-621702D01*
X14220514Y-836670D01*
X14403330Y-1019486D01*
X14422807Y-1032500D01*
X1313770Y-1032500D01*
X1313770Y-538452D01*
X2321230Y-538452D01*
X2326298Y-589911D01*
X2341308Y-639392D01*
X2365683Y-684995D01*
X2398486Y-724966D01*
X2438457Y-757769D01*
X2484060Y-782144D01*
X2533541Y-797154D01*
X2585000Y-802222D01*
X2869375Y-800952D01*
X2935000Y-735327D01*
X2935000Y-150952D01*
X3110000Y-150952D01*
X3110000Y-735327D01*
X3175625Y-800952D01*
X3460000Y-802222D01*
X3511459Y-797154D01*
X3560940Y-782144D01*
X3606543Y-757769D01*
X3646514Y-724966D01*
X3679317Y-684995D01*
X3703692Y-639392D01*
X3718702Y-589911D01*
X3723770Y-538452D01*
X3722500Y-216577D01*
X3656875Y-150952D01*
X3110000Y-150952D01*
X2935000Y-150952D01*
X2388125Y-150952D01*
X2322500Y-216577D01*
X2321230Y-538452D01*
X1313770Y-538452D01*
X1313770Y-284815D01*
X1325329Y-275329D01*
X1337462Y-260545D01*
X2009555Y411548D01*
X2321230Y411548D01*
X2322500Y89673D01*
X2388125Y24048D01*
X2935000Y24048D01*
X2935000Y608423D01*
X3110000Y608423D01*
X3110000Y24048D01*
X3656875Y24048D01*
X3722500Y89673D01*
X3723770Y411548D01*
X3718702Y463007D01*
X3703692Y512488D01*
X3679317Y558091D01*
X3646514Y598062D01*
X3606543Y630865D01*
X3560940Y655240D01*
X3511459Y670250D01*
X3460000Y675318D01*
X3175625Y674048D01*
X3110000Y608423D01*
X2935000Y608423D01*
X2869375Y674048D01*
X2585000Y675318D01*
X2533541Y670250D01*
X2484060Y655240D01*
X2438457Y630865D01*
X2398486Y598062D01*
X2365683Y558091D01*
X2341308Y512488D01*
X2326298Y463007D01*
X2321230Y411548D01*
X2009555Y411548D01*
X2800551Y1202543D01*
X2815329Y1214671D01*
X2863753Y1273675D01*
X2899735Y1340993D01*
X2921892Y1414037D01*
X2923448Y1429830D01*
X2960000Y1426230D01*
X3656875Y1427500D01*
X3722500Y1493125D01*
X3722500Y2452500D01*
X3702500Y2452500D01*
X3702500Y2627500D01*
X3722500Y2627500D01*
X3722500Y3586875D01*
X3897500Y3586875D01*
X3897500Y2627500D01*
X4856875Y2627500D01*
X4922500Y2693125D01*
X4923770Y3390000D01*
X4918702Y3441459D01*
X4903692Y3490940D01*
X4879317Y3536543D01*
X4846514Y3576514D01*
X4806543Y3609317D01*
X4760940Y3633692D01*
X4711459Y3648702D01*
X4660000Y3653770D01*
X3963125Y3652500D01*
X3897500Y3586875D01*
X3722500Y3586875D01*
X3656875Y3652500D01*
X2960000Y3653770D01*
X2927500Y3650569D01*
X2927500Y4490000D01*
X3071230Y4490000D01*
X3076298Y4438541D01*
X3091308Y4389060D01*
X3115683Y4343457D01*
X3148486Y4303486D01*
X3188457Y4270683D01*
X3234060Y4246308D01*
X3283541Y4231298D01*
X3335000Y4226230D01*
X3656875Y4227500D01*
X3722500Y4293125D01*
X3722500Y4840000D01*
X3897500Y4840000D01*
X3897500Y4293125D01*
X3963125Y4227500D01*
X4285000Y4226230D01*
X4336459Y4231298D01*
X4385940Y4246308D01*
X4431543Y4270683D01*
X4471514Y4303486D01*
X4504317Y4343457D01*
X4528692Y4389060D01*
X4543702Y4438541D01*
X4548770Y4490000D01*
X4547500Y4774375D01*
X4481875Y4840000D01*
X3897500Y4840000D01*
X3722500Y4840000D01*
X3138125Y4840000D01*
X3072500Y4774375D01*
X3071230Y4490000D01*
X2927500Y4490000D01*
X2927500Y5365000D01*
X3071230Y5365000D01*
X3072500Y5080625D01*
X3138125Y5015000D01*
X3722500Y5015000D01*
X3722500Y5561875D01*
X3897500Y5561875D01*
X3897500Y5015000D01*
X4481875Y5015000D01*
X4547500Y5080625D01*
X4548770Y5365000D01*
X4543702Y5416459D01*
X4528692Y5465940D01*
X4504317Y5511543D01*
X4471514Y5551514D01*
X4431543Y5584317D01*
X4385940Y5608692D01*
X4336459Y5623702D01*
X4285000Y5628770D01*
X3963125Y5627500D01*
X3897500Y5561875D01*
X3722500Y5561875D01*
X3656875Y5627500D01*
X3335000Y5628770D01*
X3283541Y5623702D01*
X3234060Y5608692D01*
X3188457Y5584317D01*
X3148486Y5551514D01*
X3115683Y5511543D01*
X3091308Y5465940D01*
X3076298Y5416459D01*
X3071230Y5365000D01*
X2927500Y5365000D01*
X2927500Y6602267D01*
X3073933Y6748700D01*
X3071230Y6721250D01*
X3071230Y6283750D01*
X3080501Y6189615D01*
X3107960Y6099098D01*
X3152549Y6015676D01*
X3212557Y5942557D01*
X3285676Y5882549D01*
X3369098Y5837960D01*
X3459615Y5810501D01*
X3553750Y5801230D01*
X4066250Y5801230D01*
X4160385Y5810501D01*
X4250902Y5837960D01*
X4334324Y5882549D01*
X4407443Y5942557D01*
X4467451Y6015676D01*
X4512040Y6099098D01*
X4516864Y6115000D01*
X5643136Y6115000D01*
X5647960Y6099098D01*
X5692549Y6015676D01*
X5752557Y5942557D01*
X5825676Y5882549D01*
X5909098Y5837960D01*
X5999615Y5810501D01*
X6093750Y5801230D01*
X6606250Y5801230D01*
X6700385Y5810501D01*
X6790902Y5837960D01*
X6874324Y5882549D01*
X6947443Y5942557D01*
X7007451Y6015676D01*
X7052040Y6099098D01*
X7079499Y6189615D01*
X7088770Y6283750D01*
X7088770Y6629811D01*
X7691460Y7232500D01*
X8552715Y7232500D01*
X8563300Y7221915D01*
X8596017Y7200054D01*
X8539615Y7194499D01*
X8449098Y7167040D01*
X8365676Y7122451D01*
X8292557Y7062443D01*
X8232549Y6989324D01*
X8187960Y6905902D01*
X8186639Y6901548D01*
X8049212Y6901548D01*
X8026500Y6903785D01*
X7935834Y6894855D01*
X7848652Y6868409D01*
X7837102Y6862235D01*
X7768306Y6825463D01*
X7697881Y6767667D01*
X7683397Y6750018D01*
X7309026Y6375647D01*
X7291382Y6361167D01*
X7233586Y6290742D01*
X7190640Y6210395D01*
X7164193Y6123213D01*
X7155263Y6032548D01*
X7157501Y6009826D01*
X7157500Y5462121D01*
X7043068Y5347689D01*
X7007451Y5414324D01*
X6947443Y5487443D01*
X6874324Y5547451D01*
X6790902Y5592040D01*
X6700385Y5619499D01*
X6606250Y5628770D01*
X6093750Y5628770D01*
X5999615Y5619499D01*
X5909098Y5592040D01*
X5825676Y5547451D01*
X5752557Y5487443D01*
X5692549Y5414324D01*
X5647960Y5330902D01*
X5620501Y5240385D01*
X5611230Y5146250D01*
X5611230Y4708750D01*
X5620501Y4614615D01*
X5647960Y4524098D01*
X5692549Y4440676D01*
X5752557Y4367557D01*
X5825676Y4307549D01*
X5887501Y4274504D01*
X5887500Y3552588D01*
X5823034Y3525885D01*
X5640823Y3404135D01*
X5485865Y3249177D01*
X5364115Y3066966D01*
X5280253Y2864504D01*
X5237500Y2649572D01*
X5237500Y2430428D01*
X5280253Y2215496D01*
X5325540Y2106162D01*
X4923744Y1704365D01*
X4922500Y2386875D01*
X4856875Y2452500D01*
X3897500Y2452500D01*
X3897500Y1493125D01*
X3963125Y1427500D01*
X4645634Y1426256D01*
X4286526Y1067147D01*
X4268882Y1052667D01*
X4211086Y982242D01*
X4168140Y901895D01*
X4141693Y814713D01*
X4132763Y724048D01*
X4135001Y701326D01*
X4135001Y607001D01*
X4110676Y593999D01*
X4037557Y533991D01*
X3977549Y460872D01*
X3932960Y377450D01*
X3905501Y286933D01*
X3896230Y192798D01*
X3896230Y-319702D01*
X3905501Y-413837D01*
X3932960Y-504354D01*
X3977549Y-587776D01*
X4037557Y-660895D01*
X4110676Y-720903D01*
X4194098Y-765492D01*
X4284615Y-792951D01*
X4378750Y-802222D01*
X4816250Y-802222D01*
X4910385Y-792951D01*
X5000902Y-765492D01*
X5084324Y-720903D01*
X5157443Y-660895D01*
X5217451Y-587776D01*
X5243814Y-538452D01*
X6131230Y-538452D01*
X6136298Y-589911D01*
X6151308Y-639392D01*
X6175683Y-684995D01*
X6208486Y-724966D01*
X6248457Y-757769D01*
X6294060Y-782144D01*
X6343541Y-797154D01*
X6395000Y-802222D01*
X6679375Y-800952D01*
X6745000Y-735327D01*
X6745000Y-150952D01*
X6920000Y-150952D01*
X6920000Y-735327D01*
X6985625Y-800952D01*
X7270000Y-802222D01*
X7321459Y-797154D01*
X7370940Y-782144D01*
X7416543Y-757769D01*
X7456514Y-724966D01*
X7489317Y-684995D01*
X7513692Y-639392D01*
X7528702Y-589911D01*
X7533770Y-538452D01*
X7532500Y-216577D01*
X7466875Y-150952D01*
X6920000Y-150952D01*
X6745000Y-150952D01*
X6198125Y-150952D01*
X6132500Y-216577D01*
X6131230Y-538452D01*
X5243814Y-538452D01*
X5262040Y-504354D01*
X5289499Y-413837D01*
X5298770Y-319702D01*
X5298770Y192798D01*
X5289499Y286933D01*
X5262040Y377450D01*
X5243815Y411548D01*
X6131230Y411548D01*
X6132500Y89673D01*
X6198125Y24048D01*
X6745000Y24048D01*
X6745000Y608423D01*
X6920000Y608423D01*
X6920000Y24048D01*
X7466875Y24048D01*
X7532500Y89673D01*
X7532906Y192798D01*
X7706230Y192798D01*
X7706230Y-319702D01*
X7715501Y-413837D01*
X7742960Y-504354D01*
X7787549Y-587776D01*
X7847557Y-660895D01*
X7920676Y-720903D01*
X8004098Y-765492D01*
X8094615Y-792951D01*
X8188750Y-802222D01*
X8626250Y-802222D01*
X8720385Y-792951D01*
X8810902Y-765492D01*
X8894324Y-720903D01*
X8967443Y-660895D01*
X9027451Y-587776D01*
X9072040Y-504354D01*
X9088240Y-450952D01*
X9961760Y-450952D01*
X9977960Y-504354D01*
X10022549Y-587776D01*
X10082557Y-660895D01*
X10155676Y-720903D01*
X10239098Y-765492D01*
X10329615Y-792951D01*
X10423750Y-802222D01*
X10861250Y-802222D01*
X10955385Y-792951D01*
X11045902Y-765492D01*
X11129324Y-720903D01*
X11202443Y-660895D01*
X11262451Y-587776D01*
X11307040Y-504354D01*
X11334499Y-413837D01*
X11343770Y-319702D01*
X11343770Y192798D01*
X11334499Y286933D01*
X11307040Y377450D01*
X11262451Y460872D01*
X11202443Y533991D01*
X11129324Y593999D01*
X11045902Y638588D01*
X10955385Y666047D01*
X10861250Y675318D01*
X10423750Y675318D01*
X10329615Y666047D01*
X10239098Y638588D01*
X10155676Y593999D01*
X10082557Y533991D01*
X10022549Y460872D01*
X9977960Y377450D01*
X9961760Y324048D01*
X9088240Y324048D01*
X9072040Y377450D01*
X9027451Y460872D01*
X8967443Y533991D01*
X8894324Y593999D01*
X8810902Y638588D01*
X8720385Y666047D01*
X8626250Y675318D01*
X8188750Y675318D01*
X8094615Y666047D01*
X8004098Y638588D01*
X7920676Y593999D01*
X7847557Y533991D01*
X7787549Y460872D01*
X7742960Y377450D01*
X7715501Y286933D01*
X7706230Y192798D01*
X7532906Y192798D01*
X7533770Y411548D01*
X7528702Y463007D01*
X7513692Y512488D01*
X7489317Y558091D01*
X7456514Y598062D01*
X7416543Y630865D01*
X7370940Y655240D01*
X7321459Y670250D01*
X7270000Y675318D01*
X6985625Y674048D01*
X6920000Y608423D01*
X6745000Y608423D01*
X6679375Y674048D01*
X6395000Y675318D01*
X6343541Y670250D01*
X6294060Y655240D01*
X6248457Y630865D01*
X6208486Y598062D01*
X6175683Y558091D01*
X6151308Y512488D01*
X6136298Y463007D01*
X6131230Y411548D01*
X5243815Y411548D01*
X5217451Y460872D01*
X5157443Y533991D01*
X5104756Y577231D01*
X5423096Y895570D01*
X5423100Y895575D01*
X6005897Y1478371D01*
X6025496Y1470253D01*
X6240428Y1427500D01*
X6459572Y1427500D01*
X6674504Y1470253D01*
X6876966Y1554115D01*
X7059177Y1675865D01*
X7214135Y1830823D01*
X7335885Y2013034D01*
X7419747Y2215496D01*
X7462500Y2430428D01*
X7462500Y2649572D01*
X7777500Y2649572D01*
X7777500Y2430428D01*
X7820253Y2215496D01*
X7904115Y2013034D01*
X8025865Y1830823D01*
X8180823Y1675865D01*
X8363034Y1554115D01*
X8565496Y1470253D01*
X8780428Y1427500D01*
X8999572Y1427500D01*
X9214504Y1470253D01*
X9416966Y1554115D01*
X9599177Y1675865D01*
X9754135Y1830823D01*
X9875885Y2013034D01*
X9959747Y2215496D01*
X10002500Y2430428D01*
X10002500Y2649572D01*
X10317500Y2649572D01*
X10317500Y2430428D01*
X10360253Y2215496D01*
X10444115Y2013034D01*
X10565865Y1830823D01*
X10720823Y1675865D01*
X10903034Y1554115D01*
X11105496Y1470253D01*
X11320428Y1427500D01*
X11539572Y1427500D01*
X11754504Y1470253D01*
X11956966Y1554115D01*
X12139177Y1675865D01*
X12294135Y1830823D01*
X12415885Y2013034D01*
X12499747Y2215496D01*
X12542500Y2430428D01*
X12542500Y2649572D01*
X12499747Y2864504D01*
X12415885Y3066966D01*
X12294135Y3249177D01*
X12139177Y3404135D01*
X11956966Y3525885D01*
X11892500Y3552588D01*
X11892500Y4274504D01*
X11954324Y4307549D01*
X12027443Y4367557D01*
X12087451Y4440676D01*
X12132040Y4524098D01*
X12159499Y4614615D01*
X12168770Y4708750D01*
X12168770Y5146250D01*
X12159499Y5240385D01*
X12132040Y5330902D01*
X12087451Y5414324D01*
X12027443Y5487443D01*
X11954324Y5547451D01*
X11870902Y5592040D01*
X11780385Y5619499D01*
X11686250Y5628770D01*
X11173750Y5628770D01*
X11079615Y5619499D01*
X10989098Y5592040D01*
X10905676Y5547451D01*
X10832557Y5487443D01*
X10772549Y5414324D01*
X10727960Y5330902D01*
X10700501Y5240385D01*
X10691230Y5146250D01*
X10691230Y4708750D01*
X10700501Y4614615D01*
X10727960Y4524098D01*
X10772549Y4440676D01*
X10832557Y4367557D01*
X10905676Y4307549D01*
X10967500Y4274504D01*
X10967501Y3552588D01*
X10903034Y3525885D01*
X10720823Y3404135D01*
X10565865Y3249177D01*
X10444115Y3066966D01*
X10360253Y2864504D01*
X10317500Y2649572D01*
X10002500Y2649572D01*
X9959747Y2864504D01*
X9875885Y3066966D01*
X9754135Y3249177D01*
X9599177Y3404135D01*
X9416966Y3525885D01*
X9352500Y3552588D01*
X9352500Y4274504D01*
X9414324Y4307549D01*
X9487443Y4367557D01*
X9547451Y4440676D01*
X9592040Y4524098D01*
X9619499Y4614615D01*
X9628770Y4708750D01*
X9628770Y5146250D01*
X9619499Y5240385D01*
X9592040Y5330902D01*
X9547451Y5414324D01*
X9487443Y5487443D01*
X9414324Y5547451D01*
X9330902Y5592040D01*
X9240385Y5619499D01*
X9146250Y5628770D01*
X8633750Y5628770D01*
X8539615Y5619499D01*
X8449098Y5592040D01*
X8365676Y5547451D01*
X8292557Y5487443D01*
X8232549Y5414324D01*
X8187960Y5330902D01*
X8160501Y5240385D01*
X8151230Y5146250D01*
X8151230Y4708750D01*
X8160501Y4614615D01*
X8187960Y4524098D01*
X8232549Y4440676D01*
X8292557Y4367557D01*
X8365676Y4307549D01*
X8427500Y4274504D01*
X8427501Y3552588D01*
X8363034Y3525885D01*
X8180823Y3404135D01*
X8025865Y3249177D01*
X7904115Y3066966D01*
X7820253Y2864504D01*
X7777500Y2649572D01*
X7462500Y2649572D01*
X7419747Y2864504D01*
X7335885Y3066966D01*
X7214135Y3249177D01*
X7059177Y3404135D01*
X6876966Y3525885D01*
X6812500Y3552588D01*
X6812500Y4274504D01*
X6874324Y4307549D01*
X6947443Y4367557D01*
X6975339Y4401548D01*
X7190788Y4401548D01*
X7213500Y4399311D01*
X7236212Y4401548D01*
X7304166Y4408241D01*
X7391347Y4434687D01*
X7471694Y4477633D01*
X7542119Y4535429D01*
X7556603Y4553078D01*
X7930971Y4927446D01*
X7948619Y4941929D01*
X8006415Y5012354D01*
X8034401Y5064714D01*
X8049361Y5092700D01*
X8075807Y5179882D01*
X8084737Y5270548D01*
X8082500Y5293260D01*
X8082500Y5840975D01*
X8218073Y5976548D01*
X8264661Y5976548D01*
X8292557Y5942557D01*
X8365676Y5882549D01*
X8449098Y5837960D01*
X8539615Y5810501D01*
X8633750Y5801230D01*
X9146250Y5801230D01*
X9240385Y5810501D01*
X9330902Y5837960D01*
X9414324Y5882549D01*
X9487443Y5942557D01*
X9515339Y5976548D01*
X10302239Y5976548D01*
X10324951Y5974311D01*
X10347663Y5976548D01*
X10804661Y5976548D01*
X10832557Y5942557D01*
X10905676Y5882549D01*
X10989098Y5837960D01*
X11079615Y5810501D01*
X11173750Y5801230D01*
X11686250Y5801230D01*
X11780385Y5810501D01*
X11870902Y5837960D01*
X11954324Y5882549D01*
X12027443Y5942557D01*
X12087451Y6015676D01*
X12132040Y6099098D01*
X12159499Y6189615D01*
X12168770Y6283750D01*
X12168770Y6721250D01*
X12159499Y6815385D01*
X12132040Y6905902D01*
X12087451Y6989324D01*
X12027443Y7062443D01*
X11954324Y7122451D01*
X11870902Y7167040D01*
X11780385Y7194499D01*
X11686250Y7203770D01*
X11173750Y7203770D01*
X11079615Y7194499D01*
X10989098Y7167040D01*
X10905676Y7122451D01*
X10832557Y7062443D01*
X10772549Y6989324D01*
X10749500Y6946201D01*
X10749500Y7299706D01*
X10785481Y7353556D01*
X10827884Y7455925D01*
X10849500Y7564599D01*
X10849500Y7675401D01*
X10827884Y7784075D01*
X10785481Y7886444D01*
X10749500Y7940294D01*
X10749500Y10581837D01*
X10751737Y10604549D01*
X10742807Y10695215D01*
X10716361Y10782394D01*
X10716361Y10782395D01*
X10673415Y10862742D01*
X10615619Y10933167D01*
X10597976Y10947646D01*
X9924869Y11620753D01*
X9972825Y11736529D01*
X10016100Y11954089D01*
X10016100Y12175911D01*
X9972825Y12393471D01*
X9887937Y12598409D01*
X9764699Y12782847D01*
X9607847Y12939699D01*
X9423409Y13062937D01*
X9218471Y13147825D01*
X9000911Y13191100D01*
X8779089Y13191100D01*
X8561529Y13147825D01*
X8445752Y13099869D01*
X7899651Y13645970D01*
X7885167Y13663619D01*
X7814742Y13721415D01*
X7734395Y13764361D01*
X7647214Y13790807D01*
X7579260Y13797500D01*
X7556548Y13799737D01*
X7533836Y13797500D01*
X7135046Y13797500D01*
X7224699Y13887153D01*
X7347937Y14071591D01*
X7432825Y14276529D01*
X7476100Y14494089D01*
X7476100Y14715911D01*
X7432825Y14933471D01*
X7390972Y15034513D01*
X7843960Y15487500D01*
X8183828Y15487500D01*
X8172153Y15479699D01*
G37*
%TD.AperFunction*%
D21*
X1136500Y8284451D02*
X1116054Y8322704D01*
X945874Y8442130D01*
X123744Y7620000D01*
X137886Y7605858D01*
X14142Y7482114D01*
X0Y7496256D01*
X-822130Y6674126D01*
X-702704Y6503946D01*
X-471471Y6388301D01*
X-336494Y6351323D01*
X-537562Y6284323D01*
X-702704Y6196054D01*
X-822130Y6025874D01*
X0Y5203744D01*
X14142Y5217886D01*
X137886Y5094142D01*
X123744Y5080000D01*
X945874Y4257870D01*
X1116054Y4377296D01*
X1231699Y4608529D01*
X1300012Y4857881D01*
X1318366Y5115769D01*
X1286055Y5372282D01*
X1204323Y5617562D01*
X1116054Y5782704D01*
X945875Y5902129D01*
X974688Y5930942D01*
X1027240Y5895828D01*
X1120509Y5857195D01*
X1219523Y5837500D01*
X1320477Y5837500D01*
X1419491Y5857195D01*
X1512760Y5895828D01*
X1586511Y5945107D01*
X1586511Y4611067D01*
X655790Y3680346D01*
X621702Y3703123D01*
X382842Y3802062D01*
X341387Y3810308D01*
X537562Y3875677D01*
X702704Y3963946D01*
X822130Y4134126D01*
X0Y4956256D01*
X-822130Y4134126D01*
X-702704Y3963946D01*
X-471471Y3848301D01*
X-336407Y3811298D01*
X-382842Y3802062D01*
X-621702Y3703123D01*
X-836670Y3559486D01*
X-1019486Y3376670D01*
X-1032500Y3357193D01*
X-1032500Y4318661D01*
X-945874Y4257870D01*
X-123744Y5080000D01*
X-945874Y5902130D01*
X-1032500Y5841339D01*
X-1032500Y6858661D01*
X-945874Y6797870D01*
X-123744Y7620000D01*
X-945874Y8442130D01*
X-1032500Y8381339D01*
X-1032500Y9342807D01*
X-1019486Y9323330D01*
X-836670Y9140514D01*
X-621702Y8996877D01*
X-382842Y8897938D01*
X-341387Y8889692D01*
X-537562Y8824323D01*
X-702704Y8736054D01*
X-822130Y8565874D01*
X0Y7743744D01*
X822130Y8565874D01*
X702704Y8736054D01*
X471471Y8851699D01*
X336407Y8888702D01*
X382842Y8897938D01*
X621702Y8996877D01*
X836670Y9140514D01*
X1019486Y9323330D01*
X1136500Y9498454D01*
X1136500Y8284451D01*
%TA.AperFunction,Conductor*%
D22*
G36*
X1136500Y8284451D02*
G01*
X1116054Y8322704D01*
X945874Y8442130D01*
X123744Y7620000D01*
X137886Y7605858D01*
X14142Y7482114D01*
X0Y7496256D01*
X-822130Y6674126D01*
X-702704Y6503946D01*
X-471471Y6388301D01*
X-336494Y6351323D01*
X-537562Y6284323D01*
X-702704Y6196054D01*
X-822130Y6025874D01*
X0Y5203744D01*
X14142Y5217886D01*
X137886Y5094142D01*
X123744Y5080000D01*
X945874Y4257870D01*
X1116054Y4377296D01*
X1231699Y4608529D01*
X1300012Y4857881D01*
X1318366Y5115769D01*
X1286055Y5372282D01*
X1204323Y5617562D01*
X1116054Y5782704D01*
X945875Y5902129D01*
X974688Y5930942D01*
X1027240Y5895828D01*
X1120509Y5857195D01*
X1219523Y5837500D01*
X1320477Y5837500D01*
X1419491Y5857195D01*
X1512760Y5895828D01*
X1586511Y5945107D01*
X1586511Y4611067D01*
X655790Y3680346D01*
X621702Y3703123D01*
X382842Y3802062D01*
X341387Y3810308D01*
X537562Y3875677D01*
X702704Y3963946D01*
X822130Y4134126D01*
X0Y4956256D01*
X-822130Y4134126D01*
X-702704Y3963946D01*
X-471471Y3848301D01*
X-336407Y3811298D01*
X-382842Y3802062D01*
X-621702Y3703123D01*
X-836670Y3559486D01*
X-1019486Y3376670D01*
X-1032500Y3357193D01*
X-1032500Y4318661D01*
X-945874Y4257870D01*
X-123744Y5080000D01*
X-945874Y5902130D01*
X-1032500Y5841339D01*
X-1032500Y6858661D01*
X-945874Y6797870D01*
X-123744Y7620000D01*
X-945874Y8442130D01*
X-1032500Y8381339D01*
X-1032500Y9342807D01*
X-1019486Y9323330D01*
X-836670Y9140514D01*
X-621702Y8996877D01*
X-382842Y8897938D01*
X-341387Y8889692D01*
X-537562Y8824323D01*
X-702704Y8736054D01*
X-822130Y8565874D01*
X0Y7743744D01*
X822130Y8565874D01*
X702704Y8736054D01*
X471471Y8851699D01*
X336407Y8888702D01*
X382842Y8897938D01*
X621702Y8996877D01*
X836670Y9140514D01*
X1019486Y9323330D01*
X1136500Y9498454D01*
X1136500Y8284451D01*
G37*
%TD.AperFunction*%
D21*
X5475301Y12782847D02*
X5352063Y12598409D01*
X5322692Y12527500D01*
X5250496Y12527500D01*
X5217451Y12589324D01*
X5157443Y12662443D01*
X5084324Y12722451D01*
X5000902Y12767040D01*
X4910385Y12794499D01*
X4816250Y12803770D01*
X4378750Y12803770D01*
X4284615Y12794499D01*
X4194098Y12767040D01*
X4110676Y12722451D01*
X4037557Y12662443D01*
X3977549Y12589324D01*
X3932960Y12505902D01*
X3905501Y12415385D01*
X3896230Y12321250D01*
X3896230Y11808750D01*
X3905501Y11714615D01*
X3932960Y11624098D01*
X3977549Y11540676D01*
X4037557Y11467557D01*
X4110676Y11407549D01*
X4194098Y11362960D01*
X4284615Y11335501D01*
X4378750Y11326230D01*
X4816250Y11326230D01*
X4910385Y11335501D01*
X5000902Y11362960D01*
X5084324Y11407549D01*
X5157443Y11467557D01*
X5217451Y11540676D01*
X5250496Y11602500D01*
X5322692Y11602500D01*
X5352063Y11531591D01*
X5475301Y11347153D01*
X5632153Y11190301D01*
X5816591Y11067063D01*
X6021529Y10982175D01*
X6239089Y10938900D01*
X6460911Y10938900D01*
X6678471Y10982175D01*
X6883409Y11067063D01*
X7067847Y11190301D01*
X7224699Y11347153D01*
X7347937Y11531591D01*
X7432825Y11736529D01*
X7476100Y11954089D01*
X7476100Y12175911D01*
X7432825Y12393471D01*
X7347937Y12598409D01*
X7224699Y12782847D01*
X7135046Y12872500D01*
X7364975Y12872500D01*
X7817962Y12419513D01*
X7807175Y12393471D01*
X7763900Y12175911D01*
X7763900Y11954089D01*
X7807175Y11736529D01*
X7892063Y11531591D01*
X8015301Y11347153D01*
X8172153Y11190301D01*
X8356591Y11067063D01*
X8561529Y10982175D01*
X8779089Y10938900D01*
X9000911Y10938900D01*
X9218471Y10982175D01*
X9244513Y10992962D01*
X9824500Y10412974D01*
X9824500Y10147375D01*
X9716344Y10290028D01*
X9551216Y10436540D01*
X9360678Y10548022D01*
X9152052Y10620190D01*
X8977500Y10582075D01*
X8977500Y9612500D01*
X8997500Y9612500D01*
X8997500Y9437500D01*
X8977500Y9437500D01*
X8977500Y8467925D01*
X9152052Y8429810D01*
X9360678Y8501978D01*
X9551216Y8613460D01*
X9716344Y8759972D01*
X9824501Y8902626D01*
X9824501Y8066985D01*
X9824500Y8066975D01*
X9824500Y7940294D01*
X9788519Y7886444D01*
X9746116Y7784075D01*
X9724500Y7675401D01*
X9724500Y7564599D01*
X9746116Y7455925D01*
X9788519Y7353556D01*
X9824500Y7299706D01*
X9824500Y7173025D01*
X9824501Y7173015D01*
X9824501Y6901548D01*
X9593361Y6901548D01*
X9592040Y6905902D01*
X9547451Y6989324D01*
X9487443Y7062443D01*
X9414324Y7122451D01*
X9330902Y7167040D01*
X9240385Y7194499D01*
X9183983Y7200054D01*
X9216700Y7221915D01*
X9288085Y7293300D01*
X9344172Y7377240D01*
X9382805Y7470509D01*
X9402500Y7569523D01*
X9402500Y7670477D01*
X9382805Y7769491D01*
X9344172Y7862760D01*
X9288085Y7946700D01*
X9216700Y8018085D01*
X9132760Y8074172D01*
X9039491Y8112805D01*
X8940477Y8132500D01*
X8839523Y8132500D01*
X8740509Y8112805D01*
X8647240Y8074172D01*
X8563300Y8018085D01*
X8552715Y8007500D01*
X7549970Y8007500D01*
X7530951Y8009373D01*
X7511932Y8007500D01*
X7511926Y8007500D01*
X7464634Y8002842D01*
X7454988Y8001892D01*
X7432831Y7995171D01*
X7381945Y7979735D01*
X7314627Y7943753D01*
X7255623Y7895329D01*
X7243495Y7880551D01*
X6566715Y7203770D01*
X6093750Y7203770D01*
X5999615Y7194499D01*
X5909098Y7167040D01*
X5825676Y7122451D01*
X5752557Y7062443D01*
X5692549Y6989324D01*
X5647960Y6905902D01*
X5643136Y6890000D01*
X5542771Y6890000D01*
X5572805Y6962509D01*
X5592500Y7061523D01*
X5592500Y7162477D01*
X5572805Y7261491D01*
X5534172Y7354760D01*
X5478085Y7438700D01*
X5406700Y7510085D01*
X5322760Y7566172D01*
X5229491Y7604805D01*
X5130477Y7624500D01*
X5115507Y7624500D01*
X4986462Y7753545D01*
X4974329Y7768329D01*
X4915325Y7816753D01*
X4848007Y7852735D01*
X4774963Y7874892D01*
X4774953Y7874893D01*
X4699000Y7882374D01*
X4679974Y7880500D01*
X3289255Y7880500D01*
X3270226Y7882374D01*
X3194263Y7874893D01*
X3121219Y7852735D01*
X3053901Y7816753D01*
X2994897Y7768329D01*
X2982768Y7753550D01*
X2361511Y7132292D01*
X2361511Y9077454D01*
X2402549Y9000676D01*
X2462557Y8927557D01*
X2535676Y8867549D01*
X2619098Y8822960D01*
X2709615Y8795501D01*
X2803750Y8786230D01*
X3241250Y8786230D01*
X3335385Y8795501D01*
X3425902Y8822960D01*
X3509324Y8867549D01*
X3582443Y8927557D01*
X3642451Y9000676D01*
X3687040Y9084098D01*
X3714499Y9174615D01*
X3723770Y9268750D01*
X3723770Y9781250D01*
X3896230Y9781250D01*
X3896230Y9268750D01*
X3905501Y9174615D01*
X3932960Y9084098D01*
X3977549Y9000676D01*
X4037557Y8927557D01*
X4110676Y8867549D01*
X4194098Y8822960D01*
X4284615Y8795501D01*
X4378750Y8786230D01*
X4816250Y8786230D01*
X4910385Y8795501D01*
X5000902Y8822960D01*
X5084324Y8867549D01*
X5157443Y8927557D01*
X5217451Y9000676D01*
X5222630Y9010365D01*
X5222630Y8661400D01*
X5227698Y8609941D01*
X5242708Y8560460D01*
X5267083Y8514857D01*
X5299886Y8474886D01*
X5339857Y8442083D01*
X5385460Y8417708D01*
X5434941Y8402698D01*
X5486400Y8397630D01*
X7213600Y8397630D01*
X7265059Y8402698D01*
X7314540Y8417708D01*
X7360143Y8442083D01*
X7400114Y8474886D01*
X7432917Y8514857D01*
X7457292Y8560460D01*
X7472302Y8609941D01*
X7477370Y8661400D01*
X7477370Y9262949D01*
X7794815Y9262949D01*
X7833794Y9134435D01*
X7930284Y8935884D01*
X8063656Y8759972D01*
X8228784Y8613460D01*
X8419322Y8501978D01*
X8627948Y8429810D01*
X8802500Y8467925D01*
X8802500Y9437500D01*
X7833141Y9437500D01*
X7794815Y9262949D01*
X7477370Y9262949D01*
X7477370Y9787051D01*
X7794815Y9787051D01*
X7833141Y9612500D01*
X8802500Y9612500D01*
X8802500Y10582075D01*
X8627948Y10620190D01*
X8419322Y10548022D01*
X8228784Y10436540D01*
X8063656Y10290028D01*
X7930284Y10114116D01*
X7833794Y9915565D01*
X7794815Y9787051D01*
X7477370Y9787051D01*
X7477370Y10388600D01*
X7472302Y10440059D01*
X7457292Y10489540D01*
X7432917Y10535143D01*
X7400114Y10575114D01*
X7360143Y10607917D01*
X7314540Y10632292D01*
X7265059Y10647302D01*
X7213600Y10652370D01*
X5486400Y10652370D01*
X5434941Y10647302D01*
X5385460Y10632292D01*
X5339857Y10607917D01*
X5299886Y10575114D01*
X5267083Y10535143D01*
X5242708Y10489540D01*
X5227698Y10440059D01*
X5222630Y10388600D01*
X5222630Y10039635D01*
X5217451Y10049324D01*
X5157443Y10122443D01*
X5084324Y10182451D01*
X5000902Y10227040D01*
X4910385Y10254499D01*
X4816250Y10263770D01*
X4378750Y10263770D01*
X4284615Y10254499D01*
X4194098Y10227040D01*
X4110676Y10182451D01*
X4037557Y10122443D01*
X3977549Y10049324D01*
X3932960Y9965902D01*
X3905501Y9875385D01*
X3896230Y9781250D01*
X3723770Y9781250D01*
X3714499Y9875385D01*
X3687040Y9965902D01*
X3642451Y10049324D01*
X3582443Y10122443D01*
X3509324Y10182451D01*
X3485000Y10195452D01*
X3485000Y11394548D01*
X3509324Y11407549D01*
X3582443Y11467557D01*
X3642451Y11540676D01*
X3687040Y11624098D01*
X3714499Y11714615D01*
X3723770Y11808750D01*
X3723770Y12321250D01*
X3714499Y12415385D01*
X3687040Y12505902D01*
X3668905Y12539831D01*
X4001574Y12872500D01*
X5564954Y12872500D01*
X5475301Y12782847D01*
%TA.AperFunction,Conductor*%
D22*
G36*
X5475301Y12782847D02*
G01*
X5352063Y12598409D01*
X5322692Y12527500D01*
X5250496Y12527500D01*
X5217451Y12589324D01*
X5157443Y12662443D01*
X5084324Y12722451D01*
X5000902Y12767040D01*
X4910385Y12794499D01*
X4816250Y12803770D01*
X4378750Y12803770D01*
X4284615Y12794499D01*
X4194098Y12767040D01*
X4110676Y12722451D01*
X4037557Y12662443D01*
X3977549Y12589324D01*
X3932960Y12505902D01*
X3905501Y12415385D01*
X3896230Y12321250D01*
X3896230Y11808750D01*
X3905501Y11714615D01*
X3932960Y11624098D01*
X3977549Y11540676D01*
X4037557Y11467557D01*
X4110676Y11407549D01*
X4194098Y11362960D01*
X4284615Y11335501D01*
X4378750Y11326230D01*
X4816250Y11326230D01*
X4910385Y11335501D01*
X5000902Y11362960D01*
X5084324Y11407549D01*
X5157443Y11467557D01*
X5217451Y11540676D01*
X5250496Y11602500D01*
X5322692Y11602500D01*
X5352063Y11531591D01*
X5475301Y11347153D01*
X5632153Y11190301D01*
X5816591Y11067063D01*
X6021529Y10982175D01*
X6239089Y10938900D01*
X6460911Y10938900D01*
X6678471Y10982175D01*
X6883409Y11067063D01*
X7067847Y11190301D01*
X7224699Y11347153D01*
X7347937Y11531591D01*
X7432825Y11736529D01*
X7476100Y11954089D01*
X7476100Y12175911D01*
X7432825Y12393471D01*
X7347937Y12598409D01*
X7224699Y12782847D01*
X7135046Y12872500D01*
X7364975Y12872500D01*
X7817962Y12419513D01*
X7807175Y12393471D01*
X7763900Y12175911D01*
X7763900Y11954089D01*
X7807175Y11736529D01*
X7892063Y11531591D01*
X8015301Y11347153D01*
X8172153Y11190301D01*
X8356591Y11067063D01*
X8561529Y10982175D01*
X8779089Y10938900D01*
X9000911Y10938900D01*
X9218471Y10982175D01*
X9244513Y10992962D01*
X9824500Y10412974D01*
X9824500Y10147375D01*
X9716344Y10290028D01*
X9551216Y10436540D01*
X9360678Y10548022D01*
X9152052Y10620190D01*
X8977500Y10582075D01*
X8977500Y9612500D01*
X8997500Y9612500D01*
X8997500Y9437500D01*
X8977500Y9437500D01*
X8977500Y8467925D01*
X9152052Y8429810D01*
X9360678Y8501978D01*
X9551216Y8613460D01*
X9716344Y8759972D01*
X9824501Y8902626D01*
X9824501Y8066985D01*
X9824500Y8066975D01*
X9824500Y7940294D01*
X9788519Y7886444D01*
X9746116Y7784075D01*
X9724500Y7675401D01*
X9724500Y7564599D01*
X9746116Y7455925D01*
X9788519Y7353556D01*
X9824500Y7299706D01*
X9824500Y7173025D01*
X9824501Y7173015D01*
X9824501Y6901548D01*
X9593361Y6901548D01*
X9592040Y6905902D01*
X9547451Y6989324D01*
X9487443Y7062443D01*
X9414324Y7122451D01*
X9330902Y7167040D01*
X9240385Y7194499D01*
X9183983Y7200054D01*
X9216700Y7221915D01*
X9288085Y7293300D01*
X9344172Y7377240D01*
X9382805Y7470509D01*
X9402500Y7569523D01*
X9402500Y7670477D01*
X9382805Y7769491D01*
X9344172Y7862760D01*
X9288085Y7946700D01*
X9216700Y8018085D01*
X9132760Y8074172D01*
X9039491Y8112805D01*
X8940477Y8132500D01*
X8839523Y8132500D01*
X8740509Y8112805D01*
X8647240Y8074172D01*
X8563300Y8018085D01*
X8552715Y8007500D01*
X7549970Y8007500D01*
X7530951Y8009373D01*
X7511932Y8007500D01*
X7511926Y8007500D01*
X7464634Y8002842D01*
X7454988Y8001892D01*
X7432831Y7995171D01*
X7381945Y7979735D01*
X7314627Y7943753D01*
X7255623Y7895329D01*
X7243495Y7880551D01*
X6566715Y7203770D01*
X6093750Y7203770D01*
X5999615Y7194499D01*
X5909098Y7167040D01*
X5825676Y7122451D01*
X5752557Y7062443D01*
X5692549Y6989324D01*
X5647960Y6905902D01*
X5643136Y6890000D01*
X5542771Y6890000D01*
X5572805Y6962509D01*
X5592500Y7061523D01*
X5592500Y7162477D01*
X5572805Y7261491D01*
X5534172Y7354760D01*
X5478085Y7438700D01*
X5406700Y7510085D01*
X5322760Y7566172D01*
X5229491Y7604805D01*
X5130477Y7624500D01*
X5115507Y7624500D01*
X4986462Y7753545D01*
X4974329Y7768329D01*
X4915325Y7816753D01*
X4848007Y7852735D01*
X4774963Y7874892D01*
X4774953Y7874893D01*
X4699000Y7882374D01*
X4679974Y7880500D01*
X3289255Y7880500D01*
X3270226Y7882374D01*
X3194263Y7874893D01*
X3121219Y7852735D01*
X3053901Y7816753D01*
X2994897Y7768329D01*
X2982768Y7753550D01*
X2361511Y7132292D01*
X2361511Y9077454D01*
X2402549Y9000676D01*
X2462557Y8927557D01*
X2535676Y8867549D01*
X2619098Y8822960D01*
X2709615Y8795501D01*
X2803750Y8786230D01*
X3241250Y8786230D01*
X3335385Y8795501D01*
X3425902Y8822960D01*
X3509324Y8867549D01*
X3582443Y8927557D01*
X3642451Y9000676D01*
X3687040Y9084098D01*
X3714499Y9174615D01*
X3723770Y9268750D01*
X3723770Y9781250D01*
X3896230Y9781250D01*
X3896230Y9268750D01*
X3905501Y9174615D01*
X3932960Y9084098D01*
X3977549Y9000676D01*
X4037557Y8927557D01*
X4110676Y8867549D01*
X4194098Y8822960D01*
X4284615Y8795501D01*
X4378750Y8786230D01*
X4816250Y8786230D01*
X4910385Y8795501D01*
X5000902Y8822960D01*
X5084324Y8867549D01*
X5157443Y8927557D01*
X5217451Y9000676D01*
X5222630Y9010365D01*
X5222630Y8661400D01*
X5227698Y8609941D01*
X5242708Y8560460D01*
X5267083Y8514857D01*
X5299886Y8474886D01*
X5339857Y8442083D01*
X5385460Y8417708D01*
X5434941Y8402698D01*
X5486400Y8397630D01*
X7213600Y8397630D01*
X7265059Y8402698D01*
X7314540Y8417708D01*
X7360143Y8442083D01*
X7400114Y8474886D01*
X7432917Y8514857D01*
X7457292Y8560460D01*
X7472302Y8609941D01*
X7477370Y8661400D01*
X7477370Y9262949D01*
X7794815Y9262949D01*
X7833794Y9134435D01*
X7930284Y8935884D01*
X8063656Y8759972D01*
X8228784Y8613460D01*
X8419322Y8501978D01*
X8627948Y8429810D01*
X8802500Y8467925D01*
X8802500Y9437500D01*
X7833141Y9437500D01*
X7794815Y9262949D01*
X7477370Y9262949D01*
X7477370Y9787051D01*
X7794815Y9787051D01*
X7833141Y9612500D01*
X8802500Y9612500D01*
X8802500Y10582075D01*
X8627948Y10620190D01*
X8419322Y10548022D01*
X8228784Y10436540D01*
X8063656Y10290028D01*
X7930284Y10114116D01*
X7833794Y9915565D01*
X7794815Y9787051D01*
X7477370Y9787051D01*
X7477370Y10388600D01*
X7472302Y10440059D01*
X7457292Y10489540D01*
X7432917Y10535143D01*
X7400114Y10575114D01*
X7360143Y10607917D01*
X7314540Y10632292D01*
X7265059Y10647302D01*
X7213600Y10652370D01*
X5486400Y10652370D01*
X5434941Y10647302D01*
X5385460Y10632292D01*
X5339857Y10607917D01*
X5299886Y10575114D01*
X5267083Y10535143D01*
X5242708Y10489540D01*
X5227698Y10440059D01*
X5222630Y10388600D01*
X5222630Y10039635D01*
X5217451Y10049324D01*
X5157443Y10122443D01*
X5084324Y10182451D01*
X5000902Y10227040D01*
X4910385Y10254499D01*
X4816250Y10263770D01*
X4378750Y10263770D01*
X4284615Y10254499D01*
X4194098Y10227040D01*
X4110676Y10182451D01*
X4037557Y10122443D01*
X3977549Y10049324D01*
X3932960Y9965902D01*
X3905501Y9875385D01*
X3896230Y9781250D01*
X3723770Y9781250D01*
X3714499Y9875385D01*
X3687040Y9965902D01*
X3642451Y10049324D01*
X3582443Y10122443D01*
X3509324Y10182451D01*
X3485000Y10195452D01*
X3485000Y11394548D01*
X3509324Y11407549D01*
X3582443Y11467557D01*
X3642451Y11540676D01*
X3687040Y11624098D01*
X3714499Y11714615D01*
X3723770Y11808750D01*
X3723770Y12321250D01*
X3714499Y12415385D01*
X3687040Y12505902D01*
X3668905Y12539831D01*
X4001574Y12872500D01*
X5564954Y12872500D01*
X5475301Y12782847D01*
G37*
%TD.AperFunction*%
D21*
X11142542Y17519450D02*
X11154671Y17504671D01*
X11213675Y17456247D01*
X11280873Y17420329D01*
X11280993Y17420265D01*
X11354037Y17398107D01*
X11430000Y17390626D01*
X11449029Y17392500D01*
X13979867Y17392500D01*
X14076877Y17158298D01*
X14220514Y16943330D01*
X14403330Y16760514D01*
X14618298Y16616877D01*
X14857158Y16517938D01*
X14897066Y16510000D01*
X14857158Y16502062D01*
X14618298Y16403123D01*
X14403330Y16259486D01*
X14220514Y16076670D01*
X14076877Y15861702D01*
X13977938Y15622842D01*
X13927500Y15369270D01*
X13927500Y15110730D01*
X13977938Y14857158D01*
X14076877Y14618298D01*
X14220514Y14403330D01*
X14403330Y14220514D01*
X14618298Y14076877D01*
X14857158Y13977938D01*
X14897066Y13970000D01*
X14857158Y13962062D01*
X14618298Y13863123D01*
X14403330Y13719486D01*
X14220514Y13536670D01*
X14076877Y13321702D01*
X14023989Y13194019D01*
X11082462Y16135545D01*
X11070329Y16150329D01*
X11011325Y16198753D01*
X10944007Y16234735D01*
X10870963Y16256892D01*
X10814026Y16262500D01*
X10795000Y16264374D01*
X10775974Y16262500D01*
X9596172Y16262500D01*
X9607847Y16270301D01*
X9764699Y16427153D01*
X9887937Y16611591D01*
X9972825Y16816529D01*
X10016100Y17034089D01*
X10016100Y17255911D01*
X9972825Y17473471D01*
X9887937Y17678409D01*
X9764699Y17862847D01*
X9607847Y18019699D01*
X9596172Y18027500D01*
X10634493Y18027500D01*
X11142542Y17519450D01*
%TA.AperFunction,Conductor*%
D22*
G36*
X11142542Y17519450D02*
G01*
X11154671Y17504671D01*
X11213675Y17456247D01*
X11280873Y17420329D01*
X11280993Y17420265D01*
X11354037Y17398107D01*
X11430000Y17390626D01*
X11449029Y17392500D01*
X13979867Y17392500D01*
X14076877Y17158298D01*
X14220514Y16943330D01*
X14403330Y16760514D01*
X14618298Y16616877D01*
X14857158Y16517938D01*
X14897066Y16510000D01*
X14857158Y16502062D01*
X14618298Y16403123D01*
X14403330Y16259486D01*
X14220514Y16076670D01*
X14076877Y15861702D01*
X13977938Y15622842D01*
X13927500Y15369270D01*
X13927500Y15110730D01*
X13977938Y14857158D01*
X14076877Y14618298D01*
X14220514Y14403330D01*
X14403330Y14220514D01*
X14618298Y14076877D01*
X14857158Y13977938D01*
X14897066Y13970000D01*
X14857158Y13962062D01*
X14618298Y13863123D01*
X14403330Y13719486D01*
X14220514Y13536670D01*
X14076877Y13321702D01*
X14023989Y13194019D01*
X11082462Y16135545D01*
X11070329Y16150329D01*
X11011325Y16198753D01*
X10944007Y16234735D01*
X10870963Y16256892D01*
X10814026Y16262500D01*
X10795000Y16264374D01*
X10775974Y16262500D01*
X9596172Y16262500D01*
X9607847Y16270301D01*
X9764699Y16427153D01*
X9887937Y16611591D01*
X9972825Y16816529D01*
X10016100Y17034089D01*
X10016100Y17255911D01*
X9972825Y17473471D01*
X9887937Y17678409D01*
X9764699Y17862847D01*
X9607847Y18019699D01*
X9596172Y18027500D01*
X10634493Y18027500D01*
X11142542Y17519450D01*
G37*
%TD.AperFunction*%
D21*
X1413900Y27458125D02*
X1479525Y27392500D01*
X2452500Y27392500D01*
X2452500Y27412500D01*
X2627500Y27412500D01*
X2627500Y27392500D01*
X3600475Y27392500D01*
X3666100Y27458125D01*
X3667322Y28972500D01*
X3952630Y28972500D01*
X3952630Y25577800D01*
X3957698Y25526341D01*
X3972708Y25476860D01*
X3997083Y25431257D01*
X4029886Y25391286D01*
X4069857Y25358483D01*
X4115460Y25334108D01*
X4164941Y25319098D01*
X4216400Y25314030D01*
X4691982Y25314030D01*
X4698108Y25251837D01*
X4717612Y25187541D01*
X4720266Y25178793D01*
X4756248Y25111475D01*
X4804672Y25052471D01*
X4819450Y25040342D01*
X5101342Y24758450D01*
X5113471Y24743671D01*
X5172475Y24695247D01*
X5239793Y24659265D01*
X5282330Y24646362D01*
X5312836Y24637108D01*
X5320609Y24636343D01*
X5369774Y24631500D01*
X5369780Y24631500D01*
X5388799Y24629627D01*
X5407818Y24631500D01*
X6697493Y24631500D01*
X7232512Y24096480D01*
X7232513Y22597588D01*
X7232512Y22597578D01*
X7232512Y22562285D01*
X7221927Y22551700D01*
X7165840Y22467760D01*
X7127207Y22374491D01*
X7107512Y22275477D01*
X7107512Y22174523D01*
X7127207Y22075509D01*
X7165840Y21982240D01*
X7221927Y21898300D01*
X7293312Y21826915D01*
X7377252Y21770828D01*
X7470521Y21732195D01*
X7569535Y21712500D01*
X7670489Y21712500D01*
X7769503Y21732195D01*
X7862772Y21770828D01*
X7946712Y21826915D01*
X8018097Y21898300D01*
X8074184Y21982240D01*
X8112817Y22075509D01*
X8132512Y22174523D01*
X8132512Y22275477D01*
X8112817Y22374491D01*
X8074184Y22467760D01*
X8018097Y22551700D01*
X8007512Y22562285D01*
X8007512Y24146981D01*
X10407501Y21746991D01*
X10407500Y20022285D01*
X10396915Y20011700D01*
X10340828Y19927760D01*
X10302195Y19834491D01*
X10282500Y19735477D01*
X10282500Y19634523D01*
X10302195Y19535509D01*
X10340828Y19442240D01*
X10396915Y19358300D01*
X10468300Y19286915D01*
X10552240Y19230828D01*
X10645509Y19192195D01*
X10744523Y19172500D01*
X10845477Y19172500D01*
X10944491Y19192195D01*
X11037760Y19230828D01*
X11121700Y19286915D01*
X11193085Y19358300D01*
X11249172Y19442240D01*
X11287805Y19535509D01*
X11307500Y19634523D01*
X11307500Y19735477D01*
X11287805Y19834491D01*
X11249172Y19927760D01*
X11193085Y20011700D01*
X11182500Y20022285D01*
X11182500Y21888482D01*
X11184373Y21907501D01*
X11182500Y21926520D01*
X11182500Y21926526D01*
X11177586Y21976415D01*
X11176892Y21983464D01*
X11164799Y22023330D01*
X11154735Y22056507D01*
X11118753Y22123825D01*
X11070329Y22182829D01*
X11055550Y22194958D01*
X8007500Y25243007D01*
X8007500Y25314030D01*
X8483600Y25314030D01*
X8535059Y25319098D01*
X8584540Y25334108D01*
X8630143Y25358483D01*
X8670114Y25391286D01*
X8702917Y25431257D01*
X8727292Y25476860D01*
X8742302Y25526341D01*
X8747370Y25577800D01*
X8747370Y28972500D01*
X9032630Y28972500D01*
X9032630Y25577800D01*
X9037698Y25526341D01*
X9052708Y25476860D01*
X9077083Y25431257D01*
X9109886Y25391286D01*
X9149857Y25358483D01*
X9195460Y25334108D01*
X9244941Y25319098D01*
X9296400Y25314030D01*
X9781144Y25314030D01*
X9800265Y25250994D01*
X9836247Y25183676D01*
X9884671Y25124671D01*
X9899455Y25112538D01*
X10008868Y25003125D01*
X9917240Y24965172D01*
X9833300Y24909085D01*
X9761915Y24837700D01*
X9705828Y24753760D01*
X9667195Y24660491D01*
X9647500Y24561477D01*
X9647500Y24460523D01*
X9667195Y24361509D01*
X9705828Y24268240D01*
X9761915Y24184300D01*
X9833300Y24112915D01*
X9917240Y24056828D01*
X10010509Y24018195D01*
X10109523Y23998500D01*
X10124493Y23998500D01*
X11586994Y22535998D01*
X11599123Y22521219D01*
X11658127Y22472795D01*
X11725445Y22436813D01*
X11776331Y22421377D01*
X11798488Y22414656D01*
X11806261Y22413891D01*
X11855426Y22409048D01*
X11855432Y22409048D01*
X11874451Y22407175D01*
X11893470Y22409048D01*
X14006150Y22409048D01*
X14076877Y22238298D01*
X14220514Y22023330D01*
X14403330Y21840514D01*
X14618298Y21696877D01*
X14857158Y21597938D01*
X14897066Y21590000D01*
X14857158Y21582062D01*
X14618298Y21483123D01*
X14403330Y21339486D01*
X14220514Y21156670D01*
X14076877Y20941702D01*
X13977938Y20702842D01*
X13927500Y20449270D01*
X13927500Y20190730D01*
X13977938Y19937158D01*
X14076877Y19698298D01*
X14220514Y19483330D01*
X14403330Y19300514D01*
X14618298Y19156877D01*
X14857158Y19057938D01*
X14897066Y19050000D01*
X14857158Y19042062D01*
X14618298Y18943123D01*
X14403330Y18799486D01*
X14220514Y18616670D01*
X14076877Y18401702D01*
X13979867Y18167500D01*
X11590508Y18167500D01*
X11082462Y18675545D01*
X11070329Y18690329D01*
X11011325Y18738753D01*
X10944007Y18774735D01*
X10870963Y18796892D01*
X10814026Y18802500D01*
X10795000Y18804374D01*
X10775974Y18802500D01*
X9583946Y18802500D01*
X9716344Y18919972D01*
X9849716Y19095884D01*
X9946206Y19294435D01*
X9985185Y19422949D01*
X9946859Y19597500D01*
X8977500Y19597500D01*
X8977500Y19577500D01*
X8802500Y19577500D01*
X8802500Y19597500D01*
X7833141Y19597500D01*
X7794815Y19422949D01*
X7833794Y19294435D01*
X7930284Y19095884D01*
X8063656Y18919972D01*
X8196054Y18802500D01*
X7780508Y18802500D01*
X7372388Y19210620D01*
X7432825Y19356529D01*
X7476100Y19574089D01*
X7476100Y19795911D01*
X7446037Y19947051D01*
X7794815Y19947051D01*
X7833141Y19772500D01*
X8802500Y19772500D01*
X8802500Y20742075D01*
X8977500Y20742075D01*
X8977500Y19772500D01*
X9946859Y19772500D01*
X9985185Y19947051D01*
X9946206Y20075565D01*
X9849716Y20274116D01*
X9716344Y20450028D01*
X9551216Y20596540D01*
X9360678Y20708022D01*
X9152052Y20780190D01*
X8977500Y20742075D01*
X8802500Y20742075D01*
X8627948Y20780190D01*
X8419322Y20708022D01*
X8228784Y20596540D01*
X8063656Y20450028D01*
X7930284Y20274116D01*
X7833794Y20075565D01*
X7794815Y19947051D01*
X7446037Y19947051D01*
X7432825Y20013471D01*
X7347937Y20218409D01*
X7224699Y20402847D01*
X7067847Y20559699D01*
X6883409Y20682937D01*
X6678471Y20767825D01*
X6460911Y20811100D01*
X6239089Y20811100D01*
X6021529Y20767825D01*
X5816591Y20682937D01*
X5632153Y20559699D01*
X5475301Y20402847D01*
X5352063Y20218409D01*
X5322692Y20147500D01*
X5250496Y20147500D01*
X5217451Y20209324D01*
X5157443Y20282443D01*
X5084324Y20342451D01*
X5000902Y20387040D01*
X4910385Y20414499D01*
X4816250Y20423770D01*
X4378750Y20423770D01*
X4284615Y20414499D01*
X4194098Y20387040D01*
X4110676Y20342451D01*
X4037557Y20282443D01*
X3977549Y20209324D01*
X3932960Y20125902D01*
X3905501Y20035385D01*
X3896230Y19941250D01*
X3896230Y19428750D01*
X3905501Y19334615D01*
X3932960Y19244098D01*
X3977549Y19160676D01*
X4037557Y19087557D01*
X4110676Y19027549D01*
X4194098Y18982960D01*
X4284615Y18955501D01*
X4378750Y18946230D01*
X4816250Y18946230D01*
X4910385Y18955501D01*
X5000902Y18982960D01*
X5084324Y19027549D01*
X5157443Y19087557D01*
X5217451Y19160676D01*
X5250496Y19222500D01*
X5322692Y19222500D01*
X5352063Y19151591D01*
X5475301Y18967153D01*
X5632153Y18810301D01*
X5816591Y18687063D01*
X6021529Y18602175D01*
X6239089Y18558900D01*
X6460911Y18558900D01*
X6678471Y18602175D01*
X6824380Y18662612D01*
X7332542Y18154450D01*
X7344671Y18139671D01*
X7403675Y18091247D01*
X7470993Y18055265D01*
X7519500Y18040551D01*
X7544036Y18033108D01*
X7551809Y18032343D01*
X7600974Y18027500D01*
X7600980Y18027500D01*
X7619999Y18025627D01*
X7639018Y18027500D01*
X8183828Y18027500D01*
X8172153Y18019699D01*
X8015301Y17862847D01*
X7892063Y17678409D01*
X7807175Y17473471D01*
X7763900Y17255911D01*
X7763900Y17034089D01*
X7807175Y16816529D01*
X7892063Y16611591D01*
X8015301Y16427153D01*
X8172153Y16270301D01*
X8183828Y16262500D01*
X7702478Y16262500D01*
X7683452Y16264374D01*
X7664426Y16262500D01*
X7607489Y16256892D01*
X7534445Y16234735D01*
X7467127Y16198753D01*
X7408123Y16150329D01*
X7395994Y16135550D01*
X6869247Y15608803D01*
X6678471Y15687825D01*
X6460911Y15731100D01*
X6239089Y15731100D01*
X6021529Y15687825D01*
X5816591Y15602937D01*
X5632153Y15479699D01*
X5475301Y15322847D01*
X5352063Y15138409D01*
X5322692Y15067500D01*
X5250496Y15067500D01*
X5217451Y15129324D01*
X5157443Y15202443D01*
X5084324Y15262451D01*
X5000902Y15307040D01*
X4910385Y15334499D01*
X4816250Y15343770D01*
X4415343Y15343770D01*
X4908470Y15836897D01*
X4926119Y15851381D01*
X4983915Y15921806D01*
X5026861Y16002153D01*
X5053307Y16089334D01*
X5058993Y16147063D01*
X5062237Y16180000D01*
X5060000Y16202712D01*
X5060000Y16474548D01*
X5084324Y16487549D01*
X5157443Y16547557D01*
X5217451Y16620676D01*
X5250496Y16682500D01*
X5322692Y16682500D01*
X5352063Y16611591D01*
X5475301Y16427153D01*
X5632153Y16270301D01*
X5816591Y16147063D01*
X6021529Y16062175D01*
X6239089Y16018900D01*
X6460911Y16018900D01*
X6678471Y16062175D01*
X6883409Y16147063D01*
X7067847Y16270301D01*
X7224699Y16427153D01*
X7347937Y16611591D01*
X7432825Y16816529D01*
X7476100Y17034089D01*
X7476100Y17255911D01*
X7432825Y17473471D01*
X7347937Y17678409D01*
X7224699Y17862847D01*
X7067847Y18019699D01*
X6883409Y18142937D01*
X6678471Y18227825D01*
X6460911Y18271100D01*
X6239089Y18271100D01*
X6021529Y18227825D01*
X5816591Y18142937D01*
X5632153Y18019699D01*
X5475301Y17862847D01*
X5352063Y17678409D01*
X5322692Y17607500D01*
X5250496Y17607500D01*
X5217451Y17669324D01*
X5157443Y17742443D01*
X5084324Y17802451D01*
X5060000Y17815452D01*
X5060000Y17968538D01*
X5062237Y17991250D01*
X5053307Y18081916D01*
X5035787Y18139671D01*
X5026861Y18169097D01*
X4983915Y18249444D01*
X4926119Y18319869D01*
X4908475Y18334349D01*
X4516853Y18725970D01*
X4502369Y18743619D01*
X4431944Y18801415D01*
X4351597Y18844361D01*
X4264416Y18870807D01*
X4196462Y18877500D01*
X4173750Y18879737D01*
X4151038Y18877500D01*
X3620573Y18877500D01*
X3485000Y19013073D01*
X3485000Y19014548D01*
X3509324Y19027549D01*
X3582443Y19087557D01*
X3642451Y19160676D01*
X3687040Y19244098D01*
X3714499Y19334615D01*
X3723770Y19428750D01*
X3723770Y19941250D01*
X3714499Y20035385D01*
X3687040Y20125902D01*
X3642451Y20209324D01*
X3582443Y20282443D01*
X3509324Y20342451D01*
X3485000Y20355452D01*
X3485000Y22673659D01*
X3514480Y22744829D01*
X3536096Y22853503D01*
X3536096Y22964305D01*
X3514480Y23072979D01*
X3472077Y23175348D01*
X3410519Y23267477D01*
X3332169Y23345827D01*
X3240040Y23407385D01*
X3137671Y23449788D01*
X3028997Y23471404D01*
X2918195Y23471404D01*
X2809521Y23449788D01*
X2707152Y23407385D01*
X2615023Y23345827D01*
X2536673Y23267477D01*
X2475115Y23175348D01*
X2432712Y23072979D01*
X2411096Y22964305D01*
X2411096Y22853503D01*
X2432712Y22744829D01*
X2475115Y22642460D01*
X2536673Y22550331D01*
X2560001Y22527003D01*
X2560000Y21612712D01*
X2560000Y21612711D01*
X2560001Y21037720D01*
X2560000Y21037711D01*
X2560001Y20355453D01*
X2535676Y20342451D01*
X2462557Y20282443D01*
X2402549Y20209324D01*
X2357960Y20125902D01*
X2330501Y20035385D01*
X2321230Y19941250D01*
X2321230Y19428750D01*
X2330501Y19334615D01*
X2357960Y19244098D01*
X2402549Y19160676D01*
X2462557Y19087557D01*
X2535676Y19027549D01*
X2560000Y19014548D01*
X2560000Y18844212D01*
X2557763Y18821500D01*
X2560000Y18798789D01*
X2566693Y18730835D01*
X2593139Y18643654D01*
X2636085Y18563307D01*
X2693881Y18492881D01*
X2711530Y18478397D01*
X3085897Y18104030D01*
X3100381Y18086381D01*
X3170806Y18028585D01*
X3223166Y18000599D01*
X3251152Y17985639D01*
X3338334Y17959193D01*
X3429000Y17950263D01*
X3451712Y17952500D01*
X3982177Y17952500D01*
X4124719Y17809957D01*
X4110676Y17802451D01*
X4037557Y17742443D01*
X3977549Y17669324D01*
X3932960Y17585902D01*
X3905501Y17495385D01*
X3896230Y17401250D01*
X3896230Y16888750D01*
X3905501Y16794615D01*
X3932960Y16704098D01*
X3977549Y16620676D01*
X4037557Y16547557D01*
X4110676Y16487549D01*
X4135001Y16474547D01*
X4135001Y16371574D01*
X3107197Y15343770D01*
X2803750Y15343770D01*
X2709615Y15334499D01*
X2619098Y15307040D01*
X2535676Y15262451D01*
X2462557Y15202443D01*
X2402549Y15129324D01*
X2357960Y15045902D01*
X2330501Y14955385D01*
X2321230Y14861250D01*
X2321230Y14348750D01*
X2330501Y14254615D01*
X2357960Y14164098D01*
X2402549Y14080676D01*
X2462557Y14007557D01*
X2535676Y13947549D01*
X2613956Y13905708D01*
X2636086Y13864306D01*
X2661467Y13833379D01*
X2590477Y13847500D01*
X2489523Y13847500D01*
X2390509Y13827805D01*
X2297240Y13789172D01*
X2213300Y13733085D01*
X2141915Y13661700D01*
X2085828Y13577760D01*
X2047195Y13484491D01*
X2027500Y13385477D01*
X2027500Y13370508D01*
X1911500Y13254508D01*
X1911500Y16757500D01*
X2341760Y16757500D01*
X2357960Y16704098D01*
X2402549Y16620676D01*
X2462557Y16547557D01*
X2535676Y16487549D01*
X2619098Y16442960D01*
X2709615Y16415501D01*
X2803750Y16406230D01*
X3241250Y16406230D01*
X3335385Y16415501D01*
X3425902Y16442960D01*
X3509324Y16487549D01*
X3582443Y16547557D01*
X3642451Y16620676D01*
X3687040Y16704098D01*
X3714499Y16794615D01*
X3723770Y16888750D01*
X3723770Y17401250D01*
X3714499Y17495385D01*
X3687040Y17585902D01*
X3642451Y17669324D01*
X3582443Y17742443D01*
X3509324Y17802451D01*
X3425902Y17847040D01*
X3335385Y17874499D01*
X3241250Y17883770D01*
X2803750Y17883770D01*
X2709615Y17874499D01*
X2619098Y17847040D01*
X2535676Y17802451D01*
X2462557Y17742443D01*
X2402549Y17669324D01*
X2357960Y17585902D01*
X2341760Y17532500D01*
X1911500Y17532500D01*
X1911500Y18776982D01*
X1913373Y18796001D01*
X1911500Y18815020D01*
X1911500Y18815026D01*
X1905892Y18871963D01*
X1904213Y18877500D01*
X1883735Y18945006D01*
X1883735Y18945007D01*
X1847753Y19012325D01*
X1799329Y19071329D01*
X1784546Y19083461D01*
X1165052Y19702955D01*
X1262062Y19937158D01*
X1312500Y20190730D01*
X1312500Y20449270D01*
X1262062Y20702842D01*
X1163123Y20941702D01*
X1019486Y21156670D01*
X836670Y21339486D01*
X621702Y21483123D01*
X382842Y21582062D01*
X342934Y21590000D01*
X382842Y21597938D01*
X621702Y21696877D01*
X836670Y21840514D01*
X1019486Y22023330D01*
X1163123Y22238298D01*
X1262062Y22477158D01*
X1312500Y22730730D01*
X1312500Y22989270D01*
X1262062Y23242842D01*
X1163123Y23481702D01*
X1019486Y23696670D01*
X836670Y23879486D01*
X621702Y24023123D01*
X382842Y24122062D01*
X342934Y24130000D01*
X382842Y24137938D01*
X485540Y24180477D01*
X1392500Y24180477D01*
X1392500Y24079523D01*
X1412195Y23980509D01*
X1450828Y23887240D01*
X1506915Y23803300D01*
X1578300Y23731915D01*
X1662240Y23675828D01*
X1755509Y23637195D01*
X1854523Y23617500D01*
X1955477Y23617500D01*
X2054491Y23637195D01*
X2147760Y23675828D01*
X2231700Y23731915D01*
X2242285Y23742500D01*
X4284493Y23742500D01*
X5046542Y22980450D01*
X5058671Y22965671D01*
X5117675Y22917247D01*
X5145628Y22902306D01*
X5184992Y22881265D01*
X5258037Y22859108D01*
X5334000Y22851626D01*
X5353026Y22853500D01*
X6012715Y22853500D01*
X6023300Y22842915D01*
X6107240Y22786828D01*
X6200509Y22748195D01*
X6299523Y22728500D01*
X6400477Y22728500D01*
X6499491Y22748195D01*
X6592760Y22786828D01*
X6676700Y22842915D01*
X6748085Y22914300D01*
X6804172Y22998240D01*
X6842805Y23091509D01*
X6862500Y23190523D01*
X6862500Y23291477D01*
X6842805Y23390491D01*
X6804172Y23483760D01*
X6748085Y23567700D01*
X6676700Y23639085D01*
X6592760Y23695172D01*
X6499491Y23733805D01*
X6400477Y23753500D01*
X6299523Y23753500D01*
X6200509Y23733805D01*
X6107240Y23695172D01*
X6023300Y23639085D01*
X6012715Y23628500D01*
X5494508Y23628500D01*
X4732462Y24390545D01*
X4720329Y24405329D01*
X4661325Y24453753D01*
X4594007Y24489735D01*
X4520963Y24511892D01*
X4464026Y24517500D01*
X4445000Y24519374D01*
X4425974Y24517500D01*
X2242285Y24517500D01*
X2231700Y24528085D01*
X2147760Y24584172D01*
X2054491Y24622805D01*
X1955477Y24642500D01*
X1854523Y24642500D01*
X1755509Y24622805D01*
X1662240Y24584172D01*
X1578300Y24528085D01*
X1506915Y24456700D01*
X1450828Y24372760D01*
X1412195Y24279491D01*
X1392500Y24180477D01*
X485540Y24180477D01*
X621702Y24236877D01*
X836670Y24380514D01*
X1019486Y24563330D01*
X1163123Y24778298D01*
X1262062Y25017158D01*
X1312500Y25270730D01*
X1312500Y25529270D01*
X1302847Y25577800D01*
X1412630Y25577800D01*
X1417698Y25526341D01*
X1432708Y25476860D01*
X1457083Y25431257D01*
X1489886Y25391286D01*
X1529857Y25358483D01*
X1575460Y25334108D01*
X1624941Y25319098D01*
X1676400Y25314030D01*
X2386875Y25315300D01*
X2452500Y25380925D01*
X2452500Y27217500D01*
X2627500Y27217500D01*
X2627500Y25380925D01*
X2693125Y25315300D01*
X3403600Y25314030D01*
X3455059Y25319098D01*
X3504540Y25334108D01*
X3550143Y25358483D01*
X3590114Y25391286D01*
X3622917Y25431257D01*
X3647292Y25476860D01*
X3662302Y25526341D01*
X3667370Y25577800D01*
X3666100Y27151875D01*
X3600475Y27217500D01*
X2627500Y27217500D01*
X2452500Y27217500D01*
X1479525Y27217500D01*
X1413900Y27151875D01*
X1412630Y25577800D01*
X1302847Y25577800D01*
X1262062Y25782842D01*
X1163123Y26021702D01*
X1019486Y26236670D01*
X836670Y26419486D01*
X621702Y26563123D01*
X382842Y26662062D01*
X342934Y26670000D01*
X382842Y26677938D01*
X621702Y26776877D01*
X836670Y26920514D01*
X1019486Y27103330D01*
X1163123Y27318298D01*
X1262062Y27557158D01*
X1312500Y27810730D01*
X1312500Y28069270D01*
X1262062Y28322842D01*
X1163123Y28561702D01*
X1019486Y28776670D01*
X836670Y28959486D01*
X817193Y28972500D01*
X1412678Y28972500D01*
X1413900Y27458125D01*
%TA.AperFunction,Conductor*%
D22*
G36*
X1413900Y27458125D02*
G01*
X1479525Y27392500D01*
X2452500Y27392500D01*
X2452500Y27412500D01*
X2627500Y27412500D01*
X2627500Y27392500D01*
X3600475Y27392500D01*
X3666100Y27458125D01*
X3667322Y28972500D01*
X3952630Y28972500D01*
X3952630Y25577800D01*
X3957698Y25526341D01*
X3972708Y25476860D01*
X3997083Y25431257D01*
X4029886Y25391286D01*
X4069857Y25358483D01*
X4115460Y25334108D01*
X4164941Y25319098D01*
X4216400Y25314030D01*
X4691982Y25314030D01*
X4698108Y25251837D01*
X4717612Y25187541D01*
X4720266Y25178793D01*
X4756248Y25111475D01*
X4804672Y25052471D01*
X4819450Y25040342D01*
X5101342Y24758450D01*
X5113471Y24743671D01*
X5172475Y24695247D01*
X5239793Y24659265D01*
X5282330Y24646362D01*
X5312836Y24637108D01*
X5320609Y24636343D01*
X5369774Y24631500D01*
X5369780Y24631500D01*
X5388799Y24629627D01*
X5407818Y24631500D01*
X6697493Y24631500D01*
X7232512Y24096480D01*
X7232513Y22597588D01*
X7232512Y22597578D01*
X7232512Y22562285D01*
X7221927Y22551700D01*
X7165840Y22467760D01*
X7127207Y22374491D01*
X7107512Y22275477D01*
X7107512Y22174523D01*
X7127207Y22075509D01*
X7165840Y21982240D01*
X7221927Y21898300D01*
X7293312Y21826915D01*
X7377252Y21770828D01*
X7470521Y21732195D01*
X7569535Y21712500D01*
X7670489Y21712500D01*
X7769503Y21732195D01*
X7862772Y21770828D01*
X7946712Y21826915D01*
X8018097Y21898300D01*
X8074184Y21982240D01*
X8112817Y22075509D01*
X8132512Y22174523D01*
X8132512Y22275477D01*
X8112817Y22374491D01*
X8074184Y22467760D01*
X8018097Y22551700D01*
X8007512Y22562285D01*
X8007512Y24146981D01*
X10407501Y21746991D01*
X10407500Y20022285D01*
X10396915Y20011700D01*
X10340828Y19927760D01*
X10302195Y19834491D01*
X10282500Y19735477D01*
X10282500Y19634523D01*
X10302195Y19535509D01*
X10340828Y19442240D01*
X10396915Y19358300D01*
X10468300Y19286915D01*
X10552240Y19230828D01*
X10645509Y19192195D01*
X10744523Y19172500D01*
X10845477Y19172500D01*
X10944491Y19192195D01*
X11037760Y19230828D01*
X11121700Y19286915D01*
X11193085Y19358300D01*
X11249172Y19442240D01*
X11287805Y19535509D01*
X11307500Y19634523D01*
X11307500Y19735477D01*
X11287805Y19834491D01*
X11249172Y19927760D01*
X11193085Y20011700D01*
X11182500Y20022285D01*
X11182500Y21888482D01*
X11184373Y21907501D01*
X11182500Y21926520D01*
X11182500Y21926526D01*
X11177586Y21976415D01*
X11176892Y21983464D01*
X11164799Y22023330D01*
X11154735Y22056507D01*
X11118753Y22123825D01*
X11070329Y22182829D01*
X11055550Y22194958D01*
X8007500Y25243007D01*
X8007500Y25314030D01*
X8483600Y25314030D01*
X8535059Y25319098D01*
X8584540Y25334108D01*
X8630143Y25358483D01*
X8670114Y25391286D01*
X8702917Y25431257D01*
X8727292Y25476860D01*
X8742302Y25526341D01*
X8747370Y25577800D01*
X8747370Y28972500D01*
X9032630Y28972500D01*
X9032630Y25577800D01*
X9037698Y25526341D01*
X9052708Y25476860D01*
X9077083Y25431257D01*
X9109886Y25391286D01*
X9149857Y25358483D01*
X9195460Y25334108D01*
X9244941Y25319098D01*
X9296400Y25314030D01*
X9781144Y25314030D01*
X9800265Y25250994D01*
X9836247Y25183676D01*
X9884671Y25124671D01*
X9899455Y25112538D01*
X10008868Y25003125D01*
X9917240Y24965172D01*
X9833300Y24909085D01*
X9761915Y24837700D01*
X9705828Y24753760D01*
X9667195Y24660491D01*
X9647500Y24561477D01*
X9647500Y24460523D01*
X9667195Y24361509D01*
X9705828Y24268240D01*
X9761915Y24184300D01*
X9833300Y24112915D01*
X9917240Y24056828D01*
X10010509Y24018195D01*
X10109523Y23998500D01*
X10124493Y23998500D01*
X11586994Y22535998D01*
X11599123Y22521219D01*
X11658127Y22472795D01*
X11725445Y22436813D01*
X11776331Y22421377D01*
X11798488Y22414656D01*
X11806261Y22413891D01*
X11855426Y22409048D01*
X11855432Y22409048D01*
X11874451Y22407175D01*
X11893470Y22409048D01*
X14006150Y22409048D01*
X14076877Y22238298D01*
X14220514Y22023330D01*
X14403330Y21840514D01*
X14618298Y21696877D01*
X14857158Y21597938D01*
X14897066Y21590000D01*
X14857158Y21582062D01*
X14618298Y21483123D01*
X14403330Y21339486D01*
X14220514Y21156670D01*
X14076877Y20941702D01*
X13977938Y20702842D01*
X13927500Y20449270D01*
X13927500Y20190730D01*
X13977938Y19937158D01*
X14076877Y19698298D01*
X14220514Y19483330D01*
X14403330Y19300514D01*
X14618298Y19156877D01*
X14857158Y19057938D01*
X14897066Y19050000D01*
X14857158Y19042062D01*
X14618298Y18943123D01*
X14403330Y18799486D01*
X14220514Y18616670D01*
X14076877Y18401702D01*
X13979867Y18167500D01*
X11590508Y18167500D01*
X11082462Y18675545D01*
X11070329Y18690329D01*
X11011325Y18738753D01*
X10944007Y18774735D01*
X10870963Y18796892D01*
X10814026Y18802500D01*
X10795000Y18804374D01*
X10775974Y18802500D01*
X9583946Y18802500D01*
X9716344Y18919972D01*
X9849716Y19095884D01*
X9946206Y19294435D01*
X9985185Y19422949D01*
X9946859Y19597500D01*
X8977500Y19597500D01*
X8977500Y19577500D01*
X8802500Y19577500D01*
X8802500Y19597500D01*
X7833141Y19597500D01*
X7794815Y19422949D01*
X7833794Y19294435D01*
X7930284Y19095884D01*
X8063656Y18919972D01*
X8196054Y18802500D01*
X7780508Y18802500D01*
X7372388Y19210620D01*
X7432825Y19356529D01*
X7476100Y19574089D01*
X7476100Y19795911D01*
X7446037Y19947051D01*
X7794815Y19947051D01*
X7833141Y19772500D01*
X8802500Y19772500D01*
X8802500Y20742075D01*
X8977500Y20742075D01*
X8977500Y19772500D01*
X9946859Y19772500D01*
X9985185Y19947051D01*
X9946206Y20075565D01*
X9849716Y20274116D01*
X9716344Y20450028D01*
X9551216Y20596540D01*
X9360678Y20708022D01*
X9152052Y20780190D01*
X8977500Y20742075D01*
X8802500Y20742075D01*
X8627948Y20780190D01*
X8419322Y20708022D01*
X8228784Y20596540D01*
X8063656Y20450028D01*
X7930284Y20274116D01*
X7833794Y20075565D01*
X7794815Y19947051D01*
X7446037Y19947051D01*
X7432825Y20013471D01*
X7347937Y20218409D01*
X7224699Y20402847D01*
X7067847Y20559699D01*
X6883409Y20682937D01*
X6678471Y20767825D01*
X6460911Y20811100D01*
X6239089Y20811100D01*
X6021529Y20767825D01*
X5816591Y20682937D01*
X5632153Y20559699D01*
X5475301Y20402847D01*
X5352063Y20218409D01*
X5322692Y20147500D01*
X5250496Y20147500D01*
X5217451Y20209324D01*
X5157443Y20282443D01*
X5084324Y20342451D01*
X5000902Y20387040D01*
X4910385Y20414499D01*
X4816250Y20423770D01*
X4378750Y20423770D01*
X4284615Y20414499D01*
X4194098Y20387040D01*
X4110676Y20342451D01*
X4037557Y20282443D01*
X3977549Y20209324D01*
X3932960Y20125902D01*
X3905501Y20035385D01*
X3896230Y19941250D01*
X3896230Y19428750D01*
X3905501Y19334615D01*
X3932960Y19244098D01*
X3977549Y19160676D01*
X4037557Y19087557D01*
X4110676Y19027549D01*
X4194098Y18982960D01*
X4284615Y18955501D01*
X4378750Y18946230D01*
X4816250Y18946230D01*
X4910385Y18955501D01*
X5000902Y18982960D01*
X5084324Y19027549D01*
X5157443Y19087557D01*
X5217451Y19160676D01*
X5250496Y19222500D01*
X5322692Y19222500D01*
X5352063Y19151591D01*
X5475301Y18967153D01*
X5632153Y18810301D01*
X5816591Y18687063D01*
X6021529Y18602175D01*
X6239089Y18558900D01*
X6460911Y18558900D01*
X6678471Y18602175D01*
X6824380Y18662612D01*
X7332542Y18154450D01*
X7344671Y18139671D01*
X7403675Y18091247D01*
X7470993Y18055265D01*
X7519500Y18040551D01*
X7544036Y18033108D01*
X7551809Y18032343D01*
X7600974Y18027500D01*
X7600980Y18027500D01*
X7619999Y18025627D01*
X7639018Y18027500D01*
X8183828Y18027500D01*
X8172153Y18019699D01*
X8015301Y17862847D01*
X7892063Y17678409D01*
X7807175Y17473471D01*
X7763900Y17255911D01*
X7763900Y17034089D01*
X7807175Y16816529D01*
X7892063Y16611591D01*
X8015301Y16427153D01*
X8172153Y16270301D01*
X8183828Y16262500D01*
X7702478Y16262500D01*
X7683452Y16264374D01*
X7664426Y16262500D01*
X7607489Y16256892D01*
X7534445Y16234735D01*
X7467127Y16198753D01*
X7408123Y16150329D01*
X7395994Y16135550D01*
X6869247Y15608803D01*
X6678471Y15687825D01*
X6460911Y15731100D01*
X6239089Y15731100D01*
X6021529Y15687825D01*
X5816591Y15602937D01*
X5632153Y15479699D01*
X5475301Y15322847D01*
X5352063Y15138409D01*
X5322692Y15067500D01*
X5250496Y15067500D01*
X5217451Y15129324D01*
X5157443Y15202443D01*
X5084324Y15262451D01*
X5000902Y15307040D01*
X4910385Y15334499D01*
X4816250Y15343770D01*
X4415343Y15343770D01*
X4908470Y15836897D01*
X4926119Y15851381D01*
X4983915Y15921806D01*
X5026861Y16002153D01*
X5053307Y16089334D01*
X5058993Y16147063D01*
X5062237Y16180000D01*
X5060000Y16202712D01*
X5060000Y16474548D01*
X5084324Y16487549D01*
X5157443Y16547557D01*
X5217451Y16620676D01*
X5250496Y16682500D01*
X5322692Y16682500D01*
X5352063Y16611591D01*
X5475301Y16427153D01*
X5632153Y16270301D01*
X5816591Y16147063D01*
X6021529Y16062175D01*
X6239089Y16018900D01*
X6460911Y16018900D01*
X6678471Y16062175D01*
X6883409Y16147063D01*
X7067847Y16270301D01*
X7224699Y16427153D01*
X7347937Y16611591D01*
X7432825Y16816529D01*
X7476100Y17034089D01*
X7476100Y17255911D01*
X7432825Y17473471D01*
X7347937Y17678409D01*
X7224699Y17862847D01*
X7067847Y18019699D01*
X6883409Y18142937D01*
X6678471Y18227825D01*
X6460911Y18271100D01*
X6239089Y18271100D01*
X6021529Y18227825D01*
X5816591Y18142937D01*
X5632153Y18019699D01*
X5475301Y17862847D01*
X5352063Y17678409D01*
X5322692Y17607500D01*
X5250496Y17607500D01*
X5217451Y17669324D01*
X5157443Y17742443D01*
X5084324Y17802451D01*
X5060000Y17815452D01*
X5060000Y17968538D01*
X5062237Y17991250D01*
X5053307Y18081916D01*
X5035787Y18139671D01*
X5026861Y18169097D01*
X4983915Y18249444D01*
X4926119Y18319869D01*
X4908475Y18334349D01*
X4516853Y18725970D01*
X4502369Y18743619D01*
X4431944Y18801415D01*
X4351597Y18844361D01*
X4264416Y18870807D01*
X4196462Y18877500D01*
X4173750Y18879737D01*
X4151038Y18877500D01*
X3620573Y18877500D01*
X3485000Y19013073D01*
X3485000Y19014548D01*
X3509324Y19027549D01*
X3582443Y19087557D01*
X3642451Y19160676D01*
X3687040Y19244098D01*
X3714499Y19334615D01*
X3723770Y19428750D01*
X3723770Y19941250D01*
X3714499Y20035385D01*
X3687040Y20125902D01*
X3642451Y20209324D01*
X3582443Y20282443D01*
X3509324Y20342451D01*
X3485000Y20355452D01*
X3485000Y22673659D01*
X3514480Y22744829D01*
X3536096Y22853503D01*
X3536096Y22964305D01*
X3514480Y23072979D01*
X3472077Y23175348D01*
X3410519Y23267477D01*
X3332169Y23345827D01*
X3240040Y23407385D01*
X3137671Y23449788D01*
X3028997Y23471404D01*
X2918195Y23471404D01*
X2809521Y23449788D01*
X2707152Y23407385D01*
X2615023Y23345827D01*
X2536673Y23267477D01*
X2475115Y23175348D01*
X2432712Y23072979D01*
X2411096Y22964305D01*
X2411096Y22853503D01*
X2432712Y22744829D01*
X2475115Y22642460D01*
X2536673Y22550331D01*
X2560001Y22527003D01*
X2560000Y21612712D01*
X2560000Y21612711D01*
X2560001Y21037720D01*
X2560000Y21037711D01*
X2560001Y20355453D01*
X2535676Y20342451D01*
X2462557Y20282443D01*
X2402549Y20209324D01*
X2357960Y20125902D01*
X2330501Y20035385D01*
X2321230Y19941250D01*
X2321230Y19428750D01*
X2330501Y19334615D01*
X2357960Y19244098D01*
X2402549Y19160676D01*
X2462557Y19087557D01*
X2535676Y19027549D01*
X2560000Y19014548D01*
X2560000Y18844212D01*
X2557763Y18821500D01*
X2560000Y18798789D01*
X2566693Y18730835D01*
X2593139Y18643654D01*
X2636085Y18563307D01*
X2693881Y18492881D01*
X2711530Y18478397D01*
X3085897Y18104030D01*
X3100381Y18086381D01*
X3170806Y18028585D01*
X3223166Y18000599D01*
X3251152Y17985639D01*
X3338334Y17959193D01*
X3429000Y17950263D01*
X3451712Y17952500D01*
X3982177Y17952500D01*
X4124719Y17809957D01*
X4110676Y17802451D01*
X4037557Y17742443D01*
X3977549Y17669324D01*
X3932960Y17585902D01*
X3905501Y17495385D01*
X3896230Y17401250D01*
X3896230Y16888750D01*
X3905501Y16794615D01*
X3932960Y16704098D01*
X3977549Y16620676D01*
X4037557Y16547557D01*
X4110676Y16487549D01*
X4135001Y16474547D01*
X4135001Y16371574D01*
X3107197Y15343770D01*
X2803750Y15343770D01*
X2709615Y15334499D01*
X2619098Y15307040D01*
X2535676Y15262451D01*
X2462557Y15202443D01*
X2402549Y15129324D01*
X2357960Y15045902D01*
X2330501Y14955385D01*
X2321230Y14861250D01*
X2321230Y14348750D01*
X2330501Y14254615D01*
X2357960Y14164098D01*
X2402549Y14080676D01*
X2462557Y14007557D01*
X2535676Y13947549D01*
X2613956Y13905708D01*
X2636086Y13864306D01*
X2661467Y13833379D01*
X2590477Y13847500D01*
X2489523Y13847500D01*
X2390509Y13827805D01*
X2297240Y13789172D01*
X2213300Y13733085D01*
X2141915Y13661700D01*
X2085828Y13577760D01*
X2047195Y13484491D01*
X2027500Y13385477D01*
X2027500Y13370508D01*
X1911500Y13254508D01*
X1911500Y16757500D01*
X2341760Y16757500D01*
X2357960Y16704098D01*
X2402549Y16620676D01*
X2462557Y16547557D01*
X2535676Y16487549D01*
X2619098Y16442960D01*
X2709615Y16415501D01*
X2803750Y16406230D01*
X3241250Y16406230D01*
X3335385Y16415501D01*
X3425902Y16442960D01*
X3509324Y16487549D01*
X3582443Y16547557D01*
X3642451Y16620676D01*
X3687040Y16704098D01*
X3714499Y16794615D01*
X3723770Y16888750D01*
X3723770Y17401250D01*
X3714499Y17495385D01*
X3687040Y17585902D01*
X3642451Y17669324D01*
X3582443Y17742443D01*
X3509324Y17802451D01*
X3425902Y17847040D01*
X3335385Y17874499D01*
X3241250Y17883770D01*
X2803750Y17883770D01*
X2709615Y17874499D01*
X2619098Y17847040D01*
X2535676Y17802451D01*
X2462557Y17742443D01*
X2402549Y17669324D01*
X2357960Y17585902D01*
X2341760Y17532500D01*
X1911500Y17532500D01*
X1911500Y18776982D01*
X1913373Y18796001D01*
X1911500Y18815020D01*
X1911500Y18815026D01*
X1905892Y18871963D01*
X1904213Y18877500D01*
X1883735Y18945006D01*
X1883735Y18945007D01*
X1847753Y19012325D01*
X1799329Y19071329D01*
X1784546Y19083461D01*
X1165052Y19702955D01*
X1262062Y19937158D01*
X1312500Y20190730D01*
X1312500Y20449270D01*
X1262062Y20702842D01*
X1163123Y20941702D01*
X1019486Y21156670D01*
X836670Y21339486D01*
X621702Y21483123D01*
X382842Y21582062D01*
X342934Y21590000D01*
X382842Y21597938D01*
X621702Y21696877D01*
X836670Y21840514D01*
X1019486Y22023330D01*
X1163123Y22238298D01*
X1262062Y22477158D01*
X1312500Y22730730D01*
X1312500Y22989270D01*
X1262062Y23242842D01*
X1163123Y23481702D01*
X1019486Y23696670D01*
X836670Y23879486D01*
X621702Y24023123D01*
X382842Y24122062D01*
X342934Y24130000D01*
X382842Y24137938D01*
X485540Y24180477D01*
X1392500Y24180477D01*
X1392500Y24079523D01*
X1412195Y23980509D01*
X1450828Y23887240D01*
X1506915Y23803300D01*
X1578300Y23731915D01*
X1662240Y23675828D01*
X1755509Y23637195D01*
X1854523Y23617500D01*
X1955477Y23617500D01*
X2054491Y23637195D01*
X2147760Y23675828D01*
X2231700Y23731915D01*
X2242285Y23742500D01*
X4284493Y23742500D01*
X5046542Y22980450D01*
X5058671Y22965671D01*
X5117675Y22917247D01*
X5145628Y22902306D01*
X5184992Y22881265D01*
X5258037Y22859108D01*
X5334000Y22851626D01*
X5353026Y22853500D01*
X6012715Y22853500D01*
X6023300Y22842915D01*
X6107240Y22786828D01*
X6200509Y22748195D01*
X6299523Y22728500D01*
X6400477Y22728500D01*
X6499491Y22748195D01*
X6592760Y22786828D01*
X6676700Y22842915D01*
X6748085Y22914300D01*
X6804172Y22998240D01*
X6842805Y23091509D01*
X6862500Y23190523D01*
X6862500Y23291477D01*
X6842805Y23390491D01*
X6804172Y23483760D01*
X6748085Y23567700D01*
X6676700Y23639085D01*
X6592760Y23695172D01*
X6499491Y23733805D01*
X6400477Y23753500D01*
X6299523Y23753500D01*
X6200509Y23733805D01*
X6107240Y23695172D01*
X6023300Y23639085D01*
X6012715Y23628500D01*
X5494508Y23628500D01*
X4732462Y24390545D01*
X4720329Y24405329D01*
X4661325Y24453753D01*
X4594007Y24489735D01*
X4520963Y24511892D01*
X4464026Y24517500D01*
X4445000Y24519374D01*
X4425974Y24517500D01*
X2242285Y24517500D01*
X2231700Y24528085D01*
X2147760Y24584172D01*
X2054491Y24622805D01*
X1955477Y24642500D01*
X1854523Y24642500D01*
X1755509Y24622805D01*
X1662240Y24584172D01*
X1578300Y24528085D01*
X1506915Y24456700D01*
X1450828Y24372760D01*
X1412195Y24279491D01*
X1392500Y24180477D01*
X485540Y24180477D01*
X621702Y24236877D01*
X836670Y24380514D01*
X1019486Y24563330D01*
X1163123Y24778298D01*
X1262062Y25017158D01*
X1312500Y25270730D01*
X1312500Y25529270D01*
X1302847Y25577800D01*
X1412630Y25577800D01*
X1417698Y25526341D01*
X1432708Y25476860D01*
X1457083Y25431257D01*
X1489886Y25391286D01*
X1529857Y25358483D01*
X1575460Y25334108D01*
X1624941Y25319098D01*
X1676400Y25314030D01*
X2386875Y25315300D01*
X2452500Y25380925D01*
X2452500Y27217500D01*
X2627500Y27217500D01*
X2627500Y25380925D01*
X2693125Y25315300D01*
X3403600Y25314030D01*
X3455059Y25319098D01*
X3504540Y25334108D01*
X3550143Y25358483D01*
X3590114Y25391286D01*
X3622917Y25431257D01*
X3647292Y25476860D01*
X3662302Y25526341D01*
X3667370Y25577800D01*
X3666100Y27151875D01*
X3600475Y27217500D01*
X2627500Y27217500D01*
X2452500Y27217500D01*
X1479525Y27217500D01*
X1413900Y27151875D01*
X1412630Y25577800D01*
X1302847Y25577800D01*
X1262062Y25782842D01*
X1163123Y26021702D01*
X1019486Y26236670D01*
X836670Y26419486D01*
X621702Y26563123D01*
X382842Y26662062D01*
X342934Y26670000D01*
X382842Y26677938D01*
X621702Y26776877D01*
X836670Y26920514D01*
X1019486Y27103330D01*
X1163123Y27318298D01*
X1262062Y27557158D01*
X1312500Y27810730D01*
X1312500Y28069270D01*
X1262062Y28322842D01*
X1163123Y28561702D01*
X1019486Y28776670D01*
X836670Y28959486D01*
X817193Y28972500D01*
X1412678Y28972500D01*
X1413900Y27458125D01*
G37*
%TD.AperFunction*%
%TD*%
D23*
X12700000Y21590000D03*
X12700000Y19050000D03*
X12065000Y16446548D03*
X13970000Y16446548D03*
X13970000Y11366548D03*
X13970000Y13906548D03*
D24*
X10160000Y5080000D03*
D23*
X10033000Y21717000D03*
D24*
X6350000Y21590000D03*
X1270000Y21590000D03*
X5715000Y0D03*
X6350000Y7620000D03*
X11176000Y9525000D03*
X3810000Y25019000D03*
X10414000Y11811000D03*
X4064000Y10795000D03*
X4064000Y8382000D03*
X5080000Y5715000D03*
X13589000Y889000D03*
X9525000Y635000D03*
D23*
X10287000Y7620000D03*
X2973596Y22908904D03*
D24*
X5080000Y7112000D03*
X7620012Y22225000D03*
X2540000Y13335000D03*
X12700000Y9525000D03*
X10795000Y19685000D03*
X10795000Y14859000D03*
X10160000Y24511000D03*
X1270000Y6350000D03*
X12065001Y24764999D03*
X1905000Y24130000D03*
X6350000Y23241000D03*
X8890000Y7620000D03*
X12700000Y5715000D03*
D25*
X8890000Y19685000D03*
X6350000Y19685000D03*
X8890000Y17145000D03*
X6350000Y17145000D03*
X8890000Y14605000D03*
X6350000Y14605000D03*
X8890000Y12065000D03*
X6350000Y12065000D03*
X8890000Y9525000D03*
X6350000Y9525000D03*
X0Y0D03*
X0Y2540000D03*
X0Y5080000D03*
X15240000Y27940000D03*
X0Y7620000D03*
X15240000Y25400000D03*
X0Y10160000D03*
X15240000Y22860000D03*
X0Y12700000D03*
X15240000Y20320000D03*
X0Y15240000D03*
X15240000Y17780000D03*
X0Y17780000D03*
X15240000Y15240000D03*
X0Y20320000D03*
X15240000Y12700000D03*
X0Y22860000D03*
X15240000Y10160000D03*
X0Y25400000D03*
X15240000Y7620000D03*
X0Y27940000D03*
X15240000Y5080000D03*
X15240000Y2540000D03*
X15240000Y0D03*
X11430000Y2540000D03*
X8890000Y2540000D03*
X6350000Y2540000D03*
X3810000Y2540000D03*
M02*
