%TF.GenerationSoftware,KiCad,Pcbnew,5.1.7+dfsg1-1~bpo10+1*%
%TF.CreationDate,Date%
%TF.ProjectId,ProMicro_CONN,50726f4d-6963-4726-9f5f-434f4e4e2e6b,v1.4*%
%TF.SameCoordinates,Original*%
%TF.FileFunction,Legend,Bot*%
%TF.FilePolarity,Positive*%
%FSLAX46Y46*%
G04 Gerber Fmt 4.6, Leading zero omitted, Abs format (unit mm)*
G04 Created by KiCad*
%MOMM*%
%LPD*%
G01*
G04 APERTURE LIST*
%ADD10C,0.120000*%
%ADD11C,0.150000*%
%ADD12C,0.200000*%
G04 APERTURE END LIST*
D10*
%TO.C,J1*%
X12295000Y4175000D02*
X12295000Y25035000D01*
X12295000Y25035000D02*
X2945000Y25035000D01*
X2945000Y25035000D02*
X2945000Y4175000D01*
X2945000Y4175000D02*
X12295000Y4175000D01*
X2695000Y3925000D02*
X2695000Y6465000D01*
X2695000Y3925000D02*
X5235000Y3925000D01*
%TO.C,A1*%
X-1420000Y1270000D02*
X-1420000Y29360000D01*
X13970000Y-1270000D02*
X13970000Y29360000D01*
X1270000Y1270000D02*
X-1420000Y1270000D01*
X1270000Y-1270000D02*
X1270000Y29360000D01*
X-1420000Y29360000D02*
X16660000Y29360000D01*
X16660000Y29360000D02*
X16660000Y-1270000D01*
X16660000Y-1270000D02*
X1270000Y-1270000D01*
%TO.C,SW2*%
X6730000Y-1100000D02*
X6730000Y-1400000D01*
X6730000Y-1400000D02*
X3430000Y-1400000D01*
X3430000Y-1400000D02*
X3430000Y-1100000D01*
X6730000Y1100000D02*
X6730000Y1400000D01*
X6730000Y1400000D02*
X3430000Y1400000D01*
X3430000Y1400000D02*
X3430000Y1100000D01*
%TO.C,J2*%
X1140000Y29210000D02*
X1140000Y25273000D01*
X14097000Y25273000D02*
X14097000Y29210000D01*
X1143000Y25273000D02*
X14097000Y25273000D01*
%TO.C,SW1*%
X8510000Y1036548D02*
X8510000Y1336548D01*
X8510000Y1336548D02*
X11810000Y1336548D01*
X11810000Y1336548D02*
X11810000Y1036548D01*
X8510000Y-1163452D02*
X8510000Y-1463452D01*
X8510000Y-1463452D02*
X11810000Y-1463452D01*
X11810000Y-1463452D02*
X11810000Y-1163452D01*
%TO.C,J3*%
X2480000Y3870000D02*
X2480000Y2540000D01*
X3810000Y3870000D02*
X2480000Y3870000D01*
X5080000Y3870000D02*
X5080000Y1210000D01*
X5080000Y1210000D02*
X12760000Y1210000D01*
X5080000Y3870000D02*
X12760000Y3870000D01*
X12760000Y3870000D02*
X12760000Y1210000D01*
%TD*%
%TO.C,J1*%
D11*
X7953333Y3468620D02*
X7953333Y2754334D01*
X8000952Y2611477D01*
X8096190Y2516239D01*
X8239047Y2468620D01*
X8334285Y2468620D01*
X6953333Y2468620D02*
X7524761Y2468620D01*
X7239047Y2468620D02*
X7239047Y3468620D01*
X7334285Y3325762D01*
X7429523Y3230524D01*
X7524761Y3182905D01*
%TO.C,SW2*%
D12*
X1733571Y1377858D02*
X2266904Y1377858D01*
X1733571Y1720715D02*
X2152619Y1720715D01*
X2228809Y1682620D01*
X2266904Y1606429D01*
X2266904Y1492143D01*
X2228809Y1415953D01*
X2190714Y1377858D01*
X2228809Y1035000D02*
X2266904Y958810D01*
X2266904Y806429D01*
X2228809Y730239D01*
X2152619Y692143D01*
X2114523Y692143D01*
X2038333Y730239D01*
X2000238Y806429D01*
X2000238Y920715D01*
X1962142Y996905D01*
X1885952Y1035000D01*
X1847857Y1035000D01*
X1771666Y996905D01*
X1733571Y920715D01*
X1733571Y806429D01*
X1771666Y730239D01*
X2228809Y44524D02*
X2266904Y120715D01*
X2266904Y273096D01*
X2228809Y349286D01*
X2152619Y387381D01*
X1847857Y387381D01*
X1771666Y349286D01*
X1733571Y273096D01*
X1733571Y120715D01*
X1771666Y44524D01*
X1847857Y6429D01*
X1924047Y6429D01*
X2000238Y387381D01*
X2266904Y-336428D02*
X1733571Y-336428D01*
X1885952Y-336428D02*
X1809761Y-374523D01*
X1771666Y-412619D01*
X1733571Y-488809D01*
X1733571Y-565000D01*
%TO.C,SW1*%
X13696904Y1930239D02*
X13163571Y1930239D01*
X13315952Y1930239D02*
X13239761Y1892143D01*
X13201666Y1854048D01*
X13163571Y1777858D01*
X13163571Y1701667D01*
X13658809Y1130239D02*
X13696904Y1206429D01*
X13696904Y1358810D01*
X13658809Y1435000D01*
X13582619Y1473096D01*
X13277857Y1473096D01*
X13201666Y1435000D01*
X13163571Y1358810D01*
X13163571Y1206429D01*
X13201666Y1130239D01*
X13277857Y1092143D01*
X13354047Y1092143D01*
X13430238Y1473096D01*
X13658809Y787381D02*
X13696904Y711191D01*
X13696904Y558810D01*
X13658809Y482620D01*
X13582619Y444524D01*
X13544523Y444524D01*
X13468333Y482620D01*
X13430238Y558810D01*
X13430238Y673096D01*
X13392142Y749286D01*
X13315952Y787381D01*
X13277857Y787381D01*
X13201666Y749286D01*
X13163571Y673096D01*
X13163571Y558810D01*
X13201666Y482620D01*
X13658809Y-203095D02*
X13696904Y-126904D01*
X13696904Y25477D01*
X13658809Y101667D01*
X13582619Y139762D01*
X13277857Y139762D01*
X13201666Y101667D01*
X13163571Y25477D01*
X13163571Y-126904D01*
X13201666Y-203095D01*
X13277857Y-241190D01*
X13354047Y-241190D01*
X13430238Y139762D01*
X13163571Y-469761D02*
X13163571Y-774523D01*
X12896904Y-584047D02*
X13582619Y-584047D01*
X13658809Y-622142D01*
X13696904Y-698333D01*
X13696904Y-774523D01*
%TD*%
M02*
