%TF.GenerationSoftware,KiCad,Pcbnew,5.1.7+dfsg1-1~bpo10+1*%
%TF.CreationDate,Date%
%TF.ProjectId,ProMicro_CONN,50726f4d-6963-4726-9f5f-434f4e4e2e6b,v1.4*%
%TF.SameCoordinates,Original*%
%TF.FileFunction,Copper,L2,Inr*%
%TF.FilePolarity,Positive*%
%FSLAX46Y46*%
G04 Gerber Fmt 4.6, Leading zero omitted, Abs format (unit mm)*
G04 Created by KiCad*
%MOMM*%
%LPD*%
G01*
G04 APERTURE LIST*
%TA.AperFunction,ComponentPad*%
%ADD10O,1.727200X1.727200*%
%TD*%
%TA.AperFunction,ComponentPad*%
%ADD11R,1.727200X1.727200*%
%TD*%
%TA.AperFunction,ComponentPad*%
%ADD12R,2.100000X2.100000*%
%TD*%
%TA.AperFunction,ComponentPad*%
%ADD13C,2.100000*%
%TD*%
%TA.AperFunction,ComponentPad*%
%ADD14C,1.700000*%
%TD*%
%TA.AperFunction,ComponentPad*%
%ADD15R,1.700000X1.700000*%
%TD*%
%TA.AperFunction,ViaPad*%
%ADD16C,0.600000*%
%TD*%
%TA.AperFunction,ViaPad*%
%ADD17C,0.500000*%
%TD*%
%TA.AperFunction,Conductor*%
%ADD18C,0.254000*%
%TD*%
%TA.AperFunction,Conductor*%
%ADD19C,0.100000*%
%TD*%
%ADD20C,0.300000*%
%ADD21C,0.200000*%
%ADD22C,0.350000*%
G04 APERTURE END LIST*
D10*
%TO.N,GND*%
%TO.C,J1*%
X8890000Y19685000D03*
%TO.N,TDI*%
X6350000Y19685000D03*
%TO.N,Net-(J1-Pad8)*%
X8890000Y17145000D03*
%TO.N,+3V3*%
X6350000Y17145000D03*
%TO.N,~RST*%
X8890000Y14605000D03*
%TO.N,TMS*%
X6350000Y14605000D03*
%TO.N,+3V3*%
X8890000Y12065000D03*
%TO.N,TDO*%
X6350000Y12065000D03*
%TO.N,GND*%
X8890000Y9525000D03*
D11*
%TO.N,TCK*%
X6350000Y9525000D03*
%TD*%
D12*
%TO.N,RXD*%
%TO.C,A1*%
X0Y0D03*
D13*
%TO.N,TXD*%
X0Y2540000D03*
%TO.N,GND*%
X0Y5080000D03*
%TO.N,Net-(A1-Pad13)*%
X15240000Y27940000D03*
%TO.N,GND*%
X0Y7620000D03*
%TO.N,COPI*%
X15240000Y25400000D03*
%TO.N,SDA*%
X0Y10160000D03*
%TO.N,CIPO*%
X15240000Y22860000D03*
%TO.N,SCL*%
X0Y12700000D03*
%TO.N,SCK*%
X15240000Y20320000D03*
%TO.N,Net-(A1-Pad7)*%
X0Y15240000D03*
%TO.N,TDI*%
X15240000Y17780000D03*
%TO.N,Net-(A1-Pad8)*%
X0Y17780000D03*
%TO.N,TDO*%
X15240000Y15240000D03*
%TO.N,BTN*%
X0Y20320000D03*
%TO.N,TMS*%
X15240000Y12700000D03*
%TO.N,Net-(A1-Pad10)*%
X0Y22860000D03*
%TO.N,TCK*%
X15240000Y10160000D03*
%TO.N,Net-(A1-Pad11)*%
X0Y25400000D03*
%TO.N,+3V3*%
X15240000Y7620000D03*
%TO.N,CS1*%
X0Y27940000D03*
%TO.N,~RST*%
X15240000Y5080000D03*
%TO.N,GND*%
X15240000Y2540000D03*
%TO.N,+5V*%
X15240000Y0D03*
%TD*%
D14*
%TO.N,SDA*%
%TO.C,J3*%
X11430000Y2540000D03*
%TO.N,SCL*%
X8890000Y2540000D03*
%TO.N,+3V3*%
X6350000Y2540000D03*
D15*
%TO.N,GND*%
X3810000Y2540000D03*
%TD*%
D16*
%TO.N,GND*%
X12700000Y21590000D03*
X12700000Y19050000D03*
X12065000Y16446548D03*
X13970000Y16446548D03*
X13970000Y11366548D03*
X13970000Y13906548D03*
D17*
X10160000Y5080000D03*
D16*
X10033000Y21717000D03*
D17*
X6350000Y21590000D03*
X1270000Y21590000D03*
X5715000Y0D03*
X6350000Y7620000D03*
X11176000Y9525000D03*
X3810000Y25019000D03*
X10414000Y11811000D03*
X4064000Y10795000D03*
X4064000Y8382000D03*
X5080000Y5715000D03*
X13589000Y889000D03*
X9525000Y635000D03*
D16*
%TO.N,+3V3*%
X10287000Y7620000D03*
X2973596Y22908904D03*
D17*
%TO.N,RXD*%
X5080000Y7112000D03*
X7620012Y22225000D03*
%TO.N,TXD*%
X2540000Y13335000D03*
%TO.N,SDA*%
X12700000Y9525000D03*
X10795000Y19685000D03*
X10795000Y14859000D03*
%TO.N,CIPO*%
X10160000Y24511000D03*
%TO.N,BTN*%
X1270000Y6350000D03*
%TO.N,CS1*%
X12065001Y24764999D03*
X1905000Y24130000D03*
X6350000Y23241000D03*
%TO.N,~RST*%
X8890000Y7620000D03*
X12700000Y5715000D03*
%TD*%
D18*
%TO.N,GND*%
X14170414Y28817787D02*
X14019718Y28592254D01*
X13915917Y28341656D01*
X13863000Y28075623D01*
X13863000Y27804377D01*
X13915917Y27538344D01*
X14019718Y27287746D01*
X14170414Y27062213D01*
X14362213Y26870414D01*
X14587746Y26719718D01*
X14707776Y26670000D01*
X14587746Y26620282D01*
X14362213Y26469586D01*
X14170414Y26277787D01*
X14019718Y26052254D01*
X13915917Y25801656D01*
X13863000Y25535623D01*
X13863000Y25264377D01*
X13915917Y24998344D01*
X14019718Y24747746D01*
X14170414Y24522213D01*
X14362213Y24330414D01*
X14587746Y24179718D01*
X14707776Y24130000D01*
X14587746Y24080282D01*
X14362213Y23929586D01*
X14170414Y23737787D01*
X14019718Y23512254D01*
X13915917Y23261656D01*
X13863000Y22995623D01*
X13863000Y22724377D01*
X13915917Y22458344D01*
X14019718Y22207746D01*
X14170414Y21982213D01*
X14362213Y21790414D01*
X14587746Y21639718D01*
X14707776Y21590000D01*
X14587746Y21540282D01*
X14362213Y21389586D01*
X14170414Y21197787D01*
X14019718Y20972254D01*
X13915917Y20721656D01*
X13863000Y20455623D01*
X13863000Y20184377D01*
X13915917Y19918344D01*
X14019718Y19667746D01*
X14170414Y19442213D01*
X14362213Y19250414D01*
X14587746Y19099718D01*
X14707776Y19050000D01*
X14587746Y19000282D01*
X14362213Y18849586D01*
X14170414Y18657787D01*
X14019718Y18432254D01*
X13915917Y18181656D01*
X13863000Y17915623D01*
X13863000Y17644377D01*
X13915917Y17378344D01*
X14019718Y17127746D01*
X14170414Y16902213D01*
X14362213Y16710414D01*
X14587746Y16559718D01*
X14707776Y16510000D01*
X14587746Y16460282D01*
X14362213Y16309586D01*
X14170414Y16117787D01*
X14019718Y15892254D01*
X13915917Y15641656D01*
X13863000Y15375623D01*
X13863000Y15104377D01*
X13915917Y14838344D01*
X14019718Y14587746D01*
X14170414Y14362213D01*
X14362213Y14170414D01*
X14587746Y14019718D01*
X14707776Y13970000D01*
X14587746Y13920282D01*
X14362213Y13769586D01*
X14170414Y13577787D01*
X14019718Y13352254D01*
X13915917Y13101656D01*
X13863000Y12835623D01*
X13863000Y12564377D01*
X13915917Y12298344D01*
X14019718Y12047746D01*
X14170414Y11822213D01*
X14362213Y11630414D01*
X14587746Y11479718D01*
X14707776Y11430000D01*
X14587746Y11380282D01*
X14362213Y11229586D01*
X14170414Y11037787D01*
X14019718Y10812254D01*
X13915917Y10561656D01*
X13863000Y10295623D01*
X13863000Y10024377D01*
X13915917Y9758344D01*
X14019718Y9507746D01*
X14170414Y9282213D01*
X14362213Y9090414D01*
X14587746Y8939718D01*
X14707776Y8890000D01*
X14587746Y8840282D01*
X14362213Y8689586D01*
X14170414Y8497787D01*
X14019718Y8272254D01*
X13915917Y8021656D01*
X13863000Y7755623D01*
X13863000Y7484377D01*
X13915917Y7218344D01*
X14019718Y6967746D01*
X14170414Y6742213D01*
X14362213Y6550414D01*
X14587746Y6399718D01*
X14707776Y6350000D01*
X14587746Y6300282D01*
X14362213Y6149586D01*
X14170414Y5957787D01*
X14019718Y5732254D01*
X13915917Y5481656D01*
X13863000Y5215623D01*
X13863000Y4944377D01*
X13915917Y4678344D01*
X14019718Y4427746D01*
X14170414Y4202213D01*
X14362213Y4010414D01*
X14381743Y3997365D01*
X14350339Y3980579D01*
X14248539Y3711066D01*
X15240000Y2719605D01*
X15254143Y2733747D01*
X15433748Y2554142D01*
X15419605Y2540000D01*
X15433748Y2525857D01*
X15254143Y2346252D01*
X15240000Y2360395D01*
X14248539Y1368934D01*
X14350339Y1099421D01*
X14382969Y1083455D01*
X14362213Y1069586D01*
X14170414Y877787D01*
X14019718Y652254D01*
X13915917Y401656D01*
X13863000Y135623D01*
X13863000Y-135623D01*
X13915917Y-401656D01*
X14019718Y-652254D01*
X14170414Y-877787D01*
X14260627Y-968000D01*
X1378582Y-968000D01*
X1378582Y1050000D01*
X1372268Y1114103D01*
X1353570Y1175743D01*
X1323206Y1232550D01*
X1282343Y1282343D01*
X1232550Y1323206D01*
X1175743Y1353570D01*
X1114103Y1372268D01*
X1050000Y1378582D01*
X740350Y1378582D01*
X877787Y1470414D01*
X1069586Y1662213D01*
X1088152Y1690000D01*
X2321928Y1690000D01*
X2334188Y1565518D01*
X2370498Y1445820D01*
X2429463Y1335506D01*
X2508815Y1238815D01*
X2605506Y1159463D01*
X2715820Y1100498D01*
X2835518Y1064188D01*
X2960000Y1051928D01*
X3524250Y1055000D01*
X3683000Y1213750D01*
X3683000Y2413000D01*
X2483750Y2413000D01*
X2325000Y2254250D01*
X2321928Y1690000D01*
X1088152Y1690000D01*
X1220282Y1887746D01*
X1324083Y2138344D01*
X1377000Y2404377D01*
X1377000Y2675623D01*
X1324083Y2941656D01*
X1220282Y3192254D01*
X1088153Y3390000D01*
X2321928Y3390000D01*
X2325000Y2825750D01*
X2483750Y2667000D01*
X3683000Y2667000D01*
X3683000Y3866250D01*
X3937000Y3866250D01*
X3937000Y2667000D01*
X3957000Y2667000D01*
X3957000Y2413000D01*
X3937000Y2413000D01*
X3937000Y1213750D01*
X4095750Y1055000D01*
X4660000Y1051928D01*
X4784482Y1064188D01*
X4904180Y1100498D01*
X5014494Y1159463D01*
X5111185Y1238815D01*
X5190537Y1335506D01*
X5249502Y1445820D01*
X5285812Y1565518D01*
X5298072Y1690000D01*
X5296340Y2008110D01*
X5306956Y1982481D01*
X5435764Y1789706D01*
X5599706Y1625764D01*
X5792481Y1496956D01*
X6006682Y1408231D01*
X6234076Y1363000D01*
X6465924Y1363000D01*
X6693318Y1408231D01*
X6907519Y1496956D01*
X7100294Y1625764D01*
X7264236Y1789706D01*
X7393044Y1982481D01*
X7481769Y2196682D01*
X7527000Y2424076D01*
X7527000Y2655924D01*
X7713000Y2655924D01*
X7713000Y2424076D01*
X7758231Y2196682D01*
X7846956Y1982481D01*
X7975764Y1789706D01*
X8139706Y1625764D01*
X8332481Y1496956D01*
X8546682Y1408231D01*
X8774076Y1363000D01*
X9005924Y1363000D01*
X9233318Y1408231D01*
X9447519Y1496956D01*
X9640294Y1625764D01*
X9804236Y1789706D01*
X9933044Y1982481D01*
X10021769Y2196682D01*
X10067000Y2424076D01*
X10067000Y2655924D01*
X10253000Y2655924D01*
X10253000Y2424076D01*
X10298231Y2196682D01*
X10386956Y1982481D01*
X10515764Y1789706D01*
X10679706Y1625764D01*
X10872481Y1496956D01*
X11086682Y1408231D01*
X11314076Y1363000D01*
X11545924Y1363000D01*
X11773318Y1408231D01*
X11987519Y1496956D01*
X12180294Y1625764D01*
X12344236Y1789706D01*
X12473044Y1982481D01*
X12561769Y2196682D01*
X12607000Y2424076D01*
X12607000Y2479383D01*
X13547934Y2479383D01*
X13592272Y2150443D01*
X13699931Y1836473D01*
X13799421Y1650339D01*
X14068934Y1548539D01*
X15060395Y2540000D01*
X14068934Y3531461D01*
X13799421Y3429661D01*
X13653537Y3131523D01*
X13568620Y2810654D01*
X13547934Y2479383D01*
X12607000Y2479383D01*
X12607000Y2655924D01*
X12561769Y2883318D01*
X12473044Y3097519D01*
X12344236Y3290294D01*
X12180294Y3454236D01*
X11987519Y3583044D01*
X11773318Y3671769D01*
X11545924Y3717000D01*
X11314076Y3717000D01*
X11086682Y3671769D01*
X10872481Y3583044D01*
X10679706Y3454236D01*
X10515764Y3290294D01*
X10386956Y3097519D01*
X10298231Y2883318D01*
X10253000Y2655924D01*
X10067000Y2655924D01*
X10021769Y2883318D01*
X9933044Y3097519D01*
X9804236Y3290294D01*
X9640294Y3454236D01*
X9447519Y3583044D01*
X9233318Y3671769D01*
X9005924Y3717000D01*
X8774076Y3717000D01*
X8546682Y3671769D01*
X8332481Y3583044D01*
X8139706Y3454236D01*
X7975764Y3290294D01*
X7846956Y3097519D01*
X7758231Y2883318D01*
X7713000Y2655924D01*
X7527000Y2655924D01*
X7481769Y2883318D01*
X7393044Y3097519D01*
X7264236Y3290294D01*
X7100294Y3454236D01*
X6907519Y3583044D01*
X6693318Y3671769D01*
X6465924Y3717000D01*
X6234076Y3717000D01*
X6006682Y3671769D01*
X5792481Y3583044D01*
X5599706Y3454236D01*
X5435764Y3290294D01*
X5306956Y3097519D01*
X5296340Y3071890D01*
X5298072Y3390000D01*
X5285812Y3514482D01*
X5249502Y3634180D01*
X5190537Y3744494D01*
X5111185Y3841185D01*
X5014494Y3920537D01*
X4904180Y3979502D01*
X4784482Y4015812D01*
X4660000Y4028072D01*
X4095750Y4025000D01*
X3937000Y3866250D01*
X3683000Y3866250D01*
X3524250Y4025000D01*
X2960000Y4028072D01*
X2835518Y4015812D01*
X2715820Y3979502D01*
X2605506Y3920537D01*
X2508815Y3841185D01*
X2429463Y3744494D01*
X2370498Y3634180D01*
X2334188Y3514482D01*
X2321928Y3390000D01*
X1088153Y3390000D01*
X1069586Y3417787D01*
X877787Y3609586D01*
X858257Y3622635D01*
X889661Y3639421D01*
X991461Y3908934D01*
X0Y4900395D01*
X-14142Y4886252D01*
X-193747Y5065857D01*
X-179605Y5080000D01*
X-193747Y5094142D01*
X-14142Y5273747D01*
X0Y5259605D01*
X14143Y5273747D01*
X193748Y5094142D01*
X179605Y5080000D01*
X1171066Y4088539D01*
X1440579Y4190339D01*
X1586463Y4488477D01*
X1671380Y4809346D01*
X1692066Y5140617D01*
X1647728Y5469557D01*
X1544080Y5771830D01*
X12123000Y5771830D01*
X12123000Y5658170D01*
X12145174Y5546695D01*
X12188669Y5441688D01*
X12251815Y5347184D01*
X12332184Y5266815D01*
X12426688Y5203669D01*
X12531695Y5160174D01*
X12643170Y5138000D01*
X12756830Y5138000D01*
X12868305Y5160174D01*
X12973312Y5203669D01*
X13067816Y5266815D01*
X13148185Y5347184D01*
X13211331Y5441688D01*
X13254826Y5546695D01*
X13277000Y5658170D01*
X13277000Y5771830D01*
X13254826Y5883305D01*
X13211331Y5988312D01*
X13148185Y6082816D01*
X13067816Y6163185D01*
X12973312Y6226331D01*
X12868305Y6269826D01*
X12756830Y6292000D01*
X12643170Y6292000D01*
X12531695Y6269826D01*
X12426688Y6226331D01*
X12332184Y6163185D01*
X12251815Y6082816D01*
X12188669Y5988312D01*
X12145174Y5883305D01*
X12123000Y5771830D01*
X1544080Y5771830D01*
X1540069Y5783527D01*
X1516526Y5827574D01*
X1543312Y5838669D01*
X1637816Y5901815D01*
X1718185Y5982184D01*
X1781331Y6076688D01*
X1824826Y6181695D01*
X1847000Y6293170D01*
X1847000Y6406830D01*
X1824826Y6518305D01*
X1781331Y6623312D01*
X1718185Y6717816D01*
X1637816Y6798185D01*
X1543312Y6861331D01*
X1511187Y6874638D01*
X1586463Y7028477D01*
X1623606Y7168830D01*
X4503000Y7168830D01*
X4503000Y7055170D01*
X4525174Y6943695D01*
X4568669Y6838688D01*
X4631815Y6744184D01*
X4712184Y6663815D01*
X4806688Y6600669D01*
X4911695Y6557174D01*
X5023170Y6535000D01*
X5136830Y6535000D01*
X5248305Y6557174D01*
X5353312Y6600669D01*
X5447816Y6663815D01*
X5528185Y6744184D01*
X5591331Y6838688D01*
X5634826Y6943695D01*
X5657000Y7055170D01*
X5657000Y7168830D01*
X5634826Y7280305D01*
X5591331Y7385312D01*
X5528185Y7479816D01*
X5447816Y7560185D01*
X5353312Y7623331D01*
X5248305Y7666826D01*
X5136830Y7689000D01*
X5023170Y7689000D01*
X4911695Y7666826D01*
X4806688Y7623331D01*
X4712184Y7560185D01*
X4631815Y7479816D01*
X4568669Y7385312D01*
X4525174Y7280305D01*
X4503000Y7168830D01*
X1623606Y7168830D01*
X1671380Y7349346D01*
X1692066Y7680617D01*
X1647728Y8009557D01*
X1540069Y8323527D01*
X1440579Y8509661D01*
X1171066Y8611461D01*
X179605Y7620000D01*
X193748Y7605857D01*
X14143Y7426252D01*
X0Y7440395D01*
X-14142Y7426252D01*
X-193747Y7605857D01*
X-179605Y7620000D01*
X-193747Y7634142D01*
X-14142Y7813747D01*
X0Y7799605D01*
X991461Y8791066D01*
X889661Y9060579D01*
X857031Y9076545D01*
X877787Y9090414D01*
X1069586Y9282213D01*
X1220282Y9507746D01*
X1324083Y9758344D01*
X1377000Y10024377D01*
X1377000Y10295623D01*
X1358506Y10388600D01*
X5157818Y10388600D01*
X5157818Y8661400D01*
X5164132Y8597297D01*
X5182830Y8535657D01*
X5213194Y8478850D01*
X5254057Y8429057D01*
X5303850Y8388194D01*
X5360657Y8357830D01*
X5422297Y8339132D01*
X5486400Y8332818D01*
X7213600Y8332818D01*
X7277703Y8339132D01*
X7339343Y8357830D01*
X7396150Y8388194D01*
X7445943Y8429057D01*
X7486806Y8478850D01*
X7517170Y8535657D01*
X7535868Y8597297D01*
X7542182Y8661400D01*
X7542182Y8886529D01*
X7607316Y8750056D01*
X7783146Y8514707D01*
X8001512Y8318183D01*
X8254022Y8168036D01*
X8527039Y8071429D01*
X8522184Y8068185D01*
X8441815Y7987816D01*
X8378669Y7893312D01*
X8335174Y7788305D01*
X8313000Y7676830D01*
X8313000Y7563170D01*
X8335174Y7451695D01*
X8378669Y7346688D01*
X8441815Y7252184D01*
X8522184Y7171815D01*
X8616688Y7108669D01*
X8721695Y7065174D01*
X8833170Y7043000D01*
X8946830Y7043000D01*
X9058305Y7065174D01*
X9163312Y7108669D01*
X9257816Y7171815D01*
X9338185Y7252184D01*
X9401331Y7346688D01*
X9444826Y7451695D01*
X9467000Y7563170D01*
X9467000Y7676830D01*
X9466021Y7681754D01*
X9660000Y7681754D01*
X9660000Y7558246D01*
X9684095Y7437111D01*
X9731360Y7323004D01*
X9799977Y7220311D01*
X9887311Y7132977D01*
X9990004Y7064360D01*
X10104111Y7017095D01*
X10225246Y6993000D01*
X10348754Y6993000D01*
X10469889Y7017095D01*
X10583996Y7064360D01*
X10686689Y7132977D01*
X10774023Y7220311D01*
X10842640Y7323004D01*
X10889905Y7437111D01*
X10914000Y7558246D01*
X10914000Y7681754D01*
X10889905Y7802889D01*
X10842640Y7916996D01*
X10774023Y8019689D01*
X10686689Y8107023D01*
X10583996Y8175640D01*
X10469889Y8222905D01*
X10348754Y8247000D01*
X10225246Y8247000D01*
X10104111Y8222905D01*
X9990004Y8175640D01*
X9887311Y8107023D01*
X9799977Y8019689D01*
X9731360Y7916996D01*
X9684095Y7802889D01*
X9660000Y7681754D01*
X9466021Y7681754D01*
X9444826Y7788305D01*
X9401331Y7893312D01*
X9338185Y7987816D01*
X9257816Y8068185D01*
X9252961Y8071429D01*
X9525978Y8168036D01*
X9778488Y8318183D01*
X9996854Y8514707D01*
X10172684Y8750056D01*
X10299222Y9015186D01*
X10344958Y9165974D01*
X10223817Y9398000D01*
X9017000Y9398000D01*
X9017000Y9378000D01*
X8763000Y9378000D01*
X8763000Y9398000D01*
X8743000Y9398000D01*
X8743000Y9581830D01*
X12123000Y9581830D01*
X12123000Y9468170D01*
X12145174Y9356695D01*
X12188669Y9251688D01*
X12251815Y9157184D01*
X12332184Y9076815D01*
X12426688Y9013669D01*
X12531695Y8970174D01*
X12643170Y8948000D01*
X12756830Y8948000D01*
X12868305Y8970174D01*
X12973312Y9013669D01*
X13067816Y9076815D01*
X13148185Y9157184D01*
X13211331Y9251688D01*
X13254826Y9356695D01*
X13277000Y9468170D01*
X13277000Y9581830D01*
X13254826Y9693305D01*
X13211331Y9798312D01*
X13148185Y9892816D01*
X13067816Y9973185D01*
X12973312Y10036331D01*
X12868305Y10079826D01*
X12756830Y10102000D01*
X12643170Y10102000D01*
X12531695Y10079826D01*
X12426688Y10036331D01*
X12332184Y9973185D01*
X12251815Y9892816D01*
X12188669Y9798312D01*
X12145174Y9693305D01*
X12123000Y9581830D01*
X8743000Y9581830D01*
X8743000Y9652000D01*
X8763000Y9652000D01*
X8763000Y9672000D01*
X9017000Y9672000D01*
X9017000Y9652000D01*
X10223817Y9652000D01*
X10344958Y9884026D01*
X10299222Y10034814D01*
X10172684Y10299944D01*
X9996854Y10535293D01*
X9778488Y10731817D01*
X9525978Y10881964D01*
X9320565Y10954649D01*
X9453961Y11009904D01*
X9648963Y11140200D01*
X9814800Y11306037D01*
X9945096Y11501039D01*
X10034846Y11717715D01*
X10080600Y11947736D01*
X10080600Y12182264D01*
X10034846Y12412285D01*
X9945096Y12628961D01*
X9814800Y12823963D01*
X9648963Y12989800D01*
X9453961Y13120096D01*
X9237285Y13209846D01*
X9007264Y13255600D01*
X8772736Y13255600D01*
X8542715Y13209846D01*
X8326039Y13120096D01*
X8131037Y12989800D01*
X7965200Y12823963D01*
X7834904Y12628961D01*
X7745154Y12412285D01*
X7699400Y12182264D01*
X7699400Y11947736D01*
X7745154Y11717715D01*
X7834904Y11501039D01*
X7965200Y11306037D01*
X8131037Y11140200D01*
X8326039Y11009904D01*
X8459435Y10954649D01*
X8254022Y10881964D01*
X8001512Y10731817D01*
X7783146Y10535293D01*
X7607316Y10299944D01*
X7542182Y10163471D01*
X7542182Y10388600D01*
X7535868Y10452703D01*
X7517170Y10514343D01*
X7486806Y10571150D01*
X7445943Y10620943D01*
X7396150Y10661806D01*
X7339343Y10692170D01*
X7277703Y10710868D01*
X7213600Y10717182D01*
X5486400Y10717182D01*
X5422297Y10710868D01*
X5360657Y10692170D01*
X5303850Y10661806D01*
X5254057Y10620943D01*
X5213194Y10571150D01*
X5182830Y10514343D01*
X5164132Y10452703D01*
X5157818Y10388600D01*
X1358506Y10388600D01*
X1324083Y10561656D01*
X1220282Y10812254D01*
X1069586Y11037787D01*
X877787Y11229586D01*
X652254Y11380282D01*
X532224Y11430000D01*
X652254Y11479718D01*
X877787Y11630414D01*
X1069586Y11822213D01*
X1220282Y12047746D01*
X1276001Y12182264D01*
X5159400Y12182264D01*
X5159400Y11947736D01*
X5205154Y11717715D01*
X5294904Y11501039D01*
X5425200Y11306037D01*
X5591037Y11140200D01*
X5786039Y11009904D01*
X6002715Y10920154D01*
X6232736Y10874400D01*
X6467264Y10874400D01*
X6697285Y10920154D01*
X6913961Y11009904D01*
X7108963Y11140200D01*
X7274800Y11306037D01*
X7405096Y11501039D01*
X7494846Y11717715D01*
X7540600Y11947736D01*
X7540600Y12182264D01*
X7494846Y12412285D01*
X7405096Y12628961D01*
X7274800Y12823963D01*
X7108963Y12989800D01*
X6913961Y13120096D01*
X6697285Y13209846D01*
X6467264Y13255600D01*
X6232736Y13255600D01*
X6002715Y13209846D01*
X5786039Y13120096D01*
X5591037Y12989800D01*
X5425200Y12823963D01*
X5294904Y12628961D01*
X5205154Y12412285D01*
X5159400Y12182264D01*
X1276001Y12182264D01*
X1324083Y12298344D01*
X1377000Y12564377D01*
X1377000Y12835623D01*
X1324083Y13101656D01*
X1220282Y13352254D01*
X1193839Y13391830D01*
X1963000Y13391830D01*
X1963000Y13278170D01*
X1985174Y13166695D01*
X2028669Y13061688D01*
X2091815Y12967184D01*
X2172184Y12886815D01*
X2266688Y12823669D01*
X2371695Y12780174D01*
X2483170Y12758000D01*
X2596830Y12758000D01*
X2708305Y12780174D01*
X2813312Y12823669D01*
X2907816Y12886815D01*
X2988185Y12967184D01*
X3051331Y13061688D01*
X3094826Y13166695D01*
X3117000Y13278170D01*
X3117000Y13391830D01*
X3094826Y13503305D01*
X3051331Y13608312D01*
X2988185Y13702816D01*
X2907816Y13783185D01*
X2813312Y13846331D01*
X2708305Y13889826D01*
X2596830Y13912000D01*
X2483170Y13912000D01*
X2371695Y13889826D01*
X2266688Y13846331D01*
X2172184Y13783185D01*
X2091815Y13702816D01*
X2028669Y13608312D01*
X1985174Y13503305D01*
X1963000Y13391830D01*
X1193839Y13391830D01*
X1069586Y13577787D01*
X877787Y13769586D01*
X652254Y13920282D01*
X532224Y13970000D01*
X652254Y14019718D01*
X877787Y14170414D01*
X1069586Y14362213D01*
X1220282Y14587746D01*
X1276001Y14722264D01*
X5159400Y14722264D01*
X5159400Y14487736D01*
X5205154Y14257715D01*
X5294904Y14041039D01*
X5425200Y13846037D01*
X5591037Y13680200D01*
X5786039Y13549904D01*
X6002715Y13460154D01*
X6232736Y13414400D01*
X6467264Y13414400D01*
X6697285Y13460154D01*
X6913961Y13549904D01*
X7108963Y13680200D01*
X7274800Y13846037D01*
X7405096Y14041039D01*
X7494846Y14257715D01*
X7540600Y14487736D01*
X7540600Y14722264D01*
X7699400Y14722264D01*
X7699400Y14487736D01*
X7745154Y14257715D01*
X7834904Y14041039D01*
X7965200Y13846037D01*
X8131037Y13680200D01*
X8326039Y13549904D01*
X8542715Y13460154D01*
X8772736Y13414400D01*
X9007264Y13414400D01*
X9237285Y13460154D01*
X9453961Y13549904D01*
X9648963Y13680200D01*
X9814800Y13846037D01*
X9945096Y14041039D01*
X10034846Y14257715D01*
X10080600Y14487736D01*
X10080600Y14722264D01*
X10042098Y14915830D01*
X10218000Y14915830D01*
X10218000Y14802170D01*
X10240174Y14690695D01*
X10283669Y14585688D01*
X10346815Y14491184D01*
X10427184Y14410815D01*
X10521688Y14347669D01*
X10626695Y14304174D01*
X10738170Y14282000D01*
X10851830Y14282000D01*
X10963305Y14304174D01*
X11068312Y14347669D01*
X11162816Y14410815D01*
X11243185Y14491184D01*
X11306331Y14585688D01*
X11349826Y14690695D01*
X11372000Y14802170D01*
X11372000Y14915830D01*
X11349826Y15027305D01*
X11306331Y15132312D01*
X11243185Y15226816D01*
X11162816Y15307185D01*
X11068312Y15370331D01*
X10963305Y15413826D01*
X10851830Y15436000D01*
X10738170Y15436000D01*
X10626695Y15413826D01*
X10521688Y15370331D01*
X10427184Y15307185D01*
X10346815Y15226816D01*
X10283669Y15132312D01*
X10240174Y15027305D01*
X10218000Y14915830D01*
X10042098Y14915830D01*
X10034846Y14952285D01*
X9945096Y15168961D01*
X9814800Y15363963D01*
X9648963Y15529800D01*
X9453961Y15660096D01*
X9237285Y15749846D01*
X9007264Y15795600D01*
X8772736Y15795600D01*
X8542715Y15749846D01*
X8326039Y15660096D01*
X8131037Y15529800D01*
X7965200Y15363963D01*
X7834904Y15168961D01*
X7745154Y14952285D01*
X7699400Y14722264D01*
X7540600Y14722264D01*
X7494846Y14952285D01*
X7405096Y15168961D01*
X7274800Y15363963D01*
X7108963Y15529800D01*
X6913961Y15660096D01*
X6697285Y15749846D01*
X6467264Y15795600D01*
X6232736Y15795600D01*
X6002715Y15749846D01*
X5786039Y15660096D01*
X5591037Y15529800D01*
X5425200Y15363963D01*
X5294904Y15168961D01*
X5205154Y14952285D01*
X5159400Y14722264D01*
X1276001Y14722264D01*
X1324083Y14838344D01*
X1377000Y15104377D01*
X1377000Y15375623D01*
X1324083Y15641656D01*
X1220282Y15892254D01*
X1069586Y16117787D01*
X877787Y16309586D01*
X652254Y16460282D01*
X532224Y16510000D01*
X652254Y16559718D01*
X877787Y16710414D01*
X1069586Y16902213D01*
X1220282Y17127746D01*
X1276001Y17262264D01*
X5159400Y17262264D01*
X5159400Y17027736D01*
X5205154Y16797715D01*
X5294904Y16581039D01*
X5425200Y16386037D01*
X5591037Y16220200D01*
X5786039Y16089904D01*
X6002715Y16000154D01*
X6232736Y15954400D01*
X6467264Y15954400D01*
X6697285Y16000154D01*
X6913961Y16089904D01*
X7108963Y16220200D01*
X7274800Y16386037D01*
X7405096Y16581039D01*
X7494846Y16797715D01*
X7540600Y17027736D01*
X7540600Y17262264D01*
X7494846Y17492285D01*
X7405096Y17708961D01*
X7274800Y17903963D01*
X7108963Y18069800D01*
X6913961Y18200096D01*
X6697285Y18289846D01*
X6467264Y18335600D01*
X6232736Y18335600D01*
X6002715Y18289846D01*
X5786039Y18200096D01*
X5591037Y18069800D01*
X5425200Y17903963D01*
X5294904Y17708961D01*
X5205154Y17492285D01*
X5159400Y17262264D01*
X1276001Y17262264D01*
X1324083Y17378344D01*
X1377000Y17644377D01*
X1377000Y17915623D01*
X1324083Y18181656D01*
X1220282Y18432254D01*
X1069586Y18657787D01*
X877787Y18849586D01*
X652254Y19000282D01*
X532224Y19050000D01*
X652254Y19099718D01*
X877787Y19250414D01*
X1069586Y19442213D01*
X1220282Y19667746D01*
X1276001Y19802264D01*
X5159400Y19802264D01*
X5159400Y19567736D01*
X5205154Y19337715D01*
X5294904Y19121039D01*
X5425200Y18926037D01*
X5591037Y18760200D01*
X5786039Y18629904D01*
X6002715Y18540154D01*
X6232736Y18494400D01*
X6467264Y18494400D01*
X6697285Y18540154D01*
X6913961Y18629904D01*
X7108963Y18760200D01*
X7274800Y18926037D01*
X7405096Y19121039D01*
X7458267Y19249404D01*
X7480778Y19175186D01*
X7607316Y18910056D01*
X7783146Y18674707D01*
X8001512Y18478183D01*
X8254022Y18328036D01*
X8459435Y18255351D01*
X8326039Y18200096D01*
X8131037Y18069800D01*
X7965200Y17903963D01*
X7834904Y17708961D01*
X7745154Y17492285D01*
X7699400Y17262264D01*
X7699400Y17027736D01*
X7745154Y16797715D01*
X7834904Y16581039D01*
X7965200Y16386037D01*
X8131037Y16220200D01*
X8326039Y16089904D01*
X8542715Y16000154D01*
X8772736Y15954400D01*
X9007264Y15954400D01*
X9237285Y16000154D01*
X9453961Y16089904D01*
X9648963Y16220200D01*
X9814800Y16386037D01*
X9945096Y16581039D01*
X10034846Y16797715D01*
X10080600Y17027736D01*
X10080600Y17262264D01*
X10034846Y17492285D01*
X9945096Y17708961D01*
X9814800Y17903963D01*
X9648963Y18069800D01*
X9453961Y18200096D01*
X9320565Y18255351D01*
X9525978Y18328036D01*
X9778488Y18478183D01*
X9996854Y18674707D01*
X10172684Y18910056D01*
X10299222Y19175186D01*
X10343704Y19321840D01*
X10346815Y19317184D01*
X10427184Y19236815D01*
X10521688Y19173669D01*
X10626695Y19130174D01*
X10738170Y19108000D01*
X10851830Y19108000D01*
X10963305Y19130174D01*
X11068312Y19173669D01*
X11162816Y19236815D01*
X11243185Y19317184D01*
X11306331Y19411688D01*
X11349826Y19516695D01*
X11372000Y19628170D01*
X11372000Y19741830D01*
X11349826Y19853305D01*
X11306331Y19958312D01*
X11243185Y20052816D01*
X11162816Y20133185D01*
X11068312Y20196331D01*
X10963305Y20239826D01*
X10851830Y20262000D01*
X10738170Y20262000D01*
X10626695Y20239826D01*
X10521688Y20196331D01*
X10427184Y20133185D01*
X10346815Y20052816D01*
X10343704Y20048160D01*
X10299222Y20194814D01*
X10172684Y20459944D01*
X9996854Y20695293D01*
X9778488Y20891817D01*
X9525978Y21041964D01*
X9249027Y21139963D01*
X9017000Y21019464D01*
X9017000Y19812000D01*
X9037000Y19812000D01*
X9037000Y19558000D01*
X9017000Y19558000D01*
X9017000Y19538000D01*
X8763000Y19538000D01*
X8763000Y19558000D01*
X8743000Y19558000D01*
X8743000Y19812000D01*
X8763000Y19812000D01*
X8763000Y21019464D01*
X8530973Y21139963D01*
X8254022Y21041964D01*
X8001512Y20891817D01*
X7783146Y20695293D01*
X7607316Y20459944D01*
X7480778Y20194814D01*
X7458267Y20120596D01*
X7405096Y20248961D01*
X7274800Y20443963D01*
X7108963Y20609800D01*
X6913961Y20740096D01*
X6697285Y20829846D01*
X6467264Y20875600D01*
X6232736Y20875600D01*
X6002715Y20829846D01*
X5786039Y20740096D01*
X5591037Y20609800D01*
X5425200Y20443963D01*
X5294904Y20248961D01*
X5205154Y20032285D01*
X5159400Y19802264D01*
X1276001Y19802264D01*
X1324083Y19918344D01*
X1377000Y20184377D01*
X1377000Y20455623D01*
X1324083Y20721656D01*
X1220282Y20972254D01*
X1069586Y21197787D01*
X877787Y21389586D01*
X652254Y21540282D01*
X532224Y21590000D01*
X652254Y21639718D01*
X877787Y21790414D01*
X1069586Y21982213D01*
X1220282Y22207746D01*
X1250968Y22281830D01*
X7043012Y22281830D01*
X7043012Y22168170D01*
X7065186Y22056695D01*
X7108681Y21951688D01*
X7171827Y21857184D01*
X7252196Y21776815D01*
X7346700Y21713669D01*
X7451707Y21670174D01*
X7563182Y21648000D01*
X7676842Y21648000D01*
X7788317Y21670174D01*
X7893324Y21713669D01*
X7987828Y21776815D01*
X8068197Y21857184D01*
X8131343Y21951688D01*
X8174838Y22056695D01*
X8197012Y22168170D01*
X8197012Y22281830D01*
X8174838Y22393305D01*
X8131343Y22498312D01*
X8068197Y22592816D01*
X7987828Y22673185D01*
X7893324Y22736331D01*
X7788317Y22779826D01*
X7676842Y22802000D01*
X7563182Y22802000D01*
X7451707Y22779826D01*
X7346700Y22736331D01*
X7252196Y22673185D01*
X7171827Y22592816D01*
X7108681Y22498312D01*
X7065186Y22393305D01*
X7043012Y22281830D01*
X1250968Y22281830D01*
X1324083Y22458344D01*
X1377000Y22724377D01*
X1377000Y22970658D01*
X2346596Y22970658D01*
X2346596Y22847150D01*
X2370691Y22726015D01*
X2417956Y22611908D01*
X2486573Y22509215D01*
X2573907Y22421881D01*
X2676600Y22353264D01*
X2790707Y22305999D01*
X2911842Y22281904D01*
X3035350Y22281904D01*
X3156485Y22305999D01*
X3270592Y22353264D01*
X3373285Y22421881D01*
X3460619Y22509215D01*
X3529236Y22611908D01*
X3576501Y22726015D01*
X3600596Y22847150D01*
X3600596Y22970658D01*
X3576501Y23091793D01*
X3529236Y23205900D01*
X3467811Y23297830D01*
X5773000Y23297830D01*
X5773000Y23184170D01*
X5795174Y23072695D01*
X5838669Y22967688D01*
X5901815Y22873184D01*
X5982184Y22792815D01*
X6076688Y22729669D01*
X6181695Y22686174D01*
X6293170Y22664000D01*
X6406830Y22664000D01*
X6518305Y22686174D01*
X6623312Y22729669D01*
X6717816Y22792815D01*
X6798185Y22873184D01*
X6861331Y22967688D01*
X6904826Y23072695D01*
X6927000Y23184170D01*
X6927000Y23297830D01*
X6904826Y23409305D01*
X6861331Y23514312D01*
X6798185Y23608816D01*
X6717816Y23689185D01*
X6623312Y23752331D01*
X6518305Y23795826D01*
X6406830Y23818000D01*
X6293170Y23818000D01*
X6181695Y23795826D01*
X6076688Y23752331D01*
X5982184Y23689185D01*
X5901815Y23608816D01*
X5838669Y23514312D01*
X5795174Y23409305D01*
X5773000Y23297830D01*
X3467811Y23297830D01*
X3460619Y23308593D01*
X3373285Y23395927D01*
X3270592Y23464544D01*
X3156485Y23511809D01*
X3035350Y23535904D01*
X2911842Y23535904D01*
X2790707Y23511809D01*
X2676600Y23464544D01*
X2573907Y23395927D01*
X2486573Y23308593D01*
X2417956Y23205900D01*
X2370691Y23091793D01*
X2346596Y22970658D01*
X1377000Y22970658D01*
X1377000Y22995623D01*
X1324083Y23261656D01*
X1220282Y23512254D01*
X1069586Y23737787D01*
X877787Y23929586D01*
X652254Y24080282D01*
X532224Y24130000D01*
X652254Y24179718D01*
X662897Y24186830D01*
X1328000Y24186830D01*
X1328000Y24073170D01*
X1350174Y23961695D01*
X1393669Y23856688D01*
X1456815Y23762184D01*
X1537184Y23681815D01*
X1631688Y23618669D01*
X1736695Y23575174D01*
X1848170Y23553000D01*
X1961830Y23553000D01*
X2073305Y23575174D01*
X2178312Y23618669D01*
X2272816Y23681815D01*
X2353185Y23762184D01*
X2416331Y23856688D01*
X2459826Y23961695D01*
X2482000Y24073170D01*
X2482000Y24186830D01*
X2459826Y24298305D01*
X2416331Y24403312D01*
X2353185Y24497816D01*
X2283171Y24567830D01*
X9583000Y24567830D01*
X9583000Y24454170D01*
X9605174Y24342695D01*
X9648669Y24237688D01*
X9711815Y24143184D01*
X9792184Y24062815D01*
X9886688Y23999669D01*
X9991695Y23956174D01*
X10103170Y23934000D01*
X10216830Y23934000D01*
X10328305Y23956174D01*
X10433312Y23999669D01*
X10527816Y24062815D01*
X10608185Y24143184D01*
X10671331Y24237688D01*
X10714826Y24342695D01*
X10737000Y24454170D01*
X10737000Y24567830D01*
X10714826Y24679305D01*
X10671331Y24784312D01*
X10646263Y24821829D01*
X11488001Y24821829D01*
X11488001Y24708169D01*
X11510175Y24596694D01*
X11553670Y24491687D01*
X11616816Y24397183D01*
X11697185Y24316814D01*
X11791689Y24253668D01*
X11896696Y24210173D01*
X12008171Y24187999D01*
X12121831Y24187999D01*
X12233306Y24210173D01*
X12338313Y24253668D01*
X12432817Y24316814D01*
X12513186Y24397183D01*
X12576332Y24491687D01*
X12619827Y24596694D01*
X12642001Y24708169D01*
X12642001Y24821829D01*
X12619827Y24933304D01*
X12576332Y25038311D01*
X12513186Y25132815D01*
X12432817Y25213184D01*
X12338313Y25276330D01*
X12233306Y25319825D01*
X12121831Y25341999D01*
X12008171Y25341999D01*
X11896696Y25319825D01*
X11791689Y25276330D01*
X11697185Y25213184D01*
X11616816Y25132815D01*
X11553670Y25038311D01*
X11510175Y24933304D01*
X11488001Y24821829D01*
X10646263Y24821829D01*
X10608185Y24878816D01*
X10527816Y24959185D01*
X10433312Y25022331D01*
X10328305Y25065826D01*
X10216830Y25088000D01*
X10103170Y25088000D01*
X9991695Y25065826D01*
X9886688Y25022331D01*
X9792184Y24959185D01*
X9711815Y24878816D01*
X9648669Y24784312D01*
X9605174Y24679305D01*
X9583000Y24567830D01*
X2283171Y24567830D01*
X2272816Y24578185D01*
X2178312Y24641331D01*
X2073305Y24684826D01*
X1961830Y24707000D01*
X1848170Y24707000D01*
X1736695Y24684826D01*
X1631688Y24641331D01*
X1537184Y24578185D01*
X1456815Y24497816D01*
X1393669Y24403312D01*
X1350174Y24298305D01*
X1328000Y24186830D01*
X662897Y24186830D01*
X877787Y24330414D01*
X1069586Y24522213D01*
X1220282Y24747746D01*
X1324083Y24998344D01*
X1377000Y25264377D01*
X1377000Y25535623D01*
X1324083Y25801656D01*
X1220282Y26052254D01*
X1069586Y26277787D01*
X877787Y26469586D01*
X652254Y26620282D01*
X532224Y26670000D01*
X652254Y26719718D01*
X877787Y26870414D01*
X1069586Y27062213D01*
X1220282Y27287746D01*
X1324083Y27538344D01*
X1377000Y27804377D01*
X1377000Y28075623D01*
X1324083Y28341656D01*
X1220282Y28592254D01*
X1069586Y28817787D01*
X979373Y28908000D01*
X14260627Y28908000D01*
X14170414Y28817787D01*
%TA.AperFunction,Conductor*%
D19*
G36*
X14170414Y28817787D02*
G01*
X14019718Y28592254D01*
X13915917Y28341656D01*
X13863000Y28075623D01*
X13863000Y27804377D01*
X13915917Y27538344D01*
X14019718Y27287746D01*
X14170414Y27062213D01*
X14362213Y26870414D01*
X14587746Y26719718D01*
X14707776Y26670000D01*
X14587746Y26620282D01*
X14362213Y26469586D01*
X14170414Y26277787D01*
X14019718Y26052254D01*
X13915917Y25801656D01*
X13863000Y25535623D01*
X13863000Y25264377D01*
X13915917Y24998344D01*
X14019718Y24747746D01*
X14170414Y24522213D01*
X14362213Y24330414D01*
X14587746Y24179718D01*
X14707776Y24130000D01*
X14587746Y24080282D01*
X14362213Y23929586D01*
X14170414Y23737787D01*
X14019718Y23512254D01*
X13915917Y23261656D01*
X13863000Y22995623D01*
X13863000Y22724377D01*
X13915917Y22458344D01*
X14019718Y22207746D01*
X14170414Y21982213D01*
X14362213Y21790414D01*
X14587746Y21639718D01*
X14707776Y21590000D01*
X14587746Y21540282D01*
X14362213Y21389586D01*
X14170414Y21197787D01*
X14019718Y20972254D01*
X13915917Y20721656D01*
X13863000Y20455623D01*
X13863000Y20184377D01*
X13915917Y19918344D01*
X14019718Y19667746D01*
X14170414Y19442213D01*
X14362213Y19250414D01*
X14587746Y19099718D01*
X14707776Y19050000D01*
X14587746Y19000282D01*
X14362213Y18849586D01*
X14170414Y18657787D01*
X14019718Y18432254D01*
X13915917Y18181656D01*
X13863000Y17915623D01*
X13863000Y17644377D01*
X13915917Y17378344D01*
X14019718Y17127746D01*
X14170414Y16902213D01*
X14362213Y16710414D01*
X14587746Y16559718D01*
X14707776Y16510000D01*
X14587746Y16460282D01*
X14362213Y16309586D01*
X14170414Y16117787D01*
X14019718Y15892254D01*
X13915917Y15641656D01*
X13863000Y15375623D01*
X13863000Y15104377D01*
X13915917Y14838344D01*
X14019718Y14587746D01*
X14170414Y14362213D01*
X14362213Y14170414D01*
X14587746Y14019718D01*
X14707776Y13970000D01*
X14587746Y13920282D01*
X14362213Y13769586D01*
X14170414Y13577787D01*
X14019718Y13352254D01*
X13915917Y13101656D01*
X13863000Y12835623D01*
X13863000Y12564377D01*
X13915917Y12298344D01*
X14019718Y12047746D01*
X14170414Y11822213D01*
X14362213Y11630414D01*
X14587746Y11479718D01*
X14707776Y11430000D01*
X14587746Y11380282D01*
X14362213Y11229586D01*
X14170414Y11037787D01*
X14019718Y10812254D01*
X13915917Y10561656D01*
X13863000Y10295623D01*
X13863000Y10024377D01*
X13915917Y9758344D01*
X14019718Y9507746D01*
X14170414Y9282213D01*
X14362213Y9090414D01*
X14587746Y8939718D01*
X14707776Y8890000D01*
X14587746Y8840282D01*
X14362213Y8689586D01*
X14170414Y8497787D01*
X14019718Y8272254D01*
X13915917Y8021656D01*
X13863000Y7755623D01*
X13863000Y7484377D01*
X13915917Y7218344D01*
X14019718Y6967746D01*
X14170414Y6742213D01*
X14362213Y6550414D01*
X14587746Y6399718D01*
X14707776Y6350000D01*
X14587746Y6300282D01*
X14362213Y6149586D01*
X14170414Y5957787D01*
X14019718Y5732254D01*
X13915917Y5481656D01*
X13863000Y5215623D01*
X13863000Y4944377D01*
X13915917Y4678344D01*
X14019718Y4427746D01*
X14170414Y4202213D01*
X14362213Y4010414D01*
X14381743Y3997365D01*
X14350339Y3980579D01*
X14248539Y3711066D01*
X15240000Y2719605D01*
X15254143Y2733747D01*
X15433748Y2554142D01*
X15419605Y2540000D01*
X15433748Y2525857D01*
X15254143Y2346252D01*
X15240000Y2360395D01*
X14248539Y1368934D01*
X14350339Y1099421D01*
X14382969Y1083455D01*
X14362213Y1069586D01*
X14170414Y877787D01*
X14019718Y652254D01*
X13915917Y401656D01*
X13863000Y135623D01*
X13863000Y-135623D01*
X13915917Y-401656D01*
X14019718Y-652254D01*
X14170414Y-877787D01*
X14260627Y-968000D01*
X1378582Y-968000D01*
X1378582Y1050000D01*
X1372268Y1114103D01*
X1353570Y1175743D01*
X1323206Y1232550D01*
X1282343Y1282343D01*
X1232550Y1323206D01*
X1175743Y1353570D01*
X1114103Y1372268D01*
X1050000Y1378582D01*
X740350Y1378582D01*
X877787Y1470414D01*
X1069586Y1662213D01*
X1088152Y1690000D01*
X2321928Y1690000D01*
X2334188Y1565518D01*
X2370498Y1445820D01*
X2429463Y1335506D01*
X2508815Y1238815D01*
X2605506Y1159463D01*
X2715820Y1100498D01*
X2835518Y1064188D01*
X2960000Y1051928D01*
X3524250Y1055000D01*
X3683000Y1213750D01*
X3683000Y2413000D01*
X2483750Y2413000D01*
X2325000Y2254250D01*
X2321928Y1690000D01*
X1088152Y1690000D01*
X1220282Y1887746D01*
X1324083Y2138344D01*
X1377000Y2404377D01*
X1377000Y2675623D01*
X1324083Y2941656D01*
X1220282Y3192254D01*
X1088153Y3390000D01*
X2321928Y3390000D01*
X2325000Y2825750D01*
X2483750Y2667000D01*
X3683000Y2667000D01*
X3683000Y3866250D01*
X3937000Y3866250D01*
X3937000Y2667000D01*
X3957000Y2667000D01*
X3957000Y2413000D01*
X3937000Y2413000D01*
X3937000Y1213750D01*
X4095750Y1055000D01*
X4660000Y1051928D01*
X4784482Y1064188D01*
X4904180Y1100498D01*
X5014494Y1159463D01*
X5111185Y1238815D01*
X5190537Y1335506D01*
X5249502Y1445820D01*
X5285812Y1565518D01*
X5298072Y1690000D01*
X5296340Y2008110D01*
X5306956Y1982481D01*
X5435764Y1789706D01*
X5599706Y1625764D01*
X5792481Y1496956D01*
X6006682Y1408231D01*
X6234076Y1363000D01*
X6465924Y1363000D01*
X6693318Y1408231D01*
X6907519Y1496956D01*
X7100294Y1625764D01*
X7264236Y1789706D01*
X7393044Y1982481D01*
X7481769Y2196682D01*
X7527000Y2424076D01*
X7527000Y2655924D01*
X7713000Y2655924D01*
X7713000Y2424076D01*
X7758231Y2196682D01*
X7846956Y1982481D01*
X7975764Y1789706D01*
X8139706Y1625764D01*
X8332481Y1496956D01*
X8546682Y1408231D01*
X8774076Y1363000D01*
X9005924Y1363000D01*
X9233318Y1408231D01*
X9447519Y1496956D01*
X9640294Y1625764D01*
X9804236Y1789706D01*
X9933044Y1982481D01*
X10021769Y2196682D01*
X10067000Y2424076D01*
X10067000Y2655924D01*
X10253000Y2655924D01*
X10253000Y2424076D01*
X10298231Y2196682D01*
X10386956Y1982481D01*
X10515764Y1789706D01*
X10679706Y1625764D01*
X10872481Y1496956D01*
X11086682Y1408231D01*
X11314076Y1363000D01*
X11545924Y1363000D01*
X11773318Y1408231D01*
X11987519Y1496956D01*
X12180294Y1625764D01*
X12344236Y1789706D01*
X12473044Y1982481D01*
X12561769Y2196682D01*
X12607000Y2424076D01*
X12607000Y2479383D01*
X13547934Y2479383D01*
X13592272Y2150443D01*
X13699931Y1836473D01*
X13799421Y1650339D01*
X14068934Y1548539D01*
X15060395Y2540000D01*
X14068934Y3531461D01*
X13799421Y3429661D01*
X13653537Y3131523D01*
X13568620Y2810654D01*
X13547934Y2479383D01*
X12607000Y2479383D01*
X12607000Y2655924D01*
X12561769Y2883318D01*
X12473044Y3097519D01*
X12344236Y3290294D01*
X12180294Y3454236D01*
X11987519Y3583044D01*
X11773318Y3671769D01*
X11545924Y3717000D01*
X11314076Y3717000D01*
X11086682Y3671769D01*
X10872481Y3583044D01*
X10679706Y3454236D01*
X10515764Y3290294D01*
X10386956Y3097519D01*
X10298231Y2883318D01*
X10253000Y2655924D01*
X10067000Y2655924D01*
X10021769Y2883318D01*
X9933044Y3097519D01*
X9804236Y3290294D01*
X9640294Y3454236D01*
X9447519Y3583044D01*
X9233318Y3671769D01*
X9005924Y3717000D01*
X8774076Y3717000D01*
X8546682Y3671769D01*
X8332481Y3583044D01*
X8139706Y3454236D01*
X7975764Y3290294D01*
X7846956Y3097519D01*
X7758231Y2883318D01*
X7713000Y2655924D01*
X7527000Y2655924D01*
X7481769Y2883318D01*
X7393044Y3097519D01*
X7264236Y3290294D01*
X7100294Y3454236D01*
X6907519Y3583044D01*
X6693318Y3671769D01*
X6465924Y3717000D01*
X6234076Y3717000D01*
X6006682Y3671769D01*
X5792481Y3583044D01*
X5599706Y3454236D01*
X5435764Y3290294D01*
X5306956Y3097519D01*
X5296340Y3071890D01*
X5298072Y3390000D01*
X5285812Y3514482D01*
X5249502Y3634180D01*
X5190537Y3744494D01*
X5111185Y3841185D01*
X5014494Y3920537D01*
X4904180Y3979502D01*
X4784482Y4015812D01*
X4660000Y4028072D01*
X4095750Y4025000D01*
X3937000Y3866250D01*
X3683000Y3866250D01*
X3524250Y4025000D01*
X2960000Y4028072D01*
X2835518Y4015812D01*
X2715820Y3979502D01*
X2605506Y3920537D01*
X2508815Y3841185D01*
X2429463Y3744494D01*
X2370498Y3634180D01*
X2334188Y3514482D01*
X2321928Y3390000D01*
X1088153Y3390000D01*
X1069586Y3417787D01*
X877787Y3609586D01*
X858257Y3622635D01*
X889661Y3639421D01*
X991461Y3908934D01*
X0Y4900395D01*
X-14142Y4886252D01*
X-193747Y5065857D01*
X-179605Y5080000D01*
X-193747Y5094142D01*
X-14142Y5273747D01*
X0Y5259605D01*
X14143Y5273747D01*
X193748Y5094142D01*
X179605Y5080000D01*
X1171066Y4088539D01*
X1440579Y4190339D01*
X1586463Y4488477D01*
X1671380Y4809346D01*
X1692066Y5140617D01*
X1647728Y5469557D01*
X1544080Y5771830D01*
X12123000Y5771830D01*
X12123000Y5658170D01*
X12145174Y5546695D01*
X12188669Y5441688D01*
X12251815Y5347184D01*
X12332184Y5266815D01*
X12426688Y5203669D01*
X12531695Y5160174D01*
X12643170Y5138000D01*
X12756830Y5138000D01*
X12868305Y5160174D01*
X12973312Y5203669D01*
X13067816Y5266815D01*
X13148185Y5347184D01*
X13211331Y5441688D01*
X13254826Y5546695D01*
X13277000Y5658170D01*
X13277000Y5771830D01*
X13254826Y5883305D01*
X13211331Y5988312D01*
X13148185Y6082816D01*
X13067816Y6163185D01*
X12973312Y6226331D01*
X12868305Y6269826D01*
X12756830Y6292000D01*
X12643170Y6292000D01*
X12531695Y6269826D01*
X12426688Y6226331D01*
X12332184Y6163185D01*
X12251815Y6082816D01*
X12188669Y5988312D01*
X12145174Y5883305D01*
X12123000Y5771830D01*
X1544080Y5771830D01*
X1540069Y5783527D01*
X1516526Y5827574D01*
X1543312Y5838669D01*
X1637816Y5901815D01*
X1718185Y5982184D01*
X1781331Y6076688D01*
X1824826Y6181695D01*
X1847000Y6293170D01*
X1847000Y6406830D01*
X1824826Y6518305D01*
X1781331Y6623312D01*
X1718185Y6717816D01*
X1637816Y6798185D01*
X1543312Y6861331D01*
X1511187Y6874638D01*
X1586463Y7028477D01*
X1623606Y7168830D01*
X4503000Y7168830D01*
X4503000Y7055170D01*
X4525174Y6943695D01*
X4568669Y6838688D01*
X4631815Y6744184D01*
X4712184Y6663815D01*
X4806688Y6600669D01*
X4911695Y6557174D01*
X5023170Y6535000D01*
X5136830Y6535000D01*
X5248305Y6557174D01*
X5353312Y6600669D01*
X5447816Y6663815D01*
X5528185Y6744184D01*
X5591331Y6838688D01*
X5634826Y6943695D01*
X5657000Y7055170D01*
X5657000Y7168830D01*
X5634826Y7280305D01*
X5591331Y7385312D01*
X5528185Y7479816D01*
X5447816Y7560185D01*
X5353312Y7623331D01*
X5248305Y7666826D01*
X5136830Y7689000D01*
X5023170Y7689000D01*
X4911695Y7666826D01*
X4806688Y7623331D01*
X4712184Y7560185D01*
X4631815Y7479816D01*
X4568669Y7385312D01*
X4525174Y7280305D01*
X4503000Y7168830D01*
X1623606Y7168830D01*
X1671380Y7349346D01*
X1692066Y7680617D01*
X1647728Y8009557D01*
X1540069Y8323527D01*
X1440579Y8509661D01*
X1171066Y8611461D01*
X179605Y7620000D01*
X193748Y7605857D01*
X14143Y7426252D01*
X0Y7440395D01*
X-14142Y7426252D01*
X-193747Y7605857D01*
X-179605Y7620000D01*
X-193747Y7634142D01*
X-14142Y7813747D01*
X0Y7799605D01*
X991461Y8791066D01*
X889661Y9060579D01*
X857031Y9076545D01*
X877787Y9090414D01*
X1069586Y9282213D01*
X1220282Y9507746D01*
X1324083Y9758344D01*
X1377000Y10024377D01*
X1377000Y10295623D01*
X1358506Y10388600D01*
X5157818Y10388600D01*
X5157818Y8661400D01*
X5164132Y8597297D01*
X5182830Y8535657D01*
X5213194Y8478850D01*
X5254057Y8429057D01*
X5303850Y8388194D01*
X5360657Y8357830D01*
X5422297Y8339132D01*
X5486400Y8332818D01*
X7213600Y8332818D01*
X7277703Y8339132D01*
X7339343Y8357830D01*
X7396150Y8388194D01*
X7445943Y8429057D01*
X7486806Y8478850D01*
X7517170Y8535657D01*
X7535868Y8597297D01*
X7542182Y8661400D01*
X7542182Y8886529D01*
X7607316Y8750056D01*
X7783146Y8514707D01*
X8001512Y8318183D01*
X8254022Y8168036D01*
X8527039Y8071429D01*
X8522184Y8068185D01*
X8441815Y7987816D01*
X8378669Y7893312D01*
X8335174Y7788305D01*
X8313000Y7676830D01*
X8313000Y7563170D01*
X8335174Y7451695D01*
X8378669Y7346688D01*
X8441815Y7252184D01*
X8522184Y7171815D01*
X8616688Y7108669D01*
X8721695Y7065174D01*
X8833170Y7043000D01*
X8946830Y7043000D01*
X9058305Y7065174D01*
X9163312Y7108669D01*
X9257816Y7171815D01*
X9338185Y7252184D01*
X9401331Y7346688D01*
X9444826Y7451695D01*
X9467000Y7563170D01*
X9467000Y7676830D01*
X9466021Y7681754D01*
X9660000Y7681754D01*
X9660000Y7558246D01*
X9684095Y7437111D01*
X9731360Y7323004D01*
X9799977Y7220311D01*
X9887311Y7132977D01*
X9990004Y7064360D01*
X10104111Y7017095D01*
X10225246Y6993000D01*
X10348754Y6993000D01*
X10469889Y7017095D01*
X10583996Y7064360D01*
X10686689Y7132977D01*
X10774023Y7220311D01*
X10842640Y7323004D01*
X10889905Y7437111D01*
X10914000Y7558246D01*
X10914000Y7681754D01*
X10889905Y7802889D01*
X10842640Y7916996D01*
X10774023Y8019689D01*
X10686689Y8107023D01*
X10583996Y8175640D01*
X10469889Y8222905D01*
X10348754Y8247000D01*
X10225246Y8247000D01*
X10104111Y8222905D01*
X9990004Y8175640D01*
X9887311Y8107023D01*
X9799977Y8019689D01*
X9731360Y7916996D01*
X9684095Y7802889D01*
X9660000Y7681754D01*
X9466021Y7681754D01*
X9444826Y7788305D01*
X9401331Y7893312D01*
X9338185Y7987816D01*
X9257816Y8068185D01*
X9252961Y8071429D01*
X9525978Y8168036D01*
X9778488Y8318183D01*
X9996854Y8514707D01*
X10172684Y8750056D01*
X10299222Y9015186D01*
X10344958Y9165974D01*
X10223817Y9398000D01*
X9017000Y9398000D01*
X9017000Y9378000D01*
X8763000Y9378000D01*
X8763000Y9398000D01*
X8743000Y9398000D01*
X8743000Y9581830D01*
X12123000Y9581830D01*
X12123000Y9468170D01*
X12145174Y9356695D01*
X12188669Y9251688D01*
X12251815Y9157184D01*
X12332184Y9076815D01*
X12426688Y9013669D01*
X12531695Y8970174D01*
X12643170Y8948000D01*
X12756830Y8948000D01*
X12868305Y8970174D01*
X12973312Y9013669D01*
X13067816Y9076815D01*
X13148185Y9157184D01*
X13211331Y9251688D01*
X13254826Y9356695D01*
X13277000Y9468170D01*
X13277000Y9581830D01*
X13254826Y9693305D01*
X13211331Y9798312D01*
X13148185Y9892816D01*
X13067816Y9973185D01*
X12973312Y10036331D01*
X12868305Y10079826D01*
X12756830Y10102000D01*
X12643170Y10102000D01*
X12531695Y10079826D01*
X12426688Y10036331D01*
X12332184Y9973185D01*
X12251815Y9892816D01*
X12188669Y9798312D01*
X12145174Y9693305D01*
X12123000Y9581830D01*
X8743000Y9581830D01*
X8743000Y9652000D01*
X8763000Y9652000D01*
X8763000Y9672000D01*
X9017000Y9672000D01*
X9017000Y9652000D01*
X10223817Y9652000D01*
X10344958Y9884026D01*
X10299222Y10034814D01*
X10172684Y10299944D01*
X9996854Y10535293D01*
X9778488Y10731817D01*
X9525978Y10881964D01*
X9320565Y10954649D01*
X9453961Y11009904D01*
X9648963Y11140200D01*
X9814800Y11306037D01*
X9945096Y11501039D01*
X10034846Y11717715D01*
X10080600Y11947736D01*
X10080600Y12182264D01*
X10034846Y12412285D01*
X9945096Y12628961D01*
X9814800Y12823963D01*
X9648963Y12989800D01*
X9453961Y13120096D01*
X9237285Y13209846D01*
X9007264Y13255600D01*
X8772736Y13255600D01*
X8542715Y13209846D01*
X8326039Y13120096D01*
X8131037Y12989800D01*
X7965200Y12823963D01*
X7834904Y12628961D01*
X7745154Y12412285D01*
X7699400Y12182264D01*
X7699400Y11947736D01*
X7745154Y11717715D01*
X7834904Y11501039D01*
X7965200Y11306037D01*
X8131037Y11140200D01*
X8326039Y11009904D01*
X8459435Y10954649D01*
X8254022Y10881964D01*
X8001512Y10731817D01*
X7783146Y10535293D01*
X7607316Y10299944D01*
X7542182Y10163471D01*
X7542182Y10388600D01*
X7535868Y10452703D01*
X7517170Y10514343D01*
X7486806Y10571150D01*
X7445943Y10620943D01*
X7396150Y10661806D01*
X7339343Y10692170D01*
X7277703Y10710868D01*
X7213600Y10717182D01*
X5486400Y10717182D01*
X5422297Y10710868D01*
X5360657Y10692170D01*
X5303850Y10661806D01*
X5254057Y10620943D01*
X5213194Y10571150D01*
X5182830Y10514343D01*
X5164132Y10452703D01*
X5157818Y10388600D01*
X1358506Y10388600D01*
X1324083Y10561656D01*
X1220282Y10812254D01*
X1069586Y11037787D01*
X877787Y11229586D01*
X652254Y11380282D01*
X532224Y11430000D01*
X652254Y11479718D01*
X877787Y11630414D01*
X1069586Y11822213D01*
X1220282Y12047746D01*
X1276001Y12182264D01*
X5159400Y12182264D01*
X5159400Y11947736D01*
X5205154Y11717715D01*
X5294904Y11501039D01*
X5425200Y11306037D01*
X5591037Y11140200D01*
X5786039Y11009904D01*
X6002715Y10920154D01*
X6232736Y10874400D01*
X6467264Y10874400D01*
X6697285Y10920154D01*
X6913961Y11009904D01*
X7108963Y11140200D01*
X7274800Y11306037D01*
X7405096Y11501039D01*
X7494846Y11717715D01*
X7540600Y11947736D01*
X7540600Y12182264D01*
X7494846Y12412285D01*
X7405096Y12628961D01*
X7274800Y12823963D01*
X7108963Y12989800D01*
X6913961Y13120096D01*
X6697285Y13209846D01*
X6467264Y13255600D01*
X6232736Y13255600D01*
X6002715Y13209846D01*
X5786039Y13120096D01*
X5591037Y12989800D01*
X5425200Y12823963D01*
X5294904Y12628961D01*
X5205154Y12412285D01*
X5159400Y12182264D01*
X1276001Y12182264D01*
X1324083Y12298344D01*
X1377000Y12564377D01*
X1377000Y12835623D01*
X1324083Y13101656D01*
X1220282Y13352254D01*
X1193839Y13391830D01*
X1963000Y13391830D01*
X1963000Y13278170D01*
X1985174Y13166695D01*
X2028669Y13061688D01*
X2091815Y12967184D01*
X2172184Y12886815D01*
X2266688Y12823669D01*
X2371695Y12780174D01*
X2483170Y12758000D01*
X2596830Y12758000D01*
X2708305Y12780174D01*
X2813312Y12823669D01*
X2907816Y12886815D01*
X2988185Y12967184D01*
X3051331Y13061688D01*
X3094826Y13166695D01*
X3117000Y13278170D01*
X3117000Y13391830D01*
X3094826Y13503305D01*
X3051331Y13608312D01*
X2988185Y13702816D01*
X2907816Y13783185D01*
X2813312Y13846331D01*
X2708305Y13889826D01*
X2596830Y13912000D01*
X2483170Y13912000D01*
X2371695Y13889826D01*
X2266688Y13846331D01*
X2172184Y13783185D01*
X2091815Y13702816D01*
X2028669Y13608312D01*
X1985174Y13503305D01*
X1963000Y13391830D01*
X1193839Y13391830D01*
X1069586Y13577787D01*
X877787Y13769586D01*
X652254Y13920282D01*
X532224Y13970000D01*
X652254Y14019718D01*
X877787Y14170414D01*
X1069586Y14362213D01*
X1220282Y14587746D01*
X1276001Y14722264D01*
X5159400Y14722264D01*
X5159400Y14487736D01*
X5205154Y14257715D01*
X5294904Y14041039D01*
X5425200Y13846037D01*
X5591037Y13680200D01*
X5786039Y13549904D01*
X6002715Y13460154D01*
X6232736Y13414400D01*
X6467264Y13414400D01*
X6697285Y13460154D01*
X6913961Y13549904D01*
X7108963Y13680200D01*
X7274800Y13846037D01*
X7405096Y14041039D01*
X7494846Y14257715D01*
X7540600Y14487736D01*
X7540600Y14722264D01*
X7699400Y14722264D01*
X7699400Y14487736D01*
X7745154Y14257715D01*
X7834904Y14041039D01*
X7965200Y13846037D01*
X8131037Y13680200D01*
X8326039Y13549904D01*
X8542715Y13460154D01*
X8772736Y13414400D01*
X9007264Y13414400D01*
X9237285Y13460154D01*
X9453961Y13549904D01*
X9648963Y13680200D01*
X9814800Y13846037D01*
X9945096Y14041039D01*
X10034846Y14257715D01*
X10080600Y14487736D01*
X10080600Y14722264D01*
X10042098Y14915830D01*
X10218000Y14915830D01*
X10218000Y14802170D01*
X10240174Y14690695D01*
X10283669Y14585688D01*
X10346815Y14491184D01*
X10427184Y14410815D01*
X10521688Y14347669D01*
X10626695Y14304174D01*
X10738170Y14282000D01*
X10851830Y14282000D01*
X10963305Y14304174D01*
X11068312Y14347669D01*
X11162816Y14410815D01*
X11243185Y14491184D01*
X11306331Y14585688D01*
X11349826Y14690695D01*
X11372000Y14802170D01*
X11372000Y14915830D01*
X11349826Y15027305D01*
X11306331Y15132312D01*
X11243185Y15226816D01*
X11162816Y15307185D01*
X11068312Y15370331D01*
X10963305Y15413826D01*
X10851830Y15436000D01*
X10738170Y15436000D01*
X10626695Y15413826D01*
X10521688Y15370331D01*
X10427184Y15307185D01*
X10346815Y15226816D01*
X10283669Y15132312D01*
X10240174Y15027305D01*
X10218000Y14915830D01*
X10042098Y14915830D01*
X10034846Y14952285D01*
X9945096Y15168961D01*
X9814800Y15363963D01*
X9648963Y15529800D01*
X9453961Y15660096D01*
X9237285Y15749846D01*
X9007264Y15795600D01*
X8772736Y15795600D01*
X8542715Y15749846D01*
X8326039Y15660096D01*
X8131037Y15529800D01*
X7965200Y15363963D01*
X7834904Y15168961D01*
X7745154Y14952285D01*
X7699400Y14722264D01*
X7540600Y14722264D01*
X7494846Y14952285D01*
X7405096Y15168961D01*
X7274800Y15363963D01*
X7108963Y15529800D01*
X6913961Y15660096D01*
X6697285Y15749846D01*
X6467264Y15795600D01*
X6232736Y15795600D01*
X6002715Y15749846D01*
X5786039Y15660096D01*
X5591037Y15529800D01*
X5425200Y15363963D01*
X5294904Y15168961D01*
X5205154Y14952285D01*
X5159400Y14722264D01*
X1276001Y14722264D01*
X1324083Y14838344D01*
X1377000Y15104377D01*
X1377000Y15375623D01*
X1324083Y15641656D01*
X1220282Y15892254D01*
X1069586Y16117787D01*
X877787Y16309586D01*
X652254Y16460282D01*
X532224Y16510000D01*
X652254Y16559718D01*
X877787Y16710414D01*
X1069586Y16902213D01*
X1220282Y17127746D01*
X1276001Y17262264D01*
X5159400Y17262264D01*
X5159400Y17027736D01*
X5205154Y16797715D01*
X5294904Y16581039D01*
X5425200Y16386037D01*
X5591037Y16220200D01*
X5786039Y16089904D01*
X6002715Y16000154D01*
X6232736Y15954400D01*
X6467264Y15954400D01*
X6697285Y16000154D01*
X6913961Y16089904D01*
X7108963Y16220200D01*
X7274800Y16386037D01*
X7405096Y16581039D01*
X7494846Y16797715D01*
X7540600Y17027736D01*
X7540600Y17262264D01*
X7494846Y17492285D01*
X7405096Y17708961D01*
X7274800Y17903963D01*
X7108963Y18069800D01*
X6913961Y18200096D01*
X6697285Y18289846D01*
X6467264Y18335600D01*
X6232736Y18335600D01*
X6002715Y18289846D01*
X5786039Y18200096D01*
X5591037Y18069800D01*
X5425200Y17903963D01*
X5294904Y17708961D01*
X5205154Y17492285D01*
X5159400Y17262264D01*
X1276001Y17262264D01*
X1324083Y17378344D01*
X1377000Y17644377D01*
X1377000Y17915623D01*
X1324083Y18181656D01*
X1220282Y18432254D01*
X1069586Y18657787D01*
X877787Y18849586D01*
X652254Y19000282D01*
X532224Y19050000D01*
X652254Y19099718D01*
X877787Y19250414D01*
X1069586Y19442213D01*
X1220282Y19667746D01*
X1276001Y19802264D01*
X5159400Y19802264D01*
X5159400Y19567736D01*
X5205154Y19337715D01*
X5294904Y19121039D01*
X5425200Y18926037D01*
X5591037Y18760200D01*
X5786039Y18629904D01*
X6002715Y18540154D01*
X6232736Y18494400D01*
X6467264Y18494400D01*
X6697285Y18540154D01*
X6913961Y18629904D01*
X7108963Y18760200D01*
X7274800Y18926037D01*
X7405096Y19121039D01*
X7458267Y19249404D01*
X7480778Y19175186D01*
X7607316Y18910056D01*
X7783146Y18674707D01*
X8001512Y18478183D01*
X8254022Y18328036D01*
X8459435Y18255351D01*
X8326039Y18200096D01*
X8131037Y18069800D01*
X7965200Y17903963D01*
X7834904Y17708961D01*
X7745154Y17492285D01*
X7699400Y17262264D01*
X7699400Y17027736D01*
X7745154Y16797715D01*
X7834904Y16581039D01*
X7965200Y16386037D01*
X8131037Y16220200D01*
X8326039Y16089904D01*
X8542715Y16000154D01*
X8772736Y15954400D01*
X9007264Y15954400D01*
X9237285Y16000154D01*
X9453961Y16089904D01*
X9648963Y16220200D01*
X9814800Y16386037D01*
X9945096Y16581039D01*
X10034846Y16797715D01*
X10080600Y17027736D01*
X10080600Y17262264D01*
X10034846Y17492285D01*
X9945096Y17708961D01*
X9814800Y17903963D01*
X9648963Y18069800D01*
X9453961Y18200096D01*
X9320565Y18255351D01*
X9525978Y18328036D01*
X9778488Y18478183D01*
X9996854Y18674707D01*
X10172684Y18910056D01*
X10299222Y19175186D01*
X10343704Y19321840D01*
X10346815Y19317184D01*
X10427184Y19236815D01*
X10521688Y19173669D01*
X10626695Y19130174D01*
X10738170Y19108000D01*
X10851830Y19108000D01*
X10963305Y19130174D01*
X11068312Y19173669D01*
X11162816Y19236815D01*
X11243185Y19317184D01*
X11306331Y19411688D01*
X11349826Y19516695D01*
X11372000Y19628170D01*
X11372000Y19741830D01*
X11349826Y19853305D01*
X11306331Y19958312D01*
X11243185Y20052816D01*
X11162816Y20133185D01*
X11068312Y20196331D01*
X10963305Y20239826D01*
X10851830Y20262000D01*
X10738170Y20262000D01*
X10626695Y20239826D01*
X10521688Y20196331D01*
X10427184Y20133185D01*
X10346815Y20052816D01*
X10343704Y20048160D01*
X10299222Y20194814D01*
X10172684Y20459944D01*
X9996854Y20695293D01*
X9778488Y20891817D01*
X9525978Y21041964D01*
X9249027Y21139963D01*
X9017000Y21019464D01*
X9017000Y19812000D01*
X9037000Y19812000D01*
X9037000Y19558000D01*
X9017000Y19558000D01*
X9017000Y19538000D01*
X8763000Y19538000D01*
X8763000Y19558000D01*
X8743000Y19558000D01*
X8743000Y19812000D01*
X8763000Y19812000D01*
X8763000Y21019464D01*
X8530973Y21139963D01*
X8254022Y21041964D01*
X8001512Y20891817D01*
X7783146Y20695293D01*
X7607316Y20459944D01*
X7480778Y20194814D01*
X7458267Y20120596D01*
X7405096Y20248961D01*
X7274800Y20443963D01*
X7108963Y20609800D01*
X6913961Y20740096D01*
X6697285Y20829846D01*
X6467264Y20875600D01*
X6232736Y20875600D01*
X6002715Y20829846D01*
X5786039Y20740096D01*
X5591037Y20609800D01*
X5425200Y20443963D01*
X5294904Y20248961D01*
X5205154Y20032285D01*
X5159400Y19802264D01*
X1276001Y19802264D01*
X1324083Y19918344D01*
X1377000Y20184377D01*
X1377000Y20455623D01*
X1324083Y20721656D01*
X1220282Y20972254D01*
X1069586Y21197787D01*
X877787Y21389586D01*
X652254Y21540282D01*
X532224Y21590000D01*
X652254Y21639718D01*
X877787Y21790414D01*
X1069586Y21982213D01*
X1220282Y22207746D01*
X1250968Y22281830D01*
X7043012Y22281830D01*
X7043012Y22168170D01*
X7065186Y22056695D01*
X7108681Y21951688D01*
X7171827Y21857184D01*
X7252196Y21776815D01*
X7346700Y21713669D01*
X7451707Y21670174D01*
X7563182Y21648000D01*
X7676842Y21648000D01*
X7788317Y21670174D01*
X7893324Y21713669D01*
X7987828Y21776815D01*
X8068197Y21857184D01*
X8131343Y21951688D01*
X8174838Y22056695D01*
X8197012Y22168170D01*
X8197012Y22281830D01*
X8174838Y22393305D01*
X8131343Y22498312D01*
X8068197Y22592816D01*
X7987828Y22673185D01*
X7893324Y22736331D01*
X7788317Y22779826D01*
X7676842Y22802000D01*
X7563182Y22802000D01*
X7451707Y22779826D01*
X7346700Y22736331D01*
X7252196Y22673185D01*
X7171827Y22592816D01*
X7108681Y22498312D01*
X7065186Y22393305D01*
X7043012Y22281830D01*
X1250968Y22281830D01*
X1324083Y22458344D01*
X1377000Y22724377D01*
X1377000Y22970658D01*
X2346596Y22970658D01*
X2346596Y22847150D01*
X2370691Y22726015D01*
X2417956Y22611908D01*
X2486573Y22509215D01*
X2573907Y22421881D01*
X2676600Y22353264D01*
X2790707Y22305999D01*
X2911842Y22281904D01*
X3035350Y22281904D01*
X3156485Y22305999D01*
X3270592Y22353264D01*
X3373285Y22421881D01*
X3460619Y22509215D01*
X3529236Y22611908D01*
X3576501Y22726015D01*
X3600596Y22847150D01*
X3600596Y22970658D01*
X3576501Y23091793D01*
X3529236Y23205900D01*
X3467811Y23297830D01*
X5773000Y23297830D01*
X5773000Y23184170D01*
X5795174Y23072695D01*
X5838669Y22967688D01*
X5901815Y22873184D01*
X5982184Y22792815D01*
X6076688Y22729669D01*
X6181695Y22686174D01*
X6293170Y22664000D01*
X6406830Y22664000D01*
X6518305Y22686174D01*
X6623312Y22729669D01*
X6717816Y22792815D01*
X6798185Y22873184D01*
X6861331Y22967688D01*
X6904826Y23072695D01*
X6927000Y23184170D01*
X6927000Y23297830D01*
X6904826Y23409305D01*
X6861331Y23514312D01*
X6798185Y23608816D01*
X6717816Y23689185D01*
X6623312Y23752331D01*
X6518305Y23795826D01*
X6406830Y23818000D01*
X6293170Y23818000D01*
X6181695Y23795826D01*
X6076688Y23752331D01*
X5982184Y23689185D01*
X5901815Y23608816D01*
X5838669Y23514312D01*
X5795174Y23409305D01*
X5773000Y23297830D01*
X3467811Y23297830D01*
X3460619Y23308593D01*
X3373285Y23395927D01*
X3270592Y23464544D01*
X3156485Y23511809D01*
X3035350Y23535904D01*
X2911842Y23535904D01*
X2790707Y23511809D01*
X2676600Y23464544D01*
X2573907Y23395927D01*
X2486573Y23308593D01*
X2417956Y23205900D01*
X2370691Y23091793D01*
X2346596Y22970658D01*
X1377000Y22970658D01*
X1377000Y22995623D01*
X1324083Y23261656D01*
X1220282Y23512254D01*
X1069586Y23737787D01*
X877787Y23929586D01*
X652254Y24080282D01*
X532224Y24130000D01*
X652254Y24179718D01*
X662897Y24186830D01*
X1328000Y24186830D01*
X1328000Y24073170D01*
X1350174Y23961695D01*
X1393669Y23856688D01*
X1456815Y23762184D01*
X1537184Y23681815D01*
X1631688Y23618669D01*
X1736695Y23575174D01*
X1848170Y23553000D01*
X1961830Y23553000D01*
X2073305Y23575174D01*
X2178312Y23618669D01*
X2272816Y23681815D01*
X2353185Y23762184D01*
X2416331Y23856688D01*
X2459826Y23961695D01*
X2482000Y24073170D01*
X2482000Y24186830D01*
X2459826Y24298305D01*
X2416331Y24403312D01*
X2353185Y24497816D01*
X2283171Y24567830D01*
X9583000Y24567830D01*
X9583000Y24454170D01*
X9605174Y24342695D01*
X9648669Y24237688D01*
X9711815Y24143184D01*
X9792184Y24062815D01*
X9886688Y23999669D01*
X9991695Y23956174D01*
X10103170Y23934000D01*
X10216830Y23934000D01*
X10328305Y23956174D01*
X10433312Y23999669D01*
X10527816Y24062815D01*
X10608185Y24143184D01*
X10671331Y24237688D01*
X10714826Y24342695D01*
X10737000Y24454170D01*
X10737000Y24567830D01*
X10714826Y24679305D01*
X10671331Y24784312D01*
X10646263Y24821829D01*
X11488001Y24821829D01*
X11488001Y24708169D01*
X11510175Y24596694D01*
X11553670Y24491687D01*
X11616816Y24397183D01*
X11697185Y24316814D01*
X11791689Y24253668D01*
X11896696Y24210173D01*
X12008171Y24187999D01*
X12121831Y24187999D01*
X12233306Y24210173D01*
X12338313Y24253668D01*
X12432817Y24316814D01*
X12513186Y24397183D01*
X12576332Y24491687D01*
X12619827Y24596694D01*
X12642001Y24708169D01*
X12642001Y24821829D01*
X12619827Y24933304D01*
X12576332Y25038311D01*
X12513186Y25132815D01*
X12432817Y25213184D01*
X12338313Y25276330D01*
X12233306Y25319825D01*
X12121831Y25341999D01*
X12008171Y25341999D01*
X11896696Y25319825D01*
X11791689Y25276330D01*
X11697185Y25213184D01*
X11616816Y25132815D01*
X11553670Y25038311D01*
X11510175Y24933304D01*
X11488001Y24821829D01*
X10646263Y24821829D01*
X10608185Y24878816D01*
X10527816Y24959185D01*
X10433312Y25022331D01*
X10328305Y25065826D01*
X10216830Y25088000D01*
X10103170Y25088000D01*
X9991695Y25065826D01*
X9886688Y25022331D01*
X9792184Y24959185D01*
X9711815Y24878816D01*
X9648669Y24784312D01*
X9605174Y24679305D01*
X9583000Y24567830D01*
X2283171Y24567830D01*
X2272816Y24578185D01*
X2178312Y24641331D01*
X2073305Y24684826D01*
X1961830Y24707000D01*
X1848170Y24707000D01*
X1736695Y24684826D01*
X1631688Y24641331D01*
X1537184Y24578185D01*
X1456815Y24497816D01*
X1393669Y24403312D01*
X1350174Y24298305D01*
X1328000Y24186830D01*
X662897Y24186830D01*
X877787Y24330414D01*
X1069586Y24522213D01*
X1220282Y24747746D01*
X1324083Y24998344D01*
X1377000Y25264377D01*
X1377000Y25535623D01*
X1324083Y25801656D01*
X1220282Y26052254D01*
X1069586Y26277787D01*
X877787Y26469586D01*
X652254Y26620282D01*
X532224Y26670000D01*
X652254Y26719718D01*
X877787Y26870414D01*
X1069586Y27062213D01*
X1220282Y27287746D01*
X1324083Y27538344D01*
X1377000Y27804377D01*
X1377000Y28075623D01*
X1324083Y28341656D01*
X1220282Y28592254D01*
X1069586Y28817787D01*
X979373Y28908000D01*
X14260627Y28908000D01*
X14170414Y28817787D01*
G37*
%TD.AperFunction*%
%TD*%
D20*
X12700000Y21590000D03*
X12700000Y19050000D03*
X12065000Y16446548D03*
X13970000Y16446548D03*
X13970000Y11366548D03*
X13970000Y13906548D03*
D21*
X10160000Y5080000D03*
D20*
X10033000Y21717000D03*
D21*
X6350000Y21590000D03*
X1270000Y21590000D03*
X5715000Y0D03*
X6350000Y7620000D03*
X11176000Y9525000D03*
X3810000Y25019000D03*
X10414000Y11811000D03*
X4064000Y10795000D03*
X4064000Y8382000D03*
X5080000Y5715000D03*
X13589000Y889000D03*
X9525000Y635000D03*
D20*
X10287000Y7620000D03*
X2973596Y22908904D03*
D21*
X5080000Y7112000D03*
X7620012Y22225000D03*
X2540000Y13335000D03*
X12700000Y9525000D03*
X10795000Y19685000D03*
X10795000Y14859000D03*
X10160000Y24511000D03*
X1270000Y6350000D03*
X12065001Y24764999D03*
X1905000Y24130000D03*
X6350000Y23241000D03*
X8890000Y7620000D03*
X12700000Y5715000D03*
D22*
X8890000Y19685000D03*
X6350000Y19685000D03*
X8890000Y17145000D03*
X6350000Y17145000D03*
X8890000Y14605000D03*
X6350000Y14605000D03*
X8890000Y12065000D03*
X6350000Y12065000D03*
X8890000Y9525000D03*
X6350000Y9525000D03*
X0Y0D03*
X0Y2540000D03*
X0Y5080000D03*
X15240000Y27940000D03*
X0Y7620000D03*
X15240000Y25400000D03*
X0Y10160000D03*
X15240000Y22860000D03*
X0Y12700000D03*
X15240000Y20320000D03*
X0Y15240000D03*
X15240000Y17780000D03*
X0Y17780000D03*
X15240000Y15240000D03*
X0Y20320000D03*
X15240000Y12700000D03*
X0Y22860000D03*
X15240000Y10160000D03*
X0Y25400000D03*
X15240000Y7620000D03*
X0Y27940000D03*
X15240000Y5080000D03*
X15240000Y2540000D03*
X15240000Y0D03*
X11430000Y2540000D03*
X8890000Y2540000D03*
X6350000Y2540000D03*
X3810000Y2540000D03*
M02*
