M48
; DRILL file {KiCad 5.1.7+dfsg1-1~bpo10+1} date Sun Nov 22 15:45:14 2020
; FORMAT={-:-/ absolute / metric / decimal}
; #@! TF.CreationDate,2020-11-22T15:45:14+00:00
; #@! TF.GenerationSoftware,Kicad,Pcbnew,5.1.7+dfsg1-1~bpo10+1
; #@! TF.FileFunction,Plated,1,4,PTH
FMAT,2
METRIC
T1C0.200
T2C0.300
T3C1.000
T4C1.016
T5C1.400
%
G90
G05
T1
X1.27Y21.59
X1.27Y6.35
X1.905Y24.13
X2.54Y13.335
X3.81Y25.019
X4.064Y10.795
X4.064Y8.382
X5.08Y7.112
X5.08Y5.715
X5.715Y0.0
X6.35Y23.241
X6.35Y21.59
X6.35Y7.62
X7.62Y22.225
X8.89Y7.62
X9.525Y0.635
X10.16Y24.511
X10.16Y5.08
X10.414Y11.811
X10.795Y19.685
X10.795Y14.859
X11.176Y9.525
X12.065Y24.765
X12.7Y9.525
X12.7Y5.715
X13.589Y0.889
T2
X2.974Y22.909
X10.033Y21.717
X10.287Y7.62
X12.065Y16.447
X12.7Y21.59
X12.7Y19.05
X13.97Y16.447
X13.97Y13.907
X13.97Y11.367
T3
X3.81Y2.54
X6.35Y2.54
X8.89Y2.54
X11.43Y2.54
T4
X6.35Y19.685
X6.35Y17.145
X6.35Y14.605
X6.35Y12.065
X6.35Y9.525
X8.89Y19.685
X8.89Y17.145
X8.89Y14.605
X8.89Y12.065
X8.89Y9.525
T5
X0.0Y27.94
X0.0Y25.4
X0.0Y22.86
X0.0Y20.32
X0.0Y17.78
X0.0Y15.24
X0.0Y12.7
X0.0Y10.16
X0.0Y7.62
X0.0Y5.08
X0.0Y2.54
X0.0Y0.0
X15.24Y27.94
X15.24Y25.4
X15.24Y22.86
X15.24Y20.32
X15.24Y17.78
X15.24Y15.24
X15.24Y12.7
X15.24Y10.16
X15.24Y7.62
X15.24Y5.08
X15.24Y2.54
X15.24Y0.0
T0
M30
