M48
; DRILL file {KiCad 5.1.5+dfsg1-2build2} date Mon 15 Mar 2021 10:22:13 PM CET
; FORMAT={-:-/ absolute / inch / decimal}
; #@! TF.CreationDate,2021-03-15T22:22:13+01:00
; #@! TF.GenerationSoftware,Kicad,Pcbnew,5.1.5+dfsg1-2build2
; #@! TF.FileFunction,Plated,1,2,PTH
FMAT,2
INCH
T1C0.0079
T2C0.0394
T3C0.0400
T4C0.0551
%
G90
G05
T1
X5.425Y-4.475
X5.435Y-4.33
X5.545Y-4.585
X5.55Y-4.3
X5.575Y-4.415
X5.6Y-4.5
X5.625Y-4.6
X5.63Y-4.3
X5.65Y-4.15
X5.68Y-4.3
X5.7Y-4.35
X5.7Y-4.505
X5.705Y-4.45
X5.73Y-4.26
X5.74Y-4.61
X5.775Y-4.54
X5.775Y-4.6
X5.825Y-4.26
X5.8475Y-4.65
X5.865Y-4.51
X5.925Y-4.2
X5.9475Y-4.65
X5.95Y-4.505
X6.02Y-4.265
X6.025Y-4.325
X6.0475Y-4.65
X6.15Y-4.6
X6.175Y-4.525
X6.25Y-4.15
X6.25Y-4.35
X6.25Y-4.6
X6.255Y-4.495
X6.275Y-4.4
X6.3Y-4.27
X6.3019Y-4.2171
X6.315Y-4.35
X6.35Y-4.19
X6.365Y-4.5
X6.375Y-4.575
X6.385Y-4.25
T2
X5.5Y-4.25
X5.5Y-4.35
X5.5Y-4.45
X5.5Y-4.55
T3
X5.775Y-4.35
X5.775Y-4.45
X5.875Y-4.35
X5.875Y-4.45
X5.975Y-4.35
X5.975Y-4.45
X6.075Y-4.35
X6.075Y-4.45
X6.175Y-4.35
X6.175Y-4.45
T4
X5.4Y-4.1
X5.4Y-4.7
X5.5Y-4.1
X5.5Y-4.7
X5.6Y-4.1
X5.6Y-4.7
X5.7Y-4.1
X5.7Y-4.7
X5.8Y-4.1
X5.8Y-4.7
X5.9Y-4.1
X5.9Y-4.7
X6.0Y-4.1
X6.0Y-4.7
X6.1Y-4.1
X6.1Y-4.7
X6.2Y-4.1
X6.2Y-4.7
X6.3Y-4.1
X6.3Y-4.7
X6.4Y-4.1
X6.4Y-4.7
X6.5Y-4.1
X6.5Y-4.7
T0
M30
