%TF.GenerationSoftware,KiCad,Pcbnew,5.1.9+dfsg1-1~bpo10+1*%
%TF.CreationDate,Date%
%TF.ProjectId,ProMicro_BOOST,50726f4d-6963-4726-9f5f-424f4f53542e,v1.8*%
%TF.SameCoordinates,Original*%
%TF.FileFunction,Paste,Top*%
%TF.FilePolarity,Positive*%
%FSLAX46Y46*%
G04 Gerber Fmt 4.6, Leading zero omitted, Abs format (unit mm)*
G04 Created by KiCad*
%MOMM*%
%LPD*%
G01*
G04 APERTURE LIST*
%ADD10R,5.100000X2.350000*%
%ADD11R,0.650000X1.060000*%
G04 APERTURE END LIST*
D10*
%TO.C,L1*%
X23241000Y-7282000D03*
X23241000Y-3132000D03*
%TD*%
%TO.C,C3*%
G36*
G01*
X19306250Y-2825000D02*
X18793750Y-2825000D01*
G75*
G02*
X18575000Y-2606250I0J218750D01*
G01*
X18575000Y-2168750D01*
G75*
G02*
X18793750Y-1950000I218750J0D01*
G01*
X19306250Y-1950000D01*
G75*
G02*
X19525000Y-2168750I0J-218750D01*
G01*
X19525000Y-2606250D01*
G75*
G02*
X19306250Y-2825000I-218750J0D01*
G01*
G37*
G36*
G01*
X19306250Y-4400000D02*
X18793750Y-4400000D01*
G75*
G02*
X18575000Y-4181250I0J218750D01*
G01*
X18575000Y-3743750D01*
G75*
G02*
X18793750Y-3525000I218750J0D01*
G01*
X19306250Y-3525000D01*
G75*
G02*
X19525000Y-3743750I0J-218750D01*
G01*
X19525000Y-4181250D01*
G75*
G02*
X19306250Y-4400000I-218750J0D01*
G01*
G37*
%TD*%
%TO.C,C6*%
G36*
G01*
X18793750Y-12415000D02*
X19306250Y-12415000D01*
G75*
G02*
X19525000Y-12633750I0J-218750D01*
G01*
X19525000Y-13071250D01*
G75*
G02*
X19306250Y-13290000I-218750J0D01*
G01*
X18793750Y-13290000D01*
G75*
G02*
X18575000Y-13071250I0J218750D01*
G01*
X18575000Y-12633750D01*
G75*
G02*
X18793750Y-12415000I218750J0D01*
G01*
G37*
G36*
G01*
X18793750Y-10840000D02*
X19306250Y-10840000D01*
G75*
G02*
X19525000Y-11058750I0J-218750D01*
G01*
X19525000Y-11496250D01*
G75*
G02*
X19306250Y-11715000I-218750J0D01*
G01*
X18793750Y-11715000D01*
G75*
G02*
X18575000Y-11496250I0J218750D01*
G01*
X18575000Y-11058750D01*
G75*
G02*
X18793750Y-10840000I218750J0D01*
G01*
G37*
%TD*%
%TO.C,C7*%
G36*
G01*
X16888750Y-12415000D02*
X17401250Y-12415000D01*
G75*
G02*
X17620000Y-12633750I0J-218750D01*
G01*
X17620000Y-13071250D01*
G75*
G02*
X17401250Y-13290000I-218750J0D01*
G01*
X16888750Y-13290000D01*
G75*
G02*
X16670000Y-13071250I0J218750D01*
G01*
X16670000Y-12633750D01*
G75*
G02*
X16888750Y-12415000I218750J0D01*
G01*
G37*
G36*
G01*
X16888750Y-10840000D02*
X17401250Y-10840000D01*
G75*
G02*
X17620000Y-11058750I0J-218750D01*
G01*
X17620000Y-11496250D01*
G75*
G02*
X17401250Y-11715000I-218750J0D01*
G01*
X16888750Y-11715000D01*
G75*
G02*
X16670000Y-11496250I0J218750D01*
G01*
X16670000Y-11058750D01*
G75*
G02*
X16888750Y-10840000I218750J0D01*
G01*
G37*
%TD*%
%TO.C,C5*%
G36*
G01*
X10445000Y-5458750D02*
X10445000Y-5971250D01*
G75*
G02*
X10226250Y-6190000I-218750J0D01*
G01*
X9788750Y-6190000D01*
G75*
G02*
X9570000Y-5971250I0J218750D01*
G01*
X9570000Y-5458750D01*
G75*
G02*
X9788750Y-5240000I218750J0D01*
G01*
X10226250Y-5240000D01*
G75*
G02*
X10445000Y-5458750I0J-218750D01*
G01*
G37*
G36*
G01*
X12020000Y-5458750D02*
X12020000Y-5971250D01*
G75*
G02*
X11801250Y-6190000I-218750J0D01*
G01*
X11363750Y-6190000D01*
G75*
G02*
X11145000Y-5971250I0J218750D01*
G01*
X11145000Y-5458750D01*
G75*
G02*
X11363750Y-5240000I218750J0D01*
G01*
X11801250Y-5240000D01*
G75*
G02*
X12020000Y-5458750I0J-218750D01*
G01*
G37*
%TD*%
%TO.C,C4*%
G36*
G01*
X17401250Y-2825000D02*
X16888750Y-2825000D01*
G75*
G02*
X16670000Y-2606250I0J218750D01*
G01*
X16670000Y-2168750D01*
G75*
G02*
X16888750Y-1950000I218750J0D01*
G01*
X17401250Y-1950000D01*
G75*
G02*
X17620000Y-2168750I0J-218750D01*
G01*
X17620000Y-2606250D01*
G75*
G02*
X17401250Y-2825000I-218750J0D01*
G01*
G37*
G36*
G01*
X17401250Y-4400000D02*
X16888750Y-4400000D01*
G75*
G02*
X16670000Y-4181250I0J218750D01*
G01*
X16670000Y-3743750D01*
G75*
G02*
X16888750Y-3525000I218750J0D01*
G01*
X17401250Y-3525000D01*
G75*
G02*
X17620000Y-3743750I0J-218750D01*
G01*
X17620000Y-4181250D01*
G75*
G02*
X17401250Y-4400000I-218750J0D01*
G01*
G37*
%TD*%
%TO.C,R8*%
G36*
G01*
X13078750Y-12415000D02*
X13591250Y-12415000D01*
G75*
G02*
X13810000Y-12633750I0J-218750D01*
G01*
X13810000Y-13071250D01*
G75*
G02*
X13591250Y-13290000I-218750J0D01*
G01*
X13078750Y-13290000D01*
G75*
G02*
X12860000Y-13071250I0J218750D01*
G01*
X12860000Y-12633750D01*
G75*
G02*
X13078750Y-12415000I218750J0D01*
G01*
G37*
G36*
G01*
X13078750Y-10840000D02*
X13591250Y-10840000D01*
G75*
G02*
X13810000Y-11058750I0J-218750D01*
G01*
X13810000Y-11496250D01*
G75*
G02*
X13591250Y-11715000I-218750J0D01*
G01*
X13078750Y-11715000D01*
G75*
G02*
X12860000Y-11496250I0J218750D01*
G01*
X12860000Y-11058750D01*
G75*
G02*
X13078750Y-10840000I218750J0D01*
G01*
G37*
%TD*%
%TO.C,R7*%
G36*
G01*
X15496250Y-11715000D02*
X14983750Y-11715000D01*
G75*
G02*
X14765000Y-11496250I0J218750D01*
G01*
X14765000Y-11058750D01*
G75*
G02*
X14983750Y-10840000I218750J0D01*
G01*
X15496250Y-10840000D01*
G75*
G02*
X15715000Y-11058750I0J-218750D01*
G01*
X15715000Y-11496250D01*
G75*
G02*
X15496250Y-11715000I-218750J0D01*
G01*
G37*
G36*
G01*
X15496250Y-13290000D02*
X14983750Y-13290000D01*
G75*
G02*
X14765000Y-13071250I0J218750D01*
G01*
X14765000Y-12633750D01*
G75*
G02*
X14983750Y-12415000I218750J0D01*
G01*
X15496250Y-12415000D01*
G75*
G02*
X15715000Y-12633750I0J-218750D01*
G01*
X15715000Y-13071250D01*
G75*
G02*
X15496250Y-13290000I-218750J0D01*
G01*
G37*
%TD*%
%TO.C,R6*%
G36*
G01*
X14983750Y-3525000D02*
X15496250Y-3525000D01*
G75*
G02*
X15715000Y-3743750I0J-218750D01*
G01*
X15715000Y-4181250D01*
G75*
G02*
X15496250Y-4400000I-218750J0D01*
G01*
X14983750Y-4400000D01*
G75*
G02*
X14765000Y-4181250I0J218750D01*
G01*
X14765000Y-3743750D01*
G75*
G02*
X14983750Y-3525000I218750J0D01*
G01*
G37*
G36*
G01*
X14983750Y-1950000D02*
X15496250Y-1950000D01*
G75*
G02*
X15715000Y-2168750I0J-218750D01*
G01*
X15715000Y-2606250D01*
G75*
G02*
X15496250Y-2825000I-218750J0D01*
G01*
X14983750Y-2825000D01*
G75*
G02*
X14765000Y-2606250I0J218750D01*
G01*
X14765000Y-2168750D01*
G75*
G02*
X14983750Y-1950000I218750J0D01*
G01*
G37*
%TD*%
%TO.C,R5*%
G36*
G01*
X13591250Y-2825000D02*
X13078750Y-2825000D01*
G75*
G02*
X12860000Y-2606250I0J218750D01*
G01*
X12860000Y-2168750D01*
G75*
G02*
X13078750Y-1950000I218750J0D01*
G01*
X13591250Y-1950000D01*
G75*
G02*
X13810000Y-2168750I0J-218750D01*
G01*
X13810000Y-2606250D01*
G75*
G02*
X13591250Y-2825000I-218750J0D01*
G01*
G37*
G36*
G01*
X13591250Y-4400000D02*
X13078750Y-4400000D01*
G75*
G02*
X12860000Y-4181250I0J218750D01*
G01*
X12860000Y-3743750D01*
G75*
G02*
X13078750Y-3525000I218750J0D01*
G01*
X13591250Y-3525000D01*
G75*
G02*
X13810000Y-3743750I0J-218750D01*
G01*
X13810000Y-4181250D01*
G75*
G02*
X13591250Y-4400000I-218750J0D01*
G01*
G37*
%TD*%
%TO.C,R4*%
G36*
G01*
X13591250Y-7270000D02*
X13078750Y-7270000D01*
G75*
G02*
X12860000Y-7051250I0J218750D01*
G01*
X12860000Y-6613750D01*
G75*
G02*
X13078750Y-6395000I218750J0D01*
G01*
X13591250Y-6395000D01*
G75*
G02*
X13810000Y-6613750I0J-218750D01*
G01*
X13810000Y-7051250D01*
G75*
G02*
X13591250Y-7270000I-218750J0D01*
G01*
G37*
G36*
G01*
X13591250Y-8845000D02*
X13078750Y-8845000D01*
G75*
G02*
X12860000Y-8626250I0J218750D01*
G01*
X12860000Y-8188750D01*
G75*
G02*
X13078750Y-7970000I218750J0D01*
G01*
X13591250Y-7970000D01*
G75*
G02*
X13810000Y-8188750I0J-218750D01*
G01*
X13810000Y-8626250D01*
G75*
G02*
X13591250Y-8845000I-218750J0D01*
G01*
G37*
%TD*%
%TO.C,R3*%
G36*
G01*
X25115000Y-13718250D02*
X25115000Y-13205750D01*
G75*
G02*
X25333750Y-12987000I218750J0D01*
G01*
X25771250Y-12987000D01*
G75*
G02*
X25990000Y-13205750I0J-218750D01*
G01*
X25990000Y-13718250D01*
G75*
G02*
X25771250Y-13937000I-218750J0D01*
G01*
X25333750Y-13937000D01*
G75*
G02*
X25115000Y-13718250I0J218750D01*
G01*
G37*
G36*
G01*
X23540000Y-13718250D02*
X23540000Y-13205750D01*
G75*
G02*
X23758750Y-12987000I218750J0D01*
G01*
X24196250Y-12987000D01*
G75*
G02*
X24415000Y-13205750I0J-218750D01*
G01*
X24415000Y-13718250D01*
G75*
G02*
X24196250Y-13937000I-218750J0D01*
G01*
X23758750Y-13937000D01*
G75*
G02*
X23540000Y-13718250I0J218750D01*
G01*
G37*
%TD*%
%TO.C,U2*%
G36*
G01*
X18295000Y-9257500D02*
X18295000Y-9907500D01*
G75*
G02*
X18207500Y-9995000I-87500J0D01*
G01*
X18032500Y-9995000D01*
G75*
G02*
X17945000Y-9907500I0J87500D01*
G01*
X17945000Y-9257500D01*
G75*
G02*
X18032500Y-9170000I87500J0D01*
G01*
X18207500Y-9170000D01*
G75*
G02*
X18295000Y-9257500I0J-87500D01*
G01*
G37*
G36*
G01*
X17645000Y-9257500D02*
X17645000Y-9907500D01*
G75*
G02*
X17557500Y-9995000I-87500J0D01*
G01*
X17382500Y-9995000D01*
G75*
G02*
X17295000Y-9907500I0J87500D01*
G01*
X17295000Y-9257500D01*
G75*
G02*
X17382500Y-9170000I87500J0D01*
G01*
X17557500Y-9170000D01*
G75*
G02*
X17645000Y-9257500I0J-87500D01*
G01*
G37*
G36*
G01*
X16995000Y-9257500D02*
X16995000Y-9907500D01*
G75*
G02*
X16907500Y-9995000I-87500J0D01*
G01*
X16732500Y-9995000D01*
G75*
G02*
X16645000Y-9907500I0J87500D01*
G01*
X16645000Y-9257500D01*
G75*
G02*
X16732500Y-9170000I87500J0D01*
G01*
X16907500Y-9170000D01*
G75*
G02*
X16995000Y-9257500I0J-87500D01*
G01*
G37*
G36*
G01*
X16345000Y-9257500D02*
X16345000Y-9907500D01*
G75*
G02*
X16257500Y-9995000I-87500J0D01*
G01*
X16082500Y-9995000D01*
G75*
G02*
X15995000Y-9907500I0J87500D01*
G01*
X15995000Y-9257500D01*
G75*
G02*
X16082500Y-9170000I87500J0D01*
G01*
X16257500Y-9170000D01*
G75*
G02*
X16345000Y-9257500I0J-87500D01*
G01*
G37*
G36*
G01*
X15595000Y-8507500D02*
X15595000Y-8682500D01*
G75*
G02*
X15507500Y-8770000I-87500J0D01*
G01*
X14857500Y-8770000D01*
G75*
G02*
X14770000Y-8682500I0J87500D01*
G01*
X14770000Y-8507500D01*
G75*
G02*
X14857500Y-8420000I87500J0D01*
G01*
X15507500Y-8420000D01*
G75*
G02*
X15595000Y-8507500I0J-87500D01*
G01*
G37*
G36*
G01*
X15595000Y-7857500D02*
X15595000Y-8032500D01*
G75*
G02*
X15507500Y-8120000I-87500J0D01*
G01*
X14857500Y-8120000D01*
G75*
G02*
X14770000Y-8032500I0J87500D01*
G01*
X14770000Y-7857500D01*
G75*
G02*
X14857500Y-7770000I87500J0D01*
G01*
X15507500Y-7770000D01*
G75*
G02*
X15595000Y-7857500I0J-87500D01*
G01*
G37*
G36*
G01*
X15595000Y-7207500D02*
X15595000Y-7382500D01*
G75*
G02*
X15507500Y-7470000I-87500J0D01*
G01*
X14857500Y-7470000D01*
G75*
G02*
X14770000Y-7382500I0J87500D01*
G01*
X14770000Y-7207500D01*
G75*
G02*
X14857500Y-7120000I87500J0D01*
G01*
X15507500Y-7120000D01*
G75*
G02*
X15595000Y-7207500I0J-87500D01*
G01*
G37*
G36*
G01*
X15595000Y-6557500D02*
X15595000Y-6732500D01*
G75*
G02*
X15507500Y-6820000I-87500J0D01*
G01*
X14857500Y-6820000D01*
G75*
G02*
X14770000Y-6732500I0J87500D01*
G01*
X14770000Y-6557500D01*
G75*
G02*
X14857500Y-6470000I87500J0D01*
G01*
X15507500Y-6470000D01*
G75*
G02*
X15595000Y-6557500I0J-87500D01*
G01*
G37*
G36*
G01*
X16345000Y-5332500D02*
X16345000Y-5982500D01*
G75*
G02*
X16257500Y-6070000I-87500J0D01*
G01*
X16082500Y-6070000D01*
G75*
G02*
X15995000Y-5982500I0J87500D01*
G01*
X15995000Y-5332500D01*
G75*
G02*
X16082500Y-5245000I87500J0D01*
G01*
X16257500Y-5245000D01*
G75*
G02*
X16345000Y-5332500I0J-87500D01*
G01*
G37*
G36*
G01*
X16995000Y-5332500D02*
X16995000Y-5982500D01*
G75*
G02*
X16907500Y-6070000I-87500J0D01*
G01*
X16732500Y-6070000D01*
G75*
G02*
X16645000Y-5982500I0J87500D01*
G01*
X16645000Y-5332500D01*
G75*
G02*
X16732500Y-5245000I87500J0D01*
G01*
X16907500Y-5245000D01*
G75*
G02*
X16995000Y-5332500I0J-87500D01*
G01*
G37*
G36*
G01*
X17645000Y-5332500D02*
X17645000Y-5982500D01*
G75*
G02*
X17557500Y-6070000I-87500J0D01*
G01*
X17382500Y-6070000D01*
G75*
G02*
X17295000Y-5982500I0J87500D01*
G01*
X17295000Y-5332500D01*
G75*
G02*
X17382500Y-5245000I87500J0D01*
G01*
X17557500Y-5245000D01*
G75*
G02*
X17645000Y-5332500I0J-87500D01*
G01*
G37*
G36*
G01*
X18295000Y-5332500D02*
X18295000Y-5982500D01*
G75*
G02*
X18207500Y-6070000I-87500J0D01*
G01*
X18032500Y-6070000D01*
G75*
G02*
X17945000Y-5982500I0J87500D01*
G01*
X17945000Y-5332500D01*
G75*
G02*
X18032500Y-5245000I87500J0D01*
G01*
X18207500Y-5245000D01*
G75*
G02*
X18295000Y-5332500I0J-87500D01*
G01*
G37*
G36*
G01*
X19520000Y-6557500D02*
X19520000Y-6732500D01*
G75*
G02*
X19432500Y-6820000I-87500J0D01*
G01*
X18782500Y-6820000D01*
G75*
G02*
X18695000Y-6732500I0J87500D01*
G01*
X18695000Y-6557500D01*
G75*
G02*
X18782500Y-6470000I87500J0D01*
G01*
X19432500Y-6470000D01*
G75*
G02*
X19520000Y-6557500I0J-87500D01*
G01*
G37*
G36*
G01*
X19520000Y-7207500D02*
X19520000Y-7382500D01*
G75*
G02*
X19432500Y-7470000I-87500J0D01*
G01*
X18782500Y-7470000D01*
G75*
G02*
X18695000Y-7382500I0J87500D01*
G01*
X18695000Y-7207500D01*
G75*
G02*
X18782500Y-7120000I87500J0D01*
G01*
X19432500Y-7120000D01*
G75*
G02*
X19520000Y-7207500I0J-87500D01*
G01*
G37*
G36*
G01*
X19520000Y-7857500D02*
X19520000Y-8032500D01*
G75*
G02*
X19432500Y-8120000I-87500J0D01*
G01*
X18782500Y-8120000D01*
G75*
G02*
X18695000Y-8032500I0J87500D01*
G01*
X18695000Y-7857500D01*
G75*
G02*
X18782500Y-7770000I87500J0D01*
G01*
X19432500Y-7770000D01*
G75*
G02*
X19520000Y-7857500I0J-87500D01*
G01*
G37*
G36*
G01*
X19520000Y-8507500D02*
X19520000Y-8682500D01*
G75*
G02*
X19432500Y-8770000I-87500J0D01*
G01*
X18782500Y-8770000D01*
G75*
G02*
X18695000Y-8682500I0J87500D01*
G01*
X18695000Y-8507500D01*
G75*
G02*
X18782500Y-8420000I87500J0D01*
G01*
X19432500Y-8420000D01*
G75*
G02*
X19520000Y-8507500I0J-87500D01*
G01*
G37*
G36*
G01*
X17072297Y-6831351D02*
X17072297Y-7308649D01*
G75*
G02*
X16833649Y-7547297I-238648J0D01*
G01*
X16356351Y-7547297D01*
G75*
G02*
X16117703Y-7308649I0J238648D01*
G01*
X16117703Y-6831351D01*
G75*
G02*
X16356351Y-6592703I238648J0D01*
G01*
X16833649Y-6592703D01*
G75*
G02*
X17072297Y-6831351I0J-238648D01*
G01*
G37*
G36*
G01*
X17072297Y-7931351D02*
X17072297Y-8408649D01*
G75*
G02*
X16833649Y-8647297I-238648J0D01*
G01*
X16356351Y-8647297D01*
G75*
G02*
X16117703Y-8408649I0J238648D01*
G01*
X16117703Y-7931351D01*
G75*
G02*
X16356351Y-7692703I238648J0D01*
G01*
X16833649Y-7692703D01*
G75*
G02*
X17072297Y-7931351I0J-238648D01*
G01*
G37*
G36*
G01*
X18172297Y-6831351D02*
X18172297Y-7308649D01*
G75*
G02*
X17933649Y-7547297I-238648J0D01*
G01*
X17456351Y-7547297D01*
G75*
G02*
X17217703Y-7308649I0J238648D01*
G01*
X17217703Y-6831351D01*
G75*
G02*
X17456351Y-6592703I238648J0D01*
G01*
X17933649Y-6592703D01*
G75*
G02*
X18172297Y-6831351I0J-238648D01*
G01*
G37*
G36*
G01*
X18172297Y-7931351D02*
X18172297Y-8408649D01*
G75*
G02*
X17933649Y-8647297I-238648J0D01*
G01*
X17456351Y-8647297D01*
G75*
G02*
X17217703Y-8408649I0J238648D01*
G01*
X17217703Y-7931351D01*
G75*
G02*
X17456351Y-7692703I238648J0D01*
G01*
X17933649Y-7692703D01*
G75*
G02*
X18172297Y-7931351I0J-238648D01*
G01*
G37*
%TD*%
D11*
%TO.C,U1*%
X25715000Y-11895000D03*
X23815000Y-11895000D03*
X23815000Y-9695000D03*
X24765000Y-9695000D03*
X25715000Y-9695000D03*
%TD*%
%TO.C,J1*%
G36*
G01*
X-540000Y-10220000D02*
X2360000Y-10220000D01*
G75*
G02*
X2610000Y-10470000I0J-250000D01*
G01*
X2610000Y-11470000D01*
G75*
G02*
X2360000Y-11720000I-250000J0D01*
G01*
X-540000Y-11720000D01*
G75*
G02*
X-790000Y-11470000I0J250000D01*
G01*
X-790000Y-10470000D01*
G75*
G02*
X-540000Y-10220000I250000J0D01*
G01*
G37*
G36*
G01*
X-540000Y-3520000D02*
X2360000Y-3520000D01*
G75*
G02*
X2610000Y-3770000I0J-250000D01*
G01*
X2610000Y-4770000D01*
G75*
G02*
X2360000Y-5020000I-250000J0D01*
G01*
X-540000Y-5020000D01*
G75*
G02*
X-790000Y-4770000I0J250000D01*
G01*
X-790000Y-3770000D01*
G75*
G02*
X-540000Y-3520000I250000J0D01*
G01*
G37*
G36*
G01*
X5160000Y-8120000D02*
X8160000Y-8120000D01*
G75*
G02*
X8410000Y-8370000I0J-250000D01*
G01*
X8410000Y-8870000D01*
G75*
G02*
X8160000Y-9120000I-250000J0D01*
G01*
X5160000Y-9120000D01*
G75*
G02*
X4910000Y-8870000I0J250000D01*
G01*
X4910000Y-8370000D01*
G75*
G02*
X5160000Y-8120000I250000J0D01*
G01*
G37*
G36*
G01*
X5160000Y-6120000D02*
X8160000Y-6120000D01*
G75*
G02*
X8410000Y-6370000I0J-250000D01*
G01*
X8410000Y-6870000D01*
G75*
G02*
X8160000Y-7120000I-250000J0D01*
G01*
X5160000Y-7120000D01*
G75*
G02*
X4910000Y-6870000I0J250000D01*
G01*
X4910000Y-6370000D01*
G75*
G02*
X5160000Y-6120000I250000J0D01*
G01*
G37*
%TD*%
%TO.C,R2*%
G36*
G01*
X11145000Y-2161250D02*
X11145000Y-1648750D01*
G75*
G02*
X11363750Y-1430000I218750J0D01*
G01*
X11801250Y-1430000D01*
G75*
G02*
X12020000Y-1648750I0J-218750D01*
G01*
X12020000Y-2161250D01*
G75*
G02*
X11801250Y-2380000I-218750J0D01*
G01*
X11363750Y-2380000D01*
G75*
G02*
X11145000Y-2161250I0J218750D01*
G01*
G37*
G36*
G01*
X9570000Y-2161250D02*
X9570000Y-1648750D01*
G75*
G02*
X9788750Y-1430000I218750J0D01*
G01*
X10226250Y-1430000D01*
G75*
G02*
X10445000Y-1648750I0J-218750D01*
G01*
X10445000Y-2161250D01*
G75*
G02*
X10226250Y-2380000I-218750J0D01*
G01*
X9788750Y-2380000D01*
G75*
G02*
X9570000Y-2161250I0J218750D01*
G01*
G37*
%TD*%
%TO.C,R1*%
G36*
G01*
X10445000Y-3553750D02*
X10445000Y-4066250D01*
G75*
G02*
X10226250Y-4285000I-218750J0D01*
G01*
X9788750Y-4285000D01*
G75*
G02*
X9570000Y-4066250I0J218750D01*
G01*
X9570000Y-3553750D01*
G75*
G02*
X9788750Y-3335000I218750J0D01*
G01*
X10226250Y-3335000D01*
G75*
G02*
X10445000Y-3553750I0J-218750D01*
G01*
G37*
G36*
G01*
X12020000Y-3553750D02*
X12020000Y-4066250D01*
G75*
G02*
X11801250Y-4285000I-218750J0D01*
G01*
X11363750Y-4285000D01*
G75*
G02*
X11145000Y-4066250I0J218750D01*
G01*
X11145000Y-3553750D01*
G75*
G02*
X11363750Y-3335000I218750J0D01*
G01*
X11801250Y-3335000D01*
G75*
G02*
X12020000Y-3553750I0J-218750D01*
G01*
G37*
%TD*%
%TO.C,C1*%
G36*
G01*
X11145000Y-11686250D02*
X11145000Y-11173750D01*
G75*
G02*
X11363750Y-10955000I218750J0D01*
G01*
X11801250Y-10955000D01*
G75*
G02*
X12020000Y-11173750I0J-218750D01*
G01*
X12020000Y-11686250D01*
G75*
G02*
X11801250Y-11905000I-218750J0D01*
G01*
X11363750Y-11905000D01*
G75*
G02*
X11145000Y-11686250I0J218750D01*
G01*
G37*
G36*
G01*
X9570000Y-11686250D02*
X9570000Y-11173750D01*
G75*
G02*
X9788750Y-10955000I218750J0D01*
G01*
X10226250Y-10955000D01*
G75*
G02*
X10445000Y-11173750I0J-218750D01*
G01*
X10445000Y-11686250D01*
G75*
G02*
X10226250Y-11905000I-218750J0D01*
G01*
X9788750Y-11905000D01*
G75*
G02*
X9570000Y-11686250I0J218750D01*
G01*
G37*
%TD*%
%TO.C,F1*%
G36*
G01*
X11145000Y-7876250D02*
X11145000Y-7363750D01*
G75*
G02*
X11363750Y-7145000I218750J0D01*
G01*
X11801250Y-7145000D01*
G75*
G02*
X12020000Y-7363750I0J-218750D01*
G01*
X12020000Y-7876250D01*
G75*
G02*
X11801250Y-8095000I-218750J0D01*
G01*
X11363750Y-8095000D01*
G75*
G02*
X11145000Y-7876250I0J218750D01*
G01*
G37*
G36*
G01*
X9570000Y-7876250D02*
X9570000Y-7363750D01*
G75*
G02*
X9788750Y-7145000I218750J0D01*
G01*
X10226250Y-7145000D01*
G75*
G02*
X10445000Y-7363750I0J-218750D01*
G01*
X10445000Y-7876250D01*
G75*
G02*
X10226250Y-8095000I-218750J0D01*
G01*
X9788750Y-8095000D01*
G75*
G02*
X9570000Y-7876250I0J218750D01*
G01*
G37*
%TD*%
%TO.C,D1*%
G36*
G01*
X11145000Y-9781250D02*
X11145000Y-9268750D01*
G75*
G02*
X11363750Y-9050000I218750J0D01*
G01*
X11801250Y-9050000D01*
G75*
G02*
X12020000Y-9268750I0J-218750D01*
G01*
X12020000Y-9781250D01*
G75*
G02*
X11801250Y-10000000I-218750J0D01*
G01*
X11363750Y-10000000D01*
G75*
G02*
X11145000Y-9781250I0J218750D01*
G01*
G37*
G36*
G01*
X9570000Y-9781250D02*
X9570000Y-9268750D01*
G75*
G02*
X9788750Y-9050000I218750J0D01*
G01*
X10226250Y-9050000D01*
G75*
G02*
X10445000Y-9268750I0J-218750D01*
G01*
X10445000Y-9781250D01*
G75*
G02*
X10226250Y-10000000I-218750J0D01*
G01*
X9788750Y-10000000D01*
G75*
G02*
X9570000Y-9781250I0J218750D01*
G01*
G37*
%TD*%
%TO.C,C2*%
G36*
G01*
X10445000Y-13078750D02*
X10445000Y-13591250D01*
G75*
G02*
X10226250Y-13810000I-218750J0D01*
G01*
X9788750Y-13810000D01*
G75*
G02*
X9570000Y-13591250I0J218750D01*
G01*
X9570000Y-13078750D01*
G75*
G02*
X9788750Y-12860000I218750J0D01*
G01*
X10226250Y-12860000D01*
G75*
G02*
X10445000Y-13078750I0J-218750D01*
G01*
G37*
G36*
G01*
X12020000Y-13078750D02*
X12020000Y-13591250D01*
G75*
G02*
X11801250Y-13810000I-218750J0D01*
G01*
X11363750Y-13810000D01*
G75*
G02*
X11145000Y-13591250I0J218750D01*
G01*
X11145000Y-13078750D01*
G75*
G02*
X11363750Y-12860000I218750J0D01*
G01*
X11801250Y-12860000D01*
G75*
G02*
X12020000Y-13078750I0J-218750D01*
G01*
G37*
%TD*%
M02*
