G04 #@! TF.GenerationSoftware,KiCad,Pcbnew,5.1.5+dfsg1-2build2*
G04 #@! TF.CreationDate,2021-03-15T22:18:43+01:00*
G04 #@! TF.ProjectId,ProMicro_ADAPT,50726f4d-6963-4726-9f5f-41444150542e,v1.0*
G04 #@! TF.SameCoordinates,Original*
G04 #@! TF.FileFunction,Copper,L2,Inr*
G04 #@! TF.FilePolarity,Positive*
%FSLAX46Y46*%
G04 Gerber Fmt 4.6, Leading zero omitted, Abs format (unit mm)*
G04 Created by KiCad*
%MOMM*%
%LPD*%
G04 APERTURE LIST*
%ADD10O,1.600000X1.600000*%
%ADD11R,1.600000X1.600000*%
%ADD12O,1.700000X1.700000*%
%ADD13R,1.700000X1.700000*%
%ADD14C,2.100000*%
%ADD15R,2.100000X2.100000*%
%ADD16C,1.600000*%
%ADD17C,0.500000*%
%ADD18C,0.250000*%
%ADD19C,0.300000*%
G04 APERTURE END LIST*
D10*
X119380000Y-120650000D03*
X121920000Y-120650000D03*
X82300000Y-120650000D03*
X121920000Y-72390000D03*
X84840000Y-120650000D03*
X119380000Y-72390000D03*
X87380000Y-120650000D03*
X116840000Y-72390000D03*
X89920000Y-120650000D03*
X114300000Y-72390000D03*
X92460000Y-120650000D03*
X111760000Y-72390000D03*
X95000000Y-120650000D03*
X109220000Y-72390000D03*
X97540000Y-120650000D03*
X104140000Y-72390000D03*
X100080000Y-120650000D03*
X101600000Y-72390000D03*
X104140000Y-120650000D03*
X99060000Y-72390000D03*
X106680000Y-120650000D03*
X96520000Y-72390000D03*
X109220000Y-120650000D03*
X93980000Y-72390000D03*
X111760000Y-120650000D03*
X91440000Y-72390000D03*
X114300000Y-120650000D03*
X88900000Y-72390000D03*
X116840000Y-120650000D03*
D11*
X86360000Y-72390000D03*
D10*
X79760000Y-120650000D03*
X77220000Y-120650000D03*
D12*
X115570000Y-109220000D03*
D13*
X113030000Y-109220000D03*
D12*
X97790000Y-90170000D03*
D13*
X97790000Y-92710000D03*
D14*
X123190000Y-81280000D03*
X123190000Y-83820000D03*
X123190000Y-86360000D03*
X107950000Y-109220000D03*
X123190000Y-88900000D03*
X107950000Y-106680000D03*
X123190000Y-91440000D03*
X107950000Y-104140000D03*
X123190000Y-93980000D03*
X107950000Y-101600000D03*
X123190000Y-96520000D03*
X107950000Y-99060000D03*
X123190000Y-99060000D03*
X107950000Y-96520000D03*
X123190000Y-101600000D03*
X107950000Y-93980000D03*
X123190000Y-104140000D03*
X107950000Y-91440000D03*
X123190000Y-106680000D03*
X107950000Y-88900000D03*
X123190000Y-109220000D03*
X107950000Y-86360000D03*
X107950000Y-83820000D03*
D15*
X107950000Y-81280000D03*
D14*
X100330000Y-81280000D03*
X100330000Y-83820000D03*
X100330000Y-86360000D03*
X85090000Y-109220000D03*
X100330000Y-88900000D03*
X85090000Y-106680000D03*
X100330000Y-91440000D03*
X85090000Y-104140000D03*
X100330000Y-93980000D03*
X85090000Y-101600000D03*
X100330000Y-96520000D03*
X85090000Y-99060000D03*
X100330000Y-99060000D03*
X85090000Y-96520000D03*
X100330000Y-101600000D03*
X85090000Y-93980000D03*
X100330000Y-104140000D03*
X85090000Y-91440000D03*
X100330000Y-106680000D03*
X85090000Y-88900000D03*
X100330000Y-109220000D03*
X85090000Y-86360000D03*
X85090000Y-83820000D03*
D15*
X85090000Y-81280000D03*
D14*
X77470000Y-81280000D03*
X77470000Y-83820000D03*
X77470000Y-86360000D03*
X62230000Y-109220000D03*
X77470000Y-88900000D03*
X62230000Y-106680000D03*
X77470000Y-91440000D03*
X62230000Y-104140000D03*
X77470000Y-93980000D03*
X62230000Y-101600000D03*
X77470000Y-96520000D03*
X62230000Y-99060000D03*
X77470000Y-99060000D03*
X62230000Y-96520000D03*
X77470000Y-101600000D03*
X62230000Y-93980000D03*
X77470000Y-104140000D03*
X62230000Y-91440000D03*
X77470000Y-106680000D03*
X62230000Y-88900000D03*
X77470000Y-109220000D03*
X62230000Y-86360000D03*
X62230000Y-83820000D03*
D15*
X62230000Y-81280000D03*
D13*
X74930000Y-102870000D03*
X120650000Y-102870000D03*
X97790000Y-102870000D03*
D11*
X59690000Y-77470000D03*
D16*
X59690000Y-80010000D03*
X59690000Y-82550000D03*
X59690000Y-85090000D03*
X59690000Y-87630000D03*
X59690000Y-90170000D03*
X59690000Y-92710000D03*
X59690000Y-95250000D03*
X59690000Y-97790000D03*
X59690000Y-100330000D03*
X59690000Y-102870000D03*
X59690000Y-105410000D03*
X80010000Y-115570000D03*
X80010000Y-113030000D03*
X80010000Y-110490000D03*
X80010000Y-107950000D03*
X80010000Y-105410000D03*
X80010000Y-102870000D03*
X80010000Y-100330000D03*
X80010000Y-97790000D03*
X80010000Y-95250000D03*
X80010000Y-92710000D03*
X80010000Y-90170000D03*
X80010000Y-87630000D03*
X80010000Y-85090000D03*
X80010000Y-82550000D03*
X80010000Y-80010000D03*
X80010000Y-77470000D03*
D17*
X69850000Y-101600000D03*
X69850000Y-99695000D03*
X69850000Y-97790000D03*
X69850000Y-95885000D03*
X114935000Y-97790000D03*
X114935000Y-95885000D03*
X114935000Y-93980000D03*
X114935000Y-92075000D03*
X97155000Y-118110000D03*
X100965000Y-118110000D03*
X104775000Y-118110000D03*
X61595000Y-114935000D03*
X62865000Y-116205000D03*
X64135000Y-117475000D03*
X65405000Y-118745000D03*
X66675000Y-120015000D03*
X74295000Y-107950000D03*
X64770000Y-85090000D03*
X66040000Y-79375000D03*
X66040000Y-88900000D03*
X113665000Y-112395000D03*
X120650000Y-80010000D03*
X123825000Y-119379996D03*
X116840000Y-116840000D03*
X121920000Y-114300000D03*
X122554996Y-111125000D03*
X88900000Y-118745000D03*
D18*
X104775000Y-76835000D02*
X100330000Y-81280000D01*
X123190000Y-81280000D02*
X120015000Y-81280000D01*
X120015000Y-81280000D02*
X115570000Y-76835000D01*
X115570000Y-76835000D02*
X104775000Y-76835000D01*
X68580000Y-77470000D02*
X59690000Y-77470000D01*
X77470000Y-86360000D02*
X68580000Y-77470000D01*
X91440000Y-77470000D02*
X100330000Y-86360000D01*
X91440000Y-72390000D02*
X91440000Y-77470000D01*
X101379999Y-85310001D02*
X100330000Y-86360000D01*
X123190000Y-86360000D02*
X114300000Y-77470000D01*
X105410000Y-77470000D02*
X102235000Y-80645000D01*
X114300000Y-77470000D02*
X105410000Y-77470000D01*
X102235000Y-80645000D02*
X102235000Y-84455000D01*
X102235000Y-84455000D02*
X101379999Y-85310001D01*
X78954924Y-86360000D02*
X77470000Y-86360000D01*
X81280000Y-86360000D02*
X78954924Y-86360000D01*
X81915000Y-85725000D02*
X81280000Y-86360000D01*
X81915000Y-80571794D02*
X81915000Y-85725000D01*
X85016794Y-77470000D02*
X81915000Y-80571794D01*
X91440000Y-77470000D02*
X85016794Y-77470000D01*
X82550000Y-118745000D02*
X85090000Y-116205000D01*
X71755000Y-118745000D02*
X82550000Y-118745000D01*
X85090000Y-116205000D02*
X85090000Y-109220000D01*
X62230000Y-109220000D02*
X71755000Y-118745000D01*
X60960000Y-78740000D02*
X59690000Y-80010000D01*
X67310000Y-78740000D02*
X60960000Y-78740000D01*
X77470000Y-88900000D02*
X67310000Y-78740000D01*
X64135000Y-108585000D02*
X62230000Y-106680000D01*
X73660000Y-118110000D02*
X64135000Y-108585000D01*
X83715044Y-116309956D02*
X81915000Y-118110000D01*
X83715044Y-109880046D02*
X83715044Y-116309956D01*
X83714999Y-109880001D02*
X83715044Y-109880046D01*
X83714999Y-108055001D02*
X83714999Y-109880001D01*
X81915000Y-118110000D02*
X73660000Y-118110000D01*
X85090000Y-106680000D02*
X83714999Y-108055001D01*
X65405000Y-107315000D02*
X62230000Y-104140000D01*
X75565000Y-117475000D02*
X65405000Y-107315000D01*
X81282116Y-117475000D02*
X75565000Y-117475000D01*
X83265033Y-115492083D02*
X81282116Y-117475000D01*
X83265033Y-110066446D02*
X83265033Y-115492083D01*
X83264988Y-110066401D02*
X83265033Y-110066446D01*
X83265033Y-107868556D02*
X83264988Y-107868601D01*
X83265033Y-105964967D02*
X83265033Y-107868556D01*
X83264988Y-107868601D02*
X83264988Y-110066401D01*
X85090000Y-104140000D02*
X83265033Y-105964967D01*
X84040001Y-102649999D02*
X85090000Y-101600000D01*
X82550000Y-104140000D02*
X84040001Y-102649999D01*
X82550000Y-114935000D02*
X82550000Y-104140000D01*
X80645000Y-116840000D02*
X82550000Y-114935000D01*
X77470000Y-116840000D02*
X80645000Y-116840000D01*
X62230000Y-101600000D02*
X77470000Y-116840000D01*
X67945000Y-104775000D02*
X62230000Y-99060000D01*
X81915000Y-113030000D02*
X80645000Y-114300000D01*
X80645000Y-114300000D02*
X77470000Y-114300000D01*
X81915000Y-102235000D02*
X81915000Y-113030000D01*
X82550000Y-101600000D02*
X81915000Y-102235000D01*
X82552821Y-101600000D02*
X82550000Y-101600000D01*
X84040001Y-100112820D02*
X82552821Y-101600000D01*
X84040001Y-100109999D02*
X84040001Y-100112820D01*
X77470000Y-114300000D02*
X67945000Y-104775000D01*
X85090000Y-99060000D02*
X84040001Y-100109999D01*
X64770000Y-100330000D02*
X64770000Y-99060000D01*
X76200000Y-111760000D02*
X64770000Y-100330000D01*
X80645000Y-111760000D02*
X76200000Y-111760000D01*
X81280000Y-111125000D02*
X80645000Y-111760000D01*
X63279999Y-97569999D02*
X62230000Y-96520000D01*
X64770000Y-99060000D02*
X63279999Y-97569999D01*
X81280000Y-100330000D02*
X81280000Y-111125000D01*
X85090000Y-96520000D02*
X81280000Y-100330000D01*
X119380000Y-101600000D02*
X123190000Y-101600000D01*
X117475000Y-103505000D02*
X119380000Y-101600000D01*
X113665000Y-113665000D02*
X117475000Y-109855000D01*
X105410000Y-113665000D02*
X113665000Y-113665000D01*
X103505000Y-111760000D02*
X105410000Y-113665000D01*
X103505000Y-104775000D02*
X103505000Y-111760000D01*
X117475000Y-109855000D02*
X117475000Y-103505000D01*
X100330000Y-101600000D02*
X103505000Y-104775000D01*
X84040001Y-95029999D02*
X85090000Y-93980000D01*
X82550000Y-96520000D02*
X84040001Y-95029999D01*
X78884999Y-97010001D02*
X79375000Y-96520000D01*
X79375000Y-96520000D02*
X82550000Y-96520000D01*
X78884999Y-101744999D02*
X78884999Y-97010001D01*
X80010000Y-102870000D02*
X78884999Y-101744999D01*
X88900000Y-90170000D02*
X85090000Y-93980000D01*
X97790000Y-90170000D02*
X88900000Y-90170000D01*
X74295000Y-108585000D02*
X74295000Y-107950000D01*
X76835000Y-111125000D02*
X74295000Y-108585000D01*
X78170001Y-111125000D02*
X76835000Y-111125000D01*
X78845001Y-110450000D02*
X78170001Y-111125000D01*
X78845001Y-104034999D02*
X78845001Y-110450000D01*
X80010000Y-102870000D02*
X78845001Y-104034999D01*
X66040000Y-99695000D02*
X74295000Y-107950000D01*
X66040000Y-97790000D02*
X66040000Y-99695000D01*
X62230000Y-93980000D02*
X66040000Y-97790000D01*
X102870000Y-106680000D02*
X100330000Y-104140000D01*
X102870000Y-112395000D02*
X102870000Y-106680000D01*
X104775000Y-114300000D02*
X102870000Y-112395000D01*
X114300000Y-114300000D02*
X104775000Y-114300000D01*
X120650000Y-107950000D02*
X114300000Y-114300000D01*
X120650000Y-106680000D02*
X120650000Y-107950000D01*
X123190000Y-104140000D02*
X120650000Y-106680000D01*
X102235000Y-108585000D02*
X100330000Y-106680000D01*
X102235000Y-113030000D02*
X102235000Y-108585000D01*
X104140000Y-114935000D02*
X102235000Y-113030000D01*
X114935000Y-114935000D02*
X104140000Y-114935000D01*
X123190000Y-106680000D02*
X114935000Y-114935000D01*
X100330000Y-110704924D02*
X100330000Y-109220000D01*
X100330000Y-112395000D02*
X100330000Y-110704924D01*
X103505000Y-115570000D02*
X100330000Y-112395000D01*
X116840000Y-115570000D02*
X103505000Y-115570000D01*
X123190000Y-109220000D02*
X116840000Y-115570000D01*
X106045000Y-97155000D02*
X100330000Y-91440000D01*
X106045000Y-109350002D02*
X106045000Y-97155000D01*
X107819998Y-111125000D02*
X106045000Y-109350002D01*
X109220000Y-111125000D02*
X107819998Y-111125000D01*
X109855000Y-110490000D02*
X109220000Y-111125000D01*
X109855000Y-104775000D02*
X109855000Y-110490000D01*
X123190000Y-91440000D02*
X109855000Y-104775000D01*
X82550000Y-89295002D02*
X80405002Y-91440000D01*
X78954924Y-91440000D02*
X77470000Y-91440000D01*
X80405002Y-91440000D02*
X78954924Y-91440000D01*
X82550000Y-81134998D02*
X82550000Y-89295002D01*
X84309998Y-79375000D02*
X82550000Y-81134998D01*
X86360000Y-79375000D02*
X84309998Y-79375000D01*
X95250000Y-88265000D02*
X86360000Y-79375000D01*
X98994999Y-89469999D02*
X97790000Y-88265000D01*
X97790000Y-88265000D02*
X95250000Y-88265000D01*
X98994999Y-90104999D02*
X98994999Y-89469999D01*
X100330000Y-91440000D02*
X98994999Y-90104999D01*
X110490000Y-111125000D02*
X110490000Y-106680000D01*
X109855000Y-111760000D02*
X110490000Y-111125000D01*
X107315000Y-111760000D02*
X109855000Y-111760000D01*
X105410000Y-109855000D02*
X107315000Y-111760000D01*
X110490000Y-106680000D02*
X123190000Y-93980000D01*
X105410000Y-99060000D02*
X105410000Y-109855000D01*
X100330000Y-93980000D02*
X105410000Y-99060000D01*
X121920000Y-96520000D02*
X123190000Y-96520000D01*
X111125000Y-107315000D02*
X121920000Y-96520000D01*
X111125000Y-111760000D02*
X111125000Y-107315000D01*
X110490000Y-112395000D02*
X111125000Y-111760000D01*
X106680000Y-112395000D02*
X110490000Y-112395000D01*
X104775000Y-110490000D02*
X106680000Y-112395000D01*
X104775000Y-100965000D02*
X104775000Y-110490000D01*
X100330000Y-96520000D02*
X104775000Y-100965000D01*
X76420001Y-95470001D02*
X77470000Y-96520000D01*
X64135000Y-83185000D02*
X76420001Y-95470001D01*
X64135000Y-80499998D02*
X64135000Y-83185000D01*
X63540001Y-79904999D02*
X64135000Y-80499998D01*
X60919999Y-79904999D02*
X63540001Y-79904999D01*
X60854999Y-79969999D02*
X60919999Y-79904999D01*
X60854999Y-89005001D02*
X60854999Y-79969999D01*
X59690000Y-90170000D02*
X60854999Y-89005001D01*
X106045000Y-113030000D02*
X111125000Y-113030000D01*
X104140000Y-102870000D02*
X104140000Y-111125000D01*
X104140000Y-111125000D02*
X106045000Y-113030000D01*
X100330000Y-99060000D02*
X104140000Y-102870000D01*
X113030000Y-113030000D02*
X113665000Y-112395000D01*
X111125000Y-113030000D02*
X113030000Y-113030000D01*
X120650000Y-99060000D02*
X123190000Y-99060000D01*
X114300000Y-105410000D02*
X120650000Y-99060000D01*
X114300000Y-111760000D02*
X114300000Y-105410000D01*
X113665000Y-112395000D02*
X114300000Y-111760000D01*
X73025000Y-122555000D02*
X122555000Y-122555000D01*
X60854999Y-110384999D02*
X73025000Y-122555000D01*
X122555000Y-122555000D02*
X123825000Y-121285000D01*
X60854999Y-101494999D02*
X60854999Y-110384999D01*
X59690000Y-100330000D02*
X60854999Y-101494999D01*
X123825000Y-121285000D02*
X123825000Y-119379996D01*
X97790000Y-102870000D02*
X97790000Y-111125000D01*
X97790000Y-111125000D02*
X102870000Y-116205000D01*
X102870000Y-116205000D02*
X117474996Y-116205000D01*
X117474996Y-116205000D02*
X122304997Y-111374999D01*
X122304997Y-111374999D02*
X122554996Y-111125000D01*
X90170000Y-118745000D02*
X97790000Y-111125000D01*
X88900000Y-118745000D02*
X90170000Y-118745000D01*
D19*
G36*
X76083777Y-85786950D02*
G01*
X76027644Y-85922466D01*
X75970000Y-86212263D01*
X75970000Y-86507737D01*
X76027644Y-86797534D01*
X76140717Y-87070517D01*
X76304874Y-87316194D01*
X76513806Y-87525126D01*
X76667094Y-87627550D01*
X76640260Y-87641684D01*
X76624995Y-87651884D01*
X76519747Y-87879036D01*
X77470000Y-88829289D01*
X78420253Y-87879036D01*
X78315005Y-87651884D01*
X78271666Y-87628379D01*
X78426194Y-87525126D01*
X78635126Y-87316194D01*
X78799283Y-87070517D01*
X78855416Y-86935000D01*
X78971023Y-86935000D01*
X78902265Y-87037903D01*
X78808037Y-87265389D01*
X78760000Y-87506886D01*
X78760000Y-87753114D01*
X78808037Y-87994611D01*
X78902265Y-88222097D01*
X79039062Y-88426828D01*
X79213172Y-88600938D01*
X79225000Y-88608841D01*
X79225000Y-89191159D01*
X79213172Y-89199062D01*
X79039062Y-89373172D01*
X78902265Y-89577903D01*
X78808037Y-89805389D01*
X78760000Y-90046886D01*
X78760000Y-90293114D01*
X78808037Y-90534611D01*
X78902265Y-90762097D01*
X78971023Y-90865000D01*
X78855416Y-90865000D01*
X78799283Y-90729483D01*
X78635126Y-90483806D01*
X78426194Y-90274874D01*
X78272906Y-90172450D01*
X78299740Y-90158316D01*
X78315005Y-90148116D01*
X78420253Y-89920964D01*
X77470000Y-88970711D01*
X76519747Y-89920964D01*
X76624995Y-90148116D01*
X76668334Y-90171621D01*
X76513806Y-90274874D01*
X76304874Y-90483806D01*
X76140717Y-90729483D01*
X76027644Y-91002466D01*
X75970450Y-91290000D01*
X73053173Y-91290000D01*
X70653993Y-88890820D01*
X75962770Y-88890820D01*
X75989940Y-89185043D01*
X76073988Y-89468311D01*
X76211684Y-89729740D01*
X76221884Y-89745005D01*
X76449036Y-89850253D01*
X77399289Y-88900000D01*
X77540711Y-88900000D01*
X78490964Y-89850253D01*
X78718116Y-89745005D01*
X78858985Y-89485274D01*
X78946478Y-89203050D01*
X78977230Y-88909180D01*
X78950060Y-88614957D01*
X78866012Y-88331689D01*
X78728316Y-88070260D01*
X78718116Y-88054995D01*
X78490964Y-87949747D01*
X77540711Y-88900000D01*
X77399289Y-88900000D01*
X76449036Y-87949747D01*
X76221884Y-88054995D01*
X76081015Y-88314726D01*
X75993522Y-88596950D01*
X75962770Y-88890820D01*
X70653993Y-88890820D01*
X64710000Y-82946828D01*
X64710000Y-80528241D01*
X64712782Y-80499998D01*
X64708751Y-80459074D01*
X64701680Y-80387278D01*
X64668801Y-80278890D01*
X64615408Y-80179000D01*
X64543554Y-80091444D01*
X64521613Y-80073438D01*
X63966566Y-79518392D01*
X63948555Y-79496445D01*
X63860999Y-79424591D01*
X63761109Y-79371198D01*
X63652721Y-79338319D01*
X63568247Y-79329999D01*
X63568244Y-79329999D01*
X63540001Y-79327217D01*
X63511758Y-79329999D01*
X60948242Y-79329999D01*
X60919999Y-79327217D01*
X60891756Y-79329999D01*
X60891753Y-79329999D01*
X60807279Y-79338319D01*
X60756628Y-79353684D01*
X60734748Y-79312750D01*
X60716814Y-79306056D01*
X65340000Y-79306056D01*
X65340000Y-79443944D01*
X65366901Y-79579182D01*
X65419668Y-79706574D01*
X65496274Y-79821224D01*
X65593776Y-79918726D01*
X65708426Y-79995332D01*
X65835818Y-80048099D01*
X65971056Y-80075000D01*
X66108944Y-80075000D01*
X66244182Y-80048099D01*
X66371574Y-79995332D01*
X66486224Y-79918726D01*
X66583726Y-79821224D01*
X66660332Y-79706574D01*
X66713099Y-79579182D01*
X66740000Y-79443944D01*
X66740000Y-79306056D01*
X66713099Y-79170818D01*
X66660332Y-79043426D01*
X66583726Y-78928776D01*
X66486224Y-78831274D01*
X66371574Y-78754668D01*
X66244182Y-78701901D01*
X66108944Y-78675000D01*
X65971056Y-78675000D01*
X65835818Y-78701901D01*
X65708426Y-78754668D01*
X65593776Y-78831274D01*
X65496274Y-78928776D01*
X65419668Y-79043426D01*
X65366901Y-79170818D01*
X65340000Y-79306056D01*
X60716814Y-79306056D01*
X60533192Y-79237518D01*
X60466421Y-79304289D01*
X60395711Y-79233579D01*
X60462482Y-79166808D01*
X60387250Y-78965252D01*
X60170033Y-78849299D01*
X59942565Y-78780433D01*
X59884309Y-78722177D01*
X60490000Y-78722177D01*
X60578215Y-78713489D01*
X60663041Y-78687757D01*
X60741216Y-78645971D01*
X60809737Y-78589737D01*
X60865971Y-78521216D01*
X60907757Y-78443041D01*
X60933489Y-78358215D01*
X60942177Y-78270000D01*
X60942177Y-78045000D01*
X68341828Y-78045000D01*
X76083777Y-85786950D01*
G37*
X76083777Y-85786950D02*
X76027644Y-85922466D01*
X75970000Y-86212263D01*
X75970000Y-86507737D01*
X76027644Y-86797534D01*
X76140717Y-87070517D01*
X76304874Y-87316194D01*
X76513806Y-87525126D01*
X76667094Y-87627550D01*
X76640260Y-87641684D01*
X76624995Y-87651884D01*
X76519747Y-87879036D01*
X77470000Y-88829289D01*
X78420253Y-87879036D01*
X78315005Y-87651884D01*
X78271666Y-87628379D01*
X78426194Y-87525126D01*
X78635126Y-87316194D01*
X78799283Y-87070517D01*
X78855416Y-86935000D01*
X78971023Y-86935000D01*
X78902265Y-87037903D01*
X78808037Y-87265389D01*
X78760000Y-87506886D01*
X78760000Y-87753114D01*
X78808037Y-87994611D01*
X78902265Y-88222097D01*
X79039062Y-88426828D01*
X79213172Y-88600938D01*
X79225000Y-88608841D01*
X79225000Y-89191159D01*
X79213172Y-89199062D01*
X79039062Y-89373172D01*
X78902265Y-89577903D01*
X78808037Y-89805389D01*
X78760000Y-90046886D01*
X78760000Y-90293114D01*
X78808037Y-90534611D01*
X78902265Y-90762097D01*
X78971023Y-90865000D01*
X78855416Y-90865000D01*
X78799283Y-90729483D01*
X78635126Y-90483806D01*
X78426194Y-90274874D01*
X78272906Y-90172450D01*
X78299740Y-90158316D01*
X78315005Y-90148116D01*
X78420253Y-89920964D01*
X77470000Y-88970711D01*
X76519747Y-89920964D01*
X76624995Y-90148116D01*
X76668334Y-90171621D01*
X76513806Y-90274874D01*
X76304874Y-90483806D01*
X76140717Y-90729483D01*
X76027644Y-91002466D01*
X75970450Y-91290000D01*
X73053173Y-91290000D01*
X70653993Y-88890820D01*
X75962770Y-88890820D01*
X75989940Y-89185043D01*
X76073988Y-89468311D01*
X76211684Y-89729740D01*
X76221884Y-89745005D01*
X76449036Y-89850253D01*
X77399289Y-88900000D01*
X77540711Y-88900000D01*
X78490964Y-89850253D01*
X78718116Y-89745005D01*
X78858985Y-89485274D01*
X78946478Y-89203050D01*
X78977230Y-88909180D01*
X78950060Y-88614957D01*
X78866012Y-88331689D01*
X78728316Y-88070260D01*
X78718116Y-88054995D01*
X78490964Y-87949747D01*
X77540711Y-88900000D01*
X77399289Y-88900000D01*
X76449036Y-87949747D01*
X76221884Y-88054995D01*
X76081015Y-88314726D01*
X75993522Y-88596950D01*
X75962770Y-88890820D01*
X70653993Y-88890820D01*
X64710000Y-82946828D01*
X64710000Y-80528241D01*
X64712782Y-80499998D01*
X64708751Y-80459074D01*
X64701680Y-80387278D01*
X64668801Y-80278890D01*
X64615408Y-80179000D01*
X64543554Y-80091444D01*
X64521613Y-80073438D01*
X63966566Y-79518392D01*
X63948555Y-79496445D01*
X63860999Y-79424591D01*
X63761109Y-79371198D01*
X63652721Y-79338319D01*
X63568247Y-79329999D01*
X63568244Y-79329999D01*
X63540001Y-79327217D01*
X63511758Y-79329999D01*
X60948242Y-79329999D01*
X60919999Y-79327217D01*
X60891756Y-79329999D01*
X60891753Y-79329999D01*
X60807279Y-79338319D01*
X60756628Y-79353684D01*
X60734748Y-79312750D01*
X60716814Y-79306056D01*
X65340000Y-79306056D01*
X65340000Y-79443944D01*
X65366901Y-79579182D01*
X65419668Y-79706574D01*
X65496274Y-79821224D01*
X65593776Y-79918726D01*
X65708426Y-79995332D01*
X65835818Y-80048099D01*
X65971056Y-80075000D01*
X66108944Y-80075000D01*
X66244182Y-80048099D01*
X66371574Y-79995332D01*
X66486224Y-79918726D01*
X66583726Y-79821224D01*
X66660332Y-79706574D01*
X66713099Y-79579182D01*
X66740000Y-79443944D01*
X66740000Y-79306056D01*
X66713099Y-79170818D01*
X66660332Y-79043426D01*
X66583726Y-78928776D01*
X66486224Y-78831274D01*
X66371574Y-78754668D01*
X66244182Y-78701901D01*
X66108944Y-78675000D01*
X65971056Y-78675000D01*
X65835818Y-78701901D01*
X65708426Y-78754668D01*
X65593776Y-78831274D01*
X65496274Y-78928776D01*
X65419668Y-79043426D01*
X65366901Y-79170818D01*
X65340000Y-79306056D01*
X60716814Y-79306056D01*
X60533192Y-79237518D01*
X60466421Y-79304289D01*
X60395711Y-79233579D01*
X60462482Y-79166808D01*
X60387250Y-78965252D01*
X60170033Y-78849299D01*
X59942565Y-78780433D01*
X59884309Y-78722177D01*
X60490000Y-78722177D01*
X60578215Y-78713489D01*
X60663041Y-78687757D01*
X60741216Y-78645971D01*
X60809737Y-78589737D01*
X60865971Y-78521216D01*
X60907757Y-78443041D01*
X60933489Y-78358215D01*
X60942177Y-78270000D01*
X60942177Y-78045000D01*
X68341828Y-78045000D01*
X76083777Y-85786950D01*
G36*
X123985000Y-72366668D02*
G01*
X123982702Y-72390000D01*
X123985000Y-72413331D01*
X123991873Y-72483115D01*
X124019034Y-72572653D01*
X124063141Y-72655173D01*
X124122499Y-72727501D01*
X124140634Y-72742384D01*
X126525001Y-75126752D01*
X126525001Y-90655000D01*
X124469515Y-90655000D01*
X124355126Y-90483806D01*
X124146194Y-90274874D01*
X123992906Y-90172450D01*
X124019740Y-90158316D01*
X124035005Y-90148116D01*
X124140253Y-89920964D01*
X123190000Y-88970711D01*
X122239747Y-89920964D01*
X122344995Y-90148116D01*
X122388334Y-90171621D01*
X122233806Y-90274874D01*
X122024874Y-90483806D01*
X121910485Y-90655000D01*
X116267132Y-90655000D01*
X114502952Y-88890820D01*
X121682770Y-88890820D01*
X121709940Y-89185043D01*
X121793988Y-89468311D01*
X121931684Y-89729740D01*
X121941884Y-89745005D01*
X122169036Y-89850253D01*
X123119289Y-88900000D01*
X123260711Y-88900000D01*
X124210964Y-89850253D01*
X124438116Y-89745005D01*
X124578985Y-89485274D01*
X124666478Y-89203050D01*
X124697230Y-88909180D01*
X124670060Y-88614957D01*
X124586012Y-88331689D01*
X124448316Y-88070260D01*
X124438116Y-88054995D01*
X124210964Y-87949747D01*
X123260711Y-88900000D01*
X123119289Y-88900000D01*
X122169036Y-87949747D01*
X121941884Y-88054995D01*
X121801015Y-88314726D01*
X121713522Y-88596950D01*
X121682770Y-88890820D01*
X114502952Y-88890820D01*
X109450000Y-83837868D01*
X109450000Y-83672263D01*
X109392356Y-83382466D01*
X109279283Y-83109483D01*
X109115126Y-82863806D01*
X109030494Y-82779174D01*
X109088215Y-82773489D01*
X109173041Y-82747757D01*
X109251216Y-82705971D01*
X109319737Y-82649737D01*
X109375971Y-82581216D01*
X109417757Y-82503041D01*
X109443489Y-82418215D01*
X109452177Y-82330000D01*
X109452177Y-80230000D01*
X109443489Y-80141785D01*
X109417757Y-80056959D01*
X109375971Y-79978784D01*
X109319737Y-79910263D01*
X109251216Y-79854029D01*
X109173041Y-79812243D01*
X109088215Y-79786511D01*
X109000000Y-79777823D01*
X106900000Y-79777823D01*
X106811785Y-79786511D01*
X106726959Y-79812243D01*
X106648784Y-79854029D01*
X106580263Y-79910263D01*
X106524029Y-79978784D01*
X106482243Y-80056959D01*
X106456511Y-80141785D01*
X106447823Y-80230000D01*
X106447823Y-82330000D01*
X106456511Y-82418215D01*
X106482243Y-82503041D01*
X106524029Y-82581216D01*
X106580263Y-82649737D01*
X106648784Y-82705971D01*
X106726959Y-82747757D01*
X106811785Y-82773489D01*
X106869506Y-82779174D01*
X106784874Y-82863806D01*
X106620717Y-83109483D01*
X106507644Y-83382466D01*
X106450000Y-83672263D01*
X106450000Y-83837868D01*
X101778678Y-88509190D01*
X101726012Y-88331689D01*
X101588316Y-88070260D01*
X101578116Y-88054995D01*
X101350964Y-87949747D01*
X100400711Y-88900000D01*
X100414853Y-88914142D01*
X100344142Y-88984853D01*
X100330000Y-88970711D01*
X100315858Y-88984853D01*
X100245147Y-88914142D01*
X100259289Y-88900000D01*
X99309036Y-87949747D01*
X99081884Y-88054995D01*
X98941015Y-88314726D01*
X98872833Y-88534660D01*
X98216565Y-87878393D01*
X98198554Y-87856446D01*
X98110998Y-87784592D01*
X98011108Y-87731199D01*
X97902720Y-87698320D01*
X97818246Y-87690000D01*
X97818243Y-87690000D01*
X97790000Y-87687218D01*
X97761757Y-87690000D01*
X95522132Y-87690000D01*
X92816066Y-84983934D01*
X92793336Y-84965280D01*
X92767403Y-84951418D01*
X92741834Y-84943662D01*
X86786566Y-78988394D01*
X86768554Y-78966446D01*
X86680998Y-78894592D01*
X86581108Y-78841199D01*
X86472720Y-78808320D01*
X86388246Y-78800000D01*
X86388243Y-78800000D01*
X86360000Y-78797218D01*
X86331757Y-78800000D01*
X84499967Y-78800000D01*
X85254967Y-78045000D01*
X91201828Y-78045000D01*
X98943777Y-85786950D01*
X98887644Y-85922466D01*
X98830000Y-86212263D01*
X98830000Y-86507737D01*
X98887644Y-86797534D01*
X99000717Y-87070517D01*
X99164874Y-87316194D01*
X99373806Y-87525126D01*
X99527094Y-87627550D01*
X99500260Y-87641684D01*
X99484995Y-87651884D01*
X99379747Y-87879036D01*
X100330000Y-88829289D01*
X101280253Y-87879036D01*
X101175005Y-87651884D01*
X101131666Y-87628379D01*
X101286194Y-87525126D01*
X101495126Y-87316194D01*
X101659283Y-87070517D01*
X101772356Y-86797534D01*
X101830000Y-86507737D01*
X101830000Y-86212263D01*
X101772356Y-85922466D01*
X101716223Y-85786950D01*
X101806558Y-85696615D01*
X101806562Y-85696610D01*
X102621612Y-84881561D01*
X102643554Y-84863554D01*
X102677782Y-84821847D01*
X102715408Y-84775999D01*
X102768801Y-84676108D01*
X102801680Y-84567720D01*
X102810000Y-84483246D01*
X102810000Y-84483244D01*
X102812782Y-84455001D01*
X102810000Y-84426758D01*
X102810000Y-80883172D01*
X105648173Y-78045000D01*
X114061828Y-78045000D01*
X121803777Y-85786950D01*
X121747644Y-85922466D01*
X121690000Y-86212263D01*
X121690000Y-86507737D01*
X121747644Y-86797534D01*
X121860717Y-87070517D01*
X122024874Y-87316194D01*
X122233806Y-87525126D01*
X122387094Y-87627550D01*
X122360260Y-87641684D01*
X122344995Y-87651884D01*
X122239747Y-87879036D01*
X123190000Y-88829289D01*
X124140253Y-87879036D01*
X124035005Y-87651884D01*
X123991666Y-87628379D01*
X124146194Y-87525126D01*
X124355126Y-87316194D01*
X124519283Y-87070517D01*
X124632356Y-86797534D01*
X124690000Y-86507737D01*
X124690000Y-86212263D01*
X124632356Y-85922466D01*
X124519283Y-85649483D01*
X124355126Y-85403806D01*
X124146194Y-85194874D01*
X123989240Y-85090000D01*
X124146194Y-84985126D01*
X124355126Y-84776194D01*
X124519283Y-84530517D01*
X124632356Y-84257534D01*
X124690000Y-83967737D01*
X124690000Y-83672263D01*
X124632356Y-83382466D01*
X124519283Y-83109483D01*
X124355126Y-82863806D01*
X124146194Y-82654874D01*
X123989240Y-82550000D01*
X124146194Y-82445126D01*
X124355126Y-82236194D01*
X124519283Y-81990517D01*
X124632356Y-81717534D01*
X124690000Y-81427737D01*
X124690000Y-81132263D01*
X124632356Y-80842466D01*
X124519283Y-80569483D01*
X124355126Y-80323806D01*
X124146194Y-80114874D01*
X123900517Y-79950717D01*
X123627534Y-79837644D01*
X123337737Y-79780000D01*
X123042263Y-79780000D01*
X122752466Y-79837644D01*
X122479483Y-79950717D01*
X122233806Y-80114874D01*
X122024874Y-80323806D01*
X121860717Y-80569483D01*
X121804584Y-80705000D01*
X120744080Y-80705000D01*
X120854182Y-80683099D01*
X120981574Y-80630332D01*
X121096224Y-80553726D01*
X121193726Y-80456224D01*
X121270332Y-80341574D01*
X121323099Y-80214182D01*
X121350000Y-80078944D01*
X121350000Y-79941056D01*
X121323099Y-79805818D01*
X121270332Y-79678426D01*
X121193726Y-79563776D01*
X121096224Y-79466274D01*
X120981574Y-79389668D01*
X120854182Y-79336901D01*
X120718944Y-79310000D01*
X120581056Y-79310000D01*
X120445818Y-79336901D01*
X120318426Y-79389668D01*
X120203776Y-79466274D01*
X120106274Y-79563776D01*
X120029668Y-79678426D01*
X119976901Y-79805818D01*
X119950000Y-79941056D01*
X119950000Y-80078944D01*
X119976901Y-80214182D01*
X120029668Y-80341574D01*
X120106274Y-80456224D01*
X120203776Y-80553726D01*
X120318426Y-80630332D01*
X120445818Y-80683099D01*
X120555920Y-80705000D01*
X120253173Y-80705000D01*
X115996566Y-76448393D01*
X115978554Y-76426446D01*
X115890998Y-76354592D01*
X115791108Y-76301199D01*
X115682720Y-76268320D01*
X115598246Y-76260000D01*
X115598243Y-76260000D01*
X115570000Y-76257218D01*
X115541757Y-76260000D01*
X104803242Y-76260000D01*
X104774999Y-76257218D01*
X104746756Y-76260000D01*
X104746754Y-76260000D01*
X104662280Y-76268320D01*
X104553892Y-76301199D01*
X104454001Y-76354592D01*
X104408153Y-76392218D01*
X104366446Y-76426446D01*
X104348439Y-76448388D01*
X100903051Y-79893777D01*
X100767534Y-79837644D01*
X100477737Y-79780000D01*
X100182263Y-79780000D01*
X99892466Y-79837644D01*
X99619483Y-79950717D01*
X99373806Y-80114874D01*
X99164874Y-80323806D01*
X99000717Y-80569483D01*
X98887644Y-80842466D01*
X98830000Y-81132263D01*
X98830000Y-81427737D01*
X98887644Y-81717534D01*
X99000717Y-81990517D01*
X99164874Y-82236194D01*
X99373806Y-82445126D01*
X99530760Y-82550000D01*
X99373806Y-82654874D01*
X99164874Y-82863806D01*
X99000717Y-83109483D01*
X98887644Y-83382466D01*
X98830000Y-83672263D01*
X98830000Y-83967737D01*
X98849638Y-84066465D01*
X92015000Y-77231828D01*
X92015000Y-73504817D01*
X92032097Y-73497735D01*
X92236828Y-73360938D01*
X92410938Y-73186828D01*
X92547735Y-72982097D01*
X92641963Y-72754611D01*
X92665800Y-72634771D01*
X92754197Y-72634771D01*
X92825503Y-72869210D01*
X92941176Y-73085233D01*
X93096770Y-73274539D01*
X93286306Y-73429852D01*
X93502500Y-73545205D01*
X93735229Y-73615801D01*
X93930000Y-73526401D01*
X93930000Y-72440000D01*
X94030000Y-72440000D01*
X94030000Y-73526401D01*
X94224771Y-73615801D01*
X94457500Y-73545205D01*
X94673694Y-73429852D01*
X94863230Y-73274539D01*
X95018824Y-73085233D01*
X95134497Y-72869210D01*
X95205803Y-72634771D01*
X95116502Y-72440000D01*
X94030000Y-72440000D01*
X93930000Y-72440000D01*
X92843498Y-72440000D01*
X92754197Y-72634771D01*
X92665800Y-72634771D01*
X92690000Y-72513114D01*
X92690000Y-72266886D01*
X92665801Y-72145229D01*
X92754197Y-72145229D01*
X92843498Y-72340000D01*
X93930000Y-72340000D01*
X93930000Y-71253599D01*
X94030000Y-71253599D01*
X94030000Y-72340000D01*
X95116502Y-72340000D01*
X95150024Y-72266886D01*
X95270000Y-72266886D01*
X95270000Y-72513114D01*
X95318037Y-72754611D01*
X95412265Y-72982097D01*
X95549062Y-73186828D01*
X95723172Y-73360938D01*
X95927903Y-73497735D01*
X96155389Y-73591963D01*
X96396886Y-73640000D01*
X96643114Y-73640000D01*
X96884611Y-73591963D01*
X97112097Y-73497735D01*
X97316828Y-73360938D01*
X97490938Y-73186828D01*
X97627735Y-72982097D01*
X97721963Y-72754611D01*
X97770000Y-72513114D01*
X97770000Y-72266886D01*
X97810000Y-72266886D01*
X97810000Y-72513114D01*
X97858037Y-72754611D01*
X97952265Y-72982097D01*
X98089062Y-73186828D01*
X98263172Y-73360938D01*
X98467903Y-73497735D01*
X98695389Y-73591963D01*
X98936886Y-73640000D01*
X99183114Y-73640000D01*
X99424611Y-73591963D01*
X99652097Y-73497735D01*
X99856828Y-73360938D01*
X100030938Y-73186828D01*
X100167735Y-72982097D01*
X100261963Y-72754611D01*
X100310000Y-72513114D01*
X100310000Y-72266886D01*
X100350000Y-72266886D01*
X100350000Y-72513114D01*
X100398037Y-72754611D01*
X100492265Y-72982097D01*
X100629062Y-73186828D01*
X100803172Y-73360938D01*
X101007903Y-73497735D01*
X101235389Y-73591963D01*
X101476886Y-73640000D01*
X101723114Y-73640000D01*
X101964611Y-73591963D01*
X102192097Y-73497735D01*
X102396828Y-73360938D01*
X102570938Y-73186828D01*
X102707735Y-72982097D01*
X102801963Y-72754611D01*
X102850000Y-72513114D01*
X102850000Y-72266886D01*
X102890000Y-72266886D01*
X102890000Y-72513114D01*
X102938037Y-72754611D01*
X103032265Y-72982097D01*
X103169062Y-73186828D01*
X103343172Y-73360938D01*
X103547903Y-73497735D01*
X103775389Y-73591963D01*
X104016886Y-73640000D01*
X104263114Y-73640000D01*
X104504611Y-73591963D01*
X104732097Y-73497735D01*
X104936828Y-73360938D01*
X105110938Y-73186828D01*
X105247735Y-72982097D01*
X105341963Y-72754611D01*
X105390000Y-72513114D01*
X105390000Y-72266886D01*
X107970000Y-72266886D01*
X107970000Y-72513114D01*
X108018037Y-72754611D01*
X108112265Y-72982097D01*
X108249062Y-73186828D01*
X108423172Y-73360938D01*
X108627903Y-73497735D01*
X108855389Y-73591963D01*
X109096886Y-73640000D01*
X109343114Y-73640000D01*
X109584611Y-73591963D01*
X109812097Y-73497735D01*
X110016828Y-73360938D01*
X110190938Y-73186828D01*
X110327735Y-72982097D01*
X110421963Y-72754611D01*
X110470000Y-72513114D01*
X110470000Y-72266886D01*
X110510000Y-72266886D01*
X110510000Y-72513114D01*
X110558037Y-72754611D01*
X110652265Y-72982097D01*
X110789062Y-73186828D01*
X110963172Y-73360938D01*
X111167903Y-73497735D01*
X111395389Y-73591963D01*
X111636886Y-73640000D01*
X111883114Y-73640000D01*
X112124611Y-73591963D01*
X112352097Y-73497735D01*
X112556828Y-73360938D01*
X112730938Y-73186828D01*
X112867735Y-72982097D01*
X112961963Y-72754611D01*
X113010000Y-72513114D01*
X113010000Y-72266886D01*
X113050000Y-72266886D01*
X113050000Y-72513114D01*
X113098037Y-72754611D01*
X113192265Y-72982097D01*
X113329062Y-73186828D01*
X113503172Y-73360938D01*
X113707903Y-73497735D01*
X113935389Y-73591963D01*
X114176886Y-73640000D01*
X114423114Y-73640000D01*
X114664611Y-73591963D01*
X114892097Y-73497735D01*
X115096828Y-73360938D01*
X115270938Y-73186828D01*
X115407735Y-72982097D01*
X115501963Y-72754611D01*
X115550000Y-72513114D01*
X115550000Y-72266886D01*
X115590000Y-72266886D01*
X115590000Y-72513114D01*
X115638037Y-72754611D01*
X115732265Y-72982097D01*
X115869062Y-73186828D01*
X116043172Y-73360938D01*
X116247903Y-73497735D01*
X116475389Y-73591963D01*
X116716886Y-73640000D01*
X116963114Y-73640000D01*
X117204611Y-73591963D01*
X117432097Y-73497735D01*
X117636828Y-73360938D01*
X117810938Y-73186828D01*
X117947735Y-72982097D01*
X118041963Y-72754611D01*
X118090000Y-72513114D01*
X118090000Y-72266886D01*
X118130000Y-72266886D01*
X118130000Y-72513114D01*
X118178037Y-72754611D01*
X118272265Y-72982097D01*
X118409062Y-73186828D01*
X118583172Y-73360938D01*
X118787903Y-73497735D01*
X119015389Y-73591963D01*
X119256886Y-73640000D01*
X119503114Y-73640000D01*
X119744611Y-73591963D01*
X119972097Y-73497735D01*
X120176828Y-73360938D01*
X120350938Y-73186828D01*
X120487735Y-72982097D01*
X120581963Y-72754611D01*
X120630000Y-72513114D01*
X120630000Y-72266886D01*
X120670000Y-72266886D01*
X120670000Y-72513114D01*
X120718037Y-72754611D01*
X120812265Y-72982097D01*
X120949062Y-73186828D01*
X121123172Y-73360938D01*
X121327903Y-73497735D01*
X121555389Y-73591963D01*
X121796886Y-73640000D01*
X122043114Y-73640000D01*
X122284611Y-73591963D01*
X122512097Y-73497735D01*
X122716828Y-73360938D01*
X122890938Y-73186828D01*
X123027735Y-72982097D01*
X123121963Y-72754611D01*
X123170000Y-72513114D01*
X123170000Y-72266886D01*
X123121963Y-72025389D01*
X123027735Y-71797903D01*
X122890938Y-71593172D01*
X122716828Y-71419062D01*
X122512097Y-71282265D01*
X122284611Y-71188037D01*
X122043114Y-71140000D01*
X121796886Y-71140000D01*
X121555389Y-71188037D01*
X121327903Y-71282265D01*
X121123172Y-71419062D01*
X120949062Y-71593172D01*
X120812265Y-71797903D01*
X120718037Y-72025389D01*
X120670000Y-72266886D01*
X120630000Y-72266886D01*
X120581963Y-72025389D01*
X120487735Y-71797903D01*
X120350938Y-71593172D01*
X120176828Y-71419062D01*
X119972097Y-71282265D01*
X119744611Y-71188037D01*
X119503114Y-71140000D01*
X119256886Y-71140000D01*
X119015389Y-71188037D01*
X118787903Y-71282265D01*
X118583172Y-71419062D01*
X118409062Y-71593172D01*
X118272265Y-71797903D01*
X118178037Y-72025389D01*
X118130000Y-72266886D01*
X118090000Y-72266886D01*
X118041963Y-72025389D01*
X117947735Y-71797903D01*
X117810938Y-71593172D01*
X117636828Y-71419062D01*
X117432097Y-71282265D01*
X117204611Y-71188037D01*
X116963114Y-71140000D01*
X116716886Y-71140000D01*
X116475389Y-71188037D01*
X116247903Y-71282265D01*
X116043172Y-71419062D01*
X115869062Y-71593172D01*
X115732265Y-71797903D01*
X115638037Y-72025389D01*
X115590000Y-72266886D01*
X115550000Y-72266886D01*
X115501963Y-72025389D01*
X115407735Y-71797903D01*
X115270938Y-71593172D01*
X115096828Y-71419062D01*
X114892097Y-71282265D01*
X114664611Y-71188037D01*
X114423114Y-71140000D01*
X114176886Y-71140000D01*
X113935389Y-71188037D01*
X113707903Y-71282265D01*
X113503172Y-71419062D01*
X113329062Y-71593172D01*
X113192265Y-71797903D01*
X113098037Y-72025389D01*
X113050000Y-72266886D01*
X113010000Y-72266886D01*
X112961963Y-72025389D01*
X112867735Y-71797903D01*
X112730938Y-71593172D01*
X112556828Y-71419062D01*
X112352097Y-71282265D01*
X112124611Y-71188037D01*
X111883114Y-71140000D01*
X111636886Y-71140000D01*
X111395389Y-71188037D01*
X111167903Y-71282265D01*
X110963172Y-71419062D01*
X110789062Y-71593172D01*
X110652265Y-71797903D01*
X110558037Y-72025389D01*
X110510000Y-72266886D01*
X110470000Y-72266886D01*
X110421963Y-72025389D01*
X110327735Y-71797903D01*
X110190938Y-71593172D01*
X110016828Y-71419062D01*
X109812097Y-71282265D01*
X109584611Y-71188037D01*
X109343114Y-71140000D01*
X109096886Y-71140000D01*
X108855389Y-71188037D01*
X108627903Y-71282265D01*
X108423172Y-71419062D01*
X108249062Y-71593172D01*
X108112265Y-71797903D01*
X108018037Y-72025389D01*
X107970000Y-72266886D01*
X105390000Y-72266886D01*
X105341963Y-72025389D01*
X105247735Y-71797903D01*
X105110938Y-71593172D01*
X104936828Y-71419062D01*
X104732097Y-71282265D01*
X104504611Y-71188037D01*
X104263114Y-71140000D01*
X104016886Y-71140000D01*
X103775389Y-71188037D01*
X103547903Y-71282265D01*
X103343172Y-71419062D01*
X103169062Y-71593172D01*
X103032265Y-71797903D01*
X102938037Y-72025389D01*
X102890000Y-72266886D01*
X102850000Y-72266886D01*
X102801963Y-72025389D01*
X102707735Y-71797903D01*
X102570938Y-71593172D01*
X102396828Y-71419062D01*
X102192097Y-71282265D01*
X101964611Y-71188037D01*
X101723114Y-71140000D01*
X101476886Y-71140000D01*
X101235389Y-71188037D01*
X101007903Y-71282265D01*
X100803172Y-71419062D01*
X100629062Y-71593172D01*
X100492265Y-71797903D01*
X100398037Y-72025389D01*
X100350000Y-72266886D01*
X100310000Y-72266886D01*
X100261963Y-72025389D01*
X100167735Y-71797903D01*
X100030938Y-71593172D01*
X99856828Y-71419062D01*
X99652097Y-71282265D01*
X99424611Y-71188037D01*
X99183114Y-71140000D01*
X98936886Y-71140000D01*
X98695389Y-71188037D01*
X98467903Y-71282265D01*
X98263172Y-71419062D01*
X98089062Y-71593172D01*
X97952265Y-71797903D01*
X97858037Y-72025389D01*
X97810000Y-72266886D01*
X97770000Y-72266886D01*
X97721963Y-72025389D01*
X97627735Y-71797903D01*
X97490938Y-71593172D01*
X97316828Y-71419062D01*
X97112097Y-71282265D01*
X96884611Y-71188037D01*
X96643114Y-71140000D01*
X96396886Y-71140000D01*
X96155389Y-71188037D01*
X95927903Y-71282265D01*
X95723172Y-71419062D01*
X95549062Y-71593172D01*
X95412265Y-71797903D01*
X95318037Y-72025389D01*
X95270000Y-72266886D01*
X95150024Y-72266886D01*
X95205803Y-72145229D01*
X95134497Y-71910790D01*
X95018824Y-71694767D01*
X94863230Y-71505461D01*
X94673694Y-71350148D01*
X94457500Y-71234795D01*
X94224771Y-71164199D01*
X94030000Y-71253599D01*
X93930000Y-71253599D01*
X93735229Y-71164199D01*
X93502500Y-71234795D01*
X93286306Y-71350148D01*
X93096770Y-71505461D01*
X92941176Y-71694767D01*
X92825503Y-71910790D01*
X92754197Y-72145229D01*
X92665801Y-72145229D01*
X92641963Y-72025389D01*
X92547735Y-71797903D01*
X92410938Y-71593172D01*
X92236828Y-71419062D01*
X92032097Y-71282265D01*
X91804611Y-71188037D01*
X91563114Y-71140000D01*
X91316886Y-71140000D01*
X91075389Y-71188037D01*
X90847903Y-71282265D01*
X90643172Y-71419062D01*
X90469062Y-71593172D01*
X90332265Y-71797903D01*
X90238037Y-72025389D01*
X90190000Y-72266886D01*
X90190000Y-72513114D01*
X90238037Y-72754611D01*
X90332265Y-72982097D01*
X90469062Y-73186828D01*
X90643172Y-73360938D01*
X90847903Y-73497735D01*
X90865000Y-73504817D01*
X90865001Y-76895000D01*
X85045036Y-76895000D01*
X85016793Y-76892218D01*
X84988550Y-76895000D01*
X84988548Y-76895000D01*
X84904074Y-76903320D01*
X84795686Y-76936199D01*
X84695795Y-76989592D01*
X84649947Y-77027218D01*
X84608240Y-77061446D01*
X84590233Y-77083388D01*
X81528393Y-80145229D01*
X81506446Y-80163240D01*
X81483578Y-80191106D01*
X81434592Y-80250796D01*
X81395462Y-80324003D01*
X81381199Y-80350687D01*
X81348320Y-80459075D01*
X81341110Y-80532280D01*
X81337218Y-80571794D01*
X81340000Y-80600037D01*
X81340001Y-84940000D01*
X81254652Y-84940000D01*
X81211963Y-84725389D01*
X81117735Y-84497903D01*
X80980938Y-84293172D01*
X80806828Y-84119062D01*
X80602097Y-83982265D01*
X80374611Y-83888037D01*
X80133114Y-83840000D01*
X79886886Y-83840000D01*
X79645389Y-83888037D01*
X79417903Y-83982265D01*
X79213172Y-84119062D01*
X79039062Y-84293172D01*
X78902265Y-84497903D01*
X78808037Y-84725389D01*
X78760000Y-84966886D01*
X78760000Y-85213114D01*
X78808037Y-85454611D01*
X78902265Y-85682097D01*
X78971023Y-85785000D01*
X78855416Y-85785000D01*
X78799283Y-85649483D01*
X78635126Y-85403806D01*
X78426194Y-85194874D01*
X78269240Y-85090000D01*
X78426194Y-84985126D01*
X78635126Y-84776194D01*
X78799283Y-84530517D01*
X78912356Y-84257534D01*
X78970000Y-83967737D01*
X78970000Y-83672263D01*
X78912356Y-83382466D01*
X78799283Y-83109483D01*
X78635126Y-82863806D01*
X78426194Y-82654874D01*
X78269240Y-82550000D01*
X78426194Y-82445126D01*
X78444434Y-82426886D01*
X78760000Y-82426886D01*
X78760000Y-82673114D01*
X78808037Y-82914611D01*
X78902265Y-83142097D01*
X79039062Y-83346828D01*
X79213172Y-83520938D01*
X79417903Y-83657735D01*
X79645389Y-83751963D01*
X79886886Y-83800000D01*
X80133114Y-83800000D01*
X80374611Y-83751963D01*
X80602097Y-83657735D01*
X80806828Y-83520938D01*
X80980938Y-83346828D01*
X81117735Y-83142097D01*
X81211963Y-82914611D01*
X81260000Y-82673114D01*
X81260000Y-82426886D01*
X81211963Y-82185389D01*
X81117735Y-81957903D01*
X80980938Y-81753172D01*
X80806828Y-81579062D01*
X80602097Y-81442265D01*
X80374611Y-81348037D01*
X80133114Y-81300000D01*
X79886886Y-81300000D01*
X79645389Y-81348037D01*
X79417903Y-81442265D01*
X79213172Y-81579062D01*
X79039062Y-81753172D01*
X78902265Y-81957903D01*
X78808037Y-82185389D01*
X78760000Y-82426886D01*
X78444434Y-82426886D01*
X78635126Y-82236194D01*
X78799283Y-81990517D01*
X78912356Y-81717534D01*
X78970000Y-81427737D01*
X78970000Y-81132263D01*
X78912356Y-80842466D01*
X78799283Y-80569483D01*
X78635126Y-80323806D01*
X78426194Y-80114874D01*
X78180517Y-79950717D01*
X78026415Y-79886886D01*
X78760000Y-79886886D01*
X78760000Y-80133114D01*
X78808037Y-80374611D01*
X78902265Y-80602097D01*
X79039062Y-80806828D01*
X79213172Y-80980938D01*
X79417903Y-81117735D01*
X79645389Y-81211963D01*
X79886886Y-81260000D01*
X80133114Y-81260000D01*
X80374611Y-81211963D01*
X80602097Y-81117735D01*
X80806828Y-80980938D01*
X80980938Y-80806828D01*
X81117735Y-80602097D01*
X81211963Y-80374611D01*
X81260000Y-80133114D01*
X81260000Y-79886886D01*
X81211963Y-79645389D01*
X81117735Y-79417903D01*
X80980938Y-79213172D01*
X80806828Y-79039062D01*
X80602097Y-78902265D01*
X80374611Y-78808037D01*
X80133114Y-78760000D01*
X79886886Y-78760000D01*
X79645389Y-78808037D01*
X79417903Y-78902265D01*
X79213172Y-79039062D01*
X79039062Y-79213172D01*
X78902265Y-79417903D01*
X78808037Y-79645389D01*
X78760000Y-79886886D01*
X78026415Y-79886886D01*
X77907534Y-79837644D01*
X77617737Y-79780000D01*
X77322263Y-79780000D01*
X77032466Y-79837644D01*
X76759483Y-79950717D01*
X76513806Y-80114874D01*
X76304874Y-80323806D01*
X76140717Y-80569483D01*
X76027644Y-80842466D01*
X75970000Y-81132263D01*
X75970000Y-81427737D01*
X76027644Y-81717534D01*
X76140717Y-81990517D01*
X76304874Y-82236194D01*
X76513806Y-82445126D01*
X76670760Y-82550000D01*
X76513806Y-82654874D01*
X76304874Y-82863806D01*
X76140717Y-83109483D01*
X76027644Y-83382466D01*
X75970000Y-83672263D01*
X75970000Y-83967737D01*
X75989638Y-84066465D01*
X69270059Y-77346886D01*
X78760000Y-77346886D01*
X78760000Y-77593114D01*
X78808037Y-77834611D01*
X78902265Y-78062097D01*
X79039062Y-78266828D01*
X79213172Y-78440938D01*
X79417903Y-78577735D01*
X79645389Y-78671963D01*
X79886886Y-78720000D01*
X80133114Y-78720000D01*
X80374611Y-78671963D01*
X80602097Y-78577735D01*
X80806828Y-78440938D01*
X80980938Y-78266828D01*
X81117735Y-78062097D01*
X81211963Y-77834611D01*
X81260000Y-77593114D01*
X81260000Y-77346886D01*
X81211963Y-77105389D01*
X81117735Y-76877903D01*
X80980938Y-76673172D01*
X80806828Y-76499062D01*
X80602097Y-76362265D01*
X80374611Y-76268037D01*
X80133114Y-76220000D01*
X79886886Y-76220000D01*
X79645389Y-76268037D01*
X79417903Y-76362265D01*
X79213172Y-76499062D01*
X79039062Y-76673172D01*
X78902265Y-76877903D01*
X78808037Y-77105389D01*
X78760000Y-77346886D01*
X69270059Y-77346886D01*
X69006566Y-77083394D01*
X68988554Y-77061446D01*
X68900998Y-76989592D01*
X68801108Y-76936199D01*
X68692720Y-76903320D01*
X68608246Y-76895000D01*
X68608243Y-76895000D01*
X68580000Y-76892218D01*
X68551757Y-76895000D01*
X60942177Y-76895000D01*
X60942177Y-76670000D01*
X60933489Y-76581785D01*
X60907757Y-76496959D01*
X60865971Y-76418784D01*
X60809737Y-76350263D01*
X60741216Y-76294029D01*
X60663041Y-76252243D01*
X60578215Y-76226511D01*
X60490000Y-76217823D01*
X58895000Y-76217823D01*
X58895000Y-71590000D01*
X85107823Y-71590000D01*
X85107823Y-73190000D01*
X85116511Y-73278215D01*
X85142243Y-73363041D01*
X85184029Y-73441216D01*
X85240263Y-73509737D01*
X85308784Y-73565971D01*
X85386959Y-73607757D01*
X85471785Y-73633489D01*
X85560000Y-73642177D01*
X87160000Y-73642177D01*
X87248215Y-73633489D01*
X87333041Y-73607757D01*
X87411216Y-73565971D01*
X87479737Y-73509737D01*
X87535971Y-73441216D01*
X87577757Y-73363041D01*
X87603489Y-73278215D01*
X87612177Y-73190000D01*
X87612177Y-72266886D01*
X87650000Y-72266886D01*
X87650000Y-72513114D01*
X87698037Y-72754611D01*
X87792265Y-72982097D01*
X87929062Y-73186828D01*
X88103172Y-73360938D01*
X88307903Y-73497735D01*
X88535389Y-73591963D01*
X88776886Y-73640000D01*
X89023114Y-73640000D01*
X89264611Y-73591963D01*
X89492097Y-73497735D01*
X89696828Y-73360938D01*
X89870938Y-73186828D01*
X90007735Y-72982097D01*
X90101963Y-72754611D01*
X90150000Y-72513114D01*
X90150000Y-72266886D01*
X90101963Y-72025389D01*
X90007735Y-71797903D01*
X89870938Y-71593172D01*
X89696828Y-71419062D01*
X89492097Y-71282265D01*
X89264611Y-71188037D01*
X89023114Y-71140000D01*
X88776886Y-71140000D01*
X88535389Y-71188037D01*
X88307903Y-71282265D01*
X88103172Y-71419062D01*
X87929062Y-71593172D01*
X87792265Y-71797903D01*
X87698037Y-72025389D01*
X87650000Y-72266886D01*
X87612177Y-72266886D01*
X87612177Y-71590000D01*
X87603489Y-71501785D01*
X87577757Y-71416959D01*
X87535971Y-71338784D01*
X87479737Y-71270263D01*
X87411216Y-71214029D01*
X87333041Y-71172243D01*
X87248215Y-71146511D01*
X87160000Y-71137823D01*
X85560000Y-71137823D01*
X85471785Y-71146511D01*
X85386959Y-71172243D01*
X85308784Y-71214029D01*
X85240263Y-71270263D01*
X85184029Y-71338784D01*
X85142243Y-71416959D01*
X85116511Y-71501785D01*
X85107823Y-71590000D01*
X58895000Y-71590000D01*
X58895000Y-70325000D01*
X123985001Y-70325000D01*
X123985000Y-72366668D01*
G37*
X123985000Y-72366668D02*
X123982702Y-72390000D01*
X123985000Y-72413331D01*
X123991873Y-72483115D01*
X124019034Y-72572653D01*
X124063141Y-72655173D01*
X124122499Y-72727501D01*
X124140634Y-72742384D01*
X126525001Y-75126752D01*
X126525001Y-90655000D01*
X124469515Y-90655000D01*
X124355126Y-90483806D01*
X124146194Y-90274874D01*
X123992906Y-90172450D01*
X124019740Y-90158316D01*
X124035005Y-90148116D01*
X124140253Y-89920964D01*
X123190000Y-88970711D01*
X122239747Y-89920964D01*
X122344995Y-90148116D01*
X122388334Y-90171621D01*
X122233806Y-90274874D01*
X122024874Y-90483806D01*
X121910485Y-90655000D01*
X116267132Y-90655000D01*
X114502952Y-88890820D01*
X121682770Y-88890820D01*
X121709940Y-89185043D01*
X121793988Y-89468311D01*
X121931684Y-89729740D01*
X121941884Y-89745005D01*
X122169036Y-89850253D01*
X123119289Y-88900000D01*
X123260711Y-88900000D01*
X124210964Y-89850253D01*
X124438116Y-89745005D01*
X124578985Y-89485274D01*
X124666478Y-89203050D01*
X124697230Y-88909180D01*
X124670060Y-88614957D01*
X124586012Y-88331689D01*
X124448316Y-88070260D01*
X124438116Y-88054995D01*
X124210964Y-87949747D01*
X123260711Y-88900000D01*
X123119289Y-88900000D01*
X122169036Y-87949747D01*
X121941884Y-88054995D01*
X121801015Y-88314726D01*
X121713522Y-88596950D01*
X121682770Y-88890820D01*
X114502952Y-88890820D01*
X109450000Y-83837868D01*
X109450000Y-83672263D01*
X109392356Y-83382466D01*
X109279283Y-83109483D01*
X109115126Y-82863806D01*
X109030494Y-82779174D01*
X109088215Y-82773489D01*
X109173041Y-82747757D01*
X109251216Y-82705971D01*
X109319737Y-82649737D01*
X109375971Y-82581216D01*
X109417757Y-82503041D01*
X109443489Y-82418215D01*
X109452177Y-82330000D01*
X109452177Y-80230000D01*
X109443489Y-80141785D01*
X109417757Y-80056959D01*
X109375971Y-79978784D01*
X109319737Y-79910263D01*
X109251216Y-79854029D01*
X109173041Y-79812243D01*
X109088215Y-79786511D01*
X109000000Y-79777823D01*
X106900000Y-79777823D01*
X106811785Y-79786511D01*
X106726959Y-79812243D01*
X106648784Y-79854029D01*
X106580263Y-79910263D01*
X106524029Y-79978784D01*
X106482243Y-80056959D01*
X106456511Y-80141785D01*
X106447823Y-80230000D01*
X106447823Y-82330000D01*
X106456511Y-82418215D01*
X106482243Y-82503041D01*
X106524029Y-82581216D01*
X106580263Y-82649737D01*
X106648784Y-82705971D01*
X106726959Y-82747757D01*
X106811785Y-82773489D01*
X106869506Y-82779174D01*
X106784874Y-82863806D01*
X106620717Y-83109483D01*
X106507644Y-83382466D01*
X106450000Y-83672263D01*
X106450000Y-83837868D01*
X101778678Y-88509190D01*
X101726012Y-88331689D01*
X101588316Y-88070260D01*
X101578116Y-88054995D01*
X101350964Y-87949747D01*
X100400711Y-88900000D01*
X100414853Y-88914142D01*
X100344142Y-88984853D01*
X100330000Y-88970711D01*
X100315858Y-88984853D01*
X100245147Y-88914142D01*
X100259289Y-88900000D01*
X99309036Y-87949747D01*
X99081884Y-88054995D01*
X98941015Y-88314726D01*
X98872833Y-88534660D01*
X98216565Y-87878393D01*
X98198554Y-87856446D01*
X98110998Y-87784592D01*
X98011108Y-87731199D01*
X97902720Y-87698320D01*
X97818246Y-87690000D01*
X97818243Y-87690000D01*
X97790000Y-87687218D01*
X97761757Y-87690000D01*
X95522132Y-87690000D01*
X92816066Y-84983934D01*
X92793336Y-84965280D01*
X92767403Y-84951418D01*
X92741834Y-84943662D01*
X86786566Y-78988394D01*
X86768554Y-78966446D01*
X86680998Y-78894592D01*
X86581108Y-78841199D01*
X86472720Y-78808320D01*
X86388246Y-78800000D01*
X86388243Y-78800000D01*
X86360000Y-78797218D01*
X86331757Y-78800000D01*
X84499967Y-78800000D01*
X85254967Y-78045000D01*
X91201828Y-78045000D01*
X98943777Y-85786950D01*
X98887644Y-85922466D01*
X98830000Y-86212263D01*
X98830000Y-86507737D01*
X98887644Y-86797534D01*
X99000717Y-87070517D01*
X99164874Y-87316194D01*
X99373806Y-87525126D01*
X99527094Y-87627550D01*
X99500260Y-87641684D01*
X99484995Y-87651884D01*
X99379747Y-87879036D01*
X100330000Y-88829289D01*
X101280253Y-87879036D01*
X101175005Y-87651884D01*
X101131666Y-87628379D01*
X101286194Y-87525126D01*
X101495126Y-87316194D01*
X101659283Y-87070517D01*
X101772356Y-86797534D01*
X101830000Y-86507737D01*
X101830000Y-86212263D01*
X101772356Y-85922466D01*
X101716223Y-85786950D01*
X101806558Y-85696615D01*
X101806562Y-85696610D01*
X102621612Y-84881561D01*
X102643554Y-84863554D01*
X102677782Y-84821847D01*
X102715408Y-84775999D01*
X102768801Y-84676108D01*
X102801680Y-84567720D01*
X102810000Y-84483246D01*
X102810000Y-84483244D01*
X102812782Y-84455001D01*
X102810000Y-84426758D01*
X102810000Y-80883172D01*
X105648173Y-78045000D01*
X114061828Y-78045000D01*
X121803777Y-85786950D01*
X121747644Y-85922466D01*
X121690000Y-86212263D01*
X121690000Y-86507737D01*
X121747644Y-86797534D01*
X121860717Y-87070517D01*
X122024874Y-87316194D01*
X122233806Y-87525126D01*
X122387094Y-87627550D01*
X122360260Y-87641684D01*
X122344995Y-87651884D01*
X122239747Y-87879036D01*
X123190000Y-88829289D01*
X124140253Y-87879036D01*
X124035005Y-87651884D01*
X123991666Y-87628379D01*
X124146194Y-87525126D01*
X124355126Y-87316194D01*
X124519283Y-87070517D01*
X124632356Y-86797534D01*
X124690000Y-86507737D01*
X124690000Y-86212263D01*
X124632356Y-85922466D01*
X124519283Y-85649483D01*
X124355126Y-85403806D01*
X124146194Y-85194874D01*
X123989240Y-85090000D01*
X124146194Y-84985126D01*
X124355126Y-84776194D01*
X124519283Y-84530517D01*
X124632356Y-84257534D01*
X124690000Y-83967737D01*
X124690000Y-83672263D01*
X124632356Y-83382466D01*
X124519283Y-83109483D01*
X124355126Y-82863806D01*
X124146194Y-82654874D01*
X123989240Y-82550000D01*
X124146194Y-82445126D01*
X124355126Y-82236194D01*
X124519283Y-81990517D01*
X124632356Y-81717534D01*
X124690000Y-81427737D01*
X124690000Y-81132263D01*
X124632356Y-80842466D01*
X124519283Y-80569483D01*
X124355126Y-80323806D01*
X124146194Y-80114874D01*
X123900517Y-79950717D01*
X123627534Y-79837644D01*
X123337737Y-79780000D01*
X123042263Y-79780000D01*
X122752466Y-79837644D01*
X122479483Y-79950717D01*
X122233806Y-80114874D01*
X122024874Y-80323806D01*
X121860717Y-80569483D01*
X121804584Y-80705000D01*
X120744080Y-80705000D01*
X120854182Y-80683099D01*
X120981574Y-80630332D01*
X121096224Y-80553726D01*
X121193726Y-80456224D01*
X121270332Y-80341574D01*
X121323099Y-80214182D01*
X121350000Y-80078944D01*
X121350000Y-79941056D01*
X121323099Y-79805818D01*
X121270332Y-79678426D01*
X121193726Y-79563776D01*
X121096224Y-79466274D01*
X120981574Y-79389668D01*
X120854182Y-79336901D01*
X120718944Y-79310000D01*
X120581056Y-79310000D01*
X120445818Y-79336901D01*
X120318426Y-79389668D01*
X120203776Y-79466274D01*
X120106274Y-79563776D01*
X120029668Y-79678426D01*
X119976901Y-79805818D01*
X119950000Y-79941056D01*
X119950000Y-80078944D01*
X119976901Y-80214182D01*
X120029668Y-80341574D01*
X120106274Y-80456224D01*
X120203776Y-80553726D01*
X120318426Y-80630332D01*
X120445818Y-80683099D01*
X120555920Y-80705000D01*
X120253173Y-80705000D01*
X115996566Y-76448393D01*
X115978554Y-76426446D01*
X115890998Y-76354592D01*
X115791108Y-76301199D01*
X115682720Y-76268320D01*
X115598246Y-76260000D01*
X115598243Y-76260000D01*
X115570000Y-76257218D01*
X115541757Y-76260000D01*
X104803242Y-76260000D01*
X104774999Y-76257218D01*
X104746756Y-76260000D01*
X104746754Y-76260000D01*
X104662280Y-76268320D01*
X104553892Y-76301199D01*
X104454001Y-76354592D01*
X104408153Y-76392218D01*
X104366446Y-76426446D01*
X104348439Y-76448388D01*
X100903051Y-79893777D01*
X100767534Y-79837644D01*
X100477737Y-79780000D01*
X100182263Y-79780000D01*
X99892466Y-79837644D01*
X99619483Y-79950717D01*
X99373806Y-80114874D01*
X99164874Y-80323806D01*
X99000717Y-80569483D01*
X98887644Y-80842466D01*
X98830000Y-81132263D01*
X98830000Y-81427737D01*
X98887644Y-81717534D01*
X99000717Y-81990517D01*
X99164874Y-82236194D01*
X99373806Y-82445126D01*
X99530760Y-82550000D01*
X99373806Y-82654874D01*
X99164874Y-82863806D01*
X99000717Y-83109483D01*
X98887644Y-83382466D01*
X98830000Y-83672263D01*
X98830000Y-83967737D01*
X98849638Y-84066465D01*
X92015000Y-77231828D01*
X92015000Y-73504817D01*
X92032097Y-73497735D01*
X92236828Y-73360938D01*
X92410938Y-73186828D01*
X92547735Y-72982097D01*
X92641963Y-72754611D01*
X92665800Y-72634771D01*
X92754197Y-72634771D01*
X92825503Y-72869210D01*
X92941176Y-73085233D01*
X93096770Y-73274539D01*
X93286306Y-73429852D01*
X93502500Y-73545205D01*
X93735229Y-73615801D01*
X93930000Y-73526401D01*
X93930000Y-72440000D01*
X94030000Y-72440000D01*
X94030000Y-73526401D01*
X94224771Y-73615801D01*
X94457500Y-73545205D01*
X94673694Y-73429852D01*
X94863230Y-73274539D01*
X95018824Y-73085233D01*
X95134497Y-72869210D01*
X95205803Y-72634771D01*
X95116502Y-72440000D01*
X94030000Y-72440000D01*
X93930000Y-72440000D01*
X92843498Y-72440000D01*
X92754197Y-72634771D01*
X92665800Y-72634771D01*
X92690000Y-72513114D01*
X92690000Y-72266886D01*
X92665801Y-72145229D01*
X92754197Y-72145229D01*
X92843498Y-72340000D01*
X93930000Y-72340000D01*
X93930000Y-71253599D01*
X94030000Y-71253599D01*
X94030000Y-72340000D01*
X95116502Y-72340000D01*
X95150024Y-72266886D01*
X95270000Y-72266886D01*
X95270000Y-72513114D01*
X95318037Y-72754611D01*
X95412265Y-72982097D01*
X95549062Y-73186828D01*
X95723172Y-73360938D01*
X95927903Y-73497735D01*
X96155389Y-73591963D01*
X96396886Y-73640000D01*
X96643114Y-73640000D01*
X96884611Y-73591963D01*
X97112097Y-73497735D01*
X97316828Y-73360938D01*
X97490938Y-73186828D01*
X97627735Y-72982097D01*
X97721963Y-72754611D01*
X97770000Y-72513114D01*
X97770000Y-72266886D01*
X97810000Y-72266886D01*
X97810000Y-72513114D01*
X97858037Y-72754611D01*
X97952265Y-72982097D01*
X98089062Y-73186828D01*
X98263172Y-73360938D01*
X98467903Y-73497735D01*
X98695389Y-73591963D01*
X98936886Y-73640000D01*
X99183114Y-73640000D01*
X99424611Y-73591963D01*
X99652097Y-73497735D01*
X99856828Y-73360938D01*
X100030938Y-73186828D01*
X100167735Y-72982097D01*
X100261963Y-72754611D01*
X100310000Y-72513114D01*
X100310000Y-72266886D01*
X100350000Y-72266886D01*
X100350000Y-72513114D01*
X100398037Y-72754611D01*
X100492265Y-72982097D01*
X100629062Y-73186828D01*
X100803172Y-73360938D01*
X101007903Y-73497735D01*
X101235389Y-73591963D01*
X101476886Y-73640000D01*
X101723114Y-73640000D01*
X101964611Y-73591963D01*
X102192097Y-73497735D01*
X102396828Y-73360938D01*
X102570938Y-73186828D01*
X102707735Y-72982097D01*
X102801963Y-72754611D01*
X102850000Y-72513114D01*
X102850000Y-72266886D01*
X102890000Y-72266886D01*
X102890000Y-72513114D01*
X102938037Y-72754611D01*
X103032265Y-72982097D01*
X103169062Y-73186828D01*
X103343172Y-73360938D01*
X103547903Y-73497735D01*
X103775389Y-73591963D01*
X104016886Y-73640000D01*
X104263114Y-73640000D01*
X104504611Y-73591963D01*
X104732097Y-73497735D01*
X104936828Y-73360938D01*
X105110938Y-73186828D01*
X105247735Y-72982097D01*
X105341963Y-72754611D01*
X105390000Y-72513114D01*
X105390000Y-72266886D01*
X107970000Y-72266886D01*
X107970000Y-72513114D01*
X108018037Y-72754611D01*
X108112265Y-72982097D01*
X108249062Y-73186828D01*
X108423172Y-73360938D01*
X108627903Y-73497735D01*
X108855389Y-73591963D01*
X109096886Y-73640000D01*
X109343114Y-73640000D01*
X109584611Y-73591963D01*
X109812097Y-73497735D01*
X110016828Y-73360938D01*
X110190938Y-73186828D01*
X110327735Y-72982097D01*
X110421963Y-72754611D01*
X110470000Y-72513114D01*
X110470000Y-72266886D01*
X110510000Y-72266886D01*
X110510000Y-72513114D01*
X110558037Y-72754611D01*
X110652265Y-72982097D01*
X110789062Y-73186828D01*
X110963172Y-73360938D01*
X111167903Y-73497735D01*
X111395389Y-73591963D01*
X111636886Y-73640000D01*
X111883114Y-73640000D01*
X112124611Y-73591963D01*
X112352097Y-73497735D01*
X112556828Y-73360938D01*
X112730938Y-73186828D01*
X112867735Y-72982097D01*
X112961963Y-72754611D01*
X113010000Y-72513114D01*
X113010000Y-72266886D01*
X113050000Y-72266886D01*
X113050000Y-72513114D01*
X113098037Y-72754611D01*
X113192265Y-72982097D01*
X113329062Y-73186828D01*
X113503172Y-73360938D01*
X113707903Y-73497735D01*
X113935389Y-73591963D01*
X114176886Y-73640000D01*
X114423114Y-73640000D01*
X114664611Y-73591963D01*
X114892097Y-73497735D01*
X115096828Y-73360938D01*
X115270938Y-73186828D01*
X115407735Y-72982097D01*
X115501963Y-72754611D01*
X115550000Y-72513114D01*
X115550000Y-72266886D01*
X115590000Y-72266886D01*
X115590000Y-72513114D01*
X115638037Y-72754611D01*
X115732265Y-72982097D01*
X115869062Y-73186828D01*
X116043172Y-73360938D01*
X116247903Y-73497735D01*
X116475389Y-73591963D01*
X116716886Y-73640000D01*
X116963114Y-73640000D01*
X117204611Y-73591963D01*
X117432097Y-73497735D01*
X117636828Y-73360938D01*
X117810938Y-73186828D01*
X117947735Y-72982097D01*
X118041963Y-72754611D01*
X118090000Y-72513114D01*
X118090000Y-72266886D01*
X118130000Y-72266886D01*
X118130000Y-72513114D01*
X118178037Y-72754611D01*
X118272265Y-72982097D01*
X118409062Y-73186828D01*
X118583172Y-73360938D01*
X118787903Y-73497735D01*
X119015389Y-73591963D01*
X119256886Y-73640000D01*
X119503114Y-73640000D01*
X119744611Y-73591963D01*
X119972097Y-73497735D01*
X120176828Y-73360938D01*
X120350938Y-73186828D01*
X120487735Y-72982097D01*
X120581963Y-72754611D01*
X120630000Y-72513114D01*
X120630000Y-72266886D01*
X120670000Y-72266886D01*
X120670000Y-72513114D01*
X120718037Y-72754611D01*
X120812265Y-72982097D01*
X120949062Y-73186828D01*
X121123172Y-73360938D01*
X121327903Y-73497735D01*
X121555389Y-73591963D01*
X121796886Y-73640000D01*
X122043114Y-73640000D01*
X122284611Y-73591963D01*
X122512097Y-73497735D01*
X122716828Y-73360938D01*
X122890938Y-73186828D01*
X123027735Y-72982097D01*
X123121963Y-72754611D01*
X123170000Y-72513114D01*
X123170000Y-72266886D01*
X123121963Y-72025389D01*
X123027735Y-71797903D01*
X122890938Y-71593172D01*
X122716828Y-71419062D01*
X122512097Y-71282265D01*
X122284611Y-71188037D01*
X122043114Y-71140000D01*
X121796886Y-71140000D01*
X121555389Y-71188037D01*
X121327903Y-71282265D01*
X121123172Y-71419062D01*
X120949062Y-71593172D01*
X120812265Y-71797903D01*
X120718037Y-72025389D01*
X120670000Y-72266886D01*
X120630000Y-72266886D01*
X120581963Y-72025389D01*
X120487735Y-71797903D01*
X120350938Y-71593172D01*
X120176828Y-71419062D01*
X119972097Y-71282265D01*
X119744611Y-71188037D01*
X119503114Y-71140000D01*
X119256886Y-71140000D01*
X119015389Y-71188037D01*
X118787903Y-71282265D01*
X118583172Y-71419062D01*
X118409062Y-71593172D01*
X118272265Y-71797903D01*
X118178037Y-72025389D01*
X118130000Y-72266886D01*
X118090000Y-72266886D01*
X118041963Y-72025389D01*
X117947735Y-71797903D01*
X117810938Y-71593172D01*
X117636828Y-71419062D01*
X117432097Y-71282265D01*
X117204611Y-71188037D01*
X116963114Y-71140000D01*
X116716886Y-71140000D01*
X116475389Y-71188037D01*
X116247903Y-71282265D01*
X116043172Y-71419062D01*
X115869062Y-71593172D01*
X115732265Y-71797903D01*
X115638037Y-72025389D01*
X115590000Y-72266886D01*
X115550000Y-72266886D01*
X115501963Y-72025389D01*
X115407735Y-71797903D01*
X115270938Y-71593172D01*
X115096828Y-71419062D01*
X114892097Y-71282265D01*
X114664611Y-71188037D01*
X114423114Y-71140000D01*
X114176886Y-71140000D01*
X113935389Y-71188037D01*
X113707903Y-71282265D01*
X113503172Y-71419062D01*
X113329062Y-71593172D01*
X113192265Y-71797903D01*
X113098037Y-72025389D01*
X113050000Y-72266886D01*
X113010000Y-72266886D01*
X112961963Y-72025389D01*
X112867735Y-71797903D01*
X112730938Y-71593172D01*
X112556828Y-71419062D01*
X112352097Y-71282265D01*
X112124611Y-71188037D01*
X111883114Y-71140000D01*
X111636886Y-71140000D01*
X111395389Y-71188037D01*
X111167903Y-71282265D01*
X110963172Y-71419062D01*
X110789062Y-71593172D01*
X110652265Y-71797903D01*
X110558037Y-72025389D01*
X110510000Y-72266886D01*
X110470000Y-72266886D01*
X110421963Y-72025389D01*
X110327735Y-71797903D01*
X110190938Y-71593172D01*
X110016828Y-71419062D01*
X109812097Y-71282265D01*
X109584611Y-71188037D01*
X109343114Y-71140000D01*
X109096886Y-71140000D01*
X108855389Y-71188037D01*
X108627903Y-71282265D01*
X108423172Y-71419062D01*
X108249062Y-71593172D01*
X108112265Y-71797903D01*
X108018037Y-72025389D01*
X107970000Y-72266886D01*
X105390000Y-72266886D01*
X105341963Y-72025389D01*
X105247735Y-71797903D01*
X105110938Y-71593172D01*
X104936828Y-71419062D01*
X104732097Y-71282265D01*
X104504611Y-71188037D01*
X104263114Y-71140000D01*
X104016886Y-71140000D01*
X103775389Y-71188037D01*
X103547903Y-71282265D01*
X103343172Y-71419062D01*
X103169062Y-71593172D01*
X103032265Y-71797903D01*
X102938037Y-72025389D01*
X102890000Y-72266886D01*
X102850000Y-72266886D01*
X102801963Y-72025389D01*
X102707735Y-71797903D01*
X102570938Y-71593172D01*
X102396828Y-71419062D01*
X102192097Y-71282265D01*
X101964611Y-71188037D01*
X101723114Y-71140000D01*
X101476886Y-71140000D01*
X101235389Y-71188037D01*
X101007903Y-71282265D01*
X100803172Y-71419062D01*
X100629062Y-71593172D01*
X100492265Y-71797903D01*
X100398037Y-72025389D01*
X100350000Y-72266886D01*
X100310000Y-72266886D01*
X100261963Y-72025389D01*
X100167735Y-71797903D01*
X100030938Y-71593172D01*
X99856828Y-71419062D01*
X99652097Y-71282265D01*
X99424611Y-71188037D01*
X99183114Y-71140000D01*
X98936886Y-71140000D01*
X98695389Y-71188037D01*
X98467903Y-71282265D01*
X98263172Y-71419062D01*
X98089062Y-71593172D01*
X97952265Y-71797903D01*
X97858037Y-72025389D01*
X97810000Y-72266886D01*
X97770000Y-72266886D01*
X97721963Y-72025389D01*
X97627735Y-71797903D01*
X97490938Y-71593172D01*
X97316828Y-71419062D01*
X97112097Y-71282265D01*
X96884611Y-71188037D01*
X96643114Y-71140000D01*
X96396886Y-71140000D01*
X96155389Y-71188037D01*
X95927903Y-71282265D01*
X95723172Y-71419062D01*
X95549062Y-71593172D01*
X95412265Y-71797903D01*
X95318037Y-72025389D01*
X95270000Y-72266886D01*
X95150024Y-72266886D01*
X95205803Y-72145229D01*
X95134497Y-71910790D01*
X95018824Y-71694767D01*
X94863230Y-71505461D01*
X94673694Y-71350148D01*
X94457500Y-71234795D01*
X94224771Y-71164199D01*
X94030000Y-71253599D01*
X93930000Y-71253599D01*
X93735229Y-71164199D01*
X93502500Y-71234795D01*
X93286306Y-71350148D01*
X93096770Y-71505461D01*
X92941176Y-71694767D01*
X92825503Y-71910790D01*
X92754197Y-72145229D01*
X92665801Y-72145229D01*
X92641963Y-72025389D01*
X92547735Y-71797903D01*
X92410938Y-71593172D01*
X92236828Y-71419062D01*
X92032097Y-71282265D01*
X91804611Y-71188037D01*
X91563114Y-71140000D01*
X91316886Y-71140000D01*
X91075389Y-71188037D01*
X90847903Y-71282265D01*
X90643172Y-71419062D01*
X90469062Y-71593172D01*
X90332265Y-71797903D01*
X90238037Y-72025389D01*
X90190000Y-72266886D01*
X90190000Y-72513114D01*
X90238037Y-72754611D01*
X90332265Y-72982097D01*
X90469062Y-73186828D01*
X90643172Y-73360938D01*
X90847903Y-73497735D01*
X90865000Y-73504817D01*
X90865001Y-76895000D01*
X85045036Y-76895000D01*
X85016793Y-76892218D01*
X84988550Y-76895000D01*
X84988548Y-76895000D01*
X84904074Y-76903320D01*
X84795686Y-76936199D01*
X84695795Y-76989592D01*
X84649947Y-77027218D01*
X84608240Y-77061446D01*
X84590233Y-77083388D01*
X81528393Y-80145229D01*
X81506446Y-80163240D01*
X81483578Y-80191106D01*
X81434592Y-80250796D01*
X81395462Y-80324003D01*
X81381199Y-80350687D01*
X81348320Y-80459075D01*
X81341110Y-80532280D01*
X81337218Y-80571794D01*
X81340000Y-80600037D01*
X81340001Y-84940000D01*
X81254652Y-84940000D01*
X81211963Y-84725389D01*
X81117735Y-84497903D01*
X80980938Y-84293172D01*
X80806828Y-84119062D01*
X80602097Y-83982265D01*
X80374611Y-83888037D01*
X80133114Y-83840000D01*
X79886886Y-83840000D01*
X79645389Y-83888037D01*
X79417903Y-83982265D01*
X79213172Y-84119062D01*
X79039062Y-84293172D01*
X78902265Y-84497903D01*
X78808037Y-84725389D01*
X78760000Y-84966886D01*
X78760000Y-85213114D01*
X78808037Y-85454611D01*
X78902265Y-85682097D01*
X78971023Y-85785000D01*
X78855416Y-85785000D01*
X78799283Y-85649483D01*
X78635126Y-85403806D01*
X78426194Y-85194874D01*
X78269240Y-85090000D01*
X78426194Y-84985126D01*
X78635126Y-84776194D01*
X78799283Y-84530517D01*
X78912356Y-84257534D01*
X78970000Y-83967737D01*
X78970000Y-83672263D01*
X78912356Y-83382466D01*
X78799283Y-83109483D01*
X78635126Y-82863806D01*
X78426194Y-82654874D01*
X78269240Y-82550000D01*
X78426194Y-82445126D01*
X78444434Y-82426886D01*
X78760000Y-82426886D01*
X78760000Y-82673114D01*
X78808037Y-82914611D01*
X78902265Y-83142097D01*
X79039062Y-83346828D01*
X79213172Y-83520938D01*
X79417903Y-83657735D01*
X79645389Y-83751963D01*
X79886886Y-83800000D01*
X80133114Y-83800000D01*
X80374611Y-83751963D01*
X80602097Y-83657735D01*
X80806828Y-83520938D01*
X80980938Y-83346828D01*
X81117735Y-83142097D01*
X81211963Y-82914611D01*
X81260000Y-82673114D01*
X81260000Y-82426886D01*
X81211963Y-82185389D01*
X81117735Y-81957903D01*
X80980938Y-81753172D01*
X80806828Y-81579062D01*
X80602097Y-81442265D01*
X80374611Y-81348037D01*
X80133114Y-81300000D01*
X79886886Y-81300000D01*
X79645389Y-81348037D01*
X79417903Y-81442265D01*
X79213172Y-81579062D01*
X79039062Y-81753172D01*
X78902265Y-81957903D01*
X78808037Y-82185389D01*
X78760000Y-82426886D01*
X78444434Y-82426886D01*
X78635126Y-82236194D01*
X78799283Y-81990517D01*
X78912356Y-81717534D01*
X78970000Y-81427737D01*
X78970000Y-81132263D01*
X78912356Y-80842466D01*
X78799283Y-80569483D01*
X78635126Y-80323806D01*
X78426194Y-80114874D01*
X78180517Y-79950717D01*
X78026415Y-79886886D01*
X78760000Y-79886886D01*
X78760000Y-80133114D01*
X78808037Y-80374611D01*
X78902265Y-80602097D01*
X79039062Y-80806828D01*
X79213172Y-80980938D01*
X79417903Y-81117735D01*
X79645389Y-81211963D01*
X79886886Y-81260000D01*
X80133114Y-81260000D01*
X80374611Y-81211963D01*
X80602097Y-81117735D01*
X80806828Y-80980938D01*
X80980938Y-80806828D01*
X81117735Y-80602097D01*
X81211963Y-80374611D01*
X81260000Y-80133114D01*
X81260000Y-79886886D01*
X81211963Y-79645389D01*
X81117735Y-79417903D01*
X80980938Y-79213172D01*
X80806828Y-79039062D01*
X80602097Y-78902265D01*
X80374611Y-78808037D01*
X80133114Y-78760000D01*
X79886886Y-78760000D01*
X79645389Y-78808037D01*
X79417903Y-78902265D01*
X79213172Y-79039062D01*
X79039062Y-79213172D01*
X78902265Y-79417903D01*
X78808037Y-79645389D01*
X78760000Y-79886886D01*
X78026415Y-79886886D01*
X77907534Y-79837644D01*
X77617737Y-79780000D01*
X77322263Y-79780000D01*
X77032466Y-79837644D01*
X76759483Y-79950717D01*
X76513806Y-80114874D01*
X76304874Y-80323806D01*
X76140717Y-80569483D01*
X76027644Y-80842466D01*
X75970000Y-81132263D01*
X75970000Y-81427737D01*
X76027644Y-81717534D01*
X76140717Y-81990517D01*
X76304874Y-82236194D01*
X76513806Y-82445126D01*
X76670760Y-82550000D01*
X76513806Y-82654874D01*
X76304874Y-82863806D01*
X76140717Y-83109483D01*
X76027644Y-83382466D01*
X75970000Y-83672263D01*
X75970000Y-83967737D01*
X75989638Y-84066465D01*
X69270059Y-77346886D01*
X78760000Y-77346886D01*
X78760000Y-77593114D01*
X78808037Y-77834611D01*
X78902265Y-78062097D01*
X79039062Y-78266828D01*
X79213172Y-78440938D01*
X79417903Y-78577735D01*
X79645389Y-78671963D01*
X79886886Y-78720000D01*
X80133114Y-78720000D01*
X80374611Y-78671963D01*
X80602097Y-78577735D01*
X80806828Y-78440938D01*
X80980938Y-78266828D01*
X81117735Y-78062097D01*
X81211963Y-77834611D01*
X81260000Y-77593114D01*
X81260000Y-77346886D01*
X81211963Y-77105389D01*
X81117735Y-76877903D01*
X80980938Y-76673172D01*
X80806828Y-76499062D01*
X80602097Y-76362265D01*
X80374611Y-76268037D01*
X80133114Y-76220000D01*
X79886886Y-76220000D01*
X79645389Y-76268037D01*
X79417903Y-76362265D01*
X79213172Y-76499062D01*
X79039062Y-76673172D01*
X78902265Y-76877903D01*
X78808037Y-77105389D01*
X78760000Y-77346886D01*
X69270059Y-77346886D01*
X69006566Y-77083394D01*
X68988554Y-77061446D01*
X68900998Y-76989592D01*
X68801108Y-76936199D01*
X68692720Y-76903320D01*
X68608246Y-76895000D01*
X68608243Y-76895000D01*
X68580000Y-76892218D01*
X68551757Y-76895000D01*
X60942177Y-76895000D01*
X60942177Y-76670000D01*
X60933489Y-76581785D01*
X60907757Y-76496959D01*
X60865971Y-76418784D01*
X60809737Y-76350263D01*
X60741216Y-76294029D01*
X60663041Y-76252243D01*
X60578215Y-76226511D01*
X60490000Y-76217823D01*
X58895000Y-76217823D01*
X58895000Y-71590000D01*
X85107823Y-71590000D01*
X85107823Y-73190000D01*
X85116511Y-73278215D01*
X85142243Y-73363041D01*
X85184029Y-73441216D01*
X85240263Y-73509737D01*
X85308784Y-73565971D01*
X85386959Y-73607757D01*
X85471785Y-73633489D01*
X85560000Y-73642177D01*
X87160000Y-73642177D01*
X87248215Y-73633489D01*
X87333041Y-73607757D01*
X87411216Y-73565971D01*
X87479737Y-73509737D01*
X87535971Y-73441216D01*
X87577757Y-73363041D01*
X87603489Y-73278215D01*
X87612177Y-73190000D01*
X87612177Y-72266886D01*
X87650000Y-72266886D01*
X87650000Y-72513114D01*
X87698037Y-72754611D01*
X87792265Y-72982097D01*
X87929062Y-73186828D01*
X88103172Y-73360938D01*
X88307903Y-73497735D01*
X88535389Y-73591963D01*
X88776886Y-73640000D01*
X89023114Y-73640000D01*
X89264611Y-73591963D01*
X89492097Y-73497735D01*
X89696828Y-73360938D01*
X89870938Y-73186828D01*
X90007735Y-72982097D01*
X90101963Y-72754611D01*
X90150000Y-72513114D01*
X90150000Y-72266886D01*
X90101963Y-72025389D01*
X90007735Y-71797903D01*
X89870938Y-71593172D01*
X89696828Y-71419062D01*
X89492097Y-71282265D01*
X89264611Y-71188037D01*
X89023114Y-71140000D01*
X88776886Y-71140000D01*
X88535389Y-71188037D01*
X88307903Y-71282265D01*
X88103172Y-71419062D01*
X87929062Y-71593172D01*
X87792265Y-71797903D01*
X87698037Y-72025389D01*
X87650000Y-72266886D01*
X87612177Y-72266886D01*
X87612177Y-71590000D01*
X87603489Y-71501785D01*
X87577757Y-71416959D01*
X87535971Y-71338784D01*
X87479737Y-71270263D01*
X87411216Y-71214029D01*
X87333041Y-71172243D01*
X87248215Y-71146511D01*
X87160000Y-71137823D01*
X85560000Y-71137823D01*
X85471785Y-71146511D01*
X85386959Y-71172243D01*
X85308784Y-71214029D01*
X85240263Y-71270263D01*
X85184029Y-71338784D01*
X85142243Y-71416959D01*
X85116511Y-71501785D01*
X85107823Y-71590000D01*
X58895000Y-71590000D01*
X58895000Y-70325000D01*
X123985001Y-70325000D01*
X123985000Y-72366668D01*
G36*
X59097903Y-106517735D02*
G01*
X59325389Y-106611963D01*
X59566886Y-106660000D01*
X59813114Y-106660000D01*
X60054611Y-106611963D01*
X60280000Y-106518604D01*
X60280000Y-110356746D01*
X60277217Y-110384999D01*
X60288320Y-110497718D01*
X60321198Y-110606106D01*
X60374591Y-110705997D01*
X60401172Y-110738386D01*
X60446446Y-110793553D01*
X60468388Y-110811560D01*
X72371827Y-122715000D01*
X58895000Y-122715000D01*
X58895000Y-106382159D01*
X59097903Y-106517735D01*
G37*
X59097903Y-106517735D02*
X59325389Y-106611963D01*
X59566886Y-106660000D01*
X59813114Y-106660000D01*
X60054611Y-106611963D01*
X60280000Y-106518604D01*
X60280000Y-110356746D01*
X60277217Y-110384999D01*
X60288320Y-110497718D01*
X60321198Y-110606106D01*
X60374591Y-110705997D01*
X60401172Y-110738386D01*
X60446446Y-110793553D01*
X60468388Y-110811560D01*
X72371827Y-122715000D01*
X58895000Y-122715000D01*
X58895000Y-106382159D01*
X59097903Y-106517735D01*
G36*
X96637955Y-90785781D02*
G01*
X96780224Y-90998702D01*
X96961298Y-91179776D01*
X97174219Y-91322045D01*
X97381305Y-91407823D01*
X96940000Y-91407823D01*
X96851785Y-91416511D01*
X96766959Y-91442243D01*
X96688784Y-91484029D01*
X96620263Y-91540263D01*
X96564029Y-91608784D01*
X96522243Y-91686959D01*
X96496511Y-91771785D01*
X96487823Y-91860000D01*
X96487823Y-93560000D01*
X96496511Y-93648215D01*
X96522243Y-93733041D01*
X96564029Y-93811216D01*
X96620263Y-93879737D01*
X96688784Y-93935971D01*
X96766959Y-93977757D01*
X96851785Y-94003489D01*
X96940000Y-94012177D01*
X98640000Y-94012177D01*
X98728215Y-94003489D01*
X98813041Y-93977757D01*
X98830000Y-93968692D01*
X98830000Y-94127737D01*
X98887644Y-94417534D01*
X99000717Y-94690517D01*
X99164874Y-94936194D01*
X99373806Y-95145126D01*
X99530760Y-95250000D01*
X99373806Y-95354874D01*
X99164874Y-95563806D01*
X99000717Y-95809483D01*
X98887644Y-96082466D01*
X98830000Y-96372263D01*
X98830000Y-96667737D01*
X98887644Y-96957534D01*
X99000717Y-97230517D01*
X99164874Y-97476194D01*
X99373806Y-97685126D01*
X99530760Y-97790000D01*
X99373806Y-97894874D01*
X99164874Y-98103806D01*
X99000717Y-98349483D01*
X98887644Y-98622466D01*
X98830000Y-98912263D01*
X98830000Y-99207737D01*
X98887644Y-99497534D01*
X99000717Y-99770517D01*
X99164874Y-100016194D01*
X99373806Y-100225126D01*
X99530760Y-100330000D01*
X99373806Y-100434874D01*
X99164874Y-100643806D01*
X99000717Y-100889483D01*
X98887644Y-101162466D01*
X98830000Y-101452263D01*
X98830000Y-101611308D01*
X98813041Y-101602243D01*
X98728215Y-101576511D01*
X98640000Y-101567823D01*
X96940000Y-101567823D01*
X96851785Y-101576511D01*
X96766959Y-101602243D01*
X96688784Y-101644029D01*
X96620263Y-101700263D01*
X96564029Y-101768784D01*
X96522243Y-101846959D01*
X96496511Y-101931785D01*
X96487823Y-102020000D01*
X96487823Y-103720000D01*
X96496511Y-103808215D01*
X96522243Y-103893041D01*
X96564029Y-103971216D01*
X96620263Y-104039737D01*
X96688784Y-104095971D01*
X96766959Y-104137757D01*
X96851785Y-104163489D01*
X96940000Y-104172177D01*
X97215000Y-104172177D01*
X97215001Y-110886826D01*
X89931828Y-118170000D01*
X89299419Y-118170000D01*
X89231574Y-118124668D01*
X89104182Y-118071901D01*
X88968944Y-118045000D01*
X88831056Y-118045000D01*
X88695818Y-118071901D01*
X88568426Y-118124668D01*
X88453776Y-118201274D01*
X88356274Y-118298776D01*
X88279668Y-118413426D01*
X88226901Y-118540818D01*
X88200000Y-118676056D01*
X88200000Y-118813944D01*
X88226901Y-118949182D01*
X88279668Y-119076574D01*
X88356274Y-119191224D01*
X88453776Y-119288726D01*
X88568426Y-119365332D01*
X88695818Y-119418099D01*
X88831056Y-119445000D01*
X88968944Y-119445000D01*
X89104182Y-119418099D01*
X89231574Y-119365332D01*
X89299419Y-119320000D01*
X90141757Y-119320000D01*
X90170000Y-119322782D01*
X90198243Y-119320000D01*
X90198246Y-119320000D01*
X90282720Y-119311680D01*
X90391108Y-119278801D01*
X90490998Y-119225408D01*
X90578554Y-119153554D01*
X90596566Y-119131606D01*
X97790000Y-111938173D01*
X102443439Y-116591612D01*
X102461446Y-116613554D01*
X102503153Y-116647782D01*
X102549001Y-116685408D01*
X102627338Y-116727280D01*
X102648892Y-116738801D01*
X102757280Y-116771680D01*
X102841754Y-116780000D01*
X102841757Y-116780000D01*
X102870000Y-116782782D01*
X102898243Y-116780000D01*
X116140000Y-116780000D01*
X116140000Y-116908944D01*
X116166901Y-117044182D01*
X116219668Y-117171574D01*
X116296274Y-117286224D01*
X116393776Y-117383726D01*
X116508426Y-117460332D01*
X116635818Y-117513099D01*
X116771056Y-117540000D01*
X116908944Y-117540000D01*
X117044182Y-117513099D01*
X117171574Y-117460332D01*
X117286224Y-117383726D01*
X117383726Y-117286224D01*
X117460332Y-117171574D01*
X117513099Y-117044182D01*
X117540000Y-116908944D01*
X117540000Y-116776380D01*
X117587716Y-116771680D01*
X117696104Y-116738801D01*
X117795994Y-116685408D01*
X117883550Y-116613554D01*
X117901562Y-116591606D01*
X120262112Y-114231056D01*
X121220000Y-114231056D01*
X121220000Y-114368944D01*
X121246901Y-114504182D01*
X121299668Y-114631574D01*
X121376274Y-114746224D01*
X121473776Y-114843726D01*
X121588426Y-114920332D01*
X121715818Y-114973099D01*
X121851056Y-115000000D01*
X121988944Y-115000000D01*
X122124182Y-114973099D01*
X122251574Y-114920332D01*
X122366224Y-114843726D01*
X122463726Y-114746224D01*
X122540332Y-114631574D01*
X122593099Y-114504182D01*
X122620000Y-114368944D01*
X122620000Y-114231056D01*
X122593099Y-114095818D01*
X122540332Y-113968426D01*
X122463726Y-113853776D01*
X122366224Y-113756274D01*
X122251574Y-113679668D01*
X122124182Y-113626901D01*
X121988944Y-113600000D01*
X121851056Y-113600000D01*
X121715818Y-113626901D01*
X121588426Y-113679668D01*
X121473776Y-113756274D01*
X121376274Y-113853776D01*
X121299668Y-113968426D01*
X121246901Y-114095818D01*
X121220000Y-114231056D01*
X120262112Y-114231056D01*
X122679151Y-111814018D01*
X122759178Y-111798099D01*
X122886570Y-111745332D01*
X123001220Y-111668726D01*
X123098722Y-111571224D01*
X123175328Y-111456574D01*
X123228095Y-111329182D01*
X123254996Y-111193944D01*
X123254996Y-111056056D01*
X123228095Y-110920818D01*
X123175328Y-110793426D01*
X123126267Y-110720000D01*
X123337737Y-110720000D01*
X123627534Y-110662356D01*
X123900517Y-110549283D01*
X123983106Y-110494099D01*
X123985001Y-110513342D01*
X123985000Y-118698109D01*
X123893944Y-118679996D01*
X123756056Y-118679996D01*
X123620818Y-118706897D01*
X123493426Y-118759664D01*
X123378776Y-118836270D01*
X123281274Y-118933772D01*
X123204668Y-119048422D01*
X123151901Y-119175814D01*
X123125000Y-119311052D01*
X123125000Y-119448940D01*
X123151901Y-119584178D01*
X123204668Y-119711570D01*
X123250001Y-119779416D01*
X123250000Y-121046827D01*
X122973375Y-121323452D01*
X123027735Y-121242097D01*
X123121963Y-121014611D01*
X123170000Y-120773114D01*
X123170000Y-120526886D01*
X123121963Y-120285389D01*
X123027735Y-120057903D01*
X122890938Y-119853172D01*
X122716828Y-119679062D01*
X122512097Y-119542265D01*
X122284611Y-119448037D01*
X122043114Y-119400000D01*
X121796886Y-119400000D01*
X121555389Y-119448037D01*
X121327903Y-119542265D01*
X121123172Y-119679062D01*
X120949062Y-119853172D01*
X120812265Y-120057903D01*
X120718037Y-120285389D01*
X120670000Y-120526886D01*
X120670000Y-120773114D01*
X120718037Y-121014611D01*
X120812265Y-121242097D01*
X120949062Y-121446828D01*
X121123172Y-121620938D01*
X121327903Y-121757735D01*
X121555389Y-121851963D01*
X121796886Y-121900000D01*
X122043114Y-121900000D01*
X122284611Y-121851963D01*
X122512097Y-121757735D01*
X122593453Y-121703375D01*
X122316828Y-121980000D01*
X73263173Y-121980000D01*
X71810059Y-120526886D01*
X75970000Y-120526886D01*
X75970000Y-120773114D01*
X76018037Y-121014611D01*
X76112265Y-121242097D01*
X76249062Y-121446828D01*
X76423172Y-121620938D01*
X76627903Y-121757735D01*
X76855389Y-121851963D01*
X77096886Y-121900000D01*
X77343114Y-121900000D01*
X77584611Y-121851963D01*
X77812097Y-121757735D01*
X78016828Y-121620938D01*
X78190938Y-121446828D01*
X78327735Y-121242097D01*
X78421963Y-121014611D01*
X78470000Y-120773114D01*
X78470000Y-120526886D01*
X78510000Y-120526886D01*
X78510000Y-120773114D01*
X78558037Y-121014611D01*
X78652265Y-121242097D01*
X78789062Y-121446828D01*
X78963172Y-121620938D01*
X79167903Y-121757735D01*
X79395389Y-121851963D01*
X79636886Y-121900000D01*
X79883114Y-121900000D01*
X80124611Y-121851963D01*
X80352097Y-121757735D01*
X80556828Y-121620938D01*
X80730938Y-121446828D01*
X80867735Y-121242097D01*
X80961963Y-121014611D01*
X81010000Y-120773114D01*
X81010000Y-120526886D01*
X81050000Y-120526886D01*
X81050000Y-120773114D01*
X81098037Y-121014611D01*
X81192265Y-121242097D01*
X81329062Y-121446828D01*
X81503172Y-121620938D01*
X81707903Y-121757735D01*
X81935389Y-121851963D01*
X82176886Y-121900000D01*
X82423114Y-121900000D01*
X82664611Y-121851963D01*
X82892097Y-121757735D01*
X83096828Y-121620938D01*
X83270938Y-121446828D01*
X83407735Y-121242097D01*
X83501963Y-121014611D01*
X83525800Y-120894771D01*
X83614197Y-120894771D01*
X83685503Y-121129210D01*
X83801176Y-121345233D01*
X83956770Y-121534539D01*
X84146306Y-121689852D01*
X84362500Y-121805205D01*
X84595229Y-121875801D01*
X84790000Y-121786401D01*
X84790000Y-120700000D01*
X84890000Y-120700000D01*
X84890000Y-121786401D01*
X85084771Y-121875801D01*
X85317500Y-121805205D01*
X85533694Y-121689852D01*
X85723230Y-121534539D01*
X85878824Y-121345233D01*
X85994497Y-121129210D01*
X86065803Y-120894771D01*
X85976502Y-120700000D01*
X84890000Y-120700000D01*
X84790000Y-120700000D01*
X83703498Y-120700000D01*
X83614197Y-120894771D01*
X83525800Y-120894771D01*
X83550000Y-120773114D01*
X83550000Y-120526886D01*
X83525801Y-120405229D01*
X83614197Y-120405229D01*
X83703498Y-120600000D01*
X84790000Y-120600000D01*
X84790000Y-119513599D01*
X84890000Y-119513599D01*
X84890000Y-120600000D01*
X85976502Y-120600000D01*
X86010024Y-120526886D01*
X86130000Y-120526886D01*
X86130000Y-120773114D01*
X86178037Y-121014611D01*
X86272265Y-121242097D01*
X86409062Y-121446828D01*
X86583172Y-121620938D01*
X86787903Y-121757735D01*
X87015389Y-121851963D01*
X87256886Y-121900000D01*
X87503114Y-121900000D01*
X87744611Y-121851963D01*
X87972097Y-121757735D01*
X88176828Y-121620938D01*
X88350938Y-121446828D01*
X88487735Y-121242097D01*
X88581963Y-121014611D01*
X88630000Y-120773114D01*
X88630000Y-120526886D01*
X88670000Y-120526886D01*
X88670000Y-120773114D01*
X88718037Y-121014611D01*
X88812265Y-121242097D01*
X88949062Y-121446828D01*
X89123172Y-121620938D01*
X89327903Y-121757735D01*
X89555389Y-121851963D01*
X89796886Y-121900000D01*
X90043114Y-121900000D01*
X90284611Y-121851963D01*
X90512097Y-121757735D01*
X90716828Y-121620938D01*
X90890938Y-121446828D01*
X91027735Y-121242097D01*
X91121963Y-121014611D01*
X91170000Y-120773114D01*
X91170000Y-120526886D01*
X91210000Y-120526886D01*
X91210000Y-120773114D01*
X91258037Y-121014611D01*
X91352265Y-121242097D01*
X91489062Y-121446828D01*
X91663172Y-121620938D01*
X91867903Y-121757735D01*
X92095389Y-121851963D01*
X92336886Y-121900000D01*
X92583114Y-121900000D01*
X92824611Y-121851963D01*
X93052097Y-121757735D01*
X93256828Y-121620938D01*
X93430938Y-121446828D01*
X93567735Y-121242097D01*
X93661963Y-121014611D01*
X93710000Y-120773114D01*
X93710000Y-120526886D01*
X93750000Y-120526886D01*
X93750000Y-120773114D01*
X93798037Y-121014611D01*
X93892265Y-121242097D01*
X94029062Y-121446828D01*
X94203172Y-121620938D01*
X94407903Y-121757735D01*
X94635389Y-121851963D01*
X94876886Y-121900000D01*
X95123114Y-121900000D01*
X95364611Y-121851963D01*
X95592097Y-121757735D01*
X95796828Y-121620938D01*
X95970938Y-121446828D01*
X96107735Y-121242097D01*
X96201963Y-121014611D01*
X96250000Y-120773114D01*
X96250000Y-120526886D01*
X96290000Y-120526886D01*
X96290000Y-120773114D01*
X96338037Y-121014611D01*
X96432265Y-121242097D01*
X96569062Y-121446828D01*
X96743172Y-121620938D01*
X96947903Y-121757735D01*
X97175389Y-121851963D01*
X97416886Y-121900000D01*
X97663114Y-121900000D01*
X97904611Y-121851963D01*
X98132097Y-121757735D01*
X98336828Y-121620938D01*
X98510938Y-121446828D01*
X98647735Y-121242097D01*
X98741963Y-121014611D01*
X98790000Y-120773114D01*
X98790000Y-120526886D01*
X98830000Y-120526886D01*
X98830000Y-120773114D01*
X98878037Y-121014611D01*
X98972265Y-121242097D01*
X99109062Y-121446828D01*
X99283172Y-121620938D01*
X99487903Y-121757735D01*
X99715389Y-121851963D01*
X99956886Y-121900000D01*
X100203114Y-121900000D01*
X100444611Y-121851963D01*
X100672097Y-121757735D01*
X100876828Y-121620938D01*
X101050938Y-121446828D01*
X101187735Y-121242097D01*
X101281963Y-121014611D01*
X101330000Y-120773114D01*
X101330000Y-120526886D01*
X102890000Y-120526886D01*
X102890000Y-120773114D01*
X102938037Y-121014611D01*
X103032265Y-121242097D01*
X103169062Y-121446828D01*
X103343172Y-121620938D01*
X103547903Y-121757735D01*
X103775389Y-121851963D01*
X104016886Y-121900000D01*
X104263114Y-121900000D01*
X104504611Y-121851963D01*
X104732097Y-121757735D01*
X104936828Y-121620938D01*
X105110938Y-121446828D01*
X105247735Y-121242097D01*
X105341963Y-121014611D01*
X105390000Y-120773114D01*
X105390000Y-120526886D01*
X105430000Y-120526886D01*
X105430000Y-120773114D01*
X105478037Y-121014611D01*
X105572265Y-121242097D01*
X105709062Y-121446828D01*
X105883172Y-121620938D01*
X106087903Y-121757735D01*
X106315389Y-121851963D01*
X106556886Y-121900000D01*
X106803114Y-121900000D01*
X107044611Y-121851963D01*
X107272097Y-121757735D01*
X107476828Y-121620938D01*
X107650938Y-121446828D01*
X107787735Y-121242097D01*
X107881963Y-121014611D01*
X107930000Y-120773114D01*
X107930000Y-120526886D01*
X107970000Y-120526886D01*
X107970000Y-120773114D01*
X108018037Y-121014611D01*
X108112265Y-121242097D01*
X108249062Y-121446828D01*
X108423172Y-121620938D01*
X108627903Y-121757735D01*
X108855389Y-121851963D01*
X109096886Y-121900000D01*
X109343114Y-121900000D01*
X109584611Y-121851963D01*
X109812097Y-121757735D01*
X110016828Y-121620938D01*
X110190938Y-121446828D01*
X110327735Y-121242097D01*
X110421963Y-121014611D01*
X110470000Y-120773114D01*
X110470000Y-120526886D01*
X110510000Y-120526886D01*
X110510000Y-120773114D01*
X110558037Y-121014611D01*
X110652265Y-121242097D01*
X110789062Y-121446828D01*
X110963172Y-121620938D01*
X111167903Y-121757735D01*
X111395389Y-121851963D01*
X111636886Y-121900000D01*
X111883114Y-121900000D01*
X112124611Y-121851963D01*
X112352097Y-121757735D01*
X112556828Y-121620938D01*
X112730938Y-121446828D01*
X112867735Y-121242097D01*
X112961963Y-121014611D01*
X113010000Y-120773114D01*
X113010000Y-120526886D01*
X113050000Y-120526886D01*
X113050000Y-120773114D01*
X113098037Y-121014611D01*
X113192265Y-121242097D01*
X113329062Y-121446828D01*
X113503172Y-121620938D01*
X113707903Y-121757735D01*
X113935389Y-121851963D01*
X114176886Y-121900000D01*
X114423114Y-121900000D01*
X114664611Y-121851963D01*
X114892097Y-121757735D01*
X115096828Y-121620938D01*
X115270938Y-121446828D01*
X115407735Y-121242097D01*
X115501963Y-121014611D01*
X115550000Y-120773114D01*
X115550000Y-120526886D01*
X115590000Y-120526886D01*
X115590000Y-120773114D01*
X115638037Y-121014611D01*
X115732265Y-121242097D01*
X115869062Y-121446828D01*
X116043172Y-121620938D01*
X116247903Y-121757735D01*
X116475389Y-121851963D01*
X116716886Y-121900000D01*
X116963114Y-121900000D01*
X117204611Y-121851963D01*
X117432097Y-121757735D01*
X117636828Y-121620938D01*
X117810938Y-121446828D01*
X117947735Y-121242097D01*
X118041963Y-121014611D01*
X118090000Y-120773114D01*
X118090000Y-120526886D01*
X118130000Y-120526886D01*
X118130000Y-120773114D01*
X118178037Y-121014611D01*
X118272265Y-121242097D01*
X118409062Y-121446828D01*
X118583172Y-121620938D01*
X118787903Y-121757735D01*
X119015389Y-121851963D01*
X119256886Y-121900000D01*
X119503114Y-121900000D01*
X119744611Y-121851963D01*
X119972097Y-121757735D01*
X120176828Y-121620938D01*
X120350938Y-121446828D01*
X120487735Y-121242097D01*
X120581963Y-121014611D01*
X120630000Y-120773114D01*
X120630000Y-120526886D01*
X120581963Y-120285389D01*
X120487735Y-120057903D01*
X120350938Y-119853172D01*
X120176828Y-119679062D01*
X119972097Y-119542265D01*
X119744611Y-119448037D01*
X119503114Y-119400000D01*
X119256886Y-119400000D01*
X119015389Y-119448037D01*
X118787903Y-119542265D01*
X118583172Y-119679062D01*
X118409062Y-119853172D01*
X118272265Y-120057903D01*
X118178037Y-120285389D01*
X118130000Y-120526886D01*
X118090000Y-120526886D01*
X118041963Y-120285389D01*
X117947735Y-120057903D01*
X117810938Y-119853172D01*
X117636828Y-119679062D01*
X117432097Y-119542265D01*
X117204611Y-119448037D01*
X116963114Y-119400000D01*
X116716886Y-119400000D01*
X116475389Y-119448037D01*
X116247903Y-119542265D01*
X116043172Y-119679062D01*
X115869062Y-119853172D01*
X115732265Y-120057903D01*
X115638037Y-120285389D01*
X115590000Y-120526886D01*
X115550000Y-120526886D01*
X115501963Y-120285389D01*
X115407735Y-120057903D01*
X115270938Y-119853172D01*
X115096828Y-119679062D01*
X114892097Y-119542265D01*
X114664611Y-119448037D01*
X114423114Y-119400000D01*
X114176886Y-119400000D01*
X113935389Y-119448037D01*
X113707903Y-119542265D01*
X113503172Y-119679062D01*
X113329062Y-119853172D01*
X113192265Y-120057903D01*
X113098037Y-120285389D01*
X113050000Y-120526886D01*
X113010000Y-120526886D01*
X112961963Y-120285389D01*
X112867735Y-120057903D01*
X112730938Y-119853172D01*
X112556828Y-119679062D01*
X112352097Y-119542265D01*
X112124611Y-119448037D01*
X111883114Y-119400000D01*
X111636886Y-119400000D01*
X111395389Y-119448037D01*
X111167903Y-119542265D01*
X110963172Y-119679062D01*
X110789062Y-119853172D01*
X110652265Y-120057903D01*
X110558037Y-120285389D01*
X110510000Y-120526886D01*
X110470000Y-120526886D01*
X110421963Y-120285389D01*
X110327735Y-120057903D01*
X110190938Y-119853172D01*
X110016828Y-119679062D01*
X109812097Y-119542265D01*
X109584611Y-119448037D01*
X109343114Y-119400000D01*
X109096886Y-119400000D01*
X108855389Y-119448037D01*
X108627903Y-119542265D01*
X108423172Y-119679062D01*
X108249062Y-119853172D01*
X108112265Y-120057903D01*
X108018037Y-120285389D01*
X107970000Y-120526886D01*
X107930000Y-120526886D01*
X107881963Y-120285389D01*
X107787735Y-120057903D01*
X107650938Y-119853172D01*
X107476828Y-119679062D01*
X107272097Y-119542265D01*
X107044611Y-119448037D01*
X106803114Y-119400000D01*
X106556886Y-119400000D01*
X106315389Y-119448037D01*
X106087903Y-119542265D01*
X105883172Y-119679062D01*
X105709062Y-119853172D01*
X105572265Y-120057903D01*
X105478037Y-120285389D01*
X105430000Y-120526886D01*
X105390000Y-120526886D01*
X105341963Y-120285389D01*
X105247735Y-120057903D01*
X105110938Y-119853172D01*
X104936828Y-119679062D01*
X104732097Y-119542265D01*
X104504611Y-119448037D01*
X104263114Y-119400000D01*
X104016886Y-119400000D01*
X103775389Y-119448037D01*
X103547903Y-119542265D01*
X103343172Y-119679062D01*
X103169062Y-119853172D01*
X103032265Y-120057903D01*
X102938037Y-120285389D01*
X102890000Y-120526886D01*
X101330000Y-120526886D01*
X101281963Y-120285389D01*
X101187735Y-120057903D01*
X101050938Y-119853172D01*
X100876828Y-119679062D01*
X100672097Y-119542265D01*
X100444611Y-119448037D01*
X100203114Y-119400000D01*
X99956886Y-119400000D01*
X99715389Y-119448037D01*
X99487903Y-119542265D01*
X99283172Y-119679062D01*
X99109062Y-119853172D01*
X98972265Y-120057903D01*
X98878037Y-120285389D01*
X98830000Y-120526886D01*
X98790000Y-120526886D01*
X98741963Y-120285389D01*
X98647735Y-120057903D01*
X98510938Y-119853172D01*
X98336828Y-119679062D01*
X98132097Y-119542265D01*
X97904611Y-119448037D01*
X97663114Y-119400000D01*
X97416886Y-119400000D01*
X97175389Y-119448037D01*
X96947903Y-119542265D01*
X96743172Y-119679062D01*
X96569062Y-119853172D01*
X96432265Y-120057903D01*
X96338037Y-120285389D01*
X96290000Y-120526886D01*
X96250000Y-120526886D01*
X96201963Y-120285389D01*
X96107735Y-120057903D01*
X95970938Y-119853172D01*
X95796828Y-119679062D01*
X95592097Y-119542265D01*
X95364611Y-119448037D01*
X95123114Y-119400000D01*
X94876886Y-119400000D01*
X94635389Y-119448037D01*
X94407903Y-119542265D01*
X94203172Y-119679062D01*
X94029062Y-119853172D01*
X93892265Y-120057903D01*
X93798037Y-120285389D01*
X93750000Y-120526886D01*
X93710000Y-120526886D01*
X93661963Y-120285389D01*
X93567735Y-120057903D01*
X93430938Y-119853172D01*
X93256828Y-119679062D01*
X93052097Y-119542265D01*
X92824611Y-119448037D01*
X92583114Y-119400000D01*
X92336886Y-119400000D01*
X92095389Y-119448037D01*
X91867903Y-119542265D01*
X91663172Y-119679062D01*
X91489062Y-119853172D01*
X91352265Y-120057903D01*
X91258037Y-120285389D01*
X91210000Y-120526886D01*
X91170000Y-120526886D01*
X91121963Y-120285389D01*
X91027735Y-120057903D01*
X90890938Y-119853172D01*
X90716828Y-119679062D01*
X90512097Y-119542265D01*
X90284611Y-119448037D01*
X90043114Y-119400000D01*
X89796886Y-119400000D01*
X89555389Y-119448037D01*
X89327903Y-119542265D01*
X89123172Y-119679062D01*
X88949062Y-119853172D01*
X88812265Y-120057903D01*
X88718037Y-120285389D01*
X88670000Y-120526886D01*
X88630000Y-120526886D01*
X88581963Y-120285389D01*
X88487735Y-120057903D01*
X88350938Y-119853172D01*
X88176828Y-119679062D01*
X87972097Y-119542265D01*
X87744611Y-119448037D01*
X87503114Y-119400000D01*
X87256886Y-119400000D01*
X87015389Y-119448037D01*
X86787903Y-119542265D01*
X86583172Y-119679062D01*
X86409062Y-119853172D01*
X86272265Y-120057903D01*
X86178037Y-120285389D01*
X86130000Y-120526886D01*
X86010024Y-120526886D01*
X86065803Y-120405229D01*
X85994497Y-120170790D01*
X85878824Y-119954767D01*
X85723230Y-119765461D01*
X85533694Y-119610148D01*
X85317500Y-119494795D01*
X85084771Y-119424199D01*
X84890000Y-119513599D01*
X84790000Y-119513599D01*
X84595229Y-119424199D01*
X84362500Y-119494795D01*
X84146306Y-119610148D01*
X83956770Y-119765461D01*
X83801176Y-119954767D01*
X83685503Y-120170790D01*
X83614197Y-120405229D01*
X83525801Y-120405229D01*
X83501963Y-120285389D01*
X83407735Y-120057903D01*
X83270938Y-119853172D01*
X83096828Y-119679062D01*
X82892097Y-119542265D01*
X82664611Y-119448037D01*
X82423114Y-119400000D01*
X82176886Y-119400000D01*
X81935389Y-119448037D01*
X81707903Y-119542265D01*
X81503172Y-119679062D01*
X81329062Y-119853172D01*
X81192265Y-120057903D01*
X81098037Y-120285389D01*
X81050000Y-120526886D01*
X81010000Y-120526886D01*
X80961963Y-120285389D01*
X80867735Y-120057903D01*
X80730938Y-119853172D01*
X80556828Y-119679062D01*
X80352097Y-119542265D01*
X80124611Y-119448037D01*
X79883114Y-119400000D01*
X79636886Y-119400000D01*
X79395389Y-119448037D01*
X79167903Y-119542265D01*
X78963172Y-119679062D01*
X78789062Y-119853172D01*
X78652265Y-120057903D01*
X78558037Y-120285389D01*
X78510000Y-120526886D01*
X78470000Y-120526886D01*
X78421963Y-120285389D01*
X78327735Y-120057903D01*
X78190938Y-119853172D01*
X78016828Y-119679062D01*
X77812097Y-119542265D01*
X77584611Y-119448037D01*
X77343114Y-119400000D01*
X77096886Y-119400000D01*
X76855389Y-119448037D01*
X76627903Y-119542265D01*
X76423172Y-119679062D01*
X76249062Y-119853172D01*
X76112265Y-120057903D01*
X76018037Y-120285389D01*
X75970000Y-120526886D01*
X71810059Y-120526886D01*
X61983534Y-110700362D01*
X62082263Y-110720000D01*
X62377737Y-110720000D01*
X62667534Y-110662356D01*
X62803051Y-110606223D01*
X71328439Y-119131612D01*
X71346446Y-119153554D01*
X71388153Y-119187782D01*
X71434001Y-119225408D01*
X71533892Y-119278801D01*
X71642280Y-119311680D01*
X71726754Y-119320000D01*
X71726756Y-119320000D01*
X71754999Y-119322782D01*
X71783242Y-119320000D01*
X82521757Y-119320000D01*
X82550000Y-119322782D01*
X82578243Y-119320000D01*
X82578246Y-119320000D01*
X82662720Y-119311680D01*
X82771108Y-119278801D01*
X82870998Y-119225408D01*
X82958554Y-119153554D01*
X82976565Y-119131607D01*
X85476614Y-116631559D01*
X85498554Y-116613554D01*
X85532782Y-116571847D01*
X85570408Y-116525999D01*
X85589006Y-116491204D01*
X85623801Y-116426108D01*
X85656680Y-116317720D01*
X85665000Y-116233246D01*
X85665000Y-116233244D01*
X85667782Y-116205001D01*
X85665000Y-116176758D01*
X85665000Y-110605416D01*
X85800517Y-110549283D01*
X86046194Y-110385126D01*
X86255126Y-110176194D01*
X86419283Y-109930517D01*
X86532356Y-109657534D01*
X86590000Y-109367737D01*
X86590000Y-109072263D01*
X86532356Y-108782466D01*
X86419283Y-108509483D01*
X86255126Y-108263806D01*
X86046194Y-108054874D01*
X85889240Y-107950000D01*
X86046194Y-107845126D01*
X86255126Y-107636194D01*
X86419283Y-107390517D01*
X86532356Y-107117534D01*
X86590000Y-106827737D01*
X86590000Y-106532263D01*
X86532356Y-106242466D01*
X86419283Y-105969483D01*
X86255126Y-105723806D01*
X86046194Y-105514874D01*
X85889240Y-105410000D01*
X86046194Y-105305126D01*
X86255126Y-105096194D01*
X86419283Y-104850517D01*
X86532356Y-104577534D01*
X86590000Y-104287737D01*
X86590000Y-103992263D01*
X86532356Y-103702466D01*
X86419283Y-103429483D01*
X86255126Y-103183806D01*
X86046194Y-102974874D01*
X85889240Y-102870000D01*
X86046194Y-102765126D01*
X86255126Y-102556194D01*
X86419283Y-102310517D01*
X86532356Y-102037534D01*
X86590000Y-101747737D01*
X86590000Y-101452263D01*
X86532356Y-101162466D01*
X86419283Y-100889483D01*
X86255126Y-100643806D01*
X86046194Y-100434874D01*
X85889240Y-100330000D01*
X86046194Y-100225126D01*
X86255126Y-100016194D01*
X86419283Y-99770517D01*
X86532356Y-99497534D01*
X86590000Y-99207737D01*
X86590000Y-98912263D01*
X86532356Y-98622466D01*
X86419283Y-98349483D01*
X86255126Y-98103806D01*
X86046194Y-97894874D01*
X85889240Y-97790000D01*
X86046194Y-97685126D01*
X86255126Y-97476194D01*
X86419283Y-97230517D01*
X86532356Y-96957534D01*
X86590000Y-96667737D01*
X86590000Y-96372263D01*
X86532356Y-96082466D01*
X86419283Y-95809483D01*
X86255126Y-95563806D01*
X86046194Y-95354874D01*
X85889240Y-95250000D01*
X86046194Y-95145126D01*
X86255126Y-94936194D01*
X86419283Y-94690517D01*
X86532356Y-94417534D01*
X86590000Y-94127737D01*
X86590000Y-93832263D01*
X86532356Y-93542466D01*
X86476223Y-93406949D01*
X89138173Y-90745000D01*
X96621063Y-90745000D01*
X96637955Y-90785781D01*
G37*
X96637955Y-90785781D02*
X96780224Y-90998702D01*
X96961298Y-91179776D01*
X97174219Y-91322045D01*
X97381305Y-91407823D01*
X96940000Y-91407823D01*
X96851785Y-91416511D01*
X96766959Y-91442243D01*
X96688784Y-91484029D01*
X96620263Y-91540263D01*
X96564029Y-91608784D01*
X96522243Y-91686959D01*
X96496511Y-91771785D01*
X96487823Y-91860000D01*
X96487823Y-93560000D01*
X96496511Y-93648215D01*
X96522243Y-93733041D01*
X96564029Y-93811216D01*
X96620263Y-93879737D01*
X96688784Y-93935971D01*
X96766959Y-93977757D01*
X96851785Y-94003489D01*
X96940000Y-94012177D01*
X98640000Y-94012177D01*
X98728215Y-94003489D01*
X98813041Y-93977757D01*
X98830000Y-93968692D01*
X98830000Y-94127737D01*
X98887644Y-94417534D01*
X99000717Y-94690517D01*
X99164874Y-94936194D01*
X99373806Y-95145126D01*
X99530760Y-95250000D01*
X99373806Y-95354874D01*
X99164874Y-95563806D01*
X99000717Y-95809483D01*
X98887644Y-96082466D01*
X98830000Y-96372263D01*
X98830000Y-96667737D01*
X98887644Y-96957534D01*
X99000717Y-97230517D01*
X99164874Y-97476194D01*
X99373806Y-97685126D01*
X99530760Y-97790000D01*
X99373806Y-97894874D01*
X99164874Y-98103806D01*
X99000717Y-98349483D01*
X98887644Y-98622466D01*
X98830000Y-98912263D01*
X98830000Y-99207737D01*
X98887644Y-99497534D01*
X99000717Y-99770517D01*
X99164874Y-100016194D01*
X99373806Y-100225126D01*
X99530760Y-100330000D01*
X99373806Y-100434874D01*
X99164874Y-100643806D01*
X99000717Y-100889483D01*
X98887644Y-101162466D01*
X98830000Y-101452263D01*
X98830000Y-101611308D01*
X98813041Y-101602243D01*
X98728215Y-101576511D01*
X98640000Y-101567823D01*
X96940000Y-101567823D01*
X96851785Y-101576511D01*
X96766959Y-101602243D01*
X96688784Y-101644029D01*
X96620263Y-101700263D01*
X96564029Y-101768784D01*
X96522243Y-101846959D01*
X96496511Y-101931785D01*
X96487823Y-102020000D01*
X96487823Y-103720000D01*
X96496511Y-103808215D01*
X96522243Y-103893041D01*
X96564029Y-103971216D01*
X96620263Y-104039737D01*
X96688784Y-104095971D01*
X96766959Y-104137757D01*
X96851785Y-104163489D01*
X96940000Y-104172177D01*
X97215000Y-104172177D01*
X97215001Y-110886826D01*
X89931828Y-118170000D01*
X89299419Y-118170000D01*
X89231574Y-118124668D01*
X89104182Y-118071901D01*
X88968944Y-118045000D01*
X88831056Y-118045000D01*
X88695818Y-118071901D01*
X88568426Y-118124668D01*
X88453776Y-118201274D01*
X88356274Y-118298776D01*
X88279668Y-118413426D01*
X88226901Y-118540818D01*
X88200000Y-118676056D01*
X88200000Y-118813944D01*
X88226901Y-118949182D01*
X88279668Y-119076574D01*
X88356274Y-119191224D01*
X88453776Y-119288726D01*
X88568426Y-119365332D01*
X88695818Y-119418099D01*
X88831056Y-119445000D01*
X88968944Y-119445000D01*
X89104182Y-119418099D01*
X89231574Y-119365332D01*
X89299419Y-119320000D01*
X90141757Y-119320000D01*
X90170000Y-119322782D01*
X90198243Y-119320000D01*
X90198246Y-119320000D01*
X90282720Y-119311680D01*
X90391108Y-119278801D01*
X90490998Y-119225408D01*
X90578554Y-119153554D01*
X90596566Y-119131606D01*
X97790000Y-111938173D01*
X102443439Y-116591612D01*
X102461446Y-116613554D01*
X102503153Y-116647782D01*
X102549001Y-116685408D01*
X102627338Y-116727280D01*
X102648892Y-116738801D01*
X102757280Y-116771680D01*
X102841754Y-116780000D01*
X102841757Y-116780000D01*
X102870000Y-116782782D01*
X102898243Y-116780000D01*
X116140000Y-116780000D01*
X116140000Y-116908944D01*
X116166901Y-117044182D01*
X116219668Y-117171574D01*
X116296274Y-117286224D01*
X116393776Y-117383726D01*
X116508426Y-117460332D01*
X116635818Y-117513099D01*
X116771056Y-117540000D01*
X116908944Y-117540000D01*
X117044182Y-117513099D01*
X117171574Y-117460332D01*
X117286224Y-117383726D01*
X117383726Y-117286224D01*
X117460332Y-117171574D01*
X117513099Y-117044182D01*
X117540000Y-116908944D01*
X117540000Y-116776380D01*
X117587716Y-116771680D01*
X117696104Y-116738801D01*
X117795994Y-116685408D01*
X117883550Y-116613554D01*
X117901562Y-116591606D01*
X120262112Y-114231056D01*
X121220000Y-114231056D01*
X121220000Y-114368944D01*
X121246901Y-114504182D01*
X121299668Y-114631574D01*
X121376274Y-114746224D01*
X121473776Y-114843726D01*
X121588426Y-114920332D01*
X121715818Y-114973099D01*
X121851056Y-115000000D01*
X121988944Y-115000000D01*
X122124182Y-114973099D01*
X122251574Y-114920332D01*
X122366224Y-114843726D01*
X122463726Y-114746224D01*
X122540332Y-114631574D01*
X122593099Y-114504182D01*
X122620000Y-114368944D01*
X122620000Y-114231056D01*
X122593099Y-114095818D01*
X122540332Y-113968426D01*
X122463726Y-113853776D01*
X122366224Y-113756274D01*
X122251574Y-113679668D01*
X122124182Y-113626901D01*
X121988944Y-113600000D01*
X121851056Y-113600000D01*
X121715818Y-113626901D01*
X121588426Y-113679668D01*
X121473776Y-113756274D01*
X121376274Y-113853776D01*
X121299668Y-113968426D01*
X121246901Y-114095818D01*
X121220000Y-114231056D01*
X120262112Y-114231056D01*
X122679151Y-111814018D01*
X122759178Y-111798099D01*
X122886570Y-111745332D01*
X123001220Y-111668726D01*
X123098722Y-111571224D01*
X123175328Y-111456574D01*
X123228095Y-111329182D01*
X123254996Y-111193944D01*
X123254996Y-111056056D01*
X123228095Y-110920818D01*
X123175328Y-110793426D01*
X123126267Y-110720000D01*
X123337737Y-110720000D01*
X123627534Y-110662356D01*
X123900517Y-110549283D01*
X123983106Y-110494099D01*
X123985001Y-110513342D01*
X123985000Y-118698109D01*
X123893944Y-118679996D01*
X123756056Y-118679996D01*
X123620818Y-118706897D01*
X123493426Y-118759664D01*
X123378776Y-118836270D01*
X123281274Y-118933772D01*
X123204668Y-119048422D01*
X123151901Y-119175814D01*
X123125000Y-119311052D01*
X123125000Y-119448940D01*
X123151901Y-119584178D01*
X123204668Y-119711570D01*
X123250001Y-119779416D01*
X123250000Y-121046827D01*
X122973375Y-121323452D01*
X123027735Y-121242097D01*
X123121963Y-121014611D01*
X123170000Y-120773114D01*
X123170000Y-120526886D01*
X123121963Y-120285389D01*
X123027735Y-120057903D01*
X122890938Y-119853172D01*
X122716828Y-119679062D01*
X122512097Y-119542265D01*
X122284611Y-119448037D01*
X122043114Y-119400000D01*
X121796886Y-119400000D01*
X121555389Y-119448037D01*
X121327903Y-119542265D01*
X121123172Y-119679062D01*
X120949062Y-119853172D01*
X120812265Y-120057903D01*
X120718037Y-120285389D01*
X120670000Y-120526886D01*
X120670000Y-120773114D01*
X120718037Y-121014611D01*
X120812265Y-121242097D01*
X120949062Y-121446828D01*
X121123172Y-121620938D01*
X121327903Y-121757735D01*
X121555389Y-121851963D01*
X121796886Y-121900000D01*
X122043114Y-121900000D01*
X122284611Y-121851963D01*
X122512097Y-121757735D01*
X122593453Y-121703375D01*
X122316828Y-121980000D01*
X73263173Y-121980000D01*
X71810059Y-120526886D01*
X75970000Y-120526886D01*
X75970000Y-120773114D01*
X76018037Y-121014611D01*
X76112265Y-121242097D01*
X76249062Y-121446828D01*
X76423172Y-121620938D01*
X76627903Y-121757735D01*
X76855389Y-121851963D01*
X77096886Y-121900000D01*
X77343114Y-121900000D01*
X77584611Y-121851963D01*
X77812097Y-121757735D01*
X78016828Y-121620938D01*
X78190938Y-121446828D01*
X78327735Y-121242097D01*
X78421963Y-121014611D01*
X78470000Y-120773114D01*
X78470000Y-120526886D01*
X78510000Y-120526886D01*
X78510000Y-120773114D01*
X78558037Y-121014611D01*
X78652265Y-121242097D01*
X78789062Y-121446828D01*
X78963172Y-121620938D01*
X79167903Y-121757735D01*
X79395389Y-121851963D01*
X79636886Y-121900000D01*
X79883114Y-121900000D01*
X80124611Y-121851963D01*
X80352097Y-121757735D01*
X80556828Y-121620938D01*
X80730938Y-121446828D01*
X80867735Y-121242097D01*
X80961963Y-121014611D01*
X81010000Y-120773114D01*
X81010000Y-120526886D01*
X81050000Y-120526886D01*
X81050000Y-120773114D01*
X81098037Y-121014611D01*
X81192265Y-121242097D01*
X81329062Y-121446828D01*
X81503172Y-121620938D01*
X81707903Y-121757735D01*
X81935389Y-121851963D01*
X82176886Y-121900000D01*
X82423114Y-121900000D01*
X82664611Y-121851963D01*
X82892097Y-121757735D01*
X83096828Y-121620938D01*
X83270938Y-121446828D01*
X83407735Y-121242097D01*
X83501963Y-121014611D01*
X83525800Y-120894771D01*
X83614197Y-120894771D01*
X83685503Y-121129210D01*
X83801176Y-121345233D01*
X83956770Y-121534539D01*
X84146306Y-121689852D01*
X84362500Y-121805205D01*
X84595229Y-121875801D01*
X84790000Y-121786401D01*
X84790000Y-120700000D01*
X84890000Y-120700000D01*
X84890000Y-121786401D01*
X85084771Y-121875801D01*
X85317500Y-121805205D01*
X85533694Y-121689852D01*
X85723230Y-121534539D01*
X85878824Y-121345233D01*
X85994497Y-121129210D01*
X86065803Y-120894771D01*
X85976502Y-120700000D01*
X84890000Y-120700000D01*
X84790000Y-120700000D01*
X83703498Y-120700000D01*
X83614197Y-120894771D01*
X83525800Y-120894771D01*
X83550000Y-120773114D01*
X83550000Y-120526886D01*
X83525801Y-120405229D01*
X83614197Y-120405229D01*
X83703498Y-120600000D01*
X84790000Y-120600000D01*
X84790000Y-119513599D01*
X84890000Y-119513599D01*
X84890000Y-120600000D01*
X85976502Y-120600000D01*
X86010024Y-120526886D01*
X86130000Y-120526886D01*
X86130000Y-120773114D01*
X86178037Y-121014611D01*
X86272265Y-121242097D01*
X86409062Y-121446828D01*
X86583172Y-121620938D01*
X86787903Y-121757735D01*
X87015389Y-121851963D01*
X87256886Y-121900000D01*
X87503114Y-121900000D01*
X87744611Y-121851963D01*
X87972097Y-121757735D01*
X88176828Y-121620938D01*
X88350938Y-121446828D01*
X88487735Y-121242097D01*
X88581963Y-121014611D01*
X88630000Y-120773114D01*
X88630000Y-120526886D01*
X88670000Y-120526886D01*
X88670000Y-120773114D01*
X88718037Y-121014611D01*
X88812265Y-121242097D01*
X88949062Y-121446828D01*
X89123172Y-121620938D01*
X89327903Y-121757735D01*
X89555389Y-121851963D01*
X89796886Y-121900000D01*
X90043114Y-121900000D01*
X90284611Y-121851963D01*
X90512097Y-121757735D01*
X90716828Y-121620938D01*
X90890938Y-121446828D01*
X91027735Y-121242097D01*
X91121963Y-121014611D01*
X91170000Y-120773114D01*
X91170000Y-120526886D01*
X91210000Y-120526886D01*
X91210000Y-120773114D01*
X91258037Y-121014611D01*
X91352265Y-121242097D01*
X91489062Y-121446828D01*
X91663172Y-121620938D01*
X91867903Y-121757735D01*
X92095389Y-121851963D01*
X92336886Y-121900000D01*
X92583114Y-121900000D01*
X92824611Y-121851963D01*
X93052097Y-121757735D01*
X93256828Y-121620938D01*
X93430938Y-121446828D01*
X93567735Y-121242097D01*
X93661963Y-121014611D01*
X93710000Y-120773114D01*
X93710000Y-120526886D01*
X93750000Y-120526886D01*
X93750000Y-120773114D01*
X93798037Y-121014611D01*
X93892265Y-121242097D01*
X94029062Y-121446828D01*
X94203172Y-121620938D01*
X94407903Y-121757735D01*
X94635389Y-121851963D01*
X94876886Y-121900000D01*
X95123114Y-121900000D01*
X95364611Y-121851963D01*
X95592097Y-121757735D01*
X95796828Y-121620938D01*
X95970938Y-121446828D01*
X96107735Y-121242097D01*
X96201963Y-121014611D01*
X96250000Y-120773114D01*
X96250000Y-120526886D01*
X96290000Y-120526886D01*
X96290000Y-120773114D01*
X96338037Y-121014611D01*
X96432265Y-121242097D01*
X96569062Y-121446828D01*
X96743172Y-121620938D01*
X96947903Y-121757735D01*
X97175389Y-121851963D01*
X97416886Y-121900000D01*
X97663114Y-121900000D01*
X97904611Y-121851963D01*
X98132097Y-121757735D01*
X98336828Y-121620938D01*
X98510938Y-121446828D01*
X98647735Y-121242097D01*
X98741963Y-121014611D01*
X98790000Y-120773114D01*
X98790000Y-120526886D01*
X98830000Y-120526886D01*
X98830000Y-120773114D01*
X98878037Y-121014611D01*
X98972265Y-121242097D01*
X99109062Y-121446828D01*
X99283172Y-121620938D01*
X99487903Y-121757735D01*
X99715389Y-121851963D01*
X99956886Y-121900000D01*
X100203114Y-121900000D01*
X100444611Y-121851963D01*
X100672097Y-121757735D01*
X100876828Y-121620938D01*
X101050938Y-121446828D01*
X101187735Y-121242097D01*
X101281963Y-121014611D01*
X101330000Y-120773114D01*
X101330000Y-120526886D01*
X102890000Y-120526886D01*
X102890000Y-120773114D01*
X102938037Y-121014611D01*
X103032265Y-121242097D01*
X103169062Y-121446828D01*
X103343172Y-121620938D01*
X103547903Y-121757735D01*
X103775389Y-121851963D01*
X104016886Y-121900000D01*
X104263114Y-121900000D01*
X104504611Y-121851963D01*
X104732097Y-121757735D01*
X104936828Y-121620938D01*
X105110938Y-121446828D01*
X105247735Y-121242097D01*
X105341963Y-121014611D01*
X105390000Y-120773114D01*
X105390000Y-120526886D01*
X105430000Y-120526886D01*
X105430000Y-120773114D01*
X105478037Y-121014611D01*
X105572265Y-121242097D01*
X105709062Y-121446828D01*
X105883172Y-121620938D01*
X106087903Y-121757735D01*
X106315389Y-121851963D01*
X106556886Y-121900000D01*
X106803114Y-121900000D01*
X107044611Y-121851963D01*
X107272097Y-121757735D01*
X107476828Y-121620938D01*
X107650938Y-121446828D01*
X107787735Y-121242097D01*
X107881963Y-121014611D01*
X107930000Y-120773114D01*
X107930000Y-120526886D01*
X107970000Y-120526886D01*
X107970000Y-120773114D01*
X108018037Y-121014611D01*
X108112265Y-121242097D01*
X108249062Y-121446828D01*
X108423172Y-121620938D01*
X108627903Y-121757735D01*
X108855389Y-121851963D01*
X109096886Y-121900000D01*
X109343114Y-121900000D01*
X109584611Y-121851963D01*
X109812097Y-121757735D01*
X110016828Y-121620938D01*
X110190938Y-121446828D01*
X110327735Y-121242097D01*
X110421963Y-121014611D01*
X110470000Y-120773114D01*
X110470000Y-120526886D01*
X110510000Y-120526886D01*
X110510000Y-120773114D01*
X110558037Y-121014611D01*
X110652265Y-121242097D01*
X110789062Y-121446828D01*
X110963172Y-121620938D01*
X111167903Y-121757735D01*
X111395389Y-121851963D01*
X111636886Y-121900000D01*
X111883114Y-121900000D01*
X112124611Y-121851963D01*
X112352097Y-121757735D01*
X112556828Y-121620938D01*
X112730938Y-121446828D01*
X112867735Y-121242097D01*
X112961963Y-121014611D01*
X113010000Y-120773114D01*
X113010000Y-120526886D01*
X113050000Y-120526886D01*
X113050000Y-120773114D01*
X113098037Y-121014611D01*
X113192265Y-121242097D01*
X113329062Y-121446828D01*
X113503172Y-121620938D01*
X113707903Y-121757735D01*
X113935389Y-121851963D01*
X114176886Y-121900000D01*
X114423114Y-121900000D01*
X114664611Y-121851963D01*
X114892097Y-121757735D01*
X115096828Y-121620938D01*
X115270938Y-121446828D01*
X115407735Y-121242097D01*
X115501963Y-121014611D01*
X115550000Y-120773114D01*
X115550000Y-120526886D01*
X115590000Y-120526886D01*
X115590000Y-120773114D01*
X115638037Y-121014611D01*
X115732265Y-121242097D01*
X115869062Y-121446828D01*
X116043172Y-121620938D01*
X116247903Y-121757735D01*
X116475389Y-121851963D01*
X116716886Y-121900000D01*
X116963114Y-121900000D01*
X117204611Y-121851963D01*
X117432097Y-121757735D01*
X117636828Y-121620938D01*
X117810938Y-121446828D01*
X117947735Y-121242097D01*
X118041963Y-121014611D01*
X118090000Y-120773114D01*
X118090000Y-120526886D01*
X118130000Y-120526886D01*
X118130000Y-120773114D01*
X118178037Y-121014611D01*
X118272265Y-121242097D01*
X118409062Y-121446828D01*
X118583172Y-121620938D01*
X118787903Y-121757735D01*
X119015389Y-121851963D01*
X119256886Y-121900000D01*
X119503114Y-121900000D01*
X119744611Y-121851963D01*
X119972097Y-121757735D01*
X120176828Y-121620938D01*
X120350938Y-121446828D01*
X120487735Y-121242097D01*
X120581963Y-121014611D01*
X120630000Y-120773114D01*
X120630000Y-120526886D01*
X120581963Y-120285389D01*
X120487735Y-120057903D01*
X120350938Y-119853172D01*
X120176828Y-119679062D01*
X119972097Y-119542265D01*
X119744611Y-119448037D01*
X119503114Y-119400000D01*
X119256886Y-119400000D01*
X119015389Y-119448037D01*
X118787903Y-119542265D01*
X118583172Y-119679062D01*
X118409062Y-119853172D01*
X118272265Y-120057903D01*
X118178037Y-120285389D01*
X118130000Y-120526886D01*
X118090000Y-120526886D01*
X118041963Y-120285389D01*
X117947735Y-120057903D01*
X117810938Y-119853172D01*
X117636828Y-119679062D01*
X117432097Y-119542265D01*
X117204611Y-119448037D01*
X116963114Y-119400000D01*
X116716886Y-119400000D01*
X116475389Y-119448037D01*
X116247903Y-119542265D01*
X116043172Y-119679062D01*
X115869062Y-119853172D01*
X115732265Y-120057903D01*
X115638037Y-120285389D01*
X115590000Y-120526886D01*
X115550000Y-120526886D01*
X115501963Y-120285389D01*
X115407735Y-120057903D01*
X115270938Y-119853172D01*
X115096828Y-119679062D01*
X114892097Y-119542265D01*
X114664611Y-119448037D01*
X114423114Y-119400000D01*
X114176886Y-119400000D01*
X113935389Y-119448037D01*
X113707903Y-119542265D01*
X113503172Y-119679062D01*
X113329062Y-119853172D01*
X113192265Y-120057903D01*
X113098037Y-120285389D01*
X113050000Y-120526886D01*
X113010000Y-120526886D01*
X112961963Y-120285389D01*
X112867735Y-120057903D01*
X112730938Y-119853172D01*
X112556828Y-119679062D01*
X112352097Y-119542265D01*
X112124611Y-119448037D01*
X111883114Y-119400000D01*
X111636886Y-119400000D01*
X111395389Y-119448037D01*
X111167903Y-119542265D01*
X110963172Y-119679062D01*
X110789062Y-119853172D01*
X110652265Y-120057903D01*
X110558037Y-120285389D01*
X110510000Y-120526886D01*
X110470000Y-120526886D01*
X110421963Y-120285389D01*
X110327735Y-120057903D01*
X110190938Y-119853172D01*
X110016828Y-119679062D01*
X109812097Y-119542265D01*
X109584611Y-119448037D01*
X109343114Y-119400000D01*
X109096886Y-119400000D01*
X108855389Y-119448037D01*
X108627903Y-119542265D01*
X108423172Y-119679062D01*
X108249062Y-119853172D01*
X108112265Y-120057903D01*
X108018037Y-120285389D01*
X107970000Y-120526886D01*
X107930000Y-120526886D01*
X107881963Y-120285389D01*
X107787735Y-120057903D01*
X107650938Y-119853172D01*
X107476828Y-119679062D01*
X107272097Y-119542265D01*
X107044611Y-119448037D01*
X106803114Y-119400000D01*
X106556886Y-119400000D01*
X106315389Y-119448037D01*
X106087903Y-119542265D01*
X105883172Y-119679062D01*
X105709062Y-119853172D01*
X105572265Y-120057903D01*
X105478037Y-120285389D01*
X105430000Y-120526886D01*
X105390000Y-120526886D01*
X105341963Y-120285389D01*
X105247735Y-120057903D01*
X105110938Y-119853172D01*
X104936828Y-119679062D01*
X104732097Y-119542265D01*
X104504611Y-119448037D01*
X104263114Y-119400000D01*
X104016886Y-119400000D01*
X103775389Y-119448037D01*
X103547903Y-119542265D01*
X103343172Y-119679062D01*
X103169062Y-119853172D01*
X103032265Y-120057903D01*
X102938037Y-120285389D01*
X102890000Y-120526886D01*
X101330000Y-120526886D01*
X101281963Y-120285389D01*
X101187735Y-120057903D01*
X101050938Y-119853172D01*
X100876828Y-119679062D01*
X100672097Y-119542265D01*
X100444611Y-119448037D01*
X100203114Y-119400000D01*
X99956886Y-119400000D01*
X99715389Y-119448037D01*
X99487903Y-119542265D01*
X99283172Y-119679062D01*
X99109062Y-119853172D01*
X98972265Y-120057903D01*
X98878037Y-120285389D01*
X98830000Y-120526886D01*
X98790000Y-120526886D01*
X98741963Y-120285389D01*
X98647735Y-120057903D01*
X98510938Y-119853172D01*
X98336828Y-119679062D01*
X98132097Y-119542265D01*
X97904611Y-119448037D01*
X97663114Y-119400000D01*
X97416886Y-119400000D01*
X97175389Y-119448037D01*
X96947903Y-119542265D01*
X96743172Y-119679062D01*
X96569062Y-119853172D01*
X96432265Y-120057903D01*
X96338037Y-120285389D01*
X96290000Y-120526886D01*
X96250000Y-120526886D01*
X96201963Y-120285389D01*
X96107735Y-120057903D01*
X95970938Y-119853172D01*
X95796828Y-119679062D01*
X95592097Y-119542265D01*
X95364611Y-119448037D01*
X95123114Y-119400000D01*
X94876886Y-119400000D01*
X94635389Y-119448037D01*
X94407903Y-119542265D01*
X94203172Y-119679062D01*
X94029062Y-119853172D01*
X93892265Y-120057903D01*
X93798037Y-120285389D01*
X93750000Y-120526886D01*
X93710000Y-120526886D01*
X93661963Y-120285389D01*
X93567735Y-120057903D01*
X93430938Y-119853172D01*
X93256828Y-119679062D01*
X93052097Y-119542265D01*
X92824611Y-119448037D01*
X92583114Y-119400000D01*
X92336886Y-119400000D01*
X92095389Y-119448037D01*
X91867903Y-119542265D01*
X91663172Y-119679062D01*
X91489062Y-119853172D01*
X91352265Y-120057903D01*
X91258037Y-120285389D01*
X91210000Y-120526886D01*
X91170000Y-120526886D01*
X91121963Y-120285389D01*
X91027735Y-120057903D01*
X90890938Y-119853172D01*
X90716828Y-119679062D01*
X90512097Y-119542265D01*
X90284611Y-119448037D01*
X90043114Y-119400000D01*
X89796886Y-119400000D01*
X89555389Y-119448037D01*
X89327903Y-119542265D01*
X89123172Y-119679062D01*
X88949062Y-119853172D01*
X88812265Y-120057903D01*
X88718037Y-120285389D01*
X88670000Y-120526886D01*
X88630000Y-120526886D01*
X88581963Y-120285389D01*
X88487735Y-120057903D01*
X88350938Y-119853172D01*
X88176828Y-119679062D01*
X87972097Y-119542265D01*
X87744611Y-119448037D01*
X87503114Y-119400000D01*
X87256886Y-119400000D01*
X87015389Y-119448037D01*
X86787903Y-119542265D01*
X86583172Y-119679062D01*
X86409062Y-119853172D01*
X86272265Y-120057903D01*
X86178037Y-120285389D01*
X86130000Y-120526886D01*
X86010024Y-120526886D01*
X86065803Y-120405229D01*
X85994497Y-120170790D01*
X85878824Y-119954767D01*
X85723230Y-119765461D01*
X85533694Y-119610148D01*
X85317500Y-119494795D01*
X85084771Y-119424199D01*
X84890000Y-119513599D01*
X84790000Y-119513599D01*
X84595229Y-119424199D01*
X84362500Y-119494795D01*
X84146306Y-119610148D01*
X83956770Y-119765461D01*
X83801176Y-119954767D01*
X83685503Y-120170790D01*
X83614197Y-120405229D01*
X83525801Y-120405229D01*
X83501963Y-120285389D01*
X83407735Y-120057903D01*
X83270938Y-119853172D01*
X83096828Y-119679062D01*
X82892097Y-119542265D01*
X82664611Y-119448037D01*
X82423114Y-119400000D01*
X82176886Y-119400000D01*
X81935389Y-119448037D01*
X81707903Y-119542265D01*
X81503172Y-119679062D01*
X81329062Y-119853172D01*
X81192265Y-120057903D01*
X81098037Y-120285389D01*
X81050000Y-120526886D01*
X81010000Y-120526886D01*
X80961963Y-120285389D01*
X80867735Y-120057903D01*
X80730938Y-119853172D01*
X80556828Y-119679062D01*
X80352097Y-119542265D01*
X80124611Y-119448037D01*
X79883114Y-119400000D01*
X79636886Y-119400000D01*
X79395389Y-119448037D01*
X79167903Y-119542265D01*
X78963172Y-119679062D01*
X78789062Y-119853172D01*
X78652265Y-120057903D01*
X78558037Y-120285389D01*
X78510000Y-120526886D01*
X78470000Y-120526886D01*
X78421963Y-120285389D01*
X78327735Y-120057903D01*
X78190938Y-119853172D01*
X78016828Y-119679062D01*
X77812097Y-119542265D01*
X77584611Y-119448037D01*
X77343114Y-119400000D01*
X77096886Y-119400000D01*
X76855389Y-119448037D01*
X76627903Y-119542265D01*
X76423172Y-119679062D01*
X76249062Y-119853172D01*
X76112265Y-120057903D01*
X76018037Y-120285389D01*
X75970000Y-120526886D01*
X71810059Y-120526886D01*
X61983534Y-110700362D01*
X62082263Y-110720000D01*
X62377737Y-110720000D01*
X62667534Y-110662356D01*
X62803051Y-110606223D01*
X71328439Y-119131612D01*
X71346446Y-119153554D01*
X71388153Y-119187782D01*
X71434001Y-119225408D01*
X71533892Y-119278801D01*
X71642280Y-119311680D01*
X71726754Y-119320000D01*
X71726756Y-119320000D01*
X71754999Y-119322782D01*
X71783242Y-119320000D01*
X82521757Y-119320000D01*
X82550000Y-119322782D01*
X82578243Y-119320000D01*
X82578246Y-119320000D01*
X82662720Y-119311680D01*
X82771108Y-119278801D01*
X82870998Y-119225408D01*
X82958554Y-119153554D01*
X82976565Y-119131607D01*
X85476614Y-116631559D01*
X85498554Y-116613554D01*
X85532782Y-116571847D01*
X85570408Y-116525999D01*
X85589006Y-116491204D01*
X85623801Y-116426108D01*
X85656680Y-116317720D01*
X85665000Y-116233246D01*
X85665000Y-116233244D01*
X85667782Y-116205001D01*
X85665000Y-116176758D01*
X85665000Y-110605416D01*
X85800517Y-110549283D01*
X86046194Y-110385126D01*
X86255126Y-110176194D01*
X86419283Y-109930517D01*
X86532356Y-109657534D01*
X86590000Y-109367737D01*
X86590000Y-109072263D01*
X86532356Y-108782466D01*
X86419283Y-108509483D01*
X86255126Y-108263806D01*
X86046194Y-108054874D01*
X85889240Y-107950000D01*
X86046194Y-107845126D01*
X86255126Y-107636194D01*
X86419283Y-107390517D01*
X86532356Y-107117534D01*
X86590000Y-106827737D01*
X86590000Y-106532263D01*
X86532356Y-106242466D01*
X86419283Y-105969483D01*
X86255126Y-105723806D01*
X86046194Y-105514874D01*
X85889240Y-105410000D01*
X86046194Y-105305126D01*
X86255126Y-105096194D01*
X86419283Y-104850517D01*
X86532356Y-104577534D01*
X86590000Y-104287737D01*
X86590000Y-103992263D01*
X86532356Y-103702466D01*
X86419283Y-103429483D01*
X86255126Y-103183806D01*
X86046194Y-102974874D01*
X85889240Y-102870000D01*
X86046194Y-102765126D01*
X86255126Y-102556194D01*
X86419283Y-102310517D01*
X86532356Y-102037534D01*
X86590000Y-101747737D01*
X86590000Y-101452263D01*
X86532356Y-101162466D01*
X86419283Y-100889483D01*
X86255126Y-100643806D01*
X86046194Y-100434874D01*
X85889240Y-100330000D01*
X86046194Y-100225126D01*
X86255126Y-100016194D01*
X86419283Y-99770517D01*
X86532356Y-99497534D01*
X86590000Y-99207737D01*
X86590000Y-98912263D01*
X86532356Y-98622466D01*
X86419283Y-98349483D01*
X86255126Y-98103806D01*
X86046194Y-97894874D01*
X85889240Y-97790000D01*
X86046194Y-97685126D01*
X86255126Y-97476194D01*
X86419283Y-97230517D01*
X86532356Y-96957534D01*
X86590000Y-96667737D01*
X86590000Y-96372263D01*
X86532356Y-96082466D01*
X86419283Y-95809483D01*
X86255126Y-95563806D01*
X86046194Y-95354874D01*
X85889240Y-95250000D01*
X86046194Y-95145126D01*
X86255126Y-94936194D01*
X86419283Y-94690517D01*
X86532356Y-94417534D01*
X86590000Y-94127737D01*
X86590000Y-93832263D01*
X86532356Y-93542466D01*
X86476223Y-93406949D01*
X89138173Y-90745000D01*
X96621063Y-90745000D01*
X96637955Y-90785781D01*
G36*
X64533257Y-84430389D02*
G01*
X64438426Y-84469668D01*
X64323776Y-84546274D01*
X64226274Y-84643776D01*
X64149668Y-84758426D01*
X64096901Y-84885818D01*
X64070000Y-85021056D01*
X64070000Y-85158944D01*
X64096901Y-85294182D01*
X64149668Y-85421574D01*
X64226274Y-85536224D01*
X64323776Y-85633726D01*
X64438426Y-85710332D01*
X64565818Y-85763099D01*
X64701056Y-85790000D01*
X64838944Y-85790000D01*
X64974182Y-85763099D01*
X65101574Y-85710332D01*
X65216224Y-85633726D01*
X65313726Y-85536224D01*
X65390332Y-85421574D01*
X65429611Y-85326743D01*
X72283934Y-92181066D01*
X72306664Y-92199720D01*
X72332597Y-92213582D01*
X72358166Y-92221338D01*
X76033387Y-95896560D01*
X76033392Y-95896564D01*
X76083777Y-95946949D01*
X76027644Y-96082466D01*
X75970000Y-96372263D01*
X75970000Y-96667737D01*
X76027644Y-96957534D01*
X76140717Y-97230517D01*
X76304874Y-97476194D01*
X76513806Y-97685126D01*
X76670760Y-97790000D01*
X76513806Y-97894874D01*
X76304874Y-98103806D01*
X76140717Y-98349483D01*
X76027644Y-98622466D01*
X75970000Y-98912263D01*
X75970000Y-99207737D01*
X76027644Y-99497534D01*
X76140717Y-99770517D01*
X76304874Y-100016194D01*
X76513806Y-100225126D01*
X76670760Y-100330000D01*
X76513806Y-100434874D01*
X76304874Y-100643806D01*
X76140717Y-100889483D01*
X76027644Y-101162466D01*
X75970000Y-101452263D01*
X75970000Y-101611308D01*
X75953041Y-101602243D01*
X75868215Y-101576511D01*
X75780000Y-101567823D01*
X74080000Y-101567823D01*
X73991785Y-101576511D01*
X73906959Y-101602243D01*
X73828784Y-101644029D01*
X73760263Y-101700263D01*
X73704029Y-101768784D01*
X73662243Y-101846959D01*
X73636511Y-101931785D01*
X73627823Y-102020000D01*
X73627823Y-103720000D01*
X73636511Y-103808215D01*
X73662243Y-103893041D01*
X73704029Y-103971216D01*
X73760263Y-104039737D01*
X73828784Y-104095971D01*
X73906959Y-104137757D01*
X73991785Y-104163489D01*
X74080000Y-104172177D01*
X75780000Y-104172177D01*
X75868215Y-104163489D01*
X75953041Y-104137757D01*
X75970000Y-104128692D01*
X75970000Y-104287737D01*
X76027644Y-104577534D01*
X76140717Y-104850517D01*
X76304874Y-105096194D01*
X76513806Y-105305126D01*
X76670760Y-105410000D01*
X76513806Y-105514874D01*
X76304874Y-105723806D01*
X76140717Y-105969483D01*
X76027644Y-106242466D01*
X75970000Y-106532263D01*
X75970000Y-106827737D01*
X76027644Y-107117534D01*
X76140717Y-107390517D01*
X76304874Y-107636194D01*
X76513806Y-107845126D01*
X76670760Y-107950000D01*
X76513806Y-108054874D01*
X76304874Y-108263806D01*
X76140717Y-108509483D01*
X76027644Y-108782466D01*
X75970000Y-109072263D01*
X75970000Y-109367737D01*
X75989638Y-109466466D01*
X74871038Y-108347866D01*
X74915332Y-108281574D01*
X74968099Y-108154182D01*
X74995000Y-108018944D01*
X74995000Y-107881056D01*
X74968099Y-107745818D01*
X74915332Y-107618426D01*
X74838726Y-107503776D01*
X74741224Y-107406274D01*
X74626574Y-107329668D01*
X74499182Y-107276901D01*
X74419155Y-107260982D01*
X66615000Y-99456828D01*
X66615000Y-97818243D01*
X66617782Y-97790000D01*
X66611943Y-97730717D01*
X66606680Y-97677280D01*
X66573801Y-97568892D01*
X66520408Y-97469002D01*
X66448554Y-97381446D01*
X66426613Y-97363440D01*
X63616223Y-94553051D01*
X63672356Y-94417534D01*
X63730000Y-94127737D01*
X63730000Y-93832263D01*
X63672356Y-93542466D01*
X63559283Y-93269483D01*
X63395126Y-93023806D01*
X63186194Y-92814874D01*
X63029240Y-92710000D01*
X63186194Y-92605126D01*
X63395126Y-92396194D01*
X63559283Y-92150517D01*
X63672356Y-91877534D01*
X63730000Y-91587737D01*
X63730000Y-91292263D01*
X63672356Y-91002466D01*
X63559283Y-90729483D01*
X63395126Y-90483806D01*
X63186194Y-90274874D01*
X63032906Y-90172450D01*
X63059740Y-90158316D01*
X63075005Y-90148116D01*
X63180253Y-89920964D01*
X62230000Y-88970711D01*
X61279747Y-89920964D01*
X61384995Y-90148116D01*
X61428334Y-90171621D01*
X61273806Y-90274874D01*
X61064874Y-90483806D01*
X60900717Y-90729483D01*
X60787644Y-91002466D01*
X60730000Y-91292263D01*
X60730000Y-91587737D01*
X60787644Y-91877534D01*
X60900717Y-92150517D01*
X61064874Y-92396194D01*
X61273806Y-92605126D01*
X61430760Y-92710000D01*
X61273806Y-92814874D01*
X61064874Y-93023806D01*
X60900717Y-93269483D01*
X60787644Y-93542466D01*
X60730000Y-93832263D01*
X60730000Y-94127737D01*
X60787644Y-94417534D01*
X60900717Y-94690517D01*
X61064874Y-94936194D01*
X61273806Y-95145126D01*
X61430760Y-95250000D01*
X61273806Y-95354874D01*
X61064874Y-95563806D01*
X60900717Y-95809483D01*
X60787644Y-96082466D01*
X60730000Y-96372263D01*
X60730000Y-96667737D01*
X60787644Y-96957534D01*
X60900717Y-97230517D01*
X61064874Y-97476194D01*
X61273806Y-97685126D01*
X61430760Y-97790000D01*
X61273806Y-97894874D01*
X61064874Y-98103806D01*
X60900717Y-98349483D01*
X60787644Y-98622466D01*
X60730000Y-98912263D01*
X60730000Y-99207737D01*
X60787644Y-99497534D01*
X60900717Y-99770517D01*
X61064874Y-100016194D01*
X61273806Y-100225126D01*
X61430760Y-100330000D01*
X61273806Y-100434874D01*
X61064874Y-100643806D01*
X60965581Y-100792408D01*
X60884881Y-100711708D01*
X60891963Y-100694611D01*
X60940000Y-100453114D01*
X60940000Y-100206886D01*
X60891963Y-99965389D01*
X60797735Y-99737903D01*
X60660938Y-99533172D01*
X60486828Y-99359062D01*
X60282097Y-99222265D01*
X60054611Y-99128037D01*
X59813114Y-99080000D01*
X59566886Y-99080000D01*
X59325389Y-99128037D01*
X59097903Y-99222265D01*
X58895000Y-99357841D01*
X58895000Y-98762159D01*
X59097903Y-98897735D01*
X59325389Y-98991963D01*
X59566886Y-99040000D01*
X59813114Y-99040000D01*
X60054611Y-98991963D01*
X60282097Y-98897735D01*
X60486828Y-98760938D01*
X60660938Y-98586828D01*
X60797735Y-98382097D01*
X60891963Y-98154611D01*
X60940000Y-97913114D01*
X60940000Y-97666886D01*
X60891963Y-97425389D01*
X60797735Y-97197903D01*
X60660938Y-96993172D01*
X60486828Y-96819062D01*
X60282097Y-96682265D01*
X60054611Y-96588037D01*
X59813114Y-96540000D01*
X59566886Y-96540000D01*
X59325389Y-96588037D01*
X59097903Y-96682265D01*
X58895000Y-96817841D01*
X58895000Y-96222159D01*
X59097903Y-96357735D01*
X59325389Y-96451963D01*
X59566886Y-96500000D01*
X59813114Y-96500000D01*
X60054611Y-96451963D01*
X60282097Y-96357735D01*
X60486828Y-96220938D01*
X60660938Y-96046828D01*
X60797735Y-95842097D01*
X60891963Y-95614611D01*
X60940000Y-95373114D01*
X60940000Y-95126886D01*
X60891963Y-94885389D01*
X60797735Y-94657903D01*
X60660938Y-94453172D01*
X60486828Y-94279062D01*
X60282097Y-94142265D01*
X60054611Y-94048037D01*
X59813114Y-94000000D01*
X59566886Y-94000000D01*
X59325389Y-94048037D01*
X59097903Y-94142265D01*
X58895000Y-94277841D01*
X58895000Y-93682159D01*
X59097903Y-93817735D01*
X59325389Y-93911963D01*
X59566886Y-93960000D01*
X59813114Y-93960000D01*
X60054611Y-93911963D01*
X60282097Y-93817735D01*
X60486828Y-93680938D01*
X60660938Y-93506828D01*
X60797735Y-93302097D01*
X60891963Y-93074611D01*
X60940000Y-92833114D01*
X60940000Y-92586886D01*
X60891963Y-92345389D01*
X60797735Y-92117903D01*
X60660938Y-91913172D01*
X60486828Y-91739062D01*
X60282097Y-91602265D01*
X60054611Y-91508037D01*
X59813114Y-91460000D01*
X59566886Y-91460000D01*
X59325389Y-91508037D01*
X59097903Y-91602265D01*
X58895000Y-91737841D01*
X58895000Y-91142159D01*
X59097903Y-91277735D01*
X59325389Y-91371963D01*
X59566886Y-91420000D01*
X59813114Y-91420000D01*
X60054611Y-91371963D01*
X60282097Y-91277735D01*
X60486828Y-91140938D01*
X60660938Y-90966828D01*
X60797735Y-90762097D01*
X60891963Y-90534611D01*
X60940000Y-90293114D01*
X60940000Y-90046886D01*
X60891963Y-89805389D01*
X60884881Y-89788292D01*
X60961937Y-89711235D01*
X60971684Y-89729740D01*
X60981884Y-89745005D01*
X61209036Y-89850253D01*
X62159289Y-88900000D01*
X62300711Y-88900000D01*
X63250964Y-89850253D01*
X63478116Y-89745005D01*
X63618985Y-89485274D01*
X63706478Y-89203050D01*
X63737230Y-88909180D01*
X63730016Y-88831056D01*
X65340000Y-88831056D01*
X65340000Y-88968944D01*
X65366901Y-89104182D01*
X65419668Y-89231574D01*
X65496274Y-89346224D01*
X65593776Y-89443726D01*
X65708426Y-89520332D01*
X65835818Y-89573099D01*
X65971056Y-89600000D01*
X66108944Y-89600000D01*
X66244182Y-89573099D01*
X66371574Y-89520332D01*
X66486224Y-89443726D01*
X66583726Y-89346224D01*
X66660332Y-89231574D01*
X66713099Y-89104182D01*
X66740000Y-88968944D01*
X66740000Y-88831056D01*
X66713099Y-88695818D01*
X66660332Y-88568426D01*
X66583726Y-88453776D01*
X66486224Y-88356274D01*
X66371574Y-88279668D01*
X66244182Y-88226901D01*
X66108944Y-88200000D01*
X65971056Y-88200000D01*
X65835818Y-88226901D01*
X65708426Y-88279668D01*
X65593776Y-88356274D01*
X65496274Y-88453776D01*
X65419668Y-88568426D01*
X65366901Y-88695818D01*
X65340000Y-88831056D01*
X63730016Y-88831056D01*
X63710060Y-88614957D01*
X63626012Y-88331689D01*
X63488316Y-88070260D01*
X63478116Y-88054995D01*
X63250964Y-87949747D01*
X62300711Y-88900000D01*
X62159289Y-88900000D01*
X62145147Y-88885858D01*
X62215858Y-88815147D01*
X62230000Y-88829289D01*
X63180253Y-87879036D01*
X63075005Y-87651884D01*
X63036085Y-87630775D01*
X63059740Y-87618316D01*
X63075005Y-87608116D01*
X63180253Y-87380964D01*
X62230000Y-86430711D01*
X62215858Y-86444853D01*
X62145147Y-86374142D01*
X62159289Y-86360000D01*
X62300711Y-86360000D01*
X63250964Y-87310253D01*
X63478116Y-87205005D01*
X63618985Y-86945274D01*
X63706478Y-86663050D01*
X63737230Y-86369180D01*
X63710060Y-86074957D01*
X63626012Y-85791689D01*
X63488316Y-85530260D01*
X63478116Y-85514995D01*
X63250964Y-85409747D01*
X62300711Y-86360000D01*
X62159289Y-86360000D01*
X62145147Y-86345858D01*
X62215858Y-86275147D01*
X62230000Y-86289289D01*
X63180253Y-85339036D01*
X63075005Y-85111884D01*
X63031666Y-85088379D01*
X63186194Y-84985126D01*
X63395126Y-84776194D01*
X63559283Y-84530517D01*
X63672356Y-84257534D01*
X63730000Y-83967737D01*
X63730000Y-83672263D01*
X63718794Y-83615926D01*
X64533257Y-84430389D01*
G37*
X64533257Y-84430389D02*
X64438426Y-84469668D01*
X64323776Y-84546274D01*
X64226274Y-84643776D01*
X64149668Y-84758426D01*
X64096901Y-84885818D01*
X64070000Y-85021056D01*
X64070000Y-85158944D01*
X64096901Y-85294182D01*
X64149668Y-85421574D01*
X64226274Y-85536224D01*
X64323776Y-85633726D01*
X64438426Y-85710332D01*
X64565818Y-85763099D01*
X64701056Y-85790000D01*
X64838944Y-85790000D01*
X64974182Y-85763099D01*
X65101574Y-85710332D01*
X65216224Y-85633726D01*
X65313726Y-85536224D01*
X65390332Y-85421574D01*
X65429611Y-85326743D01*
X72283934Y-92181066D01*
X72306664Y-92199720D01*
X72332597Y-92213582D01*
X72358166Y-92221338D01*
X76033387Y-95896560D01*
X76033392Y-95896564D01*
X76083777Y-95946949D01*
X76027644Y-96082466D01*
X75970000Y-96372263D01*
X75970000Y-96667737D01*
X76027644Y-96957534D01*
X76140717Y-97230517D01*
X76304874Y-97476194D01*
X76513806Y-97685126D01*
X76670760Y-97790000D01*
X76513806Y-97894874D01*
X76304874Y-98103806D01*
X76140717Y-98349483D01*
X76027644Y-98622466D01*
X75970000Y-98912263D01*
X75970000Y-99207737D01*
X76027644Y-99497534D01*
X76140717Y-99770517D01*
X76304874Y-100016194D01*
X76513806Y-100225126D01*
X76670760Y-100330000D01*
X76513806Y-100434874D01*
X76304874Y-100643806D01*
X76140717Y-100889483D01*
X76027644Y-101162466D01*
X75970000Y-101452263D01*
X75970000Y-101611308D01*
X75953041Y-101602243D01*
X75868215Y-101576511D01*
X75780000Y-101567823D01*
X74080000Y-101567823D01*
X73991785Y-101576511D01*
X73906959Y-101602243D01*
X73828784Y-101644029D01*
X73760263Y-101700263D01*
X73704029Y-101768784D01*
X73662243Y-101846959D01*
X73636511Y-101931785D01*
X73627823Y-102020000D01*
X73627823Y-103720000D01*
X73636511Y-103808215D01*
X73662243Y-103893041D01*
X73704029Y-103971216D01*
X73760263Y-104039737D01*
X73828784Y-104095971D01*
X73906959Y-104137757D01*
X73991785Y-104163489D01*
X74080000Y-104172177D01*
X75780000Y-104172177D01*
X75868215Y-104163489D01*
X75953041Y-104137757D01*
X75970000Y-104128692D01*
X75970000Y-104287737D01*
X76027644Y-104577534D01*
X76140717Y-104850517D01*
X76304874Y-105096194D01*
X76513806Y-105305126D01*
X76670760Y-105410000D01*
X76513806Y-105514874D01*
X76304874Y-105723806D01*
X76140717Y-105969483D01*
X76027644Y-106242466D01*
X75970000Y-106532263D01*
X75970000Y-106827737D01*
X76027644Y-107117534D01*
X76140717Y-107390517D01*
X76304874Y-107636194D01*
X76513806Y-107845126D01*
X76670760Y-107950000D01*
X76513806Y-108054874D01*
X76304874Y-108263806D01*
X76140717Y-108509483D01*
X76027644Y-108782466D01*
X75970000Y-109072263D01*
X75970000Y-109367737D01*
X75989638Y-109466466D01*
X74871038Y-108347866D01*
X74915332Y-108281574D01*
X74968099Y-108154182D01*
X74995000Y-108018944D01*
X74995000Y-107881056D01*
X74968099Y-107745818D01*
X74915332Y-107618426D01*
X74838726Y-107503776D01*
X74741224Y-107406274D01*
X74626574Y-107329668D01*
X74499182Y-107276901D01*
X74419155Y-107260982D01*
X66615000Y-99456828D01*
X66615000Y-97818243D01*
X66617782Y-97790000D01*
X66611943Y-97730717D01*
X66606680Y-97677280D01*
X66573801Y-97568892D01*
X66520408Y-97469002D01*
X66448554Y-97381446D01*
X66426613Y-97363440D01*
X63616223Y-94553051D01*
X63672356Y-94417534D01*
X63730000Y-94127737D01*
X63730000Y-93832263D01*
X63672356Y-93542466D01*
X63559283Y-93269483D01*
X63395126Y-93023806D01*
X63186194Y-92814874D01*
X63029240Y-92710000D01*
X63186194Y-92605126D01*
X63395126Y-92396194D01*
X63559283Y-92150517D01*
X63672356Y-91877534D01*
X63730000Y-91587737D01*
X63730000Y-91292263D01*
X63672356Y-91002466D01*
X63559283Y-90729483D01*
X63395126Y-90483806D01*
X63186194Y-90274874D01*
X63032906Y-90172450D01*
X63059740Y-90158316D01*
X63075005Y-90148116D01*
X63180253Y-89920964D01*
X62230000Y-88970711D01*
X61279747Y-89920964D01*
X61384995Y-90148116D01*
X61428334Y-90171621D01*
X61273806Y-90274874D01*
X61064874Y-90483806D01*
X60900717Y-90729483D01*
X60787644Y-91002466D01*
X60730000Y-91292263D01*
X60730000Y-91587737D01*
X60787644Y-91877534D01*
X60900717Y-92150517D01*
X61064874Y-92396194D01*
X61273806Y-92605126D01*
X61430760Y-92710000D01*
X61273806Y-92814874D01*
X61064874Y-93023806D01*
X60900717Y-93269483D01*
X60787644Y-93542466D01*
X60730000Y-93832263D01*
X60730000Y-94127737D01*
X60787644Y-94417534D01*
X60900717Y-94690517D01*
X61064874Y-94936194D01*
X61273806Y-95145126D01*
X61430760Y-95250000D01*
X61273806Y-95354874D01*
X61064874Y-95563806D01*
X60900717Y-95809483D01*
X60787644Y-96082466D01*
X60730000Y-96372263D01*
X60730000Y-96667737D01*
X60787644Y-96957534D01*
X60900717Y-97230517D01*
X61064874Y-97476194D01*
X61273806Y-97685126D01*
X61430760Y-97790000D01*
X61273806Y-97894874D01*
X61064874Y-98103806D01*
X60900717Y-98349483D01*
X60787644Y-98622466D01*
X60730000Y-98912263D01*
X60730000Y-99207737D01*
X60787644Y-99497534D01*
X60900717Y-99770517D01*
X61064874Y-100016194D01*
X61273806Y-100225126D01*
X61430760Y-100330000D01*
X61273806Y-100434874D01*
X61064874Y-100643806D01*
X60965581Y-100792408D01*
X60884881Y-100711708D01*
X60891963Y-100694611D01*
X60940000Y-100453114D01*
X60940000Y-100206886D01*
X60891963Y-99965389D01*
X60797735Y-99737903D01*
X60660938Y-99533172D01*
X60486828Y-99359062D01*
X60282097Y-99222265D01*
X60054611Y-99128037D01*
X59813114Y-99080000D01*
X59566886Y-99080000D01*
X59325389Y-99128037D01*
X59097903Y-99222265D01*
X58895000Y-99357841D01*
X58895000Y-98762159D01*
X59097903Y-98897735D01*
X59325389Y-98991963D01*
X59566886Y-99040000D01*
X59813114Y-99040000D01*
X60054611Y-98991963D01*
X60282097Y-98897735D01*
X60486828Y-98760938D01*
X60660938Y-98586828D01*
X60797735Y-98382097D01*
X60891963Y-98154611D01*
X60940000Y-97913114D01*
X60940000Y-97666886D01*
X60891963Y-97425389D01*
X60797735Y-97197903D01*
X60660938Y-96993172D01*
X60486828Y-96819062D01*
X60282097Y-96682265D01*
X60054611Y-96588037D01*
X59813114Y-96540000D01*
X59566886Y-96540000D01*
X59325389Y-96588037D01*
X59097903Y-96682265D01*
X58895000Y-96817841D01*
X58895000Y-96222159D01*
X59097903Y-96357735D01*
X59325389Y-96451963D01*
X59566886Y-96500000D01*
X59813114Y-96500000D01*
X60054611Y-96451963D01*
X60282097Y-96357735D01*
X60486828Y-96220938D01*
X60660938Y-96046828D01*
X60797735Y-95842097D01*
X60891963Y-95614611D01*
X60940000Y-95373114D01*
X60940000Y-95126886D01*
X60891963Y-94885389D01*
X60797735Y-94657903D01*
X60660938Y-94453172D01*
X60486828Y-94279062D01*
X60282097Y-94142265D01*
X60054611Y-94048037D01*
X59813114Y-94000000D01*
X59566886Y-94000000D01*
X59325389Y-94048037D01*
X59097903Y-94142265D01*
X58895000Y-94277841D01*
X58895000Y-93682159D01*
X59097903Y-93817735D01*
X59325389Y-93911963D01*
X59566886Y-93960000D01*
X59813114Y-93960000D01*
X60054611Y-93911963D01*
X60282097Y-93817735D01*
X60486828Y-93680938D01*
X60660938Y-93506828D01*
X60797735Y-93302097D01*
X60891963Y-93074611D01*
X60940000Y-92833114D01*
X60940000Y-92586886D01*
X60891963Y-92345389D01*
X60797735Y-92117903D01*
X60660938Y-91913172D01*
X60486828Y-91739062D01*
X60282097Y-91602265D01*
X60054611Y-91508037D01*
X59813114Y-91460000D01*
X59566886Y-91460000D01*
X59325389Y-91508037D01*
X59097903Y-91602265D01*
X58895000Y-91737841D01*
X58895000Y-91142159D01*
X59097903Y-91277735D01*
X59325389Y-91371963D01*
X59566886Y-91420000D01*
X59813114Y-91420000D01*
X60054611Y-91371963D01*
X60282097Y-91277735D01*
X60486828Y-91140938D01*
X60660938Y-90966828D01*
X60797735Y-90762097D01*
X60891963Y-90534611D01*
X60940000Y-90293114D01*
X60940000Y-90046886D01*
X60891963Y-89805389D01*
X60884881Y-89788292D01*
X60961937Y-89711235D01*
X60971684Y-89729740D01*
X60981884Y-89745005D01*
X61209036Y-89850253D01*
X62159289Y-88900000D01*
X62300711Y-88900000D01*
X63250964Y-89850253D01*
X63478116Y-89745005D01*
X63618985Y-89485274D01*
X63706478Y-89203050D01*
X63737230Y-88909180D01*
X63730016Y-88831056D01*
X65340000Y-88831056D01*
X65340000Y-88968944D01*
X65366901Y-89104182D01*
X65419668Y-89231574D01*
X65496274Y-89346224D01*
X65593776Y-89443726D01*
X65708426Y-89520332D01*
X65835818Y-89573099D01*
X65971056Y-89600000D01*
X66108944Y-89600000D01*
X66244182Y-89573099D01*
X66371574Y-89520332D01*
X66486224Y-89443726D01*
X66583726Y-89346224D01*
X66660332Y-89231574D01*
X66713099Y-89104182D01*
X66740000Y-88968944D01*
X66740000Y-88831056D01*
X66713099Y-88695818D01*
X66660332Y-88568426D01*
X66583726Y-88453776D01*
X66486224Y-88356274D01*
X66371574Y-88279668D01*
X66244182Y-88226901D01*
X66108944Y-88200000D01*
X65971056Y-88200000D01*
X65835818Y-88226901D01*
X65708426Y-88279668D01*
X65593776Y-88356274D01*
X65496274Y-88453776D01*
X65419668Y-88568426D01*
X65366901Y-88695818D01*
X65340000Y-88831056D01*
X63730016Y-88831056D01*
X63710060Y-88614957D01*
X63626012Y-88331689D01*
X63488316Y-88070260D01*
X63478116Y-88054995D01*
X63250964Y-87949747D01*
X62300711Y-88900000D01*
X62159289Y-88900000D01*
X62145147Y-88885858D01*
X62215858Y-88815147D01*
X62230000Y-88829289D01*
X63180253Y-87879036D01*
X63075005Y-87651884D01*
X63036085Y-87630775D01*
X63059740Y-87618316D01*
X63075005Y-87608116D01*
X63180253Y-87380964D01*
X62230000Y-86430711D01*
X62215858Y-86444853D01*
X62145147Y-86374142D01*
X62159289Y-86360000D01*
X62300711Y-86360000D01*
X63250964Y-87310253D01*
X63478116Y-87205005D01*
X63618985Y-86945274D01*
X63706478Y-86663050D01*
X63737230Y-86369180D01*
X63710060Y-86074957D01*
X63626012Y-85791689D01*
X63488316Y-85530260D01*
X63478116Y-85514995D01*
X63250964Y-85409747D01*
X62300711Y-86360000D01*
X62159289Y-86360000D01*
X62145147Y-86345858D01*
X62215858Y-86275147D01*
X62230000Y-86289289D01*
X63180253Y-85339036D01*
X63075005Y-85111884D01*
X63031666Y-85088379D01*
X63186194Y-84985126D01*
X63395126Y-84776194D01*
X63559283Y-84530517D01*
X63672356Y-84257534D01*
X63730000Y-83967737D01*
X63730000Y-83672263D01*
X63718794Y-83615926D01*
X64533257Y-84430389D01*
G36*
X106784874Y-84776194D02*
G01*
X106993806Y-84985126D01*
X107147094Y-85087550D01*
X107120260Y-85101684D01*
X107104995Y-85111884D01*
X106999747Y-85339036D01*
X107950000Y-86289289D01*
X108900253Y-85339036D01*
X108795005Y-85111884D01*
X108751666Y-85088379D01*
X108906194Y-84985126D01*
X109115126Y-84776194D01*
X109200817Y-84647949D01*
X116098934Y-91546066D01*
X116121664Y-91564720D01*
X116147597Y-91578582D01*
X116175736Y-91587118D01*
X116205000Y-91590000D01*
X121690450Y-91590000D01*
X121747644Y-91877534D01*
X121803777Y-92013050D01*
X109468394Y-104348434D01*
X109446446Y-104366446D01*
X109430472Y-104385911D01*
X109450000Y-104287737D01*
X109450000Y-103992263D01*
X109392356Y-103702466D01*
X109279283Y-103429483D01*
X109115126Y-103183806D01*
X108906194Y-102974874D01*
X108749240Y-102870000D01*
X108906194Y-102765126D01*
X109115126Y-102556194D01*
X109279283Y-102310517D01*
X109392356Y-102037534D01*
X109450000Y-101747737D01*
X109450000Y-101452263D01*
X109392356Y-101162466D01*
X109279283Y-100889483D01*
X109115126Y-100643806D01*
X108906194Y-100434874D01*
X108749240Y-100330000D01*
X108906194Y-100225126D01*
X109115126Y-100016194D01*
X109279283Y-99770517D01*
X109392356Y-99497534D01*
X109450000Y-99207737D01*
X109450000Y-98912263D01*
X109392356Y-98622466D01*
X109279283Y-98349483D01*
X109115126Y-98103806D01*
X108906194Y-97894874D01*
X108749240Y-97790000D01*
X108906194Y-97685126D01*
X109115126Y-97476194D01*
X109279283Y-97230517D01*
X109392356Y-96957534D01*
X109450000Y-96667737D01*
X109450000Y-96372263D01*
X109392356Y-96082466D01*
X109279283Y-95809483D01*
X109115126Y-95563806D01*
X108906194Y-95354874D01*
X108749240Y-95250000D01*
X108906194Y-95145126D01*
X109115126Y-94936194D01*
X109279283Y-94690517D01*
X109392356Y-94417534D01*
X109450000Y-94127737D01*
X109450000Y-93832263D01*
X109392356Y-93542466D01*
X109279283Y-93269483D01*
X109115126Y-93023806D01*
X108906194Y-92814874D01*
X108749240Y-92710000D01*
X108906194Y-92605126D01*
X109115126Y-92396194D01*
X109279283Y-92150517D01*
X109392356Y-91877534D01*
X109450000Y-91587737D01*
X109450000Y-91292263D01*
X109392356Y-91002466D01*
X109279283Y-90729483D01*
X109115126Y-90483806D01*
X108906194Y-90274874D01*
X108752906Y-90172450D01*
X108779740Y-90158316D01*
X108795005Y-90148116D01*
X108900253Y-89920964D01*
X107950000Y-88970711D01*
X106999747Y-89920964D01*
X107104995Y-90148116D01*
X107148334Y-90171621D01*
X106993806Y-90274874D01*
X106784874Y-90483806D01*
X106620717Y-90729483D01*
X106507644Y-91002466D01*
X106450000Y-91292263D01*
X106450000Y-91587737D01*
X106507644Y-91877534D01*
X106620717Y-92150517D01*
X106784874Y-92396194D01*
X106993806Y-92605126D01*
X107150760Y-92710000D01*
X106993806Y-92814874D01*
X106784874Y-93023806D01*
X106620717Y-93269483D01*
X106507644Y-93542466D01*
X106450000Y-93832263D01*
X106450000Y-94127737D01*
X106507644Y-94417534D01*
X106620717Y-94690517D01*
X106784874Y-94936194D01*
X106993806Y-95145126D01*
X107150760Y-95250000D01*
X106993806Y-95354874D01*
X106784874Y-95563806D01*
X106620717Y-95809483D01*
X106507644Y-96082466D01*
X106450000Y-96372263D01*
X106450000Y-96667737D01*
X106469528Y-96765911D01*
X106453554Y-96746446D01*
X106431612Y-96728439D01*
X101716223Y-92013051D01*
X101772356Y-91877534D01*
X101830000Y-91587737D01*
X101830000Y-91292263D01*
X101772356Y-91002466D01*
X101659283Y-90729483D01*
X101495126Y-90483806D01*
X101286194Y-90274874D01*
X101157949Y-90189183D01*
X101273573Y-90073559D01*
X101286194Y-90065126D01*
X101495126Y-89856194D01*
X101503559Y-89843573D01*
X102456312Y-88890820D01*
X106442770Y-88890820D01*
X106469940Y-89185043D01*
X106553988Y-89468311D01*
X106691684Y-89729740D01*
X106701884Y-89745005D01*
X106929036Y-89850253D01*
X107879289Y-88900000D01*
X108020711Y-88900000D01*
X108970964Y-89850253D01*
X109198116Y-89745005D01*
X109338985Y-89485274D01*
X109426478Y-89203050D01*
X109457230Y-88909180D01*
X109430060Y-88614957D01*
X109346012Y-88331689D01*
X109208316Y-88070260D01*
X109198116Y-88054995D01*
X108970964Y-87949747D01*
X108020711Y-88900000D01*
X107879289Y-88900000D01*
X106929036Y-87949747D01*
X106701884Y-88054995D01*
X106561015Y-88314726D01*
X106473522Y-88596950D01*
X106442770Y-88890820D01*
X102456312Y-88890820D01*
X103966168Y-87380964D01*
X106999747Y-87380964D01*
X107104995Y-87608116D01*
X107143915Y-87629225D01*
X107120260Y-87641684D01*
X107104995Y-87651884D01*
X106999747Y-87879036D01*
X107950000Y-88829289D01*
X108900253Y-87879036D01*
X108795005Y-87651884D01*
X108756085Y-87630775D01*
X108779740Y-87618316D01*
X108795005Y-87608116D01*
X108900253Y-87380964D01*
X107950000Y-86430711D01*
X106999747Y-87380964D01*
X103966168Y-87380964D01*
X104996312Y-86350820D01*
X106442770Y-86350820D01*
X106469940Y-86645043D01*
X106553988Y-86928311D01*
X106691684Y-87189740D01*
X106701884Y-87205005D01*
X106929036Y-87310253D01*
X107879289Y-86360000D01*
X108020711Y-86360000D01*
X108970964Y-87310253D01*
X109198116Y-87205005D01*
X109338985Y-86945274D01*
X109426478Y-86663050D01*
X109457230Y-86369180D01*
X109430060Y-86074957D01*
X109346012Y-85791689D01*
X109208316Y-85530260D01*
X109198116Y-85514995D01*
X108970964Y-85409747D01*
X108020711Y-86360000D01*
X107879289Y-86360000D01*
X106929036Y-85409747D01*
X106701884Y-85514995D01*
X106561015Y-85774726D01*
X106473522Y-86056950D01*
X106442770Y-86350820D01*
X104996312Y-86350820D01*
X105516066Y-85831066D01*
X105516885Y-85830241D01*
X106691827Y-84636940D01*
X106784874Y-84776194D01*
G37*
X106784874Y-84776194D02*
X106993806Y-84985126D01*
X107147094Y-85087550D01*
X107120260Y-85101684D01*
X107104995Y-85111884D01*
X106999747Y-85339036D01*
X107950000Y-86289289D01*
X108900253Y-85339036D01*
X108795005Y-85111884D01*
X108751666Y-85088379D01*
X108906194Y-84985126D01*
X109115126Y-84776194D01*
X109200817Y-84647949D01*
X116098934Y-91546066D01*
X116121664Y-91564720D01*
X116147597Y-91578582D01*
X116175736Y-91587118D01*
X116205000Y-91590000D01*
X121690450Y-91590000D01*
X121747644Y-91877534D01*
X121803777Y-92013050D01*
X109468394Y-104348434D01*
X109446446Y-104366446D01*
X109430472Y-104385911D01*
X109450000Y-104287737D01*
X109450000Y-103992263D01*
X109392356Y-103702466D01*
X109279283Y-103429483D01*
X109115126Y-103183806D01*
X108906194Y-102974874D01*
X108749240Y-102870000D01*
X108906194Y-102765126D01*
X109115126Y-102556194D01*
X109279283Y-102310517D01*
X109392356Y-102037534D01*
X109450000Y-101747737D01*
X109450000Y-101452263D01*
X109392356Y-101162466D01*
X109279283Y-100889483D01*
X109115126Y-100643806D01*
X108906194Y-100434874D01*
X108749240Y-100330000D01*
X108906194Y-100225126D01*
X109115126Y-100016194D01*
X109279283Y-99770517D01*
X109392356Y-99497534D01*
X109450000Y-99207737D01*
X109450000Y-98912263D01*
X109392356Y-98622466D01*
X109279283Y-98349483D01*
X109115126Y-98103806D01*
X108906194Y-97894874D01*
X108749240Y-97790000D01*
X108906194Y-97685126D01*
X109115126Y-97476194D01*
X109279283Y-97230517D01*
X109392356Y-96957534D01*
X109450000Y-96667737D01*
X109450000Y-96372263D01*
X109392356Y-96082466D01*
X109279283Y-95809483D01*
X109115126Y-95563806D01*
X108906194Y-95354874D01*
X108749240Y-95250000D01*
X108906194Y-95145126D01*
X109115126Y-94936194D01*
X109279283Y-94690517D01*
X109392356Y-94417534D01*
X109450000Y-94127737D01*
X109450000Y-93832263D01*
X109392356Y-93542466D01*
X109279283Y-93269483D01*
X109115126Y-93023806D01*
X108906194Y-92814874D01*
X108749240Y-92710000D01*
X108906194Y-92605126D01*
X109115126Y-92396194D01*
X109279283Y-92150517D01*
X109392356Y-91877534D01*
X109450000Y-91587737D01*
X109450000Y-91292263D01*
X109392356Y-91002466D01*
X109279283Y-90729483D01*
X109115126Y-90483806D01*
X108906194Y-90274874D01*
X108752906Y-90172450D01*
X108779740Y-90158316D01*
X108795005Y-90148116D01*
X108900253Y-89920964D01*
X107950000Y-88970711D01*
X106999747Y-89920964D01*
X107104995Y-90148116D01*
X107148334Y-90171621D01*
X106993806Y-90274874D01*
X106784874Y-90483806D01*
X106620717Y-90729483D01*
X106507644Y-91002466D01*
X106450000Y-91292263D01*
X106450000Y-91587737D01*
X106507644Y-91877534D01*
X106620717Y-92150517D01*
X106784874Y-92396194D01*
X106993806Y-92605126D01*
X107150760Y-92710000D01*
X106993806Y-92814874D01*
X106784874Y-93023806D01*
X106620717Y-93269483D01*
X106507644Y-93542466D01*
X106450000Y-93832263D01*
X106450000Y-94127737D01*
X106507644Y-94417534D01*
X106620717Y-94690517D01*
X106784874Y-94936194D01*
X106993806Y-95145126D01*
X107150760Y-95250000D01*
X106993806Y-95354874D01*
X106784874Y-95563806D01*
X106620717Y-95809483D01*
X106507644Y-96082466D01*
X106450000Y-96372263D01*
X106450000Y-96667737D01*
X106469528Y-96765911D01*
X106453554Y-96746446D01*
X106431612Y-96728439D01*
X101716223Y-92013051D01*
X101772356Y-91877534D01*
X101830000Y-91587737D01*
X101830000Y-91292263D01*
X101772356Y-91002466D01*
X101659283Y-90729483D01*
X101495126Y-90483806D01*
X101286194Y-90274874D01*
X101157949Y-90189183D01*
X101273573Y-90073559D01*
X101286194Y-90065126D01*
X101495126Y-89856194D01*
X101503559Y-89843573D01*
X102456312Y-88890820D01*
X106442770Y-88890820D01*
X106469940Y-89185043D01*
X106553988Y-89468311D01*
X106691684Y-89729740D01*
X106701884Y-89745005D01*
X106929036Y-89850253D01*
X107879289Y-88900000D01*
X108020711Y-88900000D01*
X108970964Y-89850253D01*
X109198116Y-89745005D01*
X109338985Y-89485274D01*
X109426478Y-89203050D01*
X109457230Y-88909180D01*
X109430060Y-88614957D01*
X109346012Y-88331689D01*
X109208316Y-88070260D01*
X109198116Y-88054995D01*
X108970964Y-87949747D01*
X108020711Y-88900000D01*
X107879289Y-88900000D01*
X106929036Y-87949747D01*
X106701884Y-88054995D01*
X106561015Y-88314726D01*
X106473522Y-88596950D01*
X106442770Y-88890820D01*
X102456312Y-88890820D01*
X103966168Y-87380964D01*
X106999747Y-87380964D01*
X107104995Y-87608116D01*
X107143915Y-87629225D01*
X107120260Y-87641684D01*
X107104995Y-87651884D01*
X106999747Y-87879036D01*
X107950000Y-88829289D01*
X108900253Y-87879036D01*
X108795005Y-87651884D01*
X108756085Y-87630775D01*
X108779740Y-87618316D01*
X108795005Y-87608116D01*
X108900253Y-87380964D01*
X107950000Y-86430711D01*
X106999747Y-87380964D01*
X103966168Y-87380964D01*
X104996312Y-86350820D01*
X106442770Y-86350820D01*
X106469940Y-86645043D01*
X106553988Y-86928311D01*
X106691684Y-87189740D01*
X106701884Y-87205005D01*
X106929036Y-87310253D01*
X107879289Y-86360000D01*
X108020711Y-86360000D01*
X108970964Y-87310253D01*
X109198116Y-87205005D01*
X109338985Y-86945274D01*
X109426478Y-86663050D01*
X109457230Y-86369180D01*
X109430060Y-86074957D01*
X109346012Y-85791689D01*
X109208316Y-85530260D01*
X109198116Y-85514995D01*
X108970964Y-85409747D01*
X108020711Y-86360000D01*
X107879289Y-86360000D01*
X106929036Y-85409747D01*
X106701884Y-85514995D01*
X106561015Y-85774726D01*
X106473522Y-86056950D01*
X106442770Y-86350820D01*
X104996312Y-86350820D01*
X105516066Y-85831066D01*
X105516885Y-85830241D01*
X106691827Y-84636940D01*
X106784874Y-84776194D01*
G36*
X83613522Y-86056950D02*
G01*
X83582770Y-86350820D01*
X83609940Y-86645043D01*
X83693988Y-86928311D01*
X83831684Y-87189740D01*
X83841884Y-87205005D01*
X84069036Y-87310253D01*
X85019289Y-86360000D01*
X85005147Y-86345858D01*
X85075858Y-86275147D01*
X85090000Y-86289289D01*
X85104142Y-86275147D01*
X85174853Y-86345858D01*
X85160711Y-86360000D01*
X86110964Y-87310253D01*
X86338116Y-87205005D01*
X86478985Y-86945274D01*
X86566478Y-86663050D01*
X86597230Y-86369180D01*
X86570060Y-86074957D01*
X86510731Y-85875000D01*
X92046827Y-85875000D01*
X94823439Y-88651612D01*
X94841446Y-88673554D01*
X94929002Y-88745408D01*
X95028892Y-88798801D01*
X95137280Y-88831680D01*
X95221754Y-88840000D01*
X95221757Y-88840000D01*
X95250000Y-88842782D01*
X95278243Y-88840000D01*
X95612868Y-88840000D01*
X96367868Y-89595000D01*
X88928243Y-89595000D01*
X88900000Y-89592218D01*
X88871757Y-89595000D01*
X88871754Y-89595000D01*
X88787280Y-89603320D01*
X88678892Y-89636199D01*
X88579002Y-89689592D01*
X88491446Y-89761446D01*
X88473440Y-89783387D01*
X86570362Y-91686466D01*
X86590000Y-91587737D01*
X86590000Y-91292263D01*
X86532356Y-91002466D01*
X86419283Y-90729483D01*
X86255126Y-90483806D01*
X86046194Y-90274874D01*
X85892906Y-90172450D01*
X85919740Y-90158316D01*
X85935005Y-90148116D01*
X86040253Y-89920964D01*
X85090000Y-88970711D01*
X84139747Y-89920964D01*
X84244995Y-90148116D01*
X84288334Y-90171621D01*
X84133806Y-90274874D01*
X83924874Y-90483806D01*
X83760717Y-90729483D01*
X83647644Y-91002466D01*
X83590000Y-91292263D01*
X83590000Y-91587737D01*
X83647644Y-91877534D01*
X83760717Y-92150517D01*
X83924874Y-92396194D01*
X84133806Y-92605126D01*
X84290760Y-92710000D01*
X84133806Y-92814874D01*
X83924874Y-93023806D01*
X83760717Y-93269483D01*
X83647644Y-93542466D01*
X83590000Y-93832263D01*
X83590000Y-94127737D01*
X83647644Y-94417534D01*
X83703777Y-94553051D01*
X83653392Y-94603436D01*
X83653387Y-94603440D01*
X82311828Y-95945000D01*
X81048977Y-95945000D01*
X81117735Y-95842097D01*
X81211963Y-95614611D01*
X81260000Y-95373114D01*
X81260000Y-95126886D01*
X81211963Y-94885389D01*
X81117735Y-94657903D01*
X80980938Y-94453172D01*
X80806828Y-94279062D01*
X80602097Y-94142265D01*
X80374611Y-94048037D01*
X80133114Y-94000000D01*
X79886886Y-94000000D01*
X79645389Y-94048037D01*
X79417903Y-94142265D01*
X79213172Y-94279062D01*
X79039062Y-94453172D01*
X78902265Y-94657903D01*
X78808037Y-94885389D01*
X78760000Y-95126886D01*
X78760000Y-95373114D01*
X78808037Y-95614611D01*
X78902265Y-95842097D01*
X79039062Y-96046828D01*
X79041821Y-96049587D01*
X79008153Y-96077218D01*
X78966446Y-96111446D01*
X78948441Y-96133386D01*
X78926791Y-96155036D01*
X78912356Y-96082466D01*
X78799283Y-95809483D01*
X78635126Y-95563806D01*
X78426194Y-95354874D01*
X78269240Y-95250000D01*
X78426194Y-95145126D01*
X78635126Y-94936194D01*
X78799283Y-94690517D01*
X78912356Y-94417534D01*
X78970000Y-94127737D01*
X78970000Y-93832263D01*
X78912356Y-93542466D01*
X78799283Y-93269483D01*
X78635126Y-93023806D01*
X78426194Y-92814874D01*
X78269240Y-92710000D01*
X78426194Y-92605126D01*
X78635126Y-92396194D01*
X78749515Y-92225000D01*
X78857904Y-92225000D01*
X78808037Y-92345389D01*
X78760000Y-92586886D01*
X78760000Y-92833114D01*
X78808037Y-93074611D01*
X78902265Y-93302097D01*
X79039062Y-93506828D01*
X79213172Y-93680938D01*
X79417903Y-93817735D01*
X79645389Y-93911963D01*
X79886886Y-93960000D01*
X80133114Y-93960000D01*
X80374611Y-93911963D01*
X80602097Y-93817735D01*
X80806828Y-93680938D01*
X80980938Y-93506828D01*
X81117735Y-93302097D01*
X81211963Y-93074611D01*
X81260000Y-92833114D01*
X81260000Y-92586886D01*
X81211963Y-92345389D01*
X81117735Y-92117903D01*
X80980938Y-91913172D01*
X80862970Y-91795204D01*
X82936612Y-89721563D01*
X82958554Y-89703556D01*
X82992782Y-89661849D01*
X83030408Y-89616001D01*
X83083801Y-89516110D01*
X83093155Y-89485274D01*
X83116680Y-89407722D01*
X83125000Y-89323248D01*
X83125000Y-89323246D01*
X83127782Y-89295003D01*
X83125000Y-89266760D01*
X83125000Y-88890820D01*
X83582770Y-88890820D01*
X83609940Y-89185043D01*
X83693988Y-89468311D01*
X83831684Y-89729740D01*
X83841884Y-89745005D01*
X84069036Y-89850253D01*
X85019289Y-88900000D01*
X85160711Y-88900000D01*
X86110964Y-89850253D01*
X86338116Y-89745005D01*
X86478985Y-89485274D01*
X86566478Y-89203050D01*
X86597230Y-88909180D01*
X86570060Y-88614957D01*
X86486012Y-88331689D01*
X86348316Y-88070260D01*
X86338116Y-88054995D01*
X86110964Y-87949747D01*
X85160711Y-88900000D01*
X85019289Y-88900000D01*
X84069036Y-87949747D01*
X83841884Y-88054995D01*
X83701015Y-88314726D01*
X83613522Y-88596950D01*
X83582770Y-88890820D01*
X83125000Y-88890820D01*
X83125000Y-87380964D01*
X84139747Y-87380964D01*
X84244995Y-87608116D01*
X84283915Y-87629225D01*
X84260260Y-87641684D01*
X84244995Y-87651884D01*
X84139747Y-87879036D01*
X85090000Y-88829289D01*
X86040253Y-87879036D01*
X85935005Y-87651884D01*
X85896085Y-87630775D01*
X85919740Y-87618316D01*
X85935005Y-87608116D01*
X86040253Y-87380964D01*
X85090000Y-86430711D01*
X84139747Y-87380964D01*
X83125000Y-87380964D01*
X83125000Y-85875000D01*
X83669929Y-85875000D01*
X83613522Y-86056950D01*
G37*
X83613522Y-86056950D02*
X83582770Y-86350820D01*
X83609940Y-86645043D01*
X83693988Y-86928311D01*
X83831684Y-87189740D01*
X83841884Y-87205005D01*
X84069036Y-87310253D01*
X85019289Y-86360000D01*
X85005147Y-86345858D01*
X85075858Y-86275147D01*
X85090000Y-86289289D01*
X85104142Y-86275147D01*
X85174853Y-86345858D01*
X85160711Y-86360000D01*
X86110964Y-87310253D01*
X86338116Y-87205005D01*
X86478985Y-86945274D01*
X86566478Y-86663050D01*
X86597230Y-86369180D01*
X86570060Y-86074957D01*
X86510731Y-85875000D01*
X92046827Y-85875000D01*
X94823439Y-88651612D01*
X94841446Y-88673554D01*
X94929002Y-88745408D01*
X95028892Y-88798801D01*
X95137280Y-88831680D01*
X95221754Y-88840000D01*
X95221757Y-88840000D01*
X95250000Y-88842782D01*
X95278243Y-88840000D01*
X95612868Y-88840000D01*
X96367868Y-89595000D01*
X88928243Y-89595000D01*
X88900000Y-89592218D01*
X88871757Y-89595000D01*
X88871754Y-89595000D01*
X88787280Y-89603320D01*
X88678892Y-89636199D01*
X88579002Y-89689592D01*
X88491446Y-89761446D01*
X88473440Y-89783387D01*
X86570362Y-91686466D01*
X86590000Y-91587737D01*
X86590000Y-91292263D01*
X86532356Y-91002466D01*
X86419283Y-90729483D01*
X86255126Y-90483806D01*
X86046194Y-90274874D01*
X85892906Y-90172450D01*
X85919740Y-90158316D01*
X85935005Y-90148116D01*
X86040253Y-89920964D01*
X85090000Y-88970711D01*
X84139747Y-89920964D01*
X84244995Y-90148116D01*
X84288334Y-90171621D01*
X84133806Y-90274874D01*
X83924874Y-90483806D01*
X83760717Y-90729483D01*
X83647644Y-91002466D01*
X83590000Y-91292263D01*
X83590000Y-91587737D01*
X83647644Y-91877534D01*
X83760717Y-92150517D01*
X83924874Y-92396194D01*
X84133806Y-92605126D01*
X84290760Y-92710000D01*
X84133806Y-92814874D01*
X83924874Y-93023806D01*
X83760717Y-93269483D01*
X83647644Y-93542466D01*
X83590000Y-93832263D01*
X83590000Y-94127737D01*
X83647644Y-94417534D01*
X83703777Y-94553051D01*
X83653392Y-94603436D01*
X83653387Y-94603440D01*
X82311828Y-95945000D01*
X81048977Y-95945000D01*
X81117735Y-95842097D01*
X81211963Y-95614611D01*
X81260000Y-95373114D01*
X81260000Y-95126886D01*
X81211963Y-94885389D01*
X81117735Y-94657903D01*
X80980938Y-94453172D01*
X80806828Y-94279062D01*
X80602097Y-94142265D01*
X80374611Y-94048037D01*
X80133114Y-94000000D01*
X79886886Y-94000000D01*
X79645389Y-94048037D01*
X79417903Y-94142265D01*
X79213172Y-94279062D01*
X79039062Y-94453172D01*
X78902265Y-94657903D01*
X78808037Y-94885389D01*
X78760000Y-95126886D01*
X78760000Y-95373114D01*
X78808037Y-95614611D01*
X78902265Y-95842097D01*
X79039062Y-96046828D01*
X79041821Y-96049587D01*
X79008153Y-96077218D01*
X78966446Y-96111446D01*
X78948441Y-96133386D01*
X78926791Y-96155036D01*
X78912356Y-96082466D01*
X78799283Y-95809483D01*
X78635126Y-95563806D01*
X78426194Y-95354874D01*
X78269240Y-95250000D01*
X78426194Y-95145126D01*
X78635126Y-94936194D01*
X78799283Y-94690517D01*
X78912356Y-94417534D01*
X78970000Y-94127737D01*
X78970000Y-93832263D01*
X78912356Y-93542466D01*
X78799283Y-93269483D01*
X78635126Y-93023806D01*
X78426194Y-92814874D01*
X78269240Y-92710000D01*
X78426194Y-92605126D01*
X78635126Y-92396194D01*
X78749515Y-92225000D01*
X78857904Y-92225000D01*
X78808037Y-92345389D01*
X78760000Y-92586886D01*
X78760000Y-92833114D01*
X78808037Y-93074611D01*
X78902265Y-93302097D01*
X79039062Y-93506828D01*
X79213172Y-93680938D01*
X79417903Y-93817735D01*
X79645389Y-93911963D01*
X79886886Y-93960000D01*
X80133114Y-93960000D01*
X80374611Y-93911963D01*
X80602097Y-93817735D01*
X80806828Y-93680938D01*
X80980938Y-93506828D01*
X81117735Y-93302097D01*
X81211963Y-93074611D01*
X81260000Y-92833114D01*
X81260000Y-92586886D01*
X81211963Y-92345389D01*
X81117735Y-92117903D01*
X80980938Y-91913172D01*
X80862970Y-91795204D01*
X82936612Y-89721563D01*
X82958554Y-89703556D01*
X82992782Y-89661849D01*
X83030408Y-89616001D01*
X83083801Y-89516110D01*
X83093155Y-89485274D01*
X83116680Y-89407722D01*
X83125000Y-89323248D01*
X83125000Y-89323246D01*
X83127782Y-89295003D01*
X83125000Y-89266760D01*
X83125000Y-88890820D01*
X83582770Y-88890820D01*
X83609940Y-89185043D01*
X83693988Y-89468311D01*
X83831684Y-89729740D01*
X83841884Y-89745005D01*
X84069036Y-89850253D01*
X85019289Y-88900000D01*
X85160711Y-88900000D01*
X86110964Y-89850253D01*
X86338116Y-89745005D01*
X86478985Y-89485274D01*
X86566478Y-89203050D01*
X86597230Y-88909180D01*
X86570060Y-88614957D01*
X86486012Y-88331689D01*
X86348316Y-88070260D01*
X86338116Y-88054995D01*
X86110964Y-87949747D01*
X85160711Y-88900000D01*
X85019289Y-88900000D01*
X84069036Y-87949747D01*
X83841884Y-88054995D01*
X83701015Y-88314726D01*
X83613522Y-88596950D01*
X83582770Y-88890820D01*
X83125000Y-88890820D01*
X83125000Y-87380964D01*
X84139747Y-87380964D01*
X84244995Y-87608116D01*
X84283915Y-87629225D01*
X84260260Y-87641684D01*
X84244995Y-87651884D01*
X84139747Y-87879036D01*
X85090000Y-88829289D01*
X86040253Y-87879036D01*
X85935005Y-87651884D01*
X85896085Y-87630775D01*
X85919740Y-87618316D01*
X85935005Y-87608116D01*
X86040253Y-87380964D01*
X85090000Y-86430711D01*
X84139747Y-87380964D01*
X83125000Y-87380964D01*
X83125000Y-85875000D01*
X83669929Y-85875000D01*
X83613522Y-86056950D01*
G36*
X59774853Y-85075858D02*
G01*
X59760711Y-85090000D01*
X59774853Y-85104142D01*
X59704142Y-85174853D01*
X59690000Y-85160711D01*
X59675858Y-85174853D01*
X59605147Y-85104142D01*
X59619289Y-85090000D01*
X59605147Y-85075858D01*
X59675858Y-85005147D01*
X59690000Y-85019289D01*
X59704142Y-85005147D01*
X59774853Y-85075858D01*
G37*
X59774853Y-85075858D02*
X59760711Y-85090000D01*
X59774853Y-85104142D01*
X59704142Y-85174853D01*
X59690000Y-85160711D01*
X59675858Y-85174853D01*
X59605147Y-85104142D01*
X59619289Y-85090000D01*
X59605147Y-85075858D01*
X59675858Y-85005147D01*
X59690000Y-85019289D01*
X59704142Y-85005147D01*
X59774853Y-85075858D01*
M02*
