G04 #@! TF.GenerationSoftware,KiCad,Pcbnew,5.1.5+dfsg1-2build2*
G04 #@! TF.CreationDate,2021-03-15T22:18:43+01:00*
G04 #@! TF.ProjectId,ProMicro_ADAPT,50726f4d-6963-4726-9f5f-41444150542e,v1.0*
G04 #@! TF.SameCoordinates,Original*
G04 #@! TF.FileFunction,Legend,Top*
G04 #@! TF.FilePolarity,Positive*
%FSLAX46Y46*%
G04 Gerber Fmt 4.6, Leading zero omitted, Abs format (unit mm)*
G04 Created by KiCad*
%MOMM*%
%LPD*%
G04 APERTURE LIST*
%ADD10C,0.120000*%
%ADD11C,0.010000*%
%ADD12C,0.150000*%
G04 APERTURE END LIST*
D10*
X124590000Y-110240000D02*
X127130000Y-107700000D01*
X124590000Y-121670000D02*
X124590000Y-110240000D01*
X122940000Y-123320000D02*
X124590000Y-121670000D01*
X58290000Y-123320000D02*
X122940000Y-123320000D01*
X58290000Y-113790000D02*
X58290000Y-123320000D01*
X51940000Y-113790000D02*
X58290000Y-113790000D01*
X51940000Y-102110000D02*
X51940000Y-113790000D01*
X58290000Y-102110000D02*
X51940000Y-102110000D01*
X58290000Y-82040000D02*
X58290000Y-102110000D01*
X56390000Y-82040000D02*
X58290000Y-82040000D01*
X56390000Y-72900000D02*
X56390000Y-82040000D01*
X58290000Y-72900000D02*
X56390000Y-72900000D01*
X58290000Y-69720000D02*
X58290000Y-72900000D01*
X124590000Y-69720000D02*
X58290000Y-69720000D01*
X124590000Y-72390000D02*
X124590000Y-69720000D01*
X127130000Y-74930000D02*
X124590000Y-72390000D01*
X127130000Y-107700000D02*
X127130000Y-74930000D01*
X111700000Y-110550000D02*
X111700000Y-109220000D01*
X113030000Y-110550000D02*
X111700000Y-110550000D01*
X114300000Y-110550000D02*
X114300000Y-107890000D01*
X114300000Y-107890000D02*
X116900000Y-107890000D01*
X114300000Y-110550000D02*
X116900000Y-110550000D01*
X116900000Y-110550000D02*
X116900000Y-107890000D01*
X99120000Y-94040000D02*
X97790000Y-94040000D01*
X99120000Y-92710000D02*
X99120000Y-94040000D01*
X99120000Y-91440000D02*
X96460000Y-91440000D01*
X96460000Y-91440000D02*
X96460000Y-88840000D01*
X99120000Y-91440000D02*
X99120000Y-88840000D01*
X99120000Y-88840000D02*
X96460000Y-88840000D01*
X106550000Y-82550000D02*
X106550000Y-110490000D01*
X121920000Y-80010000D02*
X121920000Y-110490000D01*
X109220000Y-82550000D02*
X106550000Y-82550000D01*
X109220000Y-80010000D02*
X109220000Y-110490000D01*
X106550000Y-110490000D02*
X124590000Y-110490000D01*
X124590000Y-110490000D02*
X124590000Y-80010000D01*
X124590000Y-80010000D02*
X109220000Y-80010000D01*
X83690000Y-82550000D02*
X83690000Y-110490000D01*
X99060000Y-80010000D02*
X99060000Y-110490000D01*
X86360000Y-82550000D02*
X83690000Y-82550000D01*
X86360000Y-80010000D02*
X86360000Y-110490000D01*
X83690000Y-110490000D02*
X101730000Y-110490000D01*
X101730000Y-110490000D02*
X101730000Y-80010000D01*
X101730000Y-80010000D02*
X86360000Y-80010000D01*
X60830000Y-82550000D02*
X60830000Y-110490000D01*
X76200000Y-80010000D02*
X76200000Y-110490000D01*
X63500000Y-82550000D02*
X60830000Y-82550000D01*
X63500000Y-80010000D02*
X63500000Y-110490000D01*
X60830000Y-110490000D02*
X78870000Y-110490000D01*
X78870000Y-110490000D02*
X78870000Y-80010000D01*
X78870000Y-80010000D02*
X63500000Y-80010000D01*
X77835000Y-115505000D02*
X77835000Y-116905000D01*
X77135000Y-117605000D02*
X76535000Y-117605000D01*
X75835000Y-116905000D02*
X75835000Y-115505000D01*
X76535000Y-114805000D02*
X77135000Y-114805000D01*
X77135000Y-114805000D02*
G75*
G02X77835000Y-115505000I0J-700000D01*
G01*
X75835000Y-115505000D02*
G75*
G02X76535000Y-114805000I700000J0D01*
G01*
X76535000Y-117605000D02*
G75*
G02X75835000Y-116905000I0J700000D01*
G01*
X77835000Y-116905000D02*
G75*
G02X77135000Y-117605000I-700000J0D01*
G01*
X111460000Y-118255000D02*
G75*
G02X110760000Y-117555000I0J700000D01*
G01*
X112760000Y-117555000D02*
G75*
G02X112060000Y-118255000I-700000J0D01*
G01*
X112060000Y-114155000D02*
G75*
G02X112760000Y-114855000I0J-700000D01*
G01*
X110760000Y-114855000D02*
G75*
G02X111460000Y-114155000I700000J0D01*
G01*
X110760000Y-117605000D02*
X110760000Y-114805000D01*
X111460000Y-114155000D02*
X112060000Y-114155000D01*
X112760000Y-114805000D02*
X112760000Y-117605000D01*
X112060000Y-118255000D02*
X111460000Y-118255000D01*
X112960000Y-117405000D02*
X113260000Y-117705000D01*
X113260000Y-117705000D02*
X113260000Y-117105000D01*
X112960000Y-117405000D02*
X113260000Y-117105000D01*
X120920000Y-77535000D02*
X120920000Y-76135000D01*
X121620000Y-75435000D02*
X122220000Y-75435000D01*
X122920000Y-76135000D02*
X122920000Y-77535000D01*
X122220000Y-78235000D02*
X121620000Y-78235000D01*
X121620000Y-78235000D02*
G75*
G02X120920000Y-77535000I0J700000D01*
G01*
X122920000Y-77535000D02*
G75*
G02X122220000Y-78235000I-700000J0D01*
G01*
X122220000Y-75435000D02*
G75*
G02X122920000Y-76135000I0J-700000D01*
G01*
X120920000Y-76135000D02*
G75*
G02X121620000Y-75435000I700000J0D01*
G01*
X94280000Y-74785000D02*
G75*
G02X94980000Y-75485000I0J-700000D01*
G01*
X92980000Y-75485000D02*
G75*
G02X93680000Y-74785000I700000J0D01*
G01*
X93680000Y-78885000D02*
G75*
G02X92980000Y-78185000I0J700000D01*
G01*
X94980000Y-78185000D02*
G75*
G02X94280000Y-78885000I-700000J0D01*
G01*
X94980000Y-75435000D02*
X94980000Y-78235000D01*
X94280000Y-78885000D02*
X93680000Y-78885000D01*
X92980000Y-78235000D02*
X92980000Y-75435000D01*
X93680000Y-74785000D02*
X94280000Y-74785000D01*
X92780000Y-75635000D02*
X92480000Y-75335000D01*
X92480000Y-75335000D02*
X92480000Y-75935000D01*
X92780000Y-75635000D02*
X92480000Y-75935000D01*
X120920000Y-116905000D02*
X120920000Y-115505000D01*
X121620000Y-114805000D02*
X122220000Y-114805000D01*
X122920000Y-115505000D02*
X122920000Y-116905000D01*
X122220000Y-117605000D02*
X121620000Y-117605000D01*
X121620000Y-117605000D02*
G75*
G02X120920000Y-116905000I0J700000D01*
G01*
X122920000Y-116905000D02*
G75*
G02X122220000Y-117605000I-700000J0D01*
G01*
X122220000Y-114805000D02*
G75*
G02X122920000Y-115505000I0J-700000D01*
G01*
X120920000Y-115505000D02*
G75*
G02X121620000Y-114805000I700000J0D01*
G01*
X118380000Y-116905000D02*
X118380000Y-115505000D01*
X119080000Y-114805000D02*
X119680000Y-114805000D01*
X120380000Y-115505000D02*
X120380000Y-116905000D01*
X119680000Y-117605000D02*
X119080000Y-117605000D01*
X119080000Y-117605000D02*
G75*
G02X118380000Y-116905000I0J700000D01*
G01*
X120380000Y-116905000D02*
G75*
G02X119680000Y-117605000I-700000J0D01*
G01*
X119680000Y-114805000D02*
G75*
G02X120380000Y-115505000I0J-700000D01*
G01*
X118380000Y-115505000D02*
G75*
G02X119080000Y-114805000I700000J0D01*
G01*
X73600000Y-101540000D02*
X74930000Y-101540000D01*
X73600000Y-102870000D02*
X73600000Y-101540000D01*
X73600000Y-104140000D02*
X76260000Y-104140000D01*
X76260000Y-104140000D02*
X76260000Y-104200000D01*
X73600000Y-104140000D02*
X73600000Y-104200000D01*
X73600000Y-104200000D02*
X76260000Y-104200000D01*
X119320000Y-101540000D02*
X120650000Y-101540000D01*
X119320000Y-102870000D02*
X119320000Y-101540000D01*
X119320000Y-104140000D02*
X121980000Y-104140000D01*
X121980000Y-104140000D02*
X121980000Y-104200000D01*
X119320000Y-104140000D02*
X119320000Y-104200000D01*
X119320000Y-104200000D02*
X121980000Y-104200000D01*
X96460000Y-101540000D02*
X97790000Y-101540000D01*
X96460000Y-102870000D02*
X96460000Y-101540000D01*
X96460000Y-104140000D02*
X99120000Y-104140000D01*
X99120000Y-104140000D02*
X99120000Y-104200000D01*
X96460000Y-104140000D02*
X96460000Y-104200000D01*
X96460000Y-104200000D02*
X99120000Y-104200000D01*
X60960000Y-122047000D02*
X78740000Y-122047000D01*
X60960000Y-70993000D02*
X78740000Y-70993000D01*
X58293000Y-119380000D02*
X58293000Y-73660000D01*
X81407000Y-119380000D02*
X81407000Y-73660000D01*
X60960000Y-122047000D02*
G75*
G02X58293000Y-119380000I0J2667000D01*
G01*
X81407000Y-119380000D02*
G75*
G02X78740000Y-122047000I-2667000J0D01*
G01*
X58293000Y-73660000D02*
G75*
G02X60960000Y-70993000I2667000J0D01*
G01*
X78740000Y-70993000D02*
G75*
G02X81407000Y-73660000I0J-2667000D01*
G01*
D11*
G36*
X93265814Y-85733931D02*
G01*
X93349635Y-86178555D01*
X93658920Y-86306053D01*
X93968206Y-86433551D01*
X94339246Y-86181246D01*
X94443157Y-86110996D01*
X94537087Y-86048272D01*
X94616652Y-85995938D01*
X94677470Y-85956857D01*
X94715157Y-85933893D01*
X94725421Y-85928942D01*
X94743910Y-85941676D01*
X94783420Y-85976882D01*
X94839522Y-86030062D01*
X94907787Y-86096718D01*
X94983786Y-86172354D01*
X95063092Y-86252472D01*
X95141275Y-86332574D01*
X95213907Y-86408164D01*
X95276559Y-86474745D01*
X95324803Y-86527818D01*
X95354210Y-86562887D01*
X95361241Y-86574623D01*
X95351123Y-86596260D01*
X95322759Y-86643662D01*
X95279129Y-86712193D01*
X95223218Y-86797215D01*
X95158006Y-86894093D01*
X95120219Y-86949350D01*
X95051343Y-87050248D01*
X94990140Y-87141299D01*
X94939578Y-87217970D01*
X94902628Y-87275728D01*
X94882258Y-87310043D01*
X94879197Y-87317254D01*
X94886136Y-87337748D01*
X94905051Y-87385513D01*
X94933087Y-87453832D01*
X94967391Y-87535989D01*
X95005109Y-87625270D01*
X95043387Y-87714958D01*
X95079370Y-87798338D01*
X95110206Y-87868694D01*
X95133039Y-87919310D01*
X95145017Y-87943471D01*
X95145724Y-87944422D01*
X95164531Y-87949036D01*
X95214618Y-87959328D01*
X95290793Y-87974287D01*
X95387865Y-87992901D01*
X95500643Y-88014159D01*
X95566442Y-88026418D01*
X95686950Y-88049362D01*
X95795797Y-88071195D01*
X95887476Y-88090722D01*
X95956481Y-88106748D01*
X95997304Y-88118079D01*
X96005511Y-88121674D01*
X96013548Y-88146006D01*
X96020033Y-88200959D01*
X96024970Y-88280108D01*
X96028364Y-88377026D01*
X96030218Y-88485287D01*
X96030538Y-88598465D01*
X96029327Y-88710135D01*
X96026590Y-88813868D01*
X96022331Y-88903241D01*
X96016555Y-88971826D01*
X96009267Y-89013197D01*
X96004895Y-89021810D01*
X95978764Y-89032133D01*
X95923393Y-89046892D01*
X95846107Y-89064352D01*
X95754230Y-89082780D01*
X95722158Y-89088741D01*
X95567524Y-89117066D01*
X95445375Y-89139876D01*
X95351673Y-89158080D01*
X95282384Y-89172583D01*
X95233471Y-89184292D01*
X95200897Y-89194115D01*
X95180628Y-89202956D01*
X95168626Y-89211724D01*
X95166947Y-89213457D01*
X95150184Y-89241371D01*
X95124614Y-89295695D01*
X95092788Y-89369777D01*
X95057260Y-89456965D01*
X95020583Y-89550608D01*
X94985311Y-89644052D01*
X94953996Y-89730647D01*
X94929193Y-89803740D01*
X94913454Y-89856678D01*
X94909332Y-89882811D01*
X94909676Y-89883726D01*
X94923641Y-89905086D01*
X94955322Y-89952084D01*
X95001391Y-90019827D01*
X95058518Y-90103423D01*
X95123373Y-90197982D01*
X95141843Y-90224854D01*
X95207699Y-90322275D01*
X95265650Y-90411163D01*
X95312538Y-90486412D01*
X95345207Y-90542920D01*
X95360500Y-90575581D01*
X95361241Y-90579593D01*
X95348392Y-90600684D01*
X95312888Y-90642464D01*
X95259293Y-90700445D01*
X95192171Y-90770135D01*
X95116087Y-90847045D01*
X95035604Y-90926683D01*
X94955287Y-91004561D01*
X94879699Y-91076186D01*
X94813405Y-91137070D01*
X94760969Y-91182721D01*
X94726955Y-91208650D01*
X94717545Y-91212883D01*
X94695643Y-91202912D01*
X94650800Y-91176020D01*
X94590321Y-91136736D01*
X94543789Y-91105117D01*
X94459475Y-91047098D01*
X94359626Y-90978784D01*
X94259473Y-90910579D01*
X94205627Y-90874075D01*
X94023371Y-90750800D01*
X93870381Y-90833520D01*
X93800682Y-90869759D01*
X93741414Y-90897926D01*
X93701311Y-90913991D01*
X93691103Y-90916226D01*
X93678829Y-90899722D01*
X93654613Y-90853082D01*
X93620263Y-90780609D01*
X93577588Y-90686606D01*
X93528394Y-90575374D01*
X93474490Y-90451215D01*
X93417684Y-90318432D01*
X93359782Y-90181327D01*
X93302593Y-90044202D01*
X93247924Y-89911358D01*
X93197584Y-89787098D01*
X93153380Y-89675725D01*
X93117119Y-89581539D01*
X93090609Y-89508844D01*
X93075658Y-89461941D01*
X93073254Y-89445833D01*
X93092311Y-89425286D01*
X93134036Y-89391933D01*
X93189706Y-89352702D01*
X93194378Y-89349599D01*
X93338264Y-89234423D01*
X93454283Y-89100053D01*
X93541430Y-88950784D01*
X93598699Y-88790913D01*
X93625086Y-88624737D01*
X93619585Y-88456552D01*
X93581190Y-88290655D01*
X93508895Y-88131342D01*
X93487626Y-88096487D01*
X93376996Y-87955737D01*
X93246302Y-87842714D01*
X93100064Y-87758003D01*
X92942808Y-87702194D01*
X92779057Y-87675874D01*
X92613333Y-87679630D01*
X92450162Y-87714050D01*
X92294065Y-87779723D01*
X92149567Y-87877235D01*
X92104869Y-87916813D01*
X91991112Y-88040703D01*
X91908218Y-88171124D01*
X91851356Y-88317315D01*
X91819687Y-88462088D01*
X91811869Y-88624860D01*
X91837938Y-88788440D01*
X91895245Y-88947298D01*
X91981144Y-89095906D01*
X92092986Y-89228735D01*
X92228123Y-89340256D01*
X92245883Y-89352011D01*
X92302150Y-89390508D01*
X92344923Y-89423863D01*
X92365372Y-89445160D01*
X92365669Y-89445833D01*
X92361279Y-89468871D01*
X92343876Y-89521157D01*
X92315268Y-89598390D01*
X92277265Y-89696268D01*
X92231674Y-89810491D01*
X92180303Y-89936758D01*
X92124962Y-90070767D01*
X92067458Y-90208218D01*
X92009601Y-90344808D01*
X91953198Y-90476237D01*
X91900058Y-90598205D01*
X91851990Y-90706409D01*
X91810801Y-90796549D01*
X91778301Y-90864323D01*
X91756297Y-90905430D01*
X91747436Y-90916226D01*
X91720360Y-90907819D01*
X91669697Y-90885272D01*
X91604183Y-90852613D01*
X91568159Y-90833520D01*
X91415168Y-90750800D01*
X91232912Y-90874075D01*
X91139875Y-90937228D01*
X91038015Y-91006727D01*
X90942562Y-91072165D01*
X90894750Y-91105117D01*
X90827505Y-91150273D01*
X90770564Y-91186057D01*
X90731354Y-91207938D01*
X90718619Y-91212563D01*
X90700083Y-91200085D01*
X90659059Y-91165252D01*
X90599525Y-91111678D01*
X90525458Y-91042983D01*
X90440835Y-90962781D01*
X90387315Y-90911286D01*
X90293681Y-90819286D01*
X90212759Y-90736999D01*
X90147823Y-90667945D01*
X90102142Y-90615644D01*
X90078989Y-90583616D01*
X90076768Y-90577116D01*
X90087076Y-90552394D01*
X90115561Y-90502405D01*
X90159063Y-90432212D01*
X90214423Y-90346875D01*
X90278480Y-90251456D01*
X90296697Y-90224854D01*
X90363073Y-90128167D01*
X90422622Y-90041117D01*
X90472016Y-89968595D01*
X90507925Y-89915493D01*
X90527019Y-89886703D01*
X90528864Y-89883726D01*
X90526105Y-89860782D01*
X90511462Y-89810336D01*
X90487487Y-89739041D01*
X90456734Y-89653547D01*
X90421756Y-89560507D01*
X90385107Y-89466574D01*
X90349339Y-89378399D01*
X90317006Y-89302634D01*
X90290662Y-89245931D01*
X90272858Y-89214943D01*
X90271593Y-89213457D01*
X90260706Y-89204601D01*
X90242318Y-89195843D01*
X90212394Y-89186277D01*
X90166897Y-89174996D01*
X90101791Y-89161093D01*
X90013039Y-89143663D01*
X89896607Y-89121798D01*
X89748458Y-89094591D01*
X89716382Y-89088741D01*
X89621314Y-89070374D01*
X89538435Y-89052405D01*
X89475070Y-89036569D01*
X89438542Y-89024600D01*
X89433644Y-89021810D01*
X89425573Y-88997072D01*
X89419013Y-88941790D01*
X89413967Y-88862389D01*
X89410441Y-88765296D01*
X89408439Y-88656938D01*
X89407964Y-88543740D01*
X89409023Y-88432128D01*
X89411618Y-88328529D01*
X89415754Y-88239368D01*
X89421437Y-88171072D01*
X89428669Y-88130066D01*
X89433029Y-88121674D01*
X89457302Y-88113208D01*
X89512574Y-88099435D01*
X89593338Y-88081550D01*
X89694088Y-88060748D01*
X89809317Y-88038223D01*
X89872098Y-88026418D01*
X89991213Y-88004151D01*
X90097435Y-87983979D01*
X90185573Y-87966915D01*
X90250434Y-87953969D01*
X90286826Y-87946155D01*
X90292816Y-87944422D01*
X90302939Y-87924890D01*
X90324338Y-87877843D01*
X90354161Y-87810003D01*
X90389555Y-87728091D01*
X90427668Y-87638828D01*
X90465647Y-87548935D01*
X90500640Y-87465135D01*
X90529794Y-87394147D01*
X90550257Y-87342694D01*
X90559177Y-87317497D01*
X90559343Y-87316396D01*
X90549231Y-87296519D01*
X90520883Y-87250777D01*
X90477277Y-87183717D01*
X90421394Y-87099884D01*
X90356213Y-87003826D01*
X90318321Y-86948650D01*
X90249275Y-86847481D01*
X90187950Y-86755630D01*
X90137337Y-86677744D01*
X90100429Y-86618469D01*
X90080218Y-86582451D01*
X90077299Y-86574377D01*
X90089847Y-86555584D01*
X90124537Y-86515457D01*
X90176937Y-86458493D01*
X90242616Y-86389185D01*
X90317144Y-86312031D01*
X90396087Y-86231525D01*
X90475017Y-86152163D01*
X90549500Y-86078440D01*
X90615106Y-86014852D01*
X90667404Y-85965894D01*
X90701961Y-85936061D01*
X90713522Y-85928942D01*
X90732346Y-85938953D01*
X90777369Y-85967078D01*
X90844213Y-86010454D01*
X90928501Y-86066218D01*
X91025856Y-86131506D01*
X91099293Y-86181246D01*
X91470333Y-86433551D01*
X92088905Y-86178555D01*
X92172725Y-85733931D01*
X92256546Y-85289307D01*
X93181994Y-85289307D01*
X93265814Y-85733931D01*
G37*
X93265814Y-85733931D02*
X93349635Y-86178555D01*
X93658920Y-86306053D01*
X93968206Y-86433551D01*
X94339246Y-86181246D01*
X94443157Y-86110996D01*
X94537087Y-86048272D01*
X94616652Y-85995938D01*
X94677470Y-85956857D01*
X94715157Y-85933893D01*
X94725421Y-85928942D01*
X94743910Y-85941676D01*
X94783420Y-85976882D01*
X94839522Y-86030062D01*
X94907787Y-86096718D01*
X94983786Y-86172354D01*
X95063092Y-86252472D01*
X95141275Y-86332574D01*
X95213907Y-86408164D01*
X95276559Y-86474745D01*
X95324803Y-86527818D01*
X95354210Y-86562887D01*
X95361241Y-86574623D01*
X95351123Y-86596260D01*
X95322759Y-86643662D01*
X95279129Y-86712193D01*
X95223218Y-86797215D01*
X95158006Y-86894093D01*
X95120219Y-86949350D01*
X95051343Y-87050248D01*
X94990140Y-87141299D01*
X94939578Y-87217970D01*
X94902628Y-87275728D01*
X94882258Y-87310043D01*
X94879197Y-87317254D01*
X94886136Y-87337748D01*
X94905051Y-87385513D01*
X94933087Y-87453832D01*
X94967391Y-87535989D01*
X95005109Y-87625270D01*
X95043387Y-87714958D01*
X95079370Y-87798338D01*
X95110206Y-87868694D01*
X95133039Y-87919310D01*
X95145017Y-87943471D01*
X95145724Y-87944422D01*
X95164531Y-87949036D01*
X95214618Y-87959328D01*
X95290793Y-87974287D01*
X95387865Y-87992901D01*
X95500643Y-88014159D01*
X95566442Y-88026418D01*
X95686950Y-88049362D01*
X95795797Y-88071195D01*
X95887476Y-88090722D01*
X95956481Y-88106748D01*
X95997304Y-88118079D01*
X96005511Y-88121674D01*
X96013548Y-88146006D01*
X96020033Y-88200959D01*
X96024970Y-88280108D01*
X96028364Y-88377026D01*
X96030218Y-88485287D01*
X96030538Y-88598465D01*
X96029327Y-88710135D01*
X96026590Y-88813868D01*
X96022331Y-88903241D01*
X96016555Y-88971826D01*
X96009267Y-89013197D01*
X96004895Y-89021810D01*
X95978764Y-89032133D01*
X95923393Y-89046892D01*
X95846107Y-89064352D01*
X95754230Y-89082780D01*
X95722158Y-89088741D01*
X95567524Y-89117066D01*
X95445375Y-89139876D01*
X95351673Y-89158080D01*
X95282384Y-89172583D01*
X95233471Y-89184292D01*
X95200897Y-89194115D01*
X95180628Y-89202956D01*
X95168626Y-89211724D01*
X95166947Y-89213457D01*
X95150184Y-89241371D01*
X95124614Y-89295695D01*
X95092788Y-89369777D01*
X95057260Y-89456965D01*
X95020583Y-89550608D01*
X94985311Y-89644052D01*
X94953996Y-89730647D01*
X94929193Y-89803740D01*
X94913454Y-89856678D01*
X94909332Y-89882811D01*
X94909676Y-89883726D01*
X94923641Y-89905086D01*
X94955322Y-89952084D01*
X95001391Y-90019827D01*
X95058518Y-90103423D01*
X95123373Y-90197982D01*
X95141843Y-90224854D01*
X95207699Y-90322275D01*
X95265650Y-90411163D01*
X95312538Y-90486412D01*
X95345207Y-90542920D01*
X95360500Y-90575581D01*
X95361241Y-90579593D01*
X95348392Y-90600684D01*
X95312888Y-90642464D01*
X95259293Y-90700445D01*
X95192171Y-90770135D01*
X95116087Y-90847045D01*
X95035604Y-90926683D01*
X94955287Y-91004561D01*
X94879699Y-91076186D01*
X94813405Y-91137070D01*
X94760969Y-91182721D01*
X94726955Y-91208650D01*
X94717545Y-91212883D01*
X94695643Y-91202912D01*
X94650800Y-91176020D01*
X94590321Y-91136736D01*
X94543789Y-91105117D01*
X94459475Y-91047098D01*
X94359626Y-90978784D01*
X94259473Y-90910579D01*
X94205627Y-90874075D01*
X94023371Y-90750800D01*
X93870381Y-90833520D01*
X93800682Y-90869759D01*
X93741414Y-90897926D01*
X93701311Y-90913991D01*
X93691103Y-90916226D01*
X93678829Y-90899722D01*
X93654613Y-90853082D01*
X93620263Y-90780609D01*
X93577588Y-90686606D01*
X93528394Y-90575374D01*
X93474490Y-90451215D01*
X93417684Y-90318432D01*
X93359782Y-90181327D01*
X93302593Y-90044202D01*
X93247924Y-89911358D01*
X93197584Y-89787098D01*
X93153380Y-89675725D01*
X93117119Y-89581539D01*
X93090609Y-89508844D01*
X93075658Y-89461941D01*
X93073254Y-89445833D01*
X93092311Y-89425286D01*
X93134036Y-89391933D01*
X93189706Y-89352702D01*
X93194378Y-89349599D01*
X93338264Y-89234423D01*
X93454283Y-89100053D01*
X93541430Y-88950784D01*
X93598699Y-88790913D01*
X93625086Y-88624737D01*
X93619585Y-88456552D01*
X93581190Y-88290655D01*
X93508895Y-88131342D01*
X93487626Y-88096487D01*
X93376996Y-87955737D01*
X93246302Y-87842714D01*
X93100064Y-87758003D01*
X92942808Y-87702194D01*
X92779057Y-87675874D01*
X92613333Y-87679630D01*
X92450162Y-87714050D01*
X92294065Y-87779723D01*
X92149567Y-87877235D01*
X92104869Y-87916813D01*
X91991112Y-88040703D01*
X91908218Y-88171124D01*
X91851356Y-88317315D01*
X91819687Y-88462088D01*
X91811869Y-88624860D01*
X91837938Y-88788440D01*
X91895245Y-88947298D01*
X91981144Y-89095906D01*
X92092986Y-89228735D01*
X92228123Y-89340256D01*
X92245883Y-89352011D01*
X92302150Y-89390508D01*
X92344923Y-89423863D01*
X92365372Y-89445160D01*
X92365669Y-89445833D01*
X92361279Y-89468871D01*
X92343876Y-89521157D01*
X92315268Y-89598390D01*
X92277265Y-89696268D01*
X92231674Y-89810491D01*
X92180303Y-89936758D01*
X92124962Y-90070767D01*
X92067458Y-90208218D01*
X92009601Y-90344808D01*
X91953198Y-90476237D01*
X91900058Y-90598205D01*
X91851990Y-90706409D01*
X91810801Y-90796549D01*
X91778301Y-90864323D01*
X91756297Y-90905430D01*
X91747436Y-90916226D01*
X91720360Y-90907819D01*
X91669697Y-90885272D01*
X91604183Y-90852613D01*
X91568159Y-90833520D01*
X91415168Y-90750800D01*
X91232912Y-90874075D01*
X91139875Y-90937228D01*
X91038015Y-91006727D01*
X90942562Y-91072165D01*
X90894750Y-91105117D01*
X90827505Y-91150273D01*
X90770564Y-91186057D01*
X90731354Y-91207938D01*
X90718619Y-91212563D01*
X90700083Y-91200085D01*
X90659059Y-91165252D01*
X90599525Y-91111678D01*
X90525458Y-91042983D01*
X90440835Y-90962781D01*
X90387315Y-90911286D01*
X90293681Y-90819286D01*
X90212759Y-90736999D01*
X90147823Y-90667945D01*
X90102142Y-90615644D01*
X90078989Y-90583616D01*
X90076768Y-90577116D01*
X90087076Y-90552394D01*
X90115561Y-90502405D01*
X90159063Y-90432212D01*
X90214423Y-90346875D01*
X90278480Y-90251456D01*
X90296697Y-90224854D01*
X90363073Y-90128167D01*
X90422622Y-90041117D01*
X90472016Y-89968595D01*
X90507925Y-89915493D01*
X90527019Y-89886703D01*
X90528864Y-89883726D01*
X90526105Y-89860782D01*
X90511462Y-89810336D01*
X90487487Y-89739041D01*
X90456734Y-89653547D01*
X90421756Y-89560507D01*
X90385107Y-89466574D01*
X90349339Y-89378399D01*
X90317006Y-89302634D01*
X90290662Y-89245931D01*
X90272858Y-89214943D01*
X90271593Y-89213457D01*
X90260706Y-89204601D01*
X90242318Y-89195843D01*
X90212394Y-89186277D01*
X90166897Y-89174996D01*
X90101791Y-89161093D01*
X90013039Y-89143663D01*
X89896607Y-89121798D01*
X89748458Y-89094591D01*
X89716382Y-89088741D01*
X89621314Y-89070374D01*
X89538435Y-89052405D01*
X89475070Y-89036569D01*
X89438542Y-89024600D01*
X89433644Y-89021810D01*
X89425573Y-88997072D01*
X89419013Y-88941790D01*
X89413967Y-88862389D01*
X89410441Y-88765296D01*
X89408439Y-88656938D01*
X89407964Y-88543740D01*
X89409023Y-88432128D01*
X89411618Y-88328529D01*
X89415754Y-88239368D01*
X89421437Y-88171072D01*
X89428669Y-88130066D01*
X89433029Y-88121674D01*
X89457302Y-88113208D01*
X89512574Y-88099435D01*
X89593338Y-88081550D01*
X89694088Y-88060748D01*
X89809317Y-88038223D01*
X89872098Y-88026418D01*
X89991213Y-88004151D01*
X90097435Y-87983979D01*
X90185573Y-87966915D01*
X90250434Y-87953969D01*
X90286826Y-87946155D01*
X90292816Y-87944422D01*
X90302939Y-87924890D01*
X90324338Y-87877843D01*
X90354161Y-87810003D01*
X90389555Y-87728091D01*
X90427668Y-87638828D01*
X90465647Y-87548935D01*
X90500640Y-87465135D01*
X90529794Y-87394147D01*
X90550257Y-87342694D01*
X90559177Y-87317497D01*
X90559343Y-87316396D01*
X90549231Y-87296519D01*
X90520883Y-87250777D01*
X90477277Y-87183717D01*
X90421394Y-87099884D01*
X90356213Y-87003826D01*
X90318321Y-86948650D01*
X90249275Y-86847481D01*
X90187950Y-86755630D01*
X90137337Y-86677744D01*
X90100429Y-86618469D01*
X90080218Y-86582451D01*
X90077299Y-86574377D01*
X90089847Y-86555584D01*
X90124537Y-86515457D01*
X90176937Y-86458493D01*
X90242616Y-86389185D01*
X90317144Y-86312031D01*
X90396087Y-86231525D01*
X90475017Y-86152163D01*
X90549500Y-86078440D01*
X90615106Y-86014852D01*
X90667404Y-85965894D01*
X90701961Y-85936061D01*
X90713522Y-85928942D01*
X90732346Y-85938953D01*
X90777369Y-85967078D01*
X90844213Y-86010454D01*
X90928501Y-86066218D01*
X91025856Y-86131506D01*
X91099293Y-86181246D01*
X91470333Y-86433551D01*
X92088905Y-86178555D01*
X92172725Y-85733931D01*
X92256546Y-85289307D01*
X93181994Y-85289307D01*
X93265814Y-85733931D01*
D12*
X82470714Y-72556666D02*
X82946904Y-72556666D01*
X82375476Y-72842380D02*
X82708809Y-71842380D01*
X83042142Y-72842380D01*
X83899285Y-72842380D02*
X83327857Y-72842380D01*
X83613571Y-72842380D02*
X83613571Y-71842380D01*
X83518333Y-71985238D01*
X83423095Y-72080476D01*
X83327857Y-72128095D01*
X110366666Y-108672380D02*
X110366666Y-109386666D01*
X110319047Y-109529523D01*
X110223809Y-109624761D01*
X110080952Y-109672380D01*
X109985714Y-109672380D01*
X111319047Y-108672380D02*
X110842857Y-108672380D01*
X110795238Y-109148571D01*
X110842857Y-109100952D01*
X110938095Y-109053333D01*
X111176190Y-109053333D01*
X111271428Y-109100952D01*
X111319047Y-109148571D01*
X111366666Y-109243809D01*
X111366666Y-109481904D01*
X111319047Y-109577142D01*
X111271428Y-109624761D01*
X111176190Y-109672380D01*
X110938095Y-109672380D01*
X110842857Y-109624761D01*
X110795238Y-109577142D01*
X97456666Y-94492380D02*
X97456666Y-95206666D01*
X97409047Y-95349523D01*
X97313809Y-95444761D01*
X97170952Y-95492380D01*
X97075714Y-95492380D01*
X98361428Y-94825714D02*
X98361428Y-95492380D01*
X98123333Y-94444761D02*
X97885238Y-95159047D01*
X98504285Y-95159047D01*
X114855714Y-81446666D02*
X115331904Y-81446666D01*
X114760476Y-81732380D02*
X115093809Y-80732380D01*
X115427142Y-81732380D01*
X116236666Y-80732380D02*
X115760476Y-80732380D01*
X115712857Y-81208571D01*
X115760476Y-81160952D01*
X115855714Y-81113333D01*
X116093809Y-81113333D01*
X116189047Y-81160952D01*
X116236666Y-81208571D01*
X116284285Y-81303809D01*
X116284285Y-81541904D01*
X116236666Y-81637142D01*
X116189047Y-81684761D01*
X116093809Y-81732380D01*
X115855714Y-81732380D01*
X115760476Y-81684761D01*
X115712857Y-81637142D01*
X91995714Y-81446666D02*
X92471904Y-81446666D01*
X91900476Y-81732380D02*
X92233809Y-80732380D01*
X92567142Y-81732380D01*
X93329047Y-81065714D02*
X93329047Y-81732380D01*
X93090952Y-80684761D02*
X92852857Y-81399047D01*
X93471904Y-81399047D01*
X69135714Y-81446666D02*
X69611904Y-81446666D01*
X69040476Y-81732380D02*
X69373809Y-80732380D01*
X69707142Y-81732380D01*
X69992857Y-80827619D02*
X70040476Y-80780000D01*
X70135714Y-80732380D01*
X70373809Y-80732380D01*
X70469047Y-80780000D01*
X70516666Y-80827619D01*
X70564285Y-80922857D01*
X70564285Y-81018095D01*
X70516666Y-81160952D01*
X69945238Y-81732380D01*
X70564285Y-81732380D01*
X76287380Y-113863333D02*
X77001666Y-113863333D01*
X77144523Y-113910952D01*
X77239761Y-114006190D01*
X77287380Y-114149047D01*
X77287380Y-114244285D01*
X77287380Y-113387142D02*
X76287380Y-113387142D01*
X76287380Y-113006190D01*
X76335000Y-112910952D01*
X76382619Y-112863333D01*
X76477857Y-112815714D01*
X76620714Y-112815714D01*
X76715952Y-112863333D01*
X76763571Y-112910952D01*
X76811190Y-113006190D01*
X76811190Y-113387142D01*
X76287380Y-111958571D02*
X76287380Y-112149047D01*
X76335000Y-112244285D01*
X76382619Y-112291904D01*
X76525476Y-112387142D01*
X76715952Y-112434761D01*
X77096904Y-112434761D01*
X77192142Y-112387142D01*
X77239761Y-112339523D01*
X77287380Y-112244285D01*
X77287380Y-112053809D01*
X77239761Y-111958571D01*
X77192142Y-111910952D01*
X77096904Y-111863333D01*
X76858809Y-111863333D01*
X76763571Y-111910952D01*
X76715952Y-111958571D01*
X76668333Y-112053809D01*
X76668333Y-112244285D01*
X76715952Y-112339523D01*
X76763571Y-112387142D01*
X76858809Y-112434761D01*
X111212380Y-113228333D02*
X111926666Y-113228333D01*
X112069523Y-113275952D01*
X112164761Y-113371190D01*
X112212380Y-113514047D01*
X112212380Y-113609285D01*
X112212380Y-112752142D02*
X111212380Y-112752142D01*
X111212380Y-112371190D01*
X111260000Y-112275952D01*
X111307619Y-112228333D01*
X111402857Y-112180714D01*
X111545714Y-112180714D01*
X111640952Y-112228333D01*
X111688571Y-112275952D01*
X111736190Y-112371190D01*
X111736190Y-112752142D01*
X111212380Y-111275952D02*
X111212380Y-111752142D01*
X111688571Y-111799761D01*
X111640952Y-111752142D01*
X111593333Y-111656904D01*
X111593333Y-111418809D01*
X111640952Y-111323571D01*
X111688571Y-111275952D01*
X111783809Y-111228333D01*
X112021904Y-111228333D01*
X112117142Y-111275952D01*
X112164761Y-111323571D01*
X112212380Y-111418809D01*
X112212380Y-111656904D01*
X112164761Y-111752142D01*
X112117142Y-111799761D01*
X119572380Y-77668333D02*
X120286666Y-77668333D01*
X120429523Y-77715952D01*
X120524761Y-77811190D01*
X120572380Y-77954047D01*
X120572380Y-78049285D01*
X120572380Y-77192142D02*
X119572380Y-77192142D01*
X119572380Y-76811190D01*
X119620000Y-76715952D01*
X119667619Y-76668333D01*
X119762857Y-76620714D01*
X119905714Y-76620714D01*
X120000952Y-76668333D01*
X120048571Y-76715952D01*
X120096190Y-76811190D01*
X120096190Y-77192142D01*
X119905714Y-75763571D02*
X120572380Y-75763571D01*
X119524761Y-76001666D02*
X120239047Y-76239761D01*
X120239047Y-75620714D01*
X95972380Y-77668333D02*
X96686666Y-77668333D01*
X96829523Y-77715952D01*
X96924761Y-77811190D01*
X96972380Y-77954047D01*
X96972380Y-78049285D01*
X96972380Y-77192142D02*
X95972380Y-77192142D01*
X95972380Y-76811190D01*
X96020000Y-76715952D01*
X96067619Y-76668333D01*
X96162857Y-76620714D01*
X96305714Y-76620714D01*
X96400952Y-76668333D01*
X96448571Y-76715952D01*
X96496190Y-76811190D01*
X96496190Y-77192142D01*
X95972380Y-76287380D02*
X95972380Y-75668333D01*
X96353333Y-76001666D01*
X96353333Y-75858809D01*
X96400952Y-75763571D01*
X96448571Y-75715952D01*
X96543809Y-75668333D01*
X96781904Y-75668333D01*
X96877142Y-75715952D01*
X96924761Y-75763571D01*
X96972380Y-75858809D01*
X96972380Y-76144523D01*
X96924761Y-76239761D01*
X96877142Y-76287380D01*
X121372380Y-113863333D02*
X122086666Y-113863333D01*
X122229523Y-113910952D01*
X122324761Y-114006190D01*
X122372380Y-114149047D01*
X122372380Y-114244285D01*
X122372380Y-113387142D02*
X121372380Y-113387142D01*
X121372380Y-113006190D01*
X121420000Y-112910952D01*
X121467619Y-112863333D01*
X121562857Y-112815714D01*
X121705714Y-112815714D01*
X121800952Y-112863333D01*
X121848571Y-112910952D01*
X121896190Y-113006190D01*
X121896190Y-113387142D01*
X121467619Y-112434761D02*
X121420000Y-112387142D01*
X121372380Y-112291904D01*
X121372380Y-112053809D01*
X121420000Y-111958571D01*
X121467619Y-111910952D01*
X121562857Y-111863333D01*
X121658095Y-111863333D01*
X121800952Y-111910952D01*
X122372380Y-112482380D01*
X122372380Y-111863333D01*
X118832380Y-113863333D02*
X119546666Y-113863333D01*
X119689523Y-113910952D01*
X119784761Y-114006190D01*
X119832380Y-114149047D01*
X119832380Y-114244285D01*
X119832380Y-113387142D02*
X118832380Y-113387142D01*
X118832380Y-113006190D01*
X118880000Y-112910952D01*
X118927619Y-112863333D01*
X119022857Y-112815714D01*
X119165714Y-112815714D01*
X119260952Y-112863333D01*
X119308571Y-112910952D01*
X119356190Y-113006190D01*
X119356190Y-113387142D01*
X119832380Y-111863333D02*
X119832380Y-112434761D01*
X119832380Y-112149047D02*
X118832380Y-112149047D01*
X118975238Y-112244285D01*
X119070476Y-112339523D01*
X119118095Y-112434761D01*
X74596666Y-99992380D02*
X74596666Y-100706666D01*
X74549047Y-100849523D01*
X74453809Y-100944761D01*
X74310952Y-100992380D01*
X74215714Y-100992380D01*
X74977619Y-99992380D02*
X75596666Y-99992380D01*
X75263333Y-100373333D01*
X75406190Y-100373333D01*
X75501428Y-100420952D01*
X75549047Y-100468571D01*
X75596666Y-100563809D01*
X75596666Y-100801904D01*
X75549047Y-100897142D01*
X75501428Y-100944761D01*
X75406190Y-100992380D01*
X75120476Y-100992380D01*
X75025238Y-100944761D01*
X74977619Y-100897142D01*
X120316666Y-99992380D02*
X120316666Y-100706666D01*
X120269047Y-100849523D01*
X120173809Y-100944761D01*
X120030952Y-100992380D01*
X119935714Y-100992380D01*
X120745238Y-100087619D02*
X120792857Y-100040000D01*
X120888095Y-99992380D01*
X121126190Y-99992380D01*
X121221428Y-100040000D01*
X121269047Y-100087619D01*
X121316666Y-100182857D01*
X121316666Y-100278095D01*
X121269047Y-100420952D01*
X120697619Y-100992380D01*
X121316666Y-100992380D01*
X97456666Y-99992380D02*
X97456666Y-100706666D01*
X97409047Y-100849523D01*
X97313809Y-100944761D01*
X97170952Y-100992380D01*
X97075714Y-100992380D01*
X98456666Y-100992380D02*
X97885238Y-100992380D01*
X98170952Y-100992380D02*
X98170952Y-99992380D01*
X98075714Y-100135238D01*
X97980476Y-100230476D01*
X97885238Y-100278095D01*
X69135714Y-72556666D02*
X69611904Y-72556666D01*
X69040476Y-72842380D02*
X69373809Y-71842380D01*
X69707142Y-72842380D01*
X69945238Y-71842380D02*
X70564285Y-71842380D01*
X70230952Y-72223333D01*
X70373809Y-72223333D01*
X70469047Y-72270952D01*
X70516666Y-72318571D01*
X70564285Y-72413809D01*
X70564285Y-72651904D01*
X70516666Y-72747142D01*
X70469047Y-72794761D01*
X70373809Y-72842380D01*
X70088095Y-72842380D01*
X69992857Y-72794761D01*
X69945238Y-72747142D01*
M02*
