M48
; DRILL file {KiCad 5.1.5+dfsg1-2build2} date Mon 15 Mar 2021 10:18:46 PM CET
; FORMAT={-:-/ absolute / inch / decimal}
; #@! TF.CreationDate,2021-03-15T22:18:46+01:00
; #@! TF.GenerationSoftware,Kicad,Pcbnew,5.1.5+dfsg1-2build2
; #@! TF.FileFunction,Plated,1,4,PTH
FMAT,2
INCH
T1C0.0079
T2C0.0315
T3C0.0394
T4C0.0551
%
G90
G05
T1
X2.425Y-4.525
X2.475Y-4.575
X2.525Y-4.625
X2.55Y-3.35
X2.575Y-4.675
X2.6Y-3.125
X2.6Y-3.5
X2.625Y-4.725
X2.75Y-3.775
X2.75Y-3.85
X2.75Y-3.925
X2.75Y-4.0
X2.925Y-4.25
X3.5Y-4.675
X3.825Y-4.65
X3.975Y-4.65
X4.125Y-4.65
X4.475Y-4.425
X4.525Y-3.625
X4.525Y-3.7
X4.525Y-3.775
X4.525Y-3.85
X4.6Y-4.6
X4.75Y-3.15
X4.8Y-4.5
X4.825Y-4.375
X4.875Y-4.7
T2
X2.35Y-3.05
X2.35Y-3.15
X2.35Y-3.25
X2.35Y-3.35
X2.35Y-3.45
X2.35Y-3.55
X2.35Y-3.65
X2.35Y-3.75
X2.35Y-3.85
X2.35Y-3.95
X2.35Y-4.05
X2.35Y-4.15
X3.15Y-3.05
X3.15Y-3.15
X3.15Y-3.25
X3.15Y-3.35
X3.15Y-3.45
X3.15Y-3.55
X3.15Y-3.65
X3.15Y-3.75
X3.15Y-3.85
X3.15Y-3.95
X3.15Y-4.05
X3.15Y-4.15
X3.15Y-4.25
X3.15Y-4.35
X3.15Y-4.45
X3.15Y-4.55
X3.0402Y-4.75
X3.1402Y-4.75
X3.2402Y-4.75
X3.3402Y-4.75
X3.4Y-2.85
X3.4402Y-4.75
X3.5Y-2.85
X3.5402Y-4.75
X3.6Y-2.85
X3.6402Y-4.75
X3.7Y-2.85
X3.7402Y-4.75
X3.8Y-2.85
X3.8402Y-4.75
X3.9Y-2.85
X3.9402Y-4.75
X4.0Y-2.85
X4.1Y-2.85
X4.1Y-4.75
X4.2Y-4.75
X4.3Y-2.85
X4.3Y-4.75
X4.4Y-2.85
X4.4Y-4.75
X4.5Y-2.85
X4.5Y-4.75
X4.6Y-2.85
X4.6Y-4.75
X4.7Y-2.85
X4.7Y-4.75
X4.8Y-2.85
X4.8Y-4.75
T3
X4.45Y-4.3
X4.55Y-4.3
X4.75Y-4.05
X3.85Y-4.05
X3.85Y-3.55
X3.85Y-3.65
X2.95Y-4.05
T4
X4.25Y-3.2
X4.25Y-3.3
X4.25Y-3.4
X4.25Y-3.5
X4.25Y-3.6
X4.25Y-3.7
X4.25Y-3.8
X4.25Y-3.9
X4.25Y-4.0
X4.25Y-4.1
X4.25Y-4.2
X4.25Y-4.3
X4.85Y-3.2
X4.85Y-3.3
X4.85Y-3.4
X4.85Y-3.5
X4.85Y-3.6
X4.85Y-3.7
X4.85Y-3.8
X4.85Y-3.9
X4.85Y-4.0
X4.85Y-4.1
X4.85Y-4.2
X4.85Y-4.3
X3.35Y-3.2
X3.35Y-3.3
X3.35Y-3.4
X3.35Y-3.5
X3.35Y-3.6
X3.35Y-3.7
X3.35Y-3.8
X3.35Y-3.9
X3.35Y-4.0
X3.35Y-4.1
X3.35Y-4.2
X3.35Y-4.3
X3.95Y-3.2
X3.95Y-3.3
X3.95Y-3.4
X3.95Y-3.5
X3.95Y-3.6
X3.95Y-3.7
X3.95Y-3.8
X3.95Y-3.9
X3.95Y-4.0
X3.95Y-4.1
X3.95Y-4.2
X3.95Y-4.3
X2.45Y-3.2
X2.45Y-3.3
X2.45Y-3.4
X2.45Y-3.5
X2.45Y-3.6
X2.45Y-3.7
X2.45Y-3.8
X2.45Y-3.9
X2.45Y-4.0
X2.45Y-4.1
X2.45Y-4.2
X2.45Y-4.3
X3.05Y-3.2
X3.05Y-3.3
X3.05Y-3.4
X3.05Y-3.5
X3.05Y-3.6
X3.05Y-3.7
X3.05Y-3.8
X3.05Y-3.9
X3.05Y-4.0
X3.05Y-4.1
X3.05Y-4.2
X3.05Y-4.3
T0
M30
