%TF.GenerationSoftware,KiCad,Pcbnew,5.1.7+dfsg1-1~bpo10+1*%
%TF.CreationDate,Date%
%TF.ProjectId,ProMicro_BUS,50726f4d-6963-4726-9f5f-4255532e6b69,v1.4*%
%TF.SameCoordinates,Original*%
%TF.FileFunction,Other,User*%
%FSLAX46Y46*%
G04 Gerber Fmt 4.6, Leading zero omitted, Abs format (unit mm)*
G04 Created by KiCad*
%MOMM*%
%LPD*%
G01*
G04 APERTURE LIST*
%ADD10C,0.050000*%
G04 APERTURE END LIST*
D10*
%TO.C,C3*%
X3270000Y-12275000D02*
X1810000Y-12275000D01*
X1810000Y-12275000D02*
X1810000Y-9315000D01*
X1810000Y-9315000D02*
X3270000Y-9315000D01*
X3270000Y-9315000D02*
X3270000Y-12275000D01*
%TO.C,C2*%
X4915000Y-11090000D02*
X3975000Y-11090000D01*
X3975000Y-11090000D02*
X3975000Y-9230000D01*
X3975000Y-9230000D02*
X4915000Y-9230000D01*
X4915000Y-9230000D02*
X4915000Y-11090000D01*
%TO.C,A1*%
X-1520000Y4060000D02*
X16760000Y4060000D01*
X-1520000Y4060000D02*
X-1520000Y-29460000D01*
X16760000Y-29460000D02*
X16760000Y4060000D01*
X16760000Y-29460000D02*
X-1520000Y-29460000D01*
%TO.C,U1*%
X4920000Y-13445000D02*
X4920000Y-20845000D01*
X10320000Y-13445000D02*
X4920000Y-13445000D01*
X10320000Y-20845000D02*
X10320000Y-13445000D01*
X4920000Y-20845000D02*
X10320000Y-20845000D01*
%TO.C,Y1*%
X4520000Y-25278000D02*
X4520000Y-29078000D01*
X4520000Y-29078000D02*
X10720000Y-29078000D01*
X10720000Y-29078000D02*
X10720000Y-25278000D01*
X10720000Y-25278000D02*
X4520000Y-25278000D01*
%TO.C,C4*%
X4401000Y-26448000D02*
X4401000Y-27908000D01*
X4401000Y-27908000D02*
X1441000Y-27908000D01*
X1441000Y-27908000D02*
X1441000Y-26448000D01*
X1441000Y-26448000D02*
X4401000Y-26448000D01*
%TO.C,C1*%
X13799000Y-26448000D02*
X13799000Y-27908000D01*
X13799000Y-27908000D02*
X10839000Y-27908000D01*
X10839000Y-27908000D02*
X10839000Y-26448000D01*
X10839000Y-26448000D02*
X13799000Y-26448000D01*
%TO.C,U2*%
X5820000Y-8895000D02*
X5820000Y-12695000D01*
X9420000Y-8895000D02*
X5820000Y-8895000D01*
X9420000Y-12695000D02*
X9420000Y-8895000D01*
X5820000Y-12695000D02*
X9420000Y-12695000D01*
%TO.C,U3*%
X13550000Y-13030000D02*
X1690000Y-13030000D01*
X13550000Y-25070000D02*
X13550000Y-13030000D01*
X1690000Y-25070000D02*
X13550000Y-25070000D01*
X1690000Y-13030000D02*
X1690000Y-25070000D01*
%TO.C,R1*%
X9100000Y-8350000D02*
X6140000Y-8350000D01*
X9100000Y-6890000D02*
X9100000Y-8350000D01*
X6140000Y-6890000D02*
X9100000Y-6890000D01*
X6140000Y-8350000D02*
X6140000Y-6890000D01*
%TO.C,J1*%
X12160000Y1210000D02*
X3080000Y1210000D01*
X12160000Y-6290000D02*
X12160000Y1210000D01*
X3080000Y-6290000D02*
X12160000Y-6290000D01*
X3080000Y1210000D02*
X3080000Y-6290000D01*
%TD*%
M02*
