%TF.GenerationSoftware,KiCad,Pcbnew,5.1.5+dfsg1-2~bpo10+1*%
%TF.CreationDate,Date%
%TF.ProjectId,ProMicro_BUS,50726f4d-6963-4726-9f5f-4255532e6b69,v1.2*%
%TF.SameCoordinates,Original*%
%TF.FileFunction,Other,Comment*%
%FSLAX45Y45*%
G04 Gerber Fmt 4.5, Leading zero omitted, Abs format (unit mm)*
G04 Created by KiCad*
%MOMM*%
%LPD*%
G04 APERTURE LIST*
%ADD10C,0.200000*%
%ADD11C,0.100000*%
G04 APERTURE END LIST*
D10*
X-731810Y-1723238D02*
X-674667Y-1723238D01*
X-703238Y-1823238D02*
X-703238Y-1723238D01*
X-650857Y-1723238D02*
X-584191Y-1823238D01*
X-584191Y-1723238D02*
X-650857Y-1823238D01*
X-546095Y-1823238D02*
X-546095Y-1723238D01*
X-522286Y-1723238D01*
X-508000Y-1728000D01*
X-498476Y-1737524D01*
X-493714Y-1747048D01*
X-488952Y-1766095D01*
X-488952Y-1780381D01*
X-493714Y-1799428D01*
X-498476Y-1808952D01*
X-508000Y-1818476D01*
X-522286Y-1823238D01*
X-546095Y-1823238D01*
X-446095Y-1770857D02*
X-412762Y-1770857D01*
X-398476Y-1823238D02*
X-446095Y-1823238D01*
X-446095Y-1723238D01*
X-398476Y-1723238D01*
X-355619Y-1823238D02*
X-355619Y-1723238D01*
X-298476Y-1823238D01*
X-298476Y-1723238D01*
X1886762Y-553238D02*
X1853428Y-505619D01*
X1829619Y-553238D02*
X1829619Y-453238D01*
X1867714Y-453238D01*
X1877238Y-458000D01*
X1882000Y-462762D01*
X1886762Y-472286D01*
X1886762Y-486571D01*
X1882000Y-496095D01*
X1877238Y-500857D01*
X1867714Y-505619D01*
X1829619Y-505619D01*
X1929619Y-500857D02*
X1962952Y-500857D01*
X1977238Y-553238D02*
X1929619Y-553238D01*
X1929619Y-453238D01*
X1977238Y-453238D01*
X2015333Y-548476D02*
X2029619Y-553238D01*
X2053428Y-553238D01*
X2062952Y-548476D01*
X2067714Y-543714D01*
X2072476Y-534190D01*
X2072476Y-524667D01*
X2067714Y-515143D01*
X2062952Y-510381D01*
X2053428Y-505619D01*
X2034381Y-500857D01*
X2024857Y-496095D01*
X2020095Y-491333D01*
X2015333Y-481809D01*
X2015333Y-472286D01*
X2020095Y-462762D01*
X2024857Y-458000D01*
X2034381Y-453238D01*
X2058190Y-453238D01*
X2072476Y-458000D01*
X2115333Y-500857D02*
X2148667Y-500857D01*
X2162952Y-553238D02*
X2115333Y-553238D01*
X2115333Y-453238D01*
X2162952Y-453238D01*
X2191524Y-453238D02*
X2248667Y-453238D01*
X2220095Y-553238D02*
X2220095Y-453238D01*
X1955809Y-204000D02*
X1946286Y-199238D01*
X1932000Y-199238D01*
X1917714Y-204000D01*
X1908190Y-213524D01*
X1903428Y-223048D01*
X1898667Y-242095D01*
X1898667Y-256381D01*
X1903428Y-275429D01*
X1908190Y-284952D01*
X1917714Y-294476D01*
X1932000Y-299238D01*
X1941524Y-299238D01*
X1955809Y-294476D01*
X1960571Y-289714D01*
X1960571Y-256381D01*
X1941524Y-256381D01*
X2003428Y-299238D02*
X2003428Y-199238D01*
X2060571Y-299238D01*
X2060571Y-199238D01*
X2108190Y-299238D02*
X2108190Y-199238D01*
X2132000Y-199238D01*
X2146286Y-204000D01*
X2155810Y-213524D01*
X2160571Y-223048D01*
X2165333Y-242095D01*
X2165333Y-256381D01*
X2160571Y-275429D01*
X2155810Y-284952D01*
X2146286Y-294476D01*
X2132000Y-299238D01*
X2108190Y-299238D01*
X1908190Y-707238D02*
X1970095Y-707238D01*
X1936762Y-745333D01*
X1951048Y-745333D01*
X1960571Y-750095D01*
X1965333Y-754857D01*
X1970095Y-764381D01*
X1970095Y-788190D01*
X1965333Y-797714D01*
X1960571Y-802476D01*
X1951048Y-807238D01*
X1922476Y-807238D01*
X1912952Y-802476D01*
X1908190Y-797714D01*
X1998667Y-707238D02*
X2032000Y-807238D01*
X2065333Y-707238D01*
X2089143Y-707238D02*
X2151048Y-707238D01*
X2117714Y-745333D01*
X2132000Y-745333D01*
X2141524Y-750095D01*
X2146286Y-754857D01*
X2151048Y-764381D01*
X2151048Y-788190D01*
X2146286Y-797714D01*
X2141524Y-802476D01*
X2132000Y-807238D01*
X2103429Y-807238D01*
X2093905Y-802476D01*
X2089143Y-797714D01*
X1903428Y-2072476D02*
X1917714Y-2077238D01*
X1941524Y-2077238D01*
X1951048Y-2072476D01*
X1955809Y-2067714D01*
X1960571Y-2058190D01*
X1960571Y-2048667D01*
X1955809Y-2039143D01*
X1951048Y-2034381D01*
X1941524Y-2029619D01*
X1922476Y-2024857D01*
X1912952Y-2020095D01*
X1908190Y-2015333D01*
X1903428Y-2005809D01*
X1903428Y-1996286D01*
X1908190Y-1986762D01*
X1912952Y-1982000D01*
X1922476Y-1977238D01*
X1946286Y-1977238D01*
X1960571Y-1982000D01*
X2060571Y-2067714D02*
X2055809Y-2072476D01*
X2041524Y-2077238D01*
X2032000Y-2077238D01*
X2017714Y-2072476D01*
X2008190Y-2062952D01*
X2003428Y-2053428D01*
X1998667Y-2034381D01*
X1998667Y-2020095D01*
X2003428Y-2001048D01*
X2008190Y-1991524D01*
X2017714Y-1982000D01*
X2032000Y-1977238D01*
X2041524Y-1977238D01*
X2055809Y-1982000D01*
X2060571Y-1986762D01*
X2103429Y-2077238D02*
X2103429Y-1977238D01*
X2160571Y-2077238D02*
X2117714Y-2020095D01*
X2160571Y-1977238D02*
X2103429Y-2034381D01*
X1874857Y-2331238D02*
X1874857Y-2231238D01*
X1908190Y-2302667D01*
X1941524Y-2231238D01*
X1941524Y-2331238D01*
X1989143Y-2331238D02*
X1989143Y-2231238D01*
X2032000Y-2326476D02*
X2046286Y-2331238D01*
X2070095Y-2331238D01*
X2079619Y-2326476D01*
X2084381Y-2321714D01*
X2089143Y-2312190D01*
X2089143Y-2302667D01*
X2084381Y-2293143D01*
X2079619Y-2288381D01*
X2070095Y-2283619D01*
X2051048Y-2278857D01*
X2041524Y-2274095D01*
X2036762Y-2269333D01*
X2032000Y-2259810D01*
X2032000Y-2250286D01*
X2036762Y-2240762D01*
X2041524Y-2236000D01*
X2051048Y-2231238D01*
X2074857Y-2231238D01*
X2089143Y-2236000D01*
X2151048Y-2231238D02*
X2170095Y-2231238D01*
X2179619Y-2236000D01*
X2189143Y-2245524D01*
X2193905Y-2264571D01*
X2193905Y-2297905D01*
X2189143Y-2316952D01*
X2179619Y-2326476D01*
X2170095Y-2331238D01*
X2151048Y-2331238D01*
X2141524Y-2326476D01*
X2132000Y-2316952D01*
X2127238Y-2297905D01*
X2127238Y-2264571D01*
X2132000Y-2245524D01*
X2141524Y-2236000D01*
X2151048Y-2231238D01*
X1874857Y-2585238D02*
X1874857Y-2485238D01*
X1908190Y-2556667D01*
X1941524Y-2485238D01*
X1941524Y-2585238D01*
X2008190Y-2485238D02*
X2027238Y-2485238D01*
X2036762Y-2490000D01*
X2046286Y-2499524D01*
X2051048Y-2518571D01*
X2051048Y-2551905D01*
X2046286Y-2570952D01*
X2036762Y-2580476D01*
X2027238Y-2585238D01*
X2008190Y-2585238D01*
X1998667Y-2580476D01*
X1989143Y-2570952D01*
X1984381Y-2551905D01*
X1984381Y-2518571D01*
X1989143Y-2499524D01*
X1998667Y-2490000D01*
X2008190Y-2485238D01*
X2089143Y-2580476D02*
X2103429Y-2585238D01*
X2127238Y-2585238D01*
X2136762Y-2580476D01*
X2141524Y-2575714D01*
X2146286Y-2566190D01*
X2146286Y-2556667D01*
X2141524Y-2547143D01*
X2136762Y-2542381D01*
X2127238Y-2537619D01*
X2108190Y-2532857D01*
X2098667Y-2528095D01*
X2093905Y-2523333D01*
X2089143Y-2513810D01*
X2089143Y-2504286D01*
X2093905Y-2494762D01*
X2098667Y-2490000D01*
X2108190Y-2485238D01*
X2132000Y-2485238D01*
X2146286Y-2490000D01*
X2189143Y-2585238D02*
X2189143Y-2485238D01*
X2015333Y-2829714D02*
X2010571Y-2834476D01*
X1996286Y-2839238D01*
X1986762Y-2839238D01*
X1972476Y-2834476D01*
X1962952Y-2824952D01*
X1958190Y-2815428D01*
X1953428Y-2796381D01*
X1953428Y-2782095D01*
X1958190Y-2763048D01*
X1962952Y-2753524D01*
X1972476Y-2744000D01*
X1986762Y-2739238D01*
X1996286Y-2739238D01*
X2010571Y-2744000D01*
X2015333Y-2748762D01*
X2053428Y-2834476D02*
X2067714Y-2839238D01*
X2091524Y-2839238D01*
X2101048Y-2834476D01*
X2105810Y-2829714D01*
X2110571Y-2820190D01*
X2110571Y-2810667D01*
X2105810Y-2801143D01*
X2101048Y-2796381D01*
X2091524Y-2791619D01*
X2072476Y-2786857D01*
X2062952Y-2782095D01*
X2058190Y-2777333D01*
X2053428Y-2767810D01*
X2053428Y-2758286D01*
X2058190Y-2748762D01*
X2062952Y-2744000D01*
X2072476Y-2739238D01*
X2096286Y-2739238D01*
X2110571Y-2744000D01*
X-598476Y-2331238D02*
X-598476Y-2231238D01*
X-550857Y-2331238D02*
X-550857Y-2231238D01*
X-493714Y-2331238D01*
X-493714Y-2231238D01*
X-460381Y-2231238D02*
X-403238Y-2231238D01*
X-431810Y-2331238D02*
X-431810Y-2231238D01*
X-574667Y-299238D02*
X-608000Y-251619D01*
X-631810Y-299238D02*
X-631810Y-199238D01*
X-593714Y-199238D01*
X-584191Y-204000D01*
X-579429Y-208762D01*
X-574667Y-218286D01*
X-574667Y-232571D01*
X-579429Y-242095D01*
X-584191Y-246857D01*
X-593714Y-251619D01*
X-631810Y-251619D01*
X-541333Y-199238D02*
X-474667Y-299238D01*
X-474667Y-199238D02*
X-541333Y-299238D01*
X-436571Y-299238D02*
X-436571Y-199238D01*
X-412762Y-199238D01*
X-398476Y-204000D01*
X-388952Y-213524D01*
X-384190Y-223048D01*
X-379429Y-242095D01*
X-379429Y-256381D01*
X-384190Y-275429D01*
X-388952Y-284952D01*
X-398476Y-294476D01*
X-412762Y-299238D01*
X-436571Y-299238D01*
X-634191Y54762D02*
X-577048Y54762D01*
X-605619Y-45238D02*
X-605619Y54762D01*
X-553238Y54762D02*
X-486571Y-45238D01*
X-486571Y54762D02*
X-553238Y-45238D01*
X-448476Y-45238D02*
X-448476Y54762D01*
X-424667Y54762D01*
X-410381Y50000D01*
X-400857Y40476D01*
X-396095Y30952D01*
X-391333Y11905D01*
X-391333Y-2381D01*
X-396095Y-21429D01*
X-400857Y-30952D01*
X-410381Y-40476D01*
X-424667Y-45238D01*
X-448476Y-45238D01*
D11*
X1651000Y63500D02*
X1651000Y-2857500D01*
X-127000Y-2857500D02*
X-127000Y63500D01*
X-63500Y-2921000D02*
G75*
G02X-127000Y-2857500I0J63500D01*
G01*
X1651000Y-2857500D02*
G75*
G02X1587500Y-2921000I-63500J0D01*
G01*
X1587500Y127000D02*
G75*
G02X1651000Y63500I0J-63500D01*
G01*
X-127000Y63500D02*
G75*
G02X-63500Y127000I63500J0D01*
G01*
X1587500Y-2921000D02*
X-63500Y-2921000D01*
X-63500Y127000D02*
X1587500Y127000D01*
M02*
