%TF.GenerationSoftware,KiCad,Pcbnew,5.1.7+dfsg1-1~bpo10+1*%
%TF.CreationDate,Date%
%TF.ProjectId,ProMicro_BUS,50726f4d-6963-4726-9f5f-4255532e6b69,v1.4*%
%TF.SameCoordinates,Original*%
%TF.FileFunction,Other,Fab,Top*%
%FSLAX46Y46*%
G04 Gerber Fmt 4.6, Leading zero omitted, Abs format (unit mm)*
G04 Created by KiCad*
%MOMM*%
%LPD*%
G01*
G04 APERTURE LIST*
%ADD10C,0.100000*%
%ADD11C,0.150000*%
%ADD12C,0.060000*%
%ADD13C,0.040000*%
%ADD14C,0.075000*%
G04 APERTURE END LIST*
D10*
%TO.C,C3*%
X2940000Y-11595000D02*
X2140000Y-11595000D01*
X2140000Y-11595000D02*
X2140000Y-9995000D01*
X2140000Y-9995000D02*
X2940000Y-9995000D01*
X2940000Y-9995000D02*
X2940000Y-11595000D01*
%TO.C,C2*%
X4695000Y-10660000D02*
X4195000Y-10660000D01*
X4195000Y-10660000D02*
X4195000Y-9660000D01*
X4195000Y-9660000D02*
X4695000Y-9660000D01*
X4695000Y-9660000D02*
X4695000Y-10660000D01*
%TO.C,A1*%
X16510000Y-29210000D02*
X-1270000Y-29210000D01*
X-1270000Y-29210000D02*
X-1270000Y2921000D01*
X-381000Y3810000D02*
X-1270000Y2921000D01*
X-381000Y3810000D02*
X16510000Y3810000D01*
X16510000Y3810000D02*
X16510000Y-29210000D01*
%TO.C,U1*%
X6145000Y-19095000D02*
X5170000Y-18120000D01*
X10070000Y-19095000D02*
X6145000Y-19095000D01*
X10070000Y-15195000D02*
X10070000Y-19095000D01*
X5170000Y-15195000D02*
X10070000Y-15195000D01*
X5170000Y-18120000D02*
X5170000Y-15195000D01*
%TO.C,Y1*%
X5320000Y-25578000D02*
X9920000Y-25578000D01*
X9920000Y-25578000D02*
X10120000Y-25778000D01*
X10120000Y-25778000D02*
X10120000Y-28578000D01*
X10120000Y-28578000D02*
X9920000Y-28778000D01*
X9920000Y-28778000D02*
X5320000Y-28778000D01*
X5320000Y-28778000D02*
X5120000Y-28578000D01*
X5120000Y-28578000D02*
X5120000Y-25778000D01*
X5120000Y-25778000D02*
X5320000Y-25578000D01*
X5120000Y-27778000D02*
X6120000Y-28778000D01*
%TO.C,C4*%
X3721000Y-26778000D02*
X3721000Y-27578000D01*
X3721000Y-27578000D02*
X2121000Y-27578000D01*
X2121000Y-27578000D02*
X2121000Y-26778000D01*
X2121000Y-26778000D02*
X3721000Y-26778000D01*
%TO.C,C1*%
X13119000Y-26778000D02*
X13119000Y-27578000D01*
X13119000Y-27578000D02*
X11519000Y-27578000D01*
X11519000Y-27578000D02*
X11519000Y-26778000D01*
X11519000Y-26778000D02*
X13119000Y-26778000D01*
%TO.C,U2*%
X6720000Y-11695000D02*
X6070000Y-11045000D01*
X6070000Y-9895000D02*
X6070000Y-11045000D01*
X6720000Y-11695000D02*
X9170000Y-11695000D01*
X9170000Y-9895000D02*
X9170000Y-11695000D01*
X6070000Y-9895000D02*
X9170000Y-9895000D01*
%TO.C,U3*%
X3870000Y-14275000D02*
X4870000Y-13275000D01*
X3870000Y-24825000D02*
X3870000Y-14275000D01*
X11370000Y-24825000D02*
X3870000Y-24825000D01*
X11370000Y-13275000D02*
X11370000Y-24825000D01*
X4870000Y-13275000D02*
X11370000Y-13275000D01*
%TO.C,R1*%
X8420000Y-8020000D02*
X6820000Y-8020000D01*
X8420000Y-7220000D02*
X8420000Y-8020000D01*
X6820000Y-7220000D02*
X8420000Y-7220000D01*
X6820000Y-8020000D02*
X6820000Y-7220000D01*
%TO.C,J1*%
X10861000Y-1705000D02*
X9326000Y-3240000D01*
X10995000Y-1840000D02*
X9460000Y-3375000D01*
X8321000Y-1705000D02*
X6786000Y-3240000D01*
X8455000Y-1840000D02*
X6920000Y-3375000D01*
X5781000Y-1705000D02*
X4245000Y-3240000D01*
X5915000Y-1840000D02*
X4379000Y-3375000D01*
X3580000Y-290000D02*
X11660000Y-290000D01*
X3580000Y-5390000D02*
X11660000Y-5390000D01*
X3580000Y-5390000D02*
X3580000Y710000D01*
X3980000Y-5790000D02*
X3580000Y-5390000D01*
X11660000Y-5790000D02*
X3980000Y-5790000D01*
X11660000Y710000D02*
X11660000Y-5790000D01*
X3580000Y710000D02*
X11660000Y710000D01*
X11260000Y-2540000D02*
G75*
G03*
X11260000Y-2540000I-1100000J0D01*
G01*
X8720000Y-2540000D02*
G75*
G03*
X8720000Y-2540000I-1100000J0D01*
G01*
X6180000Y-2540000D02*
G75*
G03*
X6180000Y-2540000I-1100000J0D01*
G01*
%TD*%
%TO.C,C3*%
D11*
X4422380Y-11509285D02*
X4422380Y-12080714D01*
X4422380Y-11795000D02*
X3422380Y-11795000D01*
X3565238Y-11890238D01*
X3660476Y-11985476D01*
X3708095Y-12080714D01*
X3422380Y-10890238D02*
X3422380Y-10795000D01*
X3470000Y-10699761D01*
X3517619Y-10652142D01*
X3612857Y-10604523D01*
X3803333Y-10556904D01*
X4041428Y-10556904D01*
X4231904Y-10604523D01*
X4327142Y-10652142D01*
X4374761Y-10699761D01*
X4422380Y-10795000D01*
X4422380Y-10890238D01*
X4374761Y-10985476D01*
X4327142Y-11033095D01*
X4231904Y-11080714D01*
X4041428Y-11128333D01*
X3803333Y-11128333D01*
X3612857Y-11080714D01*
X3517619Y-11033095D01*
X3470000Y-10985476D01*
X3422380Y-10890238D01*
X3755714Y-10128333D02*
X4755714Y-10128333D01*
X4279523Y-9652142D02*
X4374761Y-9604523D01*
X4422380Y-9509285D01*
X4279523Y-10128333D02*
X4374761Y-10080714D01*
X4422380Y-9985476D01*
X4422380Y-9795000D01*
X4374761Y-9699761D01*
X4279523Y-9652142D01*
X3755714Y-9652142D01*
D12*
X2682857Y-10861666D02*
X2701904Y-10880714D01*
X2720952Y-10937857D01*
X2720952Y-10975952D01*
X2701904Y-11033095D01*
X2663809Y-11071190D01*
X2625714Y-11090238D01*
X2549523Y-11109285D01*
X2492380Y-11109285D01*
X2416190Y-11090238D01*
X2378095Y-11071190D01*
X2340000Y-11033095D01*
X2320952Y-10975952D01*
X2320952Y-10937857D01*
X2340000Y-10880714D01*
X2359047Y-10861666D01*
X2320952Y-10728333D02*
X2320952Y-10480714D01*
X2473333Y-10614047D01*
X2473333Y-10556904D01*
X2492380Y-10518809D01*
X2511428Y-10499761D01*
X2549523Y-10480714D01*
X2644761Y-10480714D01*
X2682857Y-10499761D01*
X2701904Y-10518809D01*
X2720952Y-10556904D01*
X2720952Y-10671190D01*
X2701904Y-10709285D01*
X2682857Y-10728333D01*
%TO.C,C2*%
D11*
X6067380Y-11279047D02*
X6067380Y-11850476D01*
X6067380Y-11564761D02*
X5067380Y-11564761D01*
X5210238Y-11660000D01*
X5305476Y-11755238D01*
X5353095Y-11850476D01*
X5067380Y-10660000D02*
X5067380Y-10564761D01*
X5115000Y-10469523D01*
X5162619Y-10421904D01*
X5257857Y-10374285D01*
X5448333Y-10326666D01*
X5686428Y-10326666D01*
X5876904Y-10374285D01*
X5972142Y-10421904D01*
X6019761Y-10469523D01*
X6067380Y-10564761D01*
X6067380Y-10660000D01*
X6019761Y-10755238D01*
X5972142Y-10802857D01*
X5876904Y-10850476D01*
X5686428Y-10898095D01*
X5448333Y-10898095D01*
X5257857Y-10850476D01*
X5162619Y-10802857D01*
X5115000Y-10755238D01*
X5067380Y-10660000D01*
X5067380Y-9707619D02*
X5067380Y-9612380D01*
X5115000Y-9517142D01*
X5162619Y-9469523D01*
X5257857Y-9421904D01*
X5448333Y-9374285D01*
X5686428Y-9374285D01*
X5876904Y-9421904D01*
X5972142Y-9469523D01*
X6019761Y-9517142D01*
X6067380Y-9612380D01*
X6067380Y-9707619D01*
X6019761Y-9802857D01*
X5972142Y-9850476D01*
X5876904Y-9898095D01*
X5686428Y-9945714D01*
X5448333Y-9945714D01*
X5257857Y-9898095D01*
X5162619Y-9850476D01*
X5115000Y-9802857D01*
X5067380Y-9707619D01*
X5400714Y-8945714D02*
X6067380Y-8945714D01*
X5495952Y-8945714D02*
X5448333Y-8898095D01*
X5400714Y-8802857D01*
X5400714Y-8660000D01*
X5448333Y-8564761D01*
X5543571Y-8517142D01*
X6067380Y-8517142D01*
D13*
X4534285Y-10201666D02*
X4546190Y-10213571D01*
X4558095Y-10249285D01*
X4558095Y-10273095D01*
X4546190Y-10308809D01*
X4522380Y-10332619D01*
X4498571Y-10344523D01*
X4450952Y-10356428D01*
X4415238Y-10356428D01*
X4367619Y-10344523D01*
X4343809Y-10332619D01*
X4320000Y-10308809D01*
X4308095Y-10273095D01*
X4308095Y-10249285D01*
X4320000Y-10213571D01*
X4331904Y-10201666D01*
X4331904Y-10106428D02*
X4320000Y-10094523D01*
X4308095Y-10070714D01*
X4308095Y-10011190D01*
X4320000Y-9987380D01*
X4331904Y-9975476D01*
X4355714Y-9963571D01*
X4379523Y-9963571D01*
X4415238Y-9975476D01*
X4558095Y-10118333D01*
X4558095Y-9963571D01*
%TO.C,A1*%
D11*
X9294761Y-21089047D02*
X9342380Y-20946190D01*
X9342380Y-20708095D01*
X9294761Y-20612857D01*
X9247142Y-20565238D01*
X9151904Y-20517619D01*
X9056666Y-20517619D01*
X8961428Y-20565238D01*
X8913809Y-20612857D01*
X8866190Y-20708095D01*
X8818571Y-20898571D01*
X8770952Y-20993809D01*
X8723333Y-21041428D01*
X8628095Y-21089047D01*
X8532857Y-21089047D01*
X8437619Y-21041428D01*
X8390000Y-20993809D01*
X8342380Y-20898571D01*
X8342380Y-20660476D01*
X8390000Y-20517619D01*
X8675714Y-20089047D02*
X9675714Y-20089047D01*
X8723333Y-20089047D02*
X8675714Y-19993809D01*
X8675714Y-19803333D01*
X8723333Y-19708095D01*
X8770952Y-19660476D01*
X8866190Y-19612857D01*
X9151904Y-19612857D01*
X9247142Y-19660476D01*
X9294761Y-19708095D01*
X9342380Y-19803333D01*
X9342380Y-19993809D01*
X9294761Y-20089047D01*
X9342380Y-18755714D02*
X8818571Y-18755714D01*
X8723333Y-18803333D01*
X8675714Y-18898571D01*
X8675714Y-19089047D01*
X8723333Y-19184285D01*
X9294761Y-18755714D02*
X9342380Y-18850952D01*
X9342380Y-19089047D01*
X9294761Y-19184285D01*
X9199523Y-19231904D01*
X9104285Y-19231904D01*
X9009047Y-19184285D01*
X8961428Y-19089047D01*
X8961428Y-18850952D01*
X8913809Y-18755714D01*
X9342380Y-18279523D02*
X8675714Y-18279523D01*
X8866190Y-18279523D02*
X8770952Y-18231904D01*
X8723333Y-18184285D01*
X8675714Y-18089047D01*
X8675714Y-17993809D01*
X9342380Y-17660476D02*
X8342380Y-17660476D01*
X8961428Y-17565238D02*
X9342380Y-17279523D01*
X8675714Y-17279523D02*
X9056666Y-17660476D01*
X8675714Y-16993809D02*
X8675714Y-16612857D01*
X9342380Y-16850952D02*
X8485238Y-16850952D01*
X8390000Y-16803333D01*
X8342380Y-16708095D01*
X8342380Y-16612857D01*
X8675714Y-15850952D02*
X9342380Y-15850952D01*
X8675714Y-16279523D02*
X9199523Y-16279523D01*
X9294761Y-16231904D01*
X9342380Y-16136666D01*
X9342380Y-15993809D01*
X9294761Y-15898571D01*
X9247142Y-15850952D01*
X8675714Y-15374761D02*
X9342380Y-15374761D01*
X8770952Y-15374761D02*
X8723333Y-15327142D01*
X8675714Y-15231904D01*
X8675714Y-15089047D01*
X8723333Y-14993809D01*
X8818571Y-14946190D01*
X9342380Y-14946190D01*
X9437619Y-14708095D02*
X9437619Y-13946190D01*
X9342380Y-13708095D02*
X8342380Y-13708095D01*
X8342380Y-13327142D01*
X8390000Y-13231904D01*
X8437619Y-13184285D01*
X8532857Y-13136666D01*
X8675714Y-13136666D01*
X8770952Y-13184285D01*
X8818571Y-13231904D01*
X8866190Y-13327142D01*
X8866190Y-13708095D01*
X9342380Y-12708095D02*
X8675714Y-12708095D01*
X8866190Y-12708095D02*
X8770952Y-12660476D01*
X8723333Y-12612857D01*
X8675714Y-12517619D01*
X8675714Y-12422380D01*
X9342380Y-11946190D02*
X9294761Y-12041428D01*
X9247142Y-12089047D01*
X9151904Y-12136666D01*
X8866190Y-12136666D01*
X8770952Y-12089047D01*
X8723333Y-12041428D01*
X8675714Y-11946190D01*
X8675714Y-11803333D01*
X8723333Y-11708095D01*
X8770952Y-11660476D01*
X8866190Y-11612857D01*
X9151904Y-11612857D01*
X9247142Y-11660476D01*
X9294761Y-11708095D01*
X9342380Y-11803333D01*
X9342380Y-11946190D01*
X9437619Y-11422380D02*
X9437619Y-10660476D01*
X9342380Y-10422380D02*
X8342380Y-10422380D01*
X9056666Y-10089047D01*
X8342380Y-9755714D01*
X9342380Y-9755714D01*
X9342380Y-9279523D02*
X8675714Y-9279523D01*
X8342380Y-9279523D02*
X8390000Y-9327142D01*
X8437619Y-9279523D01*
X8390000Y-9231904D01*
X8342380Y-9279523D01*
X8437619Y-9279523D01*
X9294761Y-8374761D02*
X9342380Y-8470000D01*
X9342380Y-8660476D01*
X9294761Y-8755714D01*
X9247142Y-8803333D01*
X9151904Y-8850952D01*
X8866190Y-8850952D01*
X8770952Y-8803333D01*
X8723333Y-8755714D01*
X8675714Y-8660476D01*
X8675714Y-8470000D01*
X8723333Y-8374761D01*
X9342380Y-7946190D02*
X8675714Y-7946190D01*
X8866190Y-7946190D02*
X8770952Y-7898571D01*
X8723333Y-7850952D01*
X8675714Y-7755714D01*
X8675714Y-7660476D01*
X9342380Y-7184285D02*
X9294761Y-7279523D01*
X9247142Y-7327142D01*
X9151904Y-7374761D01*
X8866190Y-7374761D01*
X8770952Y-7327142D01*
X8723333Y-7279523D01*
X8675714Y-7184285D01*
X8675714Y-7041428D01*
X8723333Y-6946190D01*
X8770952Y-6898571D01*
X8866190Y-6850952D01*
X9151904Y-6850952D01*
X9247142Y-6898571D01*
X9294761Y-6946190D01*
X9342380Y-7041428D01*
X9342380Y-7184285D01*
X6262666Y-14684285D02*
X6262666Y-14208095D01*
X6548380Y-14779523D02*
X5548380Y-14446190D01*
X6548380Y-14112857D01*
X6548380Y-13255714D02*
X6548380Y-13827142D01*
X6548380Y-13541428D02*
X5548380Y-13541428D01*
X5691238Y-13636666D01*
X5786476Y-13731904D01*
X5834095Y-13827142D01*
%TO.C,Y1*%
D12*
X7429523Y-27168476D02*
X7429523Y-27358952D01*
X7296190Y-26958952D02*
X7429523Y-27168476D01*
X7562857Y-26958952D01*
X7905714Y-27358952D02*
X7677142Y-27358952D01*
X7791428Y-27358952D02*
X7791428Y-26958952D01*
X7753333Y-27016095D01*
X7715238Y-27054190D01*
X7677142Y-27073238D01*
%TO.C,C4*%
X2854333Y-27320857D02*
X2835285Y-27339904D01*
X2778142Y-27358952D01*
X2740047Y-27358952D01*
X2682904Y-27339904D01*
X2644809Y-27301809D01*
X2625761Y-27263714D01*
X2606714Y-27187523D01*
X2606714Y-27130380D01*
X2625761Y-27054190D01*
X2644809Y-27016095D01*
X2682904Y-26978000D01*
X2740047Y-26958952D01*
X2778142Y-26958952D01*
X2835285Y-26978000D01*
X2854333Y-26997047D01*
X3197190Y-27092285D02*
X3197190Y-27358952D01*
X3101952Y-26939904D02*
X3006714Y-27225619D01*
X3254333Y-27225619D01*
%TO.C,C1*%
X12252333Y-27320857D02*
X12233285Y-27339904D01*
X12176142Y-27358952D01*
X12138047Y-27358952D01*
X12080904Y-27339904D01*
X12042809Y-27301809D01*
X12023761Y-27263714D01*
X12004714Y-27187523D01*
X12004714Y-27130380D01*
X12023761Y-27054190D01*
X12042809Y-27016095D01*
X12080904Y-26978000D01*
X12138047Y-26958952D01*
X12176142Y-26958952D01*
X12233285Y-26978000D01*
X12252333Y-26997047D01*
X12633285Y-27358952D02*
X12404714Y-27358952D01*
X12519000Y-27358952D02*
X12519000Y-26958952D01*
X12480904Y-27016095D01*
X12442809Y-27054190D01*
X12404714Y-27073238D01*
%TO.C,U2*%
D14*
X7239047Y-10521190D02*
X7239047Y-10925952D01*
X7262857Y-10973571D01*
X7286666Y-10997380D01*
X7334285Y-11021190D01*
X7429523Y-11021190D01*
X7477142Y-10997380D01*
X7500952Y-10973571D01*
X7524761Y-10925952D01*
X7524761Y-10521190D01*
X7739047Y-10568809D02*
X7762857Y-10545000D01*
X7810476Y-10521190D01*
X7929523Y-10521190D01*
X7977142Y-10545000D01*
X8000952Y-10568809D01*
X8024761Y-10616428D01*
X8024761Y-10664047D01*
X8000952Y-10735476D01*
X7715238Y-11021190D01*
X8024761Y-11021190D01*
%TO.C,R1*%
D12*
X7553333Y-7800952D02*
X7420000Y-7610476D01*
X7324761Y-7800952D02*
X7324761Y-7400952D01*
X7477142Y-7400952D01*
X7515238Y-7420000D01*
X7534285Y-7439047D01*
X7553333Y-7477142D01*
X7553333Y-7534285D01*
X7534285Y-7572380D01*
X7515238Y-7591428D01*
X7477142Y-7610476D01*
X7324761Y-7610476D01*
X7934285Y-7800952D02*
X7705714Y-7800952D01*
X7820000Y-7800952D02*
X7820000Y-7400952D01*
X7781904Y-7458095D01*
X7743809Y-7496190D01*
X7705714Y-7515238D01*
%TD*%
M02*
