%TF.GenerationSoftware,KiCad,Pcbnew,5.1.7+dfsg1-1~bpo10+1*%
%TF.CreationDate,Date%
%TF.ProjectId,ProMicro_BUS,50726f4d-6963-4726-9f5f-4255532e6b69,v1.4*%
%TF.SameCoordinates,Original*%
%TF.FileFunction,Soldermask,Bot*%
%TF.FilePolarity,Negative*%
%FSLAX46Y46*%
G04 Gerber Fmt 4.6, Leading zero omitted, Abs format (unit mm)*
G04 Created by KiCad*
%MOMM*%
%LPD*%
G01*
G04 APERTURE LIST*
%ADD10R,2.100000X2.100000*%
%ADD11C,2.100000*%
%ADD12C,0.100000*%
%ADD13R,1.000000X1.500000*%
G04 APERTURE END LIST*
D10*
%TO.C,A1*%
X0Y0D03*
D11*
X0Y-2540000D03*
X0Y-5080000D03*
X15240000Y-27940000D03*
X0Y-7620000D03*
X15240000Y-25400000D03*
X0Y-10160000D03*
X15240000Y-22860000D03*
X0Y-12700000D03*
X15240000Y-20320000D03*
X0Y-15240000D03*
X15240000Y-17780000D03*
X0Y-17780000D03*
X15240000Y-15240000D03*
X0Y-20320000D03*
X15240000Y-12700000D03*
X0Y-22860000D03*
X15240000Y-10160000D03*
X0Y-25400000D03*
X15240000Y-7620000D03*
X0Y-27940000D03*
X15240000Y-5080000D03*
X15240000Y-2540000D03*
X15240000Y0D03*
%TD*%
D12*
%TO.C,JP3*%
G36*
X7130000Y-27190000D02*
G01*
X7680000Y-27190000D01*
X7680000Y-27190602D01*
X7704534Y-27190602D01*
X7753365Y-27195412D01*
X7801490Y-27204984D01*
X7848445Y-27219228D01*
X7893778Y-27238005D01*
X7937051Y-27261136D01*
X7977850Y-27288396D01*
X8015779Y-27319524D01*
X8050476Y-27354221D01*
X8081604Y-27392150D01*
X8108864Y-27432949D01*
X8131995Y-27476222D01*
X8150772Y-27521555D01*
X8165016Y-27568510D01*
X8174588Y-27616635D01*
X8179398Y-27665466D01*
X8179398Y-27690000D01*
X8180000Y-27690000D01*
X8180000Y-28190000D01*
X8179398Y-28190000D01*
X8179398Y-28214534D01*
X8174588Y-28263365D01*
X8165016Y-28311490D01*
X8150772Y-28358445D01*
X8131995Y-28403778D01*
X8108864Y-28447051D01*
X8081604Y-28487850D01*
X8050476Y-28525779D01*
X8015779Y-28560476D01*
X7977850Y-28591604D01*
X7937051Y-28618864D01*
X7893778Y-28641995D01*
X7848445Y-28660772D01*
X7801490Y-28675016D01*
X7753365Y-28684588D01*
X7704534Y-28689398D01*
X7680000Y-28689398D01*
X7680000Y-28690000D01*
X7130000Y-28690000D01*
X7130000Y-27190000D01*
G37*
D13*
X6380000Y-27940000D03*
D12*
G36*
X5080000Y-28689398D02*
G01*
X5055466Y-28689398D01*
X5006635Y-28684588D01*
X4958510Y-28675016D01*
X4911555Y-28660772D01*
X4866222Y-28641995D01*
X4822949Y-28618864D01*
X4782150Y-28591604D01*
X4744221Y-28560476D01*
X4709524Y-28525779D01*
X4678396Y-28487850D01*
X4651136Y-28447051D01*
X4628005Y-28403778D01*
X4609228Y-28358445D01*
X4594984Y-28311490D01*
X4585412Y-28263365D01*
X4580602Y-28214534D01*
X4580602Y-28190000D01*
X4580000Y-28190000D01*
X4580000Y-27690000D01*
X4580602Y-27690000D01*
X4580602Y-27665466D01*
X4585412Y-27616635D01*
X4594984Y-27568510D01*
X4609228Y-27521555D01*
X4628005Y-27476222D01*
X4651136Y-27432949D01*
X4678396Y-27392150D01*
X4709524Y-27354221D01*
X4744221Y-27319524D01*
X4782150Y-27288396D01*
X4822949Y-27261136D01*
X4866222Y-27238005D01*
X4911555Y-27219228D01*
X4958510Y-27204984D01*
X5006635Y-27195412D01*
X5055466Y-27190602D01*
X5080000Y-27190602D01*
X5080000Y-27190000D01*
X5630000Y-27190000D01*
X5630000Y-28690000D01*
X5080000Y-28690000D01*
X5080000Y-28689398D01*
G37*
%TD*%
%TO.C,JP1*%
G36*
X3060000Y-8370000D02*
G01*
X2510000Y-8370000D01*
X2510000Y-8369398D01*
X2485466Y-8369398D01*
X2436635Y-8364588D01*
X2388510Y-8355016D01*
X2341555Y-8340772D01*
X2296222Y-8321995D01*
X2252949Y-8298864D01*
X2212150Y-8271604D01*
X2174221Y-8240476D01*
X2139524Y-8205779D01*
X2108396Y-8167850D01*
X2081136Y-8127051D01*
X2058005Y-8083778D01*
X2039228Y-8038445D01*
X2024984Y-7991490D01*
X2015412Y-7943365D01*
X2010602Y-7894534D01*
X2010602Y-7870000D01*
X2010000Y-7870000D01*
X2010000Y-7370000D01*
X2010602Y-7370000D01*
X2010602Y-7345466D01*
X2015412Y-7296635D01*
X2024984Y-7248510D01*
X2039228Y-7201555D01*
X2058005Y-7156222D01*
X2081136Y-7112949D01*
X2108396Y-7072150D01*
X2139524Y-7034221D01*
X2174221Y-6999524D01*
X2212150Y-6968396D01*
X2252949Y-6941136D01*
X2296222Y-6918005D01*
X2341555Y-6899228D01*
X2388510Y-6884984D01*
X2436635Y-6875412D01*
X2485466Y-6870602D01*
X2510000Y-6870602D01*
X2510000Y-6870000D01*
X3060000Y-6870000D01*
X3060000Y-8370000D01*
G37*
D13*
X3810000Y-7620000D03*
D12*
G36*
X5110000Y-6870602D02*
G01*
X5134534Y-6870602D01*
X5183365Y-6875412D01*
X5231490Y-6884984D01*
X5278445Y-6899228D01*
X5323778Y-6918005D01*
X5367051Y-6941136D01*
X5407850Y-6968396D01*
X5445779Y-6999524D01*
X5480476Y-7034221D01*
X5511604Y-7072150D01*
X5538864Y-7112949D01*
X5561995Y-7156222D01*
X5580772Y-7201555D01*
X5595016Y-7248510D01*
X5604588Y-7296635D01*
X5609398Y-7345466D01*
X5609398Y-7370000D01*
X5610000Y-7370000D01*
X5610000Y-7870000D01*
X5609398Y-7870000D01*
X5609398Y-7894534D01*
X5604588Y-7943365D01*
X5595016Y-7991490D01*
X5580772Y-8038445D01*
X5561995Y-8083778D01*
X5538864Y-8127051D01*
X5511604Y-8167850D01*
X5480476Y-8205779D01*
X5445779Y-8240476D01*
X5407850Y-8271604D01*
X5367051Y-8298864D01*
X5323778Y-8321995D01*
X5278445Y-8340772D01*
X5231490Y-8355016D01*
X5183365Y-8364588D01*
X5134534Y-8369398D01*
X5110000Y-8369398D01*
X5110000Y-8370000D01*
X4560000Y-8370000D01*
X4560000Y-6870000D01*
X5110000Y-6870000D01*
X5110000Y-6870602D01*
G37*
%TD*%
%TO.C,JP2*%
G36*
X4560000Y-4330000D02*
G01*
X5110000Y-4330000D01*
X5110000Y-4330602D01*
X5134534Y-4330602D01*
X5183365Y-4335412D01*
X5231490Y-4344984D01*
X5278445Y-4359228D01*
X5323778Y-4378005D01*
X5367051Y-4401136D01*
X5407850Y-4428396D01*
X5445779Y-4459524D01*
X5480476Y-4494221D01*
X5511604Y-4532150D01*
X5538864Y-4572949D01*
X5561995Y-4616222D01*
X5580772Y-4661555D01*
X5595016Y-4708510D01*
X5604588Y-4756635D01*
X5609398Y-4805466D01*
X5609398Y-4830000D01*
X5610000Y-4830000D01*
X5610000Y-5330000D01*
X5609398Y-5330000D01*
X5609398Y-5354534D01*
X5604588Y-5403365D01*
X5595016Y-5451490D01*
X5580772Y-5498445D01*
X5561995Y-5543778D01*
X5538864Y-5587051D01*
X5511604Y-5627850D01*
X5480476Y-5665779D01*
X5445779Y-5700476D01*
X5407850Y-5731604D01*
X5367051Y-5758864D01*
X5323778Y-5781995D01*
X5278445Y-5800772D01*
X5231490Y-5815016D01*
X5183365Y-5824588D01*
X5134534Y-5829398D01*
X5110000Y-5829398D01*
X5110000Y-5830000D01*
X4560000Y-5830000D01*
X4560000Y-4330000D01*
G37*
D13*
X3810000Y-5080000D03*
D12*
G36*
X2510000Y-5829398D02*
G01*
X2485466Y-5829398D01*
X2436635Y-5824588D01*
X2388510Y-5815016D01*
X2341555Y-5800772D01*
X2296222Y-5781995D01*
X2252949Y-5758864D01*
X2212150Y-5731604D01*
X2174221Y-5700476D01*
X2139524Y-5665779D01*
X2108396Y-5627850D01*
X2081136Y-5587051D01*
X2058005Y-5543778D01*
X2039228Y-5498445D01*
X2024984Y-5451490D01*
X2015412Y-5403365D01*
X2010602Y-5354534D01*
X2010602Y-5330000D01*
X2010000Y-5330000D01*
X2010000Y-4830000D01*
X2010602Y-4830000D01*
X2010602Y-4805466D01*
X2015412Y-4756635D01*
X2024984Y-4708510D01*
X2039228Y-4661555D01*
X2058005Y-4616222D01*
X2081136Y-4572949D01*
X2108396Y-4532150D01*
X2139524Y-4494221D01*
X2174221Y-4459524D01*
X2212150Y-4428396D01*
X2252949Y-4401136D01*
X2296222Y-4378005D01*
X2341555Y-4359228D01*
X2388510Y-4344984D01*
X2436635Y-4335412D01*
X2485466Y-4330602D01*
X2510000Y-4330602D01*
X2510000Y-4330000D01*
X3060000Y-4330000D01*
X3060000Y-5830000D01*
X2510000Y-5830000D01*
X2510000Y-5829398D01*
G37*
%TD*%
D11*
%TO.C,J1*%
X10160000Y-2540000D03*
X7620000Y-2540000D03*
D10*
X5080000Y-2540000D03*
%TD*%
M02*
