M48
; DRILL file {KiCad 5.1.7+dfsg1-1~bpo10+1} date Sun Nov 22 15:45:01 2020
; FORMAT={-:-/ absolute / metric / decimal}
; #@! TF.CreationDate,2020-11-22T15:45:01+00:00
; #@! TF.GenerationSoftware,Kicad,Pcbnew,5.1.7+dfsg1-1~bpo10+1
; #@! TF.FileFunction,Plated,1,2,PTH
FMAT,2
METRIC
T1C0.200
T2C0.300
T3C1.100
T4C1.400
%
G90
G05
T1
X3.81Y-6.35
X5.588Y-22.733
X5.715Y-18.415
X6.35Y-4.445
X6.832Y-6.375
X6.985Y-5.08
X6.985Y-15.875
X6.985Y-21.336
X8.255Y-15.875
X8.255Y-21.844
X8.407Y-6.324
X9.525Y-18.415
X10.16Y-22.098
X10.668Y-19.527
X13.716Y-14.605
X13.843Y-18.415
T2
X1.27Y-16.51
X1.27Y-21.59
X2.921Y-25.4
X4.445Y0.0
X4.572Y-19.685
X4.699Y-13.208
X4.699Y-14.478
X5.715Y-9.525
X5.715Y-11.049
X5.715Y-15.875
X7.239Y-17.399
X8.89Y0.0
X9.144Y-16.256
X9.525Y-12.954
X9.779Y-11.049
X10.16Y-25.4
X10.668Y-14.605
X10.668Y-17.78
X10.795Y-5.08
X10.795Y-8.89
X11.707Y-11.557
X12.344Y-25.4
X12.7Y0.0
X12.7Y-5.08
X12.7Y-8.89
X12.7Y-12.7
T3
X5.08Y-2.54
X7.62Y-2.54
X10.16Y-2.54
T4
X0.0Y0.0
X0.0Y-2.54
X0.0Y-5.08
X0.0Y-7.62
X0.0Y-10.16
X0.0Y-12.7
X0.0Y-15.24
X0.0Y-17.78
X0.0Y-20.32
X0.0Y-22.86
X0.0Y-25.4
X0.0Y-27.94
X15.24Y0.0
X15.24Y-2.54
X15.24Y-5.08
X15.24Y-7.62
X15.24Y-10.16
X15.24Y-12.7
X15.24Y-15.24
X15.24Y-17.78
X15.24Y-20.32
X15.24Y-22.86
X15.24Y-25.4
X15.24Y-27.94
T0
M30
