%TF.GenerationSoftware,KiCad,Pcbnew,5.1.9+dfsg1-1~bpo10+1*%
%TF.CreationDate,Date%
%TF.ProjectId,LOG,4c4f472e-6b69-4636-9164-5f7063625858,v1.3*%
%TF.SameCoordinates,Original*%
%TF.FileFunction,Legend,Bot*%
%TF.FilePolarity,Positive*%
%FSLAX46Y46*%
G04 Gerber Fmt 4.6, Leading zero omitted, Abs format (unit mm)*
G04 Created by KiCad*
%MOMM*%
%LPD*%
G01*
G04 APERTURE LIST*
%ADD10C,0.200000*%
%ADD11C,0.250000*%
%ADD12C,0.010000*%
%ADD13C,0.120000*%
G04 APERTURE END LIST*
D10*
X21151904Y11474286D02*
X21951904Y11207620D01*
X21151904Y10940953D01*
X21532857Y10407620D02*
X21570952Y10293334D01*
X21609047Y10255239D01*
X21685238Y10217143D01*
X21799523Y10217143D01*
X21875714Y10255239D01*
X21913809Y10293334D01*
X21951904Y10369524D01*
X21951904Y10674286D01*
X21151904Y10674286D01*
X21151904Y10407620D01*
X21190000Y10331429D01*
X21228095Y10293334D01*
X21304285Y10255239D01*
X21380476Y10255239D01*
X21456666Y10293334D01*
X21494761Y10331429D01*
X21532857Y10407620D01*
X21532857Y10674286D01*
X21723333Y9912381D02*
X21723333Y9531429D01*
X21951904Y9988572D02*
X21151904Y9721905D01*
X21951904Y9455239D01*
X21151904Y9302858D02*
X21151904Y8845715D01*
X21951904Y9074286D02*
X21151904Y9074286D01*
X7220000Y3149524D02*
X7181904Y3225715D01*
X7181904Y3340000D01*
X7220000Y3454286D01*
X7296190Y3530477D01*
X7372380Y3568572D01*
X7524761Y3606667D01*
X7639047Y3606667D01*
X7791428Y3568572D01*
X7867619Y3530477D01*
X7943809Y3454286D01*
X7981904Y3340000D01*
X7981904Y3263810D01*
X7943809Y3149524D01*
X7905714Y3111429D01*
X7639047Y3111429D01*
X7639047Y3263810D01*
X7981904Y2768572D02*
X7181904Y2768572D01*
X7981904Y2311429D01*
X7181904Y2311429D01*
X7981904Y1930477D02*
X7181904Y1930477D01*
X7181904Y1740000D01*
X7220000Y1625715D01*
X7296190Y1549524D01*
X7372380Y1511429D01*
X7524761Y1473334D01*
X7639047Y1473334D01*
X7791428Y1511429D01*
X7867619Y1549524D01*
X7943809Y1625715D01*
X7981904Y1740000D01*
X7981904Y1930477D01*
X10483809Y3511429D02*
X10521904Y3397143D01*
X10521904Y3206667D01*
X10483809Y3130477D01*
X10445714Y3092381D01*
X10369523Y3054286D01*
X10293333Y3054286D01*
X10217142Y3092381D01*
X10179047Y3130477D01*
X10140952Y3206667D01*
X10102857Y3359048D01*
X10064761Y3435239D01*
X10026666Y3473334D01*
X9950476Y3511429D01*
X9874285Y3511429D01*
X9798095Y3473334D01*
X9760000Y3435239D01*
X9721904Y3359048D01*
X9721904Y3168572D01*
X9760000Y3054286D01*
X10521904Y2711429D02*
X9721904Y2711429D01*
X9721904Y2520953D01*
X9760000Y2406667D01*
X9836190Y2330477D01*
X9912380Y2292381D01*
X10064761Y2254286D01*
X10179047Y2254286D01*
X10331428Y2292381D01*
X10407619Y2330477D01*
X10483809Y2406667D01*
X10521904Y2520953D01*
X10521904Y2711429D01*
X10293333Y1949524D02*
X10293333Y1568572D01*
X10521904Y2025715D02*
X9721904Y1759048D01*
X10521904Y1492381D01*
X13023809Y3492381D02*
X13061904Y3378096D01*
X13061904Y3187620D01*
X13023809Y3111429D01*
X12985714Y3073334D01*
X12909523Y3035239D01*
X12833333Y3035239D01*
X12757142Y3073334D01*
X12719047Y3111429D01*
X12680952Y3187620D01*
X12642857Y3340000D01*
X12604761Y3416191D01*
X12566666Y3454286D01*
X12490476Y3492381D01*
X12414285Y3492381D01*
X12338095Y3454286D01*
X12300000Y3416191D01*
X12261904Y3340000D01*
X12261904Y3149524D01*
X12300000Y3035239D01*
X12985714Y2235239D02*
X13023809Y2273334D01*
X13061904Y2387620D01*
X13061904Y2463810D01*
X13023809Y2578096D01*
X12947619Y2654286D01*
X12871428Y2692381D01*
X12719047Y2730477D01*
X12604761Y2730477D01*
X12452380Y2692381D01*
X12376190Y2654286D01*
X12300000Y2578096D01*
X12261904Y2463810D01*
X12261904Y2387620D01*
X12300000Y2273334D01*
X12338095Y2235239D01*
X13061904Y1511429D02*
X13061904Y1892381D01*
X12261904Y1892381D01*
X18141904Y3663810D02*
X17341904Y3663810D01*
X17341904Y3359048D01*
X17380000Y3282858D01*
X17418095Y3244762D01*
X17494285Y3206667D01*
X17608571Y3206667D01*
X17684761Y3244762D01*
X17722857Y3282858D01*
X17760952Y3359048D01*
X17760952Y3663810D01*
X17341904Y2940000D02*
X18141904Y2749524D01*
X17570476Y2597143D01*
X18141904Y2444762D01*
X17341904Y2254286D01*
X18141904Y1949524D02*
X17341904Y1949524D01*
X17913333Y1682858D01*
X17341904Y1416191D01*
X18141904Y1416191D01*
X20262857Y3206667D02*
X20300952Y3092381D01*
X20339047Y3054286D01*
X20415238Y3016191D01*
X20529523Y3016191D01*
X20605714Y3054286D01*
X20643809Y3092381D01*
X20681904Y3168572D01*
X20681904Y3473334D01*
X19881904Y3473334D01*
X19881904Y3206667D01*
X19920000Y3130477D01*
X19958095Y3092381D01*
X20034285Y3054286D01*
X20110476Y3054286D01*
X20186666Y3092381D01*
X20224761Y3130477D01*
X20262857Y3206667D01*
X20262857Y3473334D01*
X19881904Y2787620D02*
X19881904Y2330477D01*
X20681904Y2559048D02*
X19881904Y2559048D01*
X20681904Y2063810D02*
X19881904Y2063810D01*
X20681904Y1606667D01*
X19881904Y1606667D01*
X23221904Y3263810D02*
X22421904Y3263810D01*
X23221904Y2882858D02*
X22421904Y2882858D01*
X23221904Y2425715D01*
X22421904Y2425715D01*
X22421904Y2159048D02*
X22421904Y1701905D01*
X23221904Y1930477D02*
X22421904Y1930477D01*
X28225714Y3054286D02*
X28263809Y3092381D01*
X28301904Y3206667D01*
X28301904Y3282858D01*
X28263809Y3397143D01*
X28187619Y3473334D01*
X28111428Y3511429D01*
X27959047Y3549524D01*
X27844761Y3549524D01*
X27692380Y3511429D01*
X27616190Y3473334D01*
X27540000Y3397143D01*
X27501904Y3282858D01*
X27501904Y3206667D01*
X27540000Y3092381D01*
X27578095Y3054286D01*
X28263809Y2749524D02*
X28301904Y2635239D01*
X28301904Y2444762D01*
X28263809Y2368572D01*
X28225714Y2330477D01*
X28149523Y2292381D01*
X28073333Y2292381D01*
X27997142Y2330477D01*
X27959047Y2368572D01*
X27920952Y2444762D01*
X27882857Y2597143D01*
X27844761Y2673334D01*
X27806666Y2711429D01*
X27730476Y2749524D01*
X27654285Y2749524D01*
X27578095Y2711429D01*
X27540000Y2673334D01*
X27501904Y2597143D01*
X27501904Y2406667D01*
X27540000Y2292381D01*
X28301904Y1530477D02*
X28301904Y1987620D01*
X28301904Y1759048D02*
X27501904Y1759048D01*
X27616190Y1835239D01*
X27692380Y1911429D01*
X27730476Y1987620D01*
X28225714Y13214286D02*
X28263809Y13252381D01*
X28301904Y13366667D01*
X28301904Y13442858D01*
X28263809Y13557143D01*
X28187619Y13633334D01*
X28111428Y13671429D01*
X27959047Y13709524D01*
X27844761Y13709524D01*
X27692380Y13671429D01*
X27616190Y13633334D01*
X27540000Y13557143D01*
X27501904Y13442858D01*
X27501904Y13366667D01*
X27540000Y13252381D01*
X27578095Y13214286D01*
X28263809Y12909524D02*
X28301904Y12795239D01*
X28301904Y12604762D01*
X28263809Y12528572D01*
X28225714Y12490477D01*
X28149523Y12452381D01*
X28073333Y12452381D01*
X27997142Y12490477D01*
X27959047Y12528572D01*
X27920952Y12604762D01*
X27882857Y12757143D01*
X27844761Y12833334D01*
X27806666Y12871429D01*
X27730476Y12909524D01*
X27654285Y12909524D01*
X27578095Y12871429D01*
X27540000Y12833334D01*
X27501904Y12757143D01*
X27501904Y12566667D01*
X27540000Y12452381D01*
X27501904Y11957143D02*
X27501904Y11880953D01*
X27540000Y11804762D01*
X27578095Y11766667D01*
X27654285Y11728572D01*
X27806666Y11690477D01*
X27997142Y11690477D01*
X28149523Y11728572D01*
X28225714Y11766667D01*
X28263809Y11804762D01*
X28301904Y11880953D01*
X28301904Y11957143D01*
X28263809Y12033334D01*
X28225714Y12071429D01*
X28149523Y12109524D01*
X27997142Y12147620D01*
X27806666Y12147620D01*
X27654285Y12109524D01*
X27578095Y12071429D01*
X27540000Y12033334D01*
X27501904Y11957143D01*
X25685714Y13461905D02*
X25723809Y13500000D01*
X25761904Y13614286D01*
X25761904Y13690477D01*
X25723809Y13804762D01*
X25647619Y13880953D01*
X25571428Y13919048D01*
X25419047Y13957143D01*
X25304761Y13957143D01*
X25152380Y13919048D01*
X25076190Y13880953D01*
X25000000Y13804762D01*
X24961904Y13690477D01*
X24961904Y13614286D01*
X25000000Y13500000D01*
X25038095Y13461905D01*
X24961904Y12966667D02*
X24961904Y12814286D01*
X25000000Y12738096D01*
X25076190Y12661905D01*
X25228571Y12623810D01*
X25495238Y12623810D01*
X25647619Y12661905D01*
X25723809Y12738096D01*
X25761904Y12814286D01*
X25761904Y12966667D01*
X25723809Y13042858D01*
X25647619Y13119048D01*
X25495238Y13157143D01*
X25228571Y13157143D01*
X25076190Y13119048D01*
X25000000Y13042858D01*
X24961904Y12966667D01*
X25761904Y12280953D02*
X24961904Y12280953D01*
X24961904Y11976191D01*
X25000000Y11900000D01*
X25038095Y11861905D01*
X25114285Y11823810D01*
X25228571Y11823810D01*
X25304761Y11861905D01*
X25342857Y11900000D01*
X25380952Y11976191D01*
X25380952Y12280953D01*
X25761904Y11480953D02*
X24961904Y11480953D01*
X23780714Y13461905D02*
X23818809Y13500000D01*
X23856904Y13614286D01*
X23856904Y13690477D01*
X23818809Y13804762D01*
X23742619Y13880953D01*
X23666428Y13919048D01*
X23514047Y13957143D01*
X23399761Y13957143D01*
X23247380Y13919048D01*
X23171190Y13880953D01*
X23095000Y13804762D01*
X23056904Y13690477D01*
X23056904Y13614286D01*
X23095000Y13500000D01*
X23133095Y13461905D01*
X23856904Y13119048D02*
X23056904Y13119048D01*
X23856904Y12738096D02*
X23056904Y12738096D01*
X23056904Y12433334D01*
X23095000Y12357143D01*
X23133095Y12319048D01*
X23209285Y12280953D01*
X23323571Y12280953D01*
X23399761Y12319048D01*
X23437857Y12357143D01*
X23475952Y12433334D01*
X23475952Y12738096D01*
X23056904Y11785715D02*
X23056904Y11633334D01*
X23095000Y11557143D01*
X23171190Y11480953D01*
X23323571Y11442858D01*
X23590238Y11442858D01*
X23742619Y11480953D01*
X23818809Y11557143D01*
X23856904Y11633334D01*
X23856904Y11785715D01*
X23818809Y11861905D01*
X23742619Y11938096D01*
X23590238Y11976191D01*
X23323571Y11976191D01*
X23171190Y11938096D01*
X23095000Y11861905D01*
X23056904Y11785715D01*
X20008809Y13728572D02*
X20046904Y13614286D01*
X20046904Y13423810D01*
X20008809Y13347620D01*
X19970714Y13309524D01*
X19894523Y13271429D01*
X19818333Y13271429D01*
X19742142Y13309524D01*
X19704047Y13347620D01*
X19665952Y13423810D01*
X19627857Y13576191D01*
X19589761Y13652381D01*
X19551666Y13690477D01*
X19475476Y13728572D01*
X19399285Y13728572D01*
X19323095Y13690477D01*
X19285000Y13652381D01*
X19246904Y13576191D01*
X19246904Y13385715D01*
X19285000Y13271429D01*
X19970714Y12471429D02*
X20008809Y12509524D01*
X20046904Y12623810D01*
X20046904Y12700000D01*
X20008809Y12814286D01*
X19932619Y12890477D01*
X19856428Y12928572D01*
X19704047Y12966667D01*
X19589761Y12966667D01*
X19437380Y12928572D01*
X19361190Y12890477D01*
X19285000Y12814286D01*
X19246904Y12700000D01*
X19246904Y12623810D01*
X19285000Y12509524D01*
X19323095Y12471429D01*
X20046904Y12128572D02*
X19246904Y12128572D01*
X20046904Y11671429D02*
X19589761Y12014286D01*
X19246904Y11671429D02*
X19704047Y12128572D01*
X7181904Y13690477D02*
X7181904Y13195239D01*
X7486666Y13461905D01*
X7486666Y13347620D01*
X7524761Y13271429D01*
X7562857Y13233334D01*
X7639047Y13195239D01*
X7829523Y13195239D01*
X7905714Y13233334D01*
X7943809Y13271429D01*
X7981904Y13347620D01*
X7981904Y13576191D01*
X7943809Y13652381D01*
X7905714Y13690477D01*
X7181904Y12966667D02*
X7981904Y12700000D01*
X7181904Y12433334D01*
X7181904Y12242858D02*
X7181904Y11747620D01*
X7486666Y12014286D01*
X7486666Y11900000D01*
X7524761Y11823810D01*
X7562857Y11785715D01*
X7639047Y11747620D01*
X7829523Y11747620D01*
X7905714Y11785715D01*
X7943809Y11823810D01*
X7981904Y11900000D01*
X7981904Y12128572D01*
X7943809Y12204762D01*
X7905714Y12242858D01*
X5441904Y13138096D02*
X5060952Y13404762D01*
X5441904Y13595239D02*
X4641904Y13595239D01*
X4641904Y13290477D01*
X4680000Y13214286D01*
X4718095Y13176191D01*
X4794285Y13138096D01*
X4908571Y13138096D01*
X4984761Y13176191D01*
X5022857Y13214286D01*
X5060952Y13290477D01*
X5060952Y13595239D01*
X5403809Y12833334D02*
X5441904Y12719048D01*
X5441904Y12528572D01*
X5403809Y12452381D01*
X5365714Y12414286D01*
X5289523Y12376191D01*
X5213333Y12376191D01*
X5137142Y12414286D01*
X5099047Y12452381D01*
X5060952Y12528572D01*
X5022857Y12680953D01*
X4984761Y12757143D01*
X4946666Y12795239D01*
X4870476Y12833334D01*
X4794285Y12833334D01*
X4718095Y12795239D01*
X4680000Y12757143D01*
X4641904Y12680953D01*
X4641904Y12490477D01*
X4680000Y12376191D01*
X4641904Y12147620D02*
X4641904Y11690477D01*
X5441904Y11919048D02*
X4641904Y11919048D01*
X2140000Y13309524D02*
X2101904Y13385715D01*
X2101904Y13500000D01*
X2140000Y13614286D01*
X2216190Y13690477D01*
X2292380Y13728572D01*
X2444761Y13766667D01*
X2559047Y13766667D01*
X2711428Y13728572D01*
X2787619Y13690477D01*
X2863809Y13614286D01*
X2901904Y13500000D01*
X2901904Y13423810D01*
X2863809Y13309524D01*
X2825714Y13271429D01*
X2559047Y13271429D01*
X2559047Y13423810D01*
X2901904Y12928572D02*
X2101904Y12928572D01*
X2901904Y12471429D01*
X2101904Y12471429D01*
X2901904Y12090477D02*
X2101904Y12090477D01*
X2101904Y11900000D01*
X2140000Y11785715D01*
X2216190Y11709524D01*
X2292380Y11671429D01*
X2444761Y11633334D01*
X2559047Y11633334D01*
X2711428Y11671429D01*
X2787619Y11709524D01*
X2863809Y11785715D01*
X2901904Y11900000D01*
X2901904Y12090477D01*
D11*
X8655595Y5655715D02*
X8655595Y6322381D01*
X8655595Y5750953D02*
X8703214Y5703334D01*
X8798452Y5655715D01*
X8941309Y5655715D01*
X9036547Y5703334D01*
X9084166Y5798572D01*
X9084166Y6322381D01*
X9941309Y6274762D02*
X9846071Y6322381D01*
X9655595Y6322381D01*
X9560357Y6274762D01*
X9512738Y6179524D01*
X9512738Y5798572D01*
X9560357Y5703334D01*
X9655595Y5655715D01*
X9846071Y5655715D01*
X9941309Y5703334D01*
X9988928Y5798572D01*
X9988928Y5893810D01*
X9512738Y5989048D01*
X10417500Y6322381D02*
X10417500Y5655715D01*
X10417500Y5846191D02*
X10465119Y5750953D01*
X10512738Y5703334D01*
X10607976Y5655715D01*
X10703214Y5655715D01*
X11465119Y6322381D02*
X11465119Y5322381D01*
X11465119Y6274762D02*
X11369880Y6322381D01*
X11179404Y6322381D01*
X11084166Y6274762D01*
X11036547Y6227143D01*
X10988928Y6131905D01*
X10988928Y5846191D01*
X11036547Y5750953D01*
X11084166Y5703334D01*
X11179404Y5655715D01*
X11369880Y5655715D01*
X11465119Y5703334D01*
X11846071Y5655715D02*
X12084166Y6322381D01*
X12322261Y5655715D02*
X12084166Y6322381D01*
X11988928Y6560477D01*
X11941309Y6608096D01*
X11846071Y6655715D01*
X12655595Y6274762D02*
X12750833Y6322381D01*
X12941309Y6322381D01*
X13036547Y6274762D01*
X13084166Y6179524D01*
X13084166Y6131905D01*
X13036547Y6036667D01*
X12941309Y5989048D01*
X12798452Y5989048D01*
X12703214Y5941429D01*
X12655595Y5846191D01*
X12655595Y5798572D01*
X12703214Y5703334D01*
X12798452Y5655715D01*
X12941309Y5655715D01*
X13036547Y5703334D01*
X13941309Y6274762D02*
X13846071Y6322381D01*
X13655595Y6322381D01*
X13560357Y6274762D01*
X13512738Y6227143D01*
X13465119Y6131905D01*
X13465119Y5846191D01*
X13512738Y5750953D01*
X13560357Y5703334D01*
X13655595Y5655715D01*
X13846071Y5655715D01*
X13941309Y5703334D01*
X14512738Y6322381D02*
X14417500Y6274762D01*
X14369880Y6227143D01*
X14322261Y6131905D01*
X14322261Y5846191D01*
X14369880Y5750953D01*
X14417500Y5703334D01*
X14512738Y5655715D01*
X14655595Y5655715D01*
X14750833Y5703334D01*
X14798452Y5750953D01*
X14846071Y5846191D01*
X14846071Y6131905D01*
X14798452Y6227143D01*
X14750833Y6274762D01*
X14655595Y6322381D01*
X14512738Y6322381D01*
X15703214Y5655715D02*
X15703214Y6322381D01*
X15274642Y5655715D02*
X15274642Y6179524D01*
X15322261Y6274762D01*
X15417500Y6322381D01*
X15560357Y6322381D01*
X15655595Y6274762D01*
X15703214Y6227143D01*
X16036547Y5655715D02*
X16417500Y5655715D01*
X16179404Y5322381D02*
X16179404Y6179524D01*
X16227023Y6274762D01*
X16322261Y6322381D01*
X16417500Y6322381D01*
X16750833Y6227143D02*
X16798452Y6274762D01*
X16750833Y6322381D01*
X16703214Y6274762D01*
X16750833Y6227143D01*
X16750833Y6322381D01*
X17655595Y5655715D02*
X17655595Y6465239D01*
X17607976Y6560477D01*
X17560357Y6608096D01*
X17465119Y6655715D01*
X17322261Y6655715D01*
X17227023Y6608096D01*
X17655595Y6274762D02*
X17560357Y6322381D01*
X17369880Y6322381D01*
X17274642Y6274762D01*
X17227023Y6227143D01*
X17179404Y6131905D01*
X17179404Y5846191D01*
X17227023Y5750953D01*
X17274642Y5703334D01*
X17369880Y5655715D01*
X17560357Y5655715D01*
X17655595Y5703334D01*
X18131785Y6322381D02*
X18131785Y5655715D01*
X18131785Y5322381D02*
X18084166Y5370000D01*
X18131785Y5417620D01*
X18179404Y5370000D01*
X18131785Y5322381D01*
X18131785Y5417620D01*
X18465119Y5655715D02*
X18846071Y5655715D01*
X18607976Y5322381D02*
X18607976Y6179524D01*
X18655595Y6274762D01*
X18750833Y6322381D01*
X18846071Y6322381D01*
X19179404Y6322381D02*
X19179404Y5322381D01*
X19607976Y6322381D02*
X19607976Y5798572D01*
X19560357Y5703334D01*
X19465119Y5655715D01*
X19322261Y5655715D01*
X19227023Y5703334D01*
X19179404Y5750953D01*
X20512738Y5655715D02*
X20512738Y6322381D01*
X20084166Y5655715D02*
X20084166Y6179524D01*
X20131785Y6274762D01*
X20227023Y6322381D01*
X20369880Y6322381D01*
X20465119Y6274762D01*
X20512738Y6227143D01*
X20988928Y6322381D02*
X20988928Y5322381D01*
X20988928Y5703334D02*
X21084166Y5655715D01*
X21274642Y5655715D01*
X21369880Y5703334D01*
X21417500Y5750953D01*
X21465119Y5846191D01*
X21465119Y6131905D01*
X21417500Y6227143D01*
X21369880Y6274762D01*
X21274642Y6322381D01*
X21084166Y6322381D01*
X20988928Y6274762D01*
X21893690Y6227143D02*
X21941309Y6274762D01*
X21893690Y6322381D01*
X21846071Y6274762D01*
X21893690Y6227143D01*
X21893690Y6322381D01*
X22369880Y6322381D02*
X22369880Y5655715D01*
X22369880Y5322381D02*
X22322261Y5370000D01*
X22369880Y5417620D01*
X22417500Y5370000D01*
X22369880Y5322381D01*
X22369880Y5417620D01*
X22988928Y6322381D02*
X22893690Y6274762D01*
X22846071Y6227143D01*
X22798452Y6131905D01*
X22798452Y5846191D01*
X22846071Y5750953D01*
X22893690Y5703334D01*
X22988928Y5655715D01*
X23131785Y5655715D01*
X23227023Y5703334D01*
X23274642Y5750953D01*
X23322261Y5846191D01*
X23322261Y6131905D01*
X23274642Y6227143D01*
X23227023Y6274762D01*
X23131785Y6322381D01*
X22988928Y6322381D01*
X24465119Y5274762D02*
X23607976Y6560477D01*
X8655595Y8072381D02*
X8655595Y7072381D01*
X9036547Y7072381D01*
X9131785Y7120000D01*
X9179404Y7167620D01*
X9227023Y7262858D01*
X9227023Y7405715D01*
X9179404Y7500953D01*
X9131785Y7548572D01*
X9036547Y7596191D01*
X8655595Y7596191D01*
X9655595Y8072381D02*
X9655595Y7405715D01*
X9655595Y7596191D02*
X9703214Y7500953D01*
X9750833Y7453334D01*
X9846071Y7405715D01*
X9941309Y7405715D01*
X10417500Y8072381D02*
X10322261Y8024762D01*
X10274642Y7977143D01*
X10227023Y7881905D01*
X10227023Y7596191D01*
X10274642Y7500953D01*
X10322261Y7453334D01*
X10417500Y7405715D01*
X10560357Y7405715D01*
X10655595Y7453334D01*
X10703214Y7500953D01*
X10750833Y7596191D01*
X10750833Y7881905D01*
X10703214Y7977143D01*
X10655595Y8024762D01*
X10560357Y8072381D01*
X10417500Y8072381D01*
X11179404Y8072381D02*
X11179404Y7072381D01*
X11512738Y7786667D01*
X11846071Y7072381D01*
X11846071Y8072381D01*
X12322261Y8072381D02*
X12322261Y7405715D01*
X12322261Y7072381D02*
X12274642Y7120000D01*
X12322261Y7167620D01*
X12369880Y7120000D01*
X12322261Y7072381D01*
X12322261Y7167620D01*
X13227023Y8024762D02*
X13131785Y8072381D01*
X12941309Y8072381D01*
X12846071Y8024762D01*
X12798452Y7977143D01*
X12750833Y7881905D01*
X12750833Y7596191D01*
X12798452Y7500953D01*
X12846071Y7453334D01*
X12941309Y7405715D01*
X13131785Y7405715D01*
X13227023Y7453334D01*
X13655595Y8072381D02*
X13655595Y7405715D01*
X13655595Y7596191D02*
X13703214Y7500953D01*
X13750833Y7453334D01*
X13846071Y7405715D01*
X13941309Y7405715D01*
X14417500Y8072381D02*
X14322261Y8024762D01*
X14274642Y7977143D01*
X14227023Y7881905D01*
X14227023Y7596191D01*
X14274642Y7500953D01*
X14322261Y7453334D01*
X14417500Y7405715D01*
X14560357Y7405715D01*
X14655595Y7453334D01*
X14703214Y7500953D01*
X14750833Y7596191D01*
X14750833Y7881905D01*
X14703214Y7977143D01*
X14655595Y8024762D01*
X14560357Y8072381D01*
X14417500Y8072381D01*
X15893690Y7024762D02*
X15036547Y8310477D01*
X16703214Y8072381D02*
X16227023Y8072381D01*
X16227023Y7072381D01*
X17227023Y7072381D02*
X17417500Y7072381D01*
X17512738Y7120000D01*
X17607976Y7215239D01*
X17655595Y7405715D01*
X17655595Y7739048D01*
X17607976Y7929524D01*
X17512738Y8024762D01*
X17417500Y8072381D01*
X17227023Y8072381D01*
X17131785Y8024762D01*
X17036547Y7929524D01*
X16988928Y7739048D01*
X16988928Y7405715D01*
X17036547Y7215239D01*
X17131785Y7120000D01*
X17227023Y7072381D01*
X18607976Y7120000D02*
X18512738Y7072381D01*
X18369880Y7072381D01*
X18227023Y7120000D01*
X18131785Y7215239D01*
X18084166Y7310477D01*
X18036547Y7500953D01*
X18036547Y7643810D01*
X18084166Y7834286D01*
X18131785Y7929524D01*
X18227023Y8024762D01*
X18369880Y8072381D01*
X18465119Y8072381D01*
X18607976Y8024762D01*
X18655595Y7977143D01*
X18655595Y7643810D01*
X18465119Y7643810D01*
X8560357Y9155715D02*
X8798452Y9822381D01*
X9036547Y9155715D01*
X9941309Y9822381D02*
X9369880Y9822381D01*
X9655595Y9822381D02*
X9655595Y8822381D01*
X9560357Y8965239D01*
X9465119Y9060477D01*
X9369880Y9108096D01*
X10369880Y9727143D02*
X10417500Y9774762D01*
X10369880Y9822381D01*
X10322261Y9774762D01*
X10369880Y9727143D01*
X10369880Y9822381D01*
X10750833Y8822381D02*
X11369880Y8822381D01*
X11036547Y9203334D01*
X11179404Y9203334D01*
X11274642Y9250953D01*
X11322261Y9298572D01*
X11369880Y9393810D01*
X11369880Y9631905D01*
X11322261Y9727143D01*
X11274642Y9774762D01*
X11179404Y9822381D01*
X10893690Y9822381D01*
X10798452Y9774762D01*
X10750833Y9727143D01*
D12*
%TO.C,LOGO1*%
G36*
X4365814Y5088931D02*
G01*
X4449635Y5533555D01*
X4758920Y5661053D01*
X5068206Y5788551D01*
X5439246Y5536246D01*
X5543157Y5465996D01*
X5637087Y5403272D01*
X5716652Y5350938D01*
X5777470Y5311857D01*
X5815157Y5288893D01*
X5825421Y5283942D01*
X5843910Y5296676D01*
X5883420Y5331882D01*
X5939522Y5385062D01*
X6007787Y5451718D01*
X6083786Y5527354D01*
X6163092Y5607472D01*
X6241275Y5687574D01*
X6313907Y5763164D01*
X6376559Y5829745D01*
X6424803Y5882818D01*
X6454210Y5917887D01*
X6461241Y5929623D01*
X6451123Y5951260D01*
X6422759Y5998662D01*
X6379129Y6067193D01*
X6323218Y6152215D01*
X6258006Y6249093D01*
X6220219Y6304350D01*
X6151343Y6405248D01*
X6090140Y6496299D01*
X6039578Y6572970D01*
X6002628Y6630728D01*
X5982258Y6665043D01*
X5979197Y6672254D01*
X5986136Y6692748D01*
X6005051Y6740513D01*
X6033087Y6808832D01*
X6067391Y6890989D01*
X6105109Y6980270D01*
X6143387Y7069958D01*
X6179370Y7153338D01*
X6210206Y7223694D01*
X6233039Y7274310D01*
X6245017Y7298471D01*
X6245724Y7299422D01*
X6264531Y7304036D01*
X6314618Y7314328D01*
X6390793Y7329287D01*
X6487865Y7347901D01*
X6600643Y7369159D01*
X6666442Y7381418D01*
X6786950Y7404362D01*
X6895797Y7426195D01*
X6987476Y7445722D01*
X7056481Y7461748D01*
X7097304Y7473079D01*
X7105511Y7476674D01*
X7113548Y7501006D01*
X7120033Y7555959D01*
X7124970Y7635108D01*
X7128364Y7732026D01*
X7130218Y7840287D01*
X7130538Y7953465D01*
X7129327Y8065135D01*
X7126590Y8168868D01*
X7122331Y8258241D01*
X7116555Y8326826D01*
X7109267Y8368197D01*
X7104895Y8376810D01*
X7078764Y8387133D01*
X7023393Y8401892D01*
X6946107Y8419352D01*
X6854230Y8437780D01*
X6822158Y8443741D01*
X6667524Y8472066D01*
X6545375Y8494876D01*
X6451673Y8513080D01*
X6382384Y8527583D01*
X6333471Y8539292D01*
X6300897Y8549115D01*
X6280628Y8557956D01*
X6268626Y8566724D01*
X6266947Y8568457D01*
X6250184Y8596371D01*
X6224614Y8650695D01*
X6192788Y8724777D01*
X6157260Y8811965D01*
X6120583Y8905608D01*
X6085311Y8999052D01*
X6053996Y9085647D01*
X6029193Y9158740D01*
X6013454Y9211678D01*
X6009332Y9237811D01*
X6009676Y9238726D01*
X6023641Y9260086D01*
X6055322Y9307084D01*
X6101391Y9374827D01*
X6158518Y9458423D01*
X6223373Y9552982D01*
X6241843Y9579854D01*
X6307699Y9677275D01*
X6365650Y9766163D01*
X6412538Y9841412D01*
X6445207Y9897920D01*
X6460500Y9930581D01*
X6461241Y9934593D01*
X6448392Y9955684D01*
X6412888Y9997464D01*
X6359293Y10055445D01*
X6292171Y10125135D01*
X6216087Y10202045D01*
X6135604Y10281683D01*
X6055287Y10359561D01*
X5979699Y10431186D01*
X5913405Y10492070D01*
X5860969Y10537721D01*
X5826955Y10563650D01*
X5817545Y10567883D01*
X5795643Y10557912D01*
X5750800Y10531020D01*
X5690321Y10491736D01*
X5643789Y10460117D01*
X5559475Y10402098D01*
X5459626Y10333784D01*
X5359473Y10265579D01*
X5305627Y10229075D01*
X5123371Y10105800D01*
X4970381Y10188520D01*
X4900682Y10224759D01*
X4841414Y10252926D01*
X4801311Y10268991D01*
X4791103Y10271226D01*
X4778829Y10254722D01*
X4754613Y10208082D01*
X4720263Y10135609D01*
X4677588Y10041606D01*
X4628394Y9930374D01*
X4574490Y9806215D01*
X4517684Y9673432D01*
X4459782Y9536327D01*
X4402593Y9399202D01*
X4347924Y9266358D01*
X4297584Y9142098D01*
X4253380Y9030725D01*
X4217119Y8936539D01*
X4190609Y8863844D01*
X4175658Y8816941D01*
X4173254Y8800833D01*
X4192311Y8780286D01*
X4234036Y8746933D01*
X4289706Y8707702D01*
X4294378Y8704599D01*
X4438264Y8589423D01*
X4554283Y8455053D01*
X4641430Y8305784D01*
X4698699Y8145913D01*
X4725086Y7979737D01*
X4719585Y7811552D01*
X4681190Y7645655D01*
X4608895Y7486342D01*
X4587626Y7451487D01*
X4476996Y7310737D01*
X4346302Y7197714D01*
X4200064Y7113003D01*
X4042808Y7057194D01*
X3879057Y7030874D01*
X3713333Y7034630D01*
X3550162Y7069050D01*
X3394065Y7134723D01*
X3249567Y7232235D01*
X3204869Y7271813D01*
X3091112Y7395703D01*
X3008218Y7526124D01*
X2951356Y7672315D01*
X2919687Y7817088D01*
X2911869Y7979860D01*
X2937938Y8143440D01*
X2995245Y8302298D01*
X3081144Y8450906D01*
X3192986Y8583735D01*
X3328123Y8695256D01*
X3345883Y8707011D01*
X3402150Y8745508D01*
X3444923Y8778863D01*
X3465372Y8800160D01*
X3465669Y8800833D01*
X3461279Y8823871D01*
X3443876Y8876157D01*
X3415268Y8953390D01*
X3377265Y9051268D01*
X3331674Y9165491D01*
X3280303Y9291758D01*
X3224962Y9425767D01*
X3167458Y9563218D01*
X3109601Y9699808D01*
X3053198Y9831237D01*
X3000058Y9953205D01*
X2951990Y10061409D01*
X2910801Y10151549D01*
X2878301Y10219323D01*
X2856297Y10260430D01*
X2847436Y10271226D01*
X2820360Y10262819D01*
X2769697Y10240272D01*
X2704183Y10207613D01*
X2668159Y10188520D01*
X2515168Y10105800D01*
X2332912Y10229075D01*
X2239875Y10292228D01*
X2138015Y10361727D01*
X2042562Y10427165D01*
X1994750Y10460117D01*
X1927505Y10505273D01*
X1870564Y10541057D01*
X1831354Y10562938D01*
X1818619Y10567563D01*
X1800083Y10555085D01*
X1759059Y10520252D01*
X1699525Y10466678D01*
X1625458Y10397983D01*
X1540835Y10317781D01*
X1487315Y10266286D01*
X1393681Y10174286D01*
X1312759Y10091999D01*
X1247823Y10022945D01*
X1202142Y9970644D01*
X1178989Y9938616D01*
X1176768Y9932116D01*
X1187076Y9907394D01*
X1215561Y9857405D01*
X1259063Y9787212D01*
X1314423Y9701875D01*
X1378480Y9606456D01*
X1396697Y9579854D01*
X1463073Y9483167D01*
X1522622Y9396117D01*
X1572016Y9323595D01*
X1607925Y9270493D01*
X1627019Y9241703D01*
X1628864Y9238726D01*
X1626105Y9215782D01*
X1611462Y9165336D01*
X1587487Y9094041D01*
X1556734Y9008547D01*
X1521756Y8915507D01*
X1485107Y8821574D01*
X1449339Y8733399D01*
X1417006Y8657634D01*
X1390662Y8600931D01*
X1372858Y8569943D01*
X1371593Y8568457D01*
X1360706Y8559601D01*
X1342318Y8550843D01*
X1312394Y8541277D01*
X1266897Y8529996D01*
X1201791Y8516093D01*
X1113039Y8498663D01*
X996607Y8476798D01*
X848458Y8449591D01*
X816382Y8443741D01*
X721314Y8425374D01*
X638435Y8407405D01*
X575070Y8391569D01*
X538542Y8379600D01*
X533644Y8376810D01*
X525573Y8352072D01*
X519013Y8296790D01*
X513967Y8217389D01*
X510441Y8120296D01*
X508439Y8011938D01*
X507964Y7898740D01*
X509023Y7787128D01*
X511618Y7683529D01*
X515754Y7594368D01*
X521437Y7526072D01*
X528669Y7485066D01*
X533029Y7476674D01*
X557302Y7468208D01*
X612574Y7454435D01*
X693338Y7436550D01*
X794088Y7415748D01*
X909317Y7393223D01*
X972098Y7381418D01*
X1091213Y7359151D01*
X1197435Y7338979D01*
X1285573Y7321915D01*
X1350434Y7308969D01*
X1386826Y7301155D01*
X1392816Y7299422D01*
X1402939Y7279890D01*
X1424338Y7232843D01*
X1454161Y7165003D01*
X1489555Y7083091D01*
X1527668Y6993828D01*
X1565647Y6903935D01*
X1600640Y6820135D01*
X1629794Y6749147D01*
X1650257Y6697694D01*
X1659177Y6672497D01*
X1659343Y6671396D01*
X1649231Y6651519D01*
X1620883Y6605777D01*
X1577277Y6538717D01*
X1521394Y6454884D01*
X1456213Y6358826D01*
X1418321Y6303650D01*
X1349275Y6202481D01*
X1287950Y6110630D01*
X1237337Y6032744D01*
X1200429Y5973469D01*
X1180218Y5937451D01*
X1177299Y5929377D01*
X1189847Y5910584D01*
X1224537Y5870457D01*
X1276937Y5813493D01*
X1342616Y5744185D01*
X1417144Y5667031D01*
X1496087Y5586525D01*
X1575017Y5507163D01*
X1649500Y5433440D01*
X1715106Y5369852D01*
X1767404Y5320894D01*
X1801961Y5291061D01*
X1813522Y5283942D01*
X1832346Y5293953D01*
X1877369Y5322078D01*
X1944213Y5365454D01*
X2028501Y5421218D01*
X2125856Y5486506D01*
X2199293Y5536246D01*
X2570333Y5788551D01*
X3188905Y5533555D01*
X3272725Y5088931D01*
X3356546Y4644307D01*
X4281994Y4644307D01*
X4365814Y5088931D01*
G37*
X4365814Y5088931D02*
X4449635Y5533555D01*
X4758920Y5661053D01*
X5068206Y5788551D01*
X5439246Y5536246D01*
X5543157Y5465996D01*
X5637087Y5403272D01*
X5716652Y5350938D01*
X5777470Y5311857D01*
X5815157Y5288893D01*
X5825421Y5283942D01*
X5843910Y5296676D01*
X5883420Y5331882D01*
X5939522Y5385062D01*
X6007787Y5451718D01*
X6083786Y5527354D01*
X6163092Y5607472D01*
X6241275Y5687574D01*
X6313907Y5763164D01*
X6376559Y5829745D01*
X6424803Y5882818D01*
X6454210Y5917887D01*
X6461241Y5929623D01*
X6451123Y5951260D01*
X6422759Y5998662D01*
X6379129Y6067193D01*
X6323218Y6152215D01*
X6258006Y6249093D01*
X6220219Y6304350D01*
X6151343Y6405248D01*
X6090140Y6496299D01*
X6039578Y6572970D01*
X6002628Y6630728D01*
X5982258Y6665043D01*
X5979197Y6672254D01*
X5986136Y6692748D01*
X6005051Y6740513D01*
X6033087Y6808832D01*
X6067391Y6890989D01*
X6105109Y6980270D01*
X6143387Y7069958D01*
X6179370Y7153338D01*
X6210206Y7223694D01*
X6233039Y7274310D01*
X6245017Y7298471D01*
X6245724Y7299422D01*
X6264531Y7304036D01*
X6314618Y7314328D01*
X6390793Y7329287D01*
X6487865Y7347901D01*
X6600643Y7369159D01*
X6666442Y7381418D01*
X6786950Y7404362D01*
X6895797Y7426195D01*
X6987476Y7445722D01*
X7056481Y7461748D01*
X7097304Y7473079D01*
X7105511Y7476674D01*
X7113548Y7501006D01*
X7120033Y7555959D01*
X7124970Y7635108D01*
X7128364Y7732026D01*
X7130218Y7840287D01*
X7130538Y7953465D01*
X7129327Y8065135D01*
X7126590Y8168868D01*
X7122331Y8258241D01*
X7116555Y8326826D01*
X7109267Y8368197D01*
X7104895Y8376810D01*
X7078764Y8387133D01*
X7023393Y8401892D01*
X6946107Y8419352D01*
X6854230Y8437780D01*
X6822158Y8443741D01*
X6667524Y8472066D01*
X6545375Y8494876D01*
X6451673Y8513080D01*
X6382384Y8527583D01*
X6333471Y8539292D01*
X6300897Y8549115D01*
X6280628Y8557956D01*
X6268626Y8566724D01*
X6266947Y8568457D01*
X6250184Y8596371D01*
X6224614Y8650695D01*
X6192788Y8724777D01*
X6157260Y8811965D01*
X6120583Y8905608D01*
X6085311Y8999052D01*
X6053996Y9085647D01*
X6029193Y9158740D01*
X6013454Y9211678D01*
X6009332Y9237811D01*
X6009676Y9238726D01*
X6023641Y9260086D01*
X6055322Y9307084D01*
X6101391Y9374827D01*
X6158518Y9458423D01*
X6223373Y9552982D01*
X6241843Y9579854D01*
X6307699Y9677275D01*
X6365650Y9766163D01*
X6412538Y9841412D01*
X6445207Y9897920D01*
X6460500Y9930581D01*
X6461241Y9934593D01*
X6448392Y9955684D01*
X6412888Y9997464D01*
X6359293Y10055445D01*
X6292171Y10125135D01*
X6216087Y10202045D01*
X6135604Y10281683D01*
X6055287Y10359561D01*
X5979699Y10431186D01*
X5913405Y10492070D01*
X5860969Y10537721D01*
X5826955Y10563650D01*
X5817545Y10567883D01*
X5795643Y10557912D01*
X5750800Y10531020D01*
X5690321Y10491736D01*
X5643789Y10460117D01*
X5559475Y10402098D01*
X5459626Y10333784D01*
X5359473Y10265579D01*
X5305627Y10229075D01*
X5123371Y10105800D01*
X4970381Y10188520D01*
X4900682Y10224759D01*
X4841414Y10252926D01*
X4801311Y10268991D01*
X4791103Y10271226D01*
X4778829Y10254722D01*
X4754613Y10208082D01*
X4720263Y10135609D01*
X4677588Y10041606D01*
X4628394Y9930374D01*
X4574490Y9806215D01*
X4517684Y9673432D01*
X4459782Y9536327D01*
X4402593Y9399202D01*
X4347924Y9266358D01*
X4297584Y9142098D01*
X4253380Y9030725D01*
X4217119Y8936539D01*
X4190609Y8863844D01*
X4175658Y8816941D01*
X4173254Y8800833D01*
X4192311Y8780286D01*
X4234036Y8746933D01*
X4289706Y8707702D01*
X4294378Y8704599D01*
X4438264Y8589423D01*
X4554283Y8455053D01*
X4641430Y8305784D01*
X4698699Y8145913D01*
X4725086Y7979737D01*
X4719585Y7811552D01*
X4681190Y7645655D01*
X4608895Y7486342D01*
X4587626Y7451487D01*
X4476996Y7310737D01*
X4346302Y7197714D01*
X4200064Y7113003D01*
X4042808Y7057194D01*
X3879057Y7030874D01*
X3713333Y7034630D01*
X3550162Y7069050D01*
X3394065Y7134723D01*
X3249567Y7232235D01*
X3204869Y7271813D01*
X3091112Y7395703D01*
X3008218Y7526124D01*
X2951356Y7672315D01*
X2919687Y7817088D01*
X2911869Y7979860D01*
X2937938Y8143440D01*
X2995245Y8302298D01*
X3081144Y8450906D01*
X3192986Y8583735D01*
X3328123Y8695256D01*
X3345883Y8707011D01*
X3402150Y8745508D01*
X3444923Y8778863D01*
X3465372Y8800160D01*
X3465669Y8800833D01*
X3461279Y8823871D01*
X3443876Y8876157D01*
X3415268Y8953390D01*
X3377265Y9051268D01*
X3331674Y9165491D01*
X3280303Y9291758D01*
X3224962Y9425767D01*
X3167458Y9563218D01*
X3109601Y9699808D01*
X3053198Y9831237D01*
X3000058Y9953205D01*
X2951990Y10061409D01*
X2910801Y10151549D01*
X2878301Y10219323D01*
X2856297Y10260430D01*
X2847436Y10271226D01*
X2820360Y10262819D01*
X2769697Y10240272D01*
X2704183Y10207613D01*
X2668159Y10188520D01*
X2515168Y10105800D01*
X2332912Y10229075D01*
X2239875Y10292228D01*
X2138015Y10361727D01*
X2042562Y10427165D01*
X1994750Y10460117D01*
X1927505Y10505273D01*
X1870564Y10541057D01*
X1831354Y10562938D01*
X1818619Y10567563D01*
X1800083Y10555085D01*
X1759059Y10520252D01*
X1699525Y10466678D01*
X1625458Y10397983D01*
X1540835Y10317781D01*
X1487315Y10266286D01*
X1393681Y10174286D01*
X1312759Y10091999D01*
X1247823Y10022945D01*
X1202142Y9970644D01*
X1178989Y9938616D01*
X1176768Y9932116D01*
X1187076Y9907394D01*
X1215561Y9857405D01*
X1259063Y9787212D01*
X1314423Y9701875D01*
X1378480Y9606456D01*
X1396697Y9579854D01*
X1463073Y9483167D01*
X1522622Y9396117D01*
X1572016Y9323595D01*
X1607925Y9270493D01*
X1627019Y9241703D01*
X1628864Y9238726D01*
X1626105Y9215782D01*
X1611462Y9165336D01*
X1587487Y9094041D01*
X1556734Y9008547D01*
X1521756Y8915507D01*
X1485107Y8821574D01*
X1449339Y8733399D01*
X1417006Y8657634D01*
X1390662Y8600931D01*
X1372858Y8569943D01*
X1371593Y8568457D01*
X1360706Y8559601D01*
X1342318Y8550843D01*
X1312394Y8541277D01*
X1266897Y8529996D01*
X1201791Y8516093D01*
X1113039Y8498663D01*
X996607Y8476798D01*
X848458Y8449591D01*
X816382Y8443741D01*
X721314Y8425374D01*
X638435Y8407405D01*
X575070Y8391569D01*
X538542Y8379600D01*
X533644Y8376810D01*
X525573Y8352072D01*
X519013Y8296790D01*
X513967Y8217389D01*
X510441Y8120296D01*
X508439Y8011938D01*
X507964Y7898740D01*
X509023Y7787128D01*
X511618Y7683529D01*
X515754Y7594368D01*
X521437Y7526072D01*
X528669Y7485066D01*
X533029Y7476674D01*
X557302Y7468208D01*
X612574Y7454435D01*
X693338Y7436550D01*
X794088Y7415748D01*
X909317Y7393223D01*
X972098Y7381418D01*
X1091213Y7359151D01*
X1197435Y7338979D01*
X1285573Y7321915D01*
X1350434Y7308969D01*
X1386826Y7301155D01*
X1392816Y7299422D01*
X1402939Y7279890D01*
X1424338Y7232843D01*
X1454161Y7165003D01*
X1489555Y7083091D01*
X1527668Y6993828D01*
X1565647Y6903935D01*
X1600640Y6820135D01*
X1629794Y6749147D01*
X1650257Y6697694D01*
X1659177Y6672497D01*
X1659343Y6671396D01*
X1649231Y6651519D01*
X1620883Y6605777D01*
X1577277Y6538717D01*
X1521394Y6454884D01*
X1456213Y6358826D01*
X1418321Y6303650D01*
X1349275Y6202481D01*
X1287950Y6110630D01*
X1237337Y6032744D01*
X1200429Y5973469D01*
X1180218Y5937451D01*
X1177299Y5929377D01*
X1189847Y5910584D01*
X1224537Y5870457D01*
X1276937Y5813493D01*
X1342616Y5744185D01*
X1417144Y5667031D01*
X1496087Y5586525D01*
X1575017Y5507163D01*
X1649500Y5433440D01*
X1715106Y5369852D01*
X1767404Y5320894D01*
X1801961Y5291061D01*
X1813522Y5283942D01*
X1832346Y5293953D01*
X1877369Y5322078D01*
X1944213Y5365454D01*
X2028501Y5421218D01*
X2125856Y5486506D01*
X2199293Y5536246D01*
X2570333Y5788551D01*
X3188905Y5533555D01*
X3272725Y5088931D01*
X3356546Y4644307D01*
X4281994Y4644307D01*
X4365814Y5088931D01*
D13*
%TO.C,TP1*%
X22790000Y12700000D02*
G75*
G03*
X22790000Y12700000I-1200000J0D01*
G01*
%TD*%
M02*
