%TF.GenerationSoftware,KiCad,Pcbnew,5.1.6+dfsg1-1~bpo10+1*%
%TF.CreationDate,Date%
%TF.ProjectId,ProMicro_LOG,50726f4d-6963-4726-9f5f-4c4f472e6b69,v1.2*%
%TF.SameCoordinates,Original*%
%TF.FileFunction,Soldermask,Top*%
%TF.FilePolarity,Negative*%
%FSLAX45Y45*%
G04 Gerber Fmt 4.5, Leading zero omitted, Abs format (unit mm)*
G04 Created by KiCad*
%MOMM*%
%LPD*%
G01*
G04 APERTURE LIST*
%TA.AperFunction,Profile*%
%ADD10C,0.100000*%
%TD*%
%ADD11R,1.600000X1.600000*%
%ADD12O,1.600000X1.600000*%
%ADD13C,0.150000*%
%ADD14R,1.500000X1.000000*%
%ADD15C,1.600000*%
%ADD16R,1.900000X1.350000*%
%ADD17R,1.200000X1.000000*%
%ADD18R,1.550000X1.350000*%
%ADD19R,1.170000X1.800000*%
%ADD20R,0.850000X1.100000*%
%ADD21R,0.750000X1.100000*%
G04 APERTURE END LIST*
D10*
X-63500Y127000D02*
G75*
G03*
X-127000Y63500I0J-63500D01*
G01*
X1651000Y63500D02*
G75*
G03*
X1587500Y127000I-63500J0D01*
G01*
X1587500Y-2921000D02*
G75*
G03*
X1651000Y-2857500I0J63500D01*
G01*
X-127000Y-2857500D02*
G75*
G03*
X-63500Y-2921000I63500J0D01*
G01*
X-127000Y63500D02*
X-127000Y-2857500D01*
X1587500Y127000D02*
X-63500Y127000D01*
X1651000Y-2857500D02*
X1651000Y63500D01*
X-63500Y-2921000D02*
X1587500Y-2921000D01*
G36*
G01*
X352500Y-1803625D02*
X352500Y-1752375D01*
G75*
G02*
X374375Y-1730500I21875J0D01*
G01*
X418125Y-1730500D01*
G75*
G02*
X440000Y-1752375I0J-21875D01*
G01*
X440000Y-1803625D01*
G75*
G02*
X418125Y-1825500I-21875J0D01*
G01*
X374375Y-1825500D01*
G75*
G02*
X352500Y-1803625I0J21875D01*
G01*
G37*
G36*
G01*
X195000Y-1803625D02*
X195000Y-1752375D01*
G75*
G02*
X216875Y-1730500I21875J0D01*
G01*
X260625Y-1730500D01*
G75*
G02*
X282500Y-1752375I0J-21875D01*
G01*
X282500Y-1803625D01*
G75*
G02*
X260625Y-1825500I-21875J0D01*
G01*
X216875Y-1825500D01*
G75*
G02*
X195000Y-1803625I0J21875D01*
G01*
G37*
D11*
X0Y0D03*
D12*
X0Y-254000D03*
X0Y-508000D03*
X1524000Y-2794000D03*
X0Y-762000D03*
X1524000Y-2540000D03*
X0Y-1016000D03*
X1524000Y-2286000D03*
X0Y-1270000D03*
X1524000Y-2032000D03*
X0Y-1524000D03*
X1524000Y-1778000D03*
X0Y-1778000D03*
X1524000Y-1524000D03*
X0Y-2032000D03*
X1524000Y-1270000D03*
X0Y-2286000D03*
X1524000Y-1016000D03*
X0Y-2540000D03*
X1524000Y-762000D03*
X0Y-2794000D03*
X1524000Y-508000D03*
X1524000Y-254000D03*
X1524000Y0D03*
G36*
G01*
X1180875Y-2765500D02*
X1232125Y-2765500D01*
G75*
G02*
X1254000Y-2787375I0J-21875D01*
G01*
X1254000Y-2831125D01*
G75*
G02*
X1232125Y-2853000I-21875J0D01*
G01*
X1180875Y-2853000D01*
G75*
G02*
X1159000Y-2831125I0J21875D01*
G01*
X1159000Y-2787375D01*
G75*
G02*
X1180875Y-2765500I21875J0D01*
G01*
G37*
G36*
G01*
X1180875Y-2608000D02*
X1232125Y-2608000D01*
G75*
G02*
X1254000Y-2629875I0J-21875D01*
G01*
X1254000Y-2673625D01*
G75*
G02*
X1232125Y-2695500I-21875J0D01*
G01*
X1180875Y-2695500D01*
G75*
G02*
X1159000Y-2673625I0J21875D01*
G01*
X1159000Y-2629875D01*
G75*
G02*
X1180875Y-2608000I21875J0D01*
G01*
G37*
D13*
G36*
X392500Y-2742000D02*
G01*
X392500Y-2797000D01*
X392440Y-2797000D01*
X392440Y-2799453D01*
X391959Y-2804336D01*
X391002Y-2809149D01*
X389577Y-2813844D01*
X387699Y-2818378D01*
X385386Y-2822705D01*
X382660Y-2826785D01*
X379548Y-2830578D01*
X376078Y-2834048D01*
X372285Y-2837160D01*
X368205Y-2839886D01*
X363878Y-2842199D01*
X359344Y-2844077D01*
X354649Y-2845502D01*
X349836Y-2846459D01*
X344953Y-2846940D01*
X342500Y-2846940D01*
X342500Y-2847000D01*
X292500Y-2847000D01*
X292500Y-2846940D01*
X290047Y-2846940D01*
X285164Y-2846459D01*
X280351Y-2845502D01*
X275656Y-2844077D01*
X271122Y-2842199D01*
X266795Y-2839886D01*
X262715Y-2837160D01*
X258922Y-2834048D01*
X255452Y-2830578D01*
X252340Y-2826785D01*
X249614Y-2822705D01*
X247300Y-2818378D01*
X245423Y-2813844D01*
X243998Y-2809149D01*
X243041Y-2804336D01*
X242560Y-2799453D01*
X242560Y-2797000D01*
X242500Y-2797000D01*
X242500Y-2742000D01*
X392500Y-2742000D01*
G37*
D14*
X317500Y-2667000D03*
D13*
G36*
X242560Y-2537000D02*
G01*
X242560Y-2534547D01*
X243041Y-2529664D01*
X243998Y-2524851D01*
X245423Y-2520156D01*
X247300Y-2515622D01*
X249614Y-2511295D01*
X252340Y-2507215D01*
X255452Y-2503422D01*
X258922Y-2499952D01*
X262715Y-2496840D01*
X266795Y-2494114D01*
X271122Y-2491801D01*
X275656Y-2489923D01*
X280351Y-2488498D01*
X285164Y-2487541D01*
X290047Y-2487060D01*
X292500Y-2487060D01*
X292500Y-2487000D01*
X342500Y-2487000D01*
X342500Y-2487060D01*
X344953Y-2487060D01*
X349836Y-2487541D01*
X354649Y-2488498D01*
X359344Y-2489923D01*
X363878Y-2491801D01*
X368205Y-2494114D01*
X372285Y-2496840D01*
X376078Y-2499952D01*
X379548Y-2503422D01*
X382660Y-2507215D01*
X385386Y-2511295D01*
X387699Y-2515622D01*
X389577Y-2520156D01*
X391002Y-2524851D01*
X391959Y-2529664D01*
X392440Y-2534547D01*
X392440Y-2537000D01*
X392500Y-2537000D01*
X392500Y-2592000D01*
X242500Y-2592000D01*
X242500Y-2537000D01*
X242560Y-2537000D01*
G37*
G36*
G01*
X1168625Y-1806500D02*
X1117375Y-1806500D01*
G75*
G02*
X1095500Y-1784625I0J21875D01*
G01*
X1095500Y-1740875D01*
G75*
G02*
X1117375Y-1719000I21875J0D01*
G01*
X1168625Y-1719000D01*
G75*
G02*
X1190500Y-1740875I0J-21875D01*
G01*
X1190500Y-1784625D01*
G75*
G02*
X1168625Y-1806500I-21875J0D01*
G01*
G37*
G36*
G01*
X1168625Y-1964000D02*
X1117375Y-1964000D01*
G75*
G02*
X1095500Y-1942125I0J21875D01*
G01*
X1095500Y-1898375D01*
G75*
G02*
X1117375Y-1876500I21875J0D01*
G01*
X1168625Y-1876500D01*
G75*
G02*
X1190500Y-1898375I0J-21875D01*
G01*
X1190500Y-1942125D01*
G75*
G02*
X1168625Y-1964000I-21875J0D01*
G01*
G37*
G36*
G01*
X1359125Y-1806500D02*
X1307875Y-1806500D01*
G75*
G02*
X1286000Y-1784625I0J21875D01*
G01*
X1286000Y-1740875D01*
G75*
G02*
X1307875Y-1719000I21875J0D01*
G01*
X1359125Y-1719000D01*
G75*
G02*
X1381000Y-1740875I0J-21875D01*
G01*
X1381000Y-1784625D01*
G75*
G02*
X1359125Y-1806500I-21875J0D01*
G01*
G37*
G36*
G01*
X1359125Y-1964000D02*
X1307875Y-1964000D01*
G75*
G02*
X1286000Y-1942125I0J21875D01*
G01*
X1286000Y-1898375D01*
G75*
G02*
X1307875Y-1876500I21875J0D01*
G01*
X1359125Y-1876500D01*
G75*
G02*
X1381000Y-1898375I0J-21875D01*
G01*
X1381000Y-1942125D01*
G75*
G02*
X1359125Y-1964000I-21875J0D01*
G01*
G37*
G36*
G01*
X352500Y-1994125D02*
X352500Y-1942875D01*
G75*
G02*
X374375Y-1921000I21875J0D01*
G01*
X418125Y-1921000D01*
G75*
G02*
X440000Y-1942875I0J-21875D01*
G01*
X440000Y-1994125D01*
G75*
G02*
X418125Y-2016000I-21875J0D01*
G01*
X374375Y-2016000D01*
G75*
G02*
X352500Y-1994125I0J21875D01*
G01*
G37*
G36*
G01*
X195000Y-1994125D02*
X195000Y-1942875D01*
G75*
G02*
X216875Y-1921000I21875J0D01*
G01*
X260625Y-1921000D01*
G75*
G02*
X282500Y-1942875I0J-21875D01*
G01*
X282500Y-1994125D01*
G75*
G02*
X260625Y-2016000I-21875J0D01*
G01*
X216875Y-2016000D01*
G75*
G02*
X195000Y-1994125I0J21875D01*
G01*
G37*
G36*
G01*
X352500Y-2184625D02*
X352500Y-2133375D01*
G75*
G02*
X374375Y-2111500I21875J0D01*
G01*
X418125Y-2111500D01*
G75*
G02*
X440000Y-2133375I0J-21875D01*
G01*
X440000Y-2184625D01*
G75*
G02*
X418125Y-2206500I-21875J0D01*
G01*
X374375Y-2206500D01*
G75*
G02*
X352500Y-2184625I0J21875D01*
G01*
G37*
G36*
G01*
X195000Y-2184625D02*
X195000Y-2133375D01*
G75*
G02*
X216875Y-2111500I21875J0D01*
G01*
X260625Y-2111500D01*
G75*
G02*
X282500Y-2133375I0J-21875D01*
G01*
X282500Y-2184625D01*
G75*
G02*
X260625Y-2206500I-21875J0D01*
G01*
X216875Y-2206500D01*
G75*
G02*
X195000Y-2184625I0J21875D01*
G01*
G37*
G36*
G01*
X352500Y-2375125D02*
X352500Y-2323875D01*
G75*
G02*
X374375Y-2302000I21875J0D01*
G01*
X418125Y-2302000D01*
G75*
G02*
X440000Y-2323875I0J-21875D01*
G01*
X440000Y-2375125D01*
G75*
G02*
X418125Y-2397000I-21875J0D01*
G01*
X374375Y-2397000D01*
G75*
G02*
X352500Y-2375125I0J21875D01*
G01*
G37*
G36*
G01*
X195000Y-2375125D02*
X195000Y-2323875D01*
G75*
G02*
X216875Y-2302000I21875J0D01*
G01*
X260625Y-2302000D01*
G75*
G02*
X282500Y-2323875I0J-21875D01*
G01*
X282500Y-2375125D01*
G75*
G02*
X260625Y-2397000I-21875J0D01*
G01*
X216875Y-2397000D01*
G75*
G02*
X195000Y-2375125I0J21875D01*
G01*
G37*
G36*
G01*
X1171500Y-2387375D02*
X1171500Y-2438625D01*
G75*
G02*
X1149625Y-2460500I-21875J0D01*
G01*
X1105875Y-2460500D01*
G75*
G02*
X1084000Y-2438625I0J21875D01*
G01*
X1084000Y-2387375D01*
G75*
G02*
X1105875Y-2365500I21875J0D01*
G01*
X1149625Y-2365500D01*
G75*
G02*
X1171500Y-2387375I0J-21875D01*
G01*
G37*
G36*
G01*
X1329000Y-2387375D02*
X1329000Y-2438625D01*
G75*
G02*
X1307125Y-2460500I-21875J0D01*
G01*
X1263375Y-2460500D01*
G75*
G02*
X1241500Y-2438625I0J21875D01*
G01*
X1241500Y-2387375D01*
G75*
G02*
X1263375Y-2365500I21875J0D01*
G01*
X1307125Y-2365500D01*
G75*
G02*
X1329000Y-2387375I0J-21875D01*
G01*
G37*
G36*
X646440Y-2795500D02*
G01*
X646440Y-2797953D01*
X645959Y-2802836D01*
X645002Y-2807649D01*
X643577Y-2812344D01*
X641700Y-2816878D01*
X639386Y-2821205D01*
X636660Y-2825285D01*
X633548Y-2829078D01*
X630078Y-2832548D01*
X626285Y-2835660D01*
X622205Y-2838386D01*
X617878Y-2840699D01*
X613345Y-2842577D01*
X608649Y-2844002D01*
X603837Y-2844959D01*
X598953Y-2845440D01*
X596500Y-2845440D01*
X596500Y-2845500D01*
X546500Y-2845500D01*
X546500Y-2845440D01*
X544047Y-2845440D01*
X539164Y-2844959D01*
X534351Y-2844002D01*
X529656Y-2842577D01*
X525122Y-2840699D01*
X520795Y-2838386D01*
X516715Y-2835660D01*
X512922Y-2832548D01*
X509452Y-2829078D01*
X506340Y-2825285D01*
X503614Y-2821205D01*
X501300Y-2816878D01*
X499423Y-2812344D01*
X497998Y-2807649D01*
X497041Y-2802836D01*
X496560Y-2797953D01*
X496560Y-2795500D01*
X496500Y-2795500D01*
X496500Y-2745500D01*
X646500Y-2745500D01*
X646500Y-2795500D01*
X646440Y-2795500D01*
G37*
G36*
X496500Y-2715500D02*
G01*
X496500Y-2665500D01*
X496560Y-2665500D01*
X496560Y-2663047D01*
X497041Y-2658164D01*
X497998Y-2653351D01*
X499423Y-2648656D01*
X501300Y-2644122D01*
X503614Y-2639795D01*
X506340Y-2635715D01*
X509452Y-2631922D01*
X512922Y-2628452D01*
X516715Y-2625340D01*
X520795Y-2622614D01*
X525122Y-2620301D01*
X529656Y-2618423D01*
X534351Y-2616998D01*
X539164Y-2616041D01*
X544047Y-2615560D01*
X546500Y-2615560D01*
X546500Y-2615500D01*
X596500Y-2615500D01*
X596500Y-2615560D01*
X598953Y-2615560D01*
X603837Y-2616041D01*
X608649Y-2616998D01*
X613345Y-2618423D01*
X617878Y-2620301D01*
X622205Y-2622614D01*
X626285Y-2625340D01*
X630078Y-2628452D01*
X633548Y-2631922D01*
X636660Y-2635715D01*
X639386Y-2639795D01*
X641700Y-2644122D01*
X643577Y-2648656D01*
X645002Y-2653351D01*
X645959Y-2658164D01*
X646440Y-2663047D01*
X646440Y-2665500D01*
X646500Y-2665500D01*
X646500Y-2715500D01*
X496500Y-2715500D01*
G37*
G36*
X900440Y-2795500D02*
G01*
X900440Y-2797953D01*
X899959Y-2802836D01*
X899002Y-2807649D01*
X897577Y-2812344D01*
X895699Y-2816878D01*
X893386Y-2821205D01*
X890660Y-2825285D01*
X887548Y-2829078D01*
X884078Y-2832548D01*
X880285Y-2835660D01*
X876205Y-2838386D01*
X871878Y-2840699D01*
X867344Y-2842577D01*
X862649Y-2844002D01*
X857836Y-2844959D01*
X852953Y-2845440D01*
X850500Y-2845440D01*
X850500Y-2845500D01*
X800500Y-2845500D01*
X800500Y-2845440D01*
X798047Y-2845440D01*
X793163Y-2844959D01*
X788351Y-2844002D01*
X783655Y-2842577D01*
X779122Y-2840699D01*
X774795Y-2838386D01*
X770715Y-2835660D01*
X766922Y-2832548D01*
X763452Y-2829078D01*
X760340Y-2825285D01*
X757614Y-2821205D01*
X755300Y-2816878D01*
X753423Y-2812344D01*
X751998Y-2807649D01*
X751041Y-2802836D01*
X750560Y-2797953D01*
X750560Y-2795500D01*
X750500Y-2795500D01*
X750500Y-2745500D01*
X900500Y-2745500D01*
X900500Y-2795500D01*
X900440Y-2795500D01*
G37*
G36*
X750500Y-2715500D02*
G01*
X750500Y-2665500D01*
X750560Y-2665500D01*
X750560Y-2663047D01*
X751041Y-2658164D01*
X751998Y-2653351D01*
X753423Y-2648656D01*
X755300Y-2644122D01*
X757614Y-2639795D01*
X760340Y-2635715D01*
X763452Y-2631922D01*
X766922Y-2628452D01*
X770715Y-2625340D01*
X774795Y-2622614D01*
X779122Y-2620301D01*
X783655Y-2618423D01*
X788351Y-2616998D01*
X793163Y-2616041D01*
X798047Y-2615560D01*
X800500Y-2615560D01*
X800500Y-2615500D01*
X850500Y-2615500D01*
X850500Y-2615560D01*
X852953Y-2615560D01*
X857836Y-2616041D01*
X862649Y-2616998D01*
X867344Y-2618423D01*
X871878Y-2620301D01*
X876205Y-2622614D01*
X880285Y-2625340D01*
X884078Y-2628452D01*
X887548Y-2631922D01*
X890660Y-2635715D01*
X893386Y-2639795D01*
X895699Y-2644122D01*
X897577Y-2648656D01*
X899002Y-2653351D01*
X899959Y-2658164D01*
X900440Y-2663047D01*
X900440Y-2665500D01*
X900500Y-2665500D01*
X900500Y-2715500D01*
X750500Y-2715500D01*
G37*
G36*
G01*
X586500Y-2009000D02*
X556500Y-2009000D01*
G75*
G02*
X541500Y-1994000I0J15000D01*
G01*
X541500Y-1829000D01*
G75*
G02*
X556500Y-1814000I15000J0D01*
G01*
X586500Y-1814000D01*
G75*
G02*
X601500Y-1829000I0J-15000D01*
G01*
X601500Y-1994000D01*
G75*
G02*
X586500Y-2009000I-15000J0D01*
G01*
G37*
G36*
G01*
X713500Y-2009000D02*
X683500Y-2009000D01*
G75*
G02*
X668500Y-1994000I0J15000D01*
G01*
X668500Y-1829000D01*
G75*
G02*
X683500Y-1814000I15000J0D01*
G01*
X713500Y-1814000D01*
G75*
G02*
X728500Y-1829000I0J-15000D01*
G01*
X728500Y-1994000D01*
G75*
G02*
X713500Y-2009000I-15000J0D01*
G01*
G37*
G36*
G01*
X840500Y-2009000D02*
X810500Y-2009000D01*
G75*
G02*
X795500Y-1994000I0J15000D01*
G01*
X795500Y-1829000D01*
G75*
G02*
X810500Y-1814000I15000J0D01*
G01*
X840500Y-1814000D01*
G75*
G02*
X855500Y-1829000I0J-15000D01*
G01*
X855500Y-1994000D01*
G75*
G02*
X840500Y-2009000I-15000J0D01*
G01*
G37*
G36*
G01*
X967500Y-2009000D02*
X937500Y-2009000D01*
G75*
G02*
X922500Y-1994000I0J15000D01*
G01*
X922500Y-1829000D01*
G75*
G02*
X937500Y-1814000I15000J0D01*
G01*
X967500Y-1814000D01*
G75*
G02*
X982500Y-1829000I0J-15000D01*
G01*
X982500Y-1994000D01*
G75*
G02*
X967500Y-2009000I-15000J0D01*
G01*
G37*
G36*
G01*
X967500Y-2504000D02*
X937500Y-2504000D01*
G75*
G02*
X922500Y-2489000I0J15000D01*
G01*
X922500Y-2324000D01*
G75*
G02*
X937500Y-2309000I15000J0D01*
G01*
X967500Y-2309000D01*
G75*
G02*
X982500Y-2324000I0J-15000D01*
G01*
X982500Y-2489000D01*
G75*
G02*
X967500Y-2504000I-15000J0D01*
G01*
G37*
G36*
G01*
X840500Y-2504000D02*
X810500Y-2504000D01*
G75*
G02*
X795500Y-2489000I0J15000D01*
G01*
X795500Y-2324000D01*
G75*
G02*
X810500Y-2309000I15000J0D01*
G01*
X840500Y-2309000D01*
G75*
G02*
X855500Y-2324000I0J-15000D01*
G01*
X855500Y-2489000D01*
G75*
G02*
X840500Y-2504000I-15000J0D01*
G01*
G37*
G36*
G01*
X713500Y-2504000D02*
X683500Y-2504000D01*
G75*
G02*
X668500Y-2489000I0J15000D01*
G01*
X668500Y-2324000D01*
G75*
G02*
X683500Y-2309000I15000J0D01*
G01*
X713500Y-2309000D01*
G75*
G02*
X728500Y-2324000I0J-15000D01*
G01*
X728500Y-2489000D01*
G75*
G02*
X713500Y-2504000I-15000J0D01*
G01*
G37*
G36*
G01*
X586500Y-2504000D02*
X556500Y-2504000D01*
G75*
G02*
X541500Y-2489000I0J15000D01*
G01*
X541500Y-2324000D01*
G75*
G02*
X556500Y-2309000I15000J0D01*
G01*
X586500Y-2309000D01*
G75*
G02*
X601500Y-2324000I0J-15000D01*
G01*
X601500Y-2489000D01*
G75*
G02*
X586500Y-2504000I-15000J0D01*
G01*
G37*
D15*
X1270000Y-2159000D03*
D16*
X1135000Y-1553500D03*
X538000Y-1553500D03*
D17*
X188000Y-1086000D03*
X188000Y-1456000D03*
D18*
X205500Y-483500D03*
D19*
X1337500Y-506000D03*
D20*
X1111500Y-471000D03*
X1001500Y-471000D03*
X891500Y-471000D03*
X781500Y-471000D03*
X671500Y-471000D03*
X561500Y-471000D03*
D21*
X1216500Y-471000D03*
D20*
X451500Y-471000D03*
M02*
