M48
METRIC
T1C0.200
T2C0.300
T3C1.000
%
G90
G05
T1
X-13.97Y10.922
X-12.446Y14.351
X-12.192Y11.176
X-12.065Y18.415
X-10.795Y19.685
X-10.795Y13.97
X-10.795Y0.0
X-10.795Y1.016
X-10.16Y21.717
X-10.16Y10.16
X-10.16Y7.366
X-9.525Y13.97
X-8.89Y10.795
X-8.509Y6.35
X-8.255Y2.413
X-7.62Y15.24
X-7.62Y11.811
X-7.239Y19.558
X-6.35Y10.795
X-5.741Y0.609
X-5.715Y5.7
X-5.715Y1.397
X-5.207Y21.971
X-5.207Y19.685
X-4.445Y1.905
X-3.937Y14.986
X-3.556Y2.54
X-3.175Y16.129
X-2.794Y11.176
X-1.905Y12.7
X-1.905Y0.635
X-1.905Y-0.762
X-1.27Y16.51
T2
X-13.335Y11.43
X-6.985Y20.955
X-2.921Y20.32
T3
X-2.54Y6.35
X-15.24Y27.94
X-15.24Y25.4
X-15.24Y22.86
X-15.24Y20.32
X-15.24Y17.78
X-15.24Y15.24
X-15.24Y12.7
X-15.24Y10.16
X-15.24Y7.62
X-15.24Y5.08
X-15.24Y2.54
X-15.24Y0.0
X0.0Y27.94
X0.0Y25.4
X0.0Y22.86
X0.0Y20.32
X0.0Y17.78
X0.0Y15.24
X0.0Y12.7
X0.0Y10.16
X0.0Y7.62
X0.0Y5.08
X0.0Y2.54
X0.0Y0.0
T0
M30
