%TF.GenerationSoftware,KiCad,Pcbnew,5.1.6+dfsg1-1~bpo10+1*%
%TF.CreationDate,Date%
%TF.ProjectId,ProMicro_LOG,50726f4d-6963-4726-9f5f-4c4f472e6b69,v1.2*%
%TF.SameCoordinates,Original*%
%TF.FileFunction,Legend,Bot*%
%TF.FilePolarity,Positive*%
%FSLAX45Y45*%
G04 Gerber Fmt 4.5, Leading zero omitted, Abs format (unit mm)*
G04 Created by KiCad*
%MOMM*%
%LPD*%
G01*
G04 APERTURE LIST*
%ADD10C,0.200000*%
%ADD11C,0.250000*%
%TA.AperFunction,Profile*%
%ADD12C,0.100000*%
%TD*%
%ADD13C,0.010000*%
%ADD14C,0.120000*%
%ADD15R,1.600000X1.600000*%
%ADD16O,1.600000X1.600000*%
%ADD17C,1.600000*%
G04 APERTURE END LIST*
D10*
X1147429Y-2115190D02*
X1120762Y-2195190D01*
X1094095Y-2115190D01*
X1040762Y-2153286D02*
X1029333Y-2157095D01*
X1025524Y-2160905D01*
X1021714Y-2168524D01*
X1021714Y-2179952D01*
X1025524Y-2187571D01*
X1029333Y-2191381D01*
X1036952Y-2195190D01*
X1067429Y-2195190D01*
X1067429Y-2115190D01*
X1040762Y-2115190D01*
X1033143Y-2119000D01*
X1029333Y-2122810D01*
X1025524Y-2130429D01*
X1025524Y-2138048D01*
X1029333Y-2145667D01*
X1033143Y-2149476D01*
X1040762Y-2153286D01*
X1067429Y-2153286D01*
X991238Y-2172333D02*
X953143Y-2172333D01*
X998857Y-2195190D02*
X972190Y-2115190D01*
X945524Y-2195190D01*
X930286Y-2115190D02*
X884571Y-2115190D01*
X907428Y-2195190D02*
X907428Y-2115190D01*
X314952Y-722000D02*
X322571Y-718190D01*
X334000Y-718190D01*
X345429Y-722000D01*
X353048Y-729619D01*
X356857Y-737238D01*
X360667Y-752476D01*
X360667Y-763905D01*
X356857Y-779143D01*
X353048Y-786762D01*
X345429Y-794381D01*
X334000Y-798190D01*
X326381Y-798190D01*
X314952Y-794381D01*
X311143Y-790571D01*
X311143Y-763905D01*
X326381Y-763905D01*
X276857Y-798190D02*
X276857Y-718190D01*
X231143Y-798190D01*
X231143Y-718190D01*
X193048Y-798190D02*
X193048Y-718190D01*
X174000Y-718190D01*
X162571Y-722000D01*
X154952Y-729619D01*
X151143Y-737238D01*
X147333Y-752476D01*
X147333Y-763905D01*
X151143Y-779143D01*
X154952Y-786762D01*
X162571Y-794381D01*
X174000Y-798190D01*
X193048Y-798190D01*
X351143Y-1048381D02*
X339714Y-1052190D01*
X320667Y-1052190D01*
X313048Y-1048381D01*
X309238Y-1044571D01*
X305429Y-1036952D01*
X305429Y-1029333D01*
X309238Y-1021714D01*
X313048Y-1017905D01*
X320667Y-1014095D01*
X335905Y-1010286D01*
X343524Y-1006476D01*
X347333Y-1002667D01*
X351143Y-995048D01*
X351143Y-987428D01*
X347333Y-979809D01*
X343524Y-976000D01*
X335905Y-972190D01*
X316857Y-972190D01*
X305429Y-976000D01*
X271143Y-1052190D02*
X271143Y-972190D01*
X252095Y-972190D01*
X240667Y-976000D01*
X233048Y-983619D01*
X229238Y-991238D01*
X225428Y-1006476D01*
X225428Y-1017905D01*
X229238Y-1033143D01*
X233048Y-1040762D01*
X240667Y-1048381D01*
X252095Y-1052190D01*
X271143Y-1052190D01*
X194952Y-1029333D02*
X156857Y-1029333D01*
X202571Y-1052190D02*
X175905Y-972190D01*
X149238Y-1052190D01*
X349238Y-1302381D02*
X337810Y-1306190D01*
X318762Y-1306190D01*
X311143Y-1302381D01*
X307333Y-1298571D01*
X303524Y-1290952D01*
X303524Y-1283333D01*
X307333Y-1275714D01*
X311143Y-1271905D01*
X318762Y-1268095D01*
X334000Y-1264286D01*
X341619Y-1260476D01*
X345429Y-1256667D01*
X349238Y-1249048D01*
X349238Y-1241429D01*
X345429Y-1233810D01*
X341619Y-1230000D01*
X334000Y-1226190D01*
X314952Y-1226190D01*
X303524Y-1230000D01*
X223524Y-1298571D02*
X227333Y-1302381D01*
X238762Y-1306190D01*
X246381Y-1306190D01*
X257809Y-1302381D01*
X265429Y-1294762D01*
X269238Y-1287143D01*
X273048Y-1271905D01*
X273048Y-1260476D01*
X269238Y-1245238D01*
X265429Y-1237619D01*
X257809Y-1230000D01*
X246381Y-1226190D01*
X238762Y-1226190D01*
X227333Y-1230000D01*
X223524Y-1233810D01*
X151143Y-1306190D02*
X189238Y-1306190D01*
X189238Y-1226190D01*
X366381Y-1814190D02*
X366381Y-1734190D01*
X335905Y-1734190D01*
X328286Y-1738000D01*
X324476Y-1741809D01*
X320667Y-1749428D01*
X320667Y-1760857D01*
X324476Y-1768476D01*
X328286Y-1772286D01*
X335905Y-1776095D01*
X366381Y-1776095D01*
X294000Y-1734190D02*
X274952Y-1814190D01*
X259714Y-1757048D01*
X244476Y-1814190D01*
X225428Y-1734190D01*
X194952Y-1814190D02*
X194952Y-1734190D01*
X168286Y-1791333D01*
X141619Y-1734190D01*
X141619Y-1814190D01*
X320667Y-2026286D02*
X309238Y-2030095D01*
X305429Y-2033905D01*
X301619Y-2041524D01*
X301619Y-2052952D01*
X305429Y-2060571D01*
X309238Y-2064381D01*
X316857Y-2068190D01*
X347333Y-2068190D01*
X347333Y-1988190D01*
X320667Y-1988190D01*
X313048Y-1992000D01*
X309238Y-1995809D01*
X305429Y-2003428D01*
X305429Y-2011048D01*
X309238Y-2018667D01*
X313048Y-2022476D01*
X320667Y-2026286D01*
X347333Y-2026286D01*
X278762Y-1988190D02*
X233048Y-1988190D01*
X255905Y-2068190D02*
X255905Y-1988190D01*
X206381Y-2068190D02*
X206381Y-1988190D01*
X160667Y-2068190D01*
X160667Y-1988190D01*
X326381Y-2322190D02*
X326381Y-2242190D01*
X288286Y-2322190D02*
X288286Y-2242190D01*
X242571Y-2322190D01*
X242571Y-2242190D01*
X215905Y-2242190D02*
X170190Y-2242190D01*
X193048Y-2322190D02*
X193048Y-2242190D01*
X305429Y-2822571D02*
X309238Y-2826381D01*
X320667Y-2830190D01*
X328286Y-2830190D01*
X339714Y-2826381D01*
X347333Y-2818762D01*
X351143Y-2811143D01*
X354952Y-2795905D01*
X354952Y-2784476D01*
X351143Y-2769238D01*
X347333Y-2761619D01*
X339714Y-2754000D01*
X328286Y-2750190D01*
X320667Y-2750190D01*
X309238Y-2754000D01*
X305429Y-2757810D01*
X274952Y-2826381D02*
X263524Y-2830190D01*
X244476Y-2830190D01*
X236857Y-2826381D01*
X233048Y-2822571D01*
X229238Y-2814952D01*
X229238Y-2807333D01*
X233048Y-2799714D01*
X236857Y-2795905D01*
X244476Y-2792095D01*
X259714Y-2788286D01*
X267333Y-2784476D01*
X271143Y-2780667D01*
X274952Y-2773048D01*
X274952Y-2765429D01*
X271143Y-2757810D01*
X267333Y-2754000D01*
X259714Y-2750190D01*
X240667Y-2750190D01*
X229238Y-2754000D01*
X153048Y-2830190D02*
X198762Y-2830190D01*
X175905Y-2830190D02*
X175905Y-2750190D01*
X183524Y-2761619D01*
X191143Y-2769238D01*
X198762Y-2773048D01*
X1321429Y-2822571D02*
X1325238Y-2826381D01*
X1336667Y-2830190D01*
X1344286Y-2830190D01*
X1355714Y-2826381D01*
X1363333Y-2818762D01*
X1367143Y-2811143D01*
X1370952Y-2795905D01*
X1370952Y-2784476D01*
X1367143Y-2769238D01*
X1363333Y-2761619D01*
X1355714Y-2754000D01*
X1344286Y-2750190D01*
X1336667Y-2750190D01*
X1325238Y-2754000D01*
X1321429Y-2757810D01*
X1290952Y-2826381D02*
X1279524Y-2830190D01*
X1260476Y-2830190D01*
X1252857Y-2826381D01*
X1249048Y-2822571D01*
X1245238Y-2814952D01*
X1245238Y-2807333D01*
X1249048Y-2799714D01*
X1252857Y-2795905D01*
X1260476Y-2792095D01*
X1275714Y-2788286D01*
X1283333Y-2784476D01*
X1287143Y-2780667D01*
X1290952Y-2773048D01*
X1290952Y-2765429D01*
X1287143Y-2757810D01*
X1283333Y-2754000D01*
X1275714Y-2750190D01*
X1256667Y-2750190D01*
X1245238Y-2754000D01*
X1195714Y-2750190D02*
X1188095Y-2750190D01*
X1180476Y-2754000D01*
X1176667Y-2757810D01*
X1172857Y-2765429D01*
X1169048Y-2780667D01*
X1169048Y-2799714D01*
X1172857Y-2814952D01*
X1176667Y-2822571D01*
X1180476Y-2826381D01*
X1188095Y-2830190D01*
X1195714Y-2830190D01*
X1203333Y-2826381D01*
X1207143Y-2822571D01*
X1210952Y-2814952D01*
X1214762Y-2799714D01*
X1214762Y-2780667D01*
X1210952Y-2765429D01*
X1207143Y-2757810D01*
X1203333Y-2754000D01*
X1195714Y-2750190D01*
X1346190Y-2568571D02*
X1350000Y-2572381D01*
X1361429Y-2576190D01*
X1369048Y-2576190D01*
X1380476Y-2572381D01*
X1388095Y-2564762D01*
X1391905Y-2557143D01*
X1395714Y-2541905D01*
X1395714Y-2530476D01*
X1391905Y-2515238D01*
X1388095Y-2507619D01*
X1380476Y-2500000D01*
X1369048Y-2496190D01*
X1361429Y-2496190D01*
X1350000Y-2500000D01*
X1346190Y-2503810D01*
X1296667Y-2496190D02*
X1281429Y-2496190D01*
X1273810Y-2500000D01*
X1266190Y-2507619D01*
X1262381Y-2522857D01*
X1262381Y-2549524D01*
X1266190Y-2564762D01*
X1273810Y-2572381D01*
X1281429Y-2576190D01*
X1296667Y-2576190D01*
X1304286Y-2572381D01*
X1311905Y-2564762D01*
X1315714Y-2549524D01*
X1315714Y-2522857D01*
X1311905Y-2507619D01*
X1304286Y-2500000D01*
X1296667Y-2496190D01*
X1228095Y-2576190D02*
X1228095Y-2496190D01*
X1197619Y-2496190D01*
X1190000Y-2500000D01*
X1186190Y-2503810D01*
X1182381Y-2511429D01*
X1182381Y-2522857D01*
X1186190Y-2530476D01*
X1190000Y-2534286D01*
X1197619Y-2538095D01*
X1228095Y-2538095D01*
X1148095Y-2576190D02*
X1148095Y-2496190D01*
X1346190Y-2378071D02*
X1350000Y-2381881D01*
X1361429Y-2385690D01*
X1369048Y-2385690D01*
X1380476Y-2381881D01*
X1388095Y-2374262D01*
X1391905Y-2366643D01*
X1395714Y-2351405D01*
X1395714Y-2339976D01*
X1391905Y-2324738D01*
X1388095Y-2317119D01*
X1380476Y-2309500D01*
X1369048Y-2305690D01*
X1361429Y-2305690D01*
X1350000Y-2309500D01*
X1346190Y-2313310D01*
X1311905Y-2385690D02*
X1311905Y-2305690D01*
X1273810Y-2385690D02*
X1273810Y-2305690D01*
X1243333Y-2305690D01*
X1235714Y-2309500D01*
X1231905Y-2313310D01*
X1228095Y-2320929D01*
X1228095Y-2332357D01*
X1231905Y-2339976D01*
X1235714Y-2343786D01*
X1243333Y-2347595D01*
X1273810Y-2347595D01*
X1178571Y-2305690D02*
X1163333Y-2305690D01*
X1155714Y-2309500D01*
X1148095Y-2317119D01*
X1144286Y-2332357D01*
X1144286Y-2359024D01*
X1148095Y-2374262D01*
X1155714Y-2381881D01*
X1163333Y-2385690D01*
X1178571Y-2385690D01*
X1186190Y-2381881D01*
X1193810Y-2374262D01*
X1197619Y-2359024D01*
X1197619Y-2332357D01*
X1193810Y-2317119D01*
X1186190Y-2309500D01*
X1178571Y-2305690D01*
X1372857Y-2000881D02*
X1361429Y-2004690D01*
X1342381Y-2004690D01*
X1334762Y-2000881D01*
X1330952Y-1997071D01*
X1327143Y-1989452D01*
X1327143Y-1981833D01*
X1330952Y-1974214D01*
X1334762Y-1970405D01*
X1342381Y-1966595D01*
X1357619Y-1962786D01*
X1365238Y-1958976D01*
X1369048Y-1955167D01*
X1372857Y-1947548D01*
X1372857Y-1939928D01*
X1369048Y-1932309D01*
X1365238Y-1928500D01*
X1357619Y-1924690D01*
X1338571Y-1924690D01*
X1327143Y-1928500D01*
X1247143Y-1997071D02*
X1250952Y-2000881D01*
X1262381Y-2004690D01*
X1270000Y-2004690D01*
X1281429Y-2000881D01*
X1289048Y-1993262D01*
X1292857Y-1985643D01*
X1296667Y-1970405D01*
X1296667Y-1958976D01*
X1292857Y-1943738D01*
X1289048Y-1936119D01*
X1281429Y-1928500D01*
X1270000Y-1924690D01*
X1262381Y-1924690D01*
X1250952Y-1928500D01*
X1247143Y-1932309D01*
X1212857Y-2004690D02*
X1212857Y-1924690D01*
X1167143Y-2004690D02*
X1201429Y-1958976D01*
X1167143Y-1924690D02*
X1212857Y-1970405D01*
X1369048Y-718190D02*
X1319524Y-718190D01*
X1346190Y-748667D01*
X1334762Y-748667D01*
X1327143Y-752476D01*
X1323333Y-756286D01*
X1319524Y-763905D01*
X1319524Y-782952D01*
X1323333Y-790571D01*
X1327143Y-794381D01*
X1334762Y-798190D01*
X1357619Y-798190D01*
X1365238Y-794381D01*
X1369048Y-790571D01*
X1296667Y-718190D02*
X1270000Y-798190D01*
X1243333Y-718190D01*
X1224286Y-718190D02*
X1174762Y-718190D01*
X1201429Y-748667D01*
X1190000Y-748667D01*
X1182381Y-752476D01*
X1178571Y-756286D01*
X1174762Y-763905D01*
X1174762Y-782952D01*
X1178571Y-790571D01*
X1182381Y-794381D01*
X1190000Y-798190D01*
X1212857Y-798190D01*
X1220476Y-794381D01*
X1224286Y-790571D01*
X1313810Y-544190D02*
X1340476Y-506095D01*
X1359524Y-544190D02*
X1359524Y-464190D01*
X1329048Y-464190D01*
X1321429Y-468000D01*
X1317619Y-471809D01*
X1313810Y-479428D01*
X1313810Y-490857D01*
X1317619Y-498476D01*
X1321429Y-502286D01*
X1329048Y-506095D01*
X1359524Y-506095D01*
X1283333Y-540381D02*
X1271905Y-544190D01*
X1252857Y-544190D01*
X1245238Y-540381D01*
X1241429Y-536571D01*
X1237619Y-528952D01*
X1237619Y-521333D01*
X1241429Y-513714D01*
X1245238Y-509905D01*
X1252857Y-506095D01*
X1268095Y-502286D01*
X1275714Y-498476D01*
X1279524Y-494667D01*
X1283333Y-487048D01*
X1283333Y-479428D01*
X1279524Y-471809D01*
X1275714Y-468000D01*
X1268095Y-464190D01*
X1249048Y-464190D01*
X1237619Y-468000D01*
X1214762Y-464190D02*
X1169048Y-464190D01*
X1191905Y-544190D02*
X1191905Y-464190D01*
X1330952Y-214000D02*
X1338571Y-210190D01*
X1350000Y-210190D01*
X1361429Y-214000D01*
X1369048Y-221619D01*
X1372857Y-229238D01*
X1376667Y-244476D01*
X1376667Y-255905D01*
X1372857Y-271143D01*
X1369048Y-278762D01*
X1361429Y-286381D01*
X1350000Y-290190D01*
X1342381Y-290190D01*
X1330952Y-286381D01*
X1327143Y-282571D01*
X1327143Y-255905D01*
X1342381Y-255905D01*
X1292857Y-290190D02*
X1292857Y-210190D01*
X1247143Y-290190D01*
X1247143Y-210190D01*
X1209048Y-290190D02*
X1209048Y-210190D01*
X1190000Y-210190D01*
X1178571Y-214000D01*
X1170952Y-221619D01*
X1167143Y-229238D01*
X1163333Y-244476D01*
X1163333Y-255905D01*
X1167143Y-271143D01*
X1170952Y-278762D01*
X1178571Y-286381D01*
X1190000Y-290190D01*
X1209048Y-290190D01*
D11*
X565571Y-865559D02*
X632238Y-865559D01*
X575095Y-865559D02*
X570333Y-870321D01*
X565571Y-879845D01*
X565571Y-894131D01*
X570333Y-903655D01*
X579857Y-908417D01*
X632238Y-908417D01*
X627476Y-994131D02*
X632238Y-984607D01*
X632238Y-965559D01*
X627476Y-956036D01*
X617952Y-951274D01*
X579857Y-951274D01*
X570333Y-956036D01*
X565571Y-965559D01*
X565571Y-984607D01*
X570333Y-994131D01*
X579857Y-998893D01*
X589381Y-998893D01*
X598905Y-951274D01*
X632238Y-1041750D02*
X565571Y-1041750D01*
X584619Y-1041750D02*
X575095Y-1046512D01*
X570333Y-1051274D01*
X565571Y-1060798D01*
X565571Y-1070321D01*
X632238Y-1146512D02*
X532238Y-1146512D01*
X627476Y-1146512D02*
X632238Y-1136988D01*
X632238Y-1117940D01*
X627476Y-1108417D01*
X622714Y-1103655D01*
X613190Y-1098893D01*
X584619Y-1098893D01*
X575095Y-1103655D01*
X570333Y-1108417D01*
X565571Y-1117940D01*
X565571Y-1136988D01*
X570333Y-1146512D01*
X565571Y-1184607D02*
X632238Y-1208417D01*
X565571Y-1232226D02*
X632238Y-1208417D01*
X656048Y-1198893D01*
X660810Y-1194131D01*
X665571Y-1184607D01*
X627476Y-1265560D02*
X632238Y-1275083D01*
X632238Y-1294131D01*
X627476Y-1303655D01*
X617952Y-1308417D01*
X613190Y-1308417D01*
X603667Y-1303655D01*
X598905Y-1294131D01*
X598905Y-1279845D01*
X594143Y-1270321D01*
X584619Y-1265560D01*
X579857Y-1265560D01*
X570333Y-1270321D01*
X565571Y-1279845D01*
X565571Y-1294131D01*
X570333Y-1303655D01*
X627476Y-1394131D02*
X632238Y-1384607D01*
X632238Y-1365560D01*
X627476Y-1356036D01*
X622714Y-1351274D01*
X613190Y-1346512D01*
X584619Y-1346512D01*
X575095Y-1351274D01*
X570333Y-1356036D01*
X565571Y-1365560D01*
X565571Y-1384607D01*
X570333Y-1394131D01*
X632238Y-1451274D02*
X627476Y-1441750D01*
X622714Y-1436988D01*
X613190Y-1432226D01*
X584619Y-1432226D01*
X575095Y-1436988D01*
X570333Y-1441750D01*
X565571Y-1451274D01*
X565571Y-1465559D01*
X570333Y-1475083D01*
X575095Y-1479845D01*
X584619Y-1484607D01*
X613190Y-1484607D01*
X622714Y-1479845D01*
X627476Y-1475083D01*
X632238Y-1465559D01*
X632238Y-1451274D01*
X565571Y-1570321D02*
X632238Y-1570321D01*
X565571Y-1527464D02*
X617952Y-1527464D01*
X627476Y-1532226D01*
X632238Y-1541750D01*
X632238Y-1556036D01*
X627476Y-1565559D01*
X622714Y-1570321D01*
X565571Y-1603655D02*
X565571Y-1641750D01*
X532238Y-1617940D02*
X617952Y-1617940D01*
X627476Y-1622702D01*
X632238Y-1632226D01*
X632238Y-1641750D01*
X622714Y-1675083D02*
X627476Y-1679845D01*
X632238Y-1675083D01*
X627476Y-1670321D01*
X622714Y-1675083D01*
X632238Y-1675083D01*
X565571Y-1765559D02*
X646524Y-1765559D01*
X656048Y-1760798D01*
X660810Y-1756036D01*
X665571Y-1746512D01*
X665571Y-1732226D01*
X660810Y-1722702D01*
X627476Y-1765559D02*
X632238Y-1756036D01*
X632238Y-1736988D01*
X627476Y-1727464D01*
X622714Y-1722702D01*
X613190Y-1717940D01*
X584619Y-1717940D01*
X575095Y-1722702D01*
X570333Y-1727464D01*
X565571Y-1736988D01*
X565571Y-1756036D01*
X570333Y-1765559D01*
X632238Y-1813178D02*
X565571Y-1813178D01*
X532238Y-1813178D02*
X537000Y-1808417D01*
X541762Y-1813178D01*
X537000Y-1817940D01*
X532238Y-1813178D01*
X541762Y-1813178D01*
X565571Y-1846512D02*
X565571Y-1884607D01*
X532238Y-1860798D02*
X617952Y-1860798D01*
X627476Y-1865559D01*
X632238Y-1875083D01*
X632238Y-1884607D01*
X632238Y-1917940D02*
X532238Y-1917940D01*
X632238Y-1960798D02*
X579857Y-1960798D01*
X570333Y-1956036D01*
X565571Y-1946512D01*
X565571Y-1932226D01*
X570333Y-1922702D01*
X575095Y-1917940D01*
X565571Y-2051274D02*
X632238Y-2051274D01*
X565571Y-2008417D02*
X617952Y-2008417D01*
X627476Y-2013178D01*
X632238Y-2022702D01*
X632238Y-2036988D01*
X627476Y-2046512D01*
X622714Y-2051274D01*
X632238Y-2098893D02*
X532238Y-2098893D01*
X570333Y-2098893D02*
X565571Y-2108417D01*
X565571Y-2127464D01*
X570333Y-2136988D01*
X575095Y-2141750D01*
X584619Y-2146512D01*
X613190Y-2146512D01*
X622714Y-2141750D01*
X627476Y-2136988D01*
X632238Y-2127464D01*
X632238Y-2108417D01*
X627476Y-2098893D01*
X622714Y-2189369D02*
X627476Y-2194131D01*
X632238Y-2189369D01*
X627476Y-2184607D01*
X622714Y-2189369D01*
X632238Y-2189369D01*
X632238Y-2236988D02*
X565571Y-2236988D01*
X532238Y-2236988D02*
X537000Y-2232226D01*
X541762Y-2236988D01*
X537000Y-2241750D01*
X532238Y-2236988D01*
X541762Y-2236988D01*
X632238Y-2298893D02*
X627476Y-2289369D01*
X622714Y-2284607D01*
X613190Y-2279845D01*
X584619Y-2279845D01*
X575095Y-2284607D01*
X570333Y-2289369D01*
X565571Y-2298893D01*
X565571Y-2313179D01*
X570333Y-2322702D01*
X575095Y-2327464D01*
X584619Y-2332226D01*
X613190Y-2332226D01*
X622714Y-2327464D01*
X627476Y-2322702D01*
X632238Y-2313179D01*
X632238Y-2298893D01*
X527476Y-2446512D02*
X656048Y-2360798D01*
X807238Y-865559D02*
X707238Y-865559D01*
X707238Y-903655D01*
X712000Y-913178D01*
X716762Y-917940D01*
X726286Y-922702D01*
X740571Y-922702D01*
X750095Y-917940D01*
X754857Y-913178D01*
X759619Y-903655D01*
X759619Y-865559D01*
X807238Y-965559D02*
X740571Y-965559D01*
X759619Y-965559D02*
X750095Y-970321D01*
X745333Y-975083D01*
X740571Y-984607D01*
X740571Y-994131D01*
X807238Y-1041750D02*
X802476Y-1032226D01*
X797714Y-1027464D01*
X788190Y-1022702D01*
X759619Y-1022702D01*
X750095Y-1027464D01*
X745333Y-1032226D01*
X740571Y-1041750D01*
X740571Y-1056036D01*
X745333Y-1065560D01*
X750095Y-1070321D01*
X759619Y-1075083D01*
X788190Y-1075083D01*
X797714Y-1070321D01*
X802476Y-1065560D01*
X807238Y-1056036D01*
X807238Y-1041750D01*
X807238Y-1117940D02*
X707238Y-1117940D01*
X778667Y-1151274D01*
X707238Y-1184607D01*
X807238Y-1184607D01*
X807238Y-1232226D02*
X740571Y-1232226D01*
X707238Y-1232226D02*
X712000Y-1227464D01*
X716762Y-1232226D01*
X712000Y-1236988D01*
X707238Y-1232226D01*
X716762Y-1232226D01*
X802476Y-1322702D02*
X807238Y-1313179D01*
X807238Y-1294131D01*
X802476Y-1284607D01*
X797714Y-1279845D01*
X788190Y-1275083D01*
X759619Y-1275083D01*
X750095Y-1279845D01*
X745333Y-1284607D01*
X740571Y-1294131D01*
X740571Y-1313179D01*
X745333Y-1322702D01*
X807238Y-1365560D02*
X740571Y-1365560D01*
X759619Y-1365560D02*
X750095Y-1370321D01*
X745333Y-1375083D01*
X740571Y-1384607D01*
X740571Y-1394131D01*
X807238Y-1441750D02*
X802476Y-1432226D01*
X797714Y-1427464D01*
X788190Y-1422702D01*
X759619Y-1422702D01*
X750095Y-1427464D01*
X745333Y-1432226D01*
X740571Y-1441750D01*
X740571Y-1456036D01*
X745333Y-1465559D01*
X750095Y-1470321D01*
X759619Y-1475083D01*
X788190Y-1475083D01*
X797714Y-1470321D01*
X802476Y-1465559D01*
X807238Y-1456036D01*
X807238Y-1441750D01*
X702476Y-1589369D02*
X831048Y-1503655D01*
X807238Y-1670321D02*
X807238Y-1622702D01*
X707238Y-1622702D01*
X707238Y-1722702D02*
X707238Y-1741750D01*
X712000Y-1751274D01*
X721524Y-1760798D01*
X740571Y-1765559D01*
X773905Y-1765559D01*
X792952Y-1760798D01*
X802476Y-1751274D01*
X807238Y-1741750D01*
X807238Y-1722702D01*
X802476Y-1713178D01*
X792952Y-1703655D01*
X773905Y-1698893D01*
X740571Y-1698893D01*
X721524Y-1703655D01*
X712000Y-1713178D01*
X707238Y-1722702D01*
X712000Y-1860798D02*
X707238Y-1851274D01*
X707238Y-1836988D01*
X712000Y-1822702D01*
X721524Y-1813178D01*
X731048Y-1808417D01*
X750095Y-1803655D01*
X764381Y-1803655D01*
X783428Y-1808417D01*
X792952Y-1813178D01*
X802476Y-1822702D01*
X807238Y-1836988D01*
X807238Y-1846512D01*
X802476Y-1860798D01*
X797714Y-1865559D01*
X764381Y-1865559D01*
X764381Y-1846512D01*
X915571Y-856036D02*
X982238Y-879845D01*
X915571Y-903655D01*
X982238Y-994131D02*
X982238Y-936988D01*
X982238Y-965559D02*
X882238Y-965559D01*
X896524Y-956036D01*
X906048Y-946512D01*
X910809Y-936988D01*
X972714Y-1036988D02*
X977476Y-1041750D01*
X982238Y-1036988D01*
X977476Y-1032226D01*
X972714Y-1036988D01*
X982238Y-1036988D01*
X891762Y-1079845D02*
X887000Y-1084607D01*
X882238Y-1094131D01*
X882238Y-1117940D01*
X887000Y-1127464D01*
X891762Y-1132226D01*
X901286Y-1136988D01*
X910809Y-1136988D01*
X925095Y-1132226D01*
X982238Y-1075083D01*
X982238Y-1136988D01*
D12*
X-63500Y127000D02*
G75*
G03*
X-127000Y63500I0J-63500D01*
G01*
X1651000Y63500D02*
G75*
G03*
X1587500Y127000I-63500J0D01*
G01*
X1587500Y-2921000D02*
G75*
G03*
X1651000Y-2857500I0J63500D01*
G01*
X-127000Y-2857500D02*
G75*
G03*
X-63500Y-2921000I63500J0D01*
G01*
X-127000Y63500D02*
X-127000Y-2857500D01*
X1587500Y127000D02*
X-63500Y127000D01*
X1651000Y-2857500D02*
X1651000Y63500D01*
X-63500Y-2921000D02*
X1587500Y-2921000D01*
D13*
G36*
X508893Y-436581D02*
G01*
X553356Y-444963D01*
X566105Y-475892D01*
X578855Y-506821D01*
X553625Y-543925D01*
X546600Y-554316D01*
X540327Y-563709D01*
X535094Y-571665D01*
X531186Y-577747D01*
X528889Y-581516D01*
X528394Y-582542D01*
X529668Y-584391D01*
X533188Y-588342D01*
X538506Y-593952D01*
X545172Y-600779D01*
X552735Y-608379D01*
X560747Y-616309D01*
X568757Y-624128D01*
X576316Y-631391D01*
X582975Y-637656D01*
X588282Y-642480D01*
X591789Y-645421D01*
X592962Y-646124D01*
X595126Y-645112D01*
X599866Y-642276D01*
X606719Y-637913D01*
X615222Y-632322D01*
X624909Y-625801D01*
X630435Y-622022D01*
X640525Y-615134D01*
X649630Y-609014D01*
X657297Y-603958D01*
X663073Y-600263D01*
X666504Y-598226D01*
X667225Y-597920D01*
X669275Y-598614D01*
X674051Y-600505D01*
X680883Y-603309D01*
X689099Y-606739D01*
X698027Y-610511D01*
X706996Y-614339D01*
X715334Y-617937D01*
X722369Y-621021D01*
X727431Y-623304D01*
X729847Y-624502D01*
X729942Y-624572D01*
X730404Y-626453D01*
X731433Y-631462D01*
X732929Y-639079D01*
X734790Y-648787D01*
X736916Y-660064D01*
X738142Y-666644D01*
X740436Y-678695D01*
X742619Y-689580D01*
X744572Y-698748D01*
X746175Y-705648D01*
X747308Y-709730D01*
X747667Y-710551D01*
X750101Y-711355D01*
X755596Y-712003D01*
X763511Y-712497D01*
X773203Y-712836D01*
X784029Y-713022D01*
X795346Y-713054D01*
X806513Y-712933D01*
X816887Y-712659D01*
X825824Y-712233D01*
X832683Y-711655D01*
X836820Y-710927D01*
X837681Y-710489D01*
X838713Y-707876D01*
X840189Y-702339D01*
X841935Y-694611D01*
X843778Y-685423D01*
X844374Y-682216D01*
X847207Y-666752D01*
X849488Y-654538D01*
X851308Y-645167D01*
X852758Y-638238D01*
X853929Y-633347D01*
X854911Y-630090D01*
X855796Y-628063D01*
X856672Y-626863D01*
X856846Y-626695D01*
X859637Y-625018D01*
X865069Y-622461D01*
X872478Y-619279D01*
X881196Y-615726D01*
X890561Y-612058D01*
X899905Y-608531D01*
X908565Y-605400D01*
X915874Y-602919D01*
X921168Y-601345D01*
X923781Y-600933D01*
X923873Y-600968D01*
X926009Y-602364D01*
X930708Y-605532D01*
X937483Y-610139D01*
X945842Y-615852D01*
X955298Y-622337D01*
X957985Y-624184D01*
X967727Y-630770D01*
X976616Y-636565D01*
X984141Y-641254D01*
X989792Y-644521D01*
X993058Y-646050D01*
X993459Y-646124D01*
X995568Y-644839D01*
X999746Y-641289D01*
X1005544Y-635929D01*
X1012513Y-629217D01*
X1020204Y-621609D01*
X1028168Y-613560D01*
X1035956Y-605529D01*
X1043119Y-597970D01*
X1049207Y-591341D01*
X1053772Y-586097D01*
X1056365Y-582696D01*
X1056788Y-581755D01*
X1055791Y-579564D01*
X1053102Y-575080D01*
X1049174Y-569032D01*
X1046012Y-564379D01*
X1040210Y-555948D01*
X1033378Y-545963D01*
X1026558Y-535947D01*
X1022907Y-530563D01*
X1010580Y-512337D01*
X1018852Y-497038D01*
X1022476Y-490068D01*
X1025293Y-484141D01*
X1026899Y-480131D01*
X1027123Y-479110D01*
X1025472Y-477883D01*
X1020808Y-475461D01*
X1013561Y-472026D01*
X1004161Y-467759D01*
X993037Y-462839D01*
X980621Y-457449D01*
X967343Y-451768D01*
X953633Y-445978D01*
X939920Y-440259D01*
X926636Y-434792D01*
X914210Y-429758D01*
X903072Y-425338D01*
X893654Y-421712D01*
X886384Y-419061D01*
X881694Y-417566D01*
X880083Y-417325D01*
X878029Y-419231D01*
X874693Y-423404D01*
X870770Y-428971D01*
X870460Y-429438D01*
X858942Y-443826D01*
X845505Y-455428D01*
X830578Y-464143D01*
X814591Y-469870D01*
X797974Y-472509D01*
X781155Y-471958D01*
X764565Y-468119D01*
X748634Y-460889D01*
X745149Y-458763D01*
X731074Y-447700D01*
X719771Y-434630D01*
X711300Y-420006D01*
X705719Y-404281D01*
X703087Y-387906D01*
X703463Y-371333D01*
X706905Y-355016D01*
X713472Y-339407D01*
X723223Y-324957D01*
X727181Y-320487D01*
X739570Y-309111D01*
X752612Y-300822D01*
X767231Y-295136D01*
X781709Y-291969D01*
X797986Y-291187D01*
X814344Y-293794D01*
X830230Y-299525D01*
X845091Y-308114D01*
X858373Y-319299D01*
X869526Y-332812D01*
X870701Y-334588D01*
X874551Y-340215D01*
X877886Y-344492D01*
X880016Y-346537D01*
X880083Y-346567D01*
X882387Y-346128D01*
X887616Y-344388D01*
X895339Y-341527D01*
X905127Y-337727D01*
X916549Y-333167D01*
X929176Y-328030D01*
X942577Y-322496D01*
X956322Y-316746D01*
X969981Y-310960D01*
X983124Y-305320D01*
X995320Y-300006D01*
X1006141Y-295199D01*
X1015155Y-291080D01*
X1021932Y-287830D01*
X1026043Y-285630D01*
X1027123Y-284744D01*
X1026282Y-282036D01*
X1024027Y-276970D01*
X1020761Y-270418D01*
X1018852Y-266816D01*
X1010580Y-251517D01*
X1022907Y-233291D01*
X1029223Y-223987D01*
X1036173Y-213801D01*
X1042716Y-204256D01*
X1046012Y-199475D01*
X1050527Y-192750D01*
X1054106Y-187056D01*
X1056294Y-183135D01*
X1056756Y-181862D01*
X1055509Y-180008D01*
X1052025Y-175906D01*
X1046668Y-169953D01*
X1039798Y-162546D01*
X1031778Y-154084D01*
X1026629Y-148732D01*
X1017429Y-139368D01*
X1009200Y-131276D01*
X1002294Y-124782D01*
X997064Y-120214D01*
X993862Y-117899D01*
X993212Y-117677D01*
X990739Y-118708D01*
X985740Y-121556D01*
X978721Y-125906D01*
X970187Y-131442D01*
X960646Y-137848D01*
X957985Y-139670D01*
X948317Y-146307D01*
X939612Y-152262D01*
X932359Y-157202D01*
X927049Y-160793D01*
X924170Y-162702D01*
X923873Y-162886D01*
X921578Y-162611D01*
X916534Y-161146D01*
X909404Y-158749D01*
X900855Y-155673D01*
X891551Y-152176D01*
X882157Y-148511D01*
X873340Y-144934D01*
X865763Y-141701D01*
X860093Y-139066D01*
X856994Y-137286D01*
X856846Y-137159D01*
X855960Y-136071D01*
X855084Y-134232D01*
X854128Y-131239D01*
X853000Y-126690D01*
X851609Y-120179D01*
X849866Y-111304D01*
X847680Y-99661D01*
X844959Y-84846D01*
X844374Y-81638D01*
X842537Y-72131D01*
X840740Y-63843D01*
X839157Y-57507D01*
X837960Y-53854D01*
X837681Y-53364D01*
X835207Y-52557D01*
X829679Y-51901D01*
X821739Y-51397D01*
X812030Y-51044D01*
X801194Y-50844D01*
X789874Y-50796D01*
X778713Y-50902D01*
X768353Y-51162D01*
X759437Y-51575D01*
X752607Y-52144D01*
X748507Y-52867D01*
X747667Y-53303D01*
X746821Y-55730D01*
X745443Y-61257D01*
X743655Y-69334D01*
X741575Y-79409D01*
X739322Y-90932D01*
X738142Y-97210D01*
X735915Y-109121D01*
X733898Y-119743D01*
X732191Y-128557D01*
X730897Y-135043D01*
X730115Y-138683D01*
X729942Y-139282D01*
X727989Y-140294D01*
X723284Y-142434D01*
X716500Y-145416D01*
X708309Y-148956D01*
X699383Y-152767D01*
X690394Y-156565D01*
X682014Y-160064D01*
X674915Y-162979D01*
X669769Y-165026D01*
X667250Y-165918D01*
X667140Y-165934D01*
X665152Y-164923D01*
X660578Y-162088D01*
X653872Y-157728D01*
X645488Y-152139D01*
X635883Y-145621D01*
X630365Y-141832D01*
X620248Y-134928D01*
X611063Y-128795D01*
X603274Y-123734D01*
X597347Y-120043D01*
X593745Y-118022D01*
X592938Y-117730D01*
X591058Y-118985D01*
X587046Y-122454D01*
X581349Y-127694D01*
X574419Y-134262D01*
X566703Y-141714D01*
X558653Y-149609D01*
X550716Y-157502D01*
X543344Y-164950D01*
X536985Y-171511D01*
X532089Y-176740D01*
X529106Y-180196D01*
X528394Y-181352D01*
X529395Y-183235D01*
X532208Y-187737D01*
X536545Y-194421D01*
X542122Y-202850D01*
X548651Y-212586D01*
X553625Y-219929D01*
X578855Y-257033D01*
X553356Y-318891D01*
X508893Y-327273D01*
X464431Y-335655D01*
X464431Y-428199D01*
X508893Y-436581D01*
G37*
X508893Y-436581D02*
X553356Y-444963D01*
X566105Y-475892D01*
X578855Y-506821D01*
X553625Y-543925D01*
X546600Y-554316D01*
X540327Y-563709D01*
X535094Y-571665D01*
X531186Y-577747D01*
X528889Y-581516D01*
X528394Y-582542D01*
X529668Y-584391D01*
X533188Y-588342D01*
X538506Y-593952D01*
X545172Y-600779D01*
X552735Y-608379D01*
X560747Y-616309D01*
X568757Y-624128D01*
X576316Y-631391D01*
X582975Y-637656D01*
X588282Y-642480D01*
X591789Y-645421D01*
X592962Y-646124D01*
X595126Y-645112D01*
X599866Y-642276D01*
X606719Y-637913D01*
X615222Y-632322D01*
X624909Y-625801D01*
X630435Y-622022D01*
X640525Y-615134D01*
X649630Y-609014D01*
X657297Y-603958D01*
X663073Y-600263D01*
X666504Y-598226D01*
X667225Y-597920D01*
X669275Y-598614D01*
X674051Y-600505D01*
X680883Y-603309D01*
X689099Y-606739D01*
X698027Y-610511D01*
X706996Y-614339D01*
X715334Y-617937D01*
X722369Y-621021D01*
X727431Y-623304D01*
X729847Y-624502D01*
X729942Y-624572D01*
X730404Y-626453D01*
X731433Y-631462D01*
X732929Y-639079D01*
X734790Y-648787D01*
X736916Y-660064D01*
X738142Y-666644D01*
X740436Y-678695D01*
X742619Y-689580D01*
X744572Y-698748D01*
X746175Y-705648D01*
X747308Y-709730D01*
X747667Y-710551D01*
X750101Y-711355D01*
X755596Y-712003D01*
X763511Y-712497D01*
X773203Y-712836D01*
X784029Y-713022D01*
X795346Y-713054D01*
X806513Y-712933D01*
X816887Y-712659D01*
X825824Y-712233D01*
X832683Y-711655D01*
X836820Y-710927D01*
X837681Y-710489D01*
X838713Y-707876D01*
X840189Y-702339D01*
X841935Y-694611D01*
X843778Y-685423D01*
X844374Y-682216D01*
X847207Y-666752D01*
X849488Y-654538D01*
X851308Y-645167D01*
X852758Y-638238D01*
X853929Y-633347D01*
X854911Y-630090D01*
X855796Y-628063D01*
X856672Y-626863D01*
X856846Y-626695D01*
X859637Y-625018D01*
X865069Y-622461D01*
X872478Y-619279D01*
X881196Y-615726D01*
X890561Y-612058D01*
X899905Y-608531D01*
X908565Y-605400D01*
X915874Y-602919D01*
X921168Y-601345D01*
X923781Y-600933D01*
X923873Y-600968D01*
X926009Y-602364D01*
X930708Y-605532D01*
X937483Y-610139D01*
X945842Y-615852D01*
X955298Y-622337D01*
X957985Y-624184D01*
X967727Y-630770D01*
X976616Y-636565D01*
X984141Y-641254D01*
X989792Y-644521D01*
X993058Y-646050D01*
X993459Y-646124D01*
X995568Y-644839D01*
X999746Y-641289D01*
X1005544Y-635929D01*
X1012513Y-629217D01*
X1020204Y-621609D01*
X1028168Y-613560D01*
X1035956Y-605529D01*
X1043119Y-597970D01*
X1049207Y-591341D01*
X1053772Y-586097D01*
X1056365Y-582696D01*
X1056788Y-581755D01*
X1055791Y-579564D01*
X1053102Y-575080D01*
X1049174Y-569032D01*
X1046012Y-564379D01*
X1040210Y-555948D01*
X1033378Y-545963D01*
X1026558Y-535947D01*
X1022907Y-530563D01*
X1010580Y-512337D01*
X1018852Y-497038D01*
X1022476Y-490068D01*
X1025293Y-484141D01*
X1026899Y-480131D01*
X1027123Y-479110D01*
X1025472Y-477883D01*
X1020808Y-475461D01*
X1013561Y-472026D01*
X1004161Y-467759D01*
X993037Y-462839D01*
X980621Y-457449D01*
X967343Y-451768D01*
X953633Y-445978D01*
X939920Y-440259D01*
X926636Y-434792D01*
X914210Y-429758D01*
X903072Y-425338D01*
X893654Y-421712D01*
X886384Y-419061D01*
X881694Y-417566D01*
X880083Y-417325D01*
X878029Y-419231D01*
X874693Y-423404D01*
X870770Y-428971D01*
X870460Y-429438D01*
X858942Y-443826D01*
X845505Y-455428D01*
X830578Y-464143D01*
X814591Y-469870D01*
X797974Y-472509D01*
X781155Y-471958D01*
X764565Y-468119D01*
X748634Y-460889D01*
X745149Y-458763D01*
X731074Y-447700D01*
X719771Y-434630D01*
X711300Y-420006D01*
X705719Y-404281D01*
X703087Y-387906D01*
X703463Y-371333D01*
X706905Y-355016D01*
X713472Y-339407D01*
X723223Y-324957D01*
X727181Y-320487D01*
X739570Y-309111D01*
X752612Y-300822D01*
X767231Y-295136D01*
X781709Y-291969D01*
X797986Y-291187D01*
X814344Y-293794D01*
X830230Y-299525D01*
X845091Y-308114D01*
X858373Y-319299D01*
X869526Y-332812D01*
X870701Y-334588D01*
X874551Y-340215D01*
X877886Y-344492D01*
X880016Y-346537D01*
X880083Y-346567D01*
X882387Y-346128D01*
X887616Y-344388D01*
X895339Y-341527D01*
X905127Y-337727D01*
X916549Y-333167D01*
X929176Y-328030D01*
X942577Y-322496D01*
X956322Y-316746D01*
X969981Y-310960D01*
X983124Y-305320D01*
X995320Y-300006D01*
X1006141Y-295199D01*
X1015155Y-291080D01*
X1021932Y-287830D01*
X1026043Y-285630D01*
X1027123Y-284744D01*
X1026282Y-282036D01*
X1024027Y-276970D01*
X1020761Y-270418D01*
X1018852Y-266816D01*
X1010580Y-251517D01*
X1022907Y-233291D01*
X1029223Y-223987D01*
X1036173Y-213801D01*
X1042716Y-204256D01*
X1046012Y-199475D01*
X1050527Y-192750D01*
X1054106Y-187056D01*
X1056294Y-183135D01*
X1056756Y-181862D01*
X1055509Y-180008D01*
X1052025Y-175906D01*
X1046668Y-169953D01*
X1039798Y-162546D01*
X1031778Y-154084D01*
X1026629Y-148732D01*
X1017429Y-139368D01*
X1009200Y-131276D01*
X1002294Y-124782D01*
X997064Y-120214D01*
X993862Y-117899D01*
X993212Y-117677D01*
X990739Y-118708D01*
X985740Y-121556D01*
X978721Y-125906D01*
X970187Y-131442D01*
X960646Y-137848D01*
X957985Y-139670D01*
X948317Y-146307D01*
X939612Y-152262D01*
X932359Y-157202D01*
X927049Y-160793D01*
X924170Y-162702D01*
X923873Y-162886D01*
X921578Y-162611D01*
X916534Y-161146D01*
X909404Y-158749D01*
X900855Y-155673D01*
X891551Y-152176D01*
X882157Y-148511D01*
X873340Y-144934D01*
X865763Y-141701D01*
X860093Y-139066D01*
X856994Y-137286D01*
X856846Y-137159D01*
X855960Y-136071D01*
X855084Y-134232D01*
X854128Y-131239D01*
X853000Y-126690D01*
X851609Y-120179D01*
X849866Y-111304D01*
X847680Y-99661D01*
X844959Y-84846D01*
X844374Y-81638D01*
X842537Y-72131D01*
X840740Y-63843D01*
X839157Y-57507D01*
X837960Y-53854D01*
X837681Y-53364D01*
X835207Y-52557D01*
X829679Y-51901D01*
X821739Y-51397D01*
X812030Y-51044D01*
X801194Y-50844D01*
X789874Y-50796D01*
X778713Y-50902D01*
X768353Y-51162D01*
X759437Y-51575D01*
X752607Y-52144D01*
X748507Y-52867D01*
X747667Y-53303D01*
X746821Y-55730D01*
X745443Y-61257D01*
X743655Y-69334D01*
X741575Y-79409D01*
X739322Y-90932D01*
X738142Y-97210D01*
X735915Y-109121D01*
X733898Y-119743D01*
X732191Y-128557D01*
X730897Y-135043D01*
X730115Y-138683D01*
X729942Y-139282D01*
X727989Y-140294D01*
X723284Y-142434D01*
X716500Y-145416D01*
X708309Y-148956D01*
X699383Y-152767D01*
X690394Y-156565D01*
X682014Y-160064D01*
X674915Y-162979D01*
X669769Y-165026D01*
X667250Y-165918D01*
X667140Y-165934D01*
X665152Y-164923D01*
X660578Y-162088D01*
X653872Y-157728D01*
X645488Y-152139D01*
X635883Y-145621D01*
X630365Y-141832D01*
X620248Y-134928D01*
X611063Y-128795D01*
X603274Y-123734D01*
X597347Y-120043D01*
X593745Y-118022D01*
X592938Y-117730D01*
X591058Y-118985D01*
X587046Y-122454D01*
X581349Y-127694D01*
X574419Y-134262D01*
X566703Y-141714D01*
X558653Y-149609D01*
X550716Y-157502D01*
X543344Y-164950D01*
X536985Y-171511D01*
X532089Y-176740D01*
X529106Y-180196D01*
X528394Y-181352D01*
X529395Y-183235D01*
X532208Y-187737D01*
X536545Y-194421D01*
X542122Y-202850D01*
X548651Y-212586D01*
X553625Y-219929D01*
X578855Y-257033D01*
X553356Y-318891D01*
X508893Y-327273D01*
X464431Y-335655D01*
X464431Y-428199D01*
X508893Y-436581D01*
D14*
X1390000Y-2159000D02*
G75*
G03*
X1390000Y-2159000I-120000J0D01*
G01*
%LPC*%
D15*
X0Y0D03*
D16*
X0Y-254000D03*
X0Y-508000D03*
X1524000Y-2794000D03*
X0Y-762000D03*
X1524000Y-2540000D03*
X0Y-1016000D03*
X1524000Y-2286000D03*
X0Y-1270000D03*
X1524000Y-2032000D03*
X0Y-1524000D03*
X1524000Y-1778000D03*
X0Y-1778000D03*
X1524000Y-1524000D03*
X0Y-2032000D03*
X1524000Y-1270000D03*
X0Y-2286000D03*
X1524000Y-1016000D03*
X0Y-2540000D03*
X1524000Y-762000D03*
X0Y-2794000D03*
X1524000Y-508000D03*
X1524000Y-254000D03*
X1524000Y0D03*
D17*
X1270000Y-2159000D03*
M02*
