%TF.GenerationSoftware,KiCad,Pcbnew,5.1.5+dfsg1-2~bpo10+1*%
%TF.CreationDate,Date%
%TF.ProjectId,ProMicro_LOG,50726f4d-6963-4726-9f5f-4c4f472e6b69,v1.1*%
%TF.SameCoordinates,Original*%
%TF.FileFunction,Plated,1,2,PTH,Drill*%
%TF.FilePolarity,Positive*%
%FSLAX46Y46*%
G04 Gerber Fmt 4.6, Leading zero omitted, Abs format (unit mm)*
G04 Created by KiCad*
%MOMM*%
%LPD*%
G04 APERTURE LIST*
%TA.AperFunction,ViaDrill*%
%ADD10C,0.200000*%
%TD*%
%TA.AperFunction,ViaDrill*%
%ADD11C,0.300000*%
%TD*%
%TA.AperFunction,ComponentDrill*%
%ADD12C,1.000000*%
%TD*%
G04 APERTURE END LIST*
D10*
X-13970000Y10922000D03*
X-12446000Y14351000D03*
X-12192000Y11176000D03*
X-12065000Y18415000D03*
X-10795000Y19685000D03*
X-10795000Y13970000D03*
X-10795000Y0D03*
X-10794994Y1016000D03*
X-10160000Y21717000D03*
X-10160000Y10160000D03*
X-10160000Y7366000D03*
X-9525000Y13970000D03*
X-8890000Y10795000D03*
X-8509000Y6350000D03*
X-8255000Y2413000D03*
X-7620000Y15240000D03*
X-7620000Y11811000D03*
X-7239000Y19558000D03*
X-6350000Y10795000D03*
X-5740592Y609404D03*
X-5715000Y5699990D03*
X-5715000Y1397000D03*
X-5207000Y21971000D03*
X-5207000Y19685000D03*
X-4445020Y1905020D03*
X-3937000Y14986000D03*
X-3556000Y2540000D03*
X-3175000Y16129000D03*
X-2794000Y11176000D03*
X-1905000Y12700000D03*
X-1905000Y635000D03*
X-1905000Y-762000D03*
X-1270000Y16510000D03*
D11*
X-13335000Y11430000D03*
X-6985000Y20955000D03*
X-2921000Y20320000D03*
D12*
%TO.C,TP1*%
X-2540000Y6350000D03*
%TO.C,A1*%
X-15240000Y27940000D03*
X-15240000Y25400000D03*
X-15240000Y22860000D03*
X-15240000Y20320000D03*
X-15240000Y17780000D03*
X-15240000Y15240000D03*
X-15240000Y12700000D03*
X-15240000Y10160000D03*
X-15240000Y7620000D03*
X-15240000Y5080000D03*
X-15240000Y2540000D03*
X-15240000Y0D03*
X0Y27940000D03*
X0Y25400000D03*
X0Y22860000D03*
X0Y20320000D03*
X0Y17780000D03*
X0Y15240000D03*
X0Y12700000D03*
X0Y10160000D03*
X0Y7620000D03*
X0Y5080000D03*
X0Y2540000D03*
X0Y0D03*
M02*
