%TF.GenerationSoftware,KiCad,Pcbnew,5.1.6+dfsg1-1~bpo10+1*%
%TF.CreationDate,Date%
%TF.ProjectId,ProMicro_LOG,50726f4d-6963-4726-9f5f-4c4f472e6b69,v1.2*%
%TF.SameCoordinates,Original*%
%TF.FileFunction,Plated,1,2,PTH,Drill*%
%TF.FilePolarity,Positive*%
%FSLAX46Y46*%
G04 Gerber Fmt 4.6, Leading zero omitted, Abs format (unit mm)*
G04 Created by KiCad*
%MOMM*%
%LPD*%
G01*
G04 APERTURE LIST*
%TA.AperFunction,ViaDrill*%
%ADD10C,0.200000*%
%TD*%
%TA.AperFunction,ViaDrill*%
%ADD11C,0.300000*%
%TD*%
%TA.AperFunction,ComponentDrill*%
%ADD12C,0.800000*%
%TD*%
G04 APERTURE END LIST*
D10*
X1270000Y-17018000D03*
X2794000Y-13589000D03*
X3048000Y-16764000D03*
X3175000Y-9525000D03*
X4445000Y-8255000D03*
X4445000Y-13970000D03*
X4445000Y-27940000D03*
X4445006Y-26924000D03*
X5080000Y-6223000D03*
X5080000Y-17780000D03*
X5080000Y-20574000D03*
X5715000Y-13970000D03*
X6350000Y-17145000D03*
X6731000Y-21590000D03*
X6985000Y-25527000D03*
X7620000Y-12700000D03*
X7620000Y-16129000D03*
X8001000Y-8382000D03*
X8890000Y-17145000D03*
X9499408Y-27330596D03*
X9525000Y-22240010D03*
X9525000Y-26543000D03*
X10033000Y-5969000D03*
X10033000Y-8255000D03*
X10794980Y-26034980D03*
X11303000Y-12954000D03*
X11684000Y-25400000D03*
X12065000Y-11811000D03*
X12446000Y-16764000D03*
X13335000Y-15240000D03*
X13335000Y-27305000D03*
X13335000Y-28702000D03*
X13970000Y-11430000D03*
D11*
X1905000Y-16510000D03*
X8255000Y-6985000D03*
X12319000Y-7620000D03*
D12*
%TO.C,A1*%
X0Y0D03*
X0Y-2540000D03*
X0Y-5080000D03*
X0Y-7620000D03*
X0Y-10160000D03*
X0Y-12700000D03*
X0Y-15240000D03*
X0Y-17780000D03*
X0Y-20320000D03*
X0Y-22860000D03*
X0Y-25400000D03*
X0Y-27940000D03*
X15240000Y0D03*
X15240000Y-2540000D03*
X15240000Y-5080000D03*
X15240000Y-7620000D03*
X15240000Y-10160000D03*
X15240000Y-12700000D03*
X15240000Y-15240000D03*
X15240000Y-17780000D03*
X15240000Y-20320000D03*
X15240000Y-22860000D03*
X15240000Y-25400000D03*
X15240000Y-27940000D03*
%TO.C,TP1*%
X12700000Y-21590000D03*
M02*
