%TF.GenerationSoftware,KiCad,Pcbnew,5.1.9+dfsg1-1~bpo10+1*%
%TF.CreationDate,Date%
%TF.ProjectId,LORA,4c4f5241-2e6b-4696-9361-645f70636258,v1.3*%
%TF.SameCoordinates,Original*%
%TF.FileFunction,Legend,Bot*%
%TF.FilePolarity,Positive*%
%FSLAX46Y46*%
G04 Gerber Fmt 4.6, Leading zero omitted, Abs format (unit mm)*
G04 Created by KiCad*
%MOMM*%
%LPD*%
G01*
G04 APERTURE LIST*
%ADD10C,0.200000*%
%ADD11C,0.250000*%
%ADD12C,0.120000*%
%ADD13C,0.010000*%
G04 APERTURE END LIST*
D10*
X8020000Y-3149523D02*
X8058095Y-3225714D01*
X8058095Y-3340000D01*
X8020000Y-3454285D01*
X7943809Y-3530476D01*
X7867619Y-3568571D01*
X7715238Y-3606666D01*
X7600952Y-3606666D01*
X7448571Y-3568571D01*
X7372380Y-3530476D01*
X7296190Y-3454285D01*
X7258095Y-3340000D01*
X7258095Y-3263809D01*
X7296190Y-3149523D01*
X7334285Y-3111428D01*
X7600952Y-3111428D01*
X7600952Y-3263809D01*
X7258095Y-2768571D02*
X8058095Y-2768571D01*
X7258095Y-2311428D01*
X8058095Y-2311428D01*
X7258095Y-1930476D02*
X8058095Y-1930476D01*
X8058095Y-1740000D01*
X8020000Y-1625714D01*
X7943809Y-1549523D01*
X7867619Y-1511428D01*
X7715238Y-1473333D01*
X7600952Y-1473333D01*
X7448571Y-1511428D01*
X7372380Y-1549523D01*
X7296190Y-1625714D01*
X7258095Y-1740000D01*
X7258095Y-1930476D01*
X17418095Y-3740000D02*
X18218095Y-3740000D01*
X18218095Y-3549523D01*
X18180000Y-3435238D01*
X18103809Y-3359047D01*
X18027619Y-3320952D01*
X17875238Y-3282857D01*
X17760952Y-3282857D01*
X17608571Y-3320952D01*
X17532380Y-3359047D01*
X17456190Y-3435238D01*
X17418095Y-3549523D01*
X17418095Y-3740000D01*
X17418095Y-2940000D02*
X18218095Y-2940000D01*
X18218095Y-2406666D02*
X18218095Y-2254285D01*
X18180000Y-2178095D01*
X18103809Y-2101904D01*
X17951428Y-2063809D01*
X17684761Y-2063809D01*
X17532380Y-2101904D01*
X17456190Y-2178095D01*
X17418095Y-2254285D01*
X17418095Y-2406666D01*
X17456190Y-2482857D01*
X17532380Y-2559047D01*
X17684761Y-2597142D01*
X17951428Y-2597142D01*
X18103809Y-2559047D01*
X18180000Y-2482857D01*
X18218095Y-2406666D01*
X17418095Y-1301904D02*
X17418095Y-1759047D01*
X17418095Y-1530476D02*
X18218095Y-1530476D01*
X18103809Y-1606666D01*
X18027619Y-1682857D01*
X17989523Y-1759047D01*
X22498095Y-3740000D02*
X23298095Y-3740000D01*
X23298095Y-3549523D01*
X23260000Y-3435238D01*
X23183809Y-3359047D01*
X23107619Y-3320952D01*
X22955238Y-3282857D01*
X22840952Y-3282857D01*
X22688571Y-3320952D01*
X22612380Y-3359047D01*
X22536190Y-3435238D01*
X22498095Y-3549523D01*
X22498095Y-3740000D01*
X22498095Y-2940000D02*
X23298095Y-2940000D01*
X23298095Y-2406666D02*
X23298095Y-2254285D01*
X23260000Y-2178095D01*
X23183809Y-2101904D01*
X23031428Y-2063809D01*
X22764761Y-2063809D01*
X22612380Y-2101904D01*
X22536190Y-2178095D01*
X22498095Y-2254285D01*
X22498095Y-2406666D01*
X22536190Y-2482857D01*
X22612380Y-2559047D01*
X22764761Y-2597142D01*
X23031428Y-2597142D01*
X23183809Y-2559047D01*
X23260000Y-2482857D01*
X23298095Y-2406666D01*
X23298095Y-1568571D02*
X23298095Y-1492380D01*
X23260000Y-1416190D01*
X23221904Y-1378095D01*
X23145714Y-1340000D01*
X22993333Y-1301904D01*
X22802857Y-1301904D01*
X22650476Y-1340000D01*
X22574285Y-1378095D01*
X22536190Y-1416190D01*
X22498095Y-1492380D01*
X22498095Y-1568571D01*
X22536190Y-1644761D01*
X22574285Y-1682857D01*
X22650476Y-1720952D01*
X22802857Y-1759047D01*
X22993333Y-1759047D01*
X23145714Y-1720952D01*
X23221904Y-1682857D01*
X23260000Y-1644761D01*
X23298095Y-1568571D01*
X25038095Y-2978095D02*
X25419047Y-3244761D01*
X25038095Y-3435238D02*
X25838095Y-3435238D01*
X25838095Y-3130476D01*
X25800000Y-3054285D01*
X25761904Y-3016190D01*
X25685714Y-2978095D01*
X25571428Y-2978095D01*
X25495238Y-3016190D01*
X25457142Y-3054285D01*
X25419047Y-3130476D01*
X25419047Y-3435238D01*
X25076190Y-2673333D02*
X25038095Y-2559047D01*
X25038095Y-2368571D01*
X25076190Y-2292380D01*
X25114285Y-2254285D01*
X25190476Y-2216190D01*
X25266666Y-2216190D01*
X25342857Y-2254285D01*
X25380952Y-2292380D01*
X25419047Y-2368571D01*
X25457142Y-2520952D01*
X25495238Y-2597142D01*
X25533333Y-2635238D01*
X25609523Y-2673333D01*
X25685714Y-2673333D01*
X25761904Y-2635238D01*
X25800000Y-2597142D01*
X25838095Y-2520952D01*
X25838095Y-2330476D01*
X25800000Y-2216190D01*
X25838095Y-1987619D02*
X25838095Y-1530476D01*
X25038095Y-1759047D02*
X25838095Y-1759047D01*
X27654285Y-13214285D02*
X27616190Y-13252380D01*
X27578095Y-13366666D01*
X27578095Y-13442857D01*
X27616190Y-13557142D01*
X27692380Y-13633333D01*
X27768571Y-13671428D01*
X27920952Y-13709523D01*
X28035238Y-13709523D01*
X28187619Y-13671428D01*
X28263809Y-13633333D01*
X28340000Y-13557142D01*
X28378095Y-13442857D01*
X28378095Y-13366666D01*
X28340000Y-13252380D01*
X28301904Y-13214285D01*
X27616190Y-12909523D02*
X27578095Y-12795238D01*
X27578095Y-12604761D01*
X27616190Y-12528571D01*
X27654285Y-12490476D01*
X27730476Y-12452380D01*
X27806666Y-12452380D01*
X27882857Y-12490476D01*
X27920952Y-12528571D01*
X27959047Y-12604761D01*
X27997142Y-12757142D01*
X28035238Y-12833333D01*
X28073333Y-12871428D01*
X28149523Y-12909523D01*
X28225714Y-12909523D01*
X28301904Y-12871428D01*
X28340000Y-12833333D01*
X28378095Y-12757142D01*
X28378095Y-12566666D01*
X28340000Y-12452380D01*
X28378095Y-11957142D02*
X28378095Y-11880952D01*
X28340000Y-11804761D01*
X28301904Y-11766666D01*
X28225714Y-11728571D01*
X28073333Y-11690476D01*
X27882857Y-11690476D01*
X27730476Y-11728571D01*
X27654285Y-11766666D01*
X27616190Y-11804761D01*
X27578095Y-11880952D01*
X27578095Y-11957142D01*
X27616190Y-12033333D01*
X27654285Y-12071428D01*
X27730476Y-12109523D01*
X27882857Y-12147619D01*
X28073333Y-12147619D01*
X28225714Y-12109523D01*
X28301904Y-12071428D01*
X28340000Y-12033333D01*
X28378095Y-11957142D01*
X25114285Y-13461904D02*
X25076190Y-13500000D01*
X25038095Y-13614285D01*
X25038095Y-13690476D01*
X25076190Y-13804761D01*
X25152380Y-13880952D01*
X25228571Y-13919047D01*
X25380952Y-13957142D01*
X25495238Y-13957142D01*
X25647619Y-13919047D01*
X25723809Y-13880952D01*
X25800000Y-13804761D01*
X25838095Y-13690476D01*
X25838095Y-13614285D01*
X25800000Y-13500000D01*
X25761904Y-13461904D01*
X25838095Y-12966666D02*
X25838095Y-12814285D01*
X25800000Y-12738095D01*
X25723809Y-12661904D01*
X25571428Y-12623809D01*
X25304761Y-12623809D01*
X25152380Y-12661904D01*
X25076190Y-12738095D01*
X25038095Y-12814285D01*
X25038095Y-12966666D01*
X25076190Y-13042857D01*
X25152380Y-13119047D01*
X25304761Y-13157142D01*
X25571428Y-13157142D01*
X25723809Y-13119047D01*
X25800000Y-13042857D01*
X25838095Y-12966666D01*
X25038095Y-12280952D02*
X25838095Y-12280952D01*
X25838095Y-11976190D01*
X25800000Y-11900000D01*
X25761904Y-11861904D01*
X25685714Y-11823809D01*
X25571428Y-11823809D01*
X25495238Y-11861904D01*
X25457142Y-11900000D01*
X25419047Y-11976190D01*
X25419047Y-12280952D01*
X25038095Y-11480952D02*
X25838095Y-11480952D01*
X22574285Y-13461904D02*
X22536190Y-13500000D01*
X22498095Y-13614285D01*
X22498095Y-13690476D01*
X22536190Y-13804761D01*
X22612380Y-13880952D01*
X22688571Y-13919047D01*
X22840952Y-13957142D01*
X22955238Y-13957142D01*
X23107619Y-13919047D01*
X23183809Y-13880952D01*
X23260000Y-13804761D01*
X23298095Y-13690476D01*
X23298095Y-13614285D01*
X23260000Y-13500000D01*
X23221904Y-13461904D01*
X22498095Y-13119047D02*
X23298095Y-13119047D01*
X22498095Y-12738095D02*
X23298095Y-12738095D01*
X23298095Y-12433333D01*
X23260000Y-12357142D01*
X23221904Y-12319047D01*
X23145714Y-12280952D01*
X23031428Y-12280952D01*
X22955238Y-12319047D01*
X22917142Y-12357142D01*
X22879047Y-12433333D01*
X22879047Y-12738095D01*
X23298095Y-11785714D02*
X23298095Y-11633333D01*
X23260000Y-11557142D01*
X23183809Y-11480952D01*
X23031428Y-11442857D01*
X22764761Y-11442857D01*
X22612380Y-11480952D01*
X22536190Y-11557142D01*
X22498095Y-11633333D01*
X22498095Y-11785714D01*
X22536190Y-11861904D01*
X22612380Y-11938095D01*
X22764761Y-11976190D01*
X23031428Y-11976190D01*
X23183809Y-11938095D01*
X23260000Y-11861904D01*
X23298095Y-11785714D01*
X19996190Y-13728571D02*
X19958095Y-13614285D01*
X19958095Y-13423809D01*
X19996190Y-13347619D01*
X20034285Y-13309523D01*
X20110476Y-13271428D01*
X20186666Y-13271428D01*
X20262857Y-13309523D01*
X20300952Y-13347619D01*
X20339047Y-13423809D01*
X20377142Y-13576190D01*
X20415238Y-13652380D01*
X20453333Y-13690476D01*
X20529523Y-13728571D01*
X20605714Y-13728571D01*
X20681904Y-13690476D01*
X20720000Y-13652380D01*
X20758095Y-13576190D01*
X20758095Y-13385714D01*
X20720000Y-13271428D01*
X20034285Y-12471428D02*
X19996190Y-12509523D01*
X19958095Y-12623809D01*
X19958095Y-12700000D01*
X19996190Y-12814285D01*
X20072380Y-12890476D01*
X20148571Y-12928571D01*
X20300952Y-12966666D01*
X20415238Y-12966666D01*
X20567619Y-12928571D01*
X20643809Y-12890476D01*
X20720000Y-12814285D01*
X20758095Y-12700000D01*
X20758095Y-12623809D01*
X20720000Y-12509523D01*
X20681904Y-12471428D01*
X19958095Y-12128571D02*
X20758095Y-12128571D01*
X19958095Y-11671428D02*
X20415238Y-12014285D01*
X20758095Y-11671428D02*
X20300952Y-12128571D01*
X8058095Y-13690476D02*
X8058095Y-13195238D01*
X7753333Y-13461904D01*
X7753333Y-13347619D01*
X7715238Y-13271428D01*
X7677142Y-13233333D01*
X7600952Y-13195238D01*
X7410476Y-13195238D01*
X7334285Y-13233333D01*
X7296190Y-13271428D01*
X7258095Y-13347619D01*
X7258095Y-13576190D01*
X7296190Y-13652380D01*
X7334285Y-13690476D01*
X8058095Y-12966666D02*
X7258095Y-12700000D01*
X8058095Y-12433333D01*
X8058095Y-12242857D02*
X8058095Y-11747619D01*
X7753333Y-12014285D01*
X7753333Y-11900000D01*
X7715238Y-11823809D01*
X7677142Y-11785714D01*
X7600952Y-11747619D01*
X7410476Y-11747619D01*
X7334285Y-11785714D01*
X7296190Y-11823809D01*
X7258095Y-11900000D01*
X7258095Y-12128571D01*
X7296190Y-12204761D01*
X7334285Y-12242857D01*
X2940000Y-13309523D02*
X2978095Y-13385714D01*
X2978095Y-13500000D01*
X2940000Y-13614285D01*
X2863809Y-13690476D01*
X2787619Y-13728571D01*
X2635238Y-13766666D01*
X2520952Y-13766666D01*
X2368571Y-13728571D01*
X2292380Y-13690476D01*
X2216190Y-13614285D01*
X2178095Y-13500000D01*
X2178095Y-13423809D01*
X2216190Y-13309523D01*
X2254285Y-13271428D01*
X2520952Y-13271428D01*
X2520952Y-13423809D01*
X2178095Y-12928571D02*
X2978095Y-12928571D01*
X2178095Y-12471428D01*
X2978095Y-12471428D01*
X2178095Y-12090476D02*
X2978095Y-12090476D01*
X2978095Y-11900000D01*
X2940000Y-11785714D01*
X2863809Y-11709523D01*
X2787619Y-11671428D01*
X2635238Y-11633333D01*
X2520952Y-11633333D01*
X2368571Y-11671428D01*
X2292380Y-11709523D01*
X2216190Y-11785714D01*
X2178095Y-11900000D01*
X2178095Y-12090476D01*
D11*
X16950833Y-5655714D02*
X16950833Y-6465238D01*
X16998452Y-6560476D01*
X17046071Y-6608095D01*
X17141309Y-6655714D01*
X17284166Y-6655714D01*
X17379404Y-6608095D01*
X16950833Y-6274761D02*
X17046071Y-6322380D01*
X17236547Y-6322380D01*
X17331785Y-6274761D01*
X17379404Y-6227142D01*
X17427023Y-6131904D01*
X17427023Y-5846190D01*
X17379404Y-5750952D01*
X17331785Y-5703333D01*
X17236547Y-5655714D01*
X17046071Y-5655714D01*
X16950833Y-5703333D01*
X16474642Y-6322380D02*
X16474642Y-5655714D01*
X16474642Y-5322380D02*
X16522261Y-5370000D01*
X16474642Y-5417619D01*
X16427023Y-5370000D01*
X16474642Y-5322380D01*
X16474642Y-5417619D01*
X16141309Y-5655714D02*
X15760357Y-5655714D01*
X15998452Y-5322380D02*
X15998452Y-6179523D01*
X15950833Y-6274761D01*
X15855595Y-6322380D01*
X15760357Y-6322380D01*
X15427023Y-6322380D02*
X15427023Y-5322380D01*
X14998452Y-6322380D02*
X14998452Y-5798571D01*
X15046071Y-5703333D01*
X15141309Y-5655714D01*
X15284166Y-5655714D01*
X15379404Y-5703333D01*
X15427023Y-5750952D01*
X14093690Y-5655714D02*
X14093690Y-6322380D01*
X14522261Y-5655714D02*
X14522261Y-6179523D01*
X14474642Y-6274761D01*
X14379404Y-6322380D01*
X14236547Y-6322380D01*
X14141309Y-6274761D01*
X14093690Y-6227142D01*
X13617500Y-6322380D02*
X13617500Y-5322380D01*
X13617500Y-5703333D02*
X13522261Y-5655714D01*
X13331785Y-5655714D01*
X13236547Y-5703333D01*
X13188928Y-5750952D01*
X13141309Y-5846190D01*
X13141309Y-6131904D01*
X13188928Y-6227142D01*
X13236547Y-6274761D01*
X13331785Y-6322380D01*
X13522261Y-6322380D01*
X13617500Y-6274761D01*
X12712738Y-6227142D02*
X12665119Y-6274761D01*
X12712738Y-6322380D01*
X12760357Y-6274761D01*
X12712738Y-6227142D01*
X12712738Y-6322380D01*
X11807976Y-6274761D02*
X11903214Y-6322380D01*
X12093690Y-6322380D01*
X12188928Y-6274761D01*
X12236547Y-6227142D01*
X12284166Y-6131904D01*
X12284166Y-5846190D01*
X12236547Y-5750952D01*
X12188928Y-5703333D01*
X12093690Y-5655714D01*
X11903214Y-5655714D01*
X11807976Y-5703333D01*
X11236547Y-6322380D02*
X11331785Y-6274761D01*
X11379404Y-6227142D01*
X11427023Y-6131904D01*
X11427023Y-5846190D01*
X11379404Y-5750952D01*
X11331785Y-5703333D01*
X11236547Y-5655714D01*
X11093690Y-5655714D01*
X10998452Y-5703333D01*
X10950833Y-5750952D01*
X10903214Y-5846190D01*
X10903214Y-6131904D01*
X10950833Y-6227142D01*
X10998452Y-6274761D01*
X11093690Y-6322380D01*
X11236547Y-6322380D01*
X10474642Y-6322380D02*
X10474642Y-5655714D01*
X10474642Y-5750952D02*
X10427023Y-5703333D01*
X10331785Y-5655714D01*
X10188928Y-5655714D01*
X10093690Y-5703333D01*
X10046071Y-5798571D01*
X10046071Y-6322380D01*
X10046071Y-5798571D02*
X9998452Y-5703333D01*
X9903214Y-5655714D01*
X9760357Y-5655714D01*
X9665119Y-5703333D01*
X9617500Y-5798571D01*
X9617500Y-6322380D01*
X8427023Y-5274761D02*
X9284166Y-6560476D01*
X8093690Y-5655714D02*
X8093690Y-6322380D01*
X8093690Y-5750952D02*
X8046071Y-5703333D01*
X7950833Y-5655714D01*
X7807976Y-5655714D01*
X7712738Y-5703333D01*
X7665119Y-5798571D01*
X7665119Y-6322380D01*
X6807976Y-6274761D02*
X6903214Y-6322380D01*
X7093690Y-6322380D01*
X7188928Y-6274761D01*
X7236547Y-6179523D01*
X7236547Y-5798571D01*
X7188928Y-5703333D01*
X7093690Y-5655714D01*
X6903214Y-5655714D01*
X6807976Y-5703333D01*
X6760357Y-5798571D01*
X6760357Y-5893809D01*
X7236547Y-5989047D01*
X6331785Y-6322380D02*
X6331785Y-5655714D01*
X6331785Y-5846190D02*
X6284166Y-5750952D01*
X6236547Y-5703333D01*
X6141309Y-5655714D01*
X6046071Y-5655714D01*
X5284166Y-6322380D02*
X5284166Y-5322380D01*
X5284166Y-6274761D02*
X5379404Y-6322380D01*
X5569880Y-6322380D01*
X5665119Y-6274761D01*
X5712738Y-6227142D01*
X5760357Y-6131904D01*
X5760357Y-5846190D01*
X5712738Y-5750952D01*
X5665119Y-5703333D01*
X5569880Y-5655714D01*
X5379404Y-5655714D01*
X5284166Y-5703333D01*
X4903214Y-5655714D02*
X4665119Y-6322380D01*
X4427023Y-5655714D02*
X4665119Y-6322380D01*
X4760357Y-6560476D01*
X4807976Y-6608095D01*
X4903214Y-6655714D01*
X4093690Y-6274761D02*
X3998452Y-6322380D01*
X3807976Y-6322380D01*
X3712738Y-6274761D01*
X3665119Y-6179523D01*
X3665119Y-6131904D01*
X3712738Y-6036666D01*
X3807976Y-5989047D01*
X3950833Y-5989047D01*
X4046071Y-5941428D01*
X4093690Y-5846190D01*
X4093690Y-5798571D01*
X4046071Y-5703333D01*
X3950833Y-5655714D01*
X3807976Y-5655714D01*
X3712738Y-5703333D01*
X2807976Y-6274761D02*
X2903214Y-6322380D01*
X3093690Y-6322380D01*
X3188928Y-6274761D01*
X3236547Y-6227142D01*
X3284166Y-6131904D01*
X3284166Y-5846190D01*
X3236547Y-5750952D01*
X3188928Y-5703333D01*
X3093690Y-5655714D01*
X2903214Y-5655714D01*
X2807976Y-5703333D01*
X2236547Y-6322380D02*
X2331785Y-6274761D01*
X2379404Y-6227142D01*
X2427023Y-6131904D01*
X2427023Y-5846190D01*
X2379404Y-5750952D01*
X2331785Y-5703333D01*
X2236547Y-5655714D01*
X2093690Y-5655714D01*
X1998452Y-5703333D01*
X1950833Y-5750952D01*
X1903214Y-5846190D01*
X1903214Y-6131904D01*
X1950833Y-6227142D01*
X1998452Y-6274761D01*
X2093690Y-6322380D01*
X2236547Y-6322380D01*
X1046071Y-5655714D02*
X1046071Y-6322380D01*
X1474642Y-5655714D02*
X1474642Y-6179523D01*
X1427023Y-6274761D01*
X1331785Y-6322380D01*
X1188928Y-6322380D01*
X1093690Y-6274761D01*
X1046071Y-6227142D01*
X712738Y-5655714D02*
X331785Y-5655714D01*
X569880Y-5322380D02*
X569880Y-6179523D01*
X522261Y-6274761D01*
X427023Y-6322380D01*
X331785Y-6322380D01*
X-715834Y-5274761D02*
X141309Y-6560476D01*
X17379404Y-8072380D02*
X17379404Y-7072380D01*
X16998452Y-7072380D01*
X16903214Y-7120000D01*
X16855595Y-7167619D01*
X16807976Y-7262857D01*
X16807976Y-7405714D01*
X16855595Y-7500952D01*
X16903214Y-7548571D01*
X16998452Y-7596190D01*
X17379404Y-7596190D01*
X16379404Y-8072380D02*
X16379404Y-7405714D01*
X16379404Y-7596190D02*
X16331785Y-7500952D01*
X16284166Y-7453333D01*
X16188928Y-7405714D01*
X16093690Y-7405714D01*
X15617500Y-8072380D02*
X15712738Y-8024761D01*
X15760357Y-7977142D01*
X15807976Y-7881904D01*
X15807976Y-7596190D01*
X15760357Y-7500952D01*
X15712738Y-7453333D01*
X15617500Y-7405714D01*
X15474642Y-7405714D01*
X15379404Y-7453333D01*
X15331785Y-7500952D01*
X15284166Y-7596190D01*
X15284166Y-7881904D01*
X15331785Y-7977142D01*
X15379404Y-8024761D01*
X15474642Y-8072380D01*
X15617500Y-8072380D01*
X14855595Y-8072380D02*
X14855595Y-7072380D01*
X14522261Y-7786666D01*
X14188928Y-7072380D01*
X14188928Y-8072380D01*
X13712738Y-8072380D02*
X13712738Y-7405714D01*
X13712738Y-7072380D02*
X13760357Y-7120000D01*
X13712738Y-7167619D01*
X13665119Y-7120000D01*
X13712738Y-7072380D01*
X13712738Y-7167619D01*
X12807976Y-8024761D02*
X12903214Y-8072380D01*
X13093690Y-8072380D01*
X13188928Y-8024761D01*
X13236547Y-7977142D01*
X13284166Y-7881904D01*
X13284166Y-7596190D01*
X13236547Y-7500952D01*
X13188928Y-7453333D01*
X13093690Y-7405714D01*
X12903214Y-7405714D01*
X12807976Y-7453333D01*
X12379404Y-8072380D02*
X12379404Y-7405714D01*
X12379404Y-7596190D02*
X12331785Y-7500952D01*
X12284166Y-7453333D01*
X12188928Y-7405714D01*
X12093690Y-7405714D01*
X11617500Y-8072380D02*
X11712738Y-8024761D01*
X11760357Y-7977142D01*
X11807976Y-7881904D01*
X11807976Y-7596190D01*
X11760357Y-7500952D01*
X11712738Y-7453333D01*
X11617500Y-7405714D01*
X11474642Y-7405714D01*
X11379404Y-7453333D01*
X11331785Y-7500952D01*
X11284166Y-7596190D01*
X11284166Y-7881904D01*
X11331785Y-7977142D01*
X11379404Y-8024761D01*
X11474642Y-8072380D01*
X11617500Y-8072380D01*
X10141309Y-7024761D02*
X10998452Y-8310476D01*
X9331785Y-8072380D02*
X9807976Y-8072380D01*
X9807976Y-7072380D01*
X8807976Y-7072380D02*
X8617500Y-7072380D01*
X8522261Y-7120000D01*
X8427023Y-7215238D01*
X8379404Y-7405714D01*
X8379404Y-7739047D01*
X8427023Y-7929523D01*
X8522261Y-8024761D01*
X8617500Y-8072380D01*
X8807976Y-8072380D01*
X8903214Y-8024761D01*
X8998452Y-7929523D01*
X9046071Y-7739047D01*
X9046071Y-7405714D01*
X8998452Y-7215238D01*
X8903214Y-7120000D01*
X8807976Y-7072380D01*
X7379404Y-8072380D02*
X7712738Y-7596190D01*
X7950833Y-8072380D02*
X7950833Y-7072380D01*
X7569880Y-7072380D01*
X7474642Y-7120000D01*
X7427023Y-7167619D01*
X7379404Y-7262857D01*
X7379404Y-7405714D01*
X7427023Y-7500952D01*
X7474642Y-7548571D01*
X7569880Y-7596190D01*
X7950833Y-7596190D01*
X6998452Y-7786666D02*
X6522261Y-7786666D01*
X7093690Y-8072380D02*
X6760357Y-7072380D01*
X6427023Y-8072380D01*
X17474642Y-9155714D02*
X17236547Y-9822380D01*
X16998452Y-9155714D01*
X16093690Y-9822380D02*
X16665119Y-9822380D01*
X16379404Y-9822380D02*
X16379404Y-8822380D01*
X16474642Y-8965238D01*
X16569880Y-9060476D01*
X16665119Y-9108095D01*
X15665119Y-9727142D02*
X15617500Y-9774761D01*
X15665119Y-9822380D01*
X15712738Y-9774761D01*
X15665119Y-9727142D01*
X15665119Y-9822380D01*
X15284166Y-8822380D02*
X14665119Y-8822380D01*
X14998452Y-9203333D01*
X14855595Y-9203333D01*
X14760357Y-9250952D01*
X14712738Y-9298571D01*
X14665119Y-9393809D01*
X14665119Y-9631904D01*
X14712738Y-9727142D01*
X14760357Y-9774761D01*
X14855595Y-9822380D01*
X15141309Y-9822380D01*
X15236547Y-9774761D01*
X15284166Y-9727142D01*
D12*
%TO.C,A1*%
X1270000Y1420000D02*
X29360000Y1420000D01*
X-1270000Y-13970000D02*
X29360000Y-13970000D01*
X1270000Y-1270000D02*
X1270000Y1420000D01*
X-1270000Y-1270000D02*
X29360000Y-1270000D01*
X29360000Y1420000D02*
X29360000Y-16660000D01*
X29360000Y-16660000D02*
X-1270000Y-16660000D01*
X-1270000Y-16660000D02*
X-1270000Y-1270000D01*
D13*
%TO.C,LOGO1*%
G36*
X21669186Y-5088931D02*
G01*
X21585365Y-5533555D01*
X21276080Y-5661053D01*
X20966794Y-5788551D01*
X20595754Y-5536246D01*
X20491843Y-5465996D01*
X20397913Y-5403272D01*
X20318348Y-5350938D01*
X20257530Y-5311857D01*
X20219843Y-5288893D01*
X20209579Y-5283942D01*
X20191090Y-5296676D01*
X20151580Y-5331882D01*
X20095478Y-5385062D01*
X20027213Y-5451718D01*
X19951214Y-5527354D01*
X19871908Y-5607472D01*
X19793725Y-5687574D01*
X19721093Y-5763164D01*
X19658441Y-5829745D01*
X19610197Y-5882818D01*
X19580790Y-5917887D01*
X19573759Y-5929623D01*
X19583877Y-5951260D01*
X19612241Y-5998662D01*
X19655871Y-6067193D01*
X19711782Y-6152215D01*
X19776994Y-6249093D01*
X19814781Y-6304350D01*
X19883657Y-6405248D01*
X19944860Y-6496299D01*
X19995422Y-6572970D01*
X20032372Y-6630728D01*
X20052742Y-6665043D01*
X20055803Y-6672254D01*
X20048864Y-6692748D01*
X20029949Y-6740513D01*
X20001913Y-6808832D01*
X19967609Y-6890989D01*
X19929891Y-6980270D01*
X19891613Y-7069958D01*
X19855630Y-7153338D01*
X19824794Y-7223694D01*
X19801961Y-7274310D01*
X19789983Y-7298471D01*
X19789276Y-7299422D01*
X19770469Y-7304036D01*
X19720382Y-7314328D01*
X19644207Y-7329287D01*
X19547135Y-7347901D01*
X19434357Y-7369159D01*
X19368558Y-7381418D01*
X19248050Y-7404362D01*
X19139203Y-7426195D01*
X19047524Y-7445722D01*
X18978519Y-7461748D01*
X18937696Y-7473079D01*
X18929489Y-7476674D01*
X18921452Y-7501006D01*
X18914967Y-7555959D01*
X18910030Y-7635108D01*
X18906636Y-7732026D01*
X18904782Y-7840287D01*
X18904462Y-7953465D01*
X18905673Y-8065135D01*
X18908410Y-8168868D01*
X18912669Y-8258241D01*
X18918445Y-8326826D01*
X18925733Y-8368197D01*
X18930105Y-8376810D01*
X18956236Y-8387133D01*
X19011607Y-8401892D01*
X19088893Y-8419352D01*
X19180770Y-8437780D01*
X19212842Y-8443741D01*
X19367476Y-8472066D01*
X19489625Y-8494876D01*
X19583327Y-8513080D01*
X19652616Y-8527583D01*
X19701529Y-8539292D01*
X19734103Y-8549115D01*
X19754372Y-8557956D01*
X19766374Y-8566724D01*
X19768053Y-8568457D01*
X19784816Y-8596371D01*
X19810386Y-8650695D01*
X19842212Y-8724777D01*
X19877740Y-8811965D01*
X19914417Y-8905608D01*
X19949689Y-8999052D01*
X19981004Y-9085647D01*
X20005807Y-9158740D01*
X20021546Y-9211678D01*
X20025668Y-9237811D01*
X20025324Y-9238726D01*
X20011359Y-9260086D01*
X19979678Y-9307084D01*
X19933609Y-9374827D01*
X19876482Y-9458423D01*
X19811627Y-9552982D01*
X19793157Y-9579854D01*
X19727301Y-9677275D01*
X19669350Y-9766163D01*
X19622462Y-9841412D01*
X19589793Y-9897920D01*
X19574500Y-9930581D01*
X19573759Y-9934593D01*
X19586608Y-9955684D01*
X19622112Y-9997464D01*
X19675707Y-10055445D01*
X19742829Y-10125135D01*
X19818913Y-10202045D01*
X19899396Y-10281683D01*
X19979713Y-10359561D01*
X20055301Y-10431186D01*
X20121595Y-10492070D01*
X20174031Y-10537721D01*
X20208045Y-10563650D01*
X20217455Y-10567883D01*
X20239357Y-10557912D01*
X20284200Y-10531020D01*
X20344679Y-10491736D01*
X20391211Y-10460117D01*
X20475525Y-10402098D01*
X20575374Y-10333784D01*
X20675527Y-10265579D01*
X20729373Y-10229075D01*
X20911629Y-10105800D01*
X21064619Y-10188520D01*
X21134318Y-10224759D01*
X21193586Y-10252926D01*
X21233689Y-10268991D01*
X21243897Y-10271226D01*
X21256171Y-10254722D01*
X21280387Y-10208082D01*
X21314737Y-10135609D01*
X21357412Y-10041606D01*
X21406606Y-9930374D01*
X21460510Y-9806215D01*
X21517316Y-9673432D01*
X21575218Y-9536327D01*
X21632407Y-9399202D01*
X21687076Y-9266358D01*
X21737416Y-9142098D01*
X21781620Y-9030725D01*
X21817881Y-8936539D01*
X21844391Y-8863844D01*
X21859342Y-8816941D01*
X21861746Y-8800833D01*
X21842689Y-8780286D01*
X21800964Y-8746933D01*
X21745294Y-8707702D01*
X21740622Y-8704599D01*
X21596736Y-8589423D01*
X21480717Y-8455053D01*
X21393570Y-8305784D01*
X21336301Y-8145913D01*
X21309914Y-7979737D01*
X21315415Y-7811552D01*
X21353810Y-7645655D01*
X21426105Y-7486342D01*
X21447374Y-7451487D01*
X21558004Y-7310737D01*
X21688698Y-7197714D01*
X21834936Y-7113003D01*
X21992192Y-7057194D01*
X22155943Y-7030874D01*
X22321667Y-7034630D01*
X22484838Y-7069050D01*
X22640935Y-7134723D01*
X22785433Y-7232235D01*
X22830131Y-7271813D01*
X22943888Y-7395703D01*
X23026782Y-7526124D01*
X23083644Y-7672315D01*
X23115313Y-7817088D01*
X23123131Y-7979860D01*
X23097062Y-8143440D01*
X23039755Y-8302298D01*
X22953856Y-8450906D01*
X22842014Y-8583735D01*
X22706877Y-8695256D01*
X22689117Y-8707011D01*
X22632850Y-8745508D01*
X22590077Y-8778863D01*
X22569628Y-8800160D01*
X22569331Y-8800833D01*
X22573721Y-8823871D01*
X22591124Y-8876157D01*
X22619732Y-8953390D01*
X22657735Y-9051268D01*
X22703326Y-9165491D01*
X22754697Y-9291758D01*
X22810038Y-9425767D01*
X22867542Y-9563218D01*
X22925399Y-9699808D01*
X22981802Y-9831237D01*
X23034942Y-9953205D01*
X23083010Y-10061409D01*
X23124199Y-10151549D01*
X23156699Y-10219323D01*
X23178703Y-10260430D01*
X23187564Y-10271226D01*
X23214640Y-10262819D01*
X23265303Y-10240272D01*
X23330817Y-10207613D01*
X23366841Y-10188520D01*
X23519832Y-10105800D01*
X23702088Y-10229075D01*
X23795125Y-10292228D01*
X23896985Y-10361727D01*
X23992438Y-10427165D01*
X24040250Y-10460117D01*
X24107495Y-10505273D01*
X24164436Y-10541057D01*
X24203646Y-10562938D01*
X24216381Y-10567563D01*
X24234917Y-10555085D01*
X24275941Y-10520252D01*
X24335475Y-10466678D01*
X24409542Y-10397983D01*
X24494165Y-10317781D01*
X24547685Y-10266286D01*
X24641319Y-10174286D01*
X24722241Y-10091999D01*
X24787177Y-10022945D01*
X24832858Y-9970644D01*
X24856011Y-9938616D01*
X24858232Y-9932116D01*
X24847924Y-9907394D01*
X24819439Y-9857405D01*
X24775937Y-9787212D01*
X24720577Y-9701875D01*
X24656520Y-9606456D01*
X24638303Y-9579854D01*
X24571927Y-9483167D01*
X24512378Y-9396117D01*
X24462984Y-9323595D01*
X24427075Y-9270493D01*
X24407981Y-9241703D01*
X24406136Y-9238726D01*
X24408895Y-9215782D01*
X24423538Y-9165336D01*
X24447513Y-9094041D01*
X24478266Y-9008547D01*
X24513244Y-8915507D01*
X24549893Y-8821574D01*
X24585661Y-8733399D01*
X24617994Y-8657634D01*
X24644338Y-8600931D01*
X24662142Y-8569943D01*
X24663407Y-8568457D01*
X24674294Y-8559601D01*
X24692682Y-8550843D01*
X24722606Y-8541277D01*
X24768103Y-8529996D01*
X24833209Y-8516093D01*
X24921961Y-8498663D01*
X25038393Y-8476798D01*
X25186542Y-8449591D01*
X25218618Y-8443741D01*
X25313686Y-8425374D01*
X25396565Y-8407405D01*
X25459930Y-8391569D01*
X25496458Y-8379600D01*
X25501356Y-8376810D01*
X25509427Y-8352072D01*
X25515987Y-8296790D01*
X25521033Y-8217389D01*
X25524559Y-8120296D01*
X25526561Y-8011938D01*
X25527036Y-7898740D01*
X25525977Y-7787128D01*
X25523382Y-7683529D01*
X25519246Y-7594368D01*
X25513563Y-7526072D01*
X25506331Y-7485066D01*
X25501971Y-7476674D01*
X25477698Y-7468208D01*
X25422426Y-7454435D01*
X25341662Y-7436550D01*
X25240912Y-7415748D01*
X25125683Y-7393223D01*
X25062902Y-7381418D01*
X24943787Y-7359151D01*
X24837565Y-7338979D01*
X24749427Y-7321915D01*
X24684566Y-7308969D01*
X24648174Y-7301155D01*
X24642184Y-7299422D01*
X24632061Y-7279890D01*
X24610662Y-7232843D01*
X24580839Y-7165003D01*
X24545445Y-7083091D01*
X24507332Y-6993828D01*
X24469353Y-6903935D01*
X24434360Y-6820135D01*
X24405206Y-6749147D01*
X24384743Y-6697694D01*
X24375823Y-6672497D01*
X24375657Y-6671396D01*
X24385769Y-6651519D01*
X24414117Y-6605777D01*
X24457723Y-6538717D01*
X24513606Y-6454884D01*
X24578787Y-6358826D01*
X24616679Y-6303650D01*
X24685725Y-6202481D01*
X24747050Y-6110630D01*
X24797663Y-6032744D01*
X24834571Y-5973469D01*
X24854782Y-5937451D01*
X24857701Y-5929377D01*
X24845153Y-5910584D01*
X24810463Y-5870457D01*
X24758063Y-5813493D01*
X24692384Y-5744185D01*
X24617856Y-5667031D01*
X24538913Y-5586525D01*
X24459983Y-5507163D01*
X24385500Y-5433440D01*
X24319894Y-5369852D01*
X24267596Y-5320894D01*
X24233039Y-5291061D01*
X24221478Y-5283942D01*
X24202654Y-5293953D01*
X24157631Y-5322078D01*
X24090787Y-5365454D01*
X24006499Y-5421218D01*
X23909144Y-5486506D01*
X23835707Y-5536246D01*
X23464667Y-5788551D01*
X22846095Y-5533555D01*
X22762275Y-5088931D01*
X22678454Y-4644307D01*
X21753006Y-4644307D01*
X21669186Y-5088931D01*
G37*
X21669186Y-5088931D02*
X21585365Y-5533555D01*
X21276080Y-5661053D01*
X20966794Y-5788551D01*
X20595754Y-5536246D01*
X20491843Y-5465996D01*
X20397913Y-5403272D01*
X20318348Y-5350938D01*
X20257530Y-5311857D01*
X20219843Y-5288893D01*
X20209579Y-5283942D01*
X20191090Y-5296676D01*
X20151580Y-5331882D01*
X20095478Y-5385062D01*
X20027213Y-5451718D01*
X19951214Y-5527354D01*
X19871908Y-5607472D01*
X19793725Y-5687574D01*
X19721093Y-5763164D01*
X19658441Y-5829745D01*
X19610197Y-5882818D01*
X19580790Y-5917887D01*
X19573759Y-5929623D01*
X19583877Y-5951260D01*
X19612241Y-5998662D01*
X19655871Y-6067193D01*
X19711782Y-6152215D01*
X19776994Y-6249093D01*
X19814781Y-6304350D01*
X19883657Y-6405248D01*
X19944860Y-6496299D01*
X19995422Y-6572970D01*
X20032372Y-6630728D01*
X20052742Y-6665043D01*
X20055803Y-6672254D01*
X20048864Y-6692748D01*
X20029949Y-6740513D01*
X20001913Y-6808832D01*
X19967609Y-6890989D01*
X19929891Y-6980270D01*
X19891613Y-7069958D01*
X19855630Y-7153338D01*
X19824794Y-7223694D01*
X19801961Y-7274310D01*
X19789983Y-7298471D01*
X19789276Y-7299422D01*
X19770469Y-7304036D01*
X19720382Y-7314328D01*
X19644207Y-7329287D01*
X19547135Y-7347901D01*
X19434357Y-7369159D01*
X19368558Y-7381418D01*
X19248050Y-7404362D01*
X19139203Y-7426195D01*
X19047524Y-7445722D01*
X18978519Y-7461748D01*
X18937696Y-7473079D01*
X18929489Y-7476674D01*
X18921452Y-7501006D01*
X18914967Y-7555959D01*
X18910030Y-7635108D01*
X18906636Y-7732026D01*
X18904782Y-7840287D01*
X18904462Y-7953465D01*
X18905673Y-8065135D01*
X18908410Y-8168868D01*
X18912669Y-8258241D01*
X18918445Y-8326826D01*
X18925733Y-8368197D01*
X18930105Y-8376810D01*
X18956236Y-8387133D01*
X19011607Y-8401892D01*
X19088893Y-8419352D01*
X19180770Y-8437780D01*
X19212842Y-8443741D01*
X19367476Y-8472066D01*
X19489625Y-8494876D01*
X19583327Y-8513080D01*
X19652616Y-8527583D01*
X19701529Y-8539292D01*
X19734103Y-8549115D01*
X19754372Y-8557956D01*
X19766374Y-8566724D01*
X19768053Y-8568457D01*
X19784816Y-8596371D01*
X19810386Y-8650695D01*
X19842212Y-8724777D01*
X19877740Y-8811965D01*
X19914417Y-8905608D01*
X19949689Y-8999052D01*
X19981004Y-9085647D01*
X20005807Y-9158740D01*
X20021546Y-9211678D01*
X20025668Y-9237811D01*
X20025324Y-9238726D01*
X20011359Y-9260086D01*
X19979678Y-9307084D01*
X19933609Y-9374827D01*
X19876482Y-9458423D01*
X19811627Y-9552982D01*
X19793157Y-9579854D01*
X19727301Y-9677275D01*
X19669350Y-9766163D01*
X19622462Y-9841412D01*
X19589793Y-9897920D01*
X19574500Y-9930581D01*
X19573759Y-9934593D01*
X19586608Y-9955684D01*
X19622112Y-9997464D01*
X19675707Y-10055445D01*
X19742829Y-10125135D01*
X19818913Y-10202045D01*
X19899396Y-10281683D01*
X19979713Y-10359561D01*
X20055301Y-10431186D01*
X20121595Y-10492070D01*
X20174031Y-10537721D01*
X20208045Y-10563650D01*
X20217455Y-10567883D01*
X20239357Y-10557912D01*
X20284200Y-10531020D01*
X20344679Y-10491736D01*
X20391211Y-10460117D01*
X20475525Y-10402098D01*
X20575374Y-10333784D01*
X20675527Y-10265579D01*
X20729373Y-10229075D01*
X20911629Y-10105800D01*
X21064619Y-10188520D01*
X21134318Y-10224759D01*
X21193586Y-10252926D01*
X21233689Y-10268991D01*
X21243897Y-10271226D01*
X21256171Y-10254722D01*
X21280387Y-10208082D01*
X21314737Y-10135609D01*
X21357412Y-10041606D01*
X21406606Y-9930374D01*
X21460510Y-9806215D01*
X21517316Y-9673432D01*
X21575218Y-9536327D01*
X21632407Y-9399202D01*
X21687076Y-9266358D01*
X21737416Y-9142098D01*
X21781620Y-9030725D01*
X21817881Y-8936539D01*
X21844391Y-8863844D01*
X21859342Y-8816941D01*
X21861746Y-8800833D01*
X21842689Y-8780286D01*
X21800964Y-8746933D01*
X21745294Y-8707702D01*
X21740622Y-8704599D01*
X21596736Y-8589423D01*
X21480717Y-8455053D01*
X21393570Y-8305784D01*
X21336301Y-8145913D01*
X21309914Y-7979737D01*
X21315415Y-7811552D01*
X21353810Y-7645655D01*
X21426105Y-7486342D01*
X21447374Y-7451487D01*
X21558004Y-7310737D01*
X21688698Y-7197714D01*
X21834936Y-7113003D01*
X21992192Y-7057194D01*
X22155943Y-7030874D01*
X22321667Y-7034630D01*
X22484838Y-7069050D01*
X22640935Y-7134723D01*
X22785433Y-7232235D01*
X22830131Y-7271813D01*
X22943888Y-7395703D01*
X23026782Y-7526124D01*
X23083644Y-7672315D01*
X23115313Y-7817088D01*
X23123131Y-7979860D01*
X23097062Y-8143440D01*
X23039755Y-8302298D01*
X22953856Y-8450906D01*
X22842014Y-8583735D01*
X22706877Y-8695256D01*
X22689117Y-8707011D01*
X22632850Y-8745508D01*
X22590077Y-8778863D01*
X22569628Y-8800160D01*
X22569331Y-8800833D01*
X22573721Y-8823871D01*
X22591124Y-8876157D01*
X22619732Y-8953390D01*
X22657735Y-9051268D01*
X22703326Y-9165491D01*
X22754697Y-9291758D01*
X22810038Y-9425767D01*
X22867542Y-9563218D01*
X22925399Y-9699808D01*
X22981802Y-9831237D01*
X23034942Y-9953205D01*
X23083010Y-10061409D01*
X23124199Y-10151549D01*
X23156699Y-10219323D01*
X23178703Y-10260430D01*
X23187564Y-10271226D01*
X23214640Y-10262819D01*
X23265303Y-10240272D01*
X23330817Y-10207613D01*
X23366841Y-10188520D01*
X23519832Y-10105800D01*
X23702088Y-10229075D01*
X23795125Y-10292228D01*
X23896985Y-10361727D01*
X23992438Y-10427165D01*
X24040250Y-10460117D01*
X24107495Y-10505273D01*
X24164436Y-10541057D01*
X24203646Y-10562938D01*
X24216381Y-10567563D01*
X24234917Y-10555085D01*
X24275941Y-10520252D01*
X24335475Y-10466678D01*
X24409542Y-10397983D01*
X24494165Y-10317781D01*
X24547685Y-10266286D01*
X24641319Y-10174286D01*
X24722241Y-10091999D01*
X24787177Y-10022945D01*
X24832858Y-9970644D01*
X24856011Y-9938616D01*
X24858232Y-9932116D01*
X24847924Y-9907394D01*
X24819439Y-9857405D01*
X24775937Y-9787212D01*
X24720577Y-9701875D01*
X24656520Y-9606456D01*
X24638303Y-9579854D01*
X24571927Y-9483167D01*
X24512378Y-9396117D01*
X24462984Y-9323595D01*
X24427075Y-9270493D01*
X24407981Y-9241703D01*
X24406136Y-9238726D01*
X24408895Y-9215782D01*
X24423538Y-9165336D01*
X24447513Y-9094041D01*
X24478266Y-9008547D01*
X24513244Y-8915507D01*
X24549893Y-8821574D01*
X24585661Y-8733399D01*
X24617994Y-8657634D01*
X24644338Y-8600931D01*
X24662142Y-8569943D01*
X24663407Y-8568457D01*
X24674294Y-8559601D01*
X24692682Y-8550843D01*
X24722606Y-8541277D01*
X24768103Y-8529996D01*
X24833209Y-8516093D01*
X24921961Y-8498663D01*
X25038393Y-8476798D01*
X25186542Y-8449591D01*
X25218618Y-8443741D01*
X25313686Y-8425374D01*
X25396565Y-8407405D01*
X25459930Y-8391569D01*
X25496458Y-8379600D01*
X25501356Y-8376810D01*
X25509427Y-8352072D01*
X25515987Y-8296790D01*
X25521033Y-8217389D01*
X25524559Y-8120296D01*
X25526561Y-8011938D01*
X25527036Y-7898740D01*
X25525977Y-7787128D01*
X25523382Y-7683529D01*
X25519246Y-7594368D01*
X25513563Y-7526072D01*
X25506331Y-7485066D01*
X25501971Y-7476674D01*
X25477698Y-7468208D01*
X25422426Y-7454435D01*
X25341662Y-7436550D01*
X25240912Y-7415748D01*
X25125683Y-7393223D01*
X25062902Y-7381418D01*
X24943787Y-7359151D01*
X24837565Y-7338979D01*
X24749427Y-7321915D01*
X24684566Y-7308969D01*
X24648174Y-7301155D01*
X24642184Y-7299422D01*
X24632061Y-7279890D01*
X24610662Y-7232843D01*
X24580839Y-7165003D01*
X24545445Y-7083091D01*
X24507332Y-6993828D01*
X24469353Y-6903935D01*
X24434360Y-6820135D01*
X24405206Y-6749147D01*
X24384743Y-6697694D01*
X24375823Y-6672497D01*
X24375657Y-6671396D01*
X24385769Y-6651519D01*
X24414117Y-6605777D01*
X24457723Y-6538717D01*
X24513606Y-6454884D01*
X24578787Y-6358826D01*
X24616679Y-6303650D01*
X24685725Y-6202481D01*
X24747050Y-6110630D01*
X24797663Y-6032744D01*
X24834571Y-5973469D01*
X24854782Y-5937451D01*
X24857701Y-5929377D01*
X24845153Y-5910584D01*
X24810463Y-5870457D01*
X24758063Y-5813493D01*
X24692384Y-5744185D01*
X24617856Y-5667031D01*
X24538913Y-5586525D01*
X24459983Y-5507163D01*
X24385500Y-5433440D01*
X24319894Y-5369852D01*
X24267596Y-5320894D01*
X24233039Y-5291061D01*
X24221478Y-5283942D01*
X24202654Y-5293953D01*
X24157631Y-5322078D01*
X24090787Y-5365454D01*
X24006499Y-5421218D01*
X23909144Y-5486506D01*
X23835707Y-5536246D01*
X23464667Y-5788551D01*
X22846095Y-5533555D01*
X22762275Y-5088931D01*
X22678454Y-4644307D01*
X21753006Y-4644307D01*
X21669186Y-5088931D01*
%TD*%
M02*
