%TF.GenerationSoftware,KiCad,Pcbnew,5.1.6+dfsg1-1~bpo10+1*%
%TF.CreationDate,Date%
%TF.ProjectId,ProMicro_LORA,50726f4d-6963-4726-9f5f-4c4f52412e6b,v1.1*%
%TF.SameCoordinates,Original*%
%TF.FileFunction,Legend,Bot*%
%TF.FilePolarity,Positive*%
%FSLAX45Y45*%
G04 Gerber Fmt 4.5, Leading zero omitted, Abs format (unit mm)*
G04 Created by KiCad*
%MOMM*%
%LPD*%
G01*
G04 APERTURE LIST*
%ADD10C,0.200000*%
%TA.AperFunction,Profile*%
%ADD11C,0.100000*%
%TD*%
%ADD12C,0.250000*%
%ADD13C,0.120000*%
%ADD14C,0.010000*%
%ADD15R,1.600000X1.600000*%
%ADD16O,1.600000X1.600000*%
%ADD17R,1.350000X4.200000*%
G04 APERTURE END LIST*
D10*
X314952Y802000D02*
X322571Y805810D01*
X334000Y805810D01*
X345429Y802000D01*
X353048Y794381D01*
X356857Y786762D01*
X360667Y771524D01*
X360667Y760095D01*
X356857Y744857D01*
X353048Y737238D01*
X345429Y729619D01*
X334000Y725810D01*
X326381Y725810D01*
X314952Y729619D01*
X311143Y733429D01*
X311143Y760095D01*
X326381Y760095D01*
X276857Y725810D02*
X276857Y805810D01*
X231143Y725810D01*
X231143Y805810D01*
X193048Y725810D02*
X193048Y805810D01*
X174000Y805810D01*
X162571Y802000D01*
X154952Y794381D01*
X151143Y786762D01*
X147333Y771524D01*
X147333Y760095D01*
X151143Y744857D01*
X154952Y737238D01*
X162571Y729619D01*
X174000Y725810D01*
X193048Y725810D01*
X374000Y1741810D02*
X374000Y1821810D01*
X354952Y1821810D01*
X343524Y1818000D01*
X335905Y1810381D01*
X332095Y1802762D01*
X328286Y1787524D01*
X328286Y1776095D01*
X332095Y1760857D01*
X335905Y1753238D01*
X343524Y1745619D01*
X354952Y1741810D01*
X374000Y1741810D01*
X294000Y1741810D02*
X294000Y1821810D01*
X240667Y1821810D02*
X225428Y1821810D01*
X217809Y1818000D01*
X210190Y1810381D01*
X206381Y1795143D01*
X206381Y1768476D01*
X210190Y1753238D01*
X217809Y1745619D01*
X225428Y1741810D01*
X240667Y1741810D01*
X248286Y1745619D01*
X255905Y1753238D01*
X259714Y1768476D01*
X259714Y1795143D01*
X255905Y1810381D01*
X248286Y1818000D01*
X240667Y1821810D01*
X130190Y1741810D02*
X175905Y1741810D01*
X153048Y1741810D02*
X153048Y1821810D01*
X160667Y1810381D01*
X168286Y1802762D01*
X175905Y1798952D01*
X374000Y2249810D02*
X374000Y2329810D01*
X354952Y2329810D01*
X343524Y2326000D01*
X335905Y2318381D01*
X332095Y2310762D01*
X328286Y2295524D01*
X328286Y2284095D01*
X332095Y2268857D01*
X335905Y2261238D01*
X343524Y2253619D01*
X354952Y2249810D01*
X374000Y2249810D01*
X294000Y2249810D02*
X294000Y2329810D01*
X240667Y2329810D02*
X225428Y2329810D01*
X217809Y2326000D01*
X210190Y2318381D01*
X206381Y2303143D01*
X206381Y2276476D01*
X210190Y2261238D01*
X217809Y2253619D01*
X225428Y2249810D01*
X240667Y2249810D01*
X248286Y2253619D01*
X255905Y2261238D01*
X259714Y2276476D01*
X259714Y2303143D01*
X255905Y2318381D01*
X248286Y2326000D01*
X240667Y2329810D01*
X156857Y2329810D02*
X149238Y2329810D01*
X141619Y2326000D01*
X137810Y2322191D01*
X134000Y2314572D01*
X130190Y2299333D01*
X130190Y2280286D01*
X134000Y2265048D01*
X137810Y2257429D01*
X141619Y2253619D01*
X149238Y2249810D01*
X156857Y2249810D01*
X164476Y2253619D01*
X168286Y2257429D01*
X172095Y2265048D01*
X175905Y2280286D01*
X175905Y2299333D01*
X172095Y2314572D01*
X168286Y2322191D01*
X164476Y2326000D01*
X156857Y2329810D01*
X297810Y2503810D02*
X324476Y2541905D01*
X343524Y2503810D02*
X343524Y2583810D01*
X313048Y2583810D01*
X305429Y2580000D01*
X301619Y2576191D01*
X297810Y2568572D01*
X297810Y2557143D01*
X301619Y2549524D01*
X305429Y2545714D01*
X313048Y2541905D01*
X343524Y2541905D01*
X267333Y2507619D02*
X255905Y2503810D01*
X236857Y2503810D01*
X229238Y2507619D01*
X225428Y2511429D01*
X221619Y2519048D01*
X221619Y2526667D01*
X225428Y2534286D01*
X229238Y2538095D01*
X236857Y2541905D01*
X252095Y2545714D01*
X259714Y2549524D01*
X263524Y2553333D01*
X267333Y2560952D01*
X267333Y2568572D01*
X263524Y2576191D01*
X259714Y2580000D01*
X252095Y2583810D01*
X233048Y2583810D01*
X221619Y2580000D01*
X198762Y2583810D02*
X153048Y2583810D01*
X175905Y2503810D02*
X175905Y2583810D01*
X1321429Y2765429D02*
X1325238Y2761619D01*
X1336667Y2757810D01*
X1344286Y2757810D01*
X1355714Y2761619D01*
X1363333Y2769238D01*
X1367143Y2776857D01*
X1370952Y2792095D01*
X1370952Y2803524D01*
X1367143Y2818762D01*
X1363333Y2826381D01*
X1355714Y2834000D01*
X1344286Y2837810D01*
X1336667Y2837810D01*
X1325238Y2834000D01*
X1321429Y2830190D01*
X1290952Y2761619D02*
X1279524Y2757810D01*
X1260476Y2757810D01*
X1252857Y2761619D01*
X1249048Y2765429D01*
X1245238Y2773048D01*
X1245238Y2780667D01*
X1249048Y2788286D01*
X1252857Y2792095D01*
X1260476Y2795905D01*
X1275714Y2799714D01*
X1283333Y2803524D01*
X1287143Y2807333D01*
X1290952Y2814952D01*
X1290952Y2822571D01*
X1287143Y2830190D01*
X1283333Y2834000D01*
X1275714Y2837810D01*
X1256667Y2837810D01*
X1245238Y2834000D01*
X1195714Y2837810D02*
X1188095Y2837810D01*
X1180476Y2834000D01*
X1176667Y2830190D01*
X1172857Y2822571D01*
X1169048Y2807333D01*
X1169048Y2788286D01*
X1172857Y2773048D01*
X1176667Y2765429D01*
X1180476Y2761619D01*
X1188095Y2757810D01*
X1195714Y2757810D01*
X1203333Y2761619D01*
X1207143Y2765429D01*
X1210952Y2773048D01*
X1214762Y2788286D01*
X1214762Y2807333D01*
X1210952Y2822571D01*
X1207143Y2830190D01*
X1203333Y2834000D01*
X1195714Y2837810D01*
X1346190Y2511429D02*
X1350000Y2507619D01*
X1361429Y2503810D01*
X1369048Y2503810D01*
X1380476Y2507619D01*
X1388095Y2515238D01*
X1391905Y2522857D01*
X1395714Y2538095D01*
X1395714Y2549524D01*
X1391905Y2564762D01*
X1388095Y2572381D01*
X1380476Y2580000D01*
X1369048Y2583810D01*
X1361429Y2583810D01*
X1350000Y2580000D01*
X1346190Y2576191D01*
X1296667Y2583810D02*
X1281429Y2583810D01*
X1273810Y2580000D01*
X1266190Y2572381D01*
X1262381Y2557143D01*
X1262381Y2530476D01*
X1266190Y2515238D01*
X1273810Y2507619D01*
X1281429Y2503810D01*
X1296667Y2503810D01*
X1304286Y2507619D01*
X1311905Y2515238D01*
X1315714Y2530476D01*
X1315714Y2557143D01*
X1311905Y2572381D01*
X1304286Y2580000D01*
X1296667Y2583810D01*
X1228095Y2503810D02*
X1228095Y2583810D01*
X1197619Y2583810D01*
X1190000Y2580000D01*
X1186190Y2576191D01*
X1182381Y2568572D01*
X1182381Y2557143D01*
X1186190Y2549524D01*
X1190000Y2545714D01*
X1197619Y2541905D01*
X1228095Y2541905D01*
X1148095Y2503810D02*
X1148095Y2583810D01*
X1346190Y2257429D02*
X1350000Y2253619D01*
X1361429Y2249810D01*
X1369048Y2249810D01*
X1380476Y2253619D01*
X1388095Y2261238D01*
X1391905Y2268857D01*
X1395714Y2284095D01*
X1395714Y2295524D01*
X1391905Y2310762D01*
X1388095Y2318381D01*
X1380476Y2326000D01*
X1369048Y2329810D01*
X1361429Y2329810D01*
X1350000Y2326000D01*
X1346190Y2322191D01*
X1311905Y2249810D02*
X1311905Y2329810D01*
X1273810Y2249810D02*
X1273810Y2329810D01*
X1243333Y2329810D01*
X1235714Y2326000D01*
X1231905Y2322191D01*
X1228095Y2314572D01*
X1228095Y2303143D01*
X1231905Y2295524D01*
X1235714Y2291714D01*
X1243333Y2287905D01*
X1273810Y2287905D01*
X1178571Y2329810D02*
X1163333Y2329810D01*
X1155714Y2326000D01*
X1148095Y2318381D01*
X1144286Y2303143D01*
X1144286Y2276476D01*
X1148095Y2261238D01*
X1155714Y2253619D01*
X1163333Y2249810D01*
X1178571Y2249810D01*
X1186190Y2253619D01*
X1193810Y2261238D01*
X1197619Y2276476D01*
X1197619Y2303143D01*
X1193810Y2318381D01*
X1186190Y2326000D01*
X1178571Y2329810D01*
X1372857Y1999619D02*
X1361429Y1995810D01*
X1342381Y1995810D01*
X1334762Y1999619D01*
X1330952Y2003429D01*
X1327143Y2011048D01*
X1327143Y2018667D01*
X1330952Y2026286D01*
X1334762Y2030095D01*
X1342381Y2033905D01*
X1357619Y2037714D01*
X1365238Y2041524D01*
X1369048Y2045333D01*
X1372857Y2052952D01*
X1372857Y2060571D01*
X1369048Y2068190D01*
X1365238Y2072000D01*
X1357619Y2075810D01*
X1338571Y2075810D01*
X1327143Y2072000D01*
X1247143Y2003429D02*
X1250952Y1999619D01*
X1262381Y1995810D01*
X1270000Y1995810D01*
X1281429Y1999619D01*
X1289048Y2007238D01*
X1292857Y2014857D01*
X1296667Y2030095D01*
X1296667Y2041524D01*
X1292857Y2056762D01*
X1289048Y2064381D01*
X1281429Y2072000D01*
X1270000Y2075810D01*
X1262381Y2075810D01*
X1250952Y2072000D01*
X1247143Y2068190D01*
X1212857Y1995810D02*
X1212857Y2075810D01*
X1167143Y1995810D02*
X1201429Y2041524D01*
X1167143Y2075810D02*
X1212857Y2030095D01*
X1369048Y805810D02*
X1319524Y805810D01*
X1346190Y775333D01*
X1334762Y775333D01*
X1327143Y771524D01*
X1323333Y767714D01*
X1319524Y760095D01*
X1319524Y741048D01*
X1323333Y733429D01*
X1327143Y729619D01*
X1334762Y725810D01*
X1357619Y725810D01*
X1365238Y729619D01*
X1369048Y733429D01*
X1296667Y805810D02*
X1270000Y725810D01*
X1243333Y805810D01*
X1224286Y805810D02*
X1174762Y805810D01*
X1201429Y775333D01*
X1190000Y775333D01*
X1182381Y771524D01*
X1178571Y767714D01*
X1174762Y760095D01*
X1174762Y741048D01*
X1178571Y733429D01*
X1182381Y729619D01*
X1190000Y725810D01*
X1212857Y725810D01*
X1220476Y729619D01*
X1224286Y733429D01*
X1330952Y294000D02*
X1338571Y297810D01*
X1350000Y297810D01*
X1361429Y294000D01*
X1369048Y286381D01*
X1372857Y278762D01*
X1376667Y263524D01*
X1376667Y252095D01*
X1372857Y236857D01*
X1369048Y229238D01*
X1361429Y221619D01*
X1350000Y217810D01*
X1342381Y217810D01*
X1330952Y221619D01*
X1327143Y225429D01*
X1327143Y252095D01*
X1342381Y252095D01*
X1292857Y217810D02*
X1292857Y297810D01*
X1247143Y217810D01*
X1247143Y297810D01*
X1209048Y217810D02*
X1209048Y297810D01*
X1190000Y297810D01*
X1178571Y294000D01*
X1170952Y286381D01*
X1167143Y278762D01*
X1163333Y263524D01*
X1163333Y252095D01*
X1167143Y236857D01*
X1170952Y229238D01*
X1178571Y221619D01*
X1190000Y217810D01*
X1209048Y217810D01*
D11*
X-127000Y2857500D02*
X-127000Y-63500D01*
X1651000Y2857500D02*
X1651000Y-63500D01*
X-127000Y2857500D02*
G75*
G02*
X-63500Y2921000I63500J0D01*
G01*
X1587500Y2921000D02*
G75*
G02*
X1651000Y2857500I0J-63500D01*
G01*
X-63500Y2921000D02*
X1587500Y2921000D01*
X1651000Y-63500D02*
G75*
G02*
X1587500Y-127000I-63500J0D01*
G01*
X-63500Y-127000D02*
G75*
G02*
X-127000Y-63500I0J63500D01*
G01*
D12*
X565571Y1695083D02*
X646524Y1695083D01*
X656048Y1699845D01*
X660810Y1704607D01*
X665571Y1714131D01*
X665571Y1728417D01*
X660810Y1737940D01*
X627476Y1695083D02*
X632238Y1704607D01*
X632238Y1723655D01*
X627476Y1733179D01*
X622714Y1737940D01*
X613190Y1742702D01*
X584619Y1742702D01*
X575095Y1737940D01*
X570333Y1733179D01*
X565571Y1723655D01*
X565571Y1704607D01*
X570333Y1695083D01*
X632238Y1647464D02*
X565571Y1647464D01*
X532238Y1647464D02*
X537000Y1652226D01*
X541762Y1647464D01*
X537000Y1642702D01*
X532238Y1647464D01*
X541762Y1647464D01*
X565571Y1614131D02*
X565571Y1576036D01*
X532238Y1599845D02*
X617952Y1599845D01*
X627476Y1595083D01*
X632238Y1585560D01*
X632238Y1576036D01*
X632238Y1542702D02*
X532238Y1542702D01*
X632238Y1499845D02*
X579857Y1499845D01*
X570333Y1504607D01*
X565571Y1514131D01*
X565571Y1528417D01*
X570333Y1537940D01*
X575095Y1542702D01*
X565571Y1409369D02*
X632238Y1409369D01*
X565571Y1452226D02*
X617952Y1452226D01*
X627476Y1447464D01*
X632238Y1437940D01*
X632238Y1423655D01*
X627476Y1414131D01*
X622714Y1409369D01*
X632238Y1361750D02*
X532238Y1361750D01*
X570333Y1361750D02*
X565571Y1352226D01*
X565571Y1333179D01*
X570333Y1323655D01*
X575095Y1318893D01*
X584619Y1314131D01*
X613190Y1314131D01*
X622714Y1318893D01*
X627476Y1323655D01*
X632238Y1333179D01*
X632238Y1352226D01*
X627476Y1361750D01*
X622714Y1271274D02*
X627476Y1266512D01*
X632238Y1271274D01*
X627476Y1276036D01*
X622714Y1271274D01*
X632238Y1271274D01*
X627476Y1180798D02*
X632238Y1190322D01*
X632238Y1209369D01*
X627476Y1218893D01*
X622714Y1223655D01*
X613190Y1228417D01*
X584619Y1228417D01*
X575095Y1223655D01*
X570333Y1218893D01*
X565571Y1209369D01*
X565571Y1190322D01*
X570333Y1180798D01*
X632238Y1123655D02*
X627476Y1133179D01*
X622714Y1137941D01*
X613190Y1142702D01*
X584619Y1142702D01*
X575095Y1137941D01*
X570333Y1133179D01*
X565571Y1123655D01*
X565571Y1109369D01*
X570333Y1099845D01*
X575095Y1095083D01*
X584619Y1090322D01*
X613190Y1090322D01*
X622714Y1095083D01*
X627476Y1099845D01*
X632238Y1109369D01*
X632238Y1123655D01*
X632238Y1047464D02*
X565571Y1047464D01*
X575095Y1047464D02*
X570333Y1042702D01*
X565571Y1033179D01*
X565571Y1018893D01*
X570333Y1009369D01*
X579857Y1004607D01*
X632238Y1004607D01*
X579857Y1004607D02*
X570333Y999845D01*
X565571Y990321D01*
X565571Y976036D01*
X570333Y966512D01*
X579857Y961750D01*
X632238Y961750D01*
X527476Y842702D02*
X656048Y928417D01*
X565571Y809369D02*
X632238Y809369D01*
X575095Y809369D02*
X570333Y804607D01*
X565571Y795083D01*
X565571Y780798D01*
X570333Y771274D01*
X579857Y766512D01*
X632238Y766512D01*
X627476Y680798D02*
X632238Y690322D01*
X632238Y709369D01*
X627476Y718893D01*
X617952Y723655D01*
X579857Y723655D01*
X570333Y718893D01*
X565571Y709369D01*
X565571Y690322D01*
X570333Y680798D01*
X579857Y676036D01*
X589381Y676036D01*
X598905Y723655D01*
X632238Y633179D02*
X565571Y633179D01*
X584619Y633179D02*
X575095Y628417D01*
X570333Y623655D01*
X565571Y614131D01*
X565571Y604607D01*
X632238Y528417D02*
X532238Y528417D01*
X627476Y528417D02*
X632238Y537941D01*
X632238Y556988D01*
X627476Y566512D01*
X622714Y571274D01*
X613190Y576036D01*
X584619Y576036D01*
X575095Y571274D01*
X570333Y566512D01*
X565571Y556988D01*
X565571Y537941D01*
X570333Y528417D01*
X565571Y490321D02*
X632238Y466512D01*
X565571Y442702D02*
X632238Y466512D01*
X656048Y476036D01*
X660810Y480798D01*
X665571Y490321D01*
X627476Y409369D02*
X632238Y399845D01*
X632238Y380798D01*
X627476Y371274D01*
X617952Y366512D01*
X613190Y366512D01*
X603667Y371274D01*
X598905Y380798D01*
X598905Y395083D01*
X594143Y404607D01*
X584619Y409369D01*
X579857Y409369D01*
X570333Y404607D01*
X565571Y395083D01*
X565571Y380798D01*
X570333Y371274D01*
X627476Y280798D02*
X632238Y290322D01*
X632238Y309369D01*
X627476Y318893D01*
X622714Y323655D01*
X613190Y328417D01*
X584619Y328417D01*
X575095Y323655D01*
X570333Y318893D01*
X565571Y309369D01*
X565571Y290322D01*
X570333Y280798D01*
X632238Y223655D02*
X627476Y233179D01*
X622714Y237940D01*
X613190Y242702D01*
X584619Y242702D01*
X575095Y237940D01*
X570333Y233179D01*
X565571Y223655D01*
X565571Y209369D01*
X570333Y199845D01*
X575095Y195083D01*
X584619Y190321D01*
X613190Y190321D01*
X622714Y195083D01*
X627476Y199845D01*
X632238Y209369D01*
X632238Y223655D01*
X565571Y104607D02*
X632238Y104607D01*
X565571Y147464D02*
X617952Y147464D01*
X627476Y142702D01*
X632238Y133179D01*
X632238Y118893D01*
X627476Y109369D01*
X622714Y104607D01*
X565571Y71274D02*
X565571Y33179D01*
X532238Y56988D02*
X617952Y56988D01*
X627476Y52226D01*
X632238Y42702D01*
X632238Y33179D01*
X527476Y-71583D02*
X656048Y14131D01*
X807238Y1737940D02*
X707238Y1737940D01*
X707238Y1699845D01*
X712000Y1690321D01*
X716762Y1685560D01*
X726286Y1680798D01*
X740571Y1680798D01*
X750095Y1685560D01*
X754857Y1690321D01*
X759619Y1699845D01*
X759619Y1737940D01*
X807238Y1637940D02*
X740571Y1637940D01*
X759619Y1637940D02*
X750095Y1633179D01*
X745333Y1628417D01*
X740571Y1618893D01*
X740571Y1609369D01*
X807238Y1561750D02*
X802476Y1571274D01*
X797714Y1576036D01*
X788190Y1580798D01*
X759619Y1580798D01*
X750095Y1576036D01*
X745333Y1571274D01*
X740571Y1561750D01*
X740571Y1547464D01*
X745333Y1537940D01*
X750095Y1533179D01*
X759619Y1528417D01*
X788190Y1528417D01*
X797714Y1533179D01*
X802476Y1537940D01*
X807238Y1547464D01*
X807238Y1561750D01*
X807238Y1485560D02*
X707238Y1485560D01*
X778667Y1452226D01*
X707238Y1418893D01*
X807238Y1418893D01*
X807238Y1371274D02*
X740571Y1371274D01*
X707238Y1371274D02*
X712000Y1376036D01*
X716762Y1371274D01*
X712000Y1366512D01*
X707238Y1371274D01*
X716762Y1371274D01*
X802476Y1280798D02*
X807238Y1290322D01*
X807238Y1309369D01*
X802476Y1318893D01*
X797714Y1323655D01*
X788190Y1328417D01*
X759619Y1328417D01*
X750095Y1323655D01*
X745333Y1318893D01*
X740571Y1309369D01*
X740571Y1290322D01*
X745333Y1280798D01*
X807238Y1237941D02*
X740571Y1237941D01*
X759619Y1237941D02*
X750095Y1233179D01*
X745333Y1228417D01*
X740571Y1218893D01*
X740571Y1209369D01*
X807238Y1161750D02*
X802476Y1171274D01*
X797714Y1176036D01*
X788190Y1180798D01*
X759619Y1180798D01*
X750095Y1176036D01*
X745333Y1171274D01*
X740571Y1161750D01*
X740571Y1147464D01*
X745333Y1137941D01*
X750095Y1133179D01*
X759619Y1128417D01*
X788190Y1128417D01*
X797714Y1133179D01*
X802476Y1137941D01*
X807238Y1147464D01*
X807238Y1161750D01*
X702476Y1014131D02*
X831048Y1099845D01*
X807238Y933179D02*
X807238Y980798D01*
X707238Y980798D01*
X707238Y880798D02*
X707238Y861750D01*
X712000Y852226D01*
X721524Y842702D01*
X740571Y837940D01*
X773905Y837940D01*
X792952Y842702D01*
X802476Y852226D01*
X807238Y861750D01*
X807238Y880798D01*
X802476Y890321D01*
X792952Y899845D01*
X773905Y904607D01*
X740571Y904607D01*
X721524Y899845D01*
X712000Y890321D01*
X707238Y880798D01*
X807238Y737940D02*
X759619Y771274D01*
X807238Y795083D02*
X707238Y795083D01*
X707238Y756988D01*
X712000Y747464D01*
X716762Y742702D01*
X726286Y737940D01*
X740571Y737940D01*
X750095Y742702D01*
X754857Y747464D01*
X759619Y756988D01*
X759619Y795083D01*
X778667Y699845D02*
X778667Y652226D01*
X807238Y709369D02*
X707238Y676036D01*
X807238Y642702D01*
X915571Y1747464D02*
X982238Y1723655D01*
X915571Y1699845D01*
X982238Y1609369D02*
X982238Y1666512D01*
X982238Y1637940D02*
X882238Y1637940D01*
X896524Y1647464D01*
X906048Y1656988D01*
X910809Y1666512D01*
X972714Y1566512D02*
X977476Y1561750D01*
X982238Y1566512D01*
X977476Y1571274D01*
X972714Y1566512D01*
X982238Y1566512D01*
X891762Y1523655D02*
X887000Y1518893D01*
X882238Y1509369D01*
X882238Y1485560D01*
X887000Y1476036D01*
X891762Y1471274D01*
X901286Y1466512D01*
X910809Y1466512D01*
X925095Y1471274D01*
X982238Y1528417D01*
X982238Y1466512D01*
D11*
X1587500Y-127000D02*
X-63500Y-127000D01*
D13*
X-142000Y127000D02*
X-142000Y2936000D01*
X1397000Y-127000D02*
X1397000Y2936000D01*
X127000Y127000D02*
X-142000Y127000D01*
X127000Y-127000D02*
X127000Y2936000D01*
X-142000Y2936000D02*
X1666000Y2936000D01*
X1666000Y2936000D02*
X1666000Y-127000D01*
X1666000Y-127000D02*
X127000Y-127000D01*
D14*
G36*
X508893Y2166919D02*
G01*
X553356Y2158537D01*
X566105Y2127608D01*
X578855Y2096679D01*
X553625Y2059575D01*
X546600Y2049184D01*
X540327Y2039791D01*
X535094Y2031835D01*
X531186Y2025753D01*
X528889Y2021984D01*
X528394Y2020958D01*
X529668Y2019109D01*
X533188Y2015158D01*
X538506Y2009548D01*
X545172Y2002721D01*
X552735Y1995121D01*
X560747Y1987191D01*
X568757Y1979372D01*
X576316Y1972109D01*
X582975Y1965844D01*
X588282Y1961020D01*
X591789Y1958079D01*
X592962Y1957376D01*
X595126Y1958388D01*
X599866Y1961224D01*
X606719Y1965587D01*
X615222Y1971178D01*
X624909Y1977699D01*
X630435Y1981478D01*
X640525Y1988366D01*
X649630Y1994486D01*
X657297Y1999542D01*
X663073Y2003237D01*
X666504Y2005274D01*
X667225Y2005580D01*
X669275Y2004886D01*
X674051Y2002995D01*
X680883Y2000191D01*
X689099Y1996761D01*
X698027Y1992989D01*
X706996Y1989161D01*
X715334Y1985563D01*
X722369Y1982479D01*
X727431Y1980196D01*
X729847Y1978998D01*
X729942Y1978928D01*
X730404Y1977047D01*
X731433Y1972038D01*
X732929Y1964421D01*
X734790Y1954713D01*
X736916Y1943436D01*
X738142Y1936856D01*
X740436Y1924805D01*
X742619Y1913920D01*
X744572Y1904752D01*
X746175Y1897852D01*
X747308Y1893770D01*
X747667Y1892949D01*
X750101Y1892145D01*
X755596Y1891497D01*
X763511Y1891003D01*
X773203Y1890664D01*
X784029Y1890478D01*
X795346Y1890446D01*
X806513Y1890567D01*
X816887Y1890841D01*
X825824Y1891267D01*
X832683Y1891844D01*
X836820Y1892573D01*
X837681Y1893010D01*
X838713Y1895624D01*
X840189Y1901161D01*
X841935Y1908889D01*
X843778Y1918077D01*
X844374Y1921284D01*
X847207Y1936748D01*
X849488Y1948962D01*
X851308Y1958333D01*
X852758Y1965262D01*
X853929Y1970153D01*
X854911Y1973410D01*
X855796Y1975437D01*
X856672Y1976637D01*
X856846Y1976805D01*
X859637Y1978482D01*
X865069Y1981039D01*
X872478Y1984221D01*
X881196Y1987774D01*
X890561Y1991442D01*
X899905Y1994969D01*
X908565Y1998100D01*
X915874Y2000581D01*
X921168Y2002155D01*
X923781Y2002567D01*
X923873Y2002532D01*
X926009Y2001136D01*
X930708Y1997968D01*
X937483Y1993361D01*
X945842Y1987648D01*
X955298Y1981163D01*
X957985Y1979316D01*
X967727Y1972730D01*
X976616Y1966935D01*
X984141Y1962246D01*
X989792Y1958979D01*
X993058Y1957450D01*
X993459Y1957376D01*
X995568Y1958661D01*
X999746Y1962211D01*
X1005544Y1967571D01*
X1012513Y1974283D01*
X1020204Y1981891D01*
X1028168Y1989940D01*
X1035956Y1997971D01*
X1043119Y2005530D01*
X1049207Y2012159D01*
X1053772Y2017403D01*
X1056365Y2020804D01*
X1056788Y2021745D01*
X1055791Y2023936D01*
X1053102Y2028420D01*
X1049174Y2034468D01*
X1046012Y2039121D01*
X1040210Y2047552D01*
X1033378Y2057537D01*
X1026558Y2067553D01*
X1022907Y2072937D01*
X1010580Y2091163D01*
X1018852Y2106462D01*
X1022476Y2113432D01*
X1025293Y2119359D01*
X1026899Y2123369D01*
X1027123Y2124390D01*
X1025472Y2125617D01*
X1020808Y2128039D01*
X1013561Y2131474D01*
X1004161Y2135741D01*
X993037Y2140661D01*
X980621Y2146051D01*
X967343Y2151732D01*
X953633Y2157522D01*
X939920Y2163241D01*
X926636Y2168708D01*
X914210Y2173742D01*
X903072Y2178162D01*
X893654Y2181788D01*
X886384Y2184439D01*
X881694Y2185934D01*
X880083Y2186175D01*
X878029Y2184269D01*
X874693Y2180096D01*
X870770Y2174529D01*
X870460Y2174062D01*
X858942Y2159674D01*
X845505Y2148072D01*
X830578Y2139357D01*
X814591Y2133630D01*
X797974Y2130991D01*
X781155Y2131542D01*
X764565Y2135381D01*
X748634Y2142611D01*
X745149Y2144737D01*
X731074Y2155800D01*
X719771Y2168870D01*
X711300Y2183494D01*
X705719Y2199219D01*
X703087Y2215594D01*
X703463Y2232167D01*
X706905Y2248484D01*
X713472Y2264094D01*
X723223Y2278543D01*
X727181Y2283013D01*
X739570Y2294389D01*
X752612Y2302678D01*
X767231Y2308364D01*
X781709Y2311531D01*
X797986Y2312313D01*
X814344Y2309706D01*
X830230Y2303976D01*
X845091Y2295386D01*
X858373Y2284201D01*
X869526Y2270688D01*
X870701Y2268912D01*
X874551Y2263285D01*
X877886Y2259008D01*
X880016Y2256963D01*
X880083Y2256933D01*
X882387Y2257372D01*
X887616Y2259112D01*
X895339Y2261973D01*
X905127Y2265774D01*
X916549Y2270333D01*
X929176Y2275470D01*
X942577Y2281004D01*
X956322Y2286754D01*
X969981Y2292540D01*
X983124Y2298180D01*
X995320Y2303494D01*
X1006141Y2308301D01*
X1015155Y2312420D01*
X1021932Y2315670D01*
X1026043Y2317870D01*
X1027123Y2318756D01*
X1026282Y2321464D01*
X1024027Y2326530D01*
X1020761Y2333082D01*
X1018852Y2336684D01*
X1010580Y2351983D01*
X1022907Y2370209D01*
X1029223Y2379513D01*
X1036173Y2389699D01*
X1042716Y2399244D01*
X1046012Y2404025D01*
X1050527Y2410750D01*
X1054106Y2416444D01*
X1056294Y2420365D01*
X1056756Y2421638D01*
X1055509Y2423492D01*
X1052025Y2427594D01*
X1046668Y2433548D01*
X1039798Y2440954D01*
X1031778Y2449417D01*
X1026629Y2454769D01*
X1017429Y2464132D01*
X1009200Y2472224D01*
X1002294Y2478718D01*
X997064Y2483286D01*
X993862Y2485601D01*
X993212Y2485823D01*
X990739Y2484792D01*
X985740Y2481944D01*
X978721Y2477594D01*
X970187Y2472058D01*
X960646Y2465652D01*
X957985Y2463830D01*
X948317Y2457193D01*
X939612Y2451238D01*
X932359Y2446298D01*
X927049Y2442708D01*
X924170Y2440798D01*
X923873Y2440614D01*
X921578Y2440890D01*
X916534Y2442354D01*
X909404Y2444751D01*
X900855Y2447827D01*
X891551Y2451324D01*
X882157Y2454989D01*
X873340Y2458566D01*
X865763Y2461799D01*
X860093Y2464434D01*
X856994Y2466214D01*
X856846Y2466341D01*
X855960Y2467429D01*
X855084Y2469268D01*
X854128Y2472261D01*
X853000Y2476810D01*
X851609Y2483321D01*
X849866Y2492196D01*
X847680Y2503839D01*
X844959Y2518654D01*
X844374Y2521862D01*
X842537Y2531369D01*
X840740Y2539657D01*
X839157Y2545993D01*
X837960Y2549646D01*
X837681Y2550136D01*
X835207Y2550943D01*
X829679Y2551599D01*
X821739Y2552103D01*
X812030Y2552456D01*
X801194Y2552656D01*
X789874Y2552704D01*
X778713Y2552598D01*
X768353Y2552338D01*
X759437Y2551925D01*
X752607Y2551356D01*
X748507Y2550633D01*
X747667Y2550197D01*
X746821Y2547770D01*
X745443Y2542243D01*
X743655Y2534166D01*
X741575Y2524091D01*
X739322Y2512568D01*
X738142Y2506290D01*
X735915Y2494379D01*
X733898Y2483757D01*
X732191Y2474943D01*
X730897Y2468457D01*
X730115Y2464817D01*
X729942Y2464218D01*
X727989Y2463206D01*
X723284Y2461066D01*
X716500Y2458084D01*
X708309Y2454545D01*
X699383Y2450733D01*
X690394Y2446935D01*
X682014Y2443436D01*
X674915Y2440521D01*
X669769Y2438474D01*
X667250Y2437582D01*
X667140Y2437566D01*
X665152Y2438577D01*
X660578Y2441412D01*
X653872Y2445772D01*
X645488Y2451361D01*
X635883Y2457879D01*
X630365Y2461668D01*
X620248Y2468573D01*
X611063Y2474705D01*
X603274Y2479766D01*
X597347Y2483457D01*
X593745Y2485478D01*
X592938Y2485770D01*
X591058Y2484515D01*
X587046Y2481046D01*
X581349Y2475806D01*
X574419Y2469238D01*
X566703Y2461786D01*
X558653Y2453891D01*
X550716Y2445998D01*
X543344Y2438550D01*
X536985Y2431989D01*
X532089Y2426760D01*
X529106Y2423304D01*
X528394Y2422148D01*
X529395Y2420265D01*
X532208Y2415763D01*
X536545Y2409079D01*
X542122Y2400650D01*
X548651Y2390914D01*
X553625Y2383571D01*
X578855Y2346467D01*
X553356Y2284610D01*
X508893Y2276228D01*
X464431Y2267845D01*
X464431Y2175301D01*
X508893Y2166919D01*
G37*
X508893Y2166919D02*
X553356Y2158537D01*
X566105Y2127608D01*
X578855Y2096679D01*
X553625Y2059575D01*
X546600Y2049184D01*
X540327Y2039791D01*
X535094Y2031835D01*
X531186Y2025753D01*
X528889Y2021984D01*
X528394Y2020958D01*
X529668Y2019109D01*
X533188Y2015158D01*
X538506Y2009548D01*
X545172Y2002721D01*
X552735Y1995121D01*
X560747Y1987191D01*
X568757Y1979372D01*
X576316Y1972109D01*
X582975Y1965844D01*
X588282Y1961020D01*
X591789Y1958079D01*
X592962Y1957376D01*
X595126Y1958388D01*
X599866Y1961224D01*
X606719Y1965587D01*
X615222Y1971178D01*
X624909Y1977699D01*
X630435Y1981478D01*
X640525Y1988366D01*
X649630Y1994486D01*
X657297Y1999542D01*
X663073Y2003237D01*
X666504Y2005274D01*
X667225Y2005580D01*
X669275Y2004886D01*
X674051Y2002995D01*
X680883Y2000191D01*
X689099Y1996761D01*
X698027Y1992989D01*
X706996Y1989161D01*
X715334Y1985563D01*
X722369Y1982479D01*
X727431Y1980196D01*
X729847Y1978998D01*
X729942Y1978928D01*
X730404Y1977047D01*
X731433Y1972038D01*
X732929Y1964421D01*
X734790Y1954713D01*
X736916Y1943436D01*
X738142Y1936856D01*
X740436Y1924805D01*
X742619Y1913920D01*
X744572Y1904752D01*
X746175Y1897852D01*
X747308Y1893770D01*
X747667Y1892949D01*
X750101Y1892145D01*
X755596Y1891497D01*
X763511Y1891003D01*
X773203Y1890664D01*
X784029Y1890478D01*
X795346Y1890446D01*
X806513Y1890567D01*
X816887Y1890841D01*
X825824Y1891267D01*
X832683Y1891844D01*
X836820Y1892573D01*
X837681Y1893010D01*
X838713Y1895624D01*
X840189Y1901161D01*
X841935Y1908889D01*
X843778Y1918077D01*
X844374Y1921284D01*
X847207Y1936748D01*
X849488Y1948962D01*
X851308Y1958333D01*
X852758Y1965262D01*
X853929Y1970153D01*
X854911Y1973410D01*
X855796Y1975437D01*
X856672Y1976637D01*
X856846Y1976805D01*
X859637Y1978482D01*
X865069Y1981039D01*
X872478Y1984221D01*
X881196Y1987774D01*
X890561Y1991442D01*
X899905Y1994969D01*
X908565Y1998100D01*
X915874Y2000581D01*
X921168Y2002155D01*
X923781Y2002567D01*
X923873Y2002532D01*
X926009Y2001136D01*
X930708Y1997968D01*
X937483Y1993361D01*
X945842Y1987648D01*
X955298Y1981163D01*
X957985Y1979316D01*
X967727Y1972730D01*
X976616Y1966935D01*
X984141Y1962246D01*
X989792Y1958979D01*
X993058Y1957450D01*
X993459Y1957376D01*
X995568Y1958661D01*
X999746Y1962211D01*
X1005544Y1967571D01*
X1012513Y1974283D01*
X1020204Y1981891D01*
X1028168Y1989940D01*
X1035956Y1997971D01*
X1043119Y2005530D01*
X1049207Y2012159D01*
X1053772Y2017403D01*
X1056365Y2020804D01*
X1056788Y2021745D01*
X1055791Y2023936D01*
X1053102Y2028420D01*
X1049174Y2034468D01*
X1046012Y2039121D01*
X1040210Y2047552D01*
X1033378Y2057537D01*
X1026558Y2067553D01*
X1022907Y2072937D01*
X1010580Y2091163D01*
X1018852Y2106462D01*
X1022476Y2113432D01*
X1025293Y2119359D01*
X1026899Y2123369D01*
X1027123Y2124390D01*
X1025472Y2125617D01*
X1020808Y2128039D01*
X1013561Y2131474D01*
X1004161Y2135741D01*
X993037Y2140661D01*
X980621Y2146051D01*
X967343Y2151732D01*
X953633Y2157522D01*
X939920Y2163241D01*
X926636Y2168708D01*
X914210Y2173742D01*
X903072Y2178162D01*
X893654Y2181788D01*
X886384Y2184439D01*
X881694Y2185934D01*
X880083Y2186175D01*
X878029Y2184269D01*
X874693Y2180096D01*
X870770Y2174529D01*
X870460Y2174062D01*
X858942Y2159674D01*
X845505Y2148072D01*
X830578Y2139357D01*
X814591Y2133630D01*
X797974Y2130991D01*
X781155Y2131542D01*
X764565Y2135381D01*
X748634Y2142611D01*
X745149Y2144737D01*
X731074Y2155800D01*
X719771Y2168870D01*
X711300Y2183494D01*
X705719Y2199219D01*
X703087Y2215594D01*
X703463Y2232167D01*
X706905Y2248484D01*
X713472Y2264094D01*
X723223Y2278543D01*
X727181Y2283013D01*
X739570Y2294389D01*
X752612Y2302678D01*
X767231Y2308364D01*
X781709Y2311531D01*
X797986Y2312313D01*
X814344Y2309706D01*
X830230Y2303976D01*
X845091Y2295386D01*
X858373Y2284201D01*
X869526Y2270688D01*
X870701Y2268912D01*
X874551Y2263285D01*
X877886Y2259008D01*
X880016Y2256963D01*
X880083Y2256933D01*
X882387Y2257372D01*
X887616Y2259112D01*
X895339Y2261973D01*
X905127Y2265774D01*
X916549Y2270333D01*
X929176Y2275470D01*
X942577Y2281004D01*
X956322Y2286754D01*
X969981Y2292540D01*
X983124Y2298180D01*
X995320Y2303494D01*
X1006141Y2308301D01*
X1015155Y2312420D01*
X1021932Y2315670D01*
X1026043Y2317870D01*
X1027123Y2318756D01*
X1026282Y2321464D01*
X1024027Y2326530D01*
X1020761Y2333082D01*
X1018852Y2336684D01*
X1010580Y2351983D01*
X1022907Y2370209D01*
X1029223Y2379513D01*
X1036173Y2389699D01*
X1042716Y2399244D01*
X1046012Y2404025D01*
X1050527Y2410750D01*
X1054106Y2416444D01*
X1056294Y2420365D01*
X1056756Y2421638D01*
X1055509Y2423492D01*
X1052025Y2427594D01*
X1046668Y2433548D01*
X1039798Y2440954D01*
X1031778Y2449417D01*
X1026629Y2454769D01*
X1017429Y2464132D01*
X1009200Y2472224D01*
X1002294Y2478718D01*
X997064Y2483286D01*
X993862Y2485601D01*
X993212Y2485823D01*
X990739Y2484792D01*
X985740Y2481944D01*
X978721Y2477594D01*
X970187Y2472058D01*
X960646Y2465652D01*
X957985Y2463830D01*
X948317Y2457193D01*
X939612Y2451238D01*
X932359Y2446298D01*
X927049Y2442708D01*
X924170Y2440798D01*
X923873Y2440614D01*
X921578Y2440890D01*
X916534Y2442354D01*
X909404Y2444751D01*
X900855Y2447827D01*
X891551Y2451324D01*
X882157Y2454989D01*
X873340Y2458566D01*
X865763Y2461799D01*
X860093Y2464434D01*
X856994Y2466214D01*
X856846Y2466341D01*
X855960Y2467429D01*
X855084Y2469268D01*
X854128Y2472261D01*
X853000Y2476810D01*
X851609Y2483321D01*
X849866Y2492196D01*
X847680Y2503839D01*
X844959Y2518654D01*
X844374Y2521862D01*
X842537Y2531369D01*
X840740Y2539657D01*
X839157Y2545993D01*
X837960Y2549646D01*
X837681Y2550136D01*
X835207Y2550943D01*
X829679Y2551599D01*
X821739Y2552103D01*
X812030Y2552456D01*
X801194Y2552656D01*
X789874Y2552704D01*
X778713Y2552598D01*
X768353Y2552338D01*
X759437Y2551925D01*
X752607Y2551356D01*
X748507Y2550633D01*
X747667Y2550197D01*
X746821Y2547770D01*
X745443Y2542243D01*
X743655Y2534166D01*
X741575Y2524091D01*
X739322Y2512568D01*
X738142Y2506290D01*
X735915Y2494379D01*
X733898Y2483757D01*
X732191Y2474943D01*
X730897Y2468457D01*
X730115Y2464817D01*
X729942Y2464218D01*
X727989Y2463206D01*
X723284Y2461066D01*
X716500Y2458084D01*
X708309Y2454545D01*
X699383Y2450733D01*
X690394Y2446935D01*
X682014Y2443436D01*
X674915Y2440521D01*
X669769Y2438474D01*
X667250Y2437582D01*
X667140Y2437566D01*
X665152Y2438577D01*
X660578Y2441412D01*
X653872Y2445772D01*
X645488Y2451361D01*
X635883Y2457879D01*
X630365Y2461668D01*
X620248Y2468573D01*
X611063Y2474705D01*
X603274Y2479766D01*
X597347Y2483457D01*
X593745Y2485478D01*
X592938Y2485770D01*
X591058Y2484515D01*
X587046Y2481046D01*
X581349Y2475806D01*
X574419Y2469238D01*
X566703Y2461786D01*
X558653Y2453891D01*
X550716Y2445998D01*
X543344Y2438550D01*
X536985Y2431989D01*
X532089Y2426760D01*
X529106Y2423304D01*
X528394Y2422148D01*
X529395Y2420265D01*
X532208Y2415763D01*
X536545Y2409079D01*
X542122Y2400650D01*
X548651Y2390914D01*
X553625Y2383571D01*
X578855Y2346467D01*
X553356Y2284610D01*
X508893Y2276228D01*
X464431Y2267845D01*
X464431Y2175301D01*
X508893Y2166919D01*
%LPC*%
D15*
X0Y0D03*
D16*
X0Y254000D03*
X0Y508000D03*
X1524000Y2794000D03*
X0Y762000D03*
X1524000Y2540000D03*
X0Y1016000D03*
X1524000Y2286000D03*
X0Y1270000D03*
X1524000Y2032000D03*
X0Y1524000D03*
X1524000Y1778000D03*
X0Y1778000D03*
X1524000Y1524000D03*
X0Y2032000D03*
X1524000Y1270000D03*
X0Y2286000D03*
X1524000Y1016000D03*
X0Y2540000D03*
X1524000Y762000D03*
X0Y2794000D03*
X1524000Y508000D03*
X1524000Y254000D03*
X1524000Y0D03*
D17*
X479500Y2710500D03*
X1044500Y2710500D03*
M02*
