%TF.GenerationSoftware,KiCad,Pcbnew,5.1.7+dfsg1-1~bpo10+1*%
%TF.CreationDate,Date%
%TF.ProjectId,ProMicro_LORA,50726f4d-6963-4726-9f5f-4c4f52412e6b,v1.2*%
%TF.SameCoordinates,Original*%
%TF.FileFunction,Other,User*%
%FSLAX46Y46*%
G04 Gerber Fmt 4.6, Leading zero omitted, Abs format (unit mm)*
G04 Created by KiCad*
%MOMM*%
%LPD*%
G01*
G04 APERTURE LIST*
%ADD10C,0.050000*%
G04 APERTURE END LIST*
D10*
%TO.C,U1*%
X5270000Y13780000D02*
X5270000Y6540000D01*
X5270000Y6540000D02*
X12510000Y6540000D01*
X12510000Y6540000D02*
X12510000Y13780000D01*
X12510000Y13780000D02*
X5270000Y13780000D01*
%TO.C,J1*%
X6620000Y25785000D02*
X6620000Y25085000D01*
X9420000Y25785000D02*
X8620000Y25785000D01*
X5820000Y25785000D02*
X5820000Y25985000D01*
X5820000Y25985000D02*
X5120000Y25985000D01*
X5120000Y29185000D02*
X5120000Y25985000D01*
X6620000Y25785000D02*
X5820000Y25785000D01*
X5820000Y29185000D02*
X5120000Y29185000D01*
X5820000Y29185000D02*
X5820000Y29385000D01*
X10120000Y29185000D02*
X10120000Y25985000D01*
X10120000Y25985000D02*
X9420000Y25985000D01*
X9420000Y25785000D02*
X9420000Y25985000D01*
X9420000Y29385000D02*
X5820000Y29385000D01*
X10120000Y29185000D02*
X9420000Y29185000D01*
X9420000Y29185000D02*
X9420000Y29385000D01*
X8620000Y25785000D02*
X8620000Y25085000D01*
X8620000Y25085000D02*
X6620000Y25085000D01*
%TO.C,JP1*%
X1290000Y14860000D02*
X1290000Y18160000D01*
X1290000Y14860000D02*
X3790000Y14860000D01*
X3790000Y18160000D02*
X1290000Y18160000D01*
X3790000Y18160000D02*
X3790000Y14860000D01*
%TO.C,C25*%
X8979000Y14310000D02*
X8039000Y14310000D01*
X8039000Y14310000D02*
X8039000Y16170000D01*
X8039000Y16170000D02*
X8979000Y16170000D01*
X8979000Y16170000D02*
X8979000Y14310000D01*
%TO.C,C24*%
X12408000Y16215000D02*
X11468000Y16215000D01*
X11468000Y16215000D02*
X11468000Y18075000D01*
X11468000Y18075000D02*
X12408000Y18075000D01*
X12408000Y18075000D02*
X12408000Y16215000D01*
%TO.C,TP6*%
X11689400Y-1250000D02*
X9189400Y-1250000D01*
X11689400Y-1250000D02*
X11689400Y1250000D01*
X9189400Y1250000D02*
X9189400Y-1250000D01*
X9189400Y1250000D02*
X11689400Y1250000D01*
%TO.C,TP5*%
X6042980Y-1250000D02*
X3542980Y-1250000D01*
X6042980Y-1250000D02*
X6042980Y1250000D01*
X3542980Y1250000D02*
X3542980Y-1250000D01*
X3542980Y1250000D02*
X6042980Y1250000D01*
%TO.C,C14*%
X6010000Y20409000D02*
X6010000Y19469000D01*
X6010000Y19469000D02*
X4150000Y19469000D01*
X4150000Y19469000D02*
X4150000Y20409000D01*
X4150000Y20409000D02*
X6010000Y20409000D01*
%TO.C,C13*%
X9380000Y21755000D02*
X9380000Y22695000D01*
X9380000Y22695000D02*
X11240000Y22695000D01*
X11240000Y22695000D02*
X11240000Y21755000D01*
X11240000Y21755000D02*
X9380000Y21755000D01*
%TO.C,C12*%
X5245000Y18075000D02*
X6185000Y18075000D01*
X6185000Y18075000D02*
X6185000Y16215000D01*
X6185000Y16215000D02*
X5245000Y16215000D01*
X5245000Y16215000D02*
X5245000Y18075000D01*
%TO.C,C11*%
X6645000Y23965000D02*
X6645000Y23025000D01*
X6645000Y23025000D02*
X4785000Y23025000D01*
X4785000Y23025000D02*
X4785000Y23965000D01*
X4785000Y23965000D02*
X6645000Y23965000D01*
%TO.C,C10*%
X9380000Y23025000D02*
X9380000Y23965000D01*
X9380000Y23965000D02*
X11240000Y23965000D01*
X11240000Y23965000D02*
X11240000Y23025000D01*
X11240000Y23025000D02*
X9380000Y23025000D01*
%TO.C,C9*%
X9035000Y22695000D02*
X9035000Y21755000D01*
X9035000Y21755000D02*
X7175000Y21755000D01*
X7175000Y21755000D02*
X7175000Y22695000D01*
X7175000Y22695000D02*
X9035000Y22695000D01*
%TO.C,C8*%
X6010000Y19393000D02*
X6010000Y18453000D01*
X6010000Y18453000D02*
X4150000Y18453000D01*
X4150000Y18453000D02*
X4150000Y19393000D01*
X4150000Y19393000D02*
X6010000Y19393000D01*
%TO.C,C7*%
X9380000Y18453000D02*
X9380000Y19393000D01*
X9380000Y19393000D02*
X11240000Y19393000D01*
X11240000Y19393000D02*
X11240000Y18453000D01*
X11240000Y18453000D02*
X9380000Y18453000D01*
%TO.C,C6*%
X9380000Y20409000D02*
X11240000Y20409000D01*
X9380000Y19469000D02*
X9380000Y20409000D01*
X11240000Y19469000D02*
X9380000Y19469000D01*
X11240000Y20409000D02*
X11240000Y19469000D01*
%TO.C,C5*%
X4915000Y16215000D02*
X3975000Y16215000D01*
X3975000Y16215000D02*
X3975000Y18075000D01*
X3975000Y18075000D02*
X4915000Y18075000D01*
X4915000Y18075000D02*
X4915000Y16215000D01*
%TO.C,C3*%
X9055000Y18075000D02*
X9995000Y18075000D01*
X9995000Y18075000D02*
X9995000Y16215000D01*
X9995000Y16215000D02*
X9055000Y16215000D01*
X9055000Y16215000D02*
X9055000Y18075000D01*
%TO.C,C2*%
X11265000Y14310000D02*
X10325000Y14310000D01*
X10325000Y14310000D02*
X10325000Y16170000D01*
X10325000Y16170000D02*
X11265000Y16170000D01*
X11265000Y16170000D02*
X11265000Y14310000D01*
%TO.C,U2*%
X9020000Y21539000D02*
X6220000Y21539000D01*
X6220000Y18339000D02*
X9020000Y18339000D01*
X6220000Y18339000D02*
X6220000Y21539000D01*
X9020000Y18339000D02*
X9020000Y21539000D01*
%TO.C,R1*%
X11240000Y21425000D02*
X11240000Y20485000D01*
X11240000Y20485000D02*
X9380000Y20485000D01*
X9380000Y20485000D02*
X9380000Y21425000D01*
X9380000Y21425000D02*
X11240000Y21425000D01*
%TO.C,L5*%
X9035000Y23965000D02*
X9035000Y23025000D01*
X9035000Y23025000D02*
X7175000Y23025000D01*
X7175000Y23025000D02*
X7175000Y23965000D01*
X7175000Y23965000D02*
X9035000Y23965000D01*
%TO.C,L4*%
X7455000Y16215000D02*
X6515000Y16215000D01*
X6515000Y16215000D02*
X6515000Y18075000D01*
X6515000Y18075000D02*
X7455000Y18075000D01*
X7455000Y18075000D02*
X7455000Y16215000D01*
%TO.C,L3*%
X11265000Y16215000D02*
X10325000Y16215000D01*
X10325000Y16215000D02*
X10325000Y18075000D01*
X10325000Y18075000D02*
X11265000Y18075000D01*
X11265000Y18075000D02*
X11265000Y16215000D01*
%TO.C,L2*%
X7785000Y18075000D02*
X8725000Y18075000D01*
X8725000Y18075000D02*
X8725000Y16215000D01*
X8725000Y16215000D02*
X7785000Y16215000D01*
X7785000Y16215000D02*
X7785000Y18075000D01*
%TO.C,L1*%
X9055000Y16170000D02*
X9995000Y16170000D01*
X9995000Y16170000D02*
X9995000Y14310000D01*
X9995000Y14310000D02*
X9055000Y14310000D01*
X9055000Y14310000D02*
X9055000Y16170000D01*
%TO.C,J2*%
X3620000Y30105000D02*
X3620000Y24505000D01*
X3120000Y39225000D02*
X12120000Y39225000D01*
X11620000Y30105000D02*
X11620000Y24505000D01*
X11620000Y24505000D02*
X3620000Y24505000D01*
X12120000Y39225000D02*
X12120000Y30105000D01*
X12120000Y30105000D02*
X11620000Y30105000D01*
X3120000Y39225000D02*
X3120000Y30105000D01*
X3120000Y30105000D02*
X3620000Y30105000D01*
%TO.C,TP4*%
X13700000Y2540000D02*
G75*
G03*
X13700000Y2540000I-1000000J0D01*
G01*
%TO.C,TP3*%
X9890000Y5080000D02*
G75*
G03*
X9890000Y5080000I-1000000J0D01*
G01*
%TO.C,TP2*%
X7985000Y5080000D02*
G75*
G03*
X7985000Y5080000I-1000000J0D01*
G01*
%TO.C,C23*%
X12605000Y4387500D02*
X12605000Y7347500D01*
X14065000Y4387500D02*
X12605000Y4387500D01*
X14065000Y7347500D02*
X14065000Y4387500D01*
X12605000Y7347500D02*
X14065000Y7347500D01*
%TO.C,Y1*%
X1055000Y8931000D02*
X1055000Y4531000D01*
X4655000Y8931000D02*
X1055000Y8931000D01*
X4655000Y4531000D02*
X4655000Y8931000D01*
X1055000Y4531000D02*
X4655000Y4531000D01*
%TO.C,C22*%
X11595000Y6495000D02*
X12535000Y6495000D01*
X12535000Y6495000D02*
X12535000Y4635000D01*
X12535000Y4635000D02*
X11595000Y4635000D01*
X11595000Y4635000D02*
X11595000Y6495000D01*
%TO.C,C21*%
X4740000Y14440000D02*
X4740000Y13500000D01*
X4740000Y13500000D02*
X2880000Y13500000D01*
X2880000Y13500000D02*
X2880000Y14440000D01*
X2880000Y14440000D02*
X4740000Y14440000D01*
%TO.C,C20*%
X4740000Y10630000D02*
X4740000Y9690000D01*
X4740000Y9690000D02*
X2880000Y9690000D01*
X2880000Y9690000D02*
X2880000Y10630000D01*
X2880000Y10630000D02*
X4740000Y10630000D01*
%TO.C,C19*%
X3975000Y12995000D02*
X4915000Y12995000D01*
X4915000Y12995000D02*
X4915000Y11135000D01*
X4915000Y11135000D02*
X3975000Y11135000D01*
X3975000Y11135000D02*
X3975000Y12995000D01*
%TO.C,C18*%
X3645000Y11135000D02*
X2705000Y11135000D01*
X2705000Y11135000D02*
X2705000Y12995000D01*
X2705000Y12995000D02*
X3645000Y12995000D01*
X3645000Y12995000D02*
X3645000Y11135000D01*
%TO.C,C17*%
X11265000Y4635000D02*
X10325000Y4635000D01*
X10325000Y4635000D02*
X10325000Y6495000D01*
X10325000Y6495000D02*
X11265000Y6495000D01*
X11265000Y6495000D02*
X11265000Y4635000D01*
%TO.C,C16*%
X5880000Y16170000D02*
X6820000Y16170000D01*
X6820000Y16170000D02*
X6820000Y14310000D01*
X6820000Y14310000D02*
X5880000Y14310000D01*
X5880000Y14310000D02*
X5880000Y16170000D01*
%TO.C,C15*%
X7963000Y14310000D02*
X7023000Y14310000D01*
X7023000Y14310000D02*
X7023000Y16170000D01*
X7023000Y16170000D02*
X7963000Y16170000D01*
X7963000Y16170000D02*
X7963000Y14310000D01*
%TO.C,C4*%
X2375000Y9380000D02*
X1435000Y9380000D01*
X1435000Y9380000D02*
X1435000Y11240000D01*
X1435000Y11240000D02*
X2375000Y11240000D01*
X2375000Y11240000D02*
X2375000Y9380000D01*
%TO.C,C1*%
X3470000Y4280000D02*
X3470000Y3340000D01*
X3470000Y3340000D02*
X1610000Y3340000D01*
X1610000Y3340000D02*
X1610000Y4280000D01*
X1610000Y4280000D02*
X3470000Y4280000D01*
%TD*%
M02*
