%TF.GenerationSoftware,KiCad,Pcbnew,5.1.7+dfsg1-1~bpo10+1*%
%TF.CreationDate,Date%
%TF.ProjectId,ProMicro_LORA,50726f4d-6963-4726-9f5f-4c4f52412e6b,v1.2*%
%TF.SameCoordinates,Original*%
%TF.FileFunction,Legend,Top*%
%TF.FilePolarity,Positive*%
%FSLAX46Y46*%
G04 Gerber Fmt 4.6, Leading zero omitted, Abs format (unit mm)*
G04 Created by KiCad*
%MOMM*%
%LPD*%
G01*
G04 APERTURE LIST*
%ADD10C,0.120000*%
G04 APERTURE END LIST*
D10*
%TO.C,U1*%
X11250000Y13270000D02*
X12000000Y13270000D01*
X12000000Y13270000D02*
X12000000Y12520000D01*
X6530000Y7050000D02*
X5780000Y7050000D01*
X5780000Y7050000D02*
X5780000Y7800000D01*
X11250000Y7050000D02*
X12000000Y7050000D01*
X12000000Y7050000D02*
X12000000Y7800000D01*
X6530000Y13270000D02*
X5780000Y13270000D01*
%TO.C,J1*%
X6220000Y26220000D02*
X6860000Y26220000D01*
X9020000Y26220000D02*
X8380000Y26220000D01*
X6860000Y26220000D02*
X6860000Y25590000D01*
X6270000Y28940000D02*
X8970000Y28940000D01*
%TO.C,JP1*%
X2840000Y15110000D02*
X2240000Y15110000D01*
X3540000Y17210000D02*
X3540000Y15810000D01*
X2240000Y17910000D02*
X2840000Y17910000D01*
X1540000Y15810000D02*
X1540000Y17210000D01*
X2240000Y15110000D02*
G75*
G02*
X1540000Y15810000I0J700000D01*
G01*
X3540000Y15810000D02*
G75*
G02*
X2840000Y15110000I-700000J0D01*
G01*
X2840000Y17910000D02*
G75*
G02*
X3540000Y17210000I0J-700000D01*
G01*
X1540000Y17210000D02*
G75*
G02*
X2240000Y17910000I700000J0D01*
G01*
%TO.C,TP6*%
X9489400Y-950000D02*
X9489400Y950000D01*
X11389400Y-950000D02*
X9489400Y-950000D01*
X11389400Y950000D02*
X11389400Y-950000D01*
X9489400Y950000D02*
X11389400Y950000D01*
%TO.C,TP5*%
X3842980Y-950000D02*
X3842980Y950000D01*
X5742980Y-950000D02*
X3842980Y-950000D01*
X5742980Y950000D02*
X5742980Y-950000D01*
X3842980Y950000D02*
X5742980Y950000D01*
%TO.C,U2*%
X6460000Y20639000D02*
X6460000Y18739000D01*
X8780000Y19239000D02*
X8780000Y20639000D01*
%TO.C,J2*%
X7870000Y24345000D02*
X7620000Y24845000D01*
X7370000Y24345000D02*
X7870000Y24345000D01*
X7620000Y24845000D02*
X7370000Y24345000D01*
%TO.C,TP4*%
X13400000Y2540000D02*
G75*
G03*
X13400000Y2540000I-700000J0D01*
G01*
%TO.C,TP3*%
X9590000Y5080000D02*
G75*
G03*
X9590000Y5080000I-700000J0D01*
G01*
%TO.C,TP2*%
X7685000Y5080000D02*
G75*
G03*
X7685000Y5080000I-700000J0D01*
G01*
%TO.C,C23*%
X12825000Y6030279D02*
X12825000Y5704721D01*
X13845000Y6030279D02*
X13845000Y5704721D01*
%TO.C,Y1*%
X4605000Y4631000D02*
X4605000Y8831000D01*
X1105000Y4631000D02*
X4605000Y4631000D01*
%TD*%
M02*
