M48
; DRILL file {KiCad 5.1.5+dfsg1-2build2} date Mon 15 Mar 2021 10:58:26 PM CET
; FORMAT={-:-/ absolute / inch / decimal}
; #@! TF.CreationDate,2021-03-15T22:58:26+01:00
; #@! TF.GenerationSoftware,Kicad,Pcbnew,5.1.5+dfsg1-2build2
; #@! TF.FileFunction,Plated,1,4,PTH
FMAT,2
INCH
T1C0.0079
T2C0.0118
T3C0.0551
%
G90
G05
T1
X2.495Y-4.625
X2.495Y-4.8
X2.495Y-4.875
X2.495Y-5.025
X2.595Y-4.625
X2.595Y-4.8
X2.595Y-4.875
X2.695Y-4.935
X2.695Y-5.015
X2.725Y-4.7856
X2.745Y-4.7
X2.765Y-4.785
X2.785Y-4.74
X2.795Y-4.935
X2.795Y-5.015
X2.805Y-4.7854
X2.825Y-4.685
X2.8346Y-4.5896
X2.855Y-4.64
X2.889Y-4.9375
X2.9175Y-5.0125
X2.92Y-4.6375
X2.945Y-5.0875
X2.95Y-4.7125
X2.98Y-5.0125
X2.9875Y-4.83
X2.99Y-4.89
X3.02Y-4.72
X3.02Y-4.75
X3.045Y-5.085
X3.06Y-5.0
X3.075Y-4.75
X3.075Y-4.91
X3.1Y-4.725
X3.1Y-4.895
X3.1325Y-4.6175
X3.145Y-4.575
X3.145Y-5.085
X3.2075Y-4.62
X3.2075Y-4.9675
X3.245Y-4.575
X3.245Y-4.75
X3.245Y-4.93
X3.245Y-5.085
X3.285Y-4.75
X3.31Y-4.885
X3.31Y-4.965
X3.335Y-4.62
X3.335Y-4.65
X3.335Y-4.68
X3.345Y-4.575
X3.345Y-5.085
X3.355Y-4.885
X3.3883Y-4.9067
X3.395Y-4.73
X3.445Y-4.575
X3.445Y-4.73
X3.445Y-5.0925
X3.47Y-4.95
X3.47Y-5.0
X3.495Y-4.73
X3.1267Y-4.7817
X3.1267Y-4.825
X3.1267Y-4.8683
X3.17Y-4.7817
X3.17Y-4.825
X3.17Y-4.8683
X3.2133Y-4.7817
X3.2133Y-4.825
X3.2133Y-4.8683
T2
X3.1325Y-5.0
X3.33Y-4.92
T3
X3.345Y-5.025
X2.495Y-4.525
X2.495Y-5.125
X2.595Y-4.525
X2.595Y-5.125
X2.695Y-4.525
X2.695Y-5.125
X2.795Y-4.525
X2.795Y-5.125
X2.895Y-4.525
X2.895Y-5.125
X2.995Y-4.525
X2.995Y-5.125
X3.095Y-4.525
X3.095Y-5.125
X3.195Y-4.525
X3.195Y-5.125
X3.295Y-4.525
X3.295Y-5.125
X3.395Y-4.525
X3.395Y-5.125
X3.495Y-4.525
X3.495Y-5.125
X3.595Y-4.525
X3.595Y-5.125
T0
M30
