G04 #@! TF.GenerationSoftware,KiCad,Pcbnew,5.1.5+dfsg1-2build2*
G04 #@! TF.CreationDate,2021-03-15T22:58:29+01:00*
G04 #@! TF.ProjectId,ProMicro_BOOST,50726f4d-6963-4726-9f5f-424f4f53542e,v1.8*
G04 #@! TF.SameCoordinates,Original*
G04 #@! TF.FileFunction,OtherDrawing,Comment*
%FSLAX46Y46*%
G04 Gerber Fmt 4.6, Leading zero omitted, Abs format (unit mm)*
G04 Created by KiCad*
%MOMM*%
%LPD*%
G04 APERTURE LIST*
%ADD10C,0.150000*%
G04 APERTURE END LIST*
D10*
X58715380Y-126126428D02*
X58715380Y-126697857D01*
X58715380Y-126412142D02*
X57715380Y-126412142D01*
X57858238Y-126507380D01*
X57953476Y-126602619D01*
X58001095Y-126697857D01*
X57715380Y-125793095D02*
X57715380Y-125126428D01*
X58715380Y-125555000D01*
X58620142Y-124745476D02*
X58667761Y-124697857D01*
X58715380Y-124745476D01*
X58667761Y-124793095D01*
X58620142Y-124745476D01*
X58715380Y-124745476D01*
X57715380Y-124364523D02*
X57715380Y-123697857D01*
X58715380Y-124126428D01*
X58143952Y-123174047D02*
X58096333Y-123269285D01*
X58048714Y-123316904D01*
X57953476Y-123364523D01*
X57905857Y-123364523D01*
X57810619Y-123316904D01*
X57763000Y-123269285D01*
X57715380Y-123174047D01*
X57715380Y-122983571D01*
X57763000Y-122888333D01*
X57810619Y-122840714D01*
X57905857Y-122793095D01*
X57953476Y-122793095D01*
X58048714Y-122840714D01*
X58096333Y-122888333D01*
X58143952Y-122983571D01*
X58143952Y-123174047D01*
X58191571Y-123269285D01*
X58239190Y-123316904D01*
X58334428Y-123364523D01*
X58524904Y-123364523D01*
X58620142Y-123316904D01*
X58667761Y-123269285D01*
X58715380Y-123174047D01*
X58715380Y-122983571D01*
X58667761Y-122888333D01*
X58620142Y-122840714D01*
X58524904Y-122793095D01*
X58334428Y-122793095D01*
X58239190Y-122840714D01*
X58191571Y-122888333D01*
X58143952Y-122983571D01*
X57715380Y-122174047D02*
X57715380Y-122078809D01*
X57763000Y-121983571D01*
X57810619Y-121935952D01*
X57905857Y-121888333D01*
X58096333Y-121840714D01*
X58334428Y-121840714D01*
X58524904Y-121888333D01*
X58620142Y-121935952D01*
X58667761Y-121983571D01*
X58715380Y-122078809D01*
X58715380Y-122174047D01*
X58667761Y-122269285D01*
X58620142Y-122316904D01*
X58524904Y-122364523D01*
X58334428Y-122412142D01*
X58096333Y-122412142D01*
X57905857Y-122364523D01*
X57810619Y-122316904D01*
X57763000Y-122269285D01*
X57715380Y-122174047D01*
X58715380Y-120650238D02*
X58048714Y-120650238D01*
X58143952Y-120650238D02*
X58096333Y-120602619D01*
X58048714Y-120507380D01*
X58048714Y-120364523D01*
X58096333Y-120269285D01*
X58191571Y-120221666D01*
X58715380Y-120221666D01*
X58191571Y-120221666D02*
X58096333Y-120174047D01*
X58048714Y-120078809D01*
X58048714Y-119935952D01*
X58096333Y-119840714D01*
X58191571Y-119793095D01*
X58715380Y-119793095D01*
X58715380Y-119316904D02*
X58048714Y-119316904D01*
X58143952Y-119316904D02*
X58096333Y-119269285D01*
X58048714Y-119174047D01*
X58048714Y-119031190D01*
X58096333Y-118935952D01*
X58191571Y-118888333D01*
X58715380Y-118888333D01*
X58191571Y-118888333D02*
X58096333Y-118840714D01*
X58048714Y-118745476D01*
X58048714Y-118602619D01*
X58096333Y-118507380D01*
X58191571Y-118459761D01*
X58715380Y-118459761D01*
X59563000Y-131445000D02*
X59563000Y-113665000D01*
X63373000Y-131445000D02*
X58976579Y-131445000D01*
X63373000Y-113665000D02*
X58976579Y-113665000D01*
X59563000Y-113665000D02*
X60149421Y-114791504D01*
X59563000Y-113665000D02*
X58976579Y-114791504D01*
X59563000Y-131445000D02*
X60149421Y-130318496D01*
X59563000Y-131445000D02*
X58976579Y-130318496D01*
X71930142Y-134832619D02*
X71977761Y-134785000D01*
X72073000Y-134737380D01*
X72311095Y-134737380D01*
X72406333Y-134785000D01*
X72453952Y-134832619D01*
X72501571Y-134927857D01*
X72501571Y-135023095D01*
X72453952Y-135165952D01*
X71882523Y-135737380D01*
X72501571Y-135737380D01*
X72834904Y-134737380D02*
X73501571Y-134737380D01*
X73073000Y-135737380D01*
X73882523Y-135642142D02*
X73930142Y-135689761D01*
X73882523Y-135737380D01*
X73834904Y-135689761D01*
X73882523Y-135642142D01*
X73882523Y-135737380D01*
X74406333Y-135737380D02*
X74596809Y-135737380D01*
X74692047Y-135689761D01*
X74739666Y-135642142D01*
X74834904Y-135499285D01*
X74882523Y-135308809D01*
X74882523Y-134927857D01*
X74834904Y-134832619D01*
X74787285Y-134785000D01*
X74692047Y-134737380D01*
X74501571Y-134737380D01*
X74406333Y-134785000D01*
X74358714Y-134832619D01*
X74311095Y-134927857D01*
X74311095Y-135165952D01*
X74358714Y-135261190D01*
X74406333Y-135308809D01*
X74501571Y-135356428D01*
X74692047Y-135356428D01*
X74787285Y-135308809D01*
X74834904Y-135261190D01*
X74882523Y-135165952D01*
X75739666Y-135070714D02*
X75739666Y-135737380D01*
X75501571Y-134689761D02*
X75263476Y-135404047D01*
X75882523Y-135404047D01*
X76453952Y-134737380D02*
X76549190Y-134737380D01*
X76644428Y-134785000D01*
X76692047Y-134832619D01*
X76739666Y-134927857D01*
X76787285Y-135118333D01*
X76787285Y-135356428D01*
X76739666Y-135546904D01*
X76692047Y-135642142D01*
X76644428Y-135689761D01*
X76549190Y-135737380D01*
X76453952Y-135737380D01*
X76358714Y-135689761D01*
X76311095Y-135642142D01*
X76263476Y-135546904D01*
X76215857Y-135356428D01*
X76215857Y-135118333D01*
X76263476Y-134927857D01*
X76311095Y-134832619D01*
X76358714Y-134785000D01*
X76453952Y-134737380D01*
X77977761Y-135737380D02*
X77977761Y-135070714D01*
X77977761Y-135165952D02*
X78025380Y-135118333D01*
X78120619Y-135070714D01*
X78263476Y-135070714D01*
X78358714Y-135118333D01*
X78406333Y-135213571D01*
X78406333Y-135737380D01*
X78406333Y-135213571D02*
X78453952Y-135118333D01*
X78549190Y-135070714D01*
X78692047Y-135070714D01*
X78787285Y-135118333D01*
X78834904Y-135213571D01*
X78834904Y-135737380D01*
X79311095Y-135737380D02*
X79311095Y-135070714D01*
X79311095Y-135165952D02*
X79358714Y-135118333D01*
X79453952Y-135070714D01*
X79596809Y-135070714D01*
X79692047Y-135118333D01*
X79739666Y-135213571D01*
X79739666Y-135737380D01*
X79739666Y-135213571D02*
X79787285Y-135118333D01*
X79882523Y-135070714D01*
X80025380Y-135070714D01*
X80120619Y-135118333D01*
X80168238Y-135213571D01*
X80168238Y-135737380D01*
X62103000Y-133985000D02*
X90043000Y-133985000D01*
X62103000Y-130175000D02*
X62103000Y-134571421D01*
X90043000Y-130175000D02*
X90043000Y-134571421D01*
X90043000Y-133985000D02*
X88916496Y-134571421D01*
X90043000Y-133985000D02*
X88916496Y-133398579D01*
X62103000Y-133985000D02*
X63229504Y-134571421D01*
X62103000Y-133985000D02*
X63229504Y-133398579D01*
M02*
