G04 #@! TF.GenerationSoftware,KiCad,Pcbnew,5.1.5+dfsg1-2build2*
G04 #@! TF.CreationDate,2021-03-15T22:58:29+01:00*
G04 #@! TF.ProjectId,ProMicro_BOOST,50726f4d-6963-4726-9f5f-424f4f53542e,v1.8*
G04 #@! TF.SameCoordinates,Original*
G04 #@! TF.FileFunction,Other,User*
%FSLAX46Y46*%
G04 Gerber Fmt 4.6, Leading zero omitted, Abs format (unit mm)*
G04 Created by KiCad*
%MOMM*%
%LPD*%
G04 APERTURE LIST*
%ADD10C,0.050000*%
G04 APERTURE END LIST*
D10*
X89864000Y-123642000D02*
X89864000Y-116642000D01*
X83364000Y-116642000D02*
X83364000Y-123642000D01*
X89864000Y-116642000D02*
X83364000Y-116642000D01*
X83364000Y-123642000D02*
X89864000Y-123642000D01*
X83153000Y-116630000D02*
X83153000Y-119590000D01*
X81693000Y-116630000D02*
X83153000Y-116630000D01*
X81693000Y-119590000D02*
X81693000Y-116630000D01*
X83153000Y-119590000D02*
X81693000Y-119590000D01*
X81693000Y-128480000D02*
X81693000Y-125520000D01*
X83153000Y-128480000D02*
X81693000Y-128480000D01*
X83153000Y-125520000D02*
X83153000Y-128480000D01*
X81693000Y-125520000D02*
X83153000Y-125520000D01*
X79788000Y-128480000D02*
X79788000Y-125520000D01*
X81248000Y-128480000D02*
X79788000Y-128480000D01*
X81248000Y-125520000D02*
X81248000Y-128480000D01*
X79788000Y-125520000D02*
X81248000Y-125520000D01*
X72688000Y-119920000D02*
X75648000Y-119920000D01*
X72688000Y-121380000D02*
X72688000Y-119920000D01*
X75648000Y-121380000D02*
X72688000Y-121380000D01*
X75648000Y-119920000D02*
X75648000Y-121380000D01*
X81248000Y-116630000D02*
X81248000Y-119590000D01*
X79788000Y-116630000D02*
X81248000Y-116630000D01*
X79788000Y-119590000D02*
X79788000Y-116630000D01*
X81248000Y-119590000D02*
X79788000Y-119590000D01*
X75978000Y-128480000D02*
X75978000Y-125520000D01*
X77438000Y-128480000D02*
X75978000Y-128480000D01*
X77438000Y-125520000D02*
X77438000Y-128480000D01*
X75978000Y-125520000D02*
X77438000Y-125520000D01*
X79343000Y-125520000D02*
X79343000Y-128480000D01*
X77883000Y-125520000D02*
X79343000Y-125520000D01*
X77883000Y-128480000D02*
X77883000Y-125520000D01*
X79343000Y-128480000D02*
X77883000Y-128480000D01*
X77883000Y-119590000D02*
X77883000Y-116630000D01*
X79343000Y-119590000D02*
X77883000Y-119590000D01*
X79343000Y-116630000D02*
X79343000Y-119590000D01*
X77883000Y-116630000D02*
X79343000Y-116630000D01*
X77438000Y-116630000D02*
X77438000Y-119590000D01*
X75978000Y-116630000D02*
X77438000Y-116630000D01*
X75978000Y-119590000D02*
X75978000Y-116630000D01*
X77438000Y-119590000D02*
X75978000Y-119590000D01*
X77438000Y-121075000D02*
X77438000Y-124035000D01*
X75978000Y-121075000D02*
X77438000Y-121075000D01*
X75978000Y-124035000D02*
X75978000Y-121075000D01*
X77438000Y-124035000D02*
X75978000Y-124035000D01*
X89618000Y-129127000D02*
X86658000Y-129127000D01*
X89618000Y-127667000D02*
X89618000Y-129127000D01*
X86658000Y-127667000D02*
X89618000Y-127667000D01*
X86658000Y-129127000D02*
X86658000Y-127667000D01*
X77898000Y-125175000D02*
X83138000Y-125175000D01*
X77898000Y-119935000D02*
X77898000Y-125175000D01*
X83138000Y-119935000D02*
X77898000Y-119935000D01*
X83138000Y-125175000D02*
X83138000Y-119935000D01*
X86338000Y-123830000D02*
X89938000Y-123830000D01*
X86338000Y-127630000D02*
X86338000Y-123830000D01*
X89938000Y-127630000D02*
X86338000Y-127630000D01*
X89938000Y-123830000D02*
X89938000Y-127630000D01*
X67423000Y-116225000D02*
X72023000Y-116225000D01*
X67423000Y-116225000D02*
X67423000Y-118725000D01*
X72023000Y-118725000D02*
X72023000Y-116225000D01*
X72023000Y-118725000D02*
X67423000Y-118725000D01*
X72283000Y-127155000D02*
X72283000Y-117955000D01*
X62083000Y-127155000D02*
X72283000Y-127155000D01*
X62083000Y-117955000D02*
X62083000Y-127155000D01*
X72283000Y-117955000D02*
X62083000Y-117955000D01*
X75648000Y-117570000D02*
X72688000Y-117570000D01*
X75648000Y-116110000D02*
X75648000Y-117570000D01*
X72688000Y-116110000D02*
X75648000Y-116110000D01*
X72688000Y-117570000D02*
X72688000Y-116110000D01*
X72688000Y-118015000D02*
X75648000Y-118015000D01*
X72688000Y-119475000D02*
X72688000Y-118015000D01*
X75648000Y-119475000D02*
X72688000Y-119475000D01*
X75648000Y-118015000D02*
X75648000Y-119475000D01*
X75648000Y-127095000D02*
X72688000Y-127095000D01*
X75648000Y-125635000D02*
X75648000Y-127095000D01*
X72688000Y-125635000D02*
X75648000Y-125635000D01*
X72688000Y-127095000D02*
X72688000Y-125635000D01*
X75648000Y-123285000D02*
X72688000Y-123285000D01*
X75648000Y-121825000D02*
X75648000Y-123285000D01*
X72688000Y-121825000D02*
X75648000Y-121825000D01*
X72688000Y-123285000D02*
X72688000Y-121825000D01*
X75648000Y-125190000D02*
X72688000Y-125190000D01*
X75648000Y-123730000D02*
X75648000Y-125190000D01*
X72688000Y-123730000D02*
X75648000Y-123730000D01*
X72688000Y-125190000D02*
X72688000Y-123730000D01*
X72688000Y-127540000D02*
X75648000Y-127540000D01*
X72688000Y-129000000D02*
X72688000Y-127540000D01*
X75648000Y-129000000D02*
X72688000Y-129000000D01*
X75648000Y-127540000D02*
X75648000Y-129000000D01*
M02*
