M48
; DRILL file {KiCad 5.1.7+dfsg1-1~bpo10+1} date Sat Nov 21 22:01:37 2020
; FORMAT={-:-/ absolute / metric / decimal}
; #@! TF.CreationDate,2020-11-21T22:01:37+00:00
; #@! TF.GenerationSoftware,Kicad,Pcbnew,5.1.7+dfsg1-1~bpo10+1
; #@! TF.FileFunction,Plated,1,4,PTH
FMAT,2
METRIC
T1C0.200
T2C0.300
T3C1.400
%
G90
G05
T1
X0.889Y21.59
X0.889Y19.05
X0.889Y16.51
X1.397Y24.13
X1.641Y8.626
X2.349Y16.192
X2.413Y21.336
X2.413Y18.098
X2.54Y2.54
X2.54Y0.0
X2.857Y10.795
X2.921Y9.144
X3.175Y21.336
X3.937Y21.336
X4.064Y8.382
X4.445Y6.35
X4.763Y11.557
X4.953Y14.859
X4.953Y13.335
X5.207Y25.4
X5.207Y24.13
X5.207Y22.86
X5.461Y7.366
X5.7Y14.844
X5.715Y20.066
X5.715Y19.05
X5.715Y13.335
X6.604Y6.858
X6.614Y7.874
X6.619Y5.842
X6.985Y2.54
X6.985Y0.0
X7.747Y12.509
X8.89Y2.54
X8.89Y0.0
X9.144Y21.844
X9.144Y20.701
X9.398Y15.367
X9.398Y13.081
X9.695Y22.69
X9.779Y14.732
X10.414Y7.62
X10.414Y5.08
X10.477Y10.008
X10.795Y24.765
X11.176Y20.701
X12.065Y24.765
X12.065Y14.351
X12.383Y10.731
X12.446Y7.62
X12.446Y5.08
X12.7Y0.0
X14.224Y19.05
X14.224Y16.51
X14.224Y13.97
X14.287Y11.43
X14.414Y24.13
X14.414Y21.59
X6.52Y18.245
X6.52Y17.145
X6.52Y16.045
X7.62Y18.245
X7.62Y17.145
X7.62Y16.045
X8.72Y18.245
X8.72Y17.145
X8.72Y16.045
T2
X10.033Y21.209
X11.239Y18.098
X12.065Y16.192
T3
X12.7Y21.59
X0.0Y27.94
X0.0Y25.4
X0.0Y22.86
X0.0Y20.32
X0.0Y17.78
X0.0Y15.24
X0.0Y12.7
X0.0Y10.16
X0.0Y7.62
X0.0Y5.08
X0.0Y2.54
X0.0Y0.0
X15.24Y27.94
X15.24Y25.4
X15.24Y22.86
X15.24Y20.32
X15.24Y17.78
X15.24Y15.24
X15.24Y12.7
X15.24Y10.16
X15.24Y7.62
X15.24Y5.08
X15.24Y2.54
X15.24Y0.0
T0
M30
