G04 #@! TF.GenerationSoftware,KiCad,Pcbnew,5.1.5+dfsg1-2build2*
G04 #@! TF.CreationDate,2021-03-15T22:58:29+01:00*
G04 #@! TF.ProjectId,ProMicro_BOOST,50726f4d-6963-4726-9f5f-424f4f53542e,v1.8*
G04 #@! TF.SameCoordinates,Original*
G04 #@! TF.FileFunction,Copper,L3,Inr*
G04 #@! TF.FilePolarity,Positive*
%FSLAX46Y46*%
G04 Gerber Fmt 4.6, Leading zero omitted, Abs format (unit mm)*
G04 Created by KiCad*
%MOMM*%
%LPD*%
G04 APERTURE LIST*
%ADD10C,2.100000*%
%ADD11R,2.100000X2.100000*%
%ADD12C,2.000000*%
%ADD13C,0.500000*%
%ADD14C,0.450000*%
%ADD15C,0.600000*%
%ADD16C,0.150000*%
G04 APERTURE END LIST*
D10*
X63373000Y-130175000D03*
X65913000Y-130175000D03*
X68453000Y-130175000D03*
X91313000Y-114935000D03*
X70993000Y-130175000D03*
X88773000Y-114935000D03*
X73533000Y-130175000D03*
X86233000Y-114935000D03*
X76073000Y-130175000D03*
X83693000Y-114935000D03*
X78613000Y-130175000D03*
X81153000Y-114935000D03*
X81153000Y-130175000D03*
X78613000Y-114935000D03*
X83693000Y-130175000D03*
X76073000Y-114935000D03*
X86233000Y-130175000D03*
X73533000Y-114935000D03*
X88773000Y-130175000D03*
X70993000Y-114935000D03*
X91313000Y-130175000D03*
X68453000Y-114935000D03*
X65913000Y-114935000D03*
D11*
X63373000Y-114935000D03*
D12*
X84963000Y-127635000D03*
D13*
X79418000Y-121455000D03*
X80518000Y-121455000D03*
X81618000Y-121455000D03*
X79418000Y-122555000D03*
X80518000Y-122555000D03*
X81618000Y-122555000D03*
X79418000Y-123655000D03*
X80518000Y-123655000D03*
X81618000Y-123655000D03*
X69723000Y-119380000D03*
X71755000Y-118999000D03*
X72517000Y-117856000D03*
X84963000Y-116205000D03*
D14*
X75882500Y-122682000D03*
D13*
X70739000Y-120396000D03*
X74168000Y-117792500D03*
X74104500Y-127317500D03*
X63373000Y-123825000D03*
X63373000Y-121920000D03*
X65913000Y-121920000D03*
X63373000Y-127635000D03*
X65913000Y-117475000D03*
X63373000Y-117475000D03*
X78740000Y-124333000D03*
X77724000Y-127000000D03*
X68453000Y-125349000D03*
X70993000Y-125349000D03*
X82423000Y-120650000D03*
X83439000Y-120650000D03*
X87503000Y-116205000D03*
X82423000Y-129159000D03*
X79883000Y-129159000D03*
X79883000Y-116205000D03*
X82423000Y-116205000D03*
X65913000Y-123825000D03*
X75946000Y-124206000D03*
X74803000Y-129222500D03*
X68453000Y-127381000D03*
X70993000Y-127381000D03*
X87503000Y-120142000D03*
X88773000Y-120142000D03*
X86233000Y-120142000D03*
X77343000Y-129159000D03*
X78105000Y-124714000D03*
X84074000Y-124079000D03*
X88138000Y-125730000D03*
X88138000Y-127000000D03*
X84963000Y-129159000D03*
X87503000Y-129349500D03*
X85217000Y-124079000D03*
X84074000Y-126111000D03*
X75692000Y-127317500D03*
X81470500Y-126174500D03*
D15*
X79565500Y-127000000D03*
D13*
X82423000Y-125222000D03*
X73380500Y-125412500D03*
D15*
X84582000Y-124968000D03*
D13*
X70231000Y-121539000D03*
X84709000Y-117348000D03*
X84709000Y-118110000D03*
X78105000Y-120650000D03*
X74930000Y-119697500D03*
X81470500Y-117348000D03*
X78740000Y-120015000D03*
X79565500Y-117284500D03*
X76708000Y-119888000D03*
X76708000Y-120650000D03*
X84709000Y-118872000D03*
X71247000Y-121549160D03*
X69215000Y-121554240D03*
X86063000Y-124630000D03*
X71999230Y-116576228D03*
D16*
G36*
X75538206Y-124540668D02*
G01*
X75611332Y-124613794D01*
X75697319Y-124671249D01*
X75792863Y-124710824D01*
X75894292Y-124731000D01*
X75997708Y-124731000D01*
X76099137Y-124710824D01*
X76194681Y-124671249D01*
X76280668Y-124613794D01*
X76353794Y-124540668D01*
X76357581Y-124535000D01*
X77610889Y-124535000D01*
X77600176Y-124560863D01*
X77580000Y-124662292D01*
X77580000Y-124765708D01*
X77600176Y-124867137D01*
X77639751Y-124962681D01*
X77697206Y-125048668D01*
X77770332Y-125121794D01*
X77856319Y-125179249D01*
X77951863Y-125218824D01*
X78053292Y-125239000D01*
X78156708Y-125239000D01*
X78258137Y-125218824D01*
X78353681Y-125179249D01*
X78439668Y-125121794D01*
X78512794Y-125048668D01*
X78570249Y-124962681D01*
X78609824Y-124867137D01*
X78614559Y-124843333D01*
X78688292Y-124858000D01*
X78791708Y-124858000D01*
X78893137Y-124837824D01*
X78988681Y-124798249D01*
X79074668Y-124740794D01*
X79147794Y-124667668D01*
X79205249Y-124581681D01*
X79224585Y-124535000D01*
X83237000Y-124535000D01*
X83237000Y-128929712D01*
X83065377Y-129000800D01*
X82943073Y-129082521D01*
X82927824Y-129005863D01*
X82888249Y-128910319D01*
X82830794Y-128824332D01*
X82757668Y-128751206D01*
X82671681Y-128693751D01*
X82576137Y-128654176D01*
X82474708Y-128634000D01*
X82371292Y-128634000D01*
X82269863Y-128654176D01*
X82174319Y-128693751D01*
X82088332Y-128751206D01*
X82015206Y-128824332D01*
X81957751Y-128910319D01*
X81918176Y-129005863D01*
X81902927Y-129082521D01*
X81780623Y-129000800D01*
X81539488Y-128900919D01*
X81283501Y-128850000D01*
X81022499Y-128850000D01*
X80766512Y-128900919D01*
X80525377Y-129000800D01*
X80403073Y-129082521D01*
X80387824Y-129005863D01*
X80348249Y-128910319D01*
X80290794Y-128824332D01*
X80217668Y-128751206D01*
X80131681Y-128693751D01*
X80036137Y-128654176D01*
X79934708Y-128634000D01*
X79831292Y-128634000D01*
X79729863Y-128654176D01*
X79634319Y-128693751D01*
X79548332Y-128751206D01*
X79475206Y-128824332D01*
X79417751Y-128910319D01*
X79378176Y-129005863D01*
X79362927Y-129082521D01*
X79240623Y-129000800D01*
X78999488Y-128900919D01*
X78743501Y-128850000D01*
X78482499Y-128850000D01*
X78226512Y-128900919D01*
X77985377Y-129000800D01*
X77863073Y-129082521D01*
X77847824Y-129005863D01*
X77808249Y-128910319D01*
X77750794Y-128824332D01*
X77677668Y-128751206D01*
X77591681Y-128693751D01*
X77496137Y-128654176D01*
X77394708Y-128634000D01*
X77291292Y-128634000D01*
X77189863Y-128654176D01*
X77094319Y-128693751D01*
X77008332Y-128751206D01*
X76935206Y-128824332D01*
X76877751Y-128910319D01*
X76838176Y-129005863D01*
X76822927Y-129082521D01*
X76700623Y-129000800D01*
X76459488Y-128900919D01*
X76203501Y-128850000D01*
X75942499Y-128850000D01*
X75686512Y-128900919D01*
X75445377Y-129000800D01*
X75311923Y-129089971D01*
X75307824Y-129069363D01*
X75268249Y-128973819D01*
X75210794Y-128887832D01*
X75137668Y-128814706D01*
X75051681Y-128757251D01*
X74956137Y-128717676D01*
X74854708Y-128697500D01*
X74751292Y-128697500D01*
X74649863Y-128717676D01*
X74554319Y-128757251D01*
X74468332Y-128814706D01*
X74395206Y-128887832D01*
X74337751Y-128973819D01*
X74298176Y-129069363D01*
X74294077Y-129089971D01*
X74160623Y-129000800D01*
X73919488Y-128900919D01*
X73663501Y-128850000D01*
X73402499Y-128850000D01*
X73146512Y-128900919D01*
X72905377Y-129000800D01*
X72688362Y-129145805D01*
X72503805Y-129330362D01*
X72358800Y-129547377D01*
X72260762Y-129784063D01*
X72193336Y-129598937D01*
X72138850Y-129497001D01*
X71969838Y-129374938D01*
X71169777Y-130175000D01*
X71969838Y-130975062D01*
X72138850Y-130852999D01*
X72249104Y-130616428D01*
X72261193Y-130566978D01*
X72358800Y-130802623D01*
X72503805Y-131019638D01*
X72654167Y-131170000D01*
X71779945Y-131170000D01*
X71793062Y-131151838D01*
X70993000Y-130351777D01*
X70192938Y-131151838D01*
X70206055Y-131170000D01*
X69331833Y-131170000D01*
X69482195Y-131019638D01*
X69627200Y-130802623D01*
X69725238Y-130565937D01*
X69792664Y-130751063D01*
X69847150Y-130852999D01*
X70016162Y-130975062D01*
X70816223Y-130175000D01*
X70016162Y-129374938D01*
X69847150Y-129497001D01*
X69736896Y-129733572D01*
X69724807Y-129783022D01*
X69627200Y-129547377D01*
X69482195Y-129330362D01*
X69349995Y-129198162D01*
X70192938Y-129198162D01*
X70993000Y-129998223D01*
X71793062Y-129198162D01*
X71670999Y-129029150D01*
X71434428Y-128918896D01*
X71180892Y-128856913D01*
X70920136Y-128845583D01*
X70662180Y-128885343D01*
X70416937Y-128974664D01*
X70315001Y-129029150D01*
X70192938Y-129198162D01*
X69349995Y-129198162D01*
X69297638Y-129145805D01*
X69080623Y-129000800D01*
X68839488Y-128900919D01*
X68583501Y-128850000D01*
X68528000Y-128850000D01*
X68528000Y-127901367D01*
X68606137Y-127885824D01*
X68701681Y-127846249D01*
X68787668Y-127788794D01*
X68860794Y-127715668D01*
X68918249Y-127629681D01*
X68957824Y-127534137D01*
X68978000Y-127432708D01*
X68978000Y-127329292D01*
X70468000Y-127329292D01*
X70468000Y-127432708D01*
X70488176Y-127534137D01*
X70527751Y-127629681D01*
X70585206Y-127715668D01*
X70658332Y-127788794D01*
X70744319Y-127846249D01*
X70839863Y-127885824D01*
X70941292Y-127906000D01*
X71044708Y-127906000D01*
X71146137Y-127885824D01*
X71241681Y-127846249D01*
X71327668Y-127788794D01*
X71400794Y-127715668D01*
X71458249Y-127629681D01*
X71497824Y-127534137D01*
X71518000Y-127432708D01*
X71518000Y-127329292D01*
X71505369Y-127265792D01*
X73579500Y-127265792D01*
X73579500Y-127369208D01*
X73599676Y-127470637D01*
X73639251Y-127566181D01*
X73696706Y-127652168D01*
X73769832Y-127725294D01*
X73855819Y-127782749D01*
X73951363Y-127822324D01*
X74052792Y-127842500D01*
X74156208Y-127842500D01*
X74257637Y-127822324D01*
X74353181Y-127782749D01*
X74439168Y-127725294D01*
X74512294Y-127652168D01*
X74569749Y-127566181D01*
X74609324Y-127470637D01*
X74629500Y-127369208D01*
X74629500Y-127265792D01*
X75167000Y-127265792D01*
X75167000Y-127369208D01*
X75187176Y-127470637D01*
X75226751Y-127566181D01*
X75284206Y-127652168D01*
X75357332Y-127725294D01*
X75443319Y-127782749D01*
X75538863Y-127822324D01*
X75640292Y-127842500D01*
X75743708Y-127842500D01*
X75845137Y-127822324D01*
X75940681Y-127782749D01*
X76026668Y-127725294D01*
X76099794Y-127652168D01*
X76157249Y-127566181D01*
X76196824Y-127470637D01*
X76217000Y-127369208D01*
X76217000Y-127265792D01*
X76196824Y-127164363D01*
X76157249Y-127068819D01*
X76099794Y-126982832D01*
X76065254Y-126948292D01*
X77199000Y-126948292D01*
X77199000Y-127051708D01*
X77219176Y-127153137D01*
X77258751Y-127248681D01*
X77316206Y-127334668D01*
X77389332Y-127407794D01*
X77475319Y-127465249D01*
X77570863Y-127504824D01*
X77672292Y-127525000D01*
X77775708Y-127525000D01*
X77877137Y-127504824D01*
X77972681Y-127465249D01*
X78058668Y-127407794D01*
X78131794Y-127334668D01*
X78189249Y-127248681D01*
X78228824Y-127153137D01*
X78249000Y-127051708D01*
X78249000Y-126948292D01*
X78228824Y-126846863D01*
X78189249Y-126751319D01*
X78131794Y-126665332D01*
X78058668Y-126592206D01*
X77972681Y-126534751D01*
X77877137Y-126495176D01*
X77775708Y-126475000D01*
X77672292Y-126475000D01*
X77570863Y-126495176D01*
X77475319Y-126534751D01*
X77389332Y-126592206D01*
X77316206Y-126665332D01*
X77258751Y-126751319D01*
X77219176Y-126846863D01*
X77199000Y-126948292D01*
X76065254Y-126948292D01*
X76026668Y-126909706D01*
X75940681Y-126852251D01*
X75845137Y-126812676D01*
X75743708Y-126792500D01*
X75640292Y-126792500D01*
X75538863Y-126812676D01*
X75443319Y-126852251D01*
X75357332Y-126909706D01*
X75284206Y-126982832D01*
X75226751Y-127068819D01*
X75187176Y-127164363D01*
X75167000Y-127265792D01*
X74629500Y-127265792D01*
X74609324Y-127164363D01*
X74569749Y-127068819D01*
X74512294Y-126982832D01*
X74439168Y-126909706D01*
X74353181Y-126852251D01*
X74257637Y-126812676D01*
X74156208Y-126792500D01*
X74052792Y-126792500D01*
X73951363Y-126812676D01*
X73855819Y-126852251D01*
X73769832Y-126909706D01*
X73696706Y-126982832D01*
X73639251Y-127068819D01*
X73599676Y-127164363D01*
X73579500Y-127265792D01*
X71505369Y-127265792D01*
X71497824Y-127227863D01*
X71458249Y-127132319D01*
X71400794Y-127046332D01*
X71327668Y-126973206D01*
X71241681Y-126915751D01*
X71146137Y-126876176D01*
X71044708Y-126856000D01*
X70941292Y-126856000D01*
X70839863Y-126876176D01*
X70744319Y-126915751D01*
X70658332Y-126973206D01*
X70585206Y-127046332D01*
X70527751Y-127132319D01*
X70488176Y-127227863D01*
X70468000Y-127329292D01*
X68978000Y-127329292D01*
X68957824Y-127227863D01*
X68918249Y-127132319D01*
X68860794Y-127046332D01*
X68787668Y-126973206D01*
X68701681Y-126915751D01*
X68606137Y-126876176D01*
X68528000Y-126860633D01*
X68528000Y-125869367D01*
X68606137Y-125853824D01*
X68701681Y-125814249D01*
X68787668Y-125756794D01*
X68860794Y-125683668D01*
X68918249Y-125597681D01*
X68957824Y-125502137D01*
X68978000Y-125400708D01*
X68978000Y-125297292D01*
X70468000Y-125297292D01*
X70468000Y-125400708D01*
X70488176Y-125502137D01*
X70527751Y-125597681D01*
X70585206Y-125683668D01*
X70658332Y-125756794D01*
X70744319Y-125814249D01*
X70839863Y-125853824D01*
X70941292Y-125874000D01*
X71044708Y-125874000D01*
X71146137Y-125853824D01*
X71241681Y-125814249D01*
X71327668Y-125756794D01*
X71400794Y-125683668D01*
X71458249Y-125597681D01*
X71497824Y-125502137D01*
X71518000Y-125400708D01*
X71518000Y-125360792D01*
X72855500Y-125360792D01*
X72855500Y-125464208D01*
X72875676Y-125565637D01*
X72915251Y-125661181D01*
X72972706Y-125747168D01*
X73045832Y-125820294D01*
X73131819Y-125877749D01*
X73227363Y-125917324D01*
X73328792Y-125937500D01*
X73432208Y-125937500D01*
X73533637Y-125917324D01*
X73629181Y-125877749D01*
X73715168Y-125820294D01*
X73788294Y-125747168D01*
X73845749Y-125661181D01*
X73885324Y-125565637D01*
X73905500Y-125464208D01*
X73905500Y-125360792D01*
X73885324Y-125259363D01*
X73845749Y-125163819D01*
X73788294Y-125077832D01*
X73715168Y-125004706D01*
X73629181Y-124947251D01*
X73533637Y-124907676D01*
X73432208Y-124887500D01*
X73328792Y-124887500D01*
X73227363Y-124907676D01*
X73131819Y-124947251D01*
X73045832Y-125004706D01*
X72972706Y-125077832D01*
X72915251Y-125163819D01*
X72875676Y-125259363D01*
X72855500Y-125360792D01*
X71518000Y-125360792D01*
X71518000Y-125297292D01*
X71497824Y-125195863D01*
X71458249Y-125100319D01*
X71400794Y-125014332D01*
X71327668Y-124941206D01*
X71241681Y-124883751D01*
X71146137Y-124844176D01*
X71044708Y-124824000D01*
X70941292Y-124824000D01*
X70839863Y-124844176D01*
X70744319Y-124883751D01*
X70658332Y-124941206D01*
X70585206Y-125014332D01*
X70527751Y-125100319D01*
X70488176Y-125195863D01*
X70468000Y-125297292D01*
X68978000Y-125297292D01*
X68957824Y-125195863D01*
X68918249Y-125100319D01*
X68860794Y-125014332D01*
X68787668Y-124941206D01*
X68701681Y-124883751D01*
X68606137Y-124844176D01*
X68528000Y-124828633D01*
X68528000Y-124535000D01*
X75534419Y-124535000D01*
X75538206Y-124540668D01*
G37*
X75538206Y-124540668D02*
X75611332Y-124613794D01*
X75697319Y-124671249D01*
X75792863Y-124710824D01*
X75894292Y-124731000D01*
X75997708Y-124731000D01*
X76099137Y-124710824D01*
X76194681Y-124671249D01*
X76280668Y-124613794D01*
X76353794Y-124540668D01*
X76357581Y-124535000D01*
X77610889Y-124535000D01*
X77600176Y-124560863D01*
X77580000Y-124662292D01*
X77580000Y-124765708D01*
X77600176Y-124867137D01*
X77639751Y-124962681D01*
X77697206Y-125048668D01*
X77770332Y-125121794D01*
X77856319Y-125179249D01*
X77951863Y-125218824D01*
X78053292Y-125239000D01*
X78156708Y-125239000D01*
X78258137Y-125218824D01*
X78353681Y-125179249D01*
X78439668Y-125121794D01*
X78512794Y-125048668D01*
X78570249Y-124962681D01*
X78609824Y-124867137D01*
X78614559Y-124843333D01*
X78688292Y-124858000D01*
X78791708Y-124858000D01*
X78893137Y-124837824D01*
X78988681Y-124798249D01*
X79074668Y-124740794D01*
X79147794Y-124667668D01*
X79205249Y-124581681D01*
X79224585Y-124535000D01*
X83237000Y-124535000D01*
X83237000Y-128929712D01*
X83065377Y-129000800D01*
X82943073Y-129082521D01*
X82927824Y-129005863D01*
X82888249Y-128910319D01*
X82830794Y-128824332D01*
X82757668Y-128751206D01*
X82671681Y-128693751D01*
X82576137Y-128654176D01*
X82474708Y-128634000D01*
X82371292Y-128634000D01*
X82269863Y-128654176D01*
X82174319Y-128693751D01*
X82088332Y-128751206D01*
X82015206Y-128824332D01*
X81957751Y-128910319D01*
X81918176Y-129005863D01*
X81902927Y-129082521D01*
X81780623Y-129000800D01*
X81539488Y-128900919D01*
X81283501Y-128850000D01*
X81022499Y-128850000D01*
X80766512Y-128900919D01*
X80525377Y-129000800D01*
X80403073Y-129082521D01*
X80387824Y-129005863D01*
X80348249Y-128910319D01*
X80290794Y-128824332D01*
X80217668Y-128751206D01*
X80131681Y-128693751D01*
X80036137Y-128654176D01*
X79934708Y-128634000D01*
X79831292Y-128634000D01*
X79729863Y-128654176D01*
X79634319Y-128693751D01*
X79548332Y-128751206D01*
X79475206Y-128824332D01*
X79417751Y-128910319D01*
X79378176Y-129005863D01*
X79362927Y-129082521D01*
X79240623Y-129000800D01*
X78999488Y-128900919D01*
X78743501Y-128850000D01*
X78482499Y-128850000D01*
X78226512Y-128900919D01*
X77985377Y-129000800D01*
X77863073Y-129082521D01*
X77847824Y-129005863D01*
X77808249Y-128910319D01*
X77750794Y-128824332D01*
X77677668Y-128751206D01*
X77591681Y-128693751D01*
X77496137Y-128654176D01*
X77394708Y-128634000D01*
X77291292Y-128634000D01*
X77189863Y-128654176D01*
X77094319Y-128693751D01*
X77008332Y-128751206D01*
X76935206Y-128824332D01*
X76877751Y-128910319D01*
X76838176Y-129005863D01*
X76822927Y-129082521D01*
X76700623Y-129000800D01*
X76459488Y-128900919D01*
X76203501Y-128850000D01*
X75942499Y-128850000D01*
X75686512Y-128900919D01*
X75445377Y-129000800D01*
X75311923Y-129089971D01*
X75307824Y-129069363D01*
X75268249Y-128973819D01*
X75210794Y-128887832D01*
X75137668Y-128814706D01*
X75051681Y-128757251D01*
X74956137Y-128717676D01*
X74854708Y-128697500D01*
X74751292Y-128697500D01*
X74649863Y-128717676D01*
X74554319Y-128757251D01*
X74468332Y-128814706D01*
X74395206Y-128887832D01*
X74337751Y-128973819D01*
X74298176Y-129069363D01*
X74294077Y-129089971D01*
X74160623Y-129000800D01*
X73919488Y-128900919D01*
X73663501Y-128850000D01*
X73402499Y-128850000D01*
X73146512Y-128900919D01*
X72905377Y-129000800D01*
X72688362Y-129145805D01*
X72503805Y-129330362D01*
X72358800Y-129547377D01*
X72260762Y-129784063D01*
X72193336Y-129598937D01*
X72138850Y-129497001D01*
X71969838Y-129374938D01*
X71169777Y-130175000D01*
X71969838Y-130975062D01*
X72138850Y-130852999D01*
X72249104Y-130616428D01*
X72261193Y-130566978D01*
X72358800Y-130802623D01*
X72503805Y-131019638D01*
X72654167Y-131170000D01*
X71779945Y-131170000D01*
X71793062Y-131151838D01*
X70993000Y-130351777D01*
X70192938Y-131151838D01*
X70206055Y-131170000D01*
X69331833Y-131170000D01*
X69482195Y-131019638D01*
X69627200Y-130802623D01*
X69725238Y-130565937D01*
X69792664Y-130751063D01*
X69847150Y-130852999D01*
X70016162Y-130975062D01*
X70816223Y-130175000D01*
X70016162Y-129374938D01*
X69847150Y-129497001D01*
X69736896Y-129733572D01*
X69724807Y-129783022D01*
X69627200Y-129547377D01*
X69482195Y-129330362D01*
X69349995Y-129198162D01*
X70192938Y-129198162D01*
X70993000Y-129998223D01*
X71793062Y-129198162D01*
X71670999Y-129029150D01*
X71434428Y-128918896D01*
X71180892Y-128856913D01*
X70920136Y-128845583D01*
X70662180Y-128885343D01*
X70416937Y-128974664D01*
X70315001Y-129029150D01*
X70192938Y-129198162D01*
X69349995Y-129198162D01*
X69297638Y-129145805D01*
X69080623Y-129000800D01*
X68839488Y-128900919D01*
X68583501Y-128850000D01*
X68528000Y-128850000D01*
X68528000Y-127901367D01*
X68606137Y-127885824D01*
X68701681Y-127846249D01*
X68787668Y-127788794D01*
X68860794Y-127715668D01*
X68918249Y-127629681D01*
X68957824Y-127534137D01*
X68978000Y-127432708D01*
X68978000Y-127329292D01*
X70468000Y-127329292D01*
X70468000Y-127432708D01*
X70488176Y-127534137D01*
X70527751Y-127629681D01*
X70585206Y-127715668D01*
X70658332Y-127788794D01*
X70744319Y-127846249D01*
X70839863Y-127885824D01*
X70941292Y-127906000D01*
X71044708Y-127906000D01*
X71146137Y-127885824D01*
X71241681Y-127846249D01*
X71327668Y-127788794D01*
X71400794Y-127715668D01*
X71458249Y-127629681D01*
X71497824Y-127534137D01*
X71518000Y-127432708D01*
X71518000Y-127329292D01*
X71505369Y-127265792D01*
X73579500Y-127265792D01*
X73579500Y-127369208D01*
X73599676Y-127470637D01*
X73639251Y-127566181D01*
X73696706Y-127652168D01*
X73769832Y-127725294D01*
X73855819Y-127782749D01*
X73951363Y-127822324D01*
X74052792Y-127842500D01*
X74156208Y-127842500D01*
X74257637Y-127822324D01*
X74353181Y-127782749D01*
X74439168Y-127725294D01*
X74512294Y-127652168D01*
X74569749Y-127566181D01*
X74609324Y-127470637D01*
X74629500Y-127369208D01*
X74629500Y-127265792D01*
X75167000Y-127265792D01*
X75167000Y-127369208D01*
X75187176Y-127470637D01*
X75226751Y-127566181D01*
X75284206Y-127652168D01*
X75357332Y-127725294D01*
X75443319Y-127782749D01*
X75538863Y-127822324D01*
X75640292Y-127842500D01*
X75743708Y-127842500D01*
X75845137Y-127822324D01*
X75940681Y-127782749D01*
X76026668Y-127725294D01*
X76099794Y-127652168D01*
X76157249Y-127566181D01*
X76196824Y-127470637D01*
X76217000Y-127369208D01*
X76217000Y-127265792D01*
X76196824Y-127164363D01*
X76157249Y-127068819D01*
X76099794Y-126982832D01*
X76065254Y-126948292D01*
X77199000Y-126948292D01*
X77199000Y-127051708D01*
X77219176Y-127153137D01*
X77258751Y-127248681D01*
X77316206Y-127334668D01*
X77389332Y-127407794D01*
X77475319Y-127465249D01*
X77570863Y-127504824D01*
X77672292Y-127525000D01*
X77775708Y-127525000D01*
X77877137Y-127504824D01*
X77972681Y-127465249D01*
X78058668Y-127407794D01*
X78131794Y-127334668D01*
X78189249Y-127248681D01*
X78228824Y-127153137D01*
X78249000Y-127051708D01*
X78249000Y-126948292D01*
X78228824Y-126846863D01*
X78189249Y-126751319D01*
X78131794Y-126665332D01*
X78058668Y-126592206D01*
X77972681Y-126534751D01*
X77877137Y-126495176D01*
X77775708Y-126475000D01*
X77672292Y-126475000D01*
X77570863Y-126495176D01*
X77475319Y-126534751D01*
X77389332Y-126592206D01*
X77316206Y-126665332D01*
X77258751Y-126751319D01*
X77219176Y-126846863D01*
X77199000Y-126948292D01*
X76065254Y-126948292D01*
X76026668Y-126909706D01*
X75940681Y-126852251D01*
X75845137Y-126812676D01*
X75743708Y-126792500D01*
X75640292Y-126792500D01*
X75538863Y-126812676D01*
X75443319Y-126852251D01*
X75357332Y-126909706D01*
X75284206Y-126982832D01*
X75226751Y-127068819D01*
X75187176Y-127164363D01*
X75167000Y-127265792D01*
X74629500Y-127265792D01*
X74609324Y-127164363D01*
X74569749Y-127068819D01*
X74512294Y-126982832D01*
X74439168Y-126909706D01*
X74353181Y-126852251D01*
X74257637Y-126812676D01*
X74156208Y-126792500D01*
X74052792Y-126792500D01*
X73951363Y-126812676D01*
X73855819Y-126852251D01*
X73769832Y-126909706D01*
X73696706Y-126982832D01*
X73639251Y-127068819D01*
X73599676Y-127164363D01*
X73579500Y-127265792D01*
X71505369Y-127265792D01*
X71497824Y-127227863D01*
X71458249Y-127132319D01*
X71400794Y-127046332D01*
X71327668Y-126973206D01*
X71241681Y-126915751D01*
X71146137Y-126876176D01*
X71044708Y-126856000D01*
X70941292Y-126856000D01*
X70839863Y-126876176D01*
X70744319Y-126915751D01*
X70658332Y-126973206D01*
X70585206Y-127046332D01*
X70527751Y-127132319D01*
X70488176Y-127227863D01*
X70468000Y-127329292D01*
X68978000Y-127329292D01*
X68957824Y-127227863D01*
X68918249Y-127132319D01*
X68860794Y-127046332D01*
X68787668Y-126973206D01*
X68701681Y-126915751D01*
X68606137Y-126876176D01*
X68528000Y-126860633D01*
X68528000Y-125869367D01*
X68606137Y-125853824D01*
X68701681Y-125814249D01*
X68787668Y-125756794D01*
X68860794Y-125683668D01*
X68918249Y-125597681D01*
X68957824Y-125502137D01*
X68978000Y-125400708D01*
X68978000Y-125297292D01*
X70468000Y-125297292D01*
X70468000Y-125400708D01*
X70488176Y-125502137D01*
X70527751Y-125597681D01*
X70585206Y-125683668D01*
X70658332Y-125756794D01*
X70744319Y-125814249D01*
X70839863Y-125853824D01*
X70941292Y-125874000D01*
X71044708Y-125874000D01*
X71146137Y-125853824D01*
X71241681Y-125814249D01*
X71327668Y-125756794D01*
X71400794Y-125683668D01*
X71458249Y-125597681D01*
X71497824Y-125502137D01*
X71518000Y-125400708D01*
X71518000Y-125360792D01*
X72855500Y-125360792D01*
X72855500Y-125464208D01*
X72875676Y-125565637D01*
X72915251Y-125661181D01*
X72972706Y-125747168D01*
X73045832Y-125820294D01*
X73131819Y-125877749D01*
X73227363Y-125917324D01*
X73328792Y-125937500D01*
X73432208Y-125937500D01*
X73533637Y-125917324D01*
X73629181Y-125877749D01*
X73715168Y-125820294D01*
X73788294Y-125747168D01*
X73845749Y-125661181D01*
X73885324Y-125565637D01*
X73905500Y-125464208D01*
X73905500Y-125360792D01*
X73885324Y-125259363D01*
X73845749Y-125163819D01*
X73788294Y-125077832D01*
X73715168Y-125004706D01*
X73629181Y-124947251D01*
X73533637Y-124907676D01*
X73432208Y-124887500D01*
X73328792Y-124887500D01*
X73227363Y-124907676D01*
X73131819Y-124947251D01*
X73045832Y-125004706D01*
X72972706Y-125077832D01*
X72915251Y-125163819D01*
X72875676Y-125259363D01*
X72855500Y-125360792D01*
X71518000Y-125360792D01*
X71518000Y-125297292D01*
X71497824Y-125195863D01*
X71458249Y-125100319D01*
X71400794Y-125014332D01*
X71327668Y-124941206D01*
X71241681Y-124883751D01*
X71146137Y-124844176D01*
X71044708Y-124824000D01*
X70941292Y-124824000D01*
X70839863Y-124844176D01*
X70744319Y-124883751D01*
X70658332Y-124941206D01*
X70585206Y-125014332D01*
X70527751Y-125100319D01*
X70488176Y-125195863D01*
X70468000Y-125297292D01*
X68978000Y-125297292D01*
X68957824Y-125195863D01*
X68918249Y-125100319D01*
X68860794Y-125014332D01*
X68787668Y-124941206D01*
X68701681Y-124883751D01*
X68606137Y-124844176D01*
X68528000Y-124828633D01*
X68528000Y-124535000D01*
X75534419Y-124535000D01*
X75538206Y-124540668D01*
G36*
X77438800Y-115562623D02*
G01*
X77583805Y-115779638D01*
X77768362Y-115964195D01*
X77985377Y-116109200D01*
X78226512Y-116209081D01*
X78482499Y-116260000D01*
X78743501Y-116260000D01*
X78999488Y-116209081D01*
X79240623Y-116109200D01*
X79397977Y-116004060D01*
X79378176Y-116051863D01*
X79358000Y-116153292D01*
X79358000Y-116256708D01*
X79378176Y-116358137D01*
X79417751Y-116453681D01*
X79475206Y-116539668D01*
X79548332Y-116612794D01*
X79634319Y-116670249D01*
X79729863Y-116709824D01*
X79831292Y-116730000D01*
X79934708Y-116730000D01*
X80036137Y-116709824D01*
X80131681Y-116670249D01*
X80217668Y-116612794D01*
X80290794Y-116539668D01*
X80348249Y-116453681D01*
X80387824Y-116358137D01*
X80408000Y-116256708D01*
X80408000Y-116153292D01*
X80387824Y-116051863D01*
X80368023Y-116004060D01*
X80525377Y-116109200D01*
X80766512Y-116209081D01*
X81022499Y-116260000D01*
X81283501Y-116260000D01*
X81539488Y-116209081D01*
X81780623Y-116109200D01*
X81937977Y-116004060D01*
X81918176Y-116051863D01*
X81898000Y-116153292D01*
X81898000Y-116256708D01*
X81918176Y-116358137D01*
X81957751Y-116453681D01*
X82015206Y-116539668D01*
X82088332Y-116612794D01*
X82174319Y-116670249D01*
X82269863Y-116709824D01*
X82371292Y-116730000D01*
X82474708Y-116730000D01*
X82576137Y-116709824D01*
X82671681Y-116670249D01*
X82757668Y-116612794D01*
X82830794Y-116539668D01*
X82888249Y-116453681D01*
X82927824Y-116358137D01*
X82948000Y-116256708D01*
X82948000Y-116153292D01*
X82927824Y-116051863D01*
X82908023Y-116004060D01*
X83065377Y-116109200D01*
X83306512Y-116209081D01*
X83562499Y-116260000D01*
X83823501Y-116260000D01*
X84079488Y-116209081D01*
X84320623Y-116109200D01*
X84477977Y-116004060D01*
X84458176Y-116051863D01*
X84438000Y-116153292D01*
X84438000Y-116256708D01*
X84458176Y-116358137D01*
X84497751Y-116453681D01*
X84555206Y-116539668D01*
X84628332Y-116612794D01*
X84714319Y-116670249D01*
X84809863Y-116709824D01*
X84911292Y-116730000D01*
X85014708Y-116730000D01*
X85116137Y-116709824D01*
X85211681Y-116670249D01*
X85297668Y-116612794D01*
X85370794Y-116539668D01*
X85428249Y-116453681D01*
X85467824Y-116358137D01*
X85488000Y-116256708D01*
X85488000Y-116153292D01*
X85467824Y-116051863D01*
X85448023Y-116004060D01*
X85605377Y-116109200D01*
X85846512Y-116209081D01*
X86102499Y-116260000D01*
X86363501Y-116260000D01*
X86619488Y-116209081D01*
X86860623Y-116109200D01*
X87017977Y-116004060D01*
X86998176Y-116051863D01*
X86978000Y-116153292D01*
X86978000Y-116256708D01*
X86998176Y-116358137D01*
X87037751Y-116453681D01*
X87095206Y-116539668D01*
X87168332Y-116612794D01*
X87254319Y-116670249D01*
X87349863Y-116709824D01*
X87451292Y-116730000D01*
X87554708Y-116730000D01*
X87656137Y-116709824D01*
X87751681Y-116670249D01*
X87837668Y-116612794D01*
X87910794Y-116539668D01*
X87968249Y-116453681D01*
X88007824Y-116358137D01*
X88028000Y-116256708D01*
X88028000Y-116153292D01*
X88007824Y-116051863D01*
X87988023Y-116004060D01*
X88145377Y-116109200D01*
X88386512Y-116209081D01*
X88642499Y-116260000D01*
X88903501Y-116260000D01*
X89159488Y-116209081D01*
X89400623Y-116109200D01*
X89617638Y-115964195D01*
X89768001Y-115813832D01*
X89768000Y-129296167D01*
X89617638Y-129145805D01*
X89400623Y-129000800D01*
X89159488Y-128900919D01*
X88903501Y-128850000D01*
X88642499Y-128850000D01*
X88386512Y-128900919D01*
X88145377Y-129000800D01*
X87974197Y-129115179D01*
X87968249Y-129100819D01*
X87910794Y-129014832D01*
X87837668Y-128941706D01*
X87751681Y-128884251D01*
X87656137Y-128844676D01*
X87554708Y-128824500D01*
X87451292Y-128824500D01*
X87349863Y-128844676D01*
X87254319Y-128884251D01*
X87168332Y-128941706D01*
X87095206Y-129014832D01*
X87037751Y-129100819D01*
X87031803Y-129115179D01*
X86860623Y-129000800D01*
X86619488Y-128900919D01*
X86363501Y-128850000D01*
X86102499Y-128850000D01*
X85846512Y-128900919D01*
X85605377Y-129000800D01*
X85483073Y-129082521D01*
X85467824Y-129005863D01*
X85428249Y-128910319D01*
X85381092Y-128839744D01*
X85521592Y-128787983D01*
X85611332Y-128740016D01*
X85727353Y-128576129D01*
X84963000Y-127811777D01*
X84198647Y-128576129D01*
X84314668Y-128740016D01*
X84541568Y-128844742D01*
X84497751Y-128910319D01*
X84458176Y-129005863D01*
X84442927Y-129082521D01*
X84320623Y-129000800D01*
X84079488Y-128900919D01*
X83823501Y-128850000D01*
X83587000Y-128850000D01*
X83587000Y-127709844D01*
X83684019Y-127709844D01*
X83723196Y-127957923D01*
X83810017Y-128193592D01*
X83857984Y-128283332D01*
X84021871Y-128399353D01*
X84786223Y-127635000D01*
X85139777Y-127635000D01*
X85904129Y-128399353D01*
X86068016Y-128283332D01*
X86173266Y-128055296D01*
X86232007Y-127811110D01*
X86241981Y-127560156D01*
X86202804Y-127312077D01*
X86115983Y-127076408D01*
X86068016Y-126986668D01*
X86013808Y-126948292D01*
X87613000Y-126948292D01*
X87613000Y-127051708D01*
X87633176Y-127153137D01*
X87672751Y-127248681D01*
X87730206Y-127334668D01*
X87803332Y-127407794D01*
X87889319Y-127465249D01*
X87984863Y-127504824D01*
X88086292Y-127525000D01*
X88189708Y-127525000D01*
X88291137Y-127504824D01*
X88386681Y-127465249D01*
X88472668Y-127407794D01*
X88545794Y-127334668D01*
X88603249Y-127248681D01*
X88642824Y-127153137D01*
X88663000Y-127051708D01*
X88663000Y-126948292D01*
X88642824Y-126846863D01*
X88603249Y-126751319D01*
X88545794Y-126665332D01*
X88472668Y-126592206D01*
X88386681Y-126534751D01*
X88291137Y-126495176D01*
X88189708Y-126475000D01*
X88086292Y-126475000D01*
X87984863Y-126495176D01*
X87889319Y-126534751D01*
X87803332Y-126592206D01*
X87730206Y-126665332D01*
X87672751Y-126751319D01*
X87633176Y-126846863D01*
X87613000Y-126948292D01*
X86013808Y-126948292D01*
X85904129Y-126870647D01*
X85139777Y-127635000D01*
X84786223Y-127635000D01*
X84021871Y-126870647D01*
X83857984Y-126986668D01*
X83752734Y-127214704D01*
X83693993Y-127458890D01*
X83684019Y-127709844D01*
X83587000Y-127709844D01*
X83587000Y-126307169D01*
X83608751Y-126359681D01*
X83666206Y-126445668D01*
X83739332Y-126518794D01*
X83825319Y-126576249D01*
X83920863Y-126615824D01*
X84022292Y-126636000D01*
X84125708Y-126636000D01*
X84227137Y-126615824D01*
X84265002Y-126600140D01*
X84198647Y-126693871D01*
X84963000Y-127458223D01*
X85727353Y-126693871D01*
X85611332Y-126529984D01*
X85383296Y-126424734D01*
X85139110Y-126365993D01*
X84888156Y-126356019D01*
X84640077Y-126395196D01*
X84469381Y-126458081D01*
X84481794Y-126445668D01*
X84539249Y-126359681D01*
X84578824Y-126264137D01*
X84599000Y-126162708D01*
X84599000Y-126059292D01*
X84578824Y-125957863D01*
X84539249Y-125862319D01*
X84481794Y-125776332D01*
X84408668Y-125703206D01*
X84371382Y-125678292D01*
X87613000Y-125678292D01*
X87613000Y-125781708D01*
X87633176Y-125883137D01*
X87672751Y-125978681D01*
X87730206Y-126064668D01*
X87803332Y-126137794D01*
X87889319Y-126195249D01*
X87984863Y-126234824D01*
X88086292Y-126255000D01*
X88189708Y-126255000D01*
X88291137Y-126234824D01*
X88386681Y-126195249D01*
X88472668Y-126137794D01*
X88545794Y-126064668D01*
X88603249Y-125978681D01*
X88642824Y-125883137D01*
X88663000Y-125781708D01*
X88663000Y-125678292D01*
X88642824Y-125576863D01*
X88603249Y-125481319D01*
X88545794Y-125395332D01*
X88472668Y-125322206D01*
X88386681Y-125264751D01*
X88291137Y-125225176D01*
X88189708Y-125205000D01*
X88086292Y-125205000D01*
X87984863Y-125225176D01*
X87889319Y-125264751D01*
X87803332Y-125322206D01*
X87730206Y-125395332D01*
X87672751Y-125481319D01*
X87633176Y-125576863D01*
X87613000Y-125678292D01*
X84371382Y-125678292D01*
X84322681Y-125645751D01*
X84227137Y-125606176D01*
X84125708Y-125586000D01*
X84022292Y-125586000D01*
X83920863Y-125606176D01*
X83825319Y-125645751D01*
X83739332Y-125703206D01*
X83666206Y-125776332D01*
X83608751Y-125862319D01*
X83587000Y-125914831D01*
X83587000Y-124460000D01*
X83581716Y-124406350D01*
X83566067Y-124354762D01*
X83540654Y-124307218D01*
X83506454Y-124265546D01*
X83464782Y-124231346D01*
X83417238Y-124205933D01*
X83365650Y-124190284D01*
X83312000Y-124185000D01*
X79245846Y-124185000D01*
X79244824Y-124179863D01*
X79230655Y-124145655D01*
X79264863Y-124159824D01*
X79366292Y-124180000D01*
X79469708Y-124180000D01*
X79571137Y-124159824D01*
X79666681Y-124120249D01*
X79752668Y-124062794D01*
X79825794Y-123989668D01*
X79883249Y-123903681D01*
X79922824Y-123808137D01*
X79943000Y-123706708D01*
X79943000Y-123603292D01*
X79993000Y-123603292D01*
X79993000Y-123706708D01*
X80013176Y-123808137D01*
X80052751Y-123903681D01*
X80110206Y-123989668D01*
X80183332Y-124062794D01*
X80269319Y-124120249D01*
X80364863Y-124159824D01*
X80466292Y-124180000D01*
X80569708Y-124180000D01*
X80671137Y-124159824D01*
X80766681Y-124120249D01*
X80852668Y-124062794D01*
X80925794Y-123989668D01*
X80983249Y-123903681D01*
X81022824Y-123808137D01*
X81043000Y-123706708D01*
X81043000Y-123603292D01*
X81093000Y-123603292D01*
X81093000Y-123706708D01*
X81113176Y-123808137D01*
X81152751Y-123903681D01*
X81210206Y-123989668D01*
X81283332Y-124062794D01*
X81369319Y-124120249D01*
X81464863Y-124159824D01*
X81566292Y-124180000D01*
X81669708Y-124180000D01*
X81771137Y-124159824D01*
X81866681Y-124120249D01*
X81952668Y-124062794D01*
X81988170Y-124027292D01*
X83549000Y-124027292D01*
X83549000Y-124130708D01*
X83569176Y-124232137D01*
X83608751Y-124327681D01*
X83666206Y-124413668D01*
X83739332Y-124486794D01*
X83825319Y-124544249D01*
X83920863Y-124583824D01*
X84022292Y-124604000D01*
X84125708Y-124604000D01*
X84134891Y-124602173D01*
X84072442Y-124695635D01*
X84029097Y-124800279D01*
X84007000Y-124911367D01*
X84007000Y-125024633D01*
X84029097Y-125135721D01*
X84072442Y-125240365D01*
X84135368Y-125334541D01*
X84215459Y-125414632D01*
X84309635Y-125477558D01*
X84414279Y-125520903D01*
X84525367Y-125543000D01*
X84638633Y-125543000D01*
X84749721Y-125520903D01*
X84854365Y-125477558D01*
X84948541Y-125414632D01*
X85028632Y-125334541D01*
X85091558Y-125240365D01*
X85134903Y-125135721D01*
X85157000Y-125024633D01*
X85157000Y-124911367D01*
X85134903Y-124800279D01*
X85091558Y-124695635D01*
X85028632Y-124601459D01*
X84973616Y-124546443D01*
X85063863Y-124583824D01*
X85165292Y-124604000D01*
X85268708Y-124604000D01*
X85370137Y-124583824D01*
X85465681Y-124544249D01*
X85551668Y-124486794D01*
X85624794Y-124413668D01*
X85682249Y-124327681D01*
X85721824Y-124232137D01*
X85742000Y-124130708D01*
X85742000Y-124027292D01*
X85721824Y-123925863D01*
X85682249Y-123830319D01*
X85624794Y-123744332D01*
X85551668Y-123671206D01*
X85465681Y-123613751D01*
X85370137Y-123574176D01*
X85268708Y-123554000D01*
X85165292Y-123554000D01*
X85063863Y-123574176D01*
X84968319Y-123613751D01*
X84882332Y-123671206D01*
X84809206Y-123744332D01*
X84751751Y-123830319D01*
X84712176Y-123925863D01*
X84692000Y-124027292D01*
X84692000Y-124130708D01*
X84712176Y-124232137D01*
X84751751Y-124327681D01*
X84809206Y-124413668D01*
X84853708Y-124458170D01*
X84749721Y-124415097D01*
X84638633Y-124393000D01*
X84525367Y-124393000D01*
X84491042Y-124399828D01*
X84539249Y-124327681D01*
X84578824Y-124232137D01*
X84599000Y-124130708D01*
X84599000Y-124027292D01*
X84578824Y-123925863D01*
X84539249Y-123830319D01*
X84481794Y-123744332D01*
X84408668Y-123671206D01*
X84322681Y-123613751D01*
X84227137Y-123574176D01*
X84125708Y-123554000D01*
X84022292Y-123554000D01*
X83920863Y-123574176D01*
X83825319Y-123613751D01*
X83739332Y-123671206D01*
X83666206Y-123744332D01*
X83608751Y-123830319D01*
X83569176Y-123925863D01*
X83549000Y-124027292D01*
X81988170Y-124027292D01*
X82025794Y-123989668D01*
X82083249Y-123903681D01*
X82122824Y-123808137D01*
X82143000Y-123706708D01*
X82143000Y-123603292D01*
X82122824Y-123501863D01*
X82083249Y-123406319D01*
X82025794Y-123320332D01*
X81952668Y-123247206D01*
X81866681Y-123189751D01*
X81771137Y-123150176D01*
X81669708Y-123130000D01*
X81566292Y-123130000D01*
X81464863Y-123150176D01*
X81369319Y-123189751D01*
X81283332Y-123247206D01*
X81210206Y-123320332D01*
X81152751Y-123406319D01*
X81113176Y-123501863D01*
X81093000Y-123603292D01*
X81043000Y-123603292D01*
X81022824Y-123501863D01*
X80983249Y-123406319D01*
X80925794Y-123320332D01*
X80852668Y-123247206D01*
X80766681Y-123189751D01*
X80671137Y-123150176D01*
X80569708Y-123130000D01*
X80466292Y-123130000D01*
X80364863Y-123150176D01*
X80269319Y-123189751D01*
X80183332Y-123247206D01*
X80110206Y-123320332D01*
X80052751Y-123406319D01*
X80013176Y-123501863D01*
X79993000Y-123603292D01*
X79943000Y-123603292D01*
X79922824Y-123501863D01*
X79883249Y-123406319D01*
X79825794Y-123320332D01*
X79752668Y-123247206D01*
X79666681Y-123189751D01*
X79571137Y-123150176D01*
X79469708Y-123130000D01*
X79366292Y-123130000D01*
X79264863Y-123150176D01*
X79169319Y-123189751D01*
X79083332Y-123247206D01*
X79010206Y-123320332D01*
X78952751Y-123406319D01*
X78913176Y-123501863D01*
X78893000Y-123603292D01*
X78893000Y-123706708D01*
X78913176Y-123808137D01*
X78927345Y-123842345D01*
X78893137Y-123828176D01*
X78791708Y-123808000D01*
X78688292Y-123808000D01*
X78586863Y-123828176D01*
X78491319Y-123867751D01*
X78405332Y-123925206D01*
X78332206Y-123998332D01*
X78274751Y-124084319D01*
X78235176Y-124179863D01*
X78234154Y-124185000D01*
X76471000Y-124185000D01*
X76471000Y-124154292D01*
X76450824Y-124052863D01*
X76411249Y-123957319D01*
X76353794Y-123871332D01*
X76280668Y-123798206D01*
X76194681Y-123740751D01*
X76099137Y-123701176D01*
X75997708Y-123681000D01*
X75894292Y-123681000D01*
X75792863Y-123701176D01*
X75697319Y-123740751D01*
X75611332Y-123798206D01*
X75538206Y-123871332D01*
X75480751Y-123957319D01*
X75441176Y-124052863D01*
X75421000Y-124154292D01*
X75421000Y-124185000D01*
X68453000Y-124185000D01*
X68399350Y-124190284D01*
X68347762Y-124205933D01*
X68300218Y-124231346D01*
X68258546Y-124265546D01*
X68224346Y-124307218D01*
X68198933Y-124354762D01*
X68183284Y-124406350D01*
X68178000Y-124460000D01*
X68178000Y-124901337D01*
X68118332Y-124941206D01*
X68045206Y-125014332D01*
X67987751Y-125100319D01*
X67948176Y-125195863D01*
X67928000Y-125297292D01*
X67928000Y-125400708D01*
X67948176Y-125502137D01*
X67987751Y-125597681D01*
X68045206Y-125683668D01*
X68118332Y-125756794D01*
X68178000Y-125796663D01*
X68178000Y-126933337D01*
X68118332Y-126973206D01*
X68045206Y-127046332D01*
X67987751Y-127132319D01*
X67948176Y-127227863D01*
X67928000Y-127329292D01*
X67928000Y-127432708D01*
X67948176Y-127534137D01*
X67987751Y-127629681D01*
X68045206Y-127715668D01*
X68118332Y-127788794D01*
X68178000Y-127828663D01*
X68178000Y-128878743D01*
X68066512Y-128900919D01*
X67825377Y-129000800D01*
X67608362Y-129145805D01*
X67423805Y-129330362D01*
X67278800Y-129547377D01*
X67183000Y-129778660D01*
X67087200Y-129547377D01*
X66942195Y-129330362D01*
X66757638Y-129145805D01*
X66540623Y-129000800D01*
X66299488Y-128900919D01*
X66043501Y-128850000D01*
X65782499Y-128850000D01*
X65526512Y-128900919D01*
X65285377Y-129000800D01*
X65068362Y-129145805D01*
X64883805Y-129330362D01*
X64738800Y-129547377D01*
X64643000Y-129778660D01*
X64547200Y-129547377D01*
X64402195Y-129330362D01*
X64217638Y-129145805D01*
X64000623Y-129000800D01*
X63759488Y-128900919D01*
X63503501Y-128850000D01*
X63242499Y-128850000D01*
X62986512Y-128900919D01*
X62745377Y-129000800D01*
X62528362Y-129145805D01*
X62378000Y-129296167D01*
X62378000Y-127583292D01*
X62848000Y-127583292D01*
X62848000Y-127686708D01*
X62868176Y-127788137D01*
X62907751Y-127883681D01*
X62965206Y-127969668D01*
X63038332Y-128042794D01*
X63124319Y-128100249D01*
X63219863Y-128139824D01*
X63321292Y-128160000D01*
X63424708Y-128160000D01*
X63526137Y-128139824D01*
X63621681Y-128100249D01*
X63707668Y-128042794D01*
X63780794Y-127969668D01*
X63838249Y-127883681D01*
X63877824Y-127788137D01*
X63898000Y-127686708D01*
X63898000Y-127583292D01*
X63877824Y-127481863D01*
X63838249Y-127386319D01*
X63780794Y-127300332D01*
X63707668Y-127227206D01*
X63621681Y-127169751D01*
X63526137Y-127130176D01*
X63424708Y-127110000D01*
X63321292Y-127110000D01*
X63219863Y-127130176D01*
X63124319Y-127169751D01*
X63038332Y-127227206D01*
X62965206Y-127300332D01*
X62907751Y-127386319D01*
X62868176Y-127481863D01*
X62848000Y-127583292D01*
X62378000Y-127583292D01*
X62378000Y-123773292D01*
X62848000Y-123773292D01*
X62848000Y-123876708D01*
X62868176Y-123978137D01*
X62907751Y-124073681D01*
X62965206Y-124159668D01*
X63038332Y-124232794D01*
X63124319Y-124290249D01*
X63219863Y-124329824D01*
X63321292Y-124350000D01*
X63424708Y-124350000D01*
X63526137Y-124329824D01*
X63621681Y-124290249D01*
X63707668Y-124232794D01*
X63780794Y-124159668D01*
X63838249Y-124073681D01*
X63877824Y-123978137D01*
X63898000Y-123876708D01*
X63898000Y-123773292D01*
X65388000Y-123773292D01*
X65388000Y-123876708D01*
X65408176Y-123978137D01*
X65447751Y-124073681D01*
X65505206Y-124159668D01*
X65578332Y-124232794D01*
X65664319Y-124290249D01*
X65759863Y-124329824D01*
X65861292Y-124350000D01*
X65964708Y-124350000D01*
X66066137Y-124329824D01*
X66161681Y-124290249D01*
X66247668Y-124232794D01*
X66320794Y-124159668D01*
X66378249Y-124073681D01*
X66417824Y-123978137D01*
X66438000Y-123876708D01*
X66438000Y-123773292D01*
X66417824Y-123671863D01*
X66378249Y-123576319D01*
X66320794Y-123490332D01*
X66247668Y-123417206D01*
X66161681Y-123359751D01*
X66066137Y-123320176D01*
X65964708Y-123300000D01*
X65861292Y-123300000D01*
X65759863Y-123320176D01*
X65664319Y-123359751D01*
X65578332Y-123417206D01*
X65505206Y-123490332D01*
X65447751Y-123576319D01*
X65408176Y-123671863D01*
X65388000Y-123773292D01*
X63898000Y-123773292D01*
X63877824Y-123671863D01*
X63838249Y-123576319D01*
X63780794Y-123490332D01*
X63707668Y-123417206D01*
X63621681Y-123359751D01*
X63526137Y-123320176D01*
X63424708Y-123300000D01*
X63321292Y-123300000D01*
X63219863Y-123320176D01*
X63124319Y-123359751D01*
X63038332Y-123417206D01*
X62965206Y-123490332D01*
X62907751Y-123576319D01*
X62868176Y-123671863D01*
X62848000Y-123773292D01*
X62378000Y-123773292D01*
X62378000Y-122632754D01*
X75382500Y-122632754D01*
X75382500Y-122731246D01*
X75401715Y-122827845D01*
X75439406Y-122918839D01*
X75494125Y-123000731D01*
X75563769Y-123070375D01*
X75645661Y-123125094D01*
X75736655Y-123162785D01*
X75833254Y-123182000D01*
X75931746Y-123182000D01*
X76028345Y-123162785D01*
X76119339Y-123125094D01*
X76201231Y-123070375D01*
X76270875Y-123000731D01*
X76325594Y-122918839D01*
X76363285Y-122827845D01*
X76382500Y-122731246D01*
X76382500Y-122632754D01*
X76363285Y-122536155D01*
X76349673Y-122503292D01*
X78893000Y-122503292D01*
X78893000Y-122606708D01*
X78913176Y-122708137D01*
X78952751Y-122803681D01*
X79010206Y-122889668D01*
X79083332Y-122962794D01*
X79169319Y-123020249D01*
X79264863Y-123059824D01*
X79366292Y-123080000D01*
X79469708Y-123080000D01*
X79571137Y-123059824D01*
X79666681Y-123020249D01*
X79752668Y-122962794D01*
X79825794Y-122889668D01*
X79883249Y-122803681D01*
X79922824Y-122708137D01*
X79943000Y-122606708D01*
X79943000Y-122503292D01*
X79993000Y-122503292D01*
X79993000Y-122606708D01*
X80013176Y-122708137D01*
X80052751Y-122803681D01*
X80110206Y-122889668D01*
X80183332Y-122962794D01*
X80269319Y-123020249D01*
X80364863Y-123059824D01*
X80466292Y-123080000D01*
X80569708Y-123080000D01*
X80671137Y-123059824D01*
X80766681Y-123020249D01*
X80852668Y-122962794D01*
X80925794Y-122889668D01*
X80983249Y-122803681D01*
X81022824Y-122708137D01*
X81043000Y-122606708D01*
X81043000Y-122503292D01*
X81093000Y-122503292D01*
X81093000Y-122606708D01*
X81113176Y-122708137D01*
X81152751Y-122803681D01*
X81210206Y-122889668D01*
X81283332Y-122962794D01*
X81369319Y-123020249D01*
X81464863Y-123059824D01*
X81566292Y-123080000D01*
X81669708Y-123080000D01*
X81771137Y-123059824D01*
X81866681Y-123020249D01*
X81952668Y-122962794D01*
X82025794Y-122889668D01*
X82083249Y-122803681D01*
X82122824Y-122708137D01*
X82143000Y-122606708D01*
X82143000Y-122503292D01*
X82122824Y-122401863D01*
X82083249Y-122306319D01*
X82025794Y-122220332D01*
X81952668Y-122147206D01*
X81866681Y-122089751D01*
X81771137Y-122050176D01*
X81669708Y-122030000D01*
X81566292Y-122030000D01*
X81464863Y-122050176D01*
X81369319Y-122089751D01*
X81283332Y-122147206D01*
X81210206Y-122220332D01*
X81152751Y-122306319D01*
X81113176Y-122401863D01*
X81093000Y-122503292D01*
X81043000Y-122503292D01*
X81022824Y-122401863D01*
X80983249Y-122306319D01*
X80925794Y-122220332D01*
X80852668Y-122147206D01*
X80766681Y-122089751D01*
X80671137Y-122050176D01*
X80569708Y-122030000D01*
X80466292Y-122030000D01*
X80364863Y-122050176D01*
X80269319Y-122089751D01*
X80183332Y-122147206D01*
X80110206Y-122220332D01*
X80052751Y-122306319D01*
X80013176Y-122401863D01*
X79993000Y-122503292D01*
X79943000Y-122503292D01*
X79922824Y-122401863D01*
X79883249Y-122306319D01*
X79825794Y-122220332D01*
X79752668Y-122147206D01*
X79666681Y-122089751D01*
X79571137Y-122050176D01*
X79469708Y-122030000D01*
X79366292Y-122030000D01*
X79264863Y-122050176D01*
X79169319Y-122089751D01*
X79083332Y-122147206D01*
X79010206Y-122220332D01*
X78952751Y-122306319D01*
X78913176Y-122401863D01*
X78893000Y-122503292D01*
X76349673Y-122503292D01*
X76325594Y-122445161D01*
X76270875Y-122363269D01*
X76201231Y-122293625D01*
X76119339Y-122238906D01*
X76028345Y-122201215D01*
X75931746Y-122182000D01*
X75833254Y-122182000D01*
X75736655Y-122201215D01*
X75645661Y-122238906D01*
X75563769Y-122293625D01*
X75494125Y-122363269D01*
X75439406Y-122445161D01*
X75401715Y-122536155D01*
X75382500Y-122632754D01*
X62378000Y-122632754D01*
X62378000Y-121868292D01*
X62848000Y-121868292D01*
X62848000Y-121971708D01*
X62868176Y-122073137D01*
X62907751Y-122168681D01*
X62965206Y-122254668D01*
X63038332Y-122327794D01*
X63124319Y-122385249D01*
X63219863Y-122424824D01*
X63321292Y-122445000D01*
X63424708Y-122445000D01*
X63526137Y-122424824D01*
X63621681Y-122385249D01*
X63707668Y-122327794D01*
X63780794Y-122254668D01*
X63838249Y-122168681D01*
X63877824Y-122073137D01*
X63898000Y-121971708D01*
X63898000Y-121868292D01*
X65388000Y-121868292D01*
X65388000Y-121971708D01*
X65408176Y-122073137D01*
X65447751Y-122168681D01*
X65505206Y-122254668D01*
X65578332Y-122327794D01*
X65664319Y-122385249D01*
X65759863Y-122424824D01*
X65861292Y-122445000D01*
X65964708Y-122445000D01*
X66066137Y-122424824D01*
X66161681Y-122385249D01*
X66247668Y-122327794D01*
X66320794Y-122254668D01*
X66378249Y-122168681D01*
X66417824Y-122073137D01*
X66438000Y-121971708D01*
X66438000Y-121868292D01*
X66417824Y-121766863D01*
X66378249Y-121671319D01*
X66320794Y-121585332D01*
X66247668Y-121512206D01*
X66161681Y-121454751D01*
X66066137Y-121415176D01*
X66006394Y-121403292D01*
X78893000Y-121403292D01*
X78893000Y-121506708D01*
X78913176Y-121608137D01*
X78952751Y-121703681D01*
X79010206Y-121789668D01*
X79083332Y-121862794D01*
X79169319Y-121920249D01*
X79264863Y-121959824D01*
X79366292Y-121980000D01*
X79469708Y-121980000D01*
X79571137Y-121959824D01*
X79666681Y-121920249D01*
X79752668Y-121862794D01*
X79825794Y-121789668D01*
X79883249Y-121703681D01*
X79922824Y-121608137D01*
X79943000Y-121506708D01*
X79943000Y-121403292D01*
X79993000Y-121403292D01*
X79993000Y-121506708D01*
X80013176Y-121608137D01*
X80052751Y-121703681D01*
X80110206Y-121789668D01*
X80183332Y-121862794D01*
X80269319Y-121920249D01*
X80364863Y-121959824D01*
X80466292Y-121980000D01*
X80569708Y-121980000D01*
X80671137Y-121959824D01*
X80766681Y-121920249D01*
X80852668Y-121862794D01*
X80925794Y-121789668D01*
X80983249Y-121703681D01*
X81022824Y-121608137D01*
X81043000Y-121506708D01*
X81043000Y-121403292D01*
X81093000Y-121403292D01*
X81093000Y-121506708D01*
X81113176Y-121608137D01*
X81152751Y-121703681D01*
X81210206Y-121789668D01*
X81283332Y-121862794D01*
X81369319Y-121920249D01*
X81464863Y-121959824D01*
X81566292Y-121980000D01*
X81669708Y-121980000D01*
X81771137Y-121959824D01*
X81866681Y-121920249D01*
X81952668Y-121862794D01*
X82025794Y-121789668D01*
X82083249Y-121703681D01*
X82122824Y-121608137D01*
X82143000Y-121506708D01*
X82143000Y-121403292D01*
X82122824Y-121301863D01*
X82083249Y-121206319D01*
X82025794Y-121120332D01*
X81952668Y-121047206D01*
X81866681Y-120989751D01*
X81771137Y-120950176D01*
X81669708Y-120930000D01*
X81566292Y-120930000D01*
X81464863Y-120950176D01*
X81369319Y-120989751D01*
X81283332Y-121047206D01*
X81210206Y-121120332D01*
X81152751Y-121206319D01*
X81113176Y-121301863D01*
X81093000Y-121403292D01*
X81043000Y-121403292D01*
X81022824Y-121301863D01*
X80983249Y-121206319D01*
X80925794Y-121120332D01*
X80852668Y-121047206D01*
X80766681Y-120989751D01*
X80671137Y-120950176D01*
X80569708Y-120930000D01*
X80466292Y-120930000D01*
X80364863Y-120950176D01*
X80269319Y-120989751D01*
X80183332Y-121047206D01*
X80110206Y-121120332D01*
X80052751Y-121206319D01*
X80013176Y-121301863D01*
X79993000Y-121403292D01*
X79943000Y-121403292D01*
X79922824Y-121301863D01*
X79883249Y-121206319D01*
X79825794Y-121120332D01*
X79752668Y-121047206D01*
X79666681Y-120989751D01*
X79571137Y-120950176D01*
X79469708Y-120930000D01*
X79366292Y-120930000D01*
X79264863Y-120950176D01*
X79169319Y-120989751D01*
X79083332Y-121047206D01*
X79010206Y-121120332D01*
X78952751Y-121206319D01*
X78913176Y-121301863D01*
X78893000Y-121403292D01*
X66006394Y-121403292D01*
X65964708Y-121395000D01*
X65861292Y-121395000D01*
X65759863Y-121415176D01*
X65664319Y-121454751D01*
X65578332Y-121512206D01*
X65505206Y-121585332D01*
X65447751Y-121671319D01*
X65408176Y-121766863D01*
X65388000Y-121868292D01*
X63898000Y-121868292D01*
X63877824Y-121766863D01*
X63838249Y-121671319D01*
X63780794Y-121585332D01*
X63707668Y-121512206D01*
X63621681Y-121454751D01*
X63526137Y-121415176D01*
X63424708Y-121395000D01*
X63321292Y-121395000D01*
X63219863Y-121415176D01*
X63124319Y-121454751D01*
X63038332Y-121512206D01*
X62965206Y-121585332D01*
X62907751Y-121671319D01*
X62868176Y-121766863D01*
X62848000Y-121868292D01*
X62378000Y-121868292D01*
X62378000Y-120344292D01*
X70214000Y-120344292D01*
X70214000Y-120447708D01*
X70234176Y-120549137D01*
X70273751Y-120644681D01*
X70331206Y-120730668D01*
X70404332Y-120803794D01*
X70490319Y-120861249D01*
X70585863Y-120900824D01*
X70687292Y-120921000D01*
X70790708Y-120921000D01*
X70892137Y-120900824D01*
X70987681Y-120861249D01*
X71073668Y-120803794D01*
X71146794Y-120730668D01*
X71204249Y-120644681D01*
X71223463Y-120598292D01*
X81898000Y-120598292D01*
X81898000Y-120701708D01*
X81918176Y-120803137D01*
X81957751Y-120898681D01*
X82015206Y-120984668D01*
X82088332Y-121057794D01*
X82174319Y-121115249D01*
X82269863Y-121154824D01*
X82371292Y-121175000D01*
X82474708Y-121175000D01*
X82576137Y-121154824D01*
X82671681Y-121115249D01*
X82757668Y-121057794D01*
X82830794Y-120984668D01*
X82888249Y-120898681D01*
X82927824Y-120803137D01*
X82931000Y-120787171D01*
X82934176Y-120803137D01*
X82973751Y-120898681D01*
X83031206Y-120984668D01*
X83104332Y-121057794D01*
X83190319Y-121115249D01*
X83285863Y-121154824D01*
X83387292Y-121175000D01*
X83490708Y-121175000D01*
X83592137Y-121154824D01*
X83687681Y-121115249D01*
X83773668Y-121057794D01*
X83846794Y-120984668D01*
X83904249Y-120898681D01*
X83943824Y-120803137D01*
X83964000Y-120701708D01*
X83964000Y-120598292D01*
X83943824Y-120496863D01*
X83904249Y-120401319D01*
X83846794Y-120315332D01*
X83773668Y-120242206D01*
X83687681Y-120184751D01*
X83592137Y-120145176D01*
X83490708Y-120125000D01*
X83387292Y-120125000D01*
X83285863Y-120145176D01*
X83190319Y-120184751D01*
X83104332Y-120242206D01*
X83031206Y-120315332D01*
X82973751Y-120401319D01*
X82934176Y-120496863D01*
X82931000Y-120512829D01*
X82927824Y-120496863D01*
X82888249Y-120401319D01*
X82830794Y-120315332D01*
X82757668Y-120242206D01*
X82671681Y-120184751D01*
X82576137Y-120145176D01*
X82474708Y-120125000D01*
X82371292Y-120125000D01*
X82269863Y-120145176D01*
X82174319Y-120184751D01*
X82088332Y-120242206D01*
X82015206Y-120315332D01*
X81957751Y-120401319D01*
X81918176Y-120496863D01*
X81898000Y-120598292D01*
X71223463Y-120598292D01*
X71243824Y-120549137D01*
X71264000Y-120447708D01*
X71264000Y-120344292D01*
X71243824Y-120242863D01*
X71204249Y-120147319D01*
X71166145Y-120090292D01*
X85708000Y-120090292D01*
X85708000Y-120193708D01*
X85728176Y-120295137D01*
X85767751Y-120390681D01*
X85825206Y-120476668D01*
X85898332Y-120549794D01*
X85984319Y-120607249D01*
X86079863Y-120646824D01*
X86181292Y-120667000D01*
X86284708Y-120667000D01*
X86386137Y-120646824D01*
X86481681Y-120607249D01*
X86567668Y-120549794D01*
X86640794Y-120476668D01*
X86698249Y-120390681D01*
X86737824Y-120295137D01*
X86758000Y-120193708D01*
X86758000Y-120090292D01*
X86978000Y-120090292D01*
X86978000Y-120193708D01*
X86998176Y-120295137D01*
X87037751Y-120390681D01*
X87095206Y-120476668D01*
X87168332Y-120549794D01*
X87254319Y-120607249D01*
X87349863Y-120646824D01*
X87451292Y-120667000D01*
X87554708Y-120667000D01*
X87656137Y-120646824D01*
X87751681Y-120607249D01*
X87837668Y-120549794D01*
X87910794Y-120476668D01*
X87968249Y-120390681D01*
X88007824Y-120295137D01*
X88028000Y-120193708D01*
X88028000Y-120090292D01*
X88248000Y-120090292D01*
X88248000Y-120193708D01*
X88268176Y-120295137D01*
X88307751Y-120390681D01*
X88365206Y-120476668D01*
X88438332Y-120549794D01*
X88524319Y-120607249D01*
X88619863Y-120646824D01*
X88721292Y-120667000D01*
X88824708Y-120667000D01*
X88926137Y-120646824D01*
X89021681Y-120607249D01*
X89107668Y-120549794D01*
X89180794Y-120476668D01*
X89238249Y-120390681D01*
X89277824Y-120295137D01*
X89298000Y-120193708D01*
X89298000Y-120090292D01*
X89277824Y-119988863D01*
X89238249Y-119893319D01*
X89180794Y-119807332D01*
X89107668Y-119734206D01*
X89021681Y-119676751D01*
X88926137Y-119637176D01*
X88824708Y-119617000D01*
X88721292Y-119617000D01*
X88619863Y-119637176D01*
X88524319Y-119676751D01*
X88438332Y-119734206D01*
X88365206Y-119807332D01*
X88307751Y-119893319D01*
X88268176Y-119988863D01*
X88248000Y-120090292D01*
X88028000Y-120090292D01*
X88007824Y-119988863D01*
X87968249Y-119893319D01*
X87910794Y-119807332D01*
X87837668Y-119734206D01*
X87751681Y-119676751D01*
X87656137Y-119637176D01*
X87554708Y-119617000D01*
X87451292Y-119617000D01*
X87349863Y-119637176D01*
X87254319Y-119676751D01*
X87168332Y-119734206D01*
X87095206Y-119807332D01*
X87037751Y-119893319D01*
X86998176Y-119988863D01*
X86978000Y-120090292D01*
X86758000Y-120090292D01*
X86737824Y-119988863D01*
X86698249Y-119893319D01*
X86640794Y-119807332D01*
X86567668Y-119734206D01*
X86481681Y-119676751D01*
X86386137Y-119637176D01*
X86284708Y-119617000D01*
X86181292Y-119617000D01*
X86079863Y-119637176D01*
X85984319Y-119676751D01*
X85898332Y-119734206D01*
X85825206Y-119807332D01*
X85767751Y-119893319D01*
X85728176Y-119988863D01*
X85708000Y-120090292D01*
X71166145Y-120090292D01*
X71146794Y-120061332D01*
X71073668Y-119988206D01*
X70987681Y-119930751D01*
X70892137Y-119891176D01*
X70790708Y-119871000D01*
X70687292Y-119871000D01*
X70585863Y-119891176D01*
X70490319Y-119930751D01*
X70404332Y-119988206D01*
X70331206Y-120061332D01*
X70273751Y-120147319D01*
X70234176Y-120242863D01*
X70214000Y-120344292D01*
X62378000Y-120344292D01*
X62378000Y-119328292D01*
X69198000Y-119328292D01*
X69198000Y-119431708D01*
X69218176Y-119533137D01*
X69257751Y-119628681D01*
X69315206Y-119714668D01*
X69388332Y-119787794D01*
X69474319Y-119845249D01*
X69569863Y-119884824D01*
X69671292Y-119905000D01*
X69774708Y-119905000D01*
X69876137Y-119884824D01*
X69971681Y-119845249D01*
X70057668Y-119787794D01*
X70130794Y-119714668D01*
X70188249Y-119628681D01*
X70227824Y-119533137D01*
X70248000Y-119431708D01*
X70248000Y-119328292D01*
X70227824Y-119226863D01*
X70188249Y-119131319D01*
X70130794Y-119045332D01*
X70057668Y-118972206D01*
X70020382Y-118947292D01*
X71230000Y-118947292D01*
X71230000Y-119050708D01*
X71250176Y-119152137D01*
X71289751Y-119247681D01*
X71347206Y-119333668D01*
X71420332Y-119406794D01*
X71506319Y-119464249D01*
X71601863Y-119503824D01*
X71703292Y-119524000D01*
X71806708Y-119524000D01*
X71908137Y-119503824D01*
X72003681Y-119464249D01*
X72089668Y-119406794D01*
X72162794Y-119333668D01*
X72220249Y-119247681D01*
X72259824Y-119152137D01*
X72280000Y-119050708D01*
X72280000Y-118947292D01*
X72259824Y-118845863D01*
X72220249Y-118750319D01*
X72162794Y-118664332D01*
X72089668Y-118591206D01*
X72003681Y-118533751D01*
X71908137Y-118494176D01*
X71806708Y-118474000D01*
X71703292Y-118474000D01*
X71601863Y-118494176D01*
X71506319Y-118533751D01*
X71420332Y-118591206D01*
X71347206Y-118664332D01*
X71289751Y-118750319D01*
X71250176Y-118845863D01*
X71230000Y-118947292D01*
X70020382Y-118947292D01*
X69971681Y-118914751D01*
X69876137Y-118875176D01*
X69774708Y-118855000D01*
X69671292Y-118855000D01*
X69569863Y-118875176D01*
X69474319Y-118914751D01*
X69388332Y-118972206D01*
X69315206Y-119045332D01*
X69257751Y-119131319D01*
X69218176Y-119226863D01*
X69198000Y-119328292D01*
X62378000Y-119328292D01*
X62378000Y-117423292D01*
X62848000Y-117423292D01*
X62848000Y-117526708D01*
X62868176Y-117628137D01*
X62907751Y-117723681D01*
X62965206Y-117809668D01*
X63038332Y-117882794D01*
X63124319Y-117940249D01*
X63219863Y-117979824D01*
X63321292Y-118000000D01*
X63424708Y-118000000D01*
X63526137Y-117979824D01*
X63621681Y-117940249D01*
X63707668Y-117882794D01*
X63780794Y-117809668D01*
X63838249Y-117723681D01*
X63877824Y-117628137D01*
X63898000Y-117526708D01*
X63898000Y-117423292D01*
X65388000Y-117423292D01*
X65388000Y-117526708D01*
X65408176Y-117628137D01*
X65447751Y-117723681D01*
X65505206Y-117809668D01*
X65578332Y-117882794D01*
X65664319Y-117940249D01*
X65759863Y-117979824D01*
X65861292Y-118000000D01*
X65964708Y-118000000D01*
X66066137Y-117979824D01*
X66161681Y-117940249D01*
X66247668Y-117882794D01*
X66320794Y-117809668D01*
X66324386Y-117804292D01*
X71992000Y-117804292D01*
X71992000Y-117907708D01*
X72012176Y-118009137D01*
X72051751Y-118104681D01*
X72109206Y-118190668D01*
X72182332Y-118263794D01*
X72268319Y-118321249D01*
X72363863Y-118360824D01*
X72465292Y-118381000D01*
X72568708Y-118381000D01*
X72670137Y-118360824D01*
X72765681Y-118321249D01*
X72851668Y-118263794D01*
X72924794Y-118190668D01*
X72982249Y-118104681D01*
X73021824Y-118009137D01*
X73042000Y-117907708D01*
X73042000Y-117804292D01*
X73029369Y-117740792D01*
X73643000Y-117740792D01*
X73643000Y-117844208D01*
X73663176Y-117945637D01*
X73702751Y-118041181D01*
X73760206Y-118127168D01*
X73833332Y-118200294D01*
X73919319Y-118257749D01*
X74014863Y-118297324D01*
X74116292Y-118317500D01*
X74219708Y-118317500D01*
X74321137Y-118297324D01*
X74416681Y-118257749D01*
X74502668Y-118200294D01*
X74575794Y-118127168D01*
X74633249Y-118041181D01*
X74672824Y-117945637D01*
X74693000Y-117844208D01*
X74693000Y-117740792D01*
X74672824Y-117639363D01*
X74633249Y-117543819D01*
X74575794Y-117457832D01*
X74502668Y-117384706D01*
X74416681Y-117327251D01*
X74321137Y-117287676D01*
X74219708Y-117267500D01*
X74116292Y-117267500D01*
X74014863Y-117287676D01*
X73919319Y-117327251D01*
X73833332Y-117384706D01*
X73760206Y-117457832D01*
X73702751Y-117543819D01*
X73663176Y-117639363D01*
X73643000Y-117740792D01*
X73029369Y-117740792D01*
X73021824Y-117702863D01*
X72982249Y-117607319D01*
X72924794Y-117521332D01*
X72851668Y-117448206D01*
X72765681Y-117390751D01*
X72670137Y-117351176D01*
X72568708Y-117331000D01*
X72465292Y-117331000D01*
X72363863Y-117351176D01*
X72268319Y-117390751D01*
X72182332Y-117448206D01*
X72109206Y-117521332D01*
X72051751Y-117607319D01*
X72012176Y-117702863D01*
X71992000Y-117804292D01*
X66324386Y-117804292D01*
X66378249Y-117723681D01*
X66417824Y-117628137D01*
X66438000Y-117526708D01*
X66438000Y-117423292D01*
X66417824Y-117321863D01*
X66378249Y-117226319D01*
X66320794Y-117140332D01*
X66247668Y-117067206D01*
X66161681Y-117009751D01*
X66066137Y-116970176D01*
X65964708Y-116950000D01*
X65861292Y-116950000D01*
X65759863Y-116970176D01*
X65664319Y-117009751D01*
X65578332Y-117067206D01*
X65505206Y-117140332D01*
X65447751Y-117226319D01*
X65408176Y-117321863D01*
X65388000Y-117423292D01*
X63898000Y-117423292D01*
X63877824Y-117321863D01*
X63838249Y-117226319D01*
X63780794Y-117140332D01*
X63707668Y-117067206D01*
X63621681Y-117009751D01*
X63526137Y-116970176D01*
X63424708Y-116950000D01*
X63321292Y-116950000D01*
X63219863Y-116970176D01*
X63124319Y-117009751D01*
X63038332Y-117067206D01*
X62965206Y-117140332D01*
X62907751Y-117226319D01*
X62868176Y-117321863D01*
X62848000Y-117423292D01*
X62378000Y-117423292D01*
X62378000Y-116524520D01*
X71474230Y-116524520D01*
X71474230Y-116627936D01*
X71494406Y-116729365D01*
X71533981Y-116824909D01*
X71591436Y-116910896D01*
X71664562Y-116984022D01*
X71750549Y-117041477D01*
X71846093Y-117081052D01*
X71947522Y-117101228D01*
X72050938Y-117101228D01*
X72152367Y-117081052D01*
X72247911Y-117041477D01*
X72333898Y-116984022D01*
X72407024Y-116910896D01*
X72464479Y-116824909D01*
X72504054Y-116729365D01*
X72524230Y-116627936D01*
X72524230Y-116524520D01*
X72504054Y-116423091D01*
X72464479Y-116327547D01*
X72407024Y-116241560D01*
X72333898Y-116168434D01*
X72247911Y-116110979D01*
X72152367Y-116071404D01*
X72050938Y-116051228D01*
X71947522Y-116051228D01*
X71846093Y-116071404D01*
X71750549Y-116110979D01*
X71664562Y-116168434D01*
X71591436Y-116241560D01*
X71533981Y-116327547D01*
X71494406Y-116423091D01*
X71474230Y-116524520D01*
X62378000Y-116524520D01*
X62378000Y-116261330D01*
X64423000Y-116261330D01*
X64476909Y-116256020D01*
X64528747Y-116240296D01*
X64576521Y-116214760D01*
X64618395Y-116180395D01*
X64652760Y-116138521D01*
X64678296Y-116090747D01*
X64694020Y-116038909D01*
X64699330Y-115985000D01*
X64699330Y-115467334D01*
X64738800Y-115562623D01*
X64883805Y-115779638D01*
X65068362Y-115964195D01*
X65285377Y-116109200D01*
X65526512Y-116209081D01*
X65782499Y-116260000D01*
X66043501Y-116260000D01*
X66299488Y-116209081D01*
X66540623Y-116109200D01*
X66757638Y-115964195D01*
X66942195Y-115779638D01*
X67087200Y-115562623D01*
X67183000Y-115331340D01*
X67278800Y-115562623D01*
X67423805Y-115779638D01*
X67608362Y-115964195D01*
X67825377Y-116109200D01*
X68066512Y-116209081D01*
X68322499Y-116260000D01*
X68583501Y-116260000D01*
X68839488Y-116209081D01*
X69080623Y-116109200D01*
X69297638Y-115964195D01*
X69482195Y-115779638D01*
X69627200Y-115562623D01*
X69723000Y-115331340D01*
X69818800Y-115562623D01*
X69963805Y-115779638D01*
X70148362Y-115964195D01*
X70365377Y-116109200D01*
X70606512Y-116209081D01*
X70862499Y-116260000D01*
X71123501Y-116260000D01*
X71379488Y-116209081D01*
X71620623Y-116109200D01*
X71837638Y-115964195D01*
X72022195Y-115779638D01*
X72167200Y-115562623D01*
X72263000Y-115331340D01*
X72358800Y-115562623D01*
X72503805Y-115779638D01*
X72688362Y-115964195D01*
X72905377Y-116109200D01*
X73146512Y-116209081D01*
X73402499Y-116260000D01*
X73663501Y-116260000D01*
X73919488Y-116209081D01*
X74160623Y-116109200D01*
X74377638Y-115964195D01*
X74562195Y-115779638D01*
X74707200Y-115562623D01*
X74803000Y-115331340D01*
X74898800Y-115562623D01*
X75043805Y-115779638D01*
X75228362Y-115964195D01*
X75445377Y-116109200D01*
X75686512Y-116209081D01*
X75942499Y-116260000D01*
X76203501Y-116260000D01*
X76459488Y-116209081D01*
X76700623Y-116109200D01*
X76917638Y-115964195D01*
X77102195Y-115779638D01*
X77247200Y-115562623D01*
X77343000Y-115331340D01*
X77438800Y-115562623D01*
G37*
X77438800Y-115562623D02*
X77583805Y-115779638D01*
X77768362Y-115964195D01*
X77985377Y-116109200D01*
X78226512Y-116209081D01*
X78482499Y-116260000D01*
X78743501Y-116260000D01*
X78999488Y-116209081D01*
X79240623Y-116109200D01*
X79397977Y-116004060D01*
X79378176Y-116051863D01*
X79358000Y-116153292D01*
X79358000Y-116256708D01*
X79378176Y-116358137D01*
X79417751Y-116453681D01*
X79475206Y-116539668D01*
X79548332Y-116612794D01*
X79634319Y-116670249D01*
X79729863Y-116709824D01*
X79831292Y-116730000D01*
X79934708Y-116730000D01*
X80036137Y-116709824D01*
X80131681Y-116670249D01*
X80217668Y-116612794D01*
X80290794Y-116539668D01*
X80348249Y-116453681D01*
X80387824Y-116358137D01*
X80408000Y-116256708D01*
X80408000Y-116153292D01*
X80387824Y-116051863D01*
X80368023Y-116004060D01*
X80525377Y-116109200D01*
X80766512Y-116209081D01*
X81022499Y-116260000D01*
X81283501Y-116260000D01*
X81539488Y-116209081D01*
X81780623Y-116109200D01*
X81937977Y-116004060D01*
X81918176Y-116051863D01*
X81898000Y-116153292D01*
X81898000Y-116256708D01*
X81918176Y-116358137D01*
X81957751Y-116453681D01*
X82015206Y-116539668D01*
X82088332Y-116612794D01*
X82174319Y-116670249D01*
X82269863Y-116709824D01*
X82371292Y-116730000D01*
X82474708Y-116730000D01*
X82576137Y-116709824D01*
X82671681Y-116670249D01*
X82757668Y-116612794D01*
X82830794Y-116539668D01*
X82888249Y-116453681D01*
X82927824Y-116358137D01*
X82948000Y-116256708D01*
X82948000Y-116153292D01*
X82927824Y-116051863D01*
X82908023Y-116004060D01*
X83065377Y-116109200D01*
X83306512Y-116209081D01*
X83562499Y-116260000D01*
X83823501Y-116260000D01*
X84079488Y-116209081D01*
X84320623Y-116109200D01*
X84477977Y-116004060D01*
X84458176Y-116051863D01*
X84438000Y-116153292D01*
X84438000Y-116256708D01*
X84458176Y-116358137D01*
X84497751Y-116453681D01*
X84555206Y-116539668D01*
X84628332Y-116612794D01*
X84714319Y-116670249D01*
X84809863Y-116709824D01*
X84911292Y-116730000D01*
X85014708Y-116730000D01*
X85116137Y-116709824D01*
X85211681Y-116670249D01*
X85297668Y-116612794D01*
X85370794Y-116539668D01*
X85428249Y-116453681D01*
X85467824Y-116358137D01*
X85488000Y-116256708D01*
X85488000Y-116153292D01*
X85467824Y-116051863D01*
X85448023Y-116004060D01*
X85605377Y-116109200D01*
X85846512Y-116209081D01*
X86102499Y-116260000D01*
X86363501Y-116260000D01*
X86619488Y-116209081D01*
X86860623Y-116109200D01*
X87017977Y-116004060D01*
X86998176Y-116051863D01*
X86978000Y-116153292D01*
X86978000Y-116256708D01*
X86998176Y-116358137D01*
X87037751Y-116453681D01*
X87095206Y-116539668D01*
X87168332Y-116612794D01*
X87254319Y-116670249D01*
X87349863Y-116709824D01*
X87451292Y-116730000D01*
X87554708Y-116730000D01*
X87656137Y-116709824D01*
X87751681Y-116670249D01*
X87837668Y-116612794D01*
X87910794Y-116539668D01*
X87968249Y-116453681D01*
X88007824Y-116358137D01*
X88028000Y-116256708D01*
X88028000Y-116153292D01*
X88007824Y-116051863D01*
X87988023Y-116004060D01*
X88145377Y-116109200D01*
X88386512Y-116209081D01*
X88642499Y-116260000D01*
X88903501Y-116260000D01*
X89159488Y-116209081D01*
X89400623Y-116109200D01*
X89617638Y-115964195D01*
X89768001Y-115813832D01*
X89768000Y-129296167D01*
X89617638Y-129145805D01*
X89400623Y-129000800D01*
X89159488Y-128900919D01*
X88903501Y-128850000D01*
X88642499Y-128850000D01*
X88386512Y-128900919D01*
X88145377Y-129000800D01*
X87974197Y-129115179D01*
X87968249Y-129100819D01*
X87910794Y-129014832D01*
X87837668Y-128941706D01*
X87751681Y-128884251D01*
X87656137Y-128844676D01*
X87554708Y-128824500D01*
X87451292Y-128824500D01*
X87349863Y-128844676D01*
X87254319Y-128884251D01*
X87168332Y-128941706D01*
X87095206Y-129014832D01*
X87037751Y-129100819D01*
X87031803Y-129115179D01*
X86860623Y-129000800D01*
X86619488Y-128900919D01*
X86363501Y-128850000D01*
X86102499Y-128850000D01*
X85846512Y-128900919D01*
X85605377Y-129000800D01*
X85483073Y-129082521D01*
X85467824Y-129005863D01*
X85428249Y-128910319D01*
X85381092Y-128839744D01*
X85521592Y-128787983D01*
X85611332Y-128740016D01*
X85727353Y-128576129D01*
X84963000Y-127811777D01*
X84198647Y-128576129D01*
X84314668Y-128740016D01*
X84541568Y-128844742D01*
X84497751Y-128910319D01*
X84458176Y-129005863D01*
X84442927Y-129082521D01*
X84320623Y-129000800D01*
X84079488Y-128900919D01*
X83823501Y-128850000D01*
X83587000Y-128850000D01*
X83587000Y-127709844D01*
X83684019Y-127709844D01*
X83723196Y-127957923D01*
X83810017Y-128193592D01*
X83857984Y-128283332D01*
X84021871Y-128399353D01*
X84786223Y-127635000D01*
X85139777Y-127635000D01*
X85904129Y-128399353D01*
X86068016Y-128283332D01*
X86173266Y-128055296D01*
X86232007Y-127811110D01*
X86241981Y-127560156D01*
X86202804Y-127312077D01*
X86115983Y-127076408D01*
X86068016Y-126986668D01*
X86013808Y-126948292D01*
X87613000Y-126948292D01*
X87613000Y-127051708D01*
X87633176Y-127153137D01*
X87672751Y-127248681D01*
X87730206Y-127334668D01*
X87803332Y-127407794D01*
X87889319Y-127465249D01*
X87984863Y-127504824D01*
X88086292Y-127525000D01*
X88189708Y-127525000D01*
X88291137Y-127504824D01*
X88386681Y-127465249D01*
X88472668Y-127407794D01*
X88545794Y-127334668D01*
X88603249Y-127248681D01*
X88642824Y-127153137D01*
X88663000Y-127051708D01*
X88663000Y-126948292D01*
X88642824Y-126846863D01*
X88603249Y-126751319D01*
X88545794Y-126665332D01*
X88472668Y-126592206D01*
X88386681Y-126534751D01*
X88291137Y-126495176D01*
X88189708Y-126475000D01*
X88086292Y-126475000D01*
X87984863Y-126495176D01*
X87889319Y-126534751D01*
X87803332Y-126592206D01*
X87730206Y-126665332D01*
X87672751Y-126751319D01*
X87633176Y-126846863D01*
X87613000Y-126948292D01*
X86013808Y-126948292D01*
X85904129Y-126870647D01*
X85139777Y-127635000D01*
X84786223Y-127635000D01*
X84021871Y-126870647D01*
X83857984Y-126986668D01*
X83752734Y-127214704D01*
X83693993Y-127458890D01*
X83684019Y-127709844D01*
X83587000Y-127709844D01*
X83587000Y-126307169D01*
X83608751Y-126359681D01*
X83666206Y-126445668D01*
X83739332Y-126518794D01*
X83825319Y-126576249D01*
X83920863Y-126615824D01*
X84022292Y-126636000D01*
X84125708Y-126636000D01*
X84227137Y-126615824D01*
X84265002Y-126600140D01*
X84198647Y-126693871D01*
X84963000Y-127458223D01*
X85727353Y-126693871D01*
X85611332Y-126529984D01*
X85383296Y-126424734D01*
X85139110Y-126365993D01*
X84888156Y-126356019D01*
X84640077Y-126395196D01*
X84469381Y-126458081D01*
X84481794Y-126445668D01*
X84539249Y-126359681D01*
X84578824Y-126264137D01*
X84599000Y-126162708D01*
X84599000Y-126059292D01*
X84578824Y-125957863D01*
X84539249Y-125862319D01*
X84481794Y-125776332D01*
X84408668Y-125703206D01*
X84371382Y-125678292D01*
X87613000Y-125678292D01*
X87613000Y-125781708D01*
X87633176Y-125883137D01*
X87672751Y-125978681D01*
X87730206Y-126064668D01*
X87803332Y-126137794D01*
X87889319Y-126195249D01*
X87984863Y-126234824D01*
X88086292Y-126255000D01*
X88189708Y-126255000D01*
X88291137Y-126234824D01*
X88386681Y-126195249D01*
X88472668Y-126137794D01*
X88545794Y-126064668D01*
X88603249Y-125978681D01*
X88642824Y-125883137D01*
X88663000Y-125781708D01*
X88663000Y-125678292D01*
X88642824Y-125576863D01*
X88603249Y-125481319D01*
X88545794Y-125395332D01*
X88472668Y-125322206D01*
X88386681Y-125264751D01*
X88291137Y-125225176D01*
X88189708Y-125205000D01*
X88086292Y-125205000D01*
X87984863Y-125225176D01*
X87889319Y-125264751D01*
X87803332Y-125322206D01*
X87730206Y-125395332D01*
X87672751Y-125481319D01*
X87633176Y-125576863D01*
X87613000Y-125678292D01*
X84371382Y-125678292D01*
X84322681Y-125645751D01*
X84227137Y-125606176D01*
X84125708Y-125586000D01*
X84022292Y-125586000D01*
X83920863Y-125606176D01*
X83825319Y-125645751D01*
X83739332Y-125703206D01*
X83666206Y-125776332D01*
X83608751Y-125862319D01*
X83587000Y-125914831D01*
X83587000Y-124460000D01*
X83581716Y-124406350D01*
X83566067Y-124354762D01*
X83540654Y-124307218D01*
X83506454Y-124265546D01*
X83464782Y-124231346D01*
X83417238Y-124205933D01*
X83365650Y-124190284D01*
X83312000Y-124185000D01*
X79245846Y-124185000D01*
X79244824Y-124179863D01*
X79230655Y-124145655D01*
X79264863Y-124159824D01*
X79366292Y-124180000D01*
X79469708Y-124180000D01*
X79571137Y-124159824D01*
X79666681Y-124120249D01*
X79752668Y-124062794D01*
X79825794Y-123989668D01*
X79883249Y-123903681D01*
X79922824Y-123808137D01*
X79943000Y-123706708D01*
X79943000Y-123603292D01*
X79993000Y-123603292D01*
X79993000Y-123706708D01*
X80013176Y-123808137D01*
X80052751Y-123903681D01*
X80110206Y-123989668D01*
X80183332Y-124062794D01*
X80269319Y-124120249D01*
X80364863Y-124159824D01*
X80466292Y-124180000D01*
X80569708Y-124180000D01*
X80671137Y-124159824D01*
X80766681Y-124120249D01*
X80852668Y-124062794D01*
X80925794Y-123989668D01*
X80983249Y-123903681D01*
X81022824Y-123808137D01*
X81043000Y-123706708D01*
X81043000Y-123603292D01*
X81093000Y-123603292D01*
X81093000Y-123706708D01*
X81113176Y-123808137D01*
X81152751Y-123903681D01*
X81210206Y-123989668D01*
X81283332Y-124062794D01*
X81369319Y-124120249D01*
X81464863Y-124159824D01*
X81566292Y-124180000D01*
X81669708Y-124180000D01*
X81771137Y-124159824D01*
X81866681Y-124120249D01*
X81952668Y-124062794D01*
X81988170Y-124027292D01*
X83549000Y-124027292D01*
X83549000Y-124130708D01*
X83569176Y-124232137D01*
X83608751Y-124327681D01*
X83666206Y-124413668D01*
X83739332Y-124486794D01*
X83825319Y-124544249D01*
X83920863Y-124583824D01*
X84022292Y-124604000D01*
X84125708Y-124604000D01*
X84134891Y-124602173D01*
X84072442Y-124695635D01*
X84029097Y-124800279D01*
X84007000Y-124911367D01*
X84007000Y-125024633D01*
X84029097Y-125135721D01*
X84072442Y-125240365D01*
X84135368Y-125334541D01*
X84215459Y-125414632D01*
X84309635Y-125477558D01*
X84414279Y-125520903D01*
X84525367Y-125543000D01*
X84638633Y-125543000D01*
X84749721Y-125520903D01*
X84854365Y-125477558D01*
X84948541Y-125414632D01*
X85028632Y-125334541D01*
X85091558Y-125240365D01*
X85134903Y-125135721D01*
X85157000Y-125024633D01*
X85157000Y-124911367D01*
X85134903Y-124800279D01*
X85091558Y-124695635D01*
X85028632Y-124601459D01*
X84973616Y-124546443D01*
X85063863Y-124583824D01*
X85165292Y-124604000D01*
X85268708Y-124604000D01*
X85370137Y-124583824D01*
X85465681Y-124544249D01*
X85551668Y-124486794D01*
X85624794Y-124413668D01*
X85682249Y-124327681D01*
X85721824Y-124232137D01*
X85742000Y-124130708D01*
X85742000Y-124027292D01*
X85721824Y-123925863D01*
X85682249Y-123830319D01*
X85624794Y-123744332D01*
X85551668Y-123671206D01*
X85465681Y-123613751D01*
X85370137Y-123574176D01*
X85268708Y-123554000D01*
X85165292Y-123554000D01*
X85063863Y-123574176D01*
X84968319Y-123613751D01*
X84882332Y-123671206D01*
X84809206Y-123744332D01*
X84751751Y-123830319D01*
X84712176Y-123925863D01*
X84692000Y-124027292D01*
X84692000Y-124130708D01*
X84712176Y-124232137D01*
X84751751Y-124327681D01*
X84809206Y-124413668D01*
X84853708Y-124458170D01*
X84749721Y-124415097D01*
X84638633Y-124393000D01*
X84525367Y-124393000D01*
X84491042Y-124399828D01*
X84539249Y-124327681D01*
X84578824Y-124232137D01*
X84599000Y-124130708D01*
X84599000Y-124027292D01*
X84578824Y-123925863D01*
X84539249Y-123830319D01*
X84481794Y-123744332D01*
X84408668Y-123671206D01*
X84322681Y-123613751D01*
X84227137Y-123574176D01*
X84125708Y-123554000D01*
X84022292Y-123554000D01*
X83920863Y-123574176D01*
X83825319Y-123613751D01*
X83739332Y-123671206D01*
X83666206Y-123744332D01*
X83608751Y-123830319D01*
X83569176Y-123925863D01*
X83549000Y-124027292D01*
X81988170Y-124027292D01*
X82025794Y-123989668D01*
X82083249Y-123903681D01*
X82122824Y-123808137D01*
X82143000Y-123706708D01*
X82143000Y-123603292D01*
X82122824Y-123501863D01*
X82083249Y-123406319D01*
X82025794Y-123320332D01*
X81952668Y-123247206D01*
X81866681Y-123189751D01*
X81771137Y-123150176D01*
X81669708Y-123130000D01*
X81566292Y-123130000D01*
X81464863Y-123150176D01*
X81369319Y-123189751D01*
X81283332Y-123247206D01*
X81210206Y-123320332D01*
X81152751Y-123406319D01*
X81113176Y-123501863D01*
X81093000Y-123603292D01*
X81043000Y-123603292D01*
X81022824Y-123501863D01*
X80983249Y-123406319D01*
X80925794Y-123320332D01*
X80852668Y-123247206D01*
X80766681Y-123189751D01*
X80671137Y-123150176D01*
X80569708Y-123130000D01*
X80466292Y-123130000D01*
X80364863Y-123150176D01*
X80269319Y-123189751D01*
X80183332Y-123247206D01*
X80110206Y-123320332D01*
X80052751Y-123406319D01*
X80013176Y-123501863D01*
X79993000Y-123603292D01*
X79943000Y-123603292D01*
X79922824Y-123501863D01*
X79883249Y-123406319D01*
X79825794Y-123320332D01*
X79752668Y-123247206D01*
X79666681Y-123189751D01*
X79571137Y-123150176D01*
X79469708Y-123130000D01*
X79366292Y-123130000D01*
X79264863Y-123150176D01*
X79169319Y-123189751D01*
X79083332Y-123247206D01*
X79010206Y-123320332D01*
X78952751Y-123406319D01*
X78913176Y-123501863D01*
X78893000Y-123603292D01*
X78893000Y-123706708D01*
X78913176Y-123808137D01*
X78927345Y-123842345D01*
X78893137Y-123828176D01*
X78791708Y-123808000D01*
X78688292Y-123808000D01*
X78586863Y-123828176D01*
X78491319Y-123867751D01*
X78405332Y-123925206D01*
X78332206Y-123998332D01*
X78274751Y-124084319D01*
X78235176Y-124179863D01*
X78234154Y-124185000D01*
X76471000Y-124185000D01*
X76471000Y-124154292D01*
X76450824Y-124052863D01*
X76411249Y-123957319D01*
X76353794Y-123871332D01*
X76280668Y-123798206D01*
X76194681Y-123740751D01*
X76099137Y-123701176D01*
X75997708Y-123681000D01*
X75894292Y-123681000D01*
X75792863Y-123701176D01*
X75697319Y-123740751D01*
X75611332Y-123798206D01*
X75538206Y-123871332D01*
X75480751Y-123957319D01*
X75441176Y-124052863D01*
X75421000Y-124154292D01*
X75421000Y-124185000D01*
X68453000Y-124185000D01*
X68399350Y-124190284D01*
X68347762Y-124205933D01*
X68300218Y-124231346D01*
X68258546Y-124265546D01*
X68224346Y-124307218D01*
X68198933Y-124354762D01*
X68183284Y-124406350D01*
X68178000Y-124460000D01*
X68178000Y-124901337D01*
X68118332Y-124941206D01*
X68045206Y-125014332D01*
X67987751Y-125100319D01*
X67948176Y-125195863D01*
X67928000Y-125297292D01*
X67928000Y-125400708D01*
X67948176Y-125502137D01*
X67987751Y-125597681D01*
X68045206Y-125683668D01*
X68118332Y-125756794D01*
X68178000Y-125796663D01*
X68178000Y-126933337D01*
X68118332Y-126973206D01*
X68045206Y-127046332D01*
X67987751Y-127132319D01*
X67948176Y-127227863D01*
X67928000Y-127329292D01*
X67928000Y-127432708D01*
X67948176Y-127534137D01*
X67987751Y-127629681D01*
X68045206Y-127715668D01*
X68118332Y-127788794D01*
X68178000Y-127828663D01*
X68178000Y-128878743D01*
X68066512Y-128900919D01*
X67825377Y-129000800D01*
X67608362Y-129145805D01*
X67423805Y-129330362D01*
X67278800Y-129547377D01*
X67183000Y-129778660D01*
X67087200Y-129547377D01*
X66942195Y-129330362D01*
X66757638Y-129145805D01*
X66540623Y-129000800D01*
X66299488Y-128900919D01*
X66043501Y-128850000D01*
X65782499Y-128850000D01*
X65526512Y-128900919D01*
X65285377Y-129000800D01*
X65068362Y-129145805D01*
X64883805Y-129330362D01*
X64738800Y-129547377D01*
X64643000Y-129778660D01*
X64547200Y-129547377D01*
X64402195Y-129330362D01*
X64217638Y-129145805D01*
X64000623Y-129000800D01*
X63759488Y-128900919D01*
X63503501Y-128850000D01*
X63242499Y-128850000D01*
X62986512Y-128900919D01*
X62745377Y-129000800D01*
X62528362Y-129145805D01*
X62378000Y-129296167D01*
X62378000Y-127583292D01*
X62848000Y-127583292D01*
X62848000Y-127686708D01*
X62868176Y-127788137D01*
X62907751Y-127883681D01*
X62965206Y-127969668D01*
X63038332Y-128042794D01*
X63124319Y-128100249D01*
X63219863Y-128139824D01*
X63321292Y-128160000D01*
X63424708Y-128160000D01*
X63526137Y-128139824D01*
X63621681Y-128100249D01*
X63707668Y-128042794D01*
X63780794Y-127969668D01*
X63838249Y-127883681D01*
X63877824Y-127788137D01*
X63898000Y-127686708D01*
X63898000Y-127583292D01*
X63877824Y-127481863D01*
X63838249Y-127386319D01*
X63780794Y-127300332D01*
X63707668Y-127227206D01*
X63621681Y-127169751D01*
X63526137Y-127130176D01*
X63424708Y-127110000D01*
X63321292Y-127110000D01*
X63219863Y-127130176D01*
X63124319Y-127169751D01*
X63038332Y-127227206D01*
X62965206Y-127300332D01*
X62907751Y-127386319D01*
X62868176Y-127481863D01*
X62848000Y-127583292D01*
X62378000Y-127583292D01*
X62378000Y-123773292D01*
X62848000Y-123773292D01*
X62848000Y-123876708D01*
X62868176Y-123978137D01*
X62907751Y-124073681D01*
X62965206Y-124159668D01*
X63038332Y-124232794D01*
X63124319Y-124290249D01*
X63219863Y-124329824D01*
X63321292Y-124350000D01*
X63424708Y-124350000D01*
X63526137Y-124329824D01*
X63621681Y-124290249D01*
X63707668Y-124232794D01*
X63780794Y-124159668D01*
X63838249Y-124073681D01*
X63877824Y-123978137D01*
X63898000Y-123876708D01*
X63898000Y-123773292D01*
X65388000Y-123773292D01*
X65388000Y-123876708D01*
X65408176Y-123978137D01*
X65447751Y-124073681D01*
X65505206Y-124159668D01*
X65578332Y-124232794D01*
X65664319Y-124290249D01*
X65759863Y-124329824D01*
X65861292Y-124350000D01*
X65964708Y-124350000D01*
X66066137Y-124329824D01*
X66161681Y-124290249D01*
X66247668Y-124232794D01*
X66320794Y-124159668D01*
X66378249Y-124073681D01*
X66417824Y-123978137D01*
X66438000Y-123876708D01*
X66438000Y-123773292D01*
X66417824Y-123671863D01*
X66378249Y-123576319D01*
X66320794Y-123490332D01*
X66247668Y-123417206D01*
X66161681Y-123359751D01*
X66066137Y-123320176D01*
X65964708Y-123300000D01*
X65861292Y-123300000D01*
X65759863Y-123320176D01*
X65664319Y-123359751D01*
X65578332Y-123417206D01*
X65505206Y-123490332D01*
X65447751Y-123576319D01*
X65408176Y-123671863D01*
X65388000Y-123773292D01*
X63898000Y-123773292D01*
X63877824Y-123671863D01*
X63838249Y-123576319D01*
X63780794Y-123490332D01*
X63707668Y-123417206D01*
X63621681Y-123359751D01*
X63526137Y-123320176D01*
X63424708Y-123300000D01*
X63321292Y-123300000D01*
X63219863Y-123320176D01*
X63124319Y-123359751D01*
X63038332Y-123417206D01*
X62965206Y-123490332D01*
X62907751Y-123576319D01*
X62868176Y-123671863D01*
X62848000Y-123773292D01*
X62378000Y-123773292D01*
X62378000Y-122632754D01*
X75382500Y-122632754D01*
X75382500Y-122731246D01*
X75401715Y-122827845D01*
X75439406Y-122918839D01*
X75494125Y-123000731D01*
X75563769Y-123070375D01*
X75645661Y-123125094D01*
X75736655Y-123162785D01*
X75833254Y-123182000D01*
X75931746Y-123182000D01*
X76028345Y-123162785D01*
X76119339Y-123125094D01*
X76201231Y-123070375D01*
X76270875Y-123000731D01*
X76325594Y-122918839D01*
X76363285Y-122827845D01*
X76382500Y-122731246D01*
X76382500Y-122632754D01*
X76363285Y-122536155D01*
X76349673Y-122503292D01*
X78893000Y-122503292D01*
X78893000Y-122606708D01*
X78913176Y-122708137D01*
X78952751Y-122803681D01*
X79010206Y-122889668D01*
X79083332Y-122962794D01*
X79169319Y-123020249D01*
X79264863Y-123059824D01*
X79366292Y-123080000D01*
X79469708Y-123080000D01*
X79571137Y-123059824D01*
X79666681Y-123020249D01*
X79752668Y-122962794D01*
X79825794Y-122889668D01*
X79883249Y-122803681D01*
X79922824Y-122708137D01*
X79943000Y-122606708D01*
X79943000Y-122503292D01*
X79993000Y-122503292D01*
X79993000Y-122606708D01*
X80013176Y-122708137D01*
X80052751Y-122803681D01*
X80110206Y-122889668D01*
X80183332Y-122962794D01*
X80269319Y-123020249D01*
X80364863Y-123059824D01*
X80466292Y-123080000D01*
X80569708Y-123080000D01*
X80671137Y-123059824D01*
X80766681Y-123020249D01*
X80852668Y-122962794D01*
X80925794Y-122889668D01*
X80983249Y-122803681D01*
X81022824Y-122708137D01*
X81043000Y-122606708D01*
X81043000Y-122503292D01*
X81093000Y-122503292D01*
X81093000Y-122606708D01*
X81113176Y-122708137D01*
X81152751Y-122803681D01*
X81210206Y-122889668D01*
X81283332Y-122962794D01*
X81369319Y-123020249D01*
X81464863Y-123059824D01*
X81566292Y-123080000D01*
X81669708Y-123080000D01*
X81771137Y-123059824D01*
X81866681Y-123020249D01*
X81952668Y-122962794D01*
X82025794Y-122889668D01*
X82083249Y-122803681D01*
X82122824Y-122708137D01*
X82143000Y-122606708D01*
X82143000Y-122503292D01*
X82122824Y-122401863D01*
X82083249Y-122306319D01*
X82025794Y-122220332D01*
X81952668Y-122147206D01*
X81866681Y-122089751D01*
X81771137Y-122050176D01*
X81669708Y-122030000D01*
X81566292Y-122030000D01*
X81464863Y-122050176D01*
X81369319Y-122089751D01*
X81283332Y-122147206D01*
X81210206Y-122220332D01*
X81152751Y-122306319D01*
X81113176Y-122401863D01*
X81093000Y-122503292D01*
X81043000Y-122503292D01*
X81022824Y-122401863D01*
X80983249Y-122306319D01*
X80925794Y-122220332D01*
X80852668Y-122147206D01*
X80766681Y-122089751D01*
X80671137Y-122050176D01*
X80569708Y-122030000D01*
X80466292Y-122030000D01*
X80364863Y-122050176D01*
X80269319Y-122089751D01*
X80183332Y-122147206D01*
X80110206Y-122220332D01*
X80052751Y-122306319D01*
X80013176Y-122401863D01*
X79993000Y-122503292D01*
X79943000Y-122503292D01*
X79922824Y-122401863D01*
X79883249Y-122306319D01*
X79825794Y-122220332D01*
X79752668Y-122147206D01*
X79666681Y-122089751D01*
X79571137Y-122050176D01*
X79469708Y-122030000D01*
X79366292Y-122030000D01*
X79264863Y-122050176D01*
X79169319Y-122089751D01*
X79083332Y-122147206D01*
X79010206Y-122220332D01*
X78952751Y-122306319D01*
X78913176Y-122401863D01*
X78893000Y-122503292D01*
X76349673Y-122503292D01*
X76325594Y-122445161D01*
X76270875Y-122363269D01*
X76201231Y-122293625D01*
X76119339Y-122238906D01*
X76028345Y-122201215D01*
X75931746Y-122182000D01*
X75833254Y-122182000D01*
X75736655Y-122201215D01*
X75645661Y-122238906D01*
X75563769Y-122293625D01*
X75494125Y-122363269D01*
X75439406Y-122445161D01*
X75401715Y-122536155D01*
X75382500Y-122632754D01*
X62378000Y-122632754D01*
X62378000Y-121868292D01*
X62848000Y-121868292D01*
X62848000Y-121971708D01*
X62868176Y-122073137D01*
X62907751Y-122168681D01*
X62965206Y-122254668D01*
X63038332Y-122327794D01*
X63124319Y-122385249D01*
X63219863Y-122424824D01*
X63321292Y-122445000D01*
X63424708Y-122445000D01*
X63526137Y-122424824D01*
X63621681Y-122385249D01*
X63707668Y-122327794D01*
X63780794Y-122254668D01*
X63838249Y-122168681D01*
X63877824Y-122073137D01*
X63898000Y-121971708D01*
X63898000Y-121868292D01*
X65388000Y-121868292D01*
X65388000Y-121971708D01*
X65408176Y-122073137D01*
X65447751Y-122168681D01*
X65505206Y-122254668D01*
X65578332Y-122327794D01*
X65664319Y-122385249D01*
X65759863Y-122424824D01*
X65861292Y-122445000D01*
X65964708Y-122445000D01*
X66066137Y-122424824D01*
X66161681Y-122385249D01*
X66247668Y-122327794D01*
X66320794Y-122254668D01*
X66378249Y-122168681D01*
X66417824Y-122073137D01*
X66438000Y-121971708D01*
X66438000Y-121868292D01*
X66417824Y-121766863D01*
X66378249Y-121671319D01*
X66320794Y-121585332D01*
X66247668Y-121512206D01*
X66161681Y-121454751D01*
X66066137Y-121415176D01*
X66006394Y-121403292D01*
X78893000Y-121403292D01*
X78893000Y-121506708D01*
X78913176Y-121608137D01*
X78952751Y-121703681D01*
X79010206Y-121789668D01*
X79083332Y-121862794D01*
X79169319Y-121920249D01*
X79264863Y-121959824D01*
X79366292Y-121980000D01*
X79469708Y-121980000D01*
X79571137Y-121959824D01*
X79666681Y-121920249D01*
X79752668Y-121862794D01*
X79825794Y-121789668D01*
X79883249Y-121703681D01*
X79922824Y-121608137D01*
X79943000Y-121506708D01*
X79943000Y-121403292D01*
X79993000Y-121403292D01*
X79993000Y-121506708D01*
X80013176Y-121608137D01*
X80052751Y-121703681D01*
X80110206Y-121789668D01*
X80183332Y-121862794D01*
X80269319Y-121920249D01*
X80364863Y-121959824D01*
X80466292Y-121980000D01*
X80569708Y-121980000D01*
X80671137Y-121959824D01*
X80766681Y-121920249D01*
X80852668Y-121862794D01*
X80925794Y-121789668D01*
X80983249Y-121703681D01*
X81022824Y-121608137D01*
X81043000Y-121506708D01*
X81043000Y-121403292D01*
X81093000Y-121403292D01*
X81093000Y-121506708D01*
X81113176Y-121608137D01*
X81152751Y-121703681D01*
X81210206Y-121789668D01*
X81283332Y-121862794D01*
X81369319Y-121920249D01*
X81464863Y-121959824D01*
X81566292Y-121980000D01*
X81669708Y-121980000D01*
X81771137Y-121959824D01*
X81866681Y-121920249D01*
X81952668Y-121862794D01*
X82025794Y-121789668D01*
X82083249Y-121703681D01*
X82122824Y-121608137D01*
X82143000Y-121506708D01*
X82143000Y-121403292D01*
X82122824Y-121301863D01*
X82083249Y-121206319D01*
X82025794Y-121120332D01*
X81952668Y-121047206D01*
X81866681Y-120989751D01*
X81771137Y-120950176D01*
X81669708Y-120930000D01*
X81566292Y-120930000D01*
X81464863Y-120950176D01*
X81369319Y-120989751D01*
X81283332Y-121047206D01*
X81210206Y-121120332D01*
X81152751Y-121206319D01*
X81113176Y-121301863D01*
X81093000Y-121403292D01*
X81043000Y-121403292D01*
X81022824Y-121301863D01*
X80983249Y-121206319D01*
X80925794Y-121120332D01*
X80852668Y-121047206D01*
X80766681Y-120989751D01*
X80671137Y-120950176D01*
X80569708Y-120930000D01*
X80466292Y-120930000D01*
X80364863Y-120950176D01*
X80269319Y-120989751D01*
X80183332Y-121047206D01*
X80110206Y-121120332D01*
X80052751Y-121206319D01*
X80013176Y-121301863D01*
X79993000Y-121403292D01*
X79943000Y-121403292D01*
X79922824Y-121301863D01*
X79883249Y-121206319D01*
X79825794Y-121120332D01*
X79752668Y-121047206D01*
X79666681Y-120989751D01*
X79571137Y-120950176D01*
X79469708Y-120930000D01*
X79366292Y-120930000D01*
X79264863Y-120950176D01*
X79169319Y-120989751D01*
X79083332Y-121047206D01*
X79010206Y-121120332D01*
X78952751Y-121206319D01*
X78913176Y-121301863D01*
X78893000Y-121403292D01*
X66006394Y-121403292D01*
X65964708Y-121395000D01*
X65861292Y-121395000D01*
X65759863Y-121415176D01*
X65664319Y-121454751D01*
X65578332Y-121512206D01*
X65505206Y-121585332D01*
X65447751Y-121671319D01*
X65408176Y-121766863D01*
X65388000Y-121868292D01*
X63898000Y-121868292D01*
X63877824Y-121766863D01*
X63838249Y-121671319D01*
X63780794Y-121585332D01*
X63707668Y-121512206D01*
X63621681Y-121454751D01*
X63526137Y-121415176D01*
X63424708Y-121395000D01*
X63321292Y-121395000D01*
X63219863Y-121415176D01*
X63124319Y-121454751D01*
X63038332Y-121512206D01*
X62965206Y-121585332D01*
X62907751Y-121671319D01*
X62868176Y-121766863D01*
X62848000Y-121868292D01*
X62378000Y-121868292D01*
X62378000Y-120344292D01*
X70214000Y-120344292D01*
X70214000Y-120447708D01*
X70234176Y-120549137D01*
X70273751Y-120644681D01*
X70331206Y-120730668D01*
X70404332Y-120803794D01*
X70490319Y-120861249D01*
X70585863Y-120900824D01*
X70687292Y-120921000D01*
X70790708Y-120921000D01*
X70892137Y-120900824D01*
X70987681Y-120861249D01*
X71073668Y-120803794D01*
X71146794Y-120730668D01*
X71204249Y-120644681D01*
X71223463Y-120598292D01*
X81898000Y-120598292D01*
X81898000Y-120701708D01*
X81918176Y-120803137D01*
X81957751Y-120898681D01*
X82015206Y-120984668D01*
X82088332Y-121057794D01*
X82174319Y-121115249D01*
X82269863Y-121154824D01*
X82371292Y-121175000D01*
X82474708Y-121175000D01*
X82576137Y-121154824D01*
X82671681Y-121115249D01*
X82757668Y-121057794D01*
X82830794Y-120984668D01*
X82888249Y-120898681D01*
X82927824Y-120803137D01*
X82931000Y-120787171D01*
X82934176Y-120803137D01*
X82973751Y-120898681D01*
X83031206Y-120984668D01*
X83104332Y-121057794D01*
X83190319Y-121115249D01*
X83285863Y-121154824D01*
X83387292Y-121175000D01*
X83490708Y-121175000D01*
X83592137Y-121154824D01*
X83687681Y-121115249D01*
X83773668Y-121057794D01*
X83846794Y-120984668D01*
X83904249Y-120898681D01*
X83943824Y-120803137D01*
X83964000Y-120701708D01*
X83964000Y-120598292D01*
X83943824Y-120496863D01*
X83904249Y-120401319D01*
X83846794Y-120315332D01*
X83773668Y-120242206D01*
X83687681Y-120184751D01*
X83592137Y-120145176D01*
X83490708Y-120125000D01*
X83387292Y-120125000D01*
X83285863Y-120145176D01*
X83190319Y-120184751D01*
X83104332Y-120242206D01*
X83031206Y-120315332D01*
X82973751Y-120401319D01*
X82934176Y-120496863D01*
X82931000Y-120512829D01*
X82927824Y-120496863D01*
X82888249Y-120401319D01*
X82830794Y-120315332D01*
X82757668Y-120242206D01*
X82671681Y-120184751D01*
X82576137Y-120145176D01*
X82474708Y-120125000D01*
X82371292Y-120125000D01*
X82269863Y-120145176D01*
X82174319Y-120184751D01*
X82088332Y-120242206D01*
X82015206Y-120315332D01*
X81957751Y-120401319D01*
X81918176Y-120496863D01*
X81898000Y-120598292D01*
X71223463Y-120598292D01*
X71243824Y-120549137D01*
X71264000Y-120447708D01*
X71264000Y-120344292D01*
X71243824Y-120242863D01*
X71204249Y-120147319D01*
X71166145Y-120090292D01*
X85708000Y-120090292D01*
X85708000Y-120193708D01*
X85728176Y-120295137D01*
X85767751Y-120390681D01*
X85825206Y-120476668D01*
X85898332Y-120549794D01*
X85984319Y-120607249D01*
X86079863Y-120646824D01*
X86181292Y-120667000D01*
X86284708Y-120667000D01*
X86386137Y-120646824D01*
X86481681Y-120607249D01*
X86567668Y-120549794D01*
X86640794Y-120476668D01*
X86698249Y-120390681D01*
X86737824Y-120295137D01*
X86758000Y-120193708D01*
X86758000Y-120090292D01*
X86978000Y-120090292D01*
X86978000Y-120193708D01*
X86998176Y-120295137D01*
X87037751Y-120390681D01*
X87095206Y-120476668D01*
X87168332Y-120549794D01*
X87254319Y-120607249D01*
X87349863Y-120646824D01*
X87451292Y-120667000D01*
X87554708Y-120667000D01*
X87656137Y-120646824D01*
X87751681Y-120607249D01*
X87837668Y-120549794D01*
X87910794Y-120476668D01*
X87968249Y-120390681D01*
X88007824Y-120295137D01*
X88028000Y-120193708D01*
X88028000Y-120090292D01*
X88248000Y-120090292D01*
X88248000Y-120193708D01*
X88268176Y-120295137D01*
X88307751Y-120390681D01*
X88365206Y-120476668D01*
X88438332Y-120549794D01*
X88524319Y-120607249D01*
X88619863Y-120646824D01*
X88721292Y-120667000D01*
X88824708Y-120667000D01*
X88926137Y-120646824D01*
X89021681Y-120607249D01*
X89107668Y-120549794D01*
X89180794Y-120476668D01*
X89238249Y-120390681D01*
X89277824Y-120295137D01*
X89298000Y-120193708D01*
X89298000Y-120090292D01*
X89277824Y-119988863D01*
X89238249Y-119893319D01*
X89180794Y-119807332D01*
X89107668Y-119734206D01*
X89021681Y-119676751D01*
X88926137Y-119637176D01*
X88824708Y-119617000D01*
X88721292Y-119617000D01*
X88619863Y-119637176D01*
X88524319Y-119676751D01*
X88438332Y-119734206D01*
X88365206Y-119807332D01*
X88307751Y-119893319D01*
X88268176Y-119988863D01*
X88248000Y-120090292D01*
X88028000Y-120090292D01*
X88007824Y-119988863D01*
X87968249Y-119893319D01*
X87910794Y-119807332D01*
X87837668Y-119734206D01*
X87751681Y-119676751D01*
X87656137Y-119637176D01*
X87554708Y-119617000D01*
X87451292Y-119617000D01*
X87349863Y-119637176D01*
X87254319Y-119676751D01*
X87168332Y-119734206D01*
X87095206Y-119807332D01*
X87037751Y-119893319D01*
X86998176Y-119988863D01*
X86978000Y-120090292D01*
X86758000Y-120090292D01*
X86737824Y-119988863D01*
X86698249Y-119893319D01*
X86640794Y-119807332D01*
X86567668Y-119734206D01*
X86481681Y-119676751D01*
X86386137Y-119637176D01*
X86284708Y-119617000D01*
X86181292Y-119617000D01*
X86079863Y-119637176D01*
X85984319Y-119676751D01*
X85898332Y-119734206D01*
X85825206Y-119807332D01*
X85767751Y-119893319D01*
X85728176Y-119988863D01*
X85708000Y-120090292D01*
X71166145Y-120090292D01*
X71146794Y-120061332D01*
X71073668Y-119988206D01*
X70987681Y-119930751D01*
X70892137Y-119891176D01*
X70790708Y-119871000D01*
X70687292Y-119871000D01*
X70585863Y-119891176D01*
X70490319Y-119930751D01*
X70404332Y-119988206D01*
X70331206Y-120061332D01*
X70273751Y-120147319D01*
X70234176Y-120242863D01*
X70214000Y-120344292D01*
X62378000Y-120344292D01*
X62378000Y-119328292D01*
X69198000Y-119328292D01*
X69198000Y-119431708D01*
X69218176Y-119533137D01*
X69257751Y-119628681D01*
X69315206Y-119714668D01*
X69388332Y-119787794D01*
X69474319Y-119845249D01*
X69569863Y-119884824D01*
X69671292Y-119905000D01*
X69774708Y-119905000D01*
X69876137Y-119884824D01*
X69971681Y-119845249D01*
X70057668Y-119787794D01*
X70130794Y-119714668D01*
X70188249Y-119628681D01*
X70227824Y-119533137D01*
X70248000Y-119431708D01*
X70248000Y-119328292D01*
X70227824Y-119226863D01*
X70188249Y-119131319D01*
X70130794Y-119045332D01*
X70057668Y-118972206D01*
X70020382Y-118947292D01*
X71230000Y-118947292D01*
X71230000Y-119050708D01*
X71250176Y-119152137D01*
X71289751Y-119247681D01*
X71347206Y-119333668D01*
X71420332Y-119406794D01*
X71506319Y-119464249D01*
X71601863Y-119503824D01*
X71703292Y-119524000D01*
X71806708Y-119524000D01*
X71908137Y-119503824D01*
X72003681Y-119464249D01*
X72089668Y-119406794D01*
X72162794Y-119333668D01*
X72220249Y-119247681D01*
X72259824Y-119152137D01*
X72280000Y-119050708D01*
X72280000Y-118947292D01*
X72259824Y-118845863D01*
X72220249Y-118750319D01*
X72162794Y-118664332D01*
X72089668Y-118591206D01*
X72003681Y-118533751D01*
X71908137Y-118494176D01*
X71806708Y-118474000D01*
X71703292Y-118474000D01*
X71601863Y-118494176D01*
X71506319Y-118533751D01*
X71420332Y-118591206D01*
X71347206Y-118664332D01*
X71289751Y-118750319D01*
X71250176Y-118845863D01*
X71230000Y-118947292D01*
X70020382Y-118947292D01*
X69971681Y-118914751D01*
X69876137Y-118875176D01*
X69774708Y-118855000D01*
X69671292Y-118855000D01*
X69569863Y-118875176D01*
X69474319Y-118914751D01*
X69388332Y-118972206D01*
X69315206Y-119045332D01*
X69257751Y-119131319D01*
X69218176Y-119226863D01*
X69198000Y-119328292D01*
X62378000Y-119328292D01*
X62378000Y-117423292D01*
X62848000Y-117423292D01*
X62848000Y-117526708D01*
X62868176Y-117628137D01*
X62907751Y-117723681D01*
X62965206Y-117809668D01*
X63038332Y-117882794D01*
X63124319Y-117940249D01*
X63219863Y-117979824D01*
X63321292Y-118000000D01*
X63424708Y-118000000D01*
X63526137Y-117979824D01*
X63621681Y-117940249D01*
X63707668Y-117882794D01*
X63780794Y-117809668D01*
X63838249Y-117723681D01*
X63877824Y-117628137D01*
X63898000Y-117526708D01*
X63898000Y-117423292D01*
X65388000Y-117423292D01*
X65388000Y-117526708D01*
X65408176Y-117628137D01*
X65447751Y-117723681D01*
X65505206Y-117809668D01*
X65578332Y-117882794D01*
X65664319Y-117940249D01*
X65759863Y-117979824D01*
X65861292Y-118000000D01*
X65964708Y-118000000D01*
X66066137Y-117979824D01*
X66161681Y-117940249D01*
X66247668Y-117882794D01*
X66320794Y-117809668D01*
X66324386Y-117804292D01*
X71992000Y-117804292D01*
X71992000Y-117907708D01*
X72012176Y-118009137D01*
X72051751Y-118104681D01*
X72109206Y-118190668D01*
X72182332Y-118263794D01*
X72268319Y-118321249D01*
X72363863Y-118360824D01*
X72465292Y-118381000D01*
X72568708Y-118381000D01*
X72670137Y-118360824D01*
X72765681Y-118321249D01*
X72851668Y-118263794D01*
X72924794Y-118190668D01*
X72982249Y-118104681D01*
X73021824Y-118009137D01*
X73042000Y-117907708D01*
X73042000Y-117804292D01*
X73029369Y-117740792D01*
X73643000Y-117740792D01*
X73643000Y-117844208D01*
X73663176Y-117945637D01*
X73702751Y-118041181D01*
X73760206Y-118127168D01*
X73833332Y-118200294D01*
X73919319Y-118257749D01*
X74014863Y-118297324D01*
X74116292Y-118317500D01*
X74219708Y-118317500D01*
X74321137Y-118297324D01*
X74416681Y-118257749D01*
X74502668Y-118200294D01*
X74575794Y-118127168D01*
X74633249Y-118041181D01*
X74672824Y-117945637D01*
X74693000Y-117844208D01*
X74693000Y-117740792D01*
X74672824Y-117639363D01*
X74633249Y-117543819D01*
X74575794Y-117457832D01*
X74502668Y-117384706D01*
X74416681Y-117327251D01*
X74321137Y-117287676D01*
X74219708Y-117267500D01*
X74116292Y-117267500D01*
X74014863Y-117287676D01*
X73919319Y-117327251D01*
X73833332Y-117384706D01*
X73760206Y-117457832D01*
X73702751Y-117543819D01*
X73663176Y-117639363D01*
X73643000Y-117740792D01*
X73029369Y-117740792D01*
X73021824Y-117702863D01*
X72982249Y-117607319D01*
X72924794Y-117521332D01*
X72851668Y-117448206D01*
X72765681Y-117390751D01*
X72670137Y-117351176D01*
X72568708Y-117331000D01*
X72465292Y-117331000D01*
X72363863Y-117351176D01*
X72268319Y-117390751D01*
X72182332Y-117448206D01*
X72109206Y-117521332D01*
X72051751Y-117607319D01*
X72012176Y-117702863D01*
X71992000Y-117804292D01*
X66324386Y-117804292D01*
X66378249Y-117723681D01*
X66417824Y-117628137D01*
X66438000Y-117526708D01*
X66438000Y-117423292D01*
X66417824Y-117321863D01*
X66378249Y-117226319D01*
X66320794Y-117140332D01*
X66247668Y-117067206D01*
X66161681Y-117009751D01*
X66066137Y-116970176D01*
X65964708Y-116950000D01*
X65861292Y-116950000D01*
X65759863Y-116970176D01*
X65664319Y-117009751D01*
X65578332Y-117067206D01*
X65505206Y-117140332D01*
X65447751Y-117226319D01*
X65408176Y-117321863D01*
X65388000Y-117423292D01*
X63898000Y-117423292D01*
X63877824Y-117321863D01*
X63838249Y-117226319D01*
X63780794Y-117140332D01*
X63707668Y-117067206D01*
X63621681Y-117009751D01*
X63526137Y-116970176D01*
X63424708Y-116950000D01*
X63321292Y-116950000D01*
X63219863Y-116970176D01*
X63124319Y-117009751D01*
X63038332Y-117067206D01*
X62965206Y-117140332D01*
X62907751Y-117226319D01*
X62868176Y-117321863D01*
X62848000Y-117423292D01*
X62378000Y-117423292D01*
X62378000Y-116524520D01*
X71474230Y-116524520D01*
X71474230Y-116627936D01*
X71494406Y-116729365D01*
X71533981Y-116824909D01*
X71591436Y-116910896D01*
X71664562Y-116984022D01*
X71750549Y-117041477D01*
X71846093Y-117081052D01*
X71947522Y-117101228D01*
X72050938Y-117101228D01*
X72152367Y-117081052D01*
X72247911Y-117041477D01*
X72333898Y-116984022D01*
X72407024Y-116910896D01*
X72464479Y-116824909D01*
X72504054Y-116729365D01*
X72524230Y-116627936D01*
X72524230Y-116524520D01*
X72504054Y-116423091D01*
X72464479Y-116327547D01*
X72407024Y-116241560D01*
X72333898Y-116168434D01*
X72247911Y-116110979D01*
X72152367Y-116071404D01*
X72050938Y-116051228D01*
X71947522Y-116051228D01*
X71846093Y-116071404D01*
X71750549Y-116110979D01*
X71664562Y-116168434D01*
X71591436Y-116241560D01*
X71533981Y-116327547D01*
X71494406Y-116423091D01*
X71474230Y-116524520D01*
X62378000Y-116524520D01*
X62378000Y-116261330D01*
X64423000Y-116261330D01*
X64476909Y-116256020D01*
X64528747Y-116240296D01*
X64576521Y-116214760D01*
X64618395Y-116180395D01*
X64652760Y-116138521D01*
X64678296Y-116090747D01*
X64694020Y-116038909D01*
X64699330Y-115985000D01*
X64699330Y-115467334D01*
X64738800Y-115562623D01*
X64883805Y-115779638D01*
X65068362Y-115964195D01*
X65285377Y-116109200D01*
X65526512Y-116209081D01*
X65782499Y-116260000D01*
X66043501Y-116260000D01*
X66299488Y-116209081D01*
X66540623Y-116109200D01*
X66757638Y-115964195D01*
X66942195Y-115779638D01*
X67087200Y-115562623D01*
X67183000Y-115331340D01*
X67278800Y-115562623D01*
X67423805Y-115779638D01*
X67608362Y-115964195D01*
X67825377Y-116109200D01*
X68066512Y-116209081D01*
X68322499Y-116260000D01*
X68583501Y-116260000D01*
X68839488Y-116209081D01*
X69080623Y-116109200D01*
X69297638Y-115964195D01*
X69482195Y-115779638D01*
X69627200Y-115562623D01*
X69723000Y-115331340D01*
X69818800Y-115562623D01*
X69963805Y-115779638D01*
X70148362Y-115964195D01*
X70365377Y-116109200D01*
X70606512Y-116209081D01*
X70862499Y-116260000D01*
X71123501Y-116260000D01*
X71379488Y-116209081D01*
X71620623Y-116109200D01*
X71837638Y-115964195D01*
X72022195Y-115779638D01*
X72167200Y-115562623D01*
X72263000Y-115331340D01*
X72358800Y-115562623D01*
X72503805Y-115779638D01*
X72688362Y-115964195D01*
X72905377Y-116109200D01*
X73146512Y-116209081D01*
X73402499Y-116260000D01*
X73663501Y-116260000D01*
X73919488Y-116209081D01*
X74160623Y-116109200D01*
X74377638Y-115964195D01*
X74562195Y-115779638D01*
X74707200Y-115562623D01*
X74803000Y-115331340D01*
X74898800Y-115562623D01*
X75043805Y-115779638D01*
X75228362Y-115964195D01*
X75445377Y-116109200D01*
X75686512Y-116209081D01*
X75942499Y-116260000D01*
X76203501Y-116260000D01*
X76459488Y-116209081D01*
X76700623Y-116109200D01*
X76917638Y-115964195D01*
X77102195Y-115779638D01*
X77247200Y-115562623D01*
X77343000Y-115331340D01*
X77438800Y-115562623D01*
M02*
