%TF.GenerationSoftware,KiCad,Pcbnew,5.1.7+dfsg1-1~bpo10+1*%
%TF.CreationDate,Date%
%TF.ProjectId,ProMicro_BOOST,50726f4d-6963-4726-9f5f-424f4f53542e,v1.7*%
%TF.SameCoordinates,Original*%
%TF.FileFunction,Legend,Bot*%
%TF.FilePolarity,Positive*%
%FSLAX46Y46*%
G04 Gerber Fmt 4.6, Leading zero omitted, Abs format (unit mm)*
G04 Created by KiCad*
%MOMM*%
%LPD*%
G01*
G04 APERTURE LIST*
%ADD10C,0.200000*%
%ADD11C,0.237500*%
%ADD12C,0.120000*%
%ADD13C,0.010000*%
G04 APERTURE END LIST*
D10*
X13531666Y438096D02*
X13265000Y-361904D01*
X12998333Y438096D01*
X12465000Y57143D02*
X12350714Y19048D01*
X12312619Y-19047D01*
X12274523Y-95238D01*
X12274523Y-209523D01*
X12312619Y-285714D01*
X12350714Y-323809D01*
X12426904Y-361904D01*
X12731666Y-361904D01*
X12731666Y438096D01*
X12465000Y438096D01*
X12388809Y400000D01*
X12350714Y361905D01*
X12312619Y285715D01*
X12312619Y209524D01*
X12350714Y133334D01*
X12388809Y95239D01*
X12465000Y57143D01*
X12731666Y57143D01*
X11931666Y438096D02*
X11931666Y-209523D01*
X11893571Y-285714D01*
X11855476Y-323809D01*
X11779285Y-361904D01*
X11626904Y-361904D01*
X11550714Y-323809D01*
X11512619Y-285714D01*
X11474523Y-209523D01*
X11474523Y438096D01*
X11131666Y-323809D02*
X11017380Y-361904D01*
X10826904Y-361904D01*
X10750714Y-323809D01*
X10712619Y-285714D01*
X10674523Y-209523D01*
X10674523Y-133333D01*
X10712619Y-57142D01*
X10750714Y-19047D01*
X10826904Y19048D01*
X10979285Y57143D01*
X11055476Y95239D01*
X11093571Y133334D01*
X11131666Y209524D01*
X11131666Y285715D01*
X11093571Y361905D01*
X11055476Y400000D01*
X10979285Y438096D01*
X10788809Y438096D01*
X10674523Y400000D01*
X13055476Y8058096D02*
X12560238Y8058096D01*
X12826904Y7753334D01*
X12712619Y7753334D01*
X12636428Y7715239D01*
X12598333Y7677143D01*
X12560238Y7600953D01*
X12560238Y7410477D01*
X12598333Y7334286D01*
X12636428Y7296191D01*
X12712619Y7258096D01*
X12941190Y7258096D01*
X13017380Y7296191D01*
X13055476Y7334286D01*
X12331666Y8058096D02*
X12065000Y7258096D01*
X11798333Y8058096D01*
X11607857Y8058096D02*
X11112619Y8058096D01*
X11379285Y7753334D01*
X11265000Y7753334D01*
X11188809Y7715239D01*
X11150714Y7677143D01*
X11112619Y7600953D01*
X11112619Y7410477D01*
X11150714Y7334286D01*
X11188809Y7296191D01*
X11265000Y7258096D01*
X11493571Y7258096D01*
X11569761Y7296191D01*
X11607857Y7334286D01*
X4355952Y14916191D02*
X4241666Y14878096D01*
X4051190Y14878096D01*
X3975000Y14916191D01*
X3936904Y14954286D01*
X3898809Y15030477D01*
X3898809Y15106667D01*
X3936904Y15182858D01*
X3975000Y15220953D01*
X4051190Y15259048D01*
X4203571Y15297143D01*
X4279761Y15335239D01*
X4317857Y15373334D01*
X4355952Y15449524D01*
X4355952Y15525715D01*
X4317857Y15601905D01*
X4279761Y15640000D01*
X4203571Y15678096D01*
X4013095Y15678096D01*
X3898809Y15640000D01*
X3670238Y15678096D02*
X3213095Y15678096D01*
X3441666Y14878096D02*
X3441666Y15678096D01*
X2984523Y15106667D02*
X2603571Y15106667D01*
X3060714Y14878096D02*
X2794047Y15678096D01*
X2527380Y14878096D01*
X2375000Y15678096D02*
X1917857Y15678096D01*
X2146428Y14878096D02*
X2146428Y15678096D01*
X3784523Y8020000D02*
X3860714Y8058096D01*
X3975000Y8058096D01*
X4089285Y8020000D01*
X4165476Y7943810D01*
X4203571Y7867620D01*
X4241666Y7715239D01*
X4241666Y7600953D01*
X4203571Y7448572D01*
X4165476Y7372381D01*
X4089285Y7296191D01*
X3975000Y7258096D01*
X3898809Y7258096D01*
X3784523Y7296191D01*
X3746428Y7334286D01*
X3746428Y7600953D01*
X3898809Y7600953D01*
X3403571Y7258096D02*
X3403571Y8058096D01*
X2946428Y7258096D01*
X2946428Y8058096D01*
X2565476Y7258096D02*
X2565476Y8058096D01*
X2375000Y8058096D01*
X2260714Y8020000D01*
X2184523Y7943810D01*
X2146428Y7867620D01*
X2108333Y7715239D01*
X2108333Y7600953D01*
X2146428Y7448572D01*
X2184523Y7372381D01*
X2260714Y7296191D01*
X2375000Y7258096D01*
X2565476Y7258096D01*
X12674523Y2940000D02*
X12750714Y2978096D01*
X12865000Y2978096D01*
X12979285Y2940000D01*
X13055476Y2863810D01*
X13093571Y2787620D01*
X13131666Y2635239D01*
X13131666Y2520953D01*
X13093571Y2368572D01*
X13055476Y2292381D01*
X12979285Y2216191D01*
X12865000Y2178096D01*
X12788809Y2178096D01*
X12674523Y2216191D01*
X12636428Y2254286D01*
X12636428Y2520953D01*
X12788809Y2520953D01*
X12293571Y2178096D02*
X12293571Y2978096D01*
X11836428Y2178096D01*
X11836428Y2978096D01*
X11455476Y2178096D02*
X11455476Y2978096D01*
X11265000Y2978096D01*
X11150714Y2940000D01*
X11074523Y2863810D01*
X11036428Y2787620D01*
X10998333Y2635239D01*
X10998333Y2520953D01*
X11036428Y2368572D01*
X11074523Y2292381D01*
X11150714Y2216191D01*
X11265000Y2178096D01*
X11455476Y2178096D01*
D11*
X5753928Y16129435D02*
X6387261Y16129435D01*
X5844404Y16129435D02*
X5799166Y16084197D01*
X5753928Y15993721D01*
X5753928Y15858006D01*
X5799166Y15767530D01*
X5889642Y15722292D01*
X6387261Y15722292D01*
X6342023Y14908006D02*
X6387261Y14998483D01*
X6387261Y15179435D01*
X6342023Y15269911D01*
X6251547Y15315149D01*
X5889642Y15315149D01*
X5799166Y15269911D01*
X5753928Y15179435D01*
X5753928Y14998483D01*
X5799166Y14908006D01*
X5889642Y14862768D01*
X5980119Y14862768D01*
X6070595Y15315149D01*
X6387261Y14455625D02*
X5753928Y14455625D01*
X5934880Y14455625D02*
X5844404Y14410387D01*
X5799166Y14365149D01*
X5753928Y14274673D01*
X5753928Y14184197D01*
X6387261Y13460387D02*
X5437261Y13460387D01*
X6342023Y13460387D02*
X6387261Y13550864D01*
X6387261Y13731816D01*
X6342023Y13822292D01*
X6296785Y13867530D01*
X6206309Y13912768D01*
X5934880Y13912768D01*
X5844404Y13867530D01*
X5799166Y13822292D01*
X5753928Y13731816D01*
X5753928Y13550864D01*
X5799166Y13460387D01*
X5753928Y13098483D02*
X6387261Y12872292D01*
X5753928Y12646102D02*
X6387261Y12872292D01*
X6613452Y12962768D01*
X6658690Y13008006D01*
X6703928Y13098483D01*
X6342023Y12329435D02*
X6387261Y12238959D01*
X6387261Y12058006D01*
X6342023Y11967530D01*
X6251547Y11922292D01*
X6206309Y11922292D01*
X6115833Y11967530D01*
X6070595Y12058006D01*
X6070595Y12193721D01*
X6025357Y12284197D01*
X5934880Y12329435D01*
X5889642Y12329435D01*
X5799166Y12284197D01*
X5753928Y12193721D01*
X5753928Y12058006D01*
X5799166Y11967530D01*
X6342023Y11108006D02*
X6387261Y11198483D01*
X6387261Y11379435D01*
X6342023Y11469911D01*
X6296785Y11515149D01*
X6206309Y11560387D01*
X5934880Y11560387D01*
X5844404Y11515149D01*
X5799166Y11469911D01*
X5753928Y11379435D01*
X5753928Y11198483D01*
X5799166Y11108006D01*
X6387261Y10565149D02*
X6342023Y10655625D01*
X6296785Y10700864D01*
X6206309Y10746102D01*
X5934880Y10746102D01*
X5844404Y10700864D01*
X5799166Y10655625D01*
X5753928Y10565149D01*
X5753928Y10429435D01*
X5799166Y10338959D01*
X5844404Y10293721D01*
X5934880Y10248483D01*
X6206309Y10248483D01*
X6296785Y10293721D01*
X6342023Y10338959D01*
X6387261Y10429435D01*
X6387261Y10565149D01*
X5753928Y9434197D02*
X6387261Y9434197D01*
X5753928Y9841340D02*
X6251547Y9841340D01*
X6342023Y9796102D01*
X6387261Y9705625D01*
X6387261Y9569911D01*
X6342023Y9479435D01*
X6296785Y9434197D01*
X5753928Y9117530D02*
X5753928Y8755625D01*
X5437261Y8981816D02*
X6251547Y8981816D01*
X6342023Y8936578D01*
X6387261Y8846102D01*
X6387261Y8755625D01*
X6296785Y8438959D02*
X6342023Y8393721D01*
X6387261Y8438959D01*
X6342023Y8484197D01*
X6296785Y8438959D01*
X6387261Y8438959D01*
X5753928Y7579435D02*
X6522976Y7579435D01*
X6613452Y7624673D01*
X6658690Y7669911D01*
X6703928Y7760387D01*
X6703928Y7896102D01*
X6658690Y7986578D01*
X6342023Y7579435D02*
X6387261Y7669911D01*
X6387261Y7850864D01*
X6342023Y7941340D01*
X6296785Y7986578D01*
X6206309Y8031816D01*
X5934880Y8031816D01*
X5844404Y7986578D01*
X5799166Y7941340D01*
X5753928Y7850864D01*
X5753928Y7669911D01*
X5799166Y7579435D01*
X6387261Y7127054D02*
X5753928Y7127054D01*
X5437261Y7127054D02*
X5482500Y7172292D01*
X5527738Y7127054D01*
X5482500Y7081816D01*
X5437261Y7127054D01*
X5527738Y7127054D01*
X5753928Y6810387D02*
X5753928Y6448483D01*
X5437261Y6674673D02*
X6251547Y6674673D01*
X6342023Y6629435D01*
X6387261Y6538959D01*
X6387261Y6448483D01*
X6387261Y6131816D02*
X5437261Y6131816D01*
X6387261Y5724673D02*
X5889642Y5724673D01*
X5799166Y5769911D01*
X5753928Y5860387D01*
X5753928Y5996102D01*
X5799166Y6086578D01*
X5844404Y6131816D01*
X5753928Y4865149D02*
X6387261Y4865149D01*
X5753928Y5272292D02*
X6251547Y5272292D01*
X6342023Y5227054D01*
X6387261Y5136578D01*
X6387261Y5000864D01*
X6342023Y4910387D01*
X6296785Y4865149D01*
X6387261Y4412768D02*
X5437261Y4412768D01*
X5799166Y4412768D02*
X5753928Y4322292D01*
X5753928Y4141340D01*
X5799166Y4050864D01*
X5844404Y4005625D01*
X5934880Y3960387D01*
X6206309Y3960387D01*
X6296785Y4005625D01*
X6342023Y4050864D01*
X6387261Y4141340D01*
X6387261Y4322292D01*
X6342023Y4412768D01*
X6296785Y3553245D02*
X6342023Y3508006D01*
X6387261Y3553245D01*
X6342023Y3598483D01*
X6296785Y3553245D01*
X6387261Y3553245D01*
X6387261Y3100864D02*
X5753928Y3100864D01*
X5437261Y3100864D02*
X5482500Y3146102D01*
X5527738Y3100864D01*
X5482500Y3055625D01*
X5437261Y3100864D01*
X5527738Y3100864D01*
X6387261Y2512768D02*
X6342023Y2603245D01*
X6296785Y2648483D01*
X6206309Y2693721D01*
X5934880Y2693721D01*
X5844404Y2648483D01*
X5799166Y2603245D01*
X5753928Y2512768D01*
X5753928Y2377054D01*
X5799166Y2286578D01*
X5844404Y2241340D01*
X5934880Y2196102D01*
X6206309Y2196102D01*
X6296785Y2241340D01*
X6342023Y2286578D01*
X6387261Y2377054D01*
X6387261Y2512768D01*
X5392023Y1110387D02*
X6613452Y1924673D01*
X8049761Y16129435D02*
X7099761Y16129435D01*
X7099761Y15767530D01*
X7145000Y15677054D01*
X7190238Y15631816D01*
X7280714Y15586578D01*
X7416428Y15586578D01*
X7506904Y15631816D01*
X7552142Y15677054D01*
X7597380Y15767530D01*
X7597380Y16129435D01*
X8049761Y15179435D02*
X7416428Y15179435D01*
X7597380Y15179435D02*
X7506904Y15134197D01*
X7461666Y15088959D01*
X7416428Y14998483D01*
X7416428Y14908006D01*
X8049761Y14455625D02*
X8004523Y14546102D01*
X7959285Y14591340D01*
X7868809Y14636578D01*
X7597380Y14636578D01*
X7506904Y14591340D01*
X7461666Y14546102D01*
X7416428Y14455625D01*
X7416428Y14319911D01*
X7461666Y14229435D01*
X7506904Y14184197D01*
X7597380Y14138959D01*
X7868809Y14138959D01*
X7959285Y14184197D01*
X8004523Y14229435D01*
X8049761Y14319911D01*
X8049761Y14455625D01*
X8049761Y13731816D02*
X7099761Y13731816D01*
X7778333Y13415149D01*
X7099761Y13098483D01*
X8049761Y13098483D01*
X8049761Y12646102D02*
X7416428Y12646102D01*
X7099761Y12646102D02*
X7145000Y12691340D01*
X7190238Y12646102D01*
X7145000Y12600864D01*
X7099761Y12646102D01*
X7190238Y12646102D01*
X8004523Y11786578D02*
X8049761Y11877054D01*
X8049761Y12058006D01*
X8004523Y12148483D01*
X7959285Y12193721D01*
X7868809Y12238959D01*
X7597380Y12238959D01*
X7506904Y12193721D01*
X7461666Y12148483D01*
X7416428Y12058006D01*
X7416428Y11877054D01*
X7461666Y11786578D01*
X8049761Y11379435D02*
X7416428Y11379435D01*
X7597380Y11379435D02*
X7506904Y11334197D01*
X7461666Y11288959D01*
X7416428Y11198483D01*
X7416428Y11108006D01*
X8049761Y10655625D02*
X8004523Y10746102D01*
X7959285Y10791340D01*
X7868809Y10836578D01*
X7597380Y10836578D01*
X7506904Y10791340D01*
X7461666Y10746102D01*
X7416428Y10655625D01*
X7416428Y10519911D01*
X7461666Y10429435D01*
X7506904Y10384197D01*
X7597380Y10338959D01*
X7868809Y10338959D01*
X7959285Y10384197D01*
X8004523Y10429435D01*
X8049761Y10519911D01*
X8049761Y10655625D01*
X7054523Y9253245D02*
X8275952Y10067530D01*
X7552142Y8619911D02*
X7597380Y8484197D01*
X7642619Y8438959D01*
X7733095Y8393721D01*
X7868809Y8393721D01*
X7959285Y8438959D01*
X8004523Y8484197D01*
X8049761Y8574673D01*
X8049761Y8936578D01*
X7099761Y8936578D01*
X7099761Y8619911D01*
X7145000Y8529435D01*
X7190238Y8484197D01*
X7280714Y8438959D01*
X7371190Y8438959D01*
X7461666Y8484197D01*
X7506904Y8529435D01*
X7552142Y8619911D01*
X7552142Y8936578D01*
X7099761Y7805625D02*
X7099761Y7624673D01*
X7145000Y7534197D01*
X7235476Y7443721D01*
X7416428Y7398483D01*
X7733095Y7398483D01*
X7914047Y7443721D01*
X8004523Y7534197D01*
X8049761Y7624673D01*
X8049761Y7805625D01*
X8004523Y7896102D01*
X7914047Y7986578D01*
X7733095Y8031816D01*
X7416428Y8031816D01*
X7235476Y7986578D01*
X7145000Y7896102D01*
X7099761Y7805625D01*
X7099761Y6810387D02*
X7099761Y6629435D01*
X7145000Y6538959D01*
X7235476Y6448483D01*
X7416428Y6403245D01*
X7733095Y6403245D01*
X7914047Y6448483D01*
X8004523Y6538959D01*
X8049761Y6629435D01*
X8049761Y6810387D01*
X8004523Y6900864D01*
X7914047Y6991340D01*
X7733095Y7036578D01*
X7416428Y7036578D01*
X7235476Y6991340D01*
X7145000Y6900864D01*
X7099761Y6810387D01*
X8004523Y6041340D02*
X8049761Y5905625D01*
X8049761Y5679435D01*
X8004523Y5588959D01*
X7959285Y5543721D01*
X7868809Y5498483D01*
X7778333Y5498483D01*
X7687857Y5543721D01*
X7642619Y5588959D01*
X7597380Y5679435D01*
X7552142Y5860387D01*
X7506904Y5950864D01*
X7461666Y5996102D01*
X7371190Y6041340D01*
X7280714Y6041340D01*
X7190238Y5996102D01*
X7145000Y5950864D01*
X7099761Y5860387D01*
X7099761Y5634197D01*
X7145000Y5498483D01*
X7099761Y5227054D02*
X7099761Y4684197D01*
X8049761Y4955625D02*
X7099761Y4955625D01*
X9078928Y16219911D02*
X9712261Y15993721D01*
X9078928Y15767530D01*
X9712261Y14908006D02*
X9712261Y15450864D01*
X9712261Y15179435D02*
X8762261Y15179435D01*
X8897976Y15269911D01*
X8988452Y15360387D01*
X9033690Y15450864D01*
X9621785Y14500864D02*
X9667023Y14455625D01*
X9712261Y14500864D01*
X9667023Y14546102D01*
X9621785Y14500864D01*
X9712261Y14500864D01*
X8762261Y14138959D02*
X8762261Y13505625D01*
X9712261Y13912768D01*
D12*
%TO.C,A1*%
X-1420000Y1270000D02*
X-1420000Y29360000D01*
X13970000Y-1270000D02*
X13970000Y29360000D01*
X1270000Y1270000D02*
X-1420000Y1270000D01*
X1270000Y-1270000D02*
X1270000Y29360000D01*
X-1420000Y29360000D02*
X16660000Y29360000D01*
X16660000Y29360000D02*
X16660000Y-1270000D01*
X16660000Y-1270000D02*
X1270000Y-1270000D01*
D13*
%TO.C,LOGO1*%
G36*
X5088931Y21034186D02*
G01*
X5533555Y20950365D01*
X5661053Y20641080D01*
X5788551Y20331794D01*
X5536246Y19960754D01*
X5465996Y19856843D01*
X5403272Y19762913D01*
X5350938Y19683348D01*
X5311857Y19622530D01*
X5288893Y19584843D01*
X5283942Y19574579D01*
X5296676Y19556090D01*
X5331882Y19516580D01*
X5385062Y19460478D01*
X5451718Y19392213D01*
X5527354Y19316214D01*
X5607472Y19236908D01*
X5687574Y19158725D01*
X5763164Y19086093D01*
X5829745Y19023441D01*
X5882818Y18975197D01*
X5917887Y18945790D01*
X5929623Y18938759D01*
X5951260Y18948877D01*
X5998662Y18977241D01*
X6067193Y19020871D01*
X6152215Y19076782D01*
X6249093Y19141994D01*
X6304350Y19179781D01*
X6405248Y19248657D01*
X6496299Y19309860D01*
X6572970Y19360422D01*
X6630728Y19397372D01*
X6665043Y19417742D01*
X6672254Y19420803D01*
X6692748Y19413864D01*
X6740513Y19394949D01*
X6808832Y19366913D01*
X6890989Y19332609D01*
X6980270Y19294891D01*
X7069958Y19256613D01*
X7153338Y19220630D01*
X7223694Y19189794D01*
X7274310Y19166961D01*
X7298471Y19154983D01*
X7299422Y19154276D01*
X7304036Y19135469D01*
X7314328Y19085382D01*
X7329287Y19009207D01*
X7347901Y18912135D01*
X7369159Y18799357D01*
X7381418Y18733558D01*
X7404362Y18613050D01*
X7426195Y18504203D01*
X7445722Y18412524D01*
X7461748Y18343519D01*
X7473079Y18302696D01*
X7476674Y18294489D01*
X7501006Y18286452D01*
X7555959Y18279967D01*
X7635108Y18275030D01*
X7732026Y18271636D01*
X7840287Y18269782D01*
X7953465Y18269462D01*
X8065135Y18270673D01*
X8168868Y18273410D01*
X8258241Y18277669D01*
X8326826Y18283445D01*
X8368197Y18290733D01*
X8376810Y18295105D01*
X8387133Y18321236D01*
X8401892Y18376607D01*
X8419352Y18453893D01*
X8437780Y18545770D01*
X8443741Y18577842D01*
X8472066Y18732476D01*
X8494876Y18854625D01*
X8513080Y18948327D01*
X8527583Y19017616D01*
X8539292Y19066529D01*
X8549115Y19099103D01*
X8557956Y19119372D01*
X8566724Y19131374D01*
X8568457Y19133053D01*
X8596371Y19149816D01*
X8650695Y19175386D01*
X8724777Y19207212D01*
X8811965Y19242740D01*
X8905608Y19279417D01*
X8999052Y19314689D01*
X9085647Y19346004D01*
X9158740Y19370807D01*
X9211678Y19386546D01*
X9237811Y19390668D01*
X9238726Y19390324D01*
X9260086Y19376359D01*
X9307084Y19344678D01*
X9374827Y19298609D01*
X9458423Y19241482D01*
X9552982Y19176627D01*
X9579854Y19158157D01*
X9677275Y19092301D01*
X9766163Y19034350D01*
X9841412Y18987462D01*
X9897920Y18954793D01*
X9930581Y18939500D01*
X9934593Y18938759D01*
X9955684Y18951608D01*
X9997464Y18987112D01*
X10055445Y19040707D01*
X10125135Y19107829D01*
X10202045Y19183913D01*
X10281683Y19264396D01*
X10359561Y19344713D01*
X10431186Y19420301D01*
X10492070Y19486595D01*
X10537721Y19539031D01*
X10563650Y19573045D01*
X10567883Y19582455D01*
X10557912Y19604357D01*
X10531020Y19649200D01*
X10491736Y19709679D01*
X10460117Y19756211D01*
X10402098Y19840525D01*
X10333784Y19940374D01*
X10265579Y20040527D01*
X10229075Y20094373D01*
X10105800Y20276629D01*
X10188520Y20429619D01*
X10224759Y20499318D01*
X10252926Y20558586D01*
X10268991Y20598689D01*
X10271226Y20608897D01*
X10254722Y20621171D01*
X10208082Y20645387D01*
X10135609Y20679737D01*
X10041606Y20722412D01*
X9930374Y20771606D01*
X9806215Y20825510D01*
X9673432Y20882316D01*
X9536327Y20940218D01*
X9399202Y20997407D01*
X9266358Y21052076D01*
X9142098Y21102416D01*
X9030725Y21146620D01*
X8936539Y21182881D01*
X8863844Y21209391D01*
X8816941Y21224342D01*
X8800833Y21226746D01*
X8780286Y21207689D01*
X8746933Y21165964D01*
X8707702Y21110294D01*
X8704599Y21105622D01*
X8589423Y20961736D01*
X8455053Y20845717D01*
X8305784Y20758570D01*
X8145913Y20701301D01*
X7979737Y20674914D01*
X7811552Y20680415D01*
X7645655Y20718810D01*
X7486342Y20791105D01*
X7451487Y20812374D01*
X7310737Y20923004D01*
X7197714Y21053698D01*
X7113003Y21199936D01*
X7057194Y21357192D01*
X7030874Y21520943D01*
X7034630Y21686667D01*
X7069050Y21849838D01*
X7134723Y22005935D01*
X7232235Y22150433D01*
X7271813Y22195131D01*
X7395703Y22308888D01*
X7526124Y22391782D01*
X7672315Y22448644D01*
X7817088Y22480313D01*
X7979860Y22488131D01*
X8143440Y22462062D01*
X8302298Y22404755D01*
X8450906Y22318856D01*
X8583735Y22207014D01*
X8695256Y22071877D01*
X8707011Y22054117D01*
X8745508Y21997850D01*
X8778863Y21955077D01*
X8800160Y21934628D01*
X8800833Y21934331D01*
X8823871Y21938721D01*
X8876157Y21956124D01*
X8953390Y21984732D01*
X9051268Y22022735D01*
X9165491Y22068326D01*
X9291758Y22119697D01*
X9425767Y22175038D01*
X9563218Y22232542D01*
X9699808Y22290399D01*
X9831237Y22346802D01*
X9953205Y22399942D01*
X10061409Y22448010D01*
X10151549Y22489199D01*
X10219323Y22521699D01*
X10260430Y22543703D01*
X10271226Y22552564D01*
X10262819Y22579640D01*
X10240272Y22630303D01*
X10207613Y22695817D01*
X10188520Y22731841D01*
X10105800Y22884832D01*
X10229075Y23067088D01*
X10292228Y23160125D01*
X10361727Y23261985D01*
X10427165Y23357438D01*
X10460117Y23405250D01*
X10505273Y23472495D01*
X10541057Y23529436D01*
X10562938Y23568646D01*
X10567563Y23581381D01*
X10555085Y23599917D01*
X10520252Y23640941D01*
X10466678Y23700475D01*
X10397983Y23774542D01*
X10317781Y23859165D01*
X10266286Y23912685D01*
X10174286Y24006319D01*
X10091999Y24087241D01*
X10022945Y24152177D01*
X9970644Y24197858D01*
X9938616Y24221011D01*
X9932116Y24223232D01*
X9907394Y24212924D01*
X9857405Y24184439D01*
X9787212Y24140937D01*
X9701875Y24085577D01*
X9606456Y24021520D01*
X9579854Y24003303D01*
X9483167Y23936927D01*
X9396117Y23877378D01*
X9323595Y23827984D01*
X9270493Y23792075D01*
X9241703Y23772981D01*
X9238726Y23771136D01*
X9215782Y23773895D01*
X9165336Y23788538D01*
X9094041Y23812513D01*
X9008547Y23843266D01*
X8915507Y23878244D01*
X8821574Y23914893D01*
X8733399Y23950661D01*
X8657634Y23982994D01*
X8600931Y24009338D01*
X8569943Y24027142D01*
X8568457Y24028407D01*
X8559601Y24039294D01*
X8550843Y24057682D01*
X8541277Y24087606D01*
X8529996Y24133103D01*
X8516093Y24198209D01*
X8498663Y24286961D01*
X8476798Y24403393D01*
X8449591Y24551542D01*
X8443741Y24583618D01*
X8425374Y24678686D01*
X8407405Y24761565D01*
X8391569Y24824930D01*
X8379600Y24861458D01*
X8376810Y24866356D01*
X8352072Y24874427D01*
X8296790Y24880987D01*
X8217389Y24886033D01*
X8120296Y24889559D01*
X8011938Y24891561D01*
X7898740Y24892036D01*
X7787128Y24890977D01*
X7683529Y24888382D01*
X7594368Y24884246D01*
X7526072Y24878563D01*
X7485066Y24871331D01*
X7476674Y24866971D01*
X7468208Y24842698D01*
X7454435Y24787426D01*
X7436550Y24706662D01*
X7415748Y24605912D01*
X7393223Y24490683D01*
X7381418Y24427902D01*
X7359151Y24308787D01*
X7338979Y24202565D01*
X7321915Y24114427D01*
X7308969Y24049566D01*
X7301155Y24013174D01*
X7299422Y24007184D01*
X7279890Y23997061D01*
X7232843Y23975662D01*
X7165003Y23945839D01*
X7083091Y23910445D01*
X6993828Y23872332D01*
X6903935Y23834353D01*
X6820135Y23799360D01*
X6749147Y23770206D01*
X6697694Y23749743D01*
X6672497Y23740823D01*
X6671396Y23740657D01*
X6651519Y23750769D01*
X6605777Y23779117D01*
X6538717Y23822723D01*
X6454884Y23878606D01*
X6358826Y23943787D01*
X6303650Y23981679D01*
X6202481Y24050725D01*
X6110630Y24112050D01*
X6032744Y24162663D01*
X5973469Y24199571D01*
X5937451Y24219782D01*
X5929377Y24222701D01*
X5910584Y24210153D01*
X5870457Y24175463D01*
X5813493Y24123063D01*
X5744185Y24057384D01*
X5667031Y23982856D01*
X5586525Y23903913D01*
X5507163Y23824983D01*
X5433440Y23750500D01*
X5369852Y23684894D01*
X5320894Y23632596D01*
X5291061Y23598039D01*
X5283942Y23586478D01*
X5293953Y23567654D01*
X5322078Y23522631D01*
X5365454Y23455787D01*
X5421218Y23371499D01*
X5486506Y23274144D01*
X5536246Y23200707D01*
X5788551Y22829667D01*
X5533555Y22211095D01*
X5088931Y22127275D01*
X4644307Y22043454D01*
X4644307Y21118006D01*
X5088931Y21034186D01*
G37*
X5088931Y21034186D02*
X5533555Y20950365D01*
X5661053Y20641080D01*
X5788551Y20331794D01*
X5536246Y19960754D01*
X5465996Y19856843D01*
X5403272Y19762913D01*
X5350938Y19683348D01*
X5311857Y19622530D01*
X5288893Y19584843D01*
X5283942Y19574579D01*
X5296676Y19556090D01*
X5331882Y19516580D01*
X5385062Y19460478D01*
X5451718Y19392213D01*
X5527354Y19316214D01*
X5607472Y19236908D01*
X5687574Y19158725D01*
X5763164Y19086093D01*
X5829745Y19023441D01*
X5882818Y18975197D01*
X5917887Y18945790D01*
X5929623Y18938759D01*
X5951260Y18948877D01*
X5998662Y18977241D01*
X6067193Y19020871D01*
X6152215Y19076782D01*
X6249093Y19141994D01*
X6304350Y19179781D01*
X6405248Y19248657D01*
X6496299Y19309860D01*
X6572970Y19360422D01*
X6630728Y19397372D01*
X6665043Y19417742D01*
X6672254Y19420803D01*
X6692748Y19413864D01*
X6740513Y19394949D01*
X6808832Y19366913D01*
X6890989Y19332609D01*
X6980270Y19294891D01*
X7069958Y19256613D01*
X7153338Y19220630D01*
X7223694Y19189794D01*
X7274310Y19166961D01*
X7298471Y19154983D01*
X7299422Y19154276D01*
X7304036Y19135469D01*
X7314328Y19085382D01*
X7329287Y19009207D01*
X7347901Y18912135D01*
X7369159Y18799357D01*
X7381418Y18733558D01*
X7404362Y18613050D01*
X7426195Y18504203D01*
X7445722Y18412524D01*
X7461748Y18343519D01*
X7473079Y18302696D01*
X7476674Y18294489D01*
X7501006Y18286452D01*
X7555959Y18279967D01*
X7635108Y18275030D01*
X7732026Y18271636D01*
X7840287Y18269782D01*
X7953465Y18269462D01*
X8065135Y18270673D01*
X8168868Y18273410D01*
X8258241Y18277669D01*
X8326826Y18283445D01*
X8368197Y18290733D01*
X8376810Y18295105D01*
X8387133Y18321236D01*
X8401892Y18376607D01*
X8419352Y18453893D01*
X8437780Y18545770D01*
X8443741Y18577842D01*
X8472066Y18732476D01*
X8494876Y18854625D01*
X8513080Y18948327D01*
X8527583Y19017616D01*
X8539292Y19066529D01*
X8549115Y19099103D01*
X8557956Y19119372D01*
X8566724Y19131374D01*
X8568457Y19133053D01*
X8596371Y19149816D01*
X8650695Y19175386D01*
X8724777Y19207212D01*
X8811965Y19242740D01*
X8905608Y19279417D01*
X8999052Y19314689D01*
X9085647Y19346004D01*
X9158740Y19370807D01*
X9211678Y19386546D01*
X9237811Y19390668D01*
X9238726Y19390324D01*
X9260086Y19376359D01*
X9307084Y19344678D01*
X9374827Y19298609D01*
X9458423Y19241482D01*
X9552982Y19176627D01*
X9579854Y19158157D01*
X9677275Y19092301D01*
X9766163Y19034350D01*
X9841412Y18987462D01*
X9897920Y18954793D01*
X9930581Y18939500D01*
X9934593Y18938759D01*
X9955684Y18951608D01*
X9997464Y18987112D01*
X10055445Y19040707D01*
X10125135Y19107829D01*
X10202045Y19183913D01*
X10281683Y19264396D01*
X10359561Y19344713D01*
X10431186Y19420301D01*
X10492070Y19486595D01*
X10537721Y19539031D01*
X10563650Y19573045D01*
X10567883Y19582455D01*
X10557912Y19604357D01*
X10531020Y19649200D01*
X10491736Y19709679D01*
X10460117Y19756211D01*
X10402098Y19840525D01*
X10333784Y19940374D01*
X10265579Y20040527D01*
X10229075Y20094373D01*
X10105800Y20276629D01*
X10188520Y20429619D01*
X10224759Y20499318D01*
X10252926Y20558586D01*
X10268991Y20598689D01*
X10271226Y20608897D01*
X10254722Y20621171D01*
X10208082Y20645387D01*
X10135609Y20679737D01*
X10041606Y20722412D01*
X9930374Y20771606D01*
X9806215Y20825510D01*
X9673432Y20882316D01*
X9536327Y20940218D01*
X9399202Y20997407D01*
X9266358Y21052076D01*
X9142098Y21102416D01*
X9030725Y21146620D01*
X8936539Y21182881D01*
X8863844Y21209391D01*
X8816941Y21224342D01*
X8800833Y21226746D01*
X8780286Y21207689D01*
X8746933Y21165964D01*
X8707702Y21110294D01*
X8704599Y21105622D01*
X8589423Y20961736D01*
X8455053Y20845717D01*
X8305784Y20758570D01*
X8145913Y20701301D01*
X7979737Y20674914D01*
X7811552Y20680415D01*
X7645655Y20718810D01*
X7486342Y20791105D01*
X7451487Y20812374D01*
X7310737Y20923004D01*
X7197714Y21053698D01*
X7113003Y21199936D01*
X7057194Y21357192D01*
X7030874Y21520943D01*
X7034630Y21686667D01*
X7069050Y21849838D01*
X7134723Y22005935D01*
X7232235Y22150433D01*
X7271813Y22195131D01*
X7395703Y22308888D01*
X7526124Y22391782D01*
X7672315Y22448644D01*
X7817088Y22480313D01*
X7979860Y22488131D01*
X8143440Y22462062D01*
X8302298Y22404755D01*
X8450906Y22318856D01*
X8583735Y22207014D01*
X8695256Y22071877D01*
X8707011Y22054117D01*
X8745508Y21997850D01*
X8778863Y21955077D01*
X8800160Y21934628D01*
X8800833Y21934331D01*
X8823871Y21938721D01*
X8876157Y21956124D01*
X8953390Y21984732D01*
X9051268Y22022735D01*
X9165491Y22068326D01*
X9291758Y22119697D01*
X9425767Y22175038D01*
X9563218Y22232542D01*
X9699808Y22290399D01*
X9831237Y22346802D01*
X9953205Y22399942D01*
X10061409Y22448010D01*
X10151549Y22489199D01*
X10219323Y22521699D01*
X10260430Y22543703D01*
X10271226Y22552564D01*
X10262819Y22579640D01*
X10240272Y22630303D01*
X10207613Y22695817D01*
X10188520Y22731841D01*
X10105800Y22884832D01*
X10229075Y23067088D01*
X10292228Y23160125D01*
X10361727Y23261985D01*
X10427165Y23357438D01*
X10460117Y23405250D01*
X10505273Y23472495D01*
X10541057Y23529436D01*
X10562938Y23568646D01*
X10567563Y23581381D01*
X10555085Y23599917D01*
X10520252Y23640941D01*
X10466678Y23700475D01*
X10397983Y23774542D01*
X10317781Y23859165D01*
X10266286Y23912685D01*
X10174286Y24006319D01*
X10091999Y24087241D01*
X10022945Y24152177D01*
X9970644Y24197858D01*
X9938616Y24221011D01*
X9932116Y24223232D01*
X9907394Y24212924D01*
X9857405Y24184439D01*
X9787212Y24140937D01*
X9701875Y24085577D01*
X9606456Y24021520D01*
X9579854Y24003303D01*
X9483167Y23936927D01*
X9396117Y23877378D01*
X9323595Y23827984D01*
X9270493Y23792075D01*
X9241703Y23772981D01*
X9238726Y23771136D01*
X9215782Y23773895D01*
X9165336Y23788538D01*
X9094041Y23812513D01*
X9008547Y23843266D01*
X8915507Y23878244D01*
X8821574Y23914893D01*
X8733399Y23950661D01*
X8657634Y23982994D01*
X8600931Y24009338D01*
X8569943Y24027142D01*
X8568457Y24028407D01*
X8559601Y24039294D01*
X8550843Y24057682D01*
X8541277Y24087606D01*
X8529996Y24133103D01*
X8516093Y24198209D01*
X8498663Y24286961D01*
X8476798Y24403393D01*
X8449591Y24551542D01*
X8443741Y24583618D01*
X8425374Y24678686D01*
X8407405Y24761565D01*
X8391569Y24824930D01*
X8379600Y24861458D01*
X8376810Y24866356D01*
X8352072Y24874427D01*
X8296790Y24880987D01*
X8217389Y24886033D01*
X8120296Y24889559D01*
X8011938Y24891561D01*
X7898740Y24892036D01*
X7787128Y24890977D01*
X7683529Y24888382D01*
X7594368Y24884246D01*
X7526072Y24878563D01*
X7485066Y24871331D01*
X7476674Y24866971D01*
X7468208Y24842698D01*
X7454435Y24787426D01*
X7436550Y24706662D01*
X7415748Y24605912D01*
X7393223Y24490683D01*
X7381418Y24427902D01*
X7359151Y24308787D01*
X7338979Y24202565D01*
X7321915Y24114427D01*
X7308969Y24049566D01*
X7301155Y24013174D01*
X7299422Y24007184D01*
X7279890Y23997061D01*
X7232843Y23975662D01*
X7165003Y23945839D01*
X7083091Y23910445D01*
X6993828Y23872332D01*
X6903935Y23834353D01*
X6820135Y23799360D01*
X6749147Y23770206D01*
X6697694Y23749743D01*
X6672497Y23740823D01*
X6671396Y23740657D01*
X6651519Y23750769D01*
X6605777Y23779117D01*
X6538717Y23822723D01*
X6454884Y23878606D01*
X6358826Y23943787D01*
X6303650Y23981679D01*
X6202481Y24050725D01*
X6110630Y24112050D01*
X6032744Y24162663D01*
X5973469Y24199571D01*
X5937451Y24219782D01*
X5929377Y24222701D01*
X5910584Y24210153D01*
X5870457Y24175463D01*
X5813493Y24123063D01*
X5744185Y24057384D01*
X5667031Y23982856D01*
X5586525Y23903913D01*
X5507163Y23824983D01*
X5433440Y23750500D01*
X5369852Y23684894D01*
X5320894Y23632596D01*
X5291061Y23598039D01*
X5283942Y23586478D01*
X5293953Y23567654D01*
X5322078Y23522631D01*
X5365454Y23455787D01*
X5421218Y23371499D01*
X5486506Y23274144D01*
X5536246Y23200707D01*
X5788551Y22829667D01*
X5533555Y22211095D01*
X5088931Y22127275D01*
X4644307Y22043454D01*
X4644307Y21118006D01*
X5088931Y21034186D01*
D12*
%TO.C,TP1*%
X13900000Y21590000D02*
G75*
G03*
X13900000Y21590000I-1200000J0D01*
G01*
%TD*%
%TO.C,TP1*%
D10*
X13379285Y20123096D02*
X13112619Y19323096D01*
X12845952Y20123096D01*
X12312619Y19742143D02*
X12198333Y19704048D01*
X12160238Y19665953D01*
X12122142Y19589762D01*
X12122142Y19475477D01*
X12160238Y19399286D01*
X12198333Y19361191D01*
X12274523Y19323096D01*
X12579285Y19323096D01*
X12579285Y20123096D01*
X12312619Y20123096D01*
X12236428Y20085000D01*
X12198333Y20046905D01*
X12160238Y19970715D01*
X12160238Y19894524D01*
X12198333Y19818334D01*
X12236428Y19780239D01*
X12312619Y19742143D01*
X12579285Y19742143D01*
X11817380Y19551667D02*
X11436428Y19551667D01*
X11893571Y19323096D02*
X11626904Y20123096D01*
X11360238Y19323096D01*
X11207857Y20123096D02*
X10750714Y20123096D01*
X10979285Y19323096D02*
X10979285Y20123096D01*
%TD*%
M02*
