%TF.GenerationSoftware,KiCad,Pcbnew,5.1.7+dfsg1-1~bpo10+1*%
%TF.CreationDate,Date%
%TF.ProjectId,ProMicro_BOOST,50726f4d-6963-4726-9f5f-424f4f53542e,v1.7*%
%TF.SameCoordinates,Original*%
%TF.FileFunction,Other,Fab,Top*%
%FSLAX46Y46*%
G04 Gerber Fmt 4.6, Leading zero omitted, Abs format (unit mm)*
G04 Created by KiCad*
%MOMM*%
%LPD*%
G01*
G04 APERTURE LIST*
%ADD10C,0.100000*%
%ADD11C,0.060000*%
%ADD12C,0.075000*%
G04 APERTURE END LIST*
D10*
%TO.C,L1*%
X2207000Y26241000D02*
X8207000Y26241000D01*
X2207000Y26241000D02*
X2207000Y20241000D01*
X2207000Y20241000D02*
X8207000Y20241000D01*
X8207000Y20241000D02*
X8207000Y26241000D01*
%TO.C,C3*%
X3975000Y19450000D02*
X3975000Y18650000D01*
X3975000Y18650000D02*
X2375000Y18650000D01*
X2375000Y18650000D02*
X2375000Y19450000D01*
X2375000Y19450000D02*
X3975000Y19450000D01*
%TO.C,C6*%
X11265000Y18650000D02*
X11265000Y19450000D01*
X11265000Y19450000D02*
X12865000Y19450000D01*
X12865000Y19450000D02*
X12865000Y18650000D01*
X12865000Y18650000D02*
X11265000Y18650000D01*
%TO.C,C7*%
X11265000Y16745000D02*
X11265000Y17545000D01*
X11265000Y17545000D02*
X12865000Y17545000D01*
X12865000Y17545000D02*
X12865000Y16745000D01*
X12865000Y16745000D02*
X11265000Y16745000D01*
%TO.C,C5*%
X5315000Y11595000D02*
X6115000Y11595000D01*
X6115000Y11595000D02*
X6115000Y9995000D01*
X6115000Y9995000D02*
X5315000Y9995000D01*
X5315000Y9995000D02*
X5315000Y11595000D01*
%TO.C,C4*%
X3975000Y17545000D02*
X3975000Y16745000D01*
X3975000Y16745000D02*
X2375000Y16745000D01*
X2375000Y16745000D02*
X2375000Y17545000D01*
X2375000Y17545000D02*
X3975000Y17545000D01*
%TO.C,R8*%
X11265000Y12935000D02*
X11265000Y13735000D01*
X11265000Y13735000D02*
X12865000Y13735000D01*
X12865000Y13735000D02*
X12865000Y12935000D01*
X12865000Y12935000D02*
X11265000Y12935000D01*
%TO.C,R7*%
X12865000Y15640000D02*
X12865000Y14840000D01*
X12865000Y14840000D02*
X11265000Y14840000D01*
X11265000Y14840000D02*
X11265000Y15640000D01*
X11265000Y15640000D02*
X12865000Y15640000D01*
%TO.C,R6*%
X2375000Y14840000D02*
X2375000Y15640000D01*
X2375000Y15640000D02*
X3975000Y15640000D01*
X3975000Y15640000D02*
X3975000Y14840000D01*
X3975000Y14840000D02*
X2375000Y14840000D01*
%TO.C,R5*%
X3975000Y13735000D02*
X3975000Y12935000D01*
X3975000Y12935000D02*
X2375000Y12935000D01*
X2375000Y12935000D02*
X2375000Y13735000D01*
X2375000Y13735000D02*
X3975000Y13735000D01*
%TO.C,R4*%
X8420000Y13735000D02*
X8420000Y12935000D01*
X8420000Y12935000D02*
X6820000Y12935000D01*
X6820000Y12935000D02*
X6820000Y13735000D01*
X6820000Y13735000D02*
X8420000Y13735000D01*
%TO.C,R3*%
X13862000Y23965000D02*
X13062000Y23965000D01*
X13062000Y23965000D02*
X13062000Y25565000D01*
X13062000Y25565000D02*
X13862000Y25565000D01*
X13862000Y25565000D02*
X13862000Y23965000D01*
%TO.C,U2*%
X9620000Y18145000D02*
X9620000Y15145000D01*
X9620000Y15145000D02*
X5620000Y15145000D01*
X5620000Y15145000D02*
X5620000Y19145000D01*
X5620000Y19145000D02*
X8620000Y19145000D01*
X8620000Y19145000D02*
X9620000Y18145000D01*
%TO.C,U1*%
X9895000Y25665000D02*
X10545000Y26315000D01*
X11695000Y26315000D02*
X10545000Y26315000D01*
X9895000Y25665000D02*
X9895000Y23215000D01*
X11695000Y23215000D02*
X9895000Y23215000D01*
X11695000Y26315000D02*
X11695000Y23215000D01*
%TO.C,J1*%
X3670000Y7010000D02*
X4470000Y7010000D01*
X4470000Y7010000D02*
X4470000Y5410000D01*
X4470000Y5410000D02*
X10770000Y5410000D01*
X10770000Y5410000D02*
X10770000Y7010000D01*
X10770000Y7010000D02*
X11570000Y7010000D01*
X3670000Y-590000D02*
X11570000Y-590000D01*
X3670000Y7010000D02*
X3670000Y-590000D01*
X11570000Y7010000D02*
X11570000Y-590000D01*
X6120000Y5410000D02*
X6620000Y4702893D01*
X6620000Y4702893D02*
X7120000Y5410000D01*
%TO.C,R2*%
X2305000Y9995000D02*
X1505000Y9995000D01*
X1505000Y9995000D02*
X1505000Y11595000D01*
X1505000Y11595000D02*
X2305000Y11595000D01*
X2305000Y11595000D02*
X2305000Y9995000D01*
%TO.C,R1*%
X3410000Y11595000D02*
X4210000Y11595000D01*
X4210000Y11595000D02*
X4210000Y9995000D01*
X4210000Y9995000D02*
X3410000Y9995000D01*
X3410000Y9995000D02*
X3410000Y11595000D01*
%TO.C,C1*%
X11830000Y9995000D02*
X11030000Y9995000D01*
X11030000Y9995000D02*
X11030000Y11595000D01*
X11030000Y11595000D02*
X11830000Y11595000D01*
X11830000Y11595000D02*
X11830000Y9995000D01*
%TO.C,F1*%
X8020000Y9995000D02*
X7220000Y9995000D01*
X7220000Y9995000D02*
X7220000Y11595000D01*
X7220000Y11595000D02*
X8020000Y11595000D01*
X8020000Y11595000D02*
X8020000Y9995000D01*
%TO.C,D1*%
X9125000Y11595000D02*
X9125000Y10295000D01*
X9125000Y10295000D02*
X9425000Y9995000D01*
X9425000Y9995000D02*
X9925000Y9995000D01*
X9925000Y9995000D02*
X9925000Y11595000D01*
X9925000Y11595000D02*
X9125000Y11595000D01*
%TO.C,C2*%
X12935000Y11595000D02*
X13735000Y11595000D01*
X13735000Y11595000D02*
X13735000Y9995000D01*
X13735000Y9995000D02*
X12935000Y9995000D01*
X12935000Y9995000D02*
X12935000Y11595000D01*
%TD*%
%TO.C,TP1*%
D11*
X12480952Y21085239D02*
X12480952Y21313810D01*
X12880952Y21199524D02*
X12480952Y21199524D01*
X12880952Y21447143D02*
X12480952Y21447143D01*
X12480952Y21599524D01*
X12500000Y21637620D01*
X12519047Y21656667D01*
X12557142Y21675715D01*
X12614285Y21675715D01*
X12652380Y21656667D01*
X12671428Y21637620D01*
X12690476Y21599524D01*
X12690476Y21447143D01*
X12880952Y22056667D02*
X12880952Y21828096D01*
X12880952Y21942381D02*
X12480952Y21942381D01*
X12538095Y21904286D01*
X12576190Y21866191D01*
X12595238Y21828096D01*
%TO.C,L1*%
X5026047Y23307667D02*
X5026047Y23498143D01*
X5426047Y23498143D01*
X5026047Y22964810D02*
X5026047Y23193381D01*
X5026047Y23079096D02*
X5426047Y23079096D01*
X5368904Y23117191D01*
X5330809Y23155286D01*
X5311761Y23193381D01*
%TO.C,C3*%
X3108333Y18907143D02*
X3089285Y18888096D01*
X3032142Y18869048D01*
X2994047Y18869048D01*
X2936904Y18888096D01*
X2898809Y18926191D01*
X2879761Y18964286D01*
X2860714Y19040477D01*
X2860714Y19097620D01*
X2879761Y19173810D01*
X2898809Y19211905D01*
X2936904Y19250000D01*
X2994047Y19269048D01*
X3032142Y19269048D01*
X3089285Y19250000D01*
X3108333Y19230953D01*
X3241666Y19269048D02*
X3489285Y19269048D01*
X3355952Y19116667D01*
X3413095Y19116667D01*
X3451190Y19097620D01*
X3470238Y19078572D01*
X3489285Y19040477D01*
X3489285Y18945239D01*
X3470238Y18907143D01*
X3451190Y18888096D01*
X3413095Y18869048D01*
X3298809Y18869048D01*
X3260714Y18888096D01*
X3241666Y18907143D01*
%TO.C,C6*%
X11998333Y18907143D02*
X11979285Y18888096D01*
X11922142Y18869048D01*
X11884047Y18869048D01*
X11826904Y18888096D01*
X11788809Y18926191D01*
X11769761Y18964286D01*
X11750714Y19040477D01*
X11750714Y19097620D01*
X11769761Y19173810D01*
X11788809Y19211905D01*
X11826904Y19250000D01*
X11884047Y19269048D01*
X11922142Y19269048D01*
X11979285Y19250000D01*
X11998333Y19230953D01*
X12341190Y19269048D02*
X12265000Y19269048D01*
X12226904Y19250000D01*
X12207857Y19230953D01*
X12169761Y19173810D01*
X12150714Y19097620D01*
X12150714Y18945239D01*
X12169761Y18907143D01*
X12188809Y18888096D01*
X12226904Y18869048D01*
X12303095Y18869048D01*
X12341190Y18888096D01*
X12360238Y18907143D01*
X12379285Y18945239D01*
X12379285Y19040477D01*
X12360238Y19078572D01*
X12341190Y19097620D01*
X12303095Y19116667D01*
X12226904Y19116667D01*
X12188809Y19097620D01*
X12169761Y19078572D01*
X12150714Y19040477D01*
%TO.C,C7*%
X11998333Y17002143D02*
X11979285Y16983096D01*
X11922142Y16964048D01*
X11884047Y16964048D01*
X11826904Y16983096D01*
X11788809Y17021191D01*
X11769761Y17059286D01*
X11750714Y17135477D01*
X11750714Y17192620D01*
X11769761Y17268810D01*
X11788809Y17306905D01*
X11826904Y17345000D01*
X11884047Y17364048D01*
X11922142Y17364048D01*
X11979285Y17345000D01*
X11998333Y17325953D01*
X12131666Y17364048D02*
X12398333Y17364048D01*
X12226904Y16964048D01*
%TO.C,C5*%
X5857857Y10728334D02*
X5876904Y10709286D01*
X5895952Y10652143D01*
X5895952Y10614048D01*
X5876904Y10556905D01*
X5838809Y10518810D01*
X5800714Y10499762D01*
X5724523Y10480715D01*
X5667380Y10480715D01*
X5591190Y10499762D01*
X5553095Y10518810D01*
X5515000Y10556905D01*
X5495952Y10614048D01*
X5495952Y10652143D01*
X5515000Y10709286D01*
X5534047Y10728334D01*
X5495952Y11090239D02*
X5495952Y10899762D01*
X5686428Y10880715D01*
X5667380Y10899762D01*
X5648333Y10937858D01*
X5648333Y11033096D01*
X5667380Y11071191D01*
X5686428Y11090239D01*
X5724523Y11109286D01*
X5819761Y11109286D01*
X5857857Y11090239D01*
X5876904Y11071191D01*
X5895952Y11033096D01*
X5895952Y10937858D01*
X5876904Y10899762D01*
X5857857Y10880715D01*
%TO.C,C4*%
X3108333Y17002143D02*
X3089285Y16983096D01*
X3032142Y16964048D01*
X2994047Y16964048D01*
X2936904Y16983096D01*
X2898809Y17021191D01*
X2879761Y17059286D01*
X2860714Y17135477D01*
X2860714Y17192620D01*
X2879761Y17268810D01*
X2898809Y17306905D01*
X2936904Y17345000D01*
X2994047Y17364048D01*
X3032142Y17364048D01*
X3089285Y17345000D01*
X3108333Y17325953D01*
X3451190Y17230715D02*
X3451190Y16964048D01*
X3355952Y17383096D02*
X3260714Y17097381D01*
X3508333Y17097381D01*
%TO.C,R8*%
X11998333Y13154048D02*
X11865000Y13344524D01*
X11769761Y13154048D02*
X11769761Y13554048D01*
X11922142Y13554048D01*
X11960238Y13535000D01*
X11979285Y13515953D01*
X11998333Y13477858D01*
X11998333Y13420715D01*
X11979285Y13382620D01*
X11960238Y13363572D01*
X11922142Y13344524D01*
X11769761Y13344524D01*
X12226904Y13382620D02*
X12188809Y13401667D01*
X12169761Y13420715D01*
X12150714Y13458810D01*
X12150714Y13477858D01*
X12169761Y13515953D01*
X12188809Y13535000D01*
X12226904Y13554048D01*
X12303095Y13554048D01*
X12341190Y13535000D01*
X12360238Y13515953D01*
X12379285Y13477858D01*
X12379285Y13458810D01*
X12360238Y13420715D01*
X12341190Y13401667D01*
X12303095Y13382620D01*
X12226904Y13382620D01*
X12188809Y13363572D01*
X12169761Y13344524D01*
X12150714Y13306429D01*
X12150714Y13230239D01*
X12169761Y13192143D01*
X12188809Y13173096D01*
X12226904Y13154048D01*
X12303095Y13154048D01*
X12341190Y13173096D01*
X12360238Y13192143D01*
X12379285Y13230239D01*
X12379285Y13306429D01*
X12360238Y13344524D01*
X12341190Y13363572D01*
X12303095Y13382620D01*
%TO.C,R7*%
X11998333Y15059048D02*
X11865000Y15249524D01*
X11769761Y15059048D02*
X11769761Y15459048D01*
X11922142Y15459048D01*
X11960238Y15440000D01*
X11979285Y15420953D01*
X11998333Y15382858D01*
X11998333Y15325715D01*
X11979285Y15287620D01*
X11960238Y15268572D01*
X11922142Y15249524D01*
X11769761Y15249524D01*
X12131666Y15459048D02*
X12398333Y15459048D01*
X12226904Y15059048D01*
%TO.C,R6*%
X3108333Y15059048D02*
X2975000Y15249524D01*
X2879761Y15059048D02*
X2879761Y15459048D01*
X3032142Y15459048D01*
X3070238Y15440000D01*
X3089285Y15420953D01*
X3108333Y15382858D01*
X3108333Y15325715D01*
X3089285Y15287620D01*
X3070238Y15268572D01*
X3032142Y15249524D01*
X2879761Y15249524D01*
X3451190Y15459048D02*
X3375000Y15459048D01*
X3336904Y15440000D01*
X3317857Y15420953D01*
X3279761Y15363810D01*
X3260714Y15287620D01*
X3260714Y15135239D01*
X3279761Y15097143D01*
X3298809Y15078096D01*
X3336904Y15059048D01*
X3413095Y15059048D01*
X3451190Y15078096D01*
X3470238Y15097143D01*
X3489285Y15135239D01*
X3489285Y15230477D01*
X3470238Y15268572D01*
X3451190Y15287620D01*
X3413095Y15306667D01*
X3336904Y15306667D01*
X3298809Y15287620D01*
X3279761Y15268572D01*
X3260714Y15230477D01*
%TO.C,R5*%
X3108333Y13154048D02*
X2975000Y13344524D01*
X2879761Y13154048D02*
X2879761Y13554048D01*
X3032142Y13554048D01*
X3070238Y13535000D01*
X3089285Y13515953D01*
X3108333Y13477858D01*
X3108333Y13420715D01*
X3089285Y13382620D01*
X3070238Y13363572D01*
X3032142Y13344524D01*
X2879761Y13344524D01*
X3470238Y13554048D02*
X3279761Y13554048D01*
X3260714Y13363572D01*
X3279761Y13382620D01*
X3317857Y13401667D01*
X3413095Y13401667D01*
X3451190Y13382620D01*
X3470238Y13363572D01*
X3489285Y13325477D01*
X3489285Y13230239D01*
X3470238Y13192143D01*
X3451190Y13173096D01*
X3413095Y13154048D01*
X3317857Y13154048D01*
X3279761Y13173096D01*
X3260714Y13192143D01*
%TO.C,R4*%
X7553333Y13154048D02*
X7420000Y13344524D01*
X7324761Y13154048D02*
X7324761Y13554048D01*
X7477142Y13554048D01*
X7515238Y13535000D01*
X7534285Y13515953D01*
X7553333Y13477858D01*
X7553333Y13420715D01*
X7534285Y13382620D01*
X7515238Y13363572D01*
X7477142Y13344524D01*
X7324761Y13344524D01*
X7896190Y13420715D02*
X7896190Y13154048D01*
X7800952Y13573096D02*
X7705714Y13287381D01*
X7953333Y13287381D01*
%TO.C,R3*%
X13642952Y24698334D02*
X13452476Y24565000D01*
X13642952Y24469762D02*
X13242952Y24469762D01*
X13242952Y24622143D01*
X13262000Y24660239D01*
X13281047Y24679286D01*
X13319142Y24698334D01*
X13376285Y24698334D01*
X13414380Y24679286D01*
X13433428Y24660239D01*
X13452476Y24622143D01*
X13452476Y24469762D01*
X13242952Y24831667D02*
X13242952Y25079286D01*
X13395333Y24945953D01*
X13395333Y25003096D01*
X13414380Y25041191D01*
X13433428Y25060239D01*
X13471523Y25079286D01*
X13566761Y25079286D01*
X13604857Y25060239D01*
X13623904Y25041191D01*
X13642952Y25003096D01*
X13642952Y24888810D01*
X13623904Y24850715D01*
X13604857Y24831667D01*
%TO.C,U2*%
X7400952Y16840239D02*
X7724761Y16840239D01*
X7762857Y16859286D01*
X7781904Y16878334D01*
X7800952Y16916429D01*
X7800952Y16992620D01*
X7781904Y17030715D01*
X7762857Y17049762D01*
X7724761Y17068810D01*
X7400952Y17068810D01*
X7439047Y17240239D02*
X7420000Y17259286D01*
X7400952Y17297381D01*
X7400952Y17392620D01*
X7420000Y17430715D01*
X7439047Y17449762D01*
X7477142Y17468810D01*
X7515238Y17468810D01*
X7572380Y17449762D01*
X7800952Y17221191D01*
X7800952Y17468810D01*
%TO.C,U1*%
D12*
X10521190Y24384048D02*
X10925952Y24384048D01*
X10973571Y24407858D01*
X10997380Y24431667D01*
X11021190Y24479286D01*
X11021190Y24574524D01*
X10997380Y24622143D01*
X10973571Y24645953D01*
X10925952Y24669762D01*
X10521190Y24669762D01*
X11021190Y25169762D02*
X11021190Y24884048D01*
X11021190Y25026905D02*
X10521190Y25026905D01*
X10592619Y24979286D01*
X10640238Y24931667D01*
X10664047Y24884048D01*
%TO.C,J1*%
D11*
X7486666Y2529048D02*
X7486666Y2243334D01*
X7467619Y2186191D01*
X7429523Y2148096D01*
X7372380Y2129048D01*
X7334285Y2129048D01*
X7886666Y2129048D02*
X7658095Y2129048D01*
X7772380Y2129048D02*
X7772380Y2529048D01*
X7734285Y2471905D01*
X7696190Y2433810D01*
X7658095Y2414762D01*
%TO.C,R2*%
X2085952Y10728334D02*
X1895476Y10595000D01*
X2085952Y10499762D02*
X1685952Y10499762D01*
X1685952Y10652143D01*
X1705000Y10690239D01*
X1724047Y10709286D01*
X1762142Y10728334D01*
X1819285Y10728334D01*
X1857380Y10709286D01*
X1876428Y10690239D01*
X1895476Y10652143D01*
X1895476Y10499762D01*
X1724047Y10880715D02*
X1705000Y10899762D01*
X1685952Y10937858D01*
X1685952Y11033096D01*
X1705000Y11071191D01*
X1724047Y11090239D01*
X1762142Y11109286D01*
X1800238Y11109286D01*
X1857380Y11090239D01*
X2085952Y10861667D01*
X2085952Y11109286D01*
%TO.C,R1*%
X3990952Y10728334D02*
X3800476Y10595000D01*
X3990952Y10499762D02*
X3590952Y10499762D01*
X3590952Y10652143D01*
X3610000Y10690239D01*
X3629047Y10709286D01*
X3667142Y10728334D01*
X3724285Y10728334D01*
X3762380Y10709286D01*
X3781428Y10690239D01*
X3800476Y10652143D01*
X3800476Y10499762D01*
X3990952Y11109286D02*
X3990952Y10880715D01*
X3990952Y10995000D02*
X3590952Y10995000D01*
X3648095Y10956905D01*
X3686190Y10918810D01*
X3705238Y10880715D01*
%TO.C,C1*%
X11572857Y10728334D02*
X11591904Y10709286D01*
X11610952Y10652143D01*
X11610952Y10614048D01*
X11591904Y10556905D01*
X11553809Y10518810D01*
X11515714Y10499762D01*
X11439523Y10480715D01*
X11382380Y10480715D01*
X11306190Y10499762D01*
X11268095Y10518810D01*
X11230000Y10556905D01*
X11210952Y10614048D01*
X11210952Y10652143D01*
X11230000Y10709286D01*
X11249047Y10728334D01*
X11610952Y11109286D02*
X11610952Y10880715D01*
X11610952Y10995000D02*
X11210952Y10995000D01*
X11268095Y10956905D01*
X11306190Y10918810D01*
X11325238Y10880715D01*
%TO.C,F1*%
X7591428Y10661667D02*
X7591428Y10528334D01*
X7800952Y10528334D02*
X7400952Y10528334D01*
X7400952Y10718810D01*
X7800952Y11080715D02*
X7800952Y10852143D01*
X7800952Y10966429D02*
X7400952Y10966429D01*
X7458095Y10928334D01*
X7496190Y10890239D01*
X7515238Y10852143D01*
%TO.C,D1*%
X9705952Y10499762D02*
X9305952Y10499762D01*
X9305952Y10595000D01*
X9325000Y10652143D01*
X9363095Y10690239D01*
X9401190Y10709286D01*
X9477380Y10728334D01*
X9534523Y10728334D01*
X9610714Y10709286D01*
X9648809Y10690239D01*
X9686904Y10652143D01*
X9705952Y10595000D01*
X9705952Y10499762D01*
X9705952Y11109286D02*
X9705952Y10880715D01*
X9705952Y10995000D02*
X9305952Y10995000D01*
X9363095Y10956905D01*
X9401190Y10918810D01*
X9420238Y10880715D01*
%TO.C,C2*%
X13477857Y10728334D02*
X13496904Y10709286D01*
X13515952Y10652143D01*
X13515952Y10614048D01*
X13496904Y10556905D01*
X13458809Y10518810D01*
X13420714Y10499762D01*
X13344523Y10480715D01*
X13287380Y10480715D01*
X13211190Y10499762D01*
X13173095Y10518810D01*
X13135000Y10556905D01*
X13115952Y10614048D01*
X13115952Y10652143D01*
X13135000Y10709286D01*
X13154047Y10728334D01*
X13154047Y10880715D02*
X13135000Y10899762D01*
X13115952Y10937858D01*
X13115952Y11033096D01*
X13135000Y11071191D01*
X13154047Y11090239D01*
X13192142Y11109286D01*
X13230238Y11109286D01*
X13287380Y11090239D01*
X13515952Y10861667D01*
X13515952Y11109286D01*
%TD*%
M02*
