G04 #@! TF.GenerationSoftware,KiCad,Pcbnew,5.1.5+dfsg1-2build2*
G04 #@! TF.CreationDate,2021-03-15T22:58:29+01:00*
G04 #@! TF.ProjectId,ProMicro_BOOST,50726f4d-6963-4726-9f5f-424f4f53542e,v1.8*
G04 #@! TF.SameCoordinates,Original*
G04 #@! TF.FileFunction,Other,Fab,Top*
%FSLAX46Y46*%
G04 Gerber Fmt 4.6, Leading zero omitted, Abs format (unit mm)*
G04 Created by KiCad*
%MOMM*%
%LPD*%
G04 APERTURE LIST*
%ADD10C,0.100000*%
%ADD11C,0.060000*%
%ADD12C,0.075000*%
G04 APERTURE END LIST*
D10*
X83614000Y-123142000D02*
X89614000Y-123142000D01*
X83614000Y-117142000D02*
X83614000Y-123142000D01*
X89614000Y-117142000D02*
X83614000Y-117142000D01*
X89614000Y-117142000D02*
X89614000Y-123142000D01*
X82823000Y-117310000D02*
X82823000Y-118910000D01*
X82023000Y-117310000D02*
X82823000Y-117310000D01*
X82023000Y-118910000D02*
X82023000Y-117310000D01*
X82823000Y-118910000D02*
X82023000Y-118910000D01*
X82023000Y-127800000D02*
X82023000Y-126200000D01*
X82823000Y-127800000D02*
X82023000Y-127800000D01*
X82823000Y-126200000D02*
X82823000Y-127800000D01*
X82023000Y-126200000D02*
X82823000Y-126200000D01*
X80118000Y-127800000D02*
X80118000Y-126200000D01*
X80918000Y-127800000D02*
X80118000Y-127800000D01*
X80918000Y-126200000D02*
X80918000Y-127800000D01*
X80118000Y-126200000D02*
X80918000Y-126200000D01*
X73368000Y-120250000D02*
X74968000Y-120250000D01*
X73368000Y-121050000D02*
X73368000Y-120250000D01*
X74968000Y-121050000D02*
X73368000Y-121050000D01*
X74968000Y-120250000D02*
X74968000Y-121050000D01*
X80918000Y-117310000D02*
X80918000Y-118910000D01*
X80118000Y-117310000D02*
X80918000Y-117310000D01*
X80118000Y-118910000D02*
X80118000Y-117310000D01*
X80918000Y-118910000D02*
X80118000Y-118910000D01*
X76308000Y-127800000D02*
X76308000Y-126200000D01*
X77108000Y-127800000D02*
X76308000Y-127800000D01*
X77108000Y-126200000D02*
X77108000Y-127800000D01*
X76308000Y-126200000D02*
X77108000Y-126200000D01*
X79013000Y-126200000D02*
X79013000Y-127800000D01*
X78213000Y-126200000D02*
X79013000Y-126200000D01*
X78213000Y-127800000D02*
X78213000Y-126200000D01*
X79013000Y-127800000D02*
X78213000Y-127800000D01*
X78213000Y-118910000D02*
X78213000Y-117310000D01*
X79013000Y-118910000D02*
X78213000Y-118910000D01*
X79013000Y-117310000D02*
X79013000Y-118910000D01*
X78213000Y-117310000D02*
X79013000Y-117310000D01*
X77108000Y-117310000D02*
X77108000Y-118910000D01*
X76308000Y-117310000D02*
X77108000Y-117310000D01*
X76308000Y-118910000D02*
X76308000Y-117310000D01*
X77108000Y-118910000D02*
X76308000Y-118910000D01*
X77108000Y-121755000D02*
X77108000Y-123355000D01*
X76308000Y-121755000D02*
X77108000Y-121755000D01*
X76308000Y-123355000D02*
X76308000Y-121755000D01*
X77108000Y-123355000D02*
X76308000Y-123355000D01*
X88938000Y-128797000D02*
X87338000Y-128797000D01*
X88938000Y-127997000D02*
X88938000Y-128797000D01*
X87338000Y-127997000D02*
X88938000Y-127997000D01*
X87338000Y-128797000D02*
X87338000Y-127997000D01*
X82518000Y-123555000D02*
X81518000Y-124555000D01*
X82518000Y-120555000D02*
X82518000Y-123555000D01*
X78518000Y-120555000D02*
X82518000Y-120555000D01*
X78518000Y-124555000D02*
X78518000Y-120555000D01*
X81518000Y-124555000D02*
X78518000Y-124555000D01*
X89688000Y-126630000D02*
X86588000Y-126630000D01*
X86588000Y-126630000D02*
X86588000Y-124830000D01*
X89038000Y-124830000D02*
X86588000Y-124830000D01*
X89688000Y-126630000D02*
X89688000Y-125480000D01*
X89038000Y-124830000D02*
X89688000Y-125480000D01*
X68075893Y-121555000D02*
X68783000Y-122055000D01*
X68783000Y-121055000D02*
X68075893Y-121555000D01*
X70383000Y-126505000D02*
X62783000Y-126505000D01*
X70383000Y-118605000D02*
X62783000Y-118605000D01*
X62783000Y-118605000D02*
X62783000Y-126505000D01*
X70383000Y-125705000D02*
X70383000Y-126505000D01*
X68783000Y-125705000D02*
X70383000Y-125705000D01*
X68783000Y-119405000D02*
X68783000Y-125705000D01*
X70383000Y-119405000D02*
X68783000Y-119405000D01*
X70383000Y-118605000D02*
X70383000Y-119405000D01*
X74968000Y-117240000D02*
X73368000Y-117240000D01*
X74968000Y-116440000D02*
X74968000Y-117240000D01*
X73368000Y-116440000D02*
X74968000Y-116440000D01*
X73368000Y-117240000D02*
X73368000Y-116440000D01*
X73368000Y-118345000D02*
X74968000Y-118345000D01*
X73368000Y-119145000D02*
X73368000Y-118345000D01*
X74968000Y-119145000D02*
X73368000Y-119145000D01*
X74968000Y-118345000D02*
X74968000Y-119145000D01*
X74968000Y-126765000D02*
X73368000Y-126765000D01*
X74968000Y-125965000D02*
X74968000Y-126765000D01*
X73368000Y-125965000D02*
X74968000Y-125965000D01*
X73368000Y-126765000D02*
X73368000Y-125965000D01*
X74968000Y-122955000D02*
X73368000Y-122955000D01*
X74968000Y-122155000D02*
X74968000Y-122955000D01*
X73368000Y-122155000D02*
X74968000Y-122155000D01*
X73368000Y-122955000D02*
X73368000Y-122155000D01*
X74968000Y-124860000D02*
X74968000Y-124060000D01*
X73368000Y-124860000D02*
X74968000Y-124860000D01*
X73368000Y-124360000D02*
X73368000Y-124860000D01*
X73668000Y-124060000D02*
X73368000Y-124360000D01*
X74968000Y-124060000D02*
X73668000Y-124060000D01*
X73368000Y-127870000D02*
X74968000Y-127870000D01*
X73368000Y-128670000D02*
X73368000Y-127870000D01*
X74968000Y-128670000D02*
X73368000Y-128670000D01*
X74968000Y-127870000D02*
X74968000Y-128670000D01*
D11*
X84458238Y-127415952D02*
X84686809Y-127415952D01*
X84572523Y-127815952D02*
X84572523Y-127415952D01*
X84820142Y-127815952D02*
X84820142Y-127415952D01*
X84972523Y-127415952D01*
X85010619Y-127435000D01*
X85029666Y-127454047D01*
X85048714Y-127492142D01*
X85048714Y-127549285D01*
X85029666Y-127587380D01*
X85010619Y-127606428D01*
X84972523Y-127625476D01*
X84820142Y-127625476D01*
X85429666Y-127815952D02*
X85201095Y-127815952D01*
X85315380Y-127815952D02*
X85315380Y-127415952D01*
X85277285Y-127473095D01*
X85239190Y-127511190D01*
X85201095Y-127530238D01*
X86547333Y-120322952D02*
X86356857Y-120322952D01*
X86356857Y-119922952D01*
X86890190Y-120322952D02*
X86661619Y-120322952D01*
X86775904Y-120322952D02*
X86775904Y-119922952D01*
X86737809Y-119980095D01*
X86699714Y-120018190D01*
X86661619Y-120037238D01*
X82565857Y-118176666D02*
X82584904Y-118195714D01*
X82603952Y-118252857D01*
X82603952Y-118290952D01*
X82584904Y-118348095D01*
X82546809Y-118386190D01*
X82508714Y-118405238D01*
X82432523Y-118424285D01*
X82375380Y-118424285D01*
X82299190Y-118405238D01*
X82261095Y-118386190D01*
X82223000Y-118348095D01*
X82203952Y-118290952D01*
X82203952Y-118252857D01*
X82223000Y-118195714D01*
X82242047Y-118176666D01*
X82203952Y-118043333D02*
X82203952Y-117795714D01*
X82356333Y-117929047D01*
X82356333Y-117871904D01*
X82375380Y-117833809D01*
X82394428Y-117814761D01*
X82432523Y-117795714D01*
X82527761Y-117795714D01*
X82565857Y-117814761D01*
X82584904Y-117833809D01*
X82603952Y-117871904D01*
X82603952Y-117986190D01*
X82584904Y-118024285D01*
X82565857Y-118043333D01*
X82565857Y-127066666D02*
X82584904Y-127085714D01*
X82603952Y-127142857D01*
X82603952Y-127180952D01*
X82584904Y-127238095D01*
X82546809Y-127276190D01*
X82508714Y-127295238D01*
X82432523Y-127314285D01*
X82375380Y-127314285D01*
X82299190Y-127295238D01*
X82261095Y-127276190D01*
X82223000Y-127238095D01*
X82203952Y-127180952D01*
X82203952Y-127142857D01*
X82223000Y-127085714D01*
X82242047Y-127066666D01*
X82203952Y-126723809D02*
X82203952Y-126800000D01*
X82223000Y-126838095D01*
X82242047Y-126857142D01*
X82299190Y-126895238D01*
X82375380Y-126914285D01*
X82527761Y-126914285D01*
X82565857Y-126895238D01*
X82584904Y-126876190D01*
X82603952Y-126838095D01*
X82603952Y-126761904D01*
X82584904Y-126723809D01*
X82565857Y-126704761D01*
X82527761Y-126685714D01*
X82432523Y-126685714D01*
X82394428Y-126704761D01*
X82375380Y-126723809D01*
X82356333Y-126761904D01*
X82356333Y-126838095D01*
X82375380Y-126876190D01*
X82394428Y-126895238D01*
X82432523Y-126914285D01*
X80660857Y-127066666D02*
X80679904Y-127085714D01*
X80698952Y-127142857D01*
X80698952Y-127180952D01*
X80679904Y-127238095D01*
X80641809Y-127276190D01*
X80603714Y-127295238D01*
X80527523Y-127314285D01*
X80470380Y-127314285D01*
X80394190Y-127295238D01*
X80356095Y-127276190D01*
X80318000Y-127238095D01*
X80298952Y-127180952D01*
X80298952Y-127142857D01*
X80318000Y-127085714D01*
X80337047Y-127066666D01*
X80298952Y-126933333D02*
X80298952Y-126666666D01*
X80698952Y-126838095D01*
X74101333Y-120792857D02*
X74082285Y-120811904D01*
X74025142Y-120830952D01*
X73987047Y-120830952D01*
X73929904Y-120811904D01*
X73891809Y-120773809D01*
X73872761Y-120735714D01*
X73853714Y-120659523D01*
X73853714Y-120602380D01*
X73872761Y-120526190D01*
X73891809Y-120488095D01*
X73929904Y-120450000D01*
X73987047Y-120430952D01*
X74025142Y-120430952D01*
X74082285Y-120450000D01*
X74101333Y-120469047D01*
X74463238Y-120430952D02*
X74272761Y-120430952D01*
X74253714Y-120621428D01*
X74272761Y-120602380D01*
X74310857Y-120583333D01*
X74406095Y-120583333D01*
X74444190Y-120602380D01*
X74463238Y-120621428D01*
X74482285Y-120659523D01*
X74482285Y-120754761D01*
X74463238Y-120792857D01*
X74444190Y-120811904D01*
X74406095Y-120830952D01*
X74310857Y-120830952D01*
X74272761Y-120811904D01*
X74253714Y-120792857D01*
X80660857Y-118176666D02*
X80679904Y-118195714D01*
X80698952Y-118252857D01*
X80698952Y-118290952D01*
X80679904Y-118348095D01*
X80641809Y-118386190D01*
X80603714Y-118405238D01*
X80527523Y-118424285D01*
X80470380Y-118424285D01*
X80394190Y-118405238D01*
X80356095Y-118386190D01*
X80318000Y-118348095D01*
X80298952Y-118290952D01*
X80298952Y-118252857D01*
X80318000Y-118195714D01*
X80337047Y-118176666D01*
X80432285Y-117833809D02*
X80698952Y-117833809D01*
X80279904Y-117929047D02*
X80565619Y-118024285D01*
X80565619Y-117776666D01*
X76888952Y-127066666D02*
X76698476Y-127200000D01*
X76888952Y-127295238D02*
X76488952Y-127295238D01*
X76488952Y-127142857D01*
X76508000Y-127104761D01*
X76527047Y-127085714D01*
X76565142Y-127066666D01*
X76622285Y-127066666D01*
X76660380Y-127085714D01*
X76679428Y-127104761D01*
X76698476Y-127142857D01*
X76698476Y-127295238D01*
X76660380Y-126838095D02*
X76641333Y-126876190D01*
X76622285Y-126895238D01*
X76584190Y-126914285D01*
X76565142Y-126914285D01*
X76527047Y-126895238D01*
X76508000Y-126876190D01*
X76488952Y-126838095D01*
X76488952Y-126761904D01*
X76508000Y-126723809D01*
X76527047Y-126704761D01*
X76565142Y-126685714D01*
X76584190Y-126685714D01*
X76622285Y-126704761D01*
X76641333Y-126723809D01*
X76660380Y-126761904D01*
X76660380Y-126838095D01*
X76679428Y-126876190D01*
X76698476Y-126895238D01*
X76736571Y-126914285D01*
X76812761Y-126914285D01*
X76850857Y-126895238D01*
X76869904Y-126876190D01*
X76888952Y-126838095D01*
X76888952Y-126761904D01*
X76869904Y-126723809D01*
X76850857Y-126704761D01*
X76812761Y-126685714D01*
X76736571Y-126685714D01*
X76698476Y-126704761D01*
X76679428Y-126723809D01*
X76660380Y-126761904D01*
X78793952Y-127066666D02*
X78603476Y-127200000D01*
X78793952Y-127295238D02*
X78393952Y-127295238D01*
X78393952Y-127142857D01*
X78413000Y-127104761D01*
X78432047Y-127085714D01*
X78470142Y-127066666D01*
X78527285Y-127066666D01*
X78565380Y-127085714D01*
X78584428Y-127104761D01*
X78603476Y-127142857D01*
X78603476Y-127295238D01*
X78393952Y-126933333D02*
X78393952Y-126666666D01*
X78793952Y-126838095D01*
X78793952Y-118176666D02*
X78603476Y-118310000D01*
X78793952Y-118405238D02*
X78393952Y-118405238D01*
X78393952Y-118252857D01*
X78413000Y-118214761D01*
X78432047Y-118195714D01*
X78470142Y-118176666D01*
X78527285Y-118176666D01*
X78565380Y-118195714D01*
X78584428Y-118214761D01*
X78603476Y-118252857D01*
X78603476Y-118405238D01*
X78393952Y-117833809D02*
X78393952Y-117910000D01*
X78413000Y-117948095D01*
X78432047Y-117967142D01*
X78489190Y-118005238D01*
X78565380Y-118024285D01*
X78717761Y-118024285D01*
X78755857Y-118005238D01*
X78774904Y-117986190D01*
X78793952Y-117948095D01*
X78793952Y-117871904D01*
X78774904Y-117833809D01*
X78755857Y-117814761D01*
X78717761Y-117795714D01*
X78622523Y-117795714D01*
X78584428Y-117814761D01*
X78565380Y-117833809D01*
X78546333Y-117871904D01*
X78546333Y-117948095D01*
X78565380Y-117986190D01*
X78584428Y-118005238D01*
X78622523Y-118024285D01*
X76888952Y-118176666D02*
X76698476Y-118310000D01*
X76888952Y-118405238D02*
X76488952Y-118405238D01*
X76488952Y-118252857D01*
X76508000Y-118214761D01*
X76527047Y-118195714D01*
X76565142Y-118176666D01*
X76622285Y-118176666D01*
X76660380Y-118195714D01*
X76679428Y-118214761D01*
X76698476Y-118252857D01*
X76698476Y-118405238D01*
X76488952Y-117814761D02*
X76488952Y-118005238D01*
X76679428Y-118024285D01*
X76660380Y-118005238D01*
X76641333Y-117967142D01*
X76641333Y-117871904D01*
X76660380Y-117833809D01*
X76679428Y-117814761D01*
X76717523Y-117795714D01*
X76812761Y-117795714D01*
X76850857Y-117814761D01*
X76869904Y-117833809D01*
X76888952Y-117871904D01*
X76888952Y-117967142D01*
X76869904Y-118005238D01*
X76850857Y-118024285D01*
X76888952Y-122621666D02*
X76698476Y-122755000D01*
X76888952Y-122850238D02*
X76488952Y-122850238D01*
X76488952Y-122697857D01*
X76508000Y-122659761D01*
X76527047Y-122640714D01*
X76565142Y-122621666D01*
X76622285Y-122621666D01*
X76660380Y-122640714D01*
X76679428Y-122659761D01*
X76698476Y-122697857D01*
X76698476Y-122850238D01*
X76622285Y-122278809D02*
X76888952Y-122278809D01*
X76469904Y-122374047D02*
X76755619Y-122469285D01*
X76755619Y-122221666D01*
X88071333Y-128577952D02*
X87938000Y-128387476D01*
X87842761Y-128577952D02*
X87842761Y-128177952D01*
X87995142Y-128177952D01*
X88033238Y-128197000D01*
X88052285Y-128216047D01*
X88071333Y-128254142D01*
X88071333Y-128311285D01*
X88052285Y-128349380D01*
X88033238Y-128368428D01*
X87995142Y-128387476D01*
X87842761Y-128387476D01*
X88204666Y-128177952D02*
X88452285Y-128177952D01*
X88318952Y-128330333D01*
X88376095Y-128330333D01*
X88414190Y-128349380D01*
X88433238Y-128368428D01*
X88452285Y-128406523D01*
X88452285Y-128501761D01*
X88433238Y-128539857D01*
X88414190Y-128558904D01*
X88376095Y-128577952D01*
X88261809Y-128577952D01*
X88223714Y-128558904D01*
X88204666Y-128539857D01*
X80213238Y-122335952D02*
X80213238Y-122659761D01*
X80232285Y-122697857D01*
X80251333Y-122716904D01*
X80289428Y-122735952D01*
X80365619Y-122735952D01*
X80403714Y-122716904D01*
X80422761Y-122697857D01*
X80441809Y-122659761D01*
X80441809Y-122335952D01*
X80613238Y-122374047D02*
X80632285Y-122355000D01*
X80670380Y-122335952D01*
X80765619Y-122335952D01*
X80803714Y-122355000D01*
X80822761Y-122374047D01*
X80841809Y-122412142D01*
X80841809Y-122450238D01*
X80822761Y-122507380D01*
X80594190Y-122735952D01*
X80841809Y-122735952D01*
D12*
X87757047Y-125456190D02*
X87757047Y-125860952D01*
X87780857Y-125908571D01*
X87804666Y-125932380D01*
X87852285Y-125956190D01*
X87947523Y-125956190D01*
X87995142Y-125932380D01*
X88018952Y-125908571D01*
X88042761Y-125860952D01*
X88042761Y-125456190D01*
X88542761Y-125956190D02*
X88257047Y-125956190D01*
X88399904Y-125956190D02*
X88399904Y-125456190D01*
X88352285Y-125527619D01*
X88304666Y-125575238D01*
X88257047Y-125599047D01*
D11*
X65463952Y-122688333D02*
X65749666Y-122688333D01*
X65806809Y-122707380D01*
X65844904Y-122745476D01*
X65863952Y-122802619D01*
X65863952Y-122840714D01*
X65863952Y-122288333D02*
X65863952Y-122516904D01*
X65863952Y-122402619D02*
X65463952Y-122402619D01*
X65521095Y-122440714D01*
X65559190Y-122478809D01*
X65578238Y-122516904D01*
X74101333Y-117020952D02*
X73968000Y-116830476D01*
X73872761Y-117020952D02*
X73872761Y-116620952D01*
X74025142Y-116620952D01*
X74063238Y-116640000D01*
X74082285Y-116659047D01*
X74101333Y-116697142D01*
X74101333Y-116754285D01*
X74082285Y-116792380D01*
X74063238Y-116811428D01*
X74025142Y-116830476D01*
X73872761Y-116830476D01*
X74253714Y-116659047D02*
X74272761Y-116640000D01*
X74310857Y-116620952D01*
X74406095Y-116620952D01*
X74444190Y-116640000D01*
X74463238Y-116659047D01*
X74482285Y-116697142D01*
X74482285Y-116735238D01*
X74463238Y-116792380D01*
X74234666Y-117020952D01*
X74482285Y-117020952D01*
X74101333Y-118925952D02*
X73968000Y-118735476D01*
X73872761Y-118925952D02*
X73872761Y-118525952D01*
X74025142Y-118525952D01*
X74063238Y-118545000D01*
X74082285Y-118564047D01*
X74101333Y-118602142D01*
X74101333Y-118659285D01*
X74082285Y-118697380D01*
X74063238Y-118716428D01*
X74025142Y-118735476D01*
X73872761Y-118735476D01*
X74482285Y-118925952D02*
X74253714Y-118925952D01*
X74368000Y-118925952D02*
X74368000Y-118525952D01*
X74329904Y-118583095D01*
X74291809Y-118621190D01*
X74253714Y-118640238D01*
X74101333Y-126507857D02*
X74082285Y-126526904D01*
X74025142Y-126545952D01*
X73987047Y-126545952D01*
X73929904Y-126526904D01*
X73891809Y-126488809D01*
X73872761Y-126450714D01*
X73853714Y-126374523D01*
X73853714Y-126317380D01*
X73872761Y-126241190D01*
X73891809Y-126203095D01*
X73929904Y-126165000D01*
X73987047Y-126145952D01*
X74025142Y-126145952D01*
X74082285Y-126165000D01*
X74101333Y-126184047D01*
X74482285Y-126545952D02*
X74253714Y-126545952D01*
X74368000Y-126545952D02*
X74368000Y-126145952D01*
X74329904Y-126203095D01*
X74291809Y-126241190D01*
X74253714Y-126260238D01*
X74034666Y-122526428D02*
X73901333Y-122526428D01*
X73901333Y-122735952D02*
X73901333Y-122335952D01*
X74091809Y-122335952D01*
X74453714Y-122735952D02*
X74225142Y-122735952D01*
X74339428Y-122735952D02*
X74339428Y-122335952D01*
X74301333Y-122393095D01*
X74263238Y-122431190D01*
X74225142Y-122450238D01*
X73872761Y-124640952D02*
X73872761Y-124240952D01*
X73968000Y-124240952D01*
X74025142Y-124260000D01*
X74063238Y-124298095D01*
X74082285Y-124336190D01*
X74101333Y-124412380D01*
X74101333Y-124469523D01*
X74082285Y-124545714D01*
X74063238Y-124583809D01*
X74025142Y-124621904D01*
X73968000Y-124640952D01*
X73872761Y-124640952D01*
X74482285Y-124640952D02*
X74253714Y-124640952D01*
X74368000Y-124640952D02*
X74368000Y-124240952D01*
X74329904Y-124298095D01*
X74291809Y-124336190D01*
X74253714Y-124355238D01*
X74101333Y-128412857D02*
X74082285Y-128431904D01*
X74025142Y-128450952D01*
X73987047Y-128450952D01*
X73929904Y-128431904D01*
X73891809Y-128393809D01*
X73872761Y-128355714D01*
X73853714Y-128279523D01*
X73853714Y-128222380D01*
X73872761Y-128146190D01*
X73891809Y-128108095D01*
X73929904Y-128070000D01*
X73987047Y-128050952D01*
X74025142Y-128050952D01*
X74082285Y-128070000D01*
X74101333Y-128089047D01*
X74253714Y-128089047D02*
X74272761Y-128070000D01*
X74310857Y-128050952D01*
X74406095Y-128050952D01*
X74444190Y-128070000D01*
X74463238Y-128089047D01*
X74482285Y-128127142D01*
X74482285Y-128165238D01*
X74463238Y-128222380D01*
X74234666Y-128450952D01*
X74482285Y-128450952D01*
M02*
