%TF.GenerationSoftware,KiCad,Pcbnew,5.1.5+dfsg1-2~bpo10+1*%
%TF.CreationDate,Date%
%TF.ProjectId,ProMicro_GPS,50726f4d-6963-4726-9f5f-4750532e6b69,v3.1*%
%TF.SameCoordinates,Original*%
%TF.FileFunction,Other,Fab,Top*%
%FSLAX45Y45*%
G04 Gerber Fmt 4.5, Leading zero omitted, Abs format (unit mm)*
G04 Created by KiCad*
%MOMM*%
%LPD*%
G04 APERTURE LIST*
%ADD10C,0.100000*%
%ADD11C,0.150000*%
%ADD12C,0.075000*%
%ADD13C,0.040000*%
%ADD14C,0.105000*%
%ADD15C,0.060000*%
G04 APERTURE END LIST*
D10*
X127000Y2857500D02*
X127000Y-63500D01*
X-1587500Y-127000D02*
G75*
G02X-1651000Y-63500I0J63500D01*
G01*
X-1651000Y2857500D02*
G75*
G02X-1587500Y2921000I63500J0D01*
G01*
X63500Y2921000D02*
G75*
G02X127000Y2857500I0J-63500D01*
G01*
X127000Y-63500D02*
G75*
G02X63500Y-127000I-63500J0D01*
G01*
X-1587500Y2921000D02*
X63500Y2921000D01*
X-1651000Y-63500D02*
X-1651000Y2857500D01*
X63500Y-127000D02*
X-1587500Y-127000D01*
X-536000Y2185500D02*
X-226000Y2185500D01*
X-226000Y2185500D02*
X-226000Y2005500D01*
X-471000Y2005500D02*
X-226000Y2005500D01*
X-536000Y2185500D02*
X-536000Y2070500D01*
X-471000Y2005500D02*
X-536000Y2070500D01*
X-457600Y2437600D02*
X-457600Y2337600D01*
X-507600Y2437600D02*
X-457600Y2437600D01*
X-507600Y2337600D02*
X-507600Y2437600D01*
X-457600Y2337600D02*
X-507600Y2337600D01*
X-127400Y2209000D02*
X-127400Y2109000D01*
X-177400Y2209000D02*
X-127400Y2209000D01*
X-177400Y2109000D02*
X-177400Y2209000D01*
X-127400Y2109000D02*
X-177400Y2109000D01*
X-1650000Y2905000D02*
X127000Y2905000D01*
X127000Y2905000D02*
X127000Y-60000D01*
X80000Y-110000D02*
X127000Y-60000D01*
X80000Y-110000D02*
X-1650000Y-110000D01*
X-1650000Y-110000D02*
X-1650000Y2905000D01*
X-850500Y1728000D02*
X-850500Y1828000D01*
X-800500Y1728000D02*
X-850500Y1728000D01*
X-800500Y1828000D02*
X-800500Y1728000D01*
X-850500Y1828000D02*
X-800500Y1828000D01*
X-977500Y1728000D02*
X-977500Y1828000D01*
X-927500Y1728000D02*
X-977500Y1728000D01*
X-927500Y1828000D02*
X-927500Y1728000D01*
X-977500Y1828000D02*
X-927500Y1828000D01*
X-546500Y1828000D02*
X-546500Y1728000D01*
X-596500Y1828000D02*
X-546500Y1828000D01*
X-596500Y1728000D02*
X-596500Y1828000D01*
X-546500Y1728000D02*
X-596500Y1728000D01*
X-1041000Y2109000D02*
X-1041000Y2209000D01*
X-991000Y2109000D02*
X-1041000Y2109000D01*
X-991000Y2209000D02*
X-991000Y2109000D01*
X-1041000Y2209000D02*
X-991000Y2209000D01*
X-1155300Y509500D02*
X-1105300Y509500D01*
X-1105300Y509500D02*
X-1105300Y409500D01*
X-1105300Y409500D02*
X-1155300Y409500D01*
X-1155300Y409500D02*
X-1155300Y509500D01*
X-673500Y1828000D02*
X-673500Y1728000D01*
X-723500Y1828000D02*
X-673500Y1828000D01*
X-723500Y1728000D02*
X-723500Y1828000D01*
X-673500Y1728000D02*
X-723500Y1728000D01*
X-585000Y2413400D02*
X-685000Y2413400D01*
X-585000Y2463400D02*
X-585000Y2413400D01*
X-685000Y2463400D02*
X-585000Y2463400D01*
X-685000Y2413400D02*
X-685000Y2463400D01*
X-939000Y2463400D02*
X-839000Y2463400D01*
X-939000Y2413400D02*
X-939000Y2463400D01*
X-839000Y2413400D02*
X-939000Y2413400D01*
X-839000Y2463400D02*
X-839000Y2413400D01*
D11*
X-612000Y2109000D02*
X-712000Y2009000D01*
X-612000Y2309000D02*
X-612000Y2109000D01*
X-912000Y2309000D02*
X-612000Y2309000D01*
X-912000Y2009000D02*
X-912000Y2309000D01*
X-712000Y2009000D02*
X-912000Y2009000D01*
D10*
X-732000Y156000D02*
X-747000Y171000D01*
X-632000Y-114000D02*
X-632000Y-74000D01*
X-612000Y-74000D02*
X-632000Y-74000D01*
X-612000Y106000D02*
X-612000Y-74000D01*
X-632000Y-114000D02*
X-892000Y-114000D01*
X-892000Y-114000D02*
X-892000Y-74000D01*
X-912000Y-74000D02*
X-892000Y-74000D01*
X-912000Y106000D02*
X-912000Y-74000D01*
X-632000Y106000D02*
X-632000Y146000D01*
X-612000Y106000D02*
X-632000Y106000D01*
X-732000Y146000D02*
X-632000Y146000D01*
X-732000Y156000D02*
X-732000Y146000D01*
X-792000Y171000D02*
X-747000Y171000D01*
X-792000Y171000D02*
X-792000Y146000D01*
X-792000Y146000D02*
X-892000Y146000D01*
X-892000Y106000D02*
X-892000Y146000D01*
X-912000Y106000D02*
X-892000Y106000D01*
X-1104500Y1728000D02*
X-1104500Y1828000D01*
X-1054500Y1728000D02*
X-1104500Y1728000D01*
X-1054500Y1828000D02*
X-1054500Y1728000D01*
X-1104500Y1828000D02*
X-1054500Y1828000D01*
X-1230000Y1921500D02*
X-1310000Y1921500D01*
X-1230000Y1761500D02*
X-1230000Y1921500D01*
X-1280000Y1761500D02*
X-1230000Y1761500D01*
X-1310000Y1791500D02*
X-1280000Y1761500D01*
X-1310000Y1921500D02*
X-1310000Y1791500D01*
X-1373500Y349250D02*
X-1373500Y509250D01*
X-1293500Y349250D02*
X-1373500Y349250D01*
X-1293500Y509250D02*
X-1293500Y349250D01*
X-1373500Y509250D02*
X-1293500Y509250D01*
X-1002500Y483000D02*
X-1002500Y533000D01*
X-1002500Y533000D02*
X-902500Y533000D01*
X-902500Y533000D02*
X-902500Y483000D01*
X-902500Y483000D02*
X-1002500Y483000D01*
X-1002500Y356000D02*
X-1002500Y406000D01*
X-1002500Y406000D02*
X-902500Y406000D01*
X-902500Y406000D02*
X-902500Y356000D01*
X-902500Y356000D02*
X-1002500Y356000D01*
X-737000Y494500D02*
X-737000Y394500D01*
X-787000Y494500D02*
X-737000Y494500D01*
X-787000Y394500D02*
X-787000Y494500D01*
X-737000Y394500D02*
X-787000Y394500D01*
X-521500Y356000D02*
X-621500Y356000D01*
X-521500Y406000D02*
X-521500Y356000D01*
X-621500Y406000D02*
X-521500Y406000D01*
X-621500Y356000D02*
X-621500Y406000D01*
X-521500Y483000D02*
X-621500Y483000D01*
X-521500Y533000D02*
X-521500Y483000D01*
X-621500Y533000D02*
X-521500Y533000D01*
X-621500Y483000D02*
X-621500Y533000D01*
X-1079500Y234500D02*
X-1079500Y-1098500D01*
X-998500Y234500D02*
X-1079500Y234500D01*
X-998500Y-146500D02*
X-998500Y234500D01*
X-525500Y-146500D02*
X-998500Y-146500D01*
X-525500Y234500D02*
X-525500Y-146500D01*
X-444500Y234500D02*
X-525500Y234500D01*
X-444500Y234500D02*
X-444500Y-1098500D01*
X-445500Y-1098500D02*
X-1078500Y-1098500D01*
X-687000Y-146500D02*
X-762000Y-246500D01*
X-762000Y-246500D02*
X-837000Y-146500D01*
X-1247000Y1648000D02*
X-1247000Y638000D01*
X-277000Y1648000D02*
X-277000Y638000D01*
X-1247000Y1648000D02*
X-277000Y1648000D01*
X-1247000Y638000D02*
X-277000Y638000D01*
X-1147000Y1583000D02*
X-1247000Y1548000D01*
X-1247000Y1618000D02*
X-1147000Y1583000D01*
D12*
X-419095Y2122881D02*
X-419095Y2082405D01*
X-416714Y2077643D01*
X-414333Y2075262D01*
X-409571Y2072881D01*
X-400048Y2072881D01*
X-395286Y2075262D01*
X-392905Y2077643D01*
X-390524Y2082405D01*
X-390524Y2122881D01*
X-371476Y2122881D02*
X-340524Y2122881D01*
X-357190Y2103833D01*
X-350048Y2103833D01*
X-345286Y2101452D01*
X-342905Y2099072D01*
X-340524Y2094310D01*
X-340524Y2082405D01*
X-342905Y2077643D01*
X-345286Y2075262D01*
X-350048Y2072881D01*
X-364333Y2072881D01*
X-369095Y2075262D01*
X-371476Y2077643D01*
D13*
X-473671Y2371529D02*
X-472481Y2370338D01*
X-471290Y2366767D01*
X-471290Y2364386D01*
X-472481Y2360814D01*
X-474862Y2358433D01*
X-477243Y2357243D01*
X-482005Y2356052D01*
X-485576Y2356052D01*
X-490338Y2357243D01*
X-492719Y2358433D01*
X-495100Y2360814D01*
X-496290Y2364386D01*
X-496290Y2366767D01*
X-495100Y2370338D01*
X-493910Y2371529D01*
X-471290Y2395338D02*
X-471290Y2381052D01*
X-471290Y2388195D02*
X-496290Y2388195D01*
X-492719Y2385814D01*
X-490338Y2383433D01*
X-489148Y2381052D01*
X-471290Y2419148D02*
X-471290Y2404862D01*
X-471290Y2412005D02*
X-496290Y2412005D01*
X-492719Y2409624D01*
X-490338Y2407243D01*
X-489148Y2404862D01*
X-143472Y2142929D02*
X-142281Y2141738D01*
X-141091Y2138167D01*
X-141091Y2135786D01*
X-142281Y2132214D01*
X-144662Y2129833D01*
X-147043Y2128643D01*
X-151805Y2127452D01*
X-155376Y2127452D01*
X-160138Y2128643D01*
X-162519Y2129833D01*
X-164900Y2132214D01*
X-166091Y2135786D01*
X-166091Y2138167D01*
X-164900Y2141738D01*
X-163710Y2142929D01*
X-141091Y2166738D02*
X-141091Y2152452D01*
X-141091Y2159595D02*
X-166091Y2159595D01*
X-162519Y2157214D01*
X-160138Y2154833D01*
X-158948Y2152452D01*
X-166091Y2182214D02*
X-166091Y2184595D01*
X-164900Y2186976D01*
X-163710Y2188167D01*
X-161329Y2189357D01*
X-156567Y2190548D01*
X-150614Y2190548D01*
X-145852Y2189357D01*
X-143472Y2188167D01*
X-142281Y2186976D01*
X-141091Y2184595D01*
X-141091Y2182214D01*
X-142281Y2179833D01*
X-143472Y2178643D01*
X-145852Y2177452D01*
X-150614Y2176262D01*
X-156567Y2176262D01*
X-161329Y2177452D01*
X-163710Y2178643D01*
X-164900Y2179833D01*
X-166091Y2182214D01*
D11*
X-592933Y1325572D02*
X-592933Y1373191D01*
X-564362Y1316048D02*
X-664362Y1349381D01*
X-564362Y1382714D01*
X-564362Y1468429D02*
X-564362Y1411286D01*
X-564362Y1439857D02*
X-664362Y1439857D01*
X-650076Y1430333D01*
X-640552Y1420810D01*
X-635791Y1411286D01*
D13*
X-816571Y1773833D02*
X-815381Y1772643D01*
X-814190Y1769071D01*
X-814190Y1766690D01*
X-815381Y1763119D01*
X-817762Y1760738D01*
X-820143Y1759548D01*
X-824905Y1758357D01*
X-828476Y1758357D01*
X-833238Y1759548D01*
X-835619Y1760738D01*
X-838000Y1763119D01*
X-839190Y1766690D01*
X-839190Y1769071D01*
X-838000Y1772643D01*
X-836810Y1773833D01*
X-814190Y1785738D02*
X-814190Y1790500D01*
X-815381Y1792881D01*
X-816571Y1794071D01*
X-820143Y1796452D01*
X-824905Y1797643D01*
X-834429Y1797643D01*
X-836810Y1796452D01*
X-838000Y1795262D01*
X-839190Y1792881D01*
X-839190Y1788119D01*
X-838000Y1785738D01*
X-836810Y1784548D01*
X-834429Y1783357D01*
X-828476Y1783357D01*
X-826095Y1784548D01*
X-824905Y1785738D01*
X-823714Y1788119D01*
X-823714Y1792881D01*
X-824905Y1795262D01*
X-826095Y1796452D01*
X-828476Y1797643D01*
X-943571Y1773833D02*
X-942381Y1772643D01*
X-941190Y1769071D01*
X-941190Y1766690D01*
X-942381Y1763119D01*
X-944762Y1760738D01*
X-947143Y1759548D01*
X-951905Y1758357D01*
X-955476Y1758357D01*
X-960238Y1759548D01*
X-962619Y1760738D01*
X-965000Y1763119D01*
X-966190Y1766690D01*
X-966190Y1769071D01*
X-965000Y1772643D01*
X-963810Y1773833D01*
X-955476Y1788119D02*
X-956667Y1785738D01*
X-957857Y1784548D01*
X-960238Y1783357D01*
X-961429Y1783357D01*
X-963810Y1784548D01*
X-965000Y1785738D01*
X-966190Y1788119D01*
X-966190Y1792881D01*
X-965000Y1795262D01*
X-963810Y1796452D01*
X-961429Y1797643D01*
X-960238Y1797643D01*
X-957857Y1796452D01*
X-956667Y1795262D01*
X-955476Y1792881D01*
X-955476Y1788119D01*
X-954286Y1785738D01*
X-953095Y1784548D01*
X-950714Y1783357D01*
X-945952Y1783357D01*
X-943571Y1784548D01*
X-942381Y1785738D01*
X-941190Y1788119D01*
X-941190Y1792881D01*
X-942381Y1795262D01*
X-943571Y1796452D01*
X-945952Y1797643D01*
X-950714Y1797643D01*
X-953095Y1796452D01*
X-954286Y1795262D01*
X-955476Y1792881D01*
X-560191Y1773833D02*
X-572095Y1765500D01*
X-560191Y1759548D02*
X-585191Y1759548D01*
X-585191Y1769071D01*
X-584000Y1771452D01*
X-582810Y1772643D01*
X-580429Y1773833D01*
X-576857Y1773833D01*
X-574476Y1772643D01*
X-573286Y1771452D01*
X-572095Y1769071D01*
X-572095Y1759548D01*
X-576857Y1795262D02*
X-560191Y1795262D01*
X-586381Y1789310D02*
X-568524Y1783357D01*
X-568524Y1798833D01*
X-1007071Y2154833D02*
X-1005881Y2153643D01*
X-1004690Y2150072D01*
X-1004690Y2147691D01*
X-1005881Y2144119D01*
X-1008262Y2141738D01*
X-1010643Y2140548D01*
X-1015405Y2139357D01*
X-1018976Y2139357D01*
X-1023738Y2140548D01*
X-1026119Y2141738D01*
X-1028500Y2144119D01*
X-1029690Y2147691D01*
X-1029690Y2150072D01*
X-1028500Y2153643D01*
X-1027310Y2154833D01*
X-1029690Y2163167D02*
X-1029690Y2179833D01*
X-1004690Y2169119D01*
X-1121372Y455333D02*
X-1120181Y454143D01*
X-1118991Y450571D01*
X-1118991Y448190D01*
X-1120181Y444619D01*
X-1122562Y442238D01*
X-1124943Y441048D01*
X-1129705Y439857D01*
X-1133276Y439857D01*
X-1138038Y441048D01*
X-1140419Y442238D01*
X-1142800Y444619D01*
X-1143991Y448190D01*
X-1143991Y450571D01*
X-1142800Y454143D01*
X-1141610Y455333D01*
X-1141610Y464857D02*
X-1142800Y466048D01*
X-1143991Y468429D01*
X-1143991Y474381D01*
X-1142800Y476762D01*
X-1141610Y477952D01*
X-1139229Y479143D01*
X-1136848Y479143D01*
X-1133276Y477952D01*
X-1118991Y463667D01*
X-1118991Y479143D01*
X-687191Y1773833D02*
X-699095Y1765500D01*
X-687191Y1759548D02*
X-712190Y1759548D01*
X-712190Y1769071D01*
X-711000Y1771452D01*
X-709810Y1772643D01*
X-707429Y1773833D01*
X-703857Y1773833D01*
X-701476Y1772643D01*
X-700286Y1771452D01*
X-699095Y1769071D01*
X-699095Y1759548D01*
X-712190Y1796452D02*
X-712190Y1784548D01*
X-700286Y1783357D01*
X-701476Y1784548D01*
X-702667Y1786929D01*
X-702667Y1792881D01*
X-701476Y1795262D01*
X-700286Y1796452D01*
X-697905Y1797643D01*
X-691952Y1797643D01*
X-689572Y1796452D01*
X-688381Y1795262D01*
X-687191Y1792881D01*
X-687191Y1786929D01*
X-688381Y1784548D01*
X-689572Y1783357D01*
X-639167Y2429472D02*
X-640357Y2428281D01*
X-643929Y2427091D01*
X-646310Y2427091D01*
X-649881Y2428281D01*
X-652262Y2430662D01*
X-653452Y2433043D01*
X-654643Y2437805D01*
X-654643Y2441376D01*
X-653452Y2446138D01*
X-652262Y2448519D01*
X-649881Y2450900D01*
X-646310Y2452091D01*
X-643929Y2452091D01*
X-640357Y2450900D01*
X-639167Y2449710D01*
X-617738Y2452091D02*
X-622500Y2452091D01*
X-624881Y2450900D01*
X-626072Y2449710D01*
X-628452Y2446138D01*
X-629643Y2441376D01*
X-629643Y2431852D01*
X-628452Y2429472D01*
X-627262Y2428281D01*
X-624881Y2427091D01*
X-620119Y2427091D01*
X-617738Y2428281D01*
X-616548Y2429472D01*
X-615357Y2431852D01*
X-615357Y2437805D01*
X-616548Y2440186D01*
X-617738Y2441376D01*
X-620119Y2442567D01*
X-624881Y2442567D01*
X-627262Y2441376D01*
X-628452Y2440186D01*
X-629643Y2437805D01*
X-893167Y2429472D02*
X-894357Y2428281D01*
X-897929Y2427091D01*
X-900310Y2427091D01*
X-903881Y2428281D01*
X-906262Y2430662D01*
X-907452Y2433043D01*
X-908643Y2437805D01*
X-908643Y2441376D01*
X-907452Y2446138D01*
X-906262Y2448519D01*
X-903881Y2450900D01*
X-900310Y2452091D01*
X-897929Y2452091D01*
X-894357Y2450900D01*
X-893167Y2449710D01*
X-871738Y2443757D02*
X-871738Y2427091D01*
X-877690Y2453281D02*
X-883643Y2435424D01*
X-868167Y2435424D01*
D14*
X-815333Y2197333D02*
X-815333Y2140667D01*
X-812000Y2134000D01*
X-808667Y2130667D01*
X-802000Y2127333D01*
X-788667Y2127333D01*
X-782000Y2130667D01*
X-778667Y2134000D01*
X-775333Y2140667D01*
X-775333Y2197333D01*
X-745333Y2190667D02*
X-742000Y2194000D01*
X-735333Y2197333D01*
X-718667Y2197333D01*
X-712000Y2194000D01*
X-708667Y2190667D01*
X-705333Y2184000D01*
X-705333Y2177333D01*
X-708667Y2167333D01*
X-748667Y2127333D01*
X-705333Y2127333D01*
D13*
X-1068191Y1773833D02*
X-1080095Y1765500D01*
X-1068191Y1759548D02*
X-1093191Y1759548D01*
X-1093191Y1769071D01*
X-1092000Y1771452D01*
X-1090810Y1772643D01*
X-1088429Y1773833D01*
X-1084857Y1773833D01*
X-1082476Y1772643D01*
X-1081286Y1771452D01*
X-1080095Y1769071D01*
X-1080095Y1759548D01*
X-1068191Y1797643D02*
X-1068191Y1783357D01*
X-1068191Y1790500D02*
X-1093191Y1790500D01*
X-1089619Y1788119D01*
X-1087238Y1785738D01*
X-1086048Y1783357D01*
D15*
X-1251905Y1811976D02*
X-1291905Y1811976D01*
X-1291905Y1821500D01*
X-1290000Y1827214D01*
X-1286191Y1831024D01*
X-1282381Y1832929D01*
X-1274762Y1834833D01*
X-1269048Y1834833D01*
X-1261429Y1832929D01*
X-1257619Y1831024D01*
X-1253810Y1827214D01*
X-1251905Y1821500D01*
X-1251905Y1811976D01*
X-1251905Y1872929D02*
X-1251905Y1850071D01*
X-1251905Y1861500D02*
X-1291905Y1861500D01*
X-1286191Y1857690D01*
X-1282381Y1853881D01*
X-1280476Y1850071D01*
X-1319214Y422583D02*
X-1317310Y420679D01*
X-1315405Y414964D01*
X-1315405Y411155D01*
X-1317310Y405440D01*
X-1321119Y401631D01*
X-1324929Y399726D01*
X-1332548Y397821D01*
X-1338262Y397821D01*
X-1345881Y399726D01*
X-1349691Y401631D01*
X-1353500Y405440D01*
X-1355405Y411155D01*
X-1355405Y414964D01*
X-1353500Y420679D01*
X-1351595Y422583D01*
X-1315405Y460679D02*
X-1315405Y437821D01*
X-1315405Y449250D02*
X-1355405Y449250D01*
X-1349691Y445440D01*
X-1345881Y441631D01*
X-1343976Y437821D01*
D13*
X-956667Y496690D02*
X-965000Y508595D01*
X-970952Y496690D02*
X-970952Y521690D01*
X-961429Y521690D01*
X-959048Y520500D01*
X-957857Y519310D01*
X-956667Y516929D01*
X-956667Y513357D01*
X-957857Y510976D01*
X-959048Y509786D01*
X-961429Y508595D01*
X-970952Y508595D01*
X-947143Y519310D02*
X-945952Y520500D01*
X-943571Y521690D01*
X-937619Y521690D01*
X-935238Y520500D01*
X-934048Y519310D01*
X-932857Y516929D01*
X-932857Y514548D01*
X-934048Y510976D01*
X-948333Y496690D01*
X-932857Y496690D01*
X-956667Y369690D02*
X-968571Y369690D01*
X-968571Y394690D01*
X-935238Y369690D02*
X-949524Y369690D01*
X-942381Y369690D02*
X-942381Y394690D01*
X-944762Y391119D01*
X-947143Y388738D01*
X-949524Y387548D01*
X-750690Y440333D02*
X-762595Y432000D01*
X-750690Y426048D02*
X-775690Y426048D01*
X-775690Y435571D01*
X-774500Y437952D01*
X-773310Y439143D01*
X-770929Y440333D01*
X-767357Y440333D01*
X-764976Y439143D01*
X-763786Y437952D01*
X-762595Y435571D01*
X-762595Y426048D01*
X-775690Y448667D02*
X-775690Y464143D01*
X-766167Y455810D01*
X-766167Y459381D01*
X-764976Y461762D01*
X-763786Y462952D01*
X-761405Y464143D01*
X-755452Y464143D01*
X-753071Y462952D01*
X-751881Y461762D01*
X-750690Y459381D01*
X-750690Y452238D01*
X-751881Y449857D01*
X-753071Y448667D01*
X-575667Y372071D02*
X-576857Y370881D01*
X-580429Y369690D01*
X-582810Y369690D01*
X-586381Y370881D01*
X-588762Y373262D01*
X-589952Y375643D01*
X-591143Y380405D01*
X-591143Y383976D01*
X-589952Y388738D01*
X-588762Y391119D01*
X-586381Y393500D01*
X-582810Y394690D01*
X-580429Y394690D01*
X-576857Y393500D01*
X-575667Y392310D01*
X-553048Y394690D02*
X-564952Y394690D01*
X-566143Y382786D01*
X-564952Y383976D01*
X-562572Y385167D01*
X-556619Y385167D01*
X-554238Y383976D01*
X-553048Y382786D01*
X-551857Y380405D01*
X-551857Y374452D01*
X-553048Y372071D01*
X-554238Y370881D01*
X-556619Y369690D01*
X-562572Y369690D01*
X-564952Y370881D01*
X-566143Y372071D01*
X-575667Y499071D02*
X-576857Y497881D01*
X-580429Y496690D01*
X-582810Y496690D01*
X-586381Y497881D01*
X-588762Y500262D01*
X-589952Y502643D01*
X-591143Y507405D01*
X-591143Y510976D01*
X-589952Y515738D01*
X-588762Y518119D01*
X-586381Y520500D01*
X-582810Y521690D01*
X-580429Y521690D01*
X-576857Y520500D01*
X-575667Y519310D01*
X-567333Y521690D02*
X-551857Y521690D01*
X-560191Y512167D01*
X-556619Y512167D01*
X-554238Y510976D01*
X-553048Y509786D01*
X-551857Y507405D01*
X-551857Y501452D01*
X-553048Y499071D01*
X-554238Y497881D01*
X-556619Y496690D01*
X-563762Y496690D01*
X-566143Y497881D01*
X-567333Y499071D01*
D11*
X-838190Y1197762D02*
X-838190Y1116810D01*
X-833429Y1107286D01*
X-828667Y1102524D01*
X-819143Y1097762D01*
X-800095Y1097762D01*
X-790571Y1102524D01*
X-785810Y1107286D01*
X-781048Y1116810D01*
X-781048Y1197762D01*
X-681048Y1097762D02*
X-738190Y1097762D01*
X-709619Y1097762D02*
X-709619Y1197762D01*
X-719143Y1183476D01*
X-728667Y1173952D01*
X-738190Y1169191D01*
M02*
