M48
; DRILL file {KiCad 5.1.4-e60b266~84~ubuntu19.04.1} date Tue Mar 17 20:59:11 2020
; FORMAT={-:-/ absolute / metric / decimal}
; #@! TF.CreationDate,2020-03-17T20:59:11+00:00
; #@! TF.GenerationSoftware,Kicad,Pcbnew,5.1.4-e60b266~84~ubuntu19.04.1
FMAT,2
METRIC
T1C0.200
T2C0.300
T3C1.000
%
G90
G05
T1
X127.127Y-86.233
X127.635Y-97.79
X127.739Y-89.177
X128.524Y-105.791
X128.524Y-106.807
X128.524Y-107.95
X128.651Y-86.804
X128.778Y-96.647
X128.905Y-92.456
X129.54Y-109.728
X130.048Y-108.839
X130.175Y-103.505
X130.619Y-86.229
X131.572Y-108.839
X131.699Y-105.791
X131.699Y-106.807
X132.08Y-109.728
X132.715Y-97.155
X133.858Y-106.68
X133.985Y-95.25
X133.985Y-97.79
X134.112Y-87.249
X135.89Y-103.759
X136.525Y-85.09
X136.525Y-90.17
T2
X121.285Y-96.52
X121.285Y-97.155
X121.285Y-98.425
X121.285Y-99.06
X123.825Y-85.09
X123.825Y-90.17
X125.73Y-104.14
X125.73Y-108.331
X125.984Y-91.694
X127.635Y-104.14
X128.651Y-93.853
X128.905Y-102.235
X129.286Y-96.012
X129.413Y-84.455
X129.921Y-101.219
X130.556Y-97.409
X130.81Y-93.345
X130.937Y-99.949
X131.826Y-84.455
X131.953Y-96.012
X131.953Y-98.679
X132.08Y-93.345
X132.08Y-103.505
X133.985Y-100.584
X135.89Y-111.76
X136.017Y-86.995
X136.144Y-92.964
X137.16Y-95.25
X137.414Y-87.63
X140.335Y-96.52
X140.335Y-97.155
X140.335Y-98.425
X140.335Y-99.06
T3
X123.19Y-83.82
X123.19Y-86.36
X123.19Y-88.9
X123.19Y-91.44
X123.19Y-93.98
X123.19Y-96.52
X123.19Y-99.06
X123.19Y-101.6
X123.19Y-104.14
X123.19Y-106.68
X123.19Y-109.22
X123.19Y-111.76
X138.43Y-83.82
X138.43Y-86.36
X138.43Y-88.9
X138.43Y-91.44
X138.43Y-93.98
X138.43Y-96.52
X138.43Y-99.06
X138.43Y-101.6
X138.43Y-104.14
X138.43Y-106.68
X138.43Y-109.22
X138.43Y-111.76
T0
M30
