%TF.GenerationSoftware,KiCad,Pcbnew,5.1.5-52549c5~84~ubuntu19.04.1*%
%TF.CreationDate,2020-03-05T17:47:33+00:00*%
%TF.ProjectId,ProMicro_GPS,50726f4d-6963-4726-9f5f-4750532e6b69,v2.1*%
%TF.SameCoordinates,Original*%
%TF.FileFunction,Legend,Top*%
%TF.FilePolarity,Positive*%
%FSLAX45Y45*%
G04 Gerber Fmt 4.5, Leading zero omitted, Abs format (unit mm)*
G04 Created by KiCad (PCBNEW 5.1.5-52549c5~84~ubuntu19.04.1) date 2020-03-05 17:47:33*
%MOMM*%
%LPD*%
G04 APERTURE LIST*
%ADD10C,0.100000*%
%ADD11C,0.120000*%
%ADD12C,0.150000*%
%ADD13O,1.600000X1.600000*%
%ADD14R,1.600000X1.600000*%
%ADD15R,1.500000X1.500000*%
%ADD16R,1.050000X2.200000*%
%ADD17R,1.000000X1.050000*%
%ADD18R,1.270000X3.600000*%
%ADD19R,1.350000X4.200000*%
%ADD20R,1.800000X0.700000*%
%ADD21R,1.800000X0.800000*%
G04 APERTURE END LIST*
D10*
X12255500Y-11303000D02*
G75*
G02X12192000Y-11239500I0J63500D01*
G01*
X12192000Y-8318500D02*
G75*
G02X12255500Y-8255000I63500J0D01*
G01*
X13906500Y-8255000D02*
G75*
G02X13970000Y-8318500I0J-63500D01*
G01*
X13970000Y-11239500D02*
G75*
G02X13906500Y-11303000I-63500J0D01*
G01*
X13970000Y-8318500D02*
X13970000Y-11239500D01*
X12255500Y-8255000D02*
X13906500Y-8255000D01*
X12192000Y-11239500D02*
X12192000Y-8318500D01*
X13906500Y-11303000D02*
X12255500Y-11303000D01*
D11*
X13983000Y-11049000D02*
X13983000Y-8255000D01*
X12446000Y-11303000D02*
X12446000Y-8255000D01*
X13716000Y-11049000D02*
X13983000Y-11049000D01*
X13716000Y-11303000D02*
X13716000Y-8255000D01*
X13983000Y-8255000D02*
X12179000Y-8255000D01*
X12179000Y-8255000D02*
X12179000Y-11303000D01*
X12179000Y-11303000D02*
X13716000Y-11303000D01*
X13455400Y-8527800D02*
X13265400Y-8527800D01*
X13455400Y-8337800D02*
X13455400Y-8527800D01*
X13265400Y-8337800D02*
X13455400Y-8337800D01*
X13265400Y-8527800D02*
X13265400Y-8337800D01*
X12668500Y-8540500D02*
X12668500Y-8350500D01*
X12858500Y-8540500D02*
X12668500Y-8540500D01*
X12858500Y-8350500D02*
X12858500Y-8540500D01*
X12668500Y-8350500D02*
X12858500Y-8350500D01*
D12*
X12921000Y-8793500D02*
X12961000Y-8793500D01*
X13241000Y-8793500D02*
X13201000Y-8793500D01*
X13241000Y-8793500D02*
X13241000Y-8833500D01*
X13241000Y-9113500D02*
X13201000Y-9113500D01*
X13241000Y-9113500D02*
X13241000Y-9073500D01*
X12921000Y-9113500D02*
X12961000Y-9113500D01*
X12921000Y-9113500D02*
X12921000Y-9073500D01*
D11*
X13455500Y-8790000D02*
X13595500Y-8790000D01*
X13665500Y-8860000D02*
X13665500Y-8920000D01*
X13595500Y-8990000D02*
X13455500Y-8990000D01*
X13385500Y-8920000D02*
X13385500Y-8860000D01*
X13385500Y-8860000D02*
G75*
G02X13455500Y-8790000I70000J0D01*
G01*
X13455500Y-8990000D02*
G75*
G02X13385500Y-8920000I0J70000D01*
G01*
X13665500Y-8920000D02*
G75*
G02X13595500Y-8990000I-70000J0D01*
G01*
X13595500Y-8790000D02*
G75*
G02X13665500Y-8860000I0J-70000D01*
G01*
X13216000Y-11296000D02*
X12946000Y-11296000D01*
X13157000Y-11024000D02*
X13157000Y-10961000D01*
X12941000Y-11024000D02*
X13005000Y-11024000D01*
X13221000Y-11024000D02*
X13157000Y-11024000D01*
X13595500Y-9244000D02*
X13455500Y-9244000D01*
X13385500Y-9174000D02*
X13385500Y-9114000D01*
X13455500Y-9044000D02*
X13595500Y-9044000D01*
X13665500Y-9114000D02*
X13665500Y-9174000D01*
X13665500Y-9174000D02*
G75*
G02X13595500Y-9244000I-70000J0D01*
G01*
X13595500Y-9044000D02*
G75*
G02X13665500Y-9114000I0J-70000D01*
G01*
X13385500Y-9114000D02*
G75*
G02X13455500Y-9044000I70000J0D01*
G01*
X13455500Y-9244000D02*
G75*
G02X13385500Y-9174000I0J70000D01*
G01*
X12436000Y-8741500D02*
X12436000Y-8970000D01*
X12583000Y-8741500D02*
X12436000Y-8741500D01*
X12583000Y-8970000D02*
X12583000Y-8741500D01*
X12522000Y-10603472D02*
X12522000Y-10636028D01*
X12624000Y-10603472D02*
X12624000Y-10636028D01*
X13081000Y-10886500D02*
X13106000Y-10836500D01*
X13106000Y-10836500D02*
X13056000Y-10836500D01*
X13056000Y-10836500D02*
X13081000Y-10886500D01*
X12596000Y-9326500D02*
X13577000Y-9326500D01*
X12585000Y-10358500D02*
X13577000Y-10358500D01*
X13577000Y-10324500D02*
X13577000Y-10358500D01*
X12585000Y-10324500D02*
X12585000Y-10358500D01*
X13577000Y-9326500D02*
X13577000Y-9360500D01*
D12*
X13605667Y-11247428D02*
X13605667Y-11199809D01*
X13634238Y-11256952D02*
X13534238Y-11223619D01*
X13634238Y-11190286D01*
X13634238Y-11104571D02*
X13634238Y-11161714D01*
X13634238Y-11133143D02*
X13534238Y-11133143D01*
X13548524Y-11142667D01*
X13558048Y-11152190D01*
X13562809Y-11161714D01*
X12975433Y-8709814D02*
X12970671Y-8714576D01*
X12956386Y-8719338D01*
X12946862Y-8719338D01*
X12932576Y-8714576D01*
X12923052Y-8705052D01*
X12918290Y-8695529D01*
X12913528Y-8676481D01*
X12913528Y-8662195D01*
X12918290Y-8643148D01*
X12923052Y-8633624D01*
X12932576Y-8624100D01*
X12946862Y-8619338D01*
X12956386Y-8619338D01*
X12970671Y-8624100D01*
X12975433Y-8628862D01*
X13032576Y-8662195D02*
X13023052Y-8657433D01*
X13018290Y-8652671D01*
X13013528Y-8643148D01*
X13013528Y-8638386D01*
X13018290Y-8628862D01*
X13023052Y-8624100D01*
X13032576Y-8619338D01*
X13051624Y-8619338D01*
X13061148Y-8624100D01*
X13065909Y-8628862D01*
X13070671Y-8638386D01*
X13070671Y-8643148D01*
X13065909Y-8652671D01*
X13061148Y-8657433D01*
X13051624Y-8662195D01*
X13032576Y-8662195D01*
X13023052Y-8666957D01*
X13018290Y-8671719D01*
X13013528Y-8681243D01*
X13013528Y-8700290D01*
X13018290Y-8709814D01*
X13023052Y-8714576D01*
X13032576Y-8719338D01*
X13051624Y-8719338D01*
X13061148Y-8714576D01*
X13065909Y-8709814D01*
X13070671Y-8700290D01*
X13070671Y-8681243D01*
X13065909Y-8671719D01*
X13061148Y-8666957D01*
X13051624Y-8662195D01*
X12707138Y-8652667D02*
X12659519Y-8686000D01*
X12707138Y-8709810D02*
X12607138Y-8709810D01*
X12607138Y-8671714D01*
X12611900Y-8662190D01*
X12616662Y-8657429D01*
X12626186Y-8652667D01*
X12640471Y-8652667D01*
X12649995Y-8657429D01*
X12654757Y-8662190D01*
X12659519Y-8671714D01*
X12659519Y-8709810D01*
X12607138Y-8562190D02*
X12607138Y-8609810D01*
X12654757Y-8614571D01*
X12649995Y-8609810D01*
X12645233Y-8600286D01*
X12645233Y-8576476D01*
X12649995Y-8566952D01*
X12654757Y-8562190D01*
X12664281Y-8557429D01*
X12688090Y-8557429D01*
X12697614Y-8562190D01*
X12702376Y-8566952D01*
X12707138Y-8576476D01*
X12707138Y-8600286D01*
X12702376Y-8609810D01*
X12697614Y-8614571D01*
X12834138Y-8652667D02*
X12786519Y-8686000D01*
X12834138Y-8709810D02*
X12734138Y-8709810D01*
X12734138Y-8671714D01*
X12738900Y-8662190D01*
X12743662Y-8657429D01*
X12753186Y-8652667D01*
X12767471Y-8652667D01*
X12776995Y-8657429D01*
X12781757Y-8662190D01*
X12786519Y-8671714D01*
X12786519Y-8709810D01*
X12767471Y-8566952D02*
X12834138Y-8566952D01*
X12729376Y-8590762D02*
X12800805Y-8614571D01*
X12800805Y-8552667D01*
X12975433Y-8430414D02*
X12970671Y-8435176D01*
X12956386Y-8439938D01*
X12946862Y-8439938D01*
X12932576Y-8435176D01*
X12923052Y-8425652D01*
X12918290Y-8416129D01*
X12913528Y-8397081D01*
X12913528Y-8382795D01*
X12918290Y-8363748D01*
X12923052Y-8354224D01*
X12932576Y-8344700D01*
X12946862Y-8339938D01*
X12956386Y-8339938D01*
X12970671Y-8344700D01*
X12975433Y-8349462D01*
X13008767Y-8339938D02*
X13075433Y-8339938D01*
X13032576Y-8439938D01*
X12975433Y-8570114D02*
X12970671Y-8574876D01*
X12956386Y-8579638D01*
X12946862Y-8579638D01*
X12932576Y-8574876D01*
X12923052Y-8565352D01*
X12918290Y-8555829D01*
X12913528Y-8536781D01*
X12913528Y-8522495D01*
X12918290Y-8503448D01*
X12923052Y-8493924D01*
X12932576Y-8484400D01*
X12946862Y-8479638D01*
X12956386Y-8479638D01*
X12970671Y-8484400D01*
X12975433Y-8489162D01*
X13061148Y-8479638D02*
X13042100Y-8479638D01*
X13032576Y-8484400D01*
X13027814Y-8489162D01*
X13018290Y-8503448D01*
X13013528Y-8522495D01*
X13013528Y-8560590D01*
X13018290Y-8570114D01*
X13023052Y-8574876D01*
X13032576Y-8579638D01*
X13051624Y-8579638D01*
X13061148Y-8574876D01*
X13065909Y-8570114D01*
X13070671Y-8560590D01*
X13070671Y-8536781D01*
X13065909Y-8527257D01*
X13061148Y-8522495D01*
X13051624Y-8517733D01*
X13032576Y-8517733D01*
X13023052Y-8522495D01*
X13018290Y-8527257D01*
X13013528Y-8536781D01*
X12988133Y-9268614D02*
X12983371Y-9273376D01*
X12969086Y-9278138D01*
X12959562Y-9278138D01*
X12945276Y-9273376D01*
X12935752Y-9263852D01*
X12930990Y-9254329D01*
X12926228Y-9235281D01*
X12926228Y-9220995D01*
X12930990Y-9201948D01*
X12935752Y-9192424D01*
X12945276Y-9182900D01*
X12959562Y-9178138D01*
X12969086Y-9178138D01*
X12983371Y-9182900D01*
X12988133Y-9187662D01*
X13073848Y-9211471D02*
X13073848Y-9278138D01*
X13050038Y-9173376D02*
X13026228Y-9244805D01*
X13088133Y-9244805D01*
X13144509Y-8619338D02*
X13144509Y-8700290D01*
X13149271Y-8709814D01*
X13154033Y-8714576D01*
X13163557Y-8719338D01*
X13182605Y-8719338D01*
X13192128Y-8714576D01*
X13196890Y-8709814D01*
X13201652Y-8700290D01*
X13201652Y-8619338D01*
X13244509Y-8628862D02*
X13249271Y-8624100D01*
X13258795Y-8619338D01*
X13282605Y-8619338D01*
X13292128Y-8624100D01*
X13296890Y-8628862D01*
X13301652Y-8638386D01*
X13301652Y-8647910D01*
X13296890Y-8662195D01*
X13239748Y-8719338D01*
X13301652Y-8719338D01*
X13534238Y-11018833D02*
X13605667Y-11018833D01*
X13619952Y-11023595D01*
X13629476Y-11033119D01*
X13634238Y-11047405D01*
X13634238Y-11056929D01*
X13634238Y-10918833D02*
X13634238Y-10975976D01*
X13634238Y-10947405D02*
X13534238Y-10947405D01*
X13548524Y-10956929D01*
X13558048Y-10966452D01*
X13562809Y-10975976D01*
X13294514Y-10652917D02*
X13299276Y-10657679D01*
X13304038Y-10671964D01*
X13304038Y-10681488D01*
X13299276Y-10695774D01*
X13289752Y-10705298D01*
X13280228Y-10710060D01*
X13261181Y-10714821D01*
X13246895Y-10714821D01*
X13227848Y-10710060D01*
X13218324Y-10705298D01*
X13208800Y-10695774D01*
X13204038Y-10681488D01*
X13204038Y-10671964D01*
X13208800Y-10657679D01*
X13213562Y-10652917D01*
X13213562Y-10614821D02*
X13208800Y-10610060D01*
X13204038Y-10600536D01*
X13204038Y-10576726D01*
X13208800Y-10567202D01*
X13213562Y-10562440D01*
X13223086Y-10557679D01*
X13232609Y-10557679D01*
X13246895Y-10562440D01*
X13304038Y-10619583D01*
X13304038Y-10557679D01*
X12554738Y-8652667D02*
X12507119Y-8686000D01*
X12554738Y-8709810D02*
X12454738Y-8709810D01*
X12454738Y-8671714D01*
X12459500Y-8662190D01*
X12464262Y-8657429D01*
X12473786Y-8652667D01*
X12488071Y-8652667D01*
X12497595Y-8657429D01*
X12502357Y-8662190D01*
X12507119Y-8671714D01*
X12507119Y-8709810D01*
X12554738Y-8557429D02*
X12554738Y-8614571D01*
X12554738Y-8586000D02*
X12454738Y-8586000D01*
X12469024Y-8595524D01*
X12478548Y-8605048D01*
X12483309Y-8614571D01*
X12554738Y-8455810D02*
X12454738Y-8455810D01*
X12454738Y-8432000D01*
X12459500Y-8417714D01*
X12469024Y-8408190D01*
X12478548Y-8403429D01*
X12497595Y-8398667D01*
X12511881Y-8398667D01*
X12530928Y-8403429D01*
X12540452Y-8408190D01*
X12549976Y-8417714D01*
X12554738Y-8432000D01*
X12554738Y-8455810D01*
X12554738Y-8303428D02*
X12554738Y-8360571D01*
X12554738Y-8332000D02*
X12454738Y-8332000D01*
X12469024Y-8341524D01*
X12478548Y-8351048D01*
X12483309Y-8360571D01*
X12608714Y-10875167D02*
X12613476Y-10879929D01*
X12618238Y-10894214D01*
X12618238Y-10903738D01*
X12613476Y-10918024D01*
X12603952Y-10927548D01*
X12594428Y-10932310D01*
X12575381Y-10937071D01*
X12561095Y-10937071D01*
X12542048Y-10932310D01*
X12532524Y-10927548D01*
X12523000Y-10918024D01*
X12518238Y-10903738D01*
X12518238Y-10894214D01*
X12523000Y-10879929D01*
X12527762Y-10875167D01*
X12618238Y-10779929D02*
X12618238Y-10837071D01*
X12618238Y-10808500D02*
X12518238Y-10808500D01*
X12532524Y-10818024D01*
X12542048Y-10827548D01*
X12546809Y-10837071D01*
X13443738Y-10542667D02*
X13396119Y-10576000D01*
X13443738Y-10599810D02*
X13343738Y-10599810D01*
X13343738Y-10561714D01*
X13348500Y-10552190D01*
X13353262Y-10547429D01*
X13362786Y-10542667D01*
X13377071Y-10542667D01*
X13386595Y-10547429D01*
X13391357Y-10552190D01*
X13396119Y-10561714D01*
X13396119Y-10599810D01*
X13353262Y-10504571D02*
X13348500Y-10499810D01*
X13343738Y-10490286D01*
X13343738Y-10466476D01*
X13348500Y-10456952D01*
X13353262Y-10452190D01*
X13362786Y-10447429D01*
X13372309Y-10447429D01*
X13386595Y-10452190D01*
X13443738Y-10509333D01*
X13443738Y-10447429D01*
X13443738Y-10748167D02*
X13443738Y-10795786D01*
X13343738Y-10795786D01*
X13443738Y-10662452D02*
X13443738Y-10719595D01*
X13443738Y-10691024D02*
X13343738Y-10691024D01*
X13358024Y-10700548D01*
X13367548Y-10710071D01*
X13372309Y-10719595D01*
X13634238Y-10652917D02*
X13586619Y-10686250D01*
X13634238Y-10710060D02*
X13534238Y-10710060D01*
X13534238Y-10671964D01*
X13539000Y-10662440D01*
X13543762Y-10657679D01*
X13553286Y-10652917D01*
X13567571Y-10652917D01*
X13577095Y-10657679D01*
X13581857Y-10662440D01*
X13586619Y-10671964D01*
X13586619Y-10710060D01*
X13534238Y-10619583D02*
X13534238Y-10557679D01*
X13572333Y-10591012D01*
X13572333Y-10576726D01*
X13577095Y-10567202D01*
X13581857Y-10562440D01*
X13591381Y-10557679D01*
X13615190Y-10557679D01*
X13624714Y-10562440D01*
X13629476Y-10567202D01*
X13634238Y-10576726D01*
X13634238Y-10605298D01*
X13629476Y-10614821D01*
X13624714Y-10619583D01*
X13572333Y-10830714D02*
X13567571Y-10835476D01*
X13553286Y-10840238D01*
X13543762Y-10840238D01*
X13529476Y-10835476D01*
X13519952Y-10825952D01*
X13515190Y-10816429D01*
X13510428Y-10797381D01*
X13510428Y-10783095D01*
X13515190Y-10764048D01*
X13519952Y-10754524D01*
X13529476Y-10745000D01*
X13543762Y-10740238D01*
X13553286Y-10740238D01*
X13567571Y-10745000D01*
X13572333Y-10749762D01*
X13662809Y-10740238D02*
X13615190Y-10740238D01*
X13610428Y-10787857D01*
X13615190Y-10783095D01*
X13624714Y-10778333D01*
X13648524Y-10778333D01*
X13658048Y-10783095D01*
X13662809Y-10787857D01*
X13667571Y-10797381D01*
X13667571Y-10821190D01*
X13662809Y-10830714D01*
X13658048Y-10835476D01*
X13648524Y-10840238D01*
X13624714Y-10840238D01*
X13615190Y-10835476D01*
X13610428Y-10830714D01*
X13572333Y-10513214D02*
X13567571Y-10517976D01*
X13553286Y-10522738D01*
X13543762Y-10522738D01*
X13529476Y-10517976D01*
X13519952Y-10508452D01*
X13515190Y-10498929D01*
X13510428Y-10479881D01*
X13510428Y-10465595D01*
X13515190Y-10446548D01*
X13519952Y-10437024D01*
X13529476Y-10427500D01*
X13543762Y-10422738D01*
X13553286Y-10422738D01*
X13567571Y-10427500D01*
X13572333Y-10432262D01*
X13605667Y-10422738D02*
X13667571Y-10422738D01*
X13634238Y-10460833D01*
X13648524Y-10460833D01*
X13658048Y-10465595D01*
X13662809Y-10470357D01*
X13667571Y-10479881D01*
X13667571Y-10503690D01*
X13662809Y-10513214D01*
X13658048Y-10517976D01*
X13648524Y-10522738D01*
X13619952Y-10522738D01*
X13610428Y-10517976D01*
X13605667Y-10513214D01*
X12518238Y-11209333D02*
X12589667Y-11209333D01*
X12603952Y-11214095D01*
X12613476Y-11223619D01*
X12618238Y-11237905D01*
X12618238Y-11247428D01*
X12527762Y-11166476D02*
X12523000Y-11161714D01*
X12518238Y-11152190D01*
X12518238Y-11128381D01*
X12523000Y-11118857D01*
X12527762Y-11114095D01*
X12537286Y-11109333D01*
X12546809Y-11109333D01*
X12561095Y-11114095D01*
X12618238Y-11171238D01*
X12618238Y-11109333D01*
X12839690Y-10494162D02*
X12839690Y-10413210D01*
X12834928Y-10403686D01*
X12830167Y-10398924D01*
X12820643Y-10394162D01*
X12801595Y-10394162D01*
X12792071Y-10398924D01*
X12787309Y-10403686D01*
X12782548Y-10413210D01*
X12782548Y-10494162D01*
X12682548Y-10394162D02*
X12739690Y-10394162D01*
X12711119Y-10394162D02*
X12711119Y-10494162D01*
X12720643Y-10479876D01*
X12730167Y-10470352D01*
X12739690Y-10465590D01*
%LPC*%
D13*
X12319000Y-11176000D03*
X12319000Y-10922000D03*
X12319000Y-10668000D03*
X13843000Y-8382000D03*
X12319000Y-10414000D03*
X13843000Y-8636000D03*
X12319000Y-10160000D03*
X13843000Y-8890000D03*
X12319000Y-9906000D03*
X13843000Y-9144000D03*
X12319000Y-9652000D03*
X13843000Y-9398000D03*
X12319000Y-9398000D03*
X13843000Y-9652000D03*
X12319000Y-9144000D03*
X13843000Y-9906000D03*
X12319000Y-8890000D03*
X13843000Y-10160000D03*
X12319000Y-8636000D03*
X13843000Y-10414000D03*
X12319000Y-8382000D03*
X13843000Y-10668000D03*
X13843000Y-10922000D03*
D14*
X13843000Y-11176000D03*
D15*
X13360400Y-8432800D03*
X12763500Y-8445500D03*
D12*
G36*
X12693096Y-9200971D02*
G01*
X12694528Y-9201183D01*
X12695932Y-9201535D01*
X12697295Y-9202023D01*
X12698603Y-9202642D01*
X12699845Y-9203386D01*
X12701007Y-9204248D01*
X12702080Y-9205220D01*
X12703052Y-9206293D01*
X12703914Y-9207455D01*
X12704658Y-9208697D01*
X12705277Y-9210005D01*
X12705765Y-9211368D01*
X12706117Y-9212772D01*
X12706329Y-9214204D01*
X12706400Y-9215650D01*
X12706400Y-9250150D01*
X12706329Y-9251596D01*
X12706117Y-9253028D01*
X12705765Y-9254432D01*
X12705277Y-9255795D01*
X12704658Y-9257103D01*
X12703914Y-9258345D01*
X12703052Y-9259507D01*
X12702080Y-9260580D01*
X12701007Y-9261552D01*
X12699845Y-9262414D01*
X12698603Y-9263158D01*
X12697295Y-9263777D01*
X12695932Y-9264265D01*
X12694528Y-9264617D01*
X12693096Y-9264829D01*
X12691650Y-9264900D01*
X12662150Y-9264900D01*
X12660704Y-9264829D01*
X12659272Y-9264617D01*
X12657868Y-9264265D01*
X12656505Y-9263777D01*
X12655197Y-9263158D01*
X12653955Y-9262414D01*
X12652793Y-9261552D01*
X12651720Y-9260580D01*
X12650748Y-9259507D01*
X12649886Y-9258345D01*
X12649142Y-9257103D01*
X12648523Y-9255795D01*
X12648035Y-9254432D01*
X12647683Y-9253028D01*
X12647471Y-9251596D01*
X12647400Y-9250150D01*
X12647400Y-9215650D01*
X12647471Y-9214204D01*
X12647683Y-9212772D01*
X12648035Y-9211368D01*
X12648523Y-9210005D01*
X12649142Y-9208697D01*
X12649886Y-9207455D01*
X12650748Y-9206293D01*
X12651720Y-9205220D01*
X12652793Y-9204248D01*
X12653955Y-9203386D01*
X12655197Y-9202642D01*
X12656505Y-9202023D01*
X12657868Y-9201535D01*
X12659272Y-9201183D01*
X12660704Y-9200971D01*
X12662150Y-9200900D01*
X12691650Y-9200900D01*
X12693096Y-9200971D01*
G37*
G36*
X12790096Y-9200971D02*
G01*
X12791528Y-9201183D01*
X12792932Y-9201535D01*
X12794295Y-9202023D01*
X12795603Y-9202642D01*
X12796845Y-9203386D01*
X12798007Y-9204248D01*
X12799080Y-9205220D01*
X12800052Y-9206293D01*
X12800914Y-9207455D01*
X12801658Y-9208697D01*
X12802277Y-9210005D01*
X12802765Y-9211368D01*
X12803117Y-9212772D01*
X12803329Y-9214204D01*
X12803400Y-9215650D01*
X12803400Y-9250150D01*
X12803329Y-9251596D01*
X12803117Y-9253028D01*
X12802765Y-9254432D01*
X12802277Y-9255795D01*
X12801658Y-9257103D01*
X12800914Y-9258345D01*
X12800052Y-9259507D01*
X12799080Y-9260580D01*
X12798007Y-9261552D01*
X12796845Y-9262414D01*
X12795603Y-9263158D01*
X12794295Y-9263777D01*
X12792932Y-9264265D01*
X12791528Y-9264617D01*
X12790096Y-9264829D01*
X12788650Y-9264900D01*
X12759150Y-9264900D01*
X12757704Y-9264829D01*
X12756272Y-9264617D01*
X12754868Y-9264265D01*
X12753505Y-9263777D01*
X12752197Y-9263158D01*
X12750955Y-9262414D01*
X12749793Y-9261552D01*
X12748720Y-9260580D01*
X12747748Y-9259507D01*
X12746886Y-9258345D01*
X12746142Y-9257103D01*
X12745523Y-9255795D01*
X12745035Y-9254432D01*
X12744683Y-9253028D01*
X12744471Y-9251596D01*
X12744400Y-9250150D01*
X12744400Y-9215650D01*
X12744471Y-9214204D01*
X12744683Y-9212772D01*
X12745035Y-9211368D01*
X12745523Y-9210005D01*
X12746142Y-9208697D01*
X12746886Y-9207455D01*
X12747748Y-9206293D01*
X12748720Y-9205220D01*
X12749793Y-9204248D01*
X12750955Y-9203386D01*
X12752197Y-9202642D01*
X12753505Y-9202023D01*
X12754868Y-9201535D01*
X12756272Y-9201183D01*
X12757704Y-9200971D01*
X12759150Y-9200900D01*
X12788650Y-9200900D01*
X12790096Y-9200971D01*
G37*
G36*
X12680596Y-8723171D02*
G01*
X12682028Y-8723383D01*
X12683432Y-8723735D01*
X12684795Y-8724223D01*
X12686103Y-8724842D01*
X12687345Y-8725586D01*
X12688507Y-8726448D01*
X12689580Y-8727420D01*
X12690552Y-8728493D01*
X12691414Y-8729655D01*
X12692158Y-8730897D01*
X12692777Y-8732205D01*
X12693265Y-8733568D01*
X12693617Y-8734972D01*
X12693829Y-8736404D01*
X12693900Y-8737850D01*
X12693900Y-8767350D01*
X12693829Y-8768796D01*
X12693617Y-8770228D01*
X12693265Y-8771632D01*
X12692777Y-8772995D01*
X12692158Y-8774303D01*
X12691414Y-8775545D01*
X12690552Y-8776707D01*
X12689580Y-8777780D01*
X12688507Y-8778752D01*
X12687345Y-8779614D01*
X12686103Y-8780358D01*
X12684795Y-8780977D01*
X12683432Y-8781465D01*
X12682028Y-8781817D01*
X12680596Y-8782029D01*
X12679150Y-8782100D01*
X12644650Y-8782100D01*
X12643204Y-8782029D01*
X12641772Y-8781817D01*
X12640368Y-8781465D01*
X12639005Y-8780977D01*
X12637697Y-8780358D01*
X12636455Y-8779614D01*
X12635293Y-8778752D01*
X12634220Y-8777780D01*
X12633248Y-8776707D01*
X12632386Y-8775545D01*
X12631642Y-8774303D01*
X12631023Y-8772995D01*
X12630535Y-8771632D01*
X12630183Y-8770228D01*
X12629971Y-8768796D01*
X12629900Y-8767350D01*
X12629900Y-8737850D01*
X12629971Y-8736404D01*
X12630183Y-8734972D01*
X12630535Y-8733568D01*
X12631023Y-8732205D01*
X12631642Y-8730897D01*
X12632386Y-8729655D01*
X12633248Y-8728493D01*
X12634220Y-8727420D01*
X12635293Y-8726448D01*
X12636455Y-8725586D01*
X12637697Y-8724842D01*
X12639005Y-8724223D01*
X12640368Y-8723735D01*
X12641772Y-8723383D01*
X12643204Y-8723171D01*
X12644650Y-8723100D01*
X12679150Y-8723100D01*
X12680596Y-8723171D01*
G37*
G36*
X12680596Y-8820171D02*
G01*
X12682028Y-8820383D01*
X12683432Y-8820735D01*
X12684795Y-8821223D01*
X12686103Y-8821842D01*
X12687345Y-8822586D01*
X12688507Y-8823448D01*
X12689580Y-8824420D01*
X12690552Y-8825493D01*
X12691414Y-8826655D01*
X12692158Y-8827897D01*
X12692777Y-8829205D01*
X12693265Y-8830568D01*
X12693617Y-8831972D01*
X12693829Y-8833404D01*
X12693900Y-8834850D01*
X12693900Y-8864350D01*
X12693829Y-8865796D01*
X12693617Y-8867228D01*
X12693265Y-8868632D01*
X12692777Y-8869995D01*
X12692158Y-8871303D01*
X12691414Y-8872545D01*
X12690552Y-8873707D01*
X12689580Y-8874780D01*
X12688507Y-8875752D01*
X12687345Y-8876614D01*
X12686103Y-8877358D01*
X12684795Y-8877977D01*
X12683432Y-8878465D01*
X12682028Y-8878817D01*
X12680596Y-8879029D01*
X12679150Y-8879100D01*
X12644650Y-8879100D01*
X12643204Y-8879029D01*
X12641772Y-8878817D01*
X12640368Y-8878465D01*
X12639005Y-8877977D01*
X12637697Y-8877358D01*
X12636455Y-8876614D01*
X12635293Y-8875752D01*
X12634220Y-8874780D01*
X12633248Y-8873707D01*
X12632386Y-8872545D01*
X12631642Y-8871303D01*
X12631023Y-8869995D01*
X12630535Y-8868632D01*
X12630183Y-8867228D01*
X12629971Y-8865796D01*
X12629900Y-8864350D01*
X12629900Y-8834850D01*
X12629971Y-8833404D01*
X12630183Y-8831972D01*
X12630535Y-8830568D01*
X12631023Y-8829205D01*
X12631642Y-8827897D01*
X12632386Y-8826655D01*
X12633248Y-8825493D01*
X12634220Y-8824420D01*
X12635293Y-8823448D01*
X12636455Y-8822586D01*
X12637697Y-8821842D01*
X12639005Y-8821223D01*
X12640368Y-8820735D01*
X12641772Y-8820383D01*
X12643204Y-8820171D01*
X12644650Y-8820100D01*
X12679150Y-8820100D01*
X12680596Y-8820171D01*
G37*
G36*
X12807596Y-8723171D02*
G01*
X12809028Y-8723383D01*
X12810432Y-8723735D01*
X12811795Y-8724223D01*
X12813103Y-8724842D01*
X12814345Y-8725586D01*
X12815507Y-8726448D01*
X12816580Y-8727420D01*
X12817552Y-8728493D01*
X12818414Y-8729655D01*
X12819158Y-8730897D01*
X12819777Y-8732205D01*
X12820265Y-8733568D01*
X12820617Y-8734972D01*
X12820829Y-8736404D01*
X12820900Y-8737850D01*
X12820900Y-8767350D01*
X12820829Y-8768796D01*
X12820617Y-8770228D01*
X12820265Y-8771632D01*
X12819777Y-8772995D01*
X12819158Y-8774303D01*
X12818414Y-8775545D01*
X12817552Y-8776707D01*
X12816580Y-8777780D01*
X12815507Y-8778752D01*
X12814345Y-8779614D01*
X12813103Y-8780358D01*
X12811795Y-8780977D01*
X12810432Y-8781465D01*
X12809028Y-8781817D01*
X12807596Y-8782029D01*
X12806150Y-8782100D01*
X12771650Y-8782100D01*
X12770204Y-8782029D01*
X12768772Y-8781817D01*
X12767368Y-8781465D01*
X12766005Y-8780977D01*
X12764697Y-8780358D01*
X12763455Y-8779614D01*
X12762293Y-8778752D01*
X12761220Y-8777780D01*
X12760248Y-8776707D01*
X12759386Y-8775545D01*
X12758642Y-8774303D01*
X12758023Y-8772995D01*
X12757535Y-8771632D01*
X12757183Y-8770228D01*
X12756971Y-8768796D01*
X12756900Y-8767350D01*
X12756900Y-8737850D01*
X12756971Y-8736404D01*
X12757183Y-8734972D01*
X12757535Y-8733568D01*
X12758023Y-8732205D01*
X12758642Y-8730897D01*
X12759386Y-8729655D01*
X12760248Y-8728493D01*
X12761220Y-8727420D01*
X12762293Y-8726448D01*
X12763455Y-8725586D01*
X12764697Y-8724842D01*
X12766005Y-8724223D01*
X12767368Y-8723735D01*
X12768772Y-8723383D01*
X12770204Y-8723171D01*
X12771650Y-8723100D01*
X12806150Y-8723100D01*
X12807596Y-8723171D01*
G37*
G36*
X12807596Y-8820171D02*
G01*
X12809028Y-8820383D01*
X12810432Y-8820735D01*
X12811795Y-8821223D01*
X12813103Y-8821842D01*
X12814345Y-8822586D01*
X12815507Y-8823448D01*
X12816580Y-8824420D01*
X12817552Y-8825493D01*
X12818414Y-8826655D01*
X12819158Y-8827897D01*
X12819777Y-8829205D01*
X12820265Y-8830568D01*
X12820617Y-8831972D01*
X12820829Y-8833404D01*
X12820900Y-8834850D01*
X12820900Y-8864350D01*
X12820829Y-8865796D01*
X12820617Y-8867228D01*
X12820265Y-8868632D01*
X12819777Y-8869995D01*
X12819158Y-8871303D01*
X12818414Y-8872545D01*
X12817552Y-8873707D01*
X12816580Y-8874780D01*
X12815507Y-8875752D01*
X12814345Y-8876614D01*
X12813103Y-8877358D01*
X12811795Y-8877977D01*
X12810432Y-8878465D01*
X12809028Y-8878817D01*
X12807596Y-8879029D01*
X12806150Y-8879100D01*
X12771650Y-8879100D01*
X12770204Y-8879029D01*
X12768772Y-8878817D01*
X12767368Y-8878465D01*
X12766005Y-8877977D01*
X12764697Y-8877358D01*
X12763455Y-8876614D01*
X12762293Y-8875752D01*
X12761220Y-8874780D01*
X12760248Y-8873707D01*
X12759386Y-8872545D01*
X12758642Y-8871303D01*
X12758023Y-8869995D01*
X12757535Y-8868632D01*
X12757183Y-8867228D01*
X12756971Y-8865796D01*
X12756900Y-8864350D01*
X12756900Y-8834850D01*
X12756971Y-8833404D01*
X12757183Y-8831972D01*
X12757535Y-8830568D01*
X12758023Y-8829205D01*
X12758642Y-8827897D01*
X12759386Y-8826655D01*
X12760248Y-8825493D01*
X12761220Y-8824420D01*
X12762293Y-8823448D01*
X12763455Y-8822586D01*
X12764697Y-8821842D01*
X12766005Y-8821223D01*
X12767368Y-8820735D01*
X12768772Y-8820383D01*
X12770204Y-8820171D01*
X12771650Y-8820100D01*
X12806150Y-8820100D01*
X12807596Y-8820171D01*
G37*
G36*
X12693096Y-8946971D02*
G01*
X12694528Y-8947183D01*
X12695932Y-8947535D01*
X12697295Y-8948023D01*
X12698603Y-8948642D01*
X12699845Y-8949386D01*
X12701007Y-8950248D01*
X12702080Y-8951220D01*
X12703052Y-8952293D01*
X12703914Y-8953455D01*
X12704658Y-8954697D01*
X12705277Y-8956005D01*
X12705765Y-8957368D01*
X12706117Y-8958772D01*
X12706329Y-8960204D01*
X12706400Y-8961650D01*
X12706400Y-8996150D01*
X12706329Y-8997596D01*
X12706117Y-8999028D01*
X12705765Y-9000432D01*
X12705277Y-9001795D01*
X12704658Y-9003103D01*
X12703914Y-9004345D01*
X12703052Y-9005507D01*
X12702080Y-9006580D01*
X12701007Y-9007552D01*
X12699845Y-9008414D01*
X12698603Y-9009158D01*
X12697295Y-9009777D01*
X12695932Y-9010265D01*
X12694528Y-9010617D01*
X12693096Y-9010829D01*
X12691650Y-9010900D01*
X12662150Y-9010900D01*
X12660704Y-9010829D01*
X12659272Y-9010617D01*
X12657868Y-9010265D01*
X12656505Y-9009777D01*
X12655197Y-9009158D01*
X12653955Y-9008414D01*
X12652793Y-9007552D01*
X12651720Y-9006580D01*
X12650748Y-9005507D01*
X12649886Y-9004345D01*
X12649142Y-9003103D01*
X12648523Y-9001795D01*
X12648035Y-9000432D01*
X12647683Y-8999028D01*
X12647471Y-8997596D01*
X12647400Y-8996150D01*
X12647400Y-8961650D01*
X12647471Y-8960204D01*
X12647683Y-8958772D01*
X12648035Y-8957368D01*
X12648523Y-8956005D01*
X12649142Y-8954697D01*
X12649886Y-8953455D01*
X12650748Y-8952293D01*
X12651720Y-8951220D01*
X12652793Y-8950248D01*
X12653955Y-8949386D01*
X12655197Y-8948642D01*
X12656505Y-8948023D01*
X12657868Y-8947535D01*
X12659272Y-8947183D01*
X12660704Y-8946971D01*
X12662150Y-8946900D01*
X12691650Y-8946900D01*
X12693096Y-8946971D01*
G37*
G36*
X12790096Y-8946971D02*
G01*
X12791528Y-8947183D01*
X12792932Y-8947535D01*
X12794295Y-8948023D01*
X12795603Y-8948642D01*
X12796845Y-8949386D01*
X12798007Y-8950248D01*
X12799080Y-8951220D01*
X12800052Y-8952293D01*
X12800914Y-8953455D01*
X12801658Y-8954697D01*
X12802277Y-8956005D01*
X12802765Y-8957368D01*
X12803117Y-8958772D01*
X12803329Y-8960204D01*
X12803400Y-8961650D01*
X12803400Y-8996150D01*
X12803329Y-8997596D01*
X12803117Y-8999028D01*
X12802765Y-9000432D01*
X12802277Y-9001795D01*
X12801658Y-9003103D01*
X12800914Y-9004345D01*
X12800052Y-9005507D01*
X12799080Y-9006580D01*
X12798007Y-9007552D01*
X12796845Y-9008414D01*
X12795603Y-9009158D01*
X12794295Y-9009777D01*
X12792932Y-9010265D01*
X12791528Y-9010617D01*
X12790096Y-9010829D01*
X12788650Y-9010900D01*
X12759150Y-9010900D01*
X12757704Y-9010829D01*
X12756272Y-9010617D01*
X12754868Y-9010265D01*
X12753505Y-9009777D01*
X12752197Y-9009158D01*
X12750955Y-9008414D01*
X12749793Y-9007552D01*
X12748720Y-9006580D01*
X12747748Y-9005507D01*
X12746886Y-9004345D01*
X12746142Y-9003103D01*
X12745523Y-9001795D01*
X12745035Y-9000432D01*
X12744683Y-8999028D01*
X12744471Y-8997596D01*
X12744400Y-8996150D01*
X12744400Y-8961650D01*
X12744471Y-8960204D01*
X12744683Y-8958772D01*
X12745035Y-8957368D01*
X12745523Y-8956005D01*
X12746142Y-8954697D01*
X12746886Y-8953455D01*
X12747748Y-8952293D01*
X12748720Y-8951220D01*
X12749793Y-8950248D01*
X12750955Y-8949386D01*
X12752197Y-8948642D01*
X12753505Y-8948023D01*
X12754868Y-8947535D01*
X12756272Y-8947183D01*
X12757704Y-8946971D01*
X12759150Y-8946900D01*
X12788650Y-8946900D01*
X12790096Y-8946971D01*
G37*
G36*
X12693096Y-9073971D02*
G01*
X12694528Y-9074183D01*
X12695932Y-9074535D01*
X12697295Y-9075023D01*
X12698603Y-9075642D01*
X12699845Y-9076386D01*
X12701007Y-9077248D01*
X12702080Y-9078220D01*
X12703052Y-9079293D01*
X12703914Y-9080455D01*
X12704658Y-9081697D01*
X12705277Y-9083005D01*
X12705765Y-9084368D01*
X12706117Y-9085772D01*
X12706329Y-9087204D01*
X12706400Y-9088650D01*
X12706400Y-9123150D01*
X12706329Y-9124596D01*
X12706117Y-9126028D01*
X12705765Y-9127432D01*
X12705277Y-9128795D01*
X12704658Y-9130103D01*
X12703914Y-9131345D01*
X12703052Y-9132507D01*
X12702080Y-9133580D01*
X12701007Y-9134552D01*
X12699845Y-9135414D01*
X12698603Y-9136158D01*
X12697295Y-9136777D01*
X12695932Y-9137265D01*
X12694528Y-9137617D01*
X12693096Y-9137829D01*
X12691650Y-9137900D01*
X12662150Y-9137900D01*
X12660704Y-9137829D01*
X12659272Y-9137617D01*
X12657868Y-9137265D01*
X12656505Y-9136777D01*
X12655197Y-9136158D01*
X12653955Y-9135414D01*
X12652793Y-9134552D01*
X12651720Y-9133580D01*
X12650748Y-9132507D01*
X12649886Y-9131345D01*
X12649142Y-9130103D01*
X12648523Y-9128795D01*
X12648035Y-9127432D01*
X12647683Y-9126028D01*
X12647471Y-9124596D01*
X12647400Y-9123150D01*
X12647400Y-9088650D01*
X12647471Y-9087204D01*
X12647683Y-9085772D01*
X12648035Y-9084368D01*
X12648523Y-9083005D01*
X12649142Y-9081697D01*
X12649886Y-9080455D01*
X12650748Y-9079293D01*
X12651720Y-9078220D01*
X12652793Y-9077248D01*
X12653955Y-9076386D01*
X12655197Y-9075642D01*
X12656505Y-9075023D01*
X12657868Y-9074535D01*
X12659272Y-9074183D01*
X12660704Y-9073971D01*
X12662150Y-9073900D01*
X12691650Y-9073900D01*
X12693096Y-9073971D01*
G37*
G36*
X12790096Y-9073971D02*
G01*
X12791528Y-9074183D01*
X12792932Y-9074535D01*
X12794295Y-9075023D01*
X12795603Y-9075642D01*
X12796845Y-9076386D01*
X12798007Y-9077248D01*
X12799080Y-9078220D01*
X12800052Y-9079293D01*
X12800914Y-9080455D01*
X12801658Y-9081697D01*
X12802277Y-9083005D01*
X12802765Y-9084368D01*
X12803117Y-9085772D01*
X12803329Y-9087204D01*
X12803400Y-9088650D01*
X12803400Y-9123150D01*
X12803329Y-9124596D01*
X12803117Y-9126028D01*
X12802765Y-9127432D01*
X12802277Y-9128795D01*
X12801658Y-9130103D01*
X12800914Y-9131345D01*
X12800052Y-9132507D01*
X12799080Y-9133580D01*
X12798007Y-9134552D01*
X12796845Y-9135414D01*
X12795603Y-9136158D01*
X12794295Y-9136777D01*
X12792932Y-9137265D01*
X12791528Y-9137617D01*
X12790096Y-9137829D01*
X12788650Y-9137900D01*
X12759150Y-9137900D01*
X12757704Y-9137829D01*
X12756272Y-9137617D01*
X12754868Y-9137265D01*
X12753505Y-9136777D01*
X12752197Y-9136158D01*
X12750955Y-9135414D01*
X12749793Y-9134552D01*
X12748720Y-9133580D01*
X12747748Y-9132507D01*
X12746886Y-9131345D01*
X12746142Y-9130103D01*
X12745523Y-9128795D01*
X12745035Y-9127432D01*
X12744683Y-9126028D01*
X12744471Y-9124596D01*
X12744400Y-9123150D01*
X12744400Y-9088650D01*
X12744471Y-9087204D01*
X12744683Y-9085772D01*
X12745035Y-9084368D01*
X12745523Y-9083005D01*
X12746142Y-9081697D01*
X12746886Y-9080455D01*
X12747748Y-9079293D01*
X12748720Y-9078220D01*
X12749793Y-9077248D01*
X12750955Y-9076386D01*
X12752197Y-9075642D01*
X12753505Y-9075023D01*
X12754868Y-9074535D01*
X12756272Y-9074183D01*
X12757704Y-9073971D01*
X12759150Y-9073900D01*
X12788650Y-9073900D01*
X12790096Y-9073971D01*
G37*
G36*
X13272696Y-9200971D02*
G01*
X13274128Y-9201183D01*
X13275532Y-9201535D01*
X13276895Y-9202023D01*
X13278203Y-9202642D01*
X13279445Y-9203386D01*
X13280607Y-9204248D01*
X13281680Y-9205220D01*
X13282652Y-9206293D01*
X13283514Y-9207455D01*
X13284258Y-9208697D01*
X13284877Y-9210005D01*
X13285365Y-9211368D01*
X13285717Y-9212772D01*
X13285929Y-9214204D01*
X13286000Y-9215650D01*
X13286000Y-9250150D01*
X13285929Y-9251596D01*
X13285717Y-9253028D01*
X13285365Y-9254432D01*
X13284877Y-9255795D01*
X13284258Y-9257103D01*
X13283514Y-9258345D01*
X13282652Y-9259507D01*
X13281680Y-9260580D01*
X13280607Y-9261552D01*
X13279445Y-9262414D01*
X13278203Y-9263158D01*
X13276895Y-9263777D01*
X13275532Y-9264265D01*
X13274128Y-9264617D01*
X13272696Y-9264829D01*
X13271250Y-9264900D01*
X13241750Y-9264900D01*
X13240304Y-9264829D01*
X13238872Y-9264617D01*
X13237468Y-9264265D01*
X13236105Y-9263777D01*
X13234797Y-9263158D01*
X13233555Y-9262414D01*
X13232393Y-9261552D01*
X13231320Y-9260580D01*
X13230348Y-9259507D01*
X13229486Y-9258345D01*
X13228742Y-9257103D01*
X13228123Y-9255795D01*
X13227635Y-9254432D01*
X13227283Y-9253028D01*
X13227071Y-9251596D01*
X13227000Y-9250150D01*
X13227000Y-9215650D01*
X13227071Y-9214204D01*
X13227283Y-9212772D01*
X13227635Y-9211368D01*
X13228123Y-9210005D01*
X13228742Y-9208697D01*
X13229486Y-9207455D01*
X13230348Y-9206293D01*
X13231320Y-9205220D01*
X13232393Y-9204248D01*
X13233555Y-9203386D01*
X13234797Y-9202642D01*
X13236105Y-9202023D01*
X13237468Y-9201535D01*
X13238872Y-9201183D01*
X13240304Y-9200971D01*
X13241750Y-9200900D01*
X13271250Y-9200900D01*
X13272696Y-9200971D01*
G37*
G36*
X13175696Y-9200971D02*
G01*
X13177128Y-9201183D01*
X13178532Y-9201535D01*
X13179895Y-9202023D01*
X13181203Y-9202642D01*
X13182445Y-9203386D01*
X13183607Y-9204248D01*
X13184680Y-9205220D01*
X13185652Y-9206293D01*
X13186514Y-9207455D01*
X13187258Y-9208697D01*
X13187877Y-9210005D01*
X13188365Y-9211368D01*
X13188717Y-9212772D01*
X13188929Y-9214204D01*
X13189000Y-9215650D01*
X13189000Y-9250150D01*
X13188929Y-9251596D01*
X13188717Y-9253028D01*
X13188365Y-9254432D01*
X13187877Y-9255795D01*
X13187258Y-9257103D01*
X13186514Y-9258345D01*
X13185652Y-9259507D01*
X13184680Y-9260580D01*
X13183607Y-9261552D01*
X13182445Y-9262414D01*
X13181203Y-9263158D01*
X13179895Y-9263777D01*
X13178532Y-9264265D01*
X13177128Y-9264617D01*
X13175696Y-9264829D01*
X13174250Y-9264900D01*
X13144750Y-9264900D01*
X13143304Y-9264829D01*
X13141872Y-9264617D01*
X13140468Y-9264265D01*
X13139105Y-9263777D01*
X13137797Y-9263158D01*
X13136555Y-9262414D01*
X13135393Y-9261552D01*
X13134320Y-9260580D01*
X13133348Y-9259507D01*
X13132486Y-9258345D01*
X13131742Y-9257103D01*
X13131123Y-9255795D01*
X13130635Y-9254432D01*
X13130283Y-9253028D01*
X13130071Y-9251596D01*
X13130000Y-9250150D01*
X13130000Y-9215650D01*
X13130071Y-9214204D01*
X13130283Y-9212772D01*
X13130635Y-9211368D01*
X13131123Y-9210005D01*
X13131742Y-9208697D01*
X13132486Y-9207455D01*
X13133348Y-9206293D01*
X13134320Y-9205220D01*
X13135393Y-9204248D01*
X13136555Y-9203386D01*
X13137797Y-9202642D01*
X13139105Y-9202023D01*
X13140468Y-9201535D01*
X13141872Y-9201183D01*
X13143304Y-9200971D01*
X13144750Y-9200900D01*
X13174250Y-9200900D01*
X13175696Y-9200971D01*
G37*
G36*
X12986490Y-8776024D02*
G01*
X12986975Y-8776096D01*
X12987451Y-8776215D01*
X12987913Y-8776381D01*
X12988357Y-8776590D01*
X12988778Y-8776843D01*
X12989172Y-8777135D01*
X12989535Y-8777465D01*
X12989865Y-8777828D01*
X12990157Y-8778222D01*
X12990410Y-8778643D01*
X12990619Y-8779087D01*
X12990785Y-8779549D01*
X12990904Y-8780025D01*
X12990976Y-8780510D01*
X12991000Y-8781000D01*
X12991000Y-8826000D01*
X12990976Y-8826490D01*
X12990904Y-8826976D01*
X12990785Y-8827451D01*
X12990619Y-8827913D01*
X12990410Y-8828357D01*
X12990157Y-8828778D01*
X12989865Y-8829172D01*
X12989535Y-8829536D01*
X12989172Y-8829865D01*
X12988778Y-8830157D01*
X12988357Y-8830410D01*
X12987913Y-8830619D01*
X12987451Y-8830785D01*
X12986975Y-8830904D01*
X12986490Y-8830976D01*
X12986000Y-8831000D01*
X12976000Y-8831000D01*
X12975510Y-8830976D01*
X12975024Y-8830904D01*
X12974549Y-8830785D01*
X12974087Y-8830619D01*
X12973643Y-8830410D01*
X12973222Y-8830157D01*
X12972828Y-8829865D01*
X12972464Y-8829536D01*
X12972135Y-8829172D01*
X12971843Y-8828778D01*
X12971590Y-8828357D01*
X12971381Y-8827913D01*
X12971215Y-8827451D01*
X12971096Y-8826976D01*
X12971024Y-8826490D01*
X12971000Y-8826000D01*
X12971000Y-8781000D01*
X12971024Y-8780510D01*
X12971096Y-8780025D01*
X12971215Y-8779549D01*
X12971381Y-8779087D01*
X12971590Y-8778643D01*
X12971843Y-8778222D01*
X12972135Y-8777828D01*
X12972464Y-8777465D01*
X12972828Y-8777135D01*
X12973222Y-8776843D01*
X12973643Y-8776590D01*
X12974087Y-8776381D01*
X12974549Y-8776215D01*
X12975024Y-8776096D01*
X12975510Y-8776024D01*
X12976000Y-8776000D01*
X12986000Y-8776000D01*
X12986490Y-8776024D01*
G37*
G36*
X13026490Y-8776024D02*
G01*
X13026975Y-8776096D01*
X13027451Y-8776215D01*
X13027913Y-8776381D01*
X13028357Y-8776590D01*
X13028778Y-8776843D01*
X13029172Y-8777135D01*
X13029535Y-8777465D01*
X13029865Y-8777828D01*
X13030157Y-8778222D01*
X13030410Y-8778643D01*
X13030619Y-8779087D01*
X13030785Y-8779549D01*
X13030904Y-8780025D01*
X13030976Y-8780510D01*
X13031000Y-8781000D01*
X13031000Y-8826000D01*
X13030976Y-8826490D01*
X13030904Y-8826976D01*
X13030785Y-8827451D01*
X13030619Y-8827913D01*
X13030410Y-8828357D01*
X13030157Y-8828778D01*
X13029865Y-8829172D01*
X13029535Y-8829536D01*
X13029172Y-8829865D01*
X13028778Y-8830157D01*
X13028357Y-8830410D01*
X13027913Y-8830619D01*
X13027451Y-8830785D01*
X13026975Y-8830904D01*
X13026490Y-8830976D01*
X13026000Y-8831000D01*
X13016000Y-8831000D01*
X13015510Y-8830976D01*
X13015024Y-8830904D01*
X13014549Y-8830785D01*
X13014087Y-8830619D01*
X13013643Y-8830410D01*
X13013222Y-8830157D01*
X13012828Y-8829865D01*
X13012464Y-8829536D01*
X13012135Y-8829172D01*
X13011843Y-8828778D01*
X13011590Y-8828357D01*
X13011381Y-8827913D01*
X13011215Y-8827451D01*
X13011096Y-8826976D01*
X13011024Y-8826490D01*
X13011000Y-8826000D01*
X13011000Y-8781000D01*
X13011024Y-8780510D01*
X13011096Y-8780025D01*
X13011215Y-8779549D01*
X13011381Y-8779087D01*
X13011590Y-8778643D01*
X13011843Y-8778222D01*
X13012135Y-8777828D01*
X13012464Y-8777465D01*
X13012828Y-8777135D01*
X13013222Y-8776843D01*
X13013643Y-8776590D01*
X13014087Y-8776381D01*
X13014549Y-8776215D01*
X13015024Y-8776096D01*
X13015510Y-8776024D01*
X13016000Y-8776000D01*
X13026000Y-8776000D01*
X13026490Y-8776024D01*
G37*
G36*
X13066490Y-8776024D02*
G01*
X13066975Y-8776096D01*
X13067451Y-8776215D01*
X13067913Y-8776381D01*
X13068357Y-8776590D01*
X13068778Y-8776843D01*
X13069172Y-8777135D01*
X13069535Y-8777465D01*
X13069865Y-8777828D01*
X13070157Y-8778222D01*
X13070410Y-8778643D01*
X13070619Y-8779087D01*
X13070785Y-8779549D01*
X13070904Y-8780025D01*
X13070976Y-8780510D01*
X13071000Y-8781000D01*
X13071000Y-8826000D01*
X13070976Y-8826490D01*
X13070904Y-8826976D01*
X13070785Y-8827451D01*
X13070619Y-8827913D01*
X13070410Y-8828357D01*
X13070157Y-8828778D01*
X13069865Y-8829172D01*
X13069535Y-8829536D01*
X13069172Y-8829865D01*
X13068778Y-8830157D01*
X13068357Y-8830410D01*
X13067913Y-8830619D01*
X13067451Y-8830785D01*
X13066975Y-8830904D01*
X13066490Y-8830976D01*
X13066000Y-8831000D01*
X13056000Y-8831000D01*
X13055510Y-8830976D01*
X13055024Y-8830904D01*
X13054549Y-8830785D01*
X13054087Y-8830619D01*
X13053643Y-8830410D01*
X13053222Y-8830157D01*
X13052828Y-8829865D01*
X13052464Y-8829536D01*
X13052135Y-8829172D01*
X13051843Y-8828778D01*
X13051590Y-8828357D01*
X13051381Y-8827913D01*
X13051215Y-8827451D01*
X13051096Y-8826976D01*
X13051024Y-8826490D01*
X13051000Y-8826000D01*
X13051000Y-8781000D01*
X13051024Y-8780510D01*
X13051096Y-8780025D01*
X13051215Y-8779549D01*
X13051381Y-8779087D01*
X13051590Y-8778643D01*
X13051843Y-8778222D01*
X13052135Y-8777828D01*
X13052464Y-8777465D01*
X13052828Y-8777135D01*
X13053222Y-8776843D01*
X13053643Y-8776590D01*
X13054087Y-8776381D01*
X13054549Y-8776215D01*
X13055024Y-8776096D01*
X13055510Y-8776024D01*
X13056000Y-8776000D01*
X13066000Y-8776000D01*
X13066490Y-8776024D01*
G37*
G36*
X13106490Y-8776024D02*
G01*
X13106975Y-8776096D01*
X13107451Y-8776215D01*
X13107913Y-8776381D01*
X13108357Y-8776590D01*
X13108778Y-8776843D01*
X13109172Y-8777135D01*
X13109535Y-8777465D01*
X13109865Y-8777828D01*
X13110157Y-8778222D01*
X13110410Y-8778643D01*
X13110619Y-8779087D01*
X13110785Y-8779549D01*
X13110904Y-8780025D01*
X13110976Y-8780510D01*
X13111000Y-8781000D01*
X13111000Y-8826000D01*
X13110976Y-8826490D01*
X13110904Y-8826976D01*
X13110785Y-8827451D01*
X13110619Y-8827913D01*
X13110410Y-8828357D01*
X13110157Y-8828778D01*
X13109865Y-8829172D01*
X13109535Y-8829536D01*
X13109172Y-8829865D01*
X13108778Y-8830157D01*
X13108357Y-8830410D01*
X13107913Y-8830619D01*
X13107451Y-8830785D01*
X13106975Y-8830904D01*
X13106490Y-8830976D01*
X13106000Y-8831000D01*
X13096000Y-8831000D01*
X13095510Y-8830976D01*
X13095024Y-8830904D01*
X13094549Y-8830785D01*
X13094087Y-8830619D01*
X13093643Y-8830410D01*
X13093222Y-8830157D01*
X13092828Y-8829865D01*
X13092464Y-8829536D01*
X13092135Y-8829172D01*
X13091843Y-8828778D01*
X13091590Y-8828357D01*
X13091381Y-8827913D01*
X13091215Y-8827451D01*
X13091096Y-8826976D01*
X13091024Y-8826490D01*
X13091000Y-8826000D01*
X13091000Y-8781000D01*
X13091024Y-8780510D01*
X13091096Y-8780025D01*
X13091215Y-8779549D01*
X13091381Y-8779087D01*
X13091590Y-8778643D01*
X13091843Y-8778222D01*
X13092135Y-8777828D01*
X13092464Y-8777465D01*
X13092828Y-8777135D01*
X13093222Y-8776843D01*
X13093643Y-8776590D01*
X13094087Y-8776381D01*
X13094549Y-8776215D01*
X13095024Y-8776096D01*
X13095510Y-8776024D01*
X13096000Y-8776000D01*
X13106000Y-8776000D01*
X13106490Y-8776024D01*
G37*
G36*
X13146490Y-8776024D02*
G01*
X13146975Y-8776096D01*
X13147451Y-8776215D01*
X13147913Y-8776381D01*
X13148357Y-8776590D01*
X13148778Y-8776843D01*
X13149172Y-8777135D01*
X13149535Y-8777465D01*
X13149865Y-8777828D01*
X13150157Y-8778222D01*
X13150410Y-8778643D01*
X13150619Y-8779087D01*
X13150785Y-8779549D01*
X13150904Y-8780025D01*
X13150976Y-8780510D01*
X13151000Y-8781000D01*
X13151000Y-8826000D01*
X13150976Y-8826490D01*
X13150904Y-8826976D01*
X13150785Y-8827451D01*
X13150619Y-8827913D01*
X13150410Y-8828357D01*
X13150157Y-8828778D01*
X13149865Y-8829172D01*
X13149535Y-8829536D01*
X13149172Y-8829865D01*
X13148778Y-8830157D01*
X13148357Y-8830410D01*
X13147913Y-8830619D01*
X13147451Y-8830785D01*
X13146975Y-8830904D01*
X13146490Y-8830976D01*
X13146000Y-8831000D01*
X13136000Y-8831000D01*
X13135510Y-8830976D01*
X13135024Y-8830904D01*
X13134549Y-8830785D01*
X13134087Y-8830619D01*
X13133643Y-8830410D01*
X13133222Y-8830157D01*
X13132828Y-8829865D01*
X13132464Y-8829536D01*
X13132135Y-8829172D01*
X13131843Y-8828778D01*
X13131590Y-8828357D01*
X13131381Y-8827913D01*
X13131215Y-8827451D01*
X13131096Y-8826976D01*
X13131024Y-8826490D01*
X13131000Y-8826000D01*
X13131000Y-8781000D01*
X13131024Y-8780510D01*
X13131096Y-8780025D01*
X13131215Y-8779549D01*
X13131381Y-8779087D01*
X13131590Y-8778643D01*
X13131843Y-8778222D01*
X13132135Y-8777828D01*
X13132464Y-8777465D01*
X13132828Y-8777135D01*
X13133222Y-8776843D01*
X13133643Y-8776590D01*
X13134087Y-8776381D01*
X13134549Y-8776215D01*
X13135024Y-8776096D01*
X13135510Y-8776024D01*
X13136000Y-8776000D01*
X13146000Y-8776000D01*
X13146490Y-8776024D01*
G37*
G36*
X13186490Y-8776024D02*
G01*
X13186975Y-8776096D01*
X13187451Y-8776215D01*
X13187913Y-8776381D01*
X13188357Y-8776590D01*
X13188778Y-8776843D01*
X13189172Y-8777135D01*
X13189535Y-8777465D01*
X13189865Y-8777828D01*
X13190157Y-8778222D01*
X13190410Y-8778643D01*
X13190619Y-8779087D01*
X13190785Y-8779549D01*
X13190904Y-8780025D01*
X13190976Y-8780510D01*
X13191000Y-8781000D01*
X13191000Y-8826000D01*
X13190976Y-8826490D01*
X13190904Y-8826976D01*
X13190785Y-8827451D01*
X13190619Y-8827913D01*
X13190410Y-8828357D01*
X13190157Y-8828778D01*
X13189865Y-8829172D01*
X13189535Y-8829536D01*
X13189172Y-8829865D01*
X13188778Y-8830157D01*
X13188357Y-8830410D01*
X13187913Y-8830619D01*
X13187451Y-8830785D01*
X13186975Y-8830904D01*
X13186490Y-8830976D01*
X13186000Y-8831000D01*
X13176000Y-8831000D01*
X13175510Y-8830976D01*
X13175024Y-8830904D01*
X13174549Y-8830785D01*
X13174087Y-8830619D01*
X13173643Y-8830410D01*
X13173222Y-8830157D01*
X13172828Y-8829865D01*
X13172464Y-8829536D01*
X13172135Y-8829172D01*
X13171843Y-8828778D01*
X13171590Y-8828357D01*
X13171381Y-8827913D01*
X13171215Y-8827451D01*
X13171096Y-8826976D01*
X13171024Y-8826490D01*
X13171000Y-8826000D01*
X13171000Y-8781000D01*
X13171024Y-8780510D01*
X13171096Y-8780025D01*
X13171215Y-8779549D01*
X13171381Y-8779087D01*
X13171590Y-8778643D01*
X13171843Y-8778222D01*
X13172135Y-8777828D01*
X13172464Y-8777465D01*
X13172828Y-8777135D01*
X13173222Y-8776843D01*
X13173643Y-8776590D01*
X13174087Y-8776381D01*
X13174549Y-8776215D01*
X13175024Y-8776096D01*
X13175510Y-8776024D01*
X13176000Y-8776000D01*
X13186000Y-8776000D01*
X13186490Y-8776024D01*
G37*
G36*
X13253990Y-8843524D02*
G01*
X13254475Y-8843596D01*
X13254951Y-8843715D01*
X13255413Y-8843881D01*
X13255857Y-8844090D01*
X13256278Y-8844343D01*
X13256672Y-8844635D01*
X13257035Y-8844965D01*
X13257365Y-8845328D01*
X13257657Y-8845722D01*
X13257910Y-8846143D01*
X13258119Y-8846587D01*
X13258285Y-8847049D01*
X13258404Y-8847525D01*
X13258476Y-8848010D01*
X13258500Y-8848500D01*
X13258500Y-8858500D01*
X13258476Y-8858990D01*
X13258404Y-8859476D01*
X13258285Y-8859951D01*
X13258119Y-8860413D01*
X13257910Y-8860857D01*
X13257657Y-8861278D01*
X13257365Y-8861672D01*
X13257035Y-8862036D01*
X13256672Y-8862365D01*
X13256278Y-8862657D01*
X13255857Y-8862910D01*
X13255413Y-8863119D01*
X13254951Y-8863285D01*
X13254475Y-8863404D01*
X13253990Y-8863476D01*
X13253500Y-8863500D01*
X13208500Y-8863500D01*
X13208010Y-8863476D01*
X13207524Y-8863404D01*
X13207049Y-8863285D01*
X13206587Y-8863119D01*
X13206143Y-8862910D01*
X13205722Y-8862657D01*
X13205328Y-8862365D01*
X13204964Y-8862036D01*
X13204635Y-8861672D01*
X13204343Y-8861278D01*
X13204090Y-8860857D01*
X13203881Y-8860413D01*
X13203715Y-8859951D01*
X13203596Y-8859476D01*
X13203524Y-8858990D01*
X13203500Y-8858500D01*
X13203500Y-8848500D01*
X13203524Y-8848010D01*
X13203596Y-8847525D01*
X13203715Y-8847049D01*
X13203881Y-8846587D01*
X13204090Y-8846143D01*
X13204343Y-8845722D01*
X13204635Y-8845328D01*
X13204964Y-8844965D01*
X13205328Y-8844635D01*
X13205722Y-8844343D01*
X13206143Y-8844090D01*
X13206587Y-8843881D01*
X13207049Y-8843715D01*
X13207524Y-8843596D01*
X13208010Y-8843524D01*
X13208500Y-8843500D01*
X13253500Y-8843500D01*
X13253990Y-8843524D01*
G37*
G36*
X13253990Y-8883524D02*
G01*
X13254475Y-8883596D01*
X13254951Y-8883715D01*
X13255413Y-8883881D01*
X13255857Y-8884090D01*
X13256278Y-8884343D01*
X13256672Y-8884635D01*
X13257035Y-8884965D01*
X13257365Y-8885328D01*
X13257657Y-8885722D01*
X13257910Y-8886143D01*
X13258119Y-8886587D01*
X13258285Y-8887049D01*
X13258404Y-8887525D01*
X13258476Y-8888010D01*
X13258500Y-8888500D01*
X13258500Y-8898500D01*
X13258476Y-8898990D01*
X13258404Y-8899476D01*
X13258285Y-8899951D01*
X13258119Y-8900413D01*
X13257910Y-8900857D01*
X13257657Y-8901278D01*
X13257365Y-8901672D01*
X13257035Y-8902036D01*
X13256672Y-8902365D01*
X13256278Y-8902657D01*
X13255857Y-8902910D01*
X13255413Y-8903119D01*
X13254951Y-8903285D01*
X13254475Y-8903404D01*
X13253990Y-8903476D01*
X13253500Y-8903500D01*
X13208500Y-8903500D01*
X13208010Y-8903476D01*
X13207524Y-8903404D01*
X13207049Y-8903285D01*
X13206587Y-8903119D01*
X13206143Y-8902910D01*
X13205722Y-8902657D01*
X13205328Y-8902365D01*
X13204964Y-8902036D01*
X13204635Y-8901672D01*
X13204343Y-8901278D01*
X13204090Y-8900857D01*
X13203881Y-8900413D01*
X13203715Y-8899951D01*
X13203596Y-8899476D01*
X13203524Y-8898990D01*
X13203500Y-8898500D01*
X13203500Y-8888500D01*
X13203524Y-8888010D01*
X13203596Y-8887525D01*
X13203715Y-8887049D01*
X13203881Y-8886587D01*
X13204090Y-8886143D01*
X13204343Y-8885722D01*
X13204635Y-8885328D01*
X13204964Y-8884965D01*
X13205328Y-8884635D01*
X13205722Y-8884343D01*
X13206143Y-8884090D01*
X13206587Y-8883881D01*
X13207049Y-8883715D01*
X13207524Y-8883596D01*
X13208010Y-8883524D01*
X13208500Y-8883500D01*
X13253500Y-8883500D01*
X13253990Y-8883524D01*
G37*
G36*
X13253990Y-8923524D02*
G01*
X13254475Y-8923596D01*
X13254951Y-8923715D01*
X13255413Y-8923881D01*
X13255857Y-8924090D01*
X13256278Y-8924343D01*
X13256672Y-8924635D01*
X13257035Y-8924965D01*
X13257365Y-8925328D01*
X13257657Y-8925722D01*
X13257910Y-8926143D01*
X13258119Y-8926587D01*
X13258285Y-8927049D01*
X13258404Y-8927525D01*
X13258476Y-8928010D01*
X13258500Y-8928500D01*
X13258500Y-8938500D01*
X13258476Y-8938990D01*
X13258404Y-8939476D01*
X13258285Y-8939951D01*
X13258119Y-8940413D01*
X13257910Y-8940857D01*
X13257657Y-8941278D01*
X13257365Y-8941672D01*
X13257035Y-8942036D01*
X13256672Y-8942365D01*
X13256278Y-8942657D01*
X13255857Y-8942910D01*
X13255413Y-8943119D01*
X13254951Y-8943285D01*
X13254475Y-8943404D01*
X13253990Y-8943476D01*
X13253500Y-8943500D01*
X13208500Y-8943500D01*
X13208010Y-8943476D01*
X13207524Y-8943404D01*
X13207049Y-8943285D01*
X13206587Y-8943119D01*
X13206143Y-8942910D01*
X13205722Y-8942657D01*
X13205328Y-8942365D01*
X13204964Y-8942036D01*
X13204635Y-8941672D01*
X13204343Y-8941278D01*
X13204090Y-8940857D01*
X13203881Y-8940413D01*
X13203715Y-8939951D01*
X13203596Y-8939476D01*
X13203524Y-8938990D01*
X13203500Y-8938500D01*
X13203500Y-8928500D01*
X13203524Y-8928010D01*
X13203596Y-8927525D01*
X13203715Y-8927049D01*
X13203881Y-8926587D01*
X13204090Y-8926143D01*
X13204343Y-8925722D01*
X13204635Y-8925328D01*
X13204964Y-8924965D01*
X13205328Y-8924635D01*
X13205722Y-8924343D01*
X13206143Y-8924090D01*
X13206587Y-8923881D01*
X13207049Y-8923715D01*
X13207524Y-8923596D01*
X13208010Y-8923524D01*
X13208500Y-8923500D01*
X13253500Y-8923500D01*
X13253990Y-8923524D01*
G37*
G36*
X13253990Y-8963524D02*
G01*
X13254475Y-8963596D01*
X13254951Y-8963715D01*
X13255413Y-8963881D01*
X13255857Y-8964090D01*
X13256278Y-8964343D01*
X13256672Y-8964635D01*
X13257035Y-8964965D01*
X13257365Y-8965328D01*
X13257657Y-8965722D01*
X13257910Y-8966143D01*
X13258119Y-8966587D01*
X13258285Y-8967049D01*
X13258404Y-8967525D01*
X13258476Y-8968010D01*
X13258500Y-8968500D01*
X13258500Y-8978500D01*
X13258476Y-8978990D01*
X13258404Y-8979476D01*
X13258285Y-8979951D01*
X13258119Y-8980413D01*
X13257910Y-8980857D01*
X13257657Y-8981278D01*
X13257365Y-8981672D01*
X13257035Y-8982036D01*
X13256672Y-8982365D01*
X13256278Y-8982657D01*
X13255857Y-8982910D01*
X13255413Y-8983119D01*
X13254951Y-8983285D01*
X13254475Y-8983404D01*
X13253990Y-8983476D01*
X13253500Y-8983500D01*
X13208500Y-8983500D01*
X13208010Y-8983476D01*
X13207524Y-8983404D01*
X13207049Y-8983285D01*
X13206587Y-8983119D01*
X13206143Y-8982910D01*
X13205722Y-8982657D01*
X13205328Y-8982365D01*
X13204964Y-8982036D01*
X13204635Y-8981672D01*
X13204343Y-8981278D01*
X13204090Y-8980857D01*
X13203881Y-8980413D01*
X13203715Y-8979951D01*
X13203596Y-8979476D01*
X13203524Y-8978990D01*
X13203500Y-8978500D01*
X13203500Y-8968500D01*
X13203524Y-8968010D01*
X13203596Y-8967525D01*
X13203715Y-8967049D01*
X13203881Y-8966587D01*
X13204090Y-8966143D01*
X13204343Y-8965722D01*
X13204635Y-8965328D01*
X13204964Y-8964965D01*
X13205328Y-8964635D01*
X13205722Y-8964343D01*
X13206143Y-8964090D01*
X13206587Y-8963881D01*
X13207049Y-8963715D01*
X13207524Y-8963596D01*
X13208010Y-8963524D01*
X13208500Y-8963500D01*
X13253500Y-8963500D01*
X13253990Y-8963524D01*
G37*
G36*
X13253990Y-9003524D02*
G01*
X13254475Y-9003596D01*
X13254951Y-9003715D01*
X13255413Y-9003881D01*
X13255857Y-9004090D01*
X13256278Y-9004343D01*
X13256672Y-9004635D01*
X13257035Y-9004965D01*
X13257365Y-9005328D01*
X13257657Y-9005722D01*
X13257910Y-9006143D01*
X13258119Y-9006587D01*
X13258285Y-9007049D01*
X13258404Y-9007525D01*
X13258476Y-9008010D01*
X13258500Y-9008500D01*
X13258500Y-9018500D01*
X13258476Y-9018990D01*
X13258404Y-9019476D01*
X13258285Y-9019951D01*
X13258119Y-9020413D01*
X13257910Y-9020857D01*
X13257657Y-9021278D01*
X13257365Y-9021672D01*
X13257035Y-9022036D01*
X13256672Y-9022365D01*
X13256278Y-9022657D01*
X13255857Y-9022910D01*
X13255413Y-9023119D01*
X13254951Y-9023285D01*
X13254475Y-9023404D01*
X13253990Y-9023476D01*
X13253500Y-9023500D01*
X13208500Y-9023500D01*
X13208010Y-9023476D01*
X13207524Y-9023404D01*
X13207049Y-9023285D01*
X13206587Y-9023119D01*
X13206143Y-9022910D01*
X13205722Y-9022657D01*
X13205328Y-9022365D01*
X13204964Y-9022036D01*
X13204635Y-9021672D01*
X13204343Y-9021278D01*
X13204090Y-9020857D01*
X13203881Y-9020413D01*
X13203715Y-9019951D01*
X13203596Y-9019476D01*
X13203524Y-9018990D01*
X13203500Y-9018500D01*
X13203500Y-9008500D01*
X13203524Y-9008010D01*
X13203596Y-9007525D01*
X13203715Y-9007049D01*
X13203881Y-9006587D01*
X13204090Y-9006143D01*
X13204343Y-9005722D01*
X13204635Y-9005328D01*
X13204964Y-9004965D01*
X13205328Y-9004635D01*
X13205722Y-9004343D01*
X13206143Y-9004090D01*
X13206587Y-9003881D01*
X13207049Y-9003715D01*
X13207524Y-9003596D01*
X13208010Y-9003524D01*
X13208500Y-9003500D01*
X13253500Y-9003500D01*
X13253990Y-9003524D01*
G37*
G36*
X13253990Y-9043524D02*
G01*
X13254475Y-9043596D01*
X13254951Y-9043715D01*
X13255413Y-9043881D01*
X13255857Y-9044090D01*
X13256278Y-9044343D01*
X13256672Y-9044635D01*
X13257035Y-9044965D01*
X13257365Y-9045328D01*
X13257657Y-9045722D01*
X13257910Y-9046143D01*
X13258119Y-9046587D01*
X13258285Y-9047049D01*
X13258404Y-9047525D01*
X13258476Y-9048010D01*
X13258500Y-9048500D01*
X13258500Y-9058500D01*
X13258476Y-9058990D01*
X13258404Y-9059476D01*
X13258285Y-9059951D01*
X13258119Y-9060413D01*
X13257910Y-9060857D01*
X13257657Y-9061278D01*
X13257365Y-9061672D01*
X13257035Y-9062036D01*
X13256672Y-9062365D01*
X13256278Y-9062657D01*
X13255857Y-9062910D01*
X13255413Y-9063119D01*
X13254951Y-9063285D01*
X13254475Y-9063404D01*
X13253990Y-9063476D01*
X13253500Y-9063500D01*
X13208500Y-9063500D01*
X13208010Y-9063476D01*
X13207524Y-9063404D01*
X13207049Y-9063285D01*
X13206587Y-9063119D01*
X13206143Y-9062910D01*
X13205722Y-9062657D01*
X13205328Y-9062365D01*
X13204964Y-9062036D01*
X13204635Y-9061672D01*
X13204343Y-9061278D01*
X13204090Y-9060857D01*
X13203881Y-9060413D01*
X13203715Y-9059951D01*
X13203596Y-9059476D01*
X13203524Y-9058990D01*
X13203500Y-9058500D01*
X13203500Y-9048500D01*
X13203524Y-9048010D01*
X13203596Y-9047525D01*
X13203715Y-9047049D01*
X13203881Y-9046587D01*
X13204090Y-9046143D01*
X13204343Y-9045722D01*
X13204635Y-9045328D01*
X13204964Y-9044965D01*
X13205328Y-9044635D01*
X13205722Y-9044343D01*
X13206143Y-9044090D01*
X13206587Y-9043881D01*
X13207049Y-9043715D01*
X13207524Y-9043596D01*
X13208010Y-9043524D01*
X13208500Y-9043500D01*
X13253500Y-9043500D01*
X13253990Y-9043524D01*
G37*
G36*
X13186490Y-9076024D02*
G01*
X13186975Y-9076096D01*
X13187451Y-9076215D01*
X13187913Y-9076381D01*
X13188357Y-9076590D01*
X13188778Y-9076843D01*
X13189172Y-9077135D01*
X13189535Y-9077465D01*
X13189865Y-9077828D01*
X13190157Y-9078222D01*
X13190410Y-9078643D01*
X13190619Y-9079087D01*
X13190785Y-9079549D01*
X13190904Y-9080025D01*
X13190976Y-9080510D01*
X13191000Y-9081000D01*
X13191000Y-9126000D01*
X13190976Y-9126490D01*
X13190904Y-9126976D01*
X13190785Y-9127451D01*
X13190619Y-9127913D01*
X13190410Y-9128357D01*
X13190157Y-9128778D01*
X13189865Y-9129172D01*
X13189535Y-9129536D01*
X13189172Y-9129865D01*
X13188778Y-9130157D01*
X13188357Y-9130410D01*
X13187913Y-9130619D01*
X13187451Y-9130785D01*
X13186975Y-9130904D01*
X13186490Y-9130976D01*
X13186000Y-9131000D01*
X13176000Y-9131000D01*
X13175510Y-9130976D01*
X13175024Y-9130904D01*
X13174549Y-9130785D01*
X13174087Y-9130619D01*
X13173643Y-9130410D01*
X13173222Y-9130157D01*
X13172828Y-9129865D01*
X13172464Y-9129536D01*
X13172135Y-9129172D01*
X13171843Y-9128778D01*
X13171590Y-9128357D01*
X13171381Y-9127913D01*
X13171215Y-9127451D01*
X13171096Y-9126976D01*
X13171024Y-9126490D01*
X13171000Y-9126000D01*
X13171000Y-9081000D01*
X13171024Y-9080510D01*
X13171096Y-9080025D01*
X13171215Y-9079549D01*
X13171381Y-9079087D01*
X13171590Y-9078643D01*
X13171843Y-9078222D01*
X13172135Y-9077828D01*
X13172464Y-9077465D01*
X13172828Y-9077135D01*
X13173222Y-9076843D01*
X13173643Y-9076590D01*
X13174087Y-9076381D01*
X13174549Y-9076215D01*
X13175024Y-9076096D01*
X13175510Y-9076024D01*
X13176000Y-9076000D01*
X13186000Y-9076000D01*
X13186490Y-9076024D01*
G37*
G36*
X13146490Y-9076024D02*
G01*
X13146975Y-9076096D01*
X13147451Y-9076215D01*
X13147913Y-9076381D01*
X13148357Y-9076590D01*
X13148778Y-9076843D01*
X13149172Y-9077135D01*
X13149535Y-9077465D01*
X13149865Y-9077828D01*
X13150157Y-9078222D01*
X13150410Y-9078643D01*
X13150619Y-9079087D01*
X13150785Y-9079549D01*
X13150904Y-9080025D01*
X13150976Y-9080510D01*
X13151000Y-9081000D01*
X13151000Y-9126000D01*
X13150976Y-9126490D01*
X13150904Y-9126976D01*
X13150785Y-9127451D01*
X13150619Y-9127913D01*
X13150410Y-9128357D01*
X13150157Y-9128778D01*
X13149865Y-9129172D01*
X13149535Y-9129536D01*
X13149172Y-9129865D01*
X13148778Y-9130157D01*
X13148357Y-9130410D01*
X13147913Y-9130619D01*
X13147451Y-9130785D01*
X13146975Y-9130904D01*
X13146490Y-9130976D01*
X13146000Y-9131000D01*
X13136000Y-9131000D01*
X13135510Y-9130976D01*
X13135024Y-9130904D01*
X13134549Y-9130785D01*
X13134087Y-9130619D01*
X13133643Y-9130410D01*
X13133222Y-9130157D01*
X13132828Y-9129865D01*
X13132464Y-9129536D01*
X13132135Y-9129172D01*
X13131843Y-9128778D01*
X13131590Y-9128357D01*
X13131381Y-9127913D01*
X13131215Y-9127451D01*
X13131096Y-9126976D01*
X13131024Y-9126490D01*
X13131000Y-9126000D01*
X13131000Y-9081000D01*
X13131024Y-9080510D01*
X13131096Y-9080025D01*
X13131215Y-9079549D01*
X13131381Y-9079087D01*
X13131590Y-9078643D01*
X13131843Y-9078222D01*
X13132135Y-9077828D01*
X13132464Y-9077465D01*
X13132828Y-9077135D01*
X13133222Y-9076843D01*
X13133643Y-9076590D01*
X13134087Y-9076381D01*
X13134549Y-9076215D01*
X13135024Y-9076096D01*
X13135510Y-9076024D01*
X13136000Y-9076000D01*
X13146000Y-9076000D01*
X13146490Y-9076024D01*
G37*
G36*
X13106490Y-9076024D02*
G01*
X13106975Y-9076096D01*
X13107451Y-9076215D01*
X13107913Y-9076381D01*
X13108357Y-9076590D01*
X13108778Y-9076843D01*
X13109172Y-9077135D01*
X13109535Y-9077465D01*
X13109865Y-9077828D01*
X13110157Y-9078222D01*
X13110410Y-9078643D01*
X13110619Y-9079087D01*
X13110785Y-9079549D01*
X13110904Y-9080025D01*
X13110976Y-9080510D01*
X13111000Y-9081000D01*
X13111000Y-9126000D01*
X13110976Y-9126490D01*
X13110904Y-9126976D01*
X13110785Y-9127451D01*
X13110619Y-9127913D01*
X13110410Y-9128357D01*
X13110157Y-9128778D01*
X13109865Y-9129172D01*
X13109535Y-9129536D01*
X13109172Y-9129865D01*
X13108778Y-9130157D01*
X13108357Y-9130410D01*
X13107913Y-9130619D01*
X13107451Y-9130785D01*
X13106975Y-9130904D01*
X13106490Y-9130976D01*
X13106000Y-9131000D01*
X13096000Y-9131000D01*
X13095510Y-9130976D01*
X13095024Y-9130904D01*
X13094549Y-9130785D01*
X13094087Y-9130619D01*
X13093643Y-9130410D01*
X13093222Y-9130157D01*
X13092828Y-9129865D01*
X13092464Y-9129536D01*
X13092135Y-9129172D01*
X13091843Y-9128778D01*
X13091590Y-9128357D01*
X13091381Y-9127913D01*
X13091215Y-9127451D01*
X13091096Y-9126976D01*
X13091024Y-9126490D01*
X13091000Y-9126000D01*
X13091000Y-9081000D01*
X13091024Y-9080510D01*
X13091096Y-9080025D01*
X13091215Y-9079549D01*
X13091381Y-9079087D01*
X13091590Y-9078643D01*
X13091843Y-9078222D01*
X13092135Y-9077828D01*
X13092464Y-9077465D01*
X13092828Y-9077135D01*
X13093222Y-9076843D01*
X13093643Y-9076590D01*
X13094087Y-9076381D01*
X13094549Y-9076215D01*
X13095024Y-9076096D01*
X13095510Y-9076024D01*
X13096000Y-9076000D01*
X13106000Y-9076000D01*
X13106490Y-9076024D01*
G37*
G36*
X13066490Y-9076024D02*
G01*
X13066975Y-9076096D01*
X13067451Y-9076215D01*
X13067913Y-9076381D01*
X13068357Y-9076590D01*
X13068778Y-9076843D01*
X13069172Y-9077135D01*
X13069535Y-9077465D01*
X13069865Y-9077828D01*
X13070157Y-9078222D01*
X13070410Y-9078643D01*
X13070619Y-9079087D01*
X13070785Y-9079549D01*
X13070904Y-9080025D01*
X13070976Y-9080510D01*
X13071000Y-9081000D01*
X13071000Y-9126000D01*
X13070976Y-9126490D01*
X13070904Y-9126976D01*
X13070785Y-9127451D01*
X13070619Y-9127913D01*
X13070410Y-9128357D01*
X13070157Y-9128778D01*
X13069865Y-9129172D01*
X13069535Y-9129536D01*
X13069172Y-9129865D01*
X13068778Y-9130157D01*
X13068357Y-9130410D01*
X13067913Y-9130619D01*
X13067451Y-9130785D01*
X13066975Y-9130904D01*
X13066490Y-9130976D01*
X13066000Y-9131000D01*
X13056000Y-9131000D01*
X13055510Y-9130976D01*
X13055024Y-9130904D01*
X13054549Y-9130785D01*
X13054087Y-9130619D01*
X13053643Y-9130410D01*
X13053222Y-9130157D01*
X13052828Y-9129865D01*
X13052464Y-9129536D01*
X13052135Y-9129172D01*
X13051843Y-9128778D01*
X13051590Y-9128357D01*
X13051381Y-9127913D01*
X13051215Y-9127451D01*
X13051096Y-9126976D01*
X13051024Y-9126490D01*
X13051000Y-9126000D01*
X13051000Y-9081000D01*
X13051024Y-9080510D01*
X13051096Y-9080025D01*
X13051215Y-9079549D01*
X13051381Y-9079087D01*
X13051590Y-9078643D01*
X13051843Y-9078222D01*
X13052135Y-9077828D01*
X13052464Y-9077465D01*
X13052828Y-9077135D01*
X13053222Y-9076843D01*
X13053643Y-9076590D01*
X13054087Y-9076381D01*
X13054549Y-9076215D01*
X13055024Y-9076096D01*
X13055510Y-9076024D01*
X13056000Y-9076000D01*
X13066000Y-9076000D01*
X13066490Y-9076024D01*
G37*
G36*
X13026490Y-9076024D02*
G01*
X13026975Y-9076096D01*
X13027451Y-9076215D01*
X13027913Y-9076381D01*
X13028357Y-9076590D01*
X13028778Y-9076843D01*
X13029172Y-9077135D01*
X13029535Y-9077465D01*
X13029865Y-9077828D01*
X13030157Y-9078222D01*
X13030410Y-9078643D01*
X13030619Y-9079087D01*
X13030785Y-9079549D01*
X13030904Y-9080025D01*
X13030976Y-9080510D01*
X13031000Y-9081000D01*
X13031000Y-9126000D01*
X13030976Y-9126490D01*
X13030904Y-9126976D01*
X13030785Y-9127451D01*
X13030619Y-9127913D01*
X13030410Y-9128357D01*
X13030157Y-9128778D01*
X13029865Y-9129172D01*
X13029535Y-9129536D01*
X13029172Y-9129865D01*
X13028778Y-9130157D01*
X13028357Y-9130410D01*
X13027913Y-9130619D01*
X13027451Y-9130785D01*
X13026975Y-9130904D01*
X13026490Y-9130976D01*
X13026000Y-9131000D01*
X13016000Y-9131000D01*
X13015510Y-9130976D01*
X13015024Y-9130904D01*
X13014549Y-9130785D01*
X13014087Y-9130619D01*
X13013643Y-9130410D01*
X13013222Y-9130157D01*
X13012828Y-9129865D01*
X13012464Y-9129536D01*
X13012135Y-9129172D01*
X13011843Y-9128778D01*
X13011590Y-9128357D01*
X13011381Y-9127913D01*
X13011215Y-9127451D01*
X13011096Y-9126976D01*
X13011024Y-9126490D01*
X13011000Y-9126000D01*
X13011000Y-9081000D01*
X13011024Y-9080510D01*
X13011096Y-9080025D01*
X13011215Y-9079549D01*
X13011381Y-9079087D01*
X13011590Y-9078643D01*
X13011843Y-9078222D01*
X13012135Y-9077828D01*
X13012464Y-9077465D01*
X13012828Y-9077135D01*
X13013222Y-9076843D01*
X13013643Y-9076590D01*
X13014087Y-9076381D01*
X13014549Y-9076215D01*
X13015024Y-9076096D01*
X13015510Y-9076024D01*
X13016000Y-9076000D01*
X13026000Y-9076000D01*
X13026490Y-9076024D01*
G37*
G36*
X12986490Y-9076024D02*
G01*
X12986975Y-9076096D01*
X12987451Y-9076215D01*
X12987913Y-9076381D01*
X12988357Y-9076590D01*
X12988778Y-9076843D01*
X12989172Y-9077135D01*
X12989535Y-9077465D01*
X12989865Y-9077828D01*
X12990157Y-9078222D01*
X12990410Y-9078643D01*
X12990619Y-9079087D01*
X12990785Y-9079549D01*
X12990904Y-9080025D01*
X12990976Y-9080510D01*
X12991000Y-9081000D01*
X12991000Y-9126000D01*
X12990976Y-9126490D01*
X12990904Y-9126976D01*
X12990785Y-9127451D01*
X12990619Y-9127913D01*
X12990410Y-9128357D01*
X12990157Y-9128778D01*
X12989865Y-9129172D01*
X12989535Y-9129536D01*
X12989172Y-9129865D01*
X12988778Y-9130157D01*
X12988357Y-9130410D01*
X12987913Y-9130619D01*
X12987451Y-9130785D01*
X12986975Y-9130904D01*
X12986490Y-9130976D01*
X12986000Y-9131000D01*
X12976000Y-9131000D01*
X12975510Y-9130976D01*
X12975024Y-9130904D01*
X12974549Y-9130785D01*
X12974087Y-9130619D01*
X12973643Y-9130410D01*
X12973222Y-9130157D01*
X12972828Y-9129865D01*
X12972464Y-9129536D01*
X12972135Y-9129172D01*
X12971843Y-9128778D01*
X12971590Y-9128357D01*
X12971381Y-9127913D01*
X12971215Y-9127451D01*
X12971096Y-9126976D01*
X12971024Y-9126490D01*
X12971000Y-9126000D01*
X12971000Y-9081000D01*
X12971024Y-9080510D01*
X12971096Y-9080025D01*
X12971215Y-9079549D01*
X12971381Y-9079087D01*
X12971590Y-9078643D01*
X12971843Y-9078222D01*
X12972135Y-9077828D01*
X12972464Y-9077465D01*
X12972828Y-9077135D01*
X12973222Y-9076843D01*
X12973643Y-9076590D01*
X12974087Y-9076381D01*
X12974549Y-9076215D01*
X12975024Y-9076096D01*
X12975510Y-9076024D01*
X12976000Y-9076000D01*
X12986000Y-9076000D01*
X12986490Y-9076024D01*
G37*
G36*
X12953990Y-9043524D02*
G01*
X12954475Y-9043596D01*
X12954951Y-9043715D01*
X12955413Y-9043881D01*
X12955857Y-9044090D01*
X12956278Y-9044343D01*
X12956672Y-9044635D01*
X12957035Y-9044965D01*
X12957365Y-9045328D01*
X12957657Y-9045722D01*
X12957910Y-9046143D01*
X12958119Y-9046587D01*
X12958285Y-9047049D01*
X12958404Y-9047525D01*
X12958476Y-9048010D01*
X12958500Y-9048500D01*
X12958500Y-9058500D01*
X12958476Y-9058990D01*
X12958404Y-9059476D01*
X12958285Y-9059951D01*
X12958119Y-9060413D01*
X12957910Y-9060857D01*
X12957657Y-9061278D01*
X12957365Y-9061672D01*
X12957035Y-9062036D01*
X12956672Y-9062365D01*
X12956278Y-9062657D01*
X12955857Y-9062910D01*
X12955413Y-9063119D01*
X12954951Y-9063285D01*
X12954475Y-9063404D01*
X12953990Y-9063476D01*
X12953500Y-9063500D01*
X12908500Y-9063500D01*
X12908010Y-9063476D01*
X12907524Y-9063404D01*
X12907049Y-9063285D01*
X12906587Y-9063119D01*
X12906143Y-9062910D01*
X12905722Y-9062657D01*
X12905328Y-9062365D01*
X12904964Y-9062036D01*
X12904635Y-9061672D01*
X12904343Y-9061278D01*
X12904090Y-9060857D01*
X12903881Y-9060413D01*
X12903715Y-9059951D01*
X12903596Y-9059476D01*
X12903524Y-9058990D01*
X12903500Y-9058500D01*
X12903500Y-9048500D01*
X12903524Y-9048010D01*
X12903596Y-9047525D01*
X12903715Y-9047049D01*
X12903881Y-9046587D01*
X12904090Y-9046143D01*
X12904343Y-9045722D01*
X12904635Y-9045328D01*
X12904964Y-9044965D01*
X12905328Y-9044635D01*
X12905722Y-9044343D01*
X12906143Y-9044090D01*
X12906587Y-9043881D01*
X12907049Y-9043715D01*
X12907524Y-9043596D01*
X12908010Y-9043524D01*
X12908500Y-9043500D01*
X12953500Y-9043500D01*
X12953990Y-9043524D01*
G37*
G36*
X12953990Y-9003524D02*
G01*
X12954475Y-9003596D01*
X12954951Y-9003715D01*
X12955413Y-9003881D01*
X12955857Y-9004090D01*
X12956278Y-9004343D01*
X12956672Y-9004635D01*
X12957035Y-9004965D01*
X12957365Y-9005328D01*
X12957657Y-9005722D01*
X12957910Y-9006143D01*
X12958119Y-9006587D01*
X12958285Y-9007049D01*
X12958404Y-9007525D01*
X12958476Y-9008010D01*
X12958500Y-9008500D01*
X12958500Y-9018500D01*
X12958476Y-9018990D01*
X12958404Y-9019476D01*
X12958285Y-9019951D01*
X12958119Y-9020413D01*
X12957910Y-9020857D01*
X12957657Y-9021278D01*
X12957365Y-9021672D01*
X12957035Y-9022036D01*
X12956672Y-9022365D01*
X12956278Y-9022657D01*
X12955857Y-9022910D01*
X12955413Y-9023119D01*
X12954951Y-9023285D01*
X12954475Y-9023404D01*
X12953990Y-9023476D01*
X12953500Y-9023500D01*
X12908500Y-9023500D01*
X12908010Y-9023476D01*
X12907524Y-9023404D01*
X12907049Y-9023285D01*
X12906587Y-9023119D01*
X12906143Y-9022910D01*
X12905722Y-9022657D01*
X12905328Y-9022365D01*
X12904964Y-9022036D01*
X12904635Y-9021672D01*
X12904343Y-9021278D01*
X12904090Y-9020857D01*
X12903881Y-9020413D01*
X12903715Y-9019951D01*
X12903596Y-9019476D01*
X12903524Y-9018990D01*
X12903500Y-9018500D01*
X12903500Y-9008500D01*
X12903524Y-9008010D01*
X12903596Y-9007525D01*
X12903715Y-9007049D01*
X12903881Y-9006587D01*
X12904090Y-9006143D01*
X12904343Y-9005722D01*
X12904635Y-9005328D01*
X12904964Y-9004965D01*
X12905328Y-9004635D01*
X12905722Y-9004343D01*
X12906143Y-9004090D01*
X12906587Y-9003881D01*
X12907049Y-9003715D01*
X12907524Y-9003596D01*
X12908010Y-9003524D01*
X12908500Y-9003500D01*
X12953500Y-9003500D01*
X12953990Y-9003524D01*
G37*
G36*
X12953990Y-8963524D02*
G01*
X12954475Y-8963596D01*
X12954951Y-8963715D01*
X12955413Y-8963881D01*
X12955857Y-8964090D01*
X12956278Y-8964343D01*
X12956672Y-8964635D01*
X12957035Y-8964965D01*
X12957365Y-8965328D01*
X12957657Y-8965722D01*
X12957910Y-8966143D01*
X12958119Y-8966587D01*
X12958285Y-8967049D01*
X12958404Y-8967525D01*
X12958476Y-8968010D01*
X12958500Y-8968500D01*
X12958500Y-8978500D01*
X12958476Y-8978990D01*
X12958404Y-8979476D01*
X12958285Y-8979951D01*
X12958119Y-8980413D01*
X12957910Y-8980857D01*
X12957657Y-8981278D01*
X12957365Y-8981672D01*
X12957035Y-8982036D01*
X12956672Y-8982365D01*
X12956278Y-8982657D01*
X12955857Y-8982910D01*
X12955413Y-8983119D01*
X12954951Y-8983285D01*
X12954475Y-8983404D01*
X12953990Y-8983476D01*
X12953500Y-8983500D01*
X12908500Y-8983500D01*
X12908010Y-8983476D01*
X12907524Y-8983404D01*
X12907049Y-8983285D01*
X12906587Y-8983119D01*
X12906143Y-8982910D01*
X12905722Y-8982657D01*
X12905328Y-8982365D01*
X12904964Y-8982036D01*
X12904635Y-8981672D01*
X12904343Y-8981278D01*
X12904090Y-8980857D01*
X12903881Y-8980413D01*
X12903715Y-8979951D01*
X12903596Y-8979476D01*
X12903524Y-8978990D01*
X12903500Y-8978500D01*
X12903500Y-8968500D01*
X12903524Y-8968010D01*
X12903596Y-8967525D01*
X12903715Y-8967049D01*
X12903881Y-8966587D01*
X12904090Y-8966143D01*
X12904343Y-8965722D01*
X12904635Y-8965328D01*
X12904964Y-8964965D01*
X12905328Y-8964635D01*
X12905722Y-8964343D01*
X12906143Y-8964090D01*
X12906587Y-8963881D01*
X12907049Y-8963715D01*
X12907524Y-8963596D01*
X12908010Y-8963524D01*
X12908500Y-8963500D01*
X12953500Y-8963500D01*
X12953990Y-8963524D01*
G37*
G36*
X12953990Y-8923524D02*
G01*
X12954475Y-8923596D01*
X12954951Y-8923715D01*
X12955413Y-8923881D01*
X12955857Y-8924090D01*
X12956278Y-8924343D01*
X12956672Y-8924635D01*
X12957035Y-8924965D01*
X12957365Y-8925328D01*
X12957657Y-8925722D01*
X12957910Y-8926143D01*
X12958119Y-8926587D01*
X12958285Y-8927049D01*
X12958404Y-8927525D01*
X12958476Y-8928010D01*
X12958500Y-8928500D01*
X12958500Y-8938500D01*
X12958476Y-8938990D01*
X12958404Y-8939476D01*
X12958285Y-8939951D01*
X12958119Y-8940413D01*
X12957910Y-8940857D01*
X12957657Y-8941278D01*
X12957365Y-8941672D01*
X12957035Y-8942036D01*
X12956672Y-8942365D01*
X12956278Y-8942657D01*
X12955857Y-8942910D01*
X12955413Y-8943119D01*
X12954951Y-8943285D01*
X12954475Y-8943404D01*
X12953990Y-8943476D01*
X12953500Y-8943500D01*
X12908500Y-8943500D01*
X12908010Y-8943476D01*
X12907524Y-8943404D01*
X12907049Y-8943285D01*
X12906587Y-8943119D01*
X12906143Y-8942910D01*
X12905722Y-8942657D01*
X12905328Y-8942365D01*
X12904964Y-8942036D01*
X12904635Y-8941672D01*
X12904343Y-8941278D01*
X12904090Y-8940857D01*
X12903881Y-8940413D01*
X12903715Y-8939951D01*
X12903596Y-8939476D01*
X12903524Y-8938990D01*
X12903500Y-8938500D01*
X12903500Y-8928500D01*
X12903524Y-8928010D01*
X12903596Y-8927525D01*
X12903715Y-8927049D01*
X12903881Y-8926587D01*
X12904090Y-8926143D01*
X12904343Y-8925722D01*
X12904635Y-8925328D01*
X12904964Y-8924965D01*
X12905328Y-8924635D01*
X12905722Y-8924343D01*
X12906143Y-8924090D01*
X12906587Y-8923881D01*
X12907049Y-8923715D01*
X12907524Y-8923596D01*
X12908010Y-8923524D01*
X12908500Y-8923500D01*
X12953500Y-8923500D01*
X12953990Y-8923524D01*
G37*
G36*
X12953990Y-8883524D02*
G01*
X12954475Y-8883596D01*
X12954951Y-8883715D01*
X12955413Y-8883881D01*
X12955857Y-8884090D01*
X12956278Y-8884343D01*
X12956672Y-8884635D01*
X12957035Y-8884965D01*
X12957365Y-8885328D01*
X12957657Y-8885722D01*
X12957910Y-8886143D01*
X12958119Y-8886587D01*
X12958285Y-8887049D01*
X12958404Y-8887525D01*
X12958476Y-8888010D01*
X12958500Y-8888500D01*
X12958500Y-8898500D01*
X12958476Y-8898990D01*
X12958404Y-8899476D01*
X12958285Y-8899951D01*
X12958119Y-8900413D01*
X12957910Y-8900857D01*
X12957657Y-8901278D01*
X12957365Y-8901672D01*
X12957035Y-8902036D01*
X12956672Y-8902365D01*
X12956278Y-8902657D01*
X12955857Y-8902910D01*
X12955413Y-8903119D01*
X12954951Y-8903285D01*
X12954475Y-8903404D01*
X12953990Y-8903476D01*
X12953500Y-8903500D01*
X12908500Y-8903500D01*
X12908010Y-8903476D01*
X12907524Y-8903404D01*
X12907049Y-8903285D01*
X12906587Y-8903119D01*
X12906143Y-8902910D01*
X12905722Y-8902657D01*
X12905328Y-8902365D01*
X12904964Y-8902036D01*
X12904635Y-8901672D01*
X12904343Y-8901278D01*
X12904090Y-8900857D01*
X12903881Y-8900413D01*
X12903715Y-8899951D01*
X12903596Y-8899476D01*
X12903524Y-8898990D01*
X12903500Y-8898500D01*
X12903500Y-8888500D01*
X12903524Y-8888010D01*
X12903596Y-8887525D01*
X12903715Y-8887049D01*
X12903881Y-8886587D01*
X12904090Y-8886143D01*
X12904343Y-8885722D01*
X12904635Y-8885328D01*
X12904964Y-8884965D01*
X12905328Y-8884635D01*
X12905722Y-8884343D01*
X12906143Y-8884090D01*
X12906587Y-8883881D01*
X12907049Y-8883715D01*
X12907524Y-8883596D01*
X12908010Y-8883524D01*
X12908500Y-8883500D01*
X12953500Y-8883500D01*
X12953990Y-8883524D01*
G37*
G36*
X12953990Y-8843524D02*
G01*
X12954475Y-8843596D01*
X12954951Y-8843715D01*
X12955413Y-8843881D01*
X12955857Y-8844090D01*
X12956278Y-8844343D01*
X12956672Y-8844635D01*
X12957035Y-8844965D01*
X12957365Y-8845328D01*
X12957657Y-8845722D01*
X12957910Y-8846143D01*
X12958119Y-8846587D01*
X12958285Y-8847049D01*
X12958404Y-8847525D01*
X12958476Y-8848010D01*
X12958500Y-8848500D01*
X12958500Y-8858500D01*
X12958476Y-8858990D01*
X12958404Y-8859476D01*
X12958285Y-8859951D01*
X12958119Y-8860413D01*
X12957910Y-8860857D01*
X12957657Y-8861278D01*
X12957365Y-8861672D01*
X12957035Y-8862036D01*
X12956672Y-8862365D01*
X12956278Y-8862657D01*
X12955857Y-8862910D01*
X12955413Y-8863119D01*
X12954951Y-8863285D01*
X12954475Y-8863404D01*
X12953990Y-8863476D01*
X12953500Y-8863500D01*
X12908500Y-8863500D01*
X12908010Y-8863476D01*
X12907524Y-8863404D01*
X12907049Y-8863285D01*
X12906587Y-8863119D01*
X12906143Y-8862910D01*
X12905722Y-8862657D01*
X12905328Y-8862365D01*
X12904964Y-8862036D01*
X12904635Y-8861672D01*
X12904343Y-8861278D01*
X12904090Y-8860857D01*
X12903881Y-8860413D01*
X12903715Y-8859951D01*
X12903596Y-8859476D01*
X12903524Y-8858990D01*
X12903500Y-8858500D01*
X12903500Y-8848500D01*
X12903524Y-8848010D01*
X12903596Y-8847525D01*
X12903715Y-8847049D01*
X12903881Y-8846587D01*
X12904090Y-8846143D01*
X12904343Y-8845722D01*
X12904635Y-8845328D01*
X12904964Y-8844965D01*
X12905328Y-8844635D01*
X12905722Y-8844343D01*
X12906143Y-8844090D01*
X12906587Y-8843881D01*
X12907049Y-8843715D01*
X12907524Y-8843596D01*
X12908010Y-8843524D01*
X12908500Y-8843500D01*
X12953500Y-8843500D01*
X12953990Y-8843524D01*
G37*
G36*
X13590500Y-8815060D02*
G01*
X13592953Y-8815060D01*
X13597836Y-8815541D01*
X13602649Y-8816498D01*
X13607344Y-8817923D01*
X13611878Y-8819801D01*
X13616205Y-8822114D01*
X13620285Y-8824840D01*
X13624078Y-8827952D01*
X13627548Y-8831422D01*
X13630660Y-8835215D01*
X13633386Y-8839295D01*
X13635699Y-8843622D01*
X13637577Y-8848156D01*
X13639002Y-8852851D01*
X13639959Y-8857664D01*
X13640440Y-8862547D01*
X13640440Y-8865000D01*
X13640500Y-8865000D01*
X13640500Y-8915000D01*
X13640440Y-8915000D01*
X13640440Y-8917453D01*
X13639959Y-8922337D01*
X13639002Y-8927149D01*
X13637577Y-8931845D01*
X13635699Y-8936378D01*
X13633386Y-8940705D01*
X13630660Y-8944785D01*
X13627548Y-8948578D01*
X13624078Y-8952048D01*
X13620285Y-8955160D01*
X13616205Y-8957886D01*
X13611878Y-8960200D01*
X13607344Y-8962077D01*
X13602649Y-8963502D01*
X13597836Y-8964459D01*
X13592953Y-8964940D01*
X13590500Y-8964940D01*
X13590500Y-8965000D01*
X13540500Y-8965000D01*
X13540500Y-8815000D01*
X13590500Y-8815000D01*
X13590500Y-8815060D01*
G37*
G36*
X13510500Y-8965000D02*
G01*
X13460500Y-8965000D01*
X13460500Y-8964940D01*
X13458047Y-8964940D01*
X13453163Y-8964459D01*
X13448351Y-8963502D01*
X13443655Y-8962077D01*
X13439122Y-8960200D01*
X13434795Y-8957886D01*
X13430715Y-8955160D01*
X13426922Y-8952048D01*
X13423452Y-8948578D01*
X13420340Y-8944785D01*
X13417614Y-8940705D01*
X13415300Y-8936378D01*
X13413423Y-8931845D01*
X13411998Y-8927149D01*
X13411041Y-8922337D01*
X13410560Y-8917453D01*
X13410560Y-8915000D01*
X13410500Y-8915000D01*
X13410500Y-8865000D01*
X13410560Y-8865000D01*
X13410560Y-8862547D01*
X13411041Y-8857664D01*
X13411998Y-8852851D01*
X13413423Y-8848156D01*
X13415300Y-8843622D01*
X13417614Y-8839295D01*
X13420340Y-8835215D01*
X13423452Y-8831422D01*
X13426922Y-8827952D01*
X13430715Y-8824840D01*
X13434795Y-8822114D01*
X13439122Y-8819801D01*
X13443655Y-8817923D01*
X13448351Y-8816498D01*
X13453163Y-8815541D01*
X13458047Y-8815060D01*
X13460500Y-8815060D01*
X13460500Y-8815000D01*
X13510500Y-8815000D01*
X13510500Y-8965000D01*
G37*
D16*
X13228500Y-11160000D03*
D17*
X13081000Y-11007500D03*
D16*
X12933500Y-11160000D03*
D12*
G36*
X12782196Y-10608571D02*
G01*
X12783628Y-10608783D01*
X12785032Y-10609135D01*
X12786395Y-10609623D01*
X12787703Y-10610242D01*
X12788945Y-10610986D01*
X12790107Y-10611848D01*
X12791180Y-10612820D01*
X12792152Y-10613893D01*
X12793014Y-10615055D01*
X12793758Y-10616297D01*
X12794377Y-10617605D01*
X12794865Y-10618968D01*
X12795217Y-10620372D01*
X12795429Y-10621804D01*
X12795500Y-10623250D01*
X12795500Y-10652750D01*
X12795429Y-10654196D01*
X12795217Y-10655628D01*
X12794865Y-10657032D01*
X12794377Y-10658395D01*
X12793758Y-10659703D01*
X12793014Y-10660945D01*
X12792152Y-10662107D01*
X12791180Y-10663180D01*
X12790107Y-10664152D01*
X12788945Y-10665014D01*
X12787703Y-10665758D01*
X12786395Y-10666377D01*
X12785032Y-10666865D01*
X12783628Y-10667217D01*
X12782196Y-10667429D01*
X12780750Y-10667500D01*
X12746250Y-10667500D01*
X12744804Y-10667429D01*
X12743372Y-10667217D01*
X12741968Y-10666865D01*
X12740605Y-10666377D01*
X12739297Y-10665758D01*
X12738055Y-10665014D01*
X12736893Y-10664152D01*
X12735820Y-10663180D01*
X12734848Y-10662107D01*
X12733986Y-10660945D01*
X12733242Y-10659703D01*
X12732623Y-10658395D01*
X12732135Y-10657032D01*
X12731783Y-10655628D01*
X12731571Y-10654196D01*
X12731500Y-10652750D01*
X12731500Y-10623250D01*
X12731571Y-10621804D01*
X12731783Y-10620372D01*
X12732135Y-10618968D01*
X12732623Y-10617605D01*
X12733242Y-10616297D01*
X12733986Y-10615055D01*
X12734848Y-10613893D01*
X12735820Y-10612820D01*
X12736893Y-10611848D01*
X12738055Y-10610986D01*
X12739297Y-10610242D01*
X12740605Y-10609623D01*
X12741968Y-10609135D01*
X12743372Y-10608783D01*
X12744804Y-10608571D01*
X12746250Y-10608500D01*
X12780750Y-10608500D01*
X12782196Y-10608571D01*
G37*
G36*
X12782196Y-10511571D02*
G01*
X12783628Y-10511783D01*
X12785032Y-10512135D01*
X12786395Y-10512623D01*
X12787703Y-10513242D01*
X12788945Y-10513986D01*
X12790107Y-10514848D01*
X12791180Y-10515820D01*
X12792152Y-10516893D01*
X12793014Y-10518055D01*
X12793758Y-10519297D01*
X12794377Y-10520605D01*
X12794865Y-10521968D01*
X12795217Y-10523372D01*
X12795429Y-10524804D01*
X12795500Y-10526250D01*
X12795500Y-10555750D01*
X12795429Y-10557196D01*
X12795217Y-10558628D01*
X12794865Y-10560032D01*
X12794377Y-10561395D01*
X12793758Y-10562703D01*
X12793014Y-10563945D01*
X12792152Y-10565107D01*
X12791180Y-10566180D01*
X12790107Y-10567152D01*
X12788945Y-10568014D01*
X12787703Y-10568758D01*
X12786395Y-10569377D01*
X12785032Y-10569865D01*
X12783628Y-10570217D01*
X12782196Y-10570429D01*
X12780750Y-10570500D01*
X12746250Y-10570500D01*
X12744804Y-10570429D01*
X12743372Y-10570217D01*
X12741968Y-10569865D01*
X12740605Y-10569377D01*
X12739297Y-10568758D01*
X12738055Y-10568014D01*
X12736893Y-10567152D01*
X12735820Y-10566180D01*
X12734848Y-10565107D01*
X12733986Y-10563945D01*
X12733242Y-10562703D01*
X12732623Y-10561395D01*
X12732135Y-10560032D01*
X12731783Y-10558628D01*
X12731571Y-10557196D01*
X12731500Y-10555750D01*
X12731500Y-10526250D01*
X12731571Y-10524804D01*
X12731783Y-10523372D01*
X12732135Y-10521968D01*
X12732623Y-10520605D01*
X12733242Y-10519297D01*
X12733986Y-10518055D01*
X12734848Y-10516893D01*
X12735820Y-10515820D01*
X12736893Y-10514848D01*
X12738055Y-10513986D01*
X12739297Y-10513242D01*
X12740605Y-10512623D01*
X12741968Y-10512135D01*
X12743372Y-10511783D01*
X12744804Y-10511571D01*
X12746250Y-10511500D01*
X12780750Y-10511500D01*
X12782196Y-10511571D01*
G37*
G36*
X12528196Y-9226571D02*
G01*
X12529628Y-9226783D01*
X12531032Y-9227135D01*
X12532395Y-9227623D01*
X12533703Y-9228242D01*
X12534945Y-9228986D01*
X12536107Y-9229848D01*
X12537180Y-9230820D01*
X12538152Y-9231893D01*
X12539014Y-9233055D01*
X12539758Y-9234297D01*
X12540377Y-9235605D01*
X12540865Y-9236968D01*
X12541217Y-9238372D01*
X12541429Y-9239804D01*
X12541500Y-9241250D01*
X12541500Y-9270750D01*
X12541429Y-9272196D01*
X12541217Y-9273628D01*
X12540865Y-9275032D01*
X12540377Y-9276395D01*
X12539758Y-9277703D01*
X12539014Y-9278945D01*
X12538152Y-9280107D01*
X12537180Y-9281180D01*
X12536107Y-9282152D01*
X12534945Y-9283014D01*
X12533703Y-9283758D01*
X12532395Y-9284377D01*
X12531032Y-9284865D01*
X12529628Y-9285217D01*
X12528196Y-9285429D01*
X12526750Y-9285500D01*
X12492250Y-9285500D01*
X12490804Y-9285429D01*
X12489372Y-9285217D01*
X12487968Y-9284865D01*
X12486605Y-9284377D01*
X12485297Y-9283758D01*
X12484055Y-9283014D01*
X12482893Y-9282152D01*
X12481820Y-9281180D01*
X12480848Y-9280107D01*
X12479986Y-9278945D01*
X12479242Y-9277703D01*
X12478623Y-9276395D01*
X12478135Y-9275032D01*
X12477783Y-9273628D01*
X12477571Y-9272196D01*
X12477500Y-9270750D01*
X12477500Y-9241250D01*
X12477571Y-9239804D01*
X12477783Y-9238372D01*
X12478135Y-9236968D01*
X12478623Y-9235605D01*
X12479242Y-9234297D01*
X12479986Y-9233055D01*
X12480848Y-9231893D01*
X12481820Y-9230820D01*
X12482893Y-9229848D01*
X12484055Y-9228986D01*
X12485297Y-9228242D01*
X12486605Y-9227623D01*
X12487968Y-9227135D01*
X12489372Y-9226783D01*
X12490804Y-9226571D01*
X12492250Y-9226500D01*
X12526750Y-9226500D01*
X12528196Y-9226571D01*
G37*
G36*
X12528196Y-9129571D02*
G01*
X12529628Y-9129783D01*
X12531032Y-9130135D01*
X12532395Y-9130623D01*
X12533703Y-9131242D01*
X12534945Y-9131986D01*
X12536107Y-9132848D01*
X12537180Y-9133820D01*
X12538152Y-9134893D01*
X12539014Y-9136055D01*
X12539758Y-9137297D01*
X12540377Y-9138605D01*
X12540865Y-9139968D01*
X12541217Y-9141372D01*
X12541429Y-9142804D01*
X12541500Y-9144250D01*
X12541500Y-9173750D01*
X12541429Y-9175196D01*
X12541217Y-9176628D01*
X12540865Y-9178032D01*
X12540377Y-9179395D01*
X12539758Y-9180703D01*
X12539014Y-9181945D01*
X12538152Y-9183107D01*
X12537180Y-9184180D01*
X12536107Y-9185152D01*
X12534945Y-9186014D01*
X12533703Y-9186758D01*
X12532395Y-9187377D01*
X12531032Y-9187865D01*
X12529628Y-9188217D01*
X12528196Y-9188429D01*
X12526750Y-9188500D01*
X12492250Y-9188500D01*
X12490804Y-9188429D01*
X12489372Y-9188217D01*
X12487968Y-9187865D01*
X12486605Y-9187377D01*
X12485297Y-9186758D01*
X12484055Y-9186014D01*
X12482893Y-9185152D01*
X12481820Y-9184180D01*
X12480848Y-9183107D01*
X12479986Y-9181945D01*
X12479242Y-9180703D01*
X12478623Y-9179395D01*
X12478135Y-9178032D01*
X12477783Y-9176628D01*
X12477571Y-9175196D01*
X12477500Y-9173750D01*
X12477500Y-9144250D01*
X12477571Y-9142804D01*
X12477783Y-9141372D01*
X12478135Y-9139968D01*
X12478623Y-9138605D01*
X12479242Y-9137297D01*
X12479986Y-9136055D01*
X12480848Y-9134893D01*
X12481820Y-9133820D01*
X12482893Y-9132848D01*
X12484055Y-9131986D01*
X12485297Y-9131242D01*
X12486605Y-9130623D01*
X12487968Y-9130135D01*
X12489372Y-9129783D01*
X12490804Y-9129571D01*
X12492250Y-9129500D01*
X12526750Y-9129500D01*
X12528196Y-9129571D01*
G37*
G36*
X13460500Y-9218940D02*
G01*
X13458047Y-9218940D01*
X13453163Y-9218459D01*
X13448351Y-9217502D01*
X13443655Y-9216077D01*
X13439122Y-9214200D01*
X13434795Y-9211886D01*
X13430715Y-9209160D01*
X13426922Y-9206048D01*
X13423452Y-9202578D01*
X13420340Y-9198785D01*
X13417614Y-9194705D01*
X13415300Y-9190378D01*
X13413423Y-9185845D01*
X13411998Y-9181149D01*
X13411041Y-9176337D01*
X13410560Y-9171453D01*
X13410560Y-9169000D01*
X13410500Y-9169000D01*
X13410500Y-9119000D01*
X13410560Y-9119000D01*
X13410560Y-9116547D01*
X13411041Y-9111664D01*
X13411998Y-9106851D01*
X13413423Y-9102156D01*
X13415300Y-9097622D01*
X13417614Y-9093295D01*
X13420340Y-9089215D01*
X13423452Y-9085422D01*
X13426922Y-9081952D01*
X13430715Y-9078840D01*
X13434795Y-9076114D01*
X13439122Y-9073801D01*
X13443655Y-9071923D01*
X13448351Y-9070498D01*
X13453163Y-9069541D01*
X13458047Y-9069060D01*
X13460500Y-9069060D01*
X13460500Y-9069000D01*
X13510500Y-9069000D01*
X13510500Y-9219000D01*
X13460500Y-9219000D01*
X13460500Y-9218940D01*
G37*
G36*
X13540500Y-9069000D02*
G01*
X13590500Y-9069000D01*
X13590500Y-9069060D01*
X13592953Y-9069060D01*
X13597836Y-9069541D01*
X13602649Y-9070498D01*
X13607344Y-9071923D01*
X13611878Y-9073801D01*
X13616205Y-9076114D01*
X13620285Y-9078840D01*
X13624078Y-9081952D01*
X13627548Y-9085422D01*
X13630660Y-9089215D01*
X13633386Y-9093295D01*
X13635699Y-9097622D01*
X13637577Y-9102156D01*
X13639002Y-9106851D01*
X13639959Y-9111664D01*
X13640440Y-9116547D01*
X13640440Y-9119000D01*
X13640500Y-9119000D01*
X13640500Y-9169000D01*
X13640440Y-9169000D01*
X13640440Y-9171453D01*
X13639959Y-9176337D01*
X13639002Y-9181149D01*
X13637577Y-9185845D01*
X13635699Y-9190378D01*
X13633386Y-9194705D01*
X13630660Y-9198785D01*
X13627548Y-9202578D01*
X13624078Y-9206048D01*
X13620285Y-9209160D01*
X13616205Y-9211886D01*
X13611878Y-9214200D01*
X13607344Y-9216077D01*
X13602649Y-9217502D01*
X13597836Y-9218459D01*
X13592953Y-9218940D01*
X13590500Y-9218940D01*
X13590500Y-9219000D01*
X13540500Y-9219000D01*
X13540500Y-9069000D01*
G37*
G36*
X12537269Y-8925105D02*
G01*
X12539393Y-8925420D01*
X12541475Y-8925942D01*
X12543496Y-8926665D01*
X12545437Y-8927583D01*
X12547278Y-8928687D01*
X12549002Y-8929965D01*
X12550593Y-8931407D01*
X12552035Y-8932998D01*
X12553313Y-8934722D01*
X12554417Y-8936563D01*
X12555335Y-8938504D01*
X12556058Y-8940525D01*
X12556580Y-8942607D01*
X12556895Y-8944731D01*
X12557000Y-8946875D01*
X12557000Y-8990625D01*
X12556895Y-8992769D01*
X12556580Y-8994893D01*
X12556058Y-8996975D01*
X12555335Y-8998996D01*
X12554417Y-9000937D01*
X12553313Y-9002778D01*
X12552035Y-9004502D01*
X12550593Y-9006093D01*
X12549002Y-9007535D01*
X12547278Y-9008813D01*
X12545437Y-9009917D01*
X12543496Y-9010835D01*
X12541475Y-9011558D01*
X12539393Y-9012080D01*
X12537269Y-9012395D01*
X12535125Y-9012500D01*
X12483875Y-9012500D01*
X12481731Y-9012395D01*
X12479607Y-9012080D01*
X12477525Y-9011558D01*
X12475504Y-9010835D01*
X12473563Y-9009917D01*
X12471722Y-9008813D01*
X12469998Y-9007535D01*
X12468407Y-9006093D01*
X12466965Y-9004502D01*
X12465687Y-9002778D01*
X12464583Y-9000937D01*
X12463665Y-8998996D01*
X12462942Y-8996975D01*
X12462420Y-8994893D01*
X12462105Y-8992769D01*
X12462000Y-8990625D01*
X12462000Y-8946875D01*
X12462105Y-8944731D01*
X12462420Y-8942607D01*
X12462942Y-8940525D01*
X12463665Y-8938504D01*
X12464583Y-8936563D01*
X12465687Y-8934722D01*
X12466965Y-8932998D01*
X12468407Y-8931407D01*
X12469998Y-8929965D01*
X12471722Y-8928687D01*
X12473563Y-8927583D01*
X12475504Y-8926665D01*
X12477525Y-8925942D01*
X12479607Y-8925420D01*
X12481731Y-8925105D01*
X12483875Y-8925000D01*
X12535125Y-8925000D01*
X12537269Y-8925105D01*
G37*
G36*
X12537269Y-8767605D02*
G01*
X12539393Y-8767920D01*
X12541475Y-8768442D01*
X12543496Y-8769165D01*
X12545437Y-8770083D01*
X12547278Y-8771187D01*
X12549002Y-8772465D01*
X12550593Y-8773907D01*
X12552035Y-8775498D01*
X12553313Y-8777222D01*
X12554417Y-8779063D01*
X12555335Y-8781004D01*
X12556058Y-8783025D01*
X12556580Y-8785107D01*
X12556895Y-8787231D01*
X12557000Y-8789375D01*
X12557000Y-8833125D01*
X12556895Y-8835269D01*
X12556580Y-8837393D01*
X12556058Y-8839475D01*
X12555335Y-8841496D01*
X12554417Y-8843437D01*
X12553313Y-8845278D01*
X12552035Y-8847002D01*
X12550593Y-8848593D01*
X12549002Y-8850035D01*
X12547278Y-8851313D01*
X12545437Y-8852417D01*
X12543496Y-8853335D01*
X12541475Y-8854058D01*
X12539393Y-8854580D01*
X12537269Y-8854895D01*
X12535125Y-8855000D01*
X12483875Y-8855000D01*
X12481731Y-8854895D01*
X12479607Y-8854580D01*
X12477525Y-8854058D01*
X12475504Y-8853335D01*
X12473563Y-8852417D01*
X12471722Y-8851313D01*
X12469998Y-8850035D01*
X12468407Y-8848593D01*
X12466965Y-8847002D01*
X12465687Y-8845278D01*
X12464583Y-8843437D01*
X12463665Y-8841496D01*
X12462942Y-8839475D01*
X12462420Y-8837393D01*
X12462105Y-8835269D01*
X12462000Y-8833125D01*
X12462000Y-8789375D01*
X12462105Y-8787231D01*
X12462420Y-8785107D01*
X12462942Y-8783025D01*
X12463665Y-8781004D01*
X12464583Y-8779063D01*
X12465687Y-8777222D01*
X12466965Y-8775498D01*
X12468407Y-8773907D01*
X12469998Y-8772465D01*
X12471722Y-8771187D01*
X12473563Y-8770083D01*
X12475504Y-8769165D01*
X12477525Y-8768442D01*
X12479607Y-8767920D01*
X12481731Y-8767605D01*
X12483875Y-8767500D01*
X12535125Y-8767500D01*
X12537269Y-8767605D01*
G37*
G36*
X12600769Y-10654855D02*
G01*
X12602893Y-10655170D01*
X12604975Y-10655692D01*
X12606996Y-10656415D01*
X12608937Y-10657333D01*
X12610778Y-10658437D01*
X12612502Y-10659715D01*
X12614093Y-10661157D01*
X12615535Y-10662748D01*
X12616813Y-10664472D01*
X12617917Y-10666313D01*
X12618835Y-10668254D01*
X12619558Y-10670275D01*
X12620080Y-10672357D01*
X12620395Y-10674481D01*
X12620500Y-10676625D01*
X12620500Y-10720375D01*
X12620395Y-10722519D01*
X12620080Y-10724643D01*
X12619558Y-10726725D01*
X12618835Y-10728746D01*
X12617917Y-10730687D01*
X12616813Y-10732528D01*
X12615535Y-10734252D01*
X12614093Y-10735843D01*
X12612502Y-10737285D01*
X12610778Y-10738563D01*
X12608937Y-10739667D01*
X12606996Y-10740585D01*
X12604975Y-10741308D01*
X12602893Y-10741830D01*
X12600769Y-10742145D01*
X12598625Y-10742250D01*
X12547375Y-10742250D01*
X12545231Y-10742145D01*
X12543107Y-10741830D01*
X12541025Y-10741308D01*
X12539004Y-10740585D01*
X12537063Y-10739667D01*
X12535222Y-10738563D01*
X12533498Y-10737285D01*
X12531907Y-10735843D01*
X12530465Y-10734252D01*
X12529187Y-10732528D01*
X12528083Y-10730687D01*
X12527165Y-10728746D01*
X12526442Y-10726725D01*
X12525920Y-10724643D01*
X12525605Y-10722519D01*
X12525500Y-10720375D01*
X12525500Y-10676625D01*
X12525605Y-10674481D01*
X12525920Y-10672357D01*
X12526442Y-10670275D01*
X12527165Y-10668254D01*
X12528083Y-10666313D01*
X12529187Y-10664472D01*
X12530465Y-10662748D01*
X12531907Y-10661157D01*
X12533498Y-10659715D01*
X12535222Y-10658437D01*
X12537063Y-10657333D01*
X12539004Y-10656415D01*
X12541025Y-10655692D01*
X12543107Y-10655170D01*
X12545231Y-10654855D01*
X12547375Y-10654750D01*
X12598625Y-10654750D01*
X12600769Y-10654855D01*
G37*
G36*
X12600769Y-10497355D02*
G01*
X12602893Y-10497670D01*
X12604975Y-10498192D01*
X12606996Y-10498915D01*
X12608937Y-10499833D01*
X12610778Y-10500937D01*
X12612502Y-10502215D01*
X12614093Y-10503657D01*
X12615535Y-10505248D01*
X12616813Y-10506972D01*
X12617917Y-10508813D01*
X12618835Y-10510754D01*
X12619558Y-10512775D01*
X12620080Y-10514857D01*
X12620395Y-10516981D01*
X12620500Y-10519125D01*
X12620500Y-10562875D01*
X12620395Y-10565019D01*
X12620080Y-10567143D01*
X12619558Y-10569225D01*
X12618835Y-10571246D01*
X12617917Y-10573187D01*
X12616813Y-10575028D01*
X12615535Y-10576752D01*
X12614093Y-10578343D01*
X12612502Y-10579785D01*
X12610778Y-10581063D01*
X12608937Y-10582167D01*
X12606996Y-10583085D01*
X12604975Y-10583808D01*
X12602893Y-10584330D01*
X12600769Y-10584645D01*
X12598625Y-10584750D01*
X12547375Y-10584750D01*
X12545231Y-10584645D01*
X12543107Y-10584330D01*
X12541025Y-10583808D01*
X12539004Y-10583085D01*
X12537063Y-10582167D01*
X12535222Y-10581063D01*
X12533498Y-10579785D01*
X12531907Y-10578343D01*
X12530465Y-10576752D01*
X12529187Y-10575028D01*
X12528083Y-10573187D01*
X12527165Y-10571246D01*
X12526442Y-10569225D01*
X12525920Y-10567143D01*
X12525605Y-10565019D01*
X12525500Y-10562875D01*
X12525500Y-10519125D01*
X12525605Y-10516981D01*
X12525920Y-10514857D01*
X12526442Y-10512775D01*
X12527165Y-10510754D01*
X12528083Y-10508813D01*
X12529187Y-10506972D01*
X12530465Y-10505248D01*
X12531907Y-10503657D01*
X12533498Y-10502215D01*
X12535222Y-10500937D01*
X12537063Y-10499833D01*
X12539004Y-10498915D01*
X12541025Y-10498192D01*
X12543107Y-10497670D01*
X12545231Y-10497355D01*
X12547375Y-10497250D01*
X12598625Y-10497250D01*
X12600769Y-10497355D01*
G37*
G36*
X12972696Y-10448071D02*
G01*
X12974128Y-10448283D01*
X12975532Y-10448635D01*
X12976895Y-10449123D01*
X12978203Y-10449742D01*
X12979445Y-10450486D01*
X12980607Y-10451348D01*
X12981680Y-10452320D01*
X12982652Y-10453393D01*
X12983514Y-10454555D01*
X12984258Y-10455797D01*
X12984877Y-10457105D01*
X12985365Y-10458468D01*
X12985717Y-10459872D01*
X12985929Y-10461304D01*
X12986000Y-10462750D01*
X12986000Y-10492250D01*
X12985929Y-10493696D01*
X12985717Y-10495128D01*
X12985365Y-10496532D01*
X12984877Y-10497895D01*
X12984258Y-10499203D01*
X12983514Y-10500445D01*
X12982652Y-10501607D01*
X12981680Y-10502680D01*
X12980607Y-10503652D01*
X12979445Y-10504514D01*
X12978203Y-10505258D01*
X12976895Y-10505877D01*
X12975532Y-10506365D01*
X12974128Y-10506717D01*
X12972696Y-10506929D01*
X12971250Y-10507000D01*
X12936750Y-10507000D01*
X12935304Y-10506929D01*
X12933872Y-10506717D01*
X12932468Y-10506365D01*
X12931105Y-10505877D01*
X12929797Y-10505258D01*
X12928555Y-10504514D01*
X12927393Y-10503652D01*
X12926320Y-10502680D01*
X12925348Y-10501607D01*
X12924486Y-10500445D01*
X12923742Y-10499203D01*
X12923123Y-10497895D01*
X12922635Y-10496532D01*
X12922283Y-10495128D01*
X12922071Y-10493696D01*
X12922000Y-10492250D01*
X12922000Y-10462750D01*
X12922071Y-10461304D01*
X12922283Y-10459872D01*
X12922635Y-10458468D01*
X12923123Y-10457105D01*
X12923742Y-10455797D01*
X12924486Y-10454555D01*
X12925348Y-10453393D01*
X12926320Y-10452320D01*
X12927393Y-10451348D01*
X12928555Y-10450486D01*
X12929797Y-10449742D01*
X12931105Y-10449123D01*
X12932468Y-10448635D01*
X12933872Y-10448283D01*
X12935304Y-10448071D01*
X12936750Y-10448000D01*
X12971250Y-10448000D01*
X12972696Y-10448071D01*
G37*
G36*
X12972696Y-10545071D02*
G01*
X12974128Y-10545283D01*
X12975532Y-10545635D01*
X12976895Y-10546123D01*
X12978203Y-10546742D01*
X12979445Y-10547486D01*
X12980607Y-10548348D01*
X12981680Y-10549320D01*
X12982652Y-10550393D01*
X12983514Y-10551555D01*
X12984258Y-10552797D01*
X12984877Y-10554105D01*
X12985365Y-10555468D01*
X12985717Y-10556872D01*
X12985929Y-10558304D01*
X12986000Y-10559750D01*
X12986000Y-10589250D01*
X12985929Y-10590696D01*
X12985717Y-10592128D01*
X12985365Y-10593532D01*
X12984877Y-10594895D01*
X12984258Y-10596203D01*
X12983514Y-10597445D01*
X12982652Y-10598607D01*
X12981680Y-10599680D01*
X12980607Y-10600652D01*
X12979445Y-10601514D01*
X12978203Y-10602258D01*
X12976895Y-10602877D01*
X12975532Y-10603365D01*
X12974128Y-10603717D01*
X12972696Y-10603929D01*
X12971250Y-10604000D01*
X12936750Y-10604000D01*
X12935304Y-10603929D01*
X12933872Y-10603717D01*
X12932468Y-10603365D01*
X12931105Y-10602877D01*
X12929797Y-10602258D01*
X12928555Y-10601514D01*
X12927393Y-10600652D01*
X12926320Y-10599680D01*
X12925348Y-10598607D01*
X12924486Y-10597445D01*
X12923742Y-10596203D01*
X12923123Y-10594895D01*
X12922635Y-10593532D01*
X12922283Y-10592128D01*
X12922071Y-10590696D01*
X12922000Y-10589250D01*
X12922000Y-10559750D01*
X12922071Y-10558304D01*
X12922283Y-10556872D01*
X12922635Y-10555468D01*
X12923123Y-10554105D01*
X12923742Y-10552797D01*
X12924486Y-10551555D01*
X12925348Y-10550393D01*
X12926320Y-10549320D01*
X12927393Y-10548348D01*
X12928555Y-10547486D01*
X12929797Y-10546742D01*
X12931105Y-10546123D01*
X12932468Y-10545635D01*
X12933872Y-10545283D01*
X12935304Y-10545071D01*
X12936750Y-10545000D01*
X12971250Y-10545000D01*
X12972696Y-10545071D01*
G37*
G36*
X12972696Y-10765571D02*
G01*
X12974128Y-10765783D01*
X12975532Y-10766135D01*
X12976895Y-10766623D01*
X12978203Y-10767242D01*
X12979445Y-10767986D01*
X12980607Y-10768848D01*
X12981680Y-10769820D01*
X12982652Y-10770893D01*
X12983514Y-10772055D01*
X12984258Y-10773297D01*
X12984877Y-10774605D01*
X12985365Y-10775968D01*
X12985717Y-10777372D01*
X12985929Y-10778804D01*
X12986000Y-10780250D01*
X12986000Y-10809750D01*
X12985929Y-10811196D01*
X12985717Y-10812628D01*
X12985365Y-10814032D01*
X12984877Y-10815395D01*
X12984258Y-10816703D01*
X12983514Y-10817945D01*
X12982652Y-10819107D01*
X12981680Y-10820180D01*
X12980607Y-10821152D01*
X12979445Y-10822014D01*
X12978203Y-10822758D01*
X12976895Y-10823377D01*
X12975532Y-10823865D01*
X12974128Y-10824217D01*
X12972696Y-10824429D01*
X12971250Y-10824500D01*
X12936750Y-10824500D01*
X12935304Y-10824429D01*
X12933872Y-10824217D01*
X12932468Y-10823865D01*
X12931105Y-10823377D01*
X12929797Y-10822758D01*
X12928555Y-10822014D01*
X12927393Y-10821152D01*
X12926320Y-10820180D01*
X12925348Y-10819107D01*
X12924486Y-10817945D01*
X12923742Y-10816703D01*
X12923123Y-10815395D01*
X12922635Y-10814032D01*
X12922283Y-10812628D01*
X12922071Y-10811196D01*
X12922000Y-10809750D01*
X12922000Y-10780250D01*
X12922071Y-10778804D01*
X12922283Y-10777372D01*
X12922635Y-10775968D01*
X12923123Y-10774605D01*
X12923742Y-10773297D01*
X12924486Y-10772055D01*
X12925348Y-10770893D01*
X12926320Y-10769820D01*
X12927393Y-10768848D01*
X12928555Y-10767986D01*
X12929797Y-10767242D01*
X12931105Y-10766623D01*
X12932468Y-10766135D01*
X12933872Y-10765783D01*
X12935304Y-10765571D01*
X12936750Y-10765500D01*
X12971250Y-10765500D01*
X12972696Y-10765571D01*
G37*
G36*
X12972696Y-10668571D02*
G01*
X12974128Y-10668783D01*
X12975532Y-10669135D01*
X12976895Y-10669623D01*
X12978203Y-10670242D01*
X12979445Y-10670986D01*
X12980607Y-10671848D01*
X12981680Y-10672820D01*
X12982652Y-10673893D01*
X12983514Y-10675055D01*
X12984258Y-10676297D01*
X12984877Y-10677605D01*
X12985365Y-10678968D01*
X12985717Y-10680372D01*
X12985929Y-10681804D01*
X12986000Y-10683250D01*
X12986000Y-10712750D01*
X12985929Y-10714196D01*
X12985717Y-10715628D01*
X12985365Y-10717032D01*
X12984877Y-10718395D01*
X12984258Y-10719703D01*
X12983514Y-10720945D01*
X12982652Y-10722107D01*
X12981680Y-10723180D01*
X12980607Y-10724152D01*
X12979445Y-10725014D01*
X12978203Y-10725758D01*
X12976895Y-10726377D01*
X12975532Y-10726865D01*
X12974128Y-10727217D01*
X12972696Y-10727429D01*
X12971250Y-10727500D01*
X12936750Y-10727500D01*
X12935304Y-10727429D01*
X12933872Y-10727217D01*
X12932468Y-10726865D01*
X12931105Y-10726377D01*
X12929797Y-10725758D01*
X12928555Y-10725014D01*
X12927393Y-10724152D01*
X12926320Y-10723180D01*
X12925348Y-10722107D01*
X12924486Y-10720945D01*
X12923742Y-10719703D01*
X12923123Y-10718395D01*
X12922635Y-10717032D01*
X12922283Y-10715628D01*
X12922071Y-10714196D01*
X12922000Y-10712750D01*
X12922000Y-10683250D01*
X12922071Y-10681804D01*
X12922283Y-10680372D01*
X12922635Y-10678968D01*
X12923123Y-10677605D01*
X12923742Y-10676297D01*
X12924486Y-10675055D01*
X12925348Y-10673893D01*
X12926320Y-10672820D01*
X12927393Y-10671848D01*
X12928555Y-10670986D01*
X12929797Y-10670242D01*
X12931105Y-10669623D01*
X12932468Y-10669135D01*
X12933872Y-10668783D01*
X12935304Y-10668571D01*
X12936750Y-10668500D01*
X12971250Y-10668500D01*
X12972696Y-10668571D01*
G37*
G36*
X13099696Y-10558321D02*
G01*
X13101128Y-10558533D01*
X13102532Y-10558885D01*
X13103895Y-10559373D01*
X13105203Y-10559992D01*
X13106445Y-10560736D01*
X13107607Y-10561598D01*
X13108680Y-10562570D01*
X13109652Y-10563643D01*
X13110514Y-10564805D01*
X13111258Y-10566047D01*
X13111877Y-10567355D01*
X13112365Y-10568718D01*
X13112717Y-10570122D01*
X13112929Y-10571554D01*
X13113000Y-10573000D01*
X13113000Y-10602500D01*
X13112929Y-10603946D01*
X13112717Y-10605378D01*
X13112365Y-10606782D01*
X13111877Y-10608145D01*
X13111258Y-10609453D01*
X13110514Y-10610695D01*
X13109652Y-10611857D01*
X13108680Y-10612930D01*
X13107607Y-10613902D01*
X13106445Y-10614764D01*
X13105203Y-10615508D01*
X13103895Y-10616127D01*
X13102532Y-10616615D01*
X13101128Y-10616967D01*
X13099696Y-10617179D01*
X13098250Y-10617250D01*
X13063750Y-10617250D01*
X13062304Y-10617179D01*
X13060872Y-10616967D01*
X13059468Y-10616615D01*
X13058105Y-10616127D01*
X13056797Y-10615508D01*
X13055555Y-10614764D01*
X13054393Y-10613902D01*
X13053320Y-10612930D01*
X13052348Y-10611857D01*
X13051486Y-10610695D01*
X13050742Y-10609453D01*
X13050123Y-10608145D01*
X13049635Y-10606782D01*
X13049283Y-10605378D01*
X13049071Y-10603946D01*
X13049000Y-10602500D01*
X13049000Y-10573000D01*
X13049071Y-10571554D01*
X13049283Y-10570122D01*
X13049635Y-10568718D01*
X13050123Y-10567355D01*
X13050742Y-10566047D01*
X13051486Y-10564805D01*
X13052348Y-10563643D01*
X13053320Y-10562570D01*
X13054393Y-10561598D01*
X13055555Y-10560736D01*
X13056797Y-10559992D01*
X13058105Y-10559373D01*
X13059468Y-10558885D01*
X13060872Y-10558533D01*
X13062304Y-10558321D01*
X13063750Y-10558250D01*
X13098250Y-10558250D01*
X13099696Y-10558321D01*
G37*
G36*
X13099696Y-10655321D02*
G01*
X13101128Y-10655533D01*
X13102532Y-10655885D01*
X13103895Y-10656373D01*
X13105203Y-10656992D01*
X13106445Y-10657736D01*
X13107607Y-10658598D01*
X13108680Y-10659570D01*
X13109652Y-10660643D01*
X13110514Y-10661805D01*
X13111258Y-10663047D01*
X13111877Y-10664355D01*
X13112365Y-10665718D01*
X13112717Y-10667122D01*
X13112929Y-10668554D01*
X13113000Y-10670000D01*
X13113000Y-10699500D01*
X13112929Y-10700946D01*
X13112717Y-10702378D01*
X13112365Y-10703782D01*
X13111877Y-10705145D01*
X13111258Y-10706453D01*
X13110514Y-10707695D01*
X13109652Y-10708857D01*
X13108680Y-10709930D01*
X13107607Y-10710902D01*
X13106445Y-10711764D01*
X13105203Y-10712508D01*
X13103895Y-10713127D01*
X13102532Y-10713615D01*
X13101128Y-10713967D01*
X13099696Y-10714179D01*
X13098250Y-10714250D01*
X13063750Y-10714250D01*
X13062304Y-10714179D01*
X13060872Y-10713967D01*
X13059468Y-10713615D01*
X13058105Y-10713127D01*
X13056797Y-10712508D01*
X13055555Y-10711764D01*
X13054393Y-10710902D01*
X13053320Y-10709930D01*
X13052348Y-10708857D01*
X13051486Y-10707695D01*
X13050742Y-10706453D01*
X13050123Y-10705145D01*
X13049635Y-10703782D01*
X13049283Y-10702378D01*
X13049071Y-10700946D01*
X13049000Y-10699500D01*
X13049000Y-10670000D01*
X13049071Y-10668554D01*
X13049283Y-10667122D01*
X13049635Y-10665718D01*
X13050123Y-10664355D01*
X13050742Y-10663047D01*
X13051486Y-10661805D01*
X13052348Y-10660643D01*
X13053320Y-10659570D01*
X13054393Y-10658598D01*
X13055555Y-10657736D01*
X13056797Y-10656992D01*
X13058105Y-10656373D01*
X13059468Y-10655885D01*
X13060872Y-10655533D01*
X13062304Y-10655321D01*
X13063750Y-10655250D01*
X13098250Y-10655250D01*
X13099696Y-10655321D01*
G37*
G36*
X13194196Y-10763071D02*
G01*
X13195628Y-10763283D01*
X13197032Y-10763635D01*
X13198395Y-10764123D01*
X13199703Y-10764742D01*
X13200945Y-10765486D01*
X13202107Y-10766348D01*
X13203180Y-10767320D01*
X13204152Y-10768393D01*
X13205014Y-10769555D01*
X13205758Y-10770797D01*
X13206377Y-10772105D01*
X13206865Y-10773468D01*
X13207217Y-10774872D01*
X13207429Y-10776304D01*
X13207500Y-10777750D01*
X13207500Y-10812250D01*
X13207429Y-10813696D01*
X13207217Y-10815128D01*
X13206865Y-10816532D01*
X13206377Y-10817895D01*
X13205758Y-10819203D01*
X13205014Y-10820445D01*
X13204152Y-10821607D01*
X13203180Y-10822680D01*
X13202107Y-10823652D01*
X13200945Y-10824514D01*
X13199703Y-10825258D01*
X13198395Y-10825877D01*
X13197032Y-10826365D01*
X13195628Y-10826717D01*
X13194196Y-10826929D01*
X13192750Y-10827000D01*
X13163250Y-10827000D01*
X13161804Y-10826929D01*
X13160372Y-10826717D01*
X13158968Y-10826365D01*
X13157605Y-10825877D01*
X13156297Y-10825258D01*
X13155055Y-10824514D01*
X13153893Y-10823652D01*
X13152820Y-10822680D01*
X13151848Y-10821607D01*
X13150986Y-10820445D01*
X13150242Y-10819203D01*
X13149623Y-10817895D01*
X13149135Y-10816532D01*
X13148783Y-10815128D01*
X13148571Y-10813696D01*
X13148500Y-10812250D01*
X13148500Y-10777750D01*
X13148571Y-10776304D01*
X13148783Y-10774872D01*
X13149135Y-10773468D01*
X13149623Y-10772105D01*
X13150242Y-10770797D01*
X13150986Y-10769555D01*
X13151848Y-10768393D01*
X13152820Y-10767320D01*
X13153893Y-10766348D01*
X13155055Y-10765486D01*
X13156297Y-10764742D01*
X13157605Y-10764123D01*
X13158968Y-10763635D01*
X13160372Y-10763283D01*
X13161804Y-10763071D01*
X13163250Y-10763000D01*
X13192750Y-10763000D01*
X13194196Y-10763071D01*
G37*
G36*
X13097196Y-10763071D02*
G01*
X13098628Y-10763283D01*
X13100032Y-10763635D01*
X13101395Y-10764123D01*
X13102703Y-10764742D01*
X13103945Y-10765486D01*
X13105107Y-10766348D01*
X13106180Y-10767320D01*
X13107152Y-10768393D01*
X13108014Y-10769555D01*
X13108758Y-10770797D01*
X13109377Y-10772105D01*
X13109865Y-10773468D01*
X13110217Y-10774872D01*
X13110429Y-10776304D01*
X13110500Y-10777750D01*
X13110500Y-10812250D01*
X13110429Y-10813696D01*
X13110217Y-10815128D01*
X13109865Y-10816532D01*
X13109377Y-10817895D01*
X13108758Y-10819203D01*
X13108014Y-10820445D01*
X13107152Y-10821607D01*
X13106180Y-10822680D01*
X13105107Y-10823652D01*
X13103945Y-10824514D01*
X13102703Y-10825258D01*
X13101395Y-10825877D01*
X13100032Y-10826365D01*
X13098628Y-10826717D01*
X13097196Y-10826929D01*
X13095750Y-10827000D01*
X13066250Y-10827000D01*
X13064804Y-10826929D01*
X13063372Y-10826717D01*
X13061968Y-10826365D01*
X13060605Y-10825877D01*
X13059297Y-10825258D01*
X13058055Y-10824514D01*
X13056893Y-10823652D01*
X13055820Y-10822680D01*
X13054848Y-10821607D01*
X13053986Y-10820445D01*
X13053242Y-10819203D01*
X13052623Y-10817895D01*
X13052135Y-10816532D01*
X13051783Y-10815128D01*
X13051571Y-10813696D01*
X13051500Y-10812250D01*
X13051500Y-10777750D01*
X13051571Y-10776304D01*
X13051783Y-10774872D01*
X13052135Y-10773468D01*
X13052623Y-10772105D01*
X13053242Y-10770797D01*
X13053986Y-10769555D01*
X13054848Y-10768393D01*
X13055820Y-10767320D01*
X13056893Y-10766348D01*
X13058055Y-10765486D01*
X13059297Y-10764742D01*
X13060605Y-10764123D01*
X13061968Y-10763635D01*
X13063372Y-10763283D01*
X13064804Y-10763071D01*
X13066250Y-10763000D01*
X13095750Y-10763000D01*
X13097196Y-10763071D01*
G37*
G36*
X13194196Y-10445571D02*
G01*
X13195628Y-10445783D01*
X13197032Y-10446135D01*
X13198395Y-10446623D01*
X13199703Y-10447242D01*
X13200945Y-10447986D01*
X13202107Y-10448848D01*
X13203180Y-10449820D01*
X13204152Y-10450893D01*
X13205014Y-10452055D01*
X13205758Y-10453297D01*
X13206377Y-10454605D01*
X13206865Y-10455968D01*
X13207217Y-10457372D01*
X13207429Y-10458804D01*
X13207500Y-10460250D01*
X13207500Y-10494750D01*
X13207429Y-10496196D01*
X13207217Y-10497628D01*
X13206865Y-10499032D01*
X13206377Y-10500395D01*
X13205758Y-10501703D01*
X13205014Y-10502945D01*
X13204152Y-10504107D01*
X13203180Y-10505180D01*
X13202107Y-10506152D01*
X13200945Y-10507014D01*
X13199703Y-10507758D01*
X13198395Y-10508377D01*
X13197032Y-10508865D01*
X13195628Y-10509217D01*
X13194196Y-10509429D01*
X13192750Y-10509500D01*
X13163250Y-10509500D01*
X13161804Y-10509429D01*
X13160372Y-10509217D01*
X13158968Y-10508865D01*
X13157605Y-10508377D01*
X13156297Y-10507758D01*
X13155055Y-10507014D01*
X13153893Y-10506152D01*
X13152820Y-10505180D01*
X13151848Y-10504107D01*
X13150986Y-10502945D01*
X13150242Y-10501703D01*
X13149623Y-10500395D01*
X13149135Y-10499032D01*
X13148783Y-10497628D01*
X13148571Y-10496196D01*
X13148500Y-10494750D01*
X13148500Y-10460250D01*
X13148571Y-10458804D01*
X13148783Y-10457372D01*
X13149135Y-10455968D01*
X13149623Y-10454605D01*
X13150242Y-10453297D01*
X13150986Y-10452055D01*
X13151848Y-10450893D01*
X13152820Y-10449820D01*
X13153893Y-10448848D01*
X13155055Y-10447986D01*
X13156297Y-10447242D01*
X13157605Y-10446623D01*
X13158968Y-10446135D01*
X13160372Y-10445783D01*
X13161804Y-10445571D01*
X13163250Y-10445500D01*
X13192750Y-10445500D01*
X13194196Y-10445571D01*
G37*
G36*
X13097196Y-10445571D02*
G01*
X13098628Y-10445783D01*
X13100032Y-10446135D01*
X13101395Y-10446623D01*
X13102703Y-10447242D01*
X13103945Y-10447986D01*
X13105107Y-10448848D01*
X13106180Y-10449820D01*
X13107152Y-10450893D01*
X13108014Y-10452055D01*
X13108758Y-10453297D01*
X13109377Y-10454605D01*
X13109865Y-10455968D01*
X13110217Y-10457372D01*
X13110429Y-10458804D01*
X13110500Y-10460250D01*
X13110500Y-10494750D01*
X13110429Y-10496196D01*
X13110217Y-10497628D01*
X13109865Y-10499032D01*
X13109377Y-10500395D01*
X13108758Y-10501703D01*
X13108014Y-10502945D01*
X13107152Y-10504107D01*
X13106180Y-10505180D01*
X13105107Y-10506152D01*
X13103945Y-10507014D01*
X13102703Y-10507758D01*
X13101395Y-10508377D01*
X13100032Y-10508865D01*
X13098628Y-10509217D01*
X13097196Y-10509429D01*
X13095750Y-10509500D01*
X13066250Y-10509500D01*
X13064804Y-10509429D01*
X13063372Y-10509217D01*
X13061968Y-10508865D01*
X13060605Y-10508377D01*
X13059297Y-10507758D01*
X13058055Y-10507014D01*
X13056893Y-10506152D01*
X13055820Y-10505180D01*
X13054848Y-10504107D01*
X13053986Y-10502945D01*
X13053242Y-10501703D01*
X13052623Y-10500395D01*
X13052135Y-10499032D01*
X13051783Y-10497628D01*
X13051571Y-10496196D01*
X13051500Y-10494750D01*
X13051500Y-10460250D01*
X13051571Y-10458804D01*
X13051783Y-10457372D01*
X13052135Y-10455968D01*
X13052623Y-10454605D01*
X13053242Y-10453297D01*
X13053986Y-10452055D01*
X13054848Y-10450893D01*
X13055820Y-10449820D01*
X13056893Y-10448848D01*
X13058055Y-10447986D01*
X13059297Y-10447242D01*
X13060605Y-10446623D01*
X13061968Y-10446135D01*
X13063372Y-10445783D01*
X13064804Y-10445571D01*
X13066250Y-10445500D01*
X13095750Y-10445500D01*
X13097196Y-10445571D01*
G37*
D18*
X13081000Y-11132500D03*
D19*
X13363500Y-11112500D03*
X12798500Y-11112500D03*
D20*
X12606000Y-9402500D03*
D21*
X12606000Y-9512500D03*
X12606000Y-9622500D03*
X12606000Y-9732500D03*
X12606000Y-9842500D03*
X12606000Y-9952500D03*
X12606000Y-10062500D03*
X12606000Y-10172500D03*
D20*
X12606000Y-10282500D03*
X13556000Y-10282500D03*
D21*
X13556000Y-10172500D03*
X13556000Y-10062500D03*
X13556000Y-9952500D03*
X13556000Y-9842500D03*
X13556000Y-9732500D03*
X13556000Y-9622500D03*
X13556000Y-9512500D03*
D20*
X13556000Y-9402500D03*
M02*
