%TF.GenerationSoftware,KiCad,Pcbnew,5.1.5-52549c5~84~ubuntu19.04.1*%
%TF.CreationDate,2020-02-22T14:04:14+00:00*%
%TF.ProjectId,ProMicro_SX1276,50726f4d-6963-4726-9f5f-535831323736,v1.0*%
%TF.SameCoordinates,Original*%
%TF.FileFunction,Copper,L2,Bot*%
%TF.FilePolarity,Positive*%
%FSLAX45Y45*%
G04 Gerber Fmt 4.5, Leading zero omitted, Abs format (unit mm)*
G04 Created by KiCad (PCBNEW 5.1.5-52549c5~84~ubuntu19.04.1) date 2020-02-22 14:04:14*
%MOMM*%
%LPD*%
G04 APERTURE LIST*
%ADD10C,0.100000*%
%ADD11R,1.350000X4.200000*%
%ADD12O,1.600000X1.600000*%
%ADD13R,1.600000X1.600000*%
%ADD14C,0.600000*%
%ADD15C,0.500000*%
%ADD16C,0.450000*%
%ADD17C,0.400000*%
%ADD18C,0.250000*%
%ADD19C,0.150000*%
G04 APERTURE END LIST*
D10*
X18923000Y-8826500D02*
G75*
G02X18986500Y-8763000I63500J0D01*
G01*
X20637500Y-8763000D02*
G75*
G02X20701000Y-8826500I0J-63500D01*
G01*
X18986500Y-8763000D02*
X20637500Y-8763000D01*
X20701000Y-11747500D02*
G75*
G02X20637500Y-11811000I-63500J0D01*
G01*
X18986500Y-11811000D02*
G75*
G02X18923000Y-11747500I0J63500D01*
G01*
X18923000Y-11747500D02*
X18923000Y-8826500D01*
X20637500Y-11811000D02*
X18986500Y-11811000D01*
X20701000Y-8826500D02*
X20701000Y-11747500D01*
D11*
X19529500Y-8973500D03*
X20094500Y-8973500D03*
D12*
X20574000Y-11684000D03*
X20574000Y-11430000D03*
X20574000Y-11176000D03*
X19050000Y-8890000D03*
X20574000Y-10922000D03*
X19050000Y-9144000D03*
X20574000Y-10668000D03*
X19050000Y-9398000D03*
X20574000Y-10414000D03*
X19050000Y-9652000D03*
X20574000Y-10160000D03*
X19050000Y-9906000D03*
X20574000Y-9906000D03*
X19050000Y-10160000D03*
X20574000Y-9652000D03*
X19050000Y-10414000D03*
X20574000Y-9398000D03*
X19050000Y-10668000D03*
X20574000Y-9144000D03*
X19050000Y-10922000D03*
X20574000Y-8890000D03*
X19050000Y-11176000D03*
X19050000Y-11430000D03*
D13*
X19050000Y-11684000D03*
D14*
X20383500Y-11303000D03*
X19240500Y-11430000D03*
X20447000Y-11557000D03*
X20320000Y-11684000D03*
X20193000Y-11430000D03*
X20002500Y-11430000D03*
X19812000Y-11430000D03*
X19621500Y-11430000D03*
X19304000Y-11684000D03*
X20510500Y-10795000D03*
X19812000Y-9690100D03*
D15*
X19939000Y-9855200D03*
D14*
X19939000Y-9690100D03*
X20281900Y-9575800D03*
X20281900Y-9461500D03*
X20281900Y-9334500D03*
X20383500Y-10864850D03*
D16*
X19875500Y-10287000D03*
X20103622Y-10284938D03*
D15*
X19431000Y-10363200D03*
D14*
X19697700Y-9690100D03*
X19685000Y-9207500D03*
X19939000Y-9207500D03*
X20281900Y-9207500D03*
X20281900Y-9067800D03*
X19151600Y-11303000D03*
X19304000Y-9017000D03*
X19177000Y-10287000D03*
X19177000Y-10033000D03*
X19494500Y-9525000D03*
X19304000Y-9271000D03*
X19431000Y-10160000D03*
X19716750Y-9461500D03*
D16*
X19776440Y-10287000D03*
D14*
X19621500Y-11303000D03*
X19812000Y-11303000D03*
X20002500Y-11303000D03*
X19812000Y-10541000D03*
X19812000Y-10795000D03*
X20066000Y-10795000D03*
X20066000Y-10541000D03*
X19177000Y-10541000D03*
X19431000Y-11430000D03*
X20243800Y-9791700D03*
X19558000Y-10160000D03*
X19240500Y-9461500D03*
X19177000Y-9779000D03*
X20294600Y-11277600D03*
X20180300Y-11277600D03*
D16*
X20002500Y-10287000D03*
D14*
X20256500Y-10985500D03*
X19606260Y-9594850D03*
X19431000Y-10591800D03*
X19627850Y-10394950D03*
D16*
X19743180Y-10208500D03*
D15*
X20447000Y-10706100D03*
X19602450Y-10934700D03*
X19580841Y-11097241D03*
X19761200Y-11061700D03*
X19304000Y-9817100D03*
D17*
X20002500Y-10287000D02*
X20193000Y-10477500D01*
X20256500Y-10541000D02*
X20193000Y-10477500D01*
X20256500Y-10985500D02*
X20256500Y-10541000D01*
X19431000Y-10591800D02*
X19627850Y-10394950D01*
X19743180Y-10208500D02*
X19924000Y-10208500D01*
X19924000Y-10208500D02*
X19942810Y-10227310D01*
X20002500Y-10287000D02*
X19942810Y-10227310D01*
X19606260Y-10071580D02*
X19606260Y-9594850D01*
X19743180Y-10208500D02*
X19606260Y-10071580D01*
D18*
X20447000Y-9779000D02*
X20447000Y-10706100D01*
X20574000Y-9652000D02*
X20447000Y-9779000D01*
X19577450Y-10909700D02*
X19602450Y-10934700D01*
X19367500Y-10699750D02*
X19577450Y-10909700D01*
X19050000Y-9144000D02*
X19367500Y-9461500D01*
X19367500Y-9461500D02*
X19367500Y-10699750D01*
X19050000Y-9398000D02*
X19240500Y-9588500D01*
X19240500Y-9588500D02*
X19240500Y-10756900D01*
X19240500Y-10756900D02*
X19580841Y-11097241D01*
X19761200Y-11061700D02*
X19634200Y-11061700D01*
X19634200Y-11061700D02*
X19304000Y-10731500D01*
X19304000Y-10731500D02*
X19304000Y-9817100D01*
D19*
G36*
X19434208Y-8965900D02*
G01*
X19521900Y-8965900D01*
X19521900Y-8965900D01*
X19624792Y-8965900D01*
X19624792Y-8785400D01*
X19999208Y-8785400D01*
X19999208Y-8965900D01*
X20086900Y-8965900D01*
X20086900Y-8965900D01*
X20189792Y-8965900D01*
X20189792Y-8785400D01*
X20549523Y-8785400D01*
X20536724Y-8788686D01*
X20517113Y-8798251D01*
X20499826Y-8811564D01*
X20485570Y-8828080D01*
X20474925Y-8847126D01*
X20468328Y-8867924D01*
X20466047Y-8889623D01*
X20468176Y-8911338D01*
X20474628Y-8932181D01*
X20485139Y-8951301D01*
X20499281Y-8967917D01*
X20516474Y-8981350D01*
X20536017Y-8991051D01*
X20557112Y-8996625D01*
X20578897Y-8997843D01*
X20600482Y-8994655D01*
X20620985Y-8987193D01*
X20639569Y-8975760D01*
X20655474Y-8960824D01*
X20668051Y-8942995D01*
X20676786Y-8923001D01*
X20678600Y-8914467D01*
X20678600Y-9119445D01*
X20677014Y-9111717D01*
X20668419Y-9091663D01*
X20655966Y-9073747D01*
X20640166Y-9058700D01*
X20621662Y-9047138D01*
X20601212Y-9039532D01*
X20579650Y-9036194D01*
X20557857Y-9037260D01*
X20536724Y-9042686D01*
X20517113Y-9052251D01*
X20499826Y-9065564D01*
X20485570Y-9082080D01*
X20474925Y-9101126D01*
X20468328Y-9121924D01*
X20466047Y-9143623D01*
X20468176Y-9165338D01*
X20474628Y-9186181D01*
X20485139Y-9205301D01*
X20499281Y-9221917D01*
X20516474Y-9235350D01*
X20536017Y-9245051D01*
X20557112Y-9250625D01*
X20578897Y-9251843D01*
X20600482Y-9248655D01*
X20620985Y-9241193D01*
X20639569Y-9229760D01*
X20655474Y-9214824D01*
X20668051Y-9196995D01*
X20676786Y-9177001D01*
X20678600Y-9168467D01*
X20678600Y-9373445D01*
X20677014Y-9365717D01*
X20668419Y-9345663D01*
X20655966Y-9327747D01*
X20640166Y-9312700D01*
X20621662Y-9301138D01*
X20601212Y-9293532D01*
X20579650Y-9290194D01*
X20557857Y-9291260D01*
X20536724Y-9296686D01*
X20517113Y-9306251D01*
X20499826Y-9319564D01*
X20485570Y-9336080D01*
X20474925Y-9355126D01*
X20468328Y-9375924D01*
X20466047Y-9397623D01*
X20468176Y-9419338D01*
X20474628Y-9440181D01*
X20485139Y-9459301D01*
X20499281Y-9475917D01*
X20516474Y-9489350D01*
X20536017Y-9499051D01*
X20557112Y-9504625D01*
X20578897Y-9505843D01*
X20600482Y-9502655D01*
X20620985Y-9495193D01*
X20639569Y-9483760D01*
X20655474Y-9468824D01*
X20668051Y-9450995D01*
X20676786Y-9431001D01*
X20678600Y-9422467D01*
X20678600Y-9627445D01*
X20677014Y-9619717D01*
X20668419Y-9599663D01*
X20655966Y-9581747D01*
X20640166Y-9566700D01*
X20621662Y-9555138D01*
X20601212Y-9547532D01*
X20579650Y-9544194D01*
X20557857Y-9545260D01*
X20536724Y-9550686D01*
X20517113Y-9560251D01*
X20499826Y-9573564D01*
X20485570Y-9590080D01*
X20474925Y-9609126D01*
X20468328Y-9629924D01*
X20466047Y-9651623D01*
X20468176Y-9673338D01*
X20474628Y-9694181D01*
X20474899Y-9694674D01*
X20419526Y-9750047D01*
X20413695Y-9755298D01*
X20412570Y-9758758D01*
X20408918Y-9764382D01*
X20406265Y-9781135D01*
X20407100Y-9784253D01*
X20407100Y-10671142D01*
X20397488Y-10686347D01*
X20393697Y-10705495D01*
X20397053Y-10724725D01*
X20407107Y-10741457D01*
X20422510Y-10753448D01*
X20441197Y-10759090D01*
X20460662Y-10757626D01*
X20478295Y-10749253D01*
X20490856Y-10736017D01*
X20499281Y-10745917D01*
X20516474Y-10759350D01*
X20536017Y-10769051D01*
X20557112Y-10774625D01*
X20578897Y-10775843D01*
X20600482Y-10772655D01*
X20620985Y-10765193D01*
X20639569Y-10753760D01*
X20655474Y-10738824D01*
X20668051Y-10720995D01*
X20676786Y-10701001D01*
X20678600Y-10692467D01*
X20678600Y-10897445D01*
X20677014Y-10889717D01*
X20668419Y-10869663D01*
X20655966Y-10851747D01*
X20640166Y-10836700D01*
X20621662Y-10825138D01*
X20601212Y-10817532D01*
X20579650Y-10814194D01*
X20557857Y-10815260D01*
X20536724Y-10820686D01*
X20517113Y-10830251D01*
X20499826Y-10843564D01*
X20485570Y-10860080D01*
X20474925Y-10879126D01*
X20468328Y-10899924D01*
X20466047Y-10921623D01*
X20468176Y-10943338D01*
X20474628Y-10964181D01*
X20485139Y-10983301D01*
X20499281Y-10999917D01*
X20516474Y-11013350D01*
X20536017Y-11023051D01*
X20557112Y-11028625D01*
X20578897Y-11029843D01*
X20600482Y-11026655D01*
X20620985Y-11019193D01*
X20639569Y-11007760D01*
X20655474Y-10992824D01*
X20668051Y-10974995D01*
X20676786Y-10955001D01*
X20678600Y-10946466D01*
X20678600Y-11151445D01*
X20677014Y-11143717D01*
X20668419Y-11123663D01*
X20655966Y-11105747D01*
X20640166Y-11090700D01*
X20621662Y-11079138D01*
X20601212Y-11071532D01*
X20579650Y-11068194D01*
X20557857Y-11069260D01*
X20536724Y-11074686D01*
X20517113Y-11084251D01*
X20499826Y-11097564D01*
X20485570Y-11114080D01*
X20474925Y-11133126D01*
X20468328Y-11153924D01*
X20466047Y-11175623D01*
X20468176Y-11197338D01*
X20474628Y-11218181D01*
X20485139Y-11237301D01*
X20499281Y-11253917D01*
X20516474Y-11267350D01*
X20536017Y-11277051D01*
X20557112Y-11282625D01*
X20578897Y-11283843D01*
X20600482Y-11280655D01*
X20620985Y-11273193D01*
X20639569Y-11261760D01*
X20655474Y-11246824D01*
X20668051Y-11228995D01*
X20676786Y-11209001D01*
X20678600Y-11200466D01*
X20678600Y-11405445D01*
X20677014Y-11397717D01*
X20668419Y-11377663D01*
X20655966Y-11359746D01*
X20640166Y-11344700D01*
X20621662Y-11333137D01*
X20601212Y-11325532D01*
X20581600Y-11322496D01*
X20581600Y-11537443D01*
X20600482Y-11534655D01*
X20620985Y-11527193D01*
X20639569Y-11515760D01*
X20655474Y-11500824D01*
X20668051Y-11482995D01*
X20676786Y-11463001D01*
X20678600Y-11454466D01*
X20678600Y-11659445D01*
X20677014Y-11651717D01*
X20668419Y-11631663D01*
X20655966Y-11613746D01*
X20640166Y-11598700D01*
X20621662Y-11587137D01*
X20601212Y-11579532D01*
X20579650Y-11576194D01*
X20557857Y-11577260D01*
X20536724Y-11582686D01*
X20517113Y-11592251D01*
X20499826Y-11605563D01*
X20485570Y-11622080D01*
X20474925Y-11641126D01*
X20468328Y-11661924D01*
X20466047Y-11683623D01*
X20468176Y-11705338D01*
X20474628Y-11726181D01*
X20485139Y-11745301D01*
X20499281Y-11761917D01*
X20516474Y-11775350D01*
X20536017Y-11785051D01*
X20549449Y-11788600D01*
X19142502Y-11788600D01*
X19149754Y-11783754D01*
X19155810Y-11774691D01*
X19157792Y-11764729D01*
X19157792Y-11603271D01*
X19155810Y-11593309D01*
X19149754Y-11584246D01*
X19140691Y-11578190D01*
X19130729Y-11576208D01*
X18969271Y-11576208D01*
X18959309Y-11578190D01*
X18950246Y-11584246D01*
X18945400Y-11591498D01*
X18945400Y-11455292D01*
X18950628Y-11472181D01*
X18961139Y-11491301D01*
X18975281Y-11507917D01*
X18992474Y-11521350D01*
X19012017Y-11531051D01*
X19033112Y-11536625D01*
X19054897Y-11537843D01*
X19076482Y-11534655D01*
X19096985Y-11527193D01*
X19115569Y-11515760D01*
X19131474Y-11500824D01*
X19144051Y-11482995D01*
X19152786Y-11463001D01*
X19157325Y-11441646D01*
X19157339Y-11437600D01*
X20466829Y-11437600D01*
X20468176Y-11451338D01*
X20474628Y-11472181D01*
X20485139Y-11491301D01*
X20499281Y-11507917D01*
X20516474Y-11521350D01*
X20536017Y-11531051D01*
X20557112Y-11536625D01*
X20566400Y-11537144D01*
X20566400Y-11437600D01*
X20466829Y-11437600D01*
X19157339Y-11437600D01*
X19157392Y-11422400D01*
X20466806Y-11422400D01*
X20566400Y-11422400D01*
X20566400Y-11322841D01*
X20557857Y-11323260D01*
X20536724Y-11328686D01*
X20517113Y-11338251D01*
X20499826Y-11351563D01*
X20485570Y-11368080D01*
X20474925Y-11387126D01*
X20468328Y-11407924D01*
X20466806Y-11422400D01*
X19157392Y-11422400D01*
X19157404Y-11419103D01*
X19153014Y-11397717D01*
X19144419Y-11377663D01*
X19131966Y-11359746D01*
X19116166Y-11344700D01*
X19097662Y-11333137D01*
X19077212Y-11325532D01*
X19055650Y-11322194D01*
X19033857Y-11323260D01*
X19012724Y-11328686D01*
X18993113Y-11338251D01*
X18975826Y-11351563D01*
X18961570Y-11368080D01*
X18950925Y-11387126D01*
X18945400Y-11404543D01*
X18945400Y-11201292D01*
X18950628Y-11218181D01*
X18961139Y-11237301D01*
X18975281Y-11253917D01*
X18992474Y-11267350D01*
X19012017Y-11277051D01*
X19033112Y-11282625D01*
X19042400Y-11283144D01*
X19042400Y-11183600D01*
X19057600Y-11183600D01*
X19057600Y-11283443D01*
X19076482Y-11280655D01*
X19096985Y-11273193D01*
X19115569Y-11261760D01*
X19131474Y-11246824D01*
X19144051Y-11228995D01*
X19152786Y-11209001D01*
X19158185Y-11183600D01*
X19057600Y-11183600D01*
X19042400Y-11183600D01*
X19042400Y-11168400D01*
X19057600Y-11168400D01*
X19158080Y-11168400D01*
X19153014Y-11143717D01*
X19144419Y-11123663D01*
X19131966Y-11105747D01*
X19116166Y-11090700D01*
X19097662Y-11079138D01*
X19077212Y-11071532D01*
X19057600Y-11068496D01*
X19057600Y-11168400D01*
X19042400Y-11168400D01*
X19042400Y-11068841D01*
X19033857Y-11069260D01*
X19012724Y-11074686D01*
X18993113Y-11084251D01*
X18975826Y-11097564D01*
X18961570Y-11114080D01*
X18950925Y-11133126D01*
X18945400Y-11150543D01*
X18945400Y-10947292D01*
X18950628Y-10964181D01*
X18961139Y-10983301D01*
X18975281Y-10999917D01*
X18992474Y-11013350D01*
X19012017Y-11023051D01*
X19033112Y-11028625D01*
X19042400Y-11029144D01*
X19042400Y-10929600D01*
X19057600Y-10929600D01*
X19057600Y-11029443D01*
X19076482Y-11026655D01*
X19096985Y-11019193D01*
X19115569Y-11007760D01*
X19131474Y-10992824D01*
X19144051Y-10974995D01*
X19152786Y-10955001D01*
X19158185Y-10929600D01*
X19057600Y-10929600D01*
X19042400Y-10929600D01*
X19042400Y-10914400D01*
X19057600Y-10914400D01*
X19158080Y-10914400D01*
X19153014Y-10889717D01*
X19144419Y-10869663D01*
X19131966Y-10851747D01*
X19116166Y-10836700D01*
X19097662Y-10825138D01*
X19077212Y-10817532D01*
X19057600Y-10814496D01*
X19057600Y-10914400D01*
X19042400Y-10914400D01*
X19042400Y-10814841D01*
X19033857Y-10815260D01*
X19012724Y-10820686D01*
X18993113Y-10830251D01*
X18975826Y-10843564D01*
X18961570Y-10860080D01*
X18950925Y-10879126D01*
X18945400Y-10896543D01*
X18945400Y-10693292D01*
X18950628Y-10710181D01*
X18961139Y-10729301D01*
X18975281Y-10745917D01*
X18992474Y-10759350D01*
X19012017Y-10769051D01*
X19033112Y-10774625D01*
X19054897Y-10775843D01*
X19076482Y-10772655D01*
X19096985Y-10765193D01*
X19115569Y-10753760D01*
X19131474Y-10738824D01*
X19144051Y-10720995D01*
X19152786Y-10701001D01*
X19157325Y-10679646D01*
X19157404Y-10657103D01*
X19153014Y-10635717D01*
X19144419Y-10615663D01*
X19131966Y-10597747D01*
X19116166Y-10582700D01*
X19097662Y-10571138D01*
X19077212Y-10563532D01*
X19055650Y-10560194D01*
X19033857Y-10561260D01*
X19012724Y-10566686D01*
X18993113Y-10576251D01*
X18975826Y-10589564D01*
X18961570Y-10606080D01*
X18950925Y-10625126D01*
X18945400Y-10642543D01*
X18945400Y-10439292D01*
X18950628Y-10456181D01*
X18961139Y-10475301D01*
X18975281Y-10491917D01*
X18992474Y-10505350D01*
X19012017Y-10515051D01*
X19033112Y-10520625D01*
X19054897Y-10521843D01*
X19076482Y-10518655D01*
X19096985Y-10511193D01*
X19115569Y-10499760D01*
X19131474Y-10484824D01*
X19144051Y-10466995D01*
X19152786Y-10447001D01*
X19157325Y-10425646D01*
X19157404Y-10403103D01*
X19153014Y-10381717D01*
X19144419Y-10361663D01*
X19131966Y-10343747D01*
X19116166Y-10328700D01*
X19097662Y-10317138D01*
X19077212Y-10309532D01*
X19055650Y-10306194D01*
X19033857Y-10307260D01*
X19012724Y-10312686D01*
X18993113Y-10322251D01*
X18975826Y-10335564D01*
X18961570Y-10352080D01*
X18950925Y-10371126D01*
X18945400Y-10388543D01*
X18945400Y-10185292D01*
X18950628Y-10202181D01*
X18961139Y-10221301D01*
X18975281Y-10237917D01*
X18992474Y-10251350D01*
X19012017Y-10261051D01*
X19033112Y-10266625D01*
X19054897Y-10267843D01*
X19076482Y-10264655D01*
X19096985Y-10257193D01*
X19115569Y-10245760D01*
X19131474Y-10230824D01*
X19144051Y-10212995D01*
X19152786Y-10193001D01*
X19157325Y-10171646D01*
X19157404Y-10149103D01*
X19153014Y-10127717D01*
X19144419Y-10107663D01*
X19131966Y-10089747D01*
X19116166Y-10074700D01*
X19097662Y-10063138D01*
X19077212Y-10055532D01*
X19055650Y-10052194D01*
X19033857Y-10053260D01*
X19012724Y-10058686D01*
X18993113Y-10068251D01*
X18975826Y-10081564D01*
X18961570Y-10098080D01*
X18950925Y-10117126D01*
X18945400Y-10134543D01*
X18945400Y-9931292D01*
X18950628Y-9948181D01*
X18961139Y-9967301D01*
X18975281Y-9983917D01*
X18992474Y-9997350D01*
X19012017Y-10007051D01*
X19033112Y-10012625D01*
X19054897Y-10013843D01*
X19076482Y-10010655D01*
X19096985Y-10003193D01*
X19115569Y-9991760D01*
X19131474Y-9976824D01*
X19144051Y-9958995D01*
X19152786Y-9939001D01*
X19157325Y-9917646D01*
X19157404Y-9895103D01*
X19153014Y-9873717D01*
X19144419Y-9853663D01*
X19131966Y-9835747D01*
X19116166Y-9820700D01*
X19097662Y-9809138D01*
X19077212Y-9801532D01*
X19055650Y-9798194D01*
X19033857Y-9799260D01*
X19012724Y-9804686D01*
X18993113Y-9814251D01*
X18975826Y-9827564D01*
X18961570Y-9844080D01*
X18950925Y-9863126D01*
X18945400Y-9880543D01*
X18945400Y-9677292D01*
X18950628Y-9694181D01*
X18961139Y-9713301D01*
X18975281Y-9729917D01*
X18992474Y-9743350D01*
X19012017Y-9753051D01*
X19033112Y-9758625D01*
X19054897Y-9759843D01*
X19076482Y-9756655D01*
X19096985Y-9749193D01*
X19115569Y-9737760D01*
X19131474Y-9722824D01*
X19144051Y-9704995D01*
X19152786Y-9685001D01*
X19157325Y-9663646D01*
X19157404Y-9641103D01*
X19153014Y-9619717D01*
X19144419Y-9599663D01*
X19131966Y-9581747D01*
X19116166Y-9566700D01*
X19097662Y-9555138D01*
X19077212Y-9547532D01*
X19055650Y-9544194D01*
X19033857Y-9545260D01*
X19012724Y-9550686D01*
X18993113Y-9560251D01*
X18975826Y-9573564D01*
X18961570Y-9590080D01*
X18950925Y-9609126D01*
X18945400Y-9626543D01*
X18945400Y-9423292D01*
X18950628Y-9440181D01*
X18961139Y-9459301D01*
X18975281Y-9475917D01*
X18992474Y-9489350D01*
X19012017Y-9499051D01*
X19033112Y-9504625D01*
X19054897Y-9505843D01*
X19076482Y-9502655D01*
X19092425Y-9496852D01*
X19200600Y-9605027D01*
X19200600Y-10755855D01*
X19200190Y-10763691D01*
X19201841Y-10766932D01*
X19203235Y-10773491D01*
X19213205Y-10787214D01*
X19216001Y-10788828D01*
X19528326Y-11101153D01*
X19530893Y-11115865D01*
X19540947Y-11132598D01*
X19556350Y-11144588D01*
X19575037Y-11150230D01*
X19594503Y-11148767D01*
X19612136Y-11140394D01*
X19625573Y-11126234D01*
X19633028Y-11108147D01*
X19633098Y-11101923D01*
X19636335Y-11102435D01*
X19639453Y-11101600D01*
X19727142Y-11101600D01*
X19736710Y-11109048D01*
X19755397Y-11114690D01*
X19774862Y-11113226D01*
X19792495Y-11104853D01*
X19805932Y-11090694D01*
X19813387Y-11072606D01*
X19813621Y-11051981D01*
X19806578Y-11033728D01*
X19793466Y-11019268D01*
X19776027Y-11010497D01*
X19756600Y-11008592D01*
X19737790Y-11013809D01*
X19727030Y-11021800D01*
X19650727Y-11021800D01*
X19615220Y-10986293D01*
X19616112Y-10986226D01*
X19633745Y-10977853D01*
X19647182Y-10963694D01*
X19654637Y-10945606D01*
X19654871Y-10924981D01*
X19647828Y-10906728D01*
X19634716Y-10892268D01*
X19617277Y-10883497D01*
X19606630Y-10882453D01*
X19407400Y-10683223D01*
X19407400Y-10644454D01*
X19411065Y-10646570D01*
X19431000Y-10650086D01*
X19450935Y-10646570D01*
X19468465Y-10636449D01*
X19481477Y-10620943D01*
X19488400Y-10601921D01*
X19488400Y-10601434D01*
X19638471Y-10451363D01*
X19647785Y-10449720D01*
X19665315Y-10439599D01*
X19678327Y-10424093D01*
X19685250Y-10405071D01*
X19685250Y-10384829D01*
X19678327Y-10365807D01*
X19665315Y-10350301D01*
X19647785Y-10340180D01*
X19627850Y-10336665D01*
X19607915Y-10340180D01*
X19590385Y-10350301D01*
X19577373Y-10365807D01*
X19570450Y-10384829D01*
X19570450Y-10385316D01*
X19420379Y-10535387D01*
X19411065Y-10537030D01*
X19407400Y-10539146D01*
X19407400Y-9584729D01*
X19548860Y-9584729D01*
X19548860Y-9604971D01*
X19555783Y-9623993D01*
X19558860Y-9627660D01*
X19558860Y-10066912D01*
X19557931Y-10071580D01*
X19561279Y-10088411D01*
X19561610Y-10090074D01*
X19572086Y-10105754D01*
X19576045Y-10108398D01*
X19698225Y-10230579D01*
X19705190Y-10242170D01*
X19719858Y-10253589D01*
X19737654Y-10258962D01*
X19756190Y-10257568D01*
X19759703Y-10255900D01*
X19904366Y-10255900D01*
X19906508Y-10258041D01*
X19957545Y-10309079D01*
X19964510Y-10320670D01*
X19979178Y-10332089D01*
X19981151Y-10332684D01*
X20162787Y-10514321D01*
X20162787Y-10514321D01*
X20209100Y-10560634D01*
X20209100Y-10952691D01*
X20206023Y-10956357D01*
X20199100Y-10975379D01*
X20199100Y-10995621D01*
X20206023Y-11014643D01*
X20219035Y-11030149D01*
X20236565Y-11040270D01*
X20256500Y-11043786D01*
X20276435Y-11040270D01*
X20293965Y-11030149D01*
X20306977Y-11014643D01*
X20313900Y-10995621D01*
X20313900Y-10975379D01*
X20306977Y-10956357D01*
X20303900Y-10952691D01*
X20303900Y-10545668D01*
X20304829Y-10541000D01*
X20301150Y-10522506D01*
X20295582Y-10514172D01*
X20290674Y-10506827D01*
X20286716Y-10504182D01*
X20229821Y-10447287D01*
X20229821Y-10447287D01*
X20047483Y-10264949D01*
X20045713Y-10260363D01*
X20033227Y-10246592D01*
X20024977Y-10242443D01*
X19973541Y-10191008D01*
X19960818Y-10178285D01*
X19958174Y-10174327D01*
X19942495Y-10163850D01*
X19929383Y-10161242D01*
X19924000Y-10160171D01*
X19919332Y-10161100D01*
X19762814Y-10161100D01*
X19653660Y-10051946D01*
X19653660Y-9627659D01*
X19656737Y-9623993D01*
X19663660Y-9604971D01*
X19663660Y-9584729D01*
X19656737Y-9565707D01*
X19643725Y-9550201D01*
X19626195Y-9540080D01*
X19606260Y-9536565D01*
X19586325Y-9540080D01*
X19568795Y-9550201D01*
X19555783Y-9565707D01*
X19548860Y-9584729D01*
X19407400Y-9584729D01*
X19407400Y-9462544D01*
X19407811Y-9454710D01*
X19406159Y-9451468D01*
X19404765Y-9444909D01*
X19394795Y-9431186D01*
X19392000Y-9429573D01*
X19148725Y-9186298D01*
X19149628Y-9184229D01*
X19434208Y-9184229D01*
X19436190Y-9194191D01*
X19442246Y-9203254D01*
X19451309Y-9209310D01*
X19461271Y-9211292D01*
X19521900Y-9211292D01*
X19537100Y-9211292D01*
X19597729Y-9211292D01*
X19607691Y-9209310D01*
X19616754Y-9203254D01*
X19622810Y-9194191D01*
X19624792Y-9184229D01*
X19999208Y-9184229D01*
X20001190Y-9194191D01*
X20007246Y-9203254D01*
X20016309Y-9209310D01*
X20026271Y-9211292D01*
X20086900Y-9211292D01*
X20102100Y-9211292D01*
X20162729Y-9211292D01*
X20172691Y-9209310D01*
X20181754Y-9203254D01*
X20187810Y-9194191D01*
X20189792Y-9184229D01*
X20189792Y-8981100D01*
X20102100Y-8981100D01*
X20102100Y-9211292D01*
X20086900Y-9211292D01*
X20086900Y-8981100D01*
X19999208Y-8981100D01*
X19999208Y-9184229D01*
X19624792Y-9184229D01*
X19624792Y-8981100D01*
X19537100Y-8981100D01*
X19537100Y-9211292D01*
X19521900Y-9211292D01*
X19521900Y-8981100D01*
X19434208Y-8981100D01*
X19434208Y-9184229D01*
X19149628Y-9184229D01*
X19152786Y-9177001D01*
X19157325Y-9155646D01*
X19157404Y-9133103D01*
X19153014Y-9111717D01*
X19144419Y-9091663D01*
X19131966Y-9073747D01*
X19116166Y-9058700D01*
X19097662Y-9047138D01*
X19077212Y-9039532D01*
X19055650Y-9036194D01*
X19033857Y-9037260D01*
X19012724Y-9042686D01*
X18993113Y-9052251D01*
X18975826Y-9065564D01*
X18961570Y-9082080D01*
X18950925Y-9101126D01*
X18945400Y-9118543D01*
X18945400Y-8915292D01*
X18950628Y-8932181D01*
X18961139Y-8951301D01*
X18975281Y-8967917D01*
X18992474Y-8981350D01*
X19012017Y-8991051D01*
X19033112Y-8996625D01*
X19054897Y-8997843D01*
X19076482Y-8994655D01*
X19096985Y-8987193D01*
X19115569Y-8975760D01*
X19131474Y-8960824D01*
X19144051Y-8942995D01*
X19152786Y-8923001D01*
X19157325Y-8901646D01*
X19157404Y-8879103D01*
X19153014Y-8857717D01*
X19144419Y-8837663D01*
X19131966Y-8819747D01*
X19116166Y-8804700D01*
X19097662Y-8793138D01*
X19077212Y-8785532D01*
X19076359Y-8785400D01*
X19434208Y-8785400D01*
X19434208Y-8965900D01*
G37*
X19434208Y-8965900D02*
X19521900Y-8965900D01*
X19521900Y-8965900D01*
X19624792Y-8965900D01*
X19624792Y-8785400D01*
X19999208Y-8785400D01*
X19999208Y-8965900D01*
X20086900Y-8965900D01*
X20086900Y-8965900D01*
X20189792Y-8965900D01*
X20189792Y-8785400D01*
X20549523Y-8785400D01*
X20536724Y-8788686D01*
X20517113Y-8798251D01*
X20499826Y-8811564D01*
X20485570Y-8828080D01*
X20474925Y-8847126D01*
X20468328Y-8867924D01*
X20466047Y-8889623D01*
X20468176Y-8911338D01*
X20474628Y-8932181D01*
X20485139Y-8951301D01*
X20499281Y-8967917D01*
X20516474Y-8981350D01*
X20536017Y-8991051D01*
X20557112Y-8996625D01*
X20578897Y-8997843D01*
X20600482Y-8994655D01*
X20620985Y-8987193D01*
X20639569Y-8975760D01*
X20655474Y-8960824D01*
X20668051Y-8942995D01*
X20676786Y-8923001D01*
X20678600Y-8914467D01*
X20678600Y-9119445D01*
X20677014Y-9111717D01*
X20668419Y-9091663D01*
X20655966Y-9073747D01*
X20640166Y-9058700D01*
X20621662Y-9047138D01*
X20601212Y-9039532D01*
X20579650Y-9036194D01*
X20557857Y-9037260D01*
X20536724Y-9042686D01*
X20517113Y-9052251D01*
X20499826Y-9065564D01*
X20485570Y-9082080D01*
X20474925Y-9101126D01*
X20468328Y-9121924D01*
X20466047Y-9143623D01*
X20468176Y-9165338D01*
X20474628Y-9186181D01*
X20485139Y-9205301D01*
X20499281Y-9221917D01*
X20516474Y-9235350D01*
X20536017Y-9245051D01*
X20557112Y-9250625D01*
X20578897Y-9251843D01*
X20600482Y-9248655D01*
X20620985Y-9241193D01*
X20639569Y-9229760D01*
X20655474Y-9214824D01*
X20668051Y-9196995D01*
X20676786Y-9177001D01*
X20678600Y-9168467D01*
X20678600Y-9373445D01*
X20677014Y-9365717D01*
X20668419Y-9345663D01*
X20655966Y-9327747D01*
X20640166Y-9312700D01*
X20621662Y-9301138D01*
X20601212Y-9293532D01*
X20579650Y-9290194D01*
X20557857Y-9291260D01*
X20536724Y-9296686D01*
X20517113Y-9306251D01*
X20499826Y-9319564D01*
X20485570Y-9336080D01*
X20474925Y-9355126D01*
X20468328Y-9375924D01*
X20466047Y-9397623D01*
X20468176Y-9419338D01*
X20474628Y-9440181D01*
X20485139Y-9459301D01*
X20499281Y-9475917D01*
X20516474Y-9489350D01*
X20536017Y-9499051D01*
X20557112Y-9504625D01*
X20578897Y-9505843D01*
X20600482Y-9502655D01*
X20620985Y-9495193D01*
X20639569Y-9483760D01*
X20655474Y-9468824D01*
X20668051Y-9450995D01*
X20676786Y-9431001D01*
X20678600Y-9422467D01*
X20678600Y-9627445D01*
X20677014Y-9619717D01*
X20668419Y-9599663D01*
X20655966Y-9581747D01*
X20640166Y-9566700D01*
X20621662Y-9555138D01*
X20601212Y-9547532D01*
X20579650Y-9544194D01*
X20557857Y-9545260D01*
X20536724Y-9550686D01*
X20517113Y-9560251D01*
X20499826Y-9573564D01*
X20485570Y-9590080D01*
X20474925Y-9609126D01*
X20468328Y-9629924D01*
X20466047Y-9651623D01*
X20468176Y-9673338D01*
X20474628Y-9694181D01*
X20474899Y-9694674D01*
X20419526Y-9750047D01*
X20413695Y-9755298D01*
X20412570Y-9758758D01*
X20408918Y-9764382D01*
X20406265Y-9781135D01*
X20407100Y-9784253D01*
X20407100Y-10671142D01*
X20397488Y-10686347D01*
X20393697Y-10705495D01*
X20397053Y-10724725D01*
X20407107Y-10741457D01*
X20422510Y-10753448D01*
X20441197Y-10759090D01*
X20460662Y-10757626D01*
X20478295Y-10749253D01*
X20490856Y-10736017D01*
X20499281Y-10745917D01*
X20516474Y-10759350D01*
X20536017Y-10769051D01*
X20557112Y-10774625D01*
X20578897Y-10775843D01*
X20600482Y-10772655D01*
X20620985Y-10765193D01*
X20639569Y-10753760D01*
X20655474Y-10738824D01*
X20668051Y-10720995D01*
X20676786Y-10701001D01*
X20678600Y-10692467D01*
X20678600Y-10897445D01*
X20677014Y-10889717D01*
X20668419Y-10869663D01*
X20655966Y-10851747D01*
X20640166Y-10836700D01*
X20621662Y-10825138D01*
X20601212Y-10817532D01*
X20579650Y-10814194D01*
X20557857Y-10815260D01*
X20536724Y-10820686D01*
X20517113Y-10830251D01*
X20499826Y-10843564D01*
X20485570Y-10860080D01*
X20474925Y-10879126D01*
X20468328Y-10899924D01*
X20466047Y-10921623D01*
X20468176Y-10943338D01*
X20474628Y-10964181D01*
X20485139Y-10983301D01*
X20499281Y-10999917D01*
X20516474Y-11013350D01*
X20536017Y-11023051D01*
X20557112Y-11028625D01*
X20578897Y-11029843D01*
X20600482Y-11026655D01*
X20620985Y-11019193D01*
X20639569Y-11007760D01*
X20655474Y-10992824D01*
X20668051Y-10974995D01*
X20676786Y-10955001D01*
X20678600Y-10946466D01*
X20678600Y-11151445D01*
X20677014Y-11143717D01*
X20668419Y-11123663D01*
X20655966Y-11105747D01*
X20640166Y-11090700D01*
X20621662Y-11079138D01*
X20601212Y-11071532D01*
X20579650Y-11068194D01*
X20557857Y-11069260D01*
X20536724Y-11074686D01*
X20517113Y-11084251D01*
X20499826Y-11097564D01*
X20485570Y-11114080D01*
X20474925Y-11133126D01*
X20468328Y-11153924D01*
X20466047Y-11175623D01*
X20468176Y-11197338D01*
X20474628Y-11218181D01*
X20485139Y-11237301D01*
X20499281Y-11253917D01*
X20516474Y-11267350D01*
X20536017Y-11277051D01*
X20557112Y-11282625D01*
X20578897Y-11283843D01*
X20600482Y-11280655D01*
X20620985Y-11273193D01*
X20639569Y-11261760D01*
X20655474Y-11246824D01*
X20668051Y-11228995D01*
X20676786Y-11209001D01*
X20678600Y-11200466D01*
X20678600Y-11405445D01*
X20677014Y-11397717D01*
X20668419Y-11377663D01*
X20655966Y-11359746D01*
X20640166Y-11344700D01*
X20621662Y-11333137D01*
X20601212Y-11325532D01*
X20581600Y-11322496D01*
X20581600Y-11537443D01*
X20600482Y-11534655D01*
X20620985Y-11527193D01*
X20639569Y-11515760D01*
X20655474Y-11500824D01*
X20668051Y-11482995D01*
X20676786Y-11463001D01*
X20678600Y-11454466D01*
X20678600Y-11659445D01*
X20677014Y-11651717D01*
X20668419Y-11631663D01*
X20655966Y-11613746D01*
X20640166Y-11598700D01*
X20621662Y-11587137D01*
X20601212Y-11579532D01*
X20579650Y-11576194D01*
X20557857Y-11577260D01*
X20536724Y-11582686D01*
X20517113Y-11592251D01*
X20499826Y-11605563D01*
X20485570Y-11622080D01*
X20474925Y-11641126D01*
X20468328Y-11661924D01*
X20466047Y-11683623D01*
X20468176Y-11705338D01*
X20474628Y-11726181D01*
X20485139Y-11745301D01*
X20499281Y-11761917D01*
X20516474Y-11775350D01*
X20536017Y-11785051D01*
X20549449Y-11788600D01*
X19142502Y-11788600D01*
X19149754Y-11783754D01*
X19155810Y-11774691D01*
X19157792Y-11764729D01*
X19157792Y-11603271D01*
X19155810Y-11593309D01*
X19149754Y-11584246D01*
X19140691Y-11578190D01*
X19130729Y-11576208D01*
X18969271Y-11576208D01*
X18959309Y-11578190D01*
X18950246Y-11584246D01*
X18945400Y-11591498D01*
X18945400Y-11455292D01*
X18950628Y-11472181D01*
X18961139Y-11491301D01*
X18975281Y-11507917D01*
X18992474Y-11521350D01*
X19012017Y-11531051D01*
X19033112Y-11536625D01*
X19054897Y-11537843D01*
X19076482Y-11534655D01*
X19096985Y-11527193D01*
X19115569Y-11515760D01*
X19131474Y-11500824D01*
X19144051Y-11482995D01*
X19152786Y-11463001D01*
X19157325Y-11441646D01*
X19157339Y-11437600D01*
X20466829Y-11437600D01*
X20468176Y-11451338D01*
X20474628Y-11472181D01*
X20485139Y-11491301D01*
X20499281Y-11507917D01*
X20516474Y-11521350D01*
X20536017Y-11531051D01*
X20557112Y-11536625D01*
X20566400Y-11537144D01*
X20566400Y-11437600D01*
X20466829Y-11437600D01*
X19157339Y-11437600D01*
X19157392Y-11422400D01*
X20466806Y-11422400D01*
X20566400Y-11422400D01*
X20566400Y-11322841D01*
X20557857Y-11323260D01*
X20536724Y-11328686D01*
X20517113Y-11338251D01*
X20499826Y-11351563D01*
X20485570Y-11368080D01*
X20474925Y-11387126D01*
X20468328Y-11407924D01*
X20466806Y-11422400D01*
X19157392Y-11422400D01*
X19157404Y-11419103D01*
X19153014Y-11397717D01*
X19144419Y-11377663D01*
X19131966Y-11359746D01*
X19116166Y-11344700D01*
X19097662Y-11333137D01*
X19077212Y-11325532D01*
X19055650Y-11322194D01*
X19033857Y-11323260D01*
X19012724Y-11328686D01*
X18993113Y-11338251D01*
X18975826Y-11351563D01*
X18961570Y-11368080D01*
X18950925Y-11387126D01*
X18945400Y-11404543D01*
X18945400Y-11201292D01*
X18950628Y-11218181D01*
X18961139Y-11237301D01*
X18975281Y-11253917D01*
X18992474Y-11267350D01*
X19012017Y-11277051D01*
X19033112Y-11282625D01*
X19042400Y-11283144D01*
X19042400Y-11183600D01*
X19057600Y-11183600D01*
X19057600Y-11283443D01*
X19076482Y-11280655D01*
X19096985Y-11273193D01*
X19115569Y-11261760D01*
X19131474Y-11246824D01*
X19144051Y-11228995D01*
X19152786Y-11209001D01*
X19158185Y-11183600D01*
X19057600Y-11183600D01*
X19042400Y-11183600D01*
X19042400Y-11168400D01*
X19057600Y-11168400D01*
X19158080Y-11168400D01*
X19153014Y-11143717D01*
X19144419Y-11123663D01*
X19131966Y-11105747D01*
X19116166Y-11090700D01*
X19097662Y-11079138D01*
X19077212Y-11071532D01*
X19057600Y-11068496D01*
X19057600Y-11168400D01*
X19042400Y-11168400D01*
X19042400Y-11068841D01*
X19033857Y-11069260D01*
X19012724Y-11074686D01*
X18993113Y-11084251D01*
X18975826Y-11097564D01*
X18961570Y-11114080D01*
X18950925Y-11133126D01*
X18945400Y-11150543D01*
X18945400Y-10947292D01*
X18950628Y-10964181D01*
X18961139Y-10983301D01*
X18975281Y-10999917D01*
X18992474Y-11013350D01*
X19012017Y-11023051D01*
X19033112Y-11028625D01*
X19042400Y-11029144D01*
X19042400Y-10929600D01*
X19057600Y-10929600D01*
X19057600Y-11029443D01*
X19076482Y-11026655D01*
X19096985Y-11019193D01*
X19115569Y-11007760D01*
X19131474Y-10992824D01*
X19144051Y-10974995D01*
X19152786Y-10955001D01*
X19158185Y-10929600D01*
X19057600Y-10929600D01*
X19042400Y-10929600D01*
X19042400Y-10914400D01*
X19057600Y-10914400D01*
X19158080Y-10914400D01*
X19153014Y-10889717D01*
X19144419Y-10869663D01*
X19131966Y-10851747D01*
X19116166Y-10836700D01*
X19097662Y-10825138D01*
X19077212Y-10817532D01*
X19057600Y-10814496D01*
X19057600Y-10914400D01*
X19042400Y-10914400D01*
X19042400Y-10814841D01*
X19033857Y-10815260D01*
X19012724Y-10820686D01*
X18993113Y-10830251D01*
X18975826Y-10843564D01*
X18961570Y-10860080D01*
X18950925Y-10879126D01*
X18945400Y-10896543D01*
X18945400Y-10693292D01*
X18950628Y-10710181D01*
X18961139Y-10729301D01*
X18975281Y-10745917D01*
X18992474Y-10759350D01*
X19012017Y-10769051D01*
X19033112Y-10774625D01*
X19054897Y-10775843D01*
X19076482Y-10772655D01*
X19096985Y-10765193D01*
X19115569Y-10753760D01*
X19131474Y-10738824D01*
X19144051Y-10720995D01*
X19152786Y-10701001D01*
X19157325Y-10679646D01*
X19157404Y-10657103D01*
X19153014Y-10635717D01*
X19144419Y-10615663D01*
X19131966Y-10597747D01*
X19116166Y-10582700D01*
X19097662Y-10571138D01*
X19077212Y-10563532D01*
X19055650Y-10560194D01*
X19033857Y-10561260D01*
X19012724Y-10566686D01*
X18993113Y-10576251D01*
X18975826Y-10589564D01*
X18961570Y-10606080D01*
X18950925Y-10625126D01*
X18945400Y-10642543D01*
X18945400Y-10439292D01*
X18950628Y-10456181D01*
X18961139Y-10475301D01*
X18975281Y-10491917D01*
X18992474Y-10505350D01*
X19012017Y-10515051D01*
X19033112Y-10520625D01*
X19054897Y-10521843D01*
X19076482Y-10518655D01*
X19096985Y-10511193D01*
X19115569Y-10499760D01*
X19131474Y-10484824D01*
X19144051Y-10466995D01*
X19152786Y-10447001D01*
X19157325Y-10425646D01*
X19157404Y-10403103D01*
X19153014Y-10381717D01*
X19144419Y-10361663D01*
X19131966Y-10343747D01*
X19116166Y-10328700D01*
X19097662Y-10317138D01*
X19077212Y-10309532D01*
X19055650Y-10306194D01*
X19033857Y-10307260D01*
X19012724Y-10312686D01*
X18993113Y-10322251D01*
X18975826Y-10335564D01*
X18961570Y-10352080D01*
X18950925Y-10371126D01*
X18945400Y-10388543D01*
X18945400Y-10185292D01*
X18950628Y-10202181D01*
X18961139Y-10221301D01*
X18975281Y-10237917D01*
X18992474Y-10251350D01*
X19012017Y-10261051D01*
X19033112Y-10266625D01*
X19054897Y-10267843D01*
X19076482Y-10264655D01*
X19096985Y-10257193D01*
X19115569Y-10245760D01*
X19131474Y-10230824D01*
X19144051Y-10212995D01*
X19152786Y-10193001D01*
X19157325Y-10171646D01*
X19157404Y-10149103D01*
X19153014Y-10127717D01*
X19144419Y-10107663D01*
X19131966Y-10089747D01*
X19116166Y-10074700D01*
X19097662Y-10063138D01*
X19077212Y-10055532D01*
X19055650Y-10052194D01*
X19033857Y-10053260D01*
X19012724Y-10058686D01*
X18993113Y-10068251D01*
X18975826Y-10081564D01*
X18961570Y-10098080D01*
X18950925Y-10117126D01*
X18945400Y-10134543D01*
X18945400Y-9931292D01*
X18950628Y-9948181D01*
X18961139Y-9967301D01*
X18975281Y-9983917D01*
X18992474Y-9997350D01*
X19012017Y-10007051D01*
X19033112Y-10012625D01*
X19054897Y-10013843D01*
X19076482Y-10010655D01*
X19096985Y-10003193D01*
X19115569Y-9991760D01*
X19131474Y-9976824D01*
X19144051Y-9958995D01*
X19152786Y-9939001D01*
X19157325Y-9917646D01*
X19157404Y-9895103D01*
X19153014Y-9873717D01*
X19144419Y-9853663D01*
X19131966Y-9835747D01*
X19116166Y-9820700D01*
X19097662Y-9809138D01*
X19077212Y-9801532D01*
X19055650Y-9798194D01*
X19033857Y-9799260D01*
X19012724Y-9804686D01*
X18993113Y-9814251D01*
X18975826Y-9827564D01*
X18961570Y-9844080D01*
X18950925Y-9863126D01*
X18945400Y-9880543D01*
X18945400Y-9677292D01*
X18950628Y-9694181D01*
X18961139Y-9713301D01*
X18975281Y-9729917D01*
X18992474Y-9743350D01*
X19012017Y-9753051D01*
X19033112Y-9758625D01*
X19054897Y-9759843D01*
X19076482Y-9756655D01*
X19096985Y-9749193D01*
X19115569Y-9737760D01*
X19131474Y-9722824D01*
X19144051Y-9704995D01*
X19152786Y-9685001D01*
X19157325Y-9663646D01*
X19157404Y-9641103D01*
X19153014Y-9619717D01*
X19144419Y-9599663D01*
X19131966Y-9581747D01*
X19116166Y-9566700D01*
X19097662Y-9555138D01*
X19077212Y-9547532D01*
X19055650Y-9544194D01*
X19033857Y-9545260D01*
X19012724Y-9550686D01*
X18993113Y-9560251D01*
X18975826Y-9573564D01*
X18961570Y-9590080D01*
X18950925Y-9609126D01*
X18945400Y-9626543D01*
X18945400Y-9423292D01*
X18950628Y-9440181D01*
X18961139Y-9459301D01*
X18975281Y-9475917D01*
X18992474Y-9489350D01*
X19012017Y-9499051D01*
X19033112Y-9504625D01*
X19054897Y-9505843D01*
X19076482Y-9502655D01*
X19092425Y-9496852D01*
X19200600Y-9605027D01*
X19200600Y-10755855D01*
X19200190Y-10763691D01*
X19201841Y-10766932D01*
X19203235Y-10773491D01*
X19213205Y-10787214D01*
X19216001Y-10788828D01*
X19528326Y-11101153D01*
X19530893Y-11115865D01*
X19540947Y-11132598D01*
X19556350Y-11144588D01*
X19575037Y-11150230D01*
X19594503Y-11148767D01*
X19612136Y-11140394D01*
X19625573Y-11126234D01*
X19633028Y-11108147D01*
X19633098Y-11101923D01*
X19636335Y-11102435D01*
X19639453Y-11101600D01*
X19727142Y-11101600D01*
X19736710Y-11109048D01*
X19755397Y-11114690D01*
X19774862Y-11113226D01*
X19792495Y-11104853D01*
X19805932Y-11090694D01*
X19813387Y-11072606D01*
X19813621Y-11051981D01*
X19806578Y-11033728D01*
X19793466Y-11019268D01*
X19776027Y-11010497D01*
X19756600Y-11008592D01*
X19737790Y-11013809D01*
X19727030Y-11021800D01*
X19650727Y-11021800D01*
X19615220Y-10986293D01*
X19616112Y-10986226D01*
X19633745Y-10977853D01*
X19647182Y-10963694D01*
X19654637Y-10945606D01*
X19654871Y-10924981D01*
X19647828Y-10906728D01*
X19634716Y-10892268D01*
X19617277Y-10883497D01*
X19606630Y-10882453D01*
X19407400Y-10683223D01*
X19407400Y-10644454D01*
X19411065Y-10646570D01*
X19431000Y-10650086D01*
X19450935Y-10646570D01*
X19468465Y-10636449D01*
X19481477Y-10620943D01*
X19488400Y-10601921D01*
X19488400Y-10601434D01*
X19638471Y-10451363D01*
X19647785Y-10449720D01*
X19665315Y-10439599D01*
X19678327Y-10424093D01*
X19685250Y-10405071D01*
X19685250Y-10384829D01*
X19678327Y-10365807D01*
X19665315Y-10350301D01*
X19647785Y-10340180D01*
X19627850Y-10336665D01*
X19607915Y-10340180D01*
X19590385Y-10350301D01*
X19577373Y-10365807D01*
X19570450Y-10384829D01*
X19570450Y-10385316D01*
X19420379Y-10535387D01*
X19411065Y-10537030D01*
X19407400Y-10539146D01*
X19407400Y-9584729D01*
X19548860Y-9584729D01*
X19548860Y-9604971D01*
X19555783Y-9623993D01*
X19558860Y-9627660D01*
X19558860Y-10066912D01*
X19557931Y-10071580D01*
X19561279Y-10088411D01*
X19561610Y-10090074D01*
X19572086Y-10105754D01*
X19576045Y-10108398D01*
X19698225Y-10230579D01*
X19705190Y-10242170D01*
X19719858Y-10253589D01*
X19737654Y-10258962D01*
X19756190Y-10257568D01*
X19759703Y-10255900D01*
X19904366Y-10255900D01*
X19906508Y-10258041D01*
X19957545Y-10309079D01*
X19964510Y-10320670D01*
X19979178Y-10332089D01*
X19981151Y-10332684D01*
X20162787Y-10514321D01*
X20162787Y-10514321D01*
X20209100Y-10560634D01*
X20209100Y-10952691D01*
X20206023Y-10956357D01*
X20199100Y-10975379D01*
X20199100Y-10995621D01*
X20206023Y-11014643D01*
X20219035Y-11030149D01*
X20236565Y-11040270D01*
X20256500Y-11043786D01*
X20276435Y-11040270D01*
X20293965Y-11030149D01*
X20306977Y-11014643D01*
X20313900Y-10995621D01*
X20313900Y-10975379D01*
X20306977Y-10956357D01*
X20303900Y-10952691D01*
X20303900Y-10545668D01*
X20304829Y-10541000D01*
X20301150Y-10522506D01*
X20295582Y-10514172D01*
X20290674Y-10506827D01*
X20286716Y-10504182D01*
X20229821Y-10447287D01*
X20229821Y-10447287D01*
X20047483Y-10264949D01*
X20045713Y-10260363D01*
X20033227Y-10246592D01*
X20024977Y-10242443D01*
X19973541Y-10191008D01*
X19960818Y-10178285D01*
X19958174Y-10174327D01*
X19942495Y-10163850D01*
X19929383Y-10161242D01*
X19924000Y-10160171D01*
X19919332Y-10161100D01*
X19762814Y-10161100D01*
X19653660Y-10051946D01*
X19653660Y-9627659D01*
X19656737Y-9623993D01*
X19663660Y-9604971D01*
X19663660Y-9584729D01*
X19656737Y-9565707D01*
X19643725Y-9550201D01*
X19626195Y-9540080D01*
X19606260Y-9536565D01*
X19586325Y-9540080D01*
X19568795Y-9550201D01*
X19555783Y-9565707D01*
X19548860Y-9584729D01*
X19407400Y-9584729D01*
X19407400Y-9462544D01*
X19407811Y-9454710D01*
X19406159Y-9451468D01*
X19404765Y-9444909D01*
X19394795Y-9431186D01*
X19392000Y-9429573D01*
X19148725Y-9186298D01*
X19149628Y-9184229D01*
X19434208Y-9184229D01*
X19436190Y-9194191D01*
X19442246Y-9203254D01*
X19451309Y-9209310D01*
X19461271Y-9211292D01*
X19521900Y-9211292D01*
X19537100Y-9211292D01*
X19597729Y-9211292D01*
X19607691Y-9209310D01*
X19616754Y-9203254D01*
X19622810Y-9194191D01*
X19624792Y-9184229D01*
X19999208Y-9184229D01*
X20001190Y-9194191D01*
X20007246Y-9203254D01*
X20016309Y-9209310D01*
X20026271Y-9211292D01*
X20086900Y-9211292D01*
X20102100Y-9211292D01*
X20162729Y-9211292D01*
X20172691Y-9209310D01*
X20181754Y-9203254D01*
X20187810Y-9194191D01*
X20189792Y-9184229D01*
X20189792Y-8981100D01*
X20102100Y-8981100D01*
X20102100Y-9211292D01*
X20086900Y-9211292D01*
X20086900Y-8981100D01*
X19999208Y-8981100D01*
X19999208Y-9184229D01*
X19624792Y-9184229D01*
X19624792Y-8981100D01*
X19537100Y-8981100D01*
X19537100Y-9211292D01*
X19521900Y-9211292D01*
X19521900Y-8981100D01*
X19434208Y-8981100D01*
X19434208Y-9184229D01*
X19149628Y-9184229D01*
X19152786Y-9177001D01*
X19157325Y-9155646D01*
X19157404Y-9133103D01*
X19153014Y-9111717D01*
X19144419Y-9091663D01*
X19131966Y-9073747D01*
X19116166Y-9058700D01*
X19097662Y-9047138D01*
X19077212Y-9039532D01*
X19055650Y-9036194D01*
X19033857Y-9037260D01*
X19012724Y-9042686D01*
X18993113Y-9052251D01*
X18975826Y-9065564D01*
X18961570Y-9082080D01*
X18950925Y-9101126D01*
X18945400Y-9118543D01*
X18945400Y-8915292D01*
X18950628Y-8932181D01*
X18961139Y-8951301D01*
X18975281Y-8967917D01*
X18992474Y-8981350D01*
X19012017Y-8991051D01*
X19033112Y-8996625D01*
X19054897Y-8997843D01*
X19076482Y-8994655D01*
X19096985Y-8987193D01*
X19115569Y-8975760D01*
X19131474Y-8960824D01*
X19144051Y-8942995D01*
X19152786Y-8923001D01*
X19157325Y-8901646D01*
X19157404Y-8879103D01*
X19153014Y-8857717D01*
X19144419Y-8837663D01*
X19131966Y-8819747D01*
X19116166Y-8804700D01*
X19097662Y-8793138D01*
X19077212Y-8785532D01*
X19076359Y-8785400D01*
X19434208Y-8785400D01*
X19434208Y-8965900D01*
G36*
X18950628Y-9186181D02*
G01*
X18961139Y-9205301D01*
X18975281Y-9221917D01*
X18992474Y-9235350D01*
X19012017Y-9245051D01*
X19033112Y-9250625D01*
X19054897Y-9251843D01*
X19076482Y-9248655D01*
X19092425Y-9242852D01*
X19327600Y-9478027D01*
X19327600Y-9770309D01*
X19318827Y-9765897D01*
X19299400Y-9763992D01*
X19280590Y-9769209D01*
X19280400Y-9769350D01*
X19280400Y-9589544D01*
X19280811Y-9581710D01*
X19279159Y-9578468D01*
X19277765Y-9571909D01*
X19267795Y-9558186D01*
X19265000Y-9556572D01*
X19148725Y-9440298D01*
X19152786Y-9431001D01*
X19157325Y-9409646D01*
X19157404Y-9387103D01*
X19153014Y-9365717D01*
X19144419Y-9345663D01*
X19131966Y-9327747D01*
X19116166Y-9312700D01*
X19097662Y-9301138D01*
X19077212Y-9293532D01*
X19055650Y-9290194D01*
X19033857Y-9291260D01*
X19012724Y-9296686D01*
X18993113Y-9306251D01*
X18975826Y-9319564D01*
X18961570Y-9336080D01*
X18950925Y-9355126D01*
X18945400Y-9372543D01*
X18945400Y-9169292D01*
X18950628Y-9186181D01*
G37*
X18950628Y-9186181D02*
X18961139Y-9205301D01*
X18975281Y-9221917D01*
X18992474Y-9235350D01*
X19012017Y-9245051D01*
X19033112Y-9250625D01*
X19054897Y-9251843D01*
X19076482Y-9248655D01*
X19092425Y-9242852D01*
X19327600Y-9478027D01*
X19327600Y-9770309D01*
X19318827Y-9765897D01*
X19299400Y-9763992D01*
X19280590Y-9769209D01*
X19280400Y-9769350D01*
X19280400Y-9589544D01*
X19280811Y-9581710D01*
X19279159Y-9578468D01*
X19277765Y-9571909D01*
X19267795Y-9558186D01*
X19265000Y-9556572D01*
X19148725Y-9440298D01*
X19152786Y-9431001D01*
X19157325Y-9409646D01*
X19157404Y-9387103D01*
X19153014Y-9365717D01*
X19144419Y-9345663D01*
X19131966Y-9327747D01*
X19116166Y-9312700D01*
X19097662Y-9301138D01*
X19077212Y-9293532D01*
X19055650Y-9290194D01*
X19033857Y-9291260D01*
X19012724Y-9296686D01*
X18993113Y-9306251D01*
X18975826Y-9319564D01*
X18961570Y-9336080D01*
X18950925Y-9355126D01*
X18945400Y-9372543D01*
X18945400Y-9169292D01*
X18950628Y-9186181D01*
M02*
