%TF.GenerationSoftware,KiCad,Pcbnew,5.1.5-52549c5~84~ubuntu19.04.1*%
%TF.CreationDate,2020-02-22T14:57:01+00:00*%
%TF.ProjectId,ProMicro_SX1276,50726f4d-6963-4726-9f5f-535831323736,v1.0*%
%TF.SameCoordinates,Original*%
%TF.FileFunction,Other,Fab,Bot*%
%FSLAX45Y45*%
G04 Gerber Fmt 4.5, Leading zero omitted, Abs format (unit mm)*
G04 Created by KiCad (PCBNEW 5.1.5-52549c5~84~ubuntu19.04.1) date 2020-02-22 14:57:01*
%MOMM*%
%LPD*%
G04 APERTURE LIST*
%ADD10C,0.100000*%
%ADD11C,0.150000*%
G04 APERTURE END LIST*
D10*
X18923000Y-8826500D02*
G75*
G02X18986500Y-8763000I63500J0D01*
G01*
X20637500Y-8763000D02*
G75*
G02X20701000Y-8826500I0J-63500D01*
G01*
X18986500Y-8763000D02*
X20637500Y-8763000D01*
X20701000Y-11747500D02*
G75*
G02X20637500Y-11811000I-63500J0D01*
G01*
X18986500Y-11811000D02*
G75*
G02X18923000Y-11747500I0J63500D01*
G01*
X18923000Y-11747500D02*
X18923000Y-8826500D01*
X20637500Y-11811000D02*
X18986500Y-11811000D01*
X20701000Y-8826500D02*
X20701000Y-11747500D01*
X20700000Y-11794000D02*
X20700000Y-8779000D01*
X18970000Y-11794000D02*
X20700000Y-11794000D01*
X18970000Y-11794000D02*
X18923000Y-11744000D01*
X18923000Y-8779000D02*
X18923000Y-11744000D01*
X20700000Y-8779000D02*
X18923000Y-8779000D01*
D11*
X20360476Y-9017905D02*
X20365238Y-9032190D01*
X20365238Y-9056000D01*
X20360476Y-9065524D01*
X20355714Y-9070286D01*
X20346190Y-9075048D01*
X20336667Y-9075048D01*
X20327143Y-9070286D01*
X20322381Y-9065524D01*
X20317619Y-9056000D01*
X20312857Y-9036952D01*
X20308095Y-9027429D01*
X20303333Y-9022667D01*
X20293810Y-9017905D01*
X20284286Y-9017905D01*
X20274762Y-9022667D01*
X20270000Y-9027429D01*
X20265238Y-9036952D01*
X20265238Y-9060762D01*
X20270000Y-9075048D01*
X20298571Y-9117905D02*
X20398571Y-9117905D01*
X20303333Y-9117905D02*
X20298571Y-9127429D01*
X20298571Y-9146476D01*
X20303333Y-9156000D01*
X20308095Y-9160762D01*
X20317619Y-9165524D01*
X20346190Y-9165524D01*
X20355714Y-9160762D01*
X20360476Y-9156000D01*
X20365238Y-9146476D01*
X20365238Y-9127429D01*
X20360476Y-9117905D01*
X20365238Y-9251238D02*
X20312857Y-9251238D01*
X20303333Y-9246476D01*
X20298571Y-9236952D01*
X20298571Y-9217905D01*
X20303333Y-9208381D01*
X20360476Y-9251238D02*
X20365238Y-9241714D01*
X20365238Y-9217905D01*
X20360476Y-9208381D01*
X20350952Y-9203619D01*
X20341429Y-9203619D01*
X20331905Y-9208381D01*
X20327143Y-9217905D01*
X20327143Y-9241714D01*
X20322381Y-9251238D01*
X20365238Y-9298857D02*
X20298571Y-9298857D01*
X20317619Y-9298857D02*
X20308095Y-9303619D01*
X20303333Y-9308381D01*
X20298571Y-9317905D01*
X20298571Y-9327429D01*
X20365238Y-9360762D02*
X20265238Y-9360762D01*
X20327143Y-9370286D02*
X20365238Y-9398857D01*
X20298571Y-9398857D02*
X20336667Y-9360762D01*
X20298571Y-9427429D02*
X20298571Y-9465524D01*
X20365238Y-9441714D02*
X20279524Y-9441714D01*
X20270000Y-9446476D01*
X20265238Y-9456000D01*
X20265238Y-9465524D01*
X20298571Y-9541714D02*
X20365238Y-9541714D01*
X20298571Y-9498857D02*
X20350952Y-9498857D01*
X20360476Y-9503619D01*
X20365238Y-9513143D01*
X20365238Y-9527429D01*
X20360476Y-9536952D01*
X20355714Y-9541714D01*
X20298571Y-9589333D02*
X20365238Y-9589333D01*
X20308095Y-9589333D02*
X20303333Y-9594095D01*
X20298571Y-9603619D01*
X20298571Y-9617905D01*
X20303333Y-9627429D01*
X20312857Y-9632190D01*
X20365238Y-9632190D01*
X20374762Y-9656000D02*
X20374762Y-9732190D01*
X20365238Y-9756000D02*
X20265238Y-9756000D01*
X20265238Y-9794095D01*
X20270000Y-9803619D01*
X20274762Y-9808381D01*
X20284286Y-9813143D01*
X20298571Y-9813143D01*
X20308095Y-9808381D01*
X20312857Y-9803619D01*
X20317619Y-9794095D01*
X20317619Y-9756000D01*
X20365238Y-9856000D02*
X20298571Y-9856000D01*
X20317619Y-9856000D02*
X20308095Y-9860762D01*
X20303333Y-9865524D01*
X20298571Y-9875048D01*
X20298571Y-9884571D01*
X20365238Y-9932190D02*
X20360476Y-9922667D01*
X20355714Y-9917905D01*
X20346190Y-9913143D01*
X20317619Y-9913143D01*
X20308095Y-9917905D01*
X20303333Y-9922667D01*
X20298571Y-9932190D01*
X20298571Y-9946476D01*
X20303333Y-9956000D01*
X20308095Y-9960762D01*
X20317619Y-9965524D01*
X20346190Y-9965524D01*
X20355714Y-9960762D01*
X20360476Y-9956000D01*
X20365238Y-9946476D01*
X20365238Y-9932190D01*
X20374762Y-9984571D02*
X20374762Y-10060762D01*
X20365238Y-10084571D02*
X20265238Y-10084571D01*
X20336667Y-10117905D01*
X20265238Y-10151238D01*
X20365238Y-10151238D01*
X20365238Y-10198857D02*
X20298571Y-10198857D01*
X20265238Y-10198857D02*
X20270000Y-10194095D01*
X20274762Y-10198857D01*
X20270000Y-10203619D01*
X20265238Y-10198857D01*
X20274762Y-10198857D01*
X20360476Y-10289333D02*
X20365238Y-10279810D01*
X20365238Y-10260762D01*
X20360476Y-10251238D01*
X20355714Y-10246476D01*
X20346190Y-10241714D01*
X20317619Y-10241714D01*
X20308095Y-10246476D01*
X20303333Y-10251238D01*
X20298571Y-10260762D01*
X20298571Y-10279810D01*
X20303333Y-10289333D01*
X20365238Y-10332190D02*
X20298571Y-10332190D01*
X20317619Y-10332190D02*
X20308095Y-10336952D01*
X20303333Y-10341714D01*
X20298571Y-10351238D01*
X20298571Y-10360762D01*
X20365238Y-10408381D02*
X20360476Y-10398857D01*
X20355714Y-10394095D01*
X20346190Y-10389333D01*
X20317619Y-10389333D01*
X20308095Y-10394095D01*
X20303333Y-10398857D01*
X20298571Y-10408381D01*
X20298571Y-10422667D01*
X20303333Y-10432190D01*
X20308095Y-10436952D01*
X20317619Y-10441714D01*
X20346190Y-10441714D01*
X20355714Y-10436952D01*
X20360476Y-10432190D01*
X20365238Y-10422667D01*
X20365238Y-10408381D01*
X20374762Y-10460762D02*
X20374762Y-10536952D01*
X20265238Y-10551238D02*
X20265238Y-10613143D01*
X20303333Y-10579810D01*
X20303333Y-10594095D01*
X20308095Y-10603619D01*
X20312857Y-10608381D01*
X20322381Y-10613143D01*
X20346190Y-10613143D01*
X20355714Y-10608381D01*
X20360476Y-10603619D01*
X20365238Y-10594095D01*
X20365238Y-10565524D01*
X20360476Y-10556000D01*
X20355714Y-10551238D01*
X20265238Y-10641714D02*
X20365238Y-10675048D01*
X20265238Y-10708381D01*
X20265238Y-10732190D02*
X20265238Y-10794095D01*
X20303333Y-10760762D01*
X20303333Y-10775048D01*
X20308095Y-10784571D01*
X20312857Y-10789333D01*
X20322381Y-10794095D01*
X20346190Y-10794095D01*
X20355714Y-10789333D01*
X20360476Y-10784571D01*
X20365238Y-10775048D01*
X20365238Y-10746476D01*
X20360476Y-10736952D01*
X20355714Y-10732190D01*
X19257167Y-11612571D02*
X19257167Y-11660190D01*
X19285738Y-11603048D02*
X19185738Y-11636381D01*
X19285738Y-11669714D01*
X19285738Y-11755428D02*
X19285738Y-11698286D01*
X19285738Y-11726857D02*
X19185738Y-11726857D01*
X19200024Y-11717333D01*
X19209548Y-11707809D01*
X19214310Y-11698286D01*
M02*
