%TF.GenerationSoftware,KiCad,Pcbnew,5.1.4-e60b266~84~ubuntu19.04.1*%
%TF.CreationDate,2020-03-15T10:47:17+00:00*%
%TF.ProjectId,ProMicro_UART,50726f4d-6963-4726-9f5f-554152542e6b,v1.2*%
%TF.SameCoordinates,Original*%
%TF.FileFunction,Plated,1,4,PTH,Drill*%
%TF.FilePolarity,Positive*%
%FSLAX46Y46*%
G04 Gerber Fmt 4.6, Leading zero omitted, Abs format (unit mm)*
G04 Created by KiCad (PCBNEW 5.1.4-e60b266~84~ubuntu19.04.1) date 2020-03-15 10:47:17*
%MOMM*%
%LPD*%
G04 APERTURE LIST*
%TA.AperFunction,ViaDrill*%
%ADD10C,0.200000*%
%TD*%
%TA.AperFunction,ComponentDrill*%
%ADD11C,1.000000*%
%TD*%
G04 APERTURE END LIST*
D10*
X100965000Y-85090000D03*
X102616000Y-82550000D03*
X102616000Y-85090000D03*
X102616000Y-90170000D03*
X104775000Y-92710000D03*
X105283000Y-90170000D03*
X105664000Y-80010000D03*
X105791000Y-77470000D03*
X106426000Y-76200000D03*
X106426000Y-95123000D03*
X106680000Y-85344000D03*
X106680000Y-97790000D03*
X107188000Y-104140000D03*
X107315000Y-82550000D03*
X107315000Y-83312000D03*
X107315000Y-87757000D03*
X107442000Y-84963000D03*
X107492175Y-90442487D03*
X107620000Y-95961000D03*
X107950000Y-100330000D03*
X108112545Y-94996000D03*
X108204000Y-83312000D03*
X108204000Y-86995000D03*
X108585000Y-76835000D03*
X109220000Y-100330000D03*
X109855000Y-75692000D03*
X109855000Y-76835000D03*
X109982000Y-86845000D03*
X110236000Y-87884000D03*
X110490000Y-82550000D03*
X110871000Y-90424000D03*
X111125000Y-87884000D03*
X111125000Y-95504000D03*
X111252000Y-104140000D03*
X111506000Y-83820000D03*
X111760000Y-84709000D03*
X112395000Y-93345000D03*
X112522000Y-89281000D03*
X112903000Y-81280000D03*
X113030000Y-95377000D03*
X113665000Y-88519000D03*
X113665000Y-99568000D03*
X114300000Y-78994000D03*
X114681000Y-83058000D03*
X114681000Y-84582000D03*
X114681000Y-89281008D03*
X114681000Y-90170000D03*
X114681000Y-100330000D03*
X114978552Y-87564188D03*
X116205000Y-90170000D03*
X116205000Y-102870000D03*
D11*
%TO.C,A1*%
X101600000Y-76200000D03*
X101600000Y-78740000D03*
X101600000Y-81280000D03*
X101600000Y-83820000D03*
X101600000Y-86360000D03*
X101600000Y-88900000D03*
X101600000Y-91440000D03*
X101600000Y-93980000D03*
X101600000Y-96520000D03*
X101600000Y-99060000D03*
X101600000Y-101600000D03*
X101600000Y-104140000D03*
X116840000Y-76200000D03*
X116840000Y-78740000D03*
X116840000Y-81280000D03*
X116840000Y-83820000D03*
X116840000Y-86360000D03*
X116840000Y-88900000D03*
X116840000Y-91440000D03*
X116840000Y-93980000D03*
X116840000Y-96520000D03*
X116840000Y-99060000D03*
X116840000Y-101600000D03*
X116840000Y-104140000D03*
%TO.C,J2*%
X102870000Y-73660000D03*
X105410000Y-73660000D03*
X107950000Y-73660000D03*
X110490000Y-73660000D03*
X113030000Y-73660000D03*
X115570000Y-73660000D03*
M02*
