%TF.GenerationSoftware,KiCad,Pcbnew,5.1.4-e60b266~84~ubuntu19.04.1*%
%TF.CreationDate,2020-03-15T10:47:17+00:00*%
%TF.ProjectId,ProMicro_UART,50726f4d-6963-4726-9f5f-554152542e6b,v1.2*%
%TF.SameCoordinates,Original*%
%TF.FileFunction,Soldermask,Bot*%
%TF.FilePolarity,Negative*%
%FSLAX45Y45*%
G04 Gerber Fmt 4.5, Leading zero omitted, Abs format (unit mm)*
G04 Created by KiCad (PCBNEW 5.1.4-e60b266~84~ubuntu19.04.1) date 2020-03-15 10:47:17*
%MOMM*%
%LPD*%
G04 APERTURE LIST*
%ADD10C,0.100000*%
%ADD11C,0.500000*%
%ADD12C,0.150000*%
%ADD13C,0.400000*%
%ADD14C,0.590000*%
%ADD15R,1.500000X1.000000*%
%ADD16C,0.875000*%
%ADD17R,0.650000X1.060000*%
%ADD18C,0.900000*%
%ADD19O,1.700000X1.700000*%
%ADD20R,1.700000X1.700000*%
%ADD21O,1.600000X1.600000*%
%ADD22R,1.600000X1.600000*%
G04 APERTURE END LIST*
D10*
X10096500Y-10541000D02*
G75*
G02X10033000Y-10477500I0J63500D01*
G01*
X11811000Y-10477500D02*
G75*
G02X11747500Y-10541000I-63500J0D01*
G01*
X11747500Y-7239000D02*
G75*
G02X11811000Y-7302500I0J-63500D01*
G01*
X10033000Y-7302500D02*
G75*
G02X10096500Y-7239000I63500J0D01*
G01*
X10033000Y-10477500D02*
X10033000Y-7302500D01*
X11747500Y-10541000D02*
X10096500Y-10541000D01*
X11811000Y-7302500D02*
X11811000Y-10477500D01*
X10096500Y-7239000D02*
X11747500Y-7239000D01*
D11*
X10349000Y-9906000D03*
D12*
G36*
X10349000Y-9980940D02*
G01*
X10346547Y-9980940D01*
X10341664Y-9980459D01*
X10336851Y-9979502D01*
X10332156Y-9978077D01*
X10327622Y-9976200D01*
X10323295Y-9973886D01*
X10319215Y-9971160D01*
X10315422Y-9968048D01*
X10311952Y-9964578D01*
X10308840Y-9960785D01*
X10306114Y-9956705D01*
X10303801Y-9952378D01*
X10301923Y-9947845D01*
X10300498Y-9943149D01*
X10299541Y-9938337D01*
X10299060Y-9933453D01*
X10299060Y-9931000D01*
X10299000Y-9931000D01*
X10299000Y-9881000D01*
X10299060Y-9881000D01*
X10299060Y-9878547D01*
X10299541Y-9873664D01*
X10300498Y-9868851D01*
X10301923Y-9864156D01*
X10303801Y-9859622D01*
X10306114Y-9855295D01*
X10308840Y-9851215D01*
X10311952Y-9847422D01*
X10315422Y-9843952D01*
X10319215Y-9840840D01*
X10323295Y-9838114D01*
X10327622Y-9835801D01*
X10332156Y-9833923D01*
X10336851Y-9832498D01*
X10341664Y-9831541D01*
X10346547Y-9831060D01*
X10349000Y-9831060D01*
X10349000Y-9831000D01*
X10399000Y-9831000D01*
X10399000Y-9981000D01*
X10349000Y-9981000D01*
X10349000Y-9980940D01*
X10349000Y-9980940D01*
G37*
D11*
X10479000Y-9906000D03*
D12*
G36*
X10429000Y-9831000D02*
G01*
X10479000Y-9831000D01*
X10479000Y-9831060D01*
X10481453Y-9831060D01*
X10486337Y-9831541D01*
X10491149Y-9832498D01*
X10495845Y-9833923D01*
X10500378Y-9835801D01*
X10504705Y-9838114D01*
X10508785Y-9840840D01*
X10512578Y-9843952D01*
X10516048Y-9847422D01*
X10519160Y-9851215D01*
X10521886Y-9855295D01*
X10524200Y-9859622D01*
X10526077Y-9864156D01*
X10527502Y-9868851D01*
X10528459Y-9873664D01*
X10528940Y-9878547D01*
X10528940Y-9881000D01*
X10529000Y-9881000D01*
X10529000Y-9931000D01*
X10528940Y-9931000D01*
X10528940Y-9933453D01*
X10528459Y-9938337D01*
X10527502Y-9943149D01*
X10526077Y-9947845D01*
X10524200Y-9952378D01*
X10521886Y-9956705D01*
X10519160Y-9960785D01*
X10516048Y-9964578D01*
X10512578Y-9968048D01*
X10508785Y-9971160D01*
X10504705Y-9973886D01*
X10500378Y-9976200D01*
X10495845Y-9978077D01*
X10491149Y-9979502D01*
X10486337Y-9980459D01*
X10481453Y-9980940D01*
X10479000Y-9980940D01*
X10479000Y-9981000D01*
X10429000Y-9981000D01*
X10429000Y-9831000D01*
X10429000Y-9831000D01*
G37*
G36*
X11030480Y-8470548D02*
G01*
X11031451Y-8470692D01*
X11032403Y-8470931D01*
X11033327Y-8471261D01*
X11034214Y-8471681D01*
X11035056Y-8472185D01*
X11035844Y-8472770D01*
X11036571Y-8473429D01*
X11037230Y-8474156D01*
X11037815Y-8474944D01*
X11038319Y-8475786D01*
X11038739Y-8476673D01*
X11039069Y-8477597D01*
X11039308Y-8478549D01*
X11039452Y-8479520D01*
X11039500Y-8480500D01*
X11039500Y-8623000D01*
X11039452Y-8623980D01*
X11039308Y-8624951D01*
X11039069Y-8625903D01*
X11038739Y-8626827D01*
X11038319Y-8627714D01*
X11037815Y-8628556D01*
X11037230Y-8629344D01*
X11036571Y-8630071D01*
X11035844Y-8630730D01*
X11035056Y-8631315D01*
X11034214Y-8631819D01*
X11033327Y-8632239D01*
X11032403Y-8632569D01*
X11031451Y-8632808D01*
X11030480Y-8632952D01*
X11029500Y-8633000D01*
X11009500Y-8633000D01*
X11008520Y-8632952D01*
X11007549Y-8632808D01*
X11006597Y-8632569D01*
X11005673Y-8632239D01*
X11004786Y-8631819D01*
X11003944Y-8631315D01*
X11003156Y-8630730D01*
X11002429Y-8630071D01*
X11001770Y-8629344D01*
X11001185Y-8628556D01*
X11000681Y-8627714D01*
X11000261Y-8626827D01*
X10999931Y-8625903D01*
X10999692Y-8624951D01*
X10999548Y-8623980D01*
X10999500Y-8623000D01*
X10999500Y-8480500D01*
X10999548Y-8479520D01*
X10999692Y-8478549D01*
X10999931Y-8477597D01*
X11000261Y-8476673D01*
X11000681Y-8475786D01*
X11001185Y-8474944D01*
X11001770Y-8474156D01*
X11002429Y-8473429D01*
X11003156Y-8472770D01*
X11003944Y-8472185D01*
X11004786Y-8471681D01*
X11005673Y-8471261D01*
X11006597Y-8470931D01*
X11007549Y-8470692D01*
X11008520Y-8470548D01*
X11009500Y-8470500D01*
X11029500Y-8470500D01*
X11030480Y-8470548D01*
X11030480Y-8470548D01*
G37*
D13*
X11019500Y-8551750D03*
D12*
G36*
X10965480Y-8470548D02*
G01*
X10966451Y-8470692D01*
X10967403Y-8470931D01*
X10968327Y-8471261D01*
X10969214Y-8471681D01*
X10970056Y-8472185D01*
X10970844Y-8472770D01*
X10971571Y-8473429D01*
X10972230Y-8474156D01*
X10972815Y-8474944D01*
X10973319Y-8475786D01*
X10973739Y-8476673D01*
X10974069Y-8477597D01*
X10974308Y-8478549D01*
X10974452Y-8479520D01*
X10974500Y-8480500D01*
X10974500Y-8623000D01*
X10974452Y-8623980D01*
X10974308Y-8624951D01*
X10974069Y-8625903D01*
X10973739Y-8626827D01*
X10973319Y-8627714D01*
X10972815Y-8628556D01*
X10972230Y-8629344D01*
X10971571Y-8630071D01*
X10970844Y-8630730D01*
X10970056Y-8631315D01*
X10969214Y-8631819D01*
X10968327Y-8632239D01*
X10967403Y-8632569D01*
X10966451Y-8632808D01*
X10965480Y-8632952D01*
X10964500Y-8633000D01*
X10944500Y-8633000D01*
X10943520Y-8632952D01*
X10942549Y-8632808D01*
X10941597Y-8632569D01*
X10940673Y-8632239D01*
X10939786Y-8631819D01*
X10938944Y-8631315D01*
X10938156Y-8630730D01*
X10937429Y-8630071D01*
X10936770Y-8629344D01*
X10936185Y-8628556D01*
X10935681Y-8627714D01*
X10935261Y-8626827D01*
X10934931Y-8625903D01*
X10934692Y-8624951D01*
X10934548Y-8623980D01*
X10934500Y-8623000D01*
X10934500Y-8480500D01*
X10934548Y-8479520D01*
X10934692Y-8478549D01*
X10934931Y-8477597D01*
X10935261Y-8476673D01*
X10935681Y-8475786D01*
X10936185Y-8474944D01*
X10936770Y-8474156D01*
X10937429Y-8473429D01*
X10938156Y-8472770D01*
X10938944Y-8472185D01*
X10939786Y-8471681D01*
X10940673Y-8471261D01*
X10941597Y-8470931D01*
X10942549Y-8470692D01*
X10943520Y-8470548D01*
X10944500Y-8470500D01*
X10964500Y-8470500D01*
X10965480Y-8470548D01*
X10965480Y-8470548D01*
G37*
D13*
X10954500Y-8551750D03*
D12*
G36*
X10900480Y-8470548D02*
G01*
X10901451Y-8470692D01*
X10902403Y-8470931D01*
X10903327Y-8471261D01*
X10904214Y-8471681D01*
X10905056Y-8472185D01*
X10905844Y-8472770D01*
X10906571Y-8473429D01*
X10907230Y-8474156D01*
X10907815Y-8474944D01*
X10908319Y-8475786D01*
X10908739Y-8476673D01*
X10909069Y-8477597D01*
X10909308Y-8478549D01*
X10909452Y-8479520D01*
X10909500Y-8480500D01*
X10909500Y-8623000D01*
X10909452Y-8623980D01*
X10909308Y-8624951D01*
X10909069Y-8625903D01*
X10908739Y-8626827D01*
X10908319Y-8627714D01*
X10907815Y-8628556D01*
X10907230Y-8629344D01*
X10906571Y-8630071D01*
X10905844Y-8630730D01*
X10905056Y-8631315D01*
X10904214Y-8631819D01*
X10903327Y-8632239D01*
X10902403Y-8632569D01*
X10901451Y-8632808D01*
X10900480Y-8632952D01*
X10899500Y-8633000D01*
X10879500Y-8633000D01*
X10878520Y-8632952D01*
X10877549Y-8632808D01*
X10876597Y-8632569D01*
X10875673Y-8632239D01*
X10874786Y-8631819D01*
X10873944Y-8631315D01*
X10873156Y-8630730D01*
X10872429Y-8630071D01*
X10871770Y-8629344D01*
X10871185Y-8628556D01*
X10870681Y-8627714D01*
X10870261Y-8626827D01*
X10869931Y-8625903D01*
X10869692Y-8624951D01*
X10869548Y-8623980D01*
X10869500Y-8623000D01*
X10869500Y-8480500D01*
X10869548Y-8479520D01*
X10869692Y-8478549D01*
X10869931Y-8477597D01*
X10870261Y-8476673D01*
X10870681Y-8475786D01*
X10871185Y-8474944D01*
X10871770Y-8474156D01*
X10872429Y-8473429D01*
X10873156Y-8472770D01*
X10873944Y-8472185D01*
X10874786Y-8471681D01*
X10875673Y-8471261D01*
X10876597Y-8470931D01*
X10877549Y-8470692D01*
X10878520Y-8470548D01*
X10879500Y-8470500D01*
X10899500Y-8470500D01*
X10900480Y-8470548D01*
X10900480Y-8470548D01*
G37*
D13*
X10889500Y-8551750D03*
D12*
G36*
X10835480Y-8470548D02*
G01*
X10836451Y-8470692D01*
X10837403Y-8470931D01*
X10838327Y-8471261D01*
X10839214Y-8471681D01*
X10840056Y-8472185D01*
X10840844Y-8472770D01*
X10841571Y-8473429D01*
X10842230Y-8474156D01*
X10842815Y-8474944D01*
X10843319Y-8475786D01*
X10843739Y-8476673D01*
X10844069Y-8477597D01*
X10844308Y-8478549D01*
X10844452Y-8479520D01*
X10844500Y-8480500D01*
X10844500Y-8623000D01*
X10844452Y-8623980D01*
X10844308Y-8624951D01*
X10844069Y-8625903D01*
X10843739Y-8626827D01*
X10843319Y-8627714D01*
X10842815Y-8628556D01*
X10842230Y-8629344D01*
X10841571Y-8630071D01*
X10840844Y-8630730D01*
X10840056Y-8631315D01*
X10839214Y-8631819D01*
X10838327Y-8632239D01*
X10837403Y-8632569D01*
X10836451Y-8632808D01*
X10835480Y-8632952D01*
X10834500Y-8633000D01*
X10814500Y-8633000D01*
X10813520Y-8632952D01*
X10812549Y-8632808D01*
X10811597Y-8632569D01*
X10810673Y-8632239D01*
X10809786Y-8631819D01*
X10808944Y-8631315D01*
X10808156Y-8630730D01*
X10807429Y-8630071D01*
X10806770Y-8629344D01*
X10806185Y-8628556D01*
X10805681Y-8627714D01*
X10805261Y-8626827D01*
X10804931Y-8625903D01*
X10804692Y-8624951D01*
X10804548Y-8623980D01*
X10804500Y-8623000D01*
X10804500Y-8480500D01*
X10804548Y-8479520D01*
X10804692Y-8478549D01*
X10804931Y-8477597D01*
X10805261Y-8476673D01*
X10805681Y-8475786D01*
X10806185Y-8474944D01*
X10806770Y-8474156D01*
X10807429Y-8473429D01*
X10808156Y-8472770D01*
X10808944Y-8472185D01*
X10809786Y-8471681D01*
X10810673Y-8471261D01*
X10811597Y-8470931D01*
X10812549Y-8470692D01*
X10813520Y-8470548D01*
X10814500Y-8470500D01*
X10834500Y-8470500D01*
X10835480Y-8470548D01*
X10835480Y-8470548D01*
G37*
D13*
X10824500Y-8551750D03*
D12*
G36*
X10835480Y-8893048D02*
G01*
X10836451Y-8893192D01*
X10837403Y-8893431D01*
X10838327Y-8893761D01*
X10839214Y-8894181D01*
X10840056Y-8894685D01*
X10840844Y-8895270D01*
X10841571Y-8895929D01*
X10842230Y-8896656D01*
X10842815Y-8897444D01*
X10843319Y-8898286D01*
X10843739Y-8899173D01*
X10844069Y-8900097D01*
X10844308Y-8901049D01*
X10844452Y-8902020D01*
X10844500Y-8903000D01*
X10844500Y-9045500D01*
X10844452Y-9046480D01*
X10844308Y-9047451D01*
X10844069Y-9048403D01*
X10843739Y-9049327D01*
X10843319Y-9050214D01*
X10842815Y-9051056D01*
X10842230Y-9051844D01*
X10841571Y-9052571D01*
X10840844Y-9053230D01*
X10840056Y-9053815D01*
X10839214Y-9054319D01*
X10838327Y-9054739D01*
X10837403Y-9055069D01*
X10836451Y-9055308D01*
X10835480Y-9055452D01*
X10834500Y-9055500D01*
X10814500Y-9055500D01*
X10813520Y-9055452D01*
X10812549Y-9055308D01*
X10811597Y-9055069D01*
X10810673Y-9054739D01*
X10809786Y-9054319D01*
X10808944Y-9053815D01*
X10808156Y-9053230D01*
X10807429Y-9052571D01*
X10806770Y-9051844D01*
X10806185Y-9051056D01*
X10805681Y-9050214D01*
X10805261Y-9049327D01*
X10804931Y-9048403D01*
X10804692Y-9047451D01*
X10804548Y-9046480D01*
X10804500Y-9045500D01*
X10804500Y-8903000D01*
X10804548Y-8902020D01*
X10804692Y-8901049D01*
X10804931Y-8900097D01*
X10805261Y-8899173D01*
X10805681Y-8898286D01*
X10806185Y-8897444D01*
X10806770Y-8896656D01*
X10807429Y-8895929D01*
X10808156Y-8895270D01*
X10808944Y-8894685D01*
X10809786Y-8894181D01*
X10810673Y-8893761D01*
X10811597Y-8893431D01*
X10812549Y-8893192D01*
X10813520Y-8893048D01*
X10814500Y-8893000D01*
X10834500Y-8893000D01*
X10835480Y-8893048D01*
X10835480Y-8893048D01*
G37*
D13*
X10824500Y-8974250D03*
D12*
G36*
X10900480Y-8893048D02*
G01*
X10901451Y-8893192D01*
X10902403Y-8893431D01*
X10903327Y-8893761D01*
X10904214Y-8894181D01*
X10905056Y-8894685D01*
X10905844Y-8895270D01*
X10906571Y-8895929D01*
X10907230Y-8896656D01*
X10907815Y-8897444D01*
X10908319Y-8898286D01*
X10908739Y-8899173D01*
X10909069Y-8900097D01*
X10909308Y-8901049D01*
X10909452Y-8902020D01*
X10909500Y-8903000D01*
X10909500Y-9045500D01*
X10909452Y-9046480D01*
X10909308Y-9047451D01*
X10909069Y-9048403D01*
X10908739Y-9049327D01*
X10908319Y-9050214D01*
X10907815Y-9051056D01*
X10907230Y-9051844D01*
X10906571Y-9052571D01*
X10905844Y-9053230D01*
X10905056Y-9053815D01*
X10904214Y-9054319D01*
X10903327Y-9054739D01*
X10902403Y-9055069D01*
X10901451Y-9055308D01*
X10900480Y-9055452D01*
X10899500Y-9055500D01*
X10879500Y-9055500D01*
X10878520Y-9055452D01*
X10877549Y-9055308D01*
X10876597Y-9055069D01*
X10875673Y-9054739D01*
X10874786Y-9054319D01*
X10873944Y-9053815D01*
X10873156Y-9053230D01*
X10872429Y-9052571D01*
X10871770Y-9051844D01*
X10871185Y-9051056D01*
X10870681Y-9050214D01*
X10870261Y-9049327D01*
X10869931Y-9048403D01*
X10869692Y-9047451D01*
X10869548Y-9046480D01*
X10869500Y-9045500D01*
X10869500Y-8903000D01*
X10869548Y-8902020D01*
X10869692Y-8901049D01*
X10869931Y-8900097D01*
X10870261Y-8899173D01*
X10870681Y-8898286D01*
X10871185Y-8897444D01*
X10871770Y-8896656D01*
X10872429Y-8895929D01*
X10873156Y-8895270D01*
X10873944Y-8894685D01*
X10874786Y-8894181D01*
X10875673Y-8893761D01*
X10876597Y-8893431D01*
X10877549Y-8893192D01*
X10878520Y-8893048D01*
X10879500Y-8893000D01*
X10899500Y-8893000D01*
X10900480Y-8893048D01*
X10900480Y-8893048D01*
G37*
D13*
X10889500Y-8974250D03*
D12*
G36*
X10965480Y-8893048D02*
G01*
X10966451Y-8893192D01*
X10967403Y-8893431D01*
X10968327Y-8893761D01*
X10969214Y-8894181D01*
X10970056Y-8894685D01*
X10970844Y-8895270D01*
X10971571Y-8895929D01*
X10972230Y-8896656D01*
X10972815Y-8897444D01*
X10973319Y-8898286D01*
X10973739Y-8899173D01*
X10974069Y-8900097D01*
X10974308Y-8901049D01*
X10974452Y-8902020D01*
X10974500Y-8903000D01*
X10974500Y-9045500D01*
X10974452Y-9046480D01*
X10974308Y-9047451D01*
X10974069Y-9048403D01*
X10973739Y-9049327D01*
X10973319Y-9050214D01*
X10972815Y-9051056D01*
X10972230Y-9051844D01*
X10971571Y-9052571D01*
X10970844Y-9053230D01*
X10970056Y-9053815D01*
X10969214Y-9054319D01*
X10968327Y-9054739D01*
X10967403Y-9055069D01*
X10966451Y-9055308D01*
X10965480Y-9055452D01*
X10964500Y-9055500D01*
X10944500Y-9055500D01*
X10943520Y-9055452D01*
X10942549Y-9055308D01*
X10941597Y-9055069D01*
X10940673Y-9054739D01*
X10939786Y-9054319D01*
X10938944Y-9053815D01*
X10938156Y-9053230D01*
X10937429Y-9052571D01*
X10936770Y-9051844D01*
X10936185Y-9051056D01*
X10935681Y-9050214D01*
X10935261Y-9049327D01*
X10934931Y-9048403D01*
X10934692Y-9047451D01*
X10934548Y-9046480D01*
X10934500Y-9045500D01*
X10934500Y-8903000D01*
X10934548Y-8902020D01*
X10934692Y-8901049D01*
X10934931Y-8900097D01*
X10935261Y-8899173D01*
X10935681Y-8898286D01*
X10936185Y-8897444D01*
X10936770Y-8896656D01*
X10937429Y-8895929D01*
X10938156Y-8895270D01*
X10938944Y-8894685D01*
X10939786Y-8894181D01*
X10940673Y-8893761D01*
X10941597Y-8893431D01*
X10942549Y-8893192D01*
X10943520Y-8893048D01*
X10944500Y-8893000D01*
X10964500Y-8893000D01*
X10965480Y-8893048D01*
X10965480Y-8893048D01*
G37*
D13*
X10954500Y-8974250D03*
D12*
G36*
X11030480Y-8893048D02*
G01*
X11031451Y-8893192D01*
X11032403Y-8893431D01*
X11033327Y-8893761D01*
X11034214Y-8894181D01*
X11035056Y-8894685D01*
X11035844Y-8895270D01*
X11036571Y-8895929D01*
X11037230Y-8896656D01*
X11037815Y-8897444D01*
X11038319Y-8898286D01*
X11038739Y-8899173D01*
X11039069Y-8900097D01*
X11039308Y-8901049D01*
X11039452Y-8902020D01*
X11039500Y-8903000D01*
X11039500Y-9045500D01*
X11039452Y-9046480D01*
X11039308Y-9047451D01*
X11039069Y-9048403D01*
X11038739Y-9049327D01*
X11038319Y-9050214D01*
X11037815Y-9051056D01*
X11037230Y-9051844D01*
X11036571Y-9052571D01*
X11035844Y-9053230D01*
X11035056Y-9053815D01*
X11034214Y-9054319D01*
X11033327Y-9054739D01*
X11032403Y-9055069D01*
X11031451Y-9055308D01*
X11030480Y-9055452D01*
X11029500Y-9055500D01*
X11009500Y-9055500D01*
X11008520Y-9055452D01*
X11007549Y-9055308D01*
X11006597Y-9055069D01*
X11005673Y-9054739D01*
X11004786Y-9054319D01*
X11003944Y-9053815D01*
X11003156Y-9053230D01*
X11002429Y-9052571D01*
X11001770Y-9051844D01*
X11001185Y-9051056D01*
X11000681Y-9050214D01*
X11000261Y-9049327D01*
X10999931Y-9048403D01*
X10999692Y-9047451D01*
X10999548Y-9046480D01*
X10999500Y-9045500D01*
X10999500Y-8903000D01*
X10999548Y-8902020D01*
X10999692Y-8901049D01*
X10999931Y-8900097D01*
X11000261Y-8899173D01*
X11000681Y-8898286D01*
X11001185Y-8897444D01*
X11001770Y-8896656D01*
X11002429Y-8895929D01*
X11003156Y-8895270D01*
X11003944Y-8894685D01*
X11004786Y-8894181D01*
X11005673Y-8893761D01*
X11006597Y-8893431D01*
X11007549Y-8893192D01*
X11008520Y-8893048D01*
X11009500Y-8893000D01*
X11029500Y-8893000D01*
X11030480Y-8893048D01*
X11030480Y-8893048D01*
G37*
D13*
X11019500Y-8974250D03*
D12*
G36*
X10686696Y-8655071D02*
G01*
X10688128Y-8655283D01*
X10689532Y-8655635D01*
X10690895Y-8656123D01*
X10692203Y-8656742D01*
X10693445Y-8657486D01*
X10694607Y-8658348D01*
X10695680Y-8659320D01*
X10696652Y-8660393D01*
X10697514Y-8661555D01*
X10698258Y-8662797D01*
X10698877Y-8664105D01*
X10699365Y-8665468D01*
X10699717Y-8666872D01*
X10699929Y-8668304D01*
X10700000Y-8669750D01*
X10700000Y-8699250D01*
X10699929Y-8700696D01*
X10699717Y-8702128D01*
X10699365Y-8703532D01*
X10698877Y-8704895D01*
X10698258Y-8706203D01*
X10697514Y-8707445D01*
X10696652Y-8708607D01*
X10695680Y-8709680D01*
X10694607Y-8710652D01*
X10693445Y-8711514D01*
X10692203Y-8712258D01*
X10690895Y-8712877D01*
X10689532Y-8713365D01*
X10688128Y-8713717D01*
X10686696Y-8713929D01*
X10685250Y-8714000D01*
X10650750Y-8714000D01*
X10649304Y-8713929D01*
X10647872Y-8713717D01*
X10646468Y-8713365D01*
X10645105Y-8712877D01*
X10643797Y-8712258D01*
X10642555Y-8711514D01*
X10641393Y-8710652D01*
X10640320Y-8709680D01*
X10639348Y-8708607D01*
X10638486Y-8707445D01*
X10637742Y-8706203D01*
X10637123Y-8704895D01*
X10636635Y-8703532D01*
X10636283Y-8702128D01*
X10636071Y-8700696D01*
X10636000Y-8699250D01*
X10636000Y-8669750D01*
X10636071Y-8668304D01*
X10636283Y-8666872D01*
X10636635Y-8665468D01*
X10637123Y-8664105D01*
X10637742Y-8662797D01*
X10638486Y-8661555D01*
X10639348Y-8660393D01*
X10640320Y-8659320D01*
X10641393Y-8658348D01*
X10642555Y-8657486D01*
X10643797Y-8656742D01*
X10645105Y-8656123D01*
X10646468Y-8655635D01*
X10647872Y-8655283D01*
X10649304Y-8655071D01*
X10650750Y-8655000D01*
X10685250Y-8655000D01*
X10686696Y-8655071D01*
X10686696Y-8655071D01*
G37*
D14*
X10668000Y-8684500D03*
D12*
G36*
X10686696Y-8558071D02*
G01*
X10688128Y-8558283D01*
X10689532Y-8558635D01*
X10690895Y-8559123D01*
X10692203Y-8559742D01*
X10693445Y-8560486D01*
X10694607Y-8561348D01*
X10695680Y-8562320D01*
X10696652Y-8563393D01*
X10697514Y-8564555D01*
X10698258Y-8565797D01*
X10698877Y-8567105D01*
X10699365Y-8568468D01*
X10699717Y-8569872D01*
X10699929Y-8571304D01*
X10700000Y-8572750D01*
X10700000Y-8602250D01*
X10699929Y-8603696D01*
X10699717Y-8605128D01*
X10699365Y-8606532D01*
X10698877Y-8607895D01*
X10698258Y-8609203D01*
X10697514Y-8610445D01*
X10696652Y-8611607D01*
X10695680Y-8612680D01*
X10694607Y-8613652D01*
X10693445Y-8614514D01*
X10692203Y-8615258D01*
X10690895Y-8615877D01*
X10689532Y-8616365D01*
X10688128Y-8616717D01*
X10686696Y-8616929D01*
X10685250Y-8617000D01*
X10650750Y-8617000D01*
X10649304Y-8616929D01*
X10647872Y-8616717D01*
X10646468Y-8616365D01*
X10645105Y-8615877D01*
X10643797Y-8615258D01*
X10642555Y-8614514D01*
X10641393Y-8613652D01*
X10640320Y-8612680D01*
X10639348Y-8611607D01*
X10638486Y-8610445D01*
X10637742Y-8609203D01*
X10637123Y-8607895D01*
X10636635Y-8606532D01*
X10636283Y-8605128D01*
X10636071Y-8603696D01*
X10636000Y-8602250D01*
X10636000Y-8572750D01*
X10636071Y-8571304D01*
X10636283Y-8569872D01*
X10636635Y-8568468D01*
X10637123Y-8567105D01*
X10637742Y-8565797D01*
X10638486Y-8564555D01*
X10639348Y-8563393D01*
X10640320Y-8562320D01*
X10641393Y-8561348D01*
X10642555Y-8560486D01*
X10643797Y-8559742D01*
X10645105Y-8559123D01*
X10646468Y-8558635D01*
X10647872Y-8558283D01*
X10649304Y-8558071D01*
X10650750Y-8558000D01*
X10685250Y-8558000D01*
X10686696Y-8558071D01*
X10686696Y-8558071D01*
G37*
D14*
X10668000Y-8587500D03*
D12*
G36*
X10686696Y-8909071D02*
G01*
X10688128Y-8909283D01*
X10689532Y-8909635D01*
X10690895Y-8910123D01*
X10692203Y-8910742D01*
X10693445Y-8911486D01*
X10694607Y-8912348D01*
X10695680Y-8913320D01*
X10696652Y-8914393D01*
X10697514Y-8915555D01*
X10698258Y-8916797D01*
X10698877Y-8918105D01*
X10699365Y-8919468D01*
X10699717Y-8920872D01*
X10699929Y-8922304D01*
X10700000Y-8923750D01*
X10700000Y-8953250D01*
X10699929Y-8954696D01*
X10699717Y-8956128D01*
X10699365Y-8957532D01*
X10698877Y-8958895D01*
X10698258Y-8960203D01*
X10697514Y-8961445D01*
X10696652Y-8962607D01*
X10695680Y-8963680D01*
X10694607Y-8964652D01*
X10693445Y-8965514D01*
X10692203Y-8966258D01*
X10690895Y-8966877D01*
X10689532Y-8967365D01*
X10688128Y-8967717D01*
X10686696Y-8967929D01*
X10685250Y-8968000D01*
X10650750Y-8968000D01*
X10649304Y-8967929D01*
X10647872Y-8967717D01*
X10646468Y-8967365D01*
X10645105Y-8966877D01*
X10643797Y-8966258D01*
X10642555Y-8965514D01*
X10641393Y-8964652D01*
X10640320Y-8963680D01*
X10639348Y-8962607D01*
X10638486Y-8961445D01*
X10637742Y-8960203D01*
X10637123Y-8958895D01*
X10636635Y-8957532D01*
X10636283Y-8956128D01*
X10636071Y-8954696D01*
X10636000Y-8953250D01*
X10636000Y-8923750D01*
X10636071Y-8922304D01*
X10636283Y-8920872D01*
X10636635Y-8919468D01*
X10637123Y-8918105D01*
X10637742Y-8916797D01*
X10638486Y-8915555D01*
X10639348Y-8914393D01*
X10640320Y-8913320D01*
X10641393Y-8912348D01*
X10642555Y-8911486D01*
X10643797Y-8910742D01*
X10645105Y-8910123D01*
X10646468Y-8909635D01*
X10647872Y-8909283D01*
X10649304Y-8909071D01*
X10650750Y-8909000D01*
X10685250Y-8909000D01*
X10686696Y-8909071D01*
X10686696Y-8909071D01*
G37*
D14*
X10668000Y-8938500D03*
D12*
G36*
X10686696Y-8812071D02*
G01*
X10688128Y-8812283D01*
X10689532Y-8812635D01*
X10690895Y-8813123D01*
X10692203Y-8813742D01*
X10693445Y-8814486D01*
X10694607Y-8815348D01*
X10695680Y-8816320D01*
X10696652Y-8817393D01*
X10697514Y-8818555D01*
X10698258Y-8819797D01*
X10698877Y-8821105D01*
X10699365Y-8822468D01*
X10699717Y-8823872D01*
X10699929Y-8825304D01*
X10700000Y-8826750D01*
X10700000Y-8856250D01*
X10699929Y-8857696D01*
X10699717Y-8859128D01*
X10699365Y-8860532D01*
X10698877Y-8861895D01*
X10698258Y-8863203D01*
X10697514Y-8864445D01*
X10696652Y-8865607D01*
X10695680Y-8866680D01*
X10694607Y-8867652D01*
X10693445Y-8868514D01*
X10692203Y-8869258D01*
X10690895Y-8869877D01*
X10689532Y-8870365D01*
X10688128Y-8870717D01*
X10686696Y-8870929D01*
X10685250Y-8871000D01*
X10650750Y-8871000D01*
X10649304Y-8870929D01*
X10647872Y-8870717D01*
X10646468Y-8870365D01*
X10645105Y-8869877D01*
X10643797Y-8869258D01*
X10642555Y-8868514D01*
X10641393Y-8867652D01*
X10640320Y-8866680D01*
X10639348Y-8865607D01*
X10638486Y-8864445D01*
X10637742Y-8863203D01*
X10637123Y-8861895D01*
X10636635Y-8860532D01*
X10636283Y-8859128D01*
X10636071Y-8857696D01*
X10636000Y-8856250D01*
X10636000Y-8826750D01*
X10636071Y-8825304D01*
X10636283Y-8823872D01*
X10636635Y-8822468D01*
X10637123Y-8821105D01*
X10637742Y-8819797D01*
X10638486Y-8818555D01*
X10639348Y-8817393D01*
X10640320Y-8816320D01*
X10641393Y-8815348D01*
X10642555Y-8814486D01*
X10643797Y-8813742D01*
X10645105Y-8813123D01*
X10646468Y-8812635D01*
X10647872Y-8812283D01*
X10649304Y-8812071D01*
X10650750Y-8812000D01*
X10685250Y-8812000D01*
X10686696Y-8812071D01*
X10686696Y-8812071D01*
G37*
D14*
X10668000Y-8841500D03*
D12*
G36*
X11194696Y-8558071D02*
G01*
X11196128Y-8558283D01*
X11197532Y-8558635D01*
X11198895Y-8559123D01*
X11200203Y-8559742D01*
X11201445Y-8560486D01*
X11202607Y-8561348D01*
X11203680Y-8562320D01*
X11204652Y-8563393D01*
X11205514Y-8564555D01*
X11206258Y-8565797D01*
X11206877Y-8567105D01*
X11207365Y-8568468D01*
X11207717Y-8569872D01*
X11207929Y-8571304D01*
X11208000Y-8572750D01*
X11208000Y-8602250D01*
X11207929Y-8603696D01*
X11207717Y-8605128D01*
X11207365Y-8606532D01*
X11206877Y-8607895D01*
X11206258Y-8609203D01*
X11205514Y-8610445D01*
X11204652Y-8611607D01*
X11203680Y-8612680D01*
X11202607Y-8613652D01*
X11201445Y-8614514D01*
X11200203Y-8615258D01*
X11198895Y-8615877D01*
X11197532Y-8616365D01*
X11196128Y-8616717D01*
X11194696Y-8616929D01*
X11193250Y-8617000D01*
X11158750Y-8617000D01*
X11157304Y-8616929D01*
X11155872Y-8616717D01*
X11154468Y-8616365D01*
X11153105Y-8615877D01*
X11151797Y-8615258D01*
X11150555Y-8614514D01*
X11149393Y-8613652D01*
X11148320Y-8612680D01*
X11147348Y-8611607D01*
X11146486Y-8610445D01*
X11145742Y-8609203D01*
X11145123Y-8607895D01*
X11144635Y-8606532D01*
X11144283Y-8605128D01*
X11144071Y-8603696D01*
X11144000Y-8602250D01*
X11144000Y-8572750D01*
X11144071Y-8571304D01*
X11144283Y-8569872D01*
X11144635Y-8568468D01*
X11145123Y-8567105D01*
X11145742Y-8565797D01*
X11146486Y-8564555D01*
X11147348Y-8563393D01*
X11148320Y-8562320D01*
X11149393Y-8561348D01*
X11150555Y-8560486D01*
X11151797Y-8559742D01*
X11153105Y-8559123D01*
X11154468Y-8558635D01*
X11155872Y-8558283D01*
X11157304Y-8558071D01*
X11158750Y-8558000D01*
X11193250Y-8558000D01*
X11194696Y-8558071D01*
X11194696Y-8558071D01*
G37*
D14*
X11176000Y-8587500D03*
D12*
G36*
X11194696Y-8655071D02*
G01*
X11196128Y-8655283D01*
X11197532Y-8655635D01*
X11198895Y-8656123D01*
X11200203Y-8656742D01*
X11201445Y-8657486D01*
X11202607Y-8658348D01*
X11203680Y-8659320D01*
X11204652Y-8660393D01*
X11205514Y-8661555D01*
X11206258Y-8662797D01*
X11206877Y-8664105D01*
X11207365Y-8665468D01*
X11207717Y-8666872D01*
X11207929Y-8668304D01*
X11208000Y-8669750D01*
X11208000Y-8699250D01*
X11207929Y-8700696D01*
X11207717Y-8702128D01*
X11207365Y-8703532D01*
X11206877Y-8704895D01*
X11206258Y-8706203D01*
X11205514Y-8707445D01*
X11204652Y-8708607D01*
X11203680Y-8709680D01*
X11202607Y-8710652D01*
X11201445Y-8711514D01*
X11200203Y-8712258D01*
X11198895Y-8712877D01*
X11197532Y-8713365D01*
X11196128Y-8713717D01*
X11194696Y-8713929D01*
X11193250Y-8714000D01*
X11158750Y-8714000D01*
X11157304Y-8713929D01*
X11155872Y-8713717D01*
X11154468Y-8713365D01*
X11153105Y-8712877D01*
X11151797Y-8712258D01*
X11150555Y-8711514D01*
X11149393Y-8710652D01*
X11148320Y-8709680D01*
X11147348Y-8708607D01*
X11146486Y-8707445D01*
X11145742Y-8706203D01*
X11145123Y-8704895D01*
X11144635Y-8703532D01*
X11144283Y-8702128D01*
X11144071Y-8700696D01*
X11144000Y-8699250D01*
X11144000Y-8669750D01*
X11144071Y-8668304D01*
X11144283Y-8666872D01*
X11144635Y-8665468D01*
X11145123Y-8664105D01*
X11145742Y-8662797D01*
X11146486Y-8661555D01*
X11147348Y-8660393D01*
X11148320Y-8659320D01*
X11149393Y-8658348D01*
X11150555Y-8657486D01*
X11151797Y-8656742D01*
X11153105Y-8656123D01*
X11154468Y-8655635D01*
X11155872Y-8655283D01*
X11157304Y-8655071D01*
X11158750Y-8655000D01*
X11193250Y-8655000D01*
X11194696Y-8655071D01*
X11194696Y-8655071D01*
G37*
D14*
X11176000Y-8684500D03*
D12*
G36*
X11194696Y-8812071D02*
G01*
X11196128Y-8812283D01*
X11197532Y-8812635D01*
X11198895Y-8813123D01*
X11200203Y-8813742D01*
X11201445Y-8814486D01*
X11202607Y-8815348D01*
X11203680Y-8816320D01*
X11204652Y-8817393D01*
X11205514Y-8818555D01*
X11206258Y-8819797D01*
X11206877Y-8821105D01*
X11207365Y-8822468D01*
X11207717Y-8823872D01*
X11207929Y-8825304D01*
X11208000Y-8826750D01*
X11208000Y-8856250D01*
X11207929Y-8857696D01*
X11207717Y-8859128D01*
X11207365Y-8860532D01*
X11206877Y-8861895D01*
X11206258Y-8863203D01*
X11205514Y-8864445D01*
X11204652Y-8865607D01*
X11203680Y-8866680D01*
X11202607Y-8867652D01*
X11201445Y-8868514D01*
X11200203Y-8869258D01*
X11198895Y-8869877D01*
X11197532Y-8870365D01*
X11196128Y-8870717D01*
X11194696Y-8870929D01*
X11193250Y-8871000D01*
X11158750Y-8871000D01*
X11157304Y-8870929D01*
X11155872Y-8870717D01*
X11154468Y-8870365D01*
X11153105Y-8869877D01*
X11151797Y-8869258D01*
X11150555Y-8868514D01*
X11149393Y-8867652D01*
X11148320Y-8866680D01*
X11147348Y-8865607D01*
X11146486Y-8864445D01*
X11145742Y-8863203D01*
X11145123Y-8861895D01*
X11144635Y-8860532D01*
X11144283Y-8859128D01*
X11144071Y-8857696D01*
X11144000Y-8856250D01*
X11144000Y-8826750D01*
X11144071Y-8825304D01*
X11144283Y-8823872D01*
X11144635Y-8822468D01*
X11145123Y-8821105D01*
X11145742Y-8819797D01*
X11146486Y-8818555D01*
X11147348Y-8817393D01*
X11148320Y-8816320D01*
X11149393Y-8815348D01*
X11150555Y-8814486D01*
X11151797Y-8813742D01*
X11153105Y-8813123D01*
X11154468Y-8812635D01*
X11155872Y-8812283D01*
X11157304Y-8812071D01*
X11158750Y-8812000D01*
X11193250Y-8812000D01*
X11194696Y-8812071D01*
X11194696Y-8812071D01*
G37*
D14*
X11176000Y-8841500D03*
D12*
G36*
X11194696Y-8909071D02*
G01*
X11196128Y-8909283D01*
X11197532Y-8909635D01*
X11198895Y-8910123D01*
X11200203Y-8910742D01*
X11201445Y-8911486D01*
X11202607Y-8912348D01*
X11203680Y-8913320D01*
X11204652Y-8914393D01*
X11205514Y-8915555D01*
X11206258Y-8916797D01*
X11206877Y-8918105D01*
X11207365Y-8919468D01*
X11207717Y-8920872D01*
X11207929Y-8922304D01*
X11208000Y-8923750D01*
X11208000Y-8953250D01*
X11207929Y-8954696D01*
X11207717Y-8956128D01*
X11207365Y-8957532D01*
X11206877Y-8958895D01*
X11206258Y-8960203D01*
X11205514Y-8961445D01*
X11204652Y-8962607D01*
X11203680Y-8963680D01*
X11202607Y-8964652D01*
X11201445Y-8965514D01*
X11200203Y-8966258D01*
X11198895Y-8966877D01*
X11197532Y-8967365D01*
X11196128Y-8967717D01*
X11194696Y-8967929D01*
X11193250Y-8968000D01*
X11158750Y-8968000D01*
X11157304Y-8967929D01*
X11155872Y-8967717D01*
X11154468Y-8967365D01*
X11153105Y-8966877D01*
X11151797Y-8966258D01*
X11150555Y-8965514D01*
X11149393Y-8964652D01*
X11148320Y-8963680D01*
X11147348Y-8962607D01*
X11146486Y-8961445D01*
X11145742Y-8960203D01*
X11145123Y-8958895D01*
X11144635Y-8957532D01*
X11144283Y-8956128D01*
X11144071Y-8954696D01*
X11144000Y-8953250D01*
X11144000Y-8923750D01*
X11144071Y-8922304D01*
X11144283Y-8920872D01*
X11144635Y-8919468D01*
X11145123Y-8918105D01*
X11145742Y-8916797D01*
X11146486Y-8915555D01*
X11147348Y-8914393D01*
X11148320Y-8913320D01*
X11149393Y-8912348D01*
X11150555Y-8911486D01*
X11151797Y-8910742D01*
X11153105Y-8910123D01*
X11154468Y-8909635D01*
X11155872Y-8909283D01*
X11157304Y-8909071D01*
X11158750Y-8909000D01*
X11193250Y-8909000D01*
X11194696Y-8909071D01*
X11194696Y-8909071D01*
G37*
D14*
X11176000Y-8938500D03*
D15*
X10731500Y-9271000D03*
D11*
X10731500Y-9141000D03*
D12*
G36*
X10656560Y-9141000D02*
G01*
X10656560Y-9138547D01*
X10657041Y-9133664D01*
X10657998Y-9128851D01*
X10659423Y-9124156D01*
X10661301Y-9119622D01*
X10663614Y-9115295D01*
X10666340Y-9111215D01*
X10669452Y-9107422D01*
X10672922Y-9103952D01*
X10676715Y-9100840D01*
X10680795Y-9098114D01*
X10685122Y-9095801D01*
X10689656Y-9093923D01*
X10694351Y-9092498D01*
X10699164Y-9091541D01*
X10704047Y-9091060D01*
X10706500Y-9091060D01*
X10706500Y-9091000D01*
X10756500Y-9091000D01*
X10756500Y-9091060D01*
X10758953Y-9091060D01*
X10763837Y-9091541D01*
X10768649Y-9092498D01*
X10773345Y-9093923D01*
X10777878Y-9095801D01*
X10782205Y-9098114D01*
X10786285Y-9100840D01*
X10790078Y-9103952D01*
X10793548Y-9107422D01*
X10796660Y-9111215D01*
X10799386Y-9115295D01*
X10801700Y-9119622D01*
X10803577Y-9124156D01*
X10805002Y-9128851D01*
X10805959Y-9133664D01*
X10806440Y-9138547D01*
X10806440Y-9141000D01*
X10806500Y-9141000D01*
X10806500Y-9196000D01*
X10656500Y-9196000D01*
X10656500Y-9141000D01*
X10656560Y-9141000D01*
X10656560Y-9141000D01*
G37*
D11*
X10731500Y-9401000D03*
D12*
G36*
X10806500Y-9346000D02*
G01*
X10806500Y-9401000D01*
X10806440Y-9401000D01*
X10806440Y-9403453D01*
X10805959Y-9408337D01*
X10805002Y-9413149D01*
X10803577Y-9417845D01*
X10801700Y-9422378D01*
X10799386Y-9426705D01*
X10796660Y-9430785D01*
X10793548Y-9434578D01*
X10790078Y-9438048D01*
X10786285Y-9441160D01*
X10782205Y-9443886D01*
X10777878Y-9446200D01*
X10773345Y-9448077D01*
X10768649Y-9449502D01*
X10763837Y-9450459D01*
X10758953Y-9450940D01*
X10756500Y-9450940D01*
X10756500Y-9451000D01*
X10706500Y-9451000D01*
X10706500Y-9450940D01*
X10704047Y-9450940D01*
X10699164Y-9450459D01*
X10694351Y-9449502D01*
X10689656Y-9448077D01*
X10685122Y-9446200D01*
X10680795Y-9443886D01*
X10676715Y-9441160D01*
X10672922Y-9438048D01*
X10669452Y-9434578D01*
X10666340Y-9430785D01*
X10663614Y-9426705D01*
X10661301Y-9422378D01*
X10659423Y-9417845D01*
X10657998Y-9413149D01*
X10657041Y-9408337D01*
X10656560Y-9403453D01*
X10656560Y-9401000D01*
X10656500Y-9401000D01*
X10656500Y-9346000D01*
X10806500Y-9346000D01*
X10806500Y-9346000D01*
G37*
D15*
X11112500Y-9271000D03*
D11*
X11112500Y-9141000D03*
D12*
G36*
X11037560Y-9141000D02*
G01*
X11037560Y-9138547D01*
X11038041Y-9133664D01*
X11038998Y-9128851D01*
X11040423Y-9124156D01*
X11042301Y-9119622D01*
X11044614Y-9115295D01*
X11047340Y-9111215D01*
X11050452Y-9107422D01*
X11053922Y-9103952D01*
X11057715Y-9100840D01*
X11061795Y-9098114D01*
X11066122Y-9095801D01*
X11070656Y-9093923D01*
X11075351Y-9092498D01*
X11080164Y-9091541D01*
X11085047Y-9091060D01*
X11087500Y-9091060D01*
X11087500Y-9091000D01*
X11137500Y-9091000D01*
X11137500Y-9091060D01*
X11139953Y-9091060D01*
X11144837Y-9091541D01*
X11149649Y-9092498D01*
X11154345Y-9093923D01*
X11158878Y-9095801D01*
X11163205Y-9098114D01*
X11167285Y-9100840D01*
X11171078Y-9103952D01*
X11174548Y-9107422D01*
X11177660Y-9111215D01*
X11180386Y-9115295D01*
X11182700Y-9119622D01*
X11184577Y-9124156D01*
X11186002Y-9128851D01*
X11186959Y-9133664D01*
X11187440Y-9138547D01*
X11187440Y-9141000D01*
X11187500Y-9141000D01*
X11187500Y-9196000D01*
X11037500Y-9196000D01*
X11037500Y-9141000D01*
X11037560Y-9141000D01*
X11037560Y-9141000D01*
G37*
D11*
X11112500Y-9401000D03*
D12*
G36*
X11187500Y-9346000D02*
G01*
X11187500Y-9401000D01*
X11187440Y-9401000D01*
X11187440Y-9403453D01*
X11186959Y-9408337D01*
X11186002Y-9413149D01*
X11184577Y-9417845D01*
X11182700Y-9422378D01*
X11180386Y-9426705D01*
X11177660Y-9430785D01*
X11174548Y-9434578D01*
X11171078Y-9438048D01*
X11167285Y-9441160D01*
X11163205Y-9443886D01*
X11158878Y-9446200D01*
X11154345Y-9448077D01*
X11149649Y-9449502D01*
X11144837Y-9450459D01*
X11139953Y-9450940D01*
X11137500Y-9450940D01*
X11137500Y-9451000D01*
X11087500Y-9451000D01*
X11087500Y-9450940D01*
X11085047Y-9450940D01*
X11080164Y-9450459D01*
X11075351Y-9449502D01*
X11070656Y-9448077D01*
X11066122Y-9446200D01*
X11061795Y-9443886D01*
X11057715Y-9441160D01*
X11053922Y-9438048D01*
X11050452Y-9434578D01*
X11047340Y-9430785D01*
X11044614Y-9426705D01*
X11042301Y-9422378D01*
X11040423Y-9417845D01*
X11038998Y-9413149D01*
X11038041Y-9408337D01*
X11037560Y-9403453D01*
X11037560Y-9401000D01*
X11037500Y-9401000D01*
X11037500Y-9346000D01*
X11187500Y-9346000D01*
X11187500Y-9346000D01*
G37*
G36*
X11267269Y-10370355D02*
G01*
X11269393Y-10370670D01*
X11271475Y-10371192D01*
X11273496Y-10371915D01*
X11275437Y-10372833D01*
X11277278Y-10373937D01*
X11279002Y-10375215D01*
X11280593Y-10376657D01*
X11282035Y-10378248D01*
X11283313Y-10379972D01*
X11284417Y-10381813D01*
X11285335Y-10383754D01*
X11286058Y-10385775D01*
X11286580Y-10387857D01*
X11286895Y-10389981D01*
X11287000Y-10392125D01*
X11287000Y-10435875D01*
X11286895Y-10438019D01*
X11286580Y-10440143D01*
X11286058Y-10442225D01*
X11285335Y-10444246D01*
X11284417Y-10446187D01*
X11283313Y-10448028D01*
X11282035Y-10449752D01*
X11280593Y-10451343D01*
X11279002Y-10452785D01*
X11277278Y-10454063D01*
X11275437Y-10455167D01*
X11273496Y-10456085D01*
X11271475Y-10456808D01*
X11269393Y-10457330D01*
X11267269Y-10457645D01*
X11265125Y-10457750D01*
X11213875Y-10457750D01*
X11211731Y-10457645D01*
X11209607Y-10457330D01*
X11207525Y-10456808D01*
X11205504Y-10456085D01*
X11203563Y-10455167D01*
X11201722Y-10454063D01*
X11199998Y-10452785D01*
X11198407Y-10451343D01*
X11196965Y-10449752D01*
X11195687Y-10448028D01*
X11194583Y-10446187D01*
X11193665Y-10444246D01*
X11192942Y-10442225D01*
X11192420Y-10440143D01*
X11192105Y-10438019D01*
X11192000Y-10435875D01*
X11192000Y-10392125D01*
X11192105Y-10389981D01*
X11192420Y-10387857D01*
X11192942Y-10385775D01*
X11193665Y-10383754D01*
X11194583Y-10381813D01*
X11195687Y-10379972D01*
X11196965Y-10378248D01*
X11198407Y-10376657D01*
X11199998Y-10375215D01*
X11201722Y-10373937D01*
X11203563Y-10372833D01*
X11205504Y-10371915D01*
X11207525Y-10371192D01*
X11209607Y-10370670D01*
X11211731Y-10370355D01*
X11213875Y-10370250D01*
X11265125Y-10370250D01*
X11267269Y-10370355D01*
X11267269Y-10370355D01*
G37*
D16*
X11239500Y-10414000D03*
D12*
G36*
X11267269Y-10212855D02*
G01*
X11269393Y-10213170D01*
X11271475Y-10213692D01*
X11273496Y-10214415D01*
X11275437Y-10215333D01*
X11277278Y-10216437D01*
X11279002Y-10217715D01*
X11280593Y-10219157D01*
X11282035Y-10220748D01*
X11283313Y-10222472D01*
X11284417Y-10224313D01*
X11285335Y-10226254D01*
X11286058Y-10228275D01*
X11286580Y-10230357D01*
X11286895Y-10232481D01*
X11287000Y-10234625D01*
X11287000Y-10278375D01*
X11286895Y-10280519D01*
X11286580Y-10282643D01*
X11286058Y-10284725D01*
X11285335Y-10286746D01*
X11284417Y-10288687D01*
X11283313Y-10290528D01*
X11282035Y-10292252D01*
X11280593Y-10293843D01*
X11279002Y-10295285D01*
X11277278Y-10296563D01*
X11275437Y-10297667D01*
X11273496Y-10298585D01*
X11271475Y-10299308D01*
X11269393Y-10299830D01*
X11267269Y-10300145D01*
X11265125Y-10300250D01*
X11213875Y-10300250D01*
X11211731Y-10300145D01*
X11209607Y-10299830D01*
X11207525Y-10299308D01*
X11205504Y-10298585D01*
X11203563Y-10297667D01*
X11201722Y-10296563D01*
X11199998Y-10295285D01*
X11198407Y-10293843D01*
X11196965Y-10292252D01*
X11195687Y-10290528D01*
X11194583Y-10288687D01*
X11193665Y-10286746D01*
X11192942Y-10284725D01*
X11192420Y-10282643D01*
X11192105Y-10280519D01*
X11192000Y-10278375D01*
X11192000Y-10234625D01*
X11192105Y-10232481D01*
X11192420Y-10230357D01*
X11192942Y-10228275D01*
X11193665Y-10226254D01*
X11194583Y-10224313D01*
X11195687Y-10222472D01*
X11196965Y-10220748D01*
X11198407Y-10219157D01*
X11199998Y-10217715D01*
X11201722Y-10216437D01*
X11203563Y-10215333D01*
X11205504Y-10214415D01*
X11207525Y-10213692D01*
X11209607Y-10213170D01*
X11211731Y-10212855D01*
X11213875Y-10212750D01*
X11265125Y-10212750D01*
X11267269Y-10212855D01*
X11267269Y-10212855D01*
G37*
D16*
X11239500Y-10256500D03*
D12*
G36*
X10632269Y-10212855D02*
G01*
X10634393Y-10213170D01*
X10636475Y-10213692D01*
X10638496Y-10214415D01*
X10640437Y-10215333D01*
X10642278Y-10216437D01*
X10644002Y-10217715D01*
X10645593Y-10219157D01*
X10647035Y-10220748D01*
X10648313Y-10222472D01*
X10649417Y-10224313D01*
X10650335Y-10226254D01*
X10651058Y-10228275D01*
X10651580Y-10230357D01*
X10651895Y-10232481D01*
X10652000Y-10234625D01*
X10652000Y-10278375D01*
X10651895Y-10280519D01*
X10651580Y-10282643D01*
X10651058Y-10284725D01*
X10650335Y-10286746D01*
X10649417Y-10288687D01*
X10648313Y-10290528D01*
X10647035Y-10292252D01*
X10645593Y-10293843D01*
X10644002Y-10295285D01*
X10642278Y-10296563D01*
X10640437Y-10297667D01*
X10638496Y-10298585D01*
X10636475Y-10299308D01*
X10634393Y-10299830D01*
X10632269Y-10300145D01*
X10630125Y-10300250D01*
X10578875Y-10300250D01*
X10576731Y-10300145D01*
X10574607Y-10299830D01*
X10572525Y-10299308D01*
X10570504Y-10298585D01*
X10568563Y-10297667D01*
X10566722Y-10296563D01*
X10564998Y-10295285D01*
X10563407Y-10293843D01*
X10561965Y-10292252D01*
X10560687Y-10290528D01*
X10559583Y-10288687D01*
X10558665Y-10286746D01*
X10557942Y-10284725D01*
X10557420Y-10282643D01*
X10557105Y-10280519D01*
X10557000Y-10278375D01*
X10557000Y-10234625D01*
X10557105Y-10232481D01*
X10557420Y-10230357D01*
X10557942Y-10228275D01*
X10558665Y-10226254D01*
X10559583Y-10224313D01*
X10560687Y-10222472D01*
X10561965Y-10220748D01*
X10563407Y-10219157D01*
X10564998Y-10217715D01*
X10566722Y-10216437D01*
X10568563Y-10215333D01*
X10570504Y-10214415D01*
X10572525Y-10213692D01*
X10574607Y-10213170D01*
X10576731Y-10212855D01*
X10578875Y-10212750D01*
X10630125Y-10212750D01*
X10632269Y-10212855D01*
X10632269Y-10212855D01*
G37*
D16*
X10604500Y-10256500D03*
D12*
G36*
X10632269Y-10370355D02*
G01*
X10634393Y-10370670D01*
X10636475Y-10371192D01*
X10638496Y-10371915D01*
X10640437Y-10372833D01*
X10642278Y-10373937D01*
X10644002Y-10375215D01*
X10645593Y-10376657D01*
X10647035Y-10378248D01*
X10648313Y-10379972D01*
X10649417Y-10381813D01*
X10650335Y-10383754D01*
X10651058Y-10385775D01*
X10651580Y-10387857D01*
X10651895Y-10389981D01*
X10652000Y-10392125D01*
X10652000Y-10435875D01*
X10651895Y-10438019D01*
X10651580Y-10440143D01*
X10651058Y-10442225D01*
X10650335Y-10444246D01*
X10649417Y-10446187D01*
X10648313Y-10448028D01*
X10647035Y-10449752D01*
X10645593Y-10451343D01*
X10644002Y-10452785D01*
X10642278Y-10454063D01*
X10640437Y-10455167D01*
X10638496Y-10456085D01*
X10636475Y-10456808D01*
X10634393Y-10457330D01*
X10632269Y-10457645D01*
X10630125Y-10457750D01*
X10578875Y-10457750D01*
X10576731Y-10457645D01*
X10574607Y-10457330D01*
X10572525Y-10456808D01*
X10570504Y-10456085D01*
X10568563Y-10455167D01*
X10566722Y-10454063D01*
X10564998Y-10452785D01*
X10563407Y-10451343D01*
X10561965Y-10449752D01*
X10560687Y-10448028D01*
X10559583Y-10446187D01*
X10558665Y-10444246D01*
X10557942Y-10442225D01*
X10557420Y-10440143D01*
X10557105Y-10438019D01*
X10557000Y-10435875D01*
X10557000Y-10392125D01*
X10557105Y-10389981D01*
X10557420Y-10387857D01*
X10557942Y-10385775D01*
X10558665Y-10383754D01*
X10559583Y-10381813D01*
X10560687Y-10379972D01*
X10561965Y-10378248D01*
X10563407Y-10376657D01*
X10564998Y-10375215D01*
X10566722Y-10373937D01*
X10568563Y-10372833D01*
X10570504Y-10371915D01*
X10572525Y-10371192D01*
X10574607Y-10370670D01*
X10576731Y-10370355D01*
X10578875Y-10370250D01*
X10630125Y-10370250D01*
X10632269Y-10370355D01*
X10632269Y-10370355D01*
G37*
D16*
X10604500Y-10414000D03*
D11*
X10731500Y-7871000D03*
D12*
G36*
X10656500Y-7926000D02*
G01*
X10656500Y-7871000D01*
X10656560Y-7871000D01*
X10656560Y-7868547D01*
X10657041Y-7863663D01*
X10657998Y-7858851D01*
X10659423Y-7854155D01*
X10661301Y-7849622D01*
X10663614Y-7845295D01*
X10666340Y-7841215D01*
X10669452Y-7837422D01*
X10672922Y-7833952D01*
X10676715Y-7830840D01*
X10680795Y-7828114D01*
X10685122Y-7825800D01*
X10689656Y-7823923D01*
X10694351Y-7822498D01*
X10699164Y-7821541D01*
X10704047Y-7821060D01*
X10706500Y-7821060D01*
X10706500Y-7821000D01*
X10756500Y-7821000D01*
X10756500Y-7821060D01*
X10758953Y-7821060D01*
X10763837Y-7821541D01*
X10768649Y-7822498D01*
X10773345Y-7823923D01*
X10777878Y-7825800D01*
X10782205Y-7828114D01*
X10786285Y-7830840D01*
X10790078Y-7833952D01*
X10793548Y-7837422D01*
X10796660Y-7841215D01*
X10799386Y-7845295D01*
X10801700Y-7849622D01*
X10803577Y-7854155D01*
X10805002Y-7858851D01*
X10805959Y-7863663D01*
X10806440Y-7868547D01*
X10806440Y-7871000D01*
X10806500Y-7871000D01*
X10806500Y-7926000D01*
X10656500Y-7926000D01*
X10656500Y-7926000D01*
G37*
D15*
X10731500Y-8001000D03*
D11*
X10731500Y-8131000D03*
D12*
G36*
X10806440Y-8131000D02*
G01*
X10806440Y-8133453D01*
X10805959Y-8138336D01*
X10805002Y-8143149D01*
X10803577Y-8147844D01*
X10801700Y-8152378D01*
X10799386Y-8156705D01*
X10796660Y-8160785D01*
X10793548Y-8164578D01*
X10790078Y-8168048D01*
X10786285Y-8171160D01*
X10782205Y-8173886D01*
X10777878Y-8176199D01*
X10773345Y-8178077D01*
X10768649Y-8179502D01*
X10763837Y-8180459D01*
X10758953Y-8180940D01*
X10756500Y-8180940D01*
X10756500Y-8181000D01*
X10706500Y-8181000D01*
X10706500Y-8180940D01*
X10704047Y-8180940D01*
X10699164Y-8180459D01*
X10694351Y-8179502D01*
X10689656Y-8178077D01*
X10685122Y-8176199D01*
X10680795Y-8173886D01*
X10676715Y-8171160D01*
X10672922Y-8168048D01*
X10669452Y-8164578D01*
X10666340Y-8160785D01*
X10663614Y-8156705D01*
X10661301Y-8152378D01*
X10659423Y-8147844D01*
X10657998Y-8143149D01*
X10657041Y-8138336D01*
X10656560Y-8133453D01*
X10656560Y-8131000D01*
X10656500Y-8131000D01*
X10656500Y-8076000D01*
X10806500Y-8076000D01*
X10806500Y-8131000D01*
X10806440Y-8131000D01*
X10806440Y-8131000D01*
G37*
D17*
X11017000Y-10194000D03*
X10827000Y-10194000D03*
X10827000Y-10414000D03*
X10922000Y-10414000D03*
X11017000Y-10414000D03*
D12*
G36*
X10441769Y-10212855D02*
G01*
X10443893Y-10213170D01*
X10445975Y-10213692D01*
X10447996Y-10214415D01*
X10449937Y-10215333D01*
X10451778Y-10216437D01*
X10453502Y-10217715D01*
X10455093Y-10219157D01*
X10456535Y-10220748D01*
X10457813Y-10222472D01*
X10458917Y-10224313D01*
X10459835Y-10226254D01*
X10460558Y-10228275D01*
X10461080Y-10230357D01*
X10461395Y-10232481D01*
X10461500Y-10234625D01*
X10461500Y-10278375D01*
X10461395Y-10280519D01*
X10461080Y-10282643D01*
X10460558Y-10284725D01*
X10459835Y-10286746D01*
X10458917Y-10288687D01*
X10457813Y-10290528D01*
X10456535Y-10292252D01*
X10455093Y-10293843D01*
X10453502Y-10295285D01*
X10451778Y-10296563D01*
X10449937Y-10297667D01*
X10447996Y-10298585D01*
X10445975Y-10299308D01*
X10443893Y-10299830D01*
X10441769Y-10300145D01*
X10439625Y-10300250D01*
X10388375Y-10300250D01*
X10386231Y-10300145D01*
X10384107Y-10299830D01*
X10382025Y-10299308D01*
X10380004Y-10298585D01*
X10378063Y-10297667D01*
X10376222Y-10296563D01*
X10374498Y-10295285D01*
X10372907Y-10293843D01*
X10371465Y-10292252D01*
X10370187Y-10290528D01*
X10369083Y-10288687D01*
X10368165Y-10286746D01*
X10367442Y-10284725D01*
X10366920Y-10282643D01*
X10366605Y-10280519D01*
X10366500Y-10278375D01*
X10366500Y-10234625D01*
X10366605Y-10232481D01*
X10366920Y-10230357D01*
X10367442Y-10228275D01*
X10368165Y-10226254D01*
X10369083Y-10224313D01*
X10370187Y-10222472D01*
X10371465Y-10220748D01*
X10372907Y-10219157D01*
X10374498Y-10217715D01*
X10376222Y-10216437D01*
X10378063Y-10215333D01*
X10380004Y-10214415D01*
X10382025Y-10213692D01*
X10384107Y-10213170D01*
X10386231Y-10212855D01*
X10388375Y-10212750D01*
X10439625Y-10212750D01*
X10441769Y-10212855D01*
X10441769Y-10212855D01*
G37*
D16*
X10414000Y-10256500D03*
D12*
G36*
X10441769Y-10370355D02*
G01*
X10443893Y-10370670D01*
X10445975Y-10371192D01*
X10447996Y-10371915D01*
X10449937Y-10372833D01*
X10451778Y-10373937D01*
X10453502Y-10375215D01*
X10455093Y-10376657D01*
X10456535Y-10378248D01*
X10457813Y-10379972D01*
X10458917Y-10381813D01*
X10459835Y-10383754D01*
X10460558Y-10385775D01*
X10461080Y-10387857D01*
X10461395Y-10389981D01*
X10461500Y-10392125D01*
X10461500Y-10435875D01*
X10461395Y-10438019D01*
X10461080Y-10440143D01*
X10460558Y-10442225D01*
X10459835Y-10444246D01*
X10458917Y-10446187D01*
X10457813Y-10448028D01*
X10456535Y-10449752D01*
X10455093Y-10451343D01*
X10453502Y-10452785D01*
X10451778Y-10454063D01*
X10449937Y-10455167D01*
X10447996Y-10456085D01*
X10445975Y-10456808D01*
X10443893Y-10457330D01*
X10441769Y-10457645D01*
X10439625Y-10457750D01*
X10388375Y-10457750D01*
X10386231Y-10457645D01*
X10384107Y-10457330D01*
X10382025Y-10456808D01*
X10380004Y-10456085D01*
X10378063Y-10455167D01*
X10376222Y-10454063D01*
X10374498Y-10452785D01*
X10372907Y-10451343D01*
X10371465Y-10449752D01*
X10370187Y-10448028D01*
X10369083Y-10446187D01*
X10368165Y-10444246D01*
X10367442Y-10442225D01*
X10366920Y-10440143D01*
X10366605Y-10438019D01*
X10366500Y-10435875D01*
X10366500Y-10392125D01*
X10366605Y-10389981D01*
X10366920Y-10387857D01*
X10367442Y-10385775D01*
X10368165Y-10383754D01*
X10369083Y-10381813D01*
X10370187Y-10379972D01*
X10371465Y-10378248D01*
X10372907Y-10376657D01*
X10374498Y-10375215D01*
X10376222Y-10373937D01*
X10378063Y-10372833D01*
X10380004Y-10371915D01*
X10382025Y-10371192D01*
X10384107Y-10370670D01*
X10386231Y-10370355D01*
X10388375Y-10370250D01*
X10439625Y-10370250D01*
X10441769Y-10370355D01*
X10441769Y-10370355D01*
G37*
D16*
X10414000Y-10414000D03*
D18*
X11142000Y-10033000D03*
X10702000Y-10033000D03*
D11*
X11495000Y-9144000D03*
D12*
G36*
X11495000Y-9069060D02*
G01*
X11497453Y-9069060D01*
X11502336Y-9069541D01*
X11507149Y-9070498D01*
X11511844Y-9071923D01*
X11516378Y-9073801D01*
X11520705Y-9076114D01*
X11524785Y-9078840D01*
X11528578Y-9081952D01*
X11532048Y-9085422D01*
X11535160Y-9089215D01*
X11537886Y-9093295D01*
X11540199Y-9097622D01*
X11542077Y-9102156D01*
X11543502Y-9106851D01*
X11544459Y-9111664D01*
X11544940Y-9116547D01*
X11544940Y-9119000D01*
X11545000Y-9119000D01*
X11545000Y-9169000D01*
X11544940Y-9169000D01*
X11544940Y-9171453D01*
X11544459Y-9176337D01*
X11543502Y-9181149D01*
X11542077Y-9185845D01*
X11540199Y-9190378D01*
X11537886Y-9194705D01*
X11535160Y-9198785D01*
X11532048Y-9202578D01*
X11528578Y-9206048D01*
X11524785Y-9209160D01*
X11520705Y-9211886D01*
X11516378Y-9214200D01*
X11511844Y-9216077D01*
X11507149Y-9217502D01*
X11502336Y-9218459D01*
X11497453Y-9218940D01*
X11495000Y-9218940D01*
X11495000Y-9219000D01*
X11445000Y-9219000D01*
X11445000Y-9069000D01*
X11495000Y-9069000D01*
X11495000Y-9069060D01*
X11495000Y-9069060D01*
G37*
D11*
X11365000Y-9144000D03*
D12*
G36*
X11415000Y-9219000D02*
G01*
X11365000Y-9219000D01*
X11365000Y-9218940D01*
X11362547Y-9218940D01*
X11357663Y-9218459D01*
X11352851Y-9217502D01*
X11348155Y-9216077D01*
X11343622Y-9214200D01*
X11339295Y-9211886D01*
X11335215Y-9209160D01*
X11331422Y-9206048D01*
X11327952Y-9202578D01*
X11324840Y-9198785D01*
X11322114Y-9194705D01*
X11319800Y-9190378D01*
X11317923Y-9185845D01*
X11316498Y-9181149D01*
X11315541Y-9176337D01*
X11315060Y-9171453D01*
X11315060Y-9169000D01*
X11315000Y-9169000D01*
X11315000Y-9119000D01*
X11315060Y-9119000D01*
X11315060Y-9116547D01*
X11315541Y-9111664D01*
X11316498Y-9106851D01*
X11317923Y-9102156D01*
X11319800Y-9097622D01*
X11322114Y-9093295D01*
X11324840Y-9089215D01*
X11327952Y-9085422D01*
X11331422Y-9081952D01*
X11335215Y-9078840D01*
X11339295Y-9076114D01*
X11343622Y-9073801D01*
X11348155Y-9071923D01*
X11352851Y-9070498D01*
X11357663Y-9069541D01*
X11362547Y-9069060D01*
X11365000Y-9069060D01*
X11365000Y-9069000D01*
X11415000Y-9069000D01*
X11415000Y-9219000D01*
X11415000Y-9219000D01*
G37*
D11*
X11495000Y-9652000D03*
D12*
G36*
X11495000Y-9577060D02*
G01*
X11497453Y-9577060D01*
X11502336Y-9577541D01*
X11507149Y-9578498D01*
X11511844Y-9579923D01*
X11516378Y-9581801D01*
X11520705Y-9584114D01*
X11524785Y-9586840D01*
X11528578Y-9589952D01*
X11532048Y-9593422D01*
X11535160Y-9597215D01*
X11537886Y-9601295D01*
X11540199Y-9605622D01*
X11542077Y-9610156D01*
X11543502Y-9614851D01*
X11544459Y-9619664D01*
X11544940Y-9624547D01*
X11544940Y-9627000D01*
X11545000Y-9627000D01*
X11545000Y-9677000D01*
X11544940Y-9677000D01*
X11544940Y-9679453D01*
X11544459Y-9684337D01*
X11543502Y-9689149D01*
X11542077Y-9693845D01*
X11540199Y-9698378D01*
X11537886Y-9702705D01*
X11535160Y-9706785D01*
X11532048Y-9710578D01*
X11528578Y-9714048D01*
X11524785Y-9717160D01*
X11520705Y-9719886D01*
X11516378Y-9722200D01*
X11511844Y-9724077D01*
X11507149Y-9725502D01*
X11502336Y-9726459D01*
X11497453Y-9726940D01*
X11495000Y-9726940D01*
X11495000Y-9727000D01*
X11445000Y-9727000D01*
X11445000Y-9577000D01*
X11495000Y-9577000D01*
X11495000Y-9577060D01*
X11495000Y-9577060D01*
G37*
D11*
X11365000Y-9652000D03*
D12*
G36*
X11415000Y-9727000D02*
G01*
X11365000Y-9727000D01*
X11365000Y-9726940D01*
X11362547Y-9726940D01*
X11357663Y-9726459D01*
X11352851Y-9725502D01*
X11348155Y-9724077D01*
X11343622Y-9722200D01*
X11339295Y-9719886D01*
X11335215Y-9717160D01*
X11331422Y-9714048D01*
X11327952Y-9710578D01*
X11324840Y-9706785D01*
X11322114Y-9702705D01*
X11319800Y-9698378D01*
X11317923Y-9693845D01*
X11316498Y-9689149D01*
X11315541Y-9684337D01*
X11315060Y-9679453D01*
X11315060Y-9677000D01*
X11315000Y-9677000D01*
X11315000Y-9627000D01*
X11315060Y-9627000D01*
X11315060Y-9624547D01*
X11315541Y-9619664D01*
X11316498Y-9614851D01*
X11317923Y-9610156D01*
X11319800Y-9605622D01*
X11322114Y-9601295D01*
X11324840Y-9597215D01*
X11327952Y-9593422D01*
X11331422Y-9589952D01*
X11335215Y-9586840D01*
X11339295Y-9584114D01*
X11343622Y-9581801D01*
X11348155Y-9579923D01*
X11352851Y-9578498D01*
X11357663Y-9577541D01*
X11362547Y-9577060D01*
X11365000Y-9577060D01*
X11365000Y-9577000D01*
X11415000Y-9577000D01*
X11415000Y-9727000D01*
X11415000Y-9727000D01*
G37*
D11*
X11495000Y-9398000D03*
D12*
G36*
X11495000Y-9323060D02*
G01*
X11497453Y-9323060D01*
X11502336Y-9323541D01*
X11507149Y-9324498D01*
X11511844Y-9325923D01*
X11516378Y-9327801D01*
X11520705Y-9330114D01*
X11524785Y-9332840D01*
X11528578Y-9335952D01*
X11532048Y-9339422D01*
X11535160Y-9343215D01*
X11537886Y-9347295D01*
X11540199Y-9351622D01*
X11542077Y-9356156D01*
X11543502Y-9360851D01*
X11544459Y-9365664D01*
X11544940Y-9370547D01*
X11544940Y-9373000D01*
X11545000Y-9373000D01*
X11545000Y-9423000D01*
X11544940Y-9423000D01*
X11544940Y-9425453D01*
X11544459Y-9430337D01*
X11543502Y-9435149D01*
X11542077Y-9439845D01*
X11540199Y-9444378D01*
X11537886Y-9448705D01*
X11535160Y-9452785D01*
X11532048Y-9456578D01*
X11528578Y-9460048D01*
X11524785Y-9463160D01*
X11520705Y-9465886D01*
X11516378Y-9468200D01*
X11511844Y-9470077D01*
X11507149Y-9471502D01*
X11502336Y-9472459D01*
X11497453Y-9472940D01*
X11495000Y-9472940D01*
X11495000Y-9473000D01*
X11445000Y-9473000D01*
X11445000Y-9323000D01*
X11495000Y-9323000D01*
X11495000Y-9323060D01*
X11495000Y-9323060D01*
G37*
D11*
X11365000Y-9398000D03*
D12*
G36*
X11415000Y-9473000D02*
G01*
X11365000Y-9473000D01*
X11365000Y-9472940D01*
X11362547Y-9472940D01*
X11357663Y-9472459D01*
X11352851Y-9471502D01*
X11348155Y-9470077D01*
X11343622Y-9468200D01*
X11339295Y-9465886D01*
X11335215Y-9463160D01*
X11331422Y-9460048D01*
X11327952Y-9456578D01*
X11324840Y-9452785D01*
X11322114Y-9448705D01*
X11319800Y-9444378D01*
X11317923Y-9439845D01*
X11316498Y-9435149D01*
X11315541Y-9430337D01*
X11315060Y-9425453D01*
X11315060Y-9423000D01*
X11315000Y-9423000D01*
X11315000Y-9373000D01*
X11315060Y-9373000D01*
X11315060Y-9370547D01*
X11315541Y-9365664D01*
X11316498Y-9360851D01*
X11317923Y-9356156D01*
X11319800Y-9351622D01*
X11322114Y-9347295D01*
X11324840Y-9343215D01*
X11327952Y-9339422D01*
X11331422Y-9335952D01*
X11335215Y-9332840D01*
X11339295Y-9330114D01*
X11343622Y-9327801D01*
X11348155Y-9325923D01*
X11352851Y-9324498D01*
X11357663Y-9323541D01*
X11362547Y-9323060D01*
X11365000Y-9323060D01*
X11365000Y-9323000D01*
X11415000Y-9323000D01*
X11415000Y-9473000D01*
X11415000Y-9473000D01*
G37*
D11*
X11495000Y-8636000D03*
D12*
G36*
X11495000Y-8561060D02*
G01*
X11497453Y-8561060D01*
X11502336Y-8561541D01*
X11507149Y-8562498D01*
X11511844Y-8563923D01*
X11516378Y-8565801D01*
X11520705Y-8568114D01*
X11524785Y-8570840D01*
X11528578Y-8573952D01*
X11532048Y-8577422D01*
X11535160Y-8581215D01*
X11537886Y-8585295D01*
X11540199Y-8589622D01*
X11542077Y-8594156D01*
X11543502Y-8598851D01*
X11544459Y-8603664D01*
X11544940Y-8608547D01*
X11544940Y-8611000D01*
X11545000Y-8611000D01*
X11545000Y-8661000D01*
X11544940Y-8661000D01*
X11544940Y-8663453D01*
X11544459Y-8668337D01*
X11543502Y-8673149D01*
X11542077Y-8677845D01*
X11540199Y-8682378D01*
X11537886Y-8686705D01*
X11535160Y-8690785D01*
X11532048Y-8694578D01*
X11528578Y-8698048D01*
X11524785Y-8701160D01*
X11520705Y-8703886D01*
X11516378Y-8706200D01*
X11511844Y-8708077D01*
X11507149Y-8709502D01*
X11502336Y-8710459D01*
X11497453Y-8710940D01*
X11495000Y-8710940D01*
X11495000Y-8711000D01*
X11445000Y-8711000D01*
X11445000Y-8561000D01*
X11495000Y-8561000D01*
X11495000Y-8561060D01*
X11495000Y-8561060D01*
G37*
D11*
X11365000Y-8636000D03*
D12*
G36*
X11415000Y-8711000D02*
G01*
X11365000Y-8711000D01*
X11365000Y-8710940D01*
X11362547Y-8710940D01*
X11357663Y-8710459D01*
X11352851Y-8709502D01*
X11348155Y-8708077D01*
X11343622Y-8706200D01*
X11339295Y-8703886D01*
X11335215Y-8701160D01*
X11331422Y-8698048D01*
X11327952Y-8694578D01*
X11324840Y-8690785D01*
X11322114Y-8686705D01*
X11319800Y-8682378D01*
X11317923Y-8677845D01*
X11316498Y-8673149D01*
X11315541Y-8668337D01*
X11315060Y-8663453D01*
X11315060Y-8661000D01*
X11315000Y-8661000D01*
X11315000Y-8611000D01*
X11315060Y-8611000D01*
X11315060Y-8608547D01*
X11315541Y-8603664D01*
X11316498Y-8598851D01*
X11317923Y-8594156D01*
X11319800Y-8589622D01*
X11322114Y-8585295D01*
X11324840Y-8581215D01*
X11327952Y-8577422D01*
X11331422Y-8573952D01*
X11335215Y-8570840D01*
X11339295Y-8568114D01*
X11343622Y-8565801D01*
X11348155Y-8563923D01*
X11352851Y-8562498D01*
X11357663Y-8561541D01*
X11362547Y-8561060D01*
X11365000Y-8561060D01*
X11365000Y-8561000D01*
X11415000Y-8561000D01*
X11415000Y-8711000D01*
X11415000Y-8711000D01*
G37*
D11*
X10349000Y-9144000D03*
D12*
G36*
X10349000Y-9218940D02*
G01*
X10346547Y-9218940D01*
X10341664Y-9218459D01*
X10336851Y-9217502D01*
X10332156Y-9216077D01*
X10327622Y-9214200D01*
X10323295Y-9211886D01*
X10319215Y-9209160D01*
X10315422Y-9206048D01*
X10311952Y-9202578D01*
X10308840Y-9198785D01*
X10306114Y-9194705D01*
X10303801Y-9190378D01*
X10301923Y-9185845D01*
X10300498Y-9181149D01*
X10299541Y-9176337D01*
X10299060Y-9171453D01*
X10299060Y-9169000D01*
X10299000Y-9169000D01*
X10299000Y-9119000D01*
X10299060Y-9119000D01*
X10299060Y-9116547D01*
X10299541Y-9111664D01*
X10300498Y-9106851D01*
X10301923Y-9102156D01*
X10303801Y-9097622D01*
X10306114Y-9093295D01*
X10308840Y-9089215D01*
X10311952Y-9085422D01*
X10315422Y-9081952D01*
X10319215Y-9078840D01*
X10323295Y-9076114D01*
X10327622Y-9073801D01*
X10332156Y-9071923D01*
X10336851Y-9070498D01*
X10341664Y-9069541D01*
X10346547Y-9069060D01*
X10349000Y-9069060D01*
X10349000Y-9069000D01*
X10399000Y-9069000D01*
X10399000Y-9219000D01*
X10349000Y-9219000D01*
X10349000Y-9218940D01*
X10349000Y-9218940D01*
G37*
D11*
X10479000Y-9144000D03*
D12*
G36*
X10429000Y-9069000D02*
G01*
X10479000Y-9069000D01*
X10479000Y-9069060D01*
X10481453Y-9069060D01*
X10486337Y-9069541D01*
X10491149Y-9070498D01*
X10495845Y-9071923D01*
X10500378Y-9073801D01*
X10504705Y-9076114D01*
X10508785Y-9078840D01*
X10512578Y-9081952D01*
X10516048Y-9085422D01*
X10519160Y-9089215D01*
X10521886Y-9093295D01*
X10524200Y-9097622D01*
X10526077Y-9102156D01*
X10527502Y-9106851D01*
X10528459Y-9111664D01*
X10528940Y-9116547D01*
X10528940Y-9119000D01*
X10529000Y-9119000D01*
X10529000Y-9169000D01*
X10528940Y-9169000D01*
X10528940Y-9171453D01*
X10528459Y-9176337D01*
X10527502Y-9181149D01*
X10526077Y-9185845D01*
X10524200Y-9190378D01*
X10521886Y-9194705D01*
X10519160Y-9198785D01*
X10516048Y-9202578D01*
X10512578Y-9206048D01*
X10508785Y-9209160D01*
X10504705Y-9211886D01*
X10500378Y-9214200D01*
X10495845Y-9216077D01*
X10491149Y-9217502D01*
X10486337Y-9218459D01*
X10481453Y-9218940D01*
X10479000Y-9218940D01*
X10479000Y-9219000D01*
X10429000Y-9219000D01*
X10429000Y-9069000D01*
X10429000Y-9069000D01*
G37*
D11*
X10349000Y-8890000D03*
D12*
G36*
X10349000Y-8964940D02*
G01*
X10346547Y-8964940D01*
X10341664Y-8964459D01*
X10336851Y-8963502D01*
X10332156Y-8962077D01*
X10327622Y-8960200D01*
X10323295Y-8957886D01*
X10319215Y-8955160D01*
X10315422Y-8952048D01*
X10311952Y-8948578D01*
X10308840Y-8944785D01*
X10306114Y-8940705D01*
X10303801Y-8936378D01*
X10301923Y-8931845D01*
X10300498Y-8927149D01*
X10299541Y-8922337D01*
X10299060Y-8917453D01*
X10299060Y-8915000D01*
X10299000Y-8915000D01*
X10299000Y-8865000D01*
X10299060Y-8865000D01*
X10299060Y-8862547D01*
X10299541Y-8857664D01*
X10300498Y-8852851D01*
X10301923Y-8848156D01*
X10303801Y-8843622D01*
X10306114Y-8839295D01*
X10308840Y-8835215D01*
X10311952Y-8831422D01*
X10315422Y-8827952D01*
X10319215Y-8824840D01*
X10323295Y-8822114D01*
X10327622Y-8819801D01*
X10332156Y-8817923D01*
X10336851Y-8816498D01*
X10341664Y-8815541D01*
X10346547Y-8815060D01*
X10349000Y-8815060D01*
X10349000Y-8815000D01*
X10399000Y-8815000D01*
X10399000Y-8965000D01*
X10349000Y-8965000D01*
X10349000Y-8964940D01*
X10349000Y-8964940D01*
G37*
D11*
X10479000Y-8890000D03*
D12*
G36*
X10429000Y-8815000D02*
G01*
X10479000Y-8815000D01*
X10479000Y-8815060D01*
X10481453Y-8815060D01*
X10486337Y-8815541D01*
X10491149Y-8816498D01*
X10495845Y-8817923D01*
X10500378Y-8819801D01*
X10504705Y-8822114D01*
X10508785Y-8824840D01*
X10512578Y-8827952D01*
X10516048Y-8831422D01*
X10519160Y-8835215D01*
X10521886Y-8839295D01*
X10524200Y-8843622D01*
X10526077Y-8848156D01*
X10527502Y-8852851D01*
X10528459Y-8857664D01*
X10528940Y-8862547D01*
X10528940Y-8865000D01*
X10529000Y-8865000D01*
X10529000Y-8915000D01*
X10528940Y-8915000D01*
X10528940Y-8917453D01*
X10528459Y-8922337D01*
X10527502Y-8927149D01*
X10526077Y-8931845D01*
X10524200Y-8936378D01*
X10521886Y-8940705D01*
X10519160Y-8944785D01*
X10516048Y-8948578D01*
X10512578Y-8952048D01*
X10508785Y-8955160D01*
X10504705Y-8957886D01*
X10500378Y-8960200D01*
X10495845Y-8962077D01*
X10491149Y-8963502D01*
X10486337Y-8964459D01*
X10481453Y-8964940D01*
X10479000Y-8964940D01*
X10479000Y-8965000D01*
X10429000Y-8965000D01*
X10429000Y-8815000D01*
X10429000Y-8815000D01*
G37*
D11*
X10349000Y-8636000D03*
D12*
G36*
X10349000Y-8710940D02*
G01*
X10346547Y-8710940D01*
X10341664Y-8710459D01*
X10336851Y-8709502D01*
X10332156Y-8708077D01*
X10327622Y-8706200D01*
X10323295Y-8703886D01*
X10319215Y-8701160D01*
X10315422Y-8698048D01*
X10311952Y-8694578D01*
X10308840Y-8690785D01*
X10306114Y-8686705D01*
X10303801Y-8682378D01*
X10301923Y-8677845D01*
X10300498Y-8673149D01*
X10299541Y-8668337D01*
X10299060Y-8663453D01*
X10299060Y-8661000D01*
X10299000Y-8661000D01*
X10299000Y-8611000D01*
X10299060Y-8611000D01*
X10299060Y-8608547D01*
X10299541Y-8603664D01*
X10300498Y-8598851D01*
X10301923Y-8594156D01*
X10303801Y-8589622D01*
X10306114Y-8585295D01*
X10308840Y-8581215D01*
X10311952Y-8577422D01*
X10315422Y-8573952D01*
X10319215Y-8570840D01*
X10323295Y-8568114D01*
X10327622Y-8565801D01*
X10332156Y-8563923D01*
X10336851Y-8562498D01*
X10341664Y-8561541D01*
X10346547Y-8561060D01*
X10349000Y-8561060D01*
X10349000Y-8561000D01*
X10399000Y-8561000D01*
X10399000Y-8711000D01*
X10349000Y-8711000D01*
X10349000Y-8710940D01*
X10349000Y-8710940D01*
G37*
D11*
X10479000Y-8636000D03*
D12*
G36*
X10429000Y-8561000D02*
G01*
X10479000Y-8561000D01*
X10479000Y-8561060D01*
X10481453Y-8561060D01*
X10486337Y-8561541D01*
X10491149Y-8562498D01*
X10495845Y-8563923D01*
X10500378Y-8565801D01*
X10504705Y-8568114D01*
X10508785Y-8570840D01*
X10512578Y-8573952D01*
X10516048Y-8577422D01*
X10519160Y-8581215D01*
X10521886Y-8585295D01*
X10524200Y-8589622D01*
X10526077Y-8594156D01*
X10527502Y-8598851D01*
X10528459Y-8603664D01*
X10528940Y-8608547D01*
X10528940Y-8611000D01*
X10529000Y-8611000D01*
X10529000Y-8661000D01*
X10528940Y-8661000D01*
X10528940Y-8663453D01*
X10528459Y-8668337D01*
X10527502Y-8673149D01*
X10526077Y-8677845D01*
X10524200Y-8682378D01*
X10521886Y-8686705D01*
X10519160Y-8690785D01*
X10516048Y-8694578D01*
X10512578Y-8698048D01*
X10508785Y-8701160D01*
X10504705Y-8703886D01*
X10500378Y-8706200D01*
X10495845Y-8708077D01*
X10491149Y-8709502D01*
X10486337Y-8710459D01*
X10481453Y-8710940D01*
X10479000Y-8710940D01*
X10479000Y-8711000D01*
X10429000Y-8711000D01*
X10429000Y-8561000D01*
X10429000Y-8561000D01*
G37*
D11*
X10349000Y-9398000D03*
D12*
G36*
X10349000Y-9472940D02*
G01*
X10346547Y-9472940D01*
X10341664Y-9472459D01*
X10336851Y-9471502D01*
X10332156Y-9470077D01*
X10327622Y-9468200D01*
X10323295Y-9465886D01*
X10319215Y-9463160D01*
X10315422Y-9460048D01*
X10311952Y-9456578D01*
X10308840Y-9452785D01*
X10306114Y-9448705D01*
X10303801Y-9444378D01*
X10301923Y-9439845D01*
X10300498Y-9435149D01*
X10299541Y-9430337D01*
X10299060Y-9425453D01*
X10299060Y-9423000D01*
X10299000Y-9423000D01*
X10299000Y-9373000D01*
X10299060Y-9373000D01*
X10299060Y-9370547D01*
X10299541Y-9365664D01*
X10300498Y-9360851D01*
X10301923Y-9356156D01*
X10303801Y-9351622D01*
X10306114Y-9347295D01*
X10308840Y-9343215D01*
X10311952Y-9339422D01*
X10315422Y-9335952D01*
X10319215Y-9332840D01*
X10323295Y-9330114D01*
X10327622Y-9327801D01*
X10332156Y-9325923D01*
X10336851Y-9324498D01*
X10341664Y-9323541D01*
X10346547Y-9323060D01*
X10349000Y-9323060D01*
X10349000Y-9323000D01*
X10399000Y-9323000D01*
X10399000Y-9473000D01*
X10349000Y-9473000D01*
X10349000Y-9472940D01*
X10349000Y-9472940D01*
G37*
D11*
X10479000Y-9398000D03*
D12*
G36*
X10429000Y-9323000D02*
G01*
X10479000Y-9323000D01*
X10479000Y-9323060D01*
X10481453Y-9323060D01*
X10486337Y-9323541D01*
X10491149Y-9324498D01*
X10495845Y-9325923D01*
X10500378Y-9327801D01*
X10504705Y-9330114D01*
X10508785Y-9332840D01*
X10512578Y-9335952D01*
X10516048Y-9339422D01*
X10519160Y-9343215D01*
X10521886Y-9347295D01*
X10524200Y-9351622D01*
X10526077Y-9356156D01*
X10527502Y-9360851D01*
X10528459Y-9365664D01*
X10528940Y-9370547D01*
X10528940Y-9373000D01*
X10529000Y-9373000D01*
X10529000Y-9423000D01*
X10528940Y-9423000D01*
X10528940Y-9425453D01*
X10528459Y-9430337D01*
X10527502Y-9435149D01*
X10526077Y-9439845D01*
X10524200Y-9444378D01*
X10521886Y-9448705D01*
X10519160Y-9452785D01*
X10516048Y-9456578D01*
X10512578Y-9460048D01*
X10508785Y-9463160D01*
X10504705Y-9465886D01*
X10500378Y-9468200D01*
X10495845Y-9470077D01*
X10491149Y-9471502D01*
X10486337Y-9472459D01*
X10481453Y-9472940D01*
X10479000Y-9472940D01*
X10479000Y-9473000D01*
X10429000Y-9473000D01*
X10429000Y-9323000D01*
X10429000Y-9323000D01*
G37*
D11*
X10349000Y-7620000D03*
D12*
G36*
X10349000Y-7694940D02*
G01*
X10346547Y-7694940D01*
X10341664Y-7694459D01*
X10336851Y-7693502D01*
X10332156Y-7692077D01*
X10327622Y-7690199D01*
X10323295Y-7687886D01*
X10319215Y-7685160D01*
X10315422Y-7682048D01*
X10311952Y-7678578D01*
X10308840Y-7674785D01*
X10306114Y-7670705D01*
X10303801Y-7666378D01*
X10301923Y-7661844D01*
X10300498Y-7657149D01*
X10299541Y-7652336D01*
X10299060Y-7647453D01*
X10299060Y-7645000D01*
X10299000Y-7645000D01*
X10299000Y-7595000D01*
X10299060Y-7595000D01*
X10299060Y-7592547D01*
X10299541Y-7587663D01*
X10300498Y-7582851D01*
X10301923Y-7578155D01*
X10303801Y-7573622D01*
X10306114Y-7569295D01*
X10308840Y-7565215D01*
X10311952Y-7561422D01*
X10315422Y-7557952D01*
X10319215Y-7554840D01*
X10323295Y-7552114D01*
X10327622Y-7549800D01*
X10332156Y-7547923D01*
X10336851Y-7546498D01*
X10341664Y-7545541D01*
X10346547Y-7545060D01*
X10349000Y-7545060D01*
X10349000Y-7545000D01*
X10399000Y-7545000D01*
X10399000Y-7695000D01*
X10349000Y-7695000D01*
X10349000Y-7694940D01*
X10349000Y-7694940D01*
G37*
D11*
X10479000Y-7620000D03*
D12*
G36*
X10429000Y-7545000D02*
G01*
X10479000Y-7545000D01*
X10479000Y-7545060D01*
X10481453Y-7545060D01*
X10486337Y-7545541D01*
X10491149Y-7546498D01*
X10495845Y-7547923D01*
X10500378Y-7549800D01*
X10504705Y-7552114D01*
X10508785Y-7554840D01*
X10512578Y-7557952D01*
X10516048Y-7561422D01*
X10519160Y-7565215D01*
X10521886Y-7569295D01*
X10524200Y-7573622D01*
X10526077Y-7578155D01*
X10527502Y-7582851D01*
X10528459Y-7587663D01*
X10528940Y-7592547D01*
X10528940Y-7595000D01*
X10529000Y-7595000D01*
X10529000Y-7645000D01*
X10528940Y-7645000D01*
X10528940Y-7647453D01*
X10528459Y-7652336D01*
X10527502Y-7657149D01*
X10526077Y-7661844D01*
X10524200Y-7666378D01*
X10521886Y-7670705D01*
X10519160Y-7674785D01*
X10516048Y-7678578D01*
X10512578Y-7682048D01*
X10508785Y-7685160D01*
X10504705Y-7687886D01*
X10500378Y-7690199D01*
X10495845Y-7692077D01*
X10491149Y-7693502D01*
X10486337Y-7694459D01*
X10481453Y-7694940D01*
X10479000Y-7694940D01*
X10479000Y-7695000D01*
X10429000Y-7695000D01*
X10429000Y-7545000D01*
X10429000Y-7545000D01*
G37*
D11*
X11495000Y-7620000D03*
D12*
G36*
X11495000Y-7545060D02*
G01*
X11497453Y-7545060D01*
X11502336Y-7545541D01*
X11507149Y-7546498D01*
X11511844Y-7547923D01*
X11516378Y-7549800D01*
X11520705Y-7552114D01*
X11524785Y-7554840D01*
X11528578Y-7557952D01*
X11532048Y-7561422D01*
X11535160Y-7565215D01*
X11537886Y-7569295D01*
X11540199Y-7573622D01*
X11542077Y-7578155D01*
X11543502Y-7582851D01*
X11544459Y-7587663D01*
X11544940Y-7592547D01*
X11544940Y-7595000D01*
X11545000Y-7595000D01*
X11545000Y-7645000D01*
X11544940Y-7645000D01*
X11544940Y-7647453D01*
X11544459Y-7652336D01*
X11543502Y-7657149D01*
X11542077Y-7661844D01*
X11540199Y-7666378D01*
X11537886Y-7670705D01*
X11535160Y-7674785D01*
X11532048Y-7678578D01*
X11528578Y-7682048D01*
X11524785Y-7685160D01*
X11520705Y-7687886D01*
X11516378Y-7690199D01*
X11511844Y-7692077D01*
X11507149Y-7693502D01*
X11502336Y-7694459D01*
X11497453Y-7694940D01*
X11495000Y-7694940D01*
X11495000Y-7695000D01*
X11445000Y-7695000D01*
X11445000Y-7545000D01*
X11495000Y-7545000D01*
X11495000Y-7545060D01*
X11495000Y-7545060D01*
G37*
D11*
X11365000Y-7620000D03*
D12*
G36*
X11415000Y-7695000D02*
G01*
X11365000Y-7695000D01*
X11365000Y-7694940D01*
X11362547Y-7694940D01*
X11357663Y-7694459D01*
X11352851Y-7693502D01*
X11348155Y-7692077D01*
X11343622Y-7690199D01*
X11339295Y-7687886D01*
X11335215Y-7685160D01*
X11331422Y-7682048D01*
X11327952Y-7678578D01*
X11324840Y-7674785D01*
X11322114Y-7670705D01*
X11319800Y-7666378D01*
X11317923Y-7661844D01*
X11316498Y-7657149D01*
X11315541Y-7652336D01*
X11315060Y-7647453D01*
X11315060Y-7645000D01*
X11315000Y-7645000D01*
X11315000Y-7595000D01*
X11315060Y-7595000D01*
X11315060Y-7592547D01*
X11315541Y-7587663D01*
X11316498Y-7582851D01*
X11317923Y-7578155D01*
X11319800Y-7573622D01*
X11322114Y-7569295D01*
X11324840Y-7565215D01*
X11327952Y-7561422D01*
X11331422Y-7557952D01*
X11335215Y-7554840D01*
X11339295Y-7552114D01*
X11343622Y-7549800D01*
X11348155Y-7547923D01*
X11352851Y-7546498D01*
X11357663Y-7545541D01*
X11362547Y-7545060D01*
X11365000Y-7545060D01*
X11365000Y-7545000D01*
X11415000Y-7545000D01*
X11415000Y-7695000D01*
X11415000Y-7695000D01*
G37*
D11*
X10349000Y-8128000D03*
D12*
G36*
X10349000Y-8202940D02*
G01*
X10346547Y-8202940D01*
X10341664Y-8202459D01*
X10336851Y-8201502D01*
X10332156Y-8200077D01*
X10327622Y-8198199D01*
X10323295Y-8195886D01*
X10319215Y-8193160D01*
X10315422Y-8190048D01*
X10311952Y-8186578D01*
X10308840Y-8182785D01*
X10306114Y-8178705D01*
X10303801Y-8174378D01*
X10301923Y-8169844D01*
X10300498Y-8165149D01*
X10299541Y-8160336D01*
X10299060Y-8155453D01*
X10299060Y-8153000D01*
X10299000Y-8153000D01*
X10299000Y-8103000D01*
X10299060Y-8103000D01*
X10299060Y-8100547D01*
X10299541Y-8095663D01*
X10300498Y-8090851D01*
X10301923Y-8086155D01*
X10303801Y-8081622D01*
X10306114Y-8077295D01*
X10308840Y-8073215D01*
X10311952Y-8069422D01*
X10315422Y-8065952D01*
X10319215Y-8062840D01*
X10323295Y-8060114D01*
X10327622Y-8057800D01*
X10332156Y-8055923D01*
X10336851Y-8054498D01*
X10341664Y-8053541D01*
X10346547Y-8053060D01*
X10349000Y-8053060D01*
X10349000Y-8053000D01*
X10399000Y-8053000D01*
X10399000Y-8203000D01*
X10349000Y-8203000D01*
X10349000Y-8202940D01*
X10349000Y-8202940D01*
G37*
D11*
X10479000Y-8128000D03*
D12*
G36*
X10429000Y-8053000D02*
G01*
X10479000Y-8053000D01*
X10479000Y-8053060D01*
X10481453Y-8053060D01*
X10486337Y-8053541D01*
X10491149Y-8054498D01*
X10495845Y-8055923D01*
X10500378Y-8057800D01*
X10504705Y-8060114D01*
X10508785Y-8062840D01*
X10512578Y-8065952D01*
X10516048Y-8069422D01*
X10519160Y-8073215D01*
X10521886Y-8077295D01*
X10524200Y-8081622D01*
X10526077Y-8086155D01*
X10527502Y-8090851D01*
X10528459Y-8095663D01*
X10528940Y-8100547D01*
X10528940Y-8103000D01*
X10529000Y-8103000D01*
X10529000Y-8153000D01*
X10528940Y-8153000D01*
X10528940Y-8155453D01*
X10528459Y-8160336D01*
X10527502Y-8165149D01*
X10526077Y-8169844D01*
X10524200Y-8174378D01*
X10521886Y-8178705D01*
X10519160Y-8182785D01*
X10516048Y-8186578D01*
X10512578Y-8190048D01*
X10508785Y-8193160D01*
X10504705Y-8195886D01*
X10500378Y-8198199D01*
X10495845Y-8200077D01*
X10491149Y-8201502D01*
X10486337Y-8202459D01*
X10481453Y-8202940D01*
X10479000Y-8202940D01*
X10479000Y-8203000D01*
X10429000Y-8203000D01*
X10429000Y-8053000D01*
X10429000Y-8053000D01*
G37*
D11*
X10349000Y-7874000D03*
D12*
G36*
X10349000Y-7948940D02*
G01*
X10346547Y-7948940D01*
X10341664Y-7948459D01*
X10336851Y-7947502D01*
X10332156Y-7946077D01*
X10327622Y-7944199D01*
X10323295Y-7941886D01*
X10319215Y-7939160D01*
X10315422Y-7936048D01*
X10311952Y-7932578D01*
X10308840Y-7928785D01*
X10306114Y-7924705D01*
X10303801Y-7920378D01*
X10301923Y-7915844D01*
X10300498Y-7911149D01*
X10299541Y-7906336D01*
X10299060Y-7901453D01*
X10299060Y-7899000D01*
X10299000Y-7899000D01*
X10299000Y-7849000D01*
X10299060Y-7849000D01*
X10299060Y-7846547D01*
X10299541Y-7841663D01*
X10300498Y-7836851D01*
X10301923Y-7832155D01*
X10303801Y-7827622D01*
X10306114Y-7823295D01*
X10308840Y-7819215D01*
X10311952Y-7815422D01*
X10315422Y-7811952D01*
X10319215Y-7808840D01*
X10323295Y-7806114D01*
X10327622Y-7803800D01*
X10332156Y-7801923D01*
X10336851Y-7800498D01*
X10341664Y-7799541D01*
X10346547Y-7799060D01*
X10349000Y-7799060D01*
X10349000Y-7799000D01*
X10399000Y-7799000D01*
X10399000Y-7949000D01*
X10349000Y-7949000D01*
X10349000Y-7948940D01*
X10349000Y-7948940D01*
G37*
D11*
X10479000Y-7874000D03*
D12*
G36*
X10429000Y-7799000D02*
G01*
X10479000Y-7799000D01*
X10479000Y-7799060D01*
X10481453Y-7799060D01*
X10486337Y-7799541D01*
X10491149Y-7800498D01*
X10495845Y-7801923D01*
X10500378Y-7803800D01*
X10504705Y-7806114D01*
X10508785Y-7808840D01*
X10512578Y-7811952D01*
X10516048Y-7815422D01*
X10519160Y-7819215D01*
X10521886Y-7823295D01*
X10524200Y-7827622D01*
X10526077Y-7832155D01*
X10527502Y-7836851D01*
X10528459Y-7841663D01*
X10528940Y-7846547D01*
X10528940Y-7849000D01*
X10529000Y-7849000D01*
X10529000Y-7899000D01*
X10528940Y-7899000D01*
X10528940Y-7901453D01*
X10528459Y-7906336D01*
X10527502Y-7911149D01*
X10526077Y-7915844D01*
X10524200Y-7920378D01*
X10521886Y-7924705D01*
X10519160Y-7928785D01*
X10516048Y-7932578D01*
X10512578Y-7936048D01*
X10508785Y-7939160D01*
X10504705Y-7941886D01*
X10500378Y-7944199D01*
X10495845Y-7946077D01*
X10491149Y-7947502D01*
X10486337Y-7948459D01*
X10481453Y-7948940D01*
X10479000Y-7948940D01*
X10479000Y-7949000D01*
X10429000Y-7949000D01*
X10429000Y-7799000D01*
X10429000Y-7799000D01*
G37*
D11*
X10349000Y-8382000D03*
D12*
G36*
X10349000Y-8456940D02*
G01*
X10346547Y-8456940D01*
X10341664Y-8456459D01*
X10336851Y-8455502D01*
X10332156Y-8454077D01*
X10327622Y-8452200D01*
X10323295Y-8449886D01*
X10319215Y-8447160D01*
X10315422Y-8444048D01*
X10311952Y-8440578D01*
X10308840Y-8436785D01*
X10306114Y-8432705D01*
X10303801Y-8428378D01*
X10301923Y-8423845D01*
X10300498Y-8419149D01*
X10299541Y-8414337D01*
X10299060Y-8409453D01*
X10299060Y-8407000D01*
X10299000Y-8407000D01*
X10299000Y-8357000D01*
X10299060Y-8357000D01*
X10299060Y-8354547D01*
X10299541Y-8349663D01*
X10300498Y-8344851D01*
X10301923Y-8340155D01*
X10303801Y-8335622D01*
X10306114Y-8331295D01*
X10308840Y-8327215D01*
X10311952Y-8323422D01*
X10315422Y-8319952D01*
X10319215Y-8316840D01*
X10323295Y-8314114D01*
X10327622Y-8311800D01*
X10332156Y-8309923D01*
X10336851Y-8308498D01*
X10341664Y-8307541D01*
X10346547Y-8307060D01*
X10349000Y-8307060D01*
X10349000Y-8307000D01*
X10399000Y-8307000D01*
X10399000Y-8457000D01*
X10349000Y-8457000D01*
X10349000Y-8456940D01*
X10349000Y-8456940D01*
G37*
D11*
X10479000Y-8382000D03*
D12*
G36*
X10429000Y-8307000D02*
G01*
X10479000Y-8307000D01*
X10479000Y-8307060D01*
X10481453Y-8307060D01*
X10486337Y-8307541D01*
X10491149Y-8308498D01*
X10495845Y-8309923D01*
X10500378Y-8311800D01*
X10504705Y-8314114D01*
X10508785Y-8316840D01*
X10512578Y-8319952D01*
X10516048Y-8323422D01*
X10519160Y-8327215D01*
X10521886Y-8331295D01*
X10524200Y-8335622D01*
X10526077Y-8340155D01*
X10527502Y-8344851D01*
X10528459Y-8349663D01*
X10528940Y-8354547D01*
X10528940Y-8357000D01*
X10529000Y-8357000D01*
X10529000Y-8407000D01*
X10528940Y-8407000D01*
X10528940Y-8409453D01*
X10528459Y-8414337D01*
X10527502Y-8419149D01*
X10526077Y-8423845D01*
X10524200Y-8428378D01*
X10521886Y-8432705D01*
X10519160Y-8436785D01*
X10516048Y-8440578D01*
X10512578Y-8444048D01*
X10508785Y-8447160D01*
X10504705Y-8449886D01*
X10500378Y-8452200D01*
X10495845Y-8454077D01*
X10491149Y-8455502D01*
X10486337Y-8456459D01*
X10481453Y-8456940D01*
X10479000Y-8456940D01*
X10479000Y-8457000D01*
X10429000Y-8457000D01*
X10429000Y-8307000D01*
X10429000Y-8307000D01*
G37*
D19*
X11557000Y-7366000D03*
X11303000Y-7366000D03*
X11049000Y-7366000D03*
X10795000Y-7366000D03*
X10541000Y-7366000D03*
D20*
X10287000Y-7366000D03*
D21*
X10160000Y-10414000D03*
X10160000Y-10160000D03*
X10160000Y-9906000D03*
X11684000Y-7620000D03*
X10160000Y-9652000D03*
X11684000Y-7874000D03*
X10160000Y-9398000D03*
X11684000Y-8128000D03*
X10160000Y-9144000D03*
X11684000Y-8382000D03*
X10160000Y-8890000D03*
X11684000Y-8636000D03*
X10160000Y-8636000D03*
X11684000Y-8890000D03*
X10160000Y-8382000D03*
X11684000Y-9144000D03*
X10160000Y-8128000D03*
X11684000Y-9398000D03*
X10160000Y-7874000D03*
X11684000Y-9652000D03*
X10160000Y-7620000D03*
X11684000Y-9906000D03*
X11684000Y-10160000D03*
D22*
X11684000Y-10414000D03*
M02*
