%TF.GenerationSoftware,KiCad,Pcbnew,5.1.4-e60b266~84~ubuntu19.04.1*%
%TF.CreationDate,2020-03-14T22:12:53+00:00*%
%TF.ProjectId,ProMicro_GPS,50726f4d-6963-4726-9f5f-4750532e6b69,v2.2*%
%TF.SameCoordinates,Original*%
%TF.FileFunction,Legend,Bot*%
%TF.FilePolarity,Positive*%
%FSLAX45Y45*%
G04 Gerber Fmt 4.5, Leading zero omitted, Abs format (unit mm)*
G04 Created by KiCad (PCBNEW 5.1.4-e60b266~84~ubuntu19.04.1) date 2020-03-14 22:12:53*
%MOMM*%
%LPD*%
G04 APERTURE LIST*
%ADD10C,0.200000*%
%ADD11C,0.100000*%
%ADD12C,0.120000*%
%ADD13C,0.010000*%
%ADD14O,1.600000X1.600000*%
%ADD15R,1.600000X1.600000*%
%ADD16C,1.000000*%
%ADD17R,1.350000X4.200000*%
G04 APERTURE END LIST*
D10*
X12782786Y-9907571D02*
X12722786Y-9886143D01*
X12782786Y-9864714D01*
X12804214Y-9834714D02*
X12808500Y-9830429D01*
X12812786Y-9821857D01*
X12812786Y-9800429D01*
X12808500Y-9791857D01*
X12804214Y-9787571D01*
X12795643Y-9783286D01*
X12787071Y-9783286D01*
X12774214Y-9787571D01*
X12722786Y-9839000D01*
X12722786Y-9783286D01*
X12731357Y-9744714D02*
X12727071Y-9740429D01*
X12722786Y-9744714D01*
X12727071Y-9749000D01*
X12731357Y-9744714D01*
X12722786Y-9744714D01*
X12722786Y-9654714D02*
X12722786Y-9706143D01*
X12722786Y-9680429D02*
X12812786Y-9680429D01*
X12799928Y-9689000D01*
X12791357Y-9697571D01*
X12787071Y-9706143D01*
X12592286Y-11136000D02*
X12519428Y-11136000D01*
X12510857Y-11140286D01*
X12506571Y-11144571D01*
X12502286Y-11153143D01*
X12502286Y-11166000D01*
X12506571Y-11174571D01*
X12536571Y-11136000D02*
X12532286Y-11144571D01*
X12532286Y-11161714D01*
X12536571Y-11170286D01*
X12540857Y-11174571D01*
X12549428Y-11178857D01*
X12575143Y-11178857D01*
X12583714Y-11174571D01*
X12588000Y-11170286D01*
X12592286Y-11161714D01*
X12592286Y-11144571D01*
X12588000Y-11136000D01*
X12532286Y-11093143D02*
X12592286Y-11093143D01*
X12622286Y-11093143D02*
X12618000Y-11097429D01*
X12613714Y-11093143D01*
X12618000Y-11088857D01*
X12622286Y-11093143D01*
X12613714Y-11093143D01*
X12592286Y-11063143D02*
X12592286Y-11028857D01*
X12622286Y-11050286D02*
X12545143Y-11050286D01*
X12536571Y-11046000D01*
X12532286Y-11037429D01*
X12532286Y-11028857D01*
X12532286Y-10998857D02*
X12622286Y-10998857D01*
X12532286Y-10960286D02*
X12579428Y-10960286D01*
X12588000Y-10964571D01*
X12592286Y-10973143D01*
X12592286Y-10986000D01*
X12588000Y-10994571D01*
X12583714Y-10998857D01*
X12592286Y-10878857D02*
X12532286Y-10878857D01*
X12592286Y-10917429D02*
X12545143Y-10917429D01*
X12536571Y-10913143D01*
X12532286Y-10904571D01*
X12532286Y-10891714D01*
X12536571Y-10883143D01*
X12540857Y-10878857D01*
X12532286Y-10836000D02*
X12622286Y-10836000D01*
X12588000Y-10836000D02*
X12592286Y-10827429D01*
X12592286Y-10810286D01*
X12588000Y-10801714D01*
X12583714Y-10797429D01*
X12575143Y-10793143D01*
X12549428Y-10793143D01*
X12540857Y-10797429D01*
X12536571Y-10801714D01*
X12532286Y-10810286D01*
X12532286Y-10827429D01*
X12536571Y-10836000D01*
X12540857Y-10754571D02*
X12536571Y-10750286D01*
X12532286Y-10754571D01*
X12536571Y-10758857D01*
X12540857Y-10754571D01*
X12532286Y-10754571D01*
X12536571Y-10673143D02*
X12532286Y-10681714D01*
X12532286Y-10698857D01*
X12536571Y-10707429D01*
X12540857Y-10711714D01*
X12549428Y-10716000D01*
X12575143Y-10716000D01*
X12583714Y-10711714D01*
X12588000Y-10707429D01*
X12592286Y-10698857D01*
X12592286Y-10681714D01*
X12588000Y-10673143D01*
X12532286Y-10621714D02*
X12536571Y-10630286D01*
X12540857Y-10634571D01*
X12549428Y-10638857D01*
X12575143Y-10638857D01*
X12583714Y-10634571D01*
X12588000Y-10630286D01*
X12592286Y-10621714D01*
X12592286Y-10608857D01*
X12588000Y-10600286D01*
X12583714Y-10596000D01*
X12575143Y-10591714D01*
X12549428Y-10591714D01*
X12540857Y-10596000D01*
X12536571Y-10600286D01*
X12532286Y-10608857D01*
X12532286Y-10621714D01*
X12532286Y-10553143D02*
X12592286Y-10553143D01*
X12583714Y-10553143D02*
X12588000Y-10548857D01*
X12592286Y-10540286D01*
X12592286Y-10527429D01*
X12588000Y-10518857D01*
X12579428Y-10514571D01*
X12532286Y-10514571D01*
X12579428Y-10514571D02*
X12588000Y-10510286D01*
X12592286Y-10501714D01*
X12592286Y-10488857D01*
X12588000Y-10480286D01*
X12579428Y-10476000D01*
X12532286Y-10476000D01*
X12626571Y-10368857D02*
X12510857Y-10446000D01*
X12592286Y-10338857D02*
X12532286Y-10338857D01*
X12583714Y-10338857D02*
X12588000Y-10334571D01*
X12592286Y-10326000D01*
X12592286Y-10313143D01*
X12588000Y-10304571D01*
X12579428Y-10300286D01*
X12532286Y-10300286D01*
X12536571Y-10223143D02*
X12532286Y-10231714D01*
X12532286Y-10248857D01*
X12536571Y-10257429D01*
X12545143Y-10261714D01*
X12579428Y-10261714D01*
X12588000Y-10257429D01*
X12592286Y-10248857D01*
X12592286Y-10231714D01*
X12588000Y-10223143D01*
X12579428Y-10218857D01*
X12570857Y-10218857D01*
X12562286Y-10261714D01*
X12532286Y-10180286D02*
X12592286Y-10180286D01*
X12575143Y-10180286D02*
X12583714Y-10176000D01*
X12588000Y-10171714D01*
X12592286Y-10163143D01*
X12592286Y-10154571D01*
X12532286Y-10086000D02*
X12622286Y-10086000D01*
X12536571Y-10086000D02*
X12532286Y-10094571D01*
X12532286Y-10111714D01*
X12536571Y-10120286D01*
X12540857Y-10124571D01*
X12549428Y-10128857D01*
X12575143Y-10128857D01*
X12583714Y-10124571D01*
X12588000Y-10120286D01*
X12592286Y-10111714D01*
X12592286Y-10094571D01*
X12588000Y-10086000D01*
X12592286Y-10051714D02*
X12532286Y-10030286D01*
X12592286Y-10008857D02*
X12532286Y-10030286D01*
X12510857Y-10038857D01*
X12506571Y-10043143D01*
X12502286Y-10051714D01*
X12536571Y-9978857D02*
X12532286Y-9970286D01*
X12532286Y-9953143D01*
X12536571Y-9944571D01*
X12545143Y-9940286D01*
X12549428Y-9940286D01*
X12558000Y-9944571D01*
X12562286Y-9953143D01*
X12562286Y-9966000D01*
X12566571Y-9974571D01*
X12575143Y-9978857D01*
X12579428Y-9978857D01*
X12588000Y-9974571D01*
X12592286Y-9966000D01*
X12592286Y-9953143D01*
X12588000Y-9944571D01*
X12536571Y-9863143D02*
X12532286Y-9871714D01*
X12532286Y-9888857D01*
X12536571Y-9897429D01*
X12540857Y-9901714D01*
X12549428Y-9906000D01*
X12575143Y-9906000D01*
X12583714Y-9901714D01*
X12588000Y-9897429D01*
X12592286Y-9888857D01*
X12592286Y-9871714D01*
X12588000Y-9863143D01*
X12532286Y-9811714D02*
X12536571Y-9820286D01*
X12540857Y-9824571D01*
X12549428Y-9828857D01*
X12575143Y-9828857D01*
X12583714Y-9824571D01*
X12588000Y-9820286D01*
X12592286Y-9811714D01*
X12592286Y-9798857D01*
X12588000Y-9790286D01*
X12583714Y-9786000D01*
X12575143Y-9781714D01*
X12549428Y-9781714D01*
X12540857Y-9786000D01*
X12536571Y-9790286D01*
X12532286Y-9798857D01*
X12532286Y-9811714D01*
X12592286Y-9704571D02*
X12532286Y-9704571D01*
X12592286Y-9743143D02*
X12545143Y-9743143D01*
X12536571Y-9738857D01*
X12532286Y-9730286D01*
X12532286Y-9717429D01*
X12536571Y-9708857D01*
X12540857Y-9704571D01*
X12592286Y-9674571D02*
X12592286Y-9640286D01*
X12622286Y-9661714D02*
X12545143Y-9661714D01*
X12536571Y-9657429D01*
X12532286Y-9648857D01*
X12532286Y-9640286D01*
X12626571Y-9546000D02*
X12510857Y-9623143D01*
X12532286Y-9516000D02*
X12622286Y-9516000D01*
X12622286Y-9481714D01*
X12618000Y-9473143D01*
X12613714Y-9468857D01*
X12605143Y-9464571D01*
X12592286Y-9464571D01*
X12583714Y-9468857D01*
X12579428Y-9473143D01*
X12575143Y-9481714D01*
X12575143Y-9516000D01*
X12532286Y-9426000D02*
X12592286Y-9426000D01*
X12575143Y-9426000D02*
X12583714Y-9421714D01*
X12588000Y-9417429D01*
X12592286Y-9408857D01*
X12592286Y-9400286D01*
X12532286Y-9357429D02*
X12536571Y-9366000D01*
X12540857Y-9370286D01*
X12549428Y-9374571D01*
X12575143Y-9374571D01*
X12583714Y-9370286D01*
X12588000Y-9366000D01*
X12592286Y-9357429D01*
X12592286Y-9344571D01*
X12588000Y-9336000D01*
X12583714Y-9331714D01*
X12575143Y-9327429D01*
X12549428Y-9327429D01*
X12540857Y-9331714D01*
X12536571Y-9336000D01*
X12532286Y-9344571D01*
X12532286Y-9357429D01*
X12532286Y-9288857D02*
X12622286Y-9288857D01*
X12558000Y-9258857D01*
X12622286Y-9228857D01*
X12532286Y-9228857D01*
X12532286Y-9186000D02*
X12592286Y-9186000D01*
X12622286Y-9186000D02*
X12618000Y-9190286D01*
X12613714Y-9186000D01*
X12618000Y-9181714D01*
X12622286Y-9186000D01*
X12613714Y-9186000D01*
X12536571Y-9104571D02*
X12532286Y-9113143D01*
X12532286Y-9130286D01*
X12536571Y-9138857D01*
X12540857Y-9143143D01*
X12549428Y-9147429D01*
X12575143Y-9147429D01*
X12583714Y-9143143D01*
X12588000Y-9138857D01*
X12592286Y-9130286D01*
X12592286Y-9113143D01*
X12588000Y-9104571D01*
X12532286Y-9066000D02*
X12592286Y-9066000D01*
X12575143Y-9066000D02*
X12583714Y-9061714D01*
X12588000Y-9057429D01*
X12592286Y-9048857D01*
X12592286Y-9040286D01*
X12532286Y-8997429D02*
X12536571Y-9006000D01*
X12540857Y-9010286D01*
X12549428Y-9014571D01*
X12575143Y-9014571D01*
X12583714Y-9010286D01*
X12588000Y-9006000D01*
X12592286Y-8997429D01*
X12592286Y-8984571D01*
X12588000Y-8976000D01*
X12583714Y-8971714D01*
X12575143Y-8967429D01*
X12549428Y-8967429D01*
X12540857Y-8971714D01*
X12536571Y-8976000D01*
X12532286Y-8984571D01*
X12532286Y-8997429D01*
X12523714Y-8950286D02*
X12523714Y-8881714D01*
X12618000Y-8813143D02*
X12622286Y-8821714D01*
X12622286Y-8834571D01*
X12618000Y-8847429D01*
X12609428Y-8856000D01*
X12600857Y-8860286D01*
X12583714Y-8864571D01*
X12570857Y-8864571D01*
X12553714Y-8860286D01*
X12545143Y-8856000D01*
X12536571Y-8847429D01*
X12532286Y-8834571D01*
X12532286Y-8826000D01*
X12536571Y-8813143D01*
X12540857Y-8808857D01*
X12570857Y-8808857D01*
X12570857Y-8826000D01*
X12532286Y-8770286D02*
X12622286Y-8770286D01*
X12622286Y-8736000D01*
X12618000Y-8727429D01*
X12613714Y-8723143D01*
X12605143Y-8718857D01*
X12592286Y-8718857D01*
X12583714Y-8723143D01*
X12579428Y-8727429D01*
X12575143Y-8736000D01*
X12575143Y-8770286D01*
X12536571Y-8684571D02*
X12532286Y-8671714D01*
X12532286Y-8650286D01*
X12536571Y-8641714D01*
X12540857Y-8637429D01*
X12549428Y-8633143D01*
X12558000Y-8633143D01*
X12566571Y-8637429D01*
X12570857Y-8641714D01*
X12575143Y-8650286D01*
X12579428Y-8667429D01*
X12583714Y-8676000D01*
X12588000Y-8680286D01*
X12596571Y-8684571D01*
X12605143Y-8684571D01*
X12613714Y-8680286D01*
X12618000Y-8676000D01*
X12622286Y-8667429D01*
X12622286Y-8646000D01*
X12618000Y-8633143D01*
D11*
X12255500Y-11303000D02*
G75*
G02X12192000Y-11239500I0J63500D01*
G01*
X12192000Y-8318500D02*
G75*
G02X12255500Y-8255000I63500J0D01*
G01*
X13906500Y-8255000D02*
G75*
G02X13970000Y-8318500I0J-63500D01*
G01*
X13970000Y-11239500D02*
G75*
G02X13906500Y-11303000I-63500J0D01*
G01*
X13970000Y-8318500D02*
X13970000Y-11239500D01*
X12255500Y-8255000D02*
X13906500Y-8255000D01*
X12192000Y-11239500D02*
X12192000Y-8318500D01*
X13906500Y-11303000D02*
X12255500Y-11303000D01*
D12*
X12579500Y-8509000D02*
G75*
G03X12579500Y-8509000I-70000J0D01*
G01*
X13722500Y-8509000D02*
G75*
G03X13722500Y-8509000I-70000J0D01*
G01*
X13722500Y-9017000D02*
G75*
G03X13722500Y-9017000I-70000J0D01*
G01*
D13*
G36*
X13642722Y-9765012D02*
G01*
X13642664Y-9754439D01*
X13642508Y-9746787D01*
X13642203Y-9741563D01*
X13641700Y-9738274D01*
X13640951Y-9736426D01*
X13639906Y-9735527D01*
X13638515Y-9735084D01*
X13638335Y-9735041D01*
X13635085Y-9734367D01*
X13628675Y-9733119D01*
X13619785Y-9731428D01*
X13609098Y-9729423D01*
X13597297Y-9727234D01*
X13596882Y-9727157D01*
X13585317Y-9724964D01*
X13575099Y-9722912D01*
X13566840Y-9721134D01*
X13561154Y-9719762D01*
X13558654Y-9718928D01*
X13558610Y-9718888D01*
X13557389Y-9716432D01*
X13555354Y-9711369D01*
X13552945Y-9704791D01*
X13552933Y-9704754D01*
X13549818Y-9696468D01*
X13545851Y-9686700D01*
X13541862Y-9677492D01*
X13541665Y-9677057D01*
X13534858Y-9662059D01*
X13557536Y-9628850D01*
X13564450Y-9618663D01*
X13570630Y-9609434D01*
X13575727Y-9601700D01*
X13579387Y-9595994D01*
X13581261Y-9592851D01*
X13581400Y-9592552D01*
X13580781Y-9590268D01*
X13577796Y-9586002D01*
X13572305Y-9579587D01*
X13564167Y-9570858D01*
X13555508Y-9561947D01*
X13546975Y-9553356D01*
X13539189Y-9545667D01*
X13532630Y-9539344D01*
X13527779Y-9534848D01*
X13525117Y-9532642D01*
X13524980Y-9532560D01*
X13523154Y-9532317D01*
X13520170Y-9533235D01*
X13515628Y-9535543D01*
X13509123Y-9539466D01*
X13500253Y-9545233D01*
X13488834Y-9552921D01*
X13478784Y-9559743D01*
X13469770Y-9565842D01*
X13462315Y-9570864D01*
X13456943Y-9574458D01*
X13454178Y-9576271D01*
X13453990Y-9576385D01*
X13451341Y-9576164D01*
X13446191Y-9574486D01*
X13439515Y-9571686D01*
X13437383Y-9570688D01*
X13427884Y-9566333D01*
X13417106Y-9561687D01*
X13407781Y-9557912D01*
X13400859Y-9555193D01*
X13395599Y-9553033D01*
X13392850Y-9551784D01*
X13392638Y-9551629D01*
X13392288Y-9549333D01*
X13391326Y-9543921D01*
X13389891Y-9536113D01*
X13388119Y-9526628D01*
X13386147Y-9516186D01*
X13384113Y-9505506D01*
X13382151Y-9495307D01*
X13380401Y-9486311D01*
X13378998Y-9479235D01*
X13378079Y-9474799D01*
X13377819Y-9473712D01*
X13377178Y-9472588D01*
X13375730Y-9471740D01*
X13372987Y-9471129D01*
X13368459Y-9470717D01*
X13361658Y-9470466D01*
X13352095Y-9470338D01*
X13339282Y-9470295D01*
X13334030Y-9470292D01*
X13291315Y-9470292D01*
X13289291Y-9480550D01*
X13288193Y-9486257D01*
X13286590Y-9494773D01*
X13284677Y-9505063D01*
X13282645Y-9516090D01*
X13282087Y-9519139D01*
X13280108Y-9529315D01*
X13278163Y-9538180D01*
X13276430Y-9544989D01*
X13275091Y-9549000D01*
X13274692Y-9549668D01*
X13271866Y-9551308D01*
X13266389Y-9553660D01*
X13259341Y-9556268D01*
X13257823Y-9556786D01*
X13248410Y-9560204D01*
X13237790Y-9564448D01*
X13228253Y-9568600D01*
X13228208Y-9568621D01*
X13213247Y-9575536D01*
X13146338Y-9530049D01*
X13117088Y-9559250D01*
X13108383Y-9568082D01*
X13100709Y-9576138D01*
X13094476Y-9582964D01*
X13090094Y-9588109D01*
X13087973Y-9591121D01*
X13087838Y-9591553D01*
X13088898Y-9594089D01*
X13091845Y-9599264D01*
X13096329Y-9606513D01*
X13102002Y-9615271D01*
X13108354Y-9624739D01*
X13114833Y-9634348D01*
X13120471Y-9642916D01*
X13124921Y-9649898D01*
X13127836Y-9654751D01*
X13128869Y-9656922D01*
X13127995Y-9659571D01*
X13125691Y-9664594D01*
X13122437Y-9670955D01*
X13122075Y-9671629D01*
X13117779Y-9680195D01*
X13115672Y-9686069D01*
X13115650Y-9689723D01*
X13117607Y-9691627D01*
X13117635Y-9691638D01*
X13119953Y-9692590D01*
X13125456Y-9694860D01*
X13133718Y-9698272D01*
X13144313Y-9702650D01*
X13156815Y-9707818D01*
X13170798Y-9713601D01*
X13184336Y-9719201D01*
X13199277Y-9725355D01*
X13213117Y-9731006D01*
X13225433Y-9735984D01*
X13235800Y-9740119D01*
X13243794Y-9743243D01*
X13248991Y-9745186D01*
X13250931Y-9745785D01*
X13253156Y-9744283D01*
X13256702Y-9740356D01*
X13260611Y-9735119D01*
X13272975Y-9720206D01*
X13287148Y-9708549D01*
X13302830Y-9700288D01*
X13319722Y-9695563D01*
X13337528Y-9694514D01*
X13345746Y-9695277D01*
X13362797Y-9699432D01*
X13377854Y-9706588D01*
X13390769Y-9716301D01*
X13401394Y-9728127D01*
X13409579Y-9741622D01*
X13415177Y-9756343D01*
X13418038Y-9771846D01*
X13418016Y-9787686D01*
X13414959Y-9803421D01*
X13408722Y-9818605D01*
X13399154Y-9832797D01*
X13393743Y-9838720D01*
X13379848Y-9850080D01*
X13364664Y-9857989D01*
X13348633Y-9862501D01*
X13332199Y-9863668D01*
X13315803Y-9861543D01*
X13299888Y-9856178D01*
X13284897Y-9847626D01*
X13271273Y-9835940D01*
X13260611Y-9822881D01*
X13256536Y-9817441D01*
X13253028Y-9813599D01*
X13250927Y-9812215D01*
X13248636Y-9812940D01*
X13243163Y-9815000D01*
X13234933Y-9818225D01*
X13224368Y-9822448D01*
X13211895Y-9827498D01*
X13197936Y-9833205D01*
X13184333Y-9838815D01*
X13169380Y-9845003D01*
X13155523Y-9850736D01*
X13143189Y-9855836D01*
X13132804Y-9860127D01*
X13124792Y-9863435D01*
X13119580Y-9865582D01*
X13117635Y-9866378D01*
X13115658Y-9868257D01*
X13115663Y-9871893D01*
X13117756Y-9877752D01*
X13122039Y-9886303D01*
X13122075Y-9886371D01*
X13125399Y-9892809D01*
X13127820Y-9898014D01*
X13128860Y-9900949D01*
X13128869Y-9901078D01*
X13127814Y-9903288D01*
X13124882Y-9908165D01*
X13120417Y-9915167D01*
X13114769Y-9923749D01*
X13108354Y-9933261D01*
X13101859Y-9942946D01*
X13096210Y-9951675D01*
X13091758Y-9958882D01*
X13088851Y-9964002D01*
X13087838Y-9966447D01*
X13089169Y-9968699D01*
X13092889Y-9973226D01*
X13098587Y-9979576D01*
X13105855Y-9987296D01*
X13114283Y-9995935D01*
X13117098Y-9998760D01*
X13146358Y-10027971D01*
X13178990Y-10005737D01*
X13189010Y-9998980D01*
X13198004Y-9993049D01*
X13205449Y-9988278D01*
X13210825Y-9984999D01*
X13213611Y-9983545D01*
X13213809Y-9983503D01*
X13216434Y-9984269D01*
X13221716Y-9986331D01*
X13228769Y-9989332D01*
X13233491Y-9991438D01*
X13242531Y-9995375D01*
X13251663Y-9999084D01*
X13259380Y-10001959D01*
X13261731Y-10002740D01*
X13268008Y-10004958D01*
X13272859Y-10007127D01*
X13274692Y-10008319D01*
X13275814Y-10010948D01*
X13277405Y-10016686D01*
X13279283Y-10024788D01*
X13281270Y-10034511D01*
X13282087Y-10038862D01*
X13284117Y-10049910D01*
X13286083Y-10060508D01*
X13287791Y-10069620D01*
X13289048Y-10076209D01*
X13289291Y-10077450D01*
X13291315Y-10087708D01*
X13334030Y-10087708D01*
X13348075Y-10087685D01*
X13358702Y-10087590D01*
X13366399Y-10087386D01*
X13371654Y-10087034D01*
X13374957Y-10086496D01*
X13376795Y-10085733D01*
X13377659Y-10084709D01*
X13377819Y-10084289D01*
X13378387Y-10081753D01*
X13379520Y-10076152D01*
X13381082Y-10068204D01*
X13382935Y-10058629D01*
X13384943Y-10048147D01*
X13386969Y-10037477D01*
X13388875Y-10027339D01*
X13390526Y-10018452D01*
X13391784Y-10011536D01*
X13392512Y-10007311D01*
X13392638Y-10006371D01*
X13394324Y-10005519D01*
X13398813Y-10003634D01*
X13405257Y-10001068D01*
X13407781Y-10000088D01*
X13417531Y-9996135D01*
X13428304Y-9991481D01*
X13437383Y-9987312D01*
X13444325Y-9984245D01*
X13450029Y-9982204D01*
X13453522Y-9981523D01*
X13453990Y-9981632D01*
X13456201Y-9983072D01*
X13461117Y-9986359D01*
X13468215Y-9991141D01*
X13476972Y-9997065D01*
X13486864Y-10003779D01*
X13488817Y-10005106D01*
X13500386Y-10012895D01*
X13509196Y-10018621D01*
X13515651Y-10022512D01*
X13520159Y-10024796D01*
X13523124Y-10025701D01*
X13524951Y-10025455D01*
X13524963Y-10025449D01*
X13527364Y-10023517D01*
X13532005Y-10019245D01*
X13538406Y-10013095D01*
X13546085Y-10005530D01*
X13554562Y-9997014D01*
X13555508Y-9996054D01*
X13565901Y-9985321D01*
X13573532Y-9977039D01*
X13578543Y-9971040D01*
X13581073Y-9967158D01*
X13581400Y-9965448D01*
X13579975Y-9962953D01*
X13576684Y-9957775D01*
X13571879Y-9950448D01*
X13565911Y-9941508D01*
X13559131Y-9931489D01*
X13557536Y-9929150D01*
X13534858Y-9895941D01*
X13541665Y-9880944D01*
X13545631Y-9871823D01*
X13549621Y-9862033D01*
X13552802Y-9853617D01*
X13552933Y-9853246D01*
X13555342Y-9846663D01*
X13557380Y-9841588D01*
X13558606Y-9839116D01*
X13558610Y-9839112D01*
X13560827Y-9838327D01*
X13566278Y-9836993D01*
X13574352Y-9835243D01*
X13584435Y-9833208D01*
X13595914Y-9831022D01*
X13596882Y-9830843D01*
X13608710Y-9828650D01*
X13619446Y-9826636D01*
X13628408Y-9824932D01*
X13634915Y-9823667D01*
X13638283Y-9822972D01*
X13638335Y-9822959D01*
X13639767Y-9822536D01*
X13640849Y-9821713D01*
X13641629Y-9819997D01*
X13642157Y-9816894D01*
X13642482Y-9811912D01*
X13642653Y-9804558D01*
X13642719Y-9794337D01*
X13642731Y-9780758D01*
X13642731Y-9779000D01*
X13642722Y-9765012D01*
X13642722Y-9765012D01*
G37*
X13642722Y-9765012D02*
X13642664Y-9754439D01*
X13642508Y-9746787D01*
X13642203Y-9741563D01*
X13641700Y-9738274D01*
X13640951Y-9736426D01*
X13639906Y-9735527D01*
X13638515Y-9735084D01*
X13638335Y-9735041D01*
X13635085Y-9734367D01*
X13628675Y-9733119D01*
X13619785Y-9731428D01*
X13609098Y-9729423D01*
X13597297Y-9727234D01*
X13596882Y-9727157D01*
X13585317Y-9724964D01*
X13575099Y-9722912D01*
X13566840Y-9721134D01*
X13561154Y-9719762D01*
X13558654Y-9718928D01*
X13558610Y-9718888D01*
X13557389Y-9716432D01*
X13555354Y-9711369D01*
X13552945Y-9704791D01*
X13552933Y-9704754D01*
X13549818Y-9696468D01*
X13545851Y-9686700D01*
X13541862Y-9677492D01*
X13541665Y-9677057D01*
X13534858Y-9662059D01*
X13557536Y-9628850D01*
X13564450Y-9618663D01*
X13570630Y-9609434D01*
X13575727Y-9601700D01*
X13579387Y-9595994D01*
X13581261Y-9592851D01*
X13581400Y-9592552D01*
X13580781Y-9590268D01*
X13577796Y-9586002D01*
X13572305Y-9579587D01*
X13564167Y-9570858D01*
X13555508Y-9561947D01*
X13546975Y-9553356D01*
X13539189Y-9545667D01*
X13532630Y-9539344D01*
X13527779Y-9534848D01*
X13525117Y-9532642D01*
X13524980Y-9532560D01*
X13523154Y-9532317D01*
X13520170Y-9533235D01*
X13515628Y-9535543D01*
X13509123Y-9539466D01*
X13500253Y-9545233D01*
X13488834Y-9552921D01*
X13478784Y-9559743D01*
X13469770Y-9565842D01*
X13462315Y-9570864D01*
X13456943Y-9574458D01*
X13454178Y-9576271D01*
X13453990Y-9576385D01*
X13451341Y-9576164D01*
X13446191Y-9574486D01*
X13439515Y-9571686D01*
X13437383Y-9570688D01*
X13427884Y-9566333D01*
X13417106Y-9561687D01*
X13407781Y-9557912D01*
X13400859Y-9555193D01*
X13395599Y-9553033D01*
X13392850Y-9551784D01*
X13392638Y-9551629D01*
X13392288Y-9549333D01*
X13391326Y-9543921D01*
X13389891Y-9536113D01*
X13388119Y-9526628D01*
X13386147Y-9516186D01*
X13384113Y-9505506D01*
X13382151Y-9495307D01*
X13380401Y-9486311D01*
X13378998Y-9479235D01*
X13378079Y-9474799D01*
X13377819Y-9473712D01*
X13377178Y-9472588D01*
X13375730Y-9471740D01*
X13372987Y-9471129D01*
X13368459Y-9470717D01*
X13361658Y-9470466D01*
X13352095Y-9470338D01*
X13339282Y-9470295D01*
X13334030Y-9470292D01*
X13291315Y-9470292D01*
X13289291Y-9480550D01*
X13288193Y-9486257D01*
X13286590Y-9494773D01*
X13284677Y-9505063D01*
X13282645Y-9516090D01*
X13282087Y-9519139D01*
X13280108Y-9529315D01*
X13278163Y-9538180D01*
X13276430Y-9544989D01*
X13275091Y-9549000D01*
X13274692Y-9549668D01*
X13271866Y-9551308D01*
X13266389Y-9553660D01*
X13259341Y-9556268D01*
X13257823Y-9556786D01*
X13248410Y-9560204D01*
X13237790Y-9564448D01*
X13228253Y-9568600D01*
X13228208Y-9568621D01*
X13213247Y-9575536D01*
X13146338Y-9530049D01*
X13117088Y-9559250D01*
X13108383Y-9568082D01*
X13100709Y-9576138D01*
X13094476Y-9582964D01*
X13090094Y-9588109D01*
X13087973Y-9591121D01*
X13087838Y-9591553D01*
X13088898Y-9594089D01*
X13091845Y-9599264D01*
X13096329Y-9606513D01*
X13102002Y-9615271D01*
X13108354Y-9624739D01*
X13114833Y-9634348D01*
X13120471Y-9642916D01*
X13124921Y-9649898D01*
X13127836Y-9654751D01*
X13128869Y-9656922D01*
X13127995Y-9659571D01*
X13125691Y-9664594D01*
X13122437Y-9670955D01*
X13122075Y-9671629D01*
X13117779Y-9680195D01*
X13115672Y-9686069D01*
X13115650Y-9689723D01*
X13117607Y-9691627D01*
X13117635Y-9691638D01*
X13119953Y-9692590D01*
X13125456Y-9694860D01*
X13133718Y-9698272D01*
X13144313Y-9702650D01*
X13156815Y-9707818D01*
X13170798Y-9713601D01*
X13184336Y-9719201D01*
X13199277Y-9725355D01*
X13213117Y-9731006D01*
X13225433Y-9735984D01*
X13235800Y-9740119D01*
X13243794Y-9743243D01*
X13248991Y-9745186D01*
X13250931Y-9745785D01*
X13253156Y-9744283D01*
X13256702Y-9740356D01*
X13260611Y-9735119D01*
X13272975Y-9720206D01*
X13287148Y-9708549D01*
X13302830Y-9700288D01*
X13319722Y-9695563D01*
X13337528Y-9694514D01*
X13345746Y-9695277D01*
X13362797Y-9699432D01*
X13377854Y-9706588D01*
X13390769Y-9716301D01*
X13401394Y-9728127D01*
X13409579Y-9741622D01*
X13415177Y-9756343D01*
X13418038Y-9771846D01*
X13418016Y-9787686D01*
X13414959Y-9803421D01*
X13408722Y-9818605D01*
X13399154Y-9832797D01*
X13393743Y-9838720D01*
X13379848Y-9850080D01*
X13364664Y-9857989D01*
X13348633Y-9862501D01*
X13332199Y-9863668D01*
X13315803Y-9861543D01*
X13299888Y-9856178D01*
X13284897Y-9847626D01*
X13271273Y-9835940D01*
X13260611Y-9822881D01*
X13256536Y-9817441D01*
X13253028Y-9813599D01*
X13250927Y-9812215D01*
X13248636Y-9812940D01*
X13243163Y-9815000D01*
X13234933Y-9818225D01*
X13224368Y-9822448D01*
X13211895Y-9827498D01*
X13197936Y-9833205D01*
X13184333Y-9838815D01*
X13169380Y-9845003D01*
X13155523Y-9850736D01*
X13143189Y-9855836D01*
X13132804Y-9860127D01*
X13124792Y-9863435D01*
X13119580Y-9865582D01*
X13117635Y-9866378D01*
X13115658Y-9868257D01*
X13115663Y-9871893D01*
X13117756Y-9877752D01*
X13122039Y-9886303D01*
X13122075Y-9886371D01*
X13125399Y-9892809D01*
X13127820Y-9898014D01*
X13128860Y-9900949D01*
X13128869Y-9901078D01*
X13127814Y-9903288D01*
X13124882Y-9908165D01*
X13120417Y-9915167D01*
X13114769Y-9923749D01*
X13108354Y-9933261D01*
X13101859Y-9942946D01*
X13096210Y-9951675D01*
X13091758Y-9958882D01*
X13088851Y-9964002D01*
X13087838Y-9966447D01*
X13089169Y-9968699D01*
X13092889Y-9973226D01*
X13098587Y-9979576D01*
X13105855Y-9987296D01*
X13114283Y-9995935D01*
X13117098Y-9998760D01*
X13146358Y-10027971D01*
X13178990Y-10005737D01*
X13189010Y-9998980D01*
X13198004Y-9993049D01*
X13205449Y-9988278D01*
X13210825Y-9984999D01*
X13213611Y-9983545D01*
X13213809Y-9983503D01*
X13216434Y-9984269D01*
X13221716Y-9986331D01*
X13228769Y-9989332D01*
X13233491Y-9991438D01*
X13242531Y-9995375D01*
X13251663Y-9999084D01*
X13259380Y-10001959D01*
X13261731Y-10002740D01*
X13268008Y-10004958D01*
X13272859Y-10007127D01*
X13274692Y-10008319D01*
X13275814Y-10010948D01*
X13277405Y-10016686D01*
X13279283Y-10024788D01*
X13281270Y-10034511D01*
X13282087Y-10038862D01*
X13284117Y-10049910D01*
X13286083Y-10060508D01*
X13287791Y-10069620D01*
X13289048Y-10076209D01*
X13289291Y-10077450D01*
X13291315Y-10087708D01*
X13334030Y-10087708D01*
X13348075Y-10087685D01*
X13358702Y-10087590D01*
X13366399Y-10087386D01*
X13371654Y-10087034D01*
X13374957Y-10086496D01*
X13376795Y-10085733D01*
X13377659Y-10084709D01*
X13377819Y-10084289D01*
X13378387Y-10081753D01*
X13379520Y-10076152D01*
X13381082Y-10068204D01*
X13382935Y-10058629D01*
X13384943Y-10048147D01*
X13386969Y-10037477D01*
X13388875Y-10027339D01*
X13390526Y-10018452D01*
X13391784Y-10011536D01*
X13392512Y-10007311D01*
X13392638Y-10006371D01*
X13394324Y-10005519D01*
X13398813Y-10003634D01*
X13405257Y-10001068D01*
X13407781Y-10000088D01*
X13417531Y-9996135D01*
X13428304Y-9991481D01*
X13437383Y-9987312D01*
X13444325Y-9984245D01*
X13450029Y-9982204D01*
X13453522Y-9981523D01*
X13453990Y-9981632D01*
X13456201Y-9983072D01*
X13461117Y-9986359D01*
X13468215Y-9991141D01*
X13476972Y-9997065D01*
X13486864Y-10003779D01*
X13488817Y-10005106D01*
X13500386Y-10012895D01*
X13509196Y-10018621D01*
X13515651Y-10022512D01*
X13520159Y-10024796D01*
X13523124Y-10025701D01*
X13524951Y-10025455D01*
X13524963Y-10025449D01*
X13527364Y-10023517D01*
X13532005Y-10019245D01*
X13538406Y-10013095D01*
X13546085Y-10005530D01*
X13554562Y-9997014D01*
X13555508Y-9996054D01*
X13565901Y-9985321D01*
X13573532Y-9977039D01*
X13578543Y-9971040D01*
X13581073Y-9967158D01*
X13581400Y-9965448D01*
X13579975Y-9962953D01*
X13576684Y-9957775D01*
X13571879Y-9950448D01*
X13565911Y-9941508D01*
X13559131Y-9931489D01*
X13557536Y-9929150D01*
X13534858Y-9895941D01*
X13541665Y-9880944D01*
X13545631Y-9871823D01*
X13549621Y-9862033D01*
X13552802Y-9853617D01*
X13552933Y-9853246D01*
X13555342Y-9846663D01*
X13557380Y-9841588D01*
X13558606Y-9839116D01*
X13558610Y-9839112D01*
X13560827Y-9838327D01*
X13566278Y-9836993D01*
X13574352Y-9835243D01*
X13584435Y-9833208D01*
X13595914Y-9831022D01*
X13596882Y-9830843D01*
X13608710Y-9828650D01*
X13619446Y-9826636D01*
X13628408Y-9824932D01*
X13634915Y-9823667D01*
X13638283Y-9822972D01*
X13638335Y-9822959D01*
X13639767Y-9822536D01*
X13640849Y-9821713D01*
X13641629Y-9819997D01*
X13642157Y-9816894D01*
X13642482Y-9811912D01*
X13642653Y-9804558D01*
X13642719Y-9794337D01*
X13642731Y-9780758D01*
X13642731Y-9779000D01*
X13642722Y-9765012D01*
G36*
X13006716Y-9354478D02*
G01*
X13001664Y-9346747D01*
X12997141Y-9343019D01*
X12988934Y-9340065D01*
X12982439Y-9339830D01*
X12973755Y-9340362D01*
X12964990Y-9360389D01*
X12960511Y-9370126D01*
X12956909Y-9376489D01*
X12953788Y-9379797D01*
X12950756Y-9380372D01*
X12947419Y-9378534D01*
X12945208Y-9376508D01*
X12941661Y-9370611D01*
X12941412Y-9364198D01*
X12944176Y-9358307D01*
X12949668Y-9353980D01*
X12951607Y-9353206D01*
X12957664Y-9349499D01*
X12960245Y-9345235D01*
X12962453Y-9339385D01*
X12954082Y-9339385D01*
X12948385Y-9339902D01*
X12943581Y-9341928D01*
X12938065Y-9346174D01*
X12937349Y-9346805D01*
X12932441Y-9351528D01*
X12929808Y-9355588D01*
X12928596Y-9360667D01*
X12928200Y-9364878D01*
X12928101Y-9372410D01*
X12929353Y-9377771D01*
X12931213Y-9381116D01*
X12935302Y-9386373D01*
X12939725Y-9390012D01*
X12945287Y-9392315D01*
X12952795Y-9393564D01*
X12963055Y-9394041D01*
X12968262Y-9394079D01*
X12974505Y-9393950D01*
X12974505Y-9382153D01*
X12971156Y-9382016D01*
X12970608Y-9381675D01*
X12971353Y-9379425D01*
X12973325Y-9374582D01*
X12976128Y-9368109D01*
X12976731Y-9366756D01*
X12980890Y-9358576D01*
X12984546Y-9354069D01*
X12987970Y-9353078D01*
X12991435Y-9355447D01*
X12992966Y-9357404D01*
X12996028Y-9364464D01*
X12995522Y-9371072D01*
X12991785Y-9376604D01*
X12985153Y-9380436D01*
X12979888Y-9381665D01*
X12974505Y-9382153D01*
X12974505Y-9393950D01*
X12980428Y-9393827D01*
X12989429Y-9392897D01*
X12995983Y-9391054D01*
X13000809Y-9388064D01*
X13004623Y-9383692D01*
X13005856Y-9381786D01*
X13009066Y-9373127D01*
X13009268Y-9363648D01*
X13006716Y-9354478D01*
X13006716Y-9354478D01*
G37*
X13006716Y-9354478D02*
X13001664Y-9346747D01*
X12997141Y-9343019D01*
X12988934Y-9340065D01*
X12982439Y-9339830D01*
X12973755Y-9340362D01*
X12964990Y-9360389D01*
X12960511Y-9370126D01*
X12956909Y-9376489D01*
X12953788Y-9379797D01*
X12950756Y-9380372D01*
X12947419Y-9378534D01*
X12945208Y-9376508D01*
X12941661Y-9370611D01*
X12941412Y-9364198D01*
X12944176Y-9358307D01*
X12949668Y-9353980D01*
X12951607Y-9353206D01*
X12957664Y-9349499D01*
X12960245Y-9345235D01*
X12962453Y-9339385D01*
X12954082Y-9339385D01*
X12948385Y-9339902D01*
X12943581Y-9341928D01*
X12938065Y-9346174D01*
X12937349Y-9346805D01*
X12932441Y-9351528D01*
X12929808Y-9355588D01*
X12928596Y-9360667D01*
X12928200Y-9364878D01*
X12928101Y-9372410D01*
X12929353Y-9377771D01*
X12931213Y-9381116D01*
X12935302Y-9386373D01*
X12939725Y-9390012D01*
X12945287Y-9392315D01*
X12952795Y-9393564D01*
X12963055Y-9394041D01*
X12968262Y-9394079D01*
X12974505Y-9393950D01*
X12974505Y-9382153D01*
X12971156Y-9382016D01*
X12970608Y-9381675D01*
X12971353Y-9379425D01*
X12973325Y-9374582D01*
X12976128Y-9368109D01*
X12976731Y-9366756D01*
X12980890Y-9358576D01*
X12984546Y-9354069D01*
X12987970Y-9353078D01*
X12991435Y-9355447D01*
X12992966Y-9357404D01*
X12996028Y-9364464D01*
X12995522Y-9371072D01*
X12991785Y-9376604D01*
X12985153Y-9380436D01*
X12979888Y-9381665D01*
X12974505Y-9382153D01*
X12974505Y-9393950D01*
X12980428Y-9393827D01*
X12989429Y-9392897D01*
X12995983Y-9391054D01*
X13000809Y-9388064D01*
X13004623Y-9383692D01*
X13005856Y-9381786D01*
X13009066Y-9373127D01*
X13009268Y-9363648D01*
X13006716Y-9354478D01*
G36*
X13007822Y-9421919D02*
G01*
X13006801Y-9419584D01*
X13002387Y-9414010D01*
X12996003Y-9409243D01*
X12989191Y-9406295D01*
X12985833Y-9405815D01*
X12981144Y-9407424D01*
X12978663Y-9410953D01*
X12977161Y-9414736D01*
X12976884Y-9416468D01*
X12978893Y-9417311D01*
X12983265Y-9418977D01*
X12985240Y-9419708D01*
X12992073Y-9423805D01*
X12995481Y-9429738D01*
X12995376Y-9437345D01*
X12995242Y-9437908D01*
X12993316Y-9441970D01*
X12989562Y-9444955D01*
X12983519Y-9446995D01*
X12974725Y-9448216D01*
X12962719Y-9448750D01*
X12956330Y-9448800D01*
X12946260Y-9448825D01*
X12939395Y-9448987D01*
X12935033Y-9449420D01*
X12932472Y-9450255D01*
X12931010Y-9451624D01*
X12929944Y-9453659D01*
X12929890Y-9453777D01*
X12928233Y-9457696D01*
X12927623Y-9459638D01*
X12929468Y-9459937D01*
X12934568Y-9460192D01*
X12942269Y-9460386D01*
X12951919Y-9460500D01*
X12958982Y-9460523D01*
X12972647Y-9460407D01*
X12983015Y-9459952D01*
X12990689Y-9459000D01*
X12996275Y-9457392D01*
X13000379Y-9454969D01*
X13003605Y-9451571D01*
X13005856Y-9448217D01*
X13008852Y-9440150D01*
X13009528Y-9430762D01*
X13007822Y-9421919D01*
X13007822Y-9421919D01*
G37*
X13007822Y-9421919D02*
X13006801Y-9419584D01*
X13002387Y-9414010D01*
X12996003Y-9409243D01*
X12989191Y-9406295D01*
X12985833Y-9405815D01*
X12981144Y-9407424D01*
X12978663Y-9410953D01*
X12977161Y-9414736D01*
X12976884Y-9416468D01*
X12978893Y-9417311D01*
X12983265Y-9418977D01*
X12985240Y-9419708D01*
X12992073Y-9423805D01*
X12995481Y-9429738D01*
X12995376Y-9437345D01*
X12995242Y-9437908D01*
X12993316Y-9441970D01*
X12989562Y-9444955D01*
X12983519Y-9446995D01*
X12974725Y-9448216D01*
X12962719Y-9448750D01*
X12956330Y-9448800D01*
X12946260Y-9448825D01*
X12939395Y-9448987D01*
X12935033Y-9449420D01*
X12932472Y-9450255D01*
X12931010Y-9451624D01*
X12929944Y-9453659D01*
X12929890Y-9453777D01*
X12928233Y-9457696D01*
X12927623Y-9459638D01*
X12929468Y-9459937D01*
X12934568Y-9460192D01*
X12942269Y-9460386D01*
X12951919Y-9460500D01*
X12958982Y-9460523D01*
X12972647Y-9460407D01*
X12983015Y-9459952D01*
X12990689Y-9459000D01*
X12996275Y-9457392D01*
X13000379Y-9454969D01*
X13003605Y-9451571D01*
X13005856Y-9448217D01*
X13008852Y-9440150D01*
X13009528Y-9430762D01*
X13007822Y-9421919D01*
G36*
X13008147Y-9490267D02*
G01*
X13005588Y-9484641D01*
X13002488Y-9480225D01*
X12999020Y-9476990D01*
X12994548Y-9474756D01*
X12988431Y-9473345D01*
X12980030Y-9472579D01*
X12968706Y-9472278D01*
X12961249Y-9472246D01*
X12932158Y-9472246D01*
X12929890Y-9477223D01*
X12928233Y-9481142D01*
X12927623Y-9483084D01*
X12929439Y-9483456D01*
X12934335Y-9483751D01*
X12941485Y-9483931D01*
X12947161Y-9483969D01*
X12955363Y-9484134D01*
X12961869Y-9484578D01*
X12965853Y-9485226D01*
X12966700Y-9485741D01*
X12965835Y-9489202D01*
X12963618Y-9494636D01*
X12960611Y-9500928D01*
X12957381Y-9506963D01*
X12954490Y-9511628D01*
X12952504Y-9513807D01*
X12952482Y-9513816D01*
X12948806Y-9513629D01*
X12945297Y-9511948D01*
X12942447Y-9508996D01*
X12941494Y-9504688D01*
X12941605Y-9501007D01*
X12941687Y-9495793D01*
X12940465Y-9493056D01*
X12937238Y-9491412D01*
X12936629Y-9491205D01*
X12932026Y-9490492D01*
X12929231Y-9492398D01*
X12927899Y-9497365D01*
X12927653Y-9502730D01*
X12929479Y-9512386D01*
X12932087Y-9517384D01*
X12938213Y-9523557D01*
X12945733Y-9526831D01*
X12953679Y-9527125D01*
X12961083Y-9524358D01*
X12965723Y-9520195D01*
X12968321Y-9516040D01*
X12971609Y-9509508D01*
X12974944Y-9501896D01*
X12975454Y-9500627D01*
X12979143Y-9492267D01*
X12982395Y-9487447D01*
X12985628Y-9485897D01*
X12989261Y-9487345D01*
X12992100Y-9489831D01*
X12995596Y-9495706D01*
X12995858Y-9502171D01*
X12993164Y-9508099D01*
X12987791Y-9512366D01*
X12986405Y-9512926D01*
X12981306Y-9516187D01*
X12977521Y-9520947D01*
X12974415Y-9526954D01*
X12983223Y-9526954D01*
X12988605Y-9526600D01*
X12992847Y-9525084D01*
X12997372Y-9521723D01*
X13000858Y-9518497D01*
X13005794Y-9513479D01*
X13008445Y-9509581D01*
X13009509Y-9505394D01*
X13009685Y-9500654D01*
X13008147Y-9490267D01*
X13008147Y-9490267D01*
G37*
X13008147Y-9490267D02*
X13005588Y-9484641D01*
X13002488Y-9480225D01*
X12999020Y-9476990D01*
X12994548Y-9474756D01*
X12988431Y-9473345D01*
X12980030Y-9472579D01*
X12968706Y-9472278D01*
X12961249Y-9472246D01*
X12932158Y-9472246D01*
X12929890Y-9477223D01*
X12928233Y-9481142D01*
X12927623Y-9483084D01*
X12929439Y-9483456D01*
X12934335Y-9483751D01*
X12941485Y-9483931D01*
X12947161Y-9483969D01*
X12955363Y-9484134D01*
X12961869Y-9484578D01*
X12965853Y-9485226D01*
X12966700Y-9485741D01*
X12965835Y-9489202D01*
X12963618Y-9494636D01*
X12960611Y-9500928D01*
X12957381Y-9506963D01*
X12954490Y-9511628D01*
X12952504Y-9513807D01*
X12952482Y-9513816D01*
X12948806Y-9513629D01*
X12945297Y-9511948D01*
X12942447Y-9508996D01*
X12941494Y-9504688D01*
X12941605Y-9501007D01*
X12941687Y-9495793D01*
X12940465Y-9493056D01*
X12937238Y-9491412D01*
X12936629Y-9491205D01*
X12932026Y-9490492D01*
X12929231Y-9492398D01*
X12927899Y-9497365D01*
X12927653Y-9502730D01*
X12929479Y-9512386D01*
X12932087Y-9517384D01*
X12938213Y-9523557D01*
X12945733Y-9526831D01*
X12953679Y-9527125D01*
X12961083Y-9524358D01*
X12965723Y-9520195D01*
X12968321Y-9516040D01*
X12971609Y-9509508D01*
X12974944Y-9501896D01*
X12975454Y-9500627D01*
X12979143Y-9492267D01*
X12982395Y-9487447D01*
X12985628Y-9485897D01*
X12989261Y-9487345D01*
X12992100Y-9489831D01*
X12995596Y-9495706D01*
X12995858Y-9502171D01*
X12993164Y-9508099D01*
X12987791Y-9512366D01*
X12986405Y-9512926D01*
X12981306Y-9516187D01*
X12977521Y-9520947D01*
X12974415Y-9526954D01*
X12983223Y-9526954D01*
X12988605Y-9526600D01*
X12992847Y-9525084D01*
X12997372Y-9521723D01*
X13000858Y-9518497D01*
X13005794Y-9513479D01*
X13008445Y-9509581D01*
X13009509Y-9505394D01*
X13009685Y-9500654D01*
X13008147Y-9490267D01*
G36*
X13007834Y-9539407D02*
G01*
X13002693Y-9539109D01*
X12994881Y-9538875D01*
X12985014Y-9538725D01*
X12974666Y-9538677D01*
X12939647Y-9538677D01*
X12933464Y-9544860D01*
X12929654Y-9549121D01*
X12928110Y-9552861D01*
X12928208Y-9557973D01*
X12928457Y-9560002D01*
X12929180Y-9566345D01*
X12929594Y-9571591D01*
X12929633Y-9572869D01*
X12929382Y-9577180D01*
X12928754Y-9583346D01*
X12928457Y-9585736D01*
X12927997Y-9591608D01*
X12928995Y-9595554D01*
X12932077Y-9599466D01*
X12933464Y-9600879D01*
X12939647Y-9607062D01*
X13005150Y-9607062D01*
X13007417Y-9602085D01*
X13009097Y-9597800D01*
X13009685Y-9595293D01*
X13007826Y-9594650D01*
X13002634Y-9594049D01*
X12994683Y-9593530D01*
X12984545Y-9593134D01*
X12975981Y-9592942D01*
X12942277Y-9592408D01*
X12941617Y-9587744D01*
X12942079Y-9583502D01*
X12943571Y-9581424D01*
X12946362Y-9580843D01*
X12952307Y-9580347D01*
X12960653Y-9579975D01*
X12970647Y-9579768D01*
X12975790Y-9579738D01*
X13005395Y-9579708D01*
X13007540Y-9573555D01*
X13008998Y-9569200D01*
X13009678Y-9566831D01*
X13009685Y-9566762D01*
X13007836Y-9566525D01*
X13002709Y-9566263D01*
X12994935Y-9566001D01*
X12985143Y-9565758D01*
X12975981Y-9565589D01*
X12942277Y-9565054D01*
X12942277Y-9553331D01*
X12973025Y-9552793D01*
X13003774Y-9552255D01*
X13006729Y-9546540D01*
X13008759Y-9542320D01*
X13009680Y-9539823D01*
X13009685Y-9539751D01*
X13007834Y-9539407D01*
X13007834Y-9539407D01*
G37*
X13007834Y-9539407D02*
X13002693Y-9539109D01*
X12994881Y-9538875D01*
X12985014Y-9538725D01*
X12974666Y-9538677D01*
X12939647Y-9538677D01*
X12933464Y-9544860D01*
X12929654Y-9549121D01*
X12928110Y-9552861D01*
X12928208Y-9557973D01*
X12928457Y-9560002D01*
X12929180Y-9566345D01*
X12929594Y-9571591D01*
X12929633Y-9572869D01*
X12929382Y-9577180D01*
X12928754Y-9583346D01*
X12928457Y-9585736D01*
X12927997Y-9591608D01*
X12928995Y-9595554D01*
X12932077Y-9599466D01*
X12933464Y-9600879D01*
X12939647Y-9607062D01*
X13005150Y-9607062D01*
X13007417Y-9602085D01*
X13009097Y-9597800D01*
X13009685Y-9595293D01*
X13007826Y-9594650D01*
X13002634Y-9594049D01*
X12994683Y-9593530D01*
X12984545Y-9593134D01*
X12975981Y-9592942D01*
X12942277Y-9592408D01*
X12941617Y-9587744D01*
X12942079Y-9583502D01*
X12943571Y-9581424D01*
X12946362Y-9580843D01*
X12952307Y-9580347D01*
X12960653Y-9579975D01*
X12970647Y-9579768D01*
X12975790Y-9579738D01*
X13005395Y-9579708D01*
X13007540Y-9573555D01*
X13008998Y-9569200D01*
X13009678Y-9566831D01*
X13009685Y-9566762D01*
X13007836Y-9566525D01*
X13002709Y-9566263D01*
X12994935Y-9566001D01*
X12985143Y-9565758D01*
X12975981Y-9565589D01*
X12942277Y-9565054D01*
X12942277Y-9553331D01*
X12973025Y-9552793D01*
X13003774Y-9552255D01*
X13006729Y-9546540D01*
X13008759Y-9542320D01*
X13009680Y-9539823D01*
X13009685Y-9539751D01*
X13007834Y-9539407D01*
G36*
X12993471Y-9618792D02*
G01*
X12978868Y-9618817D01*
X12967634Y-9618913D01*
X12959232Y-9619121D01*
X12953123Y-9619481D01*
X12948769Y-9620034D01*
X12945632Y-9620820D01*
X12943174Y-9621879D01*
X12941771Y-9622682D01*
X12934161Y-9629327D01*
X12929392Y-9637753D01*
X12927680Y-9647075D01*
X12929245Y-9656410D01*
X12932058Y-9661969D01*
X12936924Y-9667804D01*
X12942867Y-9671781D01*
X12950649Y-9674181D01*
X12961035Y-9675284D01*
X12968654Y-9675440D01*
X12969201Y-9675419D01*
X12969201Y-9661769D01*
X12960464Y-9661686D01*
X12954681Y-9661304D01*
X12950897Y-9660425D01*
X12948160Y-9658853D01*
X12946096Y-9656973D01*
X12942111Y-9650663D01*
X12941770Y-9643886D01*
X12945097Y-9637482D01*
X12945548Y-9636984D01*
X12947893Y-9634856D01*
X12950683Y-9633522D01*
X12954836Y-9632800D01*
X12961268Y-9632508D01*
X12968380Y-9632462D01*
X12977314Y-9632562D01*
X12983274Y-9632976D01*
X12987191Y-9633876D01*
X12989996Y-9635433D01*
X12991486Y-9636710D01*
X12995242Y-9642640D01*
X12995694Y-9649470D01*
X12992825Y-9655989D01*
X12991759Y-9657247D01*
X12989394Y-9659389D01*
X12986575Y-9660726D01*
X12982375Y-9661443D01*
X12975868Y-9661728D01*
X12969201Y-9661769D01*
X12969201Y-9675419D01*
X12980923Y-9674968D01*
X12990142Y-9673364D01*
X12997073Y-9670347D01*
X13002479Y-9665637D01*
X13005249Y-9661969D01*
X13008243Y-9655301D01*
X13009632Y-9647573D01*
X13009260Y-9640389D01*
X13007760Y-9636369D01*
X13007333Y-9634792D01*
X13008925Y-9633745D01*
X13013191Y-9633014D01*
X13019689Y-9632462D01*
X13026927Y-9631856D01*
X13031281Y-9631016D01*
X13033771Y-9629486D01*
X13035415Y-9626814D01*
X13036144Y-9625135D01*
X13038804Y-9618785D01*
X12993471Y-9618792D01*
X12993471Y-9618792D01*
G37*
X12993471Y-9618792D02*
X12978868Y-9618817D01*
X12967634Y-9618913D01*
X12959232Y-9619121D01*
X12953123Y-9619481D01*
X12948769Y-9620034D01*
X12945632Y-9620820D01*
X12943174Y-9621879D01*
X12941771Y-9622682D01*
X12934161Y-9629327D01*
X12929392Y-9637753D01*
X12927680Y-9647075D01*
X12929245Y-9656410D01*
X12932058Y-9661969D01*
X12936924Y-9667804D01*
X12942867Y-9671781D01*
X12950649Y-9674181D01*
X12961035Y-9675284D01*
X12968654Y-9675440D01*
X12969201Y-9675419D01*
X12969201Y-9661769D01*
X12960464Y-9661686D01*
X12954681Y-9661304D01*
X12950897Y-9660425D01*
X12948160Y-9658853D01*
X12946096Y-9656973D01*
X12942111Y-9650663D01*
X12941770Y-9643886D01*
X12945097Y-9637482D01*
X12945548Y-9636984D01*
X12947893Y-9634856D01*
X12950683Y-9633522D01*
X12954836Y-9632800D01*
X12961268Y-9632508D01*
X12968380Y-9632462D01*
X12977314Y-9632562D01*
X12983274Y-9632976D01*
X12987191Y-9633876D01*
X12989996Y-9635433D01*
X12991486Y-9636710D01*
X12995242Y-9642640D01*
X12995694Y-9649470D01*
X12992825Y-9655989D01*
X12991759Y-9657247D01*
X12989394Y-9659389D01*
X12986575Y-9660726D01*
X12982375Y-9661443D01*
X12975868Y-9661728D01*
X12969201Y-9661769D01*
X12969201Y-9675419D01*
X12980923Y-9674968D01*
X12990142Y-9673364D01*
X12997073Y-9670347D01*
X13002479Y-9665637D01*
X13005249Y-9661969D01*
X13008243Y-9655301D01*
X13009632Y-9647573D01*
X13009260Y-9640389D01*
X13007760Y-9636369D01*
X13007333Y-9634792D01*
X13008925Y-9633745D01*
X13013191Y-9633014D01*
X13019689Y-9632462D01*
X13026927Y-9631856D01*
X13031281Y-9631016D01*
X13033771Y-9629486D01*
X13035415Y-9626814D01*
X13036144Y-9625135D01*
X13038804Y-9618785D01*
X12993471Y-9618792D01*
G36*
X13009033Y-9707664D02*
G01*
X13005758Y-9698788D01*
X12999965Y-9691598D01*
X12995887Y-9688786D01*
X12988405Y-9685720D01*
X12982994Y-9685784D01*
X12979355Y-9689001D01*
X12978737Y-9690192D01*
X12976807Y-9695333D01*
X12977302Y-9697958D01*
X12980541Y-9698847D01*
X12982331Y-9698892D01*
X12988914Y-9700520D01*
X12993519Y-9704764D01*
X12995744Y-9710661D01*
X12995184Y-9717253D01*
X12992277Y-9722611D01*
X12990619Y-9724420D01*
X12988607Y-9725703D01*
X12985567Y-9726569D01*
X12980821Y-9727130D01*
X12973695Y-9727497D01*
X12963512Y-9727779D01*
X12960288Y-9727852D01*
X12949259Y-9728118D01*
X12941496Y-9728421D01*
X12936360Y-9728875D01*
X12933211Y-9729595D01*
X12931408Y-9730697D01*
X12930311Y-9732294D01*
X12929827Y-9733317D01*
X12928170Y-9737659D01*
X12927623Y-9740216D01*
X12929449Y-9741061D01*
X12934970Y-9741576D01*
X12944250Y-9741765D01*
X12957352Y-9741631D01*
X12959373Y-9741589D01*
X12971327Y-9741294D01*
X12980055Y-9740945D01*
X12986241Y-9740449D01*
X12990566Y-9739711D01*
X12993714Y-9738638D01*
X12996366Y-9737136D01*
X12997502Y-9736350D01*
X13002531Y-9731845D01*
X13006442Y-9726806D01*
X13006783Y-9726189D01*
X13009479Y-9717154D01*
X13009033Y-9707664D01*
X13009033Y-9707664D01*
G37*
X13009033Y-9707664D02*
X13005758Y-9698788D01*
X12999965Y-9691598D01*
X12995887Y-9688786D01*
X12988405Y-9685720D01*
X12982994Y-9685784D01*
X12979355Y-9689001D01*
X12978737Y-9690192D01*
X12976807Y-9695333D01*
X12977302Y-9697958D01*
X12980541Y-9698847D01*
X12982331Y-9698892D01*
X12988914Y-9700520D01*
X12993519Y-9704764D01*
X12995744Y-9710661D01*
X12995184Y-9717253D01*
X12992277Y-9722611D01*
X12990619Y-9724420D01*
X12988607Y-9725703D01*
X12985567Y-9726569D01*
X12980821Y-9727130D01*
X12973695Y-9727497D01*
X12963512Y-9727779D01*
X12960288Y-9727852D01*
X12949259Y-9728118D01*
X12941496Y-9728421D01*
X12936360Y-9728875D01*
X12933211Y-9729595D01*
X12931408Y-9730697D01*
X12930311Y-9732294D01*
X12929827Y-9733317D01*
X12928170Y-9737659D01*
X12927623Y-9740216D01*
X12929449Y-9741061D01*
X12934970Y-9741576D01*
X12944250Y-9741765D01*
X12957352Y-9741631D01*
X12959373Y-9741589D01*
X12971327Y-9741294D01*
X12980055Y-9740945D01*
X12986241Y-9740449D01*
X12990566Y-9739711D01*
X12993714Y-9738638D01*
X12996366Y-9737136D01*
X12997502Y-9736350D01*
X13002531Y-9731845D01*
X13006442Y-9726806D01*
X13006783Y-9726189D01*
X13009479Y-9717154D01*
X13009033Y-9707664D01*
G36*
X13008870Y-9773650D02*
G01*
X13006027Y-9765994D01*
X13005972Y-9765906D01*
X13002487Y-9761172D01*
X12998415Y-9757676D01*
X12993107Y-9755218D01*
X12985919Y-9753594D01*
X12976201Y-9752603D01*
X12963307Y-9752041D01*
X12961470Y-9751992D01*
X12933771Y-9751286D01*
X12930697Y-9757231D01*
X12928620Y-9761532D01*
X12927635Y-9764129D01*
X12927623Y-9764249D01*
X12929439Y-9764699D01*
X12934339Y-9765056D01*
X12941497Y-9765275D01*
X12947293Y-9765323D01*
X12956683Y-9765324D01*
X12962580Y-9765753D01*
X12965392Y-9767250D01*
X12965529Y-9770452D01*
X12963400Y-9775999D01*
X12959486Y-9784373D01*
X12956236Y-9790531D01*
X12953415Y-9793698D01*
X12950342Y-9794629D01*
X12950190Y-9794631D01*
X12944895Y-9793094D01*
X12942034Y-9788545D01*
X12941620Y-9781583D01*
X12941692Y-9776569D01*
X12940247Y-9773925D01*
X12936778Y-9772276D01*
X12932358Y-9771327D01*
X12929851Y-9772694D01*
X12929492Y-9773209D01*
X12928050Y-9778058D01*
X12927846Y-9784847D01*
X12928802Y-9791839D01*
X12930548Y-9796793D01*
X12936364Y-9803643D01*
X12944459Y-9807537D01*
X12950784Y-9808308D01*
X12956489Y-9807719D01*
X12961146Y-9805590D01*
X12965282Y-9801374D01*
X12969424Y-9794524D01*
X12974101Y-9784496D01*
X12974365Y-9783885D01*
X12978538Y-9774851D01*
X12981961Y-9769277D01*
X12985036Y-9766887D01*
X12988169Y-9767409D01*
X12991762Y-9770567D01*
X12992588Y-9771512D01*
X12995794Y-9777838D01*
X12995659Y-9784394D01*
X12992516Y-9790103D01*
X12986698Y-9793891D01*
X12985555Y-9794243D01*
X12980016Y-9797670D01*
X12977348Y-9802019D01*
X12974704Y-9808308D01*
X12981545Y-9808308D01*
X12991489Y-9806395D01*
X13000610Y-9800717D01*
X13003661Y-9797762D01*
X13007577Y-9791046D01*
X13009350Y-9782504D01*
X13008870Y-9773650D01*
X13008870Y-9773650D01*
G37*
X13008870Y-9773650D02*
X13006027Y-9765994D01*
X13005972Y-9765906D01*
X13002487Y-9761172D01*
X12998415Y-9757676D01*
X12993107Y-9755218D01*
X12985919Y-9753594D01*
X12976201Y-9752603D01*
X12963307Y-9752041D01*
X12961470Y-9751992D01*
X12933771Y-9751286D01*
X12930697Y-9757231D01*
X12928620Y-9761532D01*
X12927635Y-9764129D01*
X12927623Y-9764249D01*
X12929439Y-9764699D01*
X12934339Y-9765056D01*
X12941497Y-9765275D01*
X12947293Y-9765323D01*
X12956683Y-9765324D01*
X12962580Y-9765753D01*
X12965392Y-9767250D01*
X12965529Y-9770452D01*
X12963400Y-9775999D01*
X12959486Y-9784373D01*
X12956236Y-9790531D01*
X12953415Y-9793698D01*
X12950342Y-9794629D01*
X12950190Y-9794631D01*
X12944895Y-9793094D01*
X12942034Y-9788545D01*
X12941620Y-9781583D01*
X12941692Y-9776569D01*
X12940247Y-9773925D01*
X12936778Y-9772276D01*
X12932358Y-9771327D01*
X12929851Y-9772694D01*
X12929492Y-9773209D01*
X12928050Y-9778058D01*
X12927846Y-9784847D01*
X12928802Y-9791839D01*
X12930548Y-9796793D01*
X12936364Y-9803643D01*
X12944459Y-9807537D01*
X12950784Y-9808308D01*
X12956489Y-9807719D01*
X12961146Y-9805590D01*
X12965282Y-9801374D01*
X12969424Y-9794524D01*
X12974101Y-9784496D01*
X12974365Y-9783885D01*
X12978538Y-9774851D01*
X12981961Y-9769277D01*
X12985036Y-9766887D01*
X12988169Y-9767409D01*
X12991762Y-9770567D01*
X12992588Y-9771512D01*
X12995794Y-9777838D01*
X12995659Y-9784394D01*
X12992516Y-9790103D01*
X12986698Y-9793891D01*
X12985555Y-9794243D01*
X12980016Y-9797670D01*
X12977348Y-9802019D01*
X12974704Y-9808308D01*
X12981545Y-9808308D01*
X12991489Y-9806395D01*
X13000610Y-9800717D01*
X13003661Y-9797762D01*
X13007577Y-9791046D01*
X13009350Y-9782504D01*
X13008870Y-9773650D01*
G36*
X13022288Y-9863015D02*
G01*
X13014302Y-9862443D01*
X13009596Y-9861785D01*
X13007543Y-9860874D01*
X13007517Y-9859540D01*
X13007762Y-9859108D01*
X13009536Y-9853356D01*
X13009433Y-9845873D01*
X13007609Y-9838266D01*
X13005249Y-9833508D01*
X13001480Y-9828630D01*
X12997214Y-9825064D01*
X12991794Y-9822616D01*
X12984562Y-9821091D01*
X12974858Y-9820297D01*
X12962026Y-9820038D01*
X12959564Y-9820034D01*
X12931913Y-9820031D01*
X12929768Y-9826184D01*
X12928309Y-9830554D01*
X12927629Y-9832952D01*
X12927623Y-9833022D01*
X12929465Y-9833259D01*
X12934547Y-9833459D01*
X12942201Y-9833610D01*
X12951757Y-9833695D01*
X12957567Y-9833708D01*
X12969023Y-9833735D01*
X12977233Y-9833875D01*
X12982861Y-9834215D01*
X12986567Y-9834843D01*
X12989016Y-9835847D01*
X12990867Y-9837314D01*
X12991759Y-9838230D01*
X12995353Y-9844521D01*
X12995622Y-9851386D01*
X12992583Y-9857615D01*
X12991486Y-9858767D01*
X12989422Y-9860457D01*
X12986974Y-9861629D01*
X12983435Y-9862377D01*
X12978097Y-9862795D01*
X12970253Y-9862976D01*
X12959438Y-9863015D01*
X12931913Y-9863015D01*
X12929768Y-9869169D01*
X12928309Y-9873539D01*
X12927629Y-9875936D01*
X12927623Y-9876007D01*
X12929493Y-9876187D01*
X12934768Y-9876350D01*
X12942944Y-9876488D01*
X12953519Y-9876596D01*
X12965991Y-9876666D01*
X12979854Y-9876692D01*
X13033319Y-9876692D01*
X13038676Y-9863992D01*
X13022288Y-9863015D01*
X13022288Y-9863015D01*
G37*
X13022288Y-9863015D02*
X13014302Y-9862443D01*
X13009596Y-9861785D01*
X13007543Y-9860874D01*
X13007517Y-9859540D01*
X13007762Y-9859108D01*
X13009536Y-9853356D01*
X13009433Y-9845873D01*
X13007609Y-9838266D01*
X13005249Y-9833508D01*
X13001480Y-9828630D01*
X12997214Y-9825064D01*
X12991794Y-9822616D01*
X12984562Y-9821091D01*
X12974858Y-9820297D01*
X12962026Y-9820038D01*
X12959564Y-9820034D01*
X12931913Y-9820031D01*
X12929768Y-9826184D01*
X12928309Y-9830554D01*
X12927629Y-9832952D01*
X12927623Y-9833022D01*
X12929465Y-9833259D01*
X12934547Y-9833459D01*
X12942201Y-9833610D01*
X12951757Y-9833695D01*
X12957567Y-9833708D01*
X12969023Y-9833735D01*
X12977233Y-9833875D01*
X12982861Y-9834215D01*
X12986567Y-9834843D01*
X12989016Y-9835847D01*
X12990867Y-9837314D01*
X12991759Y-9838230D01*
X12995353Y-9844521D01*
X12995622Y-9851386D01*
X12992583Y-9857615D01*
X12991486Y-9858767D01*
X12989422Y-9860457D01*
X12986974Y-9861629D01*
X12983435Y-9862377D01*
X12978097Y-9862795D01*
X12970253Y-9862976D01*
X12959438Y-9863015D01*
X12931913Y-9863015D01*
X12929768Y-9869169D01*
X12928309Y-9873539D01*
X12927629Y-9875936D01*
X12927623Y-9876007D01*
X12929493Y-9876187D01*
X12934768Y-9876350D01*
X12942944Y-9876488D01*
X12953519Y-9876596D01*
X12965991Y-9876666D01*
X12979854Y-9876692D01*
X13033319Y-9876692D01*
X13038676Y-9863992D01*
X13022288Y-9863015D01*
G36*
X13011525Y-10025575D02*
G01*
X13006343Y-10017871D01*
X12998859Y-10011918D01*
X12989335Y-10008362D01*
X12982324Y-10007643D01*
X12979399Y-10007725D01*
X12977159Y-10008409D01*
X12975153Y-10010289D01*
X12972927Y-10013959D01*
X12970029Y-10020014D01*
X12966007Y-10029047D01*
X12965987Y-10029092D01*
X12962179Y-10037407D01*
X12958797Y-10044225D01*
X12956207Y-10048850D01*
X12954770Y-10050584D01*
X12954759Y-10050585D01*
X12951631Y-10049056D01*
X12948184Y-10045480D01*
X12945701Y-10041376D01*
X12945208Y-10039296D01*
X12946914Y-10033623D01*
X12951187Y-10028737D01*
X12955884Y-10026354D01*
X12959348Y-10024060D01*
X12963292Y-10019568D01*
X12966699Y-10014288D01*
X12968552Y-10009629D01*
X12968654Y-10008655D01*
X12966978Y-10007558D01*
X12962696Y-10007492D01*
X12956922Y-10008298D01*
X12950771Y-10009817D01*
X12945359Y-10011891D01*
X12945149Y-10011996D01*
X12936434Y-10018238D01*
X12930506Y-10026327D01*
X12927597Y-10035514D01*
X12927937Y-10045049D01*
X12931757Y-10054180D01*
X12932026Y-10054586D01*
X12938536Y-10061769D01*
X12947029Y-10066493D01*
X12958198Y-10069107D01*
X12961336Y-10069457D01*
X12976146Y-10070079D01*
X12983053Y-10069334D01*
X12983053Y-10050585D01*
X12978745Y-10050341D01*
X12977487Y-10049009D01*
X12978428Y-10045687D01*
X12980652Y-10040451D01*
X12983439Y-10034598D01*
X12983513Y-10034452D01*
X12986122Y-10029491D01*
X12987864Y-10027500D01*
X12989689Y-10027991D01*
X12992088Y-10030058D01*
X12995559Y-10035318D01*
X12995814Y-10040982D01*
X12993288Y-10046063D01*
X12988415Y-10049572D01*
X12983053Y-10050585D01*
X12983053Y-10069334D01*
X12987996Y-10068801D01*
X12997394Y-10065522D01*
X13003978Y-10060958D01*
X13010632Y-10052720D01*
X13013932Y-10043645D01*
X13014143Y-10034382D01*
X13011525Y-10025575D01*
X13011525Y-10025575D01*
G37*
X13011525Y-10025575D02*
X13006343Y-10017871D01*
X12998859Y-10011918D01*
X12989335Y-10008362D01*
X12982324Y-10007643D01*
X12979399Y-10007725D01*
X12977159Y-10008409D01*
X12975153Y-10010289D01*
X12972927Y-10013959D01*
X12970029Y-10020014D01*
X12966007Y-10029047D01*
X12965987Y-10029092D01*
X12962179Y-10037407D01*
X12958797Y-10044225D01*
X12956207Y-10048850D01*
X12954770Y-10050584D01*
X12954759Y-10050585D01*
X12951631Y-10049056D01*
X12948184Y-10045480D01*
X12945701Y-10041376D01*
X12945208Y-10039296D01*
X12946914Y-10033623D01*
X12951187Y-10028737D01*
X12955884Y-10026354D01*
X12959348Y-10024060D01*
X12963292Y-10019568D01*
X12966699Y-10014288D01*
X12968552Y-10009629D01*
X12968654Y-10008655D01*
X12966978Y-10007558D01*
X12962696Y-10007492D01*
X12956922Y-10008298D01*
X12950771Y-10009817D01*
X12945359Y-10011891D01*
X12945149Y-10011996D01*
X12936434Y-10018238D01*
X12930506Y-10026327D01*
X12927597Y-10035514D01*
X12927937Y-10045049D01*
X12931757Y-10054180D01*
X12932026Y-10054586D01*
X12938536Y-10061769D01*
X12947029Y-10066493D01*
X12958198Y-10069107D01*
X12961336Y-10069457D01*
X12976146Y-10070079D01*
X12983053Y-10069334D01*
X12983053Y-10050585D01*
X12978745Y-10050341D01*
X12977487Y-10049009D01*
X12978428Y-10045687D01*
X12980652Y-10040451D01*
X12983439Y-10034598D01*
X12983513Y-10034452D01*
X12986122Y-10029491D01*
X12987864Y-10027500D01*
X12989689Y-10027991D01*
X12992088Y-10030058D01*
X12995559Y-10035318D01*
X12995814Y-10040982D01*
X12993288Y-10046063D01*
X12988415Y-10049572D01*
X12983053Y-10050585D01*
X12983053Y-10069334D01*
X12987996Y-10068801D01*
X12997394Y-10065522D01*
X13003978Y-10060958D01*
X13010632Y-10052720D01*
X13013932Y-10043645D01*
X13014143Y-10034382D01*
X13011525Y-10025575D01*
G36*
X13012774Y-10177311D02*
G01*
X13007959Y-10168154D01*
X13000209Y-10161395D01*
X12995227Y-10158994D01*
X12987747Y-10157126D01*
X12978295Y-10156170D01*
X12967979Y-10156079D01*
X12957906Y-10156808D01*
X12949185Y-10158310D01*
X12942921Y-10160539D01*
X12941842Y-10161224D01*
X12933789Y-10169337D01*
X12928966Y-10178973D01*
X12927555Y-10189430D01*
X12929737Y-10200003D01*
X12931045Y-10202946D01*
X12935077Y-10208676D01*
X12940422Y-10213705D01*
X12941100Y-10214180D01*
X12944368Y-10216112D01*
X12947861Y-10217389D01*
X12952459Y-10218144D01*
X12959042Y-10218508D01*
X12968489Y-10218614D01*
X12970608Y-10218615D01*
X12971282Y-10218611D01*
X12971282Y-10199077D01*
X12962365Y-10198963D01*
X12956448Y-10198516D01*
X12952626Y-10197575D01*
X12949995Y-10195982D01*
X12949115Y-10195169D01*
X12945774Y-10190494D01*
X12945926Y-10185955D01*
X12948825Y-10181366D01*
X12951919Y-10178629D01*
X12956436Y-10177008D01*
X12963558Y-10176097D01*
X12964389Y-10176035D01*
X12977296Y-10175880D01*
X12986883Y-10177504D01*
X12993089Y-10180885D01*
X12995857Y-10186002D01*
X12996008Y-10187828D01*
X12995249Y-10192624D01*
X12992619Y-10195905D01*
X12987590Y-10197911D01*
X12979634Y-10198882D01*
X12971282Y-10199077D01*
X12971282Y-10218611D01*
X12980675Y-10218543D01*
X12987709Y-10218237D01*
X12992584Y-10217568D01*
X12996171Y-10216404D01*
X12999345Y-10214615D01*
X12999935Y-10214219D01*
X13007890Y-10207573D01*
X13012507Y-10200332D01*
X13014340Y-10191515D01*
X13014430Y-10188521D01*
X13012774Y-10177311D01*
X13012774Y-10177311D01*
G37*
X13012774Y-10177311D02*
X13007959Y-10168154D01*
X13000209Y-10161395D01*
X12995227Y-10158994D01*
X12987747Y-10157126D01*
X12978295Y-10156170D01*
X12967979Y-10156079D01*
X12957906Y-10156808D01*
X12949185Y-10158310D01*
X12942921Y-10160539D01*
X12941842Y-10161224D01*
X12933789Y-10169337D01*
X12928966Y-10178973D01*
X12927555Y-10189430D01*
X12929737Y-10200003D01*
X12931045Y-10202946D01*
X12935077Y-10208676D01*
X12940422Y-10213705D01*
X12941100Y-10214180D01*
X12944368Y-10216112D01*
X12947861Y-10217389D01*
X12952459Y-10218144D01*
X12959042Y-10218508D01*
X12968489Y-10218614D01*
X12970608Y-10218615D01*
X12971282Y-10218611D01*
X12971282Y-10199077D01*
X12962365Y-10198963D01*
X12956448Y-10198516D01*
X12952626Y-10197575D01*
X12949995Y-10195982D01*
X12949115Y-10195169D01*
X12945774Y-10190494D01*
X12945926Y-10185955D01*
X12948825Y-10181366D01*
X12951919Y-10178629D01*
X12956436Y-10177008D01*
X12963558Y-10176097D01*
X12964389Y-10176035D01*
X12977296Y-10175880D01*
X12986883Y-10177504D01*
X12993089Y-10180885D01*
X12995857Y-10186002D01*
X12996008Y-10187828D01*
X12995249Y-10192624D01*
X12992619Y-10195905D01*
X12987590Y-10197911D01*
X12979634Y-10198882D01*
X12971282Y-10199077D01*
X12971282Y-10218611D01*
X12980675Y-10218543D01*
X12987709Y-10218237D01*
X12992584Y-10217568D01*
X12996171Y-10216404D01*
X12999345Y-10214615D01*
X12999935Y-10214219D01*
X13007890Y-10207573D01*
X13012507Y-10200332D01*
X13014340Y-10191515D01*
X13014430Y-10188521D01*
X13012774Y-10177311D01*
G36*
X13011991Y-9951834D02*
G01*
X13008364Y-9945563D01*
X13004764Y-9941204D01*
X13000992Y-9938016D01*
X12996380Y-9935819D01*
X12990258Y-9934435D01*
X12981957Y-9933685D01*
X12970808Y-9933388D01*
X12962794Y-9933354D01*
X12933293Y-9933354D01*
X12925848Y-9949962D01*
X12958160Y-9950939D01*
X12970227Y-9951342D01*
X12978986Y-9951766D01*
X12985035Y-9952290D01*
X12988973Y-9952998D01*
X12991399Y-9953969D01*
X12992912Y-9955286D01*
X12993239Y-9955708D01*
X12995797Y-9962109D01*
X12994785Y-9968579D01*
X12992100Y-9972431D01*
X12990198Y-9973998D01*
X12987701Y-9975082D01*
X12983917Y-9975771D01*
X12978150Y-9976152D01*
X12969706Y-9976312D01*
X12960907Y-9976339D01*
X12949868Y-9976344D01*
X12942054Y-9976533D01*
X12936783Y-9977166D01*
X12933376Y-9978502D01*
X12931149Y-9980802D01*
X12929421Y-9984325D01*
X12927626Y-9989030D01*
X12925672Y-9994170D01*
X12960351Y-9993558D01*
X12972853Y-9993312D01*
X12982092Y-9993023D01*
X12988712Y-9992610D01*
X12993358Y-9991989D01*
X12996674Y-9991077D01*
X12999306Y-9989792D01*
X13001627Y-9988242D01*
X13009043Y-9980763D01*
X13013332Y-9971637D01*
X13014359Y-9961712D01*
X13011991Y-9951834D01*
X13011991Y-9951834D01*
G37*
X13011991Y-9951834D02*
X13008364Y-9945563D01*
X13004764Y-9941204D01*
X13000992Y-9938016D01*
X12996380Y-9935819D01*
X12990258Y-9934435D01*
X12981957Y-9933685D01*
X12970808Y-9933388D01*
X12962794Y-9933354D01*
X12933293Y-9933354D01*
X12925848Y-9949962D01*
X12958160Y-9950939D01*
X12970227Y-9951342D01*
X12978986Y-9951766D01*
X12985035Y-9952290D01*
X12988973Y-9952998D01*
X12991399Y-9953969D01*
X12992912Y-9955286D01*
X12993239Y-9955708D01*
X12995797Y-9962109D01*
X12994785Y-9968579D01*
X12992100Y-9972431D01*
X12990198Y-9973998D01*
X12987701Y-9975082D01*
X12983917Y-9975771D01*
X12978150Y-9976152D01*
X12969706Y-9976312D01*
X12960907Y-9976339D01*
X12949868Y-9976344D01*
X12942054Y-9976533D01*
X12936783Y-9977166D01*
X12933376Y-9978502D01*
X12931149Y-9980802D01*
X12929421Y-9984325D01*
X12927626Y-9989030D01*
X12925672Y-9994170D01*
X12960351Y-9993558D01*
X12972853Y-9993312D01*
X12982092Y-9993023D01*
X12988712Y-9992610D01*
X12993358Y-9991989D01*
X12996674Y-9991077D01*
X12999306Y-9989792D01*
X13001627Y-9988242D01*
X13009043Y-9980763D01*
X13013332Y-9971637D01*
X13014359Y-9961712D01*
X13011991Y-9951834D01*
G36*
X13013049Y-10102111D02*
G01*
X13009327Y-10094646D01*
X13002474Y-10088057D01*
X12999935Y-10086242D01*
X12996613Y-10084266D01*
X12993005Y-10082983D01*
X12988190Y-10082249D01*
X12981246Y-10081919D01*
X12972079Y-10081846D01*
X12959517Y-10082174D01*
X12950085Y-10083312D01*
X12943048Y-10085496D01*
X12937671Y-10088958D01*
X12933221Y-10093933D01*
X12932958Y-10094299D01*
X12930262Y-10099202D01*
X12928929Y-10105106D01*
X12928600Y-10112614D01*
X12928600Y-10124821D01*
X12916750Y-10124826D01*
X12910151Y-10124939D01*
X12906280Y-10125631D01*
X12903958Y-10127440D01*
X12902007Y-10130904D01*
X12901608Y-10131736D01*
X12899740Y-10135628D01*
X12898560Y-10138642D01*
X12898458Y-10140883D01*
X12899824Y-10142457D01*
X12903048Y-10143470D01*
X12908520Y-10144028D01*
X12916629Y-10144237D01*
X12927766Y-10144202D01*
X12942320Y-10144030D01*
X12946673Y-10143976D01*
X12961679Y-10143783D01*
X12971496Y-10143610D01*
X12971496Y-10124831D01*
X12963164Y-10124725D01*
X12957712Y-10124256D01*
X12954116Y-10123195D01*
X12951352Y-10121313D01*
X12950003Y-10120035D01*
X12946058Y-10114811D01*
X12945737Y-10110186D01*
X12948995Y-10105413D01*
X12949115Y-10105292D01*
X12951633Y-10103351D01*
X12955055Y-10102169D01*
X12960325Y-10101574D01*
X12968387Y-10101388D01*
X12970173Y-10101385D01*
X12981282Y-10101833D01*
X12988984Y-10103293D01*
X12993685Y-10105935D01*
X12995795Y-10109932D01*
X12996008Y-10112242D01*
X12995010Y-10117724D01*
X12991725Y-10121484D01*
X12985714Y-10123748D01*
X12976540Y-10124739D01*
X12971496Y-10124831D01*
X12971496Y-10143610D01*
X12973294Y-10143578D01*
X12982032Y-10143313D01*
X12988409Y-10142939D01*
X12992942Y-10142409D01*
X12996144Y-10141674D01*
X12998533Y-10140686D01*
X13000624Y-10139395D01*
X13001410Y-10138842D01*
X13008840Y-10131503D01*
X13013053Y-10122224D01*
X13014228Y-10111490D01*
X13013049Y-10102111D01*
X13013049Y-10102111D01*
G37*
X13013049Y-10102111D02*
X13009327Y-10094646D01*
X13002474Y-10088057D01*
X12999935Y-10086242D01*
X12996613Y-10084266D01*
X12993005Y-10082983D01*
X12988190Y-10082249D01*
X12981246Y-10081919D01*
X12972079Y-10081846D01*
X12959517Y-10082174D01*
X12950085Y-10083312D01*
X12943048Y-10085496D01*
X12937671Y-10088958D01*
X12933221Y-10093933D01*
X12932958Y-10094299D01*
X12930262Y-10099202D01*
X12928929Y-10105106D01*
X12928600Y-10112614D01*
X12928600Y-10124821D01*
X12916750Y-10124826D01*
X12910151Y-10124939D01*
X12906280Y-10125631D01*
X12903958Y-10127440D01*
X12902007Y-10130904D01*
X12901608Y-10131736D01*
X12899740Y-10135628D01*
X12898560Y-10138642D01*
X12898458Y-10140883D01*
X12899824Y-10142457D01*
X12903048Y-10143470D01*
X12908520Y-10144028D01*
X12916629Y-10144237D01*
X12927766Y-10144202D01*
X12942320Y-10144030D01*
X12946673Y-10143976D01*
X12961679Y-10143783D01*
X12971496Y-10143610D01*
X12971496Y-10124831D01*
X12963164Y-10124725D01*
X12957712Y-10124256D01*
X12954116Y-10123195D01*
X12951352Y-10121313D01*
X12950003Y-10120035D01*
X12946058Y-10114811D01*
X12945737Y-10110186D01*
X12948995Y-10105413D01*
X12949115Y-10105292D01*
X12951633Y-10103351D01*
X12955055Y-10102169D01*
X12960325Y-10101574D01*
X12968387Y-10101388D01*
X12970173Y-10101385D01*
X12981282Y-10101833D01*
X12988984Y-10103293D01*
X12993685Y-10105935D01*
X12995795Y-10109932D01*
X12996008Y-10112242D01*
X12995010Y-10117724D01*
X12991725Y-10121484D01*
X12985714Y-10123748D01*
X12976540Y-10124739D01*
X12971496Y-10124831D01*
X12971496Y-10143610D01*
X12973294Y-10143578D01*
X12982032Y-10143313D01*
X12988409Y-10142939D01*
X12992942Y-10142409D01*
X12996144Y-10141674D01*
X12998533Y-10140686D01*
X13000624Y-10139395D01*
X13001410Y-10138842D01*
X13008840Y-10131503D01*
X13013053Y-10122224D01*
X13014228Y-10111490D01*
X13013049Y-10102111D01*
%LPC*%
D14*
X12319000Y-11176000D03*
X12319000Y-10922000D03*
X12319000Y-10668000D03*
X13843000Y-8382000D03*
X12319000Y-10414000D03*
X13843000Y-8636000D03*
X12319000Y-10160000D03*
X13843000Y-8890000D03*
X12319000Y-9906000D03*
X13843000Y-9144000D03*
X12319000Y-9652000D03*
X13843000Y-9398000D03*
X12319000Y-9398000D03*
X13843000Y-9652000D03*
X12319000Y-9144000D03*
X13843000Y-9906000D03*
X12319000Y-8890000D03*
X13843000Y-10160000D03*
X12319000Y-8636000D03*
X13843000Y-10414000D03*
X12319000Y-8382000D03*
X13843000Y-10668000D03*
X13843000Y-10922000D03*
D15*
X13843000Y-11176000D03*
D16*
X12509500Y-8509000D03*
X13652500Y-8509000D03*
X13652500Y-9017000D03*
D17*
X13363500Y-11112500D03*
X12798500Y-11112500D03*
M02*
