%TF.GenerationSoftware,KiCad,Pcbnew,5.1.6+dfsg1-1~bpo10+1*%
%TF.CreationDate,Date%
%TF.ProjectId,ProMicro_ZPM,50726f4d-6963-4726-9f5f-5a504d2e6b69,v1.0*%
%TF.SameCoordinates,Original*%
%TF.FileFunction,Copper,L1,Top*%
%TF.FilePolarity,Positive*%
%FSLAX45Y45*%
G04 Gerber Fmt 4.5, Leading zero omitted, Abs format (unit mm)*
G04 Created by KiCad*
%MOMM*%
%LPD*%
G01*
G04 APERTURE LIST*
%TA.AperFunction,Profile*%
%ADD10C,0.100000*%
%TD*%
%TA.AperFunction,EtchedComponent*%
%ADD11C,0.150000*%
%TD*%
%TA.AperFunction,ViaPad*%
%ADD12C,0.500000*%
%TD*%
%TA.AperFunction,SMDPad,CuDef*%
%ADD13R,1.680000X1.880000*%
%TD*%
%TA.AperFunction,SMDPad,CuDef*%
%ADD14C,0.150000*%
%TD*%
%TA.AperFunction,SMDPad,CuDef*%
%ADD15R,0.800000X0.900000*%
%TD*%
%TA.AperFunction,ComponentPad*%
%ADD16C,2.100000*%
%TD*%
%TA.AperFunction,ComponentPad*%
%ADD17R,2.100000X2.100000*%
%TD*%
%TA.AperFunction,SMDPad,CuDef*%
%ADD18R,1.060000X0.650000*%
%TD*%
%TA.AperFunction,SMDPad,CuDef*%
%ADD19R,1.000000X1.500000*%
%TD*%
%TA.AperFunction,ComponentPad*%
%ADD20O,1.600000X1.600000*%
%TD*%
%TA.AperFunction,ComponentPad*%
%ADD21R,1.600000X1.600000*%
%TD*%
%TA.AperFunction,ViaPad*%
%ADD22C,0.600000*%
%TD*%
%TA.AperFunction,Conductor*%
%ADD23C,0.400000*%
%TD*%
%TA.AperFunction,Conductor*%
%ADD24C,0.250000*%
%TD*%
%TA.AperFunction,Conductor*%
%ADD25C,0.125000*%
%TD*%
%ADD26C,0.200000*%
%ADD27C,0.300000*%
%ADD28C,0.350000*%
G04 APERTURE END LIST*
D10*
X-63500Y-127000D02*
G75*
G02*
X-127000Y-63500I0J63500D01*
G01*
X1651000Y-63500D02*
G75*
G02*
X1587500Y-127000I-63500J0D01*
G01*
X1587500Y2921000D02*
G75*
G02*
X1651000Y2857500I0J-63500D01*
G01*
X-127000Y2857500D02*
G75*
G02*
X-63500Y2921000I63500J0D01*
G01*
X-127000Y-63500D02*
X-127000Y2857500D01*
X1587500Y-127000D02*
X-63500Y-127000D01*
X1651000Y2857500D02*
X1651000Y-63500D01*
X-63500Y2921000D02*
X1587500Y2921000D01*
D11*
G36*
X252900Y1300000D02*
G01*
X302900Y1300000D01*
X302900Y1240000D01*
X252900Y1240000D01*
X252900Y1300000D01*
G37*
G36*
X432900Y986000D02*
G01*
X382900Y986000D01*
X382900Y1046000D01*
X432900Y1046000D01*
X432900Y986000D01*
G37*
%TA.AperFunction,SMDPad,CuDef*%
G36*
G01*
X458000Y1960000D02*
X458000Y1850000D01*
G75*
G02*
X433000Y1825000I-25000J0D01*
G01*
X223000Y1825000D01*
G75*
G02*
X198000Y1850000I0J25000D01*
G01*
X198000Y1960000D01*
G75*
G02*
X223000Y1985000I25000J0D01*
G01*
X433000Y1985000D01*
G75*
G02*
X458000Y1960000I0J-25000D01*
G01*
G37*
%TD.AperFunction*%
%TA.AperFunction,SMDPad,CuDef*%
G36*
G01*
X818000Y1960000D02*
X818000Y1850000D01*
G75*
G02*
X793000Y1825000I-25000J0D01*
G01*
X583000Y1825000D01*
G75*
G02*
X558000Y1850000I0J25000D01*
G01*
X558000Y1960000D01*
G75*
G02*
X583000Y1985000I25000J0D01*
G01*
X793000Y1985000D01*
G75*
G02*
X818000Y1960000I0J-25000D01*
G01*
G37*
%TD.AperFunction*%
D12*
X834000Y1525500D03*
X944000Y1525500D03*
X834000Y1395500D03*
X944000Y1395500D03*
D13*
X889000Y1460500D03*
%TA.AperFunction,SMDPad,CuDef*%
G36*
G01*
X746500Y1368000D02*
X746500Y1353000D01*
G75*
G02*
X739000Y1345500I-7500J0D01*
G01*
X609000Y1345500D01*
G75*
G02*
X601500Y1353000I0J7500D01*
G01*
X601500Y1368000D01*
G75*
G02*
X609000Y1375500I7500J0D01*
G01*
X739000Y1375500D01*
G75*
G02*
X746500Y1368000I0J-7500D01*
G01*
G37*
%TD.AperFunction*%
%TA.AperFunction,SMDPad,CuDef*%
G36*
G01*
X746500Y1418000D02*
X746500Y1403000D01*
G75*
G02*
X739000Y1395500I-7500J0D01*
G01*
X609000Y1395500D01*
G75*
G02*
X601500Y1403000I0J7500D01*
G01*
X601500Y1418000D01*
G75*
G02*
X609000Y1425500I7500J0D01*
G01*
X739000Y1425500D01*
G75*
G02*
X746500Y1418000I0J-7500D01*
G01*
G37*
%TD.AperFunction*%
%TA.AperFunction,SMDPad,CuDef*%
G36*
G01*
X746500Y1468000D02*
X746500Y1453000D01*
G75*
G02*
X739000Y1445500I-7500J0D01*
G01*
X609000Y1445500D01*
G75*
G02*
X601500Y1453000I0J7500D01*
G01*
X601500Y1468000D01*
G75*
G02*
X609000Y1475500I7500J0D01*
G01*
X739000Y1475500D01*
G75*
G02*
X746500Y1468000I0J-7500D01*
G01*
G37*
%TD.AperFunction*%
%TA.AperFunction,SMDPad,CuDef*%
G36*
G01*
X746500Y1518000D02*
X746500Y1503000D01*
G75*
G02*
X739000Y1495500I-7500J0D01*
G01*
X609000Y1495500D01*
G75*
G02*
X601500Y1503000I0J7500D01*
G01*
X601500Y1518000D01*
G75*
G02*
X609000Y1525500I7500J0D01*
G01*
X739000Y1525500D01*
G75*
G02*
X746500Y1518000I0J-7500D01*
G01*
G37*
%TD.AperFunction*%
%TA.AperFunction,SMDPad,CuDef*%
G36*
G01*
X746500Y1568000D02*
X746500Y1553000D01*
G75*
G02*
X739000Y1545500I-7500J0D01*
G01*
X609000Y1545500D01*
G75*
G02*
X601500Y1553000I0J7500D01*
G01*
X601500Y1568000D01*
G75*
G02*
X609000Y1575500I7500J0D01*
G01*
X739000Y1575500D01*
G75*
G02*
X746500Y1568000I0J-7500D01*
G01*
G37*
%TD.AperFunction*%
%TA.AperFunction,SMDPad,CuDef*%
G36*
G01*
X1176500Y1568000D02*
X1176500Y1553000D01*
G75*
G02*
X1169000Y1545500I-7500J0D01*
G01*
X1039000Y1545500D01*
G75*
G02*
X1031500Y1553000I0J7500D01*
G01*
X1031500Y1568000D01*
G75*
G02*
X1039000Y1575500I7500J0D01*
G01*
X1169000Y1575500D01*
G75*
G02*
X1176500Y1568000I0J-7500D01*
G01*
G37*
%TD.AperFunction*%
%TA.AperFunction,SMDPad,CuDef*%
G36*
G01*
X1176500Y1518000D02*
X1176500Y1503000D01*
G75*
G02*
X1169000Y1495500I-7500J0D01*
G01*
X1039000Y1495500D01*
G75*
G02*
X1031500Y1503000I0J7500D01*
G01*
X1031500Y1518000D01*
G75*
G02*
X1039000Y1525500I7500J0D01*
G01*
X1169000Y1525500D01*
G75*
G02*
X1176500Y1518000I0J-7500D01*
G01*
G37*
%TD.AperFunction*%
%TA.AperFunction,SMDPad,CuDef*%
G36*
G01*
X1176500Y1468000D02*
X1176500Y1453000D01*
G75*
G02*
X1169000Y1445500I-7500J0D01*
G01*
X1039000Y1445500D01*
G75*
G02*
X1031500Y1453000I0J7500D01*
G01*
X1031500Y1468000D01*
G75*
G02*
X1039000Y1475500I7500J0D01*
G01*
X1169000Y1475500D01*
G75*
G02*
X1176500Y1468000I0J-7500D01*
G01*
G37*
%TD.AperFunction*%
%TA.AperFunction,SMDPad,CuDef*%
G36*
G01*
X1176500Y1418000D02*
X1176500Y1403000D01*
G75*
G02*
X1169000Y1395500I-7500J0D01*
G01*
X1039000Y1395500D01*
G75*
G02*
X1031500Y1403000I0J7500D01*
G01*
X1031500Y1418000D01*
G75*
G02*
X1039000Y1425500I7500J0D01*
G01*
X1169000Y1425500D01*
G75*
G02*
X1176500Y1418000I0J-7500D01*
G01*
G37*
%TD.AperFunction*%
%TA.AperFunction,SMDPad,CuDef*%
G36*
G01*
X1176500Y1368000D02*
X1176500Y1353000D01*
G75*
G02*
X1169000Y1345500I-7500J0D01*
G01*
X1039000Y1345500D01*
G75*
G02*
X1031500Y1353000I0J7500D01*
G01*
X1031500Y1368000D01*
G75*
G02*
X1039000Y1375500I7500J0D01*
G01*
X1169000Y1375500D01*
G75*
G02*
X1176500Y1368000I0J-7500D01*
G01*
G37*
%TD.AperFunction*%
%TA.AperFunction,SMDPad,CuDef*%
G36*
G01*
X1307875Y1044500D02*
X1359125Y1044500D01*
G75*
G02*
X1381000Y1022625I0J-21875D01*
G01*
X1381000Y978875D01*
G75*
G02*
X1359125Y957000I-21875J0D01*
G01*
X1307875Y957000D01*
G75*
G02*
X1286000Y978875I0J21875D01*
G01*
X1286000Y1022625D01*
G75*
G02*
X1307875Y1044500I21875J0D01*
G01*
G37*
%TD.AperFunction*%
%TA.AperFunction,SMDPad,CuDef*%
G36*
G01*
X1307875Y1202000D02*
X1359125Y1202000D01*
G75*
G02*
X1381000Y1180125I0J-21875D01*
G01*
X1381000Y1136375D01*
G75*
G02*
X1359125Y1114500I-21875J0D01*
G01*
X1307875Y1114500D01*
G75*
G02*
X1286000Y1136375I0J21875D01*
G01*
X1286000Y1180125D01*
G75*
G02*
X1307875Y1202000I21875J0D01*
G01*
G37*
%TD.AperFunction*%
%TA.AperFunction,SMDPad,CuDef*%
D14*
G36*
X382500Y582940D02*
G01*
X384953Y582940D01*
X389836Y582459D01*
X394649Y581502D01*
X399344Y580077D01*
X403878Y578200D01*
X408205Y575886D01*
X412285Y573160D01*
X416078Y570048D01*
X419548Y566578D01*
X422660Y562785D01*
X425386Y558705D01*
X427699Y554378D01*
X429577Y549845D01*
X431002Y545149D01*
X431959Y540337D01*
X432440Y535453D01*
X432440Y533000D01*
X432500Y533000D01*
X432500Y483000D01*
X432440Y483000D01*
X432440Y480547D01*
X431959Y475663D01*
X431002Y470851D01*
X429577Y466155D01*
X427699Y461622D01*
X425386Y457295D01*
X422660Y453215D01*
X419548Y449422D01*
X416078Y445952D01*
X412285Y442840D01*
X408205Y440114D01*
X403878Y437800D01*
X399344Y435923D01*
X394649Y434498D01*
X389836Y433541D01*
X384953Y433060D01*
X382500Y433060D01*
X382500Y433000D01*
X332500Y433000D01*
X332500Y583000D01*
X382500Y583000D01*
X382500Y582940D01*
G37*
%TD.AperFunction*%
%TA.AperFunction,SMDPad,CuDef*%
G36*
X302500Y433000D02*
G01*
X252500Y433000D01*
X252500Y433060D01*
X250047Y433060D01*
X245163Y433541D01*
X240351Y434498D01*
X235655Y435923D01*
X231122Y437800D01*
X226795Y440114D01*
X222715Y442840D01*
X218922Y445952D01*
X215452Y449422D01*
X212340Y453215D01*
X209614Y457295D01*
X207300Y461622D01*
X205423Y466155D01*
X203998Y470851D01*
X203041Y475663D01*
X202560Y480547D01*
X202560Y483000D01*
X202500Y483000D01*
X202500Y533000D01*
X202560Y533000D01*
X202560Y535453D01*
X203041Y540337D01*
X203998Y545149D01*
X205423Y549845D01*
X207300Y554378D01*
X209614Y558705D01*
X212340Y562785D01*
X215452Y566578D01*
X218922Y570048D01*
X222715Y573160D01*
X226795Y575886D01*
X231122Y578200D01*
X235655Y580077D01*
X240351Y581502D01*
X245163Y582459D01*
X250047Y582940D01*
X252500Y582940D01*
X252500Y583000D01*
X302500Y583000D01*
X302500Y433000D01*
G37*
%TD.AperFunction*%
%TA.AperFunction,SMDPad,CuDef*%
G36*
G01*
X1212500Y-54000D02*
X1212500Y236000D01*
G75*
G02*
X1237500Y261000I25000J0D01*
G01*
X1337500Y261000D01*
G75*
G02*
X1362500Y236000I0J-25000D01*
G01*
X1362500Y-54000D01*
G75*
G02*
X1337500Y-79000I-25000J0D01*
G01*
X1237500Y-79000D01*
G75*
G02*
X1212500Y-54000I0J25000D01*
G01*
G37*
%TD.AperFunction*%
%TA.AperFunction,SMDPad,CuDef*%
G36*
G01*
X542500Y-54000D02*
X542500Y236000D01*
G75*
G02*
X567500Y261000I25000J0D01*
G01*
X667500Y261000D01*
G75*
G02*
X692500Y236000I0J-25000D01*
G01*
X692500Y-54000D01*
G75*
G02*
X667500Y-79000I-25000J0D01*
G01*
X567500Y-79000D01*
G75*
G02*
X542500Y-54000I0J25000D01*
G01*
G37*
%TD.AperFunction*%
%TA.AperFunction,SMDPad,CuDef*%
G36*
G01*
X1002500Y516000D02*
X1002500Y816000D01*
G75*
G02*
X1027500Y841000I25000J0D01*
G01*
X1077500Y841000D01*
G75*
G02*
X1102500Y816000I0J-25000D01*
G01*
X1102500Y516000D01*
G75*
G02*
X1077500Y491000I-25000J0D01*
G01*
X1027500Y491000D01*
G75*
G02*
X1002500Y516000I0J25000D01*
G01*
G37*
%TD.AperFunction*%
%TA.AperFunction,SMDPad,CuDef*%
G36*
G01*
X802500Y516000D02*
X802500Y816000D01*
G75*
G02*
X827500Y841000I25000J0D01*
G01*
X877500Y841000D01*
G75*
G02*
X902500Y816000I0J-25000D01*
G01*
X902500Y516000D01*
G75*
G02*
X877500Y491000I-25000J0D01*
G01*
X827500Y491000D01*
G75*
G02*
X802500Y516000I0J25000D01*
G01*
G37*
%TD.AperFunction*%
%TA.AperFunction,SMDPad,CuDef*%
G36*
G01*
X724125Y1114500D02*
X672875Y1114500D01*
G75*
G02*
X651000Y1136375I0J21875D01*
G01*
X651000Y1180125D01*
G75*
G02*
X672875Y1202000I21875J0D01*
G01*
X724125Y1202000D01*
G75*
G02*
X746000Y1180125I0J-21875D01*
G01*
X746000Y1136375D01*
G75*
G02*
X724125Y1114500I-21875J0D01*
G01*
G37*
%TD.AperFunction*%
%TA.AperFunction,SMDPad,CuDef*%
G36*
G01*
X724125Y957000D02*
X672875Y957000D01*
G75*
G02*
X651000Y978875I0J21875D01*
G01*
X651000Y1022625D01*
G75*
G02*
X672875Y1044500I21875J0D01*
G01*
X724125Y1044500D01*
G75*
G02*
X746000Y1022625I0J-21875D01*
G01*
X746000Y978875D01*
G75*
G02*
X724125Y957000I-21875J0D01*
G01*
G37*
%TD.AperFunction*%
D15*
X317500Y27000D03*
X222500Y227000D03*
X412500Y227000D03*
D16*
X1270000Y2540000D03*
X1016000Y2540000D03*
X762000Y2540000D03*
X508000Y2540000D03*
D17*
X254000Y2540000D03*
D18*
X1126000Y1174500D03*
X1126000Y984500D03*
X906000Y984500D03*
X906000Y1079500D03*
X906000Y1174500D03*
%TA.AperFunction,SMDPad,CuDef*%
D14*
G36*
X1051076Y1755000D02*
G01*
X1143000Y1846924D01*
X1234924Y1755000D01*
X1143000Y1663076D01*
X1051076Y1755000D01*
G37*
%TD.AperFunction*%
%TA.AperFunction,SMDPad,CuDef*%
G36*
X1051076Y2055000D02*
G01*
X1143000Y2146924D01*
X1234924Y2055000D01*
X1143000Y1963076D01*
X1051076Y2055000D01*
G37*
%TD.AperFunction*%
%TA.AperFunction,SMDPad,CuDef*%
G36*
G01*
X346000Y1549625D02*
X346000Y1498375D01*
G75*
G02*
X324125Y1476500I-21875J0D01*
G01*
X280375Y1476500D01*
G75*
G02*
X258500Y1498375I0J21875D01*
G01*
X258500Y1549625D01*
G75*
G02*
X280375Y1571500I21875J0D01*
G01*
X324125Y1571500D01*
G75*
G02*
X346000Y1549625I0J-21875D01*
G01*
G37*
%TD.AperFunction*%
%TA.AperFunction,SMDPad,CuDef*%
G36*
G01*
X503500Y1549625D02*
X503500Y1498375D01*
G75*
G02*
X481625Y1476500I-21875J0D01*
G01*
X437875Y1476500D01*
G75*
G02*
X416000Y1498375I0J21875D01*
G01*
X416000Y1549625D01*
G75*
G02*
X437875Y1571500I21875J0D01*
G01*
X481625Y1571500D01*
G75*
G02*
X503500Y1549625I0J-21875D01*
G01*
G37*
%TD.AperFunction*%
%TA.AperFunction,SMDPad,CuDef*%
G36*
G01*
X1359125Y1495500D02*
X1307875Y1495500D01*
G75*
G02*
X1286000Y1517375I0J21875D01*
G01*
X1286000Y1561125D01*
G75*
G02*
X1307875Y1583000I21875J0D01*
G01*
X1359125Y1583000D01*
G75*
G02*
X1381000Y1561125I0J-21875D01*
G01*
X1381000Y1517375D01*
G75*
G02*
X1359125Y1495500I-21875J0D01*
G01*
G37*
%TD.AperFunction*%
%TA.AperFunction,SMDPad,CuDef*%
G36*
G01*
X1359125Y1338000D02*
X1307875Y1338000D01*
G75*
G02*
X1286000Y1359875I0J21875D01*
G01*
X1286000Y1403625D01*
G75*
G02*
X1307875Y1425500I21875J0D01*
G01*
X1359125Y1425500D01*
G75*
G02*
X1381000Y1403625I0J-21875D01*
G01*
X1381000Y1359875D01*
G75*
G02*
X1359125Y1338000I-21875J0D01*
G01*
G37*
%TD.AperFunction*%
%TA.AperFunction,SMDPad,CuDef*%
G36*
X267900Y1195000D02*
G01*
X212900Y1195000D01*
X212900Y1195060D01*
X210447Y1195060D01*
X205563Y1195541D01*
X200751Y1196498D01*
X196055Y1197923D01*
X191522Y1199801D01*
X187195Y1202114D01*
X183115Y1204840D01*
X179322Y1207952D01*
X175852Y1211422D01*
X172740Y1215215D01*
X170014Y1219295D01*
X167701Y1223622D01*
X165823Y1228156D01*
X164398Y1232851D01*
X163441Y1237664D01*
X162960Y1242547D01*
X162960Y1245000D01*
X162900Y1245000D01*
X162900Y1295000D01*
X162960Y1295000D01*
X162960Y1297453D01*
X163441Y1302337D01*
X164398Y1307149D01*
X165823Y1311845D01*
X167701Y1316378D01*
X170014Y1320705D01*
X172740Y1324785D01*
X175852Y1328578D01*
X179322Y1332048D01*
X183115Y1335160D01*
X187195Y1337886D01*
X191522Y1340200D01*
X196055Y1342077D01*
X200751Y1343502D01*
X205563Y1344459D01*
X210447Y1344940D01*
X212900Y1344940D01*
X212900Y1345000D01*
X267900Y1345000D01*
X267900Y1195000D01*
G37*
%TD.AperFunction*%
D19*
X342900Y1270000D03*
%TA.AperFunction,SMDPad,CuDef*%
D14*
G36*
X472900Y1344940D02*
G01*
X475353Y1344940D01*
X480236Y1344459D01*
X485049Y1343502D01*
X489744Y1342077D01*
X494278Y1340200D01*
X498605Y1337886D01*
X502685Y1335160D01*
X506478Y1332048D01*
X509948Y1328578D01*
X513060Y1324785D01*
X515786Y1320705D01*
X518099Y1316378D01*
X519977Y1311845D01*
X521402Y1307149D01*
X522359Y1302337D01*
X522840Y1297453D01*
X522840Y1295000D01*
X522900Y1295000D01*
X522900Y1245000D01*
X522840Y1245000D01*
X522840Y1242547D01*
X522359Y1237664D01*
X521402Y1232851D01*
X519977Y1228156D01*
X518099Y1223622D01*
X515786Y1219295D01*
X513060Y1215215D01*
X509948Y1211422D01*
X506478Y1207952D01*
X502685Y1204840D01*
X498605Y1202114D01*
X494278Y1199801D01*
X489744Y1197923D01*
X485049Y1196498D01*
X480236Y1195541D01*
X475353Y1195060D01*
X472900Y1195060D01*
X472900Y1195000D01*
X417900Y1195000D01*
X417900Y1345000D01*
X472900Y1345000D01*
X472900Y1344940D01*
G37*
%TD.AperFunction*%
%TA.AperFunction,SMDPad,CuDef*%
G36*
X417900Y1091000D02*
G01*
X472900Y1091000D01*
X472900Y1090940D01*
X475353Y1090940D01*
X480236Y1090459D01*
X485049Y1089502D01*
X489744Y1088077D01*
X494278Y1086200D01*
X498605Y1083886D01*
X502685Y1081160D01*
X506478Y1078048D01*
X509948Y1074578D01*
X513060Y1070785D01*
X515786Y1066705D01*
X518099Y1062378D01*
X519977Y1057845D01*
X521402Y1053149D01*
X522359Y1048336D01*
X522840Y1043453D01*
X522840Y1041000D01*
X522900Y1041000D01*
X522900Y991000D01*
X522840Y991000D01*
X522840Y988547D01*
X522359Y983663D01*
X521402Y978851D01*
X519977Y974155D01*
X518099Y969622D01*
X515786Y965295D01*
X513060Y961215D01*
X509948Y957422D01*
X506478Y953952D01*
X502685Y950840D01*
X498605Y948114D01*
X494278Y945800D01*
X489744Y943923D01*
X485049Y942498D01*
X480236Y941541D01*
X475353Y941060D01*
X472900Y941060D01*
X472900Y941000D01*
X417900Y941000D01*
X417900Y1091000D01*
G37*
%TD.AperFunction*%
D19*
X342900Y1016000D03*
%TA.AperFunction,SMDPad,CuDef*%
D14*
G36*
X212900Y941060D02*
G01*
X210447Y941060D01*
X205563Y941541D01*
X200751Y942498D01*
X196055Y943923D01*
X191522Y945800D01*
X187195Y948114D01*
X183115Y950840D01*
X179322Y953952D01*
X175852Y957422D01*
X172740Y961215D01*
X170014Y965295D01*
X167701Y969622D01*
X165823Y974155D01*
X164398Y978851D01*
X163441Y983663D01*
X162960Y988547D01*
X162960Y991000D01*
X162900Y991000D01*
X162900Y1041000D01*
X162960Y1041000D01*
X162960Y1043453D01*
X163441Y1048336D01*
X164398Y1053149D01*
X165823Y1057845D01*
X167701Y1062378D01*
X170014Y1066705D01*
X172740Y1070785D01*
X175852Y1074578D01*
X179322Y1078048D01*
X183115Y1081160D01*
X187195Y1083886D01*
X191522Y1086200D01*
X196055Y1088077D01*
X200751Y1089502D01*
X205563Y1090459D01*
X210447Y1090940D01*
X212900Y1090940D01*
X212900Y1091000D01*
X267900Y1091000D01*
X267900Y941000D01*
X212900Y941000D01*
X212900Y941060D01*
G37*
%TD.AperFunction*%
D20*
X0Y0D03*
X0Y254000D03*
X0Y508000D03*
X1524000Y2794000D03*
X0Y762000D03*
X1524000Y2540000D03*
X0Y1016000D03*
X1524000Y2286000D03*
X0Y1270000D03*
X1524000Y2032000D03*
X0Y1524000D03*
X1524000Y1778000D03*
X0Y1778000D03*
X1524000Y1524000D03*
X0Y2032000D03*
X1524000Y1270000D03*
X0Y2286000D03*
X1524000Y1016000D03*
X0Y2540000D03*
X1524000Y762000D03*
X0Y2794000D03*
X1524000Y508000D03*
X1524000Y254000D03*
D21*
X1524000Y0D03*
D12*
X495300Y1143000D03*
X279400Y1143000D03*
D22*
X673100Y1714500D03*
D12*
X1231900Y889000D03*
X1333500Y1651000D03*
X789950Y1000750D03*
X1244600Y1308100D03*
X1219200Y1384300D03*
D23*
X1231900Y952500D02*
X1231900Y889000D01*
X1199900Y984500D02*
X1231900Y952500D01*
X1126000Y984500D02*
X1199900Y984500D01*
D24*
X1231100Y1510500D02*
X1104000Y1510500D01*
X1259850Y1539250D02*
X1231100Y1510500D01*
X1333500Y1539250D02*
X1259850Y1539250D01*
D23*
X1054100Y667600D02*
X1052500Y666000D01*
X1054100Y901700D02*
X1054100Y667600D01*
X971300Y984500D02*
X1054100Y901700D01*
X906000Y984500D02*
X971300Y984500D01*
X1333500Y1539250D02*
X1333500Y1651000D01*
X806200Y984500D02*
X906000Y984500D01*
X698500Y1000750D02*
X789950Y1000750D01*
D24*
X1104000Y1460500D02*
X1183070Y1460500D01*
X1183070Y1460500D02*
X1320800Y1460500D01*
X1320800Y1460500D02*
X1333500Y1447800D01*
X1333500Y1447800D02*
X1333500Y1384300D01*
X252500Y508000D02*
X202500Y508000D01*
X202500Y508000D02*
X0Y508000D01*
X317500Y317500D02*
X317500Y27000D01*
X252500Y382500D02*
X317500Y317500D01*
X252500Y508000D02*
X252500Y382500D01*
X674000Y1510500D02*
X546900Y1510500D01*
X533400Y1524000D02*
X546900Y1510500D01*
X459750Y1524000D02*
X533400Y1524000D01*
X212900Y1369380D02*
X212900Y1270000D01*
X265920Y1422400D02*
X212900Y1369380D01*
X330200Y1422400D02*
X265920Y1422400D01*
X378501Y1510360D02*
X378501Y1470701D01*
X378501Y1470701D02*
X330200Y1422400D01*
X392141Y1524000D02*
X378501Y1510360D01*
X459750Y1524000D02*
X392141Y1524000D01*
X212900Y1140000D02*
X212900Y1016000D01*
X212900Y1270000D02*
X212900Y1140000D01*
X1104000Y1334750D02*
X1130650Y1308100D01*
X1130650Y1308100D02*
X1244600Y1308100D01*
X1104000Y1360500D02*
X1104000Y1334750D01*
X1193000Y1410500D02*
X1219200Y1384300D01*
X1104000Y1410500D02*
X1193000Y1410500D01*
X382500Y433241D02*
X382500Y508000D01*
X382500Y354100D02*
X382500Y433241D01*
X412500Y324100D02*
X382500Y354100D01*
X412500Y227000D02*
X412500Y324100D01*
X427906Y553406D02*
X382500Y508000D01*
X614000Y1236300D02*
X614000Y739500D01*
X674000Y1296300D02*
X614000Y1236300D01*
X614000Y739500D02*
X427906Y553406D01*
X674000Y1360500D02*
X674000Y1296300D01*
X1242050Y1158250D02*
X1333500Y1158250D01*
X1225800Y1174500D02*
X1242050Y1158250D01*
X1126000Y1174500D02*
X1225800Y1174500D01*
X342900Y916000D02*
X342900Y1016000D01*
X369900Y889000D02*
X342900Y916000D01*
X508000Y889000D02*
X369900Y889000D01*
X568999Y1384569D02*
X568999Y949999D01*
X594930Y1410500D02*
X568999Y1384569D01*
X568999Y949999D02*
X508000Y889000D01*
X674000Y1410500D02*
X594930Y1410500D01*
X342900Y1370000D02*
X342900Y1270000D01*
X482600Y1397000D02*
X369900Y1397000D01*
X546100Y1460500D02*
X482600Y1397000D01*
X369900Y1397000D02*
X342900Y1370000D01*
X674000Y1460500D02*
X546100Y1460500D01*
D25*
G36*
X1493008Y2896167D02*
G01*
X1473672Y2888157D01*
X1456270Y2876530D01*
X1441470Y2861730D01*
X1429842Y2844328D01*
X1421833Y2824992D01*
X1417750Y2804465D01*
X1417750Y2783535D01*
X1421833Y2763008D01*
X1429842Y2743672D01*
X1441470Y2726270D01*
X1456270Y2711470D01*
X1473672Y2699843D01*
X1493008Y2691833D01*
X1513535Y2687750D01*
X1534465Y2687750D01*
X1554992Y2691833D01*
X1574328Y2699843D01*
X1591730Y2711470D01*
X1606530Y2726270D01*
X1618157Y2743672D01*
X1626167Y2763008D01*
X1627250Y2768453D01*
X1627250Y2565547D01*
X1626167Y2570992D01*
X1618157Y2590328D01*
X1606530Y2607730D01*
X1591730Y2622530D01*
X1574328Y2634158D01*
X1554992Y2642167D01*
X1534465Y2646250D01*
X1513535Y2646250D01*
X1493008Y2642167D01*
X1473672Y2634158D01*
X1456270Y2622530D01*
X1441470Y2607730D01*
X1429842Y2590328D01*
X1421833Y2570992D01*
X1417750Y2550465D01*
X1417750Y2529535D01*
X1421833Y2509008D01*
X1429842Y2489672D01*
X1441470Y2472270D01*
X1456270Y2457470D01*
X1473672Y2445843D01*
X1493008Y2437833D01*
X1513535Y2433750D01*
X1534465Y2433750D01*
X1554992Y2437833D01*
X1574328Y2445843D01*
X1591730Y2457470D01*
X1606530Y2472270D01*
X1618157Y2489672D01*
X1626167Y2509008D01*
X1627250Y2514453D01*
X1627250Y2311547D01*
X1626167Y2316992D01*
X1618157Y2336328D01*
X1606530Y2353730D01*
X1591730Y2368530D01*
X1574328Y2380158D01*
X1554992Y2388167D01*
X1534465Y2392250D01*
X1513535Y2392250D01*
X1493008Y2388167D01*
X1473672Y2380158D01*
X1456270Y2368530D01*
X1441470Y2353730D01*
X1429842Y2336328D01*
X1421833Y2316992D01*
X1417750Y2296465D01*
X1417750Y2275535D01*
X1421833Y2255008D01*
X1429842Y2235672D01*
X1441470Y2218270D01*
X1456270Y2203470D01*
X1473672Y2191843D01*
X1493008Y2183833D01*
X1513535Y2179750D01*
X1534465Y2179750D01*
X1554992Y2183833D01*
X1574328Y2191843D01*
X1591730Y2203470D01*
X1606530Y2218270D01*
X1618157Y2235672D01*
X1626167Y2255008D01*
X1627250Y2260453D01*
X1627250Y2057547D01*
X1626167Y2062992D01*
X1618157Y2082328D01*
X1606530Y2099730D01*
X1591730Y2114530D01*
X1574328Y2126158D01*
X1554992Y2134167D01*
X1534465Y2138250D01*
X1513535Y2138250D01*
X1493008Y2134167D01*
X1473672Y2126158D01*
X1456270Y2114530D01*
X1441470Y2099730D01*
X1429842Y2082328D01*
X1421833Y2062992D01*
X1417750Y2042465D01*
X1417750Y2021535D01*
X1421833Y2001008D01*
X1429842Y1981672D01*
X1441470Y1964270D01*
X1456270Y1949470D01*
X1473672Y1937842D01*
X1493008Y1929833D01*
X1513535Y1925750D01*
X1534465Y1925750D01*
X1554992Y1929833D01*
X1574328Y1937842D01*
X1591730Y1949470D01*
X1606530Y1964270D01*
X1618157Y1981672D01*
X1626167Y2001008D01*
X1627250Y2006453D01*
X1627250Y1803547D01*
X1626167Y1808992D01*
X1618157Y1828328D01*
X1606530Y1845730D01*
X1591730Y1860530D01*
X1574328Y1872157D01*
X1554992Y1880167D01*
X1534465Y1884250D01*
X1513535Y1884250D01*
X1493008Y1880167D01*
X1473672Y1872157D01*
X1456270Y1860530D01*
X1441470Y1845730D01*
X1429842Y1828328D01*
X1421833Y1808992D01*
X1417750Y1788465D01*
X1417750Y1767535D01*
X1421833Y1747008D01*
X1429842Y1727672D01*
X1441470Y1710270D01*
X1456270Y1695470D01*
X1473672Y1683842D01*
X1493008Y1675833D01*
X1513535Y1671750D01*
X1534465Y1671750D01*
X1554992Y1675833D01*
X1574328Y1683842D01*
X1591730Y1695470D01*
X1606530Y1710270D01*
X1618157Y1727672D01*
X1626167Y1747008D01*
X1627250Y1752453D01*
X1627250Y1549547D01*
X1626167Y1554992D01*
X1618157Y1574328D01*
X1606530Y1591730D01*
X1591730Y1606530D01*
X1574328Y1618157D01*
X1554992Y1626167D01*
X1534465Y1630250D01*
X1513535Y1630250D01*
X1493008Y1626167D01*
X1473672Y1618157D01*
X1456270Y1606530D01*
X1441470Y1591730D01*
X1429842Y1574328D01*
X1421833Y1554992D01*
X1417750Y1534465D01*
X1417750Y1513535D01*
X1421833Y1493008D01*
X1429842Y1473672D01*
X1441470Y1456270D01*
X1456270Y1441470D01*
X1473672Y1429842D01*
X1493008Y1421833D01*
X1513535Y1417750D01*
X1534465Y1417750D01*
X1554992Y1421833D01*
X1574328Y1429842D01*
X1591730Y1441470D01*
X1606530Y1456270D01*
X1618157Y1473672D01*
X1626167Y1493008D01*
X1627250Y1498453D01*
X1627250Y1295547D01*
X1626167Y1300992D01*
X1618157Y1320328D01*
X1606530Y1337730D01*
X1591730Y1352530D01*
X1574328Y1364158D01*
X1554992Y1372167D01*
X1534465Y1376250D01*
X1513535Y1376250D01*
X1493008Y1372167D01*
X1473672Y1364158D01*
X1456270Y1352530D01*
X1441470Y1337730D01*
X1429842Y1320328D01*
X1421833Y1300992D01*
X1417750Y1280465D01*
X1417750Y1259535D01*
X1421833Y1239008D01*
X1429842Y1219672D01*
X1441470Y1202270D01*
X1456270Y1187470D01*
X1473672Y1175843D01*
X1493008Y1167833D01*
X1513535Y1163750D01*
X1534465Y1163750D01*
X1554992Y1167833D01*
X1574328Y1175843D01*
X1591730Y1187470D01*
X1606530Y1202270D01*
X1618157Y1219672D01*
X1626167Y1239008D01*
X1627250Y1244453D01*
X1627250Y1041546D01*
X1626167Y1046992D01*
X1618157Y1066328D01*
X1606530Y1083730D01*
X1591730Y1098530D01*
X1574328Y1110158D01*
X1554992Y1118167D01*
X1534465Y1122250D01*
X1513535Y1122250D01*
X1493008Y1118167D01*
X1473672Y1110158D01*
X1456270Y1098530D01*
X1441470Y1083730D01*
X1429842Y1066328D01*
X1421833Y1046992D01*
X1417750Y1026465D01*
X1417750Y1005535D01*
X1421833Y985008D01*
X1429842Y965672D01*
X1441470Y948270D01*
X1456270Y933470D01*
X1473672Y921842D01*
X1493008Y913833D01*
X1513535Y909750D01*
X1534465Y909750D01*
X1554992Y913833D01*
X1574328Y921842D01*
X1591730Y933470D01*
X1606530Y948270D01*
X1618157Y965672D01*
X1626167Y985008D01*
X1627250Y990453D01*
X1627250Y770750D01*
X1623303Y770750D01*
X1627217Y787207D01*
X1623826Y798385D01*
X1614810Y817161D01*
X1602303Y833818D01*
X1586788Y847714D01*
X1568859Y858316D01*
X1549207Y865217D01*
X1532750Y861327D01*
X1532750Y770750D01*
X1534750Y770750D01*
X1534750Y753250D01*
X1532750Y753250D01*
X1532750Y662673D01*
X1549207Y658783D01*
X1568859Y665684D01*
X1586788Y676286D01*
X1602303Y690182D01*
X1614810Y706839D01*
X1623826Y725615D01*
X1627217Y736793D01*
X1623303Y753250D01*
X1627250Y753250D01*
X1627250Y533546D01*
X1626167Y538992D01*
X1618157Y558328D01*
X1606530Y575730D01*
X1591730Y590530D01*
X1574328Y602158D01*
X1554992Y610167D01*
X1534465Y614250D01*
X1513535Y614250D01*
X1493008Y610167D01*
X1473672Y602158D01*
X1456270Y590530D01*
X1441470Y575730D01*
X1429842Y558328D01*
X1421833Y538992D01*
X1417750Y518465D01*
X1417750Y497535D01*
X1421833Y477008D01*
X1429842Y457672D01*
X1441470Y440270D01*
X1456270Y425470D01*
X1473672Y413842D01*
X1493008Y405833D01*
X1513535Y401750D01*
X1534465Y401750D01*
X1554992Y405833D01*
X1574328Y413842D01*
X1591730Y425470D01*
X1606530Y440270D01*
X1618157Y457672D01*
X1626167Y477008D01*
X1627250Y482454D01*
X1627250Y279546D01*
X1626167Y284992D01*
X1618157Y304328D01*
X1606530Y321730D01*
X1591730Y336530D01*
X1574328Y348158D01*
X1554992Y356167D01*
X1534465Y360250D01*
X1513535Y360250D01*
X1493008Y356167D01*
X1473672Y348158D01*
X1456270Y336530D01*
X1441470Y321730D01*
X1429842Y304328D01*
X1421833Y284992D01*
X1417750Y264465D01*
X1417750Y243535D01*
X1421833Y223008D01*
X1429842Y203672D01*
X1441470Y186270D01*
X1456270Y171470D01*
X1473672Y159843D01*
X1493008Y151833D01*
X1513535Y147750D01*
X1534465Y147750D01*
X1554992Y151833D01*
X1574328Y159843D01*
X1591730Y171470D01*
X1606530Y186270D01*
X1618157Y203672D01*
X1626167Y223008D01*
X1627250Y228454D01*
X1627250Y92188D01*
X1625932Y94654D01*
X1622651Y98651D01*
X1618654Y101932D01*
X1614094Y104369D01*
X1609146Y105870D01*
X1604000Y106377D01*
X1444000Y106377D01*
X1438854Y105870D01*
X1433906Y104369D01*
X1429346Y101932D01*
X1425349Y98651D01*
X1422068Y94654D01*
X1419631Y90094D01*
X1418130Y85146D01*
X1417623Y80000D01*
X1417623Y-80000D01*
X1418130Y-85146D01*
X1419631Y-90094D01*
X1422068Y-94654D01*
X1425349Y-98651D01*
X1429346Y-101932D01*
X1431812Y-103250D01*
X1351281Y-103250D01*
X1357161Y-101466D01*
X1366044Y-96718D01*
X1373829Y-90329D01*
X1380218Y-82544D01*
X1384966Y-73661D01*
X1387890Y-64023D01*
X1388877Y-54000D01*
X1388877Y236000D01*
X1387890Y246023D01*
X1384966Y255661D01*
X1380218Y264544D01*
X1373829Y272329D01*
X1366044Y278718D01*
X1357161Y283466D01*
X1347523Y286390D01*
X1337500Y287377D01*
X1237500Y287377D01*
X1227477Y286390D01*
X1217839Y283466D01*
X1208957Y278718D01*
X1201171Y272329D01*
X1194782Y264544D01*
X1190034Y255661D01*
X1187110Y246023D01*
X1186123Y236000D01*
X1186123Y-54000D01*
X1187110Y-64023D01*
X1190034Y-73661D01*
X1194782Y-82544D01*
X1201171Y-90329D01*
X1208957Y-96718D01*
X1217839Y-101466D01*
X1223719Y-103250D01*
X681281Y-103250D01*
X687161Y-101466D01*
X696044Y-96718D01*
X703829Y-90329D01*
X710218Y-82544D01*
X714966Y-73661D01*
X717890Y-64023D01*
X718877Y-54000D01*
X718877Y236000D01*
X717890Y246023D01*
X714966Y255661D01*
X710218Y264544D01*
X703829Y272329D01*
X696044Y278718D01*
X687161Y283466D01*
X677523Y286390D01*
X667500Y287377D01*
X567500Y287377D01*
X557477Y286390D01*
X547839Y283466D01*
X538957Y278718D01*
X531171Y272329D01*
X524782Y264544D01*
X520034Y255661D01*
X517110Y246023D01*
X516123Y236000D01*
X516123Y-54000D01*
X517110Y-64023D01*
X520034Y-73661D01*
X524782Y-82544D01*
X531171Y-90329D01*
X538957Y-96718D01*
X547839Y-101466D01*
X553719Y-103250D01*
X25547Y-103250D01*
X30992Y-102167D01*
X50328Y-94157D01*
X67730Y-82530D01*
X82530Y-67730D01*
X94157Y-50328D01*
X102167Y-30992D01*
X106250Y-10465D01*
X106250Y10465D01*
X102167Y30992D01*
X94157Y50328D01*
X82530Y67730D01*
X67730Y82530D01*
X50328Y94157D01*
X30992Y102167D01*
X10465Y106250D01*
X-10465Y106250D01*
X-30992Y102167D01*
X-50328Y94157D01*
X-67730Y82530D01*
X-82530Y67730D01*
X-94157Y50328D01*
X-102167Y30992D01*
X-103250Y25547D01*
X-103250Y245250D01*
X-99303Y245250D01*
X-103217Y228793D01*
X-99826Y217615D01*
X-90810Y198839D01*
X-78303Y182182D01*
X-62788Y168286D01*
X-44859Y157684D01*
X-25207Y150783D01*
X-8750Y154673D01*
X-8750Y245250D01*
X8750Y245250D01*
X8750Y154673D01*
X25207Y150783D01*
X44859Y157684D01*
X62788Y168286D01*
X78100Y182000D01*
X156123Y182000D01*
X156630Y176854D01*
X158131Y171906D01*
X160568Y167346D01*
X163849Y163349D01*
X167846Y160068D01*
X172406Y157631D01*
X177354Y156130D01*
X182500Y155623D01*
X207187Y155750D01*
X213750Y162313D01*
X213750Y218250D01*
X162813Y218250D01*
X156250Y211687D01*
X156123Y182000D01*
X78100Y182000D01*
X78303Y182182D01*
X90810Y198839D01*
X99826Y217615D01*
X103217Y228793D01*
X99303Y245250D01*
X8750Y245250D01*
X-8750Y245250D01*
X-10750Y245250D01*
X-10750Y262750D01*
X-8750Y262750D01*
X-8750Y353327D01*
X8750Y353327D01*
X8750Y262750D01*
X99303Y262750D01*
X101502Y272000D01*
X156123Y272000D01*
X156250Y242312D01*
X162813Y235750D01*
X213750Y235750D01*
X213750Y291688D01*
X207187Y298250D01*
X182500Y298377D01*
X177354Y297870D01*
X172406Y296369D01*
X167846Y293932D01*
X163849Y290651D01*
X160568Y286654D01*
X158131Y282094D01*
X156630Y277146D01*
X156123Y272000D01*
X101502Y272000D01*
X103217Y279207D01*
X99826Y290385D01*
X90810Y309161D01*
X78303Y325818D01*
X62788Y339714D01*
X44859Y350316D01*
X25207Y357217D01*
X8750Y353327D01*
X-8750Y353327D01*
X-25207Y357217D01*
X-44859Y350316D01*
X-62788Y339714D01*
X-78303Y325818D01*
X-90810Y309161D01*
X-99826Y290385D01*
X-103217Y279207D01*
X-99303Y262750D01*
X-103250Y262750D01*
X-103250Y482453D01*
X-102167Y477008D01*
X-94157Y457672D01*
X-82530Y440270D01*
X-67730Y425470D01*
X-50328Y413842D01*
X-30992Y405833D01*
X-10465Y401750D01*
X10465Y401750D01*
X30992Y405833D01*
X50328Y413842D01*
X67730Y425470D01*
X82530Y440270D01*
X94157Y457672D01*
X98953Y469250D01*
X177607Y469250D01*
X178783Y463340D01*
X180284Y458392D01*
X184035Y449336D01*
X186472Y444776D01*
X191918Y436626D01*
X195198Y432629D01*
X202129Y425698D01*
X206126Y422418D01*
X213750Y417323D01*
X213750Y384404D01*
X213563Y382500D01*
X214311Y374904D01*
X216101Y369001D01*
X216527Y367599D01*
X220125Y360867D01*
X224967Y354967D01*
X226445Y353754D01*
X278750Y301449D01*
X278750Y292622D01*
X277154Y293932D01*
X272594Y296369D01*
X267646Y297870D01*
X262500Y298377D01*
X237812Y298250D01*
X231250Y291688D01*
X231250Y235750D01*
X233250Y235750D01*
X233250Y218250D01*
X231250Y218250D01*
X231250Y162313D01*
X237812Y155750D01*
X262500Y155623D01*
X267646Y156130D01*
X272594Y157631D01*
X277154Y160068D01*
X278750Y161378D01*
X278750Y98377D01*
X277500Y98377D01*
X272354Y97870D01*
X267406Y96369D01*
X262846Y93932D01*
X258849Y90651D01*
X255568Y86654D01*
X253131Y82094D01*
X251630Y77146D01*
X251123Y72000D01*
X251123Y-18000D01*
X251630Y-23146D01*
X253131Y-28094D01*
X255568Y-32654D01*
X258849Y-36651D01*
X262846Y-39932D01*
X267406Y-42369D01*
X272354Y-43870D01*
X277500Y-44377D01*
X357500Y-44377D01*
X362646Y-43870D01*
X367594Y-42369D01*
X372154Y-39932D01*
X376151Y-36651D01*
X379432Y-32654D01*
X381869Y-28094D01*
X383370Y-23146D01*
X383877Y-18000D01*
X383877Y72000D01*
X383370Y77146D01*
X381869Y82094D01*
X379432Y86654D01*
X376151Y90651D01*
X372154Y93932D01*
X367594Y96369D01*
X362646Y97870D01*
X357500Y98377D01*
X356250Y98377D01*
X356250Y161378D01*
X357846Y160068D01*
X362406Y157631D01*
X367354Y156130D01*
X372500Y155623D01*
X452500Y155623D01*
X457646Y156130D01*
X462594Y157631D01*
X467154Y160068D01*
X471151Y163349D01*
X474432Y167346D01*
X476869Y171906D01*
X478370Y176854D01*
X478877Y182000D01*
X478877Y272000D01*
X478370Y277146D01*
X476869Y282094D01*
X474432Y286654D01*
X471151Y290651D01*
X467154Y293932D01*
X462594Y296369D01*
X457646Y297870D01*
X452500Y298377D01*
X451250Y298377D01*
X451250Y322198D01*
X451437Y324100D01*
X451250Y326002D01*
X451250Y326003D01*
X450689Y331696D01*
X450455Y332468D01*
X449223Y336530D01*
X448473Y339001D01*
X444875Y345733D01*
X440033Y351633D01*
X438555Y352846D01*
X421250Y370151D01*
X421250Y417324D01*
X428874Y422418D01*
X432871Y425698D01*
X439802Y432629D01*
X443082Y436626D01*
X448528Y444776D01*
X450965Y449336D01*
X454716Y458392D01*
X456217Y463340D01*
X458129Y472953D01*
X458636Y478099D01*
X458636Y480555D01*
X458877Y483000D01*
X458877Y491000D01*
X776123Y491000D01*
X776630Y485854D01*
X778131Y480906D01*
X780568Y476346D01*
X783849Y472349D01*
X787846Y469068D01*
X792406Y466631D01*
X797354Y465130D01*
X802500Y464623D01*
X837187Y464750D01*
X843750Y471312D01*
X843750Y657250D01*
X861250Y657250D01*
X861250Y471312D01*
X867812Y464750D01*
X902500Y464623D01*
X907646Y465130D01*
X912594Y466631D01*
X917154Y469068D01*
X921151Y472349D01*
X924432Y476346D01*
X926869Y480906D01*
X928370Y485854D01*
X928877Y491000D01*
X928750Y650688D01*
X922187Y657250D01*
X861250Y657250D01*
X843750Y657250D01*
X782812Y657250D01*
X776250Y650688D01*
X776123Y491000D01*
X458877Y491000D01*
X458877Y529576D01*
X640055Y710754D01*
X641533Y711967D01*
X646375Y717868D01*
X649974Y724599D01*
X652189Y731904D01*
X652750Y737597D01*
X652750Y737598D01*
X652937Y739500D01*
X652750Y741402D01*
X652750Y841000D01*
X776123Y841000D01*
X776250Y681313D01*
X782812Y674750D01*
X843750Y674750D01*
X843750Y860687D01*
X861250Y860687D01*
X861250Y674750D01*
X922187Y674750D01*
X928750Y681313D01*
X928877Y841000D01*
X928370Y846146D01*
X926869Y851094D01*
X924432Y855654D01*
X921151Y859651D01*
X917154Y862932D01*
X912594Y865369D01*
X907646Y866870D01*
X902500Y867377D01*
X867812Y867250D01*
X861250Y860687D01*
X843750Y860687D01*
X837187Y867250D01*
X802500Y867377D01*
X797354Y866870D01*
X792406Y865369D01*
X787846Y862932D01*
X783849Y859651D01*
X780568Y855654D01*
X778131Y851094D01*
X776630Y846146D01*
X776123Y841000D01*
X652750Y841000D01*
X652750Y935183D01*
X654410Y934296D01*
X663462Y931550D01*
X672875Y930623D01*
X724125Y930623D01*
X733538Y931550D01*
X742590Y934296D01*
X750932Y938755D01*
X758244Y944756D01*
X764245Y952068D01*
X765545Y954500D01*
X767685Y954500D01*
X772691Y952426D01*
X773338Y951638D01*
X780381Y945858D01*
X788415Y941564D01*
X797133Y938919D01*
X803929Y938250D01*
X830585Y938250D01*
X831068Y937346D01*
X834349Y933349D01*
X838346Y930068D01*
X842906Y927631D01*
X847854Y926130D01*
X853000Y925623D01*
X959000Y925623D01*
X964146Y926130D01*
X964236Y926157D01*
X1007850Y882543D01*
X1007850Y863470D01*
X1007839Y863466D01*
X998956Y858718D01*
X991171Y852329D01*
X984782Y844543D01*
X980034Y835661D01*
X977110Y826023D01*
X976123Y816000D01*
X976123Y516000D01*
X977110Y505977D01*
X980034Y496339D01*
X984782Y487456D01*
X991171Y479671D01*
X998956Y473282D01*
X1007839Y468534D01*
X1017477Y465610D01*
X1027500Y464623D01*
X1077500Y464623D01*
X1087523Y465610D01*
X1097161Y468534D01*
X1106044Y473282D01*
X1113829Y479671D01*
X1120218Y487456D01*
X1124966Y496339D01*
X1127890Y505977D01*
X1128877Y516000D01*
X1128877Y736793D01*
X1420783Y736793D01*
X1424174Y725615D01*
X1433190Y706839D01*
X1445697Y690182D01*
X1461212Y676286D01*
X1479141Y665684D01*
X1498793Y658783D01*
X1515250Y662673D01*
X1515250Y753250D01*
X1424697Y753250D01*
X1420783Y736793D01*
X1128877Y736793D01*
X1128877Y787207D01*
X1420783Y787207D01*
X1424697Y770750D01*
X1515250Y770750D01*
X1515250Y861327D01*
X1498793Y865217D01*
X1479141Y858316D01*
X1461212Y847714D01*
X1445697Y833818D01*
X1433190Y817161D01*
X1424174Y798385D01*
X1420783Y787207D01*
X1128877Y787207D01*
X1128877Y816000D01*
X1127890Y826023D01*
X1124966Y835661D01*
X1120218Y844543D01*
X1113829Y852329D01*
X1106044Y858718D01*
X1100350Y861762D01*
X1100350Y899429D01*
X1100574Y901700D01*
X1099681Y910767D01*
X1097036Y919485D01*
X1094653Y923944D01*
X1093755Y925623D01*
X1179000Y925623D01*
X1184146Y926130D01*
X1185650Y926586D01*
X1185650Y911266D01*
X1182620Y903949D01*
X1180650Y894048D01*
X1180650Y883952D01*
X1182620Y874051D01*
X1186483Y864724D01*
X1192092Y856330D01*
X1199230Y849191D01*
X1207624Y843583D01*
X1216951Y839719D01*
X1226852Y837750D01*
X1236948Y837750D01*
X1246849Y839719D01*
X1256176Y843583D01*
X1264570Y849191D01*
X1271709Y856330D01*
X1277317Y864724D01*
X1281181Y874051D01*
X1283150Y883952D01*
X1283150Y894048D01*
X1281181Y903949D01*
X1278150Y911265D01*
X1278150Y931950D01*
X1280854Y931130D01*
X1286000Y930623D01*
X1318188Y930750D01*
X1324750Y937312D01*
X1324750Y992000D01*
X1342250Y992000D01*
X1342250Y937312D01*
X1348813Y930750D01*
X1381000Y930623D01*
X1386146Y931130D01*
X1391094Y932631D01*
X1395654Y935068D01*
X1399651Y938349D01*
X1402932Y942346D01*
X1405369Y946906D01*
X1406870Y951854D01*
X1407377Y957000D01*
X1407250Y985437D01*
X1400687Y992000D01*
X1342250Y992000D01*
X1324750Y992000D01*
X1266313Y992000D01*
X1262060Y987747D01*
X1234210Y1015597D01*
X1232762Y1017362D01*
X1225719Y1023141D01*
X1217685Y1027436D01*
X1208967Y1030081D01*
X1202171Y1030750D01*
X1201373Y1030829D01*
X1200932Y1031654D01*
X1197651Y1035651D01*
X1193654Y1038932D01*
X1189094Y1041369D01*
X1184146Y1042870D01*
X1179000Y1043377D01*
X1073000Y1043377D01*
X1067854Y1042870D01*
X1062906Y1041369D01*
X1058346Y1038932D01*
X1054349Y1035651D01*
X1051068Y1031654D01*
X1048631Y1027094D01*
X1047130Y1022146D01*
X1046623Y1017000D01*
X1046623Y974584D01*
X1005610Y1015597D01*
X1004162Y1017362D01*
X997119Y1023141D01*
X989085Y1027436D01*
X982045Y1029572D01*
X980932Y1031654D01*
X980648Y1032000D01*
X980932Y1032346D01*
X983369Y1036906D01*
X984870Y1041854D01*
X985131Y1044500D01*
X1259623Y1044500D01*
X1259750Y1016062D01*
X1266313Y1009500D01*
X1324750Y1009500D01*
X1324750Y1064188D01*
X1342250Y1064188D01*
X1342250Y1009500D01*
X1400687Y1009500D01*
X1407250Y1016062D01*
X1407377Y1044500D01*
X1406870Y1049646D01*
X1405369Y1054594D01*
X1402932Y1059154D01*
X1399651Y1063151D01*
X1395654Y1066432D01*
X1391094Y1068869D01*
X1386146Y1070370D01*
X1381000Y1070877D01*
X1348813Y1070750D01*
X1342250Y1064188D01*
X1324750Y1064188D01*
X1318188Y1070750D01*
X1286000Y1070877D01*
X1280854Y1070370D01*
X1275906Y1068869D01*
X1271346Y1066432D01*
X1267349Y1063151D01*
X1264068Y1059154D01*
X1261631Y1054594D01*
X1260130Y1049646D01*
X1259623Y1044500D01*
X985131Y1044500D01*
X985377Y1047000D01*
X985250Y1064188D01*
X978687Y1070750D01*
X914750Y1070750D01*
X914750Y1068750D01*
X897250Y1068750D01*
X897250Y1070750D01*
X833312Y1070750D01*
X826750Y1064188D01*
X826623Y1047000D01*
X827130Y1041854D01*
X828631Y1036906D01*
X831068Y1032346D01*
X831352Y1032000D01*
X831068Y1031654D01*
X831010Y1031546D01*
X829758Y1033420D01*
X822620Y1040558D01*
X814226Y1046167D01*
X804899Y1050031D01*
X794998Y1052000D01*
X784902Y1052000D01*
X775001Y1050031D01*
X767685Y1047000D01*
X765545Y1047000D01*
X764245Y1049432D01*
X758244Y1056744D01*
X750932Y1062745D01*
X742590Y1067204D01*
X733538Y1069950D01*
X724125Y1070877D01*
X672875Y1070877D01*
X663462Y1069950D01*
X654410Y1067204D01*
X652750Y1066317D01*
X652750Y1088130D01*
X683188Y1088250D01*
X689750Y1094813D01*
X689750Y1149500D01*
X707250Y1149500D01*
X707250Y1094813D01*
X713812Y1088250D01*
X746000Y1088123D01*
X751146Y1088630D01*
X756094Y1090131D01*
X760654Y1092568D01*
X764651Y1095849D01*
X767932Y1099846D01*
X770369Y1104406D01*
X771870Y1109354D01*
X772377Y1114500D01*
X772250Y1142938D01*
X765687Y1149500D01*
X707250Y1149500D01*
X689750Y1149500D01*
X687750Y1149500D01*
X687750Y1167000D01*
X689750Y1167000D01*
X689750Y1221688D01*
X707250Y1221688D01*
X707250Y1167000D01*
X765687Y1167000D01*
X772250Y1173563D01*
X772377Y1202000D01*
X771885Y1207000D01*
X826623Y1207000D01*
X826623Y1142000D01*
X827130Y1136854D01*
X828631Y1131906D01*
X831068Y1127346D01*
X831352Y1127000D01*
X831068Y1126654D01*
X828631Y1122094D01*
X827130Y1117146D01*
X826623Y1112000D01*
X826750Y1094813D01*
X833312Y1088250D01*
X897250Y1088250D01*
X897250Y1090250D01*
X914750Y1090250D01*
X914750Y1088250D01*
X978687Y1088250D01*
X985250Y1094813D01*
X985377Y1112000D01*
X984870Y1117146D01*
X983369Y1122094D01*
X980932Y1126654D01*
X980648Y1127000D01*
X980932Y1127346D01*
X983369Y1131906D01*
X984870Y1136854D01*
X985377Y1142000D01*
X985377Y1207000D01*
X1046623Y1207000D01*
X1046623Y1142000D01*
X1047130Y1136854D01*
X1048631Y1131906D01*
X1051068Y1127346D01*
X1054349Y1123349D01*
X1058346Y1120068D01*
X1062906Y1117631D01*
X1067854Y1116130D01*
X1073000Y1115623D01*
X1179000Y1115623D01*
X1184146Y1116130D01*
X1189094Y1117631D01*
X1193654Y1120068D01*
X1197651Y1123349D01*
X1200932Y1127346D01*
X1203369Y1131906D01*
X1204535Y1135750D01*
X1209749Y1135750D01*
X1213304Y1132196D01*
X1214517Y1130717D01*
X1220418Y1125875D01*
X1227149Y1122277D01*
X1234454Y1120061D01*
X1242050Y1119313D01*
X1243953Y1119500D01*
X1262814Y1119500D01*
X1263296Y1117910D01*
X1267755Y1109568D01*
X1273756Y1102256D01*
X1281068Y1096255D01*
X1289410Y1091796D01*
X1298462Y1089050D01*
X1307875Y1088123D01*
X1359125Y1088123D01*
X1368539Y1089050D01*
X1377590Y1091796D01*
X1385932Y1096255D01*
X1393244Y1102256D01*
X1399245Y1109568D01*
X1403704Y1117910D01*
X1406450Y1126962D01*
X1407377Y1136375D01*
X1407377Y1180125D01*
X1406450Y1189539D01*
X1403704Y1198590D01*
X1399245Y1206932D01*
X1393244Y1214244D01*
X1385932Y1220245D01*
X1377590Y1224704D01*
X1368539Y1227450D01*
X1359125Y1228377D01*
X1307875Y1228377D01*
X1298462Y1227450D01*
X1289410Y1224704D01*
X1281068Y1220245D01*
X1273756Y1214244D01*
X1267755Y1206932D01*
X1263296Y1198590D01*
X1262814Y1197000D01*
X1258101Y1197000D01*
X1254546Y1200555D01*
X1253333Y1202033D01*
X1247433Y1206875D01*
X1240701Y1210474D01*
X1233396Y1212689D01*
X1227703Y1213250D01*
X1225800Y1213437D01*
X1223897Y1213250D01*
X1204535Y1213250D01*
X1203369Y1217094D01*
X1200932Y1221654D01*
X1197651Y1225651D01*
X1193654Y1228932D01*
X1189094Y1231369D01*
X1184146Y1232870D01*
X1179000Y1233377D01*
X1073000Y1233377D01*
X1067854Y1232870D01*
X1062906Y1231369D01*
X1058346Y1228932D01*
X1054349Y1225651D01*
X1051068Y1221654D01*
X1048631Y1217094D01*
X1047130Y1212146D01*
X1046623Y1207000D01*
X985377Y1207000D01*
X984870Y1212146D01*
X983369Y1217094D01*
X980932Y1221654D01*
X977651Y1225651D01*
X973654Y1228932D01*
X969094Y1231369D01*
X964146Y1232870D01*
X959000Y1233377D01*
X853000Y1233377D01*
X847854Y1232870D01*
X842906Y1231369D01*
X838346Y1228932D01*
X834349Y1225651D01*
X831068Y1221654D01*
X828631Y1217094D01*
X827130Y1212146D01*
X826623Y1207000D01*
X771885Y1207000D01*
X771870Y1207146D01*
X770369Y1212094D01*
X767932Y1216654D01*
X764651Y1220651D01*
X760654Y1223932D01*
X756094Y1226369D01*
X751146Y1227870D01*
X746000Y1228377D01*
X713812Y1228250D01*
X707250Y1221688D01*
X689750Y1221688D01*
X683188Y1228250D01*
X660839Y1228338D01*
X700055Y1267554D01*
X701533Y1268767D01*
X706375Y1274668D01*
X708880Y1279354D01*
X709973Y1281399D01*
X712189Y1288704D01*
X712937Y1296300D01*
X712750Y1298203D01*
X712750Y1319123D01*
X739000Y1319123D01*
X745609Y1319774D01*
X751964Y1321702D01*
X757821Y1324832D01*
X762955Y1329045D01*
X767168Y1334179D01*
X770298Y1340036D01*
X772226Y1346391D01*
X772877Y1353000D01*
X772877Y1366500D01*
X778623Y1366500D01*
X779130Y1361354D01*
X780631Y1356406D01*
X783068Y1351846D01*
X786349Y1347849D01*
X790346Y1344568D01*
X794906Y1342131D01*
X799854Y1340630D01*
X805000Y1340123D01*
X873687Y1340250D01*
X880250Y1346813D01*
X880250Y1372882D01*
X883751Y1382200D01*
X885390Y1392161D01*
X885167Y1398839D01*
X892610Y1398839D01*
X892946Y1388749D01*
X895244Y1378919D01*
X897750Y1372870D01*
X897750Y1346813D01*
X904312Y1340250D01*
X973000Y1340123D01*
X978146Y1340630D01*
X983094Y1342131D01*
X987654Y1344568D01*
X991651Y1347849D01*
X994932Y1351846D01*
X997369Y1356406D01*
X998870Y1361354D01*
X999377Y1366500D01*
X999250Y1445187D01*
X992687Y1451750D01*
X897750Y1451750D01*
X897750Y1418118D01*
X894249Y1408800D01*
X892610Y1398839D01*
X885167Y1398839D01*
X885053Y1402251D01*
X882755Y1412081D01*
X880250Y1418130D01*
X880250Y1451750D01*
X785312Y1451750D01*
X778750Y1445187D01*
X778623Y1366500D01*
X772877Y1366500D01*
X772877Y1368000D01*
X772226Y1374609D01*
X770298Y1380964D01*
X767874Y1385500D01*
X770298Y1390036D01*
X772226Y1396391D01*
X772877Y1403000D01*
X772877Y1418000D01*
X772226Y1424609D01*
X770298Y1430964D01*
X767874Y1435500D01*
X770298Y1440036D01*
X772226Y1446391D01*
X772877Y1453000D01*
X772877Y1468000D01*
X772226Y1474609D01*
X770298Y1480964D01*
X767874Y1485500D01*
X770298Y1490036D01*
X772226Y1496391D01*
X772877Y1503000D01*
X772877Y1510450D01*
X778694Y1510450D01*
X778750Y1475812D01*
X785312Y1469250D01*
X880250Y1469250D01*
X880250Y1502882D01*
X883751Y1512200D01*
X885390Y1522161D01*
X885167Y1528839D01*
X892610Y1528839D01*
X892946Y1518749D01*
X895244Y1508919D01*
X897750Y1502870D01*
X897750Y1469250D01*
X992687Y1469250D01*
X999250Y1475812D01*
X999316Y1516598D01*
X1001416Y1514874D01*
X1005123Y1512893D01*
X1005123Y1503000D01*
X1005774Y1496391D01*
X1007702Y1490036D01*
X1010126Y1485500D01*
X1007702Y1480964D01*
X1005774Y1474609D01*
X1005123Y1468000D01*
X1005123Y1453000D01*
X1005774Y1446391D01*
X1007702Y1440036D01*
X1010126Y1435500D01*
X1007702Y1430964D01*
X1005774Y1424609D01*
X1005123Y1418000D01*
X1005123Y1403000D01*
X1005774Y1396391D01*
X1007702Y1390036D01*
X1010126Y1385500D01*
X1007702Y1380964D01*
X1005774Y1374609D01*
X1005123Y1368000D01*
X1005123Y1353000D01*
X1005774Y1346391D01*
X1007702Y1340036D01*
X1010832Y1334179D01*
X1015045Y1329045D01*
X1020179Y1324832D01*
X1026036Y1321702D01*
X1032391Y1319774D01*
X1039000Y1319123D01*
X1068415Y1319123D01*
X1071625Y1313118D01*
X1076467Y1307217D01*
X1077945Y1306004D01*
X1101904Y1282045D01*
X1103117Y1280567D01*
X1109018Y1275725D01*
X1115749Y1272127D01*
X1120838Y1270583D01*
X1123054Y1269911D01*
X1130650Y1269163D01*
X1132553Y1269350D01*
X1210872Y1269350D01*
X1211930Y1268292D01*
X1220324Y1262683D01*
X1229651Y1258820D01*
X1239552Y1256850D01*
X1249648Y1256850D01*
X1259549Y1258820D01*
X1268876Y1262683D01*
X1277270Y1268292D01*
X1284409Y1275430D01*
X1290017Y1283824D01*
X1293881Y1293151D01*
X1295850Y1303052D01*
X1295850Y1313148D01*
X1295809Y1313355D01*
X1298462Y1312550D01*
X1307875Y1311623D01*
X1359125Y1311623D01*
X1368539Y1312550D01*
X1377590Y1315296D01*
X1385932Y1319755D01*
X1393244Y1325756D01*
X1399245Y1333068D01*
X1403704Y1341410D01*
X1406450Y1350462D01*
X1407377Y1359875D01*
X1407377Y1403625D01*
X1406450Y1413038D01*
X1403704Y1422090D01*
X1399245Y1430432D01*
X1393244Y1437744D01*
X1385932Y1443745D01*
X1377590Y1448204D01*
X1372238Y1449828D01*
X1371689Y1455396D01*
X1369474Y1462701D01*
X1365875Y1469432D01*
X1365606Y1469761D01*
X1368539Y1470050D01*
X1377590Y1472796D01*
X1385932Y1477255D01*
X1393244Y1483256D01*
X1399245Y1490568D01*
X1403704Y1498910D01*
X1406450Y1507961D01*
X1407377Y1517375D01*
X1407377Y1561125D01*
X1406450Y1570538D01*
X1403704Y1579590D01*
X1399245Y1587932D01*
X1393244Y1595244D01*
X1385932Y1601245D01*
X1379750Y1604550D01*
X1379750Y1628735D01*
X1382781Y1636051D01*
X1384750Y1645952D01*
X1384750Y1656048D01*
X1382781Y1665949D01*
X1378917Y1675276D01*
X1373309Y1683670D01*
X1366170Y1690808D01*
X1357776Y1696417D01*
X1348449Y1700280D01*
X1338548Y1702250D01*
X1328452Y1702250D01*
X1318551Y1700280D01*
X1309224Y1696417D01*
X1300830Y1690808D01*
X1293692Y1683670D01*
X1288083Y1675276D01*
X1284220Y1665949D01*
X1283550Y1662583D01*
X1283550Y1765300D01*
X1283046Y1770421D01*
X1281552Y1775345D01*
X1279126Y1779884D01*
X1275862Y1783862D01*
X1161562Y1898162D01*
X1157584Y1901426D01*
X1153045Y1903852D01*
X1148121Y1905346D01*
X1143000Y1905850D01*
X1137879Y1905346D01*
X1132955Y1903852D01*
X1128416Y1901426D01*
X1124438Y1898162D01*
X997438Y1771162D01*
X994174Y1767184D01*
X991748Y1762645D01*
X990254Y1757721D01*
X989750Y1752600D01*
X989750Y1574712D01*
X987654Y1576432D01*
X983094Y1578869D01*
X978146Y1580370D01*
X973000Y1580877D01*
X904312Y1580750D01*
X897750Y1574187D01*
X897750Y1548118D01*
X894249Y1538800D01*
X892610Y1528839D01*
X885167Y1528839D01*
X885053Y1532251D01*
X882755Y1542081D01*
X880250Y1548130D01*
X880250Y1574187D01*
X873687Y1580750D01*
X851750Y1580791D01*
X851750Y1665527D01*
X1127809Y1941585D01*
X1128346Y1941144D01*
X1132906Y1938707D01*
X1137854Y1937206D01*
X1143000Y1936699D01*
X1148146Y1937206D01*
X1153094Y1938707D01*
X1157654Y1941144D01*
X1161651Y1944425D01*
X1253575Y2036349D01*
X1256856Y2040346D01*
X1259293Y2044906D01*
X1260794Y2049854D01*
X1261301Y2055000D01*
X1260794Y2060146D01*
X1259293Y2065094D01*
X1256856Y2069654D01*
X1256415Y2070191D01*
X1288562Y2102338D01*
X1291826Y2106316D01*
X1294252Y2110855D01*
X1295746Y2115779D01*
X1296250Y2120900D01*
X1295746Y2126021D01*
X1294252Y2130945D01*
X1291826Y2135484D01*
X1288562Y2139462D01*
X1019273Y2408750D01*
X1028927Y2408750D01*
X1054284Y2413794D01*
X1078170Y2423688D01*
X1099667Y2438051D01*
X1117949Y2456333D01*
X1132312Y2477830D01*
X1142206Y2501716D01*
X1143000Y2505707D01*
X1143794Y2501716D01*
X1153688Y2477830D01*
X1168051Y2456333D01*
X1186333Y2438051D01*
X1207830Y2423688D01*
X1231716Y2413794D01*
X1257073Y2408750D01*
X1282927Y2408750D01*
X1308284Y2413794D01*
X1332170Y2423688D01*
X1353667Y2438051D01*
X1371949Y2456333D01*
X1386312Y2477830D01*
X1396206Y2501716D01*
X1401250Y2527073D01*
X1401250Y2552927D01*
X1396206Y2578284D01*
X1386312Y2602170D01*
X1371949Y2623667D01*
X1353667Y2641949D01*
X1332170Y2656312D01*
X1308284Y2666206D01*
X1282927Y2671250D01*
X1257073Y2671250D01*
X1231716Y2666206D01*
X1207830Y2656312D01*
X1186333Y2641949D01*
X1168051Y2623667D01*
X1153688Y2602170D01*
X1143794Y2578284D01*
X1143000Y2574293D01*
X1142206Y2578284D01*
X1132312Y2602170D01*
X1117949Y2623667D01*
X1099667Y2641949D01*
X1078170Y2656312D01*
X1054284Y2666206D01*
X1028927Y2671250D01*
X1003073Y2671250D01*
X977716Y2666206D01*
X953830Y2656312D01*
X932333Y2641949D01*
X914051Y2623667D01*
X899688Y2602170D01*
X889794Y2578284D01*
X889000Y2574293D01*
X888206Y2578284D01*
X878312Y2602170D01*
X863949Y2623667D01*
X845667Y2641949D01*
X824170Y2656312D01*
X800284Y2666206D01*
X774927Y2671250D01*
X749073Y2671250D01*
X723716Y2666206D01*
X699830Y2656312D01*
X678333Y2641949D01*
X660051Y2623667D01*
X645688Y2602170D01*
X635794Y2578284D01*
X635703Y2577826D01*
X634531Y2576654D01*
X634206Y2578284D01*
X624312Y2602170D01*
X609949Y2623667D01*
X591667Y2641949D01*
X570170Y2656312D01*
X546284Y2666206D01*
X520927Y2671250D01*
X495073Y2671250D01*
X469716Y2666206D01*
X445830Y2656312D01*
X424333Y2641949D01*
X406051Y2623667D01*
X391688Y2602170D01*
X385294Y2586736D01*
X385377Y2645000D01*
X384870Y2650146D01*
X383369Y2655094D01*
X380932Y2659654D01*
X377651Y2663651D01*
X373654Y2666932D01*
X369094Y2669369D01*
X364146Y2670870D01*
X359000Y2671377D01*
X269313Y2671250D01*
X262750Y2664688D01*
X262750Y2548750D01*
X264750Y2548750D01*
X264750Y2531250D01*
X262750Y2531250D01*
X262750Y2415313D01*
X269313Y2408750D01*
X359000Y2408623D01*
X364146Y2409130D01*
X369094Y2410631D01*
X373654Y2413068D01*
X377651Y2416349D01*
X380932Y2420346D01*
X383369Y2424906D01*
X384870Y2429854D01*
X385377Y2435000D01*
X385294Y2493264D01*
X391688Y2477830D01*
X406051Y2456333D01*
X424333Y2438051D01*
X445830Y2423688D01*
X469716Y2413794D01*
X495073Y2408750D01*
X520927Y2408750D01*
X546284Y2413794D01*
X570170Y2423688D01*
X591667Y2438051D01*
X608750Y2455134D01*
X608750Y2011377D01*
X583000Y2011377D01*
X572977Y2010390D01*
X563339Y2007466D01*
X554457Y2002718D01*
X546671Y1996329D01*
X540282Y1988543D01*
X535534Y1979661D01*
X532610Y1970023D01*
X531623Y1960000D01*
X531623Y1850000D01*
X532610Y1839977D01*
X535534Y1830339D01*
X540282Y1821456D01*
X546671Y1813671D01*
X554457Y1807282D01*
X563339Y1802534D01*
X572977Y1799610D01*
X583000Y1798623D01*
X608750Y1798623D01*
X608750Y1601852D01*
X602391Y1601226D01*
X596036Y1599298D01*
X590179Y1596168D01*
X585045Y1591955D01*
X580832Y1586821D01*
X577702Y1580964D01*
X575774Y1574609D01*
X575123Y1568000D01*
X575123Y1553000D01*
X575492Y1549250D01*
X562951Y1549250D01*
X562146Y1550054D01*
X560933Y1551533D01*
X555033Y1556375D01*
X548301Y1559973D01*
X540996Y1562189D01*
X535303Y1562750D01*
X533400Y1562937D01*
X531497Y1562750D01*
X527824Y1562750D01*
X526204Y1568090D01*
X521745Y1576432D01*
X515744Y1583744D01*
X508432Y1589745D01*
X500090Y1594204D01*
X491038Y1596950D01*
X481625Y1597877D01*
X437875Y1597877D01*
X428461Y1596950D01*
X419410Y1594204D01*
X411068Y1589745D01*
X403756Y1583744D01*
X397755Y1576432D01*
X393296Y1568090D01*
X391720Y1562896D01*
X390238Y1562750D01*
X384544Y1562189D01*
X377240Y1559973D01*
X372321Y1557344D01*
X372377Y1571500D01*
X371870Y1576646D01*
X370369Y1581594D01*
X367932Y1586154D01*
X364651Y1590151D01*
X360654Y1593432D01*
X356094Y1595869D01*
X351146Y1597370D01*
X346000Y1597877D01*
X317563Y1597750D01*
X311000Y1591187D01*
X311000Y1532750D01*
X313000Y1532750D01*
X313000Y1515250D01*
X311000Y1515250D01*
X311000Y1513250D01*
X293500Y1513250D01*
X293500Y1515250D01*
X238812Y1515250D01*
X232250Y1508687D01*
X232123Y1476500D01*
X232630Y1471354D01*
X234131Y1466406D01*
X236568Y1461846D01*
X239849Y1457849D01*
X243846Y1454568D01*
X243961Y1454507D01*
X238387Y1449933D01*
X237175Y1448455D01*
X186845Y1398126D01*
X185367Y1396913D01*
X180525Y1391012D01*
X176926Y1384280D01*
X175401Y1379252D01*
X174711Y1376976D01*
X173963Y1369380D01*
X174150Y1367477D01*
X174150Y1360676D01*
X166526Y1355582D01*
X162529Y1352302D01*
X155598Y1345371D01*
X152318Y1341374D01*
X146872Y1333224D01*
X144435Y1328664D01*
X140684Y1319608D01*
X139183Y1314660D01*
X137271Y1305047D01*
X136764Y1299901D01*
X136764Y1297445D01*
X136523Y1295000D01*
X136523Y1245000D01*
X136764Y1242555D01*
X136764Y1240099D01*
X137271Y1234953D01*
X139183Y1225340D01*
X140684Y1220392D01*
X144435Y1211336D01*
X146872Y1206776D01*
X152318Y1198626D01*
X155598Y1194629D01*
X162529Y1187698D01*
X166526Y1184418D01*
X174150Y1179324D01*
X174150Y1141904D01*
X174150Y1141903D01*
X174150Y1106676D01*
X166526Y1101582D01*
X162529Y1098302D01*
X155598Y1091371D01*
X152318Y1087374D01*
X146872Y1079224D01*
X144435Y1074664D01*
X140684Y1065608D01*
X139183Y1060660D01*
X137271Y1051047D01*
X136764Y1045901D01*
X136764Y1043445D01*
X136523Y1041000D01*
X136523Y991000D01*
X136764Y988555D01*
X136764Y986099D01*
X137271Y980953D01*
X139183Y971340D01*
X140684Y966392D01*
X144435Y957336D01*
X146872Y952776D01*
X152318Y944626D01*
X155598Y940629D01*
X162529Y933698D01*
X166526Y930418D01*
X174676Y924972D01*
X179236Y922535D01*
X188292Y918784D01*
X193240Y917283D01*
X202853Y915371D01*
X207999Y914864D01*
X210455Y914864D01*
X212900Y914623D01*
X267900Y914623D01*
X273046Y915130D01*
X277994Y916631D01*
X280400Y917917D01*
X282806Y916631D01*
X287754Y915130D01*
X292900Y914623D01*
X304098Y914623D01*
X304150Y914097D01*
X304711Y908404D01*
X306927Y901099D01*
X310525Y894368D01*
X315367Y888467D01*
X316846Y887254D01*
X341154Y862945D01*
X342367Y861467D01*
X348268Y856625D01*
X354999Y853027D01*
X354999Y853026D01*
X362304Y850811D01*
X369900Y850063D01*
X371803Y850250D01*
X506097Y850250D01*
X508000Y850063D01*
X509903Y850250D01*
X515596Y850811D01*
X522901Y853026D01*
X529633Y856625D01*
X535533Y861467D01*
X536746Y862945D01*
X575250Y901449D01*
X575250Y755551D01*
X419423Y599723D01*
X416164Y601465D01*
X407108Y605216D01*
X402160Y606717D01*
X392547Y608629D01*
X387401Y609136D01*
X384945Y609136D01*
X382500Y609377D01*
X332500Y609377D01*
X327354Y608870D01*
X322406Y607369D01*
X317846Y604932D01*
X317500Y604648D01*
X317154Y604932D01*
X312594Y607369D01*
X307646Y608870D01*
X302500Y609377D01*
X252500Y609377D01*
X250055Y609136D01*
X247599Y609136D01*
X242453Y608629D01*
X232840Y606717D01*
X227892Y605216D01*
X218836Y601465D01*
X214276Y599028D01*
X206126Y593582D01*
X202129Y590302D01*
X195198Y583371D01*
X191918Y579374D01*
X186472Y571224D01*
X184035Y566664D01*
X180284Y557608D01*
X178783Y552660D01*
X177607Y546750D01*
X98953Y546750D01*
X94157Y558328D01*
X82530Y575730D01*
X67730Y590530D01*
X50328Y602158D01*
X30992Y610167D01*
X10465Y614250D01*
X-10465Y614250D01*
X-30992Y610167D01*
X-50328Y602158D01*
X-67730Y590530D01*
X-82530Y575730D01*
X-94157Y558328D01*
X-102167Y538992D01*
X-103250Y533547D01*
X-103250Y736453D01*
X-102167Y731008D01*
X-94157Y711672D01*
X-82530Y694270D01*
X-67730Y679470D01*
X-50328Y667843D01*
X-30992Y659833D01*
X-10465Y655750D01*
X10465Y655750D01*
X30992Y659833D01*
X50328Y667843D01*
X67730Y679470D01*
X82530Y694270D01*
X94157Y711672D01*
X102167Y731008D01*
X106250Y751535D01*
X106250Y772465D01*
X102167Y792992D01*
X94157Y812328D01*
X82530Y829730D01*
X67730Y844530D01*
X50328Y856157D01*
X30992Y864167D01*
X10465Y868250D01*
X-10465Y868250D01*
X-30992Y864167D01*
X-50328Y856157D01*
X-67730Y844530D01*
X-82530Y829730D01*
X-94157Y812328D01*
X-102167Y792992D01*
X-103250Y787547D01*
X-103250Y990453D01*
X-102167Y985008D01*
X-94157Y965672D01*
X-82530Y948270D01*
X-67730Y933470D01*
X-50328Y921842D01*
X-30992Y913833D01*
X-10465Y909750D01*
X10465Y909750D01*
X30992Y913833D01*
X50328Y921842D01*
X67730Y933470D01*
X82530Y948270D01*
X94157Y965672D01*
X102167Y985008D01*
X106250Y1005535D01*
X106250Y1026465D01*
X102167Y1046992D01*
X94157Y1066328D01*
X82530Y1083730D01*
X67730Y1098530D01*
X50328Y1110158D01*
X30992Y1118167D01*
X10465Y1122250D01*
X-10465Y1122250D01*
X-30992Y1118167D01*
X-50328Y1110158D01*
X-67730Y1098530D01*
X-82530Y1083730D01*
X-94157Y1066328D01*
X-102167Y1046992D01*
X-103250Y1041547D01*
X-103250Y1244453D01*
X-102167Y1239008D01*
X-94157Y1219672D01*
X-82530Y1202270D01*
X-67730Y1187470D01*
X-50328Y1175843D01*
X-30992Y1167833D01*
X-10465Y1163750D01*
X10465Y1163750D01*
X30992Y1167833D01*
X50328Y1175843D01*
X67730Y1187470D01*
X82530Y1202270D01*
X94157Y1219672D01*
X102167Y1239008D01*
X106250Y1259535D01*
X106250Y1280465D01*
X102167Y1300992D01*
X94157Y1320328D01*
X82530Y1337730D01*
X67730Y1352530D01*
X50328Y1364158D01*
X30992Y1372167D01*
X10465Y1376250D01*
X-10465Y1376250D01*
X-30992Y1372167D01*
X-50328Y1364158D01*
X-67730Y1352530D01*
X-82530Y1337730D01*
X-94157Y1320328D01*
X-102167Y1300992D01*
X-103250Y1295547D01*
X-103250Y1498453D01*
X-102167Y1493008D01*
X-94157Y1473672D01*
X-82530Y1456270D01*
X-67730Y1441470D01*
X-50328Y1429842D01*
X-30992Y1421833D01*
X-10465Y1417750D01*
X10465Y1417750D01*
X30992Y1421833D01*
X50328Y1429842D01*
X67730Y1441470D01*
X82530Y1456270D01*
X94157Y1473672D01*
X102167Y1493008D01*
X106250Y1513535D01*
X106250Y1534465D01*
X102167Y1554992D01*
X95329Y1571500D01*
X232123Y1571500D01*
X232250Y1539312D01*
X238812Y1532750D01*
X293500Y1532750D01*
X293500Y1591187D01*
X286938Y1597750D01*
X258500Y1597877D01*
X253354Y1597370D01*
X248406Y1595869D01*
X243846Y1593432D01*
X239849Y1590151D01*
X236568Y1586154D01*
X234131Y1581594D01*
X232630Y1576646D01*
X232123Y1571500D01*
X95329Y1571500D01*
X94157Y1574328D01*
X82530Y1591730D01*
X67730Y1606530D01*
X50328Y1618157D01*
X30992Y1626167D01*
X10465Y1630250D01*
X-10465Y1630250D01*
X-30992Y1626167D01*
X-50328Y1618157D01*
X-67730Y1606530D01*
X-82530Y1591730D01*
X-94157Y1574328D01*
X-102167Y1554992D01*
X-103250Y1549547D01*
X-103250Y1752453D01*
X-102167Y1747008D01*
X-94157Y1727672D01*
X-82530Y1710270D01*
X-67730Y1695470D01*
X-50328Y1683842D01*
X-30992Y1675833D01*
X-10465Y1671750D01*
X10465Y1671750D01*
X30992Y1675833D01*
X50328Y1683842D01*
X67730Y1695470D01*
X82530Y1710270D01*
X94157Y1727672D01*
X102167Y1747008D01*
X106250Y1767535D01*
X106250Y1788465D01*
X102167Y1808992D01*
X95536Y1825000D01*
X171623Y1825000D01*
X172130Y1819854D01*
X173631Y1814906D01*
X176068Y1810346D01*
X179349Y1806349D01*
X183346Y1803068D01*
X187906Y1800631D01*
X192854Y1799130D01*
X198000Y1798623D01*
X312688Y1798750D01*
X319250Y1805312D01*
X319250Y1896250D01*
X336750Y1896250D01*
X336750Y1805312D01*
X343313Y1798750D01*
X458000Y1798623D01*
X463146Y1799130D01*
X468094Y1800631D01*
X472654Y1803068D01*
X476651Y1806349D01*
X479932Y1810346D01*
X482369Y1814906D01*
X483870Y1819854D01*
X484377Y1825000D01*
X484250Y1889687D01*
X477687Y1896250D01*
X336750Y1896250D01*
X319250Y1896250D01*
X178312Y1896250D01*
X171750Y1889687D01*
X171623Y1825000D01*
X95536Y1825000D01*
X94157Y1828328D01*
X82530Y1845730D01*
X67730Y1860530D01*
X50328Y1872157D01*
X30992Y1880167D01*
X10465Y1884250D01*
X-10465Y1884250D01*
X-30992Y1880167D01*
X-50328Y1872157D01*
X-67730Y1860530D01*
X-82530Y1845730D01*
X-94157Y1828328D01*
X-102167Y1808992D01*
X-103250Y1803547D01*
X-103250Y2006453D01*
X-102167Y2001008D01*
X-94157Y1981672D01*
X-82530Y1964270D01*
X-67730Y1949470D01*
X-50328Y1937842D01*
X-30992Y1929833D01*
X-10465Y1925750D01*
X10465Y1925750D01*
X30992Y1929833D01*
X50328Y1937842D01*
X67730Y1949470D01*
X82530Y1964270D01*
X94157Y1981672D01*
X95536Y1985000D01*
X171623Y1985000D01*
X171750Y1920312D01*
X178312Y1913750D01*
X319250Y1913750D01*
X319250Y2004687D01*
X336750Y2004687D01*
X336750Y1913750D01*
X477687Y1913750D01*
X484250Y1920312D01*
X484377Y1985000D01*
X483870Y1990146D01*
X482369Y1995094D01*
X479932Y1999654D01*
X476651Y2003651D01*
X472654Y2006932D01*
X468094Y2009369D01*
X463146Y2010870D01*
X458000Y2011377D01*
X343313Y2011250D01*
X336750Y2004687D01*
X319250Y2004687D01*
X312688Y2011250D01*
X198000Y2011377D01*
X192854Y2010870D01*
X187906Y2009369D01*
X183346Y2006932D01*
X179349Y2003651D01*
X176068Y1999654D01*
X173631Y1995094D01*
X172130Y1990146D01*
X171623Y1985000D01*
X95536Y1985000D01*
X102167Y2001008D01*
X106250Y2021535D01*
X106250Y2042465D01*
X102167Y2062992D01*
X94157Y2082328D01*
X82530Y2099730D01*
X67730Y2114530D01*
X50328Y2126158D01*
X30992Y2134167D01*
X10465Y2138250D01*
X-10465Y2138250D01*
X-30992Y2134167D01*
X-50328Y2126158D01*
X-67730Y2114530D01*
X-82530Y2099730D01*
X-94157Y2082328D01*
X-102167Y2062992D01*
X-103250Y2057547D01*
X-103250Y2260453D01*
X-102167Y2255008D01*
X-94157Y2235672D01*
X-82530Y2218270D01*
X-67730Y2203470D01*
X-50328Y2191843D01*
X-30992Y2183833D01*
X-10465Y2179750D01*
X10465Y2179750D01*
X30992Y2183833D01*
X50328Y2191843D01*
X67730Y2203470D01*
X82530Y2218270D01*
X94157Y2235672D01*
X102167Y2255008D01*
X106250Y2275535D01*
X106250Y2296465D01*
X102167Y2316992D01*
X94157Y2336328D01*
X82530Y2353730D01*
X67730Y2368530D01*
X50328Y2380158D01*
X30992Y2388167D01*
X10465Y2392250D01*
X-10465Y2392250D01*
X-30992Y2388167D01*
X-50328Y2380158D01*
X-67730Y2368530D01*
X-82530Y2353730D01*
X-94157Y2336328D01*
X-102167Y2316992D01*
X-103250Y2311547D01*
X-103250Y2514453D01*
X-102167Y2509008D01*
X-94157Y2489672D01*
X-82530Y2472270D01*
X-67730Y2457470D01*
X-50328Y2445843D01*
X-30992Y2437833D01*
X-10465Y2433750D01*
X10465Y2433750D01*
X16749Y2435000D01*
X122623Y2435000D01*
X123130Y2429854D01*
X124631Y2424906D01*
X127068Y2420346D01*
X130349Y2416349D01*
X134346Y2413068D01*
X138906Y2410631D01*
X143854Y2409130D01*
X149000Y2408623D01*
X238687Y2408750D01*
X245250Y2415313D01*
X245250Y2531250D01*
X129312Y2531250D01*
X122750Y2524688D01*
X122623Y2435000D01*
X16749Y2435000D01*
X30992Y2437833D01*
X50328Y2445843D01*
X67730Y2457470D01*
X82530Y2472270D01*
X94157Y2489672D01*
X102167Y2509008D01*
X106250Y2529535D01*
X106250Y2550465D01*
X102167Y2570992D01*
X94157Y2590328D01*
X82530Y2607730D01*
X67730Y2622530D01*
X50328Y2634158D01*
X30992Y2642167D01*
X16749Y2645000D01*
X122623Y2645000D01*
X122750Y2555313D01*
X129312Y2548750D01*
X245250Y2548750D01*
X245250Y2664688D01*
X238687Y2671250D01*
X149000Y2671377D01*
X143854Y2670870D01*
X138906Y2669369D01*
X134346Y2666932D01*
X130349Y2663651D01*
X127068Y2659654D01*
X124631Y2655094D01*
X123130Y2650146D01*
X122623Y2645000D01*
X16749Y2645000D01*
X10465Y2646250D01*
X-10465Y2646250D01*
X-30992Y2642167D01*
X-50328Y2634158D01*
X-67730Y2622530D01*
X-82530Y2607730D01*
X-94157Y2590328D01*
X-102167Y2570992D01*
X-103250Y2565547D01*
X-103250Y2768453D01*
X-102167Y2763008D01*
X-94157Y2743672D01*
X-82530Y2726270D01*
X-67730Y2711470D01*
X-50328Y2699843D01*
X-30992Y2691833D01*
X-10465Y2687750D01*
X10465Y2687750D01*
X30992Y2691833D01*
X50328Y2699843D01*
X67730Y2711470D01*
X82530Y2726270D01*
X94157Y2743672D01*
X102167Y2763008D01*
X106250Y2783535D01*
X106250Y2804465D01*
X102167Y2824992D01*
X94157Y2844328D01*
X82530Y2861730D01*
X67730Y2876530D01*
X50328Y2888157D01*
X30992Y2896167D01*
X25547Y2897250D01*
X1498453Y2897250D01*
X1493008Y2896167D01*
G37*
X1493008Y2896167D02*
X1473672Y2888157D01*
X1456270Y2876530D01*
X1441470Y2861730D01*
X1429842Y2844328D01*
X1421833Y2824992D01*
X1417750Y2804465D01*
X1417750Y2783535D01*
X1421833Y2763008D01*
X1429842Y2743672D01*
X1441470Y2726270D01*
X1456270Y2711470D01*
X1473672Y2699843D01*
X1493008Y2691833D01*
X1513535Y2687750D01*
X1534465Y2687750D01*
X1554992Y2691833D01*
X1574328Y2699843D01*
X1591730Y2711470D01*
X1606530Y2726270D01*
X1618157Y2743672D01*
X1626167Y2763008D01*
X1627250Y2768453D01*
X1627250Y2565547D01*
X1626167Y2570992D01*
X1618157Y2590328D01*
X1606530Y2607730D01*
X1591730Y2622530D01*
X1574328Y2634158D01*
X1554992Y2642167D01*
X1534465Y2646250D01*
X1513535Y2646250D01*
X1493008Y2642167D01*
X1473672Y2634158D01*
X1456270Y2622530D01*
X1441470Y2607730D01*
X1429842Y2590328D01*
X1421833Y2570992D01*
X1417750Y2550465D01*
X1417750Y2529535D01*
X1421833Y2509008D01*
X1429842Y2489672D01*
X1441470Y2472270D01*
X1456270Y2457470D01*
X1473672Y2445843D01*
X1493008Y2437833D01*
X1513535Y2433750D01*
X1534465Y2433750D01*
X1554992Y2437833D01*
X1574328Y2445843D01*
X1591730Y2457470D01*
X1606530Y2472270D01*
X1618157Y2489672D01*
X1626167Y2509008D01*
X1627250Y2514453D01*
X1627250Y2311547D01*
X1626167Y2316992D01*
X1618157Y2336328D01*
X1606530Y2353730D01*
X1591730Y2368530D01*
X1574328Y2380158D01*
X1554992Y2388167D01*
X1534465Y2392250D01*
X1513535Y2392250D01*
X1493008Y2388167D01*
X1473672Y2380158D01*
X1456270Y2368530D01*
X1441470Y2353730D01*
X1429842Y2336328D01*
X1421833Y2316992D01*
X1417750Y2296465D01*
X1417750Y2275535D01*
X1421833Y2255008D01*
X1429842Y2235672D01*
X1441470Y2218270D01*
X1456270Y2203470D01*
X1473672Y2191843D01*
X1493008Y2183833D01*
X1513535Y2179750D01*
X1534465Y2179750D01*
X1554992Y2183833D01*
X1574328Y2191843D01*
X1591730Y2203470D01*
X1606530Y2218270D01*
X1618157Y2235672D01*
X1626167Y2255008D01*
X1627250Y2260453D01*
X1627250Y2057547D01*
X1626167Y2062992D01*
X1618157Y2082328D01*
X1606530Y2099730D01*
X1591730Y2114530D01*
X1574328Y2126158D01*
X1554992Y2134167D01*
X1534465Y2138250D01*
X1513535Y2138250D01*
X1493008Y2134167D01*
X1473672Y2126158D01*
X1456270Y2114530D01*
X1441470Y2099730D01*
X1429842Y2082328D01*
X1421833Y2062992D01*
X1417750Y2042465D01*
X1417750Y2021535D01*
X1421833Y2001008D01*
X1429842Y1981672D01*
X1441470Y1964270D01*
X1456270Y1949470D01*
X1473672Y1937842D01*
X1493008Y1929833D01*
X1513535Y1925750D01*
X1534465Y1925750D01*
X1554992Y1929833D01*
X1574328Y1937842D01*
X1591730Y1949470D01*
X1606530Y1964270D01*
X1618157Y1981672D01*
X1626167Y2001008D01*
X1627250Y2006453D01*
X1627250Y1803547D01*
X1626167Y1808992D01*
X1618157Y1828328D01*
X1606530Y1845730D01*
X1591730Y1860530D01*
X1574328Y1872157D01*
X1554992Y1880167D01*
X1534465Y1884250D01*
X1513535Y1884250D01*
X1493008Y1880167D01*
X1473672Y1872157D01*
X1456270Y1860530D01*
X1441470Y1845730D01*
X1429842Y1828328D01*
X1421833Y1808992D01*
X1417750Y1788465D01*
X1417750Y1767535D01*
X1421833Y1747008D01*
X1429842Y1727672D01*
X1441470Y1710270D01*
X1456270Y1695470D01*
X1473672Y1683842D01*
X1493008Y1675833D01*
X1513535Y1671750D01*
X1534465Y1671750D01*
X1554992Y1675833D01*
X1574328Y1683842D01*
X1591730Y1695470D01*
X1606530Y1710270D01*
X1618157Y1727672D01*
X1626167Y1747008D01*
X1627250Y1752453D01*
X1627250Y1549547D01*
X1626167Y1554992D01*
X1618157Y1574328D01*
X1606530Y1591730D01*
X1591730Y1606530D01*
X1574328Y1618157D01*
X1554992Y1626167D01*
X1534465Y1630250D01*
X1513535Y1630250D01*
X1493008Y1626167D01*
X1473672Y1618157D01*
X1456270Y1606530D01*
X1441470Y1591730D01*
X1429842Y1574328D01*
X1421833Y1554992D01*
X1417750Y1534465D01*
X1417750Y1513535D01*
X1421833Y1493008D01*
X1429842Y1473672D01*
X1441470Y1456270D01*
X1456270Y1441470D01*
X1473672Y1429842D01*
X1493008Y1421833D01*
X1513535Y1417750D01*
X1534465Y1417750D01*
X1554992Y1421833D01*
X1574328Y1429842D01*
X1591730Y1441470D01*
X1606530Y1456270D01*
X1618157Y1473672D01*
X1626167Y1493008D01*
X1627250Y1498453D01*
X1627250Y1295547D01*
X1626167Y1300992D01*
X1618157Y1320328D01*
X1606530Y1337730D01*
X1591730Y1352530D01*
X1574328Y1364158D01*
X1554992Y1372167D01*
X1534465Y1376250D01*
X1513535Y1376250D01*
X1493008Y1372167D01*
X1473672Y1364158D01*
X1456270Y1352530D01*
X1441470Y1337730D01*
X1429842Y1320328D01*
X1421833Y1300992D01*
X1417750Y1280465D01*
X1417750Y1259535D01*
X1421833Y1239008D01*
X1429842Y1219672D01*
X1441470Y1202270D01*
X1456270Y1187470D01*
X1473672Y1175843D01*
X1493008Y1167833D01*
X1513535Y1163750D01*
X1534465Y1163750D01*
X1554992Y1167833D01*
X1574328Y1175843D01*
X1591730Y1187470D01*
X1606530Y1202270D01*
X1618157Y1219672D01*
X1626167Y1239008D01*
X1627250Y1244453D01*
X1627250Y1041546D01*
X1626167Y1046992D01*
X1618157Y1066328D01*
X1606530Y1083730D01*
X1591730Y1098530D01*
X1574328Y1110158D01*
X1554992Y1118167D01*
X1534465Y1122250D01*
X1513535Y1122250D01*
X1493008Y1118167D01*
X1473672Y1110158D01*
X1456270Y1098530D01*
X1441470Y1083730D01*
X1429842Y1066328D01*
X1421833Y1046992D01*
X1417750Y1026465D01*
X1417750Y1005535D01*
X1421833Y985008D01*
X1429842Y965672D01*
X1441470Y948270D01*
X1456270Y933470D01*
X1473672Y921842D01*
X1493008Y913833D01*
X1513535Y909750D01*
X1534465Y909750D01*
X1554992Y913833D01*
X1574328Y921842D01*
X1591730Y933470D01*
X1606530Y948270D01*
X1618157Y965672D01*
X1626167Y985008D01*
X1627250Y990453D01*
X1627250Y770750D01*
X1623303Y770750D01*
X1627217Y787207D01*
X1623826Y798385D01*
X1614810Y817161D01*
X1602303Y833818D01*
X1586788Y847714D01*
X1568859Y858316D01*
X1549207Y865217D01*
X1532750Y861327D01*
X1532750Y770750D01*
X1534750Y770750D01*
X1534750Y753250D01*
X1532750Y753250D01*
X1532750Y662673D01*
X1549207Y658783D01*
X1568859Y665684D01*
X1586788Y676286D01*
X1602303Y690182D01*
X1614810Y706839D01*
X1623826Y725615D01*
X1627217Y736793D01*
X1623303Y753250D01*
X1627250Y753250D01*
X1627250Y533546D01*
X1626167Y538992D01*
X1618157Y558328D01*
X1606530Y575730D01*
X1591730Y590530D01*
X1574328Y602158D01*
X1554992Y610167D01*
X1534465Y614250D01*
X1513535Y614250D01*
X1493008Y610167D01*
X1473672Y602158D01*
X1456270Y590530D01*
X1441470Y575730D01*
X1429842Y558328D01*
X1421833Y538992D01*
X1417750Y518465D01*
X1417750Y497535D01*
X1421833Y477008D01*
X1429842Y457672D01*
X1441470Y440270D01*
X1456270Y425470D01*
X1473672Y413842D01*
X1493008Y405833D01*
X1513535Y401750D01*
X1534465Y401750D01*
X1554992Y405833D01*
X1574328Y413842D01*
X1591730Y425470D01*
X1606530Y440270D01*
X1618157Y457672D01*
X1626167Y477008D01*
X1627250Y482454D01*
X1627250Y279546D01*
X1626167Y284992D01*
X1618157Y304328D01*
X1606530Y321730D01*
X1591730Y336530D01*
X1574328Y348158D01*
X1554992Y356167D01*
X1534465Y360250D01*
X1513535Y360250D01*
X1493008Y356167D01*
X1473672Y348158D01*
X1456270Y336530D01*
X1441470Y321730D01*
X1429842Y304328D01*
X1421833Y284992D01*
X1417750Y264465D01*
X1417750Y243535D01*
X1421833Y223008D01*
X1429842Y203672D01*
X1441470Y186270D01*
X1456270Y171470D01*
X1473672Y159843D01*
X1493008Y151833D01*
X1513535Y147750D01*
X1534465Y147750D01*
X1554992Y151833D01*
X1574328Y159843D01*
X1591730Y171470D01*
X1606530Y186270D01*
X1618157Y203672D01*
X1626167Y223008D01*
X1627250Y228454D01*
X1627250Y92188D01*
X1625932Y94654D01*
X1622651Y98651D01*
X1618654Y101932D01*
X1614094Y104369D01*
X1609146Y105870D01*
X1604000Y106377D01*
X1444000Y106377D01*
X1438854Y105870D01*
X1433906Y104369D01*
X1429346Y101932D01*
X1425349Y98651D01*
X1422068Y94654D01*
X1419631Y90094D01*
X1418130Y85146D01*
X1417623Y80000D01*
X1417623Y-80000D01*
X1418130Y-85146D01*
X1419631Y-90094D01*
X1422068Y-94654D01*
X1425349Y-98651D01*
X1429346Y-101932D01*
X1431812Y-103250D01*
X1351281Y-103250D01*
X1357161Y-101466D01*
X1366044Y-96718D01*
X1373829Y-90329D01*
X1380218Y-82544D01*
X1384966Y-73661D01*
X1387890Y-64023D01*
X1388877Y-54000D01*
X1388877Y236000D01*
X1387890Y246023D01*
X1384966Y255661D01*
X1380218Y264544D01*
X1373829Y272329D01*
X1366044Y278718D01*
X1357161Y283466D01*
X1347523Y286390D01*
X1337500Y287377D01*
X1237500Y287377D01*
X1227477Y286390D01*
X1217839Y283466D01*
X1208957Y278718D01*
X1201171Y272329D01*
X1194782Y264544D01*
X1190034Y255661D01*
X1187110Y246023D01*
X1186123Y236000D01*
X1186123Y-54000D01*
X1187110Y-64023D01*
X1190034Y-73661D01*
X1194782Y-82544D01*
X1201171Y-90329D01*
X1208957Y-96718D01*
X1217839Y-101466D01*
X1223719Y-103250D01*
X681281Y-103250D01*
X687161Y-101466D01*
X696044Y-96718D01*
X703829Y-90329D01*
X710218Y-82544D01*
X714966Y-73661D01*
X717890Y-64023D01*
X718877Y-54000D01*
X718877Y236000D01*
X717890Y246023D01*
X714966Y255661D01*
X710218Y264544D01*
X703829Y272329D01*
X696044Y278718D01*
X687161Y283466D01*
X677523Y286390D01*
X667500Y287377D01*
X567500Y287377D01*
X557477Y286390D01*
X547839Y283466D01*
X538957Y278718D01*
X531171Y272329D01*
X524782Y264544D01*
X520034Y255661D01*
X517110Y246023D01*
X516123Y236000D01*
X516123Y-54000D01*
X517110Y-64023D01*
X520034Y-73661D01*
X524782Y-82544D01*
X531171Y-90329D01*
X538957Y-96718D01*
X547839Y-101466D01*
X553719Y-103250D01*
X25547Y-103250D01*
X30992Y-102167D01*
X50328Y-94157D01*
X67730Y-82530D01*
X82530Y-67730D01*
X94157Y-50328D01*
X102167Y-30992D01*
X106250Y-10465D01*
X106250Y10465D01*
X102167Y30992D01*
X94157Y50328D01*
X82530Y67730D01*
X67730Y82530D01*
X50328Y94157D01*
X30992Y102167D01*
X10465Y106250D01*
X-10465Y106250D01*
X-30992Y102167D01*
X-50328Y94157D01*
X-67730Y82530D01*
X-82530Y67730D01*
X-94157Y50328D01*
X-102167Y30992D01*
X-103250Y25547D01*
X-103250Y245250D01*
X-99303Y245250D01*
X-103217Y228793D01*
X-99826Y217615D01*
X-90810Y198839D01*
X-78303Y182182D01*
X-62788Y168286D01*
X-44859Y157684D01*
X-25207Y150783D01*
X-8750Y154673D01*
X-8750Y245250D01*
X8750Y245250D01*
X8750Y154673D01*
X25207Y150783D01*
X44859Y157684D01*
X62788Y168286D01*
X78100Y182000D01*
X156123Y182000D01*
X156630Y176854D01*
X158131Y171906D01*
X160568Y167346D01*
X163849Y163349D01*
X167846Y160068D01*
X172406Y157631D01*
X177354Y156130D01*
X182500Y155623D01*
X207187Y155750D01*
X213750Y162313D01*
X213750Y218250D01*
X162813Y218250D01*
X156250Y211687D01*
X156123Y182000D01*
X78100Y182000D01*
X78303Y182182D01*
X90810Y198839D01*
X99826Y217615D01*
X103217Y228793D01*
X99303Y245250D01*
X8750Y245250D01*
X-8750Y245250D01*
X-10750Y245250D01*
X-10750Y262750D01*
X-8750Y262750D01*
X-8750Y353327D01*
X8750Y353327D01*
X8750Y262750D01*
X99303Y262750D01*
X101502Y272000D01*
X156123Y272000D01*
X156250Y242312D01*
X162813Y235750D01*
X213750Y235750D01*
X213750Y291688D01*
X207187Y298250D01*
X182500Y298377D01*
X177354Y297870D01*
X172406Y296369D01*
X167846Y293932D01*
X163849Y290651D01*
X160568Y286654D01*
X158131Y282094D01*
X156630Y277146D01*
X156123Y272000D01*
X101502Y272000D01*
X103217Y279207D01*
X99826Y290385D01*
X90810Y309161D01*
X78303Y325818D01*
X62788Y339714D01*
X44859Y350316D01*
X25207Y357217D01*
X8750Y353327D01*
X-8750Y353327D01*
X-25207Y357217D01*
X-44859Y350316D01*
X-62788Y339714D01*
X-78303Y325818D01*
X-90810Y309161D01*
X-99826Y290385D01*
X-103217Y279207D01*
X-99303Y262750D01*
X-103250Y262750D01*
X-103250Y482453D01*
X-102167Y477008D01*
X-94157Y457672D01*
X-82530Y440270D01*
X-67730Y425470D01*
X-50328Y413842D01*
X-30992Y405833D01*
X-10465Y401750D01*
X10465Y401750D01*
X30992Y405833D01*
X50328Y413842D01*
X67730Y425470D01*
X82530Y440270D01*
X94157Y457672D01*
X98953Y469250D01*
X177607Y469250D01*
X178783Y463340D01*
X180284Y458392D01*
X184035Y449336D01*
X186472Y444776D01*
X191918Y436626D01*
X195198Y432629D01*
X202129Y425698D01*
X206126Y422418D01*
X213750Y417323D01*
X213750Y384404D01*
X213563Y382500D01*
X214311Y374904D01*
X216101Y369001D01*
X216527Y367599D01*
X220125Y360867D01*
X224967Y354967D01*
X226445Y353754D01*
X278750Y301449D01*
X278750Y292622D01*
X277154Y293932D01*
X272594Y296369D01*
X267646Y297870D01*
X262500Y298377D01*
X237812Y298250D01*
X231250Y291688D01*
X231250Y235750D01*
X233250Y235750D01*
X233250Y218250D01*
X231250Y218250D01*
X231250Y162313D01*
X237812Y155750D01*
X262500Y155623D01*
X267646Y156130D01*
X272594Y157631D01*
X277154Y160068D01*
X278750Y161378D01*
X278750Y98377D01*
X277500Y98377D01*
X272354Y97870D01*
X267406Y96369D01*
X262846Y93932D01*
X258849Y90651D01*
X255568Y86654D01*
X253131Y82094D01*
X251630Y77146D01*
X251123Y72000D01*
X251123Y-18000D01*
X251630Y-23146D01*
X253131Y-28094D01*
X255568Y-32654D01*
X258849Y-36651D01*
X262846Y-39932D01*
X267406Y-42369D01*
X272354Y-43870D01*
X277500Y-44377D01*
X357500Y-44377D01*
X362646Y-43870D01*
X367594Y-42369D01*
X372154Y-39932D01*
X376151Y-36651D01*
X379432Y-32654D01*
X381869Y-28094D01*
X383370Y-23146D01*
X383877Y-18000D01*
X383877Y72000D01*
X383370Y77146D01*
X381869Y82094D01*
X379432Y86654D01*
X376151Y90651D01*
X372154Y93932D01*
X367594Y96369D01*
X362646Y97870D01*
X357500Y98377D01*
X356250Y98377D01*
X356250Y161378D01*
X357846Y160068D01*
X362406Y157631D01*
X367354Y156130D01*
X372500Y155623D01*
X452500Y155623D01*
X457646Y156130D01*
X462594Y157631D01*
X467154Y160068D01*
X471151Y163349D01*
X474432Y167346D01*
X476869Y171906D01*
X478370Y176854D01*
X478877Y182000D01*
X478877Y272000D01*
X478370Y277146D01*
X476869Y282094D01*
X474432Y286654D01*
X471151Y290651D01*
X467154Y293932D01*
X462594Y296369D01*
X457646Y297870D01*
X452500Y298377D01*
X451250Y298377D01*
X451250Y322198D01*
X451437Y324100D01*
X451250Y326002D01*
X451250Y326003D01*
X450689Y331696D01*
X450455Y332468D01*
X449223Y336530D01*
X448473Y339001D01*
X444875Y345733D01*
X440033Y351633D01*
X438555Y352846D01*
X421250Y370151D01*
X421250Y417324D01*
X428874Y422418D01*
X432871Y425698D01*
X439802Y432629D01*
X443082Y436626D01*
X448528Y444776D01*
X450965Y449336D01*
X454716Y458392D01*
X456217Y463340D01*
X458129Y472953D01*
X458636Y478099D01*
X458636Y480555D01*
X458877Y483000D01*
X458877Y491000D01*
X776123Y491000D01*
X776630Y485854D01*
X778131Y480906D01*
X780568Y476346D01*
X783849Y472349D01*
X787846Y469068D01*
X792406Y466631D01*
X797354Y465130D01*
X802500Y464623D01*
X837187Y464750D01*
X843750Y471312D01*
X843750Y657250D01*
X861250Y657250D01*
X861250Y471312D01*
X867812Y464750D01*
X902500Y464623D01*
X907646Y465130D01*
X912594Y466631D01*
X917154Y469068D01*
X921151Y472349D01*
X924432Y476346D01*
X926869Y480906D01*
X928370Y485854D01*
X928877Y491000D01*
X928750Y650688D01*
X922187Y657250D01*
X861250Y657250D01*
X843750Y657250D01*
X782812Y657250D01*
X776250Y650688D01*
X776123Y491000D01*
X458877Y491000D01*
X458877Y529576D01*
X640055Y710754D01*
X641533Y711967D01*
X646375Y717868D01*
X649974Y724599D01*
X652189Y731904D01*
X652750Y737597D01*
X652750Y737598D01*
X652937Y739500D01*
X652750Y741402D01*
X652750Y841000D01*
X776123Y841000D01*
X776250Y681313D01*
X782812Y674750D01*
X843750Y674750D01*
X843750Y860687D01*
X861250Y860687D01*
X861250Y674750D01*
X922187Y674750D01*
X928750Y681313D01*
X928877Y841000D01*
X928370Y846146D01*
X926869Y851094D01*
X924432Y855654D01*
X921151Y859651D01*
X917154Y862932D01*
X912594Y865369D01*
X907646Y866870D01*
X902500Y867377D01*
X867812Y867250D01*
X861250Y860687D01*
X843750Y860687D01*
X837187Y867250D01*
X802500Y867377D01*
X797354Y866870D01*
X792406Y865369D01*
X787846Y862932D01*
X783849Y859651D01*
X780568Y855654D01*
X778131Y851094D01*
X776630Y846146D01*
X776123Y841000D01*
X652750Y841000D01*
X652750Y935183D01*
X654410Y934296D01*
X663462Y931550D01*
X672875Y930623D01*
X724125Y930623D01*
X733538Y931550D01*
X742590Y934296D01*
X750932Y938755D01*
X758244Y944756D01*
X764245Y952068D01*
X765545Y954500D01*
X767685Y954500D01*
X772691Y952426D01*
X773338Y951638D01*
X780381Y945858D01*
X788415Y941564D01*
X797133Y938919D01*
X803929Y938250D01*
X830585Y938250D01*
X831068Y937346D01*
X834349Y933349D01*
X838346Y930068D01*
X842906Y927631D01*
X847854Y926130D01*
X853000Y925623D01*
X959000Y925623D01*
X964146Y926130D01*
X964236Y926157D01*
X1007850Y882543D01*
X1007850Y863470D01*
X1007839Y863466D01*
X998956Y858718D01*
X991171Y852329D01*
X984782Y844543D01*
X980034Y835661D01*
X977110Y826023D01*
X976123Y816000D01*
X976123Y516000D01*
X977110Y505977D01*
X980034Y496339D01*
X984782Y487456D01*
X991171Y479671D01*
X998956Y473282D01*
X1007839Y468534D01*
X1017477Y465610D01*
X1027500Y464623D01*
X1077500Y464623D01*
X1087523Y465610D01*
X1097161Y468534D01*
X1106044Y473282D01*
X1113829Y479671D01*
X1120218Y487456D01*
X1124966Y496339D01*
X1127890Y505977D01*
X1128877Y516000D01*
X1128877Y736793D01*
X1420783Y736793D01*
X1424174Y725615D01*
X1433190Y706839D01*
X1445697Y690182D01*
X1461212Y676286D01*
X1479141Y665684D01*
X1498793Y658783D01*
X1515250Y662673D01*
X1515250Y753250D01*
X1424697Y753250D01*
X1420783Y736793D01*
X1128877Y736793D01*
X1128877Y787207D01*
X1420783Y787207D01*
X1424697Y770750D01*
X1515250Y770750D01*
X1515250Y861327D01*
X1498793Y865217D01*
X1479141Y858316D01*
X1461212Y847714D01*
X1445697Y833818D01*
X1433190Y817161D01*
X1424174Y798385D01*
X1420783Y787207D01*
X1128877Y787207D01*
X1128877Y816000D01*
X1127890Y826023D01*
X1124966Y835661D01*
X1120218Y844543D01*
X1113829Y852329D01*
X1106044Y858718D01*
X1100350Y861762D01*
X1100350Y899429D01*
X1100574Y901700D01*
X1099681Y910767D01*
X1097036Y919485D01*
X1094653Y923944D01*
X1093755Y925623D01*
X1179000Y925623D01*
X1184146Y926130D01*
X1185650Y926586D01*
X1185650Y911266D01*
X1182620Y903949D01*
X1180650Y894048D01*
X1180650Y883952D01*
X1182620Y874051D01*
X1186483Y864724D01*
X1192092Y856330D01*
X1199230Y849191D01*
X1207624Y843583D01*
X1216951Y839719D01*
X1226852Y837750D01*
X1236948Y837750D01*
X1246849Y839719D01*
X1256176Y843583D01*
X1264570Y849191D01*
X1271709Y856330D01*
X1277317Y864724D01*
X1281181Y874051D01*
X1283150Y883952D01*
X1283150Y894048D01*
X1281181Y903949D01*
X1278150Y911265D01*
X1278150Y931950D01*
X1280854Y931130D01*
X1286000Y930623D01*
X1318188Y930750D01*
X1324750Y937312D01*
X1324750Y992000D01*
X1342250Y992000D01*
X1342250Y937312D01*
X1348813Y930750D01*
X1381000Y930623D01*
X1386146Y931130D01*
X1391094Y932631D01*
X1395654Y935068D01*
X1399651Y938349D01*
X1402932Y942346D01*
X1405369Y946906D01*
X1406870Y951854D01*
X1407377Y957000D01*
X1407250Y985437D01*
X1400687Y992000D01*
X1342250Y992000D01*
X1324750Y992000D01*
X1266313Y992000D01*
X1262060Y987747D01*
X1234210Y1015597D01*
X1232762Y1017362D01*
X1225719Y1023141D01*
X1217685Y1027436D01*
X1208967Y1030081D01*
X1202171Y1030750D01*
X1201373Y1030829D01*
X1200932Y1031654D01*
X1197651Y1035651D01*
X1193654Y1038932D01*
X1189094Y1041369D01*
X1184146Y1042870D01*
X1179000Y1043377D01*
X1073000Y1043377D01*
X1067854Y1042870D01*
X1062906Y1041369D01*
X1058346Y1038932D01*
X1054349Y1035651D01*
X1051068Y1031654D01*
X1048631Y1027094D01*
X1047130Y1022146D01*
X1046623Y1017000D01*
X1046623Y974584D01*
X1005610Y1015597D01*
X1004162Y1017362D01*
X997119Y1023141D01*
X989085Y1027436D01*
X982045Y1029572D01*
X980932Y1031654D01*
X980648Y1032000D01*
X980932Y1032346D01*
X983369Y1036906D01*
X984870Y1041854D01*
X985131Y1044500D01*
X1259623Y1044500D01*
X1259750Y1016062D01*
X1266313Y1009500D01*
X1324750Y1009500D01*
X1324750Y1064188D01*
X1342250Y1064188D01*
X1342250Y1009500D01*
X1400687Y1009500D01*
X1407250Y1016062D01*
X1407377Y1044500D01*
X1406870Y1049646D01*
X1405369Y1054594D01*
X1402932Y1059154D01*
X1399651Y1063151D01*
X1395654Y1066432D01*
X1391094Y1068869D01*
X1386146Y1070370D01*
X1381000Y1070877D01*
X1348813Y1070750D01*
X1342250Y1064188D01*
X1324750Y1064188D01*
X1318188Y1070750D01*
X1286000Y1070877D01*
X1280854Y1070370D01*
X1275906Y1068869D01*
X1271346Y1066432D01*
X1267349Y1063151D01*
X1264068Y1059154D01*
X1261631Y1054594D01*
X1260130Y1049646D01*
X1259623Y1044500D01*
X985131Y1044500D01*
X985377Y1047000D01*
X985250Y1064188D01*
X978687Y1070750D01*
X914750Y1070750D01*
X914750Y1068750D01*
X897250Y1068750D01*
X897250Y1070750D01*
X833312Y1070750D01*
X826750Y1064188D01*
X826623Y1047000D01*
X827130Y1041854D01*
X828631Y1036906D01*
X831068Y1032346D01*
X831352Y1032000D01*
X831068Y1031654D01*
X831010Y1031546D01*
X829758Y1033420D01*
X822620Y1040558D01*
X814226Y1046167D01*
X804899Y1050031D01*
X794998Y1052000D01*
X784902Y1052000D01*
X775001Y1050031D01*
X767685Y1047000D01*
X765545Y1047000D01*
X764245Y1049432D01*
X758244Y1056744D01*
X750932Y1062745D01*
X742590Y1067204D01*
X733538Y1069950D01*
X724125Y1070877D01*
X672875Y1070877D01*
X663462Y1069950D01*
X654410Y1067204D01*
X652750Y1066317D01*
X652750Y1088130D01*
X683188Y1088250D01*
X689750Y1094813D01*
X689750Y1149500D01*
X707250Y1149500D01*
X707250Y1094813D01*
X713812Y1088250D01*
X746000Y1088123D01*
X751146Y1088630D01*
X756094Y1090131D01*
X760654Y1092568D01*
X764651Y1095849D01*
X767932Y1099846D01*
X770369Y1104406D01*
X771870Y1109354D01*
X772377Y1114500D01*
X772250Y1142938D01*
X765687Y1149500D01*
X707250Y1149500D01*
X689750Y1149500D01*
X687750Y1149500D01*
X687750Y1167000D01*
X689750Y1167000D01*
X689750Y1221688D01*
X707250Y1221688D01*
X707250Y1167000D01*
X765687Y1167000D01*
X772250Y1173563D01*
X772377Y1202000D01*
X771885Y1207000D01*
X826623Y1207000D01*
X826623Y1142000D01*
X827130Y1136854D01*
X828631Y1131906D01*
X831068Y1127346D01*
X831352Y1127000D01*
X831068Y1126654D01*
X828631Y1122094D01*
X827130Y1117146D01*
X826623Y1112000D01*
X826750Y1094813D01*
X833312Y1088250D01*
X897250Y1088250D01*
X897250Y1090250D01*
X914750Y1090250D01*
X914750Y1088250D01*
X978687Y1088250D01*
X985250Y1094813D01*
X985377Y1112000D01*
X984870Y1117146D01*
X983369Y1122094D01*
X980932Y1126654D01*
X980648Y1127000D01*
X980932Y1127346D01*
X983369Y1131906D01*
X984870Y1136854D01*
X985377Y1142000D01*
X985377Y1207000D01*
X1046623Y1207000D01*
X1046623Y1142000D01*
X1047130Y1136854D01*
X1048631Y1131906D01*
X1051068Y1127346D01*
X1054349Y1123349D01*
X1058346Y1120068D01*
X1062906Y1117631D01*
X1067854Y1116130D01*
X1073000Y1115623D01*
X1179000Y1115623D01*
X1184146Y1116130D01*
X1189094Y1117631D01*
X1193654Y1120068D01*
X1197651Y1123349D01*
X1200932Y1127346D01*
X1203369Y1131906D01*
X1204535Y1135750D01*
X1209749Y1135750D01*
X1213304Y1132196D01*
X1214517Y1130717D01*
X1220418Y1125875D01*
X1227149Y1122277D01*
X1234454Y1120061D01*
X1242050Y1119313D01*
X1243953Y1119500D01*
X1262814Y1119500D01*
X1263296Y1117910D01*
X1267755Y1109568D01*
X1273756Y1102256D01*
X1281068Y1096255D01*
X1289410Y1091796D01*
X1298462Y1089050D01*
X1307875Y1088123D01*
X1359125Y1088123D01*
X1368539Y1089050D01*
X1377590Y1091796D01*
X1385932Y1096255D01*
X1393244Y1102256D01*
X1399245Y1109568D01*
X1403704Y1117910D01*
X1406450Y1126962D01*
X1407377Y1136375D01*
X1407377Y1180125D01*
X1406450Y1189539D01*
X1403704Y1198590D01*
X1399245Y1206932D01*
X1393244Y1214244D01*
X1385932Y1220245D01*
X1377590Y1224704D01*
X1368539Y1227450D01*
X1359125Y1228377D01*
X1307875Y1228377D01*
X1298462Y1227450D01*
X1289410Y1224704D01*
X1281068Y1220245D01*
X1273756Y1214244D01*
X1267755Y1206932D01*
X1263296Y1198590D01*
X1262814Y1197000D01*
X1258101Y1197000D01*
X1254546Y1200555D01*
X1253333Y1202033D01*
X1247433Y1206875D01*
X1240701Y1210474D01*
X1233396Y1212689D01*
X1227703Y1213250D01*
X1225800Y1213437D01*
X1223897Y1213250D01*
X1204535Y1213250D01*
X1203369Y1217094D01*
X1200932Y1221654D01*
X1197651Y1225651D01*
X1193654Y1228932D01*
X1189094Y1231369D01*
X1184146Y1232870D01*
X1179000Y1233377D01*
X1073000Y1233377D01*
X1067854Y1232870D01*
X1062906Y1231369D01*
X1058346Y1228932D01*
X1054349Y1225651D01*
X1051068Y1221654D01*
X1048631Y1217094D01*
X1047130Y1212146D01*
X1046623Y1207000D01*
X985377Y1207000D01*
X984870Y1212146D01*
X983369Y1217094D01*
X980932Y1221654D01*
X977651Y1225651D01*
X973654Y1228932D01*
X969094Y1231369D01*
X964146Y1232870D01*
X959000Y1233377D01*
X853000Y1233377D01*
X847854Y1232870D01*
X842906Y1231369D01*
X838346Y1228932D01*
X834349Y1225651D01*
X831068Y1221654D01*
X828631Y1217094D01*
X827130Y1212146D01*
X826623Y1207000D01*
X771885Y1207000D01*
X771870Y1207146D01*
X770369Y1212094D01*
X767932Y1216654D01*
X764651Y1220651D01*
X760654Y1223932D01*
X756094Y1226369D01*
X751146Y1227870D01*
X746000Y1228377D01*
X713812Y1228250D01*
X707250Y1221688D01*
X689750Y1221688D01*
X683188Y1228250D01*
X660839Y1228338D01*
X700055Y1267554D01*
X701533Y1268767D01*
X706375Y1274668D01*
X708880Y1279354D01*
X709973Y1281399D01*
X712189Y1288704D01*
X712937Y1296300D01*
X712750Y1298203D01*
X712750Y1319123D01*
X739000Y1319123D01*
X745609Y1319774D01*
X751964Y1321702D01*
X757821Y1324832D01*
X762955Y1329045D01*
X767168Y1334179D01*
X770298Y1340036D01*
X772226Y1346391D01*
X772877Y1353000D01*
X772877Y1366500D01*
X778623Y1366500D01*
X779130Y1361354D01*
X780631Y1356406D01*
X783068Y1351846D01*
X786349Y1347849D01*
X790346Y1344568D01*
X794906Y1342131D01*
X799854Y1340630D01*
X805000Y1340123D01*
X873687Y1340250D01*
X880250Y1346813D01*
X880250Y1372882D01*
X883751Y1382200D01*
X885390Y1392161D01*
X885167Y1398839D01*
X892610Y1398839D01*
X892946Y1388749D01*
X895244Y1378919D01*
X897750Y1372870D01*
X897750Y1346813D01*
X904312Y1340250D01*
X973000Y1340123D01*
X978146Y1340630D01*
X983094Y1342131D01*
X987654Y1344568D01*
X991651Y1347849D01*
X994932Y1351846D01*
X997369Y1356406D01*
X998870Y1361354D01*
X999377Y1366500D01*
X999250Y1445187D01*
X992687Y1451750D01*
X897750Y1451750D01*
X897750Y1418118D01*
X894249Y1408800D01*
X892610Y1398839D01*
X885167Y1398839D01*
X885053Y1402251D01*
X882755Y1412081D01*
X880250Y1418130D01*
X880250Y1451750D01*
X785312Y1451750D01*
X778750Y1445187D01*
X778623Y1366500D01*
X772877Y1366500D01*
X772877Y1368000D01*
X772226Y1374609D01*
X770298Y1380964D01*
X767874Y1385500D01*
X770298Y1390036D01*
X772226Y1396391D01*
X772877Y1403000D01*
X772877Y1418000D01*
X772226Y1424609D01*
X770298Y1430964D01*
X767874Y1435500D01*
X770298Y1440036D01*
X772226Y1446391D01*
X772877Y1453000D01*
X772877Y1468000D01*
X772226Y1474609D01*
X770298Y1480964D01*
X767874Y1485500D01*
X770298Y1490036D01*
X772226Y1496391D01*
X772877Y1503000D01*
X772877Y1510450D01*
X778694Y1510450D01*
X778750Y1475812D01*
X785312Y1469250D01*
X880250Y1469250D01*
X880250Y1502882D01*
X883751Y1512200D01*
X885390Y1522161D01*
X885167Y1528839D01*
X892610Y1528839D01*
X892946Y1518749D01*
X895244Y1508919D01*
X897750Y1502870D01*
X897750Y1469250D01*
X992687Y1469250D01*
X999250Y1475812D01*
X999316Y1516598D01*
X1001416Y1514874D01*
X1005123Y1512893D01*
X1005123Y1503000D01*
X1005774Y1496391D01*
X1007702Y1490036D01*
X1010126Y1485500D01*
X1007702Y1480964D01*
X1005774Y1474609D01*
X1005123Y1468000D01*
X1005123Y1453000D01*
X1005774Y1446391D01*
X1007702Y1440036D01*
X1010126Y1435500D01*
X1007702Y1430964D01*
X1005774Y1424609D01*
X1005123Y1418000D01*
X1005123Y1403000D01*
X1005774Y1396391D01*
X1007702Y1390036D01*
X1010126Y1385500D01*
X1007702Y1380964D01*
X1005774Y1374609D01*
X1005123Y1368000D01*
X1005123Y1353000D01*
X1005774Y1346391D01*
X1007702Y1340036D01*
X1010832Y1334179D01*
X1015045Y1329045D01*
X1020179Y1324832D01*
X1026036Y1321702D01*
X1032391Y1319774D01*
X1039000Y1319123D01*
X1068415Y1319123D01*
X1071625Y1313118D01*
X1076467Y1307217D01*
X1077945Y1306004D01*
X1101904Y1282045D01*
X1103117Y1280567D01*
X1109018Y1275725D01*
X1115749Y1272127D01*
X1120838Y1270583D01*
X1123054Y1269911D01*
X1130650Y1269163D01*
X1132553Y1269350D01*
X1210872Y1269350D01*
X1211930Y1268292D01*
X1220324Y1262683D01*
X1229651Y1258820D01*
X1239552Y1256850D01*
X1249648Y1256850D01*
X1259549Y1258820D01*
X1268876Y1262683D01*
X1277270Y1268292D01*
X1284409Y1275430D01*
X1290017Y1283824D01*
X1293881Y1293151D01*
X1295850Y1303052D01*
X1295850Y1313148D01*
X1295809Y1313355D01*
X1298462Y1312550D01*
X1307875Y1311623D01*
X1359125Y1311623D01*
X1368539Y1312550D01*
X1377590Y1315296D01*
X1385932Y1319755D01*
X1393244Y1325756D01*
X1399245Y1333068D01*
X1403704Y1341410D01*
X1406450Y1350462D01*
X1407377Y1359875D01*
X1407377Y1403625D01*
X1406450Y1413038D01*
X1403704Y1422090D01*
X1399245Y1430432D01*
X1393244Y1437744D01*
X1385932Y1443745D01*
X1377590Y1448204D01*
X1372238Y1449828D01*
X1371689Y1455396D01*
X1369474Y1462701D01*
X1365875Y1469432D01*
X1365606Y1469761D01*
X1368539Y1470050D01*
X1377590Y1472796D01*
X1385932Y1477255D01*
X1393244Y1483256D01*
X1399245Y1490568D01*
X1403704Y1498910D01*
X1406450Y1507961D01*
X1407377Y1517375D01*
X1407377Y1561125D01*
X1406450Y1570538D01*
X1403704Y1579590D01*
X1399245Y1587932D01*
X1393244Y1595244D01*
X1385932Y1601245D01*
X1379750Y1604550D01*
X1379750Y1628735D01*
X1382781Y1636051D01*
X1384750Y1645952D01*
X1384750Y1656048D01*
X1382781Y1665949D01*
X1378917Y1675276D01*
X1373309Y1683670D01*
X1366170Y1690808D01*
X1357776Y1696417D01*
X1348449Y1700280D01*
X1338548Y1702250D01*
X1328452Y1702250D01*
X1318551Y1700280D01*
X1309224Y1696417D01*
X1300830Y1690808D01*
X1293692Y1683670D01*
X1288083Y1675276D01*
X1284220Y1665949D01*
X1283550Y1662583D01*
X1283550Y1765300D01*
X1283046Y1770421D01*
X1281552Y1775345D01*
X1279126Y1779884D01*
X1275862Y1783862D01*
X1161562Y1898162D01*
X1157584Y1901426D01*
X1153045Y1903852D01*
X1148121Y1905346D01*
X1143000Y1905850D01*
X1137879Y1905346D01*
X1132955Y1903852D01*
X1128416Y1901426D01*
X1124438Y1898162D01*
X997438Y1771162D01*
X994174Y1767184D01*
X991748Y1762645D01*
X990254Y1757721D01*
X989750Y1752600D01*
X989750Y1574712D01*
X987654Y1576432D01*
X983094Y1578869D01*
X978146Y1580370D01*
X973000Y1580877D01*
X904312Y1580750D01*
X897750Y1574187D01*
X897750Y1548118D01*
X894249Y1538800D01*
X892610Y1528839D01*
X885167Y1528839D01*
X885053Y1532251D01*
X882755Y1542081D01*
X880250Y1548130D01*
X880250Y1574187D01*
X873687Y1580750D01*
X851750Y1580791D01*
X851750Y1665527D01*
X1127809Y1941585D01*
X1128346Y1941144D01*
X1132906Y1938707D01*
X1137854Y1937206D01*
X1143000Y1936699D01*
X1148146Y1937206D01*
X1153094Y1938707D01*
X1157654Y1941144D01*
X1161651Y1944425D01*
X1253575Y2036349D01*
X1256856Y2040346D01*
X1259293Y2044906D01*
X1260794Y2049854D01*
X1261301Y2055000D01*
X1260794Y2060146D01*
X1259293Y2065094D01*
X1256856Y2069654D01*
X1256415Y2070191D01*
X1288562Y2102338D01*
X1291826Y2106316D01*
X1294252Y2110855D01*
X1295746Y2115779D01*
X1296250Y2120900D01*
X1295746Y2126021D01*
X1294252Y2130945D01*
X1291826Y2135484D01*
X1288562Y2139462D01*
X1019273Y2408750D01*
X1028927Y2408750D01*
X1054284Y2413794D01*
X1078170Y2423688D01*
X1099667Y2438051D01*
X1117949Y2456333D01*
X1132312Y2477830D01*
X1142206Y2501716D01*
X1143000Y2505707D01*
X1143794Y2501716D01*
X1153688Y2477830D01*
X1168051Y2456333D01*
X1186333Y2438051D01*
X1207830Y2423688D01*
X1231716Y2413794D01*
X1257073Y2408750D01*
X1282927Y2408750D01*
X1308284Y2413794D01*
X1332170Y2423688D01*
X1353667Y2438051D01*
X1371949Y2456333D01*
X1386312Y2477830D01*
X1396206Y2501716D01*
X1401250Y2527073D01*
X1401250Y2552927D01*
X1396206Y2578284D01*
X1386312Y2602170D01*
X1371949Y2623667D01*
X1353667Y2641949D01*
X1332170Y2656312D01*
X1308284Y2666206D01*
X1282927Y2671250D01*
X1257073Y2671250D01*
X1231716Y2666206D01*
X1207830Y2656312D01*
X1186333Y2641949D01*
X1168051Y2623667D01*
X1153688Y2602170D01*
X1143794Y2578284D01*
X1143000Y2574293D01*
X1142206Y2578284D01*
X1132312Y2602170D01*
X1117949Y2623667D01*
X1099667Y2641949D01*
X1078170Y2656312D01*
X1054284Y2666206D01*
X1028927Y2671250D01*
X1003073Y2671250D01*
X977716Y2666206D01*
X953830Y2656312D01*
X932333Y2641949D01*
X914051Y2623667D01*
X899688Y2602170D01*
X889794Y2578284D01*
X889000Y2574293D01*
X888206Y2578284D01*
X878312Y2602170D01*
X863949Y2623667D01*
X845667Y2641949D01*
X824170Y2656312D01*
X800284Y2666206D01*
X774927Y2671250D01*
X749073Y2671250D01*
X723716Y2666206D01*
X699830Y2656312D01*
X678333Y2641949D01*
X660051Y2623667D01*
X645688Y2602170D01*
X635794Y2578284D01*
X635703Y2577826D01*
X634531Y2576654D01*
X634206Y2578284D01*
X624312Y2602170D01*
X609949Y2623667D01*
X591667Y2641949D01*
X570170Y2656312D01*
X546284Y2666206D01*
X520927Y2671250D01*
X495073Y2671250D01*
X469716Y2666206D01*
X445830Y2656312D01*
X424333Y2641949D01*
X406051Y2623667D01*
X391688Y2602170D01*
X385294Y2586736D01*
X385377Y2645000D01*
X384870Y2650146D01*
X383369Y2655094D01*
X380932Y2659654D01*
X377651Y2663651D01*
X373654Y2666932D01*
X369094Y2669369D01*
X364146Y2670870D01*
X359000Y2671377D01*
X269313Y2671250D01*
X262750Y2664688D01*
X262750Y2548750D01*
X264750Y2548750D01*
X264750Y2531250D01*
X262750Y2531250D01*
X262750Y2415313D01*
X269313Y2408750D01*
X359000Y2408623D01*
X364146Y2409130D01*
X369094Y2410631D01*
X373654Y2413068D01*
X377651Y2416349D01*
X380932Y2420346D01*
X383369Y2424906D01*
X384870Y2429854D01*
X385377Y2435000D01*
X385294Y2493264D01*
X391688Y2477830D01*
X406051Y2456333D01*
X424333Y2438051D01*
X445830Y2423688D01*
X469716Y2413794D01*
X495073Y2408750D01*
X520927Y2408750D01*
X546284Y2413794D01*
X570170Y2423688D01*
X591667Y2438051D01*
X608750Y2455134D01*
X608750Y2011377D01*
X583000Y2011377D01*
X572977Y2010390D01*
X563339Y2007466D01*
X554457Y2002718D01*
X546671Y1996329D01*
X540282Y1988543D01*
X535534Y1979661D01*
X532610Y1970023D01*
X531623Y1960000D01*
X531623Y1850000D01*
X532610Y1839977D01*
X535534Y1830339D01*
X540282Y1821456D01*
X546671Y1813671D01*
X554457Y1807282D01*
X563339Y1802534D01*
X572977Y1799610D01*
X583000Y1798623D01*
X608750Y1798623D01*
X608750Y1601852D01*
X602391Y1601226D01*
X596036Y1599298D01*
X590179Y1596168D01*
X585045Y1591955D01*
X580832Y1586821D01*
X577702Y1580964D01*
X575774Y1574609D01*
X575123Y1568000D01*
X575123Y1553000D01*
X575492Y1549250D01*
X562951Y1549250D01*
X562146Y1550054D01*
X560933Y1551533D01*
X555033Y1556375D01*
X548301Y1559973D01*
X540996Y1562189D01*
X535303Y1562750D01*
X533400Y1562937D01*
X531497Y1562750D01*
X527824Y1562750D01*
X526204Y1568090D01*
X521745Y1576432D01*
X515744Y1583744D01*
X508432Y1589745D01*
X500090Y1594204D01*
X491038Y1596950D01*
X481625Y1597877D01*
X437875Y1597877D01*
X428461Y1596950D01*
X419410Y1594204D01*
X411068Y1589745D01*
X403756Y1583744D01*
X397755Y1576432D01*
X393296Y1568090D01*
X391720Y1562896D01*
X390238Y1562750D01*
X384544Y1562189D01*
X377240Y1559973D01*
X372321Y1557344D01*
X372377Y1571500D01*
X371870Y1576646D01*
X370369Y1581594D01*
X367932Y1586154D01*
X364651Y1590151D01*
X360654Y1593432D01*
X356094Y1595869D01*
X351146Y1597370D01*
X346000Y1597877D01*
X317563Y1597750D01*
X311000Y1591187D01*
X311000Y1532750D01*
X313000Y1532750D01*
X313000Y1515250D01*
X311000Y1515250D01*
X311000Y1513250D01*
X293500Y1513250D01*
X293500Y1515250D01*
X238812Y1515250D01*
X232250Y1508687D01*
X232123Y1476500D01*
X232630Y1471354D01*
X234131Y1466406D01*
X236568Y1461846D01*
X239849Y1457849D01*
X243846Y1454568D01*
X243961Y1454507D01*
X238387Y1449933D01*
X237175Y1448455D01*
X186845Y1398126D01*
X185367Y1396913D01*
X180525Y1391012D01*
X176926Y1384280D01*
X175401Y1379252D01*
X174711Y1376976D01*
X173963Y1369380D01*
X174150Y1367477D01*
X174150Y1360676D01*
X166526Y1355582D01*
X162529Y1352302D01*
X155598Y1345371D01*
X152318Y1341374D01*
X146872Y1333224D01*
X144435Y1328664D01*
X140684Y1319608D01*
X139183Y1314660D01*
X137271Y1305047D01*
X136764Y1299901D01*
X136764Y1297445D01*
X136523Y1295000D01*
X136523Y1245000D01*
X136764Y1242555D01*
X136764Y1240099D01*
X137271Y1234953D01*
X139183Y1225340D01*
X140684Y1220392D01*
X144435Y1211336D01*
X146872Y1206776D01*
X152318Y1198626D01*
X155598Y1194629D01*
X162529Y1187698D01*
X166526Y1184418D01*
X174150Y1179324D01*
X174150Y1141904D01*
X174150Y1141903D01*
X174150Y1106676D01*
X166526Y1101582D01*
X162529Y1098302D01*
X155598Y1091371D01*
X152318Y1087374D01*
X146872Y1079224D01*
X144435Y1074664D01*
X140684Y1065608D01*
X139183Y1060660D01*
X137271Y1051047D01*
X136764Y1045901D01*
X136764Y1043445D01*
X136523Y1041000D01*
X136523Y991000D01*
X136764Y988555D01*
X136764Y986099D01*
X137271Y980953D01*
X139183Y971340D01*
X140684Y966392D01*
X144435Y957336D01*
X146872Y952776D01*
X152318Y944626D01*
X155598Y940629D01*
X162529Y933698D01*
X166526Y930418D01*
X174676Y924972D01*
X179236Y922535D01*
X188292Y918784D01*
X193240Y917283D01*
X202853Y915371D01*
X207999Y914864D01*
X210455Y914864D01*
X212900Y914623D01*
X267900Y914623D01*
X273046Y915130D01*
X277994Y916631D01*
X280400Y917917D01*
X282806Y916631D01*
X287754Y915130D01*
X292900Y914623D01*
X304098Y914623D01*
X304150Y914097D01*
X304711Y908404D01*
X306927Y901099D01*
X310525Y894368D01*
X315367Y888467D01*
X316846Y887254D01*
X341154Y862945D01*
X342367Y861467D01*
X348268Y856625D01*
X354999Y853027D01*
X354999Y853026D01*
X362304Y850811D01*
X369900Y850063D01*
X371803Y850250D01*
X506097Y850250D01*
X508000Y850063D01*
X509903Y850250D01*
X515596Y850811D01*
X522901Y853026D01*
X529633Y856625D01*
X535533Y861467D01*
X536746Y862945D01*
X575250Y901449D01*
X575250Y755551D01*
X419423Y599723D01*
X416164Y601465D01*
X407108Y605216D01*
X402160Y606717D01*
X392547Y608629D01*
X387401Y609136D01*
X384945Y609136D01*
X382500Y609377D01*
X332500Y609377D01*
X327354Y608870D01*
X322406Y607369D01*
X317846Y604932D01*
X317500Y604648D01*
X317154Y604932D01*
X312594Y607369D01*
X307646Y608870D01*
X302500Y609377D01*
X252500Y609377D01*
X250055Y609136D01*
X247599Y609136D01*
X242453Y608629D01*
X232840Y606717D01*
X227892Y605216D01*
X218836Y601465D01*
X214276Y599028D01*
X206126Y593582D01*
X202129Y590302D01*
X195198Y583371D01*
X191918Y579374D01*
X186472Y571224D01*
X184035Y566664D01*
X180284Y557608D01*
X178783Y552660D01*
X177607Y546750D01*
X98953Y546750D01*
X94157Y558328D01*
X82530Y575730D01*
X67730Y590530D01*
X50328Y602158D01*
X30992Y610167D01*
X10465Y614250D01*
X-10465Y614250D01*
X-30992Y610167D01*
X-50328Y602158D01*
X-67730Y590530D01*
X-82530Y575730D01*
X-94157Y558328D01*
X-102167Y538992D01*
X-103250Y533547D01*
X-103250Y736453D01*
X-102167Y731008D01*
X-94157Y711672D01*
X-82530Y694270D01*
X-67730Y679470D01*
X-50328Y667843D01*
X-30992Y659833D01*
X-10465Y655750D01*
X10465Y655750D01*
X30992Y659833D01*
X50328Y667843D01*
X67730Y679470D01*
X82530Y694270D01*
X94157Y711672D01*
X102167Y731008D01*
X106250Y751535D01*
X106250Y772465D01*
X102167Y792992D01*
X94157Y812328D01*
X82530Y829730D01*
X67730Y844530D01*
X50328Y856157D01*
X30992Y864167D01*
X10465Y868250D01*
X-10465Y868250D01*
X-30992Y864167D01*
X-50328Y856157D01*
X-67730Y844530D01*
X-82530Y829730D01*
X-94157Y812328D01*
X-102167Y792992D01*
X-103250Y787547D01*
X-103250Y990453D01*
X-102167Y985008D01*
X-94157Y965672D01*
X-82530Y948270D01*
X-67730Y933470D01*
X-50328Y921842D01*
X-30992Y913833D01*
X-10465Y909750D01*
X10465Y909750D01*
X30992Y913833D01*
X50328Y921842D01*
X67730Y933470D01*
X82530Y948270D01*
X94157Y965672D01*
X102167Y985008D01*
X106250Y1005535D01*
X106250Y1026465D01*
X102167Y1046992D01*
X94157Y1066328D01*
X82530Y1083730D01*
X67730Y1098530D01*
X50328Y1110158D01*
X30992Y1118167D01*
X10465Y1122250D01*
X-10465Y1122250D01*
X-30992Y1118167D01*
X-50328Y1110158D01*
X-67730Y1098530D01*
X-82530Y1083730D01*
X-94157Y1066328D01*
X-102167Y1046992D01*
X-103250Y1041547D01*
X-103250Y1244453D01*
X-102167Y1239008D01*
X-94157Y1219672D01*
X-82530Y1202270D01*
X-67730Y1187470D01*
X-50328Y1175843D01*
X-30992Y1167833D01*
X-10465Y1163750D01*
X10465Y1163750D01*
X30992Y1167833D01*
X50328Y1175843D01*
X67730Y1187470D01*
X82530Y1202270D01*
X94157Y1219672D01*
X102167Y1239008D01*
X106250Y1259535D01*
X106250Y1280465D01*
X102167Y1300992D01*
X94157Y1320328D01*
X82530Y1337730D01*
X67730Y1352530D01*
X50328Y1364158D01*
X30992Y1372167D01*
X10465Y1376250D01*
X-10465Y1376250D01*
X-30992Y1372167D01*
X-50328Y1364158D01*
X-67730Y1352530D01*
X-82530Y1337730D01*
X-94157Y1320328D01*
X-102167Y1300992D01*
X-103250Y1295547D01*
X-103250Y1498453D01*
X-102167Y1493008D01*
X-94157Y1473672D01*
X-82530Y1456270D01*
X-67730Y1441470D01*
X-50328Y1429842D01*
X-30992Y1421833D01*
X-10465Y1417750D01*
X10465Y1417750D01*
X30992Y1421833D01*
X50328Y1429842D01*
X67730Y1441470D01*
X82530Y1456270D01*
X94157Y1473672D01*
X102167Y1493008D01*
X106250Y1513535D01*
X106250Y1534465D01*
X102167Y1554992D01*
X95329Y1571500D01*
X232123Y1571500D01*
X232250Y1539312D01*
X238812Y1532750D01*
X293500Y1532750D01*
X293500Y1591187D01*
X286938Y1597750D01*
X258500Y1597877D01*
X253354Y1597370D01*
X248406Y1595869D01*
X243846Y1593432D01*
X239849Y1590151D01*
X236568Y1586154D01*
X234131Y1581594D01*
X232630Y1576646D01*
X232123Y1571500D01*
X95329Y1571500D01*
X94157Y1574328D01*
X82530Y1591730D01*
X67730Y1606530D01*
X50328Y1618157D01*
X30992Y1626167D01*
X10465Y1630250D01*
X-10465Y1630250D01*
X-30992Y1626167D01*
X-50328Y1618157D01*
X-67730Y1606530D01*
X-82530Y1591730D01*
X-94157Y1574328D01*
X-102167Y1554992D01*
X-103250Y1549547D01*
X-103250Y1752453D01*
X-102167Y1747008D01*
X-94157Y1727672D01*
X-82530Y1710270D01*
X-67730Y1695470D01*
X-50328Y1683842D01*
X-30992Y1675833D01*
X-10465Y1671750D01*
X10465Y1671750D01*
X30992Y1675833D01*
X50328Y1683842D01*
X67730Y1695470D01*
X82530Y1710270D01*
X94157Y1727672D01*
X102167Y1747008D01*
X106250Y1767535D01*
X106250Y1788465D01*
X102167Y1808992D01*
X95536Y1825000D01*
X171623Y1825000D01*
X172130Y1819854D01*
X173631Y1814906D01*
X176068Y1810346D01*
X179349Y1806349D01*
X183346Y1803068D01*
X187906Y1800631D01*
X192854Y1799130D01*
X198000Y1798623D01*
X312688Y1798750D01*
X319250Y1805312D01*
X319250Y1896250D01*
X336750Y1896250D01*
X336750Y1805312D01*
X343313Y1798750D01*
X458000Y1798623D01*
X463146Y1799130D01*
X468094Y1800631D01*
X472654Y1803068D01*
X476651Y1806349D01*
X479932Y1810346D01*
X482369Y1814906D01*
X483870Y1819854D01*
X484377Y1825000D01*
X484250Y1889687D01*
X477687Y1896250D01*
X336750Y1896250D01*
X319250Y1896250D01*
X178312Y1896250D01*
X171750Y1889687D01*
X171623Y1825000D01*
X95536Y1825000D01*
X94157Y1828328D01*
X82530Y1845730D01*
X67730Y1860530D01*
X50328Y1872157D01*
X30992Y1880167D01*
X10465Y1884250D01*
X-10465Y1884250D01*
X-30992Y1880167D01*
X-50328Y1872157D01*
X-67730Y1860530D01*
X-82530Y1845730D01*
X-94157Y1828328D01*
X-102167Y1808992D01*
X-103250Y1803547D01*
X-103250Y2006453D01*
X-102167Y2001008D01*
X-94157Y1981672D01*
X-82530Y1964270D01*
X-67730Y1949470D01*
X-50328Y1937842D01*
X-30992Y1929833D01*
X-10465Y1925750D01*
X10465Y1925750D01*
X30992Y1929833D01*
X50328Y1937842D01*
X67730Y1949470D01*
X82530Y1964270D01*
X94157Y1981672D01*
X95536Y1985000D01*
X171623Y1985000D01*
X171750Y1920312D01*
X178312Y1913750D01*
X319250Y1913750D01*
X319250Y2004687D01*
X336750Y2004687D01*
X336750Y1913750D01*
X477687Y1913750D01*
X484250Y1920312D01*
X484377Y1985000D01*
X483870Y1990146D01*
X482369Y1995094D01*
X479932Y1999654D01*
X476651Y2003651D01*
X472654Y2006932D01*
X468094Y2009369D01*
X463146Y2010870D01*
X458000Y2011377D01*
X343313Y2011250D01*
X336750Y2004687D01*
X319250Y2004687D01*
X312688Y2011250D01*
X198000Y2011377D01*
X192854Y2010870D01*
X187906Y2009369D01*
X183346Y2006932D01*
X179349Y2003651D01*
X176068Y1999654D01*
X173631Y1995094D01*
X172130Y1990146D01*
X171623Y1985000D01*
X95536Y1985000D01*
X102167Y2001008D01*
X106250Y2021535D01*
X106250Y2042465D01*
X102167Y2062992D01*
X94157Y2082328D01*
X82530Y2099730D01*
X67730Y2114530D01*
X50328Y2126158D01*
X30992Y2134167D01*
X10465Y2138250D01*
X-10465Y2138250D01*
X-30992Y2134167D01*
X-50328Y2126158D01*
X-67730Y2114530D01*
X-82530Y2099730D01*
X-94157Y2082328D01*
X-102167Y2062992D01*
X-103250Y2057547D01*
X-103250Y2260453D01*
X-102167Y2255008D01*
X-94157Y2235672D01*
X-82530Y2218270D01*
X-67730Y2203470D01*
X-50328Y2191843D01*
X-30992Y2183833D01*
X-10465Y2179750D01*
X10465Y2179750D01*
X30992Y2183833D01*
X50328Y2191843D01*
X67730Y2203470D01*
X82530Y2218270D01*
X94157Y2235672D01*
X102167Y2255008D01*
X106250Y2275535D01*
X106250Y2296465D01*
X102167Y2316992D01*
X94157Y2336328D01*
X82530Y2353730D01*
X67730Y2368530D01*
X50328Y2380158D01*
X30992Y2388167D01*
X10465Y2392250D01*
X-10465Y2392250D01*
X-30992Y2388167D01*
X-50328Y2380158D01*
X-67730Y2368530D01*
X-82530Y2353730D01*
X-94157Y2336328D01*
X-102167Y2316992D01*
X-103250Y2311547D01*
X-103250Y2514453D01*
X-102167Y2509008D01*
X-94157Y2489672D01*
X-82530Y2472270D01*
X-67730Y2457470D01*
X-50328Y2445843D01*
X-30992Y2437833D01*
X-10465Y2433750D01*
X10465Y2433750D01*
X16749Y2435000D01*
X122623Y2435000D01*
X123130Y2429854D01*
X124631Y2424906D01*
X127068Y2420346D01*
X130349Y2416349D01*
X134346Y2413068D01*
X138906Y2410631D01*
X143854Y2409130D01*
X149000Y2408623D01*
X238687Y2408750D01*
X245250Y2415313D01*
X245250Y2531250D01*
X129312Y2531250D01*
X122750Y2524688D01*
X122623Y2435000D01*
X16749Y2435000D01*
X30992Y2437833D01*
X50328Y2445843D01*
X67730Y2457470D01*
X82530Y2472270D01*
X94157Y2489672D01*
X102167Y2509008D01*
X106250Y2529535D01*
X106250Y2550465D01*
X102167Y2570992D01*
X94157Y2590328D01*
X82530Y2607730D01*
X67730Y2622530D01*
X50328Y2634158D01*
X30992Y2642167D01*
X16749Y2645000D01*
X122623Y2645000D01*
X122750Y2555313D01*
X129312Y2548750D01*
X245250Y2548750D01*
X245250Y2664688D01*
X238687Y2671250D01*
X149000Y2671377D01*
X143854Y2670870D01*
X138906Y2669369D01*
X134346Y2666932D01*
X130349Y2663651D01*
X127068Y2659654D01*
X124631Y2655094D01*
X123130Y2650146D01*
X122623Y2645000D01*
X16749Y2645000D01*
X10465Y2646250D01*
X-10465Y2646250D01*
X-30992Y2642167D01*
X-50328Y2634158D01*
X-67730Y2622530D01*
X-82530Y2607730D01*
X-94157Y2590328D01*
X-102167Y2570992D01*
X-103250Y2565547D01*
X-103250Y2768453D01*
X-102167Y2763008D01*
X-94157Y2743672D01*
X-82530Y2726270D01*
X-67730Y2711470D01*
X-50328Y2699843D01*
X-30992Y2691833D01*
X-10465Y2687750D01*
X10465Y2687750D01*
X30992Y2691833D01*
X50328Y2699843D01*
X67730Y2711470D01*
X82530Y2726270D01*
X94157Y2743672D01*
X102167Y2763008D01*
X106250Y2783535D01*
X106250Y2804465D01*
X102167Y2824992D01*
X94157Y2844328D01*
X82530Y2861730D01*
X67730Y2876530D01*
X50328Y2888157D01*
X30992Y2896167D01*
X25547Y2897250D01*
X1498453Y2897250D01*
X1493008Y2896167D01*
G36*
X530062Y1384569D02*
G01*
X530249Y1382667D01*
X530249Y966050D01*
X491949Y927750D01*
X415582Y927750D01*
X417269Y930906D01*
X418770Y935854D01*
X419277Y941000D01*
X419277Y959750D01*
X432900Y959750D01*
X435361Y959991D01*
X437819Y960215D01*
X437907Y960241D01*
X437999Y960250D01*
X440365Y960964D01*
X442733Y961661D01*
X442815Y961704D01*
X442903Y961731D01*
X445081Y962889D01*
X447273Y964035D01*
X447345Y964093D01*
X447426Y964136D01*
X449336Y965693D01*
X451266Y967245D01*
X451326Y967316D01*
X451397Y967374D01*
X452966Y969271D01*
X454559Y971170D01*
X454604Y971250D01*
X454662Y971321D01*
X455836Y973492D01*
X457027Y975659D01*
X457055Y975747D01*
X457099Y975828D01*
X457830Y978188D01*
X458576Y980542D01*
X458587Y980634D01*
X458614Y980722D01*
X458873Y983186D01*
X459147Y985633D01*
X459149Y985810D01*
X459149Y985817D01*
X459149Y985824D01*
X459150Y986000D01*
X459150Y1046000D01*
X458909Y1048461D01*
X458685Y1050919D01*
X458659Y1051007D01*
X458650Y1051099D01*
X457936Y1053465D01*
X457239Y1055833D01*
X457196Y1055915D01*
X457169Y1056003D01*
X456011Y1058181D01*
X454865Y1060374D01*
X454807Y1060445D01*
X454764Y1060527D01*
X453206Y1062436D01*
X451655Y1064366D01*
X451584Y1064426D01*
X451526Y1064497D01*
X449629Y1066067D01*
X447730Y1067659D01*
X447650Y1067704D01*
X447579Y1067762D01*
X445408Y1068936D01*
X443241Y1070127D01*
X443153Y1070155D01*
X443072Y1070199D01*
X440712Y1070930D01*
X438358Y1071676D01*
X438266Y1071687D01*
X438178Y1071714D01*
X435714Y1071973D01*
X433266Y1072247D01*
X433090Y1072249D01*
X433083Y1072249D01*
X433076Y1072249D01*
X432900Y1072250D01*
X419277Y1072250D01*
X419277Y1091000D01*
X418770Y1096146D01*
X417269Y1101094D01*
X414832Y1105654D01*
X411551Y1109651D01*
X407554Y1112932D01*
X402994Y1115369D01*
X398046Y1116870D01*
X392900Y1117377D01*
X292900Y1117377D01*
X287754Y1116870D01*
X282806Y1115369D01*
X280400Y1114083D01*
X277994Y1115369D01*
X273046Y1116870D01*
X267900Y1117377D01*
X251650Y1117377D01*
X251650Y1168623D01*
X267900Y1168623D01*
X273046Y1169130D01*
X277994Y1170631D01*
X280400Y1171917D01*
X282806Y1170631D01*
X287754Y1169130D01*
X292900Y1168623D01*
X392900Y1168623D01*
X398046Y1169130D01*
X402994Y1170631D01*
X407554Y1173068D01*
X411551Y1176349D01*
X414832Y1180346D01*
X417269Y1184906D01*
X418770Y1189854D01*
X419277Y1195000D01*
X419277Y1345000D01*
X418770Y1350146D01*
X417269Y1355094D01*
X415582Y1358250D01*
X480697Y1358250D01*
X482600Y1358063D01*
X484503Y1358250D01*
X490196Y1358811D01*
X497501Y1361027D01*
X504232Y1364625D01*
X510133Y1369467D01*
X511346Y1370946D01*
X530618Y1390217D01*
X530062Y1384569D01*
G37*
X530062Y1384569D02*
X530249Y1382667D01*
X530249Y966050D01*
X491949Y927750D01*
X415582Y927750D01*
X417269Y930906D01*
X418770Y935854D01*
X419277Y941000D01*
X419277Y959750D01*
X432900Y959750D01*
X435361Y959991D01*
X437819Y960215D01*
X437907Y960241D01*
X437999Y960250D01*
X440365Y960964D01*
X442733Y961661D01*
X442815Y961704D01*
X442903Y961731D01*
X445081Y962889D01*
X447273Y964035D01*
X447345Y964093D01*
X447426Y964136D01*
X449336Y965693D01*
X451266Y967245D01*
X451326Y967316D01*
X451397Y967374D01*
X452966Y969271D01*
X454559Y971170D01*
X454604Y971250D01*
X454662Y971321D01*
X455836Y973492D01*
X457027Y975659D01*
X457055Y975747D01*
X457099Y975828D01*
X457830Y978188D01*
X458576Y980542D01*
X458587Y980634D01*
X458614Y980722D01*
X458873Y983186D01*
X459147Y985633D01*
X459149Y985810D01*
X459149Y985817D01*
X459149Y985824D01*
X459150Y986000D01*
X459150Y1046000D01*
X458909Y1048461D01*
X458685Y1050919D01*
X458659Y1051007D01*
X458650Y1051099D01*
X457936Y1053465D01*
X457239Y1055833D01*
X457196Y1055915D01*
X457169Y1056003D01*
X456011Y1058181D01*
X454865Y1060374D01*
X454807Y1060445D01*
X454764Y1060527D01*
X453206Y1062436D01*
X451655Y1064366D01*
X451584Y1064426D01*
X451526Y1064497D01*
X449629Y1066067D01*
X447730Y1067659D01*
X447650Y1067704D01*
X447579Y1067762D01*
X445408Y1068936D01*
X443241Y1070127D01*
X443153Y1070155D01*
X443072Y1070199D01*
X440712Y1070930D01*
X438358Y1071676D01*
X438266Y1071687D01*
X438178Y1071714D01*
X435714Y1071973D01*
X433266Y1072247D01*
X433090Y1072249D01*
X433083Y1072249D01*
X433076Y1072249D01*
X432900Y1072250D01*
X419277Y1072250D01*
X419277Y1091000D01*
X418770Y1096146D01*
X417269Y1101094D01*
X414832Y1105654D01*
X411551Y1109651D01*
X407554Y1112932D01*
X402994Y1115369D01*
X398046Y1116870D01*
X392900Y1117377D01*
X292900Y1117377D01*
X287754Y1116870D01*
X282806Y1115369D01*
X280400Y1114083D01*
X277994Y1115369D01*
X273046Y1116870D01*
X267900Y1117377D01*
X251650Y1117377D01*
X251650Y1168623D01*
X267900Y1168623D01*
X273046Y1169130D01*
X277994Y1170631D01*
X280400Y1171917D01*
X282806Y1170631D01*
X287754Y1169130D01*
X292900Y1168623D01*
X392900Y1168623D01*
X398046Y1169130D01*
X402994Y1170631D01*
X407554Y1173068D01*
X411551Y1176349D01*
X414832Y1180346D01*
X417269Y1184906D01*
X418770Y1189854D01*
X419277Y1195000D01*
X419277Y1345000D01*
X418770Y1350146D01*
X417269Y1355094D01*
X415582Y1358250D01*
X480697Y1358250D01*
X482600Y1358063D01*
X484503Y1358250D01*
X490196Y1358811D01*
X497501Y1361027D01*
X504232Y1364625D01*
X510133Y1369467D01*
X511346Y1370946D01*
X530618Y1390217D01*
X530062Y1384569D01*
G36*
X789931Y2541414D02*
G01*
X788516Y2540000D01*
X862877Y2465639D01*
X878634Y2478436D01*
X885877Y2496184D01*
X896475Y2485586D01*
X899688Y2477830D01*
X914051Y2456333D01*
X932333Y2438051D01*
X953830Y2423688D01*
X961586Y2420475D01*
X1261161Y2120900D01*
X1233680Y2093419D01*
X1225422Y2101625D01*
X1216141Y2101625D01*
X1169517Y2055000D01*
X1170931Y2053586D01*
X1144414Y2027069D01*
X1143000Y2028483D01*
X1096375Y1981859D01*
X1096375Y1972578D01*
X1104581Y1964320D01*
X821081Y1680819D01*
X820303Y1679872D01*
X819726Y1678792D01*
X819370Y1677619D01*
X819250Y1676400D01*
X819250Y1580877D01*
X805000Y1580877D01*
X799854Y1580370D01*
X794906Y1578869D01*
X790346Y1576432D01*
X786349Y1573151D01*
X783068Y1569154D01*
X780631Y1564594D01*
X779130Y1559646D01*
X778623Y1554500D01*
X778623Y1542950D01*
X772571Y1542950D01*
X772750Y1545187D01*
X766187Y1551750D01*
X740289Y1551750D01*
X739000Y1551877D01*
X653250Y1551877D01*
X653250Y1569250D01*
X655250Y1569250D01*
X655250Y1595187D01*
X692750Y1595187D01*
X692750Y1569250D01*
X766187Y1569250D01*
X772750Y1575812D01*
X772361Y1580693D01*
X770851Y1585638D01*
X768405Y1590194D01*
X765117Y1594185D01*
X761114Y1597458D01*
X756550Y1599887D01*
X751599Y1601379D01*
X746452Y1601877D01*
X699312Y1601750D01*
X692750Y1595187D01*
X655250Y1595187D01*
X648688Y1601750D01*
X641250Y1601770D01*
X641250Y1798724D01*
X662688Y1798750D01*
X669250Y1805312D01*
X669250Y1886250D01*
X706750Y1886250D01*
X706750Y1805312D01*
X713312Y1798750D01*
X818000Y1798623D01*
X823146Y1799130D01*
X828094Y1800631D01*
X832654Y1803068D01*
X836651Y1806349D01*
X839932Y1810346D01*
X842369Y1814906D01*
X843870Y1819854D01*
X844377Y1825000D01*
X844250Y1879687D01*
X837687Y1886250D01*
X706750Y1886250D01*
X669250Y1886250D01*
X667250Y1886250D01*
X667250Y1923750D01*
X669250Y1923750D01*
X669250Y2004687D01*
X706750Y2004687D01*
X706750Y1923750D01*
X837687Y1923750D01*
X844250Y1930312D01*
X844377Y1985000D01*
X843870Y1990146D01*
X842369Y1995094D01*
X839932Y1999654D01*
X836651Y2003651D01*
X832654Y2006932D01*
X828094Y2009369D01*
X823146Y2010870D01*
X818000Y2011377D01*
X713312Y2011250D01*
X706750Y2004687D01*
X669250Y2004687D01*
X662688Y2011250D01*
X641250Y2011276D01*
X641250Y2055000D01*
X1024699Y2055000D01*
X1025206Y2049854D01*
X1026707Y2044906D01*
X1029144Y2040346D01*
X1032425Y2036349D01*
X1060578Y2008375D01*
X1069859Y2008375D01*
X1116484Y2055000D01*
X1069859Y2101625D01*
X1060578Y2101625D01*
X1032425Y2073651D01*
X1029144Y2069654D01*
X1026707Y2065094D01*
X1025206Y2060146D01*
X1024699Y2055000D01*
X641250Y2055000D01*
X641250Y2137422D01*
X1096375Y2137422D01*
X1096375Y2128141D01*
X1143000Y2081516D01*
X1189625Y2128141D01*
X1189625Y2137422D01*
X1161651Y2165575D01*
X1157654Y2168856D01*
X1153094Y2171293D01*
X1148146Y2172794D01*
X1143000Y2173301D01*
X1137854Y2172794D01*
X1132906Y2171293D01*
X1128346Y2168856D01*
X1124349Y2165575D01*
X1096375Y2137422D01*
X641250Y2137422D01*
X641250Y2439123D01*
X687639Y2439123D01*
X700436Y2423366D01*
X724374Y2413596D01*
X749757Y2408685D01*
X775610Y2408819D01*
X800941Y2413995D01*
X823564Y2423366D01*
X836361Y2439123D01*
X762000Y2513484D01*
X687639Y2439123D01*
X641250Y2439123D01*
X641250Y2488372D01*
X645366Y2478436D01*
X661123Y2465639D01*
X735483Y2540000D01*
X734069Y2541414D01*
X760586Y2567931D01*
X762000Y2566517D01*
X763414Y2567931D01*
X789931Y2541414D01*
G37*
X789931Y2541414D02*
X788516Y2540000D01*
X862877Y2465639D01*
X878634Y2478436D01*
X885877Y2496184D01*
X896475Y2485586D01*
X899688Y2477830D01*
X914051Y2456333D01*
X932333Y2438051D01*
X953830Y2423688D01*
X961586Y2420475D01*
X1261161Y2120900D01*
X1233680Y2093419D01*
X1225422Y2101625D01*
X1216141Y2101625D01*
X1169517Y2055000D01*
X1170931Y2053586D01*
X1144414Y2027069D01*
X1143000Y2028483D01*
X1096375Y1981859D01*
X1096375Y1972578D01*
X1104581Y1964320D01*
X821081Y1680819D01*
X820303Y1679872D01*
X819726Y1678792D01*
X819370Y1677619D01*
X819250Y1676400D01*
X819250Y1580877D01*
X805000Y1580877D01*
X799854Y1580370D01*
X794906Y1578869D01*
X790346Y1576432D01*
X786349Y1573151D01*
X783068Y1569154D01*
X780631Y1564594D01*
X779130Y1559646D01*
X778623Y1554500D01*
X778623Y1542950D01*
X772571Y1542950D01*
X772750Y1545187D01*
X766187Y1551750D01*
X740289Y1551750D01*
X739000Y1551877D01*
X653250Y1551877D01*
X653250Y1569250D01*
X655250Y1569250D01*
X655250Y1595187D01*
X692750Y1595187D01*
X692750Y1569250D01*
X766187Y1569250D01*
X772750Y1575812D01*
X772361Y1580693D01*
X770851Y1585638D01*
X768405Y1590194D01*
X765117Y1594185D01*
X761114Y1597458D01*
X756550Y1599887D01*
X751599Y1601379D01*
X746452Y1601877D01*
X699312Y1601750D01*
X692750Y1595187D01*
X655250Y1595187D01*
X648688Y1601750D01*
X641250Y1601770D01*
X641250Y1798724D01*
X662688Y1798750D01*
X669250Y1805312D01*
X669250Y1886250D01*
X706750Y1886250D01*
X706750Y1805312D01*
X713312Y1798750D01*
X818000Y1798623D01*
X823146Y1799130D01*
X828094Y1800631D01*
X832654Y1803068D01*
X836651Y1806349D01*
X839932Y1810346D01*
X842369Y1814906D01*
X843870Y1819854D01*
X844377Y1825000D01*
X844250Y1879687D01*
X837687Y1886250D01*
X706750Y1886250D01*
X669250Y1886250D01*
X667250Y1886250D01*
X667250Y1923750D01*
X669250Y1923750D01*
X669250Y2004687D01*
X706750Y2004687D01*
X706750Y1923750D01*
X837687Y1923750D01*
X844250Y1930312D01*
X844377Y1985000D01*
X843870Y1990146D01*
X842369Y1995094D01*
X839932Y1999654D01*
X836651Y2003651D01*
X832654Y2006932D01*
X828094Y2009369D01*
X823146Y2010870D01*
X818000Y2011377D01*
X713312Y2011250D01*
X706750Y2004687D01*
X669250Y2004687D01*
X662688Y2011250D01*
X641250Y2011276D01*
X641250Y2055000D01*
X1024699Y2055000D01*
X1025206Y2049854D01*
X1026707Y2044906D01*
X1029144Y2040346D01*
X1032425Y2036349D01*
X1060578Y2008375D01*
X1069859Y2008375D01*
X1116484Y2055000D01*
X1069859Y2101625D01*
X1060578Y2101625D01*
X1032425Y2073651D01*
X1029144Y2069654D01*
X1026707Y2065094D01*
X1025206Y2060146D01*
X1024699Y2055000D01*
X641250Y2055000D01*
X641250Y2137422D01*
X1096375Y2137422D01*
X1096375Y2128141D01*
X1143000Y2081516D01*
X1189625Y2128141D01*
X1189625Y2137422D01*
X1161651Y2165575D01*
X1157654Y2168856D01*
X1153094Y2171293D01*
X1148146Y2172794D01*
X1143000Y2173301D01*
X1137854Y2172794D01*
X1132906Y2171293D01*
X1128346Y2168856D01*
X1124349Y2165575D01*
X1096375Y2137422D01*
X641250Y2137422D01*
X641250Y2439123D01*
X687639Y2439123D01*
X700436Y2423366D01*
X724374Y2413596D01*
X749757Y2408685D01*
X775610Y2408819D01*
X800941Y2413995D01*
X823564Y2423366D01*
X836361Y2439123D01*
X762000Y2513484D01*
X687639Y2439123D01*
X641250Y2439123D01*
X641250Y2488372D01*
X645366Y2478436D01*
X661123Y2465639D01*
X735483Y2540000D01*
X734069Y2541414D01*
X760586Y2567931D01*
X762000Y2566517D01*
X763414Y2567931D01*
X789931Y2541414D01*
G36*
X1170931Y1756414D02*
G01*
X1169517Y1755000D01*
X1216141Y1708375D01*
X1225422Y1708375D01*
X1251050Y1733839D01*
X1251050Y1577074D01*
X1250038Y1576767D01*
X1244949Y1575223D01*
X1238218Y1571625D01*
X1232317Y1566783D01*
X1231104Y1565305D01*
X1215049Y1549250D01*
X1198688Y1549250D01*
X1196188Y1551750D01*
X1170290Y1551750D01*
X1169000Y1551877D01*
X1083250Y1551877D01*
X1083250Y1569250D01*
X1085250Y1569250D01*
X1085250Y1595187D01*
X1122750Y1595187D01*
X1122750Y1569250D01*
X1196188Y1569250D01*
X1202750Y1575812D01*
X1202361Y1580693D01*
X1200851Y1585638D01*
X1198405Y1590194D01*
X1195117Y1594185D01*
X1191114Y1597458D01*
X1186550Y1599887D01*
X1181599Y1601379D01*
X1176452Y1601877D01*
X1129313Y1601750D01*
X1122750Y1595187D01*
X1085250Y1595187D01*
X1078688Y1601750D01*
X1031548Y1601877D01*
X1026401Y1601379D01*
X1022250Y1600128D01*
X1022250Y1681859D01*
X1096375Y1681859D01*
X1096375Y1672578D01*
X1124349Y1644425D01*
X1128346Y1641144D01*
X1132906Y1638707D01*
X1137854Y1637206D01*
X1143000Y1636699D01*
X1148146Y1637206D01*
X1153094Y1638707D01*
X1157654Y1641144D01*
X1161651Y1644425D01*
X1189625Y1672578D01*
X1189625Y1681859D01*
X1143000Y1728483D01*
X1096375Y1681859D01*
X1022250Y1681859D01*
X1022250Y1750011D01*
X1024927Y1752688D01*
X1025206Y1749854D01*
X1026707Y1744906D01*
X1029144Y1740346D01*
X1032425Y1736349D01*
X1060578Y1708375D01*
X1069859Y1708375D01*
X1116484Y1755000D01*
X1115069Y1756414D01*
X1141586Y1782931D01*
X1143000Y1781516D01*
X1144414Y1782931D01*
X1170931Y1756414D01*
G37*
X1170931Y1756414D02*
X1169517Y1755000D01*
X1216141Y1708375D01*
X1225422Y1708375D01*
X1251050Y1733839D01*
X1251050Y1577074D01*
X1250038Y1576767D01*
X1244949Y1575223D01*
X1238218Y1571625D01*
X1232317Y1566783D01*
X1231104Y1565305D01*
X1215049Y1549250D01*
X1198688Y1549250D01*
X1196188Y1551750D01*
X1170290Y1551750D01*
X1169000Y1551877D01*
X1083250Y1551877D01*
X1083250Y1569250D01*
X1085250Y1569250D01*
X1085250Y1595187D01*
X1122750Y1595187D01*
X1122750Y1569250D01*
X1196188Y1569250D01*
X1202750Y1575812D01*
X1202361Y1580693D01*
X1200851Y1585638D01*
X1198405Y1590194D01*
X1195117Y1594185D01*
X1191114Y1597458D01*
X1186550Y1599887D01*
X1181599Y1601379D01*
X1176452Y1601877D01*
X1129313Y1601750D01*
X1122750Y1595187D01*
X1085250Y1595187D01*
X1078688Y1601750D01*
X1031548Y1601877D01*
X1026401Y1601379D01*
X1022250Y1600128D01*
X1022250Y1681859D01*
X1096375Y1681859D01*
X1096375Y1672578D01*
X1124349Y1644425D01*
X1128346Y1641144D01*
X1132906Y1638707D01*
X1137854Y1637206D01*
X1143000Y1636699D01*
X1148146Y1637206D01*
X1153094Y1638707D01*
X1157654Y1641144D01*
X1161651Y1644425D01*
X1189625Y1672578D01*
X1189625Y1681859D01*
X1143000Y1728483D01*
X1096375Y1681859D01*
X1022250Y1681859D01*
X1022250Y1750011D01*
X1024927Y1752688D01*
X1025206Y1749854D01*
X1026707Y1744906D01*
X1029144Y1740346D01*
X1032425Y1736349D01*
X1060578Y1708375D01*
X1069859Y1708375D01*
X1116484Y1755000D01*
X1115069Y1756414D01*
X1141586Y1782931D01*
X1143000Y1781516D01*
X1144414Y1782931D01*
X1170931Y1756414D01*
D26*
X495300Y1143000D03*
X279400Y1143000D03*
D27*
X673100Y1714500D03*
D26*
X1231900Y889000D03*
X1333500Y1651000D03*
X789950Y1000750D03*
X1244600Y1308100D03*
X1219200Y1384300D03*
X834000Y1525500D03*
X944000Y1525500D03*
X834000Y1395500D03*
X944000Y1395500D03*
D28*
X1270000Y2540000D03*
X1016000Y2540000D03*
X762000Y2540000D03*
X508000Y2540000D03*
X254000Y2540000D03*
X0Y0D03*
X0Y254000D03*
X0Y508000D03*
X1524000Y2794000D03*
X0Y762000D03*
X1524000Y2540000D03*
X0Y1016000D03*
X1524000Y2286000D03*
X0Y1270000D03*
X1524000Y2032000D03*
X0Y1524000D03*
X1524000Y1778000D03*
X0Y1778000D03*
X1524000Y1524000D03*
X0Y2032000D03*
X1524000Y1270000D03*
X0Y2286000D03*
X1524000Y1016000D03*
X0Y2540000D03*
X1524000Y762000D03*
X0Y2794000D03*
X1524000Y508000D03*
X1524000Y254000D03*
X1524000Y0D03*
M02*
