%TF.GenerationSoftware,KiCad,Pcbnew,5.1.5+dfsg1-2~bpo10+1*%
%TF.CreationDate,Date%
%TF.ProjectId,ProMicro_ZPM,50726f4d-6963-4726-9f5f-5a504d2e6b69,v1.0*%
%TF.SameCoordinates,Original*%
%TF.FileFunction,Legend,Top*%
%TF.FilePolarity,Positive*%
%FSLAX45Y45*%
G04 Gerber Fmt 4.5, Leading zero omitted, Abs format (unit mm)*
G04 Created by KiCad*
%MOMM*%
%LPD*%
G04 APERTURE LIST*
%ADD10C,0.100000*%
%ADD11C,0.120000*%
%ADD12C,0.127000*%
%ADD13C,0.200000*%
%ADD14C,0.150000*%
%ADD15R,1.680000X1.880000*%
%ADD16R,0.800000X0.900000*%
%ADD17C,2.100000*%
%ADD18R,2.100000X2.100000*%
%ADD19R,1.060000X0.650000*%
%ADD20R,1.000000X1.500000*%
%ADD21O,1.600000X1.600000*%
%ADD22R,1.600000X1.600000*%
G04 APERTURE END LIST*
D10*
X-63500Y-127000D02*
G75*
G02X-127000Y-63500I0J63500D01*
G01*
X1651000Y-63500D02*
G75*
G02X1587500Y-127000I-63500J0D01*
G01*
X1587500Y2921000D02*
G75*
G02X1651000Y2857500I0J-63500D01*
G01*
X-127000Y2857500D02*
G75*
G02X-63500Y2921000I63500J0D01*
G01*
X-127000Y-63500D02*
X-127000Y2857500D01*
X1587500Y-127000D02*
X-63500Y-127000D01*
X1651000Y2857500D02*
X1651000Y-63500D01*
X-63500Y2921000D02*
X1587500Y2921000D01*
D11*
X783000Y1724000D02*
X783000Y1774000D01*
X808000Y1749000D02*
X758000Y1749000D01*
X734000Y2024556D02*
X627556Y2131000D01*
X734000Y1785444D02*
X627556Y1679000D01*
X734000Y1785444D02*
X734000Y1799000D01*
X734000Y2024556D02*
X734000Y2011000D01*
X627556Y2131000D02*
X282000Y2131000D01*
X627556Y1679000D02*
X282000Y1679000D01*
X282000Y1679000D02*
X282000Y1799000D01*
X282000Y2131000D02*
X282000Y2011000D01*
X889000Y1299500D02*
X1176500Y1299500D01*
X889000Y1299500D02*
X739000Y1299500D01*
X889000Y1621500D02*
X1039000Y1621500D01*
X889000Y1621500D02*
X739000Y1621500D01*
X1282500Y1095778D02*
X1282500Y1063222D01*
X1384500Y1095778D02*
X1384500Y1063222D01*
X247500Y608000D02*
X387500Y608000D01*
X457500Y538000D02*
X457500Y478000D01*
X387500Y408000D02*
X247500Y408000D01*
X177500Y478000D02*
X177500Y538000D01*
X177500Y538000D02*
G75*
G02X247500Y608000I70000J0D01*
G01*
X247500Y408000D02*
G75*
G02X177500Y478000I0J70000D01*
G01*
X457500Y478000D02*
G75*
G02X387500Y408000I-70000J0D01*
G01*
X387500Y608000D02*
G75*
G02X457500Y538000I0J-70000D01*
G01*
X718500Y-70000D02*
X1186500Y-70000D01*
X1256500Y552000D02*
X1128500Y552000D01*
X1256500Y712000D02*
X1256500Y552000D01*
X1358500Y712000D02*
X1256500Y712000D01*
X1358500Y287000D02*
X1358500Y712000D01*
X776500Y552000D02*
X776500Y841000D01*
X648500Y552000D02*
X776500Y552000D01*
X648500Y712000D02*
X648500Y552000D01*
X546500Y712000D02*
X648500Y712000D01*
X546500Y287000D02*
X546500Y712000D01*
X749500Y1063222D02*
X749500Y1095778D01*
X647500Y1063222D02*
X647500Y1095778D01*
X159500Y51000D02*
X159500Y197000D01*
X475500Y51000D02*
X475500Y267000D01*
X475500Y51000D02*
X382500Y51000D01*
X159500Y51000D02*
X252500Y51000D01*
X68000Y2179000D02*
X108000Y2179000D01*
X68000Y2243000D02*
X68000Y2179000D01*
X1432000Y2877000D02*
X1432000Y2203000D01*
X92000Y2877000D02*
X92000Y2203000D01*
X92000Y2203000D02*
X1432000Y2203000D01*
X92000Y2877000D02*
X1432000Y2877000D01*
X92000Y2765000D02*
X1432000Y2765000D01*
X92000Y2255000D02*
X1432000Y2255000D01*
X1106000Y1240500D02*
X861000Y1240500D01*
X926000Y918500D02*
X1106000Y918500D01*
D12*
X1302099Y1958033D02*
X1241995Y2018137D01*
X1302099Y1851967D02*
X1302099Y1958033D01*
X1241995Y1791863D02*
X1302099Y1851967D01*
X930868Y1905000D02*
X1044005Y1791863D01*
X1044005Y2018137D02*
X930868Y1905000D01*
D11*
X397278Y1575000D02*
X364722Y1575000D01*
X397278Y1473000D02*
X364722Y1473000D01*
X1384500Y1444222D02*
X1384500Y1476778D01*
X1282500Y1444222D02*
X1282500Y1476778D01*
X137900Y1300000D02*
G75*
G02X207900Y1370000I70000J0D01*
G01*
X207900Y1170000D02*
G75*
G02X137900Y1240000I0J70000D01*
G01*
X547900Y1240000D02*
G75*
G02X477900Y1170000I-70000J0D01*
G01*
X477900Y1370000D02*
G75*
G02X547900Y1300000I0J-70000D01*
G01*
X202900Y1370000D02*
X482900Y1370000D01*
X547900Y1300000D02*
X547900Y1240000D01*
X482900Y1170000D02*
X202900Y1170000D01*
X137900Y1240000D02*
X137900Y1300000D01*
X222900Y1150000D02*
X192900Y1120000D01*
X192900Y1120000D02*
X252900Y1120000D01*
X222900Y1150000D02*
X252900Y1120000D01*
X547900Y986000D02*
G75*
G02X477900Y916000I-70000J0D01*
G01*
X477900Y1116000D02*
G75*
G02X547900Y1046000I0J-70000D01*
G01*
X137900Y1046000D02*
G75*
G02X207900Y1116000I70000J0D01*
G01*
X207900Y916000D02*
G75*
G02X137900Y986000I0J70000D01*
G01*
X482900Y916000D02*
X202900Y916000D01*
X137900Y986000D02*
X137900Y1046000D01*
X202900Y1116000D02*
X482900Y1116000D01*
X547900Y1046000D02*
X547900Y986000D01*
X462900Y1136000D02*
X492900Y1166000D01*
X492900Y1166000D02*
X432900Y1166000D01*
X462900Y1136000D02*
X432900Y1166000D01*
X1664000Y127000D02*
X1664000Y2921000D01*
X127000Y-127000D02*
X127000Y2921000D01*
X1397000Y127000D02*
X1664000Y127000D01*
X1397000Y-127000D02*
X1397000Y2921000D01*
X1664000Y2921000D02*
X-140000Y2921000D01*
X-140000Y2921000D02*
X-140000Y-127000D01*
X-140000Y-127000D02*
X1397000Y-127000D01*
D13*
X917571Y1701167D02*
X921381Y1697357D01*
X925190Y1685929D01*
X925190Y1678310D01*
X921381Y1666881D01*
X913762Y1659262D01*
X906143Y1655452D01*
X890905Y1651643D01*
X879476Y1651643D01*
X864238Y1655452D01*
X856619Y1659262D01*
X849000Y1666881D01*
X845190Y1678310D01*
X845190Y1685929D01*
X849000Y1697357D01*
X852809Y1701167D01*
X925190Y1777357D02*
X925190Y1731643D01*
X925190Y1754500D02*
X845190Y1754500D01*
X856619Y1746881D01*
X864238Y1739262D01*
X868048Y1731643D01*
X972190Y1653548D02*
X1036952Y1653548D01*
X1044571Y1657357D01*
X1048381Y1661167D01*
X1052190Y1668786D01*
X1052190Y1684024D01*
X1048381Y1691643D01*
X1044571Y1695452D01*
X1036952Y1699262D01*
X972190Y1699262D01*
X1052190Y1779262D02*
X1052190Y1733548D01*
X1052190Y1756405D02*
X972190Y1756405D01*
X983619Y1748786D01*
X991238Y1741167D01*
X995048Y1733548D01*
X1369690Y812167D02*
X1331595Y785500D01*
X1369690Y766452D02*
X1289690Y766452D01*
X1289690Y796929D01*
X1293500Y804548D01*
X1297310Y808357D01*
X1304929Y812167D01*
X1316357Y812167D01*
X1323976Y808357D01*
X1327786Y804548D01*
X1331595Y796929D01*
X1331595Y766452D01*
X1369690Y888357D02*
X1369690Y842643D01*
X1369690Y865500D02*
X1289690Y865500D01*
X1301119Y857881D01*
X1308738Y850262D01*
X1312548Y842643D01*
X337190Y695333D02*
X394333Y695333D01*
X405762Y691524D01*
X413381Y683905D01*
X417190Y672476D01*
X417190Y664857D01*
X417190Y733429D02*
X337190Y733429D01*
X337190Y763905D01*
X341000Y771524D01*
X344810Y775333D01*
X352428Y779143D01*
X363857Y779143D01*
X371476Y775333D01*
X375286Y771524D01*
X379095Y763905D01*
X379095Y733429D01*
X363857Y847714D02*
X417190Y847714D01*
X333381Y828667D02*
X390524Y809619D01*
X390524Y859143D01*
X527690Y798833D02*
X584833Y798833D01*
X596262Y795024D01*
X603881Y787405D01*
X607690Y775976D01*
X607690Y768357D01*
X527690Y829310D02*
X527690Y878833D01*
X558167Y852167D01*
X558167Y863595D01*
X561976Y871214D01*
X565786Y875024D01*
X573405Y878833D01*
X592452Y878833D01*
X600071Y875024D01*
X603881Y871214D01*
X607690Y863595D01*
X607690Y840738D01*
X603881Y833119D01*
X600071Y829310D01*
X727071Y812167D02*
X730881Y808357D01*
X734690Y796929D01*
X734690Y789310D01*
X730881Y777881D01*
X723262Y770262D01*
X715643Y766452D01*
X700405Y762643D01*
X688976Y762643D01*
X673738Y766452D01*
X666119Y770262D01*
X658500Y777881D01*
X654690Y789310D01*
X654690Y796929D01*
X658500Y808357D01*
X662310Y812167D01*
X654690Y838833D02*
X654690Y888357D01*
X685167Y861690D01*
X685167Y873119D01*
X688976Y880738D01*
X692786Y884548D01*
X700405Y888357D01*
X719452Y888357D01*
X727071Y884548D01*
X730881Y880738D01*
X734690Y873119D01*
X734690Y850262D01*
X730881Y842643D01*
X727071Y838833D01*
X361309Y309881D02*
X357500Y302262D01*
X349881Y294643D01*
X338452Y283214D01*
X334643Y275595D01*
X334643Y267976D01*
X353690Y271786D02*
X349881Y264167D01*
X342262Y256548D01*
X327024Y252738D01*
X300357Y252738D01*
X285119Y256548D01*
X277500Y264167D01*
X273690Y271786D01*
X273690Y287024D01*
X277500Y294643D01*
X285119Y302262D01*
X300357Y306072D01*
X327024Y306072D01*
X342262Y302262D01*
X349881Y294643D01*
X353690Y287024D01*
X353690Y271786D01*
X353690Y382262D02*
X353690Y336548D01*
X353690Y359405D02*
X273690Y359405D01*
X285119Y351786D01*
X292738Y344167D01*
X296548Y336548D01*
X146690Y2068833D02*
X203833Y2068833D01*
X215262Y2065024D01*
X222881Y2057405D01*
X226690Y2045976D01*
X226690Y2038357D01*
X226690Y2148833D02*
X226690Y2103119D01*
X226690Y2125976D02*
X146690Y2125976D01*
X158119Y2118357D01*
X165738Y2110738D01*
X169548Y2103119D01*
X1162690Y764548D02*
X1227452Y764548D01*
X1235071Y768357D01*
X1238881Y772167D01*
X1242690Y779786D01*
X1242690Y795024D01*
X1238881Y802643D01*
X1235071Y806452D01*
X1227452Y810262D01*
X1162690Y810262D01*
X1170310Y844548D02*
X1166500Y848357D01*
X1162690Y855976D01*
X1162690Y875024D01*
X1166500Y882643D01*
X1170310Y886452D01*
X1177929Y890262D01*
X1185548Y890262D01*
X1196976Y886452D01*
X1242690Y840738D01*
X1242690Y890262D01*
X925190Y2071272D02*
X925190Y2033177D01*
X845190Y2033177D01*
X925190Y2139843D02*
X925190Y2094129D01*
X925190Y2116986D02*
X845190Y2116986D01*
X856619Y2109367D01*
X864238Y2101748D01*
X868048Y2094129D01*
X219071Y1701167D02*
X222881Y1697357D01*
X226690Y1685929D01*
X226690Y1678310D01*
X222881Y1666881D01*
X215262Y1659262D01*
X207643Y1655452D01*
X192405Y1651643D01*
X180976Y1651643D01*
X165738Y1655452D01*
X158119Y1659262D01*
X150500Y1666881D01*
X146690Y1678310D01*
X146690Y1685929D01*
X150500Y1697357D01*
X154310Y1701167D01*
X173357Y1769738D02*
X226690Y1769738D01*
X142881Y1750690D02*
X200024Y1731643D01*
X200024Y1781167D01*
X1362071Y1701167D02*
X1365881Y1697357D01*
X1369690Y1685929D01*
X1369690Y1678310D01*
X1365881Y1666881D01*
X1358262Y1659262D01*
X1350643Y1655452D01*
X1335405Y1651643D01*
X1323976Y1651643D01*
X1308738Y1655452D01*
X1301119Y1659262D01*
X1293500Y1666881D01*
X1289690Y1678310D01*
X1289690Y1685929D01*
X1293500Y1697357D01*
X1297310Y1701167D01*
X1297310Y1731643D02*
X1293500Y1735452D01*
X1289690Y1743071D01*
X1289690Y1762119D01*
X1293500Y1769738D01*
X1297310Y1773548D01*
X1304929Y1777357D01*
X1312548Y1777357D01*
X1323976Y1773548D01*
X1369690Y1727833D01*
X1369690Y1777357D01*
X146690Y1457333D02*
X203833Y1457333D01*
X215262Y1453524D01*
X222881Y1445905D01*
X226690Y1434476D01*
X226690Y1426857D01*
X226690Y1495429D02*
X146690Y1495429D01*
X146690Y1525905D01*
X150500Y1533524D01*
X154310Y1537333D01*
X161929Y1541143D01*
X173357Y1541143D01*
X180976Y1537333D01*
X184786Y1533524D01*
X188595Y1525905D01*
X188595Y1495429D01*
X146690Y1567810D02*
X146690Y1617333D01*
X177167Y1590667D01*
X177167Y1602095D01*
X180976Y1609714D01*
X184786Y1613524D01*
X192405Y1617333D01*
X211452Y1617333D01*
X219071Y1613524D01*
X222881Y1609714D01*
X226690Y1602095D01*
X226690Y1579238D01*
X222881Y1571619D01*
X219071Y1567810D01*
X210190Y695333D02*
X267333Y695333D01*
X278762Y691524D01*
X286381Y683905D01*
X290190Y672476D01*
X290190Y664857D01*
X290190Y733429D02*
X210190Y733429D01*
X210190Y763905D01*
X214000Y771524D01*
X217809Y775333D01*
X225428Y779143D01*
X236857Y779143D01*
X244476Y775333D01*
X248286Y771524D01*
X252095Y763905D01*
X252095Y733429D01*
X217809Y809619D02*
X214000Y813429D01*
X210190Y821048D01*
X210190Y840095D01*
X214000Y847714D01*
X217809Y851524D01*
X225428Y855333D01*
X233048Y855333D01*
X244476Y851524D01*
X290190Y805810D01*
X290190Y855333D01*
X1156333Y6357D02*
X1156333Y44452D01*
X1179190Y-1262D02*
X1099190Y25405D01*
X1179190Y52071D01*
X1179190Y120643D02*
X1179190Y74929D01*
X1179190Y97786D02*
X1099190Y97786D01*
X1110619Y90167D01*
X1118238Y82548D01*
X1122048Y74929D01*
%LPC*%
D14*
G36*
X435450Y1984880D02*
G01*
X437877Y1984520D01*
X440257Y1983923D01*
X442567Y1983097D01*
X444785Y1982048D01*
X446889Y1980787D01*
X448860Y1979325D01*
X450678Y1977678D01*
X452325Y1975860D01*
X453787Y1973889D01*
X455048Y1971785D01*
X456097Y1969567D01*
X456923Y1967257D01*
X457520Y1964877D01*
X457880Y1962450D01*
X458000Y1960000D01*
X458000Y1850000D01*
X457880Y1847550D01*
X457520Y1845123D01*
X456923Y1842743D01*
X456097Y1840433D01*
X455048Y1838215D01*
X453787Y1836111D01*
X452325Y1834140D01*
X450678Y1832322D01*
X448860Y1830675D01*
X446889Y1829213D01*
X444785Y1827952D01*
X442567Y1826903D01*
X440257Y1826076D01*
X437877Y1825480D01*
X435450Y1825120D01*
X433000Y1825000D01*
X223000Y1825000D01*
X220550Y1825120D01*
X218123Y1825480D01*
X215743Y1826076D01*
X213433Y1826903D01*
X211215Y1827952D01*
X209111Y1829213D01*
X207140Y1830675D01*
X205322Y1832322D01*
X203675Y1834140D01*
X202213Y1836111D01*
X200952Y1838215D01*
X199903Y1840433D01*
X199076Y1842743D01*
X198480Y1845123D01*
X198120Y1847550D01*
X198000Y1850000D01*
X198000Y1960000D01*
X198120Y1962450D01*
X198480Y1964877D01*
X199076Y1967257D01*
X199903Y1969567D01*
X200952Y1971785D01*
X202213Y1973889D01*
X203675Y1975860D01*
X205322Y1977678D01*
X207140Y1979325D01*
X209111Y1980787D01*
X211215Y1982048D01*
X213433Y1983097D01*
X215743Y1983923D01*
X218123Y1984520D01*
X220550Y1984880D01*
X223000Y1985000D01*
X433000Y1985000D01*
X435450Y1984880D01*
G37*
G36*
X795450Y1984880D02*
G01*
X797877Y1984520D01*
X800257Y1983923D01*
X802567Y1983097D01*
X804785Y1982048D01*
X806889Y1980787D01*
X808860Y1979325D01*
X810678Y1977678D01*
X812325Y1975860D01*
X813787Y1973889D01*
X815048Y1971785D01*
X816097Y1969567D01*
X816923Y1967257D01*
X817520Y1964877D01*
X817880Y1962450D01*
X818000Y1960000D01*
X818000Y1850000D01*
X817880Y1847550D01*
X817520Y1845123D01*
X816923Y1842743D01*
X816097Y1840433D01*
X815048Y1838215D01*
X813787Y1836111D01*
X812325Y1834140D01*
X810678Y1832322D01*
X808860Y1830675D01*
X806889Y1829213D01*
X804785Y1827952D01*
X802567Y1826903D01*
X800257Y1826076D01*
X797877Y1825480D01*
X795450Y1825120D01*
X793000Y1825000D01*
X583000Y1825000D01*
X580550Y1825120D01*
X578123Y1825480D01*
X575743Y1826076D01*
X573433Y1826903D01*
X571215Y1827952D01*
X569111Y1829213D01*
X567140Y1830675D01*
X565322Y1832322D01*
X563675Y1834140D01*
X562213Y1836111D01*
X560952Y1838215D01*
X559903Y1840433D01*
X559077Y1842743D01*
X558480Y1845123D01*
X558120Y1847550D01*
X558000Y1850000D01*
X558000Y1960000D01*
X558120Y1962450D01*
X558480Y1964877D01*
X559077Y1967257D01*
X559903Y1969567D01*
X560952Y1971785D01*
X562213Y1973889D01*
X563675Y1975860D01*
X565322Y1977678D01*
X567140Y1979325D01*
X569111Y1980787D01*
X571215Y1982048D01*
X573433Y1983097D01*
X575743Y1983923D01*
X578123Y1984520D01*
X580550Y1984880D01*
X583000Y1985000D01*
X793000Y1985000D01*
X795450Y1984880D01*
G37*
D15*
X889000Y1460500D03*
D14*
G36*
X739735Y1375464D02*
G01*
X740463Y1375356D01*
X741177Y1375177D01*
X741870Y1374929D01*
X742535Y1374614D01*
X743167Y1374236D01*
X743758Y1373798D01*
X744303Y1373303D01*
X744798Y1372758D01*
X745236Y1372167D01*
X745614Y1371536D01*
X745929Y1370870D01*
X746177Y1370177D01*
X746356Y1369463D01*
X746464Y1368735D01*
X746500Y1368000D01*
X746500Y1353000D01*
X746464Y1352265D01*
X746356Y1351537D01*
X746177Y1350823D01*
X745929Y1350130D01*
X745614Y1349465D01*
X745236Y1348833D01*
X744798Y1348242D01*
X744303Y1347697D01*
X743758Y1347202D01*
X743167Y1346764D01*
X742535Y1346386D01*
X741870Y1346071D01*
X741177Y1345823D01*
X740463Y1345644D01*
X739735Y1345536D01*
X739000Y1345500D01*
X609000Y1345500D01*
X608265Y1345536D01*
X607537Y1345644D01*
X606823Y1345823D01*
X606130Y1346071D01*
X605465Y1346386D01*
X604833Y1346764D01*
X604242Y1347202D01*
X603697Y1347697D01*
X603202Y1348242D01*
X602764Y1348833D01*
X602386Y1349465D01*
X602071Y1350130D01*
X601823Y1350823D01*
X601644Y1351537D01*
X601536Y1352265D01*
X601500Y1353000D01*
X601500Y1368000D01*
X601536Y1368735D01*
X601644Y1369463D01*
X601823Y1370177D01*
X602071Y1370870D01*
X602386Y1371536D01*
X602764Y1372167D01*
X603202Y1372758D01*
X603697Y1373303D01*
X604242Y1373798D01*
X604833Y1374236D01*
X605465Y1374614D01*
X606130Y1374929D01*
X606823Y1375177D01*
X607537Y1375356D01*
X608265Y1375464D01*
X609000Y1375500D01*
X739000Y1375500D01*
X739735Y1375464D01*
G37*
G36*
X739735Y1425464D02*
G01*
X740463Y1425356D01*
X741177Y1425177D01*
X741870Y1424929D01*
X742535Y1424614D01*
X743167Y1424236D01*
X743758Y1423798D01*
X744303Y1423303D01*
X744798Y1422758D01*
X745236Y1422167D01*
X745614Y1421535D01*
X745929Y1420870D01*
X746177Y1420177D01*
X746356Y1419463D01*
X746464Y1418735D01*
X746500Y1418000D01*
X746500Y1403000D01*
X746464Y1402265D01*
X746356Y1401537D01*
X746177Y1400823D01*
X745929Y1400130D01*
X745614Y1399464D01*
X745236Y1398833D01*
X744798Y1398242D01*
X744303Y1397697D01*
X743758Y1397202D01*
X743167Y1396764D01*
X742535Y1396386D01*
X741870Y1396071D01*
X741177Y1395823D01*
X740463Y1395644D01*
X739735Y1395536D01*
X739000Y1395500D01*
X609000Y1395500D01*
X608265Y1395536D01*
X607537Y1395644D01*
X606823Y1395823D01*
X606130Y1396071D01*
X605465Y1396386D01*
X604833Y1396764D01*
X604242Y1397202D01*
X603697Y1397697D01*
X603202Y1398242D01*
X602764Y1398833D01*
X602386Y1399464D01*
X602071Y1400130D01*
X601823Y1400823D01*
X601644Y1401537D01*
X601536Y1402265D01*
X601500Y1403000D01*
X601500Y1418000D01*
X601536Y1418735D01*
X601644Y1419463D01*
X601823Y1420177D01*
X602071Y1420870D01*
X602386Y1421535D01*
X602764Y1422167D01*
X603202Y1422758D01*
X603697Y1423303D01*
X604242Y1423798D01*
X604833Y1424236D01*
X605465Y1424614D01*
X606130Y1424929D01*
X606823Y1425177D01*
X607537Y1425356D01*
X608265Y1425464D01*
X609000Y1425500D01*
X739000Y1425500D01*
X739735Y1425464D01*
G37*
G36*
X739735Y1475464D02*
G01*
X740463Y1475356D01*
X741177Y1475177D01*
X741870Y1474929D01*
X742535Y1474614D01*
X743167Y1474236D01*
X743758Y1473798D01*
X744303Y1473303D01*
X744798Y1472758D01*
X745236Y1472167D01*
X745614Y1471535D01*
X745929Y1470870D01*
X746177Y1470177D01*
X746356Y1469463D01*
X746464Y1468735D01*
X746500Y1468000D01*
X746500Y1453000D01*
X746464Y1452265D01*
X746356Y1451537D01*
X746177Y1450823D01*
X745929Y1450130D01*
X745614Y1449464D01*
X745236Y1448833D01*
X744798Y1448242D01*
X744303Y1447697D01*
X743758Y1447202D01*
X743167Y1446764D01*
X742535Y1446386D01*
X741870Y1446071D01*
X741177Y1445823D01*
X740463Y1445644D01*
X739735Y1445536D01*
X739000Y1445500D01*
X609000Y1445500D01*
X608265Y1445536D01*
X607537Y1445644D01*
X606823Y1445823D01*
X606130Y1446071D01*
X605465Y1446386D01*
X604833Y1446764D01*
X604242Y1447202D01*
X603697Y1447697D01*
X603202Y1448242D01*
X602764Y1448833D01*
X602386Y1449464D01*
X602071Y1450130D01*
X601823Y1450823D01*
X601644Y1451537D01*
X601536Y1452265D01*
X601500Y1453000D01*
X601500Y1468000D01*
X601536Y1468735D01*
X601644Y1469463D01*
X601823Y1470177D01*
X602071Y1470870D01*
X602386Y1471535D01*
X602764Y1472167D01*
X603202Y1472758D01*
X603697Y1473303D01*
X604242Y1473798D01*
X604833Y1474236D01*
X605465Y1474614D01*
X606130Y1474929D01*
X606823Y1475177D01*
X607537Y1475356D01*
X608265Y1475464D01*
X609000Y1475500D01*
X739000Y1475500D01*
X739735Y1475464D01*
G37*
G36*
X739735Y1525464D02*
G01*
X740463Y1525356D01*
X741177Y1525177D01*
X741870Y1524929D01*
X742535Y1524614D01*
X743167Y1524236D01*
X743758Y1523798D01*
X744303Y1523303D01*
X744798Y1522758D01*
X745236Y1522167D01*
X745614Y1521535D01*
X745929Y1520870D01*
X746177Y1520177D01*
X746356Y1519463D01*
X746464Y1518735D01*
X746500Y1518000D01*
X746500Y1503000D01*
X746464Y1502265D01*
X746356Y1501537D01*
X746177Y1500823D01*
X745929Y1500130D01*
X745614Y1499464D01*
X745236Y1498833D01*
X744798Y1498242D01*
X744303Y1497697D01*
X743758Y1497202D01*
X743167Y1496764D01*
X742535Y1496386D01*
X741870Y1496071D01*
X741177Y1495823D01*
X740463Y1495644D01*
X739735Y1495536D01*
X739000Y1495500D01*
X609000Y1495500D01*
X608265Y1495536D01*
X607537Y1495644D01*
X606823Y1495823D01*
X606130Y1496071D01*
X605465Y1496386D01*
X604833Y1496764D01*
X604242Y1497202D01*
X603697Y1497697D01*
X603202Y1498242D01*
X602764Y1498833D01*
X602386Y1499464D01*
X602071Y1500130D01*
X601823Y1500823D01*
X601644Y1501537D01*
X601536Y1502265D01*
X601500Y1503000D01*
X601500Y1518000D01*
X601536Y1518735D01*
X601644Y1519463D01*
X601823Y1520177D01*
X602071Y1520870D01*
X602386Y1521535D01*
X602764Y1522167D01*
X603202Y1522758D01*
X603697Y1523303D01*
X604242Y1523798D01*
X604833Y1524236D01*
X605465Y1524614D01*
X606130Y1524929D01*
X606823Y1525177D01*
X607537Y1525356D01*
X608265Y1525464D01*
X609000Y1525500D01*
X739000Y1525500D01*
X739735Y1525464D01*
G37*
G36*
X739735Y1575464D02*
G01*
X740463Y1575356D01*
X741177Y1575177D01*
X741870Y1574929D01*
X742535Y1574614D01*
X743167Y1574236D01*
X743758Y1573798D01*
X744303Y1573303D01*
X744798Y1572758D01*
X745236Y1572167D01*
X745614Y1571535D01*
X745929Y1570870D01*
X746177Y1570177D01*
X746356Y1569463D01*
X746464Y1568735D01*
X746500Y1568000D01*
X746500Y1553000D01*
X746464Y1552265D01*
X746356Y1551537D01*
X746177Y1550823D01*
X745929Y1550130D01*
X745614Y1549464D01*
X745236Y1548833D01*
X744798Y1548242D01*
X744303Y1547697D01*
X743758Y1547202D01*
X743167Y1546764D01*
X742535Y1546386D01*
X741870Y1546071D01*
X741177Y1545823D01*
X740463Y1545644D01*
X739735Y1545536D01*
X739000Y1545500D01*
X609000Y1545500D01*
X608265Y1545536D01*
X607537Y1545644D01*
X606823Y1545823D01*
X606130Y1546071D01*
X605465Y1546386D01*
X604833Y1546764D01*
X604242Y1547202D01*
X603697Y1547697D01*
X603202Y1548242D01*
X602764Y1548833D01*
X602386Y1549464D01*
X602071Y1550130D01*
X601823Y1550823D01*
X601644Y1551537D01*
X601536Y1552265D01*
X601500Y1553000D01*
X601500Y1568000D01*
X601536Y1568735D01*
X601644Y1569463D01*
X601823Y1570177D01*
X602071Y1570870D01*
X602386Y1571535D01*
X602764Y1572167D01*
X603202Y1572758D01*
X603697Y1573303D01*
X604242Y1573798D01*
X604833Y1574236D01*
X605465Y1574614D01*
X606130Y1574929D01*
X606823Y1575177D01*
X607537Y1575356D01*
X608265Y1575464D01*
X609000Y1575500D01*
X739000Y1575500D01*
X739735Y1575464D01*
G37*
G36*
X1169735Y1575464D02*
G01*
X1170463Y1575356D01*
X1171177Y1575177D01*
X1171870Y1574929D01*
X1172536Y1574614D01*
X1173167Y1574236D01*
X1173758Y1573798D01*
X1174303Y1573303D01*
X1174798Y1572758D01*
X1175236Y1572167D01*
X1175614Y1571535D01*
X1175929Y1570870D01*
X1176177Y1570177D01*
X1176356Y1569463D01*
X1176464Y1568735D01*
X1176500Y1568000D01*
X1176500Y1553000D01*
X1176464Y1552265D01*
X1176356Y1551537D01*
X1176177Y1550823D01*
X1175929Y1550130D01*
X1175614Y1549464D01*
X1175236Y1548833D01*
X1174798Y1548242D01*
X1174303Y1547697D01*
X1173758Y1547202D01*
X1173167Y1546764D01*
X1172536Y1546386D01*
X1171870Y1546071D01*
X1171177Y1545823D01*
X1170463Y1545644D01*
X1169735Y1545536D01*
X1169000Y1545500D01*
X1039000Y1545500D01*
X1038265Y1545536D01*
X1037537Y1545644D01*
X1036823Y1545823D01*
X1036130Y1546071D01*
X1035464Y1546386D01*
X1034833Y1546764D01*
X1034242Y1547202D01*
X1033697Y1547697D01*
X1033202Y1548242D01*
X1032764Y1548833D01*
X1032386Y1549464D01*
X1032071Y1550130D01*
X1031823Y1550823D01*
X1031644Y1551537D01*
X1031536Y1552265D01*
X1031500Y1553000D01*
X1031500Y1568000D01*
X1031536Y1568735D01*
X1031644Y1569463D01*
X1031823Y1570177D01*
X1032071Y1570870D01*
X1032386Y1571535D01*
X1032764Y1572167D01*
X1033202Y1572758D01*
X1033697Y1573303D01*
X1034242Y1573798D01*
X1034833Y1574236D01*
X1035464Y1574614D01*
X1036130Y1574929D01*
X1036823Y1575177D01*
X1037537Y1575356D01*
X1038265Y1575464D01*
X1039000Y1575500D01*
X1169000Y1575500D01*
X1169735Y1575464D01*
G37*
G36*
X1169735Y1525464D02*
G01*
X1170463Y1525356D01*
X1171177Y1525177D01*
X1171870Y1524929D01*
X1172536Y1524614D01*
X1173167Y1524236D01*
X1173758Y1523798D01*
X1174303Y1523303D01*
X1174798Y1522758D01*
X1175236Y1522167D01*
X1175614Y1521535D01*
X1175929Y1520870D01*
X1176177Y1520177D01*
X1176356Y1519463D01*
X1176464Y1518735D01*
X1176500Y1518000D01*
X1176500Y1503000D01*
X1176464Y1502265D01*
X1176356Y1501537D01*
X1176177Y1500823D01*
X1175929Y1500130D01*
X1175614Y1499464D01*
X1175236Y1498833D01*
X1174798Y1498242D01*
X1174303Y1497697D01*
X1173758Y1497202D01*
X1173167Y1496764D01*
X1172536Y1496386D01*
X1171870Y1496071D01*
X1171177Y1495823D01*
X1170463Y1495644D01*
X1169735Y1495536D01*
X1169000Y1495500D01*
X1039000Y1495500D01*
X1038265Y1495536D01*
X1037537Y1495644D01*
X1036823Y1495823D01*
X1036130Y1496071D01*
X1035464Y1496386D01*
X1034833Y1496764D01*
X1034242Y1497202D01*
X1033697Y1497697D01*
X1033202Y1498242D01*
X1032764Y1498833D01*
X1032386Y1499464D01*
X1032071Y1500130D01*
X1031823Y1500823D01*
X1031644Y1501537D01*
X1031536Y1502265D01*
X1031500Y1503000D01*
X1031500Y1518000D01*
X1031536Y1518735D01*
X1031644Y1519463D01*
X1031823Y1520177D01*
X1032071Y1520870D01*
X1032386Y1521535D01*
X1032764Y1522167D01*
X1033202Y1522758D01*
X1033697Y1523303D01*
X1034242Y1523798D01*
X1034833Y1524236D01*
X1035464Y1524614D01*
X1036130Y1524929D01*
X1036823Y1525177D01*
X1037537Y1525356D01*
X1038265Y1525464D01*
X1039000Y1525500D01*
X1169000Y1525500D01*
X1169735Y1525464D01*
G37*
G36*
X1169735Y1475464D02*
G01*
X1170463Y1475356D01*
X1171177Y1475177D01*
X1171870Y1474929D01*
X1172536Y1474614D01*
X1173167Y1474236D01*
X1173758Y1473798D01*
X1174303Y1473303D01*
X1174798Y1472758D01*
X1175236Y1472167D01*
X1175614Y1471535D01*
X1175929Y1470870D01*
X1176177Y1470177D01*
X1176356Y1469463D01*
X1176464Y1468735D01*
X1176500Y1468000D01*
X1176500Y1453000D01*
X1176464Y1452265D01*
X1176356Y1451537D01*
X1176177Y1450823D01*
X1175929Y1450130D01*
X1175614Y1449464D01*
X1175236Y1448833D01*
X1174798Y1448242D01*
X1174303Y1447697D01*
X1173758Y1447202D01*
X1173167Y1446764D01*
X1172536Y1446386D01*
X1171870Y1446071D01*
X1171177Y1445823D01*
X1170463Y1445644D01*
X1169735Y1445536D01*
X1169000Y1445500D01*
X1039000Y1445500D01*
X1038265Y1445536D01*
X1037537Y1445644D01*
X1036823Y1445823D01*
X1036130Y1446071D01*
X1035464Y1446386D01*
X1034833Y1446764D01*
X1034242Y1447202D01*
X1033697Y1447697D01*
X1033202Y1448242D01*
X1032764Y1448833D01*
X1032386Y1449464D01*
X1032071Y1450130D01*
X1031823Y1450823D01*
X1031644Y1451537D01*
X1031536Y1452265D01*
X1031500Y1453000D01*
X1031500Y1468000D01*
X1031536Y1468735D01*
X1031644Y1469463D01*
X1031823Y1470177D01*
X1032071Y1470870D01*
X1032386Y1471535D01*
X1032764Y1472167D01*
X1033202Y1472758D01*
X1033697Y1473303D01*
X1034242Y1473798D01*
X1034833Y1474236D01*
X1035464Y1474614D01*
X1036130Y1474929D01*
X1036823Y1475177D01*
X1037537Y1475356D01*
X1038265Y1475464D01*
X1039000Y1475500D01*
X1169000Y1475500D01*
X1169735Y1475464D01*
G37*
G36*
X1169735Y1425464D02*
G01*
X1170463Y1425356D01*
X1171177Y1425177D01*
X1171870Y1424929D01*
X1172536Y1424614D01*
X1173167Y1424236D01*
X1173758Y1423798D01*
X1174303Y1423303D01*
X1174798Y1422758D01*
X1175236Y1422167D01*
X1175614Y1421535D01*
X1175929Y1420870D01*
X1176177Y1420177D01*
X1176356Y1419463D01*
X1176464Y1418735D01*
X1176500Y1418000D01*
X1176500Y1403000D01*
X1176464Y1402265D01*
X1176356Y1401537D01*
X1176177Y1400823D01*
X1175929Y1400130D01*
X1175614Y1399464D01*
X1175236Y1398833D01*
X1174798Y1398242D01*
X1174303Y1397697D01*
X1173758Y1397202D01*
X1173167Y1396764D01*
X1172536Y1396386D01*
X1171870Y1396071D01*
X1171177Y1395823D01*
X1170463Y1395644D01*
X1169735Y1395536D01*
X1169000Y1395500D01*
X1039000Y1395500D01*
X1038265Y1395536D01*
X1037537Y1395644D01*
X1036823Y1395823D01*
X1036130Y1396071D01*
X1035464Y1396386D01*
X1034833Y1396764D01*
X1034242Y1397202D01*
X1033697Y1397697D01*
X1033202Y1398242D01*
X1032764Y1398833D01*
X1032386Y1399464D01*
X1032071Y1400130D01*
X1031823Y1400823D01*
X1031644Y1401537D01*
X1031536Y1402265D01*
X1031500Y1403000D01*
X1031500Y1418000D01*
X1031536Y1418735D01*
X1031644Y1419463D01*
X1031823Y1420177D01*
X1032071Y1420870D01*
X1032386Y1421535D01*
X1032764Y1422167D01*
X1033202Y1422758D01*
X1033697Y1423303D01*
X1034242Y1423798D01*
X1034833Y1424236D01*
X1035464Y1424614D01*
X1036130Y1424929D01*
X1036823Y1425177D01*
X1037537Y1425356D01*
X1038265Y1425464D01*
X1039000Y1425500D01*
X1169000Y1425500D01*
X1169735Y1425464D01*
G37*
G36*
X1169735Y1375464D02*
G01*
X1170463Y1375356D01*
X1171177Y1375177D01*
X1171870Y1374929D01*
X1172536Y1374614D01*
X1173167Y1374236D01*
X1173758Y1373798D01*
X1174303Y1373303D01*
X1174798Y1372758D01*
X1175236Y1372167D01*
X1175614Y1371536D01*
X1175929Y1370870D01*
X1176177Y1370177D01*
X1176356Y1369463D01*
X1176464Y1368735D01*
X1176500Y1368000D01*
X1176500Y1353000D01*
X1176464Y1352265D01*
X1176356Y1351537D01*
X1176177Y1350823D01*
X1175929Y1350130D01*
X1175614Y1349465D01*
X1175236Y1348833D01*
X1174798Y1348242D01*
X1174303Y1347697D01*
X1173758Y1347202D01*
X1173167Y1346764D01*
X1172536Y1346386D01*
X1171870Y1346071D01*
X1171177Y1345823D01*
X1170463Y1345644D01*
X1169735Y1345536D01*
X1169000Y1345500D01*
X1039000Y1345500D01*
X1038265Y1345536D01*
X1037537Y1345644D01*
X1036823Y1345823D01*
X1036130Y1346071D01*
X1035464Y1346386D01*
X1034833Y1346764D01*
X1034242Y1347202D01*
X1033697Y1347697D01*
X1033202Y1348242D01*
X1032764Y1348833D01*
X1032386Y1349465D01*
X1032071Y1350130D01*
X1031823Y1350823D01*
X1031644Y1351537D01*
X1031536Y1352265D01*
X1031500Y1353000D01*
X1031500Y1368000D01*
X1031536Y1368735D01*
X1031644Y1369463D01*
X1031823Y1370177D01*
X1032071Y1370870D01*
X1032386Y1371536D01*
X1032764Y1372167D01*
X1033202Y1372758D01*
X1033697Y1373303D01*
X1034242Y1373798D01*
X1034833Y1374236D01*
X1035464Y1374614D01*
X1036130Y1374929D01*
X1036823Y1375177D01*
X1037537Y1375356D01*
X1038265Y1375464D01*
X1039000Y1375500D01*
X1169000Y1375500D01*
X1169735Y1375464D01*
G37*
G36*
X1361269Y1044395D02*
G01*
X1363393Y1044080D01*
X1365475Y1043558D01*
X1367496Y1042835D01*
X1369437Y1041917D01*
X1371278Y1040813D01*
X1373002Y1039535D01*
X1374593Y1038093D01*
X1376035Y1036502D01*
X1377313Y1034778D01*
X1378417Y1032937D01*
X1379335Y1030996D01*
X1380058Y1028975D01*
X1380580Y1026893D01*
X1380895Y1024769D01*
X1381000Y1022625D01*
X1381000Y978875D01*
X1380895Y976731D01*
X1380580Y974607D01*
X1380058Y972525D01*
X1379335Y970504D01*
X1378417Y968563D01*
X1377313Y966722D01*
X1376035Y964998D01*
X1374593Y963407D01*
X1373002Y961965D01*
X1371278Y960687D01*
X1369437Y959583D01*
X1367496Y958665D01*
X1365475Y957942D01*
X1363393Y957420D01*
X1361269Y957105D01*
X1359125Y957000D01*
X1307875Y957000D01*
X1305731Y957105D01*
X1303607Y957420D01*
X1301525Y957942D01*
X1299504Y958665D01*
X1297563Y959583D01*
X1295722Y960687D01*
X1293998Y961965D01*
X1292407Y963407D01*
X1290965Y964998D01*
X1289687Y966722D01*
X1288583Y968563D01*
X1287665Y970504D01*
X1286942Y972525D01*
X1286420Y974607D01*
X1286105Y976731D01*
X1286000Y978875D01*
X1286000Y1022625D01*
X1286105Y1024769D01*
X1286420Y1026893D01*
X1286942Y1028975D01*
X1287665Y1030996D01*
X1288583Y1032937D01*
X1289687Y1034778D01*
X1290965Y1036502D01*
X1292407Y1038093D01*
X1293998Y1039535D01*
X1295722Y1040813D01*
X1297563Y1041917D01*
X1299504Y1042835D01*
X1301525Y1043558D01*
X1303607Y1044080D01*
X1305731Y1044395D01*
X1307875Y1044500D01*
X1359125Y1044500D01*
X1361269Y1044395D01*
G37*
G36*
X1361269Y1201895D02*
G01*
X1363393Y1201580D01*
X1365475Y1201058D01*
X1367496Y1200335D01*
X1369437Y1199417D01*
X1371278Y1198313D01*
X1373002Y1197035D01*
X1374593Y1195593D01*
X1376035Y1194002D01*
X1377313Y1192278D01*
X1378417Y1190437D01*
X1379335Y1188496D01*
X1380058Y1186475D01*
X1380580Y1184393D01*
X1380895Y1182269D01*
X1381000Y1180125D01*
X1381000Y1136375D01*
X1380895Y1134231D01*
X1380580Y1132107D01*
X1380058Y1130025D01*
X1379335Y1128004D01*
X1378417Y1126063D01*
X1377313Y1124222D01*
X1376035Y1122498D01*
X1374593Y1120907D01*
X1373002Y1119465D01*
X1371278Y1118187D01*
X1369437Y1117083D01*
X1367496Y1116165D01*
X1365475Y1115442D01*
X1363393Y1114920D01*
X1361269Y1114605D01*
X1359125Y1114500D01*
X1307875Y1114500D01*
X1305731Y1114605D01*
X1303607Y1114920D01*
X1301525Y1115442D01*
X1299504Y1116165D01*
X1297563Y1117083D01*
X1295722Y1118187D01*
X1293998Y1119465D01*
X1292407Y1120907D01*
X1290965Y1122498D01*
X1289687Y1124222D01*
X1288583Y1126063D01*
X1287665Y1128004D01*
X1286942Y1130025D01*
X1286420Y1132107D01*
X1286105Y1134231D01*
X1286000Y1136375D01*
X1286000Y1180125D01*
X1286105Y1182269D01*
X1286420Y1184393D01*
X1286942Y1186475D01*
X1287665Y1188496D01*
X1288583Y1190437D01*
X1289687Y1192278D01*
X1290965Y1194002D01*
X1292407Y1195593D01*
X1293998Y1197035D01*
X1295722Y1198313D01*
X1297563Y1199417D01*
X1299504Y1200335D01*
X1301525Y1201058D01*
X1303607Y1201580D01*
X1305731Y1201895D01*
X1307875Y1202000D01*
X1359125Y1202000D01*
X1361269Y1201895D01*
G37*
G36*
X382500Y582940D02*
G01*
X384953Y582940D01*
X389836Y582459D01*
X394649Y581502D01*
X399344Y580077D01*
X403878Y578200D01*
X408205Y575886D01*
X412285Y573160D01*
X416078Y570048D01*
X419548Y566578D01*
X422660Y562785D01*
X425386Y558705D01*
X427699Y554378D01*
X429577Y549845D01*
X431002Y545149D01*
X431959Y540337D01*
X432440Y535453D01*
X432440Y533000D01*
X432500Y533000D01*
X432500Y483000D01*
X432440Y483000D01*
X432440Y480547D01*
X431959Y475663D01*
X431002Y470851D01*
X429577Y466155D01*
X427699Y461622D01*
X425386Y457295D01*
X422660Y453215D01*
X419548Y449422D01*
X416078Y445952D01*
X412285Y442840D01*
X408205Y440114D01*
X403878Y437800D01*
X399344Y435923D01*
X394649Y434498D01*
X389836Y433541D01*
X384953Y433060D01*
X382500Y433060D01*
X382500Y433000D01*
X332500Y433000D01*
X332500Y583000D01*
X382500Y583000D01*
X382500Y582940D01*
G37*
G36*
X302500Y433000D02*
G01*
X252500Y433000D01*
X252500Y433060D01*
X250047Y433060D01*
X245163Y433541D01*
X240351Y434498D01*
X235655Y435923D01*
X231122Y437800D01*
X226795Y440114D01*
X222715Y442840D01*
X218922Y445952D01*
X215452Y449422D01*
X212340Y453215D01*
X209614Y457295D01*
X207300Y461622D01*
X205423Y466155D01*
X203998Y470851D01*
X203041Y475663D01*
X202560Y480547D01*
X202560Y483000D01*
X202500Y483000D01*
X202500Y533000D01*
X202560Y533000D01*
X202560Y535453D01*
X203041Y540337D01*
X203998Y545149D01*
X205423Y549845D01*
X207300Y554378D01*
X209614Y558705D01*
X212340Y562785D01*
X215452Y566578D01*
X218922Y570048D01*
X222715Y573160D01*
X226795Y575886D01*
X231122Y578200D01*
X235655Y580077D01*
X240351Y581502D01*
X245163Y582459D01*
X250047Y582940D01*
X252500Y582940D01*
X252500Y583000D01*
X302500Y583000D01*
X302500Y433000D01*
G37*
G36*
X1339950Y260880D02*
G01*
X1342377Y260520D01*
X1344757Y259923D01*
X1347067Y259097D01*
X1349285Y258048D01*
X1351389Y256787D01*
X1353360Y255325D01*
X1355178Y253678D01*
X1356825Y251860D01*
X1358287Y249889D01*
X1359548Y247785D01*
X1360597Y245567D01*
X1361424Y243257D01*
X1362020Y240877D01*
X1362380Y238450D01*
X1362500Y236000D01*
X1362500Y-54000D01*
X1362380Y-56450D01*
X1362020Y-58877D01*
X1361424Y-61257D01*
X1360597Y-63567D01*
X1359548Y-65785D01*
X1358287Y-67889D01*
X1356825Y-69860D01*
X1355178Y-71678D01*
X1353360Y-73325D01*
X1351389Y-74787D01*
X1349285Y-76048D01*
X1347067Y-77097D01*
X1344757Y-77924D01*
X1342377Y-78520D01*
X1339950Y-78880D01*
X1337500Y-79000D01*
X1237500Y-79000D01*
X1235050Y-78880D01*
X1232623Y-78520D01*
X1230243Y-77924D01*
X1227933Y-77097D01*
X1225715Y-76048D01*
X1223611Y-74787D01*
X1221640Y-73325D01*
X1219822Y-71678D01*
X1218175Y-69860D01*
X1216713Y-67889D01*
X1215452Y-65785D01*
X1214403Y-63567D01*
X1213577Y-61257D01*
X1212980Y-58877D01*
X1212620Y-56450D01*
X1212500Y-54000D01*
X1212500Y236000D01*
X1212620Y238450D01*
X1212980Y240877D01*
X1213577Y243257D01*
X1214403Y245567D01*
X1215452Y247785D01*
X1216713Y249889D01*
X1218175Y251860D01*
X1219822Y253678D01*
X1221640Y255325D01*
X1223611Y256787D01*
X1225715Y258048D01*
X1227933Y259097D01*
X1230243Y259923D01*
X1232623Y260520D01*
X1235050Y260880D01*
X1237500Y261000D01*
X1337500Y261000D01*
X1339950Y260880D01*
G37*
G36*
X669950Y260880D02*
G01*
X672377Y260520D01*
X674757Y259923D01*
X677067Y259097D01*
X679285Y258048D01*
X681389Y256787D01*
X683360Y255325D01*
X685178Y253678D01*
X686825Y251860D01*
X688287Y249889D01*
X689548Y247785D01*
X690597Y245567D01*
X691424Y243257D01*
X692020Y240877D01*
X692380Y238450D01*
X692500Y236000D01*
X692500Y-54000D01*
X692380Y-56450D01*
X692020Y-58877D01*
X691424Y-61257D01*
X690597Y-63567D01*
X689548Y-65785D01*
X688287Y-67889D01*
X686825Y-69860D01*
X685178Y-71678D01*
X683360Y-73325D01*
X681389Y-74787D01*
X679285Y-76048D01*
X677067Y-77097D01*
X674757Y-77924D01*
X672377Y-78520D01*
X669950Y-78880D01*
X667500Y-79000D01*
X567500Y-79000D01*
X565050Y-78880D01*
X562623Y-78520D01*
X560243Y-77924D01*
X557933Y-77097D01*
X555715Y-76048D01*
X553611Y-74787D01*
X551640Y-73325D01*
X549822Y-71678D01*
X548175Y-69860D01*
X546713Y-67889D01*
X545452Y-65785D01*
X544403Y-63567D01*
X543577Y-61257D01*
X542980Y-58877D01*
X542620Y-56450D01*
X542500Y-54000D01*
X542500Y236000D01*
X542620Y238450D01*
X542980Y240877D01*
X543577Y243257D01*
X544403Y245567D01*
X545452Y247785D01*
X546713Y249889D01*
X548175Y251860D01*
X549822Y253678D01*
X551640Y255325D01*
X553611Y256787D01*
X555715Y258048D01*
X557933Y259097D01*
X560243Y259923D01*
X562623Y260520D01*
X565050Y260880D01*
X567500Y261000D01*
X667500Y261000D01*
X669950Y260880D01*
G37*
G36*
X1079950Y840880D02*
G01*
X1082377Y840520D01*
X1084757Y839923D01*
X1087067Y839097D01*
X1089285Y838048D01*
X1091389Y836787D01*
X1093360Y835325D01*
X1095178Y833678D01*
X1096825Y831860D01*
X1098287Y829889D01*
X1099548Y827785D01*
X1100597Y825567D01*
X1101424Y823257D01*
X1102020Y820877D01*
X1102380Y818450D01*
X1102500Y816000D01*
X1102500Y516000D01*
X1102380Y513550D01*
X1102020Y511123D01*
X1101424Y508743D01*
X1100597Y506433D01*
X1099548Y504215D01*
X1098287Y502111D01*
X1096825Y500140D01*
X1095178Y498322D01*
X1093360Y496675D01*
X1091389Y495213D01*
X1089285Y493952D01*
X1087067Y492903D01*
X1084757Y492076D01*
X1082377Y491480D01*
X1079950Y491120D01*
X1077500Y491000D01*
X1027500Y491000D01*
X1025050Y491120D01*
X1022623Y491480D01*
X1020243Y492076D01*
X1017933Y492903D01*
X1015715Y493952D01*
X1013611Y495213D01*
X1011640Y496675D01*
X1009822Y498322D01*
X1008175Y500140D01*
X1006713Y502111D01*
X1005452Y504215D01*
X1004403Y506433D01*
X1003576Y508743D01*
X1002980Y511123D01*
X1002620Y513550D01*
X1002500Y516000D01*
X1002500Y816000D01*
X1002620Y818450D01*
X1002980Y820877D01*
X1003576Y823257D01*
X1004403Y825567D01*
X1005452Y827785D01*
X1006713Y829889D01*
X1008175Y831860D01*
X1009822Y833678D01*
X1011640Y835325D01*
X1013611Y836787D01*
X1015715Y838048D01*
X1017933Y839097D01*
X1020243Y839923D01*
X1022623Y840520D01*
X1025050Y840880D01*
X1027500Y841000D01*
X1077500Y841000D01*
X1079950Y840880D01*
G37*
G36*
X879950Y840880D02*
G01*
X882377Y840520D01*
X884757Y839923D01*
X887067Y839097D01*
X889285Y838048D01*
X891389Y836787D01*
X893360Y835325D01*
X895178Y833678D01*
X896825Y831860D01*
X898287Y829889D01*
X899548Y827785D01*
X900597Y825567D01*
X901423Y823257D01*
X902020Y820877D01*
X902380Y818450D01*
X902500Y816000D01*
X902500Y516000D01*
X902380Y513550D01*
X902020Y511123D01*
X901423Y508743D01*
X900597Y506433D01*
X899548Y504215D01*
X898287Y502111D01*
X896825Y500140D01*
X895178Y498322D01*
X893360Y496675D01*
X891389Y495213D01*
X889285Y493952D01*
X887067Y492903D01*
X884757Y492076D01*
X882377Y491480D01*
X879950Y491120D01*
X877500Y491000D01*
X827500Y491000D01*
X825050Y491120D01*
X822623Y491480D01*
X820243Y492076D01*
X817933Y492903D01*
X815715Y493952D01*
X813611Y495213D01*
X811640Y496675D01*
X809822Y498322D01*
X808175Y500140D01*
X806713Y502111D01*
X805452Y504215D01*
X804403Y506433D01*
X803576Y508743D01*
X802980Y511123D01*
X802620Y513550D01*
X802500Y516000D01*
X802500Y816000D01*
X802620Y818450D01*
X802980Y820877D01*
X803576Y823257D01*
X804403Y825567D01*
X805452Y827785D01*
X806713Y829889D01*
X808175Y831860D01*
X809822Y833678D01*
X811640Y835325D01*
X813611Y836787D01*
X815715Y838048D01*
X817933Y839097D01*
X820243Y839923D01*
X822623Y840520D01*
X825050Y840880D01*
X827500Y841000D01*
X877500Y841000D01*
X879950Y840880D01*
G37*
G36*
X726269Y1201895D02*
G01*
X728393Y1201580D01*
X730475Y1201058D01*
X732496Y1200335D01*
X734437Y1199417D01*
X736278Y1198313D01*
X738002Y1197035D01*
X739593Y1195593D01*
X741035Y1194002D01*
X742313Y1192278D01*
X743417Y1190437D01*
X744335Y1188496D01*
X745058Y1186475D01*
X745580Y1184393D01*
X745895Y1182269D01*
X746000Y1180125D01*
X746000Y1136375D01*
X745895Y1134231D01*
X745580Y1132107D01*
X745058Y1130025D01*
X744335Y1128004D01*
X743417Y1126063D01*
X742313Y1124222D01*
X741035Y1122498D01*
X739593Y1120907D01*
X738002Y1119465D01*
X736278Y1118187D01*
X734437Y1117083D01*
X732496Y1116165D01*
X730475Y1115442D01*
X728393Y1114920D01*
X726269Y1114605D01*
X724125Y1114500D01*
X672875Y1114500D01*
X670731Y1114605D01*
X668607Y1114920D01*
X666525Y1115442D01*
X664504Y1116165D01*
X662563Y1117083D01*
X660722Y1118187D01*
X658998Y1119465D01*
X657407Y1120907D01*
X655965Y1122498D01*
X654687Y1124222D01*
X653583Y1126063D01*
X652665Y1128004D01*
X651942Y1130025D01*
X651420Y1132107D01*
X651105Y1134231D01*
X651000Y1136375D01*
X651000Y1180125D01*
X651105Y1182269D01*
X651420Y1184393D01*
X651942Y1186475D01*
X652665Y1188496D01*
X653583Y1190437D01*
X654687Y1192278D01*
X655965Y1194002D01*
X657407Y1195593D01*
X658998Y1197035D01*
X660722Y1198313D01*
X662563Y1199417D01*
X664504Y1200335D01*
X666525Y1201058D01*
X668607Y1201580D01*
X670731Y1201895D01*
X672875Y1202000D01*
X724125Y1202000D01*
X726269Y1201895D01*
G37*
G36*
X726269Y1044395D02*
G01*
X728393Y1044080D01*
X730475Y1043558D01*
X732496Y1042835D01*
X734437Y1041917D01*
X736278Y1040813D01*
X738002Y1039535D01*
X739593Y1038093D01*
X741035Y1036502D01*
X742313Y1034778D01*
X743417Y1032937D01*
X744335Y1030996D01*
X745058Y1028975D01*
X745580Y1026893D01*
X745895Y1024769D01*
X746000Y1022625D01*
X746000Y978875D01*
X745895Y976731D01*
X745580Y974607D01*
X745058Y972525D01*
X744335Y970504D01*
X743417Y968563D01*
X742313Y966722D01*
X741035Y964998D01*
X739593Y963407D01*
X738002Y961965D01*
X736278Y960687D01*
X734437Y959583D01*
X732496Y958665D01*
X730475Y957942D01*
X728393Y957420D01*
X726269Y957105D01*
X724125Y957000D01*
X672875Y957000D01*
X670731Y957105D01*
X668607Y957420D01*
X666525Y957942D01*
X664504Y958665D01*
X662563Y959583D01*
X660722Y960687D01*
X658998Y961965D01*
X657407Y963407D01*
X655965Y964998D01*
X654687Y966722D01*
X653583Y968563D01*
X652665Y970504D01*
X651942Y972525D01*
X651420Y974607D01*
X651105Y976731D01*
X651000Y978875D01*
X651000Y1022625D01*
X651105Y1024769D01*
X651420Y1026893D01*
X651942Y1028975D01*
X652665Y1030996D01*
X653583Y1032937D01*
X654687Y1034778D01*
X655965Y1036502D01*
X657407Y1038093D01*
X658998Y1039535D01*
X660722Y1040813D01*
X662563Y1041917D01*
X664504Y1042835D01*
X666525Y1043558D01*
X668607Y1044080D01*
X670731Y1044395D01*
X672875Y1044500D01*
X724125Y1044500D01*
X726269Y1044395D01*
G37*
D16*
X317500Y27000D03*
X222500Y227000D03*
X412500Y227000D03*
D17*
X1270000Y2540000D03*
X1016000Y2540000D03*
X762000Y2540000D03*
X508000Y2540000D03*
D18*
X254000Y2540000D03*
D19*
X1126000Y1174500D03*
X1126000Y984500D03*
X906000Y984500D03*
X906000Y1079500D03*
X906000Y1174500D03*
D14*
G36*
X1051076Y1755000D02*
G01*
X1143000Y1846924D01*
X1234924Y1755000D01*
X1143000Y1663076D01*
X1051076Y1755000D01*
G37*
G36*
X1051076Y2055000D02*
G01*
X1143000Y2146924D01*
X1234924Y2055000D01*
X1143000Y1963076D01*
X1051076Y2055000D01*
G37*
G36*
X326269Y1571395D02*
G01*
X328393Y1571080D01*
X330475Y1570558D01*
X332496Y1569835D01*
X334437Y1568917D01*
X336278Y1567813D01*
X338002Y1566535D01*
X339593Y1565093D01*
X341035Y1563502D01*
X342313Y1561778D01*
X343417Y1559937D01*
X344335Y1557996D01*
X345058Y1555975D01*
X345580Y1553893D01*
X345895Y1551769D01*
X346000Y1549625D01*
X346000Y1498375D01*
X345895Y1496231D01*
X345580Y1494107D01*
X345058Y1492025D01*
X344335Y1490004D01*
X343417Y1488063D01*
X342313Y1486222D01*
X341035Y1484498D01*
X339593Y1482907D01*
X338002Y1481465D01*
X336278Y1480187D01*
X334437Y1479083D01*
X332496Y1478165D01*
X330475Y1477442D01*
X328393Y1476920D01*
X326269Y1476605D01*
X324125Y1476500D01*
X280375Y1476500D01*
X278231Y1476605D01*
X276107Y1476920D01*
X274025Y1477442D01*
X272004Y1478165D01*
X270063Y1479083D01*
X268222Y1480187D01*
X266498Y1481465D01*
X264907Y1482907D01*
X263465Y1484498D01*
X262187Y1486222D01*
X261083Y1488063D01*
X260165Y1490004D01*
X259442Y1492025D01*
X258920Y1494107D01*
X258605Y1496231D01*
X258500Y1498375D01*
X258500Y1549625D01*
X258605Y1551769D01*
X258920Y1553893D01*
X259442Y1555975D01*
X260165Y1557996D01*
X261083Y1559937D01*
X262187Y1561778D01*
X263465Y1563502D01*
X264907Y1565093D01*
X266498Y1566535D01*
X268222Y1567813D01*
X270063Y1568917D01*
X272004Y1569835D01*
X274025Y1570558D01*
X276107Y1571080D01*
X278231Y1571395D01*
X280375Y1571500D01*
X324125Y1571500D01*
X326269Y1571395D01*
G37*
G36*
X483769Y1571395D02*
G01*
X485893Y1571080D01*
X487975Y1570558D01*
X489996Y1569835D01*
X491937Y1568917D01*
X493778Y1567813D01*
X495502Y1566535D01*
X497093Y1565093D01*
X498535Y1563502D01*
X499813Y1561778D01*
X500917Y1559937D01*
X501835Y1557996D01*
X502558Y1555975D01*
X503080Y1553893D01*
X503395Y1551769D01*
X503500Y1549625D01*
X503500Y1498375D01*
X503395Y1496231D01*
X503080Y1494107D01*
X502558Y1492025D01*
X501835Y1490004D01*
X500917Y1488063D01*
X499813Y1486222D01*
X498535Y1484498D01*
X497093Y1482907D01*
X495502Y1481465D01*
X493778Y1480187D01*
X491937Y1479083D01*
X489996Y1478165D01*
X487975Y1477442D01*
X485893Y1476920D01*
X483769Y1476605D01*
X481625Y1476500D01*
X437875Y1476500D01*
X435731Y1476605D01*
X433607Y1476920D01*
X431525Y1477442D01*
X429504Y1478165D01*
X427563Y1479083D01*
X425722Y1480187D01*
X423998Y1481465D01*
X422407Y1482907D01*
X420965Y1484498D01*
X419687Y1486222D01*
X418583Y1488063D01*
X417665Y1490004D01*
X416942Y1492025D01*
X416420Y1494107D01*
X416105Y1496231D01*
X416000Y1498375D01*
X416000Y1549625D01*
X416105Y1551769D01*
X416420Y1553893D01*
X416942Y1555975D01*
X417665Y1557996D01*
X418583Y1559937D01*
X419687Y1561778D01*
X420965Y1563502D01*
X422407Y1565093D01*
X423998Y1566535D01*
X425722Y1567813D01*
X427563Y1568917D01*
X429504Y1569835D01*
X431525Y1570558D01*
X433607Y1571080D01*
X435731Y1571395D01*
X437875Y1571500D01*
X481625Y1571500D01*
X483769Y1571395D01*
G37*
G36*
X1361269Y1582895D02*
G01*
X1363393Y1582580D01*
X1365475Y1582058D01*
X1367496Y1581335D01*
X1369437Y1580417D01*
X1371278Y1579313D01*
X1373002Y1578035D01*
X1374593Y1576593D01*
X1376035Y1575002D01*
X1377313Y1573278D01*
X1378417Y1571437D01*
X1379335Y1569496D01*
X1380058Y1567475D01*
X1380580Y1565393D01*
X1380895Y1563269D01*
X1381000Y1561125D01*
X1381000Y1517375D01*
X1380895Y1515231D01*
X1380580Y1513107D01*
X1380058Y1511025D01*
X1379335Y1509004D01*
X1378417Y1507063D01*
X1377313Y1505222D01*
X1376035Y1503498D01*
X1374593Y1501907D01*
X1373002Y1500465D01*
X1371278Y1499187D01*
X1369437Y1498083D01*
X1367496Y1497165D01*
X1365475Y1496442D01*
X1363393Y1495920D01*
X1361269Y1495605D01*
X1359125Y1495500D01*
X1307875Y1495500D01*
X1305731Y1495605D01*
X1303607Y1495920D01*
X1301525Y1496442D01*
X1299504Y1497165D01*
X1297563Y1498083D01*
X1295722Y1499187D01*
X1293998Y1500465D01*
X1292407Y1501907D01*
X1290965Y1503498D01*
X1289687Y1505222D01*
X1288583Y1507063D01*
X1287665Y1509004D01*
X1286942Y1511025D01*
X1286420Y1513107D01*
X1286105Y1515231D01*
X1286000Y1517375D01*
X1286000Y1561125D01*
X1286105Y1563269D01*
X1286420Y1565393D01*
X1286942Y1567475D01*
X1287665Y1569496D01*
X1288583Y1571437D01*
X1289687Y1573278D01*
X1290965Y1575002D01*
X1292407Y1576593D01*
X1293998Y1578035D01*
X1295722Y1579313D01*
X1297563Y1580417D01*
X1299504Y1581335D01*
X1301525Y1582058D01*
X1303607Y1582580D01*
X1305731Y1582895D01*
X1307875Y1583000D01*
X1359125Y1583000D01*
X1361269Y1582895D01*
G37*
G36*
X1361269Y1425395D02*
G01*
X1363393Y1425080D01*
X1365475Y1424558D01*
X1367496Y1423835D01*
X1369437Y1422917D01*
X1371278Y1421813D01*
X1373002Y1420535D01*
X1374593Y1419093D01*
X1376035Y1417502D01*
X1377313Y1415778D01*
X1378417Y1413937D01*
X1379335Y1411996D01*
X1380058Y1409975D01*
X1380580Y1407893D01*
X1380895Y1405769D01*
X1381000Y1403625D01*
X1381000Y1359875D01*
X1380895Y1357731D01*
X1380580Y1355607D01*
X1380058Y1353525D01*
X1379335Y1351504D01*
X1378417Y1349563D01*
X1377313Y1347722D01*
X1376035Y1345998D01*
X1374593Y1344407D01*
X1373002Y1342965D01*
X1371278Y1341687D01*
X1369437Y1340583D01*
X1367496Y1339665D01*
X1365475Y1338942D01*
X1363393Y1338420D01*
X1361269Y1338105D01*
X1359125Y1338000D01*
X1307875Y1338000D01*
X1305731Y1338105D01*
X1303607Y1338420D01*
X1301525Y1338942D01*
X1299504Y1339665D01*
X1297563Y1340583D01*
X1295722Y1341687D01*
X1293998Y1342965D01*
X1292407Y1344407D01*
X1290965Y1345998D01*
X1289687Y1347722D01*
X1288583Y1349563D01*
X1287665Y1351504D01*
X1286942Y1353525D01*
X1286420Y1355607D01*
X1286105Y1357731D01*
X1286000Y1359875D01*
X1286000Y1403625D01*
X1286105Y1405769D01*
X1286420Y1407893D01*
X1286942Y1409975D01*
X1287665Y1411996D01*
X1288583Y1413937D01*
X1289687Y1415778D01*
X1290965Y1417502D01*
X1292407Y1419093D01*
X1293998Y1420535D01*
X1295722Y1421813D01*
X1297563Y1422917D01*
X1299504Y1423835D01*
X1301525Y1424558D01*
X1303607Y1425080D01*
X1305731Y1425395D01*
X1307875Y1425500D01*
X1359125Y1425500D01*
X1361269Y1425395D01*
G37*
G36*
X267900Y1195000D02*
G01*
X212900Y1195000D01*
X212900Y1195060D01*
X210447Y1195060D01*
X205563Y1195541D01*
X200751Y1196498D01*
X196055Y1197923D01*
X191522Y1199801D01*
X187195Y1202114D01*
X183115Y1204840D01*
X179322Y1207952D01*
X175852Y1211422D01*
X172740Y1215215D01*
X170014Y1219295D01*
X167701Y1223622D01*
X165823Y1228156D01*
X164398Y1232851D01*
X163441Y1237664D01*
X162960Y1242547D01*
X162960Y1245000D01*
X162900Y1245000D01*
X162900Y1295000D01*
X162960Y1295000D01*
X162960Y1297453D01*
X163441Y1302337D01*
X164398Y1307149D01*
X165823Y1311845D01*
X167701Y1316378D01*
X170014Y1320705D01*
X172740Y1324785D01*
X175852Y1328578D01*
X179322Y1332048D01*
X183115Y1335160D01*
X187195Y1337886D01*
X191522Y1340200D01*
X196055Y1342077D01*
X200751Y1343502D01*
X205563Y1344459D01*
X210447Y1344940D01*
X212900Y1344940D01*
X212900Y1345000D01*
X267900Y1345000D01*
X267900Y1195000D01*
G37*
D20*
X342900Y1270000D03*
D14*
G36*
X472900Y1344940D02*
G01*
X475353Y1344940D01*
X480236Y1344459D01*
X485049Y1343502D01*
X489744Y1342077D01*
X494278Y1340200D01*
X498605Y1337886D01*
X502685Y1335160D01*
X506478Y1332048D01*
X509948Y1328578D01*
X513060Y1324785D01*
X515786Y1320705D01*
X518099Y1316378D01*
X519977Y1311845D01*
X521402Y1307149D01*
X522359Y1302337D01*
X522840Y1297453D01*
X522840Y1295000D01*
X522900Y1295000D01*
X522900Y1245000D01*
X522840Y1245000D01*
X522840Y1242547D01*
X522359Y1237664D01*
X521402Y1232851D01*
X519977Y1228156D01*
X518099Y1223622D01*
X515786Y1219295D01*
X513060Y1215215D01*
X509948Y1211422D01*
X506478Y1207952D01*
X502685Y1204840D01*
X498605Y1202114D01*
X494278Y1199801D01*
X489744Y1197923D01*
X485049Y1196498D01*
X480236Y1195541D01*
X475353Y1195060D01*
X472900Y1195060D01*
X472900Y1195000D01*
X417900Y1195000D01*
X417900Y1345000D01*
X472900Y1345000D01*
X472900Y1344940D01*
G37*
G36*
X417900Y1091000D02*
G01*
X472900Y1091000D01*
X472900Y1090940D01*
X475353Y1090940D01*
X480236Y1090459D01*
X485049Y1089502D01*
X489744Y1088077D01*
X494278Y1086200D01*
X498605Y1083886D01*
X502685Y1081160D01*
X506478Y1078048D01*
X509948Y1074578D01*
X513060Y1070785D01*
X515786Y1066705D01*
X518099Y1062378D01*
X519977Y1057845D01*
X521402Y1053149D01*
X522359Y1048336D01*
X522840Y1043453D01*
X522840Y1041000D01*
X522900Y1041000D01*
X522900Y991000D01*
X522840Y991000D01*
X522840Y988547D01*
X522359Y983663D01*
X521402Y978851D01*
X519977Y974155D01*
X518099Y969622D01*
X515786Y965295D01*
X513060Y961215D01*
X509948Y957422D01*
X506478Y953952D01*
X502685Y950840D01*
X498605Y948114D01*
X494278Y945800D01*
X489744Y943923D01*
X485049Y942498D01*
X480236Y941541D01*
X475353Y941060D01*
X472900Y941060D01*
X472900Y941000D01*
X417900Y941000D01*
X417900Y1091000D01*
G37*
D20*
X342900Y1016000D03*
D14*
G36*
X212900Y941060D02*
G01*
X210447Y941060D01*
X205563Y941541D01*
X200751Y942498D01*
X196055Y943923D01*
X191522Y945800D01*
X187195Y948114D01*
X183115Y950840D01*
X179322Y953952D01*
X175852Y957422D01*
X172740Y961215D01*
X170014Y965295D01*
X167701Y969622D01*
X165823Y974155D01*
X164398Y978851D01*
X163441Y983663D01*
X162960Y988547D01*
X162960Y991000D01*
X162900Y991000D01*
X162900Y1041000D01*
X162960Y1041000D01*
X162960Y1043453D01*
X163441Y1048336D01*
X164398Y1053149D01*
X165823Y1057845D01*
X167701Y1062378D01*
X170014Y1066705D01*
X172740Y1070785D01*
X175852Y1074578D01*
X179322Y1078048D01*
X183115Y1081160D01*
X187195Y1083886D01*
X191522Y1086200D01*
X196055Y1088077D01*
X200751Y1089502D01*
X205563Y1090459D01*
X210447Y1090940D01*
X212900Y1090940D01*
X212900Y1091000D01*
X267900Y1091000D01*
X267900Y941000D01*
X212900Y941000D01*
X212900Y941060D01*
G37*
D21*
X0Y0D03*
X0Y254000D03*
X0Y508000D03*
X1524000Y2794000D03*
X0Y762000D03*
X1524000Y2540000D03*
X0Y1016000D03*
X1524000Y2286000D03*
X0Y1270000D03*
X1524000Y2032000D03*
X0Y1524000D03*
X1524000Y1778000D03*
X0Y1778000D03*
X1524000Y1524000D03*
X0Y2032000D03*
X1524000Y1270000D03*
X0Y2286000D03*
X1524000Y1016000D03*
X0Y2540000D03*
X1524000Y762000D03*
X0Y2794000D03*
X1524000Y508000D03*
X1524000Y254000D03*
D22*
X1524000Y0D03*
M02*
