%TF.GenerationSoftware,KiCad,Pcbnew,5.1.6+dfsg1-1~bpo10+1*%
%TF.CreationDate,Date%
%TF.ProjectId,ProMicro_ZPM,50726f4d-6963-4726-9f5f-5a504d2e6b69,v1.0*%
%TF.SameCoordinates,Original*%
%TF.FileFunction,Soldermask,Bot*%
%TF.FilePolarity,Negative*%
%FSLAX45Y45*%
G04 Gerber Fmt 4.5, Leading zero omitted, Abs format (unit mm)*
G04 Created by KiCad*
%MOMM*%
%LPD*%
G01*
G04 APERTURE LIST*
%TA.AperFunction,Profile*%
%ADD10C,0.100000*%
%TD*%
%ADD11C,2.500000*%
%ADD12C,2.100000*%
%ADD13R,2.100000X2.100000*%
%ADD14O,1.600000X1.600000*%
%ADD15R,1.600000X1.600000*%
G04 APERTURE END LIST*
D10*
X-63500Y-127000D02*
G75*
G02*
X-127000Y-63500I0J63500D01*
G01*
X1651000Y-63500D02*
G75*
G02*
X1587500Y-127000I-63500J0D01*
G01*
X1587500Y2921000D02*
G75*
G02*
X1651000Y2857500I0J-63500D01*
G01*
X-127000Y2857500D02*
G75*
G02*
X-63500Y2921000I63500J0D01*
G01*
X-127000Y-63500D02*
X-127000Y2857500D01*
X1587500Y-127000D02*
X-63500Y-127000D01*
X1651000Y2857500D02*
X1651000Y-63500D01*
X-63500Y2921000D02*
X1587500Y2921000D01*
D11*
X254000Y1905000D03*
D12*
X1270000Y2540000D03*
X1016000Y2540000D03*
X762000Y2540000D03*
X508000Y2540000D03*
D13*
X254000Y2540000D03*
D14*
X0Y0D03*
X0Y254000D03*
X0Y508000D03*
X1524000Y2794000D03*
X0Y762000D03*
X1524000Y2540000D03*
X0Y1016000D03*
X1524000Y2286000D03*
X0Y1270000D03*
X1524000Y2032000D03*
X0Y1524000D03*
X1524000Y1778000D03*
X0Y1778000D03*
X1524000Y1524000D03*
X0Y2032000D03*
X1524000Y1270000D03*
X0Y2286000D03*
X1524000Y1016000D03*
X0Y2540000D03*
X1524000Y762000D03*
X0Y2794000D03*
X1524000Y508000D03*
X1524000Y254000D03*
D15*
X1524000Y0D03*
M02*
