G04 #@! TF.GenerationSoftware,KiCad,Pcbnew,5.1.5+dfsg1-2build2*
G04 #@! TF.CreationDate,2021-03-15T22:19:43+01:00*
G04 #@! TF.ProjectId,ProMicro_ANA,50726f4d-6963-4726-9f5f-414e412e6b69,v1.2*
G04 #@! TF.SameCoordinates,Original*
G04 #@! TF.FileFunction,Soldermask,Bot*
G04 #@! TF.FilePolarity,Negative*
%FSLAX46Y46*%
G04 Gerber Fmt 4.6, Leading zero omitted, Abs format (unit mm)*
G04 Created by KiCad*
%MOMM*%
%LPD*%
G04 APERTURE LIST*
%ADD10C,0.100000*%
%ADD11R,2.100000X2.100000*%
%ADD12C,2.100000*%
%ADD13R,1.500000X3.600000*%
%ADD14R,1.060000X0.650000*%
%ADD15C,2.200000*%
%ADD16R,2.200000X2.200000*%
G04 APERTURE END LIST*
D10*
G36*
X94630000Y-87515602D02*
G01*
X94654534Y-87515602D01*
X94703365Y-87520412D01*
X94751490Y-87529984D01*
X94798445Y-87544228D01*
X94843778Y-87563005D01*
X94887051Y-87586136D01*
X94927850Y-87613396D01*
X94965779Y-87644524D01*
X95000476Y-87679221D01*
X95031604Y-87717150D01*
X95058864Y-87757949D01*
X95081995Y-87801222D01*
X95100772Y-87846555D01*
X95115016Y-87893510D01*
X95124588Y-87941635D01*
X95129398Y-87990466D01*
X95129398Y-88015000D01*
X95130000Y-88015000D01*
X95130000Y-88515000D01*
X95129398Y-88515000D01*
X95129398Y-88539534D01*
X95124588Y-88588365D01*
X95115016Y-88636490D01*
X95100772Y-88683445D01*
X95081995Y-88728778D01*
X95058864Y-88772051D01*
X95031604Y-88812850D01*
X95000476Y-88850779D01*
X94965779Y-88885476D01*
X94927850Y-88916604D01*
X94887051Y-88943864D01*
X94843778Y-88966995D01*
X94798445Y-88985772D01*
X94751490Y-89000016D01*
X94703365Y-89009588D01*
X94654534Y-89014398D01*
X94630000Y-89014398D01*
X94630000Y-89015000D01*
X94130000Y-89015000D01*
X94130000Y-87515000D01*
X94630000Y-87515000D01*
X94630000Y-87515602D01*
G37*
G36*
X93830000Y-89015000D02*
G01*
X93330000Y-89015000D01*
X93330000Y-89014398D01*
X93305466Y-89014398D01*
X93256635Y-89009588D01*
X93208510Y-89000016D01*
X93161555Y-88985772D01*
X93116222Y-88966995D01*
X93072949Y-88943864D01*
X93032150Y-88916604D01*
X92994221Y-88885476D01*
X92959524Y-88850779D01*
X92928396Y-88812850D01*
X92901136Y-88772051D01*
X92878005Y-88728778D01*
X92859228Y-88683445D01*
X92844984Y-88636490D01*
X92835412Y-88588365D01*
X92830602Y-88539534D01*
X92830602Y-88515000D01*
X92830000Y-88515000D01*
X92830000Y-88015000D01*
X92830602Y-88015000D01*
X92830602Y-87990466D01*
X92835412Y-87941635D01*
X92844984Y-87893510D01*
X92859228Y-87846555D01*
X92878005Y-87801222D01*
X92901136Y-87757949D01*
X92928396Y-87717150D01*
X92959524Y-87679221D01*
X92994221Y-87644524D01*
X93032150Y-87613396D01*
X93072949Y-87586136D01*
X93116222Y-87563005D01*
X93161555Y-87544228D01*
X93208510Y-87529984D01*
X93256635Y-87520412D01*
X93305466Y-87515602D01*
X93330000Y-87515602D01*
X93330000Y-87515000D01*
X93830000Y-87515000D01*
X93830000Y-89015000D01*
G37*
G36*
X94630000Y-81165602D02*
G01*
X94654534Y-81165602D01*
X94703365Y-81170412D01*
X94751490Y-81179984D01*
X94798445Y-81194228D01*
X94843778Y-81213005D01*
X94887051Y-81236136D01*
X94927850Y-81263396D01*
X94965779Y-81294524D01*
X95000476Y-81329221D01*
X95031604Y-81367150D01*
X95058864Y-81407949D01*
X95081995Y-81451222D01*
X95100772Y-81496555D01*
X95115016Y-81543510D01*
X95124588Y-81591635D01*
X95129398Y-81640466D01*
X95129398Y-81665000D01*
X95130000Y-81665000D01*
X95130000Y-82165000D01*
X95129398Y-82165000D01*
X95129398Y-82189534D01*
X95124588Y-82238365D01*
X95115016Y-82286490D01*
X95100772Y-82333445D01*
X95081995Y-82378778D01*
X95058864Y-82422051D01*
X95031604Y-82462850D01*
X95000476Y-82500779D01*
X94965779Y-82535476D01*
X94927850Y-82566604D01*
X94887051Y-82593864D01*
X94843778Y-82616995D01*
X94798445Y-82635772D01*
X94751490Y-82650016D01*
X94703365Y-82659588D01*
X94654534Y-82664398D01*
X94630000Y-82664398D01*
X94630000Y-82665000D01*
X94130000Y-82665000D01*
X94130000Y-81165000D01*
X94630000Y-81165000D01*
X94630000Y-81165602D01*
G37*
G36*
X93830000Y-82665000D02*
G01*
X93330000Y-82665000D01*
X93330000Y-82664398D01*
X93305466Y-82664398D01*
X93256635Y-82659588D01*
X93208510Y-82650016D01*
X93161555Y-82635772D01*
X93116222Y-82616995D01*
X93072949Y-82593864D01*
X93032150Y-82566604D01*
X92994221Y-82535476D01*
X92959524Y-82500779D01*
X92928396Y-82462850D01*
X92901136Y-82422051D01*
X92878005Y-82378778D01*
X92859228Y-82333445D01*
X92844984Y-82286490D01*
X92835412Y-82238365D01*
X92830602Y-82189534D01*
X92830602Y-82165000D01*
X92830000Y-82165000D01*
X92830000Y-81665000D01*
X92830602Y-81665000D01*
X92830602Y-81640466D01*
X92835412Y-81591635D01*
X92844984Y-81543510D01*
X92859228Y-81496555D01*
X92878005Y-81451222D01*
X92901136Y-81407949D01*
X92928396Y-81367150D01*
X92959524Y-81329221D01*
X92994221Y-81294524D01*
X93032150Y-81263396D01*
X93072949Y-81236136D01*
X93116222Y-81213005D01*
X93161555Y-81194228D01*
X93208510Y-81179984D01*
X93256635Y-81170412D01*
X93305466Y-81165602D01*
X93330000Y-81165602D01*
X93330000Y-81165000D01*
X93830000Y-81165000D01*
X93830000Y-82665000D01*
G37*
G36*
X99782691Y-88934053D02*
G01*
X99803926Y-88937203D01*
X99824750Y-88942419D01*
X99844962Y-88949651D01*
X99864368Y-88958830D01*
X99882781Y-88969866D01*
X99900024Y-88982654D01*
X99915930Y-88997070D01*
X99930346Y-89012976D01*
X99943134Y-89030219D01*
X99954170Y-89048632D01*
X99963349Y-89068038D01*
X99970581Y-89088250D01*
X99975797Y-89109074D01*
X99978947Y-89130309D01*
X99980000Y-89151750D01*
X99980000Y-89664250D01*
X99978947Y-89685691D01*
X99975797Y-89706926D01*
X99970581Y-89727750D01*
X99963349Y-89747962D01*
X99954170Y-89767368D01*
X99943134Y-89785781D01*
X99930346Y-89803024D01*
X99915930Y-89818930D01*
X99900024Y-89833346D01*
X99882781Y-89846134D01*
X99864368Y-89857170D01*
X99844962Y-89866349D01*
X99824750Y-89873581D01*
X99803926Y-89878797D01*
X99782691Y-89881947D01*
X99761250Y-89883000D01*
X99323750Y-89883000D01*
X99302309Y-89881947D01*
X99281074Y-89878797D01*
X99260250Y-89873581D01*
X99240038Y-89866349D01*
X99220632Y-89857170D01*
X99202219Y-89846134D01*
X99184976Y-89833346D01*
X99169070Y-89818930D01*
X99154654Y-89803024D01*
X99141866Y-89785781D01*
X99130830Y-89767368D01*
X99121651Y-89747962D01*
X99114419Y-89727750D01*
X99109203Y-89706926D01*
X99106053Y-89685691D01*
X99105000Y-89664250D01*
X99105000Y-89151750D01*
X99106053Y-89130309D01*
X99109203Y-89109074D01*
X99114419Y-89088250D01*
X99121651Y-89068038D01*
X99130830Y-89048632D01*
X99141866Y-89030219D01*
X99154654Y-89012976D01*
X99169070Y-88997070D01*
X99184976Y-88982654D01*
X99202219Y-88969866D01*
X99220632Y-88958830D01*
X99240038Y-88949651D01*
X99260250Y-88942419D01*
X99281074Y-88937203D01*
X99302309Y-88934053D01*
X99323750Y-88933000D01*
X99761250Y-88933000D01*
X99782691Y-88934053D01*
G37*
G36*
X101357691Y-88934053D02*
G01*
X101378926Y-88937203D01*
X101399750Y-88942419D01*
X101419962Y-88949651D01*
X101439368Y-88958830D01*
X101457781Y-88969866D01*
X101475024Y-88982654D01*
X101490930Y-88997070D01*
X101505346Y-89012976D01*
X101518134Y-89030219D01*
X101529170Y-89048632D01*
X101538349Y-89068038D01*
X101545581Y-89088250D01*
X101550797Y-89109074D01*
X101553947Y-89130309D01*
X101555000Y-89151750D01*
X101555000Y-89664250D01*
X101553947Y-89685691D01*
X101550797Y-89706926D01*
X101545581Y-89727750D01*
X101538349Y-89747962D01*
X101529170Y-89767368D01*
X101518134Y-89785781D01*
X101505346Y-89803024D01*
X101490930Y-89818930D01*
X101475024Y-89833346D01*
X101457781Y-89846134D01*
X101439368Y-89857170D01*
X101419962Y-89866349D01*
X101399750Y-89873581D01*
X101378926Y-89878797D01*
X101357691Y-89881947D01*
X101336250Y-89883000D01*
X100898750Y-89883000D01*
X100877309Y-89881947D01*
X100856074Y-89878797D01*
X100835250Y-89873581D01*
X100815038Y-89866349D01*
X100795632Y-89857170D01*
X100777219Y-89846134D01*
X100759976Y-89833346D01*
X100744070Y-89818930D01*
X100729654Y-89803024D01*
X100716866Y-89785781D01*
X100705830Y-89767368D01*
X100696651Y-89747962D01*
X100689419Y-89727750D01*
X100684203Y-89706926D01*
X100681053Y-89685691D01*
X100680000Y-89664250D01*
X100680000Y-89151750D01*
X100681053Y-89130309D01*
X100684203Y-89109074D01*
X100689419Y-89088250D01*
X100696651Y-89068038D01*
X100705830Y-89048632D01*
X100716866Y-89030219D01*
X100729654Y-89012976D01*
X100744070Y-88997070D01*
X100759976Y-88982654D01*
X100777219Y-88969866D01*
X100795632Y-88958830D01*
X100815038Y-88949651D01*
X100835250Y-88942419D01*
X100856074Y-88937203D01*
X100877309Y-88934053D01*
X100898750Y-88933000D01*
X101336250Y-88933000D01*
X101357691Y-88934053D01*
G37*
G36*
X99782691Y-82584053D02*
G01*
X99803926Y-82587203D01*
X99824750Y-82592419D01*
X99844962Y-82599651D01*
X99864368Y-82608830D01*
X99882781Y-82619866D01*
X99900024Y-82632654D01*
X99915930Y-82647070D01*
X99930346Y-82662976D01*
X99943134Y-82680219D01*
X99954170Y-82698632D01*
X99963349Y-82718038D01*
X99970581Y-82738250D01*
X99975797Y-82759074D01*
X99978947Y-82780309D01*
X99980000Y-82801750D01*
X99980000Y-83314250D01*
X99978947Y-83335691D01*
X99975797Y-83356926D01*
X99970581Y-83377750D01*
X99963349Y-83397962D01*
X99954170Y-83417368D01*
X99943134Y-83435781D01*
X99930346Y-83453024D01*
X99915930Y-83468930D01*
X99900024Y-83483346D01*
X99882781Y-83496134D01*
X99864368Y-83507170D01*
X99844962Y-83516349D01*
X99824750Y-83523581D01*
X99803926Y-83528797D01*
X99782691Y-83531947D01*
X99761250Y-83533000D01*
X99323750Y-83533000D01*
X99302309Y-83531947D01*
X99281074Y-83528797D01*
X99260250Y-83523581D01*
X99240038Y-83516349D01*
X99220632Y-83507170D01*
X99202219Y-83496134D01*
X99184976Y-83483346D01*
X99169070Y-83468930D01*
X99154654Y-83453024D01*
X99141866Y-83435781D01*
X99130830Y-83417368D01*
X99121651Y-83397962D01*
X99114419Y-83377750D01*
X99109203Y-83356926D01*
X99106053Y-83335691D01*
X99105000Y-83314250D01*
X99105000Y-82801750D01*
X99106053Y-82780309D01*
X99109203Y-82759074D01*
X99114419Y-82738250D01*
X99121651Y-82718038D01*
X99130830Y-82698632D01*
X99141866Y-82680219D01*
X99154654Y-82662976D01*
X99169070Y-82647070D01*
X99184976Y-82632654D01*
X99202219Y-82619866D01*
X99220632Y-82608830D01*
X99240038Y-82599651D01*
X99260250Y-82592419D01*
X99281074Y-82587203D01*
X99302309Y-82584053D01*
X99323750Y-82583000D01*
X99761250Y-82583000D01*
X99782691Y-82584053D01*
G37*
G36*
X101357691Y-82584053D02*
G01*
X101378926Y-82587203D01*
X101399750Y-82592419D01*
X101419962Y-82599651D01*
X101439368Y-82608830D01*
X101457781Y-82619866D01*
X101475024Y-82632654D01*
X101490930Y-82647070D01*
X101505346Y-82662976D01*
X101518134Y-82680219D01*
X101529170Y-82698632D01*
X101538349Y-82718038D01*
X101545581Y-82738250D01*
X101550797Y-82759074D01*
X101553947Y-82780309D01*
X101555000Y-82801750D01*
X101555000Y-83314250D01*
X101553947Y-83335691D01*
X101550797Y-83356926D01*
X101545581Y-83377750D01*
X101538349Y-83397962D01*
X101529170Y-83417368D01*
X101518134Y-83435781D01*
X101505346Y-83453024D01*
X101490930Y-83468930D01*
X101475024Y-83483346D01*
X101457781Y-83496134D01*
X101439368Y-83507170D01*
X101419962Y-83516349D01*
X101399750Y-83523581D01*
X101378926Y-83528797D01*
X101357691Y-83531947D01*
X101336250Y-83533000D01*
X100898750Y-83533000D01*
X100877309Y-83531947D01*
X100856074Y-83528797D01*
X100835250Y-83523581D01*
X100815038Y-83516349D01*
X100795632Y-83507170D01*
X100777219Y-83496134D01*
X100759976Y-83483346D01*
X100744070Y-83468930D01*
X100729654Y-83453024D01*
X100716866Y-83435781D01*
X100705830Y-83417368D01*
X100696651Y-83397962D01*
X100689419Y-83377750D01*
X100684203Y-83356926D01*
X100681053Y-83335691D01*
X100680000Y-83314250D01*
X100680000Y-82801750D01*
X100681053Y-82780309D01*
X100684203Y-82759074D01*
X100689419Y-82738250D01*
X100696651Y-82718038D01*
X100705830Y-82698632D01*
X100716866Y-82680219D01*
X100729654Y-82662976D01*
X100744070Y-82647070D01*
X100759976Y-82632654D01*
X100777219Y-82619866D01*
X100795632Y-82608830D01*
X100815038Y-82599651D01*
X100835250Y-82592419D01*
X100856074Y-82587203D01*
X100877309Y-82584053D01*
X100898750Y-82583000D01*
X101336250Y-82583000D01*
X101357691Y-82584053D01*
G37*
D11*
X82550000Y-76200000D03*
D12*
X85090000Y-76200000D03*
X87630000Y-76200000D03*
X110490000Y-91440000D03*
X90170000Y-76200000D03*
X107950000Y-91440000D03*
X92710000Y-76200000D03*
X105410000Y-91440000D03*
X95250000Y-76200000D03*
X102870000Y-91440000D03*
X97790000Y-76200000D03*
X100330000Y-91440000D03*
X100330000Y-76200000D03*
X97790000Y-91440000D03*
X102870000Y-76200000D03*
X95250000Y-91440000D03*
X105410000Y-76200000D03*
X92710000Y-91440000D03*
X107950000Y-76200000D03*
X90170000Y-91440000D03*
X110490000Y-76200000D03*
X87630000Y-91440000D03*
X85090000Y-91440000D03*
X82550000Y-91440000D03*
D13*
X107060000Y-87884000D03*
X110110000Y-87884000D03*
X107060000Y-81153000D03*
X110110000Y-81153000D03*
D10*
G36*
X105167691Y-88934053D02*
G01*
X105188926Y-88937203D01*
X105209750Y-88942419D01*
X105229962Y-88949651D01*
X105249368Y-88958830D01*
X105267781Y-88969866D01*
X105285024Y-88982654D01*
X105300930Y-88997070D01*
X105315346Y-89012976D01*
X105328134Y-89030219D01*
X105339170Y-89048632D01*
X105348349Y-89068038D01*
X105355581Y-89088250D01*
X105360797Y-89109074D01*
X105363947Y-89130309D01*
X105365000Y-89151750D01*
X105365000Y-89664250D01*
X105363947Y-89685691D01*
X105360797Y-89706926D01*
X105355581Y-89727750D01*
X105348349Y-89747962D01*
X105339170Y-89767368D01*
X105328134Y-89785781D01*
X105315346Y-89803024D01*
X105300930Y-89818930D01*
X105285024Y-89833346D01*
X105267781Y-89846134D01*
X105249368Y-89857170D01*
X105229962Y-89866349D01*
X105209750Y-89873581D01*
X105188926Y-89878797D01*
X105167691Y-89881947D01*
X105146250Y-89883000D01*
X104708750Y-89883000D01*
X104687309Y-89881947D01*
X104666074Y-89878797D01*
X104645250Y-89873581D01*
X104625038Y-89866349D01*
X104605632Y-89857170D01*
X104587219Y-89846134D01*
X104569976Y-89833346D01*
X104554070Y-89818930D01*
X104539654Y-89803024D01*
X104526866Y-89785781D01*
X104515830Y-89767368D01*
X104506651Y-89747962D01*
X104499419Y-89727750D01*
X104494203Y-89706926D01*
X104491053Y-89685691D01*
X104490000Y-89664250D01*
X104490000Y-89151750D01*
X104491053Y-89130309D01*
X104494203Y-89109074D01*
X104499419Y-89088250D01*
X104506651Y-89068038D01*
X104515830Y-89048632D01*
X104526866Y-89030219D01*
X104539654Y-89012976D01*
X104554070Y-88997070D01*
X104569976Y-88982654D01*
X104587219Y-88969866D01*
X104605632Y-88958830D01*
X104625038Y-88949651D01*
X104645250Y-88942419D01*
X104666074Y-88937203D01*
X104687309Y-88934053D01*
X104708750Y-88933000D01*
X105146250Y-88933000D01*
X105167691Y-88934053D01*
G37*
G36*
X103592691Y-88934053D02*
G01*
X103613926Y-88937203D01*
X103634750Y-88942419D01*
X103654962Y-88949651D01*
X103674368Y-88958830D01*
X103692781Y-88969866D01*
X103710024Y-88982654D01*
X103725930Y-88997070D01*
X103740346Y-89012976D01*
X103753134Y-89030219D01*
X103764170Y-89048632D01*
X103773349Y-89068038D01*
X103780581Y-89088250D01*
X103785797Y-89109074D01*
X103788947Y-89130309D01*
X103790000Y-89151750D01*
X103790000Y-89664250D01*
X103788947Y-89685691D01*
X103785797Y-89706926D01*
X103780581Y-89727750D01*
X103773349Y-89747962D01*
X103764170Y-89767368D01*
X103753134Y-89785781D01*
X103740346Y-89803024D01*
X103725930Y-89818930D01*
X103710024Y-89833346D01*
X103692781Y-89846134D01*
X103674368Y-89857170D01*
X103654962Y-89866349D01*
X103634750Y-89873581D01*
X103613926Y-89878797D01*
X103592691Y-89881947D01*
X103571250Y-89883000D01*
X103133750Y-89883000D01*
X103112309Y-89881947D01*
X103091074Y-89878797D01*
X103070250Y-89873581D01*
X103050038Y-89866349D01*
X103030632Y-89857170D01*
X103012219Y-89846134D01*
X102994976Y-89833346D01*
X102979070Y-89818930D01*
X102964654Y-89803024D01*
X102951866Y-89785781D01*
X102940830Y-89767368D01*
X102931651Y-89747962D01*
X102924419Y-89727750D01*
X102919203Y-89706926D01*
X102916053Y-89685691D01*
X102915000Y-89664250D01*
X102915000Y-89151750D01*
X102916053Y-89130309D01*
X102919203Y-89109074D01*
X102924419Y-89088250D01*
X102931651Y-89068038D01*
X102940830Y-89048632D01*
X102951866Y-89030219D01*
X102964654Y-89012976D01*
X102979070Y-88997070D01*
X102994976Y-88982654D01*
X103012219Y-88969866D01*
X103030632Y-88958830D01*
X103050038Y-88949651D01*
X103070250Y-88942419D01*
X103091074Y-88937203D01*
X103112309Y-88934053D01*
X103133750Y-88933000D01*
X103571250Y-88933000D01*
X103592691Y-88934053D01*
G37*
G36*
X105167691Y-82584053D02*
G01*
X105188926Y-82587203D01*
X105209750Y-82592419D01*
X105229962Y-82599651D01*
X105249368Y-82608830D01*
X105267781Y-82619866D01*
X105285024Y-82632654D01*
X105300930Y-82647070D01*
X105315346Y-82662976D01*
X105328134Y-82680219D01*
X105339170Y-82698632D01*
X105348349Y-82718038D01*
X105355581Y-82738250D01*
X105360797Y-82759074D01*
X105363947Y-82780309D01*
X105365000Y-82801750D01*
X105365000Y-83314250D01*
X105363947Y-83335691D01*
X105360797Y-83356926D01*
X105355581Y-83377750D01*
X105348349Y-83397962D01*
X105339170Y-83417368D01*
X105328134Y-83435781D01*
X105315346Y-83453024D01*
X105300930Y-83468930D01*
X105285024Y-83483346D01*
X105267781Y-83496134D01*
X105249368Y-83507170D01*
X105229962Y-83516349D01*
X105209750Y-83523581D01*
X105188926Y-83528797D01*
X105167691Y-83531947D01*
X105146250Y-83533000D01*
X104708750Y-83533000D01*
X104687309Y-83531947D01*
X104666074Y-83528797D01*
X104645250Y-83523581D01*
X104625038Y-83516349D01*
X104605632Y-83507170D01*
X104587219Y-83496134D01*
X104569976Y-83483346D01*
X104554070Y-83468930D01*
X104539654Y-83453024D01*
X104526866Y-83435781D01*
X104515830Y-83417368D01*
X104506651Y-83397962D01*
X104499419Y-83377750D01*
X104494203Y-83356926D01*
X104491053Y-83335691D01*
X104490000Y-83314250D01*
X104490000Y-82801750D01*
X104491053Y-82780309D01*
X104494203Y-82759074D01*
X104499419Y-82738250D01*
X104506651Y-82718038D01*
X104515830Y-82698632D01*
X104526866Y-82680219D01*
X104539654Y-82662976D01*
X104554070Y-82647070D01*
X104569976Y-82632654D01*
X104587219Y-82619866D01*
X104605632Y-82608830D01*
X104625038Y-82599651D01*
X104645250Y-82592419D01*
X104666074Y-82587203D01*
X104687309Y-82584053D01*
X104708750Y-82583000D01*
X105146250Y-82583000D01*
X105167691Y-82584053D01*
G37*
G36*
X103592691Y-82584053D02*
G01*
X103613926Y-82587203D01*
X103634750Y-82592419D01*
X103654962Y-82599651D01*
X103674368Y-82608830D01*
X103692781Y-82619866D01*
X103710024Y-82632654D01*
X103725930Y-82647070D01*
X103740346Y-82662976D01*
X103753134Y-82680219D01*
X103764170Y-82698632D01*
X103773349Y-82718038D01*
X103780581Y-82738250D01*
X103785797Y-82759074D01*
X103788947Y-82780309D01*
X103790000Y-82801750D01*
X103790000Y-83314250D01*
X103788947Y-83335691D01*
X103785797Y-83356926D01*
X103780581Y-83377750D01*
X103773349Y-83397962D01*
X103764170Y-83417368D01*
X103753134Y-83435781D01*
X103740346Y-83453024D01*
X103725930Y-83468930D01*
X103710024Y-83483346D01*
X103692781Y-83496134D01*
X103674368Y-83507170D01*
X103654962Y-83516349D01*
X103634750Y-83523581D01*
X103613926Y-83528797D01*
X103592691Y-83531947D01*
X103571250Y-83533000D01*
X103133750Y-83533000D01*
X103112309Y-83531947D01*
X103091074Y-83528797D01*
X103070250Y-83523581D01*
X103050038Y-83516349D01*
X103030632Y-83507170D01*
X103012219Y-83496134D01*
X102994976Y-83483346D01*
X102979070Y-83468930D01*
X102964654Y-83453024D01*
X102951866Y-83435781D01*
X102940830Y-83417368D01*
X102931651Y-83397962D01*
X102924419Y-83377750D01*
X102919203Y-83356926D01*
X102916053Y-83335691D01*
X102915000Y-83314250D01*
X102915000Y-82801750D01*
X102916053Y-82780309D01*
X102919203Y-82759074D01*
X102924419Y-82738250D01*
X102931651Y-82718038D01*
X102940830Y-82698632D01*
X102951866Y-82680219D01*
X102964654Y-82662976D01*
X102979070Y-82647070D01*
X102994976Y-82632654D01*
X103012219Y-82619866D01*
X103030632Y-82608830D01*
X103050038Y-82599651D01*
X103070250Y-82592419D01*
X103091074Y-82587203D01*
X103112309Y-82584053D01*
X103133750Y-82583000D01*
X103571250Y-82583000D01*
X103592691Y-82584053D01*
G37*
G36*
X110247691Y-84362053D02*
G01*
X110268926Y-84365203D01*
X110289750Y-84370419D01*
X110309962Y-84377651D01*
X110329368Y-84386830D01*
X110347781Y-84397866D01*
X110365024Y-84410654D01*
X110380930Y-84425070D01*
X110395346Y-84440976D01*
X110408134Y-84458219D01*
X110419170Y-84476632D01*
X110428349Y-84496038D01*
X110435581Y-84516250D01*
X110440797Y-84537074D01*
X110443947Y-84558309D01*
X110445000Y-84579750D01*
X110445000Y-85092250D01*
X110443947Y-85113691D01*
X110440797Y-85134926D01*
X110435581Y-85155750D01*
X110428349Y-85175962D01*
X110419170Y-85195368D01*
X110408134Y-85213781D01*
X110395346Y-85231024D01*
X110380930Y-85246930D01*
X110365024Y-85261346D01*
X110347781Y-85274134D01*
X110329368Y-85285170D01*
X110309962Y-85294349D01*
X110289750Y-85301581D01*
X110268926Y-85306797D01*
X110247691Y-85309947D01*
X110226250Y-85311000D01*
X109788750Y-85311000D01*
X109767309Y-85309947D01*
X109746074Y-85306797D01*
X109725250Y-85301581D01*
X109705038Y-85294349D01*
X109685632Y-85285170D01*
X109667219Y-85274134D01*
X109649976Y-85261346D01*
X109634070Y-85246930D01*
X109619654Y-85231024D01*
X109606866Y-85213781D01*
X109595830Y-85195368D01*
X109586651Y-85175962D01*
X109579419Y-85155750D01*
X109574203Y-85134926D01*
X109571053Y-85113691D01*
X109570000Y-85092250D01*
X109570000Y-84579750D01*
X109571053Y-84558309D01*
X109574203Y-84537074D01*
X109579419Y-84516250D01*
X109586651Y-84496038D01*
X109595830Y-84476632D01*
X109606866Y-84458219D01*
X109619654Y-84440976D01*
X109634070Y-84425070D01*
X109649976Y-84410654D01*
X109667219Y-84397866D01*
X109685632Y-84386830D01*
X109705038Y-84377651D01*
X109725250Y-84370419D01*
X109746074Y-84365203D01*
X109767309Y-84362053D01*
X109788750Y-84361000D01*
X110226250Y-84361000D01*
X110247691Y-84362053D01*
G37*
G36*
X108672691Y-84362053D02*
G01*
X108693926Y-84365203D01*
X108714750Y-84370419D01*
X108734962Y-84377651D01*
X108754368Y-84386830D01*
X108772781Y-84397866D01*
X108790024Y-84410654D01*
X108805930Y-84425070D01*
X108820346Y-84440976D01*
X108833134Y-84458219D01*
X108844170Y-84476632D01*
X108853349Y-84496038D01*
X108860581Y-84516250D01*
X108865797Y-84537074D01*
X108868947Y-84558309D01*
X108870000Y-84579750D01*
X108870000Y-85092250D01*
X108868947Y-85113691D01*
X108865797Y-85134926D01*
X108860581Y-85155750D01*
X108853349Y-85175962D01*
X108844170Y-85195368D01*
X108833134Y-85213781D01*
X108820346Y-85231024D01*
X108805930Y-85246930D01*
X108790024Y-85261346D01*
X108772781Y-85274134D01*
X108754368Y-85285170D01*
X108734962Y-85294349D01*
X108714750Y-85301581D01*
X108693926Y-85306797D01*
X108672691Y-85309947D01*
X108651250Y-85311000D01*
X108213750Y-85311000D01*
X108192309Y-85309947D01*
X108171074Y-85306797D01*
X108150250Y-85301581D01*
X108130038Y-85294349D01*
X108110632Y-85285170D01*
X108092219Y-85274134D01*
X108074976Y-85261346D01*
X108059070Y-85246930D01*
X108044654Y-85231024D01*
X108031866Y-85213781D01*
X108020830Y-85195368D01*
X108011651Y-85175962D01*
X108004419Y-85155750D01*
X107999203Y-85134926D01*
X107996053Y-85113691D01*
X107995000Y-85092250D01*
X107995000Y-84579750D01*
X107996053Y-84558309D01*
X107999203Y-84537074D01*
X108004419Y-84516250D01*
X108011651Y-84496038D01*
X108020830Y-84476632D01*
X108031866Y-84458219D01*
X108044654Y-84440976D01*
X108059070Y-84425070D01*
X108074976Y-84410654D01*
X108092219Y-84397866D01*
X108110632Y-84386830D01*
X108130038Y-84377651D01*
X108150250Y-84370419D01*
X108171074Y-84365203D01*
X108192309Y-84362053D01*
X108213750Y-84361000D01*
X108651250Y-84361000D01*
X108672691Y-84362053D01*
G37*
G36*
X110247691Y-77758053D02*
G01*
X110268926Y-77761203D01*
X110289750Y-77766419D01*
X110309962Y-77773651D01*
X110329368Y-77782830D01*
X110347781Y-77793866D01*
X110365024Y-77806654D01*
X110380930Y-77821070D01*
X110395346Y-77836976D01*
X110408134Y-77854219D01*
X110419170Y-77872632D01*
X110428349Y-77892038D01*
X110435581Y-77912250D01*
X110440797Y-77933074D01*
X110443947Y-77954309D01*
X110445000Y-77975750D01*
X110445000Y-78488250D01*
X110443947Y-78509691D01*
X110440797Y-78530926D01*
X110435581Y-78551750D01*
X110428349Y-78571962D01*
X110419170Y-78591368D01*
X110408134Y-78609781D01*
X110395346Y-78627024D01*
X110380930Y-78642930D01*
X110365024Y-78657346D01*
X110347781Y-78670134D01*
X110329368Y-78681170D01*
X110309962Y-78690349D01*
X110289750Y-78697581D01*
X110268926Y-78702797D01*
X110247691Y-78705947D01*
X110226250Y-78707000D01*
X109788750Y-78707000D01*
X109767309Y-78705947D01*
X109746074Y-78702797D01*
X109725250Y-78697581D01*
X109705038Y-78690349D01*
X109685632Y-78681170D01*
X109667219Y-78670134D01*
X109649976Y-78657346D01*
X109634070Y-78642930D01*
X109619654Y-78627024D01*
X109606866Y-78609781D01*
X109595830Y-78591368D01*
X109586651Y-78571962D01*
X109579419Y-78551750D01*
X109574203Y-78530926D01*
X109571053Y-78509691D01*
X109570000Y-78488250D01*
X109570000Y-77975750D01*
X109571053Y-77954309D01*
X109574203Y-77933074D01*
X109579419Y-77912250D01*
X109586651Y-77892038D01*
X109595830Y-77872632D01*
X109606866Y-77854219D01*
X109619654Y-77836976D01*
X109634070Y-77821070D01*
X109649976Y-77806654D01*
X109667219Y-77793866D01*
X109685632Y-77782830D01*
X109705038Y-77773651D01*
X109725250Y-77766419D01*
X109746074Y-77761203D01*
X109767309Y-77758053D01*
X109788750Y-77757000D01*
X110226250Y-77757000D01*
X110247691Y-77758053D01*
G37*
G36*
X108672691Y-77758053D02*
G01*
X108693926Y-77761203D01*
X108714750Y-77766419D01*
X108734962Y-77773651D01*
X108754368Y-77782830D01*
X108772781Y-77793866D01*
X108790024Y-77806654D01*
X108805930Y-77821070D01*
X108820346Y-77836976D01*
X108833134Y-77854219D01*
X108844170Y-77872632D01*
X108853349Y-77892038D01*
X108860581Y-77912250D01*
X108865797Y-77933074D01*
X108868947Y-77954309D01*
X108870000Y-77975750D01*
X108870000Y-78488250D01*
X108868947Y-78509691D01*
X108865797Y-78530926D01*
X108860581Y-78551750D01*
X108853349Y-78571962D01*
X108844170Y-78591368D01*
X108833134Y-78609781D01*
X108820346Y-78627024D01*
X108805930Y-78642930D01*
X108790024Y-78657346D01*
X108772781Y-78670134D01*
X108754368Y-78681170D01*
X108734962Y-78690349D01*
X108714750Y-78697581D01*
X108693926Y-78702797D01*
X108672691Y-78705947D01*
X108651250Y-78707000D01*
X108213750Y-78707000D01*
X108192309Y-78705947D01*
X108171074Y-78702797D01*
X108150250Y-78697581D01*
X108130038Y-78690349D01*
X108110632Y-78681170D01*
X108092219Y-78670134D01*
X108074976Y-78657346D01*
X108059070Y-78642930D01*
X108044654Y-78627024D01*
X108031866Y-78609781D01*
X108020830Y-78591368D01*
X108011651Y-78571962D01*
X108004419Y-78551750D01*
X107999203Y-78530926D01*
X107996053Y-78509691D01*
X107995000Y-78488250D01*
X107995000Y-77975750D01*
X107996053Y-77954309D01*
X107999203Y-77933074D01*
X108004419Y-77912250D01*
X108011651Y-77892038D01*
X108020830Y-77872632D01*
X108031866Y-77854219D01*
X108044654Y-77836976D01*
X108059070Y-77821070D01*
X108074976Y-77806654D01*
X108092219Y-77793866D01*
X108110632Y-77782830D01*
X108130038Y-77773651D01*
X108150250Y-77766419D01*
X108171074Y-77761203D01*
X108192309Y-77758053D01*
X108213750Y-77757000D01*
X108651250Y-77757000D01*
X108672691Y-77758053D01*
G37*
D14*
X99230000Y-87122000D03*
X99230000Y-86172000D03*
X99230000Y-88072000D03*
X101430000Y-88072000D03*
X101430000Y-87122000D03*
X101430000Y-86172000D03*
X99230000Y-80518000D03*
X99230000Y-79568000D03*
X99230000Y-81468000D03*
X101430000Y-81468000D03*
X101430000Y-80518000D03*
X101430000Y-79568000D03*
X103040000Y-87122000D03*
X103040000Y-86172000D03*
X103040000Y-88072000D03*
X105240000Y-88072000D03*
X105240000Y-87122000D03*
X105240000Y-86172000D03*
X103040000Y-80518000D03*
X103040000Y-79568000D03*
X103040000Y-81468000D03*
X105240000Y-81468000D03*
X105240000Y-80518000D03*
X105240000Y-79568000D03*
D10*
G36*
X101357691Y-84108053D02*
G01*
X101378926Y-84111203D01*
X101399750Y-84116419D01*
X101419962Y-84123651D01*
X101439368Y-84132830D01*
X101457781Y-84143866D01*
X101475024Y-84156654D01*
X101490930Y-84171070D01*
X101505346Y-84186976D01*
X101518134Y-84204219D01*
X101529170Y-84222632D01*
X101538349Y-84242038D01*
X101545581Y-84262250D01*
X101550797Y-84283074D01*
X101553947Y-84304309D01*
X101555000Y-84325750D01*
X101555000Y-84838250D01*
X101553947Y-84859691D01*
X101550797Y-84880926D01*
X101545581Y-84901750D01*
X101538349Y-84921962D01*
X101529170Y-84941368D01*
X101518134Y-84959781D01*
X101505346Y-84977024D01*
X101490930Y-84992930D01*
X101475024Y-85007346D01*
X101457781Y-85020134D01*
X101439368Y-85031170D01*
X101419962Y-85040349D01*
X101399750Y-85047581D01*
X101378926Y-85052797D01*
X101357691Y-85055947D01*
X101336250Y-85057000D01*
X100898750Y-85057000D01*
X100877309Y-85055947D01*
X100856074Y-85052797D01*
X100835250Y-85047581D01*
X100815038Y-85040349D01*
X100795632Y-85031170D01*
X100777219Y-85020134D01*
X100759976Y-85007346D01*
X100744070Y-84992930D01*
X100729654Y-84977024D01*
X100716866Y-84959781D01*
X100705830Y-84941368D01*
X100696651Y-84921962D01*
X100689419Y-84901750D01*
X100684203Y-84880926D01*
X100681053Y-84859691D01*
X100680000Y-84838250D01*
X100680000Y-84325750D01*
X100681053Y-84304309D01*
X100684203Y-84283074D01*
X100689419Y-84262250D01*
X100696651Y-84242038D01*
X100705830Y-84222632D01*
X100716866Y-84204219D01*
X100729654Y-84186976D01*
X100744070Y-84171070D01*
X100759976Y-84156654D01*
X100777219Y-84143866D01*
X100795632Y-84132830D01*
X100815038Y-84123651D01*
X100835250Y-84116419D01*
X100856074Y-84111203D01*
X100877309Y-84108053D01*
X100898750Y-84107000D01*
X101336250Y-84107000D01*
X101357691Y-84108053D01*
G37*
G36*
X99782691Y-84108053D02*
G01*
X99803926Y-84111203D01*
X99824750Y-84116419D01*
X99844962Y-84123651D01*
X99864368Y-84132830D01*
X99882781Y-84143866D01*
X99900024Y-84156654D01*
X99915930Y-84171070D01*
X99930346Y-84186976D01*
X99943134Y-84204219D01*
X99954170Y-84222632D01*
X99963349Y-84242038D01*
X99970581Y-84262250D01*
X99975797Y-84283074D01*
X99978947Y-84304309D01*
X99980000Y-84325750D01*
X99980000Y-84838250D01*
X99978947Y-84859691D01*
X99975797Y-84880926D01*
X99970581Y-84901750D01*
X99963349Y-84921962D01*
X99954170Y-84941368D01*
X99943134Y-84959781D01*
X99930346Y-84977024D01*
X99915930Y-84992930D01*
X99900024Y-85007346D01*
X99882781Y-85020134D01*
X99864368Y-85031170D01*
X99844962Y-85040349D01*
X99824750Y-85047581D01*
X99803926Y-85052797D01*
X99782691Y-85055947D01*
X99761250Y-85057000D01*
X99323750Y-85057000D01*
X99302309Y-85055947D01*
X99281074Y-85052797D01*
X99260250Y-85047581D01*
X99240038Y-85040349D01*
X99220632Y-85031170D01*
X99202219Y-85020134D01*
X99184976Y-85007346D01*
X99169070Y-84992930D01*
X99154654Y-84977024D01*
X99141866Y-84959781D01*
X99130830Y-84941368D01*
X99121651Y-84921962D01*
X99114419Y-84901750D01*
X99109203Y-84880926D01*
X99106053Y-84859691D01*
X99105000Y-84838250D01*
X99105000Y-84325750D01*
X99106053Y-84304309D01*
X99109203Y-84283074D01*
X99114419Y-84262250D01*
X99121651Y-84242038D01*
X99130830Y-84222632D01*
X99141866Y-84204219D01*
X99154654Y-84186976D01*
X99169070Y-84171070D01*
X99184976Y-84156654D01*
X99202219Y-84143866D01*
X99220632Y-84132830D01*
X99240038Y-84123651D01*
X99260250Y-84116419D01*
X99281074Y-84111203D01*
X99302309Y-84108053D01*
X99323750Y-84107000D01*
X99761250Y-84107000D01*
X99782691Y-84108053D01*
G37*
G36*
X105167691Y-84108053D02*
G01*
X105188926Y-84111203D01*
X105209750Y-84116419D01*
X105229962Y-84123651D01*
X105249368Y-84132830D01*
X105267781Y-84143866D01*
X105285024Y-84156654D01*
X105300930Y-84171070D01*
X105315346Y-84186976D01*
X105328134Y-84204219D01*
X105339170Y-84222632D01*
X105348349Y-84242038D01*
X105355581Y-84262250D01*
X105360797Y-84283074D01*
X105363947Y-84304309D01*
X105365000Y-84325750D01*
X105365000Y-84838250D01*
X105363947Y-84859691D01*
X105360797Y-84880926D01*
X105355581Y-84901750D01*
X105348349Y-84921962D01*
X105339170Y-84941368D01*
X105328134Y-84959781D01*
X105315346Y-84977024D01*
X105300930Y-84992930D01*
X105285024Y-85007346D01*
X105267781Y-85020134D01*
X105249368Y-85031170D01*
X105229962Y-85040349D01*
X105209750Y-85047581D01*
X105188926Y-85052797D01*
X105167691Y-85055947D01*
X105146250Y-85057000D01*
X104708750Y-85057000D01*
X104687309Y-85055947D01*
X104666074Y-85052797D01*
X104645250Y-85047581D01*
X104625038Y-85040349D01*
X104605632Y-85031170D01*
X104587219Y-85020134D01*
X104569976Y-85007346D01*
X104554070Y-84992930D01*
X104539654Y-84977024D01*
X104526866Y-84959781D01*
X104515830Y-84941368D01*
X104506651Y-84921962D01*
X104499419Y-84901750D01*
X104494203Y-84880926D01*
X104491053Y-84859691D01*
X104490000Y-84838250D01*
X104490000Y-84325750D01*
X104491053Y-84304309D01*
X104494203Y-84283074D01*
X104499419Y-84262250D01*
X104506651Y-84242038D01*
X104515830Y-84222632D01*
X104526866Y-84204219D01*
X104539654Y-84186976D01*
X104554070Y-84171070D01*
X104569976Y-84156654D01*
X104587219Y-84143866D01*
X104605632Y-84132830D01*
X104625038Y-84123651D01*
X104645250Y-84116419D01*
X104666074Y-84111203D01*
X104687309Y-84108053D01*
X104708750Y-84107000D01*
X105146250Y-84107000D01*
X105167691Y-84108053D01*
G37*
G36*
X103592691Y-84108053D02*
G01*
X103613926Y-84111203D01*
X103634750Y-84116419D01*
X103654962Y-84123651D01*
X103674368Y-84132830D01*
X103692781Y-84143866D01*
X103710024Y-84156654D01*
X103725930Y-84171070D01*
X103740346Y-84186976D01*
X103753134Y-84204219D01*
X103764170Y-84222632D01*
X103773349Y-84242038D01*
X103780581Y-84262250D01*
X103785797Y-84283074D01*
X103788947Y-84304309D01*
X103790000Y-84325750D01*
X103790000Y-84838250D01*
X103788947Y-84859691D01*
X103785797Y-84880926D01*
X103780581Y-84901750D01*
X103773349Y-84921962D01*
X103764170Y-84941368D01*
X103753134Y-84959781D01*
X103740346Y-84977024D01*
X103725930Y-84992930D01*
X103710024Y-85007346D01*
X103692781Y-85020134D01*
X103674368Y-85031170D01*
X103654962Y-85040349D01*
X103634750Y-85047581D01*
X103613926Y-85052797D01*
X103592691Y-85055947D01*
X103571250Y-85057000D01*
X103133750Y-85057000D01*
X103112309Y-85055947D01*
X103091074Y-85052797D01*
X103070250Y-85047581D01*
X103050038Y-85040349D01*
X103030632Y-85031170D01*
X103012219Y-85020134D01*
X102994976Y-85007346D01*
X102979070Y-84992930D01*
X102964654Y-84977024D01*
X102951866Y-84959781D01*
X102940830Y-84941368D01*
X102931651Y-84921962D01*
X102924419Y-84901750D01*
X102919203Y-84880926D01*
X102916053Y-84859691D01*
X102915000Y-84838250D01*
X102915000Y-84325750D01*
X102916053Y-84304309D01*
X102919203Y-84283074D01*
X102924419Y-84262250D01*
X102931651Y-84242038D01*
X102940830Y-84222632D01*
X102951866Y-84204219D01*
X102964654Y-84186976D01*
X102979070Y-84171070D01*
X102994976Y-84156654D01*
X103012219Y-84143866D01*
X103030632Y-84132830D01*
X103050038Y-84123651D01*
X103070250Y-84116419D01*
X103091074Y-84111203D01*
X103112309Y-84108053D01*
X103133750Y-84107000D01*
X103571250Y-84107000D01*
X103592691Y-84108053D01*
G37*
G36*
X101357691Y-77758053D02*
G01*
X101378926Y-77761203D01*
X101399750Y-77766419D01*
X101419962Y-77773651D01*
X101439368Y-77782830D01*
X101457781Y-77793866D01*
X101475024Y-77806654D01*
X101490930Y-77821070D01*
X101505346Y-77836976D01*
X101518134Y-77854219D01*
X101529170Y-77872632D01*
X101538349Y-77892038D01*
X101545581Y-77912250D01*
X101550797Y-77933074D01*
X101553947Y-77954309D01*
X101555000Y-77975750D01*
X101555000Y-78488250D01*
X101553947Y-78509691D01*
X101550797Y-78530926D01*
X101545581Y-78551750D01*
X101538349Y-78571962D01*
X101529170Y-78591368D01*
X101518134Y-78609781D01*
X101505346Y-78627024D01*
X101490930Y-78642930D01*
X101475024Y-78657346D01*
X101457781Y-78670134D01*
X101439368Y-78681170D01*
X101419962Y-78690349D01*
X101399750Y-78697581D01*
X101378926Y-78702797D01*
X101357691Y-78705947D01*
X101336250Y-78707000D01*
X100898750Y-78707000D01*
X100877309Y-78705947D01*
X100856074Y-78702797D01*
X100835250Y-78697581D01*
X100815038Y-78690349D01*
X100795632Y-78681170D01*
X100777219Y-78670134D01*
X100759976Y-78657346D01*
X100744070Y-78642930D01*
X100729654Y-78627024D01*
X100716866Y-78609781D01*
X100705830Y-78591368D01*
X100696651Y-78571962D01*
X100689419Y-78551750D01*
X100684203Y-78530926D01*
X100681053Y-78509691D01*
X100680000Y-78488250D01*
X100680000Y-77975750D01*
X100681053Y-77954309D01*
X100684203Y-77933074D01*
X100689419Y-77912250D01*
X100696651Y-77892038D01*
X100705830Y-77872632D01*
X100716866Y-77854219D01*
X100729654Y-77836976D01*
X100744070Y-77821070D01*
X100759976Y-77806654D01*
X100777219Y-77793866D01*
X100795632Y-77782830D01*
X100815038Y-77773651D01*
X100835250Y-77766419D01*
X100856074Y-77761203D01*
X100877309Y-77758053D01*
X100898750Y-77757000D01*
X101336250Y-77757000D01*
X101357691Y-77758053D01*
G37*
G36*
X99782691Y-77758053D02*
G01*
X99803926Y-77761203D01*
X99824750Y-77766419D01*
X99844962Y-77773651D01*
X99864368Y-77782830D01*
X99882781Y-77793866D01*
X99900024Y-77806654D01*
X99915930Y-77821070D01*
X99930346Y-77836976D01*
X99943134Y-77854219D01*
X99954170Y-77872632D01*
X99963349Y-77892038D01*
X99970581Y-77912250D01*
X99975797Y-77933074D01*
X99978947Y-77954309D01*
X99980000Y-77975750D01*
X99980000Y-78488250D01*
X99978947Y-78509691D01*
X99975797Y-78530926D01*
X99970581Y-78551750D01*
X99963349Y-78571962D01*
X99954170Y-78591368D01*
X99943134Y-78609781D01*
X99930346Y-78627024D01*
X99915930Y-78642930D01*
X99900024Y-78657346D01*
X99882781Y-78670134D01*
X99864368Y-78681170D01*
X99844962Y-78690349D01*
X99824750Y-78697581D01*
X99803926Y-78702797D01*
X99782691Y-78705947D01*
X99761250Y-78707000D01*
X99323750Y-78707000D01*
X99302309Y-78705947D01*
X99281074Y-78702797D01*
X99260250Y-78697581D01*
X99240038Y-78690349D01*
X99220632Y-78681170D01*
X99202219Y-78670134D01*
X99184976Y-78657346D01*
X99169070Y-78642930D01*
X99154654Y-78627024D01*
X99141866Y-78609781D01*
X99130830Y-78591368D01*
X99121651Y-78571962D01*
X99114419Y-78551750D01*
X99109203Y-78530926D01*
X99106053Y-78509691D01*
X99105000Y-78488250D01*
X99105000Y-77975750D01*
X99106053Y-77954309D01*
X99109203Y-77933074D01*
X99114419Y-77912250D01*
X99121651Y-77892038D01*
X99130830Y-77872632D01*
X99141866Y-77854219D01*
X99154654Y-77836976D01*
X99169070Y-77821070D01*
X99184976Y-77806654D01*
X99202219Y-77793866D01*
X99220632Y-77782830D01*
X99240038Y-77773651D01*
X99260250Y-77766419D01*
X99281074Y-77761203D01*
X99302309Y-77758053D01*
X99323750Y-77757000D01*
X99761250Y-77757000D01*
X99782691Y-77758053D01*
G37*
G36*
X105167691Y-77758053D02*
G01*
X105188926Y-77761203D01*
X105209750Y-77766419D01*
X105229962Y-77773651D01*
X105249368Y-77782830D01*
X105267781Y-77793866D01*
X105285024Y-77806654D01*
X105300930Y-77821070D01*
X105315346Y-77836976D01*
X105328134Y-77854219D01*
X105339170Y-77872632D01*
X105348349Y-77892038D01*
X105355581Y-77912250D01*
X105360797Y-77933074D01*
X105363947Y-77954309D01*
X105365000Y-77975750D01*
X105365000Y-78488250D01*
X105363947Y-78509691D01*
X105360797Y-78530926D01*
X105355581Y-78551750D01*
X105348349Y-78571962D01*
X105339170Y-78591368D01*
X105328134Y-78609781D01*
X105315346Y-78627024D01*
X105300930Y-78642930D01*
X105285024Y-78657346D01*
X105267781Y-78670134D01*
X105249368Y-78681170D01*
X105229962Y-78690349D01*
X105209750Y-78697581D01*
X105188926Y-78702797D01*
X105167691Y-78705947D01*
X105146250Y-78707000D01*
X104708750Y-78707000D01*
X104687309Y-78705947D01*
X104666074Y-78702797D01*
X104645250Y-78697581D01*
X104625038Y-78690349D01*
X104605632Y-78681170D01*
X104587219Y-78670134D01*
X104569976Y-78657346D01*
X104554070Y-78642930D01*
X104539654Y-78627024D01*
X104526866Y-78609781D01*
X104515830Y-78591368D01*
X104506651Y-78571962D01*
X104499419Y-78551750D01*
X104494203Y-78530926D01*
X104491053Y-78509691D01*
X104490000Y-78488250D01*
X104490000Y-77975750D01*
X104491053Y-77954309D01*
X104494203Y-77933074D01*
X104499419Y-77912250D01*
X104506651Y-77892038D01*
X104515830Y-77872632D01*
X104526866Y-77854219D01*
X104539654Y-77836976D01*
X104554070Y-77821070D01*
X104569976Y-77806654D01*
X104587219Y-77793866D01*
X104605632Y-77782830D01*
X104625038Y-77773651D01*
X104645250Y-77766419D01*
X104666074Y-77761203D01*
X104687309Y-77758053D01*
X104708750Y-77757000D01*
X105146250Y-77757000D01*
X105167691Y-77758053D01*
G37*
G36*
X103592691Y-77758053D02*
G01*
X103613926Y-77761203D01*
X103634750Y-77766419D01*
X103654962Y-77773651D01*
X103674368Y-77782830D01*
X103692781Y-77793866D01*
X103710024Y-77806654D01*
X103725930Y-77821070D01*
X103740346Y-77836976D01*
X103753134Y-77854219D01*
X103764170Y-77872632D01*
X103773349Y-77892038D01*
X103780581Y-77912250D01*
X103785797Y-77933074D01*
X103788947Y-77954309D01*
X103790000Y-77975750D01*
X103790000Y-78488250D01*
X103788947Y-78509691D01*
X103785797Y-78530926D01*
X103780581Y-78551750D01*
X103773349Y-78571962D01*
X103764170Y-78591368D01*
X103753134Y-78609781D01*
X103740346Y-78627024D01*
X103725930Y-78642930D01*
X103710024Y-78657346D01*
X103692781Y-78670134D01*
X103674368Y-78681170D01*
X103654962Y-78690349D01*
X103634750Y-78697581D01*
X103613926Y-78702797D01*
X103592691Y-78705947D01*
X103571250Y-78707000D01*
X103133750Y-78707000D01*
X103112309Y-78705947D01*
X103091074Y-78702797D01*
X103070250Y-78697581D01*
X103050038Y-78690349D01*
X103030632Y-78681170D01*
X103012219Y-78670134D01*
X102994976Y-78657346D01*
X102979070Y-78642930D01*
X102964654Y-78627024D01*
X102951866Y-78609781D01*
X102940830Y-78591368D01*
X102931651Y-78571962D01*
X102924419Y-78551750D01*
X102919203Y-78530926D01*
X102916053Y-78509691D01*
X102915000Y-78488250D01*
X102915000Y-77975750D01*
X102916053Y-77954309D01*
X102919203Y-77933074D01*
X102924419Y-77912250D01*
X102931651Y-77892038D01*
X102940830Y-77872632D01*
X102951866Y-77854219D01*
X102964654Y-77836976D01*
X102979070Y-77821070D01*
X102994976Y-77806654D01*
X103012219Y-77793866D01*
X103030632Y-77782830D01*
X103050038Y-77773651D01*
X103070250Y-77766419D01*
X103091074Y-77761203D01*
X103112309Y-77758053D01*
X103133750Y-77757000D01*
X103571250Y-77757000D01*
X103592691Y-77758053D01*
G37*
G36*
X87717691Y-86521053D02*
G01*
X87738926Y-86524203D01*
X87759750Y-86529419D01*
X87779962Y-86536651D01*
X87799368Y-86545830D01*
X87817781Y-86556866D01*
X87835024Y-86569654D01*
X87850930Y-86584070D01*
X87865346Y-86599976D01*
X87878134Y-86617219D01*
X87889170Y-86635632D01*
X87898349Y-86655038D01*
X87905581Y-86675250D01*
X87910797Y-86696074D01*
X87913947Y-86717309D01*
X87915000Y-86738750D01*
X87915000Y-87251250D01*
X87913947Y-87272691D01*
X87910797Y-87293926D01*
X87905581Y-87314750D01*
X87898349Y-87334962D01*
X87889170Y-87354368D01*
X87878134Y-87372781D01*
X87865346Y-87390024D01*
X87850930Y-87405930D01*
X87835024Y-87420346D01*
X87817781Y-87433134D01*
X87799368Y-87444170D01*
X87779962Y-87453349D01*
X87759750Y-87460581D01*
X87738926Y-87465797D01*
X87717691Y-87468947D01*
X87696250Y-87470000D01*
X87258750Y-87470000D01*
X87237309Y-87468947D01*
X87216074Y-87465797D01*
X87195250Y-87460581D01*
X87175038Y-87453349D01*
X87155632Y-87444170D01*
X87137219Y-87433134D01*
X87119976Y-87420346D01*
X87104070Y-87405930D01*
X87089654Y-87390024D01*
X87076866Y-87372781D01*
X87065830Y-87354368D01*
X87056651Y-87334962D01*
X87049419Y-87314750D01*
X87044203Y-87293926D01*
X87041053Y-87272691D01*
X87040000Y-87251250D01*
X87040000Y-86738750D01*
X87041053Y-86717309D01*
X87044203Y-86696074D01*
X87049419Y-86675250D01*
X87056651Y-86655038D01*
X87065830Y-86635632D01*
X87076866Y-86617219D01*
X87089654Y-86599976D01*
X87104070Y-86584070D01*
X87119976Y-86569654D01*
X87137219Y-86556866D01*
X87155632Y-86545830D01*
X87175038Y-86536651D01*
X87195250Y-86529419D01*
X87216074Y-86524203D01*
X87237309Y-86521053D01*
X87258750Y-86520000D01*
X87696250Y-86520000D01*
X87717691Y-86521053D01*
G37*
G36*
X89292691Y-86521053D02*
G01*
X89313926Y-86524203D01*
X89334750Y-86529419D01*
X89354962Y-86536651D01*
X89374368Y-86545830D01*
X89392781Y-86556866D01*
X89410024Y-86569654D01*
X89425930Y-86584070D01*
X89440346Y-86599976D01*
X89453134Y-86617219D01*
X89464170Y-86635632D01*
X89473349Y-86655038D01*
X89480581Y-86675250D01*
X89485797Y-86696074D01*
X89488947Y-86717309D01*
X89490000Y-86738750D01*
X89490000Y-87251250D01*
X89488947Y-87272691D01*
X89485797Y-87293926D01*
X89480581Y-87314750D01*
X89473349Y-87334962D01*
X89464170Y-87354368D01*
X89453134Y-87372781D01*
X89440346Y-87390024D01*
X89425930Y-87405930D01*
X89410024Y-87420346D01*
X89392781Y-87433134D01*
X89374368Y-87444170D01*
X89354962Y-87453349D01*
X89334750Y-87460581D01*
X89313926Y-87465797D01*
X89292691Y-87468947D01*
X89271250Y-87470000D01*
X88833750Y-87470000D01*
X88812309Y-87468947D01*
X88791074Y-87465797D01*
X88770250Y-87460581D01*
X88750038Y-87453349D01*
X88730632Y-87444170D01*
X88712219Y-87433134D01*
X88694976Y-87420346D01*
X88679070Y-87405930D01*
X88664654Y-87390024D01*
X88651866Y-87372781D01*
X88640830Y-87354368D01*
X88631651Y-87334962D01*
X88624419Y-87314750D01*
X88619203Y-87293926D01*
X88616053Y-87272691D01*
X88615000Y-87251250D01*
X88615000Y-86738750D01*
X88616053Y-86717309D01*
X88619203Y-86696074D01*
X88624419Y-86675250D01*
X88631651Y-86655038D01*
X88640830Y-86635632D01*
X88651866Y-86617219D01*
X88664654Y-86599976D01*
X88679070Y-86584070D01*
X88694976Y-86569654D01*
X88712219Y-86556866D01*
X88730632Y-86545830D01*
X88750038Y-86536651D01*
X88770250Y-86529419D01*
X88791074Y-86524203D01*
X88812309Y-86521053D01*
X88833750Y-86520000D01*
X89271250Y-86520000D01*
X89292691Y-86521053D01*
G37*
G36*
X87717691Y-80806053D02*
G01*
X87738926Y-80809203D01*
X87759750Y-80814419D01*
X87779962Y-80821651D01*
X87799368Y-80830830D01*
X87817781Y-80841866D01*
X87835024Y-80854654D01*
X87850930Y-80869070D01*
X87865346Y-80884976D01*
X87878134Y-80902219D01*
X87889170Y-80920632D01*
X87898349Y-80940038D01*
X87905581Y-80960250D01*
X87910797Y-80981074D01*
X87913947Y-81002309D01*
X87915000Y-81023750D01*
X87915000Y-81536250D01*
X87913947Y-81557691D01*
X87910797Y-81578926D01*
X87905581Y-81599750D01*
X87898349Y-81619962D01*
X87889170Y-81639368D01*
X87878134Y-81657781D01*
X87865346Y-81675024D01*
X87850930Y-81690930D01*
X87835024Y-81705346D01*
X87817781Y-81718134D01*
X87799368Y-81729170D01*
X87779962Y-81738349D01*
X87759750Y-81745581D01*
X87738926Y-81750797D01*
X87717691Y-81753947D01*
X87696250Y-81755000D01*
X87258750Y-81755000D01*
X87237309Y-81753947D01*
X87216074Y-81750797D01*
X87195250Y-81745581D01*
X87175038Y-81738349D01*
X87155632Y-81729170D01*
X87137219Y-81718134D01*
X87119976Y-81705346D01*
X87104070Y-81690930D01*
X87089654Y-81675024D01*
X87076866Y-81657781D01*
X87065830Y-81639368D01*
X87056651Y-81619962D01*
X87049419Y-81599750D01*
X87044203Y-81578926D01*
X87041053Y-81557691D01*
X87040000Y-81536250D01*
X87040000Y-81023750D01*
X87041053Y-81002309D01*
X87044203Y-80981074D01*
X87049419Y-80960250D01*
X87056651Y-80940038D01*
X87065830Y-80920632D01*
X87076866Y-80902219D01*
X87089654Y-80884976D01*
X87104070Y-80869070D01*
X87119976Y-80854654D01*
X87137219Y-80841866D01*
X87155632Y-80830830D01*
X87175038Y-80821651D01*
X87195250Y-80814419D01*
X87216074Y-80809203D01*
X87237309Y-80806053D01*
X87258750Y-80805000D01*
X87696250Y-80805000D01*
X87717691Y-80806053D01*
G37*
G36*
X89292691Y-80806053D02*
G01*
X89313926Y-80809203D01*
X89334750Y-80814419D01*
X89354962Y-80821651D01*
X89374368Y-80830830D01*
X89392781Y-80841866D01*
X89410024Y-80854654D01*
X89425930Y-80869070D01*
X89440346Y-80884976D01*
X89453134Y-80902219D01*
X89464170Y-80920632D01*
X89473349Y-80940038D01*
X89480581Y-80960250D01*
X89485797Y-80981074D01*
X89488947Y-81002309D01*
X89490000Y-81023750D01*
X89490000Y-81536250D01*
X89488947Y-81557691D01*
X89485797Y-81578926D01*
X89480581Y-81599750D01*
X89473349Y-81619962D01*
X89464170Y-81639368D01*
X89453134Y-81657781D01*
X89440346Y-81675024D01*
X89425930Y-81690930D01*
X89410024Y-81705346D01*
X89392781Y-81718134D01*
X89374368Y-81729170D01*
X89354962Y-81738349D01*
X89334750Y-81745581D01*
X89313926Y-81750797D01*
X89292691Y-81753947D01*
X89271250Y-81755000D01*
X88833750Y-81755000D01*
X88812309Y-81753947D01*
X88791074Y-81750797D01*
X88770250Y-81745581D01*
X88750038Y-81738349D01*
X88730632Y-81729170D01*
X88712219Y-81718134D01*
X88694976Y-81705346D01*
X88679070Y-81690930D01*
X88664654Y-81675024D01*
X88651866Y-81657781D01*
X88640830Y-81639368D01*
X88631651Y-81619962D01*
X88624419Y-81599750D01*
X88619203Y-81578926D01*
X88616053Y-81557691D01*
X88615000Y-81536250D01*
X88615000Y-81023750D01*
X88616053Y-81002309D01*
X88619203Y-80981074D01*
X88624419Y-80960250D01*
X88631651Y-80940038D01*
X88640830Y-80920632D01*
X88651866Y-80902219D01*
X88664654Y-80884976D01*
X88679070Y-80869070D01*
X88694976Y-80854654D01*
X88712219Y-80841866D01*
X88730632Y-80830830D01*
X88750038Y-80821651D01*
X88770250Y-80814419D01*
X88791074Y-80809203D01*
X88812309Y-80806053D01*
X88833750Y-80805000D01*
X89271250Y-80805000D01*
X89292691Y-80806053D01*
G37*
G36*
X89292691Y-84616053D02*
G01*
X89313926Y-84619203D01*
X89334750Y-84624419D01*
X89354962Y-84631651D01*
X89374368Y-84640830D01*
X89392781Y-84651866D01*
X89410024Y-84664654D01*
X89425930Y-84679070D01*
X89440346Y-84694976D01*
X89453134Y-84712219D01*
X89464170Y-84730632D01*
X89473349Y-84750038D01*
X89480581Y-84770250D01*
X89485797Y-84791074D01*
X89488947Y-84812309D01*
X89490000Y-84833750D01*
X89490000Y-85346250D01*
X89488947Y-85367691D01*
X89485797Y-85388926D01*
X89480581Y-85409750D01*
X89473349Y-85429962D01*
X89464170Y-85449368D01*
X89453134Y-85467781D01*
X89440346Y-85485024D01*
X89425930Y-85500930D01*
X89410024Y-85515346D01*
X89392781Y-85528134D01*
X89374368Y-85539170D01*
X89354962Y-85548349D01*
X89334750Y-85555581D01*
X89313926Y-85560797D01*
X89292691Y-85563947D01*
X89271250Y-85565000D01*
X88833750Y-85565000D01*
X88812309Y-85563947D01*
X88791074Y-85560797D01*
X88770250Y-85555581D01*
X88750038Y-85548349D01*
X88730632Y-85539170D01*
X88712219Y-85528134D01*
X88694976Y-85515346D01*
X88679070Y-85500930D01*
X88664654Y-85485024D01*
X88651866Y-85467781D01*
X88640830Y-85449368D01*
X88631651Y-85429962D01*
X88624419Y-85409750D01*
X88619203Y-85388926D01*
X88616053Y-85367691D01*
X88615000Y-85346250D01*
X88615000Y-84833750D01*
X88616053Y-84812309D01*
X88619203Y-84791074D01*
X88624419Y-84770250D01*
X88631651Y-84750038D01*
X88640830Y-84730632D01*
X88651866Y-84712219D01*
X88664654Y-84694976D01*
X88679070Y-84679070D01*
X88694976Y-84664654D01*
X88712219Y-84651866D01*
X88730632Y-84640830D01*
X88750038Y-84631651D01*
X88770250Y-84624419D01*
X88791074Y-84619203D01*
X88812309Y-84616053D01*
X88833750Y-84615000D01*
X89271250Y-84615000D01*
X89292691Y-84616053D01*
G37*
G36*
X87717691Y-84616053D02*
G01*
X87738926Y-84619203D01*
X87759750Y-84624419D01*
X87779962Y-84631651D01*
X87799368Y-84640830D01*
X87817781Y-84651866D01*
X87835024Y-84664654D01*
X87850930Y-84679070D01*
X87865346Y-84694976D01*
X87878134Y-84712219D01*
X87889170Y-84730632D01*
X87898349Y-84750038D01*
X87905581Y-84770250D01*
X87910797Y-84791074D01*
X87913947Y-84812309D01*
X87915000Y-84833750D01*
X87915000Y-85346250D01*
X87913947Y-85367691D01*
X87910797Y-85388926D01*
X87905581Y-85409750D01*
X87898349Y-85429962D01*
X87889170Y-85449368D01*
X87878134Y-85467781D01*
X87865346Y-85485024D01*
X87850930Y-85500930D01*
X87835024Y-85515346D01*
X87817781Y-85528134D01*
X87799368Y-85539170D01*
X87779962Y-85548349D01*
X87759750Y-85555581D01*
X87738926Y-85560797D01*
X87717691Y-85563947D01*
X87696250Y-85565000D01*
X87258750Y-85565000D01*
X87237309Y-85563947D01*
X87216074Y-85560797D01*
X87195250Y-85555581D01*
X87175038Y-85548349D01*
X87155632Y-85539170D01*
X87137219Y-85528134D01*
X87119976Y-85515346D01*
X87104070Y-85500930D01*
X87089654Y-85485024D01*
X87076866Y-85467781D01*
X87065830Y-85449368D01*
X87056651Y-85429962D01*
X87049419Y-85409750D01*
X87044203Y-85388926D01*
X87041053Y-85367691D01*
X87040000Y-85346250D01*
X87040000Y-84833750D01*
X87041053Y-84812309D01*
X87044203Y-84791074D01*
X87049419Y-84770250D01*
X87056651Y-84750038D01*
X87065830Y-84730632D01*
X87076866Y-84712219D01*
X87089654Y-84694976D01*
X87104070Y-84679070D01*
X87119976Y-84664654D01*
X87137219Y-84651866D01*
X87155632Y-84640830D01*
X87175038Y-84631651D01*
X87195250Y-84624419D01*
X87216074Y-84619203D01*
X87237309Y-84616053D01*
X87258750Y-84615000D01*
X87696250Y-84615000D01*
X87717691Y-84616053D01*
G37*
G36*
X89292691Y-78901053D02*
G01*
X89313926Y-78904203D01*
X89334750Y-78909419D01*
X89354962Y-78916651D01*
X89374368Y-78925830D01*
X89392781Y-78936866D01*
X89410024Y-78949654D01*
X89425930Y-78964070D01*
X89440346Y-78979976D01*
X89453134Y-78997219D01*
X89464170Y-79015632D01*
X89473349Y-79035038D01*
X89480581Y-79055250D01*
X89485797Y-79076074D01*
X89488947Y-79097309D01*
X89490000Y-79118750D01*
X89490000Y-79631250D01*
X89488947Y-79652691D01*
X89485797Y-79673926D01*
X89480581Y-79694750D01*
X89473349Y-79714962D01*
X89464170Y-79734368D01*
X89453134Y-79752781D01*
X89440346Y-79770024D01*
X89425930Y-79785930D01*
X89410024Y-79800346D01*
X89392781Y-79813134D01*
X89374368Y-79824170D01*
X89354962Y-79833349D01*
X89334750Y-79840581D01*
X89313926Y-79845797D01*
X89292691Y-79848947D01*
X89271250Y-79850000D01*
X88833750Y-79850000D01*
X88812309Y-79848947D01*
X88791074Y-79845797D01*
X88770250Y-79840581D01*
X88750038Y-79833349D01*
X88730632Y-79824170D01*
X88712219Y-79813134D01*
X88694976Y-79800346D01*
X88679070Y-79785930D01*
X88664654Y-79770024D01*
X88651866Y-79752781D01*
X88640830Y-79734368D01*
X88631651Y-79714962D01*
X88624419Y-79694750D01*
X88619203Y-79673926D01*
X88616053Y-79652691D01*
X88615000Y-79631250D01*
X88615000Y-79118750D01*
X88616053Y-79097309D01*
X88619203Y-79076074D01*
X88624419Y-79055250D01*
X88631651Y-79035038D01*
X88640830Y-79015632D01*
X88651866Y-78997219D01*
X88664654Y-78979976D01*
X88679070Y-78964070D01*
X88694976Y-78949654D01*
X88712219Y-78936866D01*
X88730632Y-78925830D01*
X88750038Y-78916651D01*
X88770250Y-78909419D01*
X88791074Y-78904203D01*
X88812309Y-78901053D01*
X88833750Y-78900000D01*
X89271250Y-78900000D01*
X89292691Y-78901053D01*
G37*
G36*
X87717691Y-78901053D02*
G01*
X87738926Y-78904203D01*
X87759750Y-78909419D01*
X87779962Y-78916651D01*
X87799368Y-78925830D01*
X87817781Y-78936866D01*
X87835024Y-78949654D01*
X87850930Y-78964070D01*
X87865346Y-78979976D01*
X87878134Y-78997219D01*
X87889170Y-79015632D01*
X87898349Y-79035038D01*
X87905581Y-79055250D01*
X87910797Y-79076074D01*
X87913947Y-79097309D01*
X87915000Y-79118750D01*
X87915000Y-79631250D01*
X87913947Y-79652691D01*
X87910797Y-79673926D01*
X87905581Y-79694750D01*
X87898349Y-79714962D01*
X87889170Y-79734368D01*
X87878134Y-79752781D01*
X87865346Y-79770024D01*
X87850930Y-79785930D01*
X87835024Y-79800346D01*
X87817781Y-79813134D01*
X87799368Y-79824170D01*
X87779962Y-79833349D01*
X87759750Y-79840581D01*
X87738926Y-79845797D01*
X87717691Y-79848947D01*
X87696250Y-79850000D01*
X87258750Y-79850000D01*
X87237309Y-79848947D01*
X87216074Y-79845797D01*
X87195250Y-79840581D01*
X87175038Y-79833349D01*
X87155632Y-79824170D01*
X87137219Y-79813134D01*
X87119976Y-79800346D01*
X87104070Y-79785930D01*
X87089654Y-79770024D01*
X87076866Y-79752781D01*
X87065830Y-79734368D01*
X87056651Y-79714962D01*
X87049419Y-79694750D01*
X87044203Y-79673926D01*
X87041053Y-79652691D01*
X87040000Y-79631250D01*
X87040000Y-79118750D01*
X87041053Y-79097309D01*
X87044203Y-79076074D01*
X87049419Y-79055250D01*
X87056651Y-79035038D01*
X87065830Y-79015632D01*
X87076866Y-78997219D01*
X87089654Y-78979976D01*
X87104070Y-78964070D01*
X87119976Y-78949654D01*
X87137219Y-78936866D01*
X87155632Y-78925830D01*
X87175038Y-78916651D01*
X87195250Y-78909419D01*
X87216074Y-78904203D01*
X87237309Y-78901053D01*
X87258750Y-78900000D01*
X87696250Y-78900000D01*
X87717691Y-78901053D01*
G37*
D15*
X85090000Y-87630000D03*
X85090000Y-85090000D03*
X85090000Y-82550000D03*
D16*
X85090000Y-80010000D03*
D10*
G36*
X97489802Y-89070482D02*
G01*
X97499509Y-89071921D01*
X97509028Y-89074306D01*
X97518268Y-89077612D01*
X97527140Y-89081808D01*
X97535557Y-89086853D01*
X97543439Y-89092699D01*
X97550711Y-89099289D01*
X97557301Y-89106561D01*
X97563147Y-89114443D01*
X97568192Y-89122860D01*
X97572388Y-89131732D01*
X97575694Y-89140972D01*
X97578079Y-89150491D01*
X97579518Y-89160198D01*
X97580000Y-89170000D01*
X97580000Y-89370000D01*
X97579518Y-89379802D01*
X97578079Y-89389509D01*
X97575694Y-89399028D01*
X97572388Y-89408268D01*
X97568192Y-89417140D01*
X97563147Y-89425557D01*
X97557301Y-89433439D01*
X97550711Y-89440711D01*
X97543439Y-89447301D01*
X97535557Y-89453147D01*
X97527140Y-89458192D01*
X97518268Y-89462388D01*
X97509028Y-89465694D01*
X97499509Y-89468079D01*
X97489802Y-89469518D01*
X97480000Y-89470000D01*
X96205000Y-89470000D01*
X96195198Y-89469518D01*
X96185491Y-89468079D01*
X96175972Y-89465694D01*
X96166732Y-89462388D01*
X96157860Y-89458192D01*
X96149443Y-89453147D01*
X96141561Y-89447301D01*
X96134289Y-89440711D01*
X96127699Y-89433439D01*
X96121853Y-89425557D01*
X96116808Y-89417140D01*
X96112612Y-89408268D01*
X96109306Y-89399028D01*
X96106921Y-89389509D01*
X96105482Y-89379802D01*
X96105000Y-89370000D01*
X96105000Y-89170000D01*
X96105482Y-89160198D01*
X96106921Y-89150491D01*
X96109306Y-89140972D01*
X96112612Y-89131732D01*
X96116808Y-89122860D01*
X96121853Y-89114443D01*
X96127699Y-89106561D01*
X96134289Y-89099289D01*
X96141561Y-89092699D01*
X96149443Y-89086853D01*
X96157860Y-89081808D01*
X96166732Y-89077612D01*
X96175972Y-89074306D01*
X96185491Y-89071921D01*
X96195198Y-89070482D01*
X96205000Y-89070000D01*
X97480000Y-89070000D01*
X97489802Y-89070482D01*
G37*
G36*
X97489802Y-88420482D02*
G01*
X97499509Y-88421921D01*
X97509028Y-88424306D01*
X97518268Y-88427612D01*
X97527140Y-88431808D01*
X97535557Y-88436853D01*
X97543439Y-88442699D01*
X97550711Y-88449289D01*
X97557301Y-88456561D01*
X97563147Y-88464443D01*
X97568192Y-88472860D01*
X97572388Y-88481732D01*
X97575694Y-88490972D01*
X97578079Y-88500491D01*
X97579518Y-88510198D01*
X97580000Y-88520000D01*
X97580000Y-88720000D01*
X97579518Y-88729802D01*
X97578079Y-88739509D01*
X97575694Y-88749028D01*
X97572388Y-88758268D01*
X97568192Y-88767140D01*
X97563147Y-88775557D01*
X97557301Y-88783439D01*
X97550711Y-88790711D01*
X97543439Y-88797301D01*
X97535557Y-88803147D01*
X97527140Y-88808192D01*
X97518268Y-88812388D01*
X97509028Y-88815694D01*
X97499509Y-88818079D01*
X97489802Y-88819518D01*
X97480000Y-88820000D01*
X96205000Y-88820000D01*
X96195198Y-88819518D01*
X96185491Y-88818079D01*
X96175972Y-88815694D01*
X96166732Y-88812388D01*
X96157860Y-88808192D01*
X96149443Y-88803147D01*
X96141561Y-88797301D01*
X96134289Y-88790711D01*
X96127699Y-88783439D01*
X96121853Y-88775557D01*
X96116808Y-88767140D01*
X96112612Y-88758268D01*
X96109306Y-88749028D01*
X96106921Y-88739509D01*
X96105482Y-88729802D01*
X96105000Y-88720000D01*
X96105000Y-88520000D01*
X96105482Y-88510198D01*
X96106921Y-88500491D01*
X96109306Y-88490972D01*
X96112612Y-88481732D01*
X96116808Y-88472860D01*
X96121853Y-88464443D01*
X96127699Y-88456561D01*
X96134289Y-88449289D01*
X96141561Y-88442699D01*
X96149443Y-88436853D01*
X96157860Y-88431808D01*
X96166732Y-88427612D01*
X96175972Y-88424306D01*
X96185491Y-88421921D01*
X96195198Y-88420482D01*
X96205000Y-88420000D01*
X97480000Y-88420000D01*
X97489802Y-88420482D01*
G37*
G36*
X97489802Y-87770482D02*
G01*
X97499509Y-87771921D01*
X97509028Y-87774306D01*
X97518268Y-87777612D01*
X97527140Y-87781808D01*
X97535557Y-87786853D01*
X97543439Y-87792699D01*
X97550711Y-87799289D01*
X97557301Y-87806561D01*
X97563147Y-87814443D01*
X97568192Y-87822860D01*
X97572388Y-87831732D01*
X97575694Y-87840972D01*
X97578079Y-87850491D01*
X97579518Y-87860198D01*
X97580000Y-87870000D01*
X97580000Y-88070000D01*
X97579518Y-88079802D01*
X97578079Y-88089509D01*
X97575694Y-88099028D01*
X97572388Y-88108268D01*
X97568192Y-88117140D01*
X97563147Y-88125557D01*
X97557301Y-88133439D01*
X97550711Y-88140711D01*
X97543439Y-88147301D01*
X97535557Y-88153147D01*
X97527140Y-88158192D01*
X97518268Y-88162388D01*
X97509028Y-88165694D01*
X97499509Y-88168079D01*
X97489802Y-88169518D01*
X97480000Y-88170000D01*
X96205000Y-88170000D01*
X96195198Y-88169518D01*
X96185491Y-88168079D01*
X96175972Y-88165694D01*
X96166732Y-88162388D01*
X96157860Y-88158192D01*
X96149443Y-88153147D01*
X96141561Y-88147301D01*
X96134289Y-88140711D01*
X96127699Y-88133439D01*
X96121853Y-88125557D01*
X96116808Y-88117140D01*
X96112612Y-88108268D01*
X96109306Y-88099028D01*
X96106921Y-88089509D01*
X96105482Y-88079802D01*
X96105000Y-88070000D01*
X96105000Y-87870000D01*
X96105482Y-87860198D01*
X96106921Y-87850491D01*
X96109306Y-87840972D01*
X96112612Y-87831732D01*
X96116808Y-87822860D01*
X96121853Y-87814443D01*
X96127699Y-87806561D01*
X96134289Y-87799289D01*
X96141561Y-87792699D01*
X96149443Y-87786853D01*
X96157860Y-87781808D01*
X96166732Y-87777612D01*
X96175972Y-87774306D01*
X96185491Y-87771921D01*
X96195198Y-87770482D01*
X96205000Y-87770000D01*
X97480000Y-87770000D01*
X97489802Y-87770482D01*
G37*
G36*
X97489802Y-87120482D02*
G01*
X97499509Y-87121921D01*
X97509028Y-87124306D01*
X97518268Y-87127612D01*
X97527140Y-87131808D01*
X97535557Y-87136853D01*
X97543439Y-87142699D01*
X97550711Y-87149289D01*
X97557301Y-87156561D01*
X97563147Y-87164443D01*
X97568192Y-87172860D01*
X97572388Y-87181732D01*
X97575694Y-87190972D01*
X97578079Y-87200491D01*
X97579518Y-87210198D01*
X97580000Y-87220000D01*
X97580000Y-87420000D01*
X97579518Y-87429802D01*
X97578079Y-87439509D01*
X97575694Y-87449028D01*
X97572388Y-87458268D01*
X97568192Y-87467140D01*
X97563147Y-87475557D01*
X97557301Y-87483439D01*
X97550711Y-87490711D01*
X97543439Y-87497301D01*
X97535557Y-87503147D01*
X97527140Y-87508192D01*
X97518268Y-87512388D01*
X97509028Y-87515694D01*
X97499509Y-87518079D01*
X97489802Y-87519518D01*
X97480000Y-87520000D01*
X96205000Y-87520000D01*
X96195198Y-87519518D01*
X96185491Y-87518079D01*
X96175972Y-87515694D01*
X96166732Y-87512388D01*
X96157860Y-87508192D01*
X96149443Y-87503147D01*
X96141561Y-87497301D01*
X96134289Y-87490711D01*
X96127699Y-87483439D01*
X96121853Y-87475557D01*
X96116808Y-87467140D01*
X96112612Y-87458268D01*
X96109306Y-87449028D01*
X96106921Y-87439509D01*
X96105482Y-87429802D01*
X96105000Y-87420000D01*
X96105000Y-87220000D01*
X96105482Y-87210198D01*
X96106921Y-87200491D01*
X96109306Y-87190972D01*
X96112612Y-87181732D01*
X96116808Y-87172860D01*
X96121853Y-87164443D01*
X96127699Y-87156561D01*
X96134289Y-87149289D01*
X96141561Y-87142699D01*
X96149443Y-87136853D01*
X96157860Y-87131808D01*
X96166732Y-87127612D01*
X96175972Y-87124306D01*
X96185491Y-87121921D01*
X96195198Y-87120482D01*
X96205000Y-87120000D01*
X97480000Y-87120000D01*
X97489802Y-87120482D01*
G37*
G36*
X97489802Y-86470482D02*
G01*
X97499509Y-86471921D01*
X97509028Y-86474306D01*
X97518268Y-86477612D01*
X97527140Y-86481808D01*
X97535557Y-86486853D01*
X97543439Y-86492699D01*
X97550711Y-86499289D01*
X97557301Y-86506561D01*
X97563147Y-86514443D01*
X97568192Y-86522860D01*
X97572388Y-86531732D01*
X97575694Y-86540972D01*
X97578079Y-86550491D01*
X97579518Y-86560198D01*
X97580000Y-86570000D01*
X97580000Y-86770000D01*
X97579518Y-86779802D01*
X97578079Y-86789509D01*
X97575694Y-86799028D01*
X97572388Y-86808268D01*
X97568192Y-86817140D01*
X97563147Y-86825557D01*
X97557301Y-86833439D01*
X97550711Y-86840711D01*
X97543439Y-86847301D01*
X97535557Y-86853147D01*
X97527140Y-86858192D01*
X97518268Y-86862388D01*
X97509028Y-86865694D01*
X97499509Y-86868079D01*
X97489802Y-86869518D01*
X97480000Y-86870000D01*
X96205000Y-86870000D01*
X96195198Y-86869518D01*
X96185491Y-86868079D01*
X96175972Y-86865694D01*
X96166732Y-86862388D01*
X96157860Y-86858192D01*
X96149443Y-86853147D01*
X96141561Y-86847301D01*
X96134289Y-86840711D01*
X96127699Y-86833439D01*
X96121853Y-86825557D01*
X96116808Y-86817140D01*
X96112612Y-86808268D01*
X96109306Y-86799028D01*
X96106921Y-86789509D01*
X96105482Y-86779802D01*
X96105000Y-86770000D01*
X96105000Y-86570000D01*
X96105482Y-86560198D01*
X96106921Y-86550491D01*
X96109306Y-86540972D01*
X96112612Y-86531732D01*
X96116808Y-86522860D01*
X96121853Y-86514443D01*
X96127699Y-86506561D01*
X96134289Y-86499289D01*
X96141561Y-86492699D01*
X96149443Y-86486853D01*
X96157860Y-86481808D01*
X96166732Y-86477612D01*
X96175972Y-86474306D01*
X96185491Y-86471921D01*
X96195198Y-86470482D01*
X96205000Y-86470000D01*
X97480000Y-86470000D01*
X97489802Y-86470482D01*
G37*
G36*
X97489802Y-85820482D02*
G01*
X97499509Y-85821921D01*
X97509028Y-85824306D01*
X97518268Y-85827612D01*
X97527140Y-85831808D01*
X97535557Y-85836853D01*
X97543439Y-85842699D01*
X97550711Y-85849289D01*
X97557301Y-85856561D01*
X97563147Y-85864443D01*
X97568192Y-85872860D01*
X97572388Y-85881732D01*
X97575694Y-85890972D01*
X97578079Y-85900491D01*
X97579518Y-85910198D01*
X97580000Y-85920000D01*
X97580000Y-86120000D01*
X97579518Y-86129802D01*
X97578079Y-86139509D01*
X97575694Y-86149028D01*
X97572388Y-86158268D01*
X97568192Y-86167140D01*
X97563147Y-86175557D01*
X97557301Y-86183439D01*
X97550711Y-86190711D01*
X97543439Y-86197301D01*
X97535557Y-86203147D01*
X97527140Y-86208192D01*
X97518268Y-86212388D01*
X97509028Y-86215694D01*
X97499509Y-86218079D01*
X97489802Y-86219518D01*
X97480000Y-86220000D01*
X96205000Y-86220000D01*
X96195198Y-86219518D01*
X96185491Y-86218079D01*
X96175972Y-86215694D01*
X96166732Y-86212388D01*
X96157860Y-86208192D01*
X96149443Y-86203147D01*
X96141561Y-86197301D01*
X96134289Y-86190711D01*
X96127699Y-86183439D01*
X96121853Y-86175557D01*
X96116808Y-86167140D01*
X96112612Y-86158268D01*
X96109306Y-86149028D01*
X96106921Y-86139509D01*
X96105482Y-86129802D01*
X96105000Y-86120000D01*
X96105000Y-85920000D01*
X96105482Y-85910198D01*
X96106921Y-85900491D01*
X96109306Y-85890972D01*
X96112612Y-85881732D01*
X96116808Y-85872860D01*
X96121853Y-85864443D01*
X96127699Y-85856561D01*
X96134289Y-85849289D01*
X96141561Y-85842699D01*
X96149443Y-85836853D01*
X96157860Y-85831808D01*
X96166732Y-85827612D01*
X96175972Y-85824306D01*
X96185491Y-85821921D01*
X96195198Y-85820482D01*
X96205000Y-85820000D01*
X97480000Y-85820000D01*
X97489802Y-85820482D01*
G37*
G36*
X97489802Y-85170482D02*
G01*
X97499509Y-85171921D01*
X97509028Y-85174306D01*
X97518268Y-85177612D01*
X97527140Y-85181808D01*
X97535557Y-85186853D01*
X97543439Y-85192699D01*
X97550711Y-85199289D01*
X97557301Y-85206561D01*
X97563147Y-85214443D01*
X97568192Y-85222860D01*
X97572388Y-85231732D01*
X97575694Y-85240972D01*
X97578079Y-85250491D01*
X97579518Y-85260198D01*
X97580000Y-85270000D01*
X97580000Y-85470000D01*
X97579518Y-85479802D01*
X97578079Y-85489509D01*
X97575694Y-85499028D01*
X97572388Y-85508268D01*
X97568192Y-85517140D01*
X97563147Y-85525557D01*
X97557301Y-85533439D01*
X97550711Y-85540711D01*
X97543439Y-85547301D01*
X97535557Y-85553147D01*
X97527140Y-85558192D01*
X97518268Y-85562388D01*
X97509028Y-85565694D01*
X97499509Y-85568079D01*
X97489802Y-85569518D01*
X97480000Y-85570000D01*
X96205000Y-85570000D01*
X96195198Y-85569518D01*
X96185491Y-85568079D01*
X96175972Y-85565694D01*
X96166732Y-85562388D01*
X96157860Y-85558192D01*
X96149443Y-85553147D01*
X96141561Y-85547301D01*
X96134289Y-85540711D01*
X96127699Y-85533439D01*
X96121853Y-85525557D01*
X96116808Y-85517140D01*
X96112612Y-85508268D01*
X96109306Y-85499028D01*
X96106921Y-85489509D01*
X96105482Y-85479802D01*
X96105000Y-85470000D01*
X96105000Y-85270000D01*
X96105482Y-85260198D01*
X96106921Y-85250491D01*
X96109306Y-85240972D01*
X96112612Y-85231732D01*
X96116808Y-85222860D01*
X96121853Y-85214443D01*
X96127699Y-85206561D01*
X96134289Y-85199289D01*
X96141561Y-85192699D01*
X96149443Y-85186853D01*
X96157860Y-85181808D01*
X96166732Y-85177612D01*
X96175972Y-85174306D01*
X96185491Y-85171921D01*
X96195198Y-85170482D01*
X96205000Y-85170000D01*
X97480000Y-85170000D01*
X97489802Y-85170482D01*
G37*
G36*
X97489802Y-84520482D02*
G01*
X97499509Y-84521921D01*
X97509028Y-84524306D01*
X97518268Y-84527612D01*
X97527140Y-84531808D01*
X97535557Y-84536853D01*
X97543439Y-84542699D01*
X97550711Y-84549289D01*
X97557301Y-84556561D01*
X97563147Y-84564443D01*
X97568192Y-84572860D01*
X97572388Y-84581732D01*
X97575694Y-84590972D01*
X97578079Y-84600491D01*
X97579518Y-84610198D01*
X97580000Y-84620000D01*
X97580000Y-84820000D01*
X97579518Y-84829802D01*
X97578079Y-84839509D01*
X97575694Y-84849028D01*
X97572388Y-84858268D01*
X97568192Y-84867140D01*
X97563147Y-84875557D01*
X97557301Y-84883439D01*
X97550711Y-84890711D01*
X97543439Y-84897301D01*
X97535557Y-84903147D01*
X97527140Y-84908192D01*
X97518268Y-84912388D01*
X97509028Y-84915694D01*
X97499509Y-84918079D01*
X97489802Y-84919518D01*
X97480000Y-84920000D01*
X96205000Y-84920000D01*
X96195198Y-84919518D01*
X96185491Y-84918079D01*
X96175972Y-84915694D01*
X96166732Y-84912388D01*
X96157860Y-84908192D01*
X96149443Y-84903147D01*
X96141561Y-84897301D01*
X96134289Y-84890711D01*
X96127699Y-84883439D01*
X96121853Y-84875557D01*
X96116808Y-84867140D01*
X96112612Y-84858268D01*
X96109306Y-84849028D01*
X96106921Y-84839509D01*
X96105482Y-84829802D01*
X96105000Y-84820000D01*
X96105000Y-84620000D01*
X96105482Y-84610198D01*
X96106921Y-84600491D01*
X96109306Y-84590972D01*
X96112612Y-84581732D01*
X96116808Y-84572860D01*
X96121853Y-84564443D01*
X96127699Y-84556561D01*
X96134289Y-84549289D01*
X96141561Y-84542699D01*
X96149443Y-84536853D01*
X96157860Y-84531808D01*
X96166732Y-84527612D01*
X96175972Y-84524306D01*
X96185491Y-84521921D01*
X96195198Y-84520482D01*
X96205000Y-84520000D01*
X97480000Y-84520000D01*
X97489802Y-84520482D01*
G37*
G36*
X91764802Y-84520482D02*
G01*
X91774509Y-84521921D01*
X91784028Y-84524306D01*
X91793268Y-84527612D01*
X91802140Y-84531808D01*
X91810557Y-84536853D01*
X91818439Y-84542699D01*
X91825711Y-84549289D01*
X91832301Y-84556561D01*
X91838147Y-84564443D01*
X91843192Y-84572860D01*
X91847388Y-84581732D01*
X91850694Y-84590972D01*
X91853079Y-84600491D01*
X91854518Y-84610198D01*
X91855000Y-84620000D01*
X91855000Y-84820000D01*
X91854518Y-84829802D01*
X91853079Y-84839509D01*
X91850694Y-84849028D01*
X91847388Y-84858268D01*
X91843192Y-84867140D01*
X91838147Y-84875557D01*
X91832301Y-84883439D01*
X91825711Y-84890711D01*
X91818439Y-84897301D01*
X91810557Y-84903147D01*
X91802140Y-84908192D01*
X91793268Y-84912388D01*
X91784028Y-84915694D01*
X91774509Y-84918079D01*
X91764802Y-84919518D01*
X91755000Y-84920000D01*
X90480000Y-84920000D01*
X90470198Y-84919518D01*
X90460491Y-84918079D01*
X90450972Y-84915694D01*
X90441732Y-84912388D01*
X90432860Y-84908192D01*
X90424443Y-84903147D01*
X90416561Y-84897301D01*
X90409289Y-84890711D01*
X90402699Y-84883439D01*
X90396853Y-84875557D01*
X90391808Y-84867140D01*
X90387612Y-84858268D01*
X90384306Y-84849028D01*
X90381921Y-84839509D01*
X90380482Y-84829802D01*
X90380000Y-84820000D01*
X90380000Y-84620000D01*
X90380482Y-84610198D01*
X90381921Y-84600491D01*
X90384306Y-84590972D01*
X90387612Y-84581732D01*
X90391808Y-84572860D01*
X90396853Y-84564443D01*
X90402699Y-84556561D01*
X90409289Y-84549289D01*
X90416561Y-84542699D01*
X90424443Y-84536853D01*
X90432860Y-84531808D01*
X90441732Y-84527612D01*
X90450972Y-84524306D01*
X90460491Y-84521921D01*
X90470198Y-84520482D01*
X90480000Y-84520000D01*
X91755000Y-84520000D01*
X91764802Y-84520482D01*
G37*
G36*
X91764802Y-85170482D02*
G01*
X91774509Y-85171921D01*
X91784028Y-85174306D01*
X91793268Y-85177612D01*
X91802140Y-85181808D01*
X91810557Y-85186853D01*
X91818439Y-85192699D01*
X91825711Y-85199289D01*
X91832301Y-85206561D01*
X91838147Y-85214443D01*
X91843192Y-85222860D01*
X91847388Y-85231732D01*
X91850694Y-85240972D01*
X91853079Y-85250491D01*
X91854518Y-85260198D01*
X91855000Y-85270000D01*
X91855000Y-85470000D01*
X91854518Y-85479802D01*
X91853079Y-85489509D01*
X91850694Y-85499028D01*
X91847388Y-85508268D01*
X91843192Y-85517140D01*
X91838147Y-85525557D01*
X91832301Y-85533439D01*
X91825711Y-85540711D01*
X91818439Y-85547301D01*
X91810557Y-85553147D01*
X91802140Y-85558192D01*
X91793268Y-85562388D01*
X91784028Y-85565694D01*
X91774509Y-85568079D01*
X91764802Y-85569518D01*
X91755000Y-85570000D01*
X90480000Y-85570000D01*
X90470198Y-85569518D01*
X90460491Y-85568079D01*
X90450972Y-85565694D01*
X90441732Y-85562388D01*
X90432860Y-85558192D01*
X90424443Y-85553147D01*
X90416561Y-85547301D01*
X90409289Y-85540711D01*
X90402699Y-85533439D01*
X90396853Y-85525557D01*
X90391808Y-85517140D01*
X90387612Y-85508268D01*
X90384306Y-85499028D01*
X90381921Y-85489509D01*
X90380482Y-85479802D01*
X90380000Y-85470000D01*
X90380000Y-85270000D01*
X90380482Y-85260198D01*
X90381921Y-85250491D01*
X90384306Y-85240972D01*
X90387612Y-85231732D01*
X90391808Y-85222860D01*
X90396853Y-85214443D01*
X90402699Y-85206561D01*
X90409289Y-85199289D01*
X90416561Y-85192699D01*
X90424443Y-85186853D01*
X90432860Y-85181808D01*
X90441732Y-85177612D01*
X90450972Y-85174306D01*
X90460491Y-85171921D01*
X90470198Y-85170482D01*
X90480000Y-85170000D01*
X91755000Y-85170000D01*
X91764802Y-85170482D01*
G37*
G36*
X91764802Y-85820482D02*
G01*
X91774509Y-85821921D01*
X91784028Y-85824306D01*
X91793268Y-85827612D01*
X91802140Y-85831808D01*
X91810557Y-85836853D01*
X91818439Y-85842699D01*
X91825711Y-85849289D01*
X91832301Y-85856561D01*
X91838147Y-85864443D01*
X91843192Y-85872860D01*
X91847388Y-85881732D01*
X91850694Y-85890972D01*
X91853079Y-85900491D01*
X91854518Y-85910198D01*
X91855000Y-85920000D01*
X91855000Y-86120000D01*
X91854518Y-86129802D01*
X91853079Y-86139509D01*
X91850694Y-86149028D01*
X91847388Y-86158268D01*
X91843192Y-86167140D01*
X91838147Y-86175557D01*
X91832301Y-86183439D01*
X91825711Y-86190711D01*
X91818439Y-86197301D01*
X91810557Y-86203147D01*
X91802140Y-86208192D01*
X91793268Y-86212388D01*
X91784028Y-86215694D01*
X91774509Y-86218079D01*
X91764802Y-86219518D01*
X91755000Y-86220000D01*
X90480000Y-86220000D01*
X90470198Y-86219518D01*
X90460491Y-86218079D01*
X90450972Y-86215694D01*
X90441732Y-86212388D01*
X90432860Y-86208192D01*
X90424443Y-86203147D01*
X90416561Y-86197301D01*
X90409289Y-86190711D01*
X90402699Y-86183439D01*
X90396853Y-86175557D01*
X90391808Y-86167140D01*
X90387612Y-86158268D01*
X90384306Y-86149028D01*
X90381921Y-86139509D01*
X90380482Y-86129802D01*
X90380000Y-86120000D01*
X90380000Y-85920000D01*
X90380482Y-85910198D01*
X90381921Y-85900491D01*
X90384306Y-85890972D01*
X90387612Y-85881732D01*
X90391808Y-85872860D01*
X90396853Y-85864443D01*
X90402699Y-85856561D01*
X90409289Y-85849289D01*
X90416561Y-85842699D01*
X90424443Y-85836853D01*
X90432860Y-85831808D01*
X90441732Y-85827612D01*
X90450972Y-85824306D01*
X90460491Y-85821921D01*
X90470198Y-85820482D01*
X90480000Y-85820000D01*
X91755000Y-85820000D01*
X91764802Y-85820482D01*
G37*
G36*
X91764802Y-86470482D02*
G01*
X91774509Y-86471921D01*
X91784028Y-86474306D01*
X91793268Y-86477612D01*
X91802140Y-86481808D01*
X91810557Y-86486853D01*
X91818439Y-86492699D01*
X91825711Y-86499289D01*
X91832301Y-86506561D01*
X91838147Y-86514443D01*
X91843192Y-86522860D01*
X91847388Y-86531732D01*
X91850694Y-86540972D01*
X91853079Y-86550491D01*
X91854518Y-86560198D01*
X91855000Y-86570000D01*
X91855000Y-86770000D01*
X91854518Y-86779802D01*
X91853079Y-86789509D01*
X91850694Y-86799028D01*
X91847388Y-86808268D01*
X91843192Y-86817140D01*
X91838147Y-86825557D01*
X91832301Y-86833439D01*
X91825711Y-86840711D01*
X91818439Y-86847301D01*
X91810557Y-86853147D01*
X91802140Y-86858192D01*
X91793268Y-86862388D01*
X91784028Y-86865694D01*
X91774509Y-86868079D01*
X91764802Y-86869518D01*
X91755000Y-86870000D01*
X90480000Y-86870000D01*
X90470198Y-86869518D01*
X90460491Y-86868079D01*
X90450972Y-86865694D01*
X90441732Y-86862388D01*
X90432860Y-86858192D01*
X90424443Y-86853147D01*
X90416561Y-86847301D01*
X90409289Y-86840711D01*
X90402699Y-86833439D01*
X90396853Y-86825557D01*
X90391808Y-86817140D01*
X90387612Y-86808268D01*
X90384306Y-86799028D01*
X90381921Y-86789509D01*
X90380482Y-86779802D01*
X90380000Y-86770000D01*
X90380000Y-86570000D01*
X90380482Y-86560198D01*
X90381921Y-86550491D01*
X90384306Y-86540972D01*
X90387612Y-86531732D01*
X90391808Y-86522860D01*
X90396853Y-86514443D01*
X90402699Y-86506561D01*
X90409289Y-86499289D01*
X90416561Y-86492699D01*
X90424443Y-86486853D01*
X90432860Y-86481808D01*
X90441732Y-86477612D01*
X90450972Y-86474306D01*
X90460491Y-86471921D01*
X90470198Y-86470482D01*
X90480000Y-86470000D01*
X91755000Y-86470000D01*
X91764802Y-86470482D01*
G37*
G36*
X91764802Y-87120482D02*
G01*
X91774509Y-87121921D01*
X91784028Y-87124306D01*
X91793268Y-87127612D01*
X91802140Y-87131808D01*
X91810557Y-87136853D01*
X91818439Y-87142699D01*
X91825711Y-87149289D01*
X91832301Y-87156561D01*
X91838147Y-87164443D01*
X91843192Y-87172860D01*
X91847388Y-87181732D01*
X91850694Y-87190972D01*
X91853079Y-87200491D01*
X91854518Y-87210198D01*
X91855000Y-87220000D01*
X91855000Y-87420000D01*
X91854518Y-87429802D01*
X91853079Y-87439509D01*
X91850694Y-87449028D01*
X91847388Y-87458268D01*
X91843192Y-87467140D01*
X91838147Y-87475557D01*
X91832301Y-87483439D01*
X91825711Y-87490711D01*
X91818439Y-87497301D01*
X91810557Y-87503147D01*
X91802140Y-87508192D01*
X91793268Y-87512388D01*
X91784028Y-87515694D01*
X91774509Y-87518079D01*
X91764802Y-87519518D01*
X91755000Y-87520000D01*
X90480000Y-87520000D01*
X90470198Y-87519518D01*
X90460491Y-87518079D01*
X90450972Y-87515694D01*
X90441732Y-87512388D01*
X90432860Y-87508192D01*
X90424443Y-87503147D01*
X90416561Y-87497301D01*
X90409289Y-87490711D01*
X90402699Y-87483439D01*
X90396853Y-87475557D01*
X90391808Y-87467140D01*
X90387612Y-87458268D01*
X90384306Y-87449028D01*
X90381921Y-87439509D01*
X90380482Y-87429802D01*
X90380000Y-87420000D01*
X90380000Y-87220000D01*
X90380482Y-87210198D01*
X90381921Y-87200491D01*
X90384306Y-87190972D01*
X90387612Y-87181732D01*
X90391808Y-87172860D01*
X90396853Y-87164443D01*
X90402699Y-87156561D01*
X90409289Y-87149289D01*
X90416561Y-87142699D01*
X90424443Y-87136853D01*
X90432860Y-87131808D01*
X90441732Y-87127612D01*
X90450972Y-87124306D01*
X90460491Y-87121921D01*
X90470198Y-87120482D01*
X90480000Y-87120000D01*
X91755000Y-87120000D01*
X91764802Y-87120482D01*
G37*
G36*
X91764802Y-87770482D02*
G01*
X91774509Y-87771921D01*
X91784028Y-87774306D01*
X91793268Y-87777612D01*
X91802140Y-87781808D01*
X91810557Y-87786853D01*
X91818439Y-87792699D01*
X91825711Y-87799289D01*
X91832301Y-87806561D01*
X91838147Y-87814443D01*
X91843192Y-87822860D01*
X91847388Y-87831732D01*
X91850694Y-87840972D01*
X91853079Y-87850491D01*
X91854518Y-87860198D01*
X91855000Y-87870000D01*
X91855000Y-88070000D01*
X91854518Y-88079802D01*
X91853079Y-88089509D01*
X91850694Y-88099028D01*
X91847388Y-88108268D01*
X91843192Y-88117140D01*
X91838147Y-88125557D01*
X91832301Y-88133439D01*
X91825711Y-88140711D01*
X91818439Y-88147301D01*
X91810557Y-88153147D01*
X91802140Y-88158192D01*
X91793268Y-88162388D01*
X91784028Y-88165694D01*
X91774509Y-88168079D01*
X91764802Y-88169518D01*
X91755000Y-88170000D01*
X90480000Y-88170000D01*
X90470198Y-88169518D01*
X90460491Y-88168079D01*
X90450972Y-88165694D01*
X90441732Y-88162388D01*
X90432860Y-88158192D01*
X90424443Y-88153147D01*
X90416561Y-88147301D01*
X90409289Y-88140711D01*
X90402699Y-88133439D01*
X90396853Y-88125557D01*
X90391808Y-88117140D01*
X90387612Y-88108268D01*
X90384306Y-88099028D01*
X90381921Y-88089509D01*
X90380482Y-88079802D01*
X90380000Y-88070000D01*
X90380000Y-87870000D01*
X90380482Y-87860198D01*
X90381921Y-87850491D01*
X90384306Y-87840972D01*
X90387612Y-87831732D01*
X90391808Y-87822860D01*
X90396853Y-87814443D01*
X90402699Y-87806561D01*
X90409289Y-87799289D01*
X90416561Y-87792699D01*
X90424443Y-87786853D01*
X90432860Y-87781808D01*
X90441732Y-87777612D01*
X90450972Y-87774306D01*
X90460491Y-87771921D01*
X90470198Y-87770482D01*
X90480000Y-87770000D01*
X91755000Y-87770000D01*
X91764802Y-87770482D01*
G37*
G36*
X91764802Y-88420482D02*
G01*
X91774509Y-88421921D01*
X91784028Y-88424306D01*
X91793268Y-88427612D01*
X91802140Y-88431808D01*
X91810557Y-88436853D01*
X91818439Y-88442699D01*
X91825711Y-88449289D01*
X91832301Y-88456561D01*
X91838147Y-88464443D01*
X91843192Y-88472860D01*
X91847388Y-88481732D01*
X91850694Y-88490972D01*
X91853079Y-88500491D01*
X91854518Y-88510198D01*
X91855000Y-88520000D01*
X91855000Y-88720000D01*
X91854518Y-88729802D01*
X91853079Y-88739509D01*
X91850694Y-88749028D01*
X91847388Y-88758268D01*
X91843192Y-88767140D01*
X91838147Y-88775557D01*
X91832301Y-88783439D01*
X91825711Y-88790711D01*
X91818439Y-88797301D01*
X91810557Y-88803147D01*
X91802140Y-88808192D01*
X91793268Y-88812388D01*
X91784028Y-88815694D01*
X91774509Y-88818079D01*
X91764802Y-88819518D01*
X91755000Y-88820000D01*
X90480000Y-88820000D01*
X90470198Y-88819518D01*
X90460491Y-88818079D01*
X90450972Y-88815694D01*
X90441732Y-88812388D01*
X90432860Y-88808192D01*
X90424443Y-88803147D01*
X90416561Y-88797301D01*
X90409289Y-88790711D01*
X90402699Y-88783439D01*
X90396853Y-88775557D01*
X90391808Y-88767140D01*
X90387612Y-88758268D01*
X90384306Y-88749028D01*
X90381921Y-88739509D01*
X90380482Y-88729802D01*
X90380000Y-88720000D01*
X90380000Y-88520000D01*
X90380482Y-88510198D01*
X90381921Y-88500491D01*
X90384306Y-88490972D01*
X90387612Y-88481732D01*
X90391808Y-88472860D01*
X90396853Y-88464443D01*
X90402699Y-88456561D01*
X90409289Y-88449289D01*
X90416561Y-88442699D01*
X90424443Y-88436853D01*
X90432860Y-88431808D01*
X90441732Y-88427612D01*
X90450972Y-88424306D01*
X90460491Y-88421921D01*
X90470198Y-88420482D01*
X90480000Y-88420000D01*
X91755000Y-88420000D01*
X91764802Y-88420482D01*
G37*
G36*
X91764802Y-89070482D02*
G01*
X91774509Y-89071921D01*
X91784028Y-89074306D01*
X91793268Y-89077612D01*
X91802140Y-89081808D01*
X91810557Y-89086853D01*
X91818439Y-89092699D01*
X91825711Y-89099289D01*
X91832301Y-89106561D01*
X91838147Y-89114443D01*
X91843192Y-89122860D01*
X91847388Y-89131732D01*
X91850694Y-89140972D01*
X91853079Y-89150491D01*
X91854518Y-89160198D01*
X91855000Y-89170000D01*
X91855000Y-89370000D01*
X91854518Y-89379802D01*
X91853079Y-89389509D01*
X91850694Y-89399028D01*
X91847388Y-89408268D01*
X91843192Y-89417140D01*
X91838147Y-89425557D01*
X91832301Y-89433439D01*
X91825711Y-89440711D01*
X91818439Y-89447301D01*
X91810557Y-89453147D01*
X91802140Y-89458192D01*
X91793268Y-89462388D01*
X91784028Y-89465694D01*
X91774509Y-89468079D01*
X91764802Y-89469518D01*
X91755000Y-89470000D01*
X90480000Y-89470000D01*
X90470198Y-89469518D01*
X90460491Y-89468079D01*
X90450972Y-89465694D01*
X90441732Y-89462388D01*
X90432860Y-89458192D01*
X90424443Y-89453147D01*
X90416561Y-89447301D01*
X90409289Y-89440711D01*
X90402699Y-89433439D01*
X90396853Y-89425557D01*
X90391808Y-89417140D01*
X90387612Y-89408268D01*
X90384306Y-89399028D01*
X90381921Y-89389509D01*
X90380482Y-89379802D01*
X90380000Y-89370000D01*
X90380000Y-89170000D01*
X90380482Y-89160198D01*
X90381921Y-89150491D01*
X90384306Y-89140972D01*
X90387612Y-89131732D01*
X90391808Y-89122860D01*
X90396853Y-89114443D01*
X90402699Y-89106561D01*
X90409289Y-89099289D01*
X90416561Y-89092699D01*
X90424443Y-89086853D01*
X90432860Y-89081808D01*
X90441732Y-89077612D01*
X90450972Y-89074306D01*
X90460491Y-89071921D01*
X90470198Y-89070482D01*
X90480000Y-89070000D01*
X91755000Y-89070000D01*
X91764802Y-89070482D01*
G37*
G36*
X97489802Y-82720482D02*
G01*
X97499509Y-82721921D01*
X97509028Y-82724306D01*
X97518268Y-82727612D01*
X97527140Y-82731808D01*
X97535557Y-82736853D01*
X97543439Y-82742699D01*
X97550711Y-82749289D01*
X97557301Y-82756561D01*
X97563147Y-82764443D01*
X97568192Y-82772860D01*
X97572388Y-82781732D01*
X97575694Y-82790972D01*
X97578079Y-82800491D01*
X97579518Y-82810198D01*
X97580000Y-82820000D01*
X97580000Y-83020000D01*
X97579518Y-83029802D01*
X97578079Y-83039509D01*
X97575694Y-83049028D01*
X97572388Y-83058268D01*
X97568192Y-83067140D01*
X97563147Y-83075557D01*
X97557301Y-83083439D01*
X97550711Y-83090711D01*
X97543439Y-83097301D01*
X97535557Y-83103147D01*
X97527140Y-83108192D01*
X97518268Y-83112388D01*
X97509028Y-83115694D01*
X97499509Y-83118079D01*
X97489802Y-83119518D01*
X97480000Y-83120000D01*
X96205000Y-83120000D01*
X96195198Y-83119518D01*
X96185491Y-83118079D01*
X96175972Y-83115694D01*
X96166732Y-83112388D01*
X96157860Y-83108192D01*
X96149443Y-83103147D01*
X96141561Y-83097301D01*
X96134289Y-83090711D01*
X96127699Y-83083439D01*
X96121853Y-83075557D01*
X96116808Y-83067140D01*
X96112612Y-83058268D01*
X96109306Y-83049028D01*
X96106921Y-83039509D01*
X96105482Y-83029802D01*
X96105000Y-83020000D01*
X96105000Y-82820000D01*
X96105482Y-82810198D01*
X96106921Y-82800491D01*
X96109306Y-82790972D01*
X96112612Y-82781732D01*
X96116808Y-82772860D01*
X96121853Y-82764443D01*
X96127699Y-82756561D01*
X96134289Y-82749289D01*
X96141561Y-82742699D01*
X96149443Y-82736853D01*
X96157860Y-82731808D01*
X96166732Y-82727612D01*
X96175972Y-82724306D01*
X96185491Y-82721921D01*
X96195198Y-82720482D01*
X96205000Y-82720000D01*
X97480000Y-82720000D01*
X97489802Y-82720482D01*
G37*
G36*
X97489802Y-82070482D02*
G01*
X97499509Y-82071921D01*
X97509028Y-82074306D01*
X97518268Y-82077612D01*
X97527140Y-82081808D01*
X97535557Y-82086853D01*
X97543439Y-82092699D01*
X97550711Y-82099289D01*
X97557301Y-82106561D01*
X97563147Y-82114443D01*
X97568192Y-82122860D01*
X97572388Y-82131732D01*
X97575694Y-82140972D01*
X97578079Y-82150491D01*
X97579518Y-82160198D01*
X97580000Y-82170000D01*
X97580000Y-82370000D01*
X97579518Y-82379802D01*
X97578079Y-82389509D01*
X97575694Y-82399028D01*
X97572388Y-82408268D01*
X97568192Y-82417140D01*
X97563147Y-82425557D01*
X97557301Y-82433439D01*
X97550711Y-82440711D01*
X97543439Y-82447301D01*
X97535557Y-82453147D01*
X97527140Y-82458192D01*
X97518268Y-82462388D01*
X97509028Y-82465694D01*
X97499509Y-82468079D01*
X97489802Y-82469518D01*
X97480000Y-82470000D01*
X96205000Y-82470000D01*
X96195198Y-82469518D01*
X96185491Y-82468079D01*
X96175972Y-82465694D01*
X96166732Y-82462388D01*
X96157860Y-82458192D01*
X96149443Y-82453147D01*
X96141561Y-82447301D01*
X96134289Y-82440711D01*
X96127699Y-82433439D01*
X96121853Y-82425557D01*
X96116808Y-82417140D01*
X96112612Y-82408268D01*
X96109306Y-82399028D01*
X96106921Y-82389509D01*
X96105482Y-82379802D01*
X96105000Y-82370000D01*
X96105000Y-82170000D01*
X96105482Y-82160198D01*
X96106921Y-82150491D01*
X96109306Y-82140972D01*
X96112612Y-82131732D01*
X96116808Y-82122860D01*
X96121853Y-82114443D01*
X96127699Y-82106561D01*
X96134289Y-82099289D01*
X96141561Y-82092699D01*
X96149443Y-82086853D01*
X96157860Y-82081808D01*
X96166732Y-82077612D01*
X96175972Y-82074306D01*
X96185491Y-82071921D01*
X96195198Y-82070482D01*
X96205000Y-82070000D01*
X97480000Y-82070000D01*
X97489802Y-82070482D01*
G37*
G36*
X97489802Y-81420482D02*
G01*
X97499509Y-81421921D01*
X97509028Y-81424306D01*
X97518268Y-81427612D01*
X97527140Y-81431808D01*
X97535557Y-81436853D01*
X97543439Y-81442699D01*
X97550711Y-81449289D01*
X97557301Y-81456561D01*
X97563147Y-81464443D01*
X97568192Y-81472860D01*
X97572388Y-81481732D01*
X97575694Y-81490972D01*
X97578079Y-81500491D01*
X97579518Y-81510198D01*
X97580000Y-81520000D01*
X97580000Y-81720000D01*
X97579518Y-81729802D01*
X97578079Y-81739509D01*
X97575694Y-81749028D01*
X97572388Y-81758268D01*
X97568192Y-81767140D01*
X97563147Y-81775557D01*
X97557301Y-81783439D01*
X97550711Y-81790711D01*
X97543439Y-81797301D01*
X97535557Y-81803147D01*
X97527140Y-81808192D01*
X97518268Y-81812388D01*
X97509028Y-81815694D01*
X97499509Y-81818079D01*
X97489802Y-81819518D01*
X97480000Y-81820000D01*
X96205000Y-81820000D01*
X96195198Y-81819518D01*
X96185491Y-81818079D01*
X96175972Y-81815694D01*
X96166732Y-81812388D01*
X96157860Y-81808192D01*
X96149443Y-81803147D01*
X96141561Y-81797301D01*
X96134289Y-81790711D01*
X96127699Y-81783439D01*
X96121853Y-81775557D01*
X96116808Y-81767140D01*
X96112612Y-81758268D01*
X96109306Y-81749028D01*
X96106921Y-81739509D01*
X96105482Y-81729802D01*
X96105000Y-81720000D01*
X96105000Y-81520000D01*
X96105482Y-81510198D01*
X96106921Y-81500491D01*
X96109306Y-81490972D01*
X96112612Y-81481732D01*
X96116808Y-81472860D01*
X96121853Y-81464443D01*
X96127699Y-81456561D01*
X96134289Y-81449289D01*
X96141561Y-81442699D01*
X96149443Y-81436853D01*
X96157860Y-81431808D01*
X96166732Y-81427612D01*
X96175972Y-81424306D01*
X96185491Y-81421921D01*
X96195198Y-81420482D01*
X96205000Y-81420000D01*
X97480000Y-81420000D01*
X97489802Y-81420482D01*
G37*
G36*
X97489802Y-80770482D02*
G01*
X97499509Y-80771921D01*
X97509028Y-80774306D01*
X97518268Y-80777612D01*
X97527140Y-80781808D01*
X97535557Y-80786853D01*
X97543439Y-80792699D01*
X97550711Y-80799289D01*
X97557301Y-80806561D01*
X97563147Y-80814443D01*
X97568192Y-80822860D01*
X97572388Y-80831732D01*
X97575694Y-80840972D01*
X97578079Y-80850491D01*
X97579518Y-80860198D01*
X97580000Y-80870000D01*
X97580000Y-81070000D01*
X97579518Y-81079802D01*
X97578079Y-81089509D01*
X97575694Y-81099028D01*
X97572388Y-81108268D01*
X97568192Y-81117140D01*
X97563147Y-81125557D01*
X97557301Y-81133439D01*
X97550711Y-81140711D01*
X97543439Y-81147301D01*
X97535557Y-81153147D01*
X97527140Y-81158192D01*
X97518268Y-81162388D01*
X97509028Y-81165694D01*
X97499509Y-81168079D01*
X97489802Y-81169518D01*
X97480000Y-81170000D01*
X96205000Y-81170000D01*
X96195198Y-81169518D01*
X96185491Y-81168079D01*
X96175972Y-81165694D01*
X96166732Y-81162388D01*
X96157860Y-81158192D01*
X96149443Y-81153147D01*
X96141561Y-81147301D01*
X96134289Y-81140711D01*
X96127699Y-81133439D01*
X96121853Y-81125557D01*
X96116808Y-81117140D01*
X96112612Y-81108268D01*
X96109306Y-81099028D01*
X96106921Y-81089509D01*
X96105482Y-81079802D01*
X96105000Y-81070000D01*
X96105000Y-80870000D01*
X96105482Y-80860198D01*
X96106921Y-80850491D01*
X96109306Y-80840972D01*
X96112612Y-80831732D01*
X96116808Y-80822860D01*
X96121853Y-80814443D01*
X96127699Y-80806561D01*
X96134289Y-80799289D01*
X96141561Y-80792699D01*
X96149443Y-80786853D01*
X96157860Y-80781808D01*
X96166732Y-80777612D01*
X96175972Y-80774306D01*
X96185491Y-80771921D01*
X96195198Y-80770482D01*
X96205000Y-80770000D01*
X97480000Y-80770000D01*
X97489802Y-80770482D01*
G37*
G36*
X97489802Y-80120482D02*
G01*
X97499509Y-80121921D01*
X97509028Y-80124306D01*
X97518268Y-80127612D01*
X97527140Y-80131808D01*
X97535557Y-80136853D01*
X97543439Y-80142699D01*
X97550711Y-80149289D01*
X97557301Y-80156561D01*
X97563147Y-80164443D01*
X97568192Y-80172860D01*
X97572388Y-80181732D01*
X97575694Y-80190972D01*
X97578079Y-80200491D01*
X97579518Y-80210198D01*
X97580000Y-80220000D01*
X97580000Y-80420000D01*
X97579518Y-80429802D01*
X97578079Y-80439509D01*
X97575694Y-80449028D01*
X97572388Y-80458268D01*
X97568192Y-80467140D01*
X97563147Y-80475557D01*
X97557301Y-80483439D01*
X97550711Y-80490711D01*
X97543439Y-80497301D01*
X97535557Y-80503147D01*
X97527140Y-80508192D01*
X97518268Y-80512388D01*
X97509028Y-80515694D01*
X97499509Y-80518079D01*
X97489802Y-80519518D01*
X97480000Y-80520000D01*
X96205000Y-80520000D01*
X96195198Y-80519518D01*
X96185491Y-80518079D01*
X96175972Y-80515694D01*
X96166732Y-80512388D01*
X96157860Y-80508192D01*
X96149443Y-80503147D01*
X96141561Y-80497301D01*
X96134289Y-80490711D01*
X96127699Y-80483439D01*
X96121853Y-80475557D01*
X96116808Y-80467140D01*
X96112612Y-80458268D01*
X96109306Y-80449028D01*
X96106921Y-80439509D01*
X96105482Y-80429802D01*
X96105000Y-80420000D01*
X96105000Y-80220000D01*
X96105482Y-80210198D01*
X96106921Y-80200491D01*
X96109306Y-80190972D01*
X96112612Y-80181732D01*
X96116808Y-80172860D01*
X96121853Y-80164443D01*
X96127699Y-80156561D01*
X96134289Y-80149289D01*
X96141561Y-80142699D01*
X96149443Y-80136853D01*
X96157860Y-80131808D01*
X96166732Y-80127612D01*
X96175972Y-80124306D01*
X96185491Y-80121921D01*
X96195198Y-80120482D01*
X96205000Y-80120000D01*
X97480000Y-80120000D01*
X97489802Y-80120482D01*
G37*
G36*
X97489802Y-79470482D02*
G01*
X97499509Y-79471921D01*
X97509028Y-79474306D01*
X97518268Y-79477612D01*
X97527140Y-79481808D01*
X97535557Y-79486853D01*
X97543439Y-79492699D01*
X97550711Y-79499289D01*
X97557301Y-79506561D01*
X97563147Y-79514443D01*
X97568192Y-79522860D01*
X97572388Y-79531732D01*
X97575694Y-79540972D01*
X97578079Y-79550491D01*
X97579518Y-79560198D01*
X97580000Y-79570000D01*
X97580000Y-79770000D01*
X97579518Y-79779802D01*
X97578079Y-79789509D01*
X97575694Y-79799028D01*
X97572388Y-79808268D01*
X97568192Y-79817140D01*
X97563147Y-79825557D01*
X97557301Y-79833439D01*
X97550711Y-79840711D01*
X97543439Y-79847301D01*
X97535557Y-79853147D01*
X97527140Y-79858192D01*
X97518268Y-79862388D01*
X97509028Y-79865694D01*
X97499509Y-79868079D01*
X97489802Y-79869518D01*
X97480000Y-79870000D01*
X96205000Y-79870000D01*
X96195198Y-79869518D01*
X96185491Y-79868079D01*
X96175972Y-79865694D01*
X96166732Y-79862388D01*
X96157860Y-79858192D01*
X96149443Y-79853147D01*
X96141561Y-79847301D01*
X96134289Y-79840711D01*
X96127699Y-79833439D01*
X96121853Y-79825557D01*
X96116808Y-79817140D01*
X96112612Y-79808268D01*
X96109306Y-79799028D01*
X96106921Y-79789509D01*
X96105482Y-79779802D01*
X96105000Y-79770000D01*
X96105000Y-79570000D01*
X96105482Y-79560198D01*
X96106921Y-79550491D01*
X96109306Y-79540972D01*
X96112612Y-79531732D01*
X96116808Y-79522860D01*
X96121853Y-79514443D01*
X96127699Y-79506561D01*
X96134289Y-79499289D01*
X96141561Y-79492699D01*
X96149443Y-79486853D01*
X96157860Y-79481808D01*
X96166732Y-79477612D01*
X96175972Y-79474306D01*
X96185491Y-79471921D01*
X96195198Y-79470482D01*
X96205000Y-79470000D01*
X97480000Y-79470000D01*
X97489802Y-79470482D01*
G37*
G36*
X97489802Y-78820482D02*
G01*
X97499509Y-78821921D01*
X97509028Y-78824306D01*
X97518268Y-78827612D01*
X97527140Y-78831808D01*
X97535557Y-78836853D01*
X97543439Y-78842699D01*
X97550711Y-78849289D01*
X97557301Y-78856561D01*
X97563147Y-78864443D01*
X97568192Y-78872860D01*
X97572388Y-78881732D01*
X97575694Y-78890972D01*
X97578079Y-78900491D01*
X97579518Y-78910198D01*
X97580000Y-78920000D01*
X97580000Y-79120000D01*
X97579518Y-79129802D01*
X97578079Y-79139509D01*
X97575694Y-79149028D01*
X97572388Y-79158268D01*
X97568192Y-79167140D01*
X97563147Y-79175557D01*
X97557301Y-79183439D01*
X97550711Y-79190711D01*
X97543439Y-79197301D01*
X97535557Y-79203147D01*
X97527140Y-79208192D01*
X97518268Y-79212388D01*
X97509028Y-79215694D01*
X97499509Y-79218079D01*
X97489802Y-79219518D01*
X97480000Y-79220000D01*
X96205000Y-79220000D01*
X96195198Y-79219518D01*
X96185491Y-79218079D01*
X96175972Y-79215694D01*
X96166732Y-79212388D01*
X96157860Y-79208192D01*
X96149443Y-79203147D01*
X96141561Y-79197301D01*
X96134289Y-79190711D01*
X96127699Y-79183439D01*
X96121853Y-79175557D01*
X96116808Y-79167140D01*
X96112612Y-79158268D01*
X96109306Y-79149028D01*
X96106921Y-79139509D01*
X96105482Y-79129802D01*
X96105000Y-79120000D01*
X96105000Y-78920000D01*
X96105482Y-78910198D01*
X96106921Y-78900491D01*
X96109306Y-78890972D01*
X96112612Y-78881732D01*
X96116808Y-78872860D01*
X96121853Y-78864443D01*
X96127699Y-78856561D01*
X96134289Y-78849289D01*
X96141561Y-78842699D01*
X96149443Y-78836853D01*
X96157860Y-78831808D01*
X96166732Y-78827612D01*
X96175972Y-78824306D01*
X96185491Y-78821921D01*
X96195198Y-78820482D01*
X96205000Y-78820000D01*
X97480000Y-78820000D01*
X97489802Y-78820482D01*
G37*
G36*
X97489802Y-78170482D02*
G01*
X97499509Y-78171921D01*
X97509028Y-78174306D01*
X97518268Y-78177612D01*
X97527140Y-78181808D01*
X97535557Y-78186853D01*
X97543439Y-78192699D01*
X97550711Y-78199289D01*
X97557301Y-78206561D01*
X97563147Y-78214443D01*
X97568192Y-78222860D01*
X97572388Y-78231732D01*
X97575694Y-78240972D01*
X97578079Y-78250491D01*
X97579518Y-78260198D01*
X97580000Y-78270000D01*
X97580000Y-78470000D01*
X97579518Y-78479802D01*
X97578079Y-78489509D01*
X97575694Y-78499028D01*
X97572388Y-78508268D01*
X97568192Y-78517140D01*
X97563147Y-78525557D01*
X97557301Y-78533439D01*
X97550711Y-78540711D01*
X97543439Y-78547301D01*
X97535557Y-78553147D01*
X97527140Y-78558192D01*
X97518268Y-78562388D01*
X97509028Y-78565694D01*
X97499509Y-78568079D01*
X97489802Y-78569518D01*
X97480000Y-78570000D01*
X96205000Y-78570000D01*
X96195198Y-78569518D01*
X96185491Y-78568079D01*
X96175972Y-78565694D01*
X96166732Y-78562388D01*
X96157860Y-78558192D01*
X96149443Y-78553147D01*
X96141561Y-78547301D01*
X96134289Y-78540711D01*
X96127699Y-78533439D01*
X96121853Y-78525557D01*
X96116808Y-78517140D01*
X96112612Y-78508268D01*
X96109306Y-78499028D01*
X96106921Y-78489509D01*
X96105482Y-78479802D01*
X96105000Y-78470000D01*
X96105000Y-78270000D01*
X96105482Y-78260198D01*
X96106921Y-78250491D01*
X96109306Y-78240972D01*
X96112612Y-78231732D01*
X96116808Y-78222860D01*
X96121853Y-78214443D01*
X96127699Y-78206561D01*
X96134289Y-78199289D01*
X96141561Y-78192699D01*
X96149443Y-78186853D01*
X96157860Y-78181808D01*
X96166732Y-78177612D01*
X96175972Y-78174306D01*
X96185491Y-78171921D01*
X96195198Y-78170482D01*
X96205000Y-78170000D01*
X97480000Y-78170000D01*
X97489802Y-78170482D01*
G37*
G36*
X91764802Y-78170482D02*
G01*
X91774509Y-78171921D01*
X91784028Y-78174306D01*
X91793268Y-78177612D01*
X91802140Y-78181808D01*
X91810557Y-78186853D01*
X91818439Y-78192699D01*
X91825711Y-78199289D01*
X91832301Y-78206561D01*
X91838147Y-78214443D01*
X91843192Y-78222860D01*
X91847388Y-78231732D01*
X91850694Y-78240972D01*
X91853079Y-78250491D01*
X91854518Y-78260198D01*
X91855000Y-78270000D01*
X91855000Y-78470000D01*
X91854518Y-78479802D01*
X91853079Y-78489509D01*
X91850694Y-78499028D01*
X91847388Y-78508268D01*
X91843192Y-78517140D01*
X91838147Y-78525557D01*
X91832301Y-78533439D01*
X91825711Y-78540711D01*
X91818439Y-78547301D01*
X91810557Y-78553147D01*
X91802140Y-78558192D01*
X91793268Y-78562388D01*
X91784028Y-78565694D01*
X91774509Y-78568079D01*
X91764802Y-78569518D01*
X91755000Y-78570000D01*
X90480000Y-78570000D01*
X90470198Y-78569518D01*
X90460491Y-78568079D01*
X90450972Y-78565694D01*
X90441732Y-78562388D01*
X90432860Y-78558192D01*
X90424443Y-78553147D01*
X90416561Y-78547301D01*
X90409289Y-78540711D01*
X90402699Y-78533439D01*
X90396853Y-78525557D01*
X90391808Y-78517140D01*
X90387612Y-78508268D01*
X90384306Y-78499028D01*
X90381921Y-78489509D01*
X90380482Y-78479802D01*
X90380000Y-78470000D01*
X90380000Y-78270000D01*
X90380482Y-78260198D01*
X90381921Y-78250491D01*
X90384306Y-78240972D01*
X90387612Y-78231732D01*
X90391808Y-78222860D01*
X90396853Y-78214443D01*
X90402699Y-78206561D01*
X90409289Y-78199289D01*
X90416561Y-78192699D01*
X90424443Y-78186853D01*
X90432860Y-78181808D01*
X90441732Y-78177612D01*
X90450972Y-78174306D01*
X90460491Y-78171921D01*
X90470198Y-78170482D01*
X90480000Y-78170000D01*
X91755000Y-78170000D01*
X91764802Y-78170482D01*
G37*
G36*
X91764802Y-78820482D02*
G01*
X91774509Y-78821921D01*
X91784028Y-78824306D01*
X91793268Y-78827612D01*
X91802140Y-78831808D01*
X91810557Y-78836853D01*
X91818439Y-78842699D01*
X91825711Y-78849289D01*
X91832301Y-78856561D01*
X91838147Y-78864443D01*
X91843192Y-78872860D01*
X91847388Y-78881732D01*
X91850694Y-78890972D01*
X91853079Y-78900491D01*
X91854518Y-78910198D01*
X91855000Y-78920000D01*
X91855000Y-79120000D01*
X91854518Y-79129802D01*
X91853079Y-79139509D01*
X91850694Y-79149028D01*
X91847388Y-79158268D01*
X91843192Y-79167140D01*
X91838147Y-79175557D01*
X91832301Y-79183439D01*
X91825711Y-79190711D01*
X91818439Y-79197301D01*
X91810557Y-79203147D01*
X91802140Y-79208192D01*
X91793268Y-79212388D01*
X91784028Y-79215694D01*
X91774509Y-79218079D01*
X91764802Y-79219518D01*
X91755000Y-79220000D01*
X90480000Y-79220000D01*
X90470198Y-79219518D01*
X90460491Y-79218079D01*
X90450972Y-79215694D01*
X90441732Y-79212388D01*
X90432860Y-79208192D01*
X90424443Y-79203147D01*
X90416561Y-79197301D01*
X90409289Y-79190711D01*
X90402699Y-79183439D01*
X90396853Y-79175557D01*
X90391808Y-79167140D01*
X90387612Y-79158268D01*
X90384306Y-79149028D01*
X90381921Y-79139509D01*
X90380482Y-79129802D01*
X90380000Y-79120000D01*
X90380000Y-78920000D01*
X90380482Y-78910198D01*
X90381921Y-78900491D01*
X90384306Y-78890972D01*
X90387612Y-78881732D01*
X90391808Y-78872860D01*
X90396853Y-78864443D01*
X90402699Y-78856561D01*
X90409289Y-78849289D01*
X90416561Y-78842699D01*
X90424443Y-78836853D01*
X90432860Y-78831808D01*
X90441732Y-78827612D01*
X90450972Y-78824306D01*
X90460491Y-78821921D01*
X90470198Y-78820482D01*
X90480000Y-78820000D01*
X91755000Y-78820000D01*
X91764802Y-78820482D01*
G37*
G36*
X91764802Y-79470482D02*
G01*
X91774509Y-79471921D01*
X91784028Y-79474306D01*
X91793268Y-79477612D01*
X91802140Y-79481808D01*
X91810557Y-79486853D01*
X91818439Y-79492699D01*
X91825711Y-79499289D01*
X91832301Y-79506561D01*
X91838147Y-79514443D01*
X91843192Y-79522860D01*
X91847388Y-79531732D01*
X91850694Y-79540972D01*
X91853079Y-79550491D01*
X91854518Y-79560198D01*
X91855000Y-79570000D01*
X91855000Y-79770000D01*
X91854518Y-79779802D01*
X91853079Y-79789509D01*
X91850694Y-79799028D01*
X91847388Y-79808268D01*
X91843192Y-79817140D01*
X91838147Y-79825557D01*
X91832301Y-79833439D01*
X91825711Y-79840711D01*
X91818439Y-79847301D01*
X91810557Y-79853147D01*
X91802140Y-79858192D01*
X91793268Y-79862388D01*
X91784028Y-79865694D01*
X91774509Y-79868079D01*
X91764802Y-79869518D01*
X91755000Y-79870000D01*
X90480000Y-79870000D01*
X90470198Y-79869518D01*
X90460491Y-79868079D01*
X90450972Y-79865694D01*
X90441732Y-79862388D01*
X90432860Y-79858192D01*
X90424443Y-79853147D01*
X90416561Y-79847301D01*
X90409289Y-79840711D01*
X90402699Y-79833439D01*
X90396853Y-79825557D01*
X90391808Y-79817140D01*
X90387612Y-79808268D01*
X90384306Y-79799028D01*
X90381921Y-79789509D01*
X90380482Y-79779802D01*
X90380000Y-79770000D01*
X90380000Y-79570000D01*
X90380482Y-79560198D01*
X90381921Y-79550491D01*
X90384306Y-79540972D01*
X90387612Y-79531732D01*
X90391808Y-79522860D01*
X90396853Y-79514443D01*
X90402699Y-79506561D01*
X90409289Y-79499289D01*
X90416561Y-79492699D01*
X90424443Y-79486853D01*
X90432860Y-79481808D01*
X90441732Y-79477612D01*
X90450972Y-79474306D01*
X90460491Y-79471921D01*
X90470198Y-79470482D01*
X90480000Y-79470000D01*
X91755000Y-79470000D01*
X91764802Y-79470482D01*
G37*
G36*
X91764802Y-80120482D02*
G01*
X91774509Y-80121921D01*
X91784028Y-80124306D01*
X91793268Y-80127612D01*
X91802140Y-80131808D01*
X91810557Y-80136853D01*
X91818439Y-80142699D01*
X91825711Y-80149289D01*
X91832301Y-80156561D01*
X91838147Y-80164443D01*
X91843192Y-80172860D01*
X91847388Y-80181732D01*
X91850694Y-80190972D01*
X91853079Y-80200491D01*
X91854518Y-80210198D01*
X91855000Y-80220000D01*
X91855000Y-80420000D01*
X91854518Y-80429802D01*
X91853079Y-80439509D01*
X91850694Y-80449028D01*
X91847388Y-80458268D01*
X91843192Y-80467140D01*
X91838147Y-80475557D01*
X91832301Y-80483439D01*
X91825711Y-80490711D01*
X91818439Y-80497301D01*
X91810557Y-80503147D01*
X91802140Y-80508192D01*
X91793268Y-80512388D01*
X91784028Y-80515694D01*
X91774509Y-80518079D01*
X91764802Y-80519518D01*
X91755000Y-80520000D01*
X90480000Y-80520000D01*
X90470198Y-80519518D01*
X90460491Y-80518079D01*
X90450972Y-80515694D01*
X90441732Y-80512388D01*
X90432860Y-80508192D01*
X90424443Y-80503147D01*
X90416561Y-80497301D01*
X90409289Y-80490711D01*
X90402699Y-80483439D01*
X90396853Y-80475557D01*
X90391808Y-80467140D01*
X90387612Y-80458268D01*
X90384306Y-80449028D01*
X90381921Y-80439509D01*
X90380482Y-80429802D01*
X90380000Y-80420000D01*
X90380000Y-80220000D01*
X90380482Y-80210198D01*
X90381921Y-80200491D01*
X90384306Y-80190972D01*
X90387612Y-80181732D01*
X90391808Y-80172860D01*
X90396853Y-80164443D01*
X90402699Y-80156561D01*
X90409289Y-80149289D01*
X90416561Y-80142699D01*
X90424443Y-80136853D01*
X90432860Y-80131808D01*
X90441732Y-80127612D01*
X90450972Y-80124306D01*
X90460491Y-80121921D01*
X90470198Y-80120482D01*
X90480000Y-80120000D01*
X91755000Y-80120000D01*
X91764802Y-80120482D01*
G37*
G36*
X91764802Y-80770482D02*
G01*
X91774509Y-80771921D01*
X91784028Y-80774306D01*
X91793268Y-80777612D01*
X91802140Y-80781808D01*
X91810557Y-80786853D01*
X91818439Y-80792699D01*
X91825711Y-80799289D01*
X91832301Y-80806561D01*
X91838147Y-80814443D01*
X91843192Y-80822860D01*
X91847388Y-80831732D01*
X91850694Y-80840972D01*
X91853079Y-80850491D01*
X91854518Y-80860198D01*
X91855000Y-80870000D01*
X91855000Y-81070000D01*
X91854518Y-81079802D01*
X91853079Y-81089509D01*
X91850694Y-81099028D01*
X91847388Y-81108268D01*
X91843192Y-81117140D01*
X91838147Y-81125557D01*
X91832301Y-81133439D01*
X91825711Y-81140711D01*
X91818439Y-81147301D01*
X91810557Y-81153147D01*
X91802140Y-81158192D01*
X91793268Y-81162388D01*
X91784028Y-81165694D01*
X91774509Y-81168079D01*
X91764802Y-81169518D01*
X91755000Y-81170000D01*
X90480000Y-81170000D01*
X90470198Y-81169518D01*
X90460491Y-81168079D01*
X90450972Y-81165694D01*
X90441732Y-81162388D01*
X90432860Y-81158192D01*
X90424443Y-81153147D01*
X90416561Y-81147301D01*
X90409289Y-81140711D01*
X90402699Y-81133439D01*
X90396853Y-81125557D01*
X90391808Y-81117140D01*
X90387612Y-81108268D01*
X90384306Y-81099028D01*
X90381921Y-81089509D01*
X90380482Y-81079802D01*
X90380000Y-81070000D01*
X90380000Y-80870000D01*
X90380482Y-80860198D01*
X90381921Y-80850491D01*
X90384306Y-80840972D01*
X90387612Y-80831732D01*
X90391808Y-80822860D01*
X90396853Y-80814443D01*
X90402699Y-80806561D01*
X90409289Y-80799289D01*
X90416561Y-80792699D01*
X90424443Y-80786853D01*
X90432860Y-80781808D01*
X90441732Y-80777612D01*
X90450972Y-80774306D01*
X90460491Y-80771921D01*
X90470198Y-80770482D01*
X90480000Y-80770000D01*
X91755000Y-80770000D01*
X91764802Y-80770482D01*
G37*
G36*
X91764802Y-81420482D02*
G01*
X91774509Y-81421921D01*
X91784028Y-81424306D01*
X91793268Y-81427612D01*
X91802140Y-81431808D01*
X91810557Y-81436853D01*
X91818439Y-81442699D01*
X91825711Y-81449289D01*
X91832301Y-81456561D01*
X91838147Y-81464443D01*
X91843192Y-81472860D01*
X91847388Y-81481732D01*
X91850694Y-81490972D01*
X91853079Y-81500491D01*
X91854518Y-81510198D01*
X91855000Y-81520000D01*
X91855000Y-81720000D01*
X91854518Y-81729802D01*
X91853079Y-81739509D01*
X91850694Y-81749028D01*
X91847388Y-81758268D01*
X91843192Y-81767140D01*
X91838147Y-81775557D01*
X91832301Y-81783439D01*
X91825711Y-81790711D01*
X91818439Y-81797301D01*
X91810557Y-81803147D01*
X91802140Y-81808192D01*
X91793268Y-81812388D01*
X91784028Y-81815694D01*
X91774509Y-81818079D01*
X91764802Y-81819518D01*
X91755000Y-81820000D01*
X90480000Y-81820000D01*
X90470198Y-81819518D01*
X90460491Y-81818079D01*
X90450972Y-81815694D01*
X90441732Y-81812388D01*
X90432860Y-81808192D01*
X90424443Y-81803147D01*
X90416561Y-81797301D01*
X90409289Y-81790711D01*
X90402699Y-81783439D01*
X90396853Y-81775557D01*
X90391808Y-81767140D01*
X90387612Y-81758268D01*
X90384306Y-81749028D01*
X90381921Y-81739509D01*
X90380482Y-81729802D01*
X90380000Y-81720000D01*
X90380000Y-81520000D01*
X90380482Y-81510198D01*
X90381921Y-81500491D01*
X90384306Y-81490972D01*
X90387612Y-81481732D01*
X90391808Y-81472860D01*
X90396853Y-81464443D01*
X90402699Y-81456561D01*
X90409289Y-81449289D01*
X90416561Y-81442699D01*
X90424443Y-81436853D01*
X90432860Y-81431808D01*
X90441732Y-81427612D01*
X90450972Y-81424306D01*
X90460491Y-81421921D01*
X90470198Y-81420482D01*
X90480000Y-81420000D01*
X91755000Y-81420000D01*
X91764802Y-81420482D01*
G37*
G36*
X91764802Y-82070482D02*
G01*
X91774509Y-82071921D01*
X91784028Y-82074306D01*
X91793268Y-82077612D01*
X91802140Y-82081808D01*
X91810557Y-82086853D01*
X91818439Y-82092699D01*
X91825711Y-82099289D01*
X91832301Y-82106561D01*
X91838147Y-82114443D01*
X91843192Y-82122860D01*
X91847388Y-82131732D01*
X91850694Y-82140972D01*
X91853079Y-82150491D01*
X91854518Y-82160198D01*
X91855000Y-82170000D01*
X91855000Y-82370000D01*
X91854518Y-82379802D01*
X91853079Y-82389509D01*
X91850694Y-82399028D01*
X91847388Y-82408268D01*
X91843192Y-82417140D01*
X91838147Y-82425557D01*
X91832301Y-82433439D01*
X91825711Y-82440711D01*
X91818439Y-82447301D01*
X91810557Y-82453147D01*
X91802140Y-82458192D01*
X91793268Y-82462388D01*
X91784028Y-82465694D01*
X91774509Y-82468079D01*
X91764802Y-82469518D01*
X91755000Y-82470000D01*
X90480000Y-82470000D01*
X90470198Y-82469518D01*
X90460491Y-82468079D01*
X90450972Y-82465694D01*
X90441732Y-82462388D01*
X90432860Y-82458192D01*
X90424443Y-82453147D01*
X90416561Y-82447301D01*
X90409289Y-82440711D01*
X90402699Y-82433439D01*
X90396853Y-82425557D01*
X90391808Y-82417140D01*
X90387612Y-82408268D01*
X90384306Y-82399028D01*
X90381921Y-82389509D01*
X90380482Y-82379802D01*
X90380000Y-82370000D01*
X90380000Y-82170000D01*
X90380482Y-82160198D01*
X90381921Y-82150491D01*
X90384306Y-82140972D01*
X90387612Y-82131732D01*
X90391808Y-82122860D01*
X90396853Y-82114443D01*
X90402699Y-82106561D01*
X90409289Y-82099289D01*
X90416561Y-82092699D01*
X90424443Y-82086853D01*
X90432860Y-82081808D01*
X90441732Y-82077612D01*
X90450972Y-82074306D01*
X90460491Y-82071921D01*
X90470198Y-82070482D01*
X90480000Y-82070000D01*
X91755000Y-82070000D01*
X91764802Y-82070482D01*
G37*
G36*
X91764802Y-82720482D02*
G01*
X91774509Y-82721921D01*
X91784028Y-82724306D01*
X91793268Y-82727612D01*
X91802140Y-82731808D01*
X91810557Y-82736853D01*
X91818439Y-82742699D01*
X91825711Y-82749289D01*
X91832301Y-82756561D01*
X91838147Y-82764443D01*
X91843192Y-82772860D01*
X91847388Y-82781732D01*
X91850694Y-82790972D01*
X91853079Y-82800491D01*
X91854518Y-82810198D01*
X91855000Y-82820000D01*
X91855000Y-83020000D01*
X91854518Y-83029802D01*
X91853079Y-83039509D01*
X91850694Y-83049028D01*
X91847388Y-83058268D01*
X91843192Y-83067140D01*
X91838147Y-83075557D01*
X91832301Y-83083439D01*
X91825711Y-83090711D01*
X91818439Y-83097301D01*
X91810557Y-83103147D01*
X91802140Y-83108192D01*
X91793268Y-83112388D01*
X91784028Y-83115694D01*
X91774509Y-83118079D01*
X91764802Y-83119518D01*
X91755000Y-83120000D01*
X90480000Y-83120000D01*
X90470198Y-83119518D01*
X90460491Y-83118079D01*
X90450972Y-83115694D01*
X90441732Y-83112388D01*
X90432860Y-83108192D01*
X90424443Y-83103147D01*
X90416561Y-83097301D01*
X90409289Y-83090711D01*
X90402699Y-83083439D01*
X90396853Y-83075557D01*
X90391808Y-83067140D01*
X90387612Y-83058268D01*
X90384306Y-83049028D01*
X90381921Y-83039509D01*
X90380482Y-83029802D01*
X90380000Y-83020000D01*
X90380000Y-82820000D01*
X90380482Y-82810198D01*
X90381921Y-82800491D01*
X90384306Y-82790972D01*
X90387612Y-82781732D01*
X90391808Y-82772860D01*
X90396853Y-82764443D01*
X90402699Y-82756561D01*
X90409289Y-82749289D01*
X90416561Y-82742699D01*
X90424443Y-82736853D01*
X90432860Y-82731808D01*
X90441732Y-82727612D01*
X90450972Y-82724306D01*
X90460491Y-82721921D01*
X90470198Y-82720482D01*
X90480000Y-82720000D01*
X91755000Y-82720000D01*
X91764802Y-82720482D01*
G37*
M02*
