%TF.GenerationSoftware,KiCad,Pcbnew,5.1.5+dfsg1-2~bpo10+1*%
%TF.CreationDate,Date%
%TF.ProjectId,ProMicro_ANA,50726f4d-6963-4726-9f5f-414e412e6b69,v1.0*%
%TF.SameCoordinates,Original*%
%TF.FileFunction,Other,Fab,Top*%
%FSLAX45Y45*%
G04 Gerber Fmt 4.5, Leading zero omitted, Abs format (unit mm)*
G04 Created by KiCad*
%MOMM*%
%LPD*%
G04 APERTURE LIST*
%ADD10C,0.100000*%
%ADD11C,0.150000*%
%ADD12C,0.060000*%
%ADD13C,0.200000*%
G04 APERTURE END LIST*
D10*
X-63500Y-127000D02*
G75*
G02X-127000Y-63500I0J63500D01*
G01*
X1651000Y-63500D02*
G75*
G02X1587500Y-127000I-63500J0D01*
G01*
X1587500Y2921000D02*
G75*
G02X1651000Y2857500I0J-63500D01*
G01*
X-127000Y2857500D02*
G75*
G02X-63500Y2921000I63500J0D01*
G01*
X-127000Y-63500D02*
X-127000Y2857500D01*
X1587500Y-127000D02*
X-63500Y-127000D01*
X1651000Y2857500D02*
X1651000Y-63500D01*
X-63500Y2921000D02*
X1587500Y2921000D01*
X1650000Y-111000D02*
X-127000Y-111000D01*
X-127000Y-111000D02*
X-127000Y2854000D01*
X-80000Y2904000D02*
X-127000Y2854000D01*
X-80000Y2904000D02*
X1650000Y2904000D01*
X1650000Y2904000D02*
X1650000Y-111000D01*
X936000Y2453000D02*
X1096000Y2453000D01*
X936000Y2373000D02*
X936000Y2453000D01*
X1096000Y2373000D02*
X936000Y2373000D01*
X1096000Y2453000D02*
X1096000Y2373000D01*
X588000Y2373000D02*
X428000Y2373000D01*
X588000Y2453000D02*
X588000Y2373000D01*
X428000Y2453000D02*
X588000Y2453000D01*
X428000Y2373000D02*
X428000Y2453000D01*
X936000Y2262500D02*
X1096000Y2262500D01*
X936000Y2182500D02*
X936000Y2262500D01*
X1096000Y2182500D02*
X936000Y2182500D01*
X1096000Y2262500D02*
X1096000Y2182500D01*
X428000Y2262500D02*
X588000Y2262500D01*
X428000Y2182500D02*
X428000Y2262500D01*
X588000Y2182500D02*
X428000Y2182500D01*
X588000Y2262500D02*
X588000Y2182500D01*
X1213100Y337500D02*
X1059600Y184000D01*
X1226500Y324000D02*
X1073000Y170500D01*
X959100Y337500D02*
X805600Y184000D01*
X972500Y324000D02*
X819000Y170500D01*
X705100Y337500D02*
X551600Y184000D01*
X718500Y324000D02*
X565000Y170500D01*
X451100Y337500D02*
X297500Y184000D01*
X464500Y324000D02*
X310900Y170500D01*
X231000Y524000D02*
X1293000Y524000D01*
X231000Y-6000D02*
X1293000Y-6000D01*
X231000Y-6000D02*
X231000Y564000D01*
X281000Y-56000D02*
X231000Y-6000D01*
X1293000Y-56000D02*
X281000Y-56000D01*
X1293000Y564000D02*
X1293000Y-56000D01*
X231000Y564000D02*
X1293000Y564000D01*
X1253000Y254000D02*
G75*
G03X1253000Y254000I-110000J0D01*
G01*
X999000Y254000D02*
G75*
G03X999000Y254000I-110000J0D01*
G01*
X745000Y254000D02*
G75*
G03X745000Y254000I-110000J0D01*
G01*
X491000Y254000D02*
G75*
G03X491000Y254000I-110000J0D01*
G01*
X1170000Y1778000D02*
X1270000Y1678000D01*
X254000Y1778000D02*
X1170000Y1778000D01*
X254000Y1143000D02*
X254000Y1778000D01*
X1270000Y1143000D02*
X254000Y1143000D01*
X1270000Y1678000D02*
X1270000Y1143000D01*
D11*
X626267Y1325572D02*
X626267Y1373191D01*
X654838Y1316048D02*
X554838Y1349381D01*
X654838Y1382714D01*
X654838Y1468429D02*
X654838Y1411286D01*
X654838Y1439857D02*
X554838Y1439857D01*
X569124Y1430333D01*
X578648Y1420810D01*
X583410Y1411286D01*
D12*
X990286Y2394905D02*
X976952Y2413952D01*
X967428Y2394905D02*
X967428Y2434905D01*
X982667Y2434905D01*
X986476Y2433000D01*
X988381Y2431095D01*
X990286Y2427286D01*
X990286Y2421572D01*
X988381Y2417762D01*
X986476Y2415857D01*
X982667Y2413952D01*
X967428Y2413952D01*
X1028381Y2394905D02*
X1005524Y2394905D01*
X1016952Y2394905D02*
X1016952Y2434905D01*
X1013143Y2429191D01*
X1009333Y2425381D01*
X1005524Y2423476D01*
X1053143Y2434905D02*
X1056952Y2434905D01*
X1060762Y2433000D01*
X1062667Y2431095D01*
X1064571Y2427286D01*
X1066476Y2419667D01*
X1066476Y2410143D01*
X1064571Y2402524D01*
X1062667Y2398714D01*
X1060762Y2396810D01*
X1056952Y2394905D01*
X1053143Y2394905D01*
X1049333Y2396810D01*
X1047428Y2398714D01*
X1045524Y2402524D01*
X1043619Y2410143D01*
X1043619Y2419667D01*
X1045524Y2427286D01*
X1047428Y2431095D01*
X1049333Y2433000D01*
X1053143Y2434905D01*
X501333Y2394905D02*
X488000Y2413952D01*
X478476Y2394905D02*
X478476Y2434905D01*
X493714Y2434905D01*
X497524Y2433000D01*
X499428Y2431095D01*
X501333Y2427286D01*
X501333Y2421572D01*
X499428Y2417762D01*
X497524Y2415857D01*
X493714Y2413952D01*
X478476Y2413952D01*
X520381Y2394905D02*
X528000Y2394905D01*
X531810Y2396810D01*
X533714Y2398714D01*
X537524Y2404429D01*
X539429Y2412048D01*
X539429Y2427286D01*
X537524Y2431095D01*
X535619Y2433000D01*
X531810Y2434905D01*
X524190Y2434905D01*
X520381Y2433000D01*
X518476Y2431095D01*
X516571Y2427286D01*
X516571Y2417762D01*
X518476Y2413952D01*
X520381Y2412048D01*
X524190Y2410143D01*
X531810Y2410143D01*
X535619Y2412048D01*
X537524Y2413952D01*
X539429Y2417762D01*
X1009333Y2204405D02*
X996000Y2223452D01*
X986476Y2204405D02*
X986476Y2244405D01*
X1001714Y2244405D01*
X1005524Y2242500D01*
X1007428Y2240595D01*
X1009333Y2236786D01*
X1009333Y2231072D01*
X1007428Y2227262D01*
X1005524Y2225357D01*
X1001714Y2223452D01*
X986476Y2223452D01*
X1024571Y2240595D02*
X1026476Y2242500D01*
X1030286Y2244405D01*
X1039809Y2244405D01*
X1043619Y2242500D01*
X1045524Y2240595D01*
X1047428Y2236786D01*
X1047428Y2232976D01*
X1045524Y2227262D01*
X1022667Y2204405D01*
X1047428Y2204405D01*
X501333Y2204405D02*
X488000Y2223452D01*
X478476Y2204405D02*
X478476Y2244405D01*
X493714Y2244405D01*
X497524Y2242500D01*
X499428Y2240595D01*
X501333Y2236786D01*
X501333Y2231072D01*
X499428Y2227262D01*
X497524Y2225357D01*
X493714Y2223452D01*
X478476Y2223452D01*
X539429Y2204405D02*
X516571Y2204405D01*
X528000Y2204405D02*
X528000Y2244405D01*
X524190Y2238691D01*
X520381Y2234881D01*
X516571Y2232976D01*
D13*
X735333Y97810D02*
X735333Y40667D01*
X731524Y29238D01*
X723905Y21619D01*
X712476Y17810D01*
X704857Y17810D01*
X815333Y17810D02*
X769619Y17810D01*
X792476Y17810D02*
X792476Y97810D01*
X784857Y86381D01*
X777238Y78762D01*
X769619Y74952D01*
X574048Y1504310D02*
X574048Y1439548D01*
X577857Y1431929D01*
X581667Y1428119D01*
X589286Y1424310D01*
X604524Y1424310D01*
X612143Y1428119D01*
X615952Y1431929D01*
X619762Y1439548D01*
X619762Y1504310D01*
X699762Y1424310D02*
X654048Y1424310D01*
X676905Y1424310D02*
X676905Y1504310D01*
X669286Y1492881D01*
X661667Y1485262D01*
X654048Y1481452D01*
M02*
