G04 #@! TF.GenerationSoftware,KiCad,Pcbnew,5.1.5+dfsg1-2build2*
G04 #@! TF.CreationDate,2021-03-15T22:19:43+01:00*
G04 #@! TF.ProjectId,ProMicro_ANA,50726f4d-6963-4726-9f5f-414e412e6b69,v1.2*
G04 #@! TF.SameCoordinates,Original*
G04 #@! TF.FileFunction,Copper,L3,Inr*
G04 #@! TF.FilePolarity,Positive*
%FSLAX46Y46*%
G04 Gerber Fmt 4.6, Leading zero omitted, Abs format (unit mm)*
G04 Created by KiCad*
%MOMM*%
%LPD*%
G04 APERTURE LIST*
%ADD10R,2.100000X2.100000*%
%ADD11C,2.100000*%
%ADD12C,2.200000*%
%ADD13R,2.200000X2.200000*%
%ADD14C,0.500000*%
%ADD15C,0.450000*%
%ADD16C,0.250000*%
%ADD17C,0.200000*%
G04 APERTURE END LIST*
D10*
X82550000Y-76200000D03*
D11*
X85090000Y-76200000D03*
X87630000Y-76200000D03*
X110490000Y-91440000D03*
X90170000Y-76200000D03*
X107950000Y-91440000D03*
X92710000Y-76200000D03*
X105410000Y-91440000D03*
X95250000Y-76200000D03*
X102870000Y-91440000D03*
X97790000Y-76200000D03*
X100330000Y-91440000D03*
X100330000Y-76200000D03*
X97790000Y-91440000D03*
X102870000Y-76200000D03*
X95250000Y-91440000D03*
X105410000Y-76200000D03*
X92710000Y-91440000D03*
X107950000Y-76200000D03*
X90170000Y-91440000D03*
X110490000Y-76200000D03*
X87630000Y-91440000D03*
X85090000Y-91440000D03*
X82550000Y-91440000D03*
D12*
X85090000Y-87630000D03*
X85090000Y-85090000D03*
X85090000Y-82550000D03*
D13*
X85090000Y-80010000D03*
D14*
X89916000Y-86995000D03*
D15*
X89916000Y-81280000D03*
X98679000Y-89408000D03*
X98679000Y-78232000D03*
X100203000Y-79629000D03*
X100457000Y-87122000D03*
X89916000Y-86106000D03*
X89789000Y-82169000D03*
X105791000Y-83820000D03*
D14*
X108585000Y-89916000D03*
X108585000Y-88773000D03*
X107442000Y-83820000D03*
X109093000Y-83693000D03*
X110998000Y-78232000D03*
X105791000Y-84582000D03*
D15*
X105791000Y-78232000D03*
X94869000Y-81661000D03*
X94869000Y-82169000D03*
X94361000Y-82423000D03*
X94361000Y-81915000D03*
X94361000Y-81407000D03*
X94869000Y-88519000D03*
X94869000Y-88011000D03*
X94361000Y-88773000D03*
X94361000Y-88265000D03*
X94361000Y-87757000D03*
X89662000Y-84201000D03*
D14*
X98171000Y-88392000D03*
X98171000Y-82550000D03*
D15*
X105793699Y-88821341D03*
X104013000Y-86360000D03*
X100457000Y-88011000D03*
X95570534Y-78813377D03*
D14*
X100330000Y-83820000D03*
D15*
X93853000Y-85725000D03*
D14*
X95504000Y-84836000D03*
D15*
X108331000Y-82677000D03*
D16*
X105793699Y-86743699D02*
X95250000Y-76200000D01*
X105793699Y-88821341D02*
X105793699Y-86743699D01*
X104013000Y-86360000D02*
X99187000Y-86360000D01*
X86645634Y-82550000D02*
X85090000Y-82550000D01*
X87068635Y-82973001D02*
X86645634Y-82550000D01*
X95800001Y-82973001D02*
X87068635Y-82973001D01*
X99187000Y-86360000D02*
X95800001Y-82973001D01*
D17*
G36*
X90254853Y-76185858D02*
G01*
X90240711Y-76200000D01*
X91110845Y-77070134D01*
X91296101Y-76956356D01*
X91422021Y-76722131D01*
X91440300Y-76662391D01*
X91513646Y-76839465D01*
X91661387Y-77060575D01*
X91849425Y-77248613D01*
X92070535Y-77396354D01*
X92316220Y-77498120D01*
X92577037Y-77550000D01*
X92842963Y-77550000D01*
X93103780Y-77498120D01*
X93349465Y-77396354D01*
X93570575Y-77248613D01*
X93758613Y-77060575D01*
X93906354Y-76839465D01*
X93980000Y-76661668D01*
X94053646Y-76839465D01*
X94201387Y-77060575D01*
X94389425Y-77248613D01*
X94610535Y-77396354D01*
X94856220Y-77498120D01*
X95117037Y-77550000D01*
X95382963Y-77550000D01*
X95643780Y-77498120D01*
X95858245Y-77409286D01*
X105368700Y-86919741D01*
X105368699Y-88512423D01*
X105328450Y-88572660D01*
X105288875Y-88668204D01*
X105268699Y-88769633D01*
X105268699Y-88873049D01*
X105288875Y-88974478D01*
X105328450Y-89070022D01*
X105385905Y-89156009D01*
X105459031Y-89229135D01*
X105545018Y-89286590D01*
X105640562Y-89326165D01*
X105741991Y-89346341D01*
X105845407Y-89346341D01*
X105946836Y-89326165D01*
X106042380Y-89286590D01*
X106128367Y-89229135D01*
X106201493Y-89156009D01*
X106258948Y-89070022D01*
X106298523Y-88974478D01*
X106318699Y-88873049D01*
X106318699Y-88769633D01*
X106298523Y-88668204D01*
X106258948Y-88572660D01*
X106218699Y-88512423D01*
X106218699Y-86764565D01*
X106220754Y-86743698D01*
X106218699Y-86722831D01*
X106218699Y-86722825D01*
X106212549Y-86660385D01*
X106188247Y-86580272D01*
X106148783Y-86506439D01*
X106095673Y-86441725D01*
X106079461Y-86428420D01*
X104178871Y-84527830D01*
X105241000Y-84527830D01*
X105241000Y-84636170D01*
X105262136Y-84742429D01*
X105303597Y-84842523D01*
X105363787Y-84932604D01*
X105440396Y-85009213D01*
X105530477Y-85069403D01*
X105630571Y-85110864D01*
X105736830Y-85132000D01*
X105845170Y-85132000D01*
X105951429Y-85110864D01*
X106051523Y-85069403D01*
X106141604Y-85009213D01*
X106218213Y-84932604D01*
X106278403Y-84842523D01*
X106319864Y-84742429D01*
X106341000Y-84636170D01*
X106341000Y-84527830D01*
X106319864Y-84421571D01*
X106278403Y-84321477D01*
X106218213Y-84231396D01*
X106141604Y-84154787D01*
X106051523Y-84094597D01*
X105951429Y-84053136D01*
X105845170Y-84032000D01*
X105736830Y-84032000D01*
X105630571Y-84053136D01*
X105530477Y-84094597D01*
X105440396Y-84154787D01*
X105363787Y-84231396D01*
X105303597Y-84321477D01*
X105262136Y-84421571D01*
X105241000Y-84527830D01*
X104178871Y-84527830D01*
X102276333Y-82625292D01*
X107806000Y-82625292D01*
X107806000Y-82728708D01*
X107826176Y-82830137D01*
X107865751Y-82925681D01*
X107923206Y-83011668D01*
X107996332Y-83084794D01*
X108082319Y-83142249D01*
X108177863Y-83181824D01*
X108279292Y-83202000D01*
X108382708Y-83202000D01*
X108484137Y-83181824D01*
X108579681Y-83142249D01*
X108665668Y-83084794D01*
X108738794Y-83011668D01*
X108796249Y-82925681D01*
X108835824Y-82830137D01*
X108856000Y-82728708D01*
X108856000Y-82625292D01*
X108835824Y-82523863D01*
X108796249Y-82428319D01*
X108738794Y-82342332D01*
X108665668Y-82269206D01*
X108579681Y-82211751D01*
X108484137Y-82172176D01*
X108382708Y-82152000D01*
X108279292Y-82152000D01*
X108177863Y-82172176D01*
X108082319Y-82211751D01*
X107996332Y-82269206D01*
X107923206Y-82342332D01*
X107865751Y-82428319D01*
X107826176Y-82523863D01*
X107806000Y-82625292D01*
X102276333Y-82625292D01*
X97831333Y-78180292D01*
X105266000Y-78180292D01*
X105266000Y-78283708D01*
X105286176Y-78385137D01*
X105325751Y-78480681D01*
X105383206Y-78566668D01*
X105456332Y-78639794D01*
X105542319Y-78697249D01*
X105637863Y-78736824D01*
X105739292Y-78757000D01*
X105842708Y-78757000D01*
X105944137Y-78736824D01*
X106039681Y-78697249D01*
X106125668Y-78639794D01*
X106198794Y-78566668D01*
X106256249Y-78480681D01*
X106295824Y-78385137D01*
X106316000Y-78283708D01*
X106316000Y-78180292D01*
X106295824Y-78078863D01*
X106256249Y-77983319D01*
X106198794Y-77897332D01*
X106125668Y-77824206D01*
X106039681Y-77766751D01*
X105944137Y-77727176D01*
X105842708Y-77707000D01*
X105739292Y-77707000D01*
X105637863Y-77727176D01*
X105542319Y-77766751D01*
X105456332Y-77824206D01*
X105383206Y-77897332D01*
X105325751Y-77983319D01*
X105286176Y-78078863D01*
X105266000Y-78180292D01*
X97831333Y-78180292D01*
X96459286Y-76808245D01*
X96520000Y-76661668D01*
X96593646Y-76839465D01*
X96741387Y-77060575D01*
X96929425Y-77248613D01*
X97150535Y-77396354D01*
X97396220Y-77498120D01*
X97657037Y-77550000D01*
X97922963Y-77550000D01*
X98183780Y-77498120D01*
X98429465Y-77396354D01*
X98650575Y-77248613D01*
X98838613Y-77060575D01*
X98986354Y-76839465D01*
X99060000Y-76661668D01*
X99133646Y-76839465D01*
X99281387Y-77060575D01*
X99469425Y-77248613D01*
X99690535Y-77396354D01*
X99936220Y-77498120D01*
X100197037Y-77550000D01*
X100462963Y-77550000D01*
X100723780Y-77498120D01*
X100969465Y-77396354D01*
X101190575Y-77248613D01*
X101378613Y-77060575D01*
X101526354Y-76839465D01*
X101600000Y-76661668D01*
X101673646Y-76839465D01*
X101821387Y-77060575D01*
X102009425Y-77248613D01*
X102230535Y-77396354D01*
X102476220Y-77498120D01*
X102737037Y-77550000D01*
X103002963Y-77550000D01*
X103263780Y-77498120D01*
X103509465Y-77396354D01*
X103730575Y-77248613D01*
X103918613Y-77060575D01*
X104066354Y-76839465D01*
X104140000Y-76661668D01*
X104213646Y-76839465D01*
X104361387Y-77060575D01*
X104549425Y-77248613D01*
X104770535Y-77396354D01*
X105016220Y-77498120D01*
X105277037Y-77550000D01*
X105542963Y-77550000D01*
X105803780Y-77498120D01*
X106049465Y-77396354D01*
X106270575Y-77248613D01*
X106458613Y-77060575D01*
X106606354Y-76839465D01*
X106680000Y-76661668D01*
X106753646Y-76839465D01*
X106901387Y-77060575D01*
X107089425Y-77248613D01*
X107310535Y-77396354D01*
X107556220Y-77498120D01*
X107817037Y-77550000D01*
X108082963Y-77550000D01*
X108343780Y-77498120D01*
X108589465Y-77396354D01*
X108810575Y-77248613D01*
X108998613Y-77060575D01*
X109146354Y-76839465D01*
X109220000Y-76661668D01*
X109293646Y-76839465D01*
X109441387Y-77060575D01*
X109629425Y-77248613D01*
X109850535Y-77396354D01*
X110096220Y-77498120D01*
X110357037Y-77550000D01*
X110622963Y-77550000D01*
X110883780Y-77498120D01*
X111129465Y-77396354D01*
X111350575Y-77248613D01*
X111410000Y-77189188D01*
X111410001Y-90450813D01*
X111350575Y-90391387D01*
X111129465Y-90243646D01*
X110883780Y-90141880D01*
X110622963Y-90090000D01*
X110357037Y-90090000D01*
X110096220Y-90141880D01*
X109850535Y-90243646D01*
X109629425Y-90391387D01*
X109441387Y-90579425D01*
X109293646Y-90800535D01*
X109220000Y-90978332D01*
X109146354Y-90800535D01*
X108998613Y-90579425D01*
X108810575Y-90391387D01*
X108589465Y-90243646D01*
X108343780Y-90141880D01*
X108082963Y-90090000D01*
X107817037Y-90090000D01*
X107556220Y-90141880D01*
X107310535Y-90243646D01*
X107089425Y-90391387D01*
X106901387Y-90579425D01*
X106753646Y-90800535D01*
X106680000Y-90978332D01*
X106606354Y-90800535D01*
X106458613Y-90579425D01*
X106270575Y-90391387D01*
X106049465Y-90243646D01*
X105803780Y-90141880D01*
X105542963Y-90090000D01*
X105277037Y-90090000D01*
X105016220Y-90141880D01*
X104770535Y-90243646D01*
X104549425Y-90391387D01*
X104361387Y-90579425D01*
X104213646Y-90800535D01*
X104140000Y-90978332D01*
X104066354Y-90800535D01*
X103918613Y-90579425D01*
X103730575Y-90391387D01*
X103509465Y-90243646D01*
X103263780Y-90141880D01*
X103002963Y-90090000D01*
X102737037Y-90090000D01*
X102476220Y-90141880D01*
X102230535Y-90243646D01*
X102009425Y-90391387D01*
X101821387Y-90579425D01*
X101673646Y-90800535D01*
X101600000Y-90978332D01*
X101526354Y-90800535D01*
X101378613Y-90579425D01*
X101190575Y-90391387D01*
X100969465Y-90243646D01*
X100723780Y-90141880D01*
X100462963Y-90090000D01*
X100197037Y-90090000D01*
X99936220Y-90141880D01*
X99690535Y-90243646D01*
X99469425Y-90391387D01*
X99281387Y-90579425D01*
X99133646Y-90800535D01*
X99060000Y-90978332D01*
X98986354Y-90800535D01*
X98838613Y-90579425D01*
X98650575Y-90391387D01*
X98429465Y-90243646D01*
X98183780Y-90141880D01*
X97922963Y-90090000D01*
X97657037Y-90090000D01*
X97396220Y-90141880D01*
X97150535Y-90243646D01*
X96929425Y-90391387D01*
X96741387Y-90579425D01*
X96593646Y-90800535D01*
X96520000Y-90978332D01*
X96446354Y-90800535D01*
X96298613Y-90579425D01*
X96110575Y-90391387D01*
X95889465Y-90243646D01*
X95643780Y-90141880D01*
X95382963Y-90090000D01*
X95117037Y-90090000D01*
X94856220Y-90141880D01*
X94610535Y-90243646D01*
X94389425Y-90391387D01*
X94201387Y-90579425D01*
X94053646Y-90800535D01*
X93980000Y-90978332D01*
X93906354Y-90800535D01*
X93758613Y-90579425D01*
X93570575Y-90391387D01*
X93349465Y-90243646D01*
X93103780Y-90141880D01*
X92842963Y-90090000D01*
X92577037Y-90090000D01*
X92316220Y-90141880D01*
X92070535Y-90243646D01*
X91849425Y-90391387D01*
X91661387Y-90579425D01*
X91513646Y-90800535D01*
X91440000Y-90978332D01*
X91366354Y-90800535D01*
X91218613Y-90579425D01*
X91030575Y-90391387D01*
X90809465Y-90243646D01*
X90563780Y-90141880D01*
X90302963Y-90090000D01*
X90037037Y-90090000D01*
X89776220Y-90141880D01*
X89530535Y-90243646D01*
X89309425Y-90391387D01*
X89121387Y-90579425D01*
X88973646Y-90800535D01*
X88900000Y-90978332D01*
X88826354Y-90800535D01*
X88678613Y-90579425D01*
X88490575Y-90391387D01*
X88269465Y-90243646D01*
X88023780Y-90141880D01*
X87762963Y-90090000D01*
X87497037Y-90090000D01*
X87236220Y-90141880D01*
X86990535Y-90243646D01*
X86769425Y-90391387D01*
X86581387Y-90579425D01*
X86433646Y-90800535D01*
X86360514Y-90977091D01*
X86344515Y-90923890D01*
X86219721Y-90689063D01*
X86216101Y-90683644D01*
X86030845Y-90569866D01*
X85160711Y-91440000D01*
X85174853Y-91454142D01*
X85104142Y-91524853D01*
X85090000Y-91510711D01*
X85075858Y-91524853D01*
X85005147Y-91454142D01*
X85019289Y-91440000D01*
X84149155Y-90569866D01*
X83963899Y-90683644D01*
X83837979Y-90917869D01*
X83819700Y-90977609D01*
X83746354Y-90800535D01*
X83598613Y-90579425D01*
X83518343Y-90499155D01*
X84219866Y-90499155D01*
X85090000Y-91369289D01*
X85960134Y-90499155D01*
X85846356Y-90313899D01*
X85612131Y-90187979D01*
X85357841Y-90110173D01*
X85093258Y-90083472D01*
X84828551Y-90108902D01*
X84573890Y-90185485D01*
X84339063Y-90310279D01*
X84333644Y-90313899D01*
X84219866Y-90499155D01*
X83518343Y-90499155D01*
X83410575Y-90391387D01*
X83189465Y-90243646D01*
X82943780Y-90141880D01*
X82682963Y-90090000D01*
X82417037Y-90090000D01*
X82156220Y-90141880D01*
X81910535Y-90243646D01*
X81689425Y-90391387D01*
X81630000Y-90450812D01*
X81630000Y-78910000D01*
X83688549Y-78910000D01*
X83688549Y-81110000D01*
X83694341Y-81168810D01*
X83711496Y-81225360D01*
X83739353Y-81277477D01*
X83776842Y-81323158D01*
X83822523Y-81360647D01*
X83874640Y-81388504D01*
X83931190Y-81405659D01*
X83990000Y-81411451D01*
X84274025Y-81411451D01*
X84197552Y-81462549D01*
X84002549Y-81657552D01*
X83849336Y-81886851D01*
X83743801Y-82141635D01*
X83690000Y-82412112D01*
X83690000Y-82687888D01*
X83743801Y-82958365D01*
X83849336Y-83213149D01*
X84002549Y-83442448D01*
X84197552Y-83637451D01*
X84426851Y-83790664D01*
X84497674Y-83820000D01*
X84426851Y-83849336D01*
X84197552Y-84002549D01*
X84002549Y-84197552D01*
X83849336Y-84426851D01*
X83743801Y-84681635D01*
X83690000Y-84952112D01*
X83690000Y-85227888D01*
X83743801Y-85498365D01*
X83849336Y-85753149D01*
X84002549Y-85982448D01*
X84197552Y-86177451D01*
X84426851Y-86330664D01*
X84497674Y-86360000D01*
X84426851Y-86389336D01*
X84197552Y-86542549D01*
X84002549Y-86737552D01*
X83849336Y-86966851D01*
X83743801Y-87221635D01*
X83690000Y-87492112D01*
X83690000Y-87767888D01*
X83743801Y-88038365D01*
X83849336Y-88293149D01*
X84002549Y-88522448D01*
X84197552Y-88717451D01*
X84426851Y-88870664D01*
X84681635Y-88976199D01*
X84952112Y-89030000D01*
X85227888Y-89030000D01*
X85498365Y-88976199D01*
X85753149Y-88870664D01*
X85982448Y-88717451D01*
X86177451Y-88522448D01*
X86330664Y-88293149D01*
X86436199Y-88038365D01*
X86490000Y-87767888D01*
X86490000Y-87705292D01*
X93836000Y-87705292D01*
X93836000Y-87808708D01*
X93856176Y-87910137D01*
X93895751Y-88005681D01*
X93899305Y-88011000D01*
X93895751Y-88016319D01*
X93856176Y-88111863D01*
X93836000Y-88213292D01*
X93836000Y-88316708D01*
X93856176Y-88418137D01*
X93895751Y-88513681D01*
X93899305Y-88519000D01*
X93895751Y-88524319D01*
X93856176Y-88619863D01*
X93836000Y-88721292D01*
X93836000Y-88824708D01*
X93856176Y-88926137D01*
X93895751Y-89021681D01*
X93953206Y-89107668D01*
X94026332Y-89180794D01*
X94112319Y-89238249D01*
X94207863Y-89277824D01*
X94309292Y-89298000D01*
X94412708Y-89298000D01*
X94514137Y-89277824D01*
X94609681Y-89238249D01*
X94695668Y-89180794D01*
X94768794Y-89107668D01*
X94812035Y-89042954D01*
X94817292Y-89044000D01*
X94920708Y-89044000D01*
X95022137Y-89023824D01*
X95117681Y-88984249D01*
X95203668Y-88926794D01*
X95276794Y-88853668D01*
X95334249Y-88767681D01*
X95373824Y-88672137D01*
X95394000Y-88570708D01*
X95394000Y-88467292D01*
X95373824Y-88365863D01*
X95362213Y-88337830D01*
X97621000Y-88337830D01*
X97621000Y-88446170D01*
X97642136Y-88552429D01*
X97683597Y-88652523D01*
X97743787Y-88742604D01*
X97820396Y-88819213D01*
X97910477Y-88879403D01*
X98010571Y-88920864D01*
X98116830Y-88942000D01*
X98225170Y-88942000D01*
X98331429Y-88920864D01*
X98431523Y-88879403D01*
X98521604Y-88819213D01*
X98598213Y-88742604D01*
X98658403Y-88652523D01*
X98699864Y-88552429D01*
X98721000Y-88446170D01*
X98721000Y-88337830D01*
X98699864Y-88231571D01*
X98658403Y-88131477D01*
X98598213Y-88041396D01*
X98521604Y-87964787D01*
X98513381Y-87959292D01*
X99932000Y-87959292D01*
X99932000Y-88062708D01*
X99952176Y-88164137D01*
X99991751Y-88259681D01*
X100049206Y-88345668D01*
X100122332Y-88418794D01*
X100208319Y-88476249D01*
X100303863Y-88515824D01*
X100405292Y-88536000D01*
X100508708Y-88536000D01*
X100610137Y-88515824D01*
X100705681Y-88476249D01*
X100791668Y-88418794D01*
X100864794Y-88345668D01*
X100922249Y-88259681D01*
X100961824Y-88164137D01*
X100982000Y-88062708D01*
X100982000Y-87959292D01*
X100961824Y-87857863D01*
X100922249Y-87762319D01*
X100864794Y-87676332D01*
X100791668Y-87603206D01*
X100705681Y-87545751D01*
X100610137Y-87506176D01*
X100508708Y-87486000D01*
X100405292Y-87486000D01*
X100303863Y-87506176D01*
X100208319Y-87545751D01*
X100122332Y-87603206D01*
X100049206Y-87676332D01*
X99991751Y-87762319D01*
X99952176Y-87857863D01*
X99932000Y-87959292D01*
X98513381Y-87959292D01*
X98431523Y-87904597D01*
X98331429Y-87863136D01*
X98225170Y-87842000D01*
X98116830Y-87842000D01*
X98010571Y-87863136D01*
X97910477Y-87904597D01*
X97820396Y-87964787D01*
X97743787Y-88041396D01*
X97683597Y-88131477D01*
X97642136Y-88231571D01*
X97621000Y-88337830D01*
X95362213Y-88337830D01*
X95334249Y-88270319D01*
X95330695Y-88265000D01*
X95334249Y-88259681D01*
X95373824Y-88164137D01*
X95394000Y-88062708D01*
X95394000Y-87959292D01*
X95373824Y-87857863D01*
X95334249Y-87762319D01*
X95276794Y-87676332D01*
X95203668Y-87603206D01*
X95117681Y-87545751D01*
X95022137Y-87506176D01*
X94920708Y-87486000D01*
X94817292Y-87486000D01*
X94812035Y-87487046D01*
X94768794Y-87422332D01*
X94695668Y-87349206D01*
X94609681Y-87291751D01*
X94514137Y-87252176D01*
X94412708Y-87232000D01*
X94309292Y-87232000D01*
X94207863Y-87252176D01*
X94112319Y-87291751D01*
X94026332Y-87349206D01*
X93953206Y-87422332D01*
X93895751Y-87508319D01*
X93856176Y-87603863D01*
X93836000Y-87705292D01*
X86490000Y-87705292D01*
X86490000Y-87492112D01*
X86436199Y-87221635D01*
X86330664Y-86966851D01*
X86177451Y-86737552D01*
X85982448Y-86542549D01*
X85753149Y-86389336D01*
X85682326Y-86360000D01*
X85753149Y-86330664D01*
X85982448Y-86177451D01*
X86177451Y-85982448D01*
X86330664Y-85753149D01*
X86363741Y-85673292D01*
X93328000Y-85673292D01*
X93328000Y-85776708D01*
X93348176Y-85878137D01*
X93387751Y-85973681D01*
X93445206Y-86059668D01*
X93518332Y-86132794D01*
X93604319Y-86190249D01*
X93699863Y-86229824D01*
X93801292Y-86250000D01*
X93904708Y-86250000D01*
X94006137Y-86229824D01*
X94101681Y-86190249D01*
X94187668Y-86132794D01*
X94260794Y-86059668D01*
X94318249Y-85973681D01*
X94357824Y-85878137D01*
X94378000Y-85776708D01*
X94378000Y-85673292D01*
X94357824Y-85571863D01*
X94318249Y-85476319D01*
X94260794Y-85390332D01*
X94187668Y-85317206D01*
X94101681Y-85259751D01*
X94006137Y-85220176D01*
X93904708Y-85200000D01*
X93801292Y-85200000D01*
X93699863Y-85220176D01*
X93604319Y-85259751D01*
X93518332Y-85317206D01*
X93445206Y-85390332D01*
X93387751Y-85476319D01*
X93348176Y-85571863D01*
X93328000Y-85673292D01*
X86363741Y-85673292D01*
X86436199Y-85498365D01*
X86490000Y-85227888D01*
X86490000Y-84952112D01*
X86456129Y-84781830D01*
X94954000Y-84781830D01*
X94954000Y-84890170D01*
X94975136Y-84996429D01*
X95016597Y-85096523D01*
X95076787Y-85186604D01*
X95153396Y-85263213D01*
X95243477Y-85323403D01*
X95343571Y-85364864D01*
X95449830Y-85386000D01*
X95558170Y-85386000D01*
X95664429Y-85364864D01*
X95764523Y-85323403D01*
X95854604Y-85263213D01*
X95931213Y-85186604D01*
X95991403Y-85096523D01*
X96032864Y-84996429D01*
X96054000Y-84890170D01*
X96054000Y-84781830D01*
X96032864Y-84675571D01*
X95991403Y-84575477D01*
X95931213Y-84485396D01*
X95854604Y-84408787D01*
X95764523Y-84348597D01*
X95664429Y-84307136D01*
X95558170Y-84286000D01*
X95449830Y-84286000D01*
X95343571Y-84307136D01*
X95243477Y-84348597D01*
X95153396Y-84408787D01*
X95076787Y-84485396D01*
X95016597Y-84575477D01*
X94975136Y-84675571D01*
X94954000Y-84781830D01*
X86456129Y-84781830D01*
X86436199Y-84681635D01*
X86330664Y-84426851D01*
X86177451Y-84197552D01*
X86129191Y-84149292D01*
X89137000Y-84149292D01*
X89137000Y-84252708D01*
X89157176Y-84354137D01*
X89196751Y-84449681D01*
X89254206Y-84535668D01*
X89327332Y-84608794D01*
X89413319Y-84666249D01*
X89508863Y-84705824D01*
X89610292Y-84726000D01*
X89713708Y-84726000D01*
X89815137Y-84705824D01*
X89910681Y-84666249D01*
X89996668Y-84608794D01*
X90069794Y-84535668D01*
X90127249Y-84449681D01*
X90166824Y-84354137D01*
X90187000Y-84252708D01*
X90187000Y-84149292D01*
X90166824Y-84047863D01*
X90127249Y-83952319D01*
X90069794Y-83866332D01*
X89996668Y-83793206D01*
X89910681Y-83735751D01*
X89815137Y-83696176D01*
X89713708Y-83676000D01*
X89610292Y-83676000D01*
X89508863Y-83696176D01*
X89413319Y-83735751D01*
X89327332Y-83793206D01*
X89254206Y-83866332D01*
X89196751Y-83952319D01*
X89157176Y-84047863D01*
X89137000Y-84149292D01*
X86129191Y-84149292D01*
X85982448Y-84002549D01*
X85753149Y-83849336D01*
X85682326Y-83820000D01*
X85753149Y-83790664D01*
X85982448Y-83637451D01*
X86177451Y-83442448D01*
X86330664Y-83213149D01*
X86429309Y-82975000D01*
X86469594Y-82975000D01*
X86753354Y-83258761D01*
X86766661Y-83274975D01*
X86831375Y-83328085D01*
X86879490Y-83353802D01*
X86905207Y-83367549D01*
X86985321Y-83391851D01*
X87047761Y-83398001D01*
X87047768Y-83398001D01*
X87068635Y-83400056D01*
X87089502Y-83398001D01*
X95623961Y-83398001D01*
X98871721Y-86645762D01*
X98885026Y-86661974D01*
X98949740Y-86715084D01*
X99023573Y-86754548D01*
X99079383Y-86771478D01*
X99103685Y-86778850D01*
X99111327Y-86779603D01*
X99166126Y-86785000D01*
X99166133Y-86785000D01*
X99187000Y-86787055D01*
X99207867Y-86785000D01*
X103704082Y-86785000D01*
X103764319Y-86825249D01*
X103859863Y-86864824D01*
X103961292Y-86885000D01*
X104064708Y-86885000D01*
X104166137Y-86864824D01*
X104261681Y-86825249D01*
X104347668Y-86767794D01*
X104420794Y-86694668D01*
X104478249Y-86608681D01*
X104517824Y-86513137D01*
X104538000Y-86411708D01*
X104538000Y-86308292D01*
X104517824Y-86206863D01*
X104478249Y-86111319D01*
X104420794Y-86025332D01*
X104347668Y-85952206D01*
X104261681Y-85894751D01*
X104166137Y-85855176D01*
X104064708Y-85835000D01*
X103961292Y-85835000D01*
X103859863Y-85855176D01*
X103764319Y-85894751D01*
X103704082Y-85935000D01*
X99363041Y-85935000D01*
X97193871Y-83765830D01*
X99780000Y-83765830D01*
X99780000Y-83874170D01*
X99801136Y-83980429D01*
X99842597Y-84080523D01*
X99902787Y-84170604D01*
X99979396Y-84247213D01*
X100069477Y-84307403D01*
X100169571Y-84348864D01*
X100275830Y-84370000D01*
X100384170Y-84370000D01*
X100490429Y-84348864D01*
X100590523Y-84307403D01*
X100680604Y-84247213D01*
X100757213Y-84170604D01*
X100817403Y-84080523D01*
X100858864Y-83980429D01*
X100880000Y-83874170D01*
X100880000Y-83765830D01*
X100858864Y-83659571D01*
X100817403Y-83559477D01*
X100757213Y-83469396D01*
X100680604Y-83392787D01*
X100590523Y-83332597D01*
X100490429Y-83291136D01*
X100384170Y-83270000D01*
X100275830Y-83270000D01*
X100169571Y-83291136D01*
X100069477Y-83332597D01*
X99979396Y-83392787D01*
X99902787Y-83469396D01*
X99842597Y-83559477D01*
X99801136Y-83659571D01*
X99780000Y-83765830D01*
X97193871Y-83765830D01*
X96115284Y-82687244D01*
X96101975Y-82671027D01*
X96037261Y-82617917D01*
X95963428Y-82578453D01*
X95883315Y-82554151D01*
X95820875Y-82548001D01*
X95820868Y-82548001D01*
X95800001Y-82545946D01*
X95779134Y-82548001D01*
X95232461Y-82548001D01*
X95276794Y-82503668D01*
X95282031Y-82495830D01*
X97621000Y-82495830D01*
X97621000Y-82604170D01*
X97642136Y-82710429D01*
X97683597Y-82810523D01*
X97743787Y-82900604D01*
X97820396Y-82977213D01*
X97910477Y-83037403D01*
X98010571Y-83078864D01*
X98116830Y-83100000D01*
X98225170Y-83100000D01*
X98331429Y-83078864D01*
X98431523Y-83037403D01*
X98521604Y-82977213D01*
X98598213Y-82900604D01*
X98658403Y-82810523D01*
X98699864Y-82710429D01*
X98721000Y-82604170D01*
X98721000Y-82495830D01*
X98699864Y-82389571D01*
X98658403Y-82289477D01*
X98598213Y-82199396D01*
X98521604Y-82122787D01*
X98431523Y-82062597D01*
X98331429Y-82021136D01*
X98225170Y-82000000D01*
X98116830Y-82000000D01*
X98010571Y-82021136D01*
X97910477Y-82062597D01*
X97820396Y-82122787D01*
X97743787Y-82199396D01*
X97683597Y-82289477D01*
X97642136Y-82389571D01*
X97621000Y-82495830D01*
X95282031Y-82495830D01*
X95334249Y-82417681D01*
X95373824Y-82322137D01*
X95394000Y-82220708D01*
X95394000Y-82117292D01*
X95373824Y-82015863D01*
X95334249Y-81920319D01*
X95330695Y-81915000D01*
X95334249Y-81909681D01*
X95373824Y-81814137D01*
X95394000Y-81712708D01*
X95394000Y-81609292D01*
X95373824Y-81507863D01*
X95334249Y-81412319D01*
X95276794Y-81326332D01*
X95203668Y-81253206D01*
X95117681Y-81195751D01*
X95022137Y-81156176D01*
X94920708Y-81136000D01*
X94817292Y-81136000D01*
X94812035Y-81137046D01*
X94768794Y-81072332D01*
X94695668Y-80999206D01*
X94609681Y-80941751D01*
X94514137Y-80902176D01*
X94412708Y-80882000D01*
X94309292Y-80882000D01*
X94207863Y-80902176D01*
X94112319Y-80941751D01*
X94026332Y-80999206D01*
X93953206Y-81072332D01*
X93895751Y-81158319D01*
X93856176Y-81253863D01*
X93836000Y-81355292D01*
X93836000Y-81458708D01*
X93856176Y-81560137D01*
X93895751Y-81655681D01*
X93899305Y-81661000D01*
X93895751Y-81666319D01*
X93856176Y-81761863D01*
X93836000Y-81863292D01*
X93836000Y-81966708D01*
X93856176Y-82068137D01*
X93895751Y-82163681D01*
X93899305Y-82169000D01*
X93895751Y-82174319D01*
X93856176Y-82269863D01*
X93836000Y-82371292D01*
X93836000Y-82474708D01*
X93850579Y-82548001D01*
X87244676Y-82548001D01*
X86960917Y-82264243D01*
X86947608Y-82248026D01*
X86882894Y-82194916D01*
X86809061Y-82155452D01*
X86728948Y-82131150D01*
X86666508Y-82125000D01*
X86666501Y-82125000D01*
X86645634Y-82122945D01*
X86624767Y-82125000D01*
X86429309Y-82125000D01*
X86330664Y-81886851D01*
X86177451Y-81657552D01*
X85982448Y-81462549D01*
X85905975Y-81411451D01*
X86190000Y-81411451D01*
X86248810Y-81405659D01*
X86305360Y-81388504D01*
X86357477Y-81360647D01*
X86403158Y-81323158D01*
X86440647Y-81277477D01*
X86468504Y-81225360D01*
X86485659Y-81168810D01*
X86491451Y-81110000D01*
X86491451Y-78910000D01*
X86485659Y-78851190D01*
X86468504Y-78794640D01*
X86450881Y-78761669D01*
X95045534Y-78761669D01*
X95045534Y-78865085D01*
X95065710Y-78966514D01*
X95105285Y-79062058D01*
X95162740Y-79148045D01*
X95235866Y-79221171D01*
X95321853Y-79278626D01*
X95417397Y-79318201D01*
X95518826Y-79338377D01*
X95622242Y-79338377D01*
X95723671Y-79318201D01*
X95819215Y-79278626D01*
X95905202Y-79221171D01*
X95978328Y-79148045D01*
X96035783Y-79062058D01*
X96075358Y-78966514D01*
X96095534Y-78865085D01*
X96095534Y-78761669D01*
X96075358Y-78660240D01*
X96035783Y-78564696D01*
X95978328Y-78478709D01*
X95905202Y-78405583D01*
X95819215Y-78348128D01*
X95723671Y-78308553D01*
X95622242Y-78288377D01*
X95518826Y-78288377D01*
X95417397Y-78308553D01*
X95321853Y-78348128D01*
X95235866Y-78405583D01*
X95162740Y-78478709D01*
X95105285Y-78564696D01*
X95065710Y-78660240D01*
X95045534Y-78761669D01*
X86450881Y-78761669D01*
X86440647Y-78742523D01*
X86403158Y-78696842D01*
X86357477Y-78659353D01*
X86305360Y-78631496D01*
X86248810Y-78614341D01*
X86190000Y-78608549D01*
X83990000Y-78608549D01*
X83931190Y-78614341D01*
X83874640Y-78631496D01*
X83822523Y-78659353D01*
X83776842Y-78696842D01*
X83739353Y-78742523D01*
X83711496Y-78794640D01*
X83694341Y-78851190D01*
X83688549Y-78910000D01*
X81630000Y-78910000D01*
X81630000Y-77551451D01*
X83600000Y-77551451D01*
X83658810Y-77545659D01*
X83715360Y-77528504D01*
X83767477Y-77500647D01*
X83813158Y-77463158D01*
X83850647Y-77417477D01*
X83878504Y-77365360D01*
X83895659Y-77308810D01*
X83901451Y-77250000D01*
X83901451Y-76851146D01*
X84041387Y-77060575D01*
X84229425Y-77248613D01*
X84450535Y-77396354D01*
X84696220Y-77498120D01*
X84957037Y-77550000D01*
X85222963Y-77550000D01*
X85483780Y-77498120D01*
X85729465Y-77396354D01*
X85950575Y-77248613D01*
X86058343Y-77140845D01*
X86759866Y-77140845D01*
X86873644Y-77326101D01*
X87107869Y-77452021D01*
X87362159Y-77529827D01*
X87626742Y-77556528D01*
X87891449Y-77531098D01*
X88146110Y-77454515D01*
X88380937Y-77329721D01*
X88386356Y-77326101D01*
X88500134Y-77140845D01*
X89299866Y-77140845D01*
X89413644Y-77326101D01*
X89647869Y-77452021D01*
X89902159Y-77529827D01*
X90166742Y-77556528D01*
X90431449Y-77531098D01*
X90686110Y-77454515D01*
X90920937Y-77329721D01*
X90926356Y-77326101D01*
X91040134Y-77140845D01*
X90170000Y-76270711D01*
X89299866Y-77140845D01*
X88500134Y-77140845D01*
X87630000Y-76270711D01*
X86759866Y-77140845D01*
X86058343Y-77140845D01*
X86138613Y-77060575D01*
X86286354Y-76839465D01*
X86359486Y-76662909D01*
X86375485Y-76716110D01*
X86500279Y-76950937D01*
X86503899Y-76956356D01*
X86689155Y-77070134D01*
X87559289Y-76200000D01*
X87545147Y-76185858D01*
X87615858Y-76115147D01*
X87630000Y-76129289D01*
X87644142Y-76115147D01*
X87714853Y-76185858D01*
X87700711Y-76200000D01*
X88570845Y-77070134D01*
X88756101Y-76956356D01*
X88882021Y-76722131D01*
X88899811Y-76663989D01*
X88915485Y-76716110D01*
X89040279Y-76950937D01*
X89043899Y-76956356D01*
X89229155Y-77070134D01*
X90099289Y-76200000D01*
X90085147Y-76185858D01*
X90155858Y-76115147D01*
X90170000Y-76129289D01*
X90184142Y-76115147D01*
X90254853Y-76185858D01*
G37*
X90254853Y-76185858D02*
X90240711Y-76200000D01*
X91110845Y-77070134D01*
X91296101Y-76956356D01*
X91422021Y-76722131D01*
X91440300Y-76662391D01*
X91513646Y-76839465D01*
X91661387Y-77060575D01*
X91849425Y-77248613D01*
X92070535Y-77396354D01*
X92316220Y-77498120D01*
X92577037Y-77550000D01*
X92842963Y-77550000D01*
X93103780Y-77498120D01*
X93349465Y-77396354D01*
X93570575Y-77248613D01*
X93758613Y-77060575D01*
X93906354Y-76839465D01*
X93980000Y-76661668D01*
X94053646Y-76839465D01*
X94201387Y-77060575D01*
X94389425Y-77248613D01*
X94610535Y-77396354D01*
X94856220Y-77498120D01*
X95117037Y-77550000D01*
X95382963Y-77550000D01*
X95643780Y-77498120D01*
X95858245Y-77409286D01*
X105368700Y-86919741D01*
X105368699Y-88512423D01*
X105328450Y-88572660D01*
X105288875Y-88668204D01*
X105268699Y-88769633D01*
X105268699Y-88873049D01*
X105288875Y-88974478D01*
X105328450Y-89070022D01*
X105385905Y-89156009D01*
X105459031Y-89229135D01*
X105545018Y-89286590D01*
X105640562Y-89326165D01*
X105741991Y-89346341D01*
X105845407Y-89346341D01*
X105946836Y-89326165D01*
X106042380Y-89286590D01*
X106128367Y-89229135D01*
X106201493Y-89156009D01*
X106258948Y-89070022D01*
X106298523Y-88974478D01*
X106318699Y-88873049D01*
X106318699Y-88769633D01*
X106298523Y-88668204D01*
X106258948Y-88572660D01*
X106218699Y-88512423D01*
X106218699Y-86764565D01*
X106220754Y-86743698D01*
X106218699Y-86722831D01*
X106218699Y-86722825D01*
X106212549Y-86660385D01*
X106188247Y-86580272D01*
X106148783Y-86506439D01*
X106095673Y-86441725D01*
X106079461Y-86428420D01*
X104178871Y-84527830D01*
X105241000Y-84527830D01*
X105241000Y-84636170D01*
X105262136Y-84742429D01*
X105303597Y-84842523D01*
X105363787Y-84932604D01*
X105440396Y-85009213D01*
X105530477Y-85069403D01*
X105630571Y-85110864D01*
X105736830Y-85132000D01*
X105845170Y-85132000D01*
X105951429Y-85110864D01*
X106051523Y-85069403D01*
X106141604Y-85009213D01*
X106218213Y-84932604D01*
X106278403Y-84842523D01*
X106319864Y-84742429D01*
X106341000Y-84636170D01*
X106341000Y-84527830D01*
X106319864Y-84421571D01*
X106278403Y-84321477D01*
X106218213Y-84231396D01*
X106141604Y-84154787D01*
X106051523Y-84094597D01*
X105951429Y-84053136D01*
X105845170Y-84032000D01*
X105736830Y-84032000D01*
X105630571Y-84053136D01*
X105530477Y-84094597D01*
X105440396Y-84154787D01*
X105363787Y-84231396D01*
X105303597Y-84321477D01*
X105262136Y-84421571D01*
X105241000Y-84527830D01*
X104178871Y-84527830D01*
X102276333Y-82625292D01*
X107806000Y-82625292D01*
X107806000Y-82728708D01*
X107826176Y-82830137D01*
X107865751Y-82925681D01*
X107923206Y-83011668D01*
X107996332Y-83084794D01*
X108082319Y-83142249D01*
X108177863Y-83181824D01*
X108279292Y-83202000D01*
X108382708Y-83202000D01*
X108484137Y-83181824D01*
X108579681Y-83142249D01*
X108665668Y-83084794D01*
X108738794Y-83011668D01*
X108796249Y-82925681D01*
X108835824Y-82830137D01*
X108856000Y-82728708D01*
X108856000Y-82625292D01*
X108835824Y-82523863D01*
X108796249Y-82428319D01*
X108738794Y-82342332D01*
X108665668Y-82269206D01*
X108579681Y-82211751D01*
X108484137Y-82172176D01*
X108382708Y-82152000D01*
X108279292Y-82152000D01*
X108177863Y-82172176D01*
X108082319Y-82211751D01*
X107996332Y-82269206D01*
X107923206Y-82342332D01*
X107865751Y-82428319D01*
X107826176Y-82523863D01*
X107806000Y-82625292D01*
X102276333Y-82625292D01*
X97831333Y-78180292D01*
X105266000Y-78180292D01*
X105266000Y-78283708D01*
X105286176Y-78385137D01*
X105325751Y-78480681D01*
X105383206Y-78566668D01*
X105456332Y-78639794D01*
X105542319Y-78697249D01*
X105637863Y-78736824D01*
X105739292Y-78757000D01*
X105842708Y-78757000D01*
X105944137Y-78736824D01*
X106039681Y-78697249D01*
X106125668Y-78639794D01*
X106198794Y-78566668D01*
X106256249Y-78480681D01*
X106295824Y-78385137D01*
X106316000Y-78283708D01*
X106316000Y-78180292D01*
X106295824Y-78078863D01*
X106256249Y-77983319D01*
X106198794Y-77897332D01*
X106125668Y-77824206D01*
X106039681Y-77766751D01*
X105944137Y-77727176D01*
X105842708Y-77707000D01*
X105739292Y-77707000D01*
X105637863Y-77727176D01*
X105542319Y-77766751D01*
X105456332Y-77824206D01*
X105383206Y-77897332D01*
X105325751Y-77983319D01*
X105286176Y-78078863D01*
X105266000Y-78180292D01*
X97831333Y-78180292D01*
X96459286Y-76808245D01*
X96520000Y-76661668D01*
X96593646Y-76839465D01*
X96741387Y-77060575D01*
X96929425Y-77248613D01*
X97150535Y-77396354D01*
X97396220Y-77498120D01*
X97657037Y-77550000D01*
X97922963Y-77550000D01*
X98183780Y-77498120D01*
X98429465Y-77396354D01*
X98650575Y-77248613D01*
X98838613Y-77060575D01*
X98986354Y-76839465D01*
X99060000Y-76661668D01*
X99133646Y-76839465D01*
X99281387Y-77060575D01*
X99469425Y-77248613D01*
X99690535Y-77396354D01*
X99936220Y-77498120D01*
X100197037Y-77550000D01*
X100462963Y-77550000D01*
X100723780Y-77498120D01*
X100969465Y-77396354D01*
X101190575Y-77248613D01*
X101378613Y-77060575D01*
X101526354Y-76839465D01*
X101600000Y-76661668D01*
X101673646Y-76839465D01*
X101821387Y-77060575D01*
X102009425Y-77248613D01*
X102230535Y-77396354D01*
X102476220Y-77498120D01*
X102737037Y-77550000D01*
X103002963Y-77550000D01*
X103263780Y-77498120D01*
X103509465Y-77396354D01*
X103730575Y-77248613D01*
X103918613Y-77060575D01*
X104066354Y-76839465D01*
X104140000Y-76661668D01*
X104213646Y-76839465D01*
X104361387Y-77060575D01*
X104549425Y-77248613D01*
X104770535Y-77396354D01*
X105016220Y-77498120D01*
X105277037Y-77550000D01*
X105542963Y-77550000D01*
X105803780Y-77498120D01*
X106049465Y-77396354D01*
X106270575Y-77248613D01*
X106458613Y-77060575D01*
X106606354Y-76839465D01*
X106680000Y-76661668D01*
X106753646Y-76839465D01*
X106901387Y-77060575D01*
X107089425Y-77248613D01*
X107310535Y-77396354D01*
X107556220Y-77498120D01*
X107817037Y-77550000D01*
X108082963Y-77550000D01*
X108343780Y-77498120D01*
X108589465Y-77396354D01*
X108810575Y-77248613D01*
X108998613Y-77060575D01*
X109146354Y-76839465D01*
X109220000Y-76661668D01*
X109293646Y-76839465D01*
X109441387Y-77060575D01*
X109629425Y-77248613D01*
X109850535Y-77396354D01*
X110096220Y-77498120D01*
X110357037Y-77550000D01*
X110622963Y-77550000D01*
X110883780Y-77498120D01*
X111129465Y-77396354D01*
X111350575Y-77248613D01*
X111410000Y-77189188D01*
X111410001Y-90450813D01*
X111350575Y-90391387D01*
X111129465Y-90243646D01*
X110883780Y-90141880D01*
X110622963Y-90090000D01*
X110357037Y-90090000D01*
X110096220Y-90141880D01*
X109850535Y-90243646D01*
X109629425Y-90391387D01*
X109441387Y-90579425D01*
X109293646Y-90800535D01*
X109220000Y-90978332D01*
X109146354Y-90800535D01*
X108998613Y-90579425D01*
X108810575Y-90391387D01*
X108589465Y-90243646D01*
X108343780Y-90141880D01*
X108082963Y-90090000D01*
X107817037Y-90090000D01*
X107556220Y-90141880D01*
X107310535Y-90243646D01*
X107089425Y-90391387D01*
X106901387Y-90579425D01*
X106753646Y-90800535D01*
X106680000Y-90978332D01*
X106606354Y-90800535D01*
X106458613Y-90579425D01*
X106270575Y-90391387D01*
X106049465Y-90243646D01*
X105803780Y-90141880D01*
X105542963Y-90090000D01*
X105277037Y-90090000D01*
X105016220Y-90141880D01*
X104770535Y-90243646D01*
X104549425Y-90391387D01*
X104361387Y-90579425D01*
X104213646Y-90800535D01*
X104140000Y-90978332D01*
X104066354Y-90800535D01*
X103918613Y-90579425D01*
X103730575Y-90391387D01*
X103509465Y-90243646D01*
X103263780Y-90141880D01*
X103002963Y-90090000D01*
X102737037Y-90090000D01*
X102476220Y-90141880D01*
X102230535Y-90243646D01*
X102009425Y-90391387D01*
X101821387Y-90579425D01*
X101673646Y-90800535D01*
X101600000Y-90978332D01*
X101526354Y-90800535D01*
X101378613Y-90579425D01*
X101190575Y-90391387D01*
X100969465Y-90243646D01*
X100723780Y-90141880D01*
X100462963Y-90090000D01*
X100197037Y-90090000D01*
X99936220Y-90141880D01*
X99690535Y-90243646D01*
X99469425Y-90391387D01*
X99281387Y-90579425D01*
X99133646Y-90800535D01*
X99060000Y-90978332D01*
X98986354Y-90800535D01*
X98838613Y-90579425D01*
X98650575Y-90391387D01*
X98429465Y-90243646D01*
X98183780Y-90141880D01*
X97922963Y-90090000D01*
X97657037Y-90090000D01*
X97396220Y-90141880D01*
X97150535Y-90243646D01*
X96929425Y-90391387D01*
X96741387Y-90579425D01*
X96593646Y-90800535D01*
X96520000Y-90978332D01*
X96446354Y-90800535D01*
X96298613Y-90579425D01*
X96110575Y-90391387D01*
X95889465Y-90243646D01*
X95643780Y-90141880D01*
X95382963Y-90090000D01*
X95117037Y-90090000D01*
X94856220Y-90141880D01*
X94610535Y-90243646D01*
X94389425Y-90391387D01*
X94201387Y-90579425D01*
X94053646Y-90800535D01*
X93980000Y-90978332D01*
X93906354Y-90800535D01*
X93758613Y-90579425D01*
X93570575Y-90391387D01*
X93349465Y-90243646D01*
X93103780Y-90141880D01*
X92842963Y-90090000D01*
X92577037Y-90090000D01*
X92316220Y-90141880D01*
X92070535Y-90243646D01*
X91849425Y-90391387D01*
X91661387Y-90579425D01*
X91513646Y-90800535D01*
X91440000Y-90978332D01*
X91366354Y-90800535D01*
X91218613Y-90579425D01*
X91030575Y-90391387D01*
X90809465Y-90243646D01*
X90563780Y-90141880D01*
X90302963Y-90090000D01*
X90037037Y-90090000D01*
X89776220Y-90141880D01*
X89530535Y-90243646D01*
X89309425Y-90391387D01*
X89121387Y-90579425D01*
X88973646Y-90800535D01*
X88900000Y-90978332D01*
X88826354Y-90800535D01*
X88678613Y-90579425D01*
X88490575Y-90391387D01*
X88269465Y-90243646D01*
X88023780Y-90141880D01*
X87762963Y-90090000D01*
X87497037Y-90090000D01*
X87236220Y-90141880D01*
X86990535Y-90243646D01*
X86769425Y-90391387D01*
X86581387Y-90579425D01*
X86433646Y-90800535D01*
X86360514Y-90977091D01*
X86344515Y-90923890D01*
X86219721Y-90689063D01*
X86216101Y-90683644D01*
X86030845Y-90569866D01*
X85160711Y-91440000D01*
X85174853Y-91454142D01*
X85104142Y-91524853D01*
X85090000Y-91510711D01*
X85075858Y-91524853D01*
X85005147Y-91454142D01*
X85019289Y-91440000D01*
X84149155Y-90569866D01*
X83963899Y-90683644D01*
X83837979Y-90917869D01*
X83819700Y-90977609D01*
X83746354Y-90800535D01*
X83598613Y-90579425D01*
X83518343Y-90499155D01*
X84219866Y-90499155D01*
X85090000Y-91369289D01*
X85960134Y-90499155D01*
X85846356Y-90313899D01*
X85612131Y-90187979D01*
X85357841Y-90110173D01*
X85093258Y-90083472D01*
X84828551Y-90108902D01*
X84573890Y-90185485D01*
X84339063Y-90310279D01*
X84333644Y-90313899D01*
X84219866Y-90499155D01*
X83518343Y-90499155D01*
X83410575Y-90391387D01*
X83189465Y-90243646D01*
X82943780Y-90141880D01*
X82682963Y-90090000D01*
X82417037Y-90090000D01*
X82156220Y-90141880D01*
X81910535Y-90243646D01*
X81689425Y-90391387D01*
X81630000Y-90450812D01*
X81630000Y-78910000D01*
X83688549Y-78910000D01*
X83688549Y-81110000D01*
X83694341Y-81168810D01*
X83711496Y-81225360D01*
X83739353Y-81277477D01*
X83776842Y-81323158D01*
X83822523Y-81360647D01*
X83874640Y-81388504D01*
X83931190Y-81405659D01*
X83990000Y-81411451D01*
X84274025Y-81411451D01*
X84197552Y-81462549D01*
X84002549Y-81657552D01*
X83849336Y-81886851D01*
X83743801Y-82141635D01*
X83690000Y-82412112D01*
X83690000Y-82687888D01*
X83743801Y-82958365D01*
X83849336Y-83213149D01*
X84002549Y-83442448D01*
X84197552Y-83637451D01*
X84426851Y-83790664D01*
X84497674Y-83820000D01*
X84426851Y-83849336D01*
X84197552Y-84002549D01*
X84002549Y-84197552D01*
X83849336Y-84426851D01*
X83743801Y-84681635D01*
X83690000Y-84952112D01*
X83690000Y-85227888D01*
X83743801Y-85498365D01*
X83849336Y-85753149D01*
X84002549Y-85982448D01*
X84197552Y-86177451D01*
X84426851Y-86330664D01*
X84497674Y-86360000D01*
X84426851Y-86389336D01*
X84197552Y-86542549D01*
X84002549Y-86737552D01*
X83849336Y-86966851D01*
X83743801Y-87221635D01*
X83690000Y-87492112D01*
X83690000Y-87767888D01*
X83743801Y-88038365D01*
X83849336Y-88293149D01*
X84002549Y-88522448D01*
X84197552Y-88717451D01*
X84426851Y-88870664D01*
X84681635Y-88976199D01*
X84952112Y-89030000D01*
X85227888Y-89030000D01*
X85498365Y-88976199D01*
X85753149Y-88870664D01*
X85982448Y-88717451D01*
X86177451Y-88522448D01*
X86330664Y-88293149D01*
X86436199Y-88038365D01*
X86490000Y-87767888D01*
X86490000Y-87705292D01*
X93836000Y-87705292D01*
X93836000Y-87808708D01*
X93856176Y-87910137D01*
X93895751Y-88005681D01*
X93899305Y-88011000D01*
X93895751Y-88016319D01*
X93856176Y-88111863D01*
X93836000Y-88213292D01*
X93836000Y-88316708D01*
X93856176Y-88418137D01*
X93895751Y-88513681D01*
X93899305Y-88519000D01*
X93895751Y-88524319D01*
X93856176Y-88619863D01*
X93836000Y-88721292D01*
X93836000Y-88824708D01*
X93856176Y-88926137D01*
X93895751Y-89021681D01*
X93953206Y-89107668D01*
X94026332Y-89180794D01*
X94112319Y-89238249D01*
X94207863Y-89277824D01*
X94309292Y-89298000D01*
X94412708Y-89298000D01*
X94514137Y-89277824D01*
X94609681Y-89238249D01*
X94695668Y-89180794D01*
X94768794Y-89107668D01*
X94812035Y-89042954D01*
X94817292Y-89044000D01*
X94920708Y-89044000D01*
X95022137Y-89023824D01*
X95117681Y-88984249D01*
X95203668Y-88926794D01*
X95276794Y-88853668D01*
X95334249Y-88767681D01*
X95373824Y-88672137D01*
X95394000Y-88570708D01*
X95394000Y-88467292D01*
X95373824Y-88365863D01*
X95362213Y-88337830D01*
X97621000Y-88337830D01*
X97621000Y-88446170D01*
X97642136Y-88552429D01*
X97683597Y-88652523D01*
X97743787Y-88742604D01*
X97820396Y-88819213D01*
X97910477Y-88879403D01*
X98010571Y-88920864D01*
X98116830Y-88942000D01*
X98225170Y-88942000D01*
X98331429Y-88920864D01*
X98431523Y-88879403D01*
X98521604Y-88819213D01*
X98598213Y-88742604D01*
X98658403Y-88652523D01*
X98699864Y-88552429D01*
X98721000Y-88446170D01*
X98721000Y-88337830D01*
X98699864Y-88231571D01*
X98658403Y-88131477D01*
X98598213Y-88041396D01*
X98521604Y-87964787D01*
X98513381Y-87959292D01*
X99932000Y-87959292D01*
X99932000Y-88062708D01*
X99952176Y-88164137D01*
X99991751Y-88259681D01*
X100049206Y-88345668D01*
X100122332Y-88418794D01*
X100208319Y-88476249D01*
X100303863Y-88515824D01*
X100405292Y-88536000D01*
X100508708Y-88536000D01*
X100610137Y-88515824D01*
X100705681Y-88476249D01*
X100791668Y-88418794D01*
X100864794Y-88345668D01*
X100922249Y-88259681D01*
X100961824Y-88164137D01*
X100982000Y-88062708D01*
X100982000Y-87959292D01*
X100961824Y-87857863D01*
X100922249Y-87762319D01*
X100864794Y-87676332D01*
X100791668Y-87603206D01*
X100705681Y-87545751D01*
X100610137Y-87506176D01*
X100508708Y-87486000D01*
X100405292Y-87486000D01*
X100303863Y-87506176D01*
X100208319Y-87545751D01*
X100122332Y-87603206D01*
X100049206Y-87676332D01*
X99991751Y-87762319D01*
X99952176Y-87857863D01*
X99932000Y-87959292D01*
X98513381Y-87959292D01*
X98431523Y-87904597D01*
X98331429Y-87863136D01*
X98225170Y-87842000D01*
X98116830Y-87842000D01*
X98010571Y-87863136D01*
X97910477Y-87904597D01*
X97820396Y-87964787D01*
X97743787Y-88041396D01*
X97683597Y-88131477D01*
X97642136Y-88231571D01*
X97621000Y-88337830D01*
X95362213Y-88337830D01*
X95334249Y-88270319D01*
X95330695Y-88265000D01*
X95334249Y-88259681D01*
X95373824Y-88164137D01*
X95394000Y-88062708D01*
X95394000Y-87959292D01*
X95373824Y-87857863D01*
X95334249Y-87762319D01*
X95276794Y-87676332D01*
X95203668Y-87603206D01*
X95117681Y-87545751D01*
X95022137Y-87506176D01*
X94920708Y-87486000D01*
X94817292Y-87486000D01*
X94812035Y-87487046D01*
X94768794Y-87422332D01*
X94695668Y-87349206D01*
X94609681Y-87291751D01*
X94514137Y-87252176D01*
X94412708Y-87232000D01*
X94309292Y-87232000D01*
X94207863Y-87252176D01*
X94112319Y-87291751D01*
X94026332Y-87349206D01*
X93953206Y-87422332D01*
X93895751Y-87508319D01*
X93856176Y-87603863D01*
X93836000Y-87705292D01*
X86490000Y-87705292D01*
X86490000Y-87492112D01*
X86436199Y-87221635D01*
X86330664Y-86966851D01*
X86177451Y-86737552D01*
X85982448Y-86542549D01*
X85753149Y-86389336D01*
X85682326Y-86360000D01*
X85753149Y-86330664D01*
X85982448Y-86177451D01*
X86177451Y-85982448D01*
X86330664Y-85753149D01*
X86363741Y-85673292D01*
X93328000Y-85673292D01*
X93328000Y-85776708D01*
X93348176Y-85878137D01*
X93387751Y-85973681D01*
X93445206Y-86059668D01*
X93518332Y-86132794D01*
X93604319Y-86190249D01*
X93699863Y-86229824D01*
X93801292Y-86250000D01*
X93904708Y-86250000D01*
X94006137Y-86229824D01*
X94101681Y-86190249D01*
X94187668Y-86132794D01*
X94260794Y-86059668D01*
X94318249Y-85973681D01*
X94357824Y-85878137D01*
X94378000Y-85776708D01*
X94378000Y-85673292D01*
X94357824Y-85571863D01*
X94318249Y-85476319D01*
X94260794Y-85390332D01*
X94187668Y-85317206D01*
X94101681Y-85259751D01*
X94006137Y-85220176D01*
X93904708Y-85200000D01*
X93801292Y-85200000D01*
X93699863Y-85220176D01*
X93604319Y-85259751D01*
X93518332Y-85317206D01*
X93445206Y-85390332D01*
X93387751Y-85476319D01*
X93348176Y-85571863D01*
X93328000Y-85673292D01*
X86363741Y-85673292D01*
X86436199Y-85498365D01*
X86490000Y-85227888D01*
X86490000Y-84952112D01*
X86456129Y-84781830D01*
X94954000Y-84781830D01*
X94954000Y-84890170D01*
X94975136Y-84996429D01*
X95016597Y-85096523D01*
X95076787Y-85186604D01*
X95153396Y-85263213D01*
X95243477Y-85323403D01*
X95343571Y-85364864D01*
X95449830Y-85386000D01*
X95558170Y-85386000D01*
X95664429Y-85364864D01*
X95764523Y-85323403D01*
X95854604Y-85263213D01*
X95931213Y-85186604D01*
X95991403Y-85096523D01*
X96032864Y-84996429D01*
X96054000Y-84890170D01*
X96054000Y-84781830D01*
X96032864Y-84675571D01*
X95991403Y-84575477D01*
X95931213Y-84485396D01*
X95854604Y-84408787D01*
X95764523Y-84348597D01*
X95664429Y-84307136D01*
X95558170Y-84286000D01*
X95449830Y-84286000D01*
X95343571Y-84307136D01*
X95243477Y-84348597D01*
X95153396Y-84408787D01*
X95076787Y-84485396D01*
X95016597Y-84575477D01*
X94975136Y-84675571D01*
X94954000Y-84781830D01*
X86456129Y-84781830D01*
X86436199Y-84681635D01*
X86330664Y-84426851D01*
X86177451Y-84197552D01*
X86129191Y-84149292D01*
X89137000Y-84149292D01*
X89137000Y-84252708D01*
X89157176Y-84354137D01*
X89196751Y-84449681D01*
X89254206Y-84535668D01*
X89327332Y-84608794D01*
X89413319Y-84666249D01*
X89508863Y-84705824D01*
X89610292Y-84726000D01*
X89713708Y-84726000D01*
X89815137Y-84705824D01*
X89910681Y-84666249D01*
X89996668Y-84608794D01*
X90069794Y-84535668D01*
X90127249Y-84449681D01*
X90166824Y-84354137D01*
X90187000Y-84252708D01*
X90187000Y-84149292D01*
X90166824Y-84047863D01*
X90127249Y-83952319D01*
X90069794Y-83866332D01*
X89996668Y-83793206D01*
X89910681Y-83735751D01*
X89815137Y-83696176D01*
X89713708Y-83676000D01*
X89610292Y-83676000D01*
X89508863Y-83696176D01*
X89413319Y-83735751D01*
X89327332Y-83793206D01*
X89254206Y-83866332D01*
X89196751Y-83952319D01*
X89157176Y-84047863D01*
X89137000Y-84149292D01*
X86129191Y-84149292D01*
X85982448Y-84002549D01*
X85753149Y-83849336D01*
X85682326Y-83820000D01*
X85753149Y-83790664D01*
X85982448Y-83637451D01*
X86177451Y-83442448D01*
X86330664Y-83213149D01*
X86429309Y-82975000D01*
X86469594Y-82975000D01*
X86753354Y-83258761D01*
X86766661Y-83274975D01*
X86831375Y-83328085D01*
X86879490Y-83353802D01*
X86905207Y-83367549D01*
X86985321Y-83391851D01*
X87047761Y-83398001D01*
X87047768Y-83398001D01*
X87068635Y-83400056D01*
X87089502Y-83398001D01*
X95623961Y-83398001D01*
X98871721Y-86645762D01*
X98885026Y-86661974D01*
X98949740Y-86715084D01*
X99023573Y-86754548D01*
X99079383Y-86771478D01*
X99103685Y-86778850D01*
X99111327Y-86779603D01*
X99166126Y-86785000D01*
X99166133Y-86785000D01*
X99187000Y-86787055D01*
X99207867Y-86785000D01*
X103704082Y-86785000D01*
X103764319Y-86825249D01*
X103859863Y-86864824D01*
X103961292Y-86885000D01*
X104064708Y-86885000D01*
X104166137Y-86864824D01*
X104261681Y-86825249D01*
X104347668Y-86767794D01*
X104420794Y-86694668D01*
X104478249Y-86608681D01*
X104517824Y-86513137D01*
X104538000Y-86411708D01*
X104538000Y-86308292D01*
X104517824Y-86206863D01*
X104478249Y-86111319D01*
X104420794Y-86025332D01*
X104347668Y-85952206D01*
X104261681Y-85894751D01*
X104166137Y-85855176D01*
X104064708Y-85835000D01*
X103961292Y-85835000D01*
X103859863Y-85855176D01*
X103764319Y-85894751D01*
X103704082Y-85935000D01*
X99363041Y-85935000D01*
X97193871Y-83765830D01*
X99780000Y-83765830D01*
X99780000Y-83874170D01*
X99801136Y-83980429D01*
X99842597Y-84080523D01*
X99902787Y-84170604D01*
X99979396Y-84247213D01*
X100069477Y-84307403D01*
X100169571Y-84348864D01*
X100275830Y-84370000D01*
X100384170Y-84370000D01*
X100490429Y-84348864D01*
X100590523Y-84307403D01*
X100680604Y-84247213D01*
X100757213Y-84170604D01*
X100817403Y-84080523D01*
X100858864Y-83980429D01*
X100880000Y-83874170D01*
X100880000Y-83765830D01*
X100858864Y-83659571D01*
X100817403Y-83559477D01*
X100757213Y-83469396D01*
X100680604Y-83392787D01*
X100590523Y-83332597D01*
X100490429Y-83291136D01*
X100384170Y-83270000D01*
X100275830Y-83270000D01*
X100169571Y-83291136D01*
X100069477Y-83332597D01*
X99979396Y-83392787D01*
X99902787Y-83469396D01*
X99842597Y-83559477D01*
X99801136Y-83659571D01*
X99780000Y-83765830D01*
X97193871Y-83765830D01*
X96115284Y-82687244D01*
X96101975Y-82671027D01*
X96037261Y-82617917D01*
X95963428Y-82578453D01*
X95883315Y-82554151D01*
X95820875Y-82548001D01*
X95820868Y-82548001D01*
X95800001Y-82545946D01*
X95779134Y-82548001D01*
X95232461Y-82548001D01*
X95276794Y-82503668D01*
X95282031Y-82495830D01*
X97621000Y-82495830D01*
X97621000Y-82604170D01*
X97642136Y-82710429D01*
X97683597Y-82810523D01*
X97743787Y-82900604D01*
X97820396Y-82977213D01*
X97910477Y-83037403D01*
X98010571Y-83078864D01*
X98116830Y-83100000D01*
X98225170Y-83100000D01*
X98331429Y-83078864D01*
X98431523Y-83037403D01*
X98521604Y-82977213D01*
X98598213Y-82900604D01*
X98658403Y-82810523D01*
X98699864Y-82710429D01*
X98721000Y-82604170D01*
X98721000Y-82495830D01*
X98699864Y-82389571D01*
X98658403Y-82289477D01*
X98598213Y-82199396D01*
X98521604Y-82122787D01*
X98431523Y-82062597D01*
X98331429Y-82021136D01*
X98225170Y-82000000D01*
X98116830Y-82000000D01*
X98010571Y-82021136D01*
X97910477Y-82062597D01*
X97820396Y-82122787D01*
X97743787Y-82199396D01*
X97683597Y-82289477D01*
X97642136Y-82389571D01*
X97621000Y-82495830D01*
X95282031Y-82495830D01*
X95334249Y-82417681D01*
X95373824Y-82322137D01*
X95394000Y-82220708D01*
X95394000Y-82117292D01*
X95373824Y-82015863D01*
X95334249Y-81920319D01*
X95330695Y-81915000D01*
X95334249Y-81909681D01*
X95373824Y-81814137D01*
X95394000Y-81712708D01*
X95394000Y-81609292D01*
X95373824Y-81507863D01*
X95334249Y-81412319D01*
X95276794Y-81326332D01*
X95203668Y-81253206D01*
X95117681Y-81195751D01*
X95022137Y-81156176D01*
X94920708Y-81136000D01*
X94817292Y-81136000D01*
X94812035Y-81137046D01*
X94768794Y-81072332D01*
X94695668Y-80999206D01*
X94609681Y-80941751D01*
X94514137Y-80902176D01*
X94412708Y-80882000D01*
X94309292Y-80882000D01*
X94207863Y-80902176D01*
X94112319Y-80941751D01*
X94026332Y-80999206D01*
X93953206Y-81072332D01*
X93895751Y-81158319D01*
X93856176Y-81253863D01*
X93836000Y-81355292D01*
X93836000Y-81458708D01*
X93856176Y-81560137D01*
X93895751Y-81655681D01*
X93899305Y-81661000D01*
X93895751Y-81666319D01*
X93856176Y-81761863D01*
X93836000Y-81863292D01*
X93836000Y-81966708D01*
X93856176Y-82068137D01*
X93895751Y-82163681D01*
X93899305Y-82169000D01*
X93895751Y-82174319D01*
X93856176Y-82269863D01*
X93836000Y-82371292D01*
X93836000Y-82474708D01*
X93850579Y-82548001D01*
X87244676Y-82548001D01*
X86960917Y-82264243D01*
X86947608Y-82248026D01*
X86882894Y-82194916D01*
X86809061Y-82155452D01*
X86728948Y-82131150D01*
X86666508Y-82125000D01*
X86666501Y-82125000D01*
X86645634Y-82122945D01*
X86624767Y-82125000D01*
X86429309Y-82125000D01*
X86330664Y-81886851D01*
X86177451Y-81657552D01*
X85982448Y-81462549D01*
X85905975Y-81411451D01*
X86190000Y-81411451D01*
X86248810Y-81405659D01*
X86305360Y-81388504D01*
X86357477Y-81360647D01*
X86403158Y-81323158D01*
X86440647Y-81277477D01*
X86468504Y-81225360D01*
X86485659Y-81168810D01*
X86491451Y-81110000D01*
X86491451Y-78910000D01*
X86485659Y-78851190D01*
X86468504Y-78794640D01*
X86450881Y-78761669D01*
X95045534Y-78761669D01*
X95045534Y-78865085D01*
X95065710Y-78966514D01*
X95105285Y-79062058D01*
X95162740Y-79148045D01*
X95235866Y-79221171D01*
X95321853Y-79278626D01*
X95417397Y-79318201D01*
X95518826Y-79338377D01*
X95622242Y-79338377D01*
X95723671Y-79318201D01*
X95819215Y-79278626D01*
X95905202Y-79221171D01*
X95978328Y-79148045D01*
X96035783Y-79062058D01*
X96075358Y-78966514D01*
X96095534Y-78865085D01*
X96095534Y-78761669D01*
X96075358Y-78660240D01*
X96035783Y-78564696D01*
X95978328Y-78478709D01*
X95905202Y-78405583D01*
X95819215Y-78348128D01*
X95723671Y-78308553D01*
X95622242Y-78288377D01*
X95518826Y-78288377D01*
X95417397Y-78308553D01*
X95321853Y-78348128D01*
X95235866Y-78405583D01*
X95162740Y-78478709D01*
X95105285Y-78564696D01*
X95065710Y-78660240D01*
X95045534Y-78761669D01*
X86450881Y-78761669D01*
X86440647Y-78742523D01*
X86403158Y-78696842D01*
X86357477Y-78659353D01*
X86305360Y-78631496D01*
X86248810Y-78614341D01*
X86190000Y-78608549D01*
X83990000Y-78608549D01*
X83931190Y-78614341D01*
X83874640Y-78631496D01*
X83822523Y-78659353D01*
X83776842Y-78696842D01*
X83739353Y-78742523D01*
X83711496Y-78794640D01*
X83694341Y-78851190D01*
X83688549Y-78910000D01*
X81630000Y-78910000D01*
X81630000Y-77551451D01*
X83600000Y-77551451D01*
X83658810Y-77545659D01*
X83715360Y-77528504D01*
X83767477Y-77500647D01*
X83813158Y-77463158D01*
X83850647Y-77417477D01*
X83878504Y-77365360D01*
X83895659Y-77308810D01*
X83901451Y-77250000D01*
X83901451Y-76851146D01*
X84041387Y-77060575D01*
X84229425Y-77248613D01*
X84450535Y-77396354D01*
X84696220Y-77498120D01*
X84957037Y-77550000D01*
X85222963Y-77550000D01*
X85483780Y-77498120D01*
X85729465Y-77396354D01*
X85950575Y-77248613D01*
X86058343Y-77140845D01*
X86759866Y-77140845D01*
X86873644Y-77326101D01*
X87107869Y-77452021D01*
X87362159Y-77529827D01*
X87626742Y-77556528D01*
X87891449Y-77531098D01*
X88146110Y-77454515D01*
X88380937Y-77329721D01*
X88386356Y-77326101D01*
X88500134Y-77140845D01*
X89299866Y-77140845D01*
X89413644Y-77326101D01*
X89647869Y-77452021D01*
X89902159Y-77529827D01*
X90166742Y-77556528D01*
X90431449Y-77531098D01*
X90686110Y-77454515D01*
X90920937Y-77329721D01*
X90926356Y-77326101D01*
X91040134Y-77140845D01*
X90170000Y-76270711D01*
X89299866Y-77140845D01*
X88500134Y-77140845D01*
X87630000Y-76270711D01*
X86759866Y-77140845D01*
X86058343Y-77140845D01*
X86138613Y-77060575D01*
X86286354Y-76839465D01*
X86359486Y-76662909D01*
X86375485Y-76716110D01*
X86500279Y-76950937D01*
X86503899Y-76956356D01*
X86689155Y-77070134D01*
X87559289Y-76200000D01*
X87545147Y-76185858D01*
X87615858Y-76115147D01*
X87630000Y-76129289D01*
X87644142Y-76115147D01*
X87714853Y-76185858D01*
X87700711Y-76200000D01*
X88570845Y-77070134D01*
X88756101Y-76956356D01*
X88882021Y-76722131D01*
X88899811Y-76663989D01*
X88915485Y-76716110D01*
X89040279Y-76950937D01*
X89043899Y-76956356D01*
X89229155Y-77070134D01*
X90099289Y-76200000D01*
X90085147Y-76185858D01*
X90155858Y-76115147D01*
X90170000Y-76129289D01*
X90184142Y-76115147D01*
X90254853Y-76185858D01*
M02*
