G04 #@! TF.GenerationSoftware,KiCad,Pcbnew,5.1.5+dfsg1-2build2*
G04 #@! TF.CreationDate,2021-03-15T22:19:43+01:00*
G04 #@! TF.ProjectId,ProMicro_ANA,50726f4d-6963-4726-9f5f-414e412e6b69,v1.2*
G04 #@! TF.SameCoordinates,Original*
G04 #@! TF.FileFunction,Copper,L2,Inr*
G04 #@! TF.FilePolarity,Positive*
%FSLAX46Y46*%
G04 Gerber Fmt 4.6, Leading zero omitted, Abs format (unit mm)*
G04 Created by KiCad*
%MOMM*%
%LPD*%
G04 APERTURE LIST*
%ADD10R,2.100000X2.100000*%
%ADD11C,2.100000*%
%ADD12C,2.200000*%
%ADD13R,2.200000X2.200000*%
%ADD14C,0.500000*%
%ADD15C,0.450000*%
%ADD16C,0.400000*%
%ADD17C,0.250000*%
%ADD18C,0.200000*%
G04 APERTURE END LIST*
D10*
X82550000Y-76200000D03*
D11*
X85090000Y-76200000D03*
X87630000Y-76200000D03*
X110490000Y-91440000D03*
X90170000Y-76200000D03*
X107950000Y-91440000D03*
X92710000Y-76200000D03*
X105410000Y-91440000D03*
X95250000Y-76200000D03*
X102870000Y-91440000D03*
X97790000Y-76200000D03*
X100330000Y-91440000D03*
X100330000Y-76200000D03*
X97790000Y-91440000D03*
X102870000Y-76200000D03*
X95250000Y-91440000D03*
X105410000Y-76200000D03*
X92710000Y-91440000D03*
X107950000Y-76200000D03*
X90170000Y-91440000D03*
X110490000Y-76200000D03*
X87630000Y-91440000D03*
X85090000Y-91440000D03*
X82550000Y-91440000D03*
D12*
X85090000Y-87630000D03*
X85090000Y-85090000D03*
X85090000Y-82550000D03*
D13*
X85090000Y-80010000D03*
D14*
X89916000Y-86995000D03*
D15*
X89916000Y-81280000D03*
X98679000Y-89408000D03*
X98679000Y-78232000D03*
X100203000Y-79629000D03*
X100457000Y-87122000D03*
X89916000Y-86106000D03*
X89789000Y-82169000D03*
X105791000Y-83820000D03*
D14*
X108585000Y-89916000D03*
X108585000Y-88773000D03*
X107442000Y-83820000D03*
X109093000Y-83693000D03*
X110998000Y-78232000D03*
X105791000Y-84582000D03*
D15*
X105791000Y-78232000D03*
X94869000Y-81661000D03*
X94869000Y-82169000D03*
X94361000Y-82423000D03*
X94361000Y-81915000D03*
X94361000Y-81407000D03*
X94869000Y-88519000D03*
X94869000Y-88011000D03*
X94361000Y-88773000D03*
X94361000Y-88265000D03*
X94361000Y-87757000D03*
X89662000Y-84201000D03*
D14*
X98171000Y-88392000D03*
X98171000Y-82550000D03*
D15*
X105793699Y-88821341D03*
X104013000Y-86360000D03*
X100457000Y-88011000D03*
X95570534Y-78813377D03*
D14*
X100330000Y-83820000D03*
D15*
X93853000Y-85725000D03*
D14*
X95504000Y-84836000D03*
D15*
X108331000Y-82677000D03*
D16*
X100330000Y-91440000D02*
X100330000Y-91059000D01*
X98044000Y-89662000D02*
X98425000Y-90043000D01*
X89662000Y-89662000D02*
X98044000Y-89662000D01*
X98425000Y-90043000D02*
X98933000Y-90043000D01*
X98933000Y-90043000D02*
X100330000Y-91440000D01*
X85090000Y-85090000D02*
X89662000Y-89662000D01*
D17*
X103124000Y-80899000D02*
X105791000Y-78232000D01*
X103124000Y-88646000D02*
X103124000Y-80899000D01*
X100330000Y-91440000D02*
X103124000Y-88646000D01*
D18*
G36*
X109293646Y-76839465D02*
G01*
X109441387Y-77060575D01*
X109629425Y-77248613D01*
X109850535Y-77396354D01*
X110096220Y-77498120D01*
X110357037Y-77550000D01*
X110622963Y-77550000D01*
X110883780Y-77498120D01*
X111129465Y-77396354D01*
X111350575Y-77248613D01*
X111410000Y-77189188D01*
X111410000Y-77866183D01*
X111348604Y-77804787D01*
X111258523Y-77744597D01*
X111158429Y-77703136D01*
X111052170Y-77682000D01*
X110943830Y-77682000D01*
X110837571Y-77703136D01*
X110737477Y-77744597D01*
X110647396Y-77804787D01*
X110570787Y-77881396D01*
X110510597Y-77971477D01*
X110469136Y-78071571D01*
X110448000Y-78177830D01*
X110448000Y-78286170D01*
X110469136Y-78392429D01*
X110510597Y-78492523D01*
X110570787Y-78582604D01*
X110647396Y-78659213D01*
X110737477Y-78719403D01*
X110837571Y-78760864D01*
X110943830Y-78782000D01*
X111052170Y-78782000D01*
X111158429Y-78760864D01*
X111258523Y-78719403D01*
X111348604Y-78659213D01*
X111410000Y-78597817D01*
X111410001Y-90450813D01*
X111350575Y-90391387D01*
X111129465Y-90243646D01*
X110883780Y-90141880D01*
X110622963Y-90090000D01*
X110357037Y-90090000D01*
X110096220Y-90141880D01*
X109850535Y-90243646D01*
X109629425Y-90391387D01*
X109441387Y-90579425D01*
X109293646Y-90800535D01*
X109220000Y-90978332D01*
X109146354Y-90800535D01*
X108998613Y-90579425D01*
X108829308Y-90410120D01*
X108845523Y-90403403D01*
X108935604Y-90343213D01*
X109012213Y-90266604D01*
X109072403Y-90176523D01*
X109113864Y-90076429D01*
X109135000Y-89970170D01*
X109135000Y-89861830D01*
X109113864Y-89755571D01*
X109072403Y-89655477D01*
X109012213Y-89565396D01*
X108935604Y-89488787D01*
X108845523Y-89428597D01*
X108745429Y-89387136D01*
X108639170Y-89366000D01*
X108530830Y-89366000D01*
X108424571Y-89387136D01*
X108324477Y-89428597D01*
X108234396Y-89488787D01*
X108157787Y-89565396D01*
X108097597Y-89655477D01*
X108056136Y-89755571D01*
X108035000Y-89861830D01*
X108035000Y-89970170D01*
X108056136Y-90076429D01*
X108061757Y-90090000D01*
X107817037Y-90090000D01*
X107556220Y-90141880D01*
X107310535Y-90243646D01*
X107089425Y-90391387D01*
X106901387Y-90579425D01*
X106753646Y-90800535D01*
X106680000Y-90978332D01*
X106606354Y-90800535D01*
X106458613Y-90579425D01*
X106270575Y-90391387D01*
X106049465Y-90243646D01*
X105803780Y-90141880D01*
X105542963Y-90090000D01*
X105277037Y-90090000D01*
X105016220Y-90141880D01*
X104770535Y-90243646D01*
X104549425Y-90391387D01*
X104361387Y-90579425D01*
X104213646Y-90800535D01*
X104140000Y-90978332D01*
X104066354Y-90800535D01*
X103918613Y-90579425D01*
X103730575Y-90391387D01*
X103509465Y-90243646D01*
X103263780Y-90141880D01*
X103002963Y-90090000D01*
X102737037Y-90090000D01*
X102476220Y-90141880D01*
X102230535Y-90243646D01*
X102009425Y-90391387D01*
X101821387Y-90579425D01*
X101673646Y-90800535D01*
X101600000Y-90978332D01*
X101539286Y-90831755D01*
X103409763Y-88961278D01*
X103425974Y-88947974D01*
X103479084Y-88883260D01*
X103510380Y-88824708D01*
X103518548Y-88809428D01*
X103530619Y-88769633D01*
X105268699Y-88769633D01*
X105268699Y-88873049D01*
X105288875Y-88974478D01*
X105328450Y-89070022D01*
X105385905Y-89156009D01*
X105459031Y-89229135D01*
X105545018Y-89286590D01*
X105640562Y-89326165D01*
X105741991Y-89346341D01*
X105845407Y-89346341D01*
X105946836Y-89326165D01*
X106042380Y-89286590D01*
X106128367Y-89229135D01*
X106201493Y-89156009D01*
X106258948Y-89070022D01*
X106298523Y-88974478D01*
X106318699Y-88873049D01*
X106318699Y-88769633D01*
X106308594Y-88718830D01*
X108035000Y-88718830D01*
X108035000Y-88827170D01*
X108056136Y-88933429D01*
X108097597Y-89033523D01*
X108157787Y-89123604D01*
X108234396Y-89200213D01*
X108324477Y-89260403D01*
X108424571Y-89301864D01*
X108530830Y-89323000D01*
X108639170Y-89323000D01*
X108745429Y-89301864D01*
X108845523Y-89260403D01*
X108935604Y-89200213D01*
X109012213Y-89123604D01*
X109072403Y-89033523D01*
X109113864Y-88933429D01*
X109135000Y-88827170D01*
X109135000Y-88718830D01*
X109113864Y-88612571D01*
X109072403Y-88512477D01*
X109012213Y-88422396D01*
X108935604Y-88345787D01*
X108845523Y-88285597D01*
X108745429Y-88244136D01*
X108639170Y-88223000D01*
X108530830Y-88223000D01*
X108424571Y-88244136D01*
X108324477Y-88285597D01*
X108234396Y-88345787D01*
X108157787Y-88422396D01*
X108097597Y-88512477D01*
X108056136Y-88612571D01*
X108035000Y-88718830D01*
X106308594Y-88718830D01*
X106298523Y-88668204D01*
X106258948Y-88572660D01*
X106201493Y-88486673D01*
X106128367Y-88413547D01*
X106042380Y-88356092D01*
X105946836Y-88316517D01*
X105845407Y-88296341D01*
X105741991Y-88296341D01*
X105640562Y-88316517D01*
X105545018Y-88356092D01*
X105459031Y-88413547D01*
X105385905Y-88486673D01*
X105328450Y-88572660D01*
X105288875Y-88668204D01*
X105268699Y-88769633D01*
X103530619Y-88769633D01*
X103542850Y-88729314D01*
X103543640Y-88721292D01*
X103549000Y-88666874D01*
X103549000Y-88666867D01*
X103551055Y-88646000D01*
X103549000Y-88625133D01*
X103549000Y-86610550D01*
X103605206Y-86694668D01*
X103678332Y-86767794D01*
X103764319Y-86825249D01*
X103859863Y-86864824D01*
X103961292Y-86885000D01*
X104064708Y-86885000D01*
X104166137Y-86864824D01*
X104261681Y-86825249D01*
X104347668Y-86767794D01*
X104420794Y-86694668D01*
X104478249Y-86608681D01*
X104517824Y-86513137D01*
X104538000Y-86411708D01*
X104538000Y-86308292D01*
X104517824Y-86206863D01*
X104478249Y-86111319D01*
X104420794Y-86025332D01*
X104347668Y-85952206D01*
X104261681Y-85894751D01*
X104166137Y-85855176D01*
X104064708Y-85835000D01*
X103961292Y-85835000D01*
X103859863Y-85855176D01*
X103764319Y-85894751D01*
X103678332Y-85952206D01*
X103605206Y-86025332D01*
X103549000Y-86109450D01*
X103549000Y-84527830D01*
X105241000Y-84527830D01*
X105241000Y-84636170D01*
X105262136Y-84742429D01*
X105303597Y-84842523D01*
X105363787Y-84932604D01*
X105440396Y-85009213D01*
X105530477Y-85069403D01*
X105630571Y-85110864D01*
X105736830Y-85132000D01*
X105845170Y-85132000D01*
X105951429Y-85110864D01*
X106051523Y-85069403D01*
X106141604Y-85009213D01*
X106218213Y-84932604D01*
X106278403Y-84842523D01*
X106319864Y-84742429D01*
X106341000Y-84636170D01*
X106341000Y-84527830D01*
X106319864Y-84421571D01*
X106278403Y-84321477D01*
X106218213Y-84231396D01*
X106170140Y-84183323D01*
X106198794Y-84154668D01*
X106256249Y-84068681D01*
X106295824Y-83973137D01*
X106316000Y-83871708D01*
X106316000Y-83768292D01*
X106315511Y-83765830D01*
X106892000Y-83765830D01*
X106892000Y-83874170D01*
X106913136Y-83980429D01*
X106954597Y-84080523D01*
X107014787Y-84170604D01*
X107091396Y-84247213D01*
X107181477Y-84307403D01*
X107281571Y-84348864D01*
X107387830Y-84370000D01*
X107496170Y-84370000D01*
X107602429Y-84348864D01*
X107702523Y-84307403D01*
X107792604Y-84247213D01*
X107869213Y-84170604D01*
X107929403Y-84080523D01*
X107970864Y-83980429D01*
X107992000Y-83874170D01*
X107992000Y-83765830D01*
X107970864Y-83659571D01*
X107962273Y-83638830D01*
X108543000Y-83638830D01*
X108543000Y-83747170D01*
X108564136Y-83853429D01*
X108605597Y-83953523D01*
X108665787Y-84043604D01*
X108742396Y-84120213D01*
X108832477Y-84180403D01*
X108932571Y-84221864D01*
X109038830Y-84243000D01*
X109147170Y-84243000D01*
X109253429Y-84221864D01*
X109353523Y-84180403D01*
X109443604Y-84120213D01*
X109520213Y-84043604D01*
X109580403Y-83953523D01*
X109621864Y-83853429D01*
X109643000Y-83747170D01*
X109643000Y-83638830D01*
X109621864Y-83532571D01*
X109580403Y-83432477D01*
X109520213Y-83342396D01*
X109443604Y-83265787D01*
X109353523Y-83205597D01*
X109253429Y-83164136D01*
X109147170Y-83143000D01*
X109038830Y-83143000D01*
X108932571Y-83164136D01*
X108832477Y-83205597D01*
X108742396Y-83265787D01*
X108665787Y-83342396D01*
X108605597Y-83432477D01*
X108564136Y-83532571D01*
X108543000Y-83638830D01*
X107962273Y-83638830D01*
X107929403Y-83559477D01*
X107869213Y-83469396D01*
X107792604Y-83392787D01*
X107702523Y-83332597D01*
X107602429Y-83291136D01*
X107496170Y-83270000D01*
X107387830Y-83270000D01*
X107281571Y-83291136D01*
X107181477Y-83332597D01*
X107091396Y-83392787D01*
X107014787Y-83469396D01*
X106954597Y-83559477D01*
X106913136Y-83659571D01*
X106892000Y-83765830D01*
X106315511Y-83765830D01*
X106295824Y-83666863D01*
X106256249Y-83571319D01*
X106198794Y-83485332D01*
X106125668Y-83412206D01*
X106039681Y-83354751D01*
X105944137Y-83315176D01*
X105842708Y-83295000D01*
X105739292Y-83295000D01*
X105637863Y-83315176D01*
X105542319Y-83354751D01*
X105456332Y-83412206D01*
X105383206Y-83485332D01*
X105325751Y-83571319D01*
X105286176Y-83666863D01*
X105266000Y-83768292D01*
X105266000Y-83871708D01*
X105286176Y-83973137D01*
X105325751Y-84068681D01*
X105383206Y-84154668D01*
X105411861Y-84183323D01*
X105363787Y-84231396D01*
X105303597Y-84321477D01*
X105262136Y-84421571D01*
X105241000Y-84527830D01*
X103549000Y-84527830D01*
X103549000Y-81075040D01*
X105873082Y-78750958D01*
X105944137Y-78736824D01*
X106039681Y-78697249D01*
X106125668Y-78639794D01*
X106198794Y-78566668D01*
X106256249Y-78480681D01*
X106295824Y-78385137D01*
X106316000Y-78283708D01*
X106316000Y-78180292D01*
X106295824Y-78078863D01*
X106256249Y-77983319D01*
X106198794Y-77897332D01*
X106125668Y-77824206D01*
X106039681Y-77766751D01*
X105944137Y-77727176D01*
X105842708Y-77707000D01*
X105739292Y-77707000D01*
X105637863Y-77727176D01*
X105542319Y-77766751D01*
X105456332Y-77824206D01*
X105383206Y-77897332D01*
X105325751Y-77983319D01*
X105286176Y-78078863D01*
X105272042Y-78149918D01*
X102838239Y-80583721D01*
X102822027Y-80597026D01*
X102768917Y-80661740D01*
X102729453Y-80735573D01*
X102705150Y-80815686D01*
X102696945Y-80899000D01*
X102699001Y-80919877D01*
X102699000Y-88469959D01*
X100938245Y-90230714D01*
X100723780Y-90141880D01*
X100462963Y-90090000D01*
X100197037Y-90090000D01*
X99936220Y-90141880D01*
X99796754Y-90199649D01*
X99303929Y-89706824D01*
X99288264Y-89687736D01*
X99212129Y-89625254D01*
X99167211Y-89601245D01*
X99183824Y-89561137D01*
X99204000Y-89459708D01*
X99204000Y-89356292D01*
X99183824Y-89254863D01*
X99144249Y-89159319D01*
X99086794Y-89073332D01*
X99013668Y-89000206D01*
X98927681Y-88942751D01*
X98832137Y-88903176D01*
X98730708Y-88883000D01*
X98627292Y-88883000D01*
X98525863Y-88903176D01*
X98430319Y-88942751D01*
X98344332Y-89000206D01*
X98271206Y-89073332D01*
X98213751Y-89159319D01*
X98202095Y-89187459D01*
X98142017Y-89169235D01*
X98068560Y-89162000D01*
X98044000Y-89159581D01*
X98019440Y-89162000D01*
X94714462Y-89162000D01*
X94768794Y-89107668D01*
X94812035Y-89042954D01*
X94817292Y-89044000D01*
X94920708Y-89044000D01*
X95022137Y-89023824D01*
X95117681Y-88984249D01*
X95203668Y-88926794D01*
X95276794Y-88853668D01*
X95334249Y-88767681D01*
X95373824Y-88672137D01*
X95394000Y-88570708D01*
X95394000Y-88467292D01*
X95373824Y-88365863D01*
X95362213Y-88337830D01*
X97621000Y-88337830D01*
X97621000Y-88446170D01*
X97642136Y-88552429D01*
X97683597Y-88652523D01*
X97743787Y-88742604D01*
X97820396Y-88819213D01*
X97910477Y-88879403D01*
X98010571Y-88920864D01*
X98116830Y-88942000D01*
X98225170Y-88942000D01*
X98331429Y-88920864D01*
X98431523Y-88879403D01*
X98521604Y-88819213D01*
X98598213Y-88742604D01*
X98658403Y-88652523D01*
X98699864Y-88552429D01*
X98721000Y-88446170D01*
X98721000Y-88337830D01*
X98699864Y-88231571D01*
X98658403Y-88131477D01*
X98598213Y-88041396D01*
X98521604Y-87964787D01*
X98431523Y-87904597D01*
X98331429Y-87863136D01*
X98225170Y-87842000D01*
X98116830Y-87842000D01*
X98010571Y-87863136D01*
X97910477Y-87904597D01*
X97820396Y-87964787D01*
X97743787Y-88041396D01*
X97683597Y-88131477D01*
X97642136Y-88231571D01*
X97621000Y-88337830D01*
X95362213Y-88337830D01*
X95334249Y-88270319D01*
X95330695Y-88265000D01*
X95334249Y-88259681D01*
X95373824Y-88164137D01*
X95394000Y-88062708D01*
X95394000Y-87959292D01*
X95373824Y-87857863D01*
X95334249Y-87762319D01*
X95276794Y-87676332D01*
X95203668Y-87603206D01*
X95117681Y-87545751D01*
X95022137Y-87506176D01*
X94920708Y-87486000D01*
X94817292Y-87486000D01*
X94812035Y-87487046D01*
X94768794Y-87422332D01*
X94695668Y-87349206D01*
X94609681Y-87291751D01*
X94514137Y-87252176D01*
X94412708Y-87232000D01*
X94309292Y-87232000D01*
X94207863Y-87252176D01*
X94112319Y-87291751D01*
X94026332Y-87349206D01*
X93953206Y-87422332D01*
X93895751Y-87508319D01*
X93856176Y-87603863D01*
X93836000Y-87705292D01*
X93836000Y-87808708D01*
X93856176Y-87910137D01*
X93895751Y-88005681D01*
X93899305Y-88011000D01*
X93895751Y-88016319D01*
X93856176Y-88111863D01*
X93836000Y-88213292D01*
X93836000Y-88316708D01*
X93856176Y-88418137D01*
X93895751Y-88513681D01*
X93899305Y-88519000D01*
X93895751Y-88524319D01*
X93856176Y-88619863D01*
X93836000Y-88721292D01*
X93836000Y-88824708D01*
X93856176Y-88926137D01*
X93895751Y-89021681D01*
X93953206Y-89107668D01*
X94007538Y-89162000D01*
X89869107Y-89162000D01*
X87647936Y-86940830D01*
X89366000Y-86940830D01*
X89366000Y-87049170D01*
X89387136Y-87155429D01*
X89428597Y-87255523D01*
X89488787Y-87345604D01*
X89565396Y-87422213D01*
X89655477Y-87482403D01*
X89755571Y-87523864D01*
X89861830Y-87545000D01*
X89970170Y-87545000D01*
X90076429Y-87523864D01*
X90176523Y-87482403D01*
X90266604Y-87422213D01*
X90343213Y-87345604D01*
X90403403Y-87255523D01*
X90444864Y-87155429D01*
X90461798Y-87070292D01*
X99932000Y-87070292D01*
X99932000Y-87173708D01*
X99952176Y-87275137D01*
X99991751Y-87370681D01*
X100049206Y-87456668D01*
X100122332Y-87529794D01*
X100208319Y-87587249D01*
X100303863Y-87626824D01*
X100405292Y-87647000D01*
X100508708Y-87647000D01*
X100610137Y-87626824D01*
X100705681Y-87587249D01*
X100791668Y-87529794D01*
X100864794Y-87456668D01*
X100922249Y-87370681D01*
X100961824Y-87275137D01*
X100982000Y-87173708D01*
X100982000Y-87070292D01*
X100961824Y-86968863D01*
X100922249Y-86873319D01*
X100864794Y-86787332D01*
X100791668Y-86714206D01*
X100705681Y-86656751D01*
X100610137Y-86617176D01*
X100508708Y-86597000D01*
X100405292Y-86597000D01*
X100303863Y-86617176D01*
X100208319Y-86656751D01*
X100122332Y-86714206D01*
X100049206Y-86787332D01*
X99991751Y-86873319D01*
X99952176Y-86968863D01*
X99932000Y-87070292D01*
X90461798Y-87070292D01*
X90466000Y-87049170D01*
X90466000Y-86940830D01*
X90444864Y-86834571D01*
X90403403Y-86734477D01*
X90343213Y-86644396D01*
X90266604Y-86567787D01*
X90218233Y-86535467D01*
X90250668Y-86513794D01*
X90323794Y-86440668D01*
X90381249Y-86354681D01*
X90420824Y-86259137D01*
X90441000Y-86157708D01*
X90441000Y-86054292D01*
X90420824Y-85952863D01*
X90381249Y-85857319D01*
X90323794Y-85771332D01*
X90250668Y-85698206D01*
X90164681Y-85640751D01*
X90069137Y-85601176D01*
X89967708Y-85581000D01*
X89864292Y-85581000D01*
X89762863Y-85601176D01*
X89667319Y-85640751D01*
X89581332Y-85698206D01*
X89508206Y-85771332D01*
X89450751Y-85857319D01*
X89411176Y-85952863D01*
X89391000Y-86054292D01*
X89391000Y-86157708D01*
X89411176Y-86259137D01*
X89450751Y-86354681D01*
X89508206Y-86440668D01*
X89581332Y-86513794D01*
X89613767Y-86535467D01*
X89565396Y-86567787D01*
X89488787Y-86644396D01*
X89428597Y-86734477D01*
X89387136Y-86834571D01*
X89366000Y-86940830D01*
X87647936Y-86940830D01*
X86368620Y-85661515D01*
X86436199Y-85498365D01*
X86490000Y-85227888D01*
X86490000Y-84952112D01*
X86436199Y-84681635D01*
X86330664Y-84426851D01*
X86177451Y-84197552D01*
X86129191Y-84149292D01*
X89137000Y-84149292D01*
X89137000Y-84252708D01*
X89157176Y-84354137D01*
X89196751Y-84449681D01*
X89254206Y-84535668D01*
X89327332Y-84608794D01*
X89413319Y-84666249D01*
X89508863Y-84705824D01*
X89610292Y-84726000D01*
X89713708Y-84726000D01*
X89815137Y-84705824D01*
X89910681Y-84666249D01*
X89996668Y-84608794D01*
X90069794Y-84535668D01*
X90127249Y-84449681D01*
X90166824Y-84354137D01*
X90187000Y-84252708D01*
X90187000Y-84149292D01*
X90166824Y-84047863D01*
X90127249Y-83952319D01*
X90069794Y-83866332D01*
X89996668Y-83793206D01*
X89910681Y-83735751D01*
X89815137Y-83696176D01*
X89713708Y-83676000D01*
X89610292Y-83676000D01*
X89508863Y-83696176D01*
X89413319Y-83735751D01*
X89327332Y-83793206D01*
X89254206Y-83866332D01*
X89196751Y-83952319D01*
X89157176Y-84047863D01*
X89137000Y-84149292D01*
X86129191Y-84149292D01*
X85982448Y-84002549D01*
X85753149Y-83849336D01*
X85682326Y-83820000D01*
X85753149Y-83790664D01*
X85982448Y-83637451D01*
X86177451Y-83442448D01*
X86330664Y-83213149D01*
X86436199Y-82958365D01*
X86490000Y-82687888D01*
X86490000Y-82412112D01*
X86436199Y-82141635D01*
X86426116Y-82117292D01*
X89264000Y-82117292D01*
X89264000Y-82220708D01*
X89284176Y-82322137D01*
X89323751Y-82417681D01*
X89381206Y-82503668D01*
X89454332Y-82576794D01*
X89540319Y-82634249D01*
X89635863Y-82673824D01*
X89737292Y-82694000D01*
X89840708Y-82694000D01*
X89942137Y-82673824D01*
X90037681Y-82634249D01*
X90123668Y-82576794D01*
X90196794Y-82503668D01*
X90254249Y-82417681D01*
X90293824Y-82322137D01*
X90314000Y-82220708D01*
X90314000Y-82117292D01*
X90293824Y-82015863D01*
X90254249Y-81920319D01*
X90196794Y-81834332D01*
X90124397Y-81761935D01*
X90164681Y-81745249D01*
X90250668Y-81687794D01*
X90323794Y-81614668D01*
X90381249Y-81528681D01*
X90420824Y-81433137D01*
X90436308Y-81355292D01*
X93836000Y-81355292D01*
X93836000Y-81458708D01*
X93856176Y-81560137D01*
X93895751Y-81655681D01*
X93899305Y-81661000D01*
X93895751Y-81666319D01*
X93856176Y-81761863D01*
X93836000Y-81863292D01*
X93836000Y-81966708D01*
X93856176Y-82068137D01*
X93895751Y-82163681D01*
X93899305Y-82169000D01*
X93895751Y-82174319D01*
X93856176Y-82269863D01*
X93836000Y-82371292D01*
X93836000Y-82474708D01*
X93856176Y-82576137D01*
X93895751Y-82671681D01*
X93953206Y-82757668D01*
X94026332Y-82830794D01*
X94112319Y-82888249D01*
X94207863Y-82927824D01*
X94309292Y-82948000D01*
X94412708Y-82948000D01*
X94514137Y-82927824D01*
X94609681Y-82888249D01*
X94695668Y-82830794D01*
X94768794Y-82757668D01*
X94812035Y-82692954D01*
X94817292Y-82694000D01*
X94920708Y-82694000D01*
X95022137Y-82673824D01*
X95117681Y-82634249D01*
X95203668Y-82576794D01*
X95276794Y-82503668D01*
X95282031Y-82495830D01*
X97621000Y-82495830D01*
X97621000Y-82604170D01*
X97642136Y-82710429D01*
X97683597Y-82810523D01*
X97743787Y-82900604D01*
X97820396Y-82977213D01*
X97910477Y-83037403D01*
X98010571Y-83078864D01*
X98116830Y-83100000D01*
X98225170Y-83100000D01*
X98331429Y-83078864D01*
X98431523Y-83037403D01*
X98521604Y-82977213D01*
X98598213Y-82900604D01*
X98658403Y-82810523D01*
X98699864Y-82710429D01*
X98721000Y-82604170D01*
X98721000Y-82495830D01*
X98699864Y-82389571D01*
X98658403Y-82289477D01*
X98598213Y-82199396D01*
X98521604Y-82122787D01*
X98431523Y-82062597D01*
X98331429Y-82021136D01*
X98225170Y-82000000D01*
X98116830Y-82000000D01*
X98010571Y-82021136D01*
X97910477Y-82062597D01*
X97820396Y-82122787D01*
X97743787Y-82199396D01*
X97683597Y-82289477D01*
X97642136Y-82389571D01*
X97621000Y-82495830D01*
X95282031Y-82495830D01*
X95334249Y-82417681D01*
X95373824Y-82322137D01*
X95394000Y-82220708D01*
X95394000Y-82117292D01*
X95373824Y-82015863D01*
X95334249Y-81920319D01*
X95330695Y-81915000D01*
X95334249Y-81909681D01*
X95373824Y-81814137D01*
X95394000Y-81712708D01*
X95394000Y-81609292D01*
X95373824Y-81507863D01*
X95334249Y-81412319D01*
X95276794Y-81326332D01*
X95203668Y-81253206D01*
X95117681Y-81195751D01*
X95022137Y-81156176D01*
X94920708Y-81136000D01*
X94817292Y-81136000D01*
X94812035Y-81137046D01*
X94768794Y-81072332D01*
X94695668Y-80999206D01*
X94609681Y-80941751D01*
X94514137Y-80902176D01*
X94412708Y-80882000D01*
X94309292Y-80882000D01*
X94207863Y-80902176D01*
X94112319Y-80941751D01*
X94026332Y-80999206D01*
X93953206Y-81072332D01*
X93895751Y-81158319D01*
X93856176Y-81253863D01*
X93836000Y-81355292D01*
X90436308Y-81355292D01*
X90441000Y-81331708D01*
X90441000Y-81228292D01*
X90420824Y-81126863D01*
X90381249Y-81031319D01*
X90323794Y-80945332D01*
X90250668Y-80872206D01*
X90164681Y-80814751D01*
X90069137Y-80775176D01*
X89967708Y-80755000D01*
X89864292Y-80755000D01*
X89762863Y-80775176D01*
X89667319Y-80814751D01*
X89581332Y-80872206D01*
X89508206Y-80945332D01*
X89450751Y-81031319D01*
X89411176Y-81126863D01*
X89391000Y-81228292D01*
X89391000Y-81331708D01*
X89411176Y-81433137D01*
X89450751Y-81528681D01*
X89508206Y-81614668D01*
X89580603Y-81687065D01*
X89540319Y-81703751D01*
X89454332Y-81761206D01*
X89381206Y-81834332D01*
X89323751Y-81920319D01*
X89284176Y-82015863D01*
X89264000Y-82117292D01*
X86426116Y-82117292D01*
X86330664Y-81886851D01*
X86177451Y-81657552D01*
X85982448Y-81462549D01*
X85905975Y-81411451D01*
X86190000Y-81411451D01*
X86248810Y-81405659D01*
X86305360Y-81388504D01*
X86357477Y-81360647D01*
X86403158Y-81323158D01*
X86440647Y-81277477D01*
X86468504Y-81225360D01*
X86485659Y-81168810D01*
X86491451Y-81110000D01*
X86491451Y-79577292D01*
X99678000Y-79577292D01*
X99678000Y-79680708D01*
X99698176Y-79782137D01*
X99737751Y-79877681D01*
X99795206Y-79963668D01*
X99868332Y-80036794D01*
X99954319Y-80094249D01*
X100049863Y-80133824D01*
X100151292Y-80154000D01*
X100254708Y-80154000D01*
X100356137Y-80133824D01*
X100451681Y-80094249D01*
X100537668Y-80036794D01*
X100610794Y-79963668D01*
X100668249Y-79877681D01*
X100707824Y-79782137D01*
X100728000Y-79680708D01*
X100728000Y-79577292D01*
X100707824Y-79475863D01*
X100668249Y-79380319D01*
X100610794Y-79294332D01*
X100537668Y-79221206D01*
X100451681Y-79163751D01*
X100356137Y-79124176D01*
X100254708Y-79104000D01*
X100151292Y-79104000D01*
X100049863Y-79124176D01*
X99954319Y-79163751D01*
X99868332Y-79221206D01*
X99795206Y-79294332D01*
X99737751Y-79380319D01*
X99698176Y-79475863D01*
X99678000Y-79577292D01*
X86491451Y-79577292D01*
X86491451Y-78910000D01*
X86485659Y-78851190D01*
X86468504Y-78794640D01*
X86440647Y-78742523D01*
X86403158Y-78696842D01*
X86357477Y-78659353D01*
X86305360Y-78631496D01*
X86248810Y-78614341D01*
X86190000Y-78608549D01*
X83990000Y-78608549D01*
X83931190Y-78614341D01*
X83874640Y-78631496D01*
X83822523Y-78659353D01*
X83776842Y-78696842D01*
X83739353Y-78742523D01*
X83711496Y-78794640D01*
X83694341Y-78851190D01*
X83688549Y-78910000D01*
X83688549Y-81110000D01*
X83694341Y-81168810D01*
X83711496Y-81225360D01*
X83739353Y-81277477D01*
X83776842Y-81323158D01*
X83822523Y-81360647D01*
X83874640Y-81388504D01*
X83931190Y-81405659D01*
X83990000Y-81411451D01*
X84274025Y-81411451D01*
X84197552Y-81462549D01*
X84002549Y-81657552D01*
X83849336Y-81886851D01*
X83743801Y-82141635D01*
X83690000Y-82412112D01*
X83690000Y-82687888D01*
X83743801Y-82958365D01*
X83849336Y-83213149D01*
X84002549Y-83442448D01*
X84197552Y-83637451D01*
X84426851Y-83790664D01*
X84497674Y-83820000D01*
X84426851Y-83849336D01*
X84197552Y-84002549D01*
X84002549Y-84197552D01*
X83849336Y-84426851D01*
X83743801Y-84681635D01*
X83690000Y-84952112D01*
X83690000Y-85227888D01*
X83743801Y-85498365D01*
X83849336Y-85753149D01*
X84002549Y-85982448D01*
X84197552Y-86177451D01*
X84426851Y-86330664D01*
X84497674Y-86360000D01*
X84426851Y-86389336D01*
X84197552Y-86542549D01*
X84002549Y-86737552D01*
X83849336Y-86966851D01*
X83743801Y-87221635D01*
X83690000Y-87492112D01*
X83690000Y-87767888D01*
X83743801Y-88038365D01*
X83849336Y-88293149D01*
X84002549Y-88522448D01*
X84197552Y-88717451D01*
X84426851Y-88870664D01*
X84681635Y-88976199D01*
X84952112Y-89030000D01*
X85227888Y-89030000D01*
X85498365Y-88976199D01*
X85753149Y-88870664D01*
X85982448Y-88717451D01*
X86177451Y-88522448D01*
X86330664Y-88293149D01*
X86436199Y-88038365D01*
X86490000Y-87767888D01*
X86490000Y-87492112D01*
X86436199Y-87221635D01*
X86380811Y-87087917D01*
X89291079Y-89998186D01*
X89306736Y-90017264D01*
X89382871Y-90079746D01*
X89469733Y-90126175D01*
X89563983Y-90154765D01*
X89637440Y-90162000D01*
X89637449Y-90162000D01*
X89661999Y-90164418D01*
X89686549Y-90162000D01*
X89731985Y-90162000D01*
X89653890Y-90185485D01*
X89419063Y-90310279D01*
X89413644Y-90313899D01*
X89299866Y-90499155D01*
X90170000Y-91369289D01*
X91040134Y-90499155D01*
X90926356Y-90313899D01*
X90692131Y-90187979D01*
X90607225Y-90162000D01*
X92267646Y-90162000D01*
X92070535Y-90243646D01*
X91849425Y-90391387D01*
X91661387Y-90579425D01*
X91513646Y-90800535D01*
X91440514Y-90977091D01*
X91424515Y-90923890D01*
X91299721Y-90689063D01*
X91296101Y-90683644D01*
X91110845Y-90569866D01*
X90240711Y-91440000D01*
X90254853Y-91454142D01*
X90184142Y-91524853D01*
X90170000Y-91510711D01*
X90155858Y-91524853D01*
X90085147Y-91454142D01*
X90099289Y-91440000D01*
X89229155Y-90569866D01*
X89043899Y-90683644D01*
X88917979Y-90917869D01*
X88899700Y-90977609D01*
X88826354Y-90800535D01*
X88678613Y-90579425D01*
X88490575Y-90391387D01*
X88269465Y-90243646D01*
X88023780Y-90141880D01*
X87762963Y-90090000D01*
X87497037Y-90090000D01*
X87236220Y-90141880D01*
X86990535Y-90243646D01*
X86769425Y-90391387D01*
X86581387Y-90579425D01*
X86433646Y-90800535D01*
X86360000Y-90978332D01*
X86286354Y-90800535D01*
X86138613Y-90579425D01*
X85950575Y-90391387D01*
X85729465Y-90243646D01*
X85483780Y-90141880D01*
X85222963Y-90090000D01*
X84957037Y-90090000D01*
X84696220Y-90141880D01*
X84450535Y-90243646D01*
X84229425Y-90391387D01*
X84041387Y-90579425D01*
X83893646Y-90800535D01*
X83820000Y-90978332D01*
X83746354Y-90800535D01*
X83598613Y-90579425D01*
X83410575Y-90391387D01*
X83189465Y-90243646D01*
X82943780Y-90141880D01*
X82682963Y-90090000D01*
X82417037Y-90090000D01*
X82156220Y-90141880D01*
X81910535Y-90243646D01*
X81689425Y-90391387D01*
X81630000Y-90450812D01*
X81630000Y-78180292D01*
X98154000Y-78180292D01*
X98154000Y-78283708D01*
X98174176Y-78385137D01*
X98213751Y-78480681D01*
X98271206Y-78566668D01*
X98344332Y-78639794D01*
X98430319Y-78697249D01*
X98525863Y-78736824D01*
X98627292Y-78757000D01*
X98730708Y-78757000D01*
X98832137Y-78736824D01*
X98927681Y-78697249D01*
X99013668Y-78639794D01*
X99086794Y-78566668D01*
X99144249Y-78480681D01*
X99183824Y-78385137D01*
X99204000Y-78283708D01*
X99204000Y-78180292D01*
X99183824Y-78078863D01*
X99144249Y-77983319D01*
X99086794Y-77897332D01*
X99013668Y-77824206D01*
X98927681Y-77766751D01*
X98832137Y-77727176D01*
X98730708Y-77707000D01*
X98627292Y-77707000D01*
X98525863Y-77727176D01*
X98430319Y-77766751D01*
X98344332Y-77824206D01*
X98271206Y-77897332D01*
X98213751Y-77983319D01*
X98174176Y-78078863D01*
X98154000Y-78180292D01*
X81630000Y-78180292D01*
X81630000Y-77551451D01*
X83600000Y-77551451D01*
X83658810Y-77545659D01*
X83715360Y-77528504D01*
X83767477Y-77500647D01*
X83813158Y-77463158D01*
X83850647Y-77417477D01*
X83878504Y-77365360D01*
X83895659Y-77308810D01*
X83901451Y-77250000D01*
X83901451Y-76851146D01*
X84041387Y-77060575D01*
X84229425Y-77248613D01*
X84450535Y-77396354D01*
X84696220Y-77498120D01*
X84957037Y-77550000D01*
X85222963Y-77550000D01*
X85483780Y-77498120D01*
X85729465Y-77396354D01*
X85950575Y-77248613D01*
X86138613Y-77060575D01*
X86286354Y-76839465D01*
X86360000Y-76661668D01*
X86433646Y-76839465D01*
X86581387Y-77060575D01*
X86769425Y-77248613D01*
X86990535Y-77396354D01*
X87236220Y-77498120D01*
X87497037Y-77550000D01*
X87762963Y-77550000D01*
X88023780Y-77498120D01*
X88269465Y-77396354D01*
X88490575Y-77248613D01*
X88678613Y-77060575D01*
X88826354Y-76839465D01*
X88900000Y-76661668D01*
X88973646Y-76839465D01*
X89121387Y-77060575D01*
X89309425Y-77248613D01*
X89530535Y-77396354D01*
X89776220Y-77498120D01*
X90037037Y-77550000D01*
X90302963Y-77550000D01*
X90563780Y-77498120D01*
X90809465Y-77396354D01*
X91030575Y-77248613D01*
X91218613Y-77060575D01*
X91366354Y-76839465D01*
X91440000Y-76661668D01*
X91513646Y-76839465D01*
X91661387Y-77060575D01*
X91849425Y-77248613D01*
X92070535Y-77396354D01*
X92316220Y-77498120D01*
X92577037Y-77550000D01*
X92842963Y-77550000D01*
X93103780Y-77498120D01*
X93349465Y-77396354D01*
X93570575Y-77248613D01*
X93758613Y-77060575D01*
X93906354Y-76839465D01*
X93980000Y-76661668D01*
X94053646Y-76839465D01*
X94201387Y-77060575D01*
X94389425Y-77248613D01*
X94610535Y-77396354D01*
X94856220Y-77498120D01*
X95117037Y-77550000D01*
X95382963Y-77550000D01*
X95643780Y-77498120D01*
X95889465Y-77396354D01*
X96110575Y-77248613D01*
X96298613Y-77060575D01*
X96446354Y-76839465D01*
X96520000Y-76661668D01*
X96593646Y-76839465D01*
X96741387Y-77060575D01*
X96929425Y-77248613D01*
X97150535Y-77396354D01*
X97396220Y-77498120D01*
X97657037Y-77550000D01*
X97922963Y-77550000D01*
X98183780Y-77498120D01*
X98429465Y-77396354D01*
X98650575Y-77248613D01*
X98838613Y-77060575D01*
X98986354Y-76839465D01*
X99060000Y-76661668D01*
X99133646Y-76839465D01*
X99281387Y-77060575D01*
X99469425Y-77248613D01*
X99690535Y-77396354D01*
X99936220Y-77498120D01*
X100197037Y-77550000D01*
X100462963Y-77550000D01*
X100723780Y-77498120D01*
X100969465Y-77396354D01*
X101190575Y-77248613D01*
X101378613Y-77060575D01*
X101526354Y-76839465D01*
X101600000Y-76661668D01*
X101673646Y-76839465D01*
X101821387Y-77060575D01*
X102009425Y-77248613D01*
X102230535Y-77396354D01*
X102476220Y-77498120D01*
X102737037Y-77550000D01*
X103002963Y-77550000D01*
X103263780Y-77498120D01*
X103509465Y-77396354D01*
X103730575Y-77248613D01*
X103918613Y-77060575D01*
X104066354Y-76839465D01*
X104140000Y-76661668D01*
X104213646Y-76839465D01*
X104361387Y-77060575D01*
X104549425Y-77248613D01*
X104770535Y-77396354D01*
X105016220Y-77498120D01*
X105277037Y-77550000D01*
X105542963Y-77550000D01*
X105803780Y-77498120D01*
X106049465Y-77396354D01*
X106270575Y-77248613D01*
X106458613Y-77060575D01*
X106606354Y-76839465D01*
X106680000Y-76661668D01*
X106753646Y-76839465D01*
X106901387Y-77060575D01*
X107089425Y-77248613D01*
X107310535Y-77396354D01*
X107556220Y-77498120D01*
X107817037Y-77550000D01*
X108082963Y-77550000D01*
X108343780Y-77498120D01*
X108589465Y-77396354D01*
X108810575Y-77248613D01*
X108998613Y-77060575D01*
X109146354Y-76839465D01*
X109220000Y-76661668D01*
X109293646Y-76839465D01*
G37*
X109293646Y-76839465D02*
X109441387Y-77060575D01*
X109629425Y-77248613D01*
X109850535Y-77396354D01*
X110096220Y-77498120D01*
X110357037Y-77550000D01*
X110622963Y-77550000D01*
X110883780Y-77498120D01*
X111129465Y-77396354D01*
X111350575Y-77248613D01*
X111410000Y-77189188D01*
X111410000Y-77866183D01*
X111348604Y-77804787D01*
X111258523Y-77744597D01*
X111158429Y-77703136D01*
X111052170Y-77682000D01*
X110943830Y-77682000D01*
X110837571Y-77703136D01*
X110737477Y-77744597D01*
X110647396Y-77804787D01*
X110570787Y-77881396D01*
X110510597Y-77971477D01*
X110469136Y-78071571D01*
X110448000Y-78177830D01*
X110448000Y-78286170D01*
X110469136Y-78392429D01*
X110510597Y-78492523D01*
X110570787Y-78582604D01*
X110647396Y-78659213D01*
X110737477Y-78719403D01*
X110837571Y-78760864D01*
X110943830Y-78782000D01*
X111052170Y-78782000D01*
X111158429Y-78760864D01*
X111258523Y-78719403D01*
X111348604Y-78659213D01*
X111410000Y-78597817D01*
X111410001Y-90450813D01*
X111350575Y-90391387D01*
X111129465Y-90243646D01*
X110883780Y-90141880D01*
X110622963Y-90090000D01*
X110357037Y-90090000D01*
X110096220Y-90141880D01*
X109850535Y-90243646D01*
X109629425Y-90391387D01*
X109441387Y-90579425D01*
X109293646Y-90800535D01*
X109220000Y-90978332D01*
X109146354Y-90800535D01*
X108998613Y-90579425D01*
X108829308Y-90410120D01*
X108845523Y-90403403D01*
X108935604Y-90343213D01*
X109012213Y-90266604D01*
X109072403Y-90176523D01*
X109113864Y-90076429D01*
X109135000Y-89970170D01*
X109135000Y-89861830D01*
X109113864Y-89755571D01*
X109072403Y-89655477D01*
X109012213Y-89565396D01*
X108935604Y-89488787D01*
X108845523Y-89428597D01*
X108745429Y-89387136D01*
X108639170Y-89366000D01*
X108530830Y-89366000D01*
X108424571Y-89387136D01*
X108324477Y-89428597D01*
X108234396Y-89488787D01*
X108157787Y-89565396D01*
X108097597Y-89655477D01*
X108056136Y-89755571D01*
X108035000Y-89861830D01*
X108035000Y-89970170D01*
X108056136Y-90076429D01*
X108061757Y-90090000D01*
X107817037Y-90090000D01*
X107556220Y-90141880D01*
X107310535Y-90243646D01*
X107089425Y-90391387D01*
X106901387Y-90579425D01*
X106753646Y-90800535D01*
X106680000Y-90978332D01*
X106606354Y-90800535D01*
X106458613Y-90579425D01*
X106270575Y-90391387D01*
X106049465Y-90243646D01*
X105803780Y-90141880D01*
X105542963Y-90090000D01*
X105277037Y-90090000D01*
X105016220Y-90141880D01*
X104770535Y-90243646D01*
X104549425Y-90391387D01*
X104361387Y-90579425D01*
X104213646Y-90800535D01*
X104140000Y-90978332D01*
X104066354Y-90800535D01*
X103918613Y-90579425D01*
X103730575Y-90391387D01*
X103509465Y-90243646D01*
X103263780Y-90141880D01*
X103002963Y-90090000D01*
X102737037Y-90090000D01*
X102476220Y-90141880D01*
X102230535Y-90243646D01*
X102009425Y-90391387D01*
X101821387Y-90579425D01*
X101673646Y-90800535D01*
X101600000Y-90978332D01*
X101539286Y-90831755D01*
X103409763Y-88961278D01*
X103425974Y-88947974D01*
X103479084Y-88883260D01*
X103510380Y-88824708D01*
X103518548Y-88809428D01*
X103530619Y-88769633D01*
X105268699Y-88769633D01*
X105268699Y-88873049D01*
X105288875Y-88974478D01*
X105328450Y-89070022D01*
X105385905Y-89156009D01*
X105459031Y-89229135D01*
X105545018Y-89286590D01*
X105640562Y-89326165D01*
X105741991Y-89346341D01*
X105845407Y-89346341D01*
X105946836Y-89326165D01*
X106042380Y-89286590D01*
X106128367Y-89229135D01*
X106201493Y-89156009D01*
X106258948Y-89070022D01*
X106298523Y-88974478D01*
X106318699Y-88873049D01*
X106318699Y-88769633D01*
X106308594Y-88718830D01*
X108035000Y-88718830D01*
X108035000Y-88827170D01*
X108056136Y-88933429D01*
X108097597Y-89033523D01*
X108157787Y-89123604D01*
X108234396Y-89200213D01*
X108324477Y-89260403D01*
X108424571Y-89301864D01*
X108530830Y-89323000D01*
X108639170Y-89323000D01*
X108745429Y-89301864D01*
X108845523Y-89260403D01*
X108935604Y-89200213D01*
X109012213Y-89123604D01*
X109072403Y-89033523D01*
X109113864Y-88933429D01*
X109135000Y-88827170D01*
X109135000Y-88718830D01*
X109113864Y-88612571D01*
X109072403Y-88512477D01*
X109012213Y-88422396D01*
X108935604Y-88345787D01*
X108845523Y-88285597D01*
X108745429Y-88244136D01*
X108639170Y-88223000D01*
X108530830Y-88223000D01*
X108424571Y-88244136D01*
X108324477Y-88285597D01*
X108234396Y-88345787D01*
X108157787Y-88422396D01*
X108097597Y-88512477D01*
X108056136Y-88612571D01*
X108035000Y-88718830D01*
X106308594Y-88718830D01*
X106298523Y-88668204D01*
X106258948Y-88572660D01*
X106201493Y-88486673D01*
X106128367Y-88413547D01*
X106042380Y-88356092D01*
X105946836Y-88316517D01*
X105845407Y-88296341D01*
X105741991Y-88296341D01*
X105640562Y-88316517D01*
X105545018Y-88356092D01*
X105459031Y-88413547D01*
X105385905Y-88486673D01*
X105328450Y-88572660D01*
X105288875Y-88668204D01*
X105268699Y-88769633D01*
X103530619Y-88769633D01*
X103542850Y-88729314D01*
X103543640Y-88721292D01*
X103549000Y-88666874D01*
X103549000Y-88666867D01*
X103551055Y-88646000D01*
X103549000Y-88625133D01*
X103549000Y-86610550D01*
X103605206Y-86694668D01*
X103678332Y-86767794D01*
X103764319Y-86825249D01*
X103859863Y-86864824D01*
X103961292Y-86885000D01*
X104064708Y-86885000D01*
X104166137Y-86864824D01*
X104261681Y-86825249D01*
X104347668Y-86767794D01*
X104420794Y-86694668D01*
X104478249Y-86608681D01*
X104517824Y-86513137D01*
X104538000Y-86411708D01*
X104538000Y-86308292D01*
X104517824Y-86206863D01*
X104478249Y-86111319D01*
X104420794Y-86025332D01*
X104347668Y-85952206D01*
X104261681Y-85894751D01*
X104166137Y-85855176D01*
X104064708Y-85835000D01*
X103961292Y-85835000D01*
X103859863Y-85855176D01*
X103764319Y-85894751D01*
X103678332Y-85952206D01*
X103605206Y-86025332D01*
X103549000Y-86109450D01*
X103549000Y-84527830D01*
X105241000Y-84527830D01*
X105241000Y-84636170D01*
X105262136Y-84742429D01*
X105303597Y-84842523D01*
X105363787Y-84932604D01*
X105440396Y-85009213D01*
X105530477Y-85069403D01*
X105630571Y-85110864D01*
X105736830Y-85132000D01*
X105845170Y-85132000D01*
X105951429Y-85110864D01*
X106051523Y-85069403D01*
X106141604Y-85009213D01*
X106218213Y-84932604D01*
X106278403Y-84842523D01*
X106319864Y-84742429D01*
X106341000Y-84636170D01*
X106341000Y-84527830D01*
X106319864Y-84421571D01*
X106278403Y-84321477D01*
X106218213Y-84231396D01*
X106170140Y-84183323D01*
X106198794Y-84154668D01*
X106256249Y-84068681D01*
X106295824Y-83973137D01*
X106316000Y-83871708D01*
X106316000Y-83768292D01*
X106315511Y-83765830D01*
X106892000Y-83765830D01*
X106892000Y-83874170D01*
X106913136Y-83980429D01*
X106954597Y-84080523D01*
X107014787Y-84170604D01*
X107091396Y-84247213D01*
X107181477Y-84307403D01*
X107281571Y-84348864D01*
X107387830Y-84370000D01*
X107496170Y-84370000D01*
X107602429Y-84348864D01*
X107702523Y-84307403D01*
X107792604Y-84247213D01*
X107869213Y-84170604D01*
X107929403Y-84080523D01*
X107970864Y-83980429D01*
X107992000Y-83874170D01*
X107992000Y-83765830D01*
X107970864Y-83659571D01*
X107962273Y-83638830D01*
X108543000Y-83638830D01*
X108543000Y-83747170D01*
X108564136Y-83853429D01*
X108605597Y-83953523D01*
X108665787Y-84043604D01*
X108742396Y-84120213D01*
X108832477Y-84180403D01*
X108932571Y-84221864D01*
X109038830Y-84243000D01*
X109147170Y-84243000D01*
X109253429Y-84221864D01*
X109353523Y-84180403D01*
X109443604Y-84120213D01*
X109520213Y-84043604D01*
X109580403Y-83953523D01*
X109621864Y-83853429D01*
X109643000Y-83747170D01*
X109643000Y-83638830D01*
X109621864Y-83532571D01*
X109580403Y-83432477D01*
X109520213Y-83342396D01*
X109443604Y-83265787D01*
X109353523Y-83205597D01*
X109253429Y-83164136D01*
X109147170Y-83143000D01*
X109038830Y-83143000D01*
X108932571Y-83164136D01*
X108832477Y-83205597D01*
X108742396Y-83265787D01*
X108665787Y-83342396D01*
X108605597Y-83432477D01*
X108564136Y-83532571D01*
X108543000Y-83638830D01*
X107962273Y-83638830D01*
X107929403Y-83559477D01*
X107869213Y-83469396D01*
X107792604Y-83392787D01*
X107702523Y-83332597D01*
X107602429Y-83291136D01*
X107496170Y-83270000D01*
X107387830Y-83270000D01*
X107281571Y-83291136D01*
X107181477Y-83332597D01*
X107091396Y-83392787D01*
X107014787Y-83469396D01*
X106954597Y-83559477D01*
X106913136Y-83659571D01*
X106892000Y-83765830D01*
X106315511Y-83765830D01*
X106295824Y-83666863D01*
X106256249Y-83571319D01*
X106198794Y-83485332D01*
X106125668Y-83412206D01*
X106039681Y-83354751D01*
X105944137Y-83315176D01*
X105842708Y-83295000D01*
X105739292Y-83295000D01*
X105637863Y-83315176D01*
X105542319Y-83354751D01*
X105456332Y-83412206D01*
X105383206Y-83485332D01*
X105325751Y-83571319D01*
X105286176Y-83666863D01*
X105266000Y-83768292D01*
X105266000Y-83871708D01*
X105286176Y-83973137D01*
X105325751Y-84068681D01*
X105383206Y-84154668D01*
X105411861Y-84183323D01*
X105363787Y-84231396D01*
X105303597Y-84321477D01*
X105262136Y-84421571D01*
X105241000Y-84527830D01*
X103549000Y-84527830D01*
X103549000Y-81075040D01*
X105873082Y-78750958D01*
X105944137Y-78736824D01*
X106039681Y-78697249D01*
X106125668Y-78639794D01*
X106198794Y-78566668D01*
X106256249Y-78480681D01*
X106295824Y-78385137D01*
X106316000Y-78283708D01*
X106316000Y-78180292D01*
X106295824Y-78078863D01*
X106256249Y-77983319D01*
X106198794Y-77897332D01*
X106125668Y-77824206D01*
X106039681Y-77766751D01*
X105944137Y-77727176D01*
X105842708Y-77707000D01*
X105739292Y-77707000D01*
X105637863Y-77727176D01*
X105542319Y-77766751D01*
X105456332Y-77824206D01*
X105383206Y-77897332D01*
X105325751Y-77983319D01*
X105286176Y-78078863D01*
X105272042Y-78149918D01*
X102838239Y-80583721D01*
X102822027Y-80597026D01*
X102768917Y-80661740D01*
X102729453Y-80735573D01*
X102705150Y-80815686D01*
X102696945Y-80899000D01*
X102699001Y-80919877D01*
X102699000Y-88469959D01*
X100938245Y-90230714D01*
X100723780Y-90141880D01*
X100462963Y-90090000D01*
X100197037Y-90090000D01*
X99936220Y-90141880D01*
X99796754Y-90199649D01*
X99303929Y-89706824D01*
X99288264Y-89687736D01*
X99212129Y-89625254D01*
X99167211Y-89601245D01*
X99183824Y-89561137D01*
X99204000Y-89459708D01*
X99204000Y-89356292D01*
X99183824Y-89254863D01*
X99144249Y-89159319D01*
X99086794Y-89073332D01*
X99013668Y-89000206D01*
X98927681Y-88942751D01*
X98832137Y-88903176D01*
X98730708Y-88883000D01*
X98627292Y-88883000D01*
X98525863Y-88903176D01*
X98430319Y-88942751D01*
X98344332Y-89000206D01*
X98271206Y-89073332D01*
X98213751Y-89159319D01*
X98202095Y-89187459D01*
X98142017Y-89169235D01*
X98068560Y-89162000D01*
X98044000Y-89159581D01*
X98019440Y-89162000D01*
X94714462Y-89162000D01*
X94768794Y-89107668D01*
X94812035Y-89042954D01*
X94817292Y-89044000D01*
X94920708Y-89044000D01*
X95022137Y-89023824D01*
X95117681Y-88984249D01*
X95203668Y-88926794D01*
X95276794Y-88853668D01*
X95334249Y-88767681D01*
X95373824Y-88672137D01*
X95394000Y-88570708D01*
X95394000Y-88467292D01*
X95373824Y-88365863D01*
X95362213Y-88337830D01*
X97621000Y-88337830D01*
X97621000Y-88446170D01*
X97642136Y-88552429D01*
X97683597Y-88652523D01*
X97743787Y-88742604D01*
X97820396Y-88819213D01*
X97910477Y-88879403D01*
X98010571Y-88920864D01*
X98116830Y-88942000D01*
X98225170Y-88942000D01*
X98331429Y-88920864D01*
X98431523Y-88879403D01*
X98521604Y-88819213D01*
X98598213Y-88742604D01*
X98658403Y-88652523D01*
X98699864Y-88552429D01*
X98721000Y-88446170D01*
X98721000Y-88337830D01*
X98699864Y-88231571D01*
X98658403Y-88131477D01*
X98598213Y-88041396D01*
X98521604Y-87964787D01*
X98431523Y-87904597D01*
X98331429Y-87863136D01*
X98225170Y-87842000D01*
X98116830Y-87842000D01*
X98010571Y-87863136D01*
X97910477Y-87904597D01*
X97820396Y-87964787D01*
X97743787Y-88041396D01*
X97683597Y-88131477D01*
X97642136Y-88231571D01*
X97621000Y-88337830D01*
X95362213Y-88337830D01*
X95334249Y-88270319D01*
X95330695Y-88265000D01*
X95334249Y-88259681D01*
X95373824Y-88164137D01*
X95394000Y-88062708D01*
X95394000Y-87959292D01*
X95373824Y-87857863D01*
X95334249Y-87762319D01*
X95276794Y-87676332D01*
X95203668Y-87603206D01*
X95117681Y-87545751D01*
X95022137Y-87506176D01*
X94920708Y-87486000D01*
X94817292Y-87486000D01*
X94812035Y-87487046D01*
X94768794Y-87422332D01*
X94695668Y-87349206D01*
X94609681Y-87291751D01*
X94514137Y-87252176D01*
X94412708Y-87232000D01*
X94309292Y-87232000D01*
X94207863Y-87252176D01*
X94112319Y-87291751D01*
X94026332Y-87349206D01*
X93953206Y-87422332D01*
X93895751Y-87508319D01*
X93856176Y-87603863D01*
X93836000Y-87705292D01*
X93836000Y-87808708D01*
X93856176Y-87910137D01*
X93895751Y-88005681D01*
X93899305Y-88011000D01*
X93895751Y-88016319D01*
X93856176Y-88111863D01*
X93836000Y-88213292D01*
X93836000Y-88316708D01*
X93856176Y-88418137D01*
X93895751Y-88513681D01*
X93899305Y-88519000D01*
X93895751Y-88524319D01*
X93856176Y-88619863D01*
X93836000Y-88721292D01*
X93836000Y-88824708D01*
X93856176Y-88926137D01*
X93895751Y-89021681D01*
X93953206Y-89107668D01*
X94007538Y-89162000D01*
X89869107Y-89162000D01*
X87647936Y-86940830D01*
X89366000Y-86940830D01*
X89366000Y-87049170D01*
X89387136Y-87155429D01*
X89428597Y-87255523D01*
X89488787Y-87345604D01*
X89565396Y-87422213D01*
X89655477Y-87482403D01*
X89755571Y-87523864D01*
X89861830Y-87545000D01*
X89970170Y-87545000D01*
X90076429Y-87523864D01*
X90176523Y-87482403D01*
X90266604Y-87422213D01*
X90343213Y-87345604D01*
X90403403Y-87255523D01*
X90444864Y-87155429D01*
X90461798Y-87070292D01*
X99932000Y-87070292D01*
X99932000Y-87173708D01*
X99952176Y-87275137D01*
X99991751Y-87370681D01*
X100049206Y-87456668D01*
X100122332Y-87529794D01*
X100208319Y-87587249D01*
X100303863Y-87626824D01*
X100405292Y-87647000D01*
X100508708Y-87647000D01*
X100610137Y-87626824D01*
X100705681Y-87587249D01*
X100791668Y-87529794D01*
X100864794Y-87456668D01*
X100922249Y-87370681D01*
X100961824Y-87275137D01*
X100982000Y-87173708D01*
X100982000Y-87070292D01*
X100961824Y-86968863D01*
X100922249Y-86873319D01*
X100864794Y-86787332D01*
X100791668Y-86714206D01*
X100705681Y-86656751D01*
X100610137Y-86617176D01*
X100508708Y-86597000D01*
X100405292Y-86597000D01*
X100303863Y-86617176D01*
X100208319Y-86656751D01*
X100122332Y-86714206D01*
X100049206Y-86787332D01*
X99991751Y-86873319D01*
X99952176Y-86968863D01*
X99932000Y-87070292D01*
X90461798Y-87070292D01*
X90466000Y-87049170D01*
X90466000Y-86940830D01*
X90444864Y-86834571D01*
X90403403Y-86734477D01*
X90343213Y-86644396D01*
X90266604Y-86567787D01*
X90218233Y-86535467D01*
X90250668Y-86513794D01*
X90323794Y-86440668D01*
X90381249Y-86354681D01*
X90420824Y-86259137D01*
X90441000Y-86157708D01*
X90441000Y-86054292D01*
X90420824Y-85952863D01*
X90381249Y-85857319D01*
X90323794Y-85771332D01*
X90250668Y-85698206D01*
X90164681Y-85640751D01*
X90069137Y-85601176D01*
X89967708Y-85581000D01*
X89864292Y-85581000D01*
X89762863Y-85601176D01*
X89667319Y-85640751D01*
X89581332Y-85698206D01*
X89508206Y-85771332D01*
X89450751Y-85857319D01*
X89411176Y-85952863D01*
X89391000Y-86054292D01*
X89391000Y-86157708D01*
X89411176Y-86259137D01*
X89450751Y-86354681D01*
X89508206Y-86440668D01*
X89581332Y-86513794D01*
X89613767Y-86535467D01*
X89565396Y-86567787D01*
X89488787Y-86644396D01*
X89428597Y-86734477D01*
X89387136Y-86834571D01*
X89366000Y-86940830D01*
X87647936Y-86940830D01*
X86368620Y-85661515D01*
X86436199Y-85498365D01*
X86490000Y-85227888D01*
X86490000Y-84952112D01*
X86436199Y-84681635D01*
X86330664Y-84426851D01*
X86177451Y-84197552D01*
X86129191Y-84149292D01*
X89137000Y-84149292D01*
X89137000Y-84252708D01*
X89157176Y-84354137D01*
X89196751Y-84449681D01*
X89254206Y-84535668D01*
X89327332Y-84608794D01*
X89413319Y-84666249D01*
X89508863Y-84705824D01*
X89610292Y-84726000D01*
X89713708Y-84726000D01*
X89815137Y-84705824D01*
X89910681Y-84666249D01*
X89996668Y-84608794D01*
X90069794Y-84535668D01*
X90127249Y-84449681D01*
X90166824Y-84354137D01*
X90187000Y-84252708D01*
X90187000Y-84149292D01*
X90166824Y-84047863D01*
X90127249Y-83952319D01*
X90069794Y-83866332D01*
X89996668Y-83793206D01*
X89910681Y-83735751D01*
X89815137Y-83696176D01*
X89713708Y-83676000D01*
X89610292Y-83676000D01*
X89508863Y-83696176D01*
X89413319Y-83735751D01*
X89327332Y-83793206D01*
X89254206Y-83866332D01*
X89196751Y-83952319D01*
X89157176Y-84047863D01*
X89137000Y-84149292D01*
X86129191Y-84149292D01*
X85982448Y-84002549D01*
X85753149Y-83849336D01*
X85682326Y-83820000D01*
X85753149Y-83790664D01*
X85982448Y-83637451D01*
X86177451Y-83442448D01*
X86330664Y-83213149D01*
X86436199Y-82958365D01*
X86490000Y-82687888D01*
X86490000Y-82412112D01*
X86436199Y-82141635D01*
X86426116Y-82117292D01*
X89264000Y-82117292D01*
X89264000Y-82220708D01*
X89284176Y-82322137D01*
X89323751Y-82417681D01*
X89381206Y-82503668D01*
X89454332Y-82576794D01*
X89540319Y-82634249D01*
X89635863Y-82673824D01*
X89737292Y-82694000D01*
X89840708Y-82694000D01*
X89942137Y-82673824D01*
X90037681Y-82634249D01*
X90123668Y-82576794D01*
X90196794Y-82503668D01*
X90254249Y-82417681D01*
X90293824Y-82322137D01*
X90314000Y-82220708D01*
X90314000Y-82117292D01*
X90293824Y-82015863D01*
X90254249Y-81920319D01*
X90196794Y-81834332D01*
X90124397Y-81761935D01*
X90164681Y-81745249D01*
X90250668Y-81687794D01*
X90323794Y-81614668D01*
X90381249Y-81528681D01*
X90420824Y-81433137D01*
X90436308Y-81355292D01*
X93836000Y-81355292D01*
X93836000Y-81458708D01*
X93856176Y-81560137D01*
X93895751Y-81655681D01*
X93899305Y-81661000D01*
X93895751Y-81666319D01*
X93856176Y-81761863D01*
X93836000Y-81863292D01*
X93836000Y-81966708D01*
X93856176Y-82068137D01*
X93895751Y-82163681D01*
X93899305Y-82169000D01*
X93895751Y-82174319D01*
X93856176Y-82269863D01*
X93836000Y-82371292D01*
X93836000Y-82474708D01*
X93856176Y-82576137D01*
X93895751Y-82671681D01*
X93953206Y-82757668D01*
X94026332Y-82830794D01*
X94112319Y-82888249D01*
X94207863Y-82927824D01*
X94309292Y-82948000D01*
X94412708Y-82948000D01*
X94514137Y-82927824D01*
X94609681Y-82888249D01*
X94695668Y-82830794D01*
X94768794Y-82757668D01*
X94812035Y-82692954D01*
X94817292Y-82694000D01*
X94920708Y-82694000D01*
X95022137Y-82673824D01*
X95117681Y-82634249D01*
X95203668Y-82576794D01*
X95276794Y-82503668D01*
X95282031Y-82495830D01*
X97621000Y-82495830D01*
X97621000Y-82604170D01*
X97642136Y-82710429D01*
X97683597Y-82810523D01*
X97743787Y-82900604D01*
X97820396Y-82977213D01*
X97910477Y-83037403D01*
X98010571Y-83078864D01*
X98116830Y-83100000D01*
X98225170Y-83100000D01*
X98331429Y-83078864D01*
X98431523Y-83037403D01*
X98521604Y-82977213D01*
X98598213Y-82900604D01*
X98658403Y-82810523D01*
X98699864Y-82710429D01*
X98721000Y-82604170D01*
X98721000Y-82495830D01*
X98699864Y-82389571D01*
X98658403Y-82289477D01*
X98598213Y-82199396D01*
X98521604Y-82122787D01*
X98431523Y-82062597D01*
X98331429Y-82021136D01*
X98225170Y-82000000D01*
X98116830Y-82000000D01*
X98010571Y-82021136D01*
X97910477Y-82062597D01*
X97820396Y-82122787D01*
X97743787Y-82199396D01*
X97683597Y-82289477D01*
X97642136Y-82389571D01*
X97621000Y-82495830D01*
X95282031Y-82495830D01*
X95334249Y-82417681D01*
X95373824Y-82322137D01*
X95394000Y-82220708D01*
X95394000Y-82117292D01*
X95373824Y-82015863D01*
X95334249Y-81920319D01*
X95330695Y-81915000D01*
X95334249Y-81909681D01*
X95373824Y-81814137D01*
X95394000Y-81712708D01*
X95394000Y-81609292D01*
X95373824Y-81507863D01*
X95334249Y-81412319D01*
X95276794Y-81326332D01*
X95203668Y-81253206D01*
X95117681Y-81195751D01*
X95022137Y-81156176D01*
X94920708Y-81136000D01*
X94817292Y-81136000D01*
X94812035Y-81137046D01*
X94768794Y-81072332D01*
X94695668Y-80999206D01*
X94609681Y-80941751D01*
X94514137Y-80902176D01*
X94412708Y-80882000D01*
X94309292Y-80882000D01*
X94207863Y-80902176D01*
X94112319Y-80941751D01*
X94026332Y-80999206D01*
X93953206Y-81072332D01*
X93895751Y-81158319D01*
X93856176Y-81253863D01*
X93836000Y-81355292D01*
X90436308Y-81355292D01*
X90441000Y-81331708D01*
X90441000Y-81228292D01*
X90420824Y-81126863D01*
X90381249Y-81031319D01*
X90323794Y-80945332D01*
X90250668Y-80872206D01*
X90164681Y-80814751D01*
X90069137Y-80775176D01*
X89967708Y-80755000D01*
X89864292Y-80755000D01*
X89762863Y-80775176D01*
X89667319Y-80814751D01*
X89581332Y-80872206D01*
X89508206Y-80945332D01*
X89450751Y-81031319D01*
X89411176Y-81126863D01*
X89391000Y-81228292D01*
X89391000Y-81331708D01*
X89411176Y-81433137D01*
X89450751Y-81528681D01*
X89508206Y-81614668D01*
X89580603Y-81687065D01*
X89540319Y-81703751D01*
X89454332Y-81761206D01*
X89381206Y-81834332D01*
X89323751Y-81920319D01*
X89284176Y-82015863D01*
X89264000Y-82117292D01*
X86426116Y-82117292D01*
X86330664Y-81886851D01*
X86177451Y-81657552D01*
X85982448Y-81462549D01*
X85905975Y-81411451D01*
X86190000Y-81411451D01*
X86248810Y-81405659D01*
X86305360Y-81388504D01*
X86357477Y-81360647D01*
X86403158Y-81323158D01*
X86440647Y-81277477D01*
X86468504Y-81225360D01*
X86485659Y-81168810D01*
X86491451Y-81110000D01*
X86491451Y-79577292D01*
X99678000Y-79577292D01*
X99678000Y-79680708D01*
X99698176Y-79782137D01*
X99737751Y-79877681D01*
X99795206Y-79963668D01*
X99868332Y-80036794D01*
X99954319Y-80094249D01*
X100049863Y-80133824D01*
X100151292Y-80154000D01*
X100254708Y-80154000D01*
X100356137Y-80133824D01*
X100451681Y-80094249D01*
X100537668Y-80036794D01*
X100610794Y-79963668D01*
X100668249Y-79877681D01*
X100707824Y-79782137D01*
X100728000Y-79680708D01*
X100728000Y-79577292D01*
X100707824Y-79475863D01*
X100668249Y-79380319D01*
X100610794Y-79294332D01*
X100537668Y-79221206D01*
X100451681Y-79163751D01*
X100356137Y-79124176D01*
X100254708Y-79104000D01*
X100151292Y-79104000D01*
X100049863Y-79124176D01*
X99954319Y-79163751D01*
X99868332Y-79221206D01*
X99795206Y-79294332D01*
X99737751Y-79380319D01*
X99698176Y-79475863D01*
X99678000Y-79577292D01*
X86491451Y-79577292D01*
X86491451Y-78910000D01*
X86485659Y-78851190D01*
X86468504Y-78794640D01*
X86440647Y-78742523D01*
X86403158Y-78696842D01*
X86357477Y-78659353D01*
X86305360Y-78631496D01*
X86248810Y-78614341D01*
X86190000Y-78608549D01*
X83990000Y-78608549D01*
X83931190Y-78614341D01*
X83874640Y-78631496D01*
X83822523Y-78659353D01*
X83776842Y-78696842D01*
X83739353Y-78742523D01*
X83711496Y-78794640D01*
X83694341Y-78851190D01*
X83688549Y-78910000D01*
X83688549Y-81110000D01*
X83694341Y-81168810D01*
X83711496Y-81225360D01*
X83739353Y-81277477D01*
X83776842Y-81323158D01*
X83822523Y-81360647D01*
X83874640Y-81388504D01*
X83931190Y-81405659D01*
X83990000Y-81411451D01*
X84274025Y-81411451D01*
X84197552Y-81462549D01*
X84002549Y-81657552D01*
X83849336Y-81886851D01*
X83743801Y-82141635D01*
X83690000Y-82412112D01*
X83690000Y-82687888D01*
X83743801Y-82958365D01*
X83849336Y-83213149D01*
X84002549Y-83442448D01*
X84197552Y-83637451D01*
X84426851Y-83790664D01*
X84497674Y-83820000D01*
X84426851Y-83849336D01*
X84197552Y-84002549D01*
X84002549Y-84197552D01*
X83849336Y-84426851D01*
X83743801Y-84681635D01*
X83690000Y-84952112D01*
X83690000Y-85227888D01*
X83743801Y-85498365D01*
X83849336Y-85753149D01*
X84002549Y-85982448D01*
X84197552Y-86177451D01*
X84426851Y-86330664D01*
X84497674Y-86360000D01*
X84426851Y-86389336D01*
X84197552Y-86542549D01*
X84002549Y-86737552D01*
X83849336Y-86966851D01*
X83743801Y-87221635D01*
X83690000Y-87492112D01*
X83690000Y-87767888D01*
X83743801Y-88038365D01*
X83849336Y-88293149D01*
X84002549Y-88522448D01*
X84197552Y-88717451D01*
X84426851Y-88870664D01*
X84681635Y-88976199D01*
X84952112Y-89030000D01*
X85227888Y-89030000D01*
X85498365Y-88976199D01*
X85753149Y-88870664D01*
X85982448Y-88717451D01*
X86177451Y-88522448D01*
X86330664Y-88293149D01*
X86436199Y-88038365D01*
X86490000Y-87767888D01*
X86490000Y-87492112D01*
X86436199Y-87221635D01*
X86380811Y-87087917D01*
X89291079Y-89998186D01*
X89306736Y-90017264D01*
X89382871Y-90079746D01*
X89469733Y-90126175D01*
X89563983Y-90154765D01*
X89637440Y-90162000D01*
X89637449Y-90162000D01*
X89661999Y-90164418D01*
X89686549Y-90162000D01*
X89731985Y-90162000D01*
X89653890Y-90185485D01*
X89419063Y-90310279D01*
X89413644Y-90313899D01*
X89299866Y-90499155D01*
X90170000Y-91369289D01*
X91040134Y-90499155D01*
X90926356Y-90313899D01*
X90692131Y-90187979D01*
X90607225Y-90162000D01*
X92267646Y-90162000D01*
X92070535Y-90243646D01*
X91849425Y-90391387D01*
X91661387Y-90579425D01*
X91513646Y-90800535D01*
X91440514Y-90977091D01*
X91424515Y-90923890D01*
X91299721Y-90689063D01*
X91296101Y-90683644D01*
X91110845Y-90569866D01*
X90240711Y-91440000D01*
X90254853Y-91454142D01*
X90184142Y-91524853D01*
X90170000Y-91510711D01*
X90155858Y-91524853D01*
X90085147Y-91454142D01*
X90099289Y-91440000D01*
X89229155Y-90569866D01*
X89043899Y-90683644D01*
X88917979Y-90917869D01*
X88899700Y-90977609D01*
X88826354Y-90800535D01*
X88678613Y-90579425D01*
X88490575Y-90391387D01*
X88269465Y-90243646D01*
X88023780Y-90141880D01*
X87762963Y-90090000D01*
X87497037Y-90090000D01*
X87236220Y-90141880D01*
X86990535Y-90243646D01*
X86769425Y-90391387D01*
X86581387Y-90579425D01*
X86433646Y-90800535D01*
X86360000Y-90978332D01*
X86286354Y-90800535D01*
X86138613Y-90579425D01*
X85950575Y-90391387D01*
X85729465Y-90243646D01*
X85483780Y-90141880D01*
X85222963Y-90090000D01*
X84957037Y-90090000D01*
X84696220Y-90141880D01*
X84450535Y-90243646D01*
X84229425Y-90391387D01*
X84041387Y-90579425D01*
X83893646Y-90800535D01*
X83820000Y-90978332D01*
X83746354Y-90800535D01*
X83598613Y-90579425D01*
X83410575Y-90391387D01*
X83189465Y-90243646D01*
X82943780Y-90141880D01*
X82682963Y-90090000D01*
X82417037Y-90090000D01*
X82156220Y-90141880D01*
X81910535Y-90243646D01*
X81689425Y-90391387D01*
X81630000Y-90450812D01*
X81630000Y-78180292D01*
X98154000Y-78180292D01*
X98154000Y-78283708D01*
X98174176Y-78385137D01*
X98213751Y-78480681D01*
X98271206Y-78566668D01*
X98344332Y-78639794D01*
X98430319Y-78697249D01*
X98525863Y-78736824D01*
X98627292Y-78757000D01*
X98730708Y-78757000D01*
X98832137Y-78736824D01*
X98927681Y-78697249D01*
X99013668Y-78639794D01*
X99086794Y-78566668D01*
X99144249Y-78480681D01*
X99183824Y-78385137D01*
X99204000Y-78283708D01*
X99204000Y-78180292D01*
X99183824Y-78078863D01*
X99144249Y-77983319D01*
X99086794Y-77897332D01*
X99013668Y-77824206D01*
X98927681Y-77766751D01*
X98832137Y-77727176D01*
X98730708Y-77707000D01*
X98627292Y-77707000D01*
X98525863Y-77727176D01*
X98430319Y-77766751D01*
X98344332Y-77824206D01*
X98271206Y-77897332D01*
X98213751Y-77983319D01*
X98174176Y-78078863D01*
X98154000Y-78180292D01*
X81630000Y-78180292D01*
X81630000Y-77551451D01*
X83600000Y-77551451D01*
X83658810Y-77545659D01*
X83715360Y-77528504D01*
X83767477Y-77500647D01*
X83813158Y-77463158D01*
X83850647Y-77417477D01*
X83878504Y-77365360D01*
X83895659Y-77308810D01*
X83901451Y-77250000D01*
X83901451Y-76851146D01*
X84041387Y-77060575D01*
X84229425Y-77248613D01*
X84450535Y-77396354D01*
X84696220Y-77498120D01*
X84957037Y-77550000D01*
X85222963Y-77550000D01*
X85483780Y-77498120D01*
X85729465Y-77396354D01*
X85950575Y-77248613D01*
X86138613Y-77060575D01*
X86286354Y-76839465D01*
X86360000Y-76661668D01*
X86433646Y-76839465D01*
X86581387Y-77060575D01*
X86769425Y-77248613D01*
X86990535Y-77396354D01*
X87236220Y-77498120D01*
X87497037Y-77550000D01*
X87762963Y-77550000D01*
X88023780Y-77498120D01*
X88269465Y-77396354D01*
X88490575Y-77248613D01*
X88678613Y-77060575D01*
X88826354Y-76839465D01*
X88900000Y-76661668D01*
X88973646Y-76839465D01*
X89121387Y-77060575D01*
X89309425Y-77248613D01*
X89530535Y-77396354D01*
X89776220Y-77498120D01*
X90037037Y-77550000D01*
X90302963Y-77550000D01*
X90563780Y-77498120D01*
X90809465Y-77396354D01*
X91030575Y-77248613D01*
X91218613Y-77060575D01*
X91366354Y-76839465D01*
X91440000Y-76661668D01*
X91513646Y-76839465D01*
X91661387Y-77060575D01*
X91849425Y-77248613D01*
X92070535Y-77396354D01*
X92316220Y-77498120D01*
X92577037Y-77550000D01*
X92842963Y-77550000D01*
X93103780Y-77498120D01*
X93349465Y-77396354D01*
X93570575Y-77248613D01*
X93758613Y-77060575D01*
X93906354Y-76839465D01*
X93980000Y-76661668D01*
X94053646Y-76839465D01*
X94201387Y-77060575D01*
X94389425Y-77248613D01*
X94610535Y-77396354D01*
X94856220Y-77498120D01*
X95117037Y-77550000D01*
X95382963Y-77550000D01*
X95643780Y-77498120D01*
X95889465Y-77396354D01*
X96110575Y-77248613D01*
X96298613Y-77060575D01*
X96446354Y-76839465D01*
X96520000Y-76661668D01*
X96593646Y-76839465D01*
X96741387Y-77060575D01*
X96929425Y-77248613D01*
X97150535Y-77396354D01*
X97396220Y-77498120D01*
X97657037Y-77550000D01*
X97922963Y-77550000D01*
X98183780Y-77498120D01*
X98429465Y-77396354D01*
X98650575Y-77248613D01*
X98838613Y-77060575D01*
X98986354Y-76839465D01*
X99060000Y-76661668D01*
X99133646Y-76839465D01*
X99281387Y-77060575D01*
X99469425Y-77248613D01*
X99690535Y-77396354D01*
X99936220Y-77498120D01*
X100197037Y-77550000D01*
X100462963Y-77550000D01*
X100723780Y-77498120D01*
X100969465Y-77396354D01*
X101190575Y-77248613D01*
X101378613Y-77060575D01*
X101526354Y-76839465D01*
X101600000Y-76661668D01*
X101673646Y-76839465D01*
X101821387Y-77060575D01*
X102009425Y-77248613D01*
X102230535Y-77396354D01*
X102476220Y-77498120D01*
X102737037Y-77550000D01*
X103002963Y-77550000D01*
X103263780Y-77498120D01*
X103509465Y-77396354D01*
X103730575Y-77248613D01*
X103918613Y-77060575D01*
X104066354Y-76839465D01*
X104140000Y-76661668D01*
X104213646Y-76839465D01*
X104361387Y-77060575D01*
X104549425Y-77248613D01*
X104770535Y-77396354D01*
X105016220Y-77498120D01*
X105277037Y-77550000D01*
X105542963Y-77550000D01*
X105803780Y-77498120D01*
X106049465Y-77396354D01*
X106270575Y-77248613D01*
X106458613Y-77060575D01*
X106606354Y-76839465D01*
X106680000Y-76661668D01*
X106753646Y-76839465D01*
X106901387Y-77060575D01*
X107089425Y-77248613D01*
X107310535Y-77396354D01*
X107556220Y-77498120D01*
X107817037Y-77550000D01*
X108082963Y-77550000D01*
X108343780Y-77498120D01*
X108589465Y-77396354D01*
X108810575Y-77248613D01*
X108998613Y-77060575D01*
X109146354Y-76839465D01*
X109220000Y-76661668D01*
X109293646Y-76839465D01*
M02*
