%TF.GenerationSoftware,KiCad,Pcbnew,5.1.5+dfsg1-2~bpo10+1*%
%TF.CreationDate,Date%
%TF.ProjectId,ProMicro_ANA,50726f4d-6963-4726-9f5f-414e412e6b69,v1.0*%
%TF.SameCoordinates,Original*%
%TF.FileFunction,Other,User*%
%FSLAX45Y45*%
G04 Gerber Fmt 4.5, Leading zero omitted, Abs format (unit mm)*
G04 Created by KiCad*
%MOMM*%
%LPD*%
G04 APERTURE LIST*
%ADD10C,0.100000*%
%ADD11C,0.050000*%
G04 APERTURE END LIST*
D10*
X-63500Y-127000D02*
G75*
G02X-127000Y-63500I0J63500D01*
G01*
X1651000Y-63500D02*
G75*
G02X1587500Y-127000I-63500J0D01*
G01*
X1587500Y2921000D02*
G75*
G02X1651000Y2857500I0J-63500D01*
G01*
X-127000Y2857500D02*
G75*
G02X-63500Y2921000I63500J0D01*
G01*
X-127000Y-63500D02*
X-127000Y2857500D01*
X1587500Y-127000D02*
X-63500Y-127000D01*
X1651000Y2857500D02*
X1651000Y-63500D01*
X-63500Y2921000D02*
X1587500Y2921000D01*
D11*
X-150000Y2944000D02*
X1680000Y2944000D01*
X-150000Y2944000D02*
X-150000Y-136000D01*
X1680000Y-136000D02*
X1680000Y2944000D01*
X1680000Y-136000D02*
X-150000Y-136000D01*
X1014000Y1435000D02*
X1014000Y1105000D01*
X1014000Y1435000D02*
X764000Y1435000D01*
X764000Y1105000D02*
X1014000Y1105000D01*
X764000Y1105000D02*
X764000Y1435000D01*
X506000Y1435000D02*
X506000Y1105000D01*
X506000Y1435000D02*
X256000Y1435000D01*
X256000Y1105000D02*
X506000Y1105000D01*
X256000Y1105000D02*
X256000Y1435000D01*
X868000Y2486000D02*
X1164000Y2486000D01*
X868000Y2340000D02*
X868000Y2486000D01*
X1164000Y2340000D02*
X868000Y2340000D01*
X1164000Y2486000D02*
X1164000Y2340000D01*
X656000Y2340000D02*
X360000Y2340000D01*
X656000Y2486000D02*
X656000Y2340000D01*
X360000Y2486000D02*
X656000Y2486000D01*
X360000Y2340000D02*
X360000Y2486000D01*
X868000Y2295500D02*
X1164000Y2295500D01*
X868000Y2149500D02*
X868000Y2295500D01*
X1164000Y2149500D02*
X868000Y2149500D01*
X1164000Y2295500D02*
X1164000Y2149500D01*
X360000Y2295500D02*
X656000Y2295500D01*
X360000Y2149500D02*
X360000Y2295500D01*
X656000Y2149500D02*
X360000Y2149500D01*
X656000Y2295500D02*
X656000Y2149500D01*
X1344000Y614000D02*
X181000Y614000D01*
X1344000Y-106000D02*
X1344000Y614000D01*
X181000Y-106000D02*
X1344000Y-106000D01*
X181000Y614000D02*
X181000Y-106000D01*
X1297000Y855500D02*
X1297000Y2065500D01*
X227000Y855500D02*
X1297000Y855500D01*
X227000Y2065500D02*
X227000Y855500D01*
X1297000Y2065500D02*
X227000Y2065500D01*
M02*
