M48
METRIC
T1C0.200
T2C0.300
T3C1.000
T4C1.100
%
G90
G05
T1
X0.381Y13.97
X0.762Y24.13
X1.778Y27.94
X1.778Y26.188
X1.778Y7.366
X2.032Y11.938
X2.032Y11.049
X2.032Y3.048
X2.032Y2.032
X2.413Y16.002
X2.476Y13.144
X2.667Y25.527
X2.858Y21.403
X3.492Y13.081
X3.81Y0.0
X4.318Y18.923
X4.318Y16.701
X4.572Y15.494
X5.08Y26.035
X5.588Y12.954
X5.588Y12.192
X6.223Y12.954
X6.223Y12.192
X6.35Y26.035
X6.35Y0.0
X6.858Y23.304
X6.858Y17.018
X6.858Y12.954
X6.858Y12.192
X7.302Y11.362
X7.366Y24.13
X7.493Y28.194
X8.382Y27.813
X8.382Y26.188
X8.382Y23.368
X8.382Y17.018
X8.58Y15.359
X8.89Y0.0
X9.17Y13.234
X10.096Y12.573
X10.096Y11.493
X10.223Y6.477
X10.287Y26.035
X10.477Y15.498
X11.43Y15.494
X11.43Y0.0
X11.811Y12.954
X11.811Y12.192
X12.319Y15.494
X12.446Y12.954
X12.446Y12.192
X12.509Y21.653
X13.081Y12.954
X13.081Y12.192
X13.208Y26.035
X13.208Y23.304
X13.208Y16.002
X13.97Y10.16
X13.97Y6.35
X14.097Y13.97
X14.097Y11.747
T2
X6.155Y15.986
T3
X0.0Y27.94
X0.0Y25.4
X0.0Y22.86
X0.0Y20.32
X0.0Y17.78
X0.0Y15.24
X0.0Y12.7
X0.0Y10.16
X0.0Y7.62
X0.0Y5.08
X0.0Y2.54
X0.0Y0.0
X15.24Y27.94
X15.24Y25.4
X15.24Y22.86
X15.24Y20.32
X15.24Y17.78
X15.24Y15.24
X15.24Y12.7
X15.24Y10.16
X15.24Y7.62
X15.24Y5.08
X15.24Y2.54
X15.24Y0.0
T4
X3.81Y2.54
X6.35Y2.54
X8.89Y2.54
X11.43Y2.54
T0
M30
