M48
; DRILL file {KiCad 5.1.5+dfsg1-2build2} date Mon 15 Mar 2021 10:19:47 PM CET
; FORMAT={-:-/ absolute / inch / decimal}
; #@! TF.CreationDate,2021-03-15T22:19:47+01:00
; #@! TF.GenerationSoftware,Kicad,Pcbnew,5.1.5+dfsg1-2build2
; #@! TF.FileFunction,Plated,1,4,PTH
FMAT,2
INCH
T1C0.0079
T2C0.0433
T3C0.0551
%
G90
G05
T1
X3.53Y-3.315
X3.535Y-3.235
X3.54Y-3.2
X3.54Y-3.39
X3.54Y-3.425
X3.695Y-3.375
X3.715Y-3.205
X3.715Y-3.225
X3.715Y-3.245
X3.715Y-3.455
X3.715Y-3.475
X3.715Y-3.495
X3.735Y-3.215
X3.735Y-3.235
X3.735Y-3.465
X3.735Y-3.485
X3.76Y-3.34
X3.7626Y-3.1029
X3.865Y-3.25
X3.865Y-3.48
X3.885Y-3.08
X3.885Y-3.52
X3.945Y-3.135
X3.95Y-3.3
X3.955Y-3.43
X3.955Y-3.465
X4.095Y-3.4
X4.165Y-3.08
X4.165Y-3.3
X4.165Y-3.33
X4.1651Y-3.4969
X4.23Y-3.3
X4.265Y-3.255
X4.275Y-3.495
X4.275Y-3.54
X4.295Y-3.295
X4.37Y-3.08
T2
X3.35Y-3.15
X3.35Y-3.25
X3.35Y-3.35
X3.35Y-3.45
T3
X3.25Y-3.0
X3.25Y-3.6
X3.35Y-3.0
X3.35Y-3.6
X3.45Y-3.0
X3.45Y-3.6
X3.55Y-3.0
X3.55Y-3.6
X3.65Y-3.0
X3.65Y-3.6
X3.75Y-3.0
X3.75Y-3.6
X3.85Y-3.0
X3.85Y-3.6
X3.95Y-3.0
X3.95Y-3.6
X4.05Y-3.0
X4.05Y-3.6
X4.15Y-3.0
X4.15Y-3.6
X4.25Y-3.0
X4.25Y-3.6
X4.35Y-3.0
X4.35Y-3.6
T0
M30
