%TF.GenerationSoftware,KiCad,Pcbnew,5.1.5+dfsg1-2~bpo10+1*%
%TF.CreationDate,Date%
%TF.ProjectId,ProMicro_ANA,50726f4d-6963-4726-9f5f-414e412e6b69,v1.0*%
%TF.SameCoordinates,Original*%
%TF.FileFunction,Other,Fab,Bot*%
%FSLAX45Y45*%
G04 Gerber Fmt 4.5, Leading zero omitted, Abs format (unit mm)*
G04 Created by KiCad*
%MOMM*%
%LPD*%
G04 APERTURE LIST*
%ADD10C,0.100000*%
%ADD11C,0.200000*%
%ADD12C,0.060000*%
%ADD13C,0.075000*%
G04 APERTURE END LIST*
D10*
X-63500Y-127000D02*
G75*
G02X-127000Y-63500I0J63500D01*
G01*
X1651000Y-63500D02*
G75*
G02X1587500Y-127000I-63500J0D01*
G01*
X1587500Y2921000D02*
G75*
G02X1651000Y2857500I0J-63500D01*
G01*
X-127000Y2857500D02*
G75*
G02X-63500Y2921000I63500J0D01*
G01*
X-127000Y-63500D02*
X-127000Y2857500D01*
X1587500Y-127000D02*
X-63500Y-127000D01*
X1651000Y2857500D02*
X1651000Y-63500D01*
X-63500Y2921000D02*
X1587500Y2921000D01*
X968400Y2403500D02*
X1368400Y2403500D01*
X968400Y2803500D02*
X1368400Y2803500D01*
X968400Y2803500D02*
X968400Y2403500D01*
X1368400Y2403500D02*
X1368400Y2803500D01*
X295300Y2403500D02*
X695300Y2403500D01*
X295300Y2803500D02*
X695300Y2803500D01*
X295300Y2803500D02*
X295300Y2403500D01*
X695300Y2403500D02*
X695300Y2803500D01*
X1306200Y2239000D02*
X1306200Y2079000D01*
X1386200Y2239000D02*
X1306200Y2239000D01*
X1386200Y2079000D02*
X1386200Y2239000D01*
X1306200Y2079000D02*
X1386200Y2079000D01*
X645800Y2239000D02*
X645800Y2079000D01*
X725800Y2239000D02*
X645800Y2239000D01*
X725800Y2079000D02*
X725800Y2239000D01*
X645800Y2079000D02*
X725800Y2079000D01*
X878200Y2460000D02*
X878200Y2620000D01*
X798200Y2460000D02*
X878200Y2460000D01*
X798200Y2620000D02*
X798200Y2460000D01*
X878200Y2620000D02*
X798200Y2620000D01*
X217800Y2460000D02*
X217800Y2620000D01*
X137800Y2460000D02*
X217800Y2460000D01*
X137800Y2620000D02*
X137800Y2460000D01*
X217800Y2620000D02*
X137800Y2620000D01*
X937200Y1688000D02*
X1247200Y1688000D01*
X1247200Y1688000D02*
X1247200Y1868000D01*
X1002200Y1868000D02*
X1247200Y1868000D01*
X937200Y1688000D02*
X937200Y1803000D01*
X1002200Y1868000D02*
X937200Y1803000D01*
X276800Y1688000D02*
X586800Y1688000D01*
X586800Y1688000D02*
X586800Y1868000D01*
X341800Y1868000D02*
X586800Y1868000D01*
X276800Y1688000D02*
X276800Y1803000D01*
X341800Y1868000D02*
X276800Y1803000D01*
X937200Y2069000D02*
X1247200Y2069000D01*
X1247200Y2069000D02*
X1247200Y2249000D01*
X1002200Y2249000D02*
X1247200Y2249000D01*
X937200Y2069000D02*
X937200Y2184000D01*
X1002200Y2249000D02*
X937200Y2184000D01*
X276800Y2069000D02*
X586800Y2069000D01*
X586800Y2069000D02*
X586800Y2249000D01*
X341800Y2249000D02*
X586800Y2249000D01*
X276800Y2069000D02*
X276800Y2184000D01*
X341800Y2249000D02*
X276800Y2184000D01*
X798200Y1858000D02*
X798200Y1698000D01*
X878200Y1858000D02*
X798200Y1858000D01*
X878200Y1698000D02*
X878200Y1858000D01*
X798200Y1698000D02*
X878200Y1698000D01*
X798200Y2239000D02*
X798200Y2079000D01*
X878200Y2239000D02*
X798200Y2239000D01*
X878200Y2079000D02*
X878200Y2239000D01*
X798200Y2079000D02*
X878200Y2079000D01*
X137800Y1858000D02*
X137800Y1698000D01*
X217800Y1858000D02*
X137800Y1858000D01*
X217800Y1698000D02*
X217800Y1858000D01*
X137800Y1698000D02*
X217800Y1698000D01*
X137800Y2239000D02*
X137800Y2079000D01*
X217800Y2239000D02*
X137800Y2239000D01*
X217800Y2079000D02*
X217800Y2239000D01*
X137800Y2079000D02*
X217800Y2079000D01*
X1056000Y491500D02*
X976000Y491500D01*
X1056000Y651500D02*
X1056000Y491500D01*
X1006000Y651500D02*
X1056000Y651500D01*
X976000Y621500D02*
X1006000Y651500D01*
X976000Y491500D02*
X976000Y621500D01*
X484500Y491500D02*
X404500Y491500D01*
X484500Y651500D02*
X484500Y491500D01*
X434500Y651500D02*
X484500Y651500D01*
X404500Y621500D02*
X434500Y651500D01*
X404500Y491500D02*
X404500Y621500D01*
X785500Y651500D02*
X785500Y491500D01*
X865500Y651500D02*
X785500Y651500D01*
X865500Y491500D02*
X865500Y651500D01*
X785500Y491500D02*
X865500Y491500D01*
X214000Y651500D02*
X214000Y491500D01*
X294000Y651500D02*
X214000Y651500D01*
X294000Y491500D02*
X294000Y651500D01*
X214000Y491500D02*
X294000Y491500D01*
X1386200Y1698000D02*
X1386200Y1858000D01*
X1306200Y1698000D02*
X1386200Y1698000D01*
X1306200Y1858000D02*
X1306200Y1698000D01*
X1386200Y1858000D02*
X1306200Y1858000D01*
X725800Y1698000D02*
X725800Y1858000D01*
X645800Y1698000D02*
X725800Y1698000D01*
X645800Y1858000D02*
X645800Y1698000D01*
X725800Y1858000D02*
X645800Y1858000D01*
X1229500Y923000D02*
X1329500Y1023000D01*
X829500Y923000D02*
X1229500Y923000D01*
X829500Y1363000D02*
X829500Y923000D01*
X1329500Y1363000D02*
X829500Y1363000D01*
X1329500Y1023000D02*
X1329500Y1363000D01*
X594500Y923000D02*
X694500Y1023000D01*
X194500Y923000D02*
X594500Y923000D01*
X194500Y1363000D02*
X194500Y923000D01*
X694500Y1363000D02*
X194500Y1363000D01*
X694500Y1023000D02*
X694500Y1363000D01*
D11*
X1204590Y2616833D02*
X1204590Y2654929D01*
X1124590Y2654929D01*
X1132210Y2593976D02*
X1128400Y2590167D01*
X1124590Y2582548D01*
X1124590Y2563500D01*
X1128400Y2555881D01*
X1132210Y2552072D01*
X1139829Y2548262D01*
X1147448Y2548262D01*
X1158876Y2552072D01*
X1204590Y2597786D01*
X1204590Y2548262D01*
X531490Y2616833D02*
X531490Y2654929D01*
X451490Y2654929D01*
X531490Y2548262D02*
X531490Y2593976D01*
X531490Y2571119D02*
X451490Y2571119D01*
X462919Y2578738D01*
X470538Y2586357D01*
X474348Y2593976D01*
D12*
X1360486Y2165667D02*
X1362390Y2167572D01*
X1364295Y2173286D01*
X1364295Y2177095D01*
X1362390Y2182810D01*
X1358581Y2186619D01*
X1354771Y2188524D01*
X1347152Y2190429D01*
X1341438Y2190429D01*
X1333819Y2188524D01*
X1330010Y2186619D01*
X1326200Y2182810D01*
X1324295Y2177095D01*
X1324295Y2173286D01*
X1326200Y2167572D01*
X1328105Y2165667D01*
X1337629Y2131381D02*
X1364295Y2131381D01*
X1322390Y2140905D02*
X1350962Y2150429D01*
X1350962Y2125667D01*
X700086Y2165667D02*
X701990Y2167572D01*
X703895Y2173286D01*
X703895Y2177095D01*
X701990Y2182810D01*
X698181Y2186619D01*
X694371Y2188524D01*
X686752Y2190429D01*
X681038Y2190429D01*
X673419Y2188524D01*
X669610Y2186619D01*
X665800Y2182810D01*
X663895Y2177095D01*
X663895Y2173286D01*
X665800Y2167572D01*
X667705Y2165667D01*
X663895Y2152333D02*
X663895Y2127572D01*
X679133Y2140905D01*
X679133Y2135191D01*
X681038Y2131381D01*
X682943Y2129476D01*
X686752Y2127572D01*
X696276Y2127572D01*
X700086Y2129476D01*
X701990Y2131381D01*
X703895Y2135191D01*
X703895Y2146619D01*
X701990Y2150429D01*
X700086Y2152333D01*
X852486Y2546667D02*
X854390Y2548572D01*
X856295Y2554286D01*
X856295Y2558095D01*
X854390Y2563810D01*
X850581Y2567619D01*
X846771Y2569524D01*
X839152Y2571429D01*
X833438Y2571429D01*
X825819Y2569524D01*
X822009Y2567619D01*
X818200Y2563810D01*
X816295Y2558095D01*
X816295Y2554286D01*
X818200Y2548572D01*
X820105Y2546667D01*
X820105Y2531429D02*
X818200Y2529524D01*
X816295Y2525714D01*
X816295Y2516191D01*
X818200Y2512381D01*
X820105Y2510476D01*
X823914Y2508572D01*
X827724Y2508572D01*
X833438Y2510476D01*
X856295Y2533333D01*
X856295Y2508572D01*
X192086Y2546667D02*
X193990Y2548572D01*
X195895Y2554286D01*
X195895Y2558095D01*
X193990Y2563810D01*
X190181Y2567619D01*
X186371Y2569524D01*
X178752Y2571429D01*
X173038Y2571429D01*
X165419Y2569524D01*
X161610Y2567619D01*
X157800Y2563810D01*
X155895Y2558095D01*
X155895Y2554286D01*
X157800Y2548572D01*
X159705Y2546667D01*
X195895Y2508572D02*
X195895Y2531429D01*
X195895Y2520000D02*
X155895Y2520000D01*
X161610Y2523810D01*
X165419Y2527619D01*
X167324Y2531429D01*
D13*
X1130295Y1805381D02*
X1130295Y1764905D01*
X1127914Y1760143D01*
X1125533Y1757762D01*
X1120771Y1755381D01*
X1111248Y1755381D01*
X1106486Y1757762D01*
X1104105Y1760143D01*
X1101724Y1764905D01*
X1101724Y1805381D01*
X1082676Y1805381D02*
X1049343Y1805381D01*
X1070771Y1755381D01*
X469895Y1805381D02*
X469895Y1764905D01*
X467514Y1760143D01*
X465133Y1757762D01*
X460371Y1755381D01*
X450848Y1755381D01*
X446086Y1757762D01*
X443705Y1760143D01*
X441324Y1764905D01*
X441324Y1805381D01*
X396086Y1805381D02*
X405609Y1805381D01*
X410371Y1803000D01*
X412752Y1800619D01*
X417514Y1793476D01*
X419895Y1783952D01*
X419895Y1764905D01*
X417514Y1760143D01*
X415133Y1757762D01*
X410371Y1755381D01*
X400848Y1755381D01*
X396086Y1757762D01*
X393705Y1760143D01*
X391324Y1764905D01*
X391324Y1776810D01*
X393705Y1781571D01*
X396086Y1783952D01*
X400848Y1786333D01*
X410371Y1786333D01*
X415133Y1783952D01*
X417514Y1781571D01*
X419895Y1776810D01*
X1130295Y2186381D02*
X1130295Y2145905D01*
X1127914Y2141143D01*
X1125533Y2138762D01*
X1120771Y2136381D01*
X1111248Y2136381D01*
X1106486Y2138762D01*
X1104105Y2141143D01*
X1101724Y2145905D01*
X1101724Y2186381D01*
X1082676Y2186381D02*
X1051724Y2186381D01*
X1068390Y2167333D01*
X1061248Y2167333D01*
X1056486Y2164952D01*
X1054105Y2162572D01*
X1051724Y2157810D01*
X1051724Y2145905D01*
X1054105Y2141143D01*
X1056486Y2138762D01*
X1061248Y2136381D01*
X1075533Y2136381D01*
X1080295Y2138762D01*
X1082676Y2141143D01*
X469895Y2186381D02*
X469895Y2145905D01*
X467514Y2141143D01*
X465133Y2138762D01*
X460371Y2136381D01*
X450848Y2136381D01*
X446086Y2138762D01*
X443705Y2141143D01*
X441324Y2145905D01*
X441324Y2186381D01*
X419895Y2181619D02*
X417514Y2184000D01*
X412752Y2186381D01*
X400848Y2186381D01*
X396086Y2184000D01*
X393705Y2181619D01*
X391324Y2176857D01*
X391324Y2172095D01*
X393705Y2164952D01*
X422276Y2136381D01*
X391324Y2136381D01*
D12*
X856295Y1784667D02*
X837248Y1798000D01*
X856295Y1807524D02*
X816295Y1807524D01*
X816295Y1792286D01*
X818200Y1788476D01*
X820105Y1786571D01*
X823914Y1784667D01*
X829628Y1784667D01*
X833438Y1786571D01*
X835343Y1788476D01*
X837248Y1792286D01*
X837248Y1807524D01*
X816295Y1750381D02*
X816295Y1758000D01*
X818200Y1761810D01*
X820105Y1763714D01*
X825819Y1767524D01*
X833438Y1769429D01*
X848676Y1769429D01*
X852486Y1767524D01*
X854390Y1765619D01*
X856295Y1761810D01*
X856295Y1754190D01*
X854390Y1750381D01*
X852486Y1748476D01*
X848676Y1746571D01*
X839152Y1746571D01*
X835343Y1748476D01*
X833438Y1750381D01*
X831533Y1754190D01*
X831533Y1761810D01*
X833438Y1765619D01*
X835343Y1767524D01*
X839152Y1769429D01*
X856295Y2165667D02*
X837248Y2179000D01*
X856295Y2188524D02*
X816295Y2188524D01*
X816295Y2173286D01*
X818200Y2169476D01*
X820105Y2167572D01*
X823914Y2165667D01*
X829628Y2165667D01*
X833438Y2167572D01*
X835343Y2169476D01*
X837248Y2173286D01*
X837248Y2188524D01*
X816295Y2129476D02*
X816295Y2148524D01*
X835343Y2150429D01*
X833438Y2148524D01*
X831533Y2144714D01*
X831533Y2135191D01*
X833438Y2131381D01*
X835343Y2129476D01*
X839152Y2127572D01*
X848676Y2127572D01*
X852486Y2129476D01*
X854390Y2131381D01*
X856295Y2135191D01*
X856295Y2144714D01*
X854390Y2148524D01*
X852486Y2150429D01*
X195895Y1784667D02*
X176848Y1798000D01*
X195895Y1807524D02*
X155895Y1807524D01*
X155895Y1792286D01*
X157800Y1788476D01*
X159705Y1786571D01*
X163514Y1784667D01*
X169229Y1784667D01*
X173038Y1786571D01*
X174943Y1788476D01*
X176848Y1792286D01*
X176848Y1807524D01*
X169229Y1750381D02*
X195895Y1750381D01*
X153990Y1759905D02*
X182562Y1769429D01*
X182562Y1744667D01*
X195895Y2165667D02*
X176848Y2179000D01*
X195895Y2188524D02*
X155895Y2188524D01*
X155895Y2173286D01*
X157800Y2169476D01*
X159705Y2167572D01*
X163514Y2165667D01*
X169229Y2165667D01*
X173038Y2167572D01*
X174943Y2169476D01*
X176848Y2173286D01*
X176848Y2188524D01*
X155895Y2152333D02*
X155895Y2127572D01*
X171133Y2140905D01*
X171133Y2135191D01*
X173038Y2131381D01*
X174943Y2129476D01*
X178752Y2127572D01*
X188276Y2127572D01*
X192086Y2129476D01*
X193990Y2131381D01*
X195895Y2135191D01*
X195895Y2146619D01*
X193990Y2150429D01*
X192086Y2152333D01*
X1034095Y601024D02*
X994095Y601024D01*
X994095Y591500D01*
X996000Y585786D01*
X999809Y581976D01*
X1003619Y580072D01*
X1011238Y578167D01*
X1016952Y578167D01*
X1024571Y580072D01*
X1028381Y581976D01*
X1032190Y585786D01*
X1034095Y591500D01*
X1034095Y601024D01*
X997905Y562929D02*
X996000Y561024D01*
X994095Y557214D01*
X994095Y547691D01*
X996000Y543881D01*
X997905Y541976D01*
X1001714Y540072D01*
X1005524Y540072D01*
X1011238Y541976D01*
X1034095Y564833D01*
X1034095Y540072D01*
X462595Y601024D02*
X422595Y601024D01*
X422595Y591500D01*
X424500Y585786D01*
X428309Y581976D01*
X432119Y580072D01*
X439738Y578167D01*
X445452Y578167D01*
X453071Y580072D01*
X456881Y581976D01*
X460690Y585786D01*
X462595Y591500D01*
X462595Y601024D01*
X462595Y540072D02*
X462595Y562929D01*
X462595Y551500D02*
X422595Y551500D01*
X428309Y555310D01*
X432119Y559119D01*
X434024Y562929D01*
X843595Y578167D02*
X824548Y591500D01*
X843595Y601024D02*
X803595Y601024D01*
X803595Y585786D01*
X805500Y581976D01*
X807405Y580072D01*
X811214Y578167D01*
X816928Y578167D01*
X820738Y580072D01*
X822643Y581976D01*
X824548Y585786D01*
X824548Y601024D01*
X820738Y555310D02*
X818833Y559119D01*
X816928Y561024D01*
X813119Y562929D01*
X811214Y562929D01*
X807405Y561024D01*
X805500Y559119D01*
X803595Y555310D01*
X803595Y547691D01*
X805500Y543881D01*
X807405Y541976D01*
X811214Y540072D01*
X813119Y540072D01*
X816928Y541976D01*
X818833Y543881D01*
X820738Y547691D01*
X820738Y555310D01*
X822643Y559119D01*
X824548Y561024D01*
X828357Y562929D01*
X835976Y562929D01*
X839786Y561024D01*
X841690Y559119D01*
X843595Y555310D01*
X843595Y547691D01*
X841690Y543881D01*
X839786Y541976D01*
X835976Y540072D01*
X828357Y540072D01*
X824548Y541976D01*
X822643Y543881D01*
X820738Y547691D01*
X272095Y578167D02*
X253048Y591500D01*
X272095Y601024D02*
X232095Y601024D01*
X232095Y585786D01*
X234000Y581976D01*
X235905Y580072D01*
X239714Y578167D01*
X245428Y578167D01*
X249238Y580072D01*
X251143Y581976D01*
X253048Y585786D01*
X253048Y601024D01*
X232095Y564833D02*
X232095Y538167D01*
X272095Y555310D01*
X1360486Y1784667D02*
X1362390Y1786571D01*
X1364295Y1792286D01*
X1364295Y1796095D01*
X1362390Y1801810D01*
X1358581Y1805619D01*
X1354771Y1807524D01*
X1347152Y1809429D01*
X1341438Y1809429D01*
X1333819Y1807524D01*
X1330010Y1805619D01*
X1326200Y1801810D01*
X1324295Y1796095D01*
X1324295Y1792286D01*
X1326200Y1786571D01*
X1328105Y1784667D01*
X1324295Y1750381D02*
X1324295Y1758000D01*
X1326200Y1761810D01*
X1328105Y1763714D01*
X1333819Y1767524D01*
X1341438Y1769429D01*
X1356676Y1769429D01*
X1360486Y1767524D01*
X1362390Y1765619D01*
X1364295Y1761810D01*
X1364295Y1754190D01*
X1362390Y1750381D01*
X1360486Y1748476D01*
X1356676Y1746571D01*
X1347152Y1746571D01*
X1343343Y1748476D01*
X1341438Y1750381D01*
X1339533Y1754190D01*
X1339533Y1761810D01*
X1341438Y1765619D01*
X1343343Y1767524D01*
X1347152Y1769429D01*
X700086Y1784667D02*
X701990Y1786571D01*
X703895Y1792286D01*
X703895Y1796095D01*
X701990Y1801810D01*
X698181Y1805619D01*
X694371Y1807524D01*
X686752Y1809429D01*
X681038Y1809429D01*
X673419Y1807524D01*
X669610Y1805619D01*
X665800Y1801810D01*
X663895Y1796095D01*
X663895Y1792286D01*
X665800Y1786571D01*
X667705Y1784667D01*
X663895Y1748476D02*
X663895Y1767524D01*
X682943Y1769429D01*
X681038Y1767524D01*
X679133Y1763714D01*
X679133Y1754190D01*
X681038Y1750381D01*
X682943Y1748476D01*
X686752Y1746571D01*
X696276Y1746571D01*
X700086Y1748476D01*
X701990Y1750381D01*
X703895Y1754190D01*
X703895Y1763714D01*
X701990Y1767524D01*
X700086Y1769429D01*
D11*
X1035690Y1203952D02*
X1100452Y1203952D01*
X1108071Y1200143D01*
X1111881Y1196333D01*
X1115690Y1188714D01*
X1115690Y1173476D01*
X1111881Y1165857D01*
X1108071Y1162048D01*
X1100452Y1158238D01*
X1035690Y1158238D01*
X1035690Y1082048D02*
X1035690Y1120143D01*
X1073786Y1123952D01*
X1069976Y1120143D01*
X1066167Y1112524D01*
X1066167Y1093476D01*
X1069976Y1085857D01*
X1073786Y1082048D01*
X1081405Y1078238D01*
X1100452Y1078238D01*
X1108071Y1082048D01*
X1111881Y1085857D01*
X1115690Y1093476D01*
X1115690Y1112524D01*
X1111881Y1120143D01*
X1108071Y1123952D01*
X400690Y1203952D02*
X465452Y1203952D01*
X473071Y1200143D01*
X476881Y1196333D01*
X480690Y1188714D01*
X480690Y1173476D01*
X476881Y1165857D01*
X473071Y1162048D01*
X465452Y1158238D01*
X400690Y1158238D01*
X427357Y1085857D02*
X480690Y1085857D01*
X396881Y1104905D02*
X454024Y1123952D01*
X454024Y1074429D01*
M02*
