M48
METRIC
T1C0.200
T2C0.300
T3C1.000
T4C1.100
%
G90
G05
T1
X2.794Y11.43
X4.953Y11.43
X7.899Y10.008
X12.192Y13.843
X12.319Y8.89
X12.446Y13.081
X13.335Y16.51
X8.34Y15.255
X8.34Y13.955
X9.44Y15.255
X9.44Y13.955
T2
X6.731Y17.145
T3
X0.0Y27.94
X0.0Y25.4
X0.0Y22.86
X0.0Y20.32
X0.0Y17.78
X0.0Y15.24
X0.0Y12.7
X0.0Y10.16
X0.0Y7.62
X0.0Y5.08
X0.0Y2.54
X0.0Y0.0
X15.24Y27.94
X15.24Y25.4
X15.24Y22.86
X15.24Y20.32
X15.24Y17.78
X15.24Y15.24
X15.24Y12.7
X15.24Y10.16
X15.24Y7.62
X15.24Y5.08
X15.24Y2.54
X15.24Y0.0
T4
X2.54Y25.4
X5.08Y25.4
X7.62Y25.4
X10.16Y25.4
X12.7Y25.4
T0
M30
