%TF.GenerationSoftware,KiCad,Pcbnew,5.1.6+dfsg1-1~bpo10+1*%
%TF.CreationDate,2020-07-13T20:25:26+00:00*%
%TF.ProjectId,ProMicro_LOG,50726f4d-6963-4726-9f5f-4c4f472e6b69,v1.0*%
%TF.SameCoordinates,Original*%
%TF.FileFunction,Other,Fab,Top*%
%FSLAX45Y45*%
G04 Gerber Fmt 4.5, Leading zero omitted, Abs format (unit mm)*
G04 Created by KiCad (PCBNEW 5.1.6+dfsg1-1~bpo10+1) date 2020-07-13 20:25:26*
%MOMM*%
%LPD*%
G01*
G04 APERTURE LIST*
%TA.AperFunction,Profile*%
%ADD10C,0.100000*%
%TD*%
%ADD11C,0.100000*%
%ADD12C,0.200000*%
%ADD13C,0.060000*%
%ADD14C,0.150000*%
G04 APERTURE END LIST*
D10*
X-1587500Y2921000D02*
G75*
G03*
X-1651000Y2857500I0J-63500D01*
G01*
X127000Y2857500D02*
G75*
G03*
X63500Y2921000I-63500J0D01*
G01*
X63500Y-127000D02*
G75*
G03*
X127000Y-63500I0J63500D01*
G01*
X-1651000Y-63500D02*
G75*
G03*
X-1587500Y-127000I63500J0D01*
G01*
X-1651000Y2857500D02*
X-1651000Y-63500D01*
X63500Y2921000D02*
X-1587500Y2921000D01*
X127000Y-63500D02*
X127000Y2857500D01*
X-1587500Y-127000D02*
X63500Y-127000D01*
D11*
X126000Y2904000D02*
X126000Y-111000D01*
X-1604000Y2904000D02*
X126000Y2904000D01*
X-1604000Y2904000D02*
X-1651000Y2854000D01*
X-1651000Y-111000D02*
X-1651000Y2854000D01*
X126000Y-111000D02*
X-1651000Y-111000D01*
X-357500Y143500D02*
X-277500Y143500D01*
X-277500Y143500D02*
X-277500Y-16500D01*
X-277500Y-16500D02*
X-357500Y-16500D01*
X-357500Y-16500D02*
X-357500Y143500D01*
X-1286500Y976000D02*
X-1286500Y1056000D01*
X-1286500Y1056000D02*
X-1126500Y1056000D01*
X-1126500Y1056000D02*
X-1126500Y976000D01*
X-1126500Y976000D02*
X-1286500Y976000D01*
X-421000Y1032500D02*
X-421000Y902500D01*
X-421000Y902500D02*
X-391000Y872500D01*
X-391000Y872500D02*
X-341000Y872500D01*
X-341000Y872500D02*
X-341000Y1032500D01*
X-341000Y1032500D02*
X-421000Y1032500D01*
X-150500Y872500D02*
X-230500Y872500D01*
X-230500Y872500D02*
X-230500Y1032500D01*
X-230500Y1032500D02*
X-150500Y1032500D01*
X-150500Y1032500D02*
X-150500Y872500D01*
X-1286500Y785500D02*
X-1286500Y865500D01*
X-1286500Y865500D02*
X-1126500Y865500D01*
X-1126500Y865500D02*
X-1126500Y785500D01*
X-1126500Y785500D02*
X-1286500Y785500D01*
X-1286500Y595000D02*
X-1286500Y675000D01*
X-1286500Y675000D02*
X-1126500Y675000D01*
X-1126500Y675000D02*
X-1126500Y595000D01*
X-1126500Y595000D02*
X-1286500Y595000D01*
X-1286500Y404500D02*
X-1286500Y484500D01*
X-1286500Y484500D02*
X-1126500Y484500D01*
X-1126500Y484500D02*
X-1126500Y404500D01*
X-1126500Y404500D02*
X-1286500Y404500D01*
X-237500Y421000D02*
X-237500Y341000D01*
X-237500Y341000D02*
X-397500Y341000D01*
X-397500Y341000D02*
X-397500Y421000D01*
X-397500Y421000D02*
X-237500Y421000D01*
X-1007000Y537500D02*
X-1007000Y830000D01*
X-1007000Y830000D02*
X-517000Y830000D01*
X-517000Y830000D02*
X-517000Y440000D01*
X-517000Y440000D02*
X-909500Y440000D01*
X-909500Y440000D02*
X-1007000Y537500D01*
X-1252500Y2748000D02*
X-252500Y2748000D01*
X-272000Y2318000D02*
X-272000Y2258000D01*
X-1357500Y2348000D02*
X-1188000Y2348000D01*
X-1138000Y2258000D02*
X-1138000Y2298000D01*
X-322000Y2208000D02*
X-1088000Y2208000D01*
X-162500Y1208000D02*
X-1357500Y1208000D01*
X-1357500Y2348000D02*
X-1357500Y1208000D01*
X-162500Y2348000D02*
X-241000Y2348000D01*
X-162500Y1208000D02*
X-162500Y2348000D01*
X-202500Y2348000D02*
X-202500Y2698000D01*
X-1302500Y2698000D02*
X-1302500Y2348000D01*
X-1302500Y2698000D02*
G75*
G02*
X-1252500Y2748000I50000J0D01*
G01*
X-252500Y2748000D02*
G75*
G02*
X-202500Y2698000I0J-50000D01*
G01*
X-272000Y2318000D02*
G75*
G02*
X-242000Y2348000I30000J0D01*
G01*
X-272000Y2258000D02*
G75*
G02*
X-322000Y2208000I-50000J0D01*
G01*
X-1138000Y2258000D02*
G75*
G03*
X-1088000Y2208000I50000J0D01*
G01*
X-1188000Y2348000D02*
G75*
G02*
X-1138000Y2298000I0J-50000D01*
G01*
D12*
X-1256667Y2736857D02*
X-1256667Y2774952D01*
X-1233810Y2729238D02*
X-1313810Y2755905D01*
X-1233810Y2782572D01*
X-1233810Y2851143D02*
X-1233810Y2805429D01*
X-1233810Y2828286D02*
X-1313810Y2828286D01*
X-1302381Y2820667D01*
X-1294762Y2813048D01*
X-1290952Y2805429D01*
D13*
X-299405Y56833D02*
X-318452Y43500D01*
X-299405Y33976D02*
X-339405Y33976D01*
X-339405Y49214D01*
X-337500Y53024D01*
X-335595Y54929D01*
X-331786Y56833D01*
X-326072Y56833D01*
X-322262Y54929D01*
X-320357Y53024D01*
X-318452Y49214D01*
X-318452Y33976D01*
X-339405Y91119D02*
X-339405Y83500D01*
X-337500Y79691D01*
X-335595Y77786D01*
X-329881Y73976D01*
X-322262Y72072D01*
X-307024Y72072D01*
X-303214Y73976D01*
X-301310Y75881D01*
X-299405Y79691D01*
X-299405Y87310D01*
X-301310Y91119D01*
X-303214Y93024D01*
X-307024Y94929D01*
X-316548Y94929D01*
X-320357Y93024D01*
X-322262Y91119D01*
X-324167Y87310D01*
X-324167Y79691D01*
X-322262Y75881D01*
X-320357Y73976D01*
X-316548Y72072D01*
X-1213167Y1001714D02*
X-1215072Y999810D01*
X-1220786Y997905D01*
X-1224595Y997905D01*
X-1230310Y999810D01*
X-1234119Y1003619D01*
X-1236024Y1007429D01*
X-1237929Y1015048D01*
X-1237929Y1020762D01*
X-1236024Y1028381D01*
X-1234119Y1032190D01*
X-1230310Y1036000D01*
X-1224595Y1037905D01*
X-1220786Y1037905D01*
X-1215072Y1036000D01*
X-1213167Y1034095D01*
X-1175072Y997905D02*
X-1197929Y997905D01*
X-1186500Y997905D02*
X-1186500Y1037905D01*
X-1190310Y1032190D01*
X-1194119Y1028381D01*
X-1197929Y1026476D01*
X-362905Y922976D02*
X-402905Y922976D01*
X-402905Y932500D01*
X-401000Y938214D01*
X-397190Y942024D01*
X-393381Y943929D01*
X-385762Y945833D01*
X-380048Y945833D01*
X-372429Y943929D01*
X-368619Y942024D01*
X-364810Y938214D01*
X-362905Y932500D01*
X-362905Y922976D01*
X-362905Y983929D02*
X-362905Y961071D01*
X-362905Y972500D02*
X-402905Y972500D01*
X-397190Y968690D01*
X-393381Y964881D01*
X-391476Y961071D01*
X-172405Y945833D02*
X-191452Y932500D01*
X-172405Y922976D02*
X-212405Y922976D01*
X-212405Y938214D01*
X-210500Y942024D01*
X-208595Y943929D01*
X-204786Y945833D01*
X-199071Y945833D01*
X-195262Y943929D01*
X-193357Y942024D01*
X-191452Y938214D01*
X-191452Y922976D01*
X-212405Y982024D02*
X-212405Y962976D01*
X-193357Y961071D01*
X-195262Y962976D01*
X-197167Y966786D01*
X-197167Y976310D01*
X-195262Y980119D01*
X-193357Y982024D01*
X-189548Y983929D01*
X-180024Y983929D01*
X-176214Y982024D01*
X-174310Y980119D01*
X-172405Y976310D01*
X-172405Y966786D01*
X-174310Y962976D01*
X-176214Y961071D01*
X-1213167Y807405D02*
X-1226500Y826452D01*
X-1236024Y807405D02*
X-1236024Y847405D01*
X-1220786Y847405D01*
X-1216976Y845500D01*
X-1215072Y843595D01*
X-1213167Y839786D01*
X-1213167Y834071D01*
X-1215072Y830262D01*
X-1216976Y828357D01*
X-1220786Y826452D01*
X-1236024Y826452D01*
X-1178881Y834071D02*
X-1178881Y807405D01*
X-1188405Y849310D02*
X-1197929Y820738D01*
X-1173167Y820738D01*
X-1213167Y616905D02*
X-1226500Y635952D01*
X-1236024Y616905D02*
X-1236024Y656905D01*
X-1220786Y656905D01*
X-1216976Y655000D01*
X-1215072Y653095D01*
X-1213167Y649286D01*
X-1213167Y643572D01*
X-1215072Y639762D01*
X-1216976Y637857D01*
X-1220786Y635952D01*
X-1236024Y635952D01*
X-1199833Y656905D02*
X-1175072Y656905D01*
X-1188405Y641667D01*
X-1182691Y641667D01*
X-1178881Y639762D01*
X-1176976Y637857D01*
X-1175072Y634048D01*
X-1175072Y624524D01*
X-1176976Y620714D01*
X-1178881Y618810D01*
X-1182691Y616905D01*
X-1194119Y616905D01*
X-1197929Y618810D01*
X-1199833Y620714D01*
X-1213167Y426405D02*
X-1226500Y445452D01*
X-1236024Y426405D02*
X-1236024Y466405D01*
X-1220786Y466405D01*
X-1216976Y464500D01*
X-1215072Y462595D01*
X-1213167Y458786D01*
X-1213167Y453071D01*
X-1215072Y449262D01*
X-1216976Y447357D01*
X-1220786Y445452D01*
X-1236024Y445452D01*
X-1197929Y462595D02*
X-1196024Y464500D01*
X-1192214Y466405D01*
X-1182691Y466405D01*
X-1178881Y464500D01*
X-1176976Y462595D01*
X-1175072Y458786D01*
X-1175072Y454976D01*
X-1176976Y449262D01*
X-1199833Y426405D01*
X-1175072Y426405D01*
X-324167Y362905D02*
X-337500Y381952D01*
X-347024Y362905D02*
X-347024Y402905D01*
X-331786Y402905D01*
X-327976Y401000D01*
X-326072Y399095D01*
X-324167Y395286D01*
X-324167Y389571D01*
X-326072Y385762D01*
X-327976Y383857D01*
X-331786Y381952D01*
X-347024Y381952D01*
X-286072Y362905D02*
X-308929Y362905D01*
X-297500Y362905D02*
X-297500Y402905D01*
X-301310Y397190D01*
X-305119Y393381D01*
X-308929Y391476D01*
D14*
X-815667Y560333D02*
X-736333Y560333D01*
X-727000Y565000D01*
X-722333Y569667D01*
X-717667Y579000D01*
X-717667Y597667D01*
X-722333Y607000D01*
X-727000Y611667D01*
X-736333Y616333D01*
X-815667Y616333D01*
X-717667Y714333D02*
X-717667Y658333D01*
X-717667Y686333D02*
X-815667Y686333D01*
X-801667Y677000D01*
X-792333Y667667D01*
X-787667Y658333D01*
X-1007262Y1744667D02*
X-935833Y1744667D01*
X-921548Y1739905D01*
X-912024Y1730381D01*
X-907262Y1716095D01*
X-907262Y1706571D01*
X-907262Y1844667D02*
X-907262Y1787524D01*
X-907262Y1816095D02*
X-1007262Y1816095D01*
X-992976Y1806571D01*
X-983452Y1797048D01*
X-978690Y1787524D01*
M02*
