%TF.GenerationSoftware,KiCad,Pcbnew,5.1.6+dfsg1-1~bpo10+1*%
%TF.CreationDate,2020-07-06T17:28:13+00:00*%
%TF.ProjectId,ProMicro_LIPO,50726f4d-6963-4726-9f5f-4c49504f2e6b,v1.6*%
%TF.SameCoordinates,Original*%
%TF.FileFunction,Copper,L1,Top*%
%TF.FilePolarity,Positive*%
%FSLAX45Y45*%
G04 Gerber Fmt 4.5, Leading zero omitted, Abs format (unit mm)*
G04 Created by KiCad (PCBNEW 5.1.6+dfsg1-1~bpo10+1) date 2020-07-06 17:28:13*
%MOMM*%
%LPD*%
G01*
G04 APERTURE LIST*
%TA.AperFunction,Profile*%
%ADD10C,0.100000*%
%TD*%
%TA.AperFunction,ComponentPad*%
%ADD11O,1.600000X1.600000*%
%TD*%
%TA.AperFunction,ComponentPad*%
%ADD12R,1.600000X1.600000*%
%TD*%
%TA.AperFunction,ComponentPad*%
%ADD13C,2.000000*%
%TD*%
%TA.AperFunction,SMDPad,CuDef*%
%ADD14R,2.350000X5.100000*%
%TD*%
%TA.AperFunction,ViaPad*%
%ADD15C,0.500000*%
%TD*%
%TA.AperFunction,SMDPad,CuDef*%
%ADD16R,1.060000X0.650000*%
%TD*%
%TA.AperFunction,SMDPad,CuDef*%
%ADD17R,1.500000X1.000000*%
%TD*%
%TA.AperFunction,SMDPad,CuDef*%
%ADD18C,0.150000*%
%TD*%
%TA.AperFunction,ViaPad*%
%ADD19C,0.450000*%
%TD*%
%TA.AperFunction,ViaPad*%
%ADD20C,0.600000*%
%TD*%
%TA.AperFunction,Conductor*%
%ADD21C,0.250000*%
%TD*%
%TA.AperFunction,Conductor*%
%ADD22C,0.400000*%
%TD*%
%TA.AperFunction,Conductor*%
%ADD23C,0.300000*%
%TD*%
%TA.AperFunction,Conductor*%
%ADD24C,0.600000*%
%TD*%
%TA.AperFunction,Conductor*%
%ADD25C,0.150000*%
%TD*%
%TA.AperFunction,Conductor*%
%ADD26C,0.200000*%
%TD*%
G04 APERTURE END LIST*
D10*
X-127000Y-63500D02*
X-127000Y2603500D01*
X1651000Y2603500D02*
X1651000Y-63500D01*
X1651000Y-63500D02*
G75*
G02*
X1587500Y-127000I-63500J0D01*
G01*
X-63500Y-127000D02*
G75*
G02*
X-127000Y-63500I0J63500D01*
G01*
X-127000Y2603500D02*
G75*
G02*
X-63500Y2667000I63500J0D01*
G01*
X1587500Y2667000D02*
G75*
G02*
X1651000Y2603500I0J-63500D01*
G01*
X1587500Y2667000D02*
X-63500Y2667000D01*
X-63500Y-127000D02*
X1587500Y-127000D01*
D11*
X1524000Y0D03*
X1524000Y254000D03*
X1524000Y508000D03*
X0Y2794000D03*
X1524000Y762000D03*
X0Y2540000D03*
X1524000Y1016000D03*
X0Y2286000D03*
X1524000Y1270000D03*
X0Y2032000D03*
X1524000Y1524000D03*
X0Y1778000D03*
X1524000Y1778000D03*
X0Y1524000D03*
X1524000Y2032000D03*
X0Y1270000D03*
X1524000Y2286000D03*
X0Y1016000D03*
X1524000Y2540000D03*
X0Y762000D03*
X1524000Y2794000D03*
X0Y508000D03*
X0Y254000D03*
D12*
X0Y0D03*
D13*
X1270000Y2159000D03*
D14*
X728200Y2324100D03*
X313200Y2324100D03*
%TA.AperFunction,SMDPad,CuDef*%
G36*
G01*
X282500Y1930625D02*
X282500Y1879375D01*
G75*
G02*
X260625Y1857500I-21875J0D01*
G01*
X216875Y1857500D01*
G75*
G02*
X195000Y1879375I0J21875D01*
G01*
X195000Y1930625D01*
G75*
G02*
X216875Y1952500I21875J0D01*
G01*
X260625Y1952500D01*
G75*
G02*
X282500Y1930625I0J-21875D01*
G01*
G37*
%TD.AperFunction*%
%TA.AperFunction,SMDPad,CuDef*%
G36*
G01*
X440000Y1930625D02*
X440000Y1879375D01*
G75*
G02*
X418125Y1857500I-21875J0D01*
G01*
X374375Y1857500D01*
G75*
G02*
X352500Y1879375I0J21875D01*
G01*
X352500Y1930625D01*
G75*
G02*
X374375Y1952500I21875J0D01*
G01*
X418125Y1952500D01*
G75*
G02*
X440000Y1930625I0J-21875D01*
G01*
G37*
%TD.AperFunction*%
%TA.AperFunction,SMDPad,CuDef*%
G36*
G01*
X1241500Y1879375D02*
X1241500Y1930625D01*
G75*
G02*
X1263375Y1952500I21875J0D01*
G01*
X1307125Y1952500D01*
G75*
G02*
X1329000Y1930625I0J-21875D01*
G01*
X1329000Y1879375D01*
G75*
G02*
X1307125Y1857500I-21875J0D01*
G01*
X1263375Y1857500D01*
G75*
G02*
X1241500Y1879375I0J21875D01*
G01*
G37*
%TD.AperFunction*%
%TA.AperFunction,SMDPad,CuDef*%
G36*
G01*
X1084000Y1879375D02*
X1084000Y1930625D01*
G75*
G02*
X1105875Y1952500I21875J0D01*
G01*
X1149625Y1952500D01*
G75*
G02*
X1171500Y1930625I0J-21875D01*
G01*
X1171500Y1879375D01*
G75*
G02*
X1149625Y1857500I-21875J0D01*
G01*
X1105875Y1857500D01*
G75*
G02*
X1084000Y1879375I0J21875D01*
G01*
G37*
%TD.AperFunction*%
%TA.AperFunction,SMDPad,CuDef*%
G36*
G01*
X1241500Y1688875D02*
X1241500Y1740125D01*
G75*
G02*
X1263375Y1762000I21875J0D01*
G01*
X1307125Y1762000D01*
G75*
G02*
X1329000Y1740125I0J-21875D01*
G01*
X1329000Y1688875D01*
G75*
G02*
X1307125Y1667000I-21875J0D01*
G01*
X1263375Y1667000D01*
G75*
G02*
X1241500Y1688875I0J21875D01*
G01*
G37*
%TD.AperFunction*%
%TA.AperFunction,SMDPad,CuDef*%
G36*
G01*
X1084000Y1688875D02*
X1084000Y1740125D01*
G75*
G02*
X1105875Y1762000I21875J0D01*
G01*
X1149625Y1762000D01*
G75*
G02*
X1171500Y1740125I0J-21875D01*
G01*
X1171500Y1688875D01*
G75*
G02*
X1149625Y1667000I-21875J0D01*
G01*
X1105875Y1667000D01*
G75*
G02*
X1084000Y1688875I0J21875D01*
G01*
G37*
%TD.AperFunction*%
%TA.AperFunction,SMDPad,CuDef*%
G36*
G01*
X545875Y1044500D02*
X597125Y1044500D01*
G75*
G02*
X619000Y1022625I0J-21875D01*
G01*
X619000Y978875D01*
G75*
G02*
X597125Y957000I-21875J0D01*
G01*
X545875Y957000D01*
G75*
G02*
X524000Y978875I0J21875D01*
G01*
X524000Y1022625D01*
G75*
G02*
X545875Y1044500I21875J0D01*
G01*
G37*
%TD.AperFunction*%
%TA.AperFunction,SMDPad,CuDef*%
G36*
G01*
X545875Y1202000D02*
X597125Y1202000D01*
G75*
G02*
X619000Y1180125I0J-21875D01*
G01*
X619000Y1136375D01*
G75*
G02*
X597125Y1114500I-21875J0D01*
G01*
X545875Y1114500D01*
G75*
G02*
X524000Y1136375I0J21875D01*
G01*
X524000Y1180125D01*
G75*
G02*
X545875Y1202000I21875J0D01*
G01*
G37*
%TD.AperFunction*%
%TA.AperFunction,SMDPad,CuDef*%
G36*
G01*
X282500Y1740125D02*
X282500Y1688875D01*
G75*
G02*
X260625Y1667000I-21875J0D01*
G01*
X216875Y1667000D01*
G75*
G02*
X195000Y1688875I0J21875D01*
G01*
X195000Y1740125D01*
G75*
G02*
X216875Y1762000I21875J0D01*
G01*
X260625Y1762000D01*
G75*
G02*
X282500Y1740125I0J-21875D01*
G01*
G37*
%TD.AperFunction*%
%TA.AperFunction,SMDPad,CuDef*%
G36*
G01*
X440000Y1740125D02*
X440000Y1688875D01*
G75*
G02*
X418125Y1667000I-21875J0D01*
G01*
X374375Y1667000D01*
G75*
G02*
X352500Y1688875I0J21875D01*
G01*
X352500Y1740125D01*
G75*
G02*
X374375Y1762000I21875J0D01*
G01*
X418125Y1762000D01*
G75*
G02*
X440000Y1740125I0J-21875D01*
G01*
G37*
%TD.AperFunction*%
%TA.AperFunction,SMDPad,CuDef*%
G36*
G01*
X1241500Y1307875D02*
X1241500Y1359125D01*
G75*
G02*
X1263375Y1381000I21875J0D01*
G01*
X1307125Y1381000D01*
G75*
G02*
X1329000Y1359125I0J-21875D01*
G01*
X1329000Y1307875D01*
G75*
G02*
X1307125Y1286000I-21875J0D01*
G01*
X1263375Y1286000D01*
G75*
G02*
X1241500Y1307875I0J21875D01*
G01*
G37*
%TD.AperFunction*%
%TA.AperFunction,SMDPad,CuDef*%
G36*
G01*
X1084000Y1307875D02*
X1084000Y1359125D01*
G75*
G02*
X1105875Y1381000I21875J0D01*
G01*
X1149625Y1381000D01*
G75*
G02*
X1171500Y1359125I0J-21875D01*
G01*
X1171500Y1307875D01*
G75*
G02*
X1149625Y1286000I-21875J0D01*
G01*
X1105875Y1286000D01*
G75*
G02*
X1084000Y1307875I0J21875D01*
G01*
G37*
%TD.AperFunction*%
%TA.AperFunction,SMDPad,CuDef*%
G36*
G01*
X1171500Y1549625D02*
X1171500Y1498375D01*
G75*
G02*
X1149625Y1476500I-21875J0D01*
G01*
X1105875Y1476500D01*
G75*
G02*
X1084000Y1498375I0J21875D01*
G01*
X1084000Y1549625D01*
G75*
G02*
X1105875Y1571500I21875J0D01*
G01*
X1149625Y1571500D01*
G75*
G02*
X1171500Y1549625I0J-21875D01*
G01*
G37*
%TD.AperFunction*%
%TA.AperFunction,SMDPad,CuDef*%
G36*
G01*
X1329000Y1549625D02*
X1329000Y1498375D01*
G75*
G02*
X1307125Y1476500I-21875J0D01*
G01*
X1263375Y1476500D01*
G75*
G02*
X1241500Y1498375I0J21875D01*
G01*
X1241500Y1549625D01*
G75*
G02*
X1263375Y1571500I21875J0D01*
G01*
X1307125Y1571500D01*
G75*
G02*
X1329000Y1549625I0J-21875D01*
G01*
G37*
%TD.AperFunction*%
%TA.AperFunction,SMDPad,CuDef*%
G36*
G01*
X352500Y1498375D02*
X352500Y1549625D01*
G75*
G02*
X374375Y1571500I21875J0D01*
G01*
X418125Y1571500D01*
G75*
G02*
X440000Y1549625I0J-21875D01*
G01*
X440000Y1498375D01*
G75*
G02*
X418125Y1476500I-21875J0D01*
G01*
X374375Y1476500D01*
G75*
G02*
X352500Y1498375I0J21875D01*
G01*
G37*
%TD.AperFunction*%
%TA.AperFunction,SMDPad,CuDef*%
G36*
G01*
X195000Y1498375D02*
X195000Y1549625D01*
G75*
G02*
X216875Y1571500I21875J0D01*
G01*
X260625Y1571500D01*
G75*
G02*
X282500Y1549625I0J-21875D01*
G01*
X282500Y1498375D01*
G75*
G02*
X260625Y1476500I-21875J0D01*
G01*
X216875Y1476500D01*
G75*
G02*
X195000Y1498375I0J21875D01*
G01*
G37*
%TD.AperFunction*%
%TA.AperFunction,SMDPad,CuDef*%
G36*
G01*
X282500Y1359125D02*
X282500Y1307875D01*
G75*
G02*
X260625Y1286000I-21875J0D01*
G01*
X216875Y1286000D01*
G75*
G02*
X195000Y1307875I0J21875D01*
G01*
X195000Y1359125D01*
G75*
G02*
X216875Y1381000I21875J0D01*
G01*
X260625Y1381000D01*
G75*
G02*
X282500Y1359125I0J-21875D01*
G01*
G37*
%TD.AperFunction*%
%TA.AperFunction,SMDPad,CuDef*%
G36*
G01*
X440000Y1359125D02*
X440000Y1307875D01*
G75*
G02*
X418125Y1286000I-21875J0D01*
G01*
X374375Y1286000D01*
G75*
G02*
X352500Y1307875I0J21875D01*
G01*
X352500Y1359125D01*
G75*
G02*
X374375Y1381000I21875J0D01*
G01*
X418125Y1381000D01*
G75*
G02*
X440000Y1359125I0J-21875D01*
G01*
G37*
%TD.AperFunction*%
%TA.AperFunction,SMDPad,CuDef*%
G36*
G01*
X727000Y1359125D02*
X727000Y1307875D01*
G75*
G02*
X705125Y1286000I-21875J0D01*
G01*
X661375Y1286000D01*
G75*
G02*
X639500Y1307875I0J21875D01*
G01*
X639500Y1359125D01*
G75*
G02*
X661375Y1381000I21875J0D01*
G01*
X705125Y1381000D01*
G75*
G02*
X727000Y1359125I0J-21875D01*
G01*
G37*
%TD.AperFunction*%
%TA.AperFunction,SMDPad,CuDef*%
G36*
G01*
X884500Y1359125D02*
X884500Y1307875D01*
G75*
G02*
X862625Y1286000I-21875J0D01*
G01*
X818875Y1286000D01*
G75*
G02*
X797000Y1307875I0J21875D01*
G01*
X797000Y1359125D01*
G75*
G02*
X818875Y1381000I21875J0D01*
G01*
X862625Y1381000D01*
G75*
G02*
X884500Y1359125I0J-21875D01*
G01*
G37*
%TD.AperFunction*%
%TA.AperFunction,SMDPad,CuDef*%
G36*
G01*
X1371825Y2511500D02*
X1320575Y2511500D01*
G75*
G02*
X1298700Y2533375I0J21875D01*
G01*
X1298700Y2577125D01*
G75*
G02*
X1320575Y2599000I21875J0D01*
G01*
X1371825Y2599000D01*
G75*
G02*
X1393700Y2577125I0J-21875D01*
G01*
X1393700Y2533375D01*
G75*
G02*
X1371825Y2511500I-21875J0D01*
G01*
G37*
%TD.AperFunction*%
%TA.AperFunction,SMDPad,CuDef*%
G36*
G01*
X1371825Y2354000D02*
X1320575Y2354000D01*
G75*
G02*
X1298700Y2375875I0J21875D01*
G01*
X1298700Y2419625D01*
G75*
G02*
X1320575Y2441500I21875J0D01*
G01*
X1371825Y2441500D01*
G75*
G02*
X1393700Y2419625I0J-21875D01*
G01*
X1393700Y2375875D01*
G75*
G02*
X1371825Y2354000I-21875J0D01*
G01*
G37*
%TD.AperFunction*%
%TA.AperFunction,SMDPad,CuDef*%
G36*
G01*
X925750Y1829500D02*
X990750Y1829500D01*
G75*
G02*
X999500Y1820750I0J-8750D01*
G01*
X999500Y1803250D01*
G75*
G02*
X990750Y1794500I-8750J0D01*
G01*
X925750Y1794500D01*
G75*
G02*
X917000Y1803250I0J8750D01*
G01*
X917000Y1820750D01*
G75*
G02*
X925750Y1829500I8750J0D01*
G01*
G37*
%TD.AperFunction*%
%TA.AperFunction,SMDPad,CuDef*%
G36*
G01*
X925750Y1764500D02*
X990750Y1764500D01*
G75*
G02*
X999500Y1755750I0J-8750D01*
G01*
X999500Y1738250D01*
G75*
G02*
X990750Y1729500I-8750J0D01*
G01*
X925750Y1729500D01*
G75*
G02*
X917000Y1738250I0J8750D01*
G01*
X917000Y1755750D01*
G75*
G02*
X925750Y1764500I8750J0D01*
G01*
G37*
%TD.AperFunction*%
%TA.AperFunction,SMDPad,CuDef*%
G36*
G01*
X925750Y1699500D02*
X990750Y1699500D01*
G75*
G02*
X999500Y1690750I0J-8750D01*
G01*
X999500Y1673250D01*
G75*
G02*
X990750Y1664500I-8750J0D01*
G01*
X925750Y1664500D01*
G75*
G02*
X917000Y1673250I0J8750D01*
G01*
X917000Y1690750D01*
G75*
G02*
X925750Y1699500I8750J0D01*
G01*
G37*
%TD.AperFunction*%
%TA.AperFunction,SMDPad,CuDef*%
G36*
G01*
X925750Y1634500D02*
X990750Y1634500D01*
G75*
G02*
X999500Y1625750I0J-8750D01*
G01*
X999500Y1608250D01*
G75*
G02*
X990750Y1599500I-8750J0D01*
G01*
X925750Y1599500D01*
G75*
G02*
X917000Y1608250I0J8750D01*
G01*
X917000Y1625750D01*
G75*
G02*
X925750Y1634500I8750J0D01*
G01*
G37*
%TD.AperFunction*%
%TA.AperFunction,SMDPad,CuDef*%
G36*
G01*
X850750Y1559500D02*
X868250Y1559500D01*
G75*
G02*
X877000Y1550750I0J-8750D01*
G01*
X877000Y1485750D01*
G75*
G02*
X868250Y1477000I-8750J0D01*
G01*
X850750Y1477000D01*
G75*
G02*
X842000Y1485750I0J8750D01*
G01*
X842000Y1550750D01*
G75*
G02*
X850750Y1559500I8750J0D01*
G01*
G37*
%TD.AperFunction*%
%TA.AperFunction,SMDPad,CuDef*%
G36*
G01*
X785750Y1559500D02*
X803250Y1559500D01*
G75*
G02*
X812000Y1550750I0J-8750D01*
G01*
X812000Y1485750D01*
G75*
G02*
X803250Y1477000I-8750J0D01*
G01*
X785750Y1477000D01*
G75*
G02*
X777000Y1485750I0J8750D01*
G01*
X777000Y1550750D01*
G75*
G02*
X785750Y1559500I8750J0D01*
G01*
G37*
%TD.AperFunction*%
%TA.AperFunction,SMDPad,CuDef*%
G36*
G01*
X720750Y1559500D02*
X738250Y1559500D01*
G75*
G02*
X747000Y1550750I0J-8750D01*
G01*
X747000Y1485750D01*
G75*
G02*
X738250Y1477000I-8750J0D01*
G01*
X720750Y1477000D01*
G75*
G02*
X712000Y1485750I0J8750D01*
G01*
X712000Y1550750D01*
G75*
G02*
X720750Y1559500I8750J0D01*
G01*
G37*
%TD.AperFunction*%
%TA.AperFunction,SMDPad,CuDef*%
G36*
G01*
X655750Y1559500D02*
X673250Y1559500D01*
G75*
G02*
X682000Y1550750I0J-8750D01*
G01*
X682000Y1485750D01*
G75*
G02*
X673250Y1477000I-8750J0D01*
G01*
X655750Y1477000D01*
G75*
G02*
X647000Y1485750I0J8750D01*
G01*
X647000Y1550750D01*
G75*
G02*
X655750Y1559500I8750J0D01*
G01*
G37*
%TD.AperFunction*%
%TA.AperFunction,SMDPad,CuDef*%
G36*
G01*
X533250Y1634500D02*
X598250Y1634500D01*
G75*
G02*
X607000Y1625750I0J-8750D01*
G01*
X607000Y1608250D01*
G75*
G02*
X598250Y1599500I-8750J0D01*
G01*
X533250Y1599500D01*
G75*
G02*
X524500Y1608250I0J8750D01*
G01*
X524500Y1625750D01*
G75*
G02*
X533250Y1634500I8750J0D01*
G01*
G37*
%TD.AperFunction*%
%TA.AperFunction,SMDPad,CuDef*%
G36*
G01*
X533250Y1699500D02*
X598250Y1699500D01*
G75*
G02*
X607000Y1690750I0J-8750D01*
G01*
X607000Y1673250D01*
G75*
G02*
X598250Y1664500I-8750J0D01*
G01*
X533250Y1664500D01*
G75*
G02*
X524500Y1673250I0J8750D01*
G01*
X524500Y1690750D01*
G75*
G02*
X533250Y1699500I8750J0D01*
G01*
G37*
%TD.AperFunction*%
%TA.AperFunction,SMDPad,CuDef*%
G36*
G01*
X533250Y1764500D02*
X598250Y1764500D01*
G75*
G02*
X607000Y1755750I0J-8750D01*
G01*
X607000Y1738250D01*
G75*
G02*
X598250Y1729500I-8750J0D01*
G01*
X533250Y1729500D01*
G75*
G02*
X524500Y1738250I0J8750D01*
G01*
X524500Y1755750D01*
G75*
G02*
X533250Y1764500I8750J0D01*
G01*
G37*
%TD.AperFunction*%
%TA.AperFunction,SMDPad,CuDef*%
G36*
G01*
X533250Y1829500D02*
X598250Y1829500D01*
G75*
G02*
X607000Y1820750I0J-8750D01*
G01*
X607000Y1803250D01*
G75*
G02*
X598250Y1794500I-8750J0D01*
G01*
X533250Y1794500D01*
G75*
G02*
X524500Y1803250I0J8750D01*
G01*
X524500Y1820750D01*
G75*
G02*
X533250Y1829500I8750J0D01*
G01*
G37*
%TD.AperFunction*%
%TA.AperFunction,SMDPad,CuDef*%
G36*
G01*
X655750Y1952000D02*
X673250Y1952000D01*
G75*
G02*
X682000Y1943250I0J-8750D01*
G01*
X682000Y1878250D01*
G75*
G02*
X673250Y1869500I-8750J0D01*
G01*
X655750Y1869500D01*
G75*
G02*
X647000Y1878250I0J8750D01*
G01*
X647000Y1943250D01*
G75*
G02*
X655750Y1952000I8750J0D01*
G01*
G37*
%TD.AperFunction*%
%TA.AperFunction,SMDPad,CuDef*%
G36*
G01*
X720750Y1952000D02*
X738250Y1952000D01*
G75*
G02*
X747000Y1943250I0J-8750D01*
G01*
X747000Y1878250D01*
G75*
G02*
X738250Y1869500I-8750J0D01*
G01*
X720750Y1869500D01*
G75*
G02*
X712000Y1878250I0J8750D01*
G01*
X712000Y1943250D01*
G75*
G02*
X720750Y1952000I8750J0D01*
G01*
G37*
%TD.AperFunction*%
%TA.AperFunction,SMDPad,CuDef*%
G36*
G01*
X785750Y1952000D02*
X803250Y1952000D01*
G75*
G02*
X812000Y1943250I0J-8750D01*
G01*
X812000Y1878250D01*
G75*
G02*
X803250Y1869500I-8750J0D01*
G01*
X785750Y1869500D01*
G75*
G02*
X777000Y1878250I0J8750D01*
G01*
X777000Y1943250D01*
G75*
G02*
X785750Y1952000I8750J0D01*
G01*
G37*
%TD.AperFunction*%
%TA.AperFunction,SMDPad,CuDef*%
G36*
G01*
X850750Y1952000D02*
X868250Y1952000D01*
G75*
G02*
X877000Y1943250I0J-8750D01*
G01*
X877000Y1878250D01*
G75*
G02*
X868250Y1869500I-8750J0D01*
G01*
X850750Y1869500D01*
G75*
G02*
X842000Y1878250I0J8750D01*
G01*
X842000Y1943250D01*
G75*
G02*
X850750Y1952000I8750J0D01*
G01*
G37*
%TD.AperFunction*%
D15*
X652000Y1604500D03*
X652000Y1714500D03*
X652000Y1824500D03*
X762000Y1604500D03*
X762000Y1714500D03*
X762000Y1824500D03*
X872000Y1604500D03*
X872000Y1714500D03*
X872000Y1824500D03*
%TA.AperFunction,SMDPad,CuDef*%
G36*
G01*
X652000Y1849500D02*
X872000Y1849500D01*
G75*
G02*
X897000Y1824500I0J-25000D01*
G01*
X897000Y1604500D01*
G75*
G02*
X872000Y1579500I-25000J0D01*
G01*
X652000Y1579500D01*
G75*
G02*
X627000Y1604500I0J25000D01*
G01*
X627000Y1824500D01*
G75*
G02*
X652000Y1849500I25000J0D01*
G01*
G37*
%TD.AperFunction*%
D16*
X1189500Y2571500D03*
X1189500Y2381500D03*
X969500Y2381500D03*
X969500Y2476500D03*
X969500Y2571500D03*
D17*
X254000Y635000D03*
%TA.AperFunction,SMDPad,CuDef*%
D18*
G36*
X328940Y505000D02*
G01*
X328940Y502547D01*
X328459Y497663D01*
X327502Y492851D01*
X326077Y488155D01*
X324200Y483622D01*
X321886Y479295D01*
X319160Y475215D01*
X316048Y471422D01*
X312578Y467952D01*
X308785Y464840D01*
X304705Y462114D01*
X300378Y459800D01*
X295845Y457923D01*
X291149Y456498D01*
X286337Y455541D01*
X281453Y455060D01*
X279000Y455060D01*
X279000Y455000D01*
X229000Y455000D01*
X229000Y455060D01*
X226547Y455060D01*
X221663Y455541D01*
X216851Y456498D01*
X212155Y457923D01*
X207622Y459800D01*
X203295Y462114D01*
X199215Y464840D01*
X195422Y467952D01*
X191952Y471422D01*
X188840Y475215D01*
X186114Y479295D01*
X183800Y483622D01*
X181923Y488155D01*
X180498Y492851D01*
X179541Y497663D01*
X179060Y502547D01*
X179060Y505000D01*
X179000Y505000D01*
X179000Y560000D01*
X329000Y560000D01*
X329000Y505000D01*
X328940Y505000D01*
G37*
%TD.AperFunction*%
%TA.AperFunction,SMDPad,CuDef*%
G36*
X179000Y710000D02*
G01*
X179000Y765000D01*
X179060Y765000D01*
X179060Y767453D01*
X179541Y772336D01*
X180498Y777149D01*
X181923Y781844D01*
X183800Y786378D01*
X186114Y790705D01*
X188840Y794785D01*
X191952Y798578D01*
X195422Y802048D01*
X199215Y805160D01*
X203295Y807886D01*
X207622Y810199D01*
X212155Y812077D01*
X216851Y813502D01*
X221663Y814459D01*
X226547Y814940D01*
X229000Y814940D01*
X229000Y815000D01*
X279000Y815000D01*
X279000Y814940D01*
X281453Y814940D01*
X286337Y814459D01*
X291149Y813502D01*
X295845Y812077D01*
X300378Y810199D01*
X304705Y807886D01*
X308785Y805160D01*
X312578Y802048D01*
X316048Y798578D01*
X319160Y794785D01*
X321886Y790705D01*
X324200Y786378D01*
X326077Y781844D01*
X327502Y777149D01*
X328459Y772336D01*
X328940Y767453D01*
X328940Y765000D01*
X329000Y765000D01*
X329000Y710000D01*
X179000Y710000D01*
G37*
%TD.AperFunction*%
%TA.AperFunction,SMDPad,CuDef*%
G36*
G01*
X1022000Y-54000D02*
X1022000Y236000D01*
G75*
G02*
X1047000Y261000I25000J0D01*
G01*
X1147000Y261000D01*
G75*
G02*
X1172000Y236000I0J-25000D01*
G01*
X1172000Y-54000D01*
G75*
G02*
X1147000Y-79000I-25000J0D01*
G01*
X1047000Y-79000D01*
G75*
G02*
X1022000Y-54000I0J25000D01*
G01*
G37*
%TD.AperFunction*%
%TA.AperFunction,SMDPad,CuDef*%
G36*
G01*
X352000Y-54000D02*
X352000Y236000D01*
G75*
G02*
X377000Y261000I25000J0D01*
G01*
X477000Y261000D01*
G75*
G02*
X502000Y236000I0J-25000D01*
G01*
X502000Y-54000D01*
G75*
G02*
X477000Y-79000I-25000J0D01*
G01*
X377000Y-79000D01*
G75*
G02*
X352000Y-54000I0J25000D01*
G01*
G37*
%TD.AperFunction*%
%TA.AperFunction,SMDPad,CuDef*%
G36*
G01*
X812000Y516000D02*
X812000Y816000D01*
G75*
G02*
X837000Y841000I25000J0D01*
G01*
X887000Y841000D01*
G75*
G02*
X912000Y816000I0J-25000D01*
G01*
X912000Y516000D01*
G75*
G02*
X887000Y491000I-25000J0D01*
G01*
X837000Y491000D01*
G75*
G02*
X812000Y516000I0J25000D01*
G01*
G37*
%TD.AperFunction*%
%TA.AperFunction,SMDPad,CuDef*%
G36*
G01*
X612000Y516000D02*
X612000Y816000D01*
G75*
G02*
X637000Y841000I25000J0D01*
G01*
X687000Y841000D01*
G75*
G02*
X712000Y816000I0J-25000D01*
G01*
X712000Y516000D01*
G75*
G02*
X687000Y491000I-25000J0D01*
G01*
X637000Y491000D01*
G75*
G02*
X612000Y516000I0J25000D01*
G01*
G37*
%TD.AperFunction*%
%TA.AperFunction,SMDPad,CuDef*%
G36*
G01*
X216125Y1114500D02*
X164875Y1114500D01*
G75*
G02*
X143000Y1136375I0J21875D01*
G01*
X143000Y1180125D01*
G75*
G02*
X164875Y1202000I21875J0D01*
G01*
X216125Y1202000D01*
G75*
G02*
X238000Y1180125I0J-21875D01*
G01*
X238000Y1136375D01*
G75*
G02*
X216125Y1114500I-21875J0D01*
G01*
G37*
%TD.AperFunction*%
%TA.AperFunction,SMDPad,CuDef*%
G36*
G01*
X216125Y957000D02*
X164875Y957000D01*
G75*
G02*
X143000Y978875I0J21875D01*
G01*
X143000Y1022625D01*
G75*
G02*
X164875Y1044500I21875J0D01*
G01*
X216125Y1044500D01*
G75*
G02*
X238000Y1022625I0J-21875D01*
G01*
X238000Y978875D01*
G75*
G02*
X216125Y957000I-21875J0D01*
G01*
G37*
%TD.AperFunction*%
%TA.AperFunction,SMDPad,CuDef*%
G36*
G01*
X355375Y1044500D02*
X406625Y1044500D01*
G75*
G02*
X428500Y1022625I0J-21875D01*
G01*
X428500Y978875D01*
G75*
G02*
X406625Y957000I-21875J0D01*
G01*
X355375Y957000D01*
G75*
G02*
X333500Y978875I0J21875D01*
G01*
X333500Y1022625D01*
G75*
G02*
X355375Y1044500I21875J0D01*
G01*
G37*
%TD.AperFunction*%
%TA.AperFunction,SMDPad,CuDef*%
G36*
G01*
X355375Y1202000D02*
X406625Y1202000D01*
G75*
G02*
X428500Y1180125I0J-21875D01*
G01*
X428500Y1136375D01*
G75*
G02*
X406625Y1114500I-21875J0D01*
G01*
X355375Y1114500D01*
G75*
G02*
X333500Y1136375I0J21875D01*
G01*
X333500Y1180125D01*
G75*
G02*
X355375Y1202000I21875J0D01*
G01*
G37*
%TD.AperFunction*%
%TA.AperFunction,SMDPad,CuDef*%
G36*
G01*
X1168625Y1114500D02*
X1117375Y1114500D01*
G75*
G02*
X1095500Y1136375I0J21875D01*
G01*
X1095500Y1180125D01*
G75*
G02*
X1117375Y1202000I21875J0D01*
G01*
X1168625Y1202000D01*
G75*
G02*
X1190500Y1180125I0J-21875D01*
G01*
X1190500Y1136375D01*
G75*
G02*
X1168625Y1114500I-21875J0D01*
G01*
G37*
%TD.AperFunction*%
%TA.AperFunction,SMDPad,CuDef*%
G36*
G01*
X1168625Y957000D02*
X1117375Y957000D01*
G75*
G02*
X1095500Y978875I0J21875D01*
G01*
X1095500Y1022625D01*
G75*
G02*
X1117375Y1044500I21875J0D01*
G01*
X1168625Y1044500D01*
G75*
G02*
X1190500Y1022625I0J-21875D01*
G01*
X1190500Y978875D01*
G75*
G02*
X1168625Y957000I-21875J0D01*
G01*
G37*
%TD.AperFunction*%
%TA.AperFunction,SMDPad,CuDef*%
G36*
G01*
X787625Y1114500D02*
X736375Y1114500D01*
G75*
G02*
X714500Y1136375I0J21875D01*
G01*
X714500Y1180125D01*
G75*
G02*
X736375Y1202000I21875J0D01*
G01*
X787625Y1202000D01*
G75*
G02*
X809500Y1180125I0J-21875D01*
G01*
X809500Y1136375D01*
G75*
G02*
X787625Y1114500I-21875J0D01*
G01*
G37*
%TD.AperFunction*%
%TA.AperFunction,SMDPad,CuDef*%
G36*
G01*
X787625Y957000D02*
X736375Y957000D01*
G75*
G02*
X714500Y978875I0J21875D01*
G01*
X714500Y1022625D01*
G75*
G02*
X736375Y1044500I21875J0D01*
G01*
X787625Y1044500D01*
G75*
G02*
X809500Y1022625I0J-21875D01*
G01*
X809500Y978875D01*
G75*
G02*
X787625Y957000I-21875J0D01*
G01*
G37*
%TD.AperFunction*%
%TA.AperFunction,SMDPad,CuDef*%
G36*
G01*
X978125Y1114500D02*
X926875Y1114500D01*
G75*
G02*
X905000Y1136375I0J21875D01*
G01*
X905000Y1180125D01*
G75*
G02*
X926875Y1202000I21875J0D01*
G01*
X978125Y1202000D01*
G75*
G02*
X1000000Y1180125I0J-21875D01*
G01*
X1000000Y1136375D01*
G75*
G02*
X978125Y1114500I-21875J0D01*
G01*
G37*
%TD.AperFunction*%
%TA.AperFunction,SMDPad,CuDef*%
G36*
G01*
X978125Y957000D02*
X926875Y957000D01*
G75*
G02*
X905000Y978875I0J21875D01*
G01*
X905000Y1022625D01*
G75*
G02*
X926875Y1044500I21875J0D01*
G01*
X978125Y1044500D01*
G75*
G02*
X1000000Y1022625I0J-21875D01*
G01*
X1000000Y978875D01*
G75*
G02*
X978125Y957000I-21875J0D01*
G01*
G37*
%TD.AperFunction*%
%TA.AperFunction,SMDPad,CuDef*%
G36*
G01*
X1307875Y1044500D02*
X1359125Y1044500D01*
G75*
G02*
X1381000Y1022625I0J-21875D01*
G01*
X1381000Y978875D01*
G75*
G02*
X1359125Y957000I-21875J0D01*
G01*
X1307875Y957000D01*
G75*
G02*
X1286000Y978875I0J21875D01*
G01*
X1286000Y1022625D01*
G75*
G02*
X1307875Y1044500I21875J0D01*
G01*
G37*
%TD.AperFunction*%
%TA.AperFunction,SMDPad,CuDef*%
G36*
G01*
X1307875Y1202000D02*
X1359125Y1202000D01*
G75*
G02*
X1381000Y1180125I0J-21875D01*
G01*
X1381000Y1136375D01*
G75*
G02*
X1359125Y1114500I-21875J0D01*
G01*
X1307875Y1114500D01*
G75*
G02*
X1286000Y1136375I0J21875D01*
G01*
X1286000Y1180125D01*
G75*
G02*
X1307875Y1202000I21875J0D01*
G01*
G37*
%TD.AperFunction*%
D15*
X444500Y635000D03*
X406400Y838200D03*
X292100Y914400D03*
X88900Y2159000D03*
D19*
X774700Y1250950D03*
D15*
X546100Y736600D03*
X285750Y1079500D03*
X1238250Y1073150D03*
X889000Y0D03*
X698500Y0D03*
X698500Y254000D03*
X1270000Y0D03*
X254000Y254000D03*
X254000Y0D03*
X939800Y1536700D03*
X1206500Y1435100D03*
X1041400Y508000D03*
X1041400Y762000D03*
X571500Y1905000D03*
X571500Y2006600D03*
X139700Y2413000D03*
X1422400Y1905000D03*
X1422400Y1651000D03*
X88900Y1651000D03*
X88900Y1905000D03*
X889000Y254000D03*
X939800Y1308100D03*
X1447800Y1143000D03*
X1244600Y508000D03*
X1244600Y762000D03*
X520700Y2413000D03*
X520700Y2540000D03*
X520700Y2286000D03*
X1422400Y1397000D03*
X977900Y1473200D03*
X914400Y2070100D03*
X1079500Y2476500D03*
X1206500Y2476500D03*
X1447800Y2159000D03*
X1460500Y2413000D03*
X914400Y2184400D03*
X1117600Y2070100D03*
X164123Y862623D03*
D20*
X1123950Y1809750D03*
X1206500Y1619250D03*
D15*
X1047750Y1000750D03*
D20*
X1003300Y2120900D03*
D15*
X660400Y685800D03*
X241300Y2133600D03*
X317500Y2133600D03*
X569987Y1484387D03*
X476250Y1155700D03*
X241300Y1809750D03*
X495300Y1485900D03*
X234950Y1619250D03*
X495300Y1333500D03*
X571500Y1333500D03*
X393700Y2133600D03*
X661416Y787400D03*
X661924Y584200D03*
X969500Y2269000D03*
D21*
X762000Y1158250D02*
X765320Y1154930D01*
X949180Y1154930D02*
X952500Y1158250D01*
X765320Y1154930D02*
X949180Y1154930D01*
D22*
X1346200Y2555250D02*
X1267450Y2555250D01*
X1189500Y2571500D02*
X1251200Y2571500D01*
X1251200Y2571500D02*
X1267450Y2555250D01*
D23*
X664500Y1464600D02*
X619750Y1419850D01*
X664500Y1518250D02*
X664500Y1464600D01*
X238750Y1419850D02*
X619750Y1419850D01*
X238750Y1419850D02*
X238750Y1524000D01*
X238750Y1333500D02*
X238750Y1419850D01*
D22*
X1333500Y190500D02*
X1524000Y0D01*
X1130300Y393700D02*
X1333500Y190500D01*
X838200Y393700D02*
X1130300Y393700D01*
X762000Y469900D02*
X838200Y393700D01*
X762000Y1000750D02*
X762000Y469900D01*
D23*
X254000Y635000D02*
X149000Y635000D01*
X149000Y635000D02*
X127400Y656600D01*
X127400Y656600D02*
X127400Y825900D01*
X139123Y837623D02*
X164123Y862623D01*
X127400Y825900D02*
X139123Y837623D01*
X1054100Y1524000D02*
X1035050Y1543050D01*
X1010400Y1682000D02*
X958250Y1682000D01*
X1035050Y1657350D02*
X1010400Y1682000D01*
X1035050Y1543050D02*
X1035050Y1657350D01*
X1127750Y1524000D02*
X1054100Y1524000D01*
X1127750Y1524000D02*
X1127750Y1333500D01*
X190500Y1000750D02*
X333500Y1000750D01*
X254000Y825000D02*
X254000Y765000D01*
X254000Y857600D02*
X254000Y825000D01*
X190500Y1000750D02*
X190500Y921100D01*
X190500Y921100D02*
X254000Y857600D01*
D22*
X1143000Y1000750D02*
X1051550Y1000750D01*
X952500Y1000750D02*
X1043950Y1000750D01*
X1143000Y1000750D02*
X1229350Y1000750D01*
X1333500Y1000750D02*
X1242050Y1000750D01*
X1242050Y1000750D02*
X1229350Y1000750D01*
X1051550Y1000750D02*
X1043950Y1000750D01*
X1189500Y2307100D02*
X1033300Y2150900D01*
X1189500Y2381500D02*
X1189500Y2307100D01*
X1033300Y2150900D02*
X1003300Y2120900D01*
D24*
X969500Y2381500D02*
X969500Y2269000D01*
D23*
X352600Y505000D02*
X254000Y505000D01*
X859500Y1518250D02*
X859500Y1464600D01*
X1041400Y1219200D02*
X1041400Y1117600D01*
X914400Y1409700D02*
X939800Y1409700D01*
X368300Y660400D02*
X368300Y520700D01*
X939800Y1409700D02*
X1003300Y1346200D01*
X1003300Y1257300D02*
X1041400Y1219200D01*
X1003300Y1346200D02*
X1003300Y1257300D01*
X368300Y520700D02*
X352600Y505000D01*
X859500Y1464600D02*
X914400Y1409700D01*
X1041400Y1117600D02*
X1003300Y1079500D01*
X1003300Y1079500D02*
X698500Y1079500D01*
X698500Y1079500D02*
X660400Y1041400D01*
X660400Y1041400D02*
X660400Y952500D01*
X660400Y952500D02*
X368300Y660400D01*
X840750Y1394450D02*
X840750Y1333500D01*
X794500Y1440700D02*
X840750Y1394450D01*
X794500Y1518250D02*
X794500Y1440700D01*
D25*
G36*
X1473080Y2635265D02*
G01*
X1455473Y2623501D01*
X1440499Y2608527D01*
X1428735Y2590920D01*
X1421333Y2573051D01*
X1421333Y2577125D01*
X1420382Y2586784D01*
X1417564Y2596071D01*
X1412989Y2604630D01*
X1406832Y2612132D01*
X1399330Y2618289D01*
X1390771Y2622864D01*
X1381484Y2625682D01*
X1371825Y2626633D01*
X1320575Y2626633D01*
X1310917Y2625682D01*
X1301629Y2622864D01*
X1293070Y2618289D01*
X1285568Y2612132D01*
X1281944Y2607717D01*
X1277717Y2611186D01*
X1269465Y2615597D01*
X1267100Y2616314D01*
X1265476Y2619352D01*
X1262040Y2623540D01*
X1257852Y2626976D01*
X1253075Y2629530D01*
X1247891Y2631102D01*
X1242500Y2631633D01*
X1136500Y2631633D01*
X1131109Y2631102D01*
X1125925Y2629530D01*
X1121148Y2626976D01*
X1116961Y2623540D01*
X1113524Y2619352D01*
X1110970Y2614575D01*
X1109398Y2609391D01*
X1108867Y2604000D01*
X1108867Y2539000D01*
X1109398Y2533609D01*
X1110970Y2528425D01*
X1113524Y2523648D01*
X1116961Y2519461D01*
X1121148Y2516024D01*
X1125925Y2513470D01*
X1131109Y2511898D01*
X1136500Y2511367D01*
X1242500Y2511367D01*
X1247807Y2511890D01*
X1249185Y2511153D01*
X1256283Y2509000D01*
X1258138Y2508437D01*
X1267450Y2507520D01*
X1269783Y2507750D01*
X1278406Y2507750D01*
X1279411Y2505870D01*
X1285568Y2498368D01*
X1293070Y2492211D01*
X1301629Y2487636D01*
X1310917Y2484818D01*
X1320575Y2483867D01*
X1371825Y2483867D01*
X1381484Y2484818D01*
X1390771Y2487636D01*
X1399330Y2492211D01*
X1406832Y2498368D01*
X1412989Y2505870D01*
X1417564Y2514429D01*
X1418722Y2518244D01*
X1420631Y2508643D01*
X1428735Y2489080D01*
X1440499Y2471473D01*
X1455473Y2456499D01*
X1473080Y2444735D01*
X1492643Y2436631D01*
X1513412Y2432500D01*
X1534588Y2432500D01*
X1555357Y2436631D01*
X1574920Y2444735D01*
X1592527Y2456499D01*
X1607501Y2471473D01*
X1619265Y2489080D01*
X1623500Y2499303D01*
X1623500Y2326697D01*
X1619265Y2336920D01*
X1607501Y2354527D01*
X1592527Y2369501D01*
X1574920Y2381265D01*
X1555357Y2389369D01*
X1534588Y2393500D01*
X1513412Y2393500D01*
X1492643Y2389369D01*
X1473080Y2381265D01*
X1455473Y2369501D01*
X1440499Y2354527D01*
X1428735Y2336920D01*
X1420631Y2317357D01*
X1416500Y2296588D01*
X1416500Y2275412D01*
X1420631Y2254643D01*
X1428735Y2235080D01*
X1440499Y2217473D01*
X1455473Y2202499D01*
X1473080Y2190735D01*
X1492643Y2182631D01*
X1513412Y2178500D01*
X1534588Y2178500D01*
X1555357Y2182631D01*
X1574920Y2190735D01*
X1592527Y2202499D01*
X1607501Y2217473D01*
X1619265Y2235080D01*
X1623500Y2245303D01*
X1623500Y2072697D01*
X1619265Y2082920D01*
X1607501Y2100527D01*
X1592527Y2115501D01*
X1574920Y2127265D01*
X1555357Y2135369D01*
X1534588Y2139500D01*
X1513412Y2139500D01*
X1492643Y2135369D01*
X1473080Y2127265D01*
X1455473Y2115501D01*
X1440499Y2100527D01*
X1428735Y2082920D01*
X1420631Y2063357D01*
X1416500Y2042588D01*
X1416500Y2021412D01*
X1420631Y2000643D01*
X1428735Y1981080D01*
X1440499Y1963473D01*
X1455473Y1948499D01*
X1473080Y1936735D01*
X1492643Y1928631D01*
X1513412Y1924500D01*
X1534588Y1924500D01*
X1555357Y1928631D01*
X1574920Y1936735D01*
X1592527Y1948499D01*
X1607501Y1963473D01*
X1619265Y1981080D01*
X1623500Y1991303D01*
X1623500Y1818697D01*
X1619265Y1828920D01*
X1607501Y1846527D01*
X1592527Y1861501D01*
X1574920Y1873265D01*
X1555357Y1881369D01*
X1534588Y1885500D01*
X1513412Y1885500D01*
X1492643Y1881369D01*
X1473080Y1873265D01*
X1455473Y1861501D01*
X1440499Y1846527D01*
X1428735Y1828920D01*
X1420631Y1809357D01*
X1416500Y1788588D01*
X1416500Y1767412D01*
X1420631Y1746643D01*
X1428735Y1727080D01*
X1440499Y1709473D01*
X1455473Y1694499D01*
X1473080Y1682735D01*
X1492643Y1674631D01*
X1513412Y1670500D01*
X1534588Y1670500D01*
X1555357Y1674631D01*
X1574920Y1682735D01*
X1592527Y1694499D01*
X1607501Y1709473D01*
X1619265Y1727080D01*
X1623500Y1737303D01*
X1623500Y1564697D01*
X1619265Y1574920D01*
X1607501Y1592527D01*
X1592527Y1607501D01*
X1574920Y1619265D01*
X1555357Y1627369D01*
X1534588Y1631500D01*
X1513412Y1631500D01*
X1492643Y1627369D01*
X1473080Y1619265D01*
X1455473Y1607501D01*
X1440499Y1592527D01*
X1428735Y1574920D01*
X1420631Y1555357D01*
X1416500Y1534588D01*
X1416500Y1513412D01*
X1420631Y1492643D01*
X1428735Y1473080D01*
X1440499Y1455473D01*
X1455473Y1440499D01*
X1473080Y1428735D01*
X1492643Y1420631D01*
X1513412Y1416500D01*
X1534588Y1416500D01*
X1555357Y1420631D01*
X1574920Y1428735D01*
X1592527Y1440499D01*
X1607501Y1455473D01*
X1619265Y1473080D01*
X1623500Y1483303D01*
X1623500Y1310697D01*
X1619265Y1320920D01*
X1607501Y1338527D01*
X1592527Y1353501D01*
X1574920Y1365265D01*
X1555357Y1373369D01*
X1534588Y1377500D01*
X1513412Y1377500D01*
X1492643Y1373369D01*
X1473080Y1365265D01*
X1455473Y1353501D01*
X1440499Y1338527D01*
X1428735Y1320920D01*
X1420631Y1301357D01*
X1416500Y1280588D01*
X1416500Y1259412D01*
X1420631Y1238643D01*
X1428735Y1219080D01*
X1440499Y1201473D01*
X1455473Y1186499D01*
X1473080Y1174735D01*
X1492643Y1166631D01*
X1513412Y1162500D01*
X1534588Y1162500D01*
X1555357Y1166631D01*
X1574920Y1174735D01*
X1592527Y1186499D01*
X1607501Y1201473D01*
X1619265Y1219080D01*
X1623500Y1229304D01*
X1623500Y1056697D01*
X1619265Y1066920D01*
X1607501Y1084527D01*
X1592527Y1099501D01*
X1574920Y1111265D01*
X1555357Y1119369D01*
X1534588Y1123500D01*
X1513412Y1123500D01*
X1492643Y1119369D01*
X1473080Y1111265D01*
X1455473Y1099501D01*
X1440499Y1084527D01*
X1428735Y1066920D01*
X1420631Y1047357D01*
X1416500Y1026588D01*
X1416500Y1005412D01*
X1420631Y984643D01*
X1428735Y965080D01*
X1440499Y947473D01*
X1455473Y932499D01*
X1473080Y920735D01*
X1492643Y912631D01*
X1513412Y908500D01*
X1534588Y908500D01*
X1555357Y912631D01*
X1574920Y920735D01*
X1592527Y932499D01*
X1607501Y947473D01*
X1619265Y965080D01*
X1623500Y975303D01*
X1623500Y802696D01*
X1619265Y812920D01*
X1607501Y830527D01*
X1592527Y845501D01*
X1574920Y857265D01*
X1555357Y865369D01*
X1534588Y869500D01*
X1513412Y869500D01*
X1492643Y865369D01*
X1473080Y857265D01*
X1455473Y845501D01*
X1440499Y830527D01*
X1428735Y812920D01*
X1420631Y793357D01*
X1416500Y772588D01*
X1416500Y751412D01*
X1420631Y730643D01*
X1428735Y711080D01*
X1440499Y693473D01*
X1455473Y678499D01*
X1473080Y666735D01*
X1492643Y658631D01*
X1513412Y654500D01*
X1534588Y654500D01*
X1555357Y658631D01*
X1574920Y666735D01*
X1592527Y678499D01*
X1607501Y693473D01*
X1619265Y711080D01*
X1623500Y721303D01*
X1623500Y548697D01*
X1619265Y558920D01*
X1607501Y576527D01*
X1592527Y591501D01*
X1574920Y603265D01*
X1555357Y611369D01*
X1534588Y615500D01*
X1513412Y615500D01*
X1492643Y611369D01*
X1473080Y603265D01*
X1455473Y591501D01*
X1440499Y576527D01*
X1428735Y558920D01*
X1420631Y539357D01*
X1416500Y518588D01*
X1416500Y497412D01*
X1420631Y476643D01*
X1428735Y457080D01*
X1440499Y439473D01*
X1455473Y424499D01*
X1473080Y412735D01*
X1492643Y404631D01*
X1513412Y400500D01*
X1534588Y400500D01*
X1555357Y404631D01*
X1574920Y412735D01*
X1592527Y424499D01*
X1607501Y439473D01*
X1619265Y457080D01*
X1623500Y467303D01*
X1623500Y293493D01*
X1617727Y306646D01*
X1605655Y323920D01*
X1590446Y338506D01*
X1572683Y349845D01*
X1553049Y357501D01*
X1536500Y353896D01*
X1536500Y266500D01*
X1538500Y266500D01*
X1538500Y241500D01*
X1536500Y241500D01*
X1536500Y154104D01*
X1553049Y150499D01*
X1572683Y158155D01*
X1590446Y169494D01*
X1605655Y184080D01*
X1617727Y201354D01*
X1623500Y214507D01*
X1623500Y40696D01*
X1619265Y50920D01*
X1607501Y68527D01*
X1592527Y83501D01*
X1574920Y95265D01*
X1555357Y103369D01*
X1534588Y107500D01*
X1513412Y107500D01*
X1492643Y103369D01*
X1489223Y101952D01*
X1368738Y222437D01*
X1368737Y222438D01*
X1366224Y224951D01*
X1420499Y224951D01*
X1421803Y220651D01*
X1430273Y201354D01*
X1442344Y184080D01*
X1457554Y169494D01*
X1475317Y158155D01*
X1494951Y150499D01*
X1511500Y154104D01*
X1511500Y241500D01*
X1424154Y241500D01*
X1420499Y224951D01*
X1366224Y224951D01*
X1308126Y283049D01*
X1420499Y283049D01*
X1424154Y266500D01*
X1511500Y266500D01*
X1511500Y353896D01*
X1494951Y357501D01*
X1475317Y349845D01*
X1457554Y338506D01*
X1442344Y323920D01*
X1430273Y306646D01*
X1421803Y287349D01*
X1420499Y283049D01*
X1308126Y283049D01*
X1165538Y425637D01*
X1164050Y427450D01*
X1156817Y433386D01*
X1148565Y437797D01*
X1139612Y440513D01*
X1132633Y441200D01*
X1130300Y441430D01*
X1127967Y441200D01*
X857875Y441200D01*
X835606Y463469D01*
X842625Y463500D01*
X849500Y470375D01*
X849500Y653500D01*
X874500Y653500D01*
X874500Y470375D01*
X881375Y463500D01*
X912000Y463367D01*
X917391Y463898D01*
X922575Y465470D01*
X927352Y468024D01*
X931540Y471460D01*
X934976Y475648D01*
X937530Y480425D01*
X939102Y485609D01*
X939633Y491000D01*
X939500Y646625D01*
X932625Y653500D01*
X874500Y653500D01*
X849500Y653500D01*
X847500Y653500D01*
X847500Y678500D01*
X849500Y678500D01*
X849500Y861625D01*
X874500Y861625D01*
X874500Y678500D01*
X932625Y678500D01*
X939500Y685375D01*
X939633Y841000D01*
X939102Y846391D01*
X937530Y851575D01*
X934976Y856352D01*
X931540Y860540D01*
X927352Y863976D01*
X922575Y866530D01*
X917391Y868102D01*
X912000Y868633D01*
X881375Y868500D01*
X874500Y861625D01*
X849500Y861625D01*
X842625Y868500D01*
X812000Y868633D01*
X809500Y868387D01*
X809500Y934701D01*
X815130Y937711D01*
X822632Y943868D01*
X828789Y951370D01*
X833364Y959929D01*
X836182Y969216D01*
X837133Y978875D01*
X837133Y1022625D01*
X836182Y1032283D01*
X834751Y1037000D01*
X879749Y1037000D01*
X878318Y1032283D01*
X877367Y1022625D01*
X877367Y978875D01*
X878318Y969216D01*
X881136Y959929D01*
X885711Y951370D01*
X891868Y943868D01*
X899370Y937711D01*
X907929Y933136D01*
X917216Y930318D01*
X926875Y929367D01*
X978125Y929367D01*
X987783Y930318D01*
X997071Y933136D01*
X1005630Y937711D01*
X1013132Y943868D01*
X1019289Y951370D01*
X1020294Y953250D01*
X1025236Y953250D01*
X1032436Y950268D01*
X1042579Y948250D01*
X1052921Y948250D01*
X1063064Y950268D01*
X1070264Y953250D01*
X1075206Y953250D01*
X1076211Y951370D01*
X1082368Y943868D01*
X1089870Y937711D01*
X1098429Y933136D01*
X1107717Y930318D01*
X1117375Y929367D01*
X1168625Y929367D01*
X1178284Y930318D01*
X1187571Y933136D01*
X1196130Y937711D01*
X1203632Y943868D01*
X1209789Y951370D01*
X1210794Y953250D01*
X1265706Y953250D01*
X1266711Y951370D01*
X1272868Y943868D01*
X1280370Y937711D01*
X1288929Y933136D01*
X1298217Y930318D01*
X1307875Y929367D01*
X1359125Y929367D01*
X1368784Y930318D01*
X1378071Y933136D01*
X1386630Y937711D01*
X1394132Y943868D01*
X1400289Y951370D01*
X1404864Y959929D01*
X1407682Y969216D01*
X1408633Y978875D01*
X1408633Y1022625D01*
X1407682Y1032283D01*
X1404864Y1041571D01*
X1400289Y1050130D01*
X1394132Y1057632D01*
X1386630Y1063789D01*
X1378071Y1068364D01*
X1368784Y1071182D01*
X1359125Y1072133D01*
X1307875Y1072133D01*
X1298217Y1071182D01*
X1288929Y1068364D01*
X1280370Y1063789D01*
X1272868Y1057632D01*
X1266711Y1050130D01*
X1265706Y1048250D01*
X1210794Y1048250D01*
X1209789Y1050130D01*
X1203632Y1057632D01*
X1196130Y1063789D01*
X1187571Y1068364D01*
X1178284Y1071182D01*
X1168625Y1072133D01*
X1117375Y1072133D01*
X1107717Y1071182D01*
X1098429Y1068364D01*
X1089870Y1063789D01*
X1082368Y1057632D01*
X1076211Y1050130D01*
X1075206Y1048250D01*
X1070264Y1048250D01*
X1063064Y1051232D01*
X1052921Y1053250D01*
X1042579Y1053250D01*
X1035807Y1051903D01*
X1069976Y1086072D01*
X1071597Y1087403D01*
X1076908Y1093874D01*
X1077023Y1094088D01*
X1080148Y1091524D01*
X1084925Y1088970D01*
X1090109Y1087398D01*
X1095500Y1086867D01*
X1123625Y1087000D01*
X1130500Y1093875D01*
X1130500Y1145750D01*
X1155500Y1145750D01*
X1155500Y1093875D01*
X1162375Y1087000D01*
X1190500Y1086867D01*
X1195891Y1087398D01*
X1201075Y1088970D01*
X1205852Y1091524D01*
X1210040Y1094960D01*
X1213476Y1099148D01*
X1216030Y1103925D01*
X1217602Y1109109D01*
X1218133Y1114500D01*
X1258367Y1114500D01*
X1258898Y1109109D01*
X1260470Y1103925D01*
X1263024Y1099148D01*
X1266460Y1094960D01*
X1270648Y1091524D01*
X1275425Y1088970D01*
X1280609Y1087398D01*
X1286000Y1086867D01*
X1314125Y1087000D01*
X1321000Y1093875D01*
X1321000Y1145750D01*
X1346000Y1145750D01*
X1346000Y1093875D01*
X1352875Y1087000D01*
X1381000Y1086867D01*
X1386391Y1087398D01*
X1391575Y1088970D01*
X1396352Y1091524D01*
X1400540Y1094960D01*
X1403976Y1099148D01*
X1406530Y1103925D01*
X1408102Y1109109D01*
X1408633Y1114500D01*
X1408500Y1138875D01*
X1401625Y1145750D01*
X1346000Y1145750D01*
X1321000Y1145750D01*
X1265375Y1145750D01*
X1258500Y1138875D01*
X1258367Y1114500D01*
X1218133Y1114500D01*
X1218000Y1138875D01*
X1211125Y1145750D01*
X1155500Y1145750D01*
X1130500Y1145750D01*
X1128500Y1145750D01*
X1128500Y1170750D01*
X1130500Y1170750D01*
X1130500Y1222625D01*
X1155500Y1222625D01*
X1155500Y1170750D01*
X1211125Y1170750D01*
X1218000Y1177625D01*
X1218133Y1202000D01*
X1258367Y1202000D01*
X1258500Y1177625D01*
X1265375Y1170750D01*
X1321000Y1170750D01*
X1321000Y1222625D01*
X1346000Y1222625D01*
X1346000Y1170750D01*
X1401625Y1170750D01*
X1408500Y1177625D01*
X1408633Y1202000D01*
X1408102Y1207391D01*
X1406530Y1212575D01*
X1403976Y1217352D01*
X1400540Y1221540D01*
X1396352Y1224976D01*
X1391575Y1227530D01*
X1386391Y1229102D01*
X1381000Y1229633D01*
X1352875Y1229500D01*
X1346000Y1222625D01*
X1321000Y1222625D01*
X1314125Y1229500D01*
X1286000Y1229633D01*
X1280609Y1229102D01*
X1275425Y1227530D01*
X1270648Y1224976D01*
X1266460Y1221540D01*
X1263024Y1217352D01*
X1260470Y1212575D01*
X1258898Y1207391D01*
X1258367Y1202000D01*
X1218133Y1202000D01*
X1217602Y1207391D01*
X1216030Y1212575D01*
X1213476Y1217352D01*
X1210040Y1221540D01*
X1205852Y1224976D01*
X1201075Y1227530D01*
X1195891Y1229102D01*
X1190500Y1229633D01*
X1162375Y1229500D01*
X1155500Y1222625D01*
X1130500Y1222625D01*
X1123625Y1229500D01*
X1095500Y1229633D01*
X1090109Y1229102D01*
X1084925Y1227530D01*
X1083367Y1226697D01*
X1083285Y1227531D01*
X1080855Y1235543D01*
X1076908Y1242926D01*
X1071597Y1249397D01*
X1069976Y1250728D01*
X1045800Y1274904D01*
X1045800Y1344113D01*
X1046006Y1346200D01*
X1045185Y1354531D01*
X1042755Y1362543D01*
X1042552Y1362922D01*
X1038808Y1369926D01*
X1033497Y1376397D01*
X1031876Y1377728D01*
X971328Y1438276D01*
X969997Y1439897D01*
X963526Y1445208D01*
X956143Y1449155D01*
X948131Y1451585D01*
X941887Y1452200D01*
X941887Y1452200D01*
X939800Y1452405D01*
X937713Y1452200D01*
X932004Y1452200D01*
X904079Y1480125D01*
X904633Y1485750D01*
X904633Y1550750D01*
X904410Y1553010D01*
X907575Y1553970D01*
X912352Y1556524D01*
X916540Y1559960D01*
X919976Y1564148D01*
X922530Y1568925D01*
X923434Y1571906D01*
X938875Y1572000D01*
X945750Y1578875D01*
X945750Y1607000D01*
X943750Y1607000D01*
X943750Y1627000D01*
X945750Y1627000D01*
X945750Y1631500D01*
X970750Y1631500D01*
X970750Y1627000D01*
X972750Y1627000D01*
X972750Y1607000D01*
X970750Y1607000D01*
X970750Y1578875D01*
X977625Y1572000D01*
X992550Y1571909D01*
X992550Y1545137D01*
X992344Y1543050D01*
X992550Y1540963D01*
X992550Y1540963D01*
X992951Y1536887D01*
X993165Y1534719D01*
X993205Y1534588D01*
X995595Y1526707D01*
X999542Y1519324D01*
X1004853Y1512853D01*
X1006474Y1511522D01*
X1022572Y1495424D01*
X1023903Y1493803D01*
X1030374Y1488492D01*
X1035850Y1485565D01*
X1037757Y1484545D01*
X1044219Y1482585D01*
X1045769Y1482115D01*
X1052013Y1481500D01*
X1052013Y1481500D01*
X1054100Y1481294D01*
X1056187Y1481500D01*
X1059507Y1481500D01*
X1060136Y1479429D01*
X1064711Y1470870D01*
X1070868Y1463368D01*
X1078370Y1457211D01*
X1085250Y1453533D01*
X1085250Y1403967D01*
X1078370Y1400289D01*
X1070868Y1394132D01*
X1064711Y1386630D01*
X1060136Y1378071D01*
X1057318Y1368784D01*
X1056367Y1359125D01*
X1056367Y1307875D01*
X1057318Y1298217D01*
X1060136Y1288929D01*
X1064711Y1280370D01*
X1070868Y1272868D01*
X1078370Y1266711D01*
X1086929Y1262136D01*
X1096217Y1259318D01*
X1105875Y1258367D01*
X1149625Y1258367D01*
X1159284Y1259318D01*
X1168571Y1262136D01*
X1177130Y1266711D01*
X1184632Y1272868D01*
X1190789Y1280370D01*
X1193799Y1286000D01*
X1213867Y1286000D01*
X1214398Y1280609D01*
X1215970Y1275425D01*
X1218524Y1270648D01*
X1221960Y1266460D01*
X1226148Y1263024D01*
X1230925Y1260470D01*
X1236109Y1258898D01*
X1241500Y1258367D01*
X1265875Y1258500D01*
X1272750Y1265375D01*
X1272750Y1321000D01*
X1297750Y1321000D01*
X1297750Y1265375D01*
X1304625Y1258500D01*
X1329000Y1258367D01*
X1334391Y1258898D01*
X1339575Y1260470D01*
X1344352Y1263024D01*
X1348540Y1266460D01*
X1351976Y1270648D01*
X1354530Y1275425D01*
X1356102Y1280609D01*
X1356633Y1286000D01*
X1356500Y1314125D01*
X1349625Y1321000D01*
X1297750Y1321000D01*
X1272750Y1321000D01*
X1220875Y1321000D01*
X1214000Y1314125D01*
X1213867Y1286000D01*
X1193799Y1286000D01*
X1195364Y1288929D01*
X1198182Y1298217D01*
X1199133Y1307875D01*
X1199133Y1359125D01*
X1198182Y1368784D01*
X1195364Y1378071D01*
X1193799Y1381000D01*
X1213867Y1381000D01*
X1214000Y1352875D01*
X1220875Y1346000D01*
X1272750Y1346000D01*
X1272750Y1401625D01*
X1297750Y1401625D01*
X1297750Y1346000D01*
X1349625Y1346000D01*
X1356500Y1352875D01*
X1356633Y1381000D01*
X1356102Y1386391D01*
X1354530Y1391575D01*
X1351976Y1396352D01*
X1348540Y1400540D01*
X1344352Y1403976D01*
X1339575Y1406530D01*
X1334391Y1408102D01*
X1329000Y1408633D01*
X1304625Y1408500D01*
X1297750Y1401625D01*
X1272750Y1401625D01*
X1265875Y1408500D01*
X1241500Y1408633D01*
X1236109Y1408102D01*
X1230925Y1406530D01*
X1226148Y1403976D01*
X1221960Y1400540D01*
X1218524Y1396352D01*
X1215970Y1391575D01*
X1214398Y1386391D01*
X1213867Y1381000D01*
X1193799Y1381000D01*
X1190789Y1386630D01*
X1184632Y1394132D01*
X1177130Y1400289D01*
X1170250Y1403967D01*
X1170250Y1453533D01*
X1177130Y1457211D01*
X1184632Y1463368D01*
X1190789Y1470870D01*
X1195364Y1479429D01*
X1196690Y1483800D01*
X1216310Y1483800D01*
X1217636Y1479429D01*
X1222211Y1470870D01*
X1228368Y1463368D01*
X1235870Y1457211D01*
X1244429Y1452636D01*
X1253717Y1449818D01*
X1263375Y1448867D01*
X1307125Y1448867D01*
X1316784Y1449818D01*
X1326071Y1452636D01*
X1334630Y1457211D01*
X1342132Y1463368D01*
X1348289Y1470870D01*
X1352864Y1479429D01*
X1355682Y1488716D01*
X1356409Y1496104D01*
X1358907Y1500776D01*
X1360472Y1505935D01*
X1361000Y1511300D01*
X1361000Y1562100D01*
X1360472Y1567465D01*
X1358907Y1572624D01*
X1356365Y1577378D01*
X1352945Y1581545D01*
X1294991Y1639500D01*
X1297750Y1639500D01*
X1297750Y1646375D01*
X1304625Y1639500D01*
X1329000Y1639367D01*
X1334391Y1639898D01*
X1339575Y1641470D01*
X1344352Y1644024D01*
X1348540Y1647460D01*
X1351976Y1651648D01*
X1354530Y1656425D01*
X1356102Y1661609D01*
X1356633Y1667000D01*
X1356500Y1695125D01*
X1349625Y1702000D01*
X1297750Y1702000D01*
X1297750Y1700000D01*
X1272750Y1700000D01*
X1272750Y1702000D01*
X1270750Y1702000D01*
X1270750Y1727000D01*
X1272750Y1727000D01*
X1272750Y1782625D01*
X1297750Y1782625D01*
X1297750Y1727000D01*
X1349625Y1727000D01*
X1356500Y1733875D01*
X1356633Y1762000D01*
X1356102Y1767391D01*
X1354530Y1772575D01*
X1351976Y1777352D01*
X1348540Y1781540D01*
X1344352Y1784976D01*
X1339575Y1787530D01*
X1334391Y1789102D01*
X1329000Y1789633D01*
X1304625Y1789500D01*
X1297750Y1782625D01*
X1272750Y1782625D01*
X1265875Y1789500D01*
X1246700Y1789605D01*
X1246700Y1829895D01*
X1265875Y1830000D01*
X1272750Y1836875D01*
X1272750Y1892500D01*
X1297750Y1892500D01*
X1297750Y1836875D01*
X1304625Y1830000D01*
X1329000Y1829867D01*
X1334391Y1830398D01*
X1339575Y1831970D01*
X1344352Y1834524D01*
X1348540Y1837960D01*
X1351976Y1842148D01*
X1354530Y1846925D01*
X1356102Y1852109D01*
X1356633Y1857500D01*
X1356500Y1885625D01*
X1349625Y1892500D01*
X1297750Y1892500D01*
X1272750Y1892500D01*
X1270750Y1892500D01*
X1270750Y1917500D01*
X1272750Y1917500D01*
X1272750Y1973125D01*
X1297750Y1973125D01*
X1297750Y1917500D01*
X1349625Y1917500D01*
X1356500Y1924375D01*
X1356633Y1952500D01*
X1356102Y1957891D01*
X1354530Y1963075D01*
X1351976Y1967852D01*
X1348540Y1972040D01*
X1344352Y1975476D01*
X1339575Y1978030D01*
X1334391Y1979602D01*
X1329000Y1980133D01*
X1304625Y1980000D01*
X1297750Y1973125D01*
X1272750Y1973125D01*
X1265875Y1980000D01*
X1244021Y1980119D01*
X1242065Y1983778D01*
X1238645Y1987945D01*
X1200545Y2026045D01*
X1196378Y2029465D01*
X1191624Y2032007D01*
X1186465Y2033572D01*
X1181100Y2034100D01*
X853000Y2034100D01*
X853000Y2042577D01*
X856275Y2043570D01*
X861052Y2046124D01*
X865239Y2049560D01*
X868676Y2053748D01*
X871230Y2058525D01*
X872802Y2063709D01*
X873333Y2069100D01*
X873333Y2126563D01*
X945800Y2126563D01*
X945800Y2115237D01*
X948010Y2104128D01*
X952344Y2093663D01*
X958637Y2084246D01*
X966646Y2076237D01*
X976063Y2069944D01*
X986528Y2065610D01*
X997637Y2063400D01*
X1008963Y2063400D01*
X1020072Y2065610D01*
X1030536Y2069944D01*
X1039954Y2076237D01*
X1047963Y2084246D01*
X1054256Y2093663D01*
X1058590Y2104128D01*
X1059804Y2110229D01*
X1068537Y2118962D01*
X1068538Y2118963D01*
X1148556Y2198980D01*
X1147400Y2196190D01*
X1142500Y2171558D01*
X1142500Y2146442D01*
X1147400Y2121810D01*
X1157011Y2098606D01*
X1170964Y2077723D01*
X1188724Y2059964D01*
X1209606Y2046011D01*
X1232810Y2036400D01*
X1257442Y2031500D01*
X1282558Y2031500D01*
X1307190Y2036400D01*
X1330394Y2046011D01*
X1351277Y2059964D01*
X1369036Y2077723D01*
X1382989Y2098606D01*
X1392600Y2121810D01*
X1397500Y2146442D01*
X1397500Y2171558D01*
X1392600Y2196190D01*
X1382989Y2219394D01*
X1369036Y2240277D01*
X1351277Y2258036D01*
X1330394Y2271989D01*
X1307190Y2281600D01*
X1282558Y2286500D01*
X1257442Y2286500D01*
X1232810Y2281600D01*
X1228585Y2279850D01*
X1229186Y2280583D01*
X1233597Y2288835D01*
X1236313Y2297788D01*
X1237000Y2304767D01*
X1237230Y2307100D01*
X1237000Y2309433D01*
X1237000Y2321367D01*
X1242500Y2321367D01*
X1247891Y2321898D01*
X1253075Y2323470D01*
X1257852Y2326024D01*
X1262040Y2329461D01*
X1265476Y2333648D01*
X1268030Y2338425D01*
X1269602Y2343609D01*
X1270133Y2349000D01*
X1270133Y2354000D01*
X1271067Y2354000D01*
X1271598Y2348609D01*
X1273170Y2343425D01*
X1275724Y2338648D01*
X1279160Y2334460D01*
X1283348Y2331024D01*
X1288125Y2328470D01*
X1293309Y2326898D01*
X1298700Y2326367D01*
X1326825Y2326500D01*
X1333700Y2333375D01*
X1333700Y2385250D01*
X1358700Y2385250D01*
X1358700Y2333375D01*
X1365575Y2326500D01*
X1393700Y2326367D01*
X1399091Y2326898D01*
X1404275Y2328470D01*
X1409052Y2331024D01*
X1413240Y2334460D01*
X1416676Y2338648D01*
X1419230Y2343425D01*
X1420802Y2348609D01*
X1421333Y2354000D01*
X1421200Y2378375D01*
X1414325Y2385250D01*
X1358700Y2385250D01*
X1333700Y2385250D01*
X1278075Y2385250D01*
X1271200Y2378375D01*
X1271067Y2354000D01*
X1270133Y2354000D01*
X1270133Y2414000D01*
X1269602Y2419391D01*
X1268030Y2424575D01*
X1265476Y2429352D01*
X1262040Y2433540D01*
X1257852Y2436976D01*
X1253075Y2439530D01*
X1247891Y2441102D01*
X1243850Y2441500D01*
X1271067Y2441500D01*
X1271200Y2417125D01*
X1278075Y2410250D01*
X1333700Y2410250D01*
X1333700Y2462125D01*
X1358700Y2462125D01*
X1358700Y2410250D01*
X1414325Y2410250D01*
X1421200Y2417125D01*
X1421333Y2441500D01*
X1420802Y2446891D01*
X1419230Y2452075D01*
X1416676Y2456852D01*
X1413240Y2461040D01*
X1409052Y2464476D01*
X1404275Y2467030D01*
X1399091Y2468602D01*
X1393700Y2469133D01*
X1365575Y2469000D01*
X1358700Y2462125D01*
X1333700Y2462125D01*
X1326825Y2469000D01*
X1298700Y2469133D01*
X1293309Y2468602D01*
X1288125Y2467030D01*
X1283348Y2464476D01*
X1279160Y2461040D01*
X1275724Y2456852D01*
X1273170Y2452075D01*
X1271598Y2446891D01*
X1271067Y2441500D01*
X1243850Y2441500D01*
X1242500Y2441633D01*
X1136500Y2441633D01*
X1131109Y2441102D01*
X1125925Y2439530D01*
X1121148Y2436976D01*
X1116961Y2433540D01*
X1113524Y2429352D01*
X1110970Y2424575D01*
X1109398Y2419391D01*
X1108867Y2414000D01*
X1108867Y2349000D01*
X1109398Y2343609D01*
X1110970Y2338425D01*
X1113524Y2333648D01*
X1116961Y2329461D01*
X1121148Y2326024D01*
X1125925Y2323470D01*
X1131109Y2321898D01*
X1136500Y2321367D01*
X1136592Y2321367D01*
X1001363Y2186138D01*
X1001362Y2186137D01*
X992629Y2177404D01*
X986528Y2176190D01*
X976063Y2171856D01*
X966646Y2165563D01*
X958637Y2157554D01*
X952344Y2148137D01*
X948010Y2137672D01*
X945800Y2126563D01*
X873333Y2126563D01*
X873333Y2444000D01*
X888867Y2444000D01*
X889398Y2438609D01*
X890970Y2433425D01*
X893336Y2429000D01*
X890970Y2424575D01*
X889398Y2419391D01*
X888867Y2414000D01*
X888867Y2349000D01*
X889398Y2343609D01*
X890970Y2338425D01*
X893524Y2333648D01*
X896960Y2329461D01*
X901148Y2326024D01*
X905925Y2323470D01*
X911109Y2321898D01*
X912000Y2321810D01*
X912000Y2266175D01*
X912832Y2257728D01*
X916120Y2246889D01*
X921459Y2236900D01*
X928645Y2228145D01*
X937400Y2220959D01*
X947389Y2215620D01*
X958228Y2212332D01*
X969500Y2211222D01*
X980772Y2212332D01*
X991611Y2215620D01*
X1001600Y2220959D01*
X1010355Y2228145D01*
X1017541Y2236900D01*
X1022880Y2246889D01*
X1026168Y2257728D01*
X1027000Y2266175D01*
X1027000Y2321810D01*
X1027891Y2321898D01*
X1033075Y2323470D01*
X1037852Y2326024D01*
X1042039Y2329461D01*
X1045476Y2333648D01*
X1048030Y2338425D01*
X1049602Y2343609D01*
X1050133Y2349000D01*
X1050133Y2414000D01*
X1049602Y2419391D01*
X1048030Y2424575D01*
X1045664Y2429000D01*
X1048030Y2433425D01*
X1049602Y2438609D01*
X1050133Y2444000D01*
X1050000Y2457125D01*
X1043125Y2464000D01*
X982000Y2464000D01*
X982000Y2462000D01*
X957000Y2462000D01*
X957000Y2464000D01*
X895875Y2464000D01*
X889000Y2457125D01*
X888867Y2444000D01*
X873333Y2444000D01*
X873333Y2509000D01*
X888867Y2509000D01*
X889000Y2495875D01*
X895875Y2489000D01*
X957000Y2489000D01*
X957000Y2491000D01*
X982000Y2491000D01*
X982000Y2489000D01*
X1043125Y2489000D01*
X1050000Y2495875D01*
X1050133Y2509000D01*
X1049602Y2514391D01*
X1048030Y2519575D01*
X1045664Y2524000D01*
X1048030Y2528425D01*
X1049602Y2533609D01*
X1050133Y2539000D01*
X1050133Y2604000D01*
X1049602Y2609391D01*
X1048030Y2614575D01*
X1045476Y2619352D01*
X1042039Y2623540D01*
X1037852Y2626976D01*
X1033075Y2629530D01*
X1027891Y2631102D01*
X1022500Y2631633D01*
X916500Y2631633D01*
X911109Y2631102D01*
X905925Y2629530D01*
X901148Y2626976D01*
X896960Y2623540D01*
X893524Y2619352D01*
X890970Y2614575D01*
X889398Y2609391D01*
X888867Y2604000D01*
X888867Y2539000D01*
X889398Y2533609D01*
X890970Y2528425D01*
X893336Y2524000D01*
X890970Y2519575D01*
X889398Y2514391D01*
X888867Y2509000D01*
X873333Y2509000D01*
X873333Y2579100D01*
X872802Y2584491D01*
X871230Y2589675D01*
X868676Y2594452D01*
X865239Y2598640D01*
X861052Y2602076D01*
X856275Y2604630D01*
X851091Y2606202D01*
X845700Y2606733D01*
X610700Y2606733D01*
X605309Y2606202D01*
X600125Y2604630D01*
X595348Y2602076D01*
X591161Y2598640D01*
X587724Y2594452D01*
X585170Y2589675D01*
X583598Y2584491D01*
X583067Y2579100D01*
X583067Y2069100D01*
X583598Y2063709D01*
X585170Y2058525D01*
X587724Y2053748D01*
X591161Y2049560D01*
X595348Y2046124D01*
X600125Y2043570D01*
X605309Y2041998D01*
X610700Y2041467D01*
X621973Y2041467D01*
X620728Y2037365D01*
X620200Y2032000D01*
X620200Y1950789D01*
X620066Y1950348D01*
X619367Y1943250D01*
X619367Y1878250D01*
X619590Y1875990D01*
X616425Y1875030D01*
X611648Y1872476D01*
X607460Y1869040D01*
X604024Y1864852D01*
X601470Y1860075D01*
X600566Y1857094D01*
X585125Y1857000D01*
X578250Y1850125D01*
X578250Y1822000D01*
X580250Y1822000D01*
X580250Y1802000D01*
X578250Y1802000D01*
X578250Y1757000D01*
X580250Y1757000D01*
X580250Y1737000D01*
X578250Y1737000D01*
X578250Y1692000D01*
X580250Y1692000D01*
X580250Y1678500D01*
X533400Y1678500D01*
X528035Y1677972D01*
X522876Y1676407D01*
X518122Y1673865D01*
X515849Y1672000D01*
X503875Y1672000D01*
X497000Y1665125D01*
X496867Y1664500D01*
X497398Y1659109D01*
X498613Y1655104D01*
X488555Y1645045D01*
X485135Y1640878D01*
X482593Y1636124D01*
X481028Y1630965D01*
X480500Y1625600D01*
X480500Y1560791D01*
X467521Y1547812D01*
X467633Y1571500D01*
X467102Y1576891D01*
X465530Y1582075D01*
X462976Y1586852D01*
X459540Y1591040D01*
X455352Y1594476D01*
X450575Y1597030D01*
X445391Y1598602D01*
X440000Y1599133D01*
X415625Y1599000D01*
X408750Y1592125D01*
X408750Y1536500D01*
X410750Y1536500D01*
X410750Y1513400D01*
X392391Y1513400D01*
X381750Y1524041D01*
X381750Y1536500D01*
X383750Y1536500D01*
X383750Y1592125D01*
X376875Y1599000D01*
X370400Y1599035D01*
X370400Y1639465D01*
X376875Y1639500D01*
X383750Y1646375D01*
X383750Y1702000D01*
X408750Y1702000D01*
X408750Y1646375D01*
X415625Y1639500D01*
X440000Y1639367D01*
X445391Y1639898D01*
X450575Y1641470D01*
X455352Y1644024D01*
X459540Y1647460D01*
X462976Y1651648D01*
X465530Y1656425D01*
X467102Y1661609D01*
X467633Y1667000D01*
X467500Y1695125D01*
X460625Y1702000D01*
X408750Y1702000D01*
X383750Y1702000D01*
X381750Y1702000D01*
X381750Y1727000D01*
X383750Y1727000D01*
X383750Y1782625D01*
X408750Y1782625D01*
X408750Y1727000D01*
X460625Y1727000D01*
X463125Y1729500D01*
X496867Y1729500D01*
X497398Y1724109D01*
X498970Y1718925D01*
X501336Y1714500D01*
X498970Y1710075D01*
X497398Y1704891D01*
X496867Y1699500D01*
X497000Y1698875D01*
X503875Y1692000D01*
X553250Y1692000D01*
X553250Y1737000D01*
X503875Y1737000D01*
X497000Y1730125D01*
X496867Y1729500D01*
X463125Y1729500D01*
X467500Y1733875D01*
X467633Y1762000D01*
X467102Y1767391D01*
X465530Y1772575D01*
X462976Y1777352D01*
X459540Y1781540D01*
X455352Y1784976D01*
X450575Y1787530D01*
X445391Y1789102D01*
X440000Y1789633D01*
X415625Y1789500D01*
X408750Y1782625D01*
X383750Y1782625D01*
X376875Y1789500D01*
X370400Y1789535D01*
X370400Y1794500D01*
X496867Y1794500D01*
X497398Y1789109D01*
X498970Y1783925D01*
X501336Y1779500D01*
X498970Y1775075D01*
X497398Y1769891D01*
X496867Y1764500D01*
X497000Y1763875D01*
X503875Y1757000D01*
X553250Y1757000D01*
X553250Y1802000D01*
X503875Y1802000D01*
X497000Y1795125D01*
X496867Y1794500D01*
X370400Y1794500D01*
X370400Y1829500D01*
X496867Y1829500D01*
X497000Y1828875D01*
X503875Y1822000D01*
X553250Y1822000D01*
X553250Y1850125D01*
X546375Y1857000D01*
X524500Y1857133D01*
X519109Y1856602D01*
X513925Y1855030D01*
X509148Y1852476D01*
X504960Y1849040D01*
X501524Y1844852D01*
X498970Y1840075D01*
X497398Y1834891D01*
X496867Y1829500D01*
X370400Y1829500D01*
X370400Y1829965D01*
X376875Y1830000D01*
X383750Y1836875D01*
X383750Y1892500D01*
X408750Y1892500D01*
X408750Y1836875D01*
X415625Y1830000D01*
X440000Y1829867D01*
X445391Y1830398D01*
X450575Y1831970D01*
X455352Y1834524D01*
X459540Y1837960D01*
X462976Y1842148D01*
X465530Y1846925D01*
X467102Y1852109D01*
X467633Y1857500D01*
X467500Y1885625D01*
X460625Y1892500D01*
X408750Y1892500D01*
X383750Y1892500D01*
X381750Y1892500D01*
X381750Y1917500D01*
X383750Y1917500D01*
X383750Y1973125D01*
X408750Y1973125D01*
X408750Y1917500D01*
X460625Y1917500D01*
X467500Y1924375D01*
X467633Y1952500D01*
X467102Y1957891D01*
X465530Y1963075D01*
X462976Y1967852D01*
X459540Y1972040D01*
X455352Y1975476D01*
X450575Y1978030D01*
X445391Y1979602D01*
X440000Y1980133D01*
X415625Y1980000D01*
X408750Y1973125D01*
X383750Y1973125D01*
X376875Y1980000D01*
X352500Y1980133D01*
X347109Y1979602D01*
X341925Y1978030D01*
X337148Y1975476D01*
X332960Y1972040D01*
X329524Y1967852D01*
X326970Y1963075D01*
X325401Y1957900D01*
X301912Y1957900D01*
X301789Y1958130D01*
X295632Y1965632D01*
X288130Y1971789D01*
X279571Y1976364D01*
X270284Y1979182D01*
X260625Y1980133D01*
X216875Y1980133D01*
X207216Y1979182D01*
X197929Y1976364D01*
X189370Y1971789D01*
X181868Y1965632D01*
X175711Y1958130D01*
X171136Y1949571D01*
X168318Y1940283D01*
X167367Y1930625D01*
X167367Y1879375D01*
X168318Y1869716D01*
X171136Y1860429D01*
X175700Y1851890D01*
X175700Y1767610D01*
X171136Y1759071D01*
X168318Y1749783D01*
X167367Y1740125D01*
X167367Y1688875D01*
X168318Y1679216D01*
X171136Y1669929D01*
X175700Y1661390D01*
X175700Y1577110D01*
X171136Y1568571D01*
X168318Y1559283D01*
X167367Y1549625D01*
X167367Y1498375D01*
X168318Y1488716D01*
X171136Y1479429D01*
X175700Y1470890D01*
X175700Y1386610D01*
X171136Y1378071D01*
X168318Y1368784D01*
X167367Y1359125D01*
X167367Y1307875D01*
X168318Y1298217D01*
X171136Y1288929D01*
X175711Y1280370D01*
X181868Y1272868D01*
X189370Y1266711D01*
X197929Y1262136D01*
X207216Y1259318D01*
X216875Y1258367D01*
X260625Y1258367D01*
X270284Y1259318D01*
X275123Y1260786D01*
X290000Y1245909D01*
X290000Y1130300D01*
X290528Y1124935D01*
X292093Y1119776D01*
X294635Y1115022D01*
X298055Y1110855D01*
X302222Y1107435D01*
X306976Y1104893D01*
X312135Y1103328D01*
X317500Y1102800D01*
X319192Y1102800D01*
X320368Y1101368D01*
X327870Y1095211D01*
X336429Y1090636D01*
X345717Y1087818D01*
X355375Y1086867D01*
X406625Y1086867D01*
X416283Y1087818D01*
X425571Y1090636D01*
X434130Y1095211D01*
X441632Y1101368D01*
X442808Y1102800D01*
X509692Y1102800D01*
X510868Y1101368D01*
X518370Y1095211D01*
X526929Y1090636D01*
X536217Y1087818D01*
X545875Y1086867D01*
X597125Y1086867D01*
X606784Y1087818D01*
X616071Y1090636D01*
X624630Y1095211D01*
X632132Y1101368D01*
X633308Y1102800D01*
X661696Y1102800D01*
X631824Y1072928D01*
X630203Y1071597D01*
X629047Y1070190D01*
X624391Y1071602D01*
X619000Y1072133D01*
X590875Y1072000D01*
X584000Y1065125D01*
X584000Y1013250D01*
X586000Y1013250D01*
X586000Y988250D01*
X584000Y988250D01*
X584000Y936375D01*
X584086Y936289D01*
X356506Y708710D01*
X356633Y710000D01*
X356633Y765000D01*
X356392Y767445D01*
X356392Y769901D01*
X355861Y775292D01*
X353949Y784905D01*
X352377Y790089D01*
X348626Y799144D01*
X346072Y803922D01*
X340627Y812072D01*
X337190Y816259D01*
X330259Y823190D01*
X326072Y826627D01*
X317922Y832072D01*
X313144Y834626D01*
X304089Y838377D01*
X298905Y839949D01*
X296500Y840427D01*
X296500Y855513D01*
X296706Y857600D01*
X295885Y865932D01*
X293455Y873943D01*
X289508Y881326D01*
X284197Y887798D01*
X282576Y889128D01*
X237350Y934354D01*
X243630Y937711D01*
X251132Y943868D01*
X257289Y951370D01*
X260967Y958250D01*
X310533Y958250D01*
X314211Y951370D01*
X320368Y943868D01*
X327870Y937711D01*
X336429Y933136D01*
X345717Y930318D01*
X355375Y929367D01*
X406625Y929367D01*
X416283Y930318D01*
X425571Y933136D01*
X434130Y937711D01*
X441632Y943868D01*
X447789Y951370D01*
X450799Y957000D01*
X496367Y957000D01*
X496898Y951609D01*
X498470Y946425D01*
X501024Y941648D01*
X504460Y937460D01*
X508648Y934024D01*
X513425Y931470D01*
X518609Y929898D01*
X524000Y929367D01*
X552125Y929500D01*
X559000Y936375D01*
X559000Y988250D01*
X503375Y988250D01*
X496500Y981375D01*
X496367Y957000D01*
X450799Y957000D01*
X452364Y959929D01*
X455182Y969216D01*
X456133Y978875D01*
X456133Y1022625D01*
X455182Y1032283D01*
X452364Y1041571D01*
X450799Y1044500D01*
X496367Y1044500D01*
X496500Y1020125D01*
X503375Y1013250D01*
X559000Y1013250D01*
X559000Y1065125D01*
X552125Y1072000D01*
X524000Y1072133D01*
X518609Y1071602D01*
X513425Y1070030D01*
X508648Y1067476D01*
X504460Y1064040D01*
X501024Y1059852D01*
X498470Y1055075D01*
X496898Y1049891D01*
X496367Y1044500D01*
X450799Y1044500D01*
X447789Y1050130D01*
X441632Y1057632D01*
X434130Y1063789D01*
X425571Y1068364D01*
X416283Y1071182D01*
X406625Y1072133D01*
X355375Y1072133D01*
X345717Y1071182D01*
X336429Y1068364D01*
X327870Y1063789D01*
X320368Y1057632D01*
X314211Y1050130D01*
X310533Y1043250D01*
X260967Y1043250D01*
X257289Y1050130D01*
X251132Y1057632D01*
X243630Y1063789D01*
X235071Y1068364D01*
X225783Y1071182D01*
X216125Y1072133D01*
X164875Y1072133D01*
X155217Y1071182D01*
X145929Y1068364D01*
X137370Y1063789D01*
X129868Y1057632D01*
X123711Y1050130D01*
X119136Y1041571D01*
X116318Y1032283D01*
X115367Y1022625D01*
X115367Y978875D01*
X116318Y969216D01*
X119136Y959929D01*
X123711Y951370D01*
X129868Y943868D01*
X137370Y937711D01*
X145929Y933136D01*
X148000Y932507D01*
X148000Y923188D01*
X147795Y921100D01*
X148591Y913015D01*
X139255Y909148D01*
X130656Y903402D01*
X123343Y896090D01*
X117598Y887491D01*
X113640Y877937D01*
X112227Y870831D01*
X98824Y857428D01*
X97203Y856098D01*
X95872Y854476D01*
X95872Y854476D01*
X95453Y853966D01*
X91892Y849626D01*
X90103Y846280D01*
X87945Y842243D01*
X85515Y834232D01*
X84839Y827364D01*
X81656Y831920D01*
X66446Y846506D01*
X48683Y857845D01*
X29049Y865501D01*
X12500Y861896D01*
X12500Y774500D01*
X14500Y774500D01*
X14500Y749500D01*
X12500Y749500D01*
X12500Y662104D01*
X29049Y658499D01*
X48683Y666155D01*
X66446Y677494D01*
X81656Y692080D01*
X84900Y696723D01*
X84900Y658687D01*
X84695Y656600D01*
X84900Y654513D01*
X84900Y654513D01*
X85515Y648269D01*
X87945Y640257D01*
X91892Y632874D01*
X97203Y626403D01*
X98824Y625072D01*
X117472Y606424D01*
X118803Y604803D01*
X125274Y599492D01*
X130750Y596565D01*
X132657Y595545D01*
X140669Y593115D01*
X146913Y592500D01*
X146913Y592500D01*
X149000Y592295D01*
X151087Y592500D01*
X151367Y592500D01*
X151367Y585000D01*
X151898Y579609D01*
X153470Y574425D01*
X154500Y572500D01*
X153470Y570575D01*
X151898Y565391D01*
X151367Y560000D01*
X151367Y505000D01*
X151608Y502555D01*
X151608Y500099D01*
X152139Y494708D01*
X154051Y485095D01*
X155623Y479911D01*
X159374Y470856D01*
X161928Y466078D01*
X167373Y457928D01*
X170810Y453741D01*
X177741Y446810D01*
X181928Y443373D01*
X190078Y437928D01*
X194856Y435374D01*
X203911Y431623D01*
X209095Y430051D01*
X218708Y428139D01*
X224099Y427608D01*
X226555Y427608D01*
X229000Y427367D01*
X279000Y427367D01*
X281445Y427608D01*
X283901Y427608D01*
X289292Y428139D01*
X298905Y430051D01*
X304089Y431623D01*
X313144Y435374D01*
X317922Y437928D01*
X326072Y443373D01*
X330259Y446810D01*
X337190Y453741D01*
X340627Y457928D01*
X343681Y462500D01*
X350513Y462500D01*
X352600Y462294D01*
X354687Y462500D01*
X354687Y462500D01*
X360931Y463115D01*
X368943Y465545D01*
X376326Y469492D01*
X382797Y474803D01*
X384128Y476424D01*
X396875Y489171D01*
X398497Y490503D01*
X403808Y496974D01*
X407755Y504357D01*
X410185Y512369D01*
X410800Y518613D01*
X411006Y520700D01*
X410800Y522787D01*
X410800Y642796D01*
X584407Y816403D01*
X584367Y816000D01*
X584367Y516000D01*
X585378Y505732D01*
X588373Y495858D01*
X593237Y486759D01*
X599783Y478783D01*
X607759Y472237D01*
X616858Y467373D01*
X626732Y464378D01*
X637000Y463367D01*
X687000Y463367D01*
X697268Y464378D01*
X707142Y467373D01*
X714404Y471255D01*
X714270Y469900D01*
X715187Y460588D01*
X717265Y453741D01*
X717903Y451635D01*
X722314Y443383D01*
X728250Y436150D01*
X730063Y434662D01*
X802962Y361762D01*
X804450Y359950D01*
X811683Y354014D01*
X819482Y349845D01*
X819935Y349603D01*
X828888Y346887D01*
X838200Y345970D01*
X840533Y346200D01*
X1110625Y346200D01*
X1180819Y276006D01*
X1176241Y279763D01*
X1167142Y284627D01*
X1157268Y287622D01*
X1147000Y288633D01*
X1047000Y288633D01*
X1036732Y287622D01*
X1026858Y284627D01*
X1017759Y279763D01*
X1009783Y273217D01*
X1003237Y265241D01*
X998373Y256142D01*
X995378Y246268D01*
X994367Y236000D01*
X994367Y-54000D01*
X995378Y-64268D01*
X998373Y-74142D01*
X1003237Y-83241D01*
X1009783Y-91217D01*
X1017759Y-97763D01*
X1021009Y-99500D01*
X502991Y-99500D01*
X506241Y-97763D01*
X514217Y-91217D01*
X520763Y-83241D01*
X525627Y-74142D01*
X528622Y-64268D01*
X529633Y-54000D01*
X529633Y236000D01*
X528622Y246268D01*
X525627Y256142D01*
X520763Y265241D01*
X514217Y273217D01*
X506241Y279763D01*
X497142Y284627D01*
X487268Y287622D01*
X477000Y288633D01*
X377000Y288633D01*
X366732Y287622D01*
X356858Y284627D01*
X347759Y279763D01*
X339783Y273217D01*
X333237Y265241D01*
X328373Y256142D01*
X325378Y246268D01*
X324367Y236000D01*
X324367Y-54000D01*
X325378Y-64268D01*
X328373Y-74142D01*
X333237Y-83241D01*
X339783Y-91217D01*
X347759Y-97763D01*
X351009Y-99500D01*
X99572Y-99500D01*
X102976Y-95352D01*
X105530Y-90575D01*
X107102Y-85391D01*
X107633Y-80000D01*
X107633Y80000D01*
X107102Y85391D01*
X105530Y90575D01*
X102976Y95352D01*
X99539Y99539D01*
X95352Y102976D01*
X90575Y105530D01*
X85391Y107102D01*
X80000Y107633D01*
X-80000Y107633D01*
X-85391Y107102D01*
X-90575Y105530D01*
X-95352Y102976D01*
X-99500Y99572D01*
X-99500Y213303D01*
X-95265Y203080D01*
X-83501Y185473D01*
X-68527Y170499D01*
X-50920Y158735D01*
X-31357Y150631D01*
X-10588Y146500D01*
X10588Y146500D01*
X31357Y150631D01*
X50920Y158735D01*
X68527Y170499D01*
X83501Y185473D01*
X95265Y203080D01*
X103369Y222643D01*
X107500Y243412D01*
X107500Y264588D01*
X103369Y285357D01*
X95265Y304920D01*
X83501Y322527D01*
X68527Y337501D01*
X50920Y349265D01*
X31357Y357369D01*
X10588Y361500D01*
X-10588Y361500D01*
X-31357Y357369D01*
X-50920Y349265D01*
X-68527Y337501D01*
X-83501Y322527D01*
X-95265Y304920D01*
X-99500Y294697D01*
X-99500Y467303D01*
X-95265Y457080D01*
X-83501Y439473D01*
X-68527Y424499D01*
X-50920Y412735D01*
X-31357Y404631D01*
X-10588Y400500D01*
X10588Y400500D01*
X31357Y404631D01*
X50920Y412735D01*
X68527Y424499D01*
X83501Y439473D01*
X95265Y457080D01*
X103369Y476643D01*
X107500Y497412D01*
X107500Y518588D01*
X103369Y539357D01*
X95265Y558920D01*
X83501Y576527D01*
X68527Y591501D01*
X50920Y603265D01*
X31357Y611369D01*
X10588Y615500D01*
X-10588Y615500D01*
X-31357Y611369D01*
X-50920Y603265D01*
X-68527Y591501D01*
X-83501Y576527D01*
X-95265Y558920D01*
X-99500Y548697D01*
X-99500Y722506D01*
X-93727Y709354D01*
X-81656Y692080D01*
X-66446Y677494D01*
X-48683Y666155D01*
X-29049Y658499D01*
X-12500Y662104D01*
X-12500Y749500D01*
X-14500Y749500D01*
X-14500Y774500D01*
X-12500Y774500D01*
X-12500Y861896D01*
X-29049Y865501D01*
X-48683Y857845D01*
X-66446Y846506D01*
X-81656Y831920D01*
X-93727Y814646D01*
X-99500Y801493D01*
X-99500Y975303D01*
X-95265Y965080D01*
X-83501Y947473D01*
X-68527Y932499D01*
X-50920Y920735D01*
X-31357Y912631D01*
X-10588Y908500D01*
X10588Y908500D01*
X31357Y912631D01*
X50920Y920735D01*
X68527Y932499D01*
X83501Y947473D01*
X95265Y965080D01*
X103369Y984643D01*
X107500Y1005412D01*
X107500Y1026588D01*
X103369Y1047357D01*
X95265Y1066920D01*
X83501Y1084527D01*
X68527Y1099501D01*
X50920Y1111265D01*
X43111Y1114500D01*
X115367Y1114500D01*
X115898Y1109109D01*
X117470Y1103925D01*
X120024Y1099148D01*
X123460Y1094960D01*
X127648Y1091524D01*
X132425Y1088970D01*
X137609Y1087398D01*
X143000Y1086867D01*
X171125Y1087000D01*
X178000Y1093875D01*
X178000Y1145750D01*
X203000Y1145750D01*
X203000Y1093875D01*
X209875Y1087000D01*
X238000Y1086867D01*
X243391Y1087398D01*
X248575Y1088970D01*
X253352Y1091524D01*
X257540Y1094960D01*
X260976Y1099148D01*
X263530Y1103925D01*
X265102Y1109109D01*
X265633Y1114500D01*
X265500Y1138875D01*
X258625Y1145750D01*
X203000Y1145750D01*
X178000Y1145750D01*
X122375Y1145750D01*
X115500Y1138875D01*
X115367Y1114500D01*
X43111Y1114500D01*
X31357Y1119369D01*
X10588Y1123500D01*
X-10588Y1123500D01*
X-31357Y1119369D01*
X-50920Y1111265D01*
X-68527Y1099501D01*
X-83501Y1084527D01*
X-95265Y1066920D01*
X-99500Y1056697D01*
X-99500Y1229303D01*
X-95265Y1219080D01*
X-83501Y1201473D01*
X-68527Y1186499D01*
X-50920Y1174735D01*
X-31357Y1166631D01*
X-10588Y1162500D01*
X10588Y1162500D01*
X31357Y1166631D01*
X50920Y1174735D01*
X68527Y1186499D01*
X83501Y1201473D01*
X83853Y1202000D01*
X115367Y1202000D01*
X115500Y1177625D01*
X122375Y1170750D01*
X178000Y1170750D01*
X178000Y1222625D01*
X203000Y1222625D01*
X203000Y1170750D01*
X258625Y1170750D01*
X265500Y1177625D01*
X265633Y1202000D01*
X265102Y1207391D01*
X263530Y1212575D01*
X260976Y1217352D01*
X257540Y1221540D01*
X253352Y1224976D01*
X248575Y1227530D01*
X243391Y1229102D01*
X238000Y1229633D01*
X209875Y1229500D01*
X203000Y1222625D01*
X178000Y1222625D01*
X171125Y1229500D01*
X143000Y1229633D01*
X137609Y1229102D01*
X132425Y1227530D01*
X127648Y1224976D01*
X123460Y1221540D01*
X120024Y1217352D01*
X117470Y1212575D01*
X115898Y1207391D01*
X115367Y1202000D01*
X83853Y1202000D01*
X95265Y1219080D01*
X103369Y1238643D01*
X107500Y1259412D01*
X107500Y1280588D01*
X103369Y1301357D01*
X95265Y1320920D01*
X83501Y1338527D01*
X68527Y1353501D01*
X50920Y1365265D01*
X31357Y1373369D01*
X10588Y1377500D01*
X-10588Y1377500D01*
X-31357Y1373369D01*
X-50920Y1365265D01*
X-68527Y1353501D01*
X-83501Y1338527D01*
X-95265Y1320920D01*
X-99500Y1310697D01*
X-99500Y1483303D01*
X-95265Y1473080D01*
X-83501Y1455473D01*
X-68527Y1440499D01*
X-50920Y1428735D01*
X-31357Y1420631D01*
X-10588Y1416500D01*
X10588Y1416500D01*
X31357Y1420631D01*
X50920Y1428735D01*
X68527Y1440499D01*
X83501Y1455473D01*
X95265Y1473080D01*
X103369Y1492643D01*
X107500Y1513412D01*
X107500Y1534588D01*
X103369Y1555357D01*
X95265Y1574920D01*
X83501Y1592527D01*
X68527Y1607501D01*
X50920Y1619265D01*
X31357Y1627369D01*
X10588Y1631500D01*
X-10588Y1631500D01*
X-31357Y1627369D01*
X-50920Y1619265D01*
X-68527Y1607501D01*
X-83501Y1592527D01*
X-95265Y1574920D01*
X-99500Y1564697D01*
X-99500Y1737303D01*
X-95265Y1727080D01*
X-83501Y1709473D01*
X-68527Y1694499D01*
X-50920Y1682735D01*
X-31357Y1674631D01*
X-10588Y1670500D01*
X10588Y1670500D01*
X31357Y1674631D01*
X50920Y1682735D01*
X68527Y1694499D01*
X83501Y1709473D01*
X95265Y1727080D01*
X103369Y1746643D01*
X107500Y1767412D01*
X107500Y1788588D01*
X103369Y1809357D01*
X95265Y1828920D01*
X83501Y1846527D01*
X68527Y1861501D01*
X50920Y1873265D01*
X31357Y1881369D01*
X10588Y1885500D01*
X-10588Y1885500D01*
X-31357Y1881369D01*
X-50920Y1873265D01*
X-68527Y1861501D01*
X-83501Y1846527D01*
X-95265Y1828920D01*
X-99500Y1818697D01*
X-99500Y1991303D01*
X-95265Y1981080D01*
X-83501Y1963473D01*
X-68527Y1948499D01*
X-50920Y1936735D01*
X-31357Y1928631D01*
X-10588Y1924500D01*
X10588Y1924500D01*
X31357Y1928631D01*
X50920Y1936735D01*
X68527Y1948499D01*
X83501Y1963473D01*
X95265Y1981080D01*
X103369Y2000643D01*
X107500Y2021412D01*
X107500Y2042588D01*
X103369Y2063357D01*
X95265Y2082920D01*
X83501Y2100527D01*
X68527Y2115501D01*
X50920Y2127265D01*
X31357Y2135369D01*
X10588Y2139500D01*
X-10588Y2139500D01*
X-31357Y2135369D01*
X-50920Y2127265D01*
X-68527Y2115501D01*
X-83501Y2100527D01*
X-95265Y2082920D01*
X-99500Y2072697D01*
X-99500Y2245303D01*
X-95265Y2235080D01*
X-83501Y2217473D01*
X-68527Y2202499D01*
X-50920Y2190735D01*
X-31357Y2182631D01*
X-10588Y2178500D01*
X10588Y2178500D01*
X31357Y2182631D01*
X50920Y2190735D01*
X68527Y2202499D01*
X83501Y2217473D01*
X95265Y2235080D01*
X103369Y2254643D01*
X107500Y2275412D01*
X107500Y2296588D01*
X103369Y2317357D01*
X95265Y2336920D01*
X83501Y2354527D01*
X68527Y2369501D01*
X50920Y2381265D01*
X31357Y2389369D01*
X10588Y2393500D01*
X-10588Y2393500D01*
X-31357Y2389369D01*
X-50920Y2381265D01*
X-68527Y2369501D01*
X-83501Y2354527D01*
X-95265Y2336920D01*
X-99500Y2326697D01*
X-99500Y2499303D01*
X-95265Y2489080D01*
X-83501Y2471473D01*
X-68527Y2456499D01*
X-50920Y2444735D01*
X-31357Y2436631D01*
X-10588Y2432500D01*
X10588Y2432500D01*
X31357Y2436631D01*
X50920Y2444735D01*
X68527Y2456499D01*
X83501Y2471473D01*
X95265Y2489080D01*
X103369Y2508643D01*
X107500Y2529412D01*
X107500Y2550588D01*
X103369Y2571357D01*
X100161Y2579100D01*
X168067Y2579100D01*
X168067Y2069100D01*
X168598Y2063709D01*
X170170Y2058525D01*
X172724Y2053748D01*
X176160Y2049560D01*
X180348Y2046124D01*
X185125Y2043570D01*
X190309Y2041998D01*
X195700Y2041467D01*
X430700Y2041467D01*
X436091Y2041998D01*
X441275Y2043570D01*
X446052Y2046124D01*
X450239Y2049560D01*
X453676Y2053748D01*
X456230Y2058525D01*
X457802Y2063709D01*
X458333Y2069100D01*
X458333Y2579100D01*
X457802Y2584491D01*
X456230Y2589675D01*
X453676Y2594452D01*
X450239Y2598640D01*
X446052Y2602076D01*
X441275Y2604630D01*
X436091Y2606202D01*
X430700Y2606733D01*
X195700Y2606733D01*
X190309Y2606202D01*
X185125Y2604630D01*
X180348Y2602076D01*
X176160Y2598640D01*
X172724Y2594452D01*
X170170Y2589675D01*
X168598Y2584491D01*
X168067Y2579100D01*
X100161Y2579100D01*
X95265Y2590920D01*
X83501Y2608527D01*
X68527Y2623501D01*
X50920Y2635265D01*
X40697Y2639500D01*
X1483303Y2639500D01*
X1473080Y2635265D01*
G37*
X1473080Y2635265D02*
X1455473Y2623501D01*
X1440499Y2608527D01*
X1428735Y2590920D01*
X1421333Y2573051D01*
X1421333Y2577125D01*
X1420382Y2586784D01*
X1417564Y2596071D01*
X1412989Y2604630D01*
X1406832Y2612132D01*
X1399330Y2618289D01*
X1390771Y2622864D01*
X1381484Y2625682D01*
X1371825Y2626633D01*
X1320575Y2626633D01*
X1310917Y2625682D01*
X1301629Y2622864D01*
X1293070Y2618289D01*
X1285568Y2612132D01*
X1281944Y2607717D01*
X1277717Y2611186D01*
X1269465Y2615597D01*
X1267100Y2616314D01*
X1265476Y2619352D01*
X1262040Y2623540D01*
X1257852Y2626976D01*
X1253075Y2629530D01*
X1247891Y2631102D01*
X1242500Y2631633D01*
X1136500Y2631633D01*
X1131109Y2631102D01*
X1125925Y2629530D01*
X1121148Y2626976D01*
X1116961Y2623540D01*
X1113524Y2619352D01*
X1110970Y2614575D01*
X1109398Y2609391D01*
X1108867Y2604000D01*
X1108867Y2539000D01*
X1109398Y2533609D01*
X1110970Y2528425D01*
X1113524Y2523648D01*
X1116961Y2519461D01*
X1121148Y2516024D01*
X1125925Y2513470D01*
X1131109Y2511898D01*
X1136500Y2511367D01*
X1242500Y2511367D01*
X1247807Y2511890D01*
X1249185Y2511153D01*
X1256283Y2509000D01*
X1258138Y2508437D01*
X1267450Y2507520D01*
X1269783Y2507750D01*
X1278406Y2507750D01*
X1279411Y2505870D01*
X1285568Y2498368D01*
X1293070Y2492211D01*
X1301629Y2487636D01*
X1310917Y2484818D01*
X1320575Y2483867D01*
X1371825Y2483867D01*
X1381484Y2484818D01*
X1390771Y2487636D01*
X1399330Y2492211D01*
X1406832Y2498368D01*
X1412989Y2505870D01*
X1417564Y2514429D01*
X1418722Y2518244D01*
X1420631Y2508643D01*
X1428735Y2489080D01*
X1440499Y2471473D01*
X1455473Y2456499D01*
X1473080Y2444735D01*
X1492643Y2436631D01*
X1513412Y2432500D01*
X1534588Y2432500D01*
X1555357Y2436631D01*
X1574920Y2444735D01*
X1592527Y2456499D01*
X1607501Y2471473D01*
X1619265Y2489080D01*
X1623500Y2499303D01*
X1623500Y2326697D01*
X1619265Y2336920D01*
X1607501Y2354527D01*
X1592527Y2369501D01*
X1574920Y2381265D01*
X1555357Y2389369D01*
X1534588Y2393500D01*
X1513412Y2393500D01*
X1492643Y2389369D01*
X1473080Y2381265D01*
X1455473Y2369501D01*
X1440499Y2354527D01*
X1428735Y2336920D01*
X1420631Y2317357D01*
X1416500Y2296588D01*
X1416500Y2275412D01*
X1420631Y2254643D01*
X1428735Y2235080D01*
X1440499Y2217473D01*
X1455473Y2202499D01*
X1473080Y2190735D01*
X1492643Y2182631D01*
X1513412Y2178500D01*
X1534588Y2178500D01*
X1555357Y2182631D01*
X1574920Y2190735D01*
X1592527Y2202499D01*
X1607501Y2217473D01*
X1619265Y2235080D01*
X1623500Y2245303D01*
X1623500Y2072697D01*
X1619265Y2082920D01*
X1607501Y2100527D01*
X1592527Y2115501D01*
X1574920Y2127265D01*
X1555357Y2135369D01*
X1534588Y2139500D01*
X1513412Y2139500D01*
X1492643Y2135369D01*
X1473080Y2127265D01*
X1455473Y2115501D01*
X1440499Y2100527D01*
X1428735Y2082920D01*
X1420631Y2063357D01*
X1416500Y2042588D01*
X1416500Y2021412D01*
X1420631Y2000643D01*
X1428735Y1981080D01*
X1440499Y1963473D01*
X1455473Y1948499D01*
X1473080Y1936735D01*
X1492643Y1928631D01*
X1513412Y1924500D01*
X1534588Y1924500D01*
X1555357Y1928631D01*
X1574920Y1936735D01*
X1592527Y1948499D01*
X1607501Y1963473D01*
X1619265Y1981080D01*
X1623500Y1991303D01*
X1623500Y1818697D01*
X1619265Y1828920D01*
X1607501Y1846527D01*
X1592527Y1861501D01*
X1574920Y1873265D01*
X1555357Y1881369D01*
X1534588Y1885500D01*
X1513412Y1885500D01*
X1492643Y1881369D01*
X1473080Y1873265D01*
X1455473Y1861501D01*
X1440499Y1846527D01*
X1428735Y1828920D01*
X1420631Y1809357D01*
X1416500Y1788588D01*
X1416500Y1767412D01*
X1420631Y1746643D01*
X1428735Y1727080D01*
X1440499Y1709473D01*
X1455473Y1694499D01*
X1473080Y1682735D01*
X1492643Y1674631D01*
X1513412Y1670500D01*
X1534588Y1670500D01*
X1555357Y1674631D01*
X1574920Y1682735D01*
X1592527Y1694499D01*
X1607501Y1709473D01*
X1619265Y1727080D01*
X1623500Y1737303D01*
X1623500Y1564697D01*
X1619265Y1574920D01*
X1607501Y1592527D01*
X1592527Y1607501D01*
X1574920Y1619265D01*
X1555357Y1627369D01*
X1534588Y1631500D01*
X1513412Y1631500D01*
X1492643Y1627369D01*
X1473080Y1619265D01*
X1455473Y1607501D01*
X1440499Y1592527D01*
X1428735Y1574920D01*
X1420631Y1555357D01*
X1416500Y1534588D01*
X1416500Y1513412D01*
X1420631Y1492643D01*
X1428735Y1473080D01*
X1440499Y1455473D01*
X1455473Y1440499D01*
X1473080Y1428735D01*
X1492643Y1420631D01*
X1513412Y1416500D01*
X1534588Y1416500D01*
X1555357Y1420631D01*
X1574920Y1428735D01*
X1592527Y1440499D01*
X1607501Y1455473D01*
X1619265Y1473080D01*
X1623500Y1483303D01*
X1623500Y1310697D01*
X1619265Y1320920D01*
X1607501Y1338527D01*
X1592527Y1353501D01*
X1574920Y1365265D01*
X1555357Y1373369D01*
X1534588Y1377500D01*
X1513412Y1377500D01*
X1492643Y1373369D01*
X1473080Y1365265D01*
X1455473Y1353501D01*
X1440499Y1338527D01*
X1428735Y1320920D01*
X1420631Y1301357D01*
X1416500Y1280588D01*
X1416500Y1259412D01*
X1420631Y1238643D01*
X1428735Y1219080D01*
X1440499Y1201473D01*
X1455473Y1186499D01*
X1473080Y1174735D01*
X1492643Y1166631D01*
X1513412Y1162500D01*
X1534588Y1162500D01*
X1555357Y1166631D01*
X1574920Y1174735D01*
X1592527Y1186499D01*
X1607501Y1201473D01*
X1619265Y1219080D01*
X1623500Y1229304D01*
X1623500Y1056697D01*
X1619265Y1066920D01*
X1607501Y1084527D01*
X1592527Y1099501D01*
X1574920Y1111265D01*
X1555357Y1119369D01*
X1534588Y1123500D01*
X1513412Y1123500D01*
X1492643Y1119369D01*
X1473080Y1111265D01*
X1455473Y1099501D01*
X1440499Y1084527D01*
X1428735Y1066920D01*
X1420631Y1047357D01*
X1416500Y1026588D01*
X1416500Y1005412D01*
X1420631Y984643D01*
X1428735Y965080D01*
X1440499Y947473D01*
X1455473Y932499D01*
X1473080Y920735D01*
X1492643Y912631D01*
X1513412Y908500D01*
X1534588Y908500D01*
X1555357Y912631D01*
X1574920Y920735D01*
X1592527Y932499D01*
X1607501Y947473D01*
X1619265Y965080D01*
X1623500Y975303D01*
X1623500Y802696D01*
X1619265Y812920D01*
X1607501Y830527D01*
X1592527Y845501D01*
X1574920Y857265D01*
X1555357Y865369D01*
X1534588Y869500D01*
X1513412Y869500D01*
X1492643Y865369D01*
X1473080Y857265D01*
X1455473Y845501D01*
X1440499Y830527D01*
X1428735Y812920D01*
X1420631Y793357D01*
X1416500Y772588D01*
X1416500Y751412D01*
X1420631Y730643D01*
X1428735Y711080D01*
X1440499Y693473D01*
X1455473Y678499D01*
X1473080Y666735D01*
X1492643Y658631D01*
X1513412Y654500D01*
X1534588Y654500D01*
X1555357Y658631D01*
X1574920Y666735D01*
X1592527Y678499D01*
X1607501Y693473D01*
X1619265Y711080D01*
X1623500Y721303D01*
X1623500Y548697D01*
X1619265Y558920D01*
X1607501Y576527D01*
X1592527Y591501D01*
X1574920Y603265D01*
X1555357Y611369D01*
X1534588Y615500D01*
X1513412Y615500D01*
X1492643Y611369D01*
X1473080Y603265D01*
X1455473Y591501D01*
X1440499Y576527D01*
X1428735Y558920D01*
X1420631Y539357D01*
X1416500Y518588D01*
X1416500Y497412D01*
X1420631Y476643D01*
X1428735Y457080D01*
X1440499Y439473D01*
X1455473Y424499D01*
X1473080Y412735D01*
X1492643Y404631D01*
X1513412Y400500D01*
X1534588Y400500D01*
X1555357Y404631D01*
X1574920Y412735D01*
X1592527Y424499D01*
X1607501Y439473D01*
X1619265Y457080D01*
X1623500Y467303D01*
X1623500Y293493D01*
X1617727Y306646D01*
X1605655Y323920D01*
X1590446Y338506D01*
X1572683Y349845D01*
X1553049Y357501D01*
X1536500Y353896D01*
X1536500Y266500D01*
X1538500Y266500D01*
X1538500Y241500D01*
X1536500Y241500D01*
X1536500Y154104D01*
X1553049Y150499D01*
X1572683Y158155D01*
X1590446Y169494D01*
X1605655Y184080D01*
X1617727Y201354D01*
X1623500Y214507D01*
X1623500Y40696D01*
X1619265Y50920D01*
X1607501Y68527D01*
X1592527Y83501D01*
X1574920Y95265D01*
X1555357Y103369D01*
X1534588Y107500D01*
X1513412Y107500D01*
X1492643Y103369D01*
X1489223Y101952D01*
X1368738Y222437D01*
X1368737Y222438D01*
X1366224Y224951D01*
X1420499Y224951D01*
X1421803Y220651D01*
X1430273Y201354D01*
X1442344Y184080D01*
X1457554Y169494D01*
X1475317Y158155D01*
X1494951Y150499D01*
X1511500Y154104D01*
X1511500Y241500D01*
X1424154Y241500D01*
X1420499Y224951D01*
X1366224Y224951D01*
X1308126Y283049D01*
X1420499Y283049D01*
X1424154Y266500D01*
X1511500Y266500D01*
X1511500Y353896D01*
X1494951Y357501D01*
X1475317Y349845D01*
X1457554Y338506D01*
X1442344Y323920D01*
X1430273Y306646D01*
X1421803Y287349D01*
X1420499Y283049D01*
X1308126Y283049D01*
X1165538Y425637D01*
X1164050Y427450D01*
X1156817Y433386D01*
X1148565Y437797D01*
X1139612Y440513D01*
X1132633Y441200D01*
X1130300Y441430D01*
X1127967Y441200D01*
X857875Y441200D01*
X835606Y463469D01*
X842625Y463500D01*
X849500Y470375D01*
X849500Y653500D01*
X874500Y653500D01*
X874500Y470375D01*
X881375Y463500D01*
X912000Y463367D01*
X917391Y463898D01*
X922575Y465470D01*
X927352Y468024D01*
X931540Y471460D01*
X934976Y475648D01*
X937530Y480425D01*
X939102Y485609D01*
X939633Y491000D01*
X939500Y646625D01*
X932625Y653500D01*
X874500Y653500D01*
X849500Y653500D01*
X847500Y653500D01*
X847500Y678500D01*
X849500Y678500D01*
X849500Y861625D01*
X874500Y861625D01*
X874500Y678500D01*
X932625Y678500D01*
X939500Y685375D01*
X939633Y841000D01*
X939102Y846391D01*
X937530Y851575D01*
X934976Y856352D01*
X931540Y860540D01*
X927352Y863976D01*
X922575Y866530D01*
X917391Y868102D01*
X912000Y868633D01*
X881375Y868500D01*
X874500Y861625D01*
X849500Y861625D01*
X842625Y868500D01*
X812000Y868633D01*
X809500Y868387D01*
X809500Y934701D01*
X815130Y937711D01*
X822632Y943868D01*
X828789Y951370D01*
X833364Y959929D01*
X836182Y969216D01*
X837133Y978875D01*
X837133Y1022625D01*
X836182Y1032283D01*
X834751Y1037000D01*
X879749Y1037000D01*
X878318Y1032283D01*
X877367Y1022625D01*
X877367Y978875D01*
X878318Y969216D01*
X881136Y959929D01*
X885711Y951370D01*
X891868Y943868D01*
X899370Y937711D01*
X907929Y933136D01*
X917216Y930318D01*
X926875Y929367D01*
X978125Y929367D01*
X987783Y930318D01*
X997071Y933136D01*
X1005630Y937711D01*
X1013132Y943868D01*
X1019289Y951370D01*
X1020294Y953250D01*
X1025236Y953250D01*
X1032436Y950268D01*
X1042579Y948250D01*
X1052921Y948250D01*
X1063064Y950268D01*
X1070264Y953250D01*
X1075206Y953250D01*
X1076211Y951370D01*
X1082368Y943868D01*
X1089870Y937711D01*
X1098429Y933136D01*
X1107717Y930318D01*
X1117375Y929367D01*
X1168625Y929367D01*
X1178284Y930318D01*
X1187571Y933136D01*
X1196130Y937711D01*
X1203632Y943868D01*
X1209789Y951370D01*
X1210794Y953250D01*
X1265706Y953250D01*
X1266711Y951370D01*
X1272868Y943868D01*
X1280370Y937711D01*
X1288929Y933136D01*
X1298217Y930318D01*
X1307875Y929367D01*
X1359125Y929367D01*
X1368784Y930318D01*
X1378071Y933136D01*
X1386630Y937711D01*
X1394132Y943868D01*
X1400289Y951370D01*
X1404864Y959929D01*
X1407682Y969216D01*
X1408633Y978875D01*
X1408633Y1022625D01*
X1407682Y1032283D01*
X1404864Y1041571D01*
X1400289Y1050130D01*
X1394132Y1057632D01*
X1386630Y1063789D01*
X1378071Y1068364D01*
X1368784Y1071182D01*
X1359125Y1072133D01*
X1307875Y1072133D01*
X1298217Y1071182D01*
X1288929Y1068364D01*
X1280370Y1063789D01*
X1272868Y1057632D01*
X1266711Y1050130D01*
X1265706Y1048250D01*
X1210794Y1048250D01*
X1209789Y1050130D01*
X1203632Y1057632D01*
X1196130Y1063789D01*
X1187571Y1068364D01*
X1178284Y1071182D01*
X1168625Y1072133D01*
X1117375Y1072133D01*
X1107717Y1071182D01*
X1098429Y1068364D01*
X1089870Y1063789D01*
X1082368Y1057632D01*
X1076211Y1050130D01*
X1075206Y1048250D01*
X1070264Y1048250D01*
X1063064Y1051232D01*
X1052921Y1053250D01*
X1042579Y1053250D01*
X1035807Y1051903D01*
X1069976Y1086072D01*
X1071597Y1087403D01*
X1076908Y1093874D01*
X1077023Y1094088D01*
X1080148Y1091524D01*
X1084925Y1088970D01*
X1090109Y1087398D01*
X1095500Y1086867D01*
X1123625Y1087000D01*
X1130500Y1093875D01*
X1130500Y1145750D01*
X1155500Y1145750D01*
X1155500Y1093875D01*
X1162375Y1087000D01*
X1190500Y1086867D01*
X1195891Y1087398D01*
X1201075Y1088970D01*
X1205852Y1091524D01*
X1210040Y1094960D01*
X1213476Y1099148D01*
X1216030Y1103925D01*
X1217602Y1109109D01*
X1218133Y1114500D01*
X1258367Y1114500D01*
X1258898Y1109109D01*
X1260470Y1103925D01*
X1263024Y1099148D01*
X1266460Y1094960D01*
X1270648Y1091524D01*
X1275425Y1088970D01*
X1280609Y1087398D01*
X1286000Y1086867D01*
X1314125Y1087000D01*
X1321000Y1093875D01*
X1321000Y1145750D01*
X1346000Y1145750D01*
X1346000Y1093875D01*
X1352875Y1087000D01*
X1381000Y1086867D01*
X1386391Y1087398D01*
X1391575Y1088970D01*
X1396352Y1091524D01*
X1400540Y1094960D01*
X1403976Y1099148D01*
X1406530Y1103925D01*
X1408102Y1109109D01*
X1408633Y1114500D01*
X1408500Y1138875D01*
X1401625Y1145750D01*
X1346000Y1145750D01*
X1321000Y1145750D01*
X1265375Y1145750D01*
X1258500Y1138875D01*
X1258367Y1114500D01*
X1218133Y1114500D01*
X1218000Y1138875D01*
X1211125Y1145750D01*
X1155500Y1145750D01*
X1130500Y1145750D01*
X1128500Y1145750D01*
X1128500Y1170750D01*
X1130500Y1170750D01*
X1130500Y1222625D01*
X1155500Y1222625D01*
X1155500Y1170750D01*
X1211125Y1170750D01*
X1218000Y1177625D01*
X1218133Y1202000D01*
X1258367Y1202000D01*
X1258500Y1177625D01*
X1265375Y1170750D01*
X1321000Y1170750D01*
X1321000Y1222625D01*
X1346000Y1222625D01*
X1346000Y1170750D01*
X1401625Y1170750D01*
X1408500Y1177625D01*
X1408633Y1202000D01*
X1408102Y1207391D01*
X1406530Y1212575D01*
X1403976Y1217352D01*
X1400540Y1221540D01*
X1396352Y1224976D01*
X1391575Y1227530D01*
X1386391Y1229102D01*
X1381000Y1229633D01*
X1352875Y1229500D01*
X1346000Y1222625D01*
X1321000Y1222625D01*
X1314125Y1229500D01*
X1286000Y1229633D01*
X1280609Y1229102D01*
X1275425Y1227530D01*
X1270648Y1224976D01*
X1266460Y1221540D01*
X1263024Y1217352D01*
X1260470Y1212575D01*
X1258898Y1207391D01*
X1258367Y1202000D01*
X1218133Y1202000D01*
X1217602Y1207391D01*
X1216030Y1212575D01*
X1213476Y1217352D01*
X1210040Y1221540D01*
X1205852Y1224976D01*
X1201075Y1227530D01*
X1195891Y1229102D01*
X1190500Y1229633D01*
X1162375Y1229500D01*
X1155500Y1222625D01*
X1130500Y1222625D01*
X1123625Y1229500D01*
X1095500Y1229633D01*
X1090109Y1229102D01*
X1084925Y1227530D01*
X1083367Y1226697D01*
X1083285Y1227531D01*
X1080855Y1235543D01*
X1076908Y1242926D01*
X1071597Y1249397D01*
X1069976Y1250728D01*
X1045800Y1274904D01*
X1045800Y1344113D01*
X1046006Y1346200D01*
X1045185Y1354531D01*
X1042755Y1362543D01*
X1042552Y1362922D01*
X1038808Y1369926D01*
X1033497Y1376397D01*
X1031876Y1377728D01*
X971328Y1438276D01*
X969997Y1439897D01*
X963526Y1445208D01*
X956143Y1449155D01*
X948131Y1451585D01*
X941887Y1452200D01*
X941887Y1452200D01*
X939800Y1452405D01*
X937713Y1452200D01*
X932004Y1452200D01*
X904079Y1480125D01*
X904633Y1485750D01*
X904633Y1550750D01*
X904410Y1553010D01*
X907575Y1553970D01*
X912352Y1556524D01*
X916540Y1559960D01*
X919976Y1564148D01*
X922530Y1568925D01*
X923434Y1571906D01*
X938875Y1572000D01*
X945750Y1578875D01*
X945750Y1607000D01*
X943750Y1607000D01*
X943750Y1627000D01*
X945750Y1627000D01*
X945750Y1631500D01*
X970750Y1631500D01*
X970750Y1627000D01*
X972750Y1627000D01*
X972750Y1607000D01*
X970750Y1607000D01*
X970750Y1578875D01*
X977625Y1572000D01*
X992550Y1571909D01*
X992550Y1545137D01*
X992344Y1543050D01*
X992550Y1540963D01*
X992550Y1540963D01*
X992951Y1536887D01*
X993165Y1534719D01*
X993205Y1534588D01*
X995595Y1526707D01*
X999542Y1519324D01*
X1004853Y1512853D01*
X1006474Y1511522D01*
X1022572Y1495424D01*
X1023903Y1493803D01*
X1030374Y1488492D01*
X1035850Y1485565D01*
X1037757Y1484545D01*
X1044219Y1482585D01*
X1045769Y1482115D01*
X1052013Y1481500D01*
X1052013Y1481500D01*
X1054100Y1481294D01*
X1056187Y1481500D01*
X1059507Y1481500D01*
X1060136Y1479429D01*
X1064711Y1470870D01*
X1070868Y1463368D01*
X1078370Y1457211D01*
X1085250Y1453533D01*
X1085250Y1403967D01*
X1078370Y1400289D01*
X1070868Y1394132D01*
X1064711Y1386630D01*
X1060136Y1378071D01*
X1057318Y1368784D01*
X1056367Y1359125D01*
X1056367Y1307875D01*
X1057318Y1298217D01*
X1060136Y1288929D01*
X1064711Y1280370D01*
X1070868Y1272868D01*
X1078370Y1266711D01*
X1086929Y1262136D01*
X1096217Y1259318D01*
X1105875Y1258367D01*
X1149625Y1258367D01*
X1159284Y1259318D01*
X1168571Y1262136D01*
X1177130Y1266711D01*
X1184632Y1272868D01*
X1190789Y1280370D01*
X1193799Y1286000D01*
X1213867Y1286000D01*
X1214398Y1280609D01*
X1215970Y1275425D01*
X1218524Y1270648D01*
X1221960Y1266460D01*
X1226148Y1263024D01*
X1230925Y1260470D01*
X1236109Y1258898D01*
X1241500Y1258367D01*
X1265875Y1258500D01*
X1272750Y1265375D01*
X1272750Y1321000D01*
X1297750Y1321000D01*
X1297750Y1265375D01*
X1304625Y1258500D01*
X1329000Y1258367D01*
X1334391Y1258898D01*
X1339575Y1260470D01*
X1344352Y1263024D01*
X1348540Y1266460D01*
X1351976Y1270648D01*
X1354530Y1275425D01*
X1356102Y1280609D01*
X1356633Y1286000D01*
X1356500Y1314125D01*
X1349625Y1321000D01*
X1297750Y1321000D01*
X1272750Y1321000D01*
X1220875Y1321000D01*
X1214000Y1314125D01*
X1213867Y1286000D01*
X1193799Y1286000D01*
X1195364Y1288929D01*
X1198182Y1298217D01*
X1199133Y1307875D01*
X1199133Y1359125D01*
X1198182Y1368784D01*
X1195364Y1378071D01*
X1193799Y1381000D01*
X1213867Y1381000D01*
X1214000Y1352875D01*
X1220875Y1346000D01*
X1272750Y1346000D01*
X1272750Y1401625D01*
X1297750Y1401625D01*
X1297750Y1346000D01*
X1349625Y1346000D01*
X1356500Y1352875D01*
X1356633Y1381000D01*
X1356102Y1386391D01*
X1354530Y1391575D01*
X1351976Y1396352D01*
X1348540Y1400540D01*
X1344352Y1403976D01*
X1339575Y1406530D01*
X1334391Y1408102D01*
X1329000Y1408633D01*
X1304625Y1408500D01*
X1297750Y1401625D01*
X1272750Y1401625D01*
X1265875Y1408500D01*
X1241500Y1408633D01*
X1236109Y1408102D01*
X1230925Y1406530D01*
X1226148Y1403976D01*
X1221960Y1400540D01*
X1218524Y1396352D01*
X1215970Y1391575D01*
X1214398Y1386391D01*
X1213867Y1381000D01*
X1193799Y1381000D01*
X1190789Y1386630D01*
X1184632Y1394132D01*
X1177130Y1400289D01*
X1170250Y1403967D01*
X1170250Y1453533D01*
X1177130Y1457211D01*
X1184632Y1463368D01*
X1190789Y1470870D01*
X1195364Y1479429D01*
X1196690Y1483800D01*
X1216310Y1483800D01*
X1217636Y1479429D01*
X1222211Y1470870D01*
X1228368Y1463368D01*
X1235870Y1457211D01*
X1244429Y1452636D01*
X1253717Y1449818D01*
X1263375Y1448867D01*
X1307125Y1448867D01*
X1316784Y1449818D01*
X1326071Y1452636D01*
X1334630Y1457211D01*
X1342132Y1463368D01*
X1348289Y1470870D01*
X1352864Y1479429D01*
X1355682Y1488716D01*
X1356409Y1496104D01*
X1358907Y1500776D01*
X1360472Y1505935D01*
X1361000Y1511300D01*
X1361000Y1562100D01*
X1360472Y1567465D01*
X1358907Y1572624D01*
X1356365Y1577378D01*
X1352945Y1581545D01*
X1294991Y1639500D01*
X1297750Y1639500D01*
X1297750Y1646375D01*
X1304625Y1639500D01*
X1329000Y1639367D01*
X1334391Y1639898D01*
X1339575Y1641470D01*
X1344352Y1644024D01*
X1348540Y1647460D01*
X1351976Y1651648D01*
X1354530Y1656425D01*
X1356102Y1661609D01*
X1356633Y1667000D01*
X1356500Y1695125D01*
X1349625Y1702000D01*
X1297750Y1702000D01*
X1297750Y1700000D01*
X1272750Y1700000D01*
X1272750Y1702000D01*
X1270750Y1702000D01*
X1270750Y1727000D01*
X1272750Y1727000D01*
X1272750Y1782625D01*
X1297750Y1782625D01*
X1297750Y1727000D01*
X1349625Y1727000D01*
X1356500Y1733875D01*
X1356633Y1762000D01*
X1356102Y1767391D01*
X1354530Y1772575D01*
X1351976Y1777352D01*
X1348540Y1781540D01*
X1344352Y1784976D01*
X1339575Y1787530D01*
X1334391Y1789102D01*
X1329000Y1789633D01*
X1304625Y1789500D01*
X1297750Y1782625D01*
X1272750Y1782625D01*
X1265875Y1789500D01*
X1246700Y1789605D01*
X1246700Y1829895D01*
X1265875Y1830000D01*
X1272750Y1836875D01*
X1272750Y1892500D01*
X1297750Y1892500D01*
X1297750Y1836875D01*
X1304625Y1830000D01*
X1329000Y1829867D01*
X1334391Y1830398D01*
X1339575Y1831970D01*
X1344352Y1834524D01*
X1348540Y1837960D01*
X1351976Y1842148D01*
X1354530Y1846925D01*
X1356102Y1852109D01*
X1356633Y1857500D01*
X1356500Y1885625D01*
X1349625Y1892500D01*
X1297750Y1892500D01*
X1272750Y1892500D01*
X1270750Y1892500D01*
X1270750Y1917500D01*
X1272750Y1917500D01*
X1272750Y1973125D01*
X1297750Y1973125D01*
X1297750Y1917500D01*
X1349625Y1917500D01*
X1356500Y1924375D01*
X1356633Y1952500D01*
X1356102Y1957891D01*
X1354530Y1963075D01*
X1351976Y1967852D01*
X1348540Y1972040D01*
X1344352Y1975476D01*
X1339575Y1978030D01*
X1334391Y1979602D01*
X1329000Y1980133D01*
X1304625Y1980000D01*
X1297750Y1973125D01*
X1272750Y1973125D01*
X1265875Y1980000D01*
X1244021Y1980119D01*
X1242065Y1983778D01*
X1238645Y1987945D01*
X1200545Y2026045D01*
X1196378Y2029465D01*
X1191624Y2032007D01*
X1186465Y2033572D01*
X1181100Y2034100D01*
X853000Y2034100D01*
X853000Y2042577D01*
X856275Y2043570D01*
X861052Y2046124D01*
X865239Y2049560D01*
X868676Y2053748D01*
X871230Y2058525D01*
X872802Y2063709D01*
X873333Y2069100D01*
X873333Y2126563D01*
X945800Y2126563D01*
X945800Y2115237D01*
X948010Y2104128D01*
X952344Y2093663D01*
X958637Y2084246D01*
X966646Y2076237D01*
X976063Y2069944D01*
X986528Y2065610D01*
X997637Y2063400D01*
X1008963Y2063400D01*
X1020072Y2065610D01*
X1030536Y2069944D01*
X1039954Y2076237D01*
X1047963Y2084246D01*
X1054256Y2093663D01*
X1058590Y2104128D01*
X1059804Y2110229D01*
X1068537Y2118962D01*
X1068538Y2118963D01*
X1148556Y2198980D01*
X1147400Y2196190D01*
X1142500Y2171558D01*
X1142500Y2146442D01*
X1147400Y2121810D01*
X1157011Y2098606D01*
X1170964Y2077723D01*
X1188724Y2059964D01*
X1209606Y2046011D01*
X1232810Y2036400D01*
X1257442Y2031500D01*
X1282558Y2031500D01*
X1307190Y2036400D01*
X1330394Y2046011D01*
X1351277Y2059964D01*
X1369036Y2077723D01*
X1382989Y2098606D01*
X1392600Y2121810D01*
X1397500Y2146442D01*
X1397500Y2171558D01*
X1392600Y2196190D01*
X1382989Y2219394D01*
X1369036Y2240277D01*
X1351277Y2258036D01*
X1330394Y2271989D01*
X1307190Y2281600D01*
X1282558Y2286500D01*
X1257442Y2286500D01*
X1232810Y2281600D01*
X1228585Y2279850D01*
X1229186Y2280583D01*
X1233597Y2288835D01*
X1236313Y2297788D01*
X1237000Y2304767D01*
X1237230Y2307100D01*
X1237000Y2309433D01*
X1237000Y2321367D01*
X1242500Y2321367D01*
X1247891Y2321898D01*
X1253075Y2323470D01*
X1257852Y2326024D01*
X1262040Y2329461D01*
X1265476Y2333648D01*
X1268030Y2338425D01*
X1269602Y2343609D01*
X1270133Y2349000D01*
X1270133Y2354000D01*
X1271067Y2354000D01*
X1271598Y2348609D01*
X1273170Y2343425D01*
X1275724Y2338648D01*
X1279160Y2334460D01*
X1283348Y2331024D01*
X1288125Y2328470D01*
X1293309Y2326898D01*
X1298700Y2326367D01*
X1326825Y2326500D01*
X1333700Y2333375D01*
X1333700Y2385250D01*
X1358700Y2385250D01*
X1358700Y2333375D01*
X1365575Y2326500D01*
X1393700Y2326367D01*
X1399091Y2326898D01*
X1404275Y2328470D01*
X1409052Y2331024D01*
X1413240Y2334460D01*
X1416676Y2338648D01*
X1419230Y2343425D01*
X1420802Y2348609D01*
X1421333Y2354000D01*
X1421200Y2378375D01*
X1414325Y2385250D01*
X1358700Y2385250D01*
X1333700Y2385250D01*
X1278075Y2385250D01*
X1271200Y2378375D01*
X1271067Y2354000D01*
X1270133Y2354000D01*
X1270133Y2414000D01*
X1269602Y2419391D01*
X1268030Y2424575D01*
X1265476Y2429352D01*
X1262040Y2433540D01*
X1257852Y2436976D01*
X1253075Y2439530D01*
X1247891Y2441102D01*
X1243850Y2441500D01*
X1271067Y2441500D01*
X1271200Y2417125D01*
X1278075Y2410250D01*
X1333700Y2410250D01*
X1333700Y2462125D01*
X1358700Y2462125D01*
X1358700Y2410250D01*
X1414325Y2410250D01*
X1421200Y2417125D01*
X1421333Y2441500D01*
X1420802Y2446891D01*
X1419230Y2452075D01*
X1416676Y2456852D01*
X1413240Y2461040D01*
X1409052Y2464476D01*
X1404275Y2467030D01*
X1399091Y2468602D01*
X1393700Y2469133D01*
X1365575Y2469000D01*
X1358700Y2462125D01*
X1333700Y2462125D01*
X1326825Y2469000D01*
X1298700Y2469133D01*
X1293309Y2468602D01*
X1288125Y2467030D01*
X1283348Y2464476D01*
X1279160Y2461040D01*
X1275724Y2456852D01*
X1273170Y2452075D01*
X1271598Y2446891D01*
X1271067Y2441500D01*
X1243850Y2441500D01*
X1242500Y2441633D01*
X1136500Y2441633D01*
X1131109Y2441102D01*
X1125925Y2439530D01*
X1121148Y2436976D01*
X1116961Y2433540D01*
X1113524Y2429352D01*
X1110970Y2424575D01*
X1109398Y2419391D01*
X1108867Y2414000D01*
X1108867Y2349000D01*
X1109398Y2343609D01*
X1110970Y2338425D01*
X1113524Y2333648D01*
X1116961Y2329461D01*
X1121148Y2326024D01*
X1125925Y2323470D01*
X1131109Y2321898D01*
X1136500Y2321367D01*
X1136592Y2321367D01*
X1001363Y2186138D01*
X1001362Y2186137D01*
X992629Y2177404D01*
X986528Y2176190D01*
X976063Y2171856D01*
X966646Y2165563D01*
X958637Y2157554D01*
X952344Y2148137D01*
X948010Y2137672D01*
X945800Y2126563D01*
X873333Y2126563D01*
X873333Y2444000D01*
X888867Y2444000D01*
X889398Y2438609D01*
X890970Y2433425D01*
X893336Y2429000D01*
X890970Y2424575D01*
X889398Y2419391D01*
X888867Y2414000D01*
X888867Y2349000D01*
X889398Y2343609D01*
X890970Y2338425D01*
X893524Y2333648D01*
X896960Y2329461D01*
X901148Y2326024D01*
X905925Y2323470D01*
X911109Y2321898D01*
X912000Y2321810D01*
X912000Y2266175D01*
X912832Y2257728D01*
X916120Y2246889D01*
X921459Y2236900D01*
X928645Y2228145D01*
X937400Y2220959D01*
X947389Y2215620D01*
X958228Y2212332D01*
X969500Y2211222D01*
X980772Y2212332D01*
X991611Y2215620D01*
X1001600Y2220959D01*
X1010355Y2228145D01*
X1017541Y2236900D01*
X1022880Y2246889D01*
X1026168Y2257728D01*
X1027000Y2266175D01*
X1027000Y2321810D01*
X1027891Y2321898D01*
X1033075Y2323470D01*
X1037852Y2326024D01*
X1042039Y2329461D01*
X1045476Y2333648D01*
X1048030Y2338425D01*
X1049602Y2343609D01*
X1050133Y2349000D01*
X1050133Y2414000D01*
X1049602Y2419391D01*
X1048030Y2424575D01*
X1045664Y2429000D01*
X1048030Y2433425D01*
X1049602Y2438609D01*
X1050133Y2444000D01*
X1050000Y2457125D01*
X1043125Y2464000D01*
X982000Y2464000D01*
X982000Y2462000D01*
X957000Y2462000D01*
X957000Y2464000D01*
X895875Y2464000D01*
X889000Y2457125D01*
X888867Y2444000D01*
X873333Y2444000D01*
X873333Y2509000D01*
X888867Y2509000D01*
X889000Y2495875D01*
X895875Y2489000D01*
X957000Y2489000D01*
X957000Y2491000D01*
X982000Y2491000D01*
X982000Y2489000D01*
X1043125Y2489000D01*
X1050000Y2495875D01*
X1050133Y2509000D01*
X1049602Y2514391D01*
X1048030Y2519575D01*
X1045664Y2524000D01*
X1048030Y2528425D01*
X1049602Y2533609D01*
X1050133Y2539000D01*
X1050133Y2604000D01*
X1049602Y2609391D01*
X1048030Y2614575D01*
X1045476Y2619352D01*
X1042039Y2623540D01*
X1037852Y2626976D01*
X1033075Y2629530D01*
X1027891Y2631102D01*
X1022500Y2631633D01*
X916500Y2631633D01*
X911109Y2631102D01*
X905925Y2629530D01*
X901148Y2626976D01*
X896960Y2623540D01*
X893524Y2619352D01*
X890970Y2614575D01*
X889398Y2609391D01*
X888867Y2604000D01*
X888867Y2539000D01*
X889398Y2533609D01*
X890970Y2528425D01*
X893336Y2524000D01*
X890970Y2519575D01*
X889398Y2514391D01*
X888867Y2509000D01*
X873333Y2509000D01*
X873333Y2579100D01*
X872802Y2584491D01*
X871230Y2589675D01*
X868676Y2594452D01*
X865239Y2598640D01*
X861052Y2602076D01*
X856275Y2604630D01*
X851091Y2606202D01*
X845700Y2606733D01*
X610700Y2606733D01*
X605309Y2606202D01*
X600125Y2604630D01*
X595348Y2602076D01*
X591161Y2598640D01*
X587724Y2594452D01*
X585170Y2589675D01*
X583598Y2584491D01*
X583067Y2579100D01*
X583067Y2069100D01*
X583598Y2063709D01*
X585170Y2058525D01*
X587724Y2053748D01*
X591161Y2049560D01*
X595348Y2046124D01*
X600125Y2043570D01*
X605309Y2041998D01*
X610700Y2041467D01*
X621973Y2041467D01*
X620728Y2037365D01*
X620200Y2032000D01*
X620200Y1950789D01*
X620066Y1950348D01*
X619367Y1943250D01*
X619367Y1878250D01*
X619590Y1875990D01*
X616425Y1875030D01*
X611648Y1872476D01*
X607460Y1869040D01*
X604024Y1864852D01*
X601470Y1860075D01*
X600566Y1857094D01*
X585125Y1857000D01*
X578250Y1850125D01*
X578250Y1822000D01*
X580250Y1822000D01*
X580250Y1802000D01*
X578250Y1802000D01*
X578250Y1757000D01*
X580250Y1757000D01*
X580250Y1737000D01*
X578250Y1737000D01*
X578250Y1692000D01*
X580250Y1692000D01*
X580250Y1678500D01*
X533400Y1678500D01*
X528035Y1677972D01*
X522876Y1676407D01*
X518122Y1673865D01*
X515849Y1672000D01*
X503875Y1672000D01*
X497000Y1665125D01*
X496867Y1664500D01*
X497398Y1659109D01*
X498613Y1655104D01*
X488555Y1645045D01*
X485135Y1640878D01*
X482593Y1636124D01*
X481028Y1630965D01*
X480500Y1625600D01*
X480500Y1560791D01*
X467521Y1547812D01*
X467633Y1571500D01*
X467102Y1576891D01*
X465530Y1582075D01*
X462976Y1586852D01*
X459540Y1591040D01*
X455352Y1594476D01*
X450575Y1597030D01*
X445391Y1598602D01*
X440000Y1599133D01*
X415625Y1599000D01*
X408750Y1592125D01*
X408750Y1536500D01*
X410750Y1536500D01*
X410750Y1513400D01*
X392391Y1513400D01*
X381750Y1524041D01*
X381750Y1536500D01*
X383750Y1536500D01*
X383750Y1592125D01*
X376875Y1599000D01*
X370400Y1599035D01*
X370400Y1639465D01*
X376875Y1639500D01*
X383750Y1646375D01*
X383750Y1702000D01*
X408750Y1702000D01*
X408750Y1646375D01*
X415625Y1639500D01*
X440000Y1639367D01*
X445391Y1639898D01*
X450575Y1641470D01*
X455352Y1644024D01*
X459540Y1647460D01*
X462976Y1651648D01*
X465530Y1656425D01*
X467102Y1661609D01*
X467633Y1667000D01*
X467500Y1695125D01*
X460625Y1702000D01*
X408750Y1702000D01*
X383750Y1702000D01*
X381750Y1702000D01*
X381750Y1727000D01*
X383750Y1727000D01*
X383750Y1782625D01*
X408750Y1782625D01*
X408750Y1727000D01*
X460625Y1727000D01*
X463125Y1729500D01*
X496867Y1729500D01*
X497398Y1724109D01*
X498970Y1718925D01*
X501336Y1714500D01*
X498970Y1710075D01*
X497398Y1704891D01*
X496867Y1699500D01*
X497000Y1698875D01*
X503875Y1692000D01*
X553250Y1692000D01*
X553250Y1737000D01*
X503875Y1737000D01*
X497000Y1730125D01*
X496867Y1729500D01*
X463125Y1729500D01*
X467500Y1733875D01*
X467633Y1762000D01*
X467102Y1767391D01*
X465530Y1772575D01*
X462976Y1777352D01*
X459540Y1781540D01*
X455352Y1784976D01*
X450575Y1787530D01*
X445391Y1789102D01*
X440000Y1789633D01*
X415625Y1789500D01*
X408750Y1782625D01*
X383750Y1782625D01*
X376875Y1789500D01*
X370400Y1789535D01*
X370400Y1794500D01*
X496867Y1794500D01*
X497398Y1789109D01*
X498970Y1783925D01*
X501336Y1779500D01*
X498970Y1775075D01*
X497398Y1769891D01*
X496867Y1764500D01*
X497000Y1763875D01*
X503875Y1757000D01*
X553250Y1757000D01*
X553250Y1802000D01*
X503875Y1802000D01*
X497000Y1795125D01*
X496867Y1794500D01*
X370400Y1794500D01*
X370400Y1829500D01*
X496867Y1829500D01*
X497000Y1828875D01*
X503875Y1822000D01*
X553250Y1822000D01*
X553250Y1850125D01*
X546375Y1857000D01*
X524500Y1857133D01*
X519109Y1856602D01*
X513925Y1855030D01*
X509148Y1852476D01*
X504960Y1849040D01*
X501524Y1844852D01*
X498970Y1840075D01*
X497398Y1834891D01*
X496867Y1829500D01*
X370400Y1829500D01*
X370400Y1829965D01*
X376875Y1830000D01*
X383750Y1836875D01*
X383750Y1892500D01*
X408750Y1892500D01*
X408750Y1836875D01*
X415625Y1830000D01*
X440000Y1829867D01*
X445391Y1830398D01*
X450575Y1831970D01*
X455352Y1834524D01*
X459540Y1837960D01*
X462976Y1842148D01*
X465530Y1846925D01*
X467102Y1852109D01*
X467633Y1857500D01*
X467500Y1885625D01*
X460625Y1892500D01*
X408750Y1892500D01*
X383750Y1892500D01*
X381750Y1892500D01*
X381750Y1917500D01*
X383750Y1917500D01*
X383750Y1973125D01*
X408750Y1973125D01*
X408750Y1917500D01*
X460625Y1917500D01*
X467500Y1924375D01*
X467633Y1952500D01*
X467102Y1957891D01*
X465530Y1963075D01*
X462976Y1967852D01*
X459540Y1972040D01*
X455352Y1975476D01*
X450575Y1978030D01*
X445391Y1979602D01*
X440000Y1980133D01*
X415625Y1980000D01*
X408750Y1973125D01*
X383750Y1973125D01*
X376875Y1980000D01*
X352500Y1980133D01*
X347109Y1979602D01*
X341925Y1978030D01*
X337148Y1975476D01*
X332960Y1972040D01*
X329524Y1967852D01*
X326970Y1963075D01*
X325401Y1957900D01*
X301912Y1957900D01*
X301789Y1958130D01*
X295632Y1965632D01*
X288130Y1971789D01*
X279571Y1976364D01*
X270284Y1979182D01*
X260625Y1980133D01*
X216875Y1980133D01*
X207216Y1979182D01*
X197929Y1976364D01*
X189370Y1971789D01*
X181868Y1965632D01*
X175711Y1958130D01*
X171136Y1949571D01*
X168318Y1940283D01*
X167367Y1930625D01*
X167367Y1879375D01*
X168318Y1869716D01*
X171136Y1860429D01*
X175700Y1851890D01*
X175700Y1767610D01*
X171136Y1759071D01*
X168318Y1749783D01*
X167367Y1740125D01*
X167367Y1688875D01*
X168318Y1679216D01*
X171136Y1669929D01*
X175700Y1661390D01*
X175700Y1577110D01*
X171136Y1568571D01*
X168318Y1559283D01*
X167367Y1549625D01*
X167367Y1498375D01*
X168318Y1488716D01*
X171136Y1479429D01*
X175700Y1470890D01*
X175700Y1386610D01*
X171136Y1378071D01*
X168318Y1368784D01*
X167367Y1359125D01*
X167367Y1307875D01*
X168318Y1298217D01*
X171136Y1288929D01*
X175711Y1280370D01*
X181868Y1272868D01*
X189370Y1266711D01*
X197929Y1262136D01*
X207216Y1259318D01*
X216875Y1258367D01*
X260625Y1258367D01*
X270284Y1259318D01*
X275123Y1260786D01*
X290000Y1245909D01*
X290000Y1130300D01*
X290528Y1124935D01*
X292093Y1119776D01*
X294635Y1115022D01*
X298055Y1110855D01*
X302222Y1107435D01*
X306976Y1104893D01*
X312135Y1103328D01*
X317500Y1102800D01*
X319192Y1102800D01*
X320368Y1101368D01*
X327870Y1095211D01*
X336429Y1090636D01*
X345717Y1087818D01*
X355375Y1086867D01*
X406625Y1086867D01*
X416283Y1087818D01*
X425571Y1090636D01*
X434130Y1095211D01*
X441632Y1101368D01*
X442808Y1102800D01*
X509692Y1102800D01*
X510868Y1101368D01*
X518370Y1095211D01*
X526929Y1090636D01*
X536217Y1087818D01*
X545875Y1086867D01*
X597125Y1086867D01*
X606784Y1087818D01*
X616071Y1090636D01*
X624630Y1095211D01*
X632132Y1101368D01*
X633308Y1102800D01*
X661696Y1102800D01*
X631824Y1072928D01*
X630203Y1071597D01*
X629047Y1070190D01*
X624391Y1071602D01*
X619000Y1072133D01*
X590875Y1072000D01*
X584000Y1065125D01*
X584000Y1013250D01*
X586000Y1013250D01*
X586000Y988250D01*
X584000Y988250D01*
X584000Y936375D01*
X584086Y936289D01*
X356506Y708710D01*
X356633Y710000D01*
X356633Y765000D01*
X356392Y767445D01*
X356392Y769901D01*
X355861Y775292D01*
X353949Y784905D01*
X352377Y790089D01*
X348626Y799144D01*
X346072Y803922D01*
X340627Y812072D01*
X337190Y816259D01*
X330259Y823190D01*
X326072Y826627D01*
X317922Y832072D01*
X313144Y834626D01*
X304089Y838377D01*
X298905Y839949D01*
X296500Y840427D01*
X296500Y855513D01*
X296706Y857600D01*
X295885Y865932D01*
X293455Y873943D01*
X289508Y881326D01*
X284197Y887798D01*
X282576Y889128D01*
X237350Y934354D01*
X243630Y937711D01*
X251132Y943868D01*
X257289Y951370D01*
X260967Y958250D01*
X310533Y958250D01*
X314211Y951370D01*
X320368Y943868D01*
X327870Y937711D01*
X336429Y933136D01*
X345717Y930318D01*
X355375Y929367D01*
X406625Y929367D01*
X416283Y930318D01*
X425571Y933136D01*
X434130Y937711D01*
X441632Y943868D01*
X447789Y951370D01*
X450799Y957000D01*
X496367Y957000D01*
X496898Y951609D01*
X498470Y946425D01*
X501024Y941648D01*
X504460Y937460D01*
X508648Y934024D01*
X513425Y931470D01*
X518609Y929898D01*
X524000Y929367D01*
X552125Y929500D01*
X559000Y936375D01*
X559000Y988250D01*
X503375Y988250D01*
X496500Y981375D01*
X496367Y957000D01*
X450799Y957000D01*
X452364Y959929D01*
X455182Y969216D01*
X456133Y978875D01*
X456133Y1022625D01*
X455182Y1032283D01*
X452364Y1041571D01*
X450799Y1044500D01*
X496367Y1044500D01*
X496500Y1020125D01*
X503375Y1013250D01*
X559000Y1013250D01*
X559000Y1065125D01*
X552125Y1072000D01*
X524000Y1072133D01*
X518609Y1071602D01*
X513425Y1070030D01*
X508648Y1067476D01*
X504460Y1064040D01*
X501024Y1059852D01*
X498470Y1055075D01*
X496898Y1049891D01*
X496367Y1044500D01*
X450799Y1044500D01*
X447789Y1050130D01*
X441632Y1057632D01*
X434130Y1063789D01*
X425571Y1068364D01*
X416283Y1071182D01*
X406625Y1072133D01*
X355375Y1072133D01*
X345717Y1071182D01*
X336429Y1068364D01*
X327870Y1063789D01*
X320368Y1057632D01*
X314211Y1050130D01*
X310533Y1043250D01*
X260967Y1043250D01*
X257289Y1050130D01*
X251132Y1057632D01*
X243630Y1063789D01*
X235071Y1068364D01*
X225783Y1071182D01*
X216125Y1072133D01*
X164875Y1072133D01*
X155217Y1071182D01*
X145929Y1068364D01*
X137370Y1063789D01*
X129868Y1057632D01*
X123711Y1050130D01*
X119136Y1041571D01*
X116318Y1032283D01*
X115367Y1022625D01*
X115367Y978875D01*
X116318Y969216D01*
X119136Y959929D01*
X123711Y951370D01*
X129868Y943868D01*
X137370Y937711D01*
X145929Y933136D01*
X148000Y932507D01*
X148000Y923188D01*
X147795Y921100D01*
X148591Y913015D01*
X139255Y909148D01*
X130656Y903402D01*
X123343Y896090D01*
X117598Y887491D01*
X113640Y877937D01*
X112227Y870831D01*
X98824Y857428D01*
X97203Y856098D01*
X95872Y854476D01*
X95872Y854476D01*
X95453Y853966D01*
X91892Y849626D01*
X90103Y846280D01*
X87945Y842243D01*
X85515Y834232D01*
X84839Y827364D01*
X81656Y831920D01*
X66446Y846506D01*
X48683Y857845D01*
X29049Y865501D01*
X12500Y861896D01*
X12500Y774500D01*
X14500Y774500D01*
X14500Y749500D01*
X12500Y749500D01*
X12500Y662104D01*
X29049Y658499D01*
X48683Y666155D01*
X66446Y677494D01*
X81656Y692080D01*
X84900Y696723D01*
X84900Y658687D01*
X84695Y656600D01*
X84900Y654513D01*
X84900Y654513D01*
X85515Y648269D01*
X87945Y640257D01*
X91892Y632874D01*
X97203Y626403D01*
X98824Y625072D01*
X117472Y606424D01*
X118803Y604803D01*
X125274Y599492D01*
X130750Y596565D01*
X132657Y595545D01*
X140669Y593115D01*
X146913Y592500D01*
X146913Y592500D01*
X149000Y592295D01*
X151087Y592500D01*
X151367Y592500D01*
X151367Y585000D01*
X151898Y579609D01*
X153470Y574425D01*
X154500Y572500D01*
X153470Y570575D01*
X151898Y565391D01*
X151367Y560000D01*
X151367Y505000D01*
X151608Y502555D01*
X151608Y500099D01*
X152139Y494708D01*
X154051Y485095D01*
X155623Y479911D01*
X159374Y470856D01*
X161928Y466078D01*
X167373Y457928D01*
X170810Y453741D01*
X177741Y446810D01*
X181928Y443373D01*
X190078Y437928D01*
X194856Y435374D01*
X203911Y431623D01*
X209095Y430051D01*
X218708Y428139D01*
X224099Y427608D01*
X226555Y427608D01*
X229000Y427367D01*
X279000Y427367D01*
X281445Y427608D01*
X283901Y427608D01*
X289292Y428139D01*
X298905Y430051D01*
X304089Y431623D01*
X313144Y435374D01*
X317922Y437928D01*
X326072Y443373D01*
X330259Y446810D01*
X337190Y453741D01*
X340627Y457928D01*
X343681Y462500D01*
X350513Y462500D01*
X352600Y462294D01*
X354687Y462500D01*
X354687Y462500D01*
X360931Y463115D01*
X368943Y465545D01*
X376326Y469492D01*
X382797Y474803D01*
X384128Y476424D01*
X396875Y489171D01*
X398497Y490503D01*
X403808Y496974D01*
X407755Y504357D01*
X410185Y512369D01*
X410800Y518613D01*
X411006Y520700D01*
X410800Y522787D01*
X410800Y642796D01*
X584407Y816403D01*
X584367Y816000D01*
X584367Y516000D01*
X585378Y505732D01*
X588373Y495858D01*
X593237Y486759D01*
X599783Y478783D01*
X607759Y472237D01*
X616858Y467373D01*
X626732Y464378D01*
X637000Y463367D01*
X687000Y463367D01*
X697268Y464378D01*
X707142Y467373D01*
X714404Y471255D01*
X714270Y469900D01*
X715187Y460588D01*
X717265Y453741D01*
X717903Y451635D01*
X722314Y443383D01*
X728250Y436150D01*
X730063Y434662D01*
X802962Y361762D01*
X804450Y359950D01*
X811683Y354014D01*
X819482Y349845D01*
X819935Y349603D01*
X828888Y346887D01*
X838200Y345970D01*
X840533Y346200D01*
X1110625Y346200D01*
X1180819Y276006D01*
X1176241Y279763D01*
X1167142Y284627D01*
X1157268Y287622D01*
X1147000Y288633D01*
X1047000Y288633D01*
X1036732Y287622D01*
X1026858Y284627D01*
X1017759Y279763D01*
X1009783Y273217D01*
X1003237Y265241D01*
X998373Y256142D01*
X995378Y246268D01*
X994367Y236000D01*
X994367Y-54000D01*
X995378Y-64268D01*
X998373Y-74142D01*
X1003237Y-83241D01*
X1009783Y-91217D01*
X1017759Y-97763D01*
X1021009Y-99500D01*
X502991Y-99500D01*
X506241Y-97763D01*
X514217Y-91217D01*
X520763Y-83241D01*
X525627Y-74142D01*
X528622Y-64268D01*
X529633Y-54000D01*
X529633Y236000D01*
X528622Y246268D01*
X525627Y256142D01*
X520763Y265241D01*
X514217Y273217D01*
X506241Y279763D01*
X497142Y284627D01*
X487268Y287622D01*
X477000Y288633D01*
X377000Y288633D01*
X366732Y287622D01*
X356858Y284627D01*
X347759Y279763D01*
X339783Y273217D01*
X333237Y265241D01*
X328373Y256142D01*
X325378Y246268D01*
X324367Y236000D01*
X324367Y-54000D01*
X325378Y-64268D01*
X328373Y-74142D01*
X333237Y-83241D01*
X339783Y-91217D01*
X347759Y-97763D01*
X351009Y-99500D01*
X99572Y-99500D01*
X102976Y-95352D01*
X105530Y-90575D01*
X107102Y-85391D01*
X107633Y-80000D01*
X107633Y80000D01*
X107102Y85391D01*
X105530Y90575D01*
X102976Y95352D01*
X99539Y99539D01*
X95352Y102976D01*
X90575Y105530D01*
X85391Y107102D01*
X80000Y107633D01*
X-80000Y107633D01*
X-85391Y107102D01*
X-90575Y105530D01*
X-95352Y102976D01*
X-99500Y99572D01*
X-99500Y213303D01*
X-95265Y203080D01*
X-83501Y185473D01*
X-68527Y170499D01*
X-50920Y158735D01*
X-31357Y150631D01*
X-10588Y146500D01*
X10588Y146500D01*
X31357Y150631D01*
X50920Y158735D01*
X68527Y170499D01*
X83501Y185473D01*
X95265Y203080D01*
X103369Y222643D01*
X107500Y243412D01*
X107500Y264588D01*
X103369Y285357D01*
X95265Y304920D01*
X83501Y322527D01*
X68527Y337501D01*
X50920Y349265D01*
X31357Y357369D01*
X10588Y361500D01*
X-10588Y361500D01*
X-31357Y357369D01*
X-50920Y349265D01*
X-68527Y337501D01*
X-83501Y322527D01*
X-95265Y304920D01*
X-99500Y294697D01*
X-99500Y467303D01*
X-95265Y457080D01*
X-83501Y439473D01*
X-68527Y424499D01*
X-50920Y412735D01*
X-31357Y404631D01*
X-10588Y400500D01*
X10588Y400500D01*
X31357Y404631D01*
X50920Y412735D01*
X68527Y424499D01*
X83501Y439473D01*
X95265Y457080D01*
X103369Y476643D01*
X107500Y497412D01*
X107500Y518588D01*
X103369Y539357D01*
X95265Y558920D01*
X83501Y576527D01*
X68527Y591501D01*
X50920Y603265D01*
X31357Y611369D01*
X10588Y615500D01*
X-10588Y615500D01*
X-31357Y611369D01*
X-50920Y603265D01*
X-68527Y591501D01*
X-83501Y576527D01*
X-95265Y558920D01*
X-99500Y548697D01*
X-99500Y722506D01*
X-93727Y709354D01*
X-81656Y692080D01*
X-66446Y677494D01*
X-48683Y666155D01*
X-29049Y658499D01*
X-12500Y662104D01*
X-12500Y749500D01*
X-14500Y749500D01*
X-14500Y774500D01*
X-12500Y774500D01*
X-12500Y861896D01*
X-29049Y865501D01*
X-48683Y857845D01*
X-66446Y846506D01*
X-81656Y831920D01*
X-93727Y814646D01*
X-99500Y801493D01*
X-99500Y975303D01*
X-95265Y965080D01*
X-83501Y947473D01*
X-68527Y932499D01*
X-50920Y920735D01*
X-31357Y912631D01*
X-10588Y908500D01*
X10588Y908500D01*
X31357Y912631D01*
X50920Y920735D01*
X68527Y932499D01*
X83501Y947473D01*
X95265Y965080D01*
X103369Y984643D01*
X107500Y1005412D01*
X107500Y1026588D01*
X103369Y1047357D01*
X95265Y1066920D01*
X83501Y1084527D01*
X68527Y1099501D01*
X50920Y1111265D01*
X43111Y1114500D01*
X115367Y1114500D01*
X115898Y1109109D01*
X117470Y1103925D01*
X120024Y1099148D01*
X123460Y1094960D01*
X127648Y1091524D01*
X132425Y1088970D01*
X137609Y1087398D01*
X143000Y1086867D01*
X171125Y1087000D01*
X178000Y1093875D01*
X178000Y1145750D01*
X203000Y1145750D01*
X203000Y1093875D01*
X209875Y1087000D01*
X238000Y1086867D01*
X243391Y1087398D01*
X248575Y1088970D01*
X253352Y1091524D01*
X257540Y1094960D01*
X260976Y1099148D01*
X263530Y1103925D01*
X265102Y1109109D01*
X265633Y1114500D01*
X265500Y1138875D01*
X258625Y1145750D01*
X203000Y1145750D01*
X178000Y1145750D01*
X122375Y1145750D01*
X115500Y1138875D01*
X115367Y1114500D01*
X43111Y1114500D01*
X31357Y1119369D01*
X10588Y1123500D01*
X-10588Y1123500D01*
X-31357Y1119369D01*
X-50920Y1111265D01*
X-68527Y1099501D01*
X-83501Y1084527D01*
X-95265Y1066920D01*
X-99500Y1056697D01*
X-99500Y1229303D01*
X-95265Y1219080D01*
X-83501Y1201473D01*
X-68527Y1186499D01*
X-50920Y1174735D01*
X-31357Y1166631D01*
X-10588Y1162500D01*
X10588Y1162500D01*
X31357Y1166631D01*
X50920Y1174735D01*
X68527Y1186499D01*
X83501Y1201473D01*
X83853Y1202000D01*
X115367Y1202000D01*
X115500Y1177625D01*
X122375Y1170750D01*
X178000Y1170750D01*
X178000Y1222625D01*
X203000Y1222625D01*
X203000Y1170750D01*
X258625Y1170750D01*
X265500Y1177625D01*
X265633Y1202000D01*
X265102Y1207391D01*
X263530Y1212575D01*
X260976Y1217352D01*
X257540Y1221540D01*
X253352Y1224976D01*
X248575Y1227530D01*
X243391Y1229102D01*
X238000Y1229633D01*
X209875Y1229500D01*
X203000Y1222625D01*
X178000Y1222625D01*
X171125Y1229500D01*
X143000Y1229633D01*
X137609Y1229102D01*
X132425Y1227530D01*
X127648Y1224976D01*
X123460Y1221540D01*
X120024Y1217352D01*
X117470Y1212575D01*
X115898Y1207391D01*
X115367Y1202000D01*
X83853Y1202000D01*
X95265Y1219080D01*
X103369Y1238643D01*
X107500Y1259412D01*
X107500Y1280588D01*
X103369Y1301357D01*
X95265Y1320920D01*
X83501Y1338527D01*
X68527Y1353501D01*
X50920Y1365265D01*
X31357Y1373369D01*
X10588Y1377500D01*
X-10588Y1377500D01*
X-31357Y1373369D01*
X-50920Y1365265D01*
X-68527Y1353501D01*
X-83501Y1338527D01*
X-95265Y1320920D01*
X-99500Y1310697D01*
X-99500Y1483303D01*
X-95265Y1473080D01*
X-83501Y1455473D01*
X-68527Y1440499D01*
X-50920Y1428735D01*
X-31357Y1420631D01*
X-10588Y1416500D01*
X10588Y1416500D01*
X31357Y1420631D01*
X50920Y1428735D01*
X68527Y1440499D01*
X83501Y1455473D01*
X95265Y1473080D01*
X103369Y1492643D01*
X107500Y1513412D01*
X107500Y1534588D01*
X103369Y1555357D01*
X95265Y1574920D01*
X83501Y1592527D01*
X68527Y1607501D01*
X50920Y1619265D01*
X31357Y1627369D01*
X10588Y1631500D01*
X-10588Y1631500D01*
X-31357Y1627369D01*
X-50920Y1619265D01*
X-68527Y1607501D01*
X-83501Y1592527D01*
X-95265Y1574920D01*
X-99500Y1564697D01*
X-99500Y1737303D01*
X-95265Y1727080D01*
X-83501Y1709473D01*
X-68527Y1694499D01*
X-50920Y1682735D01*
X-31357Y1674631D01*
X-10588Y1670500D01*
X10588Y1670500D01*
X31357Y1674631D01*
X50920Y1682735D01*
X68527Y1694499D01*
X83501Y1709473D01*
X95265Y1727080D01*
X103369Y1746643D01*
X107500Y1767412D01*
X107500Y1788588D01*
X103369Y1809357D01*
X95265Y1828920D01*
X83501Y1846527D01*
X68527Y1861501D01*
X50920Y1873265D01*
X31357Y1881369D01*
X10588Y1885500D01*
X-10588Y1885500D01*
X-31357Y1881369D01*
X-50920Y1873265D01*
X-68527Y1861501D01*
X-83501Y1846527D01*
X-95265Y1828920D01*
X-99500Y1818697D01*
X-99500Y1991303D01*
X-95265Y1981080D01*
X-83501Y1963473D01*
X-68527Y1948499D01*
X-50920Y1936735D01*
X-31357Y1928631D01*
X-10588Y1924500D01*
X10588Y1924500D01*
X31357Y1928631D01*
X50920Y1936735D01*
X68527Y1948499D01*
X83501Y1963473D01*
X95265Y1981080D01*
X103369Y2000643D01*
X107500Y2021412D01*
X107500Y2042588D01*
X103369Y2063357D01*
X95265Y2082920D01*
X83501Y2100527D01*
X68527Y2115501D01*
X50920Y2127265D01*
X31357Y2135369D01*
X10588Y2139500D01*
X-10588Y2139500D01*
X-31357Y2135369D01*
X-50920Y2127265D01*
X-68527Y2115501D01*
X-83501Y2100527D01*
X-95265Y2082920D01*
X-99500Y2072697D01*
X-99500Y2245303D01*
X-95265Y2235080D01*
X-83501Y2217473D01*
X-68527Y2202499D01*
X-50920Y2190735D01*
X-31357Y2182631D01*
X-10588Y2178500D01*
X10588Y2178500D01*
X31357Y2182631D01*
X50920Y2190735D01*
X68527Y2202499D01*
X83501Y2217473D01*
X95265Y2235080D01*
X103369Y2254643D01*
X107500Y2275412D01*
X107500Y2296588D01*
X103369Y2317357D01*
X95265Y2336920D01*
X83501Y2354527D01*
X68527Y2369501D01*
X50920Y2381265D01*
X31357Y2389369D01*
X10588Y2393500D01*
X-10588Y2393500D01*
X-31357Y2389369D01*
X-50920Y2381265D01*
X-68527Y2369501D01*
X-83501Y2354527D01*
X-95265Y2336920D01*
X-99500Y2326697D01*
X-99500Y2499303D01*
X-95265Y2489080D01*
X-83501Y2471473D01*
X-68527Y2456499D01*
X-50920Y2444735D01*
X-31357Y2436631D01*
X-10588Y2432500D01*
X10588Y2432500D01*
X31357Y2436631D01*
X50920Y2444735D01*
X68527Y2456499D01*
X83501Y2471473D01*
X95265Y2489080D01*
X103369Y2508643D01*
X107500Y2529412D01*
X107500Y2550588D01*
X103369Y2571357D01*
X100161Y2579100D01*
X168067Y2579100D01*
X168067Y2069100D01*
X168598Y2063709D01*
X170170Y2058525D01*
X172724Y2053748D01*
X176160Y2049560D01*
X180348Y2046124D01*
X185125Y2043570D01*
X190309Y2041998D01*
X195700Y2041467D01*
X430700Y2041467D01*
X436091Y2041998D01*
X441275Y2043570D01*
X446052Y2046124D01*
X450239Y2049560D01*
X453676Y2053748D01*
X456230Y2058525D01*
X457802Y2063709D01*
X458333Y2069100D01*
X458333Y2579100D01*
X457802Y2584491D01*
X456230Y2589675D01*
X453676Y2594452D01*
X450239Y2598640D01*
X446052Y2602076D01*
X441275Y2604630D01*
X436091Y2606202D01*
X430700Y2606733D01*
X195700Y2606733D01*
X190309Y2606202D01*
X185125Y2604630D01*
X180348Y2602076D01*
X176160Y2598640D01*
X172724Y2594452D01*
X170170Y2589675D01*
X168598Y2584491D01*
X168067Y2579100D01*
X100161Y2579100D01*
X95265Y2590920D01*
X83501Y2608527D01*
X68527Y2623501D01*
X50920Y2635265D01*
X40697Y2639500D01*
X1483303Y2639500D01*
X1473080Y2635265D01*
G36*
X1301562Y155263D02*
G01*
X1301563Y155262D01*
X1422048Y34777D01*
X1420631Y31357D01*
X1416500Y10588D01*
X1416500Y-10588D01*
X1420631Y-31357D01*
X1428735Y-50920D01*
X1440499Y-68527D01*
X1455473Y-83501D01*
X1473080Y-95265D01*
X1483303Y-99500D01*
X1172991Y-99500D01*
X1176241Y-97763D01*
X1184217Y-91217D01*
X1190763Y-83241D01*
X1195627Y-74142D01*
X1198622Y-64268D01*
X1199633Y-54000D01*
X1199633Y236000D01*
X1198622Y246268D01*
X1195627Y256142D01*
X1190763Y265241D01*
X1187006Y269819D01*
X1301562Y155263D01*
G37*
X1301562Y155263D02*
X1301563Y155262D01*
X1422048Y34777D01*
X1420631Y31357D01*
X1416500Y10588D01*
X1416500Y-10588D01*
X1420631Y-31357D01*
X1428735Y-50920D01*
X1440499Y-68527D01*
X1455473Y-83501D01*
X1473080Y-95265D01*
X1483303Y-99500D01*
X1172991Y-99500D01*
X1176241Y-97763D01*
X1184217Y-91217D01*
X1190763Y-83241D01*
X1195627Y-74142D01*
X1198622Y-64268D01*
X1199633Y-54000D01*
X1199633Y236000D01*
X1198622Y246268D01*
X1195627Y256142D01*
X1190763Y265241D01*
X1187006Y269819D01*
X1301562Y155263D01*
G36*
X739500Y1530750D02*
G01*
X744000Y1530750D01*
X744000Y1505750D01*
X739500Y1505750D01*
X739500Y1456375D01*
X746375Y1449500D01*
X747000Y1449367D01*
X752000Y1449859D01*
X752000Y1442788D01*
X751794Y1440700D01*
X752615Y1432369D01*
X754534Y1426043D01*
X755045Y1424357D01*
X758992Y1416974D01*
X764303Y1410503D01*
X765924Y1409172D01*
X782559Y1392537D01*
X777711Y1386630D01*
X773136Y1378071D01*
X770318Y1368784D01*
X769367Y1359125D01*
X769367Y1307875D01*
X770318Y1298217D01*
X773136Y1288929D01*
X777711Y1280370D01*
X783868Y1272868D01*
X791370Y1266711D01*
X799929Y1262136D01*
X809216Y1259318D01*
X818875Y1258367D01*
X862625Y1258367D01*
X872283Y1259318D01*
X881571Y1262136D01*
X890130Y1266711D01*
X897632Y1272868D01*
X903789Y1280370D01*
X908364Y1288929D01*
X911182Y1298217D01*
X912133Y1307875D01*
X912133Y1359125D01*
X911328Y1367297D01*
X912313Y1367200D01*
X912313Y1367200D01*
X914400Y1366995D01*
X916487Y1367200D01*
X922196Y1367200D01*
X960800Y1328596D01*
X960800Y1259388D01*
X960594Y1257300D01*
X961415Y1248969D01*
X963248Y1242926D01*
X963845Y1240957D01*
X967792Y1233574D01*
X971026Y1229633D01*
X926875Y1229633D01*
X917216Y1228682D01*
X907929Y1225864D01*
X899370Y1221289D01*
X891868Y1215132D01*
X885711Y1207630D01*
X881136Y1199071D01*
X879879Y1194930D01*
X834620Y1194930D01*
X833364Y1199071D01*
X828789Y1207630D01*
X822632Y1215132D01*
X815130Y1221289D01*
X806571Y1225864D01*
X797283Y1228682D01*
X787625Y1229633D01*
X751400Y1229633D01*
X751400Y1290695D01*
X753682Y1298217D01*
X754633Y1307875D01*
X754633Y1359125D01*
X753682Y1368784D01*
X750864Y1378071D01*
X746289Y1386630D01*
X740132Y1394132D01*
X732630Y1400289D01*
X724071Y1404864D01*
X714783Y1407682D01*
X705125Y1408633D01*
X700358Y1408633D01*
X684497Y1424493D01*
X693076Y1433072D01*
X694697Y1434403D01*
X700008Y1440874D01*
X703955Y1448257D01*
X704634Y1450497D01*
X706609Y1449898D01*
X712000Y1449367D01*
X712625Y1449500D01*
X719500Y1456375D01*
X719500Y1505750D01*
X715000Y1505750D01*
X715000Y1530750D01*
X719500Y1530750D01*
X719500Y1532750D01*
X739500Y1532750D01*
X739500Y1530750D01*
G37*
X739500Y1530750D02*
X744000Y1530750D01*
X744000Y1505750D01*
X739500Y1505750D01*
X739500Y1456375D01*
X746375Y1449500D01*
X747000Y1449367D01*
X752000Y1449859D01*
X752000Y1442788D01*
X751794Y1440700D01*
X752615Y1432369D01*
X754534Y1426043D01*
X755045Y1424357D01*
X758992Y1416974D01*
X764303Y1410503D01*
X765924Y1409172D01*
X782559Y1392537D01*
X777711Y1386630D01*
X773136Y1378071D01*
X770318Y1368784D01*
X769367Y1359125D01*
X769367Y1307875D01*
X770318Y1298217D01*
X773136Y1288929D01*
X777711Y1280370D01*
X783868Y1272868D01*
X791370Y1266711D01*
X799929Y1262136D01*
X809216Y1259318D01*
X818875Y1258367D01*
X862625Y1258367D01*
X872283Y1259318D01*
X881571Y1262136D01*
X890130Y1266711D01*
X897632Y1272868D01*
X903789Y1280370D01*
X908364Y1288929D01*
X911182Y1298217D01*
X912133Y1307875D01*
X912133Y1359125D01*
X911328Y1367297D01*
X912313Y1367200D01*
X912313Y1367200D01*
X914400Y1366995D01*
X916487Y1367200D01*
X922196Y1367200D01*
X960800Y1328596D01*
X960800Y1259388D01*
X960594Y1257300D01*
X961415Y1248969D01*
X963248Y1242926D01*
X963845Y1240957D01*
X967792Y1233574D01*
X971026Y1229633D01*
X926875Y1229633D01*
X917216Y1228682D01*
X907929Y1225864D01*
X899370Y1221289D01*
X891868Y1215132D01*
X885711Y1207630D01*
X881136Y1199071D01*
X879879Y1194930D01*
X834620Y1194930D01*
X833364Y1199071D01*
X828789Y1207630D01*
X822632Y1215132D01*
X815130Y1221289D01*
X806571Y1225864D01*
X797283Y1228682D01*
X787625Y1229633D01*
X751400Y1229633D01*
X751400Y1290695D01*
X753682Y1298217D01*
X754633Y1307875D01*
X754633Y1359125D01*
X753682Y1368784D01*
X750864Y1378071D01*
X746289Y1386630D01*
X740132Y1394132D01*
X732630Y1400289D01*
X724071Y1404864D01*
X714783Y1407682D01*
X705125Y1408633D01*
X700358Y1408633D01*
X684497Y1424493D01*
X693076Y1433072D01*
X694697Y1434403D01*
X700008Y1440874D01*
X703955Y1448257D01*
X704634Y1450497D01*
X706609Y1449898D01*
X712000Y1449367D01*
X712625Y1449500D01*
X719500Y1456375D01*
X719500Y1505750D01*
X715000Y1505750D01*
X715000Y1530750D01*
X719500Y1530750D01*
X719500Y1532750D01*
X739500Y1532750D01*
X739500Y1530750D01*
G36*
X776500Y1720506D02*
G01*
X776500Y1708494D01*
X768006Y1700000D01*
X755994Y1700000D01*
X747500Y1708494D01*
X747500Y1720506D01*
X755994Y1729000D01*
X768006Y1729000D01*
X776500Y1720506D01*
G37*
X776500Y1720506D02*
X776500Y1708494D01*
X768006Y1700000D01*
X755994Y1700000D01*
X747500Y1708494D01*
X747500Y1720506D01*
X755994Y1729000D01*
X768006Y1729000D01*
X776500Y1720506D01*
G36*
X1211700Y1965393D02*
G01*
X1211700Y1676400D01*
X1211844Y1674937D01*
X1212271Y1673530D01*
X1212964Y1672233D01*
X1213897Y1671097D01*
X1220588Y1664405D01*
X1222211Y1661370D01*
X1228368Y1653868D01*
X1235870Y1647711D01*
X1238905Y1646088D01*
X1290309Y1594684D01*
X1287750Y1592125D01*
X1287750Y1526500D01*
X1289750Y1526500D01*
X1289750Y1521500D01*
X1287750Y1521500D01*
X1287750Y1519500D01*
X1282750Y1519500D01*
X1282750Y1521500D01*
X1220875Y1521500D01*
X1218175Y1518800D01*
X1199133Y1518800D01*
X1199133Y1549625D01*
X1198182Y1559283D01*
X1195364Y1568571D01*
X1193799Y1571500D01*
X1213867Y1571500D01*
X1214000Y1533375D01*
X1220875Y1526500D01*
X1282750Y1526500D01*
X1282750Y1592125D01*
X1275875Y1599000D01*
X1241500Y1599133D01*
X1236109Y1598602D01*
X1230925Y1597030D01*
X1226148Y1594476D01*
X1221960Y1591040D01*
X1218524Y1586852D01*
X1215970Y1582075D01*
X1214398Y1576891D01*
X1213867Y1571500D01*
X1193799Y1571500D01*
X1190789Y1577130D01*
X1184632Y1584632D01*
X1177130Y1590789D01*
X1168571Y1595364D01*
X1159284Y1598182D01*
X1149625Y1599133D01*
X1105875Y1599133D01*
X1096217Y1598182D01*
X1086929Y1595364D01*
X1078370Y1590789D01*
X1077550Y1590117D01*
X1077550Y1640219D01*
X1078609Y1639898D01*
X1084000Y1639367D01*
X1118375Y1639500D01*
X1125250Y1646375D01*
X1125250Y1712000D01*
X1130250Y1712000D01*
X1130250Y1646375D01*
X1137125Y1639500D01*
X1171500Y1639367D01*
X1176891Y1639898D01*
X1182075Y1641470D01*
X1186852Y1644024D01*
X1191040Y1647460D01*
X1194476Y1651648D01*
X1197030Y1656425D01*
X1198602Y1661609D01*
X1199133Y1667000D01*
X1199000Y1705125D01*
X1192125Y1712000D01*
X1130250Y1712000D01*
X1125250Y1712000D01*
X1063375Y1712000D01*
X1056500Y1705125D01*
X1056468Y1696036D01*
X1041928Y1710576D01*
X1040597Y1712197D01*
X1034126Y1717508D01*
X1026743Y1721455D01*
X1025877Y1721717D01*
X1026602Y1724109D01*
X1027133Y1729500D01*
X1027000Y1737625D01*
X1020125Y1744500D01*
X960750Y1744500D01*
X960750Y1742500D01*
X955750Y1742500D01*
X955750Y1744500D01*
X953750Y1744500D01*
X953750Y1749500D01*
X955750Y1749500D01*
X955750Y1809500D01*
X960750Y1809500D01*
X960750Y1749500D01*
X1020125Y1749500D01*
X1027000Y1756375D01*
X1027092Y1762000D01*
X1056367Y1762000D01*
X1056500Y1723875D01*
X1063375Y1717000D01*
X1125250Y1717000D01*
X1125250Y1782625D01*
X1130250Y1782625D01*
X1130250Y1717000D01*
X1192125Y1717000D01*
X1199000Y1723875D01*
X1199133Y1762000D01*
X1198602Y1767391D01*
X1197030Y1772575D01*
X1194476Y1777352D01*
X1191040Y1781540D01*
X1186852Y1784976D01*
X1182075Y1787530D01*
X1176891Y1789102D01*
X1171500Y1789633D01*
X1137125Y1789500D01*
X1130250Y1782625D01*
X1125250Y1782625D01*
X1118375Y1789500D01*
X1084000Y1789633D01*
X1078609Y1789102D01*
X1073425Y1787530D01*
X1068648Y1784976D01*
X1064460Y1781540D01*
X1061024Y1777352D01*
X1058470Y1772575D01*
X1056898Y1767391D01*
X1056367Y1762000D01*
X1027092Y1762000D01*
X1027133Y1764500D01*
X1026602Y1769891D01*
X1025030Y1775075D01*
X1022664Y1779500D01*
X1025030Y1783925D01*
X1026602Y1789109D01*
X1027133Y1794500D01*
X1027000Y1802625D01*
X1020125Y1809500D01*
X960750Y1809500D01*
X955750Y1809500D01*
X953750Y1809500D01*
X953750Y1814500D01*
X955750Y1814500D01*
X955750Y1850125D01*
X960750Y1850125D01*
X960750Y1814500D01*
X1020125Y1814500D01*
X1027000Y1821375D01*
X1027133Y1829500D01*
X1026602Y1834891D01*
X1025030Y1840075D01*
X1022476Y1844852D01*
X1019040Y1849040D01*
X1014852Y1852476D01*
X1010075Y1855030D01*
X1004891Y1856602D01*
X999500Y1857133D01*
X967625Y1857000D01*
X960750Y1850125D01*
X955750Y1850125D01*
X948875Y1857000D01*
X917000Y1857133D01*
X913563Y1856794D01*
X913091Y1857500D01*
X1056367Y1857500D01*
X1056898Y1852109D01*
X1058470Y1846925D01*
X1061024Y1842148D01*
X1064460Y1837960D01*
X1068648Y1834524D01*
X1073425Y1831970D01*
X1078609Y1830398D01*
X1084000Y1829867D01*
X1118375Y1830000D01*
X1125250Y1836875D01*
X1125250Y1902500D01*
X1130250Y1902500D01*
X1130250Y1836875D01*
X1137125Y1830000D01*
X1171500Y1829867D01*
X1176891Y1830398D01*
X1182075Y1831970D01*
X1186852Y1834524D01*
X1191040Y1837960D01*
X1194476Y1842148D01*
X1197030Y1846925D01*
X1198602Y1852109D01*
X1199133Y1857500D01*
X1199000Y1895625D01*
X1192125Y1902500D01*
X1130250Y1902500D01*
X1125250Y1902500D01*
X1063375Y1902500D01*
X1056500Y1895625D01*
X1056367Y1857500D01*
X913091Y1857500D01*
X912779Y1857967D01*
X910077Y1860669D01*
X909217Y1861717D01*
X908169Y1862577D01*
X905467Y1865279D01*
X904294Y1866063D01*
X904633Y1869500D01*
X904500Y1901375D01*
X897625Y1908250D01*
X862000Y1908250D01*
X862000Y1906250D01*
X857000Y1906250D01*
X857000Y1908250D01*
X855000Y1908250D01*
X855000Y1913250D01*
X857000Y1913250D01*
X857000Y1972625D01*
X862000Y1972625D01*
X862000Y1913250D01*
X897625Y1913250D01*
X904500Y1920125D01*
X904633Y1952000D01*
X904584Y1952500D01*
X1056367Y1952500D01*
X1056500Y1914375D01*
X1063375Y1907500D01*
X1125250Y1907500D01*
X1125250Y1973125D01*
X1130250Y1973125D01*
X1130250Y1907500D01*
X1192125Y1907500D01*
X1199000Y1914375D01*
X1199133Y1952500D01*
X1198602Y1957891D01*
X1197030Y1963075D01*
X1194476Y1967852D01*
X1191040Y1972040D01*
X1186852Y1975476D01*
X1182075Y1978030D01*
X1176891Y1979602D01*
X1171500Y1980133D01*
X1137125Y1980000D01*
X1130250Y1973125D01*
X1125250Y1973125D01*
X1118375Y1980000D01*
X1084000Y1980133D01*
X1078609Y1979602D01*
X1073425Y1978030D01*
X1068648Y1975476D01*
X1064460Y1972040D01*
X1061024Y1967852D01*
X1058470Y1963075D01*
X1056898Y1957891D01*
X1056367Y1952500D01*
X904584Y1952500D01*
X904102Y1957391D01*
X902530Y1962575D01*
X899976Y1967352D01*
X896540Y1971540D01*
X892352Y1974976D01*
X887575Y1977530D01*
X882391Y1979102D01*
X877000Y1979633D01*
X868875Y1979500D01*
X862000Y1972625D01*
X857000Y1972625D01*
X850125Y1979500D01*
X842000Y1979633D01*
X836609Y1979102D01*
X833000Y1978007D01*
X833000Y1999100D01*
X1177993Y1999100D01*
X1211700Y1965393D01*
G37*
X1211700Y1965393D02*
X1211700Y1676400D01*
X1211844Y1674937D01*
X1212271Y1673530D01*
X1212964Y1672233D01*
X1213897Y1671097D01*
X1220588Y1664405D01*
X1222211Y1661370D01*
X1228368Y1653868D01*
X1235870Y1647711D01*
X1238905Y1646088D01*
X1290309Y1594684D01*
X1287750Y1592125D01*
X1287750Y1526500D01*
X1289750Y1526500D01*
X1289750Y1521500D01*
X1287750Y1521500D01*
X1287750Y1519500D01*
X1282750Y1519500D01*
X1282750Y1521500D01*
X1220875Y1521500D01*
X1218175Y1518800D01*
X1199133Y1518800D01*
X1199133Y1549625D01*
X1198182Y1559283D01*
X1195364Y1568571D01*
X1193799Y1571500D01*
X1213867Y1571500D01*
X1214000Y1533375D01*
X1220875Y1526500D01*
X1282750Y1526500D01*
X1282750Y1592125D01*
X1275875Y1599000D01*
X1241500Y1599133D01*
X1236109Y1598602D01*
X1230925Y1597030D01*
X1226148Y1594476D01*
X1221960Y1591040D01*
X1218524Y1586852D01*
X1215970Y1582075D01*
X1214398Y1576891D01*
X1213867Y1571500D01*
X1193799Y1571500D01*
X1190789Y1577130D01*
X1184632Y1584632D01*
X1177130Y1590789D01*
X1168571Y1595364D01*
X1159284Y1598182D01*
X1149625Y1599133D01*
X1105875Y1599133D01*
X1096217Y1598182D01*
X1086929Y1595364D01*
X1078370Y1590789D01*
X1077550Y1590117D01*
X1077550Y1640219D01*
X1078609Y1639898D01*
X1084000Y1639367D01*
X1118375Y1639500D01*
X1125250Y1646375D01*
X1125250Y1712000D01*
X1130250Y1712000D01*
X1130250Y1646375D01*
X1137125Y1639500D01*
X1171500Y1639367D01*
X1176891Y1639898D01*
X1182075Y1641470D01*
X1186852Y1644024D01*
X1191040Y1647460D01*
X1194476Y1651648D01*
X1197030Y1656425D01*
X1198602Y1661609D01*
X1199133Y1667000D01*
X1199000Y1705125D01*
X1192125Y1712000D01*
X1130250Y1712000D01*
X1125250Y1712000D01*
X1063375Y1712000D01*
X1056500Y1705125D01*
X1056468Y1696036D01*
X1041928Y1710576D01*
X1040597Y1712197D01*
X1034126Y1717508D01*
X1026743Y1721455D01*
X1025877Y1721717D01*
X1026602Y1724109D01*
X1027133Y1729500D01*
X1027000Y1737625D01*
X1020125Y1744500D01*
X960750Y1744500D01*
X960750Y1742500D01*
X955750Y1742500D01*
X955750Y1744500D01*
X953750Y1744500D01*
X953750Y1749500D01*
X955750Y1749500D01*
X955750Y1809500D01*
X960750Y1809500D01*
X960750Y1749500D01*
X1020125Y1749500D01*
X1027000Y1756375D01*
X1027092Y1762000D01*
X1056367Y1762000D01*
X1056500Y1723875D01*
X1063375Y1717000D01*
X1125250Y1717000D01*
X1125250Y1782625D01*
X1130250Y1782625D01*
X1130250Y1717000D01*
X1192125Y1717000D01*
X1199000Y1723875D01*
X1199133Y1762000D01*
X1198602Y1767391D01*
X1197030Y1772575D01*
X1194476Y1777352D01*
X1191040Y1781540D01*
X1186852Y1784976D01*
X1182075Y1787530D01*
X1176891Y1789102D01*
X1171500Y1789633D01*
X1137125Y1789500D01*
X1130250Y1782625D01*
X1125250Y1782625D01*
X1118375Y1789500D01*
X1084000Y1789633D01*
X1078609Y1789102D01*
X1073425Y1787530D01*
X1068648Y1784976D01*
X1064460Y1781540D01*
X1061024Y1777352D01*
X1058470Y1772575D01*
X1056898Y1767391D01*
X1056367Y1762000D01*
X1027092Y1762000D01*
X1027133Y1764500D01*
X1026602Y1769891D01*
X1025030Y1775075D01*
X1022664Y1779500D01*
X1025030Y1783925D01*
X1026602Y1789109D01*
X1027133Y1794500D01*
X1027000Y1802625D01*
X1020125Y1809500D01*
X960750Y1809500D01*
X955750Y1809500D01*
X953750Y1809500D01*
X953750Y1814500D01*
X955750Y1814500D01*
X955750Y1850125D01*
X960750Y1850125D01*
X960750Y1814500D01*
X1020125Y1814500D01*
X1027000Y1821375D01*
X1027133Y1829500D01*
X1026602Y1834891D01*
X1025030Y1840075D01*
X1022476Y1844852D01*
X1019040Y1849040D01*
X1014852Y1852476D01*
X1010075Y1855030D01*
X1004891Y1856602D01*
X999500Y1857133D01*
X967625Y1857000D01*
X960750Y1850125D01*
X955750Y1850125D01*
X948875Y1857000D01*
X917000Y1857133D01*
X913563Y1856794D01*
X913091Y1857500D01*
X1056367Y1857500D01*
X1056898Y1852109D01*
X1058470Y1846925D01*
X1061024Y1842148D01*
X1064460Y1837960D01*
X1068648Y1834524D01*
X1073425Y1831970D01*
X1078609Y1830398D01*
X1084000Y1829867D01*
X1118375Y1830000D01*
X1125250Y1836875D01*
X1125250Y1902500D01*
X1130250Y1902500D01*
X1130250Y1836875D01*
X1137125Y1830000D01*
X1171500Y1829867D01*
X1176891Y1830398D01*
X1182075Y1831970D01*
X1186852Y1834524D01*
X1191040Y1837960D01*
X1194476Y1842148D01*
X1197030Y1846925D01*
X1198602Y1852109D01*
X1199133Y1857500D01*
X1199000Y1895625D01*
X1192125Y1902500D01*
X1130250Y1902500D01*
X1125250Y1902500D01*
X1063375Y1902500D01*
X1056500Y1895625D01*
X1056367Y1857500D01*
X913091Y1857500D01*
X912779Y1857967D01*
X910077Y1860669D01*
X909217Y1861717D01*
X908169Y1862577D01*
X905467Y1865279D01*
X904294Y1866063D01*
X904633Y1869500D01*
X904500Y1901375D01*
X897625Y1908250D01*
X862000Y1908250D01*
X862000Y1906250D01*
X857000Y1906250D01*
X857000Y1908250D01*
X855000Y1908250D01*
X855000Y1913250D01*
X857000Y1913250D01*
X857000Y1972625D01*
X862000Y1972625D01*
X862000Y1913250D01*
X897625Y1913250D01*
X904500Y1920125D01*
X904633Y1952000D01*
X904584Y1952500D01*
X1056367Y1952500D01*
X1056500Y1914375D01*
X1063375Y1907500D01*
X1125250Y1907500D01*
X1125250Y1973125D01*
X1130250Y1973125D01*
X1130250Y1907500D01*
X1192125Y1907500D01*
X1199000Y1914375D01*
X1199133Y1952500D01*
X1198602Y1957891D01*
X1197030Y1963075D01*
X1194476Y1967852D01*
X1191040Y1972040D01*
X1186852Y1975476D01*
X1182075Y1978030D01*
X1176891Y1979602D01*
X1171500Y1980133D01*
X1137125Y1980000D01*
X1130250Y1973125D01*
X1125250Y1973125D01*
X1118375Y1980000D01*
X1084000Y1980133D01*
X1078609Y1979602D01*
X1073425Y1978030D01*
X1068648Y1975476D01*
X1064460Y1972040D01*
X1061024Y1967852D01*
X1058470Y1963075D01*
X1056898Y1957891D01*
X1056367Y1952500D01*
X904584Y1952500D01*
X904102Y1957391D01*
X902530Y1962575D01*
X899976Y1967352D01*
X896540Y1971540D01*
X892352Y1974976D01*
X887575Y1977530D01*
X882391Y1979102D01*
X877000Y1979633D01*
X868875Y1979500D01*
X862000Y1972625D01*
X857000Y1972625D01*
X850125Y1979500D01*
X842000Y1979633D01*
X836609Y1979102D01*
X833000Y1978007D01*
X833000Y1999100D01*
X1177993Y1999100D01*
X1211700Y1965393D01*
D26*
G36*
X815500Y2034765D02*
G01*
X814019Y2034316D01*
X808833Y2031544D01*
X804287Y2027813D01*
X800556Y2023267D01*
X797784Y2018080D01*
X796076Y2012453D01*
X795500Y2006600D01*
X795500Y1982145D01*
X785750Y1982145D01*
X778162Y1981398D01*
X770865Y1979184D01*
X764991Y1976044D01*
X763748Y1977065D01*
X758536Y1979850D01*
X752881Y1981566D01*
X747000Y1982145D01*
X739500Y1982000D01*
X732000Y1974500D01*
X732000Y1913250D01*
X734000Y1913250D01*
X734000Y1908250D01*
X732000Y1908250D01*
X732000Y1906250D01*
X727000Y1906250D01*
X727000Y1908250D01*
X667000Y1908250D01*
X667000Y1906250D01*
X662000Y1906250D01*
X662000Y1908250D01*
X660000Y1908250D01*
X660000Y1913250D01*
X662000Y1913250D01*
X662000Y1974500D01*
X667000Y1974500D01*
X667000Y1913250D01*
X727000Y1913250D01*
X727000Y1974500D01*
X719500Y1982000D01*
X712000Y1982145D01*
X706119Y1981566D01*
X700464Y1979850D01*
X697000Y1977999D01*
X693536Y1979850D01*
X687881Y1981566D01*
X682000Y1982145D01*
X674500Y1982000D01*
X667000Y1974500D01*
X662000Y1974500D01*
X657700Y1978800D01*
X657700Y2027858D01*
X680171Y2050329D01*
X681415Y2051844D01*
X682339Y2053573D01*
X682908Y2055449D01*
X683100Y2057400D01*
X683100Y2390300D01*
X815500Y2390300D01*
X815500Y2034765D01*
G37*
X815500Y2034765D02*
X814019Y2034316D01*
X808833Y2031544D01*
X804287Y2027813D01*
X800556Y2023267D01*
X797784Y2018080D01*
X796076Y2012453D01*
X795500Y2006600D01*
X795500Y1982145D01*
X785750Y1982145D01*
X778162Y1981398D01*
X770865Y1979184D01*
X764991Y1976044D01*
X763748Y1977065D01*
X758536Y1979850D01*
X752881Y1981566D01*
X747000Y1982145D01*
X739500Y1982000D01*
X732000Y1974500D01*
X732000Y1913250D01*
X734000Y1913250D01*
X734000Y1908250D01*
X732000Y1908250D01*
X732000Y1906250D01*
X727000Y1906250D01*
X727000Y1908250D01*
X667000Y1908250D01*
X667000Y1906250D01*
X662000Y1906250D01*
X662000Y1908250D01*
X660000Y1908250D01*
X660000Y1913250D01*
X662000Y1913250D01*
X662000Y1974500D01*
X667000Y1974500D01*
X667000Y1913250D01*
X727000Y1913250D01*
X727000Y1974500D01*
X719500Y1982000D01*
X712000Y1982145D01*
X706119Y1981566D01*
X700464Y1979850D01*
X697000Y1977999D01*
X693536Y1979850D01*
X687881Y1981566D01*
X682000Y1982145D01*
X674500Y1982000D01*
X667000Y1974500D01*
X662000Y1974500D01*
X657700Y1978800D01*
X657700Y2027858D01*
X680171Y2050329D01*
X681415Y2051844D01*
X682339Y2053573D01*
X682908Y2055449D01*
X683100Y2057400D01*
X683100Y2390300D01*
X815500Y2390300D01*
X815500Y2034765D01*
D25*
G36*
X325000Y1347875D02*
G01*
X331875Y1341000D01*
X388750Y1341000D01*
X388750Y1343000D01*
X403750Y1343000D01*
X403750Y1341000D01*
X460625Y1341000D01*
X467500Y1347875D01*
X467618Y1377350D01*
X611882Y1377350D01*
X612000Y1347875D01*
X618875Y1341000D01*
X675750Y1341000D01*
X675750Y1343000D01*
X690750Y1343000D01*
X690750Y1341000D01*
X692750Y1341000D01*
X692750Y1326000D01*
X690750Y1326000D01*
X690750Y1265375D01*
X697625Y1258500D01*
X716400Y1258415D01*
X716400Y1225314D01*
X708870Y1221289D01*
X701368Y1215132D01*
X695211Y1207630D01*
X690636Y1199071D01*
X687818Y1189784D01*
X686867Y1180125D01*
X686867Y1137800D01*
X646528Y1137800D01*
X646500Y1143875D01*
X639625Y1150750D01*
X579000Y1150750D01*
X579000Y1148750D01*
X564000Y1148750D01*
X564000Y1150750D01*
X503375Y1150750D01*
X496500Y1143875D01*
X496472Y1137800D01*
X456027Y1137800D01*
X456000Y1143875D01*
X449125Y1150750D01*
X388500Y1150750D01*
X388500Y1148750D01*
X373500Y1148750D01*
X373500Y1150750D01*
X371500Y1150750D01*
X371500Y1165750D01*
X373500Y1165750D01*
X373500Y1222625D01*
X388500Y1222625D01*
X388500Y1165750D01*
X449125Y1165750D01*
X456000Y1172625D01*
X456133Y1202000D01*
X496367Y1202000D01*
X496500Y1172625D01*
X503375Y1165750D01*
X564000Y1165750D01*
X564000Y1222625D01*
X579000Y1222625D01*
X579000Y1165750D01*
X639625Y1165750D01*
X646500Y1172625D01*
X646633Y1202000D01*
X646102Y1207391D01*
X644530Y1212575D01*
X641976Y1217352D01*
X638540Y1221540D01*
X634352Y1224976D01*
X629575Y1227530D01*
X624391Y1229102D01*
X619000Y1229633D01*
X585875Y1229500D01*
X579000Y1222625D01*
X564000Y1222625D01*
X557125Y1229500D01*
X524000Y1229633D01*
X518609Y1229102D01*
X513425Y1227530D01*
X508648Y1224976D01*
X504460Y1221540D01*
X501024Y1217352D01*
X498470Y1212575D01*
X496898Y1207391D01*
X496367Y1202000D01*
X456133Y1202000D01*
X455602Y1207391D01*
X454030Y1212575D01*
X451476Y1217352D01*
X448040Y1221540D01*
X443852Y1224976D01*
X439075Y1227530D01*
X433891Y1229102D01*
X428500Y1229633D01*
X395375Y1229500D01*
X388500Y1222625D01*
X373500Y1222625D01*
X366625Y1229500D01*
X333500Y1229633D01*
X328109Y1229102D01*
X325000Y1228159D01*
X325000Y1257300D01*
X324856Y1258763D01*
X324429Y1260170D01*
X323736Y1261467D01*
X322803Y1262603D01*
X302921Y1282486D01*
X304799Y1286000D01*
X324867Y1286000D01*
X325398Y1280609D01*
X326970Y1275425D01*
X329524Y1270648D01*
X332960Y1266460D01*
X337148Y1263024D01*
X341925Y1260470D01*
X347109Y1258898D01*
X352500Y1258367D01*
X381875Y1258500D01*
X388750Y1265375D01*
X388750Y1326000D01*
X403750Y1326000D01*
X403750Y1265375D01*
X410625Y1258500D01*
X440000Y1258367D01*
X445391Y1258898D01*
X450575Y1260470D01*
X455352Y1263024D01*
X459540Y1266460D01*
X462976Y1270648D01*
X465530Y1275425D01*
X467102Y1280609D01*
X467633Y1286000D01*
X611867Y1286000D01*
X612398Y1280609D01*
X613970Y1275425D01*
X616524Y1270648D01*
X619960Y1266460D01*
X624148Y1263024D01*
X628925Y1260470D01*
X634109Y1258898D01*
X639500Y1258367D01*
X668875Y1258500D01*
X675750Y1265375D01*
X675750Y1326000D01*
X618875Y1326000D01*
X612000Y1319125D01*
X611867Y1286000D01*
X467633Y1286000D01*
X467500Y1319125D01*
X460625Y1326000D01*
X403750Y1326000D01*
X388750Y1326000D01*
X331875Y1326000D01*
X325000Y1319125D01*
X324867Y1286000D01*
X304799Y1286000D01*
X306364Y1288929D01*
X309182Y1298217D01*
X310133Y1307875D01*
X310133Y1359125D01*
X309182Y1368784D01*
X306583Y1377350D01*
X324882Y1377350D01*
X325000Y1347875D01*
G37*
X325000Y1347875D02*
X331875Y1341000D01*
X388750Y1341000D01*
X388750Y1343000D01*
X403750Y1343000D01*
X403750Y1341000D01*
X460625Y1341000D01*
X467500Y1347875D01*
X467618Y1377350D01*
X611882Y1377350D01*
X612000Y1347875D01*
X618875Y1341000D01*
X675750Y1341000D01*
X675750Y1343000D01*
X690750Y1343000D01*
X690750Y1341000D01*
X692750Y1341000D01*
X692750Y1326000D01*
X690750Y1326000D01*
X690750Y1265375D01*
X697625Y1258500D01*
X716400Y1258415D01*
X716400Y1225314D01*
X708870Y1221289D01*
X701368Y1215132D01*
X695211Y1207630D01*
X690636Y1199071D01*
X687818Y1189784D01*
X686867Y1180125D01*
X686867Y1137800D01*
X646528Y1137800D01*
X646500Y1143875D01*
X639625Y1150750D01*
X579000Y1150750D01*
X579000Y1148750D01*
X564000Y1148750D01*
X564000Y1150750D01*
X503375Y1150750D01*
X496500Y1143875D01*
X496472Y1137800D01*
X456027Y1137800D01*
X456000Y1143875D01*
X449125Y1150750D01*
X388500Y1150750D01*
X388500Y1148750D01*
X373500Y1148750D01*
X373500Y1150750D01*
X371500Y1150750D01*
X371500Y1165750D01*
X373500Y1165750D01*
X373500Y1222625D01*
X388500Y1222625D01*
X388500Y1165750D01*
X449125Y1165750D01*
X456000Y1172625D01*
X456133Y1202000D01*
X496367Y1202000D01*
X496500Y1172625D01*
X503375Y1165750D01*
X564000Y1165750D01*
X564000Y1222625D01*
X579000Y1222625D01*
X579000Y1165750D01*
X639625Y1165750D01*
X646500Y1172625D01*
X646633Y1202000D01*
X646102Y1207391D01*
X644530Y1212575D01*
X641976Y1217352D01*
X638540Y1221540D01*
X634352Y1224976D01*
X629575Y1227530D01*
X624391Y1229102D01*
X619000Y1229633D01*
X585875Y1229500D01*
X579000Y1222625D01*
X564000Y1222625D01*
X557125Y1229500D01*
X524000Y1229633D01*
X518609Y1229102D01*
X513425Y1227530D01*
X508648Y1224976D01*
X504460Y1221540D01*
X501024Y1217352D01*
X498470Y1212575D01*
X496898Y1207391D01*
X496367Y1202000D01*
X456133Y1202000D01*
X455602Y1207391D01*
X454030Y1212575D01*
X451476Y1217352D01*
X448040Y1221540D01*
X443852Y1224976D01*
X439075Y1227530D01*
X433891Y1229102D01*
X428500Y1229633D01*
X395375Y1229500D01*
X388500Y1222625D01*
X373500Y1222625D01*
X366625Y1229500D01*
X333500Y1229633D01*
X328109Y1229102D01*
X325000Y1228159D01*
X325000Y1257300D01*
X324856Y1258763D01*
X324429Y1260170D01*
X323736Y1261467D01*
X322803Y1262603D01*
X302921Y1282486D01*
X304799Y1286000D01*
X324867Y1286000D01*
X325398Y1280609D01*
X326970Y1275425D01*
X329524Y1270648D01*
X332960Y1266460D01*
X337148Y1263024D01*
X341925Y1260470D01*
X347109Y1258898D01*
X352500Y1258367D01*
X381875Y1258500D01*
X388750Y1265375D01*
X388750Y1326000D01*
X403750Y1326000D01*
X403750Y1265375D01*
X410625Y1258500D01*
X440000Y1258367D01*
X445391Y1258898D01*
X450575Y1260470D01*
X455352Y1263024D01*
X459540Y1266460D01*
X462976Y1270648D01*
X465530Y1275425D01*
X467102Y1280609D01*
X467633Y1286000D01*
X611867Y1286000D01*
X612398Y1280609D01*
X613970Y1275425D01*
X616524Y1270648D01*
X619960Y1266460D01*
X624148Y1263024D01*
X628925Y1260470D01*
X634109Y1258898D01*
X639500Y1258367D01*
X668875Y1258500D01*
X675750Y1265375D01*
X675750Y1326000D01*
X618875Y1326000D01*
X612000Y1319125D01*
X611867Y1286000D01*
X467633Y1286000D01*
X467500Y1319125D01*
X460625Y1326000D01*
X403750Y1326000D01*
X388750Y1326000D01*
X331875Y1326000D01*
X325000Y1319125D01*
X324867Y1286000D01*
X304799Y1286000D01*
X306364Y1288929D01*
X309182Y1298217D01*
X310133Y1307875D01*
X310133Y1359125D01*
X309182Y1368784D01*
X306583Y1377350D01*
X324882Y1377350D01*
X325000Y1347875D01*
G36*
X573250Y1624500D02*
G01*
X575250Y1624500D01*
X575250Y1609500D01*
X573250Y1609500D01*
X573250Y1578875D01*
X580125Y1572000D01*
X602100Y1571891D01*
X602100Y1462350D01*
X451892Y1462350D01*
X453132Y1463368D01*
X459289Y1470870D01*
X463864Y1479429D01*
X466682Y1488716D01*
X467633Y1498375D01*
X467633Y1498426D01*
X513303Y1544097D01*
X514236Y1545233D01*
X514929Y1546530D01*
X515356Y1547937D01*
X515500Y1549400D01*
X515500Y1573493D01*
X519109Y1572398D01*
X524500Y1571867D01*
X551375Y1572000D01*
X558250Y1578875D01*
X558250Y1609500D01*
X556250Y1609500D01*
X556250Y1624500D01*
X558250Y1624500D01*
X558250Y1626500D01*
X573250Y1626500D01*
X573250Y1624500D01*
G37*
X573250Y1624500D02*
X575250Y1624500D01*
X575250Y1609500D01*
X573250Y1609500D01*
X573250Y1578875D01*
X580125Y1572000D01*
X602100Y1571891D01*
X602100Y1462350D01*
X451892Y1462350D01*
X453132Y1463368D01*
X459289Y1470870D01*
X463864Y1479429D01*
X466682Y1488716D01*
X467633Y1498375D01*
X467633Y1498426D01*
X513303Y1544097D01*
X514236Y1545233D01*
X514929Y1546530D01*
X515356Y1547937D01*
X515500Y1549400D01*
X515500Y1573493D01*
X519109Y1572398D01*
X524500Y1571867D01*
X551375Y1572000D01*
X558250Y1578875D01*
X558250Y1609500D01*
X556250Y1609500D01*
X556250Y1624500D01*
X558250Y1624500D01*
X558250Y1626500D01*
X573250Y1626500D01*
X573250Y1624500D01*
G36*
X324867Y1879375D02*
G01*
X325818Y1869716D01*
X328636Y1860429D01*
X333211Y1851870D01*
X335400Y1849202D01*
X335400Y1770298D01*
X333211Y1767630D01*
X328636Y1759071D01*
X325818Y1749783D01*
X324867Y1740125D01*
X324867Y1688875D01*
X325818Y1679216D01*
X328636Y1669929D01*
X333211Y1661370D01*
X335400Y1658702D01*
X335400Y1579798D01*
X333211Y1577130D01*
X328636Y1568571D01*
X325818Y1559283D01*
X324867Y1549625D01*
X324867Y1498375D01*
X325818Y1488716D01*
X328636Y1479429D01*
X333211Y1470870D01*
X339368Y1463368D01*
X340608Y1462350D01*
X294393Y1462350D01*
X295632Y1463368D01*
X301789Y1470870D01*
X306364Y1479429D01*
X309182Y1488716D01*
X310133Y1498375D01*
X310133Y1549625D01*
X309182Y1559283D01*
X306364Y1568571D01*
X301789Y1577130D01*
X295632Y1584632D01*
X288130Y1590789D01*
X279571Y1595364D01*
X270284Y1598182D01*
X260625Y1599133D01*
X216875Y1599133D01*
X210700Y1598525D01*
X210700Y1639438D01*
X224375Y1639500D01*
X231250Y1646375D01*
X231250Y1707000D01*
X246250Y1707000D01*
X246250Y1646375D01*
X253125Y1639500D01*
X282500Y1639367D01*
X287891Y1639898D01*
X293075Y1641470D01*
X297852Y1644024D01*
X302040Y1647460D01*
X305476Y1651648D01*
X308030Y1656425D01*
X309602Y1661609D01*
X310133Y1667000D01*
X310000Y1700125D01*
X303125Y1707000D01*
X246250Y1707000D01*
X231250Y1707000D01*
X229250Y1707000D01*
X229250Y1722000D01*
X231250Y1722000D01*
X231250Y1782625D01*
X246250Y1782625D01*
X246250Y1722000D01*
X303125Y1722000D01*
X310000Y1728875D01*
X310133Y1762000D01*
X309602Y1767391D01*
X308030Y1772575D01*
X305476Y1777352D01*
X302040Y1781540D01*
X297852Y1784976D01*
X293075Y1787530D01*
X287891Y1789102D01*
X282500Y1789633D01*
X253125Y1789500D01*
X246250Y1782625D01*
X231250Y1782625D01*
X224375Y1789500D01*
X210700Y1789562D01*
X210700Y1829938D01*
X224375Y1830000D01*
X231250Y1836875D01*
X231250Y1897500D01*
X246250Y1897500D01*
X246250Y1836875D01*
X253125Y1830000D01*
X282500Y1829867D01*
X287891Y1830398D01*
X293075Y1831970D01*
X297852Y1834524D01*
X302040Y1837960D01*
X305476Y1842148D01*
X308030Y1846925D01*
X309602Y1852109D01*
X310133Y1857500D01*
X310000Y1890625D01*
X303125Y1897500D01*
X246250Y1897500D01*
X231250Y1897500D01*
X229250Y1897500D01*
X229250Y1912500D01*
X231250Y1912500D01*
X231250Y1914500D01*
X246250Y1914500D01*
X246250Y1912500D01*
X303125Y1912500D01*
X310000Y1919375D01*
X310014Y1922900D01*
X324867Y1922900D01*
X324867Y1879375D01*
G37*
X324867Y1879375D02*
X325818Y1869716D01*
X328636Y1860429D01*
X333211Y1851870D01*
X335400Y1849202D01*
X335400Y1770298D01*
X333211Y1767630D01*
X328636Y1759071D01*
X325818Y1749783D01*
X324867Y1740125D01*
X324867Y1688875D01*
X325818Y1679216D01*
X328636Y1669929D01*
X333211Y1661370D01*
X335400Y1658702D01*
X335400Y1579798D01*
X333211Y1577130D01*
X328636Y1568571D01*
X325818Y1559283D01*
X324867Y1549625D01*
X324867Y1498375D01*
X325818Y1488716D01*
X328636Y1479429D01*
X333211Y1470870D01*
X339368Y1463368D01*
X340608Y1462350D01*
X294393Y1462350D01*
X295632Y1463368D01*
X301789Y1470870D01*
X306364Y1479429D01*
X309182Y1488716D01*
X310133Y1498375D01*
X310133Y1549625D01*
X309182Y1559283D01*
X306364Y1568571D01*
X301789Y1577130D01*
X295632Y1584632D01*
X288130Y1590789D01*
X279571Y1595364D01*
X270284Y1598182D01*
X260625Y1599133D01*
X216875Y1599133D01*
X210700Y1598525D01*
X210700Y1639438D01*
X224375Y1639500D01*
X231250Y1646375D01*
X231250Y1707000D01*
X246250Y1707000D01*
X246250Y1646375D01*
X253125Y1639500D01*
X282500Y1639367D01*
X287891Y1639898D01*
X293075Y1641470D01*
X297852Y1644024D01*
X302040Y1647460D01*
X305476Y1651648D01*
X308030Y1656425D01*
X309602Y1661609D01*
X310133Y1667000D01*
X310000Y1700125D01*
X303125Y1707000D01*
X246250Y1707000D01*
X231250Y1707000D01*
X229250Y1707000D01*
X229250Y1722000D01*
X231250Y1722000D01*
X231250Y1782625D01*
X246250Y1782625D01*
X246250Y1722000D01*
X303125Y1722000D01*
X310000Y1728875D01*
X310133Y1762000D01*
X309602Y1767391D01*
X308030Y1772575D01*
X305476Y1777352D01*
X302040Y1781540D01*
X297852Y1784976D01*
X293075Y1787530D01*
X287891Y1789102D01*
X282500Y1789633D01*
X253125Y1789500D01*
X246250Y1782625D01*
X231250Y1782625D01*
X224375Y1789500D01*
X210700Y1789562D01*
X210700Y1829938D01*
X224375Y1830000D01*
X231250Y1836875D01*
X231250Y1897500D01*
X246250Y1897500D01*
X246250Y1836875D01*
X253125Y1830000D01*
X282500Y1829867D01*
X287891Y1830398D01*
X293075Y1831970D01*
X297852Y1834524D01*
X302040Y1837960D01*
X305476Y1842148D01*
X308030Y1846925D01*
X309602Y1852109D01*
X310133Y1857500D01*
X310000Y1890625D01*
X303125Y1897500D01*
X246250Y1897500D01*
X231250Y1897500D01*
X229250Y1897500D01*
X229250Y1912500D01*
X231250Y1912500D01*
X231250Y1914500D01*
X246250Y1914500D01*
X246250Y1912500D01*
X303125Y1912500D01*
X310000Y1919375D01*
X310014Y1922900D01*
X324867Y1922900D01*
X324867Y1879375D01*
M02*
