%TF.GenerationSoftware,KiCad,Pcbnew,5.1.5+dfsg1-2~bpo10+1*%
%TF.CreationDate,Date%
%TF.ProjectId,ProMicro_LOG,50726f4d-6963-4726-9f5f-4c4f472e6b69,v1.0*%
%TF.SameCoordinates,Original*%
%TF.FileFunction,Paste,Top*%
%TF.FilePolarity,Positive*%
%FSLAX45Y45*%
G04 Gerber Fmt 4.5, Leading zero omitted, Abs format (unit mm)*
G04 Created by KiCad*
%MOMM*%
%LPD*%
G04 APERTURE LIST*
%ADD10C,0.100000*%
%ADD11C,0.150000*%
%ADD12R,1.900000X1.350000*%
%ADD13R,1.200000X1.000000*%
%ADD14R,1.550000X1.350000*%
%ADD15R,1.170000X1.800000*%
%ADD16R,0.850000X1.100000*%
%ADD17R,0.750000X1.100000*%
G04 APERTURE END LIST*
D10*
X-1587500Y2921000D02*
G75*
G03X-1651000Y2857500I0J-63500D01*
G01*
X127000Y2857500D02*
G75*
G03X63500Y2921000I-63500J0D01*
G01*
X63500Y-127000D02*
G75*
G03X127000Y-63500I0J63500D01*
G01*
X-1651000Y-63500D02*
G75*
G03X-1587500Y-127000I63500J0D01*
G01*
X-1651000Y2857500D02*
X-1651000Y-63500D01*
X63500Y2921000D02*
X-1587500Y2921000D01*
X127000Y-63500D02*
X127000Y2857500D01*
X-1587500Y-127000D02*
X63500Y-127000D01*
D11*
G36*
X-289731Y28395D02*
G01*
X-287607Y28080D01*
X-285525Y27558D01*
X-283504Y26835D01*
X-281563Y25917D01*
X-279722Y24813D01*
X-277998Y23535D01*
X-276407Y22093D01*
X-274965Y20502D01*
X-273687Y18778D01*
X-272583Y16937D01*
X-271665Y14996D01*
X-270942Y12975D01*
X-270420Y10893D01*
X-270105Y8769D01*
X-270000Y6625D01*
X-270000Y-37125D01*
X-270105Y-39269D01*
X-270420Y-41393D01*
X-270942Y-43475D01*
X-271665Y-45496D01*
X-272583Y-47437D01*
X-273687Y-49278D01*
X-274965Y-51002D01*
X-276407Y-52593D01*
X-277998Y-54035D01*
X-279722Y-55313D01*
X-281563Y-56417D01*
X-283504Y-57335D01*
X-285525Y-58058D01*
X-287607Y-58580D01*
X-289731Y-58895D01*
X-291875Y-59000D01*
X-343125Y-59000D01*
X-345269Y-58895D01*
X-347393Y-58580D01*
X-349475Y-58058D01*
X-351496Y-57335D01*
X-353437Y-56417D01*
X-355278Y-55313D01*
X-357002Y-54035D01*
X-358593Y-52593D01*
X-360035Y-51002D01*
X-361313Y-49278D01*
X-362417Y-47437D01*
X-363335Y-45496D01*
X-364058Y-43475D01*
X-364580Y-41393D01*
X-364895Y-39269D01*
X-365000Y-37125D01*
X-365000Y6625D01*
X-364895Y8769D01*
X-364580Y10893D01*
X-364058Y12975D01*
X-363335Y14996D01*
X-362417Y16937D01*
X-361313Y18778D01*
X-360035Y20502D01*
X-358593Y22093D01*
X-357002Y23535D01*
X-355278Y24813D01*
X-353437Y25917D01*
X-351496Y26835D01*
X-349475Y27558D01*
X-347393Y28080D01*
X-345269Y28395D01*
X-343125Y28500D01*
X-291875Y28500D01*
X-289731Y28395D01*
G37*
G36*
X-289731Y185895D02*
G01*
X-287607Y185580D01*
X-285525Y185058D01*
X-283504Y184335D01*
X-281563Y183417D01*
X-279722Y182313D01*
X-277998Y181035D01*
X-276407Y179593D01*
X-274965Y178002D01*
X-273687Y176278D01*
X-272583Y174437D01*
X-271665Y172496D01*
X-270942Y170475D01*
X-270420Y168393D01*
X-270105Y166269D01*
X-270000Y164125D01*
X-270000Y120375D01*
X-270105Y118231D01*
X-270420Y116107D01*
X-270942Y114025D01*
X-271665Y112004D01*
X-272583Y110063D01*
X-273687Y108222D01*
X-274965Y106498D01*
X-276407Y104907D01*
X-277998Y103465D01*
X-279722Y102187D01*
X-281563Y101083D01*
X-283504Y100165D01*
X-285525Y99442D01*
X-287607Y98920D01*
X-289731Y98605D01*
X-291875Y98500D01*
X-343125Y98500D01*
X-345269Y98605D01*
X-347393Y98920D01*
X-349475Y99442D01*
X-351496Y100165D01*
X-353437Y101083D01*
X-355278Y102187D01*
X-357002Y103465D01*
X-358593Y104907D01*
X-360035Y106498D01*
X-361313Y108222D01*
X-362417Y110063D01*
X-363335Y112004D01*
X-364058Y114025D01*
X-364580Y116107D01*
X-364895Y118231D01*
X-365000Y120375D01*
X-365000Y164125D01*
X-364895Y166269D01*
X-364580Y168393D01*
X-364058Y170475D01*
X-363335Y172496D01*
X-362417Y174437D01*
X-361313Y176278D01*
X-360035Y178002D01*
X-358593Y179593D01*
X-357002Y181035D01*
X-355278Y182313D01*
X-353437Y183417D01*
X-351496Y184335D01*
X-349475Y185058D01*
X-347393Y185580D01*
X-345269Y185895D01*
X-343125Y186000D01*
X-291875Y186000D01*
X-289731Y185895D01*
G37*
G36*
X-1103731Y1063395D02*
G01*
X-1101607Y1063080D01*
X-1099525Y1062558D01*
X-1097504Y1061835D01*
X-1095563Y1060917D01*
X-1093722Y1059813D01*
X-1091998Y1058535D01*
X-1090407Y1057093D01*
X-1088965Y1055502D01*
X-1087687Y1053778D01*
X-1086583Y1051937D01*
X-1085665Y1049996D01*
X-1084942Y1047975D01*
X-1084420Y1045893D01*
X-1084105Y1043769D01*
X-1084000Y1041625D01*
X-1084000Y990375D01*
X-1084105Y988231D01*
X-1084420Y986107D01*
X-1084942Y984025D01*
X-1085665Y982004D01*
X-1086583Y980063D01*
X-1087687Y978222D01*
X-1088965Y976498D01*
X-1090407Y974907D01*
X-1091998Y973465D01*
X-1093722Y972187D01*
X-1095563Y971083D01*
X-1097504Y970165D01*
X-1099525Y969442D01*
X-1101607Y968920D01*
X-1103731Y968605D01*
X-1105875Y968500D01*
X-1149625Y968500D01*
X-1151769Y968605D01*
X-1153893Y968920D01*
X-1155975Y969442D01*
X-1157996Y970165D01*
X-1159937Y971083D01*
X-1161778Y972187D01*
X-1163502Y973465D01*
X-1165093Y974907D01*
X-1166535Y976498D01*
X-1167813Y978222D01*
X-1168917Y980063D01*
X-1169835Y982004D01*
X-1170558Y984025D01*
X-1171080Y986107D01*
X-1171395Y988231D01*
X-1171500Y990375D01*
X-1171500Y1041625D01*
X-1171395Y1043769D01*
X-1171080Y1045893D01*
X-1170558Y1047975D01*
X-1169835Y1049996D01*
X-1168917Y1051937D01*
X-1167813Y1053778D01*
X-1166535Y1055502D01*
X-1165093Y1057093D01*
X-1163502Y1058535D01*
X-1161778Y1059813D01*
X-1159937Y1060917D01*
X-1157996Y1061835D01*
X-1155975Y1062558D01*
X-1153893Y1063080D01*
X-1151769Y1063395D01*
X-1149625Y1063500D01*
X-1105875Y1063500D01*
X-1103731Y1063395D01*
G37*
G36*
X-1261231Y1063395D02*
G01*
X-1259107Y1063080D01*
X-1257025Y1062558D01*
X-1255004Y1061835D01*
X-1253063Y1060917D01*
X-1251222Y1059813D01*
X-1249498Y1058535D01*
X-1247907Y1057093D01*
X-1246465Y1055502D01*
X-1245187Y1053778D01*
X-1244083Y1051937D01*
X-1243165Y1049996D01*
X-1242442Y1047975D01*
X-1241920Y1045893D01*
X-1241605Y1043769D01*
X-1241500Y1041625D01*
X-1241500Y990375D01*
X-1241605Y988231D01*
X-1241920Y986107D01*
X-1242442Y984025D01*
X-1243165Y982004D01*
X-1244083Y980063D01*
X-1245187Y978222D01*
X-1246465Y976498D01*
X-1247907Y974907D01*
X-1249498Y973465D01*
X-1251222Y972187D01*
X-1253063Y971083D01*
X-1255004Y970165D01*
X-1257025Y969442D01*
X-1259107Y968920D01*
X-1261231Y968605D01*
X-1263375Y968500D01*
X-1307125Y968500D01*
X-1309269Y968605D01*
X-1311393Y968920D01*
X-1313475Y969442D01*
X-1315496Y970165D01*
X-1317437Y971083D01*
X-1319278Y972187D01*
X-1321002Y973465D01*
X-1322593Y974907D01*
X-1324035Y976498D01*
X-1325313Y978222D01*
X-1326417Y980063D01*
X-1327335Y982004D01*
X-1328058Y984025D01*
X-1328580Y986107D01*
X-1328895Y988231D01*
X-1329000Y990375D01*
X-1329000Y1041625D01*
X-1328895Y1043769D01*
X-1328580Y1045893D01*
X-1328058Y1047975D01*
X-1327335Y1049996D01*
X-1326417Y1051937D01*
X-1325313Y1053778D01*
X-1324035Y1055502D01*
X-1322593Y1057093D01*
X-1321002Y1058535D01*
X-1319278Y1059813D01*
X-1317437Y1060917D01*
X-1315496Y1061835D01*
X-1313475Y1062558D01*
X-1311393Y1063080D01*
X-1309269Y1063395D01*
X-1307125Y1063500D01*
X-1263375Y1063500D01*
X-1261231Y1063395D01*
G37*
G36*
X-353231Y1074895D02*
G01*
X-351107Y1074580D01*
X-349025Y1074058D01*
X-347004Y1073335D01*
X-345063Y1072417D01*
X-343222Y1071313D01*
X-341498Y1070035D01*
X-339907Y1068593D01*
X-338465Y1067002D01*
X-337187Y1065278D01*
X-336083Y1063437D01*
X-335165Y1061496D01*
X-334442Y1059475D01*
X-333920Y1057393D01*
X-333605Y1055269D01*
X-333500Y1053125D01*
X-333500Y1009375D01*
X-333605Y1007231D01*
X-333920Y1005107D01*
X-334442Y1003025D01*
X-335165Y1001004D01*
X-336083Y999063D01*
X-337187Y997222D01*
X-338465Y995498D01*
X-339907Y993907D01*
X-341498Y992465D01*
X-343222Y991187D01*
X-345063Y990083D01*
X-347004Y989165D01*
X-349025Y988442D01*
X-351107Y987920D01*
X-353231Y987605D01*
X-355375Y987500D01*
X-406625Y987500D01*
X-408769Y987605D01*
X-410893Y987920D01*
X-412975Y988442D01*
X-414996Y989165D01*
X-416937Y990083D01*
X-418778Y991187D01*
X-420502Y992465D01*
X-422093Y993907D01*
X-423535Y995498D01*
X-424813Y997222D01*
X-425917Y999063D01*
X-426835Y1001004D01*
X-427558Y1003025D01*
X-428080Y1005107D01*
X-428395Y1007231D01*
X-428500Y1009375D01*
X-428500Y1053125D01*
X-428395Y1055269D01*
X-428080Y1057393D01*
X-427558Y1059475D01*
X-426835Y1061496D01*
X-425917Y1063437D01*
X-424813Y1065278D01*
X-423535Y1067002D01*
X-422093Y1068593D01*
X-420502Y1070035D01*
X-418778Y1071313D01*
X-416937Y1072417D01*
X-414996Y1073335D01*
X-412975Y1074058D01*
X-410893Y1074580D01*
X-408769Y1074895D01*
X-406625Y1075000D01*
X-355375Y1075000D01*
X-353231Y1074895D01*
G37*
G36*
X-353231Y917395D02*
G01*
X-351107Y917080D01*
X-349025Y916558D01*
X-347004Y915835D01*
X-345063Y914917D01*
X-343222Y913813D01*
X-341498Y912535D01*
X-339907Y911093D01*
X-338465Y909502D01*
X-337187Y907778D01*
X-336083Y905937D01*
X-335165Y903996D01*
X-334442Y901975D01*
X-333920Y899893D01*
X-333605Y897769D01*
X-333500Y895625D01*
X-333500Y851875D01*
X-333605Y849731D01*
X-333920Y847607D01*
X-334442Y845525D01*
X-335165Y843504D01*
X-336083Y841563D01*
X-337187Y839722D01*
X-338465Y837998D01*
X-339907Y836407D01*
X-341498Y834965D01*
X-343222Y833687D01*
X-345063Y832583D01*
X-347004Y831665D01*
X-349025Y830942D01*
X-351107Y830420D01*
X-353231Y830105D01*
X-355375Y830000D01*
X-406625Y830000D01*
X-408769Y830105D01*
X-410893Y830420D01*
X-412975Y830942D01*
X-414996Y831665D01*
X-416937Y832583D01*
X-418778Y833687D01*
X-420502Y834965D01*
X-422093Y836407D01*
X-423535Y837998D01*
X-424813Y839722D01*
X-425917Y841563D01*
X-426835Y843504D01*
X-427558Y845525D01*
X-428080Y847607D01*
X-428395Y849731D01*
X-428500Y851875D01*
X-428500Y895625D01*
X-428395Y897769D01*
X-428080Y899893D01*
X-427558Y901975D01*
X-426835Y903996D01*
X-425917Y905937D01*
X-424813Y907778D01*
X-423535Y909502D01*
X-422093Y911093D01*
X-420502Y912535D01*
X-418778Y913813D01*
X-416937Y914917D01*
X-414996Y915835D01*
X-412975Y916558D01*
X-410893Y917080D01*
X-408769Y917395D01*
X-406625Y917500D01*
X-355375Y917500D01*
X-353231Y917395D01*
G37*
G36*
X-162731Y1074895D02*
G01*
X-160607Y1074580D01*
X-158525Y1074058D01*
X-156504Y1073335D01*
X-154563Y1072417D01*
X-152722Y1071313D01*
X-150998Y1070035D01*
X-149407Y1068593D01*
X-147965Y1067002D01*
X-146687Y1065278D01*
X-145583Y1063437D01*
X-144665Y1061496D01*
X-143942Y1059475D01*
X-143420Y1057393D01*
X-143105Y1055269D01*
X-143000Y1053125D01*
X-143000Y1009375D01*
X-143105Y1007231D01*
X-143420Y1005107D01*
X-143942Y1003025D01*
X-144665Y1001004D01*
X-145583Y999063D01*
X-146687Y997222D01*
X-147965Y995498D01*
X-149407Y993907D01*
X-150998Y992465D01*
X-152722Y991187D01*
X-154563Y990083D01*
X-156504Y989165D01*
X-158525Y988442D01*
X-160607Y987920D01*
X-162731Y987605D01*
X-164875Y987500D01*
X-216125Y987500D01*
X-218269Y987605D01*
X-220393Y987920D01*
X-222475Y988442D01*
X-224496Y989165D01*
X-226437Y990083D01*
X-228278Y991187D01*
X-230002Y992465D01*
X-231593Y993907D01*
X-233035Y995498D01*
X-234313Y997222D01*
X-235417Y999063D01*
X-236335Y1001004D01*
X-237058Y1003025D01*
X-237580Y1005107D01*
X-237895Y1007231D01*
X-238000Y1009375D01*
X-238000Y1053125D01*
X-237895Y1055269D01*
X-237580Y1057393D01*
X-237058Y1059475D01*
X-236335Y1061496D01*
X-235417Y1063437D01*
X-234313Y1065278D01*
X-233035Y1067002D01*
X-231593Y1068593D01*
X-230002Y1070035D01*
X-228278Y1071313D01*
X-226437Y1072417D01*
X-224496Y1073335D01*
X-222475Y1074058D01*
X-220393Y1074580D01*
X-218269Y1074895D01*
X-216125Y1075000D01*
X-164875Y1075000D01*
X-162731Y1074895D01*
G37*
G36*
X-162731Y917395D02*
G01*
X-160607Y917080D01*
X-158525Y916558D01*
X-156504Y915835D01*
X-154563Y914917D01*
X-152722Y913813D01*
X-150998Y912535D01*
X-149407Y911093D01*
X-147965Y909502D01*
X-146687Y907778D01*
X-145583Y905937D01*
X-144665Y903996D01*
X-143942Y901975D01*
X-143420Y899893D01*
X-143105Y897769D01*
X-143000Y895625D01*
X-143000Y851875D01*
X-143105Y849731D01*
X-143420Y847607D01*
X-143942Y845525D01*
X-144665Y843504D01*
X-145583Y841563D01*
X-146687Y839722D01*
X-147965Y837998D01*
X-149407Y836407D01*
X-150998Y834965D01*
X-152722Y833687D01*
X-154563Y832583D01*
X-156504Y831665D01*
X-158525Y830942D01*
X-160607Y830420D01*
X-162731Y830105D01*
X-164875Y830000D01*
X-216125Y830000D01*
X-218269Y830105D01*
X-220393Y830420D01*
X-222475Y830942D01*
X-224496Y831665D01*
X-226437Y832583D01*
X-228278Y833687D01*
X-230002Y834965D01*
X-231593Y836407D01*
X-233035Y837998D01*
X-234313Y839722D01*
X-235417Y841563D01*
X-236335Y843504D01*
X-237058Y845525D01*
X-237580Y847607D01*
X-237895Y849731D01*
X-238000Y851875D01*
X-238000Y895625D01*
X-237895Y897769D01*
X-237580Y899893D01*
X-237058Y901975D01*
X-236335Y903996D01*
X-235417Y905937D01*
X-234313Y907778D01*
X-233035Y909502D01*
X-231593Y911093D01*
X-230002Y912535D01*
X-228278Y913813D01*
X-226437Y914917D01*
X-224496Y915835D01*
X-222475Y916558D01*
X-220393Y917080D01*
X-218269Y917395D01*
X-216125Y917500D01*
X-164875Y917500D01*
X-162731Y917395D01*
G37*
G36*
X-1103731Y872895D02*
G01*
X-1101607Y872580D01*
X-1099525Y872058D01*
X-1097504Y871335D01*
X-1095563Y870417D01*
X-1093722Y869313D01*
X-1091998Y868035D01*
X-1090407Y866593D01*
X-1088965Y865002D01*
X-1087687Y863278D01*
X-1086583Y861437D01*
X-1085665Y859496D01*
X-1084942Y857475D01*
X-1084420Y855393D01*
X-1084105Y853269D01*
X-1084000Y851125D01*
X-1084000Y799875D01*
X-1084105Y797731D01*
X-1084420Y795607D01*
X-1084942Y793525D01*
X-1085665Y791504D01*
X-1086583Y789563D01*
X-1087687Y787722D01*
X-1088965Y785998D01*
X-1090407Y784407D01*
X-1091998Y782965D01*
X-1093722Y781687D01*
X-1095563Y780583D01*
X-1097504Y779665D01*
X-1099525Y778942D01*
X-1101607Y778420D01*
X-1103731Y778105D01*
X-1105875Y778000D01*
X-1149625Y778000D01*
X-1151769Y778105D01*
X-1153893Y778420D01*
X-1155975Y778942D01*
X-1157996Y779665D01*
X-1159937Y780583D01*
X-1161778Y781687D01*
X-1163502Y782965D01*
X-1165093Y784407D01*
X-1166535Y785998D01*
X-1167813Y787722D01*
X-1168917Y789563D01*
X-1169835Y791504D01*
X-1170558Y793525D01*
X-1171080Y795607D01*
X-1171395Y797731D01*
X-1171500Y799875D01*
X-1171500Y851125D01*
X-1171395Y853269D01*
X-1171080Y855393D01*
X-1170558Y857475D01*
X-1169835Y859496D01*
X-1168917Y861437D01*
X-1167813Y863278D01*
X-1166535Y865002D01*
X-1165093Y866593D01*
X-1163502Y868035D01*
X-1161778Y869313D01*
X-1159937Y870417D01*
X-1157996Y871335D01*
X-1155975Y872058D01*
X-1153893Y872580D01*
X-1151769Y872895D01*
X-1149625Y873000D01*
X-1105875Y873000D01*
X-1103731Y872895D01*
G37*
G36*
X-1261231Y872895D02*
G01*
X-1259107Y872580D01*
X-1257025Y872058D01*
X-1255004Y871335D01*
X-1253063Y870417D01*
X-1251222Y869313D01*
X-1249498Y868035D01*
X-1247907Y866593D01*
X-1246465Y865002D01*
X-1245187Y863278D01*
X-1244083Y861437D01*
X-1243165Y859496D01*
X-1242442Y857475D01*
X-1241920Y855393D01*
X-1241605Y853269D01*
X-1241500Y851125D01*
X-1241500Y799875D01*
X-1241605Y797731D01*
X-1241920Y795607D01*
X-1242442Y793525D01*
X-1243165Y791504D01*
X-1244083Y789563D01*
X-1245187Y787722D01*
X-1246465Y785998D01*
X-1247907Y784407D01*
X-1249498Y782965D01*
X-1251222Y781687D01*
X-1253063Y780583D01*
X-1255004Y779665D01*
X-1257025Y778942D01*
X-1259107Y778420D01*
X-1261231Y778105D01*
X-1263375Y778000D01*
X-1307125Y778000D01*
X-1309269Y778105D01*
X-1311393Y778420D01*
X-1313475Y778942D01*
X-1315496Y779665D01*
X-1317437Y780583D01*
X-1319278Y781687D01*
X-1321002Y782965D01*
X-1322593Y784407D01*
X-1324035Y785998D01*
X-1325313Y787722D01*
X-1326417Y789563D01*
X-1327335Y791504D01*
X-1328058Y793525D01*
X-1328580Y795607D01*
X-1328895Y797731D01*
X-1329000Y799875D01*
X-1329000Y851125D01*
X-1328895Y853269D01*
X-1328580Y855393D01*
X-1328058Y857475D01*
X-1327335Y859496D01*
X-1326417Y861437D01*
X-1325313Y863278D01*
X-1324035Y865002D01*
X-1322593Y866593D01*
X-1321002Y868035D01*
X-1319278Y869313D01*
X-1317437Y870417D01*
X-1315496Y871335D01*
X-1313475Y872058D01*
X-1311393Y872580D01*
X-1309269Y872895D01*
X-1307125Y873000D01*
X-1263375Y873000D01*
X-1261231Y872895D01*
G37*
G36*
X-1103731Y682395D02*
G01*
X-1101607Y682080D01*
X-1099525Y681558D01*
X-1097504Y680835D01*
X-1095563Y679917D01*
X-1093722Y678813D01*
X-1091998Y677535D01*
X-1090407Y676093D01*
X-1088965Y674502D01*
X-1087687Y672778D01*
X-1086583Y670937D01*
X-1085665Y668996D01*
X-1084942Y666975D01*
X-1084420Y664893D01*
X-1084105Y662769D01*
X-1084000Y660625D01*
X-1084000Y609375D01*
X-1084105Y607231D01*
X-1084420Y605107D01*
X-1084942Y603025D01*
X-1085665Y601004D01*
X-1086583Y599063D01*
X-1087687Y597222D01*
X-1088965Y595498D01*
X-1090407Y593907D01*
X-1091998Y592465D01*
X-1093722Y591187D01*
X-1095563Y590083D01*
X-1097504Y589165D01*
X-1099525Y588442D01*
X-1101607Y587920D01*
X-1103731Y587605D01*
X-1105875Y587500D01*
X-1149625Y587500D01*
X-1151769Y587605D01*
X-1153893Y587920D01*
X-1155975Y588442D01*
X-1157996Y589165D01*
X-1159937Y590083D01*
X-1161778Y591187D01*
X-1163502Y592465D01*
X-1165093Y593907D01*
X-1166535Y595498D01*
X-1167813Y597222D01*
X-1168917Y599063D01*
X-1169835Y601004D01*
X-1170558Y603025D01*
X-1171080Y605107D01*
X-1171395Y607231D01*
X-1171500Y609375D01*
X-1171500Y660625D01*
X-1171395Y662769D01*
X-1171080Y664893D01*
X-1170558Y666975D01*
X-1169835Y668996D01*
X-1168917Y670937D01*
X-1167813Y672778D01*
X-1166535Y674502D01*
X-1165093Y676093D01*
X-1163502Y677535D01*
X-1161778Y678813D01*
X-1159937Y679917D01*
X-1157996Y680835D01*
X-1155975Y681558D01*
X-1153893Y682080D01*
X-1151769Y682395D01*
X-1149625Y682500D01*
X-1105875Y682500D01*
X-1103731Y682395D01*
G37*
G36*
X-1261231Y682395D02*
G01*
X-1259107Y682080D01*
X-1257025Y681558D01*
X-1255004Y680835D01*
X-1253063Y679917D01*
X-1251222Y678813D01*
X-1249498Y677535D01*
X-1247907Y676093D01*
X-1246465Y674502D01*
X-1245187Y672778D01*
X-1244083Y670937D01*
X-1243165Y668996D01*
X-1242442Y666975D01*
X-1241920Y664893D01*
X-1241605Y662769D01*
X-1241500Y660625D01*
X-1241500Y609375D01*
X-1241605Y607231D01*
X-1241920Y605107D01*
X-1242442Y603025D01*
X-1243165Y601004D01*
X-1244083Y599063D01*
X-1245187Y597222D01*
X-1246465Y595498D01*
X-1247907Y593907D01*
X-1249498Y592465D01*
X-1251222Y591187D01*
X-1253063Y590083D01*
X-1255004Y589165D01*
X-1257025Y588442D01*
X-1259107Y587920D01*
X-1261231Y587605D01*
X-1263375Y587500D01*
X-1307125Y587500D01*
X-1309269Y587605D01*
X-1311393Y587920D01*
X-1313475Y588442D01*
X-1315496Y589165D01*
X-1317437Y590083D01*
X-1319278Y591187D01*
X-1321002Y592465D01*
X-1322593Y593907D01*
X-1324035Y595498D01*
X-1325313Y597222D01*
X-1326417Y599063D01*
X-1327335Y601004D01*
X-1328058Y603025D01*
X-1328580Y605107D01*
X-1328895Y607231D01*
X-1329000Y609375D01*
X-1329000Y660625D01*
X-1328895Y662769D01*
X-1328580Y664893D01*
X-1328058Y666975D01*
X-1327335Y668996D01*
X-1326417Y670937D01*
X-1325313Y672778D01*
X-1324035Y674502D01*
X-1322593Y676093D01*
X-1321002Y677535D01*
X-1319278Y678813D01*
X-1317437Y679917D01*
X-1315496Y680835D01*
X-1313475Y681558D01*
X-1311393Y682080D01*
X-1309269Y682395D01*
X-1307125Y682500D01*
X-1263375Y682500D01*
X-1261231Y682395D01*
G37*
G36*
X-1103731Y491895D02*
G01*
X-1101607Y491580D01*
X-1099525Y491058D01*
X-1097504Y490335D01*
X-1095563Y489417D01*
X-1093722Y488313D01*
X-1091998Y487035D01*
X-1090407Y485593D01*
X-1088965Y484002D01*
X-1087687Y482278D01*
X-1086583Y480437D01*
X-1085665Y478496D01*
X-1084942Y476475D01*
X-1084420Y474393D01*
X-1084105Y472269D01*
X-1084000Y470125D01*
X-1084000Y418875D01*
X-1084105Y416731D01*
X-1084420Y414607D01*
X-1084942Y412525D01*
X-1085665Y410504D01*
X-1086583Y408563D01*
X-1087687Y406722D01*
X-1088965Y404998D01*
X-1090407Y403407D01*
X-1091998Y401965D01*
X-1093722Y400687D01*
X-1095563Y399583D01*
X-1097504Y398665D01*
X-1099525Y397942D01*
X-1101607Y397420D01*
X-1103731Y397105D01*
X-1105875Y397000D01*
X-1149625Y397000D01*
X-1151769Y397105D01*
X-1153893Y397420D01*
X-1155975Y397942D01*
X-1157996Y398665D01*
X-1159937Y399583D01*
X-1161778Y400687D01*
X-1163502Y401965D01*
X-1165093Y403407D01*
X-1166535Y404998D01*
X-1167813Y406722D01*
X-1168917Y408563D01*
X-1169835Y410504D01*
X-1170558Y412525D01*
X-1171080Y414607D01*
X-1171395Y416731D01*
X-1171500Y418875D01*
X-1171500Y470125D01*
X-1171395Y472269D01*
X-1171080Y474393D01*
X-1170558Y476475D01*
X-1169835Y478496D01*
X-1168917Y480437D01*
X-1167813Y482278D01*
X-1166535Y484002D01*
X-1165093Y485593D01*
X-1163502Y487035D01*
X-1161778Y488313D01*
X-1159937Y489417D01*
X-1157996Y490335D01*
X-1155975Y491058D01*
X-1153893Y491580D01*
X-1151769Y491895D01*
X-1149625Y492000D01*
X-1105875Y492000D01*
X-1103731Y491895D01*
G37*
G36*
X-1261231Y491895D02*
G01*
X-1259107Y491580D01*
X-1257025Y491058D01*
X-1255004Y490335D01*
X-1253063Y489417D01*
X-1251222Y488313D01*
X-1249498Y487035D01*
X-1247907Y485593D01*
X-1246465Y484002D01*
X-1245187Y482278D01*
X-1244083Y480437D01*
X-1243165Y478496D01*
X-1242442Y476475D01*
X-1241920Y474393D01*
X-1241605Y472269D01*
X-1241500Y470125D01*
X-1241500Y418875D01*
X-1241605Y416731D01*
X-1241920Y414607D01*
X-1242442Y412525D01*
X-1243165Y410504D01*
X-1244083Y408563D01*
X-1245187Y406722D01*
X-1246465Y404998D01*
X-1247907Y403407D01*
X-1249498Y401965D01*
X-1251222Y400687D01*
X-1253063Y399583D01*
X-1255004Y398665D01*
X-1257025Y397942D01*
X-1259107Y397420D01*
X-1261231Y397105D01*
X-1263375Y397000D01*
X-1307125Y397000D01*
X-1309269Y397105D01*
X-1311393Y397420D01*
X-1313475Y397942D01*
X-1315496Y398665D01*
X-1317437Y399583D01*
X-1319278Y400687D01*
X-1321002Y401965D01*
X-1322593Y403407D01*
X-1324035Y404998D01*
X-1325313Y406722D01*
X-1326417Y408563D01*
X-1327335Y410504D01*
X-1328058Y412525D01*
X-1328580Y414607D01*
X-1328895Y416731D01*
X-1329000Y418875D01*
X-1329000Y470125D01*
X-1328895Y472269D01*
X-1328580Y474393D01*
X-1328058Y476475D01*
X-1327335Y478496D01*
X-1326417Y480437D01*
X-1325313Y482278D01*
X-1324035Y484002D01*
X-1322593Y485593D01*
X-1321002Y487035D01*
X-1319278Y488313D01*
X-1317437Y489417D01*
X-1315496Y490335D01*
X-1313475Y491058D01*
X-1311393Y491580D01*
X-1309269Y491895D01*
X-1307125Y492000D01*
X-1263375Y492000D01*
X-1261231Y491895D01*
G37*
G36*
X-372231Y428395D02*
G01*
X-370107Y428080D01*
X-368025Y427558D01*
X-366004Y426835D01*
X-364063Y425917D01*
X-362222Y424813D01*
X-360498Y423535D01*
X-358907Y422093D01*
X-357465Y420502D01*
X-356187Y418778D01*
X-355083Y416937D01*
X-354165Y414996D01*
X-353442Y412975D01*
X-352920Y410893D01*
X-352605Y408769D01*
X-352500Y406625D01*
X-352500Y355375D01*
X-352605Y353231D01*
X-352920Y351107D01*
X-353442Y349025D01*
X-354165Y347004D01*
X-355083Y345063D01*
X-356187Y343222D01*
X-357465Y341498D01*
X-358907Y339907D01*
X-360498Y338465D01*
X-362222Y337187D01*
X-364063Y336083D01*
X-366004Y335165D01*
X-368025Y334442D01*
X-370107Y333920D01*
X-372231Y333605D01*
X-374375Y333500D01*
X-418125Y333500D01*
X-420269Y333605D01*
X-422393Y333920D01*
X-424475Y334442D01*
X-426496Y335165D01*
X-428437Y336083D01*
X-430278Y337187D01*
X-432002Y338465D01*
X-433593Y339907D01*
X-435035Y341498D01*
X-436313Y343222D01*
X-437417Y345063D01*
X-438335Y347004D01*
X-439058Y349025D01*
X-439580Y351107D01*
X-439895Y353231D01*
X-440000Y355375D01*
X-440000Y406625D01*
X-439895Y408769D01*
X-439580Y410893D01*
X-439058Y412975D01*
X-438335Y414996D01*
X-437417Y416937D01*
X-436313Y418778D01*
X-435035Y420502D01*
X-433593Y422093D01*
X-432002Y423535D01*
X-430278Y424813D01*
X-428437Y425917D01*
X-426496Y426835D01*
X-424475Y427558D01*
X-422393Y428080D01*
X-420269Y428395D01*
X-418125Y428500D01*
X-374375Y428500D01*
X-372231Y428395D01*
G37*
G36*
X-214731Y428395D02*
G01*
X-212607Y428080D01*
X-210525Y427558D01*
X-208504Y426835D01*
X-206563Y425917D01*
X-204722Y424813D01*
X-202998Y423535D01*
X-201407Y422093D01*
X-199965Y420502D01*
X-198687Y418778D01*
X-197583Y416937D01*
X-196665Y414996D01*
X-195942Y412975D01*
X-195420Y410893D01*
X-195105Y408769D01*
X-195000Y406625D01*
X-195000Y355375D01*
X-195105Y353231D01*
X-195420Y351107D01*
X-195942Y349025D01*
X-196665Y347004D01*
X-197583Y345063D01*
X-198687Y343222D01*
X-199965Y341498D01*
X-201407Y339907D01*
X-202998Y338465D01*
X-204722Y337187D01*
X-206563Y336083D01*
X-208504Y335165D01*
X-210525Y334442D01*
X-212607Y333920D01*
X-214731Y333605D01*
X-216875Y333500D01*
X-260625Y333500D01*
X-262769Y333605D01*
X-264893Y333920D01*
X-266975Y334442D01*
X-268996Y335165D01*
X-270937Y336083D01*
X-272778Y337187D01*
X-274502Y338465D01*
X-276093Y339907D01*
X-277535Y341498D01*
X-278813Y343222D01*
X-279917Y345063D01*
X-280835Y347004D01*
X-281558Y349025D01*
X-282080Y351107D01*
X-282395Y353231D01*
X-282500Y355375D01*
X-282500Y406625D01*
X-282395Y408769D01*
X-282080Y410893D01*
X-281558Y412975D01*
X-280835Y414996D01*
X-279917Y416937D01*
X-278813Y418778D01*
X-277535Y420502D01*
X-276093Y422093D01*
X-274502Y423535D01*
X-272778Y424813D01*
X-270937Y425917D01*
X-268996Y426835D01*
X-266975Y427558D01*
X-264893Y428080D01*
X-262769Y428395D01*
X-260625Y428500D01*
X-216875Y428500D01*
X-214731Y428395D01*
G37*
G36*
X-936030Y979928D02*
G01*
X-934574Y979712D01*
X-933146Y979354D01*
X-931760Y978858D01*
X-930429Y978229D01*
X-929166Y977472D01*
X-927984Y976595D01*
X-926893Y975607D01*
X-925905Y974516D01*
X-925028Y973334D01*
X-924271Y972071D01*
X-923642Y970740D01*
X-923146Y969354D01*
X-922788Y967926D01*
X-922572Y966470D01*
X-922500Y965000D01*
X-922500Y800000D01*
X-922572Y798530D01*
X-922788Y797074D01*
X-923146Y795646D01*
X-923642Y794260D01*
X-924271Y792929D01*
X-925028Y791666D01*
X-925905Y790484D01*
X-926893Y789393D01*
X-927984Y788405D01*
X-929166Y787528D01*
X-930429Y786771D01*
X-931760Y786142D01*
X-933146Y785646D01*
X-934574Y785288D01*
X-936030Y785072D01*
X-937500Y785000D01*
X-967500Y785000D01*
X-968970Y785072D01*
X-970426Y785288D01*
X-971854Y785646D01*
X-973240Y786142D01*
X-974571Y786771D01*
X-975834Y787528D01*
X-977016Y788405D01*
X-978107Y789393D01*
X-979095Y790484D01*
X-979972Y791666D01*
X-980729Y792929D01*
X-981358Y794260D01*
X-981854Y795646D01*
X-982212Y797074D01*
X-982428Y798530D01*
X-982500Y800000D01*
X-982500Y965000D01*
X-982428Y966470D01*
X-982212Y967926D01*
X-981854Y969354D01*
X-981358Y970740D01*
X-980729Y972071D01*
X-979972Y973334D01*
X-979095Y974516D01*
X-978107Y975607D01*
X-977016Y976595D01*
X-975834Y977472D01*
X-974571Y978229D01*
X-973240Y978858D01*
X-971854Y979354D01*
X-970426Y979712D01*
X-968970Y979928D01*
X-967500Y980000D01*
X-937500Y980000D01*
X-936030Y979928D01*
G37*
G36*
X-809030Y979928D02*
G01*
X-807574Y979712D01*
X-806146Y979354D01*
X-804760Y978858D01*
X-803429Y978229D01*
X-802166Y977472D01*
X-800984Y976595D01*
X-799893Y975607D01*
X-798905Y974516D01*
X-798028Y973334D01*
X-797271Y972071D01*
X-796642Y970740D01*
X-796146Y969354D01*
X-795788Y967926D01*
X-795572Y966470D01*
X-795500Y965000D01*
X-795500Y800000D01*
X-795572Y798530D01*
X-795788Y797074D01*
X-796146Y795646D01*
X-796642Y794260D01*
X-797271Y792929D01*
X-798028Y791666D01*
X-798905Y790484D01*
X-799893Y789393D01*
X-800984Y788405D01*
X-802166Y787528D01*
X-803429Y786771D01*
X-804760Y786142D01*
X-806146Y785646D01*
X-807574Y785288D01*
X-809030Y785072D01*
X-810500Y785000D01*
X-840500Y785000D01*
X-841970Y785072D01*
X-843426Y785288D01*
X-844854Y785646D01*
X-846240Y786142D01*
X-847571Y786771D01*
X-848834Y787528D01*
X-850016Y788405D01*
X-851107Y789393D01*
X-852095Y790484D01*
X-852972Y791666D01*
X-853729Y792929D01*
X-854358Y794260D01*
X-854854Y795646D01*
X-855212Y797074D01*
X-855428Y798530D01*
X-855500Y800000D01*
X-855500Y965000D01*
X-855428Y966470D01*
X-855212Y967926D01*
X-854854Y969354D01*
X-854358Y970740D01*
X-853729Y972071D01*
X-852972Y973334D01*
X-852095Y974516D01*
X-851107Y975607D01*
X-850016Y976595D01*
X-848834Y977472D01*
X-847571Y978229D01*
X-846240Y978858D01*
X-844854Y979354D01*
X-843426Y979712D01*
X-841970Y979928D01*
X-840500Y980000D01*
X-810500Y980000D01*
X-809030Y979928D01*
G37*
G36*
X-682030Y979928D02*
G01*
X-680574Y979712D01*
X-679146Y979354D01*
X-677760Y978858D01*
X-676429Y978229D01*
X-675166Y977472D01*
X-673984Y976595D01*
X-672893Y975607D01*
X-671905Y974516D01*
X-671028Y973334D01*
X-670271Y972071D01*
X-669642Y970740D01*
X-669146Y969354D01*
X-668788Y967926D01*
X-668572Y966470D01*
X-668500Y965000D01*
X-668500Y800000D01*
X-668572Y798530D01*
X-668788Y797074D01*
X-669146Y795646D01*
X-669642Y794260D01*
X-670271Y792929D01*
X-671028Y791666D01*
X-671905Y790484D01*
X-672893Y789393D01*
X-673984Y788405D01*
X-675166Y787528D01*
X-676429Y786771D01*
X-677760Y786142D01*
X-679146Y785646D01*
X-680574Y785288D01*
X-682030Y785072D01*
X-683500Y785000D01*
X-713500Y785000D01*
X-714970Y785072D01*
X-716426Y785288D01*
X-717854Y785646D01*
X-719240Y786142D01*
X-720571Y786771D01*
X-721834Y787528D01*
X-723016Y788405D01*
X-724107Y789393D01*
X-725095Y790484D01*
X-725972Y791666D01*
X-726729Y792929D01*
X-727358Y794260D01*
X-727854Y795646D01*
X-728212Y797074D01*
X-728428Y798530D01*
X-728500Y800000D01*
X-728500Y965000D01*
X-728428Y966470D01*
X-728212Y967926D01*
X-727854Y969354D01*
X-727358Y970740D01*
X-726729Y972071D01*
X-725972Y973334D01*
X-725095Y974516D01*
X-724107Y975607D01*
X-723016Y976595D01*
X-721834Y977472D01*
X-720571Y978229D01*
X-719240Y978858D01*
X-717854Y979354D01*
X-716426Y979712D01*
X-714970Y979928D01*
X-713500Y980000D01*
X-683500Y980000D01*
X-682030Y979928D01*
G37*
G36*
X-555030Y979928D02*
G01*
X-553574Y979712D01*
X-552146Y979354D01*
X-550760Y978858D01*
X-549429Y978229D01*
X-548166Y977472D01*
X-546984Y976595D01*
X-545893Y975607D01*
X-544905Y974516D01*
X-544028Y973334D01*
X-543271Y972071D01*
X-542642Y970740D01*
X-542146Y969354D01*
X-541788Y967926D01*
X-541572Y966470D01*
X-541500Y965000D01*
X-541500Y800000D01*
X-541572Y798530D01*
X-541788Y797074D01*
X-542146Y795646D01*
X-542642Y794260D01*
X-543271Y792929D01*
X-544028Y791666D01*
X-544905Y790484D01*
X-545893Y789393D01*
X-546984Y788405D01*
X-548166Y787528D01*
X-549429Y786771D01*
X-550760Y786142D01*
X-552146Y785646D01*
X-553574Y785288D01*
X-555030Y785072D01*
X-556500Y785000D01*
X-586500Y785000D01*
X-587970Y785072D01*
X-589426Y785288D01*
X-590854Y785646D01*
X-592240Y786142D01*
X-593571Y786771D01*
X-594834Y787528D01*
X-596016Y788405D01*
X-597107Y789393D01*
X-598095Y790484D01*
X-598972Y791666D01*
X-599729Y792929D01*
X-600358Y794260D01*
X-600854Y795646D01*
X-601212Y797074D01*
X-601428Y798530D01*
X-601500Y800000D01*
X-601500Y965000D01*
X-601428Y966470D01*
X-601212Y967926D01*
X-600854Y969354D01*
X-600358Y970740D01*
X-599729Y972071D01*
X-598972Y973334D01*
X-598095Y974516D01*
X-597107Y975607D01*
X-596016Y976595D01*
X-594834Y977472D01*
X-593571Y978229D01*
X-592240Y978858D01*
X-590854Y979354D01*
X-589426Y979712D01*
X-587970Y979928D01*
X-586500Y980000D01*
X-556500Y980000D01*
X-555030Y979928D01*
G37*
G36*
X-555030Y484928D02*
G01*
X-553574Y484712D01*
X-552146Y484354D01*
X-550760Y483858D01*
X-549429Y483229D01*
X-548166Y482472D01*
X-546984Y481595D01*
X-545893Y480607D01*
X-544905Y479516D01*
X-544028Y478334D01*
X-543271Y477071D01*
X-542642Y475740D01*
X-542146Y474354D01*
X-541788Y472926D01*
X-541572Y471470D01*
X-541500Y470000D01*
X-541500Y305000D01*
X-541572Y303530D01*
X-541788Y302074D01*
X-542146Y300646D01*
X-542642Y299260D01*
X-543271Y297929D01*
X-544028Y296666D01*
X-544905Y295484D01*
X-545893Y294393D01*
X-546984Y293405D01*
X-548166Y292528D01*
X-549429Y291771D01*
X-550760Y291142D01*
X-552146Y290646D01*
X-553574Y290288D01*
X-555030Y290072D01*
X-556500Y290000D01*
X-586500Y290000D01*
X-587970Y290072D01*
X-589426Y290288D01*
X-590854Y290646D01*
X-592240Y291142D01*
X-593571Y291771D01*
X-594834Y292528D01*
X-596016Y293405D01*
X-597107Y294393D01*
X-598095Y295484D01*
X-598972Y296666D01*
X-599729Y297929D01*
X-600358Y299260D01*
X-600854Y300646D01*
X-601212Y302074D01*
X-601428Y303530D01*
X-601500Y305000D01*
X-601500Y470000D01*
X-601428Y471470D01*
X-601212Y472926D01*
X-600854Y474354D01*
X-600358Y475740D01*
X-599729Y477071D01*
X-598972Y478334D01*
X-598095Y479516D01*
X-597107Y480607D01*
X-596016Y481595D01*
X-594834Y482472D01*
X-593571Y483229D01*
X-592240Y483858D01*
X-590854Y484354D01*
X-589426Y484712D01*
X-587970Y484928D01*
X-586500Y485000D01*
X-556500Y485000D01*
X-555030Y484928D01*
G37*
G36*
X-682030Y484928D02*
G01*
X-680574Y484712D01*
X-679146Y484354D01*
X-677760Y483858D01*
X-676429Y483229D01*
X-675166Y482472D01*
X-673984Y481595D01*
X-672893Y480607D01*
X-671905Y479516D01*
X-671028Y478334D01*
X-670271Y477071D01*
X-669642Y475740D01*
X-669146Y474354D01*
X-668788Y472926D01*
X-668572Y471470D01*
X-668500Y470000D01*
X-668500Y305000D01*
X-668572Y303530D01*
X-668788Y302074D01*
X-669146Y300646D01*
X-669642Y299260D01*
X-670271Y297929D01*
X-671028Y296666D01*
X-671905Y295484D01*
X-672893Y294393D01*
X-673984Y293405D01*
X-675166Y292528D01*
X-676429Y291771D01*
X-677760Y291142D01*
X-679146Y290646D01*
X-680574Y290288D01*
X-682030Y290072D01*
X-683500Y290000D01*
X-713500Y290000D01*
X-714970Y290072D01*
X-716426Y290288D01*
X-717854Y290646D01*
X-719240Y291142D01*
X-720571Y291771D01*
X-721834Y292528D01*
X-723016Y293405D01*
X-724107Y294393D01*
X-725095Y295484D01*
X-725972Y296666D01*
X-726729Y297929D01*
X-727358Y299260D01*
X-727854Y300646D01*
X-728212Y302074D01*
X-728428Y303530D01*
X-728500Y305000D01*
X-728500Y470000D01*
X-728428Y471470D01*
X-728212Y472926D01*
X-727854Y474354D01*
X-727358Y475740D01*
X-726729Y477071D01*
X-725972Y478334D01*
X-725095Y479516D01*
X-724107Y480607D01*
X-723016Y481595D01*
X-721834Y482472D01*
X-720571Y483229D01*
X-719240Y483858D01*
X-717854Y484354D01*
X-716426Y484712D01*
X-714970Y484928D01*
X-713500Y485000D01*
X-683500Y485000D01*
X-682030Y484928D01*
G37*
G36*
X-809030Y484928D02*
G01*
X-807574Y484712D01*
X-806146Y484354D01*
X-804760Y483858D01*
X-803429Y483229D01*
X-802166Y482472D01*
X-800984Y481595D01*
X-799893Y480607D01*
X-798905Y479516D01*
X-798028Y478334D01*
X-797271Y477071D01*
X-796642Y475740D01*
X-796146Y474354D01*
X-795788Y472926D01*
X-795572Y471470D01*
X-795500Y470000D01*
X-795500Y305000D01*
X-795572Y303530D01*
X-795788Y302074D01*
X-796146Y300646D01*
X-796642Y299260D01*
X-797271Y297929D01*
X-798028Y296666D01*
X-798905Y295484D01*
X-799893Y294393D01*
X-800984Y293405D01*
X-802166Y292528D01*
X-803429Y291771D01*
X-804760Y291142D01*
X-806146Y290646D01*
X-807574Y290288D01*
X-809030Y290072D01*
X-810500Y290000D01*
X-840500Y290000D01*
X-841970Y290072D01*
X-843426Y290288D01*
X-844854Y290646D01*
X-846240Y291142D01*
X-847571Y291771D01*
X-848834Y292528D01*
X-850016Y293405D01*
X-851107Y294393D01*
X-852095Y295484D01*
X-852972Y296666D01*
X-853729Y297929D01*
X-854358Y299260D01*
X-854854Y300646D01*
X-855212Y302074D01*
X-855428Y303530D01*
X-855500Y305000D01*
X-855500Y470000D01*
X-855428Y471470D01*
X-855212Y472926D01*
X-854854Y474354D01*
X-854358Y475740D01*
X-853729Y477071D01*
X-852972Y478334D01*
X-852095Y479516D01*
X-851107Y480607D01*
X-850016Y481595D01*
X-848834Y482472D01*
X-847571Y483229D01*
X-846240Y483858D01*
X-844854Y484354D01*
X-843426Y484712D01*
X-841970Y484928D01*
X-840500Y485000D01*
X-810500Y485000D01*
X-809030Y484928D01*
G37*
G36*
X-936030Y484928D02*
G01*
X-934574Y484712D01*
X-933146Y484354D01*
X-931760Y483858D01*
X-930429Y483229D01*
X-929166Y482472D01*
X-927984Y481595D01*
X-926893Y480607D01*
X-925905Y479516D01*
X-925028Y478334D01*
X-924271Y477071D01*
X-923642Y475740D01*
X-923146Y474354D01*
X-922788Y472926D01*
X-922572Y471470D01*
X-922500Y470000D01*
X-922500Y305000D01*
X-922572Y303530D01*
X-922788Y302074D01*
X-923146Y300646D01*
X-923642Y299260D01*
X-924271Y297929D01*
X-925028Y296666D01*
X-925905Y295484D01*
X-926893Y294393D01*
X-927984Y293405D01*
X-929166Y292528D01*
X-930429Y291771D01*
X-931760Y291142D01*
X-933146Y290646D01*
X-934574Y290288D01*
X-936030Y290072D01*
X-937500Y290000D01*
X-967500Y290000D01*
X-968970Y290072D01*
X-970426Y290288D01*
X-971854Y290646D01*
X-973240Y291142D01*
X-974571Y291771D01*
X-975834Y292528D01*
X-977016Y293405D01*
X-978107Y294393D01*
X-979095Y295484D01*
X-979972Y296666D01*
X-980729Y297929D01*
X-981358Y299260D01*
X-981854Y300646D01*
X-982212Y302074D01*
X-982428Y303530D01*
X-982500Y305000D01*
X-982500Y470000D01*
X-982428Y471470D01*
X-982212Y472926D01*
X-981854Y474354D01*
X-981358Y475740D01*
X-980729Y477071D01*
X-979972Y478334D01*
X-979095Y479516D01*
X-978107Y480607D01*
X-977016Y481595D01*
X-975834Y482472D01*
X-974571Y483229D01*
X-973240Y483858D01*
X-971854Y484354D01*
X-970426Y484712D01*
X-968970Y484928D01*
X-967500Y485000D01*
X-937500Y485000D01*
X-936030Y484928D01*
G37*
D12*
X-389000Y1240500D03*
X-986000Y1240500D03*
D13*
X-1336000Y1708000D03*
X-1336000Y1338000D03*
D14*
X-1318500Y2310500D03*
D15*
X-186500Y2288000D03*
D16*
X-412500Y2323000D03*
X-522500Y2323000D03*
X-632500Y2323000D03*
X-742500Y2323000D03*
X-852500Y2323000D03*
X-962500Y2323000D03*
D17*
X-307500Y2323000D03*
D16*
X-1072500Y2323000D03*
M02*
