%TF.GenerationSoftware,KiCad,Pcbnew,5.1.5+dfsg1-2~bpo10+1*%
%TF.CreationDate,Date%
%TF.ProjectId,ProMicro_LIPO,50726f4d-6963-4726-9f5f-4c49504f2e6b,v1.6*%
%TF.SameCoordinates,Original*%
%TF.FileFunction,Legend,Bot*%
%TF.FilePolarity,Positive*%
%FSLAX45Y45*%
G04 Gerber Fmt 4.5, Leading zero omitted, Abs format (unit mm)*
G04 Created by KiCad*
%MOMM*%
%LPD*%
G04 APERTURE LIST*
%ADD10C,0.100000*%
%ADD11C,0.200000*%
%ADD12C,0.010000*%
%ADD13C,0.120000*%
%ADD14O,1.600000X1.600000*%
%ADD15R,1.600000X1.600000*%
%ADD16C,2.000000*%
G04 APERTURE END LIST*
D10*
X-127000Y-63500D02*
X-127000Y2603500D01*
X1651000Y2603500D02*
X1651000Y-63500D01*
D11*
X1250714Y1525571D02*
X1310714Y1504143D01*
X1250714Y1482714D01*
X1310714Y1401286D02*
X1310714Y1452714D01*
X1310714Y1427000D02*
X1220714Y1427000D01*
X1233571Y1435571D01*
X1242143Y1444143D01*
X1246429Y1452714D01*
X1302143Y1362714D02*
X1306429Y1358429D01*
X1310714Y1362714D01*
X1306429Y1367000D01*
X1302143Y1362714D01*
X1310714Y1362714D01*
X1220714Y1281286D02*
X1220714Y1298429D01*
X1225000Y1307000D01*
X1229286Y1311286D01*
X1242143Y1319857D01*
X1259286Y1324143D01*
X1293571Y1324143D01*
X1302143Y1319857D01*
X1306429Y1315572D01*
X1310714Y1307000D01*
X1310714Y1289857D01*
X1306429Y1281286D01*
X1302143Y1277000D01*
X1293571Y1272714D01*
X1272143Y1272714D01*
X1263571Y1277000D01*
X1259286Y1281286D01*
X1255000Y1289857D01*
X1255000Y1307000D01*
X1259286Y1315572D01*
X1263571Y1319857D01*
X1272143Y1324143D01*
D10*
X1651000Y-63500D02*
G75*
G02X1587500Y-127000I-63500J0D01*
G01*
X-63500Y-127000D02*
G75*
G02X-127000Y-63500I0J63500D01*
G01*
X-127000Y2603500D02*
G75*
G02X-63500Y2667000I63500J0D01*
G01*
X1587500Y2667000D02*
G75*
G02X1651000Y2603500I0J-63500D01*
G01*
D11*
X232571Y2584286D02*
X299238Y2584286D01*
X242095Y2584286D02*
X237333Y2579524D01*
X232571Y2570000D01*
X232571Y2555714D01*
X237333Y2546191D01*
X246857Y2541429D01*
X299238Y2541429D01*
X294476Y2455714D02*
X299238Y2465238D01*
X299238Y2484286D01*
X294476Y2493810D01*
X284952Y2498572D01*
X246857Y2498572D01*
X237333Y2493810D01*
X232571Y2484286D01*
X232571Y2465238D01*
X237333Y2455714D01*
X246857Y2450952D01*
X256381Y2450952D01*
X265905Y2498572D01*
X299238Y2408095D02*
X232571Y2408095D01*
X251619Y2408095D02*
X242095Y2403333D01*
X237333Y2398572D01*
X232571Y2389048D01*
X232571Y2379524D01*
X299238Y2303333D02*
X199238Y2303333D01*
X294476Y2303333D02*
X299238Y2312857D01*
X299238Y2331905D01*
X294476Y2341429D01*
X289714Y2346191D01*
X280190Y2350952D01*
X251619Y2350952D01*
X242095Y2346191D01*
X237333Y2341429D01*
X232571Y2331905D01*
X232571Y2312857D01*
X237333Y2303333D01*
X232571Y2265238D02*
X299238Y2241429D01*
X232571Y2217619D02*
X299238Y2241429D01*
X323048Y2250952D01*
X327810Y2255714D01*
X332571Y2265238D01*
X294476Y2184286D02*
X299238Y2174762D01*
X299238Y2155714D01*
X294476Y2146191D01*
X284952Y2141429D01*
X280190Y2141429D01*
X270667Y2146191D01*
X265905Y2155714D01*
X265905Y2170000D01*
X261143Y2179524D01*
X251619Y2184286D01*
X246857Y2184286D01*
X237333Y2179524D01*
X232571Y2170000D01*
X232571Y2155714D01*
X237333Y2146191D01*
X294476Y2055714D02*
X299238Y2065238D01*
X299238Y2084286D01*
X294476Y2093810D01*
X289714Y2098572D01*
X280190Y2103333D01*
X251619Y2103333D01*
X242095Y2098572D01*
X237333Y2093810D01*
X232571Y2084286D01*
X232571Y2065238D01*
X237333Y2055714D01*
X299238Y1998571D02*
X294476Y2008095D01*
X289714Y2012857D01*
X280190Y2017619D01*
X251619Y2017619D01*
X242095Y2012857D01*
X237333Y2008095D01*
X232571Y1998571D01*
X232571Y1984286D01*
X237333Y1974762D01*
X242095Y1970000D01*
X251619Y1965238D01*
X280190Y1965238D01*
X289714Y1970000D01*
X294476Y1974762D01*
X299238Y1984286D01*
X299238Y1998571D01*
X232571Y1879524D02*
X299238Y1879524D01*
X232571Y1922381D02*
X284952Y1922381D01*
X294476Y1917619D01*
X299238Y1908095D01*
X299238Y1893810D01*
X294476Y1884286D01*
X289714Y1879524D01*
X232571Y1846190D02*
X232571Y1808095D01*
X199238Y1831905D02*
X284952Y1831905D01*
X294476Y1827143D01*
X299238Y1817619D01*
X299238Y1808095D01*
X289714Y1774762D02*
X294476Y1770000D01*
X299238Y1774762D01*
X294476Y1779524D01*
X289714Y1774762D01*
X299238Y1774762D01*
X232571Y1684286D02*
X313524Y1684286D01*
X323048Y1689048D01*
X327810Y1693810D01*
X332571Y1703333D01*
X332571Y1717619D01*
X327810Y1727143D01*
X294476Y1684286D02*
X299238Y1693810D01*
X299238Y1712857D01*
X294476Y1722381D01*
X289714Y1727143D01*
X280190Y1731905D01*
X251619Y1731905D01*
X242095Y1727143D01*
X237333Y1722381D01*
X232571Y1712857D01*
X232571Y1693810D01*
X237333Y1684286D01*
X299238Y1636667D02*
X232571Y1636667D01*
X199238Y1636667D02*
X204000Y1641429D01*
X208762Y1636667D01*
X204000Y1631905D01*
X199238Y1636667D01*
X208762Y1636667D01*
X232571Y1603333D02*
X232571Y1565238D01*
X199238Y1589048D02*
X284952Y1589048D01*
X294476Y1584286D01*
X299238Y1574762D01*
X299238Y1565238D01*
X299238Y1531905D02*
X199238Y1531905D01*
X299238Y1489048D02*
X246857Y1489048D01*
X237333Y1493810D01*
X232571Y1503333D01*
X232571Y1517619D01*
X237333Y1527143D01*
X242095Y1531905D01*
X232571Y1398571D02*
X299238Y1398571D01*
X232571Y1441429D02*
X284952Y1441429D01*
X294476Y1436667D01*
X299238Y1427143D01*
X299238Y1412857D01*
X294476Y1403333D01*
X289714Y1398571D01*
X299238Y1350952D02*
X199238Y1350952D01*
X237333Y1350952D02*
X232571Y1341429D01*
X232571Y1322381D01*
X237333Y1312857D01*
X242095Y1308095D01*
X251619Y1303333D01*
X280190Y1303333D01*
X289714Y1308095D01*
X294476Y1312857D01*
X299238Y1322381D01*
X299238Y1341429D01*
X294476Y1350952D01*
X289714Y1260476D02*
X294476Y1255714D01*
X299238Y1260476D01*
X294476Y1265238D01*
X289714Y1260476D01*
X299238Y1260476D01*
X299238Y1212857D02*
X232571Y1212857D01*
X199238Y1212857D02*
X204000Y1217619D01*
X208762Y1212857D01*
X204000Y1208095D01*
X199238Y1212857D01*
X208762Y1212857D01*
X299238Y1150952D02*
X294476Y1160476D01*
X289714Y1165238D01*
X280190Y1170000D01*
X251619Y1170000D01*
X242095Y1165238D01*
X237333Y1160476D01*
X232571Y1150952D01*
X232571Y1136667D01*
X237333Y1127143D01*
X242095Y1122381D01*
X251619Y1117619D01*
X280190Y1117619D01*
X289714Y1122381D01*
X294476Y1127143D01*
X299238Y1136667D01*
X299238Y1150952D01*
X194476Y1003333D02*
X323048Y1089048D01*
X299238Y970000D02*
X199238Y970000D01*
X199238Y931905D01*
X204000Y922381D01*
X208762Y917619D01*
X218286Y912857D01*
X232571Y912857D01*
X242095Y917619D01*
X246857Y922381D01*
X251619Y931905D01*
X251619Y970000D01*
X299238Y870000D02*
X232571Y870000D01*
X251619Y870000D02*
X242095Y865238D01*
X237333Y860476D01*
X232571Y850952D01*
X232571Y841429D01*
X299238Y793810D02*
X294476Y803333D01*
X289714Y808095D01*
X280190Y812857D01*
X251619Y812857D01*
X242095Y808095D01*
X237333Y803333D01*
X232571Y793810D01*
X232571Y779524D01*
X237333Y770000D01*
X242095Y765238D01*
X251619Y760476D01*
X280190Y760476D01*
X289714Y765238D01*
X294476Y770000D01*
X299238Y779524D01*
X299238Y793810D01*
X299238Y717619D02*
X199238Y717619D01*
X270667Y684286D01*
X199238Y650952D01*
X299238Y650952D01*
X299238Y603333D02*
X232571Y603333D01*
X199238Y603333D02*
X204000Y608095D01*
X208762Y603333D01*
X204000Y598572D01*
X199238Y603333D01*
X208762Y603333D01*
X294476Y512857D02*
X299238Y522381D01*
X299238Y541429D01*
X294476Y550952D01*
X289714Y555714D01*
X280190Y560476D01*
X251619Y560476D01*
X242095Y555714D01*
X237333Y550952D01*
X232571Y541429D01*
X232571Y522381D01*
X237333Y512857D01*
X299238Y470000D02*
X232571Y470000D01*
X251619Y470000D02*
X242095Y465238D01*
X237333Y460476D01*
X232571Y450952D01*
X232571Y441429D01*
X299238Y393810D02*
X294476Y403333D01*
X289714Y408095D01*
X280190Y412857D01*
X251619Y412857D01*
X242095Y408095D01*
X237333Y403333D01*
X232571Y393810D01*
X232571Y379524D01*
X237333Y370000D01*
X242095Y365238D01*
X251619Y360476D01*
X280190Y360476D01*
X289714Y365238D01*
X294476Y370000D01*
X299238Y379524D01*
X299238Y393810D01*
X308762Y341429D02*
X308762Y265238D01*
X299238Y193810D02*
X299238Y241429D01*
X199238Y241429D01*
X299238Y160476D02*
X199238Y160476D01*
X299238Y112857D02*
X199238Y112857D01*
X199238Y74762D01*
X204000Y65238D01*
X208762Y60476D01*
X218286Y55714D01*
X232571Y55714D01*
X242095Y60476D01*
X246857Y65238D01*
X251619Y74762D01*
X251619Y112857D01*
X199238Y-6190D02*
X199238Y-25238D01*
X204000Y-34762D01*
X213524Y-44286D01*
X232571Y-49048D01*
X265905Y-49048D01*
X284952Y-44286D01*
X294476Y-34762D01*
X299238Y-25238D01*
X299238Y-6190D01*
X294476Y3333D01*
X284952Y12857D01*
X265905Y17619D01*
X232571Y17619D01*
X213524Y12857D01*
X204000Y3333D01*
X199238Y-6190D01*
D10*
X1587500Y2667000D02*
X-63500Y2667000D01*
X-63500Y-127000D02*
X1587500Y-127000D01*
D12*
G36*
X508893Y1341419D02*
G01*
X553356Y1333037D01*
X566105Y1302108D01*
X578855Y1271179D01*
X553625Y1234075D01*
X546600Y1223684D01*
X540327Y1214291D01*
X535094Y1206335D01*
X531186Y1200253D01*
X528889Y1196484D01*
X528394Y1195458D01*
X529668Y1193609D01*
X533188Y1189658D01*
X538506Y1184048D01*
X545172Y1177221D01*
X552735Y1169621D01*
X560747Y1161691D01*
X568757Y1153873D01*
X576316Y1146609D01*
X582975Y1140344D01*
X588282Y1135520D01*
X591789Y1132579D01*
X592962Y1131876D01*
X595126Y1132888D01*
X599866Y1135724D01*
X606719Y1140087D01*
X615222Y1145678D01*
X624909Y1152199D01*
X630435Y1155978D01*
X640525Y1162866D01*
X649630Y1168986D01*
X657297Y1174042D01*
X663073Y1177737D01*
X666504Y1179774D01*
X667225Y1180080D01*
X669275Y1179386D01*
X674051Y1177495D01*
X680883Y1174691D01*
X689099Y1171261D01*
X698027Y1167489D01*
X706996Y1163661D01*
X715334Y1160063D01*
X722369Y1156979D01*
X727431Y1154696D01*
X729847Y1153498D01*
X729942Y1153428D01*
X730404Y1151547D01*
X731433Y1146538D01*
X732929Y1138921D01*
X734790Y1129214D01*
X736916Y1117936D01*
X738142Y1111356D01*
X740436Y1099305D01*
X742619Y1088420D01*
X744572Y1079252D01*
X746175Y1072352D01*
X747308Y1068270D01*
X747667Y1067449D01*
X750101Y1066645D01*
X755596Y1065997D01*
X763511Y1065503D01*
X773203Y1065164D01*
X784029Y1064978D01*
X795346Y1064946D01*
X806513Y1065067D01*
X816887Y1065341D01*
X825824Y1065767D01*
X832683Y1066345D01*
X836820Y1067073D01*
X837681Y1067511D01*
X838713Y1070124D01*
X840189Y1075661D01*
X841935Y1083389D01*
X843778Y1092577D01*
X844374Y1095784D01*
X847207Y1111248D01*
X849488Y1123463D01*
X851308Y1132833D01*
X852758Y1139762D01*
X853929Y1144653D01*
X854911Y1147910D01*
X855796Y1149937D01*
X856672Y1151137D01*
X856846Y1151305D01*
X859637Y1152982D01*
X865069Y1155539D01*
X872478Y1158721D01*
X881196Y1162274D01*
X890561Y1165942D01*
X899905Y1169469D01*
X908565Y1172600D01*
X915874Y1175081D01*
X921168Y1176655D01*
X923781Y1177067D01*
X923873Y1177032D01*
X926009Y1175636D01*
X930708Y1172468D01*
X937483Y1167861D01*
X945842Y1162148D01*
X955298Y1155663D01*
X957985Y1153816D01*
X967727Y1147230D01*
X976616Y1141435D01*
X984141Y1136746D01*
X989792Y1133479D01*
X993058Y1131950D01*
X993459Y1131876D01*
X995568Y1133161D01*
X999746Y1136711D01*
X1005544Y1142071D01*
X1012513Y1148783D01*
X1020204Y1156391D01*
X1028168Y1164440D01*
X1035956Y1172471D01*
X1043119Y1180030D01*
X1049207Y1186660D01*
X1053772Y1191903D01*
X1056365Y1195305D01*
X1056788Y1196246D01*
X1055791Y1198436D01*
X1053102Y1202920D01*
X1049174Y1208968D01*
X1046012Y1213621D01*
X1040210Y1222053D01*
X1033378Y1232037D01*
X1026558Y1242053D01*
X1022907Y1247437D01*
X1010580Y1265663D01*
X1018852Y1280962D01*
X1022476Y1287932D01*
X1025293Y1293859D01*
X1026899Y1297869D01*
X1027123Y1298890D01*
X1025472Y1300117D01*
X1020808Y1302539D01*
X1013561Y1305974D01*
X1004161Y1310241D01*
X993037Y1315161D01*
X980621Y1320551D01*
X967343Y1326232D01*
X953633Y1332022D01*
X939920Y1337741D01*
X926636Y1343208D01*
X914210Y1348242D01*
X903072Y1352662D01*
X893654Y1356288D01*
X886384Y1358939D01*
X881694Y1360434D01*
X880083Y1360675D01*
X878029Y1358769D01*
X874693Y1354596D01*
X870770Y1349029D01*
X870460Y1348562D01*
X858942Y1334174D01*
X845505Y1322572D01*
X830578Y1313857D01*
X814591Y1308130D01*
X797974Y1305491D01*
X781155Y1306042D01*
X764565Y1309881D01*
X748634Y1317111D01*
X745149Y1319237D01*
X731074Y1330300D01*
X719771Y1343370D01*
X711300Y1357994D01*
X705719Y1373719D01*
X703087Y1390094D01*
X703463Y1406667D01*
X706905Y1422984D01*
X713472Y1438593D01*
X723223Y1453043D01*
X727181Y1457513D01*
X739570Y1468889D01*
X752612Y1477178D01*
X767231Y1482864D01*
X781709Y1486031D01*
X797986Y1486813D01*
X814344Y1484206D01*
X830230Y1478475D01*
X845091Y1469886D01*
X858373Y1458701D01*
X869526Y1445188D01*
X870701Y1443412D01*
X874551Y1437785D01*
X877886Y1433508D01*
X880016Y1431463D01*
X880083Y1431433D01*
X882387Y1431872D01*
X887616Y1433612D01*
X895339Y1436473D01*
X905127Y1440273D01*
X916549Y1444833D01*
X929176Y1449970D01*
X942577Y1455504D01*
X956322Y1461254D01*
X969981Y1467040D01*
X983124Y1472680D01*
X995320Y1477994D01*
X1006141Y1482801D01*
X1015155Y1486920D01*
X1021932Y1490170D01*
X1026043Y1492370D01*
X1027123Y1493256D01*
X1026282Y1495964D01*
X1024027Y1501030D01*
X1020761Y1507582D01*
X1018852Y1511184D01*
X1010580Y1526483D01*
X1022907Y1544709D01*
X1029223Y1554012D01*
X1036173Y1564198D01*
X1042716Y1573744D01*
X1046012Y1578525D01*
X1050527Y1585249D01*
X1054106Y1590944D01*
X1056294Y1594865D01*
X1056756Y1596138D01*
X1055509Y1597992D01*
X1052025Y1602094D01*
X1046668Y1608047D01*
X1039798Y1615454D01*
X1031778Y1623916D01*
X1026629Y1629268D01*
X1017429Y1638632D01*
X1009200Y1646724D01*
X1002294Y1653218D01*
X997064Y1657786D01*
X993862Y1660101D01*
X993212Y1660323D01*
X990739Y1659292D01*
X985740Y1656444D01*
X978721Y1652094D01*
X970187Y1646558D01*
X960646Y1640152D01*
X957985Y1638330D01*
X948317Y1631693D01*
X939612Y1625738D01*
X932359Y1620798D01*
X927049Y1617207D01*
X924170Y1615298D01*
X923873Y1615114D01*
X921578Y1615389D01*
X916534Y1616854D01*
X909404Y1619251D01*
X900855Y1622327D01*
X891551Y1625824D01*
X882157Y1629489D01*
X873340Y1633066D01*
X865763Y1636299D01*
X860093Y1638934D01*
X856994Y1640714D01*
X856846Y1640841D01*
X855960Y1641929D01*
X855084Y1643768D01*
X854128Y1646761D01*
X853000Y1651310D01*
X851609Y1657821D01*
X849866Y1666696D01*
X847680Y1678339D01*
X844959Y1693154D01*
X844374Y1696362D01*
X842537Y1705869D01*
X840740Y1714156D01*
X839157Y1720493D01*
X837960Y1724146D01*
X837681Y1724636D01*
X835207Y1725443D01*
X829679Y1726099D01*
X821739Y1726603D01*
X812030Y1726956D01*
X801194Y1727156D01*
X789874Y1727204D01*
X778713Y1727098D01*
X768353Y1726838D01*
X759437Y1726425D01*
X752607Y1725856D01*
X748507Y1725133D01*
X747667Y1724697D01*
X746821Y1722270D01*
X745443Y1716743D01*
X743655Y1708666D01*
X741575Y1698591D01*
X739322Y1687068D01*
X738142Y1680790D01*
X735915Y1668879D01*
X733898Y1658256D01*
X732191Y1649443D01*
X730897Y1642957D01*
X730115Y1639317D01*
X729942Y1638718D01*
X727989Y1637706D01*
X723284Y1635566D01*
X716500Y1632584D01*
X708309Y1629044D01*
X699383Y1625233D01*
X690394Y1621435D01*
X682014Y1617936D01*
X674915Y1615021D01*
X669769Y1612974D01*
X667250Y1612082D01*
X667140Y1612066D01*
X665152Y1613077D01*
X660578Y1615912D01*
X653872Y1620272D01*
X645488Y1625861D01*
X635883Y1632379D01*
X630365Y1636168D01*
X620248Y1643072D01*
X611063Y1649205D01*
X603274Y1654266D01*
X597347Y1657957D01*
X593745Y1659978D01*
X592938Y1660270D01*
X591058Y1659015D01*
X587046Y1655546D01*
X581349Y1650306D01*
X574419Y1643738D01*
X566703Y1636286D01*
X558653Y1628391D01*
X550716Y1620498D01*
X543344Y1613050D01*
X536985Y1606489D01*
X532089Y1601260D01*
X529106Y1597804D01*
X528394Y1596648D01*
X529395Y1594765D01*
X532208Y1590263D01*
X536545Y1583579D01*
X542122Y1575150D01*
X548651Y1565414D01*
X553625Y1558071D01*
X578855Y1520967D01*
X553356Y1459109D01*
X508893Y1450727D01*
X464431Y1442345D01*
X464431Y1349801D01*
X508893Y1341419D01*
G37*
X508893Y1341419D02*
X553356Y1333037D01*
X566105Y1302108D01*
X578855Y1271179D01*
X553625Y1234075D01*
X546600Y1223684D01*
X540327Y1214291D01*
X535094Y1206335D01*
X531186Y1200253D01*
X528889Y1196484D01*
X528394Y1195458D01*
X529668Y1193609D01*
X533188Y1189658D01*
X538506Y1184048D01*
X545172Y1177221D01*
X552735Y1169621D01*
X560747Y1161691D01*
X568757Y1153873D01*
X576316Y1146609D01*
X582975Y1140344D01*
X588282Y1135520D01*
X591789Y1132579D01*
X592962Y1131876D01*
X595126Y1132888D01*
X599866Y1135724D01*
X606719Y1140087D01*
X615222Y1145678D01*
X624909Y1152199D01*
X630435Y1155978D01*
X640525Y1162866D01*
X649630Y1168986D01*
X657297Y1174042D01*
X663073Y1177737D01*
X666504Y1179774D01*
X667225Y1180080D01*
X669275Y1179386D01*
X674051Y1177495D01*
X680883Y1174691D01*
X689099Y1171261D01*
X698027Y1167489D01*
X706996Y1163661D01*
X715334Y1160063D01*
X722369Y1156979D01*
X727431Y1154696D01*
X729847Y1153498D01*
X729942Y1153428D01*
X730404Y1151547D01*
X731433Y1146538D01*
X732929Y1138921D01*
X734790Y1129214D01*
X736916Y1117936D01*
X738142Y1111356D01*
X740436Y1099305D01*
X742619Y1088420D01*
X744572Y1079252D01*
X746175Y1072352D01*
X747308Y1068270D01*
X747667Y1067449D01*
X750101Y1066645D01*
X755596Y1065997D01*
X763511Y1065503D01*
X773203Y1065164D01*
X784029Y1064978D01*
X795346Y1064946D01*
X806513Y1065067D01*
X816887Y1065341D01*
X825824Y1065767D01*
X832683Y1066345D01*
X836820Y1067073D01*
X837681Y1067511D01*
X838713Y1070124D01*
X840189Y1075661D01*
X841935Y1083389D01*
X843778Y1092577D01*
X844374Y1095784D01*
X847207Y1111248D01*
X849488Y1123463D01*
X851308Y1132833D01*
X852758Y1139762D01*
X853929Y1144653D01*
X854911Y1147910D01*
X855796Y1149937D01*
X856672Y1151137D01*
X856846Y1151305D01*
X859637Y1152982D01*
X865069Y1155539D01*
X872478Y1158721D01*
X881196Y1162274D01*
X890561Y1165942D01*
X899905Y1169469D01*
X908565Y1172600D01*
X915874Y1175081D01*
X921168Y1176655D01*
X923781Y1177067D01*
X923873Y1177032D01*
X926009Y1175636D01*
X930708Y1172468D01*
X937483Y1167861D01*
X945842Y1162148D01*
X955298Y1155663D01*
X957985Y1153816D01*
X967727Y1147230D01*
X976616Y1141435D01*
X984141Y1136746D01*
X989792Y1133479D01*
X993058Y1131950D01*
X993459Y1131876D01*
X995568Y1133161D01*
X999746Y1136711D01*
X1005544Y1142071D01*
X1012513Y1148783D01*
X1020204Y1156391D01*
X1028168Y1164440D01*
X1035956Y1172471D01*
X1043119Y1180030D01*
X1049207Y1186660D01*
X1053772Y1191903D01*
X1056365Y1195305D01*
X1056788Y1196246D01*
X1055791Y1198436D01*
X1053102Y1202920D01*
X1049174Y1208968D01*
X1046012Y1213621D01*
X1040210Y1222053D01*
X1033378Y1232037D01*
X1026558Y1242053D01*
X1022907Y1247437D01*
X1010580Y1265663D01*
X1018852Y1280962D01*
X1022476Y1287932D01*
X1025293Y1293859D01*
X1026899Y1297869D01*
X1027123Y1298890D01*
X1025472Y1300117D01*
X1020808Y1302539D01*
X1013561Y1305974D01*
X1004161Y1310241D01*
X993037Y1315161D01*
X980621Y1320551D01*
X967343Y1326232D01*
X953633Y1332022D01*
X939920Y1337741D01*
X926636Y1343208D01*
X914210Y1348242D01*
X903072Y1352662D01*
X893654Y1356288D01*
X886384Y1358939D01*
X881694Y1360434D01*
X880083Y1360675D01*
X878029Y1358769D01*
X874693Y1354596D01*
X870770Y1349029D01*
X870460Y1348562D01*
X858942Y1334174D01*
X845505Y1322572D01*
X830578Y1313857D01*
X814591Y1308130D01*
X797974Y1305491D01*
X781155Y1306042D01*
X764565Y1309881D01*
X748634Y1317111D01*
X745149Y1319237D01*
X731074Y1330300D01*
X719771Y1343370D01*
X711300Y1357994D01*
X705719Y1373719D01*
X703087Y1390094D01*
X703463Y1406667D01*
X706905Y1422984D01*
X713472Y1438593D01*
X723223Y1453043D01*
X727181Y1457513D01*
X739570Y1468889D01*
X752612Y1477178D01*
X767231Y1482864D01*
X781709Y1486031D01*
X797986Y1486813D01*
X814344Y1484206D01*
X830230Y1478475D01*
X845091Y1469886D01*
X858373Y1458701D01*
X869526Y1445188D01*
X870701Y1443412D01*
X874551Y1437785D01*
X877886Y1433508D01*
X880016Y1431463D01*
X880083Y1431433D01*
X882387Y1431872D01*
X887616Y1433612D01*
X895339Y1436473D01*
X905127Y1440273D01*
X916549Y1444833D01*
X929176Y1449970D01*
X942577Y1455504D01*
X956322Y1461254D01*
X969981Y1467040D01*
X983124Y1472680D01*
X995320Y1477994D01*
X1006141Y1482801D01*
X1015155Y1486920D01*
X1021932Y1490170D01*
X1026043Y1492370D01*
X1027123Y1493256D01*
X1026282Y1495964D01*
X1024027Y1501030D01*
X1020761Y1507582D01*
X1018852Y1511184D01*
X1010580Y1526483D01*
X1022907Y1544709D01*
X1029223Y1554012D01*
X1036173Y1564198D01*
X1042716Y1573744D01*
X1046012Y1578525D01*
X1050527Y1585249D01*
X1054106Y1590944D01*
X1056294Y1594865D01*
X1056756Y1596138D01*
X1055509Y1597992D01*
X1052025Y1602094D01*
X1046668Y1608047D01*
X1039798Y1615454D01*
X1031778Y1623916D01*
X1026629Y1629268D01*
X1017429Y1638632D01*
X1009200Y1646724D01*
X1002294Y1653218D01*
X997064Y1657786D01*
X993862Y1660101D01*
X993212Y1660323D01*
X990739Y1659292D01*
X985740Y1656444D01*
X978721Y1652094D01*
X970187Y1646558D01*
X960646Y1640152D01*
X957985Y1638330D01*
X948317Y1631693D01*
X939612Y1625738D01*
X932359Y1620798D01*
X927049Y1617207D01*
X924170Y1615298D01*
X923873Y1615114D01*
X921578Y1615389D01*
X916534Y1616854D01*
X909404Y1619251D01*
X900855Y1622327D01*
X891551Y1625824D01*
X882157Y1629489D01*
X873340Y1633066D01*
X865763Y1636299D01*
X860093Y1638934D01*
X856994Y1640714D01*
X856846Y1640841D01*
X855960Y1641929D01*
X855084Y1643768D01*
X854128Y1646761D01*
X853000Y1651310D01*
X851609Y1657821D01*
X849866Y1666696D01*
X847680Y1678339D01*
X844959Y1693154D01*
X844374Y1696362D01*
X842537Y1705869D01*
X840740Y1714156D01*
X839157Y1720493D01*
X837960Y1724146D01*
X837681Y1724636D01*
X835207Y1725443D01*
X829679Y1726099D01*
X821739Y1726603D01*
X812030Y1726956D01*
X801194Y1727156D01*
X789874Y1727204D01*
X778713Y1727098D01*
X768353Y1726838D01*
X759437Y1726425D01*
X752607Y1725856D01*
X748507Y1725133D01*
X747667Y1724697D01*
X746821Y1722270D01*
X745443Y1716743D01*
X743655Y1708666D01*
X741575Y1698591D01*
X739322Y1687068D01*
X738142Y1680790D01*
X735915Y1668879D01*
X733898Y1658256D01*
X732191Y1649443D01*
X730897Y1642957D01*
X730115Y1639317D01*
X729942Y1638718D01*
X727989Y1637706D01*
X723284Y1635566D01*
X716500Y1632584D01*
X708309Y1629044D01*
X699383Y1625233D01*
X690394Y1621435D01*
X682014Y1617936D01*
X674915Y1615021D01*
X669769Y1612974D01*
X667250Y1612082D01*
X667140Y1612066D01*
X665152Y1613077D01*
X660578Y1615912D01*
X653872Y1620272D01*
X645488Y1625861D01*
X635883Y1632379D01*
X630365Y1636168D01*
X620248Y1643072D01*
X611063Y1649205D01*
X603274Y1654266D01*
X597347Y1657957D01*
X593745Y1659978D01*
X592938Y1660270D01*
X591058Y1659015D01*
X587046Y1655546D01*
X581349Y1650306D01*
X574419Y1643738D01*
X566703Y1636286D01*
X558653Y1628391D01*
X550716Y1620498D01*
X543344Y1613050D01*
X536985Y1606489D01*
X532089Y1601260D01*
X529106Y1597804D01*
X528394Y1596648D01*
X529395Y1594765D01*
X532208Y1590263D01*
X536545Y1583579D01*
X542122Y1575150D01*
X548651Y1565414D01*
X553625Y1558071D01*
X578855Y1520967D01*
X553356Y1459109D01*
X508893Y1450727D01*
X464431Y1442345D01*
X464431Y1349801D01*
X508893Y1341419D01*
D13*
X-140000Y127000D02*
X-140000Y2921000D01*
X1397000Y-127000D02*
X1397000Y2921000D01*
X127000Y127000D02*
X-140000Y127000D01*
X127000Y-127000D02*
X127000Y2921000D01*
X-140000Y2921000D02*
X1664000Y2921000D01*
X1664000Y2921000D02*
X1664000Y-127000D01*
X1664000Y-127000D02*
X127000Y-127000D01*
X1390000Y2159000D02*
G75*
G03X1390000Y2159000I-120000J0D01*
G01*
%LPC*%
D14*
X1524000Y0D03*
X1524000Y254000D03*
X1524000Y508000D03*
X0Y2794000D03*
X1524000Y762000D03*
X0Y2540000D03*
X1524000Y1016000D03*
X0Y2286000D03*
X1524000Y1270000D03*
X0Y2032000D03*
X1524000Y1524000D03*
X0Y1778000D03*
X1524000Y1778000D03*
X0Y1524000D03*
X1524000Y2032000D03*
X0Y1270000D03*
X1524000Y2286000D03*
X0Y1016000D03*
X1524000Y2540000D03*
X0Y762000D03*
X1524000Y2794000D03*
X0Y508000D03*
X0Y254000D03*
D15*
X0Y0D03*
D16*
X1270000Y2159000D03*
M02*
