%TF.GenerationSoftware,KiCad,Pcbnew,5.1.5+dfsg1-2~bpo10+1*%
%TF.CreationDate,Date%
%TF.ProjectId,ProMicro_TEST,50726f4d-6963-4726-9f5f-544553542e6b,v1.0*%
%TF.SameCoordinates,Original*%
%TF.FileFunction,Legend,Bot*%
%TF.FilePolarity,Positive*%
%FSLAX45Y45*%
G04 Gerber Fmt 4.5, Leading zero omitted, Abs format (unit mm)*
G04 Created by KiCad*
%MOMM*%
%LPD*%
G04 APERTURE LIST*
%ADD10C,0.100000*%
%ADD11C,0.200000*%
%ADD12C,0.010000*%
%ADD13C,0.120000*%
%ADD14C,0.150000*%
%ADD15O,1.600000X1.600000*%
%ADD16R,1.600000X1.600000*%
G04 APERTURE END LIST*
D10*
X127000Y2857500D02*
X127000Y-63500D01*
X-1651000Y-63500D02*
X-1651000Y2857500D01*
D11*
X-463786Y1624143D02*
X-403786Y1602714D01*
X-463786Y1581286D01*
X-408071Y1512714D02*
X-403786Y1521286D01*
X-403786Y1538429D01*
X-408071Y1547000D01*
X-416643Y1551286D01*
X-450929Y1551286D01*
X-459500Y1547000D01*
X-463786Y1538429D01*
X-463786Y1521286D01*
X-459500Y1512714D01*
X-450929Y1508429D01*
X-442357Y1508429D01*
X-433786Y1551286D01*
X-403786Y1469857D02*
X-463786Y1469857D01*
X-446643Y1469857D02*
X-455214Y1465571D01*
X-459500Y1461286D01*
X-463786Y1452714D01*
X-463786Y1444143D01*
X-408071Y1418429D02*
X-403786Y1409857D01*
X-403786Y1392714D01*
X-408071Y1384143D01*
X-416643Y1379857D01*
X-420929Y1379857D01*
X-429500Y1384143D01*
X-433786Y1392714D01*
X-433786Y1405571D01*
X-438071Y1414143D01*
X-446643Y1418429D01*
X-450929Y1418429D01*
X-459500Y1414143D01*
X-463786Y1405571D01*
X-463786Y1392714D01*
X-459500Y1384143D01*
X-403786Y1341286D02*
X-463786Y1341286D01*
X-493786Y1341286D02*
X-489500Y1345572D01*
X-485214Y1341286D01*
X-489500Y1337000D01*
X-493786Y1341286D01*
X-485214Y1341286D01*
X-403786Y1285572D02*
X-408071Y1294143D01*
X-412357Y1298429D01*
X-420929Y1302714D01*
X-446643Y1302714D01*
X-455214Y1298429D01*
X-459500Y1294143D01*
X-463786Y1285572D01*
X-463786Y1272714D01*
X-459500Y1264143D01*
X-455214Y1259857D01*
X-446643Y1255572D01*
X-420929Y1255572D01*
X-412357Y1259857D01*
X-408071Y1264143D01*
X-403786Y1272714D01*
X-403786Y1285572D01*
X-463786Y1217000D02*
X-403786Y1217000D01*
X-455214Y1217000D02*
X-459500Y1212714D01*
X-463786Y1204143D01*
X-463786Y1191286D01*
X-459500Y1182714D01*
X-450929Y1178429D01*
X-403786Y1178429D01*
X-1289286Y2659143D02*
X-1216429Y2659143D01*
X-1207857Y2663429D01*
X-1203572Y2667714D01*
X-1199286Y2676286D01*
X-1199286Y2689143D01*
X-1203572Y2697714D01*
X-1233572Y2659143D02*
X-1229286Y2667714D01*
X-1229286Y2684857D01*
X-1233572Y2693429D01*
X-1237857Y2697714D01*
X-1246429Y2702000D01*
X-1272143Y2702000D01*
X-1280714Y2697714D01*
X-1285000Y2693429D01*
X-1289286Y2684857D01*
X-1289286Y2667714D01*
X-1285000Y2659143D01*
X-1229286Y2616286D02*
X-1289286Y2616286D01*
X-1319286Y2616286D02*
X-1315000Y2620572D01*
X-1310714Y2616286D01*
X-1315000Y2612000D01*
X-1319286Y2616286D01*
X-1310714Y2616286D01*
X-1289286Y2586286D02*
X-1289286Y2552000D01*
X-1319286Y2573429D02*
X-1242143Y2573429D01*
X-1233572Y2569143D01*
X-1229286Y2560572D01*
X-1229286Y2552000D01*
X-1229286Y2522000D02*
X-1319286Y2522000D01*
X-1229286Y2483429D02*
X-1276429Y2483429D01*
X-1285000Y2487714D01*
X-1289286Y2496286D01*
X-1289286Y2509143D01*
X-1285000Y2517714D01*
X-1280714Y2522000D01*
X-1289286Y2402000D02*
X-1229286Y2402000D01*
X-1289286Y2440572D02*
X-1242143Y2440572D01*
X-1233572Y2436286D01*
X-1229286Y2427714D01*
X-1229286Y2414857D01*
X-1233572Y2406286D01*
X-1237857Y2402000D01*
X-1229286Y2359143D02*
X-1319286Y2359143D01*
X-1285000Y2359143D02*
X-1289286Y2350572D01*
X-1289286Y2333429D01*
X-1285000Y2324857D01*
X-1280714Y2320572D01*
X-1272143Y2316286D01*
X-1246429Y2316286D01*
X-1237857Y2320572D01*
X-1233572Y2324857D01*
X-1229286Y2333429D01*
X-1229286Y2350572D01*
X-1233572Y2359143D01*
X-1237857Y2277714D02*
X-1233572Y2273429D01*
X-1229286Y2277714D01*
X-1233572Y2282000D01*
X-1237857Y2277714D01*
X-1229286Y2277714D01*
X-1233572Y2196286D02*
X-1229286Y2204857D01*
X-1229286Y2222000D01*
X-1233572Y2230572D01*
X-1237857Y2234857D01*
X-1246429Y2239143D01*
X-1272143Y2239143D01*
X-1280714Y2234857D01*
X-1285000Y2230572D01*
X-1289286Y2222000D01*
X-1289286Y2204857D01*
X-1285000Y2196286D01*
X-1229286Y2144857D02*
X-1233572Y2153429D01*
X-1237857Y2157714D01*
X-1246429Y2162000D01*
X-1272143Y2162000D01*
X-1280714Y2157714D01*
X-1285000Y2153429D01*
X-1289286Y2144857D01*
X-1289286Y2132000D01*
X-1285000Y2123429D01*
X-1280714Y2119143D01*
X-1272143Y2114857D01*
X-1246429Y2114857D01*
X-1237857Y2119143D01*
X-1233572Y2123429D01*
X-1229286Y2132000D01*
X-1229286Y2144857D01*
X-1229286Y2076286D02*
X-1289286Y2076286D01*
X-1280714Y2076286D02*
X-1285000Y2072000D01*
X-1289286Y2063429D01*
X-1289286Y2050571D01*
X-1285000Y2042000D01*
X-1276429Y2037714D01*
X-1229286Y2037714D01*
X-1276429Y2037714D02*
X-1285000Y2033429D01*
X-1289286Y2024857D01*
X-1289286Y2012000D01*
X-1285000Y2003429D01*
X-1276429Y1999143D01*
X-1229286Y1999143D01*
X-1323572Y1892000D02*
X-1207857Y1969143D01*
X-1289286Y1862000D02*
X-1229286Y1862000D01*
X-1280714Y1862000D02*
X-1285000Y1857714D01*
X-1289286Y1849143D01*
X-1289286Y1836286D01*
X-1285000Y1827714D01*
X-1276429Y1823429D01*
X-1229286Y1823429D01*
X-1233572Y1746286D02*
X-1229286Y1754857D01*
X-1229286Y1772000D01*
X-1233572Y1780571D01*
X-1242143Y1784857D01*
X-1276429Y1784857D01*
X-1285000Y1780571D01*
X-1289286Y1772000D01*
X-1289286Y1754857D01*
X-1285000Y1746286D01*
X-1276429Y1742000D01*
X-1267857Y1742000D01*
X-1259286Y1784857D01*
X-1229286Y1703429D02*
X-1289286Y1703429D01*
X-1272143Y1703429D02*
X-1280714Y1699143D01*
X-1285000Y1694857D01*
X-1289286Y1686286D01*
X-1289286Y1677714D01*
X-1229286Y1609143D02*
X-1319286Y1609143D01*
X-1233572Y1609143D02*
X-1229286Y1617714D01*
X-1229286Y1634857D01*
X-1233572Y1643429D01*
X-1237857Y1647714D01*
X-1246429Y1652000D01*
X-1272143Y1652000D01*
X-1280714Y1647714D01*
X-1285000Y1643429D01*
X-1289286Y1634857D01*
X-1289286Y1617714D01*
X-1285000Y1609143D01*
X-1289286Y1574857D02*
X-1229286Y1553429D01*
X-1289286Y1532000D02*
X-1229286Y1553429D01*
X-1207857Y1562000D01*
X-1203572Y1566286D01*
X-1199286Y1574857D01*
X-1233572Y1502000D02*
X-1229286Y1493429D01*
X-1229286Y1476286D01*
X-1233572Y1467714D01*
X-1242143Y1463429D01*
X-1246429Y1463429D01*
X-1255000Y1467714D01*
X-1259286Y1476286D01*
X-1259286Y1489143D01*
X-1263572Y1497714D01*
X-1272143Y1502000D01*
X-1276429Y1502000D01*
X-1285000Y1497714D01*
X-1289286Y1489143D01*
X-1289286Y1476286D01*
X-1285000Y1467714D01*
X-1233572Y1386286D02*
X-1229286Y1394857D01*
X-1229286Y1412000D01*
X-1233572Y1420571D01*
X-1237857Y1424857D01*
X-1246429Y1429143D01*
X-1272143Y1429143D01*
X-1280714Y1424857D01*
X-1285000Y1420571D01*
X-1289286Y1412000D01*
X-1289286Y1394857D01*
X-1285000Y1386286D01*
X-1229286Y1334857D02*
X-1233572Y1343429D01*
X-1237857Y1347714D01*
X-1246429Y1352000D01*
X-1272143Y1352000D01*
X-1280714Y1347714D01*
X-1285000Y1343429D01*
X-1289286Y1334857D01*
X-1289286Y1322000D01*
X-1285000Y1313429D01*
X-1280714Y1309143D01*
X-1272143Y1304857D01*
X-1246429Y1304857D01*
X-1237857Y1309143D01*
X-1233572Y1313429D01*
X-1229286Y1322000D01*
X-1229286Y1334857D01*
X-1289286Y1227714D02*
X-1229286Y1227714D01*
X-1289286Y1266286D02*
X-1242143Y1266286D01*
X-1233572Y1262000D01*
X-1229286Y1253429D01*
X-1229286Y1240572D01*
X-1233572Y1232000D01*
X-1237857Y1227714D01*
X-1289286Y1197714D02*
X-1289286Y1163429D01*
X-1319286Y1184857D02*
X-1242143Y1184857D01*
X-1233572Y1180572D01*
X-1229286Y1172000D01*
X-1229286Y1163429D01*
X-1323572Y1069143D02*
X-1207857Y1146286D01*
X-1229286Y1039143D02*
X-1319286Y1039143D01*
X-1319286Y1004857D01*
X-1315000Y996286D01*
X-1310714Y992000D01*
X-1302143Y987714D01*
X-1289286Y987714D01*
X-1280714Y992000D01*
X-1276429Y996286D01*
X-1272143Y1004857D01*
X-1272143Y1039143D01*
X-1229286Y949143D02*
X-1289286Y949143D01*
X-1272143Y949143D02*
X-1280714Y944857D01*
X-1285000Y940571D01*
X-1289286Y932000D01*
X-1289286Y923429D01*
X-1229286Y880571D02*
X-1233572Y889143D01*
X-1237857Y893429D01*
X-1246429Y897714D01*
X-1272143Y897714D01*
X-1280714Y893429D01*
X-1285000Y889143D01*
X-1289286Y880571D01*
X-1289286Y867714D01*
X-1285000Y859143D01*
X-1280714Y854857D01*
X-1272143Y850571D01*
X-1246429Y850571D01*
X-1237857Y854857D01*
X-1233572Y859143D01*
X-1229286Y867714D01*
X-1229286Y880571D01*
X-1229286Y812000D02*
X-1319286Y812000D01*
X-1255000Y782000D01*
X-1319286Y752000D01*
X-1229286Y752000D01*
X-1229286Y709143D02*
X-1289286Y709143D01*
X-1319286Y709143D02*
X-1315000Y713429D01*
X-1310714Y709143D01*
X-1315000Y704857D01*
X-1319286Y709143D01*
X-1310714Y709143D01*
X-1233572Y627714D02*
X-1229286Y636286D01*
X-1229286Y653429D01*
X-1233572Y662000D01*
X-1237857Y666286D01*
X-1246429Y670572D01*
X-1272143Y670572D01*
X-1280714Y666286D01*
X-1285000Y662000D01*
X-1289286Y653429D01*
X-1289286Y636286D01*
X-1285000Y627714D01*
X-1229286Y589143D02*
X-1289286Y589143D01*
X-1272143Y589143D02*
X-1280714Y584857D01*
X-1285000Y580572D01*
X-1289286Y572000D01*
X-1289286Y563429D01*
X-1229286Y520571D02*
X-1233572Y529143D01*
X-1237857Y533429D01*
X-1246429Y537714D01*
X-1272143Y537714D01*
X-1280714Y533429D01*
X-1285000Y529143D01*
X-1289286Y520571D01*
X-1289286Y507714D01*
X-1285000Y499143D01*
X-1280714Y494857D01*
X-1272143Y490571D01*
X-1246429Y490571D01*
X-1237857Y494857D01*
X-1233572Y499143D01*
X-1229286Y507714D01*
X-1229286Y520571D01*
X-1323572Y387714D02*
X-1207857Y464857D01*
X-1319286Y370571D02*
X-1319286Y319143D01*
X-1229286Y344857D02*
X-1319286Y344857D01*
X-1276429Y289143D02*
X-1276429Y259143D01*
X-1229286Y246286D02*
X-1229286Y289143D01*
X-1319286Y289143D01*
X-1319286Y246286D01*
X-1233572Y212000D02*
X-1229286Y199143D01*
X-1229286Y177714D01*
X-1233572Y169143D01*
X-1237857Y164857D01*
X-1246429Y160572D01*
X-1255000Y160572D01*
X-1263572Y164857D01*
X-1267857Y169143D01*
X-1272143Y177714D01*
X-1276429Y194857D01*
X-1280714Y203429D01*
X-1285000Y207714D01*
X-1293572Y212000D01*
X-1302143Y212000D01*
X-1310714Y207714D01*
X-1315000Y203429D01*
X-1319286Y194857D01*
X-1319286Y173429D01*
X-1315000Y160572D01*
X-1319286Y134857D02*
X-1319286Y83429D01*
X-1229286Y109143D02*
X-1319286Y109143D01*
D10*
X-1587500Y-127000D02*
G75*
G02X-1651000Y-63500I0J63500D01*
G01*
X127000Y-63500D02*
G75*
G02X63500Y-127000I-63500J0D01*
G01*
X63500Y2921000D02*
G75*
G02X127000Y2857500I0J-63500D01*
G01*
X-1651000Y2857500D02*
G75*
G02X-1587500Y2921000I63500J0D01*
G01*
X63500Y-127000D02*
X-1587500Y-127000D01*
X-1587500Y2921000D02*
X63500Y2921000D01*
D12*
G36*
X-1078607Y1341419D02*
G01*
X-1034144Y1333037D01*
X-1021395Y1302108D01*
X-1008645Y1271179D01*
X-1033875Y1234075D01*
X-1040900Y1223684D01*
X-1047173Y1214291D01*
X-1052406Y1206335D01*
X-1056314Y1200253D01*
X-1058611Y1196484D01*
X-1059106Y1195458D01*
X-1057832Y1193609D01*
X-1054312Y1189658D01*
X-1048994Y1184048D01*
X-1042328Y1177221D01*
X-1034765Y1169621D01*
X-1026753Y1161691D01*
X-1018743Y1153873D01*
X-1011184Y1146609D01*
X-1004525Y1140344D01*
X-999218Y1135520D01*
X-995711Y1132579D01*
X-994538Y1131876D01*
X-992374Y1132888D01*
X-987634Y1135724D01*
X-980781Y1140087D01*
X-972278Y1145678D01*
X-962591Y1152199D01*
X-957065Y1155978D01*
X-946975Y1162866D01*
X-937870Y1168986D01*
X-930203Y1174042D01*
X-924427Y1177737D01*
X-920996Y1179774D01*
X-920275Y1180080D01*
X-918225Y1179386D01*
X-913449Y1177495D01*
X-906617Y1174691D01*
X-898401Y1171261D01*
X-889473Y1167489D01*
X-880504Y1163661D01*
X-872166Y1160063D01*
X-865131Y1156979D01*
X-860069Y1154696D01*
X-857653Y1153498D01*
X-857558Y1153428D01*
X-857096Y1151547D01*
X-856067Y1146538D01*
X-854571Y1138921D01*
X-852710Y1129214D01*
X-850584Y1117936D01*
X-849358Y1111356D01*
X-847064Y1099305D01*
X-844880Y1088420D01*
X-842928Y1079252D01*
X-841325Y1072352D01*
X-840192Y1068270D01*
X-839833Y1067449D01*
X-837399Y1066645D01*
X-831904Y1065997D01*
X-823989Y1065503D01*
X-814297Y1065164D01*
X-803471Y1064978D01*
X-792153Y1064946D01*
X-780986Y1065067D01*
X-770613Y1065341D01*
X-761676Y1065767D01*
X-754817Y1066345D01*
X-750680Y1067073D01*
X-749819Y1067511D01*
X-748787Y1070124D01*
X-747311Y1075661D01*
X-745565Y1083389D01*
X-743722Y1092577D01*
X-743126Y1095784D01*
X-740293Y1111248D01*
X-738012Y1123463D01*
X-736192Y1132833D01*
X-734742Y1139762D01*
X-733571Y1144653D01*
X-732588Y1147910D01*
X-731704Y1149937D01*
X-730828Y1151137D01*
X-730654Y1151305D01*
X-727863Y1152982D01*
X-722430Y1155539D01*
X-715022Y1158721D01*
X-706303Y1162274D01*
X-696939Y1165942D01*
X-687595Y1169469D01*
X-678935Y1172600D01*
X-671626Y1175081D01*
X-666332Y1176655D01*
X-663719Y1177067D01*
X-663627Y1177032D01*
X-661491Y1175636D01*
X-656792Y1172468D01*
X-650017Y1167861D01*
X-641658Y1162148D01*
X-632202Y1155663D01*
X-629515Y1153816D01*
X-619773Y1147230D01*
X-610884Y1141435D01*
X-603359Y1136746D01*
X-597708Y1133479D01*
X-594442Y1131950D01*
X-594041Y1131876D01*
X-591932Y1133161D01*
X-587754Y1136711D01*
X-581956Y1142071D01*
X-574987Y1148783D01*
X-567296Y1156391D01*
X-559332Y1164440D01*
X-551544Y1172471D01*
X-544381Y1180030D01*
X-538293Y1186660D01*
X-533728Y1191903D01*
X-531135Y1195305D01*
X-530712Y1196246D01*
X-531709Y1198436D01*
X-534398Y1202920D01*
X-538326Y1208968D01*
X-541488Y1213621D01*
X-547290Y1222053D01*
X-554122Y1232037D01*
X-560942Y1242053D01*
X-564593Y1247437D01*
X-576920Y1265663D01*
X-568648Y1280962D01*
X-565024Y1287932D01*
X-562207Y1293859D01*
X-560601Y1297869D01*
X-560377Y1298890D01*
X-562028Y1300117D01*
X-566692Y1302539D01*
X-573939Y1305974D01*
X-583339Y1310241D01*
X-594463Y1315161D01*
X-606879Y1320551D01*
X-620157Y1326232D01*
X-633867Y1332022D01*
X-647580Y1337741D01*
X-660864Y1343208D01*
X-673290Y1348242D01*
X-684428Y1352662D01*
X-693846Y1356288D01*
X-701116Y1358939D01*
X-705806Y1360434D01*
X-707417Y1360675D01*
X-709471Y1358769D01*
X-712807Y1354596D01*
X-716730Y1349029D01*
X-717040Y1348562D01*
X-728558Y1334174D01*
X-741995Y1322572D01*
X-756922Y1313857D01*
X-772909Y1308130D01*
X-789526Y1305491D01*
X-806345Y1306042D01*
X-822934Y1309881D01*
X-838866Y1317111D01*
X-842351Y1319237D01*
X-856426Y1330300D01*
X-867729Y1343370D01*
X-876200Y1357994D01*
X-881781Y1373719D01*
X-884413Y1390094D01*
X-884037Y1406667D01*
X-880595Y1422984D01*
X-874028Y1438593D01*
X-864276Y1453043D01*
X-860319Y1457513D01*
X-847930Y1468889D01*
X-834888Y1477178D01*
X-820268Y1482864D01*
X-805791Y1486031D01*
X-789514Y1486813D01*
X-773156Y1484206D01*
X-757270Y1478475D01*
X-742409Y1469886D01*
X-729126Y1458701D01*
X-717974Y1445188D01*
X-716799Y1443412D01*
X-712949Y1437785D01*
X-709614Y1433508D01*
X-707484Y1431463D01*
X-707417Y1431433D01*
X-705113Y1431872D01*
X-699884Y1433612D01*
X-692161Y1436473D01*
X-682373Y1440273D01*
X-670951Y1444833D01*
X-658324Y1449970D01*
X-644923Y1455504D01*
X-631178Y1461254D01*
X-617519Y1467040D01*
X-604376Y1472680D01*
X-592180Y1477994D01*
X-581359Y1482801D01*
X-572345Y1486920D01*
X-565568Y1490170D01*
X-561457Y1492370D01*
X-560377Y1493256D01*
X-561218Y1495964D01*
X-563473Y1501030D01*
X-566739Y1507582D01*
X-568648Y1511184D01*
X-576920Y1526483D01*
X-564593Y1544709D01*
X-558277Y1554012D01*
X-551327Y1564198D01*
X-544784Y1573744D01*
X-541488Y1578525D01*
X-536973Y1585249D01*
X-533394Y1590944D01*
X-531206Y1594865D01*
X-530744Y1596138D01*
X-531992Y1597992D01*
X-535475Y1602094D01*
X-540832Y1608047D01*
X-547702Y1615454D01*
X-555722Y1623916D01*
X-560871Y1629268D01*
X-570071Y1638632D01*
X-578300Y1646724D01*
X-585206Y1653218D01*
X-590436Y1657786D01*
X-593638Y1660101D01*
X-594288Y1660323D01*
X-596761Y1659292D01*
X-601760Y1656444D01*
X-608779Y1652094D01*
X-617313Y1646558D01*
X-626854Y1640152D01*
X-629515Y1638330D01*
X-639183Y1631693D01*
X-647888Y1625738D01*
X-655141Y1620798D01*
X-660451Y1617207D01*
X-663330Y1615298D01*
X-663627Y1615114D01*
X-665922Y1615389D01*
X-670966Y1616854D01*
X-678096Y1619251D01*
X-686645Y1622327D01*
X-695949Y1625824D01*
X-705343Y1629489D01*
X-714160Y1633066D01*
X-721737Y1636299D01*
X-727407Y1638934D01*
X-730506Y1640714D01*
X-730654Y1640841D01*
X-731540Y1641929D01*
X-732416Y1643768D01*
X-733372Y1646761D01*
X-734500Y1651310D01*
X-735891Y1657821D01*
X-737634Y1666696D01*
X-739820Y1678339D01*
X-742541Y1693154D01*
X-743126Y1696362D01*
X-744963Y1705869D01*
X-746759Y1714156D01*
X-748343Y1720493D01*
X-749540Y1724146D01*
X-749819Y1724636D01*
X-752293Y1725443D01*
X-757821Y1726099D01*
X-765761Y1726603D01*
X-775470Y1726956D01*
X-786306Y1727156D01*
X-797626Y1727204D01*
X-808787Y1727098D01*
X-819147Y1726838D01*
X-828063Y1726425D01*
X-834893Y1725856D01*
X-838993Y1725133D01*
X-839833Y1724697D01*
X-840679Y1722270D01*
X-842056Y1716743D01*
X-843845Y1708666D01*
X-845925Y1698591D01*
X-848178Y1687068D01*
X-849358Y1680790D01*
X-851585Y1668879D01*
X-853602Y1658256D01*
X-855308Y1649443D01*
X-856603Y1642957D01*
X-857384Y1639317D01*
X-857558Y1638718D01*
X-859511Y1637706D01*
X-864216Y1635566D01*
X-871000Y1632584D01*
X-879191Y1629044D01*
X-888117Y1625233D01*
X-897106Y1621435D01*
X-905486Y1617936D01*
X-912585Y1615021D01*
X-917731Y1612974D01*
X-920250Y1612082D01*
X-920360Y1612066D01*
X-922348Y1613077D01*
X-926922Y1615912D01*
X-933628Y1620272D01*
X-942012Y1625861D01*
X-951617Y1632379D01*
X-957135Y1636168D01*
X-967252Y1643072D01*
X-976437Y1649205D01*
X-984226Y1654266D01*
X-990153Y1657957D01*
X-993755Y1659978D01*
X-994562Y1660270D01*
X-996442Y1659015D01*
X-1000454Y1655546D01*
X-1006151Y1650306D01*
X-1013081Y1643738D01*
X-1020797Y1636286D01*
X-1028847Y1628391D01*
X-1036784Y1620498D01*
X-1044156Y1613050D01*
X-1050515Y1606489D01*
X-1055411Y1601260D01*
X-1058394Y1597804D01*
X-1059106Y1596648D01*
X-1058105Y1594765D01*
X-1055292Y1590263D01*
X-1050955Y1583579D01*
X-1045378Y1575150D01*
X-1038849Y1565414D01*
X-1033875Y1558071D01*
X-1008645Y1520967D01*
X-1034144Y1459109D01*
X-1078607Y1450727D01*
X-1123069Y1442345D01*
X-1123069Y1349801D01*
X-1078607Y1341419D01*
G37*
X-1078607Y1341419D02*
X-1034144Y1333037D01*
X-1021395Y1302108D01*
X-1008645Y1271179D01*
X-1033875Y1234075D01*
X-1040900Y1223684D01*
X-1047173Y1214291D01*
X-1052406Y1206335D01*
X-1056314Y1200253D01*
X-1058611Y1196484D01*
X-1059106Y1195458D01*
X-1057832Y1193609D01*
X-1054312Y1189658D01*
X-1048994Y1184048D01*
X-1042328Y1177221D01*
X-1034765Y1169621D01*
X-1026753Y1161691D01*
X-1018743Y1153873D01*
X-1011184Y1146609D01*
X-1004525Y1140344D01*
X-999218Y1135520D01*
X-995711Y1132579D01*
X-994538Y1131876D01*
X-992374Y1132888D01*
X-987634Y1135724D01*
X-980781Y1140087D01*
X-972278Y1145678D01*
X-962591Y1152199D01*
X-957065Y1155978D01*
X-946975Y1162866D01*
X-937870Y1168986D01*
X-930203Y1174042D01*
X-924427Y1177737D01*
X-920996Y1179774D01*
X-920275Y1180080D01*
X-918225Y1179386D01*
X-913449Y1177495D01*
X-906617Y1174691D01*
X-898401Y1171261D01*
X-889473Y1167489D01*
X-880504Y1163661D01*
X-872166Y1160063D01*
X-865131Y1156979D01*
X-860069Y1154696D01*
X-857653Y1153498D01*
X-857558Y1153428D01*
X-857096Y1151547D01*
X-856067Y1146538D01*
X-854571Y1138921D01*
X-852710Y1129214D01*
X-850584Y1117936D01*
X-849358Y1111356D01*
X-847064Y1099305D01*
X-844880Y1088420D01*
X-842928Y1079252D01*
X-841325Y1072352D01*
X-840192Y1068270D01*
X-839833Y1067449D01*
X-837399Y1066645D01*
X-831904Y1065997D01*
X-823989Y1065503D01*
X-814297Y1065164D01*
X-803471Y1064978D01*
X-792153Y1064946D01*
X-780986Y1065067D01*
X-770613Y1065341D01*
X-761676Y1065767D01*
X-754817Y1066345D01*
X-750680Y1067073D01*
X-749819Y1067511D01*
X-748787Y1070124D01*
X-747311Y1075661D01*
X-745565Y1083389D01*
X-743722Y1092577D01*
X-743126Y1095784D01*
X-740293Y1111248D01*
X-738012Y1123463D01*
X-736192Y1132833D01*
X-734742Y1139762D01*
X-733571Y1144653D01*
X-732588Y1147910D01*
X-731704Y1149937D01*
X-730828Y1151137D01*
X-730654Y1151305D01*
X-727863Y1152982D01*
X-722430Y1155539D01*
X-715022Y1158721D01*
X-706303Y1162274D01*
X-696939Y1165942D01*
X-687595Y1169469D01*
X-678935Y1172600D01*
X-671626Y1175081D01*
X-666332Y1176655D01*
X-663719Y1177067D01*
X-663627Y1177032D01*
X-661491Y1175636D01*
X-656792Y1172468D01*
X-650017Y1167861D01*
X-641658Y1162148D01*
X-632202Y1155663D01*
X-629515Y1153816D01*
X-619773Y1147230D01*
X-610884Y1141435D01*
X-603359Y1136746D01*
X-597708Y1133479D01*
X-594442Y1131950D01*
X-594041Y1131876D01*
X-591932Y1133161D01*
X-587754Y1136711D01*
X-581956Y1142071D01*
X-574987Y1148783D01*
X-567296Y1156391D01*
X-559332Y1164440D01*
X-551544Y1172471D01*
X-544381Y1180030D01*
X-538293Y1186660D01*
X-533728Y1191903D01*
X-531135Y1195305D01*
X-530712Y1196246D01*
X-531709Y1198436D01*
X-534398Y1202920D01*
X-538326Y1208968D01*
X-541488Y1213621D01*
X-547290Y1222053D01*
X-554122Y1232037D01*
X-560942Y1242053D01*
X-564593Y1247437D01*
X-576920Y1265663D01*
X-568648Y1280962D01*
X-565024Y1287932D01*
X-562207Y1293859D01*
X-560601Y1297869D01*
X-560377Y1298890D01*
X-562028Y1300117D01*
X-566692Y1302539D01*
X-573939Y1305974D01*
X-583339Y1310241D01*
X-594463Y1315161D01*
X-606879Y1320551D01*
X-620157Y1326232D01*
X-633867Y1332022D01*
X-647580Y1337741D01*
X-660864Y1343208D01*
X-673290Y1348242D01*
X-684428Y1352662D01*
X-693846Y1356288D01*
X-701116Y1358939D01*
X-705806Y1360434D01*
X-707417Y1360675D01*
X-709471Y1358769D01*
X-712807Y1354596D01*
X-716730Y1349029D01*
X-717040Y1348562D01*
X-728558Y1334174D01*
X-741995Y1322572D01*
X-756922Y1313857D01*
X-772909Y1308130D01*
X-789526Y1305491D01*
X-806345Y1306042D01*
X-822934Y1309881D01*
X-838866Y1317111D01*
X-842351Y1319237D01*
X-856426Y1330300D01*
X-867729Y1343370D01*
X-876200Y1357994D01*
X-881781Y1373719D01*
X-884413Y1390094D01*
X-884037Y1406667D01*
X-880595Y1422984D01*
X-874028Y1438593D01*
X-864276Y1453043D01*
X-860319Y1457513D01*
X-847930Y1468889D01*
X-834888Y1477178D01*
X-820268Y1482864D01*
X-805791Y1486031D01*
X-789514Y1486813D01*
X-773156Y1484206D01*
X-757270Y1478475D01*
X-742409Y1469886D01*
X-729126Y1458701D01*
X-717974Y1445188D01*
X-716799Y1443412D01*
X-712949Y1437785D01*
X-709614Y1433508D01*
X-707484Y1431463D01*
X-707417Y1431433D01*
X-705113Y1431872D01*
X-699884Y1433612D01*
X-692161Y1436473D01*
X-682373Y1440273D01*
X-670951Y1444833D01*
X-658324Y1449970D01*
X-644923Y1455504D01*
X-631178Y1461254D01*
X-617519Y1467040D01*
X-604376Y1472680D01*
X-592180Y1477994D01*
X-581359Y1482801D01*
X-572345Y1486920D01*
X-565568Y1490170D01*
X-561457Y1492370D01*
X-560377Y1493256D01*
X-561218Y1495964D01*
X-563473Y1501030D01*
X-566739Y1507582D01*
X-568648Y1511184D01*
X-576920Y1526483D01*
X-564593Y1544709D01*
X-558277Y1554012D01*
X-551327Y1564198D01*
X-544784Y1573744D01*
X-541488Y1578525D01*
X-536973Y1585249D01*
X-533394Y1590944D01*
X-531206Y1594865D01*
X-530744Y1596138D01*
X-531992Y1597992D01*
X-535475Y1602094D01*
X-540832Y1608047D01*
X-547702Y1615454D01*
X-555722Y1623916D01*
X-560871Y1629268D01*
X-570071Y1638632D01*
X-578300Y1646724D01*
X-585206Y1653218D01*
X-590436Y1657786D01*
X-593638Y1660101D01*
X-594288Y1660323D01*
X-596761Y1659292D01*
X-601760Y1656444D01*
X-608779Y1652094D01*
X-617313Y1646558D01*
X-626854Y1640152D01*
X-629515Y1638330D01*
X-639183Y1631693D01*
X-647888Y1625738D01*
X-655141Y1620798D01*
X-660451Y1617207D01*
X-663330Y1615298D01*
X-663627Y1615114D01*
X-665922Y1615389D01*
X-670966Y1616854D01*
X-678096Y1619251D01*
X-686645Y1622327D01*
X-695949Y1625824D01*
X-705343Y1629489D01*
X-714160Y1633066D01*
X-721737Y1636299D01*
X-727407Y1638934D01*
X-730506Y1640714D01*
X-730654Y1640841D01*
X-731540Y1641929D01*
X-732416Y1643768D01*
X-733372Y1646761D01*
X-734500Y1651310D01*
X-735891Y1657821D01*
X-737634Y1666696D01*
X-739820Y1678339D01*
X-742541Y1693154D01*
X-743126Y1696362D01*
X-744963Y1705869D01*
X-746759Y1714156D01*
X-748343Y1720493D01*
X-749540Y1724146D01*
X-749819Y1724636D01*
X-752293Y1725443D01*
X-757821Y1726099D01*
X-765761Y1726603D01*
X-775470Y1726956D01*
X-786306Y1727156D01*
X-797626Y1727204D01*
X-808787Y1727098D01*
X-819147Y1726838D01*
X-828063Y1726425D01*
X-834893Y1725856D01*
X-838993Y1725133D01*
X-839833Y1724697D01*
X-840679Y1722270D01*
X-842056Y1716743D01*
X-843845Y1708666D01*
X-845925Y1698591D01*
X-848178Y1687068D01*
X-849358Y1680790D01*
X-851585Y1668879D01*
X-853602Y1658256D01*
X-855308Y1649443D01*
X-856603Y1642957D01*
X-857384Y1639317D01*
X-857558Y1638718D01*
X-859511Y1637706D01*
X-864216Y1635566D01*
X-871000Y1632584D01*
X-879191Y1629044D01*
X-888117Y1625233D01*
X-897106Y1621435D01*
X-905486Y1617936D01*
X-912585Y1615021D01*
X-917731Y1612974D01*
X-920250Y1612082D01*
X-920360Y1612066D01*
X-922348Y1613077D01*
X-926922Y1615912D01*
X-933628Y1620272D01*
X-942012Y1625861D01*
X-951617Y1632379D01*
X-957135Y1636168D01*
X-967252Y1643072D01*
X-976437Y1649205D01*
X-984226Y1654266D01*
X-990153Y1657957D01*
X-993755Y1659978D01*
X-994562Y1660270D01*
X-996442Y1659015D01*
X-1000454Y1655546D01*
X-1006151Y1650306D01*
X-1013081Y1643738D01*
X-1020797Y1636286D01*
X-1028847Y1628391D01*
X-1036784Y1620498D01*
X-1044156Y1613050D01*
X-1050515Y1606489D01*
X-1055411Y1601260D01*
X-1058394Y1597804D01*
X-1059106Y1596648D01*
X-1058105Y1594765D01*
X-1055292Y1590263D01*
X-1050955Y1583579D01*
X-1045378Y1575150D01*
X-1038849Y1565414D01*
X-1033875Y1558071D01*
X-1008645Y1520967D01*
X-1034144Y1459109D01*
X-1078607Y1450727D01*
X-1123069Y1442345D01*
X-1123069Y1349801D01*
X-1078607Y1341419D01*
D13*
X-330000Y651278D02*
X-330000Y618722D01*
X-432000Y651278D02*
X-432000Y618722D01*
D14*
X-237333Y1087762D02*
X-204000Y1135381D01*
X-180190Y1087762D02*
X-180190Y1187762D01*
X-218286Y1187762D01*
X-227810Y1183000D01*
X-232571Y1178238D01*
X-237333Y1168714D01*
X-237333Y1154429D01*
X-232571Y1144905D01*
X-227810Y1140143D01*
X-218286Y1135381D01*
X-180190Y1135381D01*
X-323048Y1154429D02*
X-323048Y1087762D01*
X-299238Y1192524D02*
X-275429Y1121095D01*
X-337333Y1121095D01*
X-237333Y1341762D02*
X-204000Y1389381D01*
X-180190Y1341762D02*
X-180190Y1441762D01*
X-218286Y1441762D01*
X-227810Y1437000D01*
X-232571Y1432238D01*
X-237333Y1422714D01*
X-237333Y1408429D01*
X-232571Y1398905D01*
X-227810Y1394143D01*
X-218286Y1389381D01*
X-180190Y1389381D01*
X-270667Y1441762D02*
X-332572Y1441762D01*
X-299238Y1403667D01*
X-313524Y1403667D01*
X-323048Y1398905D01*
X-327810Y1394143D01*
X-332572Y1384619D01*
X-332572Y1360810D01*
X-327810Y1351286D01*
X-323048Y1346524D01*
X-313524Y1341762D01*
X-284952Y1341762D01*
X-275429Y1346524D01*
X-270667Y1351286D01*
X-345286Y397667D02*
X-340524Y402429D01*
X-335762Y416714D01*
X-335762Y426238D01*
X-340524Y440524D01*
X-350048Y450048D01*
X-359571Y454810D01*
X-378619Y459571D01*
X-392905Y459571D01*
X-411952Y454810D01*
X-421476Y450048D01*
X-431000Y440524D01*
X-435762Y426238D01*
X-435762Y416714D01*
X-431000Y402429D01*
X-426238Y397667D01*
X-402429Y311952D02*
X-335762Y311952D01*
X-440524Y335762D02*
X-369095Y359571D01*
X-369095Y297667D01*
X-535786Y397667D02*
X-531024Y402429D01*
X-526262Y416714D01*
X-526262Y426238D01*
X-531024Y440524D01*
X-540548Y450048D01*
X-550072Y454810D01*
X-569119Y459571D01*
X-583405Y459571D01*
X-602452Y454810D01*
X-611976Y450048D01*
X-621500Y440524D01*
X-626262Y426238D01*
X-626262Y416714D01*
X-621500Y402429D01*
X-616738Y397667D01*
X-526262Y302429D02*
X-526262Y359571D01*
X-526262Y331000D02*
X-626262Y331000D01*
X-611976Y340524D01*
X-602452Y350048D01*
X-597691Y359571D01*
%LPC*%
D15*
X-1524000Y0D03*
X-1524000Y254000D03*
X-1524000Y508000D03*
X0Y2794000D03*
X-1524000Y762000D03*
X0Y2540000D03*
X-1524000Y1016000D03*
X0Y2286000D03*
X-1524000Y1270000D03*
X0Y2032000D03*
X-1524000Y1524000D03*
X0Y1778000D03*
X-1524000Y1778000D03*
X0Y1524000D03*
X-1524000Y2032000D03*
X0Y1270000D03*
X-1524000Y2286000D03*
X0Y1016000D03*
X-1524000Y2540000D03*
X0Y762000D03*
X-1524000Y2794000D03*
X0Y508000D03*
X0Y254000D03*
D16*
X0Y0D03*
D14*
G36*
X-286304Y1047929D02*
G01*
X-284872Y1047717D01*
X-283468Y1047365D01*
X-282105Y1046877D01*
X-280797Y1046258D01*
X-279555Y1045514D01*
X-278393Y1044652D01*
X-277320Y1043680D01*
X-276348Y1042607D01*
X-275486Y1041445D01*
X-274742Y1040203D01*
X-274123Y1038895D01*
X-273635Y1037532D01*
X-273283Y1036128D01*
X-273071Y1034696D01*
X-273000Y1033250D01*
X-273000Y998750D01*
X-273071Y997304D01*
X-273283Y995872D01*
X-273635Y994468D01*
X-274123Y993105D01*
X-274742Y991797D01*
X-275486Y990555D01*
X-276348Y989393D01*
X-277320Y988320D01*
X-278393Y987348D01*
X-279555Y986486D01*
X-280797Y985742D01*
X-282105Y985123D01*
X-283468Y984635D01*
X-284872Y984283D01*
X-286304Y984071D01*
X-287750Y984000D01*
X-317250Y984000D01*
X-318696Y984071D01*
X-320128Y984283D01*
X-321532Y984635D01*
X-322895Y985123D01*
X-324203Y985742D01*
X-325445Y986486D01*
X-326607Y987348D01*
X-327680Y988320D01*
X-328652Y989393D01*
X-329514Y990555D01*
X-330258Y991797D01*
X-330877Y993105D01*
X-331365Y994468D01*
X-331717Y995872D01*
X-331929Y997304D01*
X-332000Y998750D01*
X-332000Y1033250D01*
X-331929Y1034696D01*
X-331717Y1036128D01*
X-331365Y1037532D01*
X-330877Y1038895D01*
X-330258Y1040203D01*
X-329514Y1041445D01*
X-328652Y1042607D01*
X-327680Y1043680D01*
X-326607Y1044652D01*
X-325445Y1045514D01*
X-324203Y1046258D01*
X-322895Y1046877D01*
X-321532Y1047365D01*
X-320128Y1047717D01*
X-318696Y1047929D01*
X-317250Y1048000D01*
X-287750Y1048000D01*
X-286304Y1047929D01*
G37*
G36*
X-189304Y1047929D02*
G01*
X-187872Y1047717D01*
X-186468Y1047365D01*
X-185105Y1046877D01*
X-183797Y1046258D01*
X-182555Y1045514D01*
X-181393Y1044652D01*
X-180320Y1043680D01*
X-179348Y1042607D01*
X-178486Y1041445D01*
X-177742Y1040203D01*
X-177123Y1038895D01*
X-176635Y1037532D01*
X-176283Y1036128D01*
X-176071Y1034696D01*
X-176000Y1033250D01*
X-176000Y998750D01*
X-176071Y997304D01*
X-176283Y995872D01*
X-176635Y994468D01*
X-177123Y993105D01*
X-177742Y991797D01*
X-178486Y990555D01*
X-179348Y989393D01*
X-180320Y988320D01*
X-181393Y987348D01*
X-182555Y986486D01*
X-183797Y985742D01*
X-185105Y985123D01*
X-186468Y984635D01*
X-187872Y984283D01*
X-189304Y984071D01*
X-190750Y984000D01*
X-220250Y984000D01*
X-221696Y984071D01*
X-223128Y984283D01*
X-224532Y984635D01*
X-225895Y985123D01*
X-227203Y985742D01*
X-228445Y986486D01*
X-229607Y987348D01*
X-230680Y988320D01*
X-231652Y989393D01*
X-232514Y990555D01*
X-233258Y991797D01*
X-233877Y993105D01*
X-234365Y994468D01*
X-234717Y995872D01*
X-234929Y997304D01*
X-235000Y998750D01*
X-235000Y1033250D01*
X-234929Y1034696D01*
X-234717Y1036128D01*
X-234365Y1037532D01*
X-233877Y1038895D01*
X-233258Y1040203D01*
X-232514Y1041445D01*
X-231652Y1042607D01*
X-230680Y1043680D01*
X-229607Y1044652D01*
X-228445Y1045514D01*
X-227203Y1046258D01*
X-225895Y1046877D01*
X-224532Y1047365D01*
X-223128Y1047717D01*
X-221696Y1047929D01*
X-220250Y1048000D01*
X-190750Y1048000D01*
X-189304Y1047929D01*
G37*
G36*
X-286304Y1301929D02*
G01*
X-284872Y1301717D01*
X-283468Y1301365D01*
X-282105Y1300877D01*
X-280797Y1300258D01*
X-279555Y1299514D01*
X-278393Y1298652D01*
X-277320Y1297680D01*
X-276348Y1296607D01*
X-275486Y1295445D01*
X-274742Y1294203D01*
X-274123Y1292895D01*
X-273635Y1291532D01*
X-273283Y1290128D01*
X-273071Y1288696D01*
X-273000Y1287250D01*
X-273000Y1252750D01*
X-273071Y1251304D01*
X-273283Y1249872D01*
X-273635Y1248468D01*
X-274123Y1247105D01*
X-274742Y1245797D01*
X-275486Y1244555D01*
X-276348Y1243393D01*
X-277320Y1242320D01*
X-278393Y1241348D01*
X-279555Y1240486D01*
X-280797Y1239742D01*
X-282105Y1239123D01*
X-283468Y1238635D01*
X-284872Y1238283D01*
X-286304Y1238071D01*
X-287750Y1238000D01*
X-317250Y1238000D01*
X-318696Y1238071D01*
X-320128Y1238283D01*
X-321532Y1238635D01*
X-322895Y1239123D01*
X-324203Y1239742D01*
X-325445Y1240486D01*
X-326607Y1241348D01*
X-327680Y1242320D01*
X-328652Y1243393D01*
X-329514Y1244555D01*
X-330258Y1245797D01*
X-330877Y1247105D01*
X-331365Y1248468D01*
X-331717Y1249872D01*
X-331929Y1251304D01*
X-332000Y1252750D01*
X-332000Y1287250D01*
X-331929Y1288696D01*
X-331717Y1290128D01*
X-331365Y1291532D01*
X-330877Y1292895D01*
X-330258Y1294203D01*
X-329514Y1295445D01*
X-328652Y1296607D01*
X-327680Y1297680D01*
X-326607Y1298652D01*
X-325445Y1299514D01*
X-324203Y1300258D01*
X-322895Y1300877D01*
X-321532Y1301365D01*
X-320128Y1301717D01*
X-318696Y1301929D01*
X-317250Y1302000D01*
X-287750Y1302000D01*
X-286304Y1301929D01*
G37*
G36*
X-189304Y1301929D02*
G01*
X-187872Y1301717D01*
X-186468Y1301365D01*
X-185105Y1300877D01*
X-183797Y1300258D01*
X-182555Y1299514D01*
X-181393Y1298652D01*
X-180320Y1297680D01*
X-179348Y1296607D01*
X-178486Y1295445D01*
X-177742Y1294203D01*
X-177123Y1292895D01*
X-176635Y1291532D01*
X-176283Y1290128D01*
X-176071Y1288696D01*
X-176000Y1287250D01*
X-176000Y1252750D01*
X-176071Y1251304D01*
X-176283Y1249872D01*
X-176635Y1248468D01*
X-177123Y1247105D01*
X-177742Y1245797D01*
X-178486Y1244555D01*
X-179348Y1243393D01*
X-180320Y1242320D01*
X-181393Y1241348D01*
X-182555Y1240486D01*
X-183797Y1239742D01*
X-185105Y1239123D01*
X-186468Y1238635D01*
X-187872Y1238283D01*
X-189304Y1238071D01*
X-190750Y1238000D01*
X-220250Y1238000D01*
X-221696Y1238071D01*
X-223128Y1238283D01*
X-224532Y1238635D01*
X-225895Y1239123D01*
X-227203Y1239742D01*
X-228445Y1240486D01*
X-229607Y1241348D01*
X-230680Y1242320D01*
X-231652Y1243393D01*
X-232514Y1244555D01*
X-233258Y1245797D01*
X-233877Y1247105D01*
X-234365Y1248468D01*
X-234717Y1249872D01*
X-234929Y1251304D01*
X-235000Y1252750D01*
X-235000Y1287250D01*
X-234929Y1288696D01*
X-234717Y1290128D01*
X-234365Y1291532D01*
X-233877Y1292895D01*
X-233258Y1294203D01*
X-232514Y1295445D01*
X-231652Y1296607D01*
X-230680Y1297680D01*
X-229607Y1298652D01*
X-228445Y1299514D01*
X-227203Y1300258D01*
X-225895Y1300877D01*
X-224532Y1301365D01*
X-223128Y1301717D01*
X-221696Y1301929D01*
X-220250Y1302000D01*
X-190750Y1302000D01*
X-189304Y1301929D01*
G37*
G36*
X-353231Y599895D02*
G01*
X-351107Y599580D01*
X-349025Y599058D01*
X-347004Y598335D01*
X-345063Y597417D01*
X-343222Y596313D01*
X-341498Y595035D01*
X-339907Y593593D01*
X-338465Y592002D01*
X-337187Y590278D01*
X-336083Y588437D01*
X-335165Y586496D01*
X-334442Y584475D01*
X-333920Y582393D01*
X-333605Y580269D01*
X-333500Y578125D01*
X-333500Y534375D01*
X-333605Y532231D01*
X-333920Y530107D01*
X-334442Y528025D01*
X-335165Y526004D01*
X-336083Y524063D01*
X-337187Y522222D01*
X-338465Y520498D01*
X-339907Y518907D01*
X-341498Y517465D01*
X-343222Y516187D01*
X-345063Y515083D01*
X-347004Y514165D01*
X-349025Y513442D01*
X-351107Y512920D01*
X-353231Y512605D01*
X-355375Y512500D01*
X-406625Y512500D01*
X-408769Y512605D01*
X-410893Y512920D01*
X-412975Y513442D01*
X-414996Y514165D01*
X-416937Y515083D01*
X-418778Y516187D01*
X-420502Y517465D01*
X-422093Y518907D01*
X-423535Y520498D01*
X-424813Y522222D01*
X-425917Y524063D01*
X-426835Y526004D01*
X-427558Y528025D01*
X-428080Y530107D01*
X-428395Y532231D01*
X-428500Y534375D01*
X-428500Y578125D01*
X-428395Y580269D01*
X-428080Y582393D01*
X-427558Y584475D01*
X-426835Y586496D01*
X-425917Y588437D01*
X-424813Y590278D01*
X-423535Y592002D01*
X-422093Y593593D01*
X-420502Y595035D01*
X-418778Y596313D01*
X-416937Y597417D01*
X-414996Y598335D01*
X-412975Y599058D01*
X-410893Y599580D01*
X-408769Y599895D01*
X-406625Y600000D01*
X-355375Y600000D01*
X-353231Y599895D01*
G37*
G36*
X-353231Y757395D02*
G01*
X-351107Y757080D01*
X-349025Y756558D01*
X-347004Y755835D01*
X-345063Y754917D01*
X-343222Y753813D01*
X-341498Y752535D01*
X-339907Y751093D01*
X-338465Y749502D01*
X-337187Y747778D01*
X-336083Y745937D01*
X-335165Y743996D01*
X-334442Y741975D01*
X-333920Y739893D01*
X-333605Y737769D01*
X-333500Y735625D01*
X-333500Y691875D01*
X-333605Y689731D01*
X-333920Y687607D01*
X-334442Y685525D01*
X-335165Y683504D01*
X-336083Y681563D01*
X-337187Y679722D01*
X-338465Y677998D01*
X-339907Y676407D01*
X-341498Y674965D01*
X-343222Y673687D01*
X-345063Y672583D01*
X-347004Y671665D01*
X-349025Y670942D01*
X-351107Y670420D01*
X-353231Y670105D01*
X-355375Y670000D01*
X-406625Y670000D01*
X-408769Y670105D01*
X-410893Y670420D01*
X-412975Y670942D01*
X-414996Y671665D01*
X-416937Y672583D01*
X-418778Y673687D01*
X-420502Y674965D01*
X-422093Y676407D01*
X-423535Y677998D01*
X-424813Y679722D01*
X-425917Y681563D01*
X-426835Y683504D01*
X-427558Y685525D01*
X-428080Y687607D01*
X-428395Y689731D01*
X-428500Y691875D01*
X-428500Y735625D01*
X-428395Y737769D01*
X-428080Y739893D01*
X-427558Y741975D01*
X-426835Y743996D01*
X-425917Y745937D01*
X-424813Y747778D01*
X-423535Y749502D01*
X-422093Y751093D01*
X-420502Y752535D01*
X-418778Y753813D01*
X-416937Y754917D01*
X-414996Y755835D01*
X-412975Y756558D01*
X-410893Y757080D01*
X-408769Y757395D01*
X-406625Y757500D01*
X-355375Y757500D01*
X-353231Y757395D01*
G37*
G36*
X-552804Y615929D02*
G01*
X-551372Y615717D01*
X-549968Y615365D01*
X-548605Y614877D01*
X-547297Y614258D01*
X-546055Y613514D01*
X-544893Y612652D01*
X-543820Y611680D01*
X-542848Y610607D01*
X-541986Y609445D01*
X-541242Y608203D01*
X-540623Y606895D01*
X-540135Y605532D01*
X-539783Y604128D01*
X-539571Y602696D01*
X-539500Y601250D01*
X-539500Y571750D01*
X-539571Y570304D01*
X-539783Y568872D01*
X-540135Y567468D01*
X-540623Y566105D01*
X-541242Y564797D01*
X-541986Y563555D01*
X-542848Y562393D01*
X-543820Y561320D01*
X-544893Y560348D01*
X-546055Y559486D01*
X-547297Y558742D01*
X-548605Y558123D01*
X-549968Y557635D01*
X-551372Y557283D01*
X-552804Y557071D01*
X-554250Y557000D01*
X-588750Y557000D01*
X-590196Y557071D01*
X-591628Y557283D01*
X-593032Y557635D01*
X-594395Y558123D01*
X-595703Y558742D01*
X-596945Y559486D01*
X-598107Y560348D01*
X-599180Y561320D01*
X-600152Y562393D01*
X-601014Y563555D01*
X-601758Y564797D01*
X-602377Y566105D01*
X-602865Y567468D01*
X-603217Y568872D01*
X-603429Y570304D01*
X-603500Y571750D01*
X-603500Y601250D01*
X-603429Y602696D01*
X-603217Y604128D01*
X-602865Y605532D01*
X-602377Y606895D01*
X-601758Y608203D01*
X-601014Y609445D01*
X-600152Y610607D01*
X-599180Y611680D01*
X-598107Y612652D01*
X-596945Y613514D01*
X-595703Y614258D01*
X-594395Y614877D01*
X-593032Y615365D01*
X-591628Y615717D01*
X-590196Y615929D01*
X-588750Y616000D01*
X-554250Y616000D01*
X-552804Y615929D01*
G37*
G36*
X-552804Y712929D02*
G01*
X-551372Y712717D01*
X-549968Y712365D01*
X-548605Y711877D01*
X-547297Y711258D01*
X-546055Y710514D01*
X-544893Y709652D01*
X-543820Y708680D01*
X-542848Y707607D01*
X-541986Y706445D01*
X-541242Y705203D01*
X-540623Y703895D01*
X-540135Y702532D01*
X-539783Y701128D01*
X-539571Y699696D01*
X-539500Y698250D01*
X-539500Y668750D01*
X-539571Y667304D01*
X-539783Y665872D01*
X-540135Y664468D01*
X-540623Y663105D01*
X-541242Y661797D01*
X-541986Y660555D01*
X-542848Y659393D01*
X-543820Y658320D01*
X-544893Y657348D01*
X-546055Y656486D01*
X-547297Y655742D01*
X-548605Y655123D01*
X-549968Y654635D01*
X-551372Y654283D01*
X-552804Y654071D01*
X-554250Y654000D01*
X-588750Y654000D01*
X-590196Y654071D01*
X-591628Y654283D01*
X-593032Y654635D01*
X-594395Y655123D01*
X-595703Y655742D01*
X-596945Y656486D01*
X-598107Y657348D01*
X-599180Y658320D01*
X-600152Y659393D01*
X-601014Y660555D01*
X-601758Y661797D01*
X-602377Y663105D01*
X-602865Y664468D01*
X-603217Y665872D01*
X-603429Y667304D01*
X-603500Y668750D01*
X-603500Y698250D01*
X-603429Y699696D01*
X-603217Y701128D01*
X-602865Y702532D01*
X-602377Y703895D01*
X-601758Y705203D01*
X-601014Y706445D01*
X-600152Y707607D01*
X-599180Y708680D01*
X-598107Y709652D01*
X-596945Y710514D01*
X-595703Y711258D01*
X-594395Y711877D01*
X-593032Y712365D01*
X-591628Y712717D01*
X-590196Y712929D01*
X-588750Y713000D01*
X-554250Y713000D01*
X-552804Y712929D01*
G37*
M02*
