%TF.GenerationSoftware,KiCad,Pcbnew,5.1.5+dfsg1-2~bpo10+1*%
%TF.CreationDate,Date%
%TF.ProjectId,ProMicro_LOG,50726f4d-6963-4726-9f5f-4c4f472e6b69,v1.1*%
%TF.SameCoordinates,Original*%
%TF.FileFunction,Copper,L1,Top*%
%TF.FilePolarity,Positive*%
%FSLAX45Y45*%
G04 Gerber Fmt 4.5, Leading zero omitted, Abs format (unit mm)*
G04 Created by KiCad*
%MOMM*%
%LPD*%
G04 APERTURE LIST*
%ADD10C,0.100000*%
%ADD11C,0.150000*%
%ADD12O,1.600000X1.600000*%
%ADD13R,1.600000X1.600000*%
%ADD14R,1.500000X1.000000*%
%ADD15C,2.000000*%
%ADD16R,1.900000X1.350000*%
%ADD17R,1.200000X1.000000*%
%ADD18R,1.550000X1.350000*%
%ADD19R,1.170000X1.800000*%
%ADD20R,0.850000X1.100000*%
%ADD21R,0.750000X1.100000*%
%ADD22C,0.500000*%
%ADD23C,0.600000*%
%ADD24C,0.400000*%
%ADD25C,0.250000*%
%ADD26C,0.125000*%
%ADD27C,0.200000*%
%ADD28C,0.300000*%
%ADD29C,0.350000*%
G04 APERTURE END LIST*
D10*
X-1587500Y2921000D02*
G75*
G03X-1651000Y2857500I0J-63500D01*
G01*
X127000Y2857500D02*
G75*
G03X63500Y2921000I-63500J0D01*
G01*
X63500Y-127000D02*
G75*
G03X127000Y-63500I0J63500D01*
G01*
X-1651000Y-63500D02*
G75*
G03X-1587500Y-127000I63500J0D01*
G01*
X-1651000Y2857500D02*
X-1651000Y-63500D01*
X63500Y2921000D02*
X-1587500Y2921000D01*
X127000Y-63500D02*
X127000Y2857500D01*
X-1587500Y-127000D02*
X63500Y-127000D01*
D11*
G36*
X-1236500Y37000D02*
G01*
X-1236500Y87000D01*
X-1176500Y87000D01*
X-1176500Y37000D01*
X-1236500Y37000D01*
G37*
D12*
X0Y2794000D03*
X0Y2540000D03*
X0Y2286000D03*
X-1524000Y0D03*
X0Y2032000D03*
X-1524000Y254000D03*
X0Y1778000D03*
X-1524000Y508000D03*
X0Y1524000D03*
X-1524000Y762000D03*
X0Y1270000D03*
X-1524000Y1016000D03*
X0Y1016000D03*
X-1524000Y1270000D03*
X0Y762000D03*
X-1524000Y1524000D03*
X0Y508000D03*
X-1524000Y1778000D03*
X0Y254000D03*
X-1524000Y2032000D03*
X0Y0D03*
X-1524000Y2286000D03*
X-1524000Y2540000D03*
D13*
X-1524000Y2794000D03*
%TA.AperFunction,SMDPad,CuDef*%
D11*
G36*
X-289731Y28395D02*
G01*
X-287607Y28080D01*
X-285525Y27558D01*
X-283504Y26835D01*
X-281563Y25917D01*
X-279722Y24813D01*
X-277998Y23535D01*
X-276407Y22093D01*
X-274965Y20502D01*
X-273687Y18778D01*
X-272583Y16937D01*
X-271665Y14996D01*
X-270942Y12975D01*
X-270420Y10893D01*
X-270105Y8769D01*
X-270000Y6625D01*
X-270000Y-37125D01*
X-270105Y-39269D01*
X-270420Y-41393D01*
X-270942Y-43475D01*
X-271665Y-45496D01*
X-272583Y-47437D01*
X-273687Y-49278D01*
X-274965Y-51002D01*
X-276407Y-52593D01*
X-277998Y-54035D01*
X-279722Y-55313D01*
X-281563Y-56417D01*
X-283504Y-57335D01*
X-285525Y-58058D01*
X-287607Y-58580D01*
X-289731Y-58895D01*
X-291875Y-59000D01*
X-343125Y-59000D01*
X-345269Y-58895D01*
X-347393Y-58580D01*
X-349475Y-58058D01*
X-351496Y-57335D01*
X-353437Y-56417D01*
X-355278Y-55313D01*
X-357002Y-54035D01*
X-358593Y-52593D01*
X-360035Y-51002D01*
X-361313Y-49278D01*
X-362417Y-47437D01*
X-363335Y-45496D01*
X-364058Y-43475D01*
X-364580Y-41393D01*
X-364895Y-39269D01*
X-365000Y-37125D01*
X-365000Y6625D01*
X-364895Y8769D01*
X-364580Y10893D01*
X-364058Y12975D01*
X-363335Y14996D01*
X-362417Y16937D01*
X-361313Y18778D01*
X-360035Y20502D01*
X-358593Y22093D01*
X-357002Y23535D01*
X-355278Y24813D01*
X-353437Y25917D01*
X-351496Y26835D01*
X-349475Y27558D01*
X-347393Y28080D01*
X-345269Y28395D01*
X-343125Y28500D01*
X-291875Y28500D01*
X-289731Y28395D01*
G37*
%TD.AperFunction*%
%TA.AperFunction,SMDPad,CuDef*%
G36*
X-289731Y185895D02*
G01*
X-287607Y185580D01*
X-285525Y185058D01*
X-283504Y184335D01*
X-281563Y183417D01*
X-279722Y182313D01*
X-277998Y181035D01*
X-276407Y179593D01*
X-274965Y178002D01*
X-273687Y176278D01*
X-272583Y174437D01*
X-271665Y172496D01*
X-270942Y170475D01*
X-270420Y168393D01*
X-270105Y166269D01*
X-270000Y164125D01*
X-270000Y120375D01*
X-270105Y118231D01*
X-270420Y116107D01*
X-270942Y114025D01*
X-271665Y112004D01*
X-272583Y110063D01*
X-273687Y108222D01*
X-274965Y106498D01*
X-276407Y104907D01*
X-277998Y103465D01*
X-279722Y102187D01*
X-281563Y101083D01*
X-283504Y100165D01*
X-285525Y99442D01*
X-287607Y98920D01*
X-289731Y98605D01*
X-291875Y98500D01*
X-343125Y98500D01*
X-345269Y98605D01*
X-347393Y98920D01*
X-349475Y99442D01*
X-351496Y100165D01*
X-353437Y101083D01*
X-355278Y102187D01*
X-357002Y103465D01*
X-358593Y104907D01*
X-360035Y106498D01*
X-361313Y108222D01*
X-362417Y110063D01*
X-363335Y112004D01*
X-364058Y114025D01*
X-364580Y116107D01*
X-364895Y118231D01*
X-365000Y120375D01*
X-365000Y164125D01*
X-364895Y166269D01*
X-364580Y168393D01*
X-364058Y170475D01*
X-363335Y172496D01*
X-362417Y174437D01*
X-361313Y176278D01*
X-360035Y178002D01*
X-358593Y179593D01*
X-357002Y181035D01*
X-355278Y182313D01*
X-353437Y183417D01*
X-351496Y184335D01*
X-349475Y185058D01*
X-347393Y185580D01*
X-345269Y185895D01*
X-343125Y186000D01*
X-291875Y186000D01*
X-289731Y185895D01*
G37*
%TD.AperFunction*%
%TA.AperFunction,SMDPad,CuDef*%
G36*
X-1103731Y1063395D02*
G01*
X-1101607Y1063080D01*
X-1099525Y1062558D01*
X-1097504Y1061835D01*
X-1095563Y1060917D01*
X-1093722Y1059813D01*
X-1091998Y1058535D01*
X-1090407Y1057093D01*
X-1088965Y1055502D01*
X-1087687Y1053778D01*
X-1086583Y1051937D01*
X-1085665Y1049996D01*
X-1084942Y1047975D01*
X-1084420Y1045893D01*
X-1084105Y1043769D01*
X-1084000Y1041625D01*
X-1084000Y990375D01*
X-1084105Y988231D01*
X-1084420Y986107D01*
X-1084942Y984025D01*
X-1085665Y982004D01*
X-1086583Y980063D01*
X-1087687Y978222D01*
X-1088965Y976498D01*
X-1090407Y974907D01*
X-1091998Y973465D01*
X-1093722Y972187D01*
X-1095563Y971083D01*
X-1097504Y970165D01*
X-1099525Y969442D01*
X-1101607Y968920D01*
X-1103731Y968605D01*
X-1105875Y968500D01*
X-1149625Y968500D01*
X-1151769Y968605D01*
X-1153893Y968920D01*
X-1155975Y969442D01*
X-1157996Y970165D01*
X-1159937Y971083D01*
X-1161778Y972187D01*
X-1163502Y973465D01*
X-1165093Y974907D01*
X-1166535Y976498D01*
X-1167813Y978222D01*
X-1168917Y980063D01*
X-1169835Y982004D01*
X-1170558Y984025D01*
X-1171080Y986107D01*
X-1171395Y988231D01*
X-1171500Y990375D01*
X-1171500Y1041625D01*
X-1171395Y1043769D01*
X-1171080Y1045893D01*
X-1170558Y1047975D01*
X-1169835Y1049996D01*
X-1168917Y1051937D01*
X-1167813Y1053778D01*
X-1166535Y1055502D01*
X-1165093Y1057093D01*
X-1163502Y1058535D01*
X-1161778Y1059813D01*
X-1159937Y1060917D01*
X-1157996Y1061835D01*
X-1155975Y1062558D01*
X-1153893Y1063080D01*
X-1151769Y1063395D01*
X-1149625Y1063500D01*
X-1105875Y1063500D01*
X-1103731Y1063395D01*
G37*
%TD.AperFunction*%
%TA.AperFunction,SMDPad,CuDef*%
G36*
X-1261231Y1063395D02*
G01*
X-1259107Y1063080D01*
X-1257025Y1062558D01*
X-1255004Y1061835D01*
X-1253063Y1060917D01*
X-1251222Y1059813D01*
X-1249498Y1058535D01*
X-1247907Y1057093D01*
X-1246465Y1055502D01*
X-1245187Y1053778D01*
X-1244083Y1051937D01*
X-1243165Y1049996D01*
X-1242442Y1047975D01*
X-1241920Y1045893D01*
X-1241605Y1043769D01*
X-1241500Y1041625D01*
X-1241500Y990375D01*
X-1241605Y988231D01*
X-1241920Y986107D01*
X-1242442Y984025D01*
X-1243165Y982004D01*
X-1244083Y980063D01*
X-1245187Y978222D01*
X-1246465Y976498D01*
X-1247907Y974907D01*
X-1249498Y973465D01*
X-1251222Y972187D01*
X-1253063Y971083D01*
X-1255004Y970165D01*
X-1257025Y969442D01*
X-1259107Y968920D01*
X-1261231Y968605D01*
X-1263375Y968500D01*
X-1307125Y968500D01*
X-1309269Y968605D01*
X-1311393Y968920D01*
X-1313475Y969442D01*
X-1315496Y970165D01*
X-1317437Y971083D01*
X-1319278Y972187D01*
X-1321002Y973465D01*
X-1322593Y974907D01*
X-1324035Y976498D01*
X-1325313Y978222D01*
X-1326417Y980063D01*
X-1327335Y982004D01*
X-1328058Y984025D01*
X-1328580Y986107D01*
X-1328895Y988231D01*
X-1329000Y990375D01*
X-1329000Y1041625D01*
X-1328895Y1043769D01*
X-1328580Y1045893D01*
X-1328058Y1047975D01*
X-1327335Y1049996D01*
X-1326417Y1051937D01*
X-1325313Y1053778D01*
X-1324035Y1055502D01*
X-1322593Y1057093D01*
X-1321002Y1058535D01*
X-1319278Y1059813D01*
X-1317437Y1060917D01*
X-1315496Y1061835D01*
X-1313475Y1062558D01*
X-1311393Y1063080D01*
X-1309269Y1063395D01*
X-1307125Y1063500D01*
X-1263375Y1063500D01*
X-1261231Y1063395D01*
G37*
%TD.AperFunction*%
%TA.AperFunction,SMDPad,CuDef*%
G36*
X-1131500Y52000D02*
G01*
X-1131500Y-3000D01*
X-1131560Y-3000D01*
X-1131560Y-5453D01*
X-1132041Y-10337D01*
X-1132998Y-15149D01*
X-1134423Y-19845D01*
X-1136301Y-24378D01*
X-1138614Y-28705D01*
X-1141340Y-32785D01*
X-1144452Y-36578D01*
X-1147922Y-40048D01*
X-1151715Y-43160D01*
X-1155795Y-45886D01*
X-1160122Y-48199D01*
X-1164656Y-50077D01*
X-1169351Y-51502D01*
X-1174164Y-52459D01*
X-1179047Y-52940D01*
X-1181500Y-52940D01*
X-1181500Y-53000D01*
X-1231500Y-53000D01*
X-1231500Y-52940D01*
X-1233953Y-52940D01*
X-1238837Y-52459D01*
X-1243649Y-51502D01*
X-1248345Y-50077D01*
X-1252878Y-48199D01*
X-1257205Y-45886D01*
X-1261285Y-43160D01*
X-1265078Y-40048D01*
X-1268548Y-36578D01*
X-1271660Y-32785D01*
X-1274386Y-28705D01*
X-1276700Y-24378D01*
X-1278577Y-19845D01*
X-1280002Y-15149D01*
X-1280959Y-10337D01*
X-1281440Y-5453D01*
X-1281440Y-3000D01*
X-1281500Y-3000D01*
X-1281500Y52000D01*
X-1131500Y52000D01*
G37*
%TD.AperFunction*%
D14*
X-1206500Y127000D03*
%TA.AperFunction,SMDPad,CuDef*%
D11*
G36*
X-1281440Y257000D02*
G01*
X-1281440Y259453D01*
X-1280959Y264337D01*
X-1280002Y269149D01*
X-1278577Y273845D01*
X-1276700Y278378D01*
X-1274386Y282705D01*
X-1271660Y286785D01*
X-1268548Y290578D01*
X-1265078Y294048D01*
X-1261285Y297160D01*
X-1257205Y299886D01*
X-1252878Y302200D01*
X-1248345Y304077D01*
X-1243649Y305502D01*
X-1238837Y306459D01*
X-1233953Y306940D01*
X-1231500Y306940D01*
X-1231500Y307000D01*
X-1181500Y307000D01*
X-1181500Y306940D01*
X-1179047Y306940D01*
X-1174164Y306459D01*
X-1169351Y305502D01*
X-1164656Y304077D01*
X-1160122Y302200D01*
X-1155795Y299886D01*
X-1151715Y297160D01*
X-1147922Y294048D01*
X-1144452Y290578D01*
X-1141340Y286785D01*
X-1138614Y282705D01*
X-1136301Y278378D01*
X-1134423Y273845D01*
X-1132998Y269149D01*
X-1132041Y264337D01*
X-1131560Y259453D01*
X-1131560Y257000D01*
X-1131500Y257000D01*
X-1131500Y202000D01*
X-1281500Y202000D01*
X-1281500Y257000D01*
X-1281440Y257000D01*
G37*
%TD.AperFunction*%
%TA.AperFunction,SMDPad,CuDef*%
G36*
X-353231Y1074895D02*
G01*
X-351107Y1074580D01*
X-349025Y1074058D01*
X-347004Y1073335D01*
X-345063Y1072417D01*
X-343222Y1071313D01*
X-341498Y1070035D01*
X-339907Y1068593D01*
X-338465Y1067002D01*
X-337187Y1065278D01*
X-336083Y1063437D01*
X-335165Y1061496D01*
X-334442Y1059475D01*
X-333920Y1057393D01*
X-333605Y1055269D01*
X-333500Y1053125D01*
X-333500Y1009375D01*
X-333605Y1007231D01*
X-333920Y1005107D01*
X-334442Y1003025D01*
X-335165Y1001004D01*
X-336083Y999063D01*
X-337187Y997222D01*
X-338465Y995498D01*
X-339907Y993907D01*
X-341498Y992465D01*
X-343222Y991187D01*
X-345063Y990083D01*
X-347004Y989165D01*
X-349025Y988442D01*
X-351107Y987920D01*
X-353231Y987605D01*
X-355375Y987500D01*
X-406625Y987500D01*
X-408769Y987605D01*
X-410893Y987920D01*
X-412975Y988442D01*
X-414996Y989165D01*
X-416937Y990083D01*
X-418778Y991187D01*
X-420502Y992465D01*
X-422093Y993907D01*
X-423535Y995498D01*
X-424813Y997222D01*
X-425917Y999063D01*
X-426835Y1001004D01*
X-427558Y1003025D01*
X-428080Y1005107D01*
X-428395Y1007231D01*
X-428500Y1009375D01*
X-428500Y1053125D01*
X-428395Y1055269D01*
X-428080Y1057393D01*
X-427558Y1059475D01*
X-426835Y1061496D01*
X-425917Y1063437D01*
X-424813Y1065278D01*
X-423535Y1067002D01*
X-422093Y1068593D01*
X-420502Y1070035D01*
X-418778Y1071313D01*
X-416937Y1072417D01*
X-414996Y1073335D01*
X-412975Y1074058D01*
X-410893Y1074580D01*
X-408769Y1074895D01*
X-406625Y1075000D01*
X-355375Y1075000D01*
X-353231Y1074895D01*
G37*
%TD.AperFunction*%
%TA.AperFunction,SMDPad,CuDef*%
G36*
X-353231Y917395D02*
G01*
X-351107Y917080D01*
X-349025Y916558D01*
X-347004Y915835D01*
X-345063Y914917D01*
X-343222Y913813D01*
X-341498Y912535D01*
X-339907Y911093D01*
X-338465Y909502D01*
X-337187Y907778D01*
X-336083Y905937D01*
X-335165Y903996D01*
X-334442Y901975D01*
X-333920Y899893D01*
X-333605Y897769D01*
X-333500Y895625D01*
X-333500Y851875D01*
X-333605Y849731D01*
X-333920Y847607D01*
X-334442Y845525D01*
X-335165Y843504D01*
X-336083Y841563D01*
X-337187Y839722D01*
X-338465Y837998D01*
X-339907Y836407D01*
X-341498Y834965D01*
X-343222Y833687D01*
X-345063Y832583D01*
X-347004Y831665D01*
X-349025Y830942D01*
X-351107Y830420D01*
X-353231Y830105D01*
X-355375Y830000D01*
X-406625Y830000D01*
X-408769Y830105D01*
X-410893Y830420D01*
X-412975Y830942D01*
X-414996Y831665D01*
X-416937Y832583D01*
X-418778Y833687D01*
X-420502Y834965D01*
X-422093Y836407D01*
X-423535Y837998D01*
X-424813Y839722D01*
X-425917Y841563D01*
X-426835Y843504D01*
X-427558Y845525D01*
X-428080Y847607D01*
X-428395Y849731D01*
X-428500Y851875D01*
X-428500Y895625D01*
X-428395Y897769D01*
X-428080Y899893D01*
X-427558Y901975D01*
X-426835Y903996D01*
X-425917Y905937D01*
X-424813Y907778D01*
X-423535Y909502D01*
X-422093Y911093D01*
X-420502Y912535D01*
X-418778Y913813D01*
X-416937Y914917D01*
X-414996Y915835D01*
X-412975Y916558D01*
X-410893Y917080D01*
X-408769Y917395D01*
X-406625Y917500D01*
X-355375Y917500D01*
X-353231Y917395D01*
G37*
%TD.AperFunction*%
%TA.AperFunction,SMDPad,CuDef*%
G36*
X-162731Y1074895D02*
G01*
X-160607Y1074580D01*
X-158525Y1074058D01*
X-156504Y1073335D01*
X-154563Y1072417D01*
X-152722Y1071313D01*
X-150998Y1070035D01*
X-149407Y1068593D01*
X-147965Y1067002D01*
X-146687Y1065278D01*
X-145583Y1063437D01*
X-144665Y1061496D01*
X-143942Y1059475D01*
X-143420Y1057393D01*
X-143105Y1055269D01*
X-143000Y1053125D01*
X-143000Y1009375D01*
X-143105Y1007231D01*
X-143420Y1005107D01*
X-143942Y1003025D01*
X-144665Y1001004D01*
X-145583Y999063D01*
X-146687Y997222D01*
X-147965Y995498D01*
X-149407Y993907D01*
X-150998Y992465D01*
X-152722Y991187D01*
X-154563Y990083D01*
X-156504Y989165D01*
X-158525Y988442D01*
X-160607Y987920D01*
X-162731Y987605D01*
X-164875Y987500D01*
X-216125Y987500D01*
X-218269Y987605D01*
X-220393Y987920D01*
X-222475Y988442D01*
X-224496Y989165D01*
X-226437Y990083D01*
X-228278Y991187D01*
X-230002Y992465D01*
X-231593Y993907D01*
X-233035Y995498D01*
X-234313Y997222D01*
X-235417Y999063D01*
X-236335Y1001004D01*
X-237058Y1003025D01*
X-237580Y1005107D01*
X-237895Y1007231D01*
X-238000Y1009375D01*
X-238000Y1053125D01*
X-237895Y1055269D01*
X-237580Y1057393D01*
X-237058Y1059475D01*
X-236335Y1061496D01*
X-235417Y1063437D01*
X-234313Y1065278D01*
X-233035Y1067002D01*
X-231593Y1068593D01*
X-230002Y1070035D01*
X-228278Y1071313D01*
X-226437Y1072417D01*
X-224496Y1073335D01*
X-222475Y1074058D01*
X-220393Y1074580D01*
X-218269Y1074895D01*
X-216125Y1075000D01*
X-164875Y1075000D01*
X-162731Y1074895D01*
G37*
%TD.AperFunction*%
%TA.AperFunction,SMDPad,CuDef*%
G36*
X-162731Y917395D02*
G01*
X-160607Y917080D01*
X-158525Y916558D01*
X-156504Y915835D01*
X-154563Y914917D01*
X-152722Y913813D01*
X-150998Y912535D01*
X-149407Y911093D01*
X-147965Y909502D01*
X-146687Y907778D01*
X-145583Y905937D01*
X-144665Y903996D01*
X-143942Y901975D01*
X-143420Y899893D01*
X-143105Y897769D01*
X-143000Y895625D01*
X-143000Y851875D01*
X-143105Y849731D01*
X-143420Y847607D01*
X-143942Y845525D01*
X-144665Y843504D01*
X-145583Y841563D01*
X-146687Y839722D01*
X-147965Y837998D01*
X-149407Y836407D01*
X-150998Y834965D01*
X-152722Y833687D01*
X-154563Y832583D01*
X-156504Y831665D01*
X-158525Y830942D01*
X-160607Y830420D01*
X-162731Y830105D01*
X-164875Y830000D01*
X-216125Y830000D01*
X-218269Y830105D01*
X-220393Y830420D01*
X-222475Y830942D01*
X-224496Y831665D01*
X-226437Y832583D01*
X-228278Y833687D01*
X-230002Y834965D01*
X-231593Y836407D01*
X-233035Y837998D01*
X-234313Y839722D01*
X-235417Y841563D01*
X-236335Y843504D01*
X-237058Y845525D01*
X-237580Y847607D01*
X-237895Y849731D01*
X-238000Y851875D01*
X-238000Y895625D01*
X-237895Y897769D01*
X-237580Y899893D01*
X-237058Y901975D01*
X-236335Y903996D01*
X-235417Y905937D01*
X-234313Y907778D01*
X-233035Y909502D01*
X-231593Y911093D01*
X-230002Y912535D01*
X-228278Y913813D01*
X-226437Y914917D01*
X-224496Y915835D01*
X-222475Y916558D01*
X-220393Y917080D01*
X-218269Y917395D01*
X-216125Y917500D01*
X-164875Y917500D01*
X-162731Y917395D01*
G37*
%TD.AperFunction*%
%TA.AperFunction,SMDPad,CuDef*%
G36*
X-1103731Y872895D02*
G01*
X-1101607Y872580D01*
X-1099525Y872058D01*
X-1097504Y871335D01*
X-1095563Y870417D01*
X-1093722Y869313D01*
X-1091998Y868035D01*
X-1090407Y866593D01*
X-1088965Y865002D01*
X-1087687Y863278D01*
X-1086583Y861437D01*
X-1085665Y859496D01*
X-1084942Y857475D01*
X-1084420Y855393D01*
X-1084105Y853269D01*
X-1084000Y851125D01*
X-1084000Y799875D01*
X-1084105Y797731D01*
X-1084420Y795607D01*
X-1084942Y793525D01*
X-1085665Y791504D01*
X-1086583Y789563D01*
X-1087687Y787722D01*
X-1088965Y785998D01*
X-1090407Y784407D01*
X-1091998Y782965D01*
X-1093722Y781687D01*
X-1095563Y780583D01*
X-1097504Y779665D01*
X-1099525Y778942D01*
X-1101607Y778420D01*
X-1103731Y778105D01*
X-1105875Y778000D01*
X-1149625Y778000D01*
X-1151769Y778105D01*
X-1153893Y778420D01*
X-1155975Y778942D01*
X-1157996Y779665D01*
X-1159937Y780583D01*
X-1161778Y781687D01*
X-1163502Y782965D01*
X-1165093Y784407D01*
X-1166535Y785998D01*
X-1167813Y787722D01*
X-1168917Y789563D01*
X-1169835Y791504D01*
X-1170558Y793525D01*
X-1171080Y795607D01*
X-1171395Y797731D01*
X-1171500Y799875D01*
X-1171500Y851125D01*
X-1171395Y853269D01*
X-1171080Y855393D01*
X-1170558Y857475D01*
X-1169835Y859496D01*
X-1168917Y861437D01*
X-1167813Y863278D01*
X-1166535Y865002D01*
X-1165093Y866593D01*
X-1163502Y868035D01*
X-1161778Y869313D01*
X-1159937Y870417D01*
X-1157996Y871335D01*
X-1155975Y872058D01*
X-1153893Y872580D01*
X-1151769Y872895D01*
X-1149625Y873000D01*
X-1105875Y873000D01*
X-1103731Y872895D01*
G37*
%TD.AperFunction*%
%TA.AperFunction,SMDPad,CuDef*%
G36*
X-1261231Y872895D02*
G01*
X-1259107Y872580D01*
X-1257025Y872058D01*
X-1255004Y871335D01*
X-1253063Y870417D01*
X-1251222Y869313D01*
X-1249498Y868035D01*
X-1247907Y866593D01*
X-1246465Y865002D01*
X-1245187Y863278D01*
X-1244083Y861437D01*
X-1243165Y859496D01*
X-1242442Y857475D01*
X-1241920Y855393D01*
X-1241605Y853269D01*
X-1241500Y851125D01*
X-1241500Y799875D01*
X-1241605Y797731D01*
X-1241920Y795607D01*
X-1242442Y793525D01*
X-1243165Y791504D01*
X-1244083Y789563D01*
X-1245187Y787722D01*
X-1246465Y785998D01*
X-1247907Y784407D01*
X-1249498Y782965D01*
X-1251222Y781687D01*
X-1253063Y780583D01*
X-1255004Y779665D01*
X-1257025Y778942D01*
X-1259107Y778420D01*
X-1261231Y778105D01*
X-1263375Y778000D01*
X-1307125Y778000D01*
X-1309269Y778105D01*
X-1311393Y778420D01*
X-1313475Y778942D01*
X-1315496Y779665D01*
X-1317437Y780583D01*
X-1319278Y781687D01*
X-1321002Y782965D01*
X-1322593Y784407D01*
X-1324035Y785998D01*
X-1325313Y787722D01*
X-1326417Y789563D01*
X-1327335Y791504D01*
X-1328058Y793525D01*
X-1328580Y795607D01*
X-1328895Y797731D01*
X-1329000Y799875D01*
X-1329000Y851125D01*
X-1328895Y853269D01*
X-1328580Y855393D01*
X-1328058Y857475D01*
X-1327335Y859496D01*
X-1326417Y861437D01*
X-1325313Y863278D01*
X-1324035Y865002D01*
X-1322593Y866593D01*
X-1321002Y868035D01*
X-1319278Y869313D01*
X-1317437Y870417D01*
X-1315496Y871335D01*
X-1313475Y872058D01*
X-1311393Y872580D01*
X-1309269Y872895D01*
X-1307125Y873000D01*
X-1263375Y873000D01*
X-1261231Y872895D01*
G37*
%TD.AperFunction*%
%TA.AperFunction,SMDPad,CuDef*%
G36*
X-1103731Y682395D02*
G01*
X-1101607Y682080D01*
X-1099525Y681558D01*
X-1097504Y680835D01*
X-1095563Y679917D01*
X-1093722Y678813D01*
X-1091998Y677535D01*
X-1090407Y676093D01*
X-1088965Y674502D01*
X-1087687Y672778D01*
X-1086583Y670937D01*
X-1085665Y668996D01*
X-1084942Y666975D01*
X-1084420Y664893D01*
X-1084105Y662769D01*
X-1084000Y660625D01*
X-1084000Y609375D01*
X-1084105Y607231D01*
X-1084420Y605107D01*
X-1084942Y603025D01*
X-1085665Y601004D01*
X-1086583Y599063D01*
X-1087687Y597222D01*
X-1088965Y595498D01*
X-1090407Y593907D01*
X-1091998Y592465D01*
X-1093722Y591187D01*
X-1095563Y590083D01*
X-1097504Y589165D01*
X-1099525Y588442D01*
X-1101607Y587920D01*
X-1103731Y587605D01*
X-1105875Y587500D01*
X-1149625Y587500D01*
X-1151769Y587605D01*
X-1153893Y587920D01*
X-1155975Y588442D01*
X-1157996Y589165D01*
X-1159937Y590083D01*
X-1161778Y591187D01*
X-1163502Y592465D01*
X-1165093Y593907D01*
X-1166535Y595498D01*
X-1167813Y597222D01*
X-1168917Y599063D01*
X-1169835Y601004D01*
X-1170558Y603025D01*
X-1171080Y605107D01*
X-1171395Y607231D01*
X-1171500Y609375D01*
X-1171500Y660625D01*
X-1171395Y662769D01*
X-1171080Y664893D01*
X-1170558Y666975D01*
X-1169835Y668996D01*
X-1168917Y670937D01*
X-1167813Y672778D01*
X-1166535Y674502D01*
X-1165093Y676093D01*
X-1163502Y677535D01*
X-1161778Y678813D01*
X-1159937Y679917D01*
X-1157996Y680835D01*
X-1155975Y681558D01*
X-1153893Y682080D01*
X-1151769Y682395D01*
X-1149625Y682500D01*
X-1105875Y682500D01*
X-1103731Y682395D01*
G37*
%TD.AperFunction*%
%TA.AperFunction,SMDPad,CuDef*%
G36*
X-1261231Y682395D02*
G01*
X-1259107Y682080D01*
X-1257025Y681558D01*
X-1255004Y680835D01*
X-1253063Y679917D01*
X-1251222Y678813D01*
X-1249498Y677535D01*
X-1247907Y676093D01*
X-1246465Y674502D01*
X-1245187Y672778D01*
X-1244083Y670937D01*
X-1243165Y668996D01*
X-1242442Y666975D01*
X-1241920Y664893D01*
X-1241605Y662769D01*
X-1241500Y660625D01*
X-1241500Y609375D01*
X-1241605Y607231D01*
X-1241920Y605107D01*
X-1242442Y603025D01*
X-1243165Y601004D01*
X-1244083Y599063D01*
X-1245187Y597222D01*
X-1246465Y595498D01*
X-1247907Y593907D01*
X-1249498Y592465D01*
X-1251222Y591187D01*
X-1253063Y590083D01*
X-1255004Y589165D01*
X-1257025Y588442D01*
X-1259107Y587920D01*
X-1261231Y587605D01*
X-1263375Y587500D01*
X-1307125Y587500D01*
X-1309269Y587605D01*
X-1311393Y587920D01*
X-1313475Y588442D01*
X-1315496Y589165D01*
X-1317437Y590083D01*
X-1319278Y591187D01*
X-1321002Y592465D01*
X-1322593Y593907D01*
X-1324035Y595498D01*
X-1325313Y597222D01*
X-1326417Y599063D01*
X-1327335Y601004D01*
X-1328058Y603025D01*
X-1328580Y605107D01*
X-1328895Y607231D01*
X-1329000Y609375D01*
X-1329000Y660625D01*
X-1328895Y662769D01*
X-1328580Y664893D01*
X-1328058Y666975D01*
X-1327335Y668996D01*
X-1326417Y670937D01*
X-1325313Y672778D01*
X-1324035Y674502D01*
X-1322593Y676093D01*
X-1321002Y677535D01*
X-1319278Y678813D01*
X-1317437Y679917D01*
X-1315496Y680835D01*
X-1313475Y681558D01*
X-1311393Y682080D01*
X-1309269Y682395D01*
X-1307125Y682500D01*
X-1263375Y682500D01*
X-1261231Y682395D01*
G37*
%TD.AperFunction*%
%TA.AperFunction,SMDPad,CuDef*%
G36*
X-1103731Y491895D02*
G01*
X-1101607Y491580D01*
X-1099525Y491058D01*
X-1097504Y490335D01*
X-1095563Y489417D01*
X-1093722Y488313D01*
X-1091998Y487035D01*
X-1090407Y485593D01*
X-1088965Y484002D01*
X-1087687Y482278D01*
X-1086583Y480437D01*
X-1085665Y478496D01*
X-1084942Y476475D01*
X-1084420Y474393D01*
X-1084105Y472269D01*
X-1084000Y470125D01*
X-1084000Y418875D01*
X-1084105Y416731D01*
X-1084420Y414607D01*
X-1084942Y412525D01*
X-1085665Y410504D01*
X-1086583Y408563D01*
X-1087687Y406722D01*
X-1088965Y404998D01*
X-1090407Y403407D01*
X-1091998Y401965D01*
X-1093722Y400687D01*
X-1095563Y399583D01*
X-1097504Y398665D01*
X-1099525Y397942D01*
X-1101607Y397420D01*
X-1103731Y397105D01*
X-1105875Y397000D01*
X-1149625Y397000D01*
X-1151769Y397105D01*
X-1153893Y397420D01*
X-1155975Y397942D01*
X-1157996Y398665D01*
X-1159937Y399583D01*
X-1161778Y400687D01*
X-1163502Y401965D01*
X-1165093Y403407D01*
X-1166535Y404998D01*
X-1167813Y406722D01*
X-1168917Y408563D01*
X-1169835Y410504D01*
X-1170558Y412525D01*
X-1171080Y414607D01*
X-1171395Y416731D01*
X-1171500Y418875D01*
X-1171500Y470125D01*
X-1171395Y472269D01*
X-1171080Y474393D01*
X-1170558Y476475D01*
X-1169835Y478496D01*
X-1168917Y480437D01*
X-1167813Y482278D01*
X-1166535Y484002D01*
X-1165093Y485593D01*
X-1163502Y487035D01*
X-1161778Y488313D01*
X-1159937Y489417D01*
X-1157996Y490335D01*
X-1155975Y491058D01*
X-1153893Y491580D01*
X-1151769Y491895D01*
X-1149625Y492000D01*
X-1105875Y492000D01*
X-1103731Y491895D01*
G37*
%TD.AperFunction*%
%TA.AperFunction,SMDPad,CuDef*%
G36*
X-1261231Y491895D02*
G01*
X-1259107Y491580D01*
X-1257025Y491058D01*
X-1255004Y490335D01*
X-1253063Y489417D01*
X-1251222Y488313D01*
X-1249498Y487035D01*
X-1247907Y485593D01*
X-1246465Y484002D01*
X-1245187Y482278D01*
X-1244083Y480437D01*
X-1243165Y478496D01*
X-1242442Y476475D01*
X-1241920Y474393D01*
X-1241605Y472269D01*
X-1241500Y470125D01*
X-1241500Y418875D01*
X-1241605Y416731D01*
X-1241920Y414607D01*
X-1242442Y412525D01*
X-1243165Y410504D01*
X-1244083Y408563D01*
X-1245187Y406722D01*
X-1246465Y404998D01*
X-1247907Y403407D01*
X-1249498Y401965D01*
X-1251222Y400687D01*
X-1253063Y399583D01*
X-1255004Y398665D01*
X-1257025Y397942D01*
X-1259107Y397420D01*
X-1261231Y397105D01*
X-1263375Y397000D01*
X-1307125Y397000D01*
X-1309269Y397105D01*
X-1311393Y397420D01*
X-1313475Y397942D01*
X-1315496Y398665D01*
X-1317437Y399583D01*
X-1319278Y400687D01*
X-1321002Y401965D01*
X-1322593Y403407D01*
X-1324035Y404998D01*
X-1325313Y406722D01*
X-1326417Y408563D01*
X-1327335Y410504D01*
X-1328058Y412525D01*
X-1328580Y414607D01*
X-1328895Y416731D01*
X-1329000Y418875D01*
X-1329000Y470125D01*
X-1328895Y472269D01*
X-1328580Y474393D01*
X-1328058Y476475D01*
X-1327335Y478496D01*
X-1326417Y480437D01*
X-1325313Y482278D01*
X-1324035Y484002D01*
X-1322593Y485593D01*
X-1321002Y487035D01*
X-1319278Y488313D01*
X-1317437Y489417D01*
X-1315496Y490335D01*
X-1313475Y491058D01*
X-1311393Y491580D01*
X-1309269Y491895D01*
X-1307125Y492000D01*
X-1263375Y492000D01*
X-1261231Y491895D01*
G37*
%TD.AperFunction*%
%TA.AperFunction,SMDPad,CuDef*%
G36*
X-372231Y428395D02*
G01*
X-370107Y428080D01*
X-368025Y427558D01*
X-366004Y426835D01*
X-364063Y425917D01*
X-362222Y424813D01*
X-360498Y423535D01*
X-358907Y422093D01*
X-357465Y420502D01*
X-356187Y418778D01*
X-355083Y416937D01*
X-354165Y414996D01*
X-353442Y412975D01*
X-352920Y410893D01*
X-352605Y408769D01*
X-352500Y406625D01*
X-352500Y355375D01*
X-352605Y353231D01*
X-352920Y351107D01*
X-353442Y349025D01*
X-354165Y347004D01*
X-355083Y345063D01*
X-356187Y343222D01*
X-357465Y341498D01*
X-358907Y339907D01*
X-360498Y338465D01*
X-362222Y337187D01*
X-364063Y336083D01*
X-366004Y335165D01*
X-368025Y334442D01*
X-370107Y333920D01*
X-372231Y333605D01*
X-374375Y333500D01*
X-418125Y333500D01*
X-420269Y333605D01*
X-422393Y333920D01*
X-424475Y334442D01*
X-426496Y335165D01*
X-428437Y336083D01*
X-430278Y337187D01*
X-432002Y338465D01*
X-433593Y339907D01*
X-435035Y341498D01*
X-436313Y343222D01*
X-437417Y345063D01*
X-438335Y347004D01*
X-439058Y349025D01*
X-439580Y351107D01*
X-439895Y353231D01*
X-440000Y355375D01*
X-440000Y406625D01*
X-439895Y408769D01*
X-439580Y410893D01*
X-439058Y412975D01*
X-438335Y414996D01*
X-437417Y416937D01*
X-436313Y418778D01*
X-435035Y420502D01*
X-433593Y422093D01*
X-432002Y423535D01*
X-430278Y424813D01*
X-428437Y425917D01*
X-426496Y426835D01*
X-424475Y427558D01*
X-422393Y428080D01*
X-420269Y428395D01*
X-418125Y428500D01*
X-374375Y428500D01*
X-372231Y428395D01*
G37*
%TD.AperFunction*%
%TA.AperFunction,SMDPad,CuDef*%
G36*
X-214731Y428395D02*
G01*
X-212607Y428080D01*
X-210525Y427558D01*
X-208504Y426835D01*
X-206563Y425917D01*
X-204722Y424813D01*
X-202998Y423535D01*
X-201407Y422093D01*
X-199965Y420502D01*
X-198687Y418778D01*
X-197583Y416937D01*
X-196665Y414996D01*
X-195942Y412975D01*
X-195420Y410893D01*
X-195105Y408769D01*
X-195000Y406625D01*
X-195000Y355375D01*
X-195105Y353231D01*
X-195420Y351107D01*
X-195942Y349025D01*
X-196665Y347004D01*
X-197583Y345063D01*
X-198687Y343222D01*
X-199965Y341498D01*
X-201407Y339907D01*
X-202998Y338465D01*
X-204722Y337187D01*
X-206563Y336083D01*
X-208504Y335165D01*
X-210525Y334442D01*
X-212607Y333920D01*
X-214731Y333605D01*
X-216875Y333500D01*
X-260625Y333500D01*
X-262769Y333605D01*
X-264893Y333920D01*
X-266975Y334442D01*
X-268996Y335165D01*
X-270937Y336083D01*
X-272778Y337187D01*
X-274502Y338465D01*
X-276093Y339907D01*
X-277535Y341498D01*
X-278813Y343222D01*
X-279917Y345063D01*
X-280835Y347004D01*
X-281558Y349025D01*
X-282080Y351107D01*
X-282395Y353231D01*
X-282500Y355375D01*
X-282500Y406625D01*
X-282395Y408769D01*
X-282080Y410893D01*
X-281558Y412975D01*
X-280835Y414996D01*
X-279917Y416937D01*
X-278813Y418778D01*
X-277535Y420502D01*
X-276093Y422093D01*
X-274502Y423535D01*
X-272778Y424813D01*
X-270937Y425917D01*
X-268996Y426835D01*
X-266975Y427558D01*
X-264893Y428080D01*
X-262769Y428395D01*
X-260625Y428500D01*
X-216875Y428500D01*
X-214731Y428395D01*
G37*
%TD.AperFunction*%
%TA.AperFunction,SMDPad,CuDef*%
G36*
X-877560Y-1500D02*
G01*
X-877560Y-3953D01*
X-878041Y-8837D01*
X-878998Y-13649D01*
X-880423Y-18345D01*
X-882300Y-22878D01*
X-884614Y-27205D01*
X-887340Y-31285D01*
X-890452Y-35078D01*
X-893922Y-38548D01*
X-897715Y-41660D01*
X-901795Y-44386D01*
X-906122Y-46699D01*
X-910655Y-48577D01*
X-915351Y-50002D01*
X-920163Y-50959D01*
X-925047Y-51440D01*
X-927500Y-51440D01*
X-927500Y-51500D01*
X-977500Y-51500D01*
X-977500Y-51440D01*
X-979953Y-51440D01*
X-984836Y-50959D01*
X-989649Y-50002D01*
X-994344Y-48577D01*
X-998878Y-46699D01*
X-1003205Y-44386D01*
X-1007285Y-41660D01*
X-1011078Y-38548D01*
X-1014548Y-35078D01*
X-1017660Y-31285D01*
X-1020386Y-27205D01*
X-1022699Y-22878D01*
X-1024577Y-18345D01*
X-1026002Y-13649D01*
X-1026959Y-8837D01*
X-1027440Y-3953D01*
X-1027440Y-1500D01*
X-1027500Y-1500D01*
X-1027500Y48500D01*
X-877500Y48500D01*
X-877500Y-1500D01*
X-877560Y-1500D01*
G37*
%TD.AperFunction*%
%TA.AperFunction,SMDPad,CuDef*%
G36*
X-1027500Y78500D02*
G01*
X-1027500Y128500D01*
X-1027440Y128500D01*
X-1027440Y130953D01*
X-1026959Y135837D01*
X-1026002Y140649D01*
X-1024577Y145345D01*
X-1022699Y149878D01*
X-1020386Y154205D01*
X-1017660Y158285D01*
X-1014548Y162078D01*
X-1011078Y165548D01*
X-1007285Y168660D01*
X-1003205Y171386D01*
X-998878Y173700D01*
X-994344Y175577D01*
X-989649Y177002D01*
X-984836Y177959D01*
X-979953Y178440D01*
X-977500Y178440D01*
X-977500Y178500D01*
X-927500Y178500D01*
X-927500Y178440D01*
X-925047Y178440D01*
X-920163Y177959D01*
X-915351Y177002D01*
X-910655Y175577D01*
X-906122Y173700D01*
X-901795Y171386D01*
X-897715Y168660D01*
X-893922Y165548D01*
X-890452Y162078D01*
X-887340Y158285D01*
X-884614Y154205D01*
X-882300Y149878D01*
X-880423Y145345D01*
X-878998Y140649D01*
X-878041Y135837D01*
X-877560Y130953D01*
X-877560Y128500D01*
X-877500Y128500D01*
X-877500Y78500D01*
X-1027500Y78500D01*
G37*
%TD.AperFunction*%
%TA.AperFunction,SMDPad,CuDef*%
G36*
X-623560Y-1500D02*
G01*
X-623560Y-3953D01*
X-624041Y-8837D01*
X-624998Y-13649D01*
X-626423Y-18345D01*
X-628301Y-22878D01*
X-630614Y-27205D01*
X-633340Y-31285D01*
X-636452Y-35078D01*
X-639922Y-38548D01*
X-643715Y-41660D01*
X-647795Y-44386D01*
X-652122Y-46699D01*
X-656656Y-48577D01*
X-661351Y-50002D01*
X-666164Y-50959D01*
X-671047Y-51440D01*
X-673500Y-51440D01*
X-673500Y-51500D01*
X-723500Y-51500D01*
X-723500Y-51440D01*
X-725953Y-51440D01*
X-730836Y-50959D01*
X-735649Y-50002D01*
X-740344Y-48577D01*
X-744878Y-46699D01*
X-749205Y-44386D01*
X-753285Y-41660D01*
X-757078Y-38548D01*
X-760548Y-35078D01*
X-763660Y-31285D01*
X-766386Y-27205D01*
X-768699Y-22878D01*
X-770577Y-18345D01*
X-772002Y-13649D01*
X-772959Y-8837D01*
X-773440Y-3953D01*
X-773440Y-1500D01*
X-773500Y-1500D01*
X-773500Y48500D01*
X-623500Y48500D01*
X-623500Y-1500D01*
X-623560Y-1500D01*
G37*
%TD.AperFunction*%
%TA.AperFunction,SMDPad,CuDef*%
G36*
X-773500Y78500D02*
G01*
X-773500Y128500D01*
X-773440Y128500D01*
X-773440Y130953D01*
X-772959Y135837D01*
X-772002Y140649D01*
X-770577Y145345D01*
X-768699Y149878D01*
X-766386Y154205D01*
X-763660Y158285D01*
X-760548Y162078D01*
X-757078Y165548D01*
X-753285Y168660D01*
X-749205Y171386D01*
X-744878Y173700D01*
X-740344Y175577D01*
X-735649Y177002D01*
X-730836Y177959D01*
X-725953Y178440D01*
X-723500Y178440D01*
X-723500Y178500D01*
X-673500Y178500D01*
X-673500Y178440D01*
X-671047Y178440D01*
X-666164Y177959D01*
X-661351Y177002D01*
X-656656Y175577D01*
X-652122Y173700D01*
X-647795Y171386D01*
X-643715Y168660D01*
X-639922Y165548D01*
X-636452Y162078D01*
X-633340Y158285D01*
X-630614Y154205D01*
X-628301Y149878D01*
X-626423Y145345D01*
X-624998Y140649D01*
X-624041Y135837D01*
X-623560Y130953D01*
X-623560Y128500D01*
X-623500Y128500D01*
X-623500Y78500D01*
X-773500Y78500D01*
G37*
%TD.AperFunction*%
%TA.AperFunction,SMDPad,CuDef*%
G36*
X-936030Y979928D02*
G01*
X-934574Y979712D01*
X-933146Y979354D01*
X-931760Y978858D01*
X-930429Y978229D01*
X-929166Y977472D01*
X-927984Y976595D01*
X-926893Y975607D01*
X-925905Y974516D01*
X-925028Y973334D01*
X-924271Y972071D01*
X-923642Y970740D01*
X-923146Y969354D01*
X-922788Y967926D01*
X-922572Y966470D01*
X-922500Y965000D01*
X-922500Y800000D01*
X-922572Y798530D01*
X-922788Y797074D01*
X-923146Y795646D01*
X-923642Y794260D01*
X-924271Y792929D01*
X-925028Y791666D01*
X-925905Y790484D01*
X-926893Y789393D01*
X-927984Y788405D01*
X-929166Y787528D01*
X-930429Y786771D01*
X-931760Y786142D01*
X-933146Y785646D01*
X-934574Y785288D01*
X-936030Y785072D01*
X-937500Y785000D01*
X-967500Y785000D01*
X-968970Y785072D01*
X-970426Y785288D01*
X-971854Y785646D01*
X-973240Y786142D01*
X-974571Y786771D01*
X-975834Y787528D01*
X-977016Y788405D01*
X-978107Y789393D01*
X-979095Y790484D01*
X-979972Y791666D01*
X-980729Y792929D01*
X-981358Y794260D01*
X-981854Y795646D01*
X-982212Y797074D01*
X-982428Y798530D01*
X-982500Y800000D01*
X-982500Y965000D01*
X-982428Y966470D01*
X-982212Y967926D01*
X-981854Y969354D01*
X-981358Y970740D01*
X-980729Y972071D01*
X-979972Y973334D01*
X-979095Y974516D01*
X-978107Y975607D01*
X-977016Y976595D01*
X-975834Y977472D01*
X-974571Y978229D01*
X-973240Y978858D01*
X-971854Y979354D01*
X-970426Y979712D01*
X-968970Y979928D01*
X-967500Y980000D01*
X-937500Y980000D01*
X-936030Y979928D01*
G37*
%TD.AperFunction*%
%TA.AperFunction,SMDPad,CuDef*%
G36*
X-809030Y979928D02*
G01*
X-807574Y979712D01*
X-806146Y979354D01*
X-804760Y978858D01*
X-803429Y978229D01*
X-802166Y977472D01*
X-800984Y976595D01*
X-799893Y975607D01*
X-798905Y974516D01*
X-798028Y973334D01*
X-797271Y972071D01*
X-796642Y970740D01*
X-796146Y969354D01*
X-795788Y967926D01*
X-795572Y966470D01*
X-795500Y965000D01*
X-795500Y800000D01*
X-795572Y798530D01*
X-795788Y797074D01*
X-796146Y795646D01*
X-796642Y794260D01*
X-797271Y792929D01*
X-798028Y791666D01*
X-798905Y790484D01*
X-799893Y789393D01*
X-800984Y788405D01*
X-802166Y787528D01*
X-803429Y786771D01*
X-804760Y786142D01*
X-806146Y785646D01*
X-807574Y785288D01*
X-809030Y785072D01*
X-810500Y785000D01*
X-840500Y785000D01*
X-841970Y785072D01*
X-843426Y785288D01*
X-844854Y785646D01*
X-846240Y786142D01*
X-847571Y786771D01*
X-848834Y787528D01*
X-850016Y788405D01*
X-851107Y789393D01*
X-852095Y790484D01*
X-852972Y791666D01*
X-853729Y792929D01*
X-854358Y794260D01*
X-854854Y795646D01*
X-855212Y797074D01*
X-855428Y798530D01*
X-855500Y800000D01*
X-855500Y965000D01*
X-855428Y966470D01*
X-855212Y967926D01*
X-854854Y969354D01*
X-854358Y970740D01*
X-853729Y972071D01*
X-852972Y973334D01*
X-852095Y974516D01*
X-851107Y975607D01*
X-850016Y976595D01*
X-848834Y977472D01*
X-847571Y978229D01*
X-846240Y978858D01*
X-844854Y979354D01*
X-843426Y979712D01*
X-841970Y979928D01*
X-840500Y980000D01*
X-810500Y980000D01*
X-809030Y979928D01*
G37*
%TD.AperFunction*%
%TA.AperFunction,SMDPad,CuDef*%
G36*
X-682030Y979928D02*
G01*
X-680574Y979712D01*
X-679146Y979354D01*
X-677760Y978858D01*
X-676429Y978229D01*
X-675166Y977472D01*
X-673984Y976595D01*
X-672893Y975607D01*
X-671905Y974516D01*
X-671028Y973334D01*
X-670271Y972071D01*
X-669642Y970740D01*
X-669146Y969354D01*
X-668788Y967926D01*
X-668572Y966470D01*
X-668500Y965000D01*
X-668500Y800000D01*
X-668572Y798530D01*
X-668788Y797074D01*
X-669146Y795646D01*
X-669642Y794260D01*
X-670271Y792929D01*
X-671028Y791666D01*
X-671905Y790484D01*
X-672893Y789393D01*
X-673984Y788405D01*
X-675166Y787528D01*
X-676429Y786771D01*
X-677760Y786142D01*
X-679146Y785646D01*
X-680574Y785288D01*
X-682030Y785072D01*
X-683500Y785000D01*
X-713500Y785000D01*
X-714970Y785072D01*
X-716426Y785288D01*
X-717854Y785646D01*
X-719240Y786142D01*
X-720571Y786771D01*
X-721834Y787528D01*
X-723016Y788405D01*
X-724107Y789393D01*
X-725095Y790484D01*
X-725972Y791666D01*
X-726729Y792929D01*
X-727358Y794260D01*
X-727854Y795646D01*
X-728212Y797074D01*
X-728428Y798530D01*
X-728500Y800000D01*
X-728500Y965000D01*
X-728428Y966470D01*
X-728212Y967926D01*
X-727854Y969354D01*
X-727358Y970740D01*
X-726729Y972071D01*
X-725972Y973334D01*
X-725095Y974516D01*
X-724107Y975607D01*
X-723016Y976595D01*
X-721834Y977472D01*
X-720571Y978229D01*
X-719240Y978858D01*
X-717854Y979354D01*
X-716426Y979712D01*
X-714970Y979928D01*
X-713500Y980000D01*
X-683500Y980000D01*
X-682030Y979928D01*
G37*
%TD.AperFunction*%
%TA.AperFunction,SMDPad,CuDef*%
G36*
X-555030Y979928D02*
G01*
X-553574Y979712D01*
X-552146Y979354D01*
X-550760Y978858D01*
X-549429Y978229D01*
X-548166Y977472D01*
X-546984Y976595D01*
X-545893Y975607D01*
X-544905Y974516D01*
X-544028Y973334D01*
X-543271Y972071D01*
X-542642Y970740D01*
X-542146Y969354D01*
X-541788Y967926D01*
X-541572Y966470D01*
X-541500Y965000D01*
X-541500Y800000D01*
X-541572Y798530D01*
X-541788Y797074D01*
X-542146Y795646D01*
X-542642Y794260D01*
X-543271Y792929D01*
X-544028Y791666D01*
X-544905Y790484D01*
X-545893Y789393D01*
X-546984Y788405D01*
X-548166Y787528D01*
X-549429Y786771D01*
X-550760Y786142D01*
X-552146Y785646D01*
X-553574Y785288D01*
X-555030Y785072D01*
X-556500Y785000D01*
X-586500Y785000D01*
X-587970Y785072D01*
X-589426Y785288D01*
X-590854Y785646D01*
X-592240Y786142D01*
X-593571Y786771D01*
X-594834Y787528D01*
X-596016Y788405D01*
X-597107Y789393D01*
X-598095Y790484D01*
X-598972Y791666D01*
X-599729Y792929D01*
X-600358Y794260D01*
X-600854Y795646D01*
X-601212Y797074D01*
X-601428Y798530D01*
X-601500Y800000D01*
X-601500Y965000D01*
X-601428Y966470D01*
X-601212Y967926D01*
X-600854Y969354D01*
X-600358Y970740D01*
X-599729Y972071D01*
X-598972Y973334D01*
X-598095Y974516D01*
X-597107Y975607D01*
X-596016Y976595D01*
X-594834Y977472D01*
X-593571Y978229D01*
X-592240Y978858D01*
X-590854Y979354D01*
X-589426Y979712D01*
X-587970Y979928D01*
X-586500Y980000D01*
X-556500Y980000D01*
X-555030Y979928D01*
G37*
%TD.AperFunction*%
%TA.AperFunction,SMDPad,CuDef*%
G36*
X-555030Y484928D02*
G01*
X-553574Y484712D01*
X-552146Y484354D01*
X-550760Y483858D01*
X-549429Y483229D01*
X-548166Y482472D01*
X-546984Y481595D01*
X-545893Y480607D01*
X-544905Y479516D01*
X-544028Y478334D01*
X-543271Y477071D01*
X-542642Y475740D01*
X-542146Y474354D01*
X-541788Y472926D01*
X-541572Y471470D01*
X-541500Y470000D01*
X-541500Y305000D01*
X-541572Y303530D01*
X-541788Y302074D01*
X-542146Y300646D01*
X-542642Y299260D01*
X-543271Y297929D01*
X-544028Y296666D01*
X-544905Y295484D01*
X-545893Y294393D01*
X-546984Y293405D01*
X-548166Y292528D01*
X-549429Y291771D01*
X-550760Y291142D01*
X-552146Y290646D01*
X-553574Y290288D01*
X-555030Y290072D01*
X-556500Y290000D01*
X-586500Y290000D01*
X-587970Y290072D01*
X-589426Y290288D01*
X-590854Y290646D01*
X-592240Y291142D01*
X-593571Y291771D01*
X-594834Y292528D01*
X-596016Y293405D01*
X-597107Y294393D01*
X-598095Y295484D01*
X-598972Y296666D01*
X-599729Y297929D01*
X-600358Y299260D01*
X-600854Y300646D01*
X-601212Y302074D01*
X-601428Y303530D01*
X-601500Y305000D01*
X-601500Y470000D01*
X-601428Y471470D01*
X-601212Y472926D01*
X-600854Y474354D01*
X-600358Y475740D01*
X-599729Y477071D01*
X-598972Y478334D01*
X-598095Y479516D01*
X-597107Y480607D01*
X-596016Y481595D01*
X-594834Y482472D01*
X-593571Y483229D01*
X-592240Y483858D01*
X-590854Y484354D01*
X-589426Y484712D01*
X-587970Y484928D01*
X-586500Y485000D01*
X-556500Y485000D01*
X-555030Y484928D01*
G37*
%TD.AperFunction*%
%TA.AperFunction,SMDPad,CuDef*%
G36*
X-682030Y484928D02*
G01*
X-680574Y484712D01*
X-679146Y484354D01*
X-677760Y483858D01*
X-676429Y483229D01*
X-675166Y482472D01*
X-673984Y481595D01*
X-672893Y480607D01*
X-671905Y479516D01*
X-671028Y478334D01*
X-670271Y477071D01*
X-669642Y475740D01*
X-669146Y474354D01*
X-668788Y472926D01*
X-668572Y471470D01*
X-668500Y470000D01*
X-668500Y305000D01*
X-668572Y303530D01*
X-668788Y302074D01*
X-669146Y300646D01*
X-669642Y299260D01*
X-670271Y297929D01*
X-671028Y296666D01*
X-671905Y295484D01*
X-672893Y294393D01*
X-673984Y293405D01*
X-675166Y292528D01*
X-676429Y291771D01*
X-677760Y291142D01*
X-679146Y290646D01*
X-680574Y290288D01*
X-682030Y290072D01*
X-683500Y290000D01*
X-713500Y290000D01*
X-714970Y290072D01*
X-716426Y290288D01*
X-717854Y290646D01*
X-719240Y291142D01*
X-720571Y291771D01*
X-721834Y292528D01*
X-723016Y293405D01*
X-724107Y294393D01*
X-725095Y295484D01*
X-725972Y296666D01*
X-726729Y297929D01*
X-727358Y299260D01*
X-727854Y300646D01*
X-728212Y302074D01*
X-728428Y303530D01*
X-728500Y305000D01*
X-728500Y470000D01*
X-728428Y471470D01*
X-728212Y472926D01*
X-727854Y474354D01*
X-727358Y475740D01*
X-726729Y477071D01*
X-725972Y478334D01*
X-725095Y479516D01*
X-724107Y480607D01*
X-723016Y481595D01*
X-721834Y482472D01*
X-720571Y483229D01*
X-719240Y483858D01*
X-717854Y484354D01*
X-716426Y484712D01*
X-714970Y484928D01*
X-713500Y485000D01*
X-683500Y485000D01*
X-682030Y484928D01*
G37*
%TD.AperFunction*%
%TA.AperFunction,SMDPad,CuDef*%
G36*
X-809030Y484928D02*
G01*
X-807574Y484712D01*
X-806146Y484354D01*
X-804760Y483858D01*
X-803429Y483229D01*
X-802166Y482472D01*
X-800984Y481595D01*
X-799893Y480607D01*
X-798905Y479516D01*
X-798028Y478334D01*
X-797271Y477071D01*
X-796642Y475740D01*
X-796146Y474354D01*
X-795788Y472926D01*
X-795572Y471470D01*
X-795500Y470000D01*
X-795500Y305000D01*
X-795572Y303530D01*
X-795788Y302074D01*
X-796146Y300646D01*
X-796642Y299260D01*
X-797271Y297929D01*
X-798028Y296666D01*
X-798905Y295484D01*
X-799893Y294393D01*
X-800984Y293405D01*
X-802166Y292528D01*
X-803429Y291771D01*
X-804760Y291142D01*
X-806146Y290646D01*
X-807574Y290288D01*
X-809030Y290072D01*
X-810500Y290000D01*
X-840500Y290000D01*
X-841970Y290072D01*
X-843426Y290288D01*
X-844854Y290646D01*
X-846240Y291142D01*
X-847571Y291771D01*
X-848834Y292528D01*
X-850016Y293405D01*
X-851107Y294393D01*
X-852095Y295484D01*
X-852972Y296666D01*
X-853729Y297929D01*
X-854358Y299260D01*
X-854854Y300646D01*
X-855212Y302074D01*
X-855428Y303530D01*
X-855500Y305000D01*
X-855500Y470000D01*
X-855428Y471470D01*
X-855212Y472926D01*
X-854854Y474354D01*
X-854358Y475740D01*
X-853729Y477071D01*
X-852972Y478334D01*
X-852095Y479516D01*
X-851107Y480607D01*
X-850016Y481595D01*
X-848834Y482472D01*
X-847571Y483229D01*
X-846240Y483858D01*
X-844854Y484354D01*
X-843426Y484712D01*
X-841970Y484928D01*
X-840500Y485000D01*
X-810500Y485000D01*
X-809030Y484928D01*
G37*
%TD.AperFunction*%
%TA.AperFunction,SMDPad,CuDef*%
G36*
X-936030Y484928D02*
G01*
X-934574Y484712D01*
X-933146Y484354D01*
X-931760Y483858D01*
X-930429Y483229D01*
X-929166Y482472D01*
X-927984Y481595D01*
X-926893Y480607D01*
X-925905Y479516D01*
X-925028Y478334D01*
X-924271Y477071D01*
X-923642Y475740D01*
X-923146Y474354D01*
X-922788Y472926D01*
X-922572Y471470D01*
X-922500Y470000D01*
X-922500Y305000D01*
X-922572Y303530D01*
X-922788Y302074D01*
X-923146Y300646D01*
X-923642Y299260D01*
X-924271Y297929D01*
X-925028Y296666D01*
X-925905Y295484D01*
X-926893Y294393D01*
X-927984Y293405D01*
X-929166Y292528D01*
X-930429Y291771D01*
X-931760Y291142D01*
X-933146Y290646D01*
X-934574Y290288D01*
X-936030Y290072D01*
X-937500Y290000D01*
X-967500Y290000D01*
X-968970Y290072D01*
X-970426Y290288D01*
X-971854Y290646D01*
X-973240Y291142D01*
X-974571Y291771D01*
X-975834Y292528D01*
X-977016Y293405D01*
X-978107Y294393D01*
X-979095Y295484D01*
X-979972Y296666D01*
X-980729Y297929D01*
X-981358Y299260D01*
X-981854Y300646D01*
X-982212Y302074D01*
X-982428Y303530D01*
X-982500Y305000D01*
X-982500Y470000D01*
X-982428Y471470D01*
X-982212Y472926D01*
X-981854Y474354D01*
X-981358Y475740D01*
X-980729Y477071D01*
X-979972Y478334D01*
X-979095Y479516D01*
X-978107Y480607D01*
X-977016Y481595D01*
X-975834Y482472D01*
X-974571Y483229D01*
X-973240Y483858D01*
X-971854Y484354D01*
X-970426Y484712D01*
X-968970Y484928D01*
X-967500Y485000D01*
X-937500Y485000D01*
X-936030Y484928D01*
G37*
%TD.AperFunction*%
D15*
X-254000Y635000D03*
D16*
X-389000Y1240500D03*
X-986000Y1240500D03*
D17*
X-1336000Y1708000D03*
X-1336000Y1338000D03*
D18*
X-1318500Y2310500D03*
D19*
X-186500Y2288000D03*
D20*
X-412500Y2323000D03*
X-522500Y2323000D03*
X-632500Y2323000D03*
X-742500Y2323000D03*
X-852500Y2323000D03*
X-962500Y2323000D03*
D21*
X-307500Y2323000D03*
D20*
X-1072500Y2323000D03*
D22*
X-520700Y2197100D03*
X-952500Y1397000D03*
X-889000Y1079500D03*
X-850900Y635000D03*
X-355600Y254000D03*
X-1206500Y1841500D03*
X-1079500Y1968500D03*
X-635000Y1079500D03*
X-190500Y63500D03*
X-762000Y1524000D03*
X-1016000Y736600D03*
X-1016000Y1016000D03*
X-1244600Y1435100D03*
X-520700Y1968500D03*
X-1079500Y1397000D03*
X-1079500Y0D03*
X-190500Y-76200D03*
X-127000Y1651000D03*
X-279400Y1117600D03*
X-723900Y1955800D03*
D23*
X-698500Y2095500D03*
X-1333500Y1143000D03*
X-292100Y2032000D03*
D22*
X-571500Y569999D03*
X-444502Y190502D03*
X-762000Y1181100D03*
X-1016000Y2171700D03*
X-1397000Y1092200D03*
X-574059Y60940D03*
X-571500Y139700D03*
X-317500Y1612900D03*
X-190500Y1270000D03*
X-393700Y1498600D03*
X-825500Y241300D03*
X-1219200Y1117600D03*
X-1079499Y101600D03*
D24*
X-1285250Y929650D02*
X-1285250Y1016000D01*
X-1285250Y825500D02*
X-1285250Y929650D01*
X-1285250Y825500D02*
X-1285250Y746750D01*
X-1285250Y635000D02*
X-1285250Y746750D01*
X-1285250Y444500D02*
X-1285250Y556250D01*
X-1285250Y635000D02*
X-1285250Y556250D01*
X-1285250Y556250D02*
X-1276499Y547499D01*
X-826899Y547499D02*
X-825500Y546100D01*
X-1276499Y547499D02*
X-826899Y547499D01*
X-736600Y635000D02*
X-825500Y546100D01*
X-238750Y381000D02*
X-492750Y635000D01*
X-825500Y546100D02*
X-825500Y387500D01*
X-492750Y635000D02*
X-736600Y635000D01*
X-728500Y2125500D02*
X-698500Y2095500D01*
X-742500Y2323000D02*
X-742500Y2139500D01*
X-742500Y2139500D02*
X-728500Y2125500D01*
X-1285250Y1094750D02*
X-1333500Y1143000D01*
X-1285250Y1016000D02*
X-1285250Y1094750D01*
X0Y2032000D02*
X-292100Y2032000D01*
D25*
X-571500Y387500D02*
X-571500Y569999D01*
X-698500Y762000D02*
X-698500Y876300D01*
X-635000Y698500D02*
X-698500Y762000D01*
X-254000Y635000D02*
X-317500Y698500D01*
X-317500Y698500D02*
X-635000Y698500D01*
X-396250Y323500D02*
X-465750Y254000D01*
X-396250Y381000D02*
X-396250Y323500D01*
X-465750Y254000D02*
X-698500Y254000D01*
X-698500Y387500D02*
X-698500Y254000D01*
X-698500Y254000D02*
X-698500Y127000D01*
X-952500Y387500D02*
X-952500Y127000D01*
X-1019600Y393700D02*
X-952500Y393700D01*
X-1127750Y444500D02*
X-1070400Y444500D01*
X-1070400Y444500D02*
X-1019600Y393700D01*
X-396250Y142250D02*
X-444502Y190502D01*
X-317500Y142250D02*
X-396250Y142250D01*
X-762000Y1216455D02*
X-762000Y1181100D01*
X-762000Y1371600D02*
X-762000Y1216455D01*
X-1098400Y1708000D02*
X-762000Y1371600D01*
X-1336000Y1708000D02*
X-1098400Y1708000D01*
X-962500Y2225200D02*
X-1016000Y2171700D01*
X-962500Y2323000D02*
X-962500Y2225200D01*
X-1397000Y1056845D02*
X-1397000Y1092200D01*
X-1306500Y127000D02*
X-1397000Y217500D01*
X-1206500Y127000D02*
X-1306500Y127000D01*
X-1397000Y217500D02*
X-1397000Y1056845D01*
X-381000Y1031250D02*
X-294650Y1031250D01*
X-190500Y1031250D02*
X-294650Y1031250D01*
X-698500Y-1500D02*
X-601144Y-1500D01*
X-601144Y-1500D02*
X-574059Y25585D01*
X-574059Y25585D02*
X-574059Y60940D01*
X-317500Y-15250D02*
X-416550Y-15250D01*
X-416550Y-15250D02*
X-571500Y139700D01*
X-190500Y873750D02*
X-111750Y873750D01*
X-111750Y873750D02*
X0Y762000D01*
X-632500Y1927900D02*
X-342500Y1637900D01*
X-632500Y2323000D02*
X-632500Y1927900D01*
X-342500Y1637900D02*
X-317500Y1612900D01*
X-1009800Y882500D02*
X-952500Y882500D01*
X-1127750Y825500D02*
X-1066800Y825500D01*
X-1066800Y825500D02*
X-1009800Y882500D01*
X-1410863Y1524000D02*
X-1524000Y1524000D01*
X-1231900Y1524000D02*
X-1410863Y1524000D01*
X-1155700Y1447800D02*
X-1231900Y1524000D01*
X-952500Y1079500D02*
X-990600Y1117600D01*
X-1155700Y1193800D02*
X-1155700Y1447800D01*
X-1079500Y1117600D02*
X-1155700Y1193800D01*
X-990600Y1117600D02*
X-1079500Y1117600D01*
X-952500Y889000D02*
X-952500Y1079500D01*
X-412500Y1936500D02*
X-412500Y2323000D01*
X-190500Y1270000D02*
X-190500Y1714500D01*
X-190500Y1714500D02*
X-412500Y1936500D01*
X-952500Y635000D02*
X-1084000Y635000D01*
X-825500Y1362700D02*
X-825500Y762000D01*
X-1075700Y1612900D02*
X-825500Y1362700D01*
X-1084000Y635000D02*
X-1127750Y635000D01*
X-825500Y762000D02*
X-952500Y635000D01*
X-1409400Y1612900D02*
X-1075700Y1612900D01*
X-1444000Y1647500D02*
X-1409400Y1612900D01*
X-1444000Y1698000D02*
X-1444000Y1647500D01*
X-1524000Y1778000D02*
X-1444000Y1698000D01*
X-852500Y2323000D02*
X-852500Y1957400D01*
X-852500Y1957400D02*
X-418700Y1523600D01*
X-418700Y1523600D02*
X-393700Y1498600D01*
X-1206500Y-3000D02*
X-1355900Y-3000D01*
X-1358900Y0D02*
X-1524000Y0D01*
X-1355900Y-3000D02*
X-1358900Y0D01*
X-825500Y25370D02*
X-825500Y205945D01*
X-852370Y-1500D02*
X-825500Y25370D01*
X-825500Y205945D02*
X-825500Y241300D01*
X-952500Y-1500D02*
X-852370Y-1500D01*
X-1460500Y1206500D02*
X-1308100Y1206500D01*
X-1524000Y1270000D02*
X-1460500Y1206500D01*
X-1308100Y1206500D02*
X-1244200Y1142600D01*
X-1244200Y1142600D02*
X-1219200Y1117600D01*
X-1206500Y257000D02*
X-1121741Y257000D01*
X-1121741Y257000D02*
X-1079499Y214759D01*
X-1079499Y214759D02*
X-1079499Y136955D01*
X-1079499Y136955D02*
X-1079499Y101600D01*
D26*
G36*
X-30992Y2896167D02*
G01*
X-50328Y2888157D01*
X-67730Y2876530D01*
X-82530Y2861730D01*
X-94157Y2844328D01*
X-102167Y2824992D01*
X-106250Y2804465D01*
X-106250Y2783535D01*
X-102167Y2763008D01*
X-94157Y2743672D01*
X-82530Y2726270D01*
X-67730Y2711470D01*
X-50328Y2699843D01*
X-30992Y2691833D01*
X-10465Y2687750D01*
X10465Y2687750D01*
X30992Y2691833D01*
X50328Y2699843D01*
X67730Y2711470D01*
X82530Y2726270D01*
X94157Y2743672D01*
X102167Y2763008D01*
X103250Y2768454D01*
X103250Y2548750D01*
X99303Y2548750D01*
X103217Y2565207D01*
X99826Y2576385D01*
X90810Y2595161D01*
X78303Y2611818D01*
X62788Y2625714D01*
X44859Y2636316D01*
X25207Y2643217D01*
X8750Y2639327D01*
X8750Y2548750D01*
X10750Y2548750D01*
X10750Y2531250D01*
X8750Y2531250D01*
X8750Y2440673D01*
X25207Y2436783D01*
X44859Y2443684D01*
X62788Y2454286D01*
X78303Y2468182D01*
X90810Y2484839D01*
X99826Y2503615D01*
X103217Y2514793D01*
X99303Y2531250D01*
X103250Y2531250D01*
X103250Y2311546D01*
X102167Y2316992D01*
X94157Y2336328D01*
X82530Y2353730D01*
X67730Y2368530D01*
X50328Y2380158D01*
X30992Y2388167D01*
X10465Y2392250D01*
X-10465Y2392250D01*
X-30992Y2388167D01*
X-50328Y2380158D01*
X-67730Y2368530D01*
X-82530Y2353730D01*
X-94157Y2336328D01*
X-101725Y2318059D01*
X-101623Y2378000D01*
X-102130Y2383146D01*
X-103631Y2388094D01*
X-106068Y2392654D01*
X-109349Y2396651D01*
X-113346Y2399932D01*
X-117906Y2402369D01*
X-122854Y2403870D01*
X-128000Y2404377D01*
X-171188Y2404250D01*
X-177750Y2397688D01*
X-177750Y2296750D01*
X-175750Y2296750D01*
X-175750Y2279250D01*
X-177750Y2279250D01*
X-177750Y2178313D01*
X-171188Y2171750D01*
X-128000Y2171623D01*
X-122854Y2172130D01*
X-117906Y2173631D01*
X-113346Y2176068D01*
X-109349Y2179349D01*
X-106068Y2183346D01*
X-103631Y2187906D01*
X-102130Y2192854D01*
X-101623Y2198000D01*
X-101718Y2253925D01*
X-94157Y2235672D01*
X-82530Y2218270D01*
X-67730Y2203470D01*
X-50328Y2191843D01*
X-30992Y2183833D01*
X-10465Y2179750D01*
X10465Y2179750D01*
X30992Y2183833D01*
X50328Y2191843D01*
X67730Y2203470D01*
X82530Y2218270D01*
X94157Y2235672D01*
X102167Y2255008D01*
X103250Y2260454D01*
X103250Y2057546D01*
X102167Y2062992D01*
X94157Y2082328D01*
X82530Y2099730D01*
X67730Y2114530D01*
X50328Y2126158D01*
X30992Y2134167D01*
X10465Y2138250D01*
X-10465Y2138250D01*
X-30992Y2134167D01*
X-50328Y2126158D01*
X-67730Y2114530D01*
X-82530Y2099730D01*
X-94157Y2082328D01*
X-95847Y2078250D01*
X-260071Y2078250D01*
X-265456Y2081848D01*
X-275693Y2086088D01*
X-286560Y2088250D01*
X-297640Y2088250D01*
X-308508Y2086088D01*
X-318744Y2081848D01*
X-327957Y2075692D01*
X-335792Y2067857D01*
X-341948Y2058644D01*
X-346188Y2048407D01*
X-348350Y2037540D01*
X-348350Y2026460D01*
X-346188Y2015592D01*
X-341948Y2005356D01*
X-335792Y1996143D01*
X-327957Y1988308D01*
X-318744Y1982152D01*
X-308508Y1977912D01*
X-297640Y1975750D01*
X-286560Y1975750D01*
X-275693Y1977912D01*
X-265456Y1982152D01*
X-260071Y1985750D01*
X-95847Y1985750D01*
X-94157Y1981672D01*
X-82530Y1964270D01*
X-67730Y1949470D01*
X-50328Y1937842D01*
X-30992Y1929833D01*
X-10465Y1925750D01*
X10465Y1925750D01*
X30992Y1929833D01*
X50328Y1937842D01*
X67730Y1949470D01*
X82530Y1964270D01*
X94157Y1981672D01*
X102167Y2001008D01*
X103250Y2006453D01*
X103250Y1803546D01*
X102167Y1808992D01*
X94157Y1828328D01*
X82530Y1845730D01*
X67730Y1860530D01*
X50328Y1872157D01*
X30992Y1880167D01*
X10465Y1884250D01*
X-10465Y1884250D01*
X-30992Y1880167D01*
X-50328Y1872157D01*
X-67730Y1860530D01*
X-82530Y1845730D01*
X-94157Y1828328D01*
X-102167Y1808992D01*
X-106250Y1788465D01*
X-106250Y1767535D01*
X-102167Y1747008D01*
X-94157Y1727672D01*
X-82530Y1710270D01*
X-67730Y1695470D01*
X-50328Y1683842D01*
X-30992Y1675833D01*
X-10465Y1671750D01*
X10465Y1671750D01*
X30992Y1675833D01*
X50328Y1683842D01*
X67730Y1695470D01*
X82530Y1710270D01*
X94157Y1727672D01*
X102167Y1747008D01*
X103250Y1752453D01*
X103250Y1549547D01*
X102167Y1554992D01*
X94157Y1574328D01*
X82530Y1591730D01*
X67730Y1606530D01*
X50328Y1618157D01*
X30992Y1626167D01*
X10465Y1630250D01*
X-10465Y1630250D01*
X-30992Y1626167D01*
X-50328Y1618157D01*
X-67730Y1606530D01*
X-82530Y1591730D01*
X-94157Y1574328D01*
X-102167Y1554992D01*
X-106250Y1534465D01*
X-106250Y1513535D01*
X-102167Y1493008D01*
X-94157Y1473672D01*
X-82530Y1456270D01*
X-67730Y1441470D01*
X-50328Y1429842D01*
X-30992Y1421833D01*
X-10465Y1417750D01*
X10465Y1417750D01*
X30992Y1421833D01*
X50328Y1429842D01*
X67730Y1441470D01*
X82530Y1456270D01*
X94157Y1473672D01*
X102167Y1493008D01*
X103250Y1498453D01*
X103250Y1295547D01*
X102167Y1300992D01*
X94157Y1320328D01*
X82530Y1337730D01*
X67730Y1352530D01*
X50328Y1364158D01*
X30992Y1372167D01*
X10465Y1376250D01*
X-10465Y1376250D01*
X-30992Y1372167D01*
X-50328Y1364158D01*
X-67730Y1352530D01*
X-82530Y1337730D01*
X-94157Y1320328D01*
X-102167Y1300992D01*
X-106250Y1280465D01*
X-106250Y1259535D01*
X-102167Y1239008D01*
X-94157Y1219672D01*
X-82530Y1202270D01*
X-67730Y1187470D01*
X-50328Y1175843D01*
X-30992Y1167833D01*
X-10465Y1163750D01*
X10465Y1163750D01*
X30992Y1167833D01*
X50328Y1175843D01*
X67730Y1187470D01*
X82530Y1202270D01*
X94157Y1219672D01*
X102167Y1239008D01*
X103250Y1244453D01*
X103250Y1041547D01*
X102167Y1046992D01*
X94157Y1066328D01*
X82530Y1083730D01*
X67730Y1098530D01*
X50328Y1110158D01*
X30992Y1118167D01*
X10465Y1122250D01*
X-10465Y1122250D01*
X-30992Y1118167D01*
X-50328Y1110158D01*
X-67730Y1098530D01*
X-82530Y1083730D01*
X-94157Y1066328D01*
X-102167Y1046992D01*
X-106250Y1026465D01*
X-106250Y1005535D01*
X-102167Y985008D01*
X-94157Y965672D01*
X-82530Y948270D01*
X-67730Y933470D01*
X-50328Y921842D01*
X-30992Y913833D01*
X-10465Y909750D01*
X10465Y909750D01*
X30992Y913833D01*
X50328Y921842D01*
X67730Y933470D01*
X82530Y948270D01*
X94157Y965672D01*
X102167Y985008D01*
X103250Y990453D01*
X103250Y787547D01*
X102167Y792992D01*
X94157Y812328D01*
X82530Y829730D01*
X67730Y844530D01*
X50328Y856157D01*
X30992Y864167D01*
X10465Y868250D01*
X-10465Y868250D01*
X-30992Y864167D01*
X-42570Y859371D01*
X-83004Y899804D01*
X-84217Y901283D01*
X-90117Y906125D01*
X-96849Y909723D01*
X-104154Y911939D01*
X-109847Y912500D01*
X-111750Y912687D01*
X-113653Y912500D01*
X-119814Y912500D01*
X-120296Y914090D01*
X-124755Y922432D01*
X-130756Y929744D01*
X-138068Y935745D01*
X-146410Y940204D01*
X-155462Y942950D01*
X-164875Y943877D01*
X-216125Y943877D01*
X-225538Y942950D01*
X-234590Y940204D01*
X-242932Y935745D01*
X-250244Y929744D01*
X-256245Y922432D01*
X-260704Y914090D01*
X-263450Y905038D01*
X-264377Y895625D01*
X-264377Y851875D01*
X-263450Y842461D01*
X-260704Y833410D01*
X-256245Y825068D01*
X-250244Y817756D01*
X-242932Y811755D01*
X-234590Y807296D01*
X-225538Y804550D01*
X-216125Y803623D01*
X-164875Y803623D01*
X-155462Y804550D01*
X-146410Y807296D01*
X-138068Y811755D01*
X-130756Y817756D01*
X-124755Y825068D01*
X-122356Y829555D01*
X-97371Y804570D01*
X-102167Y792992D01*
X-106250Y772465D01*
X-106250Y751535D01*
X-102167Y731008D01*
X-94157Y711672D01*
X-82530Y694270D01*
X-67730Y679470D01*
X-50328Y667843D01*
X-30992Y659833D01*
X-10465Y655750D01*
X10465Y655750D01*
X30992Y659833D01*
X50328Y667843D01*
X67730Y679470D01*
X82530Y694270D01*
X94157Y711672D01*
X102167Y731008D01*
X103250Y736453D01*
X103250Y533547D01*
X102167Y538992D01*
X94157Y558328D01*
X82530Y575730D01*
X67730Y590530D01*
X50328Y602158D01*
X30992Y610167D01*
X10465Y614250D01*
X-10465Y614250D01*
X-30992Y610167D01*
X-50328Y602158D01*
X-67730Y590530D01*
X-82530Y575730D01*
X-94157Y558328D01*
X-102167Y538992D01*
X-106250Y518465D01*
X-106250Y497535D01*
X-102167Y477008D01*
X-94157Y457672D01*
X-82530Y440270D01*
X-67730Y425470D01*
X-50328Y413842D01*
X-30992Y405833D01*
X-10465Y401750D01*
X10465Y401750D01*
X30992Y405833D01*
X50328Y413842D01*
X67730Y425470D01*
X82530Y440270D01*
X94157Y457672D01*
X102167Y477008D01*
X103250Y482453D01*
X103250Y279547D01*
X102167Y284992D01*
X94157Y304328D01*
X82530Y321730D01*
X67730Y336530D01*
X50328Y348158D01*
X30992Y356167D01*
X10465Y360250D01*
X-10465Y360250D01*
X-30992Y356167D01*
X-50328Y348158D01*
X-67730Y336530D01*
X-82530Y321730D01*
X-94157Y304328D01*
X-102167Y284992D01*
X-106250Y264465D01*
X-106250Y243535D01*
X-102167Y223008D01*
X-94157Y203672D01*
X-82530Y186270D01*
X-67730Y171470D01*
X-50328Y159843D01*
X-30992Y151833D01*
X-10465Y147750D01*
X10465Y147750D01*
X30992Y151833D01*
X50328Y159843D01*
X67730Y171470D01*
X82530Y186270D01*
X94157Y203672D01*
X102167Y223008D01*
X103250Y228453D01*
X103250Y25547D01*
X102167Y30992D01*
X94157Y50328D01*
X82530Y67730D01*
X67730Y82530D01*
X50328Y94157D01*
X30992Y102167D01*
X10465Y106250D01*
X-10465Y106250D01*
X-30992Y102167D01*
X-50328Y94157D01*
X-67730Y82530D01*
X-82530Y67730D01*
X-94157Y50328D01*
X-102167Y30992D01*
X-106250Y10465D01*
X-106250Y-10465D01*
X-102167Y-30992D01*
X-94157Y-50328D01*
X-82530Y-67730D01*
X-67730Y-82530D01*
X-50328Y-94157D01*
X-30992Y-102167D01*
X-25547Y-103250D01*
X-1498453Y-103250D01*
X-1493008Y-102167D01*
X-1473672Y-94157D01*
X-1456270Y-82530D01*
X-1441470Y-67730D01*
X-1429842Y-50328D01*
X-1425047Y-38750D01*
X-1371219Y-38750D01*
X-1370801Y-38974D01*
X-1363496Y-41189D01*
X-1357803Y-41750D01*
X-1357802Y-41750D01*
X-1355900Y-41937D01*
X-1353998Y-41750D01*
X-1297176Y-41750D01*
X-1292082Y-49374D01*
X-1288802Y-53371D01*
X-1281871Y-60302D01*
X-1277874Y-63582D01*
X-1269724Y-69028D01*
X-1265164Y-71465D01*
X-1256108Y-75216D01*
X-1251160Y-76717D01*
X-1241547Y-78629D01*
X-1236401Y-79136D01*
X-1233945Y-79136D01*
X-1231500Y-79377D01*
X-1181500Y-79377D01*
X-1179055Y-79136D01*
X-1176599Y-79136D01*
X-1171453Y-78629D01*
X-1161840Y-76717D01*
X-1156892Y-75216D01*
X-1147836Y-71465D01*
X-1143276Y-69028D01*
X-1135126Y-63582D01*
X-1131129Y-60302D01*
X-1124198Y-53371D01*
X-1120918Y-49374D01*
X-1115472Y-41224D01*
X-1113035Y-36664D01*
X-1109284Y-27608D01*
X-1107783Y-22660D01*
X-1105871Y-13047D01*
X-1105364Y-7901D01*
X-1105364Y-5445D01*
X-1105123Y-3000D01*
X-1105123Y52000D01*
X-1105630Y57146D01*
X-1105735Y57492D01*
X-1103775Y56183D01*
X-1094449Y52319D01*
X-1084547Y50350D01*
X-1074452Y50350D01*
X-1064550Y52319D01*
X-1055223Y56183D01*
X-1051934Y58381D01*
X-1053370Y53646D01*
X-1053877Y48500D01*
X-1053877Y-1500D01*
X-1053636Y-3945D01*
X-1053636Y-6401D01*
X-1053129Y-11547D01*
X-1051217Y-21160D01*
X-1049716Y-26108D01*
X-1045965Y-35164D01*
X-1043528Y-39724D01*
X-1038082Y-47874D01*
X-1034802Y-51871D01*
X-1027871Y-58802D01*
X-1023874Y-62082D01*
X-1015724Y-67528D01*
X-1011164Y-69965D01*
X-1002108Y-73716D01*
X-997160Y-75217D01*
X-987547Y-77129D01*
X-982401Y-77636D01*
X-979945Y-77636D01*
X-977500Y-77877D01*
X-927500Y-77877D01*
X-925055Y-77636D01*
X-922599Y-77636D01*
X-917453Y-77129D01*
X-907840Y-75217D01*
X-902892Y-73716D01*
X-893836Y-69965D01*
X-889276Y-67528D01*
X-881126Y-62082D01*
X-877129Y-58802D01*
X-870198Y-51871D01*
X-866918Y-47874D01*
X-861824Y-40250D01*
X-854273Y-40250D01*
X-852370Y-40437D01*
X-850468Y-40250D01*
X-844774Y-39689D01*
X-837470Y-37474D01*
X-830738Y-33875D01*
X-824837Y-29033D01*
X-823624Y-27554D01*
X-799670Y-3600D01*
X-799636Y-3945D01*
X-799636Y-6401D01*
X-799129Y-11547D01*
X-797217Y-21160D01*
X-795716Y-26108D01*
X-791965Y-35164D01*
X-789528Y-39724D01*
X-784082Y-47874D01*
X-780802Y-51871D01*
X-773871Y-58802D01*
X-769874Y-62082D01*
X-761724Y-67528D01*
X-757164Y-69965D01*
X-748108Y-73716D01*
X-743160Y-75217D01*
X-733547Y-77129D01*
X-728401Y-77636D01*
X-725945Y-77636D01*
X-723500Y-77877D01*
X-673500Y-77877D01*
X-671055Y-77636D01*
X-668599Y-77636D01*
X-663453Y-77129D01*
X-653840Y-75217D01*
X-648892Y-73716D01*
X-639836Y-69965D01*
X-635276Y-67528D01*
X-627126Y-62082D01*
X-623129Y-58802D01*
X-616198Y-51871D01*
X-612918Y-47874D01*
X-607824Y-40250D01*
X-603047Y-40250D01*
X-601144Y-40437D01*
X-599242Y-40250D01*
X-593548Y-39689D01*
X-586244Y-37474D01*
X-579512Y-33875D01*
X-573611Y-29033D01*
X-572398Y-27554D01*
X-548004Y-3161D01*
X-546526Y-1948D01*
X-541684Y3953D01*
X-538086Y10684D01*
X-535870Y17989D01*
X-535845Y18245D01*
X-535659Y20133D01*
X-535309Y23682D01*
X-535309Y23683D01*
X-535122Y25585D01*
X-535285Y27237D01*
X-534251Y28270D01*
X-528642Y36664D01*
X-527067Y40466D01*
X-445296Y-41305D01*
X-444083Y-42783D01*
X-438182Y-47625D01*
X-431451Y-51223D01*
X-426808Y-52632D01*
X-424146Y-53439D01*
X-416550Y-54187D01*
X-414647Y-54000D01*
X-388186Y-54000D01*
X-387704Y-55590D01*
X-383245Y-63932D01*
X-377244Y-71244D01*
X-369932Y-77245D01*
X-361590Y-81704D01*
X-352538Y-84450D01*
X-343125Y-85377D01*
X-291875Y-85377D01*
X-282462Y-84450D01*
X-273410Y-81704D01*
X-265068Y-77245D01*
X-257756Y-71244D01*
X-251755Y-63932D01*
X-247296Y-55590D01*
X-244550Y-46538D01*
X-243623Y-37125D01*
X-243623Y6625D01*
X-244550Y16038D01*
X-247296Y25090D01*
X-251755Y33432D01*
X-257756Y40744D01*
X-265068Y46745D01*
X-273410Y51204D01*
X-282462Y53950D01*
X-291875Y54877D01*
X-343125Y54877D01*
X-352538Y53950D01*
X-361590Y51204D01*
X-369932Y46745D01*
X-377244Y40744D01*
X-383245Y33432D01*
X-387704Y25090D01*
X-388186Y23500D01*
X-400499Y23500D01*
X-520250Y143251D01*
X-520250Y144748D01*
X-522219Y154649D01*
X-526083Y163976D01*
X-531692Y172370D01*
X-538830Y179508D01*
X-547224Y185117D01*
X-556551Y188980D01*
X-566452Y190950D01*
X-576548Y190950D01*
X-586449Y188980D01*
X-595776Y185117D01*
X-604170Y179508D01*
X-611270Y172408D01*
X-612918Y174874D01*
X-616198Y178871D01*
X-623129Y185802D01*
X-627126Y189082D01*
X-635276Y194528D01*
X-639836Y196965D01*
X-648892Y200716D01*
X-653840Y202217D01*
X-659750Y203393D01*
X-659750Y215250D01*
X-489604Y215250D01*
X-489919Y214778D01*
X-493782Y205451D01*
X-495752Y195550D01*
X-495752Y185454D01*
X-493782Y175553D01*
X-489919Y166226D01*
X-484310Y157832D01*
X-477172Y150694D01*
X-468778Y145085D01*
X-459451Y141222D01*
X-449550Y139252D01*
X-448053Y139252D01*
X-424996Y116195D01*
X-423783Y114717D01*
X-417882Y109875D01*
X-411151Y106276D01*
X-406062Y104733D01*
X-403846Y104061D01*
X-403069Y103984D01*
X-398153Y103500D01*
X-398152Y103500D01*
X-396250Y103313D01*
X-394348Y103500D01*
X-388186Y103500D01*
X-387704Y101910D01*
X-383245Y93568D01*
X-377244Y86256D01*
X-369932Y80255D01*
X-361590Y75796D01*
X-352538Y73050D01*
X-343125Y72123D01*
X-291875Y72123D01*
X-282462Y73050D01*
X-273410Y75796D01*
X-265068Y80255D01*
X-257756Y86256D01*
X-251755Y93568D01*
X-247296Y101910D01*
X-244550Y110961D01*
X-243623Y120375D01*
X-243623Y164125D01*
X-244550Y173539D01*
X-247296Y182590D01*
X-251755Y190932D01*
X-257756Y198244D01*
X-265068Y204245D01*
X-273410Y208704D01*
X-282462Y211450D01*
X-291875Y212377D01*
X-343125Y212377D01*
X-352538Y211450D01*
X-361590Y208704D01*
X-369932Y204245D01*
X-377244Y198244D01*
X-383245Y190932D01*
X-385644Y186445D01*
X-393252Y194053D01*
X-393252Y195550D01*
X-395221Y205451D01*
X-399085Y214778D01*
X-404693Y223172D01*
X-411832Y230310D01*
X-420226Y235919D01*
X-426451Y238498D01*
X-370195Y294754D01*
X-368717Y295967D01*
X-363875Y301868D01*
X-360276Y308599D01*
X-359985Y309560D01*
X-355910Y310796D01*
X-347568Y315255D01*
X-340256Y321256D01*
X-334255Y328568D01*
X-329796Y336910D01*
X-327050Y345962D01*
X-326123Y355375D01*
X-326123Y402966D01*
X-308877Y385720D01*
X-308877Y355375D01*
X-307950Y345962D01*
X-305204Y336910D01*
X-300745Y328568D01*
X-294744Y321256D01*
X-287432Y315255D01*
X-279090Y310796D01*
X-270039Y308050D01*
X-260625Y307123D01*
X-216875Y307123D01*
X-207461Y308050D01*
X-198410Y310796D01*
X-190068Y315255D01*
X-182756Y321256D01*
X-176755Y328568D01*
X-172296Y336910D01*
X-169550Y345962D01*
X-168623Y355375D01*
X-168623Y406625D01*
X-169550Y416038D01*
X-172296Y425090D01*
X-176755Y433432D01*
X-182756Y440744D01*
X-190068Y446745D01*
X-198410Y451204D01*
X-207461Y453950D01*
X-216875Y454877D01*
X-247220Y454877D01*
X-318803Y526461D01*
X-313802Y523119D01*
X-290826Y513602D01*
X-266435Y508750D01*
X-241565Y508750D01*
X-217174Y513602D01*
X-194198Y523119D01*
X-173520Y536935D01*
X-155935Y554520D01*
X-142119Y575198D01*
X-132602Y598174D01*
X-127750Y622566D01*
X-127750Y647435D01*
X-132602Y671826D01*
X-142119Y694802D01*
X-155935Y715480D01*
X-173520Y733065D01*
X-194198Y746881D01*
X-217174Y756398D01*
X-241565Y761250D01*
X-266435Y761250D01*
X-290826Y756398D01*
X-313802Y746881D01*
X-328216Y737250D01*
X-618949Y737250D01*
X-653430Y771731D01*
X-649096Y777012D01*
X-645273Y784166D01*
X-645020Y785000D01*
X-627877Y785000D01*
X-627370Y779854D01*
X-625869Y774906D01*
X-623432Y770346D01*
X-620151Y766349D01*
X-616154Y763068D01*
X-611594Y760631D01*
X-606646Y759130D01*
X-601500Y758623D01*
X-586813Y758750D01*
X-580250Y765312D01*
X-580250Y873750D01*
X-562750Y873750D01*
X-562750Y765312D01*
X-556188Y758750D01*
X-541500Y758623D01*
X-536354Y759130D01*
X-531406Y760631D01*
X-526846Y763068D01*
X-522849Y766349D01*
X-519568Y770346D01*
X-517131Y774906D01*
X-515630Y779854D01*
X-515123Y785000D01*
X-515192Y830000D01*
X-454877Y830000D01*
X-454370Y824854D01*
X-452869Y819906D01*
X-450432Y815346D01*
X-447151Y811349D01*
X-443154Y808068D01*
X-438594Y805631D01*
X-433646Y804130D01*
X-428500Y803623D01*
X-396312Y803750D01*
X-389750Y810312D01*
X-389750Y865000D01*
X-372250Y865000D01*
X-372250Y810312D01*
X-365687Y803750D01*
X-333500Y803623D01*
X-328354Y804130D01*
X-323406Y805631D01*
X-318846Y808068D01*
X-314849Y811349D01*
X-311568Y815346D01*
X-309131Y819906D01*
X-307630Y824854D01*
X-307123Y830000D01*
X-307250Y858437D01*
X-313813Y865000D01*
X-372250Y865000D01*
X-389750Y865000D01*
X-448187Y865000D01*
X-454750Y858437D01*
X-454877Y830000D01*
X-515192Y830000D01*
X-515250Y867187D01*
X-521812Y873750D01*
X-562750Y873750D01*
X-580250Y873750D01*
X-621188Y873750D01*
X-627750Y867187D01*
X-627877Y785000D01*
X-645020Y785000D01*
X-642918Y791928D01*
X-642123Y800000D01*
X-642123Y965000D01*
X-642918Y973072D01*
X-645020Y980000D01*
X-627877Y980000D01*
X-627750Y897812D01*
X-621188Y891250D01*
X-580250Y891250D01*
X-580250Y999687D01*
X-562750Y999687D01*
X-562750Y891250D01*
X-521812Y891250D01*
X-515250Y897812D01*
X-515220Y917500D01*
X-454877Y917500D01*
X-454750Y889062D01*
X-448187Y882500D01*
X-389750Y882500D01*
X-389750Y937187D01*
X-372250Y937187D01*
X-372250Y882500D01*
X-313813Y882500D01*
X-307250Y889062D01*
X-307123Y917500D01*
X-307630Y922646D01*
X-309131Y927594D01*
X-311568Y932154D01*
X-314849Y936151D01*
X-318846Y939432D01*
X-323406Y941869D01*
X-328354Y943370D01*
X-333500Y943877D01*
X-365687Y943750D01*
X-372250Y937187D01*
X-389750Y937187D01*
X-396312Y943750D01*
X-428500Y943877D01*
X-433646Y943370D01*
X-438594Y941869D01*
X-443154Y939432D01*
X-447151Y936151D01*
X-450432Y932154D01*
X-452869Y927594D01*
X-454370Y922646D01*
X-454877Y917500D01*
X-515220Y917500D01*
X-515123Y980000D01*
X-515630Y985146D01*
X-517131Y990094D01*
X-519568Y994654D01*
X-522849Y998651D01*
X-526846Y1001932D01*
X-531406Y1004369D01*
X-536354Y1005870D01*
X-541500Y1006377D01*
X-556188Y1006250D01*
X-562750Y999687D01*
X-580250Y999687D01*
X-586813Y1006250D01*
X-601500Y1006377D01*
X-606646Y1005870D01*
X-611594Y1004369D01*
X-616154Y1001932D01*
X-620151Y998651D01*
X-623432Y994654D01*
X-625869Y990094D01*
X-627370Y985146D01*
X-627877Y980000D01*
X-645020Y980000D01*
X-645273Y980834D01*
X-649096Y987988D01*
X-654242Y994258D01*
X-660512Y999404D01*
X-667666Y1003227D01*
X-675428Y1005582D01*
X-683500Y1006377D01*
X-713500Y1006377D01*
X-721572Y1005582D01*
X-729334Y1003227D01*
X-736488Y999404D01*
X-742758Y994258D01*
X-747904Y987988D01*
X-751727Y980834D01*
X-754082Y973072D01*
X-754877Y965000D01*
X-754877Y800000D01*
X-754082Y791928D01*
X-751727Y784166D01*
X-747904Y777012D01*
X-742758Y770742D01*
X-737250Y766222D01*
X-737250Y763903D01*
X-737437Y762000D01*
X-736689Y754404D01*
X-736127Y752550D01*
X-734473Y747099D01*
X-730875Y740368D01*
X-726033Y734467D01*
X-724554Y733254D01*
X-672551Y681250D01*
X-734329Y681250D01*
X-736600Y681474D01*
X-738871Y681250D01*
X-745667Y680581D01*
X-754385Y677936D01*
X-762419Y673642D01*
X-769462Y667862D01*
X-770910Y666097D01*
X-843258Y593749D01*
X-1060435Y593749D01*
X-1059676Y596250D01*
X-954403Y596250D01*
X-952500Y596063D01*
X-950597Y596250D01*
X-944904Y596811D01*
X-937599Y599027D01*
X-930867Y602625D01*
X-924967Y607467D01*
X-923754Y608946D01*
X-799445Y733254D01*
X-797967Y734467D01*
X-793125Y740367D01*
X-789526Y747099D01*
X-787311Y754404D01*
X-786750Y760097D01*
X-786750Y760098D01*
X-786563Y762000D01*
X-786750Y763902D01*
X-786750Y766222D01*
X-781242Y770742D01*
X-776096Y777012D01*
X-772273Y784166D01*
X-769918Y791928D01*
X-769123Y800000D01*
X-769123Y965000D01*
X-769918Y973072D01*
X-772273Y980834D01*
X-776096Y987988D01*
X-781242Y994258D01*
X-786750Y998778D01*
X-786750Y1053125D01*
X-454877Y1053125D01*
X-454877Y1009375D01*
X-453950Y999961D01*
X-451204Y990910D01*
X-446745Y982568D01*
X-440744Y975256D01*
X-433432Y969255D01*
X-425090Y964796D01*
X-416038Y962050D01*
X-406625Y961123D01*
X-355375Y961123D01*
X-345962Y962050D01*
X-336910Y964796D01*
X-328568Y969255D01*
X-321256Y975256D01*
X-315255Y982568D01*
X-310796Y990910D01*
X-310314Y992500D01*
X-261186Y992500D01*
X-260704Y990910D01*
X-256245Y982568D01*
X-250244Y975256D01*
X-242932Y969255D01*
X-234590Y964796D01*
X-225538Y962050D01*
X-216125Y961123D01*
X-164875Y961123D01*
X-155462Y962050D01*
X-146410Y964796D01*
X-138068Y969255D01*
X-130756Y975256D01*
X-124755Y982568D01*
X-120296Y990910D01*
X-117550Y999961D01*
X-116623Y1009375D01*
X-116623Y1053125D01*
X-117550Y1062539D01*
X-120296Y1071590D01*
X-124755Y1079932D01*
X-130756Y1087244D01*
X-138068Y1093245D01*
X-146410Y1097704D01*
X-155462Y1100450D01*
X-164875Y1101377D01*
X-216125Y1101377D01*
X-225538Y1100450D01*
X-234590Y1097704D01*
X-242932Y1093245D01*
X-250244Y1087244D01*
X-256245Y1079932D01*
X-260704Y1071590D01*
X-261186Y1070000D01*
X-310314Y1070000D01*
X-310796Y1071590D01*
X-315255Y1079932D01*
X-321256Y1087244D01*
X-328568Y1093245D01*
X-336910Y1097704D01*
X-345962Y1100450D01*
X-355375Y1101377D01*
X-406625Y1101377D01*
X-416038Y1100450D01*
X-425090Y1097704D01*
X-433432Y1093245D01*
X-440744Y1087244D01*
X-446745Y1079932D01*
X-451204Y1071590D01*
X-453950Y1062539D01*
X-454877Y1053125D01*
X-786750Y1053125D01*
X-786750Y1136000D01*
X-786276Y1135683D01*
X-776949Y1131820D01*
X-767048Y1129850D01*
X-756952Y1129850D01*
X-747051Y1131820D01*
X-737724Y1135683D01*
X-729330Y1141292D01*
X-722191Y1148430D01*
X-716583Y1156824D01*
X-712719Y1166151D01*
X-711357Y1173000D01*
X-510377Y1173000D01*
X-509870Y1167854D01*
X-508369Y1162906D01*
X-505932Y1158346D01*
X-502651Y1154349D01*
X-498654Y1151068D01*
X-494094Y1148631D01*
X-489146Y1147130D01*
X-484000Y1146623D01*
X-404312Y1146750D01*
X-397750Y1153313D01*
X-397750Y1231750D01*
X-380250Y1231750D01*
X-380250Y1153313D01*
X-373687Y1146750D01*
X-294000Y1146623D01*
X-288854Y1147130D01*
X-283906Y1148631D01*
X-279346Y1151068D01*
X-275349Y1154349D01*
X-272068Y1158346D01*
X-269631Y1162906D01*
X-268130Y1167854D01*
X-267623Y1173000D01*
X-267750Y1225188D01*
X-274313Y1231750D01*
X-380250Y1231750D01*
X-397750Y1231750D01*
X-503687Y1231750D01*
X-510250Y1225188D01*
X-510377Y1173000D01*
X-711357Y1173000D01*
X-710750Y1176052D01*
X-710750Y1186148D01*
X-712719Y1196049D01*
X-716583Y1205376D01*
X-722191Y1213770D01*
X-723250Y1214829D01*
X-723250Y1308000D01*
X-510377Y1308000D01*
X-510250Y1255813D01*
X-503687Y1249250D01*
X-397750Y1249250D01*
X-397750Y1327688D01*
X-380250Y1327688D01*
X-380250Y1249250D01*
X-274313Y1249250D01*
X-267750Y1255813D01*
X-267623Y1308000D01*
X-268130Y1313146D01*
X-269631Y1318094D01*
X-272068Y1322654D01*
X-275349Y1326651D01*
X-279346Y1329932D01*
X-283906Y1332369D01*
X-288854Y1333870D01*
X-294000Y1334377D01*
X-373687Y1334250D01*
X-380250Y1327688D01*
X-397750Y1327688D01*
X-404312Y1334250D01*
X-484000Y1334377D01*
X-489146Y1333870D01*
X-494094Y1332369D01*
X-498654Y1329932D01*
X-502651Y1326651D01*
X-505932Y1322654D01*
X-508369Y1318094D01*
X-509870Y1313146D01*
X-510377Y1308000D01*
X-723250Y1308000D01*
X-723250Y1369698D01*
X-723063Y1371600D01*
X-723250Y1373502D01*
X-723250Y1373503D01*
X-723811Y1379196D01*
X-726026Y1386501D01*
X-729625Y1393233D01*
X-734467Y1399133D01*
X-735945Y1400346D01*
X-1069654Y1734054D01*
X-1070867Y1735533D01*
X-1076768Y1740375D01*
X-1083499Y1743973D01*
X-1090804Y1746189D01*
X-1096497Y1746750D01*
X-1098400Y1746937D01*
X-1100303Y1746750D01*
X-1249623Y1746750D01*
X-1249623Y1758000D01*
X-1250130Y1763146D01*
X-1251631Y1768094D01*
X-1254068Y1772654D01*
X-1257349Y1776651D01*
X-1261346Y1779932D01*
X-1265906Y1782369D01*
X-1270854Y1783870D01*
X-1276000Y1784377D01*
X-1396000Y1784377D01*
X-1401146Y1783870D01*
X-1406094Y1782369D01*
X-1410654Y1779932D01*
X-1414651Y1776651D01*
X-1417750Y1772876D01*
X-1417750Y1788465D01*
X-1421833Y1808992D01*
X-1429842Y1828328D01*
X-1441470Y1845730D01*
X-1456270Y1860530D01*
X-1473672Y1872157D01*
X-1493008Y1880167D01*
X-1513535Y1884250D01*
X-1534465Y1884250D01*
X-1554992Y1880167D01*
X-1574328Y1872157D01*
X-1591730Y1860530D01*
X-1606530Y1845730D01*
X-1618157Y1828328D01*
X-1626167Y1808992D01*
X-1627250Y1803547D01*
X-1627250Y2023250D01*
X-1623303Y2023250D01*
X-1627217Y2006793D01*
X-1623826Y1995615D01*
X-1614810Y1976839D01*
X-1602303Y1960182D01*
X-1586788Y1946286D01*
X-1568859Y1935684D01*
X-1549207Y1928783D01*
X-1532750Y1932673D01*
X-1532750Y2023250D01*
X-1515250Y2023250D01*
X-1515250Y1932673D01*
X-1498793Y1928783D01*
X-1479141Y1935684D01*
X-1461212Y1946286D01*
X-1445697Y1960182D01*
X-1433190Y1976839D01*
X-1424174Y1995615D01*
X-1420783Y2006793D01*
X-1424697Y2023250D01*
X-1515250Y2023250D01*
X-1532750Y2023250D01*
X-1534750Y2023250D01*
X-1534750Y2040750D01*
X-1532750Y2040750D01*
X-1532750Y2131327D01*
X-1515250Y2131327D01*
X-1515250Y2040750D01*
X-1424697Y2040750D01*
X-1420783Y2057207D01*
X-1424174Y2068385D01*
X-1433190Y2087161D01*
X-1445697Y2103818D01*
X-1461212Y2117714D01*
X-1479141Y2128316D01*
X-1498793Y2135217D01*
X-1515250Y2131327D01*
X-1532750Y2131327D01*
X-1549207Y2135217D01*
X-1568859Y2128316D01*
X-1586788Y2117714D01*
X-1602303Y2103818D01*
X-1614810Y2087161D01*
X-1623826Y2068385D01*
X-1627217Y2057207D01*
X-1623303Y2040750D01*
X-1627250Y2040750D01*
X-1627250Y2260453D01*
X-1626167Y2255008D01*
X-1618157Y2235672D01*
X-1606530Y2218270D01*
X-1591730Y2203470D01*
X-1574328Y2191843D01*
X-1554992Y2183833D01*
X-1534465Y2179750D01*
X-1513535Y2179750D01*
X-1493008Y2183833D01*
X-1473672Y2191843D01*
X-1456270Y2203470D01*
X-1441470Y2218270D01*
X-1429842Y2235672D01*
X-1422351Y2253758D01*
X-1422377Y2243000D01*
X-1421870Y2237854D01*
X-1420369Y2232906D01*
X-1417932Y2228346D01*
X-1414651Y2224349D01*
X-1410654Y2221068D01*
X-1406094Y2218631D01*
X-1401146Y2217130D01*
X-1396000Y2216623D01*
X-1333813Y2216750D01*
X-1327250Y2223313D01*
X-1327250Y2301750D01*
X-1309750Y2301750D01*
X-1309750Y2223313D01*
X-1303188Y2216750D01*
X-1241000Y2216623D01*
X-1235854Y2217130D01*
X-1230906Y2218631D01*
X-1226346Y2221068D01*
X-1222349Y2224349D01*
X-1219068Y2228346D01*
X-1216631Y2232906D01*
X-1215130Y2237854D01*
X-1214623Y2243000D01*
X-1214750Y2295188D01*
X-1221313Y2301750D01*
X-1309750Y2301750D01*
X-1327250Y2301750D01*
X-1329250Y2301750D01*
X-1329250Y2319250D01*
X-1327250Y2319250D01*
X-1327250Y2397688D01*
X-1309750Y2397688D01*
X-1309750Y2319250D01*
X-1221313Y2319250D01*
X-1214750Y2325813D01*
X-1214623Y2378000D01*
X-1141377Y2378000D01*
X-1141377Y2268000D01*
X-1140870Y2262854D01*
X-1139369Y2257906D01*
X-1136932Y2253346D01*
X-1133651Y2249349D01*
X-1129654Y2246068D01*
X-1125094Y2243631D01*
X-1120146Y2242130D01*
X-1115000Y2241623D01*
X-1030000Y2241623D01*
X-1024854Y2242130D01*
X-1019906Y2243631D01*
X-1017500Y2244917D01*
X-1015094Y2243631D01*
X-1010146Y2242130D01*
X-1005000Y2241623D01*
X-1001250Y2241623D01*
X-1001250Y2241251D01*
X-1019551Y2222950D01*
X-1021048Y2222950D01*
X-1030949Y2220981D01*
X-1040276Y2217117D01*
X-1048670Y2211509D01*
X-1055809Y2204370D01*
X-1061417Y2195976D01*
X-1065281Y2186649D01*
X-1067250Y2176748D01*
X-1067250Y2166652D01*
X-1065281Y2156751D01*
X-1061417Y2147424D01*
X-1055809Y2139030D01*
X-1048670Y2131892D01*
X-1040276Y2126283D01*
X-1030949Y2122420D01*
X-1021048Y2120450D01*
X-1010952Y2120450D01*
X-1001051Y2122420D01*
X-991724Y2126283D01*
X-983330Y2131892D01*
X-976191Y2139030D01*
X-970583Y2147424D01*
X-966719Y2156751D01*
X-964750Y2166652D01*
X-964750Y2168149D01*
X-936445Y2196454D01*
X-934967Y2197667D01*
X-930125Y2203568D01*
X-926526Y2210299D01*
X-924608Y2216623D01*
X-924311Y2217604D01*
X-923970Y2221068D01*
X-923750Y2223297D01*
X-923750Y2223298D01*
X-923563Y2225200D01*
X-923750Y2227102D01*
X-923750Y2241623D01*
X-920000Y2241623D01*
X-914854Y2242130D01*
X-909906Y2243631D01*
X-907500Y2244917D01*
X-905094Y2243631D01*
X-900146Y2242130D01*
X-895000Y2241623D01*
X-891250Y2241623D01*
X-891250Y1959304D01*
X-891437Y1957400D01*
X-890689Y1949804D01*
X-888565Y1942801D01*
X-888473Y1942499D01*
X-884875Y1935767D01*
X-880033Y1929867D01*
X-878555Y1928654D01*
X-444950Y1495049D01*
X-444950Y1493552D01*
X-442980Y1483651D01*
X-439117Y1474324D01*
X-433508Y1465930D01*
X-426370Y1458791D01*
X-417976Y1453183D01*
X-408649Y1449319D01*
X-398748Y1447350D01*
X-388652Y1447350D01*
X-378751Y1449319D01*
X-369424Y1453183D01*
X-361030Y1458791D01*
X-353891Y1465930D01*
X-348283Y1474324D01*
X-344420Y1483651D01*
X-342450Y1493552D01*
X-342450Y1503648D01*
X-344420Y1513549D01*
X-348283Y1522876D01*
X-353891Y1531270D01*
X-361030Y1538408D01*
X-369424Y1544017D01*
X-378751Y1547880D01*
X-388652Y1549850D01*
X-390149Y1549850D01*
X-813750Y1973451D01*
X-813750Y2241623D01*
X-810000Y2241623D01*
X-804854Y2242130D01*
X-799906Y2243631D01*
X-797500Y2244917D01*
X-795094Y2243631D01*
X-790146Y2242130D01*
X-788750Y2241992D01*
X-788750Y2141772D01*
X-788974Y2139500D01*
X-788081Y2130434D01*
X-785650Y2122420D01*
X-785436Y2121715D01*
X-781141Y2113681D01*
X-775362Y2106638D01*
X-773597Y2105190D01*
X-753852Y2085445D01*
X-752588Y2079092D01*
X-748348Y2068856D01*
X-742192Y2059643D01*
X-734357Y2051808D01*
X-725144Y2045652D01*
X-714907Y2041412D01*
X-704040Y2039250D01*
X-692960Y2039250D01*
X-682093Y2041412D01*
X-671856Y2045652D01*
X-671250Y2046057D01*
X-671250Y1929804D01*
X-671437Y1927900D01*
X-670689Y1920304D01*
X-669040Y1914867D01*
X-668473Y1912999D01*
X-664875Y1906267D01*
X-660033Y1900367D01*
X-658555Y1899154D01*
X-368750Y1609349D01*
X-368750Y1607852D01*
X-366780Y1597951D01*
X-362917Y1588624D01*
X-357308Y1580230D01*
X-350170Y1573091D01*
X-341776Y1567483D01*
X-332449Y1563619D01*
X-322548Y1561650D01*
X-312452Y1561650D01*
X-302551Y1563619D01*
X-293224Y1567483D01*
X-284830Y1573091D01*
X-277692Y1580230D01*
X-272083Y1588624D01*
X-268220Y1597951D01*
X-266250Y1607852D01*
X-266250Y1617948D01*
X-268220Y1627849D01*
X-272083Y1637176D01*
X-277692Y1645570D01*
X-284830Y1652708D01*
X-293224Y1658317D01*
X-302551Y1662180D01*
X-312452Y1664150D01*
X-313949Y1664150D01*
X-593750Y1943951D01*
X-593750Y2241623D01*
X-590000Y2241623D01*
X-584854Y2242130D01*
X-579906Y2243631D01*
X-577500Y2244917D01*
X-575094Y2243631D01*
X-570146Y2242130D01*
X-565000Y2241623D01*
X-537813Y2241750D01*
X-531250Y2248313D01*
X-531250Y2314250D01*
X-533250Y2314250D01*
X-533250Y2331750D01*
X-531250Y2331750D01*
X-531250Y2397688D01*
X-513750Y2397688D01*
X-513750Y2331750D01*
X-511750Y2331750D01*
X-511750Y2314250D01*
X-513750Y2314250D01*
X-513750Y2248313D01*
X-507187Y2241750D01*
X-480000Y2241623D01*
X-474854Y2242130D01*
X-469906Y2243631D01*
X-467500Y2244917D01*
X-465094Y2243631D01*
X-460146Y2242130D01*
X-455000Y2241623D01*
X-451250Y2241623D01*
X-451250Y1938403D01*
X-451437Y1936500D01*
X-450689Y1928904D01*
X-450385Y1927900D01*
X-448473Y1921599D01*
X-444875Y1914868D01*
X-440033Y1908967D01*
X-438554Y1907754D01*
X-229250Y1698449D01*
X-229250Y1303729D01*
X-230308Y1302670D01*
X-235917Y1294276D01*
X-239780Y1284949D01*
X-241750Y1275048D01*
X-241750Y1264952D01*
X-239780Y1255051D01*
X-235917Y1245724D01*
X-230308Y1237330D01*
X-223170Y1230192D01*
X-214776Y1224583D01*
X-205449Y1220720D01*
X-195548Y1218750D01*
X-185452Y1218750D01*
X-175551Y1220720D01*
X-166224Y1224583D01*
X-157830Y1230192D01*
X-150692Y1237330D01*
X-145083Y1245724D01*
X-141220Y1255051D01*
X-139250Y1264952D01*
X-139250Y1275048D01*
X-141220Y1284949D01*
X-145083Y1294276D01*
X-150692Y1302670D01*
X-151750Y1303729D01*
X-151750Y1712598D01*
X-151563Y1714500D01*
X-151750Y1716402D01*
X-151750Y1716403D01*
X-152311Y1722096D01*
X-154527Y1729401D01*
X-158125Y1736132D01*
X-162967Y1742033D01*
X-164445Y1743246D01*
X-373750Y1952551D01*
X-373750Y2241623D01*
X-370000Y2241623D01*
X-364854Y2242130D01*
X-359906Y2243631D01*
X-357500Y2244917D01*
X-355094Y2243631D01*
X-350146Y2242130D01*
X-345000Y2241623D01*
X-271303Y2241623D01*
X-271377Y2198000D01*
X-270870Y2192854D01*
X-269369Y2187906D01*
X-266932Y2183346D01*
X-263651Y2179349D01*
X-259654Y2176068D01*
X-255094Y2173631D01*
X-250146Y2172130D01*
X-245000Y2171623D01*
X-201812Y2171750D01*
X-195250Y2178313D01*
X-195250Y2279250D01*
X-197250Y2279250D01*
X-197250Y2296750D01*
X-195250Y2296750D01*
X-195250Y2397688D01*
X-201812Y2404250D01*
X-245000Y2404377D01*
X-250146Y2403870D01*
X-255094Y2402369D01*
X-257500Y2401083D01*
X-259906Y2402369D01*
X-264854Y2403870D01*
X-270000Y2404377D01*
X-345000Y2404377D01*
X-350146Y2403870D01*
X-355094Y2402369D01*
X-357500Y2401083D01*
X-359906Y2402369D01*
X-364854Y2403870D01*
X-370000Y2404377D01*
X-455000Y2404377D01*
X-460146Y2403870D01*
X-465094Y2402369D01*
X-467500Y2401083D01*
X-469906Y2402369D01*
X-474854Y2403870D01*
X-480000Y2404377D01*
X-507187Y2404250D01*
X-513750Y2397688D01*
X-531250Y2397688D01*
X-537813Y2404250D01*
X-565000Y2404377D01*
X-570146Y2403870D01*
X-575094Y2402369D01*
X-577500Y2401083D01*
X-579906Y2402369D01*
X-584854Y2403870D01*
X-590000Y2404377D01*
X-675000Y2404377D01*
X-680146Y2403870D01*
X-685094Y2402369D01*
X-687500Y2401083D01*
X-689906Y2402369D01*
X-694854Y2403870D01*
X-700000Y2404377D01*
X-785000Y2404377D01*
X-790146Y2403870D01*
X-795094Y2402369D01*
X-797500Y2401083D01*
X-799906Y2402369D01*
X-804854Y2403870D01*
X-810000Y2404377D01*
X-895000Y2404377D01*
X-900146Y2403870D01*
X-905094Y2402369D01*
X-907500Y2401083D01*
X-909906Y2402369D01*
X-914854Y2403870D01*
X-920000Y2404377D01*
X-1005000Y2404377D01*
X-1010146Y2403870D01*
X-1015094Y2402369D01*
X-1017500Y2401083D01*
X-1019906Y2402369D01*
X-1024854Y2403870D01*
X-1030000Y2404377D01*
X-1115000Y2404377D01*
X-1120146Y2403870D01*
X-1125094Y2402369D01*
X-1129654Y2399932D01*
X-1133651Y2396651D01*
X-1136932Y2392654D01*
X-1139369Y2388094D01*
X-1140870Y2383146D01*
X-1141377Y2378000D01*
X-1214623Y2378000D01*
X-1215130Y2383146D01*
X-1216631Y2388094D01*
X-1219068Y2392654D01*
X-1222349Y2396651D01*
X-1226346Y2399932D01*
X-1230906Y2402369D01*
X-1235854Y2403870D01*
X-1241000Y2404377D01*
X-1303188Y2404250D01*
X-1309750Y2397688D01*
X-1327250Y2397688D01*
X-1333813Y2404250D01*
X-1396000Y2404377D01*
X-1401146Y2403870D01*
X-1406094Y2402369D01*
X-1410654Y2399932D01*
X-1414651Y2396651D01*
X-1417932Y2392654D01*
X-1420369Y2388094D01*
X-1421870Y2383146D01*
X-1422377Y2378000D01*
X-1422250Y2325813D01*
X-1415688Y2319250D01*
X-1422250Y2319250D01*
X-1422250Y2317999D01*
X-1429842Y2336328D01*
X-1441470Y2353730D01*
X-1456270Y2368530D01*
X-1473672Y2380158D01*
X-1493008Y2388167D01*
X-1513535Y2392250D01*
X-1534465Y2392250D01*
X-1554992Y2388167D01*
X-1574328Y2380158D01*
X-1591730Y2368530D01*
X-1606530Y2353730D01*
X-1618157Y2336328D01*
X-1626167Y2316992D01*
X-1627250Y2311547D01*
X-1627250Y2514453D01*
X-1626167Y2509008D01*
X-1618157Y2489672D01*
X-1606530Y2472270D01*
X-1591730Y2457470D01*
X-1574328Y2445843D01*
X-1554992Y2437833D01*
X-1534465Y2433750D01*
X-1513535Y2433750D01*
X-1493008Y2437833D01*
X-1473672Y2445843D01*
X-1456270Y2457470D01*
X-1441470Y2472270D01*
X-1429842Y2489672D01*
X-1421833Y2509008D01*
X-1420682Y2514793D01*
X-103217Y2514793D01*
X-99826Y2503615D01*
X-90810Y2484839D01*
X-78303Y2468182D01*
X-62788Y2454286D01*
X-44859Y2443684D01*
X-25207Y2436783D01*
X-8750Y2440673D01*
X-8750Y2531250D01*
X-99303Y2531250D01*
X-103217Y2514793D01*
X-1420682Y2514793D01*
X-1417750Y2529535D01*
X-1417750Y2550465D01*
X-1420682Y2565207D01*
X-103217Y2565207D01*
X-99303Y2548750D01*
X-8750Y2548750D01*
X-8750Y2639327D01*
X-25207Y2643217D01*
X-44859Y2636316D01*
X-62788Y2625714D01*
X-78303Y2611818D01*
X-90810Y2595161D01*
X-99826Y2576385D01*
X-103217Y2565207D01*
X-1420682Y2565207D01*
X-1421833Y2570992D01*
X-1429842Y2590328D01*
X-1441470Y2607730D01*
X-1456270Y2622530D01*
X-1473672Y2634158D01*
X-1493008Y2642167D01*
X-1513535Y2646250D01*
X-1534465Y2646250D01*
X-1554992Y2642167D01*
X-1574328Y2634158D01*
X-1591730Y2622530D01*
X-1606530Y2607730D01*
X-1618157Y2590328D01*
X-1626167Y2570992D01*
X-1627250Y2565547D01*
X-1627250Y2701812D01*
X-1625932Y2699346D01*
X-1622651Y2695349D01*
X-1618654Y2692068D01*
X-1614094Y2689631D01*
X-1609146Y2688130D01*
X-1604000Y2687623D01*
X-1444000Y2687623D01*
X-1438854Y2688130D01*
X-1433906Y2689631D01*
X-1429346Y2692068D01*
X-1425349Y2695349D01*
X-1422068Y2699346D01*
X-1419631Y2703906D01*
X-1418130Y2708854D01*
X-1417623Y2714000D01*
X-1417623Y2874000D01*
X-1418130Y2879146D01*
X-1419631Y2884094D01*
X-1422068Y2888654D01*
X-1425349Y2892651D01*
X-1429346Y2895932D01*
X-1431812Y2897250D01*
X-25547Y2897250D01*
X-30992Y2896167D01*
G37*
X-30992Y2896167D02*
X-50328Y2888157D01*
X-67730Y2876530D01*
X-82530Y2861730D01*
X-94157Y2844328D01*
X-102167Y2824992D01*
X-106250Y2804465D01*
X-106250Y2783535D01*
X-102167Y2763008D01*
X-94157Y2743672D01*
X-82530Y2726270D01*
X-67730Y2711470D01*
X-50328Y2699843D01*
X-30992Y2691833D01*
X-10465Y2687750D01*
X10465Y2687750D01*
X30992Y2691833D01*
X50328Y2699843D01*
X67730Y2711470D01*
X82530Y2726270D01*
X94157Y2743672D01*
X102167Y2763008D01*
X103250Y2768454D01*
X103250Y2548750D01*
X99303Y2548750D01*
X103217Y2565207D01*
X99826Y2576385D01*
X90810Y2595161D01*
X78303Y2611818D01*
X62788Y2625714D01*
X44859Y2636316D01*
X25207Y2643217D01*
X8750Y2639327D01*
X8750Y2548750D01*
X10750Y2548750D01*
X10750Y2531250D01*
X8750Y2531250D01*
X8750Y2440673D01*
X25207Y2436783D01*
X44859Y2443684D01*
X62788Y2454286D01*
X78303Y2468182D01*
X90810Y2484839D01*
X99826Y2503615D01*
X103217Y2514793D01*
X99303Y2531250D01*
X103250Y2531250D01*
X103250Y2311546D01*
X102167Y2316992D01*
X94157Y2336328D01*
X82530Y2353730D01*
X67730Y2368530D01*
X50328Y2380158D01*
X30992Y2388167D01*
X10465Y2392250D01*
X-10465Y2392250D01*
X-30992Y2388167D01*
X-50328Y2380158D01*
X-67730Y2368530D01*
X-82530Y2353730D01*
X-94157Y2336328D01*
X-101725Y2318059D01*
X-101623Y2378000D01*
X-102130Y2383146D01*
X-103631Y2388094D01*
X-106068Y2392654D01*
X-109349Y2396651D01*
X-113346Y2399932D01*
X-117906Y2402369D01*
X-122854Y2403870D01*
X-128000Y2404377D01*
X-171188Y2404250D01*
X-177750Y2397688D01*
X-177750Y2296750D01*
X-175750Y2296750D01*
X-175750Y2279250D01*
X-177750Y2279250D01*
X-177750Y2178313D01*
X-171188Y2171750D01*
X-128000Y2171623D01*
X-122854Y2172130D01*
X-117906Y2173631D01*
X-113346Y2176068D01*
X-109349Y2179349D01*
X-106068Y2183346D01*
X-103631Y2187906D01*
X-102130Y2192854D01*
X-101623Y2198000D01*
X-101718Y2253925D01*
X-94157Y2235672D01*
X-82530Y2218270D01*
X-67730Y2203470D01*
X-50328Y2191843D01*
X-30992Y2183833D01*
X-10465Y2179750D01*
X10465Y2179750D01*
X30992Y2183833D01*
X50328Y2191843D01*
X67730Y2203470D01*
X82530Y2218270D01*
X94157Y2235672D01*
X102167Y2255008D01*
X103250Y2260454D01*
X103250Y2057546D01*
X102167Y2062992D01*
X94157Y2082328D01*
X82530Y2099730D01*
X67730Y2114530D01*
X50328Y2126158D01*
X30992Y2134167D01*
X10465Y2138250D01*
X-10465Y2138250D01*
X-30992Y2134167D01*
X-50328Y2126158D01*
X-67730Y2114530D01*
X-82530Y2099730D01*
X-94157Y2082328D01*
X-95847Y2078250D01*
X-260071Y2078250D01*
X-265456Y2081848D01*
X-275693Y2086088D01*
X-286560Y2088250D01*
X-297640Y2088250D01*
X-308508Y2086088D01*
X-318744Y2081848D01*
X-327957Y2075692D01*
X-335792Y2067857D01*
X-341948Y2058644D01*
X-346188Y2048407D01*
X-348350Y2037540D01*
X-348350Y2026460D01*
X-346188Y2015592D01*
X-341948Y2005356D01*
X-335792Y1996143D01*
X-327957Y1988308D01*
X-318744Y1982152D01*
X-308508Y1977912D01*
X-297640Y1975750D01*
X-286560Y1975750D01*
X-275693Y1977912D01*
X-265456Y1982152D01*
X-260071Y1985750D01*
X-95847Y1985750D01*
X-94157Y1981672D01*
X-82530Y1964270D01*
X-67730Y1949470D01*
X-50328Y1937842D01*
X-30992Y1929833D01*
X-10465Y1925750D01*
X10465Y1925750D01*
X30992Y1929833D01*
X50328Y1937842D01*
X67730Y1949470D01*
X82530Y1964270D01*
X94157Y1981672D01*
X102167Y2001008D01*
X103250Y2006453D01*
X103250Y1803546D01*
X102167Y1808992D01*
X94157Y1828328D01*
X82530Y1845730D01*
X67730Y1860530D01*
X50328Y1872157D01*
X30992Y1880167D01*
X10465Y1884250D01*
X-10465Y1884250D01*
X-30992Y1880167D01*
X-50328Y1872157D01*
X-67730Y1860530D01*
X-82530Y1845730D01*
X-94157Y1828328D01*
X-102167Y1808992D01*
X-106250Y1788465D01*
X-106250Y1767535D01*
X-102167Y1747008D01*
X-94157Y1727672D01*
X-82530Y1710270D01*
X-67730Y1695470D01*
X-50328Y1683842D01*
X-30992Y1675833D01*
X-10465Y1671750D01*
X10465Y1671750D01*
X30992Y1675833D01*
X50328Y1683842D01*
X67730Y1695470D01*
X82530Y1710270D01*
X94157Y1727672D01*
X102167Y1747008D01*
X103250Y1752453D01*
X103250Y1549547D01*
X102167Y1554992D01*
X94157Y1574328D01*
X82530Y1591730D01*
X67730Y1606530D01*
X50328Y1618157D01*
X30992Y1626167D01*
X10465Y1630250D01*
X-10465Y1630250D01*
X-30992Y1626167D01*
X-50328Y1618157D01*
X-67730Y1606530D01*
X-82530Y1591730D01*
X-94157Y1574328D01*
X-102167Y1554992D01*
X-106250Y1534465D01*
X-106250Y1513535D01*
X-102167Y1493008D01*
X-94157Y1473672D01*
X-82530Y1456270D01*
X-67730Y1441470D01*
X-50328Y1429842D01*
X-30992Y1421833D01*
X-10465Y1417750D01*
X10465Y1417750D01*
X30992Y1421833D01*
X50328Y1429842D01*
X67730Y1441470D01*
X82530Y1456270D01*
X94157Y1473672D01*
X102167Y1493008D01*
X103250Y1498453D01*
X103250Y1295547D01*
X102167Y1300992D01*
X94157Y1320328D01*
X82530Y1337730D01*
X67730Y1352530D01*
X50328Y1364158D01*
X30992Y1372167D01*
X10465Y1376250D01*
X-10465Y1376250D01*
X-30992Y1372167D01*
X-50328Y1364158D01*
X-67730Y1352530D01*
X-82530Y1337730D01*
X-94157Y1320328D01*
X-102167Y1300992D01*
X-106250Y1280465D01*
X-106250Y1259535D01*
X-102167Y1239008D01*
X-94157Y1219672D01*
X-82530Y1202270D01*
X-67730Y1187470D01*
X-50328Y1175843D01*
X-30992Y1167833D01*
X-10465Y1163750D01*
X10465Y1163750D01*
X30992Y1167833D01*
X50328Y1175843D01*
X67730Y1187470D01*
X82530Y1202270D01*
X94157Y1219672D01*
X102167Y1239008D01*
X103250Y1244453D01*
X103250Y1041547D01*
X102167Y1046992D01*
X94157Y1066328D01*
X82530Y1083730D01*
X67730Y1098530D01*
X50328Y1110158D01*
X30992Y1118167D01*
X10465Y1122250D01*
X-10465Y1122250D01*
X-30992Y1118167D01*
X-50328Y1110158D01*
X-67730Y1098530D01*
X-82530Y1083730D01*
X-94157Y1066328D01*
X-102167Y1046992D01*
X-106250Y1026465D01*
X-106250Y1005535D01*
X-102167Y985008D01*
X-94157Y965672D01*
X-82530Y948270D01*
X-67730Y933470D01*
X-50328Y921842D01*
X-30992Y913833D01*
X-10465Y909750D01*
X10465Y909750D01*
X30992Y913833D01*
X50328Y921842D01*
X67730Y933470D01*
X82530Y948270D01*
X94157Y965672D01*
X102167Y985008D01*
X103250Y990453D01*
X103250Y787547D01*
X102167Y792992D01*
X94157Y812328D01*
X82530Y829730D01*
X67730Y844530D01*
X50328Y856157D01*
X30992Y864167D01*
X10465Y868250D01*
X-10465Y868250D01*
X-30992Y864167D01*
X-42570Y859371D01*
X-83004Y899804D01*
X-84217Y901283D01*
X-90117Y906125D01*
X-96849Y909723D01*
X-104154Y911939D01*
X-109847Y912500D01*
X-111750Y912687D01*
X-113653Y912500D01*
X-119814Y912500D01*
X-120296Y914090D01*
X-124755Y922432D01*
X-130756Y929744D01*
X-138068Y935745D01*
X-146410Y940204D01*
X-155462Y942950D01*
X-164875Y943877D01*
X-216125Y943877D01*
X-225538Y942950D01*
X-234590Y940204D01*
X-242932Y935745D01*
X-250244Y929744D01*
X-256245Y922432D01*
X-260704Y914090D01*
X-263450Y905038D01*
X-264377Y895625D01*
X-264377Y851875D01*
X-263450Y842461D01*
X-260704Y833410D01*
X-256245Y825068D01*
X-250244Y817756D01*
X-242932Y811755D01*
X-234590Y807296D01*
X-225538Y804550D01*
X-216125Y803623D01*
X-164875Y803623D01*
X-155462Y804550D01*
X-146410Y807296D01*
X-138068Y811755D01*
X-130756Y817756D01*
X-124755Y825068D01*
X-122356Y829555D01*
X-97371Y804570D01*
X-102167Y792992D01*
X-106250Y772465D01*
X-106250Y751535D01*
X-102167Y731008D01*
X-94157Y711672D01*
X-82530Y694270D01*
X-67730Y679470D01*
X-50328Y667843D01*
X-30992Y659833D01*
X-10465Y655750D01*
X10465Y655750D01*
X30992Y659833D01*
X50328Y667843D01*
X67730Y679470D01*
X82530Y694270D01*
X94157Y711672D01*
X102167Y731008D01*
X103250Y736453D01*
X103250Y533547D01*
X102167Y538992D01*
X94157Y558328D01*
X82530Y575730D01*
X67730Y590530D01*
X50328Y602158D01*
X30992Y610167D01*
X10465Y614250D01*
X-10465Y614250D01*
X-30992Y610167D01*
X-50328Y602158D01*
X-67730Y590530D01*
X-82530Y575730D01*
X-94157Y558328D01*
X-102167Y538992D01*
X-106250Y518465D01*
X-106250Y497535D01*
X-102167Y477008D01*
X-94157Y457672D01*
X-82530Y440270D01*
X-67730Y425470D01*
X-50328Y413842D01*
X-30992Y405833D01*
X-10465Y401750D01*
X10465Y401750D01*
X30992Y405833D01*
X50328Y413842D01*
X67730Y425470D01*
X82530Y440270D01*
X94157Y457672D01*
X102167Y477008D01*
X103250Y482453D01*
X103250Y279547D01*
X102167Y284992D01*
X94157Y304328D01*
X82530Y321730D01*
X67730Y336530D01*
X50328Y348158D01*
X30992Y356167D01*
X10465Y360250D01*
X-10465Y360250D01*
X-30992Y356167D01*
X-50328Y348158D01*
X-67730Y336530D01*
X-82530Y321730D01*
X-94157Y304328D01*
X-102167Y284992D01*
X-106250Y264465D01*
X-106250Y243535D01*
X-102167Y223008D01*
X-94157Y203672D01*
X-82530Y186270D01*
X-67730Y171470D01*
X-50328Y159843D01*
X-30992Y151833D01*
X-10465Y147750D01*
X10465Y147750D01*
X30992Y151833D01*
X50328Y159843D01*
X67730Y171470D01*
X82530Y186270D01*
X94157Y203672D01*
X102167Y223008D01*
X103250Y228453D01*
X103250Y25547D01*
X102167Y30992D01*
X94157Y50328D01*
X82530Y67730D01*
X67730Y82530D01*
X50328Y94157D01*
X30992Y102167D01*
X10465Y106250D01*
X-10465Y106250D01*
X-30992Y102167D01*
X-50328Y94157D01*
X-67730Y82530D01*
X-82530Y67730D01*
X-94157Y50328D01*
X-102167Y30992D01*
X-106250Y10465D01*
X-106250Y-10465D01*
X-102167Y-30992D01*
X-94157Y-50328D01*
X-82530Y-67730D01*
X-67730Y-82530D01*
X-50328Y-94157D01*
X-30992Y-102167D01*
X-25547Y-103250D01*
X-1498453Y-103250D01*
X-1493008Y-102167D01*
X-1473672Y-94157D01*
X-1456270Y-82530D01*
X-1441470Y-67730D01*
X-1429842Y-50328D01*
X-1425047Y-38750D01*
X-1371219Y-38750D01*
X-1370801Y-38974D01*
X-1363496Y-41189D01*
X-1357803Y-41750D01*
X-1357802Y-41750D01*
X-1355900Y-41937D01*
X-1353998Y-41750D01*
X-1297176Y-41750D01*
X-1292082Y-49374D01*
X-1288802Y-53371D01*
X-1281871Y-60302D01*
X-1277874Y-63582D01*
X-1269724Y-69028D01*
X-1265164Y-71465D01*
X-1256108Y-75216D01*
X-1251160Y-76717D01*
X-1241547Y-78629D01*
X-1236401Y-79136D01*
X-1233945Y-79136D01*
X-1231500Y-79377D01*
X-1181500Y-79377D01*
X-1179055Y-79136D01*
X-1176599Y-79136D01*
X-1171453Y-78629D01*
X-1161840Y-76717D01*
X-1156892Y-75216D01*
X-1147836Y-71465D01*
X-1143276Y-69028D01*
X-1135126Y-63582D01*
X-1131129Y-60302D01*
X-1124198Y-53371D01*
X-1120918Y-49374D01*
X-1115472Y-41224D01*
X-1113035Y-36664D01*
X-1109284Y-27608D01*
X-1107783Y-22660D01*
X-1105871Y-13047D01*
X-1105364Y-7901D01*
X-1105364Y-5445D01*
X-1105123Y-3000D01*
X-1105123Y52000D01*
X-1105630Y57146D01*
X-1105735Y57492D01*
X-1103775Y56183D01*
X-1094449Y52319D01*
X-1084547Y50350D01*
X-1074452Y50350D01*
X-1064550Y52319D01*
X-1055223Y56183D01*
X-1051934Y58381D01*
X-1053370Y53646D01*
X-1053877Y48500D01*
X-1053877Y-1500D01*
X-1053636Y-3945D01*
X-1053636Y-6401D01*
X-1053129Y-11547D01*
X-1051217Y-21160D01*
X-1049716Y-26108D01*
X-1045965Y-35164D01*
X-1043528Y-39724D01*
X-1038082Y-47874D01*
X-1034802Y-51871D01*
X-1027871Y-58802D01*
X-1023874Y-62082D01*
X-1015724Y-67528D01*
X-1011164Y-69965D01*
X-1002108Y-73716D01*
X-997160Y-75217D01*
X-987547Y-77129D01*
X-982401Y-77636D01*
X-979945Y-77636D01*
X-977500Y-77877D01*
X-927500Y-77877D01*
X-925055Y-77636D01*
X-922599Y-77636D01*
X-917453Y-77129D01*
X-907840Y-75217D01*
X-902892Y-73716D01*
X-893836Y-69965D01*
X-889276Y-67528D01*
X-881126Y-62082D01*
X-877129Y-58802D01*
X-870198Y-51871D01*
X-866918Y-47874D01*
X-861824Y-40250D01*
X-854273Y-40250D01*
X-852370Y-40437D01*
X-850468Y-40250D01*
X-844774Y-39689D01*
X-837470Y-37474D01*
X-830738Y-33875D01*
X-824837Y-29033D01*
X-823624Y-27554D01*
X-799670Y-3600D01*
X-799636Y-3945D01*
X-799636Y-6401D01*
X-799129Y-11547D01*
X-797217Y-21160D01*
X-795716Y-26108D01*
X-791965Y-35164D01*
X-789528Y-39724D01*
X-784082Y-47874D01*
X-780802Y-51871D01*
X-773871Y-58802D01*
X-769874Y-62082D01*
X-761724Y-67528D01*
X-757164Y-69965D01*
X-748108Y-73716D01*
X-743160Y-75217D01*
X-733547Y-77129D01*
X-728401Y-77636D01*
X-725945Y-77636D01*
X-723500Y-77877D01*
X-673500Y-77877D01*
X-671055Y-77636D01*
X-668599Y-77636D01*
X-663453Y-77129D01*
X-653840Y-75217D01*
X-648892Y-73716D01*
X-639836Y-69965D01*
X-635276Y-67528D01*
X-627126Y-62082D01*
X-623129Y-58802D01*
X-616198Y-51871D01*
X-612918Y-47874D01*
X-607824Y-40250D01*
X-603047Y-40250D01*
X-601144Y-40437D01*
X-599242Y-40250D01*
X-593548Y-39689D01*
X-586244Y-37474D01*
X-579512Y-33875D01*
X-573611Y-29033D01*
X-572398Y-27554D01*
X-548004Y-3161D01*
X-546526Y-1948D01*
X-541684Y3953D01*
X-538086Y10684D01*
X-535870Y17989D01*
X-535845Y18245D01*
X-535659Y20133D01*
X-535309Y23682D01*
X-535309Y23683D01*
X-535122Y25585D01*
X-535285Y27237D01*
X-534251Y28270D01*
X-528642Y36664D01*
X-527067Y40466D01*
X-445296Y-41305D01*
X-444083Y-42783D01*
X-438182Y-47625D01*
X-431451Y-51223D01*
X-426808Y-52632D01*
X-424146Y-53439D01*
X-416550Y-54187D01*
X-414647Y-54000D01*
X-388186Y-54000D01*
X-387704Y-55590D01*
X-383245Y-63932D01*
X-377244Y-71244D01*
X-369932Y-77245D01*
X-361590Y-81704D01*
X-352538Y-84450D01*
X-343125Y-85377D01*
X-291875Y-85377D01*
X-282462Y-84450D01*
X-273410Y-81704D01*
X-265068Y-77245D01*
X-257756Y-71244D01*
X-251755Y-63932D01*
X-247296Y-55590D01*
X-244550Y-46538D01*
X-243623Y-37125D01*
X-243623Y6625D01*
X-244550Y16038D01*
X-247296Y25090D01*
X-251755Y33432D01*
X-257756Y40744D01*
X-265068Y46745D01*
X-273410Y51204D01*
X-282462Y53950D01*
X-291875Y54877D01*
X-343125Y54877D01*
X-352538Y53950D01*
X-361590Y51204D01*
X-369932Y46745D01*
X-377244Y40744D01*
X-383245Y33432D01*
X-387704Y25090D01*
X-388186Y23500D01*
X-400499Y23500D01*
X-520250Y143251D01*
X-520250Y144748D01*
X-522219Y154649D01*
X-526083Y163976D01*
X-531692Y172370D01*
X-538830Y179508D01*
X-547224Y185117D01*
X-556551Y188980D01*
X-566452Y190950D01*
X-576548Y190950D01*
X-586449Y188980D01*
X-595776Y185117D01*
X-604170Y179508D01*
X-611270Y172408D01*
X-612918Y174874D01*
X-616198Y178871D01*
X-623129Y185802D01*
X-627126Y189082D01*
X-635276Y194528D01*
X-639836Y196965D01*
X-648892Y200716D01*
X-653840Y202217D01*
X-659750Y203393D01*
X-659750Y215250D01*
X-489604Y215250D01*
X-489919Y214778D01*
X-493782Y205451D01*
X-495752Y195550D01*
X-495752Y185454D01*
X-493782Y175553D01*
X-489919Y166226D01*
X-484310Y157832D01*
X-477172Y150694D01*
X-468778Y145085D01*
X-459451Y141222D01*
X-449550Y139252D01*
X-448053Y139252D01*
X-424996Y116195D01*
X-423783Y114717D01*
X-417882Y109875D01*
X-411151Y106276D01*
X-406062Y104733D01*
X-403846Y104061D01*
X-403069Y103984D01*
X-398153Y103500D01*
X-398152Y103500D01*
X-396250Y103313D01*
X-394348Y103500D01*
X-388186Y103500D01*
X-387704Y101910D01*
X-383245Y93568D01*
X-377244Y86256D01*
X-369932Y80255D01*
X-361590Y75796D01*
X-352538Y73050D01*
X-343125Y72123D01*
X-291875Y72123D01*
X-282462Y73050D01*
X-273410Y75796D01*
X-265068Y80255D01*
X-257756Y86256D01*
X-251755Y93568D01*
X-247296Y101910D01*
X-244550Y110961D01*
X-243623Y120375D01*
X-243623Y164125D01*
X-244550Y173539D01*
X-247296Y182590D01*
X-251755Y190932D01*
X-257756Y198244D01*
X-265068Y204245D01*
X-273410Y208704D01*
X-282462Y211450D01*
X-291875Y212377D01*
X-343125Y212377D01*
X-352538Y211450D01*
X-361590Y208704D01*
X-369932Y204245D01*
X-377244Y198244D01*
X-383245Y190932D01*
X-385644Y186445D01*
X-393252Y194053D01*
X-393252Y195550D01*
X-395221Y205451D01*
X-399085Y214778D01*
X-404693Y223172D01*
X-411832Y230310D01*
X-420226Y235919D01*
X-426451Y238498D01*
X-370195Y294754D01*
X-368717Y295967D01*
X-363875Y301868D01*
X-360276Y308599D01*
X-359985Y309560D01*
X-355910Y310796D01*
X-347568Y315255D01*
X-340256Y321256D01*
X-334255Y328568D01*
X-329796Y336910D01*
X-327050Y345962D01*
X-326123Y355375D01*
X-326123Y402966D01*
X-308877Y385720D01*
X-308877Y355375D01*
X-307950Y345962D01*
X-305204Y336910D01*
X-300745Y328568D01*
X-294744Y321256D01*
X-287432Y315255D01*
X-279090Y310796D01*
X-270039Y308050D01*
X-260625Y307123D01*
X-216875Y307123D01*
X-207461Y308050D01*
X-198410Y310796D01*
X-190068Y315255D01*
X-182756Y321256D01*
X-176755Y328568D01*
X-172296Y336910D01*
X-169550Y345962D01*
X-168623Y355375D01*
X-168623Y406625D01*
X-169550Y416038D01*
X-172296Y425090D01*
X-176755Y433432D01*
X-182756Y440744D01*
X-190068Y446745D01*
X-198410Y451204D01*
X-207461Y453950D01*
X-216875Y454877D01*
X-247220Y454877D01*
X-318803Y526461D01*
X-313802Y523119D01*
X-290826Y513602D01*
X-266435Y508750D01*
X-241565Y508750D01*
X-217174Y513602D01*
X-194198Y523119D01*
X-173520Y536935D01*
X-155935Y554520D01*
X-142119Y575198D01*
X-132602Y598174D01*
X-127750Y622566D01*
X-127750Y647435D01*
X-132602Y671826D01*
X-142119Y694802D01*
X-155935Y715480D01*
X-173520Y733065D01*
X-194198Y746881D01*
X-217174Y756398D01*
X-241565Y761250D01*
X-266435Y761250D01*
X-290826Y756398D01*
X-313802Y746881D01*
X-328216Y737250D01*
X-618949Y737250D01*
X-653430Y771731D01*
X-649096Y777012D01*
X-645273Y784166D01*
X-645020Y785000D01*
X-627877Y785000D01*
X-627370Y779854D01*
X-625869Y774906D01*
X-623432Y770346D01*
X-620151Y766349D01*
X-616154Y763068D01*
X-611594Y760631D01*
X-606646Y759130D01*
X-601500Y758623D01*
X-586813Y758750D01*
X-580250Y765312D01*
X-580250Y873750D01*
X-562750Y873750D01*
X-562750Y765312D01*
X-556188Y758750D01*
X-541500Y758623D01*
X-536354Y759130D01*
X-531406Y760631D01*
X-526846Y763068D01*
X-522849Y766349D01*
X-519568Y770346D01*
X-517131Y774906D01*
X-515630Y779854D01*
X-515123Y785000D01*
X-515192Y830000D01*
X-454877Y830000D01*
X-454370Y824854D01*
X-452869Y819906D01*
X-450432Y815346D01*
X-447151Y811349D01*
X-443154Y808068D01*
X-438594Y805631D01*
X-433646Y804130D01*
X-428500Y803623D01*
X-396312Y803750D01*
X-389750Y810312D01*
X-389750Y865000D01*
X-372250Y865000D01*
X-372250Y810312D01*
X-365687Y803750D01*
X-333500Y803623D01*
X-328354Y804130D01*
X-323406Y805631D01*
X-318846Y808068D01*
X-314849Y811349D01*
X-311568Y815346D01*
X-309131Y819906D01*
X-307630Y824854D01*
X-307123Y830000D01*
X-307250Y858437D01*
X-313813Y865000D01*
X-372250Y865000D01*
X-389750Y865000D01*
X-448187Y865000D01*
X-454750Y858437D01*
X-454877Y830000D01*
X-515192Y830000D01*
X-515250Y867187D01*
X-521812Y873750D01*
X-562750Y873750D01*
X-580250Y873750D01*
X-621188Y873750D01*
X-627750Y867187D01*
X-627877Y785000D01*
X-645020Y785000D01*
X-642918Y791928D01*
X-642123Y800000D01*
X-642123Y965000D01*
X-642918Y973072D01*
X-645020Y980000D01*
X-627877Y980000D01*
X-627750Y897812D01*
X-621188Y891250D01*
X-580250Y891250D01*
X-580250Y999687D01*
X-562750Y999687D01*
X-562750Y891250D01*
X-521812Y891250D01*
X-515250Y897812D01*
X-515220Y917500D01*
X-454877Y917500D01*
X-454750Y889062D01*
X-448187Y882500D01*
X-389750Y882500D01*
X-389750Y937187D01*
X-372250Y937187D01*
X-372250Y882500D01*
X-313813Y882500D01*
X-307250Y889062D01*
X-307123Y917500D01*
X-307630Y922646D01*
X-309131Y927594D01*
X-311568Y932154D01*
X-314849Y936151D01*
X-318846Y939432D01*
X-323406Y941869D01*
X-328354Y943370D01*
X-333500Y943877D01*
X-365687Y943750D01*
X-372250Y937187D01*
X-389750Y937187D01*
X-396312Y943750D01*
X-428500Y943877D01*
X-433646Y943370D01*
X-438594Y941869D01*
X-443154Y939432D01*
X-447151Y936151D01*
X-450432Y932154D01*
X-452869Y927594D01*
X-454370Y922646D01*
X-454877Y917500D01*
X-515220Y917500D01*
X-515123Y980000D01*
X-515630Y985146D01*
X-517131Y990094D01*
X-519568Y994654D01*
X-522849Y998651D01*
X-526846Y1001932D01*
X-531406Y1004369D01*
X-536354Y1005870D01*
X-541500Y1006377D01*
X-556188Y1006250D01*
X-562750Y999687D01*
X-580250Y999687D01*
X-586813Y1006250D01*
X-601500Y1006377D01*
X-606646Y1005870D01*
X-611594Y1004369D01*
X-616154Y1001932D01*
X-620151Y998651D01*
X-623432Y994654D01*
X-625869Y990094D01*
X-627370Y985146D01*
X-627877Y980000D01*
X-645020Y980000D01*
X-645273Y980834D01*
X-649096Y987988D01*
X-654242Y994258D01*
X-660512Y999404D01*
X-667666Y1003227D01*
X-675428Y1005582D01*
X-683500Y1006377D01*
X-713500Y1006377D01*
X-721572Y1005582D01*
X-729334Y1003227D01*
X-736488Y999404D01*
X-742758Y994258D01*
X-747904Y987988D01*
X-751727Y980834D01*
X-754082Y973072D01*
X-754877Y965000D01*
X-754877Y800000D01*
X-754082Y791928D01*
X-751727Y784166D01*
X-747904Y777012D01*
X-742758Y770742D01*
X-737250Y766222D01*
X-737250Y763903D01*
X-737437Y762000D01*
X-736689Y754404D01*
X-736127Y752550D01*
X-734473Y747099D01*
X-730875Y740368D01*
X-726033Y734467D01*
X-724554Y733254D01*
X-672551Y681250D01*
X-734329Y681250D01*
X-736600Y681474D01*
X-738871Y681250D01*
X-745667Y680581D01*
X-754385Y677936D01*
X-762419Y673642D01*
X-769462Y667862D01*
X-770910Y666097D01*
X-843258Y593749D01*
X-1060435Y593749D01*
X-1059676Y596250D01*
X-954403Y596250D01*
X-952500Y596063D01*
X-950597Y596250D01*
X-944904Y596811D01*
X-937599Y599027D01*
X-930867Y602625D01*
X-924967Y607467D01*
X-923754Y608946D01*
X-799445Y733254D01*
X-797967Y734467D01*
X-793125Y740367D01*
X-789526Y747099D01*
X-787311Y754404D01*
X-786750Y760097D01*
X-786750Y760098D01*
X-786563Y762000D01*
X-786750Y763902D01*
X-786750Y766222D01*
X-781242Y770742D01*
X-776096Y777012D01*
X-772273Y784166D01*
X-769918Y791928D01*
X-769123Y800000D01*
X-769123Y965000D01*
X-769918Y973072D01*
X-772273Y980834D01*
X-776096Y987988D01*
X-781242Y994258D01*
X-786750Y998778D01*
X-786750Y1053125D01*
X-454877Y1053125D01*
X-454877Y1009375D01*
X-453950Y999961D01*
X-451204Y990910D01*
X-446745Y982568D01*
X-440744Y975256D01*
X-433432Y969255D01*
X-425090Y964796D01*
X-416038Y962050D01*
X-406625Y961123D01*
X-355375Y961123D01*
X-345962Y962050D01*
X-336910Y964796D01*
X-328568Y969255D01*
X-321256Y975256D01*
X-315255Y982568D01*
X-310796Y990910D01*
X-310314Y992500D01*
X-261186Y992500D01*
X-260704Y990910D01*
X-256245Y982568D01*
X-250244Y975256D01*
X-242932Y969255D01*
X-234590Y964796D01*
X-225538Y962050D01*
X-216125Y961123D01*
X-164875Y961123D01*
X-155462Y962050D01*
X-146410Y964796D01*
X-138068Y969255D01*
X-130756Y975256D01*
X-124755Y982568D01*
X-120296Y990910D01*
X-117550Y999961D01*
X-116623Y1009375D01*
X-116623Y1053125D01*
X-117550Y1062539D01*
X-120296Y1071590D01*
X-124755Y1079932D01*
X-130756Y1087244D01*
X-138068Y1093245D01*
X-146410Y1097704D01*
X-155462Y1100450D01*
X-164875Y1101377D01*
X-216125Y1101377D01*
X-225538Y1100450D01*
X-234590Y1097704D01*
X-242932Y1093245D01*
X-250244Y1087244D01*
X-256245Y1079932D01*
X-260704Y1071590D01*
X-261186Y1070000D01*
X-310314Y1070000D01*
X-310796Y1071590D01*
X-315255Y1079932D01*
X-321256Y1087244D01*
X-328568Y1093245D01*
X-336910Y1097704D01*
X-345962Y1100450D01*
X-355375Y1101377D01*
X-406625Y1101377D01*
X-416038Y1100450D01*
X-425090Y1097704D01*
X-433432Y1093245D01*
X-440744Y1087244D01*
X-446745Y1079932D01*
X-451204Y1071590D01*
X-453950Y1062539D01*
X-454877Y1053125D01*
X-786750Y1053125D01*
X-786750Y1136000D01*
X-786276Y1135683D01*
X-776949Y1131820D01*
X-767048Y1129850D01*
X-756952Y1129850D01*
X-747051Y1131820D01*
X-737724Y1135683D01*
X-729330Y1141292D01*
X-722191Y1148430D01*
X-716583Y1156824D01*
X-712719Y1166151D01*
X-711357Y1173000D01*
X-510377Y1173000D01*
X-509870Y1167854D01*
X-508369Y1162906D01*
X-505932Y1158346D01*
X-502651Y1154349D01*
X-498654Y1151068D01*
X-494094Y1148631D01*
X-489146Y1147130D01*
X-484000Y1146623D01*
X-404312Y1146750D01*
X-397750Y1153313D01*
X-397750Y1231750D01*
X-380250Y1231750D01*
X-380250Y1153313D01*
X-373687Y1146750D01*
X-294000Y1146623D01*
X-288854Y1147130D01*
X-283906Y1148631D01*
X-279346Y1151068D01*
X-275349Y1154349D01*
X-272068Y1158346D01*
X-269631Y1162906D01*
X-268130Y1167854D01*
X-267623Y1173000D01*
X-267750Y1225188D01*
X-274313Y1231750D01*
X-380250Y1231750D01*
X-397750Y1231750D01*
X-503687Y1231750D01*
X-510250Y1225188D01*
X-510377Y1173000D01*
X-711357Y1173000D01*
X-710750Y1176052D01*
X-710750Y1186148D01*
X-712719Y1196049D01*
X-716583Y1205376D01*
X-722191Y1213770D01*
X-723250Y1214829D01*
X-723250Y1308000D01*
X-510377Y1308000D01*
X-510250Y1255813D01*
X-503687Y1249250D01*
X-397750Y1249250D01*
X-397750Y1327688D01*
X-380250Y1327688D01*
X-380250Y1249250D01*
X-274313Y1249250D01*
X-267750Y1255813D01*
X-267623Y1308000D01*
X-268130Y1313146D01*
X-269631Y1318094D01*
X-272068Y1322654D01*
X-275349Y1326651D01*
X-279346Y1329932D01*
X-283906Y1332369D01*
X-288854Y1333870D01*
X-294000Y1334377D01*
X-373687Y1334250D01*
X-380250Y1327688D01*
X-397750Y1327688D01*
X-404312Y1334250D01*
X-484000Y1334377D01*
X-489146Y1333870D01*
X-494094Y1332369D01*
X-498654Y1329932D01*
X-502651Y1326651D01*
X-505932Y1322654D01*
X-508369Y1318094D01*
X-509870Y1313146D01*
X-510377Y1308000D01*
X-723250Y1308000D01*
X-723250Y1369698D01*
X-723063Y1371600D01*
X-723250Y1373502D01*
X-723250Y1373503D01*
X-723811Y1379196D01*
X-726026Y1386501D01*
X-729625Y1393233D01*
X-734467Y1399133D01*
X-735945Y1400346D01*
X-1069654Y1734054D01*
X-1070867Y1735533D01*
X-1076768Y1740375D01*
X-1083499Y1743973D01*
X-1090804Y1746189D01*
X-1096497Y1746750D01*
X-1098400Y1746937D01*
X-1100303Y1746750D01*
X-1249623Y1746750D01*
X-1249623Y1758000D01*
X-1250130Y1763146D01*
X-1251631Y1768094D01*
X-1254068Y1772654D01*
X-1257349Y1776651D01*
X-1261346Y1779932D01*
X-1265906Y1782369D01*
X-1270854Y1783870D01*
X-1276000Y1784377D01*
X-1396000Y1784377D01*
X-1401146Y1783870D01*
X-1406094Y1782369D01*
X-1410654Y1779932D01*
X-1414651Y1776651D01*
X-1417750Y1772876D01*
X-1417750Y1788465D01*
X-1421833Y1808992D01*
X-1429842Y1828328D01*
X-1441470Y1845730D01*
X-1456270Y1860530D01*
X-1473672Y1872157D01*
X-1493008Y1880167D01*
X-1513535Y1884250D01*
X-1534465Y1884250D01*
X-1554992Y1880167D01*
X-1574328Y1872157D01*
X-1591730Y1860530D01*
X-1606530Y1845730D01*
X-1618157Y1828328D01*
X-1626167Y1808992D01*
X-1627250Y1803547D01*
X-1627250Y2023250D01*
X-1623303Y2023250D01*
X-1627217Y2006793D01*
X-1623826Y1995615D01*
X-1614810Y1976839D01*
X-1602303Y1960182D01*
X-1586788Y1946286D01*
X-1568859Y1935684D01*
X-1549207Y1928783D01*
X-1532750Y1932673D01*
X-1532750Y2023250D01*
X-1515250Y2023250D01*
X-1515250Y1932673D01*
X-1498793Y1928783D01*
X-1479141Y1935684D01*
X-1461212Y1946286D01*
X-1445697Y1960182D01*
X-1433190Y1976839D01*
X-1424174Y1995615D01*
X-1420783Y2006793D01*
X-1424697Y2023250D01*
X-1515250Y2023250D01*
X-1532750Y2023250D01*
X-1534750Y2023250D01*
X-1534750Y2040750D01*
X-1532750Y2040750D01*
X-1532750Y2131327D01*
X-1515250Y2131327D01*
X-1515250Y2040750D01*
X-1424697Y2040750D01*
X-1420783Y2057207D01*
X-1424174Y2068385D01*
X-1433190Y2087161D01*
X-1445697Y2103818D01*
X-1461212Y2117714D01*
X-1479141Y2128316D01*
X-1498793Y2135217D01*
X-1515250Y2131327D01*
X-1532750Y2131327D01*
X-1549207Y2135217D01*
X-1568859Y2128316D01*
X-1586788Y2117714D01*
X-1602303Y2103818D01*
X-1614810Y2087161D01*
X-1623826Y2068385D01*
X-1627217Y2057207D01*
X-1623303Y2040750D01*
X-1627250Y2040750D01*
X-1627250Y2260453D01*
X-1626167Y2255008D01*
X-1618157Y2235672D01*
X-1606530Y2218270D01*
X-1591730Y2203470D01*
X-1574328Y2191843D01*
X-1554992Y2183833D01*
X-1534465Y2179750D01*
X-1513535Y2179750D01*
X-1493008Y2183833D01*
X-1473672Y2191843D01*
X-1456270Y2203470D01*
X-1441470Y2218270D01*
X-1429842Y2235672D01*
X-1422351Y2253758D01*
X-1422377Y2243000D01*
X-1421870Y2237854D01*
X-1420369Y2232906D01*
X-1417932Y2228346D01*
X-1414651Y2224349D01*
X-1410654Y2221068D01*
X-1406094Y2218631D01*
X-1401146Y2217130D01*
X-1396000Y2216623D01*
X-1333813Y2216750D01*
X-1327250Y2223313D01*
X-1327250Y2301750D01*
X-1309750Y2301750D01*
X-1309750Y2223313D01*
X-1303188Y2216750D01*
X-1241000Y2216623D01*
X-1235854Y2217130D01*
X-1230906Y2218631D01*
X-1226346Y2221068D01*
X-1222349Y2224349D01*
X-1219068Y2228346D01*
X-1216631Y2232906D01*
X-1215130Y2237854D01*
X-1214623Y2243000D01*
X-1214750Y2295188D01*
X-1221313Y2301750D01*
X-1309750Y2301750D01*
X-1327250Y2301750D01*
X-1329250Y2301750D01*
X-1329250Y2319250D01*
X-1327250Y2319250D01*
X-1327250Y2397688D01*
X-1309750Y2397688D01*
X-1309750Y2319250D01*
X-1221313Y2319250D01*
X-1214750Y2325813D01*
X-1214623Y2378000D01*
X-1141377Y2378000D01*
X-1141377Y2268000D01*
X-1140870Y2262854D01*
X-1139369Y2257906D01*
X-1136932Y2253346D01*
X-1133651Y2249349D01*
X-1129654Y2246068D01*
X-1125094Y2243631D01*
X-1120146Y2242130D01*
X-1115000Y2241623D01*
X-1030000Y2241623D01*
X-1024854Y2242130D01*
X-1019906Y2243631D01*
X-1017500Y2244917D01*
X-1015094Y2243631D01*
X-1010146Y2242130D01*
X-1005000Y2241623D01*
X-1001250Y2241623D01*
X-1001250Y2241251D01*
X-1019551Y2222950D01*
X-1021048Y2222950D01*
X-1030949Y2220981D01*
X-1040276Y2217117D01*
X-1048670Y2211509D01*
X-1055809Y2204370D01*
X-1061417Y2195976D01*
X-1065281Y2186649D01*
X-1067250Y2176748D01*
X-1067250Y2166652D01*
X-1065281Y2156751D01*
X-1061417Y2147424D01*
X-1055809Y2139030D01*
X-1048670Y2131892D01*
X-1040276Y2126283D01*
X-1030949Y2122420D01*
X-1021048Y2120450D01*
X-1010952Y2120450D01*
X-1001051Y2122420D01*
X-991724Y2126283D01*
X-983330Y2131892D01*
X-976191Y2139030D01*
X-970583Y2147424D01*
X-966719Y2156751D01*
X-964750Y2166652D01*
X-964750Y2168149D01*
X-936445Y2196454D01*
X-934967Y2197667D01*
X-930125Y2203568D01*
X-926526Y2210299D01*
X-924608Y2216623D01*
X-924311Y2217604D01*
X-923970Y2221068D01*
X-923750Y2223297D01*
X-923750Y2223298D01*
X-923563Y2225200D01*
X-923750Y2227102D01*
X-923750Y2241623D01*
X-920000Y2241623D01*
X-914854Y2242130D01*
X-909906Y2243631D01*
X-907500Y2244917D01*
X-905094Y2243631D01*
X-900146Y2242130D01*
X-895000Y2241623D01*
X-891250Y2241623D01*
X-891250Y1959304D01*
X-891437Y1957400D01*
X-890689Y1949804D01*
X-888565Y1942801D01*
X-888473Y1942499D01*
X-884875Y1935767D01*
X-880033Y1929867D01*
X-878555Y1928654D01*
X-444950Y1495049D01*
X-444950Y1493552D01*
X-442980Y1483651D01*
X-439117Y1474324D01*
X-433508Y1465930D01*
X-426370Y1458791D01*
X-417976Y1453183D01*
X-408649Y1449319D01*
X-398748Y1447350D01*
X-388652Y1447350D01*
X-378751Y1449319D01*
X-369424Y1453183D01*
X-361030Y1458791D01*
X-353891Y1465930D01*
X-348283Y1474324D01*
X-344420Y1483651D01*
X-342450Y1493552D01*
X-342450Y1503648D01*
X-344420Y1513549D01*
X-348283Y1522876D01*
X-353891Y1531270D01*
X-361030Y1538408D01*
X-369424Y1544017D01*
X-378751Y1547880D01*
X-388652Y1549850D01*
X-390149Y1549850D01*
X-813750Y1973451D01*
X-813750Y2241623D01*
X-810000Y2241623D01*
X-804854Y2242130D01*
X-799906Y2243631D01*
X-797500Y2244917D01*
X-795094Y2243631D01*
X-790146Y2242130D01*
X-788750Y2241992D01*
X-788750Y2141772D01*
X-788974Y2139500D01*
X-788081Y2130434D01*
X-785650Y2122420D01*
X-785436Y2121715D01*
X-781141Y2113681D01*
X-775362Y2106638D01*
X-773597Y2105190D01*
X-753852Y2085445D01*
X-752588Y2079092D01*
X-748348Y2068856D01*
X-742192Y2059643D01*
X-734357Y2051808D01*
X-725144Y2045652D01*
X-714907Y2041412D01*
X-704040Y2039250D01*
X-692960Y2039250D01*
X-682093Y2041412D01*
X-671856Y2045652D01*
X-671250Y2046057D01*
X-671250Y1929804D01*
X-671437Y1927900D01*
X-670689Y1920304D01*
X-669040Y1914867D01*
X-668473Y1912999D01*
X-664875Y1906267D01*
X-660033Y1900367D01*
X-658555Y1899154D01*
X-368750Y1609349D01*
X-368750Y1607852D01*
X-366780Y1597951D01*
X-362917Y1588624D01*
X-357308Y1580230D01*
X-350170Y1573091D01*
X-341776Y1567483D01*
X-332449Y1563619D01*
X-322548Y1561650D01*
X-312452Y1561650D01*
X-302551Y1563619D01*
X-293224Y1567483D01*
X-284830Y1573091D01*
X-277692Y1580230D01*
X-272083Y1588624D01*
X-268220Y1597951D01*
X-266250Y1607852D01*
X-266250Y1617948D01*
X-268220Y1627849D01*
X-272083Y1637176D01*
X-277692Y1645570D01*
X-284830Y1652708D01*
X-293224Y1658317D01*
X-302551Y1662180D01*
X-312452Y1664150D01*
X-313949Y1664150D01*
X-593750Y1943951D01*
X-593750Y2241623D01*
X-590000Y2241623D01*
X-584854Y2242130D01*
X-579906Y2243631D01*
X-577500Y2244917D01*
X-575094Y2243631D01*
X-570146Y2242130D01*
X-565000Y2241623D01*
X-537813Y2241750D01*
X-531250Y2248313D01*
X-531250Y2314250D01*
X-533250Y2314250D01*
X-533250Y2331750D01*
X-531250Y2331750D01*
X-531250Y2397688D01*
X-513750Y2397688D01*
X-513750Y2331750D01*
X-511750Y2331750D01*
X-511750Y2314250D01*
X-513750Y2314250D01*
X-513750Y2248313D01*
X-507187Y2241750D01*
X-480000Y2241623D01*
X-474854Y2242130D01*
X-469906Y2243631D01*
X-467500Y2244917D01*
X-465094Y2243631D01*
X-460146Y2242130D01*
X-455000Y2241623D01*
X-451250Y2241623D01*
X-451250Y1938403D01*
X-451437Y1936500D01*
X-450689Y1928904D01*
X-450385Y1927900D01*
X-448473Y1921599D01*
X-444875Y1914868D01*
X-440033Y1908967D01*
X-438554Y1907754D01*
X-229250Y1698449D01*
X-229250Y1303729D01*
X-230308Y1302670D01*
X-235917Y1294276D01*
X-239780Y1284949D01*
X-241750Y1275048D01*
X-241750Y1264952D01*
X-239780Y1255051D01*
X-235917Y1245724D01*
X-230308Y1237330D01*
X-223170Y1230192D01*
X-214776Y1224583D01*
X-205449Y1220720D01*
X-195548Y1218750D01*
X-185452Y1218750D01*
X-175551Y1220720D01*
X-166224Y1224583D01*
X-157830Y1230192D01*
X-150692Y1237330D01*
X-145083Y1245724D01*
X-141220Y1255051D01*
X-139250Y1264952D01*
X-139250Y1275048D01*
X-141220Y1284949D01*
X-145083Y1294276D01*
X-150692Y1302670D01*
X-151750Y1303729D01*
X-151750Y1712598D01*
X-151563Y1714500D01*
X-151750Y1716402D01*
X-151750Y1716403D01*
X-152311Y1722096D01*
X-154527Y1729401D01*
X-158125Y1736132D01*
X-162967Y1742033D01*
X-164445Y1743246D01*
X-373750Y1952551D01*
X-373750Y2241623D01*
X-370000Y2241623D01*
X-364854Y2242130D01*
X-359906Y2243631D01*
X-357500Y2244917D01*
X-355094Y2243631D01*
X-350146Y2242130D01*
X-345000Y2241623D01*
X-271303Y2241623D01*
X-271377Y2198000D01*
X-270870Y2192854D01*
X-269369Y2187906D01*
X-266932Y2183346D01*
X-263651Y2179349D01*
X-259654Y2176068D01*
X-255094Y2173631D01*
X-250146Y2172130D01*
X-245000Y2171623D01*
X-201812Y2171750D01*
X-195250Y2178313D01*
X-195250Y2279250D01*
X-197250Y2279250D01*
X-197250Y2296750D01*
X-195250Y2296750D01*
X-195250Y2397688D01*
X-201812Y2404250D01*
X-245000Y2404377D01*
X-250146Y2403870D01*
X-255094Y2402369D01*
X-257500Y2401083D01*
X-259906Y2402369D01*
X-264854Y2403870D01*
X-270000Y2404377D01*
X-345000Y2404377D01*
X-350146Y2403870D01*
X-355094Y2402369D01*
X-357500Y2401083D01*
X-359906Y2402369D01*
X-364854Y2403870D01*
X-370000Y2404377D01*
X-455000Y2404377D01*
X-460146Y2403870D01*
X-465094Y2402369D01*
X-467500Y2401083D01*
X-469906Y2402369D01*
X-474854Y2403870D01*
X-480000Y2404377D01*
X-507187Y2404250D01*
X-513750Y2397688D01*
X-531250Y2397688D01*
X-537813Y2404250D01*
X-565000Y2404377D01*
X-570146Y2403870D01*
X-575094Y2402369D01*
X-577500Y2401083D01*
X-579906Y2402369D01*
X-584854Y2403870D01*
X-590000Y2404377D01*
X-675000Y2404377D01*
X-680146Y2403870D01*
X-685094Y2402369D01*
X-687500Y2401083D01*
X-689906Y2402369D01*
X-694854Y2403870D01*
X-700000Y2404377D01*
X-785000Y2404377D01*
X-790146Y2403870D01*
X-795094Y2402369D01*
X-797500Y2401083D01*
X-799906Y2402369D01*
X-804854Y2403870D01*
X-810000Y2404377D01*
X-895000Y2404377D01*
X-900146Y2403870D01*
X-905094Y2402369D01*
X-907500Y2401083D01*
X-909906Y2402369D01*
X-914854Y2403870D01*
X-920000Y2404377D01*
X-1005000Y2404377D01*
X-1010146Y2403870D01*
X-1015094Y2402369D01*
X-1017500Y2401083D01*
X-1019906Y2402369D01*
X-1024854Y2403870D01*
X-1030000Y2404377D01*
X-1115000Y2404377D01*
X-1120146Y2403870D01*
X-1125094Y2402369D01*
X-1129654Y2399932D01*
X-1133651Y2396651D01*
X-1136932Y2392654D01*
X-1139369Y2388094D01*
X-1140870Y2383146D01*
X-1141377Y2378000D01*
X-1214623Y2378000D01*
X-1215130Y2383146D01*
X-1216631Y2388094D01*
X-1219068Y2392654D01*
X-1222349Y2396651D01*
X-1226346Y2399932D01*
X-1230906Y2402369D01*
X-1235854Y2403870D01*
X-1241000Y2404377D01*
X-1303188Y2404250D01*
X-1309750Y2397688D01*
X-1327250Y2397688D01*
X-1333813Y2404250D01*
X-1396000Y2404377D01*
X-1401146Y2403870D01*
X-1406094Y2402369D01*
X-1410654Y2399932D01*
X-1414651Y2396651D01*
X-1417932Y2392654D01*
X-1420369Y2388094D01*
X-1421870Y2383146D01*
X-1422377Y2378000D01*
X-1422250Y2325813D01*
X-1415688Y2319250D01*
X-1422250Y2319250D01*
X-1422250Y2317999D01*
X-1429842Y2336328D01*
X-1441470Y2353730D01*
X-1456270Y2368530D01*
X-1473672Y2380158D01*
X-1493008Y2388167D01*
X-1513535Y2392250D01*
X-1534465Y2392250D01*
X-1554992Y2388167D01*
X-1574328Y2380158D01*
X-1591730Y2368530D01*
X-1606530Y2353730D01*
X-1618157Y2336328D01*
X-1626167Y2316992D01*
X-1627250Y2311547D01*
X-1627250Y2514453D01*
X-1626167Y2509008D01*
X-1618157Y2489672D01*
X-1606530Y2472270D01*
X-1591730Y2457470D01*
X-1574328Y2445843D01*
X-1554992Y2437833D01*
X-1534465Y2433750D01*
X-1513535Y2433750D01*
X-1493008Y2437833D01*
X-1473672Y2445843D01*
X-1456270Y2457470D01*
X-1441470Y2472270D01*
X-1429842Y2489672D01*
X-1421833Y2509008D01*
X-1420682Y2514793D01*
X-103217Y2514793D01*
X-99826Y2503615D01*
X-90810Y2484839D01*
X-78303Y2468182D01*
X-62788Y2454286D01*
X-44859Y2443684D01*
X-25207Y2436783D01*
X-8750Y2440673D01*
X-8750Y2531250D01*
X-99303Y2531250D01*
X-103217Y2514793D01*
X-1420682Y2514793D01*
X-1417750Y2529535D01*
X-1417750Y2550465D01*
X-1420682Y2565207D01*
X-103217Y2565207D01*
X-99303Y2548750D01*
X-8750Y2548750D01*
X-8750Y2639327D01*
X-25207Y2643217D01*
X-44859Y2636316D01*
X-62788Y2625714D01*
X-78303Y2611818D01*
X-90810Y2595161D01*
X-99826Y2576385D01*
X-103217Y2565207D01*
X-1420682Y2565207D01*
X-1421833Y2570992D01*
X-1429842Y2590328D01*
X-1441470Y2607730D01*
X-1456270Y2622530D01*
X-1473672Y2634158D01*
X-1493008Y2642167D01*
X-1513535Y2646250D01*
X-1534465Y2646250D01*
X-1554992Y2642167D01*
X-1574328Y2634158D01*
X-1591730Y2622530D01*
X-1606530Y2607730D01*
X-1618157Y2590328D01*
X-1626167Y2570992D01*
X-1627250Y2565547D01*
X-1627250Y2701812D01*
X-1625932Y2699346D01*
X-1622651Y2695349D01*
X-1618654Y2692068D01*
X-1614094Y2689631D01*
X-1609146Y2688130D01*
X-1604000Y2687623D01*
X-1444000Y2687623D01*
X-1438854Y2688130D01*
X-1433906Y2689631D01*
X-1429346Y2692068D01*
X-1425349Y2695349D01*
X-1422068Y2699346D01*
X-1419631Y2703906D01*
X-1418130Y2708854D01*
X-1417623Y2714000D01*
X-1417623Y2874000D01*
X-1418130Y2879146D01*
X-1419631Y2884094D01*
X-1422068Y2888654D01*
X-1425349Y2892651D01*
X-1429346Y2895932D01*
X-1431812Y2897250D01*
X-25547Y2897250D01*
X-30992Y2896167D01*
G36*
X-1438146Y1586845D02*
G01*
X-1436933Y1585367D01*
X-1431033Y1580525D01*
X-1424301Y1576926D01*
X-1419212Y1575383D01*
X-1416997Y1574711D01*
X-1416219Y1574634D01*
X-1411303Y1574150D01*
X-1411302Y1574150D01*
X-1409400Y1573963D01*
X-1407498Y1574150D01*
X-1091751Y1574150D01*
X-864250Y1346649D01*
X-864250Y998778D01*
X-869758Y994258D01*
X-874904Y987988D01*
X-878727Y980834D01*
X-881082Y973072D01*
X-881877Y965000D01*
X-881877Y800000D01*
X-881082Y791928D01*
X-878727Y784166D01*
X-874904Y777012D01*
X-870570Y771731D01*
X-968551Y673750D01*
X-1059676Y673750D01*
X-1061296Y679090D01*
X-1065755Y687432D01*
X-1071756Y694744D01*
X-1079068Y700745D01*
X-1087410Y705204D01*
X-1096462Y707950D01*
X-1105875Y708877D01*
X-1149625Y708877D01*
X-1159039Y707950D01*
X-1168090Y705204D01*
X-1176432Y700745D01*
X-1183744Y694744D01*
X-1189745Y687432D01*
X-1194204Y679090D01*
X-1196950Y670039D01*
X-1197877Y660625D01*
X-1197877Y609375D01*
X-1196950Y599962D01*
X-1195065Y593749D01*
X-1217935Y593749D01*
X-1216050Y599962D01*
X-1215123Y609375D01*
X-1215123Y660625D01*
X-1216050Y670039D01*
X-1218796Y679090D01*
X-1223255Y687432D01*
X-1229256Y694744D01*
X-1236568Y700745D01*
X-1239000Y702045D01*
X-1239000Y758455D01*
X-1236568Y759755D01*
X-1229256Y765756D01*
X-1223255Y773068D01*
X-1218796Y781410D01*
X-1216050Y790461D01*
X-1215123Y799875D01*
X-1215123Y851125D01*
X-1216050Y860538D01*
X-1218796Y869590D01*
X-1223255Y877932D01*
X-1229256Y885244D01*
X-1236568Y891245D01*
X-1239000Y892545D01*
X-1239000Y948955D01*
X-1236568Y950255D01*
X-1229256Y956256D01*
X-1223255Y963568D01*
X-1220619Y968500D01*
X-1197877Y968500D01*
X-1197370Y963354D01*
X-1195869Y958406D01*
X-1193432Y953846D01*
X-1190151Y949849D01*
X-1186154Y946568D01*
X-1181594Y944131D01*
X-1176646Y942630D01*
X-1171500Y942123D01*
X-1143063Y942250D01*
X-1136500Y948812D01*
X-1136500Y1007250D01*
X-1119000Y1007250D01*
X-1119000Y948812D01*
X-1112438Y942250D01*
X-1084000Y942123D01*
X-1078854Y942630D01*
X-1073906Y944131D01*
X-1069346Y946568D01*
X-1065349Y949849D01*
X-1062068Y953846D01*
X-1059631Y958406D01*
X-1058130Y963354D01*
X-1057623Y968500D01*
X-1057750Y1000687D01*
X-1064313Y1007250D01*
X-1119000Y1007250D01*
X-1136500Y1007250D01*
X-1191188Y1007250D01*
X-1197750Y1000687D01*
X-1197877Y968500D01*
X-1220619Y968500D01*
X-1218796Y971910D01*
X-1216050Y980961D01*
X-1215123Y990375D01*
X-1215123Y1041625D01*
X-1216050Y1051039D01*
X-1218796Y1060090D01*
X-1222142Y1066350D01*
X-1214152Y1066350D01*
X-1204251Y1068320D01*
X-1196495Y1071532D01*
X-1197370Y1068646D01*
X-1197877Y1063500D01*
X-1197750Y1031312D01*
X-1191188Y1024750D01*
X-1136500Y1024750D01*
X-1136500Y1083188D01*
X-1143063Y1089750D01*
X-1171500Y1089877D01*
X-1176409Y1089394D01*
X-1173783Y1093324D01*
X-1169920Y1102651D01*
X-1167950Y1112552D01*
X-1167950Y1122648D01*
X-1169920Y1132549D01*
X-1173783Y1141876D01*
X-1179392Y1150270D01*
X-1186530Y1157409D01*
X-1194924Y1163017D01*
X-1204251Y1166881D01*
X-1214152Y1168850D01*
X-1215649Y1168850D01*
X-1279354Y1232555D01*
X-1280567Y1234033D01*
X-1286468Y1238875D01*
X-1293199Y1242474D01*
X-1300504Y1244689D01*
X-1306197Y1245250D01*
X-1308100Y1245437D01*
X-1310003Y1245250D01*
X-1420591Y1245250D01*
X-1417750Y1259535D01*
X-1417750Y1273124D01*
X-1414651Y1269349D01*
X-1410654Y1266068D01*
X-1406094Y1263631D01*
X-1401146Y1262130D01*
X-1396000Y1261623D01*
X-1351313Y1261750D01*
X-1344750Y1268313D01*
X-1344750Y1329250D01*
X-1327250Y1329250D01*
X-1327250Y1268313D01*
X-1320688Y1261750D01*
X-1276000Y1261623D01*
X-1270854Y1262130D01*
X-1265906Y1263631D01*
X-1261346Y1266068D01*
X-1257349Y1269349D01*
X-1254068Y1273346D01*
X-1251631Y1277906D01*
X-1250130Y1282854D01*
X-1249623Y1288000D01*
X-1249750Y1322688D01*
X-1256313Y1329250D01*
X-1327250Y1329250D01*
X-1344750Y1329250D01*
X-1415687Y1329250D01*
X-1422250Y1322688D01*
X-1422325Y1302180D01*
X-1429842Y1320328D01*
X-1441470Y1337730D01*
X-1456270Y1352530D01*
X-1473672Y1364158D01*
X-1493008Y1372167D01*
X-1513535Y1376250D01*
X-1534465Y1376250D01*
X-1554992Y1372167D01*
X-1574328Y1364158D01*
X-1591730Y1352530D01*
X-1606530Y1337730D01*
X-1618157Y1320328D01*
X-1626167Y1300992D01*
X-1627250Y1295547D01*
X-1627250Y1388000D01*
X-1422377Y1388000D01*
X-1422250Y1353313D01*
X-1415687Y1346750D01*
X-1344750Y1346750D01*
X-1344750Y1407687D01*
X-1327250Y1407687D01*
X-1327250Y1346750D01*
X-1256313Y1346750D01*
X-1249750Y1353313D01*
X-1249623Y1388000D01*
X-1250130Y1393146D01*
X-1251631Y1398094D01*
X-1254068Y1402654D01*
X-1257349Y1406651D01*
X-1261346Y1409932D01*
X-1265906Y1412369D01*
X-1270854Y1413870D01*
X-1276000Y1414377D01*
X-1320688Y1414250D01*
X-1327250Y1407687D01*
X-1344750Y1407687D01*
X-1351313Y1414250D01*
X-1396000Y1414377D01*
X-1401146Y1413870D01*
X-1406094Y1412369D01*
X-1410654Y1409932D01*
X-1414651Y1406651D01*
X-1417932Y1402654D01*
X-1420369Y1398094D01*
X-1421870Y1393146D01*
X-1422377Y1388000D01*
X-1627250Y1388000D01*
X-1627250Y1498453D01*
X-1626167Y1493008D01*
X-1618157Y1473672D01*
X-1606530Y1456270D01*
X-1591730Y1441470D01*
X-1574328Y1429842D01*
X-1554992Y1421833D01*
X-1534465Y1417750D01*
X-1513535Y1417750D01*
X-1493008Y1421833D01*
X-1473672Y1429842D01*
X-1456270Y1441470D01*
X-1441470Y1456270D01*
X-1429842Y1473672D01*
X-1425047Y1485250D01*
X-1247951Y1485250D01*
X-1194450Y1431749D01*
X-1194450Y1195703D01*
X-1194637Y1193800D01*
X-1193889Y1186204D01*
X-1193245Y1184080D01*
X-1191674Y1178899D01*
X-1188075Y1172168D01*
X-1183233Y1166267D01*
X-1181755Y1165054D01*
X-1108246Y1091545D01*
X-1107033Y1090067D01*
X-1106678Y1089776D01*
X-1112438Y1089750D01*
X-1119000Y1083188D01*
X-1119000Y1024750D01*
X-1064313Y1024750D01*
X-1057750Y1031312D01*
X-1057623Y1063500D01*
X-1058130Y1068646D01*
X-1059631Y1073594D01*
X-1062068Y1078154D01*
X-1062639Y1078850D01*
X-1006651Y1078850D01*
X-991250Y1063449D01*
X-991250Y998778D01*
X-996758Y994258D01*
X-1001904Y987988D01*
X-1005727Y980834D01*
X-1008082Y973072D01*
X-1008877Y965000D01*
X-1008877Y921346D01*
X-1009800Y921437D01*
X-1017396Y920689D01*
X-1024701Y918473D01*
X-1026522Y917500D01*
X-1031432Y914875D01*
X-1037333Y910033D01*
X-1038546Y908555D01*
X-1067294Y879807D01*
X-1071756Y885244D01*
X-1079068Y891245D01*
X-1087410Y895704D01*
X-1096462Y898450D01*
X-1105875Y899377D01*
X-1149625Y899377D01*
X-1159039Y898450D01*
X-1168090Y895704D01*
X-1176432Y891245D01*
X-1183744Y885244D01*
X-1189745Y877932D01*
X-1194204Y869590D01*
X-1196950Y860538D01*
X-1197877Y851125D01*
X-1197877Y799875D01*
X-1196950Y790461D01*
X-1194204Y781410D01*
X-1189745Y773068D01*
X-1183744Y765756D01*
X-1176432Y759755D01*
X-1168090Y755296D01*
X-1159039Y752550D01*
X-1149625Y751623D01*
X-1105875Y751623D01*
X-1096462Y752550D01*
X-1087410Y755296D01*
X-1079068Y759755D01*
X-1071756Y765756D01*
X-1065755Y773068D01*
X-1061296Y781410D01*
X-1059515Y787280D01*
X-1059204Y787311D01*
X-1051899Y789526D01*
X-1045167Y793125D01*
X-1039267Y797967D01*
X-1038054Y799445D01*
X-1008877Y828622D01*
X-1008877Y800000D01*
X-1008082Y791928D01*
X-1005727Y784166D01*
X-1001904Y777012D01*
X-996758Y770742D01*
X-990488Y765596D01*
X-983334Y761773D01*
X-975572Y759418D01*
X-967500Y758623D01*
X-937500Y758623D01*
X-929428Y759418D01*
X-921666Y761773D01*
X-914512Y765596D01*
X-908242Y770742D01*
X-903096Y777012D01*
X-899273Y784166D01*
X-896918Y791928D01*
X-896123Y800000D01*
X-896123Y965000D01*
X-896918Y973072D01*
X-899273Y980834D01*
X-903096Y987988D01*
X-908242Y994258D01*
X-913750Y998778D01*
X-913750Y1077598D01*
X-913563Y1079500D01*
X-913750Y1081402D01*
X-913750Y1081403D01*
X-914311Y1087096D01*
X-916526Y1094401D01*
X-920125Y1101133D01*
X-924967Y1107033D01*
X-926445Y1108246D01*
X-961854Y1143655D01*
X-963067Y1145133D01*
X-965026Y1146741D01*
X-891000Y1146623D01*
X-885854Y1147130D01*
X-880906Y1148631D01*
X-876346Y1151068D01*
X-872349Y1154349D01*
X-869068Y1158346D01*
X-866631Y1162906D01*
X-865130Y1167854D01*
X-864623Y1173000D01*
X-864750Y1225188D01*
X-871312Y1231750D01*
X-977250Y1231750D01*
X-977250Y1229750D01*
X-994750Y1229750D01*
X-994750Y1231750D01*
X-1100688Y1231750D01*
X-1107250Y1225188D01*
X-1107311Y1200212D01*
X-1116950Y1209851D01*
X-1116950Y1308000D01*
X-1107377Y1308000D01*
X-1107250Y1255813D01*
X-1100688Y1249250D01*
X-994750Y1249250D01*
X-994750Y1327688D01*
X-977250Y1327688D01*
X-977250Y1249250D01*
X-871312Y1249250D01*
X-864750Y1255813D01*
X-864623Y1308000D01*
X-865130Y1313146D01*
X-866631Y1318094D01*
X-869068Y1322654D01*
X-872349Y1326651D01*
X-876346Y1329932D01*
X-880906Y1332369D01*
X-885854Y1333870D01*
X-891000Y1334377D01*
X-970687Y1334250D01*
X-977250Y1327688D01*
X-994750Y1327688D01*
X-1001312Y1334250D01*
X-1081000Y1334377D01*
X-1086146Y1333870D01*
X-1091094Y1332369D01*
X-1095654Y1329932D01*
X-1099651Y1326651D01*
X-1102932Y1322654D01*
X-1105369Y1318094D01*
X-1106870Y1313146D01*
X-1107377Y1308000D01*
X-1116950Y1308000D01*
X-1116950Y1445897D01*
X-1116763Y1447800D01*
X-1117511Y1455396D01*
X-1119727Y1462701D01*
X-1121610Y1466225D01*
X-1123325Y1469432D01*
X-1128167Y1475333D01*
X-1129645Y1476546D01*
X-1203154Y1550054D01*
X-1204367Y1551533D01*
X-1210268Y1556375D01*
X-1216999Y1559973D01*
X-1224304Y1562189D01*
X-1229997Y1562750D01*
X-1231900Y1562937D01*
X-1233803Y1562750D01*
X-1425047Y1562750D01*
X-1429842Y1574328D01*
X-1438327Y1587026D01*
X-1438146Y1586845D01*
G37*
X-1438146Y1586845D02*
X-1436933Y1585367D01*
X-1431033Y1580525D01*
X-1424301Y1576926D01*
X-1419212Y1575383D01*
X-1416997Y1574711D01*
X-1416219Y1574634D01*
X-1411303Y1574150D01*
X-1411302Y1574150D01*
X-1409400Y1573963D01*
X-1407498Y1574150D01*
X-1091751Y1574150D01*
X-864250Y1346649D01*
X-864250Y998778D01*
X-869758Y994258D01*
X-874904Y987988D01*
X-878727Y980834D01*
X-881082Y973072D01*
X-881877Y965000D01*
X-881877Y800000D01*
X-881082Y791928D01*
X-878727Y784166D01*
X-874904Y777012D01*
X-870570Y771731D01*
X-968551Y673750D01*
X-1059676Y673750D01*
X-1061296Y679090D01*
X-1065755Y687432D01*
X-1071756Y694744D01*
X-1079068Y700745D01*
X-1087410Y705204D01*
X-1096462Y707950D01*
X-1105875Y708877D01*
X-1149625Y708877D01*
X-1159039Y707950D01*
X-1168090Y705204D01*
X-1176432Y700745D01*
X-1183744Y694744D01*
X-1189745Y687432D01*
X-1194204Y679090D01*
X-1196950Y670039D01*
X-1197877Y660625D01*
X-1197877Y609375D01*
X-1196950Y599962D01*
X-1195065Y593749D01*
X-1217935Y593749D01*
X-1216050Y599962D01*
X-1215123Y609375D01*
X-1215123Y660625D01*
X-1216050Y670039D01*
X-1218796Y679090D01*
X-1223255Y687432D01*
X-1229256Y694744D01*
X-1236568Y700745D01*
X-1239000Y702045D01*
X-1239000Y758455D01*
X-1236568Y759755D01*
X-1229256Y765756D01*
X-1223255Y773068D01*
X-1218796Y781410D01*
X-1216050Y790461D01*
X-1215123Y799875D01*
X-1215123Y851125D01*
X-1216050Y860538D01*
X-1218796Y869590D01*
X-1223255Y877932D01*
X-1229256Y885244D01*
X-1236568Y891245D01*
X-1239000Y892545D01*
X-1239000Y948955D01*
X-1236568Y950255D01*
X-1229256Y956256D01*
X-1223255Y963568D01*
X-1220619Y968500D01*
X-1197877Y968500D01*
X-1197370Y963354D01*
X-1195869Y958406D01*
X-1193432Y953846D01*
X-1190151Y949849D01*
X-1186154Y946568D01*
X-1181594Y944131D01*
X-1176646Y942630D01*
X-1171500Y942123D01*
X-1143063Y942250D01*
X-1136500Y948812D01*
X-1136500Y1007250D01*
X-1119000Y1007250D01*
X-1119000Y948812D01*
X-1112438Y942250D01*
X-1084000Y942123D01*
X-1078854Y942630D01*
X-1073906Y944131D01*
X-1069346Y946568D01*
X-1065349Y949849D01*
X-1062068Y953846D01*
X-1059631Y958406D01*
X-1058130Y963354D01*
X-1057623Y968500D01*
X-1057750Y1000687D01*
X-1064313Y1007250D01*
X-1119000Y1007250D01*
X-1136500Y1007250D01*
X-1191188Y1007250D01*
X-1197750Y1000687D01*
X-1197877Y968500D01*
X-1220619Y968500D01*
X-1218796Y971910D01*
X-1216050Y980961D01*
X-1215123Y990375D01*
X-1215123Y1041625D01*
X-1216050Y1051039D01*
X-1218796Y1060090D01*
X-1222142Y1066350D01*
X-1214152Y1066350D01*
X-1204251Y1068320D01*
X-1196495Y1071532D01*
X-1197370Y1068646D01*
X-1197877Y1063500D01*
X-1197750Y1031312D01*
X-1191188Y1024750D01*
X-1136500Y1024750D01*
X-1136500Y1083188D01*
X-1143063Y1089750D01*
X-1171500Y1089877D01*
X-1176409Y1089394D01*
X-1173783Y1093324D01*
X-1169920Y1102651D01*
X-1167950Y1112552D01*
X-1167950Y1122648D01*
X-1169920Y1132549D01*
X-1173783Y1141876D01*
X-1179392Y1150270D01*
X-1186530Y1157409D01*
X-1194924Y1163017D01*
X-1204251Y1166881D01*
X-1214152Y1168850D01*
X-1215649Y1168850D01*
X-1279354Y1232555D01*
X-1280567Y1234033D01*
X-1286468Y1238875D01*
X-1293199Y1242474D01*
X-1300504Y1244689D01*
X-1306197Y1245250D01*
X-1308100Y1245437D01*
X-1310003Y1245250D01*
X-1420591Y1245250D01*
X-1417750Y1259535D01*
X-1417750Y1273124D01*
X-1414651Y1269349D01*
X-1410654Y1266068D01*
X-1406094Y1263631D01*
X-1401146Y1262130D01*
X-1396000Y1261623D01*
X-1351313Y1261750D01*
X-1344750Y1268313D01*
X-1344750Y1329250D01*
X-1327250Y1329250D01*
X-1327250Y1268313D01*
X-1320688Y1261750D01*
X-1276000Y1261623D01*
X-1270854Y1262130D01*
X-1265906Y1263631D01*
X-1261346Y1266068D01*
X-1257349Y1269349D01*
X-1254068Y1273346D01*
X-1251631Y1277906D01*
X-1250130Y1282854D01*
X-1249623Y1288000D01*
X-1249750Y1322688D01*
X-1256313Y1329250D01*
X-1327250Y1329250D01*
X-1344750Y1329250D01*
X-1415687Y1329250D01*
X-1422250Y1322688D01*
X-1422325Y1302180D01*
X-1429842Y1320328D01*
X-1441470Y1337730D01*
X-1456270Y1352530D01*
X-1473672Y1364158D01*
X-1493008Y1372167D01*
X-1513535Y1376250D01*
X-1534465Y1376250D01*
X-1554992Y1372167D01*
X-1574328Y1364158D01*
X-1591730Y1352530D01*
X-1606530Y1337730D01*
X-1618157Y1320328D01*
X-1626167Y1300992D01*
X-1627250Y1295547D01*
X-1627250Y1388000D01*
X-1422377Y1388000D01*
X-1422250Y1353313D01*
X-1415687Y1346750D01*
X-1344750Y1346750D01*
X-1344750Y1407687D01*
X-1327250Y1407687D01*
X-1327250Y1346750D01*
X-1256313Y1346750D01*
X-1249750Y1353313D01*
X-1249623Y1388000D01*
X-1250130Y1393146D01*
X-1251631Y1398094D01*
X-1254068Y1402654D01*
X-1257349Y1406651D01*
X-1261346Y1409932D01*
X-1265906Y1412369D01*
X-1270854Y1413870D01*
X-1276000Y1414377D01*
X-1320688Y1414250D01*
X-1327250Y1407687D01*
X-1344750Y1407687D01*
X-1351313Y1414250D01*
X-1396000Y1414377D01*
X-1401146Y1413870D01*
X-1406094Y1412369D01*
X-1410654Y1409932D01*
X-1414651Y1406651D01*
X-1417932Y1402654D01*
X-1420369Y1398094D01*
X-1421870Y1393146D01*
X-1422377Y1388000D01*
X-1627250Y1388000D01*
X-1627250Y1498453D01*
X-1626167Y1493008D01*
X-1618157Y1473672D01*
X-1606530Y1456270D01*
X-1591730Y1441470D01*
X-1574328Y1429842D01*
X-1554992Y1421833D01*
X-1534465Y1417750D01*
X-1513535Y1417750D01*
X-1493008Y1421833D01*
X-1473672Y1429842D01*
X-1456270Y1441470D01*
X-1441470Y1456270D01*
X-1429842Y1473672D01*
X-1425047Y1485250D01*
X-1247951Y1485250D01*
X-1194450Y1431749D01*
X-1194450Y1195703D01*
X-1194637Y1193800D01*
X-1193889Y1186204D01*
X-1193245Y1184080D01*
X-1191674Y1178899D01*
X-1188075Y1172168D01*
X-1183233Y1166267D01*
X-1181755Y1165054D01*
X-1108246Y1091545D01*
X-1107033Y1090067D01*
X-1106678Y1089776D01*
X-1112438Y1089750D01*
X-1119000Y1083188D01*
X-1119000Y1024750D01*
X-1064313Y1024750D01*
X-1057750Y1031312D01*
X-1057623Y1063500D01*
X-1058130Y1068646D01*
X-1059631Y1073594D01*
X-1062068Y1078154D01*
X-1062639Y1078850D01*
X-1006651Y1078850D01*
X-991250Y1063449D01*
X-991250Y998778D01*
X-996758Y994258D01*
X-1001904Y987988D01*
X-1005727Y980834D01*
X-1008082Y973072D01*
X-1008877Y965000D01*
X-1008877Y921346D01*
X-1009800Y921437D01*
X-1017396Y920689D01*
X-1024701Y918473D01*
X-1026522Y917500D01*
X-1031432Y914875D01*
X-1037333Y910033D01*
X-1038546Y908555D01*
X-1067294Y879807D01*
X-1071756Y885244D01*
X-1079068Y891245D01*
X-1087410Y895704D01*
X-1096462Y898450D01*
X-1105875Y899377D01*
X-1149625Y899377D01*
X-1159039Y898450D01*
X-1168090Y895704D01*
X-1176432Y891245D01*
X-1183744Y885244D01*
X-1189745Y877932D01*
X-1194204Y869590D01*
X-1196950Y860538D01*
X-1197877Y851125D01*
X-1197877Y799875D01*
X-1196950Y790461D01*
X-1194204Y781410D01*
X-1189745Y773068D01*
X-1183744Y765756D01*
X-1176432Y759755D01*
X-1168090Y755296D01*
X-1159039Y752550D01*
X-1149625Y751623D01*
X-1105875Y751623D01*
X-1096462Y752550D01*
X-1087410Y755296D01*
X-1079068Y759755D01*
X-1071756Y765756D01*
X-1065755Y773068D01*
X-1061296Y781410D01*
X-1059515Y787280D01*
X-1059204Y787311D01*
X-1051899Y789526D01*
X-1045167Y793125D01*
X-1039267Y797967D01*
X-1038054Y799445D01*
X-1008877Y828622D01*
X-1008877Y800000D01*
X-1008082Y791928D01*
X-1005727Y784166D01*
X-1001904Y777012D01*
X-996758Y770742D01*
X-990488Y765596D01*
X-983334Y761773D01*
X-975572Y759418D01*
X-967500Y758623D01*
X-937500Y758623D01*
X-929428Y759418D01*
X-921666Y761773D01*
X-914512Y765596D01*
X-908242Y770742D01*
X-903096Y777012D01*
X-899273Y784166D01*
X-896918Y791928D01*
X-896123Y800000D01*
X-896123Y965000D01*
X-896918Y973072D01*
X-899273Y980834D01*
X-903096Y987988D01*
X-908242Y994258D01*
X-913750Y998778D01*
X-913750Y1077598D01*
X-913563Y1079500D01*
X-913750Y1081402D01*
X-913750Y1081403D01*
X-914311Y1087096D01*
X-916526Y1094401D01*
X-920125Y1101133D01*
X-924967Y1107033D01*
X-926445Y1108246D01*
X-961854Y1143655D01*
X-963067Y1145133D01*
X-965026Y1146741D01*
X-891000Y1146623D01*
X-885854Y1147130D01*
X-880906Y1148631D01*
X-876346Y1151068D01*
X-872349Y1154349D01*
X-869068Y1158346D01*
X-866631Y1162906D01*
X-865130Y1167854D01*
X-864623Y1173000D01*
X-864750Y1225188D01*
X-871312Y1231750D01*
X-977250Y1231750D01*
X-977250Y1229750D01*
X-994750Y1229750D01*
X-994750Y1231750D01*
X-1100688Y1231750D01*
X-1107250Y1225188D01*
X-1107311Y1200212D01*
X-1116950Y1209851D01*
X-1116950Y1308000D01*
X-1107377Y1308000D01*
X-1107250Y1255813D01*
X-1100688Y1249250D01*
X-994750Y1249250D01*
X-994750Y1327688D01*
X-977250Y1327688D01*
X-977250Y1249250D01*
X-871312Y1249250D01*
X-864750Y1255813D01*
X-864623Y1308000D01*
X-865130Y1313146D01*
X-866631Y1318094D01*
X-869068Y1322654D01*
X-872349Y1326651D01*
X-876346Y1329932D01*
X-880906Y1332369D01*
X-885854Y1333870D01*
X-891000Y1334377D01*
X-970687Y1334250D01*
X-977250Y1327688D01*
X-994750Y1327688D01*
X-1001312Y1334250D01*
X-1081000Y1334377D01*
X-1086146Y1333870D01*
X-1091094Y1332369D01*
X-1095654Y1329932D01*
X-1099651Y1326651D01*
X-1102932Y1322654D01*
X-1105369Y1318094D01*
X-1106870Y1313146D01*
X-1107377Y1308000D01*
X-1116950Y1308000D01*
X-1116950Y1445897D01*
X-1116763Y1447800D01*
X-1117511Y1455396D01*
X-1119727Y1462701D01*
X-1121610Y1466225D01*
X-1123325Y1469432D01*
X-1128167Y1475333D01*
X-1129645Y1476546D01*
X-1203154Y1550054D01*
X-1204367Y1551533D01*
X-1210268Y1556375D01*
X-1216999Y1559973D01*
X-1224304Y1562189D01*
X-1229997Y1562750D01*
X-1231900Y1562937D01*
X-1233803Y1562750D01*
X-1425047Y1562750D01*
X-1429842Y1574328D01*
X-1438327Y1587026D01*
X-1438146Y1586845D01*
D27*
X-520700Y2197100D03*
X-952500Y1397000D03*
X-889000Y1079500D03*
X-850900Y635000D03*
X-355600Y254000D03*
X-1206500Y1841500D03*
X-1079500Y1968500D03*
X-635000Y1079500D03*
X-190500Y63500D03*
X-762000Y1524000D03*
X-1016000Y736600D03*
X-1016000Y1016000D03*
X-1244600Y1435100D03*
X-520700Y1968500D03*
X-1079500Y1397000D03*
X-1079500Y0D03*
X-190500Y-76200D03*
X-127000Y1651000D03*
X-279400Y1117600D03*
X-723900Y1955800D03*
D28*
X-698500Y2095500D03*
X-1333500Y1143000D03*
X-292100Y2032000D03*
D27*
X-571500Y569999D03*
X-444502Y190502D03*
X-762000Y1181100D03*
X-1016000Y2171700D03*
X-1397000Y1092200D03*
X-574059Y60940D03*
X-571500Y139700D03*
X-317500Y1612900D03*
X-190500Y1270000D03*
X-393700Y1498600D03*
X-825500Y241300D03*
X-1219200Y1117600D03*
X-1079499Y101600D03*
D29*
X0Y2794000D03*
X0Y2540000D03*
X0Y2286000D03*
X-1524000Y0D03*
X0Y2032000D03*
X-1524000Y254000D03*
X0Y1778000D03*
X-1524000Y508000D03*
X0Y1524000D03*
X-1524000Y762000D03*
X0Y1270000D03*
X-1524000Y1016000D03*
X0Y1016000D03*
X-1524000Y1270000D03*
X0Y762000D03*
X-1524000Y1524000D03*
X0Y508000D03*
X-1524000Y1778000D03*
X0Y254000D03*
X-1524000Y2032000D03*
X0Y0D03*
X-1524000Y2286000D03*
X-1524000Y2540000D03*
X-1524000Y2794000D03*
X-254000Y635000D03*
M02*
