%TF.GenerationSoftware,KiCad,Pcbnew,5.1.6+dfsg1-1~bpo10+1*%
%TF.CreationDate,2020-07-11T10:35:13+00:00*%
%TF.ProjectId,ProMicro_TEST,50726f4d-6963-4726-9f5f-544553542e6b,v1.0*%
%TF.SameCoordinates,Original*%
%TF.FileFunction,Other,Fab,Top*%
%FSLAX45Y45*%
G04 Gerber Fmt 4.5, Leading zero omitted, Abs format (unit mm)*
G04 Created by KiCad (PCBNEW 5.1.6+dfsg1-1~bpo10+1) date 2020-07-11 10:35:13*
%MOMM*%
%LPD*%
G01*
G04 APERTURE LIST*
%TA.AperFunction,Profile*%
%ADD10C,0.100000*%
%TD*%
%ADD11C,0.100000*%
%ADD12C,0.040000*%
%ADD13C,0.060000*%
G04 APERTURE END LIST*
D10*
X127000Y2857500D02*
X127000Y-63500D01*
X-1651000Y-63500D02*
X-1651000Y2857500D01*
X-1587500Y-127000D02*
G75*
G02*
X-1651000Y-63500I0J63500D01*
G01*
X127000Y-63500D02*
G75*
G02*
X63500Y-127000I-63500J0D01*
G01*
X63500Y2921000D02*
G75*
G02*
X127000Y2857500I0J-63500D01*
G01*
X-1651000Y2857500D02*
G75*
G02*
X-1587500Y2921000I63500J0D01*
G01*
X63500Y-127000D02*
X-1587500Y-127000D01*
X-1587500Y2921000D02*
X63500Y2921000D01*
D11*
X-1307300Y1753000D02*
X-1307300Y1803000D01*
X-1307300Y1803000D02*
X-1207300Y1803000D01*
X-1207300Y1803000D02*
X-1207300Y1753000D01*
X-1207300Y1753000D02*
X-1307300Y1753000D01*
X-1307300Y1499000D02*
X-1307300Y1549000D01*
X-1307300Y1549000D02*
X-1207300Y1549000D01*
X-1207300Y1549000D02*
X-1207300Y1499000D01*
X-1207300Y1499000D02*
X-1307300Y1499000D01*
X-201300Y2206000D02*
X-281300Y2206000D01*
X-281300Y2206000D02*
X-281300Y2366000D01*
X-281300Y2366000D02*
X-201300Y2366000D01*
X-201300Y2366000D02*
X-201300Y2206000D01*
X-343300Y2236000D02*
X-393300Y2236000D01*
X-393300Y2236000D02*
X-393300Y2336000D01*
X-393300Y2336000D02*
X-343300Y2336000D01*
X-343300Y2336000D02*
X-343300Y2236000D01*
X126000Y2904000D02*
X126000Y-111000D01*
X-1604000Y2904000D02*
X126000Y2904000D01*
X-1604000Y2904000D02*
X-1651000Y2854000D01*
X-1651000Y-111000D02*
X-1651000Y2854000D01*
X126000Y-111000D02*
X-1651000Y-111000D01*
D12*
X-1261467Y1766690D02*
X-1269800Y1778595D01*
X-1275752Y1766690D02*
X-1275752Y1791690D01*
X-1266229Y1791690D01*
X-1263848Y1790500D01*
X-1262657Y1789310D01*
X-1261467Y1786929D01*
X-1261467Y1783357D01*
X-1262657Y1780976D01*
X-1263848Y1779786D01*
X-1266229Y1778595D01*
X-1275752Y1778595D01*
X-1240038Y1783357D02*
X-1240038Y1766690D01*
X-1245991Y1792881D02*
X-1251943Y1775024D01*
X-1236467Y1775024D01*
X-1261467Y1512690D02*
X-1269800Y1524595D01*
X-1275752Y1512690D02*
X-1275752Y1537690D01*
X-1266229Y1537690D01*
X-1263848Y1536500D01*
X-1262657Y1535310D01*
X-1261467Y1532929D01*
X-1261467Y1529357D01*
X-1262657Y1526976D01*
X-1263848Y1525786D01*
X-1266229Y1524595D01*
X-1275752Y1524595D01*
X-1253133Y1537690D02*
X-1237657Y1537690D01*
X-1245991Y1528167D01*
X-1242419Y1528167D01*
X-1240038Y1526976D01*
X-1238848Y1525786D01*
X-1237657Y1523405D01*
X-1237657Y1517452D01*
X-1238848Y1515071D01*
X-1240038Y1513881D01*
X-1242419Y1512690D01*
X-1249562Y1512690D01*
X-1251943Y1513881D01*
X-1253133Y1515071D01*
D13*
X-227014Y2279333D02*
X-225110Y2277429D01*
X-223205Y2271714D01*
X-223205Y2267905D01*
X-225110Y2262191D01*
X-228919Y2258381D01*
X-232729Y2256476D01*
X-240348Y2254572D01*
X-246062Y2254572D01*
X-253681Y2256476D01*
X-257490Y2258381D01*
X-261300Y2262191D01*
X-263205Y2267905D01*
X-263205Y2271714D01*
X-261300Y2277429D01*
X-259395Y2279333D01*
X-249871Y2313619D02*
X-223205Y2313619D01*
X-265110Y2304095D02*
X-236538Y2294572D01*
X-236538Y2319333D01*
D12*
X-359371Y2281833D02*
X-358181Y2280643D01*
X-356990Y2277072D01*
X-356990Y2274691D01*
X-358181Y2271119D01*
X-360562Y2268738D01*
X-362943Y2267548D01*
X-367705Y2266357D01*
X-371276Y2266357D01*
X-376038Y2267548D01*
X-378419Y2268738D01*
X-380800Y2271119D01*
X-381990Y2274691D01*
X-381990Y2277072D01*
X-380800Y2280643D01*
X-379610Y2281833D01*
X-356990Y2305643D02*
X-356990Y2291357D01*
X-356990Y2298500D02*
X-381990Y2298500D01*
X-378419Y2296119D01*
X-376038Y2293738D01*
X-374848Y2291357D01*
M02*
