%TF.GenerationSoftware,KiCad,Pcbnew,5.1.5+dfsg1-2~bpo10+1*%
%TF.CreationDate,Date%
%TF.ProjectId,ProMicro_TEST,50726f4d-6963-4726-9f5f-544553542e6b,v1.0*%
%TF.SameCoordinates,Original*%
%TF.FileFunction,OtherDrawing,Comment*%
%FSLAX45Y45*%
G04 Gerber Fmt 4.5, Leading zero omitted, Abs format (unit mm)*
G04 Created by KiCad*
%MOMM*%
%LPD*%
G04 APERTURE LIST*
%ADD10C,0.100000*%
%ADD11C,0.150000*%
G04 APERTURE END LIST*
D10*
X127000Y2857500D02*
X127000Y-63500D01*
X-1651000Y-63500D02*
X-1651000Y2857500D01*
D11*
X565762Y1816048D02*
X565762Y1754143D01*
X527667Y1787476D01*
X527667Y1773190D01*
X522905Y1763667D01*
X518143Y1758905D01*
X508619Y1754143D01*
X484809Y1754143D01*
X475286Y1758905D01*
X470524Y1763667D01*
X465762Y1773190D01*
X465762Y1801762D01*
X470524Y1811286D01*
X475286Y1816048D01*
X565762Y1692238D02*
X565762Y1682714D01*
X561000Y1673190D01*
X556238Y1668429D01*
X546714Y1663667D01*
X527667Y1658905D01*
X503857Y1658905D01*
X484809Y1663667D01*
X475286Y1668429D01*
X470524Y1673190D01*
X465762Y1682714D01*
X465762Y1692238D01*
X470524Y1701762D01*
X475286Y1706524D01*
X484809Y1711286D01*
X503857Y1716048D01*
X527667Y1716048D01*
X546714Y1711286D01*
X556238Y1706524D01*
X561000Y1701762D01*
X565762Y1692238D01*
X470524Y1611286D02*
X465762Y1611286D01*
X456238Y1616048D01*
X451476Y1620810D01*
X532429Y1525571D02*
X465762Y1525571D01*
X570524Y1549381D02*
X499095Y1573190D01*
X499095Y1511286D01*
X522905Y1458905D02*
X527667Y1468429D01*
X532429Y1473190D01*
X541952Y1477952D01*
X546714Y1477952D01*
X556238Y1473190D01*
X561000Y1468429D01*
X565762Y1458905D01*
X565762Y1439857D01*
X561000Y1430333D01*
X556238Y1425571D01*
X546714Y1420810D01*
X541952Y1420810D01*
X532429Y1425571D01*
X527667Y1430333D01*
X522905Y1439857D01*
X522905Y1458905D01*
X518143Y1468429D01*
X513381Y1473190D01*
X503857Y1477952D01*
X484809Y1477952D01*
X475286Y1473190D01*
X470524Y1468429D01*
X465762Y1458905D01*
X465762Y1439857D01*
X470524Y1430333D01*
X475286Y1425571D01*
X484809Y1420810D01*
X503857Y1420810D01*
X513381Y1425571D01*
X518143Y1430333D01*
X522905Y1439857D01*
X565762Y1358905D02*
X565762Y1349381D01*
X561000Y1339857D01*
X556238Y1335095D01*
X546714Y1330333D01*
X527667Y1325572D01*
X503857Y1325572D01*
X484809Y1330333D01*
X475286Y1335095D01*
X470524Y1339857D01*
X465762Y1349381D01*
X465762Y1358905D01*
X470524Y1368429D01*
X475286Y1373191D01*
X484809Y1377952D01*
X503857Y1382714D01*
X527667Y1382714D01*
X546714Y1377952D01*
X556238Y1373191D01*
X561000Y1368429D01*
X565762Y1358905D01*
X465762Y1206524D02*
X532429Y1206524D01*
X522905Y1206524D02*
X527667Y1201762D01*
X532429Y1192238D01*
X532429Y1177952D01*
X527667Y1168429D01*
X518143Y1163667D01*
X465762Y1163667D01*
X518143Y1163667D02*
X527667Y1158905D01*
X532429Y1149381D01*
X532429Y1135095D01*
X527667Y1125572D01*
X518143Y1120810D01*
X465762Y1120810D01*
X465762Y1073191D02*
X532429Y1073191D01*
X522905Y1073191D02*
X527667Y1068429D01*
X532429Y1058905D01*
X532429Y1044619D01*
X527667Y1035095D01*
X518143Y1030333D01*
X465762Y1030333D01*
X518143Y1030333D02*
X527667Y1025571D01*
X532429Y1016048D01*
X532429Y1001762D01*
X527667Y992238D01*
X518143Y987476D01*
X465762Y987476D01*
X381000Y2921000D02*
X381000Y-127000D01*
X0Y2921000D02*
X439642Y2921000D01*
X0Y-127000D02*
X439642Y-127000D01*
X381000Y-127000D02*
X322358Y-14350D01*
X381000Y-127000D02*
X439642Y-14350D01*
X381000Y2921000D02*
X322358Y2808350D01*
X381000Y2921000D02*
X439642Y2808350D01*
X-1119143Y3259762D02*
X-1176286Y3259762D01*
X-1147714Y3259762D02*
X-1147714Y3359762D01*
X-1157238Y3345476D01*
X-1166762Y3335952D01*
X-1176286Y3331190D01*
X-1085810Y3359762D02*
X-1019143Y3359762D01*
X-1062000Y3259762D01*
X-976286Y3264524D02*
X-976286Y3259762D01*
X-981048Y3250238D01*
X-985810Y3245476D01*
X-942952Y3359762D02*
X-876286Y3359762D01*
X-919143Y3259762D01*
X-823905Y3316905D02*
X-833429Y3321667D01*
X-838190Y3326429D01*
X-842952Y3335952D01*
X-842952Y3340714D01*
X-838190Y3350238D01*
X-833429Y3355000D01*
X-823905Y3359762D01*
X-804857Y3359762D01*
X-795333Y3355000D01*
X-790571Y3350238D01*
X-785810Y3340714D01*
X-785810Y3335952D01*
X-790571Y3326429D01*
X-795333Y3321667D01*
X-804857Y3316905D01*
X-823905Y3316905D01*
X-833429Y3312143D01*
X-838190Y3307381D01*
X-842952Y3297857D01*
X-842952Y3278810D01*
X-838190Y3269286D01*
X-833429Y3264524D01*
X-823905Y3259762D01*
X-804857Y3259762D01*
X-795333Y3264524D01*
X-790571Y3269286D01*
X-785810Y3278810D01*
X-785810Y3297857D01*
X-790571Y3307381D01*
X-795333Y3312143D01*
X-804857Y3316905D01*
X-723905Y3359762D02*
X-714381Y3359762D01*
X-704857Y3355000D01*
X-700095Y3350238D01*
X-695333Y3340714D01*
X-690572Y3321667D01*
X-690572Y3297857D01*
X-695333Y3278810D01*
X-700095Y3269286D01*
X-704857Y3264524D01*
X-714381Y3259762D01*
X-723905Y3259762D01*
X-733429Y3264524D01*
X-738190Y3269286D01*
X-742952Y3278810D01*
X-747714Y3297857D01*
X-747714Y3321667D01*
X-742952Y3340714D01*
X-738190Y3350238D01*
X-733429Y3355000D01*
X-723905Y3359762D01*
X-571524Y3259762D02*
X-571524Y3326429D01*
X-571524Y3316905D02*
X-566762Y3321667D01*
X-557238Y3326429D01*
X-542952Y3326429D01*
X-533429Y3321667D01*
X-528667Y3312143D01*
X-528667Y3259762D01*
X-528667Y3312143D02*
X-523905Y3321667D01*
X-514381Y3326429D01*
X-500095Y3326429D01*
X-490571Y3321667D01*
X-485810Y3312143D01*
X-485810Y3259762D01*
X-438190Y3259762D02*
X-438190Y3326429D01*
X-438190Y3316905D02*
X-433429Y3321667D01*
X-423905Y3326429D01*
X-409619Y3326429D01*
X-400095Y3321667D01*
X-395333Y3312143D01*
X-395333Y3259762D01*
X-395333Y3312143D02*
X-390571Y3321667D01*
X-381048Y3326429D01*
X-366762Y3326429D01*
X-357238Y3321667D01*
X-352476Y3312143D01*
X-352476Y3259762D01*
X-1651000Y3175000D02*
X127000Y3175000D01*
X-1651000Y2794000D02*
X-1651000Y3233642D01*
X127000Y2794000D02*
X127000Y3233642D01*
X127000Y3175000D02*
X14350Y3116358D01*
X127000Y3175000D02*
X14350Y3233642D01*
X-1651000Y3175000D02*
X-1538350Y3116358D01*
X-1651000Y3175000D02*
X-1538350Y3233642D01*
D10*
X-1587500Y-127000D02*
G75*
G02X-1651000Y-63500I0J63500D01*
G01*
X127000Y-63500D02*
G75*
G02X63500Y-127000I-63500J0D01*
G01*
X63500Y2921000D02*
G75*
G02X127000Y2857500I0J-63500D01*
G01*
X-1651000Y2857500D02*
G75*
G02X-1587500Y2921000I63500J0D01*
G01*
X63500Y-127000D02*
X-1587500Y-127000D01*
X-1587500Y2921000D02*
X63500Y2921000D01*
M02*
