%TF.GenerationSoftware,KiCad,Pcbnew,5.1.6+dfsg1-1~bpo10+1*%
%TF.CreationDate,2020-07-13T20:25:26+00:00*%
%TF.ProjectId,ProMicro_LOG,50726f4d-6963-4726-9f5f-4c4f472e6b69,v1.0*%
%TF.SameCoordinates,Original*%
%TF.FileFunction,Soldermask,Top*%
%TF.FilePolarity,Negative*%
%FSLAX45Y45*%
G04 Gerber Fmt 4.5, Leading zero omitted, Abs format (unit mm)*
G04 Created by KiCad (PCBNEW 5.1.6+dfsg1-1~bpo10+1) date 2020-07-13 20:25:26*
%MOMM*%
%LPD*%
G01*
G04 APERTURE LIST*
%TA.AperFunction,Profile*%
%ADD10C,0.100000*%
%TD*%
%ADD11O,1.600000X1.600000*%
%ADD12R,1.600000X1.600000*%
%ADD13C,0.150000*%
%ADD14R,1.500000X1.000000*%
%ADD15C,2.000000*%
%ADD16R,1.900000X1.350000*%
%ADD17R,1.200000X1.000000*%
%ADD18R,1.550000X1.350000*%
%ADD19R,1.170000X1.800000*%
%ADD20R,0.850000X1.100000*%
%ADD21R,0.750000X1.100000*%
G04 APERTURE END LIST*
D10*
X-1587500Y2921000D02*
G75*
G03*
X-1651000Y2857500I0J-63500D01*
G01*
X127000Y2857500D02*
G75*
G03*
X63500Y2921000I-63500J0D01*
G01*
X63500Y-127000D02*
G75*
G03*
X127000Y-63500I0J63500D01*
G01*
X-1651000Y-63500D02*
G75*
G03*
X-1587500Y-127000I63500J0D01*
G01*
X-1651000Y2857500D02*
X-1651000Y-63500D01*
X63500Y2921000D02*
X-1587500Y2921000D01*
X127000Y-63500D02*
X127000Y2857500D01*
X-1587500Y-127000D02*
X63500Y-127000D01*
D11*
X0Y2794000D03*
X0Y2540000D03*
X0Y2286000D03*
X-1524000Y0D03*
X0Y2032000D03*
X-1524000Y254000D03*
X0Y1778000D03*
X-1524000Y508000D03*
X0Y1524000D03*
X-1524000Y762000D03*
X0Y1270000D03*
X-1524000Y1016000D03*
X0Y1016000D03*
X-1524000Y1270000D03*
X0Y762000D03*
X-1524000Y1524000D03*
X0Y508000D03*
X-1524000Y1778000D03*
X0Y254000D03*
X-1524000Y2032000D03*
X0Y0D03*
X-1524000Y2286000D03*
X-1524000Y2540000D03*
D12*
X-1524000Y2794000D03*
G36*
G01*
X-343125Y28500D02*
X-291875Y28500D01*
G75*
G02*
X-270000Y6625I0J-21875D01*
G01*
X-270000Y-37125D01*
G75*
G02*
X-291875Y-59000I-21875J0D01*
G01*
X-343125Y-59000D01*
G75*
G02*
X-365000Y-37125I0J21875D01*
G01*
X-365000Y6625D01*
G75*
G02*
X-343125Y28500I21875J0D01*
G01*
G37*
G36*
G01*
X-343125Y186000D02*
X-291875Y186000D01*
G75*
G02*
X-270000Y164125I0J-21875D01*
G01*
X-270000Y120375D01*
G75*
G02*
X-291875Y98500I-21875J0D01*
G01*
X-343125Y98500D01*
G75*
G02*
X-365000Y120375I0J21875D01*
G01*
X-365000Y164125D01*
G75*
G02*
X-343125Y186000I21875J0D01*
G01*
G37*
G36*
G01*
X-1171500Y990375D02*
X-1171500Y1041625D01*
G75*
G02*
X-1149625Y1063500I21875J0D01*
G01*
X-1105875Y1063500D01*
G75*
G02*
X-1084000Y1041625I0J-21875D01*
G01*
X-1084000Y990375D01*
G75*
G02*
X-1105875Y968500I-21875J0D01*
G01*
X-1149625Y968500D01*
G75*
G02*
X-1171500Y990375I0J21875D01*
G01*
G37*
G36*
G01*
X-1329000Y990375D02*
X-1329000Y1041625D01*
G75*
G02*
X-1307125Y1063500I21875J0D01*
G01*
X-1263375Y1063500D01*
G75*
G02*
X-1241500Y1041625I0J-21875D01*
G01*
X-1241500Y990375D01*
G75*
G02*
X-1263375Y968500I-21875J0D01*
G01*
X-1307125Y968500D01*
G75*
G02*
X-1329000Y990375I0J21875D01*
G01*
G37*
D13*
G36*
X-1131500Y52000D02*
G01*
X-1131500Y-3000D01*
X-1131560Y-3000D01*
X-1131560Y-5453D01*
X-1132041Y-10337D01*
X-1132998Y-15149D01*
X-1134423Y-19845D01*
X-1136301Y-24378D01*
X-1138614Y-28705D01*
X-1141340Y-32785D01*
X-1144452Y-36578D01*
X-1147922Y-40048D01*
X-1151715Y-43160D01*
X-1155795Y-45886D01*
X-1160122Y-48199D01*
X-1164656Y-50077D01*
X-1169351Y-51502D01*
X-1174164Y-52459D01*
X-1179047Y-52940D01*
X-1181500Y-52940D01*
X-1181500Y-53000D01*
X-1231500Y-53000D01*
X-1231500Y-52940D01*
X-1233953Y-52940D01*
X-1238837Y-52459D01*
X-1243649Y-51502D01*
X-1248345Y-50077D01*
X-1252878Y-48199D01*
X-1257205Y-45886D01*
X-1261285Y-43160D01*
X-1265078Y-40048D01*
X-1268548Y-36578D01*
X-1271660Y-32785D01*
X-1274386Y-28705D01*
X-1276700Y-24378D01*
X-1278577Y-19845D01*
X-1280002Y-15149D01*
X-1280959Y-10337D01*
X-1281440Y-5453D01*
X-1281440Y-3000D01*
X-1281500Y-3000D01*
X-1281500Y52000D01*
X-1131500Y52000D01*
G37*
D14*
X-1206500Y127000D03*
D13*
G36*
X-1281440Y257000D02*
G01*
X-1281440Y259453D01*
X-1280959Y264337D01*
X-1280002Y269149D01*
X-1278577Y273845D01*
X-1276700Y278378D01*
X-1274386Y282705D01*
X-1271660Y286785D01*
X-1268548Y290578D01*
X-1265078Y294048D01*
X-1261285Y297160D01*
X-1257205Y299886D01*
X-1252878Y302200D01*
X-1248345Y304077D01*
X-1243649Y305502D01*
X-1238837Y306459D01*
X-1233953Y306940D01*
X-1231500Y306940D01*
X-1231500Y307000D01*
X-1181500Y307000D01*
X-1181500Y306940D01*
X-1179047Y306940D01*
X-1174164Y306459D01*
X-1169351Y305502D01*
X-1164656Y304077D01*
X-1160122Y302200D01*
X-1155795Y299886D01*
X-1151715Y297160D01*
X-1147922Y294048D01*
X-1144452Y290578D01*
X-1141340Y286785D01*
X-1138614Y282705D01*
X-1136301Y278378D01*
X-1134423Y273845D01*
X-1132998Y269149D01*
X-1132041Y264337D01*
X-1131560Y259453D01*
X-1131560Y257000D01*
X-1131500Y257000D01*
X-1131500Y202000D01*
X-1281500Y202000D01*
X-1281500Y257000D01*
X-1281440Y257000D01*
G37*
G36*
G01*
X-355375Y987500D02*
X-406625Y987500D01*
G75*
G02*
X-428500Y1009375I0J21875D01*
G01*
X-428500Y1053125D01*
G75*
G02*
X-406625Y1075000I21875J0D01*
G01*
X-355375Y1075000D01*
G75*
G02*
X-333500Y1053125I0J-21875D01*
G01*
X-333500Y1009375D01*
G75*
G02*
X-355375Y987500I-21875J0D01*
G01*
G37*
G36*
G01*
X-355375Y830000D02*
X-406625Y830000D01*
G75*
G02*
X-428500Y851875I0J21875D01*
G01*
X-428500Y895625D01*
G75*
G02*
X-406625Y917500I21875J0D01*
G01*
X-355375Y917500D01*
G75*
G02*
X-333500Y895625I0J-21875D01*
G01*
X-333500Y851875D01*
G75*
G02*
X-355375Y830000I-21875J0D01*
G01*
G37*
G36*
G01*
X-164875Y987500D02*
X-216125Y987500D01*
G75*
G02*
X-238000Y1009375I0J21875D01*
G01*
X-238000Y1053125D01*
G75*
G02*
X-216125Y1075000I21875J0D01*
G01*
X-164875Y1075000D01*
G75*
G02*
X-143000Y1053125I0J-21875D01*
G01*
X-143000Y1009375D01*
G75*
G02*
X-164875Y987500I-21875J0D01*
G01*
G37*
G36*
G01*
X-164875Y830000D02*
X-216125Y830000D01*
G75*
G02*
X-238000Y851875I0J21875D01*
G01*
X-238000Y895625D01*
G75*
G02*
X-216125Y917500I21875J0D01*
G01*
X-164875Y917500D01*
G75*
G02*
X-143000Y895625I0J-21875D01*
G01*
X-143000Y851875D01*
G75*
G02*
X-164875Y830000I-21875J0D01*
G01*
G37*
G36*
G01*
X-1171500Y799875D02*
X-1171500Y851125D01*
G75*
G02*
X-1149625Y873000I21875J0D01*
G01*
X-1105875Y873000D01*
G75*
G02*
X-1084000Y851125I0J-21875D01*
G01*
X-1084000Y799875D01*
G75*
G02*
X-1105875Y778000I-21875J0D01*
G01*
X-1149625Y778000D01*
G75*
G02*
X-1171500Y799875I0J21875D01*
G01*
G37*
G36*
G01*
X-1329000Y799875D02*
X-1329000Y851125D01*
G75*
G02*
X-1307125Y873000I21875J0D01*
G01*
X-1263375Y873000D01*
G75*
G02*
X-1241500Y851125I0J-21875D01*
G01*
X-1241500Y799875D01*
G75*
G02*
X-1263375Y778000I-21875J0D01*
G01*
X-1307125Y778000D01*
G75*
G02*
X-1329000Y799875I0J21875D01*
G01*
G37*
G36*
G01*
X-1171500Y609375D02*
X-1171500Y660625D01*
G75*
G02*
X-1149625Y682500I21875J0D01*
G01*
X-1105875Y682500D01*
G75*
G02*
X-1084000Y660625I0J-21875D01*
G01*
X-1084000Y609375D01*
G75*
G02*
X-1105875Y587500I-21875J0D01*
G01*
X-1149625Y587500D01*
G75*
G02*
X-1171500Y609375I0J21875D01*
G01*
G37*
G36*
G01*
X-1329000Y609375D02*
X-1329000Y660625D01*
G75*
G02*
X-1307125Y682500I21875J0D01*
G01*
X-1263375Y682500D01*
G75*
G02*
X-1241500Y660625I0J-21875D01*
G01*
X-1241500Y609375D01*
G75*
G02*
X-1263375Y587500I-21875J0D01*
G01*
X-1307125Y587500D01*
G75*
G02*
X-1329000Y609375I0J21875D01*
G01*
G37*
G36*
G01*
X-1171500Y418875D02*
X-1171500Y470125D01*
G75*
G02*
X-1149625Y492000I21875J0D01*
G01*
X-1105875Y492000D01*
G75*
G02*
X-1084000Y470125I0J-21875D01*
G01*
X-1084000Y418875D01*
G75*
G02*
X-1105875Y397000I-21875J0D01*
G01*
X-1149625Y397000D01*
G75*
G02*
X-1171500Y418875I0J21875D01*
G01*
G37*
G36*
G01*
X-1329000Y418875D02*
X-1329000Y470125D01*
G75*
G02*
X-1307125Y492000I21875J0D01*
G01*
X-1263375Y492000D01*
G75*
G02*
X-1241500Y470125I0J-21875D01*
G01*
X-1241500Y418875D01*
G75*
G02*
X-1263375Y397000I-21875J0D01*
G01*
X-1307125Y397000D01*
G75*
G02*
X-1329000Y418875I0J21875D01*
G01*
G37*
G36*
G01*
X-352500Y406625D02*
X-352500Y355375D01*
G75*
G02*
X-374375Y333500I-21875J0D01*
G01*
X-418125Y333500D01*
G75*
G02*
X-440000Y355375I0J21875D01*
G01*
X-440000Y406625D01*
G75*
G02*
X-418125Y428500I21875J0D01*
G01*
X-374375Y428500D01*
G75*
G02*
X-352500Y406625I0J-21875D01*
G01*
G37*
G36*
G01*
X-195000Y406625D02*
X-195000Y355375D01*
G75*
G02*
X-216875Y333500I-21875J0D01*
G01*
X-260625Y333500D01*
G75*
G02*
X-282500Y355375I0J21875D01*
G01*
X-282500Y406625D01*
G75*
G02*
X-260625Y428500I21875J0D01*
G01*
X-216875Y428500D01*
G75*
G02*
X-195000Y406625I0J-21875D01*
G01*
G37*
G36*
X-877560Y-1500D02*
G01*
X-877560Y-3953D01*
X-878041Y-8837D01*
X-878998Y-13649D01*
X-880423Y-18345D01*
X-882300Y-22878D01*
X-884614Y-27205D01*
X-887340Y-31285D01*
X-890452Y-35078D01*
X-893922Y-38548D01*
X-897715Y-41660D01*
X-901795Y-44386D01*
X-906122Y-46699D01*
X-910655Y-48577D01*
X-915351Y-50002D01*
X-920163Y-50959D01*
X-925047Y-51440D01*
X-927500Y-51440D01*
X-927500Y-51500D01*
X-977500Y-51500D01*
X-977500Y-51440D01*
X-979953Y-51440D01*
X-984836Y-50959D01*
X-989649Y-50002D01*
X-994344Y-48577D01*
X-998878Y-46699D01*
X-1003205Y-44386D01*
X-1007285Y-41660D01*
X-1011078Y-38548D01*
X-1014548Y-35078D01*
X-1017660Y-31285D01*
X-1020386Y-27205D01*
X-1022699Y-22878D01*
X-1024577Y-18345D01*
X-1026002Y-13649D01*
X-1026959Y-8837D01*
X-1027440Y-3953D01*
X-1027440Y-1500D01*
X-1027500Y-1500D01*
X-1027500Y48500D01*
X-877500Y48500D01*
X-877500Y-1500D01*
X-877560Y-1500D01*
G37*
G36*
X-1027500Y78500D02*
G01*
X-1027500Y128500D01*
X-1027440Y128500D01*
X-1027440Y130953D01*
X-1026959Y135837D01*
X-1026002Y140649D01*
X-1024577Y145345D01*
X-1022699Y149878D01*
X-1020386Y154205D01*
X-1017660Y158285D01*
X-1014548Y162078D01*
X-1011078Y165548D01*
X-1007285Y168660D01*
X-1003205Y171386D01*
X-998878Y173700D01*
X-994344Y175577D01*
X-989649Y177002D01*
X-984836Y177959D01*
X-979953Y178440D01*
X-977500Y178440D01*
X-977500Y178500D01*
X-927500Y178500D01*
X-927500Y178440D01*
X-925047Y178440D01*
X-920163Y177959D01*
X-915351Y177002D01*
X-910655Y175577D01*
X-906122Y173700D01*
X-901795Y171386D01*
X-897715Y168660D01*
X-893922Y165548D01*
X-890452Y162078D01*
X-887340Y158285D01*
X-884614Y154205D01*
X-882300Y149878D01*
X-880423Y145345D01*
X-878998Y140649D01*
X-878041Y135837D01*
X-877560Y130953D01*
X-877560Y128500D01*
X-877500Y128500D01*
X-877500Y78500D01*
X-1027500Y78500D01*
G37*
G36*
X-623560Y-1500D02*
G01*
X-623560Y-3953D01*
X-624041Y-8837D01*
X-624998Y-13649D01*
X-626423Y-18345D01*
X-628301Y-22878D01*
X-630614Y-27205D01*
X-633340Y-31285D01*
X-636452Y-35078D01*
X-639922Y-38548D01*
X-643715Y-41660D01*
X-647795Y-44386D01*
X-652122Y-46699D01*
X-656656Y-48577D01*
X-661351Y-50002D01*
X-666164Y-50959D01*
X-671047Y-51440D01*
X-673500Y-51440D01*
X-673500Y-51500D01*
X-723500Y-51500D01*
X-723500Y-51440D01*
X-725953Y-51440D01*
X-730836Y-50959D01*
X-735649Y-50002D01*
X-740344Y-48577D01*
X-744878Y-46699D01*
X-749205Y-44386D01*
X-753285Y-41660D01*
X-757078Y-38548D01*
X-760548Y-35078D01*
X-763660Y-31285D01*
X-766386Y-27205D01*
X-768699Y-22878D01*
X-770577Y-18345D01*
X-772002Y-13649D01*
X-772959Y-8837D01*
X-773440Y-3953D01*
X-773440Y-1500D01*
X-773500Y-1500D01*
X-773500Y48500D01*
X-623500Y48500D01*
X-623500Y-1500D01*
X-623560Y-1500D01*
G37*
G36*
X-773500Y78500D02*
G01*
X-773500Y128500D01*
X-773440Y128500D01*
X-773440Y130953D01*
X-772959Y135837D01*
X-772002Y140649D01*
X-770577Y145345D01*
X-768699Y149878D01*
X-766386Y154205D01*
X-763660Y158285D01*
X-760548Y162078D01*
X-757078Y165548D01*
X-753285Y168660D01*
X-749205Y171386D01*
X-744878Y173700D01*
X-740344Y175577D01*
X-735649Y177002D01*
X-730836Y177959D01*
X-725953Y178440D01*
X-723500Y178440D01*
X-723500Y178500D01*
X-673500Y178500D01*
X-673500Y178440D01*
X-671047Y178440D01*
X-666164Y177959D01*
X-661351Y177002D01*
X-656656Y175577D01*
X-652122Y173700D01*
X-647795Y171386D01*
X-643715Y168660D01*
X-639922Y165548D01*
X-636452Y162078D01*
X-633340Y158285D01*
X-630614Y154205D01*
X-628301Y149878D01*
X-626423Y145345D01*
X-624998Y140649D01*
X-624041Y135837D01*
X-623560Y130953D01*
X-623560Y128500D01*
X-623500Y128500D01*
X-623500Y78500D01*
X-773500Y78500D01*
G37*
G36*
G01*
X-937500Y785000D02*
X-967500Y785000D01*
G75*
G02*
X-982500Y800000I0J15000D01*
G01*
X-982500Y965000D01*
G75*
G02*
X-967500Y980000I15000J0D01*
G01*
X-937500Y980000D01*
G75*
G02*
X-922500Y965000I0J-15000D01*
G01*
X-922500Y800000D01*
G75*
G02*
X-937500Y785000I-15000J0D01*
G01*
G37*
G36*
G01*
X-810500Y785000D02*
X-840500Y785000D01*
G75*
G02*
X-855500Y800000I0J15000D01*
G01*
X-855500Y965000D01*
G75*
G02*
X-840500Y980000I15000J0D01*
G01*
X-810500Y980000D01*
G75*
G02*
X-795500Y965000I0J-15000D01*
G01*
X-795500Y800000D01*
G75*
G02*
X-810500Y785000I-15000J0D01*
G01*
G37*
G36*
G01*
X-683500Y785000D02*
X-713500Y785000D01*
G75*
G02*
X-728500Y800000I0J15000D01*
G01*
X-728500Y965000D01*
G75*
G02*
X-713500Y980000I15000J0D01*
G01*
X-683500Y980000D01*
G75*
G02*
X-668500Y965000I0J-15000D01*
G01*
X-668500Y800000D01*
G75*
G02*
X-683500Y785000I-15000J0D01*
G01*
G37*
G36*
G01*
X-556500Y785000D02*
X-586500Y785000D01*
G75*
G02*
X-601500Y800000I0J15000D01*
G01*
X-601500Y965000D01*
G75*
G02*
X-586500Y980000I15000J0D01*
G01*
X-556500Y980000D01*
G75*
G02*
X-541500Y965000I0J-15000D01*
G01*
X-541500Y800000D01*
G75*
G02*
X-556500Y785000I-15000J0D01*
G01*
G37*
G36*
G01*
X-556500Y290000D02*
X-586500Y290000D01*
G75*
G02*
X-601500Y305000I0J15000D01*
G01*
X-601500Y470000D01*
G75*
G02*
X-586500Y485000I15000J0D01*
G01*
X-556500Y485000D01*
G75*
G02*
X-541500Y470000I0J-15000D01*
G01*
X-541500Y305000D01*
G75*
G02*
X-556500Y290000I-15000J0D01*
G01*
G37*
G36*
G01*
X-683500Y290000D02*
X-713500Y290000D01*
G75*
G02*
X-728500Y305000I0J15000D01*
G01*
X-728500Y470000D01*
G75*
G02*
X-713500Y485000I15000J0D01*
G01*
X-683500Y485000D01*
G75*
G02*
X-668500Y470000I0J-15000D01*
G01*
X-668500Y305000D01*
G75*
G02*
X-683500Y290000I-15000J0D01*
G01*
G37*
G36*
G01*
X-810500Y290000D02*
X-840500Y290000D01*
G75*
G02*
X-855500Y305000I0J15000D01*
G01*
X-855500Y470000D01*
G75*
G02*
X-840500Y485000I15000J0D01*
G01*
X-810500Y485000D01*
G75*
G02*
X-795500Y470000I0J-15000D01*
G01*
X-795500Y305000D01*
G75*
G02*
X-810500Y290000I-15000J0D01*
G01*
G37*
G36*
G01*
X-937500Y290000D02*
X-967500Y290000D01*
G75*
G02*
X-982500Y305000I0J15000D01*
G01*
X-982500Y470000D01*
G75*
G02*
X-967500Y485000I15000J0D01*
G01*
X-937500Y485000D01*
G75*
G02*
X-922500Y470000I0J-15000D01*
G01*
X-922500Y305000D01*
G75*
G02*
X-937500Y290000I-15000J0D01*
G01*
G37*
D15*
X-254000Y635000D03*
D16*
X-389000Y1240500D03*
X-986000Y1240500D03*
D17*
X-1336000Y1708000D03*
X-1336000Y1338000D03*
D18*
X-1318500Y2310500D03*
D19*
X-186500Y2288000D03*
D20*
X-412500Y2323000D03*
X-522500Y2323000D03*
X-632500Y2323000D03*
X-742500Y2323000D03*
X-852500Y2323000D03*
X-962500Y2323000D03*
D21*
X-307500Y2323000D03*
D20*
X-1072500Y2323000D03*
M02*
