%TF.GenerationSoftware,KiCad,Pcbnew,5.1.5+dfsg1-2~bpo10+1*%
%TF.CreationDate,Date%
%TF.ProjectId,ProMicro_LOG,50726f4d-6963-4726-9f5f-4c4f472e6b69,v1.0*%
%TF.SameCoordinates,Original*%
%TF.FileFunction,Other,User*%
%FSLAX45Y45*%
G04 Gerber Fmt 4.5, Leading zero omitted, Abs format (unit mm)*
G04 Created by KiCad*
%MOMM*%
%LPD*%
G04 APERTURE LIST*
%ADD10C,0.100000*%
%ADD11C,0.050000*%
G04 APERTURE END LIST*
D10*
X-1587500Y2921000D02*
G75*
G03X-1651000Y2857500I0J-63500D01*
G01*
X127000Y2857500D02*
G75*
G03X63500Y2921000I-63500J0D01*
G01*
X63500Y-127000D02*
G75*
G03X127000Y-63500I0J63500D01*
G01*
X-1651000Y-63500D02*
G75*
G03X-1587500Y-127000I63500J0D01*
G01*
X-1651000Y2857500D02*
X-1651000Y-63500D01*
X63500Y2921000D02*
X-1587500Y2921000D01*
X127000Y-63500D02*
X127000Y2857500D01*
X-1587500Y-127000D02*
X63500Y-127000D01*
D11*
X-1674000Y2944000D02*
X156000Y2944000D01*
X-1674000Y2944000D02*
X-1674000Y-136000D01*
X156000Y-136000D02*
X156000Y2944000D01*
X156000Y-136000D02*
X-1674000Y-136000D01*
X-390500Y-84500D02*
X-390500Y211500D01*
X-244500Y-84500D02*
X-390500Y-84500D01*
X-244500Y211500D02*
X-244500Y-84500D01*
X-390500Y211500D02*
X-244500Y211500D01*
X-1058500Y943000D02*
X-1354500Y943000D01*
X-1058500Y1089000D02*
X-1058500Y943000D01*
X-1354500Y1089000D02*
X-1058500Y1089000D01*
X-1354500Y943000D02*
X-1354500Y1089000D01*
X-1081500Y357000D02*
X-1081500Y-103000D01*
X-1081500Y357000D02*
X-1331500Y357000D01*
X-1331500Y-103000D02*
X-1081500Y-103000D01*
X-1331500Y-103000D02*
X-1331500Y357000D01*
X-308000Y1100500D02*
X-308000Y804500D01*
X-454000Y1100500D02*
X-308000Y1100500D01*
X-454000Y804500D02*
X-454000Y1100500D01*
X-308000Y804500D02*
X-454000Y804500D01*
X-117500Y1100500D02*
X-117500Y804500D01*
X-263500Y1100500D02*
X-117500Y1100500D01*
X-263500Y804500D02*
X-263500Y1100500D01*
X-117500Y804500D02*
X-263500Y804500D01*
X-1058500Y752500D02*
X-1354500Y752500D01*
X-1058500Y898500D02*
X-1058500Y752500D01*
X-1354500Y898500D02*
X-1058500Y898500D01*
X-1354500Y752500D02*
X-1354500Y898500D01*
X-1058500Y562000D02*
X-1354500Y562000D01*
X-1058500Y708000D02*
X-1058500Y562000D01*
X-1354500Y708000D02*
X-1058500Y708000D01*
X-1354500Y562000D02*
X-1354500Y708000D01*
X-1058500Y371500D02*
X-1354500Y371500D01*
X-1058500Y517500D02*
X-1058500Y371500D01*
X-1354500Y517500D02*
X-1058500Y517500D01*
X-1354500Y371500D02*
X-1354500Y517500D01*
X-465500Y454000D02*
X-169500Y454000D01*
X-465500Y308000D02*
X-465500Y454000D01*
X-169500Y308000D02*
X-465500Y308000D01*
X-169500Y454000D02*
X-169500Y308000D01*
X-1077500Y-101500D02*
X-1077500Y228500D01*
X-1077500Y-101500D02*
X-827500Y-101500D01*
X-827500Y228500D02*
X-1077500Y228500D01*
X-827500Y228500D02*
X-827500Y-101500D01*
X-823500Y-101500D02*
X-823500Y228500D01*
X-823500Y-101500D02*
X-573500Y-101500D01*
X-573500Y228500D02*
X-823500Y228500D01*
X-573500Y228500D02*
X-573500Y-101500D01*
X-1032000Y1005000D02*
X-1032000Y265000D01*
X-492000Y1005000D02*
X-1032000Y1005000D01*
X-492000Y265000D02*
X-492000Y1005000D01*
X-1032000Y265000D02*
X-492000Y265000D01*
X-78000Y2428000D02*
X-78000Y1123000D01*
X-1446000Y2428000D02*
X-78000Y2428000D01*
X-1446000Y1123000D02*
X-1446000Y2428000D01*
X-78000Y1123000D02*
X-1446000Y1123000D01*
M02*
