%TF.GenerationSoftware,KiCad,Pcbnew,5.1.5+dfsg1-2~bpo10+1*%
%TF.CreationDate,Date%
%TF.ProjectId,ProMicro_WING,50726f4d-6963-4726-9f5f-57494e472e6b,v1.0*%
%TF.SameCoordinates,Original*%
%TF.FileFunction,Soldermask,Top*%
%TF.FilePolarity,Negative*%
%FSLAX45Y45*%
G04 Gerber Fmt 4.5, Leading zero omitted, Abs format (unit mm)*
G04 Created by KiCad*
%MOMM*%
%LPD*%
G04 APERTURE LIST*
%ADD10C,0.050000*%
%ADD11R,1.600000X1.600000*%
%ADD12C,1.600000*%
%ADD13C,2.700000*%
%ADD14O,1.600000X1.600000*%
G04 APERTURE END LIST*
D10*
X-1930400Y4445000D02*
G75*
G02X-1651000Y4724400I279400J0D01*
G01*
X127000Y4724400D02*
G75*
G02X406400Y4445000I0J-279400D01*
G01*
X406400Y-139700D02*
G75*
G02X127000Y-419100I-279400J0D01*
G01*
X-1651000Y-419100D02*
G75*
G02X-1930400Y-139700I0J279400D01*
G01*
X-1930400Y-139700D02*
X-1930400Y4445000D01*
X127000Y-419100D02*
X-1651000Y-419100D01*
X406400Y4445000D02*
X406400Y-139700D01*
X-1651000Y4724400D02*
X127000Y4724400D01*
D11*
X-1778000Y4064000D03*
D12*
X-1778000Y3810000D03*
X-1778000Y3556000D03*
X-1778000Y3302000D03*
X-1778000Y3048000D03*
X-1778000Y2794000D03*
X-1778000Y2540000D03*
X-1778000Y2286000D03*
X-1778000Y2032000D03*
X-1778000Y1778000D03*
X-1778000Y1524000D03*
X-1778000Y1270000D03*
X254000Y254000D03*
X254000Y508000D03*
X254000Y762000D03*
X254000Y1016000D03*
X254000Y1270000D03*
X254000Y1524000D03*
X254000Y1778000D03*
X254000Y2032000D03*
X254000Y2286000D03*
X254000Y2540000D03*
X254000Y2794000D03*
X254000Y3302000D03*
X254000Y3556000D03*
X254000Y3810000D03*
D13*
X127000Y4445000D03*
X-1651000Y4445000D03*
D12*
X254000Y4064000D03*
X254000Y3810000D03*
X254000Y3556000D03*
X254000Y3302000D03*
X254000Y3048000D03*
X254000Y2794000D03*
X254000Y2540000D03*
X254000Y2286000D03*
X254000Y2032000D03*
X254000Y1778000D03*
X254000Y1524000D03*
X254000Y1270000D03*
X254000Y1016000D03*
X254000Y762000D03*
X254000Y508000D03*
X254000Y254000D03*
X-1778000Y1270000D03*
X-1778000Y1524000D03*
X-1778000Y1778000D03*
X-1778000Y2032000D03*
X-1778000Y2286000D03*
X-1778000Y2540000D03*
X-1778000Y3556000D03*
X-1778000Y3810000D03*
D11*
X-1778000Y4064000D03*
D14*
X-1524000Y0D03*
X-1524000Y254000D03*
X-1524000Y508000D03*
X0Y2794000D03*
X-1524000Y762000D03*
X0Y2540000D03*
X-1524000Y1016000D03*
X0Y2286000D03*
X-1524000Y1270000D03*
X0Y2032000D03*
X-1524000Y1524000D03*
X0Y1778000D03*
X-1524000Y1778000D03*
X0Y1524000D03*
X-1524000Y2032000D03*
X0Y1270000D03*
X-1524000Y2286000D03*
X0Y1016000D03*
X-1524000Y2540000D03*
X0Y762000D03*
X-1524000Y2794000D03*
X0Y508000D03*
X0Y254000D03*
D11*
X0Y0D03*
D14*
X-1524000Y3556000D03*
X0Y3556000D03*
X-1524000Y0D03*
X0Y3302000D03*
X-1524000Y254000D03*
X0Y3048000D03*
X-1524000Y508000D03*
X0Y2794000D03*
X-1524000Y762000D03*
X0Y2540000D03*
X-1524000Y1016000D03*
X0Y2286000D03*
X-1524000Y1270000D03*
X0Y2032000D03*
X-1524000Y1524000D03*
X0Y1778000D03*
X-1524000Y1778000D03*
X0Y1524000D03*
X0Y1270000D03*
X0Y1016000D03*
X0Y762000D03*
X0Y508000D03*
X-1524000Y3048000D03*
X0Y254000D03*
X-1524000Y3302000D03*
D11*
X0Y0D03*
M02*
