%TF.GenerationSoftware,KiCad,Pcbnew,5.1.6+dfsg1-1~bpo10+1*%
%TF.CreationDate,2020-07-13T20:25:26+00:00*%
%TF.ProjectId,ProMicro_LOG,50726f4d-6963-4726-9f5f-4c4f472e6b69,v1.0*%
%TF.SameCoordinates,Original*%
%TF.FileFunction,Legend,Top*%
%TF.FilePolarity,Positive*%
%FSLAX45Y45*%
G04 Gerber Fmt 4.5, Leading zero omitted, Abs format (unit mm)*
G04 Created by KiCad (PCBNEW 5.1.6+dfsg1-1~bpo10+1) date 2020-07-13 20:25:26*
%MOMM*%
%LPD*%
G01*
G04 APERTURE LIST*
%TA.AperFunction,Profile*%
%ADD10C,0.100000*%
%TD*%
%ADD11C,0.010000*%
%ADD12C,0.120000*%
%ADD13C,0.200000*%
%ADD14O,1.600000X1.600000*%
%ADD15R,1.600000X1.600000*%
%ADD16C,0.150000*%
%ADD17R,1.500000X1.000000*%
%ADD18C,2.000000*%
%ADD19R,1.900000X1.350000*%
%ADD20R,1.200000X1.000000*%
%ADD21R,1.550000X1.350000*%
%ADD22R,1.170000X1.800000*%
%ADD23R,0.850000X1.100000*%
%ADD24R,0.750000X1.100000*%
G04 APERTURE END LIST*
D10*
X-1587500Y2921000D02*
G75*
G03*
X-1651000Y2857500I0J-63500D01*
G01*
X127000Y2857500D02*
G75*
G03*
X63500Y2921000I-63500J0D01*
G01*
X63500Y-127000D02*
G75*
G03*
X127000Y-63500I0J63500D01*
G01*
X-1651000Y-63500D02*
G75*
G03*
X-1587500Y-127000I63500J0D01*
G01*
X-1651000Y2857500D02*
X-1651000Y-63500D01*
X63500Y2921000D02*
X-1587500Y2921000D01*
X127000Y-63500D02*
X127000Y2857500D01*
X-1587500Y-127000D02*
X63500Y-127000D01*
D11*
G36*
X-628104Y2845524D02*
G01*
X-625562Y2833548D01*
X-627927Y2812434D01*
X-629480Y2805660D01*
X-634565Y2780297D01*
X-639740Y2745644D01*
X-643797Y2710049D01*
X-649700Y2647264D01*
X-626392Y2665599D01*
X-597523Y2681721D01*
X-573758Y2682524D01*
X-556998Y2669320D01*
X-549144Y2643418D01*
X-550711Y2613450D01*
X-558400Y2579744D01*
X-569652Y2544711D01*
X-582169Y2514798D01*
X-591492Y2498963D01*
X-600080Y2494482D01*
X-606030Y2502517D01*
X-607992Y2518700D01*
X-604616Y2538663D01*
X-604175Y2540000D01*
X-596488Y2567090D01*
X-590540Y2596246D01*
X-587061Y2622461D01*
X-586776Y2640725D01*
X-588765Y2646038D01*
X-598683Y2643227D01*
X-614157Y2630015D01*
X-631744Y2610347D01*
X-648004Y2588167D01*
X-659495Y2567420D01*
X-661179Y2563040D01*
X-670753Y2544549D01*
X-681807Y2535741D01*
X-682933Y2535625D01*
X-698433Y2531118D01*
X-718385Y2520451D01*
X-718734Y2520223D01*
X-738682Y2509312D01*
X-764954Y2497527D01*
X-791308Y2487384D01*
X-811499Y2481401D01*
X-816687Y2480733D01*
X-827738Y2485820D01*
X-828285Y2486340D01*
X-824990Y2492850D01*
X-810042Y2502518D01*
X-802179Y2506360D01*
X-777297Y2520278D01*
X-753131Y2537962D01*
X-734029Y2555739D01*
X-724341Y2569934D01*
X-723900Y2572465D01*
X-731292Y2579024D01*
X-750501Y2588117D01*
X-772583Y2596153D01*
X-805395Y2609948D01*
X-822148Y2626157D01*
X-823716Y2647097D01*
X-810974Y2675085D01*
X-805569Y2683584D01*
X-787458Y2704396D01*
X-763552Y2723509D01*
X-738078Y2738530D01*
X-715256Y2747068D01*
X-699312Y2746732D01*
X-696989Y2745076D01*
X-696770Y2736243D01*
X-712360Y2725102D01*
X-719266Y2721656D01*
X-743111Y2706401D01*
X-765115Y2685820D01*
X-781764Y2664099D01*
X-789548Y2645421D01*
X-789015Y2638522D01*
X-778435Y2629545D01*
X-757873Y2622029D01*
X-752093Y2620786D01*
X-726916Y2613512D01*
X-707282Y2603480D01*
X-705250Y2601833D01*
X-694150Y2593992D01*
X-688852Y2600001D01*
X-686746Y2608900D01*
X-680862Y2643475D01*
X-677711Y2674251D01*
X-677489Y2697314D01*
X-680392Y2708748D01*
X-681729Y2709333D01*
X-689097Y2716193D01*
X-690033Y2722033D01*
X-685942Y2733307D01*
X-682471Y2734733D01*
X-677207Y2742365D01*
X-670968Y2762267D01*
X-665693Y2787054D01*
X-657124Y2822573D01*
X-646762Y2843802D01*
X-635262Y2849724D01*
X-628104Y2845524D01*
G37*
X-628104Y2845524D02*
X-625562Y2833548D01*
X-627927Y2812434D01*
X-629480Y2805660D01*
X-634565Y2780297D01*
X-639740Y2745644D01*
X-643797Y2710049D01*
X-649700Y2647264D01*
X-626392Y2665599D01*
X-597523Y2681721D01*
X-573758Y2682524D01*
X-556998Y2669320D01*
X-549144Y2643418D01*
X-550711Y2613450D01*
X-558400Y2579744D01*
X-569652Y2544711D01*
X-582169Y2514798D01*
X-591492Y2498963D01*
X-600080Y2494482D01*
X-606030Y2502517D01*
X-607992Y2518700D01*
X-604616Y2538663D01*
X-604175Y2540000D01*
X-596488Y2567090D01*
X-590540Y2596246D01*
X-587061Y2622461D01*
X-586776Y2640725D01*
X-588765Y2646038D01*
X-598683Y2643227D01*
X-614157Y2630015D01*
X-631744Y2610347D01*
X-648004Y2588167D01*
X-659495Y2567420D01*
X-661179Y2563040D01*
X-670753Y2544549D01*
X-681807Y2535741D01*
X-682933Y2535625D01*
X-698433Y2531118D01*
X-718385Y2520451D01*
X-718734Y2520223D01*
X-738682Y2509312D01*
X-764954Y2497527D01*
X-791308Y2487384D01*
X-811499Y2481401D01*
X-816687Y2480733D01*
X-827738Y2485820D01*
X-828285Y2486340D01*
X-824990Y2492850D01*
X-810042Y2502518D01*
X-802179Y2506360D01*
X-777297Y2520278D01*
X-753131Y2537962D01*
X-734029Y2555739D01*
X-724341Y2569934D01*
X-723900Y2572465D01*
X-731292Y2579024D01*
X-750501Y2588117D01*
X-772583Y2596153D01*
X-805395Y2609948D01*
X-822148Y2626157D01*
X-823716Y2647097D01*
X-810974Y2675085D01*
X-805569Y2683584D01*
X-787458Y2704396D01*
X-763552Y2723509D01*
X-738078Y2738530D01*
X-715256Y2747068D01*
X-699312Y2746732D01*
X-696989Y2745076D01*
X-696770Y2736243D01*
X-712360Y2725102D01*
X-719266Y2721656D01*
X-743111Y2706401D01*
X-765115Y2685820D01*
X-781764Y2664099D01*
X-789548Y2645421D01*
X-789015Y2638522D01*
X-778435Y2629545D01*
X-757873Y2622029D01*
X-752093Y2620786D01*
X-726916Y2613512D01*
X-707282Y2603480D01*
X-705250Y2601833D01*
X-694150Y2593992D01*
X-688852Y2600001D01*
X-686746Y2608900D01*
X-680862Y2643475D01*
X-677711Y2674251D01*
X-677489Y2697314D01*
X-680392Y2708748D01*
X-681729Y2709333D01*
X-689097Y2716193D01*
X-690033Y2722033D01*
X-685942Y2733307D01*
X-682471Y2734733D01*
X-677207Y2742365D01*
X-670968Y2762267D01*
X-665693Y2787054D01*
X-657124Y2822573D01*
X-646762Y2843802D01*
X-635262Y2849724D01*
X-628104Y2845524D01*
D12*
X140000Y2921000D02*
X-1397000Y2921000D01*
X140000Y-127000D02*
X140000Y2921000D01*
X-1664000Y-127000D02*
X140000Y-127000D01*
X-1397000Y2921000D02*
X-1397000Y-127000D01*
X-1397000Y2667000D02*
X-1664000Y2667000D01*
X-127000Y2921000D02*
X-127000Y-127000D01*
X-1664000Y2667000D02*
X-1664000Y-127000D01*
X-266500Y79778D02*
X-266500Y47222D01*
X-368500Y79778D02*
X-368500Y47222D01*
X-1222778Y1067000D02*
X-1190222Y1067000D01*
X-1222778Y965000D02*
X-1190222Y965000D01*
X-1176500Y-78000D02*
X-1236500Y-78000D01*
X-1106500Y267000D02*
X-1106500Y-13000D01*
X-1236500Y332000D02*
X-1176500Y332000D01*
X-1306500Y-13000D02*
X-1306500Y267000D01*
X-1236500Y-78000D02*
G75*
G02*
X-1306500Y-8000I0J70000D01*
G01*
X-1106500Y-8000D02*
G75*
G02*
X-1176500Y-78000I-70000J0D01*
G01*
X-1176500Y332000D02*
G75*
G02*
X-1106500Y262000I0J-70000D01*
G01*
X-1306500Y262000D02*
G75*
G02*
X-1236500Y332000I70000J0D01*
G01*
X-454500Y1032500D02*
X-454500Y804000D01*
X-454500Y804000D02*
X-307500Y804000D01*
X-307500Y804000D02*
X-307500Y1032500D01*
X-241500Y936222D02*
X-241500Y968778D01*
X-139500Y936222D02*
X-139500Y968778D01*
X-1222778Y876500D02*
X-1190222Y876500D01*
X-1222778Y774500D02*
X-1190222Y774500D01*
X-1222778Y686000D02*
X-1190222Y686000D01*
X-1222778Y584000D02*
X-1190222Y584000D01*
X-1222778Y495500D02*
X-1190222Y495500D01*
X-1222778Y393500D02*
X-1190222Y393500D01*
X-301222Y330000D02*
X-333778Y330000D01*
X-301222Y432000D02*
X-333778Y432000D01*
X-982500Y203500D02*
X-922500Y203500D01*
X-1052500Y-6500D02*
X-1052500Y133500D01*
X-922500Y-76500D02*
X-982500Y-76500D01*
X-852500Y133500D02*
X-852500Y-6500D01*
X-922500Y203500D02*
G75*
G02*
X-852500Y133500I0J-70000D01*
G01*
X-1052500Y133500D02*
G75*
G02*
X-982500Y203500I70000J0D01*
G01*
X-982500Y-76500D02*
G75*
G02*
X-1052500Y-6500I0J70000D01*
G01*
X-852500Y-6500D02*
G75*
G02*
X-922500Y-76500I-70000J0D01*
G01*
X-728500Y203500D02*
X-668500Y203500D01*
X-798500Y-6500D02*
X-798500Y133500D01*
X-668500Y-76500D02*
X-728500Y-76500D01*
X-598500Y133500D02*
X-598500Y-6500D01*
X-668500Y203500D02*
G75*
G02*
X-598500Y133500I0J-70000D01*
G01*
X-798500Y133500D02*
G75*
G02*
X-728500Y203500I70000J0D01*
G01*
X-728500Y-76500D02*
G75*
G02*
X-798500Y-6500I0J70000D01*
G01*
X-598500Y-6500D02*
G75*
G02*
X-668500Y-76500I-70000J0D01*
G01*
X-506000Y635000D02*
X-506000Y830000D01*
X-506000Y635000D02*
X-506000Y440000D01*
X-1018000Y635000D02*
X-1018000Y830000D01*
X-1018000Y635000D02*
X-1018000Y290000D01*
X-1221000Y2360000D02*
X-1135000Y2360000D01*
X-151000Y1196000D02*
X-151000Y2178000D01*
X-274000Y1196000D02*
X-151000Y1196000D01*
X-871000Y1196000D02*
X-504000Y1196000D01*
X-1369000Y1196000D02*
X-1101000Y1196000D01*
X-1369000Y1268000D02*
X-1369000Y1196000D01*
X-1369000Y1638000D02*
X-1369000Y1408000D01*
X-1369000Y2223000D02*
X-1369000Y1778000D01*
D13*
X-1256667Y2736857D02*
X-1256667Y2774952D01*
X-1233810Y2729238D02*
X-1313810Y2755905D01*
X-1233810Y2782572D01*
X-1233810Y2851143D02*
X-1233810Y2805429D01*
X-1233810Y2828286D02*
X-1313810Y2828286D01*
X-1302381Y2820667D01*
X-1294762Y2813048D01*
X-1290952Y2805429D01*
X-281310Y1447167D02*
X-319405Y1420500D01*
X-281310Y1401452D02*
X-361310Y1401452D01*
X-361310Y1431929D01*
X-357500Y1439548D01*
X-353690Y1443357D01*
X-346072Y1447167D01*
X-334643Y1447167D01*
X-327024Y1443357D01*
X-323214Y1439548D01*
X-319405Y1431929D01*
X-319405Y1401452D01*
X-361310Y1515738D02*
X-361310Y1500500D01*
X-357500Y1492881D01*
X-353690Y1489071D01*
X-342262Y1481452D01*
X-327024Y1477643D01*
X-296548Y1477643D01*
X-288929Y1481452D01*
X-285119Y1485262D01*
X-281310Y1492881D01*
X-281310Y1508119D01*
X-285119Y1515738D01*
X-288929Y1519548D01*
X-296548Y1523357D01*
X-315595Y1523357D01*
X-323214Y1519548D01*
X-327024Y1515738D01*
X-330833Y1508119D01*
X-330833Y1492881D01*
X-327024Y1485262D01*
X-323214Y1481452D01*
X-315595Y1477643D01*
X-1156333Y2066929D02*
X-1160143Y2063119D01*
X-1171572Y2059310D01*
X-1179191Y2059310D01*
X-1190619Y2063119D01*
X-1198238Y2070738D01*
X-1202048Y2078357D01*
X-1205857Y2093595D01*
X-1205857Y2105024D01*
X-1202048Y2120262D01*
X-1198238Y2127881D01*
X-1190619Y2135500D01*
X-1179191Y2139310D01*
X-1171572Y2139310D01*
X-1160143Y2135500D01*
X-1156333Y2131691D01*
X-1080143Y2059310D02*
X-1125857Y2059310D01*
X-1103000Y2059310D02*
X-1103000Y2139310D01*
X-1110619Y2127881D01*
X-1118238Y2120262D01*
X-1125857Y2116452D01*
X-1250310Y1393833D02*
X-1193167Y1393833D01*
X-1181738Y1390024D01*
X-1174119Y1382405D01*
X-1170310Y1370976D01*
X-1170310Y1363357D01*
X-1170310Y1431929D02*
X-1250310Y1431929D01*
X-1250310Y1462405D01*
X-1246500Y1470024D01*
X-1242691Y1473833D01*
X-1235072Y1477643D01*
X-1223643Y1477643D01*
X-1216024Y1473833D01*
X-1212214Y1470024D01*
X-1208405Y1462405D01*
X-1208405Y1431929D01*
X-1223643Y1546214D02*
X-1170310Y1546214D01*
X-1254119Y1527167D02*
X-1196976Y1508119D01*
X-1196976Y1557643D01*
X-471810Y2036452D02*
X-551810Y2036452D01*
X-551810Y2055500D01*
X-548000Y2066929D01*
X-540381Y2074548D01*
X-532762Y2078357D01*
X-517524Y2082167D01*
X-506095Y2082167D01*
X-490857Y2078357D01*
X-483238Y2074548D01*
X-475619Y2066929D01*
X-471810Y2055500D01*
X-471810Y2036452D01*
X-471810Y2158357D02*
X-471810Y2112643D01*
X-471810Y2135500D02*
X-551810Y2135500D01*
X-540381Y2127881D01*
X-532762Y2120262D01*
X-528952Y2112643D01*
X-217810Y2082167D02*
X-255905Y2055500D01*
X-217810Y2036452D02*
X-297810Y2036452D01*
X-297810Y2066929D01*
X-294000Y2074548D01*
X-290191Y2078357D01*
X-282572Y2082167D01*
X-271143Y2082167D01*
X-263524Y2078357D01*
X-259714Y2074548D01*
X-255905Y2066929D01*
X-255905Y2036452D01*
X-297810Y2154548D02*
X-297810Y2116452D01*
X-259714Y2112643D01*
X-263524Y2116452D01*
X-267333Y2124072D01*
X-267333Y2143119D01*
X-263524Y2150738D01*
X-259714Y2154548D01*
X-252095Y2158357D01*
X-233048Y2158357D01*
X-225429Y2154548D01*
X-221619Y2150738D01*
X-217810Y2143119D01*
X-217810Y2124072D01*
X-221619Y2116452D01*
X-225429Y2112643D01*
X-1156333Y1932310D02*
X-1183000Y1970405D01*
X-1202048Y1932310D02*
X-1202048Y2012310D01*
X-1171572Y2012310D01*
X-1163952Y2008500D01*
X-1160143Y2004690D01*
X-1156333Y1997071D01*
X-1156333Y1985643D01*
X-1160143Y1978024D01*
X-1163952Y1974214D01*
X-1171572Y1970405D01*
X-1202048Y1970405D01*
X-1087762Y1985643D02*
X-1087762Y1932310D01*
X-1106810Y2016119D02*
X-1125857Y1958976D01*
X-1076333Y1958976D01*
X-1156333Y1805310D02*
X-1183000Y1843405D01*
X-1202048Y1805310D02*
X-1202048Y1885310D01*
X-1171572Y1885310D01*
X-1163952Y1881500D01*
X-1160143Y1877690D01*
X-1156333Y1870071D01*
X-1156333Y1858643D01*
X-1160143Y1851024D01*
X-1163952Y1847214D01*
X-1171572Y1843405D01*
X-1202048Y1843405D01*
X-1129667Y1885310D02*
X-1080143Y1885310D01*
X-1106810Y1854833D01*
X-1095381Y1854833D01*
X-1087762Y1851024D01*
X-1083952Y1847214D01*
X-1080143Y1839595D01*
X-1080143Y1820548D01*
X-1083952Y1812929D01*
X-1087762Y1809119D01*
X-1095381Y1805310D01*
X-1118238Y1805310D01*
X-1125857Y1809119D01*
X-1129667Y1812929D01*
X-1156333Y1678310D02*
X-1183000Y1716405D01*
X-1202048Y1678310D02*
X-1202048Y1758310D01*
X-1171572Y1758310D01*
X-1163952Y1754500D01*
X-1160143Y1750690D01*
X-1156333Y1743071D01*
X-1156333Y1731643D01*
X-1160143Y1724024D01*
X-1163952Y1720214D01*
X-1171572Y1716405D01*
X-1202048Y1716405D01*
X-1125857Y1750690D02*
X-1122048Y1754500D01*
X-1114429Y1758310D01*
X-1095381Y1758310D01*
X-1087762Y1754500D01*
X-1083952Y1750690D01*
X-1080143Y1743071D01*
X-1080143Y1735452D01*
X-1083952Y1724024D01*
X-1129667Y1678310D01*
X-1080143Y1678310D01*
X-394333Y1741810D02*
X-421000Y1779905D01*
X-440048Y1741810D02*
X-440048Y1821810D01*
X-409571Y1821810D01*
X-401952Y1818000D01*
X-398143Y1814190D01*
X-394333Y1806571D01*
X-394333Y1795143D01*
X-398143Y1787524D01*
X-401952Y1783714D01*
X-409571Y1779905D01*
X-440048Y1779905D01*
X-318143Y1741810D02*
X-363857Y1741810D01*
X-341000Y1741810D02*
X-341000Y1821810D01*
X-348619Y1810381D01*
X-356238Y1802762D01*
X-363857Y1798952D01*
X-996310Y1393833D02*
X-939167Y1393833D01*
X-927738Y1390024D01*
X-920119Y1382405D01*
X-916310Y1370976D01*
X-916310Y1363357D01*
X-916310Y1431929D02*
X-996310Y1431929D01*
X-996310Y1462405D01*
X-992500Y1470024D01*
X-988690Y1473833D01*
X-981071Y1477643D01*
X-969643Y1477643D01*
X-962024Y1473833D01*
X-958214Y1470024D01*
X-954405Y1462405D01*
X-954405Y1431929D01*
X-988690Y1508119D02*
X-992500Y1511929D01*
X-996310Y1519548D01*
X-996310Y1538595D01*
X-992500Y1546214D01*
X-988690Y1550024D01*
X-981071Y1553833D01*
X-973452Y1553833D01*
X-962024Y1550024D01*
X-916310Y1504310D01*
X-916310Y1553833D01*
X-742310Y1393833D02*
X-685167Y1393833D01*
X-673738Y1390024D01*
X-666119Y1382405D01*
X-662310Y1370976D01*
X-662310Y1363357D01*
X-662310Y1431929D02*
X-742310Y1431929D01*
X-742310Y1462405D01*
X-738500Y1470024D01*
X-734690Y1473833D01*
X-727071Y1477643D01*
X-715643Y1477643D01*
X-708024Y1473833D01*
X-704214Y1470024D01*
X-700405Y1462405D01*
X-700405Y1431929D01*
X-662310Y1553833D02*
X-662310Y1508119D01*
X-662310Y1530976D02*
X-742310Y1530976D01*
X-730881Y1523357D01*
X-723262Y1515738D01*
X-719452Y1508119D01*
X-822952Y1123310D02*
X-822952Y1058548D01*
X-819143Y1050929D01*
X-815333Y1047119D01*
X-807714Y1043310D01*
X-792476Y1043310D01*
X-784857Y1047119D01*
X-781048Y1050929D01*
X-777238Y1058548D01*
X-777238Y1123310D01*
X-697238Y1043310D02*
X-742952Y1043310D01*
X-720095Y1043310D02*
X-720095Y1123310D01*
X-727714Y1111881D01*
X-735333Y1104262D01*
X-742952Y1100452D01*
X-1313810Y2469333D02*
X-1256667Y2469333D01*
X-1245238Y2465524D01*
X-1237619Y2457905D01*
X-1233810Y2446476D01*
X-1233810Y2438857D01*
X-1233810Y2549333D02*
X-1233810Y2503619D01*
X-1233810Y2526476D02*
X-1313810Y2526476D01*
X-1302381Y2518857D01*
X-1294762Y2511238D01*
X-1290952Y2503619D01*
%LPC*%
D14*
X0Y2794000D03*
X0Y2540000D03*
X0Y2286000D03*
X-1524000Y0D03*
X0Y2032000D03*
X-1524000Y254000D03*
X0Y1778000D03*
X-1524000Y508000D03*
X0Y1524000D03*
X-1524000Y762000D03*
X0Y1270000D03*
X-1524000Y1016000D03*
X0Y1016000D03*
X-1524000Y1270000D03*
X0Y762000D03*
X-1524000Y1524000D03*
X0Y508000D03*
X-1524000Y1778000D03*
X0Y254000D03*
X-1524000Y2032000D03*
X0Y0D03*
X-1524000Y2286000D03*
X-1524000Y2540000D03*
D15*
X-1524000Y2794000D03*
G36*
G01*
X-343125Y28500D02*
X-291875Y28500D01*
G75*
G02*
X-270000Y6625I0J-21875D01*
G01*
X-270000Y-37125D01*
G75*
G02*
X-291875Y-59000I-21875J0D01*
G01*
X-343125Y-59000D01*
G75*
G02*
X-365000Y-37125I0J21875D01*
G01*
X-365000Y6625D01*
G75*
G02*
X-343125Y28500I21875J0D01*
G01*
G37*
G36*
G01*
X-343125Y186000D02*
X-291875Y186000D01*
G75*
G02*
X-270000Y164125I0J-21875D01*
G01*
X-270000Y120375D01*
G75*
G02*
X-291875Y98500I-21875J0D01*
G01*
X-343125Y98500D01*
G75*
G02*
X-365000Y120375I0J21875D01*
G01*
X-365000Y164125D01*
G75*
G02*
X-343125Y186000I21875J0D01*
G01*
G37*
G36*
G01*
X-1171500Y990375D02*
X-1171500Y1041625D01*
G75*
G02*
X-1149625Y1063500I21875J0D01*
G01*
X-1105875Y1063500D01*
G75*
G02*
X-1084000Y1041625I0J-21875D01*
G01*
X-1084000Y990375D01*
G75*
G02*
X-1105875Y968500I-21875J0D01*
G01*
X-1149625Y968500D01*
G75*
G02*
X-1171500Y990375I0J21875D01*
G01*
G37*
G36*
G01*
X-1329000Y990375D02*
X-1329000Y1041625D01*
G75*
G02*
X-1307125Y1063500I21875J0D01*
G01*
X-1263375Y1063500D01*
G75*
G02*
X-1241500Y1041625I0J-21875D01*
G01*
X-1241500Y990375D01*
G75*
G02*
X-1263375Y968500I-21875J0D01*
G01*
X-1307125Y968500D01*
G75*
G02*
X-1329000Y990375I0J21875D01*
G01*
G37*
D16*
G36*
X-1131500Y52000D02*
G01*
X-1131500Y-3000D01*
X-1131560Y-3000D01*
X-1131560Y-5453D01*
X-1132041Y-10337D01*
X-1132998Y-15149D01*
X-1134423Y-19845D01*
X-1136301Y-24378D01*
X-1138614Y-28705D01*
X-1141340Y-32785D01*
X-1144452Y-36578D01*
X-1147922Y-40048D01*
X-1151715Y-43160D01*
X-1155795Y-45886D01*
X-1160122Y-48199D01*
X-1164656Y-50077D01*
X-1169351Y-51502D01*
X-1174164Y-52459D01*
X-1179047Y-52940D01*
X-1181500Y-52940D01*
X-1181500Y-53000D01*
X-1231500Y-53000D01*
X-1231500Y-52940D01*
X-1233953Y-52940D01*
X-1238837Y-52459D01*
X-1243649Y-51502D01*
X-1248345Y-50077D01*
X-1252878Y-48199D01*
X-1257205Y-45886D01*
X-1261285Y-43160D01*
X-1265078Y-40048D01*
X-1268548Y-36578D01*
X-1271660Y-32785D01*
X-1274386Y-28705D01*
X-1276700Y-24378D01*
X-1278577Y-19845D01*
X-1280002Y-15149D01*
X-1280959Y-10337D01*
X-1281440Y-5453D01*
X-1281440Y-3000D01*
X-1281500Y-3000D01*
X-1281500Y52000D01*
X-1131500Y52000D01*
G37*
D17*
X-1206500Y127000D03*
D16*
G36*
X-1281440Y257000D02*
G01*
X-1281440Y259453D01*
X-1280959Y264337D01*
X-1280002Y269149D01*
X-1278577Y273845D01*
X-1276700Y278378D01*
X-1274386Y282705D01*
X-1271660Y286785D01*
X-1268548Y290578D01*
X-1265078Y294048D01*
X-1261285Y297160D01*
X-1257205Y299886D01*
X-1252878Y302200D01*
X-1248345Y304077D01*
X-1243649Y305502D01*
X-1238837Y306459D01*
X-1233953Y306940D01*
X-1231500Y306940D01*
X-1231500Y307000D01*
X-1181500Y307000D01*
X-1181500Y306940D01*
X-1179047Y306940D01*
X-1174164Y306459D01*
X-1169351Y305502D01*
X-1164656Y304077D01*
X-1160122Y302200D01*
X-1155795Y299886D01*
X-1151715Y297160D01*
X-1147922Y294048D01*
X-1144452Y290578D01*
X-1141340Y286785D01*
X-1138614Y282705D01*
X-1136301Y278378D01*
X-1134423Y273845D01*
X-1132998Y269149D01*
X-1132041Y264337D01*
X-1131560Y259453D01*
X-1131560Y257000D01*
X-1131500Y257000D01*
X-1131500Y202000D01*
X-1281500Y202000D01*
X-1281500Y257000D01*
X-1281440Y257000D01*
G37*
G36*
G01*
X-355375Y987500D02*
X-406625Y987500D01*
G75*
G02*
X-428500Y1009375I0J21875D01*
G01*
X-428500Y1053125D01*
G75*
G02*
X-406625Y1075000I21875J0D01*
G01*
X-355375Y1075000D01*
G75*
G02*
X-333500Y1053125I0J-21875D01*
G01*
X-333500Y1009375D01*
G75*
G02*
X-355375Y987500I-21875J0D01*
G01*
G37*
G36*
G01*
X-355375Y830000D02*
X-406625Y830000D01*
G75*
G02*
X-428500Y851875I0J21875D01*
G01*
X-428500Y895625D01*
G75*
G02*
X-406625Y917500I21875J0D01*
G01*
X-355375Y917500D01*
G75*
G02*
X-333500Y895625I0J-21875D01*
G01*
X-333500Y851875D01*
G75*
G02*
X-355375Y830000I-21875J0D01*
G01*
G37*
G36*
G01*
X-164875Y987500D02*
X-216125Y987500D01*
G75*
G02*
X-238000Y1009375I0J21875D01*
G01*
X-238000Y1053125D01*
G75*
G02*
X-216125Y1075000I21875J0D01*
G01*
X-164875Y1075000D01*
G75*
G02*
X-143000Y1053125I0J-21875D01*
G01*
X-143000Y1009375D01*
G75*
G02*
X-164875Y987500I-21875J0D01*
G01*
G37*
G36*
G01*
X-164875Y830000D02*
X-216125Y830000D01*
G75*
G02*
X-238000Y851875I0J21875D01*
G01*
X-238000Y895625D01*
G75*
G02*
X-216125Y917500I21875J0D01*
G01*
X-164875Y917500D01*
G75*
G02*
X-143000Y895625I0J-21875D01*
G01*
X-143000Y851875D01*
G75*
G02*
X-164875Y830000I-21875J0D01*
G01*
G37*
G36*
G01*
X-1171500Y799875D02*
X-1171500Y851125D01*
G75*
G02*
X-1149625Y873000I21875J0D01*
G01*
X-1105875Y873000D01*
G75*
G02*
X-1084000Y851125I0J-21875D01*
G01*
X-1084000Y799875D01*
G75*
G02*
X-1105875Y778000I-21875J0D01*
G01*
X-1149625Y778000D01*
G75*
G02*
X-1171500Y799875I0J21875D01*
G01*
G37*
G36*
G01*
X-1329000Y799875D02*
X-1329000Y851125D01*
G75*
G02*
X-1307125Y873000I21875J0D01*
G01*
X-1263375Y873000D01*
G75*
G02*
X-1241500Y851125I0J-21875D01*
G01*
X-1241500Y799875D01*
G75*
G02*
X-1263375Y778000I-21875J0D01*
G01*
X-1307125Y778000D01*
G75*
G02*
X-1329000Y799875I0J21875D01*
G01*
G37*
G36*
G01*
X-1171500Y609375D02*
X-1171500Y660625D01*
G75*
G02*
X-1149625Y682500I21875J0D01*
G01*
X-1105875Y682500D01*
G75*
G02*
X-1084000Y660625I0J-21875D01*
G01*
X-1084000Y609375D01*
G75*
G02*
X-1105875Y587500I-21875J0D01*
G01*
X-1149625Y587500D01*
G75*
G02*
X-1171500Y609375I0J21875D01*
G01*
G37*
G36*
G01*
X-1329000Y609375D02*
X-1329000Y660625D01*
G75*
G02*
X-1307125Y682500I21875J0D01*
G01*
X-1263375Y682500D01*
G75*
G02*
X-1241500Y660625I0J-21875D01*
G01*
X-1241500Y609375D01*
G75*
G02*
X-1263375Y587500I-21875J0D01*
G01*
X-1307125Y587500D01*
G75*
G02*
X-1329000Y609375I0J21875D01*
G01*
G37*
G36*
G01*
X-1171500Y418875D02*
X-1171500Y470125D01*
G75*
G02*
X-1149625Y492000I21875J0D01*
G01*
X-1105875Y492000D01*
G75*
G02*
X-1084000Y470125I0J-21875D01*
G01*
X-1084000Y418875D01*
G75*
G02*
X-1105875Y397000I-21875J0D01*
G01*
X-1149625Y397000D01*
G75*
G02*
X-1171500Y418875I0J21875D01*
G01*
G37*
G36*
G01*
X-1329000Y418875D02*
X-1329000Y470125D01*
G75*
G02*
X-1307125Y492000I21875J0D01*
G01*
X-1263375Y492000D01*
G75*
G02*
X-1241500Y470125I0J-21875D01*
G01*
X-1241500Y418875D01*
G75*
G02*
X-1263375Y397000I-21875J0D01*
G01*
X-1307125Y397000D01*
G75*
G02*
X-1329000Y418875I0J21875D01*
G01*
G37*
G36*
G01*
X-352500Y406625D02*
X-352500Y355375D01*
G75*
G02*
X-374375Y333500I-21875J0D01*
G01*
X-418125Y333500D01*
G75*
G02*
X-440000Y355375I0J21875D01*
G01*
X-440000Y406625D01*
G75*
G02*
X-418125Y428500I21875J0D01*
G01*
X-374375Y428500D01*
G75*
G02*
X-352500Y406625I0J-21875D01*
G01*
G37*
G36*
G01*
X-195000Y406625D02*
X-195000Y355375D01*
G75*
G02*
X-216875Y333500I-21875J0D01*
G01*
X-260625Y333500D01*
G75*
G02*
X-282500Y355375I0J21875D01*
G01*
X-282500Y406625D01*
G75*
G02*
X-260625Y428500I21875J0D01*
G01*
X-216875Y428500D01*
G75*
G02*
X-195000Y406625I0J-21875D01*
G01*
G37*
G36*
X-877560Y-1500D02*
G01*
X-877560Y-3953D01*
X-878041Y-8837D01*
X-878998Y-13649D01*
X-880423Y-18345D01*
X-882300Y-22878D01*
X-884614Y-27205D01*
X-887340Y-31285D01*
X-890452Y-35078D01*
X-893922Y-38548D01*
X-897715Y-41660D01*
X-901795Y-44386D01*
X-906122Y-46699D01*
X-910655Y-48577D01*
X-915351Y-50002D01*
X-920163Y-50959D01*
X-925047Y-51440D01*
X-927500Y-51440D01*
X-927500Y-51500D01*
X-977500Y-51500D01*
X-977500Y-51440D01*
X-979953Y-51440D01*
X-984836Y-50959D01*
X-989649Y-50002D01*
X-994344Y-48577D01*
X-998878Y-46699D01*
X-1003205Y-44386D01*
X-1007285Y-41660D01*
X-1011078Y-38548D01*
X-1014548Y-35078D01*
X-1017660Y-31285D01*
X-1020386Y-27205D01*
X-1022699Y-22878D01*
X-1024577Y-18345D01*
X-1026002Y-13649D01*
X-1026959Y-8837D01*
X-1027440Y-3953D01*
X-1027440Y-1500D01*
X-1027500Y-1500D01*
X-1027500Y48500D01*
X-877500Y48500D01*
X-877500Y-1500D01*
X-877560Y-1500D01*
G37*
G36*
X-1027500Y78500D02*
G01*
X-1027500Y128500D01*
X-1027440Y128500D01*
X-1027440Y130953D01*
X-1026959Y135837D01*
X-1026002Y140649D01*
X-1024577Y145345D01*
X-1022699Y149878D01*
X-1020386Y154205D01*
X-1017660Y158285D01*
X-1014548Y162078D01*
X-1011078Y165548D01*
X-1007285Y168660D01*
X-1003205Y171386D01*
X-998878Y173700D01*
X-994344Y175577D01*
X-989649Y177002D01*
X-984836Y177959D01*
X-979953Y178440D01*
X-977500Y178440D01*
X-977500Y178500D01*
X-927500Y178500D01*
X-927500Y178440D01*
X-925047Y178440D01*
X-920163Y177959D01*
X-915351Y177002D01*
X-910655Y175577D01*
X-906122Y173700D01*
X-901795Y171386D01*
X-897715Y168660D01*
X-893922Y165548D01*
X-890452Y162078D01*
X-887340Y158285D01*
X-884614Y154205D01*
X-882300Y149878D01*
X-880423Y145345D01*
X-878998Y140649D01*
X-878041Y135837D01*
X-877560Y130953D01*
X-877560Y128500D01*
X-877500Y128500D01*
X-877500Y78500D01*
X-1027500Y78500D01*
G37*
G36*
X-623560Y-1500D02*
G01*
X-623560Y-3953D01*
X-624041Y-8837D01*
X-624998Y-13649D01*
X-626423Y-18345D01*
X-628301Y-22878D01*
X-630614Y-27205D01*
X-633340Y-31285D01*
X-636452Y-35078D01*
X-639922Y-38548D01*
X-643715Y-41660D01*
X-647795Y-44386D01*
X-652122Y-46699D01*
X-656656Y-48577D01*
X-661351Y-50002D01*
X-666164Y-50959D01*
X-671047Y-51440D01*
X-673500Y-51440D01*
X-673500Y-51500D01*
X-723500Y-51500D01*
X-723500Y-51440D01*
X-725953Y-51440D01*
X-730836Y-50959D01*
X-735649Y-50002D01*
X-740344Y-48577D01*
X-744878Y-46699D01*
X-749205Y-44386D01*
X-753285Y-41660D01*
X-757078Y-38548D01*
X-760548Y-35078D01*
X-763660Y-31285D01*
X-766386Y-27205D01*
X-768699Y-22878D01*
X-770577Y-18345D01*
X-772002Y-13649D01*
X-772959Y-8837D01*
X-773440Y-3953D01*
X-773440Y-1500D01*
X-773500Y-1500D01*
X-773500Y48500D01*
X-623500Y48500D01*
X-623500Y-1500D01*
X-623560Y-1500D01*
G37*
G36*
X-773500Y78500D02*
G01*
X-773500Y128500D01*
X-773440Y128500D01*
X-773440Y130953D01*
X-772959Y135837D01*
X-772002Y140649D01*
X-770577Y145345D01*
X-768699Y149878D01*
X-766386Y154205D01*
X-763660Y158285D01*
X-760548Y162078D01*
X-757078Y165548D01*
X-753285Y168660D01*
X-749205Y171386D01*
X-744878Y173700D01*
X-740344Y175577D01*
X-735649Y177002D01*
X-730836Y177959D01*
X-725953Y178440D01*
X-723500Y178440D01*
X-723500Y178500D01*
X-673500Y178500D01*
X-673500Y178440D01*
X-671047Y178440D01*
X-666164Y177959D01*
X-661351Y177002D01*
X-656656Y175577D01*
X-652122Y173700D01*
X-647795Y171386D01*
X-643715Y168660D01*
X-639922Y165548D01*
X-636452Y162078D01*
X-633340Y158285D01*
X-630614Y154205D01*
X-628301Y149878D01*
X-626423Y145345D01*
X-624998Y140649D01*
X-624041Y135837D01*
X-623560Y130953D01*
X-623560Y128500D01*
X-623500Y128500D01*
X-623500Y78500D01*
X-773500Y78500D01*
G37*
G36*
G01*
X-937500Y785000D02*
X-967500Y785000D01*
G75*
G02*
X-982500Y800000I0J15000D01*
G01*
X-982500Y965000D01*
G75*
G02*
X-967500Y980000I15000J0D01*
G01*
X-937500Y980000D01*
G75*
G02*
X-922500Y965000I0J-15000D01*
G01*
X-922500Y800000D01*
G75*
G02*
X-937500Y785000I-15000J0D01*
G01*
G37*
G36*
G01*
X-810500Y785000D02*
X-840500Y785000D01*
G75*
G02*
X-855500Y800000I0J15000D01*
G01*
X-855500Y965000D01*
G75*
G02*
X-840500Y980000I15000J0D01*
G01*
X-810500Y980000D01*
G75*
G02*
X-795500Y965000I0J-15000D01*
G01*
X-795500Y800000D01*
G75*
G02*
X-810500Y785000I-15000J0D01*
G01*
G37*
G36*
G01*
X-683500Y785000D02*
X-713500Y785000D01*
G75*
G02*
X-728500Y800000I0J15000D01*
G01*
X-728500Y965000D01*
G75*
G02*
X-713500Y980000I15000J0D01*
G01*
X-683500Y980000D01*
G75*
G02*
X-668500Y965000I0J-15000D01*
G01*
X-668500Y800000D01*
G75*
G02*
X-683500Y785000I-15000J0D01*
G01*
G37*
G36*
G01*
X-556500Y785000D02*
X-586500Y785000D01*
G75*
G02*
X-601500Y800000I0J15000D01*
G01*
X-601500Y965000D01*
G75*
G02*
X-586500Y980000I15000J0D01*
G01*
X-556500Y980000D01*
G75*
G02*
X-541500Y965000I0J-15000D01*
G01*
X-541500Y800000D01*
G75*
G02*
X-556500Y785000I-15000J0D01*
G01*
G37*
G36*
G01*
X-556500Y290000D02*
X-586500Y290000D01*
G75*
G02*
X-601500Y305000I0J15000D01*
G01*
X-601500Y470000D01*
G75*
G02*
X-586500Y485000I15000J0D01*
G01*
X-556500Y485000D01*
G75*
G02*
X-541500Y470000I0J-15000D01*
G01*
X-541500Y305000D01*
G75*
G02*
X-556500Y290000I-15000J0D01*
G01*
G37*
G36*
G01*
X-683500Y290000D02*
X-713500Y290000D01*
G75*
G02*
X-728500Y305000I0J15000D01*
G01*
X-728500Y470000D01*
G75*
G02*
X-713500Y485000I15000J0D01*
G01*
X-683500Y485000D01*
G75*
G02*
X-668500Y470000I0J-15000D01*
G01*
X-668500Y305000D01*
G75*
G02*
X-683500Y290000I-15000J0D01*
G01*
G37*
G36*
G01*
X-810500Y290000D02*
X-840500Y290000D01*
G75*
G02*
X-855500Y305000I0J15000D01*
G01*
X-855500Y470000D01*
G75*
G02*
X-840500Y485000I15000J0D01*
G01*
X-810500Y485000D01*
G75*
G02*
X-795500Y470000I0J-15000D01*
G01*
X-795500Y305000D01*
G75*
G02*
X-810500Y290000I-15000J0D01*
G01*
G37*
G36*
G01*
X-937500Y290000D02*
X-967500Y290000D01*
G75*
G02*
X-982500Y305000I0J15000D01*
G01*
X-982500Y470000D01*
G75*
G02*
X-967500Y485000I15000J0D01*
G01*
X-937500Y485000D01*
G75*
G02*
X-922500Y470000I0J-15000D01*
G01*
X-922500Y305000D01*
G75*
G02*
X-937500Y290000I-15000J0D01*
G01*
G37*
D18*
X-254000Y635000D03*
D19*
X-389000Y1240500D03*
X-986000Y1240500D03*
D20*
X-1336000Y1708000D03*
X-1336000Y1338000D03*
D21*
X-1318500Y2310500D03*
D22*
X-186500Y2288000D03*
D23*
X-412500Y2323000D03*
X-522500Y2323000D03*
X-632500Y2323000D03*
X-742500Y2323000D03*
X-852500Y2323000D03*
X-962500Y2323000D03*
D24*
X-307500Y2323000D03*
D23*
X-1072500Y2323000D03*
M02*
