%TF.GenerationSoftware,KiCad,Pcbnew,5.1.5+dfsg1-2~bpo10+1*%
%TF.CreationDate,Date%
%TF.ProjectId,ProMicro_TEST,50726f4d-6963-4726-9f5f-544553542e6b,v1.0*%
%TF.SameCoordinates,Original*%
%TF.FileFunction,Other,Comment*%
%FSLAX45Y45*%
G04 Gerber Fmt 4.5, Leading zero omitted, Abs format (unit mm)*
G04 Created by KiCad*
%MOMM*%
%LPD*%
G04 APERTURE LIST*
%ADD10C,0.100000*%
%ADD11C,0.150000*%
G04 APERTURE END LIST*
D10*
X127000Y2857500D02*
X127000Y-63500D01*
X-1651000Y-63500D02*
X-1651000Y2857500D01*
D11*
X-2400300Y2921000D02*
X-2400300Y2413000D01*
X-2908300Y2921000D02*
X-2400300Y2921000D01*
X-2908300Y2413000D02*
X-2908300Y2921000D01*
X-2400300Y2413000D02*
X-2908300Y2413000D01*
X-2908300Y1905000D02*
X-2400300Y1905000D01*
X-2908300Y1397000D02*
X-2908300Y1905000D01*
X-2400300Y1397000D02*
X-2908300Y1397000D01*
X-2400300Y1905000D02*
X-2400300Y1397000D01*
X1790700Y-127000D02*
X1790700Y889000D01*
X1282700Y-127000D02*
X1790700Y-127000D01*
X1282700Y889000D02*
X1282700Y-127000D01*
X1790700Y1905000D02*
X1282700Y1905000D01*
X1790700Y889000D02*
X1790700Y1905000D01*
X1282700Y889000D02*
X1790700Y889000D01*
X1282700Y1905000D02*
X1282700Y889000D01*
X1408128Y1832762D02*
X1465271Y1832762D01*
X1436700Y1732762D02*
X1436700Y1832762D01*
X1555748Y1742286D02*
X1550986Y1737524D01*
X1536700Y1732762D01*
X1527176Y1732762D01*
X1512890Y1737524D01*
X1503367Y1747048D01*
X1498605Y1756571D01*
X1493843Y1775619D01*
X1493843Y1789905D01*
X1498605Y1808952D01*
X1503367Y1818476D01*
X1512890Y1828000D01*
X1527176Y1832762D01*
X1536700Y1832762D01*
X1550986Y1828000D01*
X1555748Y1823238D01*
X1598605Y1732762D02*
X1598605Y1832762D01*
X1655748Y1732762D02*
X1612890Y1789905D01*
X1655748Y1832762D02*
X1598605Y1775619D01*
X1405748Y1324762D02*
X1462890Y1324762D01*
X1434319Y1224762D02*
X1434319Y1324762D01*
X1496224Y1224762D02*
X1496224Y1324762D01*
X1520033Y1324762D01*
X1534319Y1320000D01*
X1543843Y1310476D01*
X1548605Y1300952D01*
X1553367Y1281905D01*
X1553367Y1267619D01*
X1548605Y1248572D01*
X1543843Y1239048D01*
X1534319Y1229524D01*
X1520033Y1224762D01*
X1496224Y1224762D01*
X1615271Y1324762D02*
X1634319Y1324762D01*
X1643843Y1320000D01*
X1653367Y1310476D01*
X1658128Y1291429D01*
X1658128Y1258095D01*
X1653367Y1239048D01*
X1643843Y1229524D01*
X1634319Y1224762D01*
X1615271Y1224762D01*
X1605748Y1229524D01*
X1596224Y1239048D01*
X1591462Y1258095D01*
X1591462Y1291429D01*
X1596224Y1310476D01*
X1605748Y1320000D01*
X1615271Y1324762D01*
X1403367Y1578762D02*
X1460509Y1578762D01*
X1431938Y1478762D02*
X1431938Y1578762D01*
X1493843Y1478762D02*
X1493843Y1578762D01*
X1527176Y1507333D01*
X1560509Y1578762D01*
X1560509Y1478762D01*
X1603367Y1483524D02*
X1617652Y1478762D01*
X1641462Y1478762D01*
X1650986Y1483524D01*
X1655748Y1488286D01*
X1660509Y1497810D01*
X1660509Y1507333D01*
X1655748Y1516857D01*
X1650986Y1521619D01*
X1641462Y1526381D01*
X1622414Y1531143D01*
X1612890Y1535905D01*
X1608128Y1540667D01*
X1603367Y1550190D01*
X1603367Y1559714D01*
X1608128Y1569238D01*
X1612890Y1574000D01*
X1622414Y1578762D01*
X1646224Y1578762D01*
X1660509Y1574000D01*
X1434319Y1070762D02*
X1491462Y1070762D01*
X1462890Y970762D02*
X1462890Y1070762D01*
X1524795Y970762D02*
X1524795Y1070762D01*
X1548605Y1070762D01*
X1562890Y1066000D01*
X1572414Y1056476D01*
X1577176Y1046952D01*
X1581938Y1027905D01*
X1581938Y1013619D01*
X1577176Y994571D01*
X1572414Y985048D01*
X1562890Y975524D01*
X1548605Y970762D01*
X1524795Y970762D01*
X1624795Y970762D02*
X1624795Y1070762D01*
X1472414Y-35714D02*
X1467652Y-40476D01*
X1453367Y-45238D01*
X1443843Y-45238D01*
X1429557Y-40476D01*
X1420033Y-30952D01*
X1415271Y-21429D01*
X1410509Y-2381D01*
X1410509Y11905D01*
X1415271Y30952D01*
X1420033Y40476D01*
X1429557Y50000D01*
X1443843Y54762D01*
X1453367Y54762D01*
X1467652Y50000D01*
X1472414Y45238D01*
X1510509Y-40476D02*
X1524795Y-45238D01*
X1548605Y-45238D01*
X1558128Y-40476D01*
X1562890Y-35714D01*
X1567652Y-26190D01*
X1567652Y-16667D01*
X1562890Y-7143D01*
X1558128Y-2381D01*
X1548605Y2381D01*
X1529557Y7143D01*
X1520033Y11905D01*
X1515271Y16667D01*
X1510509Y26190D01*
X1510509Y35714D01*
X1515271Y45238D01*
X1520033Y50000D01*
X1529557Y54762D01*
X1553367Y54762D01*
X1567652Y50000D01*
X1629557Y54762D02*
X1639081Y54762D01*
X1648605Y50000D01*
X1653367Y45238D01*
X1658128Y35714D01*
X1662890Y16667D01*
X1662890Y-7143D01*
X1658128Y-26190D01*
X1653367Y-35714D01*
X1648605Y-40476D01*
X1639081Y-45238D01*
X1629557Y-45238D01*
X1620033Y-40476D01*
X1615271Y-35714D01*
X1610509Y-26190D01*
X1605748Y-7143D01*
X1605748Y16667D01*
X1610509Y35714D01*
X1615271Y45238D01*
X1620033Y50000D01*
X1629557Y54762D01*
X1379557Y462762D02*
X1379557Y562762D01*
X1412890Y491333D01*
X1446224Y562762D01*
X1446224Y462762D01*
X1493843Y462762D02*
X1493843Y562762D01*
X1536700Y467524D02*
X1550986Y462762D01*
X1574795Y462762D01*
X1584319Y467524D01*
X1589081Y472286D01*
X1593843Y481810D01*
X1593843Y491333D01*
X1589081Y500857D01*
X1584319Y505619D01*
X1574795Y510381D01*
X1555748Y515143D01*
X1546224Y519905D01*
X1541462Y524667D01*
X1536700Y534191D01*
X1536700Y543714D01*
X1541462Y553238D01*
X1546224Y558000D01*
X1555748Y562762D01*
X1579557Y562762D01*
X1593843Y558000D01*
X1655748Y562762D02*
X1674795Y562762D01*
X1684319Y558000D01*
X1693843Y548476D01*
X1698605Y529429D01*
X1698605Y496095D01*
X1693843Y477048D01*
X1684319Y467524D01*
X1674795Y462762D01*
X1655748Y462762D01*
X1646224Y467524D01*
X1636700Y477048D01*
X1631938Y496095D01*
X1631938Y529429D01*
X1636700Y548476D01*
X1646224Y558000D01*
X1655748Y562762D01*
X1379557Y208762D02*
X1379557Y308762D01*
X1412890Y237333D01*
X1446224Y308762D01*
X1446224Y208762D01*
X1512890Y308762D02*
X1531938Y308762D01*
X1541462Y304000D01*
X1550986Y294476D01*
X1555748Y275429D01*
X1555748Y242095D01*
X1550986Y223048D01*
X1541462Y213524D01*
X1531938Y208762D01*
X1512890Y208762D01*
X1503367Y213524D01*
X1493843Y223048D01*
X1489081Y242095D01*
X1489081Y275429D01*
X1493843Y294476D01*
X1503367Y304000D01*
X1512890Y308762D01*
X1593843Y213524D02*
X1608128Y208762D01*
X1631938Y208762D01*
X1641462Y213524D01*
X1646224Y218286D01*
X1650986Y227810D01*
X1650986Y237333D01*
X1646224Y246857D01*
X1641462Y251619D01*
X1631938Y256381D01*
X1612890Y261143D01*
X1603367Y265905D01*
X1598605Y270667D01*
X1593843Y280191D01*
X1593843Y289714D01*
X1598605Y299238D01*
X1603367Y304000D01*
X1612890Y308762D01*
X1636700Y308762D01*
X1650986Y304000D01*
X1693843Y208762D02*
X1693843Y308762D01*
X1408128Y721524D02*
X1422414Y716762D01*
X1446224Y716762D01*
X1455748Y721524D01*
X1460509Y726286D01*
X1465271Y735810D01*
X1465271Y745333D01*
X1460509Y754857D01*
X1455748Y759619D01*
X1446224Y764381D01*
X1427176Y769143D01*
X1417652Y773905D01*
X1412890Y778667D01*
X1408128Y788190D01*
X1408128Y797714D01*
X1412890Y807238D01*
X1417652Y812000D01*
X1427176Y816762D01*
X1450986Y816762D01*
X1465271Y812000D01*
X1565271Y726286D02*
X1560509Y721524D01*
X1546224Y716762D01*
X1536700Y716762D01*
X1522414Y721524D01*
X1512890Y731048D01*
X1508128Y740571D01*
X1503367Y759619D01*
X1503367Y773905D01*
X1508128Y792952D01*
X1512890Y802476D01*
X1522414Y812000D01*
X1536700Y816762D01*
X1546224Y816762D01*
X1560509Y812000D01*
X1565271Y807238D01*
X1608128Y716762D02*
X1608128Y816762D01*
X1665271Y716762D02*
X1622414Y773905D01*
X1665271Y816762D02*
X1608128Y759619D01*
X957271Y1253333D02*
X1004890Y1253333D01*
X947748Y1224762D02*
X981081Y1324762D01*
X1014414Y1224762D01*
X1100129Y1224762D02*
X1042986Y1224762D01*
X1071557Y1224762D02*
X1071557Y1324762D01*
X1062033Y1310476D01*
X1052510Y1300952D01*
X1042986Y1296191D01*
X904890Y2086762D02*
X966795Y2086762D01*
X933462Y2048667D01*
X947748Y2048667D01*
X957271Y2043905D01*
X962033Y2039143D01*
X966795Y2029619D01*
X966795Y2005810D01*
X962033Y1996286D01*
X957271Y1991524D01*
X947748Y1986762D01*
X919176Y1986762D01*
X909652Y1991524D01*
X904890Y1996286D01*
X995367Y2086762D02*
X1028700Y1986762D01*
X1062033Y2086762D01*
X1085843Y2086762D02*
X1147748Y2086762D01*
X1114414Y2048667D01*
X1128700Y2048667D01*
X1138224Y2043905D01*
X1142986Y2039143D01*
X1147748Y2029619D01*
X1147748Y2005810D01*
X1142986Y1996286D01*
X1138224Y1991524D01*
X1128700Y1986762D01*
X1100129Y1986762D01*
X1090605Y1991524D01*
X1085843Y1996286D01*
X952509Y2590000D02*
X942986Y2594762D01*
X928700Y2594762D01*
X914414Y2590000D01*
X904890Y2580476D01*
X900128Y2570952D01*
X895367Y2551905D01*
X895367Y2537619D01*
X900128Y2518572D01*
X904890Y2509048D01*
X914414Y2499524D01*
X928700Y2494762D01*
X938224Y2494762D01*
X952509Y2499524D01*
X957271Y2504286D01*
X957271Y2537619D01*
X938224Y2537619D01*
X1000128Y2494762D02*
X1000128Y2594762D01*
X1057271Y2494762D01*
X1057271Y2594762D01*
X1104890Y2494762D02*
X1104890Y2594762D01*
X1128700Y2594762D01*
X1142986Y2590000D01*
X1152510Y2580476D01*
X1157271Y2570952D01*
X1162033Y2551905D01*
X1162033Y2537619D01*
X1157271Y2518572D01*
X1152510Y2509048D01*
X1142986Y2499524D01*
X1128700Y2494762D01*
X1104890Y2494762D01*
X823938Y2377500D02*
X923938Y2377500D01*
X904890Y2240762D02*
X871557Y2288381D01*
X847748Y2240762D02*
X847748Y2340762D01*
X885843Y2340762D01*
X895367Y2336000D01*
X900128Y2331238D01*
X904890Y2321714D01*
X904890Y2307429D01*
X900128Y2297905D01*
X895367Y2293143D01*
X885843Y2288381D01*
X847748Y2288381D01*
X923938Y2377500D02*
X1009652Y2377500D01*
X985843Y2245524D02*
X976319Y2240762D01*
X957271Y2240762D01*
X947748Y2245524D01*
X942986Y2255048D01*
X942986Y2293143D01*
X947748Y2302667D01*
X957271Y2307429D01*
X976319Y2307429D01*
X985843Y2302667D01*
X990605Y2293143D01*
X990605Y2283619D01*
X942986Y2274095D01*
X1009652Y2377500D02*
X1090605Y2377500D01*
X1028700Y2245524D02*
X1038224Y2240762D01*
X1057271Y2240762D01*
X1066795Y2245524D01*
X1071557Y2255048D01*
X1071557Y2259810D01*
X1066795Y2269333D01*
X1057271Y2274095D01*
X1042986Y2274095D01*
X1033462Y2278857D01*
X1028700Y2288381D01*
X1028700Y2293143D01*
X1033462Y2302667D01*
X1042986Y2307429D01*
X1057271Y2307429D01*
X1066795Y2302667D01*
X1090605Y2377500D02*
X1176319Y2377500D01*
X1152510Y2245524D02*
X1142986Y2240762D01*
X1123938Y2240762D01*
X1114414Y2245524D01*
X1109652Y2255048D01*
X1109652Y2293143D01*
X1114414Y2302667D01*
X1123938Y2307429D01*
X1142986Y2307429D01*
X1152510Y2302667D01*
X1157271Y2293143D01*
X1157271Y2283619D01*
X1109652Y2274095D01*
X1176319Y2377500D02*
X1233462Y2377500D01*
X1185843Y2307429D02*
X1223938Y2307429D01*
X1200129Y2340762D02*
X1200129Y2255048D01*
X1204890Y2245524D01*
X1214414Y2240762D01*
X1223938Y2240762D01*
X907271Y-45238D02*
X907271Y54762D01*
X931081Y54762D01*
X945367Y50000D01*
X954890Y40476D01*
X959652Y30952D01*
X964414Y11905D01*
X964414Y-2381D01*
X959652Y-21429D01*
X954890Y-30952D01*
X945367Y-40476D01*
X931081Y-45238D01*
X907271Y-45238D01*
X1059652Y-45238D02*
X1002509Y-45238D01*
X1031081Y-45238D02*
X1031081Y54762D01*
X1021557Y40476D01*
X1012033Y30952D01*
X1002509Y26190D01*
X1121557Y54762D02*
X1131081Y54762D01*
X1140605Y50000D01*
X1145367Y45238D01*
X1150129Y35714D01*
X1154890Y16667D01*
X1154890Y-7143D01*
X1150129Y-26190D01*
X1145367Y-35714D01*
X1140605Y-40476D01*
X1131081Y-45238D01*
X1121557Y-45238D01*
X1112033Y-40476D01*
X1107271Y-35714D01*
X1102510Y-26190D01*
X1097748Y-7143D01*
X1097748Y16667D01*
X1102510Y35714D01*
X1107271Y45238D01*
X1112033Y50000D01*
X1121557Y54762D01*
X957271Y1507333D02*
X1004890Y1507333D01*
X947748Y1478762D02*
X981081Y1578762D01*
X1014414Y1478762D01*
X1042986Y1569238D02*
X1047748Y1574000D01*
X1057271Y1578762D01*
X1081081Y1578762D01*
X1090605Y1574000D01*
X1095367Y1569238D01*
X1100129Y1559714D01*
X1100129Y1550190D01*
X1095367Y1535905D01*
X1038224Y1478762D01*
X1100129Y1478762D01*
X895367Y2848762D02*
X928700Y2748762D01*
X962033Y2848762D01*
X1052510Y2758286D02*
X1047748Y2753524D01*
X1033462Y2748762D01*
X1023938Y2748762D01*
X1009652Y2753524D01*
X1000128Y2763048D01*
X995367Y2772572D01*
X990605Y2791619D01*
X990605Y2805905D01*
X995367Y2824952D01*
X1000128Y2834476D01*
X1009652Y2844000D01*
X1023938Y2848762D01*
X1033462Y2848762D01*
X1047748Y2844000D01*
X1052510Y2839238D01*
X1152510Y2758286D02*
X1147748Y2753524D01*
X1133462Y2748762D01*
X1123938Y2748762D01*
X1109652Y2753524D01*
X1100129Y2763048D01*
X1095367Y2772572D01*
X1090605Y2791619D01*
X1090605Y2805905D01*
X1095367Y2824952D01*
X1100129Y2834476D01*
X1109652Y2844000D01*
X1123938Y2848762D01*
X1133462Y2848762D01*
X1147748Y2844000D01*
X1152510Y2839238D01*
X907271Y462762D02*
X907271Y562762D01*
X931081Y562762D01*
X945367Y558000D01*
X954890Y548476D01*
X959652Y538952D01*
X964414Y519905D01*
X964414Y505619D01*
X959652Y486571D01*
X954890Y477048D01*
X945367Y467524D01*
X931081Y462762D01*
X907271Y462762D01*
X1059652Y462762D02*
X1002509Y462762D01*
X1031081Y462762D02*
X1031081Y562762D01*
X1021557Y548476D01*
X1012033Y538952D01*
X1002509Y534191D01*
X1145367Y529429D02*
X1145367Y462762D01*
X1121557Y567524D02*
X1097748Y496095D01*
X1159652Y496095D01*
X907271Y208762D02*
X907271Y308762D01*
X931081Y308762D01*
X945367Y304000D01*
X954890Y294476D01*
X959652Y284952D01*
X964414Y265905D01*
X964414Y251619D01*
X959652Y232571D01*
X954890Y223048D01*
X945367Y213524D01*
X931081Y208762D01*
X907271Y208762D01*
X1059652Y208762D02*
X1002509Y208762D01*
X1031081Y208762D02*
X1031081Y308762D01*
X1021557Y294476D01*
X1012033Y284952D01*
X1002509Y280191D01*
X1145367Y308762D02*
X1126319Y308762D01*
X1116795Y304000D01*
X1112033Y299238D01*
X1102510Y284952D01*
X1097748Y265905D01*
X1097748Y227810D01*
X1102510Y218286D01*
X1107271Y213524D01*
X1116795Y208762D01*
X1135843Y208762D01*
X1145367Y213524D01*
X1150129Y218286D01*
X1154890Y227810D01*
X1154890Y251619D01*
X1150129Y261143D01*
X1145367Y265905D01*
X1135843Y270667D01*
X1116795Y270667D01*
X1107271Y265905D01*
X1102510Y261143D01*
X1097748Y251619D01*
X907271Y716762D02*
X907271Y816762D01*
X931081Y816762D01*
X945367Y812000D01*
X954890Y802476D01*
X959652Y792952D01*
X964414Y773905D01*
X964414Y759619D01*
X959652Y740571D01*
X954890Y731048D01*
X945367Y721524D01*
X931081Y716762D01*
X907271Y716762D01*
X1059652Y716762D02*
X1002509Y716762D01*
X1031081Y716762D02*
X1031081Y816762D01*
X1021557Y802476D01*
X1012033Y792952D01*
X1002509Y788190D01*
X1150129Y816762D02*
X1102510Y816762D01*
X1097748Y769143D01*
X1102510Y773905D01*
X1112033Y778667D01*
X1135843Y778667D01*
X1145367Y773905D01*
X1150129Y769143D01*
X1154890Y759619D01*
X1154890Y735810D01*
X1150129Y726286D01*
X1145367Y721524D01*
X1135843Y716762D01*
X1112033Y716762D01*
X1102510Y721524D01*
X1097748Y726286D01*
X957271Y1761333D02*
X1004890Y1761333D01*
X947748Y1732762D02*
X981081Y1832762D01*
X1014414Y1732762D01*
X1038224Y1832762D02*
X1100129Y1832762D01*
X1066795Y1794667D01*
X1081081Y1794667D01*
X1090605Y1789905D01*
X1095367Y1785143D01*
X1100129Y1775619D01*
X1100129Y1751810D01*
X1095367Y1742286D01*
X1090605Y1737524D01*
X1081081Y1732762D01*
X1052510Y1732762D01*
X1042986Y1737524D01*
X1038224Y1742286D01*
X957271Y999333D02*
X1004890Y999333D01*
X947748Y970762D02*
X981081Y1070762D01*
X1014414Y970762D01*
X1066795Y1070762D02*
X1076319Y1070762D01*
X1085843Y1066000D01*
X1090605Y1061238D01*
X1095367Y1051714D01*
X1100129Y1032667D01*
X1100129Y1008857D01*
X1095367Y989810D01*
X1090605Y980286D01*
X1085843Y975524D01*
X1076319Y970762D01*
X1066795Y970762D01*
X1057271Y975524D01*
X1052510Y980286D01*
X1047748Y989810D01*
X1042986Y1008857D01*
X1042986Y1032667D01*
X1047748Y1051714D01*
X1052510Y1061238D01*
X1057271Y1066000D01*
X1066795Y1070762D01*
X-2220110Y-45238D02*
X-2220110Y54762D01*
X-2196300Y54762D01*
X-2182014Y50000D01*
X-2172491Y40476D01*
X-2167729Y30952D01*
X-2162967Y11905D01*
X-2162967Y-2381D01*
X-2167729Y-21429D01*
X-2172491Y-30952D01*
X-2182014Y-40476D01*
X-2196300Y-45238D01*
X-2220110Y-45238D01*
X-2115348Y-45238D02*
X-2096300Y-45238D01*
X-2086776Y-40476D01*
X-2082014Y-35714D01*
X-2072490Y-21429D01*
X-2067729Y-2381D01*
X-2067729Y35714D01*
X-2072490Y45238D01*
X-2077252Y50000D01*
X-2086776Y54762D01*
X-2105824Y54762D01*
X-2115348Y50000D01*
X-2120110Y45238D01*
X-2124872Y35714D01*
X-2124872Y11905D01*
X-2120110Y2381D01*
X-2115348Y-2381D01*
X-2105824Y-7143D01*
X-2086776Y-7143D01*
X-2077252Y-2381D01*
X-2072490Y2381D01*
X-2067729Y11905D01*
X-2220110Y208762D02*
X-2220110Y308762D01*
X-2196300Y308762D01*
X-2182014Y304000D01*
X-2172491Y294476D01*
X-2167729Y284952D01*
X-2162967Y265905D01*
X-2162967Y251619D01*
X-2167729Y232571D01*
X-2172491Y223048D01*
X-2182014Y213524D01*
X-2196300Y208762D01*
X-2220110Y208762D01*
X-2105824Y265905D02*
X-2115348Y270667D01*
X-2120110Y275429D01*
X-2124872Y284952D01*
X-2124872Y289714D01*
X-2120110Y299238D01*
X-2115348Y304000D01*
X-2105824Y308762D01*
X-2086776Y308762D01*
X-2077252Y304000D01*
X-2072490Y299238D01*
X-2067729Y289714D01*
X-2067729Y284952D01*
X-2072490Y275429D01*
X-2077252Y270667D01*
X-2086776Y265905D01*
X-2105824Y265905D01*
X-2115348Y261143D01*
X-2120110Y256381D01*
X-2124872Y246857D01*
X-2124872Y227810D01*
X-2120110Y218286D01*
X-2115348Y213524D01*
X-2105824Y208762D01*
X-2086776Y208762D01*
X-2077252Y213524D01*
X-2072490Y218286D01*
X-2067729Y227810D01*
X-2067729Y246857D01*
X-2072490Y256381D01*
X-2077252Y261143D01*
X-2086776Y265905D01*
X-2220110Y716762D02*
X-2220110Y816762D01*
X-2196300Y816762D01*
X-2182014Y812000D01*
X-2172491Y802476D01*
X-2167729Y792952D01*
X-2162967Y773905D01*
X-2162967Y759619D01*
X-2167729Y740571D01*
X-2172491Y731048D01*
X-2182014Y721524D01*
X-2196300Y716762D01*
X-2220110Y716762D01*
X-2077252Y816762D02*
X-2096300Y816762D01*
X-2105824Y812000D01*
X-2110586Y807238D01*
X-2120110Y792952D01*
X-2124872Y773905D01*
X-2124872Y735810D01*
X-2120110Y726286D01*
X-2115348Y721524D01*
X-2105824Y716762D01*
X-2086776Y716762D01*
X-2077252Y721524D01*
X-2072490Y726286D01*
X-2067729Y735810D01*
X-2067729Y759619D01*
X-2072490Y769143D01*
X-2077252Y773905D01*
X-2086776Y778667D01*
X-2105824Y778667D01*
X-2115348Y773905D01*
X-2120110Y769143D01*
X-2124872Y759619D01*
X-2220110Y462762D02*
X-2220110Y562762D01*
X-2196300Y562762D01*
X-2182014Y558000D01*
X-2172491Y548476D01*
X-2167729Y538952D01*
X-2162967Y519905D01*
X-2162967Y505619D01*
X-2167729Y486571D01*
X-2172491Y477048D01*
X-2182014Y467524D01*
X-2196300Y462762D01*
X-2220110Y462762D01*
X-2129633Y562762D02*
X-2062967Y562762D01*
X-2105824Y462762D01*
X-2220110Y970762D02*
X-2220110Y1070762D01*
X-2196300Y1070762D01*
X-2182014Y1066000D01*
X-2172491Y1056476D01*
X-2167729Y1046952D01*
X-2162967Y1027905D01*
X-2162967Y1013619D01*
X-2167729Y994571D01*
X-2172491Y985048D01*
X-2182014Y975524D01*
X-2196300Y970762D01*
X-2220110Y970762D01*
X-2072490Y1070762D02*
X-2120110Y1070762D01*
X-2124872Y1023143D01*
X-2120110Y1027905D01*
X-2110586Y1032667D01*
X-2086776Y1032667D01*
X-2077252Y1027905D01*
X-2072490Y1023143D01*
X-2067729Y1013619D01*
X-2067729Y989810D01*
X-2072490Y980286D01*
X-2077252Y975524D01*
X-2086776Y970762D01*
X-2110586Y970762D01*
X-2120110Y975524D01*
X-2124872Y980286D01*
X-2220110Y1224762D02*
X-2220110Y1324762D01*
X-2196300Y1324762D01*
X-2182014Y1320000D01*
X-2172491Y1310476D01*
X-2167729Y1300952D01*
X-2162967Y1281905D01*
X-2162967Y1267619D01*
X-2167729Y1248572D01*
X-2172491Y1239048D01*
X-2182014Y1229524D01*
X-2196300Y1224762D01*
X-2220110Y1224762D01*
X-2077252Y1291429D02*
X-2077252Y1224762D01*
X-2101062Y1329524D02*
X-2124872Y1258095D01*
X-2062967Y1258095D01*
X-2773348Y1483524D02*
X-2759062Y1478762D01*
X-2735252Y1478762D01*
X-2725729Y1483524D01*
X-2720967Y1488286D01*
X-2716205Y1497810D01*
X-2716205Y1507333D01*
X-2720967Y1516857D01*
X-2725729Y1521619D01*
X-2735252Y1526381D01*
X-2754300Y1531143D01*
X-2763824Y1535905D01*
X-2768586Y1540667D01*
X-2773348Y1550190D01*
X-2773348Y1559714D01*
X-2768586Y1569238D01*
X-2763824Y1574000D01*
X-2754300Y1578762D01*
X-2730491Y1578762D01*
X-2716205Y1574000D01*
X-2616205Y1488286D02*
X-2620967Y1483524D01*
X-2635252Y1478762D01*
X-2644776Y1478762D01*
X-2659062Y1483524D01*
X-2668586Y1493048D01*
X-2673348Y1502571D01*
X-2678110Y1521619D01*
X-2678110Y1535905D01*
X-2673348Y1554952D01*
X-2668586Y1564476D01*
X-2659062Y1574000D01*
X-2644776Y1578762D01*
X-2635252Y1578762D01*
X-2620967Y1574000D01*
X-2616205Y1569238D01*
X-2525729Y1478762D02*
X-2573348Y1478762D01*
X-2573348Y1578762D01*
X-2775729Y1737524D02*
X-2761443Y1732762D01*
X-2737633Y1732762D01*
X-2728110Y1737524D01*
X-2723348Y1742286D01*
X-2718586Y1751810D01*
X-2718586Y1761333D01*
X-2723348Y1770857D01*
X-2728110Y1775619D01*
X-2737633Y1780381D01*
X-2756681Y1785143D01*
X-2766205Y1789905D01*
X-2770967Y1794667D01*
X-2775729Y1804190D01*
X-2775729Y1813714D01*
X-2770967Y1823238D01*
X-2766205Y1828000D01*
X-2756681Y1832762D01*
X-2732872Y1832762D01*
X-2718586Y1828000D01*
X-2675729Y1732762D02*
X-2675729Y1832762D01*
X-2651919Y1832762D01*
X-2637633Y1828000D01*
X-2628110Y1818476D01*
X-2623348Y1808952D01*
X-2618586Y1789905D01*
X-2618586Y1775619D01*
X-2623348Y1756571D01*
X-2628110Y1747048D01*
X-2637633Y1737524D01*
X-2651919Y1732762D01*
X-2675729Y1732762D01*
X-2580491Y1761333D02*
X-2532872Y1761333D01*
X-2590014Y1732762D02*
X-2556681Y1832762D01*
X-2523348Y1732762D01*
X-2220110Y1478762D02*
X-2220110Y1578762D01*
X-2196300Y1578762D01*
X-2182014Y1574000D01*
X-2172491Y1564476D01*
X-2167729Y1554952D01*
X-2162967Y1535905D01*
X-2162967Y1521619D01*
X-2167729Y1502571D01*
X-2172491Y1493048D01*
X-2182014Y1483524D01*
X-2196300Y1478762D01*
X-2220110Y1478762D01*
X-2129633Y1578762D02*
X-2067729Y1578762D01*
X-2101062Y1540667D01*
X-2086776Y1540667D01*
X-2077252Y1535905D01*
X-2072490Y1531143D01*
X-2067729Y1521619D01*
X-2067729Y1497810D01*
X-2072490Y1488286D01*
X-2077252Y1483524D01*
X-2086776Y1478762D01*
X-2115348Y1478762D01*
X-2124872Y1483524D01*
X-2129633Y1488286D01*
X-2220110Y1732762D02*
X-2220110Y1832762D01*
X-2196300Y1832762D01*
X-2182014Y1828000D01*
X-2172491Y1818476D01*
X-2167729Y1808952D01*
X-2162967Y1789905D01*
X-2162967Y1775619D01*
X-2167729Y1756571D01*
X-2172491Y1747048D01*
X-2182014Y1737524D01*
X-2196300Y1732762D01*
X-2220110Y1732762D01*
X-2124872Y1823238D02*
X-2120110Y1828000D01*
X-2110586Y1832762D01*
X-2086776Y1832762D01*
X-2077252Y1828000D01*
X-2072490Y1823238D01*
X-2067729Y1813714D01*
X-2067729Y1804190D01*
X-2072490Y1789905D01*
X-2129633Y1732762D01*
X-2067729Y1732762D01*
X-2235191Y2082000D02*
X-2244714Y2086762D01*
X-2259000Y2086762D01*
X-2273286Y2082000D01*
X-2282810Y2072476D01*
X-2287572Y2062952D01*
X-2292333Y2043905D01*
X-2292333Y2029619D01*
X-2287572Y2010571D01*
X-2282810Y2001048D01*
X-2273286Y1991524D01*
X-2259000Y1986762D01*
X-2249476Y1986762D01*
X-2235191Y1991524D01*
X-2230429Y1996286D01*
X-2230429Y2029619D01*
X-2249476Y2029619D01*
X-2187572Y1986762D02*
X-2187572Y2086762D01*
X-2130429Y1986762D01*
X-2130429Y2086762D01*
X-2082810Y1986762D02*
X-2082810Y2086762D01*
X-2059000Y2086762D01*
X-2044714Y2082000D01*
X-2035190Y2072476D01*
X-2030429Y2062952D01*
X-2025667Y2043905D01*
X-2025667Y2029619D01*
X-2030429Y2010571D01*
X-2035190Y2001048D01*
X-2044714Y1991524D01*
X-2059000Y1986762D01*
X-2082810Y1986762D01*
X-2720967Y2494762D02*
X-2754300Y2542381D01*
X-2778110Y2494762D02*
X-2778110Y2594762D01*
X-2740014Y2594762D01*
X-2730491Y2590000D01*
X-2725729Y2585238D01*
X-2720967Y2575714D01*
X-2720967Y2561429D01*
X-2725729Y2551905D01*
X-2730491Y2547143D01*
X-2740014Y2542381D01*
X-2778110Y2542381D01*
X-2687633Y2594762D02*
X-2620967Y2494762D01*
X-2620967Y2594762D02*
X-2687633Y2494762D01*
X-2582872Y2494762D02*
X-2582872Y2594762D01*
X-2559062Y2594762D01*
X-2544776Y2590000D01*
X-2535252Y2580476D01*
X-2530491Y2570952D01*
X-2525729Y2551905D01*
X-2525729Y2537619D01*
X-2530491Y2518572D01*
X-2535252Y2509048D01*
X-2544776Y2499524D01*
X-2559062Y2494762D01*
X-2582872Y2494762D01*
X-2780491Y2848762D02*
X-2723348Y2848762D01*
X-2751919Y2748762D02*
X-2751919Y2848762D01*
X-2699538Y2848762D02*
X-2632872Y2748762D01*
X-2632872Y2848762D02*
X-2699538Y2748762D01*
X-2594776Y2748762D02*
X-2594776Y2848762D01*
X-2570967Y2848762D01*
X-2556681Y2844000D01*
X-2547157Y2834476D01*
X-2542395Y2824952D01*
X-2537633Y2805905D01*
X-2537633Y2791619D01*
X-2542395Y2772572D01*
X-2547157Y2763048D01*
X-2556681Y2753524D01*
X-2570967Y2748762D01*
X-2594776Y2748762D01*
X-2220110Y2748762D02*
X-2220110Y2848762D01*
X-2196300Y2848762D01*
X-2182014Y2844000D01*
X-2172491Y2834476D01*
X-2167729Y2824952D01*
X-2162967Y2805905D01*
X-2162967Y2791619D01*
X-2167729Y2772572D01*
X-2172491Y2763048D01*
X-2182014Y2753524D01*
X-2196300Y2748762D01*
X-2220110Y2748762D01*
X-2067729Y2748762D02*
X-2124872Y2748762D01*
X-2096300Y2748762D02*
X-2096300Y2848762D01*
X-2105824Y2834476D01*
X-2115348Y2824952D01*
X-2124872Y2820190D01*
X-2220110Y2494762D02*
X-2220110Y2594762D01*
X-2196300Y2594762D01*
X-2182014Y2590000D01*
X-2172491Y2580476D01*
X-2167729Y2570952D01*
X-2162967Y2551905D01*
X-2162967Y2537619D01*
X-2167729Y2518572D01*
X-2172491Y2509048D01*
X-2182014Y2499524D01*
X-2196300Y2494762D01*
X-2220110Y2494762D01*
X-2101062Y2594762D02*
X-2091538Y2594762D01*
X-2082014Y2590000D01*
X-2077252Y2585238D01*
X-2072490Y2575714D01*
X-2067729Y2556667D01*
X-2067729Y2532857D01*
X-2072490Y2513810D01*
X-2077252Y2504286D01*
X-2082014Y2499524D01*
X-2091538Y2494762D01*
X-2101062Y2494762D01*
X-2110586Y2499524D01*
X-2115348Y2504286D01*
X-2120110Y2513810D01*
X-2124872Y2532857D01*
X-2124872Y2556667D01*
X-2120110Y2575714D01*
X-2115348Y2585238D01*
X-2110586Y2590000D01*
X-2101062Y2594762D01*
D10*
X-1587500Y-127000D02*
G75*
G02X-1651000Y-63500I0J63500D01*
G01*
X127000Y-63500D02*
G75*
G02X63500Y-127000I-63500J0D01*
G01*
X63500Y2921000D02*
G75*
G02X127000Y2857500I0J-63500D01*
G01*
X-1651000Y2857500D02*
G75*
G02X-1587500Y2921000I63500J0D01*
G01*
X63500Y-127000D02*
X-1587500Y-127000D01*
X-1587500Y2921000D02*
X63500Y2921000D01*
M02*
