%TF.GenerationSoftware,KiCad,Pcbnew,5.1.5+dfsg1-2~bpo10+1*%
%TF.CreationDate,Date%
%TF.ProjectId,ProMicro_TEST,50726f4d-6963-4726-9f5f-544553542e6b,v1.0*%
%TF.SameCoordinates,Original*%
%TF.FileFunction,Legend,Top*%
%TF.FilePolarity,Positive*%
%FSLAX45Y45*%
G04 Gerber Fmt 4.5, Leading zero omitted, Abs format (unit mm)*
G04 Created by KiCad*
%MOMM*%
%LPD*%
G04 APERTURE LIST*
%ADD10C,0.100000*%
%ADD11C,0.120000*%
%ADD12C,0.150000*%
%ADD13O,1.600000X1.600000*%
%ADD14R,1.600000X1.600000*%
G04 APERTURE END LIST*
D10*
X127000Y2857500D02*
X127000Y-63500D01*
X-1651000Y-63500D02*
X-1651000Y2857500D01*
X-1587500Y-127000D02*
G75*
G02X-1651000Y-63500I0J63500D01*
G01*
X127000Y-63500D02*
G75*
G02X63500Y-127000I-63500J0D01*
G01*
X63500Y2921000D02*
G75*
G02X127000Y2857500I0J-63500D01*
G01*
X-1651000Y2857500D02*
G75*
G02X-1587500Y2921000I63500J0D01*
G01*
X63500Y-127000D02*
X-1587500Y-127000D01*
X-1587500Y2921000D02*
X63500Y2921000D01*
D11*
X140000Y127000D02*
X140000Y2921000D01*
X-1397000Y-127000D02*
X-1397000Y2921000D01*
X-127000Y127000D02*
X140000Y127000D01*
X-127000Y-127000D02*
X-127000Y2921000D01*
X140000Y2921000D02*
X-1664000Y2921000D01*
X-1664000Y2921000D02*
X-1664000Y-127000D01*
X-1664000Y-127000D02*
X-127000Y-127000D01*
D12*
X-833429Y-270667D02*
X-785810Y-270667D01*
X-842952Y-299238D02*
X-809619Y-199238D01*
X-776286Y-299238D01*
X-690572Y-299238D02*
X-747714Y-299238D01*
X-719143Y-299238D02*
X-719143Y-199238D01*
X-728667Y-213524D01*
X-738190Y-223048D01*
X-747714Y-227809D01*
%LPC*%
D13*
X-1524000Y0D03*
X-1524000Y254000D03*
X-1524000Y508000D03*
X0Y2794000D03*
X-1524000Y762000D03*
X0Y2540000D03*
X-1524000Y1016000D03*
X0Y2286000D03*
X-1524000Y1270000D03*
X0Y2032000D03*
X-1524000Y1524000D03*
X0Y1778000D03*
X-1524000Y1778000D03*
X0Y1524000D03*
X-1524000Y2032000D03*
X0Y1270000D03*
X-1524000Y2286000D03*
X0Y1016000D03*
X-1524000Y2540000D03*
X0Y762000D03*
X-1524000Y2794000D03*
X0Y508000D03*
X0Y254000D03*
D14*
X0Y0D03*
M02*
