%TF.GenerationSoftware,KiCad,Pcbnew,5.1.5+dfsg1-2~bpo10+1*%
%TF.CreationDate,Date%
%TF.ProjectId,ProMicro_ANA,50726f4d-6963-4726-9f5f-414e412e6b69,v1.0*%
%TF.SameCoordinates,Original*%
%TF.FileFunction,Paste,Top*%
%TF.FilePolarity,Positive*%
%FSLAX45Y45*%
G04 Gerber Fmt 4.5, Leading zero omitted, Abs format (unit mm)*
G04 Created by KiCad*
%MOMM*%
%LPD*%
G04 APERTURE LIST*
%ADD10C,0.100000*%
%ADD11C,0.150000*%
%ADD12R,1.780000X2.000000*%
G04 APERTURE END LIST*
D10*
X-63500Y-127000D02*
G75*
G02X-127000Y-63500I0J63500D01*
G01*
X1651000Y-63500D02*
G75*
G02X1587500Y-127000I-63500J0D01*
G01*
X1587500Y2921000D02*
G75*
G02X1651000Y2857500I0J-63500D01*
G01*
X-127000Y2857500D02*
G75*
G02X-63500Y2921000I63500J0D01*
G01*
X-127000Y-63500D02*
X-127000Y2857500D01*
X1587500Y-127000D02*
X-63500Y-127000D01*
X1651000Y2857500D02*
X1651000Y-63500D01*
X-63500Y2921000D02*
X1587500Y2921000D01*
D11*
G36*
X961269Y2460395D02*
G01*
X963393Y2460080D01*
X965475Y2459558D01*
X967496Y2458835D01*
X969437Y2457917D01*
X971278Y2456813D01*
X973002Y2455535D01*
X974593Y2454093D01*
X976035Y2452502D01*
X977313Y2450778D01*
X978417Y2448937D01*
X979335Y2446996D01*
X980058Y2444975D01*
X980580Y2442893D01*
X980895Y2440769D01*
X981000Y2438625D01*
X981000Y2387375D01*
X980895Y2385231D01*
X980580Y2383107D01*
X980058Y2381025D01*
X979335Y2379004D01*
X978417Y2377063D01*
X977313Y2375222D01*
X976035Y2373498D01*
X974593Y2371907D01*
X973002Y2370465D01*
X971278Y2369187D01*
X969437Y2368083D01*
X967496Y2367165D01*
X965475Y2366442D01*
X963393Y2365920D01*
X961269Y2365605D01*
X959125Y2365500D01*
X915375Y2365500D01*
X913231Y2365605D01*
X911107Y2365920D01*
X909025Y2366442D01*
X907004Y2367165D01*
X905063Y2368083D01*
X903222Y2369187D01*
X901498Y2370465D01*
X899907Y2371907D01*
X898465Y2373498D01*
X897187Y2375222D01*
X896083Y2377063D01*
X895165Y2379004D01*
X894442Y2381025D01*
X893920Y2383107D01*
X893605Y2385231D01*
X893500Y2387375D01*
X893500Y2438625D01*
X893605Y2440769D01*
X893920Y2442893D01*
X894442Y2444975D01*
X895165Y2446996D01*
X896083Y2448937D01*
X897187Y2450778D01*
X898465Y2452502D01*
X899907Y2454093D01*
X901498Y2455535D01*
X903222Y2456813D01*
X905063Y2457917D01*
X907004Y2458835D01*
X909025Y2459558D01*
X911107Y2460080D01*
X913231Y2460395D01*
X915375Y2460500D01*
X959125Y2460500D01*
X961269Y2460395D01*
G37*
G36*
X1118769Y2460395D02*
G01*
X1120893Y2460080D01*
X1122975Y2459558D01*
X1124996Y2458835D01*
X1126937Y2457917D01*
X1128778Y2456813D01*
X1130502Y2455535D01*
X1132093Y2454093D01*
X1133535Y2452502D01*
X1134813Y2450778D01*
X1135917Y2448937D01*
X1136835Y2446996D01*
X1137558Y2444975D01*
X1138080Y2442893D01*
X1138395Y2440769D01*
X1138500Y2438625D01*
X1138500Y2387375D01*
X1138395Y2385231D01*
X1138080Y2383107D01*
X1137558Y2381025D01*
X1136835Y2379004D01*
X1135917Y2377063D01*
X1134813Y2375222D01*
X1133535Y2373498D01*
X1132093Y2371907D01*
X1130502Y2370465D01*
X1128778Y2369187D01*
X1126937Y2368083D01*
X1124996Y2367165D01*
X1122975Y2366442D01*
X1120893Y2365920D01*
X1118769Y2365605D01*
X1116625Y2365500D01*
X1072875Y2365500D01*
X1070731Y2365605D01*
X1068607Y2365920D01*
X1066525Y2366442D01*
X1064504Y2367165D01*
X1062563Y2368083D01*
X1060722Y2369187D01*
X1058998Y2370465D01*
X1057407Y2371907D01*
X1055965Y2373498D01*
X1054687Y2375222D01*
X1053583Y2377063D01*
X1052665Y2379004D01*
X1051942Y2381025D01*
X1051420Y2383107D01*
X1051105Y2385231D01*
X1051000Y2387375D01*
X1051000Y2438625D01*
X1051105Y2440769D01*
X1051420Y2442893D01*
X1051942Y2444975D01*
X1052665Y2446996D01*
X1053583Y2448937D01*
X1054687Y2450778D01*
X1055965Y2452502D01*
X1057407Y2454093D01*
X1058998Y2455535D01*
X1060722Y2456813D01*
X1062563Y2457917D01*
X1064504Y2458835D01*
X1066525Y2459558D01*
X1068607Y2460080D01*
X1070731Y2460395D01*
X1072875Y2460500D01*
X1116625Y2460500D01*
X1118769Y2460395D01*
G37*
G36*
X610769Y2460395D02*
G01*
X612893Y2460080D01*
X614975Y2459558D01*
X616996Y2458835D01*
X618937Y2457917D01*
X620778Y2456813D01*
X622502Y2455535D01*
X624093Y2454093D01*
X625535Y2452502D01*
X626813Y2450778D01*
X627917Y2448937D01*
X628835Y2446996D01*
X629558Y2444975D01*
X630080Y2442893D01*
X630395Y2440769D01*
X630500Y2438625D01*
X630500Y2387375D01*
X630395Y2385231D01*
X630080Y2383107D01*
X629558Y2381025D01*
X628835Y2379004D01*
X627917Y2377063D01*
X626813Y2375222D01*
X625535Y2373498D01*
X624093Y2371907D01*
X622502Y2370465D01*
X620778Y2369187D01*
X618937Y2368083D01*
X616996Y2367165D01*
X614975Y2366442D01*
X612893Y2365920D01*
X610769Y2365605D01*
X608625Y2365500D01*
X564875Y2365500D01*
X562731Y2365605D01*
X560607Y2365920D01*
X558525Y2366442D01*
X556504Y2367165D01*
X554563Y2368083D01*
X552722Y2369187D01*
X550998Y2370465D01*
X549407Y2371907D01*
X547965Y2373498D01*
X546687Y2375222D01*
X545583Y2377063D01*
X544665Y2379004D01*
X543942Y2381025D01*
X543420Y2383107D01*
X543105Y2385231D01*
X543000Y2387375D01*
X543000Y2438625D01*
X543105Y2440769D01*
X543420Y2442893D01*
X543942Y2444975D01*
X544665Y2446996D01*
X545583Y2448937D01*
X546687Y2450778D01*
X547965Y2452502D01*
X549407Y2454093D01*
X550998Y2455535D01*
X552722Y2456813D01*
X554563Y2457917D01*
X556504Y2458835D01*
X558525Y2459558D01*
X560607Y2460080D01*
X562731Y2460395D01*
X564875Y2460500D01*
X608625Y2460500D01*
X610769Y2460395D01*
G37*
G36*
X453269Y2460395D02*
G01*
X455393Y2460080D01*
X457475Y2459558D01*
X459496Y2458835D01*
X461437Y2457917D01*
X463278Y2456813D01*
X465002Y2455535D01*
X466593Y2454093D01*
X468035Y2452502D01*
X469313Y2450778D01*
X470417Y2448937D01*
X471335Y2446996D01*
X472058Y2444975D01*
X472580Y2442893D01*
X472895Y2440769D01*
X473000Y2438625D01*
X473000Y2387375D01*
X472895Y2385231D01*
X472580Y2383107D01*
X472058Y2381025D01*
X471335Y2379004D01*
X470417Y2377063D01*
X469313Y2375222D01*
X468035Y2373498D01*
X466593Y2371907D01*
X465002Y2370465D01*
X463278Y2369187D01*
X461437Y2368083D01*
X459496Y2367165D01*
X457475Y2366442D01*
X455393Y2365920D01*
X453269Y2365605D01*
X451125Y2365500D01*
X407375Y2365500D01*
X405231Y2365605D01*
X403107Y2365920D01*
X401025Y2366442D01*
X399004Y2367165D01*
X397063Y2368083D01*
X395222Y2369187D01*
X393498Y2370465D01*
X391907Y2371907D01*
X390465Y2373498D01*
X389187Y2375222D01*
X388083Y2377063D01*
X387165Y2379004D01*
X386442Y2381025D01*
X385920Y2383107D01*
X385605Y2385231D01*
X385500Y2387375D01*
X385500Y2438625D01*
X385605Y2440769D01*
X385920Y2442893D01*
X386442Y2444975D01*
X387165Y2446996D01*
X388083Y2448937D01*
X389187Y2450778D01*
X390465Y2452502D01*
X391907Y2454093D01*
X393498Y2455535D01*
X395222Y2456813D01*
X397063Y2457917D01*
X399004Y2458835D01*
X401025Y2459558D01*
X403107Y2460080D01*
X405231Y2460395D01*
X407375Y2460500D01*
X451125Y2460500D01*
X453269Y2460395D01*
G37*
G36*
X961269Y2269895D02*
G01*
X963393Y2269580D01*
X965475Y2269058D01*
X967496Y2268335D01*
X969437Y2267417D01*
X971278Y2266313D01*
X973002Y2265035D01*
X974593Y2263593D01*
X976035Y2262002D01*
X977313Y2260278D01*
X978417Y2258437D01*
X979335Y2256496D01*
X980058Y2254475D01*
X980580Y2252393D01*
X980895Y2250269D01*
X981000Y2248125D01*
X981000Y2196875D01*
X980895Y2194731D01*
X980580Y2192607D01*
X980058Y2190525D01*
X979335Y2188504D01*
X978417Y2186563D01*
X977313Y2184722D01*
X976035Y2182998D01*
X974593Y2181407D01*
X973002Y2179965D01*
X971278Y2178687D01*
X969437Y2177583D01*
X967496Y2176665D01*
X965475Y2175942D01*
X963393Y2175420D01*
X961269Y2175105D01*
X959125Y2175000D01*
X915375Y2175000D01*
X913231Y2175105D01*
X911107Y2175420D01*
X909025Y2175942D01*
X907004Y2176665D01*
X905063Y2177583D01*
X903222Y2178687D01*
X901498Y2179965D01*
X899907Y2181407D01*
X898465Y2182998D01*
X897187Y2184722D01*
X896083Y2186563D01*
X895165Y2188504D01*
X894442Y2190525D01*
X893920Y2192607D01*
X893605Y2194731D01*
X893500Y2196875D01*
X893500Y2248125D01*
X893605Y2250269D01*
X893920Y2252393D01*
X894442Y2254475D01*
X895165Y2256496D01*
X896083Y2258437D01*
X897187Y2260278D01*
X898465Y2262002D01*
X899907Y2263593D01*
X901498Y2265035D01*
X903222Y2266313D01*
X905063Y2267417D01*
X907004Y2268335D01*
X909025Y2269058D01*
X911107Y2269580D01*
X913231Y2269895D01*
X915375Y2270000D01*
X959125Y2270000D01*
X961269Y2269895D01*
G37*
G36*
X1118769Y2269895D02*
G01*
X1120893Y2269580D01*
X1122975Y2269058D01*
X1124996Y2268335D01*
X1126937Y2267417D01*
X1128778Y2266313D01*
X1130502Y2265035D01*
X1132093Y2263593D01*
X1133535Y2262002D01*
X1134813Y2260278D01*
X1135917Y2258437D01*
X1136835Y2256496D01*
X1137558Y2254475D01*
X1138080Y2252393D01*
X1138395Y2250269D01*
X1138500Y2248125D01*
X1138500Y2196875D01*
X1138395Y2194731D01*
X1138080Y2192607D01*
X1137558Y2190525D01*
X1136835Y2188504D01*
X1135917Y2186563D01*
X1134813Y2184722D01*
X1133535Y2182998D01*
X1132093Y2181407D01*
X1130502Y2179965D01*
X1128778Y2178687D01*
X1126937Y2177583D01*
X1124996Y2176665D01*
X1122975Y2175942D01*
X1120893Y2175420D01*
X1118769Y2175105D01*
X1116625Y2175000D01*
X1072875Y2175000D01*
X1070731Y2175105D01*
X1068607Y2175420D01*
X1066525Y2175942D01*
X1064504Y2176665D01*
X1062563Y2177583D01*
X1060722Y2178687D01*
X1058998Y2179965D01*
X1057407Y2181407D01*
X1055965Y2182998D01*
X1054687Y2184722D01*
X1053583Y2186563D01*
X1052665Y2188504D01*
X1051942Y2190525D01*
X1051420Y2192607D01*
X1051105Y2194731D01*
X1051000Y2196875D01*
X1051000Y2248125D01*
X1051105Y2250269D01*
X1051420Y2252393D01*
X1051942Y2254475D01*
X1052665Y2256496D01*
X1053583Y2258437D01*
X1054687Y2260278D01*
X1055965Y2262002D01*
X1057407Y2263593D01*
X1058998Y2265035D01*
X1060722Y2266313D01*
X1062563Y2267417D01*
X1064504Y2268335D01*
X1066525Y2269058D01*
X1068607Y2269580D01*
X1070731Y2269895D01*
X1072875Y2270000D01*
X1116625Y2270000D01*
X1118769Y2269895D01*
G37*
G36*
X453269Y2269895D02*
G01*
X455393Y2269580D01*
X457475Y2269058D01*
X459496Y2268335D01*
X461437Y2267417D01*
X463278Y2266313D01*
X465002Y2265035D01*
X466593Y2263593D01*
X468035Y2262002D01*
X469313Y2260278D01*
X470417Y2258437D01*
X471335Y2256496D01*
X472058Y2254475D01*
X472580Y2252393D01*
X472895Y2250269D01*
X473000Y2248125D01*
X473000Y2196875D01*
X472895Y2194731D01*
X472580Y2192607D01*
X472058Y2190525D01*
X471335Y2188504D01*
X470417Y2186563D01*
X469313Y2184722D01*
X468035Y2182998D01*
X466593Y2181407D01*
X465002Y2179965D01*
X463278Y2178687D01*
X461437Y2177583D01*
X459496Y2176665D01*
X457475Y2175942D01*
X455393Y2175420D01*
X453269Y2175105D01*
X451125Y2175000D01*
X407375Y2175000D01*
X405231Y2175105D01*
X403107Y2175420D01*
X401025Y2175942D01*
X399004Y2176665D01*
X397063Y2177583D01*
X395222Y2178687D01*
X393498Y2179965D01*
X391907Y2181407D01*
X390465Y2182998D01*
X389187Y2184722D01*
X388083Y2186563D01*
X387165Y2188504D01*
X386442Y2190525D01*
X385920Y2192607D01*
X385605Y2194731D01*
X385500Y2196875D01*
X385500Y2248125D01*
X385605Y2250269D01*
X385920Y2252393D01*
X386442Y2254475D01*
X387165Y2256496D01*
X388083Y2258437D01*
X389187Y2260278D01*
X390465Y2262002D01*
X391907Y2263593D01*
X393498Y2265035D01*
X395222Y2266313D01*
X397063Y2267417D01*
X399004Y2268335D01*
X401025Y2269058D01*
X403107Y2269580D01*
X405231Y2269895D01*
X407375Y2270000D01*
X451125Y2270000D01*
X453269Y2269895D01*
G37*
G36*
X610769Y2269895D02*
G01*
X612893Y2269580D01*
X614975Y2269058D01*
X616996Y2268335D01*
X618937Y2267417D01*
X620778Y2266313D01*
X622502Y2265035D01*
X624093Y2263593D01*
X625535Y2262002D01*
X626813Y2260278D01*
X627917Y2258437D01*
X628835Y2256496D01*
X629558Y2254475D01*
X630080Y2252393D01*
X630395Y2250269D01*
X630500Y2248125D01*
X630500Y2196875D01*
X630395Y2194731D01*
X630080Y2192607D01*
X629558Y2190525D01*
X628835Y2188504D01*
X627917Y2186563D01*
X626813Y2184722D01*
X625535Y2182998D01*
X624093Y2181407D01*
X622502Y2179965D01*
X620778Y2178687D01*
X618937Y2177583D01*
X616996Y2176665D01*
X614975Y2175942D01*
X612893Y2175420D01*
X610769Y2175105D01*
X608625Y2175000D01*
X564875Y2175000D01*
X562731Y2175105D01*
X560607Y2175420D01*
X558525Y2175942D01*
X556504Y2176665D01*
X554563Y2177583D01*
X552722Y2178687D01*
X550998Y2179965D01*
X549407Y2181407D01*
X547965Y2182998D01*
X546687Y2184722D01*
X545583Y2186563D01*
X544665Y2188504D01*
X543942Y2190525D01*
X543420Y2192607D01*
X543105Y2194731D01*
X543000Y2196875D01*
X543000Y2248125D01*
X543105Y2250269D01*
X543420Y2252393D01*
X543942Y2254475D01*
X544665Y2256496D01*
X545583Y2258437D01*
X546687Y2260278D01*
X547965Y2262002D01*
X549407Y2263593D01*
X550998Y2265035D01*
X552722Y2266313D01*
X554563Y2267417D01*
X556504Y2268335D01*
X558525Y2269058D01*
X560607Y2269580D01*
X562731Y2269895D01*
X564875Y2270000D01*
X608625Y2270000D01*
X610769Y2269895D01*
G37*
D12*
X1143000Y984000D03*
X381000Y1937000D03*
X889000Y984000D03*
X635000Y1937000D03*
X635000Y984000D03*
X889000Y1937000D03*
X381000Y984000D03*
X1143000Y1937000D03*
M02*
