%TF.GenerationSoftware,KiCad,Pcbnew,5.1.6+dfsg1-1~bpo10+1*%
%TF.CreationDate,2020-07-08T21:11:21+00:00*%
%TF.ProjectId,ProMicro_UART,50726f4d-6963-4726-9f5f-554152542e6b,v2*%
%TF.SameCoordinates,Original*%
%TF.FileFunction,Other,Fab,Top*%
%FSLAX45Y45*%
G04 Gerber Fmt 4.5, Leading zero omitted, Abs format (unit mm)*
G04 Created by KiCad (PCBNEW 5.1.6+dfsg1-1~bpo10+1) date 2020-07-08 21:11:21*
%MOMM*%
%LPD*%
G01*
G04 APERTURE LIST*
%TA.AperFunction,Profile*%
%ADD10C,0.100000*%
%TD*%
%ADD11C,0.100000*%
%ADD12C,0.060000*%
%ADD13C,0.105000*%
%ADD14C,0.200000*%
%ADD15C,0.040000*%
G04 APERTURE END LIST*
D10*
X-1651000Y3111500D02*
X-1651000Y-63500D01*
X127000Y3111500D02*
X127000Y-63500D01*
X-1587500Y-127000D02*
G75*
G02*
X-1651000Y-63500I0J63500D01*
G01*
X127000Y-63500D02*
G75*
G02*
X63500Y-127000I-63500J0D01*
G01*
X63500Y3175000D02*
G75*
G02*
X127000Y3111500I0J-63500D01*
G01*
X-1651000Y3111500D02*
G75*
G02*
X-1587500Y3175000I63500J0D01*
G01*
X63500Y-127000D02*
X-1587500Y-127000D01*
X-1587500Y3175000D02*
X63500Y3175000D01*
D11*
X-1650000Y-110000D02*
X-1650000Y2905000D01*
X80000Y-110000D02*
X-1650000Y-110000D01*
X80000Y-110000D02*
X127000Y-60000D01*
X127000Y2905000D02*
X127000Y-60000D01*
X-1650000Y2905000D02*
X127000Y2905000D01*
X-620400Y2523500D02*
X-700400Y2523500D01*
X-700400Y2523500D02*
X-700400Y2683500D01*
X-700400Y2683500D02*
X-620400Y2683500D01*
X-620400Y2683500D02*
X-620400Y2523500D01*
X-468000Y2523500D02*
X-548000Y2523500D01*
X-548000Y2523500D02*
X-548000Y2683500D01*
X-548000Y2683500D02*
X-468000Y2683500D01*
X-468000Y2683500D02*
X-468000Y2523500D01*
X-798200Y2523500D02*
X-878200Y2523500D01*
X-878200Y2523500D02*
X-878200Y2683500D01*
X-878200Y2683500D02*
X-798200Y2683500D01*
X-798200Y2683500D02*
X-798200Y2523500D01*
X-1030600Y2683500D02*
X-950600Y2683500D01*
X-950600Y2683500D02*
X-950600Y2523500D01*
X-950600Y2523500D02*
X-1030600Y2523500D01*
X-1030600Y2523500D02*
X-1030600Y2683500D01*
X-1382300Y1008400D02*
X-1132300Y1008400D01*
X-1132300Y1008400D02*
X-1132300Y1328400D01*
X-1132300Y1328400D02*
X-1382300Y1328400D01*
X-1382300Y1328400D02*
X-1382300Y1008400D01*
X-1232300Y1008400D02*
X-1132300Y1108400D01*
X-1112000Y1655000D02*
X-1112000Y2255000D01*
X-1112000Y2255000D02*
X-412000Y2255000D01*
X-412000Y2255000D02*
X-412000Y1555000D01*
X-412000Y1555000D02*
X-1012000Y1555000D01*
X-1012000Y1555000D02*
X-1112000Y1655000D01*
X-977500Y1256500D02*
X-927500Y1256500D01*
X-927500Y1256500D02*
X-927500Y1156500D01*
X-927500Y1156500D02*
X-977500Y1156500D01*
X-977500Y1156500D02*
X-977500Y1256500D01*
X-1181500Y2363000D02*
X-1231500Y2363000D01*
X-1231500Y2363000D02*
X-1231500Y2463000D01*
X-1231500Y2463000D02*
X-1181500Y2463000D01*
X-1181500Y2463000D02*
X-1181500Y2363000D01*
X-1321200Y2363000D02*
X-1371200Y2363000D01*
X-1371200Y2363000D02*
X-1371200Y2463000D01*
X-1371200Y2463000D02*
X-1321200Y2463000D01*
X-1321200Y2463000D02*
X-1321200Y2363000D01*
X-204000Y1168000D02*
X-204000Y1118000D01*
X-204000Y1118000D02*
X-304000Y1118000D01*
X-304000Y1118000D02*
X-304000Y1168000D01*
X-304000Y1168000D02*
X-204000Y1168000D01*
X-927500Y902500D02*
X-977500Y902500D01*
X-977500Y902500D02*
X-977500Y1002500D01*
X-977500Y1002500D02*
X-927500Y1002500D01*
X-927500Y1002500D02*
X-927500Y902500D01*
X-1371200Y1993100D02*
X-1321200Y1993100D01*
X-1321200Y1993100D02*
X-1321200Y1893100D01*
X-1321200Y1893100D02*
X-1371200Y1893100D01*
X-1371200Y1893100D02*
X-1371200Y1993100D01*
X-1207300Y914000D02*
X-1207300Y864000D01*
X-1207300Y864000D02*
X-1307300Y864000D01*
X-1307300Y864000D02*
X-1307300Y914000D01*
X-1307300Y914000D02*
X-1207300Y914000D01*
X-1307300Y1422800D02*
X-1307300Y1472800D01*
X-1307300Y1472800D02*
X-1207300Y1472800D01*
X-1207300Y1472800D02*
X-1207300Y1422800D01*
X-1207300Y1422800D02*
X-1307300Y1422800D01*
X-546500Y1156500D02*
X-596500Y1156500D01*
X-596500Y1156500D02*
X-596500Y1256500D01*
X-596500Y1256500D02*
X-546500Y1256500D01*
X-546500Y1256500D02*
X-546500Y1156500D01*
X-1321200Y1664500D02*
X-1371200Y1664500D01*
X-1371200Y1664500D02*
X-1371200Y1764500D01*
X-1371200Y1764500D02*
X-1321200Y1764500D01*
X-1321200Y1764500D02*
X-1321200Y1664500D01*
X-1321200Y2109000D02*
X-1371200Y2109000D01*
X-1371200Y2109000D02*
X-1371200Y2209000D01*
X-1371200Y2209000D02*
X-1321200Y2209000D01*
X-1321200Y2209000D02*
X-1321200Y2109000D01*
X-850500Y1129500D02*
X-800500Y1129500D01*
X-800500Y1129500D02*
X-800500Y1029500D01*
X-800500Y1029500D02*
X-850500Y1029500D01*
X-850500Y1029500D02*
X-850500Y1129500D01*
X-723500Y1129500D02*
X-673500Y1129500D01*
X-673500Y1129500D02*
X-673500Y1029500D01*
X-673500Y1029500D02*
X-723500Y1029500D01*
X-723500Y1029500D02*
X-723500Y1129500D01*
X-204000Y1295000D02*
X-204000Y1245000D01*
X-204000Y1245000D02*
X-304000Y1245000D01*
X-304000Y1245000D02*
X-304000Y1295000D01*
X-304000Y1295000D02*
X-204000Y1295000D01*
X-204000Y1041000D02*
X-204000Y991000D01*
X-204000Y991000D02*
X-304000Y991000D01*
X-304000Y991000D02*
X-304000Y1041000D01*
X-304000Y1041000D02*
X-204000Y1041000D01*
X-202800Y2209000D02*
X-152800Y2209000D01*
X-152800Y2209000D02*
X-152800Y2109000D01*
X-152800Y2109000D02*
X-202800Y2109000D01*
X-202800Y2109000D02*
X-202800Y2209000D01*
X-1147000Y716000D02*
X-952000Y716000D01*
X-377000Y716000D02*
X-377000Y-209000D01*
X-377000Y-209000D02*
X-1147000Y-209000D01*
X-1147000Y-209000D02*
X-1147000Y716000D01*
X-952000Y716000D02*
X-922000Y666000D01*
X-922000Y666000D02*
X-892000Y716000D01*
X-892000Y716000D02*
X-377000Y716000D01*
X-174000Y2453000D02*
X-174000Y2373000D01*
X-174000Y2373000D02*
X-334000Y2373000D01*
X-334000Y2373000D02*
X-334000Y2453000D01*
X-334000Y2453000D02*
X-174000Y2453000D01*
X-1524000Y3261500D02*
X-1524000Y3452000D01*
X-1524000Y3452000D02*
X0Y3452000D01*
X0Y3452000D02*
X0Y3198000D01*
X0Y3198000D02*
X-1460500Y3198000D01*
X-1460500Y3198000D02*
X-1524000Y3261500D01*
X-1429000Y3016000D02*
X-1429000Y3198000D01*
X-1429000Y3016000D02*
X-1365000Y3016000D01*
X-1365000Y3016000D02*
X-1365000Y3198000D01*
X-1429000Y3452000D02*
X-1429000Y4052000D01*
X-1429000Y4052000D02*
X-1365000Y4052000D01*
X-1365000Y3452000D02*
X-1365000Y4052000D01*
X-1175000Y3016000D02*
X-1175000Y3198000D01*
X-1175000Y3016000D02*
X-1111000Y3016000D01*
X-1111000Y3016000D02*
X-1111000Y3198000D01*
X-1175000Y3452000D02*
X-1175000Y4052000D01*
X-1175000Y4052000D02*
X-1111000Y4052000D01*
X-1111000Y3452000D02*
X-1111000Y4052000D01*
X-921000Y3016000D02*
X-921000Y3198000D01*
X-921000Y3016000D02*
X-857000Y3016000D01*
X-857000Y3016000D02*
X-857000Y3198000D01*
X-921000Y3452000D02*
X-921000Y4052000D01*
X-921000Y4052000D02*
X-857000Y4052000D01*
X-857000Y3452000D02*
X-857000Y4052000D01*
X-667000Y3016000D02*
X-667000Y3198000D01*
X-667000Y3016000D02*
X-603000Y3016000D01*
X-603000Y3016000D02*
X-603000Y3198000D01*
X-667000Y3452000D02*
X-667000Y4052000D01*
X-667000Y4052000D02*
X-603000Y4052000D01*
X-603000Y3452000D02*
X-603000Y4052000D01*
X-413000Y3016000D02*
X-413000Y3198000D01*
X-413000Y3016000D02*
X-349000Y3016000D01*
X-349000Y3016000D02*
X-349000Y3198000D01*
X-413000Y3452000D02*
X-413000Y4052000D01*
X-413000Y4052000D02*
X-349000Y4052000D01*
X-349000Y3452000D02*
X-349000Y4052000D01*
X-159000Y3016000D02*
X-159000Y3198000D01*
X-159000Y3016000D02*
X-95000Y3016000D01*
X-95000Y3016000D02*
X-95000Y3198000D01*
X-159000Y3452000D02*
X-159000Y4052000D01*
X-159000Y4052000D02*
X-95000Y4052000D01*
X-95000Y3452000D02*
X-95000Y4052000D01*
X-174000Y2643500D02*
X-304000Y2643500D01*
X-304000Y2643500D02*
X-334000Y2613500D01*
X-334000Y2613500D02*
X-334000Y2563500D01*
X-334000Y2563500D02*
X-174000Y2563500D01*
X-174000Y2563500D02*
X-174000Y2643500D01*
X-174000Y2834000D02*
X-304000Y2834000D01*
X-304000Y2834000D02*
X-334000Y2804000D01*
X-334000Y2804000D02*
X-334000Y2754000D01*
X-334000Y2754000D02*
X-174000Y2754000D01*
X-174000Y2754000D02*
X-174000Y2834000D01*
D12*
X-642305Y2577786D02*
X-661352Y2564452D01*
X-642305Y2554929D02*
X-682305Y2554929D01*
X-682305Y2570167D01*
X-680400Y2573976D01*
X-678495Y2575881D01*
X-674686Y2577786D01*
X-668972Y2577786D01*
X-665162Y2575881D01*
X-663257Y2573976D01*
X-661352Y2570167D01*
X-661352Y2554929D01*
X-642305Y2615881D02*
X-642305Y2593024D01*
X-642305Y2604452D02*
X-682305Y2604452D01*
X-676591Y2600643D01*
X-672781Y2596833D01*
X-670876Y2593024D01*
X-682305Y2650167D02*
X-682305Y2642548D01*
X-680400Y2638738D01*
X-678495Y2636833D01*
X-672781Y2633024D01*
X-665162Y2631119D01*
X-649924Y2631119D01*
X-646114Y2633024D01*
X-644210Y2634929D01*
X-642305Y2638738D01*
X-642305Y2646357D01*
X-644210Y2650167D01*
X-646114Y2652072D01*
X-649924Y2653976D01*
X-659448Y2653976D01*
X-663257Y2652072D01*
X-665162Y2650167D01*
X-667067Y2646357D01*
X-667067Y2638738D01*
X-665162Y2634929D01*
X-663257Y2633024D01*
X-659448Y2631119D01*
X-976314Y2596833D02*
X-974410Y2594929D01*
X-972505Y2589214D01*
X-972505Y2585405D01*
X-974410Y2579691D01*
X-978219Y2575881D01*
X-982029Y2573976D01*
X-989648Y2572072D01*
X-995362Y2572072D01*
X-1002981Y2573976D01*
X-1006790Y2575881D01*
X-1010600Y2579691D01*
X-1012505Y2585405D01*
X-1012505Y2589214D01*
X-1010600Y2594929D01*
X-1008695Y2596833D01*
X-972505Y2615881D02*
X-972505Y2623500D01*
X-974410Y2627310D01*
X-976314Y2629214D01*
X-982029Y2633024D01*
X-989648Y2634929D01*
X-1004886Y2634929D01*
X-1008695Y2633024D01*
X-1010600Y2631119D01*
X-1012505Y2627310D01*
X-1012505Y2619691D01*
X-1010600Y2615881D01*
X-1008695Y2613976D01*
X-1004886Y2612072D01*
X-995362Y2612072D01*
X-991552Y2613976D01*
X-989648Y2615881D01*
X-987743Y2619691D01*
X-987743Y2627310D01*
X-989648Y2631119D01*
X-991552Y2633024D01*
X-995362Y2634929D01*
D13*
X-1258967Y1135067D02*
X-1225633Y1135067D01*
X-1295633Y1111733D02*
X-1258967Y1135067D01*
X-1295633Y1158400D01*
X-1225633Y1218400D02*
X-1225633Y1178400D01*
X-1225633Y1198400D02*
X-1295633Y1198400D01*
X-1285633Y1191733D01*
X-1278967Y1185067D01*
X-1275633Y1178400D01*
D14*
X-805810Y1844048D02*
X-741048Y1844048D01*
X-733429Y1847857D01*
X-729619Y1851667D01*
X-725810Y1859286D01*
X-725810Y1874524D01*
X-729619Y1882143D01*
X-733429Y1885952D01*
X-741048Y1889762D01*
X-805810Y1889762D01*
X-725810Y1969762D02*
X-725810Y1924048D01*
X-725810Y1946905D02*
X-805810Y1946905D01*
X-794381Y1939286D01*
X-786762Y1931667D01*
X-782952Y1924048D01*
D15*
X-941190Y1190429D02*
X-953095Y1182095D01*
X-941190Y1176143D02*
X-966190Y1176143D01*
X-966190Y1185667D01*
X-965000Y1188048D01*
X-963810Y1189238D01*
X-961429Y1190429D01*
X-957857Y1190429D01*
X-955476Y1189238D01*
X-954286Y1188048D01*
X-953095Y1185667D01*
X-953095Y1176143D01*
X-963810Y1199952D02*
X-965000Y1201143D01*
X-966190Y1203524D01*
X-966190Y1209476D01*
X-965000Y1211857D01*
X-963810Y1213048D01*
X-961429Y1214238D01*
X-959048Y1214238D01*
X-955476Y1213048D01*
X-941190Y1198762D01*
X-941190Y1214238D01*
X-963810Y1223762D02*
X-965000Y1224952D01*
X-966190Y1227333D01*
X-966190Y1233286D01*
X-965000Y1235667D01*
X-963810Y1236857D01*
X-961429Y1238048D01*
X-959048Y1238048D01*
X-955476Y1236857D01*
X-941190Y1222572D01*
X-941190Y1238048D01*
X-1197572Y2408833D02*
X-1196381Y2407643D01*
X-1195191Y2404072D01*
X-1195191Y2401691D01*
X-1196381Y2398119D01*
X-1198762Y2395738D01*
X-1201143Y2394548D01*
X-1205905Y2393357D01*
X-1209476Y2393357D01*
X-1214238Y2394548D01*
X-1216619Y2395738D01*
X-1219000Y2398119D01*
X-1220191Y2401691D01*
X-1220191Y2404072D01*
X-1219000Y2407643D01*
X-1217810Y2408833D01*
X-1209476Y2423119D02*
X-1210667Y2420738D01*
X-1211857Y2419548D01*
X-1214238Y2418357D01*
X-1215429Y2418357D01*
X-1217810Y2419548D01*
X-1219000Y2420738D01*
X-1220191Y2423119D01*
X-1220191Y2427881D01*
X-1219000Y2430262D01*
X-1217810Y2431452D01*
X-1215429Y2432643D01*
X-1214238Y2432643D01*
X-1211857Y2431452D01*
X-1210667Y2430262D01*
X-1209476Y2427881D01*
X-1209476Y2423119D01*
X-1208286Y2420738D01*
X-1207095Y2419548D01*
X-1204714Y2418357D01*
X-1199952Y2418357D01*
X-1197572Y2419548D01*
X-1196381Y2420738D01*
X-1195191Y2423119D01*
X-1195191Y2427881D01*
X-1196381Y2430262D01*
X-1197572Y2431452D01*
X-1199952Y2432643D01*
X-1204714Y2432643D01*
X-1207095Y2431452D01*
X-1208286Y2430262D01*
X-1209476Y2427881D01*
X-1337272Y2408833D02*
X-1336081Y2407643D01*
X-1334891Y2404072D01*
X-1334891Y2401691D01*
X-1336081Y2398119D01*
X-1338462Y2395738D01*
X-1340843Y2394548D01*
X-1345605Y2393357D01*
X-1349176Y2393357D01*
X-1353938Y2394548D01*
X-1356319Y2395738D01*
X-1358700Y2398119D01*
X-1359891Y2401691D01*
X-1359891Y2404072D01*
X-1358700Y2407643D01*
X-1357510Y2408833D01*
X-1359891Y2417167D02*
X-1359891Y2433833D01*
X-1334891Y2423119D01*
X-258167Y1134072D02*
X-259357Y1132881D01*
X-262929Y1131691D01*
X-265310Y1131691D01*
X-268881Y1132881D01*
X-271262Y1135262D01*
X-272452Y1137643D01*
X-273643Y1142405D01*
X-273643Y1145976D01*
X-272452Y1150738D01*
X-271262Y1153119D01*
X-268881Y1155500D01*
X-265310Y1156691D01*
X-262929Y1156691D01*
X-259357Y1155500D01*
X-258167Y1154310D01*
X-234357Y1131691D02*
X-248643Y1131691D01*
X-241500Y1131691D02*
X-241500Y1156691D01*
X-243881Y1153119D01*
X-246262Y1150738D01*
X-248643Y1149548D01*
X-943571Y948333D02*
X-942381Y947143D01*
X-941190Y943571D01*
X-941190Y941190D01*
X-942381Y937619D01*
X-944762Y935238D01*
X-947143Y934048D01*
X-951905Y932857D01*
X-955476Y932857D01*
X-960238Y934048D01*
X-962619Y935238D01*
X-965000Y937619D01*
X-966190Y941190D01*
X-966190Y943571D01*
X-965000Y947143D01*
X-963810Y948333D01*
X-963810Y957857D02*
X-965000Y959048D01*
X-966190Y961429D01*
X-966190Y967381D01*
X-965000Y969762D01*
X-963810Y970952D01*
X-961429Y972143D01*
X-959048Y972143D01*
X-955476Y970952D01*
X-941190Y956667D01*
X-941190Y972143D01*
X-1337272Y1938933D02*
X-1336081Y1937743D01*
X-1334891Y1934171D01*
X-1334891Y1931790D01*
X-1336081Y1928219D01*
X-1338462Y1925838D01*
X-1340843Y1924648D01*
X-1345605Y1923457D01*
X-1349176Y1923457D01*
X-1353938Y1924648D01*
X-1356319Y1925838D01*
X-1358700Y1928219D01*
X-1359891Y1931790D01*
X-1359891Y1934171D01*
X-1358700Y1937743D01*
X-1357510Y1938933D01*
X-1359891Y1947267D02*
X-1359891Y1962743D01*
X-1350367Y1954410D01*
X-1350367Y1957981D01*
X-1349176Y1960362D01*
X-1347986Y1961552D01*
X-1345605Y1962743D01*
X-1339652Y1962743D01*
X-1337272Y1961552D01*
X-1336081Y1960362D01*
X-1334891Y1957981D01*
X-1334891Y1950838D01*
X-1336081Y1948457D01*
X-1337272Y1947267D01*
X-1261467Y880071D02*
X-1262657Y878881D01*
X-1266229Y877690D01*
X-1268610Y877690D01*
X-1272181Y878881D01*
X-1274562Y881262D01*
X-1275752Y883643D01*
X-1276943Y888405D01*
X-1276943Y891976D01*
X-1275752Y896738D01*
X-1274562Y899119D01*
X-1272181Y901500D01*
X-1268610Y902690D01*
X-1266229Y902690D01*
X-1262657Y901500D01*
X-1261467Y900310D01*
X-1238848Y902690D02*
X-1250752Y902690D01*
X-1251943Y890786D01*
X-1250752Y891976D01*
X-1248372Y893167D01*
X-1242419Y893167D01*
X-1240038Y891976D01*
X-1238848Y890786D01*
X-1237657Y888405D01*
X-1237657Y882452D01*
X-1238848Y880071D01*
X-1240038Y878881D01*
X-1242419Y877690D01*
X-1248372Y877690D01*
X-1250752Y878881D01*
X-1251943Y880071D01*
X-1261467Y1438871D02*
X-1262657Y1437681D01*
X-1266229Y1436490D01*
X-1268610Y1436490D01*
X-1272181Y1437681D01*
X-1274562Y1440062D01*
X-1275752Y1442443D01*
X-1276943Y1447205D01*
X-1276943Y1450776D01*
X-1275752Y1455538D01*
X-1274562Y1457919D01*
X-1272181Y1460300D01*
X-1268610Y1461490D01*
X-1266229Y1461490D01*
X-1262657Y1460300D01*
X-1261467Y1459110D01*
X-1240038Y1461490D02*
X-1244800Y1461490D01*
X-1247181Y1460300D01*
X-1248372Y1459110D01*
X-1250752Y1455538D01*
X-1251943Y1450776D01*
X-1251943Y1441252D01*
X-1250752Y1438871D01*
X-1249562Y1437681D01*
X-1247181Y1436490D01*
X-1242419Y1436490D01*
X-1240038Y1437681D01*
X-1238848Y1438871D01*
X-1237657Y1441252D01*
X-1237657Y1447205D01*
X-1238848Y1449586D01*
X-1240038Y1450776D01*
X-1242419Y1451967D01*
X-1247181Y1451967D01*
X-1249562Y1450776D01*
X-1250752Y1449586D01*
X-1251943Y1447205D01*
X-562572Y1190429D02*
X-561381Y1189238D01*
X-560191Y1185667D01*
X-560191Y1183286D01*
X-561381Y1179714D01*
X-563762Y1177333D01*
X-566143Y1176143D01*
X-570905Y1174952D01*
X-574476Y1174952D01*
X-579238Y1176143D01*
X-581619Y1177333D01*
X-584000Y1179714D01*
X-585191Y1183286D01*
X-585191Y1185667D01*
X-584000Y1189238D01*
X-582810Y1190429D01*
X-560191Y1214238D02*
X-560191Y1199952D01*
X-560191Y1207095D02*
X-585191Y1207095D01*
X-581619Y1204714D01*
X-579238Y1202333D01*
X-578048Y1199952D01*
X-585191Y1229714D02*
X-585191Y1232095D01*
X-584000Y1234476D01*
X-582810Y1235667D01*
X-580429Y1236857D01*
X-575667Y1238048D01*
X-569714Y1238048D01*
X-564952Y1236857D01*
X-562572Y1235667D01*
X-561381Y1234476D01*
X-560191Y1232095D01*
X-560191Y1229714D01*
X-561381Y1227333D01*
X-562572Y1226143D01*
X-564952Y1224952D01*
X-569714Y1223762D01*
X-575667Y1223762D01*
X-580429Y1224952D01*
X-582810Y1226143D01*
X-584000Y1227333D01*
X-585191Y1229714D01*
X-1337272Y1698429D02*
X-1336081Y1697238D01*
X-1334891Y1693667D01*
X-1334891Y1691286D01*
X-1336081Y1687714D01*
X-1338462Y1685333D01*
X-1340843Y1684143D01*
X-1345605Y1682952D01*
X-1349176Y1682952D01*
X-1353938Y1684143D01*
X-1356319Y1685333D01*
X-1358700Y1687714D01*
X-1359891Y1691286D01*
X-1359891Y1693667D01*
X-1358700Y1697238D01*
X-1357510Y1698429D01*
X-1334891Y1722238D02*
X-1334891Y1707952D01*
X-1334891Y1715095D02*
X-1359891Y1715095D01*
X-1356319Y1712714D01*
X-1353938Y1710333D01*
X-1352748Y1707952D01*
X-1334891Y1746048D02*
X-1334891Y1731762D01*
X-1334891Y1738905D02*
X-1359891Y1738905D01*
X-1356319Y1736524D01*
X-1353938Y1734143D01*
X-1352748Y1731762D01*
X-1337272Y2142929D02*
X-1336081Y2141738D01*
X-1334891Y2138167D01*
X-1334891Y2135786D01*
X-1336081Y2132214D01*
X-1338462Y2129833D01*
X-1340843Y2128643D01*
X-1345605Y2127452D01*
X-1349176Y2127452D01*
X-1353938Y2128643D01*
X-1356319Y2129833D01*
X-1358700Y2132214D01*
X-1359891Y2135786D01*
X-1359891Y2138167D01*
X-1358700Y2141738D01*
X-1357510Y2142929D01*
X-1334891Y2166738D02*
X-1334891Y2152452D01*
X-1334891Y2159595D02*
X-1359891Y2159595D01*
X-1356319Y2157214D01*
X-1353938Y2154833D01*
X-1352748Y2152452D01*
X-1357510Y2176262D02*
X-1358700Y2177452D01*
X-1359891Y2179833D01*
X-1359891Y2185786D01*
X-1358700Y2188167D01*
X-1357510Y2189357D01*
X-1355129Y2190548D01*
X-1352748Y2190548D01*
X-1349176Y2189357D01*
X-1334891Y2175072D01*
X-1334891Y2190548D01*
X-814190Y1075333D02*
X-826095Y1067000D01*
X-814190Y1061048D02*
X-839190Y1061048D01*
X-839190Y1070572D01*
X-838000Y1072952D01*
X-836810Y1074143D01*
X-834429Y1075333D01*
X-830857Y1075333D01*
X-828476Y1074143D01*
X-827286Y1072952D01*
X-826095Y1070572D01*
X-826095Y1061048D01*
X-814190Y1099143D02*
X-814190Y1084857D01*
X-814190Y1092000D02*
X-839190Y1092000D01*
X-835619Y1089619D01*
X-833238Y1087238D01*
X-832048Y1084857D01*
X-687191Y1075333D02*
X-699095Y1067000D01*
X-687191Y1061048D02*
X-712190Y1061048D01*
X-712190Y1070572D01*
X-711000Y1072952D01*
X-709810Y1074143D01*
X-707429Y1075333D01*
X-703857Y1075333D01*
X-701476Y1074143D01*
X-700286Y1072952D01*
X-699095Y1070572D01*
X-699095Y1061048D01*
X-709810Y1084857D02*
X-711000Y1086048D01*
X-712190Y1088429D01*
X-712190Y1094381D01*
X-711000Y1096762D01*
X-709810Y1097952D01*
X-707429Y1099143D01*
X-705048Y1099143D01*
X-701476Y1097952D01*
X-687191Y1083667D01*
X-687191Y1099143D01*
X-258167Y1258691D02*
X-266500Y1270595D01*
X-272452Y1258691D02*
X-272452Y1283691D01*
X-262929Y1283691D01*
X-260548Y1282500D01*
X-259357Y1281310D01*
X-258167Y1278929D01*
X-258167Y1275357D01*
X-259357Y1272976D01*
X-260548Y1271786D01*
X-262929Y1270595D01*
X-272452Y1270595D01*
X-249833Y1283691D02*
X-234357Y1283691D01*
X-242690Y1274167D01*
X-239119Y1274167D01*
X-236738Y1272976D01*
X-235548Y1271786D01*
X-234357Y1269405D01*
X-234357Y1263452D01*
X-235548Y1261072D01*
X-236738Y1259881D01*
X-239119Y1258691D01*
X-246262Y1258691D01*
X-248643Y1259881D01*
X-249833Y1261072D01*
X-258167Y1004690D02*
X-266500Y1016595D01*
X-272452Y1004690D02*
X-272452Y1029690D01*
X-262929Y1029690D01*
X-260548Y1028500D01*
X-259357Y1027310D01*
X-258167Y1024929D01*
X-258167Y1021357D01*
X-259357Y1018976D01*
X-260548Y1017786D01*
X-262929Y1016595D01*
X-272452Y1016595D01*
X-236738Y1021357D02*
X-236738Y1004690D01*
X-242690Y1030881D02*
X-248643Y1013024D01*
X-233167Y1013024D01*
X-166491Y2142929D02*
X-178395Y2134595D01*
X-166491Y2128643D02*
X-191490Y2128643D01*
X-191490Y2138167D01*
X-190300Y2140548D01*
X-189110Y2141738D01*
X-186729Y2142929D01*
X-183157Y2142929D01*
X-180776Y2141738D01*
X-179586Y2140548D01*
X-178395Y2138167D01*
X-178395Y2128643D01*
X-166491Y2166738D02*
X-166491Y2152452D01*
X-166491Y2159595D02*
X-191490Y2159595D01*
X-187919Y2157214D01*
X-185538Y2154833D01*
X-184348Y2152452D01*
X-191490Y2189357D02*
X-191490Y2177452D01*
X-179586Y2176262D01*
X-180776Y2177452D01*
X-181967Y2179833D01*
X-181967Y2185786D01*
X-180776Y2188167D01*
X-179586Y2189357D01*
X-177205Y2190548D01*
X-171252Y2190548D01*
X-168872Y2189357D01*
X-167681Y2188167D01*
X-166491Y2185786D01*
X-166491Y2179833D01*
X-167681Y2177452D01*
X-168872Y2176262D01*
D12*
X-260667Y2398714D02*
X-262572Y2396810D01*
X-268286Y2394905D01*
X-272095Y2394905D01*
X-277810Y2396810D01*
X-281619Y2400619D01*
X-283524Y2404429D01*
X-285429Y2412048D01*
X-285429Y2417762D01*
X-283524Y2425381D01*
X-281619Y2429191D01*
X-277810Y2433000D01*
X-272095Y2434905D01*
X-268286Y2434905D01*
X-262572Y2433000D01*
X-260667Y2431095D01*
X-226381Y2421572D02*
X-226381Y2394905D01*
X-235905Y2436810D02*
X-245429Y2408238D01*
X-220667Y2408238D01*
M02*
