M48
METRIC
T1C1.000
%
G90
G05
T1
X-15.24Y27.94
X-15.24Y25.4
X-15.24Y22.86
X-15.24Y20.32
X-15.24Y17.78
X-15.24Y15.24
X-15.24Y12.7
X-15.24Y10.16
X-15.24Y7.62
X-15.24Y5.08
X-15.24Y2.54
X-15.24Y0.0
X0.0Y27.94
X0.0Y25.4
X0.0Y22.86
X0.0Y20.32
X0.0Y17.78
X0.0Y15.24
X0.0Y12.7
X0.0Y10.16
X0.0Y7.62
X0.0Y5.08
X0.0Y2.54
X0.0Y0.0
T0
M30
