%TF.GenerationSoftware,KiCad,Pcbnew,5.1.5+dfsg1-2~bpo10+1*%
%TF.CreationDate,Date%
%TF.ProjectId,ProMicro_WING,50726f4d-6963-4726-9f5f-57494e472e6b,v1.0*%
%TF.SameCoordinates,Original*%
%TF.FileFunction,Other,User*%
%FSLAX45Y45*%
G04 Gerber Fmt 4.5, Leading zero omitted, Abs format (unit mm)*
G04 Created by KiCad*
%MOMM*%
%LPD*%
G04 APERTURE LIST*
%ADD10C,0.050000*%
G04 APERTURE END LIST*
D10*
X-1930400Y4445000D02*
G75*
G02X-1651000Y4724400I279400J0D01*
G01*
X127000Y4724400D02*
G75*
G02X406400Y4445000I0J-279400D01*
G01*
X406400Y-139700D02*
G75*
G02X127000Y-419100I-279400J0D01*
G01*
X-1651000Y-419100D02*
G75*
G02X-1930400Y-139700I0J279400D01*
G01*
X-1930400Y-139700D02*
X-1930400Y4445000D01*
X127000Y-419100D02*
X-1651000Y-419100D01*
X406400Y4445000D02*
X406400Y-139700D01*
X-1651000Y4724400D02*
X127000Y4724400D01*
X-1930000Y4445000D02*
X-1930000Y-141000D01*
X-1651000Y4724000D02*
X127000Y4724000D01*
X406000Y4445000D02*
X406000Y-141000D01*
X-1651000Y-420000D02*
X127000Y-420000D01*
X-1930000Y4445000D02*
G75*
G02X-1651000Y4724000I279000J0D01*
G01*
X127000Y4724000D02*
G75*
G02X406000Y4445000I0J-279000D01*
G01*
X406000Y-141000D02*
G75*
G02X127000Y-420000I-279000J0D01*
G01*
X-1651000Y-420000D02*
G75*
G02X-1930000Y-141000I0J279000D01*
G01*
X422000Y4445000D02*
G75*
G03X422000Y4445000I-295000J0D01*
G01*
X-1356000Y4445000D02*
G75*
G03X-1356000Y4445000I-295000J0D01*
G01*
X-1651000Y-420000D02*
G75*
G02X-1930000Y-141000I0J279000D01*
G01*
X406000Y-141000D02*
G75*
G02X127000Y-420000I-279000J0D01*
G01*
X127000Y4724000D02*
G75*
G02X406000Y4445000I0J-279000D01*
G01*
X-1930000Y4445000D02*
G75*
G02X-1651000Y4724000I279000J0D01*
G01*
X-1651000Y-420000D02*
X127000Y-420000D01*
X406000Y4445000D02*
X406000Y-141000D01*
X-1651000Y4724000D02*
X127000Y4724000D01*
X-1930000Y4445000D02*
X-1930000Y-141000D01*
X150000Y-150000D02*
X-1680000Y-150000D01*
X150000Y-150000D02*
X150000Y2930000D01*
X-1680000Y2930000D02*
X-1680000Y-150000D01*
X-1680000Y2930000D02*
X150000Y2930000D01*
X-1675000Y4216000D02*
X153000Y4216000D01*
X-1675000Y4216000D02*
X-1675000Y-406000D01*
X153000Y-406000D02*
X153000Y4216000D01*
X153000Y-406000D02*
X-1675000Y-406000D01*
M02*
