%TF.GenerationSoftware,KiCad,Pcbnew,5.1.6+dfsg1-1~bpo10+1*%
%TF.CreationDate,2020-07-10T20:01:31+00:00*%
%TF.ProjectId,ProMicro_LORA,50726f4d-6963-4726-9f5f-4c4f52412e6b,v1.1*%
%TF.SameCoordinates,Original*%
%TF.FileFunction,Legend,Bot*%
%TF.FilePolarity,Positive*%
%FSLAX45Y45*%
G04 Gerber Fmt 4.5, Leading zero omitted, Abs format (unit mm)*
G04 Created by KiCad (PCBNEW 5.1.6+dfsg1-1~bpo10+1) date 2020-07-10 20:01:31*
%MOMM*%
%LPD*%
G01*
G04 APERTURE LIST*
%TA.AperFunction,Profile*%
%ADD10C,0.100000*%
%TD*%
%ADD11C,0.200000*%
%ADD12C,0.010000*%
%ADD13C,0.120000*%
%ADD14O,1.600000X1.600000*%
%ADD15R,1.600000X1.600000*%
%ADD16R,1.350000X4.200000*%
G04 APERTURE END LIST*
D10*
X-127000Y2857500D02*
X-127000Y-63500D01*
X1651000Y2857500D02*
X1651000Y-63500D01*
D11*
X1060214Y1525571D02*
X1120214Y1504143D01*
X1060214Y1482714D01*
X1120214Y1401286D02*
X1120214Y1452714D01*
X1120214Y1427000D02*
X1030214Y1427000D01*
X1043071Y1435571D01*
X1051643Y1444143D01*
X1055929Y1452714D01*
X1111643Y1362714D02*
X1115929Y1358429D01*
X1120214Y1362714D01*
X1115929Y1367000D01*
X1111643Y1362714D01*
X1120214Y1362714D01*
X1120214Y1272714D02*
X1120214Y1324143D01*
X1120214Y1298429D02*
X1030214Y1298429D01*
X1043071Y1307000D01*
X1051643Y1315572D01*
X1055929Y1324143D01*
D10*
X-127000Y2857500D02*
G75*
G02*
X-63500Y2921000I63500J0D01*
G01*
X1587500Y2921000D02*
G75*
G02*
X1651000Y2857500I0J-63500D01*
G01*
X-63500Y2921000D02*
X1587500Y2921000D01*
X1651000Y-63500D02*
G75*
G02*
X1587500Y-127000I-63500J0D01*
G01*
X-63500Y-127000D02*
G75*
G02*
X-127000Y-63500I0J63500D01*
G01*
D11*
X1250714Y2674143D02*
X1323571Y2674143D01*
X1332143Y2678429D01*
X1336429Y2682714D01*
X1340714Y2691286D01*
X1340714Y2704143D01*
X1336429Y2712714D01*
X1306429Y2674143D02*
X1310714Y2682714D01*
X1310714Y2699857D01*
X1306429Y2708429D01*
X1302143Y2712714D01*
X1293571Y2717000D01*
X1267857Y2717000D01*
X1259286Y2712714D01*
X1255000Y2708429D01*
X1250714Y2699857D01*
X1250714Y2682714D01*
X1255000Y2674143D01*
X1310714Y2631286D02*
X1250714Y2631286D01*
X1220714Y2631286D02*
X1225000Y2635572D01*
X1229286Y2631286D01*
X1225000Y2627000D01*
X1220714Y2631286D01*
X1229286Y2631286D01*
X1250714Y2601286D02*
X1250714Y2567000D01*
X1220714Y2588429D02*
X1297857Y2588429D01*
X1306429Y2584143D01*
X1310714Y2575572D01*
X1310714Y2567000D01*
X1310714Y2537000D02*
X1220714Y2537000D01*
X1310714Y2498429D02*
X1263571Y2498429D01*
X1255000Y2502714D01*
X1250714Y2511286D01*
X1250714Y2524143D01*
X1255000Y2532714D01*
X1259286Y2537000D01*
X1250714Y2417000D02*
X1310714Y2417000D01*
X1250714Y2455572D02*
X1297857Y2455572D01*
X1306429Y2451286D01*
X1310714Y2442714D01*
X1310714Y2429857D01*
X1306429Y2421286D01*
X1302143Y2417000D01*
X1310714Y2374143D02*
X1220714Y2374143D01*
X1255000Y2374143D02*
X1250714Y2365572D01*
X1250714Y2348429D01*
X1255000Y2339857D01*
X1259286Y2335572D01*
X1267857Y2331286D01*
X1293571Y2331286D01*
X1302143Y2335572D01*
X1306429Y2339857D01*
X1310714Y2348429D01*
X1310714Y2365572D01*
X1306429Y2374143D01*
X1302143Y2292714D02*
X1306429Y2288429D01*
X1310714Y2292714D01*
X1306429Y2297000D01*
X1302143Y2292714D01*
X1310714Y2292714D01*
X1306429Y2211286D02*
X1310714Y2219857D01*
X1310714Y2237000D01*
X1306429Y2245572D01*
X1302143Y2249857D01*
X1293571Y2254143D01*
X1267857Y2254143D01*
X1259286Y2249857D01*
X1255000Y2245572D01*
X1250714Y2237000D01*
X1250714Y2219857D01*
X1255000Y2211286D01*
X1310714Y2159857D02*
X1306429Y2168429D01*
X1302143Y2172714D01*
X1293571Y2177000D01*
X1267857Y2177000D01*
X1259286Y2172714D01*
X1255000Y2168429D01*
X1250714Y2159857D01*
X1250714Y2147000D01*
X1255000Y2138429D01*
X1259286Y2134143D01*
X1267857Y2129857D01*
X1293571Y2129857D01*
X1302143Y2134143D01*
X1306429Y2138429D01*
X1310714Y2147000D01*
X1310714Y2159857D01*
X1310714Y2091286D02*
X1250714Y2091286D01*
X1259286Y2091286D02*
X1255000Y2087000D01*
X1250714Y2078429D01*
X1250714Y2065571D01*
X1255000Y2057000D01*
X1263571Y2052714D01*
X1310714Y2052714D01*
X1263571Y2052714D02*
X1255000Y2048429D01*
X1250714Y2039857D01*
X1250714Y2027000D01*
X1255000Y2018429D01*
X1263571Y2014143D01*
X1310714Y2014143D01*
X1216429Y1907000D02*
X1332143Y1984143D01*
X1250714Y1877000D02*
X1310714Y1877000D01*
X1259286Y1877000D02*
X1255000Y1872714D01*
X1250714Y1864143D01*
X1250714Y1851286D01*
X1255000Y1842714D01*
X1263571Y1838429D01*
X1310714Y1838429D01*
X1306429Y1761286D02*
X1310714Y1769857D01*
X1310714Y1787000D01*
X1306429Y1795571D01*
X1297857Y1799857D01*
X1263571Y1799857D01*
X1255000Y1795571D01*
X1250714Y1787000D01*
X1250714Y1769857D01*
X1255000Y1761286D01*
X1263571Y1757000D01*
X1272143Y1757000D01*
X1280714Y1799857D01*
X1310714Y1718429D02*
X1250714Y1718429D01*
X1267857Y1718429D02*
X1259286Y1714143D01*
X1255000Y1709857D01*
X1250714Y1701286D01*
X1250714Y1692714D01*
X1310714Y1624143D02*
X1220714Y1624143D01*
X1306429Y1624143D02*
X1310714Y1632714D01*
X1310714Y1649857D01*
X1306429Y1658429D01*
X1302143Y1662714D01*
X1293571Y1667000D01*
X1267857Y1667000D01*
X1259286Y1662714D01*
X1255000Y1658429D01*
X1250714Y1649857D01*
X1250714Y1632714D01*
X1255000Y1624143D01*
X1250714Y1589857D02*
X1310714Y1568429D01*
X1250714Y1547000D02*
X1310714Y1568429D01*
X1332143Y1577000D01*
X1336429Y1581286D01*
X1340714Y1589857D01*
X1306429Y1517000D02*
X1310714Y1508429D01*
X1310714Y1491286D01*
X1306429Y1482714D01*
X1297857Y1478429D01*
X1293571Y1478429D01*
X1285000Y1482714D01*
X1280714Y1491286D01*
X1280714Y1504143D01*
X1276429Y1512714D01*
X1267857Y1517000D01*
X1263571Y1517000D01*
X1255000Y1512714D01*
X1250714Y1504143D01*
X1250714Y1491286D01*
X1255000Y1482714D01*
X1306429Y1401286D02*
X1310714Y1409857D01*
X1310714Y1427000D01*
X1306429Y1435571D01*
X1302143Y1439857D01*
X1293571Y1444143D01*
X1267857Y1444143D01*
X1259286Y1439857D01*
X1255000Y1435571D01*
X1250714Y1427000D01*
X1250714Y1409857D01*
X1255000Y1401286D01*
X1310714Y1349857D02*
X1306429Y1358429D01*
X1302143Y1362714D01*
X1293571Y1367000D01*
X1267857Y1367000D01*
X1259286Y1362714D01*
X1255000Y1358429D01*
X1250714Y1349857D01*
X1250714Y1337000D01*
X1255000Y1328429D01*
X1259286Y1324143D01*
X1267857Y1319857D01*
X1293571Y1319857D01*
X1302143Y1324143D01*
X1306429Y1328429D01*
X1310714Y1337000D01*
X1310714Y1349857D01*
X1250714Y1242714D02*
X1310714Y1242714D01*
X1250714Y1281286D02*
X1297857Y1281286D01*
X1306429Y1277000D01*
X1310714Y1268429D01*
X1310714Y1255572D01*
X1306429Y1247000D01*
X1302143Y1242714D01*
X1250714Y1212714D02*
X1250714Y1178429D01*
X1220714Y1199857D02*
X1297857Y1199857D01*
X1306429Y1195572D01*
X1310714Y1187000D01*
X1310714Y1178429D01*
X1216429Y1084143D02*
X1332143Y1161286D01*
X1310714Y1054143D02*
X1220714Y1054143D01*
X1220714Y1019857D01*
X1225000Y1011286D01*
X1229286Y1007000D01*
X1237857Y1002714D01*
X1250714Y1002714D01*
X1259286Y1007000D01*
X1263571Y1011286D01*
X1267857Y1019857D01*
X1267857Y1054143D01*
X1310714Y964143D02*
X1250714Y964143D01*
X1267857Y964143D02*
X1259286Y959857D01*
X1255000Y955571D01*
X1250714Y947000D01*
X1250714Y938429D01*
X1310714Y895571D02*
X1306429Y904143D01*
X1302143Y908429D01*
X1293571Y912714D01*
X1267857Y912714D01*
X1259286Y908429D01*
X1255000Y904143D01*
X1250714Y895571D01*
X1250714Y882714D01*
X1255000Y874143D01*
X1259286Y869857D01*
X1267857Y865571D01*
X1293571Y865571D01*
X1302143Y869857D01*
X1306429Y874143D01*
X1310714Y882714D01*
X1310714Y895571D01*
X1310714Y827000D02*
X1220714Y827000D01*
X1285000Y797000D01*
X1220714Y767000D01*
X1310714Y767000D01*
X1310714Y724143D02*
X1250714Y724143D01*
X1220714Y724143D02*
X1225000Y728429D01*
X1229286Y724143D01*
X1225000Y719857D01*
X1220714Y724143D01*
X1229286Y724143D01*
X1306429Y642714D02*
X1310714Y651286D01*
X1310714Y668429D01*
X1306429Y677000D01*
X1302143Y681286D01*
X1293571Y685572D01*
X1267857Y685572D01*
X1259286Y681286D01*
X1255000Y677000D01*
X1250714Y668429D01*
X1250714Y651286D01*
X1255000Y642714D01*
X1310714Y604143D02*
X1250714Y604143D01*
X1267857Y604143D02*
X1259286Y599857D01*
X1255000Y595572D01*
X1250714Y587000D01*
X1250714Y578429D01*
X1310714Y535572D02*
X1306429Y544143D01*
X1302143Y548429D01*
X1293571Y552714D01*
X1267857Y552714D01*
X1259286Y548429D01*
X1255000Y544143D01*
X1250714Y535572D01*
X1250714Y522714D01*
X1255000Y514143D01*
X1259286Y509857D01*
X1267857Y505571D01*
X1293571Y505571D01*
X1302143Y509857D01*
X1306429Y514143D01*
X1310714Y522714D01*
X1310714Y535572D01*
X1216429Y402714D02*
X1332143Y479857D01*
X1310714Y329857D02*
X1310714Y372714D01*
X1220714Y372714D01*
X1220714Y282714D02*
X1220714Y265572D01*
X1225000Y257000D01*
X1233571Y248429D01*
X1250714Y244143D01*
X1280714Y244143D01*
X1297857Y248429D01*
X1306429Y257000D01*
X1310714Y265572D01*
X1310714Y282714D01*
X1306429Y291286D01*
X1297857Y299857D01*
X1280714Y304143D01*
X1250714Y304143D01*
X1233571Y299857D01*
X1225000Y291286D01*
X1220714Y282714D01*
X1310714Y154143D02*
X1267857Y184143D01*
X1310714Y205571D02*
X1220714Y205571D01*
X1220714Y171286D01*
X1225000Y162714D01*
X1229286Y158429D01*
X1237857Y154143D01*
X1250714Y154143D01*
X1259286Y158429D01*
X1263571Y162714D01*
X1267857Y171286D01*
X1267857Y205571D01*
X1285000Y119857D02*
X1285000Y77000D01*
X1310714Y128429D02*
X1220714Y98429D01*
X1310714Y68429D01*
D10*
X1587500Y-127000D02*
X-63500Y-127000D01*
D12*
G36*
X318393Y1341419D02*
G01*
X362855Y1333037D01*
X375605Y1302108D01*
X388355Y1271179D01*
X363125Y1234075D01*
X356100Y1223684D01*
X349827Y1214291D01*
X344594Y1206335D01*
X340686Y1200253D01*
X338389Y1196484D01*
X337894Y1195458D01*
X339168Y1193609D01*
X342688Y1189658D01*
X348006Y1184048D01*
X354672Y1177221D01*
X362235Y1169621D01*
X370247Y1161691D01*
X378257Y1153873D01*
X385816Y1146609D01*
X392474Y1140344D01*
X397782Y1135520D01*
X401289Y1132579D01*
X402462Y1131876D01*
X404626Y1132888D01*
X409366Y1135724D01*
X416219Y1140087D01*
X424721Y1145678D01*
X434409Y1152199D01*
X439935Y1155978D01*
X450025Y1162866D01*
X459130Y1168986D01*
X466797Y1174042D01*
X472573Y1177737D01*
X476004Y1179774D01*
X476725Y1180080D01*
X478775Y1179386D01*
X483551Y1177495D01*
X490383Y1174691D01*
X498599Y1171261D01*
X507527Y1167489D01*
X516496Y1163661D01*
X524834Y1160063D01*
X531869Y1156979D01*
X536931Y1154696D01*
X539347Y1153498D01*
X539442Y1153428D01*
X539904Y1151547D01*
X540933Y1146538D01*
X542429Y1138921D01*
X544290Y1129214D01*
X546416Y1117936D01*
X547642Y1111356D01*
X549936Y1099305D01*
X552120Y1088420D01*
X554072Y1079252D01*
X555675Y1072352D01*
X556808Y1068270D01*
X557167Y1067449D01*
X559601Y1066645D01*
X565096Y1065997D01*
X573011Y1065503D01*
X582703Y1065164D01*
X593529Y1064978D01*
X604847Y1064946D01*
X616014Y1065067D01*
X626387Y1065341D01*
X635324Y1065767D01*
X642183Y1066345D01*
X646320Y1067073D01*
X647181Y1067511D01*
X648213Y1070124D01*
X649689Y1075661D01*
X651435Y1083389D01*
X653278Y1092577D01*
X653874Y1095784D01*
X656707Y1111248D01*
X658988Y1123463D01*
X660808Y1132833D01*
X662258Y1139762D01*
X663429Y1144653D01*
X664412Y1147910D01*
X665296Y1149937D01*
X666172Y1151137D01*
X666346Y1151305D01*
X669137Y1152982D01*
X674570Y1155539D01*
X681978Y1158721D01*
X690697Y1162274D01*
X700061Y1165942D01*
X709405Y1169469D01*
X718065Y1172600D01*
X725374Y1175081D01*
X730668Y1176655D01*
X733281Y1177067D01*
X733373Y1177032D01*
X735509Y1175636D01*
X740208Y1172468D01*
X746983Y1167861D01*
X755342Y1162148D01*
X764798Y1155663D01*
X767485Y1153816D01*
X777227Y1147230D01*
X786116Y1141435D01*
X793641Y1136746D01*
X799292Y1133479D01*
X802558Y1131950D01*
X802959Y1131876D01*
X805068Y1133161D01*
X809246Y1136711D01*
X815044Y1142071D01*
X822013Y1148783D01*
X829704Y1156391D01*
X837668Y1164440D01*
X845456Y1172471D01*
X852619Y1180030D01*
X858707Y1186660D01*
X863272Y1191903D01*
X865865Y1195305D01*
X866288Y1196246D01*
X865291Y1198436D01*
X862602Y1202920D01*
X858674Y1208968D01*
X855512Y1213621D01*
X849710Y1222053D01*
X842878Y1232037D01*
X836058Y1242053D01*
X832407Y1247437D01*
X820080Y1265663D01*
X828352Y1280962D01*
X831976Y1287932D01*
X834793Y1293859D01*
X836399Y1297869D01*
X836623Y1298890D01*
X834972Y1300117D01*
X830308Y1302539D01*
X823061Y1305974D01*
X813661Y1310241D01*
X802537Y1315161D01*
X790121Y1320551D01*
X776843Y1326232D01*
X763133Y1332022D01*
X749420Y1337741D01*
X736136Y1343208D01*
X723710Y1348242D01*
X712572Y1352662D01*
X703154Y1356288D01*
X695884Y1358939D01*
X691194Y1360434D01*
X689583Y1360675D01*
X687529Y1358769D01*
X684193Y1354596D01*
X680270Y1349029D01*
X679960Y1348562D01*
X668442Y1334174D01*
X655005Y1322572D01*
X640078Y1313857D01*
X624091Y1308130D01*
X607474Y1305491D01*
X590655Y1306042D01*
X574066Y1309881D01*
X558134Y1317111D01*
X554649Y1319237D01*
X540574Y1330300D01*
X529271Y1343370D01*
X520800Y1357994D01*
X515219Y1373719D01*
X512587Y1390094D01*
X512963Y1406667D01*
X516405Y1422984D01*
X522972Y1438593D01*
X532724Y1453043D01*
X536681Y1457513D01*
X549070Y1468889D01*
X562112Y1477178D01*
X576732Y1482864D01*
X591209Y1486031D01*
X607486Y1486813D01*
X623844Y1484206D01*
X639730Y1478475D01*
X654591Y1469886D01*
X667874Y1458701D01*
X679026Y1445188D01*
X680201Y1443412D01*
X684051Y1437785D01*
X687386Y1433508D01*
X689516Y1431463D01*
X689583Y1431433D01*
X691887Y1431872D01*
X697116Y1433612D01*
X704839Y1436473D01*
X714627Y1440273D01*
X726049Y1444833D01*
X738676Y1449970D01*
X752077Y1455504D01*
X765822Y1461254D01*
X779481Y1467040D01*
X792624Y1472680D01*
X804820Y1477994D01*
X815641Y1482801D01*
X824655Y1486920D01*
X831432Y1490170D01*
X835543Y1492370D01*
X836623Y1493256D01*
X835782Y1495964D01*
X833527Y1501030D01*
X830261Y1507582D01*
X828352Y1511184D01*
X820080Y1526483D01*
X832407Y1544709D01*
X838723Y1554012D01*
X845673Y1564198D01*
X852216Y1573744D01*
X855512Y1578525D01*
X860027Y1585249D01*
X863606Y1590944D01*
X865794Y1594865D01*
X866256Y1596138D01*
X865008Y1597992D01*
X861525Y1602094D01*
X856168Y1608047D01*
X849298Y1615454D01*
X841278Y1623916D01*
X836129Y1629268D01*
X826929Y1638632D01*
X818700Y1646724D01*
X811794Y1653218D01*
X806564Y1657786D01*
X803362Y1660101D01*
X802712Y1660323D01*
X800239Y1659292D01*
X795240Y1656444D01*
X788221Y1652094D01*
X779687Y1646558D01*
X770146Y1640152D01*
X767485Y1638330D01*
X757817Y1631693D01*
X749112Y1625738D01*
X741859Y1620798D01*
X736549Y1617207D01*
X733670Y1615298D01*
X733373Y1615114D01*
X731078Y1615389D01*
X726034Y1616854D01*
X718904Y1619251D01*
X710355Y1622327D01*
X701051Y1625824D01*
X691657Y1629489D01*
X682840Y1633066D01*
X675263Y1636299D01*
X669593Y1638934D01*
X666494Y1640714D01*
X666346Y1640841D01*
X665460Y1641929D01*
X664584Y1643768D01*
X663628Y1646761D01*
X662500Y1651310D01*
X661109Y1657821D01*
X659366Y1666696D01*
X657180Y1678339D01*
X654459Y1693154D01*
X653874Y1696362D01*
X652037Y1705869D01*
X650241Y1714156D01*
X648657Y1720493D01*
X647460Y1724146D01*
X647181Y1724636D01*
X644707Y1725443D01*
X639179Y1726099D01*
X631239Y1726603D01*
X621530Y1726956D01*
X610694Y1727156D01*
X599374Y1727204D01*
X588213Y1727098D01*
X577853Y1726838D01*
X568937Y1726425D01*
X562107Y1725856D01*
X558007Y1725133D01*
X557167Y1724697D01*
X556321Y1722270D01*
X554944Y1716743D01*
X553155Y1708666D01*
X551075Y1698591D01*
X548822Y1687068D01*
X547642Y1680790D01*
X545415Y1668879D01*
X543398Y1658256D01*
X541692Y1649443D01*
X540397Y1642957D01*
X539616Y1639317D01*
X539442Y1638718D01*
X537489Y1637706D01*
X532784Y1635566D01*
X526000Y1632584D01*
X517809Y1629044D01*
X508883Y1625233D01*
X499893Y1621435D01*
X491513Y1617936D01*
X484415Y1615021D01*
X479269Y1612974D01*
X476750Y1612082D01*
X476640Y1612066D01*
X474652Y1613077D01*
X470078Y1615912D01*
X463372Y1620272D01*
X454988Y1625861D01*
X445383Y1632379D01*
X439865Y1636168D01*
X429748Y1643072D01*
X420563Y1649205D01*
X412774Y1654266D01*
X406847Y1657957D01*
X403245Y1659978D01*
X402438Y1660270D01*
X400558Y1659015D01*
X396546Y1655546D01*
X390849Y1650306D01*
X383918Y1643738D01*
X376203Y1636286D01*
X368152Y1628391D01*
X360216Y1620498D01*
X352844Y1613050D01*
X346485Y1606489D01*
X341589Y1601260D01*
X338606Y1597804D01*
X337894Y1596648D01*
X338895Y1594765D01*
X341708Y1590263D01*
X346045Y1583579D01*
X351622Y1575150D01*
X358151Y1565414D01*
X363125Y1558071D01*
X388355Y1520967D01*
X362855Y1459109D01*
X318393Y1450727D01*
X273931Y1442345D01*
X273931Y1349801D01*
X318393Y1341419D01*
G37*
X318393Y1341419D02*
X362855Y1333037D01*
X375605Y1302108D01*
X388355Y1271179D01*
X363125Y1234075D01*
X356100Y1223684D01*
X349827Y1214291D01*
X344594Y1206335D01*
X340686Y1200253D01*
X338389Y1196484D01*
X337894Y1195458D01*
X339168Y1193609D01*
X342688Y1189658D01*
X348006Y1184048D01*
X354672Y1177221D01*
X362235Y1169621D01*
X370247Y1161691D01*
X378257Y1153873D01*
X385816Y1146609D01*
X392474Y1140344D01*
X397782Y1135520D01*
X401289Y1132579D01*
X402462Y1131876D01*
X404626Y1132888D01*
X409366Y1135724D01*
X416219Y1140087D01*
X424721Y1145678D01*
X434409Y1152199D01*
X439935Y1155978D01*
X450025Y1162866D01*
X459130Y1168986D01*
X466797Y1174042D01*
X472573Y1177737D01*
X476004Y1179774D01*
X476725Y1180080D01*
X478775Y1179386D01*
X483551Y1177495D01*
X490383Y1174691D01*
X498599Y1171261D01*
X507527Y1167489D01*
X516496Y1163661D01*
X524834Y1160063D01*
X531869Y1156979D01*
X536931Y1154696D01*
X539347Y1153498D01*
X539442Y1153428D01*
X539904Y1151547D01*
X540933Y1146538D01*
X542429Y1138921D01*
X544290Y1129214D01*
X546416Y1117936D01*
X547642Y1111356D01*
X549936Y1099305D01*
X552120Y1088420D01*
X554072Y1079252D01*
X555675Y1072352D01*
X556808Y1068270D01*
X557167Y1067449D01*
X559601Y1066645D01*
X565096Y1065997D01*
X573011Y1065503D01*
X582703Y1065164D01*
X593529Y1064978D01*
X604847Y1064946D01*
X616014Y1065067D01*
X626387Y1065341D01*
X635324Y1065767D01*
X642183Y1066345D01*
X646320Y1067073D01*
X647181Y1067511D01*
X648213Y1070124D01*
X649689Y1075661D01*
X651435Y1083389D01*
X653278Y1092577D01*
X653874Y1095784D01*
X656707Y1111248D01*
X658988Y1123463D01*
X660808Y1132833D01*
X662258Y1139762D01*
X663429Y1144653D01*
X664412Y1147910D01*
X665296Y1149937D01*
X666172Y1151137D01*
X666346Y1151305D01*
X669137Y1152982D01*
X674570Y1155539D01*
X681978Y1158721D01*
X690697Y1162274D01*
X700061Y1165942D01*
X709405Y1169469D01*
X718065Y1172600D01*
X725374Y1175081D01*
X730668Y1176655D01*
X733281Y1177067D01*
X733373Y1177032D01*
X735509Y1175636D01*
X740208Y1172468D01*
X746983Y1167861D01*
X755342Y1162148D01*
X764798Y1155663D01*
X767485Y1153816D01*
X777227Y1147230D01*
X786116Y1141435D01*
X793641Y1136746D01*
X799292Y1133479D01*
X802558Y1131950D01*
X802959Y1131876D01*
X805068Y1133161D01*
X809246Y1136711D01*
X815044Y1142071D01*
X822013Y1148783D01*
X829704Y1156391D01*
X837668Y1164440D01*
X845456Y1172471D01*
X852619Y1180030D01*
X858707Y1186660D01*
X863272Y1191903D01*
X865865Y1195305D01*
X866288Y1196246D01*
X865291Y1198436D01*
X862602Y1202920D01*
X858674Y1208968D01*
X855512Y1213621D01*
X849710Y1222053D01*
X842878Y1232037D01*
X836058Y1242053D01*
X832407Y1247437D01*
X820080Y1265663D01*
X828352Y1280962D01*
X831976Y1287932D01*
X834793Y1293859D01*
X836399Y1297869D01*
X836623Y1298890D01*
X834972Y1300117D01*
X830308Y1302539D01*
X823061Y1305974D01*
X813661Y1310241D01*
X802537Y1315161D01*
X790121Y1320551D01*
X776843Y1326232D01*
X763133Y1332022D01*
X749420Y1337741D01*
X736136Y1343208D01*
X723710Y1348242D01*
X712572Y1352662D01*
X703154Y1356288D01*
X695884Y1358939D01*
X691194Y1360434D01*
X689583Y1360675D01*
X687529Y1358769D01*
X684193Y1354596D01*
X680270Y1349029D01*
X679960Y1348562D01*
X668442Y1334174D01*
X655005Y1322572D01*
X640078Y1313857D01*
X624091Y1308130D01*
X607474Y1305491D01*
X590655Y1306042D01*
X574066Y1309881D01*
X558134Y1317111D01*
X554649Y1319237D01*
X540574Y1330300D01*
X529271Y1343370D01*
X520800Y1357994D01*
X515219Y1373719D01*
X512587Y1390094D01*
X512963Y1406667D01*
X516405Y1422984D01*
X522972Y1438593D01*
X532724Y1453043D01*
X536681Y1457513D01*
X549070Y1468889D01*
X562112Y1477178D01*
X576732Y1482864D01*
X591209Y1486031D01*
X607486Y1486813D01*
X623844Y1484206D01*
X639730Y1478475D01*
X654591Y1469886D01*
X667874Y1458701D01*
X679026Y1445188D01*
X680201Y1443412D01*
X684051Y1437785D01*
X687386Y1433508D01*
X689516Y1431463D01*
X689583Y1431433D01*
X691887Y1431872D01*
X697116Y1433612D01*
X704839Y1436473D01*
X714627Y1440273D01*
X726049Y1444833D01*
X738676Y1449970D01*
X752077Y1455504D01*
X765822Y1461254D01*
X779481Y1467040D01*
X792624Y1472680D01*
X804820Y1477994D01*
X815641Y1482801D01*
X824655Y1486920D01*
X831432Y1490170D01*
X835543Y1492370D01*
X836623Y1493256D01*
X835782Y1495964D01*
X833527Y1501030D01*
X830261Y1507582D01*
X828352Y1511184D01*
X820080Y1526483D01*
X832407Y1544709D01*
X838723Y1554012D01*
X845673Y1564198D01*
X852216Y1573744D01*
X855512Y1578525D01*
X860027Y1585249D01*
X863606Y1590944D01*
X865794Y1594865D01*
X866256Y1596138D01*
X865008Y1597992D01*
X861525Y1602094D01*
X856168Y1608047D01*
X849298Y1615454D01*
X841278Y1623916D01*
X836129Y1629268D01*
X826929Y1638632D01*
X818700Y1646724D01*
X811794Y1653218D01*
X806564Y1657786D01*
X803362Y1660101D01*
X802712Y1660323D01*
X800239Y1659292D01*
X795240Y1656444D01*
X788221Y1652094D01*
X779687Y1646558D01*
X770146Y1640152D01*
X767485Y1638330D01*
X757817Y1631693D01*
X749112Y1625738D01*
X741859Y1620798D01*
X736549Y1617207D01*
X733670Y1615298D01*
X733373Y1615114D01*
X731078Y1615389D01*
X726034Y1616854D01*
X718904Y1619251D01*
X710355Y1622327D01*
X701051Y1625824D01*
X691657Y1629489D01*
X682840Y1633066D01*
X675263Y1636299D01*
X669593Y1638934D01*
X666494Y1640714D01*
X666346Y1640841D01*
X665460Y1641929D01*
X664584Y1643768D01*
X663628Y1646761D01*
X662500Y1651310D01*
X661109Y1657821D01*
X659366Y1666696D01*
X657180Y1678339D01*
X654459Y1693154D01*
X653874Y1696362D01*
X652037Y1705869D01*
X650241Y1714156D01*
X648657Y1720493D01*
X647460Y1724146D01*
X647181Y1724636D01*
X644707Y1725443D01*
X639179Y1726099D01*
X631239Y1726603D01*
X621530Y1726956D01*
X610694Y1727156D01*
X599374Y1727204D01*
X588213Y1727098D01*
X577853Y1726838D01*
X568937Y1726425D01*
X562107Y1725856D01*
X558007Y1725133D01*
X557167Y1724697D01*
X556321Y1722270D01*
X554944Y1716743D01*
X553155Y1708666D01*
X551075Y1698591D01*
X548822Y1687068D01*
X547642Y1680790D01*
X545415Y1668879D01*
X543398Y1658256D01*
X541692Y1649443D01*
X540397Y1642957D01*
X539616Y1639317D01*
X539442Y1638718D01*
X537489Y1637706D01*
X532784Y1635566D01*
X526000Y1632584D01*
X517809Y1629044D01*
X508883Y1625233D01*
X499893Y1621435D01*
X491513Y1617936D01*
X484415Y1615021D01*
X479269Y1612974D01*
X476750Y1612082D01*
X476640Y1612066D01*
X474652Y1613077D01*
X470078Y1615912D01*
X463372Y1620272D01*
X454988Y1625861D01*
X445383Y1632379D01*
X439865Y1636168D01*
X429748Y1643072D01*
X420563Y1649205D01*
X412774Y1654266D01*
X406847Y1657957D01*
X403245Y1659978D01*
X402438Y1660270D01*
X400558Y1659015D01*
X396546Y1655546D01*
X390849Y1650306D01*
X383918Y1643738D01*
X376203Y1636286D01*
X368152Y1628391D01*
X360216Y1620498D01*
X352844Y1613050D01*
X346485Y1606489D01*
X341589Y1601260D01*
X338606Y1597804D01*
X337894Y1596648D01*
X338895Y1594765D01*
X341708Y1590263D01*
X346045Y1583579D01*
X351622Y1575150D01*
X358151Y1565414D01*
X363125Y1558071D01*
X388355Y1520967D01*
X362855Y1459109D01*
X318393Y1450727D01*
X273931Y1442345D01*
X273931Y1349801D01*
X318393Y1341419D01*
D13*
X1664000Y-127000D02*
X127000Y-127000D01*
X1664000Y2921000D02*
X1664000Y-127000D01*
X-140000Y2921000D02*
X1664000Y2921000D01*
X127000Y-127000D02*
X127000Y2921000D01*
X127000Y127000D02*
X-140000Y127000D01*
X1397000Y-127000D02*
X1397000Y2921000D01*
X-140000Y127000D02*
X-140000Y2921000D01*
D11*
X267333Y57143D02*
X267333Y19048D01*
X290190Y64762D02*
X210190Y38095D01*
X290190Y11429D01*
X290190Y-57143D02*
X290190Y-11428D01*
X290190Y-34286D02*
X210190Y-34286D01*
X221619Y-26667D01*
X229238Y-19048D01*
X233048Y-11428D01*
%LPC*%
D14*
X1524000Y0D03*
X1524000Y254000D03*
X1524000Y508000D03*
X0Y2794000D03*
X1524000Y762000D03*
X0Y2540000D03*
X1524000Y1016000D03*
X0Y2286000D03*
X1524000Y1270000D03*
X0Y2032000D03*
X1524000Y1524000D03*
X0Y1778000D03*
X1524000Y1778000D03*
X0Y1524000D03*
X1524000Y2032000D03*
X0Y1270000D03*
X1524000Y2286000D03*
X0Y1016000D03*
X1524000Y2540000D03*
X0Y762000D03*
X1524000Y2794000D03*
X0Y508000D03*
X0Y254000D03*
D15*
X0Y0D03*
D16*
X479500Y2710500D03*
X1044500Y2710500D03*
M02*
