%TF.GenerationSoftware,KiCad,Pcbnew,5.1.5+dfsg1-2~bpo10+1*%
%TF.CreationDate,Date%
%TF.ProjectId,ProMicro_LIPO,50726f4d-6963-4726-9f5f-4c49504f2e6b,v1.6*%
%TF.SameCoordinates,Original*%
%TF.FileFunction,Soldermask,Top*%
%TF.FilePolarity,Negative*%
%FSLAX45Y45*%
G04 Gerber Fmt 4.5, Leading zero omitted, Abs format (unit mm)*
G04 Created by KiCad*
%MOMM*%
%LPD*%
G04 APERTURE LIST*
%ADD10C,0.100000*%
%ADD11O,1.600000X1.600000*%
%ADD12R,1.600000X1.600000*%
%ADD13C,2.000000*%
%ADD14R,2.350000X5.100000*%
%ADD15C,0.150000*%
%ADD16R,1.060000X0.650000*%
%ADD17R,1.500000X1.000000*%
G04 APERTURE END LIST*
D10*
X-127000Y-63500D02*
X-127000Y2603500D01*
X1651000Y2603500D02*
X1651000Y-63500D01*
X1651000Y-63500D02*
G75*
G02X1587500Y-127000I-63500J0D01*
G01*
X-63500Y-127000D02*
G75*
G02X-127000Y-63500I0J63500D01*
G01*
X-127000Y2603500D02*
G75*
G02X-63500Y2667000I63500J0D01*
G01*
X1587500Y2667000D02*
G75*
G02X1651000Y2603500I0J-63500D01*
G01*
X1587500Y2667000D02*
X-63500Y2667000D01*
X-63500Y-127000D02*
X1587500Y-127000D01*
D11*
X1524000Y0D03*
X1524000Y254000D03*
X1524000Y508000D03*
X0Y2794000D03*
X1524000Y762000D03*
X0Y2540000D03*
X1524000Y1016000D03*
X0Y2286000D03*
X1524000Y1270000D03*
X0Y2032000D03*
X1524000Y1524000D03*
X0Y1778000D03*
X1524000Y1778000D03*
X0Y1524000D03*
X1524000Y2032000D03*
X0Y1270000D03*
X1524000Y2286000D03*
X0Y1016000D03*
X1524000Y2540000D03*
X0Y762000D03*
X1524000Y2794000D03*
X0Y508000D03*
X0Y254000D03*
D12*
X0Y0D03*
D13*
X1270000Y2159000D03*
D14*
X728200Y2324100D03*
X313200Y2324100D03*
D15*
G36*
X262769Y1952395D02*
G01*
X264893Y1952080D01*
X266975Y1951558D01*
X268996Y1950835D01*
X270937Y1949917D01*
X272778Y1948813D01*
X274502Y1947535D01*
X276093Y1946093D01*
X277535Y1944502D01*
X278813Y1942778D01*
X279917Y1940937D01*
X280835Y1938996D01*
X281558Y1936975D01*
X282080Y1934893D01*
X282395Y1932769D01*
X282500Y1930625D01*
X282500Y1879375D01*
X282395Y1877231D01*
X282080Y1875107D01*
X281558Y1873025D01*
X280835Y1871004D01*
X279917Y1869063D01*
X278813Y1867222D01*
X277535Y1865498D01*
X276093Y1863907D01*
X274502Y1862465D01*
X272778Y1861187D01*
X270937Y1860083D01*
X268996Y1859165D01*
X266975Y1858442D01*
X264893Y1857920D01*
X262769Y1857605D01*
X260625Y1857500D01*
X216875Y1857500D01*
X214731Y1857605D01*
X212607Y1857920D01*
X210525Y1858442D01*
X208504Y1859165D01*
X206563Y1860083D01*
X204722Y1861187D01*
X202998Y1862465D01*
X201407Y1863907D01*
X199965Y1865498D01*
X198687Y1867222D01*
X197583Y1869063D01*
X196665Y1871004D01*
X195942Y1873025D01*
X195420Y1875107D01*
X195105Y1877231D01*
X195000Y1879375D01*
X195000Y1930625D01*
X195105Y1932769D01*
X195420Y1934893D01*
X195942Y1936975D01*
X196665Y1938996D01*
X197583Y1940937D01*
X198687Y1942778D01*
X199965Y1944502D01*
X201407Y1946093D01*
X202998Y1947535D01*
X204722Y1948813D01*
X206563Y1949917D01*
X208504Y1950835D01*
X210525Y1951558D01*
X212607Y1952080D01*
X214731Y1952395D01*
X216875Y1952500D01*
X260625Y1952500D01*
X262769Y1952395D01*
G37*
G36*
X420269Y1952395D02*
G01*
X422393Y1952080D01*
X424475Y1951558D01*
X426496Y1950835D01*
X428437Y1949917D01*
X430278Y1948813D01*
X432002Y1947535D01*
X433593Y1946093D01*
X435035Y1944502D01*
X436313Y1942778D01*
X437417Y1940937D01*
X438335Y1938996D01*
X439058Y1936975D01*
X439580Y1934893D01*
X439895Y1932769D01*
X440000Y1930625D01*
X440000Y1879375D01*
X439895Y1877231D01*
X439580Y1875107D01*
X439058Y1873025D01*
X438335Y1871004D01*
X437417Y1869063D01*
X436313Y1867222D01*
X435035Y1865498D01*
X433593Y1863907D01*
X432002Y1862465D01*
X430278Y1861187D01*
X428437Y1860083D01*
X426496Y1859165D01*
X424475Y1858442D01*
X422393Y1857920D01*
X420269Y1857605D01*
X418125Y1857500D01*
X374375Y1857500D01*
X372231Y1857605D01*
X370107Y1857920D01*
X368025Y1858442D01*
X366004Y1859165D01*
X364063Y1860083D01*
X362222Y1861187D01*
X360498Y1862465D01*
X358907Y1863907D01*
X357465Y1865498D01*
X356187Y1867222D01*
X355083Y1869063D01*
X354165Y1871004D01*
X353442Y1873025D01*
X352920Y1875107D01*
X352605Y1877231D01*
X352500Y1879375D01*
X352500Y1930625D01*
X352605Y1932769D01*
X352920Y1934893D01*
X353442Y1936975D01*
X354165Y1938996D01*
X355083Y1940937D01*
X356187Y1942778D01*
X357465Y1944502D01*
X358907Y1946093D01*
X360498Y1947535D01*
X362222Y1948813D01*
X364063Y1949917D01*
X366004Y1950835D01*
X368025Y1951558D01*
X370107Y1952080D01*
X372231Y1952395D01*
X374375Y1952500D01*
X418125Y1952500D01*
X420269Y1952395D01*
G37*
G36*
X1309269Y1952395D02*
G01*
X1311393Y1952080D01*
X1313475Y1951558D01*
X1315496Y1950835D01*
X1317437Y1949917D01*
X1319278Y1948813D01*
X1321002Y1947535D01*
X1322593Y1946093D01*
X1324035Y1944502D01*
X1325313Y1942778D01*
X1326417Y1940937D01*
X1327335Y1938996D01*
X1328058Y1936975D01*
X1328580Y1934893D01*
X1328895Y1932769D01*
X1329000Y1930625D01*
X1329000Y1879375D01*
X1328895Y1877231D01*
X1328580Y1875107D01*
X1328058Y1873025D01*
X1327335Y1871004D01*
X1326417Y1869063D01*
X1325313Y1867222D01*
X1324035Y1865498D01*
X1322593Y1863907D01*
X1321002Y1862465D01*
X1319278Y1861187D01*
X1317437Y1860083D01*
X1315496Y1859165D01*
X1313475Y1858442D01*
X1311393Y1857920D01*
X1309269Y1857605D01*
X1307125Y1857500D01*
X1263375Y1857500D01*
X1261231Y1857605D01*
X1259107Y1857920D01*
X1257025Y1858442D01*
X1255004Y1859165D01*
X1253063Y1860083D01*
X1251222Y1861187D01*
X1249498Y1862465D01*
X1247907Y1863907D01*
X1246465Y1865498D01*
X1245187Y1867222D01*
X1244083Y1869063D01*
X1243165Y1871004D01*
X1242442Y1873025D01*
X1241920Y1875107D01*
X1241605Y1877231D01*
X1241500Y1879375D01*
X1241500Y1930625D01*
X1241605Y1932769D01*
X1241920Y1934893D01*
X1242442Y1936975D01*
X1243165Y1938996D01*
X1244083Y1940937D01*
X1245187Y1942778D01*
X1246465Y1944502D01*
X1247907Y1946093D01*
X1249498Y1947535D01*
X1251222Y1948813D01*
X1253063Y1949917D01*
X1255004Y1950835D01*
X1257025Y1951558D01*
X1259107Y1952080D01*
X1261231Y1952395D01*
X1263375Y1952500D01*
X1307125Y1952500D01*
X1309269Y1952395D01*
G37*
G36*
X1151769Y1952395D02*
G01*
X1153893Y1952080D01*
X1155975Y1951558D01*
X1157996Y1950835D01*
X1159937Y1949917D01*
X1161778Y1948813D01*
X1163502Y1947535D01*
X1165093Y1946093D01*
X1166535Y1944502D01*
X1167813Y1942778D01*
X1168917Y1940937D01*
X1169835Y1938996D01*
X1170558Y1936975D01*
X1171080Y1934893D01*
X1171395Y1932769D01*
X1171500Y1930625D01*
X1171500Y1879375D01*
X1171395Y1877231D01*
X1171080Y1875107D01*
X1170558Y1873025D01*
X1169835Y1871004D01*
X1168917Y1869063D01*
X1167813Y1867222D01*
X1166535Y1865498D01*
X1165093Y1863907D01*
X1163502Y1862465D01*
X1161778Y1861187D01*
X1159937Y1860083D01*
X1157996Y1859165D01*
X1155975Y1858442D01*
X1153893Y1857920D01*
X1151769Y1857605D01*
X1149625Y1857500D01*
X1105875Y1857500D01*
X1103731Y1857605D01*
X1101607Y1857920D01*
X1099525Y1858442D01*
X1097504Y1859165D01*
X1095563Y1860083D01*
X1093722Y1861187D01*
X1091998Y1862465D01*
X1090407Y1863907D01*
X1088965Y1865498D01*
X1087687Y1867222D01*
X1086583Y1869063D01*
X1085665Y1871004D01*
X1084942Y1873025D01*
X1084420Y1875107D01*
X1084105Y1877231D01*
X1084000Y1879375D01*
X1084000Y1930625D01*
X1084105Y1932769D01*
X1084420Y1934893D01*
X1084942Y1936975D01*
X1085665Y1938996D01*
X1086583Y1940937D01*
X1087687Y1942778D01*
X1088965Y1944502D01*
X1090407Y1946093D01*
X1091998Y1947535D01*
X1093722Y1948813D01*
X1095563Y1949917D01*
X1097504Y1950835D01*
X1099525Y1951558D01*
X1101607Y1952080D01*
X1103731Y1952395D01*
X1105875Y1952500D01*
X1149625Y1952500D01*
X1151769Y1952395D01*
G37*
G36*
X1309269Y1761895D02*
G01*
X1311393Y1761580D01*
X1313475Y1761058D01*
X1315496Y1760335D01*
X1317437Y1759417D01*
X1319278Y1758313D01*
X1321002Y1757035D01*
X1322593Y1755593D01*
X1324035Y1754002D01*
X1325313Y1752278D01*
X1326417Y1750437D01*
X1327335Y1748496D01*
X1328058Y1746475D01*
X1328580Y1744393D01*
X1328895Y1742269D01*
X1329000Y1740125D01*
X1329000Y1688875D01*
X1328895Y1686731D01*
X1328580Y1684607D01*
X1328058Y1682525D01*
X1327335Y1680504D01*
X1326417Y1678563D01*
X1325313Y1676722D01*
X1324035Y1674998D01*
X1322593Y1673407D01*
X1321002Y1671965D01*
X1319278Y1670687D01*
X1317437Y1669583D01*
X1315496Y1668665D01*
X1313475Y1667942D01*
X1311393Y1667420D01*
X1309269Y1667105D01*
X1307125Y1667000D01*
X1263375Y1667000D01*
X1261231Y1667105D01*
X1259107Y1667420D01*
X1257025Y1667942D01*
X1255004Y1668665D01*
X1253063Y1669583D01*
X1251222Y1670687D01*
X1249498Y1671965D01*
X1247907Y1673407D01*
X1246465Y1674998D01*
X1245187Y1676722D01*
X1244083Y1678563D01*
X1243165Y1680504D01*
X1242442Y1682525D01*
X1241920Y1684607D01*
X1241605Y1686731D01*
X1241500Y1688875D01*
X1241500Y1740125D01*
X1241605Y1742269D01*
X1241920Y1744393D01*
X1242442Y1746475D01*
X1243165Y1748496D01*
X1244083Y1750437D01*
X1245187Y1752278D01*
X1246465Y1754002D01*
X1247907Y1755593D01*
X1249498Y1757035D01*
X1251222Y1758313D01*
X1253063Y1759417D01*
X1255004Y1760335D01*
X1257025Y1761058D01*
X1259107Y1761580D01*
X1261231Y1761895D01*
X1263375Y1762000D01*
X1307125Y1762000D01*
X1309269Y1761895D01*
G37*
G36*
X1151769Y1761895D02*
G01*
X1153893Y1761580D01*
X1155975Y1761058D01*
X1157996Y1760335D01*
X1159937Y1759417D01*
X1161778Y1758313D01*
X1163502Y1757035D01*
X1165093Y1755593D01*
X1166535Y1754002D01*
X1167813Y1752278D01*
X1168917Y1750437D01*
X1169835Y1748496D01*
X1170558Y1746475D01*
X1171080Y1744393D01*
X1171395Y1742269D01*
X1171500Y1740125D01*
X1171500Y1688875D01*
X1171395Y1686731D01*
X1171080Y1684607D01*
X1170558Y1682525D01*
X1169835Y1680504D01*
X1168917Y1678563D01*
X1167813Y1676722D01*
X1166535Y1674998D01*
X1165093Y1673407D01*
X1163502Y1671965D01*
X1161778Y1670687D01*
X1159937Y1669583D01*
X1157996Y1668665D01*
X1155975Y1667942D01*
X1153893Y1667420D01*
X1151769Y1667105D01*
X1149625Y1667000D01*
X1105875Y1667000D01*
X1103731Y1667105D01*
X1101607Y1667420D01*
X1099525Y1667942D01*
X1097504Y1668665D01*
X1095563Y1669583D01*
X1093722Y1670687D01*
X1091998Y1671965D01*
X1090407Y1673407D01*
X1088965Y1674998D01*
X1087687Y1676722D01*
X1086583Y1678563D01*
X1085665Y1680504D01*
X1084942Y1682525D01*
X1084420Y1684607D01*
X1084105Y1686731D01*
X1084000Y1688875D01*
X1084000Y1740125D01*
X1084105Y1742269D01*
X1084420Y1744393D01*
X1084942Y1746475D01*
X1085665Y1748496D01*
X1086583Y1750437D01*
X1087687Y1752278D01*
X1088965Y1754002D01*
X1090407Y1755593D01*
X1091998Y1757035D01*
X1093722Y1758313D01*
X1095563Y1759417D01*
X1097504Y1760335D01*
X1099525Y1761058D01*
X1101607Y1761580D01*
X1103731Y1761895D01*
X1105875Y1762000D01*
X1149625Y1762000D01*
X1151769Y1761895D01*
G37*
G36*
X599269Y1044395D02*
G01*
X601393Y1044080D01*
X603475Y1043558D01*
X605496Y1042835D01*
X607437Y1041917D01*
X609278Y1040813D01*
X611002Y1039535D01*
X612593Y1038093D01*
X614035Y1036502D01*
X615313Y1034778D01*
X616417Y1032937D01*
X617335Y1030996D01*
X618058Y1028975D01*
X618580Y1026893D01*
X618895Y1024769D01*
X619000Y1022625D01*
X619000Y978875D01*
X618895Y976731D01*
X618580Y974607D01*
X618058Y972525D01*
X617335Y970504D01*
X616417Y968563D01*
X615313Y966722D01*
X614035Y964998D01*
X612593Y963407D01*
X611002Y961965D01*
X609278Y960687D01*
X607437Y959583D01*
X605496Y958665D01*
X603475Y957942D01*
X601393Y957420D01*
X599269Y957105D01*
X597125Y957000D01*
X545875Y957000D01*
X543731Y957105D01*
X541607Y957420D01*
X539525Y957942D01*
X537504Y958665D01*
X535563Y959583D01*
X533722Y960687D01*
X531998Y961965D01*
X530407Y963407D01*
X528965Y964998D01*
X527687Y966722D01*
X526583Y968563D01*
X525665Y970504D01*
X524942Y972525D01*
X524420Y974607D01*
X524105Y976731D01*
X524000Y978875D01*
X524000Y1022625D01*
X524105Y1024769D01*
X524420Y1026893D01*
X524942Y1028975D01*
X525665Y1030996D01*
X526583Y1032937D01*
X527687Y1034778D01*
X528965Y1036502D01*
X530407Y1038093D01*
X531998Y1039535D01*
X533722Y1040813D01*
X535563Y1041917D01*
X537504Y1042835D01*
X539525Y1043558D01*
X541607Y1044080D01*
X543731Y1044395D01*
X545875Y1044500D01*
X597125Y1044500D01*
X599269Y1044395D01*
G37*
G36*
X599269Y1201895D02*
G01*
X601393Y1201580D01*
X603475Y1201058D01*
X605496Y1200335D01*
X607437Y1199417D01*
X609278Y1198313D01*
X611002Y1197035D01*
X612593Y1195593D01*
X614035Y1194002D01*
X615313Y1192278D01*
X616417Y1190437D01*
X617335Y1188496D01*
X618058Y1186475D01*
X618580Y1184393D01*
X618895Y1182269D01*
X619000Y1180125D01*
X619000Y1136375D01*
X618895Y1134231D01*
X618580Y1132107D01*
X618058Y1130025D01*
X617335Y1128004D01*
X616417Y1126063D01*
X615313Y1124222D01*
X614035Y1122498D01*
X612593Y1120907D01*
X611002Y1119465D01*
X609278Y1118187D01*
X607437Y1117083D01*
X605496Y1116165D01*
X603475Y1115442D01*
X601393Y1114920D01*
X599269Y1114605D01*
X597125Y1114500D01*
X545875Y1114500D01*
X543731Y1114605D01*
X541607Y1114920D01*
X539525Y1115442D01*
X537504Y1116165D01*
X535563Y1117083D01*
X533722Y1118187D01*
X531998Y1119465D01*
X530407Y1120907D01*
X528965Y1122498D01*
X527687Y1124222D01*
X526583Y1126063D01*
X525665Y1128004D01*
X524942Y1130025D01*
X524420Y1132107D01*
X524105Y1134231D01*
X524000Y1136375D01*
X524000Y1180125D01*
X524105Y1182269D01*
X524420Y1184393D01*
X524942Y1186475D01*
X525665Y1188496D01*
X526583Y1190437D01*
X527687Y1192278D01*
X528965Y1194002D01*
X530407Y1195593D01*
X531998Y1197035D01*
X533722Y1198313D01*
X535563Y1199417D01*
X537504Y1200335D01*
X539525Y1201058D01*
X541607Y1201580D01*
X543731Y1201895D01*
X545875Y1202000D01*
X597125Y1202000D01*
X599269Y1201895D01*
G37*
G36*
X262769Y1761895D02*
G01*
X264893Y1761580D01*
X266975Y1761058D01*
X268996Y1760335D01*
X270937Y1759417D01*
X272778Y1758313D01*
X274502Y1757035D01*
X276093Y1755593D01*
X277535Y1754002D01*
X278813Y1752278D01*
X279917Y1750437D01*
X280835Y1748496D01*
X281558Y1746475D01*
X282080Y1744393D01*
X282395Y1742269D01*
X282500Y1740125D01*
X282500Y1688875D01*
X282395Y1686731D01*
X282080Y1684607D01*
X281558Y1682525D01*
X280835Y1680504D01*
X279917Y1678563D01*
X278813Y1676722D01*
X277535Y1674998D01*
X276093Y1673407D01*
X274502Y1671965D01*
X272778Y1670687D01*
X270937Y1669583D01*
X268996Y1668665D01*
X266975Y1667942D01*
X264893Y1667420D01*
X262769Y1667105D01*
X260625Y1667000D01*
X216875Y1667000D01*
X214731Y1667105D01*
X212607Y1667420D01*
X210525Y1667942D01*
X208504Y1668665D01*
X206563Y1669583D01*
X204722Y1670687D01*
X202998Y1671965D01*
X201407Y1673407D01*
X199965Y1674998D01*
X198687Y1676722D01*
X197583Y1678563D01*
X196665Y1680504D01*
X195942Y1682525D01*
X195420Y1684607D01*
X195105Y1686731D01*
X195000Y1688875D01*
X195000Y1740125D01*
X195105Y1742269D01*
X195420Y1744393D01*
X195942Y1746475D01*
X196665Y1748496D01*
X197583Y1750437D01*
X198687Y1752278D01*
X199965Y1754002D01*
X201407Y1755593D01*
X202998Y1757035D01*
X204722Y1758313D01*
X206563Y1759417D01*
X208504Y1760335D01*
X210525Y1761058D01*
X212607Y1761580D01*
X214731Y1761895D01*
X216875Y1762000D01*
X260625Y1762000D01*
X262769Y1761895D01*
G37*
G36*
X420269Y1761895D02*
G01*
X422393Y1761580D01*
X424475Y1761058D01*
X426496Y1760335D01*
X428437Y1759417D01*
X430278Y1758313D01*
X432002Y1757035D01*
X433593Y1755593D01*
X435035Y1754002D01*
X436313Y1752278D01*
X437417Y1750437D01*
X438335Y1748496D01*
X439058Y1746475D01*
X439580Y1744393D01*
X439895Y1742269D01*
X440000Y1740125D01*
X440000Y1688875D01*
X439895Y1686731D01*
X439580Y1684607D01*
X439058Y1682525D01*
X438335Y1680504D01*
X437417Y1678563D01*
X436313Y1676722D01*
X435035Y1674998D01*
X433593Y1673407D01*
X432002Y1671965D01*
X430278Y1670687D01*
X428437Y1669583D01*
X426496Y1668665D01*
X424475Y1667942D01*
X422393Y1667420D01*
X420269Y1667105D01*
X418125Y1667000D01*
X374375Y1667000D01*
X372231Y1667105D01*
X370107Y1667420D01*
X368025Y1667942D01*
X366004Y1668665D01*
X364063Y1669583D01*
X362222Y1670687D01*
X360498Y1671965D01*
X358907Y1673407D01*
X357465Y1674998D01*
X356187Y1676722D01*
X355083Y1678563D01*
X354165Y1680504D01*
X353442Y1682525D01*
X352920Y1684607D01*
X352605Y1686731D01*
X352500Y1688875D01*
X352500Y1740125D01*
X352605Y1742269D01*
X352920Y1744393D01*
X353442Y1746475D01*
X354165Y1748496D01*
X355083Y1750437D01*
X356187Y1752278D01*
X357465Y1754002D01*
X358907Y1755593D01*
X360498Y1757035D01*
X362222Y1758313D01*
X364063Y1759417D01*
X366004Y1760335D01*
X368025Y1761058D01*
X370107Y1761580D01*
X372231Y1761895D01*
X374375Y1762000D01*
X418125Y1762000D01*
X420269Y1761895D01*
G37*
G36*
X1309269Y1380895D02*
G01*
X1311393Y1380580D01*
X1313475Y1380058D01*
X1315496Y1379335D01*
X1317437Y1378417D01*
X1319278Y1377313D01*
X1321002Y1376035D01*
X1322593Y1374593D01*
X1324035Y1373002D01*
X1325313Y1371278D01*
X1326417Y1369437D01*
X1327335Y1367496D01*
X1328058Y1365475D01*
X1328580Y1363393D01*
X1328895Y1361269D01*
X1329000Y1359125D01*
X1329000Y1307875D01*
X1328895Y1305731D01*
X1328580Y1303607D01*
X1328058Y1301525D01*
X1327335Y1299504D01*
X1326417Y1297563D01*
X1325313Y1295722D01*
X1324035Y1293998D01*
X1322593Y1292407D01*
X1321002Y1290965D01*
X1319278Y1289687D01*
X1317437Y1288583D01*
X1315496Y1287665D01*
X1313475Y1286942D01*
X1311393Y1286420D01*
X1309269Y1286105D01*
X1307125Y1286000D01*
X1263375Y1286000D01*
X1261231Y1286105D01*
X1259107Y1286420D01*
X1257025Y1286942D01*
X1255004Y1287665D01*
X1253063Y1288583D01*
X1251222Y1289687D01*
X1249498Y1290965D01*
X1247907Y1292407D01*
X1246465Y1293998D01*
X1245187Y1295722D01*
X1244083Y1297563D01*
X1243165Y1299504D01*
X1242442Y1301525D01*
X1241920Y1303607D01*
X1241605Y1305731D01*
X1241500Y1307875D01*
X1241500Y1359125D01*
X1241605Y1361269D01*
X1241920Y1363393D01*
X1242442Y1365475D01*
X1243165Y1367496D01*
X1244083Y1369437D01*
X1245187Y1371278D01*
X1246465Y1373002D01*
X1247907Y1374593D01*
X1249498Y1376035D01*
X1251222Y1377313D01*
X1253063Y1378417D01*
X1255004Y1379335D01*
X1257025Y1380058D01*
X1259107Y1380580D01*
X1261231Y1380895D01*
X1263375Y1381000D01*
X1307125Y1381000D01*
X1309269Y1380895D01*
G37*
G36*
X1151769Y1380895D02*
G01*
X1153893Y1380580D01*
X1155975Y1380058D01*
X1157996Y1379335D01*
X1159937Y1378417D01*
X1161778Y1377313D01*
X1163502Y1376035D01*
X1165093Y1374593D01*
X1166535Y1373002D01*
X1167813Y1371278D01*
X1168917Y1369437D01*
X1169835Y1367496D01*
X1170558Y1365475D01*
X1171080Y1363393D01*
X1171395Y1361269D01*
X1171500Y1359125D01*
X1171500Y1307875D01*
X1171395Y1305731D01*
X1171080Y1303607D01*
X1170558Y1301525D01*
X1169835Y1299504D01*
X1168917Y1297563D01*
X1167813Y1295722D01*
X1166535Y1293998D01*
X1165093Y1292407D01*
X1163502Y1290965D01*
X1161778Y1289687D01*
X1159937Y1288583D01*
X1157996Y1287665D01*
X1155975Y1286942D01*
X1153893Y1286420D01*
X1151769Y1286105D01*
X1149625Y1286000D01*
X1105875Y1286000D01*
X1103731Y1286105D01*
X1101607Y1286420D01*
X1099525Y1286942D01*
X1097504Y1287665D01*
X1095563Y1288583D01*
X1093722Y1289687D01*
X1091998Y1290965D01*
X1090407Y1292407D01*
X1088965Y1293998D01*
X1087687Y1295722D01*
X1086583Y1297563D01*
X1085665Y1299504D01*
X1084942Y1301525D01*
X1084420Y1303607D01*
X1084105Y1305731D01*
X1084000Y1307875D01*
X1084000Y1359125D01*
X1084105Y1361269D01*
X1084420Y1363393D01*
X1084942Y1365475D01*
X1085665Y1367496D01*
X1086583Y1369437D01*
X1087687Y1371278D01*
X1088965Y1373002D01*
X1090407Y1374593D01*
X1091998Y1376035D01*
X1093722Y1377313D01*
X1095563Y1378417D01*
X1097504Y1379335D01*
X1099525Y1380058D01*
X1101607Y1380580D01*
X1103731Y1380895D01*
X1105875Y1381000D01*
X1149625Y1381000D01*
X1151769Y1380895D01*
G37*
G36*
X1151769Y1571395D02*
G01*
X1153893Y1571080D01*
X1155975Y1570558D01*
X1157996Y1569835D01*
X1159937Y1568917D01*
X1161778Y1567813D01*
X1163502Y1566535D01*
X1165093Y1565093D01*
X1166535Y1563502D01*
X1167813Y1561778D01*
X1168917Y1559937D01*
X1169835Y1557996D01*
X1170558Y1555975D01*
X1171080Y1553893D01*
X1171395Y1551769D01*
X1171500Y1549625D01*
X1171500Y1498375D01*
X1171395Y1496231D01*
X1171080Y1494107D01*
X1170558Y1492025D01*
X1169835Y1490004D01*
X1168917Y1488063D01*
X1167813Y1486222D01*
X1166535Y1484498D01*
X1165093Y1482907D01*
X1163502Y1481465D01*
X1161778Y1480187D01*
X1159937Y1479083D01*
X1157996Y1478165D01*
X1155975Y1477442D01*
X1153893Y1476920D01*
X1151769Y1476605D01*
X1149625Y1476500D01*
X1105875Y1476500D01*
X1103731Y1476605D01*
X1101607Y1476920D01*
X1099525Y1477442D01*
X1097504Y1478165D01*
X1095563Y1479083D01*
X1093722Y1480187D01*
X1091998Y1481465D01*
X1090407Y1482907D01*
X1088965Y1484498D01*
X1087687Y1486222D01*
X1086583Y1488063D01*
X1085665Y1490004D01*
X1084942Y1492025D01*
X1084420Y1494107D01*
X1084105Y1496231D01*
X1084000Y1498375D01*
X1084000Y1549625D01*
X1084105Y1551769D01*
X1084420Y1553893D01*
X1084942Y1555975D01*
X1085665Y1557996D01*
X1086583Y1559937D01*
X1087687Y1561778D01*
X1088965Y1563502D01*
X1090407Y1565093D01*
X1091998Y1566535D01*
X1093722Y1567813D01*
X1095563Y1568917D01*
X1097504Y1569835D01*
X1099525Y1570558D01*
X1101607Y1571080D01*
X1103731Y1571395D01*
X1105875Y1571500D01*
X1149625Y1571500D01*
X1151769Y1571395D01*
G37*
G36*
X1309269Y1571395D02*
G01*
X1311393Y1571080D01*
X1313475Y1570558D01*
X1315496Y1569835D01*
X1317437Y1568917D01*
X1319278Y1567813D01*
X1321002Y1566535D01*
X1322593Y1565093D01*
X1324035Y1563502D01*
X1325313Y1561778D01*
X1326417Y1559937D01*
X1327335Y1557996D01*
X1328058Y1555975D01*
X1328580Y1553893D01*
X1328895Y1551769D01*
X1329000Y1549625D01*
X1329000Y1498375D01*
X1328895Y1496231D01*
X1328580Y1494107D01*
X1328058Y1492025D01*
X1327335Y1490004D01*
X1326417Y1488063D01*
X1325313Y1486222D01*
X1324035Y1484498D01*
X1322593Y1482907D01*
X1321002Y1481465D01*
X1319278Y1480187D01*
X1317437Y1479083D01*
X1315496Y1478165D01*
X1313475Y1477442D01*
X1311393Y1476920D01*
X1309269Y1476605D01*
X1307125Y1476500D01*
X1263375Y1476500D01*
X1261231Y1476605D01*
X1259107Y1476920D01*
X1257025Y1477442D01*
X1255004Y1478165D01*
X1253063Y1479083D01*
X1251222Y1480187D01*
X1249498Y1481465D01*
X1247907Y1482907D01*
X1246465Y1484498D01*
X1245187Y1486222D01*
X1244083Y1488063D01*
X1243165Y1490004D01*
X1242442Y1492025D01*
X1241920Y1494107D01*
X1241605Y1496231D01*
X1241500Y1498375D01*
X1241500Y1549625D01*
X1241605Y1551769D01*
X1241920Y1553893D01*
X1242442Y1555975D01*
X1243165Y1557996D01*
X1244083Y1559937D01*
X1245187Y1561778D01*
X1246465Y1563502D01*
X1247907Y1565093D01*
X1249498Y1566535D01*
X1251222Y1567813D01*
X1253063Y1568917D01*
X1255004Y1569835D01*
X1257025Y1570558D01*
X1259107Y1571080D01*
X1261231Y1571395D01*
X1263375Y1571500D01*
X1307125Y1571500D01*
X1309269Y1571395D01*
G37*
G36*
X420269Y1571395D02*
G01*
X422393Y1571080D01*
X424475Y1570558D01*
X426496Y1569835D01*
X428437Y1568917D01*
X430278Y1567813D01*
X432002Y1566535D01*
X433593Y1565093D01*
X435035Y1563502D01*
X436313Y1561778D01*
X437417Y1559937D01*
X438335Y1557996D01*
X439058Y1555975D01*
X439580Y1553893D01*
X439895Y1551769D01*
X440000Y1549625D01*
X440000Y1498375D01*
X439895Y1496231D01*
X439580Y1494107D01*
X439058Y1492025D01*
X438335Y1490004D01*
X437417Y1488063D01*
X436313Y1486222D01*
X435035Y1484498D01*
X433593Y1482907D01*
X432002Y1481465D01*
X430278Y1480187D01*
X428437Y1479083D01*
X426496Y1478165D01*
X424475Y1477442D01*
X422393Y1476920D01*
X420269Y1476605D01*
X418125Y1476500D01*
X374375Y1476500D01*
X372231Y1476605D01*
X370107Y1476920D01*
X368025Y1477442D01*
X366004Y1478165D01*
X364063Y1479083D01*
X362222Y1480187D01*
X360498Y1481465D01*
X358907Y1482907D01*
X357465Y1484498D01*
X356187Y1486222D01*
X355083Y1488063D01*
X354165Y1490004D01*
X353442Y1492025D01*
X352920Y1494107D01*
X352605Y1496231D01*
X352500Y1498375D01*
X352500Y1549625D01*
X352605Y1551769D01*
X352920Y1553893D01*
X353442Y1555975D01*
X354165Y1557996D01*
X355083Y1559937D01*
X356187Y1561778D01*
X357465Y1563502D01*
X358907Y1565093D01*
X360498Y1566535D01*
X362222Y1567813D01*
X364063Y1568917D01*
X366004Y1569835D01*
X368025Y1570558D01*
X370107Y1571080D01*
X372231Y1571395D01*
X374375Y1571500D01*
X418125Y1571500D01*
X420269Y1571395D01*
G37*
G36*
X262769Y1571395D02*
G01*
X264893Y1571080D01*
X266975Y1570558D01*
X268996Y1569835D01*
X270937Y1568917D01*
X272778Y1567813D01*
X274502Y1566535D01*
X276093Y1565093D01*
X277535Y1563502D01*
X278813Y1561778D01*
X279917Y1559937D01*
X280835Y1557996D01*
X281558Y1555975D01*
X282080Y1553893D01*
X282395Y1551769D01*
X282500Y1549625D01*
X282500Y1498375D01*
X282395Y1496231D01*
X282080Y1494107D01*
X281558Y1492025D01*
X280835Y1490004D01*
X279917Y1488063D01*
X278813Y1486222D01*
X277535Y1484498D01*
X276093Y1482907D01*
X274502Y1481465D01*
X272778Y1480187D01*
X270937Y1479083D01*
X268996Y1478165D01*
X266975Y1477442D01*
X264893Y1476920D01*
X262769Y1476605D01*
X260625Y1476500D01*
X216875Y1476500D01*
X214731Y1476605D01*
X212607Y1476920D01*
X210525Y1477442D01*
X208504Y1478165D01*
X206563Y1479083D01*
X204722Y1480187D01*
X202998Y1481465D01*
X201407Y1482907D01*
X199965Y1484498D01*
X198687Y1486222D01*
X197583Y1488063D01*
X196665Y1490004D01*
X195942Y1492025D01*
X195420Y1494107D01*
X195105Y1496231D01*
X195000Y1498375D01*
X195000Y1549625D01*
X195105Y1551769D01*
X195420Y1553893D01*
X195942Y1555975D01*
X196665Y1557996D01*
X197583Y1559937D01*
X198687Y1561778D01*
X199965Y1563502D01*
X201407Y1565093D01*
X202998Y1566535D01*
X204722Y1567813D01*
X206563Y1568917D01*
X208504Y1569835D01*
X210525Y1570558D01*
X212607Y1571080D01*
X214731Y1571395D01*
X216875Y1571500D01*
X260625Y1571500D01*
X262769Y1571395D01*
G37*
G36*
X262769Y1380895D02*
G01*
X264893Y1380580D01*
X266975Y1380058D01*
X268996Y1379335D01*
X270937Y1378417D01*
X272778Y1377313D01*
X274502Y1376035D01*
X276093Y1374593D01*
X277535Y1373002D01*
X278813Y1371278D01*
X279917Y1369437D01*
X280835Y1367496D01*
X281558Y1365475D01*
X282080Y1363393D01*
X282395Y1361269D01*
X282500Y1359125D01*
X282500Y1307875D01*
X282395Y1305731D01*
X282080Y1303607D01*
X281558Y1301525D01*
X280835Y1299504D01*
X279917Y1297563D01*
X278813Y1295722D01*
X277535Y1293998D01*
X276093Y1292407D01*
X274502Y1290965D01*
X272778Y1289687D01*
X270937Y1288583D01*
X268996Y1287665D01*
X266975Y1286942D01*
X264893Y1286420D01*
X262769Y1286105D01*
X260625Y1286000D01*
X216875Y1286000D01*
X214731Y1286105D01*
X212607Y1286420D01*
X210525Y1286942D01*
X208504Y1287665D01*
X206563Y1288583D01*
X204722Y1289687D01*
X202998Y1290965D01*
X201407Y1292407D01*
X199965Y1293998D01*
X198687Y1295722D01*
X197583Y1297563D01*
X196665Y1299504D01*
X195942Y1301525D01*
X195420Y1303607D01*
X195105Y1305731D01*
X195000Y1307875D01*
X195000Y1359125D01*
X195105Y1361269D01*
X195420Y1363393D01*
X195942Y1365475D01*
X196665Y1367496D01*
X197583Y1369437D01*
X198687Y1371278D01*
X199965Y1373002D01*
X201407Y1374593D01*
X202998Y1376035D01*
X204722Y1377313D01*
X206563Y1378417D01*
X208504Y1379335D01*
X210525Y1380058D01*
X212607Y1380580D01*
X214731Y1380895D01*
X216875Y1381000D01*
X260625Y1381000D01*
X262769Y1380895D01*
G37*
G36*
X420269Y1380895D02*
G01*
X422393Y1380580D01*
X424475Y1380058D01*
X426496Y1379335D01*
X428437Y1378417D01*
X430278Y1377313D01*
X432002Y1376035D01*
X433593Y1374593D01*
X435035Y1373002D01*
X436313Y1371278D01*
X437417Y1369437D01*
X438335Y1367496D01*
X439058Y1365475D01*
X439580Y1363393D01*
X439895Y1361269D01*
X440000Y1359125D01*
X440000Y1307875D01*
X439895Y1305731D01*
X439580Y1303607D01*
X439058Y1301525D01*
X438335Y1299504D01*
X437417Y1297563D01*
X436313Y1295722D01*
X435035Y1293998D01*
X433593Y1292407D01*
X432002Y1290965D01*
X430278Y1289687D01*
X428437Y1288583D01*
X426496Y1287665D01*
X424475Y1286942D01*
X422393Y1286420D01*
X420269Y1286105D01*
X418125Y1286000D01*
X374375Y1286000D01*
X372231Y1286105D01*
X370107Y1286420D01*
X368025Y1286942D01*
X366004Y1287665D01*
X364063Y1288583D01*
X362222Y1289687D01*
X360498Y1290965D01*
X358907Y1292407D01*
X357465Y1293998D01*
X356187Y1295722D01*
X355083Y1297563D01*
X354165Y1299504D01*
X353442Y1301525D01*
X352920Y1303607D01*
X352605Y1305731D01*
X352500Y1307875D01*
X352500Y1359125D01*
X352605Y1361269D01*
X352920Y1363393D01*
X353442Y1365475D01*
X354165Y1367496D01*
X355083Y1369437D01*
X356187Y1371278D01*
X357465Y1373002D01*
X358907Y1374593D01*
X360498Y1376035D01*
X362222Y1377313D01*
X364063Y1378417D01*
X366004Y1379335D01*
X368025Y1380058D01*
X370107Y1380580D01*
X372231Y1380895D01*
X374375Y1381000D01*
X418125Y1381000D01*
X420269Y1380895D01*
G37*
G36*
X707269Y1380895D02*
G01*
X709393Y1380580D01*
X711475Y1380058D01*
X713496Y1379335D01*
X715437Y1378417D01*
X717278Y1377313D01*
X719002Y1376035D01*
X720593Y1374593D01*
X722035Y1373002D01*
X723313Y1371278D01*
X724417Y1369437D01*
X725335Y1367496D01*
X726058Y1365475D01*
X726580Y1363393D01*
X726895Y1361269D01*
X727000Y1359125D01*
X727000Y1307875D01*
X726895Y1305731D01*
X726580Y1303607D01*
X726058Y1301525D01*
X725335Y1299504D01*
X724417Y1297563D01*
X723313Y1295722D01*
X722035Y1293998D01*
X720593Y1292407D01*
X719002Y1290965D01*
X717278Y1289687D01*
X715437Y1288583D01*
X713496Y1287665D01*
X711475Y1286942D01*
X709393Y1286420D01*
X707269Y1286105D01*
X705125Y1286000D01*
X661375Y1286000D01*
X659231Y1286105D01*
X657107Y1286420D01*
X655025Y1286942D01*
X653004Y1287665D01*
X651063Y1288583D01*
X649222Y1289687D01*
X647498Y1290965D01*
X645907Y1292407D01*
X644465Y1293998D01*
X643187Y1295722D01*
X642083Y1297563D01*
X641165Y1299504D01*
X640442Y1301525D01*
X639920Y1303607D01*
X639605Y1305731D01*
X639500Y1307875D01*
X639500Y1359125D01*
X639605Y1361269D01*
X639920Y1363393D01*
X640442Y1365475D01*
X641165Y1367496D01*
X642083Y1369437D01*
X643187Y1371278D01*
X644465Y1373002D01*
X645907Y1374593D01*
X647498Y1376035D01*
X649222Y1377313D01*
X651063Y1378417D01*
X653004Y1379335D01*
X655025Y1380058D01*
X657107Y1380580D01*
X659231Y1380895D01*
X661375Y1381000D01*
X705125Y1381000D01*
X707269Y1380895D01*
G37*
G36*
X864769Y1380895D02*
G01*
X866893Y1380580D01*
X868975Y1380058D01*
X870996Y1379335D01*
X872937Y1378417D01*
X874778Y1377313D01*
X876502Y1376035D01*
X878093Y1374593D01*
X879535Y1373002D01*
X880813Y1371278D01*
X881917Y1369437D01*
X882835Y1367496D01*
X883558Y1365475D01*
X884080Y1363393D01*
X884395Y1361269D01*
X884500Y1359125D01*
X884500Y1307875D01*
X884395Y1305731D01*
X884080Y1303607D01*
X883558Y1301525D01*
X882835Y1299504D01*
X881917Y1297563D01*
X880813Y1295722D01*
X879535Y1293998D01*
X878093Y1292407D01*
X876502Y1290965D01*
X874778Y1289687D01*
X872937Y1288583D01*
X870996Y1287665D01*
X868975Y1286942D01*
X866893Y1286420D01*
X864769Y1286105D01*
X862625Y1286000D01*
X818875Y1286000D01*
X816731Y1286105D01*
X814607Y1286420D01*
X812525Y1286942D01*
X810504Y1287665D01*
X808563Y1288583D01*
X806722Y1289687D01*
X804998Y1290965D01*
X803407Y1292407D01*
X801965Y1293998D01*
X800687Y1295722D01*
X799583Y1297563D01*
X798665Y1299504D01*
X797942Y1301525D01*
X797420Y1303607D01*
X797105Y1305731D01*
X797000Y1307875D01*
X797000Y1359125D01*
X797105Y1361269D01*
X797420Y1363393D01*
X797942Y1365475D01*
X798665Y1367496D01*
X799583Y1369437D01*
X800687Y1371278D01*
X801965Y1373002D01*
X803407Y1374593D01*
X804998Y1376035D01*
X806722Y1377313D01*
X808563Y1378417D01*
X810504Y1379335D01*
X812525Y1380058D01*
X814607Y1380580D01*
X816731Y1380895D01*
X818875Y1381000D01*
X862625Y1381000D01*
X864769Y1380895D01*
G37*
G36*
X1373969Y2598895D02*
G01*
X1376093Y2598580D01*
X1378175Y2598058D01*
X1380196Y2597335D01*
X1382137Y2596417D01*
X1383978Y2595313D01*
X1385702Y2594035D01*
X1387293Y2592593D01*
X1388735Y2591002D01*
X1390013Y2589278D01*
X1391117Y2587437D01*
X1392035Y2585496D01*
X1392758Y2583475D01*
X1393280Y2581393D01*
X1393595Y2579269D01*
X1393700Y2577125D01*
X1393700Y2533375D01*
X1393595Y2531231D01*
X1393280Y2529107D01*
X1392758Y2527025D01*
X1392035Y2525004D01*
X1391117Y2523063D01*
X1390013Y2521222D01*
X1388735Y2519498D01*
X1387293Y2517907D01*
X1385702Y2516465D01*
X1383978Y2515187D01*
X1382137Y2514083D01*
X1380196Y2513165D01*
X1378175Y2512442D01*
X1376093Y2511920D01*
X1373969Y2511605D01*
X1371825Y2511500D01*
X1320575Y2511500D01*
X1318431Y2511605D01*
X1316307Y2511920D01*
X1314225Y2512442D01*
X1312204Y2513165D01*
X1310263Y2514083D01*
X1308422Y2515187D01*
X1306698Y2516465D01*
X1305107Y2517907D01*
X1303665Y2519498D01*
X1302387Y2521222D01*
X1301283Y2523063D01*
X1300365Y2525004D01*
X1299642Y2527025D01*
X1299120Y2529107D01*
X1298805Y2531231D01*
X1298700Y2533375D01*
X1298700Y2577125D01*
X1298805Y2579269D01*
X1299120Y2581393D01*
X1299642Y2583475D01*
X1300365Y2585496D01*
X1301283Y2587437D01*
X1302387Y2589278D01*
X1303665Y2591002D01*
X1305107Y2592593D01*
X1306698Y2594035D01*
X1308422Y2595313D01*
X1310263Y2596417D01*
X1312204Y2597335D01*
X1314225Y2598058D01*
X1316307Y2598580D01*
X1318431Y2598895D01*
X1320575Y2599000D01*
X1371825Y2599000D01*
X1373969Y2598895D01*
G37*
G36*
X1373969Y2441395D02*
G01*
X1376093Y2441080D01*
X1378175Y2440558D01*
X1380196Y2439835D01*
X1382137Y2438917D01*
X1383978Y2437813D01*
X1385702Y2436535D01*
X1387293Y2435093D01*
X1388735Y2433502D01*
X1390013Y2431778D01*
X1391117Y2429937D01*
X1392035Y2427996D01*
X1392758Y2425975D01*
X1393280Y2423893D01*
X1393595Y2421769D01*
X1393700Y2419625D01*
X1393700Y2375875D01*
X1393595Y2373731D01*
X1393280Y2371607D01*
X1392758Y2369525D01*
X1392035Y2367504D01*
X1391117Y2365563D01*
X1390013Y2363722D01*
X1388735Y2361998D01*
X1387293Y2360407D01*
X1385702Y2358965D01*
X1383978Y2357687D01*
X1382137Y2356583D01*
X1380196Y2355665D01*
X1378175Y2354942D01*
X1376093Y2354420D01*
X1373969Y2354105D01*
X1371825Y2354000D01*
X1320575Y2354000D01*
X1318431Y2354105D01*
X1316307Y2354420D01*
X1314225Y2354942D01*
X1312204Y2355665D01*
X1310263Y2356583D01*
X1308422Y2357687D01*
X1306698Y2358965D01*
X1305107Y2360407D01*
X1303665Y2361998D01*
X1302387Y2363722D01*
X1301283Y2365563D01*
X1300365Y2367504D01*
X1299642Y2369525D01*
X1299120Y2371607D01*
X1298805Y2373731D01*
X1298700Y2375875D01*
X1298700Y2419625D01*
X1298805Y2421769D01*
X1299120Y2423893D01*
X1299642Y2425975D01*
X1300365Y2427996D01*
X1301283Y2429937D01*
X1302387Y2431778D01*
X1303665Y2433502D01*
X1305107Y2435093D01*
X1306698Y2436535D01*
X1308422Y2437813D01*
X1310263Y2438917D01*
X1312204Y2439835D01*
X1314225Y2440558D01*
X1316307Y2441080D01*
X1318431Y2441395D01*
X1320575Y2441500D01*
X1371825Y2441500D01*
X1373969Y2441395D01*
G37*
G36*
X991608Y1829458D02*
G01*
X992457Y1829332D01*
X993290Y1829123D01*
X994098Y1828834D01*
X994875Y1828467D01*
X995611Y1828025D01*
X996301Y1827514D01*
X996937Y1826937D01*
X997514Y1826301D01*
X998025Y1825611D01*
X998467Y1824875D01*
X998834Y1824098D01*
X999123Y1823290D01*
X999332Y1822457D01*
X999458Y1821608D01*
X999500Y1820750D01*
X999500Y1803250D01*
X999458Y1802392D01*
X999332Y1801543D01*
X999123Y1800710D01*
X998834Y1799901D01*
X998467Y1799125D01*
X998025Y1798389D01*
X997514Y1797699D01*
X996937Y1797063D01*
X996301Y1796486D01*
X995611Y1795975D01*
X994875Y1795533D01*
X994098Y1795166D01*
X993290Y1794877D01*
X992457Y1794668D01*
X991608Y1794542D01*
X990750Y1794500D01*
X925750Y1794500D01*
X924892Y1794542D01*
X924043Y1794668D01*
X923210Y1794877D01*
X922401Y1795166D01*
X921625Y1795533D01*
X920889Y1795975D01*
X920199Y1796486D01*
X919563Y1797063D01*
X918986Y1797699D01*
X918475Y1798389D01*
X918033Y1799125D01*
X917666Y1799901D01*
X917377Y1800710D01*
X917168Y1801543D01*
X917042Y1802392D01*
X917000Y1803250D01*
X917000Y1820750D01*
X917042Y1821608D01*
X917168Y1822457D01*
X917377Y1823290D01*
X917666Y1824098D01*
X918033Y1824875D01*
X918475Y1825611D01*
X918986Y1826301D01*
X919563Y1826937D01*
X920199Y1827514D01*
X920889Y1828025D01*
X921625Y1828467D01*
X922401Y1828834D01*
X923210Y1829123D01*
X924043Y1829332D01*
X924892Y1829458D01*
X925750Y1829500D01*
X990750Y1829500D01*
X991608Y1829458D01*
G37*
G36*
X991608Y1764458D02*
G01*
X992457Y1764332D01*
X993290Y1764123D01*
X994098Y1763834D01*
X994875Y1763467D01*
X995611Y1763025D01*
X996301Y1762514D01*
X996937Y1761937D01*
X997514Y1761301D01*
X998025Y1760611D01*
X998467Y1759875D01*
X998834Y1759098D01*
X999123Y1758290D01*
X999332Y1757457D01*
X999458Y1756608D01*
X999500Y1755750D01*
X999500Y1738250D01*
X999458Y1737392D01*
X999332Y1736543D01*
X999123Y1735710D01*
X998834Y1734901D01*
X998467Y1734125D01*
X998025Y1733389D01*
X997514Y1732699D01*
X996937Y1732063D01*
X996301Y1731486D01*
X995611Y1730975D01*
X994875Y1730533D01*
X994098Y1730166D01*
X993290Y1729877D01*
X992457Y1729668D01*
X991608Y1729542D01*
X990750Y1729500D01*
X925750Y1729500D01*
X924892Y1729542D01*
X924043Y1729668D01*
X923210Y1729877D01*
X922401Y1730166D01*
X921625Y1730533D01*
X920889Y1730975D01*
X920199Y1731486D01*
X919563Y1732063D01*
X918986Y1732699D01*
X918475Y1733389D01*
X918033Y1734125D01*
X917666Y1734901D01*
X917377Y1735710D01*
X917168Y1736543D01*
X917042Y1737392D01*
X917000Y1738250D01*
X917000Y1755750D01*
X917042Y1756608D01*
X917168Y1757457D01*
X917377Y1758290D01*
X917666Y1759098D01*
X918033Y1759875D01*
X918475Y1760611D01*
X918986Y1761301D01*
X919563Y1761937D01*
X920199Y1762514D01*
X920889Y1763025D01*
X921625Y1763467D01*
X922401Y1763834D01*
X923210Y1764123D01*
X924043Y1764332D01*
X924892Y1764458D01*
X925750Y1764500D01*
X990750Y1764500D01*
X991608Y1764458D01*
G37*
G36*
X991608Y1699458D02*
G01*
X992457Y1699332D01*
X993290Y1699123D01*
X994098Y1698834D01*
X994875Y1698467D01*
X995611Y1698025D01*
X996301Y1697514D01*
X996937Y1696937D01*
X997514Y1696301D01*
X998025Y1695611D01*
X998467Y1694875D01*
X998834Y1694098D01*
X999123Y1693290D01*
X999332Y1692457D01*
X999458Y1691608D01*
X999500Y1690750D01*
X999500Y1673250D01*
X999458Y1672392D01*
X999332Y1671543D01*
X999123Y1670710D01*
X998834Y1669901D01*
X998467Y1669125D01*
X998025Y1668389D01*
X997514Y1667699D01*
X996937Y1667063D01*
X996301Y1666486D01*
X995611Y1665975D01*
X994875Y1665533D01*
X994098Y1665166D01*
X993290Y1664877D01*
X992457Y1664668D01*
X991608Y1664542D01*
X990750Y1664500D01*
X925750Y1664500D01*
X924892Y1664542D01*
X924043Y1664668D01*
X923210Y1664877D01*
X922401Y1665166D01*
X921625Y1665533D01*
X920889Y1665975D01*
X920199Y1666486D01*
X919563Y1667063D01*
X918986Y1667699D01*
X918475Y1668389D01*
X918033Y1669125D01*
X917666Y1669901D01*
X917377Y1670710D01*
X917168Y1671543D01*
X917042Y1672392D01*
X917000Y1673250D01*
X917000Y1690750D01*
X917042Y1691608D01*
X917168Y1692457D01*
X917377Y1693290D01*
X917666Y1694098D01*
X918033Y1694875D01*
X918475Y1695611D01*
X918986Y1696301D01*
X919563Y1696937D01*
X920199Y1697514D01*
X920889Y1698025D01*
X921625Y1698467D01*
X922401Y1698834D01*
X923210Y1699123D01*
X924043Y1699332D01*
X924892Y1699458D01*
X925750Y1699500D01*
X990750Y1699500D01*
X991608Y1699458D01*
G37*
G36*
X991608Y1634458D02*
G01*
X992457Y1634332D01*
X993290Y1634123D01*
X994098Y1633834D01*
X994875Y1633467D01*
X995611Y1633025D01*
X996301Y1632514D01*
X996937Y1631937D01*
X997514Y1631301D01*
X998025Y1630611D01*
X998467Y1629875D01*
X998834Y1629098D01*
X999123Y1628290D01*
X999332Y1627457D01*
X999458Y1626608D01*
X999500Y1625750D01*
X999500Y1608250D01*
X999458Y1607392D01*
X999332Y1606543D01*
X999123Y1605710D01*
X998834Y1604901D01*
X998467Y1604125D01*
X998025Y1603389D01*
X997514Y1602699D01*
X996937Y1602063D01*
X996301Y1601486D01*
X995611Y1600975D01*
X994875Y1600533D01*
X994098Y1600166D01*
X993290Y1599877D01*
X992457Y1599668D01*
X991608Y1599542D01*
X990750Y1599500D01*
X925750Y1599500D01*
X924892Y1599542D01*
X924043Y1599668D01*
X923210Y1599877D01*
X922401Y1600166D01*
X921625Y1600533D01*
X920889Y1600975D01*
X920199Y1601486D01*
X919563Y1602063D01*
X918986Y1602699D01*
X918475Y1603389D01*
X918033Y1604125D01*
X917666Y1604901D01*
X917377Y1605710D01*
X917168Y1606543D01*
X917042Y1607392D01*
X917000Y1608250D01*
X917000Y1625750D01*
X917042Y1626608D01*
X917168Y1627457D01*
X917377Y1628290D01*
X917666Y1629098D01*
X918033Y1629875D01*
X918475Y1630611D01*
X918986Y1631301D01*
X919563Y1631937D01*
X920199Y1632514D01*
X920889Y1633025D01*
X921625Y1633467D01*
X922401Y1633834D01*
X923210Y1634123D01*
X924043Y1634332D01*
X924892Y1634458D01*
X925750Y1634500D01*
X990750Y1634500D01*
X991608Y1634458D01*
G37*
G36*
X869108Y1559458D02*
G01*
X869957Y1559332D01*
X870790Y1559123D01*
X871598Y1558834D01*
X872375Y1558467D01*
X873111Y1558025D01*
X873801Y1557514D01*
X874437Y1556937D01*
X875014Y1556301D01*
X875525Y1555611D01*
X875967Y1554875D01*
X876334Y1554098D01*
X876623Y1553290D01*
X876832Y1552457D01*
X876958Y1551608D01*
X877000Y1550750D01*
X877000Y1485750D01*
X876958Y1484892D01*
X876832Y1484043D01*
X876623Y1483210D01*
X876334Y1482401D01*
X875967Y1481625D01*
X875525Y1480889D01*
X875014Y1480199D01*
X874437Y1479563D01*
X873801Y1478986D01*
X873111Y1478475D01*
X872375Y1478033D01*
X871598Y1477666D01*
X870790Y1477377D01*
X869957Y1477168D01*
X869108Y1477042D01*
X868250Y1477000D01*
X850750Y1477000D01*
X849892Y1477042D01*
X849043Y1477168D01*
X848210Y1477377D01*
X847401Y1477666D01*
X846625Y1478033D01*
X845889Y1478475D01*
X845199Y1478986D01*
X844563Y1479563D01*
X843986Y1480199D01*
X843475Y1480889D01*
X843033Y1481625D01*
X842666Y1482401D01*
X842377Y1483210D01*
X842168Y1484043D01*
X842042Y1484892D01*
X842000Y1485750D01*
X842000Y1550750D01*
X842042Y1551608D01*
X842168Y1552457D01*
X842377Y1553290D01*
X842666Y1554098D01*
X843033Y1554875D01*
X843475Y1555611D01*
X843986Y1556301D01*
X844563Y1556937D01*
X845199Y1557514D01*
X845889Y1558025D01*
X846625Y1558467D01*
X847401Y1558834D01*
X848210Y1559123D01*
X849043Y1559332D01*
X849892Y1559458D01*
X850750Y1559500D01*
X868250Y1559500D01*
X869108Y1559458D01*
G37*
G36*
X804108Y1559458D02*
G01*
X804957Y1559332D01*
X805790Y1559123D01*
X806598Y1558834D01*
X807375Y1558467D01*
X808111Y1558025D01*
X808801Y1557514D01*
X809437Y1556937D01*
X810014Y1556301D01*
X810525Y1555611D01*
X810967Y1554875D01*
X811334Y1554098D01*
X811623Y1553290D01*
X811832Y1552457D01*
X811958Y1551608D01*
X812000Y1550750D01*
X812000Y1485750D01*
X811958Y1484892D01*
X811832Y1484043D01*
X811623Y1483210D01*
X811334Y1482401D01*
X810967Y1481625D01*
X810525Y1480889D01*
X810014Y1480199D01*
X809437Y1479563D01*
X808801Y1478986D01*
X808111Y1478475D01*
X807375Y1478033D01*
X806598Y1477666D01*
X805790Y1477377D01*
X804957Y1477168D01*
X804108Y1477042D01*
X803250Y1477000D01*
X785750Y1477000D01*
X784892Y1477042D01*
X784043Y1477168D01*
X783210Y1477377D01*
X782401Y1477666D01*
X781625Y1478033D01*
X780889Y1478475D01*
X780199Y1478986D01*
X779563Y1479563D01*
X778986Y1480199D01*
X778475Y1480889D01*
X778033Y1481625D01*
X777666Y1482401D01*
X777377Y1483210D01*
X777168Y1484043D01*
X777042Y1484892D01*
X777000Y1485750D01*
X777000Y1550750D01*
X777042Y1551608D01*
X777168Y1552457D01*
X777377Y1553290D01*
X777666Y1554098D01*
X778033Y1554875D01*
X778475Y1555611D01*
X778986Y1556301D01*
X779563Y1556937D01*
X780199Y1557514D01*
X780889Y1558025D01*
X781625Y1558467D01*
X782401Y1558834D01*
X783210Y1559123D01*
X784043Y1559332D01*
X784892Y1559458D01*
X785750Y1559500D01*
X803250Y1559500D01*
X804108Y1559458D01*
G37*
G36*
X739108Y1559458D02*
G01*
X739957Y1559332D01*
X740790Y1559123D01*
X741598Y1558834D01*
X742375Y1558467D01*
X743111Y1558025D01*
X743801Y1557514D01*
X744437Y1556937D01*
X745014Y1556301D01*
X745525Y1555611D01*
X745967Y1554875D01*
X746334Y1554098D01*
X746623Y1553290D01*
X746832Y1552457D01*
X746958Y1551608D01*
X747000Y1550750D01*
X747000Y1485750D01*
X746958Y1484892D01*
X746832Y1484043D01*
X746623Y1483210D01*
X746334Y1482401D01*
X745967Y1481625D01*
X745525Y1480889D01*
X745014Y1480199D01*
X744437Y1479563D01*
X743801Y1478986D01*
X743111Y1478475D01*
X742375Y1478033D01*
X741598Y1477666D01*
X740790Y1477377D01*
X739957Y1477168D01*
X739108Y1477042D01*
X738250Y1477000D01*
X720750Y1477000D01*
X719892Y1477042D01*
X719043Y1477168D01*
X718210Y1477377D01*
X717401Y1477666D01*
X716625Y1478033D01*
X715889Y1478475D01*
X715199Y1478986D01*
X714563Y1479563D01*
X713986Y1480199D01*
X713475Y1480889D01*
X713033Y1481625D01*
X712666Y1482401D01*
X712377Y1483210D01*
X712168Y1484043D01*
X712042Y1484892D01*
X712000Y1485750D01*
X712000Y1550750D01*
X712042Y1551608D01*
X712168Y1552457D01*
X712377Y1553290D01*
X712666Y1554098D01*
X713033Y1554875D01*
X713475Y1555611D01*
X713986Y1556301D01*
X714563Y1556937D01*
X715199Y1557514D01*
X715889Y1558025D01*
X716625Y1558467D01*
X717401Y1558834D01*
X718210Y1559123D01*
X719043Y1559332D01*
X719892Y1559458D01*
X720750Y1559500D01*
X738250Y1559500D01*
X739108Y1559458D01*
G37*
G36*
X674108Y1559458D02*
G01*
X674957Y1559332D01*
X675790Y1559123D01*
X676599Y1558834D01*
X677375Y1558467D01*
X678111Y1558025D01*
X678801Y1557514D01*
X679437Y1556937D01*
X680014Y1556301D01*
X680525Y1555611D01*
X680967Y1554875D01*
X681334Y1554098D01*
X681623Y1553290D01*
X681832Y1552457D01*
X681958Y1551608D01*
X682000Y1550750D01*
X682000Y1485750D01*
X681958Y1484892D01*
X681832Y1484043D01*
X681623Y1483210D01*
X681334Y1482401D01*
X680967Y1481625D01*
X680525Y1480889D01*
X680014Y1480199D01*
X679437Y1479563D01*
X678801Y1478986D01*
X678111Y1478475D01*
X677375Y1478033D01*
X676599Y1477666D01*
X675790Y1477377D01*
X674957Y1477168D01*
X674108Y1477042D01*
X673250Y1477000D01*
X655750Y1477000D01*
X654892Y1477042D01*
X654043Y1477168D01*
X653210Y1477377D01*
X652402Y1477666D01*
X651625Y1478033D01*
X650889Y1478475D01*
X650199Y1478986D01*
X649563Y1479563D01*
X648986Y1480199D01*
X648475Y1480889D01*
X648033Y1481625D01*
X647666Y1482401D01*
X647377Y1483210D01*
X647168Y1484043D01*
X647042Y1484892D01*
X647000Y1485750D01*
X647000Y1550750D01*
X647042Y1551608D01*
X647168Y1552457D01*
X647377Y1553290D01*
X647666Y1554098D01*
X648033Y1554875D01*
X648475Y1555611D01*
X648986Y1556301D01*
X649563Y1556937D01*
X650199Y1557514D01*
X650889Y1558025D01*
X651625Y1558467D01*
X652402Y1558834D01*
X653210Y1559123D01*
X654043Y1559332D01*
X654892Y1559458D01*
X655750Y1559500D01*
X673250Y1559500D01*
X674108Y1559458D01*
G37*
G36*
X599108Y1634458D02*
G01*
X599957Y1634332D01*
X600790Y1634123D01*
X601599Y1633834D01*
X602375Y1633467D01*
X603111Y1633025D01*
X603801Y1632514D01*
X604437Y1631937D01*
X605014Y1631301D01*
X605525Y1630611D01*
X605967Y1629875D01*
X606334Y1629098D01*
X606623Y1628290D01*
X606832Y1627457D01*
X606958Y1626608D01*
X607000Y1625750D01*
X607000Y1608250D01*
X606958Y1607392D01*
X606832Y1606543D01*
X606623Y1605710D01*
X606334Y1604901D01*
X605967Y1604125D01*
X605525Y1603389D01*
X605014Y1602699D01*
X604437Y1602063D01*
X603801Y1601486D01*
X603111Y1600975D01*
X602375Y1600533D01*
X601599Y1600166D01*
X600790Y1599877D01*
X599957Y1599668D01*
X599108Y1599542D01*
X598250Y1599500D01*
X533250Y1599500D01*
X532392Y1599542D01*
X531543Y1599668D01*
X530710Y1599877D01*
X529902Y1600166D01*
X529125Y1600533D01*
X528389Y1600975D01*
X527699Y1601486D01*
X527063Y1602063D01*
X526486Y1602699D01*
X525975Y1603389D01*
X525533Y1604125D01*
X525166Y1604901D01*
X524877Y1605710D01*
X524668Y1606543D01*
X524542Y1607392D01*
X524500Y1608250D01*
X524500Y1625750D01*
X524542Y1626608D01*
X524668Y1627457D01*
X524877Y1628290D01*
X525166Y1629098D01*
X525533Y1629875D01*
X525975Y1630611D01*
X526486Y1631301D01*
X527063Y1631937D01*
X527699Y1632514D01*
X528389Y1633025D01*
X529125Y1633467D01*
X529902Y1633834D01*
X530710Y1634123D01*
X531543Y1634332D01*
X532392Y1634458D01*
X533250Y1634500D01*
X598250Y1634500D01*
X599108Y1634458D01*
G37*
G36*
X599108Y1699458D02*
G01*
X599957Y1699332D01*
X600790Y1699123D01*
X601599Y1698834D01*
X602375Y1698467D01*
X603111Y1698025D01*
X603801Y1697514D01*
X604437Y1696937D01*
X605014Y1696301D01*
X605525Y1695611D01*
X605967Y1694875D01*
X606334Y1694098D01*
X606623Y1693290D01*
X606832Y1692457D01*
X606958Y1691608D01*
X607000Y1690750D01*
X607000Y1673250D01*
X606958Y1672392D01*
X606832Y1671543D01*
X606623Y1670710D01*
X606334Y1669901D01*
X605967Y1669125D01*
X605525Y1668389D01*
X605014Y1667699D01*
X604437Y1667063D01*
X603801Y1666486D01*
X603111Y1665975D01*
X602375Y1665533D01*
X601599Y1665166D01*
X600790Y1664877D01*
X599957Y1664668D01*
X599108Y1664542D01*
X598250Y1664500D01*
X533250Y1664500D01*
X532392Y1664542D01*
X531543Y1664668D01*
X530710Y1664877D01*
X529902Y1665166D01*
X529125Y1665533D01*
X528389Y1665975D01*
X527699Y1666486D01*
X527063Y1667063D01*
X526486Y1667699D01*
X525975Y1668389D01*
X525533Y1669125D01*
X525166Y1669901D01*
X524877Y1670710D01*
X524668Y1671543D01*
X524542Y1672392D01*
X524500Y1673250D01*
X524500Y1690750D01*
X524542Y1691608D01*
X524668Y1692457D01*
X524877Y1693290D01*
X525166Y1694098D01*
X525533Y1694875D01*
X525975Y1695611D01*
X526486Y1696301D01*
X527063Y1696937D01*
X527699Y1697514D01*
X528389Y1698025D01*
X529125Y1698467D01*
X529902Y1698834D01*
X530710Y1699123D01*
X531543Y1699332D01*
X532392Y1699458D01*
X533250Y1699500D01*
X598250Y1699500D01*
X599108Y1699458D01*
G37*
G36*
X599108Y1764458D02*
G01*
X599957Y1764332D01*
X600790Y1764123D01*
X601599Y1763834D01*
X602375Y1763467D01*
X603111Y1763025D01*
X603801Y1762514D01*
X604437Y1761937D01*
X605014Y1761301D01*
X605525Y1760611D01*
X605967Y1759875D01*
X606334Y1759098D01*
X606623Y1758290D01*
X606832Y1757457D01*
X606958Y1756608D01*
X607000Y1755750D01*
X607000Y1738250D01*
X606958Y1737392D01*
X606832Y1736543D01*
X606623Y1735710D01*
X606334Y1734901D01*
X605967Y1734125D01*
X605525Y1733389D01*
X605014Y1732699D01*
X604437Y1732063D01*
X603801Y1731486D01*
X603111Y1730975D01*
X602375Y1730533D01*
X601599Y1730166D01*
X600790Y1729877D01*
X599957Y1729668D01*
X599108Y1729542D01*
X598250Y1729500D01*
X533250Y1729500D01*
X532392Y1729542D01*
X531543Y1729668D01*
X530710Y1729877D01*
X529902Y1730166D01*
X529125Y1730533D01*
X528389Y1730975D01*
X527699Y1731486D01*
X527063Y1732063D01*
X526486Y1732699D01*
X525975Y1733389D01*
X525533Y1734125D01*
X525166Y1734901D01*
X524877Y1735710D01*
X524668Y1736543D01*
X524542Y1737392D01*
X524500Y1738250D01*
X524500Y1755750D01*
X524542Y1756608D01*
X524668Y1757457D01*
X524877Y1758290D01*
X525166Y1759098D01*
X525533Y1759875D01*
X525975Y1760611D01*
X526486Y1761301D01*
X527063Y1761937D01*
X527699Y1762514D01*
X528389Y1763025D01*
X529125Y1763467D01*
X529902Y1763834D01*
X530710Y1764123D01*
X531543Y1764332D01*
X532392Y1764458D01*
X533250Y1764500D01*
X598250Y1764500D01*
X599108Y1764458D01*
G37*
G36*
X599108Y1829458D02*
G01*
X599957Y1829332D01*
X600790Y1829123D01*
X601599Y1828834D01*
X602375Y1828467D01*
X603111Y1828025D01*
X603801Y1827514D01*
X604437Y1826937D01*
X605014Y1826301D01*
X605525Y1825611D01*
X605967Y1824875D01*
X606334Y1824098D01*
X606623Y1823290D01*
X606832Y1822457D01*
X606958Y1821608D01*
X607000Y1820750D01*
X607000Y1803250D01*
X606958Y1802392D01*
X606832Y1801543D01*
X606623Y1800710D01*
X606334Y1799901D01*
X605967Y1799125D01*
X605525Y1798389D01*
X605014Y1797699D01*
X604437Y1797063D01*
X603801Y1796486D01*
X603111Y1795975D01*
X602375Y1795533D01*
X601599Y1795166D01*
X600790Y1794877D01*
X599957Y1794668D01*
X599108Y1794542D01*
X598250Y1794500D01*
X533250Y1794500D01*
X532392Y1794542D01*
X531543Y1794668D01*
X530710Y1794877D01*
X529902Y1795166D01*
X529125Y1795533D01*
X528389Y1795975D01*
X527699Y1796486D01*
X527063Y1797063D01*
X526486Y1797699D01*
X525975Y1798389D01*
X525533Y1799125D01*
X525166Y1799901D01*
X524877Y1800710D01*
X524668Y1801543D01*
X524542Y1802392D01*
X524500Y1803250D01*
X524500Y1820750D01*
X524542Y1821608D01*
X524668Y1822457D01*
X524877Y1823290D01*
X525166Y1824098D01*
X525533Y1824875D01*
X525975Y1825611D01*
X526486Y1826301D01*
X527063Y1826937D01*
X527699Y1827514D01*
X528389Y1828025D01*
X529125Y1828467D01*
X529902Y1828834D01*
X530710Y1829123D01*
X531543Y1829332D01*
X532392Y1829458D01*
X533250Y1829500D01*
X598250Y1829500D01*
X599108Y1829458D01*
G37*
G36*
X674108Y1951958D02*
G01*
X674957Y1951832D01*
X675790Y1951623D01*
X676599Y1951334D01*
X677375Y1950967D01*
X678111Y1950525D01*
X678801Y1950014D01*
X679437Y1949437D01*
X680014Y1948801D01*
X680525Y1948111D01*
X680967Y1947375D01*
X681334Y1946598D01*
X681623Y1945790D01*
X681832Y1944957D01*
X681958Y1944108D01*
X682000Y1943250D01*
X682000Y1878250D01*
X681958Y1877392D01*
X681832Y1876543D01*
X681623Y1875710D01*
X681334Y1874901D01*
X680967Y1874125D01*
X680525Y1873389D01*
X680014Y1872699D01*
X679437Y1872063D01*
X678801Y1871486D01*
X678111Y1870975D01*
X677375Y1870533D01*
X676599Y1870166D01*
X675790Y1869877D01*
X674957Y1869668D01*
X674108Y1869542D01*
X673250Y1869500D01*
X655750Y1869500D01*
X654892Y1869542D01*
X654043Y1869668D01*
X653210Y1869877D01*
X652402Y1870166D01*
X651625Y1870533D01*
X650889Y1870975D01*
X650199Y1871486D01*
X649563Y1872063D01*
X648986Y1872699D01*
X648475Y1873389D01*
X648033Y1874125D01*
X647666Y1874901D01*
X647377Y1875710D01*
X647168Y1876543D01*
X647042Y1877392D01*
X647000Y1878250D01*
X647000Y1943250D01*
X647042Y1944108D01*
X647168Y1944957D01*
X647377Y1945790D01*
X647666Y1946598D01*
X648033Y1947375D01*
X648475Y1948111D01*
X648986Y1948801D01*
X649563Y1949437D01*
X650199Y1950014D01*
X650889Y1950525D01*
X651625Y1950967D01*
X652402Y1951334D01*
X653210Y1951623D01*
X654043Y1951832D01*
X654892Y1951958D01*
X655750Y1952000D01*
X673250Y1952000D01*
X674108Y1951958D01*
G37*
G36*
X739108Y1951958D02*
G01*
X739957Y1951832D01*
X740790Y1951623D01*
X741598Y1951334D01*
X742375Y1950967D01*
X743111Y1950525D01*
X743801Y1950014D01*
X744437Y1949437D01*
X745014Y1948801D01*
X745525Y1948111D01*
X745967Y1947375D01*
X746334Y1946598D01*
X746623Y1945790D01*
X746832Y1944957D01*
X746958Y1944108D01*
X747000Y1943250D01*
X747000Y1878250D01*
X746958Y1877392D01*
X746832Y1876543D01*
X746623Y1875710D01*
X746334Y1874901D01*
X745967Y1874125D01*
X745525Y1873389D01*
X745014Y1872699D01*
X744437Y1872063D01*
X743801Y1871486D01*
X743111Y1870975D01*
X742375Y1870533D01*
X741598Y1870166D01*
X740790Y1869877D01*
X739957Y1869668D01*
X739108Y1869542D01*
X738250Y1869500D01*
X720750Y1869500D01*
X719892Y1869542D01*
X719043Y1869668D01*
X718210Y1869877D01*
X717401Y1870166D01*
X716625Y1870533D01*
X715889Y1870975D01*
X715199Y1871486D01*
X714563Y1872063D01*
X713986Y1872699D01*
X713475Y1873389D01*
X713033Y1874125D01*
X712666Y1874901D01*
X712377Y1875710D01*
X712168Y1876543D01*
X712042Y1877392D01*
X712000Y1878250D01*
X712000Y1943250D01*
X712042Y1944108D01*
X712168Y1944957D01*
X712377Y1945790D01*
X712666Y1946598D01*
X713033Y1947375D01*
X713475Y1948111D01*
X713986Y1948801D01*
X714563Y1949437D01*
X715199Y1950014D01*
X715889Y1950525D01*
X716625Y1950967D01*
X717401Y1951334D01*
X718210Y1951623D01*
X719043Y1951832D01*
X719892Y1951958D01*
X720750Y1952000D01*
X738250Y1952000D01*
X739108Y1951958D01*
G37*
G36*
X804108Y1951958D02*
G01*
X804957Y1951832D01*
X805790Y1951623D01*
X806598Y1951334D01*
X807375Y1950967D01*
X808111Y1950525D01*
X808801Y1950014D01*
X809437Y1949437D01*
X810014Y1948801D01*
X810525Y1948111D01*
X810967Y1947375D01*
X811334Y1946598D01*
X811623Y1945790D01*
X811832Y1944957D01*
X811958Y1944108D01*
X812000Y1943250D01*
X812000Y1878250D01*
X811958Y1877392D01*
X811832Y1876543D01*
X811623Y1875710D01*
X811334Y1874901D01*
X810967Y1874125D01*
X810525Y1873389D01*
X810014Y1872699D01*
X809437Y1872063D01*
X808801Y1871486D01*
X808111Y1870975D01*
X807375Y1870533D01*
X806598Y1870166D01*
X805790Y1869877D01*
X804957Y1869668D01*
X804108Y1869542D01*
X803250Y1869500D01*
X785750Y1869500D01*
X784892Y1869542D01*
X784043Y1869668D01*
X783210Y1869877D01*
X782401Y1870166D01*
X781625Y1870533D01*
X780889Y1870975D01*
X780199Y1871486D01*
X779563Y1872063D01*
X778986Y1872699D01*
X778475Y1873389D01*
X778033Y1874125D01*
X777666Y1874901D01*
X777377Y1875710D01*
X777168Y1876543D01*
X777042Y1877392D01*
X777000Y1878250D01*
X777000Y1943250D01*
X777042Y1944108D01*
X777168Y1944957D01*
X777377Y1945790D01*
X777666Y1946598D01*
X778033Y1947375D01*
X778475Y1948111D01*
X778986Y1948801D01*
X779563Y1949437D01*
X780199Y1950014D01*
X780889Y1950525D01*
X781625Y1950967D01*
X782401Y1951334D01*
X783210Y1951623D01*
X784043Y1951832D01*
X784892Y1951958D01*
X785750Y1952000D01*
X803250Y1952000D01*
X804108Y1951958D01*
G37*
G36*
X869108Y1951958D02*
G01*
X869957Y1951832D01*
X870790Y1951623D01*
X871598Y1951334D01*
X872375Y1950967D01*
X873111Y1950525D01*
X873801Y1950014D01*
X874437Y1949437D01*
X875014Y1948801D01*
X875525Y1948111D01*
X875967Y1947375D01*
X876334Y1946598D01*
X876623Y1945790D01*
X876832Y1944957D01*
X876958Y1944108D01*
X877000Y1943250D01*
X877000Y1878250D01*
X876958Y1877392D01*
X876832Y1876543D01*
X876623Y1875710D01*
X876334Y1874901D01*
X875967Y1874125D01*
X875525Y1873389D01*
X875014Y1872699D01*
X874437Y1872063D01*
X873801Y1871486D01*
X873111Y1870975D01*
X872375Y1870533D01*
X871598Y1870166D01*
X870790Y1869877D01*
X869957Y1869668D01*
X869108Y1869542D01*
X868250Y1869500D01*
X850750Y1869500D01*
X849892Y1869542D01*
X849043Y1869668D01*
X848210Y1869877D01*
X847401Y1870166D01*
X846625Y1870533D01*
X845889Y1870975D01*
X845199Y1871486D01*
X844563Y1872063D01*
X843986Y1872699D01*
X843475Y1873389D01*
X843033Y1874125D01*
X842666Y1874901D01*
X842377Y1875710D01*
X842168Y1876543D01*
X842042Y1877392D01*
X842000Y1878250D01*
X842000Y1943250D01*
X842042Y1944108D01*
X842168Y1944957D01*
X842377Y1945790D01*
X842666Y1946598D01*
X843033Y1947375D01*
X843475Y1948111D01*
X843986Y1948801D01*
X844563Y1949437D01*
X845199Y1950014D01*
X845889Y1950525D01*
X846625Y1950967D01*
X847401Y1951334D01*
X848210Y1951623D01*
X849043Y1951832D01*
X849892Y1951958D01*
X850750Y1952000D01*
X868250Y1952000D01*
X869108Y1951958D01*
G37*
G36*
X874450Y1849380D02*
G01*
X876877Y1849020D01*
X879257Y1848423D01*
X881567Y1847597D01*
X883785Y1846548D01*
X885889Y1845287D01*
X887860Y1843825D01*
X889678Y1842178D01*
X891325Y1840360D01*
X892787Y1838389D01*
X894048Y1836285D01*
X895097Y1834067D01*
X895923Y1831757D01*
X896520Y1829377D01*
X896880Y1826950D01*
X897000Y1824500D01*
X897000Y1604500D01*
X896880Y1602050D01*
X896520Y1599623D01*
X895923Y1597243D01*
X895097Y1594933D01*
X894048Y1592715D01*
X892787Y1590611D01*
X891325Y1588640D01*
X889678Y1586822D01*
X887860Y1585175D01*
X885889Y1583713D01*
X883785Y1582452D01*
X881567Y1581403D01*
X879257Y1580576D01*
X876877Y1579980D01*
X874450Y1579620D01*
X872000Y1579500D01*
X652000Y1579500D01*
X649550Y1579620D01*
X647123Y1579980D01*
X644743Y1580576D01*
X642433Y1581403D01*
X640215Y1582452D01*
X638111Y1583713D01*
X636140Y1585175D01*
X634322Y1586822D01*
X632675Y1588640D01*
X631213Y1590611D01*
X629952Y1592715D01*
X628903Y1594933D01*
X628077Y1597243D01*
X627480Y1599623D01*
X627120Y1602050D01*
X627000Y1604500D01*
X627000Y1824500D01*
X627120Y1826950D01*
X627480Y1829377D01*
X628077Y1831757D01*
X628903Y1834067D01*
X629952Y1836285D01*
X631213Y1838389D01*
X632675Y1840360D01*
X634322Y1842178D01*
X636140Y1843825D01*
X638111Y1845287D01*
X640215Y1846548D01*
X642433Y1847597D01*
X644743Y1848423D01*
X647123Y1849020D01*
X649550Y1849380D01*
X652000Y1849500D01*
X872000Y1849500D01*
X874450Y1849380D01*
G37*
D16*
X1189500Y2571500D03*
X1189500Y2381500D03*
X969500Y2381500D03*
X969500Y2476500D03*
X969500Y2571500D03*
D17*
X254000Y635000D03*
D15*
G36*
X328940Y505000D02*
G01*
X328940Y502547D01*
X328459Y497663D01*
X327502Y492851D01*
X326077Y488155D01*
X324200Y483622D01*
X321886Y479295D01*
X319160Y475215D01*
X316048Y471422D01*
X312578Y467952D01*
X308785Y464840D01*
X304705Y462114D01*
X300378Y459800D01*
X295845Y457923D01*
X291149Y456498D01*
X286337Y455541D01*
X281453Y455060D01*
X279000Y455060D01*
X279000Y455000D01*
X229000Y455000D01*
X229000Y455060D01*
X226547Y455060D01*
X221663Y455541D01*
X216851Y456498D01*
X212155Y457923D01*
X207622Y459800D01*
X203295Y462114D01*
X199215Y464840D01*
X195422Y467952D01*
X191952Y471422D01*
X188840Y475215D01*
X186114Y479295D01*
X183800Y483622D01*
X181923Y488155D01*
X180498Y492851D01*
X179541Y497663D01*
X179060Y502547D01*
X179060Y505000D01*
X179000Y505000D01*
X179000Y560000D01*
X329000Y560000D01*
X329000Y505000D01*
X328940Y505000D01*
G37*
G36*
X179000Y710000D02*
G01*
X179000Y765000D01*
X179060Y765000D01*
X179060Y767453D01*
X179541Y772336D01*
X180498Y777149D01*
X181923Y781844D01*
X183800Y786378D01*
X186114Y790705D01*
X188840Y794785D01*
X191952Y798578D01*
X195422Y802048D01*
X199215Y805160D01*
X203295Y807886D01*
X207622Y810199D01*
X212155Y812077D01*
X216851Y813502D01*
X221663Y814459D01*
X226547Y814940D01*
X229000Y814940D01*
X229000Y815000D01*
X279000Y815000D01*
X279000Y814940D01*
X281453Y814940D01*
X286337Y814459D01*
X291149Y813502D01*
X295845Y812077D01*
X300378Y810199D01*
X304705Y807886D01*
X308785Y805160D01*
X312578Y802048D01*
X316048Y798578D01*
X319160Y794785D01*
X321886Y790705D01*
X324200Y786378D01*
X326077Y781844D01*
X327502Y777149D01*
X328459Y772336D01*
X328940Y767453D01*
X328940Y765000D01*
X329000Y765000D01*
X329000Y710000D01*
X179000Y710000D01*
G37*
G36*
X1149450Y260880D02*
G01*
X1151877Y260520D01*
X1154257Y259923D01*
X1156567Y259097D01*
X1158785Y258048D01*
X1160889Y256787D01*
X1162860Y255325D01*
X1164678Y253678D01*
X1166325Y251860D01*
X1167787Y249889D01*
X1169048Y247785D01*
X1170097Y245567D01*
X1170924Y243257D01*
X1171520Y240877D01*
X1171880Y238450D01*
X1172000Y236000D01*
X1172000Y-54000D01*
X1171880Y-56450D01*
X1171520Y-58877D01*
X1170924Y-61257D01*
X1170097Y-63567D01*
X1169048Y-65785D01*
X1167787Y-67889D01*
X1166325Y-69860D01*
X1164678Y-71678D01*
X1162860Y-73325D01*
X1160889Y-74787D01*
X1158785Y-76048D01*
X1156567Y-77097D01*
X1154257Y-77924D01*
X1151877Y-78520D01*
X1149450Y-78880D01*
X1147000Y-79000D01*
X1047000Y-79000D01*
X1044550Y-78880D01*
X1042123Y-78520D01*
X1039743Y-77924D01*
X1037433Y-77097D01*
X1035215Y-76048D01*
X1033111Y-74787D01*
X1031140Y-73325D01*
X1029322Y-71678D01*
X1027675Y-69860D01*
X1026213Y-67889D01*
X1024952Y-65785D01*
X1023903Y-63567D01*
X1023076Y-61257D01*
X1022480Y-58877D01*
X1022120Y-56450D01*
X1022000Y-54000D01*
X1022000Y236000D01*
X1022120Y238450D01*
X1022480Y240877D01*
X1023076Y243257D01*
X1023903Y245567D01*
X1024952Y247785D01*
X1026213Y249889D01*
X1027675Y251860D01*
X1029322Y253678D01*
X1031140Y255325D01*
X1033111Y256787D01*
X1035215Y258048D01*
X1037433Y259097D01*
X1039743Y259923D01*
X1042123Y260520D01*
X1044550Y260880D01*
X1047000Y261000D01*
X1147000Y261000D01*
X1149450Y260880D01*
G37*
G36*
X479450Y260880D02*
G01*
X481877Y260520D01*
X484257Y259923D01*
X486567Y259097D01*
X488785Y258048D01*
X490889Y256787D01*
X492860Y255325D01*
X494678Y253678D01*
X496325Y251860D01*
X497787Y249889D01*
X499048Y247785D01*
X500097Y245567D01*
X500923Y243257D01*
X501520Y240877D01*
X501880Y238450D01*
X502000Y236000D01*
X502000Y-54000D01*
X501880Y-56450D01*
X501520Y-58877D01*
X500923Y-61257D01*
X500097Y-63567D01*
X499048Y-65785D01*
X497787Y-67889D01*
X496325Y-69860D01*
X494678Y-71678D01*
X492860Y-73325D01*
X490889Y-74787D01*
X488785Y-76048D01*
X486567Y-77097D01*
X484257Y-77924D01*
X481877Y-78520D01*
X479450Y-78880D01*
X477000Y-79000D01*
X377000Y-79000D01*
X374550Y-78880D01*
X372123Y-78520D01*
X369743Y-77924D01*
X367433Y-77097D01*
X365215Y-76048D01*
X363111Y-74787D01*
X361140Y-73325D01*
X359322Y-71678D01*
X357675Y-69860D01*
X356213Y-67889D01*
X354952Y-65785D01*
X353903Y-63567D01*
X353076Y-61257D01*
X352480Y-58877D01*
X352120Y-56450D01*
X352000Y-54000D01*
X352000Y236000D01*
X352120Y238450D01*
X352480Y240877D01*
X353076Y243257D01*
X353903Y245567D01*
X354952Y247785D01*
X356213Y249889D01*
X357675Y251860D01*
X359322Y253678D01*
X361140Y255325D01*
X363111Y256787D01*
X365215Y258048D01*
X367433Y259097D01*
X369743Y259923D01*
X372123Y260520D01*
X374550Y260880D01*
X377000Y261000D01*
X477000Y261000D01*
X479450Y260880D01*
G37*
G36*
X889450Y840880D02*
G01*
X891877Y840520D01*
X894257Y839923D01*
X896567Y839097D01*
X898785Y838048D01*
X900889Y836787D01*
X902860Y835325D01*
X904678Y833678D01*
X906325Y831860D01*
X907787Y829889D01*
X909048Y827785D01*
X910097Y825567D01*
X910923Y823257D01*
X911520Y820877D01*
X911880Y818450D01*
X912000Y816000D01*
X912000Y516000D01*
X911880Y513550D01*
X911520Y511123D01*
X910923Y508743D01*
X910097Y506433D01*
X909048Y504215D01*
X907787Y502111D01*
X906325Y500140D01*
X904678Y498322D01*
X902860Y496675D01*
X900889Y495213D01*
X898785Y493952D01*
X896567Y492903D01*
X894257Y492076D01*
X891877Y491480D01*
X889450Y491120D01*
X887000Y491000D01*
X837000Y491000D01*
X834550Y491120D01*
X832123Y491480D01*
X829743Y492076D01*
X827433Y492903D01*
X825215Y493952D01*
X823111Y495213D01*
X821140Y496675D01*
X819322Y498322D01*
X817675Y500140D01*
X816213Y502111D01*
X814952Y504215D01*
X813903Y506433D01*
X813076Y508743D01*
X812480Y511123D01*
X812120Y513550D01*
X812000Y516000D01*
X812000Y816000D01*
X812120Y818450D01*
X812480Y820877D01*
X813076Y823257D01*
X813903Y825567D01*
X814952Y827785D01*
X816213Y829889D01*
X817675Y831860D01*
X819322Y833678D01*
X821140Y835325D01*
X823111Y836787D01*
X825215Y838048D01*
X827433Y839097D01*
X829743Y839923D01*
X832123Y840520D01*
X834550Y840880D01*
X837000Y841000D01*
X887000Y841000D01*
X889450Y840880D01*
G37*
G36*
X689450Y840880D02*
G01*
X691877Y840520D01*
X694257Y839923D01*
X696567Y839097D01*
X698785Y838048D01*
X700889Y836787D01*
X702860Y835325D01*
X704678Y833678D01*
X706325Y831860D01*
X707787Y829889D01*
X709048Y827785D01*
X710097Y825567D01*
X710923Y823257D01*
X711520Y820877D01*
X711880Y818450D01*
X712000Y816000D01*
X712000Y516000D01*
X711880Y513550D01*
X711520Y511123D01*
X710923Y508743D01*
X710097Y506433D01*
X709048Y504215D01*
X707787Y502111D01*
X706325Y500140D01*
X704678Y498322D01*
X702860Y496675D01*
X700889Y495213D01*
X698785Y493952D01*
X696567Y492903D01*
X694257Y492076D01*
X691877Y491480D01*
X689450Y491120D01*
X687000Y491000D01*
X637000Y491000D01*
X634550Y491120D01*
X632123Y491480D01*
X629743Y492076D01*
X627433Y492903D01*
X625215Y493952D01*
X623111Y495213D01*
X621140Y496675D01*
X619322Y498322D01*
X617675Y500140D01*
X616213Y502111D01*
X614952Y504215D01*
X613903Y506433D01*
X613077Y508743D01*
X612480Y511123D01*
X612120Y513550D01*
X612000Y516000D01*
X612000Y816000D01*
X612120Y818450D01*
X612480Y820877D01*
X613077Y823257D01*
X613903Y825567D01*
X614952Y827785D01*
X616213Y829889D01*
X617675Y831860D01*
X619322Y833678D01*
X621140Y835325D01*
X623111Y836787D01*
X625215Y838048D01*
X627433Y839097D01*
X629743Y839923D01*
X632123Y840520D01*
X634550Y840880D01*
X637000Y841000D01*
X687000Y841000D01*
X689450Y840880D01*
G37*
G36*
X218269Y1201895D02*
G01*
X220393Y1201580D01*
X222475Y1201058D01*
X224496Y1200335D01*
X226437Y1199417D01*
X228278Y1198313D01*
X230002Y1197035D01*
X231593Y1195593D01*
X233035Y1194002D01*
X234313Y1192278D01*
X235417Y1190437D01*
X236335Y1188496D01*
X237058Y1186475D01*
X237580Y1184393D01*
X237895Y1182269D01*
X238000Y1180125D01*
X238000Y1136375D01*
X237895Y1134231D01*
X237580Y1132107D01*
X237058Y1130025D01*
X236335Y1128004D01*
X235417Y1126063D01*
X234313Y1124222D01*
X233035Y1122498D01*
X231593Y1120907D01*
X230002Y1119465D01*
X228278Y1118187D01*
X226437Y1117083D01*
X224496Y1116165D01*
X222475Y1115442D01*
X220393Y1114920D01*
X218269Y1114605D01*
X216125Y1114500D01*
X164875Y1114500D01*
X162731Y1114605D01*
X160607Y1114920D01*
X158525Y1115442D01*
X156504Y1116165D01*
X154563Y1117083D01*
X152722Y1118187D01*
X150998Y1119465D01*
X149407Y1120907D01*
X147965Y1122498D01*
X146687Y1124222D01*
X145583Y1126063D01*
X144665Y1128004D01*
X143942Y1130025D01*
X143420Y1132107D01*
X143105Y1134231D01*
X143000Y1136375D01*
X143000Y1180125D01*
X143105Y1182269D01*
X143420Y1184393D01*
X143942Y1186475D01*
X144665Y1188496D01*
X145583Y1190437D01*
X146687Y1192278D01*
X147965Y1194002D01*
X149407Y1195593D01*
X150998Y1197035D01*
X152722Y1198313D01*
X154563Y1199417D01*
X156504Y1200335D01*
X158525Y1201058D01*
X160607Y1201580D01*
X162731Y1201895D01*
X164875Y1202000D01*
X216125Y1202000D01*
X218269Y1201895D01*
G37*
G36*
X218269Y1044395D02*
G01*
X220393Y1044080D01*
X222475Y1043558D01*
X224496Y1042835D01*
X226437Y1041917D01*
X228278Y1040813D01*
X230002Y1039535D01*
X231593Y1038093D01*
X233035Y1036502D01*
X234313Y1034778D01*
X235417Y1032937D01*
X236335Y1030996D01*
X237058Y1028975D01*
X237580Y1026893D01*
X237895Y1024769D01*
X238000Y1022625D01*
X238000Y978875D01*
X237895Y976731D01*
X237580Y974607D01*
X237058Y972525D01*
X236335Y970504D01*
X235417Y968563D01*
X234313Y966722D01*
X233035Y964998D01*
X231593Y963407D01*
X230002Y961965D01*
X228278Y960687D01*
X226437Y959583D01*
X224496Y958665D01*
X222475Y957942D01*
X220393Y957420D01*
X218269Y957105D01*
X216125Y957000D01*
X164875Y957000D01*
X162731Y957105D01*
X160607Y957420D01*
X158525Y957942D01*
X156504Y958665D01*
X154563Y959583D01*
X152722Y960687D01*
X150998Y961965D01*
X149407Y963407D01*
X147965Y964998D01*
X146687Y966722D01*
X145583Y968563D01*
X144665Y970504D01*
X143942Y972525D01*
X143420Y974607D01*
X143105Y976731D01*
X143000Y978875D01*
X143000Y1022625D01*
X143105Y1024769D01*
X143420Y1026893D01*
X143942Y1028975D01*
X144665Y1030996D01*
X145583Y1032937D01*
X146687Y1034778D01*
X147965Y1036502D01*
X149407Y1038093D01*
X150998Y1039535D01*
X152722Y1040813D01*
X154563Y1041917D01*
X156504Y1042835D01*
X158525Y1043558D01*
X160607Y1044080D01*
X162731Y1044395D01*
X164875Y1044500D01*
X216125Y1044500D01*
X218269Y1044395D01*
G37*
G36*
X408769Y1044395D02*
G01*
X410893Y1044080D01*
X412975Y1043558D01*
X414996Y1042835D01*
X416937Y1041917D01*
X418778Y1040813D01*
X420502Y1039535D01*
X422093Y1038093D01*
X423535Y1036502D01*
X424813Y1034778D01*
X425917Y1032937D01*
X426835Y1030996D01*
X427558Y1028975D01*
X428080Y1026893D01*
X428395Y1024769D01*
X428500Y1022625D01*
X428500Y978875D01*
X428395Y976731D01*
X428080Y974607D01*
X427558Y972525D01*
X426835Y970504D01*
X425917Y968563D01*
X424813Y966722D01*
X423535Y964998D01*
X422093Y963407D01*
X420502Y961965D01*
X418778Y960687D01*
X416937Y959583D01*
X414996Y958665D01*
X412975Y957942D01*
X410893Y957420D01*
X408769Y957105D01*
X406625Y957000D01*
X355375Y957000D01*
X353231Y957105D01*
X351107Y957420D01*
X349025Y957942D01*
X347004Y958665D01*
X345063Y959583D01*
X343222Y960687D01*
X341498Y961965D01*
X339907Y963407D01*
X338465Y964998D01*
X337187Y966722D01*
X336083Y968563D01*
X335165Y970504D01*
X334442Y972525D01*
X333920Y974607D01*
X333605Y976731D01*
X333500Y978875D01*
X333500Y1022625D01*
X333605Y1024769D01*
X333920Y1026893D01*
X334442Y1028975D01*
X335165Y1030996D01*
X336083Y1032937D01*
X337187Y1034778D01*
X338465Y1036502D01*
X339907Y1038093D01*
X341498Y1039535D01*
X343222Y1040813D01*
X345063Y1041917D01*
X347004Y1042835D01*
X349025Y1043558D01*
X351107Y1044080D01*
X353231Y1044395D01*
X355375Y1044500D01*
X406625Y1044500D01*
X408769Y1044395D01*
G37*
G36*
X408769Y1201895D02*
G01*
X410893Y1201580D01*
X412975Y1201058D01*
X414996Y1200335D01*
X416937Y1199417D01*
X418778Y1198313D01*
X420502Y1197035D01*
X422093Y1195593D01*
X423535Y1194002D01*
X424813Y1192278D01*
X425917Y1190437D01*
X426835Y1188496D01*
X427558Y1186475D01*
X428080Y1184393D01*
X428395Y1182269D01*
X428500Y1180125D01*
X428500Y1136375D01*
X428395Y1134231D01*
X428080Y1132107D01*
X427558Y1130025D01*
X426835Y1128004D01*
X425917Y1126063D01*
X424813Y1124222D01*
X423535Y1122498D01*
X422093Y1120907D01*
X420502Y1119465D01*
X418778Y1118187D01*
X416937Y1117083D01*
X414996Y1116165D01*
X412975Y1115442D01*
X410893Y1114920D01*
X408769Y1114605D01*
X406625Y1114500D01*
X355375Y1114500D01*
X353231Y1114605D01*
X351107Y1114920D01*
X349025Y1115442D01*
X347004Y1116165D01*
X345063Y1117083D01*
X343222Y1118187D01*
X341498Y1119465D01*
X339907Y1120907D01*
X338465Y1122498D01*
X337187Y1124222D01*
X336083Y1126063D01*
X335165Y1128004D01*
X334442Y1130025D01*
X333920Y1132107D01*
X333605Y1134231D01*
X333500Y1136375D01*
X333500Y1180125D01*
X333605Y1182269D01*
X333920Y1184393D01*
X334442Y1186475D01*
X335165Y1188496D01*
X336083Y1190437D01*
X337187Y1192278D01*
X338465Y1194002D01*
X339907Y1195593D01*
X341498Y1197035D01*
X343222Y1198313D01*
X345063Y1199417D01*
X347004Y1200335D01*
X349025Y1201058D01*
X351107Y1201580D01*
X353231Y1201895D01*
X355375Y1202000D01*
X406625Y1202000D01*
X408769Y1201895D01*
G37*
G36*
X1170769Y1201895D02*
G01*
X1172893Y1201580D01*
X1174975Y1201058D01*
X1176996Y1200335D01*
X1178937Y1199417D01*
X1180778Y1198313D01*
X1182502Y1197035D01*
X1184093Y1195593D01*
X1185535Y1194002D01*
X1186813Y1192278D01*
X1187917Y1190437D01*
X1188835Y1188496D01*
X1189558Y1186475D01*
X1190080Y1184393D01*
X1190395Y1182269D01*
X1190500Y1180125D01*
X1190500Y1136375D01*
X1190395Y1134231D01*
X1190080Y1132107D01*
X1189558Y1130025D01*
X1188835Y1128004D01*
X1187917Y1126063D01*
X1186813Y1124222D01*
X1185535Y1122498D01*
X1184093Y1120907D01*
X1182502Y1119465D01*
X1180778Y1118187D01*
X1178937Y1117083D01*
X1176996Y1116165D01*
X1174975Y1115442D01*
X1172893Y1114920D01*
X1170769Y1114605D01*
X1168625Y1114500D01*
X1117375Y1114500D01*
X1115231Y1114605D01*
X1113107Y1114920D01*
X1111025Y1115442D01*
X1109004Y1116165D01*
X1107063Y1117083D01*
X1105222Y1118187D01*
X1103498Y1119465D01*
X1101907Y1120907D01*
X1100465Y1122498D01*
X1099187Y1124222D01*
X1098083Y1126063D01*
X1097165Y1128004D01*
X1096442Y1130025D01*
X1095920Y1132107D01*
X1095605Y1134231D01*
X1095500Y1136375D01*
X1095500Y1180125D01*
X1095605Y1182269D01*
X1095920Y1184393D01*
X1096442Y1186475D01*
X1097165Y1188496D01*
X1098083Y1190437D01*
X1099187Y1192278D01*
X1100465Y1194002D01*
X1101907Y1195593D01*
X1103498Y1197035D01*
X1105222Y1198313D01*
X1107063Y1199417D01*
X1109004Y1200335D01*
X1111025Y1201058D01*
X1113107Y1201580D01*
X1115231Y1201895D01*
X1117375Y1202000D01*
X1168625Y1202000D01*
X1170769Y1201895D01*
G37*
G36*
X1170769Y1044395D02*
G01*
X1172893Y1044080D01*
X1174975Y1043558D01*
X1176996Y1042835D01*
X1178937Y1041917D01*
X1180778Y1040813D01*
X1182502Y1039535D01*
X1184093Y1038093D01*
X1185535Y1036502D01*
X1186813Y1034778D01*
X1187917Y1032937D01*
X1188835Y1030996D01*
X1189558Y1028975D01*
X1190080Y1026893D01*
X1190395Y1024769D01*
X1190500Y1022625D01*
X1190500Y978875D01*
X1190395Y976731D01*
X1190080Y974607D01*
X1189558Y972525D01*
X1188835Y970504D01*
X1187917Y968563D01*
X1186813Y966722D01*
X1185535Y964998D01*
X1184093Y963407D01*
X1182502Y961965D01*
X1180778Y960687D01*
X1178937Y959583D01*
X1176996Y958665D01*
X1174975Y957942D01*
X1172893Y957420D01*
X1170769Y957105D01*
X1168625Y957000D01*
X1117375Y957000D01*
X1115231Y957105D01*
X1113107Y957420D01*
X1111025Y957942D01*
X1109004Y958665D01*
X1107063Y959583D01*
X1105222Y960687D01*
X1103498Y961965D01*
X1101907Y963407D01*
X1100465Y964998D01*
X1099187Y966722D01*
X1098083Y968563D01*
X1097165Y970504D01*
X1096442Y972525D01*
X1095920Y974607D01*
X1095605Y976731D01*
X1095500Y978875D01*
X1095500Y1022625D01*
X1095605Y1024769D01*
X1095920Y1026893D01*
X1096442Y1028975D01*
X1097165Y1030996D01*
X1098083Y1032937D01*
X1099187Y1034778D01*
X1100465Y1036502D01*
X1101907Y1038093D01*
X1103498Y1039535D01*
X1105222Y1040813D01*
X1107063Y1041917D01*
X1109004Y1042835D01*
X1111025Y1043558D01*
X1113107Y1044080D01*
X1115231Y1044395D01*
X1117375Y1044500D01*
X1168625Y1044500D01*
X1170769Y1044395D01*
G37*
G36*
X789769Y1201895D02*
G01*
X791893Y1201580D01*
X793975Y1201058D01*
X795996Y1200335D01*
X797937Y1199417D01*
X799778Y1198313D01*
X801502Y1197035D01*
X803093Y1195593D01*
X804535Y1194002D01*
X805813Y1192278D01*
X806917Y1190437D01*
X807835Y1188496D01*
X808558Y1186475D01*
X809080Y1184393D01*
X809395Y1182269D01*
X809500Y1180125D01*
X809500Y1136375D01*
X809395Y1134231D01*
X809080Y1132107D01*
X808558Y1130025D01*
X807835Y1128004D01*
X806917Y1126063D01*
X805813Y1124222D01*
X804535Y1122498D01*
X803093Y1120907D01*
X801502Y1119465D01*
X799778Y1118187D01*
X797937Y1117083D01*
X795996Y1116165D01*
X793975Y1115442D01*
X791893Y1114920D01*
X789769Y1114605D01*
X787625Y1114500D01*
X736375Y1114500D01*
X734231Y1114605D01*
X732107Y1114920D01*
X730025Y1115442D01*
X728004Y1116165D01*
X726063Y1117083D01*
X724222Y1118187D01*
X722498Y1119465D01*
X720907Y1120907D01*
X719465Y1122498D01*
X718187Y1124222D01*
X717083Y1126063D01*
X716165Y1128004D01*
X715442Y1130025D01*
X714920Y1132107D01*
X714605Y1134231D01*
X714500Y1136375D01*
X714500Y1180125D01*
X714605Y1182269D01*
X714920Y1184393D01*
X715442Y1186475D01*
X716165Y1188496D01*
X717083Y1190437D01*
X718187Y1192278D01*
X719465Y1194002D01*
X720907Y1195593D01*
X722498Y1197035D01*
X724222Y1198313D01*
X726063Y1199417D01*
X728004Y1200335D01*
X730025Y1201058D01*
X732107Y1201580D01*
X734231Y1201895D01*
X736375Y1202000D01*
X787625Y1202000D01*
X789769Y1201895D01*
G37*
G36*
X789769Y1044395D02*
G01*
X791893Y1044080D01*
X793975Y1043558D01*
X795996Y1042835D01*
X797937Y1041917D01*
X799778Y1040813D01*
X801502Y1039535D01*
X803093Y1038093D01*
X804535Y1036502D01*
X805813Y1034778D01*
X806917Y1032937D01*
X807835Y1030996D01*
X808558Y1028975D01*
X809080Y1026893D01*
X809395Y1024769D01*
X809500Y1022625D01*
X809500Y978875D01*
X809395Y976731D01*
X809080Y974607D01*
X808558Y972525D01*
X807835Y970504D01*
X806917Y968563D01*
X805813Y966722D01*
X804535Y964998D01*
X803093Y963407D01*
X801502Y961965D01*
X799778Y960687D01*
X797937Y959583D01*
X795996Y958665D01*
X793975Y957942D01*
X791893Y957420D01*
X789769Y957105D01*
X787625Y957000D01*
X736375Y957000D01*
X734231Y957105D01*
X732107Y957420D01*
X730025Y957942D01*
X728004Y958665D01*
X726063Y959583D01*
X724222Y960687D01*
X722498Y961965D01*
X720907Y963407D01*
X719465Y964998D01*
X718187Y966722D01*
X717083Y968563D01*
X716165Y970504D01*
X715442Y972525D01*
X714920Y974607D01*
X714605Y976731D01*
X714500Y978875D01*
X714500Y1022625D01*
X714605Y1024769D01*
X714920Y1026893D01*
X715442Y1028975D01*
X716165Y1030996D01*
X717083Y1032937D01*
X718187Y1034778D01*
X719465Y1036502D01*
X720907Y1038093D01*
X722498Y1039535D01*
X724222Y1040813D01*
X726063Y1041917D01*
X728004Y1042835D01*
X730025Y1043558D01*
X732107Y1044080D01*
X734231Y1044395D01*
X736375Y1044500D01*
X787625Y1044500D01*
X789769Y1044395D01*
G37*
G36*
X980269Y1201895D02*
G01*
X982393Y1201580D01*
X984475Y1201058D01*
X986496Y1200335D01*
X988437Y1199417D01*
X990278Y1198313D01*
X992002Y1197035D01*
X993593Y1195593D01*
X995035Y1194002D01*
X996313Y1192278D01*
X997417Y1190437D01*
X998335Y1188496D01*
X999058Y1186475D01*
X999580Y1184393D01*
X999895Y1182269D01*
X1000000Y1180125D01*
X1000000Y1136375D01*
X999895Y1134231D01*
X999580Y1132107D01*
X999058Y1130025D01*
X998335Y1128004D01*
X997417Y1126063D01*
X996313Y1124222D01*
X995035Y1122498D01*
X993593Y1120907D01*
X992002Y1119465D01*
X990278Y1118187D01*
X988437Y1117083D01*
X986496Y1116165D01*
X984475Y1115442D01*
X982393Y1114920D01*
X980269Y1114605D01*
X978125Y1114500D01*
X926875Y1114500D01*
X924731Y1114605D01*
X922607Y1114920D01*
X920525Y1115442D01*
X918504Y1116165D01*
X916563Y1117083D01*
X914722Y1118187D01*
X912998Y1119465D01*
X911407Y1120907D01*
X909965Y1122498D01*
X908687Y1124222D01*
X907583Y1126063D01*
X906665Y1128004D01*
X905942Y1130025D01*
X905420Y1132107D01*
X905105Y1134231D01*
X905000Y1136375D01*
X905000Y1180125D01*
X905105Y1182269D01*
X905420Y1184393D01*
X905942Y1186475D01*
X906665Y1188496D01*
X907583Y1190437D01*
X908687Y1192278D01*
X909965Y1194002D01*
X911407Y1195593D01*
X912998Y1197035D01*
X914722Y1198313D01*
X916563Y1199417D01*
X918504Y1200335D01*
X920525Y1201058D01*
X922607Y1201580D01*
X924731Y1201895D01*
X926875Y1202000D01*
X978125Y1202000D01*
X980269Y1201895D01*
G37*
G36*
X980269Y1044395D02*
G01*
X982393Y1044080D01*
X984475Y1043558D01*
X986496Y1042835D01*
X988437Y1041917D01*
X990278Y1040813D01*
X992002Y1039535D01*
X993593Y1038093D01*
X995035Y1036502D01*
X996313Y1034778D01*
X997417Y1032937D01*
X998335Y1030996D01*
X999058Y1028975D01*
X999580Y1026893D01*
X999895Y1024769D01*
X1000000Y1022625D01*
X1000000Y978875D01*
X999895Y976731D01*
X999580Y974607D01*
X999058Y972525D01*
X998335Y970504D01*
X997417Y968563D01*
X996313Y966722D01*
X995035Y964998D01*
X993593Y963407D01*
X992002Y961965D01*
X990278Y960687D01*
X988437Y959583D01*
X986496Y958665D01*
X984475Y957942D01*
X982393Y957420D01*
X980269Y957105D01*
X978125Y957000D01*
X926875Y957000D01*
X924731Y957105D01*
X922607Y957420D01*
X920525Y957942D01*
X918504Y958665D01*
X916563Y959583D01*
X914722Y960687D01*
X912998Y961965D01*
X911407Y963407D01*
X909965Y964998D01*
X908687Y966722D01*
X907583Y968563D01*
X906665Y970504D01*
X905942Y972525D01*
X905420Y974607D01*
X905105Y976731D01*
X905000Y978875D01*
X905000Y1022625D01*
X905105Y1024769D01*
X905420Y1026893D01*
X905942Y1028975D01*
X906665Y1030996D01*
X907583Y1032937D01*
X908687Y1034778D01*
X909965Y1036502D01*
X911407Y1038093D01*
X912998Y1039535D01*
X914722Y1040813D01*
X916563Y1041917D01*
X918504Y1042835D01*
X920525Y1043558D01*
X922607Y1044080D01*
X924731Y1044395D01*
X926875Y1044500D01*
X978125Y1044500D01*
X980269Y1044395D01*
G37*
G36*
X1361269Y1044395D02*
G01*
X1363393Y1044080D01*
X1365475Y1043558D01*
X1367496Y1042835D01*
X1369437Y1041917D01*
X1371278Y1040813D01*
X1373002Y1039535D01*
X1374593Y1038093D01*
X1376035Y1036502D01*
X1377313Y1034778D01*
X1378417Y1032937D01*
X1379335Y1030996D01*
X1380058Y1028975D01*
X1380580Y1026893D01*
X1380895Y1024769D01*
X1381000Y1022625D01*
X1381000Y978875D01*
X1380895Y976731D01*
X1380580Y974607D01*
X1380058Y972525D01*
X1379335Y970504D01*
X1378417Y968563D01*
X1377313Y966722D01*
X1376035Y964998D01*
X1374593Y963407D01*
X1373002Y961965D01*
X1371278Y960687D01*
X1369437Y959583D01*
X1367496Y958665D01*
X1365475Y957942D01*
X1363393Y957420D01*
X1361269Y957105D01*
X1359125Y957000D01*
X1307875Y957000D01*
X1305731Y957105D01*
X1303607Y957420D01*
X1301525Y957942D01*
X1299504Y958665D01*
X1297563Y959583D01*
X1295722Y960687D01*
X1293998Y961965D01*
X1292407Y963407D01*
X1290965Y964998D01*
X1289687Y966722D01*
X1288583Y968563D01*
X1287665Y970504D01*
X1286942Y972525D01*
X1286420Y974607D01*
X1286105Y976731D01*
X1286000Y978875D01*
X1286000Y1022625D01*
X1286105Y1024769D01*
X1286420Y1026893D01*
X1286942Y1028975D01*
X1287665Y1030996D01*
X1288583Y1032937D01*
X1289687Y1034778D01*
X1290965Y1036502D01*
X1292407Y1038093D01*
X1293998Y1039535D01*
X1295722Y1040813D01*
X1297563Y1041917D01*
X1299504Y1042835D01*
X1301525Y1043558D01*
X1303607Y1044080D01*
X1305731Y1044395D01*
X1307875Y1044500D01*
X1359125Y1044500D01*
X1361269Y1044395D01*
G37*
G36*
X1361269Y1201895D02*
G01*
X1363393Y1201580D01*
X1365475Y1201058D01*
X1367496Y1200335D01*
X1369437Y1199417D01*
X1371278Y1198313D01*
X1373002Y1197035D01*
X1374593Y1195593D01*
X1376035Y1194002D01*
X1377313Y1192278D01*
X1378417Y1190437D01*
X1379335Y1188496D01*
X1380058Y1186475D01*
X1380580Y1184393D01*
X1380895Y1182269D01*
X1381000Y1180125D01*
X1381000Y1136375D01*
X1380895Y1134231D01*
X1380580Y1132107D01*
X1380058Y1130025D01*
X1379335Y1128004D01*
X1378417Y1126063D01*
X1377313Y1124222D01*
X1376035Y1122498D01*
X1374593Y1120907D01*
X1373002Y1119465D01*
X1371278Y1118187D01*
X1369437Y1117083D01*
X1367496Y1116165D01*
X1365475Y1115442D01*
X1363393Y1114920D01*
X1361269Y1114605D01*
X1359125Y1114500D01*
X1307875Y1114500D01*
X1305731Y1114605D01*
X1303607Y1114920D01*
X1301525Y1115442D01*
X1299504Y1116165D01*
X1297563Y1117083D01*
X1295722Y1118187D01*
X1293998Y1119465D01*
X1292407Y1120907D01*
X1290965Y1122498D01*
X1289687Y1124222D01*
X1288583Y1126063D01*
X1287665Y1128004D01*
X1286942Y1130025D01*
X1286420Y1132107D01*
X1286105Y1134231D01*
X1286000Y1136375D01*
X1286000Y1180125D01*
X1286105Y1182269D01*
X1286420Y1184393D01*
X1286942Y1186475D01*
X1287665Y1188496D01*
X1288583Y1190437D01*
X1289687Y1192278D01*
X1290965Y1194002D01*
X1292407Y1195593D01*
X1293998Y1197035D01*
X1295722Y1198313D01*
X1297563Y1199417D01*
X1299504Y1200335D01*
X1301525Y1201058D01*
X1303607Y1201580D01*
X1305731Y1201895D01*
X1307875Y1202000D01*
X1359125Y1202000D01*
X1361269Y1201895D01*
G37*
M02*
