%TF.GenerationSoftware,KiCad,Pcbnew,5.1.5+dfsg1-2~bpo10+1*%
%TF.CreationDate,Date%
%TF.ProjectId,ProMicro_ESP12E,50726f4d-6963-4726-9f5f-455350313245,v1.0*%
%TF.SameCoordinates,Original*%
%TF.FileFunction,Legend,Bot*%
%TF.FilePolarity,Positive*%
%FSLAX45Y45*%
G04 Gerber Fmt 4.5, Leading zero omitted, Abs format (unit mm)*
G04 Created by KiCad*
%MOMM*%
%LPD*%
G04 APERTURE LIST*
%ADD10C,0.200000*%
%ADD11C,0.250000*%
%ADD12C,0.100000*%
%ADD13C,0.010000*%
%ADD14C,0.120000*%
%ADD15O,1.600000X1.600000*%
%ADD16R,1.600000X1.600000*%
%ADD17O,1.700000X1.700000*%
%ADD18R,1.700000X1.700000*%
G04 APERTURE END LIST*
D10*
X808357Y812786D02*
X861690Y793738D01*
X808357Y774690D01*
X861690Y702310D02*
X861690Y748024D01*
X861690Y725167D02*
X781690Y725167D01*
X793119Y732786D01*
X800738Y740405D01*
X804548Y748024D01*
X854071Y668024D02*
X857881Y664214D01*
X861690Y668024D01*
X857881Y671833D01*
X854071Y668024D01*
X861690Y668024D01*
X781690Y614691D02*
X781690Y607072D01*
X785500Y599452D01*
X789309Y595643D01*
X796928Y591833D01*
X812167Y588024D01*
X831214Y588024D01*
X846452Y591833D01*
X854071Y595643D01*
X857881Y599452D01*
X861690Y607072D01*
X861690Y614691D01*
X857881Y622310D01*
X854071Y626119D01*
X846452Y629929D01*
X831214Y633738D01*
X812167Y633738D01*
X796928Y629929D01*
X789309Y626119D01*
X785500Y622310D01*
X781690Y614691D01*
D11*
X1315429Y-84833D02*
X1248762Y-84833D01*
X1305905Y-84833D02*
X1310667Y-80071D01*
X1315429Y-70548D01*
X1315429Y-56262D01*
X1310667Y-46738D01*
X1301143Y-41976D01*
X1248762Y-41976D01*
X1253524Y43738D02*
X1248762Y34214D01*
X1248762Y15167D01*
X1253524Y5643D01*
X1263048Y881D01*
X1301143Y881D01*
X1310667Y5643D01*
X1315429Y15167D01*
X1315429Y34214D01*
X1310667Y43738D01*
X1301143Y48500D01*
X1291619Y48500D01*
X1282095Y881D01*
X1248762Y91357D02*
X1315429Y91357D01*
X1296381Y91357D02*
X1305905Y96119D01*
X1310667Y100881D01*
X1315429Y110405D01*
X1315429Y119929D01*
X1248762Y196119D02*
X1348762Y196119D01*
X1253524Y196119D02*
X1248762Y186595D01*
X1248762Y167548D01*
X1253524Y158024D01*
X1258286Y153262D01*
X1267810Y148500D01*
X1296381Y148500D01*
X1305905Y153262D01*
X1310667Y158024D01*
X1315429Y167548D01*
X1315429Y186595D01*
X1310667Y196119D01*
X1315429Y234214D02*
X1248762Y258024D01*
X1315429Y281833D02*
X1248762Y258024D01*
X1224952Y248500D01*
X1220190Y243738D01*
X1215429Y234214D01*
X1253524Y315167D02*
X1248762Y324691D01*
X1248762Y343738D01*
X1253524Y353262D01*
X1263048Y358024D01*
X1267810Y358024D01*
X1277333Y353262D01*
X1282095Y343738D01*
X1282095Y329452D01*
X1286857Y319929D01*
X1296381Y315167D01*
X1301143Y315167D01*
X1310667Y319929D01*
X1315429Y329452D01*
X1315429Y343738D01*
X1310667Y353262D01*
X1253524Y443738D02*
X1248762Y434214D01*
X1248762Y415167D01*
X1253524Y405643D01*
X1258286Y400881D01*
X1267810Y396119D01*
X1296381Y396119D01*
X1305905Y400881D01*
X1310667Y405643D01*
X1315429Y415167D01*
X1315429Y434214D01*
X1310667Y443738D01*
X1248762Y500881D02*
X1253524Y491357D01*
X1258286Y486595D01*
X1267810Y481833D01*
X1296381Y481833D01*
X1305905Y486595D01*
X1310667Y491357D01*
X1315429Y500881D01*
X1315429Y515167D01*
X1310667Y524691D01*
X1305905Y529452D01*
X1296381Y534214D01*
X1267810Y534214D01*
X1258286Y529452D01*
X1253524Y524691D01*
X1248762Y515167D01*
X1248762Y500881D01*
X1315429Y619929D02*
X1248762Y619929D01*
X1315429Y577072D02*
X1263048Y577072D01*
X1253524Y581833D01*
X1248762Y591357D01*
X1248762Y605643D01*
X1253524Y615167D01*
X1258286Y619929D01*
X1315429Y653262D02*
X1315429Y691357D01*
X1348762Y667548D02*
X1263048Y667548D01*
X1253524Y672310D01*
X1248762Y681833D01*
X1248762Y691357D01*
X1258286Y724690D02*
X1253524Y729452D01*
X1248762Y724690D01*
X1253524Y719929D01*
X1258286Y724690D01*
X1248762Y724690D01*
X1315429Y815167D02*
X1234476Y815167D01*
X1224952Y810405D01*
X1220190Y805643D01*
X1215429Y796119D01*
X1215429Y781833D01*
X1220190Y772310D01*
X1253524Y815167D02*
X1248762Y805643D01*
X1248762Y786595D01*
X1253524Y777071D01*
X1258286Y772310D01*
X1267810Y767548D01*
X1296381Y767548D01*
X1305905Y772310D01*
X1310667Y777071D01*
X1315429Y786595D01*
X1315429Y805643D01*
X1310667Y815167D01*
X1248762Y862786D02*
X1315429Y862786D01*
X1348762Y862786D02*
X1344000Y858024D01*
X1339238Y862786D01*
X1344000Y867548D01*
X1348762Y862786D01*
X1339238Y862786D01*
X1315429Y896119D02*
X1315429Y934214D01*
X1348762Y910405D02*
X1263048Y910405D01*
X1253524Y915167D01*
X1248762Y924690D01*
X1248762Y934214D01*
X1248762Y967548D02*
X1348762Y967548D01*
X1248762Y1010405D02*
X1301143Y1010405D01*
X1310667Y1005643D01*
X1315429Y996119D01*
X1315429Y981833D01*
X1310667Y972310D01*
X1305905Y967548D01*
X1315429Y1100881D02*
X1248762Y1100881D01*
X1315429Y1058024D02*
X1263048Y1058024D01*
X1253524Y1062786D01*
X1248762Y1072310D01*
X1248762Y1086595D01*
X1253524Y1096119D01*
X1258286Y1100881D01*
X1248762Y1148500D02*
X1348762Y1148500D01*
X1310667Y1148500D02*
X1315429Y1158024D01*
X1315429Y1177072D01*
X1310667Y1186595D01*
X1305905Y1191357D01*
X1296381Y1196119D01*
X1267810Y1196119D01*
X1258286Y1191357D01*
X1253524Y1186595D01*
X1248762Y1177072D01*
X1248762Y1158024D01*
X1253524Y1148500D01*
X1258286Y1238976D02*
X1253524Y1243738D01*
X1248762Y1238976D01*
X1253524Y1234214D01*
X1258286Y1238976D01*
X1248762Y1238976D01*
X1248762Y1286595D02*
X1315429Y1286595D01*
X1348762Y1286595D02*
X1344000Y1281833D01*
X1339238Y1286595D01*
X1344000Y1291357D01*
X1348762Y1286595D01*
X1339238Y1286595D01*
X1248762Y1348500D02*
X1253524Y1338976D01*
X1258286Y1334214D01*
X1267810Y1329452D01*
X1296381Y1329452D01*
X1305905Y1334214D01*
X1310667Y1338976D01*
X1315429Y1348500D01*
X1315429Y1362786D01*
X1310667Y1372310D01*
X1305905Y1377072D01*
X1296381Y1381833D01*
X1267810Y1381833D01*
X1258286Y1377072D01*
X1253524Y1372310D01*
X1248762Y1362786D01*
X1248762Y1348500D01*
X1353524Y1496119D02*
X1224952Y1410405D01*
X1073762Y60405D02*
X1173762Y60405D01*
X1173762Y98500D01*
X1169000Y108024D01*
X1164238Y112786D01*
X1154714Y117548D01*
X1140429Y117548D01*
X1130905Y112786D01*
X1126143Y108024D01*
X1121381Y98500D01*
X1121381Y60405D01*
X1073762Y160405D02*
X1140429Y160405D01*
X1121381Y160405D02*
X1130905Y165167D01*
X1135667Y169929D01*
X1140429Y179452D01*
X1140429Y188976D01*
X1073762Y236595D02*
X1078524Y227071D01*
X1083286Y222310D01*
X1092810Y217548D01*
X1121381Y217548D01*
X1130905Y222310D01*
X1135667Y227071D01*
X1140429Y236595D01*
X1140429Y250881D01*
X1135667Y260405D01*
X1130905Y265167D01*
X1121381Y269929D01*
X1092810Y269929D01*
X1083286Y265167D01*
X1078524Y260405D01*
X1073762Y250881D01*
X1073762Y236595D01*
X1073762Y312786D02*
X1173762Y312786D01*
X1102333Y346119D01*
X1173762Y379452D01*
X1073762Y379452D01*
X1073762Y427071D02*
X1140429Y427071D01*
X1173762Y427071D02*
X1169000Y422310D01*
X1164238Y427071D01*
X1169000Y431833D01*
X1173762Y427071D01*
X1164238Y427071D01*
X1078524Y517548D02*
X1073762Y508024D01*
X1073762Y488976D01*
X1078524Y479452D01*
X1083286Y474690D01*
X1092810Y469929D01*
X1121381Y469929D01*
X1130905Y474690D01*
X1135667Y479452D01*
X1140429Y488976D01*
X1140429Y508024D01*
X1135667Y517548D01*
X1073762Y560405D02*
X1140429Y560405D01*
X1121381Y560405D02*
X1130905Y565167D01*
X1135667Y569929D01*
X1140429Y579452D01*
X1140429Y588976D01*
X1073762Y636595D02*
X1078524Y627072D01*
X1083286Y622310D01*
X1092810Y617548D01*
X1121381Y617548D01*
X1130905Y622310D01*
X1135667Y627072D01*
X1140429Y636595D01*
X1140429Y650881D01*
X1135667Y660405D01*
X1130905Y665167D01*
X1121381Y669929D01*
X1092810Y669929D01*
X1083286Y665167D01*
X1078524Y660405D01*
X1073762Y650881D01*
X1073762Y636595D01*
X1178524Y784214D02*
X1049952Y698500D01*
X1126143Y817548D02*
X1126143Y850881D01*
X1073762Y865167D02*
X1073762Y817548D01*
X1173762Y817548D01*
X1173762Y865167D01*
X1078524Y903262D02*
X1073762Y917548D01*
X1073762Y941357D01*
X1078524Y950881D01*
X1083286Y955643D01*
X1092810Y960405D01*
X1102333Y960405D01*
X1111857Y955643D01*
X1116619Y950881D01*
X1121381Y941357D01*
X1126143Y922310D01*
X1130905Y912786D01*
X1135667Y908024D01*
X1145190Y903262D01*
X1154714Y903262D01*
X1164238Y908024D01*
X1169000Y912786D01*
X1173762Y922310D01*
X1173762Y946119D01*
X1169000Y960405D01*
X1073762Y1003262D02*
X1173762Y1003262D01*
X1173762Y1041357D01*
X1169000Y1050881D01*
X1164238Y1055643D01*
X1154714Y1060405D01*
X1140429Y1060405D01*
X1130905Y1055643D01*
X1126143Y1050881D01*
X1121381Y1041357D01*
X1121381Y1003262D01*
X1073762Y1155643D02*
X1073762Y1098500D01*
X1073762Y1127072D02*
X1173762Y1127072D01*
X1159476Y1117548D01*
X1149952Y1108024D01*
X1145190Y1098500D01*
X1164238Y1193738D02*
X1169000Y1198500D01*
X1173762Y1208024D01*
X1173762Y1231833D01*
X1169000Y1241357D01*
X1164238Y1246119D01*
X1154714Y1250881D01*
X1145190Y1250881D01*
X1130905Y1246119D01*
X1073762Y1188976D01*
X1073762Y1250881D01*
X1126143Y1293738D02*
X1126143Y1327072D01*
X1073762Y1341357D02*
X1073762Y1293738D01*
X1173762Y1293738D01*
X1173762Y1341357D01*
D12*
X-63500Y3175000D02*
G75*
G03X-127000Y3111500I0J-63500D01*
G01*
X1651000Y3111500D02*
G75*
G03X1587500Y3175000I-63500J0D01*
G01*
X1587500Y-127000D02*
G75*
G03X1651000Y-63500I0J63500D01*
G01*
X-127000Y-63500D02*
G75*
G03X-63500Y-127000I63500J0D01*
G01*
X-127000Y3111500D02*
X-127000Y-63500D01*
X1587500Y3175000D02*
X-63500Y3175000D01*
X1651000Y-63500D02*
X1651000Y3111500D01*
X-63500Y-127000D02*
X1587500Y-127000D01*
D13*
G36*
X168735Y688109D02*
G01*
X168778Y680255D01*
X168894Y674570D01*
X169121Y670690D01*
X169494Y668246D01*
X170051Y666874D01*
X170827Y666206D01*
X171861Y665876D01*
X171994Y665844D01*
X174408Y665344D01*
X179170Y664417D01*
X185774Y663161D01*
X193713Y661671D01*
X202480Y660045D01*
X202787Y659988D01*
X211379Y658359D01*
X218970Y656835D01*
X225104Y655514D01*
X229328Y654495D01*
X231185Y653875D01*
X231218Y653846D01*
X232125Y652021D01*
X233637Y648260D01*
X235426Y643373D01*
X235436Y643346D01*
X237749Y637191D01*
X240696Y629934D01*
X243660Y623094D01*
X243806Y622771D01*
X248863Y611630D01*
X232016Y586960D01*
X226880Y579392D01*
X222289Y572537D01*
X218503Y566791D01*
X215784Y562552D01*
X214392Y560218D01*
X214289Y559996D01*
X214748Y558299D01*
X216965Y555130D01*
X221045Y550365D01*
X227090Y543880D01*
X233523Y537260D01*
X239861Y530879D01*
X245645Y525167D01*
X250517Y520469D01*
X254121Y517130D01*
X256098Y515491D01*
X256200Y515431D01*
X257557Y515249D01*
X259773Y515932D01*
X263148Y517646D01*
X267980Y520561D01*
X274569Y524845D01*
X283052Y530555D01*
X290518Y535623D01*
X297214Y540154D01*
X302752Y543885D01*
X306742Y546555D01*
X308796Y547902D01*
X308936Y547986D01*
X310904Y547822D01*
X314729Y546576D01*
X319689Y544495D01*
X321273Y543754D01*
X328329Y540519D01*
X336335Y537067D01*
X343263Y534264D01*
X348405Y532243D01*
X352312Y530639D01*
X354354Y529711D01*
X354511Y529596D01*
X354772Y527890D01*
X355486Y523870D01*
X356552Y518070D01*
X357868Y511024D01*
X359333Y503266D01*
X360845Y495333D01*
X362302Y487757D01*
X363602Y481074D01*
X364644Y475817D01*
X365327Y472522D01*
X365520Y471714D01*
X365996Y470879D01*
X367072Y470249D01*
X369110Y469795D01*
X372473Y469490D01*
X377525Y469303D01*
X384629Y469208D01*
X394148Y469176D01*
X398049Y469174D01*
X429780Y469174D01*
X431284Y476794D01*
X432099Y481034D01*
X433290Y487360D01*
X434712Y495004D01*
X436221Y503196D01*
X436635Y505460D01*
X438105Y513019D01*
X439550Y519605D01*
X440837Y524663D01*
X441832Y527643D01*
X442129Y528139D01*
X444228Y529357D01*
X448297Y531105D01*
X453532Y533042D01*
X454660Y533427D01*
X461652Y535966D01*
X469542Y539118D01*
X476627Y542203D01*
X476659Y542218D01*
X487773Y547355D01*
X512625Y530460D01*
X537477Y513565D01*
X559206Y535257D01*
X565673Y541818D01*
X571373Y547802D01*
X576003Y552873D01*
X579258Y556695D01*
X580834Y558933D01*
X580934Y559253D01*
X580147Y561137D01*
X577958Y564982D01*
X574627Y570367D01*
X570413Y576872D01*
X565694Y583906D01*
X560881Y591045D01*
X556693Y597409D01*
X553387Y602596D01*
X551222Y606201D01*
X550454Y607813D01*
X551104Y609781D01*
X552815Y613513D01*
X555233Y618238D01*
X555501Y618739D01*
X558693Y625102D01*
X560258Y629466D01*
X560275Y632180D01*
X558820Y633594D01*
X558800Y633603D01*
X557078Y634310D01*
X552990Y635996D01*
X546853Y638531D01*
X538982Y641783D01*
X529695Y645622D01*
X519307Y649918D01*
X509250Y654078D01*
X498152Y658650D01*
X487870Y662847D01*
X478721Y666545D01*
X471020Y669617D01*
X465081Y671938D01*
X461221Y673381D01*
X459780Y673826D01*
X458127Y672710D01*
X455493Y669793D01*
X452589Y665903D01*
X443404Y654824D01*
X432876Y646165D01*
X421227Y640028D01*
X408678Y636519D01*
X395451Y635739D01*
X389346Y636306D01*
X376679Y639392D01*
X365494Y644708D01*
X355900Y651923D01*
X348008Y660708D01*
X341927Y670734D01*
X337769Y681669D01*
X335643Y693185D01*
X335660Y704952D01*
X337930Y716641D01*
X342564Y727921D01*
X349671Y738463D01*
X353691Y742863D01*
X364013Y751302D01*
X375292Y757178D01*
X387201Y760530D01*
X399409Y761396D01*
X411589Y759818D01*
X423412Y755832D01*
X434547Y749479D01*
X444668Y740798D01*
X452589Y731097D01*
X455616Y727056D01*
X458222Y724202D01*
X459782Y723174D01*
X461484Y723712D01*
X465550Y725242D01*
X471664Y727639D01*
X479512Y730776D01*
X488778Y734527D01*
X499147Y738767D01*
X509253Y742934D01*
X520361Y747531D01*
X530654Y751789D01*
X539817Y755578D01*
X547532Y758766D01*
X553483Y761223D01*
X557354Y762818D01*
X558800Y763409D01*
X560269Y764805D01*
X560264Y767506D01*
X558710Y771859D01*
X555528Y778211D01*
X555501Y778261D01*
X553032Y783044D01*
X551234Y786910D01*
X550461Y789090D01*
X550454Y789187D01*
X551238Y790828D01*
X553417Y794451D01*
X556733Y799653D01*
X560929Y806027D01*
X565694Y813094D01*
X570519Y820288D01*
X574715Y826773D01*
X578023Y832126D01*
X580182Y835930D01*
X580934Y837747D01*
X579946Y839419D01*
X577183Y842782D01*
X572950Y847499D01*
X567551Y853234D01*
X561290Y859652D01*
X559198Y861750D01*
X537462Y883450D01*
X513222Y866933D01*
X505778Y861914D01*
X499097Y857508D01*
X493566Y853964D01*
X489573Y851528D01*
X487504Y850448D01*
X487356Y850416D01*
X485406Y850986D01*
X481482Y852517D01*
X476243Y854746D01*
X472735Y856311D01*
X466020Y859236D01*
X459236Y861991D01*
X453503Y864126D01*
X451757Y864706D01*
X447094Y866355D01*
X443490Y867966D01*
X442129Y868851D01*
X441295Y870804D01*
X440114Y875067D01*
X438718Y881085D01*
X437242Y888308D01*
X436635Y891540D01*
X435127Y899748D01*
X433667Y907620D01*
X432398Y914389D01*
X431464Y919284D01*
X431284Y920206D01*
X429780Y927826D01*
X398049Y927826D01*
X387615Y927809D01*
X379721Y927738D01*
X374004Y927587D01*
X370100Y927325D01*
X367646Y926925D01*
X366280Y926359D01*
X365639Y925598D01*
X365520Y925286D01*
X365098Y923402D01*
X364256Y919241D01*
X363096Y913337D01*
X361719Y906224D01*
X360228Y898437D01*
X358723Y890511D01*
X357307Y882980D01*
X356081Y876379D01*
X355146Y871241D01*
X354605Y868102D01*
X354511Y867404D01*
X353260Y866771D01*
X349925Y865371D01*
X345138Y863464D01*
X343263Y862737D01*
X336020Y859800D01*
X328017Y856343D01*
X321273Y853246D01*
X316116Y850968D01*
X311879Y849452D01*
X309283Y848946D01*
X308936Y849026D01*
X307294Y850096D01*
X303642Y852538D01*
X298369Y856090D01*
X291864Y860491D01*
X284515Y865478D01*
X283065Y866464D01*
X274470Y872251D01*
X267926Y876504D01*
X263130Y879395D01*
X259782Y881091D01*
X257579Y881763D01*
X256222Y881581D01*
X256213Y881576D01*
X254430Y880141D01*
X250982Y876968D01*
X246227Y872399D01*
X240522Y866780D01*
X234225Y860453D01*
X233523Y859740D01*
X225802Y851767D01*
X220133Y845614D01*
X216411Y841158D01*
X214531Y838274D01*
X214289Y837004D01*
X215347Y835151D01*
X217792Y831304D01*
X221361Y825861D01*
X225795Y819220D01*
X230831Y811777D01*
X232016Y810040D01*
X248863Y785370D01*
X243806Y774229D01*
X240859Y767454D01*
X237896Y760182D01*
X235533Y753930D01*
X235436Y753654D01*
X233646Y748764D01*
X232132Y744994D01*
X231221Y743157D01*
X231218Y743154D01*
X229572Y742571D01*
X225522Y741581D01*
X219524Y740280D01*
X212034Y738769D01*
X203506Y737145D01*
X202787Y737012D01*
X194001Y735382D01*
X186026Y733887D01*
X179368Y732621D01*
X174535Y731681D01*
X172033Y731165D01*
X171994Y731156D01*
X170930Y730841D01*
X170126Y730230D01*
X169547Y728955D01*
X169155Y726650D01*
X168914Y722949D01*
X168787Y717486D01*
X168737Y709893D01*
X168729Y699806D01*
X168729Y698500D01*
X168735Y688109D01*
G37*
X168735Y688109D02*
X168778Y680255D01*
X168894Y674570D01*
X169121Y670690D01*
X169494Y668246D01*
X170051Y666874D01*
X170827Y666206D01*
X171861Y665876D01*
X171994Y665844D01*
X174408Y665344D01*
X179170Y664417D01*
X185774Y663161D01*
X193713Y661671D01*
X202480Y660045D01*
X202787Y659988D01*
X211379Y658359D01*
X218970Y656835D01*
X225104Y655514D01*
X229328Y654495D01*
X231185Y653875D01*
X231218Y653846D01*
X232125Y652021D01*
X233637Y648260D01*
X235426Y643373D01*
X235436Y643346D01*
X237749Y637191D01*
X240696Y629934D01*
X243660Y623094D01*
X243806Y622771D01*
X248863Y611630D01*
X232016Y586960D01*
X226880Y579392D01*
X222289Y572537D01*
X218503Y566791D01*
X215784Y562552D01*
X214392Y560218D01*
X214289Y559996D01*
X214748Y558299D01*
X216965Y555130D01*
X221045Y550365D01*
X227090Y543880D01*
X233523Y537260D01*
X239861Y530879D01*
X245645Y525167D01*
X250517Y520469D01*
X254121Y517130D01*
X256098Y515491D01*
X256200Y515431D01*
X257557Y515249D01*
X259773Y515932D01*
X263148Y517646D01*
X267980Y520561D01*
X274569Y524845D01*
X283052Y530555D01*
X290518Y535623D01*
X297214Y540154D01*
X302752Y543885D01*
X306742Y546555D01*
X308796Y547902D01*
X308936Y547986D01*
X310904Y547822D01*
X314729Y546576D01*
X319689Y544495D01*
X321273Y543754D01*
X328329Y540519D01*
X336335Y537067D01*
X343263Y534264D01*
X348405Y532243D01*
X352312Y530639D01*
X354354Y529711D01*
X354511Y529596D01*
X354772Y527890D01*
X355486Y523870D01*
X356552Y518070D01*
X357868Y511024D01*
X359333Y503266D01*
X360845Y495333D01*
X362302Y487757D01*
X363602Y481074D01*
X364644Y475817D01*
X365327Y472522D01*
X365520Y471714D01*
X365996Y470879D01*
X367072Y470249D01*
X369110Y469795D01*
X372473Y469490D01*
X377525Y469303D01*
X384629Y469208D01*
X394148Y469176D01*
X398049Y469174D01*
X429780Y469174D01*
X431284Y476794D01*
X432099Y481034D01*
X433290Y487360D01*
X434712Y495004D01*
X436221Y503196D01*
X436635Y505460D01*
X438105Y513019D01*
X439550Y519605D01*
X440837Y524663D01*
X441832Y527643D01*
X442129Y528139D01*
X444228Y529357D01*
X448297Y531105D01*
X453532Y533042D01*
X454660Y533427D01*
X461652Y535966D01*
X469542Y539118D01*
X476627Y542203D01*
X476659Y542218D01*
X487773Y547355D01*
X512625Y530460D01*
X537477Y513565D01*
X559206Y535257D01*
X565673Y541818D01*
X571373Y547802D01*
X576003Y552873D01*
X579258Y556695D01*
X580834Y558933D01*
X580934Y559253D01*
X580147Y561137D01*
X577958Y564982D01*
X574627Y570367D01*
X570413Y576872D01*
X565694Y583906D01*
X560881Y591045D01*
X556693Y597409D01*
X553387Y602596D01*
X551222Y606201D01*
X550454Y607813D01*
X551104Y609781D01*
X552815Y613513D01*
X555233Y618238D01*
X555501Y618739D01*
X558693Y625102D01*
X560258Y629466D01*
X560275Y632180D01*
X558820Y633594D01*
X558800Y633603D01*
X557078Y634310D01*
X552990Y635996D01*
X546853Y638531D01*
X538982Y641783D01*
X529695Y645622D01*
X519307Y649918D01*
X509250Y654078D01*
X498152Y658650D01*
X487870Y662847D01*
X478721Y666545D01*
X471020Y669617D01*
X465081Y671938D01*
X461221Y673381D01*
X459780Y673826D01*
X458127Y672710D01*
X455493Y669793D01*
X452589Y665903D01*
X443404Y654824D01*
X432876Y646165D01*
X421227Y640028D01*
X408678Y636519D01*
X395451Y635739D01*
X389346Y636306D01*
X376679Y639392D01*
X365494Y644708D01*
X355900Y651923D01*
X348008Y660708D01*
X341927Y670734D01*
X337769Y681669D01*
X335643Y693185D01*
X335660Y704952D01*
X337930Y716641D01*
X342564Y727921D01*
X349671Y738463D01*
X353691Y742863D01*
X364013Y751302D01*
X375292Y757178D01*
X387201Y760530D01*
X399409Y761396D01*
X411589Y759818D01*
X423412Y755832D01*
X434547Y749479D01*
X444668Y740798D01*
X452589Y731097D01*
X455616Y727056D01*
X458222Y724202D01*
X459782Y723174D01*
X461484Y723712D01*
X465550Y725242D01*
X471664Y727639D01*
X479512Y730776D01*
X488778Y734527D01*
X499147Y738767D01*
X509253Y742934D01*
X520361Y747531D01*
X530654Y751789D01*
X539817Y755578D01*
X547532Y758766D01*
X553483Y761223D01*
X557354Y762818D01*
X558800Y763409D01*
X560269Y764805D01*
X560264Y767506D01*
X558710Y771859D01*
X555528Y778211D01*
X555501Y778261D01*
X553032Y783044D01*
X551234Y786910D01*
X550461Y789090D01*
X550454Y789187D01*
X551238Y790828D01*
X553417Y794451D01*
X556733Y799653D01*
X560929Y806027D01*
X565694Y813094D01*
X570519Y820288D01*
X574715Y826773D01*
X578023Y832126D01*
X580182Y835930D01*
X580934Y837747D01*
X579946Y839419D01*
X577183Y842782D01*
X572950Y847499D01*
X567551Y853234D01*
X561290Y859652D01*
X559198Y861750D01*
X537462Y883450D01*
X513222Y866933D01*
X505778Y861914D01*
X499097Y857508D01*
X493566Y853964D01*
X489573Y851528D01*
X487504Y850448D01*
X487356Y850416D01*
X485406Y850986D01*
X481482Y852517D01*
X476243Y854746D01*
X472735Y856311D01*
X466020Y859236D01*
X459236Y861991D01*
X453503Y864126D01*
X451757Y864706D01*
X447094Y866355D01*
X443490Y867966D01*
X442129Y868851D01*
X441295Y870804D01*
X440114Y875067D01*
X438718Y881085D01*
X437242Y888308D01*
X436635Y891540D01*
X435127Y899748D01*
X433667Y907620D01*
X432398Y914389D01*
X431464Y919284D01*
X431284Y920206D01*
X429780Y927826D01*
X398049Y927826D01*
X387615Y927809D01*
X379721Y927738D01*
X374004Y927587D01*
X370100Y927325D01*
X367646Y926925D01*
X366280Y926359D01*
X365639Y925598D01*
X365520Y925286D01*
X365098Y923402D01*
X364256Y919241D01*
X363096Y913337D01*
X361719Y906224D01*
X360228Y898437D01*
X358723Y890511D01*
X357307Y882980D01*
X356081Y876379D01*
X355146Y871241D01*
X354605Y868102D01*
X354511Y867404D01*
X353260Y866771D01*
X349925Y865371D01*
X345138Y863464D01*
X343263Y862737D01*
X336020Y859800D01*
X328017Y856343D01*
X321273Y853246D01*
X316116Y850968D01*
X311879Y849452D01*
X309283Y848946D01*
X308936Y849026D01*
X307294Y850096D01*
X303642Y852538D01*
X298369Y856090D01*
X291864Y860491D01*
X284515Y865478D01*
X283065Y866464D01*
X274470Y872251D01*
X267926Y876504D01*
X263130Y879395D01*
X259782Y881091D01*
X257579Y881763D01*
X256222Y881581D01*
X256213Y881576D01*
X254430Y880141D01*
X250982Y876968D01*
X246227Y872399D01*
X240522Y866780D01*
X234225Y860453D01*
X233523Y859740D01*
X225802Y851767D01*
X220133Y845614D01*
X216411Y841158D01*
X214531Y838274D01*
X214289Y837004D01*
X215347Y835151D01*
X217792Y831304D01*
X221361Y825861D01*
X225795Y819220D01*
X230831Y811777D01*
X232016Y810040D01*
X248863Y785370D01*
X243806Y774229D01*
X240859Y767454D01*
X237896Y760182D01*
X235533Y753930D01*
X235436Y753654D01*
X233646Y748764D01*
X232132Y744994D01*
X231221Y743157D01*
X231218Y743154D01*
X229572Y742571D01*
X225522Y741581D01*
X219524Y740280D01*
X212034Y738769D01*
X203506Y737145D01*
X202787Y737012D01*
X194001Y735382D01*
X186026Y733887D01*
X179368Y732621D01*
X174535Y731681D01*
X172033Y731165D01*
X171994Y731156D01*
X170930Y730841D01*
X170126Y730230D01*
X169547Y728955D01*
X169155Y726650D01*
X168914Y722949D01*
X168787Y717486D01*
X168737Y709893D01*
X168729Y699806D01*
X168729Y698500D01*
X168735Y688109D01*
G36*
X641197Y383140D02*
G01*
X644950Y377398D01*
X648310Y374628D01*
X654406Y372434D01*
X659231Y372259D01*
X665682Y372654D01*
X672193Y387531D01*
X675520Y394765D01*
X678196Y399492D01*
X680514Y401949D01*
X682767Y402376D01*
X685246Y401011D01*
X686889Y399506D01*
X689524Y395125D01*
X689708Y390361D01*
X687655Y385985D01*
X683575Y382771D01*
X682135Y382196D01*
X677636Y379442D01*
X675718Y376274D01*
X674078Y371929D01*
X680297Y371929D01*
X684528Y372313D01*
X688097Y373818D01*
X692194Y376972D01*
X692727Y377441D01*
X696372Y380949D01*
X698328Y383965D01*
X699228Y387738D01*
X699523Y390866D01*
X699596Y396461D01*
X698666Y400444D01*
X697285Y402929D01*
X694247Y406834D01*
X690961Y409537D01*
X686829Y411248D01*
X681252Y412176D01*
X673631Y412531D01*
X669762Y412559D01*
X665125Y412463D01*
X665125Y403699D01*
X667613Y403598D01*
X668020Y403344D01*
X667467Y401673D01*
X666002Y398075D01*
X663919Y393267D01*
X663471Y392261D01*
X660381Y386185D01*
X657666Y382837D01*
X655122Y382101D01*
X652548Y383861D01*
X651411Y385314D01*
X649136Y390559D01*
X649512Y395468D01*
X652288Y399577D01*
X657215Y402424D01*
X661126Y403337D01*
X665125Y403699D01*
X665125Y412463D01*
X660725Y412371D01*
X654038Y411680D01*
X649170Y410312D01*
X645585Y408090D01*
X642751Y404843D01*
X641836Y403427D01*
X639451Y396995D01*
X639301Y389953D01*
X641197Y383140D01*
G37*
X641197Y383140D02*
X644950Y377398D01*
X648310Y374628D01*
X654406Y372434D01*
X659231Y372259D01*
X665682Y372654D01*
X672193Y387531D01*
X675520Y394765D01*
X678196Y399492D01*
X680514Y401949D01*
X682767Y402376D01*
X685246Y401011D01*
X686889Y399506D01*
X689524Y395125D01*
X689708Y390361D01*
X687655Y385985D01*
X683575Y382771D01*
X682135Y382196D01*
X677636Y379442D01*
X675718Y376274D01*
X674078Y371929D01*
X680297Y371929D01*
X684528Y372313D01*
X688097Y373818D01*
X692194Y376972D01*
X692727Y377441D01*
X696372Y380949D01*
X698328Y383965D01*
X699228Y387738D01*
X699523Y390866D01*
X699596Y396461D01*
X698666Y400444D01*
X697285Y402929D01*
X694247Y406834D01*
X690961Y409537D01*
X686829Y411248D01*
X681252Y412176D01*
X673631Y412531D01*
X669762Y412559D01*
X665125Y412463D01*
X665125Y403699D01*
X667613Y403598D01*
X668020Y403344D01*
X667467Y401673D01*
X666002Y398075D01*
X663919Y393267D01*
X663471Y392261D01*
X660381Y386185D01*
X657666Y382837D01*
X655122Y382101D01*
X652548Y383861D01*
X651411Y385314D01*
X649136Y390559D01*
X649512Y395468D01*
X652288Y399577D01*
X657215Y402424D01*
X661126Y403337D01*
X665125Y403699D01*
X665125Y412463D01*
X660725Y412371D01*
X654038Y411680D01*
X649170Y410312D01*
X645585Y408090D01*
X642751Y404843D01*
X641836Y403427D01*
X639451Y396995D01*
X639301Y389953D01*
X641197Y383140D01*
G36*
X640375Y433240D02*
G01*
X641133Y431505D01*
X644413Y427364D01*
X649155Y423823D01*
X654215Y421634D01*
X656710Y421277D01*
X660193Y422472D01*
X662036Y425093D01*
X663152Y427904D01*
X663357Y429190D01*
X661865Y429817D01*
X658618Y431054D01*
X657150Y431597D01*
X652074Y434641D01*
X649543Y439048D01*
X649621Y444699D01*
X649720Y445117D01*
X651151Y448134D01*
X653939Y450352D01*
X658429Y451867D01*
X664962Y452775D01*
X673880Y453171D01*
X678626Y453209D01*
X686107Y453227D01*
X691207Y453348D01*
X694447Y453669D01*
X696350Y454289D01*
X697436Y455306D01*
X698227Y456818D01*
X698267Y456905D01*
X699498Y459817D01*
X699951Y461260D01*
X698581Y461481D01*
X694793Y461671D01*
X689072Y461815D01*
X681903Y461900D01*
X676657Y461917D01*
X666505Y461831D01*
X658803Y461493D01*
X653102Y460786D01*
X648953Y459591D01*
X645904Y457791D01*
X643508Y455267D01*
X641836Y452775D01*
X639610Y446783D01*
X639108Y439809D01*
X640375Y433240D01*
G37*
X640375Y433240D02*
X641133Y431505D01*
X644413Y427364D01*
X649155Y423823D01*
X654215Y421634D01*
X656710Y421277D01*
X660193Y422472D01*
X662036Y425093D01*
X663152Y427904D01*
X663357Y429190D01*
X661865Y429817D01*
X658618Y431054D01*
X657150Y431597D01*
X652074Y434641D01*
X649543Y439048D01*
X649621Y444699D01*
X649720Y445117D01*
X651151Y448134D01*
X653939Y450352D01*
X658429Y451867D01*
X664962Y452775D01*
X673880Y453171D01*
X678626Y453209D01*
X686107Y453227D01*
X691207Y453348D01*
X694447Y453669D01*
X696350Y454289D01*
X697436Y455306D01*
X698227Y456818D01*
X698267Y456905D01*
X699498Y459817D01*
X699951Y461260D01*
X698581Y461481D01*
X694793Y461671D01*
X689072Y461815D01*
X681903Y461900D01*
X676657Y461917D01*
X666505Y461831D01*
X658803Y461493D01*
X653102Y460786D01*
X648953Y459591D01*
X645904Y457791D01*
X643508Y455267D01*
X641836Y452775D01*
X639610Y446783D01*
X639108Y439809D01*
X640375Y433240D01*
G36*
X640134Y484012D02*
G01*
X642034Y479833D01*
X644338Y476553D01*
X646913Y474150D01*
X650236Y472490D01*
X654780Y471442D01*
X661021Y470873D01*
X669433Y470649D01*
X674972Y470626D01*
X696583Y470626D01*
X698267Y474323D01*
X699498Y477234D01*
X699951Y478677D01*
X698603Y478953D01*
X694965Y479172D01*
X689654Y479306D01*
X685437Y479334D01*
X679345Y479457D01*
X674512Y479786D01*
X671552Y480268D01*
X670923Y480650D01*
X671565Y483222D01*
X673213Y487258D01*
X675446Y491932D01*
X677846Y496415D01*
X679993Y499881D01*
X681469Y501500D01*
X681485Y501506D01*
X684215Y501367D01*
X686822Y500118D01*
X688939Y497926D01*
X689647Y494726D01*
X689565Y491991D01*
X689504Y488117D01*
X690412Y486084D01*
X692809Y484863D01*
X693261Y484709D01*
X696681Y484180D01*
X698757Y485595D01*
X699746Y489285D01*
X699929Y493271D01*
X698573Y500444D01*
X696636Y504157D01*
X692085Y508742D01*
X686498Y511174D01*
X680596Y511393D01*
X675095Y509337D01*
X671649Y506245D01*
X669719Y503158D01*
X667276Y498306D01*
X664799Y492651D01*
X664420Y491709D01*
X661679Y485498D01*
X659263Y481918D01*
X656862Y480766D01*
X654164Y481842D01*
X652054Y483689D01*
X649457Y488053D01*
X649262Y492855D01*
X651264Y497259D01*
X655255Y500429D01*
X656285Y500845D01*
X660072Y503267D01*
X662884Y506803D01*
X665192Y511266D01*
X658649Y511266D01*
X654651Y511003D01*
X651500Y509877D01*
X648138Y507380D01*
X645548Y504983D01*
X641882Y501256D01*
X639912Y498360D01*
X639122Y495249D01*
X638991Y491729D01*
X640134Y484012D01*
G37*
X640134Y484012D02*
X642034Y479833D01*
X644338Y476553D01*
X646913Y474150D01*
X650236Y472490D01*
X654780Y471442D01*
X661021Y470873D01*
X669433Y470649D01*
X674972Y470626D01*
X696583Y470626D01*
X698267Y474323D01*
X699498Y477234D01*
X699951Y478677D01*
X698603Y478953D01*
X694965Y479172D01*
X689654Y479306D01*
X685437Y479334D01*
X679345Y479457D01*
X674512Y479786D01*
X671552Y480268D01*
X670923Y480650D01*
X671565Y483222D01*
X673213Y487258D01*
X675446Y491932D01*
X677846Y496415D01*
X679993Y499881D01*
X681469Y501500D01*
X681485Y501506D01*
X684215Y501367D01*
X686822Y500118D01*
X688939Y497926D01*
X689647Y494726D01*
X689565Y491991D01*
X689504Y488117D01*
X690412Y486084D01*
X692809Y484863D01*
X693261Y484709D01*
X696681Y484180D01*
X698757Y485595D01*
X699746Y489285D01*
X699929Y493271D01*
X698573Y500444D01*
X696636Y504157D01*
X692085Y508742D01*
X686498Y511174D01*
X680596Y511393D01*
X675095Y509337D01*
X671649Y506245D01*
X669719Y503158D01*
X667276Y498306D01*
X664799Y492651D01*
X664420Y491709D01*
X661679Y485498D01*
X659263Y481918D01*
X656862Y480766D01*
X654164Y481842D01*
X652054Y483689D01*
X649457Y488053D01*
X649262Y492855D01*
X651264Y497259D01*
X655255Y500429D01*
X656285Y500845D01*
X660072Y503267D01*
X662884Y506803D01*
X665192Y511266D01*
X658649Y511266D01*
X654651Y511003D01*
X651500Y509877D01*
X648138Y507380D01*
X645548Y504983D01*
X641882Y501256D01*
X639912Y498360D01*
X639122Y495249D01*
X638991Y491729D01*
X640134Y484012D01*
G36*
X640366Y520517D02*
G01*
X644185Y520295D01*
X649989Y520122D01*
X657318Y520010D01*
X665006Y519974D01*
X691020Y519974D01*
X695613Y524567D01*
X698443Y527733D01*
X699589Y530511D01*
X699517Y534309D01*
X699332Y535816D01*
X698795Y540527D01*
X698487Y544424D01*
X698459Y545374D01*
X698645Y548577D01*
X699111Y553157D01*
X699332Y554933D01*
X699673Y559294D01*
X698932Y562226D01*
X696643Y565132D01*
X695613Y566181D01*
X691020Y570774D01*
X642360Y570774D01*
X640676Y567077D01*
X639428Y563894D01*
X638991Y562032D01*
X640372Y561554D01*
X644229Y561108D01*
X650136Y560723D01*
X657666Y560428D01*
X664029Y560286D01*
X689066Y559889D01*
X689556Y556424D01*
X689213Y553273D01*
X688104Y551729D01*
X686031Y551298D01*
X681615Y550929D01*
X675415Y550653D01*
X667991Y550499D01*
X664171Y550477D01*
X642178Y550454D01*
X640585Y545883D01*
X639502Y542648D01*
X638996Y540889D01*
X638991Y540838D01*
X640365Y540661D01*
X644173Y540467D01*
X649948Y540272D01*
X657223Y540092D01*
X664029Y539966D01*
X689066Y539569D01*
X689066Y530860D01*
X666224Y530460D01*
X643382Y530061D01*
X641187Y525815D01*
X639679Y522681D01*
X638995Y520826D01*
X638991Y520772D01*
X640366Y520517D01*
G37*
X640366Y520517D02*
X644185Y520295D01*
X649989Y520122D01*
X657318Y520010D01*
X665006Y519974D01*
X691020Y519974D01*
X695613Y524567D01*
X698443Y527733D01*
X699589Y530511D01*
X699517Y534309D01*
X699332Y535816D01*
X698795Y540527D01*
X698487Y544424D01*
X698459Y545374D01*
X698645Y548577D01*
X699111Y553157D01*
X699332Y554933D01*
X699673Y559294D01*
X698932Y562226D01*
X696643Y565132D01*
X695613Y566181D01*
X691020Y570774D01*
X642360Y570774D01*
X640676Y567077D01*
X639428Y563894D01*
X638991Y562032D01*
X640372Y561554D01*
X644229Y561108D01*
X650136Y560723D01*
X657666Y560428D01*
X664029Y560286D01*
X689066Y559889D01*
X689556Y556424D01*
X689213Y553273D01*
X688104Y551729D01*
X686031Y551298D01*
X681615Y550929D01*
X675415Y550653D01*
X667991Y550499D01*
X664171Y550477D01*
X642178Y550454D01*
X640585Y545883D01*
X639502Y542648D01*
X638996Y540889D01*
X638991Y540838D01*
X640365Y540661D01*
X644173Y540467D01*
X649948Y540272D01*
X657223Y540092D01*
X664029Y539966D01*
X689066Y539569D01*
X689066Y530860D01*
X666224Y530460D01*
X643382Y530061D01*
X641187Y525815D01*
X639679Y522681D01*
X638995Y520826D01*
X638991Y520772D01*
X640366Y520517D01*
G36*
X651036Y579488D02*
G01*
X661884Y579507D01*
X670229Y579578D01*
X676470Y579733D01*
X681009Y580000D01*
X684243Y580411D01*
X686573Y580995D01*
X688400Y581782D01*
X689442Y582378D01*
X695095Y587315D01*
X698638Y593574D01*
X699909Y600499D01*
X698746Y607433D01*
X696657Y611563D01*
X693042Y615898D01*
X688628Y618852D01*
X682846Y620635D01*
X675131Y621454D01*
X669471Y621570D01*
X669065Y621554D01*
X669065Y611414D01*
X675555Y611352D01*
X679851Y611069D01*
X682662Y610416D01*
X684695Y609248D01*
X686229Y607852D01*
X689189Y603164D01*
X689442Y598130D01*
X686971Y593372D01*
X686636Y593002D01*
X684894Y591422D01*
X682821Y590431D01*
X679736Y589894D01*
X674958Y589677D01*
X669675Y589643D01*
X663038Y589717D01*
X658611Y590025D01*
X655701Y590694D01*
X653617Y591850D01*
X652511Y592799D01*
X649720Y597204D01*
X649384Y602278D01*
X651516Y607120D01*
X652307Y608055D01*
X654065Y609646D01*
X656159Y610639D01*
X659278Y611172D01*
X664112Y611384D01*
X669065Y611414D01*
X669065Y621554D01*
X660357Y621219D01*
X653509Y620027D01*
X648360Y617787D01*
X644344Y614288D01*
X642286Y611563D01*
X640063Y606609D01*
X639030Y600868D01*
X639307Y595532D01*
X640421Y592546D01*
X640738Y591374D01*
X639556Y590596D01*
X636387Y590054D01*
X631559Y589643D01*
X626183Y589193D01*
X622948Y588569D01*
X621099Y587432D01*
X619877Y585447D01*
X619336Y584200D01*
X617360Y579483D01*
X651036Y579488D01*
G37*
X651036Y579488D02*
X661884Y579507D01*
X670229Y579578D01*
X676470Y579733D01*
X681009Y580000D01*
X684243Y580411D01*
X686573Y580995D01*
X688400Y581782D01*
X689442Y582378D01*
X695095Y587315D01*
X698638Y593574D01*
X699909Y600499D01*
X698746Y607433D01*
X696657Y611563D01*
X693042Y615898D01*
X688628Y618852D01*
X682846Y620635D01*
X675131Y621454D01*
X669471Y621570D01*
X669065Y621554D01*
X669065Y611414D01*
X675555Y611352D01*
X679851Y611069D01*
X682662Y610416D01*
X684695Y609248D01*
X686229Y607852D01*
X689189Y603164D01*
X689442Y598130D01*
X686971Y593372D01*
X686636Y593002D01*
X684894Y591422D01*
X682821Y590431D01*
X679736Y589894D01*
X674958Y589677D01*
X669675Y589643D01*
X663038Y589717D01*
X658611Y590025D01*
X655701Y590694D01*
X653617Y591850D01*
X652511Y592799D01*
X649720Y597204D01*
X649384Y602278D01*
X651516Y607120D01*
X652307Y608055D01*
X654065Y609646D01*
X656159Y610639D01*
X659278Y611172D01*
X664112Y611384D01*
X669065Y611414D01*
X669065Y621554D01*
X660357Y621219D01*
X653509Y620027D01*
X648360Y617787D01*
X644344Y614288D01*
X642286Y611563D01*
X640063Y606609D01*
X639030Y600868D01*
X639307Y595532D01*
X640421Y592546D01*
X640738Y591374D01*
X639556Y590596D01*
X636387Y590054D01*
X631559Y589643D01*
X626183Y589193D01*
X622948Y588569D01*
X621099Y587432D01*
X619877Y585447D01*
X619336Y584200D01*
X617360Y579483D01*
X651036Y579488D01*
G36*
X639476Y645507D02*
G01*
X641908Y638914D01*
X646212Y633573D01*
X649241Y631484D01*
X654799Y629206D01*
X658819Y629253D01*
X661522Y631644D01*
X661981Y632528D01*
X663414Y636347D01*
X663047Y638297D01*
X660641Y638958D01*
X659311Y638991D01*
X654421Y640201D01*
X651000Y643353D01*
X649348Y647734D01*
X649763Y652631D01*
X651923Y656611D01*
X653154Y657955D01*
X654649Y658908D01*
X656908Y659552D01*
X660433Y659968D01*
X665727Y660240D01*
X673291Y660450D01*
X675686Y660504D01*
X683879Y660702D01*
X689646Y660927D01*
X693461Y661264D01*
X695800Y661799D01*
X697140Y662618D01*
X697955Y663804D01*
X698314Y664564D01*
X699545Y667790D01*
X699951Y669689D01*
X698595Y670316D01*
X694493Y670699D01*
X687600Y670840D01*
X677867Y670740D01*
X676366Y670709D01*
X667486Y670490D01*
X661002Y670231D01*
X656407Y669862D01*
X653194Y669314D01*
X650855Y668517D01*
X648885Y667401D01*
X648041Y666817D01*
X644306Y663470D01*
X641400Y659727D01*
X641147Y659269D01*
X639144Y652557D01*
X639476Y645507D01*
G37*
X639476Y645507D02*
X641908Y638914D01*
X646212Y633573D01*
X649241Y631484D01*
X654799Y629206D01*
X658819Y629253D01*
X661522Y631644D01*
X661981Y632528D01*
X663414Y636347D01*
X663047Y638297D01*
X660641Y638958D01*
X659311Y638991D01*
X654421Y640201D01*
X651000Y643353D01*
X649348Y647734D01*
X649763Y652631D01*
X651923Y656611D01*
X653154Y657955D01*
X654649Y658908D01*
X656908Y659552D01*
X660433Y659968D01*
X665727Y660240D01*
X673291Y660450D01*
X675686Y660504D01*
X683879Y660702D01*
X689646Y660927D01*
X693461Y661264D01*
X695800Y661799D01*
X697140Y662618D01*
X697955Y663804D01*
X698314Y664564D01*
X699545Y667790D01*
X699951Y669689D01*
X698595Y670316D01*
X694493Y670699D01*
X687600Y670840D01*
X677867Y670740D01*
X676366Y670709D01*
X667486Y670490D01*
X661002Y670231D01*
X656407Y669862D01*
X653194Y669314D01*
X650855Y668517D01*
X648885Y667401D01*
X648041Y666817D01*
X644306Y663470D01*
X641400Y659727D01*
X641147Y659269D01*
X639144Y652557D01*
X639476Y645507D01*
G36*
X639597Y694526D02*
G01*
X641709Y688838D01*
X641749Y688773D01*
X644338Y685256D01*
X647363Y682659D01*
X651306Y680833D01*
X656646Y679627D01*
X663865Y678890D01*
X673443Y678474D01*
X674808Y678437D01*
X695384Y677912D01*
X697668Y682328D01*
X699211Y685524D01*
X699942Y687453D01*
X699951Y687542D01*
X698602Y687876D01*
X694963Y688141D01*
X689645Y688304D01*
X685339Y688340D01*
X678364Y688341D01*
X673984Y688660D01*
X671894Y689771D01*
X671793Y692150D01*
X673374Y696270D01*
X676282Y702491D01*
X678696Y707066D01*
X680791Y709419D01*
X683075Y710110D01*
X683188Y710111D01*
X687121Y708970D01*
X689246Y705591D01*
X689554Y700419D01*
X689501Y696694D01*
X690574Y694730D01*
X693151Y693505D01*
X696434Y692800D01*
X698297Y693816D01*
X698563Y694198D01*
X699634Y697800D01*
X699786Y702843D01*
X699076Y708037D01*
X697779Y711718D01*
X693459Y716806D01*
X687445Y719699D01*
X682746Y720271D01*
X678508Y719834D01*
X675049Y718252D01*
X671976Y715120D01*
X668899Y710032D01*
X665425Y702582D01*
X665229Y702129D01*
X662129Y695418D01*
X659586Y691277D01*
X657301Y689502D01*
X654975Y689889D01*
X652306Y692236D01*
X651691Y692937D01*
X649310Y697637D01*
X649410Y702507D01*
X651745Y706748D01*
X656068Y709562D01*
X656916Y709823D01*
X661031Y712369D01*
X663013Y715600D01*
X664977Y720271D01*
X659895Y720271D01*
X652508Y718850D01*
X645733Y714632D01*
X643466Y712438D01*
X640557Y707448D01*
X639240Y701103D01*
X639597Y694526D01*
G37*
X639597Y694526D02*
X641709Y688838D01*
X641749Y688773D01*
X644338Y685256D01*
X647363Y682659D01*
X651306Y680833D01*
X656646Y679627D01*
X663865Y678890D01*
X673443Y678474D01*
X674808Y678437D01*
X695384Y677912D01*
X697668Y682328D01*
X699211Y685524D01*
X699942Y687453D01*
X699951Y687542D01*
X698602Y687876D01*
X694963Y688141D01*
X689645Y688304D01*
X685339Y688340D01*
X678364Y688341D01*
X673984Y688660D01*
X671894Y689771D01*
X671793Y692150D01*
X673374Y696270D01*
X676282Y702491D01*
X678696Y707066D01*
X680791Y709419D01*
X683075Y710110D01*
X683188Y710111D01*
X687121Y708970D01*
X689246Y705591D01*
X689554Y700419D01*
X689501Y696694D01*
X690574Y694730D01*
X693151Y693505D01*
X696434Y692800D01*
X698297Y693816D01*
X698563Y694198D01*
X699634Y697800D01*
X699786Y702843D01*
X699076Y708037D01*
X697779Y711718D01*
X693459Y716806D01*
X687445Y719699D01*
X682746Y720271D01*
X678508Y719834D01*
X675049Y718252D01*
X671976Y715120D01*
X668899Y710032D01*
X665425Y702582D01*
X665229Y702129D01*
X662129Y695418D01*
X659586Y691277D01*
X657301Y689502D01*
X654975Y689889D01*
X652306Y692236D01*
X651691Y692937D01*
X649310Y697637D01*
X649410Y702507D01*
X651745Y706748D01*
X656068Y709562D01*
X656916Y709823D01*
X661031Y712369D01*
X663013Y715600D01*
X664977Y720271D01*
X659895Y720271D01*
X652508Y718850D01*
X645733Y714632D01*
X643466Y712438D01*
X640557Y707448D01*
X639240Y701103D01*
X639597Y694526D01*
G36*
X629629Y760911D02*
G01*
X635561Y760486D01*
X639057Y759997D01*
X640582Y759320D01*
X640602Y758330D01*
X640420Y758009D01*
X639102Y753736D01*
X639179Y748177D01*
X640533Y742526D01*
X642286Y738992D01*
X645086Y735368D01*
X648255Y732719D01*
X652281Y730900D01*
X657654Y729768D01*
X664863Y729178D01*
X674395Y728986D01*
X676224Y728982D01*
X696765Y728980D01*
X698358Y733551D01*
X699442Y736797D01*
X699947Y738578D01*
X699951Y738631D01*
X698583Y738806D01*
X694808Y738956D01*
X689122Y739067D01*
X682023Y739130D01*
X677707Y739140D01*
X669197Y739160D01*
X663098Y739264D01*
X658918Y739517D01*
X656164Y739984D01*
X654346Y740729D01*
X652970Y741819D01*
X652307Y742499D01*
X649638Y747173D01*
X649438Y752273D01*
X651696Y756900D01*
X652511Y757756D01*
X654044Y759011D01*
X655862Y759881D01*
X658491Y760437D01*
X662456Y760747D01*
X668283Y760882D01*
X676317Y760911D01*
X696765Y760911D01*
X698358Y765482D01*
X699442Y768729D01*
X699947Y770510D01*
X699951Y770562D01*
X698562Y770696D01*
X694644Y770817D01*
X688570Y770920D01*
X680714Y771000D01*
X671450Y771052D01*
X661151Y771071D01*
X621434Y771071D01*
X619444Y766354D01*
X617455Y761637D01*
X629629Y760911D01*
G37*
X629629Y760911D02*
X635561Y760486D01*
X639057Y759997D01*
X640582Y759320D01*
X640602Y758330D01*
X640420Y758009D01*
X639102Y753736D01*
X639179Y748177D01*
X640533Y742526D01*
X642286Y738992D01*
X645086Y735368D01*
X648255Y732719D01*
X652281Y730900D01*
X657654Y729768D01*
X664863Y729178D01*
X674395Y728986D01*
X676224Y728982D01*
X696765Y728980D01*
X698358Y733551D01*
X699442Y736797D01*
X699947Y738578D01*
X699951Y738631D01*
X698583Y738806D01*
X694808Y738956D01*
X689122Y739067D01*
X682023Y739130D01*
X677707Y739140D01*
X669197Y739160D01*
X663098Y739264D01*
X658918Y739517D01*
X656164Y739984D01*
X654346Y740729D01*
X652970Y741819D01*
X652307Y742499D01*
X649638Y747173D01*
X649438Y752273D01*
X651696Y756900D01*
X652511Y757756D01*
X654044Y759011D01*
X655862Y759881D01*
X658491Y760437D01*
X662456Y760747D01*
X668283Y760882D01*
X676317Y760911D01*
X696765Y760911D01*
X698358Y765482D01*
X699442Y768729D01*
X699947Y770510D01*
X699951Y770562D01*
X698562Y770696D01*
X694644Y770817D01*
X688570Y770920D01*
X680714Y771000D01*
X671450Y771052D01*
X661151Y771071D01*
X621434Y771071D01*
X619444Y766354D01*
X617455Y761637D01*
X629629Y760911D01*
G36*
X637624Y881670D02*
G01*
X641474Y875947D01*
X647034Y871525D01*
X654109Y868883D01*
X659316Y868349D01*
X661489Y868410D01*
X663153Y868918D01*
X664644Y870314D01*
X666297Y873041D01*
X668450Y877539D01*
X671437Y884249D01*
X671452Y884283D01*
X674281Y890459D01*
X676793Y895524D01*
X678718Y898960D01*
X679785Y900248D01*
X679793Y900249D01*
X682117Y899113D01*
X684677Y896457D01*
X686522Y893408D01*
X686889Y891863D01*
X685621Y887648D01*
X682447Y884019D01*
X678957Y882248D01*
X676385Y880545D01*
X673455Y877208D01*
X670924Y873285D01*
X669547Y869824D01*
X669471Y869101D01*
X670716Y868286D01*
X673897Y868237D01*
X678187Y868836D01*
X682756Y869964D01*
X686776Y871505D01*
X686932Y871583D01*
X693406Y876220D01*
X697810Y882229D01*
X699971Y889053D01*
X699718Y896136D01*
X696880Y902920D01*
X696681Y903221D01*
X691845Y908557D01*
X685535Y912066D01*
X677239Y914008D01*
X674908Y914268D01*
X663906Y914730D01*
X658775Y914177D01*
X658775Y900249D01*
X661975Y900068D01*
X662909Y899078D01*
X662211Y896610D01*
X660559Y892720D01*
X658488Y888372D01*
X658433Y888264D01*
X656495Y884579D01*
X655201Y883100D01*
X653845Y883465D01*
X652063Y885000D01*
X649485Y888908D01*
X649295Y893115D01*
X651172Y896890D01*
X654792Y899497D01*
X658775Y900249D01*
X658775Y914177D01*
X655103Y913781D01*
X648121Y911345D01*
X643230Y907954D01*
X638288Y901835D01*
X635836Y895094D01*
X635680Y888212D01*
X637624Y881670D01*
G37*
X637624Y881670D02*
X641474Y875947D01*
X647034Y871525D01*
X654109Y868883D01*
X659316Y868349D01*
X661489Y868410D01*
X663153Y868918D01*
X664644Y870314D01*
X666297Y873041D01*
X668450Y877539D01*
X671437Y884249D01*
X671452Y884283D01*
X674281Y890459D01*
X676793Y895524D01*
X678718Y898960D01*
X679785Y900248D01*
X679793Y900249D01*
X682117Y899113D01*
X684677Y896457D01*
X686522Y893408D01*
X686889Y891863D01*
X685621Y887648D01*
X682447Y884019D01*
X678957Y882248D01*
X676385Y880545D01*
X673455Y877208D01*
X670924Y873285D01*
X669547Y869824D01*
X669471Y869101D01*
X670716Y868286D01*
X673897Y868237D01*
X678187Y868836D01*
X682756Y869964D01*
X686776Y871505D01*
X686932Y871583D01*
X693406Y876220D01*
X697810Y882229D01*
X699971Y889053D01*
X699718Y896136D01*
X696880Y902920D01*
X696681Y903221D01*
X691845Y908557D01*
X685535Y912066D01*
X677239Y914008D01*
X674908Y914268D01*
X663906Y914730D01*
X658775Y914177D01*
X658775Y900249D01*
X661975Y900068D01*
X662909Y899078D01*
X662211Y896610D01*
X660559Y892720D01*
X658488Y888372D01*
X658433Y888264D01*
X656495Y884579D01*
X655201Y883100D01*
X653845Y883465D01*
X652063Y885000D01*
X649485Y888908D01*
X649295Y893115D01*
X651172Y896890D01*
X654792Y899497D01*
X658775Y900249D01*
X658775Y914177D01*
X655103Y913781D01*
X648121Y911345D01*
X643230Y907954D01*
X638288Y901835D01*
X635836Y895094D01*
X635680Y888212D01*
X637624Y881670D01*
G36*
X636696Y994388D02*
G01*
X640273Y987585D01*
X646030Y982565D01*
X649731Y980781D01*
X655288Y979394D01*
X662310Y978683D01*
X669973Y978616D01*
X677455Y979157D01*
X683934Y980273D01*
X688587Y981929D01*
X689389Y982437D01*
X695371Y988464D01*
X698954Y995623D01*
X700002Y1003391D01*
X698381Y1011245D01*
X697409Y1013431D01*
X694414Y1017688D01*
X690443Y1021424D01*
X689940Y1021777D01*
X687512Y1023212D01*
X684918Y1024161D01*
X681502Y1024721D01*
X676612Y1024991D01*
X669594Y1025070D01*
X668020Y1025071D01*
X667519Y1025068D01*
X667519Y1010557D01*
X674143Y1010473D01*
X678539Y1010140D01*
X681378Y1009442D01*
X683333Y1008258D01*
X683986Y1007654D01*
X686468Y1004181D01*
X686355Y1000810D01*
X684202Y997400D01*
X681903Y995367D01*
X678548Y994163D01*
X673257Y993487D01*
X672640Y993440D01*
X663051Y993325D01*
X655930Y994531D01*
X651319Y997043D01*
X649264Y1000844D01*
X649151Y1002201D01*
X649715Y1005764D01*
X651669Y1008201D01*
X655404Y1009691D01*
X661315Y1010412D01*
X667519Y1010557D01*
X667519Y1025068D01*
X660541Y1025017D01*
X655316Y1024790D01*
X651695Y1024293D01*
X649030Y1023429D01*
X646672Y1022099D01*
X646234Y1021806D01*
X640325Y1016869D01*
X636895Y1011489D01*
X635533Y1004940D01*
X635467Y1002716D01*
X636696Y994388D01*
G37*
X636696Y994388D02*
X640273Y987585D01*
X646030Y982565D01*
X649731Y980781D01*
X655288Y979394D01*
X662310Y978683D01*
X669973Y978616D01*
X677455Y979157D01*
X683934Y980273D01*
X688587Y981929D01*
X689389Y982437D01*
X695371Y988464D01*
X698954Y995623D01*
X700002Y1003391D01*
X698381Y1011245D01*
X697409Y1013431D01*
X694414Y1017688D01*
X690443Y1021424D01*
X689940Y1021777D01*
X687512Y1023212D01*
X684918Y1024161D01*
X681502Y1024721D01*
X676612Y1024991D01*
X669594Y1025070D01*
X668020Y1025071D01*
X667519Y1025068D01*
X667519Y1010557D01*
X674143Y1010473D01*
X678539Y1010140D01*
X681378Y1009442D01*
X683333Y1008258D01*
X683986Y1007654D01*
X686468Y1004181D01*
X686355Y1000810D01*
X684202Y997400D01*
X681903Y995367D01*
X678548Y994163D01*
X673257Y993487D01*
X672640Y993440D01*
X663051Y993325D01*
X655930Y994531D01*
X651319Y997043D01*
X649264Y1000844D01*
X649151Y1002201D01*
X649715Y1005764D01*
X651669Y1008201D01*
X655404Y1009691D01*
X661315Y1010412D01*
X667519Y1010557D01*
X667519Y1025068D01*
X660541Y1025017D01*
X655316Y1024790D01*
X651695Y1024293D01*
X649030Y1023429D01*
X646672Y1022099D01*
X646234Y1021806D01*
X640325Y1016869D01*
X636895Y1011489D01*
X635533Y1004940D01*
X635467Y1002716D01*
X636696Y994388D01*
G36*
X637278Y826891D02*
G01*
X639972Y822233D01*
X642647Y818994D01*
X645448Y816626D01*
X648875Y814994D01*
X653423Y813966D01*
X659589Y813409D01*
X667871Y813188D01*
X673825Y813163D01*
X695739Y813163D01*
X698504Y819331D01*
X701270Y825500D01*
X677267Y826226D01*
X668303Y826526D01*
X661796Y826840D01*
X657303Y827230D01*
X654377Y827755D01*
X652575Y828477D01*
X651451Y829455D01*
X651208Y829769D01*
X649308Y834524D01*
X650060Y839330D01*
X652054Y842191D01*
X653468Y843355D01*
X655322Y844161D01*
X658133Y844673D01*
X662417Y844956D01*
X668690Y845074D01*
X675226Y845094D01*
X683427Y845098D01*
X689232Y845239D01*
X693147Y845709D01*
X695678Y846701D01*
X697332Y848410D01*
X698616Y851027D01*
X699949Y854522D01*
X701401Y858340D01*
X675639Y857886D01*
X666352Y857703D01*
X659489Y857489D01*
X654571Y857182D01*
X651120Y856721D01*
X648656Y856043D01*
X646702Y855088D01*
X644977Y853937D01*
X639468Y848381D01*
X636282Y841602D01*
X635519Y834229D01*
X637278Y826891D01*
G37*
X637278Y826891D02*
X639972Y822233D01*
X642647Y818994D01*
X645448Y816626D01*
X648875Y814994D01*
X653423Y813966D01*
X659589Y813409D01*
X667871Y813188D01*
X673825Y813163D01*
X695739Y813163D01*
X698504Y819331D01*
X701270Y825500D01*
X677267Y826226D01*
X668303Y826526D01*
X661796Y826840D01*
X657303Y827230D01*
X654377Y827755D01*
X652575Y828477D01*
X651451Y829455D01*
X651208Y829769D01*
X649308Y834524D01*
X650060Y839330D01*
X652054Y842191D01*
X653468Y843355D01*
X655322Y844161D01*
X658133Y844673D01*
X662417Y844956D01*
X668690Y845074D01*
X675226Y845094D01*
X683427Y845098D01*
X689232Y845239D01*
X693147Y845709D01*
X695678Y846701D01*
X697332Y848410D01*
X698616Y851027D01*
X699949Y854522D01*
X701401Y858340D01*
X675639Y857886D01*
X666352Y857703D01*
X659489Y857489D01*
X654571Y857182D01*
X651120Y856721D01*
X648656Y856043D01*
X646702Y855088D01*
X644977Y853937D01*
X639468Y848381D01*
X636282Y841602D01*
X635519Y834229D01*
X637278Y826891D01*
G36*
X636492Y938526D02*
G01*
X639257Y932980D01*
X644348Y928085D01*
X646234Y926737D01*
X648702Y925269D01*
X651382Y924316D01*
X654959Y923771D01*
X660117Y923525D01*
X666927Y923471D01*
X676259Y923715D01*
X683266Y924561D01*
X688493Y926183D01*
X692487Y928755D01*
X695793Y932450D01*
X695989Y932722D01*
X697991Y936364D01*
X698982Y940750D01*
X699226Y946328D01*
X699226Y955395D01*
X708028Y955399D01*
X712931Y955483D01*
X715806Y955998D01*
X717531Y957341D01*
X718981Y959914D01*
X719277Y960532D01*
X720665Y963424D01*
X721541Y965662D01*
X721617Y967327D01*
X720602Y968496D01*
X718207Y969249D01*
X714143Y969663D01*
X708119Y969818D01*
X699845Y969793D01*
X689034Y969665D01*
X685800Y969625D01*
X674652Y969481D01*
X667360Y969353D01*
X667360Y955403D01*
X673550Y955324D01*
X677600Y954976D01*
X680271Y954188D01*
X682324Y952789D01*
X683326Y951840D01*
X686257Y947960D01*
X686495Y944524D01*
X684075Y940978D01*
X683986Y940889D01*
X682115Y939446D01*
X679573Y938569D01*
X675658Y938126D01*
X669670Y937988D01*
X668343Y937986D01*
X660090Y938319D01*
X654369Y939403D01*
X650877Y941366D01*
X649309Y944335D01*
X649151Y946051D01*
X649893Y950123D01*
X652333Y952917D01*
X656798Y954598D01*
X663613Y955335D01*
X667360Y955403D01*
X667360Y969353D01*
X666025Y969329D01*
X659533Y969132D01*
X654796Y968855D01*
X651429Y968461D01*
X649050Y967915D01*
X647275Y967181D01*
X645722Y966222D01*
X645138Y965811D01*
X639619Y960359D01*
X636489Y953466D01*
X635617Y945493D01*
X636492Y938526D01*
G37*
X636492Y938526D02*
X639257Y932980D01*
X644348Y928085D01*
X646234Y926737D01*
X648702Y925269D01*
X651382Y924316D01*
X654959Y923771D01*
X660117Y923525D01*
X666927Y923471D01*
X676259Y923715D01*
X683266Y924561D01*
X688493Y926183D01*
X692487Y928755D01*
X695793Y932450D01*
X695989Y932722D01*
X697991Y936364D01*
X698982Y940750D01*
X699226Y946328D01*
X699226Y955395D01*
X708028Y955399D01*
X712931Y955483D01*
X715806Y955998D01*
X717531Y957341D01*
X718981Y959914D01*
X719277Y960532D01*
X720665Y963424D01*
X721541Y965662D01*
X721617Y967327D01*
X720602Y968496D01*
X718207Y969249D01*
X714143Y969663D01*
X708119Y969818D01*
X699845Y969793D01*
X689034Y969665D01*
X685800Y969625D01*
X674652Y969481D01*
X667360Y969353D01*
X667360Y955403D01*
X673550Y955324D01*
X677600Y954976D01*
X680271Y954188D01*
X682324Y952789D01*
X683326Y951840D01*
X686257Y947960D01*
X686495Y944524D01*
X684075Y940978D01*
X683986Y940889D01*
X682115Y939446D01*
X679573Y938569D01*
X675658Y938126D01*
X669670Y937988D01*
X668343Y937986D01*
X660090Y938319D01*
X654369Y939403D01*
X650877Y941366D01*
X649309Y944335D01*
X649151Y946051D01*
X649893Y950123D01*
X652333Y952917D01*
X656798Y954598D01*
X663613Y955335D01*
X667360Y955403D01*
X667360Y969353D01*
X666025Y969329D01*
X659533Y969132D01*
X654796Y968855D01*
X651429Y968461D01*
X649050Y967915D01*
X647275Y967181D01*
X645722Y966222D01*
X645138Y965811D01*
X639619Y960359D01*
X636489Y953466D01*
X635617Y945493D01*
X636492Y938526D01*
D14*
X1664000Y-127000D02*
X127000Y-127000D01*
X1664000Y2921000D02*
X1664000Y-127000D01*
X-140000Y2921000D02*
X1664000Y2921000D01*
X127000Y-127000D02*
X127000Y2921000D01*
X127000Y127000D02*
X-140000Y127000D01*
X1397000Y-127000D02*
X1397000Y2921000D01*
X-140000Y127000D02*
X-140000Y2921000D01*
%LPC*%
D15*
X1524000Y0D03*
X1524000Y254000D03*
X1524000Y508000D03*
X0Y2794000D03*
X1524000Y762000D03*
X0Y2540000D03*
X1524000Y1016000D03*
X0Y2286000D03*
X1524000Y1270000D03*
X0Y2032000D03*
X1524000Y1524000D03*
X0Y1778000D03*
X1524000Y1778000D03*
X0Y1524000D03*
X1524000Y2032000D03*
X0Y1270000D03*
X1524000Y2286000D03*
X0Y1016000D03*
X1524000Y2540000D03*
X0Y762000D03*
X1524000Y2794000D03*
X0Y508000D03*
X0Y254000D03*
D16*
X0Y0D03*
D17*
X127000Y3048000D03*
X381000Y3048000D03*
X635000Y3048000D03*
X889000Y3048000D03*
X1143000Y3048000D03*
D18*
X1397000Y3048000D03*
D17*
X1270000Y2540000D03*
D18*
X1270000Y2794000D03*
D17*
X1143000Y2286000D03*
X889000Y2286000D03*
X635000Y2286000D03*
D18*
X381000Y2286000D03*
D17*
X1016000Y2794000D03*
X1016000Y2540000D03*
X762000Y2794000D03*
X762000Y2540000D03*
X508000Y2794000D03*
X508000Y2540000D03*
X254000Y2794000D03*
D18*
X254000Y2540000D03*
M02*
