%TF.GenerationSoftware,KiCad,Pcbnew,5.1.5+dfsg1-2~bpo10+1*%
%TF.CreationDate,Date%
%TF.ProjectId,ProMicro_ESP12E,50726f4d-6963-4726-9f5f-455350313245,v1.0*%
%TF.SameCoordinates,Original*%
%TF.FileFunction,Copper,L1,Top*%
%TF.FilePolarity,Positive*%
%FSLAX45Y45*%
G04 Gerber Fmt 4.5, Leading zero omitted, Abs format (unit mm)*
G04 Created by KiCad*
%MOMM*%
%LPD*%
G04 APERTURE LIST*
%ADD10C,0.100000*%
%ADD11O,1.600000X1.600000*%
%ADD12C,0.150000*%
%ADD13R,0.900000X0.800000*%
%ADD14O,1.700000X1.700000*%
%ADD15R,1.700000X1.700000*%
%ADD16R,2.500000X1.000000*%
%ADD17R,1.000000X1.800000*%
%ADD18C,0.500000*%
%ADD19C,0.250000*%
%ADD20C,0.125000*%
%ADD21C,0.200000*%
%ADD22C,0.350000*%
G04 APERTURE END LIST*
D10*
X-63500Y3175000D02*
G75*
G03X-127000Y3111500I0J-63500D01*
G01*
X1651000Y3111500D02*
G75*
G03X1587500Y3175000I-63500J0D01*
G01*
X1587500Y-127000D02*
G75*
G03X1651000Y-63500I0J63500D01*
G01*
X-127000Y-63500D02*
G75*
G03X-63500Y-127000I63500J0D01*
G01*
X-127000Y3111500D02*
X-127000Y-63500D01*
X1587500Y3175000D02*
X-63500Y3175000D01*
X1651000Y-63500D02*
X1651000Y3111500D01*
X-63500Y-127000D02*
X1587500Y-127000D01*
D11*
X0Y2794000D03*
X0Y2540000D03*
X1524000Y2540000D03*
X1524000Y2794000D03*
%TA.AperFunction,SMDPad,CuDef*%
D12*
G36*
X1488269Y2123895D02*
G01*
X1490393Y2123580D01*
X1492475Y2123058D01*
X1494496Y2122335D01*
X1496437Y2121417D01*
X1498278Y2120313D01*
X1500002Y2119035D01*
X1501593Y2117593D01*
X1503035Y2116002D01*
X1504313Y2114278D01*
X1505417Y2112437D01*
X1506335Y2110496D01*
X1507058Y2108475D01*
X1507580Y2106393D01*
X1507895Y2104269D01*
X1508000Y2102125D01*
X1508000Y2058375D01*
X1507895Y2056231D01*
X1507580Y2054107D01*
X1507058Y2052025D01*
X1506335Y2050004D01*
X1505417Y2048063D01*
X1504313Y2046222D01*
X1503035Y2044498D01*
X1501593Y2042907D01*
X1500002Y2041465D01*
X1498278Y2040187D01*
X1496437Y2039083D01*
X1494496Y2038165D01*
X1492475Y2037442D01*
X1490393Y2036920D01*
X1488269Y2036605D01*
X1486125Y2036500D01*
X1434875Y2036500D01*
X1432731Y2036605D01*
X1430607Y2036920D01*
X1428525Y2037442D01*
X1426504Y2038165D01*
X1424563Y2039083D01*
X1422722Y2040187D01*
X1420998Y2041465D01*
X1419407Y2042907D01*
X1417965Y2044498D01*
X1416687Y2046222D01*
X1415583Y2048063D01*
X1414665Y2050004D01*
X1413942Y2052025D01*
X1413420Y2054107D01*
X1413105Y2056231D01*
X1413000Y2058375D01*
X1413000Y2102125D01*
X1413105Y2104269D01*
X1413420Y2106393D01*
X1413942Y2108475D01*
X1414665Y2110496D01*
X1415583Y2112437D01*
X1416687Y2114278D01*
X1417965Y2116002D01*
X1419407Y2117593D01*
X1420998Y2119035D01*
X1422722Y2120313D01*
X1424563Y2121417D01*
X1426504Y2122335D01*
X1428525Y2123058D01*
X1430607Y2123580D01*
X1432731Y2123895D01*
X1434875Y2124000D01*
X1486125Y2124000D01*
X1488269Y2123895D01*
G37*
%TD.AperFunction*%
%TA.AperFunction,SMDPad,CuDef*%
G36*
X1488269Y2281395D02*
G01*
X1490393Y2281080D01*
X1492475Y2280558D01*
X1494496Y2279835D01*
X1496437Y2278917D01*
X1498278Y2277813D01*
X1500002Y2276535D01*
X1501593Y2275093D01*
X1503035Y2273502D01*
X1504313Y2271778D01*
X1505417Y2269937D01*
X1506335Y2267996D01*
X1507058Y2265975D01*
X1507580Y2263893D01*
X1507895Y2261769D01*
X1508000Y2259625D01*
X1508000Y2215875D01*
X1507895Y2213731D01*
X1507580Y2211607D01*
X1507058Y2209525D01*
X1506335Y2207504D01*
X1505417Y2205563D01*
X1504313Y2203722D01*
X1503035Y2201998D01*
X1501593Y2200407D01*
X1500002Y2198965D01*
X1498278Y2197687D01*
X1496437Y2196583D01*
X1494496Y2195665D01*
X1492475Y2194942D01*
X1490393Y2194420D01*
X1488269Y2194105D01*
X1486125Y2194000D01*
X1434875Y2194000D01*
X1432731Y2194105D01*
X1430607Y2194420D01*
X1428525Y2194942D01*
X1426504Y2195665D01*
X1424563Y2196583D01*
X1422722Y2197687D01*
X1420998Y2198965D01*
X1419407Y2200407D01*
X1417965Y2201998D01*
X1416687Y2203722D01*
X1415583Y2205563D01*
X1414665Y2207504D01*
X1413942Y2209525D01*
X1413420Y2211607D01*
X1413105Y2213731D01*
X1413000Y2215875D01*
X1413000Y2259625D01*
X1413105Y2261769D01*
X1413420Y2263893D01*
X1413942Y2265975D01*
X1414665Y2267996D01*
X1415583Y2269937D01*
X1416687Y2271778D01*
X1417965Y2273502D01*
X1419407Y2275093D01*
X1420998Y2276535D01*
X1422722Y2277813D01*
X1424563Y2278917D01*
X1426504Y2279835D01*
X1428525Y2280558D01*
X1430607Y2281080D01*
X1432731Y2281395D01*
X1434875Y2281500D01*
X1486125Y2281500D01*
X1488269Y2281395D01*
G37*
%TD.AperFunction*%
D13*
X1243000Y1905000D03*
X1043000Y1810000D03*
X1043000Y2000000D03*
X281000Y1905000D03*
X481000Y2000000D03*
X481000Y1810000D03*
%TA.AperFunction,SMDPad,CuDef*%
D12*
G36*
X91269Y2281395D02*
G01*
X93393Y2281080D01*
X95475Y2280558D01*
X97496Y2279835D01*
X99437Y2278917D01*
X101278Y2277813D01*
X103002Y2276535D01*
X104593Y2275093D01*
X106035Y2273502D01*
X107313Y2271778D01*
X108417Y2269937D01*
X109335Y2267996D01*
X110058Y2265975D01*
X110580Y2263893D01*
X110895Y2261769D01*
X111000Y2259625D01*
X111000Y2215875D01*
X110895Y2213731D01*
X110580Y2211607D01*
X110058Y2209525D01*
X109335Y2207504D01*
X108417Y2205563D01*
X107313Y2203722D01*
X106035Y2201998D01*
X104593Y2200407D01*
X103002Y2198965D01*
X101278Y2197687D01*
X99437Y2196583D01*
X97496Y2195665D01*
X95475Y2194942D01*
X93393Y2194420D01*
X91269Y2194105D01*
X89125Y2194000D01*
X37875Y2194000D01*
X35731Y2194105D01*
X33607Y2194420D01*
X31525Y2194942D01*
X29504Y2195665D01*
X27563Y2196583D01*
X25722Y2197687D01*
X23998Y2198965D01*
X22407Y2200407D01*
X20965Y2201998D01*
X19687Y2203722D01*
X18583Y2205563D01*
X17665Y2207504D01*
X16942Y2209525D01*
X16420Y2211607D01*
X16105Y2213731D01*
X16000Y2215875D01*
X16000Y2259625D01*
X16105Y2261769D01*
X16420Y2263893D01*
X16942Y2265975D01*
X17665Y2267996D01*
X18583Y2269937D01*
X19687Y2271778D01*
X20965Y2273502D01*
X22407Y2275093D01*
X23998Y2276535D01*
X25722Y2277813D01*
X27563Y2278917D01*
X29504Y2279835D01*
X31525Y2280558D01*
X33607Y2281080D01*
X35731Y2281395D01*
X37875Y2281500D01*
X89125Y2281500D01*
X91269Y2281395D01*
G37*
%TD.AperFunction*%
%TA.AperFunction,SMDPad,CuDef*%
G36*
X91269Y2123895D02*
G01*
X93393Y2123580D01*
X95475Y2123058D01*
X97496Y2122335D01*
X99437Y2121417D01*
X101278Y2120313D01*
X103002Y2119035D01*
X104593Y2117593D01*
X106035Y2116002D01*
X107313Y2114278D01*
X108417Y2112437D01*
X109335Y2110496D01*
X110058Y2108475D01*
X110580Y2106393D01*
X110895Y2104269D01*
X111000Y2102125D01*
X111000Y2058375D01*
X110895Y2056231D01*
X110580Y2054107D01*
X110058Y2052025D01*
X109335Y2050004D01*
X108417Y2048063D01*
X107313Y2046222D01*
X106035Y2044498D01*
X104593Y2042907D01*
X103002Y2041465D01*
X101278Y2040187D01*
X99437Y2039083D01*
X97496Y2038165D01*
X95475Y2037442D01*
X93393Y2036920D01*
X91269Y2036605D01*
X89125Y2036500D01*
X37875Y2036500D01*
X35731Y2036605D01*
X33607Y2036920D01*
X31525Y2037442D01*
X29504Y2038165D01*
X27563Y2039083D01*
X25722Y2040187D01*
X23998Y2041465D01*
X22407Y2042907D01*
X20965Y2044498D01*
X19687Y2046222D01*
X18583Y2048063D01*
X17665Y2050004D01*
X16942Y2052025D01*
X16420Y2054107D01*
X16105Y2056231D01*
X16000Y2058375D01*
X16000Y2102125D01*
X16105Y2104269D01*
X16420Y2106393D01*
X16942Y2108475D01*
X17665Y2110496D01*
X18583Y2112437D01*
X19687Y2114278D01*
X20965Y2116002D01*
X22407Y2117593D01*
X23998Y2119035D01*
X25722Y2120313D01*
X27563Y2121417D01*
X29504Y2122335D01*
X31525Y2123058D01*
X33607Y2123580D01*
X35731Y2123895D01*
X37875Y2124000D01*
X89125Y2124000D01*
X91269Y2123895D01*
G37*
%TD.AperFunction*%
%TA.AperFunction,SMDPad,CuDef*%
G36*
X91269Y1806395D02*
G01*
X93393Y1806080D01*
X95475Y1805558D01*
X97496Y1804835D01*
X99437Y1803917D01*
X101278Y1802813D01*
X103002Y1801535D01*
X104593Y1800093D01*
X106035Y1798502D01*
X107313Y1796778D01*
X108417Y1794937D01*
X109335Y1792996D01*
X110058Y1790975D01*
X110580Y1788893D01*
X110895Y1786769D01*
X111000Y1784625D01*
X111000Y1740875D01*
X110895Y1738731D01*
X110580Y1736607D01*
X110058Y1734525D01*
X109335Y1732504D01*
X108417Y1730563D01*
X107313Y1728722D01*
X106035Y1726998D01*
X104593Y1725407D01*
X103002Y1723965D01*
X101278Y1722687D01*
X99437Y1721583D01*
X97496Y1720665D01*
X95475Y1719942D01*
X93393Y1719420D01*
X91269Y1719105D01*
X89125Y1719000D01*
X37875Y1719000D01*
X35731Y1719105D01*
X33607Y1719420D01*
X31525Y1719942D01*
X29504Y1720665D01*
X27563Y1721583D01*
X25722Y1722687D01*
X23998Y1723965D01*
X22407Y1725407D01*
X20965Y1726998D01*
X19687Y1728722D01*
X18583Y1730563D01*
X17665Y1732504D01*
X16942Y1734525D01*
X16420Y1736607D01*
X16105Y1738731D01*
X16000Y1740875D01*
X16000Y1784625D01*
X16105Y1786769D01*
X16420Y1788893D01*
X16942Y1790975D01*
X17665Y1792996D01*
X18583Y1794937D01*
X19687Y1796778D01*
X20965Y1798502D01*
X22407Y1800093D01*
X23998Y1801535D01*
X25722Y1802813D01*
X27563Y1803917D01*
X29504Y1804835D01*
X31525Y1805558D01*
X33607Y1806080D01*
X35731Y1806395D01*
X37875Y1806500D01*
X89125Y1806500D01*
X91269Y1806395D01*
G37*
%TD.AperFunction*%
%TA.AperFunction,SMDPad,CuDef*%
G36*
X91269Y1963895D02*
G01*
X93393Y1963580D01*
X95475Y1963058D01*
X97496Y1962335D01*
X99437Y1961417D01*
X101278Y1960313D01*
X103002Y1959035D01*
X104593Y1957593D01*
X106035Y1956002D01*
X107313Y1954278D01*
X108417Y1952437D01*
X109335Y1950496D01*
X110058Y1948475D01*
X110580Y1946393D01*
X110895Y1944269D01*
X111000Y1942125D01*
X111000Y1898375D01*
X110895Y1896231D01*
X110580Y1894107D01*
X110058Y1892025D01*
X109335Y1890004D01*
X108417Y1888063D01*
X107313Y1886222D01*
X106035Y1884498D01*
X104593Y1882907D01*
X103002Y1881465D01*
X101278Y1880187D01*
X99437Y1879083D01*
X97496Y1878165D01*
X95475Y1877442D01*
X93393Y1876920D01*
X91269Y1876605D01*
X89125Y1876500D01*
X37875Y1876500D01*
X35731Y1876605D01*
X33607Y1876920D01*
X31525Y1877442D01*
X29504Y1878165D01*
X27563Y1879083D01*
X25722Y1880187D01*
X23998Y1881465D01*
X22407Y1882907D01*
X20965Y1884498D01*
X19687Y1886222D01*
X18583Y1888063D01*
X17665Y1890004D01*
X16942Y1892025D01*
X16420Y1894107D01*
X16105Y1896231D01*
X16000Y1898375D01*
X16000Y1942125D01*
X16105Y1944269D01*
X16420Y1946393D01*
X16942Y1948475D01*
X17665Y1950496D01*
X18583Y1952437D01*
X19687Y1954278D01*
X20965Y1956002D01*
X22407Y1957593D01*
X23998Y1959035D01*
X25722Y1960313D01*
X27563Y1961417D01*
X29504Y1962335D01*
X31525Y1963058D01*
X33607Y1963580D01*
X35731Y1963895D01*
X37875Y1964000D01*
X89125Y1964000D01*
X91269Y1963895D01*
G37*
%TD.AperFunction*%
%TA.AperFunction,SMDPad,CuDef*%
G36*
X707269Y2015895D02*
G01*
X709393Y2015580D01*
X711475Y2015058D01*
X713496Y2014335D01*
X715437Y2013417D01*
X717278Y2012313D01*
X719002Y2011035D01*
X720593Y2009593D01*
X722035Y2008002D01*
X723313Y2006278D01*
X724417Y2004437D01*
X725335Y2002496D01*
X726058Y2000475D01*
X726580Y1998393D01*
X726895Y1996269D01*
X727000Y1994125D01*
X727000Y1942875D01*
X726895Y1940731D01*
X726580Y1938607D01*
X726058Y1936525D01*
X725335Y1934504D01*
X724417Y1932563D01*
X723313Y1930722D01*
X722035Y1928998D01*
X720593Y1927407D01*
X719002Y1925965D01*
X717278Y1924687D01*
X715437Y1923583D01*
X713496Y1922665D01*
X711475Y1921942D01*
X709393Y1921420D01*
X707269Y1921105D01*
X705125Y1921000D01*
X661375Y1921000D01*
X659231Y1921105D01*
X657107Y1921420D01*
X655025Y1921942D01*
X653004Y1922665D01*
X651063Y1923583D01*
X649222Y1924687D01*
X647498Y1925965D01*
X645907Y1927407D01*
X644465Y1928998D01*
X643187Y1930722D01*
X642083Y1932563D01*
X641165Y1934504D01*
X640442Y1936525D01*
X639920Y1938607D01*
X639605Y1940731D01*
X639500Y1942875D01*
X639500Y1994125D01*
X639605Y1996269D01*
X639920Y1998393D01*
X640442Y2000475D01*
X641165Y2002496D01*
X642083Y2004437D01*
X643187Y2006278D01*
X644465Y2008002D01*
X645907Y2009593D01*
X647498Y2011035D01*
X649222Y2012313D01*
X651063Y2013417D01*
X653004Y2014335D01*
X655025Y2015058D01*
X657107Y2015580D01*
X659231Y2015895D01*
X661375Y2016000D01*
X705125Y2016000D01*
X707269Y2015895D01*
G37*
%TD.AperFunction*%
%TA.AperFunction,SMDPad,CuDef*%
G36*
X864769Y2015895D02*
G01*
X866893Y2015580D01*
X868975Y2015058D01*
X870996Y2014335D01*
X872937Y2013417D01*
X874778Y2012313D01*
X876502Y2011035D01*
X878093Y2009593D01*
X879535Y2008002D01*
X880813Y2006278D01*
X881917Y2004437D01*
X882835Y2002496D01*
X883558Y2000475D01*
X884080Y1998393D01*
X884395Y1996269D01*
X884500Y1994125D01*
X884500Y1942875D01*
X884395Y1940731D01*
X884080Y1938607D01*
X883558Y1936525D01*
X882835Y1934504D01*
X881917Y1932563D01*
X880813Y1930722D01*
X879535Y1928998D01*
X878093Y1927407D01*
X876502Y1925965D01*
X874778Y1924687D01*
X872937Y1923583D01*
X870996Y1922665D01*
X868975Y1921942D01*
X866893Y1921420D01*
X864769Y1921105D01*
X862625Y1921000D01*
X818875Y1921000D01*
X816731Y1921105D01*
X814607Y1921420D01*
X812525Y1921942D01*
X810504Y1922665D01*
X808563Y1923583D01*
X806722Y1924687D01*
X804998Y1925965D01*
X803407Y1927407D01*
X801965Y1928998D01*
X800687Y1930722D01*
X799583Y1932563D01*
X798665Y1934504D01*
X797942Y1936525D01*
X797420Y1938607D01*
X797105Y1940731D01*
X797000Y1942875D01*
X797000Y1994125D01*
X797105Y1996269D01*
X797420Y1998393D01*
X797942Y2000475D01*
X798665Y2002496D01*
X799583Y2004437D01*
X800687Y2006278D01*
X801965Y2008002D01*
X803407Y2009593D01*
X804998Y2011035D01*
X806722Y2012313D01*
X808563Y2013417D01*
X810504Y2014335D01*
X812525Y2015058D01*
X814607Y2015580D01*
X816731Y2015895D01*
X818875Y2016000D01*
X862625Y2016000D01*
X864769Y2015895D01*
G37*
%TD.AperFunction*%
%TA.AperFunction,SMDPad,CuDef*%
G36*
X864769Y1825395D02*
G01*
X866893Y1825080D01*
X868975Y1824558D01*
X870996Y1823835D01*
X872937Y1822917D01*
X874778Y1821813D01*
X876502Y1820535D01*
X878093Y1819093D01*
X879535Y1817502D01*
X880813Y1815778D01*
X881917Y1813937D01*
X882835Y1811996D01*
X883558Y1809975D01*
X884080Y1807893D01*
X884395Y1805769D01*
X884500Y1803625D01*
X884500Y1752375D01*
X884395Y1750231D01*
X884080Y1748107D01*
X883558Y1746025D01*
X882835Y1744004D01*
X881917Y1742063D01*
X880813Y1740222D01*
X879535Y1738498D01*
X878093Y1736907D01*
X876502Y1735465D01*
X874778Y1734187D01*
X872937Y1733083D01*
X870996Y1732165D01*
X868975Y1731442D01*
X866893Y1730920D01*
X864769Y1730605D01*
X862625Y1730500D01*
X818875Y1730500D01*
X816731Y1730605D01*
X814607Y1730920D01*
X812525Y1731442D01*
X810504Y1732165D01*
X808563Y1733083D01*
X806722Y1734187D01*
X804998Y1735465D01*
X803407Y1736907D01*
X801965Y1738498D01*
X800687Y1740222D01*
X799583Y1742063D01*
X798665Y1744004D01*
X797942Y1746025D01*
X797420Y1748107D01*
X797105Y1750231D01*
X797000Y1752375D01*
X797000Y1803625D01*
X797105Y1805769D01*
X797420Y1807893D01*
X797942Y1809975D01*
X798665Y1811996D01*
X799583Y1813937D01*
X800687Y1815778D01*
X801965Y1817502D01*
X803407Y1819093D01*
X804998Y1820535D01*
X806722Y1821813D01*
X808563Y1822917D01*
X810504Y1823835D01*
X812525Y1824558D01*
X814607Y1825080D01*
X816731Y1825395D01*
X818875Y1825500D01*
X862625Y1825500D01*
X864769Y1825395D01*
G37*
%TD.AperFunction*%
%TA.AperFunction,SMDPad,CuDef*%
G36*
X707269Y1825395D02*
G01*
X709393Y1825080D01*
X711475Y1824558D01*
X713496Y1823835D01*
X715437Y1822917D01*
X717278Y1821813D01*
X719002Y1820535D01*
X720593Y1819093D01*
X722035Y1817502D01*
X723313Y1815778D01*
X724417Y1813937D01*
X725335Y1811996D01*
X726058Y1809975D01*
X726580Y1807893D01*
X726895Y1805769D01*
X727000Y1803625D01*
X727000Y1752375D01*
X726895Y1750231D01*
X726580Y1748107D01*
X726058Y1746025D01*
X725335Y1744004D01*
X724417Y1742063D01*
X723313Y1740222D01*
X722035Y1738498D01*
X720593Y1736907D01*
X719002Y1735465D01*
X717278Y1734187D01*
X715437Y1733083D01*
X713496Y1732165D01*
X711475Y1731442D01*
X709393Y1730920D01*
X707269Y1730605D01*
X705125Y1730500D01*
X661375Y1730500D01*
X659231Y1730605D01*
X657107Y1730920D01*
X655025Y1731442D01*
X653004Y1732165D01*
X651063Y1733083D01*
X649222Y1734187D01*
X647498Y1735465D01*
X645907Y1736907D01*
X644465Y1738498D01*
X643187Y1740222D01*
X642083Y1742063D01*
X641165Y1744004D01*
X640442Y1746025D01*
X639920Y1748107D01*
X639605Y1750231D01*
X639500Y1752375D01*
X639500Y1803625D01*
X639605Y1805769D01*
X639920Y1807893D01*
X640442Y1809975D01*
X641165Y1811996D01*
X642083Y1813937D01*
X643187Y1815778D01*
X644465Y1817502D01*
X645907Y1819093D01*
X647498Y1820535D01*
X649222Y1821813D01*
X651063Y1822917D01*
X653004Y1823835D01*
X655025Y1824558D01*
X657107Y1825080D01*
X659231Y1825395D01*
X661375Y1825500D01*
X705125Y1825500D01*
X707269Y1825395D01*
G37*
%TD.AperFunction*%
%TA.AperFunction,SMDPad,CuDef*%
G36*
X1488269Y1806395D02*
G01*
X1490393Y1806080D01*
X1492475Y1805558D01*
X1494496Y1804835D01*
X1496437Y1803917D01*
X1498278Y1802813D01*
X1500002Y1801535D01*
X1501593Y1800093D01*
X1503035Y1798502D01*
X1504313Y1796778D01*
X1505417Y1794937D01*
X1506335Y1792996D01*
X1507058Y1790975D01*
X1507580Y1788893D01*
X1507895Y1786769D01*
X1508000Y1784625D01*
X1508000Y1740875D01*
X1507895Y1738731D01*
X1507580Y1736607D01*
X1507058Y1734525D01*
X1506335Y1732504D01*
X1505417Y1730563D01*
X1504313Y1728722D01*
X1503035Y1726998D01*
X1501593Y1725407D01*
X1500002Y1723965D01*
X1498278Y1722687D01*
X1496437Y1721583D01*
X1494496Y1720665D01*
X1492475Y1719942D01*
X1490393Y1719420D01*
X1488269Y1719105D01*
X1486125Y1719000D01*
X1434875Y1719000D01*
X1432731Y1719105D01*
X1430607Y1719420D01*
X1428525Y1719942D01*
X1426504Y1720665D01*
X1424563Y1721583D01*
X1422722Y1722687D01*
X1420998Y1723965D01*
X1419407Y1725407D01*
X1417965Y1726998D01*
X1416687Y1728722D01*
X1415583Y1730563D01*
X1414665Y1732504D01*
X1413942Y1734525D01*
X1413420Y1736607D01*
X1413105Y1738731D01*
X1413000Y1740875D01*
X1413000Y1784625D01*
X1413105Y1786769D01*
X1413420Y1788893D01*
X1413942Y1790975D01*
X1414665Y1792996D01*
X1415583Y1794937D01*
X1416687Y1796778D01*
X1417965Y1798502D01*
X1419407Y1800093D01*
X1420998Y1801535D01*
X1422722Y1802813D01*
X1424563Y1803917D01*
X1426504Y1804835D01*
X1428525Y1805558D01*
X1430607Y1806080D01*
X1432731Y1806395D01*
X1434875Y1806500D01*
X1486125Y1806500D01*
X1488269Y1806395D01*
G37*
%TD.AperFunction*%
%TA.AperFunction,SMDPad,CuDef*%
G36*
X1488269Y1963895D02*
G01*
X1490393Y1963580D01*
X1492475Y1963058D01*
X1494496Y1962335D01*
X1496437Y1961417D01*
X1498278Y1960313D01*
X1500002Y1959035D01*
X1501593Y1957593D01*
X1503035Y1956002D01*
X1504313Y1954278D01*
X1505417Y1952437D01*
X1506335Y1950496D01*
X1507058Y1948475D01*
X1507580Y1946393D01*
X1507895Y1944269D01*
X1508000Y1942125D01*
X1508000Y1898375D01*
X1507895Y1896231D01*
X1507580Y1894107D01*
X1507058Y1892025D01*
X1506335Y1890004D01*
X1505417Y1888063D01*
X1504313Y1886222D01*
X1503035Y1884498D01*
X1501593Y1882907D01*
X1500002Y1881465D01*
X1498278Y1880187D01*
X1496437Y1879083D01*
X1494496Y1878165D01*
X1492475Y1877442D01*
X1490393Y1876920D01*
X1488269Y1876605D01*
X1486125Y1876500D01*
X1434875Y1876500D01*
X1432731Y1876605D01*
X1430607Y1876920D01*
X1428525Y1877442D01*
X1426504Y1878165D01*
X1424563Y1879083D01*
X1422722Y1880187D01*
X1420998Y1881465D01*
X1419407Y1882907D01*
X1417965Y1884498D01*
X1416687Y1886222D01*
X1415583Y1888063D01*
X1414665Y1890004D01*
X1413942Y1892025D01*
X1413420Y1894107D01*
X1413105Y1896231D01*
X1413000Y1898375D01*
X1413000Y1942125D01*
X1413105Y1944269D01*
X1413420Y1946393D01*
X1413942Y1948475D01*
X1414665Y1950496D01*
X1415583Y1952437D01*
X1416687Y1954278D01*
X1417965Y1956002D01*
X1419407Y1957593D01*
X1420998Y1959035D01*
X1422722Y1960313D01*
X1424563Y1961417D01*
X1426504Y1962335D01*
X1428525Y1963058D01*
X1430607Y1963580D01*
X1432731Y1963895D01*
X1434875Y1964000D01*
X1486125Y1964000D01*
X1488269Y1963895D01*
G37*
%TD.AperFunction*%
D14*
X127000Y3048000D03*
X381000Y3048000D03*
X635000Y3048000D03*
X889000Y3048000D03*
X1143000Y3048000D03*
D15*
X1397000Y3048000D03*
D14*
X1270000Y2540000D03*
D15*
X1270000Y2794000D03*
D14*
X1143000Y2286000D03*
X889000Y2286000D03*
X635000Y2286000D03*
D15*
X381000Y2286000D03*
D14*
X1016000Y2794000D03*
X1016000Y2540000D03*
X762000Y2794000D03*
X762000Y2540000D03*
X508000Y2794000D03*
X508000Y2540000D03*
X254000Y2794000D03*
D15*
X254000Y2540000D03*
D16*
X2000Y-32500D03*
X2000Y167500D03*
X2000Y367500D03*
X2000Y567500D03*
X2000Y767500D03*
X2000Y967500D03*
X2000Y1167500D03*
X2000Y1367500D03*
D17*
X262000Y1517500D03*
X462000Y1517500D03*
X662000Y1517500D03*
X862000Y1517500D03*
X1062000Y1517500D03*
X1262000Y1517500D03*
D16*
X1522000Y1367500D03*
X1522000Y1167500D03*
X1522000Y967500D03*
X1522000Y767500D03*
X1522000Y567500D03*
X1522000Y367500D03*
X1522000Y167500D03*
X1522000Y-32500D03*
D18*
X444500Y406400D03*
X673100Y685800D03*
X1365250Y2082800D03*
X1250950Y1771650D03*
X863600Y419100D03*
X203200Y1035050D03*
X266700Y755650D03*
X146050Y1524000D03*
X381000Y1803400D03*
X247650Y139700D03*
X330200Y-63500D03*
X1282700Y-63500D03*
X749300Y1308100D03*
X590550Y1346200D03*
X596900Y1879600D03*
X762000Y1663700D03*
X254000Y2959100D03*
X203200Y1689100D03*
X673100Y901700D03*
X1092200Y723900D03*
X965200Y863600D03*
X1110899Y1905000D03*
X1225550Y171450D03*
X1231900Y1282700D03*
X285750Y2146300D03*
X1308101Y761999D03*
X901700Y1270000D03*
X736906Y1103492D03*
X1365250Y869950D03*
X1397000Y2413000D03*
X1562100Y1651000D03*
X1371600Y1073150D03*
X203200Y1168400D03*
X1029602Y1130300D03*
X254000Y254000D03*
X254000Y38100D03*
X615950Y1257300D03*
X539399Y1041400D03*
X1026015Y2152998D03*
X463550Y831850D03*
X167392Y1613440D03*
X844199Y1159851D03*
X913498Y1382499D03*
X381000Y1905000D03*
X959100Y1810000D03*
X958850Y2095497D03*
D19*
X1243000Y1905000D02*
X1110899Y1905000D01*
X939800Y1905000D02*
X1110899Y1905000D01*
X762000Y2057400D02*
X762000Y1917700D01*
X762000Y1917700D02*
X793750Y1885950D01*
X1016000Y2349550D02*
X1016000Y2239100D01*
X882650Y2673350D02*
X882650Y2482900D01*
X762000Y2794000D02*
X882650Y2673350D01*
X1016000Y2239100D02*
X885100Y2108200D01*
X793750Y1885950D02*
X920750Y1885950D01*
X885100Y2108200D02*
X812800Y2108200D01*
X882650Y2482900D02*
X1016000Y2349550D01*
X920750Y1885950D02*
X939800Y1905000D01*
X812800Y2108200D02*
X762000Y2057400D01*
X1522000Y-32500D02*
X1359650Y-32500D01*
X1225550Y101600D02*
X1225550Y171450D01*
X1359650Y-32500D02*
X1225550Y101600D01*
X63500Y2080250D02*
X63500Y2026500D01*
X63500Y2026500D02*
X63500Y1930400D01*
X1460500Y1762750D02*
X1460500Y1663700D01*
X1522000Y1602200D02*
X1460500Y1663700D01*
X1522000Y1367500D02*
X1522000Y1602200D01*
X1383375Y1367500D02*
X1522000Y1367500D01*
X1231900Y1282700D02*
X1298575Y1282700D01*
X1298575Y1282700D02*
X1383375Y1367500D01*
X219700Y2080250D02*
X285750Y2146300D01*
X63500Y2080250D02*
X219700Y2080250D01*
X762000Y2921000D02*
X889000Y3048000D01*
X715100Y2921000D02*
X762000Y2921000D01*
X635000Y2286000D02*
X635000Y2840900D01*
X635000Y2840900D02*
X715100Y2921000D01*
X901700Y1079500D02*
X1219201Y761999D01*
X901700Y1270000D02*
X901700Y1079500D01*
X1272745Y761999D02*
X1308101Y761999D01*
X1219201Y761999D02*
X1272745Y761999D01*
X1522000Y167500D02*
X1372000Y167500D01*
X1372000Y167500D02*
X736906Y802594D01*
X736906Y802594D02*
X736906Y1068137D01*
X736906Y1068137D02*
X736906Y1103492D01*
X1365250Y787400D02*
X1365250Y869950D01*
X1522000Y767500D02*
X1385150Y767500D01*
X1385150Y767500D02*
X1365250Y787400D01*
X1327150Y1727200D02*
X1284951Y1685001D01*
X1284951Y1685001D02*
X1227801Y1685001D01*
X1155700Y1612900D02*
X1155700Y1412700D01*
X1155700Y1412700D02*
X972101Y1229101D01*
X972101Y1229101D02*
X972101Y1085299D01*
X1397000Y2413000D02*
X1308100Y2324100D01*
X1308100Y2324100D02*
X1308100Y2206491D01*
X1308100Y2206491D02*
X1231900Y2130291D01*
X1522000Y967500D02*
X1089900Y967500D01*
X1231900Y2130291D02*
X1231900Y2051050D01*
X1231900Y2051050D02*
X1327150Y1955800D01*
X1327150Y1955800D02*
X1327150Y1727200D01*
X1227801Y1685001D02*
X1155700Y1612900D01*
X1089900Y967500D02*
X972101Y1085299D01*
X1524000Y2540000D02*
X1524000Y2374900D01*
X1524000Y2374900D02*
X1562100Y2336800D01*
X1562100Y2336800D02*
X1562100Y1651000D01*
X1371600Y1108505D02*
X1371600Y1073150D01*
X1371600Y1143000D02*
X1371600Y1108505D01*
X1522000Y1167500D02*
X1396100Y1167500D01*
X1396100Y1167500D02*
X1371600Y1143000D01*
X2000Y1167500D02*
X202300Y1167500D01*
X202300Y1167500D02*
X203200Y1168400D01*
X1397000Y2667000D02*
X1524000Y2794000D01*
X1397000Y2495550D02*
X1397000Y2667000D01*
X1460500Y2237750D02*
X1460500Y2432050D01*
X1460500Y2432050D02*
X1397000Y2495550D01*
X1344500Y1668350D02*
X1344500Y1401500D01*
X1403000Y2237750D02*
X1289050Y2123800D01*
X1372151Y1980649D02*
X1372151Y1696001D01*
X1372151Y1696001D02*
X1344500Y1668350D01*
X1460500Y2237750D02*
X1403000Y2237750D01*
X1289050Y2123800D02*
X1289050Y2063750D01*
X1289050Y2063750D02*
X1372151Y1980649D01*
X1344500Y1401500D02*
X1314600Y1371600D01*
X1314600Y1371600D02*
X1206500Y1371600D01*
X1206500Y1371600D02*
X1029602Y1194702D01*
X1029602Y1194702D02*
X1029602Y1130300D01*
X167500Y167500D02*
X254000Y254000D01*
X2000Y167500D02*
X167500Y167500D01*
X2000Y-32500D02*
X183400Y-32500D01*
X183400Y-32500D02*
X254000Y38100D01*
X514350Y2927350D02*
X635000Y3048000D01*
X387350Y2927350D02*
X514350Y2927350D01*
X254000Y2794000D02*
X387350Y2927350D01*
X615950Y1221945D02*
X615950Y1257300D01*
X254000Y38100D02*
X596900Y381000D01*
X596900Y1202895D02*
X615950Y1221945D01*
X596900Y381000D02*
X596900Y1202895D01*
X2000Y367500D02*
X152000Y367500D01*
X539399Y754899D02*
X539399Y1006045D01*
X152000Y367500D02*
X539399Y754899D01*
X539399Y1006045D02*
X539399Y1041400D01*
X1143000Y2269983D02*
X1026015Y2152998D01*
X1143000Y2286000D02*
X1143000Y2269983D01*
X438550Y806850D02*
X463550Y831850D01*
X2000Y567500D02*
X199200Y567500D01*
X199200Y567500D02*
X438550Y806850D01*
X127000Y2667000D02*
X127000Y2505075D01*
X127000Y2505075D02*
X-89499Y2288576D01*
X-89499Y2288576D02*
X-89499Y1702399D01*
X132037Y1613440D02*
X167392Y1613440D01*
X0Y2794000D02*
X127000Y2667000D01*
X-540Y1613440D02*
X132037Y1613440D01*
X-89499Y1702399D02*
X-540Y1613440D01*
X856699Y845101D02*
X856699Y1147351D01*
X856699Y1147351D02*
X844199Y1159851D01*
X1522000Y567500D02*
X1134300Y567500D01*
X1134300Y567500D02*
X856699Y845101D01*
X387350Y2082800D02*
X281000Y1976450D01*
X281000Y1976450D02*
X281000Y1905000D01*
X609600Y2082800D02*
X387350Y2082800D01*
X762000Y2540000D02*
X762000Y2235200D01*
X762000Y2235200D02*
X609600Y2082800D01*
X558800Y1403350D02*
X400050Y1244600D01*
X281000Y1814500D02*
X444500Y1651000D01*
X558800Y1625600D02*
X558800Y1403350D01*
X281000Y1905000D02*
X281000Y1814500D01*
X400050Y1012825D02*
X154725Y767500D01*
X400050Y1244600D02*
X400050Y1012825D01*
X444500Y1651000D02*
X533400Y1651000D01*
X154725Y767500D02*
X2000Y767500D01*
X533400Y1651000D02*
X558800Y1625600D01*
X508000Y2184400D02*
X469900Y2146300D01*
X508000Y2540000D02*
X508000Y2184400D01*
X368300Y2146300D02*
X203200Y1981200D01*
X469900Y2146300D02*
X368300Y2146300D01*
X203200Y1981200D02*
X203200Y1763700D01*
X203200Y1763700D02*
X163500Y1763700D01*
X121950Y1763700D02*
X163500Y1763700D01*
X121000Y1762750D02*
X121950Y1763700D01*
X63500Y1762750D02*
X121000Y1762750D01*
X349250Y1054100D02*
X262650Y967500D01*
X262650Y967500D02*
X2000Y967500D01*
X349250Y1670050D02*
X349250Y1054100D01*
X203200Y1763700D02*
X255600Y1763700D01*
X255600Y1763700D02*
X349250Y1670050D01*
X63500Y2343150D02*
X63500Y2237750D01*
X381000Y2667000D02*
X381000Y2438500D01*
X355500Y2413000D02*
X133350Y2413000D01*
X381000Y2438500D02*
X355500Y2413000D01*
X508000Y2794000D02*
X381000Y2667000D01*
X133350Y2413000D02*
X63500Y2343150D01*
X786699Y1255700D02*
X888498Y1357499D01*
X888498Y1357499D02*
X913498Y1382499D01*
X1245400Y367500D02*
X811698Y801202D01*
X811698Y801202D02*
X811698Y1107252D01*
X1522000Y367500D02*
X1245400Y367500D01*
X811698Y1107252D02*
X786699Y1132251D01*
X786699Y1132251D02*
X786699Y1255700D01*
X565400Y2000000D02*
X481000Y2000000D01*
X683250Y1968500D02*
X596900Y1968500D01*
X596900Y1968500D02*
X565400Y2000000D01*
X411000Y2000000D02*
X481000Y2000000D01*
X381000Y1905000D02*
X381000Y1970000D01*
X381000Y1970000D02*
X411000Y2000000D01*
X927100Y1778000D02*
X840750Y1778000D01*
X1043000Y1810000D02*
X959100Y1810000D01*
X959100Y1810000D02*
X927100Y1778000D01*
X1143000Y2476500D02*
X1263099Y2356401D01*
X1143000Y3048000D02*
X1143000Y2476500D01*
X1263099Y2232199D02*
X1126397Y2095497D01*
X1126397Y2095497D02*
X958850Y2095497D01*
X1263099Y2356401D02*
X1263099Y2232199D01*
X564900Y1810000D02*
X481000Y1810000D01*
X683250Y1778000D02*
X596900Y1778000D01*
X596900Y1778000D02*
X564900Y1810000D01*
X929850Y1968500D02*
X840750Y1968500D01*
X1043000Y2000000D02*
X961350Y2000000D01*
X961350Y2000000D02*
X929850Y1968500D01*
D20*
G36*
X568154Y1942445D02*
G01*
X569367Y1940967D01*
X575268Y1936125D01*
X581999Y1932526D01*
X586825Y1931063D01*
X589304Y1930311D01*
X590081Y1930234D01*
X594997Y1929750D01*
X594998Y1929750D01*
X596900Y1929563D01*
X598802Y1929750D01*
X615176Y1929750D01*
X616796Y1924410D01*
X621255Y1916068D01*
X627256Y1908756D01*
X634568Y1902755D01*
X642910Y1898296D01*
X651962Y1895550D01*
X661375Y1894623D01*
X705125Y1894623D01*
X714538Y1895550D01*
X723590Y1898296D01*
X727357Y1900310D01*
X729625Y1896067D01*
X734467Y1890167D01*
X735945Y1888954D01*
X765004Y1859895D01*
X766217Y1858417D01*
X772117Y1853575D01*
X774819Y1852131D01*
X778849Y1849976D01*
X786154Y1847761D01*
X793750Y1847013D01*
X795653Y1847200D01*
X798531Y1847200D01*
X792068Y1843745D01*
X784756Y1837744D01*
X778755Y1830432D01*
X774296Y1822090D01*
X771550Y1813038D01*
X770623Y1803625D01*
X770623Y1752375D01*
X771550Y1742961D01*
X774296Y1733910D01*
X778755Y1725568D01*
X784756Y1718256D01*
X792068Y1712255D01*
X800410Y1707796D01*
X809461Y1705050D01*
X818875Y1704123D01*
X862625Y1704123D01*
X872038Y1705050D01*
X881090Y1707796D01*
X889432Y1712255D01*
X896744Y1718256D01*
X902745Y1725568D01*
X907204Y1733910D01*
X908824Y1739250D01*
X925197Y1739250D01*
X927100Y1739063D01*
X929003Y1739250D01*
X934696Y1739811D01*
X942001Y1742026D01*
X948732Y1745625D01*
X954633Y1750467D01*
X955846Y1751945D01*
X962651Y1758750D01*
X964148Y1758750D01*
X973422Y1760595D01*
X973631Y1759906D01*
X976068Y1755346D01*
X979349Y1751349D01*
X983346Y1748068D01*
X987906Y1745631D01*
X992854Y1744130D01*
X998000Y1743623D01*
X1088000Y1743623D01*
X1093146Y1744130D01*
X1098094Y1745631D01*
X1102654Y1748068D01*
X1106651Y1751349D01*
X1109932Y1755346D01*
X1112369Y1759906D01*
X1113870Y1764854D01*
X1114377Y1770000D01*
X1114377Y1850000D01*
X1114008Y1853750D01*
X1115947Y1853750D01*
X1125848Y1855719D01*
X1135175Y1859583D01*
X1143569Y1865191D01*
X1144628Y1866250D01*
X1171623Y1866250D01*
X1171623Y1865000D01*
X1172130Y1859854D01*
X1173631Y1854906D01*
X1176068Y1850346D01*
X1179349Y1846349D01*
X1183346Y1843068D01*
X1187906Y1840631D01*
X1192854Y1839130D01*
X1198000Y1838623D01*
X1288000Y1838623D01*
X1288400Y1838662D01*
X1288400Y1743251D01*
X1268901Y1723751D01*
X1229704Y1723751D01*
X1227801Y1723939D01*
X1220205Y1723190D01*
X1217989Y1722518D01*
X1212901Y1720975D01*
X1206169Y1717376D01*
X1200268Y1712534D01*
X1199055Y1711056D01*
X1129646Y1641646D01*
X1128167Y1640433D01*
X1123325Y1634532D01*
X1121928Y1631919D01*
X1117146Y1633370D01*
X1112000Y1633877D01*
X1012000Y1633877D01*
X1006854Y1633370D01*
X1001906Y1631869D01*
X997346Y1629432D01*
X993349Y1626151D01*
X990068Y1622154D01*
X987631Y1617594D01*
X986130Y1612646D01*
X985623Y1607500D01*
X985623Y1427500D01*
X986130Y1422354D01*
X987631Y1417406D01*
X990068Y1412846D01*
X993349Y1408849D01*
X997346Y1405568D01*
X1001906Y1403131D01*
X1006854Y1401630D01*
X1012000Y1401123D01*
X1089322Y1401123D01*
X952900Y1264700D01*
X952950Y1264952D01*
X952950Y1275048D01*
X950980Y1284949D01*
X947117Y1294276D01*
X941508Y1302670D01*
X934370Y1309809D01*
X925976Y1315417D01*
X916649Y1319281D01*
X907000Y1321200D01*
X917049Y1331249D01*
X918546Y1331249D01*
X928447Y1333218D01*
X937774Y1337082D01*
X946168Y1342690D01*
X953307Y1349829D01*
X958915Y1358223D01*
X962779Y1367550D01*
X964748Y1377451D01*
X964748Y1387547D01*
X962779Y1397448D01*
X958915Y1406775D01*
X953307Y1415169D01*
X946168Y1422307D01*
X938377Y1427513D01*
X938377Y1607500D01*
X937870Y1612646D01*
X936369Y1617594D01*
X933932Y1622154D01*
X930651Y1626151D01*
X926654Y1629432D01*
X922094Y1631869D01*
X917146Y1633370D01*
X912000Y1633877D01*
X812000Y1633877D01*
X806854Y1633370D01*
X801906Y1631869D01*
X797346Y1629432D01*
X793349Y1626151D01*
X790068Y1622154D01*
X787631Y1617594D01*
X786130Y1612646D01*
X785623Y1607500D01*
X785623Y1427500D01*
X786130Y1422354D01*
X787631Y1417406D01*
X790068Y1412846D01*
X793349Y1408849D01*
X797346Y1405568D01*
X801906Y1403131D01*
X806854Y1401630D01*
X812000Y1401123D01*
X865740Y1401123D01*
X864218Y1397448D01*
X862248Y1387547D01*
X862248Y1386050D01*
X760644Y1284445D01*
X759166Y1283233D01*
X754324Y1277332D01*
X754133Y1276975D01*
X750725Y1270600D01*
X748510Y1263296D01*
X747761Y1255700D01*
X747949Y1253796D01*
X747949Y1153550D01*
X741954Y1154742D01*
X731859Y1154742D01*
X721957Y1152773D01*
X712630Y1148909D01*
X704236Y1143301D01*
X697098Y1136162D01*
X691489Y1127768D01*
X687626Y1118441D01*
X685656Y1108540D01*
X685656Y1098444D01*
X687626Y1088543D01*
X691489Y1079216D01*
X697098Y1070822D01*
X698156Y1069764D01*
X698156Y1066234D01*
X698157Y1066233D01*
X698156Y804496D01*
X697969Y802594D01*
X698717Y794997D01*
X699069Y793836D01*
X700933Y787693D01*
X704531Y780961D01*
X709373Y775061D01*
X710852Y773847D01*
X1343254Y141445D01*
X1344467Y139967D01*
X1350368Y135125D01*
X1354754Y132780D01*
X1357099Y131527D01*
X1364404Y129311D01*
X1370623Y128698D01*
X1370623Y117500D01*
X1371130Y112354D01*
X1372631Y107406D01*
X1375068Y102846D01*
X1378349Y98849D01*
X1382346Y95568D01*
X1386906Y93131D01*
X1391854Y91630D01*
X1397000Y91123D01*
X1627250Y91123D01*
X1627250Y43877D01*
X1397000Y43877D01*
X1391854Y43370D01*
X1386906Y41869D01*
X1382346Y39432D01*
X1378349Y36151D01*
X1375068Y32154D01*
X1372631Y27594D01*
X1371130Y22646D01*
X1370623Y17500D01*
X1370623Y11328D01*
X1264300Y117651D01*
X1264300Y137722D01*
X1265359Y138780D01*
X1270967Y147174D01*
X1274831Y156501D01*
X1276800Y166402D01*
X1276800Y176498D01*
X1274831Y186399D01*
X1270967Y195726D01*
X1265359Y204120D01*
X1258220Y211258D01*
X1249826Y216867D01*
X1240499Y220730D01*
X1230598Y222700D01*
X1220502Y222700D01*
X1210601Y220730D01*
X1201274Y216867D01*
X1192880Y211258D01*
X1185742Y204120D01*
X1180133Y195726D01*
X1176270Y186399D01*
X1174300Y176498D01*
X1174300Y166402D01*
X1176270Y156501D01*
X1180133Y147174D01*
X1185742Y138780D01*
X1186800Y137721D01*
X1186800Y103503D01*
X1186613Y101600D01*
X1186800Y99697D01*
X1187361Y94004D01*
X1189577Y86699D01*
X1193175Y79968D01*
X1198017Y74067D01*
X1199496Y72854D01*
X1330904Y-58555D01*
X1332117Y-60033D01*
X1338018Y-64875D01*
X1344749Y-68474D01*
X1349838Y-70017D01*
X1352054Y-70689D01*
X1352831Y-70766D01*
X1357747Y-71250D01*
X1357748Y-71250D01*
X1359650Y-71437D01*
X1361552Y-71250D01*
X1370623Y-71250D01*
X1370623Y-82500D01*
X1371130Y-87646D01*
X1372631Y-92594D01*
X1375068Y-97154D01*
X1378349Y-101151D01*
X1380906Y-103250D01*
X143094Y-103250D01*
X145651Y-101151D01*
X148932Y-97154D01*
X151369Y-92594D01*
X152870Y-87646D01*
X153377Y-82500D01*
X153377Y-71250D01*
X181497Y-71250D01*
X183400Y-71437D01*
X185303Y-71250D01*
X190996Y-70689D01*
X198301Y-68474D01*
X205032Y-64875D01*
X210933Y-60033D01*
X212146Y-58554D01*
X257551Y-13150D01*
X259048Y-13150D01*
X268949Y-11180D01*
X278276Y-7317D01*
X286670Y-1708D01*
X293809Y5430D01*
X299417Y13824D01*
X303281Y23151D01*
X305250Y33052D01*
X305250Y34549D01*
X622955Y352254D01*
X624433Y353467D01*
X629275Y359367D01*
X632874Y366099D01*
X635089Y373404D01*
X635650Y379097D01*
X635650Y379098D01*
X635837Y381000D01*
X635650Y382902D01*
X635650Y1186844D01*
X642005Y1193199D01*
X643483Y1194412D01*
X648325Y1200312D01*
X651924Y1207044D01*
X652219Y1208020D01*
X654139Y1214348D01*
X654887Y1221945D01*
X654725Y1223596D01*
X655759Y1224630D01*
X661367Y1233024D01*
X665231Y1242351D01*
X667200Y1252252D01*
X667200Y1262348D01*
X665231Y1272249D01*
X661367Y1281576D01*
X655759Y1289970D01*
X648620Y1297109D01*
X640226Y1302717D01*
X630899Y1306581D01*
X620998Y1308550D01*
X610902Y1308550D01*
X601001Y1306581D01*
X591674Y1302717D01*
X583280Y1297109D01*
X576142Y1289970D01*
X570533Y1281576D01*
X566670Y1272249D01*
X564700Y1262348D01*
X564700Y1252252D01*
X566670Y1242351D01*
X570533Y1233024D01*
X571212Y1232007D01*
X570845Y1231641D01*
X569367Y1230428D01*
X564525Y1224527D01*
X562128Y1220042D01*
X560927Y1217795D01*
X558711Y1210491D01*
X557963Y1202895D01*
X558150Y1200991D01*
X558150Y1089106D01*
X554348Y1090681D01*
X544447Y1092650D01*
X534351Y1092650D01*
X524450Y1090681D01*
X515123Y1086817D01*
X506729Y1081209D01*
X499590Y1074070D01*
X493982Y1065676D01*
X490118Y1056349D01*
X488149Y1046448D01*
X488149Y1036352D01*
X490118Y1026451D01*
X493982Y1017124D01*
X499590Y1008730D01*
X500649Y1007671D01*
X500649Y1004142D01*
X500649Y1004141D01*
X500649Y867229D01*
X496220Y871658D01*
X487826Y877267D01*
X478499Y881130D01*
X468598Y883100D01*
X458502Y883100D01*
X448601Y881130D01*
X439274Y877267D01*
X430880Y871658D01*
X423741Y864520D01*
X418133Y856126D01*
X414269Y846799D01*
X412300Y836898D01*
X412300Y835401D01*
X183149Y606250D01*
X153377Y606250D01*
X153377Y617500D01*
X152870Y622646D01*
X151369Y627594D01*
X148932Y632154D01*
X145651Y636151D01*
X141654Y639432D01*
X137094Y641869D01*
X132146Y643370D01*
X127000Y643877D01*
X-103250Y643877D01*
X-103250Y691123D01*
X127000Y691123D01*
X132146Y691630D01*
X137094Y693131D01*
X141654Y695568D01*
X145651Y698849D01*
X148932Y702846D01*
X151369Y707406D01*
X152870Y712354D01*
X153377Y717500D01*
X153377Y728695D01*
X154725Y728563D01*
X156628Y728750D01*
X157581Y728844D01*
X162321Y729311D01*
X162383Y729329D01*
X169626Y731526D01*
X176357Y735125D01*
X182258Y739967D01*
X183471Y741445D01*
X426104Y984079D01*
X427583Y985292D01*
X432425Y991192D01*
X436023Y997924D01*
X438239Y1005229D01*
X438800Y1010922D01*
X438800Y1010923D01*
X438987Y1012825D01*
X438800Y1014727D01*
X438800Y1228549D01*
X584855Y1374604D01*
X586333Y1375817D01*
X591175Y1381718D01*
X594774Y1388449D01*
X596771Y1395033D01*
X596989Y1395754D01*
X597177Y1397655D01*
X597550Y1401447D01*
X597550Y1401448D01*
X597737Y1403350D01*
X597550Y1405252D01*
X597550Y1405459D01*
X601906Y1403131D01*
X606854Y1401630D01*
X612000Y1401123D01*
X712000Y1401123D01*
X717146Y1401630D01*
X722094Y1403131D01*
X726654Y1405568D01*
X730651Y1408849D01*
X733932Y1412846D01*
X736369Y1417406D01*
X737870Y1422354D01*
X738377Y1427500D01*
X738377Y1607500D01*
X737870Y1612646D01*
X736369Y1617594D01*
X733932Y1622154D01*
X730651Y1626151D01*
X726654Y1629432D01*
X722094Y1631869D01*
X717146Y1633370D01*
X712000Y1633877D01*
X612000Y1633877D01*
X606854Y1633370D01*
X601906Y1631869D01*
X597359Y1629439D01*
X596989Y1633196D01*
X596937Y1633370D01*
X595479Y1638173D01*
X594774Y1640501D01*
X591175Y1647232D01*
X586333Y1653133D01*
X584855Y1654346D01*
X562146Y1677054D01*
X560933Y1678533D01*
X555033Y1683375D01*
X548301Y1686973D01*
X540996Y1689189D01*
X535303Y1689750D01*
X533400Y1689937D01*
X531497Y1689750D01*
X460551Y1689750D01*
X319750Y1830551D01*
X319750Y1838623D01*
X326000Y1838623D01*
X331146Y1839130D01*
X336094Y1840631D01*
X340654Y1843068D01*
X344651Y1846349D01*
X347648Y1850000D01*
X409623Y1850000D01*
X409623Y1770000D01*
X410130Y1764854D01*
X411631Y1759906D01*
X414068Y1755346D01*
X417349Y1751349D01*
X421346Y1748068D01*
X425906Y1745631D01*
X430854Y1744130D01*
X436000Y1743623D01*
X526000Y1743623D01*
X531146Y1744130D01*
X536094Y1745631D01*
X540654Y1748068D01*
X544651Y1751349D01*
X547932Y1755346D01*
X550369Y1759906D01*
X551870Y1764854D01*
X552173Y1767926D01*
X568154Y1751945D01*
X569367Y1750467D01*
X575268Y1745625D01*
X581999Y1742026D01*
X586741Y1740588D01*
X589304Y1739811D01*
X590081Y1739734D01*
X594997Y1739250D01*
X594998Y1739250D01*
X596900Y1739063D01*
X598802Y1739250D01*
X615176Y1739250D01*
X616796Y1733910D01*
X621255Y1725568D01*
X627256Y1718256D01*
X634568Y1712255D01*
X642910Y1707796D01*
X651962Y1705050D01*
X661375Y1704123D01*
X705125Y1704123D01*
X714538Y1705050D01*
X723590Y1707796D01*
X731932Y1712255D01*
X739244Y1718256D01*
X745245Y1725568D01*
X749704Y1733910D01*
X752450Y1742961D01*
X753377Y1752375D01*
X753377Y1803625D01*
X752450Y1813038D01*
X749704Y1822090D01*
X745245Y1830432D01*
X739244Y1837744D01*
X731932Y1843745D01*
X723590Y1848204D01*
X714538Y1850950D01*
X705125Y1851877D01*
X661375Y1851877D01*
X651962Y1850950D01*
X642910Y1848204D01*
X634568Y1843745D01*
X627256Y1837744D01*
X621255Y1830432D01*
X616796Y1822090D01*
X615176Y1816750D01*
X612951Y1816750D01*
X593646Y1836054D01*
X592433Y1837533D01*
X586533Y1842375D01*
X579801Y1845973D01*
X572496Y1848189D01*
X566803Y1848750D01*
X564900Y1848937D01*
X562997Y1848750D01*
X552377Y1848750D01*
X552377Y1850000D01*
X551870Y1855146D01*
X550369Y1860094D01*
X547932Y1864654D01*
X544651Y1868651D01*
X540654Y1871932D01*
X536094Y1874369D01*
X531146Y1875870D01*
X526000Y1876377D01*
X436000Y1876377D01*
X430854Y1875870D01*
X425906Y1874369D01*
X421346Y1871932D01*
X417349Y1868651D01*
X414068Y1864654D01*
X411631Y1860094D01*
X410130Y1855146D01*
X409623Y1850000D01*
X347648Y1850000D01*
X347932Y1850346D01*
X350369Y1854906D01*
X351870Y1859854D01*
X352145Y1862642D01*
X356724Y1859583D01*
X366051Y1855719D01*
X375952Y1853750D01*
X386048Y1853750D01*
X395949Y1855719D01*
X405276Y1859583D01*
X413670Y1865191D01*
X420808Y1872330D01*
X426417Y1880724D01*
X430280Y1890051D01*
X432250Y1899952D01*
X432250Y1910048D01*
X430280Y1919949D01*
X426417Y1929276D01*
X420808Y1937670D01*
X419750Y1938728D01*
X419750Y1939378D01*
X421346Y1938068D01*
X425906Y1935631D01*
X430854Y1934130D01*
X436000Y1933623D01*
X526000Y1933623D01*
X531146Y1934130D01*
X536094Y1935631D01*
X540654Y1938068D01*
X544651Y1941349D01*
X547932Y1945346D01*
X550369Y1949906D01*
X551870Y1954854D01*
X552218Y1958382D01*
X568154Y1942445D01*
G37*
X568154Y1942445D02*
X569367Y1940967D01*
X575268Y1936125D01*
X581999Y1932526D01*
X586825Y1931063D01*
X589304Y1930311D01*
X590081Y1930234D01*
X594997Y1929750D01*
X594998Y1929750D01*
X596900Y1929563D01*
X598802Y1929750D01*
X615176Y1929750D01*
X616796Y1924410D01*
X621255Y1916068D01*
X627256Y1908756D01*
X634568Y1902755D01*
X642910Y1898296D01*
X651962Y1895550D01*
X661375Y1894623D01*
X705125Y1894623D01*
X714538Y1895550D01*
X723590Y1898296D01*
X727357Y1900310D01*
X729625Y1896067D01*
X734467Y1890167D01*
X735945Y1888954D01*
X765004Y1859895D01*
X766217Y1858417D01*
X772117Y1853575D01*
X774819Y1852131D01*
X778849Y1849976D01*
X786154Y1847761D01*
X793750Y1847013D01*
X795653Y1847200D01*
X798531Y1847200D01*
X792068Y1843745D01*
X784756Y1837744D01*
X778755Y1830432D01*
X774296Y1822090D01*
X771550Y1813038D01*
X770623Y1803625D01*
X770623Y1752375D01*
X771550Y1742961D01*
X774296Y1733910D01*
X778755Y1725568D01*
X784756Y1718256D01*
X792068Y1712255D01*
X800410Y1707796D01*
X809461Y1705050D01*
X818875Y1704123D01*
X862625Y1704123D01*
X872038Y1705050D01*
X881090Y1707796D01*
X889432Y1712255D01*
X896744Y1718256D01*
X902745Y1725568D01*
X907204Y1733910D01*
X908824Y1739250D01*
X925197Y1739250D01*
X927100Y1739063D01*
X929003Y1739250D01*
X934696Y1739811D01*
X942001Y1742026D01*
X948732Y1745625D01*
X954633Y1750467D01*
X955846Y1751945D01*
X962651Y1758750D01*
X964148Y1758750D01*
X973422Y1760595D01*
X973631Y1759906D01*
X976068Y1755346D01*
X979349Y1751349D01*
X983346Y1748068D01*
X987906Y1745631D01*
X992854Y1744130D01*
X998000Y1743623D01*
X1088000Y1743623D01*
X1093146Y1744130D01*
X1098094Y1745631D01*
X1102654Y1748068D01*
X1106651Y1751349D01*
X1109932Y1755346D01*
X1112369Y1759906D01*
X1113870Y1764854D01*
X1114377Y1770000D01*
X1114377Y1850000D01*
X1114008Y1853750D01*
X1115947Y1853750D01*
X1125848Y1855719D01*
X1135175Y1859583D01*
X1143569Y1865191D01*
X1144628Y1866250D01*
X1171623Y1866250D01*
X1171623Y1865000D01*
X1172130Y1859854D01*
X1173631Y1854906D01*
X1176068Y1850346D01*
X1179349Y1846349D01*
X1183346Y1843068D01*
X1187906Y1840631D01*
X1192854Y1839130D01*
X1198000Y1838623D01*
X1288000Y1838623D01*
X1288400Y1838662D01*
X1288400Y1743251D01*
X1268901Y1723751D01*
X1229704Y1723751D01*
X1227801Y1723939D01*
X1220205Y1723190D01*
X1217989Y1722518D01*
X1212901Y1720975D01*
X1206169Y1717376D01*
X1200268Y1712534D01*
X1199055Y1711056D01*
X1129646Y1641646D01*
X1128167Y1640433D01*
X1123325Y1634532D01*
X1121928Y1631919D01*
X1117146Y1633370D01*
X1112000Y1633877D01*
X1012000Y1633877D01*
X1006854Y1633370D01*
X1001906Y1631869D01*
X997346Y1629432D01*
X993349Y1626151D01*
X990068Y1622154D01*
X987631Y1617594D01*
X986130Y1612646D01*
X985623Y1607500D01*
X985623Y1427500D01*
X986130Y1422354D01*
X987631Y1417406D01*
X990068Y1412846D01*
X993349Y1408849D01*
X997346Y1405568D01*
X1001906Y1403131D01*
X1006854Y1401630D01*
X1012000Y1401123D01*
X1089322Y1401123D01*
X952900Y1264700D01*
X952950Y1264952D01*
X952950Y1275048D01*
X950980Y1284949D01*
X947117Y1294276D01*
X941508Y1302670D01*
X934370Y1309809D01*
X925976Y1315417D01*
X916649Y1319281D01*
X907000Y1321200D01*
X917049Y1331249D01*
X918546Y1331249D01*
X928447Y1333218D01*
X937774Y1337082D01*
X946168Y1342690D01*
X953307Y1349829D01*
X958915Y1358223D01*
X962779Y1367550D01*
X964748Y1377451D01*
X964748Y1387547D01*
X962779Y1397448D01*
X958915Y1406775D01*
X953307Y1415169D01*
X946168Y1422307D01*
X938377Y1427513D01*
X938377Y1607500D01*
X937870Y1612646D01*
X936369Y1617594D01*
X933932Y1622154D01*
X930651Y1626151D01*
X926654Y1629432D01*
X922094Y1631869D01*
X917146Y1633370D01*
X912000Y1633877D01*
X812000Y1633877D01*
X806854Y1633370D01*
X801906Y1631869D01*
X797346Y1629432D01*
X793349Y1626151D01*
X790068Y1622154D01*
X787631Y1617594D01*
X786130Y1612646D01*
X785623Y1607500D01*
X785623Y1427500D01*
X786130Y1422354D01*
X787631Y1417406D01*
X790068Y1412846D01*
X793349Y1408849D01*
X797346Y1405568D01*
X801906Y1403131D01*
X806854Y1401630D01*
X812000Y1401123D01*
X865740Y1401123D01*
X864218Y1397448D01*
X862248Y1387547D01*
X862248Y1386050D01*
X760644Y1284445D01*
X759166Y1283233D01*
X754324Y1277332D01*
X754133Y1276975D01*
X750725Y1270600D01*
X748510Y1263296D01*
X747761Y1255700D01*
X747949Y1253796D01*
X747949Y1153550D01*
X741954Y1154742D01*
X731859Y1154742D01*
X721957Y1152773D01*
X712630Y1148909D01*
X704236Y1143301D01*
X697098Y1136162D01*
X691489Y1127768D01*
X687626Y1118441D01*
X685656Y1108540D01*
X685656Y1098444D01*
X687626Y1088543D01*
X691489Y1079216D01*
X697098Y1070822D01*
X698156Y1069764D01*
X698156Y1066234D01*
X698157Y1066233D01*
X698156Y804496D01*
X697969Y802594D01*
X698717Y794997D01*
X699069Y793836D01*
X700933Y787693D01*
X704531Y780961D01*
X709373Y775061D01*
X710852Y773847D01*
X1343254Y141445D01*
X1344467Y139967D01*
X1350368Y135125D01*
X1354754Y132780D01*
X1357099Y131527D01*
X1364404Y129311D01*
X1370623Y128698D01*
X1370623Y117500D01*
X1371130Y112354D01*
X1372631Y107406D01*
X1375068Y102846D01*
X1378349Y98849D01*
X1382346Y95568D01*
X1386906Y93131D01*
X1391854Y91630D01*
X1397000Y91123D01*
X1627250Y91123D01*
X1627250Y43877D01*
X1397000Y43877D01*
X1391854Y43370D01*
X1386906Y41869D01*
X1382346Y39432D01*
X1378349Y36151D01*
X1375068Y32154D01*
X1372631Y27594D01*
X1371130Y22646D01*
X1370623Y17500D01*
X1370623Y11328D01*
X1264300Y117651D01*
X1264300Y137722D01*
X1265359Y138780D01*
X1270967Y147174D01*
X1274831Y156501D01*
X1276800Y166402D01*
X1276800Y176498D01*
X1274831Y186399D01*
X1270967Y195726D01*
X1265359Y204120D01*
X1258220Y211258D01*
X1249826Y216867D01*
X1240499Y220730D01*
X1230598Y222700D01*
X1220502Y222700D01*
X1210601Y220730D01*
X1201274Y216867D01*
X1192880Y211258D01*
X1185742Y204120D01*
X1180133Y195726D01*
X1176270Y186399D01*
X1174300Y176498D01*
X1174300Y166402D01*
X1176270Y156501D01*
X1180133Y147174D01*
X1185742Y138780D01*
X1186800Y137721D01*
X1186800Y103503D01*
X1186613Y101600D01*
X1186800Y99697D01*
X1187361Y94004D01*
X1189577Y86699D01*
X1193175Y79968D01*
X1198017Y74067D01*
X1199496Y72854D01*
X1330904Y-58555D01*
X1332117Y-60033D01*
X1338018Y-64875D01*
X1344749Y-68474D01*
X1349838Y-70017D01*
X1352054Y-70689D01*
X1352831Y-70766D01*
X1357747Y-71250D01*
X1357748Y-71250D01*
X1359650Y-71437D01*
X1361552Y-71250D01*
X1370623Y-71250D01*
X1370623Y-82500D01*
X1371130Y-87646D01*
X1372631Y-92594D01*
X1375068Y-97154D01*
X1378349Y-101151D01*
X1380906Y-103250D01*
X143094Y-103250D01*
X145651Y-101151D01*
X148932Y-97154D01*
X151369Y-92594D01*
X152870Y-87646D01*
X153377Y-82500D01*
X153377Y-71250D01*
X181497Y-71250D01*
X183400Y-71437D01*
X185303Y-71250D01*
X190996Y-70689D01*
X198301Y-68474D01*
X205032Y-64875D01*
X210933Y-60033D01*
X212146Y-58554D01*
X257551Y-13150D01*
X259048Y-13150D01*
X268949Y-11180D01*
X278276Y-7317D01*
X286670Y-1708D01*
X293809Y5430D01*
X299417Y13824D01*
X303281Y23151D01*
X305250Y33052D01*
X305250Y34549D01*
X622955Y352254D01*
X624433Y353467D01*
X629275Y359367D01*
X632874Y366099D01*
X635089Y373404D01*
X635650Y379097D01*
X635650Y379098D01*
X635837Y381000D01*
X635650Y382902D01*
X635650Y1186844D01*
X642005Y1193199D01*
X643483Y1194412D01*
X648325Y1200312D01*
X651924Y1207044D01*
X652219Y1208020D01*
X654139Y1214348D01*
X654887Y1221945D01*
X654725Y1223596D01*
X655759Y1224630D01*
X661367Y1233024D01*
X665231Y1242351D01*
X667200Y1252252D01*
X667200Y1262348D01*
X665231Y1272249D01*
X661367Y1281576D01*
X655759Y1289970D01*
X648620Y1297109D01*
X640226Y1302717D01*
X630899Y1306581D01*
X620998Y1308550D01*
X610902Y1308550D01*
X601001Y1306581D01*
X591674Y1302717D01*
X583280Y1297109D01*
X576142Y1289970D01*
X570533Y1281576D01*
X566670Y1272249D01*
X564700Y1262348D01*
X564700Y1252252D01*
X566670Y1242351D01*
X570533Y1233024D01*
X571212Y1232007D01*
X570845Y1231641D01*
X569367Y1230428D01*
X564525Y1224527D01*
X562128Y1220042D01*
X560927Y1217795D01*
X558711Y1210491D01*
X557963Y1202895D01*
X558150Y1200991D01*
X558150Y1089106D01*
X554348Y1090681D01*
X544447Y1092650D01*
X534351Y1092650D01*
X524450Y1090681D01*
X515123Y1086817D01*
X506729Y1081209D01*
X499590Y1074070D01*
X493982Y1065676D01*
X490118Y1056349D01*
X488149Y1046448D01*
X488149Y1036352D01*
X490118Y1026451D01*
X493982Y1017124D01*
X499590Y1008730D01*
X500649Y1007671D01*
X500649Y1004142D01*
X500649Y1004141D01*
X500649Y867229D01*
X496220Y871658D01*
X487826Y877267D01*
X478499Y881130D01*
X468598Y883100D01*
X458502Y883100D01*
X448601Y881130D01*
X439274Y877267D01*
X430880Y871658D01*
X423741Y864520D01*
X418133Y856126D01*
X414269Y846799D01*
X412300Y836898D01*
X412300Y835401D01*
X183149Y606250D01*
X153377Y606250D01*
X153377Y617500D01*
X152870Y622646D01*
X151369Y627594D01*
X148932Y632154D01*
X145651Y636151D01*
X141654Y639432D01*
X137094Y641869D01*
X132146Y643370D01*
X127000Y643877D01*
X-103250Y643877D01*
X-103250Y691123D01*
X127000Y691123D01*
X132146Y691630D01*
X137094Y693131D01*
X141654Y695568D01*
X145651Y698849D01*
X148932Y702846D01*
X151369Y707406D01*
X152870Y712354D01*
X153377Y717500D01*
X153377Y728695D01*
X154725Y728563D01*
X156628Y728750D01*
X157581Y728844D01*
X162321Y729311D01*
X162383Y729329D01*
X169626Y731526D01*
X176357Y735125D01*
X182258Y739967D01*
X183471Y741445D01*
X426104Y984079D01*
X427583Y985292D01*
X432425Y991192D01*
X436023Y997924D01*
X438239Y1005229D01*
X438800Y1010922D01*
X438800Y1010923D01*
X438987Y1012825D01*
X438800Y1014727D01*
X438800Y1228549D01*
X584855Y1374604D01*
X586333Y1375817D01*
X591175Y1381718D01*
X594774Y1388449D01*
X596771Y1395033D01*
X596989Y1395754D01*
X597177Y1397655D01*
X597550Y1401447D01*
X597550Y1401448D01*
X597737Y1403350D01*
X597550Y1405252D01*
X597550Y1405459D01*
X601906Y1403131D01*
X606854Y1401630D01*
X612000Y1401123D01*
X712000Y1401123D01*
X717146Y1401630D01*
X722094Y1403131D01*
X726654Y1405568D01*
X730651Y1408849D01*
X733932Y1412846D01*
X736369Y1417406D01*
X737870Y1422354D01*
X738377Y1427500D01*
X738377Y1607500D01*
X737870Y1612646D01*
X736369Y1617594D01*
X733932Y1622154D01*
X730651Y1626151D01*
X726654Y1629432D01*
X722094Y1631869D01*
X717146Y1633370D01*
X712000Y1633877D01*
X612000Y1633877D01*
X606854Y1633370D01*
X601906Y1631869D01*
X597359Y1629439D01*
X596989Y1633196D01*
X596937Y1633370D01*
X595479Y1638173D01*
X594774Y1640501D01*
X591175Y1647232D01*
X586333Y1653133D01*
X584855Y1654346D01*
X562146Y1677054D01*
X560933Y1678533D01*
X555033Y1683375D01*
X548301Y1686973D01*
X540996Y1689189D01*
X535303Y1689750D01*
X533400Y1689937D01*
X531497Y1689750D01*
X460551Y1689750D01*
X319750Y1830551D01*
X319750Y1838623D01*
X326000Y1838623D01*
X331146Y1839130D01*
X336094Y1840631D01*
X340654Y1843068D01*
X344651Y1846349D01*
X347648Y1850000D01*
X409623Y1850000D01*
X409623Y1770000D01*
X410130Y1764854D01*
X411631Y1759906D01*
X414068Y1755346D01*
X417349Y1751349D01*
X421346Y1748068D01*
X425906Y1745631D01*
X430854Y1744130D01*
X436000Y1743623D01*
X526000Y1743623D01*
X531146Y1744130D01*
X536094Y1745631D01*
X540654Y1748068D01*
X544651Y1751349D01*
X547932Y1755346D01*
X550369Y1759906D01*
X551870Y1764854D01*
X552173Y1767926D01*
X568154Y1751945D01*
X569367Y1750467D01*
X575268Y1745625D01*
X581999Y1742026D01*
X586741Y1740588D01*
X589304Y1739811D01*
X590081Y1739734D01*
X594997Y1739250D01*
X594998Y1739250D01*
X596900Y1739063D01*
X598802Y1739250D01*
X615176Y1739250D01*
X616796Y1733910D01*
X621255Y1725568D01*
X627256Y1718256D01*
X634568Y1712255D01*
X642910Y1707796D01*
X651962Y1705050D01*
X661375Y1704123D01*
X705125Y1704123D01*
X714538Y1705050D01*
X723590Y1707796D01*
X731932Y1712255D01*
X739244Y1718256D01*
X745245Y1725568D01*
X749704Y1733910D01*
X752450Y1742961D01*
X753377Y1752375D01*
X753377Y1803625D01*
X752450Y1813038D01*
X749704Y1822090D01*
X745245Y1830432D01*
X739244Y1837744D01*
X731932Y1843745D01*
X723590Y1848204D01*
X714538Y1850950D01*
X705125Y1851877D01*
X661375Y1851877D01*
X651962Y1850950D01*
X642910Y1848204D01*
X634568Y1843745D01*
X627256Y1837744D01*
X621255Y1830432D01*
X616796Y1822090D01*
X615176Y1816750D01*
X612951Y1816750D01*
X593646Y1836054D01*
X592433Y1837533D01*
X586533Y1842375D01*
X579801Y1845973D01*
X572496Y1848189D01*
X566803Y1848750D01*
X564900Y1848937D01*
X562997Y1848750D01*
X552377Y1848750D01*
X552377Y1850000D01*
X551870Y1855146D01*
X550369Y1860094D01*
X547932Y1864654D01*
X544651Y1868651D01*
X540654Y1871932D01*
X536094Y1874369D01*
X531146Y1875870D01*
X526000Y1876377D01*
X436000Y1876377D01*
X430854Y1875870D01*
X425906Y1874369D01*
X421346Y1871932D01*
X417349Y1868651D01*
X414068Y1864654D01*
X411631Y1860094D01*
X410130Y1855146D01*
X409623Y1850000D01*
X347648Y1850000D01*
X347932Y1850346D01*
X350369Y1854906D01*
X351870Y1859854D01*
X352145Y1862642D01*
X356724Y1859583D01*
X366051Y1855719D01*
X375952Y1853750D01*
X386048Y1853750D01*
X395949Y1855719D01*
X405276Y1859583D01*
X413670Y1865191D01*
X420808Y1872330D01*
X426417Y1880724D01*
X430280Y1890051D01*
X432250Y1899952D01*
X432250Y1910048D01*
X430280Y1919949D01*
X426417Y1929276D01*
X420808Y1937670D01*
X419750Y1938728D01*
X419750Y1939378D01*
X421346Y1938068D01*
X425906Y1935631D01*
X430854Y1934130D01*
X436000Y1933623D01*
X526000Y1933623D01*
X531146Y1934130D01*
X536094Y1935631D01*
X540654Y1938068D01*
X544651Y1941349D01*
X547932Y1945346D01*
X550369Y1949906D01*
X551870Y1954854D01*
X552218Y1958382D01*
X568154Y1942445D01*
G36*
X558150Y397051D02*
G01*
X250449Y89350D01*
X248952Y89350D01*
X239051Y87381D01*
X229724Y83517D01*
X221330Y77909D01*
X214191Y70770D01*
X208583Y62376D01*
X204719Y53049D01*
X202750Y43148D01*
X202750Y41651D01*
X167349Y6250D01*
X153377Y6250D01*
X153377Y17500D01*
X152870Y22646D01*
X151369Y27594D01*
X148932Y32154D01*
X145651Y36151D01*
X141654Y39432D01*
X137094Y41869D01*
X132146Y43370D01*
X127000Y43877D01*
X-103250Y43877D01*
X-103250Y91123D01*
X127000Y91123D01*
X132146Y91630D01*
X137094Y93131D01*
X141654Y95568D01*
X145651Y98849D01*
X148932Y102846D01*
X151369Y107406D01*
X152870Y112354D01*
X153377Y117500D01*
X153377Y128750D01*
X165597Y128750D01*
X167500Y128563D01*
X169403Y128750D01*
X175096Y129311D01*
X182401Y131527D01*
X189132Y135125D01*
X195033Y139967D01*
X196246Y141446D01*
X257551Y202750D01*
X259048Y202750D01*
X268949Y204719D01*
X278276Y208583D01*
X286670Y214191D01*
X293809Y221330D01*
X299417Y229724D01*
X303281Y239051D01*
X305250Y248952D01*
X305250Y259048D01*
X303281Y268949D01*
X299417Y278276D01*
X293809Y286670D01*
X286670Y293809D01*
X278276Y299417D01*
X268949Y303281D01*
X259048Y305250D01*
X248952Y305250D01*
X239051Y303281D01*
X229724Y299417D01*
X221330Y293809D01*
X214191Y286670D01*
X208583Y278276D01*
X204719Y268949D01*
X202750Y259048D01*
X202750Y257551D01*
X153377Y208178D01*
X153377Y217500D01*
X152870Y222646D01*
X151369Y227594D01*
X148932Y232154D01*
X145651Y236151D01*
X141654Y239432D01*
X137094Y241869D01*
X132146Y243370D01*
X127000Y243877D01*
X-103250Y243877D01*
X-103250Y291123D01*
X127000Y291123D01*
X132146Y291630D01*
X137094Y293131D01*
X141654Y295568D01*
X145651Y298849D01*
X148932Y302846D01*
X151369Y307406D01*
X152870Y312354D01*
X153377Y317500D01*
X153377Y328698D01*
X153903Y328750D01*
X159596Y329311D01*
X166901Y331527D01*
X173633Y335125D01*
X179533Y339967D01*
X180746Y341446D01*
X558150Y718849D01*
X558150Y397051D01*
G37*
X558150Y397051D02*
X250449Y89350D01*
X248952Y89350D01*
X239051Y87381D01*
X229724Y83517D01*
X221330Y77909D01*
X214191Y70770D01*
X208583Y62376D01*
X204719Y53049D01*
X202750Y43148D01*
X202750Y41651D01*
X167349Y6250D01*
X153377Y6250D01*
X153377Y17500D01*
X152870Y22646D01*
X151369Y27594D01*
X148932Y32154D01*
X145651Y36151D01*
X141654Y39432D01*
X137094Y41869D01*
X132146Y43370D01*
X127000Y43877D01*
X-103250Y43877D01*
X-103250Y91123D01*
X127000Y91123D01*
X132146Y91630D01*
X137094Y93131D01*
X141654Y95568D01*
X145651Y98849D01*
X148932Y102846D01*
X151369Y107406D01*
X152870Y112354D01*
X153377Y117500D01*
X153377Y128750D01*
X165597Y128750D01*
X167500Y128563D01*
X169403Y128750D01*
X175096Y129311D01*
X182401Y131527D01*
X189132Y135125D01*
X195033Y139967D01*
X196246Y141446D01*
X257551Y202750D01*
X259048Y202750D01*
X268949Y204719D01*
X278276Y208583D01*
X286670Y214191D01*
X293809Y221330D01*
X299417Y229724D01*
X303281Y239051D01*
X305250Y248952D01*
X305250Y259048D01*
X303281Y268949D01*
X299417Y278276D01*
X293809Y286670D01*
X286670Y293809D01*
X278276Y299417D01*
X268949Y303281D01*
X259048Y305250D01*
X248952Y305250D01*
X239051Y303281D01*
X229724Y299417D01*
X221330Y293809D01*
X214191Y286670D01*
X208583Y278276D01*
X204719Y268949D01*
X202750Y259048D01*
X202750Y257551D01*
X153377Y208178D01*
X153377Y217500D01*
X152870Y222646D01*
X151369Y227594D01*
X148932Y232154D01*
X145651Y236151D01*
X141654Y239432D01*
X137094Y241869D01*
X132146Y243370D01*
X127000Y243877D01*
X-103250Y243877D01*
X-103250Y291123D01*
X127000Y291123D01*
X132146Y291630D01*
X137094Y293131D01*
X141654Y295568D01*
X145651Y298849D01*
X148932Y302846D01*
X151369Y307406D01*
X152870Y312354D01*
X153377Y317500D01*
X153377Y328698D01*
X153903Y328750D01*
X159596Y329311D01*
X166901Y331527D01*
X173633Y335125D01*
X179533Y339967D01*
X180746Y341446D01*
X558150Y718849D01*
X558150Y397051D01*
G36*
X1190455Y735944D02*
G01*
X1191668Y734467D01*
X1197568Y729624D01*
X1204300Y726026D01*
X1209388Y724482D01*
X1211604Y723810D01*
X1212381Y723734D01*
X1217298Y723249D01*
X1217299Y723249D01*
X1219200Y723062D01*
X1221102Y723249D01*
X1274372Y723249D01*
X1275431Y722191D01*
X1283825Y716582D01*
X1293151Y712719D01*
X1303053Y710749D01*
X1313148Y710749D01*
X1323050Y712719D01*
X1332377Y716582D01*
X1340771Y722191D01*
X1347909Y729329D01*
X1353518Y737723D01*
X1355453Y742396D01*
X1356403Y741446D01*
X1357617Y739967D01*
X1363518Y735125D01*
X1370249Y731526D01*
X1370623Y731413D01*
X1370623Y717500D01*
X1371130Y712354D01*
X1372631Y707406D01*
X1375068Y702846D01*
X1378349Y698849D01*
X1382346Y695568D01*
X1386906Y693131D01*
X1391854Y691630D01*
X1397000Y691123D01*
X1627250Y691123D01*
X1627250Y643877D01*
X1397000Y643877D01*
X1391854Y643370D01*
X1386906Y641869D01*
X1382346Y639432D01*
X1378349Y636151D01*
X1375068Y632154D01*
X1372631Y627594D01*
X1371130Y622646D01*
X1370623Y617500D01*
X1370623Y606250D01*
X1150351Y606250D01*
X895449Y861152D01*
X895449Y1030950D01*
X1190455Y735944D01*
G37*
X1190455Y735944D02*
X1191668Y734467D01*
X1197568Y729624D01*
X1204300Y726026D01*
X1209388Y724482D01*
X1211604Y723810D01*
X1212381Y723734D01*
X1217298Y723249D01*
X1217299Y723249D01*
X1219200Y723062D01*
X1221102Y723249D01*
X1274372Y723249D01*
X1275431Y722191D01*
X1283825Y716582D01*
X1293151Y712719D01*
X1303053Y710749D01*
X1313148Y710749D01*
X1323050Y712719D01*
X1332377Y716582D01*
X1340771Y722191D01*
X1347909Y729329D01*
X1353518Y737723D01*
X1355453Y742396D01*
X1356403Y741446D01*
X1357617Y739967D01*
X1363518Y735125D01*
X1370249Y731526D01*
X1370623Y731413D01*
X1370623Y717500D01*
X1371130Y712354D01*
X1372631Y707406D01*
X1375068Y702846D01*
X1378349Y698849D01*
X1382346Y695568D01*
X1386906Y693131D01*
X1391854Y691630D01*
X1397000Y691123D01*
X1627250Y691123D01*
X1627250Y643877D01*
X1397000Y643877D01*
X1391854Y643370D01*
X1386906Y641869D01*
X1382346Y639432D01*
X1378349Y636151D01*
X1375068Y632154D01*
X1372631Y627594D01*
X1371130Y622646D01*
X1370623Y617500D01*
X1370623Y606250D01*
X1150351Y606250D01*
X895449Y861152D01*
X895449Y1030950D01*
X1190455Y735944D01*
G36*
X-29286Y1587385D02*
G01*
X-28073Y1585907D01*
X-22173Y1581065D01*
X-15441Y1577467D01*
X-10352Y1575923D01*
X-8137Y1575251D01*
X-540Y1574503D01*
X1362Y1574690D01*
X133664Y1574690D01*
X134722Y1573632D01*
X143116Y1568023D01*
X152443Y1564160D01*
X162345Y1562190D01*
X172440Y1562190D01*
X182341Y1564160D01*
X185623Y1565519D01*
X185623Y1427500D01*
X186130Y1422354D01*
X187631Y1417406D01*
X190068Y1412846D01*
X193349Y1408849D01*
X197346Y1405568D01*
X201906Y1403131D01*
X206854Y1401630D01*
X212000Y1401123D01*
X310500Y1401123D01*
X310500Y1070151D01*
X246599Y1006250D01*
X153377Y1006250D01*
X153377Y1017500D01*
X152870Y1022646D01*
X151369Y1027594D01*
X148932Y1032154D01*
X145651Y1036151D01*
X141654Y1039432D01*
X137094Y1041869D01*
X132146Y1043370D01*
X127000Y1043877D01*
X-103250Y1043877D01*
X-103250Y1091123D01*
X127000Y1091123D01*
X132146Y1091630D01*
X137094Y1093131D01*
X141654Y1095568D01*
X145651Y1098849D01*
X148932Y1102846D01*
X151369Y1107406D01*
X152870Y1112354D01*
X153377Y1117500D01*
X153377Y1128750D01*
X170372Y1128750D01*
X170530Y1128592D01*
X178924Y1122983D01*
X188251Y1119120D01*
X198152Y1117150D01*
X208248Y1117150D01*
X218149Y1119120D01*
X227476Y1122983D01*
X235870Y1128592D01*
X243008Y1135730D01*
X248617Y1144124D01*
X252480Y1153451D01*
X254450Y1163352D01*
X254450Y1173448D01*
X252480Y1183349D01*
X248617Y1192676D01*
X243008Y1201070D01*
X235870Y1208209D01*
X227476Y1213817D01*
X218149Y1217681D01*
X208248Y1219650D01*
X198152Y1219650D01*
X188251Y1217681D01*
X178924Y1213817D01*
X170530Y1208209D01*
X168572Y1206250D01*
X153377Y1206250D01*
X153377Y1217500D01*
X152870Y1222646D01*
X151369Y1227594D01*
X148932Y1232154D01*
X145651Y1236151D01*
X141654Y1239432D01*
X137094Y1241869D01*
X132146Y1243370D01*
X127000Y1243877D01*
X-103250Y1243877D01*
X-103250Y1291146D01*
X-13312Y1291250D01*
X-6750Y1297813D01*
X-6750Y1358750D01*
X10750Y1358750D01*
X10750Y1297813D01*
X17313Y1291250D01*
X127000Y1291123D01*
X132146Y1291630D01*
X137094Y1293131D01*
X141654Y1295568D01*
X145651Y1298849D01*
X148932Y1302846D01*
X151369Y1307406D01*
X152870Y1312354D01*
X153377Y1317500D01*
X153250Y1352188D01*
X146688Y1358750D01*
X10750Y1358750D01*
X-6750Y1358750D01*
X-8750Y1358750D01*
X-8750Y1376250D01*
X-6750Y1376250D01*
X-6750Y1437187D01*
X10750Y1437187D01*
X10750Y1376250D01*
X146688Y1376250D01*
X153250Y1382813D01*
X153377Y1417500D01*
X152870Y1422646D01*
X151369Y1427594D01*
X148932Y1432154D01*
X145651Y1436151D01*
X141654Y1439432D01*
X137094Y1441869D01*
X132146Y1443370D01*
X127000Y1443877D01*
X17313Y1443750D01*
X10750Y1437187D01*
X-6750Y1437187D01*
X-13312Y1443750D01*
X-103250Y1443854D01*
X-103250Y1661349D01*
X-29286Y1587385D01*
G37*
X-29286Y1587385D02*
X-28073Y1585907D01*
X-22173Y1581065D01*
X-15441Y1577467D01*
X-10352Y1575923D01*
X-8137Y1575251D01*
X-540Y1574503D01*
X1362Y1574690D01*
X133664Y1574690D01*
X134722Y1573632D01*
X143116Y1568023D01*
X152443Y1564160D01*
X162345Y1562190D01*
X172440Y1562190D01*
X182341Y1564160D01*
X185623Y1565519D01*
X185623Y1427500D01*
X186130Y1422354D01*
X187631Y1417406D01*
X190068Y1412846D01*
X193349Y1408849D01*
X197346Y1405568D01*
X201906Y1403131D01*
X206854Y1401630D01*
X212000Y1401123D01*
X310500Y1401123D01*
X310500Y1070151D01*
X246599Y1006250D01*
X153377Y1006250D01*
X153377Y1017500D01*
X152870Y1022646D01*
X151369Y1027594D01*
X148932Y1032154D01*
X145651Y1036151D01*
X141654Y1039432D01*
X137094Y1041869D01*
X132146Y1043370D01*
X127000Y1043877D01*
X-103250Y1043877D01*
X-103250Y1091123D01*
X127000Y1091123D01*
X132146Y1091630D01*
X137094Y1093131D01*
X141654Y1095568D01*
X145651Y1098849D01*
X148932Y1102846D01*
X151369Y1107406D01*
X152870Y1112354D01*
X153377Y1117500D01*
X153377Y1128750D01*
X170372Y1128750D01*
X170530Y1128592D01*
X178924Y1122983D01*
X188251Y1119120D01*
X198152Y1117150D01*
X208248Y1117150D01*
X218149Y1119120D01*
X227476Y1122983D01*
X235870Y1128592D01*
X243008Y1135730D01*
X248617Y1144124D01*
X252480Y1153451D01*
X254450Y1163352D01*
X254450Y1173448D01*
X252480Y1183349D01*
X248617Y1192676D01*
X243008Y1201070D01*
X235870Y1208209D01*
X227476Y1213817D01*
X218149Y1217681D01*
X208248Y1219650D01*
X198152Y1219650D01*
X188251Y1217681D01*
X178924Y1213817D01*
X170530Y1208209D01*
X168572Y1206250D01*
X153377Y1206250D01*
X153377Y1217500D01*
X152870Y1222646D01*
X151369Y1227594D01*
X148932Y1232154D01*
X145651Y1236151D01*
X141654Y1239432D01*
X137094Y1241869D01*
X132146Y1243370D01*
X127000Y1243877D01*
X-103250Y1243877D01*
X-103250Y1291146D01*
X-13312Y1291250D01*
X-6750Y1297813D01*
X-6750Y1358750D01*
X10750Y1358750D01*
X10750Y1297813D01*
X17313Y1291250D01*
X127000Y1291123D01*
X132146Y1291630D01*
X137094Y1293131D01*
X141654Y1295568D01*
X145651Y1298849D01*
X148932Y1302846D01*
X151369Y1307406D01*
X152870Y1312354D01*
X153377Y1317500D01*
X153250Y1352188D01*
X146688Y1358750D01*
X10750Y1358750D01*
X-6750Y1358750D01*
X-8750Y1358750D01*
X-8750Y1376250D01*
X-6750Y1376250D01*
X-6750Y1437187D01*
X10750Y1437187D01*
X10750Y1376250D01*
X146688Y1376250D01*
X153250Y1382813D01*
X153377Y1417500D01*
X152870Y1422646D01*
X151369Y1427594D01*
X148932Y1432154D01*
X145651Y1436151D01*
X141654Y1439432D01*
X137094Y1441869D01*
X132146Y1443370D01*
X127000Y1443877D01*
X17313Y1443750D01*
X10750Y1437187D01*
X-6750Y1437187D01*
X-13312Y1443750D01*
X-103250Y1443854D01*
X-103250Y1661349D01*
X-29286Y1587385D01*
G36*
X269623Y2371000D02*
G01*
X269750Y2301313D01*
X276313Y2294750D01*
X372250Y2294750D01*
X372250Y2296750D01*
X389750Y2296750D01*
X389750Y2294750D01*
X391750Y2294750D01*
X391750Y2277250D01*
X389750Y2277250D01*
X389750Y2275250D01*
X372250Y2275250D01*
X372250Y2277250D01*
X276313Y2277250D01*
X269750Y2270688D01*
X269623Y2201000D01*
X270130Y2195854D01*
X270278Y2195364D01*
X261474Y2191717D01*
X253080Y2186109D01*
X245941Y2178970D01*
X240333Y2170576D01*
X236469Y2161249D01*
X234500Y2151348D01*
X234500Y2149851D01*
X203649Y2119000D01*
X134186Y2119000D01*
X133704Y2120590D01*
X129245Y2128932D01*
X123244Y2136244D01*
X115932Y2142245D01*
X107590Y2146704D01*
X98538Y2149450D01*
X89125Y2150377D01*
X37875Y2150377D01*
X28461Y2149450D01*
X19410Y2146704D01*
X11068Y2142245D01*
X3756Y2136244D01*
X-2245Y2128932D01*
X-6704Y2120590D01*
X-9450Y2111539D01*
X-10377Y2102125D01*
X-10377Y2058375D01*
X-9450Y2048961D01*
X-6704Y2039910D01*
X-2245Y2031568D01*
X3756Y2024256D01*
X11068Y2018255D01*
X19410Y2013796D01*
X24750Y2012176D01*
X24750Y1988324D01*
X19410Y1986704D01*
X11068Y1982245D01*
X3756Y1976244D01*
X-2245Y1968932D01*
X-6704Y1960590D01*
X-9450Y1951538D01*
X-10377Y1942125D01*
X-10377Y1898375D01*
X-9450Y1888961D01*
X-6704Y1879910D01*
X-2245Y1871568D01*
X3756Y1864256D01*
X11068Y1858255D01*
X19410Y1853796D01*
X28461Y1851050D01*
X37875Y1850123D01*
X89125Y1850123D01*
X98538Y1851050D01*
X107590Y1853796D01*
X115932Y1858255D01*
X123244Y1864256D01*
X129245Y1871568D01*
X133704Y1879910D01*
X136450Y1888961D01*
X137377Y1898375D01*
X137377Y1942125D01*
X136450Y1951538D01*
X133704Y1960590D01*
X129245Y1968932D01*
X123244Y1976244D01*
X115932Y1982245D01*
X107590Y1986704D01*
X102250Y1988324D01*
X102250Y2012176D01*
X107590Y2013796D01*
X115932Y2018255D01*
X123244Y2024256D01*
X129245Y2031568D01*
X133704Y2039910D01*
X134186Y2041500D01*
X208699Y2041500D01*
X177145Y2009946D01*
X175667Y2008733D01*
X170825Y2002832D01*
X167227Y1996101D01*
X165683Y1991012D01*
X165011Y1988796D01*
X164263Y1981200D01*
X164450Y1979297D01*
X164450Y1802450D01*
X133898Y1802450D01*
X133704Y1803090D01*
X129245Y1811432D01*
X123244Y1818744D01*
X115932Y1824745D01*
X107590Y1829204D01*
X98538Y1831950D01*
X89125Y1832877D01*
X37875Y1832877D01*
X28461Y1831950D01*
X19410Y1829204D01*
X11068Y1824745D01*
X3756Y1818744D01*
X-2245Y1811432D01*
X-6704Y1803090D01*
X-9450Y1794038D01*
X-10377Y1784625D01*
X-10377Y1740875D01*
X-9450Y1731461D01*
X-6704Y1722410D01*
X-2245Y1714068D01*
X3756Y1706756D01*
X11068Y1700755D01*
X19410Y1696296D01*
X28461Y1693550D01*
X37875Y1692623D01*
X89125Y1692623D01*
X98538Y1693550D01*
X107590Y1696296D01*
X115932Y1700755D01*
X123244Y1706756D01*
X129245Y1714068D01*
X133704Y1722410D01*
X134475Y1724950D01*
X201297Y1724950D01*
X203200Y1724763D01*
X205103Y1724950D01*
X239549Y1724950D01*
X310500Y1653999D01*
X310500Y1633877D01*
X214400Y1633877D01*
X212809Y1637716D01*
X207201Y1646110D01*
X200062Y1653249D01*
X191668Y1658857D01*
X182341Y1662721D01*
X172440Y1664690D01*
X162345Y1664690D01*
X152443Y1662721D01*
X143116Y1658857D01*
X134722Y1653249D01*
X133664Y1652190D01*
X15510Y1652190D01*
X-50749Y1718450D01*
X-50749Y2272525D01*
X25075Y2348349D01*
X24563Y2343150D01*
X24750Y2341247D01*
X24750Y2305824D01*
X19410Y2304204D01*
X11068Y2299745D01*
X3756Y2293744D01*
X-2245Y2286432D01*
X-6704Y2278090D01*
X-9450Y2269039D01*
X-10377Y2259625D01*
X-10377Y2215875D01*
X-9450Y2206462D01*
X-6704Y2197410D01*
X-2245Y2189068D01*
X3756Y2181756D01*
X11068Y2175755D01*
X19410Y2171296D01*
X28461Y2168550D01*
X37875Y2167623D01*
X89125Y2167623D01*
X98538Y2168550D01*
X107590Y2171296D01*
X115932Y2175755D01*
X123244Y2181756D01*
X129245Y2189068D01*
X133704Y2197410D01*
X136450Y2206462D01*
X137377Y2215875D01*
X137377Y2259625D01*
X136450Y2269039D01*
X133704Y2278090D01*
X129245Y2286432D01*
X123244Y2293744D01*
X115932Y2299745D01*
X107590Y2304204D01*
X102250Y2305824D01*
X102250Y2327099D01*
X149401Y2374250D01*
X269943Y2374250D01*
X269623Y2371000D01*
G37*
X269623Y2371000D02*
X269750Y2301313D01*
X276313Y2294750D01*
X372250Y2294750D01*
X372250Y2296750D01*
X389750Y2296750D01*
X389750Y2294750D01*
X391750Y2294750D01*
X391750Y2277250D01*
X389750Y2277250D01*
X389750Y2275250D01*
X372250Y2275250D01*
X372250Y2277250D01*
X276313Y2277250D01*
X269750Y2270688D01*
X269623Y2201000D01*
X270130Y2195854D01*
X270278Y2195364D01*
X261474Y2191717D01*
X253080Y2186109D01*
X245941Y2178970D01*
X240333Y2170576D01*
X236469Y2161249D01*
X234500Y2151348D01*
X234500Y2149851D01*
X203649Y2119000D01*
X134186Y2119000D01*
X133704Y2120590D01*
X129245Y2128932D01*
X123244Y2136244D01*
X115932Y2142245D01*
X107590Y2146704D01*
X98538Y2149450D01*
X89125Y2150377D01*
X37875Y2150377D01*
X28461Y2149450D01*
X19410Y2146704D01*
X11068Y2142245D01*
X3756Y2136244D01*
X-2245Y2128932D01*
X-6704Y2120590D01*
X-9450Y2111539D01*
X-10377Y2102125D01*
X-10377Y2058375D01*
X-9450Y2048961D01*
X-6704Y2039910D01*
X-2245Y2031568D01*
X3756Y2024256D01*
X11068Y2018255D01*
X19410Y2013796D01*
X24750Y2012176D01*
X24750Y1988324D01*
X19410Y1986704D01*
X11068Y1982245D01*
X3756Y1976244D01*
X-2245Y1968932D01*
X-6704Y1960590D01*
X-9450Y1951538D01*
X-10377Y1942125D01*
X-10377Y1898375D01*
X-9450Y1888961D01*
X-6704Y1879910D01*
X-2245Y1871568D01*
X3756Y1864256D01*
X11068Y1858255D01*
X19410Y1853796D01*
X28461Y1851050D01*
X37875Y1850123D01*
X89125Y1850123D01*
X98538Y1851050D01*
X107590Y1853796D01*
X115932Y1858255D01*
X123244Y1864256D01*
X129245Y1871568D01*
X133704Y1879910D01*
X136450Y1888961D01*
X137377Y1898375D01*
X137377Y1942125D01*
X136450Y1951538D01*
X133704Y1960590D01*
X129245Y1968932D01*
X123244Y1976244D01*
X115932Y1982245D01*
X107590Y1986704D01*
X102250Y1988324D01*
X102250Y2012176D01*
X107590Y2013796D01*
X115932Y2018255D01*
X123244Y2024256D01*
X129245Y2031568D01*
X133704Y2039910D01*
X134186Y2041500D01*
X208699Y2041500D01*
X177145Y2009946D01*
X175667Y2008733D01*
X170825Y2002832D01*
X167227Y1996101D01*
X165683Y1991012D01*
X165011Y1988796D01*
X164263Y1981200D01*
X164450Y1979297D01*
X164450Y1802450D01*
X133898Y1802450D01*
X133704Y1803090D01*
X129245Y1811432D01*
X123244Y1818744D01*
X115932Y1824745D01*
X107590Y1829204D01*
X98538Y1831950D01*
X89125Y1832877D01*
X37875Y1832877D01*
X28461Y1831950D01*
X19410Y1829204D01*
X11068Y1824745D01*
X3756Y1818744D01*
X-2245Y1811432D01*
X-6704Y1803090D01*
X-9450Y1794038D01*
X-10377Y1784625D01*
X-10377Y1740875D01*
X-9450Y1731461D01*
X-6704Y1722410D01*
X-2245Y1714068D01*
X3756Y1706756D01*
X11068Y1700755D01*
X19410Y1696296D01*
X28461Y1693550D01*
X37875Y1692623D01*
X89125Y1692623D01*
X98538Y1693550D01*
X107590Y1696296D01*
X115932Y1700755D01*
X123244Y1706756D01*
X129245Y1714068D01*
X133704Y1722410D01*
X134475Y1724950D01*
X201297Y1724950D01*
X203200Y1724763D01*
X205103Y1724950D01*
X239549Y1724950D01*
X310500Y1653999D01*
X310500Y1633877D01*
X214400Y1633877D01*
X212809Y1637716D01*
X207201Y1646110D01*
X200062Y1653249D01*
X191668Y1658857D01*
X182341Y1662721D01*
X172440Y1664690D01*
X162345Y1664690D01*
X152443Y1662721D01*
X143116Y1658857D01*
X134722Y1653249D01*
X133664Y1652190D01*
X15510Y1652190D01*
X-50749Y1718450D01*
X-50749Y2272525D01*
X25075Y2348349D01*
X24563Y2343150D01*
X24750Y2341247D01*
X24750Y2305824D01*
X19410Y2304204D01*
X11068Y2299745D01*
X3756Y2293744D01*
X-2245Y2286432D01*
X-6704Y2278090D01*
X-9450Y2269039D01*
X-10377Y2259625D01*
X-10377Y2215875D01*
X-9450Y2206462D01*
X-6704Y2197410D01*
X-2245Y2189068D01*
X3756Y2181756D01*
X11068Y2175755D01*
X19410Y2171296D01*
X28461Y2168550D01*
X37875Y2167623D01*
X89125Y2167623D01*
X98538Y2168550D01*
X107590Y2171296D01*
X115932Y2175755D01*
X123244Y2181756D01*
X129245Y2189068D01*
X133704Y2197410D01*
X136450Y2206462D01*
X137377Y2215875D01*
X137377Y2259625D01*
X136450Y2269039D01*
X133704Y2278090D01*
X129245Y2286432D01*
X123244Y2293744D01*
X115932Y2299745D01*
X107590Y2304204D01*
X102250Y2305824D01*
X102250Y2327099D01*
X149401Y2374250D01*
X269943Y2374250D01*
X269623Y2371000D01*
G36*
X1523350Y2145361D02*
G01*
X1522654Y2145932D01*
X1518094Y2148369D01*
X1513146Y2149870D01*
X1508000Y2150377D01*
X1475812Y2150250D01*
X1469250Y2143688D01*
X1469250Y2089000D01*
X1471250Y2089000D01*
X1471250Y2071500D01*
X1469250Y2071500D01*
X1469250Y2016812D01*
X1475812Y2010250D01*
X1508000Y2010123D01*
X1513146Y2010630D01*
X1518094Y2012131D01*
X1522654Y2014568D01*
X1523350Y2015139D01*
X1523350Y1985361D01*
X1522654Y1985932D01*
X1518094Y1988369D01*
X1513146Y1989870D01*
X1508000Y1990377D01*
X1475812Y1990250D01*
X1469250Y1983687D01*
X1469250Y1929000D01*
X1471250Y1929000D01*
X1471250Y1911500D01*
X1469250Y1911500D01*
X1469250Y1856812D01*
X1475812Y1850250D01*
X1508000Y1850123D01*
X1513146Y1850630D01*
X1518094Y1852131D01*
X1522654Y1854568D01*
X1523350Y1855139D01*
X1523350Y1814960D01*
X1520244Y1818744D01*
X1512932Y1824745D01*
X1504590Y1829204D01*
X1495538Y1831950D01*
X1486125Y1832877D01*
X1434875Y1832877D01*
X1425461Y1831950D01*
X1416410Y1829204D01*
X1410901Y1826260D01*
X1410901Y1850330D01*
X1413000Y1850123D01*
X1445187Y1850250D01*
X1451750Y1856812D01*
X1451750Y1911500D01*
X1449750Y1911500D01*
X1449750Y1929000D01*
X1451750Y1929000D01*
X1451750Y1983687D01*
X1445187Y1990250D01*
X1413000Y1990377D01*
X1409790Y1990061D01*
X1409079Y1992404D01*
X1408125Y1995550D01*
X1404526Y2002281D01*
X1399684Y2008182D01*
X1398206Y2009395D01*
X1371101Y2036500D01*
X1386623Y2036500D01*
X1387130Y2031354D01*
X1388631Y2026406D01*
X1391068Y2021846D01*
X1394349Y2017849D01*
X1398346Y2014568D01*
X1402906Y2012131D01*
X1407854Y2010630D01*
X1413000Y2010123D01*
X1445187Y2010250D01*
X1451750Y2016812D01*
X1451750Y2071500D01*
X1393313Y2071500D01*
X1386750Y2064937D01*
X1386623Y2036500D01*
X1371101Y2036500D01*
X1327800Y2079801D01*
X1327800Y2107749D01*
X1344051Y2124000D01*
X1386623Y2124000D01*
X1386750Y2095562D01*
X1393313Y2089000D01*
X1451750Y2089000D01*
X1451750Y2143688D01*
X1445187Y2150250D01*
X1413000Y2150377D01*
X1407854Y2149870D01*
X1402906Y2148369D01*
X1398346Y2145932D01*
X1394349Y2142651D01*
X1391068Y2138654D01*
X1388631Y2134094D01*
X1387130Y2129146D01*
X1386623Y2124000D01*
X1344051Y2124000D01*
X1401333Y2181282D01*
X1408068Y2175755D01*
X1416410Y2171296D01*
X1425461Y2168550D01*
X1434875Y2167623D01*
X1486125Y2167623D01*
X1495538Y2168550D01*
X1504590Y2171296D01*
X1512932Y2175755D01*
X1520244Y2181756D01*
X1523350Y2185540D01*
X1523350Y2145361D01*
G37*
X1523350Y2145361D02*
X1522654Y2145932D01*
X1518094Y2148369D01*
X1513146Y2149870D01*
X1508000Y2150377D01*
X1475812Y2150250D01*
X1469250Y2143688D01*
X1469250Y2089000D01*
X1471250Y2089000D01*
X1471250Y2071500D01*
X1469250Y2071500D01*
X1469250Y2016812D01*
X1475812Y2010250D01*
X1508000Y2010123D01*
X1513146Y2010630D01*
X1518094Y2012131D01*
X1522654Y2014568D01*
X1523350Y2015139D01*
X1523350Y1985361D01*
X1522654Y1985932D01*
X1518094Y1988369D01*
X1513146Y1989870D01*
X1508000Y1990377D01*
X1475812Y1990250D01*
X1469250Y1983687D01*
X1469250Y1929000D01*
X1471250Y1929000D01*
X1471250Y1911500D01*
X1469250Y1911500D01*
X1469250Y1856812D01*
X1475812Y1850250D01*
X1508000Y1850123D01*
X1513146Y1850630D01*
X1518094Y1852131D01*
X1522654Y1854568D01*
X1523350Y1855139D01*
X1523350Y1814960D01*
X1520244Y1818744D01*
X1512932Y1824745D01*
X1504590Y1829204D01*
X1495538Y1831950D01*
X1486125Y1832877D01*
X1434875Y1832877D01*
X1425461Y1831950D01*
X1416410Y1829204D01*
X1410901Y1826260D01*
X1410901Y1850330D01*
X1413000Y1850123D01*
X1445187Y1850250D01*
X1451750Y1856812D01*
X1451750Y1911500D01*
X1449750Y1911500D01*
X1449750Y1929000D01*
X1451750Y1929000D01*
X1451750Y1983687D01*
X1445187Y1990250D01*
X1413000Y1990377D01*
X1409790Y1990061D01*
X1409079Y1992404D01*
X1408125Y1995550D01*
X1404526Y2002281D01*
X1399684Y2008182D01*
X1398206Y2009395D01*
X1371101Y2036500D01*
X1386623Y2036500D01*
X1387130Y2031354D01*
X1388631Y2026406D01*
X1391068Y2021846D01*
X1394349Y2017849D01*
X1398346Y2014568D01*
X1402906Y2012131D01*
X1407854Y2010630D01*
X1413000Y2010123D01*
X1445187Y2010250D01*
X1451750Y2016812D01*
X1451750Y2071500D01*
X1393313Y2071500D01*
X1386750Y2064937D01*
X1386623Y2036500D01*
X1371101Y2036500D01*
X1327800Y2079801D01*
X1327800Y2107749D01*
X1344051Y2124000D01*
X1386623Y2124000D01*
X1386750Y2095562D01*
X1393313Y2089000D01*
X1451750Y2089000D01*
X1451750Y2143688D01*
X1445187Y2150250D01*
X1413000Y2150377D01*
X1407854Y2149870D01*
X1402906Y2148369D01*
X1398346Y2145932D01*
X1394349Y2142651D01*
X1391068Y2138654D01*
X1388631Y2134094D01*
X1387130Y2129146D01*
X1386623Y2124000D01*
X1344051Y2124000D01*
X1401333Y2181282D01*
X1408068Y2175755D01*
X1416410Y2171296D01*
X1425461Y2168550D01*
X1434875Y2167623D01*
X1486125Y2167623D01*
X1495538Y2168550D01*
X1504590Y2171296D01*
X1512932Y2175755D01*
X1520244Y2181756D01*
X1523350Y2185540D01*
X1523350Y2145361D01*
G36*
X74303Y3146588D02*
G01*
X56082Y3134413D01*
X40587Y3118918D01*
X28411Y3100697D01*
X20025Y3080450D01*
X15750Y3058957D01*
X15750Y3037043D01*
X20025Y3015550D01*
X28411Y2995303D01*
X40587Y2977082D01*
X56082Y2961586D01*
X74303Y2949411D01*
X94550Y2941025D01*
X116043Y2936750D01*
X137957Y2936750D01*
X159450Y2941025D01*
X179697Y2949411D01*
X197918Y2961586D01*
X213413Y2977082D01*
X225588Y2995303D01*
X233975Y3015550D01*
X238250Y3037043D01*
X238250Y3058957D01*
X233975Y3080450D01*
X225588Y3100697D01*
X213413Y3118918D01*
X197918Y3134413D01*
X179697Y3146588D01*
X168443Y3151250D01*
X339557Y3151250D01*
X328303Y3146588D01*
X310082Y3134413D01*
X294587Y3118918D01*
X282412Y3100697D01*
X274025Y3080450D01*
X269750Y3058957D01*
X269750Y3037043D01*
X274025Y3015550D01*
X282412Y2995303D01*
X294587Y2977082D01*
X310082Y2961586D01*
X328303Y2949411D01*
X346906Y2941706D01*
X300397Y2895198D01*
X286450Y2900975D01*
X264957Y2905250D01*
X243043Y2905250D01*
X221550Y2900975D01*
X201303Y2892588D01*
X183082Y2880413D01*
X167587Y2864918D01*
X155412Y2846697D01*
X147025Y2826450D01*
X142750Y2804957D01*
X142750Y2783043D01*
X147025Y2761550D01*
X155412Y2741303D01*
X167587Y2723082D01*
X183082Y2707587D01*
X201303Y2695412D01*
X221550Y2687025D01*
X243043Y2682750D01*
X264957Y2682750D01*
X286450Y2687025D01*
X306697Y2695412D01*
X324918Y2707587D01*
X340414Y2723082D01*
X352588Y2741303D01*
X360975Y2761550D01*
X365250Y2783043D01*
X365250Y2804957D01*
X360975Y2826450D01*
X355198Y2840397D01*
X403401Y2888600D01*
X449334Y2888600D01*
X437082Y2880413D01*
X421586Y2864918D01*
X409411Y2846697D01*
X401025Y2826450D01*
X396750Y2804957D01*
X396750Y2783043D01*
X401025Y2761550D01*
X406802Y2747603D01*
X354945Y2695746D01*
X353467Y2694533D01*
X348625Y2688632D01*
X345027Y2681901D01*
X343483Y2676812D01*
X342811Y2674596D01*
X342063Y2667000D01*
X342250Y2665097D01*
X342250Y2651057D01*
X339000Y2651377D01*
X269313Y2651250D01*
X262750Y2644688D01*
X262750Y2548750D01*
X264750Y2548750D01*
X264750Y2531250D01*
X262750Y2531250D01*
X262750Y2529250D01*
X245250Y2529250D01*
X245250Y2531250D01*
X243250Y2531250D01*
X243250Y2548750D01*
X245250Y2548750D01*
X245250Y2644688D01*
X238687Y2651250D01*
X169000Y2651377D01*
X165750Y2651057D01*
X165750Y2665098D01*
X165937Y2667000D01*
X165750Y2668902D01*
X165750Y2668903D01*
X165189Y2674596D01*
X164990Y2675253D01*
X163263Y2680946D01*
X162974Y2681901D01*
X159375Y2688633D01*
X154533Y2694533D01*
X153055Y2695746D01*
X97371Y2751430D01*
X102167Y2763008D01*
X106250Y2783535D01*
X106250Y2804465D01*
X102167Y2824992D01*
X94157Y2844328D01*
X82530Y2861730D01*
X67730Y2876530D01*
X50328Y2888157D01*
X30992Y2896167D01*
X10465Y2900250D01*
X-10465Y2900250D01*
X-30992Y2896167D01*
X-50328Y2888157D01*
X-67730Y2876530D01*
X-82530Y2861730D01*
X-94157Y2844328D01*
X-102167Y2824992D01*
X-103250Y2819547D01*
X-103250Y3110338D01*
X-102381Y3119199D01*
X-100145Y3126604D01*
X-96514Y3133434D01*
X-91624Y3139429D01*
X-85664Y3144360D01*
X-78860Y3148039D01*
X-71470Y3150326D01*
X-62684Y3151250D01*
X85557Y3151250D01*
X74303Y3146588D01*
G37*
X74303Y3146588D02*
X56082Y3134413D01*
X40587Y3118918D01*
X28411Y3100697D01*
X20025Y3080450D01*
X15750Y3058957D01*
X15750Y3037043D01*
X20025Y3015550D01*
X28411Y2995303D01*
X40587Y2977082D01*
X56082Y2961586D01*
X74303Y2949411D01*
X94550Y2941025D01*
X116043Y2936750D01*
X137957Y2936750D01*
X159450Y2941025D01*
X179697Y2949411D01*
X197918Y2961586D01*
X213413Y2977082D01*
X225588Y2995303D01*
X233975Y3015550D01*
X238250Y3037043D01*
X238250Y3058957D01*
X233975Y3080450D01*
X225588Y3100697D01*
X213413Y3118918D01*
X197918Y3134413D01*
X179697Y3146588D01*
X168443Y3151250D01*
X339557Y3151250D01*
X328303Y3146588D01*
X310082Y3134413D01*
X294587Y3118918D01*
X282412Y3100697D01*
X274025Y3080450D01*
X269750Y3058957D01*
X269750Y3037043D01*
X274025Y3015550D01*
X282412Y2995303D01*
X294587Y2977082D01*
X310082Y2961586D01*
X328303Y2949411D01*
X346906Y2941706D01*
X300397Y2895198D01*
X286450Y2900975D01*
X264957Y2905250D01*
X243043Y2905250D01*
X221550Y2900975D01*
X201303Y2892588D01*
X183082Y2880413D01*
X167587Y2864918D01*
X155412Y2846697D01*
X147025Y2826450D01*
X142750Y2804957D01*
X142750Y2783043D01*
X147025Y2761550D01*
X155412Y2741303D01*
X167587Y2723082D01*
X183082Y2707587D01*
X201303Y2695412D01*
X221550Y2687025D01*
X243043Y2682750D01*
X264957Y2682750D01*
X286450Y2687025D01*
X306697Y2695412D01*
X324918Y2707587D01*
X340414Y2723082D01*
X352588Y2741303D01*
X360975Y2761550D01*
X365250Y2783043D01*
X365250Y2804957D01*
X360975Y2826450D01*
X355198Y2840397D01*
X403401Y2888600D01*
X449334Y2888600D01*
X437082Y2880413D01*
X421586Y2864918D01*
X409411Y2846697D01*
X401025Y2826450D01*
X396750Y2804957D01*
X396750Y2783043D01*
X401025Y2761550D01*
X406802Y2747603D01*
X354945Y2695746D01*
X353467Y2694533D01*
X348625Y2688632D01*
X345027Y2681901D01*
X343483Y2676812D01*
X342811Y2674596D01*
X342063Y2667000D01*
X342250Y2665097D01*
X342250Y2651057D01*
X339000Y2651377D01*
X269313Y2651250D01*
X262750Y2644688D01*
X262750Y2548750D01*
X264750Y2548750D01*
X264750Y2531250D01*
X262750Y2531250D01*
X262750Y2529250D01*
X245250Y2529250D01*
X245250Y2531250D01*
X243250Y2531250D01*
X243250Y2548750D01*
X245250Y2548750D01*
X245250Y2644688D01*
X238687Y2651250D01*
X169000Y2651377D01*
X165750Y2651057D01*
X165750Y2665098D01*
X165937Y2667000D01*
X165750Y2668902D01*
X165750Y2668903D01*
X165189Y2674596D01*
X164990Y2675253D01*
X163263Y2680946D01*
X162974Y2681901D01*
X159375Y2688633D01*
X154533Y2694533D01*
X153055Y2695746D01*
X97371Y2751430D01*
X102167Y2763008D01*
X106250Y2783535D01*
X106250Y2804465D01*
X102167Y2824992D01*
X94157Y2844328D01*
X82530Y2861730D01*
X67730Y2876530D01*
X50328Y2888157D01*
X30992Y2896167D01*
X10465Y2900250D01*
X-10465Y2900250D01*
X-30992Y2896167D01*
X-50328Y2888157D01*
X-67730Y2876530D01*
X-82530Y2861730D01*
X-94157Y2844328D01*
X-102167Y2824992D01*
X-103250Y2819547D01*
X-103250Y3110338D01*
X-102381Y3119199D01*
X-100145Y3126604D01*
X-96514Y3133434D01*
X-91624Y3139429D01*
X-85664Y3144360D01*
X-78860Y3148039D01*
X-71470Y3150326D01*
X-62684Y3151250D01*
X85557Y3151250D01*
X74303Y3146588D01*
G36*
X1290068Y3147654D02*
G01*
X1287631Y3143094D01*
X1286130Y3138146D01*
X1285623Y3133000D01*
X1285750Y3063312D01*
X1292313Y3056750D01*
X1388250Y3056750D01*
X1388250Y3058750D01*
X1405750Y3058750D01*
X1405750Y3056750D01*
X1501687Y3056750D01*
X1508250Y3063312D01*
X1508377Y3133000D01*
X1507870Y3138146D01*
X1506369Y3143094D01*
X1503932Y3147654D01*
X1500981Y3151250D01*
X1586338Y3151250D01*
X1595199Y3150381D01*
X1602604Y3148145D01*
X1609434Y3144514D01*
X1615429Y3139624D01*
X1620360Y3133664D01*
X1624039Y3126860D01*
X1626326Y3119470D01*
X1627250Y3110683D01*
X1627250Y2819546D01*
X1626167Y2824992D01*
X1618157Y2844328D01*
X1606530Y2861730D01*
X1591730Y2876530D01*
X1574328Y2888157D01*
X1554992Y2896167D01*
X1534465Y2900250D01*
X1513535Y2900250D01*
X1493008Y2896167D01*
X1473672Y2888157D01*
X1456270Y2876530D01*
X1441470Y2861730D01*
X1429842Y2844328D01*
X1421833Y2824992D01*
X1417750Y2804465D01*
X1417750Y2783535D01*
X1421833Y2763008D01*
X1426629Y2751430D01*
X1381069Y2705869D01*
X1381377Y2709000D01*
X1381377Y2879000D01*
X1380870Y2884146D01*
X1379369Y2889094D01*
X1376932Y2893654D01*
X1373651Y2897651D01*
X1369654Y2900932D01*
X1365094Y2903369D01*
X1360146Y2904870D01*
X1355000Y2905377D01*
X1185000Y2905377D01*
X1181750Y2905057D01*
X1181750Y2943635D01*
X1195697Y2949411D01*
X1213918Y2961586D01*
X1215331Y2963000D01*
X1285623Y2963000D01*
X1286130Y2957854D01*
X1287631Y2952906D01*
X1290068Y2948346D01*
X1293349Y2944349D01*
X1297346Y2941068D01*
X1301906Y2938631D01*
X1306854Y2937130D01*
X1312000Y2936623D01*
X1381688Y2936750D01*
X1388250Y2943312D01*
X1388250Y3039250D01*
X1405750Y3039250D01*
X1405750Y2943312D01*
X1412312Y2936750D01*
X1482000Y2936623D01*
X1487146Y2937130D01*
X1492094Y2938631D01*
X1496654Y2941068D01*
X1500651Y2944349D01*
X1503932Y2948346D01*
X1506369Y2952906D01*
X1507870Y2957854D01*
X1508377Y2963000D01*
X1508250Y3032687D01*
X1501687Y3039250D01*
X1405750Y3039250D01*
X1388250Y3039250D01*
X1292313Y3039250D01*
X1285750Y3032687D01*
X1285623Y2963000D01*
X1215331Y2963000D01*
X1229414Y2977082D01*
X1241589Y2995303D01*
X1249975Y3015550D01*
X1254250Y3037043D01*
X1254250Y3058957D01*
X1249975Y3080450D01*
X1241589Y3100697D01*
X1229414Y3118918D01*
X1213918Y3134413D01*
X1195697Y3146588D01*
X1184443Y3151250D01*
X1293019Y3151250D01*
X1290068Y3147654D01*
G37*
X1290068Y3147654D02*
X1287631Y3143094D01*
X1286130Y3138146D01*
X1285623Y3133000D01*
X1285750Y3063312D01*
X1292313Y3056750D01*
X1388250Y3056750D01*
X1388250Y3058750D01*
X1405750Y3058750D01*
X1405750Y3056750D01*
X1501687Y3056750D01*
X1508250Y3063312D01*
X1508377Y3133000D01*
X1507870Y3138146D01*
X1506369Y3143094D01*
X1503932Y3147654D01*
X1500981Y3151250D01*
X1586338Y3151250D01*
X1595199Y3150381D01*
X1602604Y3148145D01*
X1609434Y3144514D01*
X1615429Y3139624D01*
X1620360Y3133664D01*
X1624039Y3126860D01*
X1626326Y3119470D01*
X1627250Y3110683D01*
X1627250Y2819546D01*
X1626167Y2824992D01*
X1618157Y2844328D01*
X1606530Y2861730D01*
X1591730Y2876530D01*
X1574328Y2888157D01*
X1554992Y2896167D01*
X1534465Y2900250D01*
X1513535Y2900250D01*
X1493008Y2896167D01*
X1473672Y2888157D01*
X1456270Y2876530D01*
X1441470Y2861730D01*
X1429842Y2844328D01*
X1421833Y2824992D01*
X1417750Y2804465D01*
X1417750Y2783535D01*
X1421833Y2763008D01*
X1426629Y2751430D01*
X1381069Y2705869D01*
X1381377Y2709000D01*
X1381377Y2879000D01*
X1380870Y2884146D01*
X1379369Y2889094D01*
X1376932Y2893654D01*
X1373651Y2897651D01*
X1369654Y2900932D01*
X1365094Y2903369D01*
X1360146Y2904870D01*
X1355000Y2905377D01*
X1185000Y2905377D01*
X1181750Y2905057D01*
X1181750Y2943635D01*
X1195697Y2949411D01*
X1213918Y2961586D01*
X1215331Y2963000D01*
X1285623Y2963000D01*
X1286130Y2957854D01*
X1287631Y2952906D01*
X1290068Y2948346D01*
X1293349Y2944349D01*
X1297346Y2941068D01*
X1301906Y2938631D01*
X1306854Y2937130D01*
X1312000Y2936623D01*
X1381688Y2936750D01*
X1388250Y2943312D01*
X1388250Y3039250D01*
X1405750Y3039250D01*
X1405750Y2943312D01*
X1412312Y2936750D01*
X1482000Y2936623D01*
X1487146Y2937130D01*
X1492094Y2938631D01*
X1496654Y2941068D01*
X1500651Y2944349D01*
X1503932Y2948346D01*
X1506369Y2952906D01*
X1507870Y2957854D01*
X1508377Y2963000D01*
X1508250Y3032687D01*
X1501687Y3039250D01*
X1405750Y3039250D01*
X1388250Y3039250D01*
X1292313Y3039250D01*
X1285750Y3032687D01*
X1285623Y2963000D01*
X1215331Y2963000D01*
X1229414Y2977082D01*
X1241589Y2995303D01*
X1249975Y3015550D01*
X1254250Y3037043D01*
X1254250Y3058957D01*
X1249975Y3080450D01*
X1241589Y3100697D01*
X1229414Y3118918D01*
X1213918Y3134413D01*
X1195697Y3146588D01*
X1184443Y3151250D01*
X1293019Y3151250D01*
X1290068Y3147654D01*
D21*
X444500Y406400D03*
X673100Y685800D03*
X1365250Y2082800D03*
X1250950Y1771650D03*
X863600Y419100D03*
X203200Y1035050D03*
X266700Y755650D03*
X146050Y1524000D03*
X381000Y1803400D03*
X247650Y139700D03*
X330200Y-63500D03*
X1282700Y-63500D03*
X749300Y1308100D03*
X590550Y1346200D03*
X596900Y1879600D03*
X762000Y1663700D03*
X254000Y2959100D03*
X203200Y1689100D03*
X673100Y901700D03*
X1092200Y723900D03*
X965200Y863600D03*
X1110899Y1905000D03*
X1225550Y171450D03*
X1231900Y1282700D03*
X285750Y2146300D03*
X1308101Y761999D03*
X901700Y1270000D03*
X736906Y1103492D03*
X1365250Y869950D03*
X1397000Y2413000D03*
X1562100Y1651000D03*
X1371600Y1073150D03*
X203200Y1168400D03*
X1029602Y1130300D03*
X254000Y254000D03*
X254000Y38100D03*
X615950Y1257300D03*
X539399Y1041400D03*
X1026015Y2152998D03*
X463550Y831850D03*
X167392Y1613440D03*
X844199Y1159851D03*
X913498Y1382499D03*
X381000Y1905000D03*
X959100Y1810000D03*
X958850Y2095497D03*
D22*
X0Y2794000D03*
X0Y2540000D03*
X1524000Y2540000D03*
X1524000Y2794000D03*
X127000Y3048000D03*
X381000Y3048000D03*
X635000Y3048000D03*
X889000Y3048000D03*
X1143000Y3048000D03*
X1397000Y3048000D03*
X1270000Y2540000D03*
X1270000Y2794000D03*
X1143000Y2286000D03*
X889000Y2286000D03*
X635000Y2286000D03*
X381000Y2286000D03*
X1016000Y2794000D03*
X1016000Y2540000D03*
X762000Y2794000D03*
X762000Y2540000D03*
X508000Y2794000D03*
X508000Y2540000D03*
X254000Y2794000D03*
X254000Y2540000D03*
M02*
