%TF.GenerationSoftware,KiCad,Pcbnew,5.1.5+dfsg1-2~bpo10+1*%
%TF.CreationDate,Date%
%TF.ProjectId,ProMicro_ESP12E,50726f4d-6963-4726-9f5f-455350313245,v1.0*%
%TF.SameCoordinates,Original*%
%TF.FileFunction,Other,User*%
%FSLAX45Y45*%
G04 Gerber Fmt 4.5, Leading zero omitted, Abs format (unit mm)*
G04 Created by KiCad*
%MOMM*%
%LPD*%
G04 APERTURE LIST*
%ADD10C,0.100000*%
%ADD11C,0.050000*%
G04 APERTURE END LIST*
D10*
X-63500Y3175000D02*
G75*
G03X-127000Y3111500I0J-63500D01*
G01*
X1651000Y3111500D02*
G75*
G03X1587500Y3175000I-63500J0D01*
G01*
X1587500Y-127000D02*
G75*
G03X1651000Y-63500I0J63500D01*
G01*
X-127000Y-63500D02*
G75*
G03X-63500Y-127000I63500J0D01*
G01*
X-127000Y3111500D02*
X-127000Y-63500D01*
X1587500Y3175000D02*
X-63500Y3175000D01*
X1651000Y-63500D02*
X1651000Y3111500D01*
X-63500Y-127000D02*
X1587500Y-127000D01*
D11*
X1387500Y2011000D02*
X1387500Y2307000D01*
X1533500Y2011000D02*
X1387500Y2011000D01*
X1533500Y2307000D02*
X1533500Y2011000D01*
X1387500Y2307000D02*
X1533500Y2307000D01*
X973000Y1730000D02*
X973000Y2080000D01*
X1313000Y1730000D02*
X973000Y1730000D01*
X1313000Y2080000D02*
X1313000Y1730000D01*
X973000Y2080000D02*
X1313000Y2080000D01*
X551000Y2080000D02*
X551000Y1730000D01*
X211000Y2080000D02*
X551000Y2080000D01*
X211000Y1730000D02*
X211000Y2080000D01*
X551000Y1730000D02*
X211000Y1730000D01*
X136500Y2307000D02*
X136500Y2011000D01*
X-9500Y2307000D02*
X136500Y2307000D01*
X-9500Y2011000D02*
X-9500Y2307000D01*
X136500Y2011000D02*
X-9500Y2011000D01*
X-9500Y1693500D02*
X-9500Y1989500D01*
X136500Y1693500D02*
X-9500Y1693500D01*
X136500Y1989500D02*
X136500Y1693500D01*
X-9500Y1989500D02*
X136500Y1989500D01*
X614000Y2041500D02*
X910000Y2041500D01*
X614000Y1895500D02*
X614000Y2041500D01*
X910000Y1895500D02*
X614000Y1895500D01*
X910000Y2041500D02*
X910000Y1895500D01*
X910000Y1705000D02*
X614000Y1705000D01*
X910000Y1851000D02*
X910000Y1705000D01*
X614000Y1851000D02*
X910000Y1851000D01*
X614000Y1705000D02*
X614000Y1851000D01*
X1387500Y1693500D02*
X1387500Y1989500D01*
X1533500Y1693500D02*
X1387500Y1693500D01*
X1533500Y1989500D02*
X1533500Y1693500D01*
X1387500Y1989500D02*
X1533500Y1989500D01*
X-48000Y3228000D02*
X1577000Y3228000D01*
X-48000Y2873000D02*
X-48000Y3228000D01*
X1577000Y2873000D02*
X-48000Y2873000D01*
X1577000Y3228000D02*
X1577000Y2873000D01*
X1450000Y2974000D02*
X1090000Y2974000D01*
X1450000Y2359000D02*
X1450000Y2974000D01*
X1090000Y2359000D02*
X1450000Y2359000D01*
X1090000Y2974000D02*
X1090000Y2359000D01*
X1321000Y2106000D02*
X201000Y2106000D01*
X1321000Y2461000D02*
X1321000Y2106000D01*
X201000Y2461000D02*
X1321000Y2461000D01*
X201000Y2106000D02*
X201000Y2461000D01*
X74000Y2975000D02*
X74000Y2360000D01*
X1194000Y2975000D02*
X74000Y2975000D01*
X1194000Y2360000D02*
X1194000Y2975000D01*
X74000Y2360000D02*
X1194000Y2360000D01*
X1667000Y1627500D02*
X1667000Y-902500D01*
X-143000Y1627500D02*
X1667000Y1627500D01*
X-143000Y-902500D02*
X-143000Y1627500D01*
X1667000Y-902500D02*
X-143000Y-902500D01*
M02*
