<svg version="1.1" xmlns="http://www.w3.org/2000/svg" xmlns:xlink="http://www.w3.org/1999/xlink" stroke-linecap="round" stroke-linejoin="round" stroke-width="0" fill-rule="evenodd" clip-rule="evenodd" id="nMLqpQl6OA6Z_bottom" viewBox="125730 -105410 17780 30480" width="17.78mm" height="30.48mm"><defs><style>.nMLqpQl6OA6Z_fr4 {color: #666666;}
.nMLqpQl6OA6Z_cu {color: #cccccc;}
.nMLqpQl6OA6Z_cf {color: #cc9933;}
.nMLqpQl6OA6Z_sm {color: #004200; opacity: 0.75;}
.nMLqpQl6OA6Z_ss {color: #ffffff;}
.nMLqpQl6OA6Z_sp {color: #999999;}
.nMLqpQl6OA6Z_out {color: #000000;}</style><circle cx="0" cy="0" r="100" id="Q83aJ8eVoQwO_pad-1"/><circle cx="0" cy="0" r="150" id="Q83aJ8eVoQwO_pad-2"/><circle cx="0" cy="0" r="500" id="Q83aJ8eVoQwO_pad-3"/><g id="nMLqpQl6OA6Z_bottom_drill1"><use xlink:href="#Q83aJ8eVoQwO_pad-1" x="129540" y="-85471"/><use xlink:href="#Q83aJ8eVoQwO_pad-1" x="130810" y="-90932"/><use xlink:href="#Q83aJ8eVoQwO_pad-1" x="132308" y="-98272"/><use xlink:href="#Q83aJ8eVoQwO_pad-1" x="132524" y="-96647"/><use xlink:href="#Q83aJ8eVoQwO_pad-1" x="133932" y="-89385"/><use xlink:href="#Q83aJ8eVoQwO_pad-1" x="134112" y="-97917"/><use xlink:href="#Q83aJ8eVoQwO_pad-1" x="134264" y="-90170"/><use xlink:href="#Q83aJ8eVoQwO_pad-1" x="135255" y="-90170"/><use xlink:href="#Q83aJ8eVoQwO_pad-1" x="135890" y="-85852"/><use xlink:href="#Q83aJ8eVoQwO_pad-1" x="136525" y="-90170"/><use xlink:href="#Q83aJ8eVoQwO_pad-1" x="137536" y="-90149"/><use xlink:href="#Q83aJ8eVoQwO_pad-1" x="140970" y="-94361"/><use xlink:href="#Q83aJ8eVoQwO_pad-2" x="128016" y="-100330"/><use xlink:href="#Q83aJ8eVoQwO_pad-2" x="128270" y="-85090"/><use xlink:href="#Q83aJ8eVoQwO_pad-2" x="128270" y="-87630"/><use xlink:href="#Q83aJ8eVoQwO_pad-2" x="128270" y="-90170"/><use xlink:href="#Q83aJ8eVoQwO_pad-2" x="128270" y="-92710"/><use xlink:href="#Q83aJ8eVoQwO_pad-2" x="128905" y="-81915"/><use xlink:href="#Q83aJ8eVoQwO_pad-2" x="128905" y="-101600"/><use xlink:href="#Q83aJ8eVoQwO_pad-2" x="129540" y="-77470"/><use xlink:href="#Q83aJ8eVoQwO_pad-2" x="129540" y="-80010"/><use xlink:href="#Q83aJ8eVoQwO_pad-2" x="129540" y="-104140"/><use xlink:href="#Q83aJ8eVoQwO_pad-2" x="130810" y="-88900"/><use xlink:href="#Q83aJ8eVoQwO_pad-2" x="130810" y="-93218"/><use xlink:href="#Q83aJ8eVoQwO_pad-2" x="130810" y="-101600"/><use xlink:href="#Q83aJ8eVoQwO_pad-2" x="131445" y="-82550"/><use xlink:href="#Q83aJ8eVoQwO_pad-2" x="132080" y="-88900"/><use xlink:href="#Q83aJ8eVoQwO_pad-2" x="132563" y="-83248"/><use xlink:href="#Q83aJ8eVoQwO_pad-2" x="132715" y="-100330"/><use xlink:href="#Q83aJ8eVoQwO_pad-2" x="132715" y="-101600"/><use xlink:href="#Q83aJ8eVoQwO_pad-2" x="132779" y="-91249"/><use xlink:href="#Q83aJ8eVoQwO_pad-2" x="133350" y="-79375"/><use xlink:href="#Q83aJ8eVoQwO_pad-2" x="133477" y="-84201"/><use xlink:href="#Q83aJ8eVoQwO_pad-2" x="133667" y="-81915"/><use xlink:href="#Q83aJ8eVoQwO_pad-2" x="134620" y="-84201"/><use xlink:href="#Q83aJ8eVoQwO_pad-2" x="134620" y="-92710"/><use xlink:href="#Q83aJ8eVoQwO_pad-2" x="134620" y="-95250"/><use xlink:href="#Q83aJ8eVoQwO_pad-2" x="134620" y="-100330"/><use xlink:href="#Q83aJ8eVoQwO_pad-2" x="134620" y="-101600"/><use xlink:href="#Q83aJ8eVoQwO_pad-2" x="135890" y="-79375"/><use xlink:href="#Q83aJ8eVoQwO_pad-2" x="135890" y="-84201"/><use xlink:href="#Q83aJ8eVoQwO_pad-2" x="136525" y="-100330"/><use xlink:href="#Q83aJ8eVoQwO_pad-2" x="136525" y="-101600"/><use xlink:href="#Q83aJ8eVoQwO_pad-2" x="137160" y="-92710"/><use xlink:href="#Q83aJ8eVoQwO_pad-2" x="137160" y="-95250"/><use xlink:href="#Q83aJ8eVoQwO_pad-2" x="138303" y="-100076"/><use xlink:href="#Q83aJ8eVoQwO_pad-2" x="138430" y="-101600"/><use xlink:href="#Q83aJ8eVoQwO_pad-2" x="138938" y="-85217"/><use xlink:href="#Q83aJ8eVoQwO_pad-2" x="139065" y="-97155"/><use xlink:href="#Q83aJ8eVoQwO_pad-2" x="139319" y="-77978"/><use xlink:href="#Q83aJ8eVoQwO_pad-2" x="139319" y="-79375"/><use xlink:href="#Q83aJ8eVoQwO_pad-2" x="139319" y="-80645"/><use xlink:href="#Q83aJ8eVoQwO_pad-2" x="139319" y="-81915"/><use xlink:href="#Q83aJ8eVoQwO_pad-2" x="139319" y="-83058"/><use xlink:href="#Q83aJ8eVoQwO_pad-2" x="139446" y="-100076"/><use xlink:href="#Q83aJ8eVoQwO_pad-2" x="139700" y="-104140"/><use xlink:href="#Q83aJ8eVoQwO_pad-2" x="140335" y="-95948"/><use xlink:href="#Q83aJ8eVoQwO_pad-2" x="140335" y="-100330"/><use xlink:href="#Q83aJ8eVoQwO_pad-2" x="140970" y="-102870"/><use xlink:href="#Q83aJ8eVoQwO_pad-2" x="141605" y="-95250"/><use xlink:href="#Q83aJ8eVoQwO_pad-3" x="127000" y="-76200"/><use xlink:href="#Q83aJ8eVoQwO_pad-3" x="127000" y="-78740"/><use xlink:href="#Q83aJ8eVoQwO_pad-3" x="127000" y="-81280"/><use xlink:href="#Q83aJ8eVoQwO_pad-3" x="127000" y="-83820"/><use xlink:href="#Q83aJ8eVoQwO_pad-3" x="127000" y="-86360"/><use xlink:href="#Q83aJ8eVoQwO_pad-3" x="127000" y="-88900"/><use xlink:href="#Q83aJ8eVoQwO_pad-3" x="127000" y="-91440"/><use xlink:href="#Q83aJ8eVoQwO_pad-3" x="127000" y="-93980"/><use xlink:href="#Q83aJ8eVoQwO_pad-3" x="127000" y="-96520"/><use xlink:href="#Q83aJ8eVoQwO_pad-3" x="127000" y="-99060"/><use xlink:href="#Q83aJ8eVoQwO_pad-3" x="127000" y="-101600"/><use xlink:href="#Q83aJ8eVoQwO_pad-3" x="127000" y="-104140"/><use xlink:href="#Q83aJ8eVoQwO_pad-3" x="142240" y="-76200"/><use xlink:href="#Q83aJ8eVoQwO_pad-3" x="142240" y="-78740"/><use xlink:href="#Q83aJ8eVoQwO_pad-3" x="142240" y="-81280"/><use xlink:href="#Q83aJ8eVoQwO_pad-3" x="142240" y="-83820"/><use xlink:href="#Q83aJ8eVoQwO_pad-3" x="142240" y="-86360"/><use xlink:href="#Q83aJ8eVoQwO_pad-3" x="142240" y="-88900"/><use xlink:href="#Q83aJ8eVoQwO_pad-3" x="142240" y="-91440"/><use xlink:href="#Q83aJ8eVoQwO_pad-3" x="142240" y="-93980"/><use xlink:href="#Q83aJ8eVoQwO_pad-3" x="142240" y="-96520"/><use xlink:href="#Q83aJ8eVoQwO_pad-3" x="142240" y="-99060"/><use xlink:href="#Q83aJ8eVoQwO_pad-3" x="142240" y="-101600"/><use xlink:href="#Q83aJ8eVoQwO_pad-3" x="142240" y="-104140"/></g><g id="nMLqpQl6OA6Z_bottom_drill2"><path d="M 125730 -75565 A 635 635 0 0 0 126365 -74930 M 142875 -74930 A 635 635 0 0 0 143510 -75565 M 126365 -74930 142875 -74930 M 143510 -104775 A 635 635 0 0 0 142875 -105410 M 126365 -105410 A 635 635 0 0 0 125730 -104775 L 125730 -75565 M 142875 -105410 126365 -105410 M 143510 -75565 143510 -104775 M 143500 -105240 143500 -75090 M 126200 -105240 143500 -105240 M 126200 -105240 125730 -104740 M 125730 -75090 125730 -104740 M 143500 -75090 125730 -75090" fill="none" stroke-width="100"/><path d="M 129071.67 -103425.71 129071.67 -103901.9 M 129357.38 -103330.48 128357.38 -103663.81 129357.38 -103997.14 M 129357.38 -104854.29 129357.38 -104282.86 M 129357.38 -104568.57 128357.38 -104568.57 128500.24 -104473.33 128595.48 -104378.1 128643.09 -104282.86" fill="none" stroke-width="150"/></g><clipPath id="nMLqpQl6OA6Z_bottom_outline"><path d="M 125730 -75565 A 635 635 0 0 0 126365 -74930 L 142875 -74930 A 635 635 0 0 0 143510 -75565 L 143510 -104775 A 635 635 0 0 0 142875 -105410 L 126365 -105410 A 635 635 0 0 0 125730 -104775 L 125730 -75565" fill="none" stroke-width="100"/></clipPath><mask id="nMLqpQl6OA6Z_bottom_mech-mask"><g fill="#000" stroke="#000"><rect x="125730" y="-105410" width="17780" height="30480" fill="#fff"/><use xlink:href="#nMLqpQl6OA6Z_bottom_drill1"/><use xlink:href="#nMLqpQl6OA6Z_bottom_drill2"/></g></mask></defs><g transform="translate(0,-180340) scale(1,-1)"><g mask="url(#nMLqpQl6OA6Z_bottom_mech-mask)" clip-path="url(#nMLqpQl6OA6Z_bottom_outline)" transform="translate(269240,0) scale(-1,1)"><rect x="125730" y="-105410" width="17780" height="30480" fill="currentColor" class="nMLqpQl6OA6Z_fr4"/></g></g></svg>