<svg version="1.1" xmlns="http://www.w3.org/2000/svg" xmlns:xlink="http://www.w3.org/1999/xlink" stroke-linecap="round" stroke-linejoin="round" stroke-width="0" fill-rule="evenodd" clip-rule="evenodd" id="wgG-QLmo3fJr_top" viewBox="121920 -113030 17780 30480" width="17.78mm" height="30.48mm"><defs><style>.wgG-QLmo3fJr_fr4 {color: #666666;}
.wgG-QLmo3fJr_cu {color: #cccccc;}
.wgG-QLmo3fJr_cf {color: #cc9933;}
.wgG-QLmo3fJr_sm {color: #004200; opacity: 0.75;}
.wgG-QLmo3fJr_ss {color: #ffffff;}
.wgG-QLmo3fJr_sp {color: #999999;}
.wgG-QLmo3fJr_out {color: #000000;}</style><circle cx="0" cy="0" r="100" id="p74RZcs6qofy_pad-1"/><circle cx="0" cy="0" r="150" id="p74RZcs6qofy_pad-2"/><circle cx="0" cy="0" r="500" id="p74RZcs6qofy_pad-3"/><g id="wgG-QLmo3fJr_top_drill1"><use xlink:href="#p74RZcs6qofy_pad-1" x="127127" y="-86233"/><use xlink:href="#p74RZcs6qofy_pad-1" x="127739" y="-89177"/><use xlink:href="#p74RZcs6qofy_pad-1" x="127762" y="-97663"/><use xlink:href="#p74RZcs6qofy_pad-1" x="128524" y="-97155"/><use xlink:href="#p74RZcs6qofy_pad-1" x="128524" y="-105791"/><use xlink:href="#p74RZcs6qofy_pad-1" x="128524" y="-106807"/><use xlink:href="#p74RZcs6qofy_pad-1" x="128524" y="-107950"/><use xlink:href="#p74RZcs6qofy_pad-1" x="128651" y="-86804"/><use xlink:href="#p74RZcs6qofy_pad-1" x="129159" y="-92456"/><use xlink:href="#p74RZcs6qofy_pad-1" x="129540" y="-109728"/><use xlink:href="#p74RZcs6qofy_pad-1" x="130048" y="-108839"/><use xlink:href="#p74RZcs6qofy_pad-1" x="130175" y="-103505"/><use xlink:href="#p74RZcs6qofy_pad-1" x="130619" y="-86229"/><use xlink:href="#p74RZcs6qofy_pad-1" x="131572" y="-108839"/><use xlink:href="#p74RZcs6qofy_pad-1" x="131699" y="-105791"/><use xlink:href="#p74RZcs6qofy_pad-1" x="131699" y="-106807"/><use xlink:href="#p74RZcs6qofy_pad-1" x="132080" y="-109728"/><use xlink:href="#p74RZcs6qofy_pad-1" x="132715" y="-97155"/><use xlink:href="#p74RZcs6qofy_pad-1" x="133858" y="-106680"/><use xlink:href="#p74RZcs6qofy_pad-1" x="133985" y="-95250"/><use xlink:href="#p74RZcs6qofy_pad-1" x="133985" y="-97790"/><use xlink:href="#p74RZcs6qofy_pad-1" x="134112" y="-87249"/><use xlink:href="#p74RZcs6qofy_pad-1" x="135890" y="-103759"/><use xlink:href="#p74RZcs6qofy_pad-1" x="136525" y="-85090"/><use xlink:href="#p74RZcs6qofy_pad-1" x="136525" y="-90170"/><use xlink:href="#p74RZcs6qofy_pad-2" x="123825" y="-85090"/><use xlink:href="#p74RZcs6qofy_pad-2" x="123825" y="-90170"/><use xlink:href="#p74RZcs6qofy_pad-2" x="125730" y="-104140"/><use xlink:href="#p74RZcs6qofy_pad-2" x="125730" y="-108331"/><use xlink:href="#p74RZcs6qofy_pad-2" x="125984" y="-91694"/><use xlink:href="#p74RZcs6qofy_pad-2" x="127635" y="-104140"/><use xlink:href="#p74RZcs6qofy_pad-2" x="128651" y="-93853"/><use xlink:href="#p74RZcs6qofy_pad-2" x="128905" y="-102235"/><use xlink:href="#p74RZcs6qofy_pad-2" x="129286" y="-96012"/><use xlink:href="#p74RZcs6qofy_pad-2" x="129413" y="-84455"/><use xlink:href="#p74RZcs6qofy_pad-2" x="130175" y="-100965"/><use xlink:href="#p74RZcs6qofy_pad-2" x="130556" y="-97409"/><use xlink:href="#p74RZcs6qofy_pad-2" x="130810" y="-93345"/><use xlink:href="#p74RZcs6qofy_pad-2" x="131826" y="-84455"/><use xlink:href="#p74RZcs6qofy_pad-2" x="131826" y="-98806"/><use xlink:href="#p74RZcs6qofy_pad-2" x="132080" y="-93345"/><use xlink:href="#p74RZcs6qofy_pad-2" x="132080" y="-103505"/><use xlink:href="#p74RZcs6qofy_pad-2" x="133985" y="-100965"/><use xlink:href="#p74RZcs6qofy_pad-2" x="135890" y="-111760"/><use xlink:href="#p74RZcs6qofy_pad-2" x="136017" y="-86995"/><use xlink:href="#p74RZcs6qofy_pad-2" x="136144" y="-92964"/><use xlink:href="#p74RZcs6qofy_pad-2" x="137160" y="-95250"/><use xlink:href="#p74RZcs6qofy_pad-3" x="123190" y="-83820"/><use xlink:href="#p74RZcs6qofy_pad-3" x="123190" y="-86360"/><use xlink:href="#p74RZcs6qofy_pad-3" x="123190" y="-88900"/><use xlink:href="#p74RZcs6qofy_pad-3" x="123190" y="-91440"/><use xlink:href="#p74RZcs6qofy_pad-3" x="123190" y="-93980"/><use xlink:href="#p74RZcs6qofy_pad-3" x="123190" y="-96520"/><use xlink:href="#p74RZcs6qofy_pad-3" x="123190" y="-99060"/><use xlink:href="#p74RZcs6qofy_pad-3" x="123190" y="-101600"/><use xlink:href="#p74RZcs6qofy_pad-3" x="123190" y="-104140"/><use xlink:href="#p74RZcs6qofy_pad-3" x="123190" y="-106680"/><use xlink:href="#p74RZcs6qofy_pad-3" x="123190" y="-109220"/><use xlink:href="#p74RZcs6qofy_pad-3" x="123190" y="-111760"/><use xlink:href="#p74RZcs6qofy_pad-3" x="138430" y="-83820"/><use xlink:href="#p74RZcs6qofy_pad-3" x="138430" y="-86360"/><use xlink:href="#p74RZcs6qofy_pad-3" x="138430" y="-88900"/><use xlink:href="#p74RZcs6qofy_pad-3" x="138430" y="-91440"/><use xlink:href="#p74RZcs6qofy_pad-3" x="138430" y="-93980"/><use xlink:href="#p74RZcs6qofy_pad-3" x="138430" y="-96520"/><use xlink:href="#p74RZcs6qofy_pad-3" x="138430" y="-99060"/><use xlink:href="#p74RZcs6qofy_pad-3" x="138430" y="-101600"/><use xlink:href="#p74RZcs6qofy_pad-3" x="138430" y="-104140"/><use xlink:href="#p74RZcs6qofy_pad-3" x="138430" y="-106680"/><use xlink:href="#p74RZcs6qofy_pad-3" x="138430" y="-109220"/><use xlink:href="#p74RZcs6qofy_pad-3" x="138430" y="-111760"/></g><g id="wgG-QLmo3fJr_top_drill2"><path d="M 122555 -113030 A 635 635 0 0 0 121920 -112395 M 121920 -83185 A 635 635 0 0 0 122555 -82550 M 139065 -82550 A 635 635 0 0 0 139700 -83185 M 139700 -112395 A 635 635 0 0 0 139065 -113030 M 139700 -83185 139700 -112395 M 122555 -82550 139065 -82550 M 121920 -112395 121920 -83185 M 139065 -113030 122555 -113030" fill="none" stroke-width="100"/><path d="M 128095 -85256.67 127618.81 -85256.67 M 128190.24 -85542.38 127856.9 -84542.38 127523.57 -85542.38 M 127190.24 -84542.38 127190.24 -85351.9 127142.62 -85447.14 127095 -85494.76 126999.76 -85542.38 126809.28 -85542.38 126714.05 -85494.76 126666.43 -85447.14 126618.81 -85351.9 126618.81 -84542.38 M 126237.86 -84542.38 125571.19 -85542.38 M 125571.19 -84542.38 126237.86 -85542.38 M 125428.33 -85637.62 124666.43 -85637.62 M 124475.95 -85494.76 124333.09 -85542.38 124095 -85542.38 123999.76 -85494.76 123952.14 -85447.14 123904.52 -85351.9 123904.52 -85256.67 123952.14 -85161.43 123999.76 -85113.81 124095 -85066.19 124285.48 -85018.57 124380.71 -84970.95 124428.33 -84923.33 124475.95 -84828.1 124475.95 -84732.86 124428.33 -84637.62 124380.71 -84590 124285.48 -84542.38 124047.38 -84542.38 123904.52 -84590 M 122904.52 -85447.14 122952.14 -85494.76 123095 -85542.38 123190.24 -85542.38 123333.09 -85494.76 123428.33 -85399.52 123475.95 -85304.29 123523.57 -85113.81 123523.57 -84970.95 123475.95 -84780.48 123428.33 -84685.24 123333.09 -84590 123190.24 -84542.38 123095 -84542.38 122952.14 -84590 122904.52 -84637.62 M 121999.76 -85542.38 122475.95 -85542.38 122475.95 -84542.38 M 126356.9 -84542.38 125785.48 -84542.38 M 126071.19 -85542.38 126071.19 -84542.38 M 125452.14 -85542.38 125452.14 -84542.38 125071.19 -84542.38 124975.95 -84590 124928.33 -84637.62 124880.71 -84732.86 124880.71 -84875.71 124928.33 -84970.95 124975.95 -85018.57 125071.19 -85066.19 125452.14 -85066.19 M 124547.38 -84542.38 123928.33 -84542.38 124261.67 -84923.33 124118.81 -84923.33 124023.57 -84970.95 123975.95 -85018.57 123928.33 -85113.81 123928.33 -85351.9 123975.95 -85447.14 124023.57 -85494.76 124118.81 -85542.38 124404.52 -85542.38 124499.76 -85494.76 124547.38 -85447.14 M 139548.81 -85256.67 139072.62 -85256.67 M 139644.05 -85542.38 139310.71 -84542.38 138977.38 -85542.38 M 138644.05 -84542.38 138644.05 -85351.9 138596.43 -85447.14 138548.81 -85494.76 138453.57 -85542.38 138263.09 -85542.38 138167.86 -85494.76 138120.24 -85447.14 138072.62 -85351.9 138072.62 -84542.38 M 137691.67 -84542.38 137025 -85542.38 M 137025 -84542.38 137691.67 -85542.38 M 136882.14 -85637.62 136120.24 -85637.62 M 135929.76 -85494.76 135786.9 -85542.38 135548.81 -85542.38 135453.57 -85494.76 135405.95 -85447.14 135358.33 -85351.9 135358.33 -85256.67 135405.95 -85161.43 135453.57 -85113.81 135548.81 -85066.19 135739.28 -85018.57 135834.52 -84970.95 135882.14 -84923.33 135929.76 -84828.1 135929.76 -84732.86 135882.14 -84637.62 135834.52 -84590 135739.28 -84542.38 135501.19 -84542.38 135358.33 -84590 M 134929.76 -85542.38 134929.76 -84542.38 134691.67 -84542.38 134548.81 -84590 134453.57 -84685.24 134405.95 -84780.48 134358.33 -84970.95 134358.33 -85113.81 134405.95 -85304.29 134453.57 -85399.52 134548.81 -85494.76 134691.67 -85542.38 134929.76 -85542.38 M 133977.38 -85256.67 133501.19 -85256.67 M 134072.62 -85542.38 133739.28 -84542.38 133405.95 -85542.38 M 137786.9 -84542.38 137215.48 -84542.38 M 137501.19 -85542.38 137501.19 -84542.38 M 136882.14 -85542.38 136882.14 -84542.38 136501.19 -84542.38 136405.95 -84590 136358.33 -84637.62 136310.71 -84732.86 136310.71 -84875.71 136358.33 -84970.95 136405.95 -85018.57 136501.19 -85066.19 136882.14 -85066.19 M 135929.76 -84637.62 135882.14 -84590 135786.9 -84542.38 135548.81 -84542.38 135453.57 -84590 135405.95 -84637.62 135358.33 -84732.86 135358.33 -84828.1 135405.95 -84970.95 135977.38 -85542.38 135358.33 -85542.38 M 138310.71 -90098.57 138644.05 -90098.57 M 138644.05 -90622.38 138644.05 -89622.38 138167.86 -89622.38 M 137834.52 -90574.76 137691.67 -90622.38 137453.57 -90622.38 137358.33 -90574.76 137310.71 -90527.14 137263.09 -90431.9 137263.09 -90336.67 137310.71 -90241.43 137358.33 -90193.81 137453.57 -90146.19 137644.05 -90098.57 137739.28 -90050.95 137786.9 -90003.33 137834.52 -89908.1 137834.52 -89812.86 137786.9 -89717.62 137739.28 -89670 137644.05 -89622.38 137405.95 -89622.38 137263.09 -89670 M 136644.05 -90146.19 136644.05 -90622.38 M 136977.38 -89622.38 136644.05 -90146.19 136310.71 -89622.38 M 135977.38 -90622.38 135977.38 -89622.38 135405.95 -90622.38 135405.95 -89622.38 M 134358.33 -90527.14 134405.95 -90574.76 134548.81 -90622.38 134644.05 -90622.38 134786.9 -90574.76 134882.14 -90479.52 134929.76 -90384.29 134977.38 -90193.81 134977.38 -90050.95 134929.76 -89860.48 134882.14 -89765.24 134786.9 -89670 134644.05 -89622.38 134548.81 -89622.38 134405.95 -89670 134358.33 -89717.62 M 137786.9 -89622.38 137215.48 -89622.38 M 137501.19 -90622.38 137501.19 -89622.38 M 136882.14 -90622.38 136882.14 -89622.38 136501.19 -89622.38 136405.95 -89670 136358.33 -89717.62 136310.71 -89812.86 136310.71 -89955.71 136358.33 -90050.95 136405.95 -90098.57 136501.19 -90146.19 136882.14 -90146.19 M 135358.33 -90622.38 135929.76 -90622.38 M 135644.05 -90622.38 135644.05 -89622.38 135739.28 -89765.24 135834.52 -89860.48 135929.76 -89908.1" fill="none" stroke-width="150"/></g><g id="wgG-QLmo3fJr_top_drill3"><path d="M 122555 -113030 A 635 635 0 0 0 121920 -112395 M 121920 -83185 A 635 635 0 0 0 122555 -82550 M 139065 -82550 A 635 635 0 0 0 139700 -83185 M 139700 -112395 A 635 635 0 0 0 139065 -113030 M 139700 -83185 139700 -112395 M 122555 -82550 139065 -82550 M 121920 -112395 121920 -83185 M 139065 -113030 122555 -113030 M 121930 -82710 139700 -82710 139700 -112360 M 139230 -112860 139700 -112360 M 139230 -112860 121930 -112860 121930 -82710 M 126754 -92079 127754 -92079 M 126754 -92579 126754 -92079 M 127754 -92579 126754 -92579 M 127754 -92079 127754 -92579 M 126869 -87511 126869 -88511 M 126369 -87511 126869 -87511 M 126369 -88511 126369 -87511 M 126869 -88511 126369 -88511 M 128139 -87511 128139 -88511 M 127639 -87511 128139 -87511 M 127639 -88511 127639 -87511 M 128139 -88511 127639 -88511 M 126754 -89539 127754 -89539 M 126754 -90039 126754 -89539 M 127754 -90039 126754 -90039 M 127754 -89539 127754 -90039 M 126754 -90809 127754 -90809 M 126754 -91309 126754 -90809 M 127754 -91309 126754 -91309 M 127754 -90809 127754 -91309 M 132580 -92579 131580 -92579 M 132580 -92079 132580 -92579 M 131580 -92079 132580 -92079 M 131580 -92579 131580 -92079" fill="none" stroke-width="100"/><path d="M 129310 -89035 130310 -88035 M 129310 -91035 129310 -89035 M 132310 -91035 129310 -91035 M 132310 -88035 132310 -91035 M 130310 -88035 132310 -88035" fill="none" stroke-width="150"/><path d="M 131110 -110200 130960 -110050 M 132110 -112900 132110 -112500 M 132310 -112500 132110 -112500 M 132310 -110700 132310 -112500 M 132110 -112900 129510 -112900 129510 -112500 M 129310 -112500 129510 -112500 M 129310 -110700 129310 -112500 M 132110 -110700 132110 -110300 M 132310 -110700 132110 -110700 M 131110 -110300 132110 -110300 M 131110 -110200 131110 -110300 M 130510 -110050 130960 -110050 M 130510 -110050 130510 -110300 129510 -110300 M 129510 -110700 129510 -110300 M 129310 -110700 129510 -110700 M 127385 -105395 127885 -105395 127885 -106395 127385 -106395 127385 -105395 M 124845 -92575 124845 -91575 M 125345 -92575 124845 -92575 M 125345 -91575 125345 -92575 M 124845 -91575 125345 -91575 M 124695 -89700 125495 -89700 M 124695 -88100 124695 -89700 M 125195 -88100 124695 -88100 M 125495 -88400 125195 -88100 M 125495 -89700 125495 -88400 M 125330 -106997.5 125330 -105397.5 M 126130 -106997.5 125330 -106997.5 M 126130 -105397.5 126130 -106997.5 M 125330 -105397.5 126130 -105397.5 M 129790 -105760 129290 -105760 129290 -104760 129790 -104760 129790 -105760 M 129290 -106965 129790 -106965 129790 -107965 129290 -107965 129290 -106965 M 131060 -105862.5 131060 -106862.5 M 130560 -105862.5 131060 -105862.5 M 130560 -106862.5 130560 -105862.5 M 131060 -106862.5 130560 -106862.5 M 131795 -108200 130795 -108200 M 131795 -107700 131795 -108200 M 130795 -107700 131795 -107700 M 130795 -108200 130795 -107700 M 131795 -105025 130795 -105025 M 131795 -104525 131795 -105025 M 130795 -104525 131795 -104525 M 130795 -105025 130795 -104525 M 127635 -109415 127635 -122745 M 128445 -109415 127635 -109415 M 128445 -113225 128445 -109415 M 133175 -113225 128445 -113225 M 133175 -109415 133175 -113225 M 133985 -109415 133175 -109415 M 133985 -109415 133985 -122745 M 133975 -122745 127645 -122745 M 131560 -113225 130810 -114225 130060 -113225 M 125960 -93375 125960 -103475 M 135660 -93375 135660 -103475 M 125960 -93375 135660 -93375 M 125960 -103475 135660 -103475 M 126960 -94025 125960 -94375 M 125960 -93675 126960 -94025" fill="none" stroke-width="100"/><path d="M 137242.38 -115291.43 137956.67 -115291.43 138099.52 -115339.05 138194.76 -115434.28 138242.38 -115577.14 138242.38 -115672.38 M 137575.71 -114386.67 138242.38 -114386.67 M 137575.71 -114815.24 138099.52 -114815.24 138194.76 -114767.62 138242.38 -114672.38 138242.38 -114529.52 138194.76 -114434.28 138147.14 -114386.67 M 138242.38 -113910.48 137575.71 -113910.48 M 137670.95 -113910.48 137623.33 -113862.86 137575.71 -113767.62 137575.71 -113624.76 137623.33 -113529.52 137718.57 -113481.9 138242.38 -113481.9 M 137718.57 -113481.9 137623.33 -113434.28 137575.71 -113339.05 137575.71 -113196.19 137623.33 -113100.95 137718.57 -113053.33 138242.38 -113053.33 M 137575.71 -112577.14 138575.71 -112577.14 M 137623.33 -112577.14 137575.71 -112481.9 137575.71 -112291.43 137623.33 -112196.19 137670.95 -112148.57 137766.19 -112100.95 138051.9 -112100.95 138147.14 -112148.57 138194.76 -112196.19 138242.38 -112291.43 138242.38 -112481.9 138194.76 -112577.14 M 138194.76 -111291.43 138242.38 -111386.67 138242.38 -111577.14 138194.76 -111672.38 138099.52 -111720 137718.57 -111720 137623.33 -111672.38 137575.71 -111577.14 137575.71 -111386.67 137623.33 -111291.43 137718.57 -111243.81 137813.81 -111243.81 137909.05 -111720 M 138242.38 -110815.24 137575.71 -110815.24 M 137766.19 -110815.24 137670.95 -110767.62 137623.33 -110720 137575.71 -110624.76 137575.71 -110529.52 M 138337.62 -110434.29 138337.62 -109672.38 M 138242.38 -109434.29 137242.38 -109434.29 138242.38 -108862.86 137242.38 -108862.86 M 138147.14 -107815.24 138194.76 -107862.86 138242.38 -108005.71 138242.38 -108100.95 138194.76 -108243.81 138099.52 -108339.05 138004.28 -108386.67 137813.81 -108434.29 137670.95 -108434.29 137480.48 -108386.67 137385.24 -108339.05 137290 -108243.81 137242.38 -108100.95 137242.38 -108005.71 137290 -107862.86 137337.62 -107815.24 M 138337.62 -107624.76 138337.62 -106862.86 M 138194.76 -106672.38 138242.38 -106529.52 138242.38 -106291.43 138194.76 -106196.19 138147.14 -106148.57 138051.9 -106100.95 137956.67 -106100.95 137861.43 -106148.57 137813.81 -106196.19 137766.19 -106291.43 137718.57 -106481.9 137670.95 -106577.14 137623.33 -106624.76 137528.09 -106672.38 137432.86 -106672.38 137337.62 -106624.76 137290 -106577.14 137242.38 -106481.9 137242.38 -106243.81 137290 -106100.95 M 138242.38 -105672.38 137575.71 -105672.38 M 137670.95 -105672.38 137623.33 -105624.76 137575.71 -105529.52 137575.71 -105386.67 137623.33 -105291.43 137718.57 -105243.81 138242.38 -105243.81 M 137718.57 -105243.81 137623.33 -105196.19 137575.71 -105100.95 137575.71 -104958.1 137623.33 -104862.86 137718.57 -104815.24 138242.38 -104815.24 M 138242.38 -103910.48 137718.57 -103910.48 137623.33 -103958.1 137575.71 -104053.33 137575.71 -104243.81 137623.33 -104339.05 M 138194.76 -103910.48 138242.38 -104005.71 138242.38 -104243.81 138194.76 -104339.05 138099.52 -104386.67 138004.28 -104386.67 137909.05 -104339.05 137861.43 -104243.81 137861.43 -104005.71 137813.81 -103910.48 M 138242.38 -103291.43 138194.76 -103386.67 138099.52 -103434.29 137242.38 -103434.29 M 138242.38 -102767.62 138194.76 -102862.86 138099.52 -102910.48 137242.38 -102910.48 M 137242.38 -111505.24 137956.67 -111505.24 138099.52 -111552.86 138194.76 -111648.1 138242.38 -111790.95 138242.38 -111886.19 M 137575.71 -110600.48 138242.38 -110600.48 M 137575.71 -111029.05 138099.52 -111029.05 138194.76 -110981.43 138242.38 -110886.19 138242.38 -110743.33 138194.76 -110648.1 138147.14 -110600.48 M 138242.38 -110124.29 137575.71 -110124.29 M 137670.95 -110124.29 137623.33 -110076.67 137575.71 -109981.43 137575.71 -109838.57 137623.33 -109743.33 137718.57 -109695.71 138242.38 -109695.71 M 137718.57 -109695.71 137623.33 -109648.1 137575.71 -109552.86 137575.71 -109410 137623.33 -109314.76 137718.57 -109267.14 138242.38 -109267.14 M 137575.71 -108790.95 138575.71 -108790.95 M 137623.33 -108790.95 137575.71 -108695.71 137575.71 -108505.24 137623.33 -108410 137670.95 -108362.38 137766.19 -108314.76 138051.9 -108314.76 138147.14 -108362.38 138194.76 -108410 138242.38 -108505.24 138242.38 -108695.71 138194.76 -108790.95 M 138194.76 -107505.24 138242.38 -107600.48 138242.38 -107790.95 138194.76 -107886.19 138099.52 -107933.81 137718.57 -107933.81 137623.33 -107886.19 137575.71 -107790.95 137575.71 -107600.48 137623.33 -107505.24 137718.57 -107457.62 137813.81 -107457.62 137909.05 -107933.81 M 138242.38 -107029.05 137575.71 -107029.05 M 137766.19 -107029.05 137670.95 -106981.43 137623.33 -106933.81 137575.71 -106838.57 137575.71 -106743.33 M 138337.62 -106648.1 138337.62 -105886.19 M 138242.38 -105648.1 137242.38 -105648.1 138242.38 -105076.67 137242.38 -105076.67 M 137242.38 -104410 137242.38 -104219.52 137290 -104124.29 137385.24 -104029.05 137575.71 -103981.43 137909.05 -103981.43 138099.52 -104029.05 138194.76 -104124.29 138242.38 -104219.52 138242.38 -104410 138194.76 -104505.24 138099.52 -104600.48 137909.05 -104648.1 137575.71 -104648.1 137385.24 -104600.48 137290 -104505.24 137242.38 -104410 M 138337.62 -103790.95 138337.62 -103029.05 M 138194.76 -102838.57 138242.38 -102695.71 138242.38 -102457.62 138194.76 -102362.38 138147.14 -102314.76 138051.9 -102267.14 137956.67 -102267.14 137861.43 -102314.76 137813.81 -102362.38 137766.19 -102457.62 137718.57 -102648.1 137670.95 -102743.33 137623.33 -102790.95 137528.09 -102838.57 137432.86 -102838.57 137337.62 -102790.95 137290 -102743.33 137242.38 -102648.1 137242.38 -102410 137290 -102267.14 M 138242.38 -101838.57 137575.71 -101838.57 M 137670.95 -101838.57 137623.33 -101790.95 137575.71 -101695.71 137575.71 -101552.86 137623.33 -101457.62 137718.57 -101410 138242.38 -101410 M 137718.57 -101410 137623.33 -101362.38 137575.71 -101267.14 137575.71 -101124.29 137623.33 -101029.05 137718.57 -100981.43 138242.38 -100981.43 M 138242.38 -100076.67 137718.57 -100076.67 137623.33 -100124.29 137575.71 -100219.52 137575.71 -100410 137623.33 -100505.24 M 138194.76 -100076.67 138242.38 -100171.9 138242.38 -100410 138194.76 -100505.24 138099.52 -100552.86 138004.28 -100552.86 137909.05 -100505.24 137861.43 -100410 137861.43 -100171.9 137813.81 -100076.67 M 138242.38 -99457.62 138194.76 -99552.86 138099.52 -99600.48 137242.38 -99600.48 M 138242.38 -98933.81 138194.76 -99029.05 138099.52 -99076.67 137242.38 -99076.67 M 136056.67 -112474.28 136056.67 -111998.09 M 136342.38 -112569.52 135342.38 -112236.19 136342.38 -111902.86 M 136342.38 -111045.71 136342.38 -111617.14 M 136342.38 -111331.43 135342.38 -111331.43 135485.24 -111426.67 135580.48 -111521.9 135628.09 -111617.14 M 134806.38 -87661.33 134806.38 -87089.9 M 135806.38 -87375.62 134806.38 -87375.62 M 135758.76 -86375.62 135806.38 -86470.86 135806.38 -86661.33 135758.76 -86756.57 135663.52 -86804.19 135282.57 -86804.19 135187.33 -86756.57 135139.71 -86661.33 135139.71 -86470.86 135187.33 -86375.62 135282.57 -86328 135377.81 -86328 135473.05 -86804.19 M 135758.76 -85947.05 135806.38 -85851.81 135806.38 -85661.33 135758.76 -85566.1 135663.52 -85518.48 135615.9 -85518.48 135520.67 -85566.1 135473.05 -85661.33 135473.05 -85804.19 135425.43 -85899.43 135330.19 -85947.05 135282.57 -85947.05 135187.33 -85899.43 135139.71 -85804.19 135139.71 -85661.33 135187.33 -85566.1 M 135139.71 -85232.76 135139.71 -84851.81 M 134806.38 -85089.9 135663.52 -85089.9 135758.76 -85042.29 135806.38 -84947.05 135806.38 -84851.81 M 135806.38 -84518.48 134806.38 -84518.48 134806.38 -84137.52 134854 -84042.29 134901.62 -83994.67 134996.86 -83947.05 135139.71 -83947.05 135234.95 -83994.67 135282.57 -84042.29 135330.19 -84137.52 135330.19 -84518.48 M 135806.38 -83375.62 135758.76 -83470.86 135711.14 -83518.48 135615.9 -83566.09 135330.19 -83566.09 135234.95 -83518.48 135187.33 -83470.86 135139.71 -83375.62 135139.71 -83232.76 135187.33 -83137.52 135234.95 -83089.9 135330.19 -83042.28 135615.9 -83042.28 135711.14 -83089.9 135758.76 -83137.52 135806.38 -83232.76 135806.38 -83375.62 M 135806.38 -82613.71 135139.71 -82613.71 M 134806.38 -82613.71 134854 -82661.33 134901.62 -82613.71 134854 -82566.09 134806.38 -82613.71 134901.62 -82613.71 M 135139.71 -82137.52 135806.38 -82137.52 M 135234.95 -82137.52 135187.33 -82089.9 135139.71 -81994.67 135139.71 -81851.81 135187.33 -81756.57 135282.57 -81708.95 135806.38 -81708.95 M 135139.71 -81375.62 135139.71 -80994.67 M 134806.38 -81232.76 135663.52 -81232.76 135758.76 -81185.14 135806.38 -81089.9 135806.38 -80994.67 M 131406.38 -85589.9 131406.38 -85018.48 M 132406.38 -85304.19 131406.38 -85304.19 M 132406.38 -84685.14 131406.38 -84685.14 131406.38 -84304.19 131454 -84208.95 131501.62 -84161.33 131596.86 -84113.71 131739.71 -84113.71 131834.95 -84161.33 131882.57 -84208.95 131930.19 -84304.19 131930.19 -84685.14 M 131406.38 -83208.95 131406.38 -83685.14 131882.57 -83732.76 131834.95 -83685.14 131787.33 -83589.9 131787.33 -83351.81 131834.95 -83256.57 131882.57 -83208.95 131977.81 -83161.33 132215.9 -83161.33 132311.14 -83208.95 132358.76 -83256.57 132406.38 -83351.81 132406.38 -83589.9 132358.76 -83685.14 132311.14 -83732.76 M 124301.67 -85657.38 124873.09 -85657.38 M 124587.38 -86657.38 124587.38 -85657.38 M 125587.38 -86609.76 125492.14 -86657.38 125301.67 -86657.38 125206.43 -86609.76 125158.81 -86514.52 125158.81 -86133.57 125206.43 -86038.33 125301.67 -85990.71 125492.14 -85990.71 125587.38 -86038.33 125635 -86133.57 125635 -86228.81 125158.81 -86324.05 M 126015.95 -86609.76 126111.19 -86657.38 126301.67 -86657.38 126396.9 -86609.76 126444.52 -86514.52 126444.52 -86466.9 126396.9 -86371.67 126301.67 -86324.05 126158.81 -86324.05 126063.57 -86276.43 126015.95 -86181.19 126015.95 -86133.57 126063.57 -86038.33 126158.81 -85990.71 126301.67 -85990.71 126396.9 -86038.33 M 126730.24 -85990.71 127111.19 -85990.71 M 126873.09 -85657.38 126873.09 -86514.52 126920.71 -86609.76 127015.95 -86657.38 127111.19 -86657.38 M 127444.52 -86657.38 127444.52 -85657.38 127825.48 -85657.38 127920.71 -85705 127968.33 -85752.62 128015.95 -85847.86 128015.95 -85990.71 127968.33 -86085.95 127920.71 -86133.57 127825.48 -86181.19 127444.52 -86181.19 M 128587.38 -86657.38 128492.14 -86609.76 128444.52 -86562.14 128396.9 -86466.9 128396.9 -86181.19 128444.52 -86085.95 128492.14 -86038.33 128587.38 -85990.71 128730.24 -85990.71 128825.48 -86038.33 128873.09 -86085.95 128920.71 -86181.19 128920.71 -86466.9 128873.09 -86562.14 128825.48 -86609.76 128730.24 -86657.38 128587.38 -86657.38 M 129349.28 -86657.38 129349.28 -85990.71 M 129349.28 -85657.38 129301.67 -85705 129349.28 -85752.62 129396.9 -85705 129349.28 -85657.38 129349.28 -85752.62 M 129825.48 -85990.71 129825.48 -86657.38 M 129825.48 -86085.95 129873.09 -86038.33 129968.33 -85990.71 130111.19 -85990.71 130206.43 -86038.33 130254.05 -86133.57 130254.05 -86657.38 M 130587.38 -85990.71 130968.33 -85990.71 M 130730.24 -85657.38 130730.24 -86514.52 130777.86 -86609.76 130873.09 -86657.38 130968.33 -86657.38 M 126373.09 -82257.38 126944.52 -82257.38 M 126658.81 -83257.38 126658.81 -82257.38 M 127277.86 -83257.38 127277.86 -82257.38 127658.81 -82257.38 127754.05 -82305 127801.67 -82352.62 127849.28 -82447.86 127849.28 -82590.71 127801.67 -82685.95 127754.05 -82733.57 127658.81 -82781.19 127277.86 -82781.19 M 128706.43 -82590.71 128706.43 -83257.38 M 128468.33 -82209.76 128230.24 -82924.05 128849.28 -82924.05 M 126134.95 -92781.38 125563.52 -92781.38 M 125849.24 -92781.38 125849.24 -91781.38 125754 -91924.24 125658.76 -92019.48 125563.52 -92067.1 M 126754 -91781.38 126849.24 -91781.38 126944.48 -91829 126992.09 -91876.62 127039.71 -91971.86 127087.33 -92162.33 127087.33 -92400.43 127039.71 -92590.9 126992.09 -92686.14 126944.48 -92733.76 126849.24 -92781.38 126754 -92781.38 126658.76 -92733.76 126611.14 -92686.14 126563.52 -92590.9 126515.9 -92400.43 126515.9 -92162.33 126563.52 -91971.86 126611.14 -91876.62 126658.76 -91829 126754 -91781.38 M 127706.38 -91781.38 127801.62 -91781.38 127896.86 -91829 127944.48 -91876.62 127992.09 -91971.86 128039.71 -92162.33 128039.71 -92400.43 127992.09 -92590.9 127944.48 -92686.14 127896.86 -92733.76 127801.62 -92781.38 127706.38 -92781.38 127611.14 -92733.76 127563.52 -92686.14 127515.9 -92590.9 127468.28 -92400.43 127468.28 -92162.33 127515.9 -91971.86 127563.52 -91876.62 127611.14 -91829 127706.38 -91781.38 M 128468.28 -92114.71 128468.28 -92781.38 M 128468.28 -92209.95 128515.9 -92162.33 128611.14 -92114.71 128754 -92114.71 128849.24 -92162.33 128896.86 -92257.57 128896.86 -92781.38" fill="none" stroke-width="150"/><path d="M 127212.33 -92418.29 127200.43 -92430.19 127164.71 -92442.1 127140.9 -92442.1 127105.19 -92430.19 127081.38 -92406.38 127069.48 -92382.57 127057.57 -92334.95 127057.57 -92299.24 127069.48 -92251.62 127081.38 -92227.81 127105.19 -92204 127140.9 -92192.1 127164.71 -92192.1 127200.43 -92204 127212.33 -92215.9 M 127355.19 -92299.24 127331.38 -92287.33 127319.48 -92275.43 127307.57 -92251.62 127307.57 -92239.71 127319.48 -92215.9 127331.38 -92204 127355.19 -92192.1 127402.81 -92192.1 127426.62 -92204 127438.52 -92215.9 127450.43 -92239.71 127450.43 -92251.62 127438.52 -92275.43 127426.62 -92287.33 127402.81 -92299.24 127355.19 -92299.24 127331.38 -92311.14 127319.48 -92323.05 127307.57 -92346.86 127307.57 -92394.48 127319.48 -92418.29 127331.38 -92430.19 127355.19 -92442.1 127402.81 -92442.1 127426.62 -92430.19 127438.52 -92418.29 127450.43 -92394.48 127450.43 -92346.86 127438.52 -92323.05 127426.62 -92311.14 127402.81 -92299.24" fill="none" stroke-width="40"/><path d="M 126404.71 -88701.48 127071.38 -88701.48 M 126023.76 -88939.57 126738.05 -89177.67 126738.05 -88558.62 M 127071.38 -88177.67 126071.38 -88177.67 M 126690.43 -88082.43 127071.38 -87796.71 M 126404.71 -87796.71 126785.67 -88177.67 M 126071.38 -87463.38 126071.38 -86796.71 127071.38 -87225.29" fill="none" stroke-width="150"/><path d="M 126732.09 -88052.67 126613.05 -88136 M 126732.09 -88195.52 126482.09 -88195.52 126482.09 -88100.29 126494 -88076.48 126505.9 -88064.57 126529.71 -88052.67 126565.43 -88052.67 126589.24 -88064.57 126601.14 -88076.48 126613.05 -88100.29 126613.05 -88195.52 M 126482.09 -87826.48 126482.09 -87945.52 126601.14 -87957.43 126589.24 -87945.52 126577.33 -87921.71 126577.33 -87862.19 126589.24 -87838.38 126601.14 -87826.48 126624.95 -87814.57 126684.48 -87814.57 126708.28 -87826.48 126720.19 -87838.38 126732.09 -87862.19 126732.09 -87921.71 126720.19 -87945.52 126708.28 -87957.43" fill="none" stroke-width="40"/><path d="M 127674.71 -88701.48 128341.38 -88701.48 M 127293.76 -88939.57 128008.05 -89177.67 128008.05 -88558.62 M 128341.38 -88177.67 127341.38 -88177.67 M 127960.43 -88082.43 128341.38 -87796.71 M 127674.71 -87796.71 128055.67 -88177.67 M 127341.38 -87463.38 127341.38 -86796.71 128341.38 -87225.29" fill="none" stroke-width="150"/><path d="M 128002.09 -88052.67 127883.05 -88136 M 128002.09 -88195.52 127752.09 -88195.52 127752.09 -88100.29 127764 -88076.48 127775.9 -88064.57 127799.71 -88052.67 127835.43 -88052.67 127859.24 -88064.57 127871.14 -88076.48 127883.05 -88100.29 127883.05 -88195.52 M 127835.43 -87838.38 128002.09 -87838.38 M 127740.19 -87897.9 127918.76 -87957.43 127918.76 -87802.67" fill="none" stroke-width="40"/><path d="M 126134.95 -90241.38 125563.52 -90241.38 M 125849.24 -90241.38 125849.24 -89241.38 125754 -89384.24 125658.76 -89479.48 125563.52 -89527.1 M 126754 -89241.38 126849.24 -89241.38 126944.48 -89289 126992.09 -89336.62 127039.71 -89431.86 127087.33 -89622.33 127087.33 -89860.43 127039.71 -90050.9 126992.09 -90146.14 126944.48 -90193.76 126849.24 -90241.38 126754 -90241.38 126658.76 -90193.76 126611.14 -90146.14 126563.52 -90050.9 126515.9 -89860.43 126515.9 -89622.33 126563.52 -89431.86 126611.14 -89336.62 126658.76 -89289 126754 -89241.38 M 127706.38 -89241.38 127801.62 -89241.38 127896.86 -89289 127944.48 -89336.62 127992.09 -89431.86 128039.71 -89622.33 128039.71 -89860.43 127992.09 -90050.9 127944.48 -90146.14 127896.86 -90193.76 127801.62 -90241.38 127706.38 -90241.38 127611.14 -90193.76 127563.52 -90146.14 127515.9 -90050.9 127468.28 -89860.43 127468.28 -89622.33 127515.9 -89431.86 127563.52 -89336.62 127611.14 -89289 127706.38 -89241.38 M 128468.28 -89574.71 128468.28 -90241.38 M 128468.28 -89669.95 128515.9 -89622.33 128611.14 -89574.71 128754 -89574.71 128849.24 -89622.33 128896.86 -89717.57 128896.86 -90241.38" fill="none" stroke-width="150"/><path d="M 127212.33 -89878.29 127200.43 -89890.19 127164.71 -89902.1 127140.9 -89902.1 127105.19 -89890.19 127081.38 -89866.38 127069.48 -89842.57 127057.57 -89794.95 127057.57 -89759.24 127069.48 -89711.62 127081.38 -89687.81 127105.19 -89664 127140.9 -89652.1 127164.71 -89652.1 127200.43 -89664 127212.33 -89675.9 M 127295.67 -89652.1 127462.33 -89652.1 127355.19 -89902.1" fill="none" stroke-width="40"/><path d="M 126611.14 -91511.38 126039.71 -91511.38 M 126325.43 -91511.38 126325.43 -90511.38 126230.19 -90654.24 126134.95 -90749.48 126039.71 -90797.1 M 127230.19 -90511.38 127325.43 -90511.38 127420.67 -90559 127468.28 -90606.62 127515.9 -90701.86 127563.52 -90892.33 127563.52 -91130.43 127515.9 -91320.9 127468.28 -91416.14 127420.67 -91463.76 127325.43 -91511.38 127230.19 -91511.38 127134.95 -91463.76 127087.33 -91416.14 127039.71 -91320.9 126992.09 -91130.43 126992.09 -90892.33 127039.71 -90701.86 127087.33 -90606.62 127134.95 -90559 127230.19 -90511.38 M 127992.09 -90844.71 127992.09 -91511.38 M 127992.09 -90939.95 128039.71 -90892.33 128134.95 -90844.71 128277.81 -90844.71 128373.05 -90892.33 128420.67 -90987.57 128420.67 -91511.38" fill="none" stroke-width="150"/><path d="M 127212.33 -91148.29 127200.43 -91160.19 127164.71 -91172.1 127140.9 -91172.1 127105.19 -91160.19 127081.38 -91136.38 127069.48 -91112.57 127057.57 -91064.95 127057.57 -91029.24 127069.48 -90981.62 127081.38 -90957.81 127105.19 -90934 127140.9 -90922.1 127164.71 -90922.1 127200.43 -90934 127212.33 -90945.9 M 127426.62 -90922.1 127379 -90922.1 127355.19 -90934 127343.28 -90945.9 127319.48 -90981.62 127307.57 -91029.24 127307.57 -91124.48 127319.48 -91148.29 127331.38 -91160.19 127355.19 -91172.1 127402.81 -91172.1 127426.62 -91160.19 127438.52 -91148.29 127450.43 -91124.48 127450.43 -91064.95 127438.52 -91041.14 127426.62 -91029.24 127402.81 -91017.33 127355.19 -91017.33 127331.38 -91029.24 127319.48 -91041.14 127307.57 -91064.95" fill="none" stroke-width="40"/><path d="M 130960.95 -92781.38 130389.52 -92781.38 M 130675.24 -92781.38 130675.24 -91781.38 130580 -91924.24 130484.76 -92019.48 130389.52 -92067.1 M 131580 -91781.38 131675.24 -91781.38 131770.48 -91829 131818.09 -91876.62 131865.71 -91971.86 131913.33 -92162.33 131913.33 -92400.43 131865.71 -92590.9 131818.09 -92686.14 131770.48 -92733.76 131675.24 -92781.38 131580 -92781.38 131484.76 -92733.76 131437.14 -92686.14 131389.52 -92590.9 131341.9 -92400.43 131341.9 -92162.33 131389.52 -91971.86 131437.14 -91876.62 131484.76 -91829 131580 -91781.38 M 132532.38 -91781.38 132627.62 -91781.38 132722.86 -91829 132770.48 -91876.62 132818.09 -91971.86 132865.71 -92162.33 132865.71 -92400.43 132818.09 -92590.9 132770.48 -92686.14 132722.86 -92733.76 132627.62 -92781.38 132532.38 -92781.38 132437.14 -92733.76 132389.52 -92686.14 132341.9 -92590.9 132294.28 -92400.43 132294.28 -92162.33 132341.9 -91971.86 132389.52 -91876.62 132437.14 -91829 132532.38 -91781.38 M 133294.28 -92114.71 133294.28 -92781.38 M 133294.28 -92209.95 133341.9 -92162.33 133437.14 -92114.71 133580 -92114.71 133675.24 -92162.33 133722.86 -92257.57 133722.86 -92781.38" fill="none" stroke-width="150"/><path d="M 132038.33 -92418.29 132026.43 -92430.19 131990.71 -92442.1 131966.9 -92442.1 131931.19 -92430.19 131907.38 -92406.38 131895.48 -92382.57 131883.57 -92334.95 131883.57 -92299.24 131895.48 -92251.62 131907.38 -92227.81 131931.19 -92204 131966.9 -92192.1 131990.71 -92192.1 132026.43 -92204 132038.33 -92215.9 M 132252.62 -92275.43 132252.62 -92442.1 M 132193.09 -92180.19 132133.57 -92358.76 132288.33 -92358.76" fill="none" stroke-width="40"/><path d="M 126929.05 -89987.38 126929.05 -88987.38 127262.38 -89701.67 127595.71 -88987.38 127595.71 -89987.38 M 128071.9 -89987.38 128071.9 -88987.38 128452.86 -88987.38 128548.09 -89035 128595.71 -89082.62 128643.33 -89177.86 128643.33 -89320.71 128595.71 -89415.95 128548.09 -89463.57 128452.86 -89511.19 128071.9 -89511.19 M 129071.9 -88987.38 129071.9 -89796.9 129119.52 -89892.14 129167.14 -89939.76 129262.38 -89987.38 129452.86 -89987.38 129548.09 -89939.76 129595.71 -89892.14 129643.33 -89796.9 129643.33 -88987.38 M 130119.52 -89606.43 130881.43 -89606.43 M 131405.24 -89987.38 131595.71 -89987.38 131690.95 -89939.76 131738.57 -89892.14 131833.81 -89749.29 131881.43 -89558.81 131881.43 -89177.86 131833.81 -89082.62 131786.19 -89035 131690.95 -88987.38 131500.48 -88987.38 131405.24 -89035 131357.62 -89082.62 131310 -89177.86 131310 -89415.95 131357.62 -89511.19 131405.24 -89558.81 131500.48 -89606.43 131690.95 -89606.43 131786.19 -89558.81 131833.81 -89511.19 131881.43 -89415.95 M 132262.38 -89082.62 132310 -89035 132405.24 -88987.38 132643.33 -88987.38 132738.57 -89035 132786.19 -89082.62 132833.81 -89177.86 132833.81 -89273.1 132786.19 -89415.95 132214.76 -89987.38 132833.81 -89987.38 M 133738.57 -88987.38 133262.38 -88987.38 133214.76 -89463.57 133262.38 -89415.95 133357.62 -89368.33 133595.71 -89368.33 133690.95 -89415.95 133738.57 -89463.57 133786.19 -89558.81 133786.19 -89796.9 133738.57 -89892.14 133690.95 -89939.76 133595.71 -89987.38 133357.62 -89987.38 133262.38 -89939.76 133214.76 -89892.14 M 134405.24 -88987.38 134500.48 -88987.38 134595.71 -89035 134643.33 -89082.62 134690.95 -89177.86 134738.57 -89368.33 134738.57 -89606.43 134690.95 -89796.9 134643.33 -89892.14 134595.71 -89939.76 134500.48 -89987.38 134405.24 -89987.38 134310 -89939.76 134262.38 -89892.14 134214.76 -89796.9 134167.14 -89606.43 134167.14 -89368.33 134214.76 -89177.86 134262.38 -89082.62 134310 -89035 134405.24 -88987.38" fill="none" stroke-width="150"/><path d="M 130276.67 -89151.67 130276.67 -89718.33 130310 -89785 130343.33 -89818.33 130410 -89851.67 130543.33 -89851.67 130610 -89818.33 130643.33 -89785 130676.67 -89718.33 130676.67 -89151.67 M 130976.67 -89218.33 131010 -89185 131076.67 -89151.67 131243.33 -89151.67 131310 -89185 131343.33 -89218.33 131376.67 -89285 131376.67 -89351.67 131343.33 -89451.67 130943.33 -89851.67 131376.67 -89851.67" fill="none" stroke-width="105"/><path d="M 127278.81 -89304.76 127421.67 -89352.38 127659.76 -89352.38 127755 -89304.76 127802.62 -89257.14 127850.24 -89161.9 127850.24 -89066.67 127802.62 -88971.43 127755 -88923.81 127659.76 -88876.19 127469.28 -88828.57 127374.05 -88780.95 127326.43 -88733.33 127278.81 -88638.1 127278.81 -88542.86 127326.43 -88447.62 127374.05 -88400 127469.28 -88352.38 127707.38 -88352.38 127850.24 -88400 M 128421.67 -89352.38 128326.43 -89304.76 128278.81 -89257.14 128231.19 -89161.9 128231.19 -88876.19 128278.81 -88780.95 128326.43 -88733.33 128421.67 -88685.71 128564.52 -88685.71 128659.76 -88733.33 128707.38 -88780.95 128755 -88876.19 128755 -89161.9 128707.38 -89257.14 128659.76 -89304.76 128564.52 -89352.38 128421.67 -89352.38 M 129326.43 -89352.38 129231.19 -89304.76 129183.57 -89209.52 129183.57 -88352.38 M 130135.95 -89352.38 130135.95 -88352.38 M 130135.95 -89304.76 130040.71 -89352.38 129850.24 -89352.38 129755 -89304.76 129707.38 -89257.14 129659.76 -89161.9 129659.76 -88876.19 129707.38 -88780.95 129755 -88733.33 129850.24 -88685.71 130040.71 -88685.71 130135.95 -88733.33 M 130993.09 -89304.76 130897.86 -89352.38 130707.38 -89352.38 130612.14 -89304.76 130564.52 -89209.52 130564.52 -88828.57 130612.14 -88733.33 130707.38 -88685.71 130897.86 -88685.71 130993.09 -88733.33 131040.71 -88828.57 131040.71 -88923.81 130564.52 -89019.05 M 131469.28 -89352.38 131469.28 -88685.71 M 131469.28 -88876.19 131516.9 -88780.95 131564.52 -88733.33 131659.76 -88685.71 131755 -88685.71 M 132374.05 -88352.38 132374.05 -89066.67 132326.43 -89209.52 132231.19 -89304.76 132088.33 -89352.38 131993.09 -89352.38 M 133278.81 -88685.71 133278.81 -89352.38 M 132850.24 -88685.71 132850.24 -89209.52 132897.86 -89304.76 132993.09 -89352.38 133135.95 -89352.38 133231.19 -89304.76 133278.81 -89257.14 M 133755 -89352.38 133755 -88685.71 M 133755 -88780.95 133802.62 -88733.33 133897.86 -88685.71 134040.71 -88685.71 134135.95 -88733.33 134183.57 -88828.57 134183.57 -89352.38 M 134183.57 -88828.57 134231.19 -88733.33 134326.43 -88685.71 134469.28 -88685.71 134564.52 -88733.33 134612.14 -88828.57 134612.14 -89352.38 M 135088.33 -88685.71 135088.33 -89685.71 M 135088.33 -88733.33 135183.57 -88685.71 135374.05 -88685.71 135469.28 -88733.33 135516.9 -88780.95 135564.52 -88876.19 135564.52 -89161.9 135516.9 -89257.14 135469.28 -89304.76 135374.05 -89352.38 135183.57 -89352.38 135088.33 -89304.76 M 136374.05 -89304.76 136278.81 -89352.38 136088.33 -89352.38 135993.09 -89304.76 135945.48 -89209.52 135945.48 -88828.57 135993.09 -88733.33 136088.33 -88685.71 136278.81 -88685.71 136374.05 -88733.33 136421.67 -88828.57 136421.67 -88923.81 135945.48 -89019.05 M 136850.24 -89352.38 136850.24 -88685.71 M 136850.24 -88876.19 136897.86 -88780.95 136945.48 -88733.33 137040.71 -88685.71 137135.95 -88685.71 M 137231.19 -89447.62 137993.09 -89447.62 M 138183.57 -88447.62 138231.19 -88400 138326.43 -88352.38 138564.52 -88352.38 138659.76 -88400 138707.38 -88447.62 138755 -88542.86 138755 -88638.1 138707.38 -88780.95 138135.95 -89352.38 138755 -89352.38 M 138945.48 -89447.62 139707.38 -89447.62 M 140135.95 -88352.38 140326.43 -88352.38 140421.67 -88400 140516.9 -88495.24 140564.52 -88685.71 140564.52 -89019.05 140516.9 -89209.52 140421.67 -89304.76 140326.43 -89352.38 140135.95 -89352.38 140040.71 -89304.76 139945.48 -89209.52 139897.86 -89019.05 139897.86 -88685.71 139945.48 -88495.24 140040.71 -88400 140135.95 -88352.38 M 140993.09 -88685.71 140993.09 -89685.71 M 140993.09 -88733.33 141088.33 -88685.71 141278.81 -88685.71 141374.05 -88733.33 141421.67 -88780.95 141469.28 -88876.19 141469.28 -89161.9 141421.67 -89257.14 141374.05 -89304.76 141278.81 -89352.38 141088.33 -89352.38 140993.09 -89304.76 M 142278.81 -89304.76 142183.57 -89352.38 141993.09 -89352.38 141897.86 -89304.76 141850.24 -89209.52 141850.24 -88828.57 141897.86 -88733.33 141993.09 -88685.71 142183.57 -88685.71 142278.81 -88733.33 142326.43 -88828.57 142326.43 -88923.81 141850.24 -89019.05 M 142755 -88685.71 142755 -89352.38 M 142755 -88780.95 142802.62 -88733.33 142897.86 -88685.71 143040.71 -88685.71 143135.95 -88733.33 143183.57 -88828.57 143183.57 -89352.38 M 125515.71 -111109.05 126182.38 -111109.05 M 125515.71 -111537.62 126039.52 -111537.62 126134.76 -111490 126182.38 -111394.76 126182.38 -111251.9 126134.76 -111156.67 126087.14 -111109.05 M 125658.57 -110299.52 125658.57 -110632.86 M 126182.38 -110632.86 125182.38 -110632.86 125182.38 -110156.67 M 126182.38 -109299.52 126182.38 -109775.71 125182.38 -109775.71" fill="none" stroke-width="150"/><path d="M 130610 -111271.43 130610 -111700 130581.43 -111785.71 130524.28 -111842.86 130438.57 -111871.43 130381.43 -111871.43 M 131210 -111871.43 130867.14 -111871.43 M 131038.57 -111871.43 131038.57 -111271.43 130981.43 -111357.14 130924.28 -111414.29 130867.14 -111442.86" fill="none" stroke-width="90"/><path d="M 128087.38 -107442.62 128087.38 -108014.05 M 128087.38 -107728.33 127087.38 -107728.33 127230.24 -107823.57 127325.48 -107918.81 127373.09 -108014.05 M 127087.38 -106823.57 127087.38 -106728.33 127135 -106633.1 127182.62 -106585.48 127277.86 -106537.86 127468.33 -106490.24 127706.43 -106490.24 127896.9 -106537.86 127992.14 -106585.48 128039.76 -106633.1 128087.38 -106728.33 128087.38 -106823.57 128039.76 -106918.81 127992.14 -106966.43 127896.9 -107014.05 127706.43 -107061.67 127468.33 -107061.67 127277.86 -107014.05 127182.62 -106966.43 127135 -106918.81 127087.38 -106823.57 M 127087.38 -105871.19 127087.38 -105775.95 127135 -105680.71 127182.62 -105633.1 127277.86 -105585.48 127468.33 -105537.86 127706.43 -105537.86 127896.9 -105585.48 127992.14 -105633.1 128039.76 -105680.71 128087.38 -105775.95 128087.38 -105871.19 128039.76 -105966.43 127992.14 -106014.05 127896.9 -106061.67 127706.43 -106109.29 127468.33 -106109.29 127277.86 -106061.67 127182.62 -106014.05 127135 -105966.43 127087.38 -105871.19 M 127420.71 -105109.29 128087.38 -105109.29 M 127515.95 -105109.29 127468.33 -105061.67 127420.71 -104966.43 127420.71 -104823.57 127468.33 -104728.33 127563.57 -104680.71 128087.38 -104680.71 M 127563.57 -103871.19 127563.57 -104204.52 M 128087.38 -104204.52 127087.38 -104204.52 127087.38 -103728.33" fill="none" stroke-width="150"/><path d="M 127724.28 -105936.67 127736.19 -105948.57 127748.09 -105984.29 127748.09 -106008.1 127736.19 -106043.81 127712.38 -106067.62 127688.57 -106079.52 127640.95 -106091.43 127605.24 -106091.43 127557.62 -106079.52 127533.81 -106067.62 127510 -106043.81 127498.09 -106008.1 127498.09 -105984.29 127510 -105948.57 127521.9 -105936.67 M 127521.9 -105841.43 127510 -105829.52 127498.09 -105805.71 127498.09 -105746.19 127510 -105722.38 127521.9 -105710.48 127545.71 -105698.57 127569.52 -105698.57 127605.24 -105710.48 127748.09 -105853.33 127748.09 -105698.57" fill="none" stroke-width="40"/><path d="M 125547.38 -92194.05 125547.38 -92765.48 M 125547.38 -92479.76 124547.38 -92479.76 124690.24 -92575 124785.48 -92670.24 124833.09 -92765.48 M 125547.38 -91765.48 124547.38 -91765.48 M 125166.43 -91670.24 125547.38 -91384.52 M 124880.71 -91384.52 125261.67 -91765.48" fill="none" stroke-width="150"/><path d="M 125208.09 -92116.67 125089.05 -92200 M 125208.09 -92259.52 124958.09 -92259.52 124958.09 -92164.29 124970 -92140.48 124981.9 -92128.57 125005.71 -92116.67 125041.43 -92116.67 125065.24 -92128.57 125077.14 -92140.48 125089.05 -92164.29 125089.05 -92259.52 M 125208.09 -91878.57 125208.09 -92021.43 M 125208.09 -91950 124958.09 -91950 124993.81 -91973.81 125017.62 -91997.62 125029.52 -92021.43" fill="none" stroke-width="40"/><path d="M 127278.81 -91844.76 127421.67 -91892.38 127659.76 -91892.38 127755 -91844.76 127802.62 -91797.14 127850.24 -91701.9 127850.24 -91606.67 127802.62 -91511.43 127755 -91463.81 127659.76 -91416.19 127469.28 -91368.57 127374.05 -91320.95 127326.43 -91273.33 127278.81 -91178.1 127278.81 -91082.86 127326.43 -90987.62 127374.05 -90940 127469.28 -90892.38 127707.38 -90892.38 127850.24 -90940 M 128421.67 -91892.38 128326.43 -91844.76 128278.81 -91797.14 128231.19 -91701.9 128231.19 -91416.19 128278.81 -91320.95 128326.43 -91273.33 128421.67 -91225.71 128564.52 -91225.71 128659.76 -91273.33 128707.38 -91320.95 128755 -91416.19 128755 -91701.9 128707.38 -91797.14 128659.76 -91844.76 128564.52 -91892.38 128421.67 -91892.38 M 129326.43 -91892.38 129231.19 -91844.76 129183.57 -91749.52 129183.57 -90892.38 M 130135.95 -91892.38 130135.95 -90892.38 M 130135.95 -91844.76 130040.71 -91892.38 129850.24 -91892.38 129755 -91844.76 129707.38 -91797.14 129659.76 -91701.9 129659.76 -91416.19 129707.38 -91320.95 129755 -91273.33 129850.24 -91225.71 130040.71 -91225.71 130135.95 -91273.33 M 130993.09 -91844.76 130897.86 -91892.38 130707.38 -91892.38 130612.14 -91844.76 130564.52 -91749.52 130564.52 -91368.57 130612.14 -91273.33 130707.38 -91225.71 130897.86 -91225.71 130993.09 -91273.33 131040.71 -91368.57 131040.71 -91463.81 130564.52 -91559.05 M 131469.28 -91892.38 131469.28 -91225.71 M 131469.28 -91416.19 131516.9 -91320.95 131564.52 -91273.33 131659.76 -91225.71 131755 -91225.71 M 132374.05 -90892.38 132374.05 -91606.67 132326.43 -91749.52 132231.19 -91844.76 132088.33 -91892.38 131993.09 -91892.38 M 133278.81 -91225.71 133278.81 -91892.38 M 132850.24 -91225.71 132850.24 -91749.52 132897.86 -91844.76 132993.09 -91892.38 133135.95 -91892.38 133231.19 -91844.76 133278.81 -91797.14 M 133755 -91892.38 133755 -91225.71 M 133755 -91320.95 133802.62 -91273.33 133897.86 -91225.71 134040.71 -91225.71 134135.95 -91273.33 134183.57 -91368.57 134183.57 -91892.38 M 134183.57 -91368.57 134231.19 -91273.33 134326.43 -91225.71 134469.28 -91225.71 134564.52 -91273.33 134612.14 -91368.57 134612.14 -91892.38 M 135088.33 -91225.71 135088.33 -92225.71 M 135088.33 -91273.33 135183.57 -91225.71 135374.05 -91225.71 135469.28 -91273.33 135516.9 -91320.95 135564.52 -91416.19 135564.52 -91701.9 135516.9 -91797.14 135469.28 -91844.76 135374.05 -91892.38 135183.57 -91892.38 135088.33 -91844.76 M 136374.05 -91844.76 136278.81 -91892.38 136088.33 -91892.38 135993.09 -91844.76 135945.48 -91749.52 135945.48 -91368.57 135993.09 -91273.33 136088.33 -91225.71 136278.81 -91225.71 136374.05 -91273.33 136421.67 -91368.57 136421.67 -91463.81 135945.48 -91559.05 M 136850.24 -91892.38 136850.24 -91225.71 M 136850.24 -91416.19 136897.86 -91320.95 136945.48 -91273.33 137040.71 -91225.71 137135.95 -91225.71 M 137231.19 -91987.62 137993.09 -91987.62 M 138183.57 -90987.62 138231.19 -90940 138326.43 -90892.38 138564.52 -90892.38 138659.76 -90940 138707.38 -90987.62 138755 -91082.86 138755 -91178.1 138707.38 -91320.95 138135.95 -91892.38 138755 -91892.38 M 138945.48 -91987.62 139707.38 -91987.62 M 140135.95 -90892.38 140326.43 -90892.38 140421.67 -90940 140516.9 -91035.24 140564.52 -91225.71 140564.52 -91559.05 140516.9 -91749.52 140421.67 -91844.76 140326.43 -91892.38 140135.95 -91892.38 140040.71 -91844.76 139945.48 -91749.52 139897.86 -91559.05 139897.86 -91225.71 139945.48 -91035.24 140040.71 -90940 140135.95 -90892.38 M 140993.09 -91225.71 140993.09 -92225.71 M 140993.09 -91273.33 141088.33 -91225.71 141278.81 -91225.71 141374.05 -91273.33 141421.67 -91320.95 141469.28 -91416.19 141469.28 -91701.9 141421.67 -91797.14 141374.05 -91844.76 141278.81 -91892.38 141088.33 -91892.38 140993.09 -91844.76 M 142278.81 -91844.76 142183.57 -91892.38 141993.09 -91892.38 141897.86 -91844.76 141850.24 -91749.52 141850.24 -91368.57 141897.86 -91273.33 141993.09 -91225.71 142183.57 -91225.71 142278.81 -91273.33 142326.43 -91368.57 142326.43 -91463.81 141850.24 -91559.05 M 142755 -91225.71 142755 -91892.38 M 142755 -91320.95 142802.62 -91273.33 142897.86 -91225.71 143040.71 -91225.71 143135.95 -91273.33 143183.57 -91368.57 143183.57 -91892.38 M 125547.38 -89542.86 125547.38 -90019.05 124547.38 -90019.05 M 125023.57 -89209.52 125023.57 -88876.19 M 125547.38 -88733.33 125547.38 -89209.52 124547.38 -89209.52 124547.38 -88733.33 M 125547.38 -88304.76 124547.38 -88304.76 124547.38 -88066.67 124595 -87923.81 124690.24 -87828.57 124785.48 -87780.95 124975.95 -87733.33 125118.81 -87733.33 125309.28 -87780.95 125404.52 -87828.57 125499.76 -87923.81 125547.38 -88066.67 125547.38 -88304.76" fill="none" stroke-width="150"/><path d="M 125275.95 -89195.24 124875.95 -89195.24 124875.95 -89100 124895 -89042.86 124933.09 -89004.76 124971.19 -88985.71 125047.38 -88966.67 125104.52 -88966.67 125180.71 -88985.71 125218.81 -89004.76 125256.9 -89042.86 125275.95 -89100 125275.95 -89195.24 M 125275.95 -88585.71 125275.95 -88814.29 M 125275.95 -88700 124875.95 -88700 124933.09 -88738.1 124971.19 -88776.19 124990.24 -88814.29" fill="none" stroke-width="60"/><path d="M 125515.71 -107245.12 126182.38 -107245.12 M 125134.76 -107483.21 125849.05 -107721.31 125849.05 -107102.26 M 126134.76 -106673.69 126182.38 -106673.69 126277.62 -106721.31 126325.24 -106768.93 M 125182.38 -106340.36 125182.38 -105673.69 126182.38 -106102.26 M 125515.71 -105292.74 126515.71 -105292.74 M 126039.52 -104816.55 126134.76 -104768.93 126182.38 -104673.69 M 126039.52 -105292.74 126134.76 -105245.12 126182.38 -105149.88 126182.38 -104959.4 126134.76 -104864.17 126039.52 -104816.55 125515.71 -104816.55" fill="none" stroke-width="150"/><path d="M 125872.86 -106264.17 125891.9 -106283.21 125910.95 -106340.36 125910.95 -106378.45 125891.9 -106435.6 125853.81 -106473.69 125815.71 -106492.74 125739.52 -106511.79 125682.38 -106511.79 125606.19 -106492.74 125568.09 -106473.69 125530 -106435.6 125510.95 -106378.45 125510.95 -106340.36 125530 -106283.21 125549.05 -106264.17 M 125910.95 -105883.21 125910.95 -106111.79 M 125910.95 -105997.5 125510.95 -105997.5 125568.09 -106035.6 125606.19 -106073.69 125625.24 -106111.79" fill="none" stroke-width="60"/><path d="M 129992.38 -105450.48 129992.38 -106021.9 M 129992.38 -105736.19 128992.38 -105736.19 129135.24 -105831.43 129230.48 -105926.67 129278.09 -106021.9 M 128992.38 -104831.43 128992.38 -104736.19 129040 -104640.95 129087.62 -104593.33 129182.86 -104545.71 129373.33 -104498.1 129611.43 -104498.1 129801.9 -104545.71 129897.14 -104593.33 129944.76 -104640.95 129992.38 -104736.19 129992.38 -104831.43 129944.76 -104926.67 129897.14 -104974.29 129801.9 -105021.9 129611.43 -105069.52 129373.33 -105069.52 129182.86 -105021.9 129087.62 -104974.29 129040 -104926.67 128992.38 -104831.43" fill="none" stroke-width="150"/><path d="M 129653.09 -105301.67 129534.05 -105385 M 129653.09 -105444.52 129403.09 -105444.52 129403.09 -105349.29 129415 -105325.48 129426.9 -105313.57 129450.71 -105301.67 129486.43 -105301.67 129510.24 -105313.57 129522.14 -105325.48 129534.05 -105349.29 129534.05 -105444.52 M 129426.9 -105206.43 129415 -105194.52 129403.09 -105170.71 129403.09 -105111.19 129415 -105087.38 129426.9 -105075.48 129450.71 -105063.57 129474.52 -105063.57 129510.24 -105075.48 129653.09 -105218.33 129653.09 -105063.57" fill="none" stroke-width="40"/><path d="M 129087.62 -108679.29 129040 -108631.67 128992.38 -108536.43 128992.38 -108298.33 129040 -108203.1 129087.62 -108155.48 129182.86 -108107.86 129278.09 -108107.86 129420.95 -108155.48 129992.38 -108726.9 129992.38 -108107.86 M 128992.38 -107774.52 128992.38 -107107.86 129992.38 -107536.43 M 129325.71 -106726.9 129992.38 -106726.9 M 129420.95 -106726.9 129373.33 -106679.29 129325.71 -106584.05 129325.71 -106441.19 129373.33 -106345.95 129468.57 -106298.33 129992.38 -106298.33" fill="none" stroke-width="150"/><path d="M 129653.09 -107506.67 129653.09 -107625.71 129403.09 -107625.71 M 129653.09 -107292.38 129653.09 -107435.24 M 129653.09 -107363.81 129403.09 -107363.81 129438.81 -107387.62 129462.62 -107411.43 129474.52 -107435.24" fill="none" stroke-width="40"/><path d="M 130262.38 -106410.12 130262.38 -106314.88 130310 -106219.64 130357.62 -106172.02 130452.86 -106124.4 130643.33 -106076.79 130881.43 -106076.79 131071.9 -106124.4 131167.14 -106172.02 131214.76 -106219.64 131262.38 -106314.88 131262.38 -106410.12 131214.76 -106505.36 131167.14 -106552.98 131071.9 -106600.6 130881.43 -106648.21 130643.33 -106648.21 130452.86 -106600.6 130357.62 -106552.98 130310 -106505.36 130262.38 -106410.12" fill="none" stroke-width="150"/><path d="M 130923.09 -106404.17 130804.05 -106487.5 M 130923.09 -106547.02 130673.09 -106547.02 130673.09 -106451.79 130685 -106427.98 130696.9 -106416.07 130720.71 -106404.17 130756.43 -106404.17 130780.24 -106416.07 130792.14 -106427.98 130804.05 -106451.79 130804.05 -106547.02 M 130673.09 -106320.83 130673.09 -106166.07 130768.33 -106249.4 130768.33 -106213.69 130780.24 -106189.88 130792.14 -106177.98 130815.95 -106166.07 130875.48 -106166.07 130899.28 -106177.98 130911.19 -106189.88 130923.09 -106213.69 130923.09 -106285.12 130911.19 -106308.93 130899.28 -106320.83 M 131253.33 -108039.29 131241.43 -108051.19 131205.71 -108063.1 131181.9 -108063.1 131146.19 -108051.19 131122.38 -108027.38 131110.48 -108003.57 131098.57 -107955.95 131098.57 -107920.24 131110.48 -107872.62 131122.38 -107848.81 131146.19 -107825 131181.9 -107813.1 131205.71 -107813.1 131241.43 -107825 131253.33 -107836.9 M 131479.52 -107813.1 131360.48 -107813.1 131348.57 -107932.14 131360.48 -107920.24 131384.28 -107908.33 131443.81 -107908.33 131467.62 -107920.24 131479.52 -107932.14 131491.43 -107955.95 131491.43 -108015.48 131479.52 -108039.29 131467.62 -108051.19 131443.81 -108063.1 131384.28 -108063.1 131360.48 -108051.19 131348.57 -108039.29 M 131253.33 -104864.29 131241.43 -104876.19 131205.71 -104888.1 131181.9 -104888.1 131146.19 -104876.19 131122.38 -104852.38 131110.48 -104828.57 131098.57 -104780.95 131098.57 -104745.24 131110.48 -104697.62 131122.38 -104673.81 131146.19 -104650 131181.9 -104638.1 131205.71 -104638.1 131241.43 -104650 131253.33 -104661.9 M 131336.67 -104638.1 131491.43 -104638.1 131408.09 -104733.33 131443.81 -104733.33 131467.62 -104745.24 131479.52 -104757.14 131491.43 -104780.95 131491.43 -104840.48 131479.52 -104864.29 131467.62 -104876.19 131443.81 -104888.1 131372.38 -104888.1 131348.57 -104876.19 131336.67 -104864.29" fill="none" stroke-width="40"/><path d="M 126087.14 -111490 126134.76 -111537.62 126182.38 -111680.48 126182.38 -111775.71 126134.76 -111918.57 126039.52 -112013.81 125944.28 -112061.43 125753.81 -112109.05 125610.95 -112109.05 125420.48 -112061.43 125325.24 -112013.81 125230 -111918.57 125182.38 -111775.71 125182.38 -111680.48 125230 -111537.62 125277.62 -111490 M 126182.38 -110918.57 126134.76 -111013.81 126087.14 -111061.43 125991.9 -111109.05 125706.19 -111109.05 125610.95 -111061.43 125563.33 -111013.81 125515.71 -110918.57 125515.71 -110775.71 125563.33 -110680.48 125610.95 -110632.86 125706.19 -110585.24 125991.9 -110585.24 126087.14 -110632.86 126134.76 -110680.48 126182.38 -110775.71 126182.38 -110918.57 M 126182.38 -109728.1 125658.57 -109728.1 125563.33 -109775.71 125515.71 -109870.95 125515.71 -110061.43 125563.33 -110156.67 M 126134.76 -109728.1 126182.38 -109823.33 126182.38 -110061.43 126134.76 -110156.67 126039.52 -110204.29 125944.28 -110204.29 125849.05 -110156.67 125801.43 -110061.43 125801.43 -109823.33 125753.81 -109728.1 M 126182.38 -109347.14 125515.71 -108823.33 M 125515.71 -109347.14 126182.38 -108823.33 M 135342.38 -110188.33 136056.67 -110188.33 136199.52 -110235.95 136294.76 -110331.19 136342.38 -110474.05 136342.38 -110569.29 M 135437.62 -109759.76 135390 -109712.14 135342.38 -109616.9 135342.38 -109378.81 135390 -109283.57 135437.62 -109235.95 135532.86 -109188.33 135628.09 -109188.33 135770.95 -109235.95 136342.38 -109807.38 136342.38 -109188.33 M 127976.67 -100377.38 127976.67 -99377.38 128310 -100091.67 128643.33 -99377.38 128643.33 -100377.38 M 129071.9 -100091.67 129548.09 -100091.67 M 128976.67 -100377.38 129310 -99377.38 129643.33 -100377.38 M 129881.43 -99377.38 130548.09 -100377.38 M 130548.09 -99377.38 129881.43 -100377.38 M 130929.05 -99996.43 131690.95 -99996.43 M 132310 -99805.95 132214.76 -99758.33 132167.14 -99710.71 132119.52 -99615.48 132119.52 -99567.86 132167.14 -99472.62 132214.76 -99425 132310 -99377.38 132500.48 -99377.38 132595.71 -99425 132643.33 -99472.62 132690.95 -99567.86 132690.95 -99615.48 132643.33 -99710.71 132595.71 -99758.33 132500.48 -99805.95 132310 -99805.95 132214.76 -99853.57 132167.14 -99901.19 132119.52 -99996.43 132119.52 -100186.9 132167.14 -100282.14 132214.76 -100329.76 132310 -100377.38 132500.48 -100377.38 132595.71 -100329.76 132643.33 -100282.14 132690.95 -100186.9 132690.95 -99996.43 132643.33 -99901.19 132595.71 -99853.57 132500.48 -99805.95 M 133690.95 -100282.14 133643.33 -100329.76 133500.48 -100377.38 133405.24 -100377.38 133262.38 -100329.76 133167.14 -100234.52 133119.52 -100139.29 133071.9 -99948.81 133071.9 -99805.95 133119.52 -99615.48 133167.14 -99520.24 133262.38 -99425 133405.24 -99377.38 133500.48 -99377.38 133643.33 -99425 133690.95 -99472.62 M 130048.09 -97877.38 130048.09 -98686.9 130095.71 -98782.14 130143.33 -98829.76 130238.57 -98877.38 130429.05 -98877.38 130524.28 -98829.76 130571.9 -98782.14 130619.52 -98686.9 130619.52 -97877.38 M 131619.52 -98877.38 131048.09 -98877.38 M 131333.81 -98877.38 131333.81 -97877.38 131238.57 -98020.24 131143.33 -98115.48 131048.09 -98163.1" fill="none" stroke-width="150"/></g><clipPath id="wgG-QLmo3fJr_top_outline"><path d="M 122555 -113030 A 635 635 0 0 0 121920 -112395 L 121920 -83185 A 635 635 0 0 0 122555 -82550 L 139065 -82550 A 635 635 0 0 0 139700 -83185 L 139700 -112395 A 635 635 0 0 0 139065 -113030 L 122555 -113030" fill="none" stroke-width="100"/></clipPath><mask id="wgG-QLmo3fJr_top_mech-mask"><g fill="#000" stroke="#000"><rect x="121920" y="-113030" width="17780" height="30480" fill="#fff"/><use xlink:href="#wgG-QLmo3fJr_top_drill1"/><use xlink:href="#wgG-QLmo3fJr_top_drill2"/><use xlink:href="#wgG-QLmo3fJr_top_drill3"/></g></mask></defs><g transform="translate(0,-195580) scale(1,-1)"><g mask="url(#wgG-QLmo3fJr_top_mech-mask)" clip-path="url(#wgG-QLmo3fJr_top_outline)"><rect x="121920" y="-113030" width="17780" height="30480" fill="currentColor" class="wgG-QLmo3fJr_fr4"/></g></g></svg>