<svg version="1.1" xmlns="http://www.w3.org/2000/svg" xmlns:xlink="http://www.w3.org/1999/xlink" stroke-linecap="round" stroke-linejoin="round" stroke-width="0" fill-rule="evenodd" clip-rule="evenodd" id="or2VVVZAFTDS_bottom" viewBox="-16510 -1270 17780 30480" width="17.78mm" height="30.48mm"><defs><style>.or2VVVZAFTDS_fr4 {color: #666666;}
.or2VVVZAFTDS_cu {color: #cccccc;}
.or2VVVZAFTDS_cf {color: #cc9933;}
.or2VVVZAFTDS_sm {color: #004200; opacity: 0.75;}
.or2VVVZAFTDS_ss {color: #ffffff;}
.or2VVVZAFTDS_sp {color: #999999;}
.or2VVVZAFTDS_out {color: #000000;}</style><circle cx="0" cy="0" r="850" id="BKo1SBEzswgG_pad-11"/><rect x="-800" y="-800" width="1600" height="1600" rx="800" ry="800" id="BKo1SBEzswgG_pad-12"/><rect x="-800" y="-800" width="1600" height="1600" id="BKo1SBEzswgG_pad-13"/><rect x="-450" y="-850" width="900" height="1700" id="BKo1SBEzswgG_pad-14"/><rect x="-863.6" y="-1727.2" width="1727.2" height="3454.4" id="BKo1SBEzswgG_pad-15"/><rect x="-850" y="-850" width="1700" height="1700" rx="850" ry="850" id="BKo1SBEzswgG_pad-16"/><rect x="-850" y="-850" width="1700" height="1700" id="BKo1SBEzswgG_pad-17"/><circle cx="0" cy="0" r="850" id="CJ-NMtS0NPqa_pad-13"/><rect x="-800" y="-800" width="1600" height="1600" rx="800" ry="800" id="CJ-NMtS0NPqa_pad-14"/><rect x="-800" y="-800" width="1600" height="1600" id="CJ-NMtS0NPqa_pad-15"/><rect x="-450" y="-850" width="900" height="1700" id="CJ-NMtS0NPqa_pad-16"/><rect x="-863.6" y="-1727.2" width="1727.2" height="3454.4" id="CJ-NMtS0NPqa_pad-17"/><rect x="-850" y="-850" width="1700" height="1700" rx="850" ry="850" id="CJ-NMtS0NPqa_pad-18"/><rect x="-850" y="-850" width="1700" height="1700" id="CJ-NMtS0NPqa_pad-19"/><mask id="CJ-NMtS0NPqa_clear-1" fill="#000" stroke="#000"><g><rect x="-16700" y="-1523.45" width="18160" height="30793.45" fill="#fff"/><use xlink:href="#CJ-NMtS0NPqa_pad-13" x="-6350" y="19685"/><use xlink:href="#CJ-NMtS0NPqa_pad-13" x="-6350" y="17145"/><use xlink:href="#CJ-NMtS0NPqa_pad-13" x="-6350" y="14605"/><use xlink:href="#CJ-NMtS0NPqa_pad-13" x="-6350" y="12065"/><use xlink:href="#CJ-NMtS0NPqa_pad-13" x="-6350" y="9525"/><use xlink:href="#CJ-NMtS0NPqa_pad-13" x="-8890" y="19685"/><use xlink:href="#CJ-NMtS0NPqa_pad-13" x="-8890" y="17145"/><use xlink:href="#CJ-NMtS0NPqa_pad-13" x="-8890" y="14605"/><use xlink:href="#CJ-NMtS0NPqa_pad-13" x="-8890" y="12065"/><path d="M -9740 8925 -9740 10125 A 250 250 0 0 0 -9490 10375 L -8290 10375 A 250 250 0 0 0 -8040 10125 L -8040 8925 A 250 250 0 0 0 -8290 8675 L -9490 8675 A 250 250 0 0 0 -9740 8925"/><use xlink:href="#CJ-NMtS0NPqa_pad-14" x="0" y="0"/><use xlink:href="#CJ-NMtS0NPqa_pad-14" x="0" y="2540"/><use xlink:href="#CJ-NMtS0NPqa_pad-14" x="0" y="5080"/><use xlink:href="#CJ-NMtS0NPqa_pad-14" x="-15240" y="27940"/><use xlink:href="#CJ-NMtS0NPqa_pad-14" x="0" y="7620"/><use xlink:href="#CJ-NMtS0NPqa_pad-14" x="-15240" y="25400"/><use xlink:href="#CJ-NMtS0NPqa_pad-14" x="0" y="10160"/><use xlink:href="#CJ-NMtS0NPqa_pad-14" x="-15240" y="22860"/><use xlink:href="#CJ-NMtS0NPqa_pad-14" x="0" y="12700"/><use xlink:href="#CJ-NMtS0NPqa_pad-14" x="-15240" y="20320"/><use xlink:href="#CJ-NMtS0NPqa_pad-14" x="0" y="15240"/><use xlink:href="#CJ-NMtS0NPqa_pad-14" x="-15240" y="17780"/><use xlink:href="#CJ-NMtS0NPqa_pad-14" x="0" y="17780"/><use xlink:href="#CJ-NMtS0NPqa_pad-14" x="-15240" y="15240"/><use xlink:href="#CJ-NMtS0NPqa_pad-14" x="0" y="20320"/><use xlink:href="#CJ-NMtS0NPqa_pad-14" x="-15240" y="12700"/><use xlink:href="#CJ-NMtS0NPqa_pad-14" x="0" y="22860"/><use xlink:href="#CJ-NMtS0NPqa_pad-14" x="-15240" y="10160"/><use xlink:href="#CJ-NMtS0NPqa_pad-14" x="0" y="25400"/><use xlink:href="#CJ-NMtS0NPqa_pad-14" x="-15240" y="7620"/><use xlink:href="#CJ-NMtS0NPqa_pad-14" x="0" y="27940"/><use xlink:href="#CJ-NMtS0NPqa_pad-14" x="-15240" y="5080"/><use xlink:href="#CJ-NMtS0NPqa_pad-14" x="-15240" y="2540"/><use xlink:href="#CJ-NMtS0NPqa_pad-15" x="-15240" y="0"/><use xlink:href="#CJ-NMtS0NPqa_pad-16" x="-11860" y="0"/><use xlink:href="#CJ-NMtS0NPqa_pad-16" x="-8460" y="0"/><use xlink:href="#CJ-NMtS0NPqa_pad-17" x="-5080" y="27305"/><use xlink:href="#CJ-NMtS0NPqa_pad-17" x="-2540" y="27305"/><use xlink:href="#CJ-NMtS0NPqa_pad-17" x="-7620" y="27305"/><use xlink:href="#CJ-NMtS0NPqa_pad-17" x="-10160" y="27305"/><use xlink:href="#CJ-NMtS0NPqa_pad-17" x="-12700" y="27305"/><use xlink:href="#CJ-NMtS0NPqa_pad-16" x="-3380" y="-63.45"/><use xlink:href="#CJ-NMtS0NPqa_pad-16" x="-6780" y="-63.45"/><use xlink:href="#CJ-NMtS0NPqa_pad-18" x="-3810" y="2540"/><use xlink:href="#CJ-NMtS0NPqa_pad-18" x="-6350" y="2540"/><use xlink:href="#CJ-NMtS0NPqa_pad-18" x="-8890" y="2540"/><use xlink:href="#CJ-NMtS0NPqa_pad-19" x="-11430" y="2540"/></g></mask><circle cx="0" cy="0" r="850" id="PgygcnR9Ebbt_pad-11"/><rect x="-800" y="-800" width="1600" height="1600" rx="800" ry="800" id="PgygcnR9Ebbt_pad-12"/><rect x="-800" y="-800" width="1600" height="1600" id="PgygcnR9Ebbt_pad-13"/><rect x="-450" y="-850" width="900" height="1700" id="PgygcnR9Ebbt_pad-14"/><rect x="-863.6" y="-1727.2" width="1727.2" height="3454.4" id="PgygcnR9Ebbt_pad-15"/><rect x="-850" y="-850" width="1700" height="1700" rx="850" ry="850" id="PgygcnR9Ebbt_pad-16"/><rect x="-850" y="-850" width="1700" height="1700" id="PgygcnR9Ebbt_pad-17"/><circle cx="0" cy="0" r="250" id="PgygcnR9Ebbt_pad-18"/><circle cx="0" cy="0" r="300" id="PgygcnR9Ebbt_pad-19"/><circle cx="0" cy="0" r="225" id="PgygcnR9Ebbt_pad-20"/><circle cx="0" cy="0" r="100" id="lWQAQKCVPeGv_pad-1"/><circle cx="0" cy="0" r="150" id="lWQAQKCVPeGv_pad-2"/><circle cx="0" cy="0" r="500" id="lWQAQKCVPeGv_pad-3"/><g id="or2VVVZAFTDS_bottom_soldermask"><path d="M 1270 28575 1270 -635 M -16510 -635 -16510 28575 M -15875 29210 A 635 635 0 0 1 -16510 28575 M 1270 28575 A 635 635 0 0 1 635 29210 M 635 -1270 A 635 635 0 0 1 1270 -635 M -16510 -635 A 635 635 0 0 1 -15875 -1270 M 635 29210 -15875 29210 M -15875 -1270 635 -1270" fill="none" stroke-width="100"/><use xlink:href="#BKo1SBEzswgG_pad-11" x="-6350" y="19685"/><use xlink:href="#BKo1SBEzswgG_pad-11" x="-6350" y="17145"/><use xlink:href="#BKo1SBEzswgG_pad-11" x="-6350" y="14605"/><use xlink:href="#BKo1SBEzswgG_pad-11" x="-6350" y="12065"/><use xlink:href="#BKo1SBEzswgG_pad-11" x="-6350" y="9525"/><use xlink:href="#BKo1SBEzswgG_pad-11" x="-8890" y="19685"/><use xlink:href="#BKo1SBEzswgG_pad-11" x="-8890" y="17145"/><use xlink:href="#BKo1SBEzswgG_pad-11" x="-8890" y="14605"/><use xlink:href="#BKo1SBEzswgG_pad-11" x="-8890" y="12065"/><path d="M -9740 8925 -9740 10125 A 250 250 0 0 0 -9490 10375 L -8290 10375 A 250 250 0 0 0 -8040 10125 L -8040 8925 A 250 250 0 0 0 -8290 8675 L -9490 8675 A 250 250 0 0 0 -9740 8925"/><use xlink:href="#BKo1SBEzswgG_pad-12" x="0" y="0"/><use xlink:href="#BKo1SBEzswgG_pad-12" x="0" y="2540"/><use xlink:href="#BKo1SBEzswgG_pad-12" x="0" y="5080"/><use xlink:href="#BKo1SBEzswgG_pad-12" x="-15240" y="27940"/><use xlink:href="#BKo1SBEzswgG_pad-12" x="0" y="7620"/><use xlink:href="#BKo1SBEzswgG_pad-12" x="-15240" y="25400"/><use xlink:href="#BKo1SBEzswgG_pad-12" x="0" y="10160"/><use xlink:href="#BKo1SBEzswgG_pad-12" x="-15240" y="22860"/><use xlink:href="#BKo1SBEzswgG_pad-12" x="0" y="12700"/><use xlink:href="#BKo1SBEzswgG_pad-12" x="-15240" y="20320"/><use xlink:href="#BKo1SBEzswgG_pad-12" x="0" y="15240"/><use xlink:href="#BKo1SBEzswgG_pad-12" x="-15240" y="17780"/><use xlink:href="#BKo1SBEzswgG_pad-12" x="0" y="17780"/><use xlink:href="#BKo1SBEzswgG_pad-12" x="-15240" y="15240"/><use xlink:href="#BKo1SBEzswgG_pad-12" x="0" y="20320"/><use xlink:href="#BKo1SBEzswgG_pad-12" x="-15240" y="12700"/><use xlink:href="#BKo1SBEzswgG_pad-12" x="0" y="22860"/><use xlink:href="#BKo1SBEzswgG_pad-12" x="-15240" y="10160"/><use xlink:href="#BKo1SBEzswgG_pad-12" x="0" y="25400"/><use xlink:href="#BKo1SBEzswgG_pad-12" x="-15240" y="7620"/><use xlink:href="#BKo1SBEzswgG_pad-12" x="0" y="27940"/><use xlink:href="#BKo1SBEzswgG_pad-12" x="-15240" y="5080"/><use xlink:href="#BKo1SBEzswgG_pad-12" x="-15240" y="2540"/><use xlink:href="#BKo1SBEzswgG_pad-13" x="-15240" y="0"/><use xlink:href="#BKo1SBEzswgG_pad-14" x="-11860" y="0"/><use xlink:href="#BKo1SBEzswgG_pad-14" x="-8460" y="0"/><use xlink:href="#BKo1SBEzswgG_pad-15" x="-5080" y="27305"/><use xlink:href="#BKo1SBEzswgG_pad-15" x="-2540" y="27305"/><use xlink:href="#BKo1SBEzswgG_pad-15" x="-7620" y="27305"/><use xlink:href="#BKo1SBEzswgG_pad-15" x="-10160" y="27305"/><use xlink:href="#BKo1SBEzswgG_pad-15" x="-12700" y="27305"/><use xlink:href="#BKo1SBEzswgG_pad-14" x="-3380" y="-63.45"/><use xlink:href="#BKo1SBEzswgG_pad-14" x="-6780" y="-63.45"/><use xlink:href="#BKo1SBEzswgG_pad-16" x="-3810" y="2540"/><use xlink:href="#BKo1SBEzswgG_pad-16" x="-6350" y="2540"/><use xlink:href="#BKo1SBEzswgG_pad-16" x="-8890" y="2540"/><use xlink:href="#BKo1SBEzswgG_pad-17" x="-11430" y="2540"/></g><g id="or2VVVZAFTDS_bottom_silkscreen"><g mask="url(#CJ-NMtS0NPqa_clear-1)"><path d="M 1270 28575 1270 -635 M -16510 -635 -16510 28575 M -15875 29210 A 635 635 0 0 1 -16510 28575 M 1270 28575 A 635 635 0 0 1 635 29210 M 635 -1270 A 635 635 0 0 1 1270 -635 M -16510 -635 A 635 635 0 0 1 -15875 -1270 M 635 29210 -15875 29210 M -15875 -1270 635 -1270" fill="none" stroke-width="100"/><path d="M -12180 4315 -3060 4315 -3060 24895 -12180 24895 -12180 4315 M -12180 12555 -10870 12555 -10870 5615 -4370 5615 -4370 23595 -10870 23595 -10870 16655 -10870 16655 -12180 16655 M -12570 9525 -13570 9025 -13570 10025 -12570 9525 M 1400 -1270 -13970 -1270 M 1400 29210 1400 -1270 M -16640 29210 1400 29210 M -13970 -1270 -13970 29210 M -13970 1270 -16640 1270 M -1270 -1270 -1270 29210 M -16640 1270 -16640 29210 M -8510 -1100 -8510 -1400 -11810 -1400 -11810 -1100 M -8510 1100 -8510 1400 -11810 1400 -11810 1100 M -14100 29210 -14100 25273 M -1143 25273 -1143 29210 M -14097 25273 -1143 25273 M -6730 1036.55 -6730 1336.55 -3430 1336.55 -3430 1036.55 M -6730 -1163.45 -6730 -1463.45 -3430 -1463.45 -3430 -1163.45 M -12760 3870 -12760 2540 M -11430 3870 -12760 3870 M -10160 3870 -10160 1210 -2480 1210 M -10160 3870 -2480 3870 -2480 1210" fill="none" stroke-width="120"/><path d="M -13201.67 4381.43 -13201.67 4000.48 M -12973.1 4457.62 -13773.1 4190.95 -12973.1 3924.29 M -12973.1 3238.57 -12973.1 3695.71 M -12973.1 3467.14 -13773.1 3467.14 -13658.81 3543.33 -13582.62 3619.52 -13544.52 3695.71 M -13773.1 24396.67 -13201.67 24396.67 -13087.38 24434.76 -13011.19 24510.95 -12973.1 24625.24 -12973.1 24701.43 M -13696.91 24053.81 -13735 24015.72 -13773.1 23939.52 -13773.1 23749.05 -13735 23672.86 -13696.91 23634.76 -13620.72 23596.67 -13544.52 23596.67 -13430.24 23634.76 -12973.1 24091.91 -12973.1 23596.67" fill="none" stroke-width="200"/></g></g><g id="or2VVVZAFTDS_bottom_copper"><path d="M 1270 28575 1270 -635 M -16510 -635 -16510 28575 M -15875 29210 A 635 635 0 0 1 -16510 28575 M 1270 28575 A 635 635 0 0 1 635 29210 M 635 -1270 A 635 635 0 0 1 1270 -635 M -16510 -635 A 635 635 0 0 1 -15875 -1270 M 635 29210 -15875 29210 M -15875 -1270 635 -1270" fill="none" stroke-width="100"/><use xlink:href="#PgygcnR9Ebbt_pad-11" x="-6350" y="19685"/><use xlink:href="#PgygcnR9Ebbt_pad-11" x="-6350" y="17145"/><use xlink:href="#PgygcnR9Ebbt_pad-11" x="-6350" y="14605"/><use xlink:href="#PgygcnR9Ebbt_pad-11" x="-6350" y="12065"/><use xlink:href="#PgygcnR9Ebbt_pad-11" x="-6350" y="9525"/><use xlink:href="#PgygcnR9Ebbt_pad-11" x="-8890" y="19685"/><use xlink:href="#PgygcnR9Ebbt_pad-11" x="-8890" y="17145"/><use xlink:href="#PgygcnR9Ebbt_pad-11" x="-8890" y="14605"/><use xlink:href="#PgygcnR9Ebbt_pad-11" x="-8890" y="12065"/><path d="M -9740 8925 -9740 10125 A 250 250 0 0 0 -9490 10375 L -8290 10375 A 250 250 0 0 0 -8040 10125 L -8040 8925 A 250 250 0 0 0 -8290 8675 L -9490 8675 A 250 250 0 0 0 -9740 8925"/><use xlink:href="#PgygcnR9Ebbt_pad-12" x="0" y="0"/><use xlink:href="#PgygcnR9Ebbt_pad-12" x="0" y="2540"/><use xlink:href="#PgygcnR9Ebbt_pad-12" x="0" y="5080"/><use xlink:href="#PgygcnR9Ebbt_pad-12" x="-15240" y="27940"/><use xlink:href="#PgygcnR9Ebbt_pad-12" x="0" y="7620"/><use xlink:href="#PgygcnR9Ebbt_pad-12" x="-15240" y="25400"/><use xlink:href="#PgygcnR9Ebbt_pad-12" x="0" y="10160"/><use xlink:href="#PgygcnR9Ebbt_pad-12" x="-15240" y="22860"/><use xlink:href="#PgygcnR9Ebbt_pad-12" x="0" y="12700"/><use xlink:href="#PgygcnR9Ebbt_pad-12" x="-15240" y="20320"/><use xlink:href="#PgygcnR9Ebbt_pad-12" x="0" y="15240"/><use xlink:href="#PgygcnR9Ebbt_pad-12" x="-15240" y="17780"/><use xlink:href="#PgygcnR9Ebbt_pad-12" x="0" y="17780"/><use xlink:href="#PgygcnR9Ebbt_pad-12" x="-15240" y="15240"/><use xlink:href="#PgygcnR9Ebbt_pad-12" x="0" y="20320"/><use xlink:href="#PgygcnR9Ebbt_pad-12" x="-15240" y="12700"/><use xlink:href="#PgygcnR9Ebbt_pad-12" x="0" y="22860"/><use xlink:href="#PgygcnR9Ebbt_pad-12" x="-15240" y="10160"/><use xlink:href="#PgygcnR9Ebbt_pad-12" x="0" y="25400"/><use xlink:href="#PgygcnR9Ebbt_pad-12" x="-15240" y="7620"/><use xlink:href="#PgygcnR9Ebbt_pad-12" x="0" y="27940"/><use xlink:href="#PgygcnR9Ebbt_pad-12" x="-15240" y="5080"/><use xlink:href="#PgygcnR9Ebbt_pad-12" x="-15240" y="2540"/><use xlink:href="#PgygcnR9Ebbt_pad-13" x="-15240" y="0"/><use xlink:href="#PgygcnR9Ebbt_pad-14" x="-11860" y="0"/><use xlink:href="#PgygcnR9Ebbt_pad-14" x="-8460" y="0"/><use xlink:href="#PgygcnR9Ebbt_pad-15" x="-5080" y="27305"/><use xlink:href="#PgygcnR9Ebbt_pad-15" x="-2540" y="27305"/><use xlink:href="#PgygcnR9Ebbt_pad-15" x="-7620" y="27305"/><use xlink:href="#PgygcnR9Ebbt_pad-15" x="-10160" y="27305"/><use xlink:href="#PgygcnR9Ebbt_pad-15" x="-12700" y="27305"/><use xlink:href="#PgygcnR9Ebbt_pad-14" x="-3380" y="-63.45"/><use xlink:href="#PgygcnR9Ebbt_pad-14" x="-6780" y="-63.45"/><use xlink:href="#PgygcnR9Ebbt_pad-16" x="-3810" y="2540"/><use xlink:href="#PgygcnR9Ebbt_pad-16" x="-6350" y="2540"/><use xlink:href="#PgygcnR9Ebbt_pad-16" x="-8890" y="2540"/><use xlink:href="#PgygcnR9Ebbt_pad-17" x="-11430" y="2540"/><use xlink:href="#PgygcnR9Ebbt_pad-18" x="-1905" y="6731"/><use xlink:href="#PgygcnR9Ebbt_pad-18" x="-1905" y="3810"/><use xlink:href="#PgygcnR9Ebbt_pad-19" x="-2159" y="1079.55"/><use xlink:href="#PgygcnR9Ebbt_pad-19" x="-2540" y="21590"/><use xlink:href="#PgygcnR9Ebbt_pad-19" x="-2540" y="19050"/><use xlink:href="#PgygcnR9Ebbt_pad-19" x="-3175" y="16446.55"/><use xlink:href="#PgygcnR9Ebbt_pad-19" x="-1270" y="16446.55"/><use xlink:href="#PgygcnR9Ebbt_pad-19" x="-1270" y="11366.55"/><use xlink:href="#PgygcnR9Ebbt_pad-19" x="-1270" y="13906.55"/><use xlink:href="#PgygcnR9Ebbt_pad-20" x="-3175" y="3810"/><use xlink:href="#PgygcnR9Ebbt_pad-18" x="-1905" y="8890"/><use xlink:href="#PgygcnR9Ebbt_pad-18" x="-5080" y="5080"/><use xlink:href="#PgygcnR9Ebbt_pad-19" x="-5207" y="21717"/><use xlink:href="#PgygcnR9Ebbt_pad-18" x="-8890" y="21590"/><use xlink:href="#PgygcnR9Ebbt_pad-18" x="-13970" y="19050"/><use xlink:href="#PgygcnR9Ebbt_pad-18" x="-13970" y="21590"/><use xlink:href="#PgygcnR9Ebbt_pad-18" x="-9525" y="0"/><use xlink:href="#PgygcnR9Ebbt_pad-18" x="-13335" y="15240"/><use xlink:href="#PgygcnR9Ebbt_pad-18" x="-8890" y="7620"/><use xlink:href="#PgygcnR9Ebbt_pad-18" x="-4064" y="9525"/><use xlink:href="#PgygcnR9Ebbt_pad-18" x="-11430" y="25019"/><use xlink:href="#PgygcnR9Ebbt_pad-18" x="-4826" y="11811"/><use xlink:href="#PgygcnR9Ebbt_pad-18" x="-11176" y="10795"/><use xlink:href="#PgygcnR9Ebbt_pad-18" x="-11176" y="8382"/><use xlink:href="#PgygcnR9Ebbt_pad-18" x="-10160" y="5715"/><use xlink:href="#PgygcnR9Ebbt_pad-19" x="-4953" y="7620"/><use xlink:href="#PgygcnR9Ebbt_pad-19" x="-12266.4" y="22908.9"/><use xlink:href="#PgygcnR9Ebbt_pad-18" x="-2540" y="5715"/><use xlink:href="#PgygcnR9Ebbt_pad-18" x="-6350" y="7620"/><use xlink:href="#PgygcnR9Ebbt_pad-18" x="-5080" y="24511"/><use xlink:href="#PgygcnR9Ebbt_pad-18" x="-2540" y="9525"/><use xlink:href="#PgygcnR9Ebbt_pad-18" x="-4445" y="19685"/><use xlink:href="#PgygcnR9Ebbt_pad-18" x="-4445" y="14859"/><use xlink:href="#PgygcnR9Ebbt_pad-18" x="-12700" y="13335"/><use xlink:href="#PgygcnR9Ebbt_pad-18" x="-7554.99" y="22225"/><use xlink:href="#PgygcnR9Ebbt_pad-18" x="-10160" y="7112"/><use xlink:href="#PgygcnR9Ebbt_pad-18" x="-3175" y="24765"/><use xlink:href="#PgygcnR9Ebbt_pad-18" x="-13335" y="24130"/><use xlink:href="#PgygcnR9Ebbt_pad-18" x="-8890" y="23241"/><use xlink:href="#PgygcnR9Ebbt_pad-18" x="-13970" y="6350"/><path d="M -63.45 7620 -4528.74 7620 -4953 7620 M 0 7556.55 -63.45 7620 M -12217.5 22860 -12266.4 22908.9 M -12700 25177.8 -12266.4 24744.2 -12266.4 22908.9 M -12700 27305 -12700 25177.8" fill="none" stroke-width="400"/><path d="M -1905 10795 -1206.55 10096.55 0 10096.55 M -8890 9461.55 -7556.55 10795 -1905 10795 M -7556.55 13335 -8890 12001.55 M -3746.55 13335 -7556.55 13335 M 0 15176.55 -1905 15176.55 -3746.55 13335 M -2186.45 5715 -2540 5715 M 0 5016.55 -698.45 5715 M -2540 5361.45 -2540 5715 M -698.45 5715 -2186.45 5715 M -3380 1036.55 -2540 1876.55 M -3380 -63.45 -3380 1036.55 M -2540 1876.55 -2540 2540 -2540 5361.45 M -6100 7370 -6350 7620 M -3175 6350 -5080 6350 -6100 7370 M -2540 5715 -3175 6350 M -2540 27241.55 -2540 22796.55 0 20256.55 M -15240 12700 -13970 12700 -13754 12700 M -6350 2476.55 -6350 2540 M -13970 12700 -12065 12700 M -7620 25400 -7620 27241.55 M -10160 22860 -7620 25400 M -10160 21590 -10160 22860 M -12065 12700 -12065 19685 -10160 21590 M -7747 3937 -6350 2540 M -8890 5080 -7747 3937 M -11430 5080 -8890 5080 M -12065 12700 -12065 5715 -11430 5080 M -5080 27241.55 -5080 24511 M -4445 19685 -4445 14859 M -12731.73 7588.27 -15240 10096.55 M -12065 4445 -12731.73 5111.73 -12731.73 7588.27 M -7334.23 6064.23 -3778.27 2508.27 M -2540 9525 -3810 8255 M -9056 4445 -12065 4445 M -7334.23 7905.77 -7334.23 6064.23 M -4985 1301.55 -7016.55 1301.55 M -3778.27 2508.27 -4985 1301.55 M -7016.55 1301.55 -7620 1905 M -6985 8255 -7334.23 7905.77 M -7620 1905 -7620 3009 M -3810 8255 -6985 8255 M -7620 3009 -9056 4445 M -10160 27241.55 -10795 26606.55 M -12700 20066 -12700 13335 M -10795 23114 -10795 21971 M -10160 27305 -10160 23749 M -10795 21971 -12700 20066 M -10160 23749 -10795 23114 M -10160 7465.55 -10160 7112 M -8191.55 15875 -9588.55 15875 M -10160 15303.55 -10160 7465.55 M -7554.99 22225 -7554.99 16511.56 -8191.55 15875 M -9588.55 15875 -10160 15303.55 M -13888.6 26588.6 -13888.6 24683.6 M -13585 24380 -13335 24130 M -13888.6 24683.6 -13585 24380 M -15240 27940 -13888.6 26588.6 M -4064 23876 -3175 24765 M -8890 23241 -8255 23876 -4064 23876 M -11860 0 -12700 0 -13970 1270 -13970 6350" fill="none" stroke-width="250"/><path d="M -1062.5 5184.65 -1062.5 4975.35 -1021.67 4770.08 -941.57 4576.72 -825.3 4402.7 -677.3 4254.7 -503.28 4138.42 -309.92 4058.33 -104.65 4017.5 104.65 4017.5 309.92 4058.33 503.28 4138.42 677.3 4254.7 825.3 4402.7 941.57 4576.72 1021.67 4770.08 1032.5 4824.54 1032.5 2627.5 993.03 2627.5 1032.17 2792.07 998.26 2903.85 908.1 3091.61 783.03 3258.18 627.88 3397.14 448.59 3503.16 252.07 3572.17 87.5 3533.27 87.5 2627.5 107.5 2627.5 107.5 2452.5 87.5 2452.5 87.5 1546.73 252.07 1507.83 448.59 1576.84 627.88 1682.86 783.03 1821.82 908.1 1988.39 998.26 2176.15 1032.17 2287.93 993.03 2452.5 1032.5 2452.5 1032.5 255.46 1021.67 309.92 941.57 503.28 825.3 677.3 677.3 825.3 503.28 941.57 309.92 1021.67 104.65 1062.5 -104.65 1062.5 -309.92 1021.67 -503.28 941.57 -677.3 825.3 -825.3 677.3 -941.57 503.28 -1021.67 309.92 -1062.5 104.65 -1062.5 -104.65 -1021.67 -309.92 -941.57 -503.28 -825.3 -677.3 -677.3 -825.3 -503.28 -941.57 -309.92 -1021.67 -255.47 -1032.5 -2695.99 -1032.5 -2686.31 -1014.39 -2671.3 -964.91 -2666.23 -913.45 -2666.23 786.55 -2671.3 838.01 -2686.31 887.49 -2710.68 933.09 -2743.49 973.06 -2783.46 1005.86 -2829.06 1030.24 -2836.15 1032.39 -2279.45 1589.09 -2264.67 1601.22 -2216.25 1660.22 -2180.26 1727.54 -2158.11 1800.58 -2152.5 1857.52 -2152.5 1857.53 -2150.63 1876.55 -2152.5 1895.57 -2152.5 2287.93 -1032.17 2287.93 -998.26 2176.15 -908.1 1988.39 -783.03 1821.82 -627.88 1682.86 -448.59 1576.84 -252.07 1507.83 -87.5 1546.73 -87.5 2452.5 -993.03 2452.5 -1032.17 2287.93 -2152.5 2287.93 -2152.5 2792.07 -1032.17 2792.07 -993.03 2627.5 -87.5 2627.5 -87.5 3533.27 -252.07 3572.17 -448.59 3503.16 -627.88 3397.14 -783.03 3258.18 -908.1 3091.61 -998.26 2903.85 -1032.17 2792.07 -2152.5 2792.07 -2152.5 5327.5 -1034.08 5327.5 -1062.5 5184.65"/><path d="M -1062.5 5184.65 -1062.5 4975.35 -1021.67 4770.08 -941.57 4576.72 -825.3 4402.7 -677.3 4254.7 -503.28 4138.42 -309.92 4058.33 -104.65 4017.5 104.65 4017.5 309.92 4058.33 503.28 4138.42 677.3 4254.7 825.3 4402.7 941.57 4576.72 1021.67 4770.08 1032.5 4824.54 1032.5 2627.5 993.03 2627.5 1032.17 2792.07 998.26 2903.85 908.1 3091.61 783.03 3258.18 627.88 3397.14 448.59 3503.16 252.07 3572.17 87.5 3533.27 87.5 2627.5 107.5 2627.5 107.5 2452.5 87.5 2452.5 87.5 1546.73 252.07 1507.83 448.59 1576.84 627.88 1682.86 783.03 1821.82 908.1 1988.39 998.26 2176.15 1032.17 2287.93 993.03 2452.5 1032.5 2452.5 1032.5 255.46 1021.67 309.92 941.57 503.28 825.3 677.3 677.3 825.3 503.28 941.57 309.92 1021.67 104.65 1062.5 -104.65 1062.5 -309.92 1021.67 -503.28 941.57 -677.3 825.3 -825.3 677.3 -941.57 503.28 -1021.67 309.92 -1062.5 104.65 -1062.5 -104.65 -1021.67 -309.92 -941.57 -503.28 -825.3 -677.3 -677.3 -825.3 -503.28 -941.57 -309.92 -1021.67 -255.47 -1032.5 -2695.99 -1032.5 -2686.31 -1014.39 -2671.3 -964.91 -2666.23 -913.45 -2666.23 786.55 -2671.3 838.01 -2686.31 887.49 -2710.68 933.09 -2743.49 973.06 -2783.46 1005.86 -2829.06 1030.24 -2836.15 1032.39 -2279.45 1589.09 -2264.67 1601.22 -2216.25 1660.22 -2180.26 1727.54 -2158.11 1800.58 -2152.5 1857.52 -2152.5 1857.53 -2150.63 1876.55 -2152.5 1895.57 -2152.5 2287.93 -1032.17 2287.93 -998.26 2176.15 -908.1 1988.39 -783.03 1821.82 -627.88 1682.86 -448.59 1576.84 -252.07 1507.83 -87.5 1546.73 -87.5 2452.5 -993.03 2452.5 -1032.17 2287.93 -2152.5 2287.93 -2152.5 2792.07 -1032.17 2792.07 -993.03 2627.5 -87.5 2627.5 -87.5 3533.27 -252.07 3572.17 -448.59 3503.16 -627.88 3397.14 -783.03 3258.18 -908.1 3091.61 -998.26 2903.85 -1032.17 2792.07 -2152.5 2792.07 -2152.5 5327.5 -1034.08 5327.5 -1062.5 5184.65" fill="none" stroke-width="125"/><path d="M -16261.67 9850.08 -16181.57 9656.72 -16065.3 9482.7 -15917.3 9334.7 -15743.28 9218.42 -15549.92 9138.33 -15344.65 9097.5 -15135.35 9097.5 -14930.08 9138.33 -14859.16 9167.7 -13119.23 7427.76 -13119.23 5130.75 -13121.1 5111.73 -13118.58 5086.12 -13113.62 5035.76 -13091.46 4962.72 -13055.48 4895.4 -13007.06 4836.4 -12992.27 4824.26 -12352.46 4184.45 -12340.33 4169.67 -12281.33 4121.25 -12214.01 4085.26 -12163.12 4069.83 -12140.96 4063.11 -12065 4055.63 -12045.97 4057.5 -9216.5 4057.5 -8811.5 3652.5 -8999.57 3652.5 -9214.5 3609.75 -9416.97 3525.88 -9599.18 3404.14 -9754.13 3249.18 -9875.88 3066.97 -9959.75 2864.5 -10002.5 2649.57 -10002.5 2430.43 -9959.75 2215.5 -9875.88 2013.03 -9754.13 1830.82 -9599.18 1675.87 -9416.97 1554.12 -9214.5 1470.25 -8999.57 1427.5 -8780.43 1427.5 -8565.5 1470.25 -8363.03 1554.12 -8180.82 1675.87 -8025.86 1830.82 -8005.12 1861.86 -8001.89 1829.04 -7979.73 1755.99 -7943.75 1688.68 -7895.33 1629.67 -7880.54 1617.54 -7304.01 1041 -7302.31 1038.93 -7330.94 1030.24 -7376.54 1005.86 -7416.51 973.06 -7449.32 933.09 -7473.69 887.49 -7488.7 838.01 -7493.77 786.55 -7492.5 89.67 -7426.87 24.05 -6867.5 24.05 -6867.5 44.05 -6692.5 44.05 -6692.5 24.05 -6133.13 24.05 -6067.5 89.67 -6066.23 786.55 -6071.3 838.01 -6086.31 887.49 -6100.5 914.05 -5004.03 914.05 -4985 912.17 -4965.97 914.05 -4909.04 919.65 -4835.99 941.81 -4768.68 977.79 -4709.67 1026.22 -4697.54 1041 -4229.1 1509.44 -4134.5 1470.25 -3919.57 1427.5 -3700.43 1427.5 -3496.49 1468.07 -3640.55 1324.01 -3655.33 1311.88 -3703.75 1252.87 -3718.34 1225.58 -3739.73 1185.55 -3761.89 1112.51 -3768.02 1050.32 -3830 1050.32 -3881.46 1045.25 -3930.94 1030.24 -3976.54 1005.86 -4016.51 973.06 -4049.32 933.09 -4073.69 887.49 -4088.7 838.01 -4093.77 786.55 -4093.77 -913.45 -4088.7 -964.91 -4073.69 -1014.39 -4064.01 -1032.5 -6095.99 -1032.5 -6086.31 -1014.39 -6071.3 -964.91 -6066.23 -913.45 -6067.5 -216.58 -6133.13 -150.95 -6692.5 -150.95 -6692.5 -170.95 -6867.5 -170.95 -6867.5 -150.95 -7426.87 -150.95 -7492.5 -216.58 -7493.77 -913.45 -7488.7 -964.91 -7473.69 -1014.39 -7464.01 -1032.5 -7820.19 -1032.5 -7790.68 -996.54 -7766.31 -950.94 -7751.3 -901.46 -7746.23 -850 -7747.5 -153.12 -7813.12 -87.5 -8372.5 -87.5 -8372.5 -107.5 -8547.5 -107.5 -8547.5 -87.5 -9106.87 -87.5 -9172.5 -153.12 -9173.77 -850 -9168.7 -901.46 -9153.69 -950.94 -9129.32 -996.54 -9099.81 -1032.5 -11220.19 -1032.5 -11190.68 -996.54 -11166.31 -950.94 -11151.3 -901.46 -11146.23 -850 -11146.23 850 -9173.77 850 -9172.5 153.12 -9106.87 87.5 -8547.5 87.5 -8547.5 1046.87 -8372.5 1046.87 -8372.5 87.5 -7813.12 87.5 -7747.5 153.12 -7746.23 850 -7751.3 901.46 -7766.31 950.94 -7790.68 996.54 -7823.49 1036.51 -7863.46 1069.32 -7909.06 1093.69 -7958.54 1108.7 -8010 1113.77 -8306.87 1112.5 -8372.5 1046.87 -8547.5 1046.87 -8613.12 1112.5 -8910 1113.77 -8961.46 1108.7 -9010.94 1093.69 -9056.54 1069.32 -9096.51 1036.51 -9129.32 996.54 -9153.69 950.94 -9168.7 901.46 -9173.77 850 -11146.23 850 -11151.3 901.46 -11166.31 950.94 -11190.68 996.54 -11223.49 1036.51 -11263.46 1069.32 -11309.06 1093.69 -11358.54 1108.7 -11410 1113.77 -12310 1113.77 -12361.46 1108.7 -12410.94 1093.69 -12456.54 1069.32 -12496.51 1036.51 -12529.32 996.54 -12553.69 950.94 -12568.7 901.46 -12573.77 850 -12573.77 421.78 -13582.5 1430.51 -13582.5 1690 -12543.77 1690 -12538.7 1638.54 -12523.69 1589.06 -12499.32 1543.46 -12466.51 1503.49 -12426.54 1470.68 -12380.94 1446.31 -12331.46 1431.3 -12280 1426.23 -11583.13 1427.5 -11517.5 1493.13 -11517.5 2452.5 -11342.5 2452.5 -11342.5 1493.13 -11276.88 1427.5 -10580 1426.23 -10528.54 1431.3 -10479.06 1446.31 -10433.46 1470.68 -10393.49 1503.49 -10360.68 1543.46 -10336.31 1589.06 -10321.3 1638.54 -10316.23 1690 -10317.5 2386.87 -10383.12 2452.5 -11342.5 2452.5 -11517.5 2452.5 -12476.88 2452.5 -12542.5 2386.87 -12543.77 1690 -13582.5 1690 -13582.5 3390 -12543.77 3390 -12542.5 2693.13 -12476.88 2627.5 -11517.5 2627.5 -11517.5 3586.87 -11342.5 3586.87 -11342.5 2627.5 -10383.12 2627.5 -10317.5 2693.13 -10316.23 3390 -10321.3 3441.46 -10336.31 3490.94 -10360.68 3536.54 -10393.49 3576.51 -10433.46 3609.32 -10479.06 3633.69 -10528.54 3648.7 -10580 3653.77 -11276.88 3652.5 -11342.5 3586.87 -11517.5 3586.87 -11583.13 3652.5 -12280 3653.77 -12331.46 3648.7 -12380.94 3633.69 -12426.54 3609.32 -12466.51 3576.51 -12499.32 3536.54 -12523.69 3490.94 -12538.7 3441.46 -12543.77 3390 -13582.5 3390 -13582.5 6012.72 -13571.92 6023.3 -13515.83 6107.24 -13477.2 6200.51 -13457.5 6299.52 -13457.5 6400.48 -13477.2 6499.49 -13515.83 6592.76 -13571.92 6676.7 -13643.3 6748.09 -13727.24 6804.17 -13820.51 6842.81 -13919.52 6862.5 -14020.48 6862.5 -14119.49 6842.81 -14212.76 6804.17 -14296.7 6748.09 -14368.08 6676.7 -14424.17 6592.76 -14462.8 6499.49 -14482.5 6400.48 -14482.5 6299.52 -14462.8 6200.51 -14424.17 6107.24 -14368.08 6023.3 -14357.5 6012.71 -14357.5 5671.69 -14414.7 5757.3 -14562.7 5905.3 -14736.72 6021.58 -14930.08 6101.67 -15135.35 6142.5 -15344.65 6142.5 -15549.92 6101.67 -15743.28 6021.58 -15917.3 5905.3 -16065.3 5757.3 -16181.57 5583.28 -16261.67 5389.92 -16272.5 5335.47 -16272.5 7532.5 -16233.03 7532.5 -16272.17 7367.93 -16238.26 7256.15 -16148.1 7068.39 -16023.03 6901.82 -15867.88 6762.86 -15688.59 6656.84 -15492.07 6587.83 -15327.5 6626.73 -15327.5 7532.5 -15152.5 7532.5 -15152.5 6626.73 -14987.93 6587.83 -14791.41 6656.84 -14612.12 6762.86 -14456.97 6901.82 -14331.9 7068.39 -14241.74 7256.15 -14207.83 7367.93 -14246.97 7532.5 -15152.5 7532.5 -15327.5 7532.5 -15347.5 7532.5 -15347.5 7707.5 -15327.5 7707.5 -15327.5 8613.27 -15152.5 8613.27 -15152.5 7707.5 -14246.97 7707.5 -14207.83 7872.07 -14241.74 7983.85 -14331.9 8171.61 -14456.97 8338.18 -14612.12 8477.14 -14791.41 8583.16 -14987.93 8652.17 -15152.5 8613.27 -15327.5 8613.27 -15492.07 8652.17 -15688.59 8583.16 -15867.88 8477.14 -16023.03 8338.18 -16148.1 8171.61 -16238.26 7983.85 -16272.17 7872.07 -16233.03 7707.5 -16272.5 7707.5 -16272.5 9904.53 -16261.67 9850.08"/><path d="M -16261.67 9850.08 -16181.57 9656.72 -16065.3 9482.7 -15917.3 9334.7 -15743.28 9218.42 -15549.92 9138.33 -15344.65 9097.5 -15135.35 9097.5 -14930.08 9138.33 -14859.16 9167.7 -13119.23 7427.76 -13119.23 5130.75 -13121.1 5111.73 -13118.58 5086.12 -13113.62 5035.76 -13091.46 4962.72 -13055.48 4895.4 -13007.06 4836.4 -12992.27 4824.26 -12352.46 4184.45 -12340.33 4169.67 -12281.33 4121.25 -12214.01 4085.26 -12163.12 4069.83 -12140.96 4063.11 -12065 4055.63 -12045.97 4057.5 -9216.5 4057.5 -8811.5 3652.5 -8999.57 3652.5 -9214.5 3609.75 -9416.97 3525.88 -9599.18 3404.14 -9754.13 3249.18 -9875.88 3066.97 -9959.75 2864.5 -10002.5 2649.57 -10002.5 2430.43 -9959.75 2215.5 -9875.88 2013.03 -9754.13 1830.82 -9599.18 1675.87 -9416.97 1554.12 -9214.5 1470.25 -8999.57 1427.5 -8780.43 1427.5 -8565.5 1470.25 -8363.03 1554.12 -8180.82 1675.87 -8025.86 1830.82 -8005.12 1861.86 -8001.89 1829.04 -7979.73 1755.99 -7943.75 1688.68 -7895.33 1629.67 -7880.54 1617.54 -7304.01 1041 -7302.31 1038.93 -7330.94 1030.24 -7376.54 1005.86 -7416.51 973.06 -7449.32 933.09 -7473.69 887.49 -7488.7 838.01 -7493.77 786.55 -7492.5 89.67 -7426.87 24.05 -6867.5 24.05 -6867.5 44.05 -6692.5 44.05 -6692.5 24.05 -6133.13 24.05 -6067.5 89.67 -6066.23 786.55 -6071.3 838.01 -6086.31 887.49 -6100.5 914.05 -5004.03 914.05 -4985 912.17 -4965.97 914.05 -4909.04 919.65 -4835.99 941.81 -4768.68 977.79 -4709.67 1026.22 -4697.54 1041 -4229.1 1509.44 -4134.5 1470.25 -3919.57 1427.5 -3700.43 1427.5 -3496.49 1468.07 -3640.55 1324.01 -3655.33 1311.88 -3703.75 1252.87 -3718.34 1225.58 -3739.73 1185.55 -3761.89 1112.51 -3768.02 1050.32 -3830 1050.32 -3881.46 1045.25 -3930.94 1030.24 -3976.54 1005.86 -4016.51 973.06 -4049.32 933.09 -4073.69 887.49 -4088.7 838.01 -4093.77 786.55 -4093.77 -913.45 -4088.7 -964.91 -4073.69 -1014.39 -4064.01 -1032.5 -6095.99 -1032.5 -6086.31 -1014.39 -6071.3 -964.91 -6066.23 -913.45 -6067.5 -216.58 -6133.13 -150.95 -6692.5 -150.95 -6692.5 -170.95 -6867.5 -170.95 -6867.5 -150.95 -7426.87 -150.95 -7492.5 -216.58 -7493.77 -913.45 -7488.7 -964.91 -7473.69 -1014.39 -7464.01 -1032.5 -7820.19 -1032.5 -7790.68 -996.54 -7766.31 -950.94 -7751.3 -901.46 -7746.23 -850 -7747.5 -153.12 -7813.12 -87.5 -8372.5 -87.5 -8372.5 -107.5 -8547.5 -107.5 -8547.5 -87.5 -9106.87 -87.5 -9172.5 -153.12 -9173.77 -850 -9168.7 -901.46 -9153.69 -950.94 -9129.32 -996.54 -9099.81 -1032.5 -11220.19 -1032.5 -11190.68 -996.54 -11166.31 -950.94 -11151.3 -901.46 -11146.23 -850 -11146.23 850 -9173.77 850 -9172.5 153.12 -9106.87 87.5 -8547.5 87.5 -8547.5 1046.87 -8372.5 1046.87 -8372.5 87.5 -7813.12 87.5 -7747.5 153.12 -7746.23 850 -7751.3 901.46 -7766.31 950.94 -7790.68 996.54 -7823.49 1036.51 -7863.46 1069.32 -7909.06 1093.69 -7958.54 1108.7 -8010 1113.77 -8306.87 1112.5 -8372.5 1046.87 -8547.5 1046.87 -8613.12 1112.5 -8910 1113.77 -8961.46 1108.7 -9010.94 1093.69 -9056.54 1069.32 -9096.51 1036.51 -9129.32 996.54 -9153.69 950.94 -9168.7 901.46 -9173.77 850 -11146.23 850 -11151.3 901.46 -11166.31 950.94 -11190.68 996.54 -11223.49 1036.51 -11263.46 1069.32 -11309.06 1093.69 -11358.54 1108.7 -11410 1113.77 -12310 1113.77 -12361.46 1108.7 -12410.94 1093.69 -12456.54 1069.32 -12496.51 1036.51 -12529.32 996.54 -12553.69 950.94 -12568.7 901.46 -12573.77 850 -12573.77 421.78 -13582.5 1430.51 -13582.5 1690 -12543.77 1690 -12538.7 1638.54 -12523.69 1589.06 -12499.32 1543.46 -12466.51 1503.49 -12426.54 1470.68 -12380.94 1446.31 -12331.46 1431.3 -12280 1426.23 -11583.13 1427.5 -11517.5 1493.13 -11517.5 2452.5 -11342.5 2452.5 -11342.5 1493.13 -11276.88 1427.5 -10580 1426.23 -10528.54 1431.3 -10479.06 1446.31 -10433.46 1470.68 -10393.49 1503.49 -10360.68 1543.46 -10336.31 1589.06 -10321.3 1638.54 -10316.23 1690 -10317.5 2386.87 -10383.12 2452.5 -11342.5 2452.5 -11517.5 2452.5 -12476.88 2452.5 -12542.5 2386.87 -12543.77 1690 -13582.5 1690 -13582.5 3390 -12543.77 3390 -12542.5 2693.13 -12476.88 2627.5 -11517.5 2627.5 -11517.5 3586.87 -11342.5 3586.87 -11342.5 2627.5 -10383.12 2627.5 -10317.5 2693.13 -10316.23 3390 -10321.3 3441.46 -10336.31 3490.94 -10360.68 3536.54 -10393.49 3576.51 -10433.46 3609.32 -10479.06 3633.69 -10528.54 3648.7 -10580 3653.77 -11276.88 3652.5 -11342.5 3586.87 -11517.5 3586.87 -11583.13 3652.5 -12280 3653.77 -12331.46 3648.7 -12380.94 3633.69 -12426.54 3609.32 -12466.51 3576.51 -12499.32 3536.54 -12523.69 3490.94 -12538.7 3441.46 -12543.77 3390 -13582.5 3390 -13582.5 6012.72 -13571.92 6023.3 -13515.83 6107.24 -13477.2 6200.51 -13457.5 6299.52 -13457.5 6400.48 -13477.2 6499.49 -13515.83 6592.76 -13571.92 6676.7 -13643.3 6748.09 -13727.24 6804.17 -13820.51 6842.81 -13919.52 6862.5 -14020.48 6862.5 -14119.49 6842.81 -14212.76 6804.17 -14296.7 6748.09 -14368.08 6676.7 -14424.17 6592.76 -14462.8 6499.49 -14482.5 6400.48 -14482.5 6299.52 -14462.8 6200.51 -14424.17 6107.24 -14368.08 6023.3 -14357.5 6012.71 -14357.5 5671.69 -14414.7 5757.3 -14562.7 5905.3 -14736.72 6021.58 -14930.08 6101.67 -15135.35 6142.5 -15344.65 6142.5 -15549.92 6101.67 -15743.28 6021.58 -15917.3 5905.3 -16065.3 5757.3 -16181.57 5583.28 -16261.67 5389.92 -16272.5 5335.47 -16272.5 7532.5 -16233.03 7532.5 -16272.17 7367.93 -16238.26 7256.15 -16148.1 7068.39 -16023.03 6901.82 -15867.88 6762.86 -15688.59 6656.84 -15492.07 6587.83 -15327.5 6626.73 -15327.5 7532.5 -15152.5 7532.5 -15152.5 6626.73 -14987.93 6587.83 -14791.41 6656.84 -14612.12 6762.86 -14456.97 6901.82 -14331.9 7068.39 -14241.74 7256.15 -14207.83 7367.93 -14246.97 7532.5 -15152.5 7532.5 -15327.5 7532.5 -15347.5 7532.5 -15347.5 7707.5 -15327.5 7707.5 -15327.5 8613.27 -15152.5 8613.27 -15152.5 7707.5 -14246.97 7707.5 -14207.83 7872.07 -14241.74 7983.85 -14331.9 8171.61 -14456.97 8338.18 -14612.12 8477.14 -14791.41 8583.16 -14987.93 8652.17 -15152.5 8613.27 -15327.5 8613.27 -15492.07 8652.17 -15688.59 8583.16 -15867.88 8477.14 -16023.03 8338.18 -16148.1 8171.61 -16238.26 7983.85 -16272.17 7872.07 -16233.03 7707.5 -16272.5 7707.5 -16272.5 9904.53 -16261.67 9850.08" fill="none" stroke-width="125"/><path d="M -2927.5 22815.58 -2929.37 22796.55 -2921.89 22720.59 -2909.33 22679.17 -2899.73 22647.54 -2863.75 22580.22 -2815.33 22521.22 -2800.55 22509.09 -992.29 20700.84 -1021.67 20629.92 -1062.5 20424.65 -1062.5 20215.35 -1021.67 20010.08 -941.57 19816.72 -825.3 19642.7 -677.3 19494.7 -503.28 19378.42 -309.92 19298.33 -104.65 19257.5 104.65 19257.5 309.92 19298.33 503.28 19378.42 677.3 19494.7 825.3 19642.7 941.57 19816.72 1021.67 20010.08 1032.5 20064.53 1032.5 18035.47 1021.67 18089.92 941.57 18283.28 825.3 18457.3 677.3 18605.3 503.28 18721.57 309.92 18801.67 104.65 18842.5 -104.65 18842.5 -309.92 18801.67 -503.28 18721.57 -677.3 18605.3 -825.3 18457.3 -941.57 18283.28 -1021.67 18089.92 -1062.5 17884.65 -1062.5 17675.35 -1021.67 17470.08 -941.57 17276.72 -825.3 17102.7 -677.3 16954.7 -503.28 16838.42 -309.92 16758.33 -104.65 16717.5 104.65 16717.5 309.92 16758.33 503.28 16838.42 677.3 16954.7 825.3 17102.7 941.57 17276.72 1021.67 17470.08 1032.5 17524.53 1032.5 15495.47 1021.67 15549.92 941.57 15743.28 825.3 15917.3 677.3 16065.3 503.28 16181.57 309.92 16261.67 104.65 16302.5 -104.65 16302.5 -309.92 16261.67 -503.28 16181.57 -677.3 16065.3 -825.3 15917.3 -941.57 15743.28 -1015.82 15564.05 -1885.98 15564.05 -1905 15565.92 -1924.02 15564.05 -1924.03 15564.05 -1973.19 15559.2 -1980.96 15558.44 -2003.12 15551.72 -2054.01 15536.28 -2121.32 15500.3 -2180.33 15451.88 -2192.46 15437.1 -3907.05 13722.5 -5668.31 13722.5 -5640.82 13740.87 -5485.87 13895.82 -5364.12 14078.03 -5280.25 14280.5 -5237.5 14495.43 -5237.5 14714.57 -5280.25 14929.5 -5364.12 15131.97 -5485.87 15314.18 -5640.82 15469.13 -5823.03 15590.88 -6025.5 15674.75 -6240.43 15717.5 -6459.57 15717.5 -6674.5 15674.75 -6876.97 15590.88 -7059.18 15469.13 -7214.13 15314.18 -7335.88 15131.97 -7419.75 14929.5 -7462.5 14714.57 -7462.5 14495.43 -7419.75 14280.5 -7335.88 14078.03 -7214.13 13895.82 -7059.18 13740.87 -7031.69 13722.5 -7537.52 13722.5 -7556.55 13724.37 -7575.57 13722.5 -7632.51 13716.89 -7705.55 13694.74 -7772.87 13658.75 -7831.88 13610.33 -7844.01 13595.55 -8381.16 13058.39 -8565.5 13134.75 -8780.43 13177.5 -8999.57 13177.5 -9214.5 13134.75 -9416.97 13050.89 -9599.18 12929.14 -9754.13 12774.18 -9772.5 12746.69 -9772.5 13923.31 -9754.13 13895.82 -9599.18 13740.87 -9416.97 13619.12 -9214.5 13535.25 -8999.57 13492.5 -8780.43 13492.5 -8565.5 13535.25 -8363.03 13619.12 -8180.82 13740.87 -8025.86 13895.82 -7904.11 14078.03 -7820.25 14280.5 -7777.5 14495.43 -7777.5 14714.57 -7820.25 14929.5 -7904.11 15131.97 -8025.86 15314.18 -8180.82 15469.13 -8207.92 15487.24 -8191.55 15485.63 -8172.52 15487.5 -8115.58 15493.11 -8042.54 15515.26 -7975.22 15551.25 -7916.22 15599.67 -7904.09 15614.45 -7294.44 16224.1 -7279.66 16236.23 -7231.23 16295.24 -7195.25 16362.55 -7182.59 16404.28 -7059.18 16280.86 -6876.97 16159.11 -6674.5 16075.25 -6459.57 16032.5 -6240.43 16032.5 -6025.5 16075.25 -5823.03 16159.11 -5640.82 16280.86 -5485.87 16435.82 -5364.12 16618.03 -5280.25 16820.5 -5237.5 17035.43 -5237.5 17254.57 -5280.25 17469.5 -5364.12 17671.97 -5485.87 17854.18 -5640.82 18009.13 -5823.03 18130.88 -6025.5 18214.75 -6240.43 18257.5 -6459.57 18257.5 -6674.5 18214.75 -6876.97 18130.88 -7059.18 18009.13 -7167.49 17900.82 -7167.49 18881.65 -7029.61 18881.65 -6934.27 18731.96 -6737.11 18636.28 -6525.08 18580.91 -6306.32 18567.97 -6089.24 18597.96 -5882.18 18669.71 -5765.73 18731.96 -5670.39 18881.65 -6350 19561.26 -7029.61 18881.65 -7167.49 18881.65 -7167.49 19014.39 -7153.35 19005.39 -6473.74 19685 -6226.26 19685 -5546.65 19005.39 -5396.96 19100.73 -5301.28 19297.89 -5245.91 19509.92 -5232.97 19728.68 -5233.91 19735.48 -4957.5 19735.48 -4957.5 19634.52 -4937.8 19535.51 -4899.17 19442.24 -4843.08 19358.3 -4832.5 19347.71 -4832.5 15196.29 -4843.08 15185.7 -4899.17 15101.76 -4937.8 15008.49 -4957.5 14909.48 -4957.5 14808.52 -4937.8 14709.51 -4899.17 14616.24 -4843.08 14532.3 -4771.7 14460.91 -4687.76 14404.83 -4594.49 14366.19 -4495.48 14346.5 -4394.52 14346.5 -4295.51 14366.19 -4202.24 14404.83 -4118.3 14460.91 -4046.91 14532.3 -3990.83 14616.24 -3952.19 14709.51 -3932.5 14808.52 -3932.5 14909.48 -3952.19 15008.49 -3990.83 15101.76 -4046.91 15185.7 -4057.5 15196.28 -4057.5 19347.71 -4046.91 19358.3 -3990.83 19442.24 -3952.19 19535.51 -3932.5 19634.52 -3932.5 19735.48 -3952.19 19834.49 -3990.83 19927.76 -4046.91 20011.7 -4118.3 20083.08 -4202.24 20139.17 -4295.51 20177.8 -4394.52 20197.5 -4495.48 20197.5 -4594.49 20177.8 -4687.76 20139.17 -4771.7 20083.08 -4843.08 20011.7 -4899.17 19927.76 -4937.8 19834.49 -4957.5 19735.48 -5233.91 19735.48 -5262.96 19945.76 -5334.72 20152.82 -5396.96 20269.27 -5546.65 20364.61 -6226.26 19685 -6473.74 19685 -7153.35 20364.61 -7167.49 20355.61 -7167.49 20488.35 -7029.61 20488.35 -6350 19808.74 -5670.39 20488.35 -5765.73 20638.04 -5962.89 20733.72 -6174.92 20789.09 -6393.68 20802.03 -6610.76 20772.04 -6817.82 20700.28 -6934.27 20638.04 -7029.61 20488.35 -7167.49 20488.35 -7167.49 21887.72 -7156.9 21898.3 -7100.81 21982.24 -7062.18 22075.51 -7042.49 22174.52 -7042.49 22275.48 -7062.18 22374.49 -7100.81 22467.76 -7156.9 22551.7 -7228.29 22623.09 -7312.23 22679.17 -7405.5 22717.81 -7504.51 22737.5 -7605.46 22737.5 -7704.48 22717.81 -7797.75 22679.17 -7881.69 22623.09 -7953.07 22551.7 -8009.16 22467.76 -8047.79 22374.49 -8067.49 22275.48 -8067.49 22174.52 -8047.79 22075.51 -8009.16 21982.24 -7953.07 21898.3 -7942.49 21887.72 -7942.49 20269.39 -8025.86 20394.18 -8180.82 20549.13 -8363.03 20670.88 -8565.5 20754.75 -8780.43 20797.5 -8999.57 20797.5 -9214.5 20754.75 -9416.97 20670.88 -9599.18 20549.13 -9754.13 20394.18 -9875.88 20211.97 -9959.75 20009.5 -10002.5 19794.57 -10002.5 19575.43 -9959.75 19360.5 -9875.88 19158.03 -9754.13 18975.82 -9599.18 18820.86 -9416.97 18699.11 -9214.5 18615.25 -8999.57 18572.5 -8780.43 18572.5 -8565.5 18615.25 -8363.03 18699.11 -8180.82 18820.86 -8025.86 18975.82 -7942.49 19100.61 -7942.49 17729.39 -8025.86 17854.18 -8180.82 18009.13 -8363.03 18130.88 -8565.5 18214.75 -8780.43 18257.5 -8999.57 18257.5 -9214.5 18214.75 -9416.97 18130.88 -9599.18 18009.13 -9754.13 17854.18 -9875.88 17671.97 -9959.75 17469.5 -10002.5 17254.57 -10002.5 17035.43 -9959.75 16820.5 -9875.88 16618.03 -9754.13 16435.82 -9599.18 16280.86 -9572.07 16262.75 -9588.55 16264.37 -9607.57 16262.5 -9607.57 16262.5 -9656.74 16257.66 -9664.51 16256.89 -9683.9 16251.01 -9737.55 16234.73 -9804.87 16198.75 -9863.88 16150.33 -9876.01 16135.55 -10420.54 15591.01 -10435.33 15578.88 -10483.75 15519.87 -10519.74 15452.55 -10535.17 15401.67 -10541.89 15379.51 -10549.37 15303.55 -10547.5 15284.52 -10547.5 7484.59 -10547.5 7484.58 -10547.5 7449.28 -10558.09 7438.7 -10614.17 7354.76 -10652.81 7261.49 -10672.5 7162.48 -10672.5 7061.52 -10652.81 6962.51 -10614.17 6869.24 -10558.09 6785.3 -10486.7 6713.92 -10402.76 6657.83 -10309.49 6619.2 -10210.48 6599.5 -10109.52 6599.5 -10010.51 6619.2 -9917.24 6657.83 -9833.3 6713.92 -9761.91 6785.3 -9705.83 6869.24 -9667.19 6962.51 -9647.5 7061.52 -9647.5 7162.48 -9667.19 7261.49 -9705.83 7354.76 -9761.91 7438.7 -9772.5 7449.28 -9772.5 8496.25 -9686.61 8450.34 -9590.23 8421.1 -9490 8411.23 -8290 8411.23 -8189.77 8421.1 -8093.39 8450.34 -8004.56 8497.82 -7926.71 8561.71 -7862.82 8639.56 -7815.34 8728.39 -7786.1 8824.77 -7776.23 8925 -7776.23 9481.32 -7467.03 9481.32 -7437.04 9264.24 -7365.28 9057.18 -7303.04 8940.73 -7153.35 8845.39 -6473.74 9525 -6226.26 9525 -5546.65 8845.39 -5396.96 8940.73 -5301.28 9137.89 -5245.91 9349.92 -5232.97 9568.68 -5262.96 9785.76 -5334.72 9992.82 -5396.96 10109.27 -5546.65 10204.61 -6226.26 9525 -6473.74 9525 -7153.35 10204.61 -7303.04 10109.27 -7398.72 9912.11 -7454.09 9700.08 -7467.03 9481.32 -7776.23 9481.32 -7776.23 10027.31 -7396.04 10407.5 -6979.2 10407.5 -7029.61 10328.35 -6350 9648.74 -5670.39 10328.35 -5720.8 10407.5 -2065.51 10407.5 -1494.01 9836 -1481.88 9821.22 -1422.87 9772.79 -1355.56 9736.81 -1307.04 9722.1 -1282.51 9714.66 -1274.74 9713.89 -1225.57 9709.05 -1225.57 9709.05 -1206.55 9707.17 -1187.53 9709.05 -963.25 9709.05 -941.57 9656.72 -825.3 9482.7 -677.3 9334.7 -503.28 9218.42 -309.92 9138.33 -104.65 9097.5 104.65 9097.5 309.92 9138.33 503.28 9218.42 677.3 9334.7 825.3 9482.7 941.57 9656.72 1021.67 9850.08 1032.5 9904.53 1032.5 7875.46 1021.67 7929.92 941.57 8123.28 825.3 8297.3 677.3 8445.3 503.28 8561.57 309.92 8641.67 104.65 8682.5 -104.65 8682.5 -309.92 8641.67 -503.28 8561.57 -677.3 8445.3 -825.3 8297.3 -941.57 8123.28 -958.47 8082.5 -3434.49 8082.5 -2504.49 9012.5 -2489.52 9012.5 -2390.51 9032.19 -2297.24 9070.83 -2213.3 9126.91 -2141.91 9198.3 -2085.83 9282.24 -2047.19 9375.51 -2027.5 9474.52 -2027.5 9575.48 -2047.19 9674.49 -2085.83 9767.76 -2141.91 9851.7 -2213.3 9923.08 -2297.24 9979.17 -2390.51 10017.8 -2489.52 10037.5 -2590.48 10037.5 -2689.49 10017.8 -2782.76 9979.17 -2866.7 9923.08 -2938.09 9851.7 -2994.17 9767.76 -3032.81 9674.49 -3052.5 9575.48 -3052.5 9560.51 -3970.51 8642.5 -5720.8 8642.5 -5670.39 8721.65 -6350 9401.26 -7029.61 8721.65 -6980.09 8643.89 -6985 8644.37 -7004.02 8642.5 -7004.03 8642.5 -7053.19 8637.66 -7060.96 8636.89 -7083.12 8630.17 -7134.01 8614.73 -7201.32 8578.75 -7260.33 8530.33 -7272.46 8515.55 -7594.77 8193.24 -7609.55 8181.1 -7657.98 8122.1 -7693.96 8054.78 -7698.85 8038.67 -7716.12 7981.74 -7723.6 7905.77 -7721.73 7886.75 -7721.72 6083.26 -7723.6 6064.23 -7716.12 5988.26 -7698.85 5931.33 -7693.96 5915.22 -7657.98 5847.9 -7609.55 5788.9 -7594.77 5776.77 -4821.98 3003.97 -4879.75 2864.5 -4922.5 2649.57 -4922.5 2430.43 -4879.75 2215.5 -4803.39 2031.16 -5145.51 1689.05 -5627.64 1689.05 -5485.87 1830.82 -5364.12 2013.03 -5280.25 2215.5 -5237.5 2430.43 -5237.5 2649.57 -5280.25 2864.5 -5364.12 3066.97 -5485.87 3249.18 -5640.82 3404.14 -5823.03 3525.88 -6025.5 3609.75 -6240.43 3652.5 -6459.57 3652.5 -6674.5 3609.75 -6813.97 3551.98 -7459.54 4197.55 -7459.54 4197.55 -8602.54 5340.55 -8614.67 5355.33 -8673.67 5403.75 -8740.99 5439.74 -8814.04 5461.89 -8870.97 5467.5 -8890 5469.37 -8909.03 5467.5 -11269.49 5467.5 -11677.5 5875.51 -11677.5 12680.98 -11675.63 12700 -11677.5 12719.03 -11677.5 19524.49 -9899.45 21302.54 -9884.67 21314.67 -9836.25 21373.68 -9812.8 21417.54 -9800.26 21440.99 -9778.11 21514.04 -9770.63 21590 -9772.5 21609.03 -9772.5 22699.49 -9382.12 23089.87 -9344.17 22998.24 -9288.08 22914.3 -9216.7 22842.92 -9132.76 22786.83 -9039.49 22748.2 -8940.48 22728.5 -8839.52 22728.5 -8740.51 22748.2 -8647.24 22786.83 -8563.3 22842.92 -8491.91 22914.3 -8435.83 22998.24 -8397.19 23091.51 -8377.5 23190.52 -8377.5 23205.49 -8094.49 23488.5 -4083.02 23488.5 -4064 23486.63 -4044.97 23488.5 -3988.03 23494.11 -3914.99 23516.27 -3847.67 23552.25 -3788.67 23600.67 -3776.54 23615.46 -3139.49 24252.5 -3124.52 24252.5 -3025.51 24272.19 -2932.24 24310.83 -2927.5 24313.99 -2927.5 22815.58"/><path d="M -2927.5 22815.58 -2929.37 22796.55 -2921.89 22720.59 -2909.33 22679.17 -2899.73 22647.54 -2863.75 22580.22 -2815.33 22521.22 -2800.55 22509.09 -992.29 20700.84 -1021.67 20629.92 -1062.5 20424.65 -1062.5 20215.35 -1021.67 20010.08 -941.57 19816.72 -825.3 19642.7 -677.3 19494.7 -503.28 19378.42 -309.92 19298.33 -104.65 19257.5 104.65 19257.5 309.92 19298.33 503.28 19378.42 677.3 19494.7 825.3 19642.7 941.57 19816.72 1021.67 20010.08 1032.5 20064.53 1032.5 18035.47 1021.67 18089.92 941.57 18283.28 825.3 18457.3 677.3 18605.3 503.28 18721.57 309.92 18801.67 104.65 18842.5 -104.65 18842.5 -309.92 18801.67 -503.28 18721.57 -677.3 18605.3 -825.3 18457.3 -941.57 18283.28 -1021.67 18089.92 -1062.5 17884.65 -1062.5 17675.35 -1021.67 17470.08 -941.57 17276.72 -825.3 17102.7 -677.3 16954.7 -503.28 16838.42 -309.92 16758.33 -104.65 16717.5 104.65 16717.5 309.92 16758.33 503.28 16838.42 677.3 16954.7 825.3 17102.7 941.57 17276.72 1021.67 17470.08 1032.5 17524.53 1032.5 15495.47 1021.67 15549.92 941.57 15743.28 825.3 15917.3 677.3 16065.3 503.28 16181.57 309.92 16261.67 104.65 16302.5 -104.65 16302.5 -309.92 16261.67 -503.28 16181.57 -677.3 16065.3 -825.3 15917.3 -941.57 15743.28 -1015.82 15564.05 -1885.98 15564.05 -1905 15565.92 -1924.02 15564.05 -1924.03 15564.05 -1973.19 15559.2 -1980.96 15558.44 -2003.12 15551.72 -2054.01 15536.28 -2121.32 15500.3 -2180.33 15451.88 -2192.46 15437.1 -3907.05 13722.5 -5668.31 13722.5 -5640.82 13740.87 -5485.87 13895.82 -5364.12 14078.03 -5280.25 14280.5 -5237.5 14495.43 -5237.5 14714.57 -5280.25 14929.5 -5364.12 15131.97 -5485.87 15314.18 -5640.82 15469.13 -5823.03 15590.88 -6025.5 15674.75 -6240.43 15717.5 -6459.57 15717.5 -6674.5 15674.75 -6876.97 15590.88 -7059.18 15469.13 -7214.13 15314.18 -7335.88 15131.97 -7419.75 14929.5 -7462.5 14714.57 -7462.5 14495.43 -7419.75 14280.5 -7335.88 14078.03 -7214.13 13895.82 -7059.18 13740.87 -7031.69 13722.5 -7537.52 13722.5 -7556.55 13724.37 -7575.57 13722.5 -7632.51 13716.89 -7705.55 13694.74 -7772.87 13658.75 -7831.88 13610.33 -7844.01 13595.55 -8381.16 13058.39 -8565.5 13134.75 -8780.43 13177.5 -8999.57 13177.5 -9214.5 13134.75 -9416.97 13050.89 -9599.18 12929.14 -9754.13 12774.18 -9772.5 12746.69 -9772.5 13923.31 -9754.13 13895.82 -9599.18 13740.87 -9416.97 13619.12 -9214.5 13535.25 -8999.57 13492.5 -8780.43 13492.5 -8565.5 13535.25 -8363.03 13619.12 -8180.82 13740.87 -8025.86 13895.82 -7904.11 14078.03 -7820.25 14280.5 -7777.5 14495.43 -7777.5 14714.57 -7820.25 14929.5 -7904.11 15131.97 -8025.86 15314.18 -8180.82 15469.13 -8207.92 15487.24 -8191.55 15485.63 -8172.52 15487.5 -8115.58 15493.11 -8042.54 15515.26 -7975.22 15551.25 -7916.22 15599.67 -7904.09 15614.45 -7294.44 16224.1 -7279.66 16236.23 -7231.23 16295.24 -7195.25 16362.55 -7182.59 16404.28 -7059.18 16280.86 -6876.97 16159.11 -6674.5 16075.25 -6459.57 16032.5 -6240.43 16032.5 -6025.5 16075.25 -5823.03 16159.11 -5640.82 16280.86 -5485.87 16435.82 -5364.12 16618.03 -5280.25 16820.5 -5237.5 17035.43 -5237.5 17254.57 -5280.25 17469.5 -5364.12 17671.97 -5485.87 17854.18 -5640.82 18009.13 -5823.03 18130.88 -6025.5 18214.75 -6240.43 18257.5 -6459.57 18257.5 -6674.5 18214.75 -6876.97 18130.88 -7059.18 18009.13 -7167.49 17900.82 -7167.49 18881.65 -7029.61 18881.65 -6934.27 18731.96 -6737.11 18636.28 -6525.08 18580.91 -6306.32 18567.97 -6089.24 18597.96 -5882.18 18669.71 -5765.73 18731.96 -5670.39 18881.65 -6350 19561.26 -7029.61 18881.65 -7167.49 18881.65 -7167.49 19014.39 -7153.35 19005.39 -6473.74 19685 -6226.26 19685 -5546.65 19005.39 -5396.96 19100.73 -5301.28 19297.89 -5245.91 19509.92 -5232.97 19728.68 -5233.91 19735.48 -4957.5 19735.48 -4957.5 19634.52 -4937.8 19535.51 -4899.17 19442.24 -4843.08 19358.3 -4832.5 19347.71 -4832.5 15196.29 -4843.08 15185.7 -4899.17 15101.76 -4937.8 15008.49 -4957.5 14909.48 -4957.5 14808.52 -4937.8 14709.51 -4899.17 14616.24 -4843.08 14532.3 -4771.7 14460.91 -4687.76 14404.83 -4594.49 14366.19 -4495.48 14346.5 -4394.52 14346.5 -4295.51 14366.19 -4202.24 14404.83 -4118.3 14460.91 -4046.91 14532.3 -3990.83 14616.24 -3952.19 14709.51 -3932.5 14808.52 -3932.5 14909.48 -3952.19 15008.49 -3990.83 15101.76 -4046.91 15185.7 -4057.5 15196.28 -4057.5 19347.71 -4046.91 19358.3 -3990.83 19442.24 -3952.19 19535.51 -3932.5 19634.52 -3932.5 19735.48 -3952.19 19834.49 -3990.83 19927.76 -4046.91 20011.7 -4118.3 20083.08 -4202.24 20139.17 -4295.51 20177.8 -4394.52 20197.5 -4495.48 20197.5 -4594.49 20177.8 -4687.76 20139.17 -4771.7 20083.08 -4843.08 20011.7 -4899.17 19927.76 -4937.8 19834.49 -4957.5 19735.48 -5233.91 19735.48 -5262.96 19945.76 -5334.72 20152.82 -5396.96 20269.27 -5546.65 20364.61 -6226.26 19685 -6473.74 19685 -7153.35 20364.61 -7167.49 20355.61 -7167.49 20488.35 -7029.61 20488.35 -6350 19808.74 -5670.39 20488.35 -5765.73 20638.04 -5962.89 20733.72 -6174.92 20789.09 -6393.68 20802.03 -6610.76 20772.04 -6817.82 20700.28 -6934.27 20638.04 -7029.61 20488.35 -7167.49 20488.35 -7167.49 21887.72 -7156.9 21898.3 -7100.81 21982.24 -7062.18 22075.51 -7042.49 22174.52 -7042.49 22275.48 -7062.18 22374.49 -7100.81 22467.76 -7156.9 22551.7 -7228.29 22623.09 -7312.23 22679.17 -7405.5 22717.81 -7504.51 22737.5 -7605.46 22737.5 -7704.48 22717.81 -7797.75 22679.17 -7881.69 22623.09 -7953.07 22551.7 -8009.16 22467.76 -8047.79 22374.49 -8067.49 22275.48 -8067.49 22174.52 -8047.79 22075.51 -8009.16 21982.24 -7953.07 21898.3 -7942.49 21887.72 -7942.49 20269.39 -8025.86 20394.18 -8180.82 20549.13 -8363.03 20670.88 -8565.5 20754.75 -8780.43 20797.5 -8999.57 20797.5 -9214.5 20754.75 -9416.97 20670.88 -9599.18 20549.13 -9754.13 20394.18 -9875.88 20211.97 -9959.75 20009.5 -10002.5 19794.57 -10002.5 19575.43 -9959.75 19360.5 -9875.88 19158.03 -9754.13 18975.82 -9599.18 18820.86 -9416.97 18699.11 -9214.5 18615.25 -8999.57 18572.5 -8780.43 18572.5 -8565.5 18615.25 -8363.03 18699.11 -8180.82 18820.86 -8025.86 18975.82 -7942.49 19100.61 -7942.49 17729.39 -8025.86 17854.18 -8180.82 18009.13 -8363.03 18130.88 -8565.5 18214.75 -8780.43 18257.5 -8999.57 18257.5 -9214.5 18214.75 -9416.97 18130.88 -9599.18 18009.13 -9754.13 17854.18 -9875.88 17671.97 -9959.75 17469.5 -10002.5 17254.57 -10002.5 17035.43 -9959.75 16820.5 -9875.88 16618.03 -9754.13 16435.82 -9599.18 16280.86 -9572.07 16262.75 -9588.55 16264.37 -9607.57 16262.5 -9607.57 16262.5 -9656.74 16257.66 -9664.51 16256.89 -9683.9 16251.01 -9737.55 16234.73 -9804.87 16198.75 -9863.88 16150.33 -9876.01 16135.55 -10420.54 15591.01 -10435.33 15578.88 -10483.75 15519.87 -10519.74 15452.55 -10535.17 15401.67 -10541.89 15379.51 -10549.37 15303.55 -10547.5 15284.52 -10547.5 7484.59 -10547.5 7484.58 -10547.5 7449.28 -10558.09 7438.7 -10614.17 7354.76 -10652.81 7261.49 -10672.5 7162.48 -10672.5 7061.52 -10652.81 6962.51 -10614.17 6869.24 -10558.09 6785.3 -10486.7 6713.92 -10402.76 6657.83 -10309.49 6619.2 -10210.48 6599.5 -10109.52 6599.5 -10010.51 6619.2 -9917.24 6657.83 -9833.3 6713.92 -9761.91 6785.3 -9705.83 6869.24 -9667.19 6962.51 -9647.5 7061.52 -9647.5 7162.48 -9667.19 7261.49 -9705.83 7354.76 -9761.91 7438.7 -9772.5 7449.28 -9772.5 8496.25 -9686.61 8450.34 -9590.23 8421.1 -9490 8411.23 -8290 8411.23 -8189.77 8421.1 -8093.39 8450.34 -8004.56 8497.82 -7926.71 8561.71 -7862.82 8639.56 -7815.34 8728.39 -7786.1 8824.77 -7776.23 8925 -7776.23 9481.32 -7467.03 9481.32 -7437.04 9264.24 -7365.28 9057.18 -7303.04 8940.73 -7153.35 8845.39 -6473.74 9525 -6226.26 9525 -5546.65 8845.39 -5396.96 8940.73 -5301.28 9137.89 -5245.91 9349.92 -5232.97 9568.68 -5262.96 9785.76 -5334.72 9992.82 -5396.96 10109.27 -5546.65 10204.61 -6226.26 9525 -6473.74 9525 -7153.35 10204.61 -7303.04 10109.27 -7398.72 9912.11 -7454.09 9700.08 -7467.03 9481.32 -7776.23 9481.32 -7776.23 10027.31 -7396.04 10407.5 -6979.2 10407.5 -7029.61 10328.35 -6350 9648.74 -5670.39 10328.35 -5720.8 10407.5 -2065.51 10407.5 -1494.01 9836 -1481.88 9821.22 -1422.87 9772.79 -1355.56 9736.81 -1307.04 9722.1 -1282.51 9714.66 -1274.74 9713.89 -1225.57 9709.05 -1225.57 9709.05 -1206.55 9707.17 -1187.53 9709.05 -963.25 9709.05 -941.57 9656.72 -825.3 9482.7 -677.3 9334.7 -503.28 9218.42 -309.92 9138.33 -104.65 9097.5 104.65 9097.5 309.92 9138.33 503.28 9218.42 677.3 9334.7 825.3 9482.7 941.57 9656.72 1021.67 9850.08 1032.5 9904.53 1032.5 7875.46 1021.67 7929.92 941.57 8123.28 825.3 8297.3 677.3 8445.3 503.28 8561.57 309.92 8641.67 104.65 8682.5 -104.65 8682.5 -309.92 8641.67 -503.28 8561.57 -677.3 8445.3 -825.3 8297.3 -941.57 8123.28 -958.47 8082.5 -3434.49 8082.5 -2504.49 9012.5 -2489.52 9012.5 -2390.51 9032.19 -2297.24 9070.83 -2213.3 9126.91 -2141.91 9198.3 -2085.83 9282.24 -2047.19 9375.51 -2027.5 9474.52 -2027.5 9575.48 -2047.19 9674.49 -2085.83 9767.76 -2141.91 9851.7 -2213.3 9923.08 -2297.24 9979.17 -2390.51 10017.8 -2489.52 10037.5 -2590.48 10037.5 -2689.49 10017.8 -2782.76 9979.17 -2866.7 9923.08 -2938.09 9851.7 -2994.17 9767.76 -3032.81 9674.49 -3052.5 9575.48 -3052.5 9560.51 -3970.51 8642.5 -5720.8 8642.5 -5670.39 8721.65 -6350 9401.26 -7029.61 8721.65 -6980.09 8643.89 -6985 8644.37 -7004.02 8642.5 -7004.03 8642.5 -7053.19 8637.66 -7060.96 8636.89 -7083.12 8630.17 -7134.01 8614.73 -7201.32 8578.75 -7260.33 8530.33 -7272.46 8515.55 -7594.77 8193.24 -7609.55 8181.1 -7657.98 8122.1 -7693.96 8054.78 -7698.85 8038.67 -7716.12 7981.74 -7723.6 7905.77 -7721.73 7886.75 -7721.72 6083.26 -7723.6 6064.23 -7716.12 5988.26 -7698.85 5931.33 -7693.96 5915.22 -7657.98 5847.9 -7609.55 5788.9 -7594.77 5776.77 -4821.98 3003.97 -4879.75 2864.5 -4922.5 2649.57 -4922.5 2430.43 -4879.75 2215.5 -4803.39 2031.16 -5145.51 1689.05 -5627.64 1689.05 -5485.87 1830.82 -5364.12 2013.03 -5280.25 2215.5 -5237.5 2430.43 -5237.5 2649.57 -5280.25 2864.5 -5364.12 3066.97 -5485.87 3249.18 -5640.82 3404.14 -5823.03 3525.88 -6025.5 3609.75 -6240.43 3652.5 -6459.57 3652.5 -6674.5 3609.75 -6813.97 3551.98 -7459.54 4197.55 -7459.54 4197.55 -8602.54 5340.55 -8614.67 5355.33 -8673.67 5403.75 -8740.99 5439.74 -8814.04 5461.89 -8870.97 5467.5 -8890 5469.37 -8909.03 5467.5 -11269.49 5467.5 -11677.5 5875.51 -11677.5 12680.98 -11675.63 12700 -11677.5 12719.03 -11677.5 19524.49 -9899.45 21302.54 -9884.67 21314.67 -9836.25 21373.68 -9812.8 21417.54 -9800.26 21440.99 -9778.11 21514.04 -9770.63 21590 -9772.5 21609.03 -9772.5 22699.49 -9382.12 23089.87 -9344.17 22998.24 -9288.08 22914.3 -9216.7 22842.92 -9132.76 22786.83 -9039.49 22748.2 -8940.48 22728.5 -8839.52 22728.5 -8740.51 22748.2 -8647.24 22786.83 -8563.3 22842.92 -8491.91 22914.3 -8435.83 22998.24 -8397.19 23091.51 -8377.5 23190.52 -8377.5 23205.49 -8094.49 23488.5 -4083.02 23488.5 -4064 23486.63 -4044.97 23488.5 -3988.03 23494.11 -3914.99 23516.27 -3847.67 23552.25 -3788.67 23600.67 -3776.54 23615.46 -3139.49 24252.5 -3124.52 24252.5 -3025.51 24272.19 -2932.24 24310.83 -2927.5 24313.99 -2927.5 22815.58" fill="none" stroke-width="125"/><path d="M -6804.17 7862.76 -6842.81 7769.49 -6862.5 7670.48 -6862.5 7569.52 -6842.81 7470.51 -6804.17 7377.24 -6748.09 7293.3 -6676.7 7221.91 -6592.76 7165.83 -6499.49 7127.19 -6400.48 7107.5 -6385.51 7107.5 -5367.46 6089.45 -5355.33 6074.67 -5296.33 6026.25 -5229.01 5990.27 -5180.5 5975.55 -5155.96 5968.11 -5148.19 5967.34 -5099.03 5962.5 -5099.02 5962.5 -5080 5960.63 -5060.98 5962.5 -3335.51 5962.5 -3052.5 5679.49 -3052.5 5664.52 -3032.81 5565.51 -2994.17 5472.24 -2938.09 5388.3 -2927.5 5377.72 -2927.5 5342.42 -2927.5 5342.41 -2927.5 3221.69 -2945.87 3249.18 -3100.82 3404.14 -3283.03 3525.88 -3485.5 3609.75 -3700.43 3652.5 -3919.57 3652.5 -4134.5 3609.75 -4273.97 3551.98 -6946.73 6224.73 -6946.73 7745.27 -6824.49 7867.5 -6801.01 7867.5 -6804.17 7862.76"/><path d="M -6804.17 7862.76 -6842.81 7769.49 -6862.5 7670.48 -6862.5 7569.52 -6842.81 7470.51 -6804.17 7377.24 -6748.09 7293.3 -6676.7 7221.91 -6592.76 7165.83 -6499.49 7127.19 -6400.48 7107.5 -6385.51 7107.5 -5367.46 6089.45 -5355.33 6074.67 -5296.33 6026.25 -5229.01 5990.27 -5180.5 5975.55 -5155.96 5968.11 -5148.19 5967.34 -5099.03 5962.5 -5099.02 5962.5 -5080 5960.63 -5060.98 5962.5 -3335.51 5962.5 -3052.5 5679.49 -3052.5 5664.52 -3032.81 5565.51 -2994.17 5472.24 -2938.09 5388.3 -2927.5 5377.72 -2927.5 5342.42 -2927.5 5342.41 -2927.5 3221.69 -2945.87 3249.18 -3100.82 3404.14 -3283.03 3525.88 -3485.5 3609.75 -3700.43 3652.5 -3919.57 3652.5 -4134.5 3609.75 -4273.97 3551.98 -6946.73 6224.73 -6946.73 7745.27 -6824.49 7867.5 -6801.01 7867.5 -6804.17 7862.76" fill="none" stroke-width="125"/><path d="M -5493.88 7784.07 -5515.5 7675.4 -5515.5 7564.6 -5493.88 7455.92 -5451.48 7353.56 -5389.92 7261.43 -5311.57 7183.08 -5219.44 7121.52 -5117.07 7079.12 -5008.4 7057.5 -4897.6 7057.5 -4788.92 7079.12 -4686.56 7121.52 -4632.71 7157.5 -958.47 7157.5 -941.57 7116.72 -825.3 6942.7 -677.3 6794.7 -503.28 6678.43 -309.92 6598.33 -104.65 6557.5 104.65 6557.5 309.92 6598.33 503.28 6678.43 677.3 6794.7 825.3 6942.7 941.57 7116.72 1021.67 7310.08 1032.5 7364.53 1032.5 5335.46 1021.67 5389.92 941.57 5583.28 825.3 5757.3 677.3 5905.3 503.28 6021.58 309.92 6101.67 104.65 6142.5 -104.65 6142.5 -309.92 6101.67 -475.31 6033.16 -482.13 6038.75 -549.44 6074.74 -622.49 6096.89 -679.43 6102.5 -698.45 6104.37 -717.48 6102.5 -2202.71 6102.5 -2213.3 6113.09 -2297.24 6169.17 -2390.51 6207.81 -2489.52 6227.5 -2504.49 6227.5 -2887.54 6610.55 -2899.67 6625.33 -2958.68 6673.75 -3025.99 6709.74 -3099.04 6731.89 -3155.97 6737.5 -3175 6739.37 -3194.03 6737.5 -4919.49 6737.5 -5837.5 7655.51 -5837.5 7670.48 -5857.2 7769.49 -5895.83 7862.76 -5899 7867.5 -5459.33 7867.5 -5493.88 7784.07"/><path d="M -5493.88 7784.07 -5515.5 7675.4 -5515.5 7564.6 -5493.88 7455.92 -5451.48 7353.56 -5389.92 7261.43 -5311.57 7183.08 -5219.44 7121.52 -5117.07 7079.12 -5008.4 7057.5 -4897.6 7057.5 -4788.92 7079.12 -4686.56 7121.52 -4632.71 7157.5 -958.47 7157.5 -941.57 7116.72 -825.3 6942.7 -677.3 6794.7 -503.28 6678.43 -309.92 6598.33 -104.65 6557.5 104.65 6557.5 309.92 6598.33 503.28 6678.43 677.3 6794.7 825.3 6942.7 941.57 7116.72 1021.67 7310.08 1032.5 7364.53 1032.5 5335.46 1021.67 5389.92 941.57 5583.28 825.3 5757.3 677.3 5905.3 503.28 6021.58 309.92 6101.67 104.65 6142.5 -104.65 6142.5 -309.92 6101.67 -475.31 6033.16 -482.13 6038.75 -549.44 6074.74 -622.49 6096.89 -679.43 6102.5 -698.45 6104.37 -717.48 6102.5 -2202.71 6102.5 -2213.3 6113.09 -2297.24 6169.17 -2390.51 6207.81 -2489.52 6227.5 -2504.49 6227.5 -2887.54 6610.55 -2899.67 6625.33 -2958.68 6673.75 -3025.99 6709.74 -3099.04 6731.89 -3155.97 6737.5 -3175 6739.37 -3194.03 6737.5 -4919.49 6737.5 -5837.5 7655.51 -5837.5 7670.48 -5857.2 7769.49 -5895.83 7862.76 -5899 7867.5 -5459.33 7867.5 -5493.88 7784.07" fill="none" stroke-width="125"/><path d="M 1032.5 12955.47 1021.67 13009.92 941.57 13203.28 825.3 13377.3 677.3 13525.3 503.28 13641.58 309.92 13721.67 104.65 13762.5 -104.65 13762.5 -309.92 13721.67 -503.28 13641.58 -677.3 13525.3 -825.3 13377.3 -941.57 13203.28 -1021.67 13009.92 -1062.5 12804.65 -1062.5 12595.35 -1021.67 12390.08 -941.57 12196.72 -825.3 12022.7 -677.3 11874.7 -503.28 11758.43 -309.92 11678.33 -104.65 11637.5 104.65 11637.5 309.92 11678.33 503.28 11758.43 677.3 11874.7 825.3 12022.7 941.57 12196.72 1021.67 12390.08 1032.5 12444.53 1032.5 10415.46 1021.67 10469.92 941.57 10663.28 825.3 10837.3 677.3 10985.3 503.28 11101.58 309.92 11181.67 104.65 11222.5 -104.65 11222.5 -309.92 11181.67 -503.28 11101.58 -677.3 10985.3 -825.3 10837.3 -941.57 10663.28 -1015.82 10484.05 -1046.04 10484.05 -1617.54 11055.55 -1629.67 11070.33 -1688.68 11118.75 -1755.99 11154.74 -1829.04 11176.89 -1885.97 11182.5 -1905 11184.37 -1924.03 11182.5 -5668.31 11182.5 -5640.82 11200.87 -5485.87 11355.82 -5364.12 11538.03 -5280.25 11740.5 -5237.5 11955.43 -5237.5 12174.57 -5280.25 12389.5 -5364.12 12591.97 -5485.87 12774.18 -5640.82 12929.14 -5668.31 12947.5 -3765.57 12947.5 -3746.55 12945.63 -3727.52 12947.5 -3670.58 12953.11 -3597.54 12975.27 -3530.22 13011.25 -3471.22 13059.67 -3459.09 13074.46 -1744.49 14789.05 -963.25 14789.05 -941.57 14736.72 -825.3 14562.7 -677.3 14414.7 -503.28 14298.42 -309.92 14218.33 -104.65 14177.5 104.65 14177.5 309.92 14218.33 503.28 14298.42 677.3 14414.7 825.3 14562.7 941.57 14736.72 1021.67 14930.08 1032.5 14984.53 1032.5 12955.47"/><path d="M 1032.5 12955.47 1021.67 13009.92 941.57 13203.28 825.3 13377.3 677.3 13525.3 503.28 13641.58 309.92 13721.67 104.65 13762.5 -104.65 13762.5 -309.92 13721.67 -503.28 13641.58 -677.3 13525.3 -825.3 13377.3 -941.57 13203.28 -1021.67 13009.92 -1062.5 12804.65 -1062.5 12595.35 -1021.67 12390.08 -941.57 12196.72 -825.3 12022.7 -677.3 11874.7 -503.28 11758.43 -309.92 11678.33 -104.65 11637.5 104.65 11637.5 309.92 11678.33 503.28 11758.43 677.3 11874.7 825.3 12022.7 941.57 12196.72 1021.67 12390.08 1032.5 12444.53 1032.5 10415.46 1021.67 10469.92 941.57 10663.28 825.3 10837.3 677.3 10985.3 503.28 11101.58 309.92 11181.67 104.65 11222.5 -104.65 11222.5 -309.92 11181.67 -503.28 11101.58 -677.3 10985.3 -825.3 10837.3 -941.57 10663.28 -1015.82 10484.05 -1046.04 10484.05 -1617.54 11055.55 -1629.67 11070.33 -1688.68 11118.75 -1755.99 11154.74 -1829.04 11176.89 -1885.97 11182.5 -1905 11184.37 -1924.03 11182.5 -5668.31 11182.5 -5640.82 11200.87 -5485.87 11355.82 -5364.12 11538.03 -5280.25 11740.5 -5237.5 11955.43 -5237.5 12174.57 -5280.25 12389.5 -5364.12 12591.97 -5485.87 12774.18 -5640.82 12929.14 -5668.31 12947.5 -3765.57 12947.5 -3746.55 12945.63 -3727.52 12947.5 -3670.58 12953.11 -3597.54 12975.27 -3530.22 13011.25 -3471.22 13059.67 -3459.09 13074.46 -1744.49 14789.05 -963.25 14789.05 -941.57 14736.72 -825.3 14562.7 -677.3 14414.7 -503.28 14298.42 -309.92 14218.33 -104.65 14177.5 104.65 14177.5 309.92 14218.33 503.28 14298.42 677.3 14414.7 825.3 14562.7 941.57 14736.72 1021.67 14930.08 1032.5 14984.53 1032.5 12955.47" fill="none" stroke-width="125"/><path d="M -11287.37 25577.8 -11282.3 25526.34 -11267.29 25476.86 -11242.92 25431.26 -11210.11 25391.29 -11170.14 25358.48 -11124.54 25334.11 -11075.06 25319.1 -11023.6 25314.03 -10547.5 25314.03 -10547.5 23909.51 -11055.55 23401.46 -11070.33 23389.33 -11118.75 23330.32 -11154.74 23263.01 -11161.41 23241 -11176.89 23189.96 -11184.37 23114 -11182.5 23094.97 -11182.5 22131.51 -12960.55 20353.46 -12975.33 20341.33 -13023.75 20282.32 -13059.74 20215.01 -13065.05 20197.5 -13081.89 20141.96 -13089.37 20066 -13087.5 20046.97 -13087.5 13672.29 -13098.09 13661.7 -13154.17 13577.76 -13192.81 13484.49 -13212.5 13385.48 -13212.5 13284.52 -13192.81 13185.51 -13154.17 13092.24 -13151.01 13087.5 -14250.47 13087.5 -14298.42 13203.28 -14414.7 13377.3 -14562.7 13525.3 -14736.72 13641.58 -14930.08 13721.67 -15135.35 13762.5 -15344.65 13762.5 -15549.92 13721.67 -15743.28 13641.58 -15917.3 13525.3 -16065.3 13377.3 -16181.57 13203.28 -16261.67 13009.92 -16272.5 12955.47 -16272.5 14984.53 -16261.67 14930.08 -16181.57 14736.72 -16065.3 14562.7 -15917.3 14414.7 -15743.28 14298.42 -15549.92 14218.33 -15344.65 14177.5 -15135.35 14177.5 -14930.08 14218.33 -14736.72 14298.42 -14562.7 14414.7 -14414.7 14562.7 -14298.42 14736.72 -14218.33 14930.08 -14177.5 15135.35 -14177.5 15344.65 -14218.33 15549.92 -14298.42 15743.28 -14414.7 15917.3 -14562.7 16065.3 -14736.72 16181.57 -14930.08 16261.67 -15135.35 16302.5 -15344.65 16302.5 -15549.92 16261.67 -15743.28 16181.57 -15917.3 16065.3 -16065.3 15917.3 -16181.57 15743.28 -16261.67 15549.92 -16272.5 15495.47 -16272.5 17524.53 -16261.67 17470.08 -16181.57 17276.72 -16065.3 17102.7 -15917.3 16954.7 -15743.28 16838.42 -15549.92 16758.33 -15344.65 16717.5 -15135.35 16717.5 -14930.08 16758.33 -14736.72 16838.42 -14562.7 16954.7 -14414.7 17102.7 -14298.42 17276.72 -14218.33 17470.08 -14177.5 17675.35 -14177.5 17884.65 -14218.33 18089.92 -14298.42 18283.28 -14414.7 18457.3 -14562.7 18605.3 -14736.72 18721.57 -14930.08 18801.67 -15135.35 18842.5 -15344.65 18842.5 -15549.92 18801.67 -15743.28 18721.57 -15917.3 18605.3 -16065.3 18457.3 -16181.57 18283.28 -16261.67 18089.92 -16272.5 18035.47 -16272.5 20064.53 -16261.67 20010.08 -16181.57 19816.72 -16065.3 19642.7 -15917.3 19494.7 -15743.28 19378.42 -15549.92 19298.33 -15344.65 19257.5 -15135.35 19257.5 -14930.08 19298.33 -14736.72 19378.42 -14562.7 19494.7 -14414.7 19642.7 -14298.42 19816.72 -14218.33 20010.08 -14177.5 20215.35 -14177.5 20424.65 -14218.33 20629.92 -14298.42 20823.28 -14414.7 20997.3 -14562.7 21145.3 -14736.72 21261.58 -14930.08 21341.67 -15135.35 21382.5 -15344.65 21382.5 -15549.92 21341.67 -15743.28 21261.58 -15917.3 21145.3 -16065.3 20997.3 -16181.57 20823.28 -16261.67 20629.92 -16272.5 20575.47 -16272.5 22604.53 -16261.67 22550.08 -16181.57 22356.72 -16065.3 22182.7 -15917.3 22034.7 -15743.28 21918.43 -15549.92 21838.33 -15344.65 21797.5 -15135.35 21797.5 -14930.08 21838.33 -14736.72 21918.43 -14562.7 22034.7 -14414.7 22182.7 -14298.42 22356.72 -14218.33 22550.08 -14177.5 22755.35 -14177.5 22964.65 -14218.33 23169.92 -14298.42 23363.28 -14414.7 23537.3 -14562.7 23685.3 -14736.72 23801.58 -14930.08 23881.67 -15135.35 23922.5 -15344.65 23922.5 -15549.92 23881.67 -15743.28 23801.58 -15917.3 23685.3 -16065.3 23537.3 -16181.57 23363.28 -16261.67 23169.92 -16272.5 23115.47 -16272.5 25144.53 -16261.67 25090.08 -16181.57 24896.72 -16065.3 24722.7 -15917.3 24574.7 -15743.28 24458.43 -15549.92 24378.33 -15344.65 24337.5 -15135.35 24337.5 -14930.08 24378.33 -14736.72 24458.43 -14562.7 24574.7 -14414.7 24722.7 -14298.42 24896.72 -14276.1 24950.61 -14276.1 24702.64 -14277.97 24683.6 -14270.49 24607.64 -14257.97 24566.36 -14248.33 24534.59 -14212.35 24467.28 -14163.93 24408.27 -14149.15 24396.14 -13847.5 24094.49 -13847.5 24079.52 -13827.81 23980.51 -13789.17 23887.24 -13733.09 23803.3 -13661.7 23731.92 -13577.76 23675.83 -13484.49 23637.2 -13385.48 23617.5 -13284.52 23617.5 -13185.51 23637.2 -13092.24 23675.83 -13008.3 23731.92 -12936.92 23803.3 -12880.83 23887.24 -12842.2 23980.51 -12822.5 24079.52 -12822.5 24180.48 -12842.2 24279.49 -12880.83 24372.76 -12936.92 24456.7 -13008.3 24528.09 -13092.24 24584.17 -13185.51 24622.81 -13284.52 24642.5 -13299.49 24642.5 -13501.1 24844.11 -13501.1 25314.03 -13162.5 25314.03 -13162.5 25200.52 -13164.74 25177.8 -13155.81 25087.14 -13130.1 25002.4 -13129.36 24999.95 -13086.41 24919.61 -13028.62 24849.18 -13010.97 24834.7 -12728.9 24552.63 -12728.9 23229.2 -12764.89 23175.35 -12807.29 23072.98 -12828.9 22964.31 -12828.9 22853.5 -12807.29 22744.83 -12764.89 22642.46 -12703.33 22550.33 -12624.98 22471.98 -12532.85 22410.42 -12430.48 22368.02 -12321.81 22346.4 -12211 22346.4 -12102.33 22368.02 -11999.96 22410.42 -11907.83 22471.98 -11829.48 22550.33 -11767.92 22642.46 -11725.52 22744.83 -11703.9 22853.5 -11703.9 22964.31 -11725.52 23072.98 -11767.92 23175.35 -11803.9 23229.2 -11803.9 24721.49 -11801.67 24744.21 -11810.6 24834.87 -11820.29 24866.82 -11837.04 24922.05 -11879.99 25002.4 -11937.79 25072.82 -11955.43 25087.3 -12182.16 25314.03 -11836.4 25314.03 -11784.94 25319.1 -11735.46 25334.11 -11689.86 25358.48 -11649.89 25391.29 -11617.08 25431.26 -11592.71 25476.86 -11577.7 25526.34 -11572.63 25577.8 -11572.63 28972.5 -11287.37 28972.5 -11287.37 25577.8"/><path d="M -11287.37 25577.8 -11282.3 25526.34 -11267.29 25476.86 -11242.92 25431.26 -11210.11 25391.29 -11170.14 25358.48 -11124.54 25334.11 -11075.06 25319.1 -11023.6 25314.03 -10547.5 25314.03 -10547.5 23909.51 -11055.55 23401.46 -11070.33 23389.33 -11118.75 23330.32 -11154.74 23263.01 -11161.41 23241 -11176.89 23189.96 -11184.37 23114 -11182.5 23094.97 -11182.5 22131.51 -12960.55 20353.46 -12975.33 20341.33 -13023.75 20282.32 -13059.74 20215.01 -13065.05 20197.5 -13081.89 20141.96 -13089.37 20066 -13087.5 20046.97 -13087.5 13672.29 -13098.09 13661.7 -13154.17 13577.76 -13192.81 13484.49 -13212.5 13385.48 -13212.5 13284.52 -13192.81 13185.51 -13154.17 13092.24 -13151.01 13087.5 -14250.47 13087.5 -14298.42 13203.28 -14414.7 13377.3 -14562.7 13525.3 -14736.72 13641.58 -14930.08 13721.67 -15135.35 13762.5 -15344.65 13762.5 -15549.92 13721.67 -15743.28 13641.58 -15917.3 13525.3 -16065.3 13377.3 -16181.57 13203.28 -16261.67 13009.92 -16272.5 12955.47 -16272.5 14984.53 -16261.67 14930.08 -16181.57 14736.72 -16065.3 14562.7 -15917.3 14414.7 -15743.28 14298.42 -15549.92 14218.33 -15344.65 14177.5 -15135.35 14177.5 -14930.08 14218.33 -14736.72 14298.42 -14562.7 14414.7 -14414.7 14562.7 -14298.42 14736.72 -14218.33 14930.08 -14177.5 15135.35 -14177.5 15344.65 -14218.33 15549.92 -14298.42 15743.28 -14414.7 15917.3 -14562.7 16065.3 -14736.72 16181.57 -14930.08 16261.67 -15135.35 16302.5 -15344.65 16302.5 -15549.92 16261.67 -15743.28 16181.57 -15917.3 16065.3 -16065.3 15917.3 -16181.57 15743.28 -16261.67 15549.92 -16272.5 15495.47 -16272.5 17524.53 -16261.67 17470.08 -16181.57 17276.72 -16065.3 17102.7 -15917.3 16954.7 -15743.28 16838.42 -15549.92 16758.33 -15344.65 16717.5 -15135.35 16717.5 -14930.08 16758.33 -14736.72 16838.42 -14562.7 16954.7 -14414.7 17102.7 -14298.42 17276.72 -14218.33 17470.08 -14177.5 17675.35 -14177.5 17884.65 -14218.33 18089.92 -14298.42 18283.28 -14414.7 18457.3 -14562.7 18605.3 -14736.72 18721.57 -14930.08 18801.67 -15135.35 18842.5 -15344.65 18842.5 -15549.92 18801.67 -15743.28 18721.57 -15917.3 18605.3 -16065.3 18457.3 -16181.57 18283.28 -16261.67 18089.92 -16272.5 18035.47 -16272.5 20064.53 -16261.67 20010.08 -16181.57 19816.72 -16065.3 19642.7 -15917.3 19494.7 -15743.28 19378.42 -15549.92 19298.33 -15344.65 19257.5 -15135.35 19257.5 -14930.08 19298.33 -14736.72 19378.42 -14562.7 19494.7 -14414.7 19642.7 -14298.42 19816.72 -14218.33 20010.08 -14177.5 20215.35 -14177.5 20424.65 -14218.33 20629.92 -14298.42 20823.28 -14414.7 20997.3 -14562.7 21145.3 -14736.72 21261.58 -14930.08 21341.67 -15135.35 21382.5 -15344.65 21382.5 -15549.92 21341.67 -15743.28 21261.58 -15917.3 21145.3 -16065.3 20997.3 -16181.57 20823.28 -16261.67 20629.92 -16272.5 20575.47 -16272.5 22604.53 -16261.67 22550.08 -16181.57 22356.72 -16065.3 22182.7 -15917.3 22034.7 -15743.28 21918.43 -15549.92 21838.33 -15344.65 21797.5 -15135.35 21797.5 -14930.08 21838.33 -14736.72 21918.43 -14562.7 22034.7 -14414.7 22182.7 -14298.42 22356.72 -14218.33 22550.08 -14177.5 22755.35 -14177.5 22964.65 -14218.33 23169.92 -14298.42 23363.28 -14414.7 23537.3 -14562.7 23685.3 -14736.72 23801.58 -14930.08 23881.67 -15135.35 23922.5 -15344.65 23922.5 -15549.92 23881.67 -15743.28 23801.58 -15917.3 23685.3 -16065.3 23537.3 -16181.57 23363.28 -16261.67 23169.92 -16272.5 23115.47 -16272.5 25144.53 -16261.67 25090.08 -16181.57 24896.72 -16065.3 24722.7 -15917.3 24574.7 -15743.28 24458.43 -15549.92 24378.33 -15344.65 24337.5 -15135.35 24337.5 -14930.08 24378.33 -14736.72 24458.43 -14562.7 24574.7 -14414.7 24722.7 -14298.42 24896.72 -14276.1 24950.61 -14276.1 24702.64 -14277.97 24683.6 -14270.49 24607.64 -14257.97 24566.36 -14248.33 24534.59 -14212.35 24467.28 -14163.93 24408.27 -14149.15 24396.14 -13847.5 24094.49 -13847.5 24079.52 -13827.81 23980.51 -13789.17 23887.24 -13733.09 23803.3 -13661.7 23731.92 -13577.76 23675.83 -13484.49 23637.2 -13385.48 23617.5 -13284.52 23617.5 -13185.51 23637.2 -13092.24 23675.83 -13008.3 23731.92 -12936.92 23803.3 -12880.83 23887.24 -12842.2 23980.51 -12822.5 24079.52 -12822.5 24180.48 -12842.2 24279.49 -12880.83 24372.76 -12936.92 24456.7 -13008.3 24528.09 -13092.24 24584.17 -13185.51 24622.81 -13284.52 24642.5 -13299.49 24642.5 -13501.1 24844.11 -13501.1 25314.03 -13162.5 25314.03 -13162.5 25200.52 -13164.74 25177.8 -13155.81 25087.14 -13130.1 25002.4 -13129.36 24999.95 -13086.41 24919.61 -13028.62 24849.18 -13010.97 24834.7 -12728.9 24552.63 -12728.9 23229.2 -12764.89 23175.35 -12807.29 23072.98 -12828.9 22964.31 -12828.9 22853.5 -12807.29 22744.83 -12764.89 22642.46 -12703.33 22550.33 -12624.98 22471.98 -12532.85 22410.42 -12430.48 22368.02 -12321.81 22346.4 -12211 22346.4 -12102.33 22368.02 -11999.96 22410.42 -11907.83 22471.98 -11829.48 22550.33 -11767.92 22642.46 -11725.52 22744.83 -11703.9 22853.5 -11703.9 22964.31 -11725.52 23072.98 -11767.92 23175.35 -11803.9 23229.2 -11803.9 24721.49 -11801.67 24744.21 -11810.6 24834.87 -11820.29 24866.82 -11837.04 24922.05 -11879.99 25002.4 -11937.79 25072.82 -11955.43 25087.3 -12182.16 25314.03 -11836.4 25314.03 -11784.94 25319.1 -11735.46 25334.11 -11689.86 25358.48 -11649.89 25391.29 -11617.08 25431.26 -11592.71 25476.86 -11577.7 25526.34 -11572.63 25577.8 -11572.63 28972.5 -11287.37 28972.5 -11287.37 25577.8" fill="none" stroke-width="125"/></g><g id="or2VVVZAFTDS_bottom_drill1"><use xlink:href="#lWQAQKCVPeGv_pad-1" x="-13970" y="21590"/><use xlink:href="#lWQAQKCVPeGv_pad-1" x="-13970" y="19050"/><use xlink:href="#lWQAQKCVPeGv_pad-1" x="-13970" y="6350"/><use xlink:href="#lWQAQKCVPeGv_pad-1" x="-13335" y="24130"/><use xlink:href="#lWQAQKCVPeGv_pad-1" x="-13335" y="15240"/><use xlink:href="#lWQAQKCVPeGv_pad-1" x="-12700" y="13335"/><use xlink:href="#lWQAQKCVPeGv_pad-1" x="-11430" y="25019"/><use xlink:href="#lWQAQKCVPeGv_pad-1" x="-11176" y="10795"/><use xlink:href="#lWQAQKCVPeGv_pad-1" x="-11176" y="8382"/><use xlink:href="#lWQAQKCVPeGv_pad-1" x="-10160" y="7112"/><use xlink:href="#lWQAQKCVPeGv_pad-1" x="-10160" y="5715"/><use xlink:href="#lWQAQKCVPeGv_pad-1" x="-9525" y="0"/><use xlink:href="#lWQAQKCVPeGv_pad-1" x="-8890" y="23241"/><use xlink:href="#lWQAQKCVPeGv_pad-1" x="-8890" y="21590"/><use xlink:href="#lWQAQKCVPeGv_pad-1" x="-8890" y="7620"/><use xlink:href="#lWQAQKCVPeGv_pad-1" x="-7555" y="22225"/><use xlink:href="#lWQAQKCVPeGv_pad-1" x="-6350" y="7620"/><use xlink:href="#lWQAQKCVPeGv_pad-1" x="-5080" y="24511"/><use xlink:href="#lWQAQKCVPeGv_pad-1" x="-5080" y="5080"/><use xlink:href="#lWQAQKCVPeGv_pad-1" x="-4826" y="11811"/><use xlink:href="#lWQAQKCVPeGv_pad-1" x="-4445" y="19685"/><use xlink:href="#lWQAQKCVPeGv_pad-1" x="-4445" y="14859"/><use xlink:href="#lWQAQKCVPeGv_pad-1" x="-4064" y="9525"/><use xlink:href="#lWQAQKCVPeGv_pad-1" x="-3175" y="3810"/><use xlink:href="#lWQAQKCVPeGv_pad-1" x="-3175" y="24765"/><use xlink:href="#lWQAQKCVPeGv_pad-1" x="-2540" y="9525"/><use xlink:href="#lWQAQKCVPeGv_pad-1" x="-2540" y="5715"/><use xlink:href="#lWQAQKCVPeGv_pad-1" x="-1905" y="8890"/><use xlink:href="#lWQAQKCVPeGv_pad-1" x="-1905" y="6731"/><use xlink:href="#lWQAQKCVPeGv_pad-1" x="-1905" y="3810"/><use xlink:href="#lWQAQKCVPeGv_pad-2" x="-12266" y="22909"/><use xlink:href="#lWQAQKCVPeGv_pad-2" x="-5207" y="21717"/><use xlink:href="#lWQAQKCVPeGv_pad-2" x="-4953" y="7620"/><use xlink:href="#lWQAQKCVPeGv_pad-2" x="-3175" y="16447"/><use xlink:href="#lWQAQKCVPeGv_pad-2" x="-2540" y="21590"/><use xlink:href="#lWQAQKCVPeGv_pad-2" x="-2540" y="19050"/><use xlink:href="#lWQAQKCVPeGv_pad-2" x="-2159" y="1080"/><use xlink:href="#lWQAQKCVPeGv_pad-2" x="-1270" y="16447"/><use xlink:href="#lWQAQKCVPeGv_pad-2" x="-1270" y="13907"/><use xlink:href="#lWQAQKCVPeGv_pad-2" x="-1270" y="11367"/><use xlink:href="#lWQAQKCVPeGv_pad-3" x="-15240" y="27940"/><use xlink:href="#lWQAQKCVPeGv_pad-3" x="-15240" y="25400"/><use xlink:href="#lWQAQKCVPeGv_pad-3" x="-15240" y="22860"/><use xlink:href="#lWQAQKCVPeGv_pad-3" x="-15240" y="20320"/><use xlink:href="#lWQAQKCVPeGv_pad-3" x="-15240" y="17780"/><use xlink:href="#lWQAQKCVPeGv_pad-3" x="-15240" y="15240"/><use xlink:href="#lWQAQKCVPeGv_pad-3" x="-15240" y="12700"/><use xlink:href="#lWQAQKCVPeGv_pad-3" x="-15240" y="10160"/><use xlink:href="#lWQAQKCVPeGv_pad-3" x="-15240" y="7620"/><use xlink:href="#lWQAQKCVPeGv_pad-3" x="-15240" y="5080"/><use xlink:href="#lWQAQKCVPeGv_pad-3" x="-15240" y="2540"/><use xlink:href="#lWQAQKCVPeGv_pad-3" x="-15240" y="0"/><use xlink:href="#lWQAQKCVPeGv_pad-3" x="0" y="27940"/><use xlink:href="#lWQAQKCVPeGv_pad-3" x="0" y="25400"/><use xlink:href="#lWQAQKCVPeGv_pad-3" x="0" y="22860"/><use xlink:href="#lWQAQKCVPeGv_pad-3" x="0" y="20320"/><use xlink:href="#lWQAQKCVPeGv_pad-3" x="0" y="17780"/><use xlink:href="#lWQAQKCVPeGv_pad-3" x="0" y="15240"/><use xlink:href="#lWQAQKCVPeGv_pad-3" x="0" y="12700"/><use xlink:href="#lWQAQKCVPeGv_pad-3" x="0" y="10160"/><use xlink:href="#lWQAQKCVPeGv_pad-3" x="0" y="7620"/><use xlink:href="#lWQAQKCVPeGv_pad-3" x="0" y="5080"/><use xlink:href="#lWQAQKCVPeGv_pad-3" x="0" y="2540"/><use xlink:href="#lWQAQKCVPeGv_pad-3" x="0" y="0"/><use xlink:href="#lWQAQKCVPeGv_pad-3" x="-8890" y="19685"/><use xlink:href="#lWQAQKCVPeGv_pad-3" x="-8890" y="17145"/><use xlink:href="#lWQAQKCVPeGv_pad-3" x="-8890" y="14605"/><use xlink:href="#lWQAQKCVPeGv_pad-3" x="-8890" y="12065"/><use xlink:href="#lWQAQKCVPeGv_pad-3" x="-8890" y="9525"/><use xlink:href="#lWQAQKCVPeGv_pad-3" x="-6350" y="19685"/><use xlink:href="#lWQAQKCVPeGv_pad-3" x="-6350" y="17145"/><use xlink:href="#lWQAQKCVPeGv_pad-3" x="-6350" y="14605"/><use xlink:href="#lWQAQKCVPeGv_pad-3" x="-6350" y="12065"/><use xlink:href="#lWQAQKCVPeGv_pad-3" x="-6350" y="9525"/><use xlink:href="#lWQAQKCVPeGv_pad-3" x="-11430" y="2540"/><use xlink:href="#lWQAQKCVPeGv_pad-3" x="-8890" y="2540"/><use xlink:href="#lWQAQKCVPeGv_pad-3" x="-6350" y="2540"/><use xlink:href="#lWQAQKCVPeGv_pad-3" x="-3810" y="2540"/></g><clipPath id="or2VVVZAFTDS_bottom_outline"><path d="M 1270 28575 1270 -635 A 635 635 0 0 0 635 -1270 L -15875 -1270 A 635 635 0 0 0 -16510 -635 L -16510 28575 A 635 635 0 0 0 -15875 29210 L 635 29210 A 635 635 0 0 0 1270 28575" fill="none" stroke-width="100"/></clipPath><mask id="or2VVVZAFTDS_bottom_mech-mask"><g fill="#000" stroke="#000"><rect x="-16510" y="-1270" width="17780" height="30480" fill="#fff"/><use xlink:href="#or2VVVZAFTDS_bottom_drill1"/></g></mask><mask id="or2VVVZAFTDS_bottom_cf-mask"><g fill="#fff" stroke="#fff"><use xlink:href="#or2VVVZAFTDS_bottom_soldermask"/></g></mask><mask id="or2VVVZAFTDS_bottom_sm-mask"><g fill="#000" stroke="#000"><rect x="-16510" y="-1270" width="17780" height="30480" fill="#fff"/><use xlink:href="#or2VVVZAFTDS_bottom_soldermask"/></g></mask></defs><g transform="translate(0,27940) scale(1,-1)"><g mask="url(#or2VVVZAFTDS_bottom_mech-mask)" clip-path="url(#or2VVVZAFTDS_bottom_outline)" transform="translate(-15240,0) scale(-1,1)"><rect x="-16510" y="-1270" width="17780" height="30480" fill="currentColor" class="or2VVVZAFTDS_fr4"/><use xlink:href="#or2VVVZAFTDS_bottom_copper" fill="currentColor" stroke="currentColor" class="or2VVVZAFTDS_cu"/><use xlink:href="#or2VVVZAFTDS_bottom_copper" fill="currentColor" stroke="currentColor" class="or2VVVZAFTDS_cf" mask="url(#or2VVVZAFTDS_bottom_cf-mask)"/><g mask="url(#or2VVVZAFTDS_bottom_sm-mask)"><rect x="-16510" y="-1270" width="17780" height="30480" fill="currentColor" class="or2VVVZAFTDS_sm"/><use xlink:href="#or2VVVZAFTDS_bottom_silkscreen" fill="currentColor" stroke="currentColor" class="or2VVVZAFTDS_ss"/></g></g></g></svg>