<svg version="1.1" xmlns="http://www.w3.org/2000/svg" xmlns:xlink="http://www.w3.org/1999/xlink" stroke-linecap="round" stroke-linejoin="round" stroke-width="0" fill-rule="evenodd" width="17.88mm" height="28.04mm" viewBox="-1320 -1320 17880 28040"><g transform="translate(0,25400) scale(1,-1)" fill="currentColor" stroke="currentColor"><path d="M -1270 -635 -1270 26035 M 16510 26035 16510 -635 A 635 635 0 0 0 15875 -1270 M -635 -1270 A 635 635 0 0 0 -1270 -635 M -1270 26035 A 635 635 0 0 0 -635 26670 M 15875 26670 A 635 635 0 0 0 16510 26035 M 15875 26670 -635 26670 M -635 -1270 15875 -1270" fill="none" stroke-width="100"/><path d="M 2207 26241 8207 26241 M 2207 26241 2207 20241 8207 20241 8207 26241 M 3975 19450 3975 18650 2375 18650 2375 19450 3975 19450 M 11265 18650 11265 19450 12865 19450 12865 18650 11265 18650 M 11265 16745 11265 17545 12865 17545 12865 16745 11265 16745 M 5315 11595 6115 11595 6115 9995 5315 9995 5315 11595 M 3975 17545 3975 16745 2375 16745 2375 17545 3975 17545 M 11265 12935 11265 13735 12865 13735 12865 12935 11265 12935 M 12865 15640 12865 14840 11265 14840 11265 15640 12865 15640 M 2375 14840 2375 15640 3975 15640 3975 14840 2375 14840 M 3975 13735 3975 12935 2375 12935 2375 13735 3975 13735 M 8420 13735 8420 12935 6820 12935 6820 13735 8420 13735 M 13862 23965 13062 23965 13062 25565 13862 25565 13862 23965 M 9620 18145 9620 15145 5620 15145 5620 19145 8620 19145 9620 18145 M 9895 25665 10545 26315 M 11695 26315 10545 26315 M 9895 25665 9895 23215 M 11695 23215 9895 23215 M 11695 26315 11695 23215 M 3670 7010 4470 7010 4470 5410 10770 5410 10770 7010 11570 7010 M 3670 -590 11570 -590 M 3670 7010 3670 -590 M 11570 7010 11570 -590 M 6120 5410 6620 4702.89 7120 5410 M 2305 9995 1505 9995 1505 11595 2305 11595 2305 9995 M 3410 11595 4210 11595 4210 9995 3410 9995 3410 11595 M 11830 9995 11030 9995 11030 11595 11830 11595 11830 9995 M 8020 9995 7220 9995 7220 11595 8020 11595 8020 9995 M 9125 11595 9125 10295 9425 9995 9925 9995 9925 11595 9125 11595 M 12935 11595 13735 11595 13735 9995 12935 9995 12935 11595" fill="none" stroke-width="100"/><path d="M 4754.62 23407.67 4754.62 23883.86 5754.62 23883.86 M 4754.62 22550.52 4754.62 23121.95 M 4754.62 22836.24 5754.62 22836.24 5611.76 22931.48 5516.52 23026.72 5468.9 23121.95" fill="none" stroke-width="150"/><path d="M 3108.33 18907.14 3089.29 18888.1 3032.14 18869.05 2994.05 18869.05 2936.9 18888.1 2898.81 18926.19 2879.76 18964.29 2860.71 19040.48 2860.71 19097.62 2879.76 19173.81 2898.81 19211.9 2936.9 19250 2994.05 19269.05 3032.14 19269.05 3089.29 19250 3108.33 19230.95 M 3241.67 19269.05 3489.29 19269.05 3355.95 19116.67 3413.1 19116.67 3451.19 19097.62 3470.24 19078.57 3489.29 19040.48 3489.29 18945.24 3470.24 18907.14 3451.19 18888.1 3413.1 18869.05 3298.81 18869.05 3260.71 18888.1 3241.67 18907.14 M 11998.33 18907.14 11979.29 18888.1 11922.14 18869.05 11884.05 18869.05 11826.9 18888.1 11788.81 18926.19 11769.76 18964.29 11750.71 19040.48 11750.71 19097.62 11769.76 19173.81 11788.81 19211.9 11826.9 19250 11884.05 19269.05 11922.14 19269.05 11979.29 19250 11998.33 19230.95 M 12341.19 19269.05 12265 19269.05 12226.9 19250 12207.86 19230.95 12169.76 19173.81 12150.71 19097.62 12150.71 18945.24 12169.76 18907.14 12188.81 18888.1 12226.9 18869.05 12303.1 18869.05 12341.19 18888.1 12360.24 18907.14 12379.29 18945.24 12379.29 19040.48 12360.24 19078.57 12341.19 19097.62 12303.1 19116.67 12226.9 19116.67 12188.81 19097.62 12169.76 19078.57 12150.71 19040.48 M 11998.33 17002.14 11979.29 16983.1 11922.14 16964.05 11884.05 16964.05 11826.9 16983.1 11788.81 17021.19 11769.76 17059.29 11750.71 17135.48 11750.71 17192.62 11769.76 17268.81 11788.81 17306.9 11826.9 17345 11884.05 17364.05 11922.14 17364.05 11979.29 17345 11998.33 17325.95 M 12131.67 17364.05 12398.33 17364.05 12226.9 16964.05 M 5857.86 10728.33 5876.9 10709.29 5895.95 10652.14 5895.95 10614.05 5876.9 10556.91 5838.81 10518.81 5800.71 10499.76 5724.52 10480.71 5667.38 10480.71 5591.19 10499.76 5553.1 10518.81 5515 10556.91 5495.95 10614.05 5495.95 10652.14 5515 10709.29 5534.05 10728.33 M 5495.95 11090.24 5495.95 10899.76 5686.43 10880.72 5667.38 10899.76 5648.33 10937.86 5648.33 11033.1 5667.38 11071.19 5686.43 11090.24 5724.52 11109.29 5819.76 11109.29 5857.86 11090.24 5876.9 11071.19 5895.95 11033.1 5895.95 10937.86 5876.9 10899.76 5857.86 10880.72 M 3108.33 17002.14 3089.29 16983.1 3032.14 16964.05 2994.05 16964.05 2936.9 16983.1 2898.81 17021.19 2879.76 17059.29 2860.71 17135.48 2860.71 17192.62 2879.76 17268.81 2898.81 17306.9 2936.9 17345 2994.05 17364.05 3032.14 17364.05 3089.29 17345 3108.33 17325.95 M 3451.19 17230.71 3451.19 16964.05 M 3355.95 17383.1 3260.71 17097.38 3508.33 17097.38 M 11998.33 13154.05 11865 13344.52 M 11769.76 13154.05 11769.76 13554.05 11922.14 13554.05 11960.24 13535 11979.29 13515.95 11998.33 13477.86 11998.33 13420.72 11979.29 13382.62 11960.24 13363.57 11922.14 13344.52 11769.76 13344.52 M 12226.9 13382.62 12188.81 13401.67 12169.76 13420.72 12150.71 13458.81 12150.71 13477.86 12169.76 13515.95 12188.81 13535 12226.9 13554.05 12303.1 13554.05 12341.19 13535 12360.24 13515.95 12379.29 13477.86 12379.29 13458.81 12360.24 13420.72 12341.19 13401.67 12303.1 13382.62 12226.9 13382.62 12188.81 13363.57 12169.76 13344.52 12150.71 13306.43 12150.71 13230.24 12169.76 13192.14 12188.81 13173.1 12226.9 13154.05 12303.1 13154.05 12341.19 13173.1 12360.24 13192.14 12379.29 13230.24 12379.29 13306.43 12360.24 13344.52 12341.19 13363.57 12303.1 13382.62 M 11998.33 15059.05 11865 15249.52 M 11769.76 15059.05 11769.76 15459.05 11922.14 15459.05 11960.24 15440 11979.29 15420.95 11998.33 15382.86 11998.33 15325.71 11979.29 15287.62 11960.24 15268.57 11922.14 15249.52 11769.76 15249.52 M 12131.67 15459.05 12398.33 15459.05 12226.9 15059.05 M 3108.33 15059.05 2975 15249.52 M 2879.76 15059.05 2879.76 15459.05 3032.14 15459.05 3070.24 15440 3089.29 15420.95 3108.33 15382.86 3108.33 15325.71 3089.29 15287.62 3070.24 15268.57 3032.14 15249.52 2879.76 15249.52 M 3451.19 15459.05 3375 15459.05 3336.9 15440 3317.86 15420.95 3279.76 15363.81 3260.71 15287.62 3260.71 15135.24 3279.76 15097.14 3298.81 15078.1 3336.9 15059.05 3413.1 15059.05 3451.19 15078.1 3470.24 15097.14 3489.29 15135.24 3489.29 15230.48 3470.24 15268.57 3451.19 15287.62 3413.1 15306.67 3336.9 15306.67 3298.81 15287.62 3279.76 15268.57 3260.71 15230.48 M 3108.33 13154.05 2975 13344.52 M 2879.76 13154.05 2879.76 13554.05 3032.14 13554.05 3070.24 13535 3089.29 13515.95 3108.33 13477.86 3108.33 13420.72 3089.29 13382.62 3070.24 13363.57 3032.14 13344.52 2879.76 13344.52 M 3470.24 13554.05 3279.76 13554.05 3260.71 13363.57 3279.76 13382.62 3317.86 13401.67 3413.1 13401.67 3451.19 13382.62 3470.24 13363.57 3489.29 13325.48 3489.29 13230.24 3470.24 13192.14 3451.19 13173.1 3413.1 13154.05 3317.86 13154.05 3279.76 13173.1 3260.71 13192.14 M 7553.33 13154.05 7420 13344.52 M 7324.76 13154.05 7324.76 13554.05 7477.14 13554.05 7515.24 13535 7534.28 13515.95 7553.33 13477.86 7553.33 13420.72 7534.28 13382.62 7515.24 13363.57 7477.14 13344.52 7324.76 13344.52 M 7896.19 13420.72 7896.19 13154.05 M 7800.95 13573.1 7705.71 13287.38 7953.33 13287.38 M 13642.95 24698.33 13452.48 24565 M 13642.95 24469.76 13242.95 24469.76 13242.95 24622.14 13262 24660.24 13281.05 24679.29 13319.14 24698.33 13376.29 24698.33 13414.38 24679.29 13433.43 24660.24 13452.48 24622.14 13452.48 24469.76 M 13242.95 24831.67 13242.95 25079.29 13395.33 24945.95 13395.33 25003.1 13414.38 25041.19 13433.43 25060.24 13471.52 25079.29 13566.76 25079.29 13604.86 25060.24 13623.9 25041.19 13642.95 25003.1 13642.95 24888.81 13623.9 24850.72 13604.86 24831.67" fill="none" stroke-width="60"/><path d="M 7072.38 16383.1 7881.9 16383.1 7977.14 16430.71 8024.76 16478.33 8072.38 16573.57 8072.38 16764.05 8024.76 16859.29 7977.14 16906.9 7881.9 16954.52 7072.38 16954.52 M 7167.62 17383.1 7120 17430.71 7072.38 17525.95 7072.38 17764.05 7120 17859.29 7167.62 17906.9 7262.86 17954.52 7358.09 17954.52 7500.95 17906.9 8072.38 17335.48 8072.38 17954.52" fill="none" stroke-width="150"/><path d="M 10521.19 24384.05 10925.95 24384.05 10973.57 24407.86 10997.38 24431.67 11021.19 24479.29 11021.19 24574.52 10997.38 24622.14 10973.57 24645.95 10925.95 24669.76 10521.19 24669.76 M 11021.19 25169.76 11021.19 24884.05 M 11021.19 25026.91 10521.19 25026.91 10592.62 24979.29 10640.24 24931.67 10664.05 24884.05" fill="none" stroke-width="75"/><path d="M 2085.95 10728.33 1895.48 10595 M 2085.95 10499.76 1685.95 10499.76 1685.95 10652.14 1705 10690.24 1724.05 10709.29 1762.14 10728.33 1819.28 10728.33 1857.38 10709.29 1876.43 10690.24 1895.48 10652.14 1895.48 10499.76 M 1724.05 10880.72 1705 10899.76 1685.95 10937.86 1685.95 11033.1 1705 11071.19 1724.05 11090.24 1762.14 11109.29 1800.24 11109.29 1857.38 11090.24 2085.95 10861.67 2085.95 11109.29 M 3990.95 10728.33 3800.48 10595 M 3990.95 10499.76 3590.95 10499.76 3590.95 10652.14 3610 10690.24 3629.05 10709.29 3667.14 10728.33 3724.28 10728.33 3762.38 10709.29 3781.43 10690.24 3800.48 10652.14 3800.48 10499.76 M 3990.95 11109.29 3990.95 10880.72 M 3990.95 10995 3590.95 10995 3648.09 10956.91 3686.19 10918.81 3705.24 10880.72 M 11572.86 10728.33 11591.9 10709.29 11610.95 10652.14 11610.95 10614.05 11591.9 10556.91 11553.81 10518.81 11515.71 10499.76 11439.52 10480.71 11382.38 10480.71 11306.19 10499.76 11268.1 10518.81 11230 10556.91 11210.95 10614.05 11210.95 10652.14 11230 10709.29 11249.05 10728.33 M 11610.95 11109.29 11610.95 10880.72 M 11610.95 10995 11210.95 10995 11268.1 10956.91 11306.19 10918.81 11325.24 10880.72 M 7591.43 10661.67 7591.43 10528.33 M 7800.95 10528.33 7400.95 10528.33 7400.95 10718.81 M 7800.95 11080.72 7800.95 10852.14 M 7800.95 10966.43 7400.95 10966.43 7458.09 10928.33 7496.19 10890.24 7515.24 10852.14 M 9705.95 10499.76 9305.95 10499.76 9305.95 10595 9325 10652.14 9363.09 10690.24 9401.19 10709.29 9477.38 10728.33 9534.52 10728.33 9610.71 10709.29 9648.81 10690.24 9686.9 10652.14 9705.95 10595 9705.95 10499.76 M 9705.95 11109.29 9705.95 10880.72 M 9705.95 10995 9305.95 10995 9363.09 10956.91 9401.19 10918.81 9420.24 10880.72 M 13477.86 10728.33 13496.9 10709.29 13515.95 10652.14 13515.95 10614.05 13496.9 10556.91 13458.81 10518.81 13420.71 10499.76 13344.52 10480.71 13287.38 10480.71 13211.19 10499.76 13173.1 10518.81 13135 10556.91 13115.95 10614.05 13115.95 10652.14 13135 10709.29 13154.05 10728.33 M 13154.05 10880.72 13135 10899.76 13115.95 10937.86 13115.95 11033.1 13135 11071.19 13154.05 11090.24 13192.14 11109.29 13230.24 11109.29 13287.38 11090.24 13515.95 10861.67 13515.95 11109.29" fill="none" stroke-width="60"/></g></svg>