<svg version="1.1" xmlns="http://www.w3.org/2000/svg" xmlns:xlink="http://www.w3.org/1999/xlink" stroke-linecap="round" stroke-linejoin="round" stroke-width="0" fill-rule="evenodd" clip-rule="evenodd" id="KE6r-hpTI3lF_top" viewBox="189230 -118110 17780 30480" width="17.78mm" height="30.48mm"><defs><style>.KE6r-hpTI3lF_fr4 {color: #666666;}
.KE6r-hpTI3lF_cu {color: #cccccc;}
.KE6r-hpTI3lF_cf {color: #cc9933;}
.KE6r-hpTI3lF_sm {color: #004200; opacity: 0.75;}
.KE6r-hpTI3lF_ss {color: #ffffff;}
.KE6r-hpTI3lF_sp {color: #999999;}
.KE6r-hpTI3lF_out {color: #000000;}</style><circle cx="0" cy="0" r="100" id="VL48E03HKNZC_pad-1"/><circle cx="0" cy="0" r="150" id="VL48E03HKNZC_pad-2"/><circle cx="0" cy="0" r="400" id="VL48E03HKNZC_pad-3"/><g id="KE6r-hpTI3lF_top_drill1"><use xlink:href="#VL48E03HKNZC_pad-1" x="193040" y="-98171"/><use xlink:href="#VL48E03HKNZC_pad-1" x="194310" y="-103632"/><use xlink:href="#VL48E03HKNZC_pad-1" x="195808" y="-110972"/><use xlink:href="#VL48E03HKNZC_pad-1" x="196024" y="-109347"/><use xlink:href="#VL48E03HKNZC_pad-1" x="197432" y="-102085"/><use xlink:href="#VL48E03HKNZC_pad-1" x="197612" y="-110617"/><use xlink:href="#VL48E03HKNZC_pad-1" x="197764" y="-102870"/><use xlink:href="#VL48E03HKNZC_pad-1" x="198755" y="-102870"/><use xlink:href="#VL48E03HKNZC_pad-1" x="199390" y="-98552"/><use xlink:href="#VL48E03HKNZC_pad-1" x="200025" y="-102870"/><use xlink:href="#VL48E03HKNZC_pad-1" x="201036" y="-102849"/><use xlink:href="#VL48E03HKNZC_pad-1" x="204470" y="-107061"/><use xlink:href="#VL48E03HKNZC_pad-2" x="191516" y="-113030"/><use xlink:href="#VL48E03HKNZC_pad-2" x="191770" y="-97790"/><use xlink:href="#VL48E03HKNZC_pad-2" x="191770" y="-100330"/><use xlink:href="#VL48E03HKNZC_pad-2" x="191770" y="-102870"/><use xlink:href="#VL48E03HKNZC_pad-2" x="191770" y="-105410"/><use xlink:href="#VL48E03HKNZC_pad-2" x="192405" y="-94615"/><use xlink:href="#VL48E03HKNZC_pad-2" x="192405" y="-114300"/><use xlink:href="#VL48E03HKNZC_pad-2" x="193040" y="-90170"/><use xlink:href="#VL48E03HKNZC_pad-2" x="193040" y="-92710"/><use xlink:href="#VL48E03HKNZC_pad-2" x="193040" y="-116840"/><use xlink:href="#VL48E03HKNZC_pad-2" x="194310" y="-101600"/><use xlink:href="#VL48E03HKNZC_pad-2" x="194310" y="-105918"/><use xlink:href="#VL48E03HKNZC_pad-2" x="194310" y="-114300"/><use xlink:href="#VL48E03HKNZC_pad-2" x="194945" y="-95250"/><use xlink:href="#VL48E03HKNZC_pad-2" x="195580" y="-101600"/><use xlink:href="#VL48E03HKNZC_pad-2" x="196063" y="-95948"/><use xlink:href="#VL48E03HKNZC_pad-2" x="196215" y="-113030"/><use xlink:href="#VL48E03HKNZC_pad-2" x="196215" y="-114300"/><use xlink:href="#VL48E03HKNZC_pad-2" x="196278" y="-103950"/><use xlink:href="#VL48E03HKNZC_pad-2" x="196850" y="-92075"/><use xlink:href="#VL48E03HKNZC_pad-2" x="196977" y="-96901"/><use xlink:href="#VL48E03HKNZC_pad-2" x="197167" y="-94615"/><use xlink:href="#VL48E03HKNZC_pad-2" x="198120" y="-96901"/><use xlink:href="#VL48E03HKNZC_pad-2" x="198120" y="-105410"/><use xlink:href="#VL48E03HKNZC_pad-2" x="198120" y="-107950"/><use xlink:href="#VL48E03HKNZC_pad-2" x="198120" y="-113030"/><use xlink:href="#VL48E03HKNZC_pad-2" x="198120" y="-114300"/><use xlink:href="#VL48E03HKNZC_pad-2" x="199390" y="-92075"/><use xlink:href="#VL48E03HKNZC_pad-2" x="199390" y="-96901"/><use xlink:href="#VL48E03HKNZC_pad-2" x="200025" y="-113030"/><use xlink:href="#VL48E03HKNZC_pad-2" x="200025" y="-114300"/><use xlink:href="#VL48E03HKNZC_pad-2" x="200660" y="-105410"/><use xlink:href="#VL48E03HKNZC_pad-2" x="200660" y="-107950"/><use xlink:href="#VL48E03HKNZC_pad-2" x="201803" y="-112776"/><use xlink:href="#VL48E03HKNZC_pad-2" x="201930" y="-114300"/><use xlink:href="#VL48E03HKNZC_pad-2" x="202438" y="-97917"/><use xlink:href="#VL48E03HKNZC_pad-2" x="202565" y="-109855"/><use xlink:href="#VL48E03HKNZC_pad-2" x="202819" y="-90678"/><use xlink:href="#VL48E03HKNZC_pad-2" x="202819" y="-92075"/><use xlink:href="#VL48E03HKNZC_pad-2" x="202819" y="-93345"/><use xlink:href="#VL48E03HKNZC_pad-2" x="202819" y="-94615"/><use xlink:href="#VL48E03HKNZC_pad-2" x="202819" y="-95758"/><use xlink:href="#VL48E03HKNZC_pad-2" x="202946" y="-112776"/><use xlink:href="#VL48E03HKNZC_pad-2" x="203200" y="-116840"/><use xlink:href="#VL48E03HKNZC_pad-2" x="203835" y="-108648"/><use xlink:href="#VL48E03HKNZC_pad-2" x="203835" y="-113030"/><use xlink:href="#VL48E03HKNZC_pad-2" x="204470" y="-115570"/><use xlink:href="#VL48E03HKNZC_pad-2" x="205105" y="-107950"/><use xlink:href="#VL48E03HKNZC_pad-3" x="190500" y="-88900"/><use xlink:href="#VL48E03HKNZC_pad-3" x="190500" y="-91440"/><use xlink:href="#VL48E03HKNZC_pad-3" x="190500" y="-93980"/><use xlink:href="#VL48E03HKNZC_pad-3" x="190500" y="-96520"/><use xlink:href="#VL48E03HKNZC_pad-3" x="190500" y="-99060"/><use xlink:href="#VL48E03HKNZC_pad-3" x="190500" y="-101600"/><use xlink:href="#VL48E03HKNZC_pad-3" x="190500" y="-104140"/><use xlink:href="#VL48E03HKNZC_pad-3" x="190500" y="-106680"/><use xlink:href="#VL48E03HKNZC_pad-3" x="190500" y="-109220"/><use xlink:href="#VL48E03HKNZC_pad-3" x="190500" y="-111760"/><use xlink:href="#VL48E03HKNZC_pad-3" x="190500" y="-114300"/><use xlink:href="#VL48E03HKNZC_pad-3" x="190500" y="-116840"/><use xlink:href="#VL48E03HKNZC_pad-3" x="205740" y="-88900"/><use xlink:href="#VL48E03HKNZC_pad-3" x="205740" y="-91440"/><use xlink:href="#VL48E03HKNZC_pad-3" x="205740" y="-93980"/><use xlink:href="#VL48E03HKNZC_pad-3" x="205740" y="-96520"/><use xlink:href="#VL48E03HKNZC_pad-3" x="205740" y="-99060"/><use xlink:href="#VL48E03HKNZC_pad-3" x="205740" y="-101600"/><use xlink:href="#VL48E03HKNZC_pad-3" x="205740" y="-104140"/><use xlink:href="#VL48E03HKNZC_pad-3" x="205740" y="-106680"/><use xlink:href="#VL48E03HKNZC_pad-3" x="205740" y="-109220"/><use xlink:href="#VL48E03HKNZC_pad-3" x="205740" y="-111760"/><use xlink:href="#VL48E03HKNZC_pad-3" x="205740" y="-114300"/><use xlink:href="#VL48E03HKNZC_pad-3" x="205740" y="-116840"/></g><g id="KE6r-hpTI3lF_top_drill2"><path d="M 189230 -88265 A 635 635 0 0 0 189865 -87630 M 206375 -87630 A 635 635 0 0 0 207010 -88265 M 189865 -87630 206375 -87630 M 207010 -117475 A 635 635 0 0 0 206375 -118110 M 189865 -118110 A 635 635 0 0 0 189230 -117475 L 189230 -88265 M 206375 -118110 189865 -118110 M 207010 -88265 207010 -117475 M 207000 -117940 207000 -87790 M 189700 -117940 207000 -117940 M 189700 -117940 189230 -117440 M 189230 -87790 189230 -117440 M 207000 -87790 189230 -87790" fill="none" stroke-width="100"/><path d="M 192571.67 -116125.71 192571.67 -116601.9 M 192857.38 -116030.48 191857.38 -116363.81 192857.38 -116697.14 M 192857.38 -117554.28 192857.38 -116982.86 M 192857.38 -117268.57 191857.38 -117268.57 192000.24 -117173.33 192095.48 -117078.09 192143.1 -116982.86" fill="none" stroke-width="150"/></g><g id="KE6r-hpTI3lF_top_drill3"><path d="M 189230 -88265 A 635 635 0 0 0 189865 -87630 M 206375 -87630 A 635 635 0 0 0 207010 -88265 M 189865 -87630 206375 -87630 M 207010 -117475 A 635 635 0 0 0 206375 -118110 M 189865 -118110 A 635 635 0 0 0 189230 -117475 L 189230 -88265 M 206375 -118110 189865 -118110 M 207010 -88265 207010 -117475 M 197820 -90660 197970 -90810 M 196820 -87960 196820 -88360 M 196620 -88360 196820 -88360 M 196620 -90160 196620 -88360 M 196820 -87960 199420 -87960 199420 -88360 M 199620 -88360 199420 -88360 M 199620 -90160 199620 -88360 M 196820 -90160 196820 -90560 M 196620 -90160 196820 -90160 M 197820 -90560 196820 -90560 M 197820 -90660 197820 -90560 M 198420 -90810 197970 -90810 M 198420 -90810 198420 -90560 199420 -90560 M 199420 -90160 199420 -90560 M 199620 -90160 199420 -90160 M 199259 -101100 199259 -102100 M 198759 -101100 199259 -101100 M 198759 -102100 198759 -101100 M 199259 -102100 198759 -102100 M 202688 -99195 202688 -100195 M 202188 -99195 202688 -99195 M 202188 -100195 202188 -99195 M 202688 -100195 202188 -100195 M 195080 -96651 196080 -96651 M 195080 -97151 195080 -96651 M 196080 -97151 195080 -97151 M 196080 -96651 196080 -97151 M 201310 -94865 200310 -94865 M 201310 -94365 201310 -94865 M 200310 -94365 201310 -94365 M 200310 -94865 200310 -94365 M 195965 -100195 195965 -99195 M 196465 -100195 195965 -100195 M 196465 -99195 196465 -100195 M 195965 -99195 196465 -99195 M 195715 -93095 196715 -93095 M 195715 -93595 195715 -93095 M 196715 -93595 195715 -93595 M 196715 -93095 196715 -93595 M 201310 -93595 200310 -93595 M 201310 -93095 201310 -93595 M 200310 -93095 201310 -93095 M 200310 -93595 200310 -93095 M 198105 -94365 199105 -94365 M 198105 -94865 198105 -94365 M 199105 -94865 198105 -94865 M 199105 -94365 199105 -94865 M 195080 -97667 196080 -97667 M 195080 -98167 195080 -97667 M 196080 -98167 195080 -98167 M 196080 -97667 196080 -98167 M 201310 -98167 200310 -98167 M 201310 -97667 201310 -98167 M 200310 -97667 201310 -97667 M 200310 -98167 200310 -97667 M 201310 -96651 201310 -97151 200310 -97151 200310 -96651 201310 -96651 M 195195 -99195 195195 -100195 M 194695 -99195 195195 -99195 M 194695 -100195 194695 -99195 M 195195 -100195 194695 -100195 M 199775 -100195 199775 -99195 M 200275 -100195 199775 -100195 M 200275 -99195 200275 -100195 M 199775 -99195 200275 -99195 M 201545 -101100 201545 -102100 M 201045 -101100 201545 -101100 M 201045 -102100 201045 -101100 M 201545 -102100 201045 -102100 M 197020 -97076 197520 -97576 M 199220 -96226 199220 -97576 M 197020 -96226 199220 -96226 M 197520 -97576 199220 -97576 M 197020 -96226 197020 -97076 M 200310 -95635 201310 -95635 M 200310 -96135 200310 -95635 M 201310 -96135 200310 -96135 M 201310 -95635 201310 -96135 M 198105 -93095 199105 -93095 M 198105 -93595 198105 -93095 M 199105 -93595 198105 -93595 M 199105 -93095 199105 -93595 M 197735 -99195 197735 -100195 M 197235 -99195 197735 -99195 M 197235 -100195 197235 -99195 M 197735 -100195 197235 -100195 M 201545 -99195 201545 -100195 M 201045 -99195 201545 -99195 M 201045 -100195 201045 -99195 M 201545 -100195 201045 -100195 M 198505 -100195 198505 -99195 M 199005 -100195 198505 -100195 M 199005 -99195 199005 -100195 M 198505 -99195 199005 -99195 M 200275 -101100 200275 -102100 M 199775 -101100 200275 -101100 M 199775 -102100 199775 -101100 M 200275 -102100 199775 -102100 M 201295 -91445 201295 -78115 M 200485 -91445 201295 -91445 M 200485 -87635 200485 -91445 M 195755 -87635 200485 -87635 M 195755 -91445 195755 -87635 M 194945 -91445 195755 -91445 M 194945 -91445 194945 -78115 M 194955 -78115 201285 -78115 M 197370 -87635 198120 -86635 198870 -87635 M 203435 -110172.5 204235 -110172.5 204235 -111772.5 203435 -111772.5 203435 -110172.5 M 196390 -104680 197390 -103680 M 196390 -109680 196390 -104680 M 202390 -109680 196390 -109680 M 202390 -103680 202390 -109680 M 197390 -103680 202390 -103680 M 192105 -111609 192105 -108609 192205 -108509 194505 -108509 194605 -108609 194605 -111609 194505 -111709 192205 -111709 192105 -111609 M 193605 -111709 194605 -110709 M 202315 -111775 202315 -110775 M 202815 -111775 202315 -111775 M 202815 -110775 202815 -111775 M 202315 -110775 202815 -110775 M 193810 -102620 194810 -102620 M 193810 -103120 193810 -102620 M 194810 -103120 193810 -103120 M 194810 -102620 194810 -103120 M 193810 -106430 194810 -106430 M 193810 -106930 193810 -106430 M 194810 -106930 193810 -106930 M 194810 -106430 194810 -106930 M 194695 -105275 194695 -104275 M 195195 -105275 194695 -105275 M 195195 -104275 195195 -105275 M 194695 -104275 195195 -104275 M 193925 -104275 193925 -105275 M 193425 -104275 193925 -104275 M 193425 -105275 193425 -104275 M 193925 -105275 193425 -105275 M 201545 -110775 201545 -111775 M 201045 -110775 201545 -110775 M 201045 -111775 201045 -110775 M 201545 -111775 201045 -111775 M 196600 -102100 196600 -101100 M 197100 -102100 196600 -102100 M 197100 -101100 197100 -102100 M 196600 -101100 197100 -101100 M 198243 -101100 198243 -102100 M 197743 -101100 198243 -101100 M 197743 -102100 197743 -101100 M 198243 -102100 197743 -102100 M 192655 -106030 192655 -107030 M 192155 -106030 192655 -106030 M 192155 -107030 192155 -106030 M 192655 -107030 192155 -107030 M 192540 -112780 193540 -112780 M 192540 -113280 192540 -112780 M 193540 -113280 192540 -113280 M 193540 -112780 193540 -113280" fill="none" stroke-width="100"/><path d="M 196834.29 -91844.76 196977.14 -91892.38 197215.24 -91892.38 197310.48 -91844.76 197358.1 -91797.14 197405.71 -91701.9 197405.71 -91606.67 197358.1 -91511.43 197310.48 -91463.81 197215.24 -91416.19 197024.76 -91368.57 196929.52 -91320.95 196881.9 -91273.33 196834.29 -91178.1 196834.29 -91082.86 196881.9 -90987.62 196929.52 -90940 197024.76 -90892.38 197262.86 -90892.38 197405.71 -90940 M 197834.29 -91892.38 197834.29 -90892.38 198167.62 -91606.67 198500.95 -90892.38 198500.95 -91892.38 M 198929.52 -91606.67 199405.71 -91606.67 M 198834.29 -91892.38 199167.62 -90892.38 199500.95 -91892.38" fill="none" stroke-width="150"/><path d="M 197920 -88931.43 197920 -89360 197891.43 -89445.71 197834.29 -89502.86 197748.57 -89531.43 197691.43 -89531.43 M 198520 -89531.43 198177.14 -89531.43 M 198348.57 -89531.43 198348.57 -88931.43 198291.43 -89017.14 198234.29 -89074.29 198177.14 -89102.86" fill="none" stroke-width="90"/><path d="M 199098.29 -101760.71 199110.19 -101772.62 199122.1 -101808.33 199122.1 -101832.14 199110.19 -101867.86 199086.38 -101891.67 199062.57 -101903.57 199014.95 -101915.48 198979.24 -101915.48 198931.62 -101903.57 198907.81 -101891.67 198884 -101867.86 198872.1 -101832.14 198872.1 -101808.33 198884 -101772.62 198895.9 -101760.71 M 198895.9 -101665.48 198884 -101653.57 198872.1 -101629.76 198872.1 -101570.24 198884 -101546.43 198895.9 -101534.52 198919.71 -101522.62 198943.52 -101522.62 198979.24 -101534.52 199122.1 -101677.38 199122.1 -101522.62 M 198872.1 -101296.43 198872.1 -101415.48 198991.14 -101427.38 198979.24 -101415.48 198967.33 -101391.67 198967.33 -101332.14 198979.24 -101308.33 198991.14 -101296.43 199014.95 -101284.52 199074.48 -101284.52 199098.29 -101296.43 199110.19 -101308.33 199122.1 -101332.14 199122.1 -101391.67 199110.19 -101415.48 199098.29 -101427.38 M 202527.29 -99855.71 202539.19 -99867.62 202551.1 -99903.33 202551.1 -99927.14 202539.19 -99962.86 202515.38 -99986.67 202491.57 -99998.57 202443.95 -100010.48 202408.24 -100010.48 202360.62 -99998.57 202336.81 -99986.67 202313 -99962.86 202301.1 -99927.14 202301.1 -99903.33 202313 -99867.62 202324.9 -99855.71 M 202324.9 -99760.48 202313 -99748.57 202301.1 -99724.76 202301.1 -99665.24 202313 -99641.43 202324.9 -99629.52 202348.71 -99617.62 202372.52 -99617.62 202408.24 -99629.52 202551.1 -99772.38 202551.1 -99617.62 M 202384.43 -99403.33 202551.1 -99403.33 M 202289.19 -99462.86 202467.76 -99522.38 202467.76 -99367.62 M 195419.29 -96990.29 195407.38 -97002.19 195371.67 -97014.1 195347.86 -97014.1 195312.14 -97002.19 195288.33 -96978.38 195276.43 -96954.57 195264.52 -96906.95 195264.52 -96871.24 195276.43 -96823.62 195288.33 -96799.81 195312.14 -96776 195347.86 -96764.1 195371.67 -96764.1 195407.38 -96776 195419.29 -96787.9 M 195657.38 -97014.1 195514.52 -97014.1 M 195585.95 -97014.1 195585.95 -96764.1 195562.14 -96799.81 195538.33 -96823.62 195514.52 -96835.52 M 195871.67 -96847.43 195871.67 -97014.1 M 195812.14 -96752.19 195752.62 -96930.76 195907.38 -96930.76 M 200649.29 -94704.29 200637.38 -94716.19 200601.67 -94728.1 200577.86 -94728.1 200542.14 -94716.19 200518.33 -94692.38 200506.43 -94668.57 200494.52 -94620.95 200494.52 -94585.24 200506.43 -94537.62 200518.33 -94513.81 200542.14 -94490 200577.86 -94478.1 200601.67 -94478.1 200637.38 -94490 200649.29 -94501.9 M 200887.38 -94728.1 200744.52 -94728.1 M 200815.95 -94728.1 200815.95 -94478.1 200792.14 -94513.81 200768.33 -94537.62 200744.52 -94549.52 M 200970.71 -94478.1 201125.48 -94478.1 201042.14 -94573.33 201077.86 -94573.33 201101.67 -94585.24 201113.57 -94597.14 201125.48 -94620.95 201125.48 -94680.48 201113.57 -94704.29 201101.67 -94716.19 201077.86 -94728.1 201006.43 -94728.1 200982.62 -94716.19 200970.71 -94704.29 M 196304.29 -99855.71 196316.19 -99867.62 196328.1 -99903.33 196328.1 -99927.14 196316.19 -99962.86 196292.38 -99986.67 196268.57 -99998.57 196220.95 -100010.48 196185.24 -100010.48 196137.62 -99998.57 196113.81 -99986.67 196090 -99962.86 196078.1 -99927.14 196078.1 -99903.33 196090 -99867.62 196101.9 -99855.71 M 196328.1 -99617.62 196328.1 -99760.48 M 196328.1 -99689.05 196078.1 -99689.05 196113.81 -99712.86 196137.62 -99736.67 196149.52 -99760.48 M 196101.9 -99522.38 196090 -99510.48 196078.1 -99486.67 196078.1 -99427.14 196090 -99403.33 196101.9 -99391.43 196125.71 -99379.52 196149.52 -99379.52 196185.24 -99391.43 196328.1 -99534.29 196328.1 -99379.52 M 196054.29 -93434.29 196042.38 -93446.19 196006.67 -93458.1 195982.86 -93458.1 195947.14 -93446.19 195923.33 -93422.38 195911.43 -93398.57 195899.52 -93350.95 195899.52 -93315.24 195911.43 -93267.62 195923.33 -93243.81 195947.14 -93220 195982.86 -93208.1 196006.67 -93208.1 196042.38 -93220 196054.29 -93231.9 M 196292.38 -93458.1 196149.52 -93458.1 M 196220.95 -93458.1 196220.95 -93208.1 196197.14 -93243.81 196173.33 -93267.62 196149.52 -93279.52 M 196530.48 -93458.1 196387.62 -93458.1 M 196459.05 -93458.1 196459.05 -93208.1 196435.24 -93243.81 196411.43 -93267.62 196387.62 -93279.52 M 200649.29 -93434.29 200637.38 -93446.19 200601.67 -93458.1 200577.86 -93458.1 200542.14 -93446.19 200518.33 -93422.38 200506.43 -93398.57 200494.52 -93350.95 200494.52 -93315.24 200506.43 -93267.62 200518.33 -93243.81 200542.14 -93220 200577.86 -93208.1 200601.67 -93208.1 200637.38 -93220 200649.29 -93231.9 M 200887.38 -93458.1 200744.52 -93458.1 M 200815.95 -93458.1 200815.95 -93208.1 200792.14 -93243.81 200768.33 -93267.62 200744.52 -93279.52 M 201042.14 -93208.1 201065.95 -93208.1 201089.76 -93220 201101.67 -93231.9 201113.57 -93255.71 201125.48 -93303.33 201125.48 -93362.86 201113.57 -93410.48 201101.67 -93434.29 201089.76 -93446.19 201065.95 -93458.1 201042.14 -93458.1 201018.33 -93446.19 201006.43 -93434.29 200994.52 -93410.48 200982.62 -93362.86 200982.62 -93303.33 200994.52 -93255.71 201006.43 -93231.9 201018.33 -93220 201042.14 -93208.1 M 198563.33 -94704.29 198551.43 -94716.19 198515.71 -94728.1 198491.9 -94728.1 198456.19 -94716.19 198432.38 -94692.38 198420.48 -94668.57 198408.57 -94620.95 198408.57 -94585.24 198420.48 -94537.62 198432.38 -94513.81 198456.19 -94490 198491.9 -94478.1 198515.71 -94478.1 198551.43 -94490 198563.33 -94501.9 M 198682.38 -94728.1 198730 -94728.1 198753.81 -94716.19 198765.71 -94704.29 198789.52 -94668.57 198801.43 -94620.95 198801.43 -94525.71 198789.52 -94501.9 198777.62 -94490 198753.81 -94478.1 198706.19 -94478.1 198682.38 -94490 198670.48 -94501.9 198658.57 -94525.71 198658.57 -94585.24 198670.48 -94609.05 198682.38 -94620.95 198706.19 -94632.86 198753.81 -94632.86 198777.62 -94620.95 198789.52 -94609.05 198801.43 -94585.24 M 195538.33 -98006.29 195526.43 -98018.19 195490.71 -98030.1 195466.9 -98030.1 195431.19 -98018.19 195407.38 -97994.38 195395.48 -97970.57 195383.57 -97922.95 195383.57 -97887.24 195395.48 -97839.62 195407.38 -97815.81 195431.19 -97792 195466.9 -97780.1 195490.71 -97780.1 195526.43 -97792 195538.33 -97803.9 M 195681.19 -97887.24 195657.38 -97875.33 195645.48 -97863.43 195633.57 -97839.62 195633.57 -97827.71 195645.48 -97803.9 195657.38 -97792 195681.19 -97780.1 195728.81 -97780.1 195752.62 -97792 195764.52 -97803.9 195776.43 -97827.71 195776.43 -97839.62 195764.52 -97863.43 195752.62 -97875.33 195728.81 -97887.24 195681.19 -97887.24 195657.38 -97899.14 195645.48 -97911.05 195633.57 -97934.86 195633.57 -97982.48 195645.48 -98006.29 195657.38 -98018.19 195681.19 -98030.1 195728.81 -98030.1 195752.62 -98018.19 195764.52 -98006.29 195776.43 -97982.48 195776.43 -97934.86 195764.52 -97911.05 195752.62 -97899.14 195728.81 -97887.24 M 200768.33 -98006.29 200756.43 -98018.19 200720.71 -98030.1 200696.9 -98030.1 200661.19 -98018.19 200637.38 -97994.38 200625.48 -97970.57 200613.57 -97922.95 200613.57 -97887.24 200625.48 -97839.62 200637.38 -97815.81 200661.19 -97792 200696.9 -97780.1 200720.71 -97780.1 200756.43 -97792 200768.33 -97803.9 M 200851.67 -97780.1 201018.33 -97780.1 200911.19 -98030.1 M 200768.33 -96990.29 200756.43 -97002.19 200720.71 -97014.1 200696.9 -97014.1 200661.19 -97002.19 200637.38 -96978.38 200625.48 -96954.57 200613.57 -96906.95 200613.57 -96871.24 200625.48 -96823.62 200637.38 -96799.81 200661.19 -96776 200696.9 -96764.1 200720.71 -96764.1 200756.43 -96776 200768.33 -96787.9 M 200982.62 -96764.1 200935 -96764.1 200911.19 -96776 200899.29 -96787.9 200875.48 -96823.62 200863.57 -96871.24 200863.57 -96966.48 200875.48 -96990.29 200887.38 -97002.19 200911.19 -97014.1 200958.81 -97014.1 200982.62 -97002.19 200994.52 -96990.29 201006.43 -96966.48 201006.43 -96906.95 200994.52 -96883.14 200982.62 -96871.24 200958.81 -96859.33 200911.19 -96859.33 200887.38 -96871.24 200875.48 -96883.14 200863.57 -96906.95 M 195034.29 -99736.67 195046.19 -99748.57 195058.1 -99784.29 195058.1 -99808.1 195046.19 -99843.81 195022.38 -99867.62 194998.57 -99879.52 194950.95 -99891.43 194915.24 -99891.43 194867.62 -99879.52 194843.81 -99867.62 194820 -99843.81 194808.1 -99808.1 194808.1 -99784.29 194820 -99748.57 194831.9 -99736.67 M 194808.1 -99510.48 194808.1 -99629.52 194927.14 -99641.43 194915.24 -99629.52 194903.33 -99605.71 194903.33 -99546.19 194915.24 -99522.38 194927.14 -99510.48 194950.95 -99498.57 195010.48 -99498.57 195034.29 -99510.48 195046.19 -99522.38 195058.1 -99546.19 195058.1 -99605.71 195046.19 -99629.52 195034.29 -99641.43 M 200114.29 -99736.67 200126.19 -99748.57 200138.1 -99784.29 200138.1 -99808.1 200126.19 -99843.81 200102.38 -99867.62 200078.57 -99879.52 200030.95 -99891.43 199995.24 -99891.43 199947.62 -99879.52 199923.81 -99867.62 199900 -99843.81 199888.1 -99808.1 199888.1 -99784.29 199900 -99748.57 199911.9 -99736.67 M 199888.1 -99653.33 199888.1 -99498.57 199983.33 -99581.9 199983.33 -99546.19 199995.24 -99522.38 200007.14 -99510.48 200030.95 -99498.57 200090.48 -99498.57 200114.29 -99510.48 200126.19 -99522.38 200138.1 -99546.19 200138.1 -99617.62 200126.19 -99641.43 200114.29 -99653.33 M 201384.29 -101641.67 201396.19 -101653.57 201408.1 -101689.29 201408.1 -101713.1 201396.19 -101748.81 201372.38 -101772.62 201348.57 -101784.52 201300.95 -101796.43 201265.24 -101796.43 201217.62 -101784.52 201193.81 -101772.62 201170 -101748.81 201158.1 -101713.1 201158.1 -101689.29 201170 -101653.57 201181.9 -101641.67 M 201181.9 -101546.43 201170 -101534.52 201158.1 -101510.71 201158.1 -101451.19 201170 -101427.38 201181.9 -101415.48 201205.71 -101403.57 201229.52 -101403.57 201265.24 -101415.48 201408.1 -101558.33 201408.1 -101403.57" fill="none" stroke-width="40"/><path d="M 197739.05 -96627.19 197739.05 -97031.95 197762.86 -97079.57 197786.67 -97103.38 197834.29 -97127.19 197929.52 -97127.19 197977.14 -97103.38 198000.95 -97079.57 198024.76 -97031.95 198024.76 -96627.19 M 198239.05 -96674.81 198262.86 -96651 198310.48 -96627.19 198429.52 -96627.19 198477.14 -96651 198500.95 -96674.81 198524.76 -96722.43 198524.76 -96770.05 198500.95 -96841.48 198215.24 -97127.19 198524.76 -97127.19" fill="none" stroke-width="75"/><path d="M 200768.33 -95998.1 200685 -95879.05 M 200625.48 -95998.1 200625.48 -95748.1 200720.71 -95748.1 200744.52 -95760 200756.43 -95771.9 200768.33 -95795.71 200768.33 -95831.43 200756.43 -95855.24 200744.52 -95867.14 200720.71 -95879.05 200625.48 -95879.05 M 201006.43 -95998.1 200863.57 -95998.1 M 200935 -95998.1 200935 -95748.1 200911.19 -95783.81 200887.38 -95807.62 200863.57 -95819.52 M 198563.33 -93458.1 198444.29 -93458.1 198444.29 -93208.1 M 198765.71 -93208.1 198646.67 -93208.1 198634.76 -93327.14 198646.67 -93315.24 198670.48 -93303.33 198730 -93303.33 198753.81 -93315.24 198765.71 -93327.14 198777.62 -93350.95 198777.62 -93410.48 198765.71 -93434.29 198753.81 -93446.19 198730 -93458.1 198670.48 -93458.1 198646.67 -93446.19 198634.76 -93434.29 M 197598.1 -99736.67 197598.1 -99855.71 197348.1 -99855.71 M 197431.43 -99546.19 197598.1 -99546.19 M 197336.19 -99605.71 197514.76 -99665.24 197514.76 -99510.48 M 201408.1 -99736.67 201408.1 -99855.71 201158.1 -99855.71 M 201158.1 -99677.14 201158.1 -99522.38 201253.33 -99605.71 201253.33 -99570 201265.24 -99546.19 201277.14 -99534.29 201300.95 -99522.38 201360.48 -99522.38 201384.29 -99534.29 201396.19 -99546.19 201408.1 -99570 201408.1 -99641.43 201396.19 -99665.24 201384.29 -99677.14 M 198868.1 -99736.67 198868.1 -99855.71 198618.1 -99855.71 M 198641.9 -99665.24 198630 -99653.33 198618.1 -99629.52 198618.1 -99570 198630 -99546.19 198641.9 -99534.29 198665.71 -99522.38 198689.52 -99522.38 198725.24 -99534.29 198868.1 -99677.14 198868.1 -99522.38 M 200138.1 -101641.67 200138.1 -101760.71 199888.1 -101760.71 M 200138.1 -101427.38 200138.1 -101570.24 M 200138.1 -101498.81 199888.1 -101498.81 199923.81 -101522.62 199947.62 -101546.43 199959.52 -101570.24" fill="none" stroke-width="40"/><path d="M 194667.14 -91289.05 194714.76 -91336.67 194762.38 -91479.52 194762.38 -91574.76 194714.76 -91717.62 194619.52 -91812.86 194524.29 -91860.48 194333.81 -91908.1 194190.95 -91908.1 194000.48 -91860.48 193905.24 -91812.86 193810 -91717.62 193762.38 -91574.76 193762.38 -91479.52 193810 -91336.67 193857.62 -91289.05 M 193762.38 -90670 193762.38 -90479.52 193810 -90384.29 193905.24 -90289.05 194095.71 -90241.43 194429.05 -90241.43 194619.52 -90289.05 194714.76 -90384.29 194762.38 -90479.52 194762.38 -90670 194714.76 -90765.24 194619.52 -90860.48 194429.05 -90908.1 194095.71 -90908.1 193905.24 -90860.48 193810 -90765.24 193762.38 -90670 M 194476.67 -89860.48 194476.67 -89384.29 M 194762.38 -89955.71 193762.38 -89622.38 194762.38 -89289.05 M 193762.38 -89050.95 194762.38 -88384.29 M 193762.38 -88384.29 194762.38 -89050.95 M 200747.38 -115561.9 200747.38 -114990.48 M 201747.38 -115276.19 200747.38 -115276.19 M 201747.38 -114657.14 200747.38 -114657.14 200747.38 -114276.19 200795 -114180.95 200842.62 -114133.33 200937.86 -114085.71 201080.71 -114085.71 201175.95 -114133.33 201223.57 -114180.95 201271.19 -114276.19 201271.19 -114657.14 M 201080.71 -113228.57 201747.38 -113228.57 M 200699.76 -113466.67 201414.05 -113704.76 201414.05 -113085.71 M 198842.38 -115561.9 198842.38 -114990.48 M 199842.38 -115276.19 198842.38 -115276.19 M 199842.38 -114657.14 198842.38 -114657.14 198842.38 -114276.19 198890 -114180.95 198937.62 -114133.33 199032.86 -114085.71 199175.71 -114085.71 199270.95 -114133.33 199318.57 -114180.95 199366.19 -114276.19 199366.19 -114657.14 M 198842.38 -113752.38 198842.38 -113133.33 199223.33 -113466.67 199223.33 -113323.81 199270.95 -113228.57 199318.57 -113180.95 199413.81 -113133.33 199651.9 -113133.33 199747.14 -113180.95 199794.76 -113228.57 199842.38 -113323.81 199842.38 -113609.52 199794.76 -113704.76 199747.14 -113752.38 M 196937.38 -115561.9 196937.38 -114990.48 M 197937.38 -115276.19 196937.38 -115276.19 M 197937.38 -114657.14 196937.38 -114657.14 196937.38 -114276.19 196985 -114180.95 197032.62 -114133.33 197127.86 -114085.71 197270.71 -114085.71 197365.95 -114133.33 197413.57 -114180.95 197461.19 -114276.19 197461.19 -114657.14 M 197032.62 -113704.76 196985 -113657.14 196937.38 -113561.9 196937.38 -113323.81 196985 -113228.57 197032.62 -113180.95 197127.86 -113133.33 197223.1 -113133.33 197365.95 -113180.95 197937.38 -113752.38 197937.38 -113133.33" fill="none" stroke-width="150"/><path d="M 203977.86 -111229.64 203996.9 -111248.69 204015.95 -111305.83 204015.95 -111343.93 203996.9 -111401.07 203958.81 -111439.17 203920.71 -111458.21 203844.52 -111477.26 203787.38 -111477.26 203711.19 -111458.21 203673.1 -111439.17 203635 -111401.07 203615.95 -111343.93 203615.95 -111305.83 203635 -111248.69 203654.05 -111229.64 M 203654.05 -111077.26 203635 -111058.21 203615.95 -111020.12 203615.95 -110924.88 203635 -110886.79 203654.05 -110867.74 203692.14 -110848.69 203730.24 -110848.69 203787.38 -110867.74 204015.95 -111096.31 204015.95 -110848.69 M 203615.95 -110715.36 203615.95 -110467.74 203768.33 -110601.07 203768.33 -110543.93 203787.38 -110505.83 203806.43 -110486.79 203844.52 -110467.74 203939.76 -110467.74 203977.86 -110486.79 203996.9 -110505.83 204015.95 -110543.93 204015.95 -110658.21 203996.9 -110696.31 203977.86 -110715.36" fill="none" stroke-width="60"/><path d="M 196723.33 -108354.76 196866.19 -108402.38 197104.29 -108402.38 197199.52 -108354.76 197247.14 -108307.14 197294.76 -108211.9 197294.76 -108116.67 197247.14 -108021.43 197199.52 -107973.81 197104.29 -107926.19 196913.81 -107878.57 196818.57 -107830.95 196770.95 -107783.33 196723.33 -107688.1 196723.33 -107592.86 196770.95 -107497.62 196818.57 -107450 196913.81 -107402.38 197151.9 -107402.38 197294.76 -107450 M 197628.1 -107402.38 198294.76 -108402.38 M 198294.76 -107402.38 197628.1 -108402.38 M 199199.52 -108402.38 198628.1 -108402.38 M 198913.81 -108402.38 198913.81 -107402.38 198818.57 -107545.24 198723.33 -107640.48 198628.1 -107688.1 M 199580.48 -107497.62 199628.1 -107450 199723.33 -107402.38 199961.43 -107402.38 200056.67 -107450 200104.29 -107497.62 200151.9 -107592.86 200151.9 -107688.1 200104.29 -107830.95 199532.86 -108402.38 200151.9 -108402.38 M 200485.24 -107402.38 201151.9 -107402.38 200723.33 -108402.38 M 201961.43 -107402.38 201770.95 -107402.38 201675.71 -107450 201628.1 -107497.62 201532.86 -107640.48 201485.24 -107830.95 201485.24 -108211.9 201532.86 -108307.14 201580.48 -108354.76 201675.71 -108402.38 201866.19 -108402.38 201961.43 -108354.76 202009.05 -108307.14 202056.67 -108211.9 202056.67 -107973.81 202009.05 -107878.57 201961.43 -107830.95 201866.19 -107783.33 201675.71 -107783.33 201580.48 -107830.95 201532.86 -107878.57 201485.24 -107973.81 M 198628.1 -106132.38 198628.1 -106941.9 198675.71 -107037.14 198723.33 -107084.76 198818.57 -107132.38 199009.05 -107132.38 199104.29 -107084.76 199151.9 -107037.14 199199.52 -106941.9 199199.52 -106132.38 M 200199.52 -107132.38 199628.1 -107132.38 M 199913.81 -107132.38 199913.81 -106132.38 199818.57 -106275.24 199723.33 -106370.48 199628.1 -106418.1" fill="none" stroke-width="150"/><path d="M 193338.33 -110442.33 193671.67 -110442.33 M 192971.67 -110675.67 193338.33 -110442.33 192971.67 -110209 M 193671.67 -109609 193671.67 -110009 M 193671.67 -109809 192971.67 -109809 193071.67 -109875.67 193138.33 -109942.33 193171.67 -110009" fill="none" stroke-width="105"/><path d="M 202654.29 -111435.71 202666.19 -111447.62 202678.1 -111483.33 202678.1 -111507.14 202666.19 -111542.86 202642.38 -111566.67 202618.57 -111578.57 202570.95 -111590.48 202535.24 -111590.48 202487.62 -111578.57 202463.81 -111566.67 202440 -111542.86 202428.1 -111507.14 202428.1 -111483.33 202440 -111447.62 202451.9 -111435.71 M 202451.9 -111340.48 202440 -111328.57 202428.1 -111304.76 202428.1 -111245.24 202440 -111221.43 202451.9 -111209.52 202475.71 -111197.62 202499.52 -111197.62 202535.24 -111209.52 202678.1 -111352.38 202678.1 -111197.62 M 202451.9 -111102.38 202440 -111090.48 202428.1 -111066.67 202428.1 -111007.14 202440 -110983.33 202451.9 -110971.43 202475.71 -110959.52 202499.52 -110959.52 202535.24 -110971.43 202678.1 -111114.29 202678.1 -110959.52 M 194149.29 -102959.29 194137.38 -102971.19 194101.67 -102983.1 194077.86 -102983.1 194042.14 -102971.19 194018.33 -102947.38 194006.43 -102923.57 193994.52 -102875.95 193994.52 -102840.24 194006.43 -102792.62 194018.33 -102768.81 194042.14 -102745 194077.86 -102733.1 194101.67 -102733.1 194137.38 -102745 194149.29 -102756.9 M 194244.52 -102756.9 194256.43 -102745 194280.24 -102733.1 194339.76 -102733.1 194363.57 -102745 194375.48 -102756.9 194387.38 -102780.71 194387.38 -102804.52 194375.48 -102840.24 194232.62 -102983.1 194387.38 -102983.1 M 194625.48 -102983.1 194482.62 -102983.1 M 194554.05 -102983.1 194554.05 -102733.1 194530.24 -102768.81 194506.43 -102792.62 194482.62 -102804.52 M 194149.29 -106769.29 194137.38 -106781.19 194101.67 -106793.1 194077.86 -106793.1 194042.14 -106781.19 194018.33 -106757.38 194006.43 -106733.57 193994.52 -106685.95 193994.52 -106650.24 194006.43 -106602.62 194018.33 -106578.81 194042.14 -106555 194077.86 -106543.1 194101.67 -106543.1 194137.38 -106555 194149.29 -106566.9 M 194244.52 -106566.9 194256.43 -106555 194280.24 -106543.1 194339.76 -106543.1 194363.57 -106555 194375.48 -106566.9 194387.38 -106590.71 194387.38 -106614.52 194375.48 -106650.24 194232.62 -106793.1 194387.38 -106793.1 M 194542.14 -106543.1 194565.95 -106543.1 194589.76 -106555 194601.67 -106566.9 194613.57 -106590.71 194625.48 -106638.33 194625.48 -106697.86 194613.57 -106745.48 194601.67 -106769.29 194589.76 -106781.19 194565.95 -106793.1 194542.14 -106793.1 194518.33 -106781.19 194506.43 -106769.29 194494.52 -106745.48 194482.62 -106697.86 194482.62 -106638.33 194494.52 -106590.71 194506.43 -106566.9 194518.33 -106555 194542.14 -106543.1 M 195034.29 -104935.71 195046.19 -104947.62 195058.1 -104983.33 195058.1 -105007.14 195046.19 -105042.86 195022.38 -105066.67 194998.57 -105078.57 194950.95 -105090.48 194915.24 -105090.48 194867.62 -105078.57 194843.81 -105066.67 194820 -105042.86 194808.1 -105007.14 194808.1 -104983.33 194820 -104947.62 194831.9 -104935.71 M 195058.1 -104697.62 195058.1 -104840.48 M 195058.1 -104769.05 194808.1 -104769.05 194843.81 -104792.86 194867.62 -104816.67 194879.52 -104840.48 M 195058.1 -104578.57 195058.1 -104530.95 195046.19 -104507.14 195034.29 -104495.24 194998.57 -104471.43 194950.95 -104459.52 194855.71 -104459.52 194831.9 -104471.43 194820 -104483.33 194808.1 -104507.14 194808.1 -104554.76 194820 -104578.57 194831.9 -104590.48 194855.71 -104602.38 194915.24 -104602.38 194939.05 -104590.48 194950.95 -104578.57 194962.86 -104554.76 194962.86 -104507.14 194950.95 -104483.33 194939.05 -104471.43 194915.24 -104459.52 M 193764.29 -104935.71 193776.19 -104947.62 193788.1 -104983.33 193788.1 -105007.14 193776.19 -105042.86 193752.38 -105066.67 193728.57 -105078.57 193680.95 -105090.48 193645.24 -105090.48 193597.62 -105078.57 193573.81 -105066.67 193550 -105042.86 193538.1 -105007.14 193538.1 -104983.33 193550 -104947.62 193561.9 -104935.71 M 193788.1 -104697.62 193788.1 -104840.48 M 193788.1 -104769.05 193538.1 -104769.05 193573.81 -104792.86 193597.62 -104816.67 193609.52 -104840.48 M 193645.24 -104554.76 193633.33 -104578.57 193621.43 -104590.48 193597.62 -104602.38 193585.71 -104602.38 193561.9 -104590.48 193550 -104578.57 193538.1 -104554.76 193538.1 -104507.14 193550 -104483.33 193561.9 -104471.43 193585.71 -104459.52 193597.62 -104459.52 193621.43 -104471.43 193633.33 -104483.33 193645.24 -104507.14 193645.24 -104554.76 193657.14 -104578.57 193669.05 -104590.48 193692.86 -104602.38 193740.48 -104602.38 193764.29 -104590.48 193776.19 -104578.57 193788.1 -104554.76 193788.1 -104507.14 193776.19 -104483.33 193764.29 -104471.43 193740.48 -104459.52 193692.86 -104459.52 193669.05 -104471.43 193657.14 -104483.33 193645.24 -104507.14 M 201384.29 -111435.71 201396.19 -111447.62 201408.1 -111483.33 201408.1 -111507.14 201396.19 -111542.86 201372.38 -111566.67 201348.57 -111578.57 201300.95 -111590.48 201265.24 -111590.48 201217.62 -111578.57 201193.81 -111566.67 201170 -111542.86 201158.1 -111507.14 201158.1 -111483.33 201170 -111447.62 201181.9 -111435.71 M 201408.1 -111197.62 201408.1 -111340.48 M 201408.1 -111269.05 201158.1 -111269.05 201193.81 -111292.86 201217.62 -111316.67 201229.52 -111340.48 M 201158.1 -111114.29 201158.1 -110947.62 201408.1 -111054.76 M 196939.29 -101760.71 196951.19 -101772.62 196963.1 -101808.33 196963.1 -101832.14 196951.19 -101867.86 196927.38 -101891.67 196903.57 -101903.57 196855.95 -101915.48 196820.24 -101915.48 196772.62 -101903.57 196748.81 -101891.67 196725 -101867.86 196713.1 -101832.14 196713.1 -101808.33 196725 -101772.62 196736.9 -101760.71 M 196963.1 -101522.62 196963.1 -101665.48 M 196963.1 -101594.05 196713.1 -101594.05 196748.81 -101617.86 196772.62 -101641.67 196784.52 -101665.48 M 196713.1 -101308.33 196713.1 -101355.95 196725 -101379.76 196736.9 -101391.67 196772.62 -101415.48 196820.24 -101427.38 196915.48 -101427.38 196939.29 -101415.48 196951.19 -101403.57 196963.1 -101379.76 196963.1 -101332.14 196951.19 -101308.33 196939.29 -101296.43 196915.48 -101284.52 196855.95 -101284.52 196832.14 -101296.43 196820.24 -101308.33 196808.33 -101332.14 196808.33 -101379.76 196820.24 -101403.57 196832.14 -101415.48 196855.95 -101427.38 M 198082.29 -101760.71 198094.19 -101772.62 198106.1 -101808.33 198106.1 -101832.14 198094.19 -101867.86 198070.38 -101891.67 198046.57 -101903.57 197998.95 -101915.48 197963.24 -101915.48 197915.62 -101903.57 197891.81 -101891.67 197868 -101867.86 197856.1 -101832.14 197856.1 -101808.33 197868 -101772.62 197879.9 -101760.71 M 198106.1 -101522.62 198106.1 -101665.48 M 198106.1 -101594.05 197856.1 -101594.05 197891.81 -101617.86 197915.62 -101641.67 197927.52 -101665.48 M 197856.1 -101296.43 197856.1 -101415.48 197975.14 -101427.38 197963.24 -101415.48 197951.33 -101391.67 197951.33 -101332.14 197963.24 -101308.33 197975.14 -101296.43 197998.95 -101284.52 198058.48 -101284.52 198082.29 -101296.43 198094.19 -101308.33 198106.1 -101332.14 198106.1 -101391.67 198094.19 -101415.48 198082.29 -101427.38 M 192494.29 -106571.67 192506.19 -106583.57 192518.1 -106619.29 192518.1 -106643.1 192506.19 -106678.81 192482.38 -106702.62 192458.57 -106714.52 192410.95 -106726.43 192375.24 -106726.43 192327.62 -106714.52 192303.81 -106702.62 192280 -106678.81 192268.1 -106643.1 192268.1 -106619.29 192280 -106583.57 192291.9 -106571.67 M 192351.43 -106357.38 192518.1 -106357.38 M 192256.19 -106416.9 192434.76 -106476.43 192434.76 -106321.67 M 192998.33 -113119.28 192986.43 -113131.19 192950.71 -113143.09 192926.9 -113143.09 192891.19 -113131.19 192867.38 -113107.38 192855.48 -113083.57 192843.57 -113035.95 192843.57 -113000.24 192855.48 -112952.62 192867.38 -112928.81 192891.19 -112905 192926.9 -112893.09 192950.71 -112893.09 192986.43 -112905 192998.33 -112916.9 M 193236.43 -113143.09 193093.57 -113143.09 M 193165 -113143.09 193165 -112893.09 193141.19 -112928.81 193117.38 -112952.62 193093.57 -112964.52" fill="none" stroke-width="40"/></g><clipPath id="KE6r-hpTI3lF_top_outline"><path d="M 189230 -88265 A 635 635 0 0 0 189865 -87630 L 206375 -87630 A 635 635 0 0 0 207010 -88265 L 207010 -117475 A 635 635 0 0 0 206375 -118110 L 189865 -118110 A 635 635 0 0 0 189230 -117475 L 189230 -88265" fill="none" stroke-width="100"/></clipPath><mask id="KE6r-hpTI3lF_top_mech-mask"><g fill="#000" stroke="#000"><rect x="189230" y="-118110" width="17780" height="30480" fill="#fff"/><use xlink:href="#KE6r-hpTI3lF_top_drill1"/><use xlink:href="#KE6r-hpTI3lF_top_drill2"/><use xlink:href="#KE6r-hpTI3lF_top_drill3"/></g></mask></defs><g transform="translate(0,-205740) scale(1,-1)"><g mask="url(#KE6r-hpTI3lF_top_mech-mask)" clip-path="url(#KE6r-hpTI3lF_top_outline)"><rect x="189230" y="-118110" width="17780" height="30480" fill="currentColor" class="KE6r-hpTI3lF_fr4"/></g></g></svg>