<svg version="1.1" xmlns="http://www.w3.org/2000/svg" xmlns:xlink="http://www.w3.org/1999/xlink" stroke-linecap="round" stroke-linejoin="round" stroke-width="0" fill-rule="evenodd" width="17.88mm" height="30.42mm" viewBox="-1320 -1320 17880 30420"><g transform="translate(0,27780) scale(1,-1)" fill="currentColor" stroke="currentColor"><path d="M -1270 -635 -1270 26035 M 16510 26035 16510 -635 A 635 635 0 0 0 15875 -1270 M -635 -1270 A 635 635 0 0 0 -1270 -635 M -1270 26035 A 635 635 0 0 0 -635 26670 M 15875 26670 A 635 635 0 0 0 16510 26035 M 15875 26670 -635 26670 M -635 -1270 15875 -1270" fill="none" stroke-width="100"/><path d="M 16500 -1100 16500 29050 M -800 -1100 16500 -1100 M -800 -1100 -1270 -600 M -1270 29050 -1270 -600 M 16500 29050 -1270 29050" fill="none" stroke-width="100"/><path d="M 5929.33 13255.72 5929.33 13731.91 M 5643.62 13160.48 6643.62 13493.81 5643.62 13827.14 M 5643.62 14684.29 5643.62 14112.86 M 5643.62 14398.57 6643.62 14398.57 6500.76 14303.33 6405.52 14208.1 6357.9 14112.86 M 13961.9 20137.62 13390.48 20137.62 M 13676.19 19137.62 13676.19 20137.62 M 13057.14 19137.62 13057.14 20137.62 12676.19 20137.62 12580.95 20090 12533.33 20042.38 12485.71 19947.14 12485.71 19804.29 12533.33 19709.05 12580.95 19661.43 12676.19 19613.81 13057.14 19613.81 M 11533.33 19137.62 12104.76 19137.62 M 11819.05 19137.62 11819.05 20137.62 11914.29 19994.76 12009.52 19899.52 12104.76 19851.9" fill="none" stroke-width="150"/></g></svg>