<svg version="1.1" xmlns="http://www.w3.org/2000/svg" xmlns:xlink="http://www.w3.org/1999/xlink" stroke-linecap="round" stroke-linejoin="round" stroke-width="0" fill-rule="evenodd" clip-rule="evenodd" id="lTFZdQAf91Xf_bottom" viewBox="100330 -105410 17780 33020" width="17.78mm" height="33.02mm"><defs><style>.lTFZdQAf91Xf_fr4 {color: #666666;}
.lTFZdQAf91Xf_cu {color: #cccccc;}
.lTFZdQAf91Xf_cf {color: #cc9933;}
.lTFZdQAf91Xf_sm {color: #004200; opacity: 0.75;}
.lTFZdQAf91Xf_ss {color: #ffffff;}
.lTFZdQAf91Xf_sp {color: #999999;}
.lTFZdQAf91Xf_out {color: #000000;}</style><circle cx="0" cy="0" r="100" id="IBlpzRMRQkNL_pad-1"/><circle cx="0" cy="0" r="500" id="IBlpzRMRQkNL_pad-2"/><circle cx="0" cy="0" r="450" id="IBlpzRMRQkNL_pad-3"/><g id="lTFZdQAf91Xf_bottom_drill1"><use xlink:href="#IBlpzRMRQkNL_pad-1" x="100965" y="-85090"/><use xlink:href="#IBlpzRMRQkNL_pad-1" x="102616" y="-82550"/><use xlink:href="#IBlpzRMRQkNL_pad-1" x="102616" y="-85090"/><use xlink:href="#IBlpzRMRQkNL_pad-1" x="102616" y="-90170"/><use xlink:href="#IBlpzRMRQkNL_pad-1" x="104775" y="-92710"/><use xlink:href="#IBlpzRMRQkNL_pad-1" x="105283" y="-90170"/><use xlink:href="#IBlpzRMRQkNL_pad-1" x="105664" y="-80010"/><use xlink:href="#IBlpzRMRQkNL_pad-1" x="105791" y="-77470"/><use xlink:href="#IBlpzRMRQkNL_pad-1" x="106426" y="-76200"/><use xlink:href="#IBlpzRMRQkNL_pad-1" x="106426" y="-95123"/><use xlink:href="#IBlpzRMRQkNL_pad-1" x="106680" y="-85344"/><use xlink:href="#IBlpzRMRQkNL_pad-1" x="106680" y="-97790"/><use xlink:href="#IBlpzRMRQkNL_pad-1" x="107188" y="-104140"/><use xlink:href="#IBlpzRMRQkNL_pad-1" x="107315" y="-82550"/><use xlink:href="#IBlpzRMRQkNL_pad-1" x="107315" y="-83312"/><use xlink:href="#IBlpzRMRQkNL_pad-1" x="107315" y="-87757"/><use xlink:href="#IBlpzRMRQkNL_pad-1" x="107442" y="-84963"/><use xlink:href="#IBlpzRMRQkNL_pad-1" x="107492" y="-90442"/><use xlink:href="#IBlpzRMRQkNL_pad-1" x="107620" y="-95961"/><use xlink:href="#IBlpzRMRQkNL_pad-1" x="107950" y="-100330"/><use xlink:href="#IBlpzRMRQkNL_pad-1" x="108113" y="-94996"/><use xlink:href="#IBlpzRMRQkNL_pad-1" x="108204" y="-83312"/><use xlink:href="#IBlpzRMRQkNL_pad-1" x="108204" y="-86995"/><use xlink:href="#IBlpzRMRQkNL_pad-1" x="108585" y="-76835"/><use xlink:href="#IBlpzRMRQkNL_pad-1" x="109220" y="-100330"/><use xlink:href="#IBlpzRMRQkNL_pad-1" x="109855" y="-75692"/><use xlink:href="#IBlpzRMRQkNL_pad-1" x="109855" y="-76835"/><use xlink:href="#IBlpzRMRQkNL_pad-1" x="109982" y="-86845"/><use xlink:href="#IBlpzRMRQkNL_pad-1" x="110236" y="-87884"/><use xlink:href="#IBlpzRMRQkNL_pad-1" x="110490" y="-82550"/><use xlink:href="#IBlpzRMRQkNL_pad-1" x="110871" y="-90424"/><use xlink:href="#IBlpzRMRQkNL_pad-1" x="111125" y="-87884"/><use xlink:href="#IBlpzRMRQkNL_pad-1" x="111125" y="-95504"/><use xlink:href="#IBlpzRMRQkNL_pad-1" x="111252" y="-104140"/><use xlink:href="#IBlpzRMRQkNL_pad-1" x="111506" y="-83820"/><use xlink:href="#IBlpzRMRQkNL_pad-1" x="111760" y="-84709"/><use xlink:href="#IBlpzRMRQkNL_pad-1" x="112395" y="-93345"/><use xlink:href="#IBlpzRMRQkNL_pad-1" x="112522" y="-89281"/><use xlink:href="#IBlpzRMRQkNL_pad-1" x="112903" y="-81280"/><use xlink:href="#IBlpzRMRQkNL_pad-1" x="113030" y="-95377"/><use xlink:href="#IBlpzRMRQkNL_pad-1" x="113665" y="-88519"/><use xlink:href="#IBlpzRMRQkNL_pad-1" x="113665" y="-99568"/><use xlink:href="#IBlpzRMRQkNL_pad-1" x="114300" y="-78994"/><use xlink:href="#IBlpzRMRQkNL_pad-1" x="114681" y="-83058"/><use xlink:href="#IBlpzRMRQkNL_pad-1" x="114681" y="-84582"/><use xlink:href="#IBlpzRMRQkNL_pad-1" x="114681" y="-89281"/><use xlink:href="#IBlpzRMRQkNL_pad-1" x="114681" y="-90170"/><use xlink:href="#IBlpzRMRQkNL_pad-1" x="114681" y="-100330"/><use xlink:href="#IBlpzRMRQkNL_pad-1" x="114979" y="-87564"/><use xlink:href="#IBlpzRMRQkNL_pad-1" x="116205" y="-90170"/><use xlink:href="#IBlpzRMRQkNL_pad-1" x="116205" y="-102870"/><use xlink:href="#IBlpzRMRQkNL_pad-2" x="101600" y="-76200"/><use xlink:href="#IBlpzRMRQkNL_pad-2" x="101600" y="-78740"/><use xlink:href="#IBlpzRMRQkNL_pad-2" x="101600" y="-81280"/><use xlink:href="#IBlpzRMRQkNL_pad-2" x="101600" y="-83820"/><use xlink:href="#IBlpzRMRQkNL_pad-2" x="101600" y="-86360"/><use xlink:href="#IBlpzRMRQkNL_pad-2" x="101600" y="-88900"/><use xlink:href="#IBlpzRMRQkNL_pad-2" x="101600" y="-91440"/><use xlink:href="#IBlpzRMRQkNL_pad-2" x="101600" y="-93980"/><use xlink:href="#IBlpzRMRQkNL_pad-2" x="101600" y="-96520"/><use xlink:href="#IBlpzRMRQkNL_pad-2" x="101600" y="-99060"/><use xlink:href="#IBlpzRMRQkNL_pad-2" x="101600" y="-101600"/><use xlink:href="#IBlpzRMRQkNL_pad-2" x="101600" y="-104140"/><use xlink:href="#IBlpzRMRQkNL_pad-2" x="116840" y="-76200"/><use xlink:href="#IBlpzRMRQkNL_pad-2" x="116840" y="-78740"/><use xlink:href="#IBlpzRMRQkNL_pad-2" x="116840" y="-81280"/><use xlink:href="#IBlpzRMRQkNL_pad-2" x="116840" y="-83820"/><use xlink:href="#IBlpzRMRQkNL_pad-2" x="116840" y="-86360"/><use xlink:href="#IBlpzRMRQkNL_pad-2" x="116840" y="-88900"/><use xlink:href="#IBlpzRMRQkNL_pad-2" x="116840" y="-91440"/><use xlink:href="#IBlpzRMRQkNL_pad-2" x="116840" y="-93980"/><use xlink:href="#IBlpzRMRQkNL_pad-2" x="116840" y="-96520"/><use xlink:href="#IBlpzRMRQkNL_pad-2" x="116840" y="-99060"/><use xlink:href="#IBlpzRMRQkNL_pad-2" x="116840" y="-101600"/><use xlink:href="#IBlpzRMRQkNL_pad-2" x="116840" y="-104140"/><use xlink:href="#IBlpzRMRQkNL_pad-2" x="102870" y="-73660"/><use xlink:href="#IBlpzRMRQkNL_pad-2" x="105410" y="-73660"/><use xlink:href="#IBlpzRMRQkNL_pad-2" x="107950" y="-73660"/><use xlink:href="#IBlpzRMRQkNL_pad-2" x="110490" y="-73660"/><use xlink:href="#IBlpzRMRQkNL_pad-2" x="113030" y="-73660"/><use xlink:href="#IBlpzRMRQkNL_pad-2" x="115570" y="-73660"/><use xlink:href="#IBlpzRMRQkNL_pad-3" x="107020" y="-100330"/><use xlink:href="#IBlpzRMRQkNL_pad-3" x="111420" y="-100330"/></g><g id="lTFZdQAf91Xf_bottom_drill2"><path d="M 100965 -105410 A 635 635 0 0 0 100330 -104775 M 118110 -104775 A 635 635 0 0 0 117475 -105410 M 117475 -72390 A 635 635 0 0 0 118110 -73025 M 100330 -73025 A 635 635 0 0 0 100965 -72390 M 100330 -104775 100330 -73025 M 117475 -105410 100965 -105410 M 118110 -73025 118110 -104775 M 100965 -72390 117475 -72390 M 109970 -89130 110720 -88380 M 107720 -89130 109970 -89130 M 107720 -86130 107720 -89130 M 110720 -86130 107720 -86130 M 110720 -88380 110720 -86130 M 106930 -86860 106930 -85860 M 106430 -86860 106930 -86860 M 106430 -85860 106430 -86860 M 106930 -85860 106430 -85860 M 106930 -89400 106930 -88400 M 106430 -89400 106930 -89400 M 106430 -88400 106430 -89400 M 106930 -88400 106430 -88400 M 111510 -85860 111510 -86860 M 112010 -85860 111510 -85860 M 112010 -86860 112010 -85860 M 111510 -86860 112010 -86860 M 111510 -88400 111510 -89400 M 112010 -88400 111510 -88400 M 112010 -89400 112010 -88400 M 111510 -89400 112010 -89400 M 112795 -104152.5 112795 -102552.5 M 111995 -104152.5 112795 -104152.5 M 111995 -102552.5 111995 -104152.5 M 112795 -102552.5 111995 -102552.5 M 105645 -102552.5 105645 -104152.5 M 106445 -102552.5 105645 -102552.5 M 106445 -104152.5 106445 -102552.5 M 105645 -104152.5 106445 -104152.5 M 110770 -102140 107670 -102140 107670 -103940 M 110120 -103940 107670 -103940 M 110770 -102140 110770 -103290 M 110120 -103940 110770 -103290 M 103740 -102552.5 103740 -104152.5 M 104540 -102552.5 103740 -102552.5 M 104540 -104152.5 104540 -102552.5 M 103740 -104152.5 104540 -104152.5" fill="none" stroke-width="100"/><path d="M 109444.29 -87058.57 110051.43 -87058.57 110122.86 -87094.29 110158.57 -87130 110194.29 -87201.43 110194.29 -87344.29 110158.57 -87415.71 110122.86 -87451.43 110051.43 -87487.14 109444.29 -87487.14 M 109515.71 -87808.57 109480 -87844.29 109444.29 -87915.71 109444.29 -88094.29 109480 -88165.71 109515.71 -88201.43 109587.14 -88237.14 109658.57 -88237.14 109765.71 -88201.43 110194.29 -87772.86 110194.29 -88237.14" fill="none" stroke-width="110"/><path d="M 106793.1 -86199.29 106674.05 -86115.95 M 106793.1 -86056.43 106543.1 -86056.43 106543.1 -86151.67 106555 -86175.48 106566.9 -86187.38 106590.71 -86199.29 106626.43 -86199.29 106650.24 -86187.38 106662.14 -86175.48 106674.05 -86151.67 106674.05 -86056.43 M 106566.9 -86294.52 106555 -86306.43 106543.1 -86330.24 106543.1 -86389.76 106555 -86413.57 106566.9 -86425.48 106590.71 -86437.38 106614.52 -86437.38 106650.24 -86425.48 106793.1 -86282.62 106793.1 -86437.38 M 106543.1 -86520.71 106543.1 -86675.48 106638.33 -86592.14 106638.33 -86627.86 106650.24 -86651.67 106662.14 -86663.57 106685.95 -86675.48 106745.48 -86675.48 106769.29 -86663.57 106781.19 -86651.67 106793.1 -86627.86 106793.1 -86556.43 106781.19 -86532.62 106769.29 -86520.71 M 106793.1 -88739.29 106674.05 -88655.95 M 106793.1 -88596.43 106543.1 -88596.43 106543.1 -88691.67 106555 -88715.48 106566.9 -88727.38 106590.71 -88739.29 106626.43 -88739.29 106650.24 -88727.38 106662.14 -88715.48 106674.05 -88691.67 106674.05 -88596.43 M 106566.9 -88834.52 106555 -88846.43 106543.1 -88870.24 106543.1 -88929.76 106555 -88953.57 106566.9 -88965.48 106590.71 -88977.38 106614.52 -88977.38 106650.24 -88965.48 106793.1 -88822.62 106793.1 -88977.38 M 106793.1 -89215.48 106793.1 -89072.62 M 106793.1 -89144.05 106543.1 -89144.05 106578.81 -89120.24 106602.62 -89096.43 106614.52 -89072.62 M 111873.09 -86199.29 111754.05 -86115.95 M 111873.09 -86056.43 111623.1 -86056.43 111623.1 -86151.67 111635 -86175.48 111646.9 -86187.38 111670.71 -86199.29 111706.43 -86199.29 111730.24 -86187.38 111742.14 -86175.48 111754.05 -86151.67 111754.05 -86056.43 M 111646.9 -86294.52 111635 -86306.43 111623.1 -86330.24 111623.1 -86389.76 111635 -86413.57 111646.9 -86425.48 111670.71 -86437.38 111694.52 -86437.38 111730.24 -86425.48 111873.09 -86282.62 111873.09 -86437.38 M 111623.1 -86592.14 111623.1 -86615.95 111635 -86639.76 111646.9 -86651.67 111670.71 -86663.57 111718.33 -86675.48 111777.86 -86675.48 111825.48 -86663.57 111849.28 -86651.67 111861.19 -86639.76 111873.09 -86615.95 111873.09 -86592.14 111861.19 -86568.33 111849.28 -86556.43 111825.48 -86544.52 111777.86 -86532.62 111718.33 -86532.62 111670.71 -86544.52 111646.9 -86556.43 111635 -86568.33 111623.1 -86592.14 M 111873.09 -88739.29 111754.05 -88655.95 M 111873.09 -88596.43 111623.1 -88596.43 111623.1 -88691.67 111635 -88715.48 111646.9 -88727.38 111670.71 -88739.29 111706.43 -88739.29 111730.24 -88727.38 111742.14 -88715.48 111754.05 -88691.67 111754.05 -88596.43 M 111873.09 -88977.38 111873.09 -88834.52 M 111873.09 -88905.95 111623.1 -88905.95 111658.81 -88882.14 111682.62 -88858.33 111694.52 -88834.52 M 111873.09 -89096.43 111873.09 -89144.05 111861.19 -89167.86 111849.28 -89179.76 111813.57 -89203.57 111765.95 -89215.48 111670.71 -89215.48 111646.9 -89203.57 111635 -89191.67 111623.1 -89167.86 111623.1 -89120.24 111635 -89096.43 111646.9 -89084.52 111670.71 -89072.62 111730.24 -89072.62 111754.05 -89084.52 111765.95 -89096.43 111777.86 -89120.24 111777.86 -89167.86 111765.95 -89191.67 111754.05 -89203.57 111730.24 -89215.48" fill="none" stroke-width="40"/><path d="M 112537.86 -103095.36 112556.9 -103076.31 112575.95 -103019.17 112575.95 -102981.07 112556.9 -102923.93 112518.81 -102885.83 112480.71 -102866.79 112404.52 -102847.74 112347.38 -102847.74 112271.19 -102866.79 112233.09 -102885.83 112195 -102923.93 112175.95 -102981.07 112175.95 -103019.17 112195 -103076.31 112214.05 -103095.36 M 112575.95 -103476.31 112575.95 -103247.74 M 112575.95 -103362.02 112175.95 -103362.02 112233.09 -103323.93 112271.19 -103285.83 112290.24 -103247.74 M 112309.28 -103819.17 112575.95 -103819.17 M 112156.9 -103723.93 112442.62 -103628.69 112442.62 -103876.31 M 106187.86 -103095.36 106206.9 -103076.31 106225.95 -103019.17 106225.95 -102981.07 106206.9 -102923.93 106168.81 -102885.83 106130.71 -102866.79 106054.52 -102847.74 105997.38 -102847.74 105921.19 -102866.79 105883.1 -102885.83 105845 -102923.93 105825.95 -102981.07 105825.95 -103019.17 105845 -103076.31 105864.05 -103095.36 M 106225.95 -103476.31 106225.95 -103247.74 M 106225.95 -103362.02 105825.95 -103362.02 105883.1 -103323.93 105921.19 -103285.83 105940.24 -103247.74 M 105825.95 -103609.64 105825.95 -103857.26 105978.33 -103723.93 105978.33 -103781.07 105997.38 -103819.17 106016.43 -103838.21 106054.52 -103857.26 106149.76 -103857.26 106187.86 -103838.21 106206.9 -103819.17 106225.95 -103781.07 106225.95 -103666.79 106206.9 -103628.69 106187.86 -103609.64" fill="none" stroke-width="60"/><path d="M 109600.95 -102766.19 109600.95 -103170.95 109577.14 -103218.57 109553.33 -103242.38 109505.71 -103266.19 109410.48 -103266.19 109362.86 -103242.38 109339.05 -103218.57 109315.24 -103170.95 109315.24 -102766.19 M 109124.76 -102766.19 108815.24 -102766.19 108981.9 -102956.67 108910.48 -102956.67 108862.86 -102980.48 108839.05 -103004.29 108815.24 -103051.9 108815.24 -103170.95 108839.05 -103218.57 108862.86 -103242.38 108910.48 -103266.19 109053.33 -103266.19 109100.95 -103242.38 109124.76 -103218.57" fill="none" stroke-width="75"/><path d="M 104320.95 -103285.83 104320.95 -103095.36 103920.95 -103095.36 M 104320.95 -103628.69 104320.95 -103400.12 M 104320.95 -103514.4 103920.95 -103514.4 103978.1 -103476.31 104016.19 -103438.21 104035.24 -103400.12" fill="none" stroke-width="60"/></g><g id="lTFZdQAf91Xf_bottom_drill3"><path d="M 100965 -105410 A 635 635 0 0 0 100330 -104775 M 118110 -104775 A 635 635 0 0 0 117475 -105410 M 117475 -72390 A 635 635 0 0 0 118110 -73025 M 100330 -73025 A 635 635 0 0 0 100965 -72390 M 100330 -104775 100330 -73025 M 117475 -105410 100965 -105410 M 118110 -73025 118110 -104775 M 100965 -72390 117475 -72390 M 106720 -88590 105720 -87590 M 112720 -88590 106720 -88590 M 112720 -81590 112720 -88590 M 105720 -81590 112720 -81590 M 105720 -87590 105720 -81590 M 107065 -92575 107065 -91575 M 107565 -92575 107065 -92575 M 107565 -91575 107565 -92575 M 107065 -91575 107565 -91575 M 103755 -79510 103755 -80510 M 103255 -79510 103755 -79510 M 103255 -80510 103255 -79510 M 103755 -80510 103255 -80510 M 105025 -79510 105025 -80510 M 104525 -79510 105025 -79510 M 104525 -80510 104525 -79510 M 105025 -80510 104525 -80510 M 112145 -92575 112145 -91575 M 112645 -92575 112145 -92575 M 112645 -91575 112645 -92575 M 112145 -91575 112645 -91575 M 107565 -94115 107565 -95115 M 107065 -94115 107565 -94115 M 107065 -95115 107065 -94115 M 107565 -95115 107065 -95115 M 103255 -85590 103255 -84590 M 103755 -85590 103255 -85590 M 103755 -84590 103755 -85590 M 103255 -84590 103755 -84590 M 103890 -95115 103890 -94115 M 104390 -95115 103890 -95115 M 104390 -94115 104390 -95115 M 103890 -94115 104390 -94115 M 105160 -95115 105160 -94115 M 105660 -95115 105160 -95115 M 105660 -94115 105660 -95115 M 105160 -94115 105660 -94115 M 113800 -81030 114800 -81030 M 113800 -81530 113800 -81030 M 114800 -81530 113800 -81530 M 114800 -81030 114800 -81530 M 111375 -91575 111375 -92575 M 110875 -91575 111375 -91575 M 110875 -92575 110875 -91575 M 111375 -92575 110875 -92575 M 103755 -86495 103755 -87495 M 103255 -86495 103755 -86495 M 103255 -87495 103255 -86495 M 103755 -87495 103255 -87495 M 103755 -82050 103755 -83050 M 103255 -82050 103755 -82050 M 103255 -83050 103255 -82050 M 103755 -83050 103255 -83050 M 108335 -92575 108335 -91575 M 108835 -92575 108335 -92575 M 108835 -91575 108835 -92575 M 108335 -91575 108835 -91575 M 109605 -92575 109605 -91575 M 110105 -92575 109605 -92575 M 110105 -91575 110105 -92575 M 109605 -91575 110105 -91575 M 113800 -91190 114800 -91190 M 113800 -91690 113800 -91190 M 114800 -91690 113800 -91690 M 114800 -91190 114800 -91690 M 113800 -93730 114800 -93730 M 113800 -94230 113800 -93730 M 114800 -94230 113800 -94230 M 114800 -93730 114800 -94230 M 108200 -77605 108200 -78605 M 107700 -77605 108200 -77605 M 107700 -78605 107700 -77605 M 108200 -78605 107700 -78605 M 109470 -77605 109470 -78605 M 108970 -77605 109470 -77605 M 108970 -78605 108970 -77605 M 109470 -78605 108970 -78605 M 110740 -77605 110740 -78605 M 110240 -77605 110740 -77605 M 110240 -78605 110240 -77605 M 110740 -78605 110240 -78605 M 112010 -77605 112010 -78605 M 111510 -77605 112010 -77605 M 111510 -78605 111510 -77605 M 112010 -78605 111510 -78605 M 107920 -96980 113070 -96980 M 107620 -97480 107920 -96980 M 107320 -96980 107620 -97480 M 105370 -106230 105370 -96980 M 113070 -106230 105370 -106230 M 113070 -96980 113070 -106230 M 105370 -96980 107320 -96980 M 106375 -91325 103175 -91325 M 106375 -92825 103175 -92825 103175 -91325 M 106375 -92825 106375 -91325 M 113500 -79610 115100 -79610 M 113500 -80410 113500 -79610 M 115100 -80410 113500 -80410 M 115100 -79610 115100 -80410 M 115890 -69620 115890 -63620 M 115250 -63620 115890 -63620 M 115250 -69620 115250 -63620 M 115890 -73980 115890 -72160 M 115250 -73980 115890 -73980 M 115250 -73980 115250 -72160 M 113350 -69620 113350 -63620 M 112710 -63620 113350 -63620 M 112710 -69620 112710 -63620 M 113350 -73980 113350 -72160 M 112710 -73980 113350 -73980 M 112710 -73980 112710 -72160 M 110810 -69620 110810 -63620 M 110170 -63620 110810 -63620 M 110170 -69620 110170 -63620 M 110810 -73980 110810 -72160 M 110170 -73980 110810 -73980 M 110170 -73980 110170 -72160 M 108270 -69620 108270 -63620 M 107630 -63620 108270 -63620 M 107630 -69620 107630 -63620 M 108270 -73980 108270 -72160 M 107630 -73980 108270 -73980 M 107630 -73980 107630 -72160 M 105730 -69620 105730 -63620 M 105090 -63620 105730 -63620 M 105090 -69620 105090 -63620 M 105730 -73980 105730 -72160 M 105090 -73980 105730 -73980 M 105090 -73980 105090 -72160 M 103190 -69620 103190 -63620 M 102550 -63620 103190 -63620 M 102550 -69620 102550 -63620 M 103190 -73980 103190 -72160 M 102550 -73980 103190 -73980 M 102550 -73980 102550 -72160 M 102235 -72160 101600 -71525 M 116840 -72160 102235 -72160 M 116840 -69620 116840 -72160 M 101600 -69620 116840 -69620 M 101600 -71525 101600 -69620 M 115100 -78505 115100 -77705 M 113500 -78505 115100 -78505 M 113500 -78005 113500 -78505 M 113800 -77705 113500 -78005 M 115100 -77705 113800 -77705 M 115100 -76600 115100 -75800 M 113500 -76600 115100 -76600 M 113500 -76100 113500 -76600 M 113800 -75800 113500 -76100 M 115100 -75800 113800 -75800 M 100340 -75090 118110 -75090 118110 -104740 M 117640 -105240 118110 -104740 M 117640 -105240 100340 -105240 100340 -75090" fill="none" stroke-width="100"/><path d="M 108781.9 -85699.52 109429.52 -85699.52 109505.71 -85661.43 109543.81 -85623.33 109581.9 -85547.14 109581.9 -85394.76 109543.81 -85318.57 109505.71 -85280.48 109429.52 -85242.38 108781.9 -85242.38 M 109581.9 -84442.38 109581.9 -84899.52 M 109581.9 -84670.95 108781.9 -84670.95 108896.19 -84747.14 108972.38 -84823.33 109010.48 -84899.52" fill="none" stroke-width="200"/><path d="M 107428.1 -92235.71 107309.05 -92319.05 M 107428.1 -92378.57 107178.1 -92378.57 107178.1 -92283.33 107190 -92259.52 107201.9 -92247.62 107225.71 -92235.71 107261.43 -92235.71 107285.24 -92247.62 107297.14 -92259.52 107309.05 -92283.33 107309.05 -92378.57 M 107201.9 -92140.48 107190 -92128.57 107178.1 -92104.76 107178.1 -92045.24 107190 -92021.43 107201.9 -92009.52 107225.71 -91997.62 107249.52 -91997.62 107285.24 -92009.52 107428.1 -92152.38 107428.1 -91997.62 M 107201.9 -91902.38 107190 -91890.48 107178.1 -91866.67 107178.1 -91807.14 107190 -91783.33 107201.9 -91771.43 107225.71 -91759.52 107249.52 -91759.52 107285.24 -91771.43 107428.1 -91914.29 107428.1 -91759.52 M 103594.29 -80051.67 103606.19 -80063.57 103618.1 -80099.28 103618.1 -80123.09 103606.19 -80158.81 103582.38 -80182.62 103558.57 -80194.52 103510.95 -80206.43 103475.24 -80206.43 103427.62 -80194.52 103403.81 -80182.62 103380 -80158.81 103368.1 -80123.09 103368.1 -80099.28 103380 -80063.57 103391.9 -80051.67 M 103475.24 -79908.81 103463.33 -79932.62 103451.43 -79944.52 103427.62 -79956.43 103415.71 -79956.43 103391.9 -79944.52 103380 -79932.62 103368.1 -79908.81 103368.1 -79861.19 103380 -79837.38 103391.9 -79825.48 103415.71 -79813.57 103427.62 -79813.57 103451.43 -79825.48 103463.33 -79837.38 103475.24 -79861.19 103475.24 -79908.81 103487.14 -79932.62 103499.05 -79944.52 103522.86 -79956.43 103570.48 -79956.43 103594.29 -79944.52 103606.19 -79932.62 103618.1 -79908.81 103618.1 -79861.19 103606.19 -79837.38 103594.29 -79825.48 103570.48 -79813.57 103522.86 -79813.57 103499.05 -79825.48 103487.14 -79837.38 103475.24 -79861.19 M 104864.29 -80051.67 104876.19 -80063.57 104888.1 -80099.28 104888.1 -80123.09 104876.19 -80158.81 104852.38 -80182.62 104828.57 -80194.52 104780.95 -80206.43 104745.24 -80206.43 104697.62 -80194.52 104673.81 -80182.62 104650 -80158.81 104638.1 -80123.09 104638.1 -80099.28 104650 -80063.57 104661.9 -80051.67 M 104638.1 -79968.33 104638.1 -79801.67 104888.1 -79908.81 M 112484.28 -92116.67 112496.19 -92128.57 112508.09 -92164.29 112508.09 -92188.1 112496.19 -92223.81 112472.38 -92247.62 112448.57 -92259.52 112400.95 -92271.43 112365.24 -92271.43 112317.62 -92259.52 112293.81 -92247.62 112270 -92223.81 112258.09 -92188.1 112258.09 -92164.29 112270 -92128.57 112281.9 -92116.67 M 112508.09 -91878.57 112508.09 -92021.43 M 112508.09 -91950 112258.09 -91950 112293.81 -91973.81 112317.62 -91997.62 112329.52 -92021.43 M 107404.29 -94656.67 107416.19 -94668.57 107428.1 -94704.29 107428.1 -94728.1 107416.19 -94763.81 107392.38 -94787.62 107368.57 -94799.52 107320.95 -94811.43 107285.24 -94811.43 107237.62 -94799.52 107213.81 -94787.62 107190 -94763.81 107178.1 -94728.1 107178.1 -94704.29 107190 -94668.57 107201.9 -94656.67 M 107201.9 -94561.43 107190 -94549.52 107178.1 -94525.71 107178.1 -94466.19 107190 -94442.38 107201.9 -94430.48 107225.71 -94418.57 107249.52 -94418.57 107285.24 -94430.48 107428.1 -94573.33 107428.1 -94418.57 M 103594.29 -85131.67 103606.19 -85143.57 103618.1 -85179.29 103618.1 -85203.1 103606.19 -85238.81 103582.38 -85262.62 103558.57 -85274.52 103510.95 -85286.43 103475.24 -85286.43 103427.62 -85274.52 103403.81 -85262.62 103380 -85238.81 103368.1 -85203.1 103368.1 -85179.29 103380 -85143.57 103391.9 -85131.67 M 103368.1 -85048.33 103368.1 -84893.57 103463.33 -84976.9 103463.33 -84941.19 103475.24 -84917.38 103487.14 -84905.48 103510.95 -84893.57 103570.48 -84893.57 103594.29 -84905.48 103606.19 -84917.38 103618.1 -84941.19 103618.1 -85012.62 103606.19 -85036.43 103594.29 -85048.33 M 104229.29 -94656.67 104241.19 -94668.57 104253.1 -94704.29 104253.1 -94728.1 104241.19 -94763.81 104217.38 -94787.62 104193.57 -94799.52 104145.95 -94811.43 104110.24 -94811.43 104062.62 -94799.52 104038.81 -94787.62 104015 -94763.81 104003.1 -94728.1 104003.1 -94704.29 104015 -94668.57 104026.9 -94656.67 M 104003.1 -94430.48 104003.1 -94549.52 104122.14 -94561.43 104110.24 -94549.52 104098.33 -94525.71 104098.33 -94466.19 104110.24 -94442.38 104122.14 -94430.48 104145.95 -94418.57 104205.48 -94418.57 104229.29 -94430.48 104241.19 -94442.38 104253.1 -94466.19 104253.1 -94525.71 104241.19 -94549.52 104229.29 -94561.43 M 105499.29 -94656.67 105511.19 -94668.57 105523.1 -94704.29 105523.1 -94728.1 105511.19 -94763.81 105487.38 -94787.62 105463.57 -94799.52 105415.95 -94811.43 105380.24 -94811.43 105332.62 -94799.52 105308.81 -94787.62 105285 -94763.81 105273.1 -94728.1 105273.1 -94704.29 105285 -94668.57 105296.9 -94656.67 M 105273.1 -94442.38 105273.1 -94490 105285 -94513.81 105296.9 -94525.71 105332.62 -94549.52 105380.24 -94561.43 105475.48 -94561.43 105499.29 -94549.52 105511.19 -94537.62 105523.1 -94513.81 105523.1 -94466.19 105511.19 -94442.38 105499.29 -94430.48 105475.48 -94418.57 105415.95 -94418.57 105392.14 -94430.48 105380.24 -94442.38 105368.33 -94466.19 105368.33 -94513.81 105380.24 -94537.62 105392.14 -94549.52 105415.95 -94561.43 M 114258.33 -81369.28 114246.43 -81381.19 114210.71 -81393.09 114186.9 -81393.09 114151.19 -81381.19 114127.38 -81357.38 114115.48 -81333.57 114103.57 -81285.95 114103.57 -81250.24 114115.48 -81202.62 114127.38 -81178.81 114151.19 -81155 114186.9 -81143.09 114210.71 -81143.09 114246.43 -81155 114258.33 -81166.9 M 114377.38 -81393.09 114425 -81393.09 114448.81 -81381.19 114460.71 -81369.28 114484.52 -81333.57 114496.43 -81285.95 114496.43 -81190.71 114484.52 -81166.9 114472.62 -81155 114448.81 -81143.09 114401.19 -81143.09 114377.38 -81155 114365.48 -81166.9 114353.57 -81190.71 114353.57 -81250.24 114365.48 -81274.05 114377.38 -81285.95 114401.19 -81297.86 114448.81 -81297.86 114472.62 -81285.95 114484.52 -81274.05 114496.43 -81250.24 M 111214.29 -92235.71 111226.19 -92247.62 111238.1 -92283.33 111238.1 -92307.14 111226.19 -92342.86 111202.38 -92366.67 111178.57 -92378.57 111130.95 -92390.48 111095.24 -92390.48 111047.62 -92378.57 111023.81 -92366.67 111000 -92342.86 110988.1 -92307.14 110988.1 -92283.33 111000 -92247.62 111011.9 -92235.71 M 111238.1 -91997.62 111238.1 -92140.48 M 111238.1 -92069.05 110988.1 -92069.05 111023.81 -92092.86 111047.62 -92116.67 111059.52 -92140.48 M 110988.1 -91842.86 110988.1 -91819.05 111000 -91795.24 111011.9 -91783.33 111035.71 -91771.43 111083.33 -91759.52 111142.86 -91759.52 111190.48 -91771.43 111214.29 -91783.33 111226.19 -91795.24 111238.1 -91819.05 111238.1 -91842.86 111226.19 -91866.67 111214.29 -91878.57 111190.48 -91890.48 111142.86 -91902.38 111083.33 -91902.38 111035.71 -91890.48 111011.9 -91878.57 111000 -91866.67 110988.1 -91842.86 M 103594.29 -87155.71 103606.19 -87167.62 103618.1 -87203.33 103618.1 -87227.14 103606.19 -87262.86 103582.38 -87286.67 103558.57 -87298.57 103510.95 -87310.48 103475.24 -87310.48 103427.62 -87298.57 103403.81 -87286.67 103380 -87262.86 103368.1 -87227.14 103368.1 -87203.33 103380 -87167.62 103391.9 -87155.71 M 103618.1 -86917.62 103618.1 -87060.48 M 103618.1 -86989.05 103368.1 -86989.05 103403.81 -87012.86 103427.62 -87036.67 103439.52 -87060.48 M 103618.1 -86679.52 103618.1 -86822.38 M 103618.1 -86750.95 103368.1 -86750.95 103403.81 -86774.76 103427.62 -86798.57 103439.52 -86822.38 M 103594.29 -82710.71 103606.19 -82722.62 103618.1 -82758.33 103618.1 -82782.14 103606.19 -82817.86 103582.38 -82841.67 103558.57 -82853.57 103510.95 -82865.48 103475.24 -82865.48 103427.62 -82853.57 103403.81 -82841.67 103380 -82817.86 103368.1 -82782.14 103368.1 -82758.33 103380 -82722.62 103391.9 -82710.71 M 103618.1 -82472.62 103618.1 -82615.48 M 103618.1 -82544.05 103368.1 -82544.05 103403.81 -82567.86 103427.62 -82591.67 103439.52 -82615.48 M 103391.9 -82377.38 103380 -82365.48 103368.1 -82341.67 103368.1 -82282.14 103380 -82258.33 103391.9 -82246.43 103415.71 -82234.52 103439.52 -82234.52 103475.24 -82246.43 103618.1 -82389.28 103618.1 -82234.52 M 108698.1 -92116.67 108579.05 -92200 M 108698.1 -92259.52 108448.1 -92259.52 108448.1 -92164.29 108460 -92140.48 108471.9 -92128.57 108495.71 -92116.67 108531.43 -92116.67 108555.24 -92128.57 108567.14 -92140.48 108579.05 -92164.29 108579.05 -92259.52 M 108698.1 -91878.57 108698.1 -92021.43 M 108698.1 -91950 108448.1 -91950 108483.81 -91973.81 108507.62 -91997.62 108519.52 -92021.43 M 109968.1 -92116.67 109849.05 -92200 M 109968.1 -92259.52 109718.1 -92259.52 109718.1 -92164.29 109730 -92140.48 109741.9 -92128.57 109765.71 -92116.67 109801.43 -92116.67 109825.24 -92128.57 109837.14 -92140.48 109849.05 -92164.29 109849.05 -92259.52 M 109741.9 -92021.43 109730 -92009.52 109718.1 -91985.71 109718.1 -91926.19 109730 -91902.38 109741.9 -91890.48 109765.71 -91878.57 109789.52 -91878.57 109825.24 -91890.48 109968.1 -92033.33 109968.1 -91878.57 M 114258.33 -91553.1 114175 -91434.05 M 114115.48 -91553.1 114115.48 -91303.1 114210.71 -91303.1 114234.52 -91315 114246.43 -91326.9 114258.33 -91350.71 114258.33 -91386.43 114246.43 -91410.24 114234.52 -91422.14 114210.71 -91434.05 114115.48 -91434.05 M 114341.67 -91303.1 114496.43 -91303.1 114413.09 -91398.33 114448.81 -91398.33 114472.62 -91410.24 114484.52 -91422.14 114496.43 -91445.95 114496.43 -91505.48 114484.52 -91529.29 114472.62 -91541.19 114448.81 -91553.1 114377.38 -91553.1 114353.57 -91541.19 114341.67 -91529.29 M 114258.33 -94093.1 114175 -93974.05 M 114115.48 -94093.1 114115.48 -93843.1 114210.71 -93843.1 114234.52 -93855 114246.43 -93866.9 114258.33 -93890.71 114258.33 -93926.43 114246.43 -93950.24 114234.52 -93962.14 114210.71 -93974.05 114115.48 -93974.05 M 114472.62 -93926.43 114472.62 -94093.1 M 114413.09 -93831.19 114353.57 -94009.76 114508.33 -94009.76 M 108063.1 -78146.67 107944.05 -78230 M 108063.1 -78289.52 107813.1 -78289.52 107813.1 -78194.28 107825 -78170.48 107836.9 -78158.57 107860.71 -78146.67 107896.43 -78146.67 107920.24 -78158.57 107932.14 -78170.48 107944.05 -78194.28 107944.05 -78289.52 M 107813.1 -77920.48 107813.1 -78039.52 107932.14 -78051.43 107920.24 -78039.52 107908.33 -78015.71 107908.33 -77956.19 107920.24 -77932.38 107932.14 -77920.48 107955.95 -77908.57 108015.48 -77908.57 108039.29 -77920.48 108051.19 -77932.38 108063.1 -77956.19 108063.1 -78015.71 108051.19 -78039.52 108039.29 -78051.43 M 109333.1 -78265.71 109214.05 -78349.05 M 109333.1 -78408.57 109083.1 -78408.57 109083.1 -78313.33 109095 -78289.52 109106.9 -78277.62 109130.71 -78265.71 109166.43 -78265.71 109190.24 -78277.62 109202.14 -78289.52 109214.05 -78313.33 109214.05 -78408.57 M 109333.1 -78027.62 109333.1 -78170.48 M 109333.1 -78099.05 109083.1 -78099.05 109118.81 -78122.86 109142.62 -78146.67 109154.52 -78170.48 M 109083.1 -77801.43 109083.1 -77920.48 109202.14 -77932.38 109190.24 -77920.48 109178.33 -77896.67 109178.33 -77837.14 109190.24 -77813.33 109202.14 -77801.43 109225.95 -77789.52 109285.48 -77789.52 109309.29 -77801.43 109321.19 -77813.33 109333.1 -77837.14 109333.1 -77896.67 109321.19 -77920.48 109309.29 -77932.38 M 110603.1 -78265.71 110484.05 -78349.05 M 110603.1 -78408.57 110353.1 -78408.57 110353.1 -78313.33 110365 -78289.52 110376.9 -78277.62 110400.71 -78265.71 110436.43 -78265.71 110460.24 -78277.62 110472.14 -78289.52 110484.05 -78313.33 110484.05 -78408.57 M 110603.1 -78027.62 110603.1 -78170.48 M 110603.1 -78099.05 110353.1 -78099.05 110388.81 -78122.86 110412.62 -78146.67 110424.52 -78170.48 M 110353.1 -77813.33 110353.1 -77860.95 110365 -77884.76 110376.9 -77896.67 110412.62 -77920.48 110460.24 -77932.38 110555.48 -77932.38 110579.29 -77920.48 110591.19 -77908.57 110603.1 -77884.76 110603.1 -77837.14 110591.19 -77813.33 110579.29 -77801.43 110555.48 -77789.52 110495.95 -77789.52 110472.14 -77801.43 110460.24 -77813.33 110448.33 -77837.14 110448.33 -77884.76 110460.24 -77908.57 110472.14 -77920.48 110495.95 -77932.38 M 111873.09 -78265.71 111754.05 -78349.05 M 111873.09 -78408.57 111623.1 -78408.57 111623.1 -78313.33 111635 -78289.52 111646.9 -78277.62 111670.71 -78265.71 111706.43 -78265.71 111730.24 -78277.62 111742.14 -78289.52 111754.05 -78313.33 111754.05 -78408.57 M 111873.09 -78027.62 111873.09 -78170.48 M 111873.09 -78099.05 111623.1 -78099.05 111658.81 -78122.86 111682.62 -78146.67 111694.52 -78170.48 M 111623.1 -77944.28 111623.1 -77777.62 111873.09 -77884.76" fill="none" stroke-width="40"/><path d="M 106000.95 -102431.9 106000.95 -103079.52 106039.05 -103155.71 106077.14 -103193.81 106153.33 -103231.9 106305.71 -103231.9 106381.9 -103193.81 106420 -103155.71 106458.1 -103079.52 106458.1 -102431.9 M 106800.95 -103193.81 106915.24 -103231.9 107105.71 -103231.9 107181.9 -103193.81 107220 -103155.71 107258.1 -103079.52 107258.1 -103003.33 107220 -102927.14 107181.9 -102889.05 107105.71 -102850.95 106953.33 -102812.86 106877.14 -102774.76 106839.05 -102736.67 106800.95 -102660.48 106800.95 -102584.29 106839.05 -102508.1 106877.14 -102470 106953.33 -102431.9 107143.81 -102431.9 107258.1 -102470 M 107867.62 -102812.86 107981.9 -102850.95 108020 -102889.05 108058.1 -102965.24 108058.1 -103079.52 108020 -103155.71 107981.9 -103193.81 107905.71 -103231.9 107600.95 -103231.9 107600.95 -102431.9 107867.62 -102431.9 107943.81 -102470 107981.9 -102508.1 108020 -102584.29 108020 -102660.48 107981.9 -102736.67 107943.81 -102774.76 107867.62 -102812.86 107600.95 -102812.86 M 108210.48 -103308.1 108820 -103308.1 M 109277.14 -102812.86 109391.43 -102850.95 109429.52 -102889.05 109467.62 -102965.24 109467.62 -103079.52 109429.52 -103155.71 109391.43 -103193.81 109315.24 -103231.9 109010.48 -103231.9 109010.48 -102431.9 109277.14 -102431.9 109353.33 -102470 109391.43 -102508.1 109429.52 -102584.29 109429.52 -102660.48 109391.43 -102736.67 109353.33 -102774.76 109277.14 -102812.86 109010.48 -102812.86 M 109620 -103308.1 110229.52 -103308.1 M 110420 -103231.9 110420 -102431.9 110686.67 -103003.33 110953.33 -102431.9 110953.33 -103231.9 M 111334.29 -103231.9 111334.29 -102698.57 M 111334.29 -102431.9 111296.19 -102470 111334.29 -102508.1 111372.38 -102470 111334.29 -102431.9 111334.29 -102508.1 M 111715.24 -102698.57 111715.24 -103231.9 M 111715.24 -102774.76 111753.33 -102736.67 111829.52 -102698.57 111943.81 -102698.57 112020 -102736.67 112058.09 -102812.86 112058.09 -103231.9 M 112439.05 -103231.9 112439.05 -102698.57 M 112439.05 -102431.9 112400.95 -102470 112439.05 -102508.1 112477.14 -102470 112439.05 -102431.9 112439.05 -102508.1 M 108953.33 -99891.9 108953.33 -100463.33 108915.24 -100577.62 108839.05 -100653.81 108724.76 -100691.9 108648.57 -100691.9 M 109258.1 -99891.9 109753.33 -99891.9 109486.67 -100196.67 109600.95 -100196.67 109677.14 -100234.76 109715.24 -100272.86 109753.33 -100349.05 109753.33 -100539.52 109715.24 -100615.71 109677.14 -100653.81 109600.95 -100691.9 109372.38 -100691.9 109296.19 -100653.81 109258.1 -100615.71" fill="none" stroke-width="200"/><path d="M 114233.33 -80152.86 114214.28 -80171.9 114157.14 -80190.95 114119.05 -80190.95 114061.9 -80171.9 114023.81 -80133.81 114004.76 -80095.71 113985.71 -80019.52 113985.71 -79962.38 114004.76 -79886.19 114023.81 -79848.09 114061.9 -79810 114119.05 -79790.95 114157.14 -79790.95 114214.28 -79810 114233.33 -79829.05 M 114576.19 -79924.28 114576.19 -80190.95 M 114480.95 -79771.9 114385.71 -80057.62 114633.33 -80057.62" fill="none" stroke-width="60"/><path d="M 118125.71 -72265.48 118163.81 -72303.57 118201.9 -72417.86 118201.9 -72494.05 118163.81 -72608.33 118087.62 -72684.52 118011.43 -72722.62 117859.05 -72760.71 117744.76 -72760.71 117592.38 -72722.62 117516.19 -72684.52 117440 -72608.33 117401.9 -72494.05 117401.9 -72417.86 117440 -72303.57 117478.09 -72265.48 M 118201.9 -71808.33 118163.81 -71884.52 118125.71 -71922.62 118049.52 -71960.71 117820.95 -71960.71 117744.76 -71922.62 117706.67 -71884.52 117668.57 -71808.33 117668.57 -71694.05 117706.67 -71617.86 117744.76 -71579.76 117820.95 -71541.67 118049.52 -71541.67 118125.71 -71579.76 118163.81 -71617.86 118201.9 -71694.05 118201.9 -71808.33 M 117668.57 -71198.81 118201.9 -71198.81 M 117744.76 -71198.81 117706.67 -71160.71 117668.57 -71084.52 117668.57 -70970.24 117706.67 -70894.05 117782.86 -70855.95 118201.9 -70855.95 M 117668.57 -70475 118201.9 -70475 M 117744.76 -70475 117706.67 -70436.9 117668.57 -70360.71 117668.57 -70246.43 117706.67 -70170.24 117782.86 -70132.14 118201.9 -70132.14 M 118278.09 -69941.67 118278.09 -69332.14 M 117401.9 -68989.28 117401.9 -68913.09 117440 -68836.9 117478.09 -68798.81 117554.28 -68760.71 117706.67 -68722.62 117897.14 -68722.62 118049.52 -68760.71 118125.71 -68798.81 118163.81 -68836.9 118201.9 -68913.09 118201.9 -68989.28 118163.81 -69065.48 118125.71 -69103.57 118049.52 -69141.67 117897.14 -69179.76 117706.67 -69179.76 117554.28 -69141.67 117478.09 -69103.57 117440 -69065.48 117401.9 -68989.28 M 118201.9 -67960.71 118201.9 -68417.86 M 118201.9 -68189.28 117401.9 -68189.28 117516.19 -68265.48 117592.38 -68341.67 117630.48 -68417.86 M 118201.9 -67694.05 117668.57 -67275 M 117668.57 -67694.05 118201.9 -67275 M 117401.9 -66817.86 117401.9 -66741.67 117440 -66665.48 117478.09 -66627.38 117554.28 -66589.28 117706.67 -66551.19 117897.14 -66551.19 118049.52 -66589.28 118125.71 -66627.38 118163.81 -66665.48 118201.9 -66741.67 118201.9 -66817.86 118163.81 -66894.05 118125.71 -66932.14 118049.52 -66970.24 117897.14 -67008.33 117706.67 -67008.33 117554.28 -66970.24 117478.09 -66932.14 117440 -66894.05 117401.9 -66817.86 M 117401.9 -65865.48 117401.9 -66017.86 117440 -66094.05 117478.09 -66132.14 117592.38 -66208.33 117744.76 -66246.43 118049.52 -66246.43 118125.71 -66208.33 118163.81 -66170.24 118201.9 -66094.05 118201.9 -65941.67 118163.81 -65865.48 118125.71 -65827.38 118049.52 -65789.28 117859.05 -65789.28 117782.86 -65827.38 117744.76 -65865.48 117706.67 -65941.67 117706.67 -66094.05 117744.76 -66170.24 117782.86 -66208.33 117859.05 -66246.43 M 108953.33 -70451.9 108953.33 -71023.33 108915.24 -71137.62 108839.05 -71213.81 108724.76 -71251.9 108648.57 -71251.9 M 109296.19 -70528.09 109334.29 -70490 109410.48 -70451.9 109600.95 -70451.9 109677.14 -70490 109715.24 -70528.09 109753.33 -70604.28 109753.33 -70680.48 109715.24 -70794.76 109258.1 -71251.9 109753.33 -71251.9" fill="none" stroke-width="200"/><path d="M 114004.76 -78285.95 114004.76 -77885.95 114100 -77885.95 114157.14 -77905 114195.24 -77943.09 114214.28 -77981.19 114233.33 -78057.38 114233.33 -78114.52 114214.28 -78190.71 114195.24 -78228.81 114157.14 -78266.9 114100 -78285.95 114004.76 -78285.95 M 114385.71 -77924.05 114404.76 -77905 114442.86 -77885.95 114538.09 -77885.95 114576.19 -77905 114595.24 -77924.05 114614.28 -77962.14 114614.28 -78000.24 114595.24 -78057.38 114366.67 -78285.95 114614.28 -78285.95 M 114004.76 -76380.95 114004.76 -75980.95 114100 -75980.95 114157.14 -76000 114195.24 -76038.09 114214.28 -76076.19 114233.33 -76152.38 114233.33 -76209.52 114214.28 -76285.71 114195.24 -76323.81 114157.14 -76361.9 114100 -76380.95 114004.76 -76380.95 M 114614.28 -76380.95 114385.71 -76380.95 M 114500 -76380.95 114500 -75980.95 114461.9 -76038.09 114423.81 -76076.19 114385.71 -76095.24" fill="none" stroke-width="60"/></g><clipPath id="lTFZdQAf91Xf_bottom_outline"><path d="M 100965 -105410 A 635 635 0 0 0 100330 -104775 L 100330 -73025 A 635 635 0 0 0 100965 -72390 L 117475 -72390 A 635 635 0 0 0 118110 -73025 L 118110 -104775 A 635 635 0 0 0 117475 -105410 L 100965 -105410" fill="none" stroke-width="100"/></clipPath><mask id="lTFZdQAf91Xf_bottom_mech-mask"><g fill="#000" stroke="#000"><rect x="100330" y="-105410" width="17780" height="33020" fill="#fff"/><use xlink:href="#lTFZdQAf91Xf_bottom_drill1"/><use xlink:href="#lTFZdQAf91Xf_bottom_drill2"/><use xlink:href="#lTFZdQAf91Xf_bottom_drill3"/></g></mask></defs><g transform="translate(0,-177800) scale(1,-1)"><g mask="url(#lTFZdQAf91Xf_bottom_mech-mask)" clip-path="url(#lTFZdQAf91Xf_bottom_outline)" transform="translate(218440,0) scale(-1,1)"><rect x="100330" y="-105410" width="17780" height="33020" fill="currentColor" class="lTFZdQAf91Xf_fr4"/></g></g></svg>