<svg version="1.1" xmlns="http://www.w3.org/2000/svg" xmlns:xlink="http://www.w3.org/1999/xlink" stroke-linecap="round" stroke-linejoin="round" stroke-width="0" fill-rule="evenodd" width="17.88mm" height="30.58mm" viewBox="-16560 -1320 17880 30580"><g transform="translate(0,27940) scale(1,-1)" fill="currentColor" stroke="currentColor"><path d="M -15875 29210 A 635 635 0 0 1 -16510 28575 M 1270 28575 A 635 635 0 0 1 635 29210 M 635 -1270 A 635 635 0 0 1 1270 -635 M -16510 -635 A 635 635 0 0 1 -15875 -1270 M -16510 28575 -16510 -635 M 635 29210 -15875 29210 M 1270 -635 1270 28575 M -15875 -1270 635 -1270" fill="none" stroke-width="100"/><path d="M -1278.1 4897.62 -1849.52 4897.62 M -1563.81 3897.62 -1563.81 4897.62 M -2182.86 3897.62 -2182.86 4897.62 -2563.81 4897.62 -2659.05 4850 -2706.67 4802.38 -2754.29 4707.14 -2754.29 4564.29 -2706.67 4469.05 -2659.05 4421.43 -2563.81 4373.81 -2182.86 4373.81 M -3706.67 3897.62 -3135.24 3897.62 M -3420.95 3897.62 -3420.95 4897.62 -3325.72 4754.76 -3230.48 4659.52 -3135.24 4611.9" fill="none" stroke-width="150"/></g></svg>