<svg version="1.1" xmlns="http://www.w3.org/2000/svg" xmlns:xlink="http://www.w3.org/1999/xlink" stroke-linecap="round" stroke-linejoin="round" stroke-width="0" fill-rule="evenodd" width="17.88mm" height="33.12mm" viewBox="-16560 -1320 17880 33120"><g transform="translate(0,30480) scale(1,-1)" fill="currentColor" stroke="currentColor"><path d="M -16510 31115 -16510 -635 M 1270 31115 1270 -635 M -15875 -1270 A 635 635 0 0 0 -16510 -635 M 1270 -635 A 635 635 0 0 0 635 -1270 M 635 31750 A 635 635 0 0 0 1270 31115 M -16510 31115 A 635 635 0 0 0 -15875 31750 M 635 -1270 -15875 -1270 M -15875 31750 635 31750" fill="none" stroke-width="100"/><path d="M -7855 17310 -8655 17310 -8655 15710 -7855 15710 -7855 17310 M -9125 17310 -9925 17310 -9925 15710 -9125 15710 -9125 17310 M -6585 17310 -7385 17310 -7385 15710 -6585 15710 -6585 17310 M -5315 17310 -6115 17310 -6115 15710 -5315 15710 -5315 17310 M -6120 20840 -6120 23090 -9120 23090 -9120 20090 -6870 20090 -6120 20840 M -4045 1587.5 -4845 1587.5 -4845 -12.5 -4045 -12.5 -4045 1587.5 M -11195 -12.5 -10395 -12.5 -10395 1587.5 -11195 1587.5 -11195 -12.5 M -6720 200 -6070 850 M -6070 2000 -6070 850 M -6720 200 -9170 200 M -9170 2000 -9170 200 M -6070 2000 -9170 2000 M -13100 -12.5 -12300 -12.5 -12300 1587.5 -13100 1587.5 -13100 -12.5" fill="none" stroke-width="100"/><path d="M -8074.05 16767.14 -8264.52 16900.48 M -8074.05 16995.71 -8474.05 16995.71 -8474.05 16843.33 -8455 16805.24 -8435.95 16786.19 -8397.86 16767.14 -8340.71 16767.14 -8302.62 16786.19 -8283.57 16805.24 -8264.52 16843.33 -8264.52 16995.71 M -8435.95 16614.76 -8455 16595.71 -8474.05 16557.62 -8474.05 16462.38 -8455 16424.29 -8435.95 16405.24 -8397.86 16386.19 -8359.76 16386.19 -8302.62 16405.24 -8074.05 16633.81 -8074.05 16386.19 M -8474.05 16252.86 -8474.05 16005.24 -8321.67 16138.57 -8321.67 16081.43 -8302.62 16043.33 -8283.57 16024.29 -8245.48 16005.24 -8150.24 16005.24 -8112.14 16024.29 -8093.1 16043.33 -8074.05 16081.43 -8074.05 16195.71 -8093.1 16233.81 -8112.14 16252.86 M -9344.05 16767.14 -9534.52 16900.48 M -9344.05 16995.71 -9744.05 16995.71 -9744.05 16843.33 -9725 16805.24 -9705.95 16786.19 -9667.86 16767.14 -9610.71 16767.14 -9572.62 16786.19 -9553.57 16805.24 -9534.52 16843.33 -9534.52 16995.71 M -9705.95 16614.76 -9725 16595.71 -9744.05 16557.62 -9744.05 16462.38 -9725 16424.29 -9705.95 16405.24 -9667.86 16386.19 -9629.76 16386.19 -9572.62 16405.24 -9344.05 16633.81 -9344.05 16386.19 M -9344.05 16005.24 -9344.05 16233.81 M -9344.05 16119.52 -9744.05 16119.52 -9686.9 16157.62 -9648.81 16195.71 -9629.76 16233.81 M -6804.05 16767.14 -6994.52 16900.48 M -6804.05 16995.71 -7204.05 16995.71 -7204.05 16843.33 -7185 16805.24 -7165.95 16786.19 -7127.86 16767.14 -7070.71 16767.14 -7032.62 16786.19 -7013.57 16805.24 -6994.52 16843.33 -6994.52 16995.71 M -7165.95 16614.76 -7185 16595.71 -7204.05 16557.62 -7204.05 16462.38 -7185 16424.29 -7165.95 16405.24 -7127.86 16386.19 -7089.76 16386.19 -7032.62 16405.24 -6804.05 16633.81 -6804.05 16386.19 M -7204.05 16138.57 -7204.05 16100.48 -7185 16062.38 -7165.95 16043.33 -7127.86 16024.29 -7051.67 16005.24 -6956.43 16005.24 -6880.24 16024.29 -6842.14 16043.33 -6823.1 16062.38 -6804.05 16100.48 -6804.05 16138.57 -6823.1 16176.67 -6842.14 16195.71 -6880.24 16214.76 -6956.43 16233.81 -7051.67 16233.81 -7127.86 16214.76 -7165.95 16195.71 -7185 16176.67 -7204.05 16138.57 M -5534.05 16767.14 -5724.52 16900.48 M -5534.05 16995.71 -5934.05 16995.71 -5934.05 16843.33 -5915 16805.24 -5895.95 16786.19 -5857.86 16767.14 -5800.72 16767.14 -5762.62 16786.19 -5743.57 16805.24 -5724.52 16843.33 -5724.52 16995.71 M -5534.05 16386.19 -5534.05 16614.76 M -5534.05 16500.48 -5934.05 16500.48 -5876.91 16538.57 -5838.81 16576.67 -5819.76 16614.76 M -5534.05 16195.71 -5534.05 16119.52 -5553.1 16081.43 -5572.14 16062.38 -5629.29 16024.29 -5705.48 16005.24 -5857.86 16005.24 -5895.95 16024.29 -5915 16043.33 -5934.05 16081.43 -5934.05 16157.62 -5915 16195.71 -5895.95 16214.76 -5857.86 16233.81 -5762.62 16233.81 -5724.52 16214.76 -5705.48 16195.71 -5686.43 16157.62 -5686.43 16081.43 -5705.48 16043.33 -5724.52 16024.29 -5762.62 16005.24" fill="none" stroke-width="60"/><path d="M -7395.71 22161.43 -6788.57 22161.43 -6717.14 22125.72 -6681.43 22090 -6645.72 22018.57 -6645.72 21875.72 -6681.43 21804.29 -6717.14 21768.57 -6788.57 21732.86 -7395.71 21732.86 M -7324.29 21411.43 -7360 21375.72 -7395.71 21304.29 -7395.71 21125.72 -7360 21054.29 -7324.29 21018.57 -7252.86 20982.86 -7181.43 20982.86 -7074.29 21018.57 -6645.72 21447.14 -6645.72 20982.86" fill="none" stroke-width="110"/><path d="M -4302.14 1044.64 -4283.1 1063.69 -4264.05 1120.83 -4264.05 1158.93 -4283.1 1216.07 -4321.19 1254.17 -4359.29 1273.21 -4435.48 1292.26 -4492.62 1292.26 -4568.81 1273.21 -4606.9 1254.17 -4645 1216.07 -4664.05 1158.93 -4664.05 1120.83 -4645 1063.69 -4625.95 1044.64 M -4264.05 663.69 -4264.05 892.26 M -4264.05 777.98 -4664.05 777.98 -4606.9 816.07 -4568.81 854.17 -4549.76 892.26 M -4530.71 320.83 -4264.05 320.83 M -4683.1 416.07 -4397.38 511.31 -4397.38 263.69 M -10652.14 1044.64 -10633.1 1063.69 -10614.05 1120.83 -10614.05 1158.93 -10633.1 1216.07 -10671.19 1254.17 -10709.29 1273.21 -10785.48 1292.26 -10842.62 1292.26 -10918.81 1273.21 -10956.91 1254.17 -10995 1216.07 -11014.05 1158.93 -11014.05 1120.83 -10995 1063.69 -10975.95 1044.64 M -10614.05 663.69 -10614.05 892.26 M -10614.05 777.98 -11014.05 777.98 -10956.91 816.07 -10918.81 854.17 -10899.76 892.26 M -11014.05 530.36 -11014.05 282.74 -10861.67 416.07 -10861.67 358.93 -10842.62 320.83 -10823.57 301.79 -10785.48 282.74 -10690.24 282.74 -10652.14 301.79 -10633.1 320.83 -10614.05 358.93 -10614.05 473.21 -10633.1 511.31 -10652.14 530.36" fill="none" stroke-width="60"/><path d="M -7239.05 1373.81 -7239.05 969.05 -7262.86 921.43 -7286.67 897.62 -7334.29 873.81 -7429.52 873.81 -7477.14 897.62 -7500.95 921.43 -7524.76 969.05 -7524.76 1373.81 M -7715.24 1373.81 -8024.76 1373.81 -7858.1 1183.33 -7929.52 1183.33 -7977.14 1159.52 -8000.95 1135.71 -8024.76 1088.1 -8024.76 969.05 -8000.95 921.43 -7977.14 897.62 -7929.52 873.81 -7786.67 873.81 -7739.05 897.62 -7715.24 921.43" fill="none" stroke-width="75"/><path d="M -12519.05 854.17 -12519.05 1044.64 -12919.05 1044.64 M -12519.05 511.31 -12519.05 739.88 M -12519.05 625.6 -12919.05 625.6 -12861.91 663.69 -12823.81 701.79 -12804.76 739.88" fill="none" stroke-width="60"/></g></svg>