<svg version="1.1" xmlns="http://www.w3.org/2000/svg" xmlns:xlink="http://www.w3.org/1999/xlink" stroke-linecap="round" stroke-linejoin="round" stroke-width="0" fill-rule="evenodd" clip-rule="evenodd" id="GhLvQcdYo5L2_bottom" viewBox="-16510 -1270 17780 30480" width="17.78mm" height="30.48mm"><defs><style>.GhLvQcdYo5L2_fr4 {color: #666666;}
.GhLvQcdYo5L2_cu {color: #cccccc;}
.GhLvQcdYo5L2_cf {color: #cc9933;}
.GhLvQcdYo5L2_sm {color: #004200; opacity: 0.75;}
.GhLvQcdYo5L2_ss {color: #ffffff;}
.GhLvQcdYo5L2_sp {color: #999999;}
.GhLvQcdYo5L2_out {color: #000000;}</style><rect x="-800" y="-800" width="1600" height="1600" rx="800" ry="800" id="lFGDovyvfnhb_pad-11"/><rect x="-800" y="-800" width="1600" height="1600" id="lFGDovyvfnhb_pad-12"/><circle cx="0" cy="0" r="1000" id="lFGDovyvfnhb_pad-13"/><rect x="-800" y="-800" width="1600" height="1600" rx="800" ry="800" id="HTa6BPxlLq_W_pad-15"/><rect x="-800" y="-800" width="1600" height="1600" id="HTa6BPxlLq_W_pad-16"/><circle cx="0" cy="0" r="1000" id="HTa6BPxlLq_W_pad-17"/><mask id="HTa6BPxlLq_W_clear-1" fill="#000" stroke="#000"><g><rect x="-16560" y="-1320" width="17880" height="30580" fill="#fff"/><use xlink:href="#HTa6BPxlLq_W_pad-15" x="0" y="27940"/><use xlink:href="#HTa6BPxlLq_W_pad-15" x="0" y="25400"/><use xlink:href="#HTa6BPxlLq_W_pad-15" x="0" y="22860"/><use xlink:href="#HTa6BPxlLq_W_pad-15" x="-15240" y="0"/><use xlink:href="#HTa6BPxlLq_W_pad-15" x="0" y="20320"/><use xlink:href="#HTa6BPxlLq_W_pad-15" x="-15240" y="2540"/><use xlink:href="#HTa6BPxlLq_W_pad-15" x="0" y="17780"/><use xlink:href="#HTa6BPxlLq_W_pad-15" x="-15240" y="5080"/><use xlink:href="#HTa6BPxlLq_W_pad-15" x="0" y="15240"/><use xlink:href="#HTa6BPxlLq_W_pad-15" x="-15240" y="7620"/><use xlink:href="#HTa6BPxlLq_W_pad-15" x="0" y="12700"/><use xlink:href="#HTa6BPxlLq_W_pad-15" x="-15240" y="10160"/><use xlink:href="#HTa6BPxlLq_W_pad-15" x="0" y="10160"/><use xlink:href="#HTa6BPxlLq_W_pad-15" x="-15240" y="12700"/><use xlink:href="#HTa6BPxlLq_W_pad-15" x="0" y="7620"/><use xlink:href="#HTa6BPxlLq_W_pad-15" x="-15240" y="15240"/><use xlink:href="#HTa6BPxlLq_W_pad-15" x="0" y="5080"/><use xlink:href="#HTa6BPxlLq_W_pad-15" x="-15240" y="17780"/><use xlink:href="#HTa6BPxlLq_W_pad-15" x="0" y="2540"/><use xlink:href="#HTa6BPxlLq_W_pad-15" x="-15240" y="20320"/><use xlink:href="#HTa6BPxlLq_W_pad-15" x="0" y="0"/><use xlink:href="#HTa6BPxlLq_W_pad-15" x="-15240" y="22860"/><use xlink:href="#HTa6BPxlLq_W_pad-15" x="-15240" y="25400"/><use xlink:href="#HTa6BPxlLq_W_pad-16" x="-15240" y="27940"/><use xlink:href="#HTa6BPxlLq_W_pad-17" x="-2540" y="6350"/></g></mask><rect x="-800" y="-800" width="1600" height="1600" rx="800" ry="800" id="DKoxqaV-JNJI_pad-11"/><rect x="-800" y="-800" width="1600" height="1600" id="DKoxqaV-JNJI_pad-12"/><circle cx="0" cy="0" r="1000" id="DKoxqaV-JNJI_pad-13"/><circle cx="0" cy="0" r="250" id="DKoxqaV-JNJI_pad-14"/><circle cx="0" cy="0" r="300" id="DKoxqaV-JNJI_pad-15"/><circle cx="0" cy="0" r="100" id="WJxdDI0fVFHX_pad-1"/><circle cx="0" cy="0" r="150" id="WJxdDI0fVFHX_pad-2"/><circle cx="0" cy="0" r="500" id="WJxdDI0fVFHX_pad-3"/><g id="GhLvQcdYo5L2_bottom_soldermask"><path d="M -15875 29210 A 635 635 0 0 1 -16510 28575 M 1270 28575 A 635 635 0 0 1 635 29210 M 635 -1270 A 635 635 0 0 1 1270 -635 M -16510 -635 A 635 635 0 0 1 -15875 -1270 M -16510 28575 -16510 -635 M 635 29210 -15875 29210 M 1270 -635 1270 28575 M -15875 -1270 635 -1270" fill="none" stroke-width="100"/><use xlink:href="#lFGDovyvfnhb_pad-11" x="0" y="27940"/><use xlink:href="#lFGDovyvfnhb_pad-11" x="0" y="25400"/><use xlink:href="#lFGDovyvfnhb_pad-11" x="0" y="22860"/><use xlink:href="#lFGDovyvfnhb_pad-11" x="-15240" y="0"/><use xlink:href="#lFGDovyvfnhb_pad-11" x="0" y="20320"/><use xlink:href="#lFGDovyvfnhb_pad-11" x="-15240" y="2540"/><use xlink:href="#lFGDovyvfnhb_pad-11" x="0" y="17780"/><use xlink:href="#lFGDovyvfnhb_pad-11" x="-15240" y="5080"/><use xlink:href="#lFGDovyvfnhb_pad-11" x="0" y="15240"/><use xlink:href="#lFGDovyvfnhb_pad-11" x="-15240" y="7620"/><use xlink:href="#lFGDovyvfnhb_pad-11" x="0" y="12700"/><use xlink:href="#lFGDovyvfnhb_pad-11" x="-15240" y="10160"/><use xlink:href="#lFGDovyvfnhb_pad-11" x="0" y="10160"/><use xlink:href="#lFGDovyvfnhb_pad-11" x="-15240" y="12700"/><use xlink:href="#lFGDovyvfnhb_pad-11" x="0" y="7620"/><use xlink:href="#lFGDovyvfnhb_pad-11" x="-15240" y="15240"/><use xlink:href="#lFGDovyvfnhb_pad-11" x="0" y="5080"/><use xlink:href="#lFGDovyvfnhb_pad-11" x="-15240" y="17780"/><use xlink:href="#lFGDovyvfnhb_pad-11" x="0" y="2540"/><use xlink:href="#lFGDovyvfnhb_pad-11" x="-15240" y="20320"/><use xlink:href="#lFGDovyvfnhb_pad-11" x="0" y="0"/><use xlink:href="#lFGDovyvfnhb_pad-11" x="-15240" y="22860"/><use xlink:href="#lFGDovyvfnhb_pad-11" x="-15240" y="25400"/><use xlink:href="#lFGDovyvfnhb_pad-12" x="-15240" y="27940"/><use xlink:href="#lFGDovyvfnhb_pad-13" x="-2540" y="6350"/></g><g id="GhLvQcdYo5L2_bottom_silkscreen"><g mask="url(#HTa6BPxlLq_W_clear-1)"><path d="M -10352.86 5095.71 -9752.86 4881.43 -10352.86 4667.14 M -9752.86 3852.86 -9752.86 4367.14 M -9752.86 4110 -10652.86 4110 -10524.29 4195.71 -10438.57 4281.43 -10395.71 4367.14 M -9838.57 3467.14 -9795.71 3424.29 -9752.86 3467.14 -9795.71 3510 -9838.57 3467.14 -9752.86 3467.14 M -10652.86 2867.14 -10652.86 2781.43 -10610 2695.72 -10567.14 2652.86 -10481.43 2610 -10310 2567.14 -10095.71 2567.14 -9924.29 2610 -9838.57 2652.86 -9795.71 2695.72 -9752.86 2781.43 -9752.86 2867.14 -9795.71 2952.86 -9838.57 2995.72 -9924.29 3038.57 -10095.71 3081.43 -10310 3081.43 -10481.43 3038.57 -10567.14 2995.72 -10610 2952.86 -10652.86 2867.14" fill="none" stroke-width="200"/><path d="M -12914.29 27017.62 -12247.62 27017.62 M -12819.05 27017.62 -12866.67 26970 -12914.29 26874.76 -12914.29 26731.91 -12866.67 26636.67 -12771.43 26589.05 -12247.62 26589.05 M -12295.24 25731.91 -12247.62 25827.14 -12247.62 26017.62 -12295.24 26112.86 -12390.48 26160.48 -12771.43 26160.48 -12866.67 26112.86 -12914.29 26017.62 -12914.29 25827.14 -12866.67 25731.91 -12771.43 25684.29 -12676.19 25684.29 -12580.95 26160.48 M -12247.62 25255.72 -12914.29 25255.72 M -12723.81 25255.72 -12819.05 25208.1 -12866.67 25160.48 -12914.29 25065.24 -12914.29 24970 M -12247.62 24208.1 -13247.62 24208.1 M -12295.24 24208.1 -12247.62 24303.33 -12247.62 24493.81 -12295.24 24589.05 -12342.86 24636.67 -12438.1 24684.29 -12723.81 24684.29 -12819.05 24636.67 -12866.67 24589.05 -12914.29 24493.81 -12914.29 24303.33 -12866.67 24208.1 M -12914.29 23827.14 -12247.62 23589.05 M -12914.29 23350.95 -12247.62 23589.05 -12009.52 23684.29 -11961.91 23731.91 -11914.29 23827.14 M -12295.24 23017.62 -12247.62 22922.38 -12247.62 22731.91 -12295.24 22636.67 -12390.48 22589.05 -12438.1 22589.05 -12533.33 22636.67 -12580.95 22731.91 -12580.95 22874.76 -12628.57 22970 -12723.81 23017.62 -12771.43 23017.62 -12866.67 22970 -12914.29 22874.76 -12914.29 22731.91 -12866.67 22636.67 M -12295.24 21731.91 -12247.62 21827.14 -12247.62 22017.62 -12295.24 22112.86 -12342.86 22160.48 -12438.1 22208.1 -12723.81 22208.1 -12819.05 22160.48 -12866.67 22112.86 -12914.29 22017.62 -12914.29 21827.14 -12866.67 21731.91 M -12247.62 21160.48 -12295.24 21255.72 -12342.86 21303.33 -12438.1 21350.95 -12723.81 21350.95 -12819.05 21303.33 -12866.67 21255.72 -12914.29 21160.48 -12914.29 21017.62 -12866.67 20922.38 -12819.05 20874.76 -12723.81 20827.14 -12438.1 20827.14 -12342.86 20874.76 -12295.24 20922.38 -12247.62 21017.62 -12247.62 21160.48 M -12914.29 19970 -12247.62 19970 M -12914.29 20398.57 -12390.48 20398.57 -12295.24 20350.95 -12247.62 20255.71 -12247.62 20112.86 -12295.24 20017.62 -12342.86 19970 M -12914.29 19636.67 -12914.29 19255.71 M -13247.62 19493.81 -12390.48 19493.81 -12295.24 19446.19 -12247.62 19350.95 -12247.62 19255.71 M -12342.86 18922.38 -12295.24 18874.76 -12247.62 18922.38 -12295.24 18970 -12342.86 18922.38 -12247.62 18922.38 M -12914.29 18017.62 -12104.76 18017.62 -12009.52 18065.24 -11961.91 18112.86 -11914.29 18208.1 -11914.29 18350.95 -11961.91 18446.19 M -12295.24 18017.62 -12247.62 18112.86 -12247.62 18303.33 -12295.24 18398.57 -12342.86 18446.19 -12438.1 18493.81 -12723.81 18493.81 -12819.05 18446.19 -12866.67 18398.57 -12914.29 18303.33 -12914.29 18112.86 -12866.67 18017.62 M -12247.62 17541.43 -12914.29 17541.43 M -13247.62 17541.43 -13200 17589.05 -13152.38 17541.43 -13200 17493.81 -13247.62 17541.43 -13152.38 17541.43 M -12914.29 17208.1 -12914.29 16827.14 M -13247.62 17065.24 -12390.48 17065.24 -12295.24 17017.62 -12247.62 16922.38 -12247.62 16827.14 M -12247.62 16493.81 -13247.62 16493.81 M -12247.62 16065.24 -12771.43 16065.24 -12866.67 16112.86 -12914.29 16208.1 -12914.29 16350.95 -12866.67 16446.19 -12819.05 16493.81 M -12914.29 15160.48 -12247.62 15160.48 M -12914.29 15589.05 -12390.48 15589.05 -12295.24 15541.43 -12247.62 15446.19 -12247.62 15303.33 -12295.24 15208.1 -12342.86 15160.48 M -12247.62 14684.29 -13247.62 14684.29 M -12866.67 14684.29 -12914.29 14589.05 -12914.29 14398.57 -12866.67 14303.33 -12819.05 14255.71 -12723.81 14208.1 -12438.1 14208.1 -12342.86 14255.71 -12295.24 14303.33 -12247.62 14398.57 -12247.62 14589.05 -12295.24 14684.29 M -12342.86 13779.52 -12295.24 13731.91 -12247.62 13779.52 -12295.24 13827.14 -12342.86 13779.52 -12247.62 13779.52 M -12247.62 13303.33 -12914.29 13303.33 M -13247.62 13303.33 -13200 13350.95 -13152.38 13303.33 -13200 13255.72 -13247.62 13303.33 -13152.38 13303.33 M -12247.62 12684.29 -12295.24 12779.52 -12342.86 12827.14 -12438.1 12874.76 -12723.81 12874.76 -12819.05 12827.14 -12866.67 12779.52 -12914.29 12684.29 -12914.29 12541.43 -12866.67 12446.19 -12819.05 12398.57 -12723.81 12350.95 -12438.1 12350.95 -12342.86 12398.57 -12295.24 12446.19 -12247.62 12541.43 -12247.62 12684.29 M -13295.24 11208.1 -12009.52 12065.24 M -12247.62 10874.76 -13247.62 10874.76 -13247.62 10493.81 -13200 10398.57 -13152.38 10350.95 -13057.14 10303.33 -12914.29 10303.33 -12819.05 10350.95 -12771.43 10398.57 -12723.81 10493.81 -12723.81 10874.76 M -12247.62 9874.76 -12914.29 9874.76 M -12723.81 9874.76 -12819.05 9827.14 -12866.67 9779.52 -12914.29 9684.29 -12914.29 9589.05 M -12247.62 9112.86 -12295.24 9208.1 -12342.86 9255.71 -12438.1 9303.33 -12723.81 9303.33 -12819.05 9255.71 -12866.67 9208.1 -12914.29 9112.86 -12914.29 8970 -12866.67 8874.76 -12819.05 8827.14 -12723.81 8779.52 -12438.1 8779.52 -12342.86 8827.14 -12295.24 8874.76 -12247.62 8970 -12247.62 9112.86 M -12247.62 8350.95 -13247.62 8350.95 -12533.33 8017.62 -13247.62 7684.29 -12247.62 7684.29 M -12247.62 7208.1 -12914.29 7208.1 M -13247.62 7208.1 -13200 7255.71 -13152.38 7208.1 -13200 7160.48 -13247.62 7208.1 -13152.38 7208.1 M -12295.24 6303.33 -12247.62 6398.57 -12247.62 6589.05 -12295.24 6684.29 -12342.86 6731.91 -12438.1 6779.52 -12723.81 6779.52 -12819.05 6731.91 -12866.67 6684.29 -12914.29 6589.05 -12914.29 6398.57 -12866.67 6303.33 M -12247.62 5874.76 -12914.29 5874.76 M -12723.81 5874.76 -12819.05 5827.14 -12866.67 5779.52 -12914.29 5684.29 -12914.29 5589.05 M -12247.62 5112.86 -12295.24 5208.1 -12342.86 5255.72 -12438.1 5303.33 -12723.81 5303.33 -12819.05 5255.72 -12866.67 5208.1 -12914.29 5112.86 -12914.29 4970 -12866.67 4874.76 -12819.05 4827.14 -12723.81 4779.52 -12438.1 4779.52 -12342.86 4827.14 -12295.24 4874.76 -12247.62 4970 -12247.62 5112.86 M -13295.24 3636.67 -12009.52 4493.81 M -12247.62 2827.14 -12247.62 3303.33 -13247.62 3303.33 M -13247.62 2303.33 -13247.62 2112.86 -13200 2017.62 -13104.76 1922.38 -12914.29 1874.76 -12580.95 1874.76 -12390.48 1922.38 -12295.24 2017.62 -12247.62 2112.86 -12247.62 2303.33 -12295.24 2398.57 -12390.48 2493.81 -12580.95 2541.43 -12914.29 2541.43 -13104.76 2493.81 -13200 2398.57 -13247.62 2303.33 M -13200 922.38 -13247.62 1017.62 -13247.62 1160.48 -13200 1303.33 -13104.76 1398.57 -13009.52 1446.19 -12819.05 1493.81 -12676.19 1493.81 -12485.72 1446.19 -12390.48 1398.57 -12295.24 1303.33 -12247.62 1160.48 -12247.62 1065.24 -12295.24 922.38 -12342.86 874.76 -12676.19 874.76 -12676.19 1065.24" fill="none" stroke-width="250"/><path d="M -15875 29210 A 635 635 0 0 1 -16510 28575 M 1270 28575 A 635 635 0 0 1 635 29210 M 635 -1270 A 635 635 0 0 1 1270 -635 M -16510 -635 A 635 635 0 0 1 -15875 -1270 M -16510 28575 -16510 -635 M 635 29210 -15875 29210 M 1270 -635 1270 28575 M -15875 -1270 635 -1270" fill="none" stroke-width="100"/><path d="M -9516.07 13414.19 -9071.44 13330.37 -8943.95 13021.08 -8816.45 12711.79 -9068.75 12340.75 -9139 12236.84 -9201.73 12142.91 -9254.06 12063.35 -9293.14 12002.53 -9316.11 11964.84 -9321.06 11954.58 -9308.32 11936.09 -9273.12 11896.58 -9219.94 11840.48 -9153.28 11772.21 -9077.65 11696.21 -8997.53 11616.91 -8917.43 11538.73 -8841.84 11466.09 -8775.25 11403.44 -8722.18 11355.2 -8687.11 11325.79 -8675.38 11318.76 -8653.74 11328.88 -8606.34 11357.24 -8537.81 11400.87 -8452.78 11456.78 -8355.91 11521.99 -8300.65 11559.78 -8199.75 11628.66 -8108.7 11689.86 -8032.03 11740.42 -7974.27 11777.37 -7939.96 11797.74 -7932.75 11800.8 -7912.25 11793.86 -7864.49 11774.95 -7796.17 11746.91 -7714.01 11712.61 -7624.73 11674.89 -7535.04 11636.61 -7451.66 11600.63 -7381.31 11569.79 -7330.69 11546.96 -7306.53 11534.98 -7305.58 11534.28 -7300.96 11515.47 -7290.67 11465.38 -7275.71 11389.21 -7257.1 11292.14 -7235.84 11179.36 -7223.58 11113.56 -7200.64 10993.05 -7178.8 10884.2 -7159.28 10792.52 -7143.25 10723.52 -7131.92 10682.7 -7128.33 10674.49 -7103.99 10666.45 -7049.04 10659.97 -6969.89 10655.03 -6872.97 10651.64 -6764.71 10649.78 -6651.54 10649.46 -6539.87 10650.67 -6436.13 10653.41 -6346.76 10657.67 -6278.17 10663.45 -6236.8 10670.73 -6228.19 10675.11 -6217.87 10701.24 -6203.11 10756.61 -6185.65 10833.89 -6167.22 10925.77 -6161.26 10957.84 -6132.93 11112.48 -6110.12 11234.63 -6091.92 11328.33 -6077.42 11397.62 -6065.71 11446.53 -6055.89 11479.1 -6047.04 11499.37 -6038.28 11511.37 -6036.54 11513.05 -6008.63 11529.82 -5954.31 11555.39 -5880.22 11587.21 -5793.04 11622.74 -5699.39 11659.42 -5605.95 11694.69 -5519.35 11726 -5446.26 11750.81 -5393.32 11766.55 -5367.19 11770.67 -5366.27 11770.32 -5344.91 11756.36 -5297.92 11724.68 -5230.17 11678.61 -5146.58 11621.48 -5052.02 11556.63 -5025.15 11538.16 -4927.72 11472.3 -4838.84 11414.35 -4763.59 11367.46 -4707.08 11334.79 -4674.42 11319.5 -4670.41 11318.76 -4649.32 11331.61 -4607.54 11367.11 -4549.55 11420.71 -4479.86 11487.83 -4402.95 11563.91 -4323.32 11644.4 -4245.44 11724.71 -4173.81 11800.3 -4112.93 11866.6 -4067.28 11919.03 -4041.35 11953.05 -4037.12 11962.46 -4047.09 11984.36 -4073.98 12029.2 -4113.26 12089.68 -4144.88 12136.21 -4202.9 12220.53 -4271.22 12320.37 -4339.42 12420.53 -4375.92 12474.37 -4499.2 12656.63 -4416.48 12809.62 -4380.24 12879.32 -4352.07 12938.59 -4336.01 12978.69 -4333.77 12988.9 -4350.28 13001.17 -4396.92 13025.39 -4469.39 13059.74 -4563.39 13102.41 -4674.63 13151.61 -4798.78 13205.51 -4931.57 13262.32 -5068.67 13320.22 -5205.8 13377.41 -5338.64 13432.08 -5462.9 13482.42 -5574.28 13526.62 -5668.46 13562.88 -5741.16 13589.39 -5788.06 13604.34 -5804.17 13606.75 -5824.71 13587.69 -5858.07 13545.96 -5897.3 13490.29 -5900.4 13485.62 -6015.58 13341.74 -6149.95 13225.72 -6299.22 13138.57 -6459.09 13081.3 -6625.26 13054.91 -6793.45 13060.42 -6959.35 13098.81 -7118.66 13171.11 -7153.51 13192.37 -7294.26 13303 -7407.29 13433.7 -7492 13579.94 -7547.81 13737.19 -7574.13 13900.94 -7570.37 14066.67 -7535.95 14229.84 -7470.28 14385.93 -7372.76 14530.43 -7333.19 14575.13 -7209.3 14688.89 -7078.88 14771.78 -6932.69 14828.64 -6787.91 14860.31 -6625.14 14868.13 -6461.56 14842.06 -6302.7 14784.75 -6154.09 14698.86 -6021.27 14587.01 -5909.74 14451.88 -5897.99 14434.12 -5859.49 14377.85 -5826.14 14335.08 -5804.84 14314.63 -5804.17 14314.33 -5781.13 14318.72 -5728.84 14336.12 -5651.61 14364.73 -5553.73 14402.73 -5439.51 14448.33 -5313.24 14499.7 -5179.23 14555.04 -5041.78 14612.54 -4905.19 14670.4 -4773.76 14726.8 -4651.79 14779.94 -4543.59 14828.01 -4453.45 14869.2 -4385.68 14901.7 -4344.57 14923.7 -4333.77 14932.56 -4342.18 14959.64 -4364.73 15010.3 -4397.39 15075.82 -4416.48 15111.84 -4499.2 15264.83 -4375.92 15447.09 -4312.77 15540.12 -4243.27 15641.98 -4177.83 15737.44 -4144.88 15785.25 -4099.73 15852.49 -4063.94 15909.44 -4042.06 15948.65 -4037.44 15961.38 -4049.91 15979.92 -4084.75 16020.94 -4138.32 16080.47 -4207.02 16154.54 -4287.22 16239.16 -4338.71 16292.68 -4430.71 16386.32 -4513 16467.24 -4582.05 16532.18 -4634.36 16577.86 -4666.38 16601.01 -4672.88 16603.23 -4697.61 16592.92 -4747.59 16564.44 -4817.79 16520.94 -4903.12 16465.58 -4998.54 16401.52 -5025.15 16383.3 -5121.83 16316.93 -5208.88 16257.38 -5281.41 16207.98 -5334.51 16172.07 -5363.3 16152.98 -5366.27 16151.14 -5389.22 16153.89 -5439.66 16168.54 -5510.96 16192.51 -5596.45 16223.27 -5689.49 16258.24 -5783.43 16294.89 -5871.6 16330.66 -5947.37 16362.99 -6004.07 16389.34 -6035.06 16407.14 -6036.54 16408.41 -6045.4 16419.29 -6054.16 16437.68 -6063.72 16467.61 -6075 16513.1 -6088.91 16578.21 -6106.34 16666.96 -6128.2 16783.39 -6155.41 16931.54 -6161.26 16963.62 -6179.63 17058.69 -6197.6 17141.56 -6213.43 17204.93 -6225.4 17241.46 -6228.19 17246.36 -6252.93 17254.43 -6308.21 17260.99 -6387.61 17266.03 -6484.7 17269.56 -6593.06 17271.56 -6706.26 17272.04 -6817.87 17270.98 -6921.47 17268.38 -7010.63 17264.25 -7078.93 17258.56 -7119.93 17251.33 -7128.33 17246.97 -7136.79 17222.7 -7150.56 17167.43 -7168.45 17086.66 -7189.25 16985.91 -7211.78 16870.68 -7223.58 16807.9 -7245.85 16688.79 -7266.02 16582.56 -7283.08 16494.43 -7296.03 16429.57 -7303.84 16393.17 -7305.58 16387.18 -7325.11 16377.06 -7372.16 16355.66 -7440 16325.84 -7521.91 16290.44 -7611.17 16252.33 -7701.06 16214.35 -7784.86 16179.36 -7855.85 16150.21 -7907.31 16129.74 -7932.5 16120.82 -7933.6 16120.66 -7953.48 16130.77 -7999.22 16159.12 -8066.28 16202.72 -8150.12 16258.61 -8246.17 16323.79 -8301.35 16361.68 -8402.52 16430.72 -8494.37 16492.05 -8572.26 16542.66 -8631.53 16579.57 -8667.55 16599.78 -8675.62 16602.7 -8694.42 16590.15 -8734.54 16555.46 -8791.51 16503.06 -8860.81 16437.38 -8937.97 16362.86 -9018.47 16283.91 -9097.84 16204.98 -9171.56 16130.5 -9235.15 16064.89 -9284.11 16012.6 -9313.94 15978.04 -9321.06 15966.48 -9311.05 15947.65 -9282.92 15902.63 -9239.55 15835.79 -9183.78 15751.5 -9118.49 15654.14 -9068.75 15580.71 -8816.45 15209.67 -9071.44 14591.09 -9516.07 14507.27 -9960.69 14423.45 -9960.69 13498.01 -9516.07 13414.19"/><path d="M -9516.07 13414.19 -9071.44 13330.37 -8943.95 13021.08 -8816.45 12711.79 -9068.75 12340.75 -9139 12236.84 -9201.73 12142.91 -9254.06 12063.35 -9293.14 12002.53 -9316.11 11964.84 -9321.06 11954.58 -9308.32 11936.09 -9273.12 11896.58 -9219.94 11840.48 -9153.28 11772.21 -9077.65 11696.21 -8997.53 11616.91 -8917.43 11538.73 -8841.84 11466.09 -8775.25 11403.44 -8722.18 11355.2 -8687.11 11325.79 -8675.38 11318.76 -8653.74 11328.88 -8606.34 11357.24 -8537.81 11400.87 -8452.78 11456.78 -8355.91 11521.99 -8300.65 11559.78 -8199.75 11628.66 -8108.7 11689.86 -8032.03 11740.42 -7974.27 11777.37 -7939.96 11797.74 -7932.75 11800.8 -7912.25 11793.86 -7864.49 11774.95 -7796.17 11746.91 -7714.01 11712.61 -7624.73 11674.89 -7535.04 11636.61 -7451.66 11600.63 -7381.31 11569.79 -7330.69 11546.96 -7306.53 11534.98 -7305.58 11534.28 -7300.96 11515.47 -7290.67 11465.38 -7275.71 11389.21 -7257.1 11292.14 -7235.84 11179.36 -7223.58 11113.56 -7200.64 10993.05 -7178.8 10884.2 -7159.28 10792.52 -7143.25 10723.52 -7131.92 10682.7 -7128.33 10674.49 -7103.99 10666.45 -7049.04 10659.97 -6969.89 10655.03 -6872.97 10651.64 -6764.71 10649.78 -6651.54 10649.46 -6539.87 10650.67 -6436.13 10653.41 -6346.76 10657.67 -6278.17 10663.45 -6236.8 10670.73 -6228.19 10675.11 -6217.87 10701.24 -6203.11 10756.61 -6185.65 10833.89 -6167.22 10925.77 -6161.26 10957.84 -6132.93 11112.48 -6110.12 11234.63 -6091.92 11328.33 -6077.42 11397.62 -6065.71 11446.53 -6055.89 11479.1 -6047.04 11499.37 -6038.28 11511.37 -6036.54 11513.05 -6008.63 11529.82 -5954.31 11555.39 -5880.22 11587.21 -5793.04 11622.74 -5699.39 11659.42 -5605.95 11694.69 -5519.35 11726 -5446.26 11750.81 -5393.32 11766.55 -5367.19 11770.67 -5366.27 11770.32 -5344.91 11756.36 -5297.92 11724.68 -5230.17 11678.61 -5146.58 11621.48 -5052.02 11556.63 -5025.15 11538.16 -4927.72 11472.3 -4838.84 11414.35 -4763.59 11367.46 -4707.08 11334.79 -4674.42 11319.5 -4670.41 11318.76 -4649.32 11331.61 -4607.54 11367.11 -4549.55 11420.71 -4479.86 11487.83 -4402.95 11563.91 -4323.32 11644.4 -4245.44 11724.71 -4173.81 11800.3 -4112.93 11866.6 -4067.28 11919.03 -4041.35 11953.05 -4037.12 11962.46 -4047.09 11984.36 -4073.98 12029.2 -4113.26 12089.68 -4144.88 12136.21 -4202.9 12220.53 -4271.22 12320.37 -4339.42 12420.53 -4375.92 12474.37 -4499.2 12656.63 -4416.48 12809.62 -4380.24 12879.32 -4352.07 12938.59 -4336.01 12978.69 -4333.77 12988.9 -4350.28 13001.17 -4396.92 13025.39 -4469.39 13059.74 -4563.39 13102.41 -4674.63 13151.61 -4798.78 13205.51 -4931.57 13262.32 -5068.67 13320.22 -5205.8 13377.41 -5338.64 13432.08 -5462.9 13482.42 -5574.28 13526.62 -5668.46 13562.88 -5741.16 13589.39 -5788.06 13604.34 -5804.17 13606.75 -5824.71 13587.69 -5858.07 13545.96 -5897.3 13490.29 -5900.4 13485.62 -6015.58 13341.74 -6149.95 13225.72 -6299.22 13138.57 -6459.09 13081.3 -6625.26 13054.91 -6793.45 13060.42 -6959.35 13098.81 -7118.66 13171.11 -7153.51 13192.37 -7294.26 13303 -7407.29 13433.7 -7492 13579.94 -7547.81 13737.19 -7574.13 13900.94 -7570.37 14066.67 -7535.95 14229.84 -7470.28 14385.93 -7372.76 14530.43 -7333.19 14575.13 -7209.3 14688.89 -7078.88 14771.78 -6932.69 14828.64 -6787.91 14860.31 -6625.14 14868.13 -6461.56 14842.06 -6302.7 14784.75 -6154.09 14698.86 -6021.27 14587.01 -5909.74 14451.88 -5897.99 14434.12 -5859.49 14377.85 -5826.14 14335.08 -5804.84 14314.63 -5804.17 14314.33 -5781.13 14318.72 -5728.84 14336.12 -5651.61 14364.73 -5553.73 14402.73 -5439.51 14448.33 -5313.24 14499.7 -5179.23 14555.04 -5041.78 14612.54 -4905.19 14670.4 -4773.76 14726.8 -4651.79 14779.94 -4543.59 14828.01 -4453.45 14869.2 -4385.68 14901.7 -4344.57 14923.7 -4333.77 14932.56 -4342.18 14959.64 -4364.73 15010.3 -4397.39 15075.82 -4416.48 15111.84 -4499.2 15264.83 -4375.92 15447.09 -4312.77 15540.12 -4243.27 15641.98 -4177.83 15737.44 -4144.88 15785.25 -4099.73 15852.49 -4063.94 15909.44 -4042.06 15948.65 -4037.44 15961.38 -4049.91 15979.92 -4084.75 16020.94 -4138.32 16080.47 -4207.02 16154.54 -4287.22 16239.16 -4338.71 16292.68 -4430.71 16386.32 -4513 16467.24 -4582.05 16532.18 -4634.36 16577.86 -4666.38 16601.01 -4672.88 16603.23 -4697.61 16592.92 -4747.59 16564.44 -4817.79 16520.94 -4903.12 16465.58 -4998.54 16401.52 -5025.15 16383.3 -5121.83 16316.93 -5208.88 16257.38 -5281.41 16207.98 -5334.51 16172.07 -5363.3 16152.98 -5366.27 16151.14 -5389.22 16153.89 -5439.66 16168.54 -5510.96 16192.51 -5596.45 16223.27 -5689.49 16258.24 -5783.43 16294.89 -5871.6 16330.66 -5947.37 16362.99 -6004.07 16389.34 -6035.06 16407.14 -6036.54 16408.41 -6045.4 16419.29 -6054.16 16437.68 -6063.72 16467.61 -6075 16513.1 -6088.91 16578.21 -6106.34 16666.96 -6128.2 16783.39 -6155.41 16931.54 -6161.26 16963.62 -6179.63 17058.69 -6197.6 17141.56 -6213.43 17204.93 -6225.4 17241.46 -6228.19 17246.36 -6252.93 17254.43 -6308.21 17260.99 -6387.61 17266.03 -6484.7 17269.56 -6593.06 17271.56 -6706.26 17272.04 -6817.87 17270.98 -6921.47 17268.38 -7010.63 17264.25 -7078.93 17258.56 -7119.93 17251.33 -7128.33 17246.97 -7136.79 17222.7 -7150.56 17167.43 -7168.45 17086.66 -7189.25 16985.91 -7211.78 16870.68 -7223.58 16807.9 -7245.85 16688.79 -7266.02 16582.56 -7283.08 16494.43 -7296.03 16429.57 -7303.84 16393.17 -7305.58 16387.18 -7325.11 16377.06 -7372.16 16355.66 -7440 16325.84 -7521.91 16290.44 -7611.17 16252.33 -7701.06 16214.35 -7784.86 16179.36 -7855.85 16150.21 -7907.31 16129.74 -7932.5 16120.82 -7933.6 16120.66 -7953.48 16130.77 -7999.22 16159.12 -8066.28 16202.72 -8150.12 16258.61 -8246.17 16323.79 -8301.35 16361.68 -8402.52 16430.72 -8494.37 16492.05 -8572.26 16542.66 -8631.53 16579.57 -8667.55 16599.78 -8675.62 16602.7 -8694.42 16590.15 -8734.54 16555.46 -8791.51 16503.06 -8860.81 16437.38 -8937.97 16362.86 -9018.47 16283.91 -9097.84 16204.98 -9171.56 16130.5 -9235.15 16064.89 -9284.11 16012.6 -9313.94 15978.04 -9321.06 15966.48 -9311.05 15947.65 -9282.92 15902.63 -9239.55 15835.79 -9183.78 15751.5 -9118.49 15654.14 -9068.75 15580.71 -8816.45 15209.67 -9071.44 14591.09 -9516.07 14507.27 -9960.69 14423.45 -9960.69 13498.01 -9516.07 13414.19" fill="none" stroke-width="10"/><path d="M -1340 6350 A 1200 1200 0 0 1 -3740 6350 1200 1200 0 0 1 -1340 6350" fill="none" stroke-width="120"/><path d="M -2978.1 4184.52 -2978.1 3727.38 M -2178.1 3955.95 -2978.1 3955.95 M -2178.1 3460.72 -2978.1 3460.72 -2978.1 3155.95 -2940 3079.76 -2901.91 3041.67 -2825.72 3003.57 -2711.43 3003.57 -2635.24 3041.67 -2597.14 3079.76 -2559.05 3155.95 -2559.05 3460.72 M -2178.1 2241.67 -2178.1 2698.81 M -2178.1 2470.24 -2978.1 2470.24 -2863.81 2546.43 -2787.62 2622.62 -2749.52 2698.81" fill="none" stroke-width="200"/></g></g><g id="GhLvQcdYo5L2_bottom_copper"><path d="M -15875 29210 A 635 635 0 0 1 -16510 28575 M 1270 28575 A 635 635 0 0 1 635 29210 M 635 -1270 A 635 635 0 0 1 1270 -635 M -16510 -635 A 635 635 0 0 1 -15875 -1270 M -16510 28575 -16510 -635 M 635 29210 -15875 29210 M 1270 -635 1270 28575 M -15875 -1270 635 -1270" fill="none" stroke-width="100"/><use xlink:href="#DKoxqaV-JNJI_pad-11" x="0" y="27940"/><use xlink:href="#DKoxqaV-JNJI_pad-11" x="0" y="25400"/><use xlink:href="#DKoxqaV-JNJI_pad-11" x="0" y="22860"/><use xlink:href="#DKoxqaV-JNJI_pad-11" x="-15240" y="0"/><use xlink:href="#DKoxqaV-JNJI_pad-11" x="0" y="20320"/><use xlink:href="#DKoxqaV-JNJI_pad-11" x="-15240" y="2540"/><use xlink:href="#DKoxqaV-JNJI_pad-11" x="0" y="17780"/><use xlink:href="#DKoxqaV-JNJI_pad-11" x="-15240" y="5080"/><use xlink:href="#DKoxqaV-JNJI_pad-11" x="0" y="15240"/><use xlink:href="#DKoxqaV-JNJI_pad-11" x="-15240" y="7620"/><use xlink:href="#DKoxqaV-JNJI_pad-11" x="0" y="12700"/><use xlink:href="#DKoxqaV-JNJI_pad-11" x="-15240" y="10160"/><use xlink:href="#DKoxqaV-JNJI_pad-11" x="0" y="10160"/><use xlink:href="#DKoxqaV-JNJI_pad-11" x="-15240" y="12700"/><use xlink:href="#DKoxqaV-JNJI_pad-11" x="0" y="7620"/><use xlink:href="#DKoxqaV-JNJI_pad-11" x="-15240" y="15240"/><use xlink:href="#DKoxqaV-JNJI_pad-11" x="0" y="5080"/><use xlink:href="#DKoxqaV-JNJI_pad-11" x="-15240" y="17780"/><use xlink:href="#DKoxqaV-JNJI_pad-11" x="0" y="2540"/><use xlink:href="#DKoxqaV-JNJI_pad-11" x="-15240" y="20320"/><use xlink:href="#DKoxqaV-JNJI_pad-11" x="0" y="0"/><use xlink:href="#DKoxqaV-JNJI_pad-11" x="-15240" y="22860"/><use xlink:href="#DKoxqaV-JNJI_pad-11" x="-15240" y="25400"/><use xlink:href="#DKoxqaV-JNJI_pad-12" x="-15240" y="27940"/><use xlink:href="#DKoxqaV-JNJI_pad-13" x="-2540" y="6350"/><use xlink:href="#DKoxqaV-JNJI_pad-14" x="-5207" y="21971"/><use xlink:href="#DKoxqaV-JNJI_pad-14" x="-9525" y="13970"/><use xlink:href="#DKoxqaV-JNJI_pad-14" x="-8890" y="10795"/><use xlink:href="#DKoxqaV-JNJI_pad-14" x="-7620" y="7112"/><use xlink:href="#DKoxqaV-JNJI_pad-14" x="-3556" y="2540"/><use xlink:href="#DKoxqaV-JNJI_pad-14" x="-12065" y="18415"/><use xlink:href="#DKoxqaV-JNJI_pad-14" x="-10795" y="19685"/><use xlink:href="#DKoxqaV-JNJI_pad-14" x="-6350" y="10795"/><use xlink:href="#DKoxqaV-JNJI_pad-14" x="-1905" y="635"/><use xlink:href="#DKoxqaV-JNJI_pad-14" x="-7620" y="15240"/><use xlink:href="#DKoxqaV-JNJI_pad-14" x="-10160" y="7366"/><use xlink:href="#DKoxqaV-JNJI_pad-14" x="-10160" y="10160"/><use xlink:href="#DKoxqaV-JNJI_pad-14" x="-5334" y="1143"/><use xlink:href="#DKoxqaV-JNJI_pad-14" x="-12446" y="12192"/><use xlink:href="#DKoxqaV-JNJI_pad-14" x="-12446" y="14351"/><use xlink:href="#DKoxqaV-JNJI_pad-14" x="-5207" y="19685"/><use xlink:href="#DKoxqaV-JNJI_pad-14" x="-8255" y="635"/><use xlink:href="#DKoxqaV-JNJI_pad-14" x="-10795" y="0"/><use xlink:href="#DKoxqaV-JNJI_pad-14" x="-10795" y="13970"/><use xlink:href="#DKoxqaV-JNJI_pad-15" x="-6985" y="20955"/><use xlink:href="#DKoxqaV-JNJI_pad-15" x="-13335" y="11430"/><use xlink:href="#DKoxqaV-JNJI_pad-15" x="-2921" y="20320"/><use xlink:href="#DKoxqaV-JNJI_pad-14" x="-5715" y="5699.99"/><use xlink:href="#DKoxqaV-JNJI_pad-14" x="-3810" y="16510"/><use xlink:href="#DKoxqaV-JNJI_pad-14" x="-1905" y="12700"/><use xlink:href="#DKoxqaV-JNJI_pad-14" x="-4445" y="15875"/><use xlink:href="#DKoxqaV-JNJI_pad-14" x="-10795" y="1270"/><use xlink:href="#DKoxqaV-JNJI_pad-14" x="-10795" y="16510"/><use xlink:href="#DKoxqaV-JNJI_pad-14" x="-4445.02" y="1905.02"/><use xlink:href="#DKoxqaV-JNJI_pad-14" x="-13970" y="8890"/><use xlink:href="#DKoxqaV-JNJI_pad-14" x="-10160" y="21717"/><use xlink:href="#DKoxqaV-JNJI_pad-14" x="-5700" y="-15"/><path d="M -7409.26 20955 -6985 20955 M -13335 19050 -11430 20955 -7409.26 20955 M -13335 11430 -13335 19050 M -3556 20955 -3221 20620 M -6985 20955 -3556 20955 M -3221 20620 -2921 20320" fill="none" stroke-width="400"/><path d="M -5080 6334.99 -5715 5699.99 M -1270 19939 -5080 16129 -5080 6334.99 M 0 22860 -1270 21590 -1270 19939 M 0 7620 -1270 8890 M -3560 16260 -3810 16510 M -1270 8890 -1270 13970 -3560 16260 M -800 5880 -800 6755 M -1905 12346.45 -1905 12700 M -1905 7860 -1905 12346.45 M 0 5080 -800 5880 M -800 6755 -1905 7860 M -4445 5853.63 -4445 15521.45 M -1131.37 2540 -4445 5853.63 M 0 2540 -1131.37 2540 M -4445 15521.45 -4445 15875 M 0 0 -800 -800 M -10545 1020 -10795 1270 M -800 -800 -8725 -800 -10545 1020 M -8890 14605 -10795 16510 M -8315 14030 -8890 14605 M -8315 5775 -8315 14030 M -4445.02 1905.02 -8315 5775 M -13970 8890 -13970 19304 -13970 19431 -11684 21717 -10160 21717 M -13335 7620 -5700 -15 M -15240 7620 -13335 7620" fill="none" stroke-width="250"/><path d="M -16261.67 7310.08 -16181.57 7116.72 -16065.3 6942.7 -15917.3 6794.7 -15743.28 6678.43 -15549.92 6598.33 -15344.65 6557.5 -15135.35 6557.5 -14930.08 6598.33 -14736.72 6678.43 -14562.7 6794.7 -14414.7 6942.7 -14298.42 7116.72 -14250.47 7232.5 -13495.51 7232.5 -6212.5 -50.51 -6212.5 -65.48 -6192.81 -164.49 -6154.17 -257.76 -6098.09 -341.7 -6027.29 -412.5 -8564.49 -412.5 -10282.5 1305.51 -10282.5 1320.48 -10302.19 1419.49 -10340.83 1512.76 -10396.91 1596.7 -10468.3 1668.09 -10552.24 1724.17 -10645.51 1762.8 -10744.52 1782.5 -10845.48 1782.5 -10944.49 1762.8 -11037.76 1724.17 -11121.7 1668.09 -11193.09 1596.7 -11249.17 1512.76 -11287.81 1419.49 -11307.5 1320.48 -11307.5 1219.52 -11287.81 1120.51 -11249.17 1027.24 -11193.09 943.3 -11121.7 871.92 -11037.76 815.83 -10944.49 777.2 -10845.48 757.5 -10830.51 757.5 -9040.51 -1032.5 -14984.53 -1032.5 -14930.08 -1021.67 -14736.72 -941.57 -14562.7 -825.3 -14414.7 -677.3 -14298.42 -503.28 -14218.33 -309.92 -14177.5 -104.65 -14177.5 104.65 -14218.33 309.92 -14298.42 503.28 -14414.7 677.3 -14562.7 825.3 -14736.72 941.57 -14930.08 1021.67 -15135.35 1062.5 -15344.65 1062.5 -15549.92 1021.67 -15743.28 941.57 -15917.3 825.3 -16065.3 677.3 -16181.57 503.28 -16261.67 309.92 -16272.5 255.47 -16272.5 2284.53 -16261.67 2230.08 -16181.57 2036.72 -16065.3 1862.7 -15917.3 1714.7 -15743.28 1598.43 -15549.92 1518.33 -15344.65 1477.5 -15135.35 1477.5 -14930.08 1518.33 -14736.72 1598.43 -14562.7 1714.7 -14414.7 1862.7 -14298.42 2036.72 -14218.33 2230.08 -14177.5 2435.35 -14177.5 2644.65 -14218.33 2849.92 -14298.42 3043.28 -14414.7 3217.3 -14562.7 3365.3 -14736.72 3481.58 -14930.08 3561.67 -15135.35 3602.5 -15344.65 3602.5 -15549.92 3561.67 -15743.28 3481.58 -15917.3 3365.3 -16065.3 3217.3 -16181.57 3043.28 -16261.67 2849.92 -16272.5 2795.47 -16272.5 4824.53 -16261.67 4770.08 -16181.57 4576.72 -16065.3 4402.7 -15917.3 4254.7 -15743.28 4138.42 -15549.92 4058.33 -15344.65 4017.5 -15135.35 4017.5 -14930.08 4058.33 -14736.72 4138.42 -14562.7 4254.7 -14414.7 4402.7 -14298.42 4576.72 -14218.33 4770.08 -14177.5 4975.35 -14177.5 5184.65 -14218.33 5389.92 -14298.42 5583.28 -14414.7 5757.3 -14562.7 5905.3 -14736.72 6021.58 -14930.08 6101.67 -15135.35 6142.5 -15344.65 6142.5 -15549.92 6101.67 -15743.28 6021.58 -15917.3 5905.3 -16065.3 5757.3 -16181.57 5583.28 -16261.67 5389.92 -16272.5 5335.47 -16272.5 7364.53 -16261.67 7310.08"/><path d="M -16261.67 7310.08 -16181.57 7116.72 -16065.3 6942.7 -15917.3 6794.7 -15743.28 6678.43 -15549.92 6598.33 -15344.65 6557.5 -15135.35 6557.5 -14930.08 6598.33 -14736.72 6678.43 -14562.7 6794.7 -14414.7 6942.7 -14298.42 7116.72 -14250.47 7232.5 -13495.51 7232.5 -6212.5 -50.51 -6212.5 -65.48 -6192.81 -164.49 -6154.17 -257.76 -6098.09 -341.7 -6027.29 -412.5 -8564.49 -412.5 -10282.5 1305.51 -10282.5 1320.48 -10302.19 1419.49 -10340.83 1512.76 -10396.91 1596.7 -10468.3 1668.09 -10552.24 1724.17 -10645.51 1762.8 -10744.52 1782.5 -10845.48 1782.5 -10944.49 1762.8 -11037.76 1724.17 -11121.7 1668.09 -11193.09 1596.7 -11249.17 1512.76 -11287.81 1419.49 -11307.5 1320.48 -11307.5 1219.52 -11287.81 1120.51 -11249.17 1027.24 -11193.09 943.3 -11121.7 871.92 -11037.76 815.83 -10944.49 777.2 -10845.48 757.5 -10830.51 757.5 -9040.51 -1032.5 -14984.53 -1032.5 -14930.08 -1021.67 -14736.72 -941.57 -14562.7 -825.3 -14414.7 -677.3 -14298.42 -503.28 -14218.33 -309.92 -14177.5 -104.65 -14177.5 104.65 -14218.33 309.92 -14298.42 503.28 -14414.7 677.3 -14562.7 825.3 -14736.72 941.57 -14930.08 1021.67 -15135.35 1062.5 -15344.65 1062.5 -15549.92 1021.67 -15743.28 941.57 -15917.3 825.3 -16065.3 677.3 -16181.57 503.28 -16261.67 309.92 -16272.5 255.47 -16272.5 2284.53 -16261.67 2230.08 -16181.57 2036.72 -16065.3 1862.7 -15917.3 1714.7 -15743.28 1598.43 -15549.92 1518.33 -15344.65 1477.5 -15135.35 1477.5 -14930.08 1518.33 -14736.72 1598.43 -14562.7 1714.7 -14414.7 1862.7 -14298.42 2036.72 -14218.33 2230.08 -14177.5 2435.35 -14177.5 2644.65 -14218.33 2849.92 -14298.42 3043.28 -14414.7 3217.3 -14562.7 3365.3 -14736.72 3481.58 -14930.08 3561.67 -15135.35 3602.5 -15344.65 3602.5 -15549.92 3561.67 -15743.28 3481.58 -15917.3 3365.3 -16065.3 3217.3 -16181.57 3043.28 -16261.67 2849.92 -16272.5 2795.47 -16272.5 4824.53 -16261.67 4770.08 -16181.57 4576.72 -16065.3 4402.7 -15917.3 4254.7 -15743.28 4138.42 -15549.92 4058.33 -15344.65 4017.5 -15135.35 4017.5 -14930.08 4058.33 -14736.72 4138.42 -14562.7 4254.7 -14414.7 4402.7 -14298.42 4576.72 -14218.33 4770.08 -14177.5 4975.35 -14177.5 5184.65 -14218.33 5389.92 -14298.42 5583.28 -14414.7 5757.3 -14562.7 5905.3 -14736.72 6021.58 -14930.08 6101.67 -15135.35 6142.5 -15344.65 6142.5 -15549.92 6101.67 -15743.28 6021.58 -15917.3 5905.3 -16065.3 5757.3 -16181.57 5583.28 -16261.67 5389.92 -16272.5 5335.47 -16272.5 7364.53 -16261.67 7310.08" fill="none" stroke-width="125"/><path d="M -309.92 28961.67 -503.28 28881.57 -677.3 28765.3 -825.3 28617.3 -941.57 28443.28 -1021.67 28249.92 -1062.5 28044.65 -1062.5 27835.35 -1021.67 27630.08 -941.57 27436.72 -825.3 27262.7 -677.3 27114.7 -503.28 26998.43 -309.92 26918.33 -104.65 26877.5 104.65 26877.5 309.92 26918.33 503.28 26998.43 677.3 27114.7 825.3 27262.7 941.57 27436.72 1021.67 27630.08 1032.5 27684.54 1032.5 25487.5 993.03 25487.5 1032.17 25652.07 998.26 25763.85 908.1 25951.61 783.03 26118.18 627.88 26257.14 448.59 26363.16 252.07 26432.17 87.5 26393.27 87.5 25487.5 107.5 25487.5 107.5 25312.5 87.5 25312.5 87.5 24406.73 252.07 24367.83 448.59 24436.84 627.88 24542.86 783.03 24681.82 908.1 24848.39 998.26 25036.15 1032.17 25147.93 993.03 25312.5 1032.5 25312.5 1032.5 23115.46 1021.67 23169.92 941.57 23363.28 825.3 23537.3 677.3 23685.3 503.28 23801.58 309.92 23881.67 104.65 23922.5 -104.65 23922.5 -309.92 23881.67 -503.28 23801.58 -677.3 23685.3 -825.3 23537.3 -941.57 23363.28 -1021.67 23169.92 -1062.5 22964.65 -1062.5 22755.35 -1021.67 22550.08 -973.71 22434.3 -1530.55 21877.46 -1545.33 21865.33 -1593.75 21806.32 -1629.74 21739.01 -1645.17 21688.12 -1651.89 21665.96 -1659.37 21590 -1657.5 21570.97 -1657.5 20099.51 -5340.55 16416.46 -5355.33 16404.33 -5403.75 16345.32 -5439.74 16278.01 -5452.86 16234.73 -5461.89 16204.96 -5469.37 16129 -5467.5 16109.97 -5467.5 6495.5 -5750.51 6212.49 -5765.48 6212.49 -5864.49 6192.8 -5957.76 6154.16 -6041.7 6098.08 -6113.09 6026.69 -6169.17 5942.75 -6207.81 5849.48 -6227.5 5750.47 -6227.5 5649.51 -6207.81 5550.5 -6169.17 5457.23 -6113.09 5373.29 -6041.7 5301.91 -5957.76 5245.82 -5864.49 5207.18 -5765.48 5187.49 -5664.52 5187.49 -5565.51 5207.18 -5472.24 5245.82 -5388.3 5301.91 -5316.92 5373.29 -5260.83 5457.23 -5222.19 5550.5 -5202.5 5649.51 -5202.5 5664.48 -4832.5 6034.48 -4832.5 5872.66 -4834.37 5853.63 -4826.89 5777.67 -4820.71 5757.3 -4804.73 5704.62 -4768.75 5637.31 -4720.33 5578.3 -4705.54 5566.17 -1418.83 2279.45 -1406.7 2264.67 -1347.7 2216.25 -1280.38 2180.26 -1231.94 2165.57 -1207.33 2158.11 -1199.56 2157.34 -1150.4 2152.5 -1150.39 2152.5 -1131.37 2150.63 -1112.35 2152.5 -989.53 2152.5 -941.57 2036.72 -825.3 1862.7 -677.3 1714.7 -503.28 1598.43 -309.92 1518.33 -104.65 1477.5 104.65 1477.5 309.92 1518.33 503.28 1598.43 677.3 1714.7 825.3 1862.7 941.57 2036.72 1021.67 2230.08 1032.5 2284.53 1032.5 255.47 1021.67 309.92 941.57 503.28 825.3 677.3 677.3 825.3 503.28 941.57 309.92 1021.67 104.65 1062.5 -104.65 1062.5 -309.92 1021.67 -503.28 941.57 -677.3 825.3 -825.3 677.3 -941.57 503.28 -1021.67 309.92 -1062.5 104.65 -1062.5 -104.65 -1021.67 -309.92 -979.18 -412.5 -5372.71 -412.5 -5301.92 -341.7 -5245.83 -257.76 -5207.19 -164.49 -5187.5 -65.48 -5187.5 35.48 -5207.19 134.49 -5245.83 227.76 -5301.92 311.7 -5373.3 383.09 -5457.24 439.17 -5550.51 477.8 -5649.52 497.5 -5664.49 497.5 -13047.54 7880.54 -13059.67 7895.33 -13118.68 7943.75 -13185.99 7979.73 -13259.04 8001.89 -13315.97 8007.5 -13335 8009.37 -13354.03 8007.5 -14250.47 8007.5 -14298.42 8123.28 -14414.7 8297.3 -14562.7 8445.3 -14736.72 8561.57 -14930.08 8641.67 -15135.35 8682.5 -15344.65 8682.5 -15549.92 8641.67 -15743.28 8561.57 -15917.3 8445.3 -16065.3 8297.3 -16181.57 8123.28 -16261.67 7929.92 -16272.5 7875.47 -16272.5 9904.53 -16261.67 9850.08 -16181.57 9656.72 -16065.3 9482.7 -15917.3 9334.7 -15743.28 9218.42 -15549.92 9138.33 -15344.65 9097.5 -15135.35 9097.5 -14930.08 9138.33 -14736.72 9218.42 -14562.7 9334.7 -14414.7 9482.7 -14357.5 9568.31 -14357.5 9227.28 -14368.08 9216.7 -14424.17 9132.76 -14462.8 9039.49 -14482.5 8940.48 -14482.5 8839.52 -14462.8 8740.51 -14424.17 8647.24 -14368.08 8563.3 -14296.7 8491.91 -14212.76 8435.83 -14119.49 8397.19 -14020.48 8377.5 -13919.52 8377.5 -13820.51 8397.19 -13727.24 8435.83 -13643.3 8491.91 -13571.92 8563.3 -13515.83 8647.24 -13477.2 8740.51 -13457.5 8839.52 -13457.5 8940.48 -13477.2 9039.49 -13515.83 9132.76 -13571.92 9216.7 -13582.5 9227.28 -13582.5 10923.67 -13499.08 10889.12 -13390.4 10867.5 -13279.6 10867.5 -13170.93 10889.12 -13068.56 10931.52 -12976.43 10993.08 -12898.08 11071.43 -12836.52 11163.56 -12794.12 11265.93 -12772.5 11374.6 -12772.5 11485.4 -12794.12 11594.08 -12836.52 11696.44 -12872.5 11750.29 -12872.5 16560.48 -11307.5 16560.48 -11307.5 16459.52 -11287.81 16360.51 -11249.17 16267.24 -11193.09 16183.3 -11121.7 16111.91 -11037.76 16055.83 -10944.49 16017.19 -10845.48 15997.5 -10830.51 15997.5 -9150.55 14317.54 -9150.55 14317.54 -8702.5 13869.49 -8702.5 5794.03 -8704.37 5775 -8697.44 5704.62 -8696.89 5699.04 -8674.73 5625.99 -8638.75 5558.68 -8590.33 5499.67 -8575.54 5487.54 -4957.52 1869.51 -4957.52 1854.54 -4937.82 1755.53 -4899.19 1662.26 -4843.1 1578.32 -4771.72 1506.94 -4687.78 1450.85 -4594.51 1412.22 -4495.5 1392.52 -4394.54 1392.52 -4295.53 1412.22 -4202.26 1450.85 -4118.32 1506.94 -4046.93 1578.32 -3990.85 1662.26 -3952.21 1755.53 -3932.52 1854.54 -3932.52 1955.5 -3952.21 2054.51 -3990.85 2147.78 -4046.93 2231.72 -4118.32 2303.1 -4202.26 2359.19 -4295.53 2397.82 -4394.54 2417.52 -4409.51 2417.52 -7927.5 5935.51 -7927.5 14010.98 -7925.63 14030 -7927.5 14049.02 -7927.5 14049.02 -7933.11 14105.96 -7955.26 14179.01 -7991.25 14246.32 -8039.67 14305.33 -8054.45 14317.46 -8602.54 14865.55 -8602.54 14865.55 -10282.5 16545.51 -10282.5 16560.48 -10302.19 16659.49 -10340.83 16752.76 -10396.91 16836.7 -10468.3 16908.08 -10552.24 16964.17 -10645.51 17002.8 -10744.52 17022.5 -10845.48 17022.5 -10944.49 17002.8 -11037.76 16964.17 -11121.7 16908.08 -11193.09 16836.7 -11249.17 16752.76 -11287.81 16659.49 -11307.5 16560.48 -12872.5 16560.48 -12872.5 18858.43 -11238.43 20492.5 -7305.29 20492.5 -7251.44 20456.52 -7149.07 20414.12 -7040.4 20392.5 -6929.6 20392.5 -6820.93 20414.12 -6718.56 20456.52 -6664.71 20492.5 -3747.57 20492.5 -3531.98 20276.9 -3531.97 20276.9 -3474.52 20219.45 -3461.88 20155.92 -3419.48 20053.56 -3357.92 19961.43 -3279.57 19883.08 -3187.44 19821.52 -3085.08 19779.12 -2976.4 19757.5 -2865.6 19757.5 -2756.93 19779.12 -2654.56 19821.52 -2562.43 19883.08 -2484.08 19961.43 -2422.52 20053.56 -2380.12 20155.92 -2358.5 20264.6 -2358.5 20375.4 -2380.12 20484.07 -2422.52 20586.44 -2484.08 20678.57 -2562.43 20756.92 -2654.56 20818.48 -2756.93 20860.88 -2820.45 20873.52 -2877.9 20930.97 -2877.9 20930.98 -3212.9 21265.97 -3227.38 21283.62 -3297.81 21341.42 -3378.15 21384.36 -3465.33 21410.81 -3533.29 21417.5 -3556 21419.74 -3578.71 21417.5 -6664.71 21417.5 -6718.56 21453.48 -6820.93 21495.88 -6929.6 21517.5 -7040.4 21517.5 -7149.07 21495.88 -7251.44 21453.48 -7305.29 21417.5 -9743.74 21417.5 -9705.83 21474.24 -9667.19 21567.51 -9647.5 21666.52 -9647.5 21767.48 -9667.19 21866.49 -9705.83 21959.76 -9761.91 22043.7 -9833.3 22115.09 -9917.24 22171.17 -10010.51 22209.81 -10109.52 22229.5 -10210.48 22229.5 -10309.49 22209.81 -10402.76 22171.17 -10486.7 22115.09 -10497.29 22104.5 -11664.98 22104.5 -11684 22106.37 -11703.02 22104.5 -11703.03 22104.5 -11752.19 22099.66 -11759.96 22098.89 -11782.12 22092.17 -11833.01 22076.74 -11900.33 22040.75 -11959.33 21992.33 -11971.46 21977.55 -14230.55 19718.46 -14245.33 19706.33 -14293.75 19647.32 -14329.73 19580.01 -14347.84 19520.32 -14351.89 19506.96 -14359.37 19431 -14357.5 19411.97 -14357.5 19284.97 -14357.5 19284.96 -14357.5 18371.69 -14414.7 18457.3 -14562.7 18605.3 -14736.72 18721.57 -14930.08 18801.67 -15135.35 18842.5 -15344.65 18842.5 -15549.92 18801.67 -15743.28 18721.57 -15917.3 18605.3 -16065.3 18457.3 -16181.57 18283.28 -16261.67 18089.92 -16272.5 18035.47 -16272.5 20232.5 -16233.03 20232.5 -16272.17 20067.93 -16238.26 19956.15 -16148.1 19768.39 -16023.03 19601.82 -15867.88 19462.86 -15688.59 19356.84 -15492.07 19287.83 -15327.5 19326.73 -15327.5 20232.5 -15152.5 20232.5 -15152.5 19326.73 -14987.93 19287.83 -14791.41 19356.84 -14612.12 19462.86 -14456.97 19601.82 -14331.9 19768.39 -14241.74 19956.15 -14207.83 20067.93 -14246.97 20232.5 -15152.5 20232.5 -15327.5 20232.5 -15347.5 20232.5 -15347.5 20407.5 -15327.5 20407.5 -15327.5 21313.27 -15152.5 21313.27 -15152.5 20407.5 -14246.97 20407.5 -14207.83 20572.07 -14241.74 20683.85 -14331.9 20871.61 -14456.97 21038.18 -14612.12 21177.14 -14791.41 21283.16 -14987.93 21352.17 -15152.5 21313.27 -15327.5 21313.27 -15492.07 21352.17 -15688.59 21283.16 -15867.88 21177.14 -16023.03 21038.18 -16148.1 20871.61 -16238.26 20683.85 -16272.17 20572.07 -16233.03 20407.5 -16272.5 20407.5 -16272.5 22604.53 -16261.67 22550.08 -16181.57 22356.72 -16065.3 22182.7 -15917.3 22034.7 -15743.28 21918.43 -15549.92 21838.33 -15344.65 21797.5 -15135.35 21797.5 -14930.08 21838.33 -14736.72 21918.43 -14562.7 22034.7 -14414.7 22182.7 -14298.42 22356.72 -14218.33 22550.08 -14177.5 22755.35 -14177.5 22964.65 -14218.33 23169.92 -14298.42 23363.28 -14414.7 23537.3 -14562.7 23685.3 -14736.72 23801.58 -14930.08 23881.67 -15135.35 23922.5 -15344.65 23922.5 -15549.92 23881.67 -15743.28 23801.58 -15917.3 23685.3 -16065.3 23537.3 -16181.57 23363.28 -16261.67 23169.92 -16272.5 23115.47 -16272.5 25144.53 -16261.67 25090.08 -16181.57 24896.72 -16065.3 24722.7 -15917.3 24574.7 -15743.28 24458.43 -15549.92 24378.33 -15344.65 24337.5 -15135.35 24337.5 -14930.08 24378.33 -14736.72 24458.43 -14562.7 24574.7 -14414.7 24722.7 -14298.42 24896.72 -14218.33 25090.08 -14206.82 25147.93 -1032.17 25147.93 -998.26 25036.15 -908.1 24848.39 -783.03 24681.82 -627.88 24542.86 -448.59 24436.84 -252.07 24367.83 -87.5 24406.73 -87.5 25312.5 -993.03 25312.5 -1032.17 25147.93 -14206.82 25147.93 -14177.5 25295.35 -14177.5 25504.65 -14206.82 25652.07 -1032.17 25652.07 -993.03 25487.5 -87.5 25487.5 -87.5 26393.27 -252.07 26432.17 -448.59 26363.16 -627.88 26257.14 -783.03 26118.18 -908.1 25951.61 -998.26 25763.85 -1032.17 25652.07 -14206.82 25652.07 -14218.33 25709.92 -14298.42 25903.28 -14414.7 26077.3 -14562.7 26225.3 -14736.72 26341.58 -14930.08 26421.67 -15135.35 26462.5 -15344.65 26462.5 -15549.92 26421.67 -15743.28 26341.58 -15917.3 26225.3 -16065.3 26077.3 -16181.57 25903.28 -16261.67 25709.92 -16272.5 25655.47 -16272.5 27018.12 -16259.32 26993.46 -16226.51 26953.49 -16186.54 26920.68 -16140.94 26896.31 -16091.46 26881.3 -16040 26876.23 -14440 26876.23 -14388.54 26881.3 -14339.06 26896.31 -14293.46 26920.68 -14253.49 26953.49 -14220.68 26993.46 -14196.31 27039.06 -14181.3 27088.54 -14176.23 27140 -14176.23 28740 -14181.3 28791.46 -14196.31 28840.94 -14220.68 28886.54 -14253.49 28926.51 -14293.46 28959.32 -14318.12 28972.5 -255.47 28972.5 -309.92 28961.67"/><path d="M -309.92 28961.67 -503.28 28881.57 -677.3 28765.3 -825.3 28617.3 -941.57 28443.28 -1021.67 28249.92 -1062.5 28044.65 -1062.5 27835.35 -1021.67 27630.08 -941.57 27436.72 -825.3 27262.7 -677.3 27114.7 -503.28 26998.43 -309.92 26918.33 -104.65 26877.5 104.65 26877.5 309.92 26918.33 503.28 26998.43 677.3 27114.7 825.3 27262.7 941.57 27436.72 1021.67 27630.08 1032.5 27684.54 1032.5 25487.5 993.03 25487.5 1032.17 25652.07 998.26 25763.85 908.1 25951.61 783.03 26118.18 627.88 26257.14 448.59 26363.16 252.07 26432.17 87.5 26393.27 87.5 25487.5 107.5 25487.5 107.5 25312.5 87.5 25312.5 87.5 24406.73 252.07 24367.83 448.59 24436.84 627.88 24542.86 783.03 24681.82 908.1 24848.39 998.26 25036.15 1032.17 25147.93 993.03 25312.5 1032.5 25312.5 1032.5 23115.46 1021.67 23169.92 941.57 23363.28 825.3 23537.3 677.3 23685.3 503.28 23801.58 309.92 23881.67 104.65 23922.5 -104.65 23922.5 -309.92 23881.67 -503.28 23801.58 -677.3 23685.3 -825.3 23537.3 -941.57 23363.28 -1021.67 23169.92 -1062.5 22964.65 -1062.5 22755.35 -1021.67 22550.08 -973.71 22434.3 -1530.55 21877.46 -1545.33 21865.33 -1593.75 21806.32 -1629.74 21739.01 -1645.17 21688.12 -1651.89 21665.96 -1659.37 21590 -1657.5 21570.97 -1657.5 20099.51 -5340.55 16416.46 -5355.33 16404.33 -5403.75 16345.32 -5439.74 16278.01 -5452.86 16234.73 -5461.89 16204.96 -5469.37 16129 -5467.5 16109.97 -5467.5 6495.5 -5750.51 6212.49 -5765.48 6212.49 -5864.49 6192.8 -5957.76 6154.16 -6041.7 6098.08 -6113.09 6026.69 -6169.17 5942.75 -6207.81 5849.48 -6227.5 5750.47 -6227.5 5649.51 -6207.81 5550.5 -6169.17 5457.23 -6113.09 5373.29 -6041.7 5301.91 -5957.76 5245.82 -5864.49 5207.18 -5765.48 5187.49 -5664.52 5187.49 -5565.51 5207.18 -5472.24 5245.82 -5388.3 5301.91 -5316.92 5373.29 -5260.83 5457.23 -5222.19 5550.5 -5202.5 5649.51 -5202.5 5664.48 -4832.5 6034.48 -4832.5 5872.66 -4834.37 5853.63 -4826.89 5777.67 -4820.71 5757.3 -4804.73 5704.62 -4768.75 5637.31 -4720.33 5578.3 -4705.54 5566.17 -1418.83 2279.45 -1406.7 2264.67 -1347.7 2216.25 -1280.38 2180.26 -1231.94 2165.57 -1207.33 2158.11 -1199.56 2157.34 -1150.4 2152.5 -1150.39 2152.5 -1131.37 2150.63 -1112.35 2152.5 -989.53 2152.5 -941.57 2036.72 -825.3 1862.7 -677.3 1714.7 -503.28 1598.43 -309.92 1518.33 -104.65 1477.5 104.65 1477.5 309.92 1518.33 503.28 1598.43 677.3 1714.7 825.3 1862.7 941.57 2036.72 1021.67 2230.08 1032.5 2284.53 1032.5 255.47 1021.67 309.92 941.57 503.28 825.3 677.3 677.3 825.3 503.28 941.57 309.92 1021.67 104.65 1062.5 -104.65 1062.5 -309.92 1021.67 -503.28 941.57 -677.3 825.3 -825.3 677.3 -941.57 503.28 -1021.67 309.92 -1062.5 104.65 -1062.5 -104.65 -1021.67 -309.92 -979.18 -412.5 -5372.71 -412.5 -5301.92 -341.7 -5245.83 -257.76 -5207.19 -164.49 -5187.5 -65.48 -5187.5 35.48 -5207.19 134.49 -5245.83 227.76 -5301.92 311.7 -5373.3 383.09 -5457.24 439.17 -5550.51 477.8 -5649.52 497.5 -5664.49 497.5 -13047.54 7880.54 -13059.67 7895.33 -13118.68 7943.75 -13185.99 7979.73 -13259.04 8001.89 -13315.97 8007.5 -13335 8009.37 -13354.03 8007.5 -14250.47 8007.5 -14298.42 8123.28 -14414.7 8297.3 -14562.7 8445.3 -14736.72 8561.57 -14930.08 8641.67 -15135.35 8682.5 -15344.65 8682.5 -15549.92 8641.67 -15743.28 8561.57 -15917.3 8445.3 -16065.3 8297.3 -16181.57 8123.28 -16261.67 7929.92 -16272.5 7875.47 -16272.5 9904.53 -16261.67 9850.08 -16181.57 9656.72 -16065.3 9482.7 -15917.3 9334.7 -15743.28 9218.42 -15549.92 9138.33 -15344.65 9097.5 -15135.35 9097.5 -14930.08 9138.33 -14736.72 9218.42 -14562.7 9334.7 -14414.7 9482.7 -14357.5 9568.31 -14357.5 9227.28 -14368.08 9216.7 -14424.17 9132.76 -14462.8 9039.49 -14482.5 8940.48 -14482.5 8839.52 -14462.8 8740.51 -14424.17 8647.24 -14368.08 8563.3 -14296.7 8491.91 -14212.76 8435.83 -14119.49 8397.19 -14020.48 8377.5 -13919.52 8377.5 -13820.51 8397.19 -13727.24 8435.83 -13643.3 8491.91 -13571.92 8563.3 -13515.83 8647.24 -13477.2 8740.51 -13457.5 8839.52 -13457.5 8940.48 -13477.2 9039.49 -13515.83 9132.76 -13571.92 9216.7 -13582.5 9227.28 -13582.5 10923.67 -13499.08 10889.12 -13390.4 10867.5 -13279.6 10867.5 -13170.93 10889.12 -13068.56 10931.52 -12976.43 10993.08 -12898.08 11071.43 -12836.52 11163.56 -12794.12 11265.93 -12772.5 11374.6 -12772.5 11485.4 -12794.12 11594.08 -12836.52 11696.44 -12872.5 11750.29 -12872.5 16560.48 -11307.5 16560.48 -11307.5 16459.52 -11287.81 16360.51 -11249.17 16267.24 -11193.09 16183.3 -11121.7 16111.91 -11037.76 16055.83 -10944.49 16017.19 -10845.48 15997.5 -10830.51 15997.5 -9150.55 14317.54 -9150.55 14317.54 -8702.5 13869.49 -8702.5 5794.03 -8704.37 5775 -8697.44 5704.62 -8696.89 5699.04 -8674.73 5625.99 -8638.75 5558.68 -8590.33 5499.67 -8575.54 5487.54 -4957.52 1869.51 -4957.52 1854.54 -4937.82 1755.53 -4899.19 1662.26 -4843.1 1578.32 -4771.72 1506.94 -4687.78 1450.85 -4594.51 1412.22 -4495.5 1392.52 -4394.54 1392.52 -4295.53 1412.22 -4202.26 1450.85 -4118.32 1506.94 -4046.93 1578.32 -3990.85 1662.26 -3952.21 1755.53 -3932.52 1854.54 -3932.52 1955.5 -3952.21 2054.51 -3990.85 2147.78 -4046.93 2231.72 -4118.32 2303.1 -4202.26 2359.19 -4295.53 2397.82 -4394.54 2417.52 -4409.51 2417.52 -7927.5 5935.51 -7927.5 14010.98 -7925.63 14030 -7927.5 14049.02 -7927.5 14049.02 -7933.11 14105.96 -7955.26 14179.01 -7991.25 14246.32 -8039.67 14305.33 -8054.45 14317.46 -8602.54 14865.55 -8602.54 14865.55 -10282.5 16545.51 -10282.5 16560.48 -10302.19 16659.49 -10340.83 16752.76 -10396.91 16836.7 -10468.3 16908.08 -10552.24 16964.17 -10645.51 17002.8 -10744.52 17022.5 -10845.48 17022.5 -10944.49 17002.8 -11037.76 16964.17 -11121.7 16908.08 -11193.09 16836.7 -11249.17 16752.76 -11287.81 16659.49 -11307.5 16560.48 -12872.5 16560.48 -12872.5 18858.43 -11238.43 20492.5 -7305.29 20492.5 -7251.44 20456.52 -7149.07 20414.12 -7040.4 20392.5 -6929.6 20392.5 -6820.93 20414.12 -6718.56 20456.52 -6664.71 20492.5 -3747.57 20492.5 -3531.98 20276.9 -3531.97 20276.9 -3474.52 20219.45 -3461.88 20155.92 -3419.48 20053.56 -3357.92 19961.43 -3279.57 19883.08 -3187.44 19821.52 -3085.08 19779.12 -2976.4 19757.5 -2865.6 19757.5 -2756.93 19779.12 -2654.56 19821.52 -2562.43 19883.08 -2484.08 19961.43 -2422.52 20053.56 -2380.12 20155.92 -2358.5 20264.6 -2358.5 20375.4 -2380.12 20484.07 -2422.52 20586.44 -2484.08 20678.57 -2562.43 20756.92 -2654.56 20818.48 -2756.93 20860.88 -2820.45 20873.52 -2877.9 20930.97 -2877.9 20930.98 -3212.9 21265.97 -3227.38 21283.62 -3297.81 21341.42 -3378.15 21384.36 -3465.33 21410.81 -3533.29 21417.5 -3556 21419.74 -3578.71 21417.5 -6664.71 21417.5 -6718.56 21453.48 -6820.93 21495.88 -6929.6 21517.5 -7040.4 21517.5 -7149.07 21495.88 -7251.44 21453.48 -7305.29 21417.5 -9743.74 21417.5 -9705.83 21474.24 -9667.19 21567.51 -9647.5 21666.52 -9647.5 21767.48 -9667.19 21866.49 -9705.83 21959.76 -9761.91 22043.7 -9833.3 22115.09 -9917.24 22171.17 -10010.51 22209.81 -10109.52 22229.5 -10210.48 22229.5 -10309.49 22209.81 -10402.76 22171.17 -10486.7 22115.09 -10497.29 22104.5 -11664.98 22104.5 -11684 22106.37 -11703.02 22104.5 -11703.03 22104.5 -11752.19 22099.66 -11759.96 22098.89 -11782.12 22092.17 -11833.01 22076.74 -11900.33 22040.75 -11959.33 21992.33 -11971.46 21977.55 -14230.55 19718.46 -14245.33 19706.33 -14293.75 19647.32 -14329.73 19580.01 -14347.84 19520.32 -14351.89 19506.96 -14359.37 19431 -14357.5 19411.97 -14357.5 19284.97 -14357.5 19284.96 -14357.5 18371.69 -14414.7 18457.3 -14562.7 18605.3 -14736.72 18721.57 -14930.08 18801.67 -15135.35 18842.5 -15344.65 18842.5 -15549.92 18801.67 -15743.28 18721.57 -15917.3 18605.3 -16065.3 18457.3 -16181.57 18283.28 -16261.67 18089.92 -16272.5 18035.47 -16272.5 20232.5 -16233.03 20232.5 -16272.17 20067.93 -16238.26 19956.15 -16148.1 19768.39 -16023.03 19601.82 -15867.88 19462.86 -15688.59 19356.84 -15492.07 19287.83 -15327.5 19326.73 -15327.5 20232.5 -15152.5 20232.5 -15152.5 19326.73 -14987.93 19287.83 -14791.41 19356.84 -14612.12 19462.86 -14456.97 19601.82 -14331.9 19768.39 -14241.74 19956.15 -14207.83 20067.93 -14246.97 20232.5 -15152.5 20232.5 -15327.5 20232.5 -15347.5 20232.5 -15347.5 20407.5 -15327.5 20407.5 -15327.5 21313.27 -15152.5 21313.27 -15152.5 20407.5 -14246.97 20407.5 -14207.83 20572.07 -14241.74 20683.85 -14331.9 20871.61 -14456.97 21038.18 -14612.12 21177.14 -14791.41 21283.16 -14987.93 21352.17 -15152.5 21313.27 -15327.5 21313.27 -15492.07 21352.17 -15688.59 21283.16 -15867.88 21177.14 -16023.03 21038.18 -16148.1 20871.61 -16238.26 20683.85 -16272.17 20572.07 -16233.03 20407.5 -16272.5 20407.5 -16272.5 22604.53 -16261.67 22550.08 -16181.57 22356.72 -16065.3 22182.7 -15917.3 22034.7 -15743.28 21918.43 -15549.92 21838.33 -15344.65 21797.5 -15135.35 21797.5 -14930.08 21838.33 -14736.72 21918.43 -14562.7 22034.7 -14414.7 22182.7 -14298.42 22356.72 -14218.33 22550.08 -14177.5 22755.35 -14177.5 22964.65 -14218.33 23169.92 -14298.42 23363.28 -14414.7 23537.3 -14562.7 23685.3 -14736.72 23801.58 -14930.08 23881.67 -15135.35 23922.5 -15344.65 23922.5 -15549.92 23881.67 -15743.28 23801.58 -15917.3 23685.3 -16065.3 23537.3 -16181.57 23363.28 -16261.67 23169.92 -16272.5 23115.47 -16272.5 25144.53 -16261.67 25090.08 -16181.57 24896.72 -16065.3 24722.7 -15917.3 24574.7 -15743.28 24458.43 -15549.92 24378.33 -15344.65 24337.5 -15135.35 24337.5 -14930.08 24378.33 -14736.72 24458.43 -14562.7 24574.7 -14414.7 24722.7 -14298.42 24896.72 -14218.33 25090.08 -14206.82 25147.93 -1032.17 25147.93 -998.26 25036.15 -908.1 24848.39 -783.03 24681.82 -627.88 24542.86 -448.59 24436.84 -252.07 24367.83 -87.5 24406.73 -87.5 25312.5 -993.03 25312.5 -1032.17 25147.93 -14206.82 25147.93 -14177.5 25295.35 -14177.5 25504.65 -14206.82 25652.07 -1032.17 25652.07 -993.03 25487.5 -87.5 25487.5 -87.5 26393.27 -252.07 26432.17 -448.59 26363.16 -627.88 26257.14 -783.03 26118.18 -908.1 25951.61 -998.26 25763.85 -1032.17 25652.07 -14206.82 25652.07 -14218.33 25709.92 -14298.42 25903.28 -14414.7 26077.3 -14562.7 26225.3 -14736.72 26341.58 -14930.08 26421.67 -15135.35 26462.5 -15344.65 26462.5 -15549.92 26421.67 -15743.28 26341.58 -15917.3 26225.3 -16065.3 26077.3 -16181.57 25903.28 -16261.67 25709.92 -16272.5 25655.47 -16272.5 27018.12 -16259.32 26993.46 -16226.51 26953.49 -16186.54 26920.68 -16140.94 26896.31 -16091.46 26881.3 -16040 26876.23 -14440 26876.23 -14388.54 26881.3 -14339.06 26896.31 -14293.46 26920.68 -14253.49 26953.49 -14220.68 26993.46 -14196.31 27039.06 -14181.3 27088.54 -14176.23 27140 -14176.23 28740 -14181.3 28791.46 -14196.31 28840.94 -14220.68 28886.54 -14253.49 28926.51 -14293.46 28959.32 -14318.12 28972.5 -255.47 28972.5 -309.92 28961.67" fill="none" stroke-width="125"/></g><g id="GhLvQcdYo5L2_bottom_drill1"><use xlink:href="#WJxdDI0fVFHX_pad-1" x="-13970" y="8890"/><use xlink:href="#WJxdDI0fVFHX_pad-1" x="-12446" y="14351"/><use xlink:href="#WJxdDI0fVFHX_pad-1" x="-12446" y="12192"/><use xlink:href="#WJxdDI0fVFHX_pad-1" x="-12065" y="18415"/><use xlink:href="#WJxdDI0fVFHX_pad-1" x="-10795" y="19685"/><use xlink:href="#WJxdDI0fVFHX_pad-1" x="-10795" y="16510"/><use xlink:href="#WJxdDI0fVFHX_pad-1" x="-10795" y="13970"/><use xlink:href="#WJxdDI0fVFHX_pad-1" x="-10795" y="1270"/><use xlink:href="#WJxdDI0fVFHX_pad-1" x="-10795" y="0"/><use xlink:href="#WJxdDI0fVFHX_pad-1" x="-10160" y="21717"/><use xlink:href="#WJxdDI0fVFHX_pad-1" x="-10160" y="10160"/><use xlink:href="#WJxdDI0fVFHX_pad-1" x="-10160" y="7366"/><use xlink:href="#WJxdDI0fVFHX_pad-1" x="-9525" y="13970"/><use xlink:href="#WJxdDI0fVFHX_pad-1" x="-8890" y="10795"/><use xlink:href="#WJxdDI0fVFHX_pad-1" x="-8255" y="635"/><use xlink:href="#WJxdDI0fVFHX_pad-1" x="-7620" y="15240"/><use xlink:href="#WJxdDI0fVFHX_pad-1" x="-7620" y="7112"/><use xlink:href="#WJxdDI0fVFHX_pad-1" x="-6350" y="10795"/><use xlink:href="#WJxdDI0fVFHX_pad-1" x="-5715" y="5700"/><use xlink:href="#WJxdDI0fVFHX_pad-1" x="-5700" y="-15"/><use xlink:href="#WJxdDI0fVFHX_pad-1" x="-5334" y="1143"/><use xlink:href="#WJxdDI0fVFHX_pad-1" x="-5207" y="21971"/><use xlink:href="#WJxdDI0fVFHX_pad-1" x="-5207" y="19685"/><use xlink:href="#WJxdDI0fVFHX_pad-1" x="-4445" y="1905"/><use xlink:href="#WJxdDI0fVFHX_pad-1" x="-4445" y="15875"/><use xlink:href="#WJxdDI0fVFHX_pad-1" x="-3810" y="16510"/><use xlink:href="#WJxdDI0fVFHX_pad-1" x="-3556" y="2540"/><use xlink:href="#WJxdDI0fVFHX_pad-1" x="-1905" y="12700"/><use xlink:href="#WJxdDI0fVFHX_pad-1" x="-1905" y="635"/><use xlink:href="#WJxdDI0fVFHX_pad-2" x="-13335" y="11430"/><use xlink:href="#WJxdDI0fVFHX_pad-2" x="-6985" y="20955"/><use xlink:href="#WJxdDI0fVFHX_pad-2" x="-2921" y="20320"/><use xlink:href="#WJxdDI0fVFHX_pad-3" x="-15240" y="27940"/><use xlink:href="#WJxdDI0fVFHX_pad-3" x="-15240" y="25400"/><use xlink:href="#WJxdDI0fVFHX_pad-3" x="-15240" y="22860"/><use xlink:href="#WJxdDI0fVFHX_pad-3" x="-15240" y="20320"/><use xlink:href="#WJxdDI0fVFHX_pad-3" x="-15240" y="17780"/><use xlink:href="#WJxdDI0fVFHX_pad-3" x="-15240" y="15240"/><use xlink:href="#WJxdDI0fVFHX_pad-3" x="-15240" y="12700"/><use xlink:href="#WJxdDI0fVFHX_pad-3" x="-15240" y="10160"/><use xlink:href="#WJxdDI0fVFHX_pad-3" x="-15240" y="7620"/><use xlink:href="#WJxdDI0fVFHX_pad-3" x="-15240" y="5080"/><use xlink:href="#WJxdDI0fVFHX_pad-3" x="-15240" y="2540"/><use xlink:href="#WJxdDI0fVFHX_pad-3" x="-15240" y="0"/><use xlink:href="#WJxdDI0fVFHX_pad-3" x="0" y="27940"/><use xlink:href="#WJxdDI0fVFHX_pad-3" x="0" y="25400"/><use xlink:href="#WJxdDI0fVFHX_pad-3" x="0" y="22860"/><use xlink:href="#WJxdDI0fVFHX_pad-3" x="0" y="20320"/><use xlink:href="#WJxdDI0fVFHX_pad-3" x="0" y="17780"/><use xlink:href="#WJxdDI0fVFHX_pad-3" x="0" y="15240"/><use xlink:href="#WJxdDI0fVFHX_pad-3" x="0" y="12700"/><use xlink:href="#WJxdDI0fVFHX_pad-3" x="0" y="10160"/><use xlink:href="#WJxdDI0fVFHX_pad-3" x="0" y="7620"/><use xlink:href="#WJxdDI0fVFHX_pad-3" x="0" y="5080"/><use xlink:href="#WJxdDI0fVFHX_pad-3" x="0" y="2540"/><use xlink:href="#WJxdDI0fVFHX_pad-3" x="0" y="0"/><use xlink:href="#WJxdDI0fVFHX_pad-3" x="-2540" y="6350"/></g><clipPath id="GhLvQcdYo5L2_bottom_outline"><path d="M -15875 29210 A 635 635 0 0 1 -16510 28575 L -16510 -635 A 635 635 0 0 1 -15875 -1270 L 635 -1270 A 635 635 0 0 1 1270 -635 L 1270 28575 A 635 635 0 0 1 635 29210 L -15875 29210" fill="none" stroke-width="100"/></clipPath><mask id="GhLvQcdYo5L2_bottom_mech-mask"><g fill="#000" stroke="#000"><rect x="-16510" y="-1270" width="17780" height="30480" fill="#fff"/><use xlink:href="#GhLvQcdYo5L2_bottom_drill1"/></g></mask><mask id="GhLvQcdYo5L2_bottom_cf-mask"><g fill="#fff" stroke="#fff"><use xlink:href="#GhLvQcdYo5L2_bottom_soldermask"/></g></mask><mask id="GhLvQcdYo5L2_bottom_sm-mask"><g fill="#000" stroke="#000"><rect x="-16510" y="-1270" width="17780" height="30480" fill="#fff"/><use xlink:href="#GhLvQcdYo5L2_bottom_soldermask"/></g></mask></defs><g transform="translate(0,27940) scale(1,-1)"><g mask="url(#GhLvQcdYo5L2_bottom_mech-mask)" clip-path="url(#GhLvQcdYo5L2_bottom_outline)" transform="translate(-15240,0) scale(-1,1)"><rect x="-16510" y="-1270" width="17780" height="30480" fill="currentColor" class="GhLvQcdYo5L2_fr4"/><use xlink:href="#GhLvQcdYo5L2_bottom_copper" fill="currentColor" stroke="currentColor" class="GhLvQcdYo5L2_cu"/><use xlink:href="#GhLvQcdYo5L2_bottom_copper" fill="currentColor" stroke="currentColor" class="GhLvQcdYo5L2_cf" mask="url(#GhLvQcdYo5L2_bottom_cf-mask)"/><g mask="url(#GhLvQcdYo5L2_bottom_sm-mask)"><rect x="-16510" y="-1270" width="17780" height="30480" fill="currentColor" class="GhLvQcdYo5L2_sm"/><use xlink:href="#GhLvQcdYo5L2_bottom_silkscreen" fill="currentColor" stroke="currentColor" class="GhLvQcdYo5L2_ss"/></g></g></g></svg>