<svg version="1.1" xmlns="http://www.w3.org/2000/svg" xmlns:xlink="http://www.w3.org/1999/xlink" stroke-linecap="round" stroke-linejoin="round" stroke-width="0" fill-rule="evenodd" clip-rule="evenodd" id="mWlnp7xZyspx_top" viewBox="125730 -105410 17780 30480" width="17.78mm" height="30.48mm"><defs><style>.mWlnp7xZyspx_fr4 {color: #666666;}
.mWlnp7xZyspx_cu {color: #cccccc;}
.mWlnp7xZyspx_cf {color: #cc9933;}
.mWlnp7xZyspx_sm {color: #004200; opacity: 0.75;}
.mWlnp7xZyspx_ss {color: #ffffff;}
.mWlnp7xZyspx_sp {color: #999999;}
.mWlnp7xZyspx_out {color: #000000;}</style><circle cx="0" cy="0" r="100" id="dk-FkVi60Dwb_pad-1"/><circle cx="0" cy="0" r="150" id="dk-FkVi60Dwb_pad-2"/><circle cx="0" cy="0" r="500" id="dk-FkVi60Dwb_pad-3"/><g id="mWlnp7xZyspx_top_drill1"><use xlink:href="#dk-FkVi60Dwb_pad-1" x="129540" y="-85471"/><use xlink:href="#dk-FkVi60Dwb_pad-1" x="130810" y="-90932"/><use xlink:href="#dk-FkVi60Dwb_pad-1" x="132308" y="-98272"/><use xlink:href="#dk-FkVi60Dwb_pad-1" x="132524" y="-96647"/><use xlink:href="#dk-FkVi60Dwb_pad-1" x="133932" y="-89385"/><use xlink:href="#dk-FkVi60Dwb_pad-1" x="134112" y="-97917"/><use xlink:href="#dk-FkVi60Dwb_pad-1" x="134264" y="-90170"/><use xlink:href="#dk-FkVi60Dwb_pad-1" x="135255" y="-90170"/><use xlink:href="#dk-FkVi60Dwb_pad-1" x="135890" y="-85852"/><use xlink:href="#dk-FkVi60Dwb_pad-1" x="136525" y="-90170"/><use xlink:href="#dk-FkVi60Dwb_pad-1" x="137536" y="-90149"/><use xlink:href="#dk-FkVi60Dwb_pad-1" x="140970" y="-94361"/><use xlink:href="#dk-FkVi60Dwb_pad-2" x="128016" y="-100330"/><use xlink:href="#dk-FkVi60Dwb_pad-2" x="128270" y="-85090"/><use xlink:href="#dk-FkVi60Dwb_pad-2" x="128270" y="-87630"/><use xlink:href="#dk-FkVi60Dwb_pad-2" x="128270" y="-90170"/><use xlink:href="#dk-FkVi60Dwb_pad-2" x="128270" y="-92710"/><use xlink:href="#dk-FkVi60Dwb_pad-2" x="128905" y="-81915"/><use xlink:href="#dk-FkVi60Dwb_pad-2" x="128905" y="-101600"/><use xlink:href="#dk-FkVi60Dwb_pad-2" x="129540" y="-77470"/><use xlink:href="#dk-FkVi60Dwb_pad-2" x="129540" y="-80010"/><use xlink:href="#dk-FkVi60Dwb_pad-2" x="129540" y="-104140"/><use xlink:href="#dk-FkVi60Dwb_pad-2" x="130810" y="-88900"/><use xlink:href="#dk-FkVi60Dwb_pad-2" x="130810" y="-93218"/><use xlink:href="#dk-FkVi60Dwb_pad-2" x="130810" y="-101600"/><use xlink:href="#dk-FkVi60Dwb_pad-2" x="131445" y="-82550"/><use xlink:href="#dk-FkVi60Dwb_pad-2" x="132080" y="-88900"/><use xlink:href="#dk-FkVi60Dwb_pad-2" x="132563" y="-83248"/><use xlink:href="#dk-FkVi60Dwb_pad-2" x="132715" y="-100330"/><use xlink:href="#dk-FkVi60Dwb_pad-2" x="132715" y="-101600"/><use xlink:href="#dk-FkVi60Dwb_pad-2" x="132779" y="-91249"/><use xlink:href="#dk-FkVi60Dwb_pad-2" x="133350" y="-79375"/><use xlink:href="#dk-FkVi60Dwb_pad-2" x="133477" y="-84201"/><use xlink:href="#dk-FkVi60Dwb_pad-2" x="133667" y="-81915"/><use xlink:href="#dk-FkVi60Dwb_pad-2" x="134620" y="-84201"/><use xlink:href="#dk-FkVi60Dwb_pad-2" x="134620" y="-92710"/><use xlink:href="#dk-FkVi60Dwb_pad-2" x="134620" y="-95250"/><use xlink:href="#dk-FkVi60Dwb_pad-2" x="134620" y="-100330"/><use xlink:href="#dk-FkVi60Dwb_pad-2" x="134620" y="-101600"/><use xlink:href="#dk-FkVi60Dwb_pad-2" x="135890" y="-79375"/><use xlink:href="#dk-FkVi60Dwb_pad-2" x="135890" y="-84201"/><use xlink:href="#dk-FkVi60Dwb_pad-2" x="136525" y="-100330"/><use xlink:href="#dk-FkVi60Dwb_pad-2" x="136525" y="-101600"/><use xlink:href="#dk-FkVi60Dwb_pad-2" x="137160" y="-92710"/><use xlink:href="#dk-FkVi60Dwb_pad-2" x="137160" y="-95250"/><use xlink:href="#dk-FkVi60Dwb_pad-2" x="138303" y="-100076"/><use xlink:href="#dk-FkVi60Dwb_pad-2" x="138430" y="-101600"/><use xlink:href="#dk-FkVi60Dwb_pad-2" x="138938" y="-85217"/><use xlink:href="#dk-FkVi60Dwb_pad-2" x="139065" y="-97155"/><use xlink:href="#dk-FkVi60Dwb_pad-2" x="139319" y="-77978"/><use xlink:href="#dk-FkVi60Dwb_pad-2" x="139319" y="-79375"/><use xlink:href="#dk-FkVi60Dwb_pad-2" x="139319" y="-80645"/><use xlink:href="#dk-FkVi60Dwb_pad-2" x="139319" y="-81915"/><use xlink:href="#dk-FkVi60Dwb_pad-2" x="139319" y="-83058"/><use xlink:href="#dk-FkVi60Dwb_pad-2" x="139446" y="-100076"/><use xlink:href="#dk-FkVi60Dwb_pad-2" x="139700" y="-104140"/><use xlink:href="#dk-FkVi60Dwb_pad-2" x="140335" y="-95948"/><use xlink:href="#dk-FkVi60Dwb_pad-2" x="140335" y="-100330"/><use xlink:href="#dk-FkVi60Dwb_pad-2" x="140970" y="-102870"/><use xlink:href="#dk-FkVi60Dwb_pad-2" x="141605" y="-95250"/><use xlink:href="#dk-FkVi60Dwb_pad-3" x="127000" y="-76200"/><use xlink:href="#dk-FkVi60Dwb_pad-3" x="127000" y="-78740"/><use xlink:href="#dk-FkVi60Dwb_pad-3" x="127000" y="-81280"/><use xlink:href="#dk-FkVi60Dwb_pad-3" x="127000" y="-83820"/><use xlink:href="#dk-FkVi60Dwb_pad-3" x="127000" y="-86360"/><use xlink:href="#dk-FkVi60Dwb_pad-3" x="127000" y="-88900"/><use xlink:href="#dk-FkVi60Dwb_pad-3" x="127000" y="-91440"/><use xlink:href="#dk-FkVi60Dwb_pad-3" x="127000" y="-93980"/><use xlink:href="#dk-FkVi60Dwb_pad-3" x="127000" y="-96520"/><use xlink:href="#dk-FkVi60Dwb_pad-3" x="127000" y="-99060"/><use xlink:href="#dk-FkVi60Dwb_pad-3" x="127000" y="-101600"/><use xlink:href="#dk-FkVi60Dwb_pad-3" x="127000" y="-104140"/><use xlink:href="#dk-FkVi60Dwb_pad-3" x="142240" y="-76200"/><use xlink:href="#dk-FkVi60Dwb_pad-3" x="142240" y="-78740"/><use xlink:href="#dk-FkVi60Dwb_pad-3" x="142240" y="-81280"/><use xlink:href="#dk-FkVi60Dwb_pad-3" x="142240" y="-83820"/><use xlink:href="#dk-FkVi60Dwb_pad-3" x="142240" y="-86360"/><use xlink:href="#dk-FkVi60Dwb_pad-3" x="142240" y="-88900"/><use xlink:href="#dk-FkVi60Dwb_pad-3" x="142240" y="-91440"/><use xlink:href="#dk-FkVi60Dwb_pad-3" x="142240" y="-93980"/><use xlink:href="#dk-FkVi60Dwb_pad-3" x="142240" y="-96520"/><use xlink:href="#dk-FkVi60Dwb_pad-3" x="142240" y="-99060"/><use xlink:href="#dk-FkVi60Dwb_pad-3" x="142240" y="-101600"/><use xlink:href="#dk-FkVi60Dwb_pad-3" x="142240" y="-104140"/></g><g id="mWlnp7xZyspx_top_drill2"><path d="M 125730 -75565 A 635 635 0 0 0 126365 -74930 M 142875 -74930 A 635 635 0 0 0 143510 -75565 M 126365 -74930 142875 -74930 M 143510 -104775 A 635 635 0 0 0 142875 -105410 M 126365 -105410 A 635 635 0 0 0 125730 -104775 L 125730 -75565 M 142875 -105410 126365 -105410 M 143510 -75565 143510 -104775 M 134320 -77960 134470 -78110 M 133320 -75260 133320 -75660 M 133120 -75660 133320 -75660 M 133120 -77460 133120 -75660 M 133320 -75260 135920 -75260 135920 -75660 M 136120 -75660 135920 -75660 M 136120 -77460 136120 -75660 M 133320 -77460 133320 -77860 M 133120 -77460 133320 -77460 M 134320 -77860 133320 -77860 M 134320 -77960 134320 -77860 M 134920 -78110 134470 -78110 M 134920 -78110 134920 -77860 135920 -77860 M 135920 -77460 135920 -77860 M 136120 -77460 135920 -77460 M 135759 -88400 135759 -89400 M 135259 -88400 135759 -88400 M 135259 -89400 135259 -88400 M 135759 -89400 135259 -89400 M 139188 -86495 139188 -87495 M 138688 -86495 139188 -86495 M 138688 -87495 138688 -86495 M 139188 -87495 138688 -87495 M 131580 -83951 132580 -83951 M 131580 -84451 131580 -83951 M 132580 -84451 131580 -84451 M 132580 -83951 132580 -84451 M 137810 -82165 136810 -82165 M 137810 -81665 137810 -82165 M 136810 -81665 137810 -81665 M 136810 -82165 136810 -81665 M 132465 -87495 132465 -86495 M 132965 -87495 132465 -87495 M 132965 -86495 132965 -87495 M 132465 -86495 132965 -86495 M 132215 -80395 133215 -80395 M 132215 -80895 132215 -80395 M 133215 -80895 132215 -80895 M 133215 -80395 133215 -80895 M 137810 -80895 136810 -80895 M 137810 -80395 137810 -80895 M 136810 -80395 137810 -80395 M 136810 -80895 136810 -80395 M 134605 -81665 135605 -81665 M 134605 -82165 134605 -81665 M 135605 -82165 134605 -82165 M 135605 -81665 135605 -82165 M 131580 -84967 132580 -84967 M 131580 -85467 131580 -84967 M 132580 -85467 131580 -85467 M 132580 -84967 132580 -85467 M 137810 -85467 136810 -85467 M 137810 -84967 137810 -85467 M 136810 -84967 137810 -84967 M 136810 -85467 136810 -84967 M 137810 -83951 137810 -84451 136810 -84451 136810 -83951 137810 -83951 M 131695 -86495 131695 -87495 M 131195 -86495 131695 -86495 M 131195 -87495 131195 -86495 M 131695 -87495 131195 -87495 M 136275 -87495 136275 -86495 M 136775 -87495 136275 -87495 M 136775 -86495 136775 -87495 M 136275 -86495 136775 -86495 M 138045 -88400 138045 -89400 M 137545 -88400 138045 -88400 M 137545 -89400 137545 -88400 M 138045 -89400 137545 -89400 M 133520 -84376 134020 -84876 M 135720 -83526 135720 -84876 M 133520 -83526 135720 -83526 M 134020 -84876 135720 -84876 M 133520 -83526 133520 -84376 M 136810 -82935 137810 -82935 M 136810 -83435 136810 -82935 M 137810 -83435 136810 -83435 M 137810 -82935 137810 -83435 M 134605 -80395 135605 -80395 M 134605 -80895 134605 -80395 M 135605 -80895 134605 -80895 M 135605 -80395 135605 -80895 M 134235 -86495 134235 -87495 M 133735 -86495 134235 -86495 M 133735 -87495 133735 -86495 M 134235 -87495 133735 -87495 M 138045 -86495 138045 -87495 M 137545 -86495 138045 -86495 M 137545 -87495 137545 -86495 M 138045 -87495 137545 -87495 M 135005 -87495 135005 -86495 M 135505 -87495 135005 -87495 M 135505 -86495 135505 -87495 M 135005 -86495 135505 -86495 M 136775 -88400 136775 -89400 M 136275 -88400 136775 -88400 M 136275 -89400 136275 -88400 M 136775 -89400 136275 -89400 M 137795 -78745 137795 -65415 M 136985 -78745 137795 -78745 M 136985 -74935 136985 -78745 M 132255 -74935 136985 -74935 M 132255 -78745 132255 -74935 M 131445 -78745 132255 -78745 M 131445 -78745 131445 -65415 M 131455 -65415 137785 -65415 M 133870 -74935 134620 -73935 135370 -74935 M 139935 -97472.5 140735 -97472.5 140735 -99072.5 139935 -99072.5 139935 -97472.5 M 132890 -91980 133890 -90980 M 132890 -96980 132890 -91980 M 138890 -96980 132890 -96980 M 138890 -90980 138890 -96980 M 133890 -90980 138890 -90980 M 128605 -98909 128605 -95909 128705 -95809 131005 -95809 131105 -95909 131105 -98909 131005 -99009 128705 -99009 128605 -98909 M 130105 -99009 131105 -98009 M 138815 -99075 138815 -98075 M 139315 -99075 138815 -99075 M 139315 -98075 139315 -99075 M 138815 -98075 139315 -98075 M 130310 -89920 131310 -89920 M 130310 -90420 130310 -89920 M 131310 -90420 130310 -90420 M 131310 -89920 131310 -90420 M 130310 -93730 131310 -93730 M 130310 -94230 130310 -93730 M 131310 -94230 130310 -94230 M 131310 -93730 131310 -94230 M 131195 -92575 131195 -91575 M 131695 -92575 131195 -92575 M 131695 -91575 131695 -92575 M 131195 -91575 131695 -91575 M 130425 -91575 130425 -92575 M 129925 -91575 130425 -91575 M 129925 -92575 129925 -91575 M 130425 -92575 129925 -92575 M 138045 -98075 138045 -99075 M 137545 -98075 138045 -98075 M 137545 -99075 137545 -98075 M 138045 -99075 137545 -99075 M 133100 -89400 133100 -88400 M 133600 -89400 133100 -89400 M 133600 -88400 133600 -89400 M 133100 -88400 133600 -88400 M 134743 -88400 134743 -89400 M 134243 -88400 134743 -88400 M 134243 -89400 134243 -88400 M 134743 -89400 134243 -89400 M 129155 -93330 129155 -94330 M 128655 -93330 129155 -93330 M 128655 -94330 128655 -93330 M 129155 -94330 128655 -94330 M 129040 -100080 130040 -100080 M 129040 -100580 129040 -100080 M 130040 -100580 129040 -100580 M 130040 -100080 130040 -100580" fill="none" stroke-width="100"/><path d="M 133334.28 -79144.76 133477.14 -79192.38 133715.24 -79192.38 133810.48 -79144.76 133858.09 -79097.14 133905.71 -79001.9 133905.71 -78906.67 133858.09 -78811.43 133810.48 -78763.81 133715.24 -78716.19 133524.76 -78668.57 133429.52 -78620.95 133381.9 -78573.33 133334.28 -78478.09 133334.28 -78382.86 133381.9 -78287.62 133429.52 -78240 133524.76 -78192.38 133762.86 -78192.38 133905.71 -78240 M 134334.28 -79192.38 134334.28 -78192.38 134667.62 -78906.67 135000.95 -78192.38 135000.95 -79192.38 M 135429.52 -78906.67 135905.71 -78906.67 M 135334.28 -79192.38 135667.62 -78192.38 136000.95 -79192.38" fill="none" stroke-width="150"/><path d="M 134420 -76231.43 134420 -76660 134391.43 -76745.71 134334.28 -76802.86 134248.57 -76831.43 134191.43 -76831.43 M 135020 -76831.43 134677.14 -76831.43 M 134848.57 -76831.43 134848.57 -76231.43 134791.43 -76317.14 134734.28 -76374.28 134677.14 -76402.86" fill="none" stroke-width="90"/><path d="M 135598.28 -89060.71 135610.19 -89072.62 135622.09 -89108.33 135622.09 -89132.14 135610.19 -89167.86 135586.38 -89191.67 135562.57 -89203.57 135514.95 -89215.48 135479.24 -89215.48 135431.62 -89203.57 135407.81 -89191.67 135384 -89167.86 135372.09 -89132.14 135372.09 -89108.33 135384 -89072.62 135395.9 -89060.71 M 135395.9 -88965.48 135384 -88953.57 135372.09 -88929.76 135372.09 -88870.24 135384 -88846.43 135395.9 -88834.52 135419.71 -88822.62 135443.52 -88822.62 135479.24 -88834.52 135622.09 -88977.38 135622.09 -88822.62 M 135372.09 -88596.43 135372.09 -88715.48 135491.14 -88727.38 135479.24 -88715.48 135467.33 -88691.67 135467.33 -88632.14 135479.24 -88608.33 135491.14 -88596.43 135514.95 -88584.52 135574.48 -88584.52 135598.28 -88596.43 135610.19 -88608.33 135622.09 -88632.14 135622.09 -88691.67 135610.19 -88715.48 135598.28 -88727.38 M 139027.28 -87155.71 139039.19 -87167.62 139051.09 -87203.33 139051.09 -87227.14 139039.19 -87262.86 139015.38 -87286.67 138991.57 -87298.57 138943.95 -87310.48 138908.24 -87310.48 138860.62 -87298.57 138836.81 -87286.67 138813 -87262.86 138801.09 -87227.14 138801.09 -87203.33 138813 -87167.62 138824.9 -87155.71 M 138824.9 -87060.48 138813 -87048.57 138801.09 -87024.76 138801.09 -86965.24 138813 -86941.43 138824.9 -86929.52 138848.71 -86917.62 138872.52 -86917.62 138908.24 -86929.52 139051.09 -87072.38 139051.09 -86917.62 M 138884.43 -86703.33 139051.09 -86703.33 M 138789.19 -86762.86 138967.76 -86822.38 138967.76 -86667.62 M 131919.28 -84290.29 131907.38 -84302.19 131871.67 -84314.1 131847.86 -84314.1 131812.14 -84302.19 131788.33 -84278.38 131776.43 -84254.57 131764.52 -84206.95 131764.52 -84171.24 131776.43 -84123.62 131788.33 -84099.81 131812.14 -84076 131847.86 -84064.1 131871.67 -84064.1 131907.38 -84076 131919.28 -84087.9 M 132157.38 -84314.1 132014.52 -84314.1 M 132085.95 -84314.1 132085.95 -84064.1 132062.14 -84099.81 132038.33 -84123.62 132014.52 -84135.52 M 132371.67 -84147.43 132371.67 -84314.1 M 132312.14 -84052.19 132252.62 -84230.76 132407.38 -84230.76 M 137149.28 -82004.28 137137.38 -82016.19 137101.67 -82028.09 137077.86 -82028.09 137042.14 -82016.19 137018.33 -81992.38 137006.43 -81968.57 136994.52 -81920.95 136994.52 -81885.24 137006.43 -81837.62 137018.33 -81813.81 137042.14 -81790 137077.86 -81778.09 137101.67 -81778.09 137137.38 -81790 137149.28 -81801.9 M 137387.38 -82028.09 137244.52 -82028.09 M 137315.95 -82028.09 137315.95 -81778.09 137292.14 -81813.81 137268.33 -81837.62 137244.52 -81849.52 M 137470.71 -81778.09 137625.48 -81778.09 137542.14 -81873.33 137577.86 -81873.33 137601.67 -81885.24 137613.57 -81897.14 137625.48 -81920.95 137625.48 -81980.48 137613.57 -82004.28 137601.67 -82016.19 137577.86 -82028.09 137506.43 -82028.09 137482.62 -82016.19 137470.71 -82004.28 M 132804.28 -87155.71 132816.19 -87167.62 132828.09 -87203.33 132828.09 -87227.14 132816.19 -87262.86 132792.38 -87286.67 132768.57 -87298.57 132720.95 -87310.48 132685.24 -87310.48 132637.62 -87298.57 132613.81 -87286.67 132590 -87262.86 132578.09 -87227.14 132578.09 -87203.33 132590 -87167.62 132601.9 -87155.71 M 132828.09 -86917.62 132828.09 -87060.48 M 132828.09 -86989.05 132578.09 -86989.05 132613.81 -87012.86 132637.62 -87036.67 132649.52 -87060.48 M 132601.9 -86822.38 132590 -86810.48 132578.09 -86786.67 132578.09 -86727.14 132590 -86703.33 132601.9 -86691.43 132625.71 -86679.52 132649.52 -86679.52 132685.24 -86691.43 132828.09 -86834.29 132828.09 -86679.52 M 132554.28 -80734.28 132542.38 -80746.19 132506.67 -80758.09 132482.86 -80758.09 132447.14 -80746.19 132423.33 -80722.38 132411.43 -80698.57 132399.52 -80650.95 132399.52 -80615.24 132411.43 -80567.62 132423.33 -80543.81 132447.14 -80520 132482.86 -80508.09 132506.67 -80508.09 132542.38 -80520 132554.28 -80531.9 M 132792.38 -80758.09 132649.52 -80758.09 M 132720.95 -80758.09 132720.95 -80508.09 132697.14 -80543.81 132673.33 -80567.62 132649.52 -80579.52 M 133030.48 -80758.09 132887.62 -80758.09 M 132959.05 -80758.09 132959.05 -80508.09 132935.24 -80543.81 132911.43 -80567.62 132887.62 -80579.52 M 137149.28 -80734.28 137137.38 -80746.19 137101.67 -80758.09 137077.86 -80758.09 137042.14 -80746.19 137018.33 -80722.38 137006.43 -80698.57 136994.52 -80650.95 136994.52 -80615.24 137006.43 -80567.62 137018.33 -80543.81 137042.14 -80520 137077.86 -80508.09 137101.67 -80508.09 137137.38 -80520 137149.28 -80531.9 M 137387.38 -80758.09 137244.52 -80758.09 M 137315.95 -80758.09 137315.95 -80508.09 137292.14 -80543.81 137268.33 -80567.62 137244.52 -80579.52 M 137542.14 -80508.09 137565.95 -80508.09 137589.76 -80520 137601.67 -80531.9 137613.57 -80555.71 137625.48 -80603.33 137625.48 -80662.86 137613.57 -80710.48 137601.67 -80734.28 137589.76 -80746.19 137565.95 -80758.09 137542.14 -80758.09 137518.33 -80746.19 137506.43 -80734.28 137494.52 -80710.48 137482.62 -80662.86 137482.62 -80603.33 137494.52 -80555.71 137506.43 -80531.9 137518.33 -80520 137542.14 -80508.09 M 135063.33 -82004.28 135051.43 -82016.19 135015.71 -82028.09 134991.9 -82028.09 134956.19 -82016.19 134932.38 -81992.38 134920.48 -81968.57 134908.57 -81920.95 134908.57 -81885.24 134920.48 -81837.62 134932.38 -81813.81 134956.19 -81790 134991.9 -81778.09 135015.71 -81778.09 135051.43 -81790 135063.33 -81801.9 M 135182.38 -82028.09 135230 -82028.09 135253.81 -82016.19 135265.71 -82004.28 135289.52 -81968.57 135301.43 -81920.95 135301.43 -81825.71 135289.52 -81801.9 135277.62 -81790 135253.81 -81778.09 135206.19 -81778.09 135182.38 -81790 135170.48 -81801.9 135158.57 -81825.71 135158.57 -81885.24 135170.48 -81909.05 135182.38 -81920.95 135206.19 -81932.86 135253.81 -81932.86 135277.62 -81920.95 135289.52 -81909.05 135301.43 -81885.24 M 132038.33 -85306.29 132026.43 -85318.19 131990.71 -85330.1 131966.9 -85330.1 131931.19 -85318.19 131907.38 -85294.38 131895.48 -85270.57 131883.57 -85222.95 131883.57 -85187.24 131895.48 -85139.62 131907.38 -85115.81 131931.19 -85092 131966.9 -85080.1 131990.71 -85080.1 132026.43 -85092 132038.33 -85103.9 M 132181.19 -85187.24 132157.38 -85175.33 132145.48 -85163.43 132133.57 -85139.62 132133.57 -85127.71 132145.48 -85103.9 132157.38 -85092 132181.19 -85080.1 132228.81 -85080.1 132252.62 -85092 132264.52 -85103.9 132276.43 -85127.71 132276.43 -85139.62 132264.52 -85163.43 132252.62 -85175.33 132228.81 -85187.24 132181.19 -85187.24 132157.38 -85199.14 132145.48 -85211.05 132133.57 -85234.86 132133.57 -85282.48 132145.48 -85306.29 132157.38 -85318.19 132181.19 -85330.1 132228.81 -85330.1 132252.62 -85318.19 132264.52 -85306.29 132276.43 -85282.48 132276.43 -85234.86 132264.52 -85211.05 132252.62 -85199.14 132228.81 -85187.24 M 137268.33 -85306.29 137256.43 -85318.19 137220.71 -85330.1 137196.9 -85330.1 137161.19 -85318.19 137137.38 -85294.38 137125.48 -85270.57 137113.57 -85222.95 137113.57 -85187.24 137125.48 -85139.62 137137.38 -85115.81 137161.19 -85092 137196.9 -85080.1 137220.71 -85080.1 137256.43 -85092 137268.33 -85103.9 M 137351.67 -85080.1 137518.33 -85080.1 137411.19 -85330.1 M 137268.33 -84290.29 137256.43 -84302.19 137220.71 -84314.1 137196.9 -84314.1 137161.19 -84302.19 137137.38 -84278.38 137125.48 -84254.57 137113.57 -84206.95 137113.57 -84171.24 137125.48 -84123.62 137137.38 -84099.81 137161.19 -84076 137196.9 -84064.1 137220.71 -84064.1 137256.43 -84076 137268.33 -84087.9 M 137482.62 -84064.1 137435 -84064.1 137411.19 -84076 137399.28 -84087.9 137375.48 -84123.62 137363.57 -84171.24 137363.57 -84266.48 137375.48 -84290.29 137387.38 -84302.19 137411.19 -84314.1 137458.81 -84314.1 137482.62 -84302.19 137494.52 -84290.29 137506.43 -84266.48 137506.43 -84206.95 137494.52 -84183.14 137482.62 -84171.24 137458.81 -84159.33 137411.19 -84159.33 137387.38 -84171.24 137375.48 -84183.14 137363.57 -84206.95 M 131534.28 -87036.67 131546.19 -87048.57 131558.09 -87084.29 131558.09 -87108.1 131546.19 -87143.81 131522.38 -87167.62 131498.57 -87179.52 131450.95 -87191.43 131415.24 -87191.43 131367.62 -87179.52 131343.81 -87167.62 131320 -87143.81 131308.09 -87108.1 131308.09 -87084.29 131320 -87048.57 131331.9 -87036.67 M 131308.09 -86810.48 131308.09 -86929.52 131427.14 -86941.43 131415.24 -86929.52 131403.33 -86905.71 131403.33 -86846.19 131415.24 -86822.38 131427.14 -86810.48 131450.95 -86798.57 131510.48 -86798.57 131534.28 -86810.48 131546.19 -86822.38 131558.09 -86846.19 131558.09 -86905.71 131546.19 -86929.52 131534.28 -86941.43 M 136614.28 -87036.67 136626.19 -87048.57 136638.09 -87084.29 136638.09 -87108.1 136626.19 -87143.81 136602.38 -87167.62 136578.57 -87179.52 136530.95 -87191.43 136495.24 -87191.43 136447.62 -87179.52 136423.81 -87167.62 136400 -87143.81 136388.09 -87108.1 136388.09 -87084.29 136400 -87048.57 136411.9 -87036.67 M 136388.09 -86953.33 136388.09 -86798.57 136483.33 -86881.9 136483.33 -86846.19 136495.24 -86822.38 136507.14 -86810.48 136530.95 -86798.57 136590.48 -86798.57 136614.28 -86810.48 136626.19 -86822.38 136638.09 -86846.19 136638.09 -86917.62 136626.19 -86941.43 136614.28 -86953.33 M 137884.28 -88941.67 137896.19 -88953.57 137908.09 -88989.29 137908.09 -89013.1 137896.19 -89048.81 137872.38 -89072.62 137848.57 -89084.52 137800.95 -89096.43 137765.24 -89096.43 137717.62 -89084.52 137693.81 -89072.62 137670 -89048.81 137658.09 -89013.1 137658.09 -88989.29 137670 -88953.57 137681.9 -88941.67 M 137681.9 -88846.43 137670 -88834.52 137658.09 -88810.71 137658.09 -88751.19 137670 -88727.38 137681.9 -88715.48 137705.71 -88703.57 137729.52 -88703.57 137765.24 -88715.48 137908.09 -88858.33 137908.09 -88703.57" fill="none" stroke-width="40"/><path d="M 134239.05 -83927.19 134239.05 -84331.95 134262.86 -84379.57 134286.67 -84403.38 134334.28 -84427.19 134429.52 -84427.19 134477.14 -84403.38 134500.95 -84379.57 134524.76 -84331.95 134524.76 -83927.19 M 134739.05 -83974.81 134762.86 -83951 134810.48 -83927.19 134929.52 -83927.19 134977.14 -83951 135000.95 -83974.81 135024.76 -84022.43 135024.76 -84070.05 135000.95 -84141.48 134715.24 -84427.19 135024.76 -84427.19" fill="none" stroke-width="75"/><path d="M 137268.33 -83298.09 137185 -83179.05 M 137125.48 -83298.09 137125.48 -83048.09 137220.71 -83048.09 137244.52 -83060 137256.43 -83071.9 137268.33 -83095.71 137268.33 -83131.43 137256.43 -83155.24 137244.52 -83167.14 137220.71 -83179.05 137125.48 -83179.05 M 137506.43 -83298.09 137363.57 -83298.09 M 137435 -83298.09 137435 -83048.09 137411.19 -83083.81 137387.38 -83107.62 137363.57 -83119.52 M 135063.33 -80758.09 134944.28 -80758.09 134944.28 -80508.09 M 135265.71 -80508.09 135146.67 -80508.09 135134.76 -80627.14 135146.67 -80615.24 135170.48 -80603.33 135230 -80603.33 135253.81 -80615.24 135265.71 -80627.14 135277.62 -80650.95 135277.62 -80710.48 135265.71 -80734.28 135253.81 -80746.19 135230 -80758.09 135170.48 -80758.09 135146.67 -80746.19 135134.76 -80734.28 M 134098.09 -87036.67 134098.09 -87155.71 133848.09 -87155.71 M 133931.43 -86846.19 134098.09 -86846.19 M 133836.19 -86905.71 134014.76 -86965.24 134014.76 -86810.48 M 137908.09 -87036.67 137908.09 -87155.71 137658.09 -87155.71 M 137658.09 -86977.14 137658.09 -86822.38 137753.33 -86905.71 137753.33 -86870 137765.24 -86846.19 137777.14 -86834.29 137800.95 -86822.38 137860.48 -86822.38 137884.28 -86834.29 137896.19 -86846.19 137908.09 -86870 137908.09 -86941.43 137896.19 -86965.24 137884.28 -86977.14 M 135368.09 -87036.67 135368.09 -87155.71 135118.09 -87155.71 M 135141.9 -86965.24 135130 -86953.33 135118.09 -86929.52 135118.09 -86870 135130 -86846.19 135141.9 -86834.29 135165.71 -86822.38 135189.52 -86822.38 135225.24 -86834.29 135368.09 -86977.14 135368.09 -86822.38 M 136638.09 -88941.67 136638.09 -89060.71 136388.09 -89060.71 M 136638.09 -88727.38 136638.09 -88870.24 M 136638.09 -88798.81 136388.09 -88798.81 136423.81 -88822.62 136447.62 -88846.43 136459.52 -88870.24" fill="none" stroke-width="40"/><path d="M 131167.14 -78589.05 131214.76 -78636.67 131262.38 -78779.52 131262.38 -78874.76 131214.76 -79017.62 131119.52 -79112.86 131024.28 -79160.48 130833.81 -79208.09 130690.95 -79208.09 130500.48 -79160.48 130405.24 -79112.86 130310 -79017.62 130262.38 -78874.76 130262.38 -78779.52 130310 -78636.67 130357.62 -78589.05 M 130262.38 -77970 130262.38 -77779.52 130310 -77684.28 130405.24 -77589.05 130595.71 -77541.43 130929.05 -77541.43 131119.52 -77589.05 131214.76 -77684.28 131262.38 -77779.52 131262.38 -77970 131214.76 -78065.24 131119.52 -78160.48 130929.05 -78208.09 130595.71 -78208.09 130405.24 -78160.48 130310 -78065.24 130262.38 -77970 M 130976.67 -77160.48 130976.67 -76684.28 M 131262.38 -77255.71 130262.38 -76922.38 131262.38 -76589.05 M 130262.38 -76350.95 131262.38 -75684.28 M 130262.38 -75684.28 131262.38 -76350.95 M 137247.38 -102861.9 137247.38 -102290.48 M 138247.38 -102576.19 137247.38 -102576.19 M 138247.38 -101957.14 137247.38 -101957.14 137247.38 -101576.19 137295 -101480.95 137342.62 -101433.33 137437.86 -101385.71 137580.71 -101385.71 137675.95 -101433.33 137723.57 -101480.95 137771.19 -101576.19 137771.19 -101957.14 M 137580.71 -100528.57 138247.38 -100528.57 M 137199.76 -100766.67 137914.05 -101004.76 137914.05 -100385.71 M 135342.38 -102861.9 135342.38 -102290.48 M 136342.38 -102576.19 135342.38 -102576.19 M 136342.38 -101957.14 135342.38 -101957.14 135342.38 -101576.19 135390 -101480.95 135437.62 -101433.33 135532.86 -101385.71 135675.71 -101385.71 135770.95 -101433.33 135818.57 -101480.95 135866.19 -101576.19 135866.19 -101957.14 M 135342.38 -101052.38 135342.38 -100433.33 135723.33 -100766.67 135723.33 -100623.81 135770.95 -100528.57 135818.57 -100480.95 135913.81 -100433.33 136151.9 -100433.33 136247.14 -100480.95 136294.76 -100528.57 136342.38 -100623.81 136342.38 -100909.52 136294.76 -101004.76 136247.14 -101052.38 M 133437.38 -102861.9 133437.38 -102290.48 M 134437.38 -102576.19 133437.38 -102576.19 M 134437.38 -101957.14 133437.38 -101957.14 133437.38 -101576.19 133485 -101480.95 133532.62 -101433.33 133627.86 -101385.71 133770.71 -101385.71 133865.95 -101433.33 133913.57 -101480.95 133961.19 -101576.19 133961.19 -101957.14 M 133532.62 -101004.76 133485 -100957.14 133437.38 -100861.9 133437.38 -100623.81 133485 -100528.57 133532.62 -100480.95 133627.86 -100433.33 133723.09 -100433.33 133865.95 -100480.95 134437.38 -101052.38 134437.38 -100433.33" fill="none" stroke-width="150"/><path d="M 140477.86 -98529.64 140496.9 -98548.69 140515.95 -98605.83 140515.95 -98643.93 140496.9 -98701.07 140458.81 -98739.17 140420.71 -98758.21 140344.52 -98777.26 140287.38 -98777.26 140211.19 -98758.21 140173.09 -98739.17 140135 -98701.07 140115.95 -98643.93 140115.95 -98605.83 140135 -98548.69 140154.05 -98529.64 M 140154.05 -98377.26 140135 -98358.21 140115.95 -98320.12 140115.95 -98224.88 140135 -98186.79 140154.05 -98167.74 140192.14 -98148.69 140230.24 -98148.69 140287.38 -98167.74 140515.95 -98396.31 140515.95 -98148.69 M 140115.95 -98015.36 140115.95 -97767.74 140268.33 -97901.07 140268.33 -97843.93 140287.38 -97805.83 140306.43 -97786.79 140344.52 -97767.74 140439.76 -97767.74 140477.86 -97786.79 140496.9 -97805.83 140515.95 -97843.93 140515.95 -97958.21 140496.9 -97996.31 140477.86 -98015.36" fill="none" stroke-width="60"/><path d="M 133223.33 -95654.76 133366.19 -95702.38 133604.28 -95702.38 133699.52 -95654.76 133747.14 -95607.14 133794.76 -95511.9 133794.76 -95416.67 133747.14 -95321.43 133699.52 -95273.81 133604.28 -95226.19 133413.81 -95178.57 133318.57 -95130.95 133270.95 -95083.33 133223.33 -94988.1 133223.33 -94892.86 133270.95 -94797.62 133318.57 -94750 133413.81 -94702.38 133651.9 -94702.38 133794.76 -94750 M 134128.09 -94702.38 134794.76 -95702.38 M 134794.76 -94702.38 134128.09 -95702.38 M 135699.52 -95702.38 135128.09 -95702.38 M 135413.81 -95702.38 135413.81 -94702.38 135318.57 -94845.24 135223.33 -94940.48 135128.09 -94988.1 M 136080.48 -94797.62 136128.09 -94750 136223.33 -94702.38 136461.43 -94702.38 136556.67 -94750 136604.28 -94797.62 136651.9 -94892.86 136651.9 -94988.1 136604.28 -95130.95 136032.86 -95702.38 136651.9 -95702.38 M 136985.24 -94702.38 137651.9 -94702.38 137223.33 -95702.38 M 138461.43 -94702.38 138270.95 -94702.38 138175.71 -94750 138128.09 -94797.62 138032.86 -94940.48 137985.24 -95130.95 137985.24 -95511.9 138032.86 -95607.14 138080.48 -95654.76 138175.71 -95702.38 138366.19 -95702.38 138461.43 -95654.76 138509.05 -95607.14 138556.67 -95511.9 138556.67 -95273.81 138509.05 -95178.57 138461.43 -95130.95 138366.19 -95083.33 138175.71 -95083.33 138080.48 -95130.95 138032.86 -95178.57 137985.24 -95273.81 M 135128.09 -93432.38 135128.09 -94241.9 135175.71 -94337.14 135223.33 -94384.76 135318.57 -94432.38 135509.05 -94432.38 135604.28 -94384.76 135651.9 -94337.14 135699.52 -94241.9 135699.52 -93432.38 M 136699.52 -94432.38 136128.09 -94432.38 M 136413.81 -94432.38 136413.81 -93432.38 136318.57 -93575.24 136223.33 -93670.48 136128.09 -93718.1" fill="none" stroke-width="150"/><path d="M 129838.33 -97742.33 130171.67 -97742.33 M 129471.67 -97975.67 129838.33 -97742.33 129471.67 -97509 M 130171.67 -96909 130171.67 -97309 M 130171.67 -97109 129471.67 -97109 129571.67 -97175.67 129638.33 -97242.33 129671.67 -97309" fill="none" stroke-width="105"/><path d="M 139154.28 -98735.71 139166.19 -98747.62 139178.09 -98783.33 139178.09 -98807.14 139166.19 -98842.86 139142.38 -98866.67 139118.57 -98878.57 139070.95 -98890.48 139035.24 -98890.48 138987.62 -98878.57 138963.81 -98866.67 138940 -98842.86 138928.09 -98807.14 138928.09 -98783.33 138940 -98747.62 138951.9 -98735.71 M 138951.9 -98640.48 138940 -98628.57 138928.09 -98604.76 138928.09 -98545.24 138940 -98521.43 138951.9 -98509.52 138975.71 -98497.62 138999.52 -98497.62 139035.24 -98509.52 139178.09 -98652.38 139178.09 -98497.62 M 138951.9 -98402.38 138940 -98390.48 138928.09 -98366.67 138928.09 -98307.14 138940 -98283.33 138951.9 -98271.43 138975.71 -98259.52 138999.52 -98259.52 139035.24 -98271.43 139178.09 -98414.29 139178.09 -98259.52 M 130649.28 -90259.29 130637.38 -90271.19 130601.67 -90283.1 130577.86 -90283.1 130542.14 -90271.19 130518.33 -90247.38 130506.43 -90223.57 130494.52 -90175.95 130494.52 -90140.24 130506.43 -90092.62 130518.33 -90068.81 130542.14 -90045 130577.86 -90033.1 130601.67 -90033.1 130637.38 -90045 130649.28 -90056.9 M 130744.52 -90056.9 130756.43 -90045 130780.24 -90033.1 130839.76 -90033.1 130863.57 -90045 130875.48 -90056.9 130887.38 -90080.71 130887.38 -90104.52 130875.48 -90140.24 130732.62 -90283.1 130887.38 -90283.1 M 131125.48 -90283.1 130982.62 -90283.1 M 131054.05 -90283.1 131054.05 -90033.1 131030.24 -90068.81 131006.43 -90092.62 130982.62 -90104.52 M 130649.28 -94069.29 130637.38 -94081.19 130601.67 -94093.1 130577.86 -94093.1 130542.14 -94081.19 130518.33 -94057.38 130506.43 -94033.57 130494.52 -93985.95 130494.52 -93950.24 130506.43 -93902.62 130518.33 -93878.81 130542.14 -93855 130577.86 -93843.1 130601.67 -93843.1 130637.38 -93855 130649.28 -93866.9 M 130744.52 -93866.9 130756.43 -93855 130780.24 -93843.1 130839.76 -93843.1 130863.57 -93855 130875.48 -93866.9 130887.38 -93890.71 130887.38 -93914.52 130875.48 -93950.24 130732.62 -94093.1 130887.38 -94093.1 M 131042.14 -93843.1 131065.95 -93843.1 131089.76 -93855 131101.67 -93866.9 131113.57 -93890.71 131125.48 -93938.33 131125.48 -93997.86 131113.57 -94045.48 131101.67 -94069.29 131089.76 -94081.19 131065.95 -94093.1 131042.14 -94093.1 131018.33 -94081.19 131006.43 -94069.29 130994.52 -94045.48 130982.62 -93997.86 130982.62 -93938.33 130994.52 -93890.71 131006.43 -93866.9 131018.33 -93855 131042.14 -93843.1 M 131534.28 -92235.71 131546.19 -92247.62 131558.09 -92283.33 131558.09 -92307.14 131546.19 -92342.86 131522.38 -92366.67 131498.57 -92378.57 131450.95 -92390.48 131415.24 -92390.48 131367.62 -92378.57 131343.81 -92366.67 131320 -92342.86 131308.09 -92307.14 131308.09 -92283.33 131320 -92247.62 131331.9 -92235.71 M 131558.09 -91997.62 131558.09 -92140.48 M 131558.09 -92069.05 131308.09 -92069.05 131343.81 -92092.86 131367.62 -92116.67 131379.52 -92140.48 M 131558.09 -91878.57 131558.09 -91830.95 131546.19 -91807.14 131534.28 -91795.24 131498.57 -91771.43 131450.95 -91759.52 131355.71 -91759.52 131331.9 -91771.43 131320 -91783.33 131308.09 -91807.14 131308.09 -91854.76 131320 -91878.57 131331.9 -91890.48 131355.71 -91902.38 131415.24 -91902.38 131439.05 -91890.48 131450.95 -91878.57 131462.86 -91854.76 131462.86 -91807.14 131450.95 -91783.33 131439.05 -91771.43 131415.24 -91759.52 M 130264.28 -92235.71 130276.19 -92247.62 130288.09 -92283.33 130288.09 -92307.14 130276.19 -92342.86 130252.38 -92366.67 130228.57 -92378.57 130180.95 -92390.48 130145.24 -92390.48 130097.62 -92378.57 130073.81 -92366.67 130050 -92342.86 130038.09 -92307.14 130038.09 -92283.33 130050 -92247.62 130061.9 -92235.71 M 130288.09 -91997.62 130288.09 -92140.48 M 130288.09 -92069.05 130038.09 -92069.05 130073.81 -92092.86 130097.62 -92116.67 130109.52 -92140.48 M 130145.24 -91854.76 130133.33 -91878.57 130121.43 -91890.48 130097.62 -91902.38 130085.71 -91902.38 130061.9 -91890.48 130050 -91878.57 130038.09 -91854.76 130038.09 -91807.14 130050 -91783.33 130061.9 -91771.43 130085.71 -91759.52 130097.62 -91759.52 130121.43 -91771.43 130133.33 -91783.33 130145.24 -91807.14 130145.24 -91854.76 130157.14 -91878.57 130169.05 -91890.48 130192.86 -91902.38 130240.48 -91902.38 130264.28 -91890.48 130276.19 -91878.57 130288.09 -91854.76 130288.09 -91807.14 130276.19 -91783.33 130264.28 -91771.43 130240.48 -91759.52 130192.86 -91759.52 130169.05 -91771.43 130157.14 -91783.33 130145.24 -91807.14 M 137884.28 -98735.71 137896.19 -98747.62 137908.09 -98783.33 137908.09 -98807.14 137896.19 -98842.86 137872.38 -98866.67 137848.57 -98878.57 137800.95 -98890.48 137765.24 -98890.48 137717.62 -98878.57 137693.81 -98866.67 137670 -98842.86 137658.09 -98807.14 137658.09 -98783.33 137670 -98747.62 137681.9 -98735.71 M 137908.09 -98497.62 137908.09 -98640.48 M 137908.09 -98569.05 137658.09 -98569.05 137693.81 -98592.86 137717.62 -98616.67 137729.52 -98640.48 M 137658.09 -98414.29 137658.09 -98247.62 137908.09 -98354.76 M 133439.28 -89060.71 133451.19 -89072.62 133463.09 -89108.33 133463.09 -89132.14 133451.19 -89167.86 133427.38 -89191.67 133403.57 -89203.57 133355.95 -89215.48 133320.24 -89215.48 133272.62 -89203.57 133248.81 -89191.67 133225 -89167.86 133213.09 -89132.14 133213.09 -89108.33 133225 -89072.62 133236.9 -89060.71 M 133463.09 -88822.62 133463.09 -88965.48 M 133463.09 -88894.05 133213.09 -88894.05 133248.81 -88917.86 133272.62 -88941.67 133284.52 -88965.48 M 133213.09 -88608.33 133213.09 -88655.95 133225 -88679.76 133236.9 -88691.67 133272.62 -88715.48 133320.24 -88727.38 133415.48 -88727.38 133439.28 -88715.48 133451.19 -88703.57 133463.09 -88679.76 133463.09 -88632.14 133451.19 -88608.33 133439.28 -88596.43 133415.48 -88584.52 133355.95 -88584.52 133332.14 -88596.43 133320.24 -88608.33 133308.33 -88632.14 133308.33 -88679.76 133320.24 -88703.57 133332.14 -88715.48 133355.95 -88727.38 M 134582.28 -89060.71 134594.19 -89072.62 134606.09 -89108.33 134606.09 -89132.14 134594.19 -89167.86 134570.38 -89191.67 134546.57 -89203.57 134498.95 -89215.48 134463.24 -89215.48 134415.62 -89203.57 134391.81 -89191.67 134368 -89167.86 134356.09 -89132.14 134356.09 -89108.33 134368 -89072.62 134379.9 -89060.71 M 134606.09 -88822.62 134606.09 -88965.48 M 134606.09 -88894.05 134356.09 -88894.05 134391.81 -88917.86 134415.62 -88941.67 134427.52 -88965.48 M 134356.09 -88596.43 134356.09 -88715.48 134475.14 -88727.38 134463.24 -88715.48 134451.33 -88691.67 134451.33 -88632.14 134463.24 -88608.33 134475.14 -88596.43 134498.95 -88584.52 134558.48 -88584.52 134582.28 -88596.43 134594.19 -88608.33 134606.09 -88632.14 134606.09 -88691.67 134594.19 -88715.48 134582.28 -88727.38 M 128994.28 -93871.67 129006.19 -93883.57 129018.09 -93919.29 129018.09 -93943.1 129006.19 -93978.81 128982.38 -94002.62 128958.57 -94014.52 128910.95 -94026.43 128875.24 -94026.43 128827.62 -94014.52 128803.81 -94002.62 128780 -93978.81 128768.09 -93943.1 128768.09 -93919.29 128780 -93883.57 128791.9 -93871.67 M 128851.43 -93657.38 129018.09 -93657.38 M 128756.19 -93716.9 128934.76 -93776.43 128934.76 -93621.67 M 129498.33 -100419.29 129486.43 -100431.19 129450.71 -100443.1 129426.9 -100443.1 129391.19 -100431.19 129367.38 -100407.38 129355.48 -100383.57 129343.57 -100335.95 129343.57 -100300.24 129355.48 -100252.62 129367.38 -100228.81 129391.19 -100205 129426.9 -100193.1 129450.71 -100193.1 129486.43 -100205 129498.33 -100216.9 M 129736.43 -100443.1 129593.57 -100443.1 M 129665 -100443.1 129665 -100193.1 129641.19 -100228.81 129617.38 -100252.62 129593.57 -100264.52" fill="none" stroke-width="40"/></g><clipPath id="mWlnp7xZyspx_top_outline"><path d="M 125730 -75565 A 635 635 0 0 0 126365 -74930 L 142875 -74930 A 635 635 0 0 0 143510 -75565 L 143510 -104775 A 635 635 0 0 0 142875 -105410 L 126365 -105410 A 635 635 0 0 0 125730 -104775 L 125730 -75565" fill="none" stroke-width="100"/></clipPath><mask id="mWlnp7xZyspx_top_mech-mask"><g fill="#000" stroke="#000"><rect x="125730" y="-105410" width="17780" height="30480" fill="#fff"/><use xlink:href="#mWlnp7xZyspx_top_drill1"/><use xlink:href="#mWlnp7xZyspx_top_drill2"/></g></mask></defs><g transform="translate(0,-180340) scale(1,-1)"><g mask="url(#mWlnp7xZyspx_top_mech-mask)" clip-path="url(#mWlnp7xZyspx_top_outline)"><rect x="125730" y="-105410" width="17780" height="30480" fill="currentColor" class="mWlnp7xZyspx_fr4"/></g></g></svg>