<svg version="1.1" xmlns="http://www.w3.org/2000/svg" xmlns:xlink="http://www.w3.org/1999/xlink" stroke-linecap="round" stroke-linejoin="round" stroke-width="0" fill-rule="evenodd" clip-rule="evenodd" id="qn_SArfkILGD_bottom" viewBox="-1270 -1270 17780 30480" width="17.78mm" height="30.48mm"><defs><style>.qn_SArfkILGD_fr4 {color: #666666;}
.qn_SArfkILGD_cu {color: #cccccc;}
.qn_SArfkILGD_cf {color: #cc9933;}
.qn_SArfkILGD_sm {color: #004200; opacity: 0.75;}
.qn_SArfkILGD_ss {color: #ffffff;}
.qn_SArfkILGD_sp {color: #999999;}
.qn_SArfkILGD_out {color: #000000;}</style><rect x="-800" y="-800" width="1600" height="1600" rx="800" ry="800" id="NJLi6G6jivUW_pad-11"/><rect x="-800" y="-800" width="1600" height="1600" id="NJLi6G6jivUW_pad-12"/><rect x="-675" y="-2100" width="1350" height="4200" id="NJLi6G6jivUW_pad-13"/><rect x="-800" y="-800" width="1600" height="1600" rx="800" ry="800" id="PonjdxNzCG6C_pad-14"/><rect x="-800" y="-800" width="1600" height="1600" id="PonjdxNzCG6C_pad-15"/><rect x="-675" y="-2100" width="1350" height="4200" id="PonjdxNzCG6C_pad-16"/><mask id="PonjdxNzCG6C_clear-1" fill="#000" stroke="#000"><g><rect x="-1460" y="-1330" width="18160" height="30600" fill="#fff"/><use xlink:href="#PonjdxNzCG6C_pad-14" x="15240" y="0"/><use xlink:href="#PonjdxNzCG6C_pad-14" x="15240" y="2540"/><use xlink:href="#PonjdxNzCG6C_pad-14" x="15240" y="5080"/><use xlink:href="#PonjdxNzCG6C_pad-14" x="0" y="27940"/><use xlink:href="#PonjdxNzCG6C_pad-14" x="15240" y="7620"/><use xlink:href="#PonjdxNzCG6C_pad-14" x="0" y="25400"/><use xlink:href="#PonjdxNzCG6C_pad-14" x="15240" y="10160"/><use xlink:href="#PonjdxNzCG6C_pad-14" x="0" y="22860"/><use xlink:href="#PonjdxNzCG6C_pad-14" x="15240" y="12700"/><use xlink:href="#PonjdxNzCG6C_pad-14" x="0" y="20320"/><use xlink:href="#PonjdxNzCG6C_pad-14" x="15240" y="15240"/><use xlink:href="#PonjdxNzCG6C_pad-14" x="0" y="17780"/><use xlink:href="#PonjdxNzCG6C_pad-14" x="15240" y="17780"/><use xlink:href="#PonjdxNzCG6C_pad-14" x="0" y="15240"/><use xlink:href="#PonjdxNzCG6C_pad-14" x="15240" y="20320"/><use xlink:href="#PonjdxNzCG6C_pad-14" x="0" y="12700"/><use xlink:href="#PonjdxNzCG6C_pad-14" x="15240" y="22860"/><use xlink:href="#PonjdxNzCG6C_pad-14" x="0" y="10160"/><use xlink:href="#PonjdxNzCG6C_pad-14" x="15240" y="25400"/><use xlink:href="#PonjdxNzCG6C_pad-14" x="0" y="7620"/><use xlink:href="#PonjdxNzCG6C_pad-14" x="15240" y="27940"/><use xlink:href="#PonjdxNzCG6C_pad-14" x="0" y="5080"/><use xlink:href="#PonjdxNzCG6C_pad-14" x="0" y="2540"/><use xlink:href="#PonjdxNzCG6C_pad-15" x="0" y="0"/><use xlink:href="#PonjdxNzCG6C_pad-16" x="4795" y="27105"/><use xlink:href="#PonjdxNzCG6C_pad-16" x="10445" y="27105"/></g></mask><rect x="-800" y="-800" width="1600" height="1600" rx="800" ry="800" id="RRGzqLDOxBlO_pad-11"/><rect x="-800" y="-800" width="1600" height="1600" id="RRGzqLDOxBlO_pad-12"/><rect x="-675" y="-2100" width="1350" height="4200" id="RRGzqLDOxBlO_pad-13"/><circle cx="0" cy="0" r="300" id="RRGzqLDOxBlO_pad-14"/><circle cx="0" cy="0" r="250" id="RRGzqLDOxBlO_pad-15"/><circle cx="0" cy="0" r="225" id="RRGzqLDOxBlO_pad-16"/><circle cx="0" cy="0" r="100" id="uSLHXS0M34Nd_pad-1"/><circle cx="0" cy="0" r="150" id="uSLHXS0M34Nd_pad-2"/><circle cx="0" cy="0" r="500" id="uSLHXS0M34Nd_pad-3"/><g id="qn_SArfkILGD_bottom_soldermask"><path d="M -1270 28575 -1270 -635 M 16510 28575 16510 -635 M -1270 28575 A 635 635 0 0 0 -635 29210 M 15875 29210 A 635 635 0 0 0 16510 28575 M -635 29210 15875 29210 M 16510 -635 A 635 635 0 0 0 15875 -1270 M -635 -1270 A 635 635 0 0 0 -1270 -635 M 15875 -1270 -635 -1270" fill="none" stroke-width="100"/><use xlink:href="#NJLi6G6jivUW_pad-11" x="15240" y="0"/><use xlink:href="#NJLi6G6jivUW_pad-11" x="15240" y="2540"/><use xlink:href="#NJLi6G6jivUW_pad-11" x="15240" y="5080"/><use xlink:href="#NJLi6G6jivUW_pad-11" x="0" y="27940"/><use xlink:href="#NJLi6G6jivUW_pad-11" x="15240" y="7620"/><use xlink:href="#NJLi6G6jivUW_pad-11" x="0" y="25400"/><use xlink:href="#NJLi6G6jivUW_pad-11" x="15240" y="10160"/><use xlink:href="#NJLi6G6jivUW_pad-11" x="0" y="22860"/><use xlink:href="#NJLi6G6jivUW_pad-11" x="15240" y="12700"/><use xlink:href="#NJLi6G6jivUW_pad-11" x="0" y="20320"/><use xlink:href="#NJLi6G6jivUW_pad-11" x="15240" y="15240"/><use xlink:href="#NJLi6G6jivUW_pad-11" x="0" y="17780"/><use xlink:href="#NJLi6G6jivUW_pad-11" x="15240" y="17780"/><use xlink:href="#NJLi6G6jivUW_pad-11" x="0" y="15240"/><use xlink:href="#NJLi6G6jivUW_pad-11" x="15240" y="20320"/><use xlink:href="#NJLi6G6jivUW_pad-11" x="0" y="12700"/><use xlink:href="#NJLi6G6jivUW_pad-11" x="15240" y="22860"/><use xlink:href="#NJLi6G6jivUW_pad-11" x="0" y="10160"/><use xlink:href="#NJLi6G6jivUW_pad-11" x="15240" y="25400"/><use xlink:href="#NJLi6G6jivUW_pad-11" x="0" y="7620"/><use xlink:href="#NJLi6G6jivUW_pad-11" x="15240" y="27940"/><use xlink:href="#NJLi6G6jivUW_pad-11" x="0" y="5080"/><use xlink:href="#NJLi6G6jivUW_pad-11" x="0" y="2540"/><use xlink:href="#NJLi6G6jivUW_pad-12" x="0" y="0"/><use xlink:href="#NJLi6G6jivUW_pad-13" x="4795" y="27105"/><use xlink:href="#NJLi6G6jivUW_pad-13" x="10445" y="27105"/></g><g id="qn_SArfkILGD_bottom_silkscreen"><g mask="url(#PonjdxNzCG6C_clear-1)"><path d="M -1270 28575 -1270 -635 M 16510 28575 16510 -635" fill="none" stroke-width="100"/><path d="M 10602.14 15255.71 11202.14 15041.43 10602.14 14827.14 M 11202.14 14012.86 11202.14 14527.14 M 11202.14 14270 10302.14 14270 10430.71 14355.71 10516.43 14441.43 10559.29 14527.14 M 11116.43 13627.14 11159.29 13584.29 11202.14 13627.14 11159.29 13670 11116.43 13627.14 11202.14 13627.14 M 11202.14 12727.14 11202.14 13241.43 M 11202.14 12984.29 10302.14 12984.29 10430.71 13070 10516.43 13155.72 10559.29 13241.43" fill="none" stroke-width="200"/><path d="M -1270 28575 A 635 635 0 0 0 -635 29210 M 15875 29210 A 635 635 0 0 0 16510 28575 M -635 29210 15875 29210 M 16510 -635 A 635 635 0 0 0 15875 -1270 M -635 -1270 A 635 635 0 0 0 -1270 -635" fill="none" stroke-width="100"/><path d="M 12507.14 26741.43 13235.71 26741.43 13321.43 26784.29 13364.29 26827.14 13407.14 26912.86 13407.14 27041.43 13364.29 27127.14 M 13064.29 26741.43 13107.14 26827.14 13107.14 26998.57 13064.29 27084.29 13021.43 27127.14 12935.71 27170 12678.57 27170 12592.86 27127.14 12550 27084.29 12507.14 26998.57 12507.14 26827.14 12550 26741.43 M 13107.14 26312.86 12507.14 26312.86 M 12207.14 26312.86 12250 26355.72 12292.86 26312.86 12250 26270 12207.14 26312.86 12292.86 26312.86 M 12507.14 26012.86 12507.14 25670 M 12207.14 25884.29 12978.57 25884.29 13064.29 25841.43 13107.14 25755.72 13107.14 25670 M 13107.14 25370 12207.14 25370 M 13107.14 24984.29 12635.71 24984.29 12550 25027.14 12507.14 25112.86 12507.14 25241.43 12550 25327.14 12592.86 25370 M 12507.14 24170 13107.14 24170 M 12507.14 24555.72 12978.57 24555.72 13064.29 24512.86 13107.14 24427.14 13107.14 24298.57 13064.29 24212.86 13021.43 24170 M 13107.14 23741.43 12207.14 23741.43 M 12550 23741.43 12507.14 23655.72 12507.14 23484.29 12550 23398.57 12592.86 23355.72 12678.57 23312.86 12935.71 23312.86 13021.43 23355.72 13064.29 23398.57 13107.14 23484.29 13107.14 23655.72 13064.29 23741.43 M 13021.43 22927.14 13064.29 22884.29 13107.14 22927.14 13064.29 22970 13021.43 22927.14 13107.14 22927.14 M 13064.29 22112.86 13107.14 22198.57 13107.14 22370 13064.29 22455.72 13021.43 22498.57 12935.71 22541.43 12678.57 22541.43 12592.86 22498.57 12550 22455.72 12507.14 22370 12507.14 22198.57 12550 22112.86 M 13107.14 21598.57 13064.29 21684.29 13021.43 21727.14 12935.71 21770 12678.57 21770 12592.86 21727.14 12550 21684.29 12507.14 21598.57 12507.14 21470 12550 21384.29 12592.86 21341.43 12678.57 21298.57 12935.71 21298.57 13021.43 21341.43 13064.29 21384.29 13107.14 21470 13107.14 21598.57 M 13107.14 20912.86 12507.14 20912.86 M 12592.86 20912.86 12550 20870 12507.14 20784.29 12507.14 20655.71 12550 20570 12635.71 20527.14 13107.14 20527.14 M 12635.71 20527.14 12550 20484.29 12507.14 20398.57 12507.14 20270 12550 20184.29 12635.71 20141.43 13107.14 20141.43 M 12164.29 19070 13321.43 19841.43 M 12507.14 18770 13107.14 18770 M 12592.86 18770 12550 18727.14 12507.14 18641.43 12507.14 18512.86 12550 18427.14 12635.71 18384.29 13107.14 18384.29 M 13064.29 17612.86 13107.14 17698.57 13107.14 17870 13064.29 17955.71 12978.57 17998.57 12635.71 17998.57 12550 17955.71 12507.14 17870 12507.14 17698.57 12550 17612.86 12635.71 17570 12721.43 17570 12807.14 17998.57 M 13107.14 17184.29 12507.14 17184.29 M 12678.57 17184.29 12592.86 17141.43 12550 17098.57 12507.14 17012.86 12507.14 16927.14 M 13107.14 16241.43 12207.14 16241.43 M 13064.29 16241.43 13107.14 16327.14 13107.14 16498.57 13064.29 16584.29 13021.43 16627.14 12935.71 16670 12678.57 16670 12592.86 16627.14 12550 16584.29 12507.14 16498.57 12507.14 16327.14 12550 16241.43 M 12507.14 15898.57 13107.14 15684.29 M 12507.14 15470 13107.14 15684.29 13321.43 15770 13364.29 15812.86 13407.14 15898.57 M 13064.29 15170 13107.14 15084.29 13107.14 14912.86 13064.29 14827.14 12978.57 14784.29 12935.71 14784.29 12850 14827.14 12807.14 14912.86 12807.14 15041.43 12764.29 15127.14 12678.57 15170 12635.71 15170 12550 15127.14 12507.14 15041.43 12507.14 14912.86 12550 14827.14 M 13064.29 14012.86 13107.14 14098.57 13107.14 14270 13064.29 14355.71 13021.43 14398.57 12935.71 14441.43 12678.57 14441.43 12592.86 14398.57 12550 14355.71 12507.14 14270 12507.14 14098.57 12550 14012.86 M 13107.14 13498.57 13064.29 13584.29 13021.43 13627.14 12935.71 13670 12678.57 13670 12592.86 13627.14 12550 13584.29 12507.14 13498.57 12507.14 13370 12550 13284.29 12592.86 13241.43 12678.57 13198.57 12935.71 13198.57 13021.43 13241.43 13064.29 13284.29 13107.14 13370 13107.14 13498.57 M 12507.14 12427.14 13107.14 12427.14 M 12507.14 12812.86 12978.57 12812.86 13064.29 12770 13107.14 12684.29 13107.14 12555.72 13064.29 12470 13021.43 12427.14 M 12507.14 12127.14 12507.14 11784.29 M 12207.14 11998.57 12978.57 11998.57 13064.29 11955.72 13107.14 11870 13107.14 11784.29 M 12164.29 10841.43 13321.43 11612.86 M 13107.14 10541.43 12207.14 10541.43 12207.14 10198.57 12250 10112.86 12292.86 10070 12378.57 10027.14 12507.14 10027.14 12592.86 10070 12635.71 10112.86 12678.57 10198.57 12678.57 10541.43 M 13107.14 9641.43 12507.14 9641.43 M 12678.57 9641.43 12592.86 9598.57 12550 9555.71 12507.14 9470 12507.14 9384.29 M 13107.14 8955.71 13064.29 9041.43 13021.43 9084.29 12935.71 9127.14 12678.57 9127.14 12592.86 9084.29 12550 9041.43 12507.14 8955.71 12507.14 8827.14 12550 8741.43 12592.86 8698.57 12678.57 8655.71 12935.71 8655.71 13021.43 8698.57 13064.29 8741.43 13107.14 8827.14 13107.14 8955.71 M 13107.14 8270 12207.14 8270 12850 7970 12207.14 7670 13107.14 7670 M 13107.14 7241.43 12507.14 7241.43 M 12207.14 7241.43 12250 7284.29 12292.86 7241.43 12250 7198.57 12207.14 7241.43 12292.86 7241.43 M 13064.29 6427.14 13107.14 6512.86 13107.14 6684.29 13064.29 6770 13021.43 6812.86 12935.71 6855.72 12678.57 6855.72 12592.86 6812.86 12550 6770 12507.14 6684.29 12507.14 6512.86 12550 6427.14 M 13107.14 6041.43 12507.14 6041.43 M 12678.57 6041.43 12592.86 5998.57 12550 5955.72 12507.14 5870 12507.14 5784.29 M 13107.14 5355.72 13064.29 5441.43 13021.43 5484.29 12935.71 5527.14 12678.57 5527.14 12592.86 5484.29 12550 5441.43 12507.14 5355.72 12507.14 5227.14 12550 5141.43 12592.86 5098.57 12678.57 5055.71 12935.71 5055.71 13021.43 5098.57 13064.29 5141.43 13107.14 5227.14 13107.14 5355.72 M 12164.29 4027.14 13321.43 4798.57 M 13107.14 3298.57 13107.14 3727.14 12207.14 3727.14 M 12207.14 2827.14 12207.14 2655.72 12250 2570 12335.71 2484.29 12507.14 2441.43 12807.14 2441.43 12978.57 2484.29 13064.29 2570 13107.14 2655.72 13107.14 2827.14 13064.29 2912.86 12978.57 2998.57 12807.14 3041.43 12507.14 3041.43 12335.71 2998.57 12250 2912.86 12207.14 2827.14 M 13107.14 1541.43 12678.57 1841.43 M 13107.14 2055.71 12207.14 2055.71 12207.14 1712.86 12250 1627.14 12292.86 1584.29 12378.57 1541.43 12507.14 1541.43 12592.86 1584.29 12635.71 1627.14 12678.57 1712.86 12678.57 2055.71 M 12850 1198.57 12850 770 M 13107.14 1284.29 12207.14 984.29 13107.14 684.29" fill="none" stroke-width="200"/><path d="M 15875 -1270 -635 -1270" fill="none" stroke-width="100"/><path d="M 3183.93 13414.19 3628.55 13330.37 3756.05 13021.08 3883.55 12711.79 3631.25 12340.75 3561 12236.84 3498.27 12142.91 3445.94 12063.35 3406.86 12002.53 3383.89 11964.84 3378.94 11954.58 3391.68 11936.09 3426.88 11896.58 3480.06 11840.48 3546.72 11772.21 3622.35 11696.21 3702.47 11616.91 3782.57 11538.73 3858.16 11466.09 3924.74 11403.44 3977.82 11355.2 4012.89 11325.79 4024.62 11318.76 4046.26 11328.88 4093.66 11357.24 4162.19 11400.87 4247.21 11456.78 4344.09 11521.99 4399.35 11559.78 4500.25 11628.66 4591.3 11689.86 4667.97 11740.42 4725.73 11777.37 4760.04 11797.74 4767.25 11800.8 4787.75 11793.86 4835.51 11774.95 4903.83 11746.91 4985.99 11712.61 5075.27 11674.89 5164.96 11636.61 5248.34 11600.63 5318.69 11569.79 5369.31 11546.96 5393.47 11534.98 5394.42 11534.28 5399.04 11515.47 5409.33 11465.38 5424.29 11389.21 5442.9 11292.14 5464.16 11179.36 5476.42 11113.56 5499.36 10993.05 5521.2 10884.2 5540.72 10792.52 5556.75 10723.52 5568.08 10682.7 5571.67 10674.49 5596.01 10666.45 5650.96 10659.97 5730.11 10655.03 5827.03 10651.64 5935.29 10649.78 6048.47 10649.46 6160.14 10650.67 6263.87 10653.41 6353.24 10657.67 6421.83 10663.45 6463.2 10670.73 6471.81 10675.11 6482.13 10701.24 6496.89 10756.61 6514.35 10833.89 6532.78 10925.77 6538.74 10957.84 6567.07 11112.48 6589.88 11234.63 6608.08 11328.33 6622.58 11397.62 6634.29 11446.53 6644.12 11479.1 6652.96 11499.37 6661.72 11511.37 6663.46 11513.05 6691.37 11529.82 6745.7 11555.39 6819.78 11587.21 6906.97 11622.74 7000.61 11659.42 7094.05 11694.69 7180.65 11726 7253.74 11750.81 7306.68 11766.55 7332.81 11770.67 7333.73 11770.32 7355.09 11756.36 7402.08 11724.68 7469.83 11678.61 7553.42 11621.48 7647.98 11556.63 7674.85 11538.16 7772.27 11472.3 7861.16 11414.35 7936.41 11367.46 7992.92 11334.79 8025.58 11319.5 8029.59 11318.76 8050.68 11331.61 8092.46 11367.11 8150.44 11420.71 8220.13 11487.83 8297.04 11563.91 8376.68 11644.4 8454.56 11724.71 8526.19 11800.3 8587.07 11866.6 8632.72 11919.03 8658.65 11953.05 8662.88 11962.46 8652.91 11984.36 8626.02 12029.2 8586.74 12089.68 8555.12 12136.21 8497.1 12220.53 8428.78 12320.37 8360.58 12420.53 8324.07 12474.37 8200.8 12656.63 8283.52 12809.62 8319.76 12879.32 8347.93 12938.59 8363.99 12978.69 8366.23 12988.9 8349.72 13001.17 8303.08 13025.39 8230.61 13059.74 8136.61 13102.41 8025.37 13151.61 7901.21 13205.51 7768.43 13262.32 7631.33 13320.22 7494.2 13377.41 7361.36 13432.08 7237.1 13482.42 7125.72 13526.62 7031.54 13562.88 6958.84 13589.39 6911.94 13604.34 6895.83 13606.75 6875.29 13587.69 6841.93 13545.96 6802.7 13490.29 6799.6 13485.62 6684.42 13341.74 6550.05 13225.72 6400.78 13138.57 6240.91 13081.3 6074.74 13054.91 5906.55 13060.42 5740.66 13098.81 5581.34 13171.11 5546.49 13192.37 5405.74 13303 5292.71 13433.7 5208 13579.94 5152.19 13737.19 5125.87 13900.94 5129.63 14066.67 5164.05 14229.84 5229.72 14385.93 5327.24 14530.43 5366.81 14575.13 5490.7 14688.89 5621.12 14771.78 5767.32 14828.64 5912.09 14860.31 6074.86 14868.13 6238.44 14842.06 6397.3 14784.75 6545.91 14698.86 6678.74 14587.01 6790.26 14451.88 6802.01 14434.12 6840.51 14377.85 6873.86 14335.08 6895.16 14314.63 6895.83 14314.33 6918.87 14318.72 6971.16 14336.12 7048.39 14364.73 7146.27 14402.73 7260.49 14448.33 7386.76 14499.7 7520.77 14555.04 7658.22 14612.54 7794.81 14670.4 7926.24 14726.8 8048.2 14779.94 8156.41 14828.01 8246.55 14869.2 8314.32 14901.7 8355.43 14923.7 8366.23 14932.56 8357.82 14959.64 8335.27 15010.3 8302.61 15075.82 8283.52 15111.84 8200.8 15264.83 8324.07 15447.09 8387.23 15540.12 8456.73 15641.98 8522.16 15737.44 8555.12 15785.25 8600.27 15852.49 8636.06 15909.44 8657.94 15948.65 8662.56 15961.38 8650.08 15979.92 8615.25 16020.94 8561.68 16080.47 8492.98 16154.54 8412.78 16239.16 8361.29 16292.68 8269.29 16386.32 8187 16467.24 8117.94 16532.18 8065.64 16577.86 8033.62 16601.01 8027.12 16603.23 8002.39 16592.92 7952.4 16564.44 7882.21 16520.94 7796.87 16465.58 7701.46 16401.52 7674.85 16383.3 7578.17 16316.93 7491.12 16257.38 7418.59 16207.98 7365.49 16172.07 7336.7 16152.98 7333.73 16151.14 7310.78 16153.89 7260.34 16168.54 7189.04 16192.51 7103.55 16223.27 7010.51 16258.24 6916.57 16294.89 6828.4 16330.66 6752.63 16362.99 6695.93 16389.34 6664.94 16407.14 6663.46 16408.41 6654.6 16419.29 6645.84 16437.68 6636.28 16467.61 6625 16513.1 6611.09 16578.21 6593.66 16666.96 6571.8 16783.39 6544.59 16931.54 6538.74 16963.62 6520.37 17058.69 6502.41 17141.56 6486.57 17204.93 6474.6 17241.46 6471.81 17246.36 6447.07 17254.43 6391.79 17260.99 6312.39 17266.03 6215.3 17269.56 6106.94 17271.56 5993.74 17272.04 5882.13 17270.98 5778.53 17268.38 5689.37 17264.25 5621.07 17258.56 5580.07 17251.33 5571.67 17246.97 5563.21 17222.7 5549.44 17167.43 5531.55 17086.66 5510.75 16985.91 5488.22 16870.68 5476.42 16807.9 5454.15 16688.79 5433.98 16582.56 5416.92 16494.43 5403.97 16429.57 5396.16 16393.17 5394.42 16387.18 5374.89 16377.06 5327.84 16355.66 5260 16325.84 5178.09 16290.44 5088.83 16252.33 4998.93 16214.35 4915.13 16179.36 4844.15 16150.21 4792.69 16129.74 4767.5 16120.82 4766.4 16120.66 4746.52 16130.77 4700.78 16159.12 4633.72 16202.72 4549.88 16258.61 4453.83 16323.79 4398.65 16361.68 4297.48 16430.72 4205.63 16492.05 4127.74 16542.66 4068.47 16579.57 4032.45 16599.78 4024.38 16602.7 4005.58 16590.15 3965.46 16555.46 3908.49 16503.06 3839.18 16437.38 3762.03 16362.86 3681.52 16283.91 3602.16 16204.98 3528.44 16130.5 3464.85 16064.89 3415.89 16012.6 3386.06 15978.04 3378.94 15966.48 3388.95 15947.65 3417.08 15902.63 3460.45 15835.79 3516.22 15751.5 3581.51 15654.14 3631.25 15580.71 3883.55 15209.67 3628.55 14591.09 3183.93 14507.27 2739.31 14423.45 2739.31 13498.01 3183.93 13414.19"/><path d="M 3183.93 13414.19 3628.55 13330.37 3756.05 13021.08 3883.55 12711.79 3631.25 12340.75 3561 12236.84 3498.27 12142.91 3445.94 12063.35 3406.86 12002.53 3383.89 11964.84 3378.94 11954.58 3391.68 11936.09 3426.88 11896.58 3480.06 11840.48 3546.72 11772.21 3622.35 11696.21 3702.47 11616.91 3782.57 11538.73 3858.16 11466.09 3924.74 11403.44 3977.82 11355.2 4012.89 11325.79 4024.62 11318.76 4046.26 11328.88 4093.66 11357.24 4162.19 11400.87 4247.21 11456.78 4344.09 11521.99 4399.35 11559.78 4500.25 11628.66 4591.3 11689.86 4667.97 11740.42 4725.73 11777.37 4760.04 11797.74 4767.25 11800.8 4787.75 11793.86 4835.51 11774.95 4903.83 11746.91 4985.99 11712.61 5075.27 11674.89 5164.96 11636.61 5248.34 11600.63 5318.69 11569.79 5369.31 11546.96 5393.47 11534.98 5394.42 11534.28 5399.04 11515.47 5409.33 11465.38 5424.29 11389.21 5442.9 11292.14 5464.16 11179.36 5476.42 11113.56 5499.36 10993.05 5521.2 10884.2 5540.72 10792.52 5556.75 10723.52 5568.08 10682.7 5571.67 10674.49 5596.01 10666.45 5650.96 10659.97 5730.11 10655.03 5827.03 10651.64 5935.29 10649.78 6048.47 10649.46 6160.14 10650.67 6263.87 10653.41 6353.24 10657.67 6421.83 10663.45 6463.2 10670.73 6471.81 10675.11 6482.13 10701.24 6496.89 10756.61 6514.35 10833.89 6532.78 10925.77 6538.74 10957.84 6567.07 11112.48 6589.88 11234.63 6608.08 11328.33 6622.58 11397.62 6634.29 11446.53 6644.12 11479.1 6652.96 11499.37 6661.72 11511.37 6663.46 11513.05 6691.37 11529.82 6745.7 11555.39 6819.78 11587.21 6906.97 11622.74 7000.61 11659.42 7094.05 11694.69 7180.65 11726 7253.74 11750.81 7306.68 11766.55 7332.81 11770.67 7333.73 11770.32 7355.09 11756.36 7402.08 11724.68 7469.83 11678.61 7553.42 11621.48 7647.98 11556.63 7674.85 11538.16 7772.27 11472.3 7861.16 11414.35 7936.41 11367.46 7992.92 11334.79 8025.58 11319.5 8029.59 11318.76 8050.68 11331.61 8092.46 11367.11 8150.44 11420.71 8220.13 11487.83 8297.04 11563.91 8376.68 11644.4 8454.56 11724.71 8526.19 11800.3 8587.07 11866.6 8632.72 11919.03 8658.65 11953.05 8662.88 11962.46 8652.91 11984.36 8626.02 12029.2 8586.74 12089.68 8555.12 12136.21 8497.1 12220.53 8428.78 12320.37 8360.58 12420.53 8324.07 12474.37 8200.8 12656.63 8283.52 12809.62 8319.76 12879.32 8347.93 12938.59 8363.99 12978.69 8366.23 12988.9 8349.72 13001.17 8303.08 13025.39 8230.61 13059.74 8136.61 13102.41 8025.37 13151.61 7901.21 13205.51 7768.43 13262.32 7631.33 13320.22 7494.2 13377.41 7361.36 13432.08 7237.1 13482.42 7125.72 13526.62 7031.54 13562.88 6958.84 13589.39 6911.94 13604.34 6895.83 13606.75 6875.29 13587.69 6841.93 13545.96 6802.7 13490.29 6799.6 13485.62 6684.42 13341.74 6550.05 13225.72 6400.78 13138.57 6240.91 13081.3 6074.74 13054.91 5906.55 13060.42 5740.66 13098.81 5581.34 13171.11 5546.49 13192.37 5405.74 13303 5292.71 13433.7 5208 13579.94 5152.19 13737.19 5125.87 13900.94 5129.63 14066.67 5164.05 14229.84 5229.72 14385.93 5327.24 14530.43 5366.81 14575.13 5490.7 14688.89 5621.12 14771.78 5767.32 14828.64 5912.09 14860.31 6074.86 14868.13 6238.44 14842.06 6397.3 14784.75 6545.91 14698.86 6678.74 14587.01 6790.26 14451.88 6802.01 14434.12 6840.51 14377.85 6873.86 14335.08 6895.16 14314.63 6895.83 14314.33 6918.87 14318.72 6971.16 14336.12 7048.39 14364.73 7146.27 14402.73 7260.49 14448.33 7386.76 14499.7 7520.77 14555.04 7658.22 14612.54 7794.81 14670.4 7926.24 14726.8 8048.2 14779.94 8156.41 14828.01 8246.55 14869.2 8314.32 14901.7 8355.43 14923.7 8366.23 14932.56 8357.82 14959.64 8335.27 15010.3 8302.61 15075.82 8283.52 15111.84 8200.8 15264.83 8324.07 15447.09 8387.23 15540.12 8456.73 15641.98 8522.16 15737.44 8555.12 15785.25 8600.27 15852.49 8636.06 15909.44 8657.94 15948.65 8662.56 15961.38 8650.08 15979.92 8615.25 16020.94 8561.68 16080.47 8492.98 16154.54 8412.78 16239.16 8361.29 16292.68 8269.29 16386.32 8187 16467.24 8117.94 16532.18 8065.64 16577.86 8033.62 16601.01 8027.12 16603.23 8002.39 16592.92 7952.4 16564.44 7882.21 16520.94 7796.87 16465.58 7701.46 16401.52 7674.85 16383.3 7578.17 16316.93 7491.12 16257.38 7418.59 16207.98 7365.49 16172.07 7336.7 16152.98 7333.73 16151.14 7310.78 16153.89 7260.34 16168.54 7189.04 16192.51 7103.55 16223.27 7010.51 16258.24 6916.57 16294.89 6828.4 16330.66 6752.63 16362.99 6695.93 16389.34 6664.94 16407.14 6663.46 16408.41 6654.6 16419.29 6645.84 16437.68 6636.28 16467.61 6625 16513.1 6611.09 16578.21 6593.66 16666.96 6571.8 16783.39 6544.59 16931.54 6538.74 16963.62 6520.37 17058.69 6502.41 17141.56 6486.57 17204.93 6474.6 17241.46 6471.81 17246.36 6447.07 17254.43 6391.79 17260.99 6312.39 17266.03 6215.3 17269.56 6106.94 17271.56 5993.74 17272.04 5882.13 17270.98 5778.53 17268.38 5689.37 17264.25 5621.07 17258.56 5580.07 17251.33 5571.67 17246.97 5563.21 17222.7 5549.44 17167.43 5531.55 17086.66 5510.75 16985.91 5488.22 16870.68 5476.42 16807.9 5454.15 16688.79 5433.98 16582.56 5416.92 16494.43 5403.97 16429.57 5396.16 16393.17 5394.42 16387.18 5374.89 16377.06 5327.84 16355.66 5260 16325.84 5178.09 16290.44 5088.83 16252.33 4998.93 16214.35 4915.13 16179.36 4844.15 16150.21 4792.69 16129.74 4767.5 16120.82 4766.4 16120.66 4746.52 16130.77 4700.78 16159.12 4633.72 16202.72 4549.88 16258.61 4453.83 16323.79 4398.65 16361.68 4297.48 16430.72 4205.63 16492.05 4127.74 16542.66 4068.47 16579.57 4032.45 16599.78 4024.38 16602.7 4005.58 16590.15 3965.46 16555.46 3908.49 16503.06 3839.18 16437.38 3762.03 16362.86 3681.52 16283.91 3602.16 16204.98 3528.44 16130.5 3464.85 16064.89 3415.89 16012.6 3386.06 15978.04 3378.94 15966.48 3388.95 15947.65 3417.08 15902.63 3460.45 15835.79 3516.22 15751.5 3581.51 15654.14 3631.25 15580.71 3883.55 15209.67 3628.55 14591.09 3183.93 14507.27 2739.31 14423.45 2739.31 13498.01 3183.93 13414.19" fill="none" stroke-width="10"/><path d="M 16640 -1270 1270 -1270 M 16640 29210 16640 -1270 M -1400 29210 16640 29210 M 1270 -1270 1270 29210 M 1270 1270 -1400 1270 M 13970 -1270 13970 29210 M -1400 1270 -1400 29210" fill="none" stroke-width="120"/><path d="M 2673.33 571.43 2673.33 190.48 M 2901.9 647.62 2101.9 380.95 2901.9 114.29 M 2901.9 -571.43 2901.9 -114.28 M 2901.9 -342.86 2101.9 -342.86 2216.19 -266.67 2292.38 -190.48 2330.48 -114.28" fill="none" stroke-width="200"/></g></g><g id="qn_SArfkILGD_bottom_copper"><path d="M -1270 28575 -1270 -635 M 16510 28575 16510 -635 M -1270 28575 A 635 635 0 0 0 -635 29210 M 15875 29210 A 635 635 0 0 0 16510 28575 M -635 29210 15875 29210 M 16510 -635 A 635 635 0 0 0 15875 -1270 M -635 -1270 A 635 635 0 0 0 -1270 -635 M 15875 -1270 -635 -1270" fill="none" stroke-width="100"/><use xlink:href="#RRGzqLDOxBlO_pad-11" x="15240" y="0"/><use xlink:href="#RRGzqLDOxBlO_pad-11" x="15240" y="2540"/><use xlink:href="#RRGzqLDOxBlO_pad-11" x="15240" y="5080"/><use xlink:href="#RRGzqLDOxBlO_pad-11" x="0" y="27940"/><use xlink:href="#RRGzqLDOxBlO_pad-11" x="15240" y="7620"/><use xlink:href="#RRGzqLDOxBlO_pad-11" x="0" y="25400"/><use xlink:href="#RRGzqLDOxBlO_pad-11" x="15240" y="10160"/><use xlink:href="#RRGzqLDOxBlO_pad-11" x="0" y="22860"/><use xlink:href="#RRGzqLDOxBlO_pad-11" x="15240" y="12700"/><use xlink:href="#RRGzqLDOxBlO_pad-11" x="0" y="20320"/><use xlink:href="#RRGzqLDOxBlO_pad-11" x="15240" y="15240"/><use xlink:href="#RRGzqLDOxBlO_pad-11" x="0" y="17780"/><use xlink:href="#RRGzqLDOxBlO_pad-11" x="15240" y="17780"/><use xlink:href="#RRGzqLDOxBlO_pad-11" x="0" y="15240"/><use xlink:href="#RRGzqLDOxBlO_pad-11" x="15240" y="20320"/><use xlink:href="#RRGzqLDOxBlO_pad-11" x="0" y="12700"/><use xlink:href="#RRGzqLDOxBlO_pad-11" x="15240" y="22860"/><use xlink:href="#RRGzqLDOxBlO_pad-11" x="0" y="10160"/><use xlink:href="#RRGzqLDOxBlO_pad-11" x="15240" y="25400"/><use xlink:href="#RRGzqLDOxBlO_pad-11" x="0" y="7620"/><use xlink:href="#RRGzqLDOxBlO_pad-11" x="15240" y="27940"/><use xlink:href="#RRGzqLDOxBlO_pad-11" x="0" y="5080"/><use xlink:href="#RRGzqLDOxBlO_pad-11" x="0" y="2540"/><use xlink:href="#RRGzqLDOxBlO_pad-12" x="0" y="0"/><use xlink:href="#RRGzqLDOxBlO_pad-13" x="4795" y="27105"/><use xlink:href="#RRGzqLDOxBlO_pad-13" x="10445" y="27105"/><use xlink:href="#RRGzqLDOxBlO_pad-14" x="13335" y="3810"/><use xlink:href="#RRGzqLDOxBlO_pad-14" x="1905" y="2540"/><use xlink:href="#RRGzqLDOxBlO_pad-14" x="13970" y="1270"/><use xlink:href="#RRGzqLDOxBlO_pad-14" x="12700" y="0"/><use xlink:href="#RRGzqLDOxBlO_pad-14" x="11430" y="2540"/><use xlink:href="#RRGzqLDOxBlO_pad-14" x="9525" y="2540"/><use xlink:href="#RRGzqLDOxBlO_pad-14" x="7620" y="2540"/><use xlink:href="#RRGzqLDOxBlO_pad-14" x="5715" y="2540"/><use xlink:href="#RRGzqLDOxBlO_pad-14" x="2540" y="0"/><use xlink:href="#RRGzqLDOxBlO_pad-14" x="14605" y="8890"/><use xlink:href="#RRGzqLDOxBlO_pad-14" x="7620" y="19939"/><use xlink:href="#RRGzqLDOxBlO_pad-15" x="8890" y="18288"/><use xlink:href="#RRGzqLDOxBlO_pad-14" x="8890" y="19939"/><use xlink:href="#RRGzqLDOxBlO_pad-14" x="12319" y="21082"/><use xlink:href="#RRGzqLDOxBlO_pad-14" x="12319" y="22225"/><use xlink:href="#RRGzqLDOxBlO_pad-14" x="12319" y="23495"/><use xlink:href="#RRGzqLDOxBlO_pad-14" x="13335" y="8191.5"/><use xlink:href="#RRGzqLDOxBlO_pad-16" x="8255" y="13970"/><use xlink:href="#RRGzqLDOxBlO_pad-16" x="10536.22" y="13990.62"/><use xlink:href="#RRGzqLDOxBlO_pad-15" x="3810" y="13208"/><use xlink:href="#RRGzqLDOxBlO_pad-14" x="6477" y="19939"/><use xlink:href="#RRGzqLDOxBlO_pad-14" x="6350" y="24765"/><use xlink:href="#RRGzqLDOxBlO_pad-14" x="8890" y="24765"/><use xlink:href="#RRGzqLDOxBlO_pad-14" x="12319" y="24765"/><use xlink:href="#RRGzqLDOxBlO_pad-14" x="12319" y="26162"/><use xlink:href="#RRGzqLDOxBlO_pad-14" x="1016" y="3810"/><use xlink:href="#RRGzqLDOxBlO_pad-14" x="2540" y="26670"/><use xlink:href="#RRGzqLDOxBlO_pad-14" x="1270" y="13970"/><use xlink:href="#RRGzqLDOxBlO_pad-14" x="889" y="16510"/><use xlink:href="#RRGzqLDOxBlO_pad-14" x="4445" y="22225"/><use xlink:href="#RRGzqLDOxBlO_pad-14" x="2540" y="24130"/><use xlink:href="#RRGzqLDOxBlO_pad-14" x="3810" y="15240"/><use xlink:href="#RRGzqLDOxBlO_pad-14" x="6667.5" y="22225"/><use xlink:href="#RRGzqLDOxBlO_pad-16" x="7264.4" y="13970"/><use xlink:href="#RRGzqLDOxBlO_pad-14" x="5715" y="3810"/><use xlink:href="#RRGzqLDOxBlO_pad-14" x="7620" y="3810"/><use xlink:href="#RRGzqLDOxBlO_pad-14" x="9525" y="3810"/><use xlink:href="#RRGzqLDOxBlO_pad-14" x="7620" y="11430"/><use xlink:href="#RRGzqLDOxBlO_pad-14" x="7620" y="8890"/><use xlink:href="#RRGzqLDOxBlO_pad-14" x="10160" y="8890"/><use xlink:href="#RRGzqLDOxBlO_pad-14" x="10160" y="11430"/><use xlink:href="#RRGzqLDOxBlO_pad-14" x="1270" y="11430"/><use xlink:href="#RRGzqLDOxBlO_pad-14" x="3810" y="2540"/><use xlink:href="#RRGzqLDOxBlO_pad-14" x="11938" y="18923"/><use xlink:href="#RRGzqLDOxBlO_pad-14" x="12446" y="4064"/><use xlink:href="#RRGzqLDOxBlO_pad-14" x="11303" y="4064"/><use xlink:href="#RRGzqLDOxBlO_pad-15" x="3683" y="18415"/><use xlink:href="#RRGzqLDOxBlO_pad-15" x="3683" y="19939"/><use xlink:href="#RRGzqLDOxBlO_pad-15" x="2921" y="6731"/><use xlink:href="#RRGzqLDOxBlO_pad-14" x="5334" y="15240"/><use xlink:href="#RRGzqLDOxBlO_pad-14" x="889" y="19050"/><use xlink:href="#RRGzqLDOxBlO_pad-16" x="9525" y="13970"/><use xlink:href="#RRGzqLDOxBlO_pad-14" x="12065" y="6985"/><use xlink:href="#RRGzqLDOxBlO_pad-14" x="5562.6" y="20891.5"/><use xlink:href="#RRGzqLDOxBlO_pad-14" x="3810" y="10922"/><use xlink:href="#RRGzqLDOxBlO_pad-14" x="5778.5" y="12890.5"/><use xlink:href="#RRGzqLDOxBlO_pad-16" x="6931.8" y="14755"/><use xlink:href="#RRGzqLDOxBlO_pad-15" x="13970" y="9779"/><use xlink:href="#RRGzqLDOxBlO_pad-15" x="5524.5" y="7493"/><use xlink:href="#RRGzqLDOxBlO_pad-15" x="7112" y="6223"/><use xlink:href="#RRGzqLDOxBlO_pad-15" x="2540" y="14605"/><use xlink:href="#RRGzqLDOxBlO_pad-15" x="5308.41" y="5867.59"/><path d="M 9525 13970 11430 12065 M 12065 11430 11430 12065 M 12065 6985 12065 11430 M 3810 10922 5778.5 12890.5 M 6931.8 14755 8740 14755 8928.1 14566.9 M 9525 13970 8928.1 14566.9 M 5562.6 16124.2 5562.6 20891.5 M 6931.8 14755 5562.6 16124.2" fill="none" stroke-width="400"/><path d="M 13970 19050 13970 9779 M 15240 20320 13970 19050 M 2540 22860 0 25400 M 3185 14849 2667 15367 M 2667 22733 2540 22860 M 3185 9832.5 3185 14849 M 2667 15367 2667 22733 M 5524.5 7493 3185 9832.5 M 7112 6223 5842 6223 2540 9525 M 2540 14605 2540 9525 M 1905 9271 5308.41 5867.59 M 1905 17006.37 1905 9271 M 1905 17006.37 1905 20955 0 22860" fill="none" stroke-width="250"/><path d="M 3845 27248.75 3913.75 27180 4720 27180 4720 27200 4870 27200 4870 27180 5676.25 27180 5745 27248.75 5746.15 28935 9493.85 28935 9495 27248.75 9563.75 27180 10370 27180 10370 27200 10520 27200 10520 27180 11326.25 27180 11395 27248.75 11396.15 28935 14833.03 28935 14730.8 28892.65 14554.73 28775.01 14404.99 28625.27 14287.35 28449.2 14206.31 28253.57 14165 28045.88 14165 27834.12 14206.31 27626.43 14287.35 27430.8 14404.99 27254.73 14554.73 27104.99 14730.8 26987.35 14926.43 26906.31 15134.12 26865 15345.88 26865 15553.57 26906.31 15749.2 26987.35 15925.27 27104.99 16075.01 27254.73 16192.65 27430.8 16235 27533.03 16235 25806.97 16192.65 25909.2 16075.01 26085.27 15925.27 26235.01 15749.2 26352.65 15553.57 26433.69 15345.88 26475 15134.12 26475 14926.43 26433.69 14730.8 26352.65 14554.73 26235.01 14404.99 26085.27 14287.35 25909.2 14206.31 25713.57 14165 25505.88 14165 25294.12 14206.31 25086.43 14287.35 24890.8 14404.99 24714.73 14554.73 24564.99 14730.8 24447.35 14926.43 24366.31 15134.12 24325 15345.88 24325 15553.57 24366.31 15749.2 24447.35 15925.27 24564.99 16075.01 24714.73 16192.65 24890.8 16235 24993.03 16235 23266.97 16192.65 23369.2 16075.01 23545.27 15925.27 23695.01 15749.2 23812.65 15553.57 23893.69 15345.88 23935 15134.12 23935 14926.43 23893.69 14730.8 23812.65 14554.73 23695.01 14404.99 23545.27 14287.35 23369.2 14206.31 23173.57 14165 22965.88 14165 22754.12 14206.31 22546.43 14287.35 22350.8 14404.99 22174.73 14554.73 22024.99 14730.8 21907.35 14926.43 21826.31 15134.12 21785 15345.88 21785 15553.57 21826.31 15749.2 21907.35 15925.27 22024.99 16075.01 22174.73 16192.65 22350.8 16235 22453.03 16235 20726.97 16192.65 20829.2 16075.01 21005.27 15925.27 21155.01 15749.2 21272.65 15553.57 21353.69 15345.88 21395 15134.12 21395 14926.43 21353.69 14730.8 21272.65 14554.73 21155.01 14404.99 21005.27 14287.35 20829.2 14206.31 20633.57 14165 20425.88 14165 20214.12 14206.31 20006.43 14251.55 19897.23 13701.05 19346.74 13685.79 19334.21 13635.8 19273.3 13598.66 19203.81 13575.79 19128.41 13575.79 19128.41 13568.07 19050 13570 19030.35 13570 10121.46 13562.21 10113.67 13504.75 10027.68 13465.18 9932.14 13445 9830.71 13445 9727.29 13465.18 9625.86 13504.75 9530.32 13562.21 9444.33 13635.33 9371.21 13721.32 9313.75 13816.86 9274.18 13918.29 9254 14021.71 9254 14123.14 9274.18 14218.68 9313.75 14304.67 9371.21 14377.79 9444.33 14401.55 9479.88 14404.99 9474.73 14554.73 9324.99 14730.8 9207.35 14926.43 9126.31 15134.12 9085 15345.88 9085 15553.57 9126.31 15749.2 9207.35 15925.27 9324.99 16075.01 9474.73 16192.65 9650.8 16235 9753.03 16235 8026.96 16192.65 8129.2 16075.01 8305.27 15925.27 8455.01 15749.2 8572.65 15553.57 8653.69 15345.88 8695 15134.12 8695 14926.43 8653.69 14730.8 8572.65 14554.73 8455.01 14404.99 8305.27 14287.35 8129.2 14206.31 7933.57 14165 7725.88 14165 7514.12 14206.31 7306.43 14287.35 7110.8 14404.99 6934.73 14554.73 6784.99 14730.8 6667.35 14926.43 6586.31 15134.12 6545 15345.88 6545 15553.57 6586.31 15749.2 6667.35 15925.27 6784.99 16075.01 6934.73 16192.65 7110.8 16235 7213.03 16235 5486.97 16192.65 5589.2 16075.01 5765.27 15925.27 5915.01 15749.2 6032.65 15553.57 6113.69 15345.88 6155 15134.12 6155 14926.43 6113.69 14730.8 6032.65 14554.73 5915.01 14404.99 5765.27 14287.35 5589.2 14206.31 5393.57 14165 5185.88 14165 4974.12 14206.31 4766.43 14287.35 4570.8 14404.99 4394.73 14554.73 4244.99 14730.8 4127.35 14926.43 4046.31 15134.12 4005 15345.88 4005 15553.57 4046.31 15749.2 4127.35 15925.27 4244.99 16075.01 4394.73 16192.65 4570.8 16235 4673.03 16235 2941.58 16151.66 3109.66 16023.01 3276.57 15864.27 3415.17 15681.53 3520.14 15481.83 3587.45 15315 3543.63 15315 2615 15335 2615 15335 2465 15315 2465 15315 1536.37 15481.83 1492.55 15681.53 1559.86 15864.27 1664.83 16023.01 1803.43 16151.66 1970.34 16235 2138.42 16235 406.96 16192.65 509.2 16075.01 685.27 15925.27 835.01 15749.2 952.65 15553.57 1033.69 15345.88 1075 15134.12 1075 14926.43 1033.69 14730.8 952.65 14554.73 835.01 14404.99 685.27 14287.35 509.2 14206.31 313.57 14165 105.88 14165 -105.88 14206.31 -313.57 14287.35 -509.2 14404.99 -685.27 14554.73 -835.01 14730.8 -952.65 14833.03 -995 995.72 -995 1029.76 -953.52 1055.3 -905.75 1071.02 -853.91 1076.33 -800 1076.33 800 1071.02 853.91 1055.3 905.75 1029.76 953.52 995.39 995.39 953.52 1029.76 905.75 1055.3 853.91 1071.02 800 1076.33 -800 1076.33 -853.91 1071.02 -905.75 1055.3 -953.52 1029.76 -995 995.72 -995 2133.03 -952.65 2030.8 -835.01 1854.73 -685.27 1704.99 -509.2 1587.35 -313.57 1506.31 -105.88 1465 105.88 1465 313.57 1506.31 509.2 1587.35 685.27 1704.99 835.01 1854.73 952.65 2030.8 1033.69 2226.43 1047.96 2298.17 14192.55 2298.17 14234.72 2159.14 14328.34 1970.34 14456.99 1803.43 14615.73 1664.83 14798.47 1559.86 14998.17 1492.55 15165 1536.37 15165 2465 14236.55 2465 14192.55 2298.17 1047.96 2298.17 1075 2434.12 1075 2645.88 1047.96 2781.83 14192.55 2781.83 14236.55 2615 15165 2615 15165 3543.63 14998.17 3587.45 14798.47 3520.14 14615.73 3415.17 14456.99 3276.57 14328.34 3109.66 14234.72 2920.86 14192.55 2781.83 1047.96 2781.83 1033.69 2853.57 952.65 3049.2 835.01 3225.27 685.27 3375.01 509.2 3492.65 313.57 3573.69 105.88 3615 -105.88 3615 -313.57 3573.69 -509.2 3492.65 -685.27 3375.01 -835.01 3225.27 -952.65 3049.2 -995 2946.97 -995 4673.03 -952.65 4570.8 -835.01 4394.73 -685.27 4244.99 -509.2 4127.35 -313.57 4046.31 -105.88 4005 105.88 4005 313.57 4046.31 509.2 4127.35 685.27 4244.99 835.01 4394.73 952.65 4570.8 1033.69 4766.43 1075 4974.12 1075 5185.88 1033.69 5393.57 952.65 5589.2 835.01 5765.27 685.27 5915.01 509.2 6032.65 313.57 6113.69 105.88 6155 -105.88 6155 -313.57 6113.69 -509.2 6032.65 -685.27 5915.01 -835.01 5765.27 -952.65 5589.2 -995 5486.97 -995 7218.42 -911.66 7050.34 -783.01 6883.43 -624.27 6744.83 -441.53 6639.86 -241.83 6572.55 -75 6616.37 -75 7545 75 7545 75 6616.37 241.83 6572.55 441.53 6639.86 624.27 6744.83 783.01 6883.43 911.66 7050.34 1005.28 7239.14 1047.45 7378.17 1003.45 7545 75 7545 -75 7545 -95 7545 -95 7695 -75 7695 -75 8623.63 75 8623.63 75 7695 1003.45 7695 1047.45 7861.83 1005.28 8000.85 911.66 8189.66 783.01 8356.57 624.27 8495.17 441.53 8600.14 241.83 8667.45 75 8623.63 -75 8623.63 -241.83 8667.45 -441.53 8600.14 -624.27 8495.17 -783.01 8356.57 -911.66 8189.66 -995 8021.58 -995 9753.03 -952.65 9650.8 -835.01 9474.73 -685.27 9324.99 -509.2 9207.35 -313.57 9126.31 -105.88 9085 105.88 9085 313.57 9126.31 509.2 9207.35 685.27 9324.99 835.01 9474.73 952.65 9650.8 1033.69 9846.43 1075 10054.12 1075 10265.88 1033.69 10473.57 952.65 10669.2 835.01 10845.27 685.27 10995.01 509.2 11112.65 313.57 11193.69 105.88 11235 -105.88 11235 -313.57 11193.69 -509.2 11112.65 -685.27 10995.01 -835.01 10845.27 -952.65 10669.2 -995 10566.97 -995 12293.03 -952.65 12190.8 -835.01 12014.73 -685.27 11864.99 -509.2 11747.35 -313.57 11666.31 -105.88 11625 105.88 11625 313.57 11666.31 509.2 11747.35 685.27 11864.99 835.01 12014.73 952.65 12190.8 1033.69 12386.43 1075 12594.12 1075 12805.88 1033.69 13013.57 952.65 13209.2 835.01 13385.27 685.27 13535.01 509.2 13652.65 313.57 13733.69 105.88 13775 -105.88 13775 -313.57 13733.69 -509.2 13652.65 -685.27 13535.01 -835.01 13385.27 -952.65 13209.2 -995 13106.97 -995 14833.03 -952.65 14730.8 -835.01 14554.73 -685.27 14404.99 -509.2 14287.35 -313.57 14206.31 -105.88 14165 105.88 14165 313.57 14206.31 509.2 14287.35 685.27 14404.99 835.01 14554.73 952.65 14730.8 1033.69 14926.43 1075 15134.12 1075 15345.88 1033.69 15553.57 952.65 15749.2 835.01 15925.27 685.27 16075.01 509.2 16192.65 313.57 16273.69 105.88 16315 -105.88 16315 -313.57 16273.69 -509.2 16192.65 -685.27 16075.01 -835.01 15925.27 -952.65 15749.2 -995 15646.97 -995 17373.03 -952.65 17270.8 -835.01 17094.73 -685.27 16944.99 -509.2 16827.35 -313.57 16746.31 -105.88 16705 105.88 16705 313.57 16746.31 509.2 16827.35 685.27 16944.99 835.01 17094.73 952.65 17270.8 1033.69 17466.43 1075 17674.12 1075 17885.88 1033.69 18093.57 952.65 18289.2 835.01 18465.27 685.27 18615.01 509.2 18732.65 313.57 18813.69 105.88 18855 -105.88 18855 -313.57 18813.69 -509.2 18732.65 -685.27 18615.01 -835.01 18465.27 -952.65 18289.2 -995 18186.97 -995 19913.03 -952.65 19810.8 -835.01 19634.73 -685.27 19484.99 -509.2 19367.35 -313.57 19286.31 -105.88 19245 105.88 19245 313.57 19286.31 509.2 19367.35 685.27 19484.99 835.01 19634.73 952.65 19810.8 1033.69 20006.43 1075 20214.12 1075 20425.88 1033.69 20633.57 952.65 20829.2 835.01 21005.27 685.27 21155.01 509.2 21272.65 313.57 21353.69 105.88 21395 -105.88 21395 -313.57 21353.69 -509.2 21272.65 -685.27 21155.01 -835.01 21005.27 -952.65 20829.2 -995 20726.97 -995 22453.03 -952.65 22350.8 -835.01 22174.73 -685.27 22024.99 -509.2 21907.35 -313.57 21826.31 -105.88 21785 105.88 21785 313.57 21826.31 422.77 21871.55 1505 20789.31 1505 17026.02 1505 17026.02 1505 9290.66 1503.07 9271 1510.79 9192.59 1533.66 9117.19 1570.8 9047.7 1608.27 9002.05 1608.27 9002.05 1620.79 8986.79 1636.05 8974.27 4783.41 5826.91 4783.41 5815.89 4803.58 5714.46 4843.16 5618.91 4900.61 5532.93 4973.74 5459.8 5059.72 5402.35 5155.27 5362.77 5256.7 5342.59 5360.11 5342.59 5461.54 5362.77 5557.09 5402.35 5643.07 5459.8 5716.2 5532.93 5773.66 5618.91 5813.23 5714.46 5833.41 5815.89 5833.41 5821.91 5842 5821.07 5861.64 5823 6769.54 5823 6777.33 5815.21 6863.32 5757.75 6958.86 5718.18 7060.29 5698 7163.71 5698 7265.14 5718.18 7360.68 5757.75 7446.67 5815.21 7519.79 5888.33 7577.25 5974.32 7616.82 6069.86 7637 6171.29 7637 6274.71 7616.82 6376.14 7577.25 6471.68 7519.79 6557.67 7446.67 6630.79 7360.68 6688.25 7265.14 6727.82 7163.71 6748 7060.29 6748 6958.86 6727.82 6863.32 6688.25 6777.33 6630.79 6769.54 6623 6007.69 6623 5648.34 6982.35 5677.64 6988.18 5773.18 7027.75 5859.17 7085.21 5932.29 7158.33 5989.75 7244.32 6029.32 7339.86 6049.5 7441.29 6049.5 7544.71 6029.32 7646.14 5989.75 7741.68 5932.29 7827.67 5859.17 7900.79 5773.18 7958.25 5677.64 7997.82 5576.21 8018 5565.19 8018 3585 9998.19 3585 10392.82 3642.28 10369.1 3753.37 10347 3866.63 10347 3977.72 10369.1 4082.36 10412.44 4176.54 10475.37 4256.63 10555.46 4319.56 10649.64 4362.9 10754.28 4375.04 10815.29 5885.21 12325.46 5946.22 12337.6 6050.87 12380.94 6145.04 12443.87 6225.13 12523.96 6288.06 12618.14 6331.4 12722.78 6353.5 12833.87 6353.5 12947.13 6331.4 13058.22 6288.06 13162.87 6225.13 13257.04 6145.04 13337.13 6050.87 13400.06 5946.22 13443.4 5835.13 13465.5 5721.87 13465.5 5610.78 13443.4 5506.14 13400.06 5411.96 13337.13 5331.87 13257.04 5268.94 13162.87 5225.6 13058.22 5213.46 12997.21 3703.29 11487.04 3642.28 11474.9 3585 11451.18 3585 14829.37 3586.93 14849 3585 14868.64 3585 14868.65 3579.21 14927.41 3556.34 15002.81 3519.2 15072.3 3469.21 15133.21 3453.95 15145.73 3067 15532.68 3067 20948.13 4987.6 20948.13 4987.6 20834.87 5009.7 20723.78 5053.04 20619.13 5087.6 20567.41 5087.6 16147.53 5085.3 16124.2 5087.6 16100.87 5094.47 16031.08 5121.63 15941.55 5165.74 15859.03 5225.1 15786.7 5243.23 15771.82 6482.92 14532.13 6488.71 14518.16 6543.43 14436.27 6613.07 14366.62 6694.96 14311.91 6785.96 14274.21 6882.55 14255 6981.05 14255 7077.64 14274.21 7091.61 14280 8543.25 14280 8608.72 14214.53 8608.73 14214.52 9076.12 13747.13 9081.91 13733.16 9136.62 13651.27 9206.27 13581.63 9288.16 13526.91 9302.13 13521.12 11110.62 11712.63 11110.63 11712.62 11590 11233.25 11590 7309.08 11555.44 7257.36 11512.1 7152.72 11490 7041.63 11490 6928.37 11512.1 6817.28 11555.44 6712.64 11618.37 6618.46 11698.46 6538.37 11792.64 6475.44 11897.28 6432.1 12008.37 6410 12121.63 6410 12232.72 6432.1 12337.37 6475.44 12431.54 6538.37 12511.63 6618.46 12574.56 6712.64 12617.9 6817.28 12640 6928.37 12640 7041.63 12617.9 7152.72 12574.56 7257.36 12540 7309.08 12540 11406.67 12542.3 11430 12533.13 11523.12 12505.97 11612.65 12461.86 11695.17 12417.37 11749.38 12402.5 11767.5 12384.38 11782.38 11782.38 12384.37 11782.37 12384.38 9973.88 14192.87 9968.09 14206.84 9913.37 14288.73 9843.73 14358.37 9761.84 14413.09 9747.87 14418.88 9280.48 14886.27 9280.47 14886.28 9092.38 15074.37 9077.5 15092.5 9005.17 15151.86 8922.65 15195.97 8833.12 15223.13 8763.33 15230 8740 15232.3 8716.67 15230 7128.55 15230 6037.6 16320.95 6037.6 20567.41 6072.16 20619.13 6115.5 20723.78 6137.6 20834.87 6137.6 20948.13 6115.5 21059.22 6072.16 21163.87 6009.23 21258.04 5929.14 21338.13 5834.97 21401.06 5730.32 21444.4 5619.23 21466.5 5505.97 21466.5 5394.88 21444.4 5290.24 21401.06 5196.06 21338.13 5115.97 21258.04 5053.04 21163.87 5009.7 21059.22 4987.6 20948.13 3067 20948.13 3067 22713.37 3068.93 22733 3067 22752.64 3067 22752.65 3061.21 22811.41 3038.34 22886.81 3001.2 22956.3 2951.21 23017.21 2935.95 23029.74 988.45 24977.23 999.96 25005 3843.67 25005 3848.98 24951.09 3864.7 24899.25 3890.24 24851.48 3924.6 24809.6 3966.48 24775.24 4014.25 24749.7 4066.09 24733.98 4120 24728.67 4651.25 24730 4720 24798.75 4720 27030 4870 27030 4870 24798.75 4938.75 24730 5470 24728.67 5523.91 24733.98 5575.75 24749.7 5623.52 24775.24 5665.4 24809.6 5699.76 24851.48 5725.3 24899.25 5741.02 24951.09 5746.33 25005 9493.67 25005 9498.98 24951.09 9514.7 24899.25 9540.24 24851.48 9574.6 24809.6 9616.48 24775.24 9664.25 24749.7 9716.09 24733.98 9770 24728.67 10301.25 24730 10370 24798.75 10370 27030 10520 27030 10520 24798.75 10588.75 24730 11120 24728.67 11173.91 24733.98 11225.75 24749.7 11273.52 24775.24 11315.4 24809.6 11349.76 24851.48 11375.3 24899.25 11391.02 24951.09 11396.33 25005 11395 26961.25 11326.25 27030 10520 27030 10370 27030 9563.75 27030 9495 26961.25 9493.67 25005 5746.33 25005 5745 26961.25 5676.25 27030 4870 27030 4720 27030 3913.75 27030 3845 26961.25 3843.67 25005 999.96 25005 1033.69 25086.43 1075 25294.12 1075 25505.88 1033.69 25713.57 952.65 25909.2 835.01 26085.27 685.27 26235.01 509.2 26352.65 313.57 26433.69 105.88 26475 -105.88 26475 -313.57 26433.69 -509.2 26352.65 -685.27 26235.01 -835.01 26085.27 -952.65 25909.2 -995 25806.97 -995 27533.03 -952.65 27430.8 -835.01 27254.73 -685.27 27104.99 -509.2 26987.35 -313.57 26906.31 -105.88 26865 105.88 26865 313.57 26906.31 509.2 26987.35 685.27 27104.99 835.01 27254.73 952.65 27430.8 1033.69 27626.43 1075 27834.12 1075 28045.88 1033.69 28253.57 952.65 28449.2 835.01 28625.27 685.27 28775.01 509.2 28892.65 406.97 28935 3843.85 28935 3845 27248.75"/><path d="M 3845 27248.75 3913.75 27180 4720 27180 4720 27200 4870 27200 4870 27180 5676.25 27180 5745 27248.75 5746.15 28935 9493.85 28935 9495 27248.75 9563.75 27180 10370 27180 10370 27200 10520 27200 10520 27180 11326.25 27180 11395 27248.75 11396.15 28935 14833.03 28935 14730.8 28892.65 14554.73 28775.01 14404.99 28625.27 14287.35 28449.2 14206.31 28253.57 14165 28045.88 14165 27834.12 14206.31 27626.43 14287.35 27430.8 14404.99 27254.73 14554.73 27104.99 14730.8 26987.35 14926.43 26906.31 15134.12 26865 15345.88 26865 15553.57 26906.31 15749.2 26987.35 15925.27 27104.99 16075.01 27254.73 16192.65 27430.8 16235 27533.03 16235 25806.97 16192.65 25909.2 16075.01 26085.27 15925.27 26235.01 15749.2 26352.65 15553.57 26433.69 15345.88 26475 15134.12 26475 14926.43 26433.69 14730.8 26352.65 14554.73 26235.01 14404.99 26085.27 14287.35 25909.2 14206.31 25713.57 14165 25505.88 14165 25294.12 14206.31 25086.43 14287.35 24890.8 14404.99 24714.73 14554.73 24564.99 14730.8 24447.35 14926.43 24366.31 15134.12 24325 15345.88 24325 15553.57 24366.31 15749.2 24447.35 15925.27 24564.99 16075.01 24714.73 16192.65 24890.8 16235 24993.03 16235 23266.97 16192.65 23369.2 16075.01 23545.27 15925.27 23695.01 15749.2 23812.65 15553.57 23893.69 15345.88 23935 15134.12 23935 14926.43 23893.69 14730.8 23812.65 14554.73 23695.01 14404.99 23545.27 14287.35 23369.2 14206.31 23173.57 14165 22965.88 14165 22754.12 14206.31 22546.43 14287.35 22350.8 14404.99 22174.73 14554.73 22024.99 14730.8 21907.35 14926.43 21826.31 15134.12 21785 15345.88 21785 15553.57 21826.31 15749.2 21907.35 15925.27 22024.99 16075.01 22174.73 16192.65 22350.8 16235 22453.03 16235 20726.97 16192.65 20829.2 16075.01 21005.27 15925.27 21155.01 15749.2 21272.65 15553.57 21353.69 15345.88 21395 15134.12 21395 14926.43 21353.69 14730.8 21272.65 14554.73 21155.01 14404.99 21005.27 14287.35 20829.2 14206.31 20633.57 14165 20425.88 14165 20214.12 14206.31 20006.43 14251.55 19897.23 13701.05 19346.74 13685.79 19334.21 13635.8 19273.3 13598.66 19203.81 13575.79 19128.41 13575.79 19128.41 13568.07 19050 13570 19030.35 13570 10121.46 13562.21 10113.67 13504.75 10027.68 13465.18 9932.14 13445 9830.71 13445 9727.29 13465.18 9625.86 13504.75 9530.32 13562.21 9444.33 13635.33 9371.21 13721.32 9313.75 13816.86 9274.18 13918.29 9254 14021.71 9254 14123.14 9274.18 14218.68 9313.75 14304.67 9371.21 14377.79 9444.33 14401.55 9479.88 14404.99 9474.73 14554.73 9324.99 14730.8 9207.35 14926.43 9126.31 15134.12 9085 15345.88 9085 15553.57 9126.31 15749.2 9207.35 15925.27 9324.99 16075.01 9474.73 16192.65 9650.8 16235 9753.03 16235 8026.96 16192.65 8129.2 16075.01 8305.27 15925.27 8455.01 15749.2 8572.65 15553.57 8653.69 15345.88 8695 15134.12 8695 14926.43 8653.69 14730.8 8572.65 14554.73 8455.01 14404.99 8305.27 14287.35 8129.2 14206.31 7933.57 14165 7725.88 14165 7514.12 14206.31 7306.43 14287.35 7110.8 14404.99 6934.73 14554.73 6784.99 14730.8 6667.35 14926.43 6586.31 15134.12 6545 15345.88 6545 15553.57 6586.31 15749.2 6667.35 15925.27 6784.99 16075.01 6934.73 16192.65 7110.8 16235 7213.03 16235 5486.97 16192.65 5589.2 16075.01 5765.27 15925.27 5915.01 15749.2 6032.65 15553.57 6113.69 15345.88 6155 15134.12 6155 14926.43 6113.69 14730.8 6032.65 14554.73 5915.01 14404.99 5765.27 14287.35 5589.2 14206.31 5393.57 14165 5185.88 14165 4974.12 14206.31 4766.43 14287.35 4570.8 14404.99 4394.73 14554.73 4244.99 14730.8 4127.35 14926.43 4046.31 15134.12 4005 15345.88 4005 15553.57 4046.31 15749.2 4127.35 15925.27 4244.99 16075.01 4394.73 16192.65 4570.8 16235 4673.03 16235 2941.58 16151.66 3109.66 16023.01 3276.57 15864.27 3415.17 15681.53 3520.14 15481.83 3587.45 15315 3543.63 15315 2615 15335 2615 15335 2465 15315 2465 15315 1536.37 15481.83 1492.55 15681.53 1559.86 15864.27 1664.83 16023.01 1803.43 16151.66 1970.34 16235 2138.42 16235 406.96 16192.65 509.2 16075.01 685.27 15925.27 835.01 15749.2 952.65 15553.57 1033.69 15345.88 1075 15134.12 1075 14926.43 1033.69 14730.8 952.65 14554.73 835.01 14404.99 685.27 14287.35 509.2 14206.31 313.57 14165 105.88 14165 -105.88 14206.31 -313.57 14287.35 -509.2 14404.99 -685.27 14554.73 -835.01 14730.8 -952.65 14833.03 -995 995.72 -995 1029.76 -953.52 1055.3 -905.75 1071.02 -853.91 1076.33 -800 1076.33 800 1071.02 853.91 1055.3 905.75 1029.76 953.52 995.39 995.39 953.52 1029.76 905.75 1055.3 853.91 1071.02 800 1076.33 -800 1076.33 -853.91 1071.02 -905.75 1055.3 -953.52 1029.76 -995 995.72 -995 2133.03 -952.65 2030.8 -835.01 1854.73 -685.27 1704.99 -509.2 1587.35 -313.57 1506.31 -105.88 1465 105.88 1465 313.57 1506.31 509.2 1587.35 685.27 1704.99 835.01 1854.73 952.65 2030.8 1033.69 2226.43 1047.96 2298.17 14192.55 2298.17 14234.72 2159.14 14328.34 1970.34 14456.99 1803.43 14615.73 1664.83 14798.47 1559.86 14998.17 1492.55 15165 1536.37 15165 2465 14236.55 2465 14192.55 2298.17 1047.96 2298.17 1075 2434.12 1075 2645.88 1047.96 2781.83 14192.55 2781.83 14236.55 2615 15165 2615 15165 3543.63 14998.17 3587.45 14798.47 3520.14 14615.73 3415.17 14456.99 3276.57 14328.34 3109.66 14234.72 2920.86 14192.55 2781.83 1047.96 2781.83 1033.69 2853.57 952.65 3049.2 835.01 3225.27 685.27 3375.01 509.2 3492.65 313.57 3573.69 105.88 3615 -105.88 3615 -313.57 3573.69 -509.2 3492.65 -685.27 3375.01 -835.01 3225.27 -952.65 3049.2 -995 2946.97 -995 4673.03 -952.65 4570.8 -835.01 4394.73 -685.27 4244.99 -509.2 4127.35 -313.57 4046.31 -105.88 4005 105.88 4005 313.57 4046.31 509.2 4127.35 685.27 4244.99 835.01 4394.73 952.65 4570.8 1033.69 4766.43 1075 4974.12 1075 5185.88 1033.69 5393.57 952.65 5589.2 835.01 5765.27 685.27 5915.01 509.2 6032.65 313.57 6113.69 105.88 6155 -105.88 6155 -313.57 6113.69 -509.2 6032.65 -685.27 5915.01 -835.01 5765.27 -952.65 5589.2 -995 5486.97 -995 7218.42 -911.66 7050.34 -783.01 6883.43 -624.27 6744.83 -441.53 6639.86 -241.83 6572.55 -75 6616.37 -75 7545 75 7545 75 6616.37 241.83 6572.55 441.53 6639.86 624.27 6744.83 783.01 6883.43 911.66 7050.34 1005.28 7239.14 1047.45 7378.17 1003.45 7545 75 7545 -75 7545 -95 7545 -95 7695 -75 7695 -75 8623.63 75 8623.63 75 7695 1003.45 7695 1047.45 7861.83 1005.28 8000.85 911.66 8189.66 783.01 8356.57 624.27 8495.17 441.53 8600.14 241.83 8667.45 75 8623.63 -75 8623.63 -241.83 8667.45 -441.53 8600.14 -624.27 8495.17 -783.01 8356.57 -911.66 8189.66 -995 8021.58 -995 9753.03 -952.65 9650.8 -835.01 9474.73 -685.27 9324.99 -509.2 9207.35 -313.57 9126.31 -105.88 9085 105.88 9085 313.57 9126.31 509.2 9207.35 685.27 9324.99 835.01 9474.73 952.65 9650.8 1033.69 9846.43 1075 10054.12 1075 10265.88 1033.69 10473.57 952.65 10669.2 835.01 10845.27 685.27 10995.01 509.2 11112.65 313.57 11193.69 105.88 11235 -105.88 11235 -313.57 11193.69 -509.2 11112.65 -685.27 10995.01 -835.01 10845.27 -952.65 10669.2 -995 10566.97 -995 12293.03 -952.65 12190.8 -835.01 12014.73 -685.27 11864.99 -509.2 11747.35 -313.57 11666.31 -105.88 11625 105.88 11625 313.57 11666.31 509.2 11747.35 685.27 11864.99 835.01 12014.73 952.65 12190.8 1033.69 12386.43 1075 12594.12 1075 12805.88 1033.69 13013.57 952.65 13209.2 835.01 13385.27 685.27 13535.01 509.2 13652.65 313.57 13733.69 105.88 13775 -105.88 13775 -313.57 13733.69 -509.2 13652.65 -685.27 13535.01 -835.01 13385.27 -952.65 13209.2 -995 13106.97 -995 14833.03 -952.65 14730.8 -835.01 14554.73 -685.27 14404.99 -509.2 14287.35 -313.57 14206.31 -105.88 14165 105.88 14165 313.57 14206.31 509.2 14287.35 685.27 14404.99 835.01 14554.73 952.65 14730.8 1033.69 14926.43 1075 15134.12 1075 15345.88 1033.69 15553.57 952.65 15749.2 835.01 15925.27 685.27 16075.01 509.2 16192.65 313.57 16273.69 105.88 16315 -105.88 16315 -313.57 16273.69 -509.2 16192.65 -685.27 16075.01 -835.01 15925.27 -952.65 15749.2 -995 15646.97 -995 17373.03 -952.65 17270.8 -835.01 17094.73 -685.27 16944.99 -509.2 16827.35 -313.57 16746.31 -105.88 16705 105.88 16705 313.57 16746.31 509.2 16827.35 685.27 16944.99 835.01 17094.73 952.65 17270.8 1033.69 17466.43 1075 17674.12 1075 17885.88 1033.69 18093.57 952.65 18289.2 835.01 18465.27 685.27 18615.01 509.2 18732.65 313.57 18813.69 105.88 18855 -105.88 18855 -313.57 18813.69 -509.2 18732.65 -685.27 18615.01 -835.01 18465.27 -952.65 18289.2 -995 18186.97 -995 19913.03 -952.65 19810.8 -835.01 19634.73 -685.27 19484.99 -509.2 19367.35 -313.57 19286.31 -105.88 19245 105.88 19245 313.57 19286.31 509.2 19367.35 685.27 19484.99 835.01 19634.73 952.65 19810.8 1033.69 20006.43 1075 20214.12 1075 20425.88 1033.69 20633.57 952.65 20829.2 835.01 21005.27 685.27 21155.01 509.2 21272.65 313.57 21353.69 105.88 21395 -105.88 21395 -313.57 21353.69 -509.2 21272.65 -685.27 21155.01 -835.01 21005.27 -952.65 20829.2 -995 20726.97 -995 22453.03 -952.65 22350.8 -835.01 22174.73 -685.27 22024.99 -509.2 21907.35 -313.57 21826.31 -105.88 21785 105.88 21785 313.57 21826.31 422.77 21871.55 1505 20789.31 1505 17026.02 1505 17026.02 1505 9290.66 1503.07 9271 1510.79 9192.59 1533.66 9117.19 1570.8 9047.7 1608.27 9002.05 1608.27 9002.05 1620.79 8986.79 1636.05 8974.27 4783.41 5826.91 4783.41 5815.89 4803.58 5714.46 4843.16 5618.91 4900.61 5532.93 4973.74 5459.8 5059.72 5402.35 5155.27 5362.77 5256.7 5342.59 5360.11 5342.59 5461.54 5362.77 5557.09 5402.35 5643.07 5459.8 5716.2 5532.93 5773.66 5618.91 5813.23 5714.46 5833.41 5815.89 5833.41 5821.91 5842 5821.07 5861.64 5823 6769.54 5823 6777.33 5815.21 6863.32 5757.75 6958.86 5718.18 7060.29 5698 7163.71 5698 7265.14 5718.18 7360.68 5757.75 7446.67 5815.21 7519.79 5888.33 7577.25 5974.32 7616.82 6069.86 7637 6171.29 7637 6274.71 7616.82 6376.14 7577.25 6471.68 7519.79 6557.67 7446.67 6630.79 7360.68 6688.25 7265.14 6727.82 7163.71 6748 7060.29 6748 6958.86 6727.82 6863.32 6688.25 6777.33 6630.79 6769.54 6623 6007.69 6623 5648.34 6982.35 5677.64 6988.18 5773.18 7027.75 5859.17 7085.21 5932.29 7158.33 5989.75 7244.32 6029.32 7339.86 6049.5 7441.29 6049.5 7544.71 6029.32 7646.14 5989.75 7741.68 5932.29 7827.67 5859.17 7900.79 5773.18 7958.25 5677.64 7997.82 5576.21 8018 5565.19 8018 3585 9998.19 3585 10392.82 3642.28 10369.1 3753.37 10347 3866.63 10347 3977.72 10369.1 4082.36 10412.44 4176.54 10475.37 4256.63 10555.46 4319.56 10649.64 4362.9 10754.28 4375.04 10815.29 5885.21 12325.46 5946.22 12337.6 6050.87 12380.94 6145.04 12443.87 6225.13 12523.96 6288.06 12618.14 6331.4 12722.78 6353.5 12833.87 6353.5 12947.13 6331.4 13058.22 6288.06 13162.87 6225.13 13257.04 6145.04 13337.13 6050.87 13400.06 5946.22 13443.4 5835.13 13465.5 5721.87 13465.5 5610.78 13443.4 5506.14 13400.06 5411.96 13337.13 5331.87 13257.04 5268.94 13162.87 5225.6 13058.22 5213.46 12997.21 3703.29 11487.04 3642.28 11474.9 3585 11451.18 3585 14829.37 3586.93 14849 3585 14868.64 3585 14868.65 3579.21 14927.41 3556.34 15002.81 3519.2 15072.3 3469.21 15133.21 3453.95 15145.73 3067 15532.68 3067 20948.13 4987.6 20948.13 4987.6 20834.87 5009.7 20723.78 5053.04 20619.13 5087.6 20567.41 5087.6 16147.53 5085.3 16124.2 5087.6 16100.87 5094.47 16031.08 5121.63 15941.55 5165.74 15859.03 5225.1 15786.7 5243.23 15771.82 6482.92 14532.13 6488.71 14518.16 6543.43 14436.27 6613.07 14366.62 6694.96 14311.91 6785.96 14274.21 6882.55 14255 6981.05 14255 7077.64 14274.21 7091.61 14280 8543.25 14280 8608.72 14214.53 8608.73 14214.52 9076.12 13747.13 9081.91 13733.16 9136.62 13651.27 9206.27 13581.63 9288.16 13526.91 9302.13 13521.12 11110.62 11712.63 11110.63 11712.62 11590 11233.25 11590 7309.08 11555.44 7257.36 11512.1 7152.72 11490 7041.63 11490 6928.37 11512.1 6817.28 11555.44 6712.64 11618.37 6618.46 11698.46 6538.37 11792.64 6475.44 11897.28 6432.1 12008.37 6410 12121.63 6410 12232.72 6432.1 12337.37 6475.44 12431.54 6538.37 12511.63 6618.46 12574.56 6712.64 12617.9 6817.28 12640 6928.37 12640 7041.63 12617.9 7152.72 12574.56 7257.36 12540 7309.08 12540 11406.67 12542.3 11430 12533.13 11523.12 12505.97 11612.65 12461.86 11695.17 12417.37 11749.38 12402.5 11767.5 12384.38 11782.38 11782.38 12384.37 11782.37 12384.38 9973.88 14192.87 9968.09 14206.84 9913.37 14288.73 9843.73 14358.37 9761.84 14413.09 9747.87 14418.88 9280.48 14886.27 9280.47 14886.28 9092.38 15074.37 9077.5 15092.5 9005.17 15151.86 8922.65 15195.97 8833.12 15223.13 8763.33 15230 8740 15232.3 8716.67 15230 7128.55 15230 6037.6 16320.95 6037.6 20567.41 6072.16 20619.13 6115.5 20723.78 6137.6 20834.87 6137.6 20948.13 6115.5 21059.22 6072.16 21163.87 6009.23 21258.04 5929.14 21338.13 5834.97 21401.06 5730.32 21444.4 5619.23 21466.5 5505.97 21466.5 5394.88 21444.4 5290.24 21401.06 5196.06 21338.13 5115.97 21258.04 5053.04 21163.87 5009.7 21059.22 4987.6 20948.13 3067 20948.13 3067 22713.37 3068.93 22733 3067 22752.64 3067 22752.65 3061.21 22811.41 3038.34 22886.81 3001.2 22956.3 2951.21 23017.21 2935.95 23029.74 988.45 24977.23 999.96 25005 3843.67 25005 3848.98 24951.09 3864.7 24899.25 3890.24 24851.48 3924.6 24809.6 3966.48 24775.24 4014.25 24749.7 4066.09 24733.98 4120 24728.67 4651.25 24730 4720 24798.75 4720 27030 4870 27030 4870 24798.75 4938.75 24730 5470 24728.67 5523.91 24733.98 5575.75 24749.7 5623.52 24775.24 5665.4 24809.6 5699.76 24851.48 5725.3 24899.25 5741.02 24951.09 5746.33 25005 9493.67 25005 9498.98 24951.09 9514.7 24899.25 9540.24 24851.48 9574.6 24809.6 9616.48 24775.24 9664.25 24749.7 9716.09 24733.98 9770 24728.67 10301.25 24730 10370 24798.75 10370 27030 10520 27030 10520 24798.75 10588.75 24730 11120 24728.67 11173.91 24733.98 11225.75 24749.7 11273.52 24775.24 11315.4 24809.6 11349.76 24851.48 11375.3 24899.25 11391.02 24951.09 11396.33 25005 11395 26961.25 11326.25 27030 10520 27030 10370 27030 9563.75 27030 9495 26961.25 9493.67 25005 5746.33 25005 5745 26961.25 5676.25 27030 4870 27030 4720 27030 3913.75 27030 3845 26961.25 3843.67 25005 999.96 25005 1033.69 25086.43 1075 25294.12 1075 25505.88 1033.69 25713.57 952.65 25909.2 835.01 26085.27 685.27 26235.01 509.2 26352.65 313.57 26433.69 105.88 26475 -105.88 26475 -313.57 26433.69 -509.2 26352.65 -685.27 26235.01 -835.01 26085.27 -952.65 25909.2 -995 25806.97 -995 27533.03 -952.65 27430.8 -835.01 27254.73 -685.27 27104.99 -509.2 26987.35 -313.57 26906.31 -105.88 26865 105.88 26865 313.57 26906.31 509.2 26987.35 685.27 27104.99 835.01 27254.73 952.65 27430.8 1033.69 27626.43 1075 27834.12 1075 28045.88 1033.69 28253.57 952.65 28449.2 835.01 28625.27 685.27 28775.01 509.2 28892.65 406.97 28935 3843.85 28935 3845 27248.75" fill="none" stroke-width="150"/></g><g id="qn_SArfkILGD_bottom_drill1"><use xlink:href="#uSLHXS0M34Nd_pad-1" x="2540" y="14605"/><use xlink:href="#uSLHXS0M34Nd_pad-1" x="2921" y="6731"/><use xlink:href="#uSLHXS0M34Nd_pad-1" x="3683" y="19939"/><use xlink:href="#uSLHXS0M34Nd_pad-1" x="3683" y="18415"/><use xlink:href="#uSLHXS0M34Nd_pad-1" x="3810" y="13208"/><use xlink:href="#uSLHXS0M34Nd_pad-1" x="5308" y="5868"/><use xlink:href="#uSLHXS0M34Nd_pad-1" x="5524" y="7493"/><use xlink:href="#uSLHXS0M34Nd_pad-1" x="6932" y="14755"/><use xlink:href="#uSLHXS0M34Nd_pad-1" x="7112" y="6223"/><use xlink:href="#uSLHXS0M34Nd_pad-1" x="7264" y="13970"/><use xlink:href="#uSLHXS0M34Nd_pad-1" x="8255" y="13970"/><use xlink:href="#uSLHXS0M34Nd_pad-1" x="8890" y="18288"/><use xlink:href="#uSLHXS0M34Nd_pad-1" x="9525" y="13970"/><use xlink:href="#uSLHXS0M34Nd_pad-1" x="10536" y="13991"/><use xlink:href="#uSLHXS0M34Nd_pad-1" x="13970" y="9779"/><use xlink:href="#uSLHXS0M34Nd_pad-2" x="889" y="19050"/><use xlink:href="#uSLHXS0M34Nd_pad-2" x="889" y="16510"/><use xlink:href="#uSLHXS0M34Nd_pad-2" x="1016" y="3810"/><use xlink:href="#uSLHXS0M34Nd_pad-2" x="1270" y="13970"/><use xlink:href="#uSLHXS0M34Nd_pad-2" x="1270" y="11430"/><use xlink:href="#uSLHXS0M34Nd_pad-2" x="1905" y="2540"/><use xlink:href="#uSLHXS0M34Nd_pad-2" x="2540" y="26670"/><use xlink:href="#uSLHXS0M34Nd_pad-2" x="2540" y="24130"/><use xlink:href="#uSLHXS0M34Nd_pad-2" x="2540" y="0"/><use xlink:href="#uSLHXS0M34Nd_pad-2" x="3810" y="15240"/><use xlink:href="#uSLHXS0M34Nd_pad-2" x="3810" y="10922"/><use xlink:href="#uSLHXS0M34Nd_pad-2" x="3810" y="2540"/><use xlink:href="#uSLHXS0M34Nd_pad-2" x="4445" y="22225"/><use xlink:href="#uSLHXS0M34Nd_pad-2" x="5334" y="15240"/><use xlink:href="#uSLHXS0M34Nd_pad-2" x="5563" y="20892"/><use xlink:href="#uSLHXS0M34Nd_pad-2" x="5715" y="3810"/><use xlink:href="#uSLHXS0M34Nd_pad-2" x="5715" y="2540"/><use xlink:href="#uSLHXS0M34Nd_pad-2" x="5778" y="12890"/><use xlink:href="#uSLHXS0M34Nd_pad-2" x="6350" y="24765"/><use xlink:href="#uSLHXS0M34Nd_pad-2" x="6477" y="19939"/><use xlink:href="#uSLHXS0M34Nd_pad-2" x="6667" y="22225"/><use xlink:href="#uSLHXS0M34Nd_pad-2" x="7620" y="19939"/><use xlink:href="#uSLHXS0M34Nd_pad-2" x="7620" y="11430"/><use xlink:href="#uSLHXS0M34Nd_pad-2" x="7620" y="8890"/><use xlink:href="#uSLHXS0M34Nd_pad-2" x="7620" y="3810"/><use xlink:href="#uSLHXS0M34Nd_pad-2" x="7620" y="2540"/><use xlink:href="#uSLHXS0M34Nd_pad-2" x="8890" y="24765"/><use xlink:href="#uSLHXS0M34Nd_pad-2" x="8890" y="19939"/><use xlink:href="#uSLHXS0M34Nd_pad-2" x="9525" y="3810"/><use xlink:href="#uSLHXS0M34Nd_pad-2" x="9525" y="2540"/><use xlink:href="#uSLHXS0M34Nd_pad-2" x="10160" y="11430"/><use xlink:href="#uSLHXS0M34Nd_pad-2" x="10160" y="8890"/><use xlink:href="#uSLHXS0M34Nd_pad-2" x="11303" y="4064"/><use xlink:href="#uSLHXS0M34Nd_pad-2" x="11430" y="2540"/><use xlink:href="#uSLHXS0M34Nd_pad-2" x="11938" y="18923"/><use xlink:href="#uSLHXS0M34Nd_pad-2" x="12065" y="6985"/><use xlink:href="#uSLHXS0M34Nd_pad-2" x="12319" y="26162"/><use xlink:href="#uSLHXS0M34Nd_pad-2" x="12319" y="24765"/><use xlink:href="#uSLHXS0M34Nd_pad-2" x="12319" y="23495"/><use xlink:href="#uSLHXS0M34Nd_pad-2" x="12319" y="22225"/><use xlink:href="#uSLHXS0M34Nd_pad-2" x="12319" y="21082"/><use xlink:href="#uSLHXS0M34Nd_pad-2" x="12446" y="4064"/><use xlink:href="#uSLHXS0M34Nd_pad-2" x="12700" y="0"/><use xlink:href="#uSLHXS0M34Nd_pad-2" x="13335" y="8191"/><use xlink:href="#uSLHXS0M34Nd_pad-2" x="13335" y="3810"/><use xlink:href="#uSLHXS0M34Nd_pad-2" x="13970" y="1270"/><use xlink:href="#uSLHXS0M34Nd_pad-2" x="14605" y="8890"/><use xlink:href="#uSLHXS0M34Nd_pad-3" x="0" y="27940"/><use xlink:href="#uSLHXS0M34Nd_pad-3" x="0" y="25400"/><use xlink:href="#uSLHXS0M34Nd_pad-3" x="0" y="22860"/><use xlink:href="#uSLHXS0M34Nd_pad-3" x="0" y="20320"/><use xlink:href="#uSLHXS0M34Nd_pad-3" x="0" y="17780"/><use xlink:href="#uSLHXS0M34Nd_pad-3" x="0" y="15240"/><use xlink:href="#uSLHXS0M34Nd_pad-3" x="0" y="12700"/><use xlink:href="#uSLHXS0M34Nd_pad-3" x="0" y="10160"/><use xlink:href="#uSLHXS0M34Nd_pad-3" x="0" y="7620"/><use xlink:href="#uSLHXS0M34Nd_pad-3" x="0" y="5080"/><use xlink:href="#uSLHXS0M34Nd_pad-3" x="0" y="2540"/><use xlink:href="#uSLHXS0M34Nd_pad-3" x="0" y="0"/><use xlink:href="#uSLHXS0M34Nd_pad-3" x="15240" y="27940"/><use xlink:href="#uSLHXS0M34Nd_pad-3" x="15240" y="25400"/><use xlink:href="#uSLHXS0M34Nd_pad-3" x="15240" y="22860"/><use xlink:href="#uSLHXS0M34Nd_pad-3" x="15240" y="20320"/><use xlink:href="#uSLHXS0M34Nd_pad-3" x="15240" y="17780"/><use xlink:href="#uSLHXS0M34Nd_pad-3" x="15240" y="15240"/><use xlink:href="#uSLHXS0M34Nd_pad-3" x="15240" y="12700"/><use xlink:href="#uSLHXS0M34Nd_pad-3" x="15240" y="10160"/><use xlink:href="#uSLHXS0M34Nd_pad-3" x="15240" y="7620"/><use xlink:href="#uSLHXS0M34Nd_pad-3" x="15240" y="5080"/><use xlink:href="#uSLHXS0M34Nd_pad-3" x="15240" y="2540"/><use xlink:href="#uSLHXS0M34Nd_pad-3" x="15240" y="0"/></g><clipPath id="qn_SArfkILGD_bottom_outline"><path d="M -1270 28575 -1270 -635 A 635 635 0 0 1 -635 -1270 L 15875 -1270 A 635 635 0 0 1 16510 -635 L 16510 28575 A 635 635 0 0 1 15875 29210 L -635 29210 A 635 635 0 0 1 -1270 28575" fill="none" stroke-width="100"/></clipPath><mask id="qn_SArfkILGD_bottom_mech-mask"><g fill="#000" stroke="#000"><rect x="-1270" y="-1270" width="17780" height="30480" fill="#fff"/><use xlink:href="#qn_SArfkILGD_bottom_drill1"/></g></mask><mask id="qn_SArfkILGD_bottom_cf-mask"><g fill="#fff" stroke="#fff"><use xlink:href="#qn_SArfkILGD_bottom_soldermask"/></g></mask><mask id="qn_SArfkILGD_bottom_sm-mask"><g fill="#000" stroke="#000"><rect x="-1270" y="-1270" width="17780" height="30480" fill="#fff"/><use xlink:href="#qn_SArfkILGD_bottom_soldermask"/></g></mask></defs><g transform="translate(0,27940) scale(1,-1)"><g mask="url(#qn_SArfkILGD_bottom_mech-mask)" clip-path="url(#qn_SArfkILGD_bottom_outline)" transform="translate(15240,0) scale(-1,1)"><rect x="-1270" y="-1270" width="17780" height="30480" fill="currentColor" class="qn_SArfkILGD_fr4"/><use xlink:href="#qn_SArfkILGD_bottom_copper" fill="currentColor" stroke="currentColor" class="qn_SArfkILGD_cu"/><use xlink:href="#qn_SArfkILGD_bottom_copper" fill="currentColor" stroke="currentColor" class="qn_SArfkILGD_cf" mask="url(#qn_SArfkILGD_bottom_cf-mask)"/><g mask="url(#qn_SArfkILGD_bottom_sm-mask)"><rect x="-1270" y="-1270" width="17780" height="30480" fill="currentColor" class="qn_SArfkILGD_sm"/><use xlink:href="#qn_SArfkILGD_bottom_silkscreen" fill="currentColor" stroke="currentColor" class="qn_SArfkILGD_ss"/></g></g></g></svg>