<svg version="1.1" xmlns="http://www.w3.org/2000/svg" xmlns:xlink="http://www.w3.org/1999/xlink" stroke-linecap="round" stroke-linejoin="round" stroke-width="0" fill-rule="evenodd" width="17.88mm" height="30.58mm" viewBox="-16560 -1320 17880 30580"><g transform="translate(0,27940) scale(1,-1)" fill="currentColor" stroke="currentColor"><path d="M 1270 28575 1270 -635 M -16510 -635 -16510 28575 M -15875 29210 A 635 635 0 0 1 -16510 28575 M 1270 28575 A 635 635 0 0 1 635 29210 M 635 -1270 A 635 635 0 0 1 1270 -635 M -16510 -635 A 635 635 0 0 1 -15875 -1270 M 635 29210 -15875 29210 M -15875 -1270 635 -1270" fill="none" stroke-width="100"/><path d="M -12230 16745 -12230 17545 -10630 17545 -10630 16745 -12230 16745 M -3010 -463.45 -4610 -463.45 M -3010 336.55 -3010 -463.45 M -4610 336.55 -3010 336.55 M -4610 -463.45 -4610 336.55 M -9290 4915 -9290 6515 M -8490 4915 -9290 4915 M -8490 6515 -8490 4915 M -9290 6515 -8490 6515 M -12230 9925 -10630 9925 M -12230 9125 -12230 9925 M -10630 9125 -12230 9125 M -10630 9925 -10630 9125 M -12230 15005 -10630 15005 M -12230 14205 -12230 15005 M -10630 14205 -12230 14205 M -10630 15005 -10630 14205 M -3410 6515 -3410 4915 M -4210 6515 -3410 6515 M -4210 4915 -4210 6515 M -3410 4915 -4210 4915 M -5950 6515 -5950 4915 M -6750 6515 -5950 6515 M -6750 4915 -6750 6515 M -5950 4915 -6750 4915 M -12230 12465 -10630 12465 M -12230 11665 -12230 12465 M -10630 11665 -12230 11665 M -10630 12465 -10630 11665 M -12230 20085 -10630 20085 M -12230 19285 -12230 20085 M -10630 19285 -12230 19285 M -10630 20085 -10630 19285 M -12230 336.55 -10630 336.55 M -12230 -463.45 -12230 336.55 M -10630 -463.45 -12230 -463.45 M -10630 336.55 -10630 -463.45 M -11830 4915 -11830 6515 M -11030 4915 -11830 4915 M -11030 6515 -11030 4915 M -11830 6515 -11030 6515 M -10630 21190 -12230 21190 M -10630 21990 -10630 21190 M -12230 21990 -10630 21990 M -12230 21190 -12230 21990 M -6820 336.55 -8120 336.55 -8420 36.55 -8420 -463.45 -6820 -463.45 -6820 336.55" fill="none" stroke-width="100"/><path d="M -11496.67 16964.05 -11630 17154.52 M -11725.24 16964.05 -11725.24 17364.05 -11572.86 17364.05 -11534.76 17345 -11515.72 17325.95 -11496.67 17287.86 -11496.67 17230.71 -11515.72 17192.62 -11534.76 17173.57 -11572.86 17154.52 -11725.24 17154.52 M -11306.19 16964.05 -11230 16964.05 -11191.91 16983.1 -11172.86 17002.14 -11134.76 17059.29 -11115.72 17135.48 -11115.72 17287.86 -11134.76 17325.95 -11153.81 17345 -11191.91 17364.05 -11268.1 17364.05 -11306.19 17345 -11325.24 17325.95 -11344.29 17287.86 -11344.29 17192.62 -11325.24 17154.52 -11306.19 17135.48 -11268.1 17116.43 -11191.91 17116.43 -11153.81 17135.48 -11134.76 17154.52 -11115.72 17192.62 M -3876.67 -244.4 -4010 -53.93 M -4105.24 -244.4 -4105.24 155.6 -3952.86 155.6 -3914.76 136.55 -3895.71 117.5 -3876.67 79.41 -3876.67 22.26 -3895.71 -15.83 -3914.76 -34.88 -3952.86 -53.93 -4105.24 -53.93 M -3648.1 -15.83 -3686.19 3.22 -3705.24 22.26 -3724.29 60.36 -3724.29 79.41 -3705.24 117.5 -3686.19 136.55 -3648.1 155.6 -3571.9 155.6 -3533.81 136.55 -3514.76 117.5 -3495.71 79.41 -3495.71 60.36 -3514.76 22.26 -3533.81 3.22 -3571.9 -15.83 -3648.1 -15.83 -3686.19 -34.88 -3705.24 -53.93 -3724.29 -92.02 -3724.29 -168.21 -3705.24 -206.31 -3686.19 -225.36 -3648.1 -244.4 -3571.9 -244.4 -3533.81 -225.36 -3514.76 -206.31 -3495.71 -168.21 -3495.71 -92.02 -3514.76 -53.93 -3533.81 -34.88 -3571.9 -15.83 M -8709.05 5648.33 -8899.52 5515 M -8709.05 5419.76 -9109.05 5419.76 -9109.05 5572.14 -9090 5610.24 -9070.95 5629.29 -9032.86 5648.33 -8975.71 5648.33 -8937.62 5629.29 -8918.57 5610.24 -8899.52 5572.14 -8899.52 5419.76 M -9109.05 5781.67 -9109.05 6048.33 -8709.05 5876.91 M -11496.67 9344.05 -11630 9534.52 M -11725.24 9344.05 -11725.24 9744.05 -11572.86 9744.05 -11534.76 9725 -11515.72 9705.95 -11496.67 9667.86 -11496.67 9610.71 -11515.72 9572.62 -11534.76 9553.57 -11572.86 9534.52 -11725.24 9534.52 M -11153.81 9744.05 -11230 9744.05 -11268.1 9725 -11287.14 9705.95 -11325.24 9648.81 -11344.29 9572.62 -11344.29 9420.24 -11325.24 9382.14 -11306.19 9363.1 -11268.1 9344.05 -11191.91 9344.05 -11153.81 9363.1 -11134.76 9382.14 -11115.72 9420.24 -11115.72 9515.48 -11134.76 9553.57 -11153.81 9572.62 -11191.91 9591.67 -11268.1 9591.67 -11306.19 9572.62 -11325.24 9553.57 -11344.29 9515.48 M -11496.67 14424.05 -11630 14614.52 M -11725.24 14424.05 -11725.24 14824.05 -11572.86 14824.05 -11534.76 14805 -11515.72 14785.95 -11496.67 14747.86 -11496.67 14690.71 -11515.72 14652.62 -11534.76 14633.57 -11572.86 14614.52 -11725.24 14614.52 M -11134.76 14824.05 -11325.24 14824.05 -11344.29 14633.57 -11325.24 14652.62 -11287.14 14671.67 -11191.91 14671.67 -11153.81 14652.62 -11134.76 14633.57 -11115.72 14595.48 -11115.72 14500.24 -11134.76 14462.14 -11153.81 14443.1 -11191.91 14424.05 -11287.14 14424.05 -11325.24 14443.1 -11344.29 14462.14 M -3990.95 5781.67 -3800.48 5915 M -3990.95 6010.24 -3590.95 6010.24 -3590.95 5857.86 -3610 5819.76 -3629.05 5800.72 -3667.14 5781.67 -3724.29 5781.67 -3762.38 5800.72 -3781.43 5819.76 -3800.48 5857.86 -3800.48 6010.24 M -3724.29 5438.81 -3990.95 5438.81 M -3571.9 5534.05 -3857.62 5629.29 -3857.62 5381.67 M -6530.95 5781.67 -6340.48 5915 M -6530.95 6010.24 -6130.95 6010.24 -6130.95 5857.86 -6150 5819.76 -6169.05 5800.72 -6207.14 5781.67 -6264.29 5781.67 -6302.38 5800.72 -6321.43 5819.76 -6340.48 5857.86 -6340.48 6010.24 M -6130.95 5648.33 -6130.95 5400.72 -6283.33 5534.05 -6283.33 5476.91 -6302.38 5438.81 -6321.43 5419.76 -6359.52 5400.72 -6454.76 5400.72 -6492.86 5419.76 -6511.91 5438.81 -6530.95 5476.91 -6530.95 5591.19 -6511.91 5629.29 -6492.86 5648.33 M -11496.67 11884.05 -11630 12074.52 M -11725.24 11884.05 -11725.24 12284.05 -11572.86 12284.05 -11534.76 12265 -11515.72 12245.95 -11496.67 12207.86 -11496.67 12150.72 -11515.72 12112.62 -11534.76 12093.57 -11572.86 12074.52 -11725.24 12074.52 M -11344.29 12245.95 -11325.24 12265 -11287.14 12284.05 -11191.91 12284.05 -11153.81 12265 -11134.76 12245.95 -11115.72 12207.86 -11115.72 12169.76 -11134.76 12112.62 -11363.33 11884.05 -11115.72 11884.05 M -11496.67 19504.05 -11630 19694.52 M -11725.24 19504.05 -11725.24 19904.05 -11572.86 19904.05 -11534.76 19885 -11515.72 19865.95 -11496.67 19827.86 -11496.67 19770.71 -11515.72 19732.62 -11534.76 19713.57 -11572.86 19694.52 -11725.24 19694.52 M -11115.72 19504.05 -11344.29 19504.05 M -11230 19504.05 -11230 19904.05 -11268.1 19846.9 -11306.19 19808.81 -11344.29 19789.76 M -11496.67 -206.31 -11515.72 -225.36 -11572.86 -244.4 -11610.95 -244.4 -11668.1 -225.36 -11706.19 -187.26 -11725.24 -149.17 -11744.29 -72.97 -11744.29 -15.83 -11725.24 60.36 -11706.19 98.45 -11668.1 136.55 -11610.95 155.6 -11572.86 155.6 -11515.72 136.55 -11496.67 117.5 M -11363.33 155.6 -11115.72 155.6 -11249.05 3.22 -11191.91 3.22 -11153.81 -15.83 -11134.76 -34.88 -11115.72 -72.97 -11115.72 -168.21 -11134.76 -206.31 -11153.81 -225.36 -11191.91 -244.4 -11306.19 -244.4 -11344.29 -225.36 -11363.33 -206.31 M -11287.14 5648.33 -11268.1 5629.29 -11249.05 5572.14 -11249.05 5534.05 -11268.1 5476.91 -11306.19 5438.81 -11344.29 5419.76 -11420.48 5400.72 -11477.62 5400.72 -11553.81 5419.76 -11591.91 5438.81 -11630 5476.91 -11649.05 5534.05 -11649.05 5572.14 -11630 5629.29 -11610.95 5648.33 M -11610.95 5800.72 -11630 5819.76 -11649.05 5857.86 -11649.05 5953.1 -11630 5991.19 -11610.95 6010.24 -11572.86 6029.29 -11534.76 6029.29 -11477.62 6010.24 -11249.05 5781.67 -11249.05 6029.29 M -11496.67 21447.14 -11515.72 21428.1 -11572.86 21409.05 -11610.95 21409.05 -11668.1 21428.1 -11706.19 21466.19 -11725.24 21504.29 -11744.29 21580.48 -11744.29 21637.62 -11725.24 21713.81 -11706.19 21751.91 -11668.1 21790 -11610.95 21809.05 -11572.86 21809.05 -11515.72 21790 -11496.67 21770.95 M -11115.72 21409.05 -11344.29 21409.05 M -11230 21409.05 -11230 21809.05 -11268.1 21751.91 -11306.19 21713.81 -11344.29 21694.76 M -7915.24 -244.4 -7915.24 155.6 -7820 155.6 -7762.86 136.55 -7724.76 98.45 -7705.71 60.36 -7686.67 -15.83 -7686.67 -72.97 -7705.71 -149.17 -7724.76 -187.26 -7762.86 -225.36 -7820 -244.4 -7915.24 -244.4 M -7305.71 -244.4 -7534.29 -244.4 M -7420 -244.4 -7420 155.6 -7458.1 98.45 -7496.19 60.36 -7534.29 41.31" fill="none" stroke-width="60"/></g></svg>