<svg version="1.1" xmlns="http://www.w3.org/2000/svg" xmlns:xlink="http://www.w3.org/1999/xlink" stroke-linecap="round" stroke-linejoin="round" stroke-width="0" fill-rule="evenodd" clip-rule="evenodd" id="Fwd6w2RFgCve_bottom" viewBox="99060 -105410 20320 33020" width="20.32mm" height="33.02mm"><defs><style>.Fwd6w2RFgCve_fr4 {color: #666666;}
.Fwd6w2RFgCve_cu {color: #cccccc;}
.Fwd6w2RFgCve_cf {color: #cc9933;}
.Fwd6w2RFgCve_sm {color: #004200; opacity: 0.75;}
.Fwd6w2RFgCve_ss {color: #ffffff;}
.Fwd6w2RFgCve_sp {color: #999999;}
.Fwd6w2RFgCve_out {color: #000000;}</style><circle cx="0" cy="0" r="100" id="qfLa77H4TFNr_pad-1"/><circle cx="0" cy="0" r="500" id="qfLa77H4TFNr_pad-2"/><circle cx="0" cy="0" r="450" id="qfLa77H4TFNr_pad-3"/><g id="Fwd6w2RFgCve_bottom_drill1"><use xlink:href="#qfLa77H4TFNr_pad-1" x="99949" y="-89027"/><use xlink:href="#qfLa77H4TFNr_pad-1" x="99949" y="-89789"/><use xlink:href="#qfLa77H4TFNr_pad-1" x="99949" y="-90551"/><use xlink:href="#qfLa77H4TFNr_pad-1" x="99949" y="-91313"/><use xlink:href="#qfLa77H4TFNr_pad-1" x="100965" y="-85090"/><use xlink:href="#qfLa77H4TFNr_pad-1" x="102616" y="-82550"/><use xlink:href="#qfLa77H4TFNr_pad-1" x="102616" y="-85090"/><use xlink:href="#qfLa77H4TFNr_pad-1" x="102616" y="-90170"/><use xlink:href="#qfLa77H4TFNr_pad-1" x="103251" y="-96647"/><use xlink:href="#qfLa77H4TFNr_pad-1" x="105029" y="-92710"/><use xlink:href="#qfLa77H4TFNr_pad-1" x="105283" y="-90170"/><use xlink:href="#qfLa77H4TFNr_pad-1" x="105791" y="-77470"/><use xlink:href="#qfLa77H4TFNr_pad-1" x="105918" y="-78740"/><use xlink:href="#qfLa77H4TFNr_pad-1" x="106553" y="-75819"/><use xlink:href="#qfLa77H4TFNr_pad-1" x="106553" y="-76835"/><use xlink:href="#qfLa77H4TFNr_pad-1" x="106680" y="-97790"/><use xlink:href="#qfLa77H4TFNr_pad-1" x="106807" y="-83566"/><use xlink:href="#qfLa77H4TFNr_pad-1" x="107188" y="-104140"/><use xlink:href="#qfLa77H4TFNr_pad-1" x="107442" y="-82550"/><use xlink:href="#qfLa77H4TFNr_pad-1" x="107492" y="-90442"/><use xlink:href="#qfLa77H4TFNr_pad-1" x="107537" y="-85185"/><use xlink:href="#qfLa77H4TFNr_pad-1" x="107620" y="-95961"/><use xlink:href="#qfLa77H4TFNr_pad-1" x="107823" y="-83566"/><use xlink:href="#qfLa77H4TFNr_pad-1" x="107950" y="-100330"/><use xlink:href="#qfLa77H4TFNr_pad-1" x="108113" y="-94996"/><use xlink:href="#qfLa77H4TFNr_pad-1" x="108204" y="-86995"/><use xlink:href="#qfLa77H4TFNr_pad-1" x="108585" y="-76835"/><use xlink:href="#qfLa77H4TFNr_pad-1" x="109220" y="-100330"/><use xlink:href="#qfLa77H4TFNr_pad-1" x="109537" y="-87122"/><use xlink:href="#qfLa77H4TFNr_pad-1" x="109855" y="-75692"/><use xlink:href="#qfLa77H4TFNr_pad-1" x="109855" y="-76835"/><use xlink:href="#qfLa77H4TFNr_pad-1" x="110051" y="-87630"/><use xlink:href="#qfLa77H4TFNr_pad-1" x="110363" y="-83820"/><use xlink:href="#qfLa77H4TFNr_pad-1" x="110490" y="-82550"/><use xlink:href="#qfLa77H4TFNr_pad-1" x="110871" y="-90424"/><use xlink:href="#qfLa77H4TFNr_pad-1" x="111125" y="-95504"/><use xlink:href="#qfLa77H4TFNr_pad-1" x="111252" y="-104140"/><use xlink:href="#qfLa77H4TFNr_pad-1" x="111760" y="-82931"/><use xlink:href="#qfLa77H4TFNr_pad-1" x="112014" y="-75565"/><use xlink:href="#qfLa77H4TFNr_pad-1" x="112395" y="-93345"/><use xlink:href="#qfLa77H4TFNr_pad-1" x="112522" y="-76962"/><use xlink:href="#qfLa77H4TFNr_pad-1" x="112649" y="-89027"/><use xlink:href="#qfLa77H4TFNr_pad-1" x="112903" y="-81280"/><use xlink:href="#qfLa77H4TFNr_pad-1" x="113030" y="-95377"/><use xlink:href="#qfLa77H4TFNr_pad-1" x="113284" y="-89535"/><use xlink:href="#qfLa77H4TFNr_pad-1" x="113665" y="-88519"/><use xlink:href="#qfLa77H4TFNr_pad-1" x="113665" y="-99568"/><use xlink:href="#qfLa77H4TFNr_pad-1" x="114300" y="-78994"/><use xlink:href="#qfLa77H4TFNr_pad-1" x="114495" y="-84582"/><use xlink:href="#qfLa77H4TFNr_pad-1" x="114681" y="-89281"/><use xlink:href="#qfLa77H4TFNr_pad-1" x="114681" y="-90170"/><use xlink:href="#qfLa77H4TFNr_pad-1" x="114681" y="-100330"/><use xlink:href="#qfLa77H4TFNr_pad-1" x="114979" y="-87564"/><use xlink:href="#qfLa77H4TFNr_pad-1" x="114995" y="-85217"/><use xlink:href="#qfLa77H4TFNr_pad-1" x="115562" y="-84074"/><use xlink:href="#qfLa77H4TFNr_pad-1" x="116205" y="-90170"/><use xlink:href="#qfLa77H4TFNr_pad-1" x="116205" y="-102870"/><use xlink:href="#qfLa77H4TFNr_pad-1" x="118491" y="-89027"/><use xlink:href="#qfLa77H4TFNr_pad-1" x="118491" y="-89789"/><use xlink:href="#qfLa77H4TFNr_pad-1" x="118491" y="-90551"/><use xlink:href="#qfLa77H4TFNr_pad-1" x="118491" y="-91313"/><use xlink:href="#qfLa77H4TFNr_pad-2" x="102870" y="-73660"/><use xlink:href="#qfLa77H4TFNr_pad-2" x="105410" y="-73660"/><use xlink:href="#qfLa77H4TFNr_pad-2" x="107950" y="-73660"/><use xlink:href="#qfLa77H4TFNr_pad-2" x="110490" y="-73660"/><use xlink:href="#qfLa77H4TFNr_pad-2" x="113030" y="-73660"/><use xlink:href="#qfLa77H4TFNr_pad-2" x="115570" y="-73660"/><use xlink:href="#qfLa77H4TFNr_pad-2" x="101600" y="-76200"/><use xlink:href="#qfLa77H4TFNr_pad-2" x="101600" y="-78740"/><use xlink:href="#qfLa77H4TFNr_pad-2" x="101600" y="-81280"/><use xlink:href="#qfLa77H4TFNr_pad-2" x="101600" y="-83820"/><use xlink:href="#qfLa77H4TFNr_pad-2" x="101600" y="-86360"/><use xlink:href="#qfLa77H4TFNr_pad-2" x="101600" y="-88900"/><use xlink:href="#qfLa77H4TFNr_pad-2" x="101600" y="-91440"/><use xlink:href="#qfLa77H4TFNr_pad-2" x="101600" y="-93980"/><use xlink:href="#qfLa77H4TFNr_pad-2" x="101600" y="-96520"/><use xlink:href="#qfLa77H4TFNr_pad-2" x="101600" y="-99060"/><use xlink:href="#qfLa77H4TFNr_pad-2" x="101600" y="-101600"/><use xlink:href="#qfLa77H4TFNr_pad-2" x="101600" y="-104140"/><use xlink:href="#qfLa77H4TFNr_pad-2" x="116840" y="-76200"/><use xlink:href="#qfLa77H4TFNr_pad-2" x="116840" y="-78740"/><use xlink:href="#qfLa77H4TFNr_pad-2" x="116840" y="-81280"/><use xlink:href="#qfLa77H4TFNr_pad-2" x="116840" y="-83820"/><use xlink:href="#qfLa77H4TFNr_pad-2" x="116840" y="-86360"/><use xlink:href="#qfLa77H4TFNr_pad-2" x="116840" y="-88900"/><use xlink:href="#qfLa77H4TFNr_pad-2" x="116840" y="-91440"/><use xlink:href="#qfLa77H4TFNr_pad-2" x="116840" y="-93980"/><use xlink:href="#qfLa77H4TFNr_pad-2" x="116840" y="-96520"/><use xlink:href="#qfLa77H4TFNr_pad-2" x="116840" y="-99060"/><use xlink:href="#qfLa77H4TFNr_pad-2" x="116840" y="-101600"/><use xlink:href="#qfLa77H4TFNr_pad-2" x="116840" y="-104140"/><use xlink:href="#qfLa77H4TFNr_pad-3" x="107020" y="-100330"/><use xlink:href="#qfLa77H4TFNr_pad-3" x="111420" y="-100330"/></g><g id="Fwd6w2RFgCve_bottom_drill2"><path d="M 100330 -73025 100330 -87630 M 100330 -92710 100330 -104775 M 99060 -91440 A 1270 1270 0 0 0 100330 -92710 M 100330 -87630 A 1270 1270 0 0 0 99060 -88900 M 99060 -91440 99060 -88900 M 118110 -73025 118110 -87630 M 119380 -88900 119380 -91440 M 118110 -92710 A 1270 1270 0 0 0 119380 -91440 M 119380 -88900 A 1270 1270 0 0 0 118110 -87630 M 100965 -105410 A 635 635 0 0 0 100330 -104775 M 118110 -104775 A 635 635 0 0 0 117475 -105410 M 117475 -72390 A 635 635 0 0 0 118110 -73025 M 100330 -73025 A 635 635 0 0 0 100965 -72390 M 117475 -105410 100965 -105410 M 118110 -92710 118110 -104775 M 100965 -72390 117475 -72390 M 107080 -86525 107080 -84925 M 106280 -86525 107080 -86525 M 106280 -84925 106280 -86525 M 107080 -84925 106280 -84925 M 107080 -89700 107080 -88100 M 106280 -89700 107080 -89700 M 106280 -88100 106280 -89700 M 107080 -88100 106280 -88100 M 111360 -84925 111360 -86525 M 112160 -84925 111360 -84925 M 112160 -86525 112160 -84925 M 111360 -86525 112160 -86525 M 111360 -88100 111360 -89700 M 112160 -88100 111360 -88100 M 112160 -89700 112160 -88100 M 111360 -89700 112160 -89700 M 109970 -89130 110720 -88380 M 107720 -89130 109970 -89130 M 107720 -86130 107720 -89130 M 110720 -86130 107720 -86130 M 110720 -88380 110720 -86130 M 112795 -104152.5 112795 -102552.5 M 111995 -104152.5 112795 -104152.5 M 111995 -102552.5 111995 -104152.5 M 112795 -102552.5 111995 -102552.5 M 105645 -102552.5 105645 -104152.5 M 106445 -102552.5 105645 -102552.5 M 106445 -104152.5 106445 -102552.5 M 105645 -104152.5 106445 -104152.5 M 110770 -102140 107670 -102140 107670 -103940 M 110120 -103940 107670 -103940 M 110770 -102140 110770 -103290 M 110120 -103940 110770 -103290 M 103740 -102552.5 103740 -104152.5 M 104540 -102552.5 103740 -102552.5 M 104540 -104152.5 104540 -102552.5 M 103740 -104152.5 104540 -104152.5" fill="none" stroke-width="100"/><path d="M 107657.62 -85034.52 107610 -85082.14 107562.38 -85177.38 107562.38 -85415.48 107610 -85510.71 107657.62 -85558.33 107752.86 -85605.95 107848.1 -85605.95 107990.95 -85558.33 108562.38 -84986.9 108562.38 -85605.95 M 108562.38 -86034.52 107562.38 -86034.52 M 108181.43 -86129.76 108562.38 -86415.48 M 107895.71 -86415.48 108276.67 -86034.52" fill="none" stroke-width="150"/><path d="M 106860.95 -85467.86 106670.48 -85334.52 M 106860.95 -85239.29 106460.95 -85239.29 106460.95 -85391.67 106480 -85429.76 106499.05 -85448.81 106537.14 -85467.86 106594.29 -85467.86 106632.38 -85448.81 106651.43 -85429.76 106670.48 -85391.67 106670.48 -85239.29 M 106499.05 -85620.24 106480 -85639.29 106460.95 -85677.38 106460.95 -85772.62 106480 -85810.71 106499.05 -85829.76 106537.14 -85848.81 106575.24 -85848.81 106632.38 -85829.76 106860.95 -85601.19 106860.95 -85848.81 M 106460.95 -85982.14 106460.95 -86229.76 106613.33 -86096.43 106613.33 -86153.57 106632.38 -86191.67 106651.43 -86210.71 106689.52 -86229.76 106784.76 -86229.76 106822.86 -86210.71 106841.9 -86191.67 106860.95 -86153.57 106860.95 -86039.29 106841.9 -86001.19 106822.86 -85982.14" fill="none" stroke-width="60"/><path d="M 108562.38 -88304.76 108562.38 -87733.33 M 108562.38 -88019.05 107562.38 -88019.05 107705.24 -87923.81 107800.48 -87828.57 107848.1 -87733.33 M 107562.38 -88923.81 107562.38 -89019.05 107610 -89114.29 107657.62 -89161.9 107752.86 -89209.52 107943.33 -89257.14 108181.43 -89257.14 108371.9 -89209.52 108467.14 -89161.9 108514.76 -89114.29 108562.38 -89019.05 108562.38 -88923.81 108514.76 -88828.57 108467.14 -88780.95 108371.9 -88733.33 108181.43 -88685.71 107943.33 -88685.71 107752.86 -88733.33 107657.62 -88780.95 107610 -88828.57 107562.38 -88923.81 M 108562.38 -89685.71 107562.38 -89685.71 M 108181.43 -89780.95 108562.38 -90066.67 M 107895.71 -90066.67 108276.67 -89685.71" fill="none" stroke-width="150"/><path d="M 106860.95 -88642.86 106670.48 -88509.52 M 106860.95 -88414.29 106460.95 -88414.29 106460.95 -88566.67 106480 -88604.76 106499.05 -88623.81 106537.14 -88642.86 106594.29 -88642.86 106632.38 -88623.81 106651.43 -88604.76 106670.48 -88566.67 106670.48 -88414.29 M 106499.05 -88795.24 106480 -88814.29 106460.95 -88852.38 106460.95 -88947.62 106480 -88985.71 106499.05 -89004.76 106537.14 -89023.81 106575.24 -89023.81 106632.38 -89004.76 106860.95 -88776.19 106860.95 -89023.81 M 106860.95 -89404.76 106860.95 -89176.19 M 106860.95 -89290.48 106460.95 -89290.48 106518.1 -89252.38 106556.19 -89214.29 106575.24 -89176.19" fill="none" stroke-width="60"/><path d="M 110782.38 -85129.76 110782.38 -84558.33 M 110782.38 -84844.05 109782.38 -84844.05 109925.24 -84748.81 110020.48 -84653.57 110068.1 -84558.33 M 109782.38 -85748.81 109782.38 -85844.05 109830 -85939.29 109877.62 -85986.9 109972.86 -86034.52 110163.33 -86082.14 110401.43 -86082.14 110591.9 -86034.52 110687.14 -85986.9 110734.76 -85939.29 110782.38 -85844.05 110782.38 -85748.81 110734.76 -85653.57 110687.14 -85605.95 110591.9 -85558.33 110401.43 -85510.71 110163.33 -85510.71 109972.86 -85558.33 109877.62 -85605.95 109830 -85653.57 109782.38 -85748.81 M 110782.38 -86510.71 109782.38 -86510.71 M 110401.43 -86605.95 110782.38 -86891.67 M 110115.71 -86891.67 110496.67 -86510.71" fill="none" stroke-width="150"/><path d="M 111940.95 -85467.86 111750.48 -85334.52 M 111940.95 -85239.29 111540.95 -85239.29 111540.95 -85391.67 111560 -85429.76 111579.05 -85448.81 111617.14 -85467.86 111674.29 -85467.86 111712.38 -85448.81 111731.43 -85429.76 111750.48 -85391.67 111750.48 -85239.29 M 111579.05 -85620.24 111560 -85639.29 111540.95 -85677.38 111540.95 -85772.62 111560 -85810.71 111579.05 -85829.76 111617.14 -85848.81 111655.24 -85848.81 111712.38 -85829.76 111940.95 -85601.19 111940.95 -85848.81 M 111540.95 -86096.43 111540.95 -86134.52 111560 -86172.62 111579.05 -86191.67 111617.14 -86210.71 111693.33 -86229.76 111788.57 -86229.76 111864.76 -86210.71 111902.86 -86191.67 111921.9 -86172.62 111940.95 -86134.52 111940.95 -86096.43 111921.9 -86058.33 111902.86 -86039.29 111864.76 -86020.24 111788.57 -86001.19 111693.33 -86001.19 111617.14 -86020.24 111579.05 -86039.29 111560 -86058.33 111540.95 -86096.43" fill="none" stroke-width="60"/><path d="M 110782.38 -88304.76 110782.38 -87733.33 M 110782.38 -88019.05 109782.38 -88019.05 109925.24 -87923.81 110020.48 -87828.57 110068.1 -87733.33 M 109782.38 -88923.81 109782.38 -89019.05 109830 -89114.29 109877.62 -89161.9 109972.86 -89209.52 110163.33 -89257.14 110401.43 -89257.14 110591.9 -89209.52 110687.14 -89161.9 110734.76 -89114.29 110782.38 -89019.05 110782.38 -88923.81 110734.76 -88828.57 110687.14 -88780.95 110591.9 -88733.33 110401.43 -88685.71 110163.33 -88685.71 109972.86 -88733.33 109877.62 -88780.95 109830 -88828.57 109782.38 -88923.81 M 110782.38 -89685.71 109782.38 -89685.71 M 110401.43 -89780.95 110782.38 -90066.67 M 110115.71 -90066.67 110496.67 -89685.71" fill="none" stroke-width="150"/><path d="M 111940.95 -88642.86 111750.48 -88509.52 M 111940.95 -88414.29 111540.95 -88414.29 111540.95 -88566.67 111560 -88604.76 111579.05 -88623.81 111617.14 -88642.86 111674.29 -88642.86 111712.38 -88623.81 111731.43 -88604.76 111750.48 -88566.67 111750.48 -88414.29 M 111940.95 -89023.81 111940.95 -88795.24 M 111940.95 -88909.52 111540.95 -88909.52 111598.1 -88871.43 111636.19 -88833.33 111655.24 -88795.24 M 111940.95 -89214.29 111940.95 -89290.48 111921.9 -89328.57 111902.86 -89347.62 111845.71 -89385.71 111769.52 -89404.76 111617.14 -89404.76 111579.05 -89385.71 111560 -89366.67 111540.95 -89328.57 111540.95 -89252.38 111560 -89214.29 111579.05 -89195.24 111617.14 -89176.19 111712.38 -89176.19 111750.48 -89195.24 111769.52 -89214.29 111788.57 -89252.38 111788.57 -89328.57 111769.52 -89366.67 111750.48 -89385.71 111712.38 -89404.76" fill="none" stroke-width="60"/><path d="M 109444.29 -87058.57 110051.43 -87058.57 110122.86 -87094.29 110158.57 -87130 110194.29 -87201.43 110194.29 -87344.29 110158.57 -87415.71 110122.86 -87451.43 110051.43 -87487.14 109444.29 -87487.14 M 109515.71 -87808.57 109480 -87844.29 109444.29 -87915.71 109444.29 -88094.29 109480 -88165.71 109515.71 -88201.43 109587.14 -88237.14 109658.57 -88237.14 109765.71 -88201.43 110194.29 -87772.86 110194.29 -88237.14" fill="none" stroke-width="110"/><path d="M 112537.86 -103095.36 112556.9 -103076.31 112575.95 -103019.17 112575.95 -102981.07 112556.9 -102923.93 112518.81 -102885.83 112480.71 -102866.79 112404.52 -102847.74 112347.38 -102847.74 112271.19 -102866.79 112233.09 -102885.83 112195 -102923.93 112175.95 -102981.07 112175.95 -103019.17 112195 -103076.31 112214.05 -103095.36 M 112575.95 -103476.31 112575.95 -103247.74 M 112575.95 -103362.02 112175.95 -103362.02 112233.09 -103323.93 112271.19 -103285.83 112290.24 -103247.74 M 112309.28 -103819.17 112575.95 -103819.17 M 112156.9 -103723.93 112442.62 -103628.69 112442.62 -103876.31 M 106187.86 -103095.36 106206.9 -103076.31 106225.95 -103019.17 106225.95 -102981.07 106206.9 -102923.93 106168.81 -102885.83 106130.71 -102866.79 106054.52 -102847.74 105997.38 -102847.74 105921.19 -102866.79 105883.1 -102885.83 105845 -102923.93 105825.95 -102981.07 105825.95 -103019.17 105845 -103076.31 105864.05 -103095.36 M 106225.95 -103476.31 106225.95 -103247.74 M 106225.95 -103362.02 105825.95 -103362.02 105883.1 -103323.93 105921.19 -103285.83 105940.24 -103247.74 M 105825.95 -103609.64 105825.95 -103857.26 105978.33 -103723.93 105978.33 -103781.07 105997.38 -103819.17 106016.43 -103838.21 106054.52 -103857.26 106149.76 -103857.26 106187.86 -103838.21 106206.9 -103819.17 106225.95 -103781.07 106225.95 -103666.79 106206.9 -103628.69 106187.86 -103609.64" fill="none" stroke-width="60"/><path d="M 109600.95 -102766.19 109600.95 -103170.95 109577.14 -103218.57 109553.33 -103242.38 109505.71 -103266.19 109410.48 -103266.19 109362.86 -103242.38 109339.05 -103218.57 109315.24 -103170.95 109315.24 -102766.19 M 109124.76 -102766.19 108815.24 -102766.19 108981.9 -102956.67 108910.48 -102956.67 108862.86 -102980.48 108839.05 -103004.29 108815.24 -103051.9 108815.24 -103170.95 108839.05 -103218.57 108862.86 -103242.38 108910.48 -103266.19 109053.33 -103266.19 109100.95 -103242.38 109124.76 -103218.57" fill="none" stroke-width="75"/><path d="M 104320.95 -103285.83 104320.95 -103095.36 103920.95 -103095.36 M 104320.95 -103628.69 104320.95 -103400.12 M 104320.95 -103514.4 103920.95 -103514.4 103978.1 -103476.31 104016.19 -103438.21 104035.24 -103400.12" fill="none" stroke-width="60"/></g><clipPath id="Fwd6w2RFgCve_bottom_outline"><path d="M 100330 -73025 100330 -87630 A 1270 1270 0 0 0 99060 -88900 L 99060 -91440 A 1270 1270 0 0 0 100330 -92710 L 100330 -104775 A 635 635 0 0 1 100965 -105410 L 117475 -105410 A 635 635 0 0 1 118110 -104775 L 118110 -92710 A 1270 1270 0 0 0 119380 -91440 L 119380 -88900 A 1270 1270 0 0 0 118110 -87630 L 118110 -73025 A 635 635 0 0 1 117475 -72390 L 100965 -72390 A 635 635 0 0 1 100330 -73025" fill="none" stroke-width="100"/></clipPath><mask id="Fwd6w2RFgCve_bottom_mech-mask"><g fill="#000" stroke="#000"><rect x="99060" y="-105410" width="20320" height="33020" fill="#fff"/><use xlink:href="#Fwd6w2RFgCve_bottom_drill1"/><use xlink:href="#Fwd6w2RFgCve_bottom_drill2"/></g></mask></defs><g transform="translate(0,-177800) scale(1,-1)"><g mask="url(#Fwd6w2RFgCve_bottom_mech-mask)" clip-path="url(#Fwd6w2RFgCve_bottom_outline)" transform="translate(218440,0) scale(-1,1)"><rect x="99060" y="-105410" width="20320" height="33020" fill="currentColor" class="Fwd6w2RFgCve_fr4"/></g></g></svg>