<svg version="1.1" xmlns="http://www.w3.org/2000/svg" xmlns:xlink="http://www.w3.org/1999/xlink" stroke-linecap="round" stroke-linejoin="round" stroke-width="0" fill-rule="evenodd" clip-rule="evenodd" id="cCfQkrXoIUil_bottom" viewBox="120650 -113030 20320 30480" width="20.32mm" height="30.48mm"><defs><style>.cCfQkrXoIUil_fr4 {color: #666666;}
.cCfQkrXoIUil_cu {color: #cccccc;}
.cCfQkrXoIUil_cf {color: #cc9933;}
.cCfQkrXoIUil_sm {color: #004200; opacity: 0.75;}
.cCfQkrXoIUil_ss {color: #ffffff;}
.cCfQkrXoIUil_sp {color: #999999;}
.cCfQkrXoIUil_out {color: #000000;}</style><circle cx="0" cy="0" r="100" id="mhv-OpGUH81f_pad-1"/><circle cx="0" cy="0" r="150" id="mhv-OpGUH81f_pad-2"/><circle cx="0" cy="0" r="500" id="mhv-OpGUH81f_pad-3"/><g id="cCfQkrXoIUil_bottom_drill1"><use xlink:href="#mhv-OpGUH81f_pad-1" x="127127" y="-86233"/><use xlink:href="#mhv-OpGUH81f_pad-1" x="127635" y="-97790"/><use xlink:href="#mhv-OpGUH81f_pad-1" x="127739" y="-89177"/><use xlink:href="#mhv-OpGUH81f_pad-1" x="128524" y="-105791"/><use xlink:href="#mhv-OpGUH81f_pad-1" x="128524" y="-106807"/><use xlink:href="#mhv-OpGUH81f_pad-1" x="128524" y="-107950"/><use xlink:href="#mhv-OpGUH81f_pad-1" x="128651" y="-86804"/><use xlink:href="#mhv-OpGUH81f_pad-1" x="128778" y="-96647"/><use xlink:href="#mhv-OpGUH81f_pad-1" x="128905" y="-92456"/><use xlink:href="#mhv-OpGUH81f_pad-1" x="129540" y="-109728"/><use xlink:href="#mhv-OpGUH81f_pad-1" x="130048" y="-108839"/><use xlink:href="#mhv-OpGUH81f_pad-1" x="130175" y="-103505"/><use xlink:href="#mhv-OpGUH81f_pad-1" x="130619" y="-86229"/><use xlink:href="#mhv-OpGUH81f_pad-1" x="131572" y="-108839"/><use xlink:href="#mhv-OpGUH81f_pad-1" x="131699" y="-105791"/><use xlink:href="#mhv-OpGUH81f_pad-1" x="131699" y="-106807"/><use xlink:href="#mhv-OpGUH81f_pad-1" x="132080" y="-109728"/><use xlink:href="#mhv-OpGUH81f_pad-1" x="132715" y="-97155"/><use xlink:href="#mhv-OpGUH81f_pad-1" x="133858" y="-106680"/><use xlink:href="#mhv-OpGUH81f_pad-1" x="133985" y="-95250"/><use xlink:href="#mhv-OpGUH81f_pad-1" x="133985" y="-97790"/><use xlink:href="#mhv-OpGUH81f_pad-1" x="134112" y="-87249"/><use xlink:href="#mhv-OpGUH81f_pad-1" x="135890" y="-103759"/><use xlink:href="#mhv-OpGUH81f_pad-1" x="136525" y="-85090"/><use xlink:href="#mhv-OpGUH81f_pad-1" x="136525" y="-90170"/><use xlink:href="#mhv-OpGUH81f_pad-2" x="121285" y="-96647"/><use xlink:href="#mhv-OpGUH81f_pad-2" x="121285" y="-97409"/><use xlink:href="#mhv-OpGUH81f_pad-2" x="121285" y="-98171"/><use xlink:href="#mhv-OpGUH81f_pad-2" x="121285" y="-98933"/><use xlink:href="#mhv-OpGUH81f_pad-2" x="123825" y="-85090"/><use xlink:href="#mhv-OpGUH81f_pad-2" x="123825" y="-90170"/><use xlink:href="#mhv-OpGUH81f_pad-2" x="125730" y="-104140"/><use xlink:href="#mhv-OpGUH81f_pad-2" x="125730" y="-108331"/><use xlink:href="#mhv-OpGUH81f_pad-2" x="125984" y="-91694"/><use xlink:href="#mhv-OpGUH81f_pad-2" x="127635" y="-104140"/><use xlink:href="#mhv-OpGUH81f_pad-2" x="128651" y="-93853"/><use xlink:href="#mhv-OpGUH81f_pad-2" x="128905" y="-102235"/><use xlink:href="#mhv-OpGUH81f_pad-2" x="129286" y="-96012"/><use xlink:href="#mhv-OpGUH81f_pad-2" x="129413" y="-84455"/><use xlink:href="#mhv-OpGUH81f_pad-2" x="129921" y="-101219"/><use xlink:href="#mhv-OpGUH81f_pad-2" x="130556" y="-97409"/><use xlink:href="#mhv-OpGUH81f_pad-2" x="130810" y="-93345"/><use xlink:href="#mhv-OpGUH81f_pad-2" x="130937" y="-99949"/><use xlink:href="#mhv-OpGUH81f_pad-2" x="131826" y="-84455"/><use xlink:href="#mhv-OpGUH81f_pad-2" x="131953" y="-96012"/><use xlink:href="#mhv-OpGUH81f_pad-2" x="131953" y="-98679"/><use xlink:href="#mhv-OpGUH81f_pad-2" x="132080" y="-93345"/><use xlink:href="#mhv-OpGUH81f_pad-2" x="132080" y="-103505"/><use xlink:href="#mhv-OpGUH81f_pad-2" x="133985" y="-100584"/><use xlink:href="#mhv-OpGUH81f_pad-2" x="135890" y="-111760"/><use xlink:href="#mhv-OpGUH81f_pad-2" x="136017" y="-86995"/><use xlink:href="#mhv-OpGUH81f_pad-2" x="136144" y="-92964"/><use xlink:href="#mhv-OpGUH81f_pad-2" x="137160" y="-95250"/><use xlink:href="#mhv-OpGUH81f_pad-2" x="137414" y="-87630"/><use xlink:href="#mhv-OpGUH81f_pad-2" x="140335" y="-96647"/><use xlink:href="#mhv-OpGUH81f_pad-2" x="140335" y="-97409"/><use xlink:href="#mhv-OpGUH81f_pad-2" x="140335" y="-98171"/><use xlink:href="#mhv-OpGUH81f_pad-2" x="140335" y="-98933"/><use xlink:href="#mhv-OpGUH81f_pad-3" x="123190" y="-83820"/><use xlink:href="#mhv-OpGUH81f_pad-3" x="123190" y="-86360"/><use xlink:href="#mhv-OpGUH81f_pad-3" x="123190" y="-88900"/><use xlink:href="#mhv-OpGUH81f_pad-3" x="123190" y="-91440"/><use xlink:href="#mhv-OpGUH81f_pad-3" x="123190" y="-93980"/><use xlink:href="#mhv-OpGUH81f_pad-3" x="123190" y="-96520"/><use xlink:href="#mhv-OpGUH81f_pad-3" x="123190" y="-99060"/><use xlink:href="#mhv-OpGUH81f_pad-3" x="123190" y="-101600"/><use xlink:href="#mhv-OpGUH81f_pad-3" x="123190" y="-104140"/><use xlink:href="#mhv-OpGUH81f_pad-3" x="123190" y="-106680"/><use xlink:href="#mhv-OpGUH81f_pad-3" x="123190" y="-109220"/><use xlink:href="#mhv-OpGUH81f_pad-3" x="123190" y="-111760"/><use xlink:href="#mhv-OpGUH81f_pad-3" x="138430" y="-83820"/><use xlink:href="#mhv-OpGUH81f_pad-3" x="138430" y="-86360"/><use xlink:href="#mhv-OpGUH81f_pad-3" x="138430" y="-88900"/><use xlink:href="#mhv-OpGUH81f_pad-3" x="138430" y="-91440"/><use xlink:href="#mhv-OpGUH81f_pad-3" x="138430" y="-93980"/><use xlink:href="#mhv-OpGUH81f_pad-3" x="138430" y="-96520"/><use xlink:href="#mhv-OpGUH81f_pad-3" x="138430" y="-99060"/><use xlink:href="#mhv-OpGUH81f_pad-3" x="138430" y="-101600"/><use xlink:href="#mhv-OpGUH81f_pad-3" x="138430" y="-104140"/><use xlink:href="#mhv-OpGUH81f_pad-3" x="138430" y="-106680"/><use xlink:href="#mhv-OpGUH81f_pad-3" x="138430" y="-109220"/><use xlink:href="#mhv-OpGUH81f_pad-3" x="138430" y="-111760"/></g><g id="cCfQkrXoIUil_bottom_drill2"><path d="M 140970 -96520 140970 -99060 M 139700 -100330 A 1270 1270 0 0 0 140970 -99060 M 139700 -100330 139700 -112395 M 140970 -96520 A 1270 1270 0 0 0 139700 -95250 M 139700 -83185 139700 -95250 M 120650 -99060 120650 -96520 M 120650 -99060 A 1270 1270 0 0 0 121920 -100330 M 121920 -112395 121920 -100330 M 121920 -95250 A 1270 1270 0 0 0 120650 -96520 M 122555 -113030 A 635 635 0 0 0 121920 -112395 M 121920 -83185 A 635 635 0 0 0 122555 -82550 M 139065 -82550 A 635 635 0 0 0 139700 -83185 M 139700 -112395 A 635 635 0 0 0 139065 -113030 M 122555 -82550 139065 -82550 M 121920 -95250 121920 -83185 M 139065 -113030 122555 -113030" fill="none" stroke-width="100"/></g><clipPath id="cCfQkrXoIUil_bottom_outline"><path d="M 140970 -96520 140970 -99060 A 1270 1270 0 0 1 139700 -100330 L 139700 -112395 A 635 635 0 0 0 139065 -113030 L 122555 -113030 A 635 635 0 0 0 121920 -112395 L 121920 -100330 A 1270 1270 0 0 1 120650 -99060 L 120650 -96520 A 1270 1270 0 0 1 121920 -95250 L 121920 -83185 A 635 635 0 0 0 122555 -82550 L 139065 -82550 A 635 635 0 0 0 139700 -83185 L 139700 -95250 A 1270 1270 0 0 1 140970 -96520" fill="none" stroke-width="100"/></clipPath><mask id="cCfQkrXoIUil_bottom_mech-mask"><g fill="#000" stroke="#000"><rect x="120650" y="-113030" width="20320" height="30480" fill="#fff"/><use xlink:href="#cCfQkrXoIUil_bottom_drill1"/><use xlink:href="#cCfQkrXoIUil_bottom_drill2"/></g></mask></defs><g transform="translate(0,-195580) scale(1,-1)"><g mask="url(#cCfQkrXoIUil_bottom_mech-mask)" clip-path="url(#cCfQkrXoIUil_bottom_outline)" transform="translate(261620,0) scale(-1,1)"><rect x="120650" y="-113030" width="20320" height="30480" fill="currentColor" class="cCfQkrXoIUil_fr4"/></g></g></svg>