<svg version="1.1" xmlns="http://www.w3.org/2000/svg" xmlns:xlink="http://www.w3.org/1999/xlink" stroke-linecap="round" stroke-linejoin="round" stroke-width="0" fill-rule="evenodd" clip-rule="evenodd" id="Fzr4dgTq4nmt_bottom" viewBox="-1270 -1270 17780 27940" width="17.78mm" height="27.94mm"><defs><style>.Fzr4dgTq4nmt_fr4 {color: #666666;}
.Fzr4dgTq4nmt_cu {color: #cccccc;}
.Fzr4dgTq4nmt_cf {color: #cc9933;}
.Fzr4dgTq4nmt_sm {color: #004200; opacity: 0.75;}
.Fzr4dgTq4nmt_ss {color: #ffffff;}
.Fzr4dgTq4nmt_sp {color: #999999;}
.Fzr4dgTq4nmt_out {color: #000000;}</style><rect x="-800" y="-800" width="1600" height="1600" rx="800" ry="800" id="NAoh6YbkpyqW_pad-11"/><rect x="-800" y="-800" width="1600" height="1600" id="NAoh6YbkpyqW_pad-12"/><circle cx="0" cy="0" r="1000" id="NAoh6YbkpyqW_pad-13"/><rect x="-800" y="-800" width="1600" height="1600" rx="800" ry="800" id="wpL5BHvUlCga_pad-14"/><rect x="-800" y="-800" width="1600" height="1600" id="wpL5BHvUlCga_pad-15"/><circle cx="0" cy="0" r="1000" id="wpL5BHvUlCga_pad-16"/><mask id="wpL5BHvUlCga_clear-1" fill="#000" stroke="#000"><g><rect x="-1460" y="-1330" width="18160" height="30600" fill="#fff"/><use xlink:href="#wpL5BHvUlCga_pad-14" x="15240" y="0"/><use xlink:href="#wpL5BHvUlCga_pad-14" x="15240" y="2540"/><use xlink:href="#wpL5BHvUlCga_pad-14" x="15240" y="5080"/><use xlink:href="#wpL5BHvUlCga_pad-14" x="0" y="27940"/><use xlink:href="#wpL5BHvUlCga_pad-14" x="15240" y="7620"/><use xlink:href="#wpL5BHvUlCga_pad-14" x="0" y="25400"/><use xlink:href="#wpL5BHvUlCga_pad-14" x="15240" y="10160"/><use xlink:href="#wpL5BHvUlCga_pad-14" x="0" y="22860"/><use xlink:href="#wpL5BHvUlCga_pad-14" x="15240" y="12700"/><use xlink:href="#wpL5BHvUlCga_pad-14" x="0" y="20320"/><use xlink:href="#wpL5BHvUlCga_pad-14" x="15240" y="15240"/><use xlink:href="#wpL5BHvUlCga_pad-14" x="0" y="17780"/><use xlink:href="#wpL5BHvUlCga_pad-14" x="15240" y="17780"/><use xlink:href="#wpL5BHvUlCga_pad-14" x="0" y="15240"/><use xlink:href="#wpL5BHvUlCga_pad-14" x="15240" y="20320"/><use xlink:href="#wpL5BHvUlCga_pad-14" x="0" y="12700"/><use xlink:href="#wpL5BHvUlCga_pad-14" x="15240" y="22860"/><use xlink:href="#wpL5BHvUlCga_pad-14" x="0" y="10160"/><use xlink:href="#wpL5BHvUlCga_pad-14" x="15240" y="25400"/><use xlink:href="#wpL5BHvUlCga_pad-14" x="0" y="7620"/><use xlink:href="#wpL5BHvUlCga_pad-14" x="15240" y="27940"/><use xlink:href="#wpL5BHvUlCga_pad-14" x="0" y="5080"/><use xlink:href="#wpL5BHvUlCga_pad-14" x="0" y="2540"/><use xlink:href="#wpL5BHvUlCga_pad-15" x="0" y="0"/><use xlink:href="#wpL5BHvUlCga_pad-16" x="12700" y="21590"/></g></mask><rect x="-800" y="-800" width="1600" height="1600" rx="800" ry="800" id="OE-T-vOuT3ea_pad-11"/><rect x="-800" y="-800" width="1600" height="1600" id="OE-T-vOuT3ea_pad-12"/><circle cx="0" cy="0" r="1000" id="OE-T-vOuT3ea_pad-13"/><circle cx="0" cy="0" r="250" id="OE-T-vOuT3ea_pad-14"/><circle cx="0" cy="0" r="225" id="OE-T-vOuT3ea_pad-15"/><circle cx="0" cy="0" r="300" id="OE-T-vOuT3ea_pad-16"/><circle cx="0" cy="0" r="100" id="G-k6jZgJ-Kdh_pad-1"/><circle cx="0" cy="0" r="150" id="G-k6jZgJ-Kdh_pad-2"/><circle cx="0" cy="0" r="500" id="G-k6jZgJ-Kdh_pad-3"/><g id="Fzr4dgTq4nmt_bottom_soldermask"><path d="M -1270 -635 -1270 26035 M 16510 26035 16510 -635 A 635 635 0 0 0 15875 -1270 M -635 -1270 A 635 635 0 0 0 -1270 -635 M -1270 26035 A 635 635 0 0 0 -635 26670 M 15875 26670 A 635 635 0 0 0 16510 26035 M 15875 26670 -635 26670 M -635 -1270 15875 -1270" fill="none" stroke-width="100"/><use xlink:href="#NAoh6YbkpyqW_pad-11" x="15240" y="0"/><use xlink:href="#NAoh6YbkpyqW_pad-11" x="15240" y="2540"/><use xlink:href="#NAoh6YbkpyqW_pad-11" x="15240" y="5080"/><use xlink:href="#NAoh6YbkpyqW_pad-11" x="0" y="27940"/><use xlink:href="#NAoh6YbkpyqW_pad-11" x="15240" y="7620"/><use xlink:href="#NAoh6YbkpyqW_pad-11" x="0" y="25400"/><use xlink:href="#NAoh6YbkpyqW_pad-11" x="15240" y="10160"/><use xlink:href="#NAoh6YbkpyqW_pad-11" x="0" y="22860"/><use xlink:href="#NAoh6YbkpyqW_pad-11" x="15240" y="12700"/><use xlink:href="#NAoh6YbkpyqW_pad-11" x="0" y="20320"/><use xlink:href="#NAoh6YbkpyqW_pad-11" x="15240" y="15240"/><use xlink:href="#NAoh6YbkpyqW_pad-11" x="0" y="17780"/><use xlink:href="#NAoh6YbkpyqW_pad-11" x="15240" y="17780"/><use xlink:href="#NAoh6YbkpyqW_pad-11" x="0" y="15240"/><use xlink:href="#NAoh6YbkpyqW_pad-11" x="15240" y="20320"/><use xlink:href="#NAoh6YbkpyqW_pad-11" x="0" y="12700"/><use xlink:href="#NAoh6YbkpyqW_pad-11" x="15240" y="22860"/><use xlink:href="#NAoh6YbkpyqW_pad-11" x="0" y="10160"/><use xlink:href="#NAoh6YbkpyqW_pad-11" x="15240" y="25400"/><use xlink:href="#NAoh6YbkpyqW_pad-11" x="0" y="7620"/><use xlink:href="#NAoh6YbkpyqW_pad-11" x="15240" y="27940"/><use xlink:href="#NAoh6YbkpyqW_pad-11" x="0" y="5080"/><use xlink:href="#NAoh6YbkpyqW_pad-11" x="0" y="2540"/><use xlink:href="#NAoh6YbkpyqW_pad-12" x="0" y="0"/><use xlink:href="#NAoh6YbkpyqW_pad-13" x="12700" y="21590"/></g><g id="Fzr4dgTq4nmt_bottom_silkscreen"><g mask="url(#wpL5BHvUlCga_clear-1)"><path d="M -1270 -635 -1270 26035 M 16510 26035 16510 -635" fill="none" stroke-width="100"/><path d="M 12507.14 15255.71 13107.14 15041.43 12507.14 14827.14 M 13107.14 14012.86 13107.14 14527.14 M 13107.14 14270 12207.14 14270 12335.71 14355.71 12421.43 14441.43 12464.29 14527.14 M 13021.43 13627.14 13064.29 13584.29 13107.14 13627.14 13064.29 13670 13021.43 13627.14 13107.14 13627.14 M 12207.14 12812.86 12207.14 12984.29 12250 13070 12292.86 13112.86 12421.43 13198.57 12592.86 13241.43 12935.71 13241.43 13021.43 13198.57 13064.29 13155.72 13107.14 13070 13107.14 12898.57 13064.29 12812.86 13021.43 12770 12935.71 12727.14 12721.43 12727.14 12635.71 12770 12592.86 12812.86 12550 12898.57 12550 13070 12592.86 13155.72 12635.71 13198.57 12721.43 13241.43" fill="none" stroke-width="200"/><path d="M 16510 -635 A 635 635 0 0 0 15875 -1270 M -635 -1270 A 635 635 0 0 0 -1270 -635 M -1270 26035 A 635 635 0 0 0 -635 26670 M 15875 26670 A 635 635 0 0 0 16510 26035" fill="none" stroke-width="100"/><path d="M 2325.71 25842.86 2992.38 25842.86 M 2420.95 25842.86 2373.33 25795.24 2325.71 25700 2325.71 25557.14 2373.33 25461.91 2468.57 25414.29 2992.38 25414.29 M 2944.76 24557.14 2992.38 24652.38 2992.38 24842.86 2944.76 24938.1 2849.52 24985.72 2468.57 24985.72 2373.33 24938.1 2325.71 24842.86 2325.71 24652.38 2373.33 24557.14 2468.57 24509.52 2563.81 24509.52 2659.05 24985.72 M 2992.38 24080.95 2325.71 24080.95 M 2516.19 24080.95 2420.95 24033.33 2373.33 23985.72 2325.71 23890.48 2325.71 23795.24 M 2992.38 23033.33 1992.38 23033.33 M 2944.76 23033.33 2992.38 23128.57 2992.38 23319.05 2944.76 23414.29 2897.14 23461.91 2801.9 23509.52 2516.19 23509.52 2420.95 23461.91 2373.33 23414.29 2325.71 23319.05 2325.71 23128.57 2373.33 23033.33 M 2325.71 22652.38 2992.38 22414.29 M 2325.71 22176.19 2992.38 22414.29 3230.48 22509.52 3278.1 22557.14 3325.71 22652.38 M 2944.76 21842.86 2992.38 21747.62 2992.38 21557.14 2944.76 21461.91 2849.52 21414.29 2801.9 21414.29 2706.67 21461.91 2659.05 21557.14 2659.05 21700 2611.43 21795.24 2516.19 21842.86 2468.57 21842.86 2373.33 21795.24 2325.71 21700 2325.71 21557.14 2373.33 21461.91 M 2944.76 20557.14 2992.38 20652.38 2992.38 20842.86 2944.76 20938.1 2897.14 20985.72 2801.9 21033.33 2516.19 21033.33 2420.95 20985.72 2373.33 20938.1 2325.71 20842.86 2325.71 20652.38 2373.33 20557.14 M 2992.38 19985.71 2944.76 20080.95 2897.14 20128.57 2801.9 20176.19 2516.19 20176.19 2420.95 20128.57 2373.33 20080.95 2325.71 19985.71 2325.71 19842.86 2373.33 19747.62 2420.95 19700 2516.19 19652.38 2801.9 19652.38 2897.14 19700 2944.76 19747.62 2992.38 19842.86 2992.38 19985.71 M 2325.71 18795.24 2992.38 18795.24 M 2325.71 19223.81 2849.52 19223.81 2944.76 19176.19 2992.38 19080.95 2992.38 18938.1 2944.76 18842.86 2897.14 18795.24 M 2325.71 18461.9 2325.71 18080.95 M 1992.38 18319.05 2849.52 18319.05 2944.76 18271.43 2992.38 18176.19 2992.38 18080.95 M 2897.14 17747.62 2944.76 17700 2992.38 17747.62 2944.76 17795.24 2897.14 17747.62 2992.38 17747.62 M 2325.71 16842.86 3135.24 16842.86 3230.48 16890.48 3278.1 16938.1 3325.71 17033.33 3325.71 17176.19 3278.1 17271.43 M 2944.76 16842.86 2992.38 16938.1 2992.38 17128.57 2944.76 17223.81 2897.14 17271.43 2801.9 17319.05 2516.19 17319.05 2420.95 17271.43 2373.33 17223.81 2325.71 17128.57 2325.71 16938.1 2373.33 16842.86 M 2992.38 16366.67 2325.71 16366.67 M 1992.38 16366.67 2040 16414.29 2087.62 16366.67 2040 16319.05 1992.38 16366.67 2087.62 16366.67 M 2325.71 16033.33 2325.71 15652.38 M 1992.38 15890.48 2849.52 15890.48 2944.76 15842.86 2992.38 15747.62 2992.38 15652.38 M 2992.38 15319.05 1992.38 15319.05 M 2992.38 14890.48 2468.57 14890.48 2373.33 14938.1 2325.71 15033.33 2325.71 15176.19 2373.33 15271.43 2420.95 15319.05 M 2325.71 13985.71 2992.38 13985.71 M 2325.71 14414.29 2849.52 14414.29 2944.76 14366.67 2992.38 14271.43 2992.38 14128.57 2944.76 14033.33 2897.14 13985.71 M 2992.38 13509.52 1992.38 13509.52 M 2373.33 13509.52 2325.71 13414.29 2325.71 13223.81 2373.33 13128.57 2420.95 13080.95 2516.19 13033.33 2801.9 13033.33 2897.14 13080.95 2944.76 13128.57 2992.38 13223.81 2992.38 13414.29 2944.76 13509.52 M 2897.14 12604.76 2944.76 12557.14 2992.38 12604.76 2944.76 12652.38 2897.14 12604.76 2992.38 12604.76 M 2992.38 12128.57 2325.71 12128.57 M 1992.38 12128.57 2040 12176.19 2087.62 12128.57 2040 12080.95 1992.38 12128.57 2087.62 12128.57 M 2992.38 11509.52 2944.76 11604.76 2897.14 11652.38 2801.9 11700 2516.19 11700 2420.95 11652.38 2373.33 11604.76 2325.71 11509.52 2325.71 11366.67 2373.33 11271.43 2420.95 11223.81 2516.19 11176.19 2801.9 11176.19 2897.14 11223.81 2944.76 11271.43 2992.38 11366.67 2992.38 11509.52 M 1944.76 10033.33 3230.48 10890.48 M 2992.38 9700 1992.38 9700 1992.38 9319.05 2040 9223.81 2087.62 9176.19 2182.86 9128.57 2325.71 9128.57 2420.95 9176.19 2468.57 9223.81 2516.19 9319.05 2516.19 9700 M 2992.38 8700 2325.71 8700 M 2516.19 8700 2420.95 8652.38 2373.33 8604.76 2325.71 8509.52 2325.71 8414.29 M 2992.38 7938.1 2944.76 8033.33 2897.14 8080.95 2801.9 8128.57 2516.19 8128.57 2420.95 8080.95 2373.33 8033.33 2325.71 7938.1 2325.71 7795.24 2373.33 7700 2420.95 7652.38 2516.19 7604.76 2801.9 7604.76 2897.14 7652.38 2944.76 7700 2992.38 7795.24 2992.38 7938.1 M 2992.38 7176.19 1992.38 7176.19 2706.67 6842.86 1992.38 6509.52 2992.38 6509.52 M 2992.38 6033.33 2325.71 6033.33 M 1992.38 6033.33 2040 6080.95 2087.62 6033.33 2040 5985.72 1992.38 6033.33 2087.62 6033.33 M 2944.76 5128.57 2992.38 5223.81 2992.38 5414.29 2944.76 5509.52 2897.14 5557.14 2801.9 5604.76 2516.19 5604.76 2420.95 5557.14 2373.33 5509.52 2325.71 5414.29 2325.71 5223.81 2373.33 5128.57 M 2992.38 4700 2325.71 4700 M 2516.19 4700 2420.95 4652.38 2373.33 4604.76 2325.71 4509.52 2325.71 4414.29 M 2992.38 3938.1 2944.76 4033.33 2897.14 4080.95 2801.9 4128.57 2516.19 4128.57 2420.95 4080.95 2373.33 4033.33 2325.71 3938.1 2325.71 3795.24 2373.33 3700 2420.95 3652.38 2516.19 3604.76 2801.9 3604.76 2897.14 3652.38 2944.76 3700 2992.38 3795.24 2992.38 3938.1 M 3087.62 3414.29 3087.62 2652.38 M 2992.38 1938.1 2992.38 2414.29 1992.38 2414.29 M 2992.38 1604.76 1992.38 1604.76 M 2992.38 1128.57 1992.38 1128.57 1992.38 747.62 2040 652.38 2087.62 604.76 2182.86 557.14 2325.71 557.14 2420.95 604.76 2468.57 652.38 2516.19 747.62 2516.19 1128.57 M 1992.38 -61.9 1992.38 -252.38 2040 -347.62 2135.24 -442.86 2325.71 -490.48 2659.05 -490.48 2849.52 -442.86 2944.76 -347.62 2992.38 -252.38 2992.38 -61.9 2944.76 33.33 2849.52 128.57 2659.05 176.19 2325.71 176.19 2135.24 128.57 2040 33.33 1992.38 -61.9" fill="none" stroke-width="200"/><path d="M 15875 26670 -635 26670 M -635 -1270 15875 -1270" fill="none" stroke-width="100"/><path d="M 5088.93 13414.19 5533.56 13330.37 5661.05 13021.08 5788.55 12711.79 5536.25 12340.75 5466 12236.84 5403.27 12142.91 5350.94 12063.35 5311.86 12002.53 5288.89 11964.84 5283.94 11954.58 5296.68 11936.09 5331.88 11896.58 5385.06 11840.48 5451.72 11772.21 5527.35 11696.21 5607.47 11616.91 5687.57 11538.73 5763.16 11466.09 5829.75 11403.44 5882.82 11355.2 5917.89 11325.79 5929.62 11318.76 5951.26 11328.88 5998.66 11357.24 6067.19 11400.87 6152.22 11456.78 6249.09 11521.99 6304.35 11559.78 6405.25 11628.66 6496.3 11689.86 6572.97 11740.42 6630.73 11777.37 6665.04 11797.74 6672.25 11800.8 6692.75 11793.86 6740.51 11774.95 6808.83 11746.91 6890.99 11712.61 6980.27 11674.89 7069.96 11636.61 7153.34 11600.63 7223.69 11569.79 7274.31 11546.96 7298.47 11534.98 7299.42 11534.28 7304.04 11515.47 7314.33 11465.38 7329.29 11389.21 7347.9 11292.14 7369.16 11179.36 7381.42 11113.56 7404.36 10993.05 7426.19 10884.2 7445.72 10792.52 7461.75 10723.52 7473.08 10682.7 7476.67 10674.49 7501.01 10666.45 7555.96 10659.97 7635.11 10655.03 7732.03 10651.64 7840.29 10649.78 7953.46 10649.46 8065.13 10650.67 8168.87 10653.41 8258.24 10657.67 8326.83 10663.45 8368.2 10670.73 8376.81 10675.11 8387.13 10701.24 8401.89 10756.61 8419.35 10833.89 8437.78 10925.77 8443.74 10957.84 8472.07 11112.48 8494.88 11234.63 8513.08 11328.33 8527.58 11397.62 8539.29 11446.53 8549.11 11479.1 8557.96 11499.37 8566.72 11511.37 8568.46 11513.05 8596.37 11529.82 8650.69 11555.39 8724.78 11587.21 8811.96 11622.74 8905.61 11659.42 8999.05 11694.69 9085.65 11726 9158.74 11750.81 9211.68 11766.55 9237.81 11770.67 9238.73 11770.32 9260.09 11756.36 9307.08 11724.68 9374.83 11678.61 9458.42 11621.48 9552.98 11556.63 9579.85 11538.16 9677.27 11472.3 9766.16 11414.35 9841.41 11367.46 9897.92 11334.79 9930.58 11319.5 9934.59 11318.76 9955.68 11331.61 9997.46 11367.11 10055.44 11420.71 10125.13 11487.83 10202.04 11563.91 10281.68 11644.4 10359.56 11724.71 10431.19 11800.3 10492.07 11866.6 10537.72 11919.03 10563.65 11953.05 10567.88 11962.46 10557.91 11984.36 10531.02 12029.2 10491.74 12089.68 10460.12 12136.21 10402.1 12220.53 10333.78 12320.37 10265.58 12420.53 10229.07 12474.37 10105.8 12656.63 10188.52 12809.62 10224.76 12879.32 10252.93 12938.59 10268.99 12978.69 10271.23 12988.9 10254.72 13001.17 10208.08 13025.39 10135.61 13059.74 10041.61 13102.41 9930.37 13151.61 9806.21 13205.51 9673.43 13262.32 9536.33 13320.22 9399.2 13377.41 9266.36 13432.08 9142.1 13482.42 9030.72 13526.62 8936.54 13562.88 8863.84 13589.39 8816.94 13604.34 8800.83 13606.75 8780.29 13587.69 8746.93 13545.96 8707.7 13490.29 8704.6 13485.62 8589.42 13341.74 8455.05 13225.72 8305.78 13138.57 8145.91 13081.3 7979.74 13054.91 7811.55 13060.42 7645.65 13098.81 7486.34 13171.11 7451.49 13192.37 7310.74 13303 7197.71 13433.7 7113 13579.94 7057.19 13737.19 7030.87 13900.94 7034.63 14066.67 7069.05 14229.84 7134.72 14385.93 7232.23 14530.43 7271.81 14575.13 7395.7 14688.89 7526.12 14771.78 7672.31 14828.64 7817.09 14860.31 7979.86 14868.13 8143.44 14842.06 8302.3 14784.75 8450.91 14698.86 8583.73 14587.01 8695.26 14451.88 8707.01 14434.12 8745.51 14377.85 8778.86 14335.08 8800.16 14314.63 8800.83 14314.33 8823.87 14318.72 8876.16 14336.12 8953.39 14364.73 9051.27 14402.73 9165.49 14448.33 9291.76 14499.7 9425.77 14555.04 9563.22 14612.54 9699.81 14670.4 9831.24 14726.8 9953.2 14779.94 10061.41 14828.01 10151.55 14869.2 10219.32 14901.7 10260.43 14923.7 10271.23 14932.56 10262.82 14959.64 10240.27 15010.3 10207.61 15075.82 10188.52 15111.84 10105.8 15264.83 10229.07 15447.09 10292.23 15540.12 10361.73 15641.98 10427.16 15737.44 10460.12 15785.25 10505.27 15852.49 10541.06 15909.44 10562.94 15948.65 10567.56 15961.38 10555.09 15979.92 10520.25 16020.94 10466.68 16080.47 10397.98 16154.54 10317.78 16239.16 10266.29 16292.68 10174.29 16386.32 10092 16467.24 10022.94 16532.18 9970.64 16577.86 9938.62 16601.01 9932.12 16603.23 9907.39 16592.92 9857.4 16564.44 9787.21 16520.94 9701.87 16465.58 9606.46 16401.52 9579.85 16383.3 9483.17 16316.93 9396.12 16257.38 9323.59 16207.98 9270.49 16172.07 9241.7 16152.98 9238.73 16151.14 9215.78 16153.89 9165.34 16168.54 9094.04 16192.51 9008.55 16223.27 8915.51 16258.24 8821.57 16294.89 8733.4 16330.66 8657.63 16362.99 8600.93 16389.34 8569.94 16407.14 8568.46 16408.41 8559.6 16419.29 8550.84 16437.68 8541.28 16467.61 8530 16513.1 8516.09 16578.21 8498.66 16666.96 8476.8 16783.39 8449.59 16931.54 8443.74 16963.62 8425.37 17058.69 8407.4 17141.56 8391.57 17204.93 8379.6 17241.46 8376.81 17246.36 8352.07 17254.43 8296.79 17260.99 8217.39 17266.03 8120.3 17269.56 8011.94 17271.56 7898.74 17272.04 7787.13 17270.98 7683.53 17268.38 7594.37 17264.25 7526.07 17258.56 7485.07 17251.33 7476.67 17246.97 7468.21 17222.7 7454.43 17167.43 7436.55 17086.66 7415.75 16985.91 7393.22 16870.68 7381.42 16807.9 7359.15 16688.79 7338.98 16582.56 7321.91 16494.43 7308.97 16429.57 7301.15 16393.17 7299.42 16387.18 7279.89 16377.06 7232.84 16355.66 7165 16325.84 7083.09 16290.44 6993.83 16252.33 6903.94 16214.35 6820.14 16179.36 6749.15 16150.21 6697.69 16129.74 6672.5 16120.82 6671.4 16120.66 6651.52 16130.77 6605.78 16159.12 6538.72 16202.72 6454.88 16258.61 6358.83 16323.79 6303.65 16361.68 6202.48 16430.72 6110.63 16492.05 6032.74 16542.66 5973.47 16579.57 5937.45 16599.78 5929.38 16602.7 5910.58 16590.15 5870.46 16555.46 5813.49 16503.06 5744.19 16437.38 5667.03 16362.86 5586.53 16283.91 5507.16 16204.98 5433.44 16130.5 5369.85 16064.89 5320.89 16012.6 5291.06 15978.04 5283.94 15966.48 5293.95 15947.65 5322.08 15902.63 5365.45 15835.79 5421.22 15751.5 5486.51 15654.14 5536.25 15580.71 5788.55 15209.67 5533.56 14591.09 5088.93 14507.27 4644.31 14423.45 4644.31 13498.01 5088.93 13414.19"/><path d="M 5088.93 13414.19 5533.56 13330.37 5661.05 13021.08 5788.55 12711.79 5536.25 12340.75 5466 12236.84 5403.27 12142.91 5350.94 12063.35 5311.86 12002.53 5288.89 11964.84 5283.94 11954.58 5296.68 11936.09 5331.88 11896.58 5385.06 11840.48 5451.72 11772.21 5527.35 11696.21 5607.47 11616.91 5687.57 11538.73 5763.16 11466.09 5829.75 11403.44 5882.82 11355.2 5917.89 11325.79 5929.62 11318.76 5951.26 11328.88 5998.66 11357.24 6067.19 11400.87 6152.22 11456.78 6249.09 11521.99 6304.35 11559.78 6405.25 11628.66 6496.3 11689.86 6572.97 11740.42 6630.73 11777.37 6665.04 11797.74 6672.25 11800.8 6692.75 11793.86 6740.51 11774.95 6808.83 11746.91 6890.99 11712.61 6980.27 11674.89 7069.96 11636.61 7153.34 11600.63 7223.69 11569.79 7274.31 11546.96 7298.47 11534.98 7299.42 11534.28 7304.04 11515.47 7314.33 11465.38 7329.29 11389.21 7347.9 11292.14 7369.16 11179.36 7381.42 11113.56 7404.36 10993.05 7426.19 10884.2 7445.72 10792.52 7461.75 10723.52 7473.08 10682.7 7476.67 10674.49 7501.01 10666.45 7555.96 10659.97 7635.11 10655.03 7732.03 10651.64 7840.29 10649.78 7953.46 10649.46 8065.13 10650.67 8168.87 10653.41 8258.24 10657.67 8326.83 10663.45 8368.2 10670.73 8376.81 10675.11 8387.13 10701.24 8401.89 10756.61 8419.35 10833.89 8437.78 10925.77 8443.74 10957.84 8472.07 11112.48 8494.88 11234.63 8513.08 11328.33 8527.58 11397.62 8539.29 11446.53 8549.11 11479.1 8557.96 11499.37 8566.72 11511.37 8568.46 11513.05 8596.37 11529.82 8650.69 11555.39 8724.78 11587.21 8811.96 11622.74 8905.61 11659.42 8999.05 11694.69 9085.65 11726 9158.74 11750.81 9211.68 11766.55 9237.81 11770.67 9238.73 11770.32 9260.09 11756.36 9307.08 11724.68 9374.83 11678.61 9458.42 11621.48 9552.98 11556.63 9579.85 11538.16 9677.27 11472.3 9766.16 11414.35 9841.41 11367.46 9897.92 11334.79 9930.58 11319.5 9934.59 11318.76 9955.68 11331.61 9997.46 11367.11 10055.44 11420.71 10125.13 11487.83 10202.04 11563.91 10281.68 11644.4 10359.56 11724.71 10431.19 11800.3 10492.07 11866.6 10537.72 11919.03 10563.65 11953.05 10567.88 11962.46 10557.91 11984.36 10531.02 12029.2 10491.74 12089.68 10460.12 12136.21 10402.1 12220.53 10333.78 12320.37 10265.58 12420.53 10229.07 12474.37 10105.8 12656.63 10188.52 12809.62 10224.76 12879.32 10252.93 12938.59 10268.99 12978.69 10271.23 12988.9 10254.72 13001.17 10208.08 13025.39 10135.61 13059.74 10041.61 13102.41 9930.37 13151.61 9806.21 13205.51 9673.43 13262.32 9536.33 13320.22 9399.2 13377.41 9266.36 13432.08 9142.1 13482.42 9030.72 13526.62 8936.54 13562.88 8863.84 13589.39 8816.94 13604.34 8800.83 13606.75 8780.29 13587.69 8746.93 13545.96 8707.7 13490.29 8704.6 13485.62 8589.42 13341.74 8455.05 13225.72 8305.78 13138.57 8145.91 13081.3 7979.74 13054.91 7811.55 13060.42 7645.65 13098.81 7486.34 13171.11 7451.49 13192.37 7310.74 13303 7197.71 13433.7 7113 13579.94 7057.19 13737.19 7030.87 13900.94 7034.63 14066.67 7069.05 14229.84 7134.72 14385.93 7232.23 14530.43 7271.81 14575.13 7395.7 14688.89 7526.12 14771.78 7672.31 14828.64 7817.09 14860.31 7979.86 14868.13 8143.44 14842.06 8302.3 14784.75 8450.91 14698.86 8583.73 14587.01 8695.26 14451.88 8707.01 14434.12 8745.51 14377.85 8778.86 14335.08 8800.16 14314.63 8800.83 14314.33 8823.87 14318.72 8876.16 14336.12 8953.39 14364.73 9051.27 14402.73 9165.49 14448.33 9291.76 14499.7 9425.77 14555.04 9563.22 14612.54 9699.81 14670.4 9831.24 14726.8 9953.2 14779.94 10061.41 14828.01 10151.55 14869.2 10219.32 14901.7 10260.43 14923.7 10271.23 14932.56 10262.82 14959.64 10240.27 15010.3 10207.61 15075.82 10188.52 15111.84 10105.8 15264.83 10229.07 15447.09 10292.23 15540.12 10361.73 15641.98 10427.16 15737.44 10460.12 15785.25 10505.27 15852.49 10541.06 15909.44 10562.94 15948.65 10567.56 15961.38 10555.09 15979.92 10520.25 16020.94 10466.68 16080.47 10397.98 16154.54 10317.78 16239.16 10266.29 16292.68 10174.29 16386.32 10092 16467.24 10022.94 16532.18 9970.64 16577.86 9938.62 16601.01 9932.12 16603.23 9907.39 16592.92 9857.4 16564.44 9787.21 16520.94 9701.87 16465.58 9606.46 16401.52 9579.85 16383.3 9483.17 16316.93 9396.12 16257.38 9323.59 16207.98 9270.49 16172.07 9241.7 16152.98 9238.73 16151.14 9215.78 16153.89 9165.34 16168.54 9094.04 16192.51 9008.55 16223.27 8915.51 16258.24 8821.57 16294.89 8733.4 16330.66 8657.63 16362.99 8600.93 16389.34 8569.94 16407.14 8568.46 16408.41 8559.6 16419.29 8550.84 16437.68 8541.28 16467.61 8530 16513.1 8516.09 16578.21 8498.66 16666.96 8476.8 16783.39 8449.59 16931.54 8443.74 16963.62 8425.37 17058.69 8407.4 17141.56 8391.57 17204.93 8379.6 17241.46 8376.81 17246.36 8352.07 17254.43 8296.79 17260.99 8217.39 17266.03 8120.3 17269.56 8011.94 17271.56 7898.74 17272.04 7787.13 17270.98 7683.53 17268.38 7594.37 17264.25 7526.07 17258.56 7485.07 17251.33 7476.67 17246.97 7468.21 17222.7 7454.43 17167.43 7436.55 17086.66 7415.75 16985.91 7393.22 16870.68 7381.42 16807.9 7359.15 16688.79 7338.98 16582.56 7321.91 16494.43 7308.97 16429.57 7301.15 16393.17 7299.42 16387.18 7279.89 16377.06 7232.84 16355.66 7165 16325.84 7083.09 16290.44 6993.83 16252.33 6903.94 16214.35 6820.14 16179.36 6749.15 16150.21 6697.69 16129.74 6672.5 16120.82 6671.4 16120.66 6651.52 16130.77 6605.78 16159.12 6538.72 16202.72 6454.88 16258.61 6358.83 16323.79 6303.65 16361.68 6202.48 16430.72 6110.63 16492.05 6032.74 16542.66 5973.47 16579.57 5937.45 16599.78 5929.38 16602.7 5910.58 16590.15 5870.46 16555.46 5813.49 16503.06 5744.19 16437.38 5667.03 16362.86 5586.53 16283.91 5507.16 16204.98 5433.44 16130.5 5369.85 16064.89 5320.89 16012.6 5291.06 15978.04 5283.94 15966.48 5293.95 15947.65 5322.08 15902.63 5365.45 15835.79 5421.22 15751.5 5486.51 15654.14 5536.25 15580.71 5788.55 15209.67 5533.56 14591.09 5088.93 14507.27 4644.31 14423.45 4644.31 13498.01 5088.93 13414.19" fill="none" stroke-width="10"/><path d="M 16640 -1270 1270 -1270 M 16640 29210 16640 -1270 M -1400 29210 16640 29210 M 1270 -1270 1270 29210 M 1270 1270 -1400 1270 M 13970 -1270 13970 29210 M -1400 1270 -1400 29210 M 13900 21590 A 1200 1200 0 0 1 11500 21590 1200 1200 0 0 1 13900 21590" fill="none" stroke-width="120"/><path d="M 4578.33 571.43 4578.33 190.48 M 4806.9 647.62 4006.9 380.95 4806.9 114.29 M 4806.9 -571.43 4806.9 -114.28 M 4806.9 -342.86 4006.9 -342.86 4121.19 -266.67 4197.38 -190.48 4235.48 -114.28" fill="none" stroke-width="200"/></g></g><g id="Fzr4dgTq4nmt_bottom_copper"><path d="M -1270 -635 -1270 26035 M 16510 26035 16510 -635 A 635 635 0 0 0 15875 -1270 M -635 -1270 A 635 635 0 0 0 -1270 -635 M -1270 26035 A 635 635 0 0 0 -635 26670 M 15875 26670 A 635 635 0 0 0 16510 26035 M 15875 26670 -635 26670 M -635 -1270 15875 -1270" fill="none" stroke-width="100"/><use xlink:href="#OE-T-vOuT3ea_pad-11" x="15240" y="0"/><use xlink:href="#OE-T-vOuT3ea_pad-11" x="15240" y="2540"/><use xlink:href="#OE-T-vOuT3ea_pad-11" x="15240" y="5080"/><use xlink:href="#OE-T-vOuT3ea_pad-11" x="0" y="27940"/><use xlink:href="#OE-T-vOuT3ea_pad-11" x="15240" y="7620"/><use xlink:href="#OE-T-vOuT3ea_pad-11" x="0" y="25400"/><use xlink:href="#OE-T-vOuT3ea_pad-11" x="15240" y="10160"/><use xlink:href="#OE-T-vOuT3ea_pad-11" x="0" y="22860"/><use xlink:href="#OE-T-vOuT3ea_pad-11" x="15240" y="12700"/><use xlink:href="#OE-T-vOuT3ea_pad-11" x="0" y="20320"/><use xlink:href="#OE-T-vOuT3ea_pad-11" x="15240" y="15240"/><use xlink:href="#OE-T-vOuT3ea_pad-11" x="0" y="17780"/><use xlink:href="#OE-T-vOuT3ea_pad-11" x="15240" y="17780"/><use xlink:href="#OE-T-vOuT3ea_pad-11" x="0" y="15240"/><use xlink:href="#OE-T-vOuT3ea_pad-11" x="15240" y="20320"/><use xlink:href="#OE-T-vOuT3ea_pad-11" x="0" y="12700"/><use xlink:href="#OE-T-vOuT3ea_pad-11" x="15240" y="22860"/><use xlink:href="#OE-T-vOuT3ea_pad-11" x="0" y="10160"/><use xlink:href="#OE-T-vOuT3ea_pad-11" x="15240" y="25400"/><use xlink:href="#OE-T-vOuT3ea_pad-11" x="0" y="7620"/><use xlink:href="#OE-T-vOuT3ea_pad-11" x="15240" y="27940"/><use xlink:href="#OE-T-vOuT3ea_pad-11" x="0" y="5080"/><use xlink:href="#OE-T-vOuT3ea_pad-11" x="0" y="2540"/><use xlink:href="#OE-T-vOuT3ea_pad-12" x="0" y="0"/><use xlink:href="#OE-T-vOuT3ea_pad-13" x="12700" y="21590"/><path d="M 6521.1 18495 8718.9 18495 A 251.1 251.1 0 0 0 8970 18243.9 L 8970 16046.1 A 251.1 251.1 0 0 0 8718.9 15795 L 6521.1 15795 A 251.1 251.1 0 0 0 6270 16046.1 L 6270 18243.9 A 251.1 251.1 0 0 0 6521.1 18495"/><use xlink:href="#OE-T-vOuT3ea_pad-14" x="6520" y="16045"/><use xlink:href="#OE-T-vOuT3ea_pad-14" x="6520" y="17145"/><use xlink:href="#OE-T-vOuT3ea_pad-14" x="6520" y="18245"/><use xlink:href="#OE-T-vOuT3ea_pad-14" x="7620" y="16045"/><use xlink:href="#OE-T-vOuT3ea_pad-14" x="7620" y="17145"/><use xlink:href="#OE-T-vOuT3ea_pad-14" x="7620" y="18245"/><use xlink:href="#OE-T-vOuT3ea_pad-14" x="8720" y="16045"/><use xlink:href="#OE-T-vOuT3ea_pad-14" x="8720" y="17145"/><use xlink:href="#OE-T-vOuT3ea_pad-14" x="8720" y="18245"/><use xlink:href="#OE-T-vOuT3ea_pad-14" x="4445" y="6350"/><use xlink:href="#OE-T-vOuT3ea_pad-14" x="4064" y="8382"/><use xlink:href="#OE-T-vOuT3ea_pad-14" x="2921" y="9144"/><use xlink:href="#OE-T-vOuT3ea_pad-14" x="889" y="21590"/><use xlink:href="#OE-T-vOuT3ea_pad-15" x="7747" y="12509.5"/><use xlink:href="#OE-T-vOuT3ea_pad-14" x="5461" y="7366"/><use xlink:href="#OE-T-vOuT3ea_pad-14" x="2857.5" y="10795"/><use xlink:href="#OE-T-vOuT3ea_pad-14" x="12382.5" y="10731.5"/><use xlink:href="#OE-T-vOuT3ea_pad-14" x="8890" y="0"/><use xlink:href="#OE-T-vOuT3ea_pad-14" x="6985" y="0"/><use xlink:href="#OE-T-vOuT3ea_pad-14" x="6985" y="2540"/><use xlink:href="#OE-T-vOuT3ea_pad-14" x="12700" y="0"/><use xlink:href="#OE-T-vOuT3ea_pad-14" x="2540" y="2540"/><use xlink:href="#OE-T-vOuT3ea_pad-14" x="2540" y="0"/><use xlink:href="#OE-T-vOuT3ea_pad-14" x="9398" y="15367"/><use xlink:href="#OE-T-vOuT3ea_pad-14" x="12065" y="14351"/><use xlink:href="#OE-T-vOuT3ea_pad-14" x="10414" y="5080"/><use xlink:href="#OE-T-vOuT3ea_pad-14" x="10414" y="7620"/><use xlink:href="#OE-T-vOuT3ea_pad-14" x="5715" y="19050"/><use xlink:href="#OE-T-vOuT3ea_pad-14" x="5715" y="20066"/><use xlink:href="#OE-T-vOuT3ea_pad-14" x="1397" y="24130"/><use xlink:href="#OE-T-vOuT3ea_pad-14" x="14224" y="19050"/><use xlink:href="#OE-T-vOuT3ea_pad-14" x="14224" y="16510"/><use xlink:href="#OE-T-vOuT3ea_pad-14" x="889" y="16510"/><use xlink:href="#OE-T-vOuT3ea_pad-14" x="889" y="19050"/><use xlink:href="#OE-T-vOuT3ea_pad-14" x="8890" y="2540"/><use xlink:href="#OE-T-vOuT3ea_pad-14" x="9398" y="13081"/><use xlink:href="#OE-T-vOuT3ea_pad-14" x="14478" y="11430"/><use xlink:href="#OE-T-vOuT3ea_pad-14" x="12446" y="5080"/><use xlink:href="#OE-T-vOuT3ea_pad-14" x="12446" y="7620"/><use xlink:href="#OE-T-vOuT3ea_pad-14" x="5207" y="24130"/><use xlink:href="#OE-T-vOuT3ea_pad-14" x="5207" y="25400"/><use xlink:href="#OE-T-vOuT3ea_pad-14" x="5207" y="22860"/><use xlink:href="#OE-T-vOuT3ea_pad-14" x="14224" y="13970"/><use xlink:href="#OE-T-vOuT3ea_pad-14" x="9779" y="14732"/><use xlink:href="#OE-T-vOuT3ea_pad-14" x="9144" y="20701"/><use xlink:href="#OE-T-vOuT3ea_pad-14" x="10795" y="24765"/><use xlink:href="#OE-T-vOuT3ea_pad-14" x="12065" y="24765"/><use xlink:href="#OE-T-vOuT3ea_pad-14" x="14478" y="21590"/><use xlink:href="#OE-T-vOuT3ea_pad-14" x="14605" y="24130"/><use xlink:href="#OE-T-vOuT3ea_pad-14" x="9144" y="21844"/><use xlink:href="#OE-T-vOuT3ea_pad-14" x="11176" y="20701"/><use xlink:href="#OE-T-vOuT3ea_pad-14" x="1641.23" y="8626.23"/><use xlink:href="#OE-T-vOuT3ea_pad-16" x="11239.5" y="18097.5"/><use xlink:href="#OE-T-vOuT3ea_pad-16" x="12065" y="16192.5"/><use xlink:href="#OE-T-vOuT3ea_pad-14" x="10477.5" y="10007.5"/><use xlink:href="#OE-T-vOuT3ea_pad-16" x="10033" y="21209"/><use xlink:href="#OE-T-vOuT3ea_pad-14" x="6604" y="6858"/><use xlink:href="#OE-T-vOuT3ea_pad-14" x="2413" y="21336"/><use xlink:href="#OE-T-vOuT3ea_pad-14" x="3175" y="21336"/><use xlink:href="#OE-T-vOuT3ea_pad-14" x="5699.87" y="14843.87"/><use xlink:href="#OE-T-vOuT3ea_pad-14" x="4762.5" y="11557"/><use xlink:href="#OE-T-vOuT3ea_pad-14" x="2413" y="18097.5"/><use xlink:href="#OE-T-vOuT3ea_pad-14" x="4953" y="14859"/><use xlink:href="#OE-T-vOuT3ea_pad-14" x="2349.5" y="16192.5"/><use xlink:href="#OE-T-vOuT3ea_pad-14" x="4953" y="13335"/><use xlink:href="#OE-T-vOuT3ea_pad-14" x="5715" y="13335"/><use xlink:href="#OE-T-vOuT3ea_pad-14" x="3937" y="21336"/><use xlink:href="#OE-T-vOuT3ea_pad-14" x="6614.16" y="7874"/><use xlink:href="#OE-T-vOuT3ea_pad-14" x="6619.24" y="5842"/><use xlink:href="#OE-T-vOuT3ea_pad-14" x="9695" y="22690"/><path d="M 0 15240 1641.23 13598.77 M 1641.23 8979.78 1641.23 8626.23 M 1641.23 13598.77 1641.23 8979.78" fill="none" stroke-width="300"/><path d="M 11239.5 17018 11239.5 18097.5 M 13208 15049.5 11239.5 17018 M 15240 7620 13208 9652 13208 15049.5 M 10033 15748 10033 21209 M 10477.5 15303.5 10033 15748 M 10477.5 10007.5 10477.5 15303.5" fill="none" stroke-width="400"/><path d="M 7450 22690 9695 22690 M 6096 21336 7450 22690 M 11600 22690 9695 22690 M 12700 21590 11600 22690 M 6096 21336 3937 21336" fill="none" stroke-width="600"/><path d="M 14730.8 26352.65 14554.73 26235.01 14404.99 26085.27 14287.35 25909.2 14206.31 25713.57 14165 25505.88 14165 25294.12 14206.31 25086.43 14287.35 24890.8 14404.99 24714.73 14554.73 24564.99 14730.8 24447.35 14926.43 24366.31 15134.12 24325 15345.88 24325 15553.57 24366.31 15749.2 24447.35 15925.27 24564.99 16075.01 24714.73 16192.65 24890.8 16235 24993.03 16235 23266.97 16192.65 23369.2 16075.01 23545.27 15925.27 23695.01 15749.2 23812.65 15553.57 23893.69 15345.88 23935 15134.12 23935 14926.43 23893.69 14730.8 23812.65 14554.73 23695.01 14404.99 23545.27 14287.35 23369.2 14206.31 23173.57 14165 22965.88 14165 22754.12 14206.31 22546.43 14287.35 22350.8 14404.99 22174.73 14554.73 22024.99 14730.8 21907.35 14926.43 21826.31 15134.12 21785 15345.88 21785 15553.57 21826.31 15749.2 21907.35 15925.27 22024.99 16075.01 22174.73 16192.65 22350.8 16235 22453.03 16235 20726.97 16192.65 20829.2 16075.01 21005.27 15925.27 21155.01 15749.2 21272.65 15553.57 21353.69 15345.88 21395 15134.12 21395 14926.43 21353.69 14730.8 21272.65 14554.73 21155.01 14404.99 21005.27 14287.35 20829.2 14206.31 20633.57 14165 20425.88 14165 20214.12 14206.31 20006.43 14287.35 19810.8 14404.99 19634.73 14554.73 19484.99 14730.8 19367.35 14926.43 19286.31 15134.12 19245 15345.88 19245 15553.57 19286.31 15749.2 19367.35 15925.27 19484.99 16075.01 19634.73 16192.65 19810.8 16235 19913.03 16235 18186.97 16192.65 18289.2 16075.01 18465.27 15925.27 18615.01 15749.2 18732.65 15553.57 18813.69 15345.88 18855 15134.12 18855 14926.43 18813.69 14730.8 18732.65 14554.73 18615.01 14404.99 18465.27 14287.35 18289.2 14206.31 18093.57 14165 17885.88 14165 17674.12 14206.31 17466.43 14287.35 17270.8 14404.99 17094.73 14554.73 16944.99 14730.8 16827.35 14926.43 16746.31 15134.12 16705 15345.88 16705 15553.57 16746.31 15749.2 16827.35 15925.27 16944.99 16075.01 17094.73 16192.65 17270.8 16235 17373.03 16235 15646.97 16192.65 15749.2 16075.01 15925.27 15925.27 16075.01 15749.2 16192.65 15553.57 16273.69 15345.88 16315 15134.12 16315 14926.43 16273.69 14730.8 16192.65 14554.73 16075.01 14404.99 15925.27 14287.35 15749.2 14206.31 15553.57 14165 15345.88 14165 15134.12 14206.31 14926.43 14287.35 14730.8 14404.99 14554.73 14554.73 14404.99 14730.8 14287.35 14926.43 14206.31 15134.12 14165 15345.88 14165 15553.57 14206.31 15749.2 14287.35 15925.27 14404.99 16075.01 14554.73 16192.65 14730.8 16235 14833.03 16235 13106.97 16192.65 13209.2 16075.01 13385.27 15925.27 13535.01 15749.2 13652.65 15553.57 13733.69 15345.88 13775 15134.12 13775 14926.43 13733.69 14730.8 13652.65 14554.73 13535.01 14404.99 13385.27 14287.35 13209.2 14206.31 13013.57 14165 12805.88 14165 12594.12 14206.31 12386.43 14287.35 12190.8 14404.99 12014.73 14554.73 11864.99 14730.8 11747.35 14926.43 11666.31 15134.12 11625 15345.88 11625 15553.57 11666.31 15749.2 11747.35 15925.27 11864.99 16075.01 12014.73 16192.65 12190.8 16235 12293.04 16235 10566.97 16192.65 10669.2 16075.01 10845.27 15925.27 10995.01 15749.2 11112.65 15553.57 11193.69 15345.88 11235 15134.12 11235 14926.43 11193.69 14730.8 11112.65 14554.73 10995.01 14404.99 10845.27 14287.35 10669.2 14206.31 10473.57 14165 10265.88 14165 10054.12 14206.31 9846.43 14287.35 9650.8 14404.99 9474.73 14554.73 9324.99 14730.8 9207.35 14926.43 9126.31 15134.12 9085 15345.88 9085 15553.57 9126.31 15749.2 9207.35 15925.27 9324.99 16075.01 9474.73 16192.65 9650.8 16235 9753.03 16235 8026.96 16192.65 8129.2 16075.01 8305.27 15925.27 8455.01 15749.2 8572.65 15553.57 8653.69 15345.88 8695 15134.12 8695 14926.43 8653.69 14892.23 8639.52 13683 9848.75 13683 15026.17 13685.3 15049.5 13676.13 15142.62 13665.23 15178.54 13648.97 15232.15 13604.86 15314.67 13545.5 15387 13527.37 15401.88 12630.04 16299.21 12617.9 16360.22 12574.56 16464.86 12511.63 16559.04 12431.54 16639.13 12337.37 16702.06 12232.72 16745.4 12171.71 16757.54 11714.5 17214.75 11714.5 17773.41 11749.06 17825.13 11792.4 17929.78 11814.5 18040.87 11814.5 18154.13 11792.4 18265.22 11749.06 18369.86 11686.13 18464.04 11606.04 18544.13 11511.87 18607.06 11407.22 18650.4 11296.13 18672.5 11182.87 18672.5 11071.78 18650.4 10967.14 18607.06 10872.96 18544.13 10792.87 18464.04 10729.94 18369.86 10686.6 18265.22 10664.5 18154.13 10664.5 18040.87 10686.6 17929.78 10729.94 17825.13 10764.5 17773.41 10764.5 17041.33 10762.2 17018 10771.37 16924.88 10798.53 16835.35 10842.64 16752.83 10902 16680.5 10920.13 16665.62 11499.96 16085.79 11512.1 16024.78 11555.44 15920.13 11618.37 15825.96 11698.46 15745.87 11792.64 15682.94 11897.28 15639.6 11958.29 15627.46 12733 14852.75 12733 9675.33 12730.7 9652 12739.12 9566.53 12739.87 9558.88 12767.03 9469.35 12811.14 9386.83 12870.5 9314.5 12888.63 9299.62 14220.48 7967.77 14206.31 7933.57 14165 7725.88 14165 7514.12 14206.31 7306.43 14287.35 7110.8 14404.99 6934.73 14554.73 6784.99 14730.8 6667.35 14926.43 6586.31 15134.12 6545 15345.88 6545 15553.57 6586.31 15749.2 6667.35 15925.27 6784.99 16075.01 6934.73 16192.65 7110.8 16235 7213.03 16235 5486.97 16192.65 5589.2 16075.01 5765.27 15925.27 5915.01 15749.2 6032.65 15553.57 6113.69 15345.88 6155 15134.12 6155 14926.43 6113.69 14730.8 6032.65 14554.73 5915.01 14404.99 5765.27 14287.35 5589.2 14206.31 5393.57 14165 5185.88 14165 4974.12 14206.31 4766.43 14287.35 4570.8 14404.99 4394.73 14554.73 4244.99 14730.8 4127.35 14926.43 4046.31 15134.12 4005 15345.88 4005 15553.57 4046.31 15749.2 4127.35 15925.27 4244.99 16075.01 4394.73 16192.65 4570.8 16235 4673.03 16235 2777.49 16181.04 2946.3 16083.69 3122.08 15953.92 3275.49 15796.72 3400.64 15618.12 3492.71 15424.99 3548.17 15265 3508.45 15265 2565 15285 2565 15285 2515 15265 2515 15265 1571.55 15424.99 1531.83 15618.12 1587.29 15796.72 1679.37 15953.92 1804.51 16083.69 1957.92 16181.04 2133.7 16235 2302.51 16235 406.96 16192.65 509.2 16075.01 685.27 15925.27 835.01 15749.2 952.65 15553.57 1033.69 15345.88 1075 15134.12 1075 14926.43 1033.69 14730.8 952.65 14554.73 835.01 14404.99 685.27 14287.35 509.2 14206.31 313.57 14165 105.88 14165 -105.88 14206.31 -313.57 14287.35 -509.2 14404.99 -685.27 14554.73 -835.01 14730.8 -952.65 14833.03 -995 995.72 -995 1029.76 -953.52 1055.3 -905.75 1071.02 -853.91 1076.33 -800 1076.33 800 1071.02 853.91 1055.3 905.75 1029.76 953.52 995.39 995.39 953.52 1029.76 905.75 1055.3 853.91 1071.02 800 1076.33 -800 1076.33 -853.91 1071.02 -905.75 1055.3 -953.52 1029.76 -995 995.72 -995 2133.03 -952.65 2030.8 -835.01 1854.73 -685.27 1704.99 -509.2 1587.35 -313.57 1506.31 -105.88 1465 105.88 1465 313.57 1506.31 509.2 1587.35 685.27 1704.99 835.01 1854.73 952.65 2030.8 1033.69 2226.43 1059.26 2355.01 14231.83 2355.01 14237.78 2325.1 14298.96 2133.7 14396.31 1957.92 14526.08 1804.51 14683.28 1679.37 14861.88 1587.29 15055.01 1531.83 15215 1571.55 15215 2515 14271.57 2515 14231.83 2355.01 1059.26 2355.01 1075 2434.12 1075 2645.88 1059.26 2724.99 14231.83 2724.99 14271.57 2565 15215 2565 15215 3508.45 15055.01 3548.17 14861.88 3492.71 14683.28 3400.64 14526.08 3275.49 14396.31 3122.08 14298.96 2946.3 14237.78 2754.9 14231.83 2724.99 1059.26 2724.99 1033.69 2853.57 952.65 3049.2 835.01 3225.27 685.27 3375.01 509.2 3492.65 313.57 3573.69 105.88 3615 -105.88 3615 -313.57 3573.69 -509.2 3492.65 -685.27 3375.01 -835.01 3225.27 -952.65 3049.2 -995 2946.97 -995 4673.03 -952.65 4570.8 -835.01 4394.73 -685.27 4244.99 -509.2 4127.35 -313.57 4046.31 -105.88 4005 105.88 4005 313.57 4046.31 509.2 4127.35 685.27 4244.99 835.01 4394.73 952.65 4570.8 1033.69 4766.43 1075 4974.12 1075 5185.88 1033.69 5393.57 952.65 5589.2 835.01 5765.27 685.27 5915.01 509.2 6032.65 313.57 6113.69 105.88 6155 -105.88 6155 -313.57 6113.69 -509.2 6032.65 -685.27 5915.01 -835.01 5765.27 -952.65 5589.2 -995 5486.97 -995 7382.51 -941.04 7213.7 -843.69 7037.92 -713.92 6884.51 -556.72 6759.37 -378.12 6667.29 -184.99 6611.83 -25 6651.55 -25 7595 25 7595 25 6651.55 184.99 6611.83 378.12 6667.29 556.72 6759.37 713.92 6884.51 843.69 7037.92 941.04 7213.7 1002.22 7405.1 1008.17 7435.01 968.43 7595 25 7595 -25 7595 -45 7595 -45 7645 -25 7645 -25 8588.45 25 8588.45 25 7645 968.43 7645 1008.17 7804.99 1002.22 7834.9 941.04 8026.3 843.69 8202.08 713.92 8355.49 556.72 8480.63 378.12 8572.71 184.99 8628.17 25 8588.45 -25 8588.45 -184.99 8628.17 -378.12 8572.71 -556.72 8480.63 -713.92 8355.49 -843.69 8202.08 -941.04 8026.3 -995 7857.49 -995 9753.03 -952.65 9650.8 -835.01 9474.73 -685.27 9324.99 -509.2 9207.35 -313.57 9126.31 -105.88 9085 105.88 9085 313.57 9126.31 509.2 9207.35 685.27 9324.99 835.01 9474.73 952.65 9650.8 1033.69 9846.43 1075 10054.12 1075 10265.88 1033.69 10473.57 952.65 10669.2 835.01 10845.27 685.27 10995.01 509.2 11112.65 313.57 11193.69 105.88 11235 -105.88 11235 -313.57 11193.69 -509.2 11112.65 -685.27 10995.01 -835.01 10845.27 -952.65 10669.2 -995 10566.97 -995 12293.03 -952.65 12190.8 -835.01 12014.73 -685.27 11864.99 -509.2 11747.35 -313.57 11666.31 -105.88 11625 105.88 11625 313.57 11666.31 509.2 11747.35 685.27 11864.99 835.01 12014.73 952.65 12190.8 1033.69 12386.43 1075 12594.12 1075 12805.88 1033.69 13013.57 952.65 13209.2 835.01 13385.27 685.27 13535.01 509.2 13652.65 313.57 13733.69 105.88 13775 -105.88 13775 -313.57 13733.69 -509.2 13652.65 -685.27 13535.01 -835.01 13385.27 -952.65 13209.2 -995 13106.97 -995 14833.03 -952.65 14730.8 -835.01 14554.73 -685.27 14404.99 -509.2 14287.35 -313.57 14206.31 -105.88 14165 105.88 14165 313.57 14206.31 397.77 14241.19 1216.23 13422.73 1216.23 9000.67 1216.23 9000.66 1216.23 8935.15 1175.98 8874.91 1136.4 8779.37 1116.23 8677.94 1116.23 8574.52 1136.4 8473.09 1175.98 8377.55 1233.43 8291.56 1306.56 8218.44 1392.55 8160.98 1488.09 8121.41 1589.52 8101.23 1692.94 8101.23 1794.36 8121.41 1889.91 8160.98 1975.9 8218.44 2049.02 8291.56 2106.48 8377.55 2146.05 8473.09 2166.23 8574.52 2166.23 8677.94 2146.05 8779.37 2106.48 8874.91 2066.23 8935.15 2066.23 13577.91 2068.28 13598.77 2066.23 13619.64 2066.23 13619.65 2060.08 13682.09 2035.78 13762.2 1996.31 13836.03 1943.2 13900.75 1926.99 13914.05 998.81 14842.23 1033.69 14926.43 1075 15134.12 1075 15345.88 1033.69 15553.57 952.65 15749.2 835.01 15925.27 685.27 16075.01 509.2 16192.65 313.57 16273.69 105.88 16315 -105.88 16315 -313.57 16273.69 -509.2 16192.65 -685.27 16075.01 -835.01 15925.27 -952.65 15749.2 -995 15646.97 -995 17373.03 -952.65 17270.8 -835.01 17094.73 -685.27 16944.99 -509.2 16827.35 -313.57 16746.31 -105.88 16705 105.88 16705 313.57 16746.31 509.2 16827.35 685.27 16944.99 835.01 17094.73 952.65 17270.8 1033.69 17466.43 1075 17674.12 1075 17885.88 1033.69 18093.57 952.65 18289.2 835.01 18465.27 685.27 18615.01 509.2 18732.65 313.57 18813.69 105.88 18855 -105.88 18855 -313.57 18813.69 -509.2 18732.65 -685.27 18615.01 -835.01 18465.27 -952.65 18289.2 -995 18186.97 -995 19913.03 -952.65 19810.8 -835.01 19634.73 -685.27 19484.99 -509.2 19367.35 -313.57 19286.31 -105.88 19245 105.88 19245 313.57 19286.31 509.2 19367.35 685.27 19484.99 835.01 19634.73 952.65 19810.8 1033.69 20006.43 1075 20214.12 1075 20425.88 1033.69 20633.57 952.65 20829.2 835.01 21005.27 685.27 21155.01 509.2 21272.65 313.57 21353.69 105.88 21395 -105.88 21395 -313.57 21353.69 -509.2 21272.65 -685.27 21155.01 -835.01 21005.27 -952.65 20829.2 -995 20726.97 -995 21717 1630 21717 1630 15684.5 1634.9 15632.82 1650.17 15581.12 1675.24 15533.39 1709.13 15491.47 3789 13381.02 3789 10890.25 3794.71 10834.48 3810.77 10783.02 3836.56 10735.67 3871.08 10694.27 5821 8774.82 5821 5207 5826.28 5153.35 5841.93 5101.76 5867.35 5054.22 5901.55 5012.55 5943.22 4978.35 5990.76 4952.93 6042.35 4937.28 6096 4932 7112 4932 7165.65 4937.28 7217.24 4952.93 7264.78 4978.35 7306.45 5012.55 7340.65 5054.22 7366.07 5101.76 7381.72 5153.35 7387 5207 7387 14224 7381.72 14277.65 7366.07 14329.24 7340.65 14376.78 7306.45 14418.45 5994.79 15730.12 6240.48 15730.12 6260.06 15644.69 6343.15 15601.67 6433.04 15575.69 6526.27 15567.74 6619.26 15578.14 6708.43 15606.47 6779.94 15644.69 6799.52 15730.12 7340.48 15730.12 7360.06 15644.69 7443.15 15601.67 7533.04 15575.69 7626.27 15567.74 7719.25 15578.14 7808.43 15606.47 7879.94 15644.69 7899.52 15730.12 8440.48 15730.12 8460.06 15644.69 8543.15 15601.67 8633.04 15575.69 8726.27 15567.74 8819.25 15578.14 8908.43 15606.47 8979.94 15644.69 8999.52 15730.12 8720 16009.64 8440.48 15730.12 7899.52 15730.12 7620 16009.64 7340.48 15730.12 6799.52 15730.12 6520 16009.64 6240.48 15730.12 5994.79 15730.12 5686.18 16038.73 6042.74 16038.73 6053.14 15945.74 6081.47 15856.57 6119.69 15785.06 6205.12 15765.48 6484.65 16045 6555.36 16045 6834.88 15765.48 6920.31 15785.06 6963.33 15868.15 6989.31 15958.04 6996.19 16038.73 7142.74 16038.73 7153.14 15945.74 7181.47 15856.57 7219.69 15785.06 7305.12 15765.48 7584.64 16045 7655.35 16045 7934.88 15765.48 8020.31 15785.06 8063.33 15868.15 8089.31 15958.04 8096.19 16038.73 8242.74 16038.73 8253.14 15945.74 8281.47 15856.57 8319.69 15785.06 8405.12 15765.48 8684.64 16045 8755.35 16045 9034.88 15765.48 9120.31 15785.06 9163.33 15868.15 9189.31 15958.04 9197.26 16051.27 9186.86 16144.25 9158.53 16233.43 9120.31 16304.94 9034.88 16324.52 8755.35 16045 8684.64 16045 8405.12 16324.52 8319.69 16304.94 8276.67 16221.85 8250.69 16131.96 8242.74 16038.73 8096.19 16038.73 8097.26 16051.27 8086.86 16144.25 8058.53 16233.43 8020.31 16304.94 7934.88 16324.52 7655.35 16045 7584.64 16045 7305.12 16324.52 7219.69 16304.94 7176.67 16221.85 7150.69 16131.96 7142.74 16038.73 6996.19 16038.73 6997.26 16051.27 6986.86 16144.25 6958.53 16233.43 6920.31 16304.94 6834.88 16324.52 6555.36 16045 6484.65 16045 6205.12 16324.52 6119.69 16304.94 6076.67 16221.85 6050.69 16131.96 6042.74 16038.73 5686.18 16038.73 5365.03 16359.88 6240.48 16359.88 6520 16080.35 6799.52 16359.88 7340.48 16359.88 7620 16080.35 7899.52 16359.88 8440.48 16359.88 8720 16080.35 8999.52 16359.88 8979.94 16445.31 8896.85 16488.33 8806.96 16514.31 8713.73 16522.26 8620.74 16511.86 8531.57 16483.53 8460.06 16445.31 8440.48 16359.88 7899.52 16359.88 7879.94 16445.31 7796.85 16488.33 7706.96 16514.31 7613.73 16522.26 7520.74 16511.86 7431.57 16483.53 7360.06 16445.31 7340.48 16359.88 6799.52 16359.88 6779.94 16445.31 6696.85 16488.33 6606.96 16514.31 6513.73 16522.26 6420.75 16511.86 6331.57 16483.53 6260.06 16445.31 6240.48 16359.88 5365.03 16359.88 5355 16369.91 5355 16830.12 6240.48 16830.12 6260.06 16744.69 6343.15 16701.67 6433.04 16675.69 6526.27 16667.74 6619.26 16678.14 6708.43 16706.47 6779.94 16744.69 6799.52 16830.12 7340.48 16830.12 7360.06 16744.69 7443.15 16701.67 7533.04 16675.69 7626.27 16667.74 7719.25 16678.14 7808.43 16706.47 7879.94 16744.69 7899.52 16830.12 8440.48 16830.12 8460.06 16744.69 8543.15 16701.67 8633.04 16675.69 8726.27 16667.74 8819.25 16678.14 8908.43 16706.47 8979.94 16744.69 8999.52 16830.12 8720 17109.64 8440.48 16830.12 7899.52 16830.12 7620 17109.64 7340.48 16830.12 6799.52 16830.12 6520 17109.64 6240.48 16830.12 5355 16830.12 5355 17138.73 6042.74 17138.73 6053.14 17045.74 6081.47 16956.57 6119.69 16885.06 6205.12 16865.48 6484.65 17145 6555.36 17145 6834.88 16865.48 6920.31 16885.06 6963.33 16968.15 6989.31 17058.04 6996.19 17138.73 7142.74 17138.73 7153.14 17045.74 7181.47 16956.57 7219.69 16885.06 7305.12 16865.48 7584.64 17145 7655.35 17145 7934.88 16865.48 8020.31 16885.06 8063.33 16968.15 8089.31 17058.04 8096.19 17138.73 8242.74 17138.73 8253.14 17045.74 8281.47 16956.57 8319.69 16885.06 8405.12 16865.48 8684.64 17145 8755.35 17145 9034.88 16865.48 9120.31 16885.06 9163.33 16968.15 9189.31 17058.04 9197.26 17151.27 9186.86 17244.25 9158.53 17333.43 9120.31 17404.94 9034.88 17424.52 8755.35 17145 8684.64 17145 8405.12 17424.52 8319.69 17404.94 8276.67 17321.85 8250.69 17231.96 8242.74 17138.73 8096.19 17138.73 8097.26 17151.27 8086.86 17244.25 8058.53 17333.43 8020.31 17404.94 7934.88 17424.52 7655.35 17145 7584.64 17145 7305.12 17424.52 7219.69 17404.94 7176.67 17321.85 7150.69 17231.96 7142.74 17138.73 6996.19 17138.73 6997.26 17151.27 6986.86 17244.25 6958.53 17333.43 6920.31 17404.94 6834.88 17424.52 6555.36 17145 6484.65 17145 6205.12 17424.52 6119.69 17404.94 6076.67 17321.85 6050.69 17231.96 6042.74 17138.73 5355 17138.73 5355 17459.88 6240.48 17459.88 6520 17180.35 6799.52 17459.88 7340.48 17459.88 7620 17180.35 7899.52 17459.88 8440.48 17459.88 8720 17180.35 8999.52 17459.88 8979.94 17545.31 8896.85 17588.33 8806.96 17614.31 8713.73 17622.26 8620.74 17611.86 8531.57 17583.53 8460.06 17545.31 8440.48 17459.88 7899.52 17459.88 7879.94 17545.31 7796.85 17588.33 7706.96 17614.31 7613.73 17622.26 7520.74 17611.86 7431.57 17583.53 7360.06 17545.31 7340.48 17459.88 6799.52 17459.88 6779.94 17545.31 6696.85 17588.33 6606.96 17614.31 6513.73 17622.26 6420.75 17611.86 6331.57 17583.53 6260.06 17545.31 6240.48 17459.88 5355 17459.88 5355 17930.12 6240.48 17930.12 6260.06 17844.69 6343.15 17801.67 6433.04 17775.69 6526.27 17767.74 6619.26 17778.14 6708.43 17806.47 6779.94 17844.69 6799.52 17930.12 7340.48 17930.12 7360.06 17844.69 7443.15 17801.67 7533.04 17775.69 7626.27 17767.74 7719.25 17778.14 7808.43 17806.47 7879.94 17844.69 7899.52 17930.12 8440.48 17930.12 8460.06 17844.69 8543.15 17801.67 8633.04 17775.69 8726.27 17767.74 8819.25 17778.14 8908.43 17806.47 8979.94 17844.69 8999.52 17930.12 8720 18209.64 8440.48 17930.12 7899.52 17930.12 7620 18209.64 7340.48 17930.12 6799.52 17930.12 6520 18209.64 6240.48 17930.12 5355 17930.12 5355 18238.73 6042.74 18238.73 6053.14 18145.74 6081.47 18056.57 6119.69 17985.06 6205.12 17965.48 6484.65 18245 6555.36 18245 6834.88 17965.48 6920.31 17985.06 6963.33 18068.15 6989.31 18158.04 6996.19 18238.73 7142.74 18238.73 7153.14 18145.74 7181.47 18056.57 7219.69 17985.06 7305.12 17965.48 7584.64 18245 7655.35 18245 7934.88 17965.48 8020.31 17985.06 8063.33 18068.15 8089.31 18158.04 8096.19 18238.73 8242.74 18238.73 8253.14 18145.74 8281.47 18056.57 8319.69 17985.06 8405.12 17965.48 8684.64 18245 8755.35 18245 9034.88 17965.48 9120.31 17985.06 9163.33 18068.15 9189.31 18158.04 9197.26 18251.27 9186.86 18344.25 9158.53 18433.43 9120.31 18504.94 9034.88 18524.52 8755.35 18245 8684.64 18245 8405.12 18524.52 8319.69 18504.94 8276.67 18421.85 8250.69 18331.96 8242.74 18238.73 8096.19 18238.73 8097.26 18251.27 8086.86 18344.25 8058.53 18433.43 8020.31 18504.94 7934.88 18524.52 7655.35 18245 7584.64 18245 7305.12 18524.52 7219.69 18504.94 7176.67 18421.85 7150.69 18331.96 7142.74 18238.73 6996.19 18238.73 6997.26 18251.27 6986.86 18344.25 6958.53 18433.43 6920.31 18504.94 6834.88 18524.52 6555.36 18245 6484.65 18245 6205.12 18524.52 6119.69 18504.94 6076.67 18421.85 6050.69 18331.96 6042.74 18238.73 5355 18238.73 5355 18559.88 6240.48 18559.88 6520 18280.35 6799.52 18559.88 7340.48 18559.88 7620 18280.35 7899.52 18559.88 8440.48 18559.88 8720 18280.35 8999.52 18559.88 8979.94 18645.31 8896.85 18688.33 8806.96 18714.31 8713.73 18722.26 8620.74 18711.86 8531.57 18683.53 8460.06 18645.31 8440.48 18559.88 7899.52 18559.88 7879.94 18645.31 7796.85 18688.33 7706.96 18714.31 7613.73 18722.26 7520.74 18711.86 7431.57 18683.53 7360.06 18645.31 7340.48 18559.88 6799.52 18559.88 6779.94 18645.31 6696.85 18688.33 6606.96 18714.31 6513.73 18722.26 6420.75 18711.86 6331.57 18683.53 6260.06 18645.31 6240.48 18559.88 5355 18559.88 5355 20761 6067.76 20761 6096 20758.22 6124.24 20761 6124.25 20761 6208.72 20769.32 6317.11 20802.2 6417 20855.59 6504.55 20927.45 6522.57 20949.39 6838.81 21265.63 9458 21265.63 9458 21152.37 9480.1 21041.28 9523.44 20936.63 9558 20884.91 9558 15771.33 9555.7 15748 9564.87 15654.88 9571.04 15634.55 9592.03 15565.35 9636.14 15482.83 9695.5 15410.5 9713.63 15395.62 10002.5 15106.75 10002.5 10232.64 9972.68 10160.64 9952.5 10059.21 9952.5 9955.79 9972.68 9854.36 10012.25 9758.82 10069.71 9672.83 10142.83 9599.71 10228.82 9542.25 10324.36 9502.68 10425.79 9482.5 10529.21 9482.5 10630.64 9502.68 10726.18 9542.25 10812.17 9599.71 10885.29 9672.83 10942.75 9758.82 10982.32 9854.36 11002.5 9955.79 11002.5 10059.21 10982.32 10160.64 10952.5 10232.64 10952.5 15280.17 10954.8 15303.5 10945.63 15396.62 10935.92 15428.62 10918.47 15486.15 10874.36 15568.67 10815 15641 10796.87 15655.88 10508 15944.75 10508 20884.91 10542.56 20936.63 10585.9 21041.28 10608 21152.37 10608 21265.63 10585.9 21376.72 10542.56 21481.37 10479.63 21575.54 10399.54 21655.63 10305.36 21718.56 10200.72 21761.9 10089.63 21784 9976.37 21784 9865.28 21761.9 9760.63 21718.56 9666.46 21655.63 9586.37 21575.54 9523.44 21481.37 9480.1 21376.72 9458 21265.63 6838.81 21265.63 7688.17 22115 11361.83 22115 11485.99 21990.84 11474 21961.9 11425 21715.58 11425 21464.42 11474 21218.1 11570.11 20986.06 11709.64 20777.23 11887.24 20599.64 12096.06 20460.11 12328.1 20364 12574.42 20315 12825.58 20315 13071.9 20364 13303.94 20460.11 13512.77 20599.64 13690.36 20777.23 13829.89 20986.06 13926 21218.1 13975 21464.42 13975 21715.58 13926 21961.9 13829.89 22193.94 13690.36 22402.77 13512.77 22580.36 13303.94 22719.89 13071.9 22816 12825.58 22865 12574.42 22865 12328.1 22816 12299.16 22804.02 12026.57 23076.61 12008.55 23098.55 11921 23170.41 11821.11 23223.8 11712.72 23256.68 11628.25 23265 11628.24 23265 11600 23267.78 11571.76 23265 7478.24 23265 7450 23267.78 7421.76 23265 7421.75 23265 7337.28 23256.68 7228.89 23223.8 7129 23170.41 7110.53 23155.25 7041.45 23098.55 7023.44 23076.61 5857.83 21911 5274.83 21911 5274.45 21911.45 5232.78 21945.65 5185.24 21971.07 5133.65 21986.72 5080 21992 1905 21992 1851.35 21986.72 1799.76 21971.07 1752.22 21945.65 1710.55 21911.45 1676.35 21869.78 1650.93 21822.24 1635.28 21770.65 1630 21717 -995 21717 -995 22453.03 -952.65 22350.8 -835.01 22174.73 -685.27 22024.99 -509.2 21907.35 -313.57 21826.31 -105.88 21785 105.88 21785 313.57 21826.31 509.2 21907.35 685.27 22024.99 835.01 22174.73 952.65 22350.8 1033.69 22546.43 1075 22754.12 1075 22965.88 1033.69 23173.57 952.65 23369.2 835.01 23545.27 685.27 23695.01 509.2 23812.65 313.57 23893.69 105.88 23935 -105.88 23935 -313.57 23893.69 -509.2 23812.65 -685.27 23695.01 -835.01 23545.27 -952.65 23369.2 -995 23266.97 -995 24993.03 -952.65 24890.8 -835.01 24714.73 -685.27 24564.99 -509.2 24447.35 -313.57 24366.31 -105.88 24325 105.88 24325 313.57 24366.31 509.2 24447.35 685.27 24564.99 835.01 24714.73 952.65 24890.8 1033.69 25086.43 1075 25294.12 1075 25505.88 1033.69 25713.57 952.65 25909.2 835.01 26085.27 685.27 26235.01 509.2 26352.65 406.97 26395 14833.03 26395 14730.8 26352.65"/><path d="M 14730.8 26352.65 14554.73 26235.01 14404.99 26085.27 14287.35 25909.2 14206.31 25713.57 14165 25505.88 14165 25294.12 14206.31 25086.43 14287.35 24890.8 14404.99 24714.73 14554.73 24564.99 14730.8 24447.35 14926.43 24366.31 15134.12 24325 15345.88 24325 15553.57 24366.31 15749.2 24447.35 15925.27 24564.99 16075.01 24714.73 16192.65 24890.8 16235 24993.03 16235 23266.97 16192.65 23369.2 16075.01 23545.27 15925.27 23695.01 15749.2 23812.65 15553.57 23893.69 15345.88 23935 15134.12 23935 14926.43 23893.69 14730.8 23812.65 14554.73 23695.01 14404.99 23545.27 14287.35 23369.2 14206.31 23173.57 14165 22965.88 14165 22754.12 14206.31 22546.43 14287.35 22350.8 14404.99 22174.73 14554.73 22024.99 14730.8 21907.35 14926.43 21826.31 15134.12 21785 15345.88 21785 15553.57 21826.31 15749.2 21907.35 15925.27 22024.99 16075.01 22174.73 16192.65 22350.8 16235 22453.03 16235 20726.97 16192.65 20829.2 16075.01 21005.27 15925.27 21155.01 15749.2 21272.65 15553.57 21353.69 15345.88 21395 15134.12 21395 14926.43 21353.69 14730.8 21272.65 14554.73 21155.01 14404.99 21005.27 14287.35 20829.2 14206.31 20633.57 14165 20425.88 14165 20214.12 14206.31 20006.43 14287.35 19810.8 14404.99 19634.73 14554.73 19484.99 14730.8 19367.35 14926.43 19286.31 15134.12 19245 15345.88 19245 15553.57 19286.31 15749.2 19367.35 15925.27 19484.99 16075.01 19634.73 16192.65 19810.8 16235 19913.03 16235 18186.97 16192.65 18289.2 16075.01 18465.27 15925.27 18615.01 15749.2 18732.65 15553.57 18813.69 15345.88 18855 15134.12 18855 14926.43 18813.69 14730.8 18732.65 14554.73 18615.01 14404.99 18465.27 14287.35 18289.2 14206.31 18093.57 14165 17885.88 14165 17674.12 14206.31 17466.43 14287.35 17270.8 14404.99 17094.73 14554.73 16944.99 14730.8 16827.35 14926.43 16746.31 15134.12 16705 15345.88 16705 15553.57 16746.31 15749.2 16827.35 15925.27 16944.99 16075.01 17094.73 16192.65 17270.8 16235 17373.03 16235 15646.97 16192.65 15749.2 16075.01 15925.27 15925.27 16075.01 15749.2 16192.65 15553.57 16273.69 15345.88 16315 15134.12 16315 14926.43 16273.69 14730.8 16192.65 14554.73 16075.01 14404.99 15925.27 14287.35 15749.2 14206.31 15553.57 14165 15345.88 14165 15134.12 14206.31 14926.43 14287.35 14730.8 14404.99 14554.73 14554.73 14404.99 14730.8 14287.35 14926.43 14206.31 15134.12 14165 15345.88 14165 15553.57 14206.31 15749.2 14287.35 15925.27 14404.99 16075.01 14554.73 16192.65 14730.8 16235 14833.03 16235 13106.97 16192.65 13209.2 16075.01 13385.27 15925.27 13535.01 15749.2 13652.65 15553.57 13733.69 15345.88 13775 15134.12 13775 14926.43 13733.69 14730.8 13652.65 14554.73 13535.01 14404.99 13385.27 14287.35 13209.2 14206.31 13013.57 14165 12805.88 14165 12594.12 14206.31 12386.43 14287.35 12190.8 14404.99 12014.73 14554.73 11864.99 14730.8 11747.35 14926.43 11666.31 15134.12 11625 15345.88 11625 15553.57 11666.31 15749.2 11747.35 15925.27 11864.99 16075.01 12014.73 16192.65 12190.8 16235 12293.04 16235 10566.97 16192.65 10669.2 16075.01 10845.27 15925.27 10995.01 15749.2 11112.65 15553.57 11193.69 15345.88 11235 15134.12 11235 14926.43 11193.69 14730.8 11112.65 14554.73 10995.01 14404.99 10845.27 14287.35 10669.2 14206.31 10473.57 14165 10265.88 14165 10054.12 14206.31 9846.43 14287.35 9650.8 14404.99 9474.73 14554.73 9324.99 14730.8 9207.35 14926.43 9126.31 15134.12 9085 15345.88 9085 15553.57 9126.31 15749.2 9207.35 15925.27 9324.99 16075.01 9474.73 16192.65 9650.8 16235 9753.03 16235 8026.96 16192.65 8129.2 16075.01 8305.27 15925.27 8455.01 15749.2 8572.65 15553.57 8653.69 15345.88 8695 15134.12 8695 14926.43 8653.69 14892.23 8639.52 13683 9848.75 13683 15026.17 13685.3 15049.5 13676.13 15142.62 13665.23 15178.54 13648.97 15232.15 13604.86 15314.67 13545.5 15387 13527.37 15401.88 12630.04 16299.21 12617.9 16360.22 12574.56 16464.86 12511.63 16559.04 12431.54 16639.13 12337.37 16702.06 12232.72 16745.4 12171.71 16757.54 11714.5 17214.75 11714.5 17773.41 11749.06 17825.13 11792.4 17929.78 11814.5 18040.87 11814.5 18154.13 11792.4 18265.22 11749.06 18369.86 11686.13 18464.04 11606.04 18544.13 11511.87 18607.06 11407.22 18650.4 11296.13 18672.5 11182.87 18672.5 11071.78 18650.4 10967.14 18607.06 10872.96 18544.13 10792.87 18464.04 10729.94 18369.86 10686.6 18265.22 10664.5 18154.13 10664.5 18040.87 10686.6 17929.78 10729.94 17825.13 10764.5 17773.41 10764.5 17041.33 10762.2 17018 10771.37 16924.88 10798.53 16835.35 10842.64 16752.83 10902 16680.5 10920.13 16665.62 11499.96 16085.79 11512.1 16024.78 11555.44 15920.13 11618.37 15825.96 11698.46 15745.87 11792.64 15682.94 11897.28 15639.6 11958.29 15627.46 12733 14852.75 12733 9675.33 12730.7 9652 12739.12 9566.53 12739.87 9558.88 12767.03 9469.35 12811.14 9386.83 12870.5 9314.5 12888.63 9299.62 14220.48 7967.77 14206.31 7933.57 14165 7725.88 14165 7514.12 14206.31 7306.43 14287.35 7110.8 14404.99 6934.73 14554.73 6784.99 14730.8 6667.35 14926.43 6586.31 15134.12 6545 15345.88 6545 15553.57 6586.31 15749.2 6667.35 15925.27 6784.99 16075.01 6934.73 16192.65 7110.8 16235 7213.03 16235 5486.97 16192.65 5589.2 16075.01 5765.27 15925.27 5915.01 15749.2 6032.65 15553.57 6113.69 15345.88 6155 15134.12 6155 14926.43 6113.69 14730.8 6032.65 14554.73 5915.01 14404.99 5765.27 14287.35 5589.2 14206.31 5393.57 14165 5185.88 14165 4974.12 14206.31 4766.43 14287.35 4570.8 14404.99 4394.73 14554.73 4244.99 14730.8 4127.35 14926.43 4046.31 15134.12 4005 15345.88 4005 15553.57 4046.31 15749.2 4127.35 15925.27 4244.99 16075.01 4394.73 16192.65 4570.8 16235 4673.03 16235 2777.49 16181.04 2946.3 16083.69 3122.08 15953.92 3275.49 15796.72 3400.64 15618.12 3492.71 15424.99 3548.17 15265 3508.45 15265 2565 15285 2565 15285 2515 15265 2515 15265 1571.55 15424.99 1531.83 15618.12 1587.29 15796.72 1679.37 15953.92 1804.51 16083.69 1957.92 16181.04 2133.7 16235 2302.51 16235 406.96 16192.65 509.2 16075.01 685.27 15925.27 835.01 15749.2 952.65 15553.57 1033.69 15345.88 1075 15134.12 1075 14926.43 1033.69 14730.8 952.65 14554.73 835.01 14404.99 685.27 14287.35 509.2 14206.31 313.57 14165 105.88 14165 -105.88 14206.31 -313.57 14287.35 -509.2 14404.99 -685.27 14554.73 -835.01 14730.8 -952.65 14833.03 -995 995.72 -995 1029.76 -953.52 1055.3 -905.75 1071.02 -853.91 1076.33 -800 1076.33 800 1071.02 853.91 1055.3 905.75 1029.76 953.52 995.39 995.39 953.52 1029.76 905.75 1055.3 853.91 1071.02 800 1076.33 -800 1076.33 -853.91 1071.02 -905.75 1055.3 -953.52 1029.76 -995 995.72 -995 2133.03 -952.65 2030.8 -835.01 1854.73 -685.27 1704.99 -509.2 1587.35 -313.57 1506.31 -105.88 1465 105.88 1465 313.57 1506.31 509.2 1587.35 685.27 1704.99 835.01 1854.73 952.65 2030.8 1033.69 2226.43 1059.26 2355.01 14231.83 2355.01 14237.78 2325.1 14298.96 2133.7 14396.31 1957.92 14526.08 1804.51 14683.28 1679.37 14861.88 1587.29 15055.01 1531.83 15215 1571.55 15215 2515 14271.57 2515 14231.83 2355.01 1059.26 2355.01 1075 2434.12 1075 2645.88 1059.26 2724.99 14231.83 2724.99 14271.57 2565 15215 2565 15215 3508.45 15055.01 3548.17 14861.88 3492.71 14683.28 3400.64 14526.08 3275.49 14396.31 3122.08 14298.96 2946.3 14237.78 2754.9 14231.83 2724.99 1059.26 2724.99 1033.69 2853.57 952.65 3049.2 835.01 3225.27 685.27 3375.01 509.2 3492.65 313.57 3573.69 105.88 3615 -105.88 3615 -313.57 3573.69 -509.2 3492.65 -685.27 3375.01 -835.01 3225.27 -952.65 3049.2 -995 2946.97 -995 4673.03 -952.65 4570.8 -835.01 4394.73 -685.27 4244.99 -509.2 4127.35 -313.57 4046.31 -105.88 4005 105.88 4005 313.57 4046.31 509.2 4127.35 685.27 4244.99 835.01 4394.73 952.65 4570.8 1033.69 4766.43 1075 4974.12 1075 5185.88 1033.69 5393.57 952.65 5589.2 835.01 5765.27 685.27 5915.01 509.2 6032.65 313.57 6113.69 105.88 6155 -105.88 6155 -313.57 6113.69 -509.2 6032.65 -685.27 5915.01 -835.01 5765.27 -952.65 5589.2 -995 5486.97 -995 7382.51 -941.04 7213.7 -843.69 7037.92 -713.92 6884.51 -556.72 6759.37 -378.12 6667.29 -184.99 6611.83 -25 6651.55 -25 7595 25 7595 25 6651.55 184.99 6611.83 378.12 6667.29 556.72 6759.37 713.92 6884.51 843.69 7037.92 941.04 7213.7 1002.22 7405.1 1008.17 7435.01 968.43 7595 25 7595 -25 7595 -45 7595 -45 7645 -25 7645 -25 8588.45 25 8588.45 25 7645 968.43 7645 1008.17 7804.99 1002.22 7834.9 941.04 8026.3 843.69 8202.08 713.92 8355.49 556.72 8480.63 378.12 8572.71 184.99 8628.17 25 8588.45 -25 8588.45 -184.99 8628.17 -378.12 8572.71 -556.72 8480.63 -713.92 8355.49 -843.69 8202.08 -941.04 8026.3 -995 7857.49 -995 9753.03 -952.65 9650.8 -835.01 9474.73 -685.27 9324.99 -509.2 9207.35 -313.57 9126.31 -105.88 9085 105.88 9085 313.57 9126.31 509.2 9207.35 685.27 9324.99 835.01 9474.73 952.65 9650.8 1033.69 9846.43 1075 10054.12 1075 10265.88 1033.69 10473.57 952.65 10669.2 835.01 10845.27 685.27 10995.01 509.2 11112.65 313.57 11193.69 105.88 11235 -105.88 11235 -313.57 11193.69 -509.2 11112.65 -685.27 10995.01 -835.01 10845.27 -952.65 10669.2 -995 10566.97 -995 12293.03 -952.65 12190.8 -835.01 12014.73 -685.27 11864.99 -509.2 11747.35 -313.57 11666.31 -105.88 11625 105.88 11625 313.57 11666.31 509.2 11747.35 685.27 11864.99 835.01 12014.73 952.65 12190.8 1033.69 12386.43 1075 12594.12 1075 12805.88 1033.69 13013.57 952.65 13209.2 835.01 13385.27 685.27 13535.01 509.2 13652.65 313.57 13733.69 105.88 13775 -105.88 13775 -313.57 13733.69 -509.2 13652.65 -685.27 13535.01 -835.01 13385.27 -952.65 13209.2 -995 13106.97 -995 14833.03 -952.65 14730.8 -835.01 14554.73 -685.27 14404.99 -509.2 14287.35 -313.57 14206.31 -105.88 14165 105.88 14165 313.57 14206.31 397.77 14241.19 1216.23 13422.73 1216.23 9000.67 1216.23 9000.66 1216.23 8935.15 1175.98 8874.91 1136.4 8779.37 1116.23 8677.94 1116.23 8574.52 1136.4 8473.09 1175.98 8377.55 1233.43 8291.56 1306.56 8218.44 1392.55 8160.98 1488.09 8121.41 1589.52 8101.23 1692.94 8101.23 1794.36 8121.41 1889.91 8160.98 1975.9 8218.44 2049.02 8291.56 2106.48 8377.55 2146.05 8473.09 2166.23 8574.52 2166.23 8677.94 2146.05 8779.37 2106.48 8874.91 2066.23 8935.15 2066.23 13577.91 2068.28 13598.77 2066.23 13619.64 2066.23 13619.65 2060.08 13682.09 2035.78 13762.2 1996.31 13836.03 1943.2 13900.75 1926.99 13914.05 998.81 14842.23 1033.69 14926.43 1075 15134.12 1075 15345.88 1033.69 15553.57 952.65 15749.2 835.01 15925.27 685.27 16075.01 509.2 16192.65 313.57 16273.69 105.88 16315 -105.88 16315 -313.57 16273.69 -509.2 16192.65 -685.27 16075.01 -835.01 15925.27 -952.65 15749.2 -995 15646.97 -995 17373.03 -952.65 17270.8 -835.01 17094.73 -685.27 16944.99 -509.2 16827.35 -313.57 16746.31 -105.88 16705 105.88 16705 313.57 16746.31 509.2 16827.35 685.27 16944.99 835.01 17094.73 952.65 17270.8 1033.69 17466.43 1075 17674.12 1075 17885.88 1033.69 18093.57 952.65 18289.2 835.01 18465.27 685.27 18615.01 509.2 18732.65 313.57 18813.69 105.88 18855 -105.88 18855 -313.57 18813.69 -509.2 18732.65 -685.27 18615.01 -835.01 18465.27 -952.65 18289.2 -995 18186.97 -995 19913.03 -952.65 19810.8 -835.01 19634.73 -685.27 19484.99 -509.2 19367.35 -313.57 19286.31 -105.88 19245 105.88 19245 313.57 19286.31 509.2 19367.35 685.27 19484.99 835.01 19634.73 952.65 19810.8 1033.69 20006.43 1075 20214.12 1075 20425.88 1033.69 20633.57 952.65 20829.2 835.01 21005.27 685.27 21155.01 509.2 21272.65 313.57 21353.69 105.88 21395 -105.88 21395 -313.57 21353.69 -509.2 21272.65 -685.27 21155.01 -835.01 21005.27 -952.65 20829.2 -995 20726.97 -995 21717 1630 21717 1630 15684.5 1634.9 15632.82 1650.17 15581.12 1675.24 15533.39 1709.13 15491.47 3789 13381.02 3789 10890.25 3794.71 10834.48 3810.77 10783.02 3836.56 10735.67 3871.08 10694.27 5821 8774.82 5821 5207 5826.28 5153.35 5841.93 5101.76 5867.35 5054.22 5901.55 5012.55 5943.22 4978.35 5990.76 4952.93 6042.35 4937.28 6096 4932 7112 4932 7165.65 4937.28 7217.24 4952.93 7264.78 4978.35 7306.45 5012.55 7340.65 5054.22 7366.07 5101.76 7381.72 5153.35 7387 5207 7387 14224 7381.72 14277.65 7366.07 14329.24 7340.65 14376.78 7306.45 14418.45 5994.79 15730.12 6240.48 15730.12 6260.06 15644.69 6343.15 15601.67 6433.04 15575.69 6526.27 15567.74 6619.26 15578.14 6708.43 15606.47 6779.94 15644.69 6799.52 15730.12 7340.48 15730.12 7360.06 15644.69 7443.15 15601.67 7533.04 15575.69 7626.27 15567.74 7719.25 15578.14 7808.43 15606.47 7879.94 15644.69 7899.52 15730.12 8440.48 15730.12 8460.06 15644.69 8543.15 15601.67 8633.04 15575.69 8726.27 15567.74 8819.25 15578.14 8908.43 15606.47 8979.94 15644.69 8999.52 15730.12 8720 16009.64 8440.48 15730.12 7899.52 15730.12 7620 16009.64 7340.48 15730.12 6799.52 15730.12 6520 16009.64 6240.48 15730.12 5994.79 15730.12 5686.18 16038.73 6042.74 16038.73 6053.14 15945.74 6081.47 15856.57 6119.69 15785.06 6205.12 15765.48 6484.65 16045 6555.36 16045 6834.88 15765.48 6920.31 15785.06 6963.33 15868.15 6989.31 15958.04 6996.19 16038.73 7142.74 16038.73 7153.14 15945.74 7181.47 15856.57 7219.69 15785.06 7305.12 15765.48 7584.64 16045 7655.35 16045 7934.88 15765.48 8020.31 15785.06 8063.33 15868.15 8089.31 15958.04 8096.19 16038.73 8242.74 16038.73 8253.14 15945.74 8281.47 15856.57 8319.69 15785.06 8405.12 15765.48 8684.64 16045 8755.35 16045 9034.88 15765.48 9120.31 15785.06 9163.33 15868.15 9189.31 15958.04 9197.26 16051.27 9186.86 16144.25 9158.53 16233.43 9120.31 16304.94 9034.88 16324.52 8755.35 16045 8684.64 16045 8405.12 16324.52 8319.69 16304.94 8276.67 16221.85 8250.69 16131.96 8242.74 16038.73 8096.19 16038.73 8097.26 16051.27 8086.86 16144.25 8058.53 16233.43 8020.31 16304.94 7934.88 16324.52 7655.35 16045 7584.64 16045 7305.12 16324.52 7219.69 16304.94 7176.67 16221.85 7150.69 16131.96 7142.74 16038.73 6996.19 16038.73 6997.26 16051.27 6986.86 16144.25 6958.53 16233.43 6920.31 16304.94 6834.88 16324.52 6555.36 16045 6484.65 16045 6205.12 16324.52 6119.69 16304.94 6076.67 16221.85 6050.69 16131.96 6042.74 16038.73 5686.18 16038.73 5365.03 16359.88 6240.48 16359.88 6520 16080.35 6799.52 16359.88 7340.48 16359.88 7620 16080.35 7899.52 16359.88 8440.48 16359.88 8720 16080.35 8999.52 16359.88 8979.94 16445.31 8896.85 16488.33 8806.96 16514.31 8713.73 16522.26 8620.74 16511.86 8531.57 16483.53 8460.06 16445.31 8440.48 16359.88 7899.52 16359.88 7879.94 16445.31 7796.85 16488.33 7706.96 16514.31 7613.73 16522.26 7520.74 16511.86 7431.57 16483.53 7360.06 16445.31 7340.48 16359.88 6799.52 16359.88 6779.94 16445.31 6696.85 16488.33 6606.96 16514.31 6513.73 16522.26 6420.75 16511.86 6331.57 16483.53 6260.06 16445.31 6240.48 16359.88 5365.03 16359.88 5355 16369.91 5355 16830.12 6240.48 16830.12 6260.06 16744.69 6343.15 16701.67 6433.04 16675.69 6526.27 16667.74 6619.26 16678.14 6708.43 16706.47 6779.94 16744.69 6799.52 16830.12 7340.48 16830.12 7360.06 16744.69 7443.15 16701.67 7533.04 16675.69 7626.27 16667.74 7719.25 16678.14 7808.43 16706.47 7879.94 16744.69 7899.52 16830.12 8440.48 16830.12 8460.06 16744.69 8543.15 16701.67 8633.04 16675.69 8726.27 16667.74 8819.25 16678.14 8908.43 16706.47 8979.94 16744.69 8999.52 16830.12 8720 17109.64 8440.48 16830.12 7899.52 16830.12 7620 17109.64 7340.48 16830.12 6799.52 16830.12 6520 17109.64 6240.48 16830.12 5355 16830.12 5355 17138.73 6042.74 17138.73 6053.14 17045.74 6081.47 16956.57 6119.69 16885.06 6205.12 16865.48 6484.65 17145 6555.36 17145 6834.88 16865.48 6920.31 16885.06 6963.33 16968.15 6989.31 17058.04 6996.19 17138.73 7142.74 17138.73 7153.14 17045.74 7181.47 16956.57 7219.69 16885.06 7305.12 16865.48 7584.64 17145 7655.35 17145 7934.88 16865.48 8020.31 16885.06 8063.33 16968.15 8089.31 17058.04 8096.19 17138.73 8242.74 17138.73 8253.14 17045.74 8281.47 16956.57 8319.69 16885.06 8405.12 16865.48 8684.64 17145 8755.35 17145 9034.88 16865.48 9120.31 16885.06 9163.33 16968.15 9189.31 17058.04 9197.26 17151.27 9186.86 17244.25 9158.53 17333.43 9120.31 17404.94 9034.88 17424.52 8755.35 17145 8684.64 17145 8405.12 17424.52 8319.69 17404.94 8276.67 17321.85 8250.69 17231.96 8242.74 17138.73 8096.19 17138.73 8097.26 17151.27 8086.86 17244.25 8058.53 17333.43 8020.31 17404.94 7934.88 17424.52 7655.35 17145 7584.64 17145 7305.12 17424.52 7219.69 17404.94 7176.67 17321.85 7150.69 17231.96 7142.74 17138.73 6996.19 17138.73 6997.26 17151.27 6986.86 17244.25 6958.53 17333.43 6920.31 17404.94 6834.88 17424.52 6555.36 17145 6484.65 17145 6205.12 17424.52 6119.69 17404.94 6076.67 17321.85 6050.69 17231.96 6042.74 17138.73 5355 17138.73 5355 17459.88 6240.48 17459.88 6520 17180.35 6799.52 17459.88 7340.48 17459.88 7620 17180.35 7899.52 17459.88 8440.48 17459.88 8720 17180.35 8999.52 17459.88 8979.94 17545.31 8896.85 17588.33 8806.96 17614.31 8713.73 17622.26 8620.74 17611.86 8531.57 17583.53 8460.06 17545.31 8440.48 17459.88 7899.52 17459.88 7879.94 17545.31 7796.85 17588.33 7706.96 17614.31 7613.73 17622.26 7520.74 17611.86 7431.57 17583.53 7360.06 17545.31 7340.48 17459.88 6799.52 17459.88 6779.94 17545.31 6696.85 17588.33 6606.96 17614.31 6513.73 17622.26 6420.75 17611.86 6331.57 17583.53 6260.06 17545.31 6240.48 17459.88 5355 17459.88 5355 17930.12 6240.48 17930.12 6260.06 17844.69 6343.15 17801.67 6433.04 17775.69 6526.27 17767.74 6619.26 17778.14 6708.43 17806.47 6779.94 17844.69 6799.52 17930.12 7340.48 17930.12 7360.06 17844.69 7443.15 17801.67 7533.04 17775.69 7626.27 17767.74 7719.25 17778.14 7808.43 17806.47 7879.94 17844.69 7899.52 17930.12 8440.48 17930.12 8460.06 17844.69 8543.15 17801.67 8633.04 17775.69 8726.27 17767.74 8819.25 17778.14 8908.43 17806.47 8979.94 17844.69 8999.52 17930.12 8720 18209.64 8440.48 17930.12 7899.52 17930.12 7620 18209.64 7340.48 17930.12 6799.52 17930.12 6520 18209.64 6240.48 17930.12 5355 17930.12 5355 18238.73 6042.74 18238.73 6053.14 18145.74 6081.47 18056.57 6119.69 17985.06 6205.12 17965.48 6484.65 18245 6555.36 18245 6834.88 17965.48 6920.31 17985.06 6963.33 18068.15 6989.31 18158.04 6996.19 18238.73 7142.74 18238.73 7153.14 18145.74 7181.47 18056.57 7219.69 17985.06 7305.12 17965.48 7584.64 18245 7655.35 18245 7934.88 17965.48 8020.31 17985.06 8063.33 18068.15 8089.31 18158.04 8096.19 18238.73 8242.74 18238.73 8253.14 18145.74 8281.47 18056.57 8319.69 17985.06 8405.12 17965.48 8684.64 18245 8755.35 18245 9034.88 17965.48 9120.31 17985.06 9163.33 18068.15 9189.31 18158.04 9197.26 18251.27 9186.86 18344.25 9158.53 18433.43 9120.31 18504.94 9034.88 18524.52 8755.35 18245 8684.64 18245 8405.12 18524.52 8319.69 18504.94 8276.67 18421.85 8250.69 18331.96 8242.74 18238.73 8096.19 18238.73 8097.26 18251.27 8086.86 18344.25 8058.53 18433.43 8020.31 18504.94 7934.88 18524.52 7655.35 18245 7584.64 18245 7305.12 18524.52 7219.69 18504.94 7176.67 18421.85 7150.69 18331.96 7142.74 18238.73 6996.19 18238.73 6997.26 18251.27 6986.86 18344.25 6958.53 18433.43 6920.31 18504.94 6834.88 18524.52 6555.36 18245 6484.65 18245 6205.12 18524.52 6119.69 18504.94 6076.67 18421.85 6050.69 18331.96 6042.74 18238.73 5355 18238.73 5355 18559.88 6240.48 18559.88 6520 18280.35 6799.52 18559.88 7340.48 18559.88 7620 18280.35 7899.52 18559.88 8440.48 18559.88 8720 18280.35 8999.52 18559.88 8979.94 18645.31 8896.85 18688.33 8806.96 18714.31 8713.73 18722.26 8620.74 18711.86 8531.57 18683.53 8460.06 18645.31 8440.48 18559.88 7899.52 18559.88 7879.94 18645.31 7796.85 18688.33 7706.96 18714.31 7613.73 18722.26 7520.74 18711.86 7431.57 18683.53 7360.06 18645.31 7340.48 18559.88 6799.52 18559.88 6779.94 18645.31 6696.85 18688.33 6606.96 18714.31 6513.73 18722.26 6420.75 18711.86 6331.57 18683.53 6260.06 18645.31 6240.48 18559.88 5355 18559.88 5355 20761 6067.76 20761 6096 20758.22 6124.24 20761 6124.25 20761 6208.72 20769.32 6317.11 20802.2 6417 20855.59 6504.55 20927.45 6522.57 20949.39 6838.81 21265.63 9458 21265.63 9458 21152.37 9480.1 21041.28 9523.44 20936.63 9558 20884.91 9558 15771.33 9555.7 15748 9564.87 15654.88 9571.04 15634.55 9592.03 15565.35 9636.14 15482.83 9695.5 15410.5 9713.63 15395.62 10002.5 15106.75 10002.5 10232.64 9972.68 10160.64 9952.5 10059.21 9952.5 9955.79 9972.68 9854.36 10012.25 9758.82 10069.71 9672.83 10142.83 9599.71 10228.82 9542.25 10324.36 9502.68 10425.79 9482.5 10529.21 9482.5 10630.64 9502.68 10726.18 9542.25 10812.17 9599.71 10885.29 9672.83 10942.75 9758.82 10982.32 9854.36 11002.5 9955.79 11002.5 10059.21 10982.32 10160.64 10952.5 10232.64 10952.5 15280.17 10954.8 15303.5 10945.63 15396.62 10935.92 15428.62 10918.47 15486.15 10874.36 15568.67 10815 15641 10796.87 15655.88 10508 15944.75 10508 20884.91 10542.56 20936.63 10585.9 21041.28 10608 21152.37 10608 21265.63 10585.9 21376.72 10542.56 21481.37 10479.63 21575.54 10399.54 21655.63 10305.36 21718.56 10200.72 21761.9 10089.63 21784 9976.37 21784 9865.28 21761.9 9760.63 21718.56 9666.46 21655.63 9586.37 21575.54 9523.44 21481.37 9480.1 21376.72 9458 21265.63 6838.81 21265.63 7688.17 22115 11361.83 22115 11485.99 21990.84 11474 21961.9 11425 21715.58 11425 21464.42 11474 21218.1 11570.11 20986.06 11709.64 20777.23 11887.24 20599.64 12096.06 20460.11 12328.1 20364 12574.42 20315 12825.58 20315 13071.9 20364 13303.94 20460.11 13512.77 20599.64 13690.36 20777.23 13829.89 20986.06 13926 21218.1 13975 21464.42 13975 21715.58 13926 21961.9 13829.89 22193.94 13690.36 22402.77 13512.77 22580.36 13303.94 22719.89 13071.9 22816 12825.58 22865 12574.42 22865 12328.1 22816 12299.16 22804.02 12026.57 23076.61 12008.55 23098.55 11921 23170.41 11821.11 23223.8 11712.72 23256.68 11628.25 23265 11628.24 23265 11600 23267.78 11571.76 23265 7478.24 23265 7450 23267.78 7421.76 23265 7421.75 23265 7337.28 23256.68 7228.89 23223.8 7129 23170.41 7110.53 23155.25 7041.45 23098.55 7023.44 23076.61 5857.83 21911 5274.83 21911 5274.45 21911.45 5232.78 21945.65 5185.24 21971.07 5133.65 21986.72 5080 21992 1905 21992 1851.35 21986.72 1799.76 21971.07 1752.22 21945.65 1710.55 21911.45 1676.35 21869.78 1650.93 21822.24 1635.28 21770.65 1630 21717 -995 21717 -995 22453.03 -952.65 22350.8 -835.01 22174.73 -685.27 22024.99 -509.2 21907.35 -313.57 21826.31 -105.88 21785 105.88 21785 313.57 21826.31 509.2 21907.35 685.27 22024.99 835.01 22174.73 952.65 22350.8 1033.69 22546.43 1075 22754.12 1075 22965.88 1033.69 23173.57 952.65 23369.2 835.01 23545.27 685.27 23695.01 509.2 23812.65 313.57 23893.69 105.88 23935 -105.88 23935 -313.57 23893.69 -509.2 23812.65 -685.27 23695.01 -835.01 23545.27 -952.65 23369.2 -995 23266.97 -995 24993.03 -952.65 24890.8 -835.01 24714.73 -685.27 24564.99 -509.2 24447.35 -313.57 24366.31 -105.88 24325 105.88 24325 313.57 24366.31 509.2 24447.35 685.27 24564.99 835.01 24714.73 952.65 24890.8 1033.69 25086.43 1075 25294.12 1075 25505.88 1033.69 25713.57 952.65 25909.2 835.01 26085.27 685.27 26235.01 509.2 26352.65 406.97 26395 14833.03 26395 14730.8 26352.65" fill="none" stroke-width="150"/><path d="M 4953 16256 4955.44 16231.22 4962.67 16207.4 4974.4 16185.44 4990.2 16166.2 6985 14171.39 6985 5334 6223 5334 6223 8890 6220.56 8914.78 6213.33 8938.6 6201.6 8960.56 6185.09 8980.51 4191 10943.44 4191 13493.75 4188.56 13518.53 4181.33 13542.35 4169.6 13564.31 4154.46 13582.9 2032 15736.56 2032 21590 4953 21590 4953 16256"/><path d="M 4953 16256 4955.44 16231.22 4962.67 16207.4 4974.4 16185.44 4990.2 16166.2 6985 14171.39 6985 5334 6223 5334 6223 8890 6220.56 8914.78 6213.33 8938.6 6201.6 8960.56 6185.09 8980.51 4191 10943.44 4191 13493.75 4188.56 13518.53 4181.33 13542.35 4169.6 13564.31 4154.46 13582.9 2032 15736.56 2032 21590 4953 21590 4953 16256" fill="none" stroke-width="254"/></g><g id="Fzr4dgTq4nmt_bottom_drill1"><use xlink:href="#G-k6jZgJ-Kdh_pad-1" x="889" y="21590"/><use xlink:href="#G-k6jZgJ-Kdh_pad-1" x="889" y="19050"/><use xlink:href="#G-k6jZgJ-Kdh_pad-1" x="889" y="16510"/><use xlink:href="#G-k6jZgJ-Kdh_pad-1" x="1397" y="24130"/><use xlink:href="#G-k6jZgJ-Kdh_pad-1" x="1641" y="8626"/><use xlink:href="#G-k6jZgJ-Kdh_pad-1" x="2349" y="16192"/><use xlink:href="#G-k6jZgJ-Kdh_pad-1" x="2413" y="21336"/><use xlink:href="#G-k6jZgJ-Kdh_pad-1" x="2413" y="18098"/><use xlink:href="#G-k6jZgJ-Kdh_pad-1" x="2540" y="2540"/><use xlink:href="#G-k6jZgJ-Kdh_pad-1" x="2540" y="0"/><use xlink:href="#G-k6jZgJ-Kdh_pad-1" x="2857" y="10795"/><use xlink:href="#G-k6jZgJ-Kdh_pad-1" x="2921" y="9144"/><use xlink:href="#G-k6jZgJ-Kdh_pad-1" x="3175" y="21336"/><use xlink:href="#G-k6jZgJ-Kdh_pad-1" x="3937" y="21336"/><use xlink:href="#G-k6jZgJ-Kdh_pad-1" x="4064" y="8382"/><use xlink:href="#G-k6jZgJ-Kdh_pad-1" x="4445" y="6350"/><use xlink:href="#G-k6jZgJ-Kdh_pad-1" x="4763" y="11557"/><use xlink:href="#G-k6jZgJ-Kdh_pad-1" x="4953" y="14859"/><use xlink:href="#G-k6jZgJ-Kdh_pad-1" x="4953" y="13335"/><use xlink:href="#G-k6jZgJ-Kdh_pad-1" x="5207" y="25400"/><use xlink:href="#G-k6jZgJ-Kdh_pad-1" x="5207" y="24130"/><use xlink:href="#G-k6jZgJ-Kdh_pad-1" x="5207" y="22860"/><use xlink:href="#G-k6jZgJ-Kdh_pad-1" x="5461" y="7366"/><use xlink:href="#G-k6jZgJ-Kdh_pad-1" x="5700" y="14844"/><use xlink:href="#G-k6jZgJ-Kdh_pad-1" x="5715" y="20066"/><use xlink:href="#G-k6jZgJ-Kdh_pad-1" x="5715" y="19050"/><use xlink:href="#G-k6jZgJ-Kdh_pad-1" x="5715" y="13335"/><use xlink:href="#G-k6jZgJ-Kdh_pad-1" x="6604" y="6858"/><use xlink:href="#G-k6jZgJ-Kdh_pad-1" x="6614" y="7874"/><use xlink:href="#G-k6jZgJ-Kdh_pad-1" x="6619" y="5842"/><use xlink:href="#G-k6jZgJ-Kdh_pad-1" x="6985" y="2540"/><use xlink:href="#G-k6jZgJ-Kdh_pad-1" x="6985" y="0"/><use xlink:href="#G-k6jZgJ-Kdh_pad-1" x="7747" y="12509"/><use xlink:href="#G-k6jZgJ-Kdh_pad-1" x="8890" y="2540"/><use xlink:href="#G-k6jZgJ-Kdh_pad-1" x="8890" y="0"/><use xlink:href="#G-k6jZgJ-Kdh_pad-1" x="9144" y="21844"/><use xlink:href="#G-k6jZgJ-Kdh_pad-1" x="9144" y="20701"/><use xlink:href="#G-k6jZgJ-Kdh_pad-1" x="9398" y="15367"/><use xlink:href="#G-k6jZgJ-Kdh_pad-1" x="9398" y="13081"/><use xlink:href="#G-k6jZgJ-Kdh_pad-1" x="9695" y="22690"/><use xlink:href="#G-k6jZgJ-Kdh_pad-1" x="9779" y="14732"/><use xlink:href="#G-k6jZgJ-Kdh_pad-1" x="10414" y="7620"/><use xlink:href="#G-k6jZgJ-Kdh_pad-1" x="10414" y="5080"/><use xlink:href="#G-k6jZgJ-Kdh_pad-1" x="10477" y="10008"/><use xlink:href="#G-k6jZgJ-Kdh_pad-1" x="10795" y="24765"/><use xlink:href="#G-k6jZgJ-Kdh_pad-1" x="11176" y="20701"/><use xlink:href="#G-k6jZgJ-Kdh_pad-1" x="12065" y="24765"/><use xlink:href="#G-k6jZgJ-Kdh_pad-1" x="12065" y="14351"/><use xlink:href="#G-k6jZgJ-Kdh_pad-1" x="12383" y="10731"/><use xlink:href="#G-k6jZgJ-Kdh_pad-1" x="12446" y="7620"/><use xlink:href="#G-k6jZgJ-Kdh_pad-1" x="12446" y="5080"/><use xlink:href="#G-k6jZgJ-Kdh_pad-1" x="12700" y="0"/><use xlink:href="#G-k6jZgJ-Kdh_pad-1" x="14224" y="19050"/><use xlink:href="#G-k6jZgJ-Kdh_pad-1" x="14224" y="16510"/><use xlink:href="#G-k6jZgJ-Kdh_pad-1" x="14224" y="13970"/><use xlink:href="#G-k6jZgJ-Kdh_pad-1" x="14478" y="21590"/><use xlink:href="#G-k6jZgJ-Kdh_pad-1" x="14478" y="11430"/><use xlink:href="#G-k6jZgJ-Kdh_pad-1" x="14605" y="24130"/><use xlink:href="#G-k6jZgJ-Kdh_pad-1" x="6520" y="18245"/><use xlink:href="#G-k6jZgJ-Kdh_pad-1" x="6520" y="17145"/><use xlink:href="#G-k6jZgJ-Kdh_pad-1" x="6520" y="16045"/><use xlink:href="#G-k6jZgJ-Kdh_pad-1" x="7620" y="18245"/><use xlink:href="#G-k6jZgJ-Kdh_pad-1" x="7620" y="17145"/><use xlink:href="#G-k6jZgJ-Kdh_pad-1" x="7620" y="16045"/><use xlink:href="#G-k6jZgJ-Kdh_pad-1" x="8720" y="18245"/><use xlink:href="#G-k6jZgJ-Kdh_pad-1" x="8720" y="17145"/><use xlink:href="#G-k6jZgJ-Kdh_pad-1" x="8720" y="16045"/><use xlink:href="#G-k6jZgJ-Kdh_pad-2" x="10033" y="21209"/><use xlink:href="#G-k6jZgJ-Kdh_pad-2" x="11239" y="18098"/><use xlink:href="#G-k6jZgJ-Kdh_pad-2" x="12065" y="16192"/><use xlink:href="#G-k6jZgJ-Kdh_pad-3" x="12700" y="21590"/><use xlink:href="#G-k6jZgJ-Kdh_pad-3" x="0" y="27940"/><use xlink:href="#G-k6jZgJ-Kdh_pad-3" x="0" y="25400"/><use xlink:href="#G-k6jZgJ-Kdh_pad-3" x="0" y="22860"/><use xlink:href="#G-k6jZgJ-Kdh_pad-3" x="0" y="20320"/><use xlink:href="#G-k6jZgJ-Kdh_pad-3" x="0" y="17780"/><use xlink:href="#G-k6jZgJ-Kdh_pad-3" x="0" y="15240"/><use xlink:href="#G-k6jZgJ-Kdh_pad-3" x="0" y="12700"/><use xlink:href="#G-k6jZgJ-Kdh_pad-3" x="0" y="10160"/><use xlink:href="#G-k6jZgJ-Kdh_pad-3" x="0" y="7620"/><use xlink:href="#G-k6jZgJ-Kdh_pad-3" x="0" y="5080"/><use xlink:href="#G-k6jZgJ-Kdh_pad-3" x="0" y="2540"/><use xlink:href="#G-k6jZgJ-Kdh_pad-3" x="0" y="0"/><use xlink:href="#G-k6jZgJ-Kdh_pad-3" x="15240" y="27940"/><use xlink:href="#G-k6jZgJ-Kdh_pad-3" x="15240" y="25400"/><use xlink:href="#G-k6jZgJ-Kdh_pad-3" x="15240" y="22860"/><use xlink:href="#G-k6jZgJ-Kdh_pad-3" x="15240" y="20320"/><use xlink:href="#G-k6jZgJ-Kdh_pad-3" x="15240" y="17780"/><use xlink:href="#G-k6jZgJ-Kdh_pad-3" x="15240" y="15240"/><use xlink:href="#G-k6jZgJ-Kdh_pad-3" x="15240" y="12700"/><use xlink:href="#G-k6jZgJ-Kdh_pad-3" x="15240" y="10160"/><use xlink:href="#G-k6jZgJ-Kdh_pad-3" x="15240" y="7620"/><use xlink:href="#G-k6jZgJ-Kdh_pad-3" x="15240" y="5080"/><use xlink:href="#G-k6jZgJ-Kdh_pad-3" x="15240" y="2540"/><use xlink:href="#G-k6jZgJ-Kdh_pad-3" x="15240" y="0"/></g><clipPath id="Fzr4dgTq4nmt_bottom_outline"><path d="M -1270 -635 -1270 26035 A 635 635 0 0 0 -635 26670 L 15875 26670 A 635 635 0 0 0 16510 26035 L 16510 -635 A 635 635 0 0 0 15875 -1270 L -635 -1270 A 635 635 0 0 0 -1270 -635" fill="none" stroke-width="100"/></clipPath><mask id="Fzr4dgTq4nmt_bottom_mech-mask"><g fill="#000" stroke="#000"><rect x="-1270" y="-1270" width="17780" height="27940" fill="#fff"/><use xlink:href="#Fzr4dgTq4nmt_bottom_drill1"/></g></mask><mask id="Fzr4dgTq4nmt_bottom_cf-mask"><g fill="#fff" stroke="#fff"><use xlink:href="#Fzr4dgTq4nmt_bottom_soldermask"/></g></mask><mask id="Fzr4dgTq4nmt_bottom_sm-mask"><g fill="#000" stroke="#000"><rect x="-1270" y="-1270" width="17780" height="27940" fill="#fff"/><use xlink:href="#Fzr4dgTq4nmt_bottom_soldermask"/></g></mask></defs><g transform="translate(0,25400) scale(1,-1)"><g mask="url(#Fzr4dgTq4nmt_bottom_mech-mask)" clip-path="url(#Fzr4dgTq4nmt_bottom_outline)" transform="translate(15240,0) scale(-1,1)"><rect x="-1270" y="-1270" width="17780" height="27940" fill="currentColor" class="Fzr4dgTq4nmt_fr4"/><use xlink:href="#Fzr4dgTq4nmt_bottom_copper" fill="currentColor" stroke="currentColor" class="Fzr4dgTq4nmt_cu"/><use xlink:href="#Fzr4dgTq4nmt_bottom_copper" fill="currentColor" stroke="currentColor" class="Fzr4dgTq4nmt_cf" mask="url(#Fzr4dgTq4nmt_bottom_cf-mask)"/><g mask="url(#Fzr4dgTq4nmt_bottom_sm-mask)"><rect x="-1270" y="-1270" width="17780" height="27940" fill="currentColor" class="Fzr4dgTq4nmt_sm"/><use xlink:href="#Fzr4dgTq4nmt_bottom_silkscreen" fill="currentColor" stroke="currentColor" class="Fzr4dgTq4nmt_ss"/></g></g></g></svg>