<svg version="1.1" xmlns="http://www.w3.org/2000/svg" xmlns:xlink="http://www.w3.org/1999/xlink" stroke-linecap="round" stroke-linejoin="round" stroke-width="0" fill-rule="evenodd" width="17.88mm" height="40.095mm" viewBox="-1320 -1320 17880 40095"><g transform="translate(0,37455) scale(1,-1)" fill="currentColor" stroke="currentColor"><path d="M -1270 28575 -1270 -635 M 16510 28575 16510 -635 M -1270 28575 A 635 635 0 0 0 -635 29210 M 15875 29210 A 635 635 0 0 0 16510 28575 M -635 29210 15875 29210 M 16510 -635 A 635 635 0 0 0 15875 -1270 M -635 -1270 A 635 635 0 0 0 -1270 -635 M 15875 -1270 -635 -1270" fill="none" stroke-width="100"/><path d="M 6890 13160 11890 13160 11890 7160 5890 7160 5890 12160 6890 13160 M 9120 26680 8920 26680 8920 26280 M 7920 26280 8920 26280 M 7920 26030 7920 26280 M 7920 26030 7470 26030 M 7320 26180 7320 26280 6320 26280 M 6120 26680 6320 26680 6320 26280 M 9120 26680 9120 28480 8920 28480 M 8920 28880 8920 28480 M 6320 28880 8920 28880 M 6120 26680 6120 28480 6320 28480 M 6320 28880 6320 28480 M 7320 26180 7470 26030 M 8759 14740 8259 14740 8259 15740 8759 15740 8759 14740 M 12188 16645 11688 16645 11688 17645 12188 17645 12188 16645 M 5580 20189 5580 19689 4580 19689 4580 20189 5580 20189 M 9810 21975 9810 22475 10810 22475 10810 21975 9810 21975 M 5465 17645 5965 17645 5965 16645 5465 16645 5465 17645 M 6215 23745 6215 23245 5215 23245 5215 23745 6215 23745 M 9810 23245 9810 23745 10810 23745 10810 23245 9810 23245 M 8605 22475 8605 21975 7605 21975 7605 22475 8605 22475 M 5580 19173 5580 18673 4580 18673 4580 19173 5580 19173 M 9810 18673 9810 19173 10810 19173 10810 18673 9810 18673 M 9810 20189 10810 20189 M 9810 19689 9810 20189 M 10810 19689 9810 19689 M 10810 20189 10810 19689 M 4695 16645 4195 16645 4195 17645 4695 17645 4695 16645 M 9275 17645 9775 17645 9775 16645 9275 16645 9275 17645 M 11045 14740 10545 14740 10545 15740 11045 15740 11045 14740 M 6520 20614 6520 19764 M 7020 19264 8720 19264 M 6520 20614 8720 20614 8720 19264 M 6520 19764 7020 19264 M 10810 21205 10810 20705 9810 20705 9810 21205 10810 21205 M 8605 23745 8605 23245 7605 23245 7605 23745 8605 23745 M 7235 16645 6735 16645 6735 17645 7235 17645 7235 16645 M 11045 16645 10545 16645 10545 17645 11045 17645 11045 16645 M 8005 17645 8505 17645 8505 16645 8005 16645 8005 17645 M 9775 14740 9275 14740 9275 15740 9775 15740 9775 14740 M 7620 30205 8370 29205 M 6870 29205 7620 30205 M 4455 38725 10785 38725 M 4445 25395 4445 38725 M 4445 25395 5255 25395 5255 29205 9985 29205 9985 25395 10795 25395 10795 38725 M 12935 5067.5 12935 6667.5 M 13735 5067.5 12935 5067.5 M 13735 6667.5 13735 5067.5 M 12935 6667.5 13735 6667.5 M 3105 5131 4105 6131 M 1705 5131 1605 5231 M 4005 5131 1705 5131 M 4105 5231 4005 5131 M 4105 8231 4105 5231 M 4005 8331 4105 8231 M 1705 8331 4005 8331 M 1605 8231 1705 8331 M 1605 5231 1605 8231 M 11815 6065 12315 6065 12315 5065 11815 5065 11815 6065 M 4310 14220 4310 13720 3310 13720 3310 14220 4310 14220 M 4310 10410 4310 9910 3310 9910 3310 10410 4310 10410 M 4195 12565 4695 12565 4695 11565 4195 11565 4195 12565 M 3425 11565 2925 11565 2925 12565 3425 12565 3425 11565 M 11045 5065 10545 5065 10545 6065 11045 6065 11045 5065 M 6100 15740 6600 15740 6600 14740 6100 14740 6100 15740 M 7743 14740 7243 14740 7243 15740 7743 15740 7743 14740 M 2155 9810 1655 9810 1655 10810 2155 10810 2155 9810 M 3040 4060 3040 3560 2040 3560 2040 4060 3040 4060" fill="none" stroke-width="100"/><path d="M 8128.09 10707.62 8128.09 9898.1 8175.71 9802.86 8223.33 9755.24 8318.57 9707.62 8509.05 9707.62 8604.28 9755.24 8651.9 9802.86 8699.52 9898.1 8699.52 10707.62 M 9699.52 9707.62 9128.09 9707.62 M 9413.81 9707.62 9413.81 10707.62 9318.57 10564.76 9223.33 10469.52 9128.09 10421.9" fill="none" stroke-width="150"/><path d="M 7420 27908.57 7420 27480 7391.43 27394.29 7334.28 27337.14 7248.57 27308.57 7191.43 27308.57 M 8020 27308.57 7677.14 27308.57 M 7848.57 27308.57 7848.57 27908.57 7791.43 27822.86 7734.28 27765.72 7677.14 27737.14" fill="none" stroke-width="90"/><path d="M 8598.28 15079.29 8610.19 15067.38 8622.09 15031.67 8622.09 15007.86 8610.19 14972.14 8586.38 14948.33 8562.57 14936.43 8514.95 14924.52 8479.24 14924.52 8431.62 14936.43 8407.81 14948.33 8384 14972.14 8372.09 15007.86 8372.09 15031.67 8384 15067.38 8395.9 15079.29 M 8395.9 15174.52 8384 15186.43 8372.09 15210.24 8372.09 15269.76 8384 15293.57 8395.9 15305.48 8419.71 15317.38 8443.52 15317.38 8479.24 15305.48 8622.09 15162.62 8622.09 15317.38 M 8372.09 15543.57 8372.09 15424.52 8491.14 15412.62 8479.24 15424.52 8467.33 15448.33 8467.33 15507.86 8479.24 15531.67 8491.14 15543.57 8514.95 15555.48 8574.48 15555.48 8598.28 15543.57 8610.19 15531.67 8622.09 15507.86 8622.09 15448.33 8610.19 15424.52 8598.28 15412.62 M 12027.29 16984.29 12039.19 16972.38 12051.1 16936.67 12051.1 16912.86 12039.19 16877.14 12015.38 16853.33 11991.57 16841.43 11943.95 16829.52 11908.24 16829.52 11860.62 16841.43 11836.81 16853.33 11813 16877.14 11801.1 16912.86 11801.1 16936.67 11813 16972.38 11824.9 16984.29 M 11824.9 17079.52 11813 17091.43 11801.1 17115.24 11801.1 17174.76 11813 17198.57 11824.9 17210.48 11848.71 17222.38 11872.52 17222.38 11908.24 17210.48 12051.1 17067.62 12051.1 17222.38 M 11884.43 17436.67 12051.1 17436.67 M 11789.19 17377.14 11967.76 17317.62 11967.76 17472.38 M 4919.28 19849.71 4907.38 19837.81 4871.67 19825.9 4847.86 19825.9 4812.14 19837.81 4788.33 19861.62 4776.43 19885.43 4764.52 19933.05 4764.52 19968.76 4776.43 20016.38 4788.33 20040.19 4812.14 20064 4847.86 20075.9 4871.67 20075.9 4907.38 20064 4919.28 20052.1 M 5157.38 19825.9 5014.52 19825.9 M 5085.95 19825.9 5085.95 20075.9 5062.14 20040.19 5038.33 20016.38 5014.52 20004.48 M 5371.67 19992.57 5371.67 19825.9 M 5312.14 20087.81 5252.62 19909.24 5407.38 19909.24 M 10149.28 22135.72 10137.38 22123.81 10101.67 22111.91 10077.86 22111.91 10042.14 22123.81 10018.33 22147.62 10006.43 22171.43 9994.52 22219.05 9994.52 22254.76 10006.43 22302.38 10018.33 22326.19 10042.14 22350 10077.86 22361.91 10101.67 22361.91 10137.38 22350 10149.28 22338.1 M 10387.38 22111.91 10244.52 22111.91 M 10315.95 22111.91 10315.95 22361.91 10292.14 22326.19 10268.33 22302.38 10244.52 22290.48 M 10470.71 22361.91 10625.48 22361.91 10542.14 22266.67 10577.86 22266.67 10601.67 22254.76 10613.57 22242.86 10625.48 22219.05 10625.48 22159.52 10613.57 22135.72 10601.67 22123.81 10577.86 22111.91 10506.43 22111.91 10482.62 22123.81 10470.71 22135.72 M 5804.29 16984.29 5816.19 16972.38 5828.1 16936.67 5828.1 16912.86 5816.19 16877.14 5792.38 16853.33 5768.57 16841.43 5720.95 16829.52 5685.24 16829.52 5637.62 16841.43 5613.81 16853.33 5590 16877.14 5578.1 16912.86 5578.1 16936.67 5590 16972.38 5601.9 16984.29 M 5828.1 17222.38 5828.1 17079.52 M 5828.1 17150.95 5578.1 17150.95 5613.81 17127.14 5637.62 17103.33 5649.52 17079.52 M 5601.9 17317.62 5590 17329.52 5578.1 17353.33 5578.1 17412.86 5590 17436.67 5601.9 17448.57 5625.71 17460.48 5649.52 17460.48 5685.24 17448.57 5828.1 17305.71 5828.1 17460.48 M 5554.29 23405.72 5542.38 23393.81 5506.67 23381.91 5482.86 23381.91 5447.14 23393.81 5423.33 23417.62 5411.43 23441.43 5399.52 23489.05 5399.52 23524.76 5411.43 23572.38 5423.33 23596.19 5447.14 23620 5482.86 23631.91 5506.67 23631.91 5542.38 23620 5554.29 23608.1 M 5792.38 23381.91 5649.52 23381.91 M 5720.95 23381.91 5720.95 23631.91 5697.14 23596.19 5673.33 23572.38 5649.52 23560.48 M 6030.48 23381.91 5887.62 23381.91 M 5959.05 23381.91 5959.05 23631.91 5935.24 23596.19 5911.43 23572.38 5887.62 23560.48 M 10149.28 23405.72 10137.38 23393.81 10101.67 23381.91 10077.86 23381.91 10042.14 23393.81 10018.33 23417.62 10006.43 23441.43 9994.52 23489.05 9994.52 23524.76 10006.43 23572.38 10018.33 23596.19 10042.14 23620 10077.86 23631.91 10101.67 23631.91 10137.38 23620 10149.28 23608.1 M 10387.38 23381.91 10244.52 23381.91 M 10315.95 23381.91 10315.95 23631.91 10292.14 23596.19 10268.33 23572.38 10244.52 23560.48 M 10542.14 23631.91 10565.95 23631.91 10589.76 23620 10601.67 23608.1 10613.57 23584.29 10625.48 23536.67 10625.48 23477.14 10613.57 23429.52 10601.67 23405.72 10589.76 23393.81 10565.95 23381.91 10542.14 23381.91 10518.33 23393.81 10506.43 23405.72 10494.52 23429.52 10482.62 23477.14 10482.62 23536.67 10494.52 23584.29 10506.43 23608.1 10518.33 23620 10542.14 23631.91 M 8063.33 22135.72 8051.43 22123.81 8015.71 22111.91 7991.9 22111.91 7956.19 22123.81 7932.38 22147.62 7920.48 22171.43 7908.57 22219.05 7908.57 22254.76 7920.48 22302.38 7932.38 22326.19 7956.19 22350 7991.9 22361.91 8015.71 22361.91 8051.43 22350 8063.33 22338.1 M 8182.38 22111.91 8230 22111.91 8253.81 22123.81 8265.71 22135.72 8289.52 22171.43 8301.43 22219.05 8301.43 22314.29 8289.52 22338.1 8277.62 22350 8253.81 22361.91 8206.19 22361.91 8182.38 22350 8170.48 22338.1 8158.57 22314.29 8158.57 22254.76 8170.48 22230.95 8182.38 22219.05 8206.19 22207.14 8253.81 22207.14 8277.62 22219.05 8289.52 22230.95 8301.43 22254.76 M 5038.33 18833.71 5026.43 18821.81 4990.71 18809.9 4966.9 18809.9 4931.19 18821.81 4907.38 18845.62 4895.48 18869.43 4883.57 18917.05 4883.57 18952.76 4895.48 19000.38 4907.38 19024.19 4931.19 19048 4966.9 19059.9 4990.71 19059.9 5026.43 19048 5038.33 19036.1 M 5181.19 18952.76 5157.38 18964.67 5145.48 18976.57 5133.57 19000.38 5133.57 19012.29 5145.48 19036.1 5157.38 19048 5181.19 19059.9 5228.81 19059.9 5252.62 19048 5264.52 19036.1 5276.43 19012.29 5276.43 19000.38 5264.52 18976.57 5252.62 18964.67 5228.81 18952.76 5181.19 18952.76 5157.38 18940.86 5145.48 18928.95 5133.57 18905.14 5133.57 18857.52 5145.48 18833.71 5157.38 18821.81 5181.19 18809.9 5228.81 18809.9 5252.62 18821.81 5264.52 18833.71 5276.43 18857.52 5276.43 18905.14 5264.52 18928.95 5252.62 18940.86 5228.81 18952.76 M 10268.33 18833.71 10256.43 18821.81 10220.71 18809.9 10196.9 18809.9 10161.19 18821.81 10137.38 18845.62 10125.48 18869.43 10113.57 18917.05 10113.57 18952.76 10125.48 19000.38 10137.38 19024.19 10161.19 19048 10196.9 19059.9 10220.71 19059.9 10256.43 19048 10268.33 19036.1 M 10351.67 19059.9 10518.33 19059.9 10411.19 18809.9 M 10268.33 19849.71 10256.43 19837.81 10220.71 19825.9 10196.9 19825.9 10161.19 19837.81 10137.38 19861.62 10125.48 19885.43 10113.57 19933.05 10113.57 19968.76 10125.48 20016.38 10137.38 20040.19 10161.19 20064 10196.9 20075.9 10220.71 20075.9 10256.43 20064 10268.33 20052.1 M 10482.62 20075.9 10435 20075.9 10411.19 20064 10399.28 20052.1 10375.48 20016.38 10363.57 19968.76 10363.57 19873.52 10375.48 19849.71 10387.38 19837.81 10411.19 19825.9 10458.81 19825.9 10482.62 19837.81 10494.52 19849.71 10506.43 19873.52 10506.43 19933.05 10494.52 19956.86 10482.62 19968.76 10458.81 19980.67 10411.19 19980.67 10387.38 19968.76 10375.48 19956.86 10363.57 19933.05 M 4534.28 17103.33 4546.19 17091.43 4558.09 17055.71 4558.09 17031.9 4546.19 16996.19 4522.38 16972.38 4498.57 16960.48 4450.95 16948.57 4415.24 16948.57 4367.62 16960.48 4343.81 16972.38 4320 16996.19 4308.09 17031.9 4308.09 17055.71 4320 17091.43 4331.9 17103.33 M 4308.09 17329.52 4308.09 17210.48 4427.14 17198.57 4415.24 17210.48 4403.33 17234.29 4403.33 17293.81 4415.24 17317.62 4427.14 17329.52 4450.95 17341.43 4510.48 17341.43 4534.28 17329.52 4546.19 17317.62 4558.09 17293.81 4558.09 17234.29 4546.19 17210.48 4534.28 17198.57 M 9614.28 17103.33 9626.19 17091.43 9638.09 17055.71 9638.09 17031.9 9626.19 16996.19 9602.38 16972.38 9578.57 16960.48 9530.95 16948.57 9495.24 16948.57 9447.62 16960.48 9423.81 16972.38 9400 16996.19 9388.09 17031.9 9388.09 17055.71 9400 17091.43 9411.9 17103.33 M 9388.09 17186.67 9388.09 17341.43 9483.33 17258.1 9483.33 17293.81 9495.24 17317.62 9507.14 17329.52 9530.95 17341.43 9590.48 17341.43 9614.28 17329.52 9626.19 17317.62 9638.09 17293.81 9638.09 17222.38 9626.19 17198.57 9614.28 17186.67 M 10884.29 15198.33 10896.19 15186.43 10908.1 15150.71 10908.1 15126.9 10896.19 15091.19 10872.38 15067.38 10848.57 15055.48 10800.95 15043.57 10765.24 15043.57 10717.62 15055.48 10693.81 15067.38 10670 15091.19 10658.1 15126.9 10658.1 15150.71 10670 15186.43 10681.9 15198.33 M 10681.9 15293.57 10670 15305.48 10658.1 15329.29 10658.1 15388.81 10670 15412.62 10681.9 15424.52 10705.71 15436.43 10729.52 15436.43 10765.24 15424.52 10908.1 15281.67 10908.1 15436.43" fill="none" stroke-width="40"/><path d="M 7239.05 20212.81 7239.05 19808.05 7262.86 19760.43 7286.67 19736.62 7334.28 19712.81 7429.52 19712.81 7477.14 19736.62 7500.95 19760.43 7524.76 19808.05 7524.76 20212.81 M 7739.05 20165.19 7762.86 20189 7810.48 20212.81 7929.52 20212.81 7977.14 20189 8000.95 20165.19 8024.76 20117.57 8024.76 20069.95 8000.95 19998.52 7715.24 19712.81 8024.76 19712.81" fill="none" stroke-width="75"/><path d="M 10268.33 20841.9 10185 20960.95 M 10125.48 20841.9 10125.48 21091.91 10220.71 21091.91 10244.52 21080 10256.43 21068.1 10268.33 21044.29 10268.33 21008.57 10256.43 20984.76 10244.52 20972.86 10220.71 20960.95 10125.48 20960.95 M 10506.43 20841.9 10363.57 20841.9 M 10435 20841.9 10435 21091.91 10411.19 21056.19 10387.38 21032.38 10363.57 21020.48 M 8063.33 23381.91 7944.28 23381.91 7944.28 23631.91 M 8265.71 23631.91 8146.67 23631.91 8134.76 23512.86 8146.67 23524.76 8170.48 23536.67 8230 23536.67 8253.81 23524.76 8265.71 23512.86 8277.62 23489.05 8277.62 23429.52 8265.71 23405.72 8253.81 23393.81 8230 23381.91 8170.48 23381.91 8146.67 23393.81 8134.76 23405.72 M 7098.09 17103.33 7098.09 16984.29 6848.1 16984.29 M 6931.43 17293.81 7098.09 17293.81 M 6836.19 17234.29 7014.76 17174.76 7014.76 17329.52 M 10908.1 17103.33 10908.1 16984.29 10658.1 16984.29 M 10658.1 17162.86 10658.1 17317.62 10753.33 17234.29 10753.33 17270 10765.24 17293.81 10777.14 17305.71 10800.95 17317.62 10860.48 17317.62 10884.29 17305.71 10896.19 17293.81 10908.1 17270 10908.1 17198.57 10896.19 17174.76 10884.29 17162.86 M 8368.09 17103.33 8368.09 16984.29 8118.09 16984.29 M 8141.9 17174.76 8130 17186.67 8118.09 17210.48 8118.09 17270 8130 17293.81 8141.9 17305.71 8165.71 17317.62 8189.52 17317.62 8225.24 17305.71 8368.09 17162.86 8368.09 17317.62 M 9638.09 15198.33 9638.09 15079.29 9388.09 15079.29 M 9638.09 15412.62 9638.09 15269.76 M 9638.09 15341.19 9388.09 15341.19 9423.81 15317.38 9447.62 15293.57 9459.52 15269.76" fill="none" stroke-width="40"/><path d="M 13477.86 5610.36 13496.9 5591.31 13515.95 5534.17 13515.95 5496.07 13496.9 5438.93 13458.81 5400.83 13420.71 5381.79 13344.52 5362.74 13287.38 5362.74 13211.19 5381.79 13173.1 5400.83 13135 5438.93 13115.95 5496.07 13115.95 5534.17 13135 5591.31 13154.05 5610.36 M 13154.05 5762.74 13135 5781.79 13115.95 5819.88 13115.95 5915.12 13135 5953.22 13154.05 5972.26 13192.14 5991.31 13230.24 5991.31 13287.38 5972.26 13515.95 5743.69 13515.95 5991.31 M 13115.95 6124.64 13115.95 6372.26 13268.33 6238.93 13268.33 6296.07 13287.38 6334.17 13306.43 6353.22 13344.52 6372.26 13439.76 6372.26 13477.86 6353.22 13496.9 6334.17 13515.95 6296.07 13515.95 6181.79 13496.9 6143.69 13477.86 6124.64" fill="none" stroke-width="60"/><path d="M 2838.33 6397.67 3171.67 6397.67 M 2471.67 6164.33 2838.33 6397.67 2471.67 6631 M 3171.67 7231 3171.67 6831 M 3171.67 7031 2471.67 7031 2571.67 6964.33 2638.33 6897.67 2671.67 6831" fill="none" stroke-width="105"/><path d="M 12154.29 5404.29 12166.19 5392.38 12178.1 5356.67 12178.1 5332.86 12166.19 5297.14 12142.38 5273.33 12118.57 5261.43 12070.95 5249.52 12035.24 5249.52 11987.62 5261.43 11963.81 5273.33 11940 5297.14 11928.1 5332.86 11928.1 5356.67 11940 5392.38 11951.9 5404.29 M 11951.9 5499.52 11940 5511.43 11928.1 5535.24 11928.1 5594.76 11940 5618.57 11951.9 5630.48 11975.71 5642.38 11999.52 5642.38 12035.24 5630.48 12178.1 5487.62 12178.1 5642.38 M 11951.9 5737.62 11940 5749.52 11928.1 5773.33 11928.1 5832.86 11940 5856.67 11951.9 5868.57 11975.71 5880.48 11999.52 5880.48 12035.24 5868.57 12178.1 5725.72 12178.1 5880.48 M 3649.28 13880.72 3637.38 13868.81 3601.67 13856.91 3577.86 13856.91 3542.14 13868.81 3518.33 13892.62 3506.43 13916.43 3494.52 13964.05 3494.52 13999.76 3506.43 14047.38 3518.33 14071.19 3542.14 14095 3577.86 14106.9 3601.67 14106.9 3637.38 14095 3649.28 14083.1 M 3744.52 14083.1 3756.43 14095 3780.24 14106.9 3839.76 14106.9 3863.57 14095 3875.48 14083.1 3887.38 14059.29 3887.38 14035.48 3875.48 13999.76 3732.62 13856.91 3887.38 13856.91 M 4125.48 13856.91 3982.62 13856.91 M 4054.05 13856.91 4054.05 14106.9 4030.24 14071.19 4006.43 14047.38 3982.62 14035.48 M 3649.28 10070.71 3637.38 10058.81 3601.67 10046.9 3577.86 10046.9 3542.14 10058.81 3518.33 10082.62 3506.43 10106.43 3494.52 10154.05 3494.52 10189.76 3506.43 10237.38 3518.33 10261.19 3542.14 10285 3577.86 10296.9 3601.67 10296.9 3637.38 10285 3649.28 10273.1 M 3744.52 10273.1 3756.43 10285 3780.24 10296.9 3839.76 10296.9 3863.57 10285 3875.48 10273.1 3887.38 10249.29 3887.38 10225.48 3875.48 10189.76 3732.62 10046.9 3887.38 10046.9 M 4042.14 10296.9 4065.95 10296.9 4089.76 10285 4101.67 10273.1 4113.57 10249.29 4125.48 10201.67 4125.48 10142.14 4113.57 10094.52 4101.67 10070.71 4089.76 10058.81 4065.95 10046.9 4042.14 10046.9 4018.33 10058.81 4006.43 10070.71 3994.52 10094.52 3982.62 10142.14 3982.62 10201.67 3994.52 10249.29 4006.43 10273.1 4018.33 10285 4042.14 10296.9 M 4534.28 11904.29 4546.19 11892.38 4558.09 11856.67 4558.09 11832.86 4546.19 11797.14 4522.38 11773.33 4498.57 11761.43 4450.95 11749.52 4415.24 11749.52 4367.62 11761.43 4343.81 11773.33 4320 11797.14 4308.09 11832.86 4308.09 11856.67 4320 11892.38 4331.9 11904.29 M 4558.09 12142.38 4558.09 11999.52 M 4558.09 12070.95 4308.09 12070.95 4343.81 12047.14 4367.62 12023.33 4379.52 11999.52 M 4558.09 12261.43 4558.09 12309.05 4546.19 12332.86 4534.28 12344.76 4498.57 12368.57 4450.95 12380.48 4355.71 12380.48 4331.9 12368.57 4320 12356.67 4308.09 12332.86 4308.09 12285.24 4320 12261.43 4331.9 12249.52 4355.71 12237.62 4415.24 12237.62 4439.05 12249.52 4450.95 12261.43 4462.86 12285.24 4462.86 12332.86 4450.95 12356.67 4439.05 12368.57 4415.24 12380.48 M 3264.29 11904.29 3276.19 11892.38 3288.1 11856.67 3288.1 11832.86 3276.19 11797.14 3252.38 11773.33 3228.57 11761.43 3180.95 11749.52 3145.24 11749.52 3097.62 11761.43 3073.81 11773.33 3050 11797.14 3038.1 11832.86 3038.1 11856.67 3050 11892.38 3061.9 11904.29 M 3288.1 12142.38 3288.1 11999.52 M 3288.1 12070.95 3038.1 12070.95 3073.81 12047.14 3097.62 12023.33 3109.52 11999.52 M 3145.24 12285.24 3133.33 12261.43 3121.43 12249.52 3097.62 12237.62 3085.71 12237.62 3061.9 12249.52 3050 12261.43 3038.1 12285.24 3038.1 12332.86 3050 12356.67 3061.9 12368.57 3085.71 12380.48 3097.62 12380.48 3121.43 12368.57 3133.33 12356.67 3145.24 12332.86 3145.24 12285.24 3157.14 12261.43 3169.05 12249.52 3192.86 12237.62 3240.48 12237.62 3264.29 12249.52 3276.19 12261.43 3288.1 12285.24 3288.1 12332.86 3276.19 12356.67 3264.29 12368.57 3240.48 12380.48 3192.86 12380.48 3169.05 12368.57 3157.14 12356.67 3145.24 12332.86 M 10884.29 5404.29 10896.19 5392.38 10908.1 5356.67 10908.1 5332.86 10896.19 5297.14 10872.38 5273.33 10848.57 5261.43 10800.95 5249.52 10765.24 5249.52 10717.62 5261.43 10693.81 5273.33 10670 5297.14 10658.1 5332.86 10658.1 5356.67 10670 5392.38 10681.9 5404.29 M 10908.1 5642.38 10908.1 5499.52 M 10908.1 5570.95 10658.1 5570.95 10693.81 5547.14 10717.62 5523.33 10729.52 5499.52 M 10658.1 5725.72 10658.1 5892.38 10908.1 5785.24 M 6439.29 15079.29 6451.19 15067.38 6463.1 15031.67 6463.1 15007.86 6451.19 14972.14 6427.38 14948.33 6403.57 14936.43 6355.95 14924.52 6320.24 14924.52 6272.62 14936.43 6248.81 14948.33 6225 14972.14 6213.1 15007.86 6213.1 15031.67 6225 15067.38 6236.9 15079.29 M 6463.1 15317.38 6463.1 15174.52 M 6463.1 15245.95 6213.1 15245.95 6248.81 15222.14 6272.62 15198.33 6284.52 15174.52 M 6213.1 15531.67 6213.1 15484.05 6225 15460.24 6236.9 15448.33 6272.62 15424.52 6320.24 15412.62 6415.48 15412.62 6439.29 15424.52 6451.19 15436.43 6463.1 15460.24 6463.1 15507.86 6451.19 15531.67 6439.29 15543.57 6415.48 15555.48 6355.95 15555.48 6332.14 15543.57 6320.24 15531.67 6308.33 15507.86 6308.33 15460.24 6320.24 15436.43 6332.14 15424.52 6355.95 15412.62 M 7582.28 15079.29 7594.19 15067.38 7606.09 15031.67 7606.09 15007.86 7594.19 14972.14 7570.38 14948.33 7546.57 14936.43 7498.95 14924.52 7463.24 14924.52 7415.62 14936.43 7391.81 14948.33 7368 14972.14 7356.09 15007.86 7356.09 15031.67 7368 15067.38 7379.9 15079.29 M 7606.09 15317.38 7606.09 15174.52 M 7606.09 15245.95 7356.09 15245.95 7391.81 15222.14 7415.62 15198.33 7427.52 15174.52 M 7356.09 15543.57 7356.09 15424.52 7475.14 15412.62 7463.24 15424.52 7451.33 15448.33 7451.33 15507.86 7463.24 15531.67 7475.14 15543.57 7498.95 15555.48 7558.48 15555.48 7582.28 15543.57 7594.19 15531.67 7606.09 15507.86 7606.09 15448.33 7594.19 15424.52 7582.28 15412.62 M 1994.28 10268.33 2006.19 10256.43 2018.09 10220.71 2018.09 10196.9 2006.19 10161.19 1982.38 10137.38 1958.57 10125.48 1910.95 10113.57 1875.24 10113.57 1827.62 10125.48 1803.81 10137.38 1780 10161.19 1768.09 10196.9 1768.09 10220.71 1780 10256.43 1791.9 10268.33 M 1851.43 10482.62 2018.09 10482.62 M 1756.19 10423.1 1934.76 10363.57 1934.76 10518.33 M 2498.33 3720.71 2486.43 3708.81 2450.71 3696.9 2426.9 3696.9 2391.19 3708.81 2367.38 3732.62 2355.48 3756.43 2343.57 3804.05 2343.57 3839.76 2355.48 3887.38 2367.38 3911.19 2391.19 3935 2426.9 3946.9 2450.71 3946.9 2486.43 3935 2498.33 3923.1 M 2736.43 3696.9 2593.57 3696.9 M 2665 3696.9 2665 3946.9 2641.19 3911.19 2617.38 3887.38 2593.57 3875.48" fill="none" stroke-width="40"/></g></svg>