<svg version="1.1" xmlns="http://www.w3.org/2000/svg" xmlns:xlink="http://www.w3.org/1999/xlink" stroke-linecap="round" stroke-linejoin="round" stroke-width="0" fill-rule="evenodd" clip-rule="evenodd" id="qq6RP35KaBXl_bottom" viewBox="120650 -113030 20320 30480" width="20.32mm" height="30.48mm"><defs><style>.qq6RP35KaBXl_fr4 {color: #666666;}
.qq6RP35KaBXl_cu {color: #cccccc;}
.qq6RP35KaBXl_cf {color: #cc9933;}
.qq6RP35KaBXl_sm {color: #004200; opacity: 0.75;}
.qq6RP35KaBXl_ss {color: #ffffff;}
.qq6RP35KaBXl_sp {color: #999999;}
.qq6RP35KaBXl_out {color: #000000;}</style><circle cx="0" cy="0" r="100" id="kduPaPO4iV5P_pad-1"/><circle cx="0" cy="0" r="150" id="kduPaPO4iV5P_pad-2"/><circle cx="0" cy="0" r="500" id="kduPaPO4iV5P_pad-3"/><g id="qq6RP35KaBXl_bottom_drill1"><use xlink:href="#kduPaPO4iV5P_pad-1" x="127127" y="-86233"/><use xlink:href="#kduPaPO4iV5P_pad-1" x="127635" y="-97790"/><use xlink:href="#kduPaPO4iV5P_pad-1" x="127739" y="-89177"/><use xlink:href="#kduPaPO4iV5P_pad-1" x="128524" y="-105791"/><use xlink:href="#kduPaPO4iV5P_pad-1" x="128524" y="-106807"/><use xlink:href="#kduPaPO4iV5P_pad-1" x="128524" y="-107950"/><use xlink:href="#kduPaPO4iV5P_pad-1" x="128651" y="-86804"/><use xlink:href="#kduPaPO4iV5P_pad-1" x="128778" y="-96647"/><use xlink:href="#kduPaPO4iV5P_pad-1" x="128905" y="-92456"/><use xlink:href="#kduPaPO4iV5P_pad-1" x="129540" y="-109728"/><use xlink:href="#kduPaPO4iV5P_pad-1" x="130048" y="-108839"/><use xlink:href="#kduPaPO4iV5P_pad-1" x="130175" y="-103505"/><use xlink:href="#kduPaPO4iV5P_pad-1" x="130619" y="-86229"/><use xlink:href="#kduPaPO4iV5P_pad-1" x="131572" y="-108839"/><use xlink:href="#kduPaPO4iV5P_pad-1" x="131699" y="-105791"/><use xlink:href="#kduPaPO4iV5P_pad-1" x="131699" y="-106807"/><use xlink:href="#kduPaPO4iV5P_pad-1" x="132080" y="-109728"/><use xlink:href="#kduPaPO4iV5P_pad-1" x="132715" y="-97155"/><use xlink:href="#kduPaPO4iV5P_pad-1" x="133858" y="-106680"/><use xlink:href="#kduPaPO4iV5P_pad-1" x="133985" y="-95250"/><use xlink:href="#kduPaPO4iV5P_pad-1" x="133985" y="-97790"/><use xlink:href="#kduPaPO4iV5P_pad-1" x="134112" y="-87249"/><use xlink:href="#kduPaPO4iV5P_pad-1" x="135890" y="-103759"/><use xlink:href="#kduPaPO4iV5P_pad-1" x="136525" y="-85090"/><use xlink:href="#kduPaPO4iV5P_pad-1" x="136525" y="-90170"/><use xlink:href="#kduPaPO4iV5P_pad-2" x="121285" y="-96647"/><use xlink:href="#kduPaPO4iV5P_pad-2" x="121285" y="-97409"/><use xlink:href="#kduPaPO4iV5P_pad-2" x="121285" y="-98171"/><use xlink:href="#kduPaPO4iV5P_pad-2" x="121285" y="-98933"/><use xlink:href="#kduPaPO4iV5P_pad-2" x="123825" y="-85090"/><use xlink:href="#kduPaPO4iV5P_pad-2" x="123825" y="-90170"/><use xlink:href="#kduPaPO4iV5P_pad-2" x="125730" y="-104140"/><use xlink:href="#kduPaPO4iV5P_pad-2" x="125730" y="-108331"/><use xlink:href="#kduPaPO4iV5P_pad-2" x="125984" y="-91694"/><use xlink:href="#kduPaPO4iV5P_pad-2" x="127635" y="-104140"/><use xlink:href="#kduPaPO4iV5P_pad-2" x="128651" y="-93853"/><use xlink:href="#kduPaPO4iV5P_pad-2" x="128905" y="-102235"/><use xlink:href="#kduPaPO4iV5P_pad-2" x="129286" y="-96012"/><use xlink:href="#kduPaPO4iV5P_pad-2" x="129413" y="-84455"/><use xlink:href="#kduPaPO4iV5P_pad-2" x="129921" y="-101219"/><use xlink:href="#kduPaPO4iV5P_pad-2" x="130556" y="-97409"/><use xlink:href="#kduPaPO4iV5P_pad-2" x="130810" y="-93345"/><use xlink:href="#kduPaPO4iV5P_pad-2" x="130937" y="-99949"/><use xlink:href="#kduPaPO4iV5P_pad-2" x="131826" y="-84455"/><use xlink:href="#kduPaPO4iV5P_pad-2" x="131953" y="-96012"/><use xlink:href="#kduPaPO4iV5P_pad-2" x="131953" y="-98679"/><use xlink:href="#kduPaPO4iV5P_pad-2" x="132080" y="-93345"/><use xlink:href="#kduPaPO4iV5P_pad-2" x="132080" y="-103505"/><use xlink:href="#kduPaPO4iV5P_pad-2" x="133985" y="-100584"/><use xlink:href="#kduPaPO4iV5P_pad-2" x="135890" y="-111760"/><use xlink:href="#kduPaPO4iV5P_pad-2" x="136017" y="-86995"/><use xlink:href="#kduPaPO4iV5P_pad-2" x="136144" y="-92964"/><use xlink:href="#kduPaPO4iV5P_pad-2" x="137160" y="-95250"/><use xlink:href="#kduPaPO4iV5P_pad-2" x="137414" y="-87630"/><use xlink:href="#kduPaPO4iV5P_pad-2" x="140335" y="-96647"/><use xlink:href="#kduPaPO4iV5P_pad-2" x="140335" y="-97409"/><use xlink:href="#kduPaPO4iV5P_pad-2" x="140335" y="-98171"/><use xlink:href="#kduPaPO4iV5P_pad-2" x="140335" y="-98933"/><use xlink:href="#kduPaPO4iV5P_pad-3" x="123190" y="-83820"/><use xlink:href="#kduPaPO4iV5P_pad-3" x="123190" y="-86360"/><use xlink:href="#kduPaPO4iV5P_pad-3" x="123190" y="-88900"/><use xlink:href="#kduPaPO4iV5P_pad-3" x="123190" y="-91440"/><use xlink:href="#kduPaPO4iV5P_pad-3" x="123190" y="-93980"/><use xlink:href="#kduPaPO4iV5P_pad-3" x="123190" y="-96520"/><use xlink:href="#kduPaPO4iV5P_pad-3" x="123190" y="-99060"/><use xlink:href="#kduPaPO4iV5P_pad-3" x="123190" y="-101600"/><use xlink:href="#kduPaPO4iV5P_pad-3" x="123190" y="-104140"/><use xlink:href="#kduPaPO4iV5P_pad-3" x="123190" y="-106680"/><use xlink:href="#kduPaPO4iV5P_pad-3" x="123190" y="-109220"/><use xlink:href="#kduPaPO4iV5P_pad-3" x="123190" y="-111760"/><use xlink:href="#kduPaPO4iV5P_pad-3" x="138430" y="-83820"/><use xlink:href="#kduPaPO4iV5P_pad-3" x="138430" y="-86360"/><use xlink:href="#kduPaPO4iV5P_pad-3" x="138430" y="-88900"/><use xlink:href="#kduPaPO4iV5P_pad-3" x="138430" y="-91440"/><use xlink:href="#kduPaPO4iV5P_pad-3" x="138430" y="-93980"/><use xlink:href="#kduPaPO4iV5P_pad-3" x="138430" y="-96520"/><use xlink:href="#kduPaPO4iV5P_pad-3" x="138430" y="-99060"/><use xlink:href="#kduPaPO4iV5P_pad-3" x="138430" y="-101600"/><use xlink:href="#kduPaPO4iV5P_pad-3" x="138430" y="-104140"/><use xlink:href="#kduPaPO4iV5P_pad-3" x="138430" y="-106680"/><use xlink:href="#kduPaPO4iV5P_pad-3" x="138430" y="-109220"/><use xlink:href="#kduPaPO4iV5P_pad-3" x="138430" y="-111760"/></g><g id="qq6RP35KaBXl_bottom_drill2"><path d="M 140970 -96520 140970 -99060 M 139700 -100330 A 1270 1270 0 0 0 140970 -99060 M 139700 -100330 139700 -112395 M 140970 -96520 A 1270 1270 0 0 0 139700 -95250 M 139700 -83185 139700 -95250 M 120650 -99060 120650 -96520 M 120650 -99060 A 1270 1270 0 0 0 121920 -100330 M 121920 -112395 121920 -100330 M 121920 -95250 A 1270 1270 0 0 0 120650 -96520 M 122555 -113030 A 635 635 0 0 0 121920 -112395 M 121920 -83185 A 635 635 0 0 0 122555 -82550 M 139065 -82550 A 635 635 0 0 0 139700 -83185 M 139700 -112395 A 635 635 0 0 0 139065 -113030 M 122555 -82550 139065 -82550 M 121920 -95250 121920 -83185 M 139065 -113030 122555 -113030" fill="none" stroke-width="100"/></g><g id="qq6RP35KaBXl_bottom_drill3"><path d="M 140970 -96520 140970 -99060 M 139700 -100330 A 1270 1270 0 0 0 140970 -99060 M 139700 -100330 139700 -112395 M 140970 -96520 A 1270 1270 0 0 0 139700 -95250 M 139700 -83185 139700 -95250 M 120650 -99060 120650 -96520 M 120650 -99060 A 1270 1270 0 0 0 121920 -100330 M 121920 -112395 121920 -100330 M 121920 -95250 A 1270 1270 0 0 0 120650 -96520 M 122555 -113030 A 635 635 0 0 0 121920 -112395 M 121920 -83185 A 635 635 0 0 0 122555 -82550 M 139065 -82550 A 635 635 0 0 0 139700 -83185 M 139700 -112395 A 635 635 0 0 0 139065 -113030 M 122555 -82550 139065 -82550 M 121920 -95250 121920 -83185 M 139065 -113030 122555 -113030 M 126754 -92079 127754 -92079 M 126754 -92579 126754 -92079 M 127754 -92579 126754 -92579 M 127754 -92079 127754 -92579 M 128139 -87511 128139 -88511 M 127639 -87511 128139 -87511 M 127639 -88511 127639 -87511 M 128139 -88511 127639 -88511 M 126754 -89539 127754 -89539 M 126754 -90039 126754 -89539 M 127754 -90039 126754 -90039 M 127754 -89539 127754 -90039 M 127385 -105395 127885 -105395 127885 -106395 127385 -106395 127385 -105395 M 121930 -82710 139700 -82710 139700 -112360 M 139230 -112860 139700 -112360 M 139230 -112860 121930 -112860 121930 -82710 M 126869 -87511 126869 -88511 M 126369 -87511 126869 -87511 M 126369 -88511 126369 -87511 M 126869 -88511 126369 -88511 M 126754 -90809 127754 -90809 M 126754 -91309 126754 -90809 M 127754 -91309 126754 -91309 M 127754 -90809 127754 -91309 M 132580 -92579 131580 -92579 M 132580 -92079 132580 -92579 M 131580 -92079 132580 -92079 M 131580 -92579 131580 -92079" fill="none" stroke-width="100"/><path d="M 129310 -89035 130310 -88035 M 129310 -91035 129310 -89035 M 132310 -91035 129310 -91035 M 132310 -88035 132310 -91035 M 130310 -88035 132310 -88035" fill="none" stroke-width="150"/><path d="M 131110 -110200 130960 -110050 M 132110 -112900 132110 -112500 M 132310 -112500 132110 -112500 M 132310 -110700 132310 -112500 M 132110 -112900 129510 -112900 129510 -112500 M 129310 -112500 129510 -112500 M 129310 -110700 129310 -112500 M 132110 -110700 132110 -110300 M 132310 -110700 132110 -110700 M 131110 -110300 132110 -110300 M 131110 -110200 131110 -110300 M 130510 -110050 130960 -110050 M 130510 -110050 130510 -110300 129510 -110300 M 129510 -110700 129510 -110300 M 129310 -110700 129510 -110700 M 124845 -92575 124845 -91575 M 125345 -92575 124845 -92575 M 125345 -91575 125345 -92575 M 124845 -91575 125345 -91575 M 124695 -89700 125495 -89700 M 124695 -88100 124695 -89700 M 125195 -88100 124695 -88100 M 125495 -88400 125195 -88100 M 125495 -89700 125495 -88400 M 125330 -106997.5 125330 -105397.5 M 126130 -106997.5 125330 -106997.5 M 126130 -105397.5 126130 -106997.5 M 125330 -105397.5 126130 -105397.5 M 129790 -105760 129290 -105760 129290 -104760 129790 -104760 129790 -105760 M 129290 -106965 129790 -106965 129790 -107965 129290 -107965 129290 -106965 M 131060 -105862.5 131060 -106862.5 M 130560 -105862.5 131060 -105862.5 M 130560 -106862.5 130560 -105862.5 M 131060 -106862.5 130560 -106862.5 M 131795 -108200 130795 -108200 M 131795 -107700 131795 -108200 M 130795 -107700 131795 -107700 M 130795 -108200 130795 -107700 M 131795 -105025 130795 -105025 M 131795 -104525 131795 -105025 M 130795 -104525 131795 -104525 M 130795 -105025 130795 -104525 M 127635 -109415 127635 -122745 M 128445 -109415 127635 -109415 M 128445 -113225 128445 -109415 M 133175 -113225 128445 -113225 M 133175 -109415 133175 -113225 M 133985 -109415 133175 -109415 M 133985 -109415 133985 -122745 M 133975 -122745 127645 -122745 M 131560 -113225 130810 -114225 130060 -113225 M 125960 -93375 125960 -103475 M 135660 -93375 135660 -103475 M 125960 -93375 135660 -93375 M 125960 -103475 135660 -103475 M 126960 -94025 125960 -94375 M 125960 -93675 126960 -94025" fill="none" stroke-width="100"/><path d="M 127212.33 -92418.29 127200.43 -92430.19 127164.71 -92442.1 127140.9 -92442.1 127105.19 -92430.19 127081.38 -92406.38 127069.48 -92382.57 127057.57 -92334.95 127057.57 -92299.24 127069.48 -92251.62 127081.38 -92227.81 127105.19 -92204 127140.9 -92192.1 127164.71 -92192.1 127200.43 -92204 127212.33 -92215.9 M 127355.19 -92299.24 127331.38 -92287.33 127319.48 -92275.43 127307.57 -92251.62 127307.57 -92239.71 127319.48 -92215.9 127331.38 -92204 127355.19 -92192.1 127402.81 -92192.1 127426.62 -92204 127438.52 -92215.9 127450.43 -92239.71 127450.43 -92251.62 127438.52 -92275.43 127426.62 -92287.33 127402.81 -92299.24 127355.19 -92299.24 127331.38 -92311.14 127319.48 -92323.05 127307.57 -92346.86 127307.57 -92394.48 127319.48 -92418.29 127331.38 -92430.19 127355.19 -92442.1 127402.81 -92442.1 127426.62 -92430.19 127438.52 -92418.29 127450.43 -92394.48 127450.43 -92346.86 127438.52 -92323.05 127426.62 -92311.14 127402.81 -92299.24 M 128002.09 -88052.67 127883.05 -88136 M 128002.09 -88195.52 127752.09 -88195.52 127752.09 -88100.29 127764 -88076.48 127775.9 -88064.57 127799.71 -88052.67 127835.43 -88052.67 127859.24 -88064.57 127871.14 -88076.48 127883.05 -88100.29 127883.05 -88195.52 M 127835.43 -87838.38 128002.09 -87838.38 M 127740.19 -87897.9 127918.76 -87957.43 127918.76 -87802.67 M 127212.33 -89878.29 127200.43 -89890.19 127164.71 -89902.1 127140.9 -89902.1 127105.19 -89890.19 127081.38 -89866.38 127069.48 -89842.57 127057.57 -89794.95 127057.57 -89759.24 127069.48 -89711.62 127081.38 -89687.81 127105.19 -89664 127140.9 -89652.1 127164.71 -89652.1 127200.43 -89664 127212.33 -89675.9 M 127295.67 -89652.1 127462.33 -89652.1 127355.19 -89902.1 M 127724.28 -105936.67 127736.19 -105948.57 127748.09 -105984.29 127748.09 -106008.1 127736.19 -106043.81 127712.38 -106067.62 127688.57 -106079.52 127640.95 -106091.43 127605.24 -106091.43 127557.62 -106079.52 127533.81 -106067.62 127510 -106043.81 127498.09 -106008.1 127498.09 -105984.29 127510 -105948.57 127521.9 -105936.67 M 127521.9 -105841.43 127510 -105829.52 127498.09 -105805.71 127498.09 -105746.19 127510 -105722.38 127521.9 -105710.48 127545.71 -105698.57 127569.52 -105698.57 127605.24 -105710.48 127748.09 -105853.33 127748.09 -105698.57" fill="none" stroke-width="40"/><path d="M 136056.67 -112474.28 136056.67 -111998.09 M 136342.38 -112569.52 135342.38 -112236.19 136342.38 -111902.86 M 136342.38 -111045.71 136342.38 -111617.14 M 136342.38 -111331.43 135342.38 -111331.43 135485.24 -111426.67 135580.48 -111521.9 135628.09 -111617.14" fill="none" stroke-width="150"/><path d="M 126732.09 -88052.67 126613.05 -88136 M 126732.09 -88195.52 126482.09 -88195.52 126482.09 -88100.29 126494 -88076.48 126505.9 -88064.57 126529.71 -88052.67 126565.43 -88052.67 126589.24 -88064.57 126601.14 -88076.48 126613.05 -88100.29 126613.05 -88195.52 M 126482.09 -87826.48 126482.09 -87945.52 126601.14 -87957.43 126589.24 -87945.52 126577.33 -87921.71 126577.33 -87862.19 126589.24 -87838.38 126601.14 -87826.48 126624.95 -87814.57 126684.48 -87814.57 126708.28 -87826.48 126720.19 -87838.38 126732.09 -87862.19 126732.09 -87921.71 126720.19 -87945.52 126708.28 -87957.43 M 127212.33 -91148.29 127200.43 -91160.19 127164.71 -91172.1 127140.9 -91172.1 127105.19 -91160.19 127081.38 -91136.38 127069.48 -91112.57 127057.57 -91064.95 127057.57 -91029.24 127069.48 -90981.62 127081.38 -90957.81 127105.19 -90934 127140.9 -90922.1 127164.71 -90922.1 127200.43 -90934 127212.33 -90945.9 M 127426.62 -90922.1 127379 -90922.1 127355.19 -90934 127343.28 -90945.9 127319.48 -90981.62 127307.57 -91029.24 127307.57 -91124.48 127319.48 -91148.29 127331.38 -91160.19 127355.19 -91172.1 127402.81 -91172.1 127426.62 -91160.19 127438.52 -91148.29 127450.43 -91124.48 127450.43 -91064.95 127438.52 -91041.14 127426.62 -91029.24 127402.81 -91017.33 127355.19 -91017.33 127331.38 -91029.24 127319.48 -91041.14 127307.57 -91064.95 M 132038.33 -92418.29 132026.43 -92430.19 131990.71 -92442.1 131966.9 -92442.1 131931.19 -92430.19 131907.38 -92406.38 131895.48 -92382.57 131883.57 -92334.95 131883.57 -92299.24 131895.48 -92251.62 131907.38 -92227.81 131931.19 -92204 131966.9 -92192.1 131990.71 -92192.1 132026.43 -92204 132038.33 -92215.9 M 132252.62 -92275.43 132252.62 -92442.1 M 132193.09 -92180.19 132133.57 -92358.76 132288.33 -92358.76" fill="none" stroke-width="40"/><path d="M 130276.67 -89151.67 130276.67 -89718.33 130310 -89785 130343.33 -89818.33 130410 -89851.67 130543.33 -89851.67 130610 -89818.33 130643.33 -89785 130676.67 -89718.33 130676.67 -89151.67 M 130976.67 -89218.33 131010 -89185 131076.67 -89151.67 131243.33 -89151.67 131310 -89185 131343.33 -89218.33 131376.67 -89285 131376.67 -89351.67 131343.33 -89451.67 130943.33 -89851.67 131376.67 -89851.67" fill="none" stroke-width="105"/><path d="M 130190.95 -109005.71 130190.95 -109672.38 M 129762.38 -109005.71 129762.38 -109529.52 129810 -109624.76 129905.24 -109672.38 130048.09 -109672.38 130143.33 -109624.76 130190.95 -109577.14 M 131000.48 -109148.57 130667.14 -109148.57 M 130667.14 -109672.38 130667.14 -108672.38 131143.33 -108672.38 M 132000.48 -109672.38 131524.28 -109672.38 131524.28 -108672.38" fill="none" stroke-width="150"/><path d="M 125208.09 -92116.67 125089.05 -92200 M 125208.09 -92259.52 124958.09 -92259.52 124958.09 -92164.29 124970 -92140.48 124981.9 -92128.57 125005.71 -92116.67 125041.43 -92116.67 125065.24 -92128.57 125077.14 -92140.48 125089.05 -92164.29 125089.05 -92259.52 M 125208.09 -91878.57 125208.09 -92021.43 M 125208.09 -91950 124958.09 -91950 124993.81 -91973.81 125017.62 -91997.62 125029.52 -92021.43" fill="none" stroke-width="40"/><path d="M 125275.95 -89195.24 124875.95 -89195.24 124875.95 -89100 124895 -89042.86 124933.09 -89004.76 124971.19 -88985.71 125047.38 -88966.67 125104.52 -88966.67 125180.71 -88985.71 125218.81 -89004.76 125256.9 -89042.86 125275.95 -89100 125275.95 -89195.24 M 125275.95 -88585.71 125275.95 -88814.29 M 125275.95 -88700 124875.95 -88700 124933.09 -88738.1 124971.19 -88776.19 124990.24 -88814.29 M 125872.86 -106264.17 125891.9 -106283.21 125910.95 -106340.36 125910.95 -106378.45 125891.9 -106435.6 125853.81 -106473.69 125815.71 -106492.74 125739.52 -106511.79 125682.38 -106511.79 125606.19 -106492.74 125568.09 -106473.69 125530 -106435.6 125510.95 -106378.45 125510.95 -106340.36 125530 -106283.21 125549.05 -106264.17 M 125910.95 -105883.21 125910.95 -106111.79 M 125910.95 -105997.5 125510.95 -105997.5 125568.09 -106035.6 125606.19 -106073.69 125625.24 -106111.79" fill="none" stroke-width="60"/><path d="M 129653.09 -105301.67 129534.05 -105385 M 129653.09 -105444.52 129403.09 -105444.52 129403.09 -105349.29 129415 -105325.48 129426.9 -105313.57 129450.71 -105301.67 129486.43 -105301.67 129510.24 -105313.57 129522.14 -105325.48 129534.05 -105349.29 129534.05 -105444.52 M 129426.9 -105206.43 129415 -105194.52 129403.09 -105170.71 129403.09 -105111.19 129415 -105087.38 129426.9 -105075.48 129450.71 -105063.57 129474.52 -105063.57 129510.24 -105075.48 129653.09 -105218.33 129653.09 -105063.57 M 129653.09 -107506.67 129653.09 -107625.71 129403.09 -107625.71 M 129653.09 -107292.38 129653.09 -107435.24 M 129653.09 -107363.81 129403.09 -107363.81 129438.81 -107387.62 129462.62 -107411.43 129474.52 -107435.24 M 130923.09 -106404.17 130804.05 -106487.5 M 130923.09 -106547.02 130673.09 -106547.02 130673.09 -106451.79 130685 -106427.98 130696.9 -106416.07 130720.71 -106404.17 130756.43 -106404.17 130780.24 -106416.07 130792.14 -106427.98 130804.05 -106451.79 130804.05 -106547.02 M 130673.09 -106320.83 130673.09 -106166.07 130768.33 -106249.4 130768.33 -106213.69 130780.24 -106189.88 130792.14 -106177.98 130815.95 -106166.07 130875.48 -106166.07 130899.28 -106177.98 130911.19 -106189.88 130923.09 -106213.69 130923.09 -106285.12 130911.19 -106308.93 130899.28 -106320.83 M 131253.33 -108039.29 131241.43 -108051.19 131205.71 -108063.1 131181.9 -108063.1 131146.19 -108051.19 131122.38 -108027.38 131110.48 -108003.57 131098.57 -107955.95 131098.57 -107920.24 131110.48 -107872.62 131122.38 -107848.81 131146.19 -107825 131181.9 -107813.1 131205.71 -107813.1 131241.43 -107825 131253.33 -107836.9 M 131479.52 -107813.1 131360.48 -107813.1 131348.57 -107932.14 131360.48 -107920.24 131384.28 -107908.33 131443.81 -107908.33 131467.62 -107920.24 131479.52 -107932.14 131491.43 -107955.95 131491.43 -108015.48 131479.52 -108039.29 131467.62 -108051.19 131443.81 -108063.1 131384.28 -108063.1 131360.48 -108051.19 131348.57 -108039.29 M 131253.33 -104864.29 131241.43 -104876.19 131205.71 -104888.1 131181.9 -104888.1 131146.19 -104876.19 131122.38 -104852.38 131110.48 -104828.57 131098.57 -104780.95 131098.57 -104745.24 131110.48 -104697.62 131122.38 -104673.81 131146.19 -104650 131181.9 -104638.1 131205.71 -104638.1 131241.43 -104650 131253.33 -104661.9 M 131336.67 -104638.1 131491.43 -104638.1 131408.09 -104733.33 131443.81 -104733.33 131467.62 -104745.24 131479.52 -104757.14 131491.43 -104780.95 131491.43 -104840.48 131479.52 -104864.29 131467.62 -104876.19 131443.81 -104888.1 131372.38 -104888.1 131348.57 -104876.19 131336.67 -104864.29" fill="none" stroke-width="40"/><path d="M 126087.14 -111490 126134.76 -111537.62 126182.38 -111680.48 126182.38 -111775.71 126134.76 -111918.57 126039.52 -112013.81 125944.28 -112061.43 125753.81 -112109.05 125610.95 -112109.05 125420.48 -112061.43 125325.24 -112013.81 125230 -111918.57 125182.38 -111775.71 125182.38 -111680.48 125230 -111537.62 125277.62 -111490 M 126182.38 -110918.57 126134.76 -111013.81 126087.14 -111061.43 125991.9 -111109.05 125706.19 -111109.05 125610.95 -111061.43 125563.33 -111013.81 125515.71 -110918.57 125515.71 -110775.71 125563.33 -110680.48 125610.95 -110632.86 125706.19 -110585.24 125991.9 -110585.24 126087.14 -110632.86 126134.76 -110680.48 126182.38 -110775.71 126182.38 -110918.57 M 126182.38 -109728.1 125658.57 -109728.1 125563.33 -109775.71 125515.71 -109870.95 125515.71 -110061.43 125563.33 -110156.67 M 126134.76 -109728.1 126182.38 -109823.33 126182.38 -110061.43 126134.76 -110156.67 126039.52 -110204.29 125944.28 -110204.29 125849.05 -110156.67 125801.43 -110061.43 125801.43 -109823.33 125753.81 -109728.1 M 126182.38 -109347.14 125515.71 -108823.33 M 125515.71 -109347.14 126182.38 -108823.33 M 127976.67 -100377.38 127976.67 -99377.38 128310 -100091.67 128643.33 -99377.38 128643.33 -100377.38 M 129071.9 -100091.67 129548.09 -100091.67 M 128976.67 -100377.38 129310 -99377.38 129643.33 -100377.38 M 129881.43 -99377.38 130548.09 -100377.38 M 130548.09 -99377.38 129881.43 -100377.38 M 130929.05 -99996.43 131690.95 -99996.43 M 132310 -99805.95 132214.76 -99758.33 132167.14 -99710.71 132119.52 -99615.48 132119.52 -99567.86 132167.14 -99472.62 132214.76 -99425 132310 -99377.38 132500.48 -99377.38 132595.71 -99425 132643.33 -99472.62 132690.95 -99567.86 132690.95 -99615.48 132643.33 -99710.71 132595.71 -99758.33 132500.48 -99805.95 132310 -99805.95 132214.76 -99853.57 132167.14 -99901.19 132119.52 -99996.43 132119.52 -100186.9 132167.14 -100282.14 132214.76 -100329.76 132310 -100377.38 132500.48 -100377.38 132595.71 -100329.76 132643.33 -100282.14 132690.95 -100186.9 132690.95 -99996.43 132643.33 -99901.19 132595.71 -99853.57 132500.48 -99805.95 M 133690.95 -100282.14 133643.33 -100329.76 133500.48 -100377.38 133405.24 -100377.38 133262.38 -100329.76 133167.14 -100234.52 133119.52 -100139.29 133071.9 -99948.81 133071.9 -99805.95 133119.52 -99615.48 133167.14 -99520.24 133262.38 -99425 133405.24 -99377.38 133500.48 -99377.38 133643.33 -99425 133690.95 -99472.62 M 130048.09 -97877.38 130048.09 -98686.9 130095.71 -98782.14 130143.33 -98829.76 130238.57 -98877.38 130429.05 -98877.38 130524.28 -98829.76 130571.9 -98782.14 130619.52 -98686.9 130619.52 -97877.38 M 131619.52 -98877.38 131048.09 -98877.38 M 131333.81 -98877.38 131333.81 -97877.38 131238.57 -98020.24 131143.33 -98115.48 131048.09 -98163.1" fill="none" stroke-width="150"/></g><clipPath id="qq6RP35KaBXl_bottom_outline"><path d="M 140970 -96520 140970 -99060 A 1270 1270 0 0 1 139700 -100330 L 139700 -112395 A 635 635 0 0 0 139065 -113030 L 122555 -113030 A 635 635 0 0 0 121920 -112395 L 121920 -100330 A 1270 1270 0 0 1 120650 -99060 L 120650 -96520 A 1270 1270 0 0 1 121920 -95250 L 121920 -83185 A 635 635 0 0 0 122555 -82550 L 139065 -82550 A 635 635 0 0 0 139700 -83185 L 139700 -95250 A 1270 1270 0 0 1 140970 -96520" fill="none" stroke-width="100"/></clipPath><mask id="qq6RP35KaBXl_bottom_mech-mask"><g fill="#000" stroke="#000"><rect x="120650" y="-113030" width="20320" height="30480" fill="#fff"/><use xlink:href="#qq6RP35KaBXl_bottom_drill1"/><use xlink:href="#qq6RP35KaBXl_bottom_drill2"/><use xlink:href="#qq6RP35KaBXl_bottom_drill3"/></g></mask></defs><g transform="translate(0,-195580) scale(1,-1)"><g mask="url(#qq6RP35KaBXl_bottom_mech-mask)" clip-path="url(#qq6RP35KaBXl_bottom_outline)" transform="translate(261620,0) scale(-1,1)"><rect x="120650" y="-113030" width="20320" height="30480" fill="currentColor" class="qq6RP35KaBXl_fr4"/></g></g></svg>