<svg version="1.1" xmlns="http://www.w3.org/2000/svg" xmlns:xlink="http://www.w3.org/1999/xlink" stroke-linecap="round" stroke-linejoin="round" stroke-width="0" fill-rule="evenodd" width="17.88mm" height="30.623450000000002mm" viewBox="-16560 -1363.45 17880 30623.45"><g transform="translate(0,27896.55) scale(1,-1)" fill="currentColor" stroke="currentColor"><path d="M 1270 28575 1270 -635 M -16510 -635 -16510 28575 M -15875 29210 A 635 635 0 0 1 -16510 28575 M 1270 28575 A 635 635 0 0 1 635 29210 M 635 -1270 A 635 635 0 0 1 1270 -635 M -16510 -635 A 635 635 0 0 1 -15875 -1270 M 635 29210 -15875 29210 M -15875 -1270 635 -1270" fill="none" stroke-width="100"/><path d="M -12070 5425 -11070 4425 -3170 4425 -3170 24785 -12070 24785 -12070 5425 M -12070 12555 -10870 12555 -10870 5615 -4370 5615 -4370 23595 -10870 23595 -10870 16655 -10870 16655 -12070 16655 M 1260 -1100 1260 29050 M -16040 -1100 1260 -1100 M -16040 -1100 -16510 -600 M -16510 29050 -16510 -600 M 1260 29050 -16510 29050 M -8660 1250 -11660 1250 -11660 -1250 -8660 -1250 -8660 1250 M -9410 0 A 750 750 0 0 1 -10910 0 750 750 0 0 1 -9410 0 M -1270 25400 -1270 29210 M -13970 25400 -13970 29210 -1270 29210 M -13970 25400 -1270 25400 M -6580 -1313.45 -3580 -1313.45 -3580 1186.55 -6580 1186.55 -6580 -1313.45 M -4330 -63.45 A 750 750 0 0 1 -5830 -63.45 750 750 0 0 1 -4330 -63.45 M -12065 3810 -12700 3175 M -2540 3810 -12065 3810 M -2540 1270 -2540 3810 M -12700 1270 -2540 1270 M -12700 3175 -12700 1270" fill="none" stroke-width="100"/><path d="M -13773.1 12331.67 -13201.67 12331.67 -13087.38 12369.76 -13011.19 12445.95 -12973.1 12560.24 -12973.1 12636.43 M -12973.1 11531.67 -12973.1 11988.81 M -12973.1 11760.24 -13773.1 11760.24 -13658.81 11836.43 -13582.62 11912.62 -13544.52 11988.81 M -13011.19 1066.67 -12973.1 952.38 -12973.1 761.91 -13011.19 685.72 -13049.29 647.62 -13125.48 609.52 -13201.67 609.52 -13277.86 647.62 -13315.95 685.72 -13354.05 761.91 -13392.14 914.29 -13430.24 990.48 -13468.33 1028.57 -13544.52 1066.67 -13620.72 1066.67 -13696.91 1028.57 -13735 990.48 -13773.1 914.29 -13773.1 723.81 -13735 609.52 M -13773.1 342.86 -12973.1 152.38 -13544.52 0 -12973.1 -152.38 -13773.1 -342.86 M -13696.91 -609.52 -13735 -647.62 -13773.1 -723.81 -13773.1 -914.28 -13735 -990.48 -13696.91 -1028.57 -13620.72 -1066.67 -13544.52 -1066.67 -13430.24 -1028.57 -12973.1 -571.43 -12973.1 -1066.67 M -1581.19 1066.67 -1543.1 952.38 -1543.1 761.91 -1581.19 685.72 -1619.29 647.62 -1695.48 609.52 -1771.67 609.52 -1847.86 647.62 -1885.95 685.72 -1924.05 761.91 -1962.14 914.29 -2000.24 990.48 -2038.33 1028.57 -2114.52 1066.67 -2190.71 1066.67 -2266.9 1028.57 -2305 990.48 -2343.1 914.29 -2343.1 723.81 -2305 609.52 M -2343.1 342.86 -1543.1 152.38 -2114.52 0 -1543.1 -152.38 -2343.1 -342.86 M -1543.1 -1066.67 -1543.1 -609.52 M -1543.1 -838.1 -2343.1 -838.1 -2228.81 -761.9 -2152.62 -685.71 -2114.52 -609.52 M -13773.1 2870.12 -13201.67 2870.12 -13087.38 2908.21 -13011.19 2984.41 -12973.1 3098.69 -12973.1 3174.88 M -13773.1 2565.36 -13773.1 2070.12 -13468.33 2336.79 -13468.33 2222.5 -13430.24 2146.31 -13392.14 2108.21 -13315.95 2070.12 -13125.48 2070.12 -13049.29 2108.21 -13011.19 2146.31 -12973.1 2222.5 -12973.1 2451.07 -13011.19 2527.26 -13049.29 2565.36" fill="none" stroke-width="200"/></g></svg>