%TF.GenerationSoftware,KiCad,Pcbnew,5.1.6+dfsg1-1~bpo10+1*%
%TF.CreationDate,Date%
%TF.ProjectId,ProMicro_QWIIC,50726f4d-6963-4726-9f5f-51574949432e,v1.0*%
%TF.SameCoordinates,Original*%
%TF.FileFunction,Legend,Top*%
%TF.FilePolarity,Positive*%
%FSLAX45Y45*%
G04 Gerber Fmt 4.5, Leading zero omitted, Abs format (unit mm)*
G04 Created by KiCad*
%MOMM*%
%LPD*%
G01*
G04 APERTURE LIST*
%TA.AperFunction,Profile*%
%ADD10C,0.100000*%
%TD*%
%ADD11C,0.120000*%
%ADD12C,0.100000*%
%ADD13C,0.150000*%
%ADD14C,0.200000*%
%ADD15R,1.500000X1.000000*%
%ADD16O,1.700000X1.700000*%
%ADD17R,1.700000X1.700000*%
%ADD18R,0.500000X0.350000*%
%ADD19R,1.100000X0.250000*%
%ADD20O,1.600000X1.600000*%
%ADD21R,1.600000X1.600000*%
G04 APERTURE END LIST*
D10*
X1651000Y63500D02*
X1651000Y-2857500D01*
X-127000Y-2857500D02*
X-127000Y63500D01*
X-63500Y-2921000D02*
G75*
G02*
X-127000Y-2857500I0J63500D01*
G01*
X1651000Y-2857500D02*
G75*
G02*
X1587500Y-2921000I-63500J0D01*
G01*
X1587500Y127000D02*
G75*
G02*
X1651000Y63500I0J-63500D01*
G01*
X-127000Y63500D02*
G75*
G02*
X-63500Y127000I63500J0D01*
G01*
X1587500Y-2921000D02*
X-63500Y-2921000D01*
X-63500Y127000D02*
X1587500Y127000D01*
D11*
X374000Y-374000D02*
X404000Y-344000D01*
X404000Y-404000D02*
X404000Y-344000D01*
X374000Y-374000D02*
X404000Y-404000D01*
X284000Y-459000D02*
X224000Y-459000D01*
X354000Y-114000D02*
X354000Y-394000D01*
X224000Y-49000D02*
X284000Y-49000D01*
X154000Y-394000D02*
X154000Y-114000D01*
X224000Y-459000D02*
G75*
G02*
X154000Y-389000I0J70000D01*
G01*
X354000Y-389000D02*
G75*
G02*
X284000Y-459000I-70000J0D01*
G01*
X284000Y-49000D02*
G75*
G02*
X354000Y-119000I0J-70000D01*
G01*
X154000Y-119000D02*
G75*
G02*
X224000Y-49000I70000J0D01*
G01*
X457000Y-1794278D02*
X457000Y-1761722D01*
X559000Y-1794278D02*
X559000Y-1761722D01*
X965000Y-1794278D02*
X965000Y-1761722D01*
X1067000Y-1794278D02*
X1067000Y-1761722D01*
X375000Y-502000D02*
X375000Y-768000D01*
X889000Y-502000D02*
X375000Y-502000D01*
X889000Y-768000D02*
X375000Y-768000D01*
X889000Y-502000D02*
X889000Y-768000D01*
X1016000Y-502000D02*
X1149000Y-502000D01*
X1149000Y-502000D02*
X1149000Y-635000D01*
X1149000Y-2292000D02*
X1149000Y-2026000D01*
X635000Y-2292000D02*
X1149000Y-2292000D01*
X635000Y-2026000D02*
X1149000Y-2026000D01*
X635000Y-2292000D02*
X635000Y-2026000D01*
X508000Y-2292000D02*
X375000Y-2292000D01*
X375000Y-2292000D02*
X375000Y-2159000D01*
X769000Y-896000D02*
X739000Y-926000D01*
X739000Y-866000D02*
X739000Y-926000D01*
X769000Y-896000D02*
X739000Y-866000D01*
X859000Y-811000D02*
X919000Y-811000D01*
X789000Y-1156000D02*
X789000Y-876000D01*
X919000Y-1221000D02*
X859000Y-1221000D01*
X989000Y-876000D02*
X989000Y-1156000D01*
X919000Y-811000D02*
G75*
G02*
X989000Y-881000I0J-70000D01*
G01*
X789000Y-881000D02*
G75*
G02*
X859000Y-811000I70000J0D01*
G01*
X859000Y-1221000D02*
G75*
G02*
X789000Y-1151000I0J70000D01*
G01*
X989000Y-1151000D02*
G75*
G02*
X919000Y-1221000I-70000J0D01*
G01*
X755000Y-1136000D02*
X785000Y-1106000D01*
X785000Y-1166000D02*
X785000Y-1106000D01*
X755000Y-1136000D02*
X785000Y-1166000D01*
X665000Y-1221000D02*
X605000Y-1221000D01*
X735000Y-876000D02*
X735000Y-1156000D01*
X605000Y-811000D02*
X665000Y-811000D01*
X535000Y-1156000D02*
X535000Y-876000D01*
X605000Y-1221000D02*
G75*
G02*
X535000Y-1151000I0J70000D01*
G01*
X735000Y-1151000D02*
G75*
G02*
X665000Y-1221000I-70000J0D01*
G01*
X665000Y-811000D02*
G75*
G02*
X735000Y-881000I0J-70000D01*
G01*
X535000Y-881000D02*
G75*
G02*
X605000Y-811000I70000J0D01*
G01*
D12*
X898000Y-1913000D02*
X898000Y-1898000D01*
X897000Y-1913000D02*
X882000Y-1913000D01*
X897000Y-1643000D02*
X882000Y-1643000D01*
X897000Y-1643000D02*
X897000Y-1658000D01*
X627000Y-1658000D02*
X627000Y-1643000D01*
X627000Y-1643000D02*
X642000Y-1643000D01*
X642000Y-1913000D02*
X617000Y-1913000D01*
D13*
X924500Y-1559500D02*
X924500Y-1542000D01*
X599500Y-1559500D02*
X599500Y-1532000D01*
X599500Y-1234500D02*
X599500Y-1262000D01*
X924500Y-1234500D02*
X924500Y-1262000D01*
X924500Y-1559500D02*
X599500Y-1559500D01*
X924500Y-1234500D02*
X599500Y-1234500D01*
X924500Y-1542000D02*
X1032000Y-1542000D01*
D11*
X1137000Y-1276000D02*
X1403000Y-1276000D01*
X1137000Y-1016000D02*
X1137000Y-1276000D01*
X1403000Y-1016000D02*
X1403000Y-1276000D01*
X1137000Y-1016000D02*
X1403000Y-1016000D01*
X1137000Y-889000D02*
X1137000Y-756000D01*
X1137000Y-756000D02*
X1270000Y-756000D01*
X1137000Y-2038000D02*
X1403000Y-2038000D01*
X1137000Y-1778000D02*
X1137000Y-2038000D01*
X1403000Y-1778000D02*
X1403000Y-2038000D01*
X1137000Y-1778000D02*
X1403000Y-1778000D01*
X1137000Y-1651000D02*
X1137000Y-1518000D01*
X1137000Y-1518000D02*
X1270000Y-1518000D01*
X301222Y-965000D02*
X333778Y-965000D01*
X301222Y-1067000D02*
X333778Y-1067000D01*
X301222Y-1155500D02*
X333778Y-1155500D01*
X301222Y-1257500D02*
X333778Y-1257500D01*
X1219000Y-397278D02*
X1219000Y-364722D01*
X1321000Y-397278D02*
X1321000Y-364722D01*
X1073000Y-2671000D02*
X1073000Y-2556000D01*
X1073000Y-2556000D02*
X968000Y-2556000D01*
X968000Y-2556000D02*
X968000Y-2457000D01*
X451000Y-2671000D02*
X451000Y-2556000D01*
X451000Y-2556000D02*
X556000Y-2556000D01*
X956000Y-2868000D02*
X568000Y-2868000D01*
X451000Y-106000D02*
X451000Y-221000D01*
X451000Y-221000D02*
X556000Y-221000D01*
X556000Y-221000D02*
X556000Y-320000D01*
X1073000Y-106000D02*
X1073000Y-221000D01*
X1073000Y-221000D02*
X968000Y-221000D01*
X568000Y91000D02*
X956000Y91000D01*
X1664000Y127000D02*
X127000Y127000D01*
X1664000Y-2921000D02*
X1664000Y127000D01*
X-140000Y-2921000D02*
X1664000Y-2921000D01*
X127000Y127000D02*
X127000Y-2921000D01*
X127000Y-127000D02*
X-140000Y-127000D01*
X1397000Y127000D02*
X1397000Y-2921000D01*
X-140000Y-127000D02*
X-140000Y-2921000D01*
X432000Y-1444222D02*
X432000Y-1476778D01*
X330000Y-1444222D02*
X330000Y-1476778D01*
D14*
X187333Y-464190D02*
X187333Y-521333D01*
X183524Y-532762D01*
X175905Y-540381D01*
X164476Y-544190D01*
X156857Y-544190D01*
X225428Y-544190D02*
X225428Y-464190D01*
X255905Y-464190D01*
X263524Y-468000D01*
X267333Y-471809D01*
X271143Y-479428D01*
X271143Y-490857D01*
X267333Y-498476D01*
X263524Y-502286D01*
X255905Y-506095D01*
X225428Y-506095D01*
X297810Y-464190D02*
X347333Y-464190D01*
X320667Y-494667D01*
X332095Y-494667D01*
X339714Y-498476D01*
X343524Y-502286D01*
X347333Y-509905D01*
X347333Y-528952D01*
X343524Y-536571D01*
X339714Y-540381D01*
X332095Y-544190D01*
X309238Y-544190D01*
X301619Y-540381D01*
X297810Y-536571D01*
X304167Y-1743071D02*
X300357Y-1746881D01*
X288929Y-1750690D01*
X281310Y-1750690D01*
X269881Y-1746881D01*
X262262Y-1739262D01*
X258452Y-1731643D01*
X254643Y-1716405D01*
X254643Y-1704976D01*
X258452Y-1689738D01*
X262262Y-1682119D01*
X269881Y-1674500D01*
X281310Y-1670690D01*
X288929Y-1670690D01*
X300357Y-1674500D01*
X304167Y-1678309D01*
X330833Y-1670690D02*
X380357Y-1670690D01*
X353690Y-1701167D01*
X365119Y-1701167D01*
X372738Y-1704976D01*
X376548Y-1708786D01*
X380357Y-1716405D01*
X380357Y-1735452D01*
X376548Y-1743071D01*
X372738Y-1746881D01*
X365119Y-1750690D01*
X342262Y-1750690D01*
X334643Y-1746881D01*
X330833Y-1743071D01*
X304167Y-1870071D02*
X300357Y-1873881D01*
X288929Y-1877690D01*
X281310Y-1877690D01*
X269881Y-1873881D01*
X262262Y-1866262D01*
X258452Y-1858643D01*
X254643Y-1843405D01*
X254643Y-1831976D01*
X258452Y-1816738D01*
X262262Y-1809119D01*
X269881Y-1801500D01*
X281310Y-1797690D01*
X288929Y-1797690D01*
X300357Y-1801500D01*
X304167Y-1805309D01*
X334643Y-1805309D02*
X338452Y-1801500D01*
X346071Y-1797690D01*
X365119Y-1797690D01*
X372738Y-1801500D01*
X376548Y-1805309D01*
X380357Y-1812928D01*
X380357Y-1820548D01*
X376548Y-1831976D01*
X330833Y-1877690D01*
X380357Y-1877690D01*
X227333Y-591190D02*
X227333Y-648333D01*
X223524Y-659762D01*
X215905Y-667381D01*
X204476Y-671190D01*
X196857Y-671190D01*
X299714Y-591190D02*
X284476Y-591190D01*
X276857Y-595000D01*
X273048Y-598810D01*
X265429Y-610238D01*
X261619Y-625476D01*
X261619Y-655952D01*
X265429Y-663571D01*
X269238Y-667381D01*
X276857Y-671190D01*
X292095Y-671190D01*
X299714Y-667381D01*
X303524Y-663571D01*
X307333Y-655952D01*
X307333Y-636905D01*
X303524Y-629286D01*
X299714Y-625476D01*
X292095Y-621667D01*
X276857Y-621667D01*
X269238Y-625476D01*
X265429Y-629286D01*
X261619Y-636905D01*
X227333Y-2115190D02*
X227333Y-2172333D01*
X223524Y-2183762D01*
X215905Y-2191381D01*
X204476Y-2195190D01*
X196857Y-2195190D01*
X303524Y-2115190D02*
X265429Y-2115190D01*
X261619Y-2153286D01*
X265429Y-2149476D01*
X273048Y-2145667D01*
X292095Y-2145667D01*
X299714Y-2149476D01*
X303524Y-2153286D01*
X307333Y-2160905D01*
X307333Y-2179952D01*
X303524Y-2187571D01*
X299714Y-2191381D01*
X292095Y-2195190D01*
X273048Y-2195190D01*
X265429Y-2191381D01*
X261619Y-2187571D01*
X822333Y-400690D02*
X822333Y-457833D01*
X818524Y-469262D01*
X810905Y-476881D01*
X799476Y-480690D01*
X791857Y-480690D01*
X860428Y-480690D02*
X860428Y-400690D01*
X890905Y-400690D01*
X898524Y-404500D01*
X902333Y-408309D01*
X906143Y-415928D01*
X906143Y-427357D01*
X902333Y-434976D01*
X898524Y-438786D01*
X890905Y-442595D01*
X860428Y-442595D01*
X936619Y-408309D02*
X940428Y-404500D01*
X948048Y-400690D01*
X967095Y-400690D01*
X974714Y-404500D01*
X978524Y-408309D01*
X982333Y-415928D01*
X982333Y-423548D01*
X978524Y-434976D01*
X932809Y-480690D01*
X982333Y-480690D01*
X568333Y-400690D02*
X568333Y-457833D01*
X564524Y-469262D01*
X556905Y-476881D01*
X545476Y-480690D01*
X537857Y-480690D01*
X606429Y-480690D02*
X606429Y-400690D01*
X636905Y-400690D01*
X644524Y-404500D01*
X648333Y-408309D01*
X652143Y-415928D01*
X652143Y-427357D01*
X648333Y-434976D01*
X644524Y-438786D01*
X636905Y-442595D01*
X606429Y-442595D01*
X728333Y-480690D02*
X682619Y-480690D01*
X705476Y-480690D02*
X705476Y-400690D01*
X697857Y-412119D01*
X690238Y-419738D01*
X682619Y-423548D01*
X193048Y-1924690D02*
X193048Y-1989452D01*
X196857Y-1997071D01*
X200667Y-2000881D01*
X208286Y-2004690D01*
X223524Y-2004690D01*
X231143Y-2000881D01*
X234952Y-1997071D01*
X238762Y-1989452D01*
X238762Y-1924690D01*
X273048Y-1932309D02*
X276857Y-1928500D01*
X284476Y-1924690D01*
X303524Y-1924690D01*
X311143Y-1928500D01*
X314952Y-1932309D01*
X318762Y-1939928D01*
X318762Y-1947548D01*
X314952Y-1958976D01*
X269238Y-2004690D01*
X318762Y-2004690D01*
X1082048Y-1353190D02*
X1082048Y-1417952D01*
X1085857Y-1425571D01*
X1089667Y-1429381D01*
X1097286Y-1433190D01*
X1112524Y-1433190D01*
X1120143Y-1429381D01*
X1123952Y-1425571D01*
X1127762Y-1417952D01*
X1127762Y-1353190D01*
X1207762Y-1433190D02*
X1162048Y-1433190D01*
X1184905Y-1433190D02*
X1184905Y-1353190D01*
X1177286Y-1364619D01*
X1169667Y-1372238D01*
X1162048Y-1376048D01*
X1243333Y-591190D02*
X1243333Y-648333D01*
X1239524Y-659762D01*
X1231905Y-667381D01*
X1220476Y-671190D01*
X1212857Y-671190D01*
X1315714Y-617857D02*
X1315714Y-671190D01*
X1296667Y-587381D02*
X1277619Y-644524D01*
X1327143Y-644524D01*
X1243333Y-2115190D02*
X1243333Y-2172333D01*
X1239524Y-2183762D01*
X1231905Y-2191381D01*
X1220476Y-2195190D01*
X1212857Y-2195190D01*
X1273810Y-2115190D02*
X1323333Y-2115190D01*
X1296667Y-2145667D01*
X1308095Y-2145667D01*
X1315714Y-2149476D01*
X1319524Y-2153286D01*
X1323333Y-2160905D01*
X1323333Y-2179952D01*
X1319524Y-2187571D01*
X1315714Y-2191381D01*
X1308095Y-2195190D01*
X1285238Y-2195190D01*
X1277619Y-2191381D01*
X1273810Y-2187571D01*
X240667Y-798190D02*
X214000Y-760095D01*
X194952Y-798190D02*
X194952Y-718190D01*
X225428Y-718190D01*
X233048Y-722000D01*
X236857Y-725809D01*
X240667Y-733428D01*
X240667Y-744857D01*
X236857Y-752476D01*
X233048Y-756286D01*
X225428Y-760095D01*
X194952Y-760095D01*
X309238Y-744857D02*
X309238Y-798190D01*
X290190Y-714381D02*
X271143Y-771524D01*
X320667Y-771524D01*
X240667Y-925190D02*
X214000Y-887095D01*
X194952Y-925190D02*
X194952Y-845190D01*
X225428Y-845190D01*
X233048Y-849000D01*
X236857Y-852809D01*
X240667Y-860428D01*
X240667Y-871857D01*
X236857Y-879476D01*
X233048Y-883286D01*
X225428Y-887095D01*
X194952Y-887095D01*
X267333Y-845190D02*
X316857Y-845190D01*
X290190Y-875667D01*
X301619Y-875667D01*
X309238Y-879476D01*
X313048Y-883286D01*
X316857Y-890905D01*
X316857Y-909952D01*
X313048Y-917571D01*
X309238Y-921381D01*
X301619Y-925190D01*
X278762Y-925190D01*
X271143Y-921381D01*
X267333Y-917571D01*
X1256667Y-155571D02*
X1252857Y-159381D01*
X1241429Y-163190D01*
X1233810Y-163190D01*
X1222381Y-159381D01*
X1214762Y-151762D01*
X1210952Y-144143D01*
X1207143Y-128905D01*
X1207143Y-117476D01*
X1210952Y-102238D01*
X1214762Y-94619D01*
X1222381Y-87000D01*
X1233810Y-83190D01*
X1241429Y-83190D01*
X1252857Y-87000D01*
X1256667Y-90809D01*
X1332857Y-163190D02*
X1287143Y-163190D01*
X1310000Y-163190D02*
X1310000Y-83190D01*
X1302381Y-94619D01*
X1294762Y-102238D01*
X1287143Y-106048D01*
X1243333Y-2623190D02*
X1243333Y-2680333D01*
X1239524Y-2691762D01*
X1231905Y-2699381D01*
X1220476Y-2703190D01*
X1212857Y-2703190D01*
X1277619Y-2630810D02*
X1281429Y-2627000D01*
X1289048Y-2623190D01*
X1308095Y-2623190D01*
X1315714Y-2627000D01*
X1319524Y-2630810D01*
X1323333Y-2638429D01*
X1323333Y-2646048D01*
X1319524Y-2657476D01*
X1273810Y-2703190D01*
X1323333Y-2703190D01*
X1243333Y43810D02*
X1243333Y-13333D01*
X1239524Y-24762D01*
X1231905Y-32381D01*
X1220476Y-36190D01*
X1212857Y-36190D01*
X1323333Y-36190D02*
X1277619Y-36190D01*
X1300476Y-36190D02*
X1300476Y43810D01*
X1292857Y32381D01*
X1285238Y24762D01*
X1277619Y20952D01*
X196857Y-13333D02*
X234952Y-13333D01*
X189238Y-36190D02*
X215905Y43810D01*
X242571Y-36190D01*
X311143Y-36190D02*
X265429Y-36190D01*
X288286Y-36190D02*
X288286Y43810D01*
X280667Y32381D01*
X273048Y24762D01*
X265429Y20952D01*
X282571Y-1473833D02*
X286381Y-1477643D01*
X290190Y-1489071D01*
X290190Y-1496690D01*
X286381Y-1508119D01*
X278762Y-1515738D01*
X271143Y-1519548D01*
X255905Y-1523357D01*
X244476Y-1523357D01*
X229238Y-1519548D01*
X221619Y-1515738D01*
X214000Y-1508119D01*
X210190Y-1496690D01*
X210190Y-1489071D01*
X214000Y-1477643D01*
X217809Y-1473833D01*
X236857Y-1405262D02*
X290190Y-1405262D01*
X206381Y-1424309D02*
X263524Y-1443357D01*
X263524Y-1393833D01*
%LPC*%
D13*
G36*
X329000Y-329000D02*
G01*
X329000Y-384000D01*
X328940Y-384000D01*
X328940Y-386453D01*
X328459Y-391336D01*
X327502Y-396149D01*
X326077Y-400844D01*
X324200Y-405378D01*
X321886Y-409705D01*
X319160Y-413785D01*
X316048Y-417578D01*
X312578Y-421048D01*
X308785Y-424160D01*
X304705Y-426886D01*
X300378Y-429199D01*
X295845Y-431077D01*
X291149Y-432502D01*
X286337Y-433459D01*
X281453Y-433940D01*
X279000Y-433940D01*
X279000Y-434000D01*
X229000Y-434000D01*
X229000Y-433940D01*
X226547Y-433940D01*
X221663Y-433459D01*
X216851Y-432502D01*
X212155Y-431077D01*
X207622Y-429199D01*
X203295Y-426886D01*
X199215Y-424160D01*
X195422Y-421048D01*
X191952Y-417578D01*
X188840Y-413785D01*
X186114Y-409705D01*
X183800Y-405378D01*
X181923Y-400844D01*
X180498Y-396149D01*
X179541Y-391336D01*
X179060Y-386453D01*
X179060Y-384000D01*
X179000Y-384000D01*
X179000Y-329000D01*
X329000Y-329000D01*
G37*
D15*
X254000Y-254000D03*
D13*
G36*
X179060Y-124000D02*
G01*
X179060Y-121547D01*
X179541Y-116663D01*
X180498Y-111851D01*
X181923Y-107155D01*
X183800Y-102622D01*
X186114Y-98295D01*
X188840Y-94215D01*
X191952Y-90422D01*
X195422Y-86952D01*
X199215Y-83840D01*
X203295Y-81114D01*
X207622Y-78801D01*
X212155Y-76923D01*
X216851Y-75498D01*
X221663Y-74541D01*
X226547Y-74060D01*
X229000Y-74060D01*
X229000Y-74000D01*
X279000Y-74000D01*
X279000Y-74060D01*
X281453Y-74060D01*
X286337Y-74541D01*
X291149Y-75498D01*
X295845Y-76923D01*
X300378Y-78801D01*
X304705Y-81114D01*
X308785Y-83840D01*
X312578Y-86952D01*
X316048Y-90422D01*
X319160Y-94215D01*
X321886Y-98295D01*
X324200Y-102622D01*
X326077Y-107155D01*
X327502Y-111851D01*
X328459Y-116663D01*
X328940Y-121547D01*
X328940Y-124000D01*
X329000Y-124000D01*
X329000Y-179000D01*
X179000Y-179000D01*
X179000Y-124000D01*
X179060Y-124000D01*
G37*
G36*
G01*
X533625Y-1743000D02*
X482375Y-1743000D01*
G75*
G02*
X460500Y-1721125I0J21875D01*
G01*
X460500Y-1677375D01*
G75*
G02*
X482375Y-1655500I21875J0D01*
G01*
X533625Y-1655500D01*
G75*
G02*
X555500Y-1677375I0J-21875D01*
G01*
X555500Y-1721125D01*
G75*
G02*
X533625Y-1743000I-21875J0D01*
G01*
G37*
G36*
G01*
X533625Y-1900500D02*
X482375Y-1900500D01*
G75*
G02*
X460500Y-1878625I0J21875D01*
G01*
X460500Y-1834875D01*
G75*
G02*
X482375Y-1813000I21875J0D01*
G01*
X533625Y-1813000D01*
G75*
G02*
X555500Y-1834875I0J-21875D01*
G01*
X555500Y-1878625D01*
G75*
G02*
X533625Y-1900500I-21875J0D01*
G01*
G37*
G36*
G01*
X1041625Y-1743000D02*
X990375Y-1743000D01*
G75*
G02*
X968500Y-1721125I0J21875D01*
G01*
X968500Y-1677375D01*
G75*
G02*
X990375Y-1655500I21875J0D01*
G01*
X1041625Y-1655500D01*
G75*
G02*
X1063500Y-1677375I0J-21875D01*
G01*
X1063500Y-1721125D01*
G75*
G02*
X1041625Y-1743000I-21875J0D01*
G01*
G37*
G36*
G01*
X1041625Y-1900500D02*
X990375Y-1900500D01*
G75*
G02*
X968500Y-1878625I0J21875D01*
G01*
X968500Y-1834875D01*
G75*
G02*
X990375Y-1813000I21875J0D01*
G01*
X1041625Y-1813000D01*
G75*
G02*
X1063500Y-1834875I0J-21875D01*
G01*
X1063500Y-1878625D01*
G75*
G02*
X1041625Y-1900500I-21875J0D01*
G01*
G37*
D16*
X508000Y-635000D03*
X762000Y-635000D03*
D17*
X1016000Y-635000D03*
D16*
X1016000Y-2159000D03*
X762000Y-2159000D03*
D17*
X508000Y-2159000D03*
D13*
G36*
X814000Y-941000D02*
G01*
X814000Y-886000D01*
X814060Y-886000D01*
X814060Y-883547D01*
X814541Y-878663D01*
X815498Y-873851D01*
X816923Y-869155D01*
X818800Y-864622D01*
X821114Y-860295D01*
X823840Y-856215D01*
X826952Y-852422D01*
X830422Y-848952D01*
X834215Y-845840D01*
X838295Y-843114D01*
X842622Y-840800D01*
X847155Y-838923D01*
X851851Y-837498D01*
X856663Y-836541D01*
X861547Y-836060D01*
X864000Y-836060D01*
X864000Y-836000D01*
X914000Y-836000D01*
X914000Y-836060D01*
X916453Y-836060D01*
X921336Y-836541D01*
X926149Y-837498D01*
X930844Y-838923D01*
X935378Y-840800D01*
X939705Y-843114D01*
X943785Y-845840D01*
X947578Y-848952D01*
X951048Y-852422D01*
X954160Y-856215D01*
X956886Y-860295D01*
X959199Y-864622D01*
X961077Y-869155D01*
X962502Y-873851D01*
X963459Y-878663D01*
X963940Y-883547D01*
X963940Y-886000D01*
X964000Y-886000D01*
X964000Y-941000D01*
X814000Y-941000D01*
G37*
D15*
X889000Y-1016000D03*
D13*
G36*
X963940Y-1146000D02*
G01*
X963940Y-1148453D01*
X963459Y-1153337D01*
X962502Y-1158149D01*
X961077Y-1162845D01*
X959199Y-1167378D01*
X956886Y-1171705D01*
X954160Y-1175785D01*
X951048Y-1179578D01*
X947578Y-1183048D01*
X943785Y-1186160D01*
X939705Y-1188886D01*
X935378Y-1191200D01*
X930844Y-1193077D01*
X926149Y-1194502D01*
X921336Y-1195459D01*
X916453Y-1195940D01*
X914000Y-1195940D01*
X914000Y-1196000D01*
X864000Y-1196000D01*
X864000Y-1195940D01*
X861547Y-1195940D01*
X856663Y-1195459D01*
X851851Y-1194502D01*
X847155Y-1193077D01*
X842622Y-1191200D01*
X838295Y-1188886D01*
X834215Y-1186160D01*
X830422Y-1183048D01*
X826952Y-1179578D01*
X823840Y-1175785D01*
X821114Y-1171705D01*
X818800Y-1167378D01*
X816923Y-1162845D01*
X815498Y-1158149D01*
X814541Y-1153337D01*
X814060Y-1148453D01*
X814060Y-1146000D01*
X814000Y-1146000D01*
X814000Y-1091000D01*
X964000Y-1091000D01*
X964000Y-1146000D01*
X963940Y-1146000D01*
G37*
G36*
X710000Y-1091000D02*
G01*
X710000Y-1146000D01*
X709940Y-1146000D01*
X709940Y-1148453D01*
X709459Y-1153337D01*
X708502Y-1158149D01*
X707077Y-1162845D01*
X705199Y-1167378D01*
X702886Y-1171705D01*
X700160Y-1175785D01*
X697048Y-1179578D01*
X693578Y-1183048D01*
X689785Y-1186160D01*
X685705Y-1188886D01*
X681378Y-1191200D01*
X676845Y-1193077D01*
X672149Y-1194502D01*
X667337Y-1195459D01*
X662453Y-1195940D01*
X660000Y-1195940D01*
X660000Y-1196000D01*
X610000Y-1196000D01*
X610000Y-1195940D01*
X607547Y-1195940D01*
X602664Y-1195459D01*
X597851Y-1194502D01*
X593156Y-1193077D01*
X588622Y-1191200D01*
X584295Y-1188886D01*
X580215Y-1186160D01*
X576422Y-1183048D01*
X572952Y-1179578D01*
X569840Y-1175785D01*
X567114Y-1171705D01*
X564801Y-1167378D01*
X562923Y-1162845D01*
X561498Y-1158149D01*
X560541Y-1153337D01*
X560060Y-1148453D01*
X560060Y-1146000D01*
X560000Y-1146000D01*
X560000Y-1091000D01*
X710000Y-1091000D01*
G37*
D15*
X635000Y-1016000D03*
D13*
G36*
X560060Y-886000D02*
G01*
X560060Y-883547D01*
X560541Y-878663D01*
X561498Y-873851D01*
X562923Y-869155D01*
X564801Y-864622D01*
X567114Y-860295D01*
X569840Y-856215D01*
X572952Y-852422D01*
X576422Y-848952D01*
X580215Y-845840D01*
X584295Y-843114D01*
X588622Y-840800D01*
X593156Y-838923D01*
X597851Y-837498D01*
X602664Y-836541D01*
X607547Y-836060D01*
X610000Y-836060D01*
X610000Y-836000D01*
X660000Y-836000D01*
X660000Y-836060D01*
X662453Y-836060D01*
X667337Y-836541D01*
X672149Y-837498D01*
X676845Y-838923D01*
X681378Y-840800D01*
X685705Y-843114D01*
X689785Y-845840D01*
X693578Y-848952D01*
X697048Y-852422D01*
X700160Y-856215D01*
X702886Y-860295D01*
X705199Y-864622D01*
X707077Y-869155D01*
X708502Y-873851D01*
X709459Y-878663D01*
X709940Y-883547D01*
X709940Y-886000D01*
X710000Y-886000D01*
X710000Y-941000D01*
X560000Y-941000D01*
X560000Y-886000D01*
X560060Y-886000D01*
G37*
D18*
X864500Y-1680500D03*
X864500Y-1745500D03*
X864500Y-1810500D03*
X864500Y-1875500D03*
X659500Y-1875500D03*
X659500Y-1810500D03*
X659500Y-1745500D03*
X659500Y-1680500D03*
D19*
X547000Y-1497000D03*
X547000Y-1447000D03*
X547000Y-1397000D03*
X547000Y-1347000D03*
X547000Y-1297000D03*
X977000Y-1297000D03*
X977000Y-1347000D03*
X977000Y-1397000D03*
X977000Y-1447000D03*
X977000Y-1497000D03*
D16*
X1270000Y-1143000D03*
D17*
X1270000Y-889000D03*
D16*
X1270000Y-1905000D03*
D17*
X1270000Y-1651000D03*
G36*
G01*
X352500Y-1041625D02*
X352500Y-990375D01*
G75*
G02*
X374375Y-968500I21875J0D01*
G01*
X418125Y-968500D01*
G75*
G02*
X440000Y-990375I0J-21875D01*
G01*
X440000Y-1041625D01*
G75*
G02*
X418125Y-1063500I-21875J0D01*
G01*
X374375Y-1063500D01*
G75*
G02*
X352500Y-1041625I0J21875D01*
G01*
G37*
G36*
G01*
X195000Y-1041625D02*
X195000Y-990375D01*
G75*
G02*
X216875Y-968500I21875J0D01*
G01*
X260625Y-968500D01*
G75*
G02*
X282500Y-990375I0J-21875D01*
G01*
X282500Y-1041625D01*
G75*
G02*
X260625Y-1063500I-21875J0D01*
G01*
X216875Y-1063500D01*
G75*
G02*
X195000Y-1041625I0J21875D01*
G01*
G37*
G36*
G01*
X352500Y-1232125D02*
X352500Y-1180875D01*
G75*
G02*
X374375Y-1159000I21875J0D01*
G01*
X418125Y-1159000D01*
G75*
G02*
X440000Y-1180875I0J-21875D01*
G01*
X440000Y-1232125D01*
G75*
G02*
X418125Y-1254000I-21875J0D01*
G01*
X374375Y-1254000D01*
G75*
G02*
X352500Y-1232125I0J21875D01*
G01*
G37*
G36*
G01*
X195000Y-1232125D02*
X195000Y-1180875D01*
G75*
G02*
X216875Y-1159000I21875J0D01*
G01*
X260625Y-1159000D01*
G75*
G02*
X282500Y-1180875I0J-21875D01*
G01*
X282500Y-1232125D01*
G75*
G02*
X260625Y-1254000I-21875J0D01*
G01*
X216875Y-1254000D01*
G75*
G02*
X195000Y-1232125I0J21875D01*
G01*
G37*
G36*
G01*
X1295625Y-346000D02*
X1244375Y-346000D01*
G75*
G02*
X1222500Y-324125I0J21875D01*
G01*
X1222500Y-280375D01*
G75*
G02*
X1244375Y-258500I21875J0D01*
G01*
X1295625Y-258500D01*
G75*
G02*
X1317500Y-280375I0J-21875D01*
G01*
X1317500Y-324125D01*
G75*
G02*
X1295625Y-346000I-21875J0D01*
G01*
G37*
G36*
G01*
X1295625Y-503500D02*
X1244375Y-503500D01*
G75*
G02*
X1222500Y-481625I0J21875D01*
G01*
X1222500Y-437875D01*
G75*
G02*
X1244375Y-416000I21875J0D01*
G01*
X1295625Y-416000D01*
G75*
G02*
X1317500Y-437875I0J-21875D01*
G01*
X1317500Y-481625D01*
G75*
G02*
X1295625Y-503500I-21875J0D01*
G01*
G37*
G36*
G01*
X542000Y-2722000D02*
X542000Y-2852000D01*
G75*
G02*
X517000Y-2877000I-25000J0D01*
G01*
X447000Y-2877000D01*
G75*
G02*
X422000Y-2852000I0J25000D01*
G01*
X422000Y-2722000D01*
G75*
G02*
X447000Y-2697000I25000J0D01*
G01*
X517000Y-2697000D01*
G75*
G02*
X542000Y-2722000I0J-25000D01*
G01*
G37*
G36*
G01*
X1102000Y-2722000D02*
X1102000Y-2852000D01*
G75*
G02*
X1077000Y-2877000I-25000J0D01*
G01*
X1007000Y-2877000D01*
G75*
G02*
X982000Y-2852000I0J25000D01*
G01*
X982000Y-2722000D01*
G75*
G02*
X1007000Y-2697000I25000J0D01*
G01*
X1077000Y-2697000D01*
G75*
G02*
X1102000Y-2722000I0J-25000D01*
G01*
G37*
G36*
G01*
X642000Y-2472000D02*
X642000Y-2597000D01*
G75*
G02*
X627000Y-2612000I-15000J0D01*
G01*
X597000Y-2612000D01*
G75*
G02*
X582000Y-2597000I0J15000D01*
G01*
X582000Y-2472000D01*
G75*
G02*
X597000Y-2457000I15000J0D01*
G01*
X627000Y-2457000D01*
G75*
G02*
X642000Y-2472000I0J-15000D01*
G01*
G37*
G36*
G01*
X742000Y-2472000D02*
X742000Y-2597000D01*
G75*
G02*
X727000Y-2612000I-15000J0D01*
G01*
X697000Y-2612000D01*
G75*
G02*
X682000Y-2597000I0J15000D01*
G01*
X682000Y-2472000D01*
G75*
G02*
X697000Y-2457000I15000J0D01*
G01*
X727000Y-2457000D01*
G75*
G02*
X742000Y-2472000I0J-15000D01*
G01*
G37*
G36*
G01*
X842000Y-2472000D02*
X842000Y-2597000D01*
G75*
G02*
X827000Y-2612000I-15000J0D01*
G01*
X797000Y-2612000D01*
G75*
G02*
X782000Y-2597000I0J15000D01*
G01*
X782000Y-2472000D01*
G75*
G02*
X797000Y-2457000I15000J0D01*
G01*
X827000Y-2457000D01*
G75*
G02*
X842000Y-2472000I0J-15000D01*
G01*
G37*
G36*
G01*
X942000Y-2472000D02*
X942000Y-2597000D01*
G75*
G02*
X927000Y-2612000I-15000J0D01*
G01*
X897000Y-2612000D01*
G75*
G02*
X882000Y-2597000I0J15000D01*
G01*
X882000Y-2472000D01*
G75*
G02*
X897000Y-2457000I15000J0D01*
G01*
X927000Y-2457000D01*
G75*
G02*
X942000Y-2472000I0J-15000D01*
G01*
G37*
G36*
G01*
X982000Y-55000D02*
X982000Y75000D01*
G75*
G02*
X1007000Y100000I25000J0D01*
G01*
X1077000Y100000D01*
G75*
G02*
X1102000Y75000I0J-25000D01*
G01*
X1102000Y-55000D01*
G75*
G02*
X1077000Y-80000I-25000J0D01*
G01*
X1007000Y-80000D01*
G75*
G02*
X982000Y-55000I0J25000D01*
G01*
G37*
G36*
G01*
X422000Y-55000D02*
X422000Y75000D01*
G75*
G02*
X447000Y100000I25000J0D01*
G01*
X517000Y100000D01*
G75*
G02*
X542000Y75000I0J-25000D01*
G01*
X542000Y-55000D01*
G75*
G02*
X517000Y-80000I-25000J0D01*
G01*
X447000Y-80000D01*
G75*
G02*
X422000Y-55000I0J25000D01*
G01*
G37*
G36*
G01*
X882000Y-305000D02*
X882000Y-180000D01*
G75*
G02*
X897000Y-165000I15000J0D01*
G01*
X927000Y-165000D01*
G75*
G02*
X942000Y-180000I0J-15000D01*
G01*
X942000Y-305000D01*
G75*
G02*
X927000Y-320000I-15000J0D01*
G01*
X897000Y-320000D01*
G75*
G02*
X882000Y-305000I0J15000D01*
G01*
G37*
G36*
G01*
X782000Y-305000D02*
X782000Y-180000D01*
G75*
G02*
X797000Y-165000I15000J0D01*
G01*
X827000Y-165000D01*
G75*
G02*
X842000Y-180000I0J-15000D01*
G01*
X842000Y-305000D01*
G75*
G02*
X827000Y-320000I-15000J0D01*
G01*
X797000Y-320000D01*
G75*
G02*
X782000Y-305000I0J15000D01*
G01*
G37*
G36*
G01*
X682000Y-305000D02*
X682000Y-180000D01*
G75*
G02*
X697000Y-165000I15000J0D01*
G01*
X727000Y-165000D01*
G75*
G02*
X742000Y-180000I0J-15000D01*
G01*
X742000Y-305000D01*
G75*
G02*
X727000Y-320000I-15000J0D01*
G01*
X697000Y-320000D01*
G75*
G02*
X682000Y-305000I0J15000D01*
G01*
G37*
G36*
G01*
X582000Y-305000D02*
X582000Y-180000D01*
G75*
G02*
X597000Y-165000I15000J0D01*
G01*
X627000Y-165000D01*
G75*
G02*
X642000Y-180000I0J-15000D01*
G01*
X642000Y-305000D01*
G75*
G02*
X627000Y-320000I-15000J0D01*
G01*
X597000Y-320000D01*
G75*
G02*
X582000Y-305000I0J15000D01*
G01*
G37*
D20*
X1524000Y0D03*
X1524000Y-254000D03*
X1524000Y-508000D03*
X0Y-2794000D03*
X1524000Y-762000D03*
X0Y-2540000D03*
X1524000Y-1016000D03*
X0Y-2286000D03*
X1524000Y-1270000D03*
X0Y-2032000D03*
X1524000Y-1524000D03*
X0Y-1778000D03*
X1524000Y-1778000D03*
X0Y-1524000D03*
X1524000Y-2032000D03*
X0Y-1270000D03*
X1524000Y-2286000D03*
X0Y-1016000D03*
X1524000Y-2540000D03*
X0Y-762000D03*
X1524000Y-2794000D03*
X0Y-508000D03*
X0Y-254000D03*
D21*
X0Y0D03*
G36*
G01*
X355375Y-1495500D02*
X406625Y-1495500D01*
G75*
G02*
X428500Y-1517375I0J-21875D01*
G01*
X428500Y-1561125D01*
G75*
G02*
X406625Y-1583000I-21875J0D01*
G01*
X355375Y-1583000D01*
G75*
G02*
X333500Y-1561125I0J21875D01*
G01*
X333500Y-1517375D01*
G75*
G02*
X355375Y-1495500I21875J0D01*
G01*
G37*
G36*
G01*
X355375Y-1338000D02*
X406625Y-1338000D01*
G75*
G02*
X428500Y-1359875I0J-21875D01*
G01*
X428500Y-1403625D01*
G75*
G02*
X406625Y-1425500I-21875J0D01*
G01*
X355375Y-1425500D01*
G75*
G02*
X333500Y-1403625I0J21875D01*
G01*
X333500Y-1359875D01*
G75*
G02*
X355375Y-1338000I21875J0D01*
G01*
G37*
M02*
