%TF.GenerationSoftware,KiCad,Pcbnew,5.1.5+dfsg1-2~bpo10+1*%
%TF.CreationDate,Date%
%TF.ProjectId,ProMicro_GPS,50726f4d-6963-4726-9f5f-4750532e6b69,v3.1*%
%TF.SameCoordinates,Original*%
%TF.FileFunction,Other,User*%
%FSLAX45Y45*%
G04 Gerber Fmt 4.5, Leading zero omitted, Abs format (unit mm)*
G04 Created by KiCad*
%MOMM*%
%LPD*%
G04 APERTURE LIST*
%ADD10C,0.100000*%
%ADD11C,0.050000*%
G04 APERTURE END LIST*
D10*
X127000Y2857500D02*
X127000Y-63500D01*
X-1587500Y-127000D02*
G75*
G02X-1651000Y-63500I0J63500D01*
G01*
X-1651000Y2857500D02*
G75*
G02X-1587500Y2921000I63500J0D01*
G01*
X63500Y2921000D02*
G75*
G02X127000Y2857500I0J-63500D01*
G01*
X127000Y-63500D02*
G75*
G02X63500Y-127000I-63500J0D01*
G01*
X-1587500Y2921000D02*
X63500Y2921000D01*
X-1651000Y-63500D02*
X-1651000Y2857500D01*
X63500Y-127000D02*
X-1587500Y-127000D01*
D11*
X150000Y-150000D02*
X-1680000Y-150000D01*
X150000Y-150000D02*
X150000Y2930000D01*
X-1680000Y2930000D02*
X-1680000Y-150000D01*
X-1680000Y2930000D02*
X150000Y2930000D01*
X-999500Y1748500D02*
X-999500Y1934500D01*
X-905500Y1748500D02*
X-999500Y1748500D01*
X-905500Y1934500D02*
X-905500Y1748500D01*
X-999500Y1934500D02*
X-905500Y1934500D01*
X-1145000Y2159000D02*
G75*
G03X-1145000Y2159000I-125000J0D01*
G01*
X-152500Y2161000D02*
X-482500Y2161000D01*
X-152500Y2161000D02*
X-152500Y2411000D01*
X-482500Y2411000D02*
X-482500Y2161000D01*
X-482500Y2411000D02*
X-152500Y2411000D01*
X-379000Y292200D02*
X-379000Y622200D01*
X-379000Y292200D02*
X-129000Y292200D01*
X-129000Y622200D02*
X-379000Y622200D01*
X-129000Y622200D02*
X-129000Y292200D01*
X-1126500Y2066000D02*
X-1126500Y2252000D01*
X-1032500Y2066000D02*
X-1126500Y2066000D01*
X-1032500Y2252000D02*
X-1032500Y2066000D01*
X-1126500Y2252000D02*
X-1032500Y2252000D01*
X-1032500Y2506000D02*
X-1032500Y2320000D01*
X-1126500Y2506000D02*
X-1032500Y2506000D01*
X-1126500Y2320000D02*
X-1126500Y2506000D01*
X-1032500Y2320000D02*
X-1126500Y2320000D01*
X-275300Y2048500D02*
X-461300Y2048500D01*
X-275300Y2142500D02*
X-275300Y2048500D01*
X-461300Y2142500D02*
X-275300Y2142500D01*
X-461300Y2048500D02*
X-461300Y2142500D01*
X-1177300Y552500D02*
X-1083300Y552500D01*
X-1083300Y552500D02*
X-1083300Y366500D01*
X-1083300Y366500D02*
X-1177300Y366500D01*
X-1177300Y366500D02*
X-1177300Y552500D01*
X-482500Y2030000D02*
X-152500Y2030000D01*
X-482500Y2030000D02*
X-482500Y1780000D01*
X-152500Y1780000D02*
X-152500Y2030000D01*
X-152500Y1780000D02*
X-482500Y1780000D01*
X-357600Y2868200D02*
X-357600Y2618200D01*
X-357600Y2868200D02*
X-607600Y2868200D01*
X-607600Y2618200D02*
X-357600Y2618200D01*
X-607600Y2618200D02*
X-607600Y2868200D01*
X-954500Y2605500D02*
X-1204500Y2605500D01*
X-954500Y2605500D02*
X-954500Y2855500D01*
X-1204500Y2855500D02*
X-1204500Y2605500D01*
X-1204500Y2855500D02*
X-954500Y2855500D01*
X-1159500Y2506000D02*
X-1159500Y2320000D01*
X-1253500Y2506000D02*
X-1159500Y2506000D01*
X-1253500Y2320000D02*
X-1253500Y2506000D01*
X-1159500Y2320000D02*
X-1253500Y2320000D01*
X-872500Y1748500D02*
X-872500Y1934500D01*
X-778500Y1748500D02*
X-872500Y1748500D01*
X-778500Y1934500D02*
X-778500Y1748500D01*
X-872500Y1934500D02*
X-778500Y1934500D01*
X-745500Y1748500D02*
X-745500Y1934500D01*
X-651500Y1748500D02*
X-745500Y1748500D01*
X-651500Y1934500D02*
X-651500Y1748500D01*
X-745500Y1934500D02*
X-651500Y1934500D01*
X-967000Y2427500D02*
X-557000Y2427500D01*
X-967000Y2017500D02*
X-967000Y2427500D01*
X-557000Y2017500D02*
X-967000Y2017500D01*
X-557000Y2427500D02*
X-557000Y2017500D01*
X-379000Y-114200D02*
X-379000Y215800D01*
X-379000Y-114200D02*
X-129000Y-114200D01*
X-129000Y215800D02*
X-379000Y215800D01*
X-129000Y215800D02*
X-129000Y-114200D01*
X-862000Y265500D02*
X-662000Y265500D01*
X-862000Y195500D02*
X-862000Y265500D01*
X-942000Y-144500D02*
X-942000Y-164500D01*
X-1012000Y-144500D02*
X-942000Y-144500D01*
X-942000Y-164500D02*
X-582000Y-164500D01*
X-942000Y195500D02*
X-942000Y175500D01*
X-1012000Y175500D02*
X-942000Y175500D01*
X-1012000Y-144500D02*
X-1012000Y175500D01*
X-582000Y-144500D02*
X-582000Y-164500D01*
X-582000Y-144500D02*
X-512000Y-144500D01*
X-662000Y195500D02*
X-582000Y195500D01*
X-512000Y-144500D02*
X-512000Y175500D01*
X-582000Y175500D02*
X-512000Y175500D01*
X-582000Y195500D02*
X-582000Y175500D01*
X-942000Y195500D02*
X-862000Y195500D01*
X-662000Y195500D02*
X-662000Y265500D01*
X-1126500Y1748500D02*
X-1126500Y1934500D01*
X-1032500Y1748500D02*
X-1126500Y1748500D01*
X-1032500Y1934500D02*
X-1032500Y1748500D01*
X-1126500Y1934500D02*
X-1032500Y1934500D01*
X-1197000Y1989500D02*
X-1197000Y1693500D01*
X-1343000Y1989500D02*
X-1197000Y1989500D01*
X-1343000Y1693500D02*
X-1343000Y1989500D01*
X-1197000Y1693500D02*
X-1343000Y1693500D01*
X-1406500Y281250D02*
X-1406500Y577250D01*
X-1260500Y281250D02*
X-1406500Y281250D01*
X-1260500Y577250D02*
X-1260500Y281250D01*
X-1406500Y577250D02*
X-1260500Y577250D01*
X-1045500Y461000D02*
X-1045500Y555000D01*
X-1045500Y555000D02*
X-859500Y555000D01*
X-859500Y555000D02*
X-859500Y461000D01*
X-859500Y461000D02*
X-1045500Y461000D01*
X-1045500Y334000D02*
X-1045500Y428000D01*
X-1045500Y428000D02*
X-859500Y428000D01*
X-859500Y428000D02*
X-859500Y334000D01*
X-859500Y334000D02*
X-1045500Y334000D01*
X-715000Y537500D02*
X-715000Y351500D01*
X-809000Y537500D02*
X-715000Y537500D01*
X-809000Y351500D02*
X-809000Y537500D01*
X-715000Y351500D02*
X-809000Y351500D01*
X-478500Y334000D02*
X-664500Y334000D01*
X-478500Y428000D02*
X-478500Y334000D01*
X-664500Y428000D02*
X-478500Y428000D01*
X-664500Y334000D02*
X-664500Y428000D01*
X-478500Y461000D02*
X-664500Y461000D01*
X-478500Y555000D02*
X-478500Y461000D01*
X-664500Y555000D02*
X-478500Y555000D01*
X-664500Y461000D02*
X-664500Y555000D01*
X-312000Y-236500D02*
X-362000Y-236500D01*
X-312000Y-1148500D02*
X-312000Y-236500D01*
X-1212000Y-236500D02*
X-1162000Y-236500D01*
X-1212000Y-1148500D02*
X-1212000Y-236500D01*
X-1162000Y323500D02*
X-362000Y323500D01*
X-1162000Y-236500D02*
X-1162000Y323500D01*
X-312000Y-1148500D02*
X-1212000Y-1148500D01*
X-362000Y-236500D02*
X-362000Y323500D01*
X-1352000Y1673000D02*
X-1352000Y613000D01*
X-1352000Y613000D02*
X-172000Y613000D01*
X-172000Y1673000D02*
X-172000Y613000D01*
X-1352000Y1673000D02*
X-172000Y1673000D01*
M02*
