%TF.GenerationSoftware,KiCad,Pcbnew,5.1.9+dfsg1-1~bpo10+1*%
%TF.CreationDate,Date%
%TF.ProjectId,POS,504f532e-6b69-4636-9164-5f7063625858,v3.4*%
%TF.SameCoordinates,Original*%
%TF.FileFunction,Copper,L1,Top*%
%TF.FilePolarity,Positive*%
%FSLAX46Y46*%
G04 Gerber Fmt 4.6, Leading zero omitted, Abs format (unit mm)*
G04 Created by KiCad*
%MOMM*%
%LPD*%
G01*
G04 APERTURE LIST*
%TA.AperFunction,EtchedComponent*%
%ADD10C,0.100000*%
%TD*%
%TA.AperFunction,ComponentPad*%
%ADD11R,2.100000X2.100000*%
%TD*%
%TA.AperFunction,ComponentPad*%
%ADD12C,2.100000*%
%TD*%
%TA.AperFunction,ComponentPad*%
%ADD13C,0.600000*%
%TD*%
%TA.AperFunction,SMDPad,CuDef*%
%ADD14R,1.060000X0.650000*%
%TD*%
%TA.AperFunction,SMDPad,CuDef*%
%ADD15C,0.100000*%
%TD*%
%TA.AperFunction,SMDPad,CuDef*%
%ADD16R,1.500000X1.500000*%
%TD*%
%TA.AperFunction,SMDPad,CuDef*%
%ADD17R,2.200000X1.050000*%
%TD*%
%TA.AperFunction,SMDPad,CuDef*%
%ADD18R,1.050000X1.000000*%
%TD*%
%TA.AperFunction,SMDPad,CuDef*%
%ADD19R,3.600000X1.270000*%
%TD*%
%TA.AperFunction,SMDPad,CuDef*%
%ADD20R,4.200000X1.350000*%
%TD*%
%TA.AperFunction,SMDPad,CuDef*%
%ADD21R,0.700000X1.800000*%
%TD*%
%TA.AperFunction,SMDPad,CuDef*%
%ADD22R,0.800000X1.800000*%
%TD*%
%TA.AperFunction,ViaPad*%
%ADD23C,0.500000*%
%TD*%
%TA.AperFunction,ViaPad*%
%ADD24C,0.450000*%
%TD*%
%TA.AperFunction,Conductor*%
%ADD25C,0.200000*%
%TD*%
%TA.AperFunction,Conductor*%
%ADD26C,0.100000*%
%TD*%
%TA.AperFunction,Conductor*%
%ADD27C,0.400000*%
%TD*%
%TA.AperFunction,Conductor*%
%ADD28C,0.250000*%
%TD*%
%TA.AperFunction,Conductor*%
%ADD29C,0.150000*%
%TD*%
G04 APERTURE END LIST*
D10*
%TO.C,JP3*%
G36*
X4322000Y2240000D02*
G01*
X4822000Y2240000D01*
X4822000Y2840000D01*
X4322000Y2840000D01*
X4322000Y2240000D01*
G37*
%TD*%
%TO.P,R5,2*%
%TO.N,SDA*%
%TA.AperFunction,SMDPad,CuDef*%
G36*
G01*
X18638000Y5331750D02*
X18638000Y5844250D01*
G75*
G02*
X18856750Y6063000I218750J0D01*
G01*
X19294250Y6063000D01*
G75*
G02*
X19513000Y5844250I0J-218750D01*
G01*
X19513000Y5331750D01*
G75*
G02*
X19294250Y5113000I-218750J0D01*
G01*
X18856750Y5113000D01*
G75*
G02*
X18638000Y5331750I0J218750D01*
G01*
G37*
%TD.AperFunction*%
%TO.P,R5,1*%
%TO.N,+3V3*%
%TA.AperFunction,SMDPad,CuDef*%
G36*
G01*
X17063000Y5331750D02*
X17063000Y5844250D01*
G75*
G02*
X17281750Y6063000I218750J0D01*
G01*
X17719250Y6063000D01*
G75*
G02*
X17938000Y5844250I0J-218750D01*
G01*
X17938000Y5331750D01*
G75*
G02*
X17719250Y5113000I-218750J0D01*
G01*
X17281750Y5113000D01*
G75*
G02*
X17063000Y5331750I0J218750D01*
G01*
G37*
%TD.AperFunction*%
%TD*%
%TO.P,R4,2*%
%TO.N,SCL*%
%TA.AperFunction,SMDPad,CuDef*%
G36*
G01*
X18638000Y6855750D02*
X18638000Y7368250D01*
G75*
G02*
X18856750Y7587000I218750J0D01*
G01*
X19294250Y7587000D01*
G75*
G02*
X19513000Y7368250I0J-218750D01*
G01*
X19513000Y6855750D01*
G75*
G02*
X19294250Y6637000I-218750J0D01*
G01*
X18856750Y6637000D01*
G75*
G02*
X18638000Y6855750I0J218750D01*
G01*
G37*
%TD.AperFunction*%
%TO.P,R4,1*%
%TO.N,+3V3*%
%TA.AperFunction,SMDPad,CuDef*%
G36*
G01*
X17063000Y6855750D02*
X17063000Y7368250D01*
G75*
G02*
X17281750Y7587000I218750J0D01*
G01*
X17719250Y7587000D01*
G75*
G02*
X17938000Y7368250I0J-218750D01*
G01*
X17938000Y6855750D01*
G75*
G02*
X17719250Y6637000I-218750J0D01*
G01*
X17281750Y6637000D01*
G75*
G02*
X17063000Y6855750I0J218750D01*
G01*
G37*
%TD.AperFunction*%
%TD*%
%TO.P,R3,2*%
%TO.N,Net-(R3-Pad2)*%
%TA.AperFunction,SMDPad,CuDef*%
G36*
G01*
X17938000Y11940250D02*
X17938000Y11427750D01*
G75*
G02*
X17719250Y11209000I-218750J0D01*
G01*
X17281750Y11209000D01*
G75*
G02*
X17063000Y11427750I0J218750D01*
G01*
X17063000Y11940250D01*
G75*
G02*
X17281750Y12159000I218750J0D01*
G01*
X17719250Y12159000D01*
G75*
G02*
X17938000Y11940250I0J-218750D01*
G01*
G37*
%TD.AperFunction*%
%TO.P,R3,1*%
%TO.N,Net-(D1-Pad2)*%
%TA.AperFunction,SMDPad,CuDef*%
G36*
G01*
X19513000Y11940250D02*
X19513000Y11427750D01*
G75*
G02*
X19294250Y11209000I-218750J0D01*
G01*
X18856750Y11209000D01*
G75*
G02*
X18638000Y11427750I0J218750D01*
G01*
X18638000Y11940250D01*
G75*
G02*
X18856750Y12159000I218750J0D01*
G01*
X19294250Y12159000D01*
G75*
G02*
X19513000Y11940250I0J-218750D01*
G01*
G37*
%TD.AperFunction*%
%TD*%
%TO.P,R2,2*%
%TO.N,Net-(C10-Pad1)*%
%TA.AperFunction,SMDPad,CuDef*%
G36*
G01*
X4922000Y7363750D02*
X4922000Y7876250D01*
G75*
G02*
X5140750Y8095000I218750J0D01*
G01*
X5578250Y8095000D01*
G75*
G02*
X5797000Y7876250I0J-218750D01*
G01*
X5797000Y7363750D01*
G75*
G02*
X5578250Y7145000I-218750J0D01*
G01*
X5140750Y7145000D01*
G75*
G02*
X4922000Y7363750I0J218750D01*
G01*
G37*
%TD.AperFunction*%
%TO.P,R2,1*%
%TO.N,Net-(C11-Pad1)*%
%TA.AperFunction,SMDPad,CuDef*%
G36*
G01*
X3347000Y7363750D02*
X3347000Y7876250D01*
G75*
G02*
X3565750Y8095000I218750J0D01*
G01*
X4003250Y8095000D01*
G75*
G02*
X4222000Y7876250I0J-218750D01*
G01*
X4222000Y7363750D01*
G75*
G02*
X4003250Y7145000I-218750J0D01*
G01*
X3565750Y7145000D01*
G75*
G02*
X3347000Y7363750I0J218750D01*
G01*
G37*
%TD.AperFunction*%
%TD*%
%TO.P,R1,2*%
%TO.N,Net-(R1-Pad2)*%
%TA.AperFunction,SMDPad,CuDef*%
G36*
G01*
X5204750Y9429000D02*
X5717250Y9429000D01*
G75*
G02*
X5936000Y9210250I0J-218750D01*
G01*
X5936000Y8772750D01*
G75*
G02*
X5717250Y8554000I-218750J0D01*
G01*
X5204750Y8554000D01*
G75*
G02*
X4986000Y8772750I0J218750D01*
G01*
X4986000Y9210250D01*
G75*
G02*
X5204750Y9429000I218750J0D01*
G01*
G37*
%TD.AperFunction*%
%TO.P,R1,1*%
%TO.N,Net-(L1-Pad1)*%
%TA.AperFunction,SMDPad,CuDef*%
G36*
G01*
X5204750Y11004000D02*
X5717250Y11004000D01*
G75*
G02*
X5936000Y10785250I0J-218750D01*
G01*
X5936000Y10347750D01*
G75*
G02*
X5717250Y10129000I-218750J0D01*
G01*
X5204750Y10129000D01*
G75*
G02*
X4986000Y10347750I0J218750D01*
G01*
X4986000Y10785250D01*
G75*
G02*
X5204750Y11004000I218750J0D01*
G01*
G37*
%TD.AperFunction*%
%TD*%
%TO.P,L1,2*%
%TO.N,Net-(C11-Pad1)*%
%TA.AperFunction,SMDPad,CuDef*%
G36*
G01*
X3680750Y9429000D02*
X4193250Y9429000D01*
G75*
G02*
X4412000Y9210250I0J-218750D01*
G01*
X4412000Y8772750D01*
G75*
G02*
X4193250Y8554000I-218750J0D01*
G01*
X3680750Y8554000D01*
G75*
G02*
X3462000Y8772750I0J218750D01*
G01*
X3462000Y9210250D01*
G75*
G02*
X3680750Y9429000I218750J0D01*
G01*
G37*
%TD.AperFunction*%
%TO.P,L1,1*%
%TO.N,Net-(L1-Pad1)*%
%TA.AperFunction,SMDPad,CuDef*%
G36*
G01*
X3680750Y11004000D02*
X4193250Y11004000D01*
G75*
G02*
X4412000Y10785250I0J-218750D01*
G01*
X4412000Y10347750D01*
G75*
G02*
X4193250Y10129000I-218750J0D01*
G01*
X3680750Y10129000D01*
G75*
G02*
X3462000Y10347750I0J218750D01*
G01*
X3462000Y10785250D01*
G75*
G02*
X3680750Y11004000I218750J0D01*
G01*
G37*
%TD.AperFunction*%
%TD*%
%TO.P,C11,2*%
%TO.N,GND*%
%TA.AperFunction,SMDPad,CuDef*%
G36*
G01*
X3680750Y5111000D02*
X4193250Y5111000D01*
G75*
G02*
X4412000Y4892250I0J-218750D01*
G01*
X4412000Y4454750D01*
G75*
G02*
X4193250Y4236000I-218750J0D01*
G01*
X3680750Y4236000D01*
G75*
G02*
X3462000Y4454750I0J218750D01*
G01*
X3462000Y4892250D01*
G75*
G02*
X3680750Y5111000I218750J0D01*
G01*
G37*
%TD.AperFunction*%
%TO.P,C11,1*%
%TO.N,Net-(C11-Pad1)*%
%TA.AperFunction,SMDPad,CuDef*%
G36*
G01*
X3680750Y6686000D02*
X4193250Y6686000D01*
G75*
G02*
X4412000Y6467250I0J-218750D01*
G01*
X4412000Y6029750D01*
G75*
G02*
X4193250Y5811000I-218750J0D01*
G01*
X3680750Y5811000D01*
G75*
G02*
X3462000Y6029750I0J218750D01*
G01*
X3462000Y6467250D01*
G75*
G02*
X3680750Y6686000I218750J0D01*
G01*
G37*
%TD.AperFunction*%
%TD*%
%TO.P,C10,2*%
%TO.N,GND*%
%TA.AperFunction,SMDPad,CuDef*%
G36*
G01*
X5077750Y5111000D02*
X5590250Y5111000D01*
G75*
G02*
X5809000Y4892250I0J-218750D01*
G01*
X5809000Y4454750D01*
G75*
G02*
X5590250Y4236000I-218750J0D01*
G01*
X5077750Y4236000D01*
G75*
G02*
X4859000Y4454750I0J218750D01*
G01*
X4859000Y4892250D01*
G75*
G02*
X5077750Y5111000I218750J0D01*
G01*
G37*
%TD.AperFunction*%
%TO.P,C10,1*%
%TO.N,Net-(C10-Pad1)*%
%TA.AperFunction,SMDPad,CuDef*%
G36*
G01*
X5077750Y6686000D02*
X5590250Y6686000D01*
G75*
G02*
X5809000Y6467250I0J-218750D01*
G01*
X5809000Y6029750D01*
G75*
G02*
X5590250Y5811000I-218750J0D01*
G01*
X5077750Y5811000D01*
G75*
G02*
X4859000Y6029750I0J218750D01*
G01*
X4859000Y6467250D01*
G75*
G02*
X5077750Y6686000I218750J0D01*
G01*
G37*
%TD.AperFunction*%
%TD*%
%TO.P,C9,2*%
%TO.N,GND*%
%TA.AperFunction,SMDPad,CuDef*%
G36*
G01*
X4245000Y12321250D02*
X4245000Y11808750D01*
G75*
G02*
X4026250Y11590000I-218750J0D01*
G01*
X3588750Y11590000D01*
G75*
G02*
X3370000Y11808750I0J218750D01*
G01*
X3370000Y12321250D01*
G75*
G02*
X3588750Y12540000I218750J0D01*
G01*
X4026250Y12540000D01*
G75*
G02*
X4245000Y12321250I0J-218750D01*
G01*
G37*
%TD.AperFunction*%
%TO.P,C9,1*%
%TO.N,+3V3*%
%TA.AperFunction,SMDPad,CuDef*%
G36*
G01*
X5820000Y12321250D02*
X5820000Y11808750D01*
G75*
G02*
X5601250Y11590000I-218750J0D01*
G01*
X5163750Y11590000D01*
G75*
G02*
X4945000Y11808750I0J218750D01*
G01*
X4945000Y12321250D01*
G75*
G02*
X5163750Y12540000I218750J0D01*
G01*
X5601250Y12540000D01*
G75*
G02*
X5820000Y12321250I0J-218750D01*
G01*
G37*
%TD.AperFunction*%
%TD*%
%TO.P,C7,2*%
%TO.N,GND*%
%TA.AperFunction,SMDPad,CuDef*%
G36*
G01*
X21240000Y10924250D02*
X21240000Y10411750D01*
G75*
G02*
X21021250Y10193000I-218750J0D01*
G01*
X20583750Y10193000D01*
G75*
G02*
X20365000Y10411750I0J218750D01*
G01*
X20365000Y10924250D01*
G75*
G02*
X20583750Y11143000I218750J0D01*
G01*
X21021250Y11143000D01*
G75*
G02*
X21240000Y10924250I0J-218750D01*
G01*
G37*
%TD.AperFunction*%
%TO.P,C7,1*%
%TO.N,+3V3*%
%TA.AperFunction,SMDPad,CuDef*%
G36*
G01*
X22815000Y10924250D02*
X22815000Y10411750D01*
G75*
G02*
X22596250Y10193000I-218750J0D01*
G01*
X22158750Y10193000D01*
G75*
G02*
X21940000Y10411750I0J218750D01*
G01*
X21940000Y10924250D01*
G75*
G02*
X22158750Y11143000I218750J0D01*
G01*
X22596250Y11143000D01*
G75*
G02*
X22815000Y10924250I0J-218750D01*
G01*
G37*
%TD.AperFunction*%
%TD*%
%TO.P,C6,2*%
%TO.N,GND*%
%TA.AperFunction,SMDPad,CuDef*%
G36*
G01*
X17938000Y10416250D02*
X17938000Y9903750D01*
G75*
G02*
X17719250Y9685000I-218750J0D01*
G01*
X17281750Y9685000D01*
G75*
G02*
X17063000Y9903750I0J218750D01*
G01*
X17063000Y10416250D01*
G75*
G02*
X17281750Y10635000I218750J0D01*
G01*
X17719250Y10635000D01*
G75*
G02*
X17938000Y10416250I0J-218750D01*
G01*
G37*
%TD.AperFunction*%
%TO.P,C6,1*%
%TO.N,+3V3*%
%TA.AperFunction,SMDPad,CuDef*%
G36*
G01*
X19513000Y10416250D02*
X19513000Y9903750D01*
G75*
G02*
X19294250Y9685000I-218750J0D01*
G01*
X18856750Y9685000D01*
G75*
G02*
X18638000Y9903750I0J218750D01*
G01*
X18638000Y10416250D01*
G75*
G02*
X18856750Y10635000I218750J0D01*
G01*
X19294250Y10635000D01*
G75*
G02*
X19513000Y10416250I0J-218750D01*
G01*
G37*
%TD.AperFunction*%
%TD*%
%TO.P,C5,2*%
%TO.N,GND*%
%TA.AperFunction,SMDPad,CuDef*%
G36*
G01*
X24513250Y11526000D02*
X24000750Y11526000D01*
G75*
G02*
X23782000Y11744750I0J218750D01*
G01*
X23782000Y12182250D01*
G75*
G02*
X24000750Y12401000I218750J0D01*
G01*
X24513250Y12401000D01*
G75*
G02*
X24732000Y12182250I0J-218750D01*
G01*
X24732000Y11744750D01*
G75*
G02*
X24513250Y11526000I-218750J0D01*
G01*
G37*
%TD.AperFunction*%
%TO.P,C5,1*%
%TO.N,Net-(C5-Pad1)*%
%TA.AperFunction,SMDPad,CuDef*%
G36*
G01*
X24513250Y9951000D02*
X24000750Y9951000D01*
G75*
G02*
X23782000Y10169750I0J218750D01*
G01*
X23782000Y10607250D01*
G75*
G02*
X24000750Y10826000I218750J0D01*
G01*
X24513250Y10826000D01*
G75*
G02*
X24732000Y10607250I0J-218750D01*
G01*
X24732000Y10169750D01*
G75*
G02*
X24513250Y9951000I-218750J0D01*
G01*
G37*
%TD.AperFunction*%
%TD*%
%TO.P,C3,2*%
%TO.N,GND*%
%TA.AperFunction,SMDPad,CuDef*%
G36*
G01*
X27020000Y2283750D02*
X27020000Y2796250D01*
G75*
G02*
X27238750Y3015000I218750J0D01*
G01*
X27676250Y3015000D01*
G75*
G02*
X27895000Y2796250I0J-218750D01*
G01*
X27895000Y2283750D01*
G75*
G02*
X27676250Y2065000I-218750J0D01*
G01*
X27238750Y2065000D01*
G75*
G02*
X27020000Y2283750I0J218750D01*
G01*
G37*
%TD.AperFunction*%
%TO.P,C3,1*%
%TO.N,+1V8*%
%TA.AperFunction,SMDPad,CuDef*%
G36*
G01*
X25445000Y2283750D02*
X25445000Y2796250D01*
G75*
G02*
X25663750Y3015000I218750J0D01*
G01*
X26101250Y3015000D01*
G75*
G02*
X26320000Y2796250I0J-218750D01*
G01*
X26320000Y2283750D01*
G75*
G02*
X26101250Y2065000I-218750J0D01*
G01*
X25663750Y2065000D01*
G75*
G02*
X25445000Y2283750I0J218750D01*
G01*
G37*
%TD.AperFunction*%
%TD*%
%TO.P,C2,2*%
%TO.N,GND*%
%TA.AperFunction,SMDPad,CuDef*%
G36*
G01*
X17938000Y8892250D02*
X17938000Y8379750D01*
G75*
G02*
X17719250Y8161000I-218750J0D01*
G01*
X17281750Y8161000D01*
G75*
G02*
X17063000Y8379750I0J218750D01*
G01*
X17063000Y8892250D01*
G75*
G02*
X17281750Y9111000I218750J0D01*
G01*
X17719250Y9111000D01*
G75*
G02*
X17938000Y8892250I0J-218750D01*
G01*
G37*
%TD.AperFunction*%
%TO.P,C2,1*%
%TO.N,+3V3*%
%TA.AperFunction,SMDPad,CuDef*%
G36*
G01*
X19513000Y8892250D02*
X19513000Y8379750D01*
G75*
G02*
X19294250Y8161000I-218750J0D01*
G01*
X18856750Y8161000D01*
G75*
G02*
X18638000Y8379750I0J218750D01*
G01*
X18638000Y8892250D01*
G75*
G02*
X18856750Y9111000I218750J0D01*
G01*
X19294250Y9111000D01*
G75*
G02*
X19513000Y8892250I0J-218750D01*
G01*
G37*
%TD.AperFunction*%
%TD*%
D11*
%TO.P,A1,1*%
%TO.N,RXD*%
X0Y0D03*
D12*
%TO.P,A1,2*%
%TO.N,TXD*%
X2540000Y0D03*
%TO.P,A1,3*%
%TO.N,GND*%
X5080000Y0D03*
%TO.P,A1,13*%
%TO.N,Net-(A1-Pad13)*%
X27940000Y15240000D03*
%TO.P,A1,4*%
%TO.N,GND*%
X7620000Y0D03*
%TO.P,A1,14*%
%TO.N,Net-(A1-Pad14)*%
X25400000Y15240000D03*
%TO.P,A1,5*%
%TO.N,SDA*%
X10160000Y0D03*
%TO.P,A1,15*%
%TO.N,Net-(A1-Pad15)*%
X22860000Y15240000D03*
%TO.P,A1,6*%
%TO.N,SCL*%
X12700000Y0D03*
%TO.P,A1,16*%
%TO.N,Net-(A1-Pad16)*%
X20320000Y15240000D03*
%TO.P,A1,7*%
%TO.N,Net-(A1-Pad7)*%
X15240000Y0D03*
%TO.P,A1,17*%
%TO.N,Net-(A1-Pad17)*%
X17780000Y15240000D03*
%TO.P,A1,8*%
%TO.N,PWM*%
X17780000Y0D03*
%TO.P,A1,18*%
%TO.N,Net-(A1-Pad18)*%
X15240000Y15240000D03*
%TO.P,A1,9*%
%TO.N,Net-(A1-Pad9)*%
X20320000Y0D03*
%TO.P,A1,19*%
%TO.N,Net-(A1-Pad19)*%
X12700000Y15240000D03*
%TO.P,A1,10*%
%TO.N,INT*%
X22860000Y0D03*
%TO.P,A1,20*%
%TO.N,Net-(A1-Pad20)*%
X10160000Y15240000D03*
%TO.P,A1,11*%
%TO.N,Net-(A1-Pad11)*%
X25400000Y0D03*
%TO.P,A1,21*%
%TO.N,+3V3*%
X7620000Y15240000D03*
%TO.P,A1,12*%
%TO.N,Net-(A1-Pad12)*%
X27940000Y0D03*
%TO.P,A1,22*%
%TO.N,~RST*%
X5080000Y15240000D03*
%TO.P,A1,23*%
%TO.N,GND*%
X2540000Y15240000D03*
%TO.P,A1,24*%
%TO.N,+5V*%
X0Y15240000D03*
%TD*%
D13*
%TO.P,H2,*%
%TO.N,*%
X27305000Y7620000D03*
%TD*%
D14*
%TO.P,U2,5*%
%TO.N,+1V8*%
X23833000Y4064000D03*
%TO.P,U2,4*%
%TO.N,Net-(U2-Pad4)*%
X23833000Y2164000D03*
%TO.P,U2,3*%
%TO.N,+3V3*%
X21633000Y2164000D03*
%TO.P,U2,2*%
%TO.N,GND*%
X21633000Y3114000D03*
%TO.P,U2,1*%
%TO.N,+3V3*%
X21633000Y4064000D03*
%TD*%
D12*
%TO.P,TP4,1*%
%TO.N,Net-(TP4-Pad1)*%
X21590000Y12700000D03*
%TD*%
%TA.AperFunction,SMDPad,CuDef*%
D15*
%TO.P,JP1,2*%
%TO.N,INT*%
G36*
X27320000Y13703398D02*
G01*
X27344534Y13703398D01*
X27393365Y13698588D01*
X27441490Y13689016D01*
X27488445Y13674772D01*
X27533778Y13655995D01*
X27577051Y13632864D01*
X27617850Y13605604D01*
X27655779Y13574476D01*
X27690476Y13539779D01*
X27721604Y13501850D01*
X27748864Y13461051D01*
X27771995Y13417778D01*
X27790772Y13372445D01*
X27805016Y13325490D01*
X27814588Y13277365D01*
X27819398Y13228534D01*
X27819398Y13204000D01*
X27820000Y13204000D01*
X27820000Y12704000D01*
X27819398Y12704000D01*
X27819398Y12679466D01*
X27814588Y12630635D01*
X27805016Y12582510D01*
X27790772Y12535555D01*
X27771995Y12490222D01*
X27748864Y12446949D01*
X27721604Y12406150D01*
X27690476Y12368221D01*
X27655779Y12333524D01*
X27617850Y12302396D01*
X27577051Y12275136D01*
X27533778Y12252005D01*
X27488445Y12233228D01*
X27441490Y12218984D01*
X27393365Y12209412D01*
X27344534Y12204602D01*
X27320000Y12204602D01*
X27320000Y12204000D01*
X26820000Y12204000D01*
X26820000Y13704000D01*
X27320000Y13704000D01*
X27320000Y13703398D01*
G37*
%TD.AperFunction*%
%TA.AperFunction,SMDPad,CuDef*%
%TO.P,JP1,1*%
%TO.N,Net-(JP1-Pad1)*%
G36*
X26520000Y12204000D02*
G01*
X26020000Y12204000D01*
X26020000Y12204602D01*
X25995466Y12204602D01*
X25946635Y12209412D01*
X25898510Y12218984D01*
X25851555Y12233228D01*
X25806222Y12252005D01*
X25762949Y12275136D01*
X25722150Y12302396D01*
X25684221Y12333524D01*
X25649524Y12368221D01*
X25618396Y12406150D01*
X25591136Y12446949D01*
X25568005Y12490222D01*
X25549228Y12535555D01*
X25534984Y12582510D01*
X25525412Y12630635D01*
X25520602Y12679466D01*
X25520602Y12704000D01*
X25520000Y12704000D01*
X25520000Y13204000D01*
X25520602Y13204000D01*
X25520602Y13228534D01*
X25525412Y13277365D01*
X25534984Y13325490D01*
X25549228Y13372445D01*
X25568005Y13417778D01*
X25591136Y13461051D01*
X25618396Y13501850D01*
X25649524Y13539779D01*
X25684221Y13574476D01*
X25722150Y13605604D01*
X25762949Y13632864D01*
X25806222Y13655995D01*
X25851555Y13674772D01*
X25898510Y13689016D01*
X25946635Y13698588D01*
X25995466Y13703398D01*
X26020000Y13703398D01*
X26020000Y13704000D01*
X26520000Y13704000D01*
X26520000Y12204000D01*
G37*
%TD.AperFunction*%
%TD*%
%TA.AperFunction,SMDPad,CuDef*%
%TO.P,JP3,1*%
%TO.N,Net-(JP3-Pad1)*%
G36*
X4722000Y3290000D02*
G01*
X5222000Y3290000D01*
X5222000Y3289398D01*
X5246534Y3289398D01*
X5295365Y3284588D01*
X5343490Y3275016D01*
X5390445Y3260772D01*
X5435778Y3241995D01*
X5479051Y3218864D01*
X5519850Y3191604D01*
X5557779Y3160476D01*
X5592476Y3125779D01*
X5623604Y3087850D01*
X5650864Y3047051D01*
X5673995Y3003778D01*
X5692772Y2958445D01*
X5707016Y2911490D01*
X5716588Y2863365D01*
X5721398Y2814534D01*
X5721398Y2790000D01*
X5722000Y2790000D01*
X5722000Y2290000D01*
X5721398Y2290000D01*
X5721398Y2265466D01*
X5716588Y2216635D01*
X5707016Y2168510D01*
X5692772Y2121555D01*
X5673995Y2076222D01*
X5650864Y2032949D01*
X5623604Y1992150D01*
X5592476Y1954221D01*
X5557779Y1919524D01*
X5519850Y1888396D01*
X5479051Y1861136D01*
X5435778Y1838005D01*
X5390445Y1819228D01*
X5343490Y1804984D01*
X5295365Y1795412D01*
X5246534Y1790602D01*
X5222000Y1790602D01*
X5222000Y1790000D01*
X4722000Y1790000D01*
X4722000Y3290000D01*
G37*
%TD.AperFunction*%
%TA.AperFunction,SMDPad,CuDef*%
%TO.P,JP3,2*%
%TO.N,TXD*%
G36*
X3922000Y1790602D02*
G01*
X3897466Y1790602D01*
X3848635Y1795412D01*
X3800510Y1804984D01*
X3753555Y1819228D01*
X3708222Y1838005D01*
X3664949Y1861136D01*
X3624150Y1888396D01*
X3586221Y1919524D01*
X3551524Y1954221D01*
X3520396Y1992150D01*
X3493136Y2032949D01*
X3470005Y2076222D01*
X3451228Y2121555D01*
X3436984Y2168510D01*
X3427412Y2216635D01*
X3422602Y2265466D01*
X3422602Y2290000D01*
X3422000Y2290000D01*
X3422000Y2790000D01*
X3422602Y2790000D01*
X3422602Y2814534D01*
X3427412Y2863365D01*
X3436984Y2911490D01*
X3451228Y2958445D01*
X3470005Y3003778D01*
X3493136Y3047051D01*
X3520396Y3087850D01*
X3551524Y3125779D01*
X3586221Y3160476D01*
X3624150Y3191604D01*
X3664949Y3218864D01*
X3708222Y3241995D01*
X3753555Y3260772D01*
X3800510Y3275016D01*
X3848635Y3284588D01*
X3897466Y3289398D01*
X3922000Y3289398D01*
X3922000Y3290000D01*
X4422000Y3290000D01*
X4422000Y1790000D01*
X3922000Y1790000D01*
X3922000Y1790602D01*
G37*
%TD.AperFunction*%
%TD*%
%TA.AperFunction,SMDPad,CuDef*%
%TO.P,JP4,2*%
%TO.N,Net-(JP4-Pad2)*%
G36*
X17157602Y3825000D02*
G01*
X17157602Y3849534D01*
X17162412Y3898365D01*
X17171984Y3946490D01*
X17186228Y3993445D01*
X17205005Y4038778D01*
X17228136Y4082051D01*
X17255396Y4122850D01*
X17286524Y4160779D01*
X17321221Y4195476D01*
X17359150Y4226604D01*
X17399949Y4253864D01*
X17443222Y4276995D01*
X17488555Y4295772D01*
X17535510Y4310016D01*
X17583635Y4319588D01*
X17632466Y4324398D01*
X17657000Y4324398D01*
X17657000Y4325000D01*
X18157000Y4325000D01*
X18157000Y4324398D01*
X18181534Y4324398D01*
X18230365Y4319588D01*
X18278490Y4310016D01*
X18325445Y4295772D01*
X18370778Y4276995D01*
X18414051Y4253864D01*
X18454850Y4226604D01*
X18492779Y4195476D01*
X18527476Y4160779D01*
X18558604Y4122850D01*
X18585864Y4082051D01*
X18608995Y4038778D01*
X18627772Y3993445D01*
X18642016Y3946490D01*
X18651588Y3898365D01*
X18656398Y3849534D01*
X18656398Y3825000D01*
X18657000Y3825000D01*
X18657000Y3325000D01*
X17157000Y3325000D01*
X17157000Y3825000D01*
X17157602Y3825000D01*
G37*
%TD.AperFunction*%
%TA.AperFunction,SMDPad,CuDef*%
%TO.P,JP4,1*%
%TO.N,PWM*%
G36*
X18657000Y3025000D02*
G01*
X18657000Y2525000D01*
X18656398Y2525000D01*
X18656398Y2500466D01*
X18651588Y2451635D01*
X18642016Y2403510D01*
X18627772Y2356555D01*
X18608995Y2311222D01*
X18585864Y2267949D01*
X18558604Y2227150D01*
X18527476Y2189221D01*
X18492779Y2154524D01*
X18454850Y2123396D01*
X18414051Y2096136D01*
X18370778Y2073005D01*
X18325445Y2054228D01*
X18278490Y2039984D01*
X18230365Y2030412D01*
X18181534Y2025602D01*
X18157000Y2025602D01*
X18157000Y2025000D01*
X17657000Y2025000D01*
X17657000Y2025602D01*
X17632466Y2025602D01*
X17583635Y2030412D01*
X17535510Y2039984D01*
X17488555Y2054228D01*
X17443222Y2073005D01*
X17399949Y2096136D01*
X17359150Y2123396D01*
X17321221Y2154524D01*
X17286524Y2189221D01*
X17255396Y2227150D01*
X17228136Y2267949D01*
X17205005Y2311222D01*
X17186228Y2356555D01*
X17171984Y2403510D01*
X17162412Y2451635D01*
X17157602Y2500466D01*
X17157602Y2525000D01*
X17157000Y2525000D01*
X17157000Y3025000D01*
X18657000Y3025000D01*
G37*
%TD.AperFunction*%
%TD*%
D16*
%TO.P,TP6,1*%
%TO.N,GND*%
X27432000Y4826000D03*
%TD*%
%TO.P,TP5,1*%
%TO.N,GND*%
X27305000Y10795000D03*
%TD*%
%TO.P,U1,1*%
%TO.N,+3V3*%
%TA.AperFunction,SMDPad,CuDef*%
G36*
G01*
X21148000Y5845000D02*
X21048000Y5845000D01*
G75*
G02*
X20998000Y5895000I0J50000D01*
G01*
X20998000Y6345000D01*
G75*
G02*
X21048000Y6395000I50000J0D01*
G01*
X21148000Y6395000D01*
G75*
G02*
X21198000Y6345000I0J-50000D01*
G01*
X21198000Y5895000D01*
G75*
G02*
X21148000Y5845000I-50000J0D01*
G01*
G37*
%TD.AperFunction*%
%TO.P,U1,2*%
%TO.N,N/C*%
%TA.AperFunction,SMDPad,CuDef*%
G36*
G01*
X21548000Y5845000D02*
X21448000Y5845000D01*
G75*
G02*
X21398000Y5895000I0J50000D01*
G01*
X21398000Y6345000D01*
G75*
G02*
X21448000Y6395000I50000J0D01*
G01*
X21548000Y6395000D01*
G75*
G02*
X21598000Y6345000I0J-50000D01*
G01*
X21598000Y5895000D01*
G75*
G02*
X21548000Y5845000I-50000J0D01*
G01*
G37*
%TD.AperFunction*%
%TO.P,U1,3*%
%TA.AperFunction,SMDPad,CuDef*%
G36*
G01*
X21948000Y5845000D02*
X21848000Y5845000D01*
G75*
G02*
X21798000Y5895000I0J50000D01*
G01*
X21798000Y6345000D01*
G75*
G02*
X21848000Y6395000I50000J0D01*
G01*
X21948000Y6395000D01*
G75*
G02*
X21998000Y6345000I0J-50000D01*
G01*
X21998000Y5895000D01*
G75*
G02*
X21948000Y5845000I-50000J0D01*
G01*
G37*
%TD.AperFunction*%
%TO.P,U1,4*%
%TA.AperFunction,SMDPad,CuDef*%
G36*
G01*
X22348000Y5845000D02*
X22248000Y5845000D01*
G75*
G02*
X22198000Y5895000I0J50000D01*
G01*
X22198000Y6345000D01*
G75*
G02*
X22248000Y6395000I50000J0D01*
G01*
X22348000Y6395000D01*
G75*
G02*
X22398000Y6345000I0J-50000D01*
G01*
X22398000Y5895000D01*
G75*
G02*
X22348000Y5845000I-50000J0D01*
G01*
G37*
%TD.AperFunction*%
%TO.P,U1,5*%
%TA.AperFunction,SMDPad,CuDef*%
G36*
G01*
X22748000Y5845000D02*
X22648000Y5845000D01*
G75*
G02*
X22598000Y5895000I0J50000D01*
G01*
X22598000Y6345000D01*
G75*
G02*
X22648000Y6395000I50000J0D01*
G01*
X22748000Y6395000D01*
G75*
G02*
X22798000Y6345000I0J-50000D01*
G01*
X22798000Y5895000D01*
G75*
G02*
X22748000Y5845000I-50000J0D01*
G01*
G37*
%TD.AperFunction*%
%TO.P,U1,6*%
%TA.AperFunction,SMDPad,CuDef*%
G36*
G01*
X23148000Y5845000D02*
X23048000Y5845000D01*
G75*
G02*
X22998000Y5895000I0J50000D01*
G01*
X22998000Y6345000D01*
G75*
G02*
X23048000Y6395000I50000J0D01*
G01*
X23148000Y6395000D01*
G75*
G02*
X23198000Y6345000I0J-50000D01*
G01*
X23198000Y5895000D01*
G75*
G02*
X23148000Y5845000I-50000J0D01*
G01*
G37*
%TD.AperFunction*%
%TO.P,U1,7*%
%TO.N,Net-(TP2-Pad1)*%
%TA.AperFunction,SMDPad,CuDef*%
G36*
G01*
X23873000Y6670000D02*
X23873000Y6570000D01*
G75*
G02*
X23823000Y6520000I-50000J0D01*
G01*
X23373000Y6520000D01*
G75*
G02*
X23323000Y6570000I0J50000D01*
G01*
X23323000Y6670000D01*
G75*
G02*
X23373000Y6720000I50000J0D01*
G01*
X23823000Y6720000D01*
G75*
G02*
X23873000Y6670000I0J-50000D01*
G01*
G37*
%TD.AperFunction*%
%TO.P,U1,8*%
%TO.N,+1V8*%
%TA.AperFunction,SMDPad,CuDef*%
G36*
G01*
X23873000Y7070000D02*
X23873000Y6970000D01*
G75*
G02*
X23823000Y6920000I-50000J0D01*
G01*
X23373000Y6920000D01*
G75*
G02*
X23323000Y6970000I0J50000D01*
G01*
X23323000Y7070000D01*
G75*
G02*
X23373000Y7120000I50000J0D01*
G01*
X23823000Y7120000D01*
G75*
G02*
X23873000Y7070000I0J-50000D01*
G01*
G37*
%TD.AperFunction*%
%TO.P,U1,9*%
%TO.N,+3V3*%
%TA.AperFunction,SMDPad,CuDef*%
G36*
G01*
X23873000Y7470000D02*
X23873000Y7370000D01*
G75*
G02*
X23823000Y7320000I-50000J0D01*
G01*
X23373000Y7320000D01*
G75*
G02*
X23323000Y7370000I0J50000D01*
G01*
X23323000Y7470000D01*
G75*
G02*
X23373000Y7520000I50000J0D01*
G01*
X23823000Y7520000D01*
G75*
G02*
X23873000Y7470000I0J-50000D01*
G01*
G37*
%TD.AperFunction*%
%TO.P,U1,10*%
%TO.N,Net-(C5-Pad1)*%
%TA.AperFunction,SMDPad,CuDef*%
G36*
G01*
X23873000Y7870000D02*
X23873000Y7770000D01*
G75*
G02*
X23823000Y7720000I-50000J0D01*
G01*
X23373000Y7720000D01*
G75*
G02*
X23323000Y7770000I0J50000D01*
G01*
X23323000Y7870000D01*
G75*
G02*
X23373000Y7920000I50000J0D01*
G01*
X23823000Y7920000D01*
G75*
G02*
X23873000Y7870000I0J-50000D01*
G01*
G37*
%TD.AperFunction*%
%TO.P,U1,11*%
%TO.N,Net-(TP3-Pad1)*%
%TA.AperFunction,SMDPad,CuDef*%
G36*
G01*
X23873000Y8270000D02*
X23873000Y8170000D01*
G75*
G02*
X23823000Y8120000I-50000J0D01*
G01*
X23373000Y8120000D01*
G75*
G02*
X23323000Y8170000I0J50000D01*
G01*
X23323000Y8270000D01*
G75*
G02*
X23373000Y8320000I50000J0D01*
G01*
X23823000Y8320000D01*
G75*
G02*
X23873000Y8270000I0J-50000D01*
G01*
G37*
%TD.AperFunction*%
%TO.P,U1,12*%
%TO.N,Net-(JP1-Pad1)*%
%TA.AperFunction,SMDPad,CuDef*%
G36*
G01*
X23873000Y8670000D02*
X23873000Y8570000D01*
G75*
G02*
X23823000Y8520000I-50000J0D01*
G01*
X23373000Y8520000D01*
G75*
G02*
X23323000Y8570000I0J50000D01*
G01*
X23323000Y8670000D01*
G75*
G02*
X23373000Y8720000I50000J0D01*
G01*
X23823000Y8720000D01*
G75*
G02*
X23873000Y8670000I0J-50000D01*
G01*
G37*
%TD.AperFunction*%
%TO.P,U1,13*%
%TO.N,+3V3*%
%TA.AperFunction,SMDPad,CuDef*%
G36*
G01*
X23148000Y8845000D02*
X23048000Y8845000D01*
G75*
G02*
X22998000Y8895000I0J50000D01*
G01*
X22998000Y9345000D01*
G75*
G02*
X23048000Y9395000I50000J0D01*
G01*
X23148000Y9395000D01*
G75*
G02*
X23198000Y9345000I0J-50000D01*
G01*
X23198000Y8895000D01*
G75*
G02*
X23148000Y8845000I-50000J0D01*
G01*
G37*
%TD.AperFunction*%
%TO.P,U1,14*%
%TO.N,N/C*%
%TA.AperFunction,SMDPad,CuDef*%
G36*
G01*
X22748000Y8845000D02*
X22648000Y8845000D01*
G75*
G02*
X22598000Y8895000I0J50000D01*
G01*
X22598000Y9345000D01*
G75*
G02*
X22648000Y9395000I50000J0D01*
G01*
X22748000Y9395000D01*
G75*
G02*
X22798000Y9345000I0J-50000D01*
G01*
X22798000Y8895000D01*
G75*
G02*
X22748000Y8845000I-50000J0D01*
G01*
G37*
%TD.AperFunction*%
%TO.P,U1,15*%
%TA.AperFunction,SMDPad,CuDef*%
G36*
G01*
X22348000Y8845000D02*
X22248000Y8845000D01*
G75*
G02*
X22198000Y8895000I0J50000D01*
G01*
X22198000Y9345000D01*
G75*
G02*
X22248000Y9395000I50000J0D01*
G01*
X22348000Y9395000D01*
G75*
G02*
X22398000Y9345000I0J-50000D01*
G01*
X22398000Y8895000D01*
G75*
G02*
X22348000Y8845000I-50000J0D01*
G01*
G37*
%TD.AperFunction*%
%TO.P,U1,16*%
%TA.AperFunction,SMDPad,CuDef*%
G36*
G01*
X21948000Y8845000D02*
X21848000Y8845000D01*
G75*
G02*
X21798000Y8895000I0J50000D01*
G01*
X21798000Y9345000D01*
G75*
G02*
X21848000Y9395000I50000J0D01*
G01*
X21948000Y9395000D01*
G75*
G02*
X21998000Y9345000I0J-50000D01*
G01*
X21998000Y8895000D01*
G75*
G02*
X21948000Y8845000I-50000J0D01*
G01*
G37*
%TD.AperFunction*%
%TO.P,U1,17*%
%TA.AperFunction,SMDPad,CuDef*%
G36*
G01*
X21548000Y8845000D02*
X21448000Y8845000D01*
G75*
G02*
X21398000Y8895000I0J50000D01*
G01*
X21398000Y9345000D01*
G75*
G02*
X21448000Y9395000I50000J0D01*
G01*
X21548000Y9395000D01*
G75*
G02*
X21598000Y9345000I0J-50000D01*
G01*
X21598000Y8895000D01*
G75*
G02*
X21548000Y8845000I-50000J0D01*
G01*
G37*
%TD.AperFunction*%
%TO.P,U1,18*%
%TO.N,GND*%
%TA.AperFunction,SMDPad,CuDef*%
G36*
G01*
X21148000Y8845000D02*
X21048000Y8845000D01*
G75*
G02*
X20998000Y8895000I0J50000D01*
G01*
X20998000Y9345000D01*
G75*
G02*
X21048000Y9395000I50000J0D01*
G01*
X21148000Y9395000D01*
G75*
G02*
X21198000Y9345000I0J-50000D01*
G01*
X21198000Y8895000D01*
G75*
G02*
X21148000Y8845000I-50000J0D01*
G01*
G37*
%TD.AperFunction*%
%TO.P,U1,19*%
%TO.N,N/C*%
%TA.AperFunction,SMDPad,CuDef*%
G36*
G01*
X20873000Y8670000D02*
X20873000Y8570000D01*
G75*
G02*
X20823000Y8520000I-50000J0D01*
G01*
X20373000Y8520000D01*
G75*
G02*
X20323000Y8570000I0J50000D01*
G01*
X20323000Y8670000D01*
G75*
G02*
X20373000Y8720000I50000J0D01*
G01*
X20823000Y8720000D01*
G75*
G02*
X20873000Y8670000I0J-50000D01*
G01*
G37*
%TD.AperFunction*%
%TO.P,U1,20*%
%TO.N,GND*%
%TA.AperFunction,SMDPad,CuDef*%
G36*
G01*
X20873000Y8270000D02*
X20873000Y8170000D01*
G75*
G02*
X20823000Y8120000I-50000J0D01*
G01*
X20373000Y8120000D01*
G75*
G02*
X20323000Y8170000I0J50000D01*
G01*
X20323000Y8270000D01*
G75*
G02*
X20373000Y8320000I50000J0D01*
G01*
X20823000Y8320000D01*
G75*
G02*
X20873000Y8270000I0J-50000D01*
G01*
G37*
%TD.AperFunction*%
%TO.P,U1,21*%
%TO.N,Net-(TP1-Pad1)*%
%TA.AperFunction,SMDPad,CuDef*%
G36*
G01*
X20873000Y7870000D02*
X20873000Y7770000D01*
G75*
G02*
X20823000Y7720000I-50000J0D01*
G01*
X20373000Y7720000D01*
G75*
G02*
X20323000Y7770000I0J50000D01*
G01*
X20323000Y7870000D01*
G75*
G02*
X20373000Y7920000I50000J0D01*
G01*
X20823000Y7920000D01*
G75*
G02*
X20873000Y7870000I0J-50000D01*
G01*
G37*
%TD.AperFunction*%
%TO.P,U1,22*%
%TO.N,+3V3*%
%TA.AperFunction,SMDPad,CuDef*%
G36*
G01*
X20873000Y7470000D02*
X20873000Y7370000D01*
G75*
G02*
X20823000Y7320000I-50000J0D01*
G01*
X20373000Y7320000D01*
G75*
G02*
X20323000Y7370000I0J50000D01*
G01*
X20323000Y7470000D01*
G75*
G02*
X20373000Y7520000I50000J0D01*
G01*
X20823000Y7520000D01*
G75*
G02*
X20873000Y7470000I0J-50000D01*
G01*
G37*
%TD.AperFunction*%
%TO.P,U1,23*%
%TO.N,SCL*%
%TA.AperFunction,SMDPad,CuDef*%
G36*
G01*
X20873000Y7070000D02*
X20873000Y6970000D01*
G75*
G02*
X20823000Y6920000I-50000J0D01*
G01*
X20373000Y6920000D01*
G75*
G02*
X20323000Y6970000I0J50000D01*
G01*
X20323000Y7070000D01*
G75*
G02*
X20373000Y7120000I50000J0D01*
G01*
X20823000Y7120000D01*
G75*
G02*
X20873000Y7070000I0J-50000D01*
G01*
G37*
%TD.AperFunction*%
%TO.P,U1,24*%
%TO.N,SDA*%
%TA.AperFunction,SMDPad,CuDef*%
G36*
G01*
X20873000Y6670000D02*
X20873000Y6570000D01*
G75*
G02*
X20823000Y6520000I-50000J0D01*
G01*
X20373000Y6520000D01*
G75*
G02*
X20323000Y6570000I0J50000D01*
G01*
X20323000Y6670000D01*
G75*
G02*
X20373000Y6720000I50000J0D01*
G01*
X20823000Y6720000D01*
G75*
G02*
X20873000Y6670000I0J-50000D01*
G01*
G37*
%TD.AperFunction*%
%TD*%
%TA.AperFunction,SMDPad,CuDef*%
D15*
%TO.P,JP2,2*%
%TO.N,RXD*%
G36*
X-142000Y1790602D02*
G01*
X-166534Y1790602D01*
X-215365Y1795412D01*
X-263490Y1804984D01*
X-310445Y1819228D01*
X-355778Y1838005D01*
X-399051Y1861136D01*
X-439850Y1888396D01*
X-477779Y1919524D01*
X-512476Y1954221D01*
X-543604Y1992150D01*
X-570864Y2032949D01*
X-593995Y2076222D01*
X-612772Y2121555D01*
X-627016Y2168510D01*
X-636588Y2216635D01*
X-641398Y2265466D01*
X-641398Y2290000D01*
X-642000Y2290000D01*
X-642000Y2790000D01*
X-641398Y2790000D01*
X-641398Y2814534D01*
X-636588Y2863365D01*
X-627016Y2911490D01*
X-612772Y2958445D01*
X-593995Y3003778D01*
X-570864Y3047051D01*
X-543604Y3087850D01*
X-512476Y3125779D01*
X-477779Y3160476D01*
X-439850Y3191604D01*
X-399051Y3218864D01*
X-355778Y3241995D01*
X-310445Y3260772D01*
X-263490Y3275016D01*
X-215365Y3284588D01*
X-166534Y3289398D01*
X-142000Y3289398D01*
X-142000Y3290000D01*
X358000Y3290000D01*
X358000Y1790000D01*
X-142000Y1790000D01*
X-142000Y1790602D01*
G37*
%TD.AperFunction*%
%TA.AperFunction,SMDPad,CuDef*%
%TO.P,JP2,1*%
%TO.N,Net-(JP2-Pad1)*%
G36*
X658000Y3290000D02*
G01*
X1158000Y3290000D01*
X1158000Y3289398D01*
X1182534Y3289398D01*
X1231365Y3284588D01*
X1279490Y3275016D01*
X1326445Y3260772D01*
X1371778Y3241995D01*
X1415051Y3218864D01*
X1455850Y3191604D01*
X1493779Y3160476D01*
X1528476Y3125779D01*
X1559604Y3087850D01*
X1586864Y3047051D01*
X1609995Y3003778D01*
X1628772Y2958445D01*
X1643016Y2911490D01*
X1652588Y2863365D01*
X1657398Y2814534D01*
X1657398Y2790000D01*
X1658000Y2790000D01*
X1658000Y2290000D01*
X1657398Y2290000D01*
X1657398Y2265466D01*
X1652588Y2216635D01*
X1643016Y2168510D01*
X1628772Y2121555D01*
X1609995Y2076222D01*
X1586864Y2032949D01*
X1559604Y1992150D01*
X1528476Y1954221D01*
X1493779Y1919524D01*
X1455850Y1888396D01*
X1415051Y1861136D01*
X1371778Y1838005D01*
X1326445Y1819228D01*
X1279490Y1804984D01*
X1231365Y1795412D01*
X1182534Y1790602D01*
X1158000Y1790602D01*
X1158000Y1790000D01*
X658000Y1790000D01*
X658000Y3290000D01*
G37*
%TD.AperFunction*%
%TD*%
D17*
%TO.P,J1,2*%
%TO.N,GND*%
X160000Y6145000D03*
D18*
%TO.P,J1,1*%
%TO.N,Net-(C11-Pad1)*%
X1685000Y7620000D03*
D17*
%TO.P,J1,2*%
%TO.N,GND*%
X160000Y9095000D03*
%TD*%
%TO.P,D1,2*%
%TO.N,Net-(D1-Pad2)*%
%TA.AperFunction,SMDPad,CuDef*%
G36*
G01*
X18638000Y12951750D02*
X18638000Y13464250D01*
G75*
G02*
X18856750Y13683000I218750J0D01*
G01*
X19294250Y13683000D01*
G75*
G02*
X19513000Y13464250I0J-218750D01*
G01*
X19513000Y12951750D01*
G75*
G02*
X19294250Y12733000I-218750J0D01*
G01*
X18856750Y12733000D01*
G75*
G02*
X18638000Y12951750I0J218750D01*
G01*
G37*
%TD.AperFunction*%
%TO.P,D1,1*%
%TO.N,GND*%
%TA.AperFunction,SMDPad,CuDef*%
G36*
G01*
X17063000Y12951750D02*
X17063000Y13464250D01*
G75*
G02*
X17281750Y13683000I218750J0D01*
G01*
X17719250Y13683000D01*
G75*
G02*
X17938000Y13464250I0J-218750D01*
G01*
X17938000Y12951750D01*
G75*
G02*
X17719250Y12733000I-218750J0D01*
G01*
X17281750Y12733000D01*
G75*
G02*
X17063000Y12951750I0J218750D01*
G01*
G37*
%TD.AperFunction*%
%TD*%
%TO.P,C8,2*%
%TO.N,GND*%
%TA.AperFunction,SMDPad,CuDef*%
G36*
G01*
X19682750Y2926500D02*
X20195250Y2926500D01*
G75*
G02*
X20414000Y2707750I0J-218750D01*
G01*
X20414000Y2270250D01*
G75*
G02*
X20195250Y2051500I-218750J0D01*
G01*
X19682750Y2051500D01*
G75*
G02*
X19464000Y2270250I0J218750D01*
G01*
X19464000Y2707750D01*
G75*
G02*
X19682750Y2926500I218750J0D01*
G01*
G37*
%TD.AperFunction*%
%TO.P,C8,1*%
%TO.N,+3V3*%
%TA.AperFunction,SMDPad,CuDef*%
G36*
G01*
X19682750Y4501500D02*
X20195250Y4501500D01*
G75*
G02*
X20414000Y4282750I0J-218750D01*
G01*
X20414000Y3845250D01*
G75*
G02*
X20195250Y3626500I-218750J0D01*
G01*
X19682750Y3626500D01*
G75*
G02*
X19464000Y3845250I0J218750D01*
G01*
X19464000Y4282750D01*
G75*
G02*
X19682750Y4501500I218750J0D01*
G01*
G37*
%TD.AperFunction*%
%TD*%
D19*
%TO.P,J2,1*%
%TO.N,Net-(C11-Pad1)*%
X435000Y7620000D03*
D20*
%TO.P,J2,2*%
%TO.N,GND*%
X635000Y4795000D03*
X635000Y10445000D03*
%TD*%
D21*
%TO.P,U3,1*%
%TO.N,GND*%
X15830000Y12370000D03*
D22*
%TO.P,U3,2*%
%TO.N,Net-(JP3-Pad1)*%
X14730000Y12370000D03*
%TO.P,U3,3*%
%TO.N,Net-(JP2-Pad1)*%
X13630000Y12370000D03*
%TO.P,U3,4*%
%TO.N,Net-(R3-Pad2)*%
X12530000Y12370000D03*
%TO.P,U3,5*%
%TO.N,Net-(JP4-Pad2)*%
X11430000Y12370000D03*
%TO.P,U3,6*%
%TO.N,Net-(TP4-Pad1)*%
X10330000Y12370000D03*
%TO.P,U3,7*%
%TO.N,+3V3*%
X9230000Y12370000D03*
%TO.P,U3,8*%
X8130000Y12370000D03*
D21*
%TO.P,U3,9*%
%TO.N,~RST*%
X7030000Y12370000D03*
%TO.P,U3,10*%
%TO.N,GND*%
X7030000Y2870000D03*
D22*
%TO.P,U3,11*%
%TO.N,Net-(C10-Pad1)*%
X8130000Y2870000D03*
%TO.P,U3,12*%
%TO.N,GND*%
X9230000Y2870000D03*
%TO.P,U3,13*%
%TO.N,Net-(U3-Pad13)*%
X10330000Y2870000D03*
%TO.P,U3,14*%
%TO.N,Net-(R1-Pad2)*%
X11430000Y2870000D03*
%TO.P,U3,15*%
%TO.N,Net-(U3-Pad15)*%
X12530000Y2870000D03*
%TO.P,U3,16*%
%TO.N,SDA*%
X13630000Y2870000D03*
%TO.P,U3,17*%
%TO.N,SCL*%
X14730000Y2870000D03*
D21*
%TO.P,U3,18*%
%TO.N,Net-(U3-Pad18)*%
X15830000Y2870000D03*
%TD*%
D23*
%TO.N,GND*%
X2921000Y8382000D03*
X2921000Y6858000D03*
X2032000Y6350000D03*
X2032000Y8890000D03*
X10414000Y4318000D03*
X6477000Y8255000D03*
X11176000Y8128000D03*
X10160000Y6985000D03*
X11557000Y5461000D03*
X12700000Y6604000D03*
X9017000Y5715000D03*
X7620000Y9525000D03*
X7112000Y7620000D03*
X7747000Y6985000D03*
X8382000Y6350000D03*
X9525000Y7620000D03*
X8890000Y8255000D03*
X8255000Y8890000D03*
X6350000Y5715000D03*
X6985000Y5080000D03*
X12573000Y4445000D03*
X2159000Y3429000D03*
X2159000Y11811000D03*
X13843000Y7747000D03*
D24*
X10795000Y10287000D03*
X14859000Y6604000D03*
X13970000Y5715000D03*
X19812000Y10922000D03*
X19050000Y1270000D03*
X21590000Y1270000D03*
X21717000Y9906000D03*
X16764000Y12446000D03*
X19177000Y3429000D03*
X12319000Y9271000D03*
X25654000Y11684000D03*
X25654000Y10795000D03*
X25654000Y9906000D03*
X23241000Y3175000D03*
X26035000Y5207000D03*
D23*
X23241000Y13335000D03*
X24511000Y13716000D03*
%TO.N,+3V3*%
X8130000Y11051006D03*
X19966974Y4854330D03*
X18275510Y7887010D03*
X22733000Y11684000D03*
X24974402Y7045430D03*
%TO.N,Net-(TP1-Pad1)*%
X19939000Y9271000D03*
D24*
%TO.N,Net-(TP2-Pad1)*%
X23368000Y5080000D03*
%TO.N,Net-(TP3-Pad1)*%
X24239990Y9271000D03*
D23*
%TO.N,Net-(JP2-Pad1)*%
X4698998Y3810000D03*
X13271496Y10287000D03*
%TO.N,Net-(JP3-Pad1)*%
X6350000Y1270000D03*
X14224000Y10287000D03*
%TO.N,Net-(TP4-Pad1)*%
X11430000Y14224000D03*
D24*
%TO.N,SDA*%
X17250785Y4687895D03*
%TO.N,SCL*%
X18288000Y6350000D03*
%TO.N,INT*%
X28575000Y12954000D03*
%TD*%
D25*
%TO.N,GND*%
X20802500Y9868000D02*
X20802500Y10668000D01*
X21098000Y9572500D02*
X20802500Y9868000D01*
X21098000Y9120000D02*
X21098000Y9572500D01*
D26*
X20873000Y8220000D02*
X20598000Y8220000D01*
X21123010Y8445730D02*
X20897280Y8220000D01*
X20897280Y8220000D02*
X20873000Y8220000D01*
X21123010Y8819990D02*
X21123010Y8445730D01*
X21098000Y8845000D02*
X21123010Y8819990D01*
X21098000Y9120000D02*
X21098000Y8845000D01*
D27*
%TO.N,+3V3*%
X9230000Y11270000D02*
X9230000Y12370000D01*
X9009000Y11049000D02*
X9230000Y11270000D01*
X8384000Y11049000D02*
X9009000Y11049000D01*
X8381994Y11051006D02*
X8130000Y11051006D01*
X8130000Y11051006D02*
X8130000Y12444000D01*
D25*
X19075500Y8636000D02*
X19075500Y10160000D01*
X17500500Y5588000D02*
X17500500Y7112000D01*
D27*
X7620000Y13970000D02*
X7620000Y15240000D01*
X8130000Y13460000D02*
X7620000Y13970000D01*
X8130000Y12370000D02*
X8130000Y13460000D01*
D25*
X19075500Y8610500D02*
X19075500Y8636000D01*
X20602330Y4854330D02*
X19966974Y4854330D01*
X21098000Y5350000D02*
X20602330Y4854330D01*
X21098000Y6120000D02*
X21098000Y5350000D01*
X19509130Y7887010D02*
X19290990Y7887010D01*
X19813010Y7583130D02*
X19509130Y7887010D01*
X19976140Y7420000D02*
X19603570Y7792570D01*
X20598000Y7420000D02*
X19976140Y7420000D01*
X18275510Y7887010D02*
X19290990Y7887010D01*
X17500500Y7112000D02*
X18275510Y7887010D01*
X19075500Y7887010D02*
X19075500Y8636000D01*
X19290990Y7887010D02*
X19075500Y7887010D01*
X22377500Y10668000D02*
X22377500Y10566500D01*
X22479000Y9779000D02*
X22377500Y9880500D01*
X23098000Y9120000D02*
X23098000Y9541000D01*
X23098000Y9541000D02*
X22860000Y9779000D01*
X22860000Y9779000D02*
X22479000Y9779000D01*
X22377500Y9880500D02*
X22377500Y10668000D01*
D27*
X19939000Y4826356D02*
X19966974Y4854330D01*
X19939000Y3962500D02*
X19939000Y4826356D01*
D25*
X22377500Y10668000D02*
X22377500Y11328500D01*
X22377500Y11328500D02*
X22483001Y11434001D01*
X22483001Y11434001D02*
X22733000Y11684000D01*
X23598000Y7420000D02*
X24599832Y7420000D01*
X24599832Y7420000D02*
X24974402Y7045430D01*
X21506000Y4064000D02*
X19939000Y4064000D01*
X22479000Y3821000D02*
X22236000Y4064000D01*
X22236000Y4064000D02*
X21506000Y4064000D01*
X22479000Y2407000D02*
X22479000Y3821000D01*
X22236000Y2164000D02*
X22479000Y2407000D01*
X21506000Y2164000D02*
X22236000Y2164000D01*
D27*
X6396494Y11051006D02*
X5382500Y12065000D01*
X8130000Y11051006D02*
X6396494Y11051006D01*
D28*
%TO.N,Net-(L1-Pad1)*%
X3937000Y10566500D02*
X5334000Y10566500D01*
D25*
%TO.N,Net-(D1-Pad2)*%
X19075500Y11684000D02*
X19075500Y13208000D01*
%TO.N,Net-(C5-Pad1)*%
X24816000Y10363000D02*
X24257000Y10363000D01*
X25019000Y10160000D02*
X24816000Y10363000D01*
X25019000Y8509000D02*
X25019000Y10160000D01*
X24330000Y7820000D02*
X25019000Y8509000D01*
X23598000Y7820000D02*
X24330000Y7820000D01*
D27*
%TO.N,Net-(R1-Pad2)*%
X11430000Y4445000D02*
X11430000Y2870000D01*
X5334000Y8991500D02*
X6883500Y8991500D01*
X7239000Y8636000D02*
X11430000Y4445000D01*
X6883500Y8991500D02*
X7239000Y8636000D01*
D25*
%TO.N,Net-(TP1-Pad1)*%
X20598000Y7820000D02*
X20223000Y7820000D01*
X20223000Y7820000D02*
X20169000Y7874000D01*
X19939000Y9271000D02*
X19939000Y8509000D01*
X19939000Y8109010D02*
X19939000Y8509000D01*
X20223000Y7825010D02*
X19939000Y8109010D01*
X20223000Y7820000D02*
X20223000Y7825010D01*
%TO.N,Net-(TP2-Pad1)*%
X24003000Y5080000D02*
X23368000Y5080000D01*
X24130000Y5207000D02*
X24003000Y5080000D01*
X24130000Y6350000D02*
X24130000Y5207000D01*
X23860000Y6620000D02*
X24130000Y6350000D01*
X23598000Y6620000D02*
X23860000Y6620000D01*
%TO.N,Net-(TP3-Pad1)*%
X24239990Y8364990D02*
X24239990Y8952802D01*
X23598000Y8220000D02*
X24095000Y8220000D01*
X24095000Y8220000D02*
X24239990Y8364990D01*
X24239990Y8952802D02*
X24239990Y9271000D01*
%TO.N,Net-(JP1-Pad1)*%
X24038860Y12954000D02*
X26020000Y12954000D01*
X23368000Y12283140D02*
X24038860Y12954000D01*
X23598000Y9838860D02*
X23368000Y10068860D01*
X23368000Y10068860D02*
X23368000Y12283140D01*
X23598000Y8620000D02*
X23598000Y9838860D01*
%TO.N,Net-(JP2-Pad1)*%
X4345445Y3810000D02*
X4698998Y3810000D01*
X2440447Y2540000D02*
X3710447Y3810000D01*
X1300000Y2540000D02*
X2440447Y2540000D01*
X3710447Y3810000D02*
X4345445Y3810000D01*
X13630000Y10645504D02*
X13521495Y10536999D01*
X13630000Y12370000D02*
X13630000Y10645504D01*
X13521495Y10536999D02*
X13271496Y10287000D01*
%TO.N,+1V8*%
X24765000Y6477000D02*
X24765000Y4064000D01*
X24765000Y4064000D02*
X23706000Y4064000D01*
X24222000Y7020000D02*
X24765000Y6477000D01*
X23598000Y7020000D02*
X24222000Y7020000D01*
X24765000Y3481002D02*
X24765000Y4064000D01*
X24765000Y3018750D02*
X24765000Y3481002D01*
X25243750Y2540000D02*
X24765000Y3018750D01*
X25882500Y2540000D02*
X25243750Y2540000D01*
D28*
%TO.N,Net-(C10-Pad1)*%
X5334000Y7594500D02*
X5359500Y7620000D01*
X5334000Y6248500D02*
X5334000Y7594500D01*
X6096000Y7620000D02*
X5359500Y7620000D01*
X8130000Y5586000D02*
X6096000Y7620000D01*
X8130000Y2870000D02*
X8130000Y5586000D01*
D27*
%TO.N,Net-(C11-Pad1)*%
X3784500Y7620000D02*
X1685000Y7620000D01*
D28*
X3784500Y7010500D02*
X3784500Y7620000D01*
X3937000Y6858000D02*
X3784500Y7010500D01*
X3937000Y6248500D02*
X3937000Y6858000D01*
X3784500Y8229500D02*
X3784500Y7620000D01*
X3937000Y8382000D02*
X3784500Y8229500D01*
X3937000Y8991500D02*
X3937000Y8382000D01*
D25*
%TO.N,Net-(JP3-Pad1)*%
X5842000Y2540000D02*
X6350000Y2032000D01*
X6350000Y2032000D02*
X6350000Y1270000D01*
X5095000Y2540000D02*
X5842000Y2540000D01*
X14730000Y10793000D02*
X14473999Y10536999D01*
X14730000Y12370000D02*
X14730000Y10793000D01*
X14473999Y10536999D02*
X14224000Y10287000D01*
%TO.N,Net-(JP4-Pad2)*%
X17907000Y3825000D02*
X16749000Y3825000D01*
X11430000Y9144000D02*
X11430000Y12370000D01*
X16749000Y3825000D02*
X11430000Y9144000D01*
%TO.N,Net-(R3-Pad2)*%
X12530000Y10203000D02*
X12530000Y12370000D01*
X13081000Y9652000D02*
X12530000Y10203000D01*
X14818000Y9652000D02*
X13081000Y9652000D01*
X16850000Y11684000D02*
X14818000Y9652000D01*
X17500500Y11684000D02*
X16850000Y11684000D01*
D28*
%TO.N,Net-(TP4-Pad1)*%
X11430000Y14224000D02*
X11049000Y13843000D01*
X11049000Y13843000D02*
X10541000Y13843000D01*
X10330000Y13632000D02*
X10330000Y12370000D01*
X10541000Y13843000D02*
X10330000Y13632000D01*
D27*
%TO.N,RXD*%
X0Y0D02*
X0Y2540000D01*
%TO.N,TXD*%
X3795000Y2540000D02*
X3175000Y2540000D01*
X3175000Y2540000D02*
X2540000Y1905000D01*
X2540000Y1905000D02*
X2540000Y0D01*
D25*
%TO.N,SDA*%
X20066000Y5588000D02*
X19075500Y5588000D01*
X20598000Y6120000D02*
X20193000Y5715000D01*
X20193000Y5715000D02*
X20066000Y5588000D01*
X20598000Y6620000D02*
X20598000Y6120000D01*
X18784895Y4687895D02*
X17250785Y4687895D01*
X19075500Y4978500D02*
X18784895Y4687895D01*
X19075500Y5588000D02*
X19075500Y4978500D01*
X11209999Y1049999D02*
X10160000Y0D01*
X11684000Y1524000D02*
X11209999Y1049999D01*
X13384000Y1524000D02*
X11684000Y1524000D01*
X13630000Y1770000D02*
X13384000Y1524000D01*
X13630000Y2870000D02*
X13630000Y1770000D01*
%TO.N,SCL*%
X19685000Y7112000D02*
X19075500Y7112000D01*
X19777000Y7020000D02*
X19685000Y7112000D01*
X20598000Y7020000D02*
X19777000Y7020000D01*
X18288000Y6858000D02*
X18288000Y6350000D01*
X18542000Y7112000D02*
X18288000Y6858000D01*
X19075500Y7112000D02*
X18542000Y7112000D01*
X13970000Y1270000D02*
X12700000Y0D01*
X14351000Y1270000D02*
X13970000Y1270000D01*
X14730000Y1649000D02*
X14351000Y1270000D01*
X14730000Y2870000D02*
X14730000Y1649000D01*
%TO.N,PWM*%
X17907000Y1524000D02*
X17907000Y2525000D01*
X17780000Y1397000D02*
X17907000Y1524000D01*
X17780000Y0D02*
X17780000Y1397000D01*
%TO.N,~RST*%
X6096000Y14224000D02*
X5080000Y15240000D01*
X7030000Y12370000D02*
X7030000Y13290000D01*
X7030000Y13290000D02*
X6096000Y14224000D01*
%TO.N,INT*%
X28575000Y12954000D02*
X27320000Y12954000D01*
%TD*%
D29*
%TO.N,GND*%
X6919622Y8283627D02*
X6919628Y8283622D01*
X10955000Y4248249D01*
X10955000Y4034623D01*
X10924253Y4025296D01*
X10880000Y4001642D01*
X10835747Y4025296D01*
X10783909Y4041020D01*
X10730000Y4046330D01*
X9930000Y4046330D01*
X9876091Y4041020D01*
X9829342Y4026840D01*
X9811434Y4041536D01*
X9754974Y4071714D01*
X9693711Y4090298D01*
X9630000Y4096573D01*
X9486250Y4095000D01*
X9405000Y4013750D01*
X9405000Y3045000D01*
X9425000Y3045000D01*
X9425000Y2695000D01*
X9405000Y2695000D01*
X9405000Y1726250D01*
X9486250Y1645000D01*
X9630000Y1643427D01*
X9693711Y1649702D01*
X9754974Y1668286D01*
X9811434Y1698464D01*
X9829342Y1713160D01*
X9876091Y1698980D01*
X9930000Y1693670D01*
X10730000Y1693670D01*
X10783909Y1698980D01*
X10835747Y1714704D01*
X10880000Y1738358D01*
X10924253Y1714704D01*
X10976091Y1698980D01*
X11030000Y1693670D01*
X11323340Y1693670D01*
X10957863Y1328192D01*
X10957858Y1328188D01*
X10797362Y1167692D01*
X10787623Y1174200D01*
X10546488Y1274081D01*
X10290501Y1325000D01*
X10029499Y1325000D01*
X9773512Y1274081D01*
X9532377Y1174200D01*
X9315362Y1029195D01*
X9130805Y844638D01*
X8985800Y627623D01*
X8916702Y460806D01*
X8845246Y638546D01*
X8831641Y663997D01*
X8654903Y787416D01*
X7867487Y0D01*
X7881630Y-14143D01*
X7634143Y-261630D01*
X7620000Y-247487D01*
X7605858Y-261630D01*
X7358371Y-14143D01*
X7372513Y0D01*
X7358371Y14142D01*
X7605858Y261629D01*
X7620000Y247487D01*
X8407416Y1034903D01*
X8283997Y1211641D01*
X8034859Y1317899D01*
X7769778Y1373511D01*
X7498941Y1376340D01*
X7232757Y1326277D01*
X6981454Y1225246D01*
X6956003Y1211641D01*
X6832586Y1034905D01*
X6824306Y1043185D01*
X6854824Y1116863D01*
X6875000Y1218292D01*
X6875000Y1321708D01*
X6854824Y1423137D01*
X6815249Y1518681D01*
X6757794Y1604668D01*
X6725000Y1637462D01*
X6725000Y1644182D01*
X6773750Y1645000D01*
X6855000Y1726250D01*
X6855000Y2695000D01*
X6436250Y2695000D01*
X6355000Y2613750D01*
X6354862Y2557467D01*
X6120195Y2792134D01*
X6108448Y2806448D01*
X6051347Y2853309D01*
X5991356Y2885375D01*
X5990613Y2892918D01*
X5971491Y2989051D01*
X5955767Y3040888D01*
X5918258Y3131444D01*
X5892722Y3179219D01*
X5838266Y3260718D01*
X5803901Y3302593D01*
X5734593Y3371901D01*
X5692718Y3406266D01*
X5611219Y3460722D01*
X5563444Y3486258D01*
X5472888Y3523767D01*
X5421051Y3539491D01*
X5324918Y3558613D01*
X5271009Y3563923D01*
X5246447Y3563923D01*
X5222000Y3566331D01*
X5166323Y3566331D01*
X5203822Y3656863D01*
X5223998Y3758292D01*
X5223998Y3770000D01*
X6353427Y3770000D01*
X6355000Y3126250D01*
X6436250Y3045000D01*
X6855000Y3045000D01*
X6855000Y4013750D01*
X6773750Y4095000D01*
X6680000Y4096573D01*
X6616289Y4090298D01*
X6555026Y4071714D01*
X6498566Y4041536D01*
X6449078Y4000922D01*
X6408464Y3951434D01*
X6378286Y3894974D01*
X6359702Y3833711D01*
X6353427Y3770000D01*
X5223998Y3770000D01*
X5223998Y3861708D01*
X5203822Y3963137D01*
X5164247Y4058681D01*
X5159000Y4066534D01*
X5159000Y4498500D01*
X5509000Y4498500D01*
X5509000Y3992250D01*
X5590250Y3911000D01*
X5809000Y3909427D01*
X5872711Y3915702D01*
X5933974Y3934286D01*
X5990434Y3964464D01*
X6039922Y4005078D01*
X6080536Y4054566D01*
X6110714Y4111026D01*
X6129298Y4172289D01*
X6135573Y4236000D01*
X6134000Y4417250D01*
X6052750Y4498500D01*
X5509000Y4498500D01*
X5159000Y4498500D01*
X4112000Y4498500D01*
X4112000Y4478500D01*
X3762000Y4478500D01*
X3762000Y4498500D01*
X3218250Y4498500D01*
X3137000Y4417250D01*
X3135427Y4236000D01*
X3141702Y4172289D01*
X3160286Y4111026D01*
X3190464Y4054566D01*
X3231078Y4005078D01*
X3280566Y3964464D01*
X3315766Y3945650D01*
X2285118Y2915000D01*
X1922221Y2915000D01*
X1907491Y2989051D01*
X1891767Y3040888D01*
X1854258Y3131444D01*
X1828722Y3179219D01*
X1774266Y3260718D01*
X1739901Y3302593D01*
X1670593Y3371901D01*
X1628718Y3406266D01*
X1547219Y3460722D01*
X1499444Y3486258D01*
X1408888Y3523767D01*
X1357051Y3539491D01*
X1260918Y3558613D01*
X1207009Y3563923D01*
X1182447Y3563923D01*
X1158000Y3566331D01*
X658000Y3566331D01*
X604090Y3561021D01*
X552253Y3545297D01*
X508000Y3521643D01*
X463747Y3545297D01*
X411910Y3561021D01*
X358000Y3566331D01*
X-142000Y3566331D01*
X-166447Y3563923D01*
X-191009Y3563923D01*
X-244918Y3558613D01*
X-341051Y3539491D01*
X-392888Y3523767D01*
X-483444Y3486258D01*
X-531219Y3460722D01*
X-612718Y3406266D01*
X-654593Y3371901D01*
X-723901Y3302593D01*
X-758266Y3260718D01*
X-812722Y3179219D01*
X-838258Y3131444D01*
X-875767Y3040888D01*
X-891491Y2989051D01*
X-910613Y2892918D01*
X-915923Y2839009D01*
X-915923Y2814447D01*
X-918331Y2790000D01*
X-918331Y2290000D01*
X-915923Y2265553D01*
X-915923Y2240991D01*
X-910613Y2187082D01*
X-891491Y2090949D01*
X-875767Y2039112D01*
X-838258Y1948556D01*
X-812722Y1900781D01*
X-758266Y1819282D01*
X-723901Y1777407D01*
X-654593Y1708099D01*
X-612718Y1673734D01*
X-531219Y1619278D01*
X-483444Y1593742D01*
X-474999Y1590244D01*
X-474999Y1326330D01*
X-945000Y1326330D01*
X-945000Y3793871D01*
X378750Y3795000D01*
X460000Y3876250D01*
X460000Y4620000D01*
X810000Y4620000D01*
X810000Y3876250D01*
X891250Y3795000D01*
X2735000Y3793427D01*
X2798711Y3799702D01*
X2859974Y3818286D01*
X2916434Y3848464D01*
X2965922Y3889078D01*
X3006536Y3938566D01*
X3036714Y3995026D01*
X3055298Y4056289D01*
X3061573Y4120000D01*
X3060000Y4538750D01*
X2978750Y4620000D01*
X810000Y4620000D01*
X460000Y4620000D01*
X440000Y4620000D01*
X440000Y4970000D01*
X460000Y4970000D01*
X460000Y4990000D01*
X810000Y4990000D01*
X810000Y4970000D01*
X2978750Y4970000D01*
X3060000Y5051250D01*
X3060224Y5111000D01*
X3135427Y5111000D01*
X3137000Y4929750D01*
X3218250Y4848500D01*
X3762000Y4848500D01*
X3762000Y5354750D01*
X4112000Y5354750D01*
X4112000Y4848500D01*
X5159000Y4848500D01*
X5159000Y5354750D01*
X5509000Y5354750D01*
X5509000Y4848500D01*
X6052750Y4848500D01*
X6134000Y4929750D01*
X6135573Y5111000D01*
X6129298Y5174711D01*
X6110714Y5235974D01*
X6080536Y5292434D01*
X6039922Y5341922D01*
X5990434Y5382536D01*
X5933974Y5412714D01*
X5872711Y5431298D01*
X5809000Y5437573D01*
X5590250Y5436000D01*
X5509000Y5354750D01*
X5159000Y5354750D01*
X5077750Y5436000D01*
X4859000Y5437573D01*
X4795289Y5431298D01*
X4734026Y5412714D01*
X4677566Y5382536D01*
X4635500Y5348013D01*
X4593434Y5382536D01*
X4536974Y5412714D01*
X4475711Y5431298D01*
X4412000Y5437573D01*
X4193250Y5436000D01*
X4112000Y5354750D01*
X3762000Y5354750D01*
X3680750Y5436000D01*
X3462000Y5437573D01*
X3398289Y5431298D01*
X3337026Y5412714D01*
X3280566Y5382536D01*
X3231078Y5341922D01*
X3190464Y5292434D01*
X3160286Y5235974D01*
X3141702Y5174711D01*
X3135427Y5111000D01*
X3060224Y5111000D01*
X3061573Y5470000D01*
X3055298Y5533711D01*
X3036714Y5594974D01*
X3006536Y5651434D01*
X2965922Y5700922D01*
X2916434Y5741536D01*
X2859974Y5771714D01*
X2798711Y5790298D01*
X2735000Y5796573D01*
X1585545Y5795592D01*
X1585000Y5888750D01*
X1503750Y5970000D01*
X335000Y5970000D01*
X335000Y5950000D01*
X-15000Y5950000D01*
X-15000Y5970000D01*
X-35000Y5970000D01*
X-35000Y6320000D01*
X-15000Y6320000D01*
X-15000Y6340000D01*
X335000Y6340000D01*
X335000Y6320000D01*
X1503750Y6320000D01*
X1585000Y6401250D01*
X1586573Y6670000D01*
X1582764Y6708670D01*
X2235000Y6708670D01*
X2288909Y6713980D01*
X2340747Y6729704D01*
X2388521Y6755240D01*
X2430395Y6789605D01*
X2464760Y6831479D01*
X2490296Y6879253D01*
X2506020Y6931091D01*
X2511330Y6985000D01*
X2511330Y7145000D01*
X3124012Y7145000D01*
X3154106Y7088698D01*
X3215676Y7013676D01*
X3290698Y6952106D01*
X3376291Y6906356D01*
X3400303Y6899072D01*
X3406322Y6879228D01*
X3405698Y6878894D01*
X3330676Y6817324D01*
X3269106Y6742302D01*
X3223356Y6656709D01*
X3195183Y6563835D01*
X3185670Y6467250D01*
X3185670Y6029750D01*
X3195183Y5933165D01*
X3223356Y5840291D01*
X3269106Y5754698D01*
X3330676Y5679676D01*
X3405698Y5618106D01*
X3491291Y5572356D01*
X3584165Y5544183D01*
X3680750Y5534670D01*
X4193250Y5534670D01*
X4289835Y5544183D01*
X4382709Y5572356D01*
X4468302Y5618106D01*
X4543324Y5679676D01*
X4604894Y5754698D01*
X4635500Y5811958D01*
X4666106Y5754698D01*
X4727676Y5679676D01*
X4802698Y5618106D01*
X4888291Y5572356D01*
X4981165Y5544183D01*
X5077750Y5534670D01*
X5590250Y5534670D01*
X5686835Y5544183D01*
X5779709Y5572356D01*
X5865302Y5618106D01*
X5940324Y5679676D01*
X6001894Y5754698D01*
X6047644Y5840291D01*
X6075817Y5933165D01*
X6085330Y6029750D01*
X6085330Y6467250D01*
X6075817Y6563835D01*
X6047644Y6656709D01*
X6001894Y6742302D01*
X5940324Y6817324D01*
X5865302Y6878894D01*
X5790816Y6918707D01*
X5853302Y6952106D01*
X5928324Y7013676D01*
X5989894Y7088698D01*
X6014877Y7135438D01*
X7730001Y5420314D01*
X7730000Y4046330D01*
X7676091Y4041020D01*
X7624253Y4025296D01*
X7598194Y4011367D01*
X7561434Y4041536D01*
X7504974Y4071714D01*
X7443711Y4090298D01*
X7380000Y4096573D01*
X7286250Y4095000D01*
X7205000Y4013750D01*
X7205000Y3045000D01*
X7225000Y3045000D01*
X7225000Y2695000D01*
X7205000Y2695000D01*
X7205000Y1726250D01*
X7286250Y1645000D01*
X7380000Y1643427D01*
X7443711Y1649702D01*
X7504974Y1668286D01*
X7561434Y1698464D01*
X7598194Y1728633D01*
X7624253Y1714704D01*
X7676091Y1698980D01*
X7730000Y1693670D01*
X8530000Y1693670D01*
X8583909Y1698980D01*
X8630658Y1713160D01*
X8648566Y1698464D01*
X8705026Y1668286D01*
X8766289Y1649702D01*
X8830000Y1643427D01*
X8973750Y1645000D01*
X9055000Y1726250D01*
X9055000Y2695000D01*
X9035000Y2695000D01*
X9035000Y3045000D01*
X9055000Y3045000D01*
X9055000Y4013750D01*
X8973750Y4095000D01*
X8830000Y4096573D01*
X8766289Y4090298D01*
X8705026Y4071714D01*
X8648566Y4041536D01*
X8630658Y4026840D01*
X8583909Y4041020D01*
X8530000Y4046330D01*
X8530000Y5566365D01*
X8531934Y5586001D01*
X8530000Y5605637D01*
X8530000Y5605647D01*
X8524212Y5664414D01*
X8501340Y5739814D01*
X8464197Y5809303D01*
X8414211Y5870211D01*
X8398948Y5882737D01*
X6392737Y7888948D01*
X6380211Y7904211D01*
X6319303Y7954197D01*
X6249814Y7991340D01*
X6174414Y8014212D01*
X6115647Y8020000D01*
X6115646Y8020000D01*
X6096000Y8021935D01*
X6076354Y8020000D01*
X6049510Y8020000D01*
X6035644Y8065709D01*
X5989894Y8151302D01*
X5928324Y8226324D01*
X5853302Y8287894D01*
X5839861Y8295078D01*
X5906709Y8315356D01*
X5992302Y8361106D01*
X6067324Y8422676D01*
X6128894Y8497698D01*
X6138944Y8516500D01*
X6686750Y8516500D01*
X6919622Y8283627D01*
%TA.AperFunction,Conductor*%
D26*
G36*
X6919622Y8283627D02*
G01*
X6919628Y8283622D01*
X10955000Y4248249D01*
X10955000Y4034623D01*
X10924253Y4025296D01*
X10880000Y4001642D01*
X10835747Y4025296D01*
X10783909Y4041020D01*
X10730000Y4046330D01*
X9930000Y4046330D01*
X9876091Y4041020D01*
X9829342Y4026840D01*
X9811434Y4041536D01*
X9754974Y4071714D01*
X9693711Y4090298D01*
X9630000Y4096573D01*
X9486250Y4095000D01*
X9405000Y4013750D01*
X9405000Y3045000D01*
X9425000Y3045000D01*
X9425000Y2695000D01*
X9405000Y2695000D01*
X9405000Y1726250D01*
X9486250Y1645000D01*
X9630000Y1643427D01*
X9693711Y1649702D01*
X9754974Y1668286D01*
X9811434Y1698464D01*
X9829342Y1713160D01*
X9876091Y1698980D01*
X9930000Y1693670D01*
X10730000Y1693670D01*
X10783909Y1698980D01*
X10835747Y1714704D01*
X10880000Y1738358D01*
X10924253Y1714704D01*
X10976091Y1698980D01*
X11030000Y1693670D01*
X11323340Y1693670D01*
X10957863Y1328192D01*
X10957858Y1328188D01*
X10797362Y1167692D01*
X10787623Y1174200D01*
X10546488Y1274081D01*
X10290501Y1325000D01*
X10029499Y1325000D01*
X9773512Y1274081D01*
X9532377Y1174200D01*
X9315362Y1029195D01*
X9130805Y844638D01*
X8985800Y627623D01*
X8916702Y460806D01*
X8845246Y638546D01*
X8831641Y663997D01*
X8654903Y787416D01*
X7867487Y0D01*
X7881630Y-14143D01*
X7634143Y-261630D01*
X7620000Y-247487D01*
X7605858Y-261630D01*
X7358371Y-14143D01*
X7372513Y0D01*
X7358371Y14142D01*
X7605858Y261629D01*
X7620000Y247487D01*
X8407416Y1034903D01*
X8283997Y1211641D01*
X8034859Y1317899D01*
X7769778Y1373511D01*
X7498941Y1376340D01*
X7232757Y1326277D01*
X6981454Y1225246D01*
X6956003Y1211641D01*
X6832586Y1034905D01*
X6824306Y1043185D01*
X6854824Y1116863D01*
X6875000Y1218292D01*
X6875000Y1321708D01*
X6854824Y1423137D01*
X6815249Y1518681D01*
X6757794Y1604668D01*
X6725000Y1637462D01*
X6725000Y1644182D01*
X6773750Y1645000D01*
X6855000Y1726250D01*
X6855000Y2695000D01*
X6436250Y2695000D01*
X6355000Y2613750D01*
X6354862Y2557467D01*
X6120195Y2792134D01*
X6108448Y2806448D01*
X6051347Y2853309D01*
X5991356Y2885375D01*
X5990613Y2892918D01*
X5971491Y2989051D01*
X5955767Y3040888D01*
X5918258Y3131444D01*
X5892722Y3179219D01*
X5838266Y3260718D01*
X5803901Y3302593D01*
X5734593Y3371901D01*
X5692718Y3406266D01*
X5611219Y3460722D01*
X5563444Y3486258D01*
X5472888Y3523767D01*
X5421051Y3539491D01*
X5324918Y3558613D01*
X5271009Y3563923D01*
X5246447Y3563923D01*
X5222000Y3566331D01*
X5166323Y3566331D01*
X5203822Y3656863D01*
X5223998Y3758292D01*
X5223998Y3770000D01*
X6353427Y3770000D01*
X6355000Y3126250D01*
X6436250Y3045000D01*
X6855000Y3045000D01*
X6855000Y4013750D01*
X6773750Y4095000D01*
X6680000Y4096573D01*
X6616289Y4090298D01*
X6555026Y4071714D01*
X6498566Y4041536D01*
X6449078Y4000922D01*
X6408464Y3951434D01*
X6378286Y3894974D01*
X6359702Y3833711D01*
X6353427Y3770000D01*
X5223998Y3770000D01*
X5223998Y3861708D01*
X5203822Y3963137D01*
X5164247Y4058681D01*
X5159000Y4066534D01*
X5159000Y4498500D01*
X5509000Y4498500D01*
X5509000Y3992250D01*
X5590250Y3911000D01*
X5809000Y3909427D01*
X5872711Y3915702D01*
X5933974Y3934286D01*
X5990434Y3964464D01*
X6039922Y4005078D01*
X6080536Y4054566D01*
X6110714Y4111026D01*
X6129298Y4172289D01*
X6135573Y4236000D01*
X6134000Y4417250D01*
X6052750Y4498500D01*
X5509000Y4498500D01*
X5159000Y4498500D01*
X4112000Y4498500D01*
X4112000Y4478500D01*
X3762000Y4478500D01*
X3762000Y4498500D01*
X3218250Y4498500D01*
X3137000Y4417250D01*
X3135427Y4236000D01*
X3141702Y4172289D01*
X3160286Y4111026D01*
X3190464Y4054566D01*
X3231078Y4005078D01*
X3280566Y3964464D01*
X3315766Y3945650D01*
X2285118Y2915000D01*
X1922221Y2915000D01*
X1907491Y2989051D01*
X1891767Y3040888D01*
X1854258Y3131444D01*
X1828722Y3179219D01*
X1774266Y3260718D01*
X1739901Y3302593D01*
X1670593Y3371901D01*
X1628718Y3406266D01*
X1547219Y3460722D01*
X1499444Y3486258D01*
X1408888Y3523767D01*
X1357051Y3539491D01*
X1260918Y3558613D01*
X1207009Y3563923D01*
X1182447Y3563923D01*
X1158000Y3566331D01*
X658000Y3566331D01*
X604090Y3561021D01*
X552253Y3545297D01*
X508000Y3521643D01*
X463747Y3545297D01*
X411910Y3561021D01*
X358000Y3566331D01*
X-142000Y3566331D01*
X-166447Y3563923D01*
X-191009Y3563923D01*
X-244918Y3558613D01*
X-341051Y3539491D01*
X-392888Y3523767D01*
X-483444Y3486258D01*
X-531219Y3460722D01*
X-612718Y3406266D01*
X-654593Y3371901D01*
X-723901Y3302593D01*
X-758266Y3260718D01*
X-812722Y3179219D01*
X-838258Y3131444D01*
X-875767Y3040888D01*
X-891491Y2989051D01*
X-910613Y2892918D01*
X-915923Y2839009D01*
X-915923Y2814447D01*
X-918331Y2790000D01*
X-918331Y2290000D01*
X-915923Y2265553D01*
X-915923Y2240991D01*
X-910613Y2187082D01*
X-891491Y2090949D01*
X-875767Y2039112D01*
X-838258Y1948556D01*
X-812722Y1900781D01*
X-758266Y1819282D01*
X-723901Y1777407D01*
X-654593Y1708099D01*
X-612718Y1673734D01*
X-531219Y1619278D01*
X-483444Y1593742D01*
X-474999Y1590244D01*
X-474999Y1326330D01*
X-945000Y1326330D01*
X-945000Y3793871D01*
X378750Y3795000D01*
X460000Y3876250D01*
X460000Y4620000D01*
X810000Y4620000D01*
X810000Y3876250D01*
X891250Y3795000D01*
X2735000Y3793427D01*
X2798711Y3799702D01*
X2859974Y3818286D01*
X2916434Y3848464D01*
X2965922Y3889078D01*
X3006536Y3938566D01*
X3036714Y3995026D01*
X3055298Y4056289D01*
X3061573Y4120000D01*
X3060000Y4538750D01*
X2978750Y4620000D01*
X810000Y4620000D01*
X460000Y4620000D01*
X440000Y4620000D01*
X440000Y4970000D01*
X460000Y4970000D01*
X460000Y4990000D01*
X810000Y4990000D01*
X810000Y4970000D01*
X2978750Y4970000D01*
X3060000Y5051250D01*
X3060224Y5111000D01*
X3135427Y5111000D01*
X3137000Y4929750D01*
X3218250Y4848500D01*
X3762000Y4848500D01*
X3762000Y5354750D01*
X4112000Y5354750D01*
X4112000Y4848500D01*
X5159000Y4848500D01*
X5159000Y5354750D01*
X5509000Y5354750D01*
X5509000Y4848500D01*
X6052750Y4848500D01*
X6134000Y4929750D01*
X6135573Y5111000D01*
X6129298Y5174711D01*
X6110714Y5235974D01*
X6080536Y5292434D01*
X6039922Y5341922D01*
X5990434Y5382536D01*
X5933974Y5412714D01*
X5872711Y5431298D01*
X5809000Y5437573D01*
X5590250Y5436000D01*
X5509000Y5354750D01*
X5159000Y5354750D01*
X5077750Y5436000D01*
X4859000Y5437573D01*
X4795289Y5431298D01*
X4734026Y5412714D01*
X4677566Y5382536D01*
X4635500Y5348013D01*
X4593434Y5382536D01*
X4536974Y5412714D01*
X4475711Y5431298D01*
X4412000Y5437573D01*
X4193250Y5436000D01*
X4112000Y5354750D01*
X3762000Y5354750D01*
X3680750Y5436000D01*
X3462000Y5437573D01*
X3398289Y5431298D01*
X3337026Y5412714D01*
X3280566Y5382536D01*
X3231078Y5341922D01*
X3190464Y5292434D01*
X3160286Y5235974D01*
X3141702Y5174711D01*
X3135427Y5111000D01*
X3060224Y5111000D01*
X3061573Y5470000D01*
X3055298Y5533711D01*
X3036714Y5594974D01*
X3006536Y5651434D01*
X2965922Y5700922D01*
X2916434Y5741536D01*
X2859974Y5771714D01*
X2798711Y5790298D01*
X2735000Y5796573D01*
X1585545Y5795592D01*
X1585000Y5888750D01*
X1503750Y5970000D01*
X335000Y5970000D01*
X335000Y5950000D01*
X-15000Y5950000D01*
X-15000Y5970000D01*
X-35000Y5970000D01*
X-35000Y6320000D01*
X-15000Y6320000D01*
X-15000Y6340000D01*
X335000Y6340000D01*
X335000Y6320000D01*
X1503750Y6320000D01*
X1585000Y6401250D01*
X1586573Y6670000D01*
X1582764Y6708670D01*
X2235000Y6708670D01*
X2288909Y6713980D01*
X2340747Y6729704D01*
X2388521Y6755240D01*
X2430395Y6789605D01*
X2464760Y6831479D01*
X2490296Y6879253D01*
X2506020Y6931091D01*
X2511330Y6985000D01*
X2511330Y7145000D01*
X3124012Y7145000D01*
X3154106Y7088698D01*
X3215676Y7013676D01*
X3290698Y6952106D01*
X3376291Y6906356D01*
X3400303Y6899072D01*
X3406322Y6879228D01*
X3405698Y6878894D01*
X3330676Y6817324D01*
X3269106Y6742302D01*
X3223356Y6656709D01*
X3195183Y6563835D01*
X3185670Y6467250D01*
X3185670Y6029750D01*
X3195183Y5933165D01*
X3223356Y5840291D01*
X3269106Y5754698D01*
X3330676Y5679676D01*
X3405698Y5618106D01*
X3491291Y5572356D01*
X3584165Y5544183D01*
X3680750Y5534670D01*
X4193250Y5534670D01*
X4289835Y5544183D01*
X4382709Y5572356D01*
X4468302Y5618106D01*
X4543324Y5679676D01*
X4604894Y5754698D01*
X4635500Y5811958D01*
X4666106Y5754698D01*
X4727676Y5679676D01*
X4802698Y5618106D01*
X4888291Y5572356D01*
X4981165Y5544183D01*
X5077750Y5534670D01*
X5590250Y5534670D01*
X5686835Y5544183D01*
X5779709Y5572356D01*
X5865302Y5618106D01*
X5940324Y5679676D01*
X6001894Y5754698D01*
X6047644Y5840291D01*
X6075817Y5933165D01*
X6085330Y6029750D01*
X6085330Y6467250D01*
X6075817Y6563835D01*
X6047644Y6656709D01*
X6001894Y6742302D01*
X5940324Y6817324D01*
X5865302Y6878894D01*
X5790816Y6918707D01*
X5853302Y6952106D01*
X5928324Y7013676D01*
X5989894Y7088698D01*
X6014877Y7135438D01*
X7730001Y5420314D01*
X7730000Y4046330D01*
X7676091Y4041020D01*
X7624253Y4025296D01*
X7598194Y4011367D01*
X7561434Y4041536D01*
X7504974Y4071714D01*
X7443711Y4090298D01*
X7380000Y4096573D01*
X7286250Y4095000D01*
X7205000Y4013750D01*
X7205000Y3045000D01*
X7225000Y3045000D01*
X7225000Y2695000D01*
X7205000Y2695000D01*
X7205000Y1726250D01*
X7286250Y1645000D01*
X7380000Y1643427D01*
X7443711Y1649702D01*
X7504974Y1668286D01*
X7561434Y1698464D01*
X7598194Y1728633D01*
X7624253Y1714704D01*
X7676091Y1698980D01*
X7730000Y1693670D01*
X8530000Y1693670D01*
X8583909Y1698980D01*
X8630658Y1713160D01*
X8648566Y1698464D01*
X8705026Y1668286D01*
X8766289Y1649702D01*
X8830000Y1643427D01*
X8973750Y1645000D01*
X9055000Y1726250D01*
X9055000Y2695000D01*
X9035000Y2695000D01*
X9035000Y3045000D01*
X9055000Y3045000D01*
X9055000Y4013750D01*
X8973750Y4095000D01*
X8830000Y4096573D01*
X8766289Y4090298D01*
X8705026Y4071714D01*
X8648566Y4041536D01*
X8630658Y4026840D01*
X8583909Y4041020D01*
X8530000Y4046330D01*
X8530000Y5566365D01*
X8531934Y5586001D01*
X8530000Y5605637D01*
X8530000Y5605647D01*
X8524212Y5664414D01*
X8501340Y5739814D01*
X8464197Y5809303D01*
X8414211Y5870211D01*
X8398948Y5882737D01*
X6392737Y7888948D01*
X6380211Y7904211D01*
X6319303Y7954197D01*
X6249814Y7991340D01*
X6174414Y8014212D01*
X6115647Y8020000D01*
X6115646Y8020000D01*
X6096000Y8021935D01*
X6076354Y8020000D01*
X6049510Y8020000D01*
X6035644Y8065709D01*
X5989894Y8151302D01*
X5928324Y8226324D01*
X5853302Y8287894D01*
X5839861Y8295078D01*
X5906709Y8315356D01*
X5992302Y8361106D01*
X6067324Y8422676D01*
X6128894Y8497698D01*
X6138944Y8516500D01*
X6686750Y8516500D01*
X6919622Y8283627D01*
G37*
%TD.AperFunction*%
D29*
X5975000Y1876670D02*
X5975001Y1637463D01*
X5942206Y1604668D01*
X5884751Y1518681D01*
X5845176Y1423137D01*
X5825000Y1321708D01*
X5825000Y1218292D01*
X5845176Y1116863D01*
X5875694Y1043185D01*
X5867414Y1034905D01*
X5743997Y1211641D01*
X5494859Y1317899D01*
X5229778Y1373511D01*
X4958941Y1376340D01*
X4692757Y1326277D01*
X4441454Y1225246D01*
X4416003Y1211641D01*
X4292584Y1034903D01*
X5080000Y247487D01*
X5094143Y261629D01*
X5341630Y14142D01*
X5327487Y0D01*
X5341630Y-14143D01*
X5094143Y-261630D01*
X5080000Y-247487D01*
X5065858Y-261630D01*
X4818371Y-14143D01*
X4832513Y0D01*
X4045097Y787416D01*
X3868359Y663997D01*
X3782509Y462709D01*
X3714200Y627623D01*
X3569195Y844638D01*
X3384638Y1029195D01*
X3167623Y1174200D01*
X3015000Y1237418D01*
X3015000Y1708250D01*
X3236040Y1929289D01*
X3251278Y1900781D01*
X3305734Y1819282D01*
X3340099Y1777407D01*
X3409407Y1708099D01*
X3451282Y1673734D01*
X3532781Y1619278D01*
X3580556Y1593742D01*
X3671112Y1556233D01*
X3722949Y1540509D01*
X3819082Y1521387D01*
X3872991Y1516077D01*
X3897553Y1516077D01*
X3922000Y1513669D01*
X4422000Y1513669D01*
X4475910Y1518979D01*
X4527747Y1534703D01*
X4572000Y1558357D01*
X4616253Y1534703D01*
X4668090Y1518979D01*
X4722000Y1513669D01*
X5222000Y1513669D01*
X5246447Y1516077D01*
X5271009Y1516077D01*
X5324918Y1521387D01*
X5421051Y1540509D01*
X5472888Y1556233D01*
X5563444Y1593742D01*
X5611219Y1619278D01*
X5692718Y1673734D01*
X5734593Y1708099D01*
X5803901Y1777407D01*
X5838266Y1819282D01*
X5892722Y1900781D01*
X5912983Y1938687D01*
X5975000Y1876670D01*
%TA.AperFunction,Conductor*%
D26*
G36*
X5975000Y1876670D02*
G01*
X5975001Y1637463D01*
X5942206Y1604668D01*
X5884751Y1518681D01*
X5845176Y1423137D01*
X5825000Y1321708D01*
X5825000Y1218292D01*
X5845176Y1116863D01*
X5875694Y1043185D01*
X5867414Y1034905D01*
X5743997Y1211641D01*
X5494859Y1317899D01*
X5229778Y1373511D01*
X4958941Y1376340D01*
X4692757Y1326277D01*
X4441454Y1225246D01*
X4416003Y1211641D01*
X4292584Y1034903D01*
X5080000Y247487D01*
X5094143Y261629D01*
X5341630Y14142D01*
X5327487Y0D01*
X5341630Y-14143D01*
X5094143Y-261630D01*
X5080000Y-247487D01*
X5065858Y-261630D01*
X4818371Y-14143D01*
X4832513Y0D01*
X4045097Y787416D01*
X3868359Y663997D01*
X3782509Y462709D01*
X3714200Y627623D01*
X3569195Y844638D01*
X3384638Y1029195D01*
X3167623Y1174200D01*
X3015000Y1237418D01*
X3015000Y1708250D01*
X3236040Y1929289D01*
X3251278Y1900781D01*
X3305734Y1819282D01*
X3340099Y1777407D01*
X3409407Y1708099D01*
X3451282Y1673734D01*
X3532781Y1619278D01*
X3580556Y1593742D01*
X3671112Y1556233D01*
X3722949Y1540509D01*
X3819082Y1521387D01*
X3872991Y1516077D01*
X3897553Y1516077D01*
X3922000Y1513669D01*
X4422000Y1513669D01*
X4475910Y1518979D01*
X4527747Y1534703D01*
X4572000Y1558357D01*
X4616253Y1534703D01*
X4668090Y1518979D01*
X4722000Y1513669D01*
X5222000Y1513669D01*
X5246447Y1516077D01*
X5271009Y1516077D01*
X5324918Y1521387D01*
X5421051Y1540509D01*
X5472888Y1556233D01*
X5563444Y1593742D01*
X5611219Y1619278D01*
X5692718Y1673734D01*
X5734593Y1708099D01*
X5803901Y1777407D01*
X5838266Y1819282D01*
X5892722Y1900781D01*
X5912983Y1938687D01*
X5975000Y1876670D01*
G37*
%TD.AperFunction*%
D29*
X25270509Y12504949D02*
X25286233Y12453112D01*
X25323742Y12362556D01*
X25349278Y12314781D01*
X25403734Y12233282D01*
X25438099Y12191407D01*
X25507407Y12122099D01*
X25549282Y12087734D01*
X25630781Y12033278D01*
X25678556Y12007742D01*
X25769112Y11970233D01*
X25820949Y11954509D01*
X25917082Y11935387D01*
X25970991Y11930077D01*
X25995553Y11930077D01*
X26020000Y11927669D01*
X26520000Y11927669D01*
X26573910Y11932979D01*
X26625747Y11948703D01*
X26670000Y11972357D01*
X26714253Y11948703D01*
X26766090Y11932979D01*
X26820000Y11927669D01*
X27320000Y11927669D01*
X27344447Y11930077D01*
X27369009Y11930077D01*
X27422918Y11935387D01*
X27519051Y11954509D01*
X27570888Y11970233D01*
X27661444Y12007742D01*
X27709219Y12033278D01*
X27790718Y12087734D01*
X27832593Y12122099D01*
X27901901Y12191407D01*
X27936266Y12233282D01*
X27990722Y12314781D01*
X28016258Y12362556D01*
X28053767Y12453112D01*
X28069491Y12504949D01*
X28084221Y12579000D01*
X28242894Y12579000D01*
X28256269Y12565625D01*
X28338161Y12510906D01*
X28429155Y12473215D01*
X28525754Y12454000D01*
X28624246Y12454000D01*
X28720845Y12473215D01*
X28811839Y12510906D01*
X28885000Y12559791D01*
X28885001Y928832D01*
X28784638Y1029195D01*
X28567623Y1174200D01*
X28326488Y1274081D01*
X28070501Y1325000D01*
X27809499Y1325000D01*
X27553512Y1274081D01*
X27312377Y1174200D01*
X27095362Y1029195D01*
X26910805Y844638D01*
X26765800Y627623D01*
X26670000Y396340D01*
X26574200Y627623D01*
X26429195Y844638D01*
X26244638Y1029195D01*
X26027623Y1174200D01*
X25786488Y1274081D01*
X25530501Y1325000D01*
X25269499Y1325000D01*
X25013512Y1274081D01*
X24772377Y1174200D01*
X24555362Y1029195D01*
X24370805Y844638D01*
X24225800Y627623D01*
X24130000Y396340D01*
X24034200Y627623D01*
X23889195Y844638D01*
X23704638Y1029195D01*
X23487623Y1174200D01*
X23246488Y1274081D01*
X22990501Y1325000D01*
X22729499Y1325000D01*
X22473512Y1274081D01*
X22232377Y1174200D01*
X22015362Y1029195D01*
X21830805Y844638D01*
X21685800Y627623D01*
X21590000Y396340D01*
X21494200Y627623D01*
X21349195Y844638D01*
X21164638Y1029195D01*
X20947623Y1174200D01*
X20706488Y1274081D01*
X20450501Y1325000D01*
X20189499Y1325000D01*
X19933512Y1274081D01*
X19692377Y1174200D01*
X19475362Y1029195D01*
X19290805Y844638D01*
X19145800Y627623D01*
X19050000Y396340D01*
X18954200Y627623D01*
X18809195Y844638D01*
X18624638Y1029195D01*
X18407623Y1174200D01*
X18181806Y1267736D01*
X18220309Y1314653D01*
X18255131Y1379800D01*
X18276574Y1450487D01*
X18282000Y1505581D01*
X18282000Y1505583D01*
X18283814Y1523999D01*
X18282000Y1542415D01*
X18282000Y1760779D01*
X18356051Y1775509D01*
X18407888Y1791233D01*
X18498444Y1828742D01*
X18546219Y1854278D01*
X18627718Y1908734D01*
X18669593Y1943099D01*
X18738901Y2012407D01*
X18770982Y2051500D01*
X19137427Y2051500D01*
X19143702Y1987789D01*
X19162286Y1926526D01*
X19192464Y1870066D01*
X19233078Y1820578D01*
X19282566Y1779964D01*
X19339026Y1749786D01*
X19400289Y1731202D01*
X19464000Y1724927D01*
X19682750Y1726500D01*
X19764000Y1807750D01*
X19764000Y2314000D01*
X20114000Y2314000D01*
X20114000Y1807750D01*
X20195250Y1726500D01*
X20414000Y1724927D01*
X20477711Y1731202D01*
X20538974Y1749786D01*
X20595434Y1779964D01*
X20644922Y1820578D01*
X20685536Y1870066D01*
X20715714Y1926526D01*
X20734298Y1987789D01*
X20740573Y2051500D01*
X20739000Y2232750D01*
X20657750Y2314000D01*
X20114000Y2314000D01*
X19764000Y2314000D01*
X19220250Y2314000D01*
X19139000Y2232750D01*
X19137427Y2051500D01*
X18770982Y2051500D01*
X18773266Y2054282D01*
X18827722Y2135781D01*
X18853258Y2183556D01*
X18890767Y2274112D01*
X18906491Y2325949D01*
X18925613Y2422082D01*
X18930923Y2475991D01*
X18930923Y2500553D01*
X18933331Y2525000D01*
X18933331Y2926500D01*
X19137427Y2926500D01*
X19139000Y2745250D01*
X19220250Y2664000D01*
X19764000Y2664000D01*
X19764000Y3170250D01*
X20114000Y3170250D01*
X20114000Y2664000D01*
X20657750Y2664000D01*
X20739000Y2745250D01*
X20740573Y2926500D01*
X20734298Y2990211D01*
X20715714Y3051474D01*
X20685536Y3107934D01*
X20644922Y3157422D01*
X20595434Y3198036D01*
X20538974Y3228214D01*
X20477711Y3246798D01*
X20414000Y3253073D01*
X20195250Y3251500D01*
X20114000Y3170250D01*
X19764000Y3170250D01*
X19682750Y3251500D01*
X19464000Y3253073D01*
X19400289Y3246798D01*
X19339026Y3228214D01*
X19282566Y3198036D01*
X19233078Y3157422D01*
X19192464Y3107934D01*
X19162286Y3051474D01*
X19143702Y2990211D01*
X19137427Y2926500D01*
X18933331Y2926500D01*
X18933331Y3025000D01*
X18928021Y3078910D01*
X18912297Y3130747D01*
X18888643Y3175000D01*
X18912297Y3219253D01*
X18928021Y3271090D01*
X18933331Y3325000D01*
X18933331Y3825000D01*
X18930923Y3849447D01*
X18930923Y3874009D01*
X18925613Y3927918D01*
X18906491Y4024051D01*
X18890767Y4075888D01*
X18853258Y4166444D01*
X18827722Y4214219D01*
X18773266Y4295718D01*
X18759170Y4312895D01*
X18766479Y4312895D01*
X18784895Y4311081D01*
X18803311Y4312895D01*
X18803314Y4312895D01*
X18858408Y4318321D01*
X18929095Y4339764D01*
X18994242Y4374586D01*
X19051343Y4421447D01*
X19063090Y4435761D01*
X19327639Y4700309D01*
X19341948Y4712052D01*
X19382294Y4761214D01*
X19388810Y4769153D01*
X19422452Y4832095D01*
X19423631Y4834300D01*
X19430925Y4858344D01*
X19441974Y4861696D01*
X19441974Y4802622D01*
X19458139Y4721355D01*
X19407698Y4694394D01*
X19332676Y4632824D01*
X19271106Y4557802D01*
X19225356Y4472209D01*
X19197183Y4379335D01*
X19187670Y4282750D01*
X19187670Y3845250D01*
X19197183Y3748665D01*
X19225356Y3655791D01*
X19271106Y3570198D01*
X19332676Y3495176D01*
X19407698Y3433606D01*
X19493291Y3387856D01*
X19586165Y3359683D01*
X19682750Y3350170D01*
X20195250Y3350170D01*
X20291835Y3359683D01*
X20384709Y3387856D01*
X20470302Y3433606D01*
X20545324Y3495176D01*
X20606894Y3570198D01*
X20652644Y3655791D01*
X20662718Y3689000D01*
X20831595Y3689000D01*
X20831980Y3685091D01*
X20846160Y3638342D01*
X20831464Y3620434D01*
X20801286Y3563974D01*
X20782702Y3502711D01*
X20776427Y3439000D01*
X20778000Y3370250D01*
X20859250Y3289000D01*
X21458000Y3289000D01*
X21458000Y3309000D01*
X21808000Y3309000D01*
X21808000Y3289000D01*
X21828000Y3289000D01*
X21828000Y2939000D01*
X21808000Y2939000D01*
X21808000Y2919000D01*
X21458000Y2919000D01*
X21458000Y2939000D01*
X20859250Y2939000D01*
X20778000Y2857750D01*
X20776427Y2789000D01*
X20782702Y2725289D01*
X20801286Y2664026D01*
X20831464Y2607566D01*
X20846160Y2589658D01*
X20831980Y2542909D01*
X20826670Y2489000D01*
X20826670Y1839000D01*
X20831980Y1785091D01*
X20847704Y1733253D01*
X20873240Y1685479D01*
X20907605Y1643605D01*
X20949479Y1609240D01*
X20997253Y1583704D01*
X21049091Y1567980D01*
X21103000Y1562670D01*
X22163000Y1562670D01*
X22216909Y1567980D01*
X22268747Y1583704D01*
X22316521Y1609240D01*
X22358395Y1643605D01*
X22392760Y1685479D01*
X22418296Y1733253D01*
X22434020Y1785091D01*
X22439330Y1839000D01*
X22439330Y1847475D01*
X22445347Y1850691D01*
X22502448Y1897552D01*
X22514195Y1911866D01*
X22731135Y2128806D01*
X22745448Y2140552D01*
X22792309Y2197653D01*
X22827131Y2262800D01*
X22848574Y2333487D01*
X22854000Y2388581D01*
X22854000Y2388584D01*
X22855814Y2407000D01*
X22854000Y2425416D01*
X22854000Y2489000D01*
X23026670Y2489000D01*
X23026670Y1839000D01*
X23031980Y1785091D01*
X23047704Y1733253D01*
X23073240Y1685479D01*
X23107605Y1643605D01*
X23149479Y1609240D01*
X23197253Y1583704D01*
X23249091Y1567980D01*
X23303000Y1562670D01*
X24363000Y1562670D01*
X24416909Y1567980D01*
X24468747Y1583704D01*
X24516521Y1609240D01*
X24558395Y1643605D01*
X24592760Y1685479D01*
X24618296Y1733253D01*
X24634020Y1785091D01*
X24639330Y1839000D01*
X24639330Y2489000D01*
X24634020Y2542909D01*
X24618296Y2594747D01*
X24592760Y2642521D01*
X24558395Y2684395D01*
X24516521Y2718760D01*
X24468747Y2744296D01*
X24416909Y2760020D01*
X24363000Y2765330D01*
X23303000Y2765330D01*
X23249091Y2760020D01*
X23197253Y2744296D01*
X23149479Y2718760D01*
X23107605Y2684395D01*
X23073240Y2642521D01*
X23047704Y2594747D01*
X23031980Y2542909D01*
X23026670Y2489000D01*
X22854000Y2489000D01*
X22854000Y3802584D01*
X22855814Y3821000D01*
X22854000Y3839419D01*
X22848574Y3894513D01*
X22827131Y3965200D01*
X22792309Y4030347D01*
X22745448Y4087448D01*
X22731134Y4099195D01*
X22514195Y4316134D01*
X22502448Y4330448D01*
X22445347Y4377309D01*
X22439330Y4380525D01*
X22439330Y4389000D01*
X22434020Y4442909D01*
X22418296Y4494747D01*
X22392760Y4542521D01*
X22358395Y4584395D01*
X22316521Y4618760D01*
X22268747Y4644296D01*
X22216909Y4660020D01*
X22163000Y4665330D01*
X21103000Y4665330D01*
X21049091Y4660020D01*
X20997253Y4644296D01*
X20949479Y4618760D01*
X20907605Y4584395D01*
X20873240Y4542521D01*
X20847704Y4494747D01*
X20831980Y4442909D01*
X20831595Y4439000D01*
X20662718Y4439000D01*
X20652644Y4472209D01*
X20647433Y4481958D01*
X20675843Y4484756D01*
X20746530Y4506199D01*
X20811677Y4541021D01*
X20868778Y4587882D01*
X20880525Y4602196D01*
X21350144Y5071813D01*
X21364448Y5083552D01*
X21376186Y5097855D01*
X21376189Y5097858D01*
X21411309Y5140653D01*
X21446130Y5205798D01*
X21446405Y5206703D01*
X21467574Y5276487D01*
X21473000Y5331581D01*
X21473000Y5331583D01*
X21474814Y5349999D01*
X21473000Y5368415D01*
X21473000Y5568670D01*
X21548000Y5568670D01*
X21611664Y5574940D01*
X21672881Y5593510D01*
X21698000Y5606937D01*
X21723119Y5593510D01*
X21784336Y5574940D01*
X21848000Y5568670D01*
X21948000Y5568670D01*
X22011664Y5574940D01*
X22072881Y5593510D01*
X22098000Y5606937D01*
X22123119Y5593510D01*
X22184336Y5574940D01*
X22248000Y5568670D01*
X22348000Y5568670D01*
X22411664Y5574940D01*
X22472881Y5593510D01*
X22498000Y5606937D01*
X22523119Y5593510D01*
X22584336Y5574940D01*
X22648000Y5568670D01*
X22748000Y5568670D01*
X22811664Y5574940D01*
X22872881Y5593510D01*
X22898000Y5606937D01*
X22923119Y5593510D01*
X22984336Y5574940D01*
X23048000Y5568670D01*
X23148000Y5568670D01*
X23211664Y5574940D01*
X23272881Y5593510D01*
X23329299Y5623667D01*
X23378750Y5664250D01*
X23419333Y5713701D01*
X23449490Y5770119D01*
X23468060Y5831336D01*
X23474330Y5895000D01*
X23474330Y6243670D01*
X23706001Y6243670D01*
X23755000Y6194670D01*
X23755001Y5455000D01*
X23700106Y5455000D01*
X23686731Y5468375D01*
X23604839Y5523094D01*
X23513845Y5560785D01*
X23417246Y5580000D01*
X23318754Y5580000D01*
X23222155Y5560785D01*
X23131161Y5523094D01*
X23049269Y5468375D01*
X22979625Y5398731D01*
X22924906Y5316839D01*
X22887215Y5225845D01*
X22868000Y5129246D01*
X22868000Y5030754D01*
X22887215Y4934155D01*
X22924906Y4843161D01*
X22979625Y4761269D01*
X23049269Y4691625D01*
X23131161Y4636906D01*
X23160608Y4624709D01*
X23149479Y4618760D01*
X23107605Y4584395D01*
X23073240Y4542521D01*
X23047704Y4494747D01*
X23031980Y4442909D01*
X23026670Y4389000D01*
X23026670Y3739000D01*
X23031980Y3685091D01*
X23047704Y3633253D01*
X23073240Y3585479D01*
X23107605Y3543605D01*
X23149479Y3509240D01*
X23197253Y3483704D01*
X23249091Y3467980D01*
X23303000Y3462670D01*
X24363000Y3462670D01*
X24390000Y3465329D01*
X24390000Y3462584D01*
X24390001Y3462575D01*
X24390000Y3037167D01*
X24388186Y3018750D01*
X24390000Y3000334D01*
X24390000Y3000332D01*
X24395426Y2945238D01*
X24416869Y2874551D01*
X24451691Y2809404D01*
X24498552Y2752302D01*
X24512866Y2740555D01*
X24965559Y2287861D01*
X24977302Y2273552D01*
X24991609Y2261811D01*
X25034403Y2226690D01*
X25078857Y2202930D01*
X25099550Y2191869D01*
X25170237Y2170426D01*
X25183662Y2169104D01*
X25206356Y2094291D01*
X25252106Y2008698D01*
X25313676Y1933676D01*
X25388698Y1872106D01*
X25474291Y1826356D01*
X25567165Y1798183D01*
X25663750Y1788670D01*
X26101250Y1788670D01*
X26197835Y1798183D01*
X26290709Y1826356D01*
X26376302Y1872106D01*
X26451324Y1933676D01*
X26512894Y2008698D01*
X26542987Y2065000D01*
X26693427Y2065000D01*
X26699702Y2001289D01*
X26718286Y1940026D01*
X26748464Y1883566D01*
X26789078Y1834078D01*
X26838566Y1793464D01*
X26895026Y1763286D01*
X26956289Y1744702D01*
X27020000Y1738427D01*
X27201250Y1740000D01*
X27282500Y1821250D01*
X27282500Y2365000D01*
X27632500Y2365000D01*
X27632500Y1821250D01*
X27713750Y1740000D01*
X27895000Y1738427D01*
X27958711Y1744702D01*
X28019974Y1763286D01*
X28076434Y1793464D01*
X28125922Y1834078D01*
X28166536Y1883566D01*
X28196714Y1940026D01*
X28215298Y2001289D01*
X28221573Y2065000D01*
X28220000Y2283750D01*
X28138750Y2365000D01*
X27632500Y2365000D01*
X27282500Y2365000D01*
X26776250Y2365000D01*
X26695000Y2283750D01*
X26693427Y2065000D01*
X26542987Y2065000D01*
X26558644Y2094291D01*
X26586817Y2187165D01*
X26596330Y2283750D01*
X26596330Y2796250D01*
X26586817Y2892835D01*
X26558644Y2985709D01*
X26542988Y3015000D01*
X26693427Y3015000D01*
X26695000Y2796250D01*
X26776250Y2715000D01*
X27282500Y2715000D01*
X27282500Y3258750D01*
X27632500Y3258750D01*
X27632500Y2715000D01*
X28138750Y2715000D01*
X28220000Y2796250D01*
X28221573Y3015000D01*
X28215298Y3078711D01*
X28196714Y3139974D01*
X28166536Y3196434D01*
X28125922Y3245922D01*
X28076434Y3286536D01*
X28019974Y3316714D01*
X27958711Y3335298D01*
X27895000Y3341573D01*
X27713750Y3340000D01*
X27632500Y3258750D01*
X27282500Y3258750D01*
X27201250Y3340000D01*
X27020000Y3341573D01*
X26956289Y3335298D01*
X26895026Y3316714D01*
X26838566Y3286536D01*
X26789078Y3245922D01*
X26748464Y3196434D01*
X26718286Y3139974D01*
X26699702Y3078711D01*
X26693427Y3015000D01*
X26542988Y3015000D01*
X26512894Y3071302D01*
X26451324Y3146324D01*
X26376302Y3207894D01*
X26290709Y3253644D01*
X26197835Y3281817D01*
X26101250Y3291330D01*
X25663750Y3291330D01*
X25567165Y3281817D01*
X25474291Y3253644D01*
X25388698Y3207894D01*
X25313676Y3146324D01*
X25252106Y3071302D01*
X25248857Y3065223D01*
X25140000Y3174079D01*
X25140000Y4045581D01*
X25141814Y4064000D01*
X25140633Y4076000D01*
X26355427Y4076000D01*
X26361702Y4012289D01*
X26380286Y3951026D01*
X26410464Y3894566D01*
X26451078Y3845078D01*
X26500566Y3804464D01*
X26557026Y3774286D01*
X26618289Y3755702D01*
X26682000Y3749427D01*
X27175750Y3751000D01*
X27257000Y3832250D01*
X27257000Y4651000D01*
X27607000Y4651000D01*
X27607000Y3832250D01*
X27688250Y3751000D01*
X28182000Y3749427D01*
X28245711Y3755702D01*
X28306974Y3774286D01*
X28363434Y3804464D01*
X28412922Y3845078D01*
X28453536Y3894566D01*
X28483714Y3951026D01*
X28502298Y4012289D01*
X28508573Y4076000D01*
X28507000Y4569750D01*
X28425750Y4651000D01*
X27607000Y4651000D01*
X27257000Y4651000D01*
X26438250Y4651000D01*
X26357000Y4569750D01*
X26355427Y4076000D01*
X25140633Y4076000D01*
X25140000Y4082419D01*
X25140000Y5576000D01*
X26355427Y5576000D01*
X26357000Y5082250D01*
X26438250Y5001000D01*
X27257000Y5001000D01*
X27257000Y5819750D01*
X27607000Y5819750D01*
X27607000Y5001000D01*
X28425750Y5001000D01*
X28507000Y5082250D01*
X28508573Y5576000D01*
X28502298Y5639711D01*
X28483714Y5700974D01*
X28453536Y5757434D01*
X28412922Y5806922D01*
X28363434Y5847536D01*
X28306974Y5877714D01*
X28245711Y5896298D01*
X28182000Y5902573D01*
X27688250Y5901000D01*
X27607000Y5819750D01*
X27257000Y5819750D01*
X27175750Y5901000D01*
X26682000Y5902573D01*
X26618289Y5896298D01*
X26557026Y5877714D01*
X26500566Y5847536D01*
X26451078Y5806922D01*
X26410464Y5757434D01*
X26380286Y5700974D01*
X26361702Y5639711D01*
X26355427Y5576000D01*
X25140000Y5576000D01*
X25140000Y6458584D01*
X25141814Y6477000D01*
X25139958Y6495845D01*
X25135236Y6543794D01*
X25223083Y6580181D01*
X25309070Y6637636D01*
X25382196Y6710762D01*
X25439651Y6796749D01*
X25479226Y6892293D01*
X25499402Y6993722D01*
X25499402Y7097138D01*
X25479226Y7198567D01*
X25439651Y7294111D01*
X25382196Y7380098D01*
X25309070Y7453224D01*
X25223083Y7510679D01*
X25127539Y7550254D01*
X25026110Y7570430D01*
X24979731Y7570430D01*
X24878027Y7672134D01*
X24874335Y7676633D01*
X26730000Y7676633D01*
X26730000Y7563367D01*
X26752097Y7452279D01*
X26795442Y7347635D01*
X26858368Y7253459D01*
X26938459Y7173368D01*
X27032635Y7110442D01*
X27137279Y7067097D01*
X27248367Y7045000D01*
X27361633Y7045000D01*
X27472721Y7067097D01*
X27577365Y7110442D01*
X27671541Y7173368D01*
X27751632Y7253459D01*
X27814558Y7347635D01*
X27857903Y7452279D01*
X27880000Y7563367D01*
X27880000Y7676633D01*
X27857903Y7787721D01*
X27814558Y7892365D01*
X27751632Y7986541D01*
X27671541Y8066632D01*
X27577365Y8129558D01*
X27472721Y8172903D01*
X27361633Y8195000D01*
X27248367Y8195000D01*
X27137279Y8172903D01*
X27032635Y8129558D01*
X26938459Y8066632D01*
X26858368Y7986541D01*
X26795442Y7892365D01*
X26752097Y7787721D01*
X26730000Y7676633D01*
X24874335Y7676633D01*
X24866280Y7686448D01*
X24809179Y7733309D01*
X24786018Y7745689D01*
X25271140Y8230810D01*
X25285448Y8242552D01*
X25332309Y8299653D01*
X25344623Y8322691D01*
X25367130Y8364798D01*
X25367131Y8364801D01*
X25388574Y8435487D01*
X25394000Y8490581D01*
X25394000Y8490583D01*
X25395814Y8508999D01*
X25394000Y8527419D01*
X25394000Y10045000D01*
X26228427Y10045000D01*
X26234702Y9981289D01*
X26253286Y9920026D01*
X26283464Y9863566D01*
X26324078Y9814078D01*
X26373566Y9773464D01*
X26430026Y9743286D01*
X26491289Y9724702D01*
X26555000Y9718427D01*
X27048750Y9720000D01*
X27130000Y9801250D01*
X27130000Y10620000D01*
X27480000Y10620000D01*
X27480000Y9801250D01*
X27561250Y9720000D01*
X28055000Y9718427D01*
X28118711Y9724702D01*
X28179974Y9743286D01*
X28236434Y9773464D01*
X28285922Y9814078D01*
X28326536Y9863566D01*
X28356714Y9920026D01*
X28375298Y9981289D01*
X28381573Y10045000D01*
X28380000Y10538750D01*
X28298750Y10620000D01*
X27480000Y10620000D01*
X27130000Y10620000D01*
X26311250Y10620000D01*
X26230000Y10538750D01*
X26228427Y10045000D01*
X25394000Y10045000D01*
X25394000Y10141585D01*
X25395814Y10160001D01*
X25393393Y10184582D01*
X25388574Y10233513D01*
X25367131Y10304200D01*
X25332309Y10369347D01*
X25285448Y10426448D01*
X25271134Y10438195D01*
X25094195Y10615134D01*
X25082448Y10629448D01*
X25025347Y10676309D01*
X25000204Y10689748D01*
X24998817Y10703835D01*
X24970644Y10796709D01*
X24924894Y10882302D01*
X24863324Y10957324D01*
X24788302Y11018894D01*
X24702709Y11064644D01*
X24609835Y11092817D01*
X24513250Y11102330D01*
X24000750Y11102330D01*
X23904165Y11092817D01*
X23811291Y11064644D01*
X23743000Y11028142D01*
X23743000Y11203268D01*
X23782000Y11199427D01*
X24000750Y11201000D01*
X24082000Y11282250D01*
X24082000Y11788500D01*
X24432000Y11788500D01*
X24432000Y11282250D01*
X24513250Y11201000D01*
X24732000Y11199427D01*
X24795711Y11205702D01*
X24856974Y11224286D01*
X24913434Y11254464D01*
X24962922Y11295078D01*
X25003536Y11344566D01*
X25033714Y11401026D01*
X25052298Y11462289D01*
X25058573Y11526000D01*
X25058409Y11545000D01*
X26228427Y11545000D01*
X26230000Y11051250D01*
X26311250Y10970000D01*
X27130000Y10970000D01*
X27130000Y11788750D01*
X27480000Y11788750D01*
X27480000Y10970000D01*
X28298750Y10970000D01*
X28380000Y11051250D01*
X28381573Y11545000D01*
X28375298Y11608711D01*
X28356714Y11669974D01*
X28326536Y11726434D01*
X28285922Y11775922D01*
X28236434Y11816536D01*
X28179974Y11846714D01*
X28118711Y11865298D01*
X28055000Y11871573D01*
X27561250Y11870000D01*
X27480000Y11788750D01*
X27130000Y11788750D01*
X27048750Y11870000D01*
X26555000Y11871573D01*
X26491289Y11865298D01*
X26430026Y11846714D01*
X26373566Y11816536D01*
X26324078Y11775922D01*
X26283464Y11726434D01*
X26253286Y11669974D01*
X26234702Y11608711D01*
X26228427Y11545000D01*
X25058409Y11545000D01*
X25057000Y11707250D01*
X24975750Y11788500D01*
X24432000Y11788500D01*
X24082000Y11788500D01*
X24062000Y11788500D01*
X24062000Y12138500D01*
X24082000Y12138500D01*
X24082000Y12158500D01*
X24432000Y12158500D01*
X24432000Y12138500D01*
X24975750Y12138500D01*
X25057000Y12219750D01*
X25058573Y12401000D01*
X25052298Y12464711D01*
X25033714Y12525974D01*
X25005371Y12579000D01*
X25255779Y12579000D01*
X25270509Y12504949D01*
%TA.AperFunction,Conductor*%
D26*
G36*
X25270509Y12504949D02*
G01*
X25286233Y12453112D01*
X25323742Y12362556D01*
X25349278Y12314781D01*
X25403734Y12233282D01*
X25438099Y12191407D01*
X25507407Y12122099D01*
X25549282Y12087734D01*
X25630781Y12033278D01*
X25678556Y12007742D01*
X25769112Y11970233D01*
X25820949Y11954509D01*
X25917082Y11935387D01*
X25970991Y11930077D01*
X25995553Y11930077D01*
X26020000Y11927669D01*
X26520000Y11927669D01*
X26573910Y11932979D01*
X26625747Y11948703D01*
X26670000Y11972357D01*
X26714253Y11948703D01*
X26766090Y11932979D01*
X26820000Y11927669D01*
X27320000Y11927669D01*
X27344447Y11930077D01*
X27369009Y11930077D01*
X27422918Y11935387D01*
X27519051Y11954509D01*
X27570888Y11970233D01*
X27661444Y12007742D01*
X27709219Y12033278D01*
X27790718Y12087734D01*
X27832593Y12122099D01*
X27901901Y12191407D01*
X27936266Y12233282D01*
X27990722Y12314781D01*
X28016258Y12362556D01*
X28053767Y12453112D01*
X28069491Y12504949D01*
X28084221Y12579000D01*
X28242894Y12579000D01*
X28256269Y12565625D01*
X28338161Y12510906D01*
X28429155Y12473215D01*
X28525754Y12454000D01*
X28624246Y12454000D01*
X28720845Y12473215D01*
X28811839Y12510906D01*
X28885000Y12559791D01*
X28885001Y928832D01*
X28784638Y1029195D01*
X28567623Y1174200D01*
X28326488Y1274081D01*
X28070501Y1325000D01*
X27809499Y1325000D01*
X27553512Y1274081D01*
X27312377Y1174200D01*
X27095362Y1029195D01*
X26910805Y844638D01*
X26765800Y627623D01*
X26670000Y396340D01*
X26574200Y627623D01*
X26429195Y844638D01*
X26244638Y1029195D01*
X26027623Y1174200D01*
X25786488Y1274081D01*
X25530501Y1325000D01*
X25269499Y1325000D01*
X25013512Y1274081D01*
X24772377Y1174200D01*
X24555362Y1029195D01*
X24370805Y844638D01*
X24225800Y627623D01*
X24130000Y396340D01*
X24034200Y627623D01*
X23889195Y844638D01*
X23704638Y1029195D01*
X23487623Y1174200D01*
X23246488Y1274081D01*
X22990501Y1325000D01*
X22729499Y1325000D01*
X22473512Y1274081D01*
X22232377Y1174200D01*
X22015362Y1029195D01*
X21830805Y844638D01*
X21685800Y627623D01*
X21590000Y396340D01*
X21494200Y627623D01*
X21349195Y844638D01*
X21164638Y1029195D01*
X20947623Y1174200D01*
X20706488Y1274081D01*
X20450501Y1325000D01*
X20189499Y1325000D01*
X19933512Y1274081D01*
X19692377Y1174200D01*
X19475362Y1029195D01*
X19290805Y844638D01*
X19145800Y627623D01*
X19050000Y396340D01*
X18954200Y627623D01*
X18809195Y844638D01*
X18624638Y1029195D01*
X18407623Y1174200D01*
X18181806Y1267736D01*
X18220309Y1314653D01*
X18255131Y1379800D01*
X18276574Y1450487D01*
X18282000Y1505581D01*
X18282000Y1505583D01*
X18283814Y1523999D01*
X18282000Y1542415D01*
X18282000Y1760779D01*
X18356051Y1775509D01*
X18407888Y1791233D01*
X18498444Y1828742D01*
X18546219Y1854278D01*
X18627718Y1908734D01*
X18669593Y1943099D01*
X18738901Y2012407D01*
X18770982Y2051500D01*
X19137427Y2051500D01*
X19143702Y1987789D01*
X19162286Y1926526D01*
X19192464Y1870066D01*
X19233078Y1820578D01*
X19282566Y1779964D01*
X19339026Y1749786D01*
X19400289Y1731202D01*
X19464000Y1724927D01*
X19682750Y1726500D01*
X19764000Y1807750D01*
X19764000Y2314000D01*
X20114000Y2314000D01*
X20114000Y1807750D01*
X20195250Y1726500D01*
X20414000Y1724927D01*
X20477711Y1731202D01*
X20538974Y1749786D01*
X20595434Y1779964D01*
X20644922Y1820578D01*
X20685536Y1870066D01*
X20715714Y1926526D01*
X20734298Y1987789D01*
X20740573Y2051500D01*
X20739000Y2232750D01*
X20657750Y2314000D01*
X20114000Y2314000D01*
X19764000Y2314000D01*
X19220250Y2314000D01*
X19139000Y2232750D01*
X19137427Y2051500D01*
X18770982Y2051500D01*
X18773266Y2054282D01*
X18827722Y2135781D01*
X18853258Y2183556D01*
X18890767Y2274112D01*
X18906491Y2325949D01*
X18925613Y2422082D01*
X18930923Y2475991D01*
X18930923Y2500553D01*
X18933331Y2525000D01*
X18933331Y2926500D01*
X19137427Y2926500D01*
X19139000Y2745250D01*
X19220250Y2664000D01*
X19764000Y2664000D01*
X19764000Y3170250D01*
X20114000Y3170250D01*
X20114000Y2664000D01*
X20657750Y2664000D01*
X20739000Y2745250D01*
X20740573Y2926500D01*
X20734298Y2990211D01*
X20715714Y3051474D01*
X20685536Y3107934D01*
X20644922Y3157422D01*
X20595434Y3198036D01*
X20538974Y3228214D01*
X20477711Y3246798D01*
X20414000Y3253073D01*
X20195250Y3251500D01*
X20114000Y3170250D01*
X19764000Y3170250D01*
X19682750Y3251500D01*
X19464000Y3253073D01*
X19400289Y3246798D01*
X19339026Y3228214D01*
X19282566Y3198036D01*
X19233078Y3157422D01*
X19192464Y3107934D01*
X19162286Y3051474D01*
X19143702Y2990211D01*
X19137427Y2926500D01*
X18933331Y2926500D01*
X18933331Y3025000D01*
X18928021Y3078910D01*
X18912297Y3130747D01*
X18888643Y3175000D01*
X18912297Y3219253D01*
X18928021Y3271090D01*
X18933331Y3325000D01*
X18933331Y3825000D01*
X18930923Y3849447D01*
X18930923Y3874009D01*
X18925613Y3927918D01*
X18906491Y4024051D01*
X18890767Y4075888D01*
X18853258Y4166444D01*
X18827722Y4214219D01*
X18773266Y4295718D01*
X18759170Y4312895D01*
X18766479Y4312895D01*
X18784895Y4311081D01*
X18803311Y4312895D01*
X18803314Y4312895D01*
X18858408Y4318321D01*
X18929095Y4339764D01*
X18994242Y4374586D01*
X19051343Y4421447D01*
X19063090Y4435761D01*
X19327639Y4700309D01*
X19341948Y4712052D01*
X19382294Y4761214D01*
X19388810Y4769153D01*
X19422452Y4832095D01*
X19423631Y4834300D01*
X19430925Y4858344D01*
X19441974Y4861696D01*
X19441974Y4802622D01*
X19458139Y4721355D01*
X19407698Y4694394D01*
X19332676Y4632824D01*
X19271106Y4557802D01*
X19225356Y4472209D01*
X19197183Y4379335D01*
X19187670Y4282750D01*
X19187670Y3845250D01*
X19197183Y3748665D01*
X19225356Y3655791D01*
X19271106Y3570198D01*
X19332676Y3495176D01*
X19407698Y3433606D01*
X19493291Y3387856D01*
X19586165Y3359683D01*
X19682750Y3350170D01*
X20195250Y3350170D01*
X20291835Y3359683D01*
X20384709Y3387856D01*
X20470302Y3433606D01*
X20545324Y3495176D01*
X20606894Y3570198D01*
X20652644Y3655791D01*
X20662718Y3689000D01*
X20831595Y3689000D01*
X20831980Y3685091D01*
X20846160Y3638342D01*
X20831464Y3620434D01*
X20801286Y3563974D01*
X20782702Y3502711D01*
X20776427Y3439000D01*
X20778000Y3370250D01*
X20859250Y3289000D01*
X21458000Y3289000D01*
X21458000Y3309000D01*
X21808000Y3309000D01*
X21808000Y3289000D01*
X21828000Y3289000D01*
X21828000Y2939000D01*
X21808000Y2939000D01*
X21808000Y2919000D01*
X21458000Y2919000D01*
X21458000Y2939000D01*
X20859250Y2939000D01*
X20778000Y2857750D01*
X20776427Y2789000D01*
X20782702Y2725289D01*
X20801286Y2664026D01*
X20831464Y2607566D01*
X20846160Y2589658D01*
X20831980Y2542909D01*
X20826670Y2489000D01*
X20826670Y1839000D01*
X20831980Y1785091D01*
X20847704Y1733253D01*
X20873240Y1685479D01*
X20907605Y1643605D01*
X20949479Y1609240D01*
X20997253Y1583704D01*
X21049091Y1567980D01*
X21103000Y1562670D01*
X22163000Y1562670D01*
X22216909Y1567980D01*
X22268747Y1583704D01*
X22316521Y1609240D01*
X22358395Y1643605D01*
X22392760Y1685479D01*
X22418296Y1733253D01*
X22434020Y1785091D01*
X22439330Y1839000D01*
X22439330Y1847475D01*
X22445347Y1850691D01*
X22502448Y1897552D01*
X22514195Y1911866D01*
X22731135Y2128806D01*
X22745448Y2140552D01*
X22792309Y2197653D01*
X22827131Y2262800D01*
X22848574Y2333487D01*
X22854000Y2388581D01*
X22854000Y2388584D01*
X22855814Y2407000D01*
X22854000Y2425416D01*
X22854000Y2489000D01*
X23026670Y2489000D01*
X23026670Y1839000D01*
X23031980Y1785091D01*
X23047704Y1733253D01*
X23073240Y1685479D01*
X23107605Y1643605D01*
X23149479Y1609240D01*
X23197253Y1583704D01*
X23249091Y1567980D01*
X23303000Y1562670D01*
X24363000Y1562670D01*
X24416909Y1567980D01*
X24468747Y1583704D01*
X24516521Y1609240D01*
X24558395Y1643605D01*
X24592760Y1685479D01*
X24618296Y1733253D01*
X24634020Y1785091D01*
X24639330Y1839000D01*
X24639330Y2489000D01*
X24634020Y2542909D01*
X24618296Y2594747D01*
X24592760Y2642521D01*
X24558395Y2684395D01*
X24516521Y2718760D01*
X24468747Y2744296D01*
X24416909Y2760020D01*
X24363000Y2765330D01*
X23303000Y2765330D01*
X23249091Y2760020D01*
X23197253Y2744296D01*
X23149479Y2718760D01*
X23107605Y2684395D01*
X23073240Y2642521D01*
X23047704Y2594747D01*
X23031980Y2542909D01*
X23026670Y2489000D01*
X22854000Y2489000D01*
X22854000Y3802584D01*
X22855814Y3821000D01*
X22854000Y3839419D01*
X22848574Y3894513D01*
X22827131Y3965200D01*
X22792309Y4030347D01*
X22745448Y4087448D01*
X22731134Y4099195D01*
X22514195Y4316134D01*
X22502448Y4330448D01*
X22445347Y4377309D01*
X22439330Y4380525D01*
X22439330Y4389000D01*
X22434020Y4442909D01*
X22418296Y4494747D01*
X22392760Y4542521D01*
X22358395Y4584395D01*
X22316521Y4618760D01*
X22268747Y4644296D01*
X22216909Y4660020D01*
X22163000Y4665330D01*
X21103000Y4665330D01*
X21049091Y4660020D01*
X20997253Y4644296D01*
X20949479Y4618760D01*
X20907605Y4584395D01*
X20873240Y4542521D01*
X20847704Y4494747D01*
X20831980Y4442909D01*
X20831595Y4439000D01*
X20662718Y4439000D01*
X20652644Y4472209D01*
X20647433Y4481958D01*
X20675843Y4484756D01*
X20746530Y4506199D01*
X20811677Y4541021D01*
X20868778Y4587882D01*
X20880525Y4602196D01*
X21350144Y5071813D01*
X21364448Y5083552D01*
X21376186Y5097855D01*
X21376189Y5097858D01*
X21411309Y5140653D01*
X21446130Y5205798D01*
X21446405Y5206703D01*
X21467574Y5276487D01*
X21473000Y5331581D01*
X21473000Y5331583D01*
X21474814Y5349999D01*
X21473000Y5368415D01*
X21473000Y5568670D01*
X21548000Y5568670D01*
X21611664Y5574940D01*
X21672881Y5593510D01*
X21698000Y5606937D01*
X21723119Y5593510D01*
X21784336Y5574940D01*
X21848000Y5568670D01*
X21948000Y5568670D01*
X22011664Y5574940D01*
X22072881Y5593510D01*
X22098000Y5606937D01*
X22123119Y5593510D01*
X22184336Y5574940D01*
X22248000Y5568670D01*
X22348000Y5568670D01*
X22411664Y5574940D01*
X22472881Y5593510D01*
X22498000Y5606937D01*
X22523119Y5593510D01*
X22584336Y5574940D01*
X22648000Y5568670D01*
X22748000Y5568670D01*
X22811664Y5574940D01*
X22872881Y5593510D01*
X22898000Y5606937D01*
X22923119Y5593510D01*
X22984336Y5574940D01*
X23048000Y5568670D01*
X23148000Y5568670D01*
X23211664Y5574940D01*
X23272881Y5593510D01*
X23329299Y5623667D01*
X23378750Y5664250D01*
X23419333Y5713701D01*
X23449490Y5770119D01*
X23468060Y5831336D01*
X23474330Y5895000D01*
X23474330Y6243670D01*
X23706001Y6243670D01*
X23755000Y6194670D01*
X23755001Y5455000D01*
X23700106Y5455000D01*
X23686731Y5468375D01*
X23604839Y5523094D01*
X23513845Y5560785D01*
X23417246Y5580000D01*
X23318754Y5580000D01*
X23222155Y5560785D01*
X23131161Y5523094D01*
X23049269Y5468375D01*
X22979625Y5398731D01*
X22924906Y5316839D01*
X22887215Y5225845D01*
X22868000Y5129246D01*
X22868000Y5030754D01*
X22887215Y4934155D01*
X22924906Y4843161D01*
X22979625Y4761269D01*
X23049269Y4691625D01*
X23131161Y4636906D01*
X23160608Y4624709D01*
X23149479Y4618760D01*
X23107605Y4584395D01*
X23073240Y4542521D01*
X23047704Y4494747D01*
X23031980Y4442909D01*
X23026670Y4389000D01*
X23026670Y3739000D01*
X23031980Y3685091D01*
X23047704Y3633253D01*
X23073240Y3585479D01*
X23107605Y3543605D01*
X23149479Y3509240D01*
X23197253Y3483704D01*
X23249091Y3467980D01*
X23303000Y3462670D01*
X24363000Y3462670D01*
X24390000Y3465329D01*
X24390000Y3462584D01*
X24390001Y3462575D01*
X24390000Y3037167D01*
X24388186Y3018750D01*
X24390000Y3000334D01*
X24390000Y3000332D01*
X24395426Y2945238D01*
X24416869Y2874551D01*
X24451691Y2809404D01*
X24498552Y2752302D01*
X24512866Y2740555D01*
X24965559Y2287861D01*
X24977302Y2273552D01*
X24991609Y2261811D01*
X25034403Y2226690D01*
X25078857Y2202930D01*
X25099550Y2191869D01*
X25170237Y2170426D01*
X25183662Y2169104D01*
X25206356Y2094291D01*
X25252106Y2008698D01*
X25313676Y1933676D01*
X25388698Y1872106D01*
X25474291Y1826356D01*
X25567165Y1798183D01*
X25663750Y1788670D01*
X26101250Y1788670D01*
X26197835Y1798183D01*
X26290709Y1826356D01*
X26376302Y1872106D01*
X26451324Y1933676D01*
X26512894Y2008698D01*
X26542987Y2065000D01*
X26693427Y2065000D01*
X26699702Y2001289D01*
X26718286Y1940026D01*
X26748464Y1883566D01*
X26789078Y1834078D01*
X26838566Y1793464D01*
X26895026Y1763286D01*
X26956289Y1744702D01*
X27020000Y1738427D01*
X27201250Y1740000D01*
X27282500Y1821250D01*
X27282500Y2365000D01*
X27632500Y2365000D01*
X27632500Y1821250D01*
X27713750Y1740000D01*
X27895000Y1738427D01*
X27958711Y1744702D01*
X28019974Y1763286D01*
X28076434Y1793464D01*
X28125922Y1834078D01*
X28166536Y1883566D01*
X28196714Y1940026D01*
X28215298Y2001289D01*
X28221573Y2065000D01*
X28220000Y2283750D01*
X28138750Y2365000D01*
X27632500Y2365000D01*
X27282500Y2365000D01*
X26776250Y2365000D01*
X26695000Y2283750D01*
X26693427Y2065000D01*
X26542987Y2065000D01*
X26558644Y2094291D01*
X26586817Y2187165D01*
X26596330Y2283750D01*
X26596330Y2796250D01*
X26586817Y2892835D01*
X26558644Y2985709D01*
X26542988Y3015000D01*
X26693427Y3015000D01*
X26695000Y2796250D01*
X26776250Y2715000D01*
X27282500Y2715000D01*
X27282500Y3258750D01*
X27632500Y3258750D01*
X27632500Y2715000D01*
X28138750Y2715000D01*
X28220000Y2796250D01*
X28221573Y3015000D01*
X28215298Y3078711D01*
X28196714Y3139974D01*
X28166536Y3196434D01*
X28125922Y3245922D01*
X28076434Y3286536D01*
X28019974Y3316714D01*
X27958711Y3335298D01*
X27895000Y3341573D01*
X27713750Y3340000D01*
X27632500Y3258750D01*
X27282500Y3258750D01*
X27201250Y3340000D01*
X27020000Y3341573D01*
X26956289Y3335298D01*
X26895026Y3316714D01*
X26838566Y3286536D01*
X26789078Y3245922D01*
X26748464Y3196434D01*
X26718286Y3139974D01*
X26699702Y3078711D01*
X26693427Y3015000D01*
X26542988Y3015000D01*
X26512894Y3071302D01*
X26451324Y3146324D01*
X26376302Y3207894D01*
X26290709Y3253644D01*
X26197835Y3281817D01*
X26101250Y3291330D01*
X25663750Y3291330D01*
X25567165Y3281817D01*
X25474291Y3253644D01*
X25388698Y3207894D01*
X25313676Y3146324D01*
X25252106Y3071302D01*
X25248857Y3065223D01*
X25140000Y3174079D01*
X25140000Y4045581D01*
X25141814Y4064000D01*
X25140633Y4076000D01*
X26355427Y4076000D01*
X26361702Y4012289D01*
X26380286Y3951026D01*
X26410464Y3894566D01*
X26451078Y3845078D01*
X26500566Y3804464D01*
X26557026Y3774286D01*
X26618289Y3755702D01*
X26682000Y3749427D01*
X27175750Y3751000D01*
X27257000Y3832250D01*
X27257000Y4651000D01*
X27607000Y4651000D01*
X27607000Y3832250D01*
X27688250Y3751000D01*
X28182000Y3749427D01*
X28245711Y3755702D01*
X28306974Y3774286D01*
X28363434Y3804464D01*
X28412922Y3845078D01*
X28453536Y3894566D01*
X28483714Y3951026D01*
X28502298Y4012289D01*
X28508573Y4076000D01*
X28507000Y4569750D01*
X28425750Y4651000D01*
X27607000Y4651000D01*
X27257000Y4651000D01*
X26438250Y4651000D01*
X26357000Y4569750D01*
X26355427Y4076000D01*
X25140633Y4076000D01*
X25140000Y4082419D01*
X25140000Y5576000D01*
X26355427Y5576000D01*
X26357000Y5082250D01*
X26438250Y5001000D01*
X27257000Y5001000D01*
X27257000Y5819750D01*
X27607000Y5819750D01*
X27607000Y5001000D01*
X28425750Y5001000D01*
X28507000Y5082250D01*
X28508573Y5576000D01*
X28502298Y5639711D01*
X28483714Y5700974D01*
X28453536Y5757434D01*
X28412922Y5806922D01*
X28363434Y5847536D01*
X28306974Y5877714D01*
X28245711Y5896298D01*
X28182000Y5902573D01*
X27688250Y5901000D01*
X27607000Y5819750D01*
X27257000Y5819750D01*
X27175750Y5901000D01*
X26682000Y5902573D01*
X26618289Y5896298D01*
X26557026Y5877714D01*
X26500566Y5847536D01*
X26451078Y5806922D01*
X26410464Y5757434D01*
X26380286Y5700974D01*
X26361702Y5639711D01*
X26355427Y5576000D01*
X25140000Y5576000D01*
X25140000Y6458584D01*
X25141814Y6477000D01*
X25139958Y6495845D01*
X25135236Y6543794D01*
X25223083Y6580181D01*
X25309070Y6637636D01*
X25382196Y6710762D01*
X25439651Y6796749D01*
X25479226Y6892293D01*
X25499402Y6993722D01*
X25499402Y7097138D01*
X25479226Y7198567D01*
X25439651Y7294111D01*
X25382196Y7380098D01*
X25309070Y7453224D01*
X25223083Y7510679D01*
X25127539Y7550254D01*
X25026110Y7570430D01*
X24979731Y7570430D01*
X24878027Y7672134D01*
X24874335Y7676633D01*
X26730000Y7676633D01*
X26730000Y7563367D01*
X26752097Y7452279D01*
X26795442Y7347635D01*
X26858368Y7253459D01*
X26938459Y7173368D01*
X27032635Y7110442D01*
X27137279Y7067097D01*
X27248367Y7045000D01*
X27361633Y7045000D01*
X27472721Y7067097D01*
X27577365Y7110442D01*
X27671541Y7173368D01*
X27751632Y7253459D01*
X27814558Y7347635D01*
X27857903Y7452279D01*
X27880000Y7563367D01*
X27880000Y7676633D01*
X27857903Y7787721D01*
X27814558Y7892365D01*
X27751632Y7986541D01*
X27671541Y8066632D01*
X27577365Y8129558D01*
X27472721Y8172903D01*
X27361633Y8195000D01*
X27248367Y8195000D01*
X27137279Y8172903D01*
X27032635Y8129558D01*
X26938459Y8066632D01*
X26858368Y7986541D01*
X26795442Y7892365D01*
X26752097Y7787721D01*
X26730000Y7676633D01*
X24874335Y7676633D01*
X24866280Y7686448D01*
X24809179Y7733309D01*
X24786018Y7745689D01*
X25271140Y8230810D01*
X25285448Y8242552D01*
X25332309Y8299653D01*
X25344623Y8322691D01*
X25367130Y8364798D01*
X25367131Y8364801D01*
X25388574Y8435487D01*
X25394000Y8490581D01*
X25394000Y8490583D01*
X25395814Y8508999D01*
X25394000Y8527419D01*
X25394000Y10045000D01*
X26228427Y10045000D01*
X26234702Y9981289D01*
X26253286Y9920026D01*
X26283464Y9863566D01*
X26324078Y9814078D01*
X26373566Y9773464D01*
X26430026Y9743286D01*
X26491289Y9724702D01*
X26555000Y9718427D01*
X27048750Y9720000D01*
X27130000Y9801250D01*
X27130000Y10620000D01*
X27480000Y10620000D01*
X27480000Y9801250D01*
X27561250Y9720000D01*
X28055000Y9718427D01*
X28118711Y9724702D01*
X28179974Y9743286D01*
X28236434Y9773464D01*
X28285922Y9814078D01*
X28326536Y9863566D01*
X28356714Y9920026D01*
X28375298Y9981289D01*
X28381573Y10045000D01*
X28380000Y10538750D01*
X28298750Y10620000D01*
X27480000Y10620000D01*
X27130000Y10620000D01*
X26311250Y10620000D01*
X26230000Y10538750D01*
X26228427Y10045000D01*
X25394000Y10045000D01*
X25394000Y10141585D01*
X25395814Y10160001D01*
X25393393Y10184582D01*
X25388574Y10233513D01*
X25367131Y10304200D01*
X25332309Y10369347D01*
X25285448Y10426448D01*
X25271134Y10438195D01*
X25094195Y10615134D01*
X25082448Y10629448D01*
X25025347Y10676309D01*
X25000204Y10689748D01*
X24998817Y10703835D01*
X24970644Y10796709D01*
X24924894Y10882302D01*
X24863324Y10957324D01*
X24788302Y11018894D01*
X24702709Y11064644D01*
X24609835Y11092817D01*
X24513250Y11102330D01*
X24000750Y11102330D01*
X23904165Y11092817D01*
X23811291Y11064644D01*
X23743000Y11028142D01*
X23743000Y11203268D01*
X23782000Y11199427D01*
X24000750Y11201000D01*
X24082000Y11282250D01*
X24082000Y11788500D01*
X24432000Y11788500D01*
X24432000Y11282250D01*
X24513250Y11201000D01*
X24732000Y11199427D01*
X24795711Y11205702D01*
X24856974Y11224286D01*
X24913434Y11254464D01*
X24962922Y11295078D01*
X25003536Y11344566D01*
X25033714Y11401026D01*
X25052298Y11462289D01*
X25058573Y11526000D01*
X25058409Y11545000D01*
X26228427Y11545000D01*
X26230000Y11051250D01*
X26311250Y10970000D01*
X27130000Y10970000D01*
X27130000Y11788750D01*
X27480000Y11788750D01*
X27480000Y10970000D01*
X28298750Y10970000D01*
X28380000Y11051250D01*
X28381573Y11545000D01*
X28375298Y11608711D01*
X28356714Y11669974D01*
X28326536Y11726434D01*
X28285922Y11775922D01*
X28236434Y11816536D01*
X28179974Y11846714D01*
X28118711Y11865298D01*
X28055000Y11871573D01*
X27561250Y11870000D01*
X27480000Y11788750D01*
X27130000Y11788750D01*
X27048750Y11870000D01*
X26555000Y11871573D01*
X26491289Y11865298D01*
X26430026Y11846714D01*
X26373566Y11816536D01*
X26324078Y11775922D01*
X26283464Y11726434D01*
X26253286Y11669974D01*
X26234702Y11608711D01*
X26228427Y11545000D01*
X25058409Y11545000D01*
X25057000Y11707250D01*
X24975750Y11788500D01*
X24432000Y11788500D01*
X24082000Y11788500D01*
X24062000Y11788500D01*
X24062000Y12138500D01*
X24082000Y12138500D01*
X24082000Y12158500D01*
X24432000Y12158500D01*
X24432000Y12138500D01*
X24975750Y12138500D01*
X25057000Y12219750D01*
X25058573Y12401000D01*
X25052298Y12464711D01*
X25033714Y12525974D01*
X25005371Y12579000D01*
X25255779Y12579000D01*
X25270509Y12504949D01*
G37*
%TD.AperFunction*%
D29*
X2801630Y15254142D02*
X2787487Y15240000D01*
X3574903Y14452584D01*
X3751641Y14576003D01*
X3837491Y14777291D01*
X3905800Y14612377D01*
X4050805Y14395362D01*
X4235362Y14210805D01*
X4452377Y14065800D01*
X4693512Y13965919D01*
X4949499Y13915000D01*
X5210501Y13915000D01*
X5466488Y13965919D01*
X5707623Y14065800D01*
X5717362Y14072308D01*
X5843859Y13945811D01*
X5843864Y13945807D01*
X6422195Y13367475D01*
X6408980Y13323909D01*
X6403670Y13270000D01*
X6403670Y11715581D01*
X6096330Y12022920D01*
X6096330Y12321250D01*
X6086817Y12417835D01*
X6058644Y12510709D01*
X6012894Y12596302D01*
X5951324Y12671324D01*
X5876302Y12732894D01*
X5790709Y12778644D01*
X5697835Y12806817D01*
X5601250Y12816330D01*
X5163750Y12816330D01*
X5067165Y12806817D01*
X4974291Y12778644D01*
X4888698Y12732894D01*
X4813676Y12671324D01*
X4752106Y12596302D01*
X4706356Y12510709D01*
X4678183Y12417835D01*
X4668670Y12321250D01*
X4668670Y11808750D01*
X4678183Y11712165D01*
X4706356Y11619291D01*
X4752106Y11533698D01*
X4813676Y11458676D01*
X4888698Y11397106D01*
X4974291Y11351356D01*
X5067165Y11323183D01*
X5163750Y11313670D01*
X5462080Y11313670D01*
X5495420Y11280330D01*
X5204750Y11280330D01*
X5108165Y11270817D01*
X5015291Y11242644D01*
X4929698Y11196894D01*
X4854676Y11135324D01*
X4793106Y11060302D01*
X4747356Y10974709D01*
X4744866Y10966500D01*
X4653134Y10966500D01*
X4650644Y10974709D01*
X4604894Y11060302D01*
X4543324Y11135324D01*
X4468302Y11196894D01*
X4382709Y11242644D01*
X4297236Y11268572D01*
X4308711Y11269702D01*
X4369974Y11288286D01*
X4426434Y11318464D01*
X4475922Y11359078D01*
X4516536Y11408566D01*
X4546714Y11465026D01*
X4565298Y11526289D01*
X4571573Y11590000D01*
X4570000Y11808750D01*
X4488750Y11890000D01*
X3982500Y11890000D01*
X3982500Y11870000D01*
X3632500Y11870000D01*
X3632500Y11890000D01*
X3126250Y11890000D01*
X3045000Y11808750D01*
X3043427Y11590000D01*
X3049702Y11526289D01*
X3068286Y11465026D01*
X3098464Y11408566D01*
X3139078Y11359078D01*
X3188566Y11318464D01*
X3245026Y11288286D01*
X3306289Y11269702D01*
X3370000Y11263427D01*
X3551250Y11265000D01*
X3632498Y11346248D01*
X3632498Y11275577D01*
X3584165Y11270817D01*
X3491291Y11242644D01*
X3405698Y11196894D01*
X3330676Y11135324D01*
X3269106Y11060302D01*
X3223356Y10974709D01*
X3195183Y10881835D01*
X3185670Y10785250D01*
X3185670Y10347750D01*
X3195183Y10251165D01*
X3223356Y10158291D01*
X3269106Y10072698D01*
X3330676Y9997676D01*
X3405698Y9936106D01*
X3491291Y9890356D01*
X3584165Y9862183D01*
X3680750Y9852670D01*
X4193250Y9852670D01*
X4289835Y9862183D01*
X4382709Y9890356D01*
X4468302Y9936106D01*
X4543324Y9997676D01*
X4604894Y10072698D01*
X4650644Y10158291D01*
X4653134Y10166500D01*
X4744866Y10166500D01*
X4747356Y10158291D01*
X4793106Y10072698D01*
X4854676Y9997676D01*
X4929698Y9936106D01*
X5015291Y9890356D01*
X5108165Y9862183D01*
X5204750Y9852670D01*
X5717250Y9852670D01*
X5813835Y9862183D01*
X5906709Y9890356D01*
X5992302Y9936106D01*
X6067324Y9997676D01*
X6128894Y10072698D01*
X6174644Y10158291D01*
X6202817Y10251165D01*
X6212330Y10347750D01*
X6212330Y10610847D01*
X6213840Y10610040D01*
X6276216Y10591118D01*
X6303377Y10582879D01*
X6396493Y10573708D01*
X6419826Y10576006D01*
X7904860Y10576006D01*
X7976863Y10546182D01*
X8078292Y10526006D01*
X8181708Y10526006D01*
X8283137Y10546182D01*
X8352289Y10574825D01*
X8360668Y10574000D01*
X8985668Y10574000D01*
X9009000Y10571702D01*
X9032332Y10574000D01*
X9102116Y10580873D01*
X9191654Y10608034D01*
X9274173Y10652141D01*
X9346501Y10711499D01*
X9361384Y10729634D01*
X9549366Y10917616D01*
X9567501Y10932499D01*
X9626859Y11004827D01*
X9670966Y11087346D01*
X9695519Y11168286D01*
X9698127Y11176883D01*
X9700808Y11204106D01*
X9735747Y11214704D01*
X9780000Y11238358D01*
X9824253Y11214704D01*
X9876091Y11198980D01*
X9930000Y11193670D01*
X10730000Y11193670D01*
X10783909Y11198980D01*
X10835747Y11214704D01*
X10880000Y11238358D01*
X10924253Y11214704D01*
X10976091Y11198980D01*
X11030000Y11193670D01*
X11055001Y11193670D01*
X11055000Y9162416D01*
X11053186Y9144000D01*
X11055000Y9125584D01*
X11055000Y9125582D01*
X11060426Y9070488D01*
X11081869Y8999801D01*
X11116691Y8934654D01*
X11163552Y8877552D01*
X11177866Y8865805D01*
X15997340Y4046330D01*
X15480000Y4046330D01*
X15426091Y4041020D01*
X15374253Y4025296D01*
X15326479Y3999760D01*
X15305000Y3982133D01*
X15283521Y3999760D01*
X15235747Y4025296D01*
X15183909Y4041020D01*
X15130000Y4046330D01*
X14330000Y4046330D01*
X14276091Y4041020D01*
X14224253Y4025296D01*
X14180000Y4001642D01*
X14135747Y4025296D01*
X14083909Y4041020D01*
X14030000Y4046330D01*
X13230000Y4046330D01*
X13176091Y4041020D01*
X13124253Y4025296D01*
X13080000Y4001642D01*
X13035747Y4025296D01*
X12983909Y4041020D01*
X12930000Y4046330D01*
X12130000Y4046330D01*
X12076091Y4041020D01*
X12024253Y4025296D01*
X11980000Y4001642D01*
X11935747Y4025296D01*
X11905000Y4034622D01*
X11905000Y4421668D01*
X11907298Y4445001D01*
X11898127Y4538117D01*
X11886592Y4576141D01*
X11870966Y4627654D01*
X11826859Y4710173D01*
X11767501Y4782501D01*
X11749372Y4797379D01*
X7591378Y8955372D01*
X7591373Y8955378D01*
X7235884Y9310866D01*
X7221001Y9329001D01*
X7148673Y9388359D01*
X7066154Y9432466D01*
X6976616Y9459627D01*
X6906832Y9466500D01*
X6883500Y9468798D01*
X6860168Y9466500D01*
X6138944Y9466500D01*
X6128894Y9485302D01*
X6067324Y9560324D01*
X5992302Y9621894D01*
X5906709Y9667644D01*
X5813835Y9695817D01*
X5717250Y9705330D01*
X5204750Y9705330D01*
X5108165Y9695817D01*
X5015291Y9667644D01*
X4929698Y9621894D01*
X4854676Y9560324D01*
X4793106Y9485302D01*
X4747356Y9399709D01*
X4719183Y9306835D01*
X4709670Y9210250D01*
X4709670Y8772750D01*
X4719183Y8676165D01*
X4747356Y8583291D01*
X4793106Y8497698D01*
X4854676Y8422676D01*
X4929698Y8361106D01*
X4970292Y8339408D01*
X4951291Y8333644D01*
X4865698Y8287894D01*
X4790676Y8226324D01*
X4729106Y8151302D01*
X4683356Y8065709D01*
X4655183Y7972835D01*
X4645670Y7876250D01*
X4645670Y7363750D01*
X4655183Y7267165D01*
X4683356Y7174291D01*
X4729106Y7088698D01*
X4790676Y7013676D01*
X4865698Y6952106D01*
X4906654Y6930214D01*
X4888291Y6924644D01*
X4802698Y6878894D01*
X4727676Y6817324D01*
X4666106Y6742302D01*
X4635500Y6685042D01*
X4604894Y6742302D01*
X4543324Y6817324D01*
X4468302Y6878894D01*
X4382709Y6924644D01*
X4329925Y6940656D01*
X4316854Y6983746D01*
X4353324Y7013676D01*
X4414894Y7088698D01*
X4460644Y7174291D01*
X4488817Y7267165D01*
X4498330Y7363750D01*
X4498330Y7876250D01*
X4488817Y7972835D01*
X4460644Y8065709D01*
X4414894Y8151302D01*
X4353324Y8226324D01*
X4316854Y8256254D01*
X4329925Y8299344D01*
X4382709Y8315356D01*
X4468302Y8361106D01*
X4543324Y8422676D01*
X4604894Y8497698D01*
X4650644Y8583291D01*
X4678817Y8676165D01*
X4688330Y8772750D01*
X4688330Y9210250D01*
X4678817Y9306835D01*
X4650644Y9399709D01*
X4604894Y9485302D01*
X4543324Y9560324D01*
X4468302Y9621894D01*
X4382709Y9667644D01*
X4289835Y9695817D01*
X4193250Y9705330D01*
X3680750Y9705330D01*
X3584165Y9695817D01*
X3491291Y9667644D01*
X3405698Y9621894D01*
X3330676Y9560324D01*
X3269106Y9485302D01*
X3223356Y9399709D01*
X3195183Y9306835D01*
X3185670Y9210250D01*
X3185670Y8772750D01*
X3195183Y8676165D01*
X3223356Y8583291D01*
X3269106Y8497698D01*
X3330676Y8422676D01*
X3405698Y8361106D01*
X3406322Y8360772D01*
X3400303Y8340928D01*
X3376291Y8333644D01*
X3290698Y8287894D01*
X3215676Y8226324D01*
X3154106Y8151302D01*
X3124012Y8095000D01*
X2511330Y8095000D01*
X2511330Y8255000D01*
X2506020Y8308909D01*
X2490296Y8360747D01*
X2464760Y8408521D01*
X2430395Y8450395D01*
X2388521Y8484760D01*
X2340747Y8510296D01*
X2288909Y8526020D01*
X2235000Y8531330D01*
X1582764Y8531330D01*
X1586573Y8570000D01*
X1585000Y8838750D01*
X1503750Y8920000D01*
X335000Y8920000D01*
X335000Y8900000D01*
X-15000Y8900000D01*
X-15000Y8920000D01*
X-35000Y8920000D01*
X-35000Y9270000D01*
X-15000Y9270000D01*
X-15000Y9290000D01*
X335000Y9290000D01*
X335000Y9270000D01*
X1503750Y9270000D01*
X1585000Y9351250D01*
X1585545Y9444408D01*
X2735000Y9443427D01*
X2798711Y9449702D01*
X2859974Y9468286D01*
X2916434Y9498464D01*
X2965922Y9539078D01*
X3006536Y9588566D01*
X3036714Y9645026D01*
X3055298Y9706289D01*
X3061573Y9770000D01*
X3060000Y10188750D01*
X2978750Y10270000D01*
X810000Y10270000D01*
X810000Y10250000D01*
X460000Y10250000D01*
X460000Y10270000D01*
X440000Y10270000D01*
X440000Y10620000D01*
X460000Y10620000D01*
X460000Y11363750D01*
X810000Y11363750D01*
X810000Y10620000D01*
X2978750Y10620000D01*
X3060000Y10701250D01*
X3061573Y11120000D01*
X3055298Y11183711D01*
X3036714Y11244974D01*
X3006536Y11301434D01*
X2965922Y11350922D01*
X2916434Y11391536D01*
X2859974Y11421714D01*
X2798711Y11440298D01*
X2735000Y11446573D01*
X891250Y11445000D01*
X810000Y11363750D01*
X460000Y11363750D01*
X378750Y11445000D01*
X-945000Y11446129D01*
X-945000Y12540000D01*
X3043427Y12540000D01*
X3045000Y12321250D01*
X3126250Y12240000D01*
X3632500Y12240000D01*
X3632500Y12783750D01*
X3982500Y12783750D01*
X3982500Y12240000D01*
X4488750Y12240000D01*
X4570000Y12321250D01*
X4571573Y12540000D01*
X4565298Y12603711D01*
X4546714Y12664974D01*
X4516536Y12721434D01*
X4475922Y12770922D01*
X4426434Y12811536D01*
X4369974Y12841714D01*
X4308711Y12860298D01*
X4245000Y12866573D01*
X4063750Y12865000D01*
X3982500Y12783750D01*
X3632500Y12783750D01*
X3551250Y12865000D01*
X3370000Y12866573D01*
X3306289Y12860298D01*
X3245026Y12841714D01*
X3188566Y12811536D01*
X3139078Y12770922D01*
X3098464Y12721434D01*
X3068286Y12664974D01*
X3049702Y12603711D01*
X3043427Y12540000D01*
X-945000Y12540000D01*
X-945000Y14311167D01*
X-844638Y14210805D01*
X-627623Y14065800D01*
X-386488Y13965919D01*
X-130501Y13915000D01*
X130501Y13915000D01*
X386488Y13965919D01*
X627623Y14065800D01*
X836095Y14205097D01*
X1752584Y14205097D01*
X1876003Y14028359D01*
X2125141Y13922101D01*
X2390222Y13866489D01*
X2661059Y13863660D01*
X2927243Y13913723D01*
X3178546Y14014754D01*
X3203997Y14028359D01*
X3327416Y14205097D01*
X2540000Y14992513D01*
X1752584Y14205097D01*
X836095Y14205097D01*
X844638Y14210805D01*
X1029195Y14395362D01*
X1174200Y14612377D01*
X1243298Y14779194D01*
X1314754Y14601454D01*
X1328359Y14576003D01*
X1505097Y14452584D01*
X2292513Y15240000D01*
X2278371Y15254142D01*
X2525858Y15501629D01*
X2540000Y15487487D01*
X2554143Y15501629D01*
X2801630Y15254142D01*
%TA.AperFunction,Conductor*%
D26*
G36*
X2801630Y15254142D02*
G01*
X2787487Y15240000D01*
X3574903Y14452584D01*
X3751641Y14576003D01*
X3837491Y14777291D01*
X3905800Y14612377D01*
X4050805Y14395362D01*
X4235362Y14210805D01*
X4452377Y14065800D01*
X4693512Y13965919D01*
X4949499Y13915000D01*
X5210501Y13915000D01*
X5466488Y13965919D01*
X5707623Y14065800D01*
X5717362Y14072308D01*
X5843859Y13945811D01*
X5843864Y13945807D01*
X6422195Y13367475D01*
X6408980Y13323909D01*
X6403670Y13270000D01*
X6403670Y11715581D01*
X6096330Y12022920D01*
X6096330Y12321250D01*
X6086817Y12417835D01*
X6058644Y12510709D01*
X6012894Y12596302D01*
X5951324Y12671324D01*
X5876302Y12732894D01*
X5790709Y12778644D01*
X5697835Y12806817D01*
X5601250Y12816330D01*
X5163750Y12816330D01*
X5067165Y12806817D01*
X4974291Y12778644D01*
X4888698Y12732894D01*
X4813676Y12671324D01*
X4752106Y12596302D01*
X4706356Y12510709D01*
X4678183Y12417835D01*
X4668670Y12321250D01*
X4668670Y11808750D01*
X4678183Y11712165D01*
X4706356Y11619291D01*
X4752106Y11533698D01*
X4813676Y11458676D01*
X4888698Y11397106D01*
X4974291Y11351356D01*
X5067165Y11323183D01*
X5163750Y11313670D01*
X5462080Y11313670D01*
X5495420Y11280330D01*
X5204750Y11280330D01*
X5108165Y11270817D01*
X5015291Y11242644D01*
X4929698Y11196894D01*
X4854676Y11135324D01*
X4793106Y11060302D01*
X4747356Y10974709D01*
X4744866Y10966500D01*
X4653134Y10966500D01*
X4650644Y10974709D01*
X4604894Y11060302D01*
X4543324Y11135324D01*
X4468302Y11196894D01*
X4382709Y11242644D01*
X4297236Y11268572D01*
X4308711Y11269702D01*
X4369974Y11288286D01*
X4426434Y11318464D01*
X4475922Y11359078D01*
X4516536Y11408566D01*
X4546714Y11465026D01*
X4565298Y11526289D01*
X4571573Y11590000D01*
X4570000Y11808750D01*
X4488750Y11890000D01*
X3982500Y11890000D01*
X3982500Y11870000D01*
X3632500Y11870000D01*
X3632500Y11890000D01*
X3126250Y11890000D01*
X3045000Y11808750D01*
X3043427Y11590000D01*
X3049702Y11526289D01*
X3068286Y11465026D01*
X3098464Y11408566D01*
X3139078Y11359078D01*
X3188566Y11318464D01*
X3245026Y11288286D01*
X3306289Y11269702D01*
X3370000Y11263427D01*
X3551250Y11265000D01*
X3632498Y11346248D01*
X3632498Y11275577D01*
X3584165Y11270817D01*
X3491291Y11242644D01*
X3405698Y11196894D01*
X3330676Y11135324D01*
X3269106Y11060302D01*
X3223356Y10974709D01*
X3195183Y10881835D01*
X3185670Y10785250D01*
X3185670Y10347750D01*
X3195183Y10251165D01*
X3223356Y10158291D01*
X3269106Y10072698D01*
X3330676Y9997676D01*
X3405698Y9936106D01*
X3491291Y9890356D01*
X3584165Y9862183D01*
X3680750Y9852670D01*
X4193250Y9852670D01*
X4289835Y9862183D01*
X4382709Y9890356D01*
X4468302Y9936106D01*
X4543324Y9997676D01*
X4604894Y10072698D01*
X4650644Y10158291D01*
X4653134Y10166500D01*
X4744866Y10166500D01*
X4747356Y10158291D01*
X4793106Y10072698D01*
X4854676Y9997676D01*
X4929698Y9936106D01*
X5015291Y9890356D01*
X5108165Y9862183D01*
X5204750Y9852670D01*
X5717250Y9852670D01*
X5813835Y9862183D01*
X5906709Y9890356D01*
X5992302Y9936106D01*
X6067324Y9997676D01*
X6128894Y10072698D01*
X6174644Y10158291D01*
X6202817Y10251165D01*
X6212330Y10347750D01*
X6212330Y10610847D01*
X6213840Y10610040D01*
X6276216Y10591118D01*
X6303377Y10582879D01*
X6396493Y10573708D01*
X6419826Y10576006D01*
X7904860Y10576006D01*
X7976863Y10546182D01*
X8078292Y10526006D01*
X8181708Y10526006D01*
X8283137Y10546182D01*
X8352289Y10574825D01*
X8360668Y10574000D01*
X8985668Y10574000D01*
X9009000Y10571702D01*
X9032332Y10574000D01*
X9102116Y10580873D01*
X9191654Y10608034D01*
X9274173Y10652141D01*
X9346501Y10711499D01*
X9361384Y10729634D01*
X9549366Y10917616D01*
X9567501Y10932499D01*
X9626859Y11004827D01*
X9670966Y11087346D01*
X9695519Y11168286D01*
X9698127Y11176883D01*
X9700808Y11204106D01*
X9735747Y11214704D01*
X9780000Y11238358D01*
X9824253Y11214704D01*
X9876091Y11198980D01*
X9930000Y11193670D01*
X10730000Y11193670D01*
X10783909Y11198980D01*
X10835747Y11214704D01*
X10880000Y11238358D01*
X10924253Y11214704D01*
X10976091Y11198980D01*
X11030000Y11193670D01*
X11055001Y11193670D01*
X11055000Y9162416D01*
X11053186Y9144000D01*
X11055000Y9125584D01*
X11055000Y9125582D01*
X11060426Y9070488D01*
X11081869Y8999801D01*
X11116691Y8934654D01*
X11163552Y8877552D01*
X11177866Y8865805D01*
X15997340Y4046330D01*
X15480000Y4046330D01*
X15426091Y4041020D01*
X15374253Y4025296D01*
X15326479Y3999760D01*
X15305000Y3982133D01*
X15283521Y3999760D01*
X15235747Y4025296D01*
X15183909Y4041020D01*
X15130000Y4046330D01*
X14330000Y4046330D01*
X14276091Y4041020D01*
X14224253Y4025296D01*
X14180000Y4001642D01*
X14135747Y4025296D01*
X14083909Y4041020D01*
X14030000Y4046330D01*
X13230000Y4046330D01*
X13176091Y4041020D01*
X13124253Y4025296D01*
X13080000Y4001642D01*
X13035747Y4025296D01*
X12983909Y4041020D01*
X12930000Y4046330D01*
X12130000Y4046330D01*
X12076091Y4041020D01*
X12024253Y4025296D01*
X11980000Y4001642D01*
X11935747Y4025296D01*
X11905000Y4034622D01*
X11905000Y4421668D01*
X11907298Y4445001D01*
X11898127Y4538117D01*
X11886592Y4576141D01*
X11870966Y4627654D01*
X11826859Y4710173D01*
X11767501Y4782501D01*
X11749372Y4797379D01*
X7591378Y8955372D01*
X7591373Y8955378D01*
X7235884Y9310866D01*
X7221001Y9329001D01*
X7148673Y9388359D01*
X7066154Y9432466D01*
X6976616Y9459627D01*
X6906832Y9466500D01*
X6883500Y9468798D01*
X6860168Y9466500D01*
X6138944Y9466500D01*
X6128894Y9485302D01*
X6067324Y9560324D01*
X5992302Y9621894D01*
X5906709Y9667644D01*
X5813835Y9695817D01*
X5717250Y9705330D01*
X5204750Y9705330D01*
X5108165Y9695817D01*
X5015291Y9667644D01*
X4929698Y9621894D01*
X4854676Y9560324D01*
X4793106Y9485302D01*
X4747356Y9399709D01*
X4719183Y9306835D01*
X4709670Y9210250D01*
X4709670Y8772750D01*
X4719183Y8676165D01*
X4747356Y8583291D01*
X4793106Y8497698D01*
X4854676Y8422676D01*
X4929698Y8361106D01*
X4970292Y8339408D01*
X4951291Y8333644D01*
X4865698Y8287894D01*
X4790676Y8226324D01*
X4729106Y8151302D01*
X4683356Y8065709D01*
X4655183Y7972835D01*
X4645670Y7876250D01*
X4645670Y7363750D01*
X4655183Y7267165D01*
X4683356Y7174291D01*
X4729106Y7088698D01*
X4790676Y7013676D01*
X4865698Y6952106D01*
X4906654Y6930214D01*
X4888291Y6924644D01*
X4802698Y6878894D01*
X4727676Y6817324D01*
X4666106Y6742302D01*
X4635500Y6685042D01*
X4604894Y6742302D01*
X4543324Y6817324D01*
X4468302Y6878894D01*
X4382709Y6924644D01*
X4329925Y6940656D01*
X4316854Y6983746D01*
X4353324Y7013676D01*
X4414894Y7088698D01*
X4460644Y7174291D01*
X4488817Y7267165D01*
X4498330Y7363750D01*
X4498330Y7876250D01*
X4488817Y7972835D01*
X4460644Y8065709D01*
X4414894Y8151302D01*
X4353324Y8226324D01*
X4316854Y8256254D01*
X4329925Y8299344D01*
X4382709Y8315356D01*
X4468302Y8361106D01*
X4543324Y8422676D01*
X4604894Y8497698D01*
X4650644Y8583291D01*
X4678817Y8676165D01*
X4688330Y8772750D01*
X4688330Y9210250D01*
X4678817Y9306835D01*
X4650644Y9399709D01*
X4604894Y9485302D01*
X4543324Y9560324D01*
X4468302Y9621894D01*
X4382709Y9667644D01*
X4289835Y9695817D01*
X4193250Y9705330D01*
X3680750Y9705330D01*
X3584165Y9695817D01*
X3491291Y9667644D01*
X3405698Y9621894D01*
X3330676Y9560324D01*
X3269106Y9485302D01*
X3223356Y9399709D01*
X3195183Y9306835D01*
X3185670Y9210250D01*
X3185670Y8772750D01*
X3195183Y8676165D01*
X3223356Y8583291D01*
X3269106Y8497698D01*
X3330676Y8422676D01*
X3405698Y8361106D01*
X3406322Y8360772D01*
X3400303Y8340928D01*
X3376291Y8333644D01*
X3290698Y8287894D01*
X3215676Y8226324D01*
X3154106Y8151302D01*
X3124012Y8095000D01*
X2511330Y8095000D01*
X2511330Y8255000D01*
X2506020Y8308909D01*
X2490296Y8360747D01*
X2464760Y8408521D01*
X2430395Y8450395D01*
X2388521Y8484760D01*
X2340747Y8510296D01*
X2288909Y8526020D01*
X2235000Y8531330D01*
X1582764Y8531330D01*
X1586573Y8570000D01*
X1585000Y8838750D01*
X1503750Y8920000D01*
X335000Y8920000D01*
X335000Y8900000D01*
X-15000Y8900000D01*
X-15000Y8920000D01*
X-35000Y8920000D01*
X-35000Y9270000D01*
X-15000Y9270000D01*
X-15000Y9290000D01*
X335000Y9290000D01*
X335000Y9270000D01*
X1503750Y9270000D01*
X1585000Y9351250D01*
X1585545Y9444408D01*
X2735000Y9443427D01*
X2798711Y9449702D01*
X2859974Y9468286D01*
X2916434Y9498464D01*
X2965922Y9539078D01*
X3006536Y9588566D01*
X3036714Y9645026D01*
X3055298Y9706289D01*
X3061573Y9770000D01*
X3060000Y10188750D01*
X2978750Y10270000D01*
X810000Y10270000D01*
X810000Y10250000D01*
X460000Y10250000D01*
X460000Y10270000D01*
X440000Y10270000D01*
X440000Y10620000D01*
X460000Y10620000D01*
X460000Y11363750D01*
X810000Y11363750D01*
X810000Y10620000D01*
X2978750Y10620000D01*
X3060000Y10701250D01*
X3061573Y11120000D01*
X3055298Y11183711D01*
X3036714Y11244974D01*
X3006536Y11301434D01*
X2965922Y11350922D01*
X2916434Y11391536D01*
X2859974Y11421714D01*
X2798711Y11440298D01*
X2735000Y11446573D01*
X891250Y11445000D01*
X810000Y11363750D01*
X460000Y11363750D01*
X378750Y11445000D01*
X-945000Y11446129D01*
X-945000Y12540000D01*
X3043427Y12540000D01*
X3045000Y12321250D01*
X3126250Y12240000D01*
X3632500Y12240000D01*
X3632500Y12783750D01*
X3982500Y12783750D01*
X3982500Y12240000D01*
X4488750Y12240000D01*
X4570000Y12321250D01*
X4571573Y12540000D01*
X4565298Y12603711D01*
X4546714Y12664974D01*
X4516536Y12721434D01*
X4475922Y12770922D01*
X4426434Y12811536D01*
X4369974Y12841714D01*
X4308711Y12860298D01*
X4245000Y12866573D01*
X4063750Y12865000D01*
X3982500Y12783750D01*
X3632500Y12783750D01*
X3551250Y12865000D01*
X3370000Y12866573D01*
X3306289Y12860298D01*
X3245026Y12841714D01*
X3188566Y12811536D01*
X3139078Y12770922D01*
X3098464Y12721434D01*
X3068286Y12664974D01*
X3049702Y12603711D01*
X3043427Y12540000D01*
X-945000Y12540000D01*
X-945000Y14311167D01*
X-844638Y14210805D01*
X-627623Y14065800D01*
X-386488Y13965919D01*
X-130501Y13915000D01*
X130501Y13915000D01*
X386488Y13965919D01*
X627623Y14065800D01*
X836095Y14205097D01*
X1752584Y14205097D01*
X1876003Y14028359D01*
X2125141Y13922101D01*
X2390222Y13866489D01*
X2661059Y13863660D01*
X2927243Y13913723D01*
X3178546Y14014754D01*
X3203997Y14028359D01*
X3327416Y14205097D01*
X2540000Y14992513D01*
X1752584Y14205097D01*
X836095Y14205097D01*
X844638Y14210805D01*
X1029195Y14395362D01*
X1174200Y14612377D01*
X1243298Y14779194D01*
X1314754Y14601454D01*
X1328359Y14576003D01*
X1505097Y14452584D01*
X2292513Y15240000D01*
X2278371Y15254142D01*
X2525858Y15501629D01*
X2540000Y15487487D01*
X2554143Y15501629D01*
X2801630Y15254142D01*
G37*
%TD.AperFunction*%
D29*
X26765800Y14612377D02*
X26910805Y14395362D01*
X27095362Y14210805D01*
X27312377Y14065800D01*
X27553512Y13965919D01*
X27809499Y13915000D01*
X28070501Y13915000D01*
X28326488Y13965919D01*
X28567623Y14065800D01*
X28784638Y14210805D01*
X28885000Y14311167D01*
X28885000Y13348209D01*
X28811839Y13397094D01*
X28720845Y13434785D01*
X28624246Y13454000D01*
X28525754Y13454000D01*
X28429155Y13434785D01*
X28338161Y13397094D01*
X28256269Y13342375D01*
X28242894Y13329000D01*
X28084221Y13329000D01*
X28069491Y13403051D01*
X28053767Y13454888D01*
X28016258Y13545444D01*
X27990722Y13593219D01*
X27936266Y13674718D01*
X27901901Y13716593D01*
X27832593Y13785901D01*
X27790718Y13820266D01*
X27709219Y13874722D01*
X27661444Y13900258D01*
X27570888Y13937767D01*
X27519051Y13953491D01*
X27422918Y13972613D01*
X27369009Y13977923D01*
X27344447Y13977923D01*
X27320000Y13980331D01*
X26820000Y13980331D01*
X26766090Y13975021D01*
X26714253Y13959297D01*
X26670000Y13935643D01*
X26625747Y13959297D01*
X26573910Y13975021D01*
X26520000Y13980331D01*
X26020000Y13980331D01*
X25995553Y13977923D01*
X25970991Y13977923D01*
X25917082Y13972613D01*
X25820949Y13953491D01*
X25769112Y13937767D01*
X25678556Y13900258D01*
X25630781Y13874722D01*
X25549282Y13820266D01*
X25507407Y13785901D01*
X25438099Y13716593D01*
X25403734Y13674718D01*
X25349278Y13593219D01*
X25323742Y13545444D01*
X25286233Y13454888D01*
X25270509Y13403051D01*
X25255779Y13329000D01*
X24057275Y13329000D01*
X24038859Y13330814D01*
X24020443Y13329000D01*
X24020441Y13329000D01*
X23965347Y13323574D01*
X23894660Y13302131D01*
X23894658Y13302130D01*
X23829513Y13267309D01*
X23786718Y13232189D01*
X23786715Y13232186D01*
X23772412Y13220448D01*
X23760674Y13206144D01*
X23115861Y12561330D01*
X23101553Y12549588D01*
X23089811Y12535280D01*
X23054691Y12492486D01*
X23028515Y12443513D01*
X23019870Y12427340D01*
X22998427Y12356653D01*
X22997807Y12350353D01*
X22991186Y12283140D01*
X22993001Y12264714D01*
X22993001Y12141685D01*
X22981681Y12149249D01*
X22886137Y12188824D01*
X22818044Y12202369D01*
X22864081Y12313512D01*
X22915000Y12569499D01*
X22915000Y12830501D01*
X22864081Y13086488D01*
X22764200Y13327623D01*
X22619195Y13544638D01*
X22434638Y13729195D01*
X22217623Y13874200D01*
X21976488Y13974081D01*
X21720501Y14025000D01*
X21459499Y14025000D01*
X21203512Y13974081D01*
X20962377Y13874200D01*
X20745362Y13729195D01*
X20560805Y13544638D01*
X20415800Y13327623D01*
X20315919Y13086488D01*
X20265000Y12830501D01*
X20265000Y12569499D01*
X20315919Y12313512D01*
X20415800Y12072377D01*
X20560805Y11855362D01*
X20745362Y11670805D01*
X20962377Y11525800D01*
X21101033Y11468367D01*
X21058750Y11468000D01*
X20977500Y11386750D01*
X20977500Y10843000D01*
X21483750Y10843000D01*
X21565000Y10924250D01*
X21566573Y11143000D01*
X21560298Y11206711D01*
X21541714Y11267974D01*
X21511536Y11324434D01*
X21470922Y11373922D01*
X21469608Y11375000D01*
X21720501Y11375000D01*
X21976488Y11425919D01*
X22020739Y11444248D01*
X22010295Y11409817D01*
X22007927Y11402012D01*
X22007049Y11393098D01*
X21969291Y11381644D01*
X21883698Y11335894D01*
X21808676Y11274324D01*
X21747106Y11199302D01*
X21701356Y11113709D01*
X21673183Y11020835D01*
X21663670Y10924250D01*
X21663670Y10411750D01*
X21673183Y10315165D01*
X21701356Y10222291D01*
X21747106Y10136698D01*
X21808676Y10061676D01*
X21883698Y10000106D01*
X21969291Y9954356D01*
X22002500Y9944282D01*
X22002500Y9898917D01*
X22000686Y9880500D01*
X22002500Y9862084D01*
X22002500Y9862082D01*
X22007926Y9806988D01*
X22029369Y9736301D01*
X22064191Y9671154D01*
X22093458Y9635491D01*
X22072881Y9646490D01*
X22011664Y9665060D01*
X21948000Y9671330D01*
X21848000Y9671330D01*
X21784336Y9665060D01*
X21723119Y9646490D01*
X21698000Y9633063D01*
X21672881Y9646490D01*
X21611664Y9665060D01*
X21548000Y9671330D01*
X21448000Y9671330D01*
X21384336Y9665060D01*
X21382314Y9664446D01*
X21381369Y9665233D01*
X21325126Y9695814D01*
X21263997Y9714835D01*
X21204250Y9720000D01*
X21123000Y9638750D01*
X21123000Y9358504D01*
X21121670Y9345000D01*
X21121670Y8965000D01*
X20960023Y8965000D01*
X20947881Y8971490D01*
X20886664Y8990060D01*
X20823000Y8996330D01*
X20386884Y8996330D01*
X20404249Y9022319D01*
X20443824Y9117863D01*
X20464000Y9219292D01*
X20464000Y9322708D01*
X20450084Y9392667D01*
X20671435Y9392667D01*
X20673000Y9376250D01*
X20754250Y9295000D01*
X21073000Y9295000D01*
X21073000Y9638750D01*
X20991750Y9720000D01*
X20932003Y9714835D01*
X20870874Y9695814D01*
X20814631Y9665233D01*
X20765435Y9624267D01*
X20725175Y9574490D01*
X20695401Y9517816D01*
X20677255Y9456422D01*
X20671435Y9392667D01*
X20450084Y9392667D01*
X20443824Y9424137D01*
X20404249Y9519681D01*
X20346794Y9605668D01*
X20273668Y9678794D01*
X20187681Y9736249D01*
X20092137Y9775824D01*
X19990708Y9796000D01*
X19887292Y9796000D01*
X19785863Y9775824D01*
X19768075Y9768456D01*
X19779817Y9807165D01*
X19789330Y9903750D01*
X19789330Y10193000D01*
X20038427Y10193000D01*
X20044702Y10129289D01*
X20063286Y10068026D01*
X20093464Y10011566D01*
X20134078Y9962078D01*
X20183566Y9921464D01*
X20240026Y9891286D01*
X20301289Y9872702D01*
X20365000Y9866427D01*
X20546250Y9868000D01*
X20627500Y9949250D01*
X20627500Y10493000D01*
X20977500Y10493000D01*
X20977500Y9949250D01*
X21058750Y9868000D01*
X21240000Y9866427D01*
X21303711Y9872702D01*
X21364974Y9891286D01*
X21421434Y9921464D01*
X21470922Y9962078D01*
X21511536Y10011566D01*
X21541714Y10068026D01*
X21560298Y10129289D01*
X21566573Y10193000D01*
X21565000Y10411750D01*
X21483750Y10493000D01*
X20977500Y10493000D01*
X20627500Y10493000D01*
X20121250Y10493000D01*
X20040000Y10411750D01*
X20038427Y10193000D01*
X19789330Y10193000D01*
X19789330Y10416250D01*
X19779817Y10512835D01*
X19751644Y10605709D01*
X19705894Y10691302D01*
X19644324Y10766324D01*
X19569302Y10827894D01*
X19483709Y10873644D01*
X19390835Y10901817D01*
X19294250Y10911330D01*
X18856750Y10911330D01*
X18760165Y10901817D01*
X18667291Y10873644D01*
X18581698Y10827894D01*
X18506676Y10766324D01*
X18445106Y10691302D01*
X18399356Y10605709D01*
X18371183Y10512835D01*
X18361670Y10416250D01*
X18361670Y9903750D01*
X18371183Y9807165D01*
X18399356Y9714291D01*
X18445106Y9628698D01*
X18506676Y9553676D01*
X18581698Y9492106D01*
X18667291Y9446356D01*
X18700501Y9436282D01*
X18700500Y9359718D01*
X18667291Y9349644D01*
X18581698Y9303894D01*
X18506676Y9242324D01*
X18445106Y9167302D01*
X18399356Y9081709D01*
X18371183Y8988835D01*
X18361670Y8892250D01*
X18361670Y8405157D01*
X18327218Y8412010D01*
X18230740Y8412010D01*
X18181750Y8461000D01*
X17675500Y8461000D01*
X17675500Y8441000D01*
X17325500Y8441000D01*
X17325500Y8461000D01*
X16819250Y8461000D01*
X16738000Y8379750D01*
X16736427Y8161000D01*
X16742702Y8097289D01*
X16761286Y8036026D01*
X16791464Y7979566D01*
X16832078Y7930078D01*
X16881566Y7889464D01*
X16938026Y7859286D01*
X16999289Y7840702D01*
X17063000Y7834427D01*
X17122960Y7834947D01*
X17092291Y7825644D01*
X17006698Y7779894D01*
X16931676Y7718324D01*
X16870106Y7643302D01*
X16824356Y7557709D01*
X16796183Y7464835D01*
X16786670Y7368250D01*
X16786670Y6855750D01*
X16796183Y6759165D01*
X16824356Y6666291D01*
X16870106Y6580698D01*
X16931676Y6505676D01*
X17006698Y6444106D01*
X17092291Y6398356D01*
X17125501Y6388282D01*
X17125500Y6311718D01*
X17092291Y6301644D01*
X17006698Y6255894D01*
X16931676Y6194324D01*
X16870106Y6119302D01*
X16824356Y6033709D01*
X16796183Y5940835D01*
X16786670Y5844250D01*
X16786670Y5331750D01*
X16796183Y5235165D01*
X16824356Y5142291D01*
X16870106Y5056698D01*
X16889207Y5033423D01*
X16862410Y5006626D01*
X16807691Y4924734D01*
X16770000Y4833740D01*
X16750785Y4737141D01*
X16750785Y4638649D01*
X16770000Y4542050D01*
X16807691Y4451056D01*
X16862410Y4369164D01*
X16932054Y4299520D01*
X17008945Y4248143D01*
X16986278Y4214219D01*
X16978678Y4200000D01*
X16904330Y4200000D01*
X11805000Y9299329D01*
X11805000Y11193670D01*
X11830000Y11193670D01*
X11883909Y11198980D01*
X11935747Y11214704D01*
X11980000Y11238358D01*
X12024253Y11214704D01*
X12076091Y11198980D01*
X12130000Y11193670D01*
X12155000Y11193670D01*
X12155000Y10221416D01*
X12153186Y10203000D01*
X12155000Y10184584D01*
X12155000Y10184582D01*
X12160426Y10129488D01*
X12181869Y10058801D01*
X12216691Y9993654D01*
X12263552Y9936552D01*
X12277866Y9924805D01*
X12802809Y9399861D01*
X12814552Y9385552D01*
X12828859Y9373811D01*
X12871653Y9338690D01*
X12906161Y9320246D01*
X12936800Y9303869D01*
X13007487Y9282426D01*
X13062581Y9277000D01*
X13062584Y9277000D01*
X13081000Y9275186D01*
X13099416Y9277000D01*
X14799584Y9277000D01*
X14818000Y9275186D01*
X14836416Y9277000D01*
X14836419Y9277000D01*
X14891513Y9282426D01*
X14962200Y9303869D01*
X15027347Y9338691D01*
X15084448Y9385552D01*
X15096195Y9399866D01*
X15381329Y9685000D01*
X16736427Y9685000D01*
X16742702Y9621289D01*
X16761286Y9560026D01*
X16791464Y9503566D01*
X16832078Y9454078D01*
X16881566Y9413464D01*
X16910498Y9398000D01*
X16881566Y9382536D01*
X16832078Y9341922D01*
X16791464Y9292434D01*
X16761286Y9235974D01*
X16742702Y9174711D01*
X16736427Y9111000D01*
X16738000Y8892250D01*
X16819250Y8811000D01*
X17325500Y8811000D01*
X17325500Y9354750D01*
X17282250Y9398000D01*
X17325500Y9441250D01*
X17325500Y9985000D01*
X17675500Y9985000D01*
X17675500Y9441250D01*
X17718750Y9398000D01*
X17675500Y9354750D01*
X17675500Y8811000D01*
X18181750Y8811000D01*
X18263000Y8892250D01*
X18264573Y9111000D01*
X18258298Y9174711D01*
X18239714Y9235974D01*
X18209536Y9292434D01*
X18168922Y9341922D01*
X18119434Y9382536D01*
X18090502Y9398000D01*
X18119434Y9413464D01*
X18168922Y9454078D01*
X18209536Y9503566D01*
X18239714Y9560026D01*
X18258298Y9621289D01*
X18264573Y9685000D01*
X18263000Y9903750D01*
X18181750Y9985000D01*
X17675500Y9985000D01*
X17325500Y9985000D01*
X16819250Y9985000D01*
X16738000Y9903750D01*
X16736427Y9685000D01*
X15381329Y9685000D01*
X16862764Y11166434D01*
X16870106Y11152698D01*
X16931676Y11077676D01*
X17006698Y11016106D01*
X17092291Y10970356D01*
X17122960Y10961053D01*
X17063000Y10961573D01*
X16999289Y10955298D01*
X16938026Y10936714D01*
X16881566Y10906536D01*
X16832078Y10865922D01*
X16791464Y10816434D01*
X16761286Y10759974D01*
X16742702Y10698711D01*
X16736427Y10635000D01*
X16738000Y10416250D01*
X16819250Y10335000D01*
X17325500Y10335000D01*
X17325500Y10355000D01*
X17675500Y10355000D01*
X17675500Y10335000D01*
X18181750Y10335000D01*
X18263000Y10416250D01*
X18264573Y10635000D01*
X18258298Y10698711D01*
X18239714Y10759974D01*
X18209536Y10816434D01*
X18168922Y10865922D01*
X18119434Y10906536D01*
X18062974Y10936714D01*
X18001711Y10955298D01*
X17938000Y10961573D01*
X17878040Y10961053D01*
X17908709Y10970356D01*
X17994302Y11016106D01*
X18069324Y11077676D01*
X18130894Y11152698D01*
X18176644Y11238291D01*
X18204817Y11331165D01*
X18214330Y11427750D01*
X18214330Y11940250D01*
X18204817Y12036835D01*
X18176644Y12129709D01*
X18130894Y12215302D01*
X18069324Y12290324D01*
X17994302Y12351894D01*
X17908709Y12397644D01*
X17878040Y12406947D01*
X17938000Y12406427D01*
X18001711Y12412702D01*
X18062974Y12431286D01*
X18119434Y12461464D01*
X18168922Y12502078D01*
X18209536Y12551566D01*
X18239714Y12608026D01*
X18258298Y12669289D01*
X18264573Y12733000D01*
X18263000Y12951750D01*
X18181750Y13033000D01*
X17675500Y13033000D01*
X17675500Y13013000D01*
X17325500Y13013000D01*
X17325500Y13033000D01*
X16819250Y13033000D01*
X16738000Y12951750D01*
X16736427Y12733000D01*
X16742702Y12669289D01*
X16761286Y12608026D01*
X16791464Y12551566D01*
X16832078Y12502078D01*
X16881566Y12461464D01*
X16938026Y12431286D01*
X16999289Y12412702D01*
X17063000Y12406427D01*
X17122960Y12406947D01*
X17092291Y12397644D01*
X17006698Y12351894D01*
X16931676Y12290324D01*
X16870106Y12215302D01*
X16824356Y12129709D01*
X16802024Y12056089D01*
X16776487Y12053574D01*
X16705800Y12032131D01*
X16640653Y11997309D01*
X16583552Y11950448D01*
X16571809Y11936139D01*
X16505596Y11869926D01*
X16505000Y12113750D01*
X16423750Y12195000D01*
X16005000Y12195000D01*
X16005000Y12175000D01*
X15655000Y12175000D01*
X15655000Y12195000D01*
X15635000Y12195000D01*
X15635000Y12545000D01*
X15655000Y12545000D01*
X15655000Y13513750D01*
X16005000Y13513750D01*
X16005000Y12545000D01*
X16423750Y12545000D01*
X16505000Y12626250D01*
X16506573Y13270000D01*
X16500298Y13333711D01*
X16481714Y13394974D01*
X16451536Y13451434D01*
X16410922Y13500922D01*
X16361434Y13541536D01*
X16304974Y13571714D01*
X16243711Y13590298D01*
X16180000Y13596573D01*
X16086250Y13595000D01*
X16005000Y13513750D01*
X15655000Y13513750D01*
X15573750Y13595000D01*
X15480000Y13596573D01*
X15416289Y13590298D01*
X15355026Y13571714D01*
X15298566Y13541536D01*
X15261806Y13511367D01*
X15235747Y13525296D01*
X15183909Y13541020D01*
X15130000Y13546330D01*
X14330000Y13546330D01*
X14276091Y13541020D01*
X14224253Y13525296D01*
X14180000Y13501642D01*
X14135747Y13525296D01*
X14083909Y13541020D01*
X14030000Y13546330D01*
X13230000Y13546330D01*
X13176091Y13541020D01*
X13124253Y13525296D01*
X13080000Y13501642D01*
X13035747Y13525296D01*
X12983909Y13541020D01*
X12930000Y13546330D01*
X12130000Y13546330D01*
X12076091Y13541020D01*
X12024253Y13525296D01*
X11980000Y13501642D01*
X11935747Y13525296D01*
X11883909Y13541020D01*
X11830000Y13546330D01*
X11318030Y13546330D01*
X11333211Y13558789D01*
X11345737Y13574052D01*
X11470685Y13699000D01*
X11481708Y13699000D01*
X11583137Y13719176D01*
X11678681Y13758751D01*
X11764668Y13816206D01*
X11837794Y13889332D01*
X11895249Y13975319D01*
X11934824Y14070863D01*
X11950073Y14147521D01*
X12072377Y14065800D01*
X12313512Y13965919D01*
X12569499Y13915000D01*
X12830501Y13915000D01*
X13086488Y13965919D01*
X13327623Y14065800D01*
X13544638Y14210805D01*
X13729195Y14395362D01*
X13874200Y14612377D01*
X13970000Y14843660D01*
X14065800Y14612377D01*
X14210805Y14395362D01*
X14395362Y14210805D01*
X14612377Y14065800D01*
X14853512Y13965919D01*
X15109499Y13915000D01*
X15370501Y13915000D01*
X15626488Y13965919D01*
X15867623Y14065800D01*
X16084638Y14210805D01*
X16269195Y14395362D01*
X16414200Y14612377D01*
X16510000Y14843660D01*
X16605800Y14612377D01*
X16750805Y14395362D01*
X16935362Y14210805D01*
X17152377Y14065800D01*
X17325498Y13994091D01*
X17325498Y13926752D01*
X17244250Y14008000D01*
X17063000Y14009573D01*
X16999289Y14003298D01*
X16938026Y13984714D01*
X16881566Y13954536D01*
X16832078Y13913922D01*
X16791464Y13864434D01*
X16761286Y13807974D01*
X16742702Y13746711D01*
X16736427Y13683000D01*
X16738000Y13464250D01*
X16819250Y13383000D01*
X17325500Y13383000D01*
X17325500Y13403000D01*
X17675500Y13403000D01*
X17675500Y13383000D01*
X18181750Y13383000D01*
X18263000Y13464250D01*
X18361670Y13464250D01*
X18361670Y12951750D01*
X18371183Y12855165D01*
X18399356Y12762291D01*
X18445106Y12676698D01*
X18506676Y12601676D01*
X18581698Y12540106D01*
X18667291Y12494356D01*
X18700501Y12484282D01*
X18700500Y12407718D01*
X18667291Y12397644D01*
X18581698Y12351894D01*
X18506676Y12290324D01*
X18445106Y12215302D01*
X18399356Y12129709D01*
X18371183Y12036835D01*
X18361670Y11940250D01*
X18361670Y11427750D01*
X18371183Y11331165D01*
X18399356Y11238291D01*
X18445106Y11152698D01*
X18506676Y11077676D01*
X18581698Y11016106D01*
X18667291Y10970356D01*
X18760165Y10942183D01*
X18856750Y10932670D01*
X19294250Y10932670D01*
X19390835Y10942183D01*
X19483709Y10970356D01*
X19569302Y11016106D01*
X19644324Y11077676D01*
X19697934Y11143000D01*
X20038427Y11143000D01*
X20040000Y10924250D01*
X20121250Y10843000D01*
X20627500Y10843000D01*
X20627500Y11386750D01*
X20546250Y11468000D01*
X20365000Y11469573D01*
X20301289Y11463298D01*
X20240026Y11444714D01*
X20183566Y11414536D01*
X20134078Y11373922D01*
X20093464Y11324434D01*
X20063286Y11267974D01*
X20044702Y11206711D01*
X20038427Y11143000D01*
X19697934Y11143000D01*
X19705894Y11152698D01*
X19751644Y11238291D01*
X19779817Y11331165D01*
X19789330Y11427750D01*
X19789330Y11940250D01*
X19779817Y12036835D01*
X19751644Y12129709D01*
X19705894Y12215302D01*
X19644324Y12290324D01*
X19569302Y12351894D01*
X19483709Y12397644D01*
X19450500Y12407718D01*
X19450500Y12484282D01*
X19483709Y12494356D01*
X19569302Y12540106D01*
X19644324Y12601676D01*
X19705894Y12676698D01*
X19751644Y12762291D01*
X19779817Y12855165D01*
X19789330Y12951750D01*
X19789330Y13464250D01*
X19779817Y13560835D01*
X19751644Y13653709D01*
X19705894Y13739302D01*
X19644324Y13814324D01*
X19569302Y13875894D01*
X19483709Y13921644D01*
X19390835Y13949817D01*
X19294250Y13959330D01*
X18856750Y13959330D01*
X18760165Y13949817D01*
X18667291Y13921644D01*
X18581698Y13875894D01*
X18506676Y13814324D01*
X18445106Y13739302D01*
X18399356Y13653709D01*
X18371183Y13560835D01*
X18361670Y13464250D01*
X18263000Y13464250D01*
X18264573Y13683000D01*
X18258298Y13746711D01*
X18239714Y13807974D01*
X18209536Y13864434D01*
X18168922Y13913922D01*
X18119434Y13954536D01*
X18116675Y13956011D01*
X18166488Y13965919D01*
X18407623Y14065800D01*
X18624638Y14210805D01*
X18809195Y14395362D01*
X18954200Y14612377D01*
X19050000Y14843660D01*
X19145800Y14612377D01*
X19290805Y14395362D01*
X19475362Y14210805D01*
X19692377Y14065800D01*
X19933512Y13965919D01*
X20189499Y13915000D01*
X20450501Y13915000D01*
X20706488Y13965919D01*
X20947623Y14065800D01*
X21164638Y14210805D01*
X21349195Y14395362D01*
X21494200Y14612377D01*
X21590000Y14843660D01*
X21685800Y14612377D01*
X21830805Y14395362D01*
X22015362Y14210805D01*
X22232377Y14065800D01*
X22473512Y13965919D01*
X22729499Y13915000D01*
X22990501Y13915000D01*
X23246488Y13965919D01*
X23487623Y14065800D01*
X23704638Y14210805D01*
X23889195Y14395362D01*
X24034200Y14612377D01*
X24130000Y14843660D01*
X24225800Y14612377D01*
X24370805Y14395362D01*
X24555362Y14210805D01*
X24772377Y14065800D01*
X25013512Y13965919D01*
X25269499Y13915000D01*
X25530501Y13915000D01*
X25786488Y13965919D01*
X26027623Y14065800D01*
X26244638Y14210805D01*
X26429195Y14395362D01*
X26574200Y14612377D01*
X26670000Y14843660D01*
X26765800Y14612377D01*
%TA.AperFunction,Conductor*%
D26*
G36*
X26765800Y14612377D02*
G01*
X26910805Y14395362D01*
X27095362Y14210805D01*
X27312377Y14065800D01*
X27553512Y13965919D01*
X27809499Y13915000D01*
X28070501Y13915000D01*
X28326488Y13965919D01*
X28567623Y14065800D01*
X28784638Y14210805D01*
X28885000Y14311167D01*
X28885000Y13348209D01*
X28811839Y13397094D01*
X28720845Y13434785D01*
X28624246Y13454000D01*
X28525754Y13454000D01*
X28429155Y13434785D01*
X28338161Y13397094D01*
X28256269Y13342375D01*
X28242894Y13329000D01*
X28084221Y13329000D01*
X28069491Y13403051D01*
X28053767Y13454888D01*
X28016258Y13545444D01*
X27990722Y13593219D01*
X27936266Y13674718D01*
X27901901Y13716593D01*
X27832593Y13785901D01*
X27790718Y13820266D01*
X27709219Y13874722D01*
X27661444Y13900258D01*
X27570888Y13937767D01*
X27519051Y13953491D01*
X27422918Y13972613D01*
X27369009Y13977923D01*
X27344447Y13977923D01*
X27320000Y13980331D01*
X26820000Y13980331D01*
X26766090Y13975021D01*
X26714253Y13959297D01*
X26670000Y13935643D01*
X26625747Y13959297D01*
X26573910Y13975021D01*
X26520000Y13980331D01*
X26020000Y13980331D01*
X25995553Y13977923D01*
X25970991Y13977923D01*
X25917082Y13972613D01*
X25820949Y13953491D01*
X25769112Y13937767D01*
X25678556Y13900258D01*
X25630781Y13874722D01*
X25549282Y13820266D01*
X25507407Y13785901D01*
X25438099Y13716593D01*
X25403734Y13674718D01*
X25349278Y13593219D01*
X25323742Y13545444D01*
X25286233Y13454888D01*
X25270509Y13403051D01*
X25255779Y13329000D01*
X24057275Y13329000D01*
X24038859Y13330814D01*
X24020443Y13329000D01*
X24020441Y13329000D01*
X23965347Y13323574D01*
X23894660Y13302131D01*
X23894658Y13302130D01*
X23829513Y13267309D01*
X23786718Y13232189D01*
X23786715Y13232186D01*
X23772412Y13220448D01*
X23760674Y13206144D01*
X23115861Y12561330D01*
X23101553Y12549588D01*
X23089811Y12535280D01*
X23054691Y12492486D01*
X23028515Y12443513D01*
X23019870Y12427340D01*
X22998427Y12356653D01*
X22997807Y12350353D01*
X22991186Y12283140D01*
X22993001Y12264714D01*
X22993001Y12141685D01*
X22981681Y12149249D01*
X22886137Y12188824D01*
X22818044Y12202369D01*
X22864081Y12313512D01*
X22915000Y12569499D01*
X22915000Y12830501D01*
X22864081Y13086488D01*
X22764200Y13327623D01*
X22619195Y13544638D01*
X22434638Y13729195D01*
X22217623Y13874200D01*
X21976488Y13974081D01*
X21720501Y14025000D01*
X21459499Y14025000D01*
X21203512Y13974081D01*
X20962377Y13874200D01*
X20745362Y13729195D01*
X20560805Y13544638D01*
X20415800Y13327623D01*
X20315919Y13086488D01*
X20265000Y12830501D01*
X20265000Y12569499D01*
X20315919Y12313512D01*
X20415800Y12072377D01*
X20560805Y11855362D01*
X20745362Y11670805D01*
X20962377Y11525800D01*
X21101033Y11468367D01*
X21058750Y11468000D01*
X20977500Y11386750D01*
X20977500Y10843000D01*
X21483750Y10843000D01*
X21565000Y10924250D01*
X21566573Y11143000D01*
X21560298Y11206711D01*
X21541714Y11267974D01*
X21511536Y11324434D01*
X21470922Y11373922D01*
X21469608Y11375000D01*
X21720501Y11375000D01*
X21976488Y11425919D01*
X22020739Y11444248D01*
X22010295Y11409817D01*
X22007927Y11402012D01*
X22007049Y11393098D01*
X21969291Y11381644D01*
X21883698Y11335894D01*
X21808676Y11274324D01*
X21747106Y11199302D01*
X21701356Y11113709D01*
X21673183Y11020835D01*
X21663670Y10924250D01*
X21663670Y10411750D01*
X21673183Y10315165D01*
X21701356Y10222291D01*
X21747106Y10136698D01*
X21808676Y10061676D01*
X21883698Y10000106D01*
X21969291Y9954356D01*
X22002500Y9944282D01*
X22002500Y9898917D01*
X22000686Y9880500D01*
X22002500Y9862084D01*
X22002500Y9862082D01*
X22007926Y9806988D01*
X22029369Y9736301D01*
X22064191Y9671154D01*
X22093458Y9635491D01*
X22072881Y9646490D01*
X22011664Y9665060D01*
X21948000Y9671330D01*
X21848000Y9671330D01*
X21784336Y9665060D01*
X21723119Y9646490D01*
X21698000Y9633063D01*
X21672881Y9646490D01*
X21611664Y9665060D01*
X21548000Y9671330D01*
X21448000Y9671330D01*
X21384336Y9665060D01*
X21382314Y9664446D01*
X21381369Y9665233D01*
X21325126Y9695814D01*
X21263997Y9714835D01*
X21204250Y9720000D01*
X21123000Y9638750D01*
X21123000Y9358504D01*
X21121670Y9345000D01*
X21121670Y8965000D01*
X20960023Y8965000D01*
X20947881Y8971490D01*
X20886664Y8990060D01*
X20823000Y8996330D01*
X20386884Y8996330D01*
X20404249Y9022319D01*
X20443824Y9117863D01*
X20464000Y9219292D01*
X20464000Y9322708D01*
X20450084Y9392667D01*
X20671435Y9392667D01*
X20673000Y9376250D01*
X20754250Y9295000D01*
X21073000Y9295000D01*
X21073000Y9638750D01*
X20991750Y9720000D01*
X20932003Y9714835D01*
X20870874Y9695814D01*
X20814631Y9665233D01*
X20765435Y9624267D01*
X20725175Y9574490D01*
X20695401Y9517816D01*
X20677255Y9456422D01*
X20671435Y9392667D01*
X20450084Y9392667D01*
X20443824Y9424137D01*
X20404249Y9519681D01*
X20346794Y9605668D01*
X20273668Y9678794D01*
X20187681Y9736249D01*
X20092137Y9775824D01*
X19990708Y9796000D01*
X19887292Y9796000D01*
X19785863Y9775824D01*
X19768075Y9768456D01*
X19779817Y9807165D01*
X19789330Y9903750D01*
X19789330Y10193000D01*
X20038427Y10193000D01*
X20044702Y10129289D01*
X20063286Y10068026D01*
X20093464Y10011566D01*
X20134078Y9962078D01*
X20183566Y9921464D01*
X20240026Y9891286D01*
X20301289Y9872702D01*
X20365000Y9866427D01*
X20546250Y9868000D01*
X20627500Y9949250D01*
X20627500Y10493000D01*
X20977500Y10493000D01*
X20977500Y9949250D01*
X21058750Y9868000D01*
X21240000Y9866427D01*
X21303711Y9872702D01*
X21364974Y9891286D01*
X21421434Y9921464D01*
X21470922Y9962078D01*
X21511536Y10011566D01*
X21541714Y10068026D01*
X21560298Y10129289D01*
X21566573Y10193000D01*
X21565000Y10411750D01*
X21483750Y10493000D01*
X20977500Y10493000D01*
X20627500Y10493000D01*
X20121250Y10493000D01*
X20040000Y10411750D01*
X20038427Y10193000D01*
X19789330Y10193000D01*
X19789330Y10416250D01*
X19779817Y10512835D01*
X19751644Y10605709D01*
X19705894Y10691302D01*
X19644324Y10766324D01*
X19569302Y10827894D01*
X19483709Y10873644D01*
X19390835Y10901817D01*
X19294250Y10911330D01*
X18856750Y10911330D01*
X18760165Y10901817D01*
X18667291Y10873644D01*
X18581698Y10827894D01*
X18506676Y10766324D01*
X18445106Y10691302D01*
X18399356Y10605709D01*
X18371183Y10512835D01*
X18361670Y10416250D01*
X18361670Y9903750D01*
X18371183Y9807165D01*
X18399356Y9714291D01*
X18445106Y9628698D01*
X18506676Y9553676D01*
X18581698Y9492106D01*
X18667291Y9446356D01*
X18700501Y9436282D01*
X18700500Y9359718D01*
X18667291Y9349644D01*
X18581698Y9303894D01*
X18506676Y9242324D01*
X18445106Y9167302D01*
X18399356Y9081709D01*
X18371183Y8988835D01*
X18361670Y8892250D01*
X18361670Y8405157D01*
X18327218Y8412010D01*
X18230740Y8412010D01*
X18181750Y8461000D01*
X17675500Y8461000D01*
X17675500Y8441000D01*
X17325500Y8441000D01*
X17325500Y8461000D01*
X16819250Y8461000D01*
X16738000Y8379750D01*
X16736427Y8161000D01*
X16742702Y8097289D01*
X16761286Y8036026D01*
X16791464Y7979566D01*
X16832078Y7930078D01*
X16881566Y7889464D01*
X16938026Y7859286D01*
X16999289Y7840702D01*
X17063000Y7834427D01*
X17122960Y7834947D01*
X17092291Y7825644D01*
X17006698Y7779894D01*
X16931676Y7718324D01*
X16870106Y7643302D01*
X16824356Y7557709D01*
X16796183Y7464835D01*
X16786670Y7368250D01*
X16786670Y6855750D01*
X16796183Y6759165D01*
X16824356Y6666291D01*
X16870106Y6580698D01*
X16931676Y6505676D01*
X17006698Y6444106D01*
X17092291Y6398356D01*
X17125501Y6388282D01*
X17125500Y6311718D01*
X17092291Y6301644D01*
X17006698Y6255894D01*
X16931676Y6194324D01*
X16870106Y6119302D01*
X16824356Y6033709D01*
X16796183Y5940835D01*
X16786670Y5844250D01*
X16786670Y5331750D01*
X16796183Y5235165D01*
X16824356Y5142291D01*
X16870106Y5056698D01*
X16889207Y5033423D01*
X16862410Y5006626D01*
X16807691Y4924734D01*
X16770000Y4833740D01*
X16750785Y4737141D01*
X16750785Y4638649D01*
X16770000Y4542050D01*
X16807691Y4451056D01*
X16862410Y4369164D01*
X16932054Y4299520D01*
X17008945Y4248143D01*
X16986278Y4214219D01*
X16978678Y4200000D01*
X16904330Y4200000D01*
X11805000Y9299329D01*
X11805000Y11193670D01*
X11830000Y11193670D01*
X11883909Y11198980D01*
X11935747Y11214704D01*
X11980000Y11238358D01*
X12024253Y11214704D01*
X12076091Y11198980D01*
X12130000Y11193670D01*
X12155000Y11193670D01*
X12155000Y10221416D01*
X12153186Y10203000D01*
X12155000Y10184584D01*
X12155000Y10184582D01*
X12160426Y10129488D01*
X12181869Y10058801D01*
X12216691Y9993654D01*
X12263552Y9936552D01*
X12277866Y9924805D01*
X12802809Y9399861D01*
X12814552Y9385552D01*
X12828859Y9373811D01*
X12871653Y9338690D01*
X12906161Y9320246D01*
X12936800Y9303869D01*
X13007487Y9282426D01*
X13062581Y9277000D01*
X13062584Y9277000D01*
X13081000Y9275186D01*
X13099416Y9277000D01*
X14799584Y9277000D01*
X14818000Y9275186D01*
X14836416Y9277000D01*
X14836419Y9277000D01*
X14891513Y9282426D01*
X14962200Y9303869D01*
X15027347Y9338691D01*
X15084448Y9385552D01*
X15096195Y9399866D01*
X15381329Y9685000D01*
X16736427Y9685000D01*
X16742702Y9621289D01*
X16761286Y9560026D01*
X16791464Y9503566D01*
X16832078Y9454078D01*
X16881566Y9413464D01*
X16910498Y9398000D01*
X16881566Y9382536D01*
X16832078Y9341922D01*
X16791464Y9292434D01*
X16761286Y9235974D01*
X16742702Y9174711D01*
X16736427Y9111000D01*
X16738000Y8892250D01*
X16819250Y8811000D01*
X17325500Y8811000D01*
X17325500Y9354750D01*
X17282250Y9398000D01*
X17325500Y9441250D01*
X17325500Y9985000D01*
X17675500Y9985000D01*
X17675500Y9441250D01*
X17718750Y9398000D01*
X17675500Y9354750D01*
X17675500Y8811000D01*
X18181750Y8811000D01*
X18263000Y8892250D01*
X18264573Y9111000D01*
X18258298Y9174711D01*
X18239714Y9235974D01*
X18209536Y9292434D01*
X18168922Y9341922D01*
X18119434Y9382536D01*
X18090502Y9398000D01*
X18119434Y9413464D01*
X18168922Y9454078D01*
X18209536Y9503566D01*
X18239714Y9560026D01*
X18258298Y9621289D01*
X18264573Y9685000D01*
X18263000Y9903750D01*
X18181750Y9985000D01*
X17675500Y9985000D01*
X17325500Y9985000D01*
X16819250Y9985000D01*
X16738000Y9903750D01*
X16736427Y9685000D01*
X15381329Y9685000D01*
X16862764Y11166434D01*
X16870106Y11152698D01*
X16931676Y11077676D01*
X17006698Y11016106D01*
X17092291Y10970356D01*
X17122960Y10961053D01*
X17063000Y10961573D01*
X16999289Y10955298D01*
X16938026Y10936714D01*
X16881566Y10906536D01*
X16832078Y10865922D01*
X16791464Y10816434D01*
X16761286Y10759974D01*
X16742702Y10698711D01*
X16736427Y10635000D01*
X16738000Y10416250D01*
X16819250Y10335000D01*
X17325500Y10335000D01*
X17325500Y10355000D01*
X17675500Y10355000D01*
X17675500Y10335000D01*
X18181750Y10335000D01*
X18263000Y10416250D01*
X18264573Y10635000D01*
X18258298Y10698711D01*
X18239714Y10759974D01*
X18209536Y10816434D01*
X18168922Y10865922D01*
X18119434Y10906536D01*
X18062974Y10936714D01*
X18001711Y10955298D01*
X17938000Y10961573D01*
X17878040Y10961053D01*
X17908709Y10970356D01*
X17994302Y11016106D01*
X18069324Y11077676D01*
X18130894Y11152698D01*
X18176644Y11238291D01*
X18204817Y11331165D01*
X18214330Y11427750D01*
X18214330Y11940250D01*
X18204817Y12036835D01*
X18176644Y12129709D01*
X18130894Y12215302D01*
X18069324Y12290324D01*
X17994302Y12351894D01*
X17908709Y12397644D01*
X17878040Y12406947D01*
X17938000Y12406427D01*
X18001711Y12412702D01*
X18062974Y12431286D01*
X18119434Y12461464D01*
X18168922Y12502078D01*
X18209536Y12551566D01*
X18239714Y12608026D01*
X18258298Y12669289D01*
X18264573Y12733000D01*
X18263000Y12951750D01*
X18181750Y13033000D01*
X17675500Y13033000D01*
X17675500Y13013000D01*
X17325500Y13013000D01*
X17325500Y13033000D01*
X16819250Y13033000D01*
X16738000Y12951750D01*
X16736427Y12733000D01*
X16742702Y12669289D01*
X16761286Y12608026D01*
X16791464Y12551566D01*
X16832078Y12502078D01*
X16881566Y12461464D01*
X16938026Y12431286D01*
X16999289Y12412702D01*
X17063000Y12406427D01*
X17122960Y12406947D01*
X17092291Y12397644D01*
X17006698Y12351894D01*
X16931676Y12290324D01*
X16870106Y12215302D01*
X16824356Y12129709D01*
X16802024Y12056089D01*
X16776487Y12053574D01*
X16705800Y12032131D01*
X16640653Y11997309D01*
X16583552Y11950448D01*
X16571809Y11936139D01*
X16505596Y11869926D01*
X16505000Y12113750D01*
X16423750Y12195000D01*
X16005000Y12195000D01*
X16005000Y12175000D01*
X15655000Y12175000D01*
X15655000Y12195000D01*
X15635000Y12195000D01*
X15635000Y12545000D01*
X15655000Y12545000D01*
X15655000Y13513750D01*
X16005000Y13513750D01*
X16005000Y12545000D01*
X16423750Y12545000D01*
X16505000Y12626250D01*
X16506573Y13270000D01*
X16500298Y13333711D01*
X16481714Y13394974D01*
X16451536Y13451434D01*
X16410922Y13500922D01*
X16361434Y13541536D01*
X16304974Y13571714D01*
X16243711Y13590298D01*
X16180000Y13596573D01*
X16086250Y13595000D01*
X16005000Y13513750D01*
X15655000Y13513750D01*
X15573750Y13595000D01*
X15480000Y13596573D01*
X15416289Y13590298D01*
X15355026Y13571714D01*
X15298566Y13541536D01*
X15261806Y13511367D01*
X15235747Y13525296D01*
X15183909Y13541020D01*
X15130000Y13546330D01*
X14330000Y13546330D01*
X14276091Y13541020D01*
X14224253Y13525296D01*
X14180000Y13501642D01*
X14135747Y13525296D01*
X14083909Y13541020D01*
X14030000Y13546330D01*
X13230000Y13546330D01*
X13176091Y13541020D01*
X13124253Y13525296D01*
X13080000Y13501642D01*
X13035747Y13525296D01*
X12983909Y13541020D01*
X12930000Y13546330D01*
X12130000Y13546330D01*
X12076091Y13541020D01*
X12024253Y13525296D01*
X11980000Y13501642D01*
X11935747Y13525296D01*
X11883909Y13541020D01*
X11830000Y13546330D01*
X11318030Y13546330D01*
X11333211Y13558789D01*
X11345737Y13574052D01*
X11470685Y13699000D01*
X11481708Y13699000D01*
X11583137Y13719176D01*
X11678681Y13758751D01*
X11764668Y13816206D01*
X11837794Y13889332D01*
X11895249Y13975319D01*
X11934824Y14070863D01*
X11950073Y14147521D01*
X12072377Y14065800D01*
X12313512Y13965919D01*
X12569499Y13915000D01*
X12830501Y13915000D01*
X13086488Y13965919D01*
X13327623Y14065800D01*
X13544638Y14210805D01*
X13729195Y14395362D01*
X13874200Y14612377D01*
X13970000Y14843660D01*
X14065800Y14612377D01*
X14210805Y14395362D01*
X14395362Y14210805D01*
X14612377Y14065800D01*
X14853512Y13965919D01*
X15109499Y13915000D01*
X15370501Y13915000D01*
X15626488Y13965919D01*
X15867623Y14065800D01*
X16084638Y14210805D01*
X16269195Y14395362D01*
X16414200Y14612377D01*
X16510000Y14843660D01*
X16605800Y14612377D01*
X16750805Y14395362D01*
X16935362Y14210805D01*
X17152377Y14065800D01*
X17325498Y13994091D01*
X17325498Y13926752D01*
X17244250Y14008000D01*
X17063000Y14009573D01*
X16999289Y14003298D01*
X16938026Y13984714D01*
X16881566Y13954536D01*
X16832078Y13913922D01*
X16791464Y13864434D01*
X16761286Y13807974D01*
X16742702Y13746711D01*
X16736427Y13683000D01*
X16738000Y13464250D01*
X16819250Y13383000D01*
X17325500Y13383000D01*
X17325500Y13403000D01*
X17675500Y13403000D01*
X17675500Y13383000D01*
X18181750Y13383000D01*
X18263000Y13464250D01*
X18361670Y13464250D01*
X18361670Y12951750D01*
X18371183Y12855165D01*
X18399356Y12762291D01*
X18445106Y12676698D01*
X18506676Y12601676D01*
X18581698Y12540106D01*
X18667291Y12494356D01*
X18700501Y12484282D01*
X18700500Y12407718D01*
X18667291Y12397644D01*
X18581698Y12351894D01*
X18506676Y12290324D01*
X18445106Y12215302D01*
X18399356Y12129709D01*
X18371183Y12036835D01*
X18361670Y11940250D01*
X18361670Y11427750D01*
X18371183Y11331165D01*
X18399356Y11238291D01*
X18445106Y11152698D01*
X18506676Y11077676D01*
X18581698Y11016106D01*
X18667291Y10970356D01*
X18760165Y10942183D01*
X18856750Y10932670D01*
X19294250Y10932670D01*
X19390835Y10942183D01*
X19483709Y10970356D01*
X19569302Y11016106D01*
X19644324Y11077676D01*
X19697934Y11143000D01*
X20038427Y11143000D01*
X20040000Y10924250D01*
X20121250Y10843000D01*
X20627500Y10843000D01*
X20627500Y11386750D01*
X20546250Y11468000D01*
X20365000Y11469573D01*
X20301289Y11463298D01*
X20240026Y11444714D01*
X20183566Y11414536D01*
X20134078Y11373922D01*
X20093464Y11324434D01*
X20063286Y11267974D01*
X20044702Y11206711D01*
X20038427Y11143000D01*
X19697934Y11143000D01*
X19705894Y11152698D01*
X19751644Y11238291D01*
X19779817Y11331165D01*
X19789330Y11427750D01*
X19789330Y11940250D01*
X19779817Y12036835D01*
X19751644Y12129709D01*
X19705894Y12215302D01*
X19644324Y12290324D01*
X19569302Y12351894D01*
X19483709Y12397644D01*
X19450500Y12407718D01*
X19450500Y12484282D01*
X19483709Y12494356D01*
X19569302Y12540106D01*
X19644324Y12601676D01*
X19705894Y12676698D01*
X19751644Y12762291D01*
X19779817Y12855165D01*
X19789330Y12951750D01*
X19789330Y13464250D01*
X19779817Y13560835D01*
X19751644Y13653709D01*
X19705894Y13739302D01*
X19644324Y13814324D01*
X19569302Y13875894D01*
X19483709Y13921644D01*
X19390835Y13949817D01*
X19294250Y13959330D01*
X18856750Y13959330D01*
X18760165Y13949817D01*
X18667291Y13921644D01*
X18581698Y13875894D01*
X18506676Y13814324D01*
X18445106Y13739302D01*
X18399356Y13653709D01*
X18371183Y13560835D01*
X18361670Y13464250D01*
X18263000Y13464250D01*
X18264573Y13683000D01*
X18258298Y13746711D01*
X18239714Y13807974D01*
X18209536Y13864434D01*
X18168922Y13913922D01*
X18119434Y13954536D01*
X18116675Y13956011D01*
X18166488Y13965919D01*
X18407623Y14065800D01*
X18624638Y14210805D01*
X18809195Y14395362D01*
X18954200Y14612377D01*
X19050000Y14843660D01*
X19145800Y14612377D01*
X19290805Y14395362D01*
X19475362Y14210805D01*
X19692377Y14065800D01*
X19933512Y13965919D01*
X20189499Y13915000D01*
X20450501Y13915000D01*
X20706488Y13965919D01*
X20947623Y14065800D01*
X21164638Y14210805D01*
X21349195Y14395362D01*
X21494200Y14612377D01*
X21590000Y14843660D01*
X21685800Y14612377D01*
X21830805Y14395362D01*
X22015362Y14210805D01*
X22232377Y14065800D01*
X22473512Y13965919D01*
X22729499Y13915000D01*
X22990501Y13915000D01*
X23246488Y13965919D01*
X23487623Y14065800D01*
X23704638Y14210805D01*
X23889195Y14395362D01*
X24034200Y14612377D01*
X24130000Y14843660D01*
X24225800Y14612377D01*
X24370805Y14395362D01*
X24555362Y14210805D01*
X24772377Y14065800D01*
X25013512Y13965919D01*
X25269499Y13915000D01*
X25530501Y13915000D01*
X25786488Y13965919D01*
X26027623Y14065800D01*
X26244638Y14210805D01*
X26429195Y14395362D01*
X26574200Y14612377D01*
X26670000Y14843660D01*
X26765800Y14612377D01*
G37*
%TD.AperFunction*%
D29*
X20753000Y8196330D02*
X20403000Y8196330D01*
X20403000Y8243670D01*
X20753000Y8243670D01*
X20753000Y8196330D01*
%TA.AperFunction,Conductor*%
D26*
G36*
X20753000Y8196330D02*
G01*
X20403000Y8196330D01*
X20403000Y8243670D01*
X20753000Y8243670D01*
X20753000Y8196330D01*
G37*
%TD.AperFunction*%
%TD*%
M02*
