%TF.GenerationSoftware,KiCad,Pcbnew,5.1.9+dfsg1-1~bpo10+1*%
%TF.CreationDate,Date%
%TF.ProjectId,POS,504f532e-6b69-4636-9164-5f7063625858,v3.4*%
%TF.SameCoordinates,Original*%
%TF.FileFunction,Soldermask,Top*%
%TF.FilePolarity,Negative*%
%FSLAX46Y46*%
G04 Gerber Fmt 4.6, Leading zero omitted, Abs format (unit mm)*
G04 Created by KiCad*
%MOMM*%
%LPD*%
G01*
G04 APERTURE LIST*
%ADD10R,2.100000X2.100000*%
%ADD11C,2.100000*%
%ADD12C,0.600000*%
%ADD13R,1.060000X0.650000*%
%ADD14C,0.100000*%
%ADD15R,1.500000X1.500000*%
%ADD16R,2.200000X1.050000*%
%ADD17R,1.050000X1.000000*%
%ADD18R,3.600000X1.270000*%
%ADD19R,4.200000X1.350000*%
%ADD20R,0.700000X1.800000*%
%ADD21R,0.800000X1.800000*%
G04 APERTURE END LIST*
%TO.C,R5*%
G36*
G01*
X18638000Y5331750D02*
X18638000Y5844250D01*
G75*
G02*
X18856750Y6063000I218750J0D01*
G01*
X19294250Y6063000D01*
G75*
G02*
X19513000Y5844250I0J-218750D01*
G01*
X19513000Y5331750D01*
G75*
G02*
X19294250Y5113000I-218750J0D01*
G01*
X18856750Y5113000D01*
G75*
G02*
X18638000Y5331750I0J218750D01*
G01*
G37*
G36*
G01*
X17063000Y5331750D02*
X17063000Y5844250D01*
G75*
G02*
X17281750Y6063000I218750J0D01*
G01*
X17719250Y6063000D01*
G75*
G02*
X17938000Y5844250I0J-218750D01*
G01*
X17938000Y5331750D01*
G75*
G02*
X17719250Y5113000I-218750J0D01*
G01*
X17281750Y5113000D01*
G75*
G02*
X17063000Y5331750I0J218750D01*
G01*
G37*
%TD*%
%TO.C,R4*%
G36*
G01*
X18638000Y6855750D02*
X18638000Y7368250D01*
G75*
G02*
X18856750Y7587000I218750J0D01*
G01*
X19294250Y7587000D01*
G75*
G02*
X19513000Y7368250I0J-218750D01*
G01*
X19513000Y6855750D01*
G75*
G02*
X19294250Y6637000I-218750J0D01*
G01*
X18856750Y6637000D01*
G75*
G02*
X18638000Y6855750I0J218750D01*
G01*
G37*
G36*
G01*
X17063000Y6855750D02*
X17063000Y7368250D01*
G75*
G02*
X17281750Y7587000I218750J0D01*
G01*
X17719250Y7587000D01*
G75*
G02*
X17938000Y7368250I0J-218750D01*
G01*
X17938000Y6855750D01*
G75*
G02*
X17719250Y6637000I-218750J0D01*
G01*
X17281750Y6637000D01*
G75*
G02*
X17063000Y6855750I0J218750D01*
G01*
G37*
%TD*%
%TO.C,R3*%
G36*
G01*
X17938000Y11940250D02*
X17938000Y11427750D01*
G75*
G02*
X17719250Y11209000I-218750J0D01*
G01*
X17281750Y11209000D01*
G75*
G02*
X17063000Y11427750I0J218750D01*
G01*
X17063000Y11940250D01*
G75*
G02*
X17281750Y12159000I218750J0D01*
G01*
X17719250Y12159000D01*
G75*
G02*
X17938000Y11940250I0J-218750D01*
G01*
G37*
G36*
G01*
X19513000Y11940250D02*
X19513000Y11427750D01*
G75*
G02*
X19294250Y11209000I-218750J0D01*
G01*
X18856750Y11209000D01*
G75*
G02*
X18638000Y11427750I0J218750D01*
G01*
X18638000Y11940250D01*
G75*
G02*
X18856750Y12159000I218750J0D01*
G01*
X19294250Y12159000D01*
G75*
G02*
X19513000Y11940250I0J-218750D01*
G01*
G37*
%TD*%
%TO.C,R2*%
G36*
G01*
X4922000Y7363750D02*
X4922000Y7876250D01*
G75*
G02*
X5140750Y8095000I218750J0D01*
G01*
X5578250Y8095000D01*
G75*
G02*
X5797000Y7876250I0J-218750D01*
G01*
X5797000Y7363750D01*
G75*
G02*
X5578250Y7145000I-218750J0D01*
G01*
X5140750Y7145000D01*
G75*
G02*
X4922000Y7363750I0J218750D01*
G01*
G37*
G36*
G01*
X3347000Y7363750D02*
X3347000Y7876250D01*
G75*
G02*
X3565750Y8095000I218750J0D01*
G01*
X4003250Y8095000D01*
G75*
G02*
X4222000Y7876250I0J-218750D01*
G01*
X4222000Y7363750D01*
G75*
G02*
X4003250Y7145000I-218750J0D01*
G01*
X3565750Y7145000D01*
G75*
G02*
X3347000Y7363750I0J218750D01*
G01*
G37*
%TD*%
%TO.C,R1*%
G36*
G01*
X5204750Y9429000D02*
X5717250Y9429000D01*
G75*
G02*
X5936000Y9210250I0J-218750D01*
G01*
X5936000Y8772750D01*
G75*
G02*
X5717250Y8554000I-218750J0D01*
G01*
X5204750Y8554000D01*
G75*
G02*
X4986000Y8772750I0J218750D01*
G01*
X4986000Y9210250D01*
G75*
G02*
X5204750Y9429000I218750J0D01*
G01*
G37*
G36*
G01*
X5204750Y11004000D02*
X5717250Y11004000D01*
G75*
G02*
X5936000Y10785250I0J-218750D01*
G01*
X5936000Y10347750D01*
G75*
G02*
X5717250Y10129000I-218750J0D01*
G01*
X5204750Y10129000D01*
G75*
G02*
X4986000Y10347750I0J218750D01*
G01*
X4986000Y10785250D01*
G75*
G02*
X5204750Y11004000I218750J0D01*
G01*
G37*
%TD*%
%TO.C,L1*%
G36*
G01*
X3680750Y9429000D02*
X4193250Y9429000D01*
G75*
G02*
X4412000Y9210250I0J-218750D01*
G01*
X4412000Y8772750D01*
G75*
G02*
X4193250Y8554000I-218750J0D01*
G01*
X3680750Y8554000D01*
G75*
G02*
X3462000Y8772750I0J218750D01*
G01*
X3462000Y9210250D01*
G75*
G02*
X3680750Y9429000I218750J0D01*
G01*
G37*
G36*
G01*
X3680750Y11004000D02*
X4193250Y11004000D01*
G75*
G02*
X4412000Y10785250I0J-218750D01*
G01*
X4412000Y10347750D01*
G75*
G02*
X4193250Y10129000I-218750J0D01*
G01*
X3680750Y10129000D01*
G75*
G02*
X3462000Y10347750I0J218750D01*
G01*
X3462000Y10785250D01*
G75*
G02*
X3680750Y11004000I218750J0D01*
G01*
G37*
%TD*%
%TO.C,C11*%
G36*
G01*
X3680750Y5111000D02*
X4193250Y5111000D01*
G75*
G02*
X4412000Y4892250I0J-218750D01*
G01*
X4412000Y4454750D01*
G75*
G02*
X4193250Y4236000I-218750J0D01*
G01*
X3680750Y4236000D01*
G75*
G02*
X3462000Y4454750I0J218750D01*
G01*
X3462000Y4892250D01*
G75*
G02*
X3680750Y5111000I218750J0D01*
G01*
G37*
G36*
G01*
X3680750Y6686000D02*
X4193250Y6686000D01*
G75*
G02*
X4412000Y6467250I0J-218750D01*
G01*
X4412000Y6029750D01*
G75*
G02*
X4193250Y5811000I-218750J0D01*
G01*
X3680750Y5811000D01*
G75*
G02*
X3462000Y6029750I0J218750D01*
G01*
X3462000Y6467250D01*
G75*
G02*
X3680750Y6686000I218750J0D01*
G01*
G37*
%TD*%
%TO.C,C10*%
G36*
G01*
X5077750Y5111000D02*
X5590250Y5111000D01*
G75*
G02*
X5809000Y4892250I0J-218750D01*
G01*
X5809000Y4454750D01*
G75*
G02*
X5590250Y4236000I-218750J0D01*
G01*
X5077750Y4236000D01*
G75*
G02*
X4859000Y4454750I0J218750D01*
G01*
X4859000Y4892250D01*
G75*
G02*
X5077750Y5111000I218750J0D01*
G01*
G37*
G36*
G01*
X5077750Y6686000D02*
X5590250Y6686000D01*
G75*
G02*
X5809000Y6467250I0J-218750D01*
G01*
X5809000Y6029750D01*
G75*
G02*
X5590250Y5811000I-218750J0D01*
G01*
X5077750Y5811000D01*
G75*
G02*
X4859000Y6029750I0J218750D01*
G01*
X4859000Y6467250D01*
G75*
G02*
X5077750Y6686000I218750J0D01*
G01*
G37*
%TD*%
%TO.C,C9*%
G36*
G01*
X4245000Y12321250D02*
X4245000Y11808750D01*
G75*
G02*
X4026250Y11590000I-218750J0D01*
G01*
X3588750Y11590000D01*
G75*
G02*
X3370000Y11808750I0J218750D01*
G01*
X3370000Y12321250D01*
G75*
G02*
X3588750Y12540000I218750J0D01*
G01*
X4026250Y12540000D01*
G75*
G02*
X4245000Y12321250I0J-218750D01*
G01*
G37*
G36*
G01*
X5820000Y12321250D02*
X5820000Y11808750D01*
G75*
G02*
X5601250Y11590000I-218750J0D01*
G01*
X5163750Y11590000D01*
G75*
G02*
X4945000Y11808750I0J218750D01*
G01*
X4945000Y12321250D01*
G75*
G02*
X5163750Y12540000I218750J0D01*
G01*
X5601250Y12540000D01*
G75*
G02*
X5820000Y12321250I0J-218750D01*
G01*
G37*
%TD*%
%TO.C,C7*%
G36*
G01*
X21240000Y10924250D02*
X21240000Y10411750D01*
G75*
G02*
X21021250Y10193000I-218750J0D01*
G01*
X20583750Y10193000D01*
G75*
G02*
X20365000Y10411750I0J218750D01*
G01*
X20365000Y10924250D01*
G75*
G02*
X20583750Y11143000I218750J0D01*
G01*
X21021250Y11143000D01*
G75*
G02*
X21240000Y10924250I0J-218750D01*
G01*
G37*
G36*
G01*
X22815000Y10924250D02*
X22815000Y10411750D01*
G75*
G02*
X22596250Y10193000I-218750J0D01*
G01*
X22158750Y10193000D01*
G75*
G02*
X21940000Y10411750I0J218750D01*
G01*
X21940000Y10924250D01*
G75*
G02*
X22158750Y11143000I218750J0D01*
G01*
X22596250Y11143000D01*
G75*
G02*
X22815000Y10924250I0J-218750D01*
G01*
G37*
%TD*%
%TO.C,C6*%
G36*
G01*
X17938000Y10416250D02*
X17938000Y9903750D01*
G75*
G02*
X17719250Y9685000I-218750J0D01*
G01*
X17281750Y9685000D01*
G75*
G02*
X17063000Y9903750I0J218750D01*
G01*
X17063000Y10416250D01*
G75*
G02*
X17281750Y10635000I218750J0D01*
G01*
X17719250Y10635000D01*
G75*
G02*
X17938000Y10416250I0J-218750D01*
G01*
G37*
G36*
G01*
X19513000Y10416250D02*
X19513000Y9903750D01*
G75*
G02*
X19294250Y9685000I-218750J0D01*
G01*
X18856750Y9685000D01*
G75*
G02*
X18638000Y9903750I0J218750D01*
G01*
X18638000Y10416250D01*
G75*
G02*
X18856750Y10635000I218750J0D01*
G01*
X19294250Y10635000D01*
G75*
G02*
X19513000Y10416250I0J-218750D01*
G01*
G37*
%TD*%
%TO.C,C5*%
G36*
G01*
X24513250Y11526000D02*
X24000750Y11526000D01*
G75*
G02*
X23782000Y11744750I0J218750D01*
G01*
X23782000Y12182250D01*
G75*
G02*
X24000750Y12401000I218750J0D01*
G01*
X24513250Y12401000D01*
G75*
G02*
X24732000Y12182250I0J-218750D01*
G01*
X24732000Y11744750D01*
G75*
G02*
X24513250Y11526000I-218750J0D01*
G01*
G37*
G36*
G01*
X24513250Y9951000D02*
X24000750Y9951000D01*
G75*
G02*
X23782000Y10169750I0J218750D01*
G01*
X23782000Y10607250D01*
G75*
G02*
X24000750Y10826000I218750J0D01*
G01*
X24513250Y10826000D01*
G75*
G02*
X24732000Y10607250I0J-218750D01*
G01*
X24732000Y10169750D01*
G75*
G02*
X24513250Y9951000I-218750J0D01*
G01*
G37*
%TD*%
%TO.C,C3*%
G36*
G01*
X27020000Y2283750D02*
X27020000Y2796250D01*
G75*
G02*
X27238750Y3015000I218750J0D01*
G01*
X27676250Y3015000D01*
G75*
G02*
X27895000Y2796250I0J-218750D01*
G01*
X27895000Y2283750D01*
G75*
G02*
X27676250Y2065000I-218750J0D01*
G01*
X27238750Y2065000D01*
G75*
G02*
X27020000Y2283750I0J218750D01*
G01*
G37*
G36*
G01*
X25445000Y2283750D02*
X25445000Y2796250D01*
G75*
G02*
X25663750Y3015000I218750J0D01*
G01*
X26101250Y3015000D01*
G75*
G02*
X26320000Y2796250I0J-218750D01*
G01*
X26320000Y2283750D01*
G75*
G02*
X26101250Y2065000I-218750J0D01*
G01*
X25663750Y2065000D01*
G75*
G02*
X25445000Y2283750I0J218750D01*
G01*
G37*
%TD*%
%TO.C,C2*%
G36*
G01*
X17938000Y8892250D02*
X17938000Y8379750D01*
G75*
G02*
X17719250Y8161000I-218750J0D01*
G01*
X17281750Y8161000D01*
G75*
G02*
X17063000Y8379750I0J218750D01*
G01*
X17063000Y8892250D01*
G75*
G02*
X17281750Y9111000I218750J0D01*
G01*
X17719250Y9111000D01*
G75*
G02*
X17938000Y8892250I0J-218750D01*
G01*
G37*
G36*
G01*
X19513000Y8892250D02*
X19513000Y8379750D01*
G75*
G02*
X19294250Y8161000I-218750J0D01*
G01*
X18856750Y8161000D01*
G75*
G02*
X18638000Y8379750I0J218750D01*
G01*
X18638000Y8892250D01*
G75*
G02*
X18856750Y9111000I218750J0D01*
G01*
X19294250Y9111000D01*
G75*
G02*
X19513000Y8892250I0J-218750D01*
G01*
G37*
%TD*%
D10*
%TO.C,A1*%
X0Y0D03*
D11*
X2540000Y0D03*
X5080000Y0D03*
X27940000Y15240000D03*
X7620000Y0D03*
X25400000Y15240000D03*
X10160000Y0D03*
X22860000Y15240000D03*
X12700000Y0D03*
X20320000Y15240000D03*
X15240000Y0D03*
X17780000Y15240000D03*
X17780000Y0D03*
X15240000Y15240000D03*
X20320000Y0D03*
X12700000Y15240000D03*
X22860000Y0D03*
X10160000Y15240000D03*
X25400000Y0D03*
X7620000Y15240000D03*
X27940000Y0D03*
X5080000Y15240000D03*
X2540000Y15240000D03*
X0Y15240000D03*
%TD*%
D12*
%TO.C,H2*%
X27305000Y7620000D03*
%TD*%
D13*
%TO.C,U2*%
X23833000Y4064000D03*
X23833000Y2164000D03*
X21633000Y2164000D03*
X21633000Y3114000D03*
X21633000Y4064000D03*
%TD*%
D11*
%TO.C,TP4*%
X21590000Y12700000D03*
%TD*%
D14*
%TO.C,JP1*%
G36*
X27320000Y13703398D02*
G01*
X27344534Y13703398D01*
X27393365Y13698588D01*
X27441490Y13689016D01*
X27488445Y13674772D01*
X27533778Y13655995D01*
X27577051Y13632864D01*
X27617850Y13605604D01*
X27655779Y13574476D01*
X27690476Y13539779D01*
X27721604Y13501850D01*
X27748864Y13461051D01*
X27771995Y13417778D01*
X27790772Y13372445D01*
X27805016Y13325490D01*
X27814588Y13277365D01*
X27819398Y13228534D01*
X27819398Y13204000D01*
X27820000Y13204000D01*
X27820000Y12704000D01*
X27819398Y12704000D01*
X27819398Y12679466D01*
X27814588Y12630635D01*
X27805016Y12582510D01*
X27790772Y12535555D01*
X27771995Y12490222D01*
X27748864Y12446949D01*
X27721604Y12406150D01*
X27690476Y12368221D01*
X27655779Y12333524D01*
X27617850Y12302396D01*
X27577051Y12275136D01*
X27533778Y12252005D01*
X27488445Y12233228D01*
X27441490Y12218984D01*
X27393365Y12209412D01*
X27344534Y12204602D01*
X27320000Y12204602D01*
X27320000Y12204000D01*
X26820000Y12204000D01*
X26820000Y13704000D01*
X27320000Y13704000D01*
X27320000Y13703398D01*
G37*
G36*
X26520000Y12204000D02*
G01*
X26020000Y12204000D01*
X26020000Y12204602D01*
X25995466Y12204602D01*
X25946635Y12209412D01*
X25898510Y12218984D01*
X25851555Y12233228D01*
X25806222Y12252005D01*
X25762949Y12275136D01*
X25722150Y12302396D01*
X25684221Y12333524D01*
X25649524Y12368221D01*
X25618396Y12406150D01*
X25591136Y12446949D01*
X25568005Y12490222D01*
X25549228Y12535555D01*
X25534984Y12582510D01*
X25525412Y12630635D01*
X25520602Y12679466D01*
X25520602Y12704000D01*
X25520000Y12704000D01*
X25520000Y13204000D01*
X25520602Y13204000D01*
X25520602Y13228534D01*
X25525412Y13277365D01*
X25534984Y13325490D01*
X25549228Y13372445D01*
X25568005Y13417778D01*
X25591136Y13461051D01*
X25618396Y13501850D01*
X25649524Y13539779D01*
X25684221Y13574476D01*
X25722150Y13605604D01*
X25762949Y13632864D01*
X25806222Y13655995D01*
X25851555Y13674772D01*
X25898510Y13689016D01*
X25946635Y13698588D01*
X25995466Y13703398D01*
X26020000Y13703398D01*
X26020000Y13704000D01*
X26520000Y13704000D01*
X26520000Y12204000D01*
G37*
%TD*%
%TO.C,JP3*%
G36*
X4722000Y3290000D02*
G01*
X5222000Y3290000D01*
X5222000Y3289398D01*
X5246534Y3289398D01*
X5295365Y3284588D01*
X5343490Y3275016D01*
X5390445Y3260772D01*
X5435778Y3241995D01*
X5479051Y3218864D01*
X5519850Y3191604D01*
X5557779Y3160476D01*
X5592476Y3125779D01*
X5623604Y3087850D01*
X5650864Y3047051D01*
X5673995Y3003778D01*
X5692772Y2958445D01*
X5707016Y2911490D01*
X5716588Y2863365D01*
X5721398Y2814534D01*
X5721398Y2790000D01*
X5722000Y2790000D01*
X5722000Y2290000D01*
X5721398Y2290000D01*
X5721398Y2265466D01*
X5716588Y2216635D01*
X5707016Y2168510D01*
X5692772Y2121555D01*
X5673995Y2076222D01*
X5650864Y2032949D01*
X5623604Y1992150D01*
X5592476Y1954221D01*
X5557779Y1919524D01*
X5519850Y1888396D01*
X5479051Y1861136D01*
X5435778Y1838005D01*
X5390445Y1819228D01*
X5343490Y1804984D01*
X5295365Y1795412D01*
X5246534Y1790602D01*
X5222000Y1790602D01*
X5222000Y1790000D01*
X4722000Y1790000D01*
X4722000Y3290000D01*
G37*
G36*
X3922000Y1790602D02*
G01*
X3897466Y1790602D01*
X3848635Y1795412D01*
X3800510Y1804984D01*
X3753555Y1819228D01*
X3708222Y1838005D01*
X3664949Y1861136D01*
X3624150Y1888396D01*
X3586221Y1919524D01*
X3551524Y1954221D01*
X3520396Y1992150D01*
X3493136Y2032949D01*
X3470005Y2076222D01*
X3451228Y2121555D01*
X3436984Y2168510D01*
X3427412Y2216635D01*
X3422602Y2265466D01*
X3422602Y2290000D01*
X3422000Y2290000D01*
X3422000Y2790000D01*
X3422602Y2790000D01*
X3422602Y2814534D01*
X3427412Y2863365D01*
X3436984Y2911490D01*
X3451228Y2958445D01*
X3470005Y3003778D01*
X3493136Y3047051D01*
X3520396Y3087850D01*
X3551524Y3125779D01*
X3586221Y3160476D01*
X3624150Y3191604D01*
X3664949Y3218864D01*
X3708222Y3241995D01*
X3753555Y3260772D01*
X3800510Y3275016D01*
X3848635Y3284588D01*
X3897466Y3289398D01*
X3922000Y3289398D01*
X3922000Y3290000D01*
X4422000Y3290000D01*
X4422000Y1790000D01*
X3922000Y1790000D01*
X3922000Y1790602D01*
G37*
%TD*%
%TO.C,JP4*%
G36*
X17157602Y3825000D02*
G01*
X17157602Y3849534D01*
X17162412Y3898365D01*
X17171984Y3946490D01*
X17186228Y3993445D01*
X17205005Y4038778D01*
X17228136Y4082051D01*
X17255396Y4122850D01*
X17286524Y4160779D01*
X17321221Y4195476D01*
X17359150Y4226604D01*
X17399949Y4253864D01*
X17443222Y4276995D01*
X17488555Y4295772D01*
X17535510Y4310016D01*
X17583635Y4319588D01*
X17632466Y4324398D01*
X17657000Y4324398D01*
X17657000Y4325000D01*
X18157000Y4325000D01*
X18157000Y4324398D01*
X18181534Y4324398D01*
X18230365Y4319588D01*
X18278490Y4310016D01*
X18325445Y4295772D01*
X18370778Y4276995D01*
X18414051Y4253864D01*
X18454850Y4226604D01*
X18492779Y4195476D01*
X18527476Y4160779D01*
X18558604Y4122850D01*
X18585864Y4082051D01*
X18608995Y4038778D01*
X18627772Y3993445D01*
X18642016Y3946490D01*
X18651588Y3898365D01*
X18656398Y3849534D01*
X18656398Y3825000D01*
X18657000Y3825000D01*
X18657000Y3325000D01*
X17157000Y3325000D01*
X17157000Y3825000D01*
X17157602Y3825000D01*
G37*
G36*
X18657000Y3025000D02*
G01*
X18657000Y2525000D01*
X18656398Y2525000D01*
X18656398Y2500466D01*
X18651588Y2451635D01*
X18642016Y2403510D01*
X18627772Y2356555D01*
X18608995Y2311222D01*
X18585864Y2267949D01*
X18558604Y2227150D01*
X18527476Y2189221D01*
X18492779Y2154524D01*
X18454850Y2123396D01*
X18414051Y2096136D01*
X18370778Y2073005D01*
X18325445Y2054228D01*
X18278490Y2039984D01*
X18230365Y2030412D01*
X18181534Y2025602D01*
X18157000Y2025602D01*
X18157000Y2025000D01*
X17657000Y2025000D01*
X17657000Y2025602D01*
X17632466Y2025602D01*
X17583635Y2030412D01*
X17535510Y2039984D01*
X17488555Y2054228D01*
X17443222Y2073005D01*
X17399949Y2096136D01*
X17359150Y2123396D01*
X17321221Y2154524D01*
X17286524Y2189221D01*
X17255396Y2227150D01*
X17228136Y2267949D01*
X17205005Y2311222D01*
X17186228Y2356555D01*
X17171984Y2403510D01*
X17162412Y2451635D01*
X17157602Y2500466D01*
X17157602Y2525000D01*
X17157000Y2525000D01*
X17157000Y3025000D01*
X18657000Y3025000D01*
G37*
%TD*%
D15*
%TO.C,TP6*%
X27432000Y4826000D03*
%TD*%
%TO.C,TP5*%
X27305000Y10795000D03*
%TD*%
%TO.C,U1*%
G36*
G01*
X21148000Y5845000D02*
X21048000Y5845000D01*
G75*
G02*
X20998000Y5895000I0J50000D01*
G01*
X20998000Y6345000D01*
G75*
G02*
X21048000Y6395000I50000J0D01*
G01*
X21148000Y6395000D01*
G75*
G02*
X21198000Y6345000I0J-50000D01*
G01*
X21198000Y5895000D01*
G75*
G02*
X21148000Y5845000I-50000J0D01*
G01*
G37*
G36*
G01*
X21548000Y5845000D02*
X21448000Y5845000D01*
G75*
G02*
X21398000Y5895000I0J50000D01*
G01*
X21398000Y6345000D01*
G75*
G02*
X21448000Y6395000I50000J0D01*
G01*
X21548000Y6395000D01*
G75*
G02*
X21598000Y6345000I0J-50000D01*
G01*
X21598000Y5895000D01*
G75*
G02*
X21548000Y5845000I-50000J0D01*
G01*
G37*
G36*
G01*
X21948000Y5845000D02*
X21848000Y5845000D01*
G75*
G02*
X21798000Y5895000I0J50000D01*
G01*
X21798000Y6345000D01*
G75*
G02*
X21848000Y6395000I50000J0D01*
G01*
X21948000Y6395000D01*
G75*
G02*
X21998000Y6345000I0J-50000D01*
G01*
X21998000Y5895000D01*
G75*
G02*
X21948000Y5845000I-50000J0D01*
G01*
G37*
G36*
G01*
X22348000Y5845000D02*
X22248000Y5845000D01*
G75*
G02*
X22198000Y5895000I0J50000D01*
G01*
X22198000Y6345000D01*
G75*
G02*
X22248000Y6395000I50000J0D01*
G01*
X22348000Y6395000D01*
G75*
G02*
X22398000Y6345000I0J-50000D01*
G01*
X22398000Y5895000D01*
G75*
G02*
X22348000Y5845000I-50000J0D01*
G01*
G37*
G36*
G01*
X22748000Y5845000D02*
X22648000Y5845000D01*
G75*
G02*
X22598000Y5895000I0J50000D01*
G01*
X22598000Y6345000D01*
G75*
G02*
X22648000Y6395000I50000J0D01*
G01*
X22748000Y6395000D01*
G75*
G02*
X22798000Y6345000I0J-50000D01*
G01*
X22798000Y5895000D01*
G75*
G02*
X22748000Y5845000I-50000J0D01*
G01*
G37*
G36*
G01*
X23148000Y5845000D02*
X23048000Y5845000D01*
G75*
G02*
X22998000Y5895000I0J50000D01*
G01*
X22998000Y6345000D01*
G75*
G02*
X23048000Y6395000I50000J0D01*
G01*
X23148000Y6395000D01*
G75*
G02*
X23198000Y6345000I0J-50000D01*
G01*
X23198000Y5895000D01*
G75*
G02*
X23148000Y5845000I-50000J0D01*
G01*
G37*
G36*
G01*
X23873000Y6670000D02*
X23873000Y6570000D01*
G75*
G02*
X23823000Y6520000I-50000J0D01*
G01*
X23373000Y6520000D01*
G75*
G02*
X23323000Y6570000I0J50000D01*
G01*
X23323000Y6670000D01*
G75*
G02*
X23373000Y6720000I50000J0D01*
G01*
X23823000Y6720000D01*
G75*
G02*
X23873000Y6670000I0J-50000D01*
G01*
G37*
G36*
G01*
X23873000Y7070000D02*
X23873000Y6970000D01*
G75*
G02*
X23823000Y6920000I-50000J0D01*
G01*
X23373000Y6920000D01*
G75*
G02*
X23323000Y6970000I0J50000D01*
G01*
X23323000Y7070000D01*
G75*
G02*
X23373000Y7120000I50000J0D01*
G01*
X23823000Y7120000D01*
G75*
G02*
X23873000Y7070000I0J-50000D01*
G01*
G37*
G36*
G01*
X23873000Y7470000D02*
X23873000Y7370000D01*
G75*
G02*
X23823000Y7320000I-50000J0D01*
G01*
X23373000Y7320000D01*
G75*
G02*
X23323000Y7370000I0J50000D01*
G01*
X23323000Y7470000D01*
G75*
G02*
X23373000Y7520000I50000J0D01*
G01*
X23823000Y7520000D01*
G75*
G02*
X23873000Y7470000I0J-50000D01*
G01*
G37*
G36*
G01*
X23873000Y7870000D02*
X23873000Y7770000D01*
G75*
G02*
X23823000Y7720000I-50000J0D01*
G01*
X23373000Y7720000D01*
G75*
G02*
X23323000Y7770000I0J50000D01*
G01*
X23323000Y7870000D01*
G75*
G02*
X23373000Y7920000I50000J0D01*
G01*
X23823000Y7920000D01*
G75*
G02*
X23873000Y7870000I0J-50000D01*
G01*
G37*
G36*
G01*
X23873000Y8270000D02*
X23873000Y8170000D01*
G75*
G02*
X23823000Y8120000I-50000J0D01*
G01*
X23373000Y8120000D01*
G75*
G02*
X23323000Y8170000I0J50000D01*
G01*
X23323000Y8270000D01*
G75*
G02*
X23373000Y8320000I50000J0D01*
G01*
X23823000Y8320000D01*
G75*
G02*
X23873000Y8270000I0J-50000D01*
G01*
G37*
G36*
G01*
X23873000Y8670000D02*
X23873000Y8570000D01*
G75*
G02*
X23823000Y8520000I-50000J0D01*
G01*
X23373000Y8520000D01*
G75*
G02*
X23323000Y8570000I0J50000D01*
G01*
X23323000Y8670000D01*
G75*
G02*
X23373000Y8720000I50000J0D01*
G01*
X23823000Y8720000D01*
G75*
G02*
X23873000Y8670000I0J-50000D01*
G01*
G37*
G36*
G01*
X23148000Y8845000D02*
X23048000Y8845000D01*
G75*
G02*
X22998000Y8895000I0J50000D01*
G01*
X22998000Y9345000D01*
G75*
G02*
X23048000Y9395000I50000J0D01*
G01*
X23148000Y9395000D01*
G75*
G02*
X23198000Y9345000I0J-50000D01*
G01*
X23198000Y8895000D01*
G75*
G02*
X23148000Y8845000I-50000J0D01*
G01*
G37*
G36*
G01*
X22748000Y8845000D02*
X22648000Y8845000D01*
G75*
G02*
X22598000Y8895000I0J50000D01*
G01*
X22598000Y9345000D01*
G75*
G02*
X22648000Y9395000I50000J0D01*
G01*
X22748000Y9395000D01*
G75*
G02*
X22798000Y9345000I0J-50000D01*
G01*
X22798000Y8895000D01*
G75*
G02*
X22748000Y8845000I-50000J0D01*
G01*
G37*
G36*
G01*
X22348000Y8845000D02*
X22248000Y8845000D01*
G75*
G02*
X22198000Y8895000I0J50000D01*
G01*
X22198000Y9345000D01*
G75*
G02*
X22248000Y9395000I50000J0D01*
G01*
X22348000Y9395000D01*
G75*
G02*
X22398000Y9345000I0J-50000D01*
G01*
X22398000Y8895000D01*
G75*
G02*
X22348000Y8845000I-50000J0D01*
G01*
G37*
G36*
G01*
X21948000Y8845000D02*
X21848000Y8845000D01*
G75*
G02*
X21798000Y8895000I0J50000D01*
G01*
X21798000Y9345000D01*
G75*
G02*
X21848000Y9395000I50000J0D01*
G01*
X21948000Y9395000D01*
G75*
G02*
X21998000Y9345000I0J-50000D01*
G01*
X21998000Y8895000D01*
G75*
G02*
X21948000Y8845000I-50000J0D01*
G01*
G37*
G36*
G01*
X21548000Y8845000D02*
X21448000Y8845000D01*
G75*
G02*
X21398000Y8895000I0J50000D01*
G01*
X21398000Y9345000D01*
G75*
G02*
X21448000Y9395000I50000J0D01*
G01*
X21548000Y9395000D01*
G75*
G02*
X21598000Y9345000I0J-50000D01*
G01*
X21598000Y8895000D01*
G75*
G02*
X21548000Y8845000I-50000J0D01*
G01*
G37*
G36*
G01*
X21148000Y8845000D02*
X21048000Y8845000D01*
G75*
G02*
X20998000Y8895000I0J50000D01*
G01*
X20998000Y9345000D01*
G75*
G02*
X21048000Y9395000I50000J0D01*
G01*
X21148000Y9395000D01*
G75*
G02*
X21198000Y9345000I0J-50000D01*
G01*
X21198000Y8895000D01*
G75*
G02*
X21148000Y8845000I-50000J0D01*
G01*
G37*
G36*
G01*
X20873000Y8670000D02*
X20873000Y8570000D01*
G75*
G02*
X20823000Y8520000I-50000J0D01*
G01*
X20373000Y8520000D01*
G75*
G02*
X20323000Y8570000I0J50000D01*
G01*
X20323000Y8670000D01*
G75*
G02*
X20373000Y8720000I50000J0D01*
G01*
X20823000Y8720000D01*
G75*
G02*
X20873000Y8670000I0J-50000D01*
G01*
G37*
G36*
G01*
X20873000Y8270000D02*
X20873000Y8170000D01*
G75*
G02*
X20823000Y8120000I-50000J0D01*
G01*
X20373000Y8120000D01*
G75*
G02*
X20323000Y8170000I0J50000D01*
G01*
X20323000Y8270000D01*
G75*
G02*
X20373000Y8320000I50000J0D01*
G01*
X20823000Y8320000D01*
G75*
G02*
X20873000Y8270000I0J-50000D01*
G01*
G37*
G36*
G01*
X20873000Y7870000D02*
X20873000Y7770000D01*
G75*
G02*
X20823000Y7720000I-50000J0D01*
G01*
X20373000Y7720000D01*
G75*
G02*
X20323000Y7770000I0J50000D01*
G01*
X20323000Y7870000D01*
G75*
G02*
X20373000Y7920000I50000J0D01*
G01*
X20823000Y7920000D01*
G75*
G02*
X20873000Y7870000I0J-50000D01*
G01*
G37*
G36*
G01*
X20873000Y7470000D02*
X20873000Y7370000D01*
G75*
G02*
X20823000Y7320000I-50000J0D01*
G01*
X20373000Y7320000D01*
G75*
G02*
X20323000Y7370000I0J50000D01*
G01*
X20323000Y7470000D01*
G75*
G02*
X20373000Y7520000I50000J0D01*
G01*
X20823000Y7520000D01*
G75*
G02*
X20873000Y7470000I0J-50000D01*
G01*
G37*
G36*
G01*
X20873000Y7070000D02*
X20873000Y6970000D01*
G75*
G02*
X20823000Y6920000I-50000J0D01*
G01*
X20373000Y6920000D01*
G75*
G02*
X20323000Y6970000I0J50000D01*
G01*
X20323000Y7070000D01*
G75*
G02*
X20373000Y7120000I50000J0D01*
G01*
X20823000Y7120000D01*
G75*
G02*
X20873000Y7070000I0J-50000D01*
G01*
G37*
G36*
G01*
X20873000Y6670000D02*
X20873000Y6570000D01*
G75*
G02*
X20823000Y6520000I-50000J0D01*
G01*
X20373000Y6520000D01*
G75*
G02*
X20323000Y6570000I0J50000D01*
G01*
X20323000Y6670000D01*
G75*
G02*
X20373000Y6720000I50000J0D01*
G01*
X20823000Y6720000D01*
G75*
G02*
X20873000Y6670000I0J-50000D01*
G01*
G37*
%TD*%
D14*
%TO.C,JP2*%
G36*
X-142000Y1790602D02*
G01*
X-166534Y1790602D01*
X-215365Y1795412D01*
X-263490Y1804984D01*
X-310445Y1819228D01*
X-355778Y1838005D01*
X-399051Y1861136D01*
X-439850Y1888396D01*
X-477779Y1919524D01*
X-512476Y1954221D01*
X-543604Y1992150D01*
X-570864Y2032949D01*
X-593995Y2076222D01*
X-612772Y2121555D01*
X-627016Y2168510D01*
X-636588Y2216635D01*
X-641398Y2265466D01*
X-641398Y2290000D01*
X-642000Y2290000D01*
X-642000Y2790000D01*
X-641398Y2790000D01*
X-641398Y2814534D01*
X-636588Y2863365D01*
X-627016Y2911490D01*
X-612772Y2958445D01*
X-593995Y3003778D01*
X-570864Y3047051D01*
X-543604Y3087850D01*
X-512476Y3125779D01*
X-477779Y3160476D01*
X-439850Y3191604D01*
X-399051Y3218864D01*
X-355778Y3241995D01*
X-310445Y3260772D01*
X-263490Y3275016D01*
X-215365Y3284588D01*
X-166534Y3289398D01*
X-142000Y3289398D01*
X-142000Y3290000D01*
X358000Y3290000D01*
X358000Y1790000D01*
X-142000Y1790000D01*
X-142000Y1790602D01*
G37*
G36*
X658000Y3290000D02*
G01*
X1158000Y3290000D01*
X1158000Y3289398D01*
X1182534Y3289398D01*
X1231365Y3284588D01*
X1279490Y3275016D01*
X1326445Y3260772D01*
X1371778Y3241995D01*
X1415051Y3218864D01*
X1455850Y3191604D01*
X1493779Y3160476D01*
X1528476Y3125779D01*
X1559604Y3087850D01*
X1586864Y3047051D01*
X1609995Y3003778D01*
X1628772Y2958445D01*
X1643016Y2911490D01*
X1652588Y2863365D01*
X1657398Y2814534D01*
X1657398Y2790000D01*
X1658000Y2790000D01*
X1658000Y2290000D01*
X1657398Y2290000D01*
X1657398Y2265466D01*
X1652588Y2216635D01*
X1643016Y2168510D01*
X1628772Y2121555D01*
X1609995Y2076222D01*
X1586864Y2032949D01*
X1559604Y1992150D01*
X1528476Y1954221D01*
X1493779Y1919524D01*
X1455850Y1888396D01*
X1415051Y1861136D01*
X1371778Y1838005D01*
X1326445Y1819228D01*
X1279490Y1804984D01*
X1231365Y1795412D01*
X1182534Y1790602D01*
X1158000Y1790602D01*
X1158000Y1790000D01*
X658000Y1790000D01*
X658000Y3290000D01*
G37*
%TD*%
D16*
%TO.C,J1*%
X160000Y6145000D03*
D17*
X1685000Y7620000D03*
D16*
X160000Y9095000D03*
%TD*%
%TO.C,D1*%
G36*
G01*
X18638000Y12951750D02*
X18638000Y13464250D01*
G75*
G02*
X18856750Y13683000I218750J0D01*
G01*
X19294250Y13683000D01*
G75*
G02*
X19513000Y13464250I0J-218750D01*
G01*
X19513000Y12951750D01*
G75*
G02*
X19294250Y12733000I-218750J0D01*
G01*
X18856750Y12733000D01*
G75*
G02*
X18638000Y12951750I0J218750D01*
G01*
G37*
G36*
G01*
X17063000Y12951750D02*
X17063000Y13464250D01*
G75*
G02*
X17281750Y13683000I218750J0D01*
G01*
X17719250Y13683000D01*
G75*
G02*
X17938000Y13464250I0J-218750D01*
G01*
X17938000Y12951750D01*
G75*
G02*
X17719250Y12733000I-218750J0D01*
G01*
X17281750Y12733000D01*
G75*
G02*
X17063000Y12951750I0J218750D01*
G01*
G37*
%TD*%
%TO.C,C8*%
G36*
G01*
X19682750Y2926500D02*
X20195250Y2926500D01*
G75*
G02*
X20414000Y2707750I0J-218750D01*
G01*
X20414000Y2270250D01*
G75*
G02*
X20195250Y2051500I-218750J0D01*
G01*
X19682750Y2051500D01*
G75*
G02*
X19464000Y2270250I0J218750D01*
G01*
X19464000Y2707750D01*
G75*
G02*
X19682750Y2926500I218750J0D01*
G01*
G37*
G36*
G01*
X19682750Y4501500D02*
X20195250Y4501500D01*
G75*
G02*
X20414000Y4282750I0J-218750D01*
G01*
X20414000Y3845250D01*
G75*
G02*
X20195250Y3626500I-218750J0D01*
G01*
X19682750Y3626500D01*
G75*
G02*
X19464000Y3845250I0J218750D01*
G01*
X19464000Y4282750D01*
G75*
G02*
X19682750Y4501500I218750J0D01*
G01*
G37*
%TD*%
D18*
%TO.C,J2*%
X435000Y7620000D03*
D19*
X635000Y4795000D03*
X635000Y10445000D03*
%TD*%
D20*
%TO.C,U3*%
X15830000Y12370000D03*
D21*
X14730000Y12370000D03*
X13630000Y12370000D03*
X12530000Y12370000D03*
X11430000Y12370000D03*
X10330000Y12370000D03*
X9230000Y12370000D03*
X8130000Y12370000D03*
D20*
X7030000Y12370000D03*
X7030000Y2870000D03*
D21*
X8130000Y2870000D03*
X9230000Y2870000D03*
X10330000Y2870000D03*
X11430000Y2870000D03*
X12530000Y2870000D03*
X13630000Y2870000D03*
X14730000Y2870000D03*
D20*
X15830000Y2870000D03*
%TD*%
M02*
