%TF.GenerationSoftware,KiCad,Pcbnew,5.1.9+dfsg1-1~bpo10+1*%
%TF.CreationDate,Date%
%TF.ProjectId,POS,504f532e-6b69-4636-9164-5f7063625858,v3.3*%
%TF.SameCoordinates,Original*%
%TF.FileFunction,Copper,L3,Inr*%
%TF.FilePolarity,Positive*%
%FSLAX46Y46*%
G04 Gerber Fmt 4.6, Leading zero omitted, Abs format (unit mm)*
G04 Created by KiCad*
%MOMM*%
%LPD*%
G01*
G04 APERTURE LIST*
%TA.AperFunction,ComponentPad*%
%ADD10R,2.100000X2.100000*%
%TD*%
%TA.AperFunction,ComponentPad*%
%ADD11C,2.100000*%
%TD*%
%TA.AperFunction,ComponentPad*%
%ADD12C,0.600000*%
%TD*%
%TA.AperFunction,ComponentPad*%
%ADD13C,1.500000*%
%TD*%
%TA.AperFunction,ViaPad*%
%ADD14C,0.500000*%
%TD*%
%TA.AperFunction,ViaPad*%
%ADD15C,0.450000*%
%TD*%
%TA.AperFunction,Conductor*%
%ADD16C,0.254000*%
%TD*%
%TA.AperFunction,Conductor*%
%ADD17C,0.100000*%
%TD*%
G04 APERTURE END LIST*
D10*
%TO.N,RXD*%
%TO.C,A1*%
X0Y0D03*
D11*
%TO.N,TXD*%
X0Y2540000D03*
%TO.N,GND*%
X0Y5080000D03*
%TO.N,Net-(A1-Pad13)*%
X-15240000Y27940000D03*
%TO.N,GND*%
X0Y7620000D03*
%TO.N,Net-(A1-Pad14)*%
X-15240000Y25400000D03*
%TO.N,SDA*%
X0Y10160000D03*
%TO.N,Net-(A1-Pad15)*%
X-15240000Y22860000D03*
%TO.N,SCL*%
X0Y12700000D03*
%TO.N,Net-(A1-Pad16)*%
X-15240000Y20320000D03*
%TO.N,Net-(A1-Pad7)*%
X0Y15240000D03*
%TO.N,Net-(A1-Pad17)*%
X-15240000Y17780000D03*
%TO.N,PWM*%
X0Y17780000D03*
%TO.N,Net-(A1-Pad18)*%
X-15240000Y15240000D03*
%TO.N,Net-(A1-Pad9)*%
X0Y20320000D03*
%TO.N,Net-(A1-Pad19)*%
X-15240000Y12700000D03*
%TO.N,INT*%
X0Y22860000D03*
%TO.N,Net-(A1-Pad20)*%
X-15240000Y10160000D03*
%TO.N,Net-(A1-Pad11)*%
X0Y25400000D03*
%TO.N,+3V3*%
X-15240000Y7620000D03*
%TO.N,Net-(A1-Pad12)*%
X0Y27940000D03*
%TO.N,~RST*%
X-15240000Y5080000D03*
%TO.N,GND*%
X-15240000Y2540000D03*
%TO.N,+5V*%
X-15240000Y0D03*
%TD*%
D12*
%TO.N,*%
%TO.C,H2*%
X-7620000Y27305000D03*
%TD*%
D13*
%TO.N,Net-(TP4-Pad1)*%
%TO.C,TP4*%
X-12700000Y21590000D03*
%TD*%
D14*
%TO.N,GND*%
X-8382000Y2921000D03*
X-6858000Y2921000D03*
X-6350000Y2032000D03*
X-8890000Y2032000D03*
X-4318000Y10414000D03*
X-8255000Y6350000D03*
X-10033000Y6096000D03*
X-12192000Y4064000D03*
X-8128000Y11176000D03*
X-6985000Y10160000D03*
X-1143000Y16510000D03*
X-5461000Y11557000D03*
X-6604000Y12700000D03*
X-5715000Y8890000D03*
X-9525000Y7620000D03*
X-7620000Y6985000D03*
X-6985000Y7620000D03*
X-6350000Y8255000D03*
X-7620000Y9525000D03*
X-8255000Y8890000D03*
X-8890000Y8255000D03*
X-5715000Y6350000D03*
X-5080000Y6985000D03*
X-4445000Y12573000D03*
X-3429000Y2159000D03*
X-11811000Y2159000D03*
X-4318000Y15367000D03*
X-7747000Y13843000D03*
X-12192000Y5969000D03*
X-3429000Y6096000D03*
D15*
X-9461500Y19748500D03*
X-10287000Y15240000D03*
X-10287000Y10795000D03*
X-8890000Y16383000D03*
X-6604000Y14859000D03*
X-5715000Y13970000D03*
X-5461000Y16383000D03*
X-4826000Y18796000D03*
X-8890000Y25146000D03*
X-7747000Y25146000D03*
X-3810000Y22860000D03*
X-11049000Y19685000D03*
X-13970000Y24130000D03*
X-13970000Y26670000D03*
X-1270000Y26670000D03*
X-1270000Y19050000D03*
X-11049000Y22098000D03*
D14*
X-11684000Y17653000D03*
%TO.N,+3V3*%
X-11051006Y8130000D03*
D15*
X-6858000Y24384000D03*
X-8890000Y17780000D03*
X-4445000Y20955000D03*
X-10541000Y22860000D03*
%TO.N,Net-(TP1-Pad1)*%
X-10160000Y19304000D03*
%TO.N,Net-(TP2-Pad1)*%
X-5241283Y21116338D03*
%TO.N,Net-(TP3-Pad1)*%
X-9398000Y23622000D03*
D14*
%TO.N,Net-(JP2-Pad1)*%
X-9715500Y13271500D03*
X-3810000Y4318000D03*
%TO.N,Net-(JP3-Pad1)*%
X-1270000Y6350000D03*
X-9779000Y14224000D03*
%TO.N,SDA*%
X-2870000Y13630000D03*
D15*
X-5715000Y18224500D03*
%TO.N,SCL*%
X-6985000Y18234490D03*
D14*
X-2870000Y14730000D03*
%TD*%
D16*
%TO.N,+3V3*%
X-1069586Y28817787D02*
X-1220282Y28592254D01*
X-1324083Y28341656D01*
X-1377000Y28075623D01*
X-1377000Y27804377D01*
X-1324083Y27538344D01*
X-1220282Y27287746D01*
X-1170331Y27212989D01*
X-1215633Y27222000D01*
X-1324367Y27222000D01*
X-1431012Y27200787D01*
X-1531470Y27159176D01*
X-1621880Y27098766D01*
X-1698766Y27021880D01*
X-1759176Y26931470D01*
X-1800787Y26831012D01*
X-1822000Y26724367D01*
X-1822000Y26615633D01*
X-1800787Y26508988D01*
X-1759176Y26408530D01*
X-1698766Y26318120D01*
X-1621880Y26241234D01*
X-1531470Y26180824D01*
X-1431012Y26139213D01*
X-1324367Y26118000D01*
X-1215633Y26118000D01*
X-1170331Y26127011D01*
X-1220282Y26052254D01*
X-1324083Y25801656D01*
X-1377000Y25535623D01*
X-1377000Y25264377D01*
X-1324083Y24998344D01*
X-1220282Y24747746D01*
X-1069586Y24522213D01*
X-877787Y24330414D01*
X-652254Y24179718D01*
X-532224Y24130000D01*
X-652254Y24080282D01*
X-877787Y23929586D01*
X-1069586Y23737787D01*
X-1220282Y23512254D01*
X-1324083Y23261656D01*
X-1377000Y22995623D01*
X-1377000Y22724377D01*
X-1324083Y22458344D01*
X-1220282Y22207746D01*
X-1069586Y21982213D01*
X-877787Y21790414D01*
X-652254Y21639718D01*
X-532224Y21590000D01*
X-652254Y21540282D01*
X-877787Y21389586D01*
X-1069586Y21197787D01*
X-1220282Y20972254D01*
X-1324083Y20721656D01*
X-1377000Y20455623D01*
X-1377000Y20184377D01*
X-1324083Y19918344D01*
X-1220282Y19667746D01*
X-1170331Y19592989D01*
X-1215633Y19602000D01*
X-1324367Y19602000D01*
X-1431012Y19580787D01*
X-1531470Y19539176D01*
X-1621880Y19478766D01*
X-1698766Y19401880D01*
X-1759176Y19311470D01*
X-1800787Y19211012D01*
X-1822000Y19104367D01*
X-1822000Y18995633D01*
X-1800787Y18888988D01*
X-1759176Y18788530D01*
X-1698766Y18698120D01*
X-1621880Y18621234D01*
X-1531470Y18560824D01*
X-1431012Y18519213D01*
X-1324367Y18498000D01*
X-1215633Y18498000D01*
X-1170331Y18507011D01*
X-1220282Y18432254D01*
X-1324083Y18181656D01*
X-1377000Y17915623D01*
X-1377000Y17644377D01*
X-1324083Y17378344D01*
X-1220282Y17127746D01*
X-1193056Y17087000D01*
X-1199830Y17087000D01*
X-1311305Y17064826D01*
X-1416312Y17021331D01*
X-1510816Y16958185D01*
X-1591185Y16877816D01*
X-1654331Y16783312D01*
X-1697826Y16678305D01*
X-1720000Y16566830D01*
X-1720000Y16453170D01*
X-1697826Y16341695D01*
X-1654331Y16236688D01*
X-1591185Y16142184D01*
X-1510816Y16061815D01*
X-1416312Y15998669D01*
X-1311305Y15955174D01*
X-1199830Y15933000D01*
X-1193056Y15933000D01*
X-1220282Y15892254D01*
X-1324083Y15641656D01*
X-1377000Y15375623D01*
X-1377000Y15104377D01*
X-1324083Y14838344D01*
X-1220282Y14587746D01*
X-1069586Y14362213D01*
X-877787Y14170414D01*
X-652254Y14019718D01*
X-532224Y13970000D01*
X-652254Y13920282D01*
X-877787Y13769586D01*
X-1069586Y13577787D01*
X-1220282Y13352254D01*
X-1324083Y13101656D01*
X-1377000Y12835623D01*
X-1377000Y12564377D01*
X-1324083Y12298344D01*
X-1220282Y12047746D01*
X-1069586Y11822213D01*
X-877787Y11630414D01*
X-652254Y11479718D01*
X-532224Y11430000D01*
X-652254Y11380282D01*
X-877787Y11229586D01*
X-1069586Y11037787D01*
X-1220282Y10812254D01*
X-1324083Y10561656D01*
X-1377000Y10295623D01*
X-1377000Y10024377D01*
X-1324083Y9758344D01*
X-1220282Y9507746D01*
X-1069586Y9282213D01*
X-877787Y9090414D01*
X-652254Y8939718D01*
X-532224Y8890000D01*
X-652254Y8840282D01*
X-877787Y8689586D01*
X-1069586Y8497787D01*
X-1220282Y8272254D01*
X-1324083Y8021656D01*
X-1377000Y7755623D01*
X-1377000Y7484377D01*
X-1324083Y7218344D01*
X-1220282Y6967746D01*
X-1189973Y6922386D01*
X-1213170Y6927000D01*
X-1326830Y6927000D01*
X-1438305Y6904826D01*
X-1543312Y6861331D01*
X-1637816Y6798185D01*
X-1718185Y6717816D01*
X-1781331Y6623312D01*
X-1824826Y6518305D01*
X-1847000Y6406830D01*
X-1847000Y6293170D01*
X-1824826Y6181695D01*
X-1781331Y6076688D01*
X-1718185Y5982184D01*
X-1637816Y5901815D01*
X-1543312Y5838669D01*
X-1438305Y5795174D01*
X-1326830Y5773000D01*
X-1213170Y5773000D01*
X-1189973Y5777614D01*
X-1220282Y5732254D01*
X-1324083Y5481656D01*
X-1377000Y5215623D01*
X-1377000Y4944377D01*
X-1324083Y4678344D01*
X-1220282Y4427746D01*
X-1069586Y4202213D01*
X-877787Y4010414D01*
X-652254Y3859718D01*
X-532224Y3810000D01*
X-652254Y3760282D01*
X-877787Y3609586D01*
X-1069586Y3417787D01*
X-1220282Y3192254D01*
X-1324083Y2941656D01*
X-1377000Y2675623D01*
X-1377000Y2404377D01*
X-1324083Y2138344D01*
X-1220282Y1887746D01*
X-1069586Y1662213D01*
X-877787Y1470414D01*
X-740350Y1378582D01*
X-1050000Y1378582D01*
X-1114103Y1372268D01*
X-1175743Y1353570D01*
X-1232550Y1323206D01*
X-1282343Y1282343D01*
X-1323206Y1232550D01*
X-1353570Y1175743D01*
X-1372268Y1114103D01*
X-1378582Y1050000D01*
X-1378582Y-893000D01*
X-14185627Y-893000D01*
X-14170414Y-877787D01*
X-14019718Y-652254D01*
X-13915917Y-401656D01*
X-13863000Y-135623D01*
X-13863000Y135623D01*
X-13915917Y401656D01*
X-14019718Y652254D01*
X-14170414Y877787D01*
X-14362213Y1069586D01*
X-14587746Y1220282D01*
X-14707776Y1270000D01*
X-14587746Y1319718D01*
X-14362213Y1470414D01*
X-14170414Y1662213D01*
X-14019718Y1887746D01*
X-13915917Y2138344D01*
X-13900505Y2215830D01*
X-12388000Y2215830D01*
X-12388000Y2102170D01*
X-12365826Y1990695D01*
X-12322331Y1885688D01*
X-12259185Y1791184D01*
X-12178816Y1710815D01*
X-12084312Y1647669D01*
X-11979305Y1604174D01*
X-11867830Y1582000D01*
X-11754170Y1582000D01*
X-11642695Y1604174D01*
X-11537688Y1647669D01*
X-11443184Y1710815D01*
X-11362815Y1791184D01*
X-11299669Y1885688D01*
X-11256174Y1990695D01*
X-11236654Y2088830D01*
X-9467000Y2088830D01*
X-9467000Y1975170D01*
X-9444826Y1863695D01*
X-9401331Y1758688D01*
X-9338185Y1664184D01*
X-9257816Y1583815D01*
X-9163312Y1520669D01*
X-9058305Y1477174D01*
X-8946830Y1455000D01*
X-8833170Y1455000D01*
X-8721695Y1477174D01*
X-8616688Y1520669D01*
X-8522184Y1583815D01*
X-8441815Y1664184D01*
X-8378669Y1758688D01*
X-8335174Y1863695D01*
X-8313000Y1975170D01*
X-8313000Y2088830D01*
X-8335174Y2200305D01*
X-8378669Y2305312D01*
X-8404520Y2344000D01*
X-8325170Y2344000D01*
X-8213695Y2366174D01*
X-8108688Y2409669D01*
X-8014184Y2472815D01*
X-7933815Y2553184D01*
X-7870669Y2647688D01*
X-7827174Y2752695D01*
X-7805000Y2864170D01*
X-7805000Y2977830D01*
X-7435000Y2977830D01*
X-7435000Y2864170D01*
X-7412826Y2752695D01*
X-7369331Y2647688D01*
X-7306185Y2553184D01*
X-7225816Y2472815D01*
X-7131312Y2409669D01*
X-7026305Y2366174D01*
X-6914830Y2344000D01*
X-6835480Y2344000D01*
X-6861331Y2305312D01*
X-6904826Y2200305D01*
X-6927000Y2088830D01*
X-6927000Y1975170D01*
X-6904826Y1863695D01*
X-6861331Y1758688D01*
X-6798185Y1664184D01*
X-6717816Y1583815D01*
X-6623312Y1520669D01*
X-6518305Y1477174D01*
X-6406830Y1455000D01*
X-6293170Y1455000D01*
X-6181695Y1477174D01*
X-6076688Y1520669D01*
X-5982184Y1583815D01*
X-5901815Y1664184D01*
X-5838669Y1758688D01*
X-5795174Y1863695D01*
X-5773000Y1975170D01*
X-5773000Y2088830D01*
X-5795174Y2200305D01*
X-5801604Y2215830D01*
X-4006000Y2215830D01*
X-4006000Y2102170D01*
X-3983826Y1990695D01*
X-3940331Y1885688D01*
X-3877185Y1791184D01*
X-3796816Y1710815D01*
X-3702312Y1647669D01*
X-3597305Y1604174D01*
X-3485830Y1582000D01*
X-3372170Y1582000D01*
X-3260695Y1604174D01*
X-3155688Y1647669D01*
X-3061184Y1710815D01*
X-2980815Y1791184D01*
X-2917669Y1885688D01*
X-2874174Y1990695D01*
X-2852000Y2102170D01*
X-2852000Y2215830D01*
X-2874174Y2327305D01*
X-2917669Y2432312D01*
X-2980815Y2526816D01*
X-3061184Y2607185D01*
X-3155688Y2670331D01*
X-3260695Y2713826D01*
X-3372170Y2736000D01*
X-3485830Y2736000D01*
X-3597305Y2713826D01*
X-3702312Y2670331D01*
X-3796816Y2607185D01*
X-3877185Y2526816D01*
X-3940331Y2432312D01*
X-3983826Y2327305D01*
X-4006000Y2215830D01*
X-5801604Y2215830D01*
X-5838669Y2305312D01*
X-5901815Y2399816D01*
X-5982184Y2480185D01*
X-6076688Y2543331D01*
X-6181695Y2586826D01*
X-6293170Y2609000D01*
X-6372520Y2609000D01*
X-6346669Y2647688D01*
X-6303174Y2752695D01*
X-6281000Y2864170D01*
X-6281000Y2977830D01*
X-6303174Y3089305D01*
X-6346669Y3194312D01*
X-6409815Y3288816D01*
X-6490184Y3369185D01*
X-6584688Y3432331D01*
X-6689695Y3475826D01*
X-6801170Y3498000D01*
X-6914830Y3498000D01*
X-7026305Y3475826D01*
X-7131312Y3432331D01*
X-7225816Y3369185D01*
X-7306185Y3288816D01*
X-7369331Y3194312D01*
X-7412826Y3089305D01*
X-7435000Y2977830D01*
X-7805000Y2977830D01*
X-7827174Y3089305D01*
X-7870669Y3194312D01*
X-7933815Y3288816D01*
X-8014184Y3369185D01*
X-8108688Y3432331D01*
X-8213695Y3475826D01*
X-8325170Y3498000D01*
X-8438830Y3498000D01*
X-8550305Y3475826D01*
X-8655312Y3432331D01*
X-8749816Y3369185D01*
X-8830185Y3288816D01*
X-8893331Y3194312D01*
X-8936826Y3089305D01*
X-8959000Y2977830D01*
X-8959000Y2864170D01*
X-8936826Y2752695D01*
X-8893331Y2647688D01*
X-8867480Y2609000D01*
X-8946830Y2609000D01*
X-9058305Y2586826D01*
X-9163312Y2543331D01*
X-9257816Y2480185D01*
X-9338185Y2399816D01*
X-9401331Y2305312D01*
X-9444826Y2200305D01*
X-9467000Y2088830D01*
X-11236654Y2088830D01*
X-11234000Y2102170D01*
X-11234000Y2215830D01*
X-11256174Y2327305D01*
X-11299669Y2432312D01*
X-11362815Y2526816D01*
X-11443184Y2607185D01*
X-11537688Y2670331D01*
X-11642695Y2713826D01*
X-11754170Y2736000D01*
X-11867830Y2736000D01*
X-11979305Y2713826D01*
X-12084312Y2670331D01*
X-12178816Y2607185D01*
X-12259185Y2526816D01*
X-12322331Y2432312D01*
X-12365826Y2327305D01*
X-12388000Y2215830D01*
X-13900505Y2215830D01*
X-13863000Y2404377D01*
X-13863000Y2675623D01*
X-13915917Y2941656D01*
X-14019718Y3192254D01*
X-14170414Y3417787D01*
X-14362213Y3609586D01*
X-14587746Y3760282D01*
X-14707776Y3810000D01*
X-14587746Y3859718D01*
X-14362213Y4010414D01*
X-14251797Y4120830D01*
X-12769000Y4120830D01*
X-12769000Y4007170D01*
X-12746826Y3895695D01*
X-12703331Y3790688D01*
X-12640185Y3696184D01*
X-12559816Y3615815D01*
X-12465312Y3552669D01*
X-12360305Y3509174D01*
X-12248830Y3487000D01*
X-12135170Y3487000D01*
X-12023695Y3509174D01*
X-11918688Y3552669D01*
X-11824184Y3615815D01*
X-11743815Y3696184D01*
X-11680669Y3790688D01*
X-11637174Y3895695D01*
X-11615000Y4007170D01*
X-11615000Y4120830D01*
X-11637174Y4232305D01*
X-11680669Y4337312D01*
X-11705737Y4374830D01*
X-4387000Y4374830D01*
X-4387000Y4261170D01*
X-4364826Y4149695D01*
X-4321331Y4044688D01*
X-4258185Y3950184D01*
X-4177816Y3869815D01*
X-4083312Y3806669D01*
X-3978305Y3763174D01*
X-3866830Y3741000D01*
X-3753170Y3741000D01*
X-3641695Y3763174D01*
X-3536688Y3806669D01*
X-3442184Y3869815D01*
X-3361815Y3950184D01*
X-3298669Y4044688D01*
X-3255174Y4149695D01*
X-3233000Y4261170D01*
X-3233000Y4374830D01*
X-3255174Y4486305D01*
X-3298669Y4591312D01*
X-3361815Y4685816D01*
X-3442184Y4766185D01*
X-3536688Y4829331D01*
X-3641695Y4872826D01*
X-3753170Y4895000D01*
X-3866830Y4895000D01*
X-3978305Y4872826D01*
X-4083312Y4829331D01*
X-4177816Y4766185D01*
X-4258185Y4685816D01*
X-4321331Y4591312D01*
X-4364826Y4486305D01*
X-4387000Y4374830D01*
X-11705737Y4374830D01*
X-11743815Y4431816D01*
X-11824184Y4512185D01*
X-11918688Y4575331D01*
X-12023695Y4618826D01*
X-12135170Y4641000D01*
X-12248830Y4641000D01*
X-12360305Y4618826D01*
X-12465312Y4575331D01*
X-12559816Y4512185D01*
X-12640185Y4431816D01*
X-12703331Y4337312D01*
X-12746826Y4232305D01*
X-12769000Y4120830D01*
X-14251797Y4120830D01*
X-14170414Y4202213D01*
X-14019718Y4427746D01*
X-13915917Y4678344D01*
X-13863000Y4944377D01*
X-13863000Y5215623D01*
X-13915917Y5481656D01*
X-14019718Y5732254D01*
X-14170414Y5957787D01*
X-14238457Y6025830D01*
X-12769000Y6025830D01*
X-12769000Y5912170D01*
X-12746826Y5800695D01*
X-12703331Y5695688D01*
X-12640185Y5601184D01*
X-12559816Y5520815D01*
X-12465312Y5457669D01*
X-12360305Y5414174D01*
X-12248830Y5392000D01*
X-12135170Y5392000D01*
X-12023695Y5414174D01*
X-11918688Y5457669D01*
X-11824184Y5520815D01*
X-11743815Y5601184D01*
X-11680669Y5695688D01*
X-11637174Y5800695D01*
X-11615000Y5912170D01*
X-11615000Y6025830D01*
X-11637174Y6137305D01*
X-11643604Y6152830D01*
X-10610000Y6152830D01*
X-10610000Y6039170D01*
X-10587826Y5927695D01*
X-10544331Y5822688D01*
X-10481185Y5728184D01*
X-10400816Y5647815D01*
X-10306312Y5584669D01*
X-10201305Y5541174D01*
X-10089830Y5519000D01*
X-9976170Y5519000D01*
X-9864695Y5541174D01*
X-9759688Y5584669D01*
X-9665184Y5647815D01*
X-9584815Y5728184D01*
X-9521669Y5822688D01*
X-9478174Y5927695D01*
X-9456000Y6039170D01*
X-9456000Y6152830D01*
X-9478174Y6264305D01*
X-9521669Y6369312D01*
X-9546737Y6406830D01*
X-8832000Y6406830D01*
X-8832000Y6293170D01*
X-8809826Y6181695D01*
X-8766331Y6076688D01*
X-8703185Y5982184D01*
X-8622816Y5901815D01*
X-8528312Y5838669D01*
X-8423305Y5795174D01*
X-8311830Y5773000D01*
X-8198170Y5773000D01*
X-8086695Y5795174D01*
X-7981688Y5838669D01*
X-7887184Y5901815D01*
X-7806815Y5982184D01*
X-7743669Y6076688D01*
X-7700174Y6181695D01*
X-7678000Y6293170D01*
X-7678000Y6406830D01*
X-6292000Y6406830D01*
X-6292000Y6293170D01*
X-6269826Y6181695D01*
X-6226331Y6076688D01*
X-6163185Y5982184D01*
X-6082816Y5901815D01*
X-5988312Y5838669D01*
X-5883305Y5795174D01*
X-5771830Y5773000D01*
X-5658170Y5773000D01*
X-5546695Y5795174D01*
X-5441688Y5838669D01*
X-5347184Y5901815D01*
X-5266815Y5982184D01*
X-5203669Y6076688D01*
X-5172131Y6152830D01*
X-4006000Y6152830D01*
X-4006000Y6039170D01*
X-3983826Y5927695D01*
X-3940331Y5822688D01*
X-3877185Y5728184D01*
X-3796816Y5647815D01*
X-3702312Y5584669D01*
X-3597305Y5541174D01*
X-3485830Y5519000D01*
X-3372170Y5519000D01*
X-3260695Y5541174D01*
X-3155688Y5584669D01*
X-3061184Y5647815D01*
X-2980815Y5728184D01*
X-2917669Y5822688D01*
X-2874174Y5927695D01*
X-2852000Y6039170D01*
X-2852000Y6152830D01*
X-2874174Y6264305D01*
X-2917669Y6369312D01*
X-2980815Y6463816D01*
X-3061184Y6544185D01*
X-3155688Y6607331D01*
X-3260695Y6650826D01*
X-3372170Y6673000D01*
X-3485830Y6673000D01*
X-3597305Y6650826D01*
X-3702312Y6607331D01*
X-3796816Y6544185D01*
X-3877185Y6463816D01*
X-3940331Y6369312D01*
X-3983826Y6264305D01*
X-4006000Y6152830D01*
X-5172131Y6152830D01*
X-5160174Y6181695D01*
X-5138000Y6293170D01*
X-5138000Y6406830D01*
X-5138291Y6408291D01*
X-5136830Y6408000D01*
X-5023170Y6408000D01*
X-4911695Y6430174D01*
X-4806688Y6473669D01*
X-4712184Y6536815D01*
X-4631815Y6617184D01*
X-4568669Y6711688D01*
X-4525174Y6816695D01*
X-4503000Y6928170D01*
X-4503000Y7041830D01*
X-4525174Y7153305D01*
X-4568669Y7258312D01*
X-4631815Y7352816D01*
X-4712184Y7433185D01*
X-4806688Y7496331D01*
X-4911695Y7539826D01*
X-5023170Y7562000D01*
X-5136830Y7562000D01*
X-5248305Y7539826D01*
X-5353312Y7496331D01*
X-5447816Y7433185D01*
X-5528185Y7352816D01*
X-5591331Y7258312D01*
X-5634826Y7153305D01*
X-5657000Y7041830D01*
X-5657000Y6928170D01*
X-5656709Y6926709D01*
X-5658170Y6927000D01*
X-5771830Y6927000D01*
X-5883305Y6904826D01*
X-5988312Y6861331D01*
X-6082816Y6798185D01*
X-6163185Y6717816D01*
X-6226331Y6623312D01*
X-6269826Y6518305D01*
X-6292000Y6406830D01*
X-7678000Y6406830D01*
X-7678291Y6408291D01*
X-7676830Y6408000D01*
X-7563170Y6408000D01*
X-7451695Y6430174D01*
X-7346688Y6473669D01*
X-7252184Y6536815D01*
X-7171815Y6617184D01*
X-7108669Y6711688D01*
X-7065174Y6816695D01*
X-7043000Y6928170D01*
X-7043000Y7041830D01*
X-7043291Y7043291D01*
X-7041830Y7043000D01*
X-6928170Y7043000D01*
X-6816695Y7065174D01*
X-6711688Y7108669D01*
X-6617184Y7171815D01*
X-6536815Y7252184D01*
X-6473669Y7346688D01*
X-6430174Y7451695D01*
X-6408000Y7563170D01*
X-6408000Y7676830D01*
X-6408291Y7678291D01*
X-6406830Y7678000D01*
X-6293170Y7678000D01*
X-6181695Y7700174D01*
X-6076688Y7743669D01*
X-5982184Y7806815D01*
X-5901815Y7887184D01*
X-5838669Y7981688D01*
X-5795174Y8086695D01*
X-5773000Y8198170D01*
X-5773000Y8311830D01*
X-5773291Y8313291D01*
X-5771830Y8313000D01*
X-5658170Y8313000D01*
X-5546695Y8335174D01*
X-5441688Y8378669D01*
X-5347184Y8441815D01*
X-5266815Y8522184D01*
X-5203669Y8616688D01*
X-5160174Y8721695D01*
X-5138000Y8833170D01*
X-5138000Y8946830D01*
X-5160174Y9058305D01*
X-5203669Y9163312D01*
X-5266815Y9257816D01*
X-5347184Y9338185D01*
X-5441688Y9401331D01*
X-5546695Y9444826D01*
X-5658170Y9467000D01*
X-5771830Y9467000D01*
X-5883305Y9444826D01*
X-5988312Y9401331D01*
X-6082816Y9338185D01*
X-6163185Y9257816D01*
X-6226331Y9163312D01*
X-6269826Y9058305D01*
X-6292000Y8946830D01*
X-6292000Y8833170D01*
X-6291709Y8831709D01*
X-6293170Y8832000D01*
X-6406830Y8832000D01*
X-6518305Y8809826D01*
X-6623312Y8766331D01*
X-6717816Y8703185D01*
X-6798185Y8622816D01*
X-6861331Y8528312D01*
X-6904826Y8423305D01*
X-6927000Y8311830D01*
X-6927000Y8198170D01*
X-6926709Y8196709D01*
X-6928170Y8197000D01*
X-7041830Y8197000D01*
X-7153305Y8174826D01*
X-7258312Y8131331D01*
X-7352816Y8068185D01*
X-7433185Y7987816D01*
X-7496331Y7893312D01*
X-7539826Y7788305D01*
X-7562000Y7676830D01*
X-7562000Y7563170D01*
X-7561709Y7561709D01*
X-7563170Y7562000D01*
X-7676830Y7562000D01*
X-7788305Y7539826D01*
X-7893312Y7496331D01*
X-7987816Y7433185D01*
X-8068185Y7352816D01*
X-8131331Y7258312D01*
X-8174826Y7153305D01*
X-8197000Y7041830D01*
X-8197000Y6928170D01*
X-8196709Y6926709D01*
X-8198170Y6927000D01*
X-8311830Y6927000D01*
X-8423305Y6904826D01*
X-8528312Y6861331D01*
X-8622816Y6798185D01*
X-8703185Y6717816D01*
X-8766331Y6623312D01*
X-8809826Y6518305D01*
X-8832000Y6406830D01*
X-9546737Y6406830D01*
X-9584815Y6463816D01*
X-9665184Y6544185D01*
X-9759688Y6607331D01*
X-9864695Y6650826D01*
X-9976170Y6673000D01*
X-10089830Y6673000D01*
X-10201305Y6650826D01*
X-10306312Y6607331D01*
X-10400816Y6544185D01*
X-10481185Y6463816D01*
X-10544331Y6369312D01*
X-10587826Y6264305D01*
X-10610000Y6152830D01*
X-11643604Y6152830D01*
X-11680669Y6242312D01*
X-11743815Y6336816D01*
X-11824184Y6417185D01*
X-11918688Y6480331D01*
X-12023695Y6523826D01*
X-12135170Y6546000D01*
X-12248830Y6546000D01*
X-12360305Y6523826D01*
X-12465312Y6480331D01*
X-12559816Y6417185D01*
X-12640185Y6336816D01*
X-12703331Y6242312D01*
X-12746826Y6137305D01*
X-12769000Y6025830D01*
X-14238457Y6025830D01*
X-14362213Y6149586D01*
X-14381743Y6162635D01*
X-14350339Y6179421D01*
X-14248539Y6448934D01*
X-15240000Y7440395D01*
X-15254142Y7426252D01*
X-15433747Y7605857D01*
X-15419605Y7620000D01*
X-15060395Y7620000D01*
X-14068934Y6628539D01*
X-13799421Y6730339D01*
X-13653537Y7028477D01*
X-13568620Y7349346D01*
X-13548171Y7676830D01*
X-10102000Y7676830D01*
X-10102000Y7563170D01*
X-10079826Y7451695D01*
X-10036331Y7346688D01*
X-9973185Y7252184D01*
X-9892816Y7171815D01*
X-9798312Y7108669D01*
X-9693305Y7065174D01*
X-9581830Y7043000D01*
X-9468170Y7043000D01*
X-9356695Y7065174D01*
X-9251688Y7108669D01*
X-9157184Y7171815D01*
X-9076815Y7252184D01*
X-9013669Y7346688D01*
X-8970174Y7451695D01*
X-8948000Y7563170D01*
X-8948000Y7676830D01*
X-8948291Y7678291D01*
X-8946830Y7678000D01*
X-8833170Y7678000D01*
X-8721695Y7700174D01*
X-8616688Y7743669D01*
X-8522184Y7806815D01*
X-8441815Y7887184D01*
X-8378669Y7981688D01*
X-8335174Y8086695D01*
X-8313000Y8198170D01*
X-8313000Y8311830D01*
X-8313291Y8313291D01*
X-8311830Y8313000D01*
X-8198170Y8313000D01*
X-8086695Y8335174D01*
X-7981688Y8378669D01*
X-7887184Y8441815D01*
X-7806815Y8522184D01*
X-7743669Y8616688D01*
X-7700174Y8721695D01*
X-7678000Y8833170D01*
X-7678000Y8946830D01*
X-7678291Y8948291D01*
X-7676830Y8948000D01*
X-7563170Y8948000D01*
X-7451695Y8970174D01*
X-7346688Y9013669D01*
X-7252184Y9076815D01*
X-7171815Y9157184D01*
X-7108669Y9251688D01*
X-7065174Y9356695D01*
X-7043000Y9468170D01*
X-7043000Y9581830D01*
X-7043291Y9583291D01*
X-7041830Y9583000D01*
X-6928170Y9583000D01*
X-6816695Y9605174D01*
X-6711688Y9648669D01*
X-6617184Y9711815D01*
X-6536815Y9792184D01*
X-6473669Y9886688D01*
X-6430174Y9991695D01*
X-6408000Y10103170D01*
X-6408000Y10216830D01*
X-6430174Y10328305D01*
X-6473669Y10433312D01*
X-6498737Y10470830D01*
X-4895000Y10470830D01*
X-4895000Y10357170D01*
X-4872826Y10245695D01*
X-4829331Y10140688D01*
X-4766185Y10046184D01*
X-4685816Y9965815D01*
X-4591312Y9902669D01*
X-4486305Y9859174D01*
X-4374830Y9837000D01*
X-4261170Y9837000D01*
X-4149695Y9859174D01*
X-4044688Y9902669D01*
X-3950184Y9965815D01*
X-3869815Y10046184D01*
X-3806669Y10140688D01*
X-3763174Y10245695D01*
X-3741000Y10357170D01*
X-3741000Y10470830D01*
X-3763174Y10582305D01*
X-3806669Y10687312D01*
X-3869815Y10781816D01*
X-3950184Y10862185D01*
X-4044688Y10925331D01*
X-4149695Y10968826D01*
X-4261170Y10991000D01*
X-4374830Y10991000D01*
X-4486305Y10968826D01*
X-4591312Y10925331D01*
X-4685816Y10862185D01*
X-4766185Y10781816D01*
X-4829331Y10687312D01*
X-4872826Y10582305D01*
X-4895000Y10470830D01*
X-6498737Y10470830D01*
X-6536815Y10527816D01*
X-6617184Y10608185D01*
X-6711688Y10671331D01*
X-6816695Y10714826D01*
X-6928170Y10737000D01*
X-7041830Y10737000D01*
X-7153305Y10714826D01*
X-7258312Y10671331D01*
X-7352816Y10608185D01*
X-7433185Y10527816D01*
X-7496331Y10433312D01*
X-7539826Y10328305D01*
X-7562000Y10216830D01*
X-7562000Y10103170D01*
X-7561709Y10101709D01*
X-7563170Y10102000D01*
X-7676830Y10102000D01*
X-7788305Y10079826D01*
X-7893312Y10036331D01*
X-7987816Y9973185D01*
X-8068185Y9892816D01*
X-8131331Y9798312D01*
X-8174826Y9693305D01*
X-8197000Y9581830D01*
X-8197000Y9468170D01*
X-8196709Y9466709D01*
X-8198170Y9467000D01*
X-8311830Y9467000D01*
X-8423305Y9444826D01*
X-8528312Y9401331D01*
X-8622816Y9338185D01*
X-8703185Y9257816D01*
X-8766331Y9163312D01*
X-8809826Y9058305D01*
X-8832000Y8946830D01*
X-8832000Y8833170D01*
X-8831709Y8831709D01*
X-8833170Y8832000D01*
X-8946830Y8832000D01*
X-9058305Y8809826D01*
X-9163312Y8766331D01*
X-9257816Y8703185D01*
X-9338185Y8622816D01*
X-9401331Y8528312D01*
X-9444826Y8423305D01*
X-9467000Y8311830D01*
X-9467000Y8198170D01*
X-9466709Y8196709D01*
X-9468170Y8197000D01*
X-9581830Y8197000D01*
X-9693305Y8174826D01*
X-9798312Y8131331D01*
X-9892816Y8068185D01*
X-9973185Y7987816D01*
X-10036331Y7893312D01*
X-10079826Y7788305D01*
X-10102000Y7676830D01*
X-13548171Y7676830D01*
X-13547934Y7680617D01*
X-13592272Y8009557D01*
X-13699931Y8323527D01*
X-13799421Y8509661D01*
X-14068934Y8611461D01*
X-15060395Y7620000D01*
X-15419605Y7620000D01*
X-15433747Y7634142D01*
X-15254142Y7813747D01*
X-15240000Y7799605D01*
X-14248539Y8791066D01*
X-14350339Y9060579D01*
X-14382969Y9076545D01*
X-14362213Y9090414D01*
X-14170414Y9282213D01*
X-14019718Y9507746D01*
X-13915917Y9758344D01*
X-13863000Y10024377D01*
X-13863000Y10295623D01*
X-13915917Y10561656D01*
X-14019718Y10812254D01*
X-14044516Y10849367D01*
X-10839000Y10849367D01*
X-10839000Y10740633D01*
X-10817787Y10633988D01*
X-10776176Y10533530D01*
X-10715766Y10443120D01*
X-10638880Y10366234D01*
X-10548470Y10305824D01*
X-10448012Y10264213D01*
X-10341367Y10243000D01*
X-10232633Y10243000D01*
X-10125988Y10264213D01*
X-10025530Y10305824D01*
X-9935120Y10366234D01*
X-9858234Y10443120D01*
X-9797824Y10533530D01*
X-9756213Y10633988D01*
X-9735000Y10740633D01*
X-9735000Y10849367D01*
X-9756213Y10956012D01*
X-9797824Y11056470D01*
X-9858234Y11146880D01*
X-9935120Y11223766D01*
X-9948685Y11232830D01*
X-8705000Y11232830D01*
X-8705000Y11119170D01*
X-8682826Y11007695D01*
X-8639331Y10902688D01*
X-8576185Y10808184D01*
X-8495816Y10727815D01*
X-8401312Y10664669D01*
X-8296305Y10621174D01*
X-8184830Y10599000D01*
X-8071170Y10599000D01*
X-7959695Y10621174D01*
X-7854688Y10664669D01*
X-7760184Y10727815D01*
X-7679815Y10808184D01*
X-7616669Y10902688D01*
X-7573174Y11007695D01*
X-7551000Y11119170D01*
X-7551000Y11232830D01*
X-7573174Y11344305D01*
X-7616669Y11449312D01*
X-7679815Y11543816D01*
X-7749829Y11613830D01*
X-6038000Y11613830D01*
X-6038000Y11500170D01*
X-6015826Y11388695D01*
X-5972331Y11283688D01*
X-5909185Y11189184D01*
X-5828816Y11108815D01*
X-5734312Y11045669D01*
X-5629305Y11002174D01*
X-5517830Y10980000D01*
X-5404170Y10980000D01*
X-5292695Y11002174D01*
X-5187688Y11045669D01*
X-5093184Y11108815D01*
X-5012815Y11189184D01*
X-4949669Y11283688D01*
X-4906174Y11388695D01*
X-4884000Y11500170D01*
X-4884000Y11613830D01*
X-4906174Y11725305D01*
X-4949669Y11830312D01*
X-5012815Y11924816D01*
X-5093184Y12005185D01*
X-5187688Y12068331D01*
X-5292695Y12111826D01*
X-5404170Y12134000D01*
X-5517830Y12134000D01*
X-5629305Y12111826D01*
X-5734312Y12068331D01*
X-5828816Y12005185D01*
X-5909185Y11924816D01*
X-5972331Y11830312D01*
X-6015826Y11725305D01*
X-6038000Y11613830D01*
X-7749829Y11613830D01*
X-7760184Y11624185D01*
X-7854688Y11687331D01*
X-7959695Y11730826D01*
X-8071170Y11753000D01*
X-8184830Y11753000D01*
X-8296305Y11730826D01*
X-8401312Y11687331D01*
X-8495816Y11624185D01*
X-8576185Y11543816D01*
X-8639331Y11449312D01*
X-8682826Y11344305D01*
X-8705000Y11232830D01*
X-9948685Y11232830D01*
X-10025530Y11284176D01*
X-10125988Y11325787D01*
X-10232633Y11347000D01*
X-10341367Y11347000D01*
X-10448012Y11325787D01*
X-10548470Y11284176D01*
X-10638880Y11223766D01*
X-10715766Y11146880D01*
X-10776176Y11056470D01*
X-10817787Y10956012D01*
X-10839000Y10849367D01*
X-14044516Y10849367D01*
X-14170414Y11037787D01*
X-14362213Y11229586D01*
X-14587746Y11380282D01*
X-14707776Y11430000D01*
X-14587746Y11479718D01*
X-14362213Y11630414D01*
X-14170414Y11822213D01*
X-14019718Y12047746D01*
X-13915917Y12298344D01*
X-13863000Y12564377D01*
X-13863000Y12835623D01*
X-13915917Y13101656D01*
X-14019718Y13352254D01*
X-14170414Y13577787D01*
X-14362213Y13769586D01*
X-14587746Y13920282D01*
X-14707776Y13970000D01*
X-14587746Y14019718D01*
X-14362213Y14170414D01*
X-14251797Y14280830D01*
X-10356000Y14280830D01*
X-10356000Y14167170D01*
X-10333826Y14055695D01*
X-10290331Y13950688D01*
X-10227185Y13856184D01*
X-10146816Y13775815D01*
X-10073064Y13726535D01*
X-10083316Y13719685D01*
X-10163685Y13639316D01*
X-10226831Y13544812D01*
X-10270326Y13439805D01*
X-10292500Y13328330D01*
X-10292500Y13214670D01*
X-10270326Y13103195D01*
X-10226831Y12998188D01*
X-10163685Y12903684D01*
X-10083316Y12823315D01*
X-9988812Y12760169D01*
X-9883805Y12716674D01*
X-9772330Y12694500D01*
X-9658670Y12694500D01*
X-9547195Y12716674D01*
X-9450250Y12756830D01*
X-7181000Y12756830D01*
X-7181000Y12643170D01*
X-7158826Y12531695D01*
X-7115331Y12426688D01*
X-7052185Y12332184D01*
X-6971816Y12251815D01*
X-6877312Y12188669D01*
X-6772305Y12145174D01*
X-6660830Y12123000D01*
X-6547170Y12123000D01*
X-6435695Y12145174D01*
X-6330688Y12188669D01*
X-6236184Y12251815D01*
X-6155815Y12332184D01*
X-6092669Y12426688D01*
X-6049174Y12531695D01*
X-6029654Y12629830D01*
X-5022000Y12629830D01*
X-5022000Y12516170D01*
X-4999826Y12404695D01*
X-4956331Y12299688D01*
X-4893185Y12205184D01*
X-4812816Y12124815D01*
X-4718312Y12061669D01*
X-4613305Y12018174D01*
X-4501830Y11996000D01*
X-4388170Y11996000D01*
X-4276695Y12018174D01*
X-4171688Y12061669D01*
X-4077184Y12124815D01*
X-3996815Y12205184D01*
X-3933669Y12299688D01*
X-3890174Y12404695D01*
X-3868000Y12516170D01*
X-3868000Y12629830D01*
X-3890174Y12741305D01*
X-3933669Y12846312D01*
X-3996815Y12940816D01*
X-4077184Y13021185D01*
X-4171688Y13084331D01*
X-4276695Y13127826D01*
X-4388170Y13150000D01*
X-4501830Y13150000D01*
X-4613305Y13127826D01*
X-4718312Y13084331D01*
X-4812816Y13021185D01*
X-4893185Y12940816D01*
X-4956331Y12846312D01*
X-4999826Y12741305D01*
X-5022000Y12629830D01*
X-6029654Y12629830D01*
X-6027000Y12643170D01*
X-6027000Y12756830D01*
X-6049174Y12868305D01*
X-6092669Y12973312D01*
X-6155815Y13067816D01*
X-6236184Y13148185D01*
X-6330688Y13211331D01*
X-6435695Y13254826D01*
X-6547170Y13277000D01*
X-6660830Y13277000D01*
X-6772305Y13254826D01*
X-6877312Y13211331D01*
X-6971816Y13148185D01*
X-7052185Y13067816D01*
X-7115331Y12973312D01*
X-7158826Y12868305D01*
X-7181000Y12756830D01*
X-9450250Y12756830D01*
X-9442188Y12760169D01*
X-9347684Y12823315D01*
X-9267315Y12903684D01*
X-9204169Y12998188D01*
X-9160674Y13103195D01*
X-9138500Y13214670D01*
X-9138500Y13328330D01*
X-9160674Y13439805D01*
X-9204169Y13544812D01*
X-9267315Y13639316D01*
X-9347684Y13719685D01*
X-9421436Y13768965D01*
X-9411184Y13775815D01*
X-9330815Y13856184D01*
X-9301652Y13899830D01*
X-8324000Y13899830D01*
X-8324000Y13786170D01*
X-8301826Y13674695D01*
X-8258331Y13569688D01*
X-8195185Y13475184D01*
X-8114816Y13394815D01*
X-8020312Y13331669D01*
X-7915305Y13288174D01*
X-7803830Y13266000D01*
X-7690170Y13266000D01*
X-7578695Y13288174D01*
X-7473688Y13331669D01*
X-7379184Y13394815D01*
X-7298815Y13475184D01*
X-7235669Y13569688D01*
X-7192174Y13674695D01*
X-7170000Y13786170D01*
X-7170000Y13899830D01*
X-7192174Y14011305D01*
X-7197584Y14024367D01*
X-6267000Y14024367D01*
X-6267000Y13915633D01*
X-6245787Y13808988D01*
X-6204176Y13708530D01*
X-6143766Y13618120D01*
X-6066880Y13541234D01*
X-5976470Y13480824D01*
X-5876012Y13439213D01*
X-5769367Y13418000D01*
X-5660633Y13418000D01*
X-5553988Y13439213D01*
X-5453530Y13480824D01*
X-5363120Y13541234D01*
X-5286234Y13618120D01*
X-5225824Y13708530D01*
X-5184213Y13808988D01*
X-5163000Y13915633D01*
X-5163000Y14024367D01*
X-5184213Y14131012D01*
X-5225824Y14231470D01*
X-5286234Y14321880D01*
X-5363120Y14398766D01*
X-5453530Y14459176D01*
X-5553988Y14500787D01*
X-5660633Y14522000D01*
X-5769367Y14522000D01*
X-5876012Y14500787D01*
X-5976470Y14459176D01*
X-6066880Y14398766D01*
X-6143766Y14321880D01*
X-6204176Y14231470D01*
X-6245787Y14131012D01*
X-6267000Y14024367D01*
X-7197584Y14024367D01*
X-7235669Y14116312D01*
X-7298815Y14210816D01*
X-7379184Y14291185D01*
X-7473688Y14354331D01*
X-7578695Y14397826D01*
X-7690170Y14420000D01*
X-7803830Y14420000D01*
X-7915305Y14397826D01*
X-8020312Y14354331D01*
X-8114816Y14291185D01*
X-8195185Y14210816D01*
X-8258331Y14116312D01*
X-8301826Y14011305D01*
X-8324000Y13899830D01*
X-9301652Y13899830D01*
X-9267669Y13950688D01*
X-9224174Y14055695D01*
X-9202000Y14167170D01*
X-9202000Y14280830D01*
X-9224174Y14392305D01*
X-9267669Y14497312D01*
X-9330815Y14591816D01*
X-9411184Y14672185D01*
X-9505688Y14735331D01*
X-9610695Y14778826D01*
X-9722170Y14801000D01*
X-9835830Y14801000D01*
X-9947305Y14778826D01*
X-10052312Y14735331D01*
X-10146816Y14672185D01*
X-10227185Y14591816D01*
X-10290331Y14497312D01*
X-10333826Y14392305D01*
X-10356000Y14280830D01*
X-14251797Y14280830D01*
X-14170414Y14362213D01*
X-14019718Y14587746D01*
X-13915917Y14838344D01*
X-13863000Y15104377D01*
X-13863000Y15294367D01*
X-10839000Y15294367D01*
X-10839000Y15185633D01*
X-10817787Y15078988D01*
X-10776176Y14978530D01*
X-10715766Y14888120D01*
X-10638880Y14811234D01*
X-10548470Y14750824D01*
X-10448012Y14709213D01*
X-10341367Y14688000D01*
X-10232633Y14688000D01*
X-10125988Y14709213D01*
X-10025530Y14750824D01*
X-9935120Y14811234D01*
X-9858234Y14888120D01*
X-9841365Y14913367D01*
X-7156000Y14913367D01*
X-7156000Y14804633D01*
X-7134787Y14697988D01*
X-7093176Y14597530D01*
X-7032766Y14507120D01*
X-6955880Y14430234D01*
X-6865470Y14369824D01*
X-6765012Y14328213D01*
X-6658367Y14307000D01*
X-6549633Y14307000D01*
X-6442988Y14328213D01*
X-6342530Y14369824D01*
X-6252120Y14430234D01*
X-6175234Y14507120D01*
X-6114824Y14597530D01*
X-6073213Y14697988D01*
X-6055542Y14786830D01*
X-3447000Y14786830D01*
X-3447000Y14673170D01*
X-3424826Y14561695D01*
X-3381331Y14456688D01*
X-3318185Y14362184D01*
X-3237816Y14281815D01*
X-3143312Y14218669D01*
X-3049956Y14180000D01*
X-3143312Y14141331D01*
X-3237816Y14078185D01*
X-3318185Y13997816D01*
X-3381331Y13903312D01*
X-3424826Y13798305D01*
X-3447000Y13686830D01*
X-3447000Y13573170D01*
X-3424826Y13461695D01*
X-3381331Y13356688D01*
X-3318185Y13262184D01*
X-3237816Y13181815D01*
X-3143312Y13118669D01*
X-3038305Y13075174D01*
X-2926830Y13053000D01*
X-2813170Y13053000D01*
X-2701695Y13075174D01*
X-2596688Y13118669D01*
X-2502184Y13181815D01*
X-2421815Y13262184D01*
X-2358669Y13356688D01*
X-2315174Y13461695D01*
X-2293000Y13573170D01*
X-2293000Y13686830D01*
X-2315174Y13798305D01*
X-2358669Y13903312D01*
X-2421815Y13997816D01*
X-2502184Y14078185D01*
X-2596688Y14141331D01*
X-2690044Y14180000D01*
X-2596688Y14218669D01*
X-2502184Y14281815D01*
X-2421815Y14362184D01*
X-2358669Y14456688D01*
X-2315174Y14561695D01*
X-2293000Y14673170D01*
X-2293000Y14786830D01*
X-2315174Y14898305D01*
X-2358669Y15003312D01*
X-2421815Y15097816D01*
X-2502184Y15178185D01*
X-2596688Y15241331D01*
X-2701695Y15284826D01*
X-2813170Y15307000D01*
X-2926830Y15307000D01*
X-3038305Y15284826D01*
X-3143312Y15241331D01*
X-3237816Y15178185D01*
X-3318185Y15097816D01*
X-3381331Y15003312D01*
X-3424826Y14898305D01*
X-3447000Y14786830D01*
X-6055542Y14786830D01*
X-6052000Y14804633D01*
X-6052000Y14913367D01*
X-6073213Y15020012D01*
X-6114824Y15120470D01*
X-6175234Y15210880D01*
X-6252120Y15287766D01*
X-6342530Y15348176D01*
X-6442988Y15389787D01*
X-6549633Y15411000D01*
X-6658367Y15411000D01*
X-6765012Y15389787D01*
X-6865470Y15348176D01*
X-6955880Y15287766D01*
X-7032766Y15210880D01*
X-7093176Y15120470D01*
X-7134787Y15020012D01*
X-7156000Y14913367D01*
X-9841365Y14913367D01*
X-9797824Y14978530D01*
X-9756213Y15078988D01*
X-9735000Y15185633D01*
X-9735000Y15294367D01*
X-9756213Y15401012D01*
X-9765664Y15423830D01*
X-4895000Y15423830D01*
X-4895000Y15310170D01*
X-4872826Y15198695D01*
X-4829331Y15093688D01*
X-4766185Y14999184D01*
X-4685816Y14918815D01*
X-4591312Y14855669D01*
X-4486305Y14812174D01*
X-4374830Y14790000D01*
X-4261170Y14790000D01*
X-4149695Y14812174D01*
X-4044688Y14855669D01*
X-3950184Y14918815D01*
X-3869815Y14999184D01*
X-3806669Y15093688D01*
X-3763174Y15198695D01*
X-3741000Y15310170D01*
X-3741000Y15423830D01*
X-3763174Y15535305D01*
X-3806669Y15640312D01*
X-3869815Y15734816D01*
X-3950184Y15815185D01*
X-4044688Y15878331D01*
X-4149695Y15921826D01*
X-4261170Y15944000D01*
X-4374830Y15944000D01*
X-4486305Y15921826D01*
X-4591312Y15878331D01*
X-4685816Y15815185D01*
X-4766185Y15734816D01*
X-4829331Y15640312D01*
X-4872826Y15535305D01*
X-4895000Y15423830D01*
X-9765664Y15423830D01*
X-9797824Y15501470D01*
X-9858234Y15591880D01*
X-9935120Y15668766D01*
X-10025530Y15729176D01*
X-10125988Y15770787D01*
X-10232633Y15792000D01*
X-10341367Y15792000D01*
X-10448012Y15770787D01*
X-10548470Y15729176D01*
X-10638880Y15668766D01*
X-10715766Y15591880D01*
X-10776176Y15501470D01*
X-10817787Y15401012D01*
X-10839000Y15294367D01*
X-13863000Y15294367D01*
X-13863000Y15375623D01*
X-13915917Y15641656D01*
X-14019718Y15892254D01*
X-14170414Y16117787D01*
X-14362213Y16309586D01*
X-14553451Y16437367D01*
X-9442000Y16437367D01*
X-9442000Y16328633D01*
X-9420787Y16221988D01*
X-9379176Y16121530D01*
X-9318766Y16031120D01*
X-9241880Y15954234D01*
X-9151470Y15893824D01*
X-9051012Y15852213D01*
X-8944367Y15831000D01*
X-8835633Y15831000D01*
X-8728988Y15852213D01*
X-8628530Y15893824D01*
X-8538120Y15954234D01*
X-8461234Y16031120D01*
X-8400824Y16121530D01*
X-8359213Y16221988D01*
X-8338000Y16328633D01*
X-8338000Y16437367D01*
X-6013000Y16437367D01*
X-6013000Y16328633D01*
X-5991787Y16221988D01*
X-5950176Y16121530D01*
X-5889766Y16031120D01*
X-5812880Y15954234D01*
X-5722470Y15893824D01*
X-5622012Y15852213D01*
X-5515367Y15831000D01*
X-5406633Y15831000D01*
X-5299988Y15852213D01*
X-5199530Y15893824D01*
X-5109120Y15954234D01*
X-5032234Y16031120D01*
X-4971824Y16121530D01*
X-4930213Y16221988D01*
X-4909000Y16328633D01*
X-4909000Y16437367D01*
X-4930213Y16544012D01*
X-4971824Y16644470D01*
X-5032234Y16734880D01*
X-5109120Y16811766D01*
X-5199530Y16872176D01*
X-5299988Y16913787D01*
X-5406633Y16935000D01*
X-5515367Y16935000D01*
X-5622012Y16913787D01*
X-5722470Y16872176D01*
X-5812880Y16811766D01*
X-5889766Y16734880D01*
X-5950176Y16644470D01*
X-5991787Y16544012D01*
X-6013000Y16437367D01*
X-8338000Y16437367D01*
X-8359213Y16544012D01*
X-8400824Y16644470D01*
X-8461234Y16734880D01*
X-8538120Y16811766D01*
X-8628530Y16872176D01*
X-8728988Y16913787D01*
X-8835633Y16935000D01*
X-8944367Y16935000D01*
X-9051012Y16913787D01*
X-9151470Y16872176D01*
X-9241880Y16811766D01*
X-9318766Y16734880D01*
X-9379176Y16644470D01*
X-9420787Y16544012D01*
X-9442000Y16437367D01*
X-14553451Y16437367D01*
X-14587746Y16460282D01*
X-14707776Y16510000D01*
X-14587746Y16559718D01*
X-14362213Y16710414D01*
X-14170414Y16902213D01*
X-14019718Y17127746D01*
X-13915917Y17378344D01*
X-13863000Y17644377D01*
X-13863000Y17709830D01*
X-12261000Y17709830D01*
X-12261000Y17596170D01*
X-12238826Y17484695D01*
X-12195331Y17379688D01*
X-12132185Y17285184D01*
X-12051816Y17204815D01*
X-11957312Y17141669D01*
X-11852305Y17098174D01*
X-11740830Y17076000D01*
X-11627170Y17076000D01*
X-11515695Y17098174D01*
X-11410688Y17141669D01*
X-11316184Y17204815D01*
X-11235815Y17285184D01*
X-11172669Y17379688D01*
X-11129174Y17484695D01*
X-11107000Y17596170D01*
X-11107000Y17709830D01*
X-11129174Y17821305D01*
X-11172669Y17926312D01*
X-11235815Y18020816D01*
X-11316184Y18101185D01*
X-11410688Y18164331D01*
X-11515695Y18207826D01*
X-11627170Y18230000D01*
X-11740830Y18230000D01*
X-11852305Y18207826D01*
X-11957312Y18164331D01*
X-12051816Y18101185D01*
X-12132185Y18020816D01*
X-12195331Y17926312D01*
X-12238826Y17821305D01*
X-12261000Y17709830D01*
X-13863000Y17709830D01*
X-13863000Y17915623D01*
X-13915917Y18181656D01*
X-13960321Y18288857D01*
X-7537000Y18288857D01*
X-7537000Y18180123D01*
X-7515787Y18073478D01*
X-7474176Y17973020D01*
X-7413766Y17882610D01*
X-7336880Y17805724D01*
X-7246470Y17745314D01*
X-7146012Y17703703D01*
X-7039367Y17682490D01*
X-6930633Y17682490D01*
X-6823988Y17703703D01*
X-6723530Y17745314D01*
X-6633120Y17805724D01*
X-6556234Y17882610D01*
X-6495824Y17973020D01*
X-6454213Y18073478D01*
X-6433000Y18180123D01*
X-6433000Y18278867D01*
X-6267000Y18278867D01*
X-6267000Y18170133D01*
X-6245787Y18063488D01*
X-6204176Y17963030D01*
X-6143766Y17872620D01*
X-6066880Y17795734D01*
X-5976470Y17735324D01*
X-5876012Y17693713D01*
X-5769367Y17672500D01*
X-5660633Y17672500D01*
X-5553988Y17693713D01*
X-5453530Y17735324D01*
X-5363120Y17795734D01*
X-5286234Y17872620D01*
X-5225824Y17963030D01*
X-5184213Y18063488D01*
X-5163000Y18170133D01*
X-5163000Y18278867D01*
X-5181247Y18370601D01*
X-5177880Y18367234D01*
X-5087470Y18306824D01*
X-4987012Y18265213D01*
X-4880367Y18244000D01*
X-4771633Y18244000D01*
X-4664988Y18265213D01*
X-4564530Y18306824D01*
X-4474120Y18367234D01*
X-4397234Y18444120D01*
X-4336824Y18534530D01*
X-4295213Y18634988D01*
X-4274000Y18741633D01*
X-4274000Y18850367D01*
X-4295213Y18957012D01*
X-4336824Y19057470D01*
X-4397234Y19147880D01*
X-4474120Y19224766D01*
X-4564530Y19285176D01*
X-4664988Y19326787D01*
X-4771633Y19348000D01*
X-4880367Y19348000D01*
X-4987012Y19326787D01*
X-5087470Y19285176D01*
X-5177880Y19224766D01*
X-5254766Y19147880D01*
X-5315176Y19057470D01*
X-5356787Y18957012D01*
X-5378000Y18850367D01*
X-5378000Y18741633D01*
X-5359753Y18649899D01*
X-5363120Y18653266D01*
X-5453530Y18713676D01*
X-5553988Y18755287D01*
X-5660633Y18776500D01*
X-5769367Y18776500D01*
X-5876012Y18755287D01*
X-5976470Y18713676D01*
X-6066880Y18653266D01*
X-6143766Y18576380D01*
X-6204176Y18485970D01*
X-6245787Y18385512D01*
X-6267000Y18278867D01*
X-6433000Y18278867D01*
X-6433000Y18288857D01*
X-6454213Y18395502D01*
X-6495824Y18495960D01*
X-6556234Y18586370D01*
X-6633120Y18663256D01*
X-6723530Y18723666D01*
X-6823988Y18765277D01*
X-6930633Y18786490D01*
X-7039367Y18786490D01*
X-7146012Y18765277D01*
X-7246470Y18723666D01*
X-7336880Y18663256D01*
X-7413766Y18586370D01*
X-7474176Y18495960D01*
X-7515787Y18395502D01*
X-7537000Y18288857D01*
X-13960321Y18288857D01*
X-14019718Y18432254D01*
X-14170414Y18657787D01*
X-14362213Y18849586D01*
X-14587746Y19000282D01*
X-14707776Y19050000D01*
X-14587746Y19099718D01*
X-14362213Y19250414D01*
X-14170414Y19442213D01*
X-14019718Y19667746D01*
X-13990052Y19739367D01*
X-11601000Y19739367D01*
X-11601000Y19630633D01*
X-11579787Y19523988D01*
X-11538176Y19423530D01*
X-11477766Y19333120D01*
X-11400880Y19256234D01*
X-11310470Y19195824D01*
X-11210012Y19154213D01*
X-11103367Y19133000D01*
X-10994633Y19133000D01*
X-10887988Y19154213D01*
X-10787530Y19195824D01*
X-10711413Y19246684D01*
X-10690787Y19142988D01*
X-10649176Y19042530D01*
X-10588766Y18952120D01*
X-10511880Y18875234D01*
X-10421470Y18814824D01*
X-10321012Y18773213D01*
X-10214367Y18752000D01*
X-10105633Y18752000D01*
X-9998988Y18773213D01*
X-9898530Y18814824D01*
X-9808120Y18875234D01*
X-9731234Y18952120D01*
X-9670824Y19042530D01*
X-9629213Y19142988D01*
X-9614660Y19216151D01*
X-9515867Y19196500D01*
X-9407133Y19196500D01*
X-9300488Y19217713D01*
X-9200030Y19259324D01*
X-9109620Y19319734D01*
X-9032734Y19396620D01*
X-8972324Y19487030D01*
X-8930713Y19587488D01*
X-8909500Y19694133D01*
X-8909500Y19802867D01*
X-8930713Y19909512D01*
X-8972324Y20009970D01*
X-9032734Y20100380D01*
X-9109620Y20177266D01*
X-9200030Y20237676D01*
X-9300488Y20279287D01*
X-9407133Y20300500D01*
X-9515867Y20300500D01*
X-9622512Y20279287D01*
X-9722970Y20237676D01*
X-9813380Y20177266D01*
X-9890266Y20100380D01*
X-9950676Y20009970D01*
X-9992287Y19909512D01*
X-10006840Y19836349D01*
X-10105633Y19856000D01*
X-10214367Y19856000D01*
X-10321012Y19834787D01*
X-10421470Y19793176D01*
X-10497587Y19742316D01*
X-10518213Y19846012D01*
X-10559824Y19946470D01*
X-10620234Y20036880D01*
X-10697120Y20113766D01*
X-10787530Y20174176D01*
X-10887988Y20215787D01*
X-10994633Y20237000D01*
X-11103367Y20237000D01*
X-11210012Y20215787D01*
X-11310470Y20174176D01*
X-11400880Y20113766D01*
X-11477766Y20036880D01*
X-11538176Y19946470D01*
X-11579787Y19846012D01*
X-11601000Y19739367D01*
X-13990052Y19739367D01*
X-13915917Y19918344D01*
X-13863000Y20184377D01*
X-13863000Y20455623D01*
X-13915917Y20721656D01*
X-14019718Y20972254D01*
X-14170414Y21197787D01*
X-14362213Y21389586D01*
X-14587746Y21540282D01*
X-14707776Y21590000D01*
X-14587746Y21639718D01*
X-14503402Y21696075D01*
X-13777000Y21696075D01*
X-13777000Y21483925D01*
X-13735611Y21275851D01*
X-13654425Y21079849D01*
X-13536560Y20903453D01*
X-13386547Y20753440D01*
X-13210151Y20635575D01*
X-13014149Y20554389D01*
X-12806075Y20513000D01*
X-12593925Y20513000D01*
X-12385851Y20554389D01*
X-12189849Y20635575D01*
X-12013453Y20753440D01*
X-11863440Y20903453D01*
X-11745575Y21079849D01*
X-11707942Y21170705D01*
X-5793283Y21170705D01*
X-5793283Y21061971D01*
X-5772070Y20955326D01*
X-5730459Y20854868D01*
X-5670049Y20764458D01*
X-5593163Y20687572D01*
X-5502753Y20627162D01*
X-5402295Y20585551D01*
X-5295650Y20564338D01*
X-5186916Y20564338D01*
X-5080271Y20585551D01*
X-4979813Y20627162D01*
X-4889403Y20687572D01*
X-4812517Y20764458D01*
X-4752107Y20854868D01*
X-4710496Y20955326D01*
X-4689283Y21061971D01*
X-4689283Y21170705D01*
X-4710496Y21277350D01*
X-4752107Y21377808D01*
X-4812517Y21468218D01*
X-4889403Y21545104D01*
X-4979813Y21605514D01*
X-5080271Y21647125D01*
X-5186916Y21668338D01*
X-5295650Y21668338D01*
X-5402295Y21647125D01*
X-5502753Y21605514D01*
X-5593163Y21545104D01*
X-5670049Y21468218D01*
X-5730459Y21377808D01*
X-5772070Y21277350D01*
X-5793283Y21170705D01*
X-11707942Y21170705D01*
X-11664389Y21275851D01*
X-11623000Y21483925D01*
X-11623000Y21696075D01*
X-11664389Y21904149D01*
X-11745575Y22100151D01*
X-11780464Y22152367D01*
X-11601000Y22152367D01*
X-11601000Y22043633D01*
X-11579787Y21936988D01*
X-11538176Y21836530D01*
X-11477766Y21746120D01*
X-11400880Y21669234D01*
X-11310470Y21608824D01*
X-11210012Y21567213D01*
X-11103367Y21546000D01*
X-10994633Y21546000D01*
X-10887988Y21567213D01*
X-10787530Y21608824D01*
X-10697120Y21669234D01*
X-10620234Y21746120D01*
X-10559824Y21836530D01*
X-10518213Y21936988D01*
X-10497000Y22043633D01*
X-10497000Y22152367D01*
X-10518213Y22259012D01*
X-10559824Y22359470D01*
X-10620234Y22449880D01*
X-10697120Y22526766D01*
X-10787530Y22587176D01*
X-10887988Y22628787D01*
X-10994633Y22650000D01*
X-11103367Y22650000D01*
X-11210012Y22628787D01*
X-11310470Y22587176D01*
X-11400880Y22526766D01*
X-11477766Y22449880D01*
X-11538176Y22359470D01*
X-11579787Y22259012D01*
X-11601000Y22152367D01*
X-11780464Y22152367D01*
X-11863440Y22276547D01*
X-12013453Y22426560D01*
X-12189849Y22544425D01*
X-12385851Y22625611D01*
X-12593925Y22667000D01*
X-12806075Y22667000D01*
X-13014149Y22625611D01*
X-13210151Y22544425D01*
X-13386547Y22426560D01*
X-13536560Y22276547D01*
X-13654425Y22100151D01*
X-13735611Y21904149D01*
X-13777000Y21696075D01*
X-14503402Y21696075D01*
X-14362213Y21790414D01*
X-14170414Y21982213D01*
X-14019718Y22207746D01*
X-13915917Y22458344D01*
X-13863000Y22724377D01*
X-13863000Y22914367D01*
X-4362000Y22914367D01*
X-4362000Y22805633D01*
X-4340787Y22698988D01*
X-4299176Y22598530D01*
X-4238766Y22508120D01*
X-4161880Y22431234D01*
X-4071470Y22370824D01*
X-3971012Y22329213D01*
X-3864367Y22308000D01*
X-3755633Y22308000D01*
X-3648988Y22329213D01*
X-3548530Y22370824D01*
X-3458120Y22431234D01*
X-3381234Y22508120D01*
X-3320824Y22598530D01*
X-3279213Y22698988D01*
X-3258000Y22805633D01*
X-3258000Y22914367D01*
X-3279213Y23021012D01*
X-3320824Y23121470D01*
X-3381234Y23211880D01*
X-3458120Y23288766D01*
X-3548530Y23349176D01*
X-3648988Y23390787D01*
X-3755633Y23412000D01*
X-3864367Y23412000D01*
X-3971012Y23390787D01*
X-4071470Y23349176D01*
X-4161880Y23288766D01*
X-4238766Y23211880D01*
X-4299176Y23121470D01*
X-4340787Y23021012D01*
X-4362000Y22914367D01*
X-13863000Y22914367D01*
X-13863000Y22995623D01*
X-13915917Y23261656D01*
X-14019718Y23512254D01*
X-14069669Y23587011D01*
X-14024367Y23578000D01*
X-13915633Y23578000D01*
X-13808988Y23599213D01*
X-13708530Y23640824D01*
X-13655337Y23676367D01*
X-9950000Y23676367D01*
X-9950000Y23567633D01*
X-9928787Y23460988D01*
X-9887176Y23360530D01*
X-9826766Y23270120D01*
X-9749880Y23193234D01*
X-9659470Y23132824D01*
X-9559012Y23091213D01*
X-9452367Y23070000D01*
X-9343633Y23070000D01*
X-9236988Y23091213D01*
X-9136530Y23132824D01*
X-9046120Y23193234D01*
X-8969234Y23270120D01*
X-8908824Y23360530D01*
X-8867213Y23460988D01*
X-8846000Y23567633D01*
X-8846000Y23676367D01*
X-8867213Y23783012D01*
X-8908824Y23883470D01*
X-8969234Y23973880D01*
X-9046120Y24050766D01*
X-9136530Y24111176D01*
X-9236988Y24152787D01*
X-9343633Y24174000D01*
X-9452367Y24174000D01*
X-9559012Y24152787D01*
X-9659470Y24111176D01*
X-9749880Y24050766D01*
X-9826766Y23973880D01*
X-9887176Y23883470D01*
X-9928787Y23783012D01*
X-9950000Y23676367D01*
X-13655337Y23676367D01*
X-13618120Y23701234D01*
X-13541234Y23778120D01*
X-13480824Y23868530D01*
X-13439213Y23968988D01*
X-13418000Y24075633D01*
X-13418000Y24184367D01*
X-13439213Y24291012D01*
X-13480824Y24391470D01*
X-13541234Y24481880D01*
X-13618120Y24558766D01*
X-13708530Y24619176D01*
X-13808988Y24660787D01*
X-13915633Y24682000D01*
X-14024367Y24682000D01*
X-14069669Y24672989D01*
X-14019718Y24747746D01*
X-13915917Y24998344D01*
X-13875733Y25200367D01*
X-9442000Y25200367D01*
X-9442000Y25091633D01*
X-9420787Y24984988D01*
X-9379176Y24884530D01*
X-9318766Y24794120D01*
X-9241880Y24717234D01*
X-9151470Y24656824D01*
X-9051012Y24615213D01*
X-8944367Y24594000D01*
X-8835633Y24594000D01*
X-8728988Y24615213D01*
X-8628530Y24656824D01*
X-8538120Y24717234D01*
X-8461234Y24794120D01*
X-8400824Y24884530D01*
X-8359213Y24984988D01*
X-8338000Y25091633D01*
X-8338000Y25200367D01*
X-8299000Y25200367D01*
X-8299000Y25091633D01*
X-8277787Y24984988D01*
X-8236176Y24884530D01*
X-8175766Y24794120D01*
X-8098880Y24717234D01*
X-8008470Y24656824D01*
X-7908012Y24615213D01*
X-7801367Y24594000D01*
X-7692633Y24594000D01*
X-7585988Y24615213D01*
X-7485530Y24656824D01*
X-7395120Y24717234D01*
X-7318234Y24794120D01*
X-7257824Y24884530D01*
X-7216213Y24984988D01*
X-7195000Y25091633D01*
X-7195000Y25200367D01*
X-7216213Y25307012D01*
X-7257824Y25407470D01*
X-7318234Y25497880D01*
X-7395120Y25574766D01*
X-7485530Y25635176D01*
X-7585988Y25676787D01*
X-7692633Y25698000D01*
X-7801367Y25698000D01*
X-7908012Y25676787D01*
X-8008470Y25635176D01*
X-8098880Y25574766D01*
X-8175766Y25497880D01*
X-8236176Y25407470D01*
X-8277787Y25307012D01*
X-8299000Y25200367D01*
X-8338000Y25200367D01*
X-8359213Y25307012D01*
X-8400824Y25407470D01*
X-8461234Y25497880D01*
X-8538120Y25574766D01*
X-8628530Y25635176D01*
X-8728988Y25676787D01*
X-8835633Y25698000D01*
X-8944367Y25698000D01*
X-9051012Y25676787D01*
X-9151470Y25635176D01*
X-9241880Y25574766D01*
X-9318766Y25497880D01*
X-9379176Y25407470D01*
X-9420787Y25307012D01*
X-9442000Y25200367D01*
X-13875733Y25200367D01*
X-13863000Y25264377D01*
X-13863000Y25535623D01*
X-13915917Y25801656D01*
X-14019718Y26052254D01*
X-14069669Y26127011D01*
X-14024367Y26118000D01*
X-13915633Y26118000D01*
X-13808988Y26139213D01*
X-13708530Y26180824D01*
X-13618120Y26241234D01*
X-13541234Y26318120D01*
X-13480824Y26408530D01*
X-13439213Y26508988D01*
X-13418000Y26615633D01*
X-13418000Y26724367D01*
X-13439213Y26831012D01*
X-13480824Y26931470D01*
X-13541234Y27021880D01*
X-13618120Y27098766D01*
X-13708530Y27159176D01*
X-13808988Y27200787D01*
X-13915633Y27222000D01*
X-14024367Y27222000D01*
X-14069669Y27212989D01*
X-14019718Y27287746D01*
X-13986992Y27366754D01*
X-8247000Y27366754D01*
X-8247000Y27243246D01*
X-8222905Y27122111D01*
X-8175640Y27008004D01*
X-8107023Y26905311D01*
X-8019689Y26817977D01*
X-7916996Y26749360D01*
X-7802889Y26702095D01*
X-7681754Y26678000D01*
X-7558246Y26678000D01*
X-7437111Y26702095D01*
X-7323004Y26749360D01*
X-7220311Y26817977D01*
X-7132977Y26905311D01*
X-7064360Y27008004D01*
X-7017095Y27122111D01*
X-6993000Y27243246D01*
X-6993000Y27366754D01*
X-7017095Y27487889D01*
X-7064360Y27601996D01*
X-7132977Y27704689D01*
X-7220311Y27792023D01*
X-7323004Y27860640D01*
X-7437111Y27907905D01*
X-7558246Y27932000D01*
X-7681754Y27932000D01*
X-7802889Y27907905D01*
X-7916996Y27860640D01*
X-8019689Y27792023D01*
X-8107023Y27704689D01*
X-8175640Y27601996D01*
X-8222905Y27487889D01*
X-8247000Y27366754D01*
X-13986992Y27366754D01*
X-13915917Y27538344D01*
X-13863000Y27804377D01*
X-13863000Y28075623D01*
X-13915917Y28341656D01*
X-14019718Y28592254D01*
X-14170414Y28817787D01*
X-14185627Y28833000D01*
X-1054373Y28833000D01*
X-1069586Y28817787D01*
%TA.AperFunction,Conductor*%
D17*
G36*
X-1069586Y28817787D02*
G01*
X-1220282Y28592254D01*
X-1324083Y28341656D01*
X-1377000Y28075623D01*
X-1377000Y27804377D01*
X-1324083Y27538344D01*
X-1220282Y27287746D01*
X-1170331Y27212989D01*
X-1215633Y27222000D01*
X-1324367Y27222000D01*
X-1431012Y27200787D01*
X-1531470Y27159176D01*
X-1621880Y27098766D01*
X-1698766Y27021880D01*
X-1759176Y26931470D01*
X-1800787Y26831012D01*
X-1822000Y26724367D01*
X-1822000Y26615633D01*
X-1800787Y26508988D01*
X-1759176Y26408530D01*
X-1698766Y26318120D01*
X-1621880Y26241234D01*
X-1531470Y26180824D01*
X-1431012Y26139213D01*
X-1324367Y26118000D01*
X-1215633Y26118000D01*
X-1170331Y26127011D01*
X-1220282Y26052254D01*
X-1324083Y25801656D01*
X-1377000Y25535623D01*
X-1377000Y25264377D01*
X-1324083Y24998344D01*
X-1220282Y24747746D01*
X-1069586Y24522213D01*
X-877787Y24330414D01*
X-652254Y24179718D01*
X-532224Y24130000D01*
X-652254Y24080282D01*
X-877787Y23929586D01*
X-1069586Y23737787D01*
X-1220282Y23512254D01*
X-1324083Y23261656D01*
X-1377000Y22995623D01*
X-1377000Y22724377D01*
X-1324083Y22458344D01*
X-1220282Y22207746D01*
X-1069586Y21982213D01*
X-877787Y21790414D01*
X-652254Y21639718D01*
X-532224Y21590000D01*
X-652254Y21540282D01*
X-877787Y21389586D01*
X-1069586Y21197787D01*
X-1220282Y20972254D01*
X-1324083Y20721656D01*
X-1377000Y20455623D01*
X-1377000Y20184377D01*
X-1324083Y19918344D01*
X-1220282Y19667746D01*
X-1170331Y19592989D01*
X-1215633Y19602000D01*
X-1324367Y19602000D01*
X-1431012Y19580787D01*
X-1531470Y19539176D01*
X-1621880Y19478766D01*
X-1698766Y19401880D01*
X-1759176Y19311470D01*
X-1800787Y19211012D01*
X-1822000Y19104367D01*
X-1822000Y18995633D01*
X-1800787Y18888988D01*
X-1759176Y18788530D01*
X-1698766Y18698120D01*
X-1621880Y18621234D01*
X-1531470Y18560824D01*
X-1431012Y18519213D01*
X-1324367Y18498000D01*
X-1215633Y18498000D01*
X-1170331Y18507011D01*
X-1220282Y18432254D01*
X-1324083Y18181656D01*
X-1377000Y17915623D01*
X-1377000Y17644377D01*
X-1324083Y17378344D01*
X-1220282Y17127746D01*
X-1193056Y17087000D01*
X-1199830Y17087000D01*
X-1311305Y17064826D01*
X-1416312Y17021331D01*
X-1510816Y16958185D01*
X-1591185Y16877816D01*
X-1654331Y16783312D01*
X-1697826Y16678305D01*
X-1720000Y16566830D01*
X-1720000Y16453170D01*
X-1697826Y16341695D01*
X-1654331Y16236688D01*
X-1591185Y16142184D01*
X-1510816Y16061815D01*
X-1416312Y15998669D01*
X-1311305Y15955174D01*
X-1199830Y15933000D01*
X-1193056Y15933000D01*
X-1220282Y15892254D01*
X-1324083Y15641656D01*
X-1377000Y15375623D01*
X-1377000Y15104377D01*
X-1324083Y14838344D01*
X-1220282Y14587746D01*
X-1069586Y14362213D01*
X-877787Y14170414D01*
X-652254Y14019718D01*
X-532224Y13970000D01*
X-652254Y13920282D01*
X-877787Y13769586D01*
X-1069586Y13577787D01*
X-1220282Y13352254D01*
X-1324083Y13101656D01*
X-1377000Y12835623D01*
X-1377000Y12564377D01*
X-1324083Y12298344D01*
X-1220282Y12047746D01*
X-1069586Y11822213D01*
X-877787Y11630414D01*
X-652254Y11479718D01*
X-532224Y11430000D01*
X-652254Y11380282D01*
X-877787Y11229586D01*
X-1069586Y11037787D01*
X-1220282Y10812254D01*
X-1324083Y10561656D01*
X-1377000Y10295623D01*
X-1377000Y10024377D01*
X-1324083Y9758344D01*
X-1220282Y9507746D01*
X-1069586Y9282213D01*
X-877787Y9090414D01*
X-652254Y8939718D01*
X-532224Y8890000D01*
X-652254Y8840282D01*
X-877787Y8689586D01*
X-1069586Y8497787D01*
X-1220282Y8272254D01*
X-1324083Y8021656D01*
X-1377000Y7755623D01*
X-1377000Y7484377D01*
X-1324083Y7218344D01*
X-1220282Y6967746D01*
X-1189973Y6922386D01*
X-1213170Y6927000D01*
X-1326830Y6927000D01*
X-1438305Y6904826D01*
X-1543312Y6861331D01*
X-1637816Y6798185D01*
X-1718185Y6717816D01*
X-1781331Y6623312D01*
X-1824826Y6518305D01*
X-1847000Y6406830D01*
X-1847000Y6293170D01*
X-1824826Y6181695D01*
X-1781331Y6076688D01*
X-1718185Y5982184D01*
X-1637816Y5901815D01*
X-1543312Y5838669D01*
X-1438305Y5795174D01*
X-1326830Y5773000D01*
X-1213170Y5773000D01*
X-1189973Y5777614D01*
X-1220282Y5732254D01*
X-1324083Y5481656D01*
X-1377000Y5215623D01*
X-1377000Y4944377D01*
X-1324083Y4678344D01*
X-1220282Y4427746D01*
X-1069586Y4202213D01*
X-877787Y4010414D01*
X-652254Y3859718D01*
X-532224Y3810000D01*
X-652254Y3760282D01*
X-877787Y3609586D01*
X-1069586Y3417787D01*
X-1220282Y3192254D01*
X-1324083Y2941656D01*
X-1377000Y2675623D01*
X-1377000Y2404377D01*
X-1324083Y2138344D01*
X-1220282Y1887746D01*
X-1069586Y1662213D01*
X-877787Y1470414D01*
X-740350Y1378582D01*
X-1050000Y1378582D01*
X-1114103Y1372268D01*
X-1175743Y1353570D01*
X-1232550Y1323206D01*
X-1282343Y1282343D01*
X-1323206Y1232550D01*
X-1353570Y1175743D01*
X-1372268Y1114103D01*
X-1378582Y1050000D01*
X-1378582Y-893000D01*
X-14185627Y-893000D01*
X-14170414Y-877787D01*
X-14019718Y-652254D01*
X-13915917Y-401656D01*
X-13863000Y-135623D01*
X-13863000Y135623D01*
X-13915917Y401656D01*
X-14019718Y652254D01*
X-14170414Y877787D01*
X-14362213Y1069586D01*
X-14587746Y1220282D01*
X-14707776Y1270000D01*
X-14587746Y1319718D01*
X-14362213Y1470414D01*
X-14170414Y1662213D01*
X-14019718Y1887746D01*
X-13915917Y2138344D01*
X-13900505Y2215830D01*
X-12388000Y2215830D01*
X-12388000Y2102170D01*
X-12365826Y1990695D01*
X-12322331Y1885688D01*
X-12259185Y1791184D01*
X-12178816Y1710815D01*
X-12084312Y1647669D01*
X-11979305Y1604174D01*
X-11867830Y1582000D01*
X-11754170Y1582000D01*
X-11642695Y1604174D01*
X-11537688Y1647669D01*
X-11443184Y1710815D01*
X-11362815Y1791184D01*
X-11299669Y1885688D01*
X-11256174Y1990695D01*
X-11236654Y2088830D01*
X-9467000Y2088830D01*
X-9467000Y1975170D01*
X-9444826Y1863695D01*
X-9401331Y1758688D01*
X-9338185Y1664184D01*
X-9257816Y1583815D01*
X-9163312Y1520669D01*
X-9058305Y1477174D01*
X-8946830Y1455000D01*
X-8833170Y1455000D01*
X-8721695Y1477174D01*
X-8616688Y1520669D01*
X-8522184Y1583815D01*
X-8441815Y1664184D01*
X-8378669Y1758688D01*
X-8335174Y1863695D01*
X-8313000Y1975170D01*
X-8313000Y2088830D01*
X-8335174Y2200305D01*
X-8378669Y2305312D01*
X-8404520Y2344000D01*
X-8325170Y2344000D01*
X-8213695Y2366174D01*
X-8108688Y2409669D01*
X-8014184Y2472815D01*
X-7933815Y2553184D01*
X-7870669Y2647688D01*
X-7827174Y2752695D01*
X-7805000Y2864170D01*
X-7805000Y2977830D01*
X-7435000Y2977830D01*
X-7435000Y2864170D01*
X-7412826Y2752695D01*
X-7369331Y2647688D01*
X-7306185Y2553184D01*
X-7225816Y2472815D01*
X-7131312Y2409669D01*
X-7026305Y2366174D01*
X-6914830Y2344000D01*
X-6835480Y2344000D01*
X-6861331Y2305312D01*
X-6904826Y2200305D01*
X-6927000Y2088830D01*
X-6927000Y1975170D01*
X-6904826Y1863695D01*
X-6861331Y1758688D01*
X-6798185Y1664184D01*
X-6717816Y1583815D01*
X-6623312Y1520669D01*
X-6518305Y1477174D01*
X-6406830Y1455000D01*
X-6293170Y1455000D01*
X-6181695Y1477174D01*
X-6076688Y1520669D01*
X-5982184Y1583815D01*
X-5901815Y1664184D01*
X-5838669Y1758688D01*
X-5795174Y1863695D01*
X-5773000Y1975170D01*
X-5773000Y2088830D01*
X-5795174Y2200305D01*
X-5801604Y2215830D01*
X-4006000Y2215830D01*
X-4006000Y2102170D01*
X-3983826Y1990695D01*
X-3940331Y1885688D01*
X-3877185Y1791184D01*
X-3796816Y1710815D01*
X-3702312Y1647669D01*
X-3597305Y1604174D01*
X-3485830Y1582000D01*
X-3372170Y1582000D01*
X-3260695Y1604174D01*
X-3155688Y1647669D01*
X-3061184Y1710815D01*
X-2980815Y1791184D01*
X-2917669Y1885688D01*
X-2874174Y1990695D01*
X-2852000Y2102170D01*
X-2852000Y2215830D01*
X-2874174Y2327305D01*
X-2917669Y2432312D01*
X-2980815Y2526816D01*
X-3061184Y2607185D01*
X-3155688Y2670331D01*
X-3260695Y2713826D01*
X-3372170Y2736000D01*
X-3485830Y2736000D01*
X-3597305Y2713826D01*
X-3702312Y2670331D01*
X-3796816Y2607185D01*
X-3877185Y2526816D01*
X-3940331Y2432312D01*
X-3983826Y2327305D01*
X-4006000Y2215830D01*
X-5801604Y2215830D01*
X-5838669Y2305312D01*
X-5901815Y2399816D01*
X-5982184Y2480185D01*
X-6076688Y2543331D01*
X-6181695Y2586826D01*
X-6293170Y2609000D01*
X-6372520Y2609000D01*
X-6346669Y2647688D01*
X-6303174Y2752695D01*
X-6281000Y2864170D01*
X-6281000Y2977830D01*
X-6303174Y3089305D01*
X-6346669Y3194312D01*
X-6409815Y3288816D01*
X-6490184Y3369185D01*
X-6584688Y3432331D01*
X-6689695Y3475826D01*
X-6801170Y3498000D01*
X-6914830Y3498000D01*
X-7026305Y3475826D01*
X-7131312Y3432331D01*
X-7225816Y3369185D01*
X-7306185Y3288816D01*
X-7369331Y3194312D01*
X-7412826Y3089305D01*
X-7435000Y2977830D01*
X-7805000Y2977830D01*
X-7827174Y3089305D01*
X-7870669Y3194312D01*
X-7933815Y3288816D01*
X-8014184Y3369185D01*
X-8108688Y3432331D01*
X-8213695Y3475826D01*
X-8325170Y3498000D01*
X-8438830Y3498000D01*
X-8550305Y3475826D01*
X-8655312Y3432331D01*
X-8749816Y3369185D01*
X-8830185Y3288816D01*
X-8893331Y3194312D01*
X-8936826Y3089305D01*
X-8959000Y2977830D01*
X-8959000Y2864170D01*
X-8936826Y2752695D01*
X-8893331Y2647688D01*
X-8867480Y2609000D01*
X-8946830Y2609000D01*
X-9058305Y2586826D01*
X-9163312Y2543331D01*
X-9257816Y2480185D01*
X-9338185Y2399816D01*
X-9401331Y2305312D01*
X-9444826Y2200305D01*
X-9467000Y2088830D01*
X-11236654Y2088830D01*
X-11234000Y2102170D01*
X-11234000Y2215830D01*
X-11256174Y2327305D01*
X-11299669Y2432312D01*
X-11362815Y2526816D01*
X-11443184Y2607185D01*
X-11537688Y2670331D01*
X-11642695Y2713826D01*
X-11754170Y2736000D01*
X-11867830Y2736000D01*
X-11979305Y2713826D01*
X-12084312Y2670331D01*
X-12178816Y2607185D01*
X-12259185Y2526816D01*
X-12322331Y2432312D01*
X-12365826Y2327305D01*
X-12388000Y2215830D01*
X-13900505Y2215830D01*
X-13863000Y2404377D01*
X-13863000Y2675623D01*
X-13915917Y2941656D01*
X-14019718Y3192254D01*
X-14170414Y3417787D01*
X-14362213Y3609586D01*
X-14587746Y3760282D01*
X-14707776Y3810000D01*
X-14587746Y3859718D01*
X-14362213Y4010414D01*
X-14251797Y4120830D01*
X-12769000Y4120830D01*
X-12769000Y4007170D01*
X-12746826Y3895695D01*
X-12703331Y3790688D01*
X-12640185Y3696184D01*
X-12559816Y3615815D01*
X-12465312Y3552669D01*
X-12360305Y3509174D01*
X-12248830Y3487000D01*
X-12135170Y3487000D01*
X-12023695Y3509174D01*
X-11918688Y3552669D01*
X-11824184Y3615815D01*
X-11743815Y3696184D01*
X-11680669Y3790688D01*
X-11637174Y3895695D01*
X-11615000Y4007170D01*
X-11615000Y4120830D01*
X-11637174Y4232305D01*
X-11680669Y4337312D01*
X-11705737Y4374830D01*
X-4387000Y4374830D01*
X-4387000Y4261170D01*
X-4364826Y4149695D01*
X-4321331Y4044688D01*
X-4258185Y3950184D01*
X-4177816Y3869815D01*
X-4083312Y3806669D01*
X-3978305Y3763174D01*
X-3866830Y3741000D01*
X-3753170Y3741000D01*
X-3641695Y3763174D01*
X-3536688Y3806669D01*
X-3442184Y3869815D01*
X-3361815Y3950184D01*
X-3298669Y4044688D01*
X-3255174Y4149695D01*
X-3233000Y4261170D01*
X-3233000Y4374830D01*
X-3255174Y4486305D01*
X-3298669Y4591312D01*
X-3361815Y4685816D01*
X-3442184Y4766185D01*
X-3536688Y4829331D01*
X-3641695Y4872826D01*
X-3753170Y4895000D01*
X-3866830Y4895000D01*
X-3978305Y4872826D01*
X-4083312Y4829331D01*
X-4177816Y4766185D01*
X-4258185Y4685816D01*
X-4321331Y4591312D01*
X-4364826Y4486305D01*
X-4387000Y4374830D01*
X-11705737Y4374830D01*
X-11743815Y4431816D01*
X-11824184Y4512185D01*
X-11918688Y4575331D01*
X-12023695Y4618826D01*
X-12135170Y4641000D01*
X-12248830Y4641000D01*
X-12360305Y4618826D01*
X-12465312Y4575331D01*
X-12559816Y4512185D01*
X-12640185Y4431816D01*
X-12703331Y4337312D01*
X-12746826Y4232305D01*
X-12769000Y4120830D01*
X-14251797Y4120830D01*
X-14170414Y4202213D01*
X-14019718Y4427746D01*
X-13915917Y4678344D01*
X-13863000Y4944377D01*
X-13863000Y5215623D01*
X-13915917Y5481656D01*
X-14019718Y5732254D01*
X-14170414Y5957787D01*
X-14238457Y6025830D01*
X-12769000Y6025830D01*
X-12769000Y5912170D01*
X-12746826Y5800695D01*
X-12703331Y5695688D01*
X-12640185Y5601184D01*
X-12559816Y5520815D01*
X-12465312Y5457669D01*
X-12360305Y5414174D01*
X-12248830Y5392000D01*
X-12135170Y5392000D01*
X-12023695Y5414174D01*
X-11918688Y5457669D01*
X-11824184Y5520815D01*
X-11743815Y5601184D01*
X-11680669Y5695688D01*
X-11637174Y5800695D01*
X-11615000Y5912170D01*
X-11615000Y6025830D01*
X-11637174Y6137305D01*
X-11643604Y6152830D01*
X-10610000Y6152830D01*
X-10610000Y6039170D01*
X-10587826Y5927695D01*
X-10544331Y5822688D01*
X-10481185Y5728184D01*
X-10400816Y5647815D01*
X-10306312Y5584669D01*
X-10201305Y5541174D01*
X-10089830Y5519000D01*
X-9976170Y5519000D01*
X-9864695Y5541174D01*
X-9759688Y5584669D01*
X-9665184Y5647815D01*
X-9584815Y5728184D01*
X-9521669Y5822688D01*
X-9478174Y5927695D01*
X-9456000Y6039170D01*
X-9456000Y6152830D01*
X-9478174Y6264305D01*
X-9521669Y6369312D01*
X-9546737Y6406830D01*
X-8832000Y6406830D01*
X-8832000Y6293170D01*
X-8809826Y6181695D01*
X-8766331Y6076688D01*
X-8703185Y5982184D01*
X-8622816Y5901815D01*
X-8528312Y5838669D01*
X-8423305Y5795174D01*
X-8311830Y5773000D01*
X-8198170Y5773000D01*
X-8086695Y5795174D01*
X-7981688Y5838669D01*
X-7887184Y5901815D01*
X-7806815Y5982184D01*
X-7743669Y6076688D01*
X-7700174Y6181695D01*
X-7678000Y6293170D01*
X-7678000Y6406830D01*
X-6292000Y6406830D01*
X-6292000Y6293170D01*
X-6269826Y6181695D01*
X-6226331Y6076688D01*
X-6163185Y5982184D01*
X-6082816Y5901815D01*
X-5988312Y5838669D01*
X-5883305Y5795174D01*
X-5771830Y5773000D01*
X-5658170Y5773000D01*
X-5546695Y5795174D01*
X-5441688Y5838669D01*
X-5347184Y5901815D01*
X-5266815Y5982184D01*
X-5203669Y6076688D01*
X-5172131Y6152830D01*
X-4006000Y6152830D01*
X-4006000Y6039170D01*
X-3983826Y5927695D01*
X-3940331Y5822688D01*
X-3877185Y5728184D01*
X-3796816Y5647815D01*
X-3702312Y5584669D01*
X-3597305Y5541174D01*
X-3485830Y5519000D01*
X-3372170Y5519000D01*
X-3260695Y5541174D01*
X-3155688Y5584669D01*
X-3061184Y5647815D01*
X-2980815Y5728184D01*
X-2917669Y5822688D01*
X-2874174Y5927695D01*
X-2852000Y6039170D01*
X-2852000Y6152830D01*
X-2874174Y6264305D01*
X-2917669Y6369312D01*
X-2980815Y6463816D01*
X-3061184Y6544185D01*
X-3155688Y6607331D01*
X-3260695Y6650826D01*
X-3372170Y6673000D01*
X-3485830Y6673000D01*
X-3597305Y6650826D01*
X-3702312Y6607331D01*
X-3796816Y6544185D01*
X-3877185Y6463816D01*
X-3940331Y6369312D01*
X-3983826Y6264305D01*
X-4006000Y6152830D01*
X-5172131Y6152830D01*
X-5160174Y6181695D01*
X-5138000Y6293170D01*
X-5138000Y6406830D01*
X-5138291Y6408291D01*
X-5136830Y6408000D01*
X-5023170Y6408000D01*
X-4911695Y6430174D01*
X-4806688Y6473669D01*
X-4712184Y6536815D01*
X-4631815Y6617184D01*
X-4568669Y6711688D01*
X-4525174Y6816695D01*
X-4503000Y6928170D01*
X-4503000Y7041830D01*
X-4525174Y7153305D01*
X-4568669Y7258312D01*
X-4631815Y7352816D01*
X-4712184Y7433185D01*
X-4806688Y7496331D01*
X-4911695Y7539826D01*
X-5023170Y7562000D01*
X-5136830Y7562000D01*
X-5248305Y7539826D01*
X-5353312Y7496331D01*
X-5447816Y7433185D01*
X-5528185Y7352816D01*
X-5591331Y7258312D01*
X-5634826Y7153305D01*
X-5657000Y7041830D01*
X-5657000Y6928170D01*
X-5656709Y6926709D01*
X-5658170Y6927000D01*
X-5771830Y6927000D01*
X-5883305Y6904826D01*
X-5988312Y6861331D01*
X-6082816Y6798185D01*
X-6163185Y6717816D01*
X-6226331Y6623312D01*
X-6269826Y6518305D01*
X-6292000Y6406830D01*
X-7678000Y6406830D01*
X-7678291Y6408291D01*
X-7676830Y6408000D01*
X-7563170Y6408000D01*
X-7451695Y6430174D01*
X-7346688Y6473669D01*
X-7252184Y6536815D01*
X-7171815Y6617184D01*
X-7108669Y6711688D01*
X-7065174Y6816695D01*
X-7043000Y6928170D01*
X-7043000Y7041830D01*
X-7043291Y7043291D01*
X-7041830Y7043000D01*
X-6928170Y7043000D01*
X-6816695Y7065174D01*
X-6711688Y7108669D01*
X-6617184Y7171815D01*
X-6536815Y7252184D01*
X-6473669Y7346688D01*
X-6430174Y7451695D01*
X-6408000Y7563170D01*
X-6408000Y7676830D01*
X-6408291Y7678291D01*
X-6406830Y7678000D01*
X-6293170Y7678000D01*
X-6181695Y7700174D01*
X-6076688Y7743669D01*
X-5982184Y7806815D01*
X-5901815Y7887184D01*
X-5838669Y7981688D01*
X-5795174Y8086695D01*
X-5773000Y8198170D01*
X-5773000Y8311830D01*
X-5773291Y8313291D01*
X-5771830Y8313000D01*
X-5658170Y8313000D01*
X-5546695Y8335174D01*
X-5441688Y8378669D01*
X-5347184Y8441815D01*
X-5266815Y8522184D01*
X-5203669Y8616688D01*
X-5160174Y8721695D01*
X-5138000Y8833170D01*
X-5138000Y8946830D01*
X-5160174Y9058305D01*
X-5203669Y9163312D01*
X-5266815Y9257816D01*
X-5347184Y9338185D01*
X-5441688Y9401331D01*
X-5546695Y9444826D01*
X-5658170Y9467000D01*
X-5771830Y9467000D01*
X-5883305Y9444826D01*
X-5988312Y9401331D01*
X-6082816Y9338185D01*
X-6163185Y9257816D01*
X-6226331Y9163312D01*
X-6269826Y9058305D01*
X-6292000Y8946830D01*
X-6292000Y8833170D01*
X-6291709Y8831709D01*
X-6293170Y8832000D01*
X-6406830Y8832000D01*
X-6518305Y8809826D01*
X-6623312Y8766331D01*
X-6717816Y8703185D01*
X-6798185Y8622816D01*
X-6861331Y8528312D01*
X-6904826Y8423305D01*
X-6927000Y8311830D01*
X-6927000Y8198170D01*
X-6926709Y8196709D01*
X-6928170Y8197000D01*
X-7041830Y8197000D01*
X-7153305Y8174826D01*
X-7258312Y8131331D01*
X-7352816Y8068185D01*
X-7433185Y7987816D01*
X-7496331Y7893312D01*
X-7539826Y7788305D01*
X-7562000Y7676830D01*
X-7562000Y7563170D01*
X-7561709Y7561709D01*
X-7563170Y7562000D01*
X-7676830Y7562000D01*
X-7788305Y7539826D01*
X-7893312Y7496331D01*
X-7987816Y7433185D01*
X-8068185Y7352816D01*
X-8131331Y7258312D01*
X-8174826Y7153305D01*
X-8197000Y7041830D01*
X-8197000Y6928170D01*
X-8196709Y6926709D01*
X-8198170Y6927000D01*
X-8311830Y6927000D01*
X-8423305Y6904826D01*
X-8528312Y6861331D01*
X-8622816Y6798185D01*
X-8703185Y6717816D01*
X-8766331Y6623312D01*
X-8809826Y6518305D01*
X-8832000Y6406830D01*
X-9546737Y6406830D01*
X-9584815Y6463816D01*
X-9665184Y6544185D01*
X-9759688Y6607331D01*
X-9864695Y6650826D01*
X-9976170Y6673000D01*
X-10089830Y6673000D01*
X-10201305Y6650826D01*
X-10306312Y6607331D01*
X-10400816Y6544185D01*
X-10481185Y6463816D01*
X-10544331Y6369312D01*
X-10587826Y6264305D01*
X-10610000Y6152830D01*
X-11643604Y6152830D01*
X-11680669Y6242312D01*
X-11743815Y6336816D01*
X-11824184Y6417185D01*
X-11918688Y6480331D01*
X-12023695Y6523826D01*
X-12135170Y6546000D01*
X-12248830Y6546000D01*
X-12360305Y6523826D01*
X-12465312Y6480331D01*
X-12559816Y6417185D01*
X-12640185Y6336816D01*
X-12703331Y6242312D01*
X-12746826Y6137305D01*
X-12769000Y6025830D01*
X-14238457Y6025830D01*
X-14362213Y6149586D01*
X-14381743Y6162635D01*
X-14350339Y6179421D01*
X-14248539Y6448934D01*
X-15240000Y7440395D01*
X-15254142Y7426252D01*
X-15433747Y7605857D01*
X-15419605Y7620000D01*
X-15060395Y7620000D01*
X-14068934Y6628539D01*
X-13799421Y6730339D01*
X-13653537Y7028477D01*
X-13568620Y7349346D01*
X-13548171Y7676830D01*
X-10102000Y7676830D01*
X-10102000Y7563170D01*
X-10079826Y7451695D01*
X-10036331Y7346688D01*
X-9973185Y7252184D01*
X-9892816Y7171815D01*
X-9798312Y7108669D01*
X-9693305Y7065174D01*
X-9581830Y7043000D01*
X-9468170Y7043000D01*
X-9356695Y7065174D01*
X-9251688Y7108669D01*
X-9157184Y7171815D01*
X-9076815Y7252184D01*
X-9013669Y7346688D01*
X-8970174Y7451695D01*
X-8948000Y7563170D01*
X-8948000Y7676830D01*
X-8948291Y7678291D01*
X-8946830Y7678000D01*
X-8833170Y7678000D01*
X-8721695Y7700174D01*
X-8616688Y7743669D01*
X-8522184Y7806815D01*
X-8441815Y7887184D01*
X-8378669Y7981688D01*
X-8335174Y8086695D01*
X-8313000Y8198170D01*
X-8313000Y8311830D01*
X-8313291Y8313291D01*
X-8311830Y8313000D01*
X-8198170Y8313000D01*
X-8086695Y8335174D01*
X-7981688Y8378669D01*
X-7887184Y8441815D01*
X-7806815Y8522184D01*
X-7743669Y8616688D01*
X-7700174Y8721695D01*
X-7678000Y8833170D01*
X-7678000Y8946830D01*
X-7678291Y8948291D01*
X-7676830Y8948000D01*
X-7563170Y8948000D01*
X-7451695Y8970174D01*
X-7346688Y9013669D01*
X-7252184Y9076815D01*
X-7171815Y9157184D01*
X-7108669Y9251688D01*
X-7065174Y9356695D01*
X-7043000Y9468170D01*
X-7043000Y9581830D01*
X-7043291Y9583291D01*
X-7041830Y9583000D01*
X-6928170Y9583000D01*
X-6816695Y9605174D01*
X-6711688Y9648669D01*
X-6617184Y9711815D01*
X-6536815Y9792184D01*
X-6473669Y9886688D01*
X-6430174Y9991695D01*
X-6408000Y10103170D01*
X-6408000Y10216830D01*
X-6430174Y10328305D01*
X-6473669Y10433312D01*
X-6498737Y10470830D01*
X-4895000Y10470830D01*
X-4895000Y10357170D01*
X-4872826Y10245695D01*
X-4829331Y10140688D01*
X-4766185Y10046184D01*
X-4685816Y9965815D01*
X-4591312Y9902669D01*
X-4486305Y9859174D01*
X-4374830Y9837000D01*
X-4261170Y9837000D01*
X-4149695Y9859174D01*
X-4044688Y9902669D01*
X-3950184Y9965815D01*
X-3869815Y10046184D01*
X-3806669Y10140688D01*
X-3763174Y10245695D01*
X-3741000Y10357170D01*
X-3741000Y10470830D01*
X-3763174Y10582305D01*
X-3806669Y10687312D01*
X-3869815Y10781816D01*
X-3950184Y10862185D01*
X-4044688Y10925331D01*
X-4149695Y10968826D01*
X-4261170Y10991000D01*
X-4374830Y10991000D01*
X-4486305Y10968826D01*
X-4591312Y10925331D01*
X-4685816Y10862185D01*
X-4766185Y10781816D01*
X-4829331Y10687312D01*
X-4872826Y10582305D01*
X-4895000Y10470830D01*
X-6498737Y10470830D01*
X-6536815Y10527816D01*
X-6617184Y10608185D01*
X-6711688Y10671331D01*
X-6816695Y10714826D01*
X-6928170Y10737000D01*
X-7041830Y10737000D01*
X-7153305Y10714826D01*
X-7258312Y10671331D01*
X-7352816Y10608185D01*
X-7433185Y10527816D01*
X-7496331Y10433312D01*
X-7539826Y10328305D01*
X-7562000Y10216830D01*
X-7562000Y10103170D01*
X-7561709Y10101709D01*
X-7563170Y10102000D01*
X-7676830Y10102000D01*
X-7788305Y10079826D01*
X-7893312Y10036331D01*
X-7987816Y9973185D01*
X-8068185Y9892816D01*
X-8131331Y9798312D01*
X-8174826Y9693305D01*
X-8197000Y9581830D01*
X-8197000Y9468170D01*
X-8196709Y9466709D01*
X-8198170Y9467000D01*
X-8311830Y9467000D01*
X-8423305Y9444826D01*
X-8528312Y9401331D01*
X-8622816Y9338185D01*
X-8703185Y9257816D01*
X-8766331Y9163312D01*
X-8809826Y9058305D01*
X-8832000Y8946830D01*
X-8832000Y8833170D01*
X-8831709Y8831709D01*
X-8833170Y8832000D01*
X-8946830Y8832000D01*
X-9058305Y8809826D01*
X-9163312Y8766331D01*
X-9257816Y8703185D01*
X-9338185Y8622816D01*
X-9401331Y8528312D01*
X-9444826Y8423305D01*
X-9467000Y8311830D01*
X-9467000Y8198170D01*
X-9466709Y8196709D01*
X-9468170Y8197000D01*
X-9581830Y8197000D01*
X-9693305Y8174826D01*
X-9798312Y8131331D01*
X-9892816Y8068185D01*
X-9973185Y7987816D01*
X-10036331Y7893312D01*
X-10079826Y7788305D01*
X-10102000Y7676830D01*
X-13548171Y7676830D01*
X-13547934Y7680617D01*
X-13592272Y8009557D01*
X-13699931Y8323527D01*
X-13799421Y8509661D01*
X-14068934Y8611461D01*
X-15060395Y7620000D01*
X-15419605Y7620000D01*
X-15433747Y7634142D01*
X-15254142Y7813747D01*
X-15240000Y7799605D01*
X-14248539Y8791066D01*
X-14350339Y9060579D01*
X-14382969Y9076545D01*
X-14362213Y9090414D01*
X-14170414Y9282213D01*
X-14019718Y9507746D01*
X-13915917Y9758344D01*
X-13863000Y10024377D01*
X-13863000Y10295623D01*
X-13915917Y10561656D01*
X-14019718Y10812254D01*
X-14044516Y10849367D01*
X-10839000Y10849367D01*
X-10839000Y10740633D01*
X-10817787Y10633988D01*
X-10776176Y10533530D01*
X-10715766Y10443120D01*
X-10638880Y10366234D01*
X-10548470Y10305824D01*
X-10448012Y10264213D01*
X-10341367Y10243000D01*
X-10232633Y10243000D01*
X-10125988Y10264213D01*
X-10025530Y10305824D01*
X-9935120Y10366234D01*
X-9858234Y10443120D01*
X-9797824Y10533530D01*
X-9756213Y10633988D01*
X-9735000Y10740633D01*
X-9735000Y10849367D01*
X-9756213Y10956012D01*
X-9797824Y11056470D01*
X-9858234Y11146880D01*
X-9935120Y11223766D01*
X-9948685Y11232830D01*
X-8705000Y11232830D01*
X-8705000Y11119170D01*
X-8682826Y11007695D01*
X-8639331Y10902688D01*
X-8576185Y10808184D01*
X-8495816Y10727815D01*
X-8401312Y10664669D01*
X-8296305Y10621174D01*
X-8184830Y10599000D01*
X-8071170Y10599000D01*
X-7959695Y10621174D01*
X-7854688Y10664669D01*
X-7760184Y10727815D01*
X-7679815Y10808184D01*
X-7616669Y10902688D01*
X-7573174Y11007695D01*
X-7551000Y11119170D01*
X-7551000Y11232830D01*
X-7573174Y11344305D01*
X-7616669Y11449312D01*
X-7679815Y11543816D01*
X-7749829Y11613830D01*
X-6038000Y11613830D01*
X-6038000Y11500170D01*
X-6015826Y11388695D01*
X-5972331Y11283688D01*
X-5909185Y11189184D01*
X-5828816Y11108815D01*
X-5734312Y11045669D01*
X-5629305Y11002174D01*
X-5517830Y10980000D01*
X-5404170Y10980000D01*
X-5292695Y11002174D01*
X-5187688Y11045669D01*
X-5093184Y11108815D01*
X-5012815Y11189184D01*
X-4949669Y11283688D01*
X-4906174Y11388695D01*
X-4884000Y11500170D01*
X-4884000Y11613830D01*
X-4906174Y11725305D01*
X-4949669Y11830312D01*
X-5012815Y11924816D01*
X-5093184Y12005185D01*
X-5187688Y12068331D01*
X-5292695Y12111826D01*
X-5404170Y12134000D01*
X-5517830Y12134000D01*
X-5629305Y12111826D01*
X-5734312Y12068331D01*
X-5828816Y12005185D01*
X-5909185Y11924816D01*
X-5972331Y11830312D01*
X-6015826Y11725305D01*
X-6038000Y11613830D01*
X-7749829Y11613830D01*
X-7760184Y11624185D01*
X-7854688Y11687331D01*
X-7959695Y11730826D01*
X-8071170Y11753000D01*
X-8184830Y11753000D01*
X-8296305Y11730826D01*
X-8401312Y11687331D01*
X-8495816Y11624185D01*
X-8576185Y11543816D01*
X-8639331Y11449312D01*
X-8682826Y11344305D01*
X-8705000Y11232830D01*
X-9948685Y11232830D01*
X-10025530Y11284176D01*
X-10125988Y11325787D01*
X-10232633Y11347000D01*
X-10341367Y11347000D01*
X-10448012Y11325787D01*
X-10548470Y11284176D01*
X-10638880Y11223766D01*
X-10715766Y11146880D01*
X-10776176Y11056470D01*
X-10817787Y10956012D01*
X-10839000Y10849367D01*
X-14044516Y10849367D01*
X-14170414Y11037787D01*
X-14362213Y11229586D01*
X-14587746Y11380282D01*
X-14707776Y11430000D01*
X-14587746Y11479718D01*
X-14362213Y11630414D01*
X-14170414Y11822213D01*
X-14019718Y12047746D01*
X-13915917Y12298344D01*
X-13863000Y12564377D01*
X-13863000Y12835623D01*
X-13915917Y13101656D01*
X-14019718Y13352254D01*
X-14170414Y13577787D01*
X-14362213Y13769586D01*
X-14587746Y13920282D01*
X-14707776Y13970000D01*
X-14587746Y14019718D01*
X-14362213Y14170414D01*
X-14251797Y14280830D01*
X-10356000Y14280830D01*
X-10356000Y14167170D01*
X-10333826Y14055695D01*
X-10290331Y13950688D01*
X-10227185Y13856184D01*
X-10146816Y13775815D01*
X-10073064Y13726535D01*
X-10083316Y13719685D01*
X-10163685Y13639316D01*
X-10226831Y13544812D01*
X-10270326Y13439805D01*
X-10292500Y13328330D01*
X-10292500Y13214670D01*
X-10270326Y13103195D01*
X-10226831Y12998188D01*
X-10163685Y12903684D01*
X-10083316Y12823315D01*
X-9988812Y12760169D01*
X-9883805Y12716674D01*
X-9772330Y12694500D01*
X-9658670Y12694500D01*
X-9547195Y12716674D01*
X-9450250Y12756830D01*
X-7181000Y12756830D01*
X-7181000Y12643170D01*
X-7158826Y12531695D01*
X-7115331Y12426688D01*
X-7052185Y12332184D01*
X-6971816Y12251815D01*
X-6877312Y12188669D01*
X-6772305Y12145174D01*
X-6660830Y12123000D01*
X-6547170Y12123000D01*
X-6435695Y12145174D01*
X-6330688Y12188669D01*
X-6236184Y12251815D01*
X-6155815Y12332184D01*
X-6092669Y12426688D01*
X-6049174Y12531695D01*
X-6029654Y12629830D01*
X-5022000Y12629830D01*
X-5022000Y12516170D01*
X-4999826Y12404695D01*
X-4956331Y12299688D01*
X-4893185Y12205184D01*
X-4812816Y12124815D01*
X-4718312Y12061669D01*
X-4613305Y12018174D01*
X-4501830Y11996000D01*
X-4388170Y11996000D01*
X-4276695Y12018174D01*
X-4171688Y12061669D01*
X-4077184Y12124815D01*
X-3996815Y12205184D01*
X-3933669Y12299688D01*
X-3890174Y12404695D01*
X-3868000Y12516170D01*
X-3868000Y12629830D01*
X-3890174Y12741305D01*
X-3933669Y12846312D01*
X-3996815Y12940816D01*
X-4077184Y13021185D01*
X-4171688Y13084331D01*
X-4276695Y13127826D01*
X-4388170Y13150000D01*
X-4501830Y13150000D01*
X-4613305Y13127826D01*
X-4718312Y13084331D01*
X-4812816Y13021185D01*
X-4893185Y12940816D01*
X-4956331Y12846312D01*
X-4999826Y12741305D01*
X-5022000Y12629830D01*
X-6029654Y12629830D01*
X-6027000Y12643170D01*
X-6027000Y12756830D01*
X-6049174Y12868305D01*
X-6092669Y12973312D01*
X-6155815Y13067816D01*
X-6236184Y13148185D01*
X-6330688Y13211331D01*
X-6435695Y13254826D01*
X-6547170Y13277000D01*
X-6660830Y13277000D01*
X-6772305Y13254826D01*
X-6877312Y13211331D01*
X-6971816Y13148185D01*
X-7052185Y13067816D01*
X-7115331Y12973312D01*
X-7158826Y12868305D01*
X-7181000Y12756830D01*
X-9450250Y12756830D01*
X-9442188Y12760169D01*
X-9347684Y12823315D01*
X-9267315Y12903684D01*
X-9204169Y12998188D01*
X-9160674Y13103195D01*
X-9138500Y13214670D01*
X-9138500Y13328330D01*
X-9160674Y13439805D01*
X-9204169Y13544812D01*
X-9267315Y13639316D01*
X-9347684Y13719685D01*
X-9421436Y13768965D01*
X-9411184Y13775815D01*
X-9330815Y13856184D01*
X-9301652Y13899830D01*
X-8324000Y13899830D01*
X-8324000Y13786170D01*
X-8301826Y13674695D01*
X-8258331Y13569688D01*
X-8195185Y13475184D01*
X-8114816Y13394815D01*
X-8020312Y13331669D01*
X-7915305Y13288174D01*
X-7803830Y13266000D01*
X-7690170Y13266000D01*
X-7578695Y13288174D01*
X-7473688Y13331669D01*
X-7379184Y13394815D01*
X-7298815Y13475184D01*
X-7235669Y13569688D01*
X-7192174Y13674695D01*
X-7170000Y13786170D01*
X-7170000Y13899830D01*
X-7192174Y14011305D01*
X-7197584Y14024367D01*
X-6267000Y14024367D01*
X-6267000Y13915633D01*
X-6245787Y13808988D01*
X-6204176Y13708530D01*
X-6143766Y13618120D01*
X-6066880Y13541234D01*
X-5976470Y13480824D01*
X-5876012Y13439213D01*
X-5769367Y13418000D01*
X-5660633Y13418000D01*
X-5553988Y13439213D01*
X-5453530Y13480824D01*
X-5363120Y13541234D01*
X-5286234Y13618120D01*
X-5225824Y13708530D01*
X-5184213Y13808988D01*
X-5163000Y13915633D01*
X-5163000Y14024367D01*
X-5184213Y14131012D01*
X-5225824Y14231470D01*
X-5286234Y14321880D01*
X-5363120Y14398766D01*
X-5453530Y14459176D01*
X-5553988Y14500787D01*
X-5660633Y14522000D01*
X-5769367Y14522000D01*
X-5876012Y14500787D01*
X-5976470Y14459176D01*
X-6066880Y14398766D01*
X-6143766Y14321880D01*
X-6204176Y14231470D01*
X-6245787Y14131012D01*
X-6267000Y14024367D01*
X-7197584Y14024367D01*
X-7235669Y14116312D01*
X-7298815Y14210816D01*
X-7379184Y14291185D01*
X-7473688Y14354331D01*
X-7578695Y14397826D01*
X-7690170Y14420000D01*
X-7803830Y14420000D01*
X-7915305Y14397826D01*
X-8020312Y14354331D01*
X-8114816Y14291185D01*
X-8195185Y14210816D01*
X-8258331Y14116312D01*
X-8301826Y14011305D01*
X-8324000Y13899830D01*
X-9301652Y13899830D01*
X-9267669Y13950688D01*
X-9224174Y14055695D01*
X-9202000Y14167170D01*
X-9202000Y14280830D01*
X-9224174Y14392305D01*
X-9267669Y14497312D01*
X-9330815Y14591816D01*
X-9411184Y14672185D01*
X-9505688Y14735331D01*
X-9610695Y14778826D01*
X-9722170Y14801000D01*
X-9835830Y14801000D01*
X-9947305Y14778826D01*
X-10052312Y14735331D01*
X-10146816Y14672185D01*
X-10227185Y14591816D01*
X-10290331Y14497312D01*
X-10333826Y14392305D01*
X-10356000Y14280830D01*
X-14251797Y14280830D01*
X-14170414Y14362213D01*
X-14019718Y14587746D01*
X-13915917Y14838344D01*
X-13863000Y15104377D01*
X-13863000Y15294367D01*
X-10839000Y15294367D01*
X-10839000Y15185633D01*
X-10817787Y15078988D01*
X-10776176Y14978530D01*
X-10715766Y14888120D01*
X-10638880Y14811234D01*
X-10548470Y14750824D01*
X-10448012Y14709213D01*
X-10341367Y14688000D01*
X-10232633Y14688000D01*
X-10125988Y14709213D01*
X-10025530Y14750824D01*
X-9935120Y14811234D01*
X-9858234Y14888120D01*
X-9841365Y14913367D01*
X-7156000Y14913367D01*
X-7156000Y14804633D01*
X-7134787Y14697988D01*
X-7093176Y14597530D01*
X-7032766Y14507120D01*
X-6955880Y14430234D01*
X-6865470Y14369824D01*
X-6765012Y14328213D01*
X-6658367Y14307000D01*
X-6549633Y14307000D01*
X-6442988Y14328213D01*
X-6342530Y14369824D01*
X-6252120Y14430234D01*
X-6175234Y14507120D01*
X-6114824Y14597530D01*
X-6073213Y14697988D01*
X-6055542Y14786830D01*
X-3447000Y14786830D01*
X-3447000Y14673170D01*
X-3424826Y14561695D01*
X-3381331Y14456688D01*
X-3318185Y14362184D01*
X-3237816Y14281815D01*
X-3143312Y14218669D01*
X-3049956Y14180000D01*
X-3143312Y14141331D01*
X-3237816Y14078185D01*
X-3318185Y13997816D01*
X-3381331Y13903312D01*
X-3424826Y13798305D01*
X-3447000Y13686830D01*
X-3447000Y13573170D01*
X-3424826Y13461695D01*
X-3381331Y13356688D01*
X-3318185Y13262184D01*
X-3237816Y13181815D01*
X-3143312Y13118669D01*
X-3038305Y13075174D01*
X-2926830Y13053000D01*
X-2813170Y13053000D01*
X-2701695Y13075174D01*
X-2596688Y13118669D01*
X-2502184Y13181815D01*
X-2421815Y13262184D01*
X-2358669Y13356688D01*
X-2315174Y13461695D01*
X-2293000Y13573170D01*
X-2293000Y13686830D01*
X-2315174Y13798305D01*
X-2358669Y13903312D01*
X-2421815Y13997816D01*
X-2502184Y14078185D01*
X-2596688Y14141331D01*
X-2690044Y14180000D01*
X-2596688Y14218669D01*
X-2502184Y14281815D01*
X-2421815Y14362184D01*
X-2358669Y14456688D01*
X-2315174Y14561695D01*
X-2293000Y14673170D01*
X-2293000Y14786830D01*
X-2315174Y14898305D01*
X-2358669Y15003312D01*
X-2421815Y15097816D01*
X-2502184Y15178185D01*
X-2596688Y15241331D01*
X-2701695Y15284826D01*
X-2813170Y15307000D01*
X-2926830Y15307000D01*
X-3038305Y15284826D01*
X-3143312Y15241331D01*
X-3237816Y15178185D01*
X-3318185Y15097816D01*
X-3381331Y15003312D01*
X-3424826Y14898305D01*
X-3447000Y14786830D01*
X-6055542Y14786830D01*
X-6052000Y14804633D01*
X-6052000Y14913367D01*
X-6073213Y15020012D01*
X-6114824Y15120470D01*
X-6175234Y15210880D01*
X-6252120Y15287766D01*
X-6342530Y15348176D01*
X-6442988Y15389787D01*
X-6549633Y15411000D01*
X-6658367Y15411000D01*
X-6765012Y15389787D01*
X-6865470Y15348176D01*
X-6955880Y15287766D01*
X-7032766Y15210880D01*
X-7093176Y15120470D01*
X-7134787Y15020012D01*
X-7156000Y14913367D01*
X-9841365Y14913367D01*
X-9797824Y14978530D01*
X-9756213Y15078988D01*
X-9735000Y15185633D01*
X-9735000Y15294367D01*
X-9756213Y15401012D01*
X-9765664Y15423830D01*
X-4895000Y15423830D01*
X-4895000Y15310170D01*
X-4872826Y15198695D01*
X-4829331Y15093688D01*
X-4766185Y14999184D01*
X-4685816Y14918815D01*
X-4591312Y14855669D01*
X-4486305Y14812174D01*
X-4374830Y14790000D01*
X-4261170Y14790000D01*
X-4149695Y14812174D01*
X-4044688Y14855669D01*
X-3950184Y14918815D01*
X-3869815Y14999184D01*
X-3806669Y15093688D01*
X-3763174Y15198695D01*
X-3741000Y15310170D01*
X-3741000Y15423830D01*
X-3763174Y15535305D01*
X-3806669Y15640312D01*
X-3869815Y15734816D01*
X-3950184Y15815185D01*
X-4044688Y15878331D01*
X-4149695Y15921826D01*
X-4261170Y15944000D01*
X-4374830Y15944000D01*
X-4486305Y15921826D01*
X-4591312Y15878331D01*
X-4685816Y15815185D01*
X-4766185Y15734816D01*
X-4829331Y15640312D01*
X-4872826Y15535305D01*
X-4895000Y15423830D01*
X-9765664Y15423830D01*
X-9797824Y15501470D01*
X-9858234Y15591880D01*
X-9935120Y15668766D01*
X-10025530Y15729176D01*
X-10125988Y15770787D01*
X-10232633Y15792000D01*
X-10341367Y15792000D01*
X-10448012Y15770787D01*
X-10548470Y15729176D01*
X-10638880Y15668766D01*
X-10715766Y15591880D01*
X-10776176Y15501470D01*
X-10817787Y15401012D01*
X-10839000Y15294367D01*
X-13863000Y15294367D01*
X-13863000Y15375623D01*
X-13915917Y15641656D01*
X-14019718Y15892254D01*
X-14170414Y16117787D01*
X-14362213Y16309586D01*
X-14553451Y16437367D01*
X-9442000Y16437367D01*
X-9442000Y16328633D01*
X-9420787Y16221988D01*
X-9379176Y16121530D01*
X-9318766Y16031120D01*
X-9241880Y15954234D01*
X-9151470Y15893824D01*
X-9051012Y15852213D01*
X-8944367Y15831000D01*
X-8835633Y15831000D01*
X-8728988Y15852213D01*
X-8628530Y15893824D01*
X-8538120Y15954234D01*
X-8461234Y16031120D01*
X-8400824Y16121530D01*
X-8359213Y16221988D01*
X-8338000Y16328633D01*
X-8338000Y16437367D01*
X-6013000Y16437367D01*
X-6013000Y16328633D01*
X-5991787Y16221988D01*
X-5950176Y16121530D01*
X-5889766Y16031120D01*
X-5812880Y15954234D01*
X-5722470Y15893824D01*
X-5622012Y15852213D01*
X-5515367Y15831000D01*
X-5406633Y15831000D01*
X-5299988Y15852213D01*
X-5199530Y15893824D01*
X-5109120Y15954234D01*
X-5032234Y16031120D01*
X-4971824Y16121530D01*
X-4930213Y16221988D01*
X-4909000Y16328633D01*
X-4909000Y16437367D01*
X-4930213Y16544012D01*
X-4971824Y16644470D01*
X-5032234Y16734880D01*
X-5109120Y16811766D01*
X-5199530Y16872176D01*
X-5299988Y16913787D01*
X-5406633Y16935000D01*
X-5515367Y16935000D01*
X-5622012Y16913787D01*
X-5722470Y16872176D01*
X-5812880Y16811766D01*
X-5889766Y16734880D01*
X-5950176Y16644470D01*
X-5991787Y16544012D01*
X-6013000Y16437367D01*
X-8338000Y16437367D01*
X-8359213Y16544012D01*
X-8400824Y16644470D01*
X-8461234Y16734880D01*
X-8538120Y16811766D01*
X-8628530Y16872176D01*
X-8728988Y16913787D01*
X-8835633Y16935000D01*
X-8944367Y16935000D01*
X-9051012Y16913787D01*
X-9151470Y16872176D01*
X-9241880Y16811766D01*
X-9318766Y16734880D01*
X-9379176Y16644470D01*
X-9420787Y16544012D01*
X-9442000Y16437367D01*
X-14553451Y16437367D01*
X-14587746Y16460282D01*
X-14707776Y16510000D01*
X-14587746Y16559718D01*
X-14362213Y16710414D01*
X-14170414Y16902213D01*
X-14019718Y17127746D01*
X-13915917Y17378344D01*
X-13863000Y17644377D01*
X-13863000Y17709830D01*
X-12261000Y17709830D01*
X-12261000Y17596170D01*
X-12238826Y17484695D01*
X-12195331Y17379688D01*
X-12132185Y17285184D01*
X-12051816Y17204815D01*
X-11957312Y17141669D01*
X-11852305Y17098174D01*
X-11740830Y17076000D01*
X-11627170Y17076000D01*
X-11515695Y17098174D01*
X-11410688Y17141669D01*
X-11316184Y17204815D01*
X-11235815Y17285184D01*
X-11172669Y17379688D01*
X-11129174Y17484695D01*
X-11107000Y17596170D01*
X-11107000Y17709830D01*
X-11129174Y17821305D01*
X-11172669Y17926312D01*
X-11235815Y18020816D01*
X-11316184Y18101185D01*
X-11410688Y18164331D01*
X-11515695Y18207826D01*
X-11627170Y18230000D01*
X-11740830Y18230000D01*
X-11852305Y18207826D01*
X-11957312Y18164331D01*
X-12051816Y18101185D01*
X-12132185Y18020816D01*
X-12195331Y17926312D01*
X-12238826Y17821305D01*
X-12261000Y17709830D01*
X-13863000Y17709830D01*
X-13863000Y17915623D01*
X-13915917Y18181656D01*
X-13960321Y18288857D01*
X-7537000Y18288857D01*
X-7537000Y18180123D01*
X-7515787Y18073478D01*
X-7474176Y17973020D01*
X-7413766Y17882610D01*
X-7336880Y17805724D01*
X-7246470Y17745314D01*
X-7146012Y17703703D01*
X-7039367Y17682490D01*
X-6930633Y17682490D01*
X-6823988Y17703703D01*
X-6723530Y17745314D01*
X-6633120Y17805724D01*
X-6556234Y17882610D01*
X-6495824Y17973020D01*
X-6454213Y18073478D01*
X-6433000Y18180123D01*
X-6433000Y18278867D01*
X-6267000Y18278867D01*
X-6267000Y18170133D01*
X-6245787Y18063488D01*
X-6204176Y17963030D01*
X-6143766Y17872620D01*
X-6066880Y17795734D01*
X-5976470Y17735324D01*
X-5876012Y17693713D01*
X-5769367Y17672500D01*
X-5660633Y17672500D01*
X-5553988Y17693713D01*
X-5453530Y17735324D01*
X-5363120Y17795734D01*
X-5286234Y17872620D01*
X-5225824Y17963030D01*
X-5184213Y18063488D01*
X-5163000Y18170133D01*
X-5163000Y18278867D01*
X-5181247Y18370601D01*
X-5177880Y18367234D01*
X-5087470Y18306824D01*
X-4987012Y18265213D01*
X-4880367Y18244000D01*
X-4771633Y18244000D01*
X-4664988Y18265213D01*
X-4564530Y18306824D01*
X-4474120Y18367234D01*
X-4397234Y18444120D01*
X-4336824Y18534530D01*
X-4295213Y18634988D01*
X-4274000Y18741633D01*
X-4274000Y18850367D01*
X-4295213Y18957012D01*
X-4336824Y19057470D01*
X-4397234Y19147880D01*
X-4474120Y19224766D01*
X-4564530Y19285176D01*
X-4664988Y19326787D01*
X-4771633Y19348000D01*
X-4880367Y19348000D01*
X-4987012Y19326787D01*
X-5087470Y19285176D01*
X-5177880Y19224766D01*
X-5254766Y19147880D01*
X-5315176Y19057470D01*
X-5356787Y18957012D01*
X-5378000Y18850367D01*
X-5378000Y18741633D01*
X-5359753Y18649899D01*
X-5363120Y18653266D01*
X-5453530Y18713676D01*
X-5553988Y18755287D01*
X-5660633Y18776500D01*
X-5769367Y18776500D01*
X-5876012Y18755287D01*
X-5976470Y18713676D01*
X-6066880Y18653266D01*
X-6143766Y18576380D01*
X-6204176Y18485970D01*
X-6245787Y18385512D01*
X-6267000Y18278867D01*
X-6433000Y18278867D01*
X-6433000Y18288857D01*
X-6454213Y18395502D01*
X-6495824Y18495960D01*
X-6556234Y18586370D01*
X-6633120Y18663256D01*
X-6723530Y18723666D01*
X-6823988Y18765277D01*
X-6930633Y18786490D01*
X-7039367Y18786490D01*
X-7146012Y18765277D01*
X-7246470Y18723666D01*
X-7336880Y18663256D01*
X-7413766Y18586370D01*
X-7474176Y18495960D01*
X-7515787Y18395502D01*
X-7537000Y18288857D01*
X-13960321Y18288857D01*
X-14019718Y18432254D01*
X-14170414Y18657787D01*
X-14362213Y18849586D01*
X-14587746Y19000282D01*
X-14707776Y19050000D01*
X-14587746Y19099718D01*
X-14362213Y19250414D01*
X-14170414Y19442213D01*
X-14019718Y19667746D01*
X-13990052Y19739367D01*
X-11601000Y19739367D01*
X-11601000Y19630633D01*
X-11579787Y19523988D01*
X-11538176Y19423530D01*
X-11477766Y19333120D01*
X-11400880Y19256234D01*
X-11310470Y19195824D01*
X-11210012Y19154213D01*
X-11103367Y19133000D01*
X-10994633Y19133000D01*
X-10887988Y19154213D01*
X-10787530Y19195824D01*
X-10711413Y19246684D01*
X-10690787Y19142988D01*
X-10649176Y19042530D01*
X-10588766Y18952120D01*
X-10511880Y18875234D01*
X-10421470Y18814824D01*
X-10321012Y18773213D01*
X-10214367Y18752000D01*
X-10105633Y18752000D01*
X-9998988Y18773213D01*
X-9898530Y18814824D01*
X-9808120Y18875234D01*
X-9731234Y18952120D01*
X-9670824Y19042530D01*
X-9629213Y19142988D01*
X-9614660Y19216151D01*
X-9515867Y19196500D01*
X-9407133Y19196500D01*
X-9300488Y19217713D01*
X-9200030Y19259324D01*
X-9109620Y19319734D01*
X-9032734Y19396620D01*
X-8972324Y19487030D01*
X-8930713Y19587488D01*
X-8909500Y19694133D01*
X-8909500Y19802867D01*
X-8930713Y19909512D01*
X-8972324Y20009970D01*
X-9032734Y20100380D01*
X-9109620Y20177266D01*
X-9200030Y20237676D01*
X-9300488Y20279287D01*
X-9407133Y20300500D01*
X-9515867Y20300500D01*
X-9622512Y20279287D01*
X-9722970Y20237676D01*
X-9813380Y20177266D01*
X-9890266Y20100380D01*
X-9950676Y20009970D01*
X-9992287Y19909512D01*
X-10006840Y19836349D01*
X-10105633Y19856000D01*
X-10214367Y19856000D01*
X-10321012Y19834787D01*
X-10421470Y19793176D01*
X-10497587Y19742316D01*
X-10518213Y19846012D01*
X-10559824Y19946470D01*
X-10620234Y20036880D01*
X-10697120Y20113766D01*
X-10787530Y20174176D01*
X-10887988Y20215787D01*
X-10994633Y20237000D01*
X-11103367Y20237000D01*
X-11210012Y20215787D01*
X-11310470Y20174176D01*
X-11400880Y20113766D01*
X-11477766Y20036880D01*
X-11538176Y19946470D01*
X-11579787Y19846012D01*
X-11601000Y19739367D01*
X-13990052Y19739367D01*
X-13915917Y19918344D01*
X-13863000Y20184377D01*
X-13863000Y20455623D01*
X-13915917Y20721656D01*
X-14019718Y20972254D01*
X-14170414Y21197787D01*
X-14362213Y21389586D01*
X-14587746Y21540282D01*
X-14707776Y21590000D01*
X-14587746Y21639718D01*
X-14503402Y21696075D01*
X-13777000Y21696075D01*
X-13777000Y21483925D01*
X-13735611Y21275851D01*
X-13654425Y21079849D01*
X-13536560Y20903453D01*
X-13386547Y20753440D01*
X-13210151Y20635575D01*
X-13014149Y20554389D01*
X-12806075Y20513000D01*
X-12593925Y20513000D01*
X-12385851Y20554389D01*
X-12189849Y20635575D01*
X-12013453Y20753440D01*
X-11863440Y20903453D01*
X-11745575Y21079849D01*
X-11707942Y21170705D01*
X-5793283Y21170705D01*
X-5793283Y21061971D01*
X-5772070Y20955326D01*
X-5730459Y20854868D01*
X-5670049Y20764458D01*
X-5593163Y20687572D01*
X-5502753Y20627162D01*
X-5402295Y20585551D01*
X-5295650Y20564338D01*
X-5186916Y20564338D01*
X-5080271Y20585551D01*
X-4979813Y20627162D01*
X-4889403Y20687572D01*
X-4812517Y20764458D01*
X-4752107Y20854868D01*
X-4710496Y20955326D01*
X-4689283Y21061971D01*
X-4689283Y21170705D01*
X-4710496Y21277350D01*
X-4752107Y21377808D01*
X-4812517Y21468218D01*
X-4889403Y21545104D01*
X-4979813Y21605514D01*
X-5080271Y21647125D01*
X-5186916Y21668338D01*
X-5295650Y21668338D01*
X-5402295Y21647125D01*
X-5502753Y21605514D01*
X-5593163Y21545104D01*
X-5670049Y21468218D01*
X-5730459Y21377808D01*
X-5772070Y21277350D01*
X-5793283Y21170705D01*
X-11707942Y21170705D01*
X-11664389Y21275851D01*
X-11623000Y21483925D01*
X-11623000Y21696075D01*
X-11664389Y21904149D01*
X-11745575Y22100151D01*
X-11780464Y22152367D01*
X-11601000Y22152367D01*
X-11601000Y22043633D01*
X-11579787Y21936988D01*
X-11538176Y21836530D01*
X-11477766Y21746120D01*
X-11400880Y21669234D01*
X-11310470Y21608824D01*
X-11210012Y21567213D01*
X-11103367Y21546000D01*
X-10994633Y21546000D01*
X-10887988Y21567213D01*
X-10787530Y21608824D01*
X-10697120Y21669234D01*
X-10620234Y21746120D01*
X-10559824Y21836530D01*
X-10518213Y21936988D01*
X-10497000Y22043633D01*
X-10497000Y22152367D01*
X-10518213Y22259012D01*
X-10559824Y22359470D01*
X-10620234Y22449880D01*
X-10697120Y22526766D01*
X-10787530Y22587176D01*
X-10887988Y22628787D01*
X-10994633Y22650000D01*
X-11103367Y22650000D01*
X-11210012Y22628787D01*
X-11310470Y22587176D01*
X-11400880Y22526766D01*
X-11477766Y22449880D01*
X-11538176Y22359470D01*
X-11579787Y22259012D01*
X-11601000Y22152367D01*
X-11780464Y22152367D01*
X-11863440Y22276547D01*
X-12013453Y22426560D01*
X-12189849Y22544425D01*
X-12385851Y22625611D01*
X-12593925Y22667000D01*
X-12806075Y22667000D01*
X-13014149Y22625611D01*
X-13210151Y22544425D01*
X-13386547Y22426560D01*
X-13536560Y22276547D01*
X-13654425Y22100151D01*
X-13735611Y21904149D01*
X-13777000Y21696075D01*
X-14503402Y21696075D01*
X-14362213Y21790414D01*
X-14170414Y21982213D01*
X-14019718Y22207746D01*
X-13915917Y22458344D01*
X-13863000Y22724377D01*
X-13863000Y22914367D01*
X-4362000Y22914367D01*
X-4362000Y22805633D01*
X-4340787Y22698988D01*
X-4299176Y22598530D01*
X-4238766Y22508120D01*
X-4161880Y22431234D01*
X-4071470Y22370824D01*
X-3971012Y22329213D01*
X-3864367Y22308000D01*
X-3755633Y22308000D01*
X-3648988Y22329213D01*
X-3548530Y22370824D01*
X-3458120Y22431234D01*
X-3381234Y22508120D01*
X-3320824Y22598530D01*
X-3279213Y22698988D01*
X-3258000Y22805633D01*
X-3258000Y22914367D01*
X-3279213Y23021012D01*
X-3320824Y23121470D01*
X-3381234Y23211880D01*
X-3458120Y23288766D01*
X-3548530Y23349176D01*
X-3648988Y23390787D01*
X-3755633Y23412000D01*
X-3864367Y23412000D01*
X-3971012Y23390787D01*
X-4071470Y23349176D01*
X-4161880Y23288766D01*
X-4238766Y23211880D01*
X-4299176Y23121470D01*
X-4340787Y23021012D01*
X-4362000Y22914367D01*
X-13863000Y22914367D01*
X-13863000Y22995623D01*
X-13915917Y23261656D01*
X-14019718Y23512254D01*
X-14069669Y23587011D01*
X-14024367Y23578000D01*
X-13915633Y23578000D01*
X-13808988Y23599213D01*
X-13708530Y23640824D01*
X-13655337Y23676367D01*
X-9950000Y23676367D01*
X-9950000Y23567633D01*
X-9928787Y23460988D01*
X-9887176Y23360530D01*
X-9826766Y23270120D01*
X-9749880Y23193234D01*
X-9659470Y23132824D01*
X-9559012Y23091213D01*
X-9452367Y23070000D01*
X-9343633Y23070000D01*
X-9236988Y23091213D01*
X-9136530Y23132824D01*
X-9046120Y23193234D01*
X-8969234Y23270120D01*
X-8908824Y23360530D01*
X-8867213Y23460988D01*
X-8846000Y23567633D01*
X-8846000Y23676367D01*
X-8867213Y23783012D01*
X-8908824Y23883470D01*
X-8969234Y23973880D01*
X-9046120Y24050766D01*
X-9136530Y24111176D01*
X-9236988Y24152787D01*
X-9343633Y24174000D01*
X-9452367Y24174000D01*
X-9559012Y24152787D01*
X-9659470Y24111176D01*
X-9749880Y24050766D01*
X-9826766Y23973880D01*
X-9887176Y23883470D01*
X-9928787Y23783012D01*
X-9950000Y23676367D01*
X-13655337Y23676367D01*
X-13618120Y23701234D01*
X-13541234Y23778120D01*
X-13480824Y23868530D01*
X-13439213Y23968988D01*
X-13418000Y24075633D01*
X-13418000Y24184367D01*
X-13439213Y24291012D01*
X-13480824Y24391470D01*
X-13541234Y24481880D01*
X-13618120Y24558766D01*
X-13708530Y24619176D01*
X-13808988Y24660787D01*
X-13915633Y24682000D01*
X-14024367Y24682000D01*
X-14069669Y24672989D01*
X-14019718Y24747746D01*
X-13915917Y24998344D01*
X-13875733Y25200367D01*
X-9442000Y25200367D01*
X-9442000Y25091633D01*
X-9420787Y24984988D01*
X-9379176Y24884530D01*
X-9318766Y24794120D01*
X-9241880Y24717234D01*
X-9151470Y24656824D01*
X-9051012Y24615213D01*
X-8944367Y24594000D01*
X-8835633Y24594000D01*
X-8728988Y24615213D01*
X-8628530Y24656824D01*
X-8538120Y24717234D01*
X-8461234Y24794120D01*
X-8400824Y24884530D01*
X-8359213Y24984988D01*
X-8338000Y25091633D01*
X-8338000Y25200367D01*
X-8299000Y25200367D01*
X-8299000Y25091633D01*
X-8277787Y24984988D01*
X-8236176Y24884530D01*
X-8175766Y24794120D01*
X-8098880Y24717234D01*
X-8008470Y24656824D01*
X-7908012Y24615213D01*
X-7801367Y24594000D01*
X-7692633Y24594000D01*
X-7585988Y24615213D01*
X-7485530Y24656824D01*
X-7395120Y24717234D01*
X-7318234Y24794120D01*
X-7257824Y24884530D01*
X-7216213Y24984988D01*
X-7195000Y25091633D01*
X-7195000Y25200367D01*
X-7216213Y25307012D01*
X-7257824Y25407470D01*
X-7318234Y25497880D01*
X-7395120Y25574766D01*
X-7485530Y25635176D01*
X-7585988Y25676787D01*
X-7692633Y25698000D01*
X-7801367Y25698000D01*
X-7908012Y25676787D01*
X-8008470Y25635176D01*
X-8098880Y25574766D01*
X-8175766Y25497880D01*
X-8236176Y25407470D01*
X-8277787Y25307012D01*
X-8299000Y25200367D01*
X-8338000Y25200367D01*
X-8359213Y25307012D01*
X-8400824Y25407470D01*
X-8461234Y25497880D01*
X-8538120Y25574766D01*
X-8628530Y25635176D01*
X-8728988Y25676787D01*
X-8835633Y25698000D01*
X-8944367Y25698000D01*
X-9051012Y25676787D01*
X-9151470Y25635176D01*
X-9241880Y25574766D01*
X-9318766Y25497880D01*
X-9379176Y25407470D01*
X-9420787Y25307012D01*
X-9442000Y25200367D01*
X-13875733Y25200367D01*
X-13863000Y25264377D01*
X-13863000Y25535623D01*
X-13915917Y25801656D01*
X-14019718Y26052254D01*
X-14069669Y26127011D01*
X-14024367Y26118000D01*
X-13915633Y26118000D01*
X-13808988Y26139213D01*
X-13708530Y26180824D01*
X-13618120Y26241234D01*
X-13541234Y26318120D01*
X-13480824Y26408530D01*
X-13439213Y26508988D01*
X-13418000Y26615633D01*
X-13418000Y26724367D01*
X-13439213Y26831012D01*
X-13480824Y26931470D01*
X-13541234Y27021880D01*
X-13618120Y27098766D01*
X-13708530Y27159176D01*
X-13808988Y27200787D01*
X-13915633Y27222000D01*
X-14024367Y27222000D01*
X-14069669Y27212989D01*
X-14019718Y27287746D01*
X-13986992Y27366754D01*
X-8247000Y27366754D01*
X-8247000Y27243246D01*
X-8222905Y27122111D01*
X-8175640Y27008004D01*
X-8107023Y26905311D01*
X-8019689Y26817977D01*
X-7916996Y26749360D01*
X-7802889Y26702095D01*
X-7681754Y26678000D01*
X-7558246Y26678000D01*
X-7437111Y26702095D01*
X-7323004Y26749360D01*
X-7220311Y26817977D01*
X-7132977Y26905311D01*
X-7064360Y27008004D01*
X-7017095Y27122111D01*
X-6993000Y27243246D01*
X-6993000Y27366754D01*
X-7017095Y27487889D01*
X-7064360Y27601996D01*
X-7132977Y27704689D01*
X-7220311Y27792023D01*
X-7323004Y27860640D01*
X-7437111Y27907905D01*
X-7558246Y27932000D01*
X-7681754Y27932000D01*
X-7802889Y27907905D01*
X-7916996Y27860640D01*
X-8019689Y27792023D01*
X-8107023Y27704689D01*
X-8175640Y27601996D01*
X-8222905Y27487889D01*
X-8247000Y27366754D01*
X-13986992Y27366754D01*
X-13915917Y27538344D01*
X-13863000Y27804377D01*
X-13863000Y28075623D01*
X-13915917Y28341656D01*
X-14019718Y28592254D01*
X-14170414Y28817787D01*
X-14185627Y28833000D01*
X-1054373Y28833000D01*
X-1069586Y28817787D01*
G37*
%TD.AperFunction*%
%TD*%
M02*
