%TF.GenerationSoftware,KiCad,Pcbnew,5.1.9+dfsg1-1~bpo10+1*%
%TF.CreationDate,Date%
%TF.ProjectId,POS,504f532e-6b69-4636-9164-5f7063625858,v3.3*%
%TF.SameCoordinates,Original*%
%TF.FileFunction,Copper,L2,Inr*%
%TF.FilePolarity,Positive*%
%FSLAX46Y46*%
G04 Gerber Fmt 4.6, Leading zero omitted, Abs format (unit mm)*
G04 Created by KiCad*
%MOMM*%
%LPD*%
G01*
G04 APERTURE LIST*
%TA.AperFunction,ComponentPad*%
%ADD10R,2.100000X2.100000*%
%TD*%
%TA.AperFunction,ComponentPad*%
%ADD11C,2.100000*%
%TD*%
%TA.AperFunction,ComponentPad*%
%ADD12C,0.600000*%
%TD*%
%TA.AperFunction,ComponentPad*%
%ADD13C,1.500000*%
%TD*%
%TA.AperFunction,ViaPad*%
%ADD14C,0.500000*%
%TD*%
%TA.AperFunction,ViaPad*%
%ADD15C,0.450000*%
%TD*%
%TA.AperFunction,Conductor*%
%ADD16C,0.254000*%
%TD*%
%TA.AperFunction,Conductor*%
%ADD17C,0.100000*%
%TD*%
G04 APERTURE END LIST*
D10*
%TO.N,RXD*%
%TO.C,A1*%
X0Y0D03*
D11*
%TO.N,TXD*%
X0Y2540000D03*
%TO.N,GND*%
X0Y5080000D03*
%TO.N,Net-(A1-Pad13)*%
X-15240000Y27940000D03*
%TO.N,GND*%
X0Y7620000D03*
%TO.N,Net-(A1-Pad14)*%
X-15240000Y25400000D03*
%TO.N,SDA*%
X0Y10160000D03*
%TO.N,Net-(A1-Pad15)*%
X-15240000Y22860000D03*
%TO.N,SCL*%
X0Y12700000D03*
%TO.N,Net-(A1-Pad16)*%
X-15240000Y20320000D03*
%TO.N,Net-(A1-Pad7)*%
X0Y15240000D03*
%TO.N,Net-(A1-Pad17)*%
X-15240000Y17780000D03*
%TO.N,PWM*%
X0Y17780000D03*
%TO.N,Net-(A1-Pad18)*%
X-15240000Y15240000D03*
%TO.N,Net-(A1-Pad9)*%
X0Y20320000D03*
%TO.N,Net-(A1-Pad19)*%
X-15240000Y12700000D03*
%TO.N,INT*%
X0Y22860000D03*
%TO.N,Net-(A1-Pad20)*%
X-15240000Y10160000D03*
%TO.N,Net-(A1-Pad11)*%
X0Y25400000D03*
%TO.N,+3V3*%
X-15240000Y7620000D03*
%TO.N,Net-(A1-Pad12)*%
X0Y27940000D03*
%TO.N,~RST*%
X-15240000Y5080000D03*
%TO.N,GND*%
X-15240000Y2540000D03*
%TO.N,+5V*%
X-15240000Y0D03*
%TD*%
D12*
%TO.N,*%
%TO.C,H2*%
X-7620000Y27305000D03*
%TD*%
D13*
%TO.N,Net-(TP4-Pad1)*%
%TO.C,TP4*%
X-12700000Y21590000D03*
%TD*%
D14*
%TO.N,GND*%
X-8382000Y2921000D03*
X-6858000Y2921000D03*
X-6350000Y2032000D03*
X-8890000Y2032000D03*
X-4318000Y10414000D03*
X-8255000Y6350000D03*
X-10033000Y6096000D03*
X-12192000Y4064000D03*
X-8128000Y11176000D03*
X-6985000Y10160000D03*
X-1143000Y16510000D03*
X-5461000Y11557000D03*
X-6604000Y12700000D03*
X-5715000Y8890000D03*
X-9525000Y7620000D03*
X-7620000Y6985000D03*
X-6985000Y7620000D03*
X-6350000Y8255000D03*
X-7620000Y9525000D03*
X-8255000Y8890000D03*
X-8890000Y8255000D03*
X-5715000Y6350000D03*
X-5080000Y6985000D03*
X-4445000Y12573000D03*
X-3429000Y2159000D03*
X-11811000Y2159000D03*
X-4318000Y15367000D03*
X-7747000Y13843000D03*
X-12192000Y5969000D03*
X-3429000Y6096000D03*
D15*
X-9461500Y19748500D03*
X-10287000Y15240000D03*
X-10287000Y10795000D03*
X-8890000Y16383000D03*
X-6604000Y14859000D03*
X-5715000Y13970000D03*
X-5461000Y16383000D03*
X-4826000Y18796000D03*
X-8890000Y25146000D03*
X-7747000Y25146000D03*
X-3810000Y22860000D03*
X-11049000Y19685000D03*
X-13970000Y24130000D03*
X-13970000Y26670000D03*
X-1270000Y26670000D03*
X-1270000Y19050000D03*
X-11049000Y22098000D03*
D14*
X-11684000Y17653000D03*
%TO.N,+3V3*%
X-11051006Y8130000D03*
D15*
X-6858000Y24384000D03*
X-8890000Y17780000D03*
X-4445000Y20955000D03*
X-10541000Y22860000D03*
%TO.N,Net-(TP1-Pad1)*%
X-10160000Y19304000D03*
%TO.N,Net-(TP2-Pad1)*%
X-5241283Y21116338D03*
%TO.N,Net-(TP3-Pad1)*%
X-9398000Y23622000D03*
D14*
%TO.N,Net-(JP2-Pad1)*%
X-9715500Y13271500D03*
X-3810000Y4318000D03*
%TO.N,Net-(JP3-Pad1)*%
X-1270000Y6350000D03*
X-9779000Y14224000D03*
%TO.N,SDA*%
X-2870000Y13630000D03*
D15*
X-5715000Y18224500D03*
%TO.N,SCL*%
X-6985000Y18234490D03*
D14*
X-2870000Y14730000D03*
%TD*%
D16*
%TO.N,GND*%
X-1069586Y28817787D02*
X-1220282Y28592254D01*
X-1324083Y28341656D01*
X-1377000Y28075623D01*
X-1377000Y27804377D01*
X-1324083Y27538344D01*
X-1220282Y27287746D01*
X-1069586Y27062213D01*
X-877787Y26870414D01*
X-652254Y26719718D01*
X-532224Y26670000D01*
X-652254Y26620282D01*
X-877787Y26469586D01*
X-1069586Y26277787D01*
X-1220282Y26052254D01*
X-1324083Y25801656D01*
X-1377000Y25535623D01*
X-1377000Y25264377D01*
X-1324083Y24998344D01*
X-1220282Y24747746D01*
X-1069586Y24522213D01*
X-877787Y24330414D01*
X-652254Y24179718D01*
X-532224Y24130000D01*
X-652254Y24080282D01*
X-877787Y23929586D01*
X-1069586Y23737787D01*
X-1220282Y23512254D01*
X-1324083Y23261656D01*
X-1377000Y22995623D01*
X-1377000Y22724377D01*
X-1324083Y22458344D01*
X-1220282Y22207746D01*
X-1069586Y21982213D01*
X-877787Y21790414D01*
X-652254Y21639718D01*
X-532224Y21590000D01*
X-652254Y21540282D01*
X-877787Y21389586D01*
X-1069586Y21197787D01*
X-1220282Y20972254D01*
X-1324083Y20721656D01*
X-1377000Y20455623D01*
X-1377000Y20184377D01*
X-1324083Y19918344D01*
X-1220282Y19667746D01*
X-1069586Y19442213D01*
X-877787Y19250414D01*
X-652254Y19099718D01*
X-532224Y19050000D01*
X-652254Y19000282D01*
X-877787Y18849586D01*
X-1069586Y18657787D01*
X-1220282Y18432254D01*
X-1324083Y18181656D01*
X-1377000Y17915623D01*
X-1377000Y17644377D01*
X-1324083Y17378344D01*
X-1220282Y17127746D01*
X-1069586Y16902213D01*
X-877787Y16710414D01*
X-652254Y16559718D01*
X-532224Y16510000D01*
X-652254Y16460282D01*
X-877787Y16309586D01*
X-1069586Y16117787D01*
X-1220282Y15892254D01*
X-1324083Y15641656D01*
X-1377000Y15375623D01*
X-1377000Y15104377D01*
X-1324083Y14838344D01*
X-1220282Y14587746D01*
X-1069586Y14362213D01*
X-877787Y14170414D01*
X-652254Y14019718D01*
X-532224Y13970000D01*
X-652254Y13920282D01*
X-877787Y13769586D01*
X-1069586Y13577787D01*
X-1220282Y13352254D01*
X-1324083Y13101656D01*
X-1377000Y12835623D01*
X-1377000Y12564377D01*
X-1324083Y12298344D01*
X-1220282Y12047746D01*
X-1069586Y11822213D01*
X-877787Y11630414D01*
X-652254Y11479718D01*
X-532224Y11430000D01*
X-652254Y11380282D01*
X-877787Y11229586D01*
X-1069586Y11037787D01*
X-1220282Y10812254D01*
X-1324083Y10561656D01*
X-1377000Y10295623D01*
X-1377000Y10024377D01*
X-1324083Y9758344D01*
X-1220282Y9507746D01*
X-1069586Y9282213D01*
X-877787Y9090414D01*
X-858257Y9077365D01*
X-889661Y9060579D01*
X-991461Y8791066D01*
X0Y7799605D01*
X14143Y7813747D01*
X193748Y7634142D01*
X179605Y7620000D01*
X193748Y7605857D01*
X14143Y7426252D01*
X0Y7440395D01*
X-14142Y7426252D01*
X-193747Y7605857D01*
X-179605Y7620000D01*
X-1171066Y8611461D01*
X-1440579Y8509661D01*
X-1586463Y8211523D01*
X-1671380Y7890654D01*
X-1692066Y7559383D01*
X-1647728Y7230443D01*
X-1540069Y6916473D01*
X-1516526Y6872426D01*
X-1543312Y6861331D01*
X-1637816Y6798185D01*
X-1718185Y6717816D01*
X-1781331Y6623312D01*
X-1824826Y6518305D01*
X-1847000Y6406830D01*
X-1847000Y6293170D01*
X-1824826Y6181695D01*
X-1781331Y6076688D01*
X-1718185Y5982184D01*
X-1637816Y5901815D01*
X-1543312Y5838669D01*
X-1511187Y5825362D01*
X-1586463Y5671523D01*
X-1671380Y5350654D01*
X-1692066Y5019383D01*
X-1647728Y4690443D01*
X-1540069Y4376473D01*
X-1440579Y4190339D01*
X-1171066Y4088539D01*
X-179605Y5080000D01*
X-193747Y5094142D01*
X-14142Y5273747D01*
X0Y5259605D01*
X14143Y5273747D01*
X193748Y5094142D01*
X179605Y5080000D01*
X193748Y5065857D01*
X14143Y4886252D01*
X0Y4900395D01*
X-991461Y3908934D01*
X-889661Y3639421D01*
X-857031Y3623455D01*
X-877787Y3609586D01*
X-1069586Y3417787D01*
X-1220282Y3192254D01*
X-1324083Y2941656D01*
X-1377000Y2675623D01*
X-1377000Y2404377D01*
X-1324083Y2138344D01*
X-1220282Y1887746D01*
X-1069586Y1662213D01*
X-877787Y1470414D01*
X-740350Y1378582D01*
X-1050000Y1378582D01*
X-1114103Y1372268D01*
X-1175743Y1353570D01*
X-1232550Y1323206D01*
X-1282343Y1282343D01*
X-1323206Y1232550D01*
X-1353570Y1175743D01*
X-1372268Y1114103D01*
X-1378582Y1050000D01*
X-1378582Y-893000D01*
X-14185627Y-893000D01*
X-14170414Y-877787D01*
X-14019718Y-652254D01*
X-13915917Y-401656D01*
X-13863000Y-135623D01*
X-13863000Y135623D01*
X-13915917Y401656D01*
X-14019718Y652254D01*
X-14170414Y877787D01*
X-14362213Y1069586D01*
X-14381743Y1082635D01*
X-14350339Y1099421D01*
X-14248539Y1368934D01*
X-15240000Y2360395D01*
X-15254142Y2346252D01*
X-15433747Y2525857D01*
X-15419605Y2540000D01*
X-15060395Y2540000D01*
X-14068934Y1548539D01*
X-13799421Y1650339D01*
X-13653537Y1948477D01*
X-13568620Y2269346D01*
X-13547934Y2600617D01*
X-13592272Y2929557D01*
X-13699931Y3243527D01*
X-13799421Y3429661D01*
X-14068934Y3531461D01*
X-15060395Y2540000D01*
X-15419605Y2540000D01*
X-15433747Y2554142D01*
X-15254142Y2733747D01*
X-15240000Y2719605D01*
X-14248539Y3711066D01*
X-14350339Y3980579D01*
X-14382969Y3996545D01*
X-14362213Y4010414D01*
X-14170414Y4202213D01*
X-14055076Y4374830D01*
X-4387000Y4374830D01*
X-4387000Y4261170D01*
X-4364826Y4149695D01*
X-4321331Y4044688D01*
X-4258185Y3950184D01*
X-4177816Y3869815D01*
X-4083312Y3806669D01*
X-3978305Y3763174D01*
X-3866830Y3741000D01*
X-3753170Y3741000D01*
X-3641695Y3763174D01*
X-3536688Y3806669D01*
X-3442184Y3869815D01*
X-3361815Y3950184D01*
X-3298669Y4044688D01*
X-3255174Y4149695D01*
X-3233000Y4261170D01*
X-3233000Y4374830D01*
X-3255174Y4486305D01*
X-3298669Y4591312D01*
X-3361815Y4685816D01*
X-3442184Y4766185D01*
X-3536688Y4829331D01*
X-3641695Y4872826D01*
X-3753170Y4895000D01*
X-3866830Y4895000D01*
X-3978305Y4872826D01*
X-4083312Y4829331D01*
X-4177816Y4766185D01*
X-4258185Y4685816D01*
X-4321331Y4591312D01*
X-4364826Y4486305D01*
X-4387000Y4374830D01*
X-14055076Y4374830D01*
X-14019718Y4427746D01*
X-13915917Y4678344D01*
X-13863000Y4944377D01*
X-13863000Y5215623D01*
X-13915917Y5481656D01*
X-14019718Y5732254D01*
X-14170414Y5957787D01*
X-14362213Y6149586D01*
X-14587746Y6300282D01*
X-14707776Y6350000D01*
X-14587746Y6399718D01*
X-14362213Y6550414D01*
X-14170414Y6742213D01*
X-14019718Y6967746D01*
X-13915917Y7218344D01*
X-13863000Y7484377D01*
X-13863000Y7755623D01*
X-13915917Y8021656D01*
X-13984334Y8186830D01*
X-11628006Y8186830D01*
X-11628006Y8073170D01*
X-11605832Y7961695D01*
X-11562337Y7856688D01*
X-11499191Y7762184D01*
X-11418822Y7681815D01*
X-11324318Y7618669D01*
X-11219311Y7575174D01*
X-11107836Y7553000D01*
X-10994176Y7553000D01*
X-10882701Y7575174D01*
X-10777694Y7618669D01*
X-10683190Y7681815D01*
X-10602821Y7762184D01*
X-10539675Y7856688D01*
X-10496180Y7961695D01*
X-10474006Y8073170D01*
X-10474006Y8186830D01*
X-10496180Y8298305D01*
X-10539675Y8403312D01*
X-10602821Y8497816D01*
X-10683190Y8578185D01*
X-10777694Y8641331D01*
X-10882701Y8684826D01*
X-10994176Y8707000D01*
X-11107836Y8707000D01*
X-11219311Y8684826D01*
X-11324318Y8641331D01*
X-11418822Y8578185D01*
X-11499191Y8497816D01*
X-11562337Y8403312D01*
X-11605832Y8298305D01*
X-11628006Y8186830D01*
X-13984334Y8186830D01*
X-14019718Y8272254D01*
X-14170414Y8497787D01*
X-14362213Y8689586D01*
X-14587746Y8840282D01*
X-14707776Y8890000D01*
X-14587746Y8939718D01*
X-14362213Y9090414D01*
X-14170414Y9282213D01*
X-14019718Y9507746D01*
X-13915917Y9758344D01*
X-13863000Y10024377D01*
X-13863000Y10295623D01*
X-13915917Y10561656D01*
X-14019718Y10812254D01*
X-14170414Y11037787D01*
X-14362213Y11229586D01*
X-14587746Y11380282D01*
X-14707776Y11430000D01*
X-14587746Y11479718D01*
X-14362213Y11630414D01*
X-14170414Y11822213D01*
X-14019718Y12047746D01*
X-13915917Y12298344D01*
X-13863000Y12564377D01*
X-13863000Y12835623D01*
X-13915917Y13101656D01*
X-14019718Y13352254D01*
X-14170414Y13577787D01*
X-14362213Y13769586D01*
X-14587746Y13920282D01*
X-14707776Y13970000D01*
X-14587746Y14019718D01*
X-14362213Y14170414D01*
X-14251797Y14280830D01*
X-10356000Y14280830D01*
X-10356000Y14167170D01*
X-10333826Y14055695D01*
X-10290331Y13950688D01*
X-10227185Y13856184D01*
X-10146816Y13775815D01*
X-10073064Y13726535D01*
X-10083316Y13719685D01*
X-10163685Y13639316D01*
X-10226831Y13544812D01*
X-10270326Y13439805D01*
X-10292500Y13328330D01*
X-10292500Y13214670D01*
X-10270326Y13103195D01*
X-10226831Y12998188D01*
X-10163685Y12903684D01*
X-10083316Y12823315D01*
X-9988812Y12760169D01*
X-9883805Y12716674D01*
X-9772330Y12694500D01*
X-9658670Y12694500D01*
X-9547195Y12716674D01*
X-9442188Y12760169D01*
X-9347684Y12823315D01*
X-9267315Y12903684D01*
X-9204169Y12998188D01*
X-9160674Y13103195D01*
X-9138500Y13214670D01*
X-9138500Y13328330D01*
X-9160674Y13439805D01*
X-9204169Y13544812D01*
X-9267315Y13639316D01*
X-9347684Y13719685D01*
X-9421436Y13768965D01*
X-9411184Y13775815D01*
X-9330815Y13856184D01*
X-9267669Y13950688D01*
X-9224174Y14055695D01*
X-9202000Y14167170D01*
X-9202000Y14280830D01*
X-9224174Y14392305D01*
X-9267669Y14497312D01*
X-9330815Y14591816D01*
X-9411184Y14672185D01*
X-9505688Y14735331D01*
X-9610695Y14778826D01*
X-9650933Y14786830D01*
X-3447000Y14786830D01*
X-3447000Y14673170D01*
X-3424826Y14561695D01*
X-3381331Y14456688D01*
X-3318185Y14362184D01*
X-3237816Y14281815D01*
X-3143312Y14218669D01*
X-3049956Y14180000D01*
X-3143312Y14141331D01*
X-3237816Y14078185D01*
X-3318185Y13997816D01*
X-3381331Y13903312D01*
X-3424826Y13798305D01*
X-3447000Y13686830D01*
X-3447000Y13573170D01*
X-3424826Y13461695D01*
X-3381331Y13356688D01*
X-3318185Y13262184D01*
X-3237816Y13181815D01*
X-3143312Y13118669D01*
X-3038305Y13075174D01*
X-2926830Y13053000D01*
X-2813170Y13053000D01*
X-2701695Y13075174D01*
X-2596688Y13118669D01*
X-2502184Y13181815D01*
X-2421815Y13262184D01*
X-2358669Y13356688D01*
X-2315174Y13461695D01*
X-2293000Y13573170D01*
X-2293000Y13686830D01*
X-2315174Y13798305D01*
X-2358669Y13903312D01*
X-2421815Y13997816D01*
X-2502184Y14078185D01*
X-2596688Y14141331D01*
X-2690044Y14180000D01*
X-2596688Y14218669D01*
X-2502184Y14281815D01*
X-2421815Y14362184D01*
X-2358669Y14456688D01*
X-2315174Y14561695D01*
X-2293000Y14673170D01*
X-2293000Y14786830D01*
X-2315174Y14898305D01*
X-2358669Y15003312D01*
X-2421815Y15097816D01*
X-2502184Y15178185D01*
X-2596688Y15241331D01*
X-2701695Y15284826D01*
X-2813170Y15307000D01*
X-2926830Y15307000D01*
X-3038305Y15284826D01*
X-3143312Y15241331D01*
X-3237816Y15178185D01*
X-3318185Y15097816D01*
X-3381331Y15003312D01*
X-3424826Y14898305D01*
X-3447000Y14786830D01*
X-9650933Y14786830D01*
X-9722170Y14801000D01*
X-9835830Y14801000D01*
X-9947305Y14778826D01*
X-10052312Y14735331D01*
X-10146816Y14672185D01*
X-10227185Y14591816D01*
X-10290331Y14497312D01*
X-10333826Y14392305D01*
X-10356000Y14280830D01*
X-14251797Y14280830D01*
X-14170414Y14362213D01*
X-14019718Y14587746D01*
X-13915917Y14838344D01*
X-13863000Y15104377D01*
X-13863000Y15375623D01*
X-13915917Y15641656D01*
X-14019718Y15892254D01*
X-14170414Y16117787D01*
X-14362213Y16309586D01*
X-14587746Y16460282D01*
X-14707776Y16510000D01*
X-14587746Y16559718D01*
X-14362213Y16710414D01*
X-14170414Y16902213D01*
X-14019718Y17127746D01*
X-13915917Y17378344D01*
X-13863000Y17644377D01*
X-13863000Y17834367D01*
X-9442000Y17834367D01*
X-9442000Y17725633D01*
X-9420787Y17618988D01*
X-9379176Y17518530D01*
X-9318766Y17428120D01*
X-9241880Y17351234D01*
X-9151470Y17290824D01*
X-9051012Y17249213D01*
X-8944367Y17228000D01*
X-8835633Y17228000D01*
X-8728988Y17249213D01*
X-8628530Y17290824D01*
X-8538120Y17351234D01*
X-8461234Y17428120D01*
X-8400824Y17518530D01*
X-8359213Y17618988D01*
X-8338000Y17725633D01*
X-8338000Y17834367D01*
X-8359213Y17941012D01*
X-8400824Y18041470D01*
X-8461234Y18131880D01*
X-8538120Y18208766D01*
X-8628530Y18269176D01*
X-8676044Y18288857D01*
X-7537000Y18288857D01*
X-7537000Y18180123D01*
X-7515787Y18073478D01*
X-7474176Y17973020D01*
X-7413766Y17882610D01*
X-7336880Y17805724D01*
X-7246470Y17745314D01*
X-7146012Y17703703D01*
X-7039367Y17682490D01*
X-6930633Y17682490D01*
X-6823988Y17703703D01*
X-6723530Y17745314D01*
X-6633120Y17805724D01*
X-6556234Y17882610D01*
X-6495824Y17973020D01*
X-6454213Y18073478D01*
X-6433000Y18180123D01*
X-6433000Y18278867D01*
X-6267000Y18278867D01*
X-6267000Y18170133D01*
X-6245787Y18063488D01*
X-6204176Y17963030D01*
X-6143766Y17872620D01*
X-6066880Y17795734D01*
X-5976470Y17735324D01*
X-5876012Y17693713D01*
X-5769367Y17672500D01*
X-5660633Y17672500D01*
X-5553988Y17693713D01*
X-5453530Y17735324D01*
X-5363120Y17795734D01*
X-5286234Y17872620D01*
X-5225824Y17963030D01*
X-5184213Y18063488D01*
X-5163000Y18170133D01*
X-5163000Y18278867D01*
X-5184213Y18385512D01*
X-5225824Y18485970D01*
X-5286234Y18576380D01*
X-5363120Y18653266D01*
X-5453530Y18713676D01*
X-5553988Y18755287D01*
X-5660633Y18776500D01*
X-5769367Y18776500D01*
X-5876012Y18755287D01*
X-5976470Y18713676D01*
X-6066880Y18653266D01*
X-6143766Y18576380D01*
X-6204176Y18485970D01*
X-6245787Y18385512D01*
X-6267000Y18278867D01*
X-6433000Y18278867D01*
X-6433000Y18288857D01*
X-6454213Y18395502D01*
X-6495824Y18495960D01*
X-6556234Y18586370D01*
X-6633120Y18663256D01*
X-6723530Y18723666D01*
X-6823988Y18765277D01*
X-6930633Y18786490D01*
X-7039367Y18786490D01*
X-7146012Y18765277D01*
X-7246470Y18723666D01*
X-7336880Y18663256D01*
X-7413766Y18586370D01*
X-7474176Y18495960D01*
X-7515787Y18395502D01*
X-7537000Y18288857D01*
X-8676044Y18288857D01*
X-8728988Y18310787D01*
X-8835633Y18332000D01*
X-8944367Y18332000D01*
X-9051012Y18310787D01*
X-9151470Y18269176D01*
X-9241880Y18208766D01*
X-9318766Y18131880D01*
X-9379176Y18041470D01*
X-9420787Y17941012D01*
X-9442000Y17834367D01*
X-13863000Y17834367D01*
X-13863000Y17915623D01*
X-13915917Y18181656D01*
X-14019718Y18432254D01*
X-14170414Y18657787D01*
X-14362213Y18849586D01*
X-14587746Y19000282D01*
X-14707776Y19050000D01*
X-14587746Y19099718D01*
X-14362213Y19250414D01*
X-14254260Y19358367D01*
X-10712000Y19358367D01*
X-10712000Y19249633D01*
X-10690787Y19142988D01*
X-10649176Y19042530D01*
X-10588766Y18952120D01*
X-10511880Y18875234D01*
X-10421470Y18814824D01*
X-10321012Y18773213D01*
X-10214367Y18752000D01*
X-10105633Y18752000D01*
X-9998988Y18773213D01*
X-9898530Y18814824D01*
X-9808120Y18875234D01*
X-9731234Y18952120D01*
X-9670824Y19042530D01*
X-9629213Y19142988D01*
X-9608000Y19249633D01*
X-9608000Y19358367D01*
X-9629213Y19465012D01*
X-9670824Y19565470D01*
X-9731234Y19655880D01*
X-9808120Y19732766D01*
X-9898530Y19793176D01*
X-9998988Y19834787D01*
X-10105633Y19856000D01*
X-10214367Y19856000D01*
X-10321012Y19834787D01*
X-10421470Y19793176D01*
X-10511880Y19732766D01*
X-10588766Y19655880D01*
X-10649176Y19565470D01*
X-10690787Y19465012D01*
X-10712000Y19358367D01*
X-14254260Y19358367D01*
X-14170414Y19442213D01*
X-14019718Y19667746D01*
X-13915917Y19918344D01*
X-13863000Y20184377D01*
X-13863000Y20455623D01*
X-13915917Y20721656D01*
X-14019718Y20972254D01*
X-14170414Y21197787D01*
X-14362213Y21389586D01*
X-14587746Y21540282D01*
X-14707776Y21590000D01*
X-14587746Y21639718D01*
X-14503402Y21696075D01*
X-13777000Y21696075D01*
X-13777000Y21483925D01*
X-13735611Y21275851D01*
X-13654425Y21079849D01*
X-13536560Y20903453D01*
X-13386547Y20753440D01*
X-13210151Y20635575D01*
X-13014149Y20554389D01*
X-12806075Y20513000D01*
X-12593925Y20513000D01*
X-12385851Y20554389D01*
X-12189849Y20635575D01*
X-12013453Y20753440D01*
X-11863440Y20903453D01*
X-11745575Y21079849D01*
X-11707942Y21170705D01*
X-5793283Y21170705D01*
X-5793283Y21061971D01*
X-5772070Y20955326D01*
X-5730459Y20854868D01*
X-5670049Y20764458D01*
X-5593163Y20687572D01*
X-5502753Y20627162D01*
X-5402295Y20585551D01*
X-5295650Y20564338D01*
X-5186916Y20564338D01*
X-5080271Y20585551D01*
X-4979813Y20627162D01*
X-4917604Y20668729D01*
X-4873766Y20603120D01*
X-4796880Y20526234D01*
X-4706470Y20465824D01*
X-4606012Y20424213D01*
X-4499367Y20403000D01*
X-4390633Y20403000D01*
X-4283988Y20424213D01*
X-4183530Y20465824D01*
X-4093120Y20526234D01*
X-4016234Y20603120D01*
X-3955824Y20693530D01*
X-3914213Y20793988D01*
X-3893000Y20900633D01*
X-3893000Y21009367D01*
X-3914213Y21116012D01*
X-3955824Y21216470D01*
X-4016234Y21306880D01*
X-4093120Y21383766D01*
X-4183530Y21444176D01*
X-4283988Y21485787D01*
X-4390633Y21507000D01*
X-4499367Y21507000D01*
X-4606012Y21485787D01*
X-4706470Y21444176D01*
X-4768679Y21402609D01*
X-4812517Y21468218D01*
X-4889403Y21545104D01*
X-4979813Y21605514D01*
X-5080271Y21647125D01*
X-5186916Y21668338D01*
X-5295650Y21668338D01*
X-5402295Y21647125D01*
X-5502753Y21605514D01*
X-5593163Y21545104D01*
X-5670049Y21468218D01*
X-5730459Y21377808D01*
X-5772070Y21277350D01*
X-5793283Y21170705D01*
X-11707942Y21170705D01*
X-11664389Y21275851D01*
X-11623000Y21483925D01*
X-11623000Y21696075D01*
X-11664389Y21904149D01*
X-11745575Y22100151D01*
X-11863440Y22276547D01*
X-12013453Y22426560D01*
X-12189849Y22544425D01*
X-12385851Y22625611D01*
X-12593925Y22667000D01*
X-12806075Y22667000D01*
X-13014149Y22625611D01*
X-13210151Y22544425D01*
X-13386547Y22426560D01*
X-13536560Y22276547D01*
X-13654425Y22100151D01*
X-13735611Y21904149D01*
X-13777000Y21696075D01*
X-14503402Y21696075D01*
X-14362213Y21790414D01*
X-14170414Y21982213D01*
X-14019718Y22207746D01*
X-13915917Y22458344D01*
X-13863000Y22724377D01*
X-13863000Y22914367D01*
X-11093000Y22914367D01*
X-11093000Y22805633D01*
X-11071787Y22698988D01*
X-11030176Y22598530D01*
X-10969766Y22508120D01*
X-10892880Y22431234D01*
X-10802470Y22370824D01*
X-10702012Y22329213D01*
X-10595367Y22308000D01*
X-10486633Y22308000D01*
X-10379988Y22329213D01*
X-10279530Y22370824D01*
X-10189120Y22431234D01*
X-10112234Y22508120D01*
X-10051824Y22598530D01*
X-10010213Y22698988D01*
X-9989000Y22805633D01*
X-9989000Y22914367D01*
X-10010213Y23021012D01*
X-10051824Y23121470D01*
X-10112234Y23211880D01*
X-10189120Y23288766D01*
X-10279530Y23349176D01*
X-10379988Y23390787D01*
X-10486633Y23412000D01*
X-10595367Y23412000D01*
X-10702012Y23390787D01*
X-10802470Y23349176D01*
X-10892880Y23288766D01*
X-10969766Y23211880D01*
X-11030176Y23121470D01*
X-11071787Y23021012D01*
X-11093000Y22914367D01*
X-13863000Y22914367D01*
X-13863000Y22995623D01*
X-13915917Y23261656D01*
X-14019718Y23512254D01*
X-14129374Y23676367D01*
X-9950000Y23676367D01*
X-9950000Y23567633D01*
X-9928787Y23460988D01*
X-9887176Y23360530D01*
X-9826766Y23270120D01*
X-9749880Y23193234D01*
X-9659470Y23132824D01*
X-9559012Y23091213D01*
X-9452367Y23070000D01*
X-9343633Y23070000D01*
X-9236988Y23091213D01*
X-9136530Y23132824D01*
X-9046120Y23193234D01*
X-8969234Y23270120D01*
X-8908824Y23360530D01*
X-8867213Y23460988D01*
X-8846000Y23567633D01*
X-8846000Y23676367D01*
X-8867213Y23783012D01*
X-8908824Y23883470D01*
X-8969234Y23973880D01*
X-9046120Y24050766D01*
X-9136530Y24111176D01*
X-9236988Y24152787D01*
X-9343633Y24174000D01*
X-9452367Y24174000D01*
X-9559012Y24152787D01*
X-9659470Y24111176D01*
X-9749880Y24050766D01*
X-9826766Y23973880D01*
X-9887176Y23883470D01*
X-9928787Y23783012D01*
X-9950000Y23676367D01*
X-14129374Y23676367D01*
X-14170414Y23737787D01*
X-14362213Y23929586D01*
X-14587746Y24080282D01*
X-14707776Y24130000D01*
X-14587746Y24179718D01*
X-14362213Y24330414D01*
X-14254260Y24438367D01*
X-7410000Y24438367D01*
X-7410000Y24329633D01*
X-7388787Y24222988D01*
X-7347176Y24122530D01*
X-7286766Y24032120D01*
X-7209880Y23955234D01*
X-7119470Y23894824D01*
X-7019012Y23853213D01*
X-6912367Y23832000D01*
X-6803633Y23832000D01*
X-6696988Y23853213D01*
X-6596530Y23894824D01*
X-6506120Y23955234D01*
X-6429234Y24032120D01*
X-6368824Y24122530D01*
X-6327213Y24222988D01*
X-6306000Y24329633D01*
X-6306000Y24438367D01*
X-6327213Y24545012D01*
X-6368824Y24645470D01*
X-6429234Y24735880D01*
X-6506120Y24812766D01*
X-6596530Y24873176D01*
X-6696988Y24914787D01*
X-6803633Y24936000D01*
X-6912367Y24936000D01*
X-7019012Y24914787D01*
X-7119470Y24873176D01*
X-7209880Y24812766D01*
X-7286766Y24735880D01*
X-7347176Y24645470D01*
X-7388787Y24545012D01*
X-7410000Y24438367D01*
X-14254260Y24438367D01*
X-14170414Y24522213D01*
X-14019718Y24747746D01*
X-13915917Y24998344D01*
X-13863000Y25264377D01*
X-13863000Y25535623D01*
X-13915917Y25801656D01*
X-14019718Y26052254D01*
X-14170414Y26277787D01*
X-14362213Y26469586D01*
X-14587746Y26620282D01*
X-14707776Y26670000D01*
X-14587746Y26719718D01*
X-14362213Y26870414D01*
X-14170414Y27062213D01*
X-14019718Y27287746D01*
X-13986992Y27366754D01*
X-8247000Y27366754D01*
X-8247000Y27243246D01*
X-8222905Y27122111D01*
X-8175640Y27008004D01*
X-8107023Y26905311D01*
X-8019689Y26817977D01*
X-7916996Y26749360D01*
X-7802889Y26702095D01*
X-7681754Y26678000D01*
X-7558246Y26678000D01*
X-7437111Y26702095D01*
X-7323004Y26749360D01*
X-7220311Y26817977D01*
X-7132977Y26905311D01*
X-7064360Y27008004D01*
X-7017095Y27122111D01*
X-6993000Y27243246D01*
X-6993000Y27366754D01*
X-7017095Y27487889D01*
X-7064360Y27601996D01*
X-7132977Y27704689D01*
X-7220311Y27792023D01*
X-7323004Y27860640D01*
X-7437111Y27907905D01*
X-7558246Y27932000D01*
X-7681754Y27932000D01*
X-7802889Y27907905D01*
X-7916996Y27860640D01*
X-8019689Y27792023D01*
X-8107023Y27704689D01*
X-8175640Y27601996D01*
X-8222905Y27487889D01*
X-8247000Y27366754D01*
X-13986992Y27366754D01*
X-13915917Y27538344D01*
X-13863000Y27804377D01*
X-13863000Y28075623D01*
X-13915917Y28341656D01*
X-14019718Y28592254D01*
X-14170414Y28817787D01*
X-14185627Y28833000D01*
X-1054373Y28833000D01*
X-1069586Y28817787D01*
%TA.AperFunction,Conductor*%
D17*
G36*
X-1069586Y28817787D02*
G01*
X-1220282Y28592254D01*
X-1324083Y28341656D01*
X-1377000Y28075623D01*
X-1377000Y27804377D01*
X-1324083Y27538344D01*
X-1220282Y27287746D01*
X-1069586Y27062213D01*
X-877787Y26870414D01*
X-652254Y26719718D01*
X-532224Y26670000D01*
X-652254Y26620282D01*
X-877787Y26469586D01*
X-1069586Y26277787D01*
X-1220282Y26052254D01*
X-1324083Y25801656D01*
X-1377000Y25535623D01*
X-1377000Y25264377D01*
X-1324083Y24998344D01*
X-1220282Y24747746D01*
X-1069586Y24522213D01*
X-877787Y24330414D01*
X-652254Y24179718D01*
X-532224Y24130000D01*
X-652254Y24080282D01*
X-877787Y23929586D01*
X-1069586Y23737787D01*
X-1220282Y23512254D01*
X-1324083Y23261656D01*
X-1377000Y22995623D01*
X-1377000Y22724377D01*
X-1324083Y22458344D01*
X-1220282Y22207746D01*
X-1069586Y21982213D01*
X-877787Y21790414D01*
X-652254Y21639718D01*
X-532224Y21590000D01*
X-652254Y21540282D01*
X-877787Y21389586D01*
X-1069586Y21197787D01*
X-1220282Y20972254D01*
X-1324083Y20721656D01*
X-1377000Y20455623D01*
X-1377000Y20184377D01*
X-1324083Y19918344D01*
X-1220282Y19667746D01*
X-1069586Y19442213D01*
X-877787Y19250414D01*
X-652254Y19099718D01*
X-532224Y19050000D01*
X-652254Y19000282D01*
X-877787Y18849586D01*
X-1069586Y18657787D01*
X-1220282Y18432254D01*
X-1324083Y18181656D01*
X-1377000Y17915623D01*
X-1377000Y17644377D01*
X-1324083Y17378344D01*
X-1220282Y17127746D01*
X-1069586Y16902213D01*
X-877787Y16710414D01*
X-652254Y16559718D01*
X-532224Y16510000D01*
X-652254Y16460282D01*
X-877787Y16309586D01*
X-1069586Y16117787D01*
X-1220282Y15892254D01*
X-1324083Y15641656D01*
X-1377000Y15375623D01*
X-1377000Y15104377D01*
X-1324083Y14838344D01*
X-1220282Y14587746D01*
X-1069586Y14362213D01*
X-877787Y14170414D01*
X-652254Y14019718D01*
X-532224Y13970000D01*
X-652254Y13920282D01*
X-877787Y13769586D01*
X-1069586Y13577787D01*
X-1220282Y13352254D01*
X-1324083Y13101656D01*
X-1377000Y12835623D01*
X-1377000Y12564377D01*
X-1324083Y12298344D01*
X-1220282Y12047746D01*
X-1069586Y11822213D01*
X-877787Y11630414D01*
X-652254Y11479718D01*
X-532224Y11430000D01*
X-652254Y11380282D01*
X-877787Y11229586D01*
X-1069586Y11037787D01*
X-1220282Y10812254D01*
X-1324083Y10561656D01*
X-1377000Y10295623D01*
X-1377000Y10024377D01*
X-1324083Y9758344D01*
X-1220282Y9507746D01*
X-1069586Y9282213D01*
X-877787Y9090414D01*
X-858257Y9077365D01*
X-889661Y9060579D01*
X-991461Y8791066D01*
X0Y7799605D01*
X14143Y7813747D01*
X193748Y7634142D01*
X179605Y7620000D01*
X193748Y7605857D01*
X14143Y7426252D01*
X0Y7440395D01*
X-14142Y7426252D01*
X-193747Y7605857D01*
X-179605Y7620000D01*
X-1171066Y8611461D01*
X-1440579Y8509661D01*
X-1586463Y8211523D01*
X-1671380Y7890654D01*
X-1692066Y7559383D01*
X-1647728Y7230443D01*
X-1540069Y6916473D01*
X-1516526Y6872426D01*
X-1543312Y6861331D01*
X-1637816Y6798185D01*
X-1718185Y6717816D01*
X-1781331Y6623312D01*
X-1824826Y6518305D01*
X-1847000Y6406830D01*
X-1847000Y6293170D01*
X-1824826Y6181695D01*
X-1781331Y6076688D01*
X-1718185Y5982184D01*
X-1637816Y5901815D01*
X-1543312Y5838669D01*
X-1511187Y5825362D01*
X-1586463Y5671523D01*
X-1671380Y5350654D01*
X-1692066Y5019383D01*
X-1647728Y4690443D01*
X-1540069Y4376473D01*
X-1440579Y4190339D01*
X-1171066Y4088539D01*
X-179605Y5080000D01*
X-193747Y5094142D01*
X-14142Y5273747D01*
X0Y5259605D01*
X14143Y5273747D01*
X193748Y5094142D01*
X179605Y5080000D01*
X193748Y5065857D01*
X14143Y4886252D01*
X0Y4900395D01*
X-991461Y3908934D01*
X-889661Y3639421D01*
X-857031Y3623455D01*
X-877787Y3609586D01*
X-1069586Y3417787D01*
X-1220282Y3192254D01*
X-1324083Y2941656D01*
X-1377000Y2675623D01*
X-1377000Y2404377D01*
X-1324083Y2138344D01*
X-1220282Y1887746D01*
X-1069586Y1662213D01*
X-877787Y1470414D01*
X-740350Y1378582D01*
X-1050000Y1378582D01*
X-1114103Y1372268D01*
X-1175743Y1353570D01*
X-1232550Y1323206D01*
X-1282343Y1282343D01*
X-1323206Y1232550D01*
X-1353570Y1175743D01*
X-1372268Y1114103D01*
X-1378582Y1050000D01*
X-1378582Y-893000D01*
X-14185627Y-893000D01*
X-14170414Y-877787D01*
X-14019718Y-652254D01*
X-13915917Y-401656D01*
X-13863000Y-135623D01*
X-13863000Y135623D01*
X-13915917Y401656D01*
X-14019718Y652254D01*
X-14170414Y877787D01*
X-14362213Y1069586D01*
X-14381743Y1082635D01*
X-14350339Y1099421D01*
X-14248539Y1368934D01*
X-15240000Y2360395D01*
X-15254142Y2346252D01*
X-15433747Y2525857D01*
X-15419605Y2540000D01*
X-15060395Y2540000D01*
X-14068934Y1548539D01*
X-13799421Y1650339D01*
X-13653537Y1948477D01*
X-13568620Y2269346D01*
X-13547934Y2600617D01*
X-13592272Y2929557D01*
X-13699931Y3243527D01*
X-13799421Y3429661D01*
X-14068934Y3531461D01*
X-15060395Y2540000D01*
X-15419605Y2540000D01*
X-15433747Y2554142D01*
X-15254142Y2733747D01*
X-15240000Y2719605D01*
X-14248539Y3711066D01*
X-14350339Y3980579D01*
X-14382969Y3996545D01*
X-14362213Y4010414D01*
X-14170414Y4202213D01*
X-14055076Y4374830D01*
X-4387000Y4374830D01*
X-4387000Y4261170D01*
X-4364826Y4149695D01*
X-4321331Y4044688D01*
X-4258185Y3950184D01*
X-4177816Y3869815D01*
X-4083312Y3806669D01*
X-3978305Y3763174D01*
X-3866830Y3741000D01*
X-3753170Y3741000D01*
X-3641695Y3763174D01*
X-3536688Y3806669D01*
X-3442184Y3869815D01*
X-3361815Y3950184D01*
X-3298669Y4044688D01*
X-3255174Y4149695D01*
X-3233000Y4261170D01*
X-3233000Y4374830D01*
X-3255174Y4486305D01*
X-3298669Y4591312D01*
X-3361815Y4685816D01*
X-3442184Y4766185D01*
X-3536688Y4829331D01*
X-3641695Y4872826D01*
X-3753170Y4895000D01*
X-3866830Y4895000D01*
X-3978305Y4872826D01*
X-4083312Y4829331D01*
X-4177816Y4766185D01*
X-4258185Y4685816D01*
X-4321331Y4591312D01*
X-4364826Y4486305D01*
X-4387000Y4374830D01*
X-14055076Y4374830D01*
X-14019718Y4427746D01*
X-13915917Y4678344D01*
X-13863000Y4944377D01*
X-13863000Y5215623D01*
X-13915917Y5481656D01*
X-14019718Y5732254D01*
X-14170414Y5957787D01*
X-14362213Y6149586D01*
X-14587746Y6300282D01*
X-14707776Y6350000D01*
X-14587746Y6399718D01*
X-14362213Y6550414D01*
X-14170414Y6742213D01*
X-14019718Y6967746D01*
X-13915917Y7218344D01*
X-13863000Y7484377D01*
X-13863000Y7755623D01*
X-13915917Y8021656D01*
X-13984334Y8186830D01*
X-11628006Y8186830D01*
X-11628006Y8073170D01*
X-11605832Y7961695D01*
X-11562337Y7856688D01*
X-11499191Y7762184D01*
X-11418822Y7681815D01*
X-11324318Y7618669D01*
X-11219311Y7575174D01*
X-11107836Y7553000D01*
X-10994176Y7553000D01*
X-10882701Y7575174D01*
X-10777694Y7618669D01*
X-10683190Y7681815D01*
X-10602821Y7762184D01*
X-10539675Y7856688D01*
X-10496180Y7961695D01*
X-10474006Y8073170D01*
X-10474006Y8186830D01*
X-10496180Y8298305D01*
X-10539675Y8403312D01*
X-10602821Y8497816D01*
X-10683190Y8578185D01*
X-10777694Y8641331D01*
X-10882701Y8684826D01*
X-10994176Y8707000D01*
X-11107836Y8707000D01*
X-11219311Y8684826D01*
X-11324318Y8641331D01*
X-11418822Y8578185D01*
X-11499191Y8497816D01*
X-11562337Y8403312D01*
X-11605832Y8298305D01*
X-11628006Y8186830D01*
X-13984334Y8186830D01*
X-14019718Y8272254D01*
X-14170414Y8497787D01*
X-14362213Y8689586D01*
X-14587746Y8840282D01*
X-14707776Y8890000D01*
X-14587746Y8939718D01*
X-14362213Y9090414D01*
X-14170414Y9282213D01*
X-14019718Y9507746D01*
X-13915917Y9758344D01*
X-13863000Y10024377D01*
X-13863000Y10295623D01*
X-13915917Y10561656D01*
X-14019718Y10812254D01*
X-14170414Y11037787D01*
X-14362213Y11229586D01*
X-14587746Y11380282D01*
X-14707776Y11430000D01*
X-14587746Y11479718D01*
X-14362213Y11630414D01*
X-14170414Y11822213D01*
X-14019718Y12047746D01*
X-13915917Y12298344D01*
X-13863000Y12564377D01*
X-13863000Y12835623D01*
X-13915917Y13101656D01*
X-14019718Y13352254D01*
X-14170414Y13577787D01*
X-14362213Y13769586D01*
X-14587746Y13920282D01*
X-14707776Y13970000D01*
X-14587746Y14019718D01*
X-14362213Y14170414D01*
X-14251797Y14280830D01*
X-10356000Y14280830D01*
X-10356000Y14167170D01*
X-10333826Y14055695D01*
X-10290331Y13950688D01*
X-10227185Y13856184D01*
X-10146816Y13775815D01*
X-10073064Y13726535D01*
X-10083316Y13719685D01*
X-10163685Y13639316D01*
X-10226831Y13544812D01*
X-10270326Y13439805D01*
X-10292500Y13328330D01*
X-10292500Y13214670D01*
X-10270326Y13103195D01*
X-10226831Y12998188D01*
X-10163685Y12903684D01*
X-10083316Y12823315D01*
X-9988812Y12760169D01*
X-9883805Y12716674D01*
X-9772330Y12694500D01*
X-9658670Y12694500D01*
X-9547195Y12716674D01*
X-9442188Y12760169D01*
X-9347684Y12823315D01*
X-9267315Y12903684D01*
X-9204169Y12998188D01*
X-9160674Y13103195D01*
X-9138500Y13214670D01*
X-9138500Y13328330D01*
X-9160674Y13439805D01*
X-9204169Y13544812D01*
X-9267315Y13639316D01*
X-9347684Y13719685D01*
X-9421436Y13768965D01*
X-9411184Y13775815D01*
X-9330815Y13856184D01*
X-9267669Y13950688D01*
X-9224174Y14055695D01*
X-9202000Y14167170D01*
X-9202000Y14280830D01*
X-9224174Y14392305D01*
X-9267669Y14497312D01*
X-9330815Y14591816D01*
X-9411184Y14672185D01*
X-9505688Y14735331D01*
X-9610695Y14778826D01*
X-9650933Y14786830D01*
X-3447000Y14786830D01*
X-3447000Y14673170D01*
X-3424826Y14561695D01*
X-3381331Y14456688D01*
X-3318185Y14362184D01*
X-3237816Y14281815D01*
X-3143312Y14218669D01*
X-3049956Y14180000D01*
X-3143312Y14141331D01*
X-3237816Y14078185D01*
X-3318185Y13997816D01*
X-3381331Y13903312D01*
X-3424826Y13798305D01*
X-3447000Y13686830D01*
X-3447000Y13573170D01*
X-3424826Y13461695D01*
X-3381331Y13356688D01*
X-3318185Y13262184D01*
X-3237816Y13181815D01*
X-3143312Y13118669D01*
X-3038305Y13075174D01*
X-2926830Y13053000D01*
X-2813170Y13053000D01*
X-2701695Y13075174D01*
X-2596688Y13118669D01*
X-2502184Y13181815D01*
X-2421815Y13262184D01*
X-2358669Y13356688D01*
X-2315174Y13461695D01*
X-2293000Y13573170D01*
X-2293000Y13686830D01*
X-2315174Y13798305D01*
X-2358669Y13903312D01*
X-2421815Y13997816D01*
X-2502184Y14078185D01*
X-2596688Y14141331D01*
X-2690044Y14180000D01*
X-2596688Y14218669D01*
X-2502184Y14281815D01*
X-2421815Y14362184D01*
X-2358669Y14456688D01*
X-2315174Y14561695D01*
X-2293000Y14673170D01*
X-2293000Y14786830D01*
X-2315174Y14898305D01*
X-2358669Y15003312D01*
X-2421815Y15097816D01*
X-2502184Y15178185D01*
X-2596688Y15241331D01*
X-2701695Y15284826D01*
X-2813170Y15307000D01*
X-2926830Y15307000D01*
X-3038305Y15284826D01*
X-3143312Y15241331D01*
X-3237816Y15178185D01*
X-3318185Y15097816D01*
X-3381331Y15003312D01*
X-3424826Y14898305D01*
X-3447000Y14786830D01*
X-9650933Y14786830D01*
X-9722170Y14801000D01*
X-9835830Y14801000D01*
X-9947305Y14778826D01*
X-10052312Y14735331D01*
X-10146816Y14672185D01*
X-10227185Y14591816D01*
X-10290331Y14497312D01*
X-10333826Y14392305D01*
X-10356000Y14280830D01*
X-14251797Y14280830D01*
X-14170414Y14362213D01*
X-14019718Y14587746D01*
X-13915917Y14838344D01*
X-13863000Y15104377D01*
X-13863000Y15375623D01*
X-13915917Y15641656D01*
X-14019718Y15892254D01*
X-14170414Y16117787D01*
X-14362213Y16309586D01*
X-14587746Y16460282D01*
X-14707776Y16510000D01*
X-14587746Y16559718D01*
X-14362213Y16710414D01*
X-14170414Y16902213D01*
X-14019718Y17127746D01*
X-13915917Y17378344D01*
X-13863000Y17644377D01*
X-13863000Y17834367D01*
X-9442000Y17834367D01*
X-9442000Y17725633D01*
X-9420787Y17618988D01*
X-9379176Y17518530D01*
X-9318766Y17428120D01*
X-9241880Y17351234D01*
X-9151470Y17290824D01*
X-9051012Y17249213D01*
X-8944367Y17228000D01*
X-8835633Y17228000D01*
X-8728988Y17249213D01*
X-8628530Y17290824D01*
X-8538120Y17351234D01*
X-8461234Y17428120D01*
X-8400824Y17518530D01*
X-8359213Y17618988D01*
X-8338000Y17725633D01*
X-8338000Y17834367D01*
X-8359213Y17941012D01*
X-8400824Y18041470D01*
X-8461234Y18131880D01*
X-8538120Y18208766D01*
X-8628530Y18269176D01*
X-8676044Y18288857D01*
X-7537000Y18288857D01*
X-7537000Y18180123D01*
X-7515787Y18073478D01*
X-7474176Y17973020D01*
X-7413766Y17882610D01*
X-7336880Y17805724D01*
X-7246470Y17745314D01*
X-7146012Y17703703D01*
X-7039367Y17682490D01*
X-6930633Y17682490D01*
X-6823988Y17703703D01*
X-6723530Y17745314D01*
X-6633120Y17805724D01*
X-6556234Y17882610D01*
X-6495824Y17973020D01*
X-6454213Y18073478D01*
X-6433000Y18180123D01*
X-6433000Y18278867D01*
X-6267000Y18278867D01*
X-6267000Y18170133D01*
X-6245787Y18063488D01*
X-6204176Y17963030D01*
X-6143766Y17872620D01*
X-6066880Y17795734D01*
X-5976470Y17735324D01*
X-5876012Y17693713D01*
X-5769367Y17672500D01*
X-5660633Y17672500D01*
X-5553988Y17693713D01*
X-5453530Y17735324D01*
X-5363120Y17795734D01*
X-5286234Y17872620D01*
X-5225824Y17963030D01*
X-5184213Y18063488D01*
X-5163000Y18170133D01*
X-5163000Y18278867D01*
X-5184213Y18385512D01*
X-5225824Y18485970D01*
X-5286234Y18576380D01*
X-5363120Y18653266D01*
X-5453530Y18713676D01*
X-5553988Y18755287D01*
X-5660633Y18776500D01*
X-5769367Y18776500D01*
X-5876012Y18755287D01*
X-5976470Y18713676D01*
X-6066880Y18653266D01*
X-6143766Y18576380D01*
X-6204176Y18485970D01*
X-6245787Y18385512D01*
X-6267000Y18278867D01*
X-6433000Y18278867D01*
X-6433000Y18288857D01*
X-6454213Y18395502D01*
X-6495824Y18495960D01*
X-6556234Y18586370D01*
X-6633120Y18663256D01*
X-6723530Y18723666D01*
X-6823988Y18765277D01*
X-6930633Y18786490D01*
X-7039367Y18786490D01*
X-7146012Y18765277D01*
X-7246470Y18723666D01*
X-7336880Y18663256D01*
X-7413766Y18586370D01*
X-7474176Y18495960D01*
X-7515787Y18395502D01*
X-7537000Y18288857D01*
X-8676044Y18288857D01*
X-8728988Y18310787D01*
X-8835633Y18332000D01*
X-8944367Y18332000D01*
X-9051012Y18310787D01*
X-9151470Y18269176D01*
X-9241880Y18208766D01*
X-9318766Y18131880D01*
X-9379176Y18041470D01*
X-9420787Y17941012D01*
X-9442000Y17834367D01*
X-13863000Y17834367D01*
X-13863000Y17915623D01*
X-13915917Y18181656D01*
X-14019718Y18432254D01*
X-14170414Y18657787D01*
X-14362213Y18849586D01*
X-14587746Y19000282D01*
X-14707776Y19050000D01*
X-14587746Y19099718D01*
X-14362213Y19250414D01*
X-14254260Y19358367D01*
X-10712000Y19358367D01*
X-10712000Y19249633D01*
X-10690787Y19142988D01*
X-10649176Y19042530D01*
X-10588766Y18952120D01*
X-10511880Y18875234D01*
X-10421470Y18814824D01*
X-10321012Y18773213D01*
X-10214367Y18752000D01*
X-10105633Y18752000D01*
X-9998988Y18773213D01*
X-9898530Y18814824D01*
X-9808120Y18875234D01*
X-9731234Y18952120D01*
X-9670824Y19042530D01*
X-9629213Y19142988D01*
X-9608000Y19249633D01*
X-9608000Y19358367D01*
X-9629213Y19465012D01*
X-9670824Y19565470D01*
X-9731234Y19655880D01*
X-9808120Y19732766D01*
X-9898530Y19793176D01*
X-9998988Y19834787D01*
X-10105633Y19856000D01*
X-10214367Y19856000D01*
X-10321012Y19834787D01*
X-10421470Y19793176D01*
X-10511880Y19732766D01*
X-10588766Y19655880D01*
X-10649176Y19565470D01*
X-10690787Y19465012D01*
X-10712000Y19358367D01*
X-14254260Y19358367D01*
X-14170414Y19442213D01*
X-14019718Y19667746D01*
X-13915917Y19918344D01*
X-13863000Y20184377D01*
X-13863000Y20455623D01*
X-13915917Y20721656D01*
X-14019718Y20972254D01*
X-14170414Y21197787D01*
X-14362213Y21389586D01*
X-14587746Y21540282D01*
X-14707776Y21590000D01*
X-14587746Y21639718D01*
X-14503402Y21696075D01*
X-13777000Y21696075D01*
X-13777000Y21483925D01*
X-13735611Y21275851D01*
X-13654425Y21079849D01*
X-13536560Y20903453D01*
X-13386547Y20753440D01*
X-13210151Y20635575D01*
X-13014149Y20554389D01*
X-12806075Y20513000D01*
X-12593925Y20513000D01*
X-12385851Y20554389D01*
X-12189849Y20635575D01*
X-12013453Y20753440D01*
X-11863440Y20903453D01*
X-11745575Y21079849D01*
X-11707942Y21170705D01*
X-5793283Y21170705D01*
X-5793283Y21061971D01*
X-5772070Y20955326D01*
X-5730459Y20854868D01*
X-5670049Y20764458D01*
X-5593163Y20687572D01*
X-5502753Y20627162D01*
X-5402295Y20585551D01*
X-5295650Y20564338D01*
X-5186916Y20564338D01*
X-5080271Y20585551D01*
X-4979813Y20627162D01*
X-4917604Y20668729D01*
X-4873766Y20603120D01*
X-4796880Y20526234D01*
X-4706470Y20465824D01*
X-4606012Y20424213D01*
X-4499367Y20403000D01*
X-4390633Y20403000D01*
X-4283988Y20424213D01*
X-4183530Y20465824D01*
X-4093120Y20526234D01*
X-4016234Y20603120D01*
X-3955824Y20693530D01*
X-3914213Y20793988D01*
X-3893000Y20900633D01*
X-3893000Y21009367D01*
X-3914213Y21116012D01*
X-3955824Y21216470D01*
X-4016234Y21306880D01*
X-4093120Y21383766D01*
X-4183530Y21444176D01*
X-4283988Y21485787D01*
X-4390633Y21507000D01*
X-4499367Y21507000D01*
X-4606012Y21485787D01*
X-4706470Y21444176D01*
X-4768679Y21402609D01*
X-4812517Y21468218D01*
X-4889403Y21545104D01*
X-4979813Y21605514D01*
X-5080271Y21647125D01*
X-5186916Y21668338D01*
X-5295650Y21668338D01*
X-5402295Y21647125D01*
X-5502753Y21605514D01*
X-5593163Y21545104D01*
X-5670049Y21468218D01*
X-5730459Y21377808D01*
X-5772070Y21277350D01*
X-5793283Y21170705D01*
X-11707942Y21170705D01*
X-11664389Y21275851D01*
X-11623000Y21483925D01*
X-11623000Y21696075D01*
X-11664389Y21904149D01*
X-11745575Y22100151D01*
X-11863440Y22276547D01*
X-12013453Y22426560D01*
X-12189849Y22544425D01*
X-12385851Y22625611D01*
X-12593925Y22667000D01*
X-12806075Y22667000D01*
X-13014149Y22625611D01*
X-13210151Y22544425D01*
X-13386547Y22426560D01*
X-13536560Y22276547D01*
X-13654425Y22100151D01*
X-13735611Y21904149D01*
X-13777000Y21696075D01*
X-14503402Y21696075D01*
X-14362213Y21790414D01*
X-14170414Y21982213D01*
X-14019718Y22207746D01*
X-13915917Y22458344D01*
X-13863000Y22724377D01*
X-13863000Y22914367D01*
X-11093000Y22914367D01*
X-11093000Y22805633D01*
X-11071787Y22698988D01*
X-11030176Y22598530D01*
X-10969766Y22508120D01*
X-10892880Y22431234D01*
X-10802470Y22370824D01*
X-10702012Y22329213D01*
X-10595367Y22308000D01*
X-10486633Y22308000D01*
X-10379988Y22329213D01*
X-10279530Y22370824D01*
X-10189120Y22431234D01*
X-10112234Y22508120D01*
X-10051824Y22598530D01*
X-10010213Y22698988D01*
X-9989000Y22805633D01*
X-9989000Y22914367D01*
X-10010213Y23021012D01*
X-10051824Y23121470D01*
X-10112234Y23211880D01*
X-10189120Y23288766D01*
X-10279530Y23349176D01*
X-10379988Y23390787D01*
X-10486633Y23412000D01*
X-10595367Y23412000D01*
X-10702012Y23390787D01*
X-10802470Y23349176D01*
X-10892880Y23288766D01*
X-10969766Y23211880D01*
X-11030176Y23121470D01*
X-11071787Y23021012D01*
X-11093000Y22914367D01*
X-13863000Y22914367D01*
X-13863000Y22995623D01*
X-13915917Y23261656D01*
X-14019718Y23512254D01*
X-14129374Y23676367D01*
X-9950000Y23676367D01*
X-9950000Y23567633D01*
X-9928787Y23460988D01*
X-9887176Y23360530D01*
X-9826766Y23270120D01*
X-9749880Y23193234D01*
X-9659470Y23132824D01*
X-9559012Y23091213D01*
X-9452367Y23070000D01*
X-9343633Y23070000D01*
X-9236988Y23091213D01*
X-9136530Y23132824D01*
X-9046120Y23193234D01*
X-8969234Y23270120D01*
X-8908824Y23360530D01*
X-8867213Y23460988D01*
X-8846000Y23567633D01*
X-8846000Y23676367D01*
X-8867213Y23783012D01*
X-8908824Y23883470D01*
X-8969234Y23973880D01*
X-9046120Y24050766D01*
X-9136530Y24111176D01*
X-9236988Y24152787D01*
X-9343633Y24174000D01*
X-9452367Y24174000D01*
X-9559012Y24152787D01*
X-9659470Y24111176D01*
X-9749880Y24050766D01*
X-9826766Y23973880D01*
X-9887176Y23883470D01*
X-9928787Y23783012D01*
X-9950000Y23676367D01*
X-14129374Y23676367D01*
X-14170414Y23737787D01*
X-14362213Y23929586D01*
X-14587746Y24080282D01*
X-14707776Y24130000D01*
X-14587746Y24179718D01*
X-14362213Y24330414D01*
X-14254260Y24438367D01*
X-7410000Y24438367D01*
X-7410000Y24329633D01*
X-7388787Y24222988D01*
X-7347176Y24122530D01*
X-7286766Y24032120D01*
X-7209880Y23955234D01*
X-7119470Y23894824D01*
X-7019012Y23853213D01*
X-6912367Y23832000D01*
X-6803633Y23832000D01*
X-6696988Y23853213D01*
X-6596530Y23894824D01*
X-6506120Y23955234D01*
X-6429234Y24032120D01*
X-6368824Y24122530D01*
X-6327213Y24222988D01*
X-6306000Y24329633D01*
X-6306000Y24438367D01*
X-6327213Y24545012D01*
X-6368824Y24645470D01*
X-6429234Y24735880D01*
X-6506120Y24812766D01*
X-6596530Y24873176D01*
X-6696988Y24914787D01*
X-6803633Y24936000D01*
X-6912367Y24936000D01*
X-7019012Y24914787D01*
X-7119470Y24873176D01*
X-7209880Y24812766D01*
X-7286766Y24735880D01*
X-7347176Y24645470D01*
X-7388787Y24545012D01*
X-7410000Y24438367D01*
X-14254260Y24438367D01*
X-14170414Y24522213D01*
X-14019718Y24747746D01*
X-13915917Y24998344D01*
X-13863000Y25264377D01*
X-13863000Y25535623D01*
X-13915917Y25801656D01*
X-14019718Y26052254D01*
X-14170414Y26277787D01*
X-14362213Y26469586D01*
X-14587746Y26620282D01*
X-14707776Y26670000D01*
X-14587746Y26719718D01*
X-14362213Y26870414D01*
X-14170414Y27062213D01*
X-14019718Y27287746D01*
X-13986992Y27366754D01*
X-8247000Y27366754D01*
X-8247000Y27243246D01*
X-8222905Y27122111D01*
X-8175640Y27008004D01*
X-8107023Y26905311D01*
X-8019689Y26817977D01*
X-7916996Y26749360D01*
X-7802889Y26702095D01*
X-7681754Y26678000D01*
X-7558246Y26678000D01*
X-7437111Y26702095D01*
X-7323004Y26749360D01*
X-7220311Y26817977D01*
X-7132977Y26905311D01*
X-7064360Y27008004D01*
X-7017095Y27122111D01*
X-6993000Y27243246D01*
X-6993000Y27366754D01*
X-7017095Y27487889D01*
X-7064360Y27601996D01*
X-7132977Y27704689D01*
X-7220311Y27792023D01*
X-7323004Y27860640D01*
X-7437111Y27907905D01*
X-7558246Y27932000D01*
X-7681754Y27932000D01*
X-7802889Y27907905D01*
X-7916996Y27860640D01*
X-8019689Y27792023D01*
X-8107023Y27704689D01*
X-8175640Y27601996D01*
X-8222905Y27487889D01*
X-8247000Y27366754D01*
X-13986992Y27366754D01*
X-13915917Y27538344D01*
X-13863000Y27804377D01*
X-13863000Y28075623D01*
X-13915917Y28341656D01*
X-14019718Y28592254D01*
X-14170414Y28817787D01*
X-14185627Y28833000D01*
X-1054373Y28833000D01*
X-1069586Y28817787D01*
G37*
%TD.AperFunction*%
%TD*%
M02*
