%TF.GenerationSoftware,KiCad,Pcbnew,5.1.6+dfsg1-1~bpo10+1*%
%TF.CreationDate,Date%
%TF.ProjectId,ProMicro_POS,50726f4d-6963-4726-9f5f-504f532e6b69,v3.2*%
%TF.SameCoordinates,Original*%
%TF.FileFunction,Legend,Top*%
%TF.FilePolarity,Positive*%
%FSLAX45Y45*%
G04 Gerber Fmt 4.5, Leading zero omitted, Abs format (unit mm)*
G04 Created by KiCad*
%MOMM*%
%LPD*%
G01*
G04 APERTURE LIST*
%TA.AperFunction,Profile*%
%ADD10C,0.100000*%
%TD*%
%ADD11C,0.120000*%
%ADD12C,0.150000*%
%ADD13C,0.200000*%
%ADD14R,1.600000X1.600000*%
%ADD15O,1.600000X1.600000*%
%ADD16C,0.600000*%
%ADD17R,0.650000X1.060000*%
%ADD18C,1.500000*%
%ADD19R,1.500000X1.500000*%
%ADD20R,1.050000X2.200000*%
%ADD21R,1.000000X1.050000*%
%ADD22R,1.270000X3.600000*%
%ADD23R,1.350000X4.200000*%
%ADD24R,1.800000X0.700000*%
%ADD25R,1.800000X0.800000*%
G04 APERTURE END LIST*
D10*
X127000Y2857500D02*
X127000Y-63500D01*
X-1587500Y-127000D02*
G75*
G02*
X-1651000Y-63500I0J63500D01*
G01*
X-1651000Y2857500D02*
G75*
G02*
X-1587500Y2921000I63500J0D01*
G01*
X63500Y2921000D02*
G75*
G02*
X127000Y2857500I0J-63500D01*
G01*
X127000Y-63500D02*
G75*
G02*
X63500Y-127000I-63500J0D01*
G01*
X-1587500Y2921000D02*
X63500Y2921000D01*
X-1651000Y-63500D02*
X-1651000Y2857500D01*
X63500Y-127000D02*
X-1587500Y-127000D01*
D11*
X142000Y127000D02*
X142000Y2936000D01*
X-1397000Y-127000D02*
X-1397000Y2936000D01*
X-127000Y127000D02*
X142000Y127000D01*
X-127000Y-127000D02*
X-127000Y2936000D01*
X142000Y2936000D02*
X-1666000Y2936000D01*
X-1666000Y2936000D02*
X-1666000Y-127000D01*
X-1666000Y-127000D02*
X-127000Y-127000D01*
X-220000Y2005500D02*
X-220000Y2185500D01*
X-542000Y2185500D02*
X-542000Y1940500D01*
X-1175000Y2159000D02*
G75*
G03*
X-1175000Y2159000I-95000J0D01*
G01*
X-394000Y2383000D02*
X-394000Y2443000D01*
X-184000Y2313000D02*
X-324000Y2313000D01*
X-114000Y2443000D02*
X-114000Y2383000D01*
X-324000Y2513000D02*
X-184000Y2513000D01*
X-394000Y2443000D02*
G75*
G02*
X-324000Y2513000I70000J0D01*
G01*
X-324000Y2313000D02*
G75*
G02*
X-394000Y2383000I0J70000D01*
G01*
X-114000Y2383000D02*
G75*
G02*
X-184000Y2313000I-70000J0D01*
G01*
X-184000Y2513000D02*
G75*
G02*
X-114000Y2443000I0J-70000D01*
G01*
X-284000Y597200D02*
X-224000Y597200D01*
X-354000Y387200D02*
X-354000Y527200D01*
X-224000Y317200D02*
X-284000Y317200D01*
X-154000Y527200D02*
X-154000Y387200D01*
X-224000Y597200D02*
G75*
G02*
X-154000Y527200I0J-70000D01*
G01*
X-354000Y527200D02*
G75*
G02*
X-284000Y597200I70000J0D01*
G01*
X-284000Y317200D02*
G75*
G02*
X-354000Y387200I0J70000D01*
G01*
X-154000Y387200D02*
G75*
G02*
X-224000Y317200I-70000J0D01*
G01*
X-177500Y1808000D02*
X-177500Y1748000D01*
X-387500Y1878000D02*
X-247500Y1878000D01*
X-457500Y1748000D02*
X-457500Y1808000D01*
X-247500Y1678000D02*
X-387500Y1678000D01*
X-177500Y1748000D02*
G75*
G02*
X-247500Y1678000I-70000J0D01*
G01*
X-247500Y1878000D02*
G75*
G02*
X-177500Y1808000I0J-70000D01*
G01*
X-457500Y1808000D02*
G75*
G02*
X-387500Y1878000I70000J0D01*
G01*
X-387500Y1678000D02*
G75*
G02*
X-457500Y1748000I0J70000D01*
G01*
X-577600Y2648200D02*
X-577600Y2838200D01*
X-577600Y2838200D02*
X-387600Y2838200D01*
X-387600Y2838200D02*
X-387600Y2648200D01*
X-387600Y2648200D02*
X-577600Y2648200D01*
X-1174500Y2825500D02*
X-984500Y2825500D01*
X-984500Y2825500D02*
X-984500Y2635500D01*
X-984500Y2635500D02*
X-1174500Y2635500D01*
X-1174500Y2635500D02*
X-1174500Y2825500D01*
D12*
X-602000Y2319000D02*
X-602000Y2279000D01*
X-602000Y2319000D02*
X-642000Y2319000D01*
X-922000Y2319000D02*
X-922000Y2279000D01*
X-922000Y2319000D02*
X-882000Y2319000D01*
X-922000Y1999000D02*
X-922000Y2039000D01*
X-922000Y1999000D02*
X-882000Y1999000D01*
X-602000Y1999000D02*
X-642000Y1999000D01*
D11*
X-284000Y190800D02*
X-224000Y190800D01*
X-354000Y-19200D02*
X-354000Y120800D01*
X-224000Y-89200D02*
X-284000Y-89200D01*
X-154000Y120800D02*
X-154000Y-19200D01*
X-224000Y190800D02*
G75*
G02*
X-154000Y120800I0J-70000D01*
G01*
X-354000Y120800D02*
G75*
G02*
X-284000Y190800I70000J0D01*
G01*
X-284000Y-89200D02*
G75*
G02*
X-354000Y-19200I0J70000D01*
G01*
X-154000Y-19200D02*
G75*
G02*
X-224000Y-89200I-70000J0D01*
G01*
X-622000Y152000D02*
X-686000Y152000D01*
X-902000Y152000D02*
X-838000Y152000D01*
X-686000Y152000D02*
X-686000Y215000D01*
X-627000Y-120000D02*
X-897000Y-120000D01*
X-1343500Y1921500D02*
X-1343500Y1693000D01*
X-1343500Y1693000D02*
X-1196500Y1693000D01*
X-1196500Y1693000D02*
X-1196500Y1921500D01*
X-1282500Y445528D02*
X-1282500Y412972D01*
X-1384500Y445528D02*
X-1384500Y412972D01*
X-787000Y339500D02*
X-762000Y289500D01*
X-737000Y339500D02*
X-787000Y339500D01*
X-762000Y289500D02*
X-737000Y339500D01*
X-266000Y1659000D02*
X-266000Y1625000D01*
X-1258000Y661000D02*
X-1258000Y627000D01*
X-266000Y661000D02*
X-266000Y627000D01*
X-1258000Y627000D02*
X-266000Y627000D01*
X-1247000Y1659000D02*
X-266000Y1659000D01*
D13*
X-662310Y1536067D02*
X-700405Y1509400D01*
X-662310Y1490352D02*
X-742310Y1490352D01*
X-742310Y1520829D01*
X-738500Y1528448D01*
X-734690Y1532257D01*
X-727071Y1536067D01*
X-715643Y1536067D01*
X-708024Y1532257D01*
X-704214Y1528448D01*
X-700405Y1520829D01*
X-700405Y1490352D01*
X-742310Y1608448D02*
X-742310Y1570352D01*
X-704214Y1566543D01*
X-708024Y1570352D01*
X-711833Y1577971D01*
X-711833Y1597019D01*
X-708024Y1604638D01*
X-704214Y1608448D01*
X-696595Y1612257D01*
X-677548Y1612257D01*
X-669929Y1608448D01*
X-666119Y1604638D01*
X-662310Y1597019D01*
X-662310Y1577971D01*
X-666119Y1570352D01*
X-669929Y1566543D01*
X-535310Y1536067D02*
X-573405Y1509400D01*
X-535310Y1490352D02*
X-615310Y1490352D01*
X-615310Y1520829D01*
X-611500Y1528448D01*
X-607691Y1532257D01*
X-600072Y1536067D01*
X-588643Y1536067D01*
X-581024Y1532257D01*
X-577214Y1528448D01*
X-573405Y1520829D01*
X-573405Y1490352D01*
X-588643Y1604638D02*
X-535310Y1604638D01*
X-619119Y1585590D02*
X-561976Y1566543D01*
X-561976Y1616067D01*
X-424810Y2072648D02*
X-360048Y2072648D01*
X-352429Y2076457D01*
X-348619Y2080267D01*
X-344810Y2087886D01*
X-344810Y2103124D01*
X-348619Y2110743D01*
X-352429Y2114552D01*
X-360048Y2118362D01*
X-424810Y2118362D01*
X-417190Y2152648D02*
X-421000Y2156457D01*
X-424810Y2164076D01*
X-424810Y2183124D01*
X-421000Y2190743D01*
X-417190Y2194552D01*
X-409571Y2198362D01*
X-401952Y2198362D01*
X-390524Y2194552D01*
X-344810Y2148838D01*
X-344810Y2198362D01*
X-263529Y2653667D02*
X-259719Y2649857D01*
X-255910Y2638429D01*
X-255910Y2630810D01*
X-259719Y2619381D01*
X-267338Y2611762D01*
X-274957Y2607952D01*
X-290195Y2604143D01*
X-301624Y2604143D01*
X-316862Y2607952D01*
X-324481Y2611762D01*
X-332100Y2619381D01*
X-335910Y2630810D01*
X-335910Y2638429D01*
X-332100Y2649857D01*
X-328291Y2653667D01*
X-335910Y2680333D02*
X-335910Y2729857D01*
X-305433Y2703191D01*
X-305433Y2714619D01*
X-301624Y2722238D01*
X-297814Y2726048D01*
X-290195Y2729857D01*
X-271148Y2729857D01*
X-263529Y2726048D01*
X-259719Y2722238D01*
X-255910Y2714619D01*
X-255910Y2691762D01*
X-259719Y2684143D01*
X-263529Y2680333D01*
X-161929Y2653667D02*
X-158119Y2649857D01*
X-154310Y2638429D01*
X-154310Y2630810D01*
X-158119Y2619381D01*
X-165738Y2611762D01*
X-173357Y2607952D01*
X-188595Y2604143D01*
X-200024Y2604143D01*
X-215262Y2607952D01*
X-222881Y2611762D01*
X-230500Y2619381D01*
X-234310Y2630810D01*
X-234310Y2638429D01*
X-230500Y2649857D01*
X-226690Y2653667D01*
X-226690Y2684143D02*
X-230500Y2687952D01*
X-234310Y2695572D01*
X-234310Y2714619D01*
X-230500Y2722238D01*
X-226690Y2726048D01*
X-219071Y2729857D01*
X-211452Y2729857D01*
X-200024Y2726048D01*
X-154310Y2680333D01*
X-154310Y2729857D01*
X-796929Y1536067D02*
X-793119Y1532257D01*
X-789310Y1520829D01*
X-789310Y1513210D01*
X-793119Y1501781D01*
X-800738Y1494162D01*
X-808357Y1490352D01*
X-823595Y1486543D01*
X-835024Y1486543D01*
X-850262Y1490352D01*
X-857881Y1494162D01*
X-865500Y1501781D01*
X-869310Y1513210D01*
X-869310Y1520829D01*
X-865500Y1532257D01*
X-861690Y1536067D01*
X-789310Y1612257D02*
X-789310Y1566543D01*
X-789310Y1589400D02*
X-869310Y1589400D01*
X-857881Y1581781D01*
X-850262Y1574162D01*
X-846452Y1566543D01*
X-923929Y1536067D02*
X-920119Y1532257D01*
X-916310Y1520829D01*
X-916310Y1513210D01*
X-920119Y1501781D01*
X-927738Y1494162D01*
X-935357Y1490352D01*
X-950595Y1486543D01*
X-962024Y1486543D01*
X-977262Y1490352D01*
X-984881Y1494162D01*
X-992500Y1501781D01*
X-996310Y1513210D01*
X-996310Y1520829D01*
X-992500Y1532257D01*
X-988690Y1536067D01*
X-969643Y1604638D02*
X-916310Y1604638D01*
X-1000119Y1585590D02*
X-942976Y1566543D01*
X-942976Y1616067D01*
X-987429Y2323467D02*
X-983619Y2319657D01*
X-979810Y2308229D01*
X-979810Y2300610D01*
X-983619Y2289181D01*
X-991238Y2281562D01*
X-998857Y2277752D01*
X-1014095Y2273943D01*
X-1025524Y2273943D01*
X-1040762Y2277752D01*
X-1048381Y2281562D01*
X-1056000Y2289181D01*
X-1059810Y2300610D01*
X-1059810Y2308229D01*
X-1056000Y2319657D01*
X-1052191Y2323467D01*
X-1059810Y2350133D02*
X-1059810Y2403467D01*
X-979810Y2369181D01*
X-1050929Y748667D02*
X-1047119Y744857D01*
X-1043310Y733429D01*
X-1043310Y725810D01*
X-1047119Y714381D01*
X-1054738Y706762D01*
X-1062357Y702952D01*
X-1077595Y699143D01*
X-1089024Y699143D01*
X-1104262Y702952D01*
X-1111881Y706762D01*
X-1119500Y714381D01*
X-1123310Y725810D01*
X-1123310Y733429D01*
X-1119500Y744857D01*
X-1115691Y748667D01*
X-1043310Y786762D02*
X-1043310Y802000D01*
X-1047119Y809619D01*
X-1050929Y813429D01*
X-1062357Y821048D01*
X-1077595Y824857D01*
X-1108072Y824857D01*
X-1115691Y821048D01*
X-1119500Y817238D01*
X-1123310Y809619D01*
X-1123310Y794381D01*
X-1119500Y786762D01*
X-1115691Y782952D01*
X-1108072Y779143D01*
X-1089024Y779143D01*
X-1081405Y782952D01*
X-1077595Y786762D01*
X-1073786Y794381D01*
X-1073786Y809619D01*
X-1077595Y817238D01*
X-1081405Y821048D01*
X-1089024Y824857D01*
X-648333Y2511429D02*
X-652143Y2507619D01*
X-663572Y2503810D01*
X-671191Y2503810D01*
X-682619Y2507619D01*
X-690238Y2515238D01*
X-694048Y2522857D01*
X-697857Y2538095D01*
X-697857Y2549524D01*
X-694048Y2564762D01*
X-690238Y2572381D01*
X-682619Y2580000D01*
X-671191Y2583810D01*
X-663572Y2583810D01*
X-652143Y2580000D01*
X-648333Y2576191D01*
X-579762Y2583810D02*
X-595000Y2583810D01*
X-602619Y2580000D01*
X-606429Y2576191D01*
X-614048Y2564762D01*
X-617857Y2549524D01*
X-617857Y2519048D01*
X-614048Y2511429D01*
X-610238Y2507619D01*
X-602619Y2503810D01*
X-587381Y2503810D01*
X-579762Y2507619D01*
X-575952Y2511429D01*
X-572143Y2519048D01*
X-572143Y2538095D01*
X-575952Y2545714D01*
X-579762Y2549524D01*
X-587381Y2553333D01*
X-602619Y2553333D01*
X-610238Y2549524D01*
X-614048Y2545714D01*
X-617857Y2538095D01*
X-902333Y2511429D02*
X-906143Y2507619D01*
X-917571Y2503810D01*
X-925190Y2503810D01*
X-936619Y2507619D01*
X-944238Y2515238D01*
X-948048Y2522857D01*
X-951857Y2538095D01*
X-951857Y2549524D01*
X-948048Y2564762D01*
X-944238Y2572381D01*
X-936619Y2580000D01*
X-925190Y2583810D01*
X-917571Y2583810D01*
X-906143Y2580000D01*
X-902333Y2576191D01*
X-829952Y2583810D02*
X-868048Y2583810D01*
X-871857Y2545714D01*
X-868048Y2549524D01*
X-860429Y2553333D01*
X-841381Y2553333D01*
X-833762Y2549524D01*
X-829952Y2545714D01*
X-826143Y2538095D01*
X-826143Y2519048D01*
X-829952Y2511429D01*
X-833762Y2507619D01*
X-841381Y2503810D01*
X-860429Y2503810D01*
X-868048Y2507619D01*
X-871857Y2511429D01*
X-1059810Y1907548D02*
X-995048Y1907548D01*
X-987429Y1911357D01*
X-983619Y1915167D01*
X-979810Y1922786D01*
X-979810Y1938024D01*
X-983619Y1945643D01*
X-987429Y1949452D01*
X-995048Y1953262D01*
X-1059810Y1953262D01*
X-979810Y2033262D02*
X-979810Y1987548D01*
X-979810Y2010405D02*
X-1059810Y2010405D01*
X-1048381Y2002786D01*
X-1040762Y1995167D01*
X-1036952Y1987548D01*
X-1250310Y163833D02*
X-1193167Y163833D01*
X-1181738Y160024D01*
X-1174119Y152405D01*
X-1170310Y140976D01*
X-1170310Y133357D01*
X-1170310Y243833D02*
X-1170310Y198119D01*
X-1170310Y220976D02*
X-1250310Y220976D01*
X-1238881Y213357D01*
X-1231262Y205738D01*
X-1227452Y198119D01*
X-1043310Y1536067D02*
X-1081405Y1509400D01*
X-1043310Y1490352D02*
X-1123310Y1490352D01*
X-1123310Y1520829D01*
X-1119500Y1528448D01*
X-1115691Y1532257D01*
X-1108072Y1536067D01*
X-1096643Y1536067D01*
X-1089024Y1532257D01*
X-1085214Y1528448D01*
X-1081405Y1520829D01*
X-1081405Y1490352D01*
X-1123310Y1562733D02*
X-1123310Y1612257D01*
X-1092833Y1585590D01*
X-1092833Y1597019D01*
X-1089024Y1604638D01*
X-1085214Y1608448D01*
X-1077595Y1612257D01*
X-1058548Y1612257D01*
X-1050929Y1608448D01*
X-1047119Y1604638D01*
X-1043310Y1597019D01*
X-1043310Y1574162D01*
X-1047119Y1566543D01*
X-1050929Y1562733D01*
X-1094110Y1909452D02*
X-1174110Y1909452D01*
X-1174110Y1928500D01*
X-1170300Y1939929D01*
X-1162681Y1947548D01*
X-1155062Y1951357D01*
X-1139824Y1955167D01*
X-1128395Y1955167D01*
X-1113157Y1951357D01*
X-1105538Y1947548D01*
X-1097919Y1939929D01*
X-1094110Y1928500D01*
X-1094110Y1909452D01*
X-1094110Y2031357D02*
X-1094110Y1985643D01*
X-1094110Y2008500D02*
X-1174110Y2008500D01*
X-1162681Y2000881D01*
X-1155062Y1993262D01*
X-1151252Y1985643D01*
X-1304929Y177167D02*
X-1301119Y173357D01*
X-1297310Y161929D01*
X-1297310Y154310D01*
X-1301119Y142881D01*
X-1308738Y135262D01*
X-1316357Y131452D01*
X-1331595Y127643D01*
X-1343024Y127643D01*
X-1358262Y131452D01*
X-1365881Y135262D01*
X-1373500Y142881D01*
X-1377310Y154310D01*
X-1377310Y161929D01*
X-1373500Y173357D01*
X-1369691Y177167D01*
X-1343024Y222881D02*
X-1346833Y215262D01*
X-1350643Y211452D01*
X-1358262Y207643D01*
X-1362072Y207643D01*
X-1369691Y211452D01*
X-1373500Y215262D01*
X-1377310Y222881D01*
X-1377310Y238119D01*
X-1373500Y245738D01*
X-1369691Y249548D01*
X-1362072Y253357D01*
X-1358262Y253357D01*
X-1350643Y249548D01*
X-1346833Y245738D01*
X-1343024Y238119D01*
X-1343024Y222881D01*
X-1339214Y215262D01*
X-1335405Y211452D01*
X-1327786Y207643D01*
X-1312548Y207643D01*
X-1304929Y211452D01*
X-1301119Y215262D01*
X-1297310Y222881D01*
X-1297310Y238119D01*
X-1301119Y245738D01*
X-1304929Y249548D01*
X-1312548Y253357D01*
X-1327786Y253357D01*
X-1335405Y249548D01*
X-1339214Y245738D01*
X-1343024Y238119D01*
X-968133Y662310D02*
X-994800Y700405D01*
X-1013848Y662310D02*
X-1013848Y742310D01*
X-983371Y742310D01*
X-975752Y738500D01*
X-971943Y734690D01*
X-968133Y727071D01*
X-968133Y715643D01*
X-971943Y708024D01*
X-975752Y704214D01*
X-983371Y700405D01*
X-1013848Y700405D01*
X-891943Y662310D02*
X-937657Y662310D01*
X-914800Y662310D02*
X-914800Y742310D01*
X-922419Y730881D01*
X-930038Y723262D01*
X-937657Y719452D01*
X-965833Y789310D02*
X-1003929Y789310D01*
X-1003929Y869310D01*
X-897262Y789310D02*
X-942976Y789310D01*
X-920119Y789310D02*
X-920119Y869310D01*
X-927738Y857881D01*
X-935357Y850262D01*
X-942976Y846452D01*
X-725810Y748667D02*
X-763905Y722000D01*
X-725810Y702952D02*
X-805810Y702952D01*
X-805810Y733429D01*
X-802000Y741048D01*
X-798190Y744857D01*
X-790571Y748667D01*
X-779143Y748667D01*
X-771524Y744857D01*
X-767714Y741048D01*
X-763905Y733429D01*
X-763905Y702952D01*
X-798190Y779143D02*
X-802000Y782952D01*
X-805810Y790571D01*
X-805810Y809619D01*
X-802000Y817238D01*
X-798190Y821048D01*
X-790571Y824857D01*
X-782952Y824857D01*
X-771524Y821048D01*
X-725810Y775333D01*
X-725810Y824857D01*
X-622929Y669929D02*
X-626738Y666119D01*
X-638167Y662310D01*
X-645786Y662310D01*
X-657214Y666119D01*
X-664833Y673738D01*
X-668643Y681357D01*
X-672452Y696595D01*
X-672452Y708024D01*
X-668643Y723262D01*
X-664833Y730881D01*
X-657214Y738500D01*
X-645786Y742310D01*
X-638167Y742310D01*
X-626738Y738500D01*
X-622929Y734690D01*
X-546738Y662310D02*
X-592452Y662310D01*
X-569595Y662310D02*
X-569595Y742310D01*
X-577214Y730881D01*
X-584833Y723262D01*
X-592452Y719452D01*
X-470548Y662310D02*
X-516262Y662310D01*
X-493405Y662310D02*
X-493405Y742310D01*
X-501024Y730881D01*
X-508643Y723262D01*
X-516262Y719452D01*
X-622929Y796929D02*
X-626738Y793119D01*
X-638167Y789310D01*
X-645786Y789310D01*
X-657214Y793119D01*
X-664833Y800738D01*
X-668643Y808357D01*
X-672452Y823595D01*
X-672452Y835024D01*
X-668643Y850262D01*
X-664833Y857881D01*
X-657214Y865500D01*
X-645786Y869310D01*
X-638167Y869310D01*
X-626738Y865500D01*
X-622929Y861690D01*
X-546738Y789310D02*
X-592452Y789310D01*
X-569595Y789310D02*
X-569595Y869310D01*
X-577214Y857881D01*
X-584833Y850262D01*
X-592452Y846452D01*
X-497214Y869310D02*
X-489595Y869310D01*
X-481976Y865500D01*
X-478167Y861690D01*
X-474357Y854071D01*
X-470548Y838833D01*
X-470548Y819786D01*
X-474357Y804548D01*
X-478167Y796929D01*
X-481976Y793119D01*
X-489595Y789310D01*
X-497214Y789310D01*
X-504833Y793119D01*
X-508643Y796929D01*
X-512452Y804548D01*
X-516262Y819786D01*
X-516262Y838833D01*
X-512452Y854071D01*
X-508643Y861690D01*
X-504833Y865500D01*
X-497214Y869310D01*
X-1250310Y-26667D02*
X-1193167Y-26667D01*
X-1181738Y-30476D01*
X-1174119Y-38095D01*
X-1170310Y-49524D01*
X-1170310Y-57143D01*
X-1242691Y7619D02*
X-1246500Y11429D01*
X-1250310Y19048D01*
X-1250310Y38095D01*
X-1246500Y45714D01*
X-1242691Y49524D01*
X-1235072Y53333D01*
X-1227452Y53333D01*
X-1216024Y49524D01*
X-1170310Y3810D01*
X-1170310Y53333D01*
X-805810Y1082048D02*
X-741048Y1082048D01*
X-733429Y1085857D01*
X-729619Y1089667D01*
X-725810Y1097286D01*
X-725810Y1112524D01*
X-729619Y1120143D01*
X-733429Y1123952D01*
X-741048Y1127762D01*
X-805810Y1127762D01*
X-805810Y1158238D02*
X-805810Y1207762D01*
X-775333Y1181095D01*
X-775333Y1192524D01*
X-771524Y1200143D01*
X-767714Y1203952D01*
X-760095Y1207762D01*
X-741048Y1207762D01*
X-733429Y1203952D01*
X-729619Y1200143D01*
X-725810Y1192524D01*
X-725810Y1169667D01*
X-729619Y1162048D01*
X-733429Y1158238D01*
%LPC*%
D14*
X0Y0D03*
D15*
X0Y254000D03*
X0Y508000D03*
X-1524000Y2794000D03*
X0Y762000D03*
X-1524000Y2540000D03*
X0Y1016000D03*
X-1524000Y2286000D03*
X0Y1270000D03*
X-1524000Y2032000D03*
X0Y1524000D03*
X-1524000Y1778000D03*
X0Y1778000D03*
X-1524000Y1524000D03*
X0Y2032000D03*
X-1524000Y1270000D03*
X0Y2286000D03*
X-1524000Y1016000D03*
X0Y2540000D03*
X-1524000Y762000D03*
X0Y2794000D03*
X-1524000Y508000D03*
X-1524000Y254000D03*
X-1524000Y0D03*
G36*
G01*
X-681250Y1797000D02*
X-715750Y1797000D01*
G75*
G02*
X-730500Y1811750I0J14750D01*
G01*
X-730500Y1841250D01*
G75*
G02*
X-715750Y1856000I14750J0D01*
G01*
X-681250Y1856000D01*
G75*
G02*
X-666500Y1841250I0J-14750D01*
G01*
X-666500Y1811750D01*
G75*
G02*
X-681250Y1797000I-14750J0D01*
G01*
G37*
G36*
G01*
X-681250Y1700000D02*
X-715750Y1700000D01*
G75*
G02*
X-730500Y1714750I0J14750D01*
G01*
X-730500Y1744250D01*
G75*
G02*
X-715750Y1759000I14750J0D01*
G01*
X-681250Y1759000D01*
G75*
G02*
X-666500Y1744250I0J-14750D01*
G01*
X-666500Y1714750D01*
G75*
G02*
X-681250Y1700000I-14750J0D01*
G01*
G37*
G36*
G01*
X-554250Y1797000D02*
X-588750Y1797000D01*
G75*
G02*
X-603500Y1811750I0J14750D01*
G01*
X-603500Y1841250D01*
G75*
G02*
X-588750Y1856000I14750J0D01*
G01*
X-554250Y1856000D01*
G75*
G02*
X-539500Y1841250I0J-14750D01*
G01*
X-539500Y1811750D01*
G75*
G02*
X-554250Y1797000I-14750J0D01*
G01*
G37*
G36*
G01*
X-554250Y1700000D02*
X-588750Y1700000D01*
G75*
G02*
X-603500Y1714750I0J14750D01*
G01*
X-603500Y1744250D01*
G75*
G02*
X-588750Y1759000I14750J0D01*
G01*
X-554250Y1759000D01*
G75*
G02*
X-539500Y1744250I0J-14750D01*
G01*
X-539500Y1714750D01*
G75*
G02*
X-554250Y1700000I-14750J0D01*
G01*
G37*
D16*
X-762000Y2730500D03*
D17*
X-476000Y2205500D03*
X-286000Y2205500D03*
X-286000Y1985500D03*
X-381000Y1985500D03*
X-476000Y1985500D03*
G36*
G01*
X-465350Y2406600D02*
X-499850Y2406600D01*
G75*
G02*
X-514600Y2421350I0J14750D01*
G01*
X-514600Y2450850D01*
G75*
G02*
X-499850Y2465600I14750J0D01*
G01*
X-465350Y2465600D01*
G75*
G02*
X-450600Y2450850I0J-14750D01*
G01*
X-450600Y2421350D01*
G75*
G02*
X-465350Y2406600I-14750J0D01*
G01*
G37*
G36*
G01*
X-465350Y2309600D02*
X-499850Y2309600D01*
G75*
G02*
X-514600Y2324350I0J14750D01*
G01*
X-514600Y2353850D01*
G75*
G02*
X-499850Y2368600I14750J0D01*
G01*
X-465350Y2368600D01*
G75*
G02*
X-450600Y2353850I0J-14750D01*
G01*
X-450600Y2324350D01*
G75*
G02*
X-465350Y2309600I-14750J0D01*
G01*
G37*
G36*
G01*
X-135150Y2178000D02*
X-169650Y2178000D01*
G75*
G02*
X-184400Y2192750I0J14750D01*
G01*
X-184400Y2222250D01*
G75*
G02*
X-169650Y2237000I14750J0D01*
G01*
X-135150Y2237000D01*
G75*
G02*
X-120400Y2222250I0J-14750D01*
G01*
X-120400Y2192750D01*
G75*
G02*
X-135150Y2178000I-14750J0D01*
G01*
G37*
G36*
G01*
X-135150Y2081000D02*
X-169650Y2081000D01*
G75*
G02*
X-184400Y2095750I0J14750D01*
G01*
X-184400Y2125250D01*
G75*
G02*
X-169650Y2140000I14750J0D01*
G01*
X-135150Y2140000D01*
G75*
G02*
X-120400Y2125250I0J-14750D01*
G01*
X-120400Y2095750D01*
G75*
G02*
X-135150Y2081000I-14750J0D01*
G01*
G37*
G36*
G01*
X-842750Y1759000D02*
X-808250Y1759000D01*
G75*
G02*
X-793500Y1744250I0J-14750D01*
G01*
X-793500Y1714750D01*
G75*
G02*
X-808250Y1700000I-14750J0D01*
G01*
X-842750Y1700000D01*
G75*
G02*
X-857500Y1714750I0J14750D01*
G01*
X-857500Y1744250D01*
G75*
G02*
X-842750Y1759000I14750J0D01*
G01*
G37*
G36*
G01*
X-842750Y1856000D02*
X-808250Y1856000D01*
G75*
G02*
X-793500Y1841250I0J-14750D01*
G01*
X-793500Y1811750D01*
G75*
G02*
X-808250Y1797000I-14750J0D01*
G01*
X-842750Y1797000D01*
G75*
G02*
X-857500Y1811750I0J14750D01*
G01*
X-857500Y1841250D01*
G75*
G02*
X-842750Y1856000I14750J0D01*
G01*
G37*
D18*
X-1270000Y2159000D03*
D12*
G36*
X-189000Y2487940D02*
G01*
X-186547Y2487940D01*
X-181663Y2487459D01*
X-176851Y2486502D01*
X-172156Y2485077D01*
X-167622Y2483200D01*
X-163295Y2480886D01*
X-159215Y2478160D01*
X-155422Y2475048D01*
X-151952Y2471578D01*
X-148840Y2467785D01*
X-146114Y2463705D01*
X-143801Y2459378D01*
X-141923Y2454845D01*
X-140498Y2450149D01*
X-139541Y2445337D01*
X-139060Y2440453D01*
X-139060Y2438000D01*
X-139000Y2438000D01*
X-139000Y2388000D01*
X-139060Y2388000D01*
X-139060Y2385547D01*
X-139541Y2380664D01*
X-140498Y2375851D01*
X-141923Y2371156D01*
X-143801Y2366622D01*
X-146114Y2362295D01*
X-148840Y2358215D01*
X-151952Y2354422D01*
X-155422Y2350952D01*
X-159215Y2347840D01*
X-163295Y2345114D01*
X-167622Y2342801D01*
X-172156Y2340923D01*
X-176851Y2339498D01*
X-181663Y2338541D01*
X-186547Y2338060D01*
X-189000Y2338060D01*
X-189000Y2338000D01*
X-239000Y2338000D01*
X-239000Y2488000D01*
X-189000Y2488000D01*
X-189000Y2487940D01*
G37*
G36*
X-269000Y2338000D02*
G01*
X-319000Y2338000D01*
X-319000Y2338060D01*
X-321453Y2338060D01*
X-326337Y2338541D01*
X-331149Y2339498D01*
X-335845Y2340923D01*
X-340378Y2342801D01*
X-344705Y2345114D01*
X-348785Y2347840D01*
X-352578Y2350952D01*
X-356048Y2354422D01*
X-359160Y2358215D01*
X-361886Y2362295D01*
X-364199Y2366622D01*
X-366077Y2371156D01*
X-367502Y2375851D01*
X-368459Y2380664D01*
X-368940Y2385547D01*
X-368940Y2388000D01*
X-369000Y2388000D01*
X-369000Y2438000D01*
X-368940Y2438000D01*
X-368940Y2440453D01*
X-368459Y2445337D01*
X-367502Y2450149D01*
X-366077Y2454845D01*
X-364199Y2459378D01*
X-361886Y2463705D01*
X-359160Y2467785D01*
X-356048Y2471578D01*
X-352578Y2475048D01*
X-348785Y2478160D01*
X-344705Y2480886D01*
X-340378Y2483200D01*
X-335845Y2485077D01*
X-331149Y2486502D01*
X-326337Y2487459D01*
X-321453Y2487940D01*
X-319000Y2487940D01*
X-319000Y2488000D01*
X-269000Y2488000D01*
X-269000Y2338000D01*
G37*
G36*
X-329000Y472200D02*
G01*
X-329000Y522200D01*
X-328940Y522200D01*
X-328940Y524653D01*
X-328459Y529537D01*
X-327502Y534349D01*
X-326077Y539045D01*
X-324200Y543578D01*
X-321886Y547905D01*
X-319160Y551985D01*
X-316048Y555778D01*
X-312578Y559248D01*
X-308785Y562360D01*
X-304705Y565086D01*
X-300378Y567400D01*
X-295845Y569277D01*
X-291149Y570702D01*
X-286337Y571659D01*
X-281453Y572140D01*
X-279000Y572140D01*
X-279000Y572200D01*
X-229000Y572200D01*
X-229000Y572140D01*
X-226547Y572140D01*
X-221663Y571659D01*
X-216851Y570702D01*
X-212155Y569277D01*
X-207622Y567400D01*
X-203295Y565086D01*
X-199215Y562360D01*
X-195422Y559248D01*
X-191952Y555778D01*
X-188840Y551985D01*
X-186114Y547905D01*
X-183800Y543578D01*
X-181923Y539045D01*
X-180498Y534349D01*
X-179541Y529537D01*
X-179060Y524653D01*
X-179060Y522200D01*
X-179000Y522200D01*
X-179000Y472200D01*
X-329000Y472200D01*
G37*
G36*
X-179060Y392200D02*
G01*
X-179060Y389747D01*
X-179541Y384863D01*
X-180498Y380051D01*
X-181923Y375355D01*
X-183800Y370822D01*
X-186114Y366495D01*
X-188840Y362415D01*
X-191952Y358622D01*
X-195422Y355152D01*
X-199215Y352040D01*
X-203295Y349314D01*
X-207622Y347001D01*
X-212155Y345123D01*
X-216851Y343698D01*
X-221663Y342741D01*
X-226547Y342260D01*
X-229000Y342260D01*
X-229000Y342200D01*
X-279000Y342200D01*
X-279000Y342260D01*
X-281453Y342260D01*
X-286337Y342741D01*
X-291149Y343698D01*
X-295845Y345123D01*
X-300378Y347001D01*
X-304705Y349314D01*
X-308785Y352040D01*
X-312578Y355152D01*
X-316048Y358622D01*
X-319160Y362415D01*
X-321886Y366495D01*
X-324200Y370822D01*
X-326077Y375355D01*
X-327502Y380051D01*
X-328459Y384863D01*
X-328940Y389747D01*
X-328940Y392200D01*
X-329000Y392200D01*
X-329000Y442200D01*
X-179000Y442200D01*
X-179000Y392200D01*
X-179060Y392200D01*
G37*
G36*
G01*
X-969750Y1759000D02*
X-935250Y1759000D01*
G75*
G02*
X-920500Y1744250I0J-14750D01*
G01*
X-920500Y1714750D01*
G75*
G02*
X-935250Y1700000I-14750J0D01*
G01*
X-969750Y1700000D01*
G75*
G02*
X-984500Y1714750I0J14750D01*
G01*
X-984500Y1744250D01*
G75*
G02*
X-969750Y1759000I14750J0D01*
G01*
G37*
G36*
G01*
X-969750Y1856000D02*
X-935250Y1856000D01*
G75*
G02*
X-920500Y1841250I0J-14750D01*
G01*
X-920500Y1811750D01*
G75*
G02*
X-935250Y1797000I-14750J0D01*
G01*
X-969750Y1797000D01*
G75*
G02*
X-984500Y1811750I0J14750D01*
G01*
X-984500Y1841250D01*
G75*
G02*
X-969750Y1856000I14750J0D01*
G01*
G37*
G36*
G01*
X-1033250Y2140000D02*
X-998750Y2140000D01*
G75*
G02*
X-984000Y2125250I0J-14750D01*
G01*
X-984000Y2095750D01*
G75*
G02*
X-998750Y2081000I-14750J0D01*
G01*
X-1033250Y2081000D01*
G75*
G02*
X-1048000Y2095750I0J14750D01*
G01*
X-1048000Y2125250D01*
G75*
G02*
X-1033250Y2140000I14750J0D01*
G01*
G37*
G36*
G01*
X-1033250Y2237000D02*
X-998750Y2237000D01*
G75*
G02*
X-984000Y2222250I0J-14750D01*
G01*
X-984000Y2192750D01*
G75*
G02*
X-998750Y2178000I-14750J0D01*
G01*
X-1033250Y2178000D01*
G75*
G02*
X-1048000Y2192750I0J14750D01*
G01*
X-1048000Y2222250D01*
G75*
G02*
X-1033250Y2237000I14750J0D01*
G01*
G37*
G36*
G01*
X-1147550Y440500D02*
X-1113050Y440500D01*
G75*
G02*
X-1098300Y425750I0J-14750D01*
G01*
X-1098300Y396250D01*
G75*
G02*
X-1113050Y381500I-14750J0D01*
G01*
X-1147550Y381500D01*
G75*
G02*
X-1162300Y396250I0J14750D01*
G01*
X-1162300Y425750D01*
G75*
G02*
X-1147550Y440500I14750J0D01*
G01*
G37*
G36*
G01*
X-1147550Y537500D02*
X-1113050Y537500D01*
G75*
G02*
X-1098300Y522750I0J-14750D01*
G01*
X-1098300Y493250D01*
G75*
G02*
X-1113050Y478500I-14750J0D01*
G01*
X-1147550Y478500D01*
G75*
G02*
X-1162300Y493250I0J14750D01*
G01*
X-1162300Y522750D01*
G75*
G02*
X-1147550Y537500I14750J0D01*
G01*
G37*
G36*
X-382500Y1703060D02*
G01*
X-384953Y1703060D01*
X-389836Y1703541D01*
X-394649Y1704498D01*
X-399344Y1705923D01*
X-403878Y1707800D01*
X-408205Y1710114D01*
X-412285Y1712840D01*
X-416078Y1715952D01*
X-419548Y1719422D01*
X-422660Y1723215D01*
X-425386Y1727295D01*
X-427699Y1731622D01*
X-429577Y1736155D01*
X-431002Y1740851D01*
X-431959Y1745663D01*
X-432440Y1750547D01*
X-432440Y1753000D01*
X-432500Y1753000D01*
X-432500Y1803000D01*
X-432440Y1803000D01*
X-432440Y1805453D01*
X-431959Y1810336D01*
X-431002Y1815149D01*
X-429577Y1819844D01*
X-427699Y1824378D01*
X-425386Y1828705D01*
X-422660Y1832785D01*
X-419548Y1836578D01*
X-416078Y1840048D01*
X-412285Y1843160D01*
X-408205Y1845886D01*
X-403878Y1848199D01*
X-399344Y1850077D01*
X-394649Y1851502D01*
X-389836Y1852459D01*
X-384953Y1852940D01*
X-382500Y1852940D01*
X-382500Y1853000D01*
X-332500Y1853000D01*
X-332500Y1703000D01*
X-382500Y1703000D01*
X-382500Y1703060D01*
G37*
G36*
X-302500Y1853000D02*
G01*
X-252500Y1853000D01*
X-252500Y1852940D01*
X-250047Y1852940D01*
X-245163Y1852459D01*
X-240351Y1851502D01*
X-235655Y1850077D01*
X-231122Y1848199D01*
X-226795Y1845886D01*
X-222715Y1843160D01*
X-218922Y1840048D01*
X-215452Y1836578D01*
X-212340Y1832785D01*
X-209614Y1828705D01*
X-207300Y1824378D01*
X-205423Y1819844D01*
X-203998Y1815149D01*
X-203041Y1810336D01*
X-202560Y1805453D01*
X-202560Y1803000D01*
X-202500Y1803000D01*
X-202500Y1753000D01*
X-202560Y1753000D01*
X-202560Y1750547D01*
X-203041Y1745663D01*
X-203998Y1740851D01*
X-205423Y1736155D01*
X-207300Y1731622D01*
X-209614Y1727295D01*
X-212340Y1723215D01*
X-215452Y1719422D01*
X-218922Y1715952D01*
X-222715Y1712840D01*
X-226795Y1710114D01*
X-231122Y1707800D01*
X-235655Y1705923D01*
X-240351Y1704498D01*
X-245163Y1703541D01*
X-250047Y1703060D01*
X-252500Y1703060D01*
X-252500Y1703000D01*
X-302500Y1703000D01*
X-302500Y1853000D01*
G37*
D19*
X-482600Y2743200D03*
X-1079500Y2730500D03*
G36*
G01*
X-616000Y2421150D02*
X-616000Y2455650D01*
G75*
G02*
X-601250Y2470400I14750J0D01*
G01*
X-571750Y2470400D01*
G75*
G02*
X-557000Y2455650I0J-14750D01*
G01*
X-557000Y2421150D01*
G75*
G02*
X-571750Y2406400I-14750J0D01*
G01*
X-601250Y2406400D01*
G75*
G02*
X-616000Y2421150I0J14750D01*
G01*
G37*
G36*
G01*
X-713000Y2421150D02*
X-713000Y2455650D01*
G75*
G02*
X-698250Y2470400I14750J0D01*
G01*
X-668750Y2470400D01*
G75*
G02*
X-654000Y2455650I0J-14750D01*
G01*
X-654000Y2421150D01*
G75*
G02*
X-668750Y2406400I-14750J0D01*
G01*
X-698250Y2406400D01*
G75*
G02*
X-713000Y2421150I0J14750D01*
G01*
G37*
G36*
G01*
X-908000Y2455650D02*
X-908000Y2421150D01*
G75*
G02*
X-922750Y2406400I-14750J0D01*
G01*
X-952250Y2406400D01*
G75*
G02*
X-967000Y2421150I0J14750D01*
G01*
X-967000Y2455650D01*
G75*
G02*
X-952250Y2470400I14750J0D01*
G01*
X-922750Y2470400D01*
G75*
G02*
X-908000Y2455650I0J-14750D01*
G01*
G37*
G36*
G01*
X-811000Y2455650D02*
X-811000Y2421150D01*
G75*
G02*
X-825750Y2406400I-14750J0D01*
G01*
X-855250Y2406400D01*
G75*
G02*
X-870000Y2421150I0J14750D01*
G01*
X-870000Y2455650D01*
G75*
G02*
X-855250Y2470400I14750J0D01*
G01*
X-825750Y2470400D01*
G75*
G02*
X-811000Y2455650I0J-14750D01*
G01*
G37*
G36*
G01*
X-667000Y2036500D02*
X-657000Y2036500D01*
G75*
G02*
X-652000Y2031500I0J-5000D01*
G01*
X-652000Y1986500D01*
G75*
G02*
X-657000Y1981500I-5000J0D01*
G01*
X-667000Y1981500D01*
G75*
G02*
X-672000Y1986500I0J5000D01*
G01*
X-672000Y2031500D01*
G75*
G02*
X-667000Y2036500I5000J0D01*
G01*
G37*
G36*
G01*
X-707000Y2036500D02*
X-697000Y2036500D01*
G75*
G02*
X-692000Y2031500I0J-5000D01*
G01*
X-692000Y1986500D01*
G75*
G02*
X-697000Y1981500I-5000J0D01*
G01*
X-707000Y1981500D01*
G75*
G02*
X-712000Y1986500I0J5000D01*
G01*
X-712000Y2031500D01*
G75*
G02*
X-707000Y2036500I5000J0D01*
G01*
G37*
G36*
G01*
X-747000Y2036500D02*
X-737000Y2036500D01*
G75*
G02*
X-732000Y2031500I0J-5000D01*
G01*
X-732000Y1986500D01*
G75*
G02*
X-737000Y1981500I-5000J0D01*
G01*
X-747000Y1981500D01*
G75*
G02*
X-752000Y1986500I0J5000D01*
G01*
X-752000Y2031500D01*
G75*
G02*
X-747000Y2036500I5000J0D01*
G01*
G37*
G36*
G01*
X-787000Y2036500D02*
X-777000Y2036500D01*
G75*
G02*
X-772000Y2031500I0J-5000D01*
G01*
X-772000Y1986500D01*
G75*
G02*
X-777000Y1981500I-5000J0D01*
G01*
X-787000Y1981500D01*
G75*
G02*
X-792000Y1986500I0J5000D01*
G01*
X-792000Y2031500D01*
G75*
G02*
X-787000Y2036500I5000J0D01*
G01*
G37*
G36*
G01*
X-827000Y2036500D02*
X-817000Y2036500D01*
G75*
G02*
X-812000Y2031500I0J-5000D01*
G01*
X-812000Y1986500D01*
G75*
G02*
X-817000Y1981500I-5000J0D01*
G01*
X-827000Y1981500D01*
G75*
G02*
X-832000Y1986500I0J5000D01*
G01*
X-832000Y2031500D01*
G75*
G02*
X-827000Y2036500I5000J0D01*
G01*
G37*
G36*
G01*
X-867000Y2036500D02*
X-857000Y2036500D01*
G75*
G02*
X-852000Y2031500I0J-5000D01*
G01*
X-852000Y1986500D01*
G75*
G02*
X-857000Y1981500I-5000J0D01*
G01*
X-867000Y1981500D01*
G75*
G02*
X-872000Y1986500I0J5000D01*
G01*
X-872000Y2031500D01*
G75*
G02*
X-867000Y2036500I5000J0D01*
G01*
G37*
G36*
G01*
X-884500Y2064000D02*
X-884500Y2054000D01*
G75*
G02*
X-889500Y2049000I-5000J0D01*
G01*
X-934500Y2049000D01*
G75*
G02*
X-939500Y2054000I0J5000D01*
G01*
X-939500Y2064000D01*
G75*
G02*
X-934500Y2069000I5000J0D01*
G01*
X-889500Y2069000D01*
G75*
G02*
X-884500Y2064000I0J-5000D01*
G01*
G37*
G36*
G01*
X-884500Y2104000D02*
X-884500Y2094000D01*
G75*
G02*
X-889500Y2089000I-5000J0D01*
G01*
X-934500Y2089000D01*
G75*
G02*
X-939500Y2094000I0J5000D01*
G01*
X-939500Y2104000D01*
G75*
G02*
X-934500Y2109000I5000J0D01*
G01*
X-889500Y2109000D01*
G75*
G02*
X-884500Y2104000I0J-5000D01*
G01*
G37*
G36*
G01*
X-884500Y2144000D02*
X-884500Y2134000D01*
G75*
G02*
X-889500Y2129000I-5000J0D01*
G01*
X-934500Y2129000D01*
G75*
G02*
X-939500Y2134000I0J5000D01*
G01*
X-939500Y2144000D01*
G75*
G02*
X-934500Y2149000I5000J0D01*
G01*
X-889500Y2149000D01*
G75*
G02*
X-884500Y2144000I0J-5000D01*
G01*
G37*
G36*
G01*
X-884500Y2184000D02*
X-884500Y2174000D01*
G75*
G02*
X-889500Y2169000I-5000J0D01*
G01*
X-934500Y2169000D01*
G75*
G02*
X-939500Y2174000I0J5000D01*
G01*
X-939500Y2184000D01*
G75*
G02*
X-934500Y2189000I5000J0D01*
G01*
X-889500Y2189000D01*
G75*
G02*
X-884500Y2184000I0J-5000D01*
G01*
G37*
G36*
G01*
X-884500Y2224000D02*
X-884500Y2214000D01*
G75*
G02*
X-889500Y2209000I-5000J0D01*
G01*
X-934500Y2209000D01*
G75*
G02*
X-939500Y2214000I0J5000D01*
G01*
X-939500Y2224000D01*
G75*
G02*
X-934500Y2229000I5000J0D01*
G01*
X-889500Y2229000D01*
G75*
G02*
X-884500Y2224000I0J-5000D01*
G01*
G37*
G36*
G01*
X-884500Y2264000D02*
X-884500Y2254000D01*
G75*
G02*
X-889500Y2249000I-5000J0D01*
G01*
X-934500Y2249000D01*
G75*
G02*
X-939500Y2254000I0J5000D01*
G01*
X-939500Y2264000D01*
G75*
G02*
X-934500Y2269000I5000J0D01*
G01*
X-889500Y2269000D01*
G75*
G02*
X-884500Y2264000I0J-5000D01*
G01*
G37*
G36*
G01*
X-867000Y2336500D02*
X-857000Y2336500D01*
G75*
G02*
X-852000Y2331500I0J-5000D01*
G01*
X-852000Y2286500D01*
G75*
G02*
X-857000Y2281500I-5000J0D01*
G01*
X-867000Y2281500D01*
G75*
G02*
X-872000Y2286500I0J5000D01*
G01*
X-872000Y2331500D01*
G75*
G02*
X-867000Y2336500I5000J0D01*
G01*
G37*
G36*
G01*
X-827000Y2336500D02*
X-817000Y2336500D01*
G75*
G02*
X-812000Y2331500I0J-5000D01*
G01*
X-812000Y2286500D01*
G75*
G02*
X-817000Y2281500I-5000J0D01*
G01*
X-827000Y2281500D01*
G75*
G02*
X-832000Y2286500I0J5000D01*
G01*
X-832000Y2331500D01*
G75*
G02*
X-827000Y2336500I5000J0D01*
G01*
G37*
G36*
G01*
X-787000Y2336500D02*
X-777000Y2336500D01*
G75*
G02*
X-772000Y2331500I0J-5000D01*
G01*
X-772000Y2286500D01*
G75*
G02*
X-777000Y2281500I-5000J0D01*
G01*
X-787000Y2281500D01*
G75*
G02*
X-792000Y2286500I0J5000D01*
G01*
X-792000Y2331500D01*
G75*
G02*
X-787000Y2336500I5000J0D01*
G01*
G37*
G36*
G01*
X-747000Y2336500D02*
X-737000Y2336500D01*
G75*
G02*
X-732000Y2331500I0J-5000D01*
G01*
X-732000Y2286500D01*
G75*
G02*
X-737000Y2281500I-5000J0D01*
G01*
X-747000Y2281500D01*
G75*
G02*
X-752000Y2286500I0J5000D01*
G01*
X-752000Y2331500D01*
G75*
G02*
X-747000Y2336500I5000J0D01*
G01*
G37*
G36*
G01*
X-707000Y2336500D02*
X-697000Y2336500D01*
G75*
G02*
X-692000Y2331500I0J-5000D01*
G01*
X-692000Y2286500D01*
G75*
G02*
X-697000Y2281500I-5000J0D01*
G01*
X-707000Y2281500D01*
G75*
G02*
X-712000Y2286500I0J5000D01*
G01*
X-712000Y2331500D01*
G75*
G02*
X-707000Y2336500I5000J0D01*
G01*
G37*
G36*
G01*
X-667000Y2336500D02*
X-657000Y2336500D01*
G75*
G02*
X-652000Y2331500I0J-5000D01*
G01*
X-652000Y2286500D01*
G75*
G02*
X-657000Y2281500I-5000J0D01*
G01*
X-667000Y2281500D01*
G75*
G02*
X-672000Y2286500I0J5000D01*
G01*
X-672000Y2331500D01*
G75*
G02*
X-667000Y2336500I5000J0D01*
G01*
G37*
G36*
G01*
X-584500Y2264000D02*
X-584500Y2254000D01*
G75*
G02*
X-589500Y2249000I-5000J0D01*
G01*
X-634500Y2249000D01*
G75*
G02*
X-639500Y2254000I0J5000D01*
G01*
X-639500Y2264000D01*
G75*
G02*
X-634500Y2269000I5000J0D01*
G01*
X-589500Y2269000D01*
G75*
G02*
X-584500Y2264000I0J-5000D01*
G01*
G37*
G36*
G01*
X-584500Y2224000D02*
X-584500Y2214000D01*
G75*
G02*
X-589500Y2209000I-5000J0D01*
G01*
X-634500Y2209000D01*
G75*
G02*
X-639500Y2214000I0J5000D01*
G01*
X-639500Y2224000D01*
G75*
G02*
X-634500Y2229000I5000J0D01*
G01*
X-589500Y2229000D01*
G75*
G02*
X-584500Y2224000I0J-5000D01*
G01*
G37*
G36*
G01*
X-584500Y2184000D02*
X-584500Y2174000D01*
G75*
G02*
X-589500Y2169000I-5000J0D01*
G01*
X-634500Y2169000D01*
G75*
G02*
X-639500Y2174000I0J5000D01*
G01*
X-639500Y2184000D01*
G75*
G02*
X-634500Y2189000I5000J0D01*
G01*
X-589500Y2189000D01*
G75*
G02*
X-584500Y2184000I0J-5000D01*
G01*
G37*
G36*
G01*
X-584500Y2144000D02*
X-584500Y2134000D01*
G75*
G02*
X-589500Y2129000I-5000J0D01*
G01*
X-634500Y2129000D01*
G75*
G02*
X-639500Y2134000I0J5000D01*
G01*
X-639500Y2144000D01*
G75*
G02*
X-634500Y2149000I5000J0D01*
G01*
X-589500Y2149000D01*
G75*
G02*
X-584500Y2144000I0J-5000D01*
G01*
G37*
G36*
G01*
X-584500Y2104000D02*
X-584500Y2094000D01*
G75*
G02*
X-589500Y2089000I-5000J0D01*
G01*
X-634500Y2089000D01*
G75*
G02*
X-639500Y2094000I0J5000D01*
G01*
X-639500Y2104000D01*
G75*
G02*
X-634500Y2109000I5000J0D01*
G01*
X-589500Y2109000D01*
G75*
G02*
X-584500Y2104000I0J-5000D01*
G01*
G37*
G36*
G01*
X-584500Y2064000D02*
X-584500Y2054000D01*
G75*
G02*
X-589500Y2049000I-5000J0D01*
G01*
X-634500Y2049000D01*
G75*
G02*
X-639500Y2054000I0J5000D01*
G01*
X-639500Y2064000D01*
G75*
G02*
X-634500Y2069000I5000J0D01*
G01*
X-589500Y2069000D01*
G75*
G02*
X-584500Y2064000I0J-5000D01*
G01*
G37*
D12*
G36*
X-179060Y-14200D02*
G01*
X-179060Y-16653D01*
X-179541Y-21537D01*
X-180498Y-26349D01*
X-181923Y-31044D01*
X-183800Y-35578D01*
X-186114Y-39905D01*
X-188840Y-43985D01*
X-191952Y-47778D01*
X-195422Y-51248D01*
X-199215Y-54360D01*
X-203295Y-57086D01*
X-207622Y-59399D01*
X-212155Y-61277D01*
X-216851Y-62702D01*
X-221663Y-63659D01*
X-226547Y-64140D01*
X-229000Y-64140D01*
X-229000Y-64200D01*
X-279000Y-64200D01*
X-279000Y-64140D01*
X-281453Y-64140D01*
X-286337Y-63659D01*
X-291149Y-62702D01*
X-295845Y-61277D01*
X-300378Y-59399D01*
X-304705Y-57086D01*
X-308785Y-54360D01*
X-312578Y-51248D01*
X-316048Y-47778D01*
X-319160Y-43985D01*
X-321886Y-39905D01*
X-324200Y-35578D01*
X-326077Y-31044D01*
X-327502Y-26349D01*
X-328459Y-21537D01*
X-328940Y-16653D01*
X-328940Y-14200D01*
X-329000Y-14200D01*
X-329000Y35800D01*
X-179000Y35800D01*
X-179000Y-14200D01*
X-179060Y-14200D01*
G37*
G36*
X-329000Y65800D02*
G01*
X-329000Y115800D01*
X-328940Y115800D01*
X-328940Y118253D01*
X-328459Y123136D01*
X-327502Y127949D01*
X-326077Y132645D01*
X-324200Y137178D01*
X-321886Y141505D01*
X-319160Y145585D01*
X-316048Y149378D01*
X-312578Y152848D01*
X-308785Y155960D01*
X-304705Y158686D01*
X-300378Y161000D01*
X-295845Y162877D01*
X-291149Y164302D01*
X-286337Y165259D01*
X-281453Y165740D01*
X-279000Y165740D01*
X-279000Y165800D01*
X-229000Y165800D01*
X-229000Y165740D01*
X-226547Y165740D01*
X-221663Y165259D01*
X-216851Y164302D01*
X-212155Y162877D01*
X-207622Y161000D01*
X-203295Y158686D01*
X-199215Y155960D01*
X-195422Y152848D01*
X-191952Y149378D01*
X-188840Y145585D01*
X-186114Y141505D01*
X-183800Y137178D01*
X-181923Y132645D01*
X-180498Y127949D01*
X-179541Y123136D01*
X-179060Y118253D01*
X-179060Y115800D01*
X-179000Y115800D01*
X-179000Y65800D01*
X-329000Y65800D01*
G37*
D20*
X-614500Y16000D03*
D21*
X-762000Y168500D03*
D20*
X-909500Y16000D03*
G36*
G01*
X-1096750Y1759000D02*
X-1062250Y1759000D01*
G75*
G02*
X-1047500Y1744250I0J-14750D01*
G01*
X-1047500Y1714750D01*
G75*
G02*
X-1062250Y1700000I-14750J0D01*
G01*
X-1096750Y1700000D01*
G75*
G02*
X-1111500Y1714750I0J14750D01*
G01*
X-1111500Y1744250D01*
G75*
G02*
X-1096750Y1759000I14750J0D01*
G01*
G37*
G36*
G01*
X-1096750Y1856000D02*
X-1062250Y1856000D01*
G75*
G02*
X-1047500Y1841250I0J-14750D01*
G01*
X-1047500Y1811750D01*
G75*
G02*
X-1062250Y1797000I-14750J0D01*
G01*
X-1096750Y1797000D01*
G75*
G02*
X-1111500Y1811750I0J14750D01*
G01*
X-1111500Y1841250D01*
G75*
G02*
X-1096750Y1856000I14750J0D01*
G01*
G37*
G36*
G01*
X-1244375Y1876500D02*
X-1295625Y1876500D01*
G75*
G02*
X-1317500Y1898375I0J21875D01*
G01*
X-1317500Y1942125D01*
G75*
G02*
X-1295625Y1964000I21875J0D01*
G01*
X-1244375Y1964000D01*
G75*
G02*
X-1222500Y1942125I0J-21875D01*
G01*
X-1222500Y1898375D01*
G75*
G02*
X-1244375Y1876500I-21875J0D01*
G01*
G37*
G36*
G01*
X-1244375Y1719000D02*
X-1295625Y1719000D01*
G75*
G02*
X-1317500Y1740875I0J21875D01*
G01*
X-1317500Y1784625D01*
G75*
G02*
X-1295625Y1806500I21875J0D01*
G01*
X-1244375Y1806500D01*
G75*
G02*
X-1222500Y1784625I0J-21875D01*
G01*
X-1222500Y1740875D01*
G75*
G02*
X-1244375Y1719000I-21875J0D01*
G01*
G37*
G36*
G01*
X-1359125Y394250D02*
X-1307875Y394250D01*
G75*
G02*
X-1286000Y372375I0J-21875D01*
G01*
X-1286000Y328625D01*
G75*
G02*
X-1307875Y306750I-21875J0D01*
G01*
X-1359125Y306750D01*
G75*
G02*
X-1381000Y328625I0J21875D01*
G01*
X-1381000Y372375D01*
G75*
G02*
X-1359125Y394250I21875J0D01*
G01*
G37*
G36*
G01*
X-1359125Y551750D02*
X-1307875Y551750D01*
G75*
G02*
X-1286000Y529875I0J-21875D01*
G01*
X-1286000Y486125D01*
G75*
G02*
X-1307875Y464250I-21875J0D01*
G01*
X-1359125Y464250D01*
G75*
G02*
X-1381000Y486125I0J21875D01*
G01*
X-1381000Y529875D01*
G75*
G02*
X-1359125Y551750I21875J0D01*
G01*
G37*
G36*
G01*
X-933500Y490750D02*
X-933500Y525250D01*
G75*
G02*
X-918750Y540000I14750J0D01*
G01*
X-889250Y540000D01*
G75*
G02*
X-874500Y525250I0J-14750D01*
G01*
X-874500Y490750D01*
G75*
G02*
X-889250Y476000I-14750J0D01*
G01*
X-918750Y476000D01*
G75*
G02*
X-933500Y490750I0J14750D01*
G01*
G37*
G36*
G01*
X-1030500Y490750D02*
X-1030500Y525250D01*
G75*
G02*
X-1015750Y540000I14750J0D01*
G01*
X-986250Y540000D01*
G75*
G02*
X-971500Y525250I0J-14750D01*
G01*
X-971500Y490750D01*
G75*
G02*
X-986250Y476000I-14750J0D01*
G01*
X-1015750Y476000D01*
G75*
G02*
X-1030500Y490750I0J14750D01*
G01*
G37*
G36*
G01*
X-933500Y363750D02*
X-933500Y398250D01*
G75*
G02*
X-918750Y413000I14750J0D01*
G01*
X-889250Y413000D01*
G75*
G02*
X-874500Y398250I0J-14750D01*
G01*
X-874500Y363750D01*
G75*
G02*
X-889250Y349000I-14750J0D01*
G01*
X-918750Y349000D01*
G75*
G02*
X-933500Y363750I0J14750D01*
G01*
G37*
G36*
G01*
X-1030500Y363750D02*
X-1030500Y398250D01*
G75*
G02*
X-1015750Y413000I14750J0D01*
G01*
X-986250Y413000D01*
G75*
G02*
X-971500Y398250I0J-14750D01*
G01*
X-971500Y363750D01*
G75*
G02*
X-986250Y349000I-14750J0D01*
G01*
X-1015750Y349000D01*
G75*
G02*
X-1030500Y363750I0J14750D01*
G01*
G37*
G36*
G01*
X-744750Y463500D02*
X-779250Y463500D01*
G75*
G02*
X-794000Y478250I0J14750D01*
G01*
X-794000Y507750D01*
G75*
G02*
X-779250Y522500I14750J0D01*
G01*
X-744750Y522500D01*
G75*
G02*
X-730000Y507750I0J-14750D01*
G01*
X-730000Y478250D01*
G75*
G02*
X-744750Y463500I-14750J0D01*
G01*
G37*
G36*
G01*
X-744750Y366500D02*
X-779250Y366500D01*
G75*
G02*
X-794000Y381250I0J14750D01*
G01*
X-794000Y410750D01*
G75*
G02*
X-779250Y425500I14750J0D01*
G01*
X-744750Y425500D01*
G75*
G02*
X-730000Y410750I0J-14750D01*
G01*
X-730000Y381250D01*
G75*
G02*
X-744750Y366500I-14750J0D01*
G01*
G37*
G36*
G01*
X-552500Y363750D02*
X-552500Y398250D01*
G75*
G02*
X-537750Y413000I14750J0D01*
G01*
X-508250Y413000D01*
G75*
G02*
X-493500Y398250I0J-14750D01*
G01*
X-493500Y363750D01*
G75*
G02*
X-508250Y349000I-14750J0D01*
G01*
X-537750Y349000D01*
G75*
G02*
X-552500Y363750I0J14750D01*
G01*
G37*
G36*
G01*
X-649500Y363750D02*
X-649500Y398250D01*
G75*
G02*
X-634750Y413000I14750J0D01*
G01*
X-605250Y413000D01*
G75*
G02*
X-590500Y398250I0J-14750D01*
G01*
X-590500Y363750D01*
G75*
G02*
X-605250Y349000I-14750J0D01*
G01*
X-634750Y349000D01*
G75*
G02*
X-649500Y363750I0J14750D01*
G01*
G37*
G36*
G01*
X-552500Y490750D02*
X-552500Y525250D01*
G75*
G02*
X-537750Y540000I14750J0D01*
G01*
X-508250Y540000D01*
G75*
G02*
X-493500Y525250I0J-14750D01*
G01*
X-493500Y490750D01*
G75*
G02*
X-508250Y476000I-14750J0D01*
G01*
X-537750Y476000D01*
G75*
G02*
X-552500Y490750I0J14750D01*
G01*
G37*
G36*
G01*
X-649500Y490750D02*
X-649500Y525250D01*
G75*
G02*
X-634750Y540000I14750J0D01*
G01*
X-605250Y540000D01*
G75*
G02*
X-590500Y525250I0J-14750D01*
G01*
X-590500Y490750D01*
G75*
G02*
X-605250Y476000I-14750J0D01*
G01*
X-634750Y476000D01*
G75*
G02*
X-649500Y490750I0J14750D01*
G01*
G37*
D22*
X-762000Y43500D03*
D23*
X-479500Y63500D03*
X-1044500Y63500D03*
D24*
X-1237000Y1583000D03*
D25*
X-1237000Y1473000D03*
X-1237000Y1363000D03*
X-1237000Y1253000D03*
X-1237000Y1143000D03*
X-1237000Y1033000D03*
X-1237000Y923000D03*
X-1237000Y813000D03*
D24*
X-1237000Y703000D03*
X-287000Y703000D03*
D25*
X-287000Y813000D03*
X-287000Y923000D03*
X-287000Y1033000D03*
X-287000Y1143000D03*
X-287000Y1253000D03*
X-287000Y1363000D03*
X-287000Y1473000D03*
D24*
X-287000Y1583000D03*
M02*
