%TF.GenerationSoftware,KiCad,Pcbnew,5.1.7+dfsg1-1~bpo10+1*%
%TF.CreationDate,Date%
%TF.ProjectId,ProMicro_POS,50726f4d-6963-4726-9f5f-504f532e6b69,v3.3*%
%TF.SameCoordinates,Original*%
%TF.FileFunction,Other,User*%
%FSLAX46Y46*%
G04 Gerber Fmt 4.6, Leading zero omitted, Abs format (unit mm)*
G04 Created by KiCad*
%MOMM*%
%LPD*%
G01*
G04 APERTURE LIST*
%ADD10C,0.050000*%
G04 APERTURE END LIST*
D10*
%TO.C,A1*%
X1520000Y-4060000D02*
X-16760000Y-4060000D01*
X1520000Y-4060000D02*
X1520000Y29460000D01*
X-16760000Y29460000D02*
X-16760000Y-4060000D01*
X-16760000Y29460000D02*
X1520000Y29460000D01*
%TO.C,R5*%
X-5245000Y16850000D02*
X-6185000Y16850000D01*
X-6185000Y16850000D02*
X-6185000Y18710000D01*
X-6185000Y18710000D02*
X-5245000Y18710000D01*
X-5245000Y18710000D02*
X-5245000Y16850000D01*
%TO.C,R4*%
X-6515000Y16850000D02*
X-7455000Y16850000D01*
X-7455000Y16850000D02*
X-7455000Y18710000D01*
X-7455000Y18710000D02*
X-6515000Y18710000D01*
X-6515000Y18710000D02*
X-6515000Y16850000D01*
%TO.C,H2*%
X-5270000Y27305000D02*
G75*
G03*
X-5270000Y27305000I-2350000J0D01*
G01*
%TO.C,U2*%
X-5610000Y19055000D02*
X-5610000Y22855000D01*
X-5610000Y22855000D02*
X-2010000Y22855000D01*
X-2010000Y22855000D02*
X-2010000Y19055000D01*
X-2010000Y19055000D02*
X-5610000Y19055000D01*
%TO.C,C3*%
X-4356000Y22946000D02*
X-5296000Y22946000D01*
X-5296000Y22946000D02*
X-5296000Y24806000D01*
X-5296000Y24806000D02*
X-4356000Y24806000D01*
X-4356000Y24806000D02*
X-4356000Y22946000D01*
%TO.C,C2*%
X-1054000Y20660000D02*
X-1994000Y20660000D01*
X-1994000Y20660000D02*
X-1994000Y22520000D01*
X-1994000Y22520000D02*
X-1054000Y22520000D01*
X-1054000Y22520000D02*
X-1054000Y20660000D01*
%TO.C,C1*%
X-8725000Y18710000D02*
X-7785000Y18710000D01*
X-7785000Y18710000D02*
X-7785000Y16850000D01*
X-7785000Y16850000D02*
X-8725000Y16850000D01*
X-8725000Y16850000D02*
X-8725000Y18710000D01*
%TO.C,TP4*%
X-11450000Y21590000D02*
G75*
G03*
X-11450000Y21590000I-1250000J0D01*
G01*
%TO.C,JP1*%
X-4190000Y25380000D02*
X-890000Y25380000D01*
X-4190000Y25380000D02*
X-4190000Y22880000D01*
X-890000Y22880000D02*
X-890000Y25380000D01*
X-890000Y22880000D02*
X-4190000Y22880000D01*
%TO.C,JP3*%
X-1290000Y6222000D02*
X-1290000Y2922000D01*
X-1290000Y6222000D02*
X-3790000Y6222000D01*
X-3790000Y2922000D02*
X-1290000Y2922000D01*
X-3790000Y2922000D02*
X-3790000Y6222000D01*
%TO.C,C4*%
X-9995000Y18710000D02*
X-9055000Y18710000D01*
X-9055000Y18710000D02*
X-9055000Y16850000D01*
X-9055000Y16850000D02*
X-9995000Y16850000D01*
X-9995000Y16850000D02*
X-9995000Y18710000D01*
%TO.C,C7*%
X-10630000Y22520000D02*
X-9690000Y22520000D01*
X-9690000Y22520000D02*
X-9690000Y20660000D01*
X-9690000Y20660000D02*
X-10630000Y20660000D01*
X-10630000Y20660000D02*
X-10630000Y22520000D01*
%TO.C,C9*%
X-11773000Y3665000D02*
X-11773000Y5525000D01*
X-10833000Y3665000D02*
X-11773000Y3665000D01*
X-10833000Y5525000D02*
X-10833000Y3665000D01*
X-11773000Y5525000D02*
X-10833000Y5525000D01*
%TO.C,JP4*%
X-1525000Y16530000D02*
X-4825000Y16530000D01*
X-1525000Y16530000D02*
X-1525000Y19030000D01*
X-4825000Y19030000D02*
X-4825000Y16530000D01*
X-4825000Y19030000D02*
X-1525000Y19030000D01*
%TO.C,TP6*%
X-6076000Y26182000D02*
X-6076000Y28682000D01*
X-6076000Y26182000D02*
X-3576000Y26182000D01*
X-3576000Y28682000D02*
X-6076000Y28682000D01*
X-3576000Y28682000D02*
X-3576000Y26182000D01*
%TO.C,TP5*%
X-12045000Y28555000D02*
X-9545000Y28555000D01*
X-12045000Y28555000D02*
X-12045000Y26055000D01*
X-9545000Y26055000D02*
X-9545000Y28555000D01*
X-9545000Y26055000D02*
X-12045000Y26055000D01*
%TO.C,C6*%
X-7280000Y23914000D02*
X-7280000Y24854000D01*
X-7280000Y24854000D02*
X-5420000Y24854000D01*
X-5420000Y24854000D02*
X-5420000Y23914000D01*
X-5420000Y23914000D02*
X-7280000Y23914000D01*
%TO.C,C5*%
X-7960000Y24854000D02*
X-7960000Y23914000D01*
X-7960000Y23914000D02*
X-9820000Y23914000D01*
X-9820000Y23914000D02*
X-9820000Y24854000D01*
X-9820000Y24854000D02*
X-7960000Y24854000D01*
%TO.C,U1*%
X-9670000Y19540000D02*
X-9670000Y23640000D01*
X-9670000Y23640000D02*
X-5570000Y23640000D01*
X-5570000Y23640000D02*
X-5570000Y19540000D01*
X-5570000Y19540000D02*
X-9670000Y19540000D01*
%TO.C,JP2*%
X-1290000Y2158000D02*
X-1290000Y-1142000D01*
X-1290000Y2158000D02*
X-3790000Y2158000D01*
X-3790000Y-1142000D02*
X-1290000Y-1142000D01*
X-3790000Y-1142000D02*
X-3790000Y2158000D01*
%TO.C,J1*%
X-6620000Y1955000D02*
X-6620000Y2655000D01*
X-9420000Y1955000D02*
X-8620000Y1955000D01*
X-5820000Y1955000D02*
X-5820000Y1755000D01*
X-5820000Y1755000D02*
X-5120000Y1755000D01*
X-5120000Y-1445000D02*
X-5120000Y1755000D01*
X-6620000Y1955000D02*
X-5820000Y1955000D01*
X-5820000Y-1445000D02*
X-5120000Y-1445000D01*
X-5820000Y-1445000D02*
X-5820000Y-1645000D01*
X-10120000Y-1445000D02*
X-10120000Y1755000D01*
X-10120000Y1755000D02*
X-9420000Y1755000D01*
X-9420000Y1955000D02*
X-9420000Y1755000D01*
X-9420000Y-1645000D02*
X-5820000Y-1645000D01*
X-10120000Y-1445000D02*
X-9420000Y-1445000D01*
X-9420000Y-1445000D02*
X-9420000Y-1645000D01*
X-8620000Y1955000D02*
X-8620000Y2655000D01*
X-8620000Y2655000D02*
X-6620000Y2655000D01*
%TO.C,R3*%
X-11265000Y18710000D02*
X-10325000Y18710000D01*
X-10325000Y18710000D02*
X-10325000Y16850000D01*
X-10325000Y16850000D02*
X-11265000Y16850000D01*
X-11265000Y16850000D02*
X-11265000Y18710000D01*
%TO.C,D1*%
X-11970000Y16935000D02*
X-13430000Y16935000D01*
X-13430000Y16935000D02*
X-13430000Y19895000D01*
X-13430000Y19895000D02*
X-11970000Y19895000D01*
X-11970000Y19895000D02*
X-11970000Y16935000D01*
%TO.C,C8*%
X-14065000Y5772500D02*
X-12605000Y5772500D01*
X-12605000Y5772500D02*
X-12605000Y2812500D01*
X-12605000Y2812500D02*
X-14065000Y2812500D01*
X-14065000Y2812500D02*
X-14065000Y5772500D01*
%TO.C,R1*%
X-8595000Y4610000D02*
X-10455000Y4610000D01*
X-8595000Y5550000D02*
X-8595000Y4610000D01*
X-10455000Y5550000D02*
X-8595000Y5550000D01*
X-10455000Y4610000D02*
X-10455000Y5550000D01*
%TO.C,L1*%
X-8595000Y3340000D02*
X-10455000Y3340000D01*
X-8595000Y4280000D02*
X-8595000Y3340000D01*
X-10455000Y4280000D02*
X-8595000Y4280000D01*
X-10455000Y3340000D02*
X-10455000Y4280000D01*
%TO.C,R2*%
X-7150000Y3515000D02*
X-8090000Y3515000D01*
X-8090000Y3515000D02*
X-8090000Y5375000D01*
X-8090000Y5375000D02*
X-7150000Y5375000D01*
X-7150000Y5375000D02*
X-7150000Y3515000D01*
%TO.C,C11*%
X-6645000Y3340000D02*
X-6645000Y4280000D01*
X-6645000Y4280000D02*
X-4785000Y4280000D01*
X-4785000Y4280000D02*
X-4785000Y3340000D01*
X-4785000Y3340000D02*
X-6645000Y3340000D01*
%TO.C,C10*%
X-6645000Y4610000D02*
X-6645000Y5550000D01*
X-6645000Y5550000D02*
X-4785000Y5550000D01*
X-4785000Y5550000D02*
X-4785000Y4610000D01*
X-4785000Y4610000D02*
X-6645000Y4610000D01*
%TO.C,J2*%
X-3620000Y-2365000D02*
X-3620000Y3235000D01*
X-3120000Y-11485000D02*
X-12120000Y-11485000D01*
X-11620000Y-2365000D02*
X-11620000Y3235000D01*
X-11620000Y3235000D02*
X-3620000Y3235000D01*
X-12120000Y-11485000D02*
X-12120000Y-2365000D01*
X-12120000Y-2365000D02*
X-11620000Y-2365000D01*
X-3120000Y-11485000D02*
X-3120000Y-2365000D01*
X-3120000Y-2365000D02*
X-3620000Y-2365000D01*
%TO.C,U3*%
X-13520000Y16730000D02*
X-1720000Y16730000D01*
X-1720000Y16730000D02*
X-1720000Y6130000D01*
X-13520000Y6130000D02*
X-1720000Y6130000D01*
X-13520000Y16730000D02*
X-13520000Y6130000D01*
%TD*%
M02*
