%TF.GenerationSoftware,KiCad,Pcbnew,5.1.7+dfsg1-1~bpo10+1*%
%TF.CreationDate,Date%
%TF.ProjectId,ProMicro_POS,50726f4d-6963-4726-9f5f-504f532e6b69,v3.3*%
%TF.SameCoordinates,Original*%
%TF.FileFunction,Copper,L1,Top*%
%TF.FilePolarity,Positive*%
%FSLAX46Y46*%
G04 Gerber Fmt 4.6, Leading zero omitted, Abs format (unit mm)*
G04 Created by KiCad*
%MOMM*%
%LPD*%
G01*
G04 APERTURE LIST*
%TA.AperFunction,EtchedComponent*%
%ADD10C,0.100000*%
%TD*%
%TA.AperFunction,ComponentPad*%
%ADD11R,2.100000X2.100000*%
%TD*%
%TA.AperFunction,ComponentPad*%
%ADD12C,2.100000*%
%TD*%
%TA.AperFunction,ComponentPad*%
%ADD13C,0.600000*%
%TD*%
%TA.AperFunction,SMDPad,CuDef*%
%ADD14R,0.650000X1.060000*%
%TD*%
%TA.AperFunction,ComponentPad*%
%ADD15C,1.500000*%
%TD*%
%TA.AperFunction,SMDPad,CuDef*%
%ADD16C,0.100000*%
%TD*%
%TA.AperFunction,SMDPad,CuDef*%
%ADD17R,1.500000X1.500000*%
%TD*%
%TA.AperFunction,SMDPad,CuDef*%
%ADD18R,1.050000X2.200000*%
%TD*%
%TA.AperFunction,SMDPad,CuDef*%
%ADD19R,1.000000X1.050000*%
%TD*%
%TA.AperFunction,SMDPad,CuDef*%
%ADD20R,1.270000X3.600000*%
%TD*%
%TA.AperFunction,SMDPad,CuDef*%
%ADD21R,1.350000X4.200000*%
%TD*%
%TA.AperFunction,SMDPad,CuDef*%
%ADD22R,1.800000X0.700000*%
%TD*%
%TA.AperFunction,SMDPad,CuDef*%
%ADD23R,1.800000X0.800000*%
%TD*%
%TA.AperFunction,ViaPad*%
%ADD24C,0.500000*%
%TD*%
%TA.AperFunction,ViaPad*%
%ADD25C,0.450000*%
%TD*%
%TA.AperFunction,Conductor*%
%ADD26C,0.400000*%
%TD*%
%TA.AperFunction,Conductor*%
%ADD27C,0.200000*%
%TD*%
%TA.AperFunction,Conductor*%
%ADD28C,0.250000*%
%TD*%
%TA.AperFunction,Conductor*%
%ADD29C,0.150000*%
%TD*%
%TA.AperFunction,Conductor*%
%ADD30C,0.100000*%
%TD*%
%ADD31C,0.200000*%
%ADD32C,0.350000*%
G04 APERTURE END LIST*
D10*
%TO.C,JP3*%
G36*
X-2240000Y4322000D02*
G01*
X-2240000Y4822000D01*
X-2840000Y4822000D01*
X-2840000Y4322000D01*
X-2240000Y4322000D01*
G37*
%TD*%
D11*
%TO.P,A1,1*%
%TO.N,RXD*%
X0Y0D03*
D12*
%TO.P,A1,2*%
%TO.N,TXD*%
X0Y2540000D03*
%TO.P,A1,3*%
%TO.N,GND*%
X0Y5080000D03*
%TO.P,A1,13*%
%TO.N,Net-(A1-Pad13)*%
X-15240000Y27940000D03*
%TO.P,A1,4*%
%TO.N,GND*%
X0Y7620000D03*
%TO.P,A1,14*%
%TO.N,Net-(A1-Pad14)*%
X-15240000Y25400000D03*
%TO.P,A1,5*%
%TO.N,SDA*%
X0Y10160000D03*
%TO.P,A1,15*%
%TO.N,Net-(A1-Pad15)*%
X-15240000Y22860000D03*
%TO.P,A1,6*%
%TO.N,SCL*%
X0Y12700000D03*
%TO.P,A1,16*%
%TO.N,Net-(A1-Pad16)*%
X-15240000Y20320000D03*
%TO.P,A1,7*%
%TO.N,Net-(A1-Pad7)*%
X0Y15240000D03*
%TO.P,A1,17*%
%TO.N,Net-(A1-Pad17)*%
X-15240000Y17780000D03*
%TO.P,A1,8*%
%TO.N,PWM*%
X0Y17780000D03*
%TO.P,A1,18*%
%TO.N,Net-(A1-Pad18)*%
X-15240000Y15240000D03*
%TO.P,A1,9*%
%TO.N,Net-(A1-Pad9)*%
X0Y20320000D03*
%TO.P,A1,19*%
%TO.N,Net-(A1-Pad19)*%
X-15240000Y12700000D03*
%TO.P,A1,10*%
%TO.N,INT*%
X0Y22860000D03*
%TO.P,A1,20*%
%TO.N,Net-(A1-Pad20)*%
X-15240000Y10160000D03*
%TO.P,A1,11*%
%TO.N,Net-(A1-Pad11)*%
X0Y25400000D03*
%TO.P,A1,21*%
%TO.N,+3V3*%
X-15240000Y7620000D03*
%TO.P,A1,12*%
%TO.N,Net-(A1-Pad12)*%
X0Y27940000D03*
%TO.P,A1,22*%
%TO.N,~RST*%
X-15240000Y5080000D03*
%TO.P,A1,23*%
%TO.N,GND*%
X-15240000Y2540000D03*
%TO.P,A1,24*%
%TO.N,+5V*%
X-15240000Y0D03*
%TD*%
%TO.P,R5,2*%
%TO.N,SDA*%
%TA.AperFunction,SMDPad,CuDef*%
G36*
G01*
X-5542500Y17970000D02*
X-5887500Y17970000D01*
G75*
G02*
X-6035000Y18117500I0J147500D01*
G01*
X-6035000Y18412500D01*
G75*
G02*
X-5887500Y18560000I147500J0D01*
G01*
X-5542500Y18560000D01*
G75*
G02*
X-5395000Y18412500I0J-147500D01*
G01*
X-5395000Y18117500D01*
G75*
G02*
X-5542500Y17970000I-147500J0D01*
G01*
G37*
%TD.AperFunction*%
%TO.P,R5,1*%
%TO.N,+3V3*%
%TA.AperFunction,SMDPad,CuDef*%
G36*
G01*
X-5542500Y17000000D02*
X-5887500Y17000000D01*
G75*
G02*
X-6035000Y17147500I0J147500D01*
G01*
X-6035000Y17442500D01*
G75*
G02*
X-5887500Y17590000I147500J0D01*
G01*
X-5542500Y17590000D01*
G75*
G02*
X-5395000Y17442500I0J-147500D01*
G01*
X-5395000Y17147500D01*
G75*
G02*
X-5542500Y17000000I-147500J0D01*
G01*
G37*
%TD.AperFunction*%
%TD*%
%TO.P,R4,2*%
%TO.N,SCL*%
%TA.AperFunction,SMDPad,CuDef*%
G36*
G01*
X-6812500Y17970000D02*
X-7157500Y17970000D01*
G75*
G02*
X-7305000Y18117500I0J147500D01*
G01*
X-7305000Y18412500D01*
G75*
G02*
X-7157500Y18560000I147500J0D01*
G01*
X-6812500Y18560000D01*
G75*
G02*
X-6665000Y18412500I0J-147500D01*
G01*
X-6665000Y18117500D01*
G75*
G02*
X-6812500Y17970000I-147500J0D01*
G01*
G37*
%TD.AperFunction*%
%TO.P,R4,1*%
%TO.N,+3V3*%
%TA.AperFunction,SMDPad,CuDef*%
G36*
G01*
X-6812500Y17000000D02*
X-7157500Y17000000D01*
G75*
G02*
X-7305000Y17147500I0J147500D01*
G01*
X-7305000Y17442500D01*
G75*
G02*
X-7157500Y17590000I147500J0D01*
G01*
X-6812500Y17590000D01*
G75*
G02*
X-6665000Y17442500I0J-147500D01*
G01*
X-6665000Y17147500D01*
G75*
G02*
X-6812500Y17000000I-147500J0D01*
G01*
G37*
%TD.AperFunction*%
%TD*%
D13*
%TO.P,H2,*%
%TO.N,*%
X-7620000Y27305000D03*
%TD*%
D14*
%TO.P,U2,5*%
%TO.N,+1V8*%
X-4760000Y22055000D03*
%TO.P,U2,4*%
%TO.N,Net-(U2-Pad4)*%
X-2860000Y22055000D03*
%TO.P,U2,3*%
%TO.N,+3V3*%
X-2860000Y19855000D03*
%TO.P,U2,2*%
%TO.N,GND*%
X-3810000Y19855000D03*
%TO.P,U2,1*%
%TO.N,+3V3*%
X-4760000Y19855000D03*
%TD*%
%TO.P,C3,2*%
%TO.N,GND*%
%TA.AperFunction,SMDPad,CuDef*%
G36*
G01*
X-4653500Y24066000D02*
X-4998500Y24066000D01*
G75*
G02*
X-5146000Y24213500I0J147500D01*
G01*
X-5146000Y24508500D01*
G75*
G02*
X-4998500Y24656000I147500J0D01*
G01*
X-4653500Y24656000D01*
G75*
G02*
X-4506000Y24508500I0J-147500D01*
G01*
X-4506000Y24213500D01*
G75*
G02*
X-4653500Y24066000I-147500J0D01*
G01*
G37*
%TD.AperFunction*%
%TO.P,C3,1*%
%TO.N,+1V8*%
%TA.AperFunction,SMDPad,CuDef*%
G36*
G01*
X-4653500Y23096000D02*
X-4998500Y23096000D01*
G75*
G02*
X-5146000Y23243500I0J147500D01*
G01*
X-5146000Y23538500D01*
G75*
G02*
X-4998500Y23686000I147500J0D01*
G01*
X-4653500Y23686000D01*
G75*
G02*
X-4506000Y23538500I0J-147500D01*
G01*
X-4506000Y23243500D01*
G75*
G02*
X-4653500Y23096000I-147500J0D01*
G01*
G37*
%TD.AperFunction*%
%TD*%
%TO.P,C2,2*%
%TO.N,GND*%
%TA.AperFunction,SMDPad,CuDef*%
G36*
G01*
X-1351500Y21780000D02*
X-1696500Y21780000D01*
G75*
G02*
X-1844000Y21927500I0J147500D01*
G01*
X-1844000Y22222500D01*
G75*
G02*
X-1696500Y22370000I147500J0D01*
G01*
X-1351500Y22370000D01*
G75*
G02*
X-1204000Y22222500I0J-147500D01*
G01*
X-1204000Y21927500D01*
G75*
G02*
X-1351500Y21780000I-147500J0D01*
G01*
G37*
%TD.AperFunction*%
%TO.P,C2,1*%
%TO.N,+3V3*%
%TA.AperFunction,SMDPad,CuDef*%
G36*
G01*
X-1351500Y20810000D02*
X-1696500Y20810000D01*
G75*
G02*
X-1844000Y20957500I0J147500D01*
G01*
X-1844000Y21252500D01*
G75*
G02*
X-1696500Y21400000I147500J0D01*
G01*
X-1351500Y21400000D01*
G75*
G02*
X-1204000Y21252500I0J-147500D01*
G01*
X-1204000Y20957500D01*
G75*
G02*
X-1351500Y20810000I-147500J0D01*
G01*
G37*
%TD.AperFunction*%
%TD*%
%TO.P,C1,2*%
%TO.N,GND*%
%TA.AperFunction,SMDPad,CuDef*%
G36*
G01*
X-8427500Y17590000D02*
X-8082500Y17590000D01*
G75*
G02*
X-7935000Y17442500I0J-147500D01*
G01*
X-7935000Y17147500D01*
G75*
G02*
X-8082500Y17000000I-147500J0D01*
G01*
X-8427500Y17000000D01*
G75*
G02*
X-8575000Y17147500I0J147500D01*
G01*
X-8575000Y17442500D01*
G75*
G02*
X-8427500Y17590000I147500J0D01*
G01*
G37*
%TD.AperFunction*%
%TO.P,C1,1*%
%TO.N,+3V3*%
%TA.AperFunction,SMDPad,CuDef*%
G36*
G01*
X-8427500Y18560000D02*
X-8082500Y18560000D01*
G75*
G02*
X-7935000Y18412500I0J-147500D01*
G01*
X-7935000Y18117500D01*
G75*
G02*
X-8082500Y17970000I-147500J0D01*
G01*
X-8427500Y17970000D01*
G75*
G02*
X-8575000Y18117500I0J147500D01*
G01*
X-8575000Y18412500D01*
G75*
G02*
X-8427500Y18560000I147500J0D01*
G01*
G37*
%TD.AperFunction*%
%TD*%
D15*
%TO.P,TP4,1*%
%TO.N,Net-(TP4-Pad1)*%
X-12700000Y21590000D03*
%TD*%
%TA.AperFunction,SMDPad,CuDef*%
D16*
%TO.P,JP1,2*%
%TO.N,INT*%
G36*
X-1890000Y24879398D02*
G01*
X-1865466Y24879398D01*
X-1816635Y24874588D01*
X-1768510Y24865016D01*
X-1721555Y24850772D01*
X-1676222Y24831995D01*
X-1632949Y24808864D01*
X-1592150Y24781604D01*
X-1554221Y24750476D01*
X-1519524Y24715779D01*
X-1488396Y24677850D01*
X-1461136Y24637051D01*
X-1438005Y24593778D01*
X-1419228Y24548445D01*
X-1404984Y24501490D01*
X-1395412Y24453365D01*
X-1390602Y24404534D01*
X-1390602Y24380000D01*
X-1390000Y24380000D01*
X-1390000Y23880000D01*
X-1390602Y23880000D01*
X-1390602Y23855466D01*
X-1395412Y23806635D01*
X-1404984Y23758510D01*
X-1419228Y23711555D01*
X-1438005Y23666222D01*
X-1461136Y23622949D01*
X-1488396Y23582150D01*
X-1519524Y23544221D01*
X-1554221Y23509524D01*
X-1592150Y23478396D01*
X-1632949Y23451136D01*
X-1676222Y23428005D01*
X-1721555Y23409228D01*
X-1768510Y23394984D01*
X-1816635Y23385412D01*
X-1865466Y23380602D01*
X-1890000Y23380602D01*
X-1890000Y23380000D01*
X-2390000Y23380000D01*
X-2390000Y24880000D01*
X-1890000Y24880000D01*
X-1890000Y24879398D01*
G37*
%TD.AperFunction*%
%TA.AperFunction,SMDPad,CuDef*%
%TO.P,JP1,1*%
%TO.N,Net-(JP1-Pad1)*%
G36*
X-2690000Y23380000D02*
G01*
X-3190000Y23380000D01*
X-3190000Y23380602D01*
X-3214534Y23380602D01*
X-3263365Y23385412D01*
X-3311490Y23394984D01*
X-3358445Y23409228D01*
X-3403778Y23428005D01*
X-3447051Y23451136D01*
X-3487850Y23478396D01*
X-3525779Y23509524D01*
X-3560476Y23544221D01*
X-3591604Y23582150D01*
X-3618864Y23622949D01*
X-3641995Y23666222D01*
X-3660772Y23711555D01*
X-3675016Y23758510D01*
X-3684588Y23806635D01*
X-3689398Y23855466D01*
X-3689398Y23880000D01*
X-3690000Y23880000D01*
X-3690000Y24380000D01*
X-3689398Y24380000D01*
X-3689398Y24404534D01*
X-3684588Y24453365D01*
X-3675016Y24501490D01*
X-3660772Y24548445D01*
X-3641995Y24593778D01*
X-3618864Y24637051D01*
X-3591604Y24677850D01*
X-3560476Y24715779D01*
X-3525779Y24750476D01*
X-3487850Y24781604D01*
X-3447051Y24808864D01*
X-3403778Y24831995D01*
X-3358445Y24850772D01*
X-3311490Y24865016D01*
X-3263365Y24874588D01*
X-3214534Y24879398D01*
X-3190000Y24879398D01*
X-3190000Y24880000D01*
X-2690000Y24880000D01*
X-2690000Y23380000D01*
G37*
%TD.AperFunction*%
%TD*%
%TA.AperFunction,SMDPad,CuDef*%
%TO.P,JP3,1*%
%TO.N,Net-(JP3-Pad1)*%
G36*
X-3290000Y4722000D02*
G01*
X-3290000Y5222000D01*
X-3289398Y5222000D01*
X-3289398Y5246534D01*
X-3284588Y5295365D01*
X-3275016Y5343490D01*
X-3260772Y5390445D01*
X-3241995Y5435778D01*
X-3218864Y5479051D01*
X-3191604Y5519850D01*
X-3160476Y5557779D01*
X-3125779Y5592476D01*
X-3087850Y5623604D01*
X-3047051Y5650864D01*
X-3003778Y5673995D01*
X-2958445Y5692772D01*
X-2911490Y5707016D01*
X-2863365Y5716588D01*
X-2814534Y5721398D01*
X-2790000Y5721398D01*
X-2790000Y5722000D01*
X-2290000Y5722000D01*
X-2290000Y5721398D01*
X-2265466Y5721398D01*
X-2216635Y5716588D01*
X-2168510Y5707016D01*
X-2121555Y5692772D01*
X-2076222Y5673995D01*
X-2032949Y5650864D01*
X-1992150Y5623604D01*
X-1954221Y5592476D01*
X-1919524Y5557779D01*
X-1888396Y5519850D01*
X-1861136Y5479051D01*
X-1838005Y5435778D01*
X-1819228Y5390445D01*
X-1804984Y5343490D01*
X-1795412Y5295365D01*
X-1790602Y5246534D01*
X-1790602Y5222000D01*
X-1790000Y5222000D01*
X-1790000Y4722000D01*
X-3290000Y4722000D01*
G37*
%TD.AperFunction*%
%TA.AperFunction,SMDPad,CuDef*%
%TO.P,JP3,2*%
%TO.N,TXD*%
G36*
X-1790602Y3922000D02*
G01*
X-1790602Y3897466D01*
X-1795412Y3848635D01*
X-1804984Y3800510D01*
X-1819228Y3753555D01*
X-1838005Y3708222D01*
X-1861136Y3664949D01*
X-1888396Y3624150D01*
X-1919524Y3586221D01*
X-1954221Y3551524D01*
X-1992150Y3520396D01*
X-2032949Y3493136D01*
X-2076222Y3470005D01*
X-2121555Y3451228D01*
X-2168510Y3436984D01*
X-2216635Y3427412D01*
X-2265466Y3422602D01*
X-2290000Y3422602D01*
X-2290000Y3422000D01*
X-2790000Y3422000D01*
X-2790000Y3422602D01*
X-2814534Y3422602D01*
X-2863365Y3427412D01*
X-2911490Y3436984D01*
X-2958445Y3451228D01*
X-3003778Y3470005D01*
X-3047051Y3493136D01*
X-3087850Y3520396D01*
X-3125779Y3551524D01*
X-3160476Y3586221D01*
X-3191604Y3624150D01*
X-3218864Y3664949D01*
X-3241995Y3708222D01*
X-3260772Y3753555D01*
X-3275016Y3800510D01*
X-3284588Y3848635D01*
X-3289398Y3897466D01*
X-3289398Y3922000D01*
X-3290000Y3922000D01*
X-3290000Y4422000D01*
X-1790000Y4422000D01*
X-1790000Y3922000D01*
X-1790602Y3922000D01*
G37*
%TD.AperFunction*%
%TD*%
%TO.P,C4,2*%
%TO.N,GND*%
%TA.AperFunction,SMDPad,CuDef*%
G36*
G01*
X-9697500Y17590000D02*
X-9352500Y17590000D01*
G75*
G02*
X-9205000Y17442500I0J-147500D01*
G01*
X-9205000Y17147500D01*
G75*
G02*
X-9352500Y17000000I-147500J0D01*
G01*
X-9697500Y17000000D01*
G75*
G02*
X-9845000Y17147500I0J147500D01*
G01*
X-9845000Y17442500D01*
G75*
G02*
X-9697500Y17590000I147500J0D01*
G01*
G37*
%TD.AperFunction*%
%TO.P,C4,1*%
%TO.N,+3V3*%
%TA.AperFunction,SMDPad,CuDef*%
G36*
G01*
X-9697500Y18560000D02*
X-9352500Y18560000D01*
G75*
G02*
X-9205000Y18412500I0J-147500D01*
G01*
X-9205000Y18117500D01*
G75*
G02*
X-9352500Y17970000I-147500J0D01*
G01*
X-9697500Y17970000D01*
G75*
G02*
X-9845000Y18117500I0J147500D01*
G01*
X-9845000Y18412500D01*
G75*
G02*
X-9697500Y18560000I147500J0D01*
G01*
G37*
%TD.AperFunction*%
%TD*%
%TO.P,C7,2*%
%TO.N,GND*%
%TA.AperFunction,SMDPad,CuDef*%
G36*
G01*
X-10332500Y21400000D02*
X-9987500Y21400000D01*
G75*
G02*
X-9840000Y21252500I0J-147500D01*
G01*
X-9840000Y20957500D01*
G75*
G02*
X-9987500Y20810000I-147500J0D01*
G01*
X-10332500Y20810000D01*
G75*
G02*
X-10480000Y20957500I0J147500D01*
G01*
X-10480000Y21252500D01*
G75*
G02*
X-10332500Y21400000I147500J0D01*
G01*
G37*
%TD.AperFunction*%
%TO.P,C7,1*%
%TO.N,+3V3*%
%TA.AperFunction,SMDPad,CuDef*%
G36*
G01*
X-10332500Y22370000D02*
X-9987500Y22370000D01*
G75*
G02*
X-9840000Y22222500I0J-147500D01*
G01*
X-9840000Y21927500D01*
G75*
G02*
X-9987500Y21780000I-147500J0D01*
G01*
X-10332500Y21780000D01*
G75*
G02*
X-10480000Y21927500I0J147500D01*
G01*
X-10480000Y22222500D01*
G75*
G02*
X-10332500Y22370000I147500J0D01*
G01*
G37*
%TD.AperFunction*%
%TD*%
%TO.P,C9,2*%
%TO.N,GND*%
%TA.AperFunction,SMDPad,CuDef*%
G36*
G01*
X-11475500Y4405000D02*
X-11130500Y4405000D01*
G75*
G02*
X-10983000Y4257500I0J-147500D01*
G01*
X-10983000Y3962500D01*
G75*
G02*
X-11130500Y3815000I-147500J0D01*
G01*
X-11475500Y3815000D01*
G75*
G02*
X-11623000Y3962500I0J147500D01*
G01*
X-11623000Y4257500D01*
G75*
G02*
X-11475500Y4405000I147500J0D01*
G01*
G37*
%TD.AperFunction*%
%TO.P,C9,1*%
%TO.N,+3V3*%
%TA.AperFunction,SMDPad,CuDef*%
G36*
G01*
X-11475500Y5375000D02*
X-11130500Y5375000D01*
G75*
G02*
X-10983000Y5227500I0J-147500D01*
G01*
X-10983000Y4932500D01*
G75*
G02*
X-11130500Y4785000I-147500J0D01*
G01*
X-11475500Y4785000D01*
G75*
G02*
X-11623000Y4932500I0J147500D01*
G01*
X-11623000Y5227500D01*
G75*
G02*
X-11475500Y5375000I147500J0D01*
G01*
G37*
%TD.AperFunction*%
%TD*%
%TA.AperFunction,SMDPad,CuDef*%
%TO.P,JP4,2*%
%TO.N,Net-(JP4-Pad2)*%
G36*
X-3825000Y17030602D02*
G01*
X-3849534Y17030602D01*
X-3898365Y17035412D01*
X-3946490Y17044984D01*
X-3993445Y17059228D01*
X-4038778Y17078005D01*
X-4082051Y17101136D01*
X-4122850Y17128396D01*
X-4160779Y17159524D01*
X-4195476Y17194221D01*
X-4226604Y17232150D01*
X-4253864Y17272949D01*
X-4276995Y17316222D01*
X-4295772Y17361555D01*
X-4310016Y17408510D01*
X-4319588Y17456635D01*
X-4324398Y17505466D01*
X-4324398Y17530000D01*
X-4325000Y17530000D01*
X-4325000Y18030000D01*
X-4324398Y18030000D01*
X-4324398Y18054534D01*
X-4319588Y18103365D01*
X-4310016Y18151490D01*
X-4295772Y18198445D01*
X-4276995Y18243778D01*
X-4253864Y18287051D01*
X-4226604Y18327850D01*
X-4195476Y18365779D01*
X-4160779Y18400476D01*
X-4122850Y18431604D01*
X-4082051Y18458864D01*
X-4038778Y18481995D01*
X-3993445Y18500772D01*
X-3946490Y18515016D01*
X-3898365Y18524588D01*
X-3849534Y18529398D01*
X-3825000Y18529398D01*
X-3825000Y18530000D01*
X-3325000Y18530000D01*
X-3325000Y17030000D01*
X-3825000Y17030000D01*
X-3825000Y17030602D01*
G37*
%TD.AperFunction*%
%TA.AperFunction,SMDPad,CuDef*%
%TO.P,JP4,1*%
%TO.N,PWM*%
G36*
X-3025000Y18530000D02*
G01*
X-2525000Y18530000D01*
X-2525000Y18529398D01*
X-2500466Y18529398D01*
X-2451635Y18524588D01*
X-2403510Y18515016D01*
X-2356555Y18500772D01*
X-2311222Y18481995D01*
X-2267949Y18458864D01*
X-2227150Y18431604D01*
X-2189221Y18400476D01*
X-2154524Y18365779D01*
X-2123396Y18327850D01*
X-2096136Y18287051D01*
X-2073005Y18243778D01*
X-2054228Y18198445D01*
X-2039984Y18151490D01*
X-2030412Y18103365D01*
X-2025602Y18054534D01*
X-2025602Y18030000D01*
X-2025000Y18030000D01*
X-2025000Y17530000D01*
X-2025602Y17530000D01*
X-2025602Y17505466D01*
X-2030412Y17456635D01*
X-2039984Y17408510D01*
X-2054228Y17361555D01*
X-2073005Y17316222D01*
X-2096136Y17272949D01*
X-2123396Y17232150D01*
X-2154524Y17194221D01*
X-2189221Y17159524D01*
X-2227150Y17128396D01*
X-2267949Y17101136D01*
X-2311222Y17078005D01*
X-2356555Y17059228D01*
X-2403510Y17044984D01*
X-2451635Y17035412D01*
X-2500466Y17030602D01*
X-2525000Y17030602D01*
X-2525000Y17030000D01*
X-3025000Y17030000D01*
X-3025000Y18530000D01*
G37*
%TD.AperFunction*%
%TD*%
D17*
%TO.P,TP6,1*%
%TO.N,GND*%
X-4826000Y27432000D03*
%TD*%
%TO.P,TP5,1*%
%TO.N,GND*%
X-10795000Y27305000D03*
%TD*%
%TO.P,C6,2*%
%TO.N,GND*%
%TA.AperFunction,SMDPad,CuDef*%
G36*
G01*
X-6160000Y24211500D02*
X-6160000Y24556500D01*
G75*
G02*
X-6012500Y24704000I147500J0D01*
G01*
X-5717500Y24704000D01*
G75*
G02*
X-5570000Y24556500I0J-147500D01*
G01*
X-5570000Y24211500D01*
G75*
G02*
X-5717500Y24064000I-147500J0D01*
G01*
X-6012500Y24064000D01*
G75*
G02*
X-6160000Y24211500I0J147500D01*
G01*
G37*
%TD.AperFunction*%
%TO.P,C6,1*%
%TO.N,+3V3*%
%TA.AperFunction,SMDPad,CuDef*%
G36*
G01*
X-7130000Y24211500D02*
X-7130000Y24556500D01*
G75*
G02*
X-6982500Y24704000I147500J0D01*
G01*
X-6687500Y24704000D01*
G75*
G02*
X-6540000Y24556500I0J-147500D01*
G01*
X-6540000Y24211500D01*
G75*
G02*
X-6687500Y24064000I-147500J0D01*
G01*
X-6982500Y24064000D01*
G75*
G02*
X-7130000Y24211500I0J147500D01*
G01*
G37*
%TD.AperFunction*%
%TD*%
%TO.P,C5,2*%
%TO.N,GND*%
%TA.AperFunction,SMDPad,CuDef*%
G36*
G01*
X-9080000Y24556500D02*
X-9080000Y24211500D01*
G75*
G02*
X-9227500Y24064000I-147500J0D01*
G01*
X-9522500Y24064000D01*
G75*
G02*
X-9670000Y24211500I0J147500D01*
G01*
X-9670000Y24556500D01*
G75*
G02*
X-9522500Y24704000I147500J0D01*
G01*
X-9227500Y24704000D01*
G75*
G02*
X-9080000Y24556500I0J-147500D01*
G01*
G37*
%TD.AperFunction*%
%TO.P,C5,1*%
%TO.N,Net-(C5-Pad1)*%
%TA.AperFunction,SMDPad,CuDef*%
G36*
G01*
X-8110000Y24556500D02*
X-8110000Y24211500D01*
G75*
G02*
X-8257500Y24064000I-147500J0D01*
G01*
X-8552500Y24064000D01*
G75*
G02*
X-8700000Y24211500I0J147500D01*
G01*
X-8700000Y24556500D01*
G75*
G02*
X-8552500Y24704000I147500J0D01*
G01*
X-8257500Y24704000D01*
G75*
G02*
X-8110000Y24556500I0J-147500D01*
G01*
G37*
%TD.AperFunction*%
%TD*%
%TO.P,U1,24*%
%TO.N,SDA*%
%TA.AperFunction,SMDPad,CuDef*%
G36*
G01*
X-6670000Y20365000D02*
X-6570000Y20365000D01*
G75*
G02*
X-6520000Y20315000I0J-50000D01*
G01*
X-6520000Y19865000D01*
G75*
G02*
X-6570000Y19815000I-50000J0D01*
G01*
X-6670000Y19815000D01*
G75*
G02*
X-6720000Y19865000I0J50000D01*
G01*
X-6720000Y20315000D01*
G75*
G02*
X-6670000Y20365000I50000J0D01*
G01*
G37*
%TD.AperFunction*%
%TO.P,U1,23*%
%TO.N,SCL*%
%TA.AperFunction,SMDPad,CuDef*%
G36*
G01*
X-7070000Y20365000D02*
X-6970000Y20365000D01*
G75*
G02*
X-6920000Y20315000I0J-50000D01*
G01*
X-6920000Y19865000D01*
G75*
G02*
X-6970000Y19815000I-50000J0D01*
G01*
X-7070000Y19815000D01*
G75*
G02*
X-7120000Y19865000I0J50000D01*
G01*
X-7120000Y20315000D01*
G75*
G02*
X-7070000Y20365000I50000J0D01*
G01*
G37*
%TD.AperFunction*%
%TO.P,U1,22*%
%TO.N,+3V3*%
%TA.AperFunction,SMDPad,CuDef*%
G36*
G01*
X-7470000Y20365000D02*
X-7370000Y20365000D01*
G75*
G02*
X-7320000Y20315000I0J-50000D01*
G01*
X-7320000Y19865000D01*
G75*
G02*
X-7370000Y19815000I-50000J0D01*
G01*
X-7470000Y19815000D01*
G75*
G02*
X-7520000Y19865000I0J50000D01*
G01*
X-7520000Y20315000D01*
G75*
G02*
X-7470000Y20365000I50000J0D01*
G01*
G37*
%TD.AperFunction*%
%TO.P,U1,21*%
%TO.N,Net-(TP1-Pad1)*%
%TA.AperFunction,SMDPad,CuDef*%
G36*
G01*
X-7870000Y20365000D02*
X-7770000Y20365000D01*
G75*
G02*
X-7720000Y20315000I0J-50000D01*
G01*
X-7720000Y19865000D01*
G75*
G02*
X-7770000Y19815000I-50000J0D01*
G01*
X-7870000Y19815000D01*
G75*
G02*
X-7920000Y19865000I0J50000D01*
G01*
X-7920000Y20315000D01*
G75*
G02*
X-7870000Y20365000I50000J0D01*
G01*
G37*
%TD.AperFunction*%
%TO.P,U1,20*%
%TO.N,GND*%
%TA.AperFunction,SMDPad,CuDef*%
G36*
G01*
X-8270000Y20365000D02*
X-8170000Y20365000D01*
G75*
G02*
X-8120000Y20315000I0J-50000D01*
G01*
X-8120000Y19865000D01*
G75*
G02*
X-8170000Y19815000I-50000J0D01*
G01*
X-8270000Y19815000D01*
G75*
G02*
X-8320000Y19865000I0J50000D01*
G01*
X-8320000Y20315000D01*
G75*
G02*
X-8270000Y20365000I50000J0D01*
G01*
G37*
%TD.AperFunction*%
%TO.P,U1,19*%
%TO.N,N/C*%
%TA.AperFunction,SMDPad,CuDef*%
G36*
G01*
X-8670000Y20365000D02*
X-8570000Y20365000D01*
G75*
G02*
X-8520000Y20315000I0J-50000D01*
G01*
X-8520000Y19865000D01*
G75*
G02*
X-8570000Y19815000I-50000J0D01*
G01*
X-8670000Y19815000D01*
G75*
G02*
X-8720000Y19865000I0J50000D01*
G01*
X-8720000Y20315000D01*
G75*
G02*
X-8670000Y20365000I50000J0D01*
G01*
G37*
%TD.AperFunction*%
%TO.P,U1,18*%
%TO.N,GND*%
%TA.AperFunction,SMDPad,CuDef*%
G36*
G01*
X-8845000Y20640000D02*
X-8845000Y20540000D01*
G75*
G02*
X-8895000Y20490000I-50000J0D01*
G01*
X-9345000Y20490000D01*
G75*
G02*
X-9395000Y20540000I0J50000D01*
G01*
X-9395000Y20640000D01*
G75*
G02*
X-9345000Y20690000I50000J0D01*
G01*
X-8895000Y20690000D01*
G75*
G02*
X-8845000Y20640000I0J-50000D01*
G01*
G37*
%TD.AperFunction*%
%TO.P,U1,17*%
%TO.N,N/C*%
%TA.AperFunction,SMDPad,CuDef*%
G36*
G01*
X-8845000Y21040000D02*
X-8845000Y20940000D01*
G75*
G02*
X-8895000Y20890000I-50000J0D01*
G01*
X-9345000Y20890000D01*
G75*
G02*
X-9395000Y20940000I0J50000D01*
G01*
X-9395000Y21040000D01*
G75*
G02*
X-9345000Y21090000I50000J0D01*
G01*
X-8895000Y21090000D01*
G75*
G02*
X-8845000Y21040000I0J-50000D01*
G01*
G37*
%TD.AperFunction*%
%TO.P,U1,16*%
%TA.AperFunction,SMDPad,CuDef*%
G36*
G01*
X-8845000Y21440000D02*
X-8845000Y21340000D01*
G75*
G02*
X-8895000Y21290000I-50000J0D01*
G01*
X-9345000Y21290000D01*
G75*
G02*
X-9395000Y21340000I0J50000D01*
G01*
X-9395000Y21440000D01*
G75*
G02*
X-9345000Y21490000I50000J0D01*
G01*
X-8895000Y21490000D01*
G75*
G02*
X-8845000Y21440000I0J-50000D01*
G01*
G37*
%TD.AperFunction*%
%TO.P,U1,15*%
%TA.AperFunction,SMDPad,CuDef*%
G36*
G01*
X-8845000Y21840000D02*
X-8845000Y21740000D01*
G75*
G02*
X-8895000Y21690000I-50000J0D01*
G01*
X-9345000Y21690000D01*
G75*
G02*
X-9395000Y21740000I0J50000D01*
G01*
X-9395000Y21840000D01*
G75*
G02*
X-9345000Y21890000I50000J0D01*
G01*
X-8895000Y21890000D01*
G75*
G02*
X-8845000Y21840000I0J-50000D01*
G01*
G37*
%TD.AperFunction*%
%TO.P,U1,14*%
%TA.AperFunction,SMDPad,CuDef*%
G36*
G01*
X-8845000Y22240000D02*
X-8845000Y22140000D01*
G75*
G02*
X-8895000Y22090000I-50000J0D01*
G01*
X-9345000Y22090000D01*
G75*
G02*
X-9395000Y22140000I0J50000D01*
G01*
X-9395000Y22240000D01*
G75*
G02*
X-9345000Y22290000I50000J0D01*
G01*
X-8895000Y22290000D01*
G75*
G02*
X-8845000Y22240000I0J-50000D01*
G01*
G37*
%TD.AperFunction*%
%TO.P,U1,13*%
%TO.N,+3V3*%
%TA.AperFunction,SMDPad,CuDef*%
G36*
G01*
X-8845000Y22640000D02*
X-8845000Y22540000D01*
G75*
G02*
X-8895000Y22490000I-50000J0D01*
G01*
X-9345000Y22490000D01*
G75*
G02*
X-9395000Y22540000I0J50000D01*
G01*
X-9395000Y22640000D01*
G75*
G02*
X-9345000Y22690000I50000J0D01*
G01*
X-8895000Y22690000D01*
G75*
G02*
X-8845000Y22640000I0J-50000D01*
G01*
G37*
%TD.AperFunction*%
%TO.P,U1,12*%
%TO.N,Net-(JP1-Pad1)*%
%TA.AperFunction,SMDPad,CuDef*%
G36*
G01*
X-8670000Y23365000D02*
X-8570000Y23365000D01*
G75*
G02*
X-8520000Y23315000I0J-50000D01*
G01*
X-8520000Y22865000D01*
G75*
G02*
X-8570000Y22815000I-50000J0D01*
G01*
X-8670000Y22815000D01*
G75*
G02*
X-8720000Y22865000I0J50000D01*
G01*
X-8720000Y23315000D01*
G75*
G02*
X-8670000Y23365000I50000J0D01*
G01*
G37*
%TD.AperFunction*%
%TO.P,U1,11*%
%TO.N,Net-(TP3-Pad1)*%
%TA.AperFunction,SMDPad,CuDef*%
G36*
G01*
X-8270000Y23365000D02*
X-8170000Y23365000D01*
G75*
G02*
X-8120000Y23315000I0J-50000D01*
G01*
X-8120000Y22865000D01*
G75*
G02*
X-8170000Y22815000I-50000J0D01*
G01*
X-8270000Y22815000D01*
G75*
G02*
X-8320000Y22865000I0J50000D01*
G01*
X-8320000Y23315000D01*
G75*
G02*
X-8270000Y23365000I50000J0D01*
G01*
G37*
%TD.AperFunction*%
%TO.P,U1,10*%
%TO.N,Net-(C5-Pad1)*%
%TA.AperFunction,SMDPad,CuDef*%
G36*
G01*
X-7870000Y23365000D02*
X-7770000Y23365000D01*
G75*
G02*
X-7720000Y23315000I0J-50000D01*
G01*
X-7720000Y22865000D01*
G75*
G02*
X-7770000Y22815000I-50000J0D01*
G01*
X-7870000Y22815000D01*
G75*
G02*
X-7920000Y22865000I0J50000D01*
G01*
X-7920000Y23315000D01*
G75*
G02*
X-7870000Y23365000I50000J0D01*
G01*
G37*
%TD.AperFunction*%
%TO.P,U1,9*%
%TO.N,+3V3*%
%TA.AperFunction,SMDPad,CuDef*%
G36*
G01*
X-7470000Y23365000D02*
X-7370000Y23365000D01*
G75*
G02*
X-7320000Y23315000I0J-50000D01*
G01*
X-7320000Y22865000D01*
G75*
G02*
X-7370000Y22815000I-50000J0D01*
G01*
X-7470000Y22815000D01*
G75*
G02*
X-7520000Y22865000I0J50000D01*
G01*
X-7520000Y23315000D01*
G75*
G02*
X-7470000Y23365000I50000J0D01*
G01*
G37*
%TD.AperFunction*%
%TO.P,U1,8*%
%TO.N,+1V8*%
%TA.AperFunction,SMDPad,CuDef*%
G36*
G01*
X-7070000Y23365000D02*
X-6970000Y23365000D01*
G75*
G02*
X-6920000Y23315000I0J-50000D01*
G01*
X-6920000Y22865000D01*
G75*
G02*
X-6970000Y22815000I-50000J0D01*
G01*
X-7070000Y22815000D01*
G75*
G02*
X-7120000Y22865000I0J50000D01*
G01*
X-7120000Y23315000D01*
G75*
G02*
X-7070000Y23365000I50000J0D01*
G01*
G37*
%TD.AperFunction*%
%TO.P,U1,7*%
%TO.N,Net-(TP2-Pad1)*%
%TA.AperFunction,SMDPad,CuDef*%
G36*
G01*
X-6670000Y23365000D02*
X-6570000Y23365000D01*
G75*
G02*
X-6520000Y23315000I0J-50000D01*
G01*
X-6520000Y22865000D01*
G75*
G02*
X-6570000Y22815000I-50000J0D01*
G01*
X-6670000Y22815000D01*
G75*
G02*
X-6720000Y22865000I0J50000D01*
G01*
X-6720000Y23315000D01*
G75*
G02*
X-6670000Y23365000I50000J0D01*
G01*
G37*
%TD.AperFunction*%
%TO.P,U1,6*%
%TO.N,N/C*%
%TA.AperFunction,SMDPad,CuDef*%
G36*
G01*
X-5845000Y22640000D02*
X-5845000Y22540000D01*
G75*
G02*
X-5895000Y22490000I-50000J0D01*
G01*
X-6345000Y22490000D01*
G75*
G02*
X-6395000Y22540000I0J50000D01*
G01*
X-6395000Y22640000D01*
G75*
G02*
X-6345000Y22690000I50000J0D01*
G01*
X-5895000Y22690000D01*
G75*
G02*
X-5845000Y22640000I0J-50000D01*
G01*
G37*
%TD.AperFunction*%
%TO.P,U1,5*%
%TA.AperFunction,SMDPad,CuDef*%
G36*
G01*
X-5845000Y22240000D02*
X-5845000Y22140000D01*
G75*
G02*
X-5895000Y22090000I-50000J0D01*
G01*
X-6345000Y22090000D01*
G75*
G02*
X-6395000Y22140000I0J50000D01*
G01*
X-6395000Y22240000D01*
G75*
G02*
X-6345000Y22290000I50000J0D01*
G01*
X-5895000Y22290000D01*
G75*
G02*
X-5845000Y22240000I0J-50000D01*
G01*
G37*
%TD.AperFunction*%
%TO.P,U1,4*%
%TA.AperFunction,SMDPad,CuDef*%
G36*
G01*
X-5845000Y21840000D02*
X-5845000Y21740000D01*
G75*
G02*
X-5895000Y21690000I-50000J0D01*
G01*
X-6345000Y21690000D01*
G75*
G02*
X-6395000Y21740000I0J50000D01*
G01*
X-6395000Y21840000D01*
G75*
G02*
X-6345000Y21890000I50000J0D01*
G01*
X-5895000Y21890000D01*
G75*
G02*
X-5845000Y21840000I0J-50000D01*
G01*
G37*
%TD.AperFunction*%
%TO.P,U1,3*%
%TA.AperFunction,SMDPad,CuDef*%
G36*
G01*
X-5845000Y21440000D02*
X-5845000Y21340000D01*
G75*
G02*
X-5895000Y21290000I-50000J0D01*
G01*
X-6345000Y21290000D01*
G75*
G02*
X-6395000Y21340000I0J50000D01*
G01*
X-6395000Y21440000D01*
G75*
G02*
X-6345000Y21490000I50000J0D01*
G01*
X-5895000Y21490000D01*
G75*
G02*
X-5845000Y21440000I0J-50000D01*
G01*
G37*
%TD.AperFunction*%
%TO.P,U1,2*%
%TA.AperFunction,SMDPad,CuDef*%
G36*
G01*
X-5845000Y21040000D02*
X-5845000Y20940000D01*
G75*
G02*
X-5895000Y20890000I-50000J0D01*
G01*
X-6345000Y20890000D01*
G75*
G02*
X-6395000Y20940000I0J50000D01*
G01*
X-6395000Y21040000D01*
G75*
G02*
X-6345000Y21090000I50000J0D01*
G01*
X-5895000Y21090000D01*
G75*
G02*
X-5845000Y21040000I0J-50000D01*
G01*
G37*
%TD.AperFunction*%
%TO.P,U1,1*%
%TO.N,+3V3*%
%TA.AperFunction,SMDPad,CuDef*%
G36*
G01*
X-5845000Y20640000D02*
X-5845000Y20540000D01*
G75*
G02*
X-5895000Y20490000I-50000J0D01*
G01*
X-6345000Y20490000D01*
G75*
G02*
X-6395000Y20540000I0J50000D01*
G01*
X-6395000Y20640000D01*
G75*
G02*
X-6345000Y20690000I50000J0D01*
G01*
X-5895000Y20690000D01*
G75*
G02*
X-5845000Y20640000I0J-50000D01*
G01*
G37*
%TD.AperFunction*%
%TD*%
%TA.AperFunction,SMDPad,CuDef*%
D16*
%TO.P,JP2,2*%
%TO.N,RXD*%
G36*
X-1790602Y-142000D02*
G01*
X-1790602Y-166534D01*
X-1795412Y-215365D01*
X-1804984Y-263490D01*
X-1819228Y-310445D01*
X-1838005Y-355778D01*
X-1861136Y-399051D01*
X-1888396Y-439850D01*
X-1919524Y-477779D01*
X-1954221Y-512476D01*
X-1992150Y-543604D01*
X-2032949Y-570864D01*
X-2076222Y-593995D01*
X-2121555Y-612772D01*
X-2168510Y-627016D01*
X-2216635Y-636588D01*
X-2265466Y-641398D01*
X-2290000Y-641398D01*
X-2290000Y-642000D01*
X-2790000Y-642000D01*
X-2790000Y-641398D01*
X-2814534Y-641398D01*
X-2863365Y-636588D01*
X-2911490Y-627016D01*
X-2958445Y-612772D01*
X-3003778Y-593995D01*
X-3047051Y-570864D01*
X-3087850Y-543604D01*
X-3125779Y-512476D01*
X-3160476Y-477779D01*
X-3191604Y-439850D01*
X-3218864Y-399051D01*
X-3241995Y-355778D01*
X-3260772Y-310445D01*
X-3275016Y-263490D01*
X-3284588Y-215365D01*
X-3289398Y-166534D01*
X-3289398Y-142000D01*
X-3290000Y-142000D01*
X-3290000Y358000D01*
X-1790000Y358000D01*
X-1790000Y-142000D01*
X-1790602Y-142000D01*
G37*
%TD.AperFunction*%
%TA.AperFunction,SMDPad,CuDef*%
%TO.P,JP2,1*%
%TO.N,Net-(JP2-Pad1)*%
G36*
X-3290000Y658000D02*
G01*
X-3290000Y1158000D01*
X-3289398Y1158000D01*
X-3289398Y1182534D01*
X-3284588Y1231365D01*
X-3275016Y1279490D01*
X-3260772Y1326445D01*
X-3241995Y1371778D01*
X-3218864Y1415051D01*
X-3191604Y1455850D01*
X-3160476Y1493779D01*
X-3125779Y1528476D01*
X-3087850Y1559604D01*
X-3047051Y1586864D01*
X-3003778Y1609995D01*
X-2958445Y1628772D01*
X-2911490Y1643016D01*
X-2863365Y1652588D01*
X-2814534Y1657398D01*
X-2790000Y1657398D01*
X-2790000Y1658000D01*
X-2290000Y1658000D01*
X-2290000Y1657398D01*
X-2265466Y1657398D01*
X-2216635Y1652588D01*
X-2168510Y1643016D01*
X-2121555Y1628772D01*
X-2076222Y1609995D01*
X-2032949Y1586864D01*
X-1992150Y1559604D01*
X-1954221Y1528476D01*
X-1919524Y1493779D01*
X-1888396Y1455850D01*
X-1861136Y1415051D01*
X-1838005Y1371778D01*
X-1819228Y1326445D01*
X-1804984Y1279490D01*
X-1795412Y1231365D01*
X-1790602Y1182534D01*
X-1790602Y1158000D01*
X-1790000Y1158000D01*
X-1790000Y658000D01*
X-3290000Y658000D01*
G37*
%TD.AperFunction*%
%TD*%
D18*
%TO.P,J1,2*%
%TO.N,GND*%
X-6145000Y160000D03*
D19*
%TO.P,J1,1*%
%TO.N,Net-(C11-Pad1)*%
X-7620000Y1685000D03*
D18*
%TO.P,J1,2*%
%TO.N,GND*%
X-9095000Y160000D03*
%TD*%
%TO.P,R3,2*%
%TO.N,Net-(R3-Pad2)*%
%TA.AperFunction,SMDPad,CuDef*%
G36*
G01*
X-10967500Y17590000D02*
X-10622500Y17590000D01*
G75*
G02*
X-10475000Y17442500I0J-147500D01*
G01*
X-10475000Y17147500D01*
G75*
G02*
X-10622500Y17000000I-147500J0D01*
G01*
X-10967500Y17000000D01*
G75*
G02*
X-11115000Y17147500I0J147500D01*
G01*
X-11115000Y17442500D01*
G75*
G02*
X-10967500Y17590000I147500J0D01*
G01*
G37*
%TD.AperFunction*%
%TO.P,R3,1*%
%TO.N,Net-(D1-Pad2)*%
%TA.AperFunction,SMDPad,CuDef*%
G36*
G01*
X-10967500Y18560000D02*
X-10622500Y18560000D01*
G75*
G02*
X-10475000Y18412500I0J-147500D01*
G01*
X-10475000Y18117500D01*
G75*
G02*
X-10622500Y17970000I-147500J0D01*
G01*
X-10967500Y17970000D01*
G75*
G02*
X-11115000Y18117500I0J147500D01*
G01*
X-11115000Y18412500D01*
G75*
G02*
X-10967500Y18560000I147500J0D01*
G01*
G37*
%TD.AperFunction*%
%TD*%
%TO.P,D1,2*%
%TO.N,Net-(D1-Pad2)*%
%TA.AperFunction,SMDPad,CuDef*%
G36*
G01*
X-12443750Y18765000D02*
X-12956250Y18765000D01*
G75*
G02*
X-13175000Y18983750I0J218750D01*
G01*
X-13175000Y19421250D01*
G75*
G02*
X-12956250Y19640000I218750J0D01*
G01*
X-12443750Y19640000D01*
G75*
G02*
X-12225000Y19421250I0J-218750D01*
G01*
X-12225000Y18983750D01*
G75*
G02*
X-12443750Y18765000I-218750J0D01*
G01*
G37*
%TD.AperFunction*%
%TO.P,D1,1*%
%TO.N,GND*%
%TA.AperFunction,SMDPad,CuDef*%
G36*
G01*
X-12443750Y17190000D02*
X-12956250Y17190000D01*
G75*
G02*
X-13175000Y17408750I0J218750D01*
G01*
X-13175000Y17846250D01*
G75*
G02*
X-12956250Y18065000I218750J0D01*
G01*
X-12443750Y18065000D01*
G75*
G02*
X-12225000Y17846250I0J-218750D01*
G01*
X-12225000Y17408750D01*
G75*
G02*
X-12443750Y17190000I-218750J0D01*
G01*
G37*
%TD.AperFunction*%
%TD*%
%TO.P,C8,2*%
%TO.N,GND*%
%TA.AperFunction,SMDPad,CuDef*%
G36*
G01*
X-13591250Y3942500D02*
X-13078750Y3942500D01*
G75*
G02*
X-12860000Y3723750I0J-218750D01*
G01*
X-12860000Y3286250D01*
G75*
G02*
X-13078750Y3067500I-218750J0D01*
G01*
X-13591250Y3067500D01*
G75*
G02*
X-13810000Y3286250I0J218750D01*
G01*
X-13810000Y3723750D01*
G75*
G02*
X-13591250Y3942500I218750J0D01*
G01*
G37*
%TD.AperFunction*%
%TO.P,C8,1*%
%TO.N,+3V3*%
%TA.AperFunction,SMDPad,CuDef*%
G36*
G01*
X-13591250Y5517500D02*
X-13078750Y5517500D01*
G75*
G02*
X-12860000Y5298750I0J-218750D01*
G01*
X-12860000Y4861250D01*
G75*
G02*
X-13078750Y4642500I-218750J0D01*
G01*
X-13591250Y4642500D01*
G75*
G02*
X-13810000Y4861250I0J218750D01*
G01*
X-13810000Y5298750D01*
G75*
G02*
X-13591250Y5517500I218750J0D01*
G01*
G37*
%TD.AperFunction*%
%TD*%
%TO.P,R1,2*%
%TO.N,Net-(R1-Pad2)*%
%TA.AperFunction,SMDPad,CuDef*%
G36*
G01*
X-9335000Y4907500D02*
X-9335000Y5252500D01*
G75*
G02*
X-9187500Y5400000I147500J0D01*
G01*
X-8892500Y5400000D01*
G75*
G02*
X-8745000Y5252500I0J-147500D01*
G01*
X-8745000Y4907500D01*
G75*
G02*
X-8892500Y4760000I-147500J0D01*
G01*
X-9187500Y4760000D01*
G75*
G02*
X-9335000Y4907500I0J147500D01*
G01*
G37*
%TD.AperFunction*%
%TO.P,R1,1*%
%TO.N,Net-(L1-Pad1)*%
%TA.AperFunction,SMDPad,CuDef*%
G36*
G01*
X-10305000Y4907500D02*
X-10305000Y5252500D01*
G75*
G02*
X-10157500Y5400000I147500J0D01*
G01*
X-9862500Y5400000D01*
G75*
G02*
X-9715000Y5252500I0J-147500D01*
G01*
X-9715000Y4907500D01*
G75*
G02*
X-9862500Y4760000I-147500J0D01*
G01*
X-10157500Y4760000D01*
G75*
G02*
X-10305000Y4907500I0J147500D01*
G01*
G37*
%TD.AperFunction*%
%TD*%
%TO.P,L1,2*%
%TO.N,Net-(C11-Pad1)*%
%TA.AperFunction,SMDPad,CuDef*%
G36*
G01*
X-9335000Y3637500D02*
X-9335000Y3982500D01*
G75*
G02*
X-9187500Y4130000I147500J0D01*
G01*
X-8892500Y4130000D01*
G75*
G02*
X-8745000Y3982500I0J-147500D01*
G01*
X-8745000Y3637500D01*
G75*
G02*
X-8892500Y3490000I-147500J0D01*
G01*
X-9187500Y3490000D01*
G75*
G02*
X-9335000Y3637500I0J147500D01*
G01*
G37*
%TD.AperFunction*%
%TO.P,L1,1*%
%TO.N,Net-(L1-Pad1)*%
%TA.AperFunction,SMDPad,CuDef*%
G36*
G01*
X-10305000Y3637500D02*
X-10305000Y3982500D01*
G75*
G02*
X-10157500Y4130000I147500J0D01*
G01*
X-9862500Y4130000D01*
G75*
G02*
X-9715000Y3982500I0J-147500D01*
G01*
X-9715000Y3637500D01*
G75*
G02*
X-9862500Y3490000I-147500J0D01*
G01*
X-10157500Y3490000D01*
G75*
G02*
X-10305000Y3637500I0J147500D01*
G01*
G37*
%TD.AperFunction*%
%TD*%
%TO.P,R2,2*%
%TO.N,Net-(C10-Pad1)*%
%TA.AperFunction,SMDPad,CuDef*%
G36*
G01*
X-7447500Y4635000D02*
X-7792500Y4635000D01*
G75*
G02*
X-7940000Y4782500I0J147500D01*
G01*
X-7940000Y5077500D01*
G75*
G02*
X-7792500Y5225000I147500J0D01*
G01*
X-7447500Y5225000D01*
G75*
G02*
X-7300000Y5077500I0J-147500D01*
G01*
X-7300000Y4782500D01*
G75*
G02*
X-7447500Y4635000I-147500J0D01*
G01*
G37*
%TD.AperFunction*%
%TO.P,R2,1*%
%TO.N,Net-(C11-Pad1)*%
%TA.AperFunction,SMDPad,CuDef*%
G36*
G01*
X-7447500Y3665000D02*
X-7792500Y3665000D01*
G75*
G02*
X-7940000Y3812500I0J147500D01*
G01*
X-7940000Y4107500D01*
G75*
G02*
X-7792500Y4255000I147500J0D01*
G01*
X-7447500Y4255000D01*
G75*
G02*
X-7300000Y4107500I0J-147500D01*
G01*
X-7300000Y3812500D01*
G75*
G02*
X-7447500Y3665000I-147500J0D01*
G01*
G37*
%TD.AperFunction*%
%TD*%
%TO.P,C11,2*%
%TO.N,GND*%
%TA.AperFunction,SMDPad,CuDef*%
G36*
G01*
X-5525000Y3637500D02*
X-5525000Y3982500D01*
G75*
G02*
X-5377500Y4130000I147500J0D01*
G01*
X-5082500Y4130000D01*
G75*
G02*
X-4935000Y3982500I0J-147500D01*
G01*
X-4935000Y3637500D01*
G75*
G02*
X-5082500Y3490000I-147500J0D01*
G01*
X-5377500Y3490000D01*
G75*
G02*
X-5525000Y3637500I0J147500D01*
G01*
G37*
%TD.AperFunction*%
%TO.P,C11,1*%
%TO.N,Net-(C11-Pad1)*%
%TA.AperFunction,SMDPad,CuDef*%
G36*
G01*
X-6495000Y3637500D02*
X-6495000Y3982500D01*
G75*
G02*
X-6347500Y4130000I147500J0D01*
G01*
X-6052500Y4130000D01*
G75*
G02*
X-5905000Y3982500I0J-147500D01*
G01*
X-5905000Y3637500D01*
G75*
G02*
X-6052500Y3490000I-147500J0D01*
G01*
X-6347500Y3490000D01*
G75*
G02*
X-6495000Y3637500I0J147500D01*
G01*
G37*
%TD.AperFunction*%
%TD*%
%TO.P,C10,2*%
%TO.N,GND*%
%TA.AperFunction,SMDPad,CuDef*%
G36*
G01*
X-5525000Y4907500D02*
X-5525000Y5252500D01*
G75*
G02*
X-5377500Y5400000I147500J0D01*
G01*
X-5082500Y5400000D01*
G75*
G02*
X-4935000Y5252500I0J-147500D01*
G01*
X-4935000Y4907500D01*
G75*
G02*
X-5082500Y4760000I-147500J0D01*
G01*
X-5377500Y4760000D01*
G75*
G02*
X-5525000Y4907500I0J147500D01*
G01*
G37*
%TD.AperFunction*%
%TO.P,C10,1*%
%TO.N,Net-(C10-Pad1)*%
%TA.AperFunction,SMDPad,CuDef*%
G36*
G01*
X-6495000Y4907500D02*
X-6495000Y5252500D01*
G75*
G02*
X-6347500Y5400000I147500J0D01*
G01*
X-6052500Y5400000D01*
G75*
G02*
X-5905000Y5252500I0J-147500D01*
G01*
X-5905000Y4907500D01*
G75*
G02*
X-6052500Y4760000I-147500J0D01*
G01*
X-6347500Y4760000D01*
G75*
G02*
X-6495000Y4907500I0J147500D01*
G01*
G37*
%TD.AperFunction*%
%TD*%
D20*
%TO.P,J2,1*%
%TO.N,Net-(C11-Pad1)*%
X-7620000Y435000D03*
D21*
%TO.P,J2,2*%
%TO.N,GND*%
X-4795000Y635000D03*
X-10445000Y635000D03*
%TD*%
D22*
%TO.P,U3,1*%
%TO.N,GND*%
X-12370000Y15830000D03*
D23*
%TO.P,U3,2*%
%TO.N,Net-(JP3-Pad1)*%
X-12370000Y14730000D03*
%TO.P,U3,3*%
%TO.N,Net-(JP2-Pad1)*%
X-12370000Y13630000D03*
%TO.P,U3,4*%
%TO.N,Net-(R3-Pad2)*%
X-12370000Y12530000D03*
%TO.P,U3,5*%
%TO.N,Net-(JP4-Pad2)*%
X-12370000Y11430000D03*
%TO.P,U3,6*%
%TO.N,Net-(TP4-Pad1)*%
X-12370000Y10330000D03*
%TO.P,U3,7*%
%TO.N,+3V3*%
X-12370000Y9230000D03*
%TO.P,U3,8*%
X-12370000Y8130000D03*
D22*
%TO.P,U3,9*%
%TO.N,~RST*%
X-12370000Y7030000D03*
%TO.P,U3,10*%
%TO.N,GND*%
X-2870000Y7030000D03*
D23*
%TO.P,U3,11*%
%TO.N,Net-(C10-Pad1)*%
X-2870000Y8130000D03*
%TO.P,U3,12*%
%TO.N,GND*%
X-2870000Y9230000D03*
%TO.P,U3,13*%
%TO.N,Net-(U3-Pad13)*%
X-2870000Y10330000D03*
%TO.P,U3,14*%
%TO.N,Net-(R1-Pad2)*%
X-2870000Y11430000D03*
%TO.P,U3,15*%
%TO.N,Net-(U3-Pad15)*%
X-2870000Y12530000D03*
%TO.P,U3,16*%
%TO.N,SDA*%
X-2870000Y13630000D03*
%TO.P,U3,17*%
%TO.N,SCL*%
X-2870000Y14730000D03*
D22*
%TO.P,U3,18*%
%TO.N,Net-(U3-Pad18)*%
X-2870000Y15830000D03*
%TD*%
D24*
%TO.N,GND*%
X-8382000Y2921000D03*
X-6858000Y2921000D03*
X-6350000Y2032000D03*
X-8890000Y2032000D03*
X-4318000Y10414000D03*
X-8255000Y6350000D03*
X-10033000Y6096000D03*
X-12192000Y4064000D03*
X-8128000Y11176000D03*
X-6985000Y10160000D03*
X-1143000Y16510000D03*
X-5461000Y11557000D03*
X-6604000Y12700000D03*
X-5715000Y8890000D03*
X-9525000Y7620000D03*
X-7620000Y6985000D03*
X-6985000Y7620000D03*
X-6350000Y8255000D03*
X-7620000Y9525000D03*
X-8255000Y8890000D03*
X-8890000Y8255000D03*
X-5715000Y6350000D03*
X-5080000Y6985000D03*
X-4445000Y12573000D03*
X-3429000Y2159000D03*
X-11811000Y2159000D03*
X-4318000Y15367000D03*
X-7747000Y13843000D03*
X-12192000Y5969000D03*
X-3429000Y6096000D03*
D25*
X-9461500Y19748500D03*
X-10287000Y15240000D03*
X-10287000Y10795000D03*
X-8890000Y16383000D03*
X-6604000Y14859000D03*
X-5715000Y13970000D03*
X-5461000Y16383000D03*
X-4826000Y18796000D03*
X-8890000Y25146000D03*
X-7747000Y25146000D03*
X-3810000Y22860000D03*
X-11049000Y19685000D03*
X-13970000Y24130000D03*
X-13970000Y26670000D03*
X-1270000Y26670000D03*
X-1270000Y19050000D03*
X-11049000Y22098000D03*
D24*
X-11684000Y17653000D03*
%TO.N,+3V3*%
X-11051006Y8130000D03*
D25*
X-6858000Y24384000D03*
X-8890000Y17780000D03*
X-4445000Y20955000D03*
X-10541000Y22860000D03*
%TO.N,Net-(TP1-Pad1)*%
X-10160000Y19304000D03*
%TO.N,Net-(TP2-Pad1)*%
X-5241283Y21116338D03*
%TO.N,Net-(TP3-Pad1)*%
X-9398000Y23622000D03*
D24*
%TO.N,Net-(JP2-Pad1)*%
X-9715500Y13271500D03*
X-3810000Y4318000D03*
%TO.N,Net-(JP3-Pad1)*%
X-1270000Y6350000D03*
X-9779000Y14224000D03*
%TO.N,SDA*%
X-2870000Y13630000D03*
D25*
X-5715000Y18224500D03*
%TO.N,SCL*%
X-6985000Y18234490D03*
D24*
X-2870000Y14730000D03*
%TD*%
D26*
%TO.N,+3V3*%
X-14108630Y7620000D02*
X-15240000Y7620000D01*
X-12370000Y8130000D02*
X-13598630Y8130000D01*
X-13598630Y8130000D02*
X-14108630Y7620000D01*
X-11303000Y5080000D02*
X-12192000Y5080000D01*
X-12192000Y5080000D02*
X-13335000Y5080000D01*
X-11303000Y5080000D02*
X-11303000Y5475000D01*
X-11051006Y5726994D02*
X-11051006Y8130000D01*
X-11303000Y5475000D02*
X-11051006Y5726994D01*
X-11270000Y9230000D02*
X-12370000Y9230000D01*
X-11049000Y9009000D02*
X-11270000Y9230000D01*
X-11049000Y8384000D02*
X-11049000Y9009000D01*
X-11051006Y8381994D02*
X-11051006Y8130000D01*
X-11051006Y8130000D02*
X-12444000Y8130000D01*
D27*
X-7239000Y24384000D02*
X-7420000Y24203000D01*
X-7420000Y24203000D02*
X-7420000Y23090000D01*
X-6858000Y24384000D02*
X-7239000Y24384000D01*
X-6120000Y20344000D02*
X-6120000Y20590000D01*
X-5631000Y19855000D02*
X-6120000Y20344000D01*
X-4760000Y19855000D02*
X-5631000Y19855000D01*
X-5715000Y17295000D02*
X-6327000Y17295000D01*
X-6985000Y17295000D02*
X-6327000Y17295000D01*
X-7643000Y18265000D02*
X-8255000Y18265000D01*
X-7620000Y18288000D02*
X-7643000Y18265000D01*
X-7620000Y17526000D02*
X-7620000Y18288000D01*
X-6985000Y17295000D02*
X-7389000Y17295000D01*
X-7389000Y17295000D02*
X-7620000Y17526000D01*
X-8255000Y18265000D02*
X-8575000Y18265000D01*
X-9205000Y18265000D02*
X-8890000Y17950000D01*
X-8575000Y18265000D02*
X-8890000Y17950000D01*
X-9525000Y18265000D02*
X-9205000Y18265000D01*
X-8890000Y17950000D02*
X-8890000Y17780000D01*
X-7620000Y18415000D02*
X-7620000Y18288000D01*
X-7620000Y18669000D02*
X-7620000Y18415000D01*
X-7420000Y18869000D02*
X-7620000Y18669000D01*
X-7420000Y20090000D02*
X-7420000Y18869000D01*
D26*
X-4445000Y20955000D02*
X-3048000Y20955000D01*
X-4760000Y20640000D02*
X-4445000Y20955000D01*
X-4760000Y19855000D02*
X-4760000Y20640000D01*
X-2286000Y21082000D02*
X-1547000Y21082000D01*
X-2413000Y20955000D02*
X-2286000Y21082000D01*
X-1547000Y21082000D02*
X-1524000Y21105000D01*
X-3048000Y20955000D02*
X-2413000Y20955000D01*
X-2860000Y20889000D02*
X-2794000Y20955000D01*
X-2860000Y19855000D02*
X-2860000Y20889000D01*
D27*
X-10271000Y22590000D02*
X-10541000Y22860000D01*
X-10144000Y22590000D02*
X-10144000Y22114000D01*
X-9120000Y22590000D02*
X-10144000Y22590000D01*
X-10144000Y22590000D02*
X-10271000Y22590000D01*
D26*
%TO.N,Net-(L1-Pad1)*%
X-10010000Y3810000D02*
X-10010000Y4295000D01*
X-10010000Y5080000D02*
X-10010000Y4295000D01*
D27*
%TO.N,Net-(D1-Pad2)*%
X-11684000Y18923000D02*
X-11963500Y19202500D01*
X-11684000Y18669000D02*
X-11684000Y18923000D01*
X-11963500Y19202500D02*
X-12700000Y19202500D01*
X-11280000Y18265000D02*
X-11684000Y18669000D01*
X-10795000Y18265000D02*
X-11280000Y18265000D01*
%TO.N,Net-(C5-Pad1)*%
X-7820000Y24203000D02*
X-8001000Y24384000D01*
X-7820000Y23090000D02*
X-7820000Y24203000D01*
X-8405000Y24384000D02*
X-8001000Y24384000D01*
D26*
%TO.N,Net-(R1-Pad2)*%
X-4445000Y11430000D02*
X-2870000Y11430000D01*
X-9040000Y5080000D02*
X-9040000Y6835000D01*
X-9040000Y6835000D02*
X-4445000Y11430000D01*
D27*
%TO.N,Net-(TP1-Pad1)*%
X-9779000Y18923000D02*
X-10160000Y19304000D01*
X-8255000Y18923000D02*
X-9779000Y18923000D01*
X-7820000Y19358000D02*
X-8255000Y18923000D01*
X-7820000Y20090000D02*
X-7820000Y19358000D01*
%TO.N,Net-(TP2-Pad1)*%
X-5461000Y21336055D02*
X-5241283Y21116338D01*
X-5850010Y23090000D02*
X-5461000Y22700990D01*
X-5461000Y22700990D02*
X-5461000Y21336055D01*
X-6620000Y23090000D02*
X-5850010Y23090000D01*
%TO.N,Net-(TP3-Pad1)*%
X-8220000Y23090000D02*
X-8220000Y23460000D01*
X-8425010Y23665010D02*
X-8973990Y23665010D01*
X-8220000Y23460000D02*
X-8425010Y23665010D01*
X-9017000Y23622000D02*
X-9398000Y23622000D01*
X-8973990Y23665010D02*
X-9017000Y23622000D01*
%TO.N,Net-(JP1-Pad1)*%
X-3937000Y25781000D02*
X-3175000Y25019000D01*
X-9398000Y25781000D02*
X-3937000Y25781000D01*
X-10033000Y25146000D02*
X-9398000Y25781000D01*
X-10033000Y23368000D02*
X-10033000Y25146000D01*
X-9755000Y23090000D02*
X-10033000Y23368000D01*
X-3175000Y25019000D02*
X-3175000Y24130000D01*
X-8620000Y23090000D02*
X-9755000Y23090000D01*
%TO.N,Net-(JP2-Pad1)*%
X-10069053Y13271500D02*
X-9715500Y13271500D01*
X-11270000Y13630000D02*
X-10911500Y13271500D01*
X-10911500Y13271500D02*
X-10069053Y13271500D01*
X-12370000Y13630000D02*
X-11270000Y13630000D01*
X-3810000Y3964447D02*
X-3810000Y4318000D01*
X-3810000Y3710447D02*
X-3810000Y3964447D01*
X-2540000Y2440447D02*
X-3810000Y3710447D01*
X-2540000Y1300000D02*
X-2540000Y2440447D01*
%TO.N,+1V8*%
X-6731000Y23749000D02*
X-5842000Y23749000D01*
X-7020000Y23460000D02*
X-6731000Y23749000D01*
X-7020000Y23090000D02*
X-7020000Y23460000D01*
X-5484000Y23391000D02*
X-5842000Y23749000D01*
X-4826000Y23391000D02*
X-5484000Y23391000D01*
D26*
X-4760000Y22055000D02*
X-4760000Y22794000D01*
X-4826000Y22860000D02*
X-4826000Y23368000D01*
X-4760000Y22794000D02*
X-4826000Y22860000D01*
%TO.N,Net-(C10-Pad1)*%
X-7620000Y4930000D02*
X-7620000Y5715000D01*
X-5205000Y8130000D02*
X-7620000Y5715000D01*
X-2870000Y8130000D02*
X-5205000Y8130000D01*
X-6200000Y5080000D02*
X-6985000Y5080000D01*
X-7135000Y4930000D02*
X-6985000Y5080000D01*
X-7620000Y4930000D02*
X-7135000Y4930000D01*
%TO.N,Net-(C11-Pad1)*%
X-8509000Y3810000D02*
X-9040000Y3810000D01*
X-8382000Y3810000D02*
X-8509000Y3810000D01*
X-8232000Y3960000D02*
X-8382000Y3810000D01*
X-7620000Y3960000D02*
X-8232000Y3960000D01*
X-6985000Y3937000D02*
X-7620000Y3937000D01*
X-6858000Y3810000D02*
X-6985000Y3937000D01*
X-6200000Y3810000D02*
X-6858000Y3810000D01*
X-7620000Y3937000D02*
X-7620000Y1685000D01*
D27*
%TO.N,Net-(JP3-Pad1)*%
X-10764000Y14224000D02*
X-9779000Y14224000D01*
X-11270000Y14730000D02*
X-10764000Y14224000D01*
X-12370000Y14730000D02*
X-11270000Y14730000D01*
X-2540000Y5842000D02*
X-2032000Y6350000D01*
X-2032000Y6350000D02*
X-1270000Y6350000D01*
X-2540000Y5095000D02*
X-2540000Y5842000D01*
%TO.N,Net-(JP4-Pad2)*%
X-9144000Y11430000D02*
X-12370000Y11430000D01*
X-4699000Y15875000D02*
X-9144000Y11430000D01*
X-4699000Y16700500D02*
X-4699000Y15875000D01*
X-3825000Y17574500D02*
X-4699000Y16700500D01*
X-3825000Y17780000D02*
X-3825000Y17574500D01*
%TO.N,Net-(R3-Pad2)*%
X-10795000Y16801498D02*
X-10795000Y17145000D01*
X-9144000Y15150498D02*
X-10795000Y16801498D01*
X-9144000Y12827000D02*
X-9144000Y15150498D01*
X-9441000Y12530000D02*
X-9144000Y12827000D01*
X-12370000Y12530000D02*
X-9441000Y12530000D01*
%TO.N,Net-(TP4-Pad1)*%
X-12700000Y20701000D02*
X-12700000Y21590000D01*
X-13843000Y19558000D02*
X-12700000Y20701000D01*
X-13843000Y10703000D02*
X-13843000Y19558000D01*
X-13470000Y10330000D02*
X-13843000Y10703000D01*
X-12370000Y10330000D02*
X-13470000Y10330000D01*
D26*
%TO.N,RXD*%
X0Y0D02*
X-2540000Y0D01*
%TO.N,TXD*%
X-2540000Y3795000D02*
X-2540000Y3175000D01*
X-2540000Y3175000D02*
X-1905000Y2540000D01*
X-1905000Y2540000D02*
X0Y2540000D01*
D27*
%TO.N,SDA*%
X-1397000Y13257000D02*
X-1397000Y11557000D01*
X-1397000Y11557000D02*
X0Y10160000D01*
X-2870000Y13630000D02*
X-1770000Y13630000D01*
X-1770000Y13630000D02*
X-1397000Y13257000D01*
X-5715000Y18265000D02*
X-5715000Y18234490D01*
X-5724990Y18234490D02*
X-5715000Y18234490D01*
X-6620000Y20090000D02*
X-6620000Y19129500D01*
X-6620000Y19129500D02*
X-5724990Y18234490D01*
%TO.N,SCL*%
X-1397000Y14097000D02*
X0Y12700000D01*
X-1397000Y14605000D02*
X-1397000Y14097000D01*
X-2870000Y14730000D02*
X-1522000Y14730000D01*
X-1522000Y14730000D02*
X-1397000Y14605000D01*
X-7020000Y20090000D02*
X-7020000Y18269490D01*
D28*
%TO.N,PWM*%
X-2525000Y17780000D02*
X0Y17780000D01*
D27*
%TO.N,~RST*%
X-14224000Y6096000D02*
X-15240000Y5080000D01*
X-12370000Y7030000D02*
X-13290000Y7030000D01*
X-13290000Y7030000D02*
X-14224000Y6096000D01*
D28*
%TO.N,INT*%
X-1270000Y24130000D02*
X-1905000Y24130000D01*
X0Y22860000D02*
X-1270000Y24130000D01*
%TD*%
D29*
%TO.N,GND*%
X-1174200Y17152377D02*
X-1029195Y16935362D01*
X-844638Y16750805D01*
X-627623Y16605800D01*
X-396340Y16510000D01*
X-627623Y16414200D01*
X-844638Y16269195D01*
X-1029195Y16084638D01*
X-1174200Y15867623D01*
X-1274081Y15626488D01*
X-1325000Y15370501D01*
X-1325000Y15109499D01*
X-1311674Y15042506D01*
X-1312653Y15043309D01*
X-1377800Y15078131D01*
X-1448487Y15099574D01*
X-1503581Y15105000D01*
X-1503584Y15105000D01*
X-1522000Y15106814D01*
X-1540416Y15105000D01*
X-1693670Y15105000D01*
X-1693670Y15130000D01*
X-1698980Y15183909D01*
X-1714704Y15235747D01*
X-1740240Y15283521D01*
X-1757867Y15305000D01*
X-1740240Y15326479D01*
X-1714704Y15374253D01*
X-1698980Y15426091D01*
X-1693670Y15480000D01*
X-1693670Y16180000D01*
X-1698980Y16233909D01*
X-1714704Y16285747D01*
X-1740240Y16333521D01*
X-1774605Y16375395D01*
X-1816479Y16409760D01*
X-1864253Y16435296D01*
X-1916091Y16451020D01*
X-1970000Y16456330D01*
X-3770000Y16456330D01*
X-3823909Y16451020D01*
X-3875747Y16435296D01*
X-3923521Y16409760D01*
X-3965395Y16375395D01*
X-3999760Y16333521D01*
X-4025296Y16285747D01*
X-4041020Y16233909D01*
X-4046330Y16180000D01*
X-4046330Y15480000D01*
X-4041020Y15426091D01*
X-4025296Y15374253D01*
X-3999760Y15326479D01*
X-3982133Y15305000D01*
X-3999760Y15283521D01*
X-4025296Y15235747D01*
X-4041020Y15183909D01*
X-4046330Y15130000D01*
X-4046330Y14330000D01*
X-4041020Y14276091D01*
X-4025296Y14224253D01*
X-4001642Y14180000D01*
X-4025296Y14135747D01*
X-4041020Y14083909D01*
X-4046330Y14030000D01*
X-4046330Y13230000D01*
X-4041020Y13176091D01*
X-4025296Y13124253D01*
X-4001642Y13080000D01*
X-4025296Y13035747D01*
X-4041020Y12983909D01*
X-4046330Y12930000D01*
X-4046330Y12130000D01*
X-4041020Y12076091D01*
X-4025296Y12024253D01*
X-4001642Y11980000D01*
X-4025296Y11935747D01*
X-4034622Y11905000D01*
X-4421669Y11905000D01*
X-4445001Y11907298D01*
X-4538117Y11898127D01*
X-4565278Y11889888D01*
X-4627654Y11870966D01*
X-4710173Y11826859D01*
X-4782501Y11767501D01*
X-4797379Y11749372D01*
X-9359371Y7187379D01*
X-9377500Y7172501D01*
X-9436858Y7100173D01*
X-9480965Y7017654D01*
X-9508127Y6928116D01*
X-9517298Y6835000D01*
X-9514999Y6811658D01*
X-9515000Y5518310D01*
X-9525000Y5506125D01*
X-9562807Y5552193D01*
X-9627033Y5604902D01*
X-9700307Y5644068D01*
X-9779815Y5668186D01*
X-9862500Y5676330D01*
X-10157500Y5676330D01*
X-10240185Y5668186D01*
X-10319693Y5644068D01*
X-10392967Y5604902D01*
X-10457193Y5552193D01*
X-10509902Y5487967D01*
X-10549068Y5414693D01*
X-10573186Y5335185D01*
X-10581330Y5252500D01*
X-10581330Y4907500D01*
X-10573186Y4824815D01*
X-10549068Y4745307D01*
X-10509902Y4672033D01*
X-10484999Y4641689D01*
X-10484999Y4248311D01*
X-10509902Y4217967D01*
X-10549068Y4144693D01*
X-10573186Y4065185D01*
X-10581330Y3982500D01*
X-10581330Y3637500D01*
X-10573186Y3554815D01*
X-10549068Y3475307D01*
X-10509902Y3402033D01*
X-10457193Y3337807D01*
X-10392967Y3285098D01*
X-10319693Y3245932D01*
X-10240185Y3221814D01*
X-10157500Y3213670D01*
X-9862500Y3213670D01*
X-9779815Y3221814D01*
X-9700307Y3245932D01*
X-9627033Y3285098D01*
X-9562807Y3337807D01*
X-9525000Y3383875D01*
X-9487193Y3337807D01*
X-9422967Y3285098D01*
X-9349693Y3245932D01*
X-9270185Y3221814D01*
X-9187500Y3213670D01*
X-8892500Y3213670D01*
X-8809815Y3221814D01*
X-8730307Y3245932D01*
X-8657033Y3285098D01*
X-8596227Y3335000D01*
X-8405332Y3335000D01*
X-8382000Y3332702D01*
X-8358668Y3335000D01*
X-8330167Y3337807D01*
X-8288884Y3341873D01*
X-8199346Y3369034D01*
X-8116827Y3413141D01*
X-8095000Y3431054D01*
X-8094999Y2511330D01*
X-8255000Y2511330D01*
X-8308909Y2506020D01*
X-8360747Y2490296D01*
X-8408521Y2464760D01*
X-8450395Y2430395D01*
X-8484760Y2388521D01*
X-8510296Y2340747D01*
X-8526020Y2288909D01*
X-8531330Y2235000D01*
X-8531330Y1582764D01*
X-8570000Y1586573D01*
X-8988750Y1585000D01*
X-9070000Y1503750D01*
X-9070000Y185000D01*
X-9050000Y185000D01*
X-9050000Y135000D01*
X-9070000Y135000D01*
X-9070000Y115000D01*
X-9120000Y115000D01*
X-9120000Y135000D01*
X-9140000Y135000D01*
X-9140000Y185000D01*
X-9120000Y185000D01*
X-9120000Y1503750D01*
X-9201250Y1585000D01*
X-9444334Y1585913D01*
X-9443427Y2735000D01*
X-9449702Y2798711D01*
X-9468286Y2859974D01*
X-9498464Y2916434D01*
X-9539078Y2965922D01*
X-9588566Y3006536D01*
X-9645026Y3036714D01*
X-9706289Y3055298D01*
X-9770000Y3061573D01*
X-10338750Y3060000D01*
X-10420000Y2978750D01*
X-10420000Y660000D01*
X-10400000Y660000D01*
X-10400000Y610000D01*
X-10420000Y610000D01*
X-10420000Y590000D01*
X-10470000Y590000D01*
X-10470000Y610000D01*
X-11363750Y610000D01*
X-11445000Y528750D01*
X-11446163Y-945000D01*
X-14311167Y-945000D01*
X-14210805Y-844638D01*
X-14065800Y-627623D01*
X-13965919Y-386488D01*
X-13915000Y-130501D01*
X-13915000Y130501D01*
X-13965919Y386488D01*
X-14065800Y627623D01*
X-14210805Y844638D01*
X-14395362Y1029195D01*
X-14612377Y1174200D01*
X-14776142Y1242033D01*
X-14738410Y1252612D01*
X-14496890Y1375204D01*
X-14448243Y1407708D01*
X-14338324Y1602968D01*
X-15240000Y2504645D01*
X-15254142Y2490502D01*
X-15289498Y2525858D01*
X-15275355Y2540000D01*
X-15204645Y2540000D01*
X-14302968Y1638324D01*
X-14107708Y1748243D01*
X-13975001Y1984356D01*
X-13890907Y2241822D01*
X-13858658Y2510746D01*
X-13875960Y2735000D01*
X-11446573Y2735000D01*
X-11445000Y741250D01*
X-11363750Y660000D01*
X-10470000Y660000D01*
X-10470000Y2978750D01*
X-10551250Y3060000D01*
X-11120000Y3061573D01*
X-11183711Y3055298D01*
X-11244974Y3036714D01*
X-11301434Y3006536D01*
X-11350922Y2965922D01*
X-11391536Y2916434D01*
X-11421714Y2859974D01*
X-11440298Y2798711D01*
X-11446573Y2735000D01*
X-13875960Y2735000D01*
X-13876978Y2748193D01*
X-13873711Y2747202D01*
X-13810000Y2740927D01*
X-13441250Y2742500D01*
X-13360000Y2823750D01*
X-13360000Y3480000D01*
X-13310000Y3480000D01*
X-13310000Y2823750D01*
X-13228750Y2742500D01*
X-12860000Y2740927D01*
X-12796289Y2747202D01*
X-12735026Y2765786D01*
X-12678566Y2795964D01*
X-12629078Y2836578D01*
X-12588464Y2886066D01*
X-12558286Y2942526D01*
X-12539702Y3003789D01*
X-12533427Y3067500D01*
X-12535000Y3398750D01*
X-12616250Y3480000D01*
X-13310000Y3480000D01*
X-13360000Y3480000D01*
X-14053750Y3480000D01*
X-14135000Y3398750D01*
X-14135245Y3347258D01*
X-14302968Y3441676D01*
X-15204645Y2540000D01*
X-15275355Y2540000D01*
X-15289498Y2554142D01*
X-15254142Y2589498D01*
X-15240000Y2575355D01*
X-14338324Y3477032D01*
X-14448243Y3672292D01*
X-14684356Y3804999D01*
X-14780176Y3836296D01*
X-14612377Y3905800D01*
X-14557452Y3942500D01*
X-14136573Y3942500D01*
X-14135000Y3611250D01*
X-14053750Y3530000D01*
X-13360000Y3530000D01*
X-13360000Y4186250D01*
X-13310000Y4186250D01*
X-13310000Y3530000D01*
X-12616250Y3530000D01*
X-12535000Y3611250D01*
X-12534033Y3815000D01*
X-11949573Y3815000D01*
X-11943298Y3751289D01*
X-11924714Y3690026D01*
X-11894536Y3633566D01*
X-11853922Y3584078D01*
X-11804434Y3543464D01*
X-11747974Y3513286D01*
X-11686711Y3494702D01*
X-11623000Y3488427D01*
X-11409250Y3490000D01*
X-11328000Y3571250D01*
X-11328000Y4085000D01*
X-11278000Y4085000D01*
X-11278000Y3571250D01*
X-11196750Y3490000D01*
X-10983000Y3488427D01*
X-10919289Y3494702D01*
X-10858026Y3513286D01*
X-10801566Y3543464D01*
X-10752078Y3584078D01*
X-10711464Y3633566D01*
X-10681286Y3690026D01*
X-10662702Y3751289D01*
X-10656427Y3815000D01*
X-10658000Y4003750D01*
X-10739250Y4085000D01*
X-11278000Y4085000D01*
X-11328000Y4085000D01*
X-11866750Y4085000D01*
X-11948000Y4003750D01*
X-11949573Y3815000D01*
X-12534033Y3815000D01*
X-12533427Y3942500D01*
X-12539702Y4006211D01*
X-12558286Y4067474D01*
X-12588464Y4123934D01*
X-12629078Y4173422D01*
X-12678566Y4214036D01*
X-12735026Y4244214D01*
X-12796289Y4262798D01*
X-12860000Y4269073D01*
X-13228750Y4267500D01*
X-13310000Y4186250D01*
X-13360000Y4186250D01*
X-13441250Y4267500D01*
X-13810000Y4269073D01*
X-13873711Y4262798D01*
X-13934974Y4244214D01*
X-13991434Y4214036D01*
X-14040922Y4173422D01*
X-14081536Y4123934D01*
X-14111714Y4067474D01*
X-14130298Y4006211D01*
X-14136573Y3942500D01*
X-14557452Y3942500D01*
X-14395362Y4050805D01*
X-14210805Y4235362D01*
X-14065800Y4452377D01*
X-14007106Y4594078D01*
X-14002894Y4586198D01*
X-13941324Y4511176D01*
X-13866302Y4449606D01*
X-13780709Y4403856D01*
X-13687835Y4375683D01*
X-13591250Y4366170D01*
X-13078750Y4366170D01*
X-12982165Y4375683D01*
X-12889291Y4403856D01*
X-12803698Y4449606D01*
X-12728676Y4511176D01*
X-12667106Y4586198D01*
X-12657056Y4605000D01*
X-11879299Y4605000D01*
X-11894536Y4586434D01*
X-11924714Y4529974D01*
X-11943298Y4468711D01*
X-11949573Y4405000D01*
X-11948000Y4216250D01*
X-11866750Y4135000D01*
X-11328000Y4135000D01*
X-11328000Y4155000D01*
X-11278000Y4155000D01*
X-11278000Y4135000D01*
X-10739250Y4135000D01*
X-10658000Y4216250D01*
X-10656427Y4405000D01*
X-10662702Y4468711D01*
X-10681286Y4529974D01*
X-10711464Y4586434D01*
X-10752078Y4635922D01*
X-10797594Y4673277D01*
X-10778098Y4697033D01*
X-10738932Y4770307D01*
X-10714814Y4849815D01*
X-10706670Y4932500D01*
X-10706670Y5227500D01*
X-10714814Y5310185D01*
X-10733724Y5372526D01*
X-10731640Y5374610D01*
X-10713505Y5389493D01*
X-10654147Y5461821D01*
X-10610040Y5544340D01*
X-10591118Y5606716D01*
X-10582879Y5633877D01*
X-10573708Y5726993D01*
X-10576006Y5750325D01*
X-10576006Y7904860D01*
X-10546182Y7976863D01*
X-10526006Y8078292D01*
X-10526006Y8181708D01*
X-10546182Y8283137D01*
X-10574825Y8352289D01*
X-10574000Y8360668D01*
X-10574000Y8985669D01*
X-10571702Y9009001D01*
X-10580873Y9102117D01*
X-10591420Y9136884D01*
X-10608034Y9191654D01*
X-10652141Y9274173D01*
X-10711499Y9346501D01*
X-10729634Y9361384D01*
X-10917616Y9549366D01*
X-10932499Y9567501D01*
X-11004827Y9626859D01*
X-11087346Y9670966D01*
X-11176884Y9698127D01*
X-11204106Y9700808D01*
X-11214704Y9735747D01*
X-11238358Y9780000D01*
X-11214704Y9824253D01*
X-11198980Y9876091D01*
X-11193670Y9930000D01*
X-11193670Y10730000D01*
X-11198980Y10783909D01*
X-11214704Y10835747D01*
X-11238358Y10880000D01*
X-11214704Y10924253D01*
X-11198980Y10976091D01*
X-11193670Y11030000D01*
X-11193670Y11055000D01*
X-9162416Y11055000D01*
X-9144000Y11053186D01*
X-9125584Y11055000D01*
X-9125581Y11055000D01*
X-9070487Y11060426D01*
X-8999800Y11081869D01*
X-8934653Y11116691D01*
X-8877552Y11163552D01*
X-8865805Y11177866D01*
X-4446855Y15596814D01*
X-4432552Y15608552D01*
X-4420814Y15622855D01*
X-4420811Y15622858D01*
X-4385691Y15665653D01*
X-4350870Y15730798D01*
X-4350869Y15730800D01*
X-4329426Y15801487D01*
X-4324000Y15856581D01*
X-4324000Y15856583D01*
X-4322186Y15874999D01*
X-4324000Y15893415D01*
X-4324000Y16545171D01*
X-4073624Y16795546D01*
X-4024051Y16780509D01*
X-3927918Y16761387D01*
X-3874009Y16756077D01*
X-3849447Y16756077D01*
X-3825000Y16753669D01*
X-3325000Y16753669D01*
X-3271090Y16758979D01*
X-3219253Y16774703D01*
X-3175000Y16798357D01*
X-3130747Y16774703D01*
X-3078910Y16758979D01*
X-3025000Y16753669D01*
X-2525000Y16753669D01*
X-2500553Y16756077D01*
X-2475991Y16756077D01*
X-2422082Y16761387D01*
X-2325949Y16780509D01*
X-2274112Y16796233D01*
X-2183556Y16833742D01*
X-2135781Y16859278D01*
X-2054282Y16913734D01*
X-2012407Y16948099D01*
X-1943099Y17017407D01*
X-1908734Y17059282D01*
X-1854278Y17140781D01*
X-1828742Y17188556D01*
X-1791233Y17279112D01*
X-1775509Y17330949D01*
X-1765752Y17380000D01*
X-1268484Y17380000D01*
X-1174200Y17152377D01*
%TA.AperFunction,Conductor*%
D30*
G36*
X-1174200Y17152377D02*
G01*
X-1029195Y16935362D01*
X-844638Y16750805D01*
X-627623Y16605800D01*
X-396340Y16510000D01*
X-627623Y16414200D01*
X-844638Y16269195D01*
X-1029195Y16084638D01*
X-1174200Y15867623D01*
X-1274081Y15626488D01*
X-1325000Y15370501D01*
X-1325000Y15109499D01*
X-1311674Y15042506D01*
X-1312653Y15043309D01*
X-1377800Y15078131D01*
X-1448487Y15099574D01*
X-1503581Y15105000D01*
X-1503584Y15105000D01*
X-1522000Y15106814D01*
X-1540416Y15105000D01*
X-1693670Y15105000D01*
X-1693670Y15130000D01*
X-1698980Y15183909D01*
X-1714704Y15235747D01*
X-1740240Y15283521D01*
X-1757867Y15305000D01*
X-1740240Y15326479D01*
X-1714704Y15374253D01*
X-1698980Y15426091D01*
X-1693670Y15480000D01*
X-1693670Y16180000D01*
X-1698980Y16233909D01*
X-1714704Y16285747D01*
X-1740240Y16333521D01*
X-1774605Y16375395D01*
X-1816479Y16409760D01*
X-1864253Y16435296D01*
X-1916091Y16451020D01*
X-1970000Y16456330D01*
X-3770000Y16456330D01*
X-3823909Y16451020D01*
X-3875747Y16435296D01*
X-3923521Y16409760D01*
X-3965395Y16375395D01*
X-3999760Y16333521D01*
X-4025296Y16285747D01*
X-4041020Y16233909D01*
X-4046330Y16180000D01*
X-4046330Y15480000D01*
X-4041020Y15426091D01*
X-4025296Y15374253D01*
X-3999760Y15326479D01*
X-3982133Y15305000D01*
X-3999760Y15283521D01*
X-4025296Y15235747D01*
X-4041020Y15183909D01*
X-4046330Y15130000D01*
X-4046330Y14330000D01*
X-4041020Y14276091D01*
X-4025296Y14224253D01*
X-4001642Y14180000D01*
X-4025296Y14135747D01*
X-4041020Y14083909D01*
X-4046330Y14030000D01*
X-4046330Y13230000D01*
X-4041020Y13176091D01*
X-4025296Y13124253D01*
X-4001642Y13080000D01*
X-4025296Y13035747D01*
X-4041020Y12983909D01*
X-4046330Y12930000D01*
X-4046330Y12130000D01*
X-4041020Y12076091D01*
X-4025296Y12024253D01*
X-4001642Y11980000D01*
X-4025296Y11935747D01*
X-4034622Y11905000D01*
X-4421669Y11905000D01*
X-4445001Y11907298D01*
X-4538117Y11898127D01*
X-4565278Y11889888D01*
X-4627654Y11870966D01*
X-4710173Y11826859D01*
X-4782501Y11767501D01*
X-4797379Y11749372D01*
X-9359371Y7187379D01*
X-9377500Y7172501D01*
X-9436858Y7100173D01*
X-9480965Y7017654D01*
X-9508127Y6928116D01*
X-9517298Y6835000D01*
X-9514999Y6811658D01*
X-9515000Y5518310D01*
X-9525000Y5506125D01*
X-9562807Y5552193D01*
X-9627033Y5604902D01*
X-9700307Y5644068D01*
X-9779815Y5668186D01*
X-9862500Y5676330D01*
X-10157500Y5676330D01*
X-10240185Y5668186D01*
X-10319693Y5644068D01*
X-10392967Y5604902D01*
X-10457193Y5552193D01*
X-10509902Y5487967D01*
X-10549068Y5414693D01*
X-10573186Y5335185D01*
X-10581330Y5252500D01*
X-10581330Y4907500D01*
X-10573186Y4824815D01*
X-10549068Y4745307D01*
X-10509902Y4672033D01*
X-10484999Y4641689D01*
X-10484999Y4248311D01*
X-10509902Y4217967D01*
X-10549068Y4144693D01*
X-10573186Y4065185D01*
X-10581330Y3982500D01*
X-10581330Y3637500D01*
X-10573186Y3554815D01*
X-10549068Y3475307D01*
X-10509902Y3402033D01*
X-10457193Y3337807D01*
X-10392967Y3285098D01*
X-10319693Y3245932D01*
X-10240185Y3221814D01*
X-10157500Y3213670D01*
X-9862500Y3213670D01*
X-9779815Y3221814D01*
X-9700307Y3245932D01*
X-9627033Y3285098D01*
X-9562807Y3337807D01*
X-9525000Y3383875D01*
X-9487193Y3337807D01*
X-9422967Y3285098D01*
X-9349693Y3245932D01*
X-9270185Y3221814D01*
X-9187500Y3213670D01*
X-8892500Y3213670D01*
X-8809815Y3221814D01*
X-8730307Y3245932D01*
X-8657033Y3285098D01*
X-8596227Y3335000D01*
X-8405332Y3335000D01*
X-8382000Y3332702D01*
X-8358668Y3335000D01*
X-8330167Y3337807D01*
X-8288884Y3341873D01*
X-8199346Y3369034D01*
X-8116827Y3413141D01*
X-8095000Y3431054D01*
X-8094999Y2511330D01*
X-8255000Y2511330D01*
X-8308909Y2506020D01*
X-8360747Y2490296D01*
X-8408521Y2464760D01*
X-8450395Y2430395D01*
X-8484760Y2388521D01*
X-8510296Y2340747D01*
X-8526020Y2288909D01*
X-8531330Y2235000D01*
X-8531330Y1582764D01*
X-8570000Y1586573D01*
X-8988750Y1585000D01*
X-9070000Y1503750D01*
X-9070000Y185000D01*
X-9050000Y185000D01*
X-9050000Y135000D01*
X-9070000Y135000D01*
X-9070000Y115000D01*
X-9120000Y115000D01*
X-9120000Y135000D01*
X-9140000Y135000D01*
X-9140000Y185000D01*
X-9120000Y185000D01*
X-9120000Y1503750D01*
X-9201250Y1585000D01*
X-9444334Y1585913D01*
X-9443427Y2735000D01*
X-9449702Y2798711D01*
X-9468286Y2859974D01*
X-9498464Y2916434D01*
X-9539078Y2965922D01*
X-9588566Y3006536D01*
X-9645026Y3036714D01*
X-9706289Y3055298D01*
X-9770000Y3061573D01*
X-10338750Y3060000D01*
X-10420000Y2978750D01*
X-10420000Y660000D01*
X-10400000Y660000D01*
X-10400000Y610000D01*
X-10420000Y610000D01*
X-10420000Y590000D01*
X-10470000Y590000D01*
X-10470000Y610000D01*
X-11363750Y610000D01*
X-11445000Y528750D01*
X-11446163Y-945000D01*
X-14311167Y-945000D01*
X-14210805Y-844638D01*
X-14065800Y-627623D01*
X-13965919Y-386488D01*
X-13915000Y-130501D01*
X-13915000Y130501D01*
X-13965919Y386488D01*
X-14065800Y627623D01*
X-14210805Y844638D01*
X-14395362Y1029195D01*
X-14612377Y1174200D01*
X-14776142Y1242033D01*
X-14738410Y1252612D01*
X-14496890Y1375204D01*
X-14448243Y1407708D01*
X-14338324Y1602968D01*
X-15240000Y2504645D01*
X-15254142Y2490502D01*
X-15289498Y2525858D01*
X-15275355Y2540000D01*
X-15204645Y2540000D01*
X-14302968Y1638324D01*
X-14107708Y1748243D01*
X-13975001Y1984356D01*
X-13890907Y2241822D01*
X-13858658Y2510746D01*
X-13875960Y2735000D01*
X-11446573Y2735000D01*
X-11445000Y741250D01*
X-11363750Y660000D01*
X-10470000Y660000D01*
X-10470000Y2978750D01*
X-10551250Y3060000D01*
X-11120000Y3061573D01*
X-11183711Y3055298D01*
X-11244974Y3036714D01*
X-11301434Y3006536D01*
X-11350922Y2965922D01*
X-11391536Y2916434D01*
X-11421714Y2859974D01*
X-11440298Y2798711D01*
X-11446573Y2735000D01*
X-13875960Y2735000D01*
X-13876978Y2748193D01*
X-13873711Y2747202D01*
X-13810000Y2740927D01*
X-13441250Y2742500D01*
X-13360000Y2823750D01*
X-13360000Y3480000D01*
X-13310000Y3480000D01*
X-13310000Y2823750D01*
X-13228750Y2742500D01*
X-12860000Y2740927D01*
X-12796289Y2747202D01*
X-12735026Y2765786D01*
X-12678566Y2795964D01*
X-12629078Y2836578D01*
X-12588464Y2886066D01*
X-12558286Y2942526D01*
X-12539702Y3003789D01*
X-12533427Y3067500D01*
X-12535000Y3398750D01*
X-12616250Y3480000D01*
X-13310000Y3480000D01*
X-13360000Y3480000D01*
X-14053750Y3480000D01*
X-14135000Y3398750D01*
X-14135245Y3347258D01*
X-14302968Y3441676D01*
X-15204645Y2540000D01*
X-15275355Y2540000D01*
X-15289498Y2554142D01*
X-15254142Y2589498D01*
X-15240000Y2575355D01*
X-14338324Y3477032D01*
X-14448243Y3672292D01*
X-14684356Y3804999D01*
X-14780176Y3836296D01*
X-14612377Y3905800D01*
X-14557452Y3942500D01*
X-14136573Y3942500D01*
X-14135000Y3611250D01*
X-14053750Y3530000D01*
X-13360000Y3530000D01*
X-13360000Y4186250D01*
X-13310000Y4186250D01*
X-13310000Y3530000D01*
X-12616250Y3530000D01*
X-12535000Y3611250D01*
X-12534033Y3815000D01*
X-11949573Y3815000D01*
X-11943298Y3751289D01*
X-11924714Y3690026D01*
X-11894536Y3633566D01*
X-11853922Y3584078D01*
X-11804434Y3543464D01*
X-11747974Y3513286D01*
X-11686711Y3494702D01*
X-11623000Y3488427D01*
X-11409250Y3490000D01*
X-11328000Y3571250D01*
X-11328000Y4085000D01*
X-11278000Y4085000D01*
X-11278000Y3571250D01*
X-11196750Y3490000D01*
X-10983000Y3488427D01*
X-10919289Y3494702D01*
X-10858026Y3513286D01*
X-10801566Y3543464D01*
X-10752078Y3584078D01*
X-10711464Y3633566D01*
X-10681286Y3690026D01*
X-10662702Y3751289D01*
X-10656427Y3815000D01*
X-10658000Y4003750D01*
X-10739250Y4085000D01*
X-11278000Y4085000D01*
X-11328000Y4085000D01*
X-11866750Y4085000D01*
X-11948000Y4003750D01*
X-11949573Y3815000D01*
X-12534033Y3815000D01*
X-12533427Y3942500D01*
X-12539702Y4006211D01*
X-12558286Y4067474D01*
X-12588464Y4123934D01*
X-12629078Y4173422D01*
X-12678566Y4214036D01*
X-12735026Y4244214D01*
X-12796289Y4262798D01*
X-12860000Y4269073D01*
X-13228750Y4267500D01*
X-13310000Y4186250D01*
X-13360000Y4186250D01*
X-13441250Y4267500D01*
X-13810000Y4269073D01*
X-13873711Y4262798D01*
X-13934974Y4244214D01*
X-13991434Y4214036D01*
X-14040922Y4173422D01*
X-14081536Y4123934D01*
X-14111714Y4067474D01*
X-14130298Y4006211D01*
X-14136573Y3942500D01*
X-14557452Y3942500D01*
X-14395362Y4050805D01*
X-14210805Y4235362D01*
X-14065800Y4452377D01*
X-14007106Y4594078D01*
X-14002894Y4586198D01*
X-13941324Y4511176D01*
X-13866302Y4449606D01*
X-13780709Y4403856D01*
X-13687835Y4375683D01*
X-13591250Y4366170D01*
X-13078750Y4366170D01*
X-12982165Y4375683D01*
X-12889291Y4403856D01*
X-12803698Y4449606D01*
X-12728676Y4511176D01*
X-12667106Y4586198D01*
X-12657056Y4605000D01*
X-11879299Y4605000D01*
X-11894536Y4586434D01*
X-11924714Y4529974D01*
X-11943298Y4468711D01*
X-11949573Y4405000D01*
X-11948000Y4216250D01*
X-11866750Y4135000D01*
X-11328000Y4135000D01*
X-11328000Y4155000D01*
X-11278000Y4155000D01*
X-11278000Y4135000D01*
X-10739250Y4135000D01*
X-10658000Y4216250D01*
X-10656427Y4405000D01*
X-10662702Y4468711D01*
X-10681286Y4529974D01*
X-10711464Y4586434D01*
X-10752078Y4635922D01*
X-10797594Y4673277D01*
X-10778098Y4697033D01*
X-10738932Y4770307D01*
X-10714814Y4849815D01*
X-10706670Y4932500D01*
X-10706670Y5227500D01*
X-10714814Y5310185D01*
X-10733724Y5372526D01*
X-10731640Y5374610D01*
X-10713505Y5389493D01*
X-10654147Y5461821D01*
X-10610040Y5544340D01*
X-10591118Y5606716D01*
X-10582879Y5633877D01*
X-10573708Y5726993D01*
X-10576006Y5750325D01*
X-10576006Y7904860D01*
X-10546182Y7976863D01*
X-10526006Y8078292D01*
X-10526006Y8181708D01*
X-10546182Y8283137D01*
X-10574825Y8352289D01*
X-10574000Y8360668D01*
X-10574000Y8985669D01*
X-10571702Y9009001D01*
X-10580873Y9102117D01*
X-10591420Y9136884D01*
X-10608034Y9191654D01*
X-10652141Y9274173D01*
X-10711499Y9346501D01*
X-10729634Y9361384D01*
X-10917616Y9549366D01*
X-10932499Y9567501D01*
X-11004827Y9626859D01*
X-11087346Y9670966D01*
X-11176884Y9698127D01*
X-11204106Y9700808D01*
X-11214704Y9735747D01*
X-11238358Y9780000D01*
X-11214704Y9824253D01*
X-11198980Y9876091D01*
X-11193670Y9930000D01*
X-11193670Y10730000D01*
X-11198980Y10783909D01*
X-11214704Y10835747D01*
X-11238358Y10880000D01*
X-11214704Y10924253D01*
X-11198980Y10976091D01*
X-11193670Y11030000D01*
X-11193670Y11055000D01*
X-9162416Y11055000D01*
X-9144000Y11053186D01*
X-9125584Y11055000D01*
X-9125581Y11055000D01*
X-9070487Y11060426D01*
X-8999800Y11081869D01*
X-8934653Y11116691D01*
X-8877552Y11163552D01*
X-8865805Y11177866D01*
X-4446855Y15596814D01*
X-4432552Y15608552D01*
X-4420814Y15622855D01*
X-4420811Y15622858D01*
X-4385691Y15665653D01*
X-4350870Y15730798D01*
X-4350869Y15730800D01*
X-4329426Y15801487D01*
X-4324000Y15856581D01*
X-4324000Y15856583D01*
X-4322186Y15874999D01*
X-4324000Y15893415D01*
X-4324000Y16545171D01*
X-4073624Y16795546D01*
X-4024051Y16780509D01*
X-3927918Y16761387D01*
X-3874009Y16756077D01*
X-3849447Y16756077D01*
X-3825000Y16753669D01*
X-3325000Y16753669D01*
X-3271090Y16758979D01*
X-3219253Y16774703D01*
X-3175000Y16798357D01*
X-3130747Y16774703D01*
X-3078910Y16758979D01*
X-3025000Y16753669D01*
X-2525000Y16753669D01*
X-2500553Y16756077D01*
X-2475991Y16756077D01*
X-2422082Y16761387D01*
X-2325949Y16780509D01*
X-2274112Y16796233D01*
X-2183556Y16833742D01*
X-2135781Y16859278D01*
X-2054282Y16913734D01*
X-2012407Y16948099D01*
X-1943099Y17017407D01*
X-1908734Y17059282D01*
X-1854278Y17140781D01*
X-1828742Y17188556D01*
X-1791233Y17279112D01*
X-1775509Y17330949D01*
X-1765752Y17380000D01*
X-1268484Y17380000D01*
X-1174200Y17152377D01*
G37*
%TD.AperFunction*%
D29*
X-1663447Y11290552D02*
X-1649138Y11278809D01*
X-1167692Y10797363D01*
X-1174200Y10787623D01*
X-1274081Y10546488D01*
X-1325000Y10290501D01*
X-1325000Y10029499D01*
X-1274081Y9773512D01*
X-1174200Y9532377D01*
X-1029195Y9315362D01*
X-844638Y9130805D01*
X-627623Y8985800D01*
X-463858Y8917967D01*
X-501590Y8907388D01*
X-743110Y8784796D01*
X-791757Y8752292D01*
X-901676Y8557032D01*
X0Y7655355D01*
X14142Y7669498D01*
X49498Y7634142D01*
X35355Y7620000D01*
X49498Y7605858D01*
X14142Y7570502D01*
X0Y7584645D01*
X-14142Y7570502D01*
X-49498Y7605858D01*
X-35355Y7620000D01*
X-937032Y8521676D01*
X-1132292Y8411757D01*
X-1264999Y8175644D01*
X-1349093Y7918178D01*
X-1381342Y7649254D01*
X-1360507Y7379205D01*
X-1287388Y7118410D01*
X-1164796Y6876890D01*
X-1155140Y6862438D01*
X-1218292Y6875000D01*
X-1321708Y6875000D01*
X-1423137Y6854824D01*
X-1518681Y6815249D01*
X-1604668Y6757794D01*
X-1637462Y6725000D01*
X-1643717Y6725000D01*
X-1645000Y6923750D01*
X-1726250Y7005000D01*
X-2845000Y7005000D01*
X-2845000Y6436250D01*
X-2763750Y6355000D01*
X-2557738Y6354592D01*
X-2792139Y6120190D01*
X-2806447Y6108448D01*
X-2853308Y6051347D01*
X-2885374Y5991356D01*
X-2892918Y5990613D01*
X-2989051Y5971491D01*
X-3040888Y5955767D01*
X-3131444Y5918258D01*
X-3179219Y5892722D01*
X-3260718Y5838266D01*
X-3302593Y5803901D01*
X-3371901Y5734593D01*
X-3406266Y5692718D01*
X-3460722Y5611219D01*
X-3486258Y5563444D01*
X-3523767Y5472888D01*
X-3539491Y5421051D01*
X-3558613Y5324918D01*
X-3563923Y5271009D01*
X-3563923Y5246447D01*
X-3566331Y5222000D01*
X-3566331Y4785325D01*
X-3656863Y4822824D01*
X-3758292Y4843000D01*
X-3861708Y4843000D01*
X-3963137Y4822824D01*
X-4058681Y4783249D01*
X-4144668Y4725794D01*
X-4217794Y4652668D01*
X-4275249Y4566681D01*
X-4314824Y4471137D01*
X-4335000Y4369708D01*
X-4335000Y4266292D01*
X-4314824Y4164863D01*
X-4275249Y4069319D01*
X-4217794Y3983332D01*
X-4185000Y3950538D01*
X-4185000Y3728863D01*
X-4186814Y3710447D01*
X-4185000Y3692031D01*
X-4185000Y3692029D01*
X-4179574Y3636935D01*
X-4158131Y3566248D01*
X-4123309Y3501101D01*
X-4076448Y3443999D01*
X-4062134Y3432252D01*
X-2914999Y2285115D01*
X-2914999Y1922221D01*
X-2989051Y1907491D01*
X-3040888Y1891767D01*
X-3131444Y1854258D01*
X-3179219Y1828722D01*
X-3260718Y1774266D01*
X-3302593Y1739901D01*
X-3371901Y1670593D01*
X-3406266Y1628718D01*
X-3460722Y1547219D01*
X-3486258Y1499444D01*
X-3523767Y1408888D01*
X-3539491Y1357051D01*
X-3558613Y1260918D01*
X-3563923Y1207009D01*
X-3563923Y1182447D01*
X-3566331Y1158000D01*
X-3566331Y658000D01*
X-3561021Y604090D01*
X-3545297Y552253D01*
X-3521643Y508000D01*
X-3545297Y463747D01*
X-3561021Y411910D01*
X-3566331Y358000D01*
X-3566331Y-142000D01*
X-3563923Y-166447D01*
X-3563923Y-191009D01*
X-3558613Y-244918D01*
X-3539491Y-341051D01*
X-3523767Y-392888D01*
X-3486258Y-483444D01*
X-3460722Y-531219D01*
X-3406266Y-612718D01*
X-3371901Y-654593D01*
X-3302593Y-723901D01*
X-3260718Y-758266D01*
X-3179219Y-812722D01*
X-3131444Y-838258D01*
X-3040888Y-875767D01*
X-2989051Y-891491D01*
X-2892918Y-910613D01*
X-2839009Y-915923D01*
X-2814447Y-915923D01*
X-2790000Y-918331D01*
X-2290000Y-918331D01*
X-2265553Y-915923D01*
X-2240991Y-915923D01*
X-2187082Y-910613D01*
X-2090949Y-891491D01*
X-2039112Y-875767D01*
X-1948556Y-838258D01*
X-1900781Y-812722D01*
X-1819282Y-758266D01*
X-1777407Y-723901D01*
X-1708099Y-654593D01*
X-1673734Y-612718D01*
X-1619278Y-531219D01*
X-1593742Y-483444D01*
X-1590244Y-475000D01*
X-1326330Y-475000D01*
X-1326330Y-945000D01*
X-3793837Y-945000D01*
X-3795000Y528750D01*
X-3876250Y610000D01*
X-4770000Y610000D01*
X-4770000Y590000D01*
X-4820000Y590000D01*
X-4820000Y610000D01*
X-4840000Y610000D01*
X-4840000Y660000D01*
X-4820000Y660000D01*
X-4820000Y2978750D01*
X-4770000Y2978750D01*
X-4770000Y660000D01*
X-3876250Y660000D01*
X-3795000Y741250D01*
X-3793427Y2735000D01*
X-3799702Y2798711D01*
X-3818286Y2859974D01*
X-3848464Y2916434D01*
X-3889078Y2965922D01*
X-3938566Y3006536D01*
X-3995026Y3036714D01*
X-4056289Y3055298D01*
X-4120000Y3061573D01*
X-4688750Y3060000D01*
X-4770000Y2978750D01*
X-4820000Y2978750D01*
X-4901250Y3060000D01*
X-5470000Y3061573D01*
X-5533711Y3055298D01*
X-5594974Y3036714D01*
X-5651434Y3006536D01*
X-5700922Y2965922D01*
X-5741536Y2916434D01*
X-5771714Y2859974D01*
X-5790298Y2798711D01*
X-5796573Y2735000D01*
X-5795666Y1585913D01*
X-6038750Y1585000D01*
X-6120000Y1503750D01*
X-6120000Y185000D01*
X-6100000Y185000D01*
X-6100000Y135000D01*
X-6120000Y135000D01*
X-6120000Y115000D01*
X-6170000Y115000D01*
X-6170000Y135000D01*
X-6190000Y135000D01*
X-6190000Y185000D01*
X-6170000Y185000D01*
X-6170000Y1503750D01*
X-6251250Y1585000D01*
X-6670000Y1586573D01*
X-6708670Y1582764D01*
X-6708670Y2235000D01*
X-6713980Y2288909D01*
X-6729704Y2340747D01*
X-6755240Y2388521D01*
X-6789605Y2430395D01*
X-6831479Y2464760D01*
X-6879253Y2490296D01*
X-6931091Y2506020D01*
X-6985000Y2511330D01*
X-7145000Y2511330D01*
X-7145000Y3431054D01*
X-7123173Y3413141D01*
X-7040654Y3369034D01*
X-6971956Y3348195D01*
X-6951117Y3341873D01*
X-6858001Y3332702D01*
X-6834669Y3335000D01*
X-6643773Y3335000D01*
X-6582967Y3285098D01*
X-6509693Y3245932D01*
X-6430185Y3221814D01*
X-6347500Y3213670D01*
X-6052500Y3213670D01*
X-5969815Y3221814D01*
X-5890307Y3245932D01*
X-5817033Y3285098D01*
X-5793277Y3304594D01*
X-5755922Y3259078D01*
X-5706434Y3218464D01*
X-5649974Y3188286D01*
X-5588711Y3169702D01*
X-5525000Y3163427D01*
X-5336250Y3165000D01*
X-5255000Y3246250D01*
X-5255000Y3785000D01*
X-5205000Y3785000D01*
X-5205000Y3246250D01*
X-5123750Y3165000D01*
X-4935000Y3163427D01*
X-4871289Y3169702D01*
X-4810026Y3188286D01*
X-4753566Y3218464D01*
X-4704078Y3259078D01*
X-4663464Y3308566D01*
X-4633286Y3365026D01*
X-4614702Y3426289D01*
X-4608427Y3490000D01*
X-4610000Y3703750D01*
X-4691250Y3785000D01*
X-5205000Y3785000D01*
X-5255000Y3785000D01*
X-5275000Y3785000D01*
X-5275000Y3835000D01*
X-5255000Y3835000D01*
X-5255000Y4373750D01*
X-5326250Y4445000D01*
X-5255000Y4516250D01*
X-5255000Y5055000D01*
X-5205000Y5055000D01*
X-5205000Y4516250D01*
X-5133750Y4445000D01*
X-5205000Y4373750D01*
X-5205000Y3835000D01*
X-4691250Y3835000D01*
X-4610000Y3916250D01*
X-4608427Y4130000D01*
X-4614702Y4193711D01*
X-4633286Y4254974D01*
X-4663464Y4311434D01*
X-4704078Y4360922D01*
X-4753566Y4401536D01*
X-4810026Y4431714D01*
X-4853824Y4445000D01*
X-4810026Y4458286D01*
X-4753566Y4488464D01*
X-4704078Y4529078D01*
X-4663464Y4578566D01*
X-4633286Y4635026D01*
X-4614702Y4696289D01*
X-4608427Y4760000D01*
X-4610000Y4973750D01*
X-4691250Y5055000D01*
X-5205000Y5055000D01*
X-5255000Y5055000D01*
X-5275000Y5055000D01*
X-5275000Y5105000D01*
X-5255000Y5105000D01*
X-5255000Y5643750D01*
X-5205000Y5643750D01*
X-5205000Y5105000D01*
X-4691250Y5105000D01*
X-4610000Y5186250D01*
X-4608427Y5400000D01*
X-4614702Y5463711D01*
X-4633286Y5524974D01*
X-4663464Y5581434D01*
X-4704078Y5630922D01*
X-4753566Y5671536D01*
X-4810026Y5701714D01*
X-4871289Y5720298D01*
X-4935000Y5726573D01*
X-5123750Y5725000D01*
X-5205000Y5643750D01*
X-5255000Y5643750D01*
X-5336250Y5725000D01*
X-5525000Y5726573D01*
X-5588711Y5720298D01*
X-5649974Y5701714D01*
X-5706434Y5671536D01*
X-5755922Y5630922D01*
X-5793277Y5585406D01*
X-5817033Y5604902D01*
X-5890307Y5644068D01*
X-5969815Y5668186D01*
X-6052500Y5676330D01*
X-6347500Y5676330D01*
X-6430185Y5668186D01*
X-6509693Y5644068D01*
X-6582967Y5604902D01*
X-6643773Y5555000D01*
X-6961668Y5555000D01*
X-6985001Y5557298D01*
X-7078117Y5548127D01*
X-7098956Y5541805D01*
X-7131237Y5532013D01*
X-5983249Y6680000D01*
X-4096573Y6680000D01*
X-4090298Y6616289D01*
X-4071714Y6555026D01*
X-4041536Y6498566D01*
X-4000922Y6449078D01*
X-3951434Y6408464D01*
X-3894974Y6378286D01*
X-3833711Y6359702D01*
X-3770000Y6353427D01*
X-2976250Y6355000D01*
X-2895000Y6436250D01*
X-2895000Y7005000D01*
X-4013750Y7005000D01*
X-4095000Y6923750D01*
X-4096573Y6680000D01*
X-5983249Y6680000D01*
X-5008248Y7655000D01*
X-4034622Y7655000D01*
X-4025296Y7624253D01*
X-4011367Y7598194D01*
X-4041536Y7561434D01*
X-4071714Y7504974D01*
X-4090298Y7443711D01*
X-4096573Y7380000D01*
X-4095000Y7136250D01*
X-4013750Y7055000D01*
X-2895000Y7055000D01*
X-2895000Y7075000D01*
X-2845000Y7075000D01*
X-2845000Y7055000D01*
X-1726250Y7055000D01*
X-1645000Y7136250D01*
X-1643427Y7380000D01*
X-1649702Y7443711D01*
X-1668286Y7504974D01*
X-1698464Y7561434D01*
X-1728633Y7598194D01*
X-1714704Y7624253D01*
X-1698980Y7676091D01*
X-1693670Y7730000D01*
X-1693670Y8530000D01*
X-1698980Y8583909D01*
X-1713160Y8630658D01*
X-1698464Y8648566D01*
X-1668286Y8705026D01*
X-1649702Y8766289D01*
X-1643427Y8830000D01*
X-1645000Y9123750D01*
X-1726250Y9205000D01*
X-2845000Y9205000D01*
X-2845000Y9185000D01*
X-2895000Y9185000D01*
X-2895000Y9205000D01*
X-4013750Y9205000D01*
X-4095000Y9123750D01*
X-4096573Y8830000D01*
X-4090298Y8766289D01*
X-4071714Y8705026D01*
X-4041536Y8648566D01*
X-4026840Y8630658D01*
X-4034622Y8605000D01*
X-5181668Y8605000D01*
X-5205000Y8607298D01*
X-5228332Y8605000D01*
X-5298116Y8598127D01*
X-5387654Y8570966D01*
X-5470173Y8526859D01*
X-5542501Y8467501D01*
X-5557375Y8449377D01*
X-7939371Y6067379D01*
X-7957500Y6052501D01*
X-8016858Y5980173D01*
X-8046542Y5924638D01*
X-8060965Y5897654D01*
X-8088127Y5808116D01*
X-8097298Y5715000D01*
X-8094999Y5691658D01*
X-8094999Y5373773D01*
X-8144902Y5312967D01*
X-8184068Y5239693D01*
X-8208186Y5160185D01*
X-8216330Y5077500D01*
X-8216330Y4782500D01*
X-8208186Y4699815D01*
X-8184068Y4620307D01*
X-8144902Y4547033D01*
X-8092193Y4482807D01*
X-8046125Y4445000D01*
X-8058310Y4435000D01*
X-8208668Y4435000D01*
X-8232001Y4437298D01*
X-8325117Y4428127D01*
X-8345314Y4422000D01*
X-8414654Y4400966D01*
X-8497173Y4356859D01*
X-8569501Y4297501D01*
X-8579760Y4285000D01*
X-8596227Y4285000D01*
X-8657033Y4334902D01*
X-8730307Y4374068D01*
X-8809815Y4398186D01*
X-8892500Y4406330D01*
X-9187500Y4406330D01*
X-9270185Y4398186D01*
X-9349693Y4374068D01*
X-9422967Y4334902D01*
X-9487193Y4282193D01*
X-9525000Y4236125D01*
X-9535000Y4248310D01*
X-9535000Y4641690D01*
X-9525000Y4653875D01*
X-9487193Y4607807D01*
X-9422967Y4555098D01*
X-9349693Y4515932D01*
X-9270185Y4491814D01*
X-9187500Y4483670D01*
X-8892500Y4483670D01*
X-8809815Y4491814D01*
X-8730307Y4515932D01*
X-8657033Y4555098D01*
X-8592807Y4607807D01*
X-8540098Y4672033D01*
X-8500932Y4745307D01*
X-8476814Y4824815D01*
X-8468670Y4907500D01*
X-8468670Y5252500D01*
X-8476814Y5335185D01*
X-8500932Y5414693D01*
X-8540098Y5487967D01*
X-8565000Y5518310D01*
X-8565000Y6638250D01*
X-4248249Y10955000D01*
X-4034622Y10955000D01*
X-4025296Y10924253D01*
X-4001642Y10880000D01*
X-4025296Y10835747D01*
X-4041020Y10783909D01*
X-4046330Y10730000D01*
X-4046330Y9930000D01*
X-4041020Y9876091D01*
X-4026840Y9829342D01*
X-4041536Y9811434D01*
X-4071714Y9754974D01*
X-4090298Y9693711D01*
X-4096573Y9630000D01*
X-4095000Y9336250D01*
X-4013750Y9255000D01*
X-2895000Y9255000D01*
X-2895000Y9275000D01*
X-2845000Y9275000D01*
X-2845000Y9255000D01*
X-1726250Y9255000D01*
X-1645000Y9336250D01*
X-1643427Y9630000D01*
X-1649702Y9693711D01*
X-1668286Y9754974D01*
X-1698464Y9811434D01*
X-1713160Y9829342D01*
X-1698980Y9876091D01*
X-1693670Y9930000D01*
X-1693670Y10730000D01*
X-1698980Y10783909D01*
X-1714704Y10835747D01*
X-1738358Y10880000D01*
X-1714704Y10924253D01*
X-1698980Y10976091D01*
X-1693670Y11030000D01*
X-1693670Y11327379D01*
X-1663447Y11290552D01*
%TA.AperFunction,Conductor*%
D30*
G36*
X-1663447Y11290552D02*
G01*
X-1649138Y11278809D01*
X-1167692Y10797363D01*
X-1174200Y10787623D01*
X-1274081Y10546488D01*
X-1325000Y10290501D01*
X-1325000Y10029499D01*
X-1274081Y9773512D01*
X-1174200Y9532377D01*
X-1029195Y9315362D01*
X-844638Y9130805D01*
X-627623Y8985800D01*
X-463858Y8917967D01*
X-501590Y8907388D01*
X-743110Y8784796D01*
X-791757Y8752292D01*
X-901676Y8557032D01*
X0Y7655355D01*
X14142Y7669498D01*
X49498Y7634142D01*
X35355Y7620000D01*
X49498Y7605858D01*
X14142Y7570502D01*
X0Y7584645D01*
X-14142Y7570502D01*
X-49498Y7605858D01*
X-35355Y7620000D01*
X-937032Y8521676D01*
X-1132292Y8411757D01*
X-1264999Y8175644D01*
X-1349093Y7918178D01*
X-1381342Y7649254D01*
X-1360507Y7379205D01*
X-1287388Y7118410D01*
X-1164796Y6876890D01*
X-1155140Y6862438D01*
X-1218292Y6875000D01*
X-1321708Y6875000D01*
X-1423137Y6854824D01*
X-1518681Y6815249D01*
X-1604668Y6757794D01*
X-1637462Y6725000D01*
X-1643717Y6725000D01*
X-1645000Y6923750D01*
X-1726250Y7005000D01*
X-2845000Y7005000D01*
X-2845000Y6436250D01*
X-2763750Y6355000D01*
X-2557738Y6354592D01*
X-2792139Y6120190D01*
X-2806447Y6108448D01*
X-2853308Y6051347D01*
X-2885374Y5991356D01*
X-2892918Y5990613D01*
X-2989051Y5971491D01*
X-3040888Y5955767D01*
X-3131444Y5918258D01*
X-3179219Y5892722D01*
X-3260718Y5838266D01*
X-3302593Y5803901D01*
X-3371901Y5734593D01*
X-3406266Y5692718D01*
X-3460722Y5611219D01*
X-3486258Y5563444D01*
X-3523767Y5472888D01*
X-3539491Y5421051D01*
X-3558613Y5324918D01*
X-3563923Y5271009D01*
X-3563923Y5246447D01*
X-3566331Y5222000D01*
X-3566331Y4785325D01*
X-3656863Y4822824D01*
X-3758292Y4843000D01*
X-3861708Y4843000D01*
X-3963137Y4822824D01*
X-4058681Y4783249D01*
X-4144668Y4725794D01*
X-4217794Y4652668D01*
X-4275249Y4566681D01*
X-4314824Y4471137D01*
X-4335000Y4369708D01*
X-4335000Y4266292D01*
X-4314824Y4164863D01*
X-4275249Y4069319D01*
X-4217794Y3983332D01*
X-4185000Y3950538D01*
X-4185000Y3728863D01*
X-4186814Y3710447D01*
X-4185000Y3692031D01*
X-4185000Y3692029D01*
X-4179574Y3636935D01*
X-4158131Y3566248D01*
X-4123309Y3501101D01*
X-4076448Y3443999D01*
X-4062134Y3432252D01*
X-2914999Y2285115D01*
X-2914999Y1922221D01*
X-2989051Y1907491D01*
X-3040888Y1891767D01*
X-3131444Y1854258D01*
X-3179219Y1828722D01*
X-3260718Y1774266D01*
X-3302593Y1739901D01*
X-3371901Y1670593D01*
X-3406266Y1628718D01*
X-3460722Y1547219D01*
X-3486258Y1499444D01*
X-3523767Y1408888D01*
X-3539491Y1357051D01*
X-3558613Y1260918D01*
X-3563923Y1207009D01*
X-3563923Y1182447D01*
X-3566331Y1158000D01*
X-3566331Y658000D01*
X-3561021Y604090D01*
X-3545297Y552253D01*
X-3521643Y508000D01*
X-3545297Y463747D01*
X-3561021Y411910D01*
X-3566331Y358000D01*
X-3566331Y-142000D01*
X-3563923Y-166447D01*
X-3563923Y-191009D01*
X-3558613Y-244918D01*
X-3539491Y-341051D01*
X-3523767Y-392888D01*
X-3486258Y-483444D01*
X-3460722Y-531219D01*
X-3406266Y-612718D01*
X-3371901Y-654593D01*
X-3302593Y-723901D01*
X-3260718Y-758266D01*
X-3179219Y-812722D01*
X-3131444Y-838258D01*
X-3040888Y-875767D01*
X-2989051Y-891491D01*
X-2892918Y-910613D01*
X-2839009Y-915923D01*
X-2814447Y-915923D01*
X-2790000Y-918331D01*
X-2290000Y-918331D01*
X-2265553Y-915923D01*
X-2240991Y-915923D01*
X-2187082Y-910613D01*
X-2090949Y-891491D01*
X-2039112Y-875767D01*
X-1948556Y-838258D01*
X-1900781Y-812722D01*
X-1819282Y-758266D01*
X-1777407Y-723901D01*
X-1708099Y-654593D01*
X-1673734Y-612718D01*
X-1619278Y-531219D01*
X-1593742Y-483444D01*
X-1590244Y-475000D01*
X-1326330Y-475000D01*
X-1326330Y-945000D01*
X-3793837Y-945000D01*
X-3795000Y528750D01*
X-3876250Y610000D01*
X-4770000Y610000D01*
X-4770000Y590000D01*
X-4820000Y590000D01*
X-4820000Y610000D01*
X-4840000Y610000D01*
X-4840000Y660000D01*
X-4820000Y660000D01*
X-4820000Y2978750D01*
X-4770000Y2978750D01*
X-4770000Y660000D01*
X-3876250Y660000D01*
X-3795000Y741250D01*
X-3793427Y2735000D01*
X-3799702Y2798711D01*
X-3818286Y2859974D01*
X-3848464Y2916434D01*
X-3889078Y2965922D01*
X-3938566Y3006536D01*
X-3995026Y3036714D01*
X-4056289Y3055298D01*
X-4120000Y3061573D01*
X-4688750Y3060000D01*
X-4770000Y2978750D01*
X-4820000Y2978750D01*
X-4901250Y3060000D01*
X-5470000Y3061573D01*
X-5533711Y3055298D01*
X-5594974Y3036714D01*
X-5651434Y3006536D01*
X-5700922Y2965922D01*
X-5741536Y2916434D01*
X-5771714Y2859974D01*
X-5790298Y2798711D01*
X-5796573Y2735000D01*
X-5795666Y1585913D01*
X-6038750Y1585000D01*
X-6120000Y1503750D01*
X-6120000Y185000D01*
X-6100000Y185000D01*
X-6100000Y135000D01*
X-6120000Y135000D01*
X-6120000Y115000D01*
X-6170000Y115000D01*
X-6170000Y135000D01*
X-6190000Y135000D01*
X-6190000Y185000D01*
X-6170000Y185000D01*
X-6170000Y1503750D01*
X-6251250Y1585000D01*
X-6670000Y1586573D01*
X-6708670Y1582764D01*
X-6708670Y2235000D01*
X-6713980Y2288909D01*
X-6729704Y2340747D01*
X-6755240Y2388521D01*
X-6789605Y2430395D01*
X-6831479Y2464760D01*
X-6879253Y2490296D01*
X-6931091Y2506020D01*
X-6985000Y2511330D01*
X-7145000Y2511330D01*
X-7145000Y3431054D01*
X-7123173Y3413141D01*
X-7040654Y3369034D01*
X-6971956Y3348195D01*
X-6951117Y3341873D01*
X-6858001Y3332702D01*
X-6834669Y3335000D01*
X-6643773Y3335000D01*
X-6582967Y3285098D01*
X-6509693Y3245932D01*
X-6430185Y3221814D01*
X-6347500Y3213670D01*
X-6052500Y3213670D01*
X-5969815Y3221814D01*
X-5890307Y3245932D01*
X-5817033Y3285098D01*
X-5793277Y3304594D01*
X-5755922Y3259078D01*
X-5706434Y3218464D01*
X-5649974Y3188286D01*
X-5588711Y3169702D01*
X-5525000Y3163427D01*
X-5336250Y3165000D01*
X-5255000Y3246250D01*
X-5255000Y3785000D01*
X-5205000Y3785000D01*
X-5205000Y3246250D01*
X-5123750Y3165000D01*
X-4935000Y3163427D01*
X-4871289Y3169702D01*
X-4810026Y3188286D01*
X-4753566Y3218464D01*
X-4704078Y3259078D01*
X-4663464Y3308566D01*
X-4633286Y3365026D01*
X-4614702Y3426289D01*
X-4608427Y3490000D01*
X-4610000Y3703750D01*
X-4691250Y3785000D01*
X-5205000Y3785000D01*
X-5255000Y3785000D01*
X-5275000Y3785000D01*
X-5275000Y3835000D01*
X-5255000Y3835000D01*
X-5255000Y4373750D01*
X-5326250Y4445000D01*
X-5255000Y4516250D01*
X-5255000Y5055000D01*
X-5205000Y5055000D01*
X-5205000Y4516250D01*
X-5133750Y4445000D01*
X-5205000Y4373750D01*
X-5205000Y3835000D01*
X-4691250Y3835000D01*
X-4610000Y3916250D01*
X-4608427Y4130000D01*
X-4614702Y4193711D01*
X-4633286Y4254974D01*
X-4663464Y4311434D01*
X-4704078Y4360922D01*
X-4753566Y4401536D01*
X-4810026Y4431714D01*
X-4853824Y4445000D01*
X-4810026Y4458286D01*
X-4753566Y4488464D01*
X-4704078Y4529078D01*
X-4663464Y4578566D01*
X-4633286Y4635026D01*
X-4614702Y4696289D01*
X-4608427Y4760000D01*
X-4610000Y4973750D01*
X-4691250Y5055000D01*
X-5205000Y5055000D01*
X-5255000Y5055000D01*
X-5275000Y5055000D01*
X-5275000Y5105000D01*
X-5255000Y5105000D01*
X-5255000Y5643750D01*
X-5205000Y5643750D01*
X-5205000Y5105000D01*
X-4691250Y5105000D01*
X-4610000Y5186250D01*
X-4608427Y5400000D01*
X-4614702Y5463711D01*
X-4633286Y5524974D01*
X-4663464Y5581434D01*
X-4704078Y5630922D01*
X-4753566Y5671536D01*
X-4810026Y5701714D01*
X-4871289Y5720298D01*
X-4935000Y5726573D01*
X-5123750Y5725000D01*
X-5205000Y5643750D01*
X-5255000Y5643750D01*
X-5336250Y5725000D01*
X-5525000Y5726573D01*
X-5588711Y5720298D01*
X-5649974Y5701714D01*
X-5706434Y5671536D01*
X-5755922Y5630922D01*
X-5793277Y5585406D01*
X-5817033Y5604902D01*
X-5890307Y5644068D01*
X-5969815Y5668186D01*
X-6052500Y5676330D01*
X-6347500Y5676330D01*
X-6430185Y5668186D01*
X-6509693Y5644068D01*
X-6582967Y5604902D01*
X-6643773Y5555000D01*
X-6961668Y5555000D01*
X-6985001Y5557298D01*
X-7078117Y5548127D01*
X-7098956Y5541805D01*
X-7131237Y5532013D01*
X-5983249Y6680000D01*
X-4096573Y6680000D01*
X-4090298Y6616289D01*
X-4071714Y6555026D01*
X-4041536Y6498566D01*
X-4000922Y6449078D01*
X-3951434Y6408464D01*
X-3894974Y6378286D01*
X-3833711Y6359702D01*
X-3770000Y6353427D01*
X-2976250Y6355000D01*
X-2895000Y6436250D01*
X-2895000Y7005000D01*
X-4013750Y7005000D01*
X-4095000Y6923750D01*
X-4096573Y6680000D01*
X-5983249Y6680000D01*
X-5008248Y7655000D01*
X-4034622Y7655000D01*
X-4025296Y7624253D01*
X-4011367Y7598194D01*
X-4041536Y7561434D01*
X-4071714Y7504974D01*
X-4090298Y7443711D01*
X-4096573Y7380000D01*
X-4095000Y7136250D01*
X-4013750Y7055000D01*
X-2895000Y7055000D01*
X-2895000Y7075000D01*
X-2845000Y7075000D01*
X-2845000Y7055000D01*
X-1726250Y7055000D01*
X-1645000Y7136250D01*
X-1643427Y7380000D01*
X-1649702Y7443711D01*
X-1668286Y7504974D01*
X-1698464Y7561434D01*
X-1728633Y7598194D01*
X-1714704Y7624253D01*
X-1698980Y7676091D01*
X-1693670Y7730000D01*
X-1693670Y8530000D01*
X-1698980Y8583909D01*
X-1713160Y8630658D01*
X-1698464Y8648566D01*
X-1668286Y8705026D01*
X-1649702Y8766289D01*
X-1643427Y8830000D01*
X-1645000Y9123750D01*
X-1726250Y9205000D01*
X-2845000Y9205000D01*
X-2845000Y9185000D01*
X-2895000Y9185000D01*
X-2895000Y9205000D01*
X-4013750Y9205000D01*
X-4095000Y9123750D01*
X-4096573Y8830000D01*
X-4090298Y8766289D01*
X-4071714Y8705026D01*
X-4041536Y8648566D01*
X-4026840Y8630658D01*
X-4034622Y8605000D01*
X-5181668Y8605000D01*
X-5205000Y8607298D01*
X-5228332Y8605000D01*
X-5298116Y8598127D01*
X-5387654Y8570966D01*
X-5470173Y8526859D01*
X-5542501Y8467501D01*
X-5557375Y8449377D01*
X-7939371Y6067379D01*
X-7957500Y6052501D01*
X-8016858Y5980173D01*
X-8046542Y5924638D01*
X-8060965Y5897654D01*
X-8088127Y5808116D01*
X-8097298Y5715000D01*
X-8094999Y5691658D01*
X-8094999Y5373773D01*
X-8144902Y5312967D01*
X-8184068Y5239693D01*
X-8208186Y5160185D01*
X-8216330Y5077500D01*
X-8216330Y4782500D01*
X-8208186Y4699815D01*
X-8184068Y4620307D01*
X-8144902Y4547033D01*
X-8092193Y4482807D01*
X-8046125Y4445000D01*
X-8058310Y4435000D01*
X-8208668Y4435000D01*
X-8232001Y4437298D01*
X-8325117Y4428127D01*
X-8345314Y4422000D01*
X-8414654Y4400966D01*
X-8497173Y4356859D01*
X-8569501Y4297501D01*
X-8579760Y4285000D01*
X-8596227Y4285000D01*
X-8657033Y4334902D01*
X-8730307Y4374068D01*
X-8809815Y4398186D01*
X-8892500Y4406330D01*
X-9187500Y4406330D01*
X-9270185Y4398186D01*
X-9349693Y4374068D01*
X-9422967Y4334902D01*
X-9487193Y4282193D01*
X-9525000Y4236125D01*
X-9535000Y4248310D01*
X-9535000Y4641690D01*
X-9525000Y4653875D01*
X-9487193Y4607807D01*
X-9422967Y4555098D01*
X-9349693Y4515932D01*
X-9270185Y4491814D01*
X-9187500Y4483670D01*
X-8892500Y4483670D01*
X-8809815Y4491814D01*
X-8730307Y4515932D01*
X-8657033Y4555098D01*
X-8592807Y4607807D01*
X-8540098Y4672033D01*
X-8500932Y4745307D01*
X-8476814Y4824815D01*
X-8468670Y4907500D01*
X-8468670Y5252500D01*
X-8476814Y5335185D01*
X-8500932Y5414693D01*
X-8540098Y5487967D01*
X-8565000Y5518310D01*
X-8565000Y6638250D01*
X-4248249Y10955000D01*
X-4034622Y10955000D01*
X-4025296Y10924253D01*
X-4001642Y10880000D01*
X-4025296Y10835747D01*
X-4041020Y10783909D01*
X-4046330Y10730000D01*
X-4046330Y9930000D01*
X-4041020Y9876091D01*
X-4026840Y9829342D01*
X-4041536Y9811434D01*
X-4071714Y9754974D01*
X-4090298Y9693711D01*
X-4096573Y9630000D01*
X-4095000Y9336250D01*
X-4013750Y9255000D01*
X-2895000Y9255000D01*
X-2895000Y9275000D01*
X-2845000Y9275000D01*
X-2845000Y9255000D01*
X-1726250Y9255000D01*
X-1645000Y9336250D01*
X-1643427Y9630000D01*
X-1649702Y9693711D01*
X-1668286Y9754974D01*
X-1698464Y9811434D01*
X-1713160Y9829342D01*
X-1698980Y9876091D01*
X-1693670Y9930000D01*
X-1693670Y10730000D01*
X-1698980Y10783909D01*
X-1714704Y10835747D01*
X-1738358Y10880000D01*
X-1714704Y10924253D01*
X-1698980Y10976091D01*
X-1693670Y11030000D01*
X-1693670Y11327379D01*
X-1663447Y11290552D01*
G37*
%TD.AperFunction*%
D29*
X-1604668Y5942206D02*
X-1518681Y5884751D01*
X-1423137Y5845176D01*
X-1321708Y5825000D01*
X-1218292Y5825000D01*
X-1151054Y5838375D01*
X-1264999Y5635644D01*
X-1349093Y5378178D01*
X-1381342Y5109254D01*
X-1360507Y4839205D01*
X-1287388Y4578410D01*
X-1164796Y4336890D01*
X-1132292Y4288243D01*
X-937032Y4178324D01*
X-35355Y5080000D01*
X-49498Y5094142D01*
X-14142Y5129498D01*
X0Y5115355D01*
X14142Y5129498D01*
X49498Y5094142D01*
X35355Y5080000D01*
X49498Y5065858D01*
X14142Y5030502D01*
X0Y5044645D01*
X-901676Y4142968D01*
X-791757Y3947708D01*
X-555644Y3815001D01*
X-459824Y3783704D01*
X-627623Y3714200D01*
X-844638Y3569195D01*
X-1029195Y3384638D01*
X-1174200Y3167623D01*
X-1237418Y3015000D01*
X-1708248Y3015000D01*
X-1929289Y3236040D01*
X-1900781Y3251278D01*
X-1819282Y3305734D01*
X-1777407Y3340099D01*
X-1708099Y3409407D01*
X-1673734Y3451282D01*
X-1619278Y3532781D01*
X-1593742Y3580556D01*
X-1556233Y3671112D01*
X-1540509Y3722949D01*
X-1521387Y3819082D01*
X-1516077Y3872991D01*
X-1516077Y3897553D01*
X-1513669Y3922000D01*
X-1513669Y4422000D01*
X-1518979Y4475910D01*
X-1534703Y4527747D01*
X-1558357Y4572000D01*
X-1534703Y4616253D01*
X-1518979Y4668090D01*
X-1513669Y4722000D01*
X-1513669Y5222000D01*
X-1516077Y5246447D01*
X-1516077Y5271009D01*
X-1521387Y5324918D01*
X-1540509Y5421051D01*
X-1556233Y5472888D01*
X-1593742Y5563444D01*
X-1619278Y5611219D01*
X-1673734Y5692718D01*
X-1708099Y5734593D01*
X-1777407Y5803901D01*
X-1819282Y5838266D01*
X-1900781Y5892722D01*
X-1938687Y5912983D01*
X-1876670Y5975000D01*
X-1637462Y5975000D01*
X-1604668Y5942206D01*
%TA.AperFunction,Conductor*%
D30*
G36*
X-1604668Y5942206D02*
G01*
X-1518681Y5884751D01*
X-1423137Y5845176D01*
X-1321708Y5825000D01*
X-1218292Y5825000D01*
X-1151054Y5838375D01*
X-1264999Y5635644D01*
X-1349093Y5378178D01*
X-1381342Y5109254D01*
X-1360507Y4839205D01*
X-1287388Y4578410D01*
X-1164796Y4336890D01*
X-1132292Y4288243D01*
X-937032Y4178324D01*
X-35355Y5080000D01*
X-49498Y5094142D01*
X-14142Y5129498D01*
X0Y5115355D01*
X14142Y5129498D01*
X49498Y5094142D01*
X35355Y5080000D01*
X49498Y5065858D01*
X14142Y5030502D01*
X0Y5044645D01*
X-901676Y4142968D01*
X-791757Y3947708D01*
X-555644Y3815001D01*
X-459824Y3783704D01*
X-627623Y3714200D01*
X-844638Y3569195D01*
X-1029195Y3384638D01*
X-1174200Y3167623D01*
X-1237418Y3015000D01*
X-1708248Y3015000D01*
X-1929289Y3236040D01*
X-1900781Y3251278D01*
X-1819282Y3305734D01*
X-1777407Y3340099D01*
X-1708099Y3409407D01*
X-1673734Y3451282D01*
X-1619278Y3532781D01*
X-1593742Y3580556D01*
X-1556233Y3671112D01*
X-1540509Y3722949D01*
X-1521387Y3819082D01*
X-1516077Y3872991D01*
X-1516077Y3897553D01*
X-1513669Y3922000D01*
X-1513669Y4422000D01*
X-1518979Y4475910D01*
X-1534703Y4527747D01*
X-1558357Y4572000D01*
X-1534703Y4616253D01*
X-1518979Y4668090D01*
X-1513669Y4722000D01*
X-1513669Y5222000D01*
X-1516077Y5246447D01*
X-1516077Y5271009D01*
X-1521387Y5324918D01*
X-1540509Y5421051D01*
X-1556233Y5472888D01*
X-1593742Y5563444D01*
X-1619278Y5611219D01*
X-1673734Y5692718D01*
X-1708099Y5734593D01*
X-1777407Y5803901D01*
X-1819282Y5838266D01*
X-1900781Y5892722D01*
X-1938687Y5912983D01*
X-1876670Y5975000D01*
X-1637462Y5975000D01*
X-1604668Y5942206D01*
G37*
%TD.AperFunction*%
D29*
X-13323909Y6408980D02*
X-13270000Y6403670D01*
X-11526006Y6403670D01*
X-11526006Y5923744D01*
X-11622371Y5827379D01*
X-11640500Y5812501D01*
X-11699858Y5740173D01*
X-11736545Y5671536D01*
X-11743965Y5657654D01*
X-11771127Y5568116D01*
X-11772419Y5555000D01*
X-12657056Y5555000D01*
X-12667106Y5573802D01*
X-12728676Y5648824D01*
X-12803698Y5710394D01*
X-12889291Y5756144D01*
X-12982165Y5784317D01*
X-13078750Y5793830D01*
X-13591250Y5793830D01*
X-13687835Y5784317D01*
X-13780709Y5756144D01*
X-13866302Y5710394D01*
X-13941324Y5648824D01*
X-14002894Y5573802D01*
X-14007106Y5565922D01*
X-14065800Y5707623D01*
X-14072308Y5717362D01*
X-13945811Y5843859D01*
X-13945807Y5843864D01*
X-13367475Y6422195D01*
X-13323909Y6408980D01*
%TA.AperFunction,Conductor*%
D30*
G36*
X-13323909Y6408980D02*
G01*
X-13270000Y6403670D01*
X-11526006Y6403670D01*
X-11526006Y5923744D01*
X-11622371Y5827379D01*
X-11640500Y5812501D01*
X-11699858Y5740173D01*
X-11736545Y5671536D01*
X-11743965Y5657654D01*
X-11771127Y5568116D01*
X-11772419Y5555000D01*
X-12657056Y5555000D01*
X-12667106Y5573802D01*
X-12728676Y5648824D01*
X-12803698Y5710394D01*
X-12889291Y5756144D01*
X-12982165Y5784317D01*
X-13078750Y5793830D01*
X-13591250Y5793830D01*
X-13687835Y5784317D01*
X-13780709Y5756144D01*
X-13866302Y5710394D01*
X-13941324Y5648824D01*
X-14002894Y5573802D01*
X-14007106Y5565922D01*
X-14065800Y5707623D01*
X-14072308Y5717362D01*
X-13945811Y5843859D01*
X-13945807Y5843864D01*
X-13367475Y6422195D01*
X-13323909Y6408980D01*
G37*
%TD.AperFunction*%
D29*
X-1029195Y28784638D02*
X-1174200Y28567623D01*
X-1274081Y28326488D01*
X-1325000Y28070501D01*
X-1325000Y27809499D01*
X-1274081Y27553512D01*
X-1174200Y27312377D01*
X-1029195Y27095362D01*
X-844638Y26910805D01*
X-627623Y26765800D01*
X-396340Y26670000D01*
X-627623Y26574200D01*
X-844638Y26429195D01*
X-1029195Y26244638D01*
X-1174200Y26027623D01*
X-1274081Y25786488D01*
X-1325000Y25530501D01*
X-1325000Y25269499D01*
X-1274081Y25013512D01*
X-1174200Y24772377D01*
X-1029195Y24555362D01*
X-844638Y24370805D01*
X-627623Y24225800D01*
X-396340Y24130000D01*
X-614111Y24039797D01*
X-973263Y24398948D01*
X-985789Y24414211D01*
X-1046697Y24464197D01*
X-1116186Y24501340D01*
X-1125621Y24504202D01*
X-1140509Y24579051D01*
X-1156233Y24630888D01*
X-1193742Y24721444D01*
X-1219278Y24769219D01*
X-1273734Y24850718D01*
X-1308099Y24892593D01*
X-1377407Y24961901D01*
X-1419282Y24996266D01*
X-1500781Y25050722D01*
X-1548556Y25076258D01*
X-1639112Y25113767D01*
X-1690949Y25129491D01*
X-1787082Y25148613D01*
X-1840991Y25153923D01*
X-1865553Y25153923D01*
X-1890000Y25156331D01*
X-2390000Y25156331D01*
X-2443910Y25151021D01*
X-2495747Y25135297D01*
X-2540000Y25111643D01*
X-2584253Y25135297D01*
X-2636090Y25151021D01*
X-2690000Y25156331D01*
X-2824785Y25156331D01*
X-2826869Y25163200D01*
X-2837930Y25183893D01*
X-2861690Y25228347D01*
X-2896811Y25271141D01*
X-2908552Y25285448D01*
X-2922860Y25297190D01*
X-3658805Y26033134D01*
X-3670552Y26047448D01*
X-3727653Y26094309D01*
X-3792800Y26129131D01*
X-3863487Y26150574D01*
X-3918581Y26156000D01*
X-3918584Y26156000D01*
X-3937000Y26157814D01*
X-3955416Y26156000D01*
X-9379584Y26156000D01*
X-9398000Y26157814D01*
X-9416416Y26156000D01*
X-9416419Y26156000D01*
X-9471513Y26150574D01*
X-9542200Y26129131D01*
X-9562893Y26118070D01*
X-9607347Y26094310D01*
X-9640108Y26067423D01*
X-9664448Y26047448D01*
X-9676191Y26033139D01*
X-10285139Y25424191D01*
X-10299447Y25412448D01*
X-10346308Y25355347D01*
X-10381130Y25290200D01*
X-10386911Y25271141D01*
X-10402573Y25219512D01*
X-10409814Y25146000D01*
X-10407999Y25127574D01*
X-10408000Y23386416D01*
X-10409814Y23368000D01*
X-10408000Y23349584D01*
X-10408000Y23349582D01*
X-10407373Y23343215D01*
X-10491754Y23360000D01*
X-10590246Y23360000D01*
X-10686845Y23340785D01*
X-10777839Y23303094D01*
X-10859731Y23248375D01*
X-10929375Y23178731D01*
X-10984094Y23096839D01*
X-11021785Y23005845D01*
X-11041000Y22909246D01*
X-11041000Y22810754D01*
X-11021785Y22714155D01*
X-10984094Y22623161D01*
X-10929375Y22541269D01*
X-10859731Y22471625D01*
X-10777839Y22416906D01*
X-10719718Y22392831D01*
X-10724068Y22384693D01*
X-10748186Y22305185D01*
X-10756330Y22222500D01*
X-10756330Y21927500D01*
X-10748186Y21844815D01*
X-10724068Y21765307D01*
X-10684902Y21692033D01*
X-10665406Y21668277D01*
X-10710922Y21630922D01*
X-10751536Y21581434D01*
X-10781714Y21524974D01*
X-10800298Y21463711D01*
X-10806573Y21400000D01*
X-10805000Y21211250D01*
X-10723750Y21130000D01*
X-10185000Y21130000D01*
X-10185000Y21150000D01*
X-10135000Y21150000D01*
X-10135000Y21130000D01*
X-10115000Y21130000D01*
X-10115000Y21080000D01*
X-10135000Y21080000D01*
X-10135000Y20566250D01*
X-10053750Y20485000D01*
X-9840000Y20483427D01*
X-9776289Y20489702D01*
X-9715026Y20508286D01*
X-9673002Y20530748D01*
X-9720000Y20483750D01*
X-9714835Y20424003D01*
X-9695814Y20362874D01*
X-9665233Y20306631D01*
X-9624267Y20257435D01*
X-9574490Y20217175D01*
X-9517816Y20187401D01*
X-9456422Y20169255D01*
X-9392667Y20163435D01*
X-9226250Y20165000D01*
X-9145000Y20246250D01*
X-9145000Y20565000D01*
X-9165000Y20565000D01*
X-9165000Y20613670D01*
X-9075000Y20613670D01*
X-9075000Y20565000D01*
X-9095000Y20565000D01*
X-9095000Y20246250D01*
X-9013750Y20165000D01*
X-8996330Y20164836D01*
X-8996330Y19865000D01*
X-8990060Y19801336D01*
X-8971490Y19740119D01*
X-8941333Y19683701D01*
X-8900750Y19634250D01*
X-8851299Y19593667D01*
X-8794881Y19563510D01*
X-8733664Y19544940D01*
X-8670000Y19538670D01*
X-8570000Y19538670D01*
X-8506336Y19544940D01*
X-8504314Y19545554D01*
X-8503369Y19544767D01*
X-8447126Y19514186D01*
X-8385997Y19495165D01*
X-8326250Y19490000D01*
X-8245000Y19571250D01*
X-8245000Y19851496D01*
X-8243670Y19865000D01*
X-8243670Y20135000D01*
X-8196330Y20135000D01*
X-8196330Y19865000D01*
X-8195000Y19851496D01*
X-8195000Y19571250D01*
X-8194999Y19571249D01*
X-8194999Y19513331D01*
X-8410329Y19298000D01*
X-9623670Y19298000D01*
X-9660000Y19334330D01*
X-9660000Y19353246D01*
X-9679215Y19449845D01*
X-9716906Y19540839D01*
X-9771625Y19622731D01*
X-9841269Y19692375D01*
X-9923161Y19747094D01*
X-10014155Y19784785D01*
X-10110754Y19804000D01*
X-10209246Y19804000D01*
X-10305845Y19784785D01*
X-10396839Y19747094D01*
X-10478731Y19692375D01*
X-10548375Y19622731D01*
X-10603094Y19540839D01*
X-10640785Y19449845D01*
X-10660000Y19353246D01*
X-10660000Y19254754D01*
X-10640785Y19158155D01*
X-10603094Y19067161D01*
X-10548375Y18985269D01*
X-10478731Y18915625D01*
X-10396839Y18860906D01*
X-10305845Y18823215D01*
X-10209246Y18804000D01*
X-10190330Y18804000D01*
X-10057191Y18670861D01*
X-10045448Y18656552D01*
X-10043899Y18655281D01*
X-10049902Y18647967D01*
X-10089068Y18574693D01*
X-10113186Y18495185D01*
X-10121330Y18412500D01*
X-10121330Y18117500D01*
X-10113186Y18034815D01*
X-10089068Y17955307D01*
X-10049902Y17882033D01*
X-10030406Y17858277D01*
X-10075922Y17820922D01*
X-10116536Y17771434D01*
X-10146714Y17714974D01*
X-10165298Y17653711D01*
X-10171573Y17590000D01*
X-10170000Y17401250D01*
X-10088750Y17320000D01*
X-9550000Y17320000D01*
X-9550000Y17340000D01*
X-9500000Y17340000D01*
X-9500000Y17320000D01*
X-9480000Y17320000D01*
X-9480000Y17270000D01*
X-9500000Y17270000D01*
X-9500000Y16756250D01*
X-9418750Y16675000D01*
X-9205000Y16673427D01*
X-9141289Y16679702D01*
X-9080026Y16698286D01*
X-9023566Y16728464D01*
X-8974078Y16769078D01*
X-8933464Y16818566D01*
X-8903286Y16875026D01*
X-8890000Y16918824D01*
X-8876714Y16875026D01*
X-8846536Y16818566D01*
X-8805922Y16769078D01*
X-8756434Y16728464D01*
X-8699974Y16698286D01*
X-8638711Y16679702D01*
X-8575000Y16673427D01*
X-8361250Y16675000D01*
X-8280000Y16756250D01*
X-8280000Y17270000D01*
X-8300000Y17270000D01*
X-8300000Y17320000D01*
X-8280000Y17320000D01*
X-8280000Y17340000D01*
X-8230000Y17340000D01*
X-8230000Y17320000D01*
X-8210000Y17320000D01*
X-8210000Y17270000D01*
X-8230000Y17270000D01*
X-8230000Y16756250D01*
X-8148750Y16675000D01*
X-7935000Y16673427D01*
X-7871289Y16679702D01*
X-7810026Y16698286D01*
X-7753566Y16728464D01*
X-7704078Y16769078D01*
X-7663464Y16818566D01*
X-7633286Y16875026D01*
X-7614702Y16936289D01*
X-7609342Y16990714D01*
X-7598347Y16981691D01*
X-7533200Y16946869D01*
X-7527617Y16945175D01*
X-7509902Y16912033D01*
X-7457193Y16847807D01*
X-7392967Y16795098D01*
X-7319693Y16755932D01*
X-7240185Y16731814D01*
X-7157500Y16723670D01*
X-6812500Y16723670D01*
X-6729815Y16731814D01*
X-6650307Y16755932D01*
X-6577033Y16795098D01*
X-6512807Y16847807D01*
X-6460098Y16912033D01*
X-6455840Y16920000D01*
X-6244160Y16920000D01*
X-6239902Y16912033D01*
X-6187193Y16847807D01*
X-6122967Y16795098D01*
X-6049693Y16755932D01*
X-5970185Y16731814D01*
X-5887500Y16723670D01*
X-5542500Y16723670D01*
X-5459815Y16731814D01*
X-5380307Y16755932D01*
X-5307033Y16795098D01*
X-5242807Y16847807D01*
X-5190098Y16912033D01*
X-5150932Y16985307D01*
X-5126814Y17064815D01*
X-5118670Y17147500D01*
X-5118670Y17442500D01*
X-5126814Y17525185D01*
X-5150932Y17604693D01*
X-5190098Y17677967D01*
X-5242807Y17742193D01*
X-5288875Y17780000D01*
X-5242807Y17817807D01*
X-5190098Y17882033D01*
X-5150932Y17955307D01*
X-5126814Y18034815D01*
X-5118670Y18117500D01*
X-5118670Y18412500D01*
X-5126814Y18495185D01*
X-5150932Y18574693D01*
X-5190098Y18647967D01*
X-5242807Y18712193D01*
X-5307033Y18764902D01*
X-5380307Y18804068D01*
X-5459815Y18828186D01*
X-5542500Y18836330D01*
X-5796500Y18836330D01*
X-6245000Y19284829D01*
X-6245000Y19851496D01*
X-6243670Y19865000D01*
X-6243670Y19937341D01*
X-5909191Y19602861D01*
X-5897448Y19588552D01*
X-5871608Y19567346D01*
X-5840348Y19541691D01*
X-5788889Y19514186D01*
X-5775200Y19506869D01*
X-5704513Y19485426D01*
X-5649419Y19480000D01*
X-5649417Y19480000D01*
X-5631001Y19478186D01*
X-5612585Y19480000D01*
X-5361330Y19480000D01*
X-5361330Y19325000D01*
X-5356020Y19271091D01*
X-5340296Y19219253D01*
X-5314760Y19171479D01*
X-5280395Y19129605D01*
X-5238521Y19095240D01*
X-5190747Y19069704D01*
X-5138909Y19053980D01*
X-5085000Y19048670D01*
X-4435000Y19048670D01*
X-4381091Y19053980D01*
X-4334342Y19068160D01*
X-4316434Y19053464D01*
X-4259974Y19023286D01*
X-4198711Y19004702D01*
X-4135000Y18998427D01*
X-3916250Y19000000D01*
X-3835000Y19081250D01*
X-3835000Y19830000D01*
X-3855000Y19830000D01*
X-3855000Y19880000D01*
X-3835000Y19880000D01*
X-3835000Y19900000D01*
X-3785000Y19900000D01*
X-3785000Y19880000D01*
X-3765000Y19880000D01*
X-3765000Y19830000D01*
X-3785000Y19830000D01*
X-3785000Y19081250D01*
X-3703750Y19000000D01*
X-3485000Y18998427D01*
X-3421289Y19004702D01*
X-3360026Y19023286D01*
X-3303566Y19053464D01*
X-3285658Y19068160D01*
X-3238909Y19053980D01*
X-3185000Y19048670D01*
X-2535000Y19048670D01*
X-2481091Y19053980D01*
X-2429253Y19069704D01*
X-2381479Y19095240D01*
X-2339605Y19129605D01*
X-2305240Y19171479D01*
X-2279704Y19219253D01*
X-2263980Y19271091D01*
X-2258670Y19325000D01*
X-2258670Y20385000D01*
X-2263980Y20438909D01*
X-2279704Y20490747D01*
X-2283528Y20497901D01*
X-2230346Y20514034D01*
X-2147827Y20558141D01*
X-2088292Y20607000D01*
X-1934285Y20607000D01*
X-1931967Y20605098D01*
X-1858693Y20565932D01*
X-1779185Y20541814D01*
X-1696500Y20533670D01*
X-1351500Y20533670D01*
X-1307597Y20537994D01*
X-1325000Y20450501D01*
X-1325000Y20189499D01*
X-1274081Y19933512D01*
X-1174200Y19692377D01*
X-1029195Y19475362D01*
X-844638Y19290805D01*
X-627623Y19145800D01*
X-396340Y19050000D01*
X-627623Y18954200D01*
X-844638Y18809195D01*
X-1029195Y18624638D01*
X-1174200Y18407623D01*
X-1268484Y18180000D01*
X-1765752Y18180000D01*
X-1775509Y18229051D01*
X-1791233Y18280888D01*
X-1828742Y18371444D01*
X-1854278Y18419219D01*
X-1908734Y18500718D01*
X-1943099Y18542593D01*
X-2012407Y18611901D01*
X-2054282Y18646266D01*
X-2135781Y18700722D01*
X-2183556Y18726258D01*
X-2274112Y18763767D01*
X-2325949Y18779491D01*
X-2422082Y18798613D01*
X-2475991Y18803923D01*
X-2500553Y18803923D01*
X-2525000Y18806331D01*
X-3025000Y18806331D01*
X-3078910Y18801021D01*
X-3130747Y18785297D01*
X-3175000Y18761643D01*
X-3219253Y18785297D01*
X-3271090Y18801021D01*
X-3325000Y18806331D01*
X-3825000Y18806331D01*
X-3849447Y18803923D01*
X-3874009Y18803923D01*
X-3927918Y18798613D01*
X-4024051Y18779491D01*
X-4075888Y18763767D01*
X-4166444Y18726258D01*
X-4214219Y18700722D01*
X-4295718Y18646266D01*
X-4337593Y18611901D01*
X-4406901Y18542593D01*
X-4441266Y18500718D01*
X-4495722Y18419219D01*
X-4521258Y18371444D01*
X-4558767Y18280888D01*
X-4574491Y18229051D01*
X-4593613Y18132918D01*
X-4598923Y18079009D01*
X-4598923Y18054447D01*
X-4601331Y18030000D01*
X-4601331Y17530000D01*
X-4598923Y17505553D01*
X-4598923Y17480991D01*
X-4593613Y17427082D01*
X-4578537Y17351292D01*
X-4951134Y16978695D01*
X-4965448Y16966948D01*
X-5012309Y16909846D01*
X-5047131Y16844699D01*
X-5068574Y16774012D01*
X-5072730Y16731814D01*
X-5075814Y16700500D01*
X-5074000Y16682083D01*
X-5073999Y16030332D01*
X-9299329Y11805000D01*
X-11193670Y11805000D01*
X-11193670Y11830000D01*
X-11198980Y11883909D01*
X-11214704Y11935747D01*
X-11238358Y11980000D01*
X-11214704Y12024253D01*
X-11198980Y12076091D01*
X-11193670Y12130000D01*
X-11193670Y12155000D01*
X-9459416Y12155000D01*
X-9441000Y12153186D01*
X-9422584Y12155000D01*
X-9422581Y12155000D01*
X-9367487Y12160426D01*
X-9296800Y12181869D01*
X-9231653Y12216691D01*
X-9174552Y12263552D01*
X-9162805Y12277866D01*
X-8891860Y12548810D01*
X-8877552Y12560552D01*
X-8842295Y12603513D01*
X-8830691Y12617652D01*
X-8795870Y12682798D01*
X-8795869Y12682801D01*
X-8774426Y12753487D01*
X-8769000Y12808581D01*
X-8769000Y12808583D01*
X-8767186Y12826999D01*
X-8769000Y12845415D01*
X-8769000Y15132082D01*
X-8767186Y15150498D01*
X-8770477Y15183909D01*
X-8774426Y15224011D01*
X-8795869Y15294698D01*
X-8812856Y15326479D01*
X-8830690Y15359845D01*
X-8865811Y15402639D01*
X-8877552Y15416946D01*
X-8891861Y15428689D01*
X-10317476Y16854303D01*
X-10270098Y16912033D01*
X-10230932Y16985307D01*
X-10226476Y17000000D01*
X-10171573Y17000000D01*
X-10165298Y16936289D01*
X-10146714Y16875026D01*
X-10116536Y16818566D01*
X-10075922Y16769078D01*
X-10026434Y16728464D01*
X-9969974Y16698286D01*
X-9908711Y16679702D01*
X-9845000Y16673427D01*
X-9631250Y16675000D01*
X-9550000Y16756250D01*
X-9550000Y17270000D01*
X-10088750Y17270000D01*
X-10170000Y17188750D01*
X-10171573Y17000000D01*
X-10226476Y17000000D01*
X-10206814Y17064815D01*
X-10198670Y17147500D01*
X-10198670Y17442500D01*
X-10206814Y17525185D01*
X-10230932Y17604693D01*
X-10270098Y17677967D01*
X-10322807Y17742193D01*
X-10368875Y17780000D01*
X-10322807Y17817807D01*
X-10270098Y17882033D01*
X-10230932Y17955307D01*
X-10206814Y18034815D01*
X-10198670Y18117500D01*
X-10198670Y18412500D01*
X-10206814Y18495185D01*
X-10230932Y18574693D01*
X-10270098Y18647967D01*
X-10322807Y18712193D01*
X-10387033Y18764902D01*
X-10460307Y18804068D01*
X-10539815Y18828186D01*
X-10622500Y18836330D01*
X-10967500Y18836330D01*
X-11050185Y18828186D01*
X-11129693Y18804068D01*
X-11202967Y18764902D01*
X-11228565Y18743895D01*
X-11309000Y18824330D01*
X-11309000Y18904584D01*
X-11307186Y18923000D01*
X-11309108Y18942512D01*
X-11314426Y18996513D01*
X-11335869Y19067200D01*
X-11350236Y19094078D01*
X-11370690Y19132347D01*
X-11397577Y19165108D01*
X-11417552Y19189448D01*
X-11431861Y19201191D01*
X-11685305Y19454634D01*
X-11697052Y19468948D01*
X-11754153Y19515809D01*
X-11819300Y19550631D01*
X-11889987Y19572074D01*
X-11945081Y19577500D01*
X-11945084Y19577500D01*
X-11963500Y19579314D01*
X-11976446Y19578039D01*
X-11986356Y19610709D01*
X-12032106Y19696302D01*
X-12093676Y19771324D01*
X-12168698Y19832894D01*
X-12254291Y19878644D01*
X-12347165Y19906817D01*
X-12443750Y19916330D01*
X-12954340Y19916330D01*
X-12447860Y20422810D01*
X-12433552Y20434552D01*
X-12386691Y20491653D01*
X-12374728Y20514034D01*
X-12351870Y20556798D01*
X-12351869Y20556801D01*
X-12330426Y20627487D01*
X-12329795Y20633891D01*
X-12214480Y20681656D01*
X-12046600Y20793830D01*
X-12030430Y20810000D01*
X-10806573Y20810000D01*
X-10800298Y20746289D01*
X-10781714Y20685026D01*
X-10751536Y20628566D01*
X-10710922Y20579078D01*
X-10661434Y20538464D01*
X-10604974Y20508286D01*
X-10543711Y20489702D01*
X-10480000Y20483427D01*
X-10266250Y20485000D01*
X-10185000Y20566250D01*
X-10185000Y21080000D01*
X-10723750Y21080000D01*
X-10805000Y20998750D01*
X-10806573Y20810000D01*
X-12030430Y20810000D01*
X-11903830Y20936600D01*
X-11791656Y21104480D01*
X-11714390Y21291018D01*
X-11675000Y21489046D01*
X-11675000Y21690954D01*
X-11714390Y21888982D01*
X-11791656Y22075520D01*
X-11903830Y22243400D01*
X-12046600Y22386170D01*
X-12214480Y22498344D01*
X-12401018Y22575610D01*
X-12599046Y22615000D01*
X-12800954Y22615000D01*
X-12998982Y22575610D01*
X-13185520Y22498344D01*
X-13353400Y22386170D01*
X-13496170Y22243400D01*
X-13608344Y22075520D01*
X-13685610Y21888982D01*
X-13725000Y21690954D01*
X-13725000Y21489046D01*
X-13685610Y21291018D01*
X-13608344Y21104480D01*
X-13496170Y20936600D01*
X-13353400Y20793830D01*
X-13223977Y20707352D01*
X-13957999Y19973331D01*
X-13915000Y20189499D01*
X-13915000Y20450501D01*
X-13965919Y20706488D01*
X-14065800Y20947623D01*
X-14210805Y21164638D01*
X-14395362Y21349195D01*
X-14612377Y21494200D01*
X-14843660Y21590000D01*
X-14612377Y21685800D01*
X-14395362Y21830805D01*
X-14210805Y22015362D01*
X-14065800Y22232377D01*
X-13965919Y22473512D01*
X-13915000Y22729499D01*
X-13915000Y22990501D01*
X-13965919Y23246488D01*
X-14065800Y23487623D01*
X-14210805Y23704638D01*
X-14395362Y23889195D01*
X-14612377Y24034200D01*
X-14843660Y24130000D01*
X-14612377Y24225800D01*
X-14395362Y24370805D01*
X-14210805Y24555362D01*
X-14065800Y24772377D01*
X-13965919Y25013512D01*
X-13915000Y25269499D01*
X-13915000Y25530501D01*
X-13965919Y25786488D01*
X-14065800Y26027623D01*
X-14210805Y26244638D01*
X-14395362Y26429195D01*
X-14583642Y26555000D01*
X-11871573Y26555000D01*
X-11865298Y26491289D01*
X-11846714Y26430026D01*
X-11816536Y26373566D01*
X-11775922Y26324078D01*
X-11726434Y26283464D01*
X-11669974Y26253286D01*
X-11608711Y26234702D01*
X-11545000Y26228427D01*
X-10901250Y26230000D01*
X-10820000Y26311250D01*
X-10820000Y27280000D01*
X-10770000Y27280000D01*
X-10770000Y26311250D01*
X-10688750Y26230000D01*
X-10045000Y26228427D01*
X-9981289Y26234702D01*
X-9920026Y26253286D01*
X-9863566Y26283464D01*
X-9814078Y26324078D01*
X-9773464Y26373566D01*
X-9743286Y26430026D01*
X-9724702Y26491289D01*
X-9718427Y26555000D01*
X-9718737Y26682000D01*
X-5902573Y26682000D01*
X-5896298Y26618289D01*
X-5877714Y26557026D01*
X-5847536Y26500566D01*
X-5806922Y26451078D01*
X-5757434Y26410464D01*
X-5700974Y26380286D01*
X-5639711Y26361702D01*
X-5576000Y26355427D01*
X-4932250Y26357000D01*
X-4851000Y26438250D01*
X-4851000Y27407000D01*
X-4801000Y27407000D01*
X-4801000Y26438250D01*
X-4719750Y26357000D01*
X-4076000Y26355427D01*
X-4012289Y26361702D01*
X-3951026Y26380286D01*
X-3894566Y26410464D01*
X-3845078Y26451078D01*
X-3804464Y26500566D01*
X-3774286Y26557026D01*
X-3755702Y26618289D01*
X-3749427Y26682000D01*
X-3751000Y27325750D01*
X-3832250Y27407000D01*
X-4801000Y27407000D01*
X-4851000Y27407000D01*
X-5819750Y27407000D01*
X-5901000Y27325750D01*
X-5902573Y26682000D01*
X-9718737Y26682000D01*
X-9720000Y27198750D01*
X-9801250Y27280000D01*
X-10770000Y27280000D01*
X-10820000Y27280000D01*
X-11788750Y27280000D01*
X-11870000Y27198750D01*
X-11871573Y26555000D01*
X-14583642Y26555000D01*
X-14612377Y26574200D01*
X-14843660Y26670000D01*
X-14612377Y26765800D01*
X-14395362Y26910805D01*
X-14210805Y27095362D01*
X-14065800Y27312377D01*
X-13965919Y27553512D01*
X-13915000Y27809499D01*
X-13915000Y28055000D01*
X-11871573Y28055000D01*
X-11870000Y27411250D01*
X-11788750Y27330000D01*
X-10820000Y27330000D01*
X-10820000Y28298750D01*
X-10770000Y28298750D01*
X-10770000Y27330000D01*
X-9801250Y27330000D01*
X-9769617Y27361633D01*
X-8195000Y27361633D01*
X-8195000Y27248367D01*
X-8172903Y27137279D01*
X-8129558Y27032635D01*
X-8066632Y26938459D01*
X-7986541Y26858368D01*
X-7892365Y26795442D01*
X-7787721Y26752097D01*
X-7676633Y26730000D01*
X-7563367Y26730000D01*
X-7452279Y26752097D01*
X-7347635Y26795442D01*
X-7253459Y26858368D01*
X-7173368Y26938459D01*
X-7110442Y27032635D01*
X-7067097Y27137279D01*
X-7045000Y27248367D01*
X-7045000Y27361633D01*
X-7067097Y27472721D01*
X-7110442Y27577365D01*
X-7173368Y27671541D01*
X-7253459Y27751632D01*
X-7347635Y27814558D01*
X-7452279Y27857903D01*
X-7563367Y27880000D01*
X-7676633Y27880000D01*
X-7787721Y27857903D01*
X-7892365Y27814558D01*
X-7986541Y27751632D01*
X-8066632Y27671541D01*
X-8129558Y27577365D01*
X-8172903Y27472721D01*
X-8195000Y27361633D01*
X-9769617Y27361633D01*
X-9720000Y27411250D01*
X-9718427Y28055000D01*
X-9724702Y28118711D01*
X-9743286Y28179974D01*
X-9744368Y28182000D01*
X-5902573Y28182000D01*
X-5901000Y27538250D01*
X-5819750Y27457000D01*
X-4851000Y27457000D01*
X-4851000Y28425750D01*
X-4801000Y28425750D01*
X-4801000Y27457000D01*
X-3832250Y27457000D01*
X-3751000Y27538250D01*
X-3749427Y28182000D01*
X-3755702Y28245711D01*
X-3774286Y28306974D01*
X-3804464Y28363434D01*
X-3845078Y28412922D01*
X-3894566Y28453536D01*
X-3951026Y28483714D01*
X-4012289Y28502298D01*
X-4076000Y28508573D01*
X-4719750Y28507000D01*
X-4801000Y28425750D01*
X-4851000Y28425750D01*
X-4932250Y28507000D01*
X-5576000Y28508573D01*
X-5639711Y28502298D01*
X-5700974Y28483714D01*
X-5757434Y28453536D01*
X-5806922Y28412922D01*
X-5847536Y28363434D01*
X-5877714Y28306974D01*
X-5896298Y28245711D01*
X-5902573Y28182000D01*
X-9744368Y28182000D01*
X-9773464Y28236434D01*
X-9814078Y28285922D01*
X-9863566Y28326536D01*
X-9920026Y28356714D01*
X-9981289Y28375298D01*
X-10045000Y28381573D01*
X-10688750Y28380000D01*
X-10770000Y28298750D01*
X-10820000Y28298750D01*
X-10901250Y28380000D01*
X-11545000Y28381573D01*
X-11608711Y28375298D01*
X-11669974Y28356714D01*
X-11726434Y28326536D01*
X-11775922Y28285922D01*
X-11816536Y28236434D01*
X-11846714Y28179974D01*
X-11865298Y28118711D01*
X-11871573Y28055000D01*
X-13915000Y28055000D01*
X-13915000Y28070501D01*
X-13965919Y28326488D01*
X-14065800Y28567623D01*
X-14210805Y28784638D01*
X-14311167Y28885000D01*
X-928833Y28885000D01*
X-1029195Y28784638D01*
%TA.AperFunction,Conductor*%
D30*
G36*
X-1029195Y28784638D02*
G01*
X-1174200Y28567623D01*
X-1274081Y28326488D01*
X-1325000Y28070501D01*
X-1325000Y27809499D01*
X-1274081Y27553512D01*
X-1174200Y27312377D01*
X-1029195Y27095362D01*
X-844638Y26910805D01*
X-627623Y26765800D01*
X-396340Y26670000D01*
X-627623Y26574200D01*
X-844638Y26429195D01*
X-1029195Y26244638D01*
X-1174200Y26027623D01*
X-1274081Y25786488D01*
X-1325000Y25530501D01*
X-1325000Y25269499D01*
X-1274081Y25013512D01*
X-1174200Y24772377D01*
X-1029195Y24555362D01*
X-844638Y24370805D01*
X-627623Y24225800D01*
X-396340Y24130000D01*
X-614111Y24039797D01*
X-973263Y24398948D01*
X-985789Y24414211D01*
X-1046697Y24464197D01*
X-1116186Y24501340D01*
X-1125621Y24504202D01*
X-1140509Y24579051D01*
X-1156233Y24630888D01*
X-1193742Y24721444D01*
X-1219278Y24769219D01*
X-1273734Y24850718D01*
X-1308099Y24892593D01*
X-1377407Y24961901D01*
X-1419282Y24996266D01*
X-1500781Y25050722D01*
X-1548556Y25076258D01*
X-1639112Y25113767D01*
X-1690949Y25129491D01*
X-1787082Y25148613D01*
X-1840991Y25153923D01*
X-1865553Y25153923D01*
X-1890000Y25156331D01*
X-2390000Y25156331D01*
X-2443910Y25151021D01*
X-2495747Y25135297D01*
X-2540000Y25111643D01*
X-2584253Y25135297D01*
X-2636090Y25151021D01*
X-2690000Y25156331D01*
X-2824785Y25156331D01*
X-2826869Y25163200D01*
X-2837930Y25183893D01*
X-2861690Y25228347D01*
X-2896811Y25271141D01*
X-2908552Y25285448D01*
X-2922860Y25297190D01*
X-3658805Y26033134D01*
X-3670552Y26047448D01*
X-3727653Y26094309D01*
X-3792800Y26129131D01*
X-3863487Y26150574D01*
X-3918581Y26156000D01*
X-3918584Y26156000D01*
X-3937000Y26157814D01*
X-3955416Y26156000D01*
X-9379584Y26156000D01*
X-9398000Y26157814D01*
X-9416416Y26156000D01*
X-9416419Y26156000D01*
X-9471513Y26150574D01*
X-9542200Y26129131D01*
X-9562893Y26118070D01*
X-9607347Y26094310D01*
X-9640108Y26067423D01*
X-9664448Y26047448D01*
X-9676191Y26033139D01*
X-10285139Y25424191D01*
X-10299447Y25412448D01*
X-10346308Y25355347D01*
X-10381130Y25290200D01*
X-10386911Y25271141D01*
X-10402573Y25219512D01*
X-10409814Y25146000D01*
X-10407999Y25127574D01*
X-10408000Y23386416D01*
X-10409814Y23368000D01*
X-10408000Y23349584D01*
X-10408000Y23349582D01*
X-10407373Y23343215D01*
X-10491754Y23360000D01*
X-10590246Y23360000D01*
X-10686845Y23340785D01*
X-10777839Y23303094D01*
X-10859731Y23248375D01*
X-10929375Y23178731D01*
X-10984094Y23096839D01*
X-11021785Y23005845D01*
X-11041000Y22909246D01*
X-11041000Y22810754D01*
X-11021785Y22714155D01*
X-10984094Y22623161D01*
X-10929375Y22541269D01*
X-10859731Y22471625D01*
X-10777839Y22416906D01*
X-10719718Y22392831D01*
X-10724068Y22384693D01*
X-10748186Y22305185D01*
X-10756330Y22222500D01*
X-10756330Y21927500D01*
X-10748186Y21844815D01*
X-10724068Y21765307D01*
X-10684902Y21692033D01*
X-10665406Y21668277D01*
X-10710922Y21630922D01*
X-10751536Y21581434D01*
X-10781714Y21524974D01*
X-10800298Y21463711D01*
X-10806573Y21400000D01*
X-10805000Y21211250D01*
X-10723750Y21130000D01*
X-10185000Y21130000D01*
X-10185000Y21150000D01*
X-10135000Y21150000D01*
X-10135000Y21130000D01*
X-10115000Y21130000D01*
X-10115000Y21080000D01*
X-10135000Y21080000D01*
X-10135000Y20566250D01*
X-10053750Y20485000D01*
X-9840000Y20483427D01*
X-9776289Y20489702D01*
X-9715026Y20508286D01*
X-9673002Y20530748D01*
X-9720000Y20483750D01*
X-9714835Y20424003D01*
X-9695814Y20362874D01*
X-9665233Y20306631D01*
X-9624267Y20257435D01*
X-9574490Y20217175D01*
X-9517816Y20187401D01*
X-9456422Y20169255D01*
X-9392667Y20163435D01*
X-9226250Y20165000D01*
X-9145000Y20246250D01*
X-9145000Y20565000D01*
X-9165000Y20565000D01*
X-9165000Y20613670D01*
X-9075000Y20613670D01*
X-9075000Y20565000D01*
X-9095000Y20565000D01*
X-9095000Y20246250D01*
X-9013750Y20165000D01*
X-8996330Y20164836D01*
X-8996330Y19865000D01*
X-8990060Y19801336D01*
X-8971490Y19740119D01*
X-8941333Y19683701D01*
X-8900750Y19634250D01*
X-8851299Y19593667D01*
X-8794881Y19563510D01*
X-8733664Y19544940D01*
X-8670000Y19538670D01*
X-8570000Y19538670D01*
X-8506336Y19544940D01*
X-8504314Y19545554D01*
X-8503369Y19544767D01*
X-8447126Y19514186D01*
X-8385997Y19495165D01*
X-8326250Y19490000D01*
X-8245000Y19571250D01*
X-8245000Y19851496D01*
X-8243670Y19865000D01*
X-8243670Y20135000D01*
X-8196330Y20135000D01*
X-8196330Y19865000D01*
X-8195000Y19851496D01*
X-8195000Y19571250D01*
X-8194999Y19571249D01*
X-8194999Y19513331D01*
X-8410329Y19298000D01*
X-9623670Y19298000D01*
X-9660000Y19334330D01*
X-9660000Y19353246D01*
X-9679215Y19449845D01*
X-9716906Y19540839D01*
X-9771625Y19622731D01*
X-9841269Y19692375D01*
X-9923161Y19747094D01*
X-10014155Y19784785D01*
X-10110754Y19804000D01*
X-10209246Y19804000D01*
X-10305845Y19784785D01*
X-10396839Y19747094D01*
X-10478731Y19692375D01*
X-10548375Y19622731D01*
X-10603094Y19540839D01*
X-10640785Y19449845D01*
X-10660000Y19353246D01*
X-10660000Y19254754D01*
X-10640785Y19158155D01*
X-10603094Y19067161D01*
X-10548375Y18985269D01*
X-10478731Y18915625D01*
X-10396839Y18860906D01*
X-10305845Y18823215D01*
X-10209246Y18804000D01*
X-10190330Y18804000D01*
X-10057191Y18670861D01*
X-10045448Y18656552D01*
X-10043899Y18655281D01*
X-10049902Y18647967D01*
X-10089068Y18574693D01*
X-10113186Y18495185D01*
X-10121330Y18412500D01*
X-10121330Y18117500D01*
X-10113186Y18034815D01*
X-10089068Y17955307D01*
X-10049902Y17882033D01*
X-10030406Y17858277D01*
X-10075922Y17820922D01*
X-10116536Y17771434D01*
X-10146714Y17714974D01*
X-10165298Y17653711D01*
X-10171573Y17590000D01*
X-10170000Y17401250D01*
X-10088750Y17320000D01*
X-9550000Y17320000D01*
X-9550000Y17340000D01*
X-9500000Y17340000D01*
X-9500000Y17320000D01*
X-9480000Y17320000D01*
X-9480000Y17270000D01*
X-9500000Y17270000D01*
X-9500000Y16756250D01*
X-9418750Y16675000D01*
X-9205000Y16673427D01*
X-9141289Y16679702D01*
X-9080026Y16698286D01*
X-9023566Y16728464D01*
X-8974078Y16769078D01*
X-8933464Y16818566D01*
X-8903286Y16875026D01*
X-8890000Y16918824D01*
X-8876714Y16875026D01*
X-8846536Y16818566D01*
X-8805922Y16769078D01*
X-8756434Y16728464D01*
X-8699974Y16698286D01*
X-8638711Y16679702D01*
X-8575000Y16673427D01*
X-8361250Y16675000D01*
X-8280000Y16756250D01*
X-8280000Y17270000D01*
X-8300000Y17270000D01*
X-8300000Y17320000D01*
X-8280000Y17320000D01*
X-8280000Y17340000D01*
X-8230000Y17340000D01*
X-8230000Y17320000D01*
X-8210000Y17320000D01*
X-8210000Y17270000D01*
X-8230000Y17270000D01*
X-8230000Y16756250D01*
X-8148750Y16675000D01*
X-7935000Y16673427D01*
X-7871289Y16679702D01*
X-7810026Y16698286D01*
X-7753566Y16728464D01*
X-7704078Y16769078D01*
X-7663464Y16818566D01*
X-7633286Y16875026D01*
X-7614702Y16936289D01*
X-7609342Y16990714D01*
X-7598347Y16981691D01*
X-7533200Y16946869D01*
X-7527617Y16945175D01*
X-7509902Y16912033D01*
X-7457193Y16847807D01*
X-7392967Y16795098D01*
X-7319693Y16755932D01*
X-7240185Y16731814D01*
X-7157500Y16723670D01*
X-6812500Y16723670D01*
X-6729815Y16731814D01*
X-6650307Y16755932D01*
X-6577033Y16795098D01*
X-6512807Y16847807D01*
X-6460098Y16912033D01*
X-6455840Y16920000D01*
X-6244160Y16920000D01*
X-6239902Y16912033D01*
X-6187193Y16847807D01*
X-6122967Y16795098D01*
X-6049693Y16755932D01*
X-5970185Y16731814D01*
X-5887500Y16723670D01*
X-5542500Y16723670D01*
X-5459815Y16731814D01*
X-5380307Y16755932D01*
X-5307033Y16795098D01*
X-5242807Y16847807D01*
X-5190098Y16912033D01*
X-5150932Y16985307D01*
X-5126814Y17064815D01*
X-5118670Y17147500D01*
X-5118670Y17442500D01*
X-5126814Y17525185D01*
X-5150932Y17604693D01*
X-5190098Y17677967D01*
X-5242807Y17742193D01*
X-5288875Y17780000D01*
X-5242807Y17817807D01*
X-5190098Y17882033D01*
X-5150932Y17955307D01*
X-5126814Y18034815D01*
X-5118670Y18117500D01*
X-5118670Y18412500D01*
X-5126814Y18495185D01*
X-5150932Y18574693D01*
X-5190098Y18647967D01*
X-5242807Y18712193D01*
X-5307033Y18764902D01*
X-5380307Y18804068D01*
X-5459815Y18828186D01*
X-5542500Y18836330D01*
X-5796500Y18836330D01*
X-6245000Y19284829D01*
X-6245000Y19851496D01*
X-6243670Y19865000D01*
X-6243670Y19937341D01*
X-5909191Y19602861D01*
X-5897448Y19588552D01*
X-5871608Y19567346D01*
X-5840348Y19541691D01*
X-5788889Y19514186D01*
X-5775200Y19506869D01*
X-5704513Y19485426D01*
X-5649419Y19480000D01*
X-5649417Y19480000D01*
X-5631001Y19478186D01*
X-5612585Y19480000D01*
X-5361330Y19480000D01*
X-5361330Y19325000D01*
X-5356020Y19271091D01*
X-5340296Y19219253D01*
X-5314760Y19171479D01*
X-5280395Y19129605D01*
X-5238521Y19095240D01*
X-5190747Y19069704D01*
X-5138909Y19053980D01*
X-5085000Y19048670D01*
X-4435000Y19048670D01*
X-4381091Y19053980D01*
X-4334342Y19068160D01*
X-4316434Y19053464D01*
X-4259974Y19023286D01*
X-4198711Y19004702D01*
X-4135000Y18998427D01*
X-3916250Y19000000D01*
X-3835000Y19081250D01*
X-3835000Y19830000D01*
X-3855000Y19830000D01*
X-3855000Y19880000D01*
X-3835000Y19880000D01*
X-3835000Y19900000D01*
X-3785000Y19900000D01*
X-3785000Y19880000D01*
X-3765000Y19880000D01*
X-3765000Y19830000D01*
X-3785000Y19830000D01*
X-3785000Y19081250D01*
X-3703750Y19000000D01*
X-3485000Y18998427D01*
X-3421289Y19004702D01*
X-3360026Y19023286D01*
X-3303566Y19053464D01*
X-3285658Y19068160D01*
X-3238909Y19053980D01*
X-3185000Y19048670D01*
X-2535000Y19048670D01*
X-2481091Y19053980D01*
X-2429253Y19069704D01*
X-2381479Y19095240D01*
X-2339605Y19129605D01*
X-2305240Y19171479D01*
X-2279704Y19219253D01*
X-2263980Y19271091D01*
X-2258670Y19325000D01*
X-2258670Y20385000D01*
X-2263980Y20438909D01*
X-2279704Y20490747D01*
X-2283528Y20497901D01*
X-2230346Y20514034D01*
X-2147827Y20558141D01*
X-2088292Y20607000D01*
X-1934285Y20607000D01*
X-1931967Y20605098D01*
X-1858693Y20565932D01*
X-1779185Y20541814D01*
X-1696500Y20533670D01*
X-1351500Y20533670D01*
X-1307597Y20537994D01*
X-1325000Y20450501D01*
X-1325000Y20189499D01*
X-1274081Y19933512D01*
X-1174200Y19692377D01*
X-1029195Y19475362D01*
X-844638Y19290805D01*
X-627623Y19145800D01*
X-396340Y19050000D01*
X-627623Y18954200D01*
X-844638Y18809195D01*
X-1029195Y18624638D01*
X-1174200Y18407623D01*
X-1268484Y18180000D01*
X-1765752Y18180000D01*
X-1775509Y18229051D01*
X-1791233Y18280888D01*
X-1828742Y18371444D01*
X-1854278Y18419219D01*
X-1908734Y18500718D01*
X-1943099Y18542593D01*
X-2012407Y18611901D01*
X-2054282Y18646266D01*
X-2135781Y18700722D01*
X-2183556Y18726258D01*
X-2274112Y18763767D01*
X-2325949Y18779491D01*
X-2422082Y18798613D01*
X-2475991Y18803923D01*
X-2500553Y18803923D01*
X-2525000Y18806331D01*
X-3025000Y18806331D01*
X-3078910Y18801021D01*
X-3130747Y18785297D01*
X-3175000Y18761643D01*
X-3219253Y18785297D01*
X-3271090Y18801021D01*
X-3325000Y18806331D01*
X-3825000Y18806331D01*
X-3849447Y18803923D01*
X-3874009Y18803923D01*
X-3927918Y18798613D01*
X-4024051Y18779491D01*
X-4075888Y18763767D01*
X-4166444Y18726258D01*
X-4214219Y18700722D01*
X-4295718Y18646266D01*
X-4337593Y18611901D01*
X-4406901Y18542593D01*
X-4441266Y18500718D01*
X-4495722Y18419219D01*
X-4521258Y18371444D01*
X-4558767Y18280888D01*
X-4574491Y18229051D01*
X-4593613Y18132918D01*
X-4598923Y18079009D01*
X-4598923Y18054447D01*
X-4601331Y18030000D01*
X-4601331Y17530000D01*
X-4598923Y17505553D01*
X-4598923Y17480991D01*
X-4593613Y17427082D01*
X-4578537Y17351292D01*
X-4951134Y16978695D01*
X-4965448Y16966948D01*
X-5012309Y16909846D01*
X-5047131Y16844699D01*
X-5068574Y16774012D01*
X-5072730Y16731814D01*
X-5075814Y16700500D01*
X-5074000Y16682083D01*
X-5073999Y16030332D01*
X-9299329Y11805000D01*
X-11193670Y11805000D01*
X-11193670Y11830000D01*
X-11198980Y11883909D01*
X-11214704Y11935747D01*
X-11238358Y11980000D01*
X-11214704Y12024253D01*
X-11198980Y12076091D01*
X-11193670Y12130000D01*
X-11193670Y12155000D01*
X-9459416Y12155000D01*
X-9441000Y12153186D01*
X-9422584Y12155000D01*
X-9422581Y12155000D01*
X-9367487Y12160426D01*
X-9296800Y12181869D01*
X-9231653Y12216691D01*
X-9174552Y12263552D01*
X-9162805Y12277866D01*
X-8891860Y12548810D01*
X-8877552Y12560552D01*
X-8842295Y12603513D01*
X-8830691Y12617652D01*
X-8795870Y12682798D01*
X-8795869Y12682801D01*
X-8774426Y12753487D01*
X-8769000Y12808581D01*
X-8769000Y12808583D01*
X-8767186Y12826999D01*
X-8769000Y12845415D01*
X-8769000Y15132082D01*
X-8767186Y15150498D01*
X-8770477Y15183909D01*
X-8774426Y15224011D01*
X-8795869Y15294698D01*
X-8812856Y15326479D01*
X-8830690Y15359845D01*
X-8865811Y15402639D01*
X-8877552Y15416946D01*
X-8891861Y15428689D01*
X-10317476Y16854303D01*
X-10270098Y16912033D01*
X-10230932Y16985307D01*
X-10226476Y17000000D01*
X-10171573Y17000000D01*
X-10165298Y16936289D01*
X-10146714Y16875026D01*
X-10116536Y16818566D01*
X-10075922Y16769078D01*
X-10026434Y16728464D01*
X-9969974Y16698286D01*
X-9908711Y16679702D01*
X-9845000Y16673427D01*
X-9631250Y16675000D01*
X-9550000Y16756250D01*
X-9550000Y17270000D01*
X-10088750Y17270000D01*
X-10170000Y17188750D01*
X-10171573Y17000000D01*
X-10226476Y17000000D01*
X-10206814Y17064815D01*
X-10198670Y17147500D01*
X-10198670Y17442500D01*
X-10206814Y17525185D01*
X-10230932Y17604693D01*
X-10270098Y17677967D01*
X-10322807Y17742193D01*
X-10368875Y17780000D01*
X-10322807Y17817807D01*
X-10270098Y17882033D01*
X-10230932Y17955307D01*
X-10206814Y18034815D01*
X-10198670Y18117500D01*
X-10198670Y18412500D01*
X-10206814Y18495185D01*
X-10230932Y18574693D01*
X-10270098Y18647967D01*
X-10322807Y18712193D01*
X-10387033Y18764902D01*
X-10460307Y18804068D01*
X-10539815Y18828186D01*
X-10622500Y18836330D01*
X-10967500Y18836330D01*
X-11050185Y18828186D01*
X-11129693Y18804068D01*
X-11202967Y18764902D01*
X-11228565Y18743895D01*
X-11309000Y18824330D01*
X-11309000Y18904584D01*
X-11307186Y18923000D01*
X-11309108Y18942512D01*
X-11314426Y18996513D01*
X-11335869Y19067200D01*
X-11350236Y19094078D01*
X-11370690Y19132347D01*
X-11397577Y19165108D01*
X-11417552Y19189448D01*
X-11431861Y19201191D01*
X-11685305Y19454634D01*
X-11697052Y19468948D01*
X-11754153Y19515809D01*
X-11819300Y19550631D01*
X-11889987Y19572074D01*
X-11945081Y19577500D01*
X-11945084Y19577500D01*
X-11963500Y19579314D01*
X-11976446Y19578039D01*
X-11986356Y19610709D01*
X-12032106Y19696302D01*
X-12093676Y19771324D01*
X-12168698Y19832894D01*
X-12254291Y19878644D01*
X-12347165Y19906817D01*
X-12443750Y19916330D01*
X-12954340Y19916330D01*
X-12447860Y20422810D01*
X-12433552Y20434552D01*
X-12386691Y20491653D01*
X-12374728Y20514034D01*
X-12351870Y20556798D01*
X-12351869Y20556801D01*
X-12330426Y20627487D01*
X-12329795Y20633891D01*
X-12214480Y20681656D01*
X-12046600Y20793830D01*
X-12030430Y20810000D01*
X-10806573Y20810000D01*
X-10800298Y20746289D01*
X-10781714Y20685026D01*
X-10751536Y20628566D01*
X-10710922Y20579078D01*
X-10661434Y20538464D01*
X-10604974Y20508286D01*
X-10543711Y20489702D01*
X-10480000Y20483427D01*
X-10266250Y20485000D01*
X-10185000Y20566250D01*
X-10185000Y21080000D01*
X-10723750Y21080000D01*
X-10805000Y20998750D01*
X-10806573Y20810000D01*
X-12030430Y20810000D01*
X-11903830Y20936600D01*
X-11791656Y21104480D01*
X-11714390Y21291018D01*
X-11675000Y21489046D01*
X-11675000Y21690954D01*
X-11714390Y21888982D01*
X-11791656Y22075520D01*
X-11903830Y22243400D01*
X-12046600Y22386170D01*
X-12214480Y22498344D01*
X-12401018Y22575610D01*
X-12599046Y22615000D01*
X-12800954Y22615000D01*
X-12998982Y22575610D01*
X-13185520Y22498344D01*
X-13353400Y22386170D01*
X-13496170Y22243400D01*
X-13608344Y22075520D01*
X-13685610Y21888982D01*
X-13725000Y21690954D01*
X-13725000Y21489046D01*
X-13685610Y21291018D01*
X-13608344Y21104480D01*
X-13496170Y20936600D01*
X-13353400Y20793830D01*
X-13223977Y20707352D01*
X-13957999Y19973331D01*
X-13915000Y20189499D01*
X-13915000Y20450501D01*
X-13965919Y20706488D01*
X-14065800Y20947623D01*
X-14210805Y21164638D01*
X-14395362Y21349195D01*
X-14612377Y21494200D01*
X-14843660Y21590000D01*
X-14612377Y21685800D01*
X-14395362Y21830805D01*
X-14210805Y22015362D01*
X-14065800Y22232377D01*
X-13965919Y22473512D01*
X-13915000Y22729499D01*
X-13915000Y22990501D01*
X-13965919Y23246488D01*
X-14065800Y23487623D01*
X-14210805Y23704638D01*
X-14395362Y23889195D01*
X-14612377Y24034200D01*
X-14843660Y24130000D01*
X-14612377Y24225800D01*
X-14395362Y24370805D01*
X-14210805Y24555362D01*
X-14065800Y24772377D01*
X-13965919Y25013512D01*
X-13915000Y25269499D01*
X-13915000Y25530501D01*
X-13965919Y25786488D01*
X-14065800Y26027623D01*
X-14210805Y26244638D01*
X-14395362Y26429195D01*
X-14583642Y26555000D01*
X-11871573Y26555000D01*
X-11865298Y26491289D01*
X-11846714Y26430026D01*
X-11816536Y26373566D01*
X-11775922Y26324078D01*
X-11726434Y26283464D01*
X-11669974Y26253286D01*
X-11608711Y26234702D01*
X-11545000Y26228427D01*
X-10901250Y26230000D01*
X-10820000Y26311250D01*
X-10820000Y27280000D01*
X-10770000Y27280000D01*
X-10770000Y26311250D01*
X-10688750Y26230000D01*
X-10045000Y26228427D01*
X-9981289Y26234702D01*
X-9920026Y26253286D01*
X-9863566Y26283464D01*
X-9814078Y26324078D01*
X-9773464Y26373566D01*
X-9743286Y26430026D01*
X-9724702Y26491289D01*
X-9718427Y26555000D01*
X-9718737Y26682000D01*
X-5902573Y26682000D01*
X-5896298Y26618289D01*
X-5877714Y26557026D01*
X-5847536Y26500566D01*
X-5806922Y26451078D01*
X-5757434Y26410464D01*
X-5700974Y26380286D01*
X-5639711Y26361702D01*
X-5576000Y26355427D01*
X-4932250Y26357000D01*
X-4851000Y26438250D01*
X-4851000Y27407000D01*
X-4801000Y27407000D01*
X-4801000Y26438250D01*
X-4719750Y26357000D01*
X-4076000Y26355427D01*
X-4012289Y26361702D01*
X-3951026Y26380286D01*
X-3894566Y26410464D01*
X-3845078Y26451078D01*
X-3804464Y26500566D01*
X-3774286Y26557026D01*
X-3755702Y26618289D01*
X-3749427Y26682000D01*
X-3751000Y27325750D01*
X-3832250Y27407000D01*
X-4801000Y27407000D01*
X-4851000Y27407000D01*
X-5819750Y27407000D01*
X-5901000Y27325750D01*
X-5902573Y26682000D01*
X-9718737Y26682000D01*
X-9720000Y27198750D01*
X-9801250Y27280000D01*
X-10770000Y27280000D01*
X-10820000Y27280000D01*
X-11788750Y27280000D01*
X-11870000Y27198750D01*
X-11871573Y26555000D01*
X-14583642Y26555000D01*
X-14612377Y26574200D01*
X-14843660Y26670000D01*
X-14612377Y26765800D01*
X-14395362Y26910805D01*
X-14210805Y27095362D01*
X-14065800Y27312377D01*
X-13965919Y27553512D01*
X-13915000Y27809499D01*
X-13915000Y28055000D01*
X-11871573Y28055000D01*
X-11870000Y27411250D01*
X-11788750Y27330000D01*
X-10820000Y27330000D01*
X-10820000Y28298750D01*
X-10770000Y28298750D01*
X-10770000Y27330000D01*
X-9801250Y27330000D01*
X-9769617Y27361633D01*
X-8195000Y27361633D01*
X-8195000Y27248367D01*
X-8172903Y27137279D01*
X-8129558Y27032635D01*
X-8066632Y26938459D01*
X-7986541Y26858368D01*
X-7892365Y26795442D01*
X-7787721Y26752097D01*
X-7676633Y26730000D01*
X-7563367Y26730000D01*
X-7452279Y26752097D01*
X-7347635Y26795442D01*
X-7253459Y26858368D01*
X-7173368Y26938459D01*
X-7110442Y27032635D01*
X-7067097Y27137279D01*
X-7045000Y27248367D01*
X-7045000Y27361633D01*
X-7067097Y27472721D01*
X-7110442Y27577365D01*
X-7173368Y27671541D01*
X-7253459Y27751632D01*
X-7347635Y27814558D01*
X-7452279Y27857903D01*
X-7563367Y27880000D01*
X-7676633Y27880000D01*
X-7787721Y27857903D01*
X-7892365Y27814558D01*
X-7986541Y27751632D01*
X-8066632Y27671541D01*
X-8129558Y27577365D01*
X-8172903Y27472721D01*
X-8195000Y27361633D01*
X-9769617Y27361633D01*
X-9720000Y27411250D01*
X-9718427Y28055000D01*
X-9724702Y28118711D01*
X-9743286Y28179974D01*
X-9744368Y28182000D01*
X-5902573Y28182000D01*
X-5901000Y27538250D01*
X-5819750Y27457000D01*
X-4851000Y27457000D01*
X-4851000Y28425750D01*
X-4801000Y28425750D01*
X-4801000Y27457000D01*
X-3832250Y27457000D01*
X-3751000Y27538250D01*
X-3749427Y28182000D01*
X-3755702Y28245711D01*
X-3774286Y28306974D01*
X-3804464Y28363434D01*
X-3845078Y28412922D01*
X-3894566Y28453536D01*
X-3951026Y28483714D01*
X-4012289Y28502298D01*
X-4076000Y28508573D01*
X-4719750Y28507000D01*
X-4801000Y28425750D01*
X-4851000Y28425750D01*
X-4932250Y28507000D01*
X-5576000Y28508573D01*
X-5639711Y28502298D01*
X-5700974Y28483714D01*
X-5757434Y28453536D01*
X-5806922Y28412922D01*
X-5847536Y28363434D01*
X-5877714Y28306974D01*
X-5896298Y28245711D01*
X-5902573Y28182000D01*
X-9744368Y28182000D01*
X-9773464Y28236434D01*
X-9814078Y28285922D01*
X-9863566Y28326536D01*
X-9920026Y28356714D01*
X-9981289Y28375298D01*
X-10045000Y28381573D01*
X-10688750Y28380000D01*
X-10770000Y28298750D01*
X-10820000Y28298750D01*
X-10901250Y28380000D01*
X-11545000Y28381573D01*
X-11608711Y28375298D01*
X-11669974Y28356714D01*
X-11726434Y28326536D01*
X-11775922Y28285922D01*
X-11816536Y28236434D01*
X-11846714Y28179974D01*
X-11865298Y28118711D01*
X-11871573Y28055000D01*
X-13915000Y28055000D01*
X-13915000Y28070501D01*
X-13965919Y28326488D01*
X-14065800Y28567623D01*
X-14210805Y28784638D01*
X-14311167Y28885000D01*
X-928833Y28885000D01*
X-1029195Y28784638D01*
G37*
%TD.AperFunction*%
D29*
X-13451330Y18983750D02*
X-13441817Y18887165D01*
X-13413644Y18794291D01*
X-13367894Y18708698D01*
X-13306324Y18633676D01*
X-13231302Y18572106D01*
X-13145709Y18526356D01*
X-13052835Y18498183D01*
X-12956250Y18488670D01*
X-12443750Y18488670D01*
X-12347165Y18498183D01*
X-12254291Y18526356D01*
X-12168698Y18572106D01*
X-12093676Y18633676D01*
X-12060286Y18674361D01*
X-12060814Y18669000D01*
X-12059000Y18650584D01*
X-12059000Y18650582D01*
X-12053574Y18595488D01*
X-12032131Y18524801D01*
X-11997309Y18459654D01*
X-11950448Y18402552D01*
X-11936134Y18390805D01*
X-11558187Y18012856D01*
X-11546448Y17998552D01*
X-11532145Y17986814D01*
X-11532142Y17986811D01*
X-11509271Y17968042D01*
X-11489347Y17951691D01*
X-11424200Y17916869D01*
X-11353513Y17895426D01*
X-11325591Y17892676D01*
X-11319902Y17882033D01*
X-11267193Y17817807D01*
X-11221125Y17780000D01*
X-11267193Y17742193D01*
X-11319902Y17677967D01*
X-11359068Y17604693D01*
X-11383186Y17525185D01*
X-11391330Y17442500D01*
X-11391330Y17147500D01*
X-11383186Y17064815D01*
X-11359068Y16985307D01*
X-11319902Y16912033D01*
X-11267193Y16847807D01*
X-11202967Y16795098D01*
X-11169417Y16777165D01*
X-11164574Y16727986D01*
X-11143131Y16657299D01*
X-11108309Y16592152D01*
X-11061448Y16535050D01*
X-11047134Y16523303D01*
X-9518999Y14995167D01*
X-9518999Y14681685D01*
X-9530319Y14689249D01*
X-9625863Y14728824D01*
X-9727292Y14749000D01*
X-9830708Y14749000D01*
X-9932137Y14728824D01*
X-10027681Y14689249D01*
X-10113668Y14631794D01*
X-10146462Y14599000D01*
X-10608670Y14599000D01*
X-10991805Y14982134D01*
X-11003552Y14996448D01*
X-11060653Y15043309D01*
X-11125800Y15078131D01*
X-11193670Y15098719D01*
X-11193670Y15130000D01*
X-11198980Y15183909D01*
X-11214704Y15235747D01*
X-11228633Y15261806D01*
X-11198464Y15298566D01*
X-11168286Y15355026D01*
X-11149702Y15416289D01*
X-11143427Y15480000D01*
X-11145000Y15723750D01*
X-11226250Y15805000D01*
X-12345000Y15805000D01*
X-12345000Y15785000D01*
X-12395000Y15785000D01*
X-12395000Y15805000D01*
X-12415000Y15805000D01*
X-12415000Y15855000D01*
X-12395000Y15855000D01*
X-12395000Y16423750D01*
X-12345000Y16423750D01*
X-12345000Y15855000D01*
X-11226250Y15855000D01*
X-11145000Y15936250D01*
X-11143427Y16180000D01*
X-11149702Y16243711D01*
X-11168286Y16304974D01*
X-11198464Y16361434D01*
X-11239078Y16410922D01*
X-11288566Y16451536D01*
X-11345026Y16481714D01*
X-11406289Y16500298D01*
X-11470000Y16506573D01*
X-12263750Y16505000D01*
X-12345000Y16423750D01*
X-12395000Y16423750D01*
X-12476250Y16505000D01*
X-13270000Y16506573D01*
X-13333711Y16500298D01*
X-13394974Y16481714D01*
X-13451434Y16451536D01*
X-13468000Y16437941D01*
X-13468000Y17048723D01*
X-13446536Y17008566D01*
X-13405922Y16959078D01*
X-13356434Y16918464D01*
X-13299974Y16888286D01*
X-13238711Y16869702D01*
X-13175000Y16863427D01*
X-12806250Y16865000D01*
X-12725000Y16946250D01*
X-12725000Y17602500D01*
X-12675000Y17602500D01*
X-12675000Y16946250D01*
X-12593750Y16865000D01*
X-12225000Y16863427D01*
X-12161289Y16869702D01*
X-12100026Y16888286D01*
X-12043566Y16918464D01*
X-11994078Y16959078D01*
X-11953464Y17008566D01*
X-11923286Y17065026D01*
X-11904702Y17126289D01*
X-11898427Y17190000D01*
X-11900000Y17521250D01*
X-11981250Y17602500D01*
X-12675000Y17602500D01*
X-12725000Y17602500D01*
X-12745000Y17602500D01*
X-12745000Y17652500D01*
X-12725000Y17652500D01*
X-12725000Y18308750D01*
X-12675000Y18308750D01*
X-12675000Y17652500D01*
X-11981250Y17652500D01*
X-11900000Y17733750D01*
X-11898427Y18065000D01*
X-11904702Y18128711D01*
X-11923286Y18189974D01*
X-11953464Y18246434D01*
X-11994078Y18295922D01*
X-12043566Y18336536D01*
X-12100026Y18366714D01*
X-12161289Y18385298D01*
X-12225000Y18391573D01*
X-12593750Y18390000D01*
X-12675000Y18308750D01*
X-12725000Y18308750D01*
X-12806250Y18390000D01*
X-13175000Y18391573D01*
X-13238711Y18385298D01*
X-13299974Y18366714D01*
X-13356434Y18336536D01*
X-13405922Y18295922D01*
X-13446536Y18246434D01*
X-13468000Y18206277D01*
X-13468000Y19402671D01*
X-13451330Y19419341D01*
X-13451330Y18983750D01*
%TA.AperFunction,Conductor*%
D30*
G36*
X-13451330Y18983750D02*
G01*
X-13441817Y18887165D01*
X-13413644Y18794291D01*
X-13367894Y18708698D01*
X-13306324Y18633676D01*
X-13231302Y18572106D01*
X-13145709Y18526356D01*
X-13052835Y18498183D01*
X-12956250Y18488670D01*
X-12443750Y18488670D01*
X-12347165Y18498183D01*
X-12254291Y18526356D01*
X-12168698Y18572106D01*
X-12093676Y18633676D01*
X-12060286Y18674361D01*
X-12060814Y18669000D01*
X-12059000Y18650584D01*
X-12059000Y18650582D01*
X-12053574Y18595488D01*
X-12032131Y18524801D01*
X-11997309Y18459654D01*
X-11950448Y18402552D01*
X-11936134Y18390805D01*
X-11558187Y18012856D01*
X-11546448Y17998552D01*
X-11532145Y17986814D01*
X-11532142Y17986811D01*
X-11509271Y17968042D01*
X-11489347Y17951691D01*
X-11424200Y17916869D01*
X-11353513Y17895426D01*
X-11325591Y17892676D01*
X-11319902Y17882033D01*
X-11267193Y17817807D01*
X-11221125Y17780000D01*
X-11267193Y17742193D01*
X-11319902Y17677967D01*
X-11359068Y17604693D01*
X-11383186Y17525185D01*
X-11391330Y17442500D01*
X-11391330Y17147500D01*
X-11383186Y17064815D01*
X-11359068Y16985307D01*
X-11319902Y16912033D01*
X-11267193Y16847807D01*
X-11202967Y16795098D01*
X-11169417Y16777165D01*
X-11164574Y16727986D01*
X-11143131Y16657299D01*
X-11108309Y16592152D01*
X-11061448Y16535050D01*
X-11047134Y16523303D01*
X-9518999Y14995167D01*
X-9518999Y14681685D01*
X-9530319Y14689249D01*
X-9625863Y14728824D01*
X-9727292Y14749000D01*
X-9830708Y14749000D01*
X-9932137Y14728824D01*
X-10027681Y14689249D01*
X-10113668Y14631794D01*
X-10146462Y14599000D01*
X-10608670Y14599000D01*
X-10991805Y14982134D01*
X-11003552Y14996448D01*
X-11060653Y15043309D01*
X-11125800Y15078131D01*
X-11193670Y15098719D01*
X-11193670Y15130000D01*
X-11198980Y15183909D01*
X-11214704Y15235747D01*
X-11228633Y15261806D01*
X-11198464Y15298566D01*
X-11168286Y15355026D01*
X-11149702Y15416289D01*
X-11143427Y15480000D01*
X-11145000Y15723750D01*
X-11226250Y15805000D01*
X-12345000Y15805000D01*
X-12345000Y15785000D01*
X-12395000Y15785000D01*
X-12395000Y15805000D01*
X-12415000Y15805000D01*
X-12415000Y15855000D01*
X-12395000Y15855000D01*
X-12395000Y16423750D01*
X-12345000Y16423750D01*
X-12345000Y15855000D01*
X-11226250Y15855000D01*
X-11145000Y15936250D01*
X-11143427Y16180000D01*
X-11149702Y16243711D01*
X-11168286Y16304974D01*
X-11198464Y16361434D01*
X-11239078Y16410922D01*
X-11288566Y16451536D01*
X-11345026Y16481714D01*
X-11406289Y16500298D01*
X-11470000Y16506573D01*
X-12263750Y16505000D01*
X-12345000Y16423750D01*
X-12395000Y16423750D01*
X-12476250Y16505000D01*
X-13270000Y16506573D01*
X-13333711Y16500298D01*
X-13394974Y16481714D01*
X-13451434Y16451536D01*
X-13468000Y16437941D01*
X-13468000Y17048723D01*
X-13446536Y17008566D01*
X-13405922Y16959078D01*
X-13356434Y16918464D01*
X-13299974Y16888286D01*
X-13238711Y16869702D01*
X-13175000Y16863427D01*
X-12806250Y16865000D01*
X-12725000Y16946250D01*
X-12725000Y17602500D01*
X-12675000Y17602500D01*
X-12675000Y16946250D01*
X-12593750Y16865000D01*
X-12225000Y16863427D01*
X-12161289Y16869702D01*
X-12100026Y16888286D01*
X-12043566Y16918464D01*
X-11994078Y16959078D01*
X-11953464Y17008566D01*
X-11923286Y17065026D01*
X-11904702Y17126289D01*
X-11898427Y17190000D01*
X-11900000Y17521250D01*
X-11981250Y17602500D01*
X-12675000Y17602500D01*
X-12725000Y17602500D01*
X-12745000Y17602500D01*
X-12745000Y17652500D01*
X-12725000Y17652500D01*
X-12725000Y18308750D01*
X-12675000Y18308750D01*
X-12675000Y17652500D01*
X-11981250Y17652500D01*
X-11900000Y17733750D01*
X-11898427Y18065000D01*
X-11904702Y18128711D01*
X-11923286Y18189974D01*
X-11953464Y18246434D01*
X-11994078Y18295922D01*
X-12043566Y18336536D01*
X-12100026Y18366714D01*
X-12161289Y18385298D01*
X-12225000Y18391573D01*
X-12593750Y18390000D01*
X-12675000Y18308750D01*
X-12725000Y18308750D01*
X-12806250Y18390000D01*
X-13175000Y18391573D01*
X-13238711Y18385298D01*
X-13299974Y18366714D01*
X-13356434Y18336536D01*
X-13405922Y18295922D01*
X-13446536Y18246434D01*
X-13468000Y18206277D01*
X-13468000Y19402671D01*
X-13451330Y19419341D01*
X-13451330Y18983750D01*
G37*
%TD.AperFunction*%
D29*
X-3672734Y24986405D02*
X-3702593Y24961901D01*
X-3771901Y24892593D01*
X-3806266Y24850718D01*
X-3860722Y24769219D01*
X-3886258Y24721444D01*
X-3923767Y24630888D01*
X-3939491Y24579051D01*
X-3958613Y24482918D01*
X-3963923Y24429009D01*
X-3963923Y24404447D01*
X-3966331Y24380000D01*
X-3966331Y23880000D01*
X-3963923Y23855553D01*
X-3963923Y23830991D01*
X-3958613Y23777082D01*
X-3939491Y23680949D01*
X-3923767Y23629112D01*
X-3886258Y23538556D01*
X-3860722Y23490781D01*
X-3806266Y23409282D01*
X-3771901Y23367407D01*
X-3702593Y23298099D01*
X-3660718Y23263734D01*
X-3579219Y23209278D01*
X-3531444Y23183742D01*
X-3440888Y23146233D01*
X-3389051Y23130509D01*
X-3292918Y23111387D01*
X-3239009Y23106077D01*
X-3214447Y23106077D01*
X-3190000Y23103669D01*
X-2690000Y23103669D01*
X-2636090Y23108979D01*
X-2584253Y23124703D01*
X-2540000Y23148357D01*
X-2495747Y23124703D01*
X-2443910Y23108979D01*
X-2390000Y23103669D01*
X-1890000Y23103669D01*
X-1865553Y23106077D01*
X-1840991Y23106077D01*
X-1787082Y23111387D01*
X-1690949Y23130509D01*
X-1639112Y23146233D01*
X-1548556Y23183742D01*
X-1500781Y23209278D01*
X-1419282Y23263734D01*
X-1377407Y23298099D01*
X-1308099Y23367407D01*
X-1273734Y23409282D01*
X-1219278Y23490781D01*
X-1211332Y23505647D01*
X-1179797Y23474111D01*
X-1274081Y23246488D01*
X-1325000Y22990501D01*
X-1325000Y22729499D01*
X-1318283Y22695732D01*
X-1417750Y22695000D01*
X-1499000Y22613750D01*
X-1499000Y22100000D01*
X-1479000Y22100000D01*
X-1479000Y22050000D01*
X-1499000Y22050000D01*
X-1499000Y22030000D01*
X-1549000Y22030000D01*
X-1549000Y22050000D01*
X-2087750Y22050000D01*
X-2169000Y21968750D01*
X-2170573Y21780000D01*
X-2164298Y21716289D01*
X-2145714Y21655026D01*
X-2115536Y21598566D01*
X-2081423Y21557000D01*
X-2258670Y21557000D01*
X-2258670Y22370000D01*
X-2170573Y22370000D01*
X-2169000Y22181250D01*
X-2087750Y22100000D01*
X-1549000Y22100000D01*
X-1549000Y22613750D01*
X-1630250Y22695000D01*
X-1844000Y22696573D01*
X-1907711Y22690298D01*
X-1968974Y22671714D01*
X-2025434Y22641536D01*
X-2074922Y22600922D01*
X-2115536Y22551434D01*
X-2145714Y22494974D01*
X-2164298Y22433711D01*
X-2170573Y22370000D01*
X-2258670Y22370000D01*
X-2258670Y22585000D01*
X-2263980Y22638909D01*
X-2279704Y22690747D01*
X-2305240Y22738521D01*
X-2339605Y22780395D01*
X-2381479Y22814760D01*
X-2429253Y22840296D01*
X-2481091Y22856020D01*
X-2535000Y22861330D01*
X-3185000Y22861330D01*
X-3238909Y22856020D01*
X-3290747Y22840296D01*
X-3338521Y22814760D01*
X-3380395Y22780395D01*
X-3414760Y22738521D01*
X-3440296Y22690747D01*
X-3456020Y22638909D01*
X-3461330Y22585000D01*
X-3461330Y21525000D01*
X-3456020Y21471091D01*
X-3443556Y21430000D01*
X-4176444Y21430000D01*
X-4163980Y21471091D01*
X-4158670Y21525000D01*
X-4158670Y22585000D01*
X-4163980Y22638909D01*
X-4179704Y22690747D01*
X-4205240Y22738521D01*
X-4239605Y22780395D01*
X-4281479Y22814760D01*
X-4284928Y22816604D01*
X-4291873Y22887116D01*
X-4299735Y22913033D01*
X-4319034Y22976654D01*
X-4322117Y22982422D01*
X-4301098Y23008033D01*
X-4261932Y23081307D01*
X-4237814Y23160815D01*
X-4229670Y23243500D01*
X-4229670Y23538500D01*
X-4237814Y23621185D01*
X-4261932Y23700693D01*
X-4301098Y23773967D01*
X-4320594Y23797723D01*
X-4275078Y23835078D01*
X-4234464Y23884566D01*
X-4204286Y23941026D01*
X-4185702Y24002289D01*
X-4179427Y24066000D01*
X-4181000Y24254750D01*
X-4262250Y24336000D01*
X-4801000Y24336000D01*
X-4801000Y24316000D01*
X-4851000Y24316000D01*
X-4851000Y24336000D01*
X-5303250Y24336000D01*
X-5326250Y24359000D01*
X-5840000Y24359000D01*
X-5840000Y24339000D01*
X-5890000Y24339000D01*
X-5890000Y24359000D01*
X-5910000Y24359000D01*
X-5910000Y24409000D01*
X-5890000Y24409000D01*
X-5890000Y24947750D01*
X-5840000Y24947750D01*
X-5840000Y24409000D01*
X-5412750Y24409000D01*
X-5389750Y24386000D01*
X-4851000Y24386000D01*
X-4851000Y24899750D01*
X-4801000Y24899750D01*
X-4801000Y24386000D01*
X-4262250Y24386000D01*
X-4181000Y24467250D01*
X-4179427Y24656000D01*
X-4185702Y24719711D01*
X-4204286Y24780974D01*
X-4234464Y24837434D01*
X-4275078Y24886922D01*
X-4324566Y24927536D01*
X-4381026Y24957714D01*
X-4442289Y24976298D01*
X-4506000Y24982573D01*
X-4719750Y24981000D01*
X-4801000Y24899750D01*
X-4851000Y24899750D01*
X-4932250Y24981000D01*
X-5146000Y24982573D01*
X-5209711Y24976298D01*
X-5270974Y24957714D01*
X-5327434Y24927536D01*
X-5330770Y24924798D01*
X-5339078Y24934922D01*
X-5388566Y24975536D01*
X-5445026Y25005714D01*
X-5506289Y25024298D01*
X-5570000Y25030573D01*
X-5758750Y25029000D01*
X-5840000Y24947750D01*
X-5890000Y24947750D01*
X-5971250Y25029000D01*
X-6160000Y25030573D01*
X-6223711Y25024298D01*
X-6284974Y25005714D01*
X-6341434Y24975536D01*
X-6390922Y24934922D01*
X-6428277Y24889406D01*
X-6452033Y24908902D01*
X-6525307Y24948068D01*
X-6604815Y24972186D01*
X-6687500Y24980330D01*
X-6982500Y24980330D01*
X-7065185Y24972186D01*
X-7144693Y24948068D01*
X-7217967Y24908902D01*
X-7282193Y24856193D01*
X-7334902Y24791967D01*
X-7363728Y24738038D01*
X-7383200Y24732131D01*
X-7415774Y24714720D01*
X-7448346Y24697310D01*
X-7448348Y24697309D01*
X-7448347Y24697309D01*
X-7505448Y24650448D01*
X-7517195Y24636134D01*
X-7620000Y24533329D01*
X-7722805Y24636134D01*
X-7734552Y24650448D01*
X-7791653Y24697309D01*
X-7856800Y24732131D01*
X-7876272Y24738038D01*
X-7905098Y24791967D01*
X-7957807Y24856193D01*
X-8022033Y24908902D01*
X-8095307Y24948068D01*
X-8174815Y24972186D01*
X-8257500Y24980330D01*
X-8552500Y24980330D01*
X-8635185Y24972186D01*
X-8714693Y24948068D01*
X-8787967Y24908902D01*
X-8811723Y24889406D01*
X-8849078Y24934922D01*
X-8898566Y24975536D01*
X-8955026Y25005714D01*
X-9016289Y25024298D01*
X-9080000Y25030573D01*
X-9268750Y25029000D01*
X-9350000Y24947750D01*
X-9350000Y24409000D01*
X-9330000Y24409000D01*
X-9330000Y24359000D01*
X-9350000Y24359000D01*
X-9350000Y24339000D01*
X-9400000Y24339000D01*
X-9400000Y24359000D01*
X-9420000Y24359000D01*
X-9420000Y24409000D01*
X-9400000Y24409000D01*
X-9400000Y24947750D01*
X-9481250Y25029000D01*
X-9618527Y25030144D01*
X-9242670Y25406000D01*
X-4092329Y25406000D01*
X-3672734Y24986405D01*
%TA.AperFunction,Conductor*%
D30*
G36*
X-3672734Y24986405D02*
G01*
X-3702593Y24961901D01*
X-3771901Y24892593D01*
X-3806266Y24850718D01*
X-3860722Y24769219D01*
X-3886258Y24721444D01*
X-3923767Y24630888D01*
X-3939491Y24579051D01*
X-3958613Y24482918D01*
X-3963923Y24429009D01*
X-3963923Y24404447D01*
X-3966331Y24380000D01*
X-3966331Y23880000D01*
X-3963923Y23855553D01*
X-3963923Y23830991D01*
X-3958613Y23777082D01*
X-3939491Y23680949D01*
X-3923767Y23629112D01*
X-3886258Y23538556D01*
X-3860722Y23490781D01*
X-3806266Y23409282D01*
X-3771901Y23367407D01*
X-3702593Y23298099D01*
X-3660718Y23263734D01*
X-3579219Y23209278D01*
X-3531444Y23183742D01*
X-3440888Y23146233D01*
X-3389051Y23130509D01*
X-3292918Y23111387D01*
X-3239009Y23106077D01*
X-3214447Y23106077D01*
X-3190000Y23103669D01*
X-2690000Y23103669D01*
X-2636090Y23108979D01*
X-2584253Y23124703D01*
X-2540000Y23148357D01*
X-2495747Y23124703D01*
X-2443910Y23108979D01*
X-2390000Y23103669D01*
X-1890000Y23103669D01*
X-1865553Y23106077D01*
X-1840991Y23106077D01*
X-1787082Y23111387D01*
X-1690949Y23130509D01*
X-1639112Y23146233D01*
X-1548556Y23183742D01*
X-1500781Y23209278D01*
X-1419282Y23263734D01*
X-1377407Y23298099D01*
X-1308099Y23367407D01*
X-1273734Y23409282D01*
X-1219278Y23490781D01*
X-1211332Y23505647D01*
X-1179797Y23474111D01*
X-1274081Y23246488D01*
X-1325000Y22990501D01*
X-1325000Y22729499D01*
X-1318283Y22695732D01*
X-1417750Y22695000D01*
X-1499000Y22613750D01*
X-1499000Y22100000D01*
X-1479000Y22100000D01*
X-1479000Y22050000D01*
X-1499000Y22050000D01*
X-1499000Y22030000D01*
X-1549000Y22030000D01*
X-1549000Y22050000D01*
X-2087750Y22050000D01*
X-2169000Y21968750D01*
X-2170573Y21780000D01*
X-2164298Y21716289D01*
X-2145714Y21655026D01*
X-2115536Y21598566D01*
X-2081423Y21557000D01*
X-2258670Y21557000D01*
X-2258670Y22370000D01*
X-2170573Y22370000D01*
X-2169000Y22181250D01*
X-2087750Y22100000D01*
X-1549000Y22100000D01*
X-1549000Y22613750D01*
X-1630250Y22695000D01*
X-1844000Y22696573D01*
X-1907711Y22690298D01*
X-1968974Y22671714D01*
X-2025434Y22641536D01*
X-2074922Y22600922D01*
X-2115536Y22551434D01*
X-2145714Y22494974D01*
X-2164298Y22433711D01*
X-2170573Y22370000D01*
X-2258670Y22370000D01*
X-2258670Y22585000D01*
X-2263980Y22638909D01*
X-2279704Y22690747D01*
X-2305240Y22738521D01*
X-2339605Y22780395D01*
X-2381479Y22814760D01*
X-2429253Y22840296D01*
X-2481091Y22856020D01*
X-2535000Y22861330D01*
X-3185000Y22861330D01*
X-3238909Y22856020D01*
X-3290747Y22840296D01*
X-3338521Y22814760D01*
X-3380395Y22780395D01*
X-3414760Y22738521D01*
X-3440296Y22690747D01*
X-3456020Y22638909D01*
X-3461330Y22585000D01*
X-3461330Y21525000D01*
X-3456020Y21471091D01*
X-3443556Y21430000D01*
X-4176444Y21430000D01*
X-4163980Y21471091D01*
X-4158670Y21525000D01*
X-4158670Y22585000D01*
X-4163980Y22638909D01*
X-4179704Y22690747D01*
X-4205240Y22738521D01*
X-4239605Y22780395D01*
X-4281479Y22814760D01*
X-4284928Y22816604D01*
X-4291873Y22887116D01*
X-4299735Y22913033D01*
X-4319034Y22976654D01*
X-4322117Y22982422D01*
X-4301098Y23008033D01*
X-4261932Y23081307D01*
X-4237814Y23160815D01*
X-4229670Y23243500D01*
X-4229670Y23538500D01*
X-4237814Y23621185D01*
X-4261932Y23700693D01*
X-4301098Y23773967D01*
X-4320594Y23797723D01*
X-4275078Y23835078D01*
X-4234464Y23884566D01*
X-4204286Y23941026D01*
X-4185702Y24002289D01*
X-4179427Y24066000D01*
X-4181000Y24254750D01*
X-4262250Y24336000D01*
X-4801000Y24336000D01*
X-4801000Y24316000D01*
X-4851000Y24316000D01*
X-4851000Y24336000D01*
X-5303250Y24336000D01*
X-5326250Y24359000D01*
X-5840000Y24359000D01*
X-5840000Y24339000D01*
X-5890000Y24339000D01*
X-5890000Y24359000D01*
X-5910000Y24359000D01*
X-5910000Y24409000D01*
X-5890000Y24409000D01*
X-5890000Y24947750D01*
X-5840000Y24947750D01*
X-5840000Y24409000D01*
X-5412750Y24409000D01*
X-5389750Y24386000D01*
X-4851000Y24386000D01*
X-4851000Y24899750D01*
X-4801000Y24899750D01*
X-4801000Y24386000D01*
X-4262250Y24386000D01*
X-4181000Y24467250D01*
X-4179427Y24656000D01*
X-4185702Y24719711D01*
X-4204286Y24780974D01*
X-4234464Y24837434D01*
X-4275078Y24886922D01*
X-4324566Y24927536D01*
X-4381026Y24957714D01*
X-4442289Y24976298D01*
X-4506000Y24982573D01*
X-4719750Y24981000D01*
X-4801000Y24899750D01*
X-4851000Y24899750D01*
X-4932250Y24981000D01*
X-5146000Y24982573D01*
X-5209711Y24976298D01*
X-5270974Y24957714D01*
X-5327434Y24927536D01*
X-5330770Y24924798D01*
X-5339078Y24934922D01*
X-5388566Y24975536D01*
X-5445026Y25005714D01*
X-5506289Y25024298D01*
X-5570000Y25030573D01*
X-5758750Y25029000D01*
X-5840000Y24947750D01*
X-5890000Y24947750D01*
X-5971250Y25029000D01*
X-6160000Y25030573D01*
X-6223711Y25024298D01*
X-6284974Y25005714D01*
X-6341434Y24975536D01*
X-6390922Y24934922D01*
X-6428277Y24889406D01*
X-6452033Y24908902D01*
X-6525307Y24948068D01*
X-6604815Y24972186D01*
X-6687500Y24980330D01*
X-6982500Y24980330D01*
X-7065185Y24972186D01*
X-7144693Y24948068D01*
X-7217967Y24908902D01*
X-7282193Y24856193D01*
X-7334902Y24791967D01*
X-7363728Y24738038D01*
X-7383200Y24732131D01*
X-7415774Y24714720D01*
X-7448346Y24697310D01*
X-7448348Y24697309D01*
X-7448347Y24697309D01*
X-7505448Y24650448D01*
X-7517195Y24636134D01*
X-7620000Y24533329D01*
X-7722805Y24636134D01*
X-7734552Y24650448D01*
X-7791653Y24697309D01*
X-7856800Y24732131D01*
X-7876272Y24738038D01*
X-7905098Y24791967D01*
X-7957807Y24856193D01*
X-8022033Y24908902D01*
X-8095307Y24948068D01*
X-8174815Y24972186D01*
X-8257500Y24980330D01*
X-8552500Y24980330D01*
X-8635185Y24972186D01*
X-8714693Y24948068D01*
X-8787967Y24908902D01*
X-8811723Y24889406D01*
X-8849078Y24934922D01*
X-8898566Y24975536D01*
X-8955026Y25005714D01*
X-9016289Y25024298D01*
X-9080000Y25030573D01*
X-9268750Y25029000D01*
X-9350000Y24947750D01*
X-9350000Y24409000D01*
X-9330000Y24409000D01*
X-9330000Y24359000D01*
X-9350000Y24359000D01*
X-9350000Y24339000D01*
X-9400000Y24339000D01*
X-9400000Y24359000D01*
X-9420000Y24359000D01*
X-9420000Y24409000D01*
X-9400000Y24409000D01*
X-9400000Y24947750D01*
X-9481250Y25029000D01*
X-9618527Y25030144D01*
X-9242670Y25406000D01*
X-4092329Y25406000D01*
X-3672734Y24986405D01*
G37*
%TD.AperFunction*%
%TD*%
D31*
X-8382000Y2921000D03*
X-6858000Y2921000D03*
X-6350000Y2032000D03*
X-8890000Y2032000D03*
X-4318000Y10414000D03*
X-8255000Y6350000D03*
X-10033000Y6096000D03*
X-12192000Y4064000D03*
X-8128000Y11176000D03*
X-6985000Y10160000D03*
X-1143000Y16510000D03*
X-5461000Y11557000D03*
X-6604000Y12700000D03*
X-5715000Y8890000D03*
X-9525000Y7620000D03*
X-7620000Y6985000D03*
X-6985000Y7620000D03*
X-6350000Y8255000D03*
X-7620000Y9525000D03*
X-8255000Y8890000D03*
X-8890000Y8255000D03*
X-5715000Y6350000D03*
X-5080000Y6985000D03*
X-4445000Y12573000D03*
X-3429000Y2159000D03*
X-11811000Y2159000D03*
X-4318000Y15367000D03*
X-7747000Y13843000D03*
X-12192000Y5969000D03*
X-3429000Y6096000D03*
X-9461500Y19748500D03*
X-10287000Y15240000D03*
X-10287000Y10795000D03*
X-8890000Y16383000D03*
X-6604000Y14859000D03*
X-5715000Y13970000D03*
X-5461000Y16383000D03*
X-4826000Y18796000D03*
X-8890000Y25146000D03*
X-7747000Y25146000D03*
X-3810000Y22860000D03*
X-11049000Y19685000D03*
X-13970000Y24130000D03*
X-13970000Y26670000D03*
X-1270000Y26670000D03*
X-1270000Y19050000D03*
X-11049000Y22098000D03*
X-11684000Y17653000D03*
X-11051006Y8130000D03*
X-6858000Y24384000D03*
X-8890000Y17780000D03*
X-4445000Y20955000D03*
X-10541000Y22860000D03*
X-10160000Y19304000D03*
X-5241283Y21116338D03*
X-9398000Y23622000D03*
X-9715500Y13271500D03*
X-3810000Y4318000D03*
X-1270000Y6350000D03*
X-9779000Y14224000D03*
X-2870000Y13630000D03*
X-5715000Y18224500D03*
X-6985000Y18234490D03*
X-2870000Y14730000D03*
D32*
X0Y0D03*
X0Y2540000D03*
X0Y5080000D03*
X-15240000Y27940000D03*
X0Y7620000D03*
X-15240000Y25400000D03*
X0Y10160000D03*
X-15240000Y22860000D03*
X0Y12700000D03*
X-15240000Y20320000D03*
X0Y15240000D03*
X-15240000Y17780000D03*
X0Y17780000D03*
X-15240000Y15240000D03*
X0Y20320000D03*
X-15240000Y12700000D03*
X0Y22860000D03*
X-15240000Y10160000D03*
X0Y25400000D03*
X-15240000Y7620000D03*
X0Y27940000D03*
X-15240000Y5080000D03*
X-15240000Y2540000D03*
X-15240000Y0D03*
X-7620000Y27305000D03*
X-12700000Y21590000D03*
M02*
