%TF.GenerationSoftware,KiCad,Pcbnew,5.1.6+dfsg1-1~bpo10+1*%
%TF.CreationDate,Date%
%TF.ProjectId,ProMicro_POS,50726f4d-6963-4726-9f5f-504f532e6b69,v3.2*%
%TF.SameCoordinates,Original*%
%TF.FileFunction,Other,Fab,Top*%
%FSLAX45Y45*%
G04 Gerber Fmt 4.5, Leading zero omitted, Abs format (unit mm)*
G04 Created by KiCad*
%MOMM*%
%LPD*%
G01*
G04 APERTURE LIST*
%TA.AperFunction,Profile*%
%ADD10C,0.100000*%
%TD*%
%ADD11C,0.100000*%
%ADD12C,0.150000*%
%ADD13C,0.040000*%
%ADD14C,0.075000*%
%ADD15C,0.060000*%
G04 APERTURE END LIST*
D10*
X127000Y2857500D02*
X127000Y-63500D01*
X-1587500Y-127000D02*
G75*
G02*
X-1651000Y-63500I0J63500D01*
G01*
X-1651000Y2857500D02*
G75*
G02*
X-1587500Y2921000I63500J0D01*
G01*
X63500Y2921000D02*
G75*
G02*
X127000Y2857500I0J-63500D01*
G01*
X127000Y-63500D02*
G75*
G02*
X63500Y-127000I-63500J0D01*
G01*
X-1587500Y2921000D02*
X63500Y2921000D01*
X-1651000Y-63500D02*
X-1651000Y2857500D01*
X63500Y-127000D02*
X-1587500Y-127000D01*
D11*
X-1651000Y2921000D02*
X127000Y2921000D01*
X127000Y2921000D02*
X127000Y-292100D01*
X38100Y-381000D02*
X127000Y-292100D01*
X38100Y-381000D02*
X-1651000Y-381000D01*
X-1651000Y-381000D02*
X-1651000Y2921000D01*
X-673500Y1728000D02*
X-723500Y1728000D01*
X-723500Y1728000D02*
X-723500Y1828000D01*
X-723500Y1828000D02*
X-673500Y1828000D01*
X-673500Y1828000D02*
X-673500Y1728000D01*
X-546500Y1728000D02*
X-596500Y1728000D01*
X-596500Y1728000D02*
X-596500Y1828000D01*
X-596500Y1828000D02*
X-546500Y1828000D01*
X-546500Y1828000D02*
X-546500Y1728000D01*
X-471000Y2005500D02*
X-536000Y2070500D01*
X-536000Y2185500D02*
X-536000Y2070500D01*
X-471000Y2005500D02*
X-226000Y2005500D01*
X-226000Y2185500D02*
X-226000Y2005500D01*
X-536000Y2185500D02*
X-226000Y2185500D01*
X-457600Y2337600D02*
X-507600Y2337600D01*
X-507600Y2337600D02*
X-507600Y2437600D01*
X-507600Y2437600D02*
X-457600Y2437600D01*
X-457600Y2437600D02*
X-457600Y2337600D01*
X-127400Y2109000D02*
X-177400Y2109000D01*
X-177400Y2109000D02*
X-177400Y2209000D01*
X-177400Y2209000D02*
X-127400Y2209000D01*
X-127400Y2209000D02*
X-127400Y2109000D01*
X-850500Y1828000D02*
X-800500Y1828000D01*
X-800500Y1828000D02*
X-800500Y1728000D01*
X-800500Y1728000D02*
X-850500Y1728000D01*
X-850500Y1728000D02*
X-850500Y1828000D01*
X-977500Y1828000D02*
X-927500Y1828000D01*
X-927500Y1828000D02*
X-927500Y1728000D01*
X-927500Y1728000D02*
X-977500Y1728000D01*
X-977500Y1728000D02*
X-977500Y1828000D01*
X-1041000Y2209000D02*
X-991000Y2209000D01*
X-991000Y2209000D02*
X-991000Y2109000D01*
X-991000Y2109000D02*
X-1041000Y2109000D01*
X-1041000Y2109000D02*
X-1041000Y2209000D01*
X-1155300Y409500D02*
X-1155300Y509500D01*
X-1105300Y409500D02*
X-1155300Y409500D01*
X-1105300Y509500D02*
X-1105300Y409500D01*
X-1155300Y509500D02*
X-1105300Y509500D01*
X-685000Y2413400D02*
X-685000Y2463400D01*
X-685000Y2463400D02*
X-585000Y2463400D01*
X-585000Y2463400D02*
X-585000Y2413400D01*
X-585000Y2413400D02*
X-685000Y2413400D01*
X-839000Y2463400D02*
X-839000Y2413400D01*
X-839000Y2413400D02*
X-939000Y2413400D01*
X-939000Y2413400D02*
X-939000Y2463400D01*
X-939000Y2463400D02*
X-839000Y2463400D01*
D12*
X-712000Y2009000D02*
X-912000Y2009000D01*
X-912000Y2009000D02*
X-912000Y2309000D01*
X-912000Y2309000D02*
X-612000Y2309000D01*
X-612000Y2309000D02*
X-612000Y2109000D01*
X-612000Y2109000D02*
X-712000Y2009000D01*
D11*
X-912000Y106000D02*
X-892000Y106000D01*
X-892000Y106000D02*
X-892000Y146000D01*
X-792000Y146000D02*
X-892000Y146000D01*
X-792000Y171000D02*
X-792000Y146000D01*
X-792000Y171000D02*
X-747000Y171000D01*
X-732000Y156000D02*
X-732000Y146000D01*
X-732000Y146000D02*
X-632000Y146000D01*
X-612000Y106000D02*
X-632000Y106000D01*
X-632000Y106000D02*
X-632000Y146000D01*
X-912000Y106000D02*
X-912000Y-74000D01*
X-912000Y-74000D02*
X-892000Y-74000D01*
X-892000Y-114000D02*
X-892000Y-74000D01*
X-632000Y-114000D02*
X-892000Y-114000D01*
X-612000Y106000D02*
X-612000Y-74000D01*
X-612000Y-74000D02*
X-632000Y-74000D01*
X-632000Y-114000D02*
X-632000Y-74000D01*
X-732000Y156000D02*
X-747000Y171000D01*
X-1104500Y1828000D02*
X-1054500Y1828000D01*
X-1054500Y1828000D02*
X-1054500Y1728000D01*
X-1054500Y1728000D02*
X-1104500Y1728000D01*
X-1104500Y1728000D02*
X-1104500Y1828000D01*
X-1310000Y1921500D02*
X-1310000Y1791500D01*
X-1310000Y1791500D02*
X-1280000Y1761500D01*
X-1280000Y1761500D02*
X-1230000Y1761500D01*
X-1230000Y1761500D02*
X-1230000Y1921500D01*
X-1230000Y1921500D02*
X-1310000Y1921500D01*
X-1373500Y509250D02*
X-1293500Y509250D01*
X-1293500Y509250D02*
X-1293500Y349250D01*
X-1293500Y349250D02*
X-1373500Y349250D01*
X-1373500Y349250D02*
X-1373500Y509250D01*
X-902500Y483000D02*
X-1002500Y483000D01*
X-902500Y533000D02*
X-902500Y483000D01*
X-1002500Y533000D02*
X-902500Y533000D01*
X-1002500Y483000D02*
X-1002500Y533000D01*
X-902500Y356000D02*
X-1002500Y356000D01*
X-902500Y406000D02*
X-902500Y356000D01*
X-1002500Y406000D02*
X-902500Y406000D01*
X-1002500Y356000D02*
X-1002500Y406000D01*
X-737000Y394500D02*
X-787000Y394500D01*
X-787000Y394500D02*
X-787000Y494500D01*
X-787000Y494500D02*
X-737000Y494500D01*
X-737000Y494500D02*
X-737000Y394500D01*
X-621500Y356000D02*
X-621500Y406000D01*
X-621500Y406000D02*
X-521500Y406000D01*
X-521500Y406000D02*
X-521500Y356000D01*
X-521500Y356000D02*
X-621500Y356000D01*
X-621500Y483000D02*
X-621500Y533000D01*
X-621500Y533000D02*
X-521500Y533000D01*
X-521500Y533000D02*
X-521500Y483000D01*
X-521500Y483000D02*
X-621500Y483000D01*
X-762000Y-246500D02*
X-837000Y-146500D01*
X-687000Y-146500D02*
X-762000Y-246500D01*
X-445500Y-1098500D02*
X-1078500Y-1098500D01*
X-444500Y234500D02*
X-444500Y-1098500D01*
X-444500Y234500D02*
X-525500Y234500D01*
X-525500Y234500D02*
X-525500Y-146500D01*
X-525500Y-146500D02*
X-998500Y-146500D01*
X-998500Y-146500D02*
X-998500Y234500D01*
X-998500Y234500D02*
X-1079500Y234500D01*
X-1079500Y234500D02*
X-1079500Y-1098500D01*
X-1247000Y1618000D02*
X-1147000Y1583000D01*
X-1147000Y1583000D02*
X-1247000Y1548000D01*
X-1247000Y638000D02*
X-277000Y638000D01*
X-1247000Y1648000D02*
X-277000Y1648000D01*
X-277000Y1648000D02*
X-277000Y638000D01*
X-1247000Y1648000D02*
X-1247000Y638000D01*
D12*
X-592933Y1325572D02*
X-592933Y1373191D01*
X-564362Y1316048D02*
X-664362Y1349381D01*
X-564362Y1382714D01*
X-564362Y1468429D02*
X-564362Y1411286D01*
X-564362Y1439857D02*
X-664362Y1439857D01*
X-650076Y1430333D01*
X-640552Y1420810D01*
X-635791Y1411286D01*
D13*
X-687191Y1773833D02*
X-699095Y1765500D01*
X-687191Y1759548D02*
X-712190Y1759548D01*
X-712190Y1769071D01*
X-711000Y1771452D01*
X-709810Y1772643D01*
X-707429Y1773833D01*
X-703857Y1773833D01*
X-701476Y1772643D01*
X-700286Y1771452D01*
X-699095Y1769071D01*
X-699095Y1759548D01*
X-712190Y1796452D02*
X-712190Y1784548D01*
X-700286Y1783357D01*
X-701476Y1784548D01*
X-702667Y1786929D01*
X-702667Y1792881D01*
X-701476Y1795262D01*
X-700286Y1796452D01*
X-697905Y1797643D01*
X-691952Y1797643D01*
X-689572Y1796452D01*
X-688381Y1795262D01*
X-687191Y1792881D01*
X-687191Y1786929D01*
X-688381Y1784548D01*
X-689572Y1783357D01*
X-560191Y1773833D02*
X-572095Y1765500D01*
X-560191Y1759548D02*
X-585191Y1759548D01*
X-585191Y1769071D01*
X-584000Y1771452D01*
X-582810Y1772643D01*
X-580429Y1773833D01*
X-576857Y1773833D01*
X-574476Y1772643D01*
X-573286Y1771452D01*
X-572095Y1769071D01*
X-572095Y1759548D01*
X-576857Y1795262D02*
X-560191Y1795262D01*
X-586381Y1789310D02*
X-568524Y1783357D01*
X-568524Y1798833D01*
D14*
X-419095Y2122881D02*
X-419095Y2082405D01*
X-416714Y2077643D01*
X-414333Y2075262D01*
X-409571Y2072881D01*
X-400048Y2072881D01*
X-395286Y2075262D01*
X-392905Y2077643D01*
X-390524Y2082405D01*
X-390524Y2122881D01*
X-369095Y2118119D02*
X-366714Y2120500D01*
X-361952Y2122881D01*
X-350048Y2122881D01*
X-345286Y2120500D01*
X-342905Y2118119D01*
X-340524Y2113357D01*
X-340524Y2108595D01*
X-342905Y2101452D01*
X-371476Y2072881D01*
X-340524Y2072881D01*
D13*
X-473671Y2383433D02*
X-472481Y2382243D01*
X-471290Y2378672D01*
X-471290Y2376291D01*
X-472481Y2372719D01*
X-474862Y2370338D01*
X-477243Y2369148D01*
X-482005Y2367957D01*
X-485576Y2367957D01*
X-490338Y2369148D01*
X-492719Y2370338D01*
X-495100Y2372719D01*
X-496290Y2376291D01*
X-496290Y2378672D01*
X-495100Y2382243D01*
X-493910Y2383433D01*
X-496290Y2391767D02*
X-496290Y2407243D01*
X-486767Y2398910D01*
X-486767Y2402481D01*
X-485576Y2404862D01*
X-484386Y2406052D01*
X-482005Y2407243D01*
X-476052Y2407243D01*
X-473671Y2406052D01*
X-472481Y2404862D01*
X-471290Y2402481D01*
X-471290Y2395338D01*
X-472481Y2392957D01*
X-473671Y2391767D01*
X-143472Y2154833D02*
X-142281Y2153643D01*
X-141091Y2150072D01*
X-141091Y2147691D01*
X-142281Y2144119D01*
X-144662Y2141738D01*
X-147043Y2140548D01*
X-151805Y2139357D01*
X-155376Y2139357D01*
X-160138Y2140548D01*
X-162519Y2141738D01*
X-164900Y2144119D01*
X-166091Y2147691D01*
X-166091Y2150072D01*
X-164900Y2153643D01*
X-163710Y2154833D01*
X-163710Y2164357D02*
X-164900Y2165548D01*
X-166091Y2167929D01*
X-166091Y2173881D01*
X-164900Y2176262D01*
X-163710Y2177452D01*
X-161329Y2178643D01*
X-158948Y2178643D01*
X-155376Y2177452D01*
X-141091Y2163167D01*
X-141091Y2178643D01*
X-816571Y1773833D02*
X-815381Y1772643D01*
X-814190Y1769071D01*
X-814190Y1766690D01*
X-815381Y1763119D01*
X-817762Y1760738D01*
X-820143Y1759548D01*
X-824905Y1758357D01*
X-828476Y1758357D01*
X-833238Y1759548D01*
X-835619Y1760738D01*
X-838000Y1763119D01*
X-839190Y1766690D01*
X-839190Y1769071D01*
X-838000Y1772643D01*
X-836810Y1773833D01*
X-814190Y1797643D02*
X-814190Y1783357D01*
X-814190Y1790500D02*
X-839190Y1790500D01*
X-835619Y1788119D01*
X-833238Y1785738D01*
X-832048Y1783357D01*
X-943571Y1773833D02*
X-942381Y1772643D01*
X-941190Y1769071D01*
X-941190Y1766690D01*
X-942381Y1763119D01*
X-944762Y1760738D01*
X-947143Y1759548D01*
X-951905Y1758357D01*
X-955476Y1758357D01*
X-960238Y1759548D01*
X-962619Y1760738D01*
X-965000Y1763119D01*
X-966190Y1766690D01*
X-966190Y1769071D01*
X-965000Y1772643D01*
X-963810Y1773833D01*
X-957857Y1795262D02*
X-941190Y1795262D01*
X-967381Y1789310D02*
X-949524Y1783357D01*
X-949524Y1798833D01*
X-1007071Y2154833D02*
X-1005881Y2153643D01*
X-1004690Y2150072D01*
X-1004690Y2147691D01*
X-1005881Y2144119D01*
X-1008262Y2141738D01*
X-1010643Y2140548D01*
X-1015405Y2139357D01*
X-1018976Y2139357D01*
X-1023738Y2140548D01*
X-1026119Y2141738D01*
X-1028500Y2144119D01*
X-1029690Y2147691D01*
X-1029690Y2150072D01*
X-1028500Y2153643D01*
X-1027310Y2154833D01*
X-1029690Y2163167D02*
X-1029690Y2179833D01*
X-1004690Y2169119D01*
X-1121372Y455333D02*
X-1120181Y454143D01*
X-1118991Y450571D01*
X-1118991Y448190D01*
X-1120181Y444619D01*
X-1122562Y442238D01*
X-1124943Y441048D01*
X-1129705Y439857D01*
X-1133276Y439857D01*
X-1138038Y441048D01*
X-1140419Y442238D01*
X-1142800Y444619D01*
X-1143991Y448190D01*
X-1143991Y450571D01*
X-1142800Y454143D01*
X-1141610Y455333D01*
X-1118991Y467238D02*
X-1118991Y472000D01*
X-1120181Y474381D01*
X-1121372Y475571D01*
X-1124943Y477952D01*
X-1129705Y479143D01*
X-1139229Y479143D01*
X-1141610Y477952D01*
X-1142800Y476762D01*
X-1143991Y474381D01*
X-1143991Y469619D01*
X-1142800Y467238D01*
X-1141610Y466048D01*
X-1139229Y464857D01*
X-1133276Y464857D01*
X-1130895Y466048D01*
X-1129705Y467238D01*
X-1128514Y469619D01*
X-1128514Y474381D01*
X-1129705Y476762D01*
X-1130895Y477952D01*
X-1133276Y479143D01*
X-639167Y2429472D02*
X-640357Y2428281D01*
X-643929Y2427091D01*
X-646310Y2427091D01*
X-649881Y2428281D01*
X-652262Y2430662D01*
X-653452Y2433043D01*
X-654643Y2437805D01*
X-654643Y2441376D01*
X-653452Y2446138D01*
X-652262Y2448519D01*
X-649881Y2450900D01*
X-646310Y2452091D01*
X-643929Y2452091D01*
X-640357Y2450900D01*
X-639167Y2449710D01*
X-617738Y2452091D02*
X-622500Y2452091D01*
X-624881Y2450900D01*
X-626072Y2449710D01*
X-628452Y2446138D01*
X-629643Y2441376D01*
X-629643Y2431852D01*
X-628452Y2429472D01*
X-627262Y2428281D01*
X-624881Y2427091D01*
X-620119Y2427091D01*
X-617738Y2428281D01*
X-616548Y2429472D01*
X-615357Y2431852D01*
X-615357Y2437805D01*
X-616548Y2440186D01*
X-617738Y2441376D01*
X-620119Y2442567D01*
X-624881Y2442567D01*
X-627262Y2441376D01*
X-628452Y2440186D01*
X-629643Y2437805D01*
X-893167Y2429472D02*
X-894357Y2428281D01*
X-897929Y2427091D01*
X-900310Y2427091D01*
X-903881Y2428281D01*
X-906262Y2430662D01*
X-907452Y2433043D01*
X-908643Y2437805D01*
X-908643Y2441376D01*
X-907452Y2446138D01*
X-906262Y2448519D01*
X-903881Y2450900D01*
X-900310Y2452091D01*
X-897929Y2452091D01*
X-894357Y2450900D01*
X-893167Y2449710D01*
X-870548Y2452091D02*
X-882452Y2452091D01*
X-883643Y2440186D01*
X-882452Y2441376D01*
X-880071Y2442567D01*
X-874119Y2442567D01*
X-871738Y2441376D01*
X-870548Y2440186D01*
X-869357Y2437805D01*
X-869357Y2431852D01*
X-870548Y2429472D01*
X-871738Y2428281D01*
X-874119Y2427091D01*
X-880071Y2427091D01*
X-882452Y2428281D01*
X-883643Y2429472D01*
X-781048Y2172691D02*
X-781048Y2152452D01*
X-779857Y2150072D01*
X-778667Y2148881D01*
X-776286Y2147691D01*
X-771524Y2147691D01*
X-769143Y2148881D01*
X-767952Y2150072D01*
X-766762Y2152452D01*
X-766762Y2172691D01*
X-741762Y2147691D02*
X-756048Y2147691D01*
X-748905Y2147691D02*
X-748905Y2172691D01*
X-751286Y2169119D01*
X-753667Y2166738D01*
X-756048Y2165548D01*
X-1068191Y1773833D02*
X-1080095Y1765500D01*
X-1068191Y1759548D02*
X-1093191Y1759548D01*
X-1093191Y1769071D01*
X-1092000Y1771452D01*
X-1090810Y1772643D01*
X-1088429Y1773833D01*
X-1084857Y1773833D01*
X-1082476Y1772643D01*
X-1081286Y1771452D01*
X-1080095Y1769071D01*
X-1080095Y1759548D01*
X-1093191Y1782167D02*
X-1093191Y1797643D01*
X-1083667Y1789310D01*
X-1083667Y1792881D01*
X-1082476Y1795262D01*
X-1081286Y1796452D01*
X-1078905Y1797643D01*
X-1072952Y1797643D01*
X-1070572Y1796452D01*
X-1069381Y1795262D01*
X-1068191Y1792881D01*
X-1068191Y1785738D01*
X-1069381Y1783357D01*
X-1070572Y1782167D01*
D15*
X-1251905Y1811976D02*
X-1291905Y1811976D01*
X-1291905Y1821500D01*
X-1290000Y1827214D01*
X-1286191Y1831024D01*
X-1282381Y1832929D01*
X-1274762Y1834833D01*
X-1269048Y1834833D01*
X-1261429Y1832929D01*
X-1257619Y1831024D01*
X-1253810Y1827214D01*
X-1251905Y1821500D01*
X-1251905Y1811976D01*
X-1251905Y1872929D02*
X-1251905Y1850071D01*
X-1251905Y1861500D02*
X-1291905Y1861500D01*
X-1286191Y1857690D01*
X-1282381Y1853881D01*
X-1280476Y1850071D01*
X-1319214Y422583D02*
X-1317310Y420679D01*
X-1315405Y414964D01*
X-1315405Y411155D01*
X-1317310Y405440D01*
X-1321119Y401631D01*
X-1324929Y399726D01*
X-1332548Y397821D01*
X-1338262Y397821D01*
X-1345881Y399726D01*
X-1349691Y401631D01*
X-1353500Y405440D01*
X-1355405Y411155D01*
X-1355405Y414964D01*
X-1353500Y420679D01*
X-1351595Y422583D01*
X-1338262Y445440D02*
X-1340167Y441631D01*
X-1342072Y439726D01*
X-1345881Y437821D01*
X-1347786Y437821D01*
X-1351595Y439726D01*
X-1353500Y441631D01*
X-1355405Y445440D01*
X-1355405Y453060D01*
X-1353500Y456869D01*
X-1351595Y458774D01*
X-1347786Y460679D01*
X-1345881Y460679D01*
X-1342072Y458774D01*
X-1340167Y456869D01*
X-1338262Y453060D01*
X-1338262Y445440D01*
X-1336357Y441631D01*
X-1334452Y439726D01*
X-1330643Y437821D01*
X-1323024Y437821D01*
X-1319214Y439726D01*
X-1317310Y441631D01*
X-1315405Y445440D01*
X-1315405Y453060D01*
X-1317310Y456869D01*
X-1319214Y458774D01*
X-1323024Y460679D01*
X-1330643Y460679D01*
X-1334452Y458774D01*
X-1336357Y456869D01*
X-1338262Y453060D01*
D13*
X-956667Y496690D02*
X-965000Y508595D01*
X-970952Y496690D02*
X-970952Y521690D01*
X-961429Y521690D01*
X-959048Y520500D01*
X-957857Y519310D01*
X-956667Y516929D01*
X-956667Y513357D01*
X-957857Y510976D01*
X-959048Y509786D01*
X-961429Y508595D01*
X-970952Y508595D01*
X-932857Y496690D02*
X-947143Y496690D01*
X-940000Y496690D02*
X-940000Y521690D01*
X-942381Y518119D01*
X-944762Y515738D01*
X-947143Y514548D01*
X-956667Y369690D02*
X-968571Y369690D01*
X-968571Y394690D01*
X-935238Y369690D02*
X-949524Y369690D01*
X-942381Y369690D02*
X-942381Y394690D01*
X-944762Y391119D01*
X-947143Y388738D01*
X-949524Y387548D01*
X-750690Y440333D02*
X-762595Y432000D01*
X-750690Y426048D02*
X-775690Y426048D01*
X-775690Y435571D01*
X-774500Y437952D01*
X-773310Y439143D01*
X-770929Y440333D01*
X-767357Y440333D01*
X-764976Y439143D01*
X-763786Y437952D01*
X-762595Y435571D01*
X-762595Y426048D01*
X-773310Y449857D02*
X-774500Y451048D01*
X-775690Y453429D01*
X-775690Y459381D01*
X-774500Y461762D01*
X-773310Y462952D01*
X-770929Y464143D01*
X-768548Y464143D01*
X-764976Y462952D01*
X-750690Y448667D01*
X-750690Y464143D01*
X-587572Y372071D02*
X-588762Y370881D01*
X-592333Y369690D01*
X-594714Y369690D01*
X-598286Y370881D01*
X-600667Y373262D01*
X-601857Y375643D01*
X-603048Y380405D01*
X-603048Y383976D01*
X-601857Y388738D01*
X-600667Y391119D01*
X-598286Y393500D01*
X-594714Y394690D01*
X-592333Y394690D01*
X-588762Y393500D01*
X-587572Y392310D01*
X-563762Y369690D02*
X-578048Y369690D01*
X-570905Y369690D02*
X-570905Y394690D01*
X-573286Y391119D01*
X-575667Y388738D01*
X-578048Y387548D01*
X-539952Y369690D02*
X-554238Y369690D01*
X-547095Y369690D02*
X-547095Y394690D01*
X-549476Y391119D01*
X-551857Y388738D01*
X-554238Y387548D01*
X-587572Y499071D02*
X-588762Y497881D01*
X-592333Y496690D01*
X-594714Y496690D01*
X-598286Y497881D01*
X-600667Y500262D01*
X-601857Y502643D01*
X-603048Y507405D01*
X-603048Y510976D01*
X-601857Y515738D01*
X-600667Y518119D01*
X-598286Y520500D01*
X-594714Y521690D01*
X-592333Y521690D01*
X-588762Y520500D01*
X-587572Y519310D01*
X-563762Y496690D02*
X-578048Y496690D01*
X-570905Y496690D02*
X-570905Y521690D01*
X-573286Y518119D01*
X-575667Y515738D01*
X-578048Y514548D01*
X-548286Y521690D02*
X-545905Y521690D01*
X-543524Y520500D01*
X-542333Y519310D01*
X-541143Y516929D01*
X-539952Y512167D01*
X-539952Y506214D01*
X-541143Y501452D01*
X-542333Y499071D01*
X-543524Y497881D01*
X-545905Y496690D01*
X-548286Y496690D01*
X-550667Y497881D01*
X-551857Y499071D01*
X-553048Y501452D01*
X-554238Y506214D01*
X-554238Y512167D01*
X-553048Y516929D01*
X-551857Y519310D01*
X-550667Y520500D01*
X-548286Y521690D01*
D15*
X-792476Y1164905D02*
X-792476Y1132524D01*
X-790571Y1128714D01*
X-788667Y1126810D01*
X-784857Y1124905D01*
X-777238Y1124905D01*
X-773429Y1126810D01*
X-771524Y1128714D01*
X-769619Y1132524D01*
X-769619Y1164905D01*
X-754381Y1164905D02*
X-729619Y1164905D01*
X-742952Y1149667D01*
X-737238Y1149667D01*
X-733429Y1147762D01*
X-731524Y1145857D01*
X-729619Y1142048D01*
X-729619Y1132524D01*
X-731524Y1128714D01*
X-733429Y1126810D01*
X-737238Y1124905D01*
X-748667Y1124905D01*
X-752476Y1126810D01*
X-754381Y1128714D01*
M02*
