%TF.GenerationSoftware,KiCad,Pcbnew,5.1.7+dfsg1-1~bpo10+1*%
%TF.CreationDate,Date%
%TF.ProjectId,ProMicro_POS,50726f4d-6963-4726-9f5f-504f532e6b69,v3.3*%
%TF.SameCoordinates,Original*%
%TF.FileFunction,Plated,1,4,PTH,Drill*%
%TF.FilePolarity,Positive*%
%FSLAX46Y46*%
G04 Gerber Fmt 4.6, Leading zero omitted, Abs format (unit mm)*
G04 Created by KiCad*
%MOMM*%
%LPD*%
G01*
G04 APERTURE LIST*
%TA.AperFunction,ViaDrill*%
%ADD10C,0.200000*%
%TD*%
%TA.AperFunction,ComponentDrill*%
%ADD11C,0.600000*%
%TD*%
%TA.AperFunction,ComponentDrill*%
%ADD12C,0.700000*%
%TD*%
%TA.AperFunction,ComponentDrill*%
%ADD13C,1.400000*%
%TD*%
G04 APERTURE END LIST*
D10*
X-13970000Y26670000D03*
X-13970000Y24130000D03*
X-12192000Y5969000D03*
X-12192000Y4064000D03*
X-11811000Y2159000D03*
X-11684000Y17653000D03*
X-11051006Y8130000D03*
X-11049000Y22098000D03*
X-11049000Y19685000D03*
X-10541000Y22860000D03*
X-10287000Y15240000D03*
X-10287000Y10795000D03*
X-10160000Y19304000D03*
X-10033000Y6096000D03*
X-9779000Y14224000D03*
X-9715500Y13271500D03*
X-9525000Y7620000D03*
X-9461500Y19748500D03*
X-9398000Y23622000D03*
X-8890000Y25146000D03*
X-8890000Y17780000D03*
X-8890000Y16383000D03*
X-8890000Y8255000D03*
X-8890000Y2032000D03*
X-8382000Y2921000D03*
X-8255000Y8890000D03*
X-8255000Y6350000D03*
X-8128000Y11176000D03*
X-7747000Y25146000D03*
X-7747000Y13843000D03*
X-7620000Y9525000D03*
X-7620000Y6985000D03*
X-6985000Y18234490D03*
X-6985000Y10160000D03*
X-6985000Y7620000D03*
X-6858000Y24384000D03*
X-6858000Y2921000D03*
X-6604000Y14859000D03*
X-6604000Y12700000D03*
X-6350000Y8255000D03*
X-6350000Y2032000D03*
X-5715000Y18224500D03*
X-5715000Y13970000D03*
X-5715000Y8890000D03*
X-5715000Y6350000D03*
X-5461000Y16383000D03*
X-5461000Y11557000D03*
X-5241283Y21116338D03*
X-5080000Y6985000D03*
X-4826000Y18796000D03*
X-4445000Y20955000D03*
X-4445000Y12573000D03*
X-4318000Y15367000D03*
X-4318000Y10414000D03*
X-3810000Y22860000D03*
X-3810000Y4318000D03*
X-3429000Y6096000D03*
X-3429000Y2159000D03*
X-2870000Y14730000D03*
X-2870000Y13630000D03*
X-1270000Y26670000D03*
X-1270000Y19050000D03*
X-1270000Y6350000D03*
X-1143000Y16510000D03*
D11*
%TO.C,H2*%
X-7620000Y27305000D03*
D12*
%TO.C,TP4*%
X-12700000Y21590000D03*
D13*
%TO.C,A1*%
X-15240000Y27940000D03*
X-15240000Y25400000D03*
X-15240000Y22860000D03*
X-15240000Y20320000D03*
X-15240000Y17780000D03*
X-15240000Y15240000D03*
X-15240000Y12700000D03*
X-15240000Y10160000D03*
X-15240000Y7620000D03*
X-15240000Y5080000D03*
X-15240000Y2540000D03*
X-15240000Y0D03*
X0Y27940000D03*
X0Y25400000D03*
X0Y22860000D03*
X0Y20320000D03*
X0Y17780000D03*
X0Y15240000D03*
X0Y12700000D03*
X0Y10160000D03*
X0Y7620000D03*
X0Y5080000D03*
X0Y2540000D03*
X0Y0D03*
M02*
