%TF.GenerationSoftware,KiCad,Pcbnew,5.1.7+dfsg1-1~bpo10+1*%
%TF.CreationDate,Date%
%TF.ProjectId,ProMicro_POS,50726f4d-6963-4726-9f5f-504f532e6b69,v3.3*%
%TF.SameCoordinates,Original*%
%TF.FileFunction,Other,Fab,Top*%
%FSLAX46Y46*%
G04 Gerber Fmt 4.6, Leading zero omitted, Abs format (unit mm)*
G04 Created by KiCad*
%MOMM*%
%LPD*%
G01*
G04 APERTURE LIST*
%ADD10C,0.100000*%
%ADD11C,0.150000*%
%ADD12C,0.040000*%
%ADD13C,0.075000*%
%ADD14C,0.060000*%
G04 APERTURE END LIST*
D10*
%TO.C,A1*%
X-16510000Y29210000D02*
X1270000Y29210000D01*
X1270000Y29210000D02*
X1270000Y-2921000D01*
X381000Y-3810000D02*
X1270000Y-2921000D01*
X381000Y-3810000D02*
X-16510000Y-3810000D01*
X-16510000Y-3810000D02*
X-16510000Y29210000D01*
%TO.C,R5*%
X-5465000Y17280000D02*
X-5965000Y17280000D01*
X-5965000Y17280000D02*
X-5965000Y18280000D01*
X-5965000Y18280000D02*
X-5465000Y18280000D01*
X-5465000Y18280000D02*
X-5465000Y17280000D01*
%TO.C,R4*%
X-6735000Y17280000D02*
X-7235000Y17280000D01*
X-7235000Y17280000D02*
X-7235000Y18280000D01*
X-7235000Y18280000D02*
X-6735000Y18280000D01*
X-6735000Y18280000D02*
X-6735000Y17280000D01*
%TO.C,U2*%
X-4710000Y20055000D02*
X-5360000Y20705000D01*
X-5360000Y21855000D02*
X-5360000Y20705000D01*
X-4710000Y20055000D02*
X-2260000Y20055000D01*
X-2260000Y21855000D02*
X-2260000Y20055000D01*
X-5360000Y21855000D02*
X-2260000Y21855000D01*
%TO.C,C3*%
X-4576000Y23376000D02*
X-5076000Y23376000D01*
X-5076000Y23376000D02*
X-5076000Y24376000D01*
X-5076000Y24376000D02*
X-4576000Y24376000D01*
X-4576000Y24376000D02*
X-4576000Y23376000D01*
%TO.C,C2*%
X-1274000Y21090000D02*
X-1774000Y21090000D01*
X-1774000Y21090000D02*
X-1774000Y22090000D01*
X-1774000Y22090000D02*
X-1274000Y22090000D01*
X-1274000Y22090000D02*
X-1274000Y21090000D01*
%TO.C,C1*%
X-8505000Y18280000D02*
X-8005000Y18280000D01*
X-8005000Y18280000D02*
X-8005000Y17280000D01*
X-8005000Y17280000D02*
X-8505000Y17280000D01*
X-8505000Y17280000D02*
X-8505000Y18280000D01*
%TO.C,C4*%
X-9775000Y18280000D02*
X-9275000Y18280000D01*
X-9275000Y18280000D02*
X-9275000Y17280000D01*
X-9275000Y17280000D02*
X-9775000Y17280000D01*
X-9775000Y17280000D02*
X-9775000Y18280000D01*
%TO.C,C7*%
X-10410000Y22090000D02*
X-9910000Y22090000D01*
X-9910000Y22090000D02*
X-9910000Y21090000D01*
X-9910000Y21090000D02*
X-10410000Y21090000D01*
X-10410000Y21090000D02*
X-10410000Y22090000D01*
%TO.C,C9*%
X-11553000Y4095000D02*
X-11553000Y5095000D01*
X-11053000Y4095000D02*
X-11553000Y4095000D01*
X-11053000Y5095000D02*
X-11053000Y4095000D01*
X-11553000Y5095000D02*
X-11053000Y5095000D01*
%TO.C,C6*%
X-6850000Y24134000D02*
X-6850000Y24634000D01*
X-6850000Y24634000D02*
X-5850000Y24634000D01*
X-5850000Y24634000D02*
X-5850000Y24134000D01*
X-5850000Y24134000D02*
X-6850000Y24134000D01*
%TO.C,C5*%
X-8390000Y24634000D02*
X-8390000Y24134000D01*
X-8390000Y24134000D02*
X-9390000Y24134000D01*
X-9390000Y24134000D02*
X-9390000Y24634000D01*
X-9390000Y24634000D02*
X-8390000Y24634000D01*
D11*
%TO.C,U1*%
X-7120000Y20090000D02*
X-9120000Y20090000D01*
X-9120000Y20090000D02*
X-9120000Y23090000D01*
X-9120000Y23090000D02*
X-6120000Y23090000D01*
X-6120000Y23090000D02*
X-6120000Y21090000D01*
X-6120000Y21090000D02*
X-7120000Y20090000D01*
D10*
%TO.C,J1*%
X-9120000Y1060000D02*
X-8920000Y1060000D01*
X-8920000Y1060000D02*
X-8920000Y1460000D01*
X-7920000Y1460000D02*
X-8920000Y1460000D01*
X-7920000Y1710000D02*
X-7920000Y1460000D01*
X-7920000Y1710000D02*
X-7470000Y1710000D01*
X-7320000Y1560000D02*
X-7320000Y1460000D01*
X-7320000Y1460000D02*
X-6320000Y1460000D01*
X-6120000Y1060000D02*
X-6320000Y1060000D01*
X-6320000Y1060000D02*
X-6320000Y1460000D01*
X-9120000Y1060000D02*
X-9120000Y-740000D01*
X-9120000Y-740000D02*
X-8920000Y-740000D01*
X-8920000Y-1140000D02*
X-8920000Y-740000D01*
X-6320000Y-1140000D02*
X-8920000Y-1140000D01*
X-6120000Y1060000D02*
X-6120000Y-740000D01*
X-6120000Y-740000D02*
X-6320000Y-740000D01*
X-6320000Y-1140000D02*
X-6320000Y-740000D01*
X-7320000Y1560000D02*
X-7470000Y1710000D01*
%TO.C,R3*%
X-11045000Y18280000D02*
X-10545000Y18280000D01*
X-10545000Y18280000D02*
X-10545000Y17280000D01*
X-10545000Y17280000D02*
X-11045000Y17280000D01*
X-11045000Y17280000D02*
X-11045000Y18280000D01*
%TO.C,D1*%
X-13100000Y19215000D02*
X-13100000Y17915000D01*
X-13100000Y17915000D02*
X-12800000Y17615000D01*
X-12800000Y17615000D02*
X-12300000Y17615000D01*
X-12300000Y17615000D02*
X-12300000Y19215000D01*
X-12300000Y19215000D02*
X-13100000Y19215000D01*
%TO.C,C8*%
X-13735000Y5092500D02*
X-12935000Y5092500D01*
X-12935000Y5092500D02*
X-12935000Y3492500D01*
X-12935000Y3492500D02*
X-13735000Y3492500D01*
X-13735000Y3492500D02*
X-13735000Y5092500D01*
%TO.C,R1*%
X-9025000Y4830000D02*
X-10025000Y4830000D01*
X-9025000Y5330000D02*
X-9025000Y4830000D01*
X-10025000Y5330000D02*
X-9025000Y5330000D01*
X-10025000Y4830000D02*
X-10025000Y5330000D01*
%TO.C,L1*%
X-9025000Y3560000D02*
X-10025000Y3560000D01*
X-9025000Y4060000D02*
X-9025000Y3560000D01*
X-10025000Y4060000D02*
X-9025000Y4060000D01*
X-10025000Y3560000D02*
X-10025000Y4060000D01*
%TO.C,R2*%
X-7370000Y3945000D02*
X-7870000Y3945000D01*
X-7870000Y3945000D02*
X-7870000Y4945000D01*
X-7870000Y4945000D02*
X-7370000Y4945000D01*
X-7370000Y4945000D02*
X-7370000Y3945000D01*
%TO.C,C11*%
X-6215000Y3560000D02*
X-6215000Y4060000D01*
X-6215000Y4060000D02*
X-5215000Y4060000D01*
X-5215000Y4060000D02*
X-5215000Y3560000D01*
X-5215000Y3560000D02*
X-6215000Y3560000D01*
%TO.C,C10*%
X-6215000Y4830000D02*
X-6215000Y5330000D01*
X-6215000Y5330000D02*
X-5215000Y5330000D01*
X-5215000Y5330000D02*
X-5215000Y4830000D01*
X-5215000Y4830000D02*
X-6215000Y4830000D01*
%TO.C,J2*%
X-7620000Y-2465000D02*
X-8370000Y-1465000D01*
X-6870000Y-1465000D02*
X-7620000Y-2465000D01*
X-4455000Y-10985000D02*
X-10785000Y-10985000D01*
X-4445000Y2345000D02*
X-4445000Y-10985000D01*
X-4445000Y2345000D02*
X-5255000Y2345000D01*
X-5255000Y2345000D02*
X-5255000Y-1465000D01*
X-5255000Y-1465000D02*
X-9985000Y-1465000D01*
X-9985000Y-1465000D02*
X-9985000Y2345000D01*
X-9985000Y2345000D02*
X-10795000Y2345000D01*
X-10795000Y2345000D02*
X-10795000Y-10985000D01*
%TO.C,U3*%
X-12470000Y16180000D02*
X-11470000Y15830000D01*
X-11470000Y15830000D02*
X-12470000Y15480000D01*
X-12470000Y6380000D02*
X-2770000Y6380000D01*
X-12470000Y16480000D02*
X-2770000Y16480000D01*
X-2770000Y16480000D02*
X-2770000Y6380000D01*
X-12470000Y16480000D02*
X-12470000Y6380000D01*
%TD*%
%TO.C,A1*%
D11*
X-8485239Y6850953D02*
X-8437620Y6993810D01*
X-8437620Y7231905D01*
X-8485239Y7327143D01*
X-8532858Y7374762D01*
X-8628096Y7422381D01*
X-8723334Y7422381D01*
X-8818572Y7374762D01*
X-8866191Y7327143D01*
X-8913810Y7231905D01*
X-8961429Y7041429D01*
X-9009048Y6946191D01*
X-9056667Y6898572D01*
X-9151905Y6850953D01*
X-9247143Y6850953D01*
X-9342381Y6898572D01*
X-9390000Y6946191D01*
X-9437620Y7041429D01*
X-9437620Y7279524D01*
X-9390000Y7422381D01*
X-9104286Y7850953D02*
X-8104286Y7850953D01*
X-9056667Y7850953D02*
X-9104286Y7946191D01*
X-9104286Y8136667D01*
X-9056667Y8231905D01*
X-9009048Y8279524D01*
X-8913810Y8327143D01*
X-8628096Y8327143D01*
X-8532858Y8279524D01*
X-8485239Y8231905D01*
X-8437620Y8136667D01*
X-8437620Y7946191D01*
X-8485239Y7850953D01*
X-8437620Y9184286D02*
X-8961429Y9184286D01*
X-9056667Y9136667D01*
X-9104286Y9041429D01*
X-9104286Y8850953D01*
X-9056667Y8755715D01*
X-8485239Y9184286D02*
X-8437620Y9089048D01*
X-8437620Y8850953D01*
X-8485239Y8755715D01*
X-8580477Y8708096D01*
X-8675715Y8708096D01*
X-8770953Y8755715D01*
X-8818572Y8850953D01*
X-8818572Y9089048D01*
X-8866191Y9184286D01*
X-8437620Y9660477D02*
X-9104286Y9660477D01*
X-8913810Y9660477D02*
X-9009048Y9708096D01*
X-9056667Y9755715D01*
X-9104286Y9850953D01*
X-9104286Y9946191D01*
X-8437620Y10279524D02*
X-9437620Y10279524D01*
X-8818572Y10374762D02*
X-8437620Y10660477D01*
X-9104286Y10660477D02*
X-8723334Y10279524D01*
X-9104286Y10946191D02*
X-9104286Y11327143D01*
X-8437620Y11089048D02*
X-9294762Y11089048D01*
X-9390000Y11136667D01*
X-9437620Y11231905D01*
X-9437620Y11327143D01*
X-9104286Y12089048D02*
X-8437620Y12089048D01*
X-9104286Y11660477D02*
X-8580477Y11660477D01*
X-8485239Y11708096D01*
X-8437620Y11803334D01*
X-8437620Y11946191D01*
X-8485239Y12041429D01*
X-8532858Y12089048D01*
X-9104286Y12565239D02*
X-8437620Y12565239D01*
X-9009048Y12565239D02*
X-9056667Y12612858D01*
X-9104286Y12708096D01*
X-9104286Y12850953D01*
X-9056667Y12946191D01*
X-8961429Y12993810D01*
X-8437620Y12993810D01*
X-8342381Y13231905D02*
X-8342381Y13993810D01*
X-8437620Y14231905D02*
X-9437620Y14231905D01*
X-9437620Y14612858D01*
X-9390000Y14708096D01*
X-9342381Y14755715D01*
X-9247143Y14803334D01*
X-9104286Y14803334D01*
X-9009048Y14755715D01*
X-8961429Y14708096D01*
X-8913810Y14612858D01*
X-8913810Y14231905D01*
X-8437620Y15231905D02*
X-9104286Y15231905D01*
X-8913810Y15231905D02*
X-9009048Y15279524D01*
X-9056667Y15327143D01*
X-9104286Y15422381D01*
X-9104286Y15517620D01*
X-8437620Y15993810D02*
X-8485239Y15898572D01*
X-8532858Y15850953D01*
X-8628096Y15803334D01*
X-8913810Y15803334D01*
X-9009048Y15850953D01*
X-9056667Y15898572D01*
X-9104286Y15993810D01*
X-9104286Y16136667D01*
X-9056667Y16231905D01*
X-9009048Y16279524D01*
X-8913810Y16327143D01*
X-8628096Y16327143D01*
X-8532858Y16279524D01*
X-8485239Y16231905D01*
X-8437620Y16136667D01*
X-8437620Y15993810D01*
X-8342381Y16517620D02*
X-8342381Y17279524D01*
X-8437620Y17517620D02*
X-9437620Y17517620D01*
X-8723334Y17850953D01*
X-9437620Y18184286D01*
X-8437620Y18184286D01*
X-8437620Y18660477D02*
X-9104286Y18660477D01*
X-9437620Y18660477D02*
X-9390000Y18612858D01*
X-9342381Y18660477D01*
X-9390000Y18708096D01*
X-9437620Y18660477D01*
X-9342381Y18660477D01*
X-8485239Y19565239D02*
X-8437620Y19470000D01*
X-8437620Y19279524D01*
X-8485239Y19184286D01*
X-8532858Y19136667D01*
X-8628096Y19089048D01*
X-8913810Y19089048D01*
X-9009048Y19136667D01*
X-9056667Y19184286D01*
X-9104286Y19279524D01*
X-9104286Y19470000D01*
X-9056667Y19565239D01*
X-8437620Y19993810D02*
X-9104286Y19993810D01*
X-8913810Y19993810D02*
X-9009048Y20041429D01*
X-9056667Y20089048D01*
X-9104286Y20184286D01*
X-9104286Y20279524D01*
X-8437620Y20755715D02*
X-8485239Y20660477D01*
X-8532858Y20612858D01*
X-8628096Y20565239D01*
X-8913810Y20565239D01*
X-9009048Y20612858D01*
X-9056667Y20660477D01*
X-9104286Y20755715D01*
X-9104286Y20898572D01*
X-9056667Y20993810D01*
X-9009048Y21041429D01*
X-8913810Y21089048D01*
X-8628096Y21089048D01*
X-8532858Y21041429D01*
X-8485239Y20993810D01*
X-8437620Y20898572D01*
X-8437620Y20755715D01*
X-5929334Y13255715D02*
X-5929334Y13731905D01*
X-5643620Y13160477D02*
X-6643620Y13493810D01*
X-5643620Y13827143D01*
X-5643620Y14684286D02*
X-5643620Y14112858D01*
X-5643620Y14398572D02*
X-6643620Y14398572D01*
X-6500762Y14303334D01*
X-6405524Y14208096D01*
X-6357905Y14112858D01*
%TO.C,R5*%
D12*
X-5601905Y17738334D02*
X-5720953Y17655000D01*
X-5601905Y17595477D02*
X-5851905Y17595477D01*
X-5851905Y17690715D01*
X-5840000Y17714524D01*
X-5828096Y17726429D01*
X-5804286Y17738334D01*
X-5768572Y17738334D01*
X-5744762Y17726429D01*
X-5732858Y17714524D01*
X-5720953Y17690715D01*
X-5720953Y17595477D01*
X-5851905Y17964524D02*
X-5851905Y17845477D01*
X-5732858Y17833572D01*
X-5744762Y17845477D01*
X-5756667Y17869286D01*
X-5756667Y17928810D01*
X-5744762Y17952620D01*
X-5732858Y17964524D01*
X-5709048Y17976429D01*
X-5649524Y17976429D01*
X-5625715Y17964524D01*
X-5613810Y17952620D01*
X-5601905Y17928810D01*
X-5601905Y17869286D01*
X-5613810Y17845477D01*
X-5625715Y17833572D01*
%TO.C,R4*%
X-6871905Y17738334D02*
X-6990953Y17655000D01*
X-6871905Y17595477D02*
X-7121905Y17595477D01*
X-7121905Y17690715D01*
X-7110000Y17714524D01*
X-7098096Y17726429D01*
X-7074286Y17738334D01*
X-7038572Y17738334D01*
X-7014762Y17726429D01*
X-7002858Y17714524D01*
X-6990953Y17690715D01*
X-6990953Y17595477D01*
X-7038572Y17952620D02*
X-6871905Y17952620D01*
X-7133810Y17893096D02*
X-6955239Y17833572D01*
X-6955239Y17988334D01*
%TO.C,U2*%
D13*
X-4190953Y21228810D02*
X-4190953Y20824048D01*
X-4167143Y20776429D01*
X-4143334Y20752620D01*
X-4095715Y20728810D01*
X-4000477Y20728810D01*
X-3952858Y20752620D01*
X-3929048Y20776429D01*
X-3905239Y20824048D01*
X-3905239Y21228810D01*
X-3690953Y21181191D02*
X-3667143Y21205000D01*
X-3619524Y21228810D01*
X-3500477Y21228810D01*
X-3452858Y21205000D01*
X-3429048Y21181191D01*
X-3405239Y21133572D01*
X-3405239Y21085953D01*
X-3429048Y21014524D01*
X-3714762Y20728810D01*
X-3405239Y20728810D01*
%TO.C,C3*%
D12*
X-4736715Y23834334D02*
X-4724810Y23822429D01*
X-4712905Y23786715D01*
X-4712905Y23762905D01*
X-4724810Y23727191D01*
X-4748620Y23703381D01*
X-4772429Y23691477D01*
X-4820048Y23679572D01*
X-4855762Y23679572D01*
X-4903381Y23691477D01*
X-4927191Y23703381D01*
X-4951000Y23727191D01*
X-4962905Y23762905D01*
X-4962905Y23786715D01*
X-4951000Y23822429D01*
X-4939096Y23834334D01*
X-4962905Y23917667D02*
X-4962905Y24072429D01*
X-4867667Y23989096D01*
X-4867667Y24024810D01*
X-4855762Y24048620D01*
X-4843858Y24060524D01*
X-4820048Y24072429D01*
X-4760524Y24072429D01*
X-4736715Y24060524D01*
X-4724810Y24048620D01*
X-4712905Y24024810D01*
X-4712905Y23953381D01*
X-4724810Y23929572D01*
X-4736715Y23917667D01*
%TO.C,C2*%
X-1434715Y21548334D02*
X-1422810Y21536429D01*
X-1410905Y21500715D01*
X-1410905Y21476905D01*
X-1422810Y21441191D01*
X-1446620Y21417381D01*
X-1470429Y21405477D01*
X-1518048Y21393572D01*
X-1553762Y21393572D01*
X-1601381Y21405477D01*
X-1625191Y21417381D01*
X-1649000Y21441191D01*
X-1660905Y21476905D01*
X-1660905Y21500715D01*
X-1649000Y21536429D01*
X-1637096Y21548334D01*
X-1637096Y21643572D02*
X-1649000Y21655477D01*
X-1660905Y21679286D01*
X-1660905Y21738810D01*
X-1649000Y21762620D01*
X-1637096Y21774524D01*
X-1613286Y21786429D01*
X-1589477Y21786429D01*
X-1553762Y21774524D01*
X-1410905Y21631667D01*
X-1410905Y21786429D01*
%TO.C,C1*%
X-8165715Y17738334D02*
X-8153810Y17726429D01*
X-8141905Y17690715D01*
X-8141905Y17666905D01*
X-8153810Y17631191D01*
X-8177620Y17607381D01*
X-8201429Y17595477D01*
X-8249048Y17583572D01*
X-8284762Y17583572D01*
X-8332381Y17595477D01*
X-8356191Y17607381D01*
X-8380000Y17631191D01*
X-8391905Y17666905D01*
X-8391905Y17690715D01*
X-8380000Y17726429D01*
X-8368096Y17738334D01*
X-8141905Y17976429D02*
X-8141905Y17833572D01*
X-8141905Y17905000D02*
X-8391905Y17905000D01*
X-8356191Y17881191D01*
X-8332381Y17857381D01*
X-8320477Y17833572D01*
%TO.C,C4*%
X-9435715Y17738334D02*
X-9423810Y17726429D01*
X-9411905Y17690715D01*
X-9411905Y17666905D01*
X-9423810Y17631191D01*
X-9447620Y17607381D01*
X-9471429Y17595477D01*
X-9519048Y17583572D01*
X-9554762Y17583572D01*
X-9602381Y17595477D01*
X-9626191Y17607381D01*
X-9650000Y17631191D01*
X-9661905Y17666905D01*
X-9661905Y17690715D01*
X-9650000Y17726429D01*
X-9638096Y17738334D01*
X-9578572Y17952620D02*
X-9411905Y17952620D01*
X-9673810Y17893096D02*
X-9495239Y17833572D01*
X-9495239Y17988334D01*
%TO.C,C7*%
X-10070715Y21548334D02*
X-10058810Y21536429D01*
X-10046905Y21500715D01*
X-10046905Y21476905D01*
X-10058810Y21441191D01*
X-10082620Y21417381D01*
X-10106429Y21405477D01*
X-10154048Y21393572D01*
X-10189762Y21393572D01*
X-10237381Y21405477D01*
X-10261191Y21417381D01*
X-10285000Y21441191D01*
X-10296905Y21476905D01*
X-10296905Y21500715D01*
X-10285000Y21536429D01*
X-10273096Y21548334D01*
X-10296905Y21631667D02*
X-10296905Y21798334D01*
X-10046905Y21691191D01*
%TO.C,C9*%
X-11213715Y4553334D02*
X-11201810Y4541429D01*
X-11189905Y4505715D01*
X-11189905Y4481905D01*
X-11201810Y4446191D01*
X-11225620Y4422381D01*
X-11249429Y4410477D01*
X-11297048Y4398572D01*
X-11332762Y4398572D01*
X-11380381Y4410477D01*
X-11404191Y4422381D01*
X-11428000Y4446191D01*
X-11439905Y4481905D01*
X-11439905Y4505715D01*
X-11428000Y4541429D01*
X-11416096Y4553334D01*
X-11189905Y4672381D02*
X-11189905Y4720000D01*
X-11201810Y4743810D01*
X-11213715Y4755715D01*
X-11249429Y4779524D01*
X-11297048Y4791429D01*
X-11392286Y4791429D01*
X-11416096Y4779524D01*
X-11428000Y4767620D01*
X-11439905Y4743810D01*
X-11439905Y4696191D01*
X-11428000Y4672381D01*
X-11416096Y4660477D01*
X-11392286Y4648572D01*
X-11332762Y4648572D01*
X-11308953Y4660477D01*
X-11297048Y4672381D01*
X-11285143Y4696191D01*
X-11285143Y4743810D01*
X-11297048Y4767620D01*
X-11308953Y4779524D01*
X-11332762Y4791429D01*
%TO.C,C6*%
X-6391667Y24294715D02*
X-6403572Y24282810D01*
X-6439286Y24270905D01*
X-6463096Y24270905D01*
X-6498810Y24282810D01*
X-6522620Y24306620D01*
X-6534524Y24330429D01*
X-6546429Y24378048D01*
X-6546429Y24413762D01*
X-6534524Y24461381D01*
X-6522620Y24485191D01*
X-6498810Y24509000D01*
X-6463096Y24520905D01*
X-6439286Y24520905D01*
X-6403572Y24509000D01*
X-6391667Y24497096D01*
X-6177381Y24520905D02*
X-6225000Y24520905D01*
X-6248810Y24509000D01*
X-6260715Y24497096D01*
X-6284524Y24461381D01*
X-6296429Y24413762D01*
X-6296429Y24318524D01*
X-6284524Y24294715D01*
X-6272620Y24282810D01*
X-6248810Y24270905D01*
X-6201191Y24270905D01*
X-6177381Y24282810D01*
X-6165477Y24294715D01*
X-6153572Y24318524D01*
X-6153572Y24378048D01*
X-6165477Y24401858D01*
X-6177381Y24413762D01*
X-6201191Y24425667D01*
X-6248810Y24425667D01*
X-6272620Y24413762D01*
X-6284524Y24401858D01*
X-6296429Y24378048D01*
%TO.C,C5*%
X-8931667Y24294715D02*
X-8943572Y24282810D01*
X-8979286Y24270905D01*
X-9003096Y24270905D01*
X-9038810Y24282810D01*
X-9062620Y24306620D01*
X-9074524Y24330429D01*
X-9086429Y24378048D01*
X-9086429Y24413762D01*
X-9074524Y24461381D01*
X-9062620Y24485191D01*
X-9038810Y24509000D01*
X-9003096Y24520905D01*
X-8979286Y24520905D01*
X-8943572Y24509000D01*
X-8931667Y24497096D01*
X-8705477Y24520905D02*
X-8824524Y24520905D01*
X-8836429Y24401858D01*
X-8824524Y24413762D01*
X-8800715Y24425667D01*
X-8741191Y24425667D01*
X-8717381Y24413762D01*
X-8705477Y24401858D01*
X-8693572Y24378048D01*
X-8693572Y24318524D01*
X-8705477Y24294715D01*
X-8717381Y24282810D01*
X-8741191Y24270905D01*
X-8800715Y24270905D01*
X-8824524Y24282810D01*
X-8836429Y24294715D01*
%TO.C,U1*%
X-7810477Y21726905D02*
X-7810477Y21524524D01*
X-7798572Y21500715D01*
X-7786667Y21488810D01*
X-7762858Y21476905D01*
X-7715239Y21476905D01*
X-7691429Y21488810D01*
X-7679524Y21500715D01*
X-7667620Y21524524D01*
X-7667620Y21726905D01*
X-7417620Y21476905D02*
X-7560477Y21476905D01*
X-7489048Y21476905D02*
X-7489048Y21726905D01*
X-7512858Y21691191D01*
X-7536667Y21667381D01*
X-7560477Y21655477D01*
%TO.C,J1*%
D11*
X-13549286Y650953D02*
X-12882620Y650953D01*
X-13549286Y222381D02*
X-13025477Y222381D01*
X-12930239Y270000D01*
X-12882620Y365239D01*
X-12882620Y508096D01*
X-12930239Y603334D01*
X-12977858Y650953D01*
X-13406429Y1460477D02*
X-13406429Y1127143D01*
X-12882620Y1127143D02*
X-13882620Y1127143D01*
X-13882620Y1603334D01*
X-12882620Y2460477D02*
X-12882620Y1984286D01*
X-13882620Y1984286D01*
%TO.C,R3*%
D12*
X-10681905Y17738334D02*
X-10800953Y17655000D01*
X-10681905Y17595477D02*
X-10931905Y17595477D01*
X-10931905Y17690715D01*
X-10920000Y17714524D01*
X-10908096Y17726429D01*
X-10884286Y17738334D01*
X-10848572Y17738334D01*
X-10824762Y17726429D01*
X-10812858Y17714524D01*
X-10800953Y17690715D01*
X-10800953Y17595477D01*
X-10931905Y17821667D02*
X-10931905Y17976429D01*
X-10836667Y17893096D01*
X-10836667Y17928810D01*
X-10824762Y17952620D01*
X-10812858Y17964524D01*
X-10789048Y17976429D01*
X-10729524Y17976429D01*
X-10705715Y17964524D01*
X-10693810Y17952620D01*
X-10681905Y17928810D01*
X-10681905Y17857381D01*
X-10693810Y17833572D01*
X-10705715Y17821667D01*
%TO.C,D1*%
D14*
X-12519048Y18119762D02*
X-12919048Y18119762D01*
X-12919048Y18215000D01*
X-12900000Y18272143D01*
X-12861905Y18310239D01*
X-12823810Y18329286D01*
X-12747620Y18348334D01*
X-12690477Y18348334D01*
X-12614286Y18329286D01*
X-12576191Y18310239D01*
X-12538096Y18272143D01*
X-12519048Y18215000D01*
X-12519048Y18119762D01*
X-12519048Y18729286D02*
X-12519048Y18500715D01*
X-12519048Y18615000D02*
X-12919048Y18615000D01*
X-12861905Y18576905D01*
X-12823810Y18538810D01*
X-12804762Y18500715D01*
%TO.C,C8*%
X-13192143Y4225834D02*
X-13173096Y4206786D01*
X-13154048Y4149643D01*
X-13154048Y4111548D01*
X-13173096Y4054405D01*
X-13211191Y4016310D01*
X-13249286Y3997262D01*
X-13325477Y3978215D01*
X-13382620Y3978215D01*
X-13458810Y3997262D01*
X-13496905Y4016310D01*
X-13535000Y4054405D01*
X-13554048Y4111548D01*
X-13554048Y4149643D01*
X-13535000Y4206786D01*
X-13515953Y4225834D01*
X-13382620Y4454405D02*
X-13401667Y4416310D01*
X-13420715Y4397262D01*
X-13458810Y4378215D01*
X-13477858Y4378215D01*
X-13515953Y4397262D01*
X-13535000Y4416310D01*
X-13554048Y4454405D01*
X-13554048Y4530596D01*
X-13535000Y4568691D01*
X-13515953Y4587739D01*
X-13477858Y4606786D01*
X-13458810Y4606786D01*
X-13420715Y4587739D01*
X-13401667Y4568691D01*
X-13382620Y4530596D01*
X-13382620Y4454405D01*
X-13363572Y4416310D01*
X-13344524Y4397262D01*
X-13306429Y4378215D01*
X-13230239Y4378215D01*
X-13192143Y4397262D01*
X-13173096Y4416310D01*
X-13154048Y4454405D01*
X-13154048Y4530596D01*
X-13173096Y4568691D01*
X-13192143Y4587739D01*
X-13230239Y4606786D01*
X-13306429Y4606786D01*
X-13344524Y4587739D01*
X-13363572Y4568691D01*
X-13382620Y4530596D01*
%TO.C,R1*%
D12*
X-9566667Y4966905D02*
X-9650000Y5085953D01*
X-9709524Y4966905D02*
X-9709524Y5216905D01*
X-9614286Y5216905D01*
X-9590477Y5205000D01*
X-9578572Y5193096D01*
X-9566667Y5169286D01*
X-9566667Y5133572D01*
X-9578572Y5109762D01*
X-9590477Y5097858D01*
X-9614286Y5085953D01*
X-9709524Y5085953D01*
X-9328572Y4966905D02*
X-9471429Y4966905D01*
X-9400000Y4966905D02*
X-9400000Y5216905D01*
X-9423810Y5181191D01*
X-9447620Y5157381D01*
X-9471429Y5145477D01*
%TO.C,L1*%
X-9566667Y3696905D02*
X-9685715Y3696905D01*
X-9685715Y3946905D01*
X-9352381Y3696905D02*
X-9495239Y3696905D01*
X-9423810Y3696905D02*
X-9423810Y3946905D01*
X-9447620Y3911191D01*
X-9471429Y3887381D01*
X-9495239Y3875477D01*
%TO.C,R2*%
X-7506905Y4403334D02*
X-7625953Y4320000D01*
X-7506905Y4260477D02*
X-7756905Y4260477D01*
X-7756905Y4355715D01*
X-7745000Y4379524D01*
X-7733096Y4391429D01*
X-7709286Y4403334D01*
X-7673572Y4403334D01*
X-7649762Y4391429D01*
X-7637858Y4379524D01*
X-7625953Y4355715D01*
X-7625953Y4260477D01*
X-7733096Y4498572D02*
X-7745000Y4510477D01*
X-7756905Y4534286D01*
X-7756905Y4593810D01*
X-7745000Y4617620D01*
X-7733096Y4629524D01*
X-7709286Y4641429D01*
X-7685477Y4641429D01*
X-7649762Y4629524D01*
X-7506905Y4486667D01*
X-7506905Y4641429D01*
%TO.C,C11*%
X-5875715Y3720715D02*
X-5887620Y3708810D01*
X-5923334Y3696905D01*
X-5947143Y3696905D01*
X-5982858Y3708810D01*
X-6006667Y3732620D01*
X-6018572Y3756429D01*
X-6030477Y3804048D01*
X-6030477Y3839762D01*
X-6018572Y3887381D01*
X-6006667Y3911191D01*
X-5982858Y3935000D01*
X-5947143Y3946905D01*
X-5923334Y3946905D01*
X-5887620Y3935000D01*
X-5875715Y3923096D01*
X-5637620Y3696905D02*
X-5780477Y3696905D01*
X-5709048Y3696905D02*
X-5709048Y3946905D01*
X-5732858Y3911191D01*
X-5756667Y3887381D01*
X-5780477Y3875477D01*
X-5399524Y3696905D02*
X-5542381Y3696905D01*
X-5470953Y3696905D02*
X-5470953Y3946905D01*
X-5494762Y3911191D01*
X-5518572Y3887381D01*
X-5542381Y3875477D01*
%TO.C,C10*%
X-5875715Y4990715D02*
X-5887620Y4978810D01*
X-5923334Y4966905D01*
X-5947143Y4966905D01*
X-5982858Y4978810D01*
X-6006667Y5002620D01*
X-6018572Y5026429D01*
X-6030477Y5074048D01*
X-6030477Y5109762D01*
X-6018572Y5157381D01*
X-6006667Y5181191D01*
X-5982858Y5205000D01*
X-5947143Y5216905D01*
X-5923334Y5216905D01*
X-5887620Y5205000D01*
X-5875715Y5193096D01*
X-5637620Y4966905D02*
X-5780477Y4966905D01*
X-5709048Y4966905D02*
X-5709048Y5216905D01*
X-5732858Y5181191D01*
X-5756667Y5157381D01*
X-5780477Y5145477D01*
X-5482858Y5216905D02*
X-5459048Y5216905D01*
X-5435239Y5205000D01*
X-5423334Y5193096D01*
X-5411429Y5169286D01*
X-5399524Y5121667D01*
X-5399524Y5062143D01*
X-5411429Y5014524D01*
X-5423334Y4990715D01*
X-5435239Y4978810D01*
X-5459048Y4966905D01*
X-5482858Y4966905D01*
X-5506667Y4978810D01*
X-5518572Y4990715D01*
X-5530477Y5014524D01*
X-5542381Y5062143D01*
X-5542381Y5121667D01*
X-5530477Y5169286D01*
X-5518572Y5193096D01*
X-5506667Y5205000D01*
X-5482858Y5216905D01*
%TO.C,J2*%
D11*
X-11707858Y270000D02*
X-11660239Y222381D01*
X-11612620Y79524D01*
X-11612620Y-15714D01*
X-11660239Y-158571D01*
X-11755477Y-253809D01*
X-11850715Y-301428D01*
X-12041191Y-349047D01*
X-12184048Y-349047D01*
X-12374524Y-301428D01*
X-12469762Y-253809D01*
X-12565000Y-158571D01*
X-12612620Y-15714D01*
X-12612620Y79524D01*
X-12565000Y222381D01*
X-12517381Y270000D01*
X-11612620Y841429D02*
X-11660239Y746191D01*
X-11707858Y698572D01*
X-11803096Y650953D01*
X-12088810Y650953D01*
X-12184048Y698572D01*
X-12231667Y746191D01*
X-12279286Y841429D01*
X-12279286Y984286D01*
X-12231667Y1079524D01*
X-12184048Y1127143D01*
X-12088810Y1174762D01*
X-11803096Y1174762D01*
X-11707858Y1127143D01*
X-11660239Y1079524D01*
X-11612620Y984286D01*
X-11612620Y841429D01*
X-11612620Y2031905D02*
X-12136429Y2031905D01*
X-12231667Y1984286D01*
X-12279286Y1889048D01*
X-12279286Y1698572D01*
X-12231667Y1603334D01*
X-11660239Y2031905D02*
X-11612620Y1936667D01*
X-11612620Y1698572D01*
X-11660239Y1603334D01*
X-11755477Y1555715D01*
X-11850715Y1555715D01*
X-11945953Y1603334D01*
X-11993572Y1698572D01*
X-11993572Y1936667D01*
X-12041191Y2031905D01*
X-11612620Y2412858D02*
X-12279286Y2936667D01*
X-12279286Y2412858D02*
X-11612620Y2936667D01*
%TO.C,U3*%
D14*
X-7924762Y11649048D02*
X-7924762Y11325239D01*
X-7905715Y11287143D01*
X-7886667Y11268096D01*
X-7848572Y11249048D01*
X-7772381Y11249048D01*
X-7734286Y11268096D01*
X-7715239Y11287143D01*
X-7696191Y11325239D01*
X-7696191Y11649048D01*
X-7543810Y11649048D02*
X-7296191Y11649048D01*
X-7429524Y11496667D01*
X-7372381Y11496667D01*
X-7334286Y11477620D01*
X-7315239Y11458572D01*
X-7296191Y11420477D01*
X-7296191Y11325239D01*
X-7315239Y11287143D01*
X-7334286Y11268096D01*
X-7372381Y11249048D01*
X-7486667Y11249048D01*
X-7524762Y11268096D01*
X-7543810Y11287143D01*
%TD*%
M02*
