%TF.GenerationSoftware,KiCad,Pcbnew,5.1.6+dfsg1-1~bpo10+1*%
%TF.CreationDate,Date%
%TF.ProjectId,ProMicro_POS,50726f4d-6963-4726-9f5f-504f532e6b69,v3.2*%
%TF.SameCoordinates,Original*%
%TF.FileFunction,Paste,Top*%
%TF.FilePolarity,Positive*%
%FSLAX45Y45*%
G04 Gerber Fmt 4.5, Leading zero omitted, Abs format (unit mm)*
G04 Created by KiCad*
%MOMM*%
%LPD*%
G01*
G04 APERTURE LIST*
%TA.AperFunction,Profile*%
%ADD10C,0.100000*%
%TD*%
%ADD11R,0.650000X1.060000*%
%ADD12R,1.050000X2.200000*%
%ADD13R,1.000000X1.050000*%
%ADD14R,1.270000X3.600000*%
%ADD15R,1.350000X4.200000*%
%ADD16R,1.800000X0.700000*%
%ADD17R,1.800000X0.800000*%
G04 APERTURE END LIST*
D10*
X127000Y2857500D02*
X127000Y-63500D01*
X-1587500Y-127000D02*
G75*
G02*
X-1651000Y-63500I0J63500D01*
G01*
X-1651000Y2857500D02*
G75*
G02*
X-1587500Y2921000I63500J0D01*
G01*
X63500Y2921000D02*
G75*
G02*
X127000Y2857500I0J-63500D01*
G01*
X127000Y-63500D02*
G75*
G02*
X63500Y-127000I-63500J0D01*
G01*
X-1587500Y2921000D02*
X63500Y2921000D01*
X-1651000Y-63500D02*
X-1651000Y2857500D01*
X63500Y-127000D02*
X-1587500Y-127000D01*
G36*
G01*
X-681250Y1797000D02*
X-715750Y1797000D01*
G75*
G02*
X-730500Y1811750I0J14750D01*
G01*
X-730500Y1841250D01*
G75*
G02*
X-715750Y1856000I14750J0D01*
G01*
X-681250Y1856000D01*
G75*
G02*
X-666500Y1841250I0J-14750D01*
G01*
X-666500Y1811750D01*
G75*
G02*
X-681250Y1797000I-14750J0D01*
G01*
G37*
G36*
G01*
X-681250Y1700000D02*
X-715750Y1700000D01*
G75*
G02*
X-730500Y1714750I0J14750D01*
G01*
X-730500Y1744250D01*
G75*
G02*
X-715750Y1759000I14750J0D01*
G01*
X-681250Y1759000D01*
G75*
G02*
X-666500Y1744250I0J-14750D01*
G01*
X-666500Y1714750D01*
G75*
G02*
X-681250Y1700000I-14750J0D01*
G01*
G37*
G36*
G01*
X-554250Y1797000D02*
X-588750Y1797000D01*
G75*
G02*
X-603500Y1811750I0J14750D01*
G01*
X-603500Y1841250D01*
G75*
G02*
X-588750Y1856000I14750J0D01*
G01*
X-554250Y1856000D01*
G75*
G02*
X-539500Y1841250I0J-14750D01*
G01*
X-539500Y1811750D01*
G75*
G02*
X-554250Y1797000I-14750J0D01*
G01*
G37*
G36*
G01*
X-554250Y1700000D02*
X-588750Y1700000D01*
G75*
G02*
X-603500Y1714750I0J14750D01*
G01*
X-603500Y1744250D01*
G75*
G02*
X-588750Y1759000I14750J0D01*
G01*
X-554250Y1759000D01*
G75*
G02*
X-539500Y1744250I0J-14750D01*
G01*
X-539500Y1714750D01*
G75*
G02*
X-554250Y1700000I-14750J0D01*
G01*
G37*
D11*
X-476000Y2205500D03*
X-286000Y2205500D03*
X-286000Y1985500D03*
X-381000Y1985500D03*
X-476000Y1985500D03*
G36*
G01*
X-465350Y2406600D02*
X-499850Y2406600D01*
G75*
G02*
X-514600Y2421350I0J14750D01*
G01*
X-514600Y2450850D01*
G75*
G02*
X-499850Y2465600I14750J0D01*
G01*
X-465350Y2465600D01*
G75*
G02*
X-450600Y2450850I0J-14750D01*
G01*
X-450600Y2421350D01*
G75*
G02*
X-465350Y2406600I-14750J0D01*
G01*
G37*
G36*
G01*
X-465350Y2309600D02*
X-499850Y2309600D01*
G75*
G02*
X-514600Y2324350I0J14750D01*
G01*
X-514600Y2353850D01*
G75*
G02*
X-499850Y2368600I14750J0D01*
G01*
X-465350Y2368600D01*
G75*
G02*
X-450600Y2353850I0J-14750D01*
G01*
X-450600Y2324350D01*
G75*
G02*
X-465350Y2309600I-14750J0D01*
G01*
G37*
G36*
G01*
X-135150Y2178000D02*
X-169650Y2178000D01*
G75*
G02*
X-184400Y2192750I0J14750D01*
G01*
X-184400Y2222250D01*
G75*
G02*
X-169650Y2237000I14750J0D01*
G01*
X-135150Y2237000D01*
G75*
G02*
X-120400Y2222250I0J-14750D01*
G01*
X-120400Y2192750D01*
G75*
G02*
X-135150Y2178000I-14750J0D01*
G01*
G37*
G36*
G01*
X-135150Y2081000D02*
X-169650Y2081000D01*
G75*
G02*
X-184400Y2095750I0J14750D01*
G01*
X-184400Y2125250D01*
G75*
G02*
X-169650Y2140000I14750J0D01*
G01*
X-135150Y2140000D01*
G75*
G02*
X-120400Y2125250I0J-14750D01*
G01*
X-120400Y2095750D01*
G75*
G02*
X-135150Y2081000I-14750J0D01*
G01*
G37*
G36*
G01*
X-842750Y1759000D02*
X-808250Y1759000D01*
G75*
G02*
X-793500Y1744250I0J-14750D01*
G01*
X-793500Y1714750D01*
G75*
G02*
X-808250Y1700000I-14750J0D01*
G01*
X-842750Y1700000D01*
G75*
G02*
X-857500Y1714750I0J14750D01*
G01*
X-857500Y1744250D01*
G75*
G02*
X-842750Y1759000I14750J0D01*
G01*
G37*
G36*
G01*
X-842750Y1856000D02*
X-808250Y1856000D01*
G75*
G02*
X-793500Y1841250I0J-14750D01*
G01*
X-793500Y1811750D01*
G75*
G02*
X-808250Y1797000I-14750J0D01*
G01*
X-842750Y1797000D01*
G75*
G02*
X-857500Y1811750I0J14750D01*
G01*
X-857500Y1841250D01*
G75*
G02*
X-842750Y1856000I14750J0D01*
G01*
G37*
G36*
G01*
X-969750Y1759000D02*
X-935250Y1759000D01*
G75*
G02*
X-920500Y1744250I0J-14750D01*
G01*
X-920500Y1714750D01*
G75*
G02*
X-935250Y1700000I-14750J0D01*
G01*
X-969750Y1700000D01*
G75*
G02*
X-984500Y1714750I0J14750D01*
G01*
X-984500Y1744250D01*
G75*
G02*
X-969750Y1759000I14750J0D01*
G01*
G37*
G36*
G01*
X-969750Y1856000D02*
X-935250Y1856000D01*
G75*
G02*
X-920500Y1841250I0J-14750D01*
G01*
X-920500Y1811750D01*
G75*
G02*
X-935250Y1797000I-14750J0D01*
G01*
X-969750Y1797000D01*
G75*
G02*
X-984500Y1811750I0J14750D01*
G01*
X-984500Y1841250D01*
G75*
G02*
X-969750Y1856000I14750J0D01*
G01*
G37*
G36*
G01*
X-1033250Y2140000D02*
X-998750Y2140000D01*
G75*
G02*
X-984000Y2125250I0J-14750D01*
G01*
X-984000Y2095750D01*
G75*
G02*
X-998750Y2081000I-14750J0D01*
G01*
X-1033250Y2081000D01*
G75*
G02*
X-1048000Y2095750I0J14750D01*
G01*
X-1048000Y2125250D01*
G75*
G02*
X-1033250Y2140000I14750J0D01*
G01*
G37*
G36*
G01*
X-1033250Y2237000D02*
X-998750Y2237000D01*
G75*
G02*
X-984000Y2222250I0J-14750D01*
G01*
X-984000Y2192750D01*
G75*
G02*
X-998750Y2178000I-14750J0D01*
G01*
X-1033250Y2178000D01*
G75*
G02*
X-1048000Y2192750I0J14750D01*
G01*
X-1048000Y2222250D01*
G75*
G02*
X-1033250Y2237000I14750J0D01*
G01*
G37*
G36*
G01*
X-1147550Y440500D02*
X-1113050Y440500D01*
G75*
G02*
X-1098300Y425750I0J-14750D01*
G01*
X-1098300Y396250D01*
G75*
G02*
X-1113050Y381500I-14750J0D01*
G01*
X-1147550Y381500D01*
G75*
G02*
X-1162300Y396250I0J14750D01*
G01*
X-1162300Y425750D01*
G75*
G02*
X-1147550Y440500I14750J0D01*
G01*
G37*
G36*
G01*
X-1147550Y537500D02*
X-1113050Y537500D01*
G75*
G02*
X-1098300Y522750I0J-14750D01*
G01*
X-1098300Y493250D01*
G75*
G02*
X-1113050Y478500I-14750J0D01*
G01*
X-1147550Y478500D01*
G75*
G02*
X-1162300Y493250I0J14750D01*
G01*
X-1162300Y522750D01*
G75*
G02*
X-1147550Y537500I14750J0D01*
G01*
G37*
G36*
G01*
X-616000Y2421150D02*
X-616000Y2455650D01*
G75*
G02*
X-601250Y2470400I14750J0D01*
G01*
X-571750Y2470400D01*
G75*
G02*
X-557000Y2455650I0J-14750D01*
G01*
X-557000Y2421150D01*
G75*
G02*
X-571750Y2406400I-14750J0D01*
G01*
X-601250Y2406400D01*
G75*
G02*
X-616000Y2421150I0J14750D01*
G01*
G37*
G36*
G01*
X-713000Y2421150D02*
X-713000Y2455650D01*
G75*
G02*
X-698250Y2470400I14750J0D01*
G01*
X-668750Y2470400D01*
G75*
G02*
X-654000Y2455650I0J-14750D01*
G01*
X-654000Y2421150D01*
G75*
G02*
X-668750Y2406400I-14750J0D01*
G01*
X-698250Y2406400D01*
G75*
G02*
X-713000Y2421150I0J14750D01*
G01*
G37*
G36*
G01*
X-908000Y2455650D02*
X-908000Y2421150D01*
G75*
G02*
X-922750Y2406400I-14750J0D01*
G01*
X-952250Y2406400D01*
G75*
G02*
X-967000Y2421150I0J14750D01*
G01*
X-967000Y2455650D01*
G75*
G02*
X-952250Y2470400I14750J0D01*
G01*
X-922750Y2470400D01*
G75*
G02*
X-908000Y2455650I0J-14750D01*
G01*
G37*
G36*
G01*
X-811000Y2455650D02*
X-811000Y2421150D01*
G75*
G02*
X-825750Y2406400I-14750J0D01*
G01*
X-855250Y2406400D01*
G75*
G02*
X-870000Y2421150I0J14750D01*
G01*
X-870000Y2455650D01*
G75*
G02*
X-855250Y2470400I14750J0D01*
G01*
X-825750Y2470400D01*
G75*
G02*
X-811000Y2455650I0J-14750D01*
G01*
G37*
G36*
G01*
X-667000Y2036500D02*
X-657000Y2036500D01*
G75*
G02*
X-652000Y2031500I0J-5000D01*
G01*
X-652000Y1986500D01*
G75*
G02*
X-657000Y1981500I-5000J0D01*
G01*
X-667000Y1981500D01*
G75*
G02*
X-672000Y1986500I0J5000D01*
G01*
X-672000Y2031500D01*
G75*
G02*
X-667000Y2036500I5000J0D01*
G01*
G37*
G36*
G01*
X-707000Y2036500D02*
X-697000Y2036500D01*
G75*
G02*
X-692000Y2031500I0J-5000D01*
G01*
X-692000Y1986500D01*
G75*
G02*
X-697000Y1981500I-5000J0D01*
G01*
X-707000Y1981500D01*
G75*
G02*
X-712000Y1986500I0J5000D01*
G01*
X-712000Y2031500D01*
G75*
G02*
X-707000Y2036500I5000J0D01*
G01*
G37*
G36*
G01*
X-747000Y2036500D02*
X-737000Y2036500D01*
G75*
G02*
X-732000Y2031500I0J-5000D01*
G01*
X-732000Y1986500D01*
G75*
G02*
X-737000Y1981500I-5000J0D01*
G01*
X-747000Y1981500D01*
G75*
G02*
X-752000Y1986500I0J5000D01*
G01*
X-752000Y2031500D01*
G75*
G02*
X-747000Y2036500I5000J0D01*
G01*
G37*
G36*
G01*
X-787000Y2036500D02*
X-777000Y2036500D01*
G75*
G02*
X-772000Y2031500I0J-5000D01*
G01*
X-772000Y1986500D01*
G75*
G02*
X-777000Y1981500I-5000J0D01*
G01*
X-787000Y1981500D01*
G75*
G02*
X-792000Y1986500I0J5000D01*
G01*
X-792000Y2031500D01*
G75*
G02*
X-787000Y2036500I5000J0D01*
G01*
G37*
G36*
G01*
X-827000Y2036500D02*
X-817000Y2036500D01*
G75*
G02*
X-812000Y2031500I0J-5000D01*
G01*
X-812000Y1986500D01*
G75*
G02*
X-817000Y1981500I-5000J0D01*
G01*
X-827000Y1981500D01*
G75*
G02*
X-832000Y1986500I0J5000D01*
G01*
X-832000Y2031500D01*
G75*
G02*
X-827000Y2036500I5000J0D01*
G01*
G37*
G36*
G01*
X-867000Y2036500D02*
X-857000Y2036500D01*
G75*
G02*
X-852000Y2031500I0J-5000D01*
G01*
X-852000Y1986500D01*
G75*
G02*
X-857000Y1981500I-5000J0D01*
G01*
X-867000Y1981500D01*
G75*
G02*
X-872000Y1986500I0J5000D01*
G01*
X-872000Y2031500D01*
G75*
G02*
X-867000Y2036500I5000J0D01*
G01*
G37*
G36*
G01*
X-884500Y2064000D02*
X-884500Y2054000D01*
G75*
G02*
X-889500Y2049000I-5000J0D01*
G01*
X-934500Y2049000D01*
G75*
G02*
X-939500Y2054000I0J5000D01*
G01*
X-939500Y2064000D01*
G75*
G02*
X-934500Y2069000I5000J0D01*
G01*
X-889500Y2069000D01*
G75*
G02*
X-884500Y2064000I0J-5000D01*
G01*
G37*
G36*
G01*
X-884500Y2104000D02*
X-884500Y2094000D01*
G75*
G02*
X-889500Y2089000I-5000J0D01*
G01*
X-934500Y2089000D01*
G75*
G02*
X-939500Y2094000I0J5000D01*
G01*
X-939500Y2104000D01*
G75*
G02*
X-934500Y2109000I5000J0D01*
G01*
X-889500Y2109000D01*
G75*
G02*
X-884500Y2104000I0J-5000D01*
G01*
G37*
G36*
G01*
X-884500Y2144000D02*
X-884500Y2134000D01*
G75*
G02*
X-889500Y2129000I-5000J0D01*
G01*
X-934500Y2129000D01*
G75*
G02*
X-939500Y2134000I0J5000D01*
G01*
X-939500Y2144000D01*
G75*
G02*
X-934500Y2149000I5000J0D01*
G01*
X-889500Y2149000D01*
G75*
G02*
X-884500Y2144000I0J-5000D01*
G01*
G37*
G36*
G01*
X-884500Y2184000D02*
X-884500Y2174000D01*
G75*
G02*
X-889500Y2169000I-5000J0D01*
G01*
X-934500Y2169000D01*
G75*
G02*
X-939500Y2174000I0J5000D01*
G01*
X-939500Y2184000D01*
G75*
G02*
X-934500Y2189000I5000J0D01*
G01*
X-889500Y2189000D01*
G75*
G02*
X-884500Y2184000I0J-5000D01*
G01*
G37*
G36*
G01*
X-884500Y2224000D02*
X-884500Y2214000D01*
G75*
G02*
X-889500Y2209000I-5000J0D01*
G01*
X-934500Y2209000D01*
G75*
G02*
X-939500Y2214000I0J5000D01*
G01*
X-939500Y2224000D01*
G75*
G02*
X-934500Y2229000I5000J0D01*
G01*
X-889500Y2229000D01*
G75*
G02*
X-884500Y2224000I0J-5000D01*
G01*
G37*
G36*
G01*
X-884500Y2264000D02*
X-884500Y2254000D01*
G75*
G02*
X-889500Y2249000I-5000J0D01*
G01*
X-934500Y2249000D01*
G75*
G02*
X-939500Y2254000I0J5000D01*
G01*
X-939500Y2264000D01*
G75*
G02*
X-934500Y2269000I5000J0D01*
G01*
X-889500Y2269000D01*
G75*
G02*
X-884500Y2264000I0J-5000D01*
G01*
G37*
G36*
G01*
X-867000Y2336500D02*
X-857000Y2336500D01*
G75*
G02*
X-852000Y2331500I0J-5000D01*
G01*
X-852000Y2286500D01*
G75*
G02*
X-857000Y2281500I-5000J0D01*
G01*
X-867000Y2281500D01*
G75*
G02*
X-872000Y2286500I0J5000D01*
G01*
X-872000Y2331500D01*
G75*
G02*
X-867000Y2336500I5000J0D01*
G01*
G37*
G36*
G01*
X-827000Y2336500D02*
X-817000Y2336500D01*
G75*
G02*
X-812000Y2331500I0J-5000D01*
G01*
X-812000Y2286500D01*
G75*
G02*
X-817000Y2281500I-5000J0D01*
G01*
X-827000Y2281500D01*
G75*
G02*
X-832000Y2286500I0J5000D01*
G01*
X-832000Y2331500D01*
G75*
G02*
X-827000Y2336500I5000J0D01*
G01*
G37*
G36*
G01*
X-787000Y2336500D02*
X-777000Y2336500D01*
G75*
G02*
X-772000Y2331500I0J-5000D01*
G01*
X-772000Y2286500D01*
G75*
G02*
X-777000Y2281500I-5000J0D01*
G01*
X-787000Y2281500D01*
G75*
G02*
X-792000Y2286500I0J5000D01*
G01*
X-792000Y2331500D01*
G75*
G02*
X-787000Y2336500I5000J0D01*
G01*
G37*
G36*
G01*
X-747000Y2336500D02*
X-737000Y2336500D01*
G75*
G02*
X-732000Y2331500I0J-5000D01*
G01*
X-732000Y2286500D01*
G75*
G02*
X-737000Y2281500I-5000J0D01*
G01*
X-747000Y2281500D01*
G75*
G02*
X-752000Y2286500I0J5000D01*
G01*
X-752000Y2331500D01*
G75*
G02*
X-747000Y2336500I5000J0D01*
G01*
G37*
G36*
G01*
X-707000Y2336500D02*
X-697000Y2336500D01*
G75*
G02*
X-692000Y2331500I0J-5000D01*
G01*
X-692000Y2286500D01*
G75*
G02*
X-697000Y2281500I-5000J0D01*
G01*
X-707000Y2281500D01*
G75*
G02*
X-712000Y2286500I0J5000D01*
G01*
X-712000Y2331500D01*
G75*
G02*
X-707000Y2336500I5000J0D01*
G01*
G37*
G36*
G01*
X-667000Y2336500D02*
X-657000Y2336500D01*
G75*
G02*
X-652000Y2331500I0J-5000D01*
G01*
X-652000Y2286500D01*
G75*
G02*
X-657000Y2281500I-5000J0D01*
G01*
X-667000Y2281500D01*
G75*
G02*
X-672000Y2286500I0J5000D01*
G01*
X-672000Y2331500D01*
G75*
G02*
X-667000Y2336500I5000J0D01*
G01*
G37*
G36*
G01*
X-584500Y2264000D02*
X-584500Y2254000D01*
G75*
G02*
X-589500Y2249000I-5000J0D01*
G01*
X-634500Y2249000D01*
G75*
G02*
X-639500Y2254000I0J5000D01*
G01*
X-639500Y2264000D01*
G75*
G02*
X-634500Y2269000I5000J0D01*
G01*
X-589500Y2269000D01*
G75*
G02*
X-584500Y2264000I0J-5000D01*
G01*
G37*
G36*
G01*
X-584500Y2224000D02*
X-584500Y2214000D01*
G75*
G02*
X-589500Y2209000I-5000J0D01*
G01*
X-634500Y2209000D01*
G75*
G02*
X-639500Y2214000I0J5000D01*
G01*
X-639500Y2224000D01*
G75*
G02*
X-634500Y2229000I5000J0D01*
G01*
X-589500Y2229000D01*
G75*
G02*
X-584500Y2224000I0J-5000D01*
G01*
G37*
G36*
G01*
X-584500Y2184000D02*
X-584500Y2174000D01*
G75*
G02*
X-589500Y2169000I-5000J0D01*
G01*
X-634500Y2169000D01*
G75*
G02*
X-639500Y2174000I0J5000D01*
G01*
X-639500Y2184000D01*
G75*
G02*
X-634500Y2189000I5000J0D01*
G01*
X-589500Y2189000D01*
G75*
G02*
X-584500Y2184000I0J-5000D01*
G01*
G37*
G36*
G01*
X-584500Y2144000D02*
X-584500Y2134000D01*
G75*
G02*
X-589500Y2129000I-5000J0D01*
G01*
X-634500Y2129000D01*
G75*
G02*
X-639500Y2134000I0J5000D01*
G01*
X-639500Y2144000D01*
G75*
G02*
X-634500Y2149000I5000J0D01*
G01*
X-589500Y2149000D01*
G75*
G02*
X-584500Y2144000I0J-5000D01*
G01*
G37*
G36*
G01*
X-584500Y2104000D02*
X-584500Y2094000D01*
G75*
G02*
X-589500Y2089000I-5000J0D01*
G01*
X-634500Y2089000D01*
G75*
G02*
X-639500Y2094000I0J5000D01*
G01*
X-639500Y2104000D01*
G75*
G02*
X-634500Y2109000I5000J0D01*
G01*
X-589500Y2109000D01*
G75*
G02*
X-584500Y2104000I0J-5000D01*
G01*
G37*
G36*
G01*
X-584500Y2064000D02*
X-584500Y2054000D01*
G75*
G02*
X-589500Y2049000I-5000J0D01*
G01*
X-634500Y2049000D01*
G75*
G02*
X-639500Y2054000I0J5000D01*
G01*
X-639500Y2064000D01*
G75*
G02*
X-634500Y2069000I5000J0D01*
G01*
X-589500Y2069000D01*
G75*
G02*
X-584500Y2064000I0J-5000D01*
G01*
G37*
D12*
X-614500Y16000D03*
D13*
X-762000Y168500D03*
D12*
X-909500Y16000D03*
G36*
G01*
X-1096750Y1759000D02*
X-1062250Y1759000D01*
G75*
G02*
X-1047500Y1744250I0J-14750D01*
G01*
X-1047500Y1714750D01*
G75*
G02*
X-1062250Y1700000I-14750J0D01*
G01*
X-1096750Y1700000D01*
G75*
G02*
X-1111500Y1714750I0J14750D01*
G01*
X-1111500Y1744250D01*
G75*
G02*
X-1096750Y1759000I14750J0D01*
G01*
G37*
G36*
G01*
X-1096750Y1856000D02*
X-1062250Y1856000D01*
G75*
G02*
X-1047500Y1841250I0J-14750D01*
G01*
X-1047500Y1811750D01*
G75*
G02*
X-1062250Y1797000I-14750J0D01*
G01*
X-1096750Y1797000D01*
G75*
G02*
X-1111500Y1811750I0J14750D01*
G01*
X-1111500Y1841250D01*
G75*
G02*
X-1096750Y1856000I14750J0D01*
G01*
G37*
G36*
G01*
X-1244375Y1876500D02*
X-1295625Y1876500D01*
G75*
G02*
X-1317500Y1898375I0J21875D01*
G01*
X-1317500Y1942125D01*
G75*
G02*
X-1295625Y1964000I21875J0D01*
G01*
X-1244375Y1964000D01*
G75*
G02*
X-1222500Y1942125I0J-21875D01*
G01*
X-1222500Y1898375D01*
G75*
G02*
X-1244375Y1876500I-21875J0D01*
G01*
G37*
G36*
G01*
X-1244375Y1719000D02*
X-1295625Y1719000D01*
G75*
G02*
X-1317500Y1740875I0J21875D01*
G01*
X-1317500Y1784625D01*
G75*
G02*
X-1295625Y1806500I21875J0D01*
G01*
X-1244375Y1806500D01*
G75*
G02*
X-1222500Y1784625I0J-21875D01*
G01*
X-1222500Y1740875D01*
G75*
G02*
X-1244375Y1719000I-21875J0D01*
G01*
G37*
G36*
G01*
X-1359125Y394250D02*
X-1307875Y394250D01*
G75*
G02*
X-1286000Y372375I0J-21875D01*
G01*
X-1286000Y328625D01*
G75*
G02*
X-1307875Y306750I-21875J0D01*
G01*
X-1359125Y306750D01*
G75*
G02*
X-1381000Y328625I0J21875D01*
G01*
X-1381000Y372375D01*
G75*
G02*
X-1359125Y394250I21875J0D01*
G01*
G37*
G36*
G01*
X-1359125Y551750D02*
X-1307875Y551750D01*
G75*
G02*
X-1286000Y529875I0J-21875D01*
G01*
X-1286000Y486125D01*
G75*
G02*
X-1307875Y464250I-21875J0D01*
G01*
X-1359125Y464250D01*
G75*
G02*
X-1381000Y486125I0J21875D01*
G01*
X-1381000Y529875D01*
G75*
G02*
X-1359125Y551750I21875J0D01*
G01*
G37*
G36*
G01*
X-933500Y490750D02*
X-933500Y525250D01*
G75*
G02*
X-918750Y540000I14750J0D01*
G01*
X-889250Y540000D01*
G75*
G02*
X-874500Y525250I0J-14750D01*
G01*
X-874500Y490750D01*
G75*
G02*
X-889250Y476000I-14750J0D01*
G01*
X-918750Y476000D01*
G75*
G02*
X-933500Y490750I0J14750D01*
G01*
G37*
G36*
G01*
X-1030500Y490750D02*
X-1030500Y525250D01*
G75*
G02*
X-1015750Y540000I14750J0D01*
G01*
X-986250Y540000D01*
G75*
G02*
X-971500Y525250I0J-14750D01*
G01*
X-971500Y490750D01*
G75*
G02*
X-986250Y476000I-14750J0D01*
G01*
X-1015750Y476000D01*
G75*
G02*
X-1030500Y490750I0J14750D01*
G01*
G37*
G36*
G01*
X-933500Y363750D02*
X-933500Y398250D01*
G75*
G02*
X-918750Y413000I14750J0D01*
G01*
X-889250Y413000D01*
G75*
G02*
X-874500Y398250I0J-14750D01*
G01*
X-874500Y363750D01*
G75*
G02*
X-889250Y349000I-14750J0D01*
G01*
X-918750Y349000D01*
G75*
G02*
X-933500Y363750I0J14750D01*
G01*
G37*
G36*
G01*
X-1030500Y363750D02*
X-1030500Y398250D01*
G75*
G02*
X-1015750Y413000I14750J0D01*
G01*
X-986250Y413000D01*
G75*
G02*
X-971500Y398250I0J-14750D01*
G01*
X-971500Y363750D01*
G75*
G02*
X-986250Y349000I-14750J0D01*
G01*
X-1015750Y349000D01*
G75*
G02*
X-1030500Y363750I0J14750D01*
G01*
G37*
G36*
G01*
X-744750Y463500D02*
X-779250Y463500D01*
G75*
G02*
X-794000Y478250I0J14750D01*
G01*
X-794000Y507750D01*
G75*
G02*
X-779250Y522500I14750J0D01*
G01*
X-744750Y522500D01*
G75*
G02*
X-730000Y507750I0J-14750D01*
G01*
X-730000Y478250D01*
G75*
G02*
X-744750Y463500I-14750J0D01*
G01*
G37*
G36*
G01*
X-744750Y366500D02*
X-779250Y366500D01*
G75*
G02*
X-794000Y381250I0J14750D01*
G01*
X-794000Y410750D01*
G75*
G02*
X-779250Y425500I14750J0D01*
G01*
X-744750Y425500D01*
G75*
G02*
X-730000Y410750I0J-14750D01*
G01*
X-730000Y381250D01*
G75*
G02*
X-744750Y366500I-14750J0D01*
G01*
G37*
G36*
G01*
X-552500Y363750D02*
X-552500Y398250D01*
G75*
G02*
X-537750Y413000I14750J0D01*
G01*
X-508250Y413000D01*
G75*
G02*
X-493500Y398250I0J-14750D01*
G01*
X-493500Y363750D01*
G75*
G02*
X-508250Y349000I-14750J0D01*
G01*
X-537750Y349000D01*
G75*
G02*
X-552500Y363750I0J14750D01*
G01*
G37*
G36*
G01*
X-649500Y363750D02*
X-649500Y398250D01*
G75*
G02*
X-634750Y413000I14750J0D01*
G01*
X-605250Y413000D01*
G75*
G02*
X-590500Y398250I0J-14750D01*
G01*
X-590500Y363750D01*
G75*
G02*
X-605250Y349000I-14750J0D01*
G01*
X-634750Y349000D01*
G75*
G02*
X-649500Y363750I0J14750D01*
G01*
G37*
G36*
G01*
X-552500Y490750D02*
X-552500Y525250D01*
G75*
G02*
X-537750Y540000I14750J0D01*
G01*
X-508250Y540000D01*
G75*
G02*
X-493500Y525250I0J-14750D01*
G01*
X-493500Y490750D01*
G75*
G02*
X-508250Y476000I-14750J0D01*
G01*
X-537750Y476000D01*
G75*
G02*
X-552500Y490750I0J14750D01*
G01*
G37*
G36*
G01*
X-649500Y490750D02*
X-649500Y525250D01*
G75*
G02*
X-634750Y540000I14750J0D01*
G01*
X-605250Y540000D01*
G75*
G02*
X-590500Y525250I0J-14750D01*
G01*
X-590500Y490750D01*
G75*
G02*
X-605250Y476000I-14750J0D01*
G01*
X-634750Y476000D01*
G75*
G02*
X-649500Y490750I0J14750D01*
G01*
G37*
D14*
X-762000Y43500D03*
D15*
X-479500Y63500D03*
X-1044500Y63500D03*
D16*
X-1237000Y1583000D03*
D17*
X-1237000Y1473000D03*
X-1237000Y1363000D03*
X-1237000Y1253000D03*
X-1237000Y1143000D03*
X-1237000Y1033000D03*
X-1237000Y923000D03*
X-1237000Y813000D03*
D16*
X-1237000Y703000D03*
X-287000Y703000D03*
D17*
X-287000Y813000D03*
X-287000Y923000D03*
X-287000Y1033000D03*
X-287000Y1143000D03*
X-287000Y1253000D03*
X-287000Y1363000D03*
X-287000Y1473000D03*
D16*
X-287000Y1583000D03*
M02*
